<svg xmlns="http://www.w3.org/2000/svg" viewBox="0 0 1 1" preserveAspectRatio="xMidYMid meet">
  <path d="M0.803 0.107Q0.800 0.107 0.780 0.115Q0.761 0.123 0.735 0.137Q0.709 0.151 0.680 0.170Q0.650 0.190 0.627 0.214Q0.604 0.187 0.579 0.167Q0.553 0.148 0.529 0.135Q0.505 0.122 0.483 0.115Q0.462 0.109 0.447 0.109Q0.430 0.109 0.406 0.120Q0.383 0.132 0.361 0.145Q0.340 0.159 0.325 0.170Q0.310 0.181 0.310 0.181Q0.310 0.181 0.308 0.170Q0.305 0.160 0.302 0.147Q0.298 0.134 0.295 0.123Q0.291 0.112 0.290 0.112Q0.288 0.113 0.259 0.122Q0.230 0.132 0.185 0.157Q0.140 0.181 0.096 0.222Q0.053 0.262 0.022 0.324Q0.000 0.386 0.000 0.469Q0.000 0.526 0.014 0.586Q0.036 0.645 0.078 0.693Q0.120 0.741 0.181 0.771Q0.241 0.802 0.318 0.802Q0.352 0.802 0.387 0.792Q0.423 0.783 0.455 0.769Q0.488 0.756 0.515 0.740Q0.541 0.724 0.559 0.711Q0.572 0.711 0.594 0.717Q0.616 0.724 0.642 0.734Q0.667 0.744 0.694 0.755Q0.721 0.766 0.744 0.776Q0.768 0.786 0.786 0.792Q0.804 0.799 0.811 0.799Q0.830 0.799 0.853 0.789Q0.876 0.779 0.900 0.763Q0.924 0.748 0.946 0.731Q0.968 0.714 0.984 0.700Q0.999 0.686 1.000 0.678Q1.000 0.670 1.000 0.674Q0.980 0.689 0.961 0.702Q0.941 0.716 0.924 0.716Q0.914 0.716 0.894 0.710Q0.873 0.705 0.848 0.696Q0.822 0.687 0.793 0.677Q0.764 0.668 0.736 0.659Q0.708 0.650 0.684 0.645Q0.660 0.639 0.644 0.639Q0.639 0.639 0.638 0.640Q0.637 0.640 0.633 0.640Q0.640 0.633 0.653 0.614Q0.665 0.594 0.677 0.568Q0.688 0.542 0.696 0.512Q0.705 0.482 0.705 0.452Q0.705 0.452 0.721 0.459Q0.738 0.467 0.757 0.476Q0.777 0.485 0.794 0.492Q0.811 0.500 0.813 0.500Q0.820 0.500 0.833 0.493Q0.846 0.486 0.860 0.475Q0.875 0.465 0.891 0.453Q0.906 0.442 0.917 0.432Q0.928 0.422 0.934 0.415Q0.939 0.409 0.935 0.410Q0.930 0.411 0.911 0.403Q0.891 0.395 0.868 0.384Q0.846 0.374 0.826 0.365Q0.806 0.356 0.800 0.356Q0.794 0.356 0.778 0.368Q0.763 0.381 0.747 0.396Q0.731 0.412 0.718 0.424Q0.706 0.437 0.706 0.437V0.211Q0.706 0.204 0.726 0.208Q0.747 0.212 0.772 0.220Q0.797 0.227 0.819 0.235Q0.842 0.242 0.846 0.242Q0.856 0.242 0.876 0.230Q0.895 0.217 0.914 0.202Q0.933 0.186 0.947 0.174Q0.961 0.162 0.961 0.162Q0.961 0.162 0.938 0.153Q0.915 0.145 0.887 0.134Q0.858 0.124 0.833 0.115Q0.808 0.107 0.803 0.107ZM0.556 0.353Q0.556 0.353 0.562 0.366Q0.568 0.379 0.576 0.402Q0.583 0.426 0.590 0.459Q0.596 0.492 0.596 0.531Q0.596 0.569 0.587 0.606Q0.578 0.643 0.560 0.672Q0.541 0.701 0.514 0.719Q0.487 0.737 0.450 0.737Q0.399 0.736 0.349 0.714Q0.298 0.692 0.258 0.666Q0.218 0.640 0.193 0.619Q0.169 0.597 0.169 0.597ZM0.311 0.442 0.529 0.305Q0.530 0.306 0.535 0.313Q0.539 0.320 0.545 0.329Q0.550 0.337 0.550 0.339L0.266 0.516Q0.268 0.514 0.278 0.501Q0.288 0.489 0.300 0.470Q0.311 0.452 0.311 0.442ZM0.520 0.294 0.311 0.424V0.201Q0.311 0.185 0.336 0.185Q0.369 0.185 0.402 0.202Q0.435 0.219 0.461 0.240Q0.488 0.260 0.504 0.277Q0.520 0.294 0.520 0.294ZM0.159 0.585Q0.159 0.585 0.148 0.573Q0.137 0.560 0.124 0.537Q0.112 0.514 0.101 0.482Q0.090 0.450 0.090 0.410Q0.090 0.355 0.096 0.317Q0.103 0.278 0.113 0.253Q0.123 0.227 0.135 0.213Q0.147 0.198 0.158 0.191Q0.169 0.183 0.177 0.182Q0.185 0.180 0.187 0.180V0.498Q0.187 0.526 0.180 0.547Q0.173 0.567 0.166 0.576Q0.160 0.584 0.159 0.585Z" fill="black"/>
</svg>
