<svg xmlns="http://www.w3.org/2000/svg" viewBox="0 0 1 1" preserveAspectRatio="xMidYMid meet">
  <path d="M0.592 0.397Q0.582 0.380 0.566 0.363Q0.549 0.346 0.527 0.332Q0.504 0.318 0.477 0.310Q0.449 0.301 0.415 0.301Q0.399 0.301 0.375 0.309Q0.351 0.317 0.324 0.329Q0.296 0.341 0.268 0.356Q0.240 0.371 0.216 0.385Q0.192 0.399 0.175 0.410Q0.159 0.422 0.155 0.428Q0.140 0.448 0.125 0.488Q0.111 0.527 0.111 0.569Q0.111 0.616 0.126 0.658Q0.141 0.700 0.167 0.731Q0.194 0.763 0.232 0.781Q0.269 0.800 0.314 0.800Q0.335 0.800 0.351 0.795Q0.368 0.790 0.383 0.782Q0.398 0.775 0.413 0.765Q0.428 0.755 0.446 0.745Q0.491 0.719 0.513 0.703Q0.536 0.687 0.539 0.683Q0.551 0.704 0.573 0.725Q0.594 0.747 0.618 0.763Q0.641 0.780 0.662 0.790Q0.683 0.801 0.694 0.801Q0.697 0.801 0.713 0.792Q0.729 0.784 0.749 0.772Q0.769 0.760 0.789 0.747Q0.810 0.735 0.822 0.727Q0.834 0.720 0.835 0.719Q0.835 0.719 0.832 0.720Q0.828 0.722 0.824 0.722Q0.803 0.722 0.781 0.710Q0.759 0.699 0.737 0.680Q0.716 0.662 0.696 0.638Q0.676 0.614 0.659 0.590Q0.676 0.578 0.699 0.561Q0.723 0.543 0.749 0.524Q0.775 0.505 0.800 0.486Q0.825 0.467 0.844 0.451Q0.864 0.435 0.877 0.423Q0.889 0.412 0.889 0.409Q0.889 0.405 0.873 0.388Q0.857 0.371 0.837 0.351Q0.817 0.332 0.798 0.317Q0.780 0.301 0.774 0.301Q0.768 0.301 0.741 0.313Q0.715 0.325 0.684 0.341Q0.653 0.358 0.626 0.374Q0.599 0.390 0.592 0.397ZM0.302 0.362Q0.318 0.362 0.350 0.373Q0.383 0.384 0.415 0.412Q0.448 0.440 0.472 0.487Q0.497 0.533 0.497 0.605Q0.497 0.631 0.491 0.655Q0.485 0.678 0.474 0.695Q0.464 0.712 0.450 0.722Q0.437 0.732 0.422 0.732Q0.405 0.732 0.374 0.721Q0.343 0.710 0.313 0.684Q0.282 0.658 0.260 0.615Q0.237 0.571 0.237 0.505Q0.237 0.477 0.242 0.450Q0.247 0.424 0.256 0.404Q0.264 0.385 0.276 0.373Q0.288 0.362 0.302 0.362ZM0.653 0.580Q0.652 0.580 0.648 0.572Q0.644 0.564 0.640 0.551Q0.635 0.537 0.632 0.519Q0.628 0.501 0.628 0.482Q0.628 0.449 0.636 0.426Q0.643 0.404 0.649 0.395Q0.655 0.387 0.656 0.386Q0.656 0.386 0.673 0.400Q0.691 0.414 0.711 0.432Q0.732 0.451 0.749 0.468Q0.767 0.485 0.767 0.491Q0.767 0.493 0.749 0.506Q0.732 0.520 0.711 0.537Q0.690 0.553 0.672 0.567Q0.654 0.580 0.653 0.580Z" fill="black"/>
</svg>
