<svg xmlns="http://www.w3.org/2000/svg" viewBox="0 0 1 1" preserveAspectRatio="xMidYMid meet">
  <path d="M0.430 0.800Q0.446 0.800 0.476 0.788Q0.506 0.777 0.542 0.758Q0.578 0.740 0.616 0.717Q0.653 0.694 0.683 0.670Q0.714 0.646 0.733 0.624Q0.753 0.601 0.753 0.585Q0.753 0.558 0.732 0.534Q0.712 0.509 0.685 0.491Q0.659 0.473 0.633 0.462Q0.607 0.451 0.596 0.451Q0.581 0.451 0.556 0.467Q0.531 0.483 0.506 0.502Q0.481 0.521 0.460 0.537Q0.440 0.553 0.435 0.553Q0.425 0.553 0.412 0.537Q0.400 0.521 0.389 0.499Q0.379 0.477 0.371 0.454Q0.364 0.431 0.364 0.417Q0.364 0.396 0.372 0.384Q0.380 0.373 0.388 0.373Q0.401 0.373 0.427 0.385Q0.454 0.398 0.481 0.412Q0.507 0.427 0.529 0.439Q0.550 0.452 0.553 0.452Q0.556 0.452 0.575 0.439Q0.594 0.427 0.616 0.411Q0.637 0.396 0.655 0.382Q0.673 0.369 0.673 0.367Q0.673 0.366 0.654 0.355Q0.635 0.345 0.610 0.333Q0.584 0.321 0.558 0.311Q0.532 0.301 0.519 0.301Q0.516 0.301 0.495 0.308Q0.474 0.314 0.443 0.327Q0.413 0.340 0.378 0.359Q0.344 0.378 0.315 0.402Q0.286 0.427 0.267 0.456Q0.247 0.486 0.247 0.520Q0.247 0.545 0.256 0.568Q0.264 0.591 0.276 0.609Q0.288 0.627 0.302 0.638Q0.315 0.649 0.326 0.649Q0.337 0.649 0.360 0.633Q0.384 0.616 0.408 0.596Q0.432 0.575 0.451 0.559Q0.471 0.542 0.475 0.542Q0.500 0.542 0.527 0.558Q0.555 0.574 0.578 0.596Q0.600 0.618 0.615 0.641Q0.630 0.663 0.630 0.676Q0.630 0.681 0.624 0.688Q0.617 0.696 0.608 0.703Q0.599 0.710 0.589 0.714Q0.578 0.719 0.570 0.719Q0.543 0.719 0.514 0.706Q0.485 0.694 0.460 0.679Q0.436 0.664 0.418 0.652Q0.400 0.639 0.395 0.639Q0.391 0.639 0.369 0.653Q0.348 0.666 0.324 0.682Q0.299 0.699 0.280 0.713Q0.260 0.727 0.260 0.728Q0.260 0.729 0.277 0.740Q0.293 0.752 0.318 0.765Q0.343 0.778 0.373 0.789Q0.403 0.800 0.430 0.800ZM0.598 0.173Q0.597 0.170 0.583 0.178Q0.568 0.186 0.551 0.196Q0.533 0.206 0.519 0.215Q0.504 0.224 0.503 0.224Q0.502 0.224 0.488 0.216Q0.474 0.207 0.456 0.197Q0.439 0.186 0.424 0.178Q0.409 0.169 0.408 0.170Q0.402 0.174 0.386 0.187Q0.371 0.199 0.363 0.211Q0.362 0.213 0.379 0.221Q0.396 0.229 0.417 0.238Q0.439 0.246 0.457 0.253Q0.476 0.260 0.477 0.260Q0.478 0.260 0.497 0.247Q0.515 0.234 0.538 0.218Q0.561 0.202 0.580 0.189Q0.598 0.175 0.598 0.173Z" fill="black"/>
</svg>
