<svg xmlns="http://www.w3.org/2000/svg" viewBox="0 0 1 1" preserveAspectRatio="xMidYMid meet">
  <path d="M0.571 0.387Q0.579 0.396 0.586 0.408Q0.593 0.421 0.593 0.448V0.743Q0.593 0.760 0.598 0.771Q0.603 0.782 0.609 0.788Q0.615 0.795 0.621 0.797Q0.627 0.800 0.629 0.800Q0.638 0.800 0.663 0.787Q0.689 0.774 0.716 0.758Q0.743 0.742 0.764 0.729Q0.785 0.716 0.785 0.716Q0.785 0.716 0.776 0.718Q0.767 0.721 0.764 0.721Q0.753 0.721 0.743 0.715Q0.733 0.709 0.733 0.680V0.365Q0.733 0.353 0.727 0.341Q0.720 0.330 0.712 0.321Q0.703 0.311 0.695 0.306Q0.687 0.300 0.684 0.300Q0.675 0.300 0.660 0.307Q0.645 0.313 0.628 0.323Q0.612 0.333 0.596 0.343Q0.581 0.354 0.570 0.361Q0.555 0.361 0.533 0.361Q0.510 0.362 0.489 0.362Q0.468 0.363 0.453 0.362Q0.438 0.362 0.438 0.361V0.188Q0.438 0.182 0.451 0.195Q0.463 0.208 0.480 0.226Q0.496 0.244 0.512 0.260Q0.528 0.275 0.535 0.275Q0.536 0.275 0.545 0.270Q0.554 0.265 0.566 0.258Q0.579 0.251 0.593 0.243Q0.608 0.234 0.620 0.226Q0.633 0.218 0.641 0.213Q0.649 0.208 0.649 0.207Q0.649 0.204 0.635 0.187Q0.621 0.170 0.603 0.152Q0.585 0.133 0.568 0.117Q0.552 0.102 0.548 0.102Q0.543 0.102 0.513 0.115Q0.483 0.129 0.446 0.149Q0.408 0.168 0.374 0.191Q0.339 0.214 0.324 0.232Q0.315 0.243 0.310 0.269Q0.306 0.295 0.303 0.322Q0.301 0.349 0.300 0.369Q0.300 0.390 0.300 0.390Q0.297 0.390 0.283 0.400Q0.269 0.410 0.253 0.421Q0.237 0.433 0.225 0.443Q0.213 0.453 0.215 0.453Q0.220 0.453 0.233 0.451Q0.247 0.450 0.261 0.448Q0.276 0.447 0.287 0.446Q0.298 0.445 0.298 0.445V0.800Q0.298 0.803 0.313 0.798Q0.329 0.794 0.348 0.788Q0.367 0.782 0.382 0.776Q0.397 0.770 0.397 0.770Q0.397 0.770 0.405 0.775Q0.413 0.780 0.427 0.780Q0.444 0.780 0.453 0.775Q0.462 0.771 0.462 0.771Q0.461 0.771 0.456 0.766Q0.450 0.761 0.444 0.747Q0.438 0.733 0.438 0.709V0.444Q0.438 0.443 0.446 0.443Q0.454 0.443 0.464 0.443Q0.475 0.443 0.485 0.443Q0.495 0.443 0.500 0.443Q0.501 0.443 0.509 0.437Q0.517 0.432 0.528 0.424Q0.538 0.416 0.549 0.406Q0.561 0.396 0.571 0.387Z" fill="black"/>
</svg>
