<svg xmlns="http://www.w3.org/2000/svg" viewBox="0 0 1 1" preserveAspectRatio="xMidYMid meet">
  <path d="M0.487 0.275Q0.488 0.275 0.497 0.270Q0.507 0.264 0.520 0.257Q0.534 0.249 0.550 0.240Q0.566 0.230 0.579 0.223Q0.592 0.215 0.601 0.210Q0.610 0.204 0.611 0.204Q0.613 0.204 0.616 0.219Q0.618 0.233 0.618 0.248V0.680Q0.618 0.706 0.627 0.727Q0.636 0.749 0.647 0.765Q0.658 0.782 0.669 0.791Q0.680 0.800 0.685 0.800Q0.688 0.800 0.712 0.792Q0.736 0.785 0.763 0.775Q0.790 0.765 0.812 0.755Q0.834 0.746 0.834 0.741Q0.834 0.740 0.827 0.740Q0.818 0.740 0.806 0.728Q0.794 0.716 0.783 0.698Q0.773 0.680 0.766 0.660Q0.759 0.639 0.759 0.621V0.197Q0.759 0.192 0.757 0.184Q0.755 0.175 0.751 0.167Q0.748 0.159 0.743 0.153Q0.739 0.147 0.734 0.147Q0.719 0.147 0.700 0.152Q0.681 0.157 0.662 0.164Q0.642 0.171 0.625 0.181Q0.607 0.190 0.594 0.198Q0.586 0.188 0.572 0.171Q0.558 0.155 0.543 0.139Q0.528 0.123 0.515 0.112Q0.503 0.101 0.500 0.102Q0.413 0.135 0.360 0.168Q0.306 0.202 0.280 0.225Q0.269 0.235 0.263 0.262Q0.257 0.289 0.255 0.318Q0.252 0.346 0.252 0.368Q0.251 0.390 0.251 0.390Q0.237 0.399 0.221 0.410Q0.205 0.421 0.192 0.430Q0.180 0.440 0.172 0.446Q0.165 0.453 0.167 0.453Q0.172 0.453 0.185 0.451Q0.199 0.450 0.213 0.449Q0.228 0.449 0.238 0.448Q0.249 0.448 0.249 0.449V0.800Q0.249 0.803 0.265 0.798Q0.280 0.794 0.299 0.788Q0.318 0.782 0.334 0.776Q0.349 0.770 0.349 0.770Q0.357 0.777 0.369 0.778Q0.380 0.780 0.391 0.778Q0.401 0.777 0.407 0.774Q0.414 0.772 0.413 0.771Q0.401 0.762 0.396 0.744Q0.390 0.726 0.390 0.709V0.444Q0.390 0.443 0.398 0.441Q0.405 0.440 0.415 0.440Q0.426 0.440 0.436 0.440Q0.447 0.441 0.452 0.443Q0.454 0.444 0.469 0.432Q0.485 0.421 0.502 0.406Q0.519 0.391 0.532 0.377Q0.545 0.364 0.541 0.361Q0.540 0.361 0.529 0.361Q0.518 0.361 0.501 0.361Q0.484 0.362 0.464 0.362Q0.445 0.362 0.428 0.362Q0.412 0.363 0.401 0.362Q0.390 0.362 0.390 0.361V0.188Q0.390 0.182 0.403 0.195Q0.415 0.208 0.431 0.226Q0.448 0.244 0.464 0.260Q0.480 0.275 0.487 0.275Z" fill="black"/>
</svg>
