<svg xmlns="http://www.w3.org/2000/svg" viewBox="0 0 1 1" preserveAspectRatio="xMidYMid meet">
  <path d="M0.313 0.575 0.427 0.509V0.680Q0.427 0.706 0.436 0.727Q0.445 0.749 0.456 0.765Q0.467 0.782 0.478 0.791Q0.489 0.800 0.494 0.800Q0.497 0.800 0.521 0.792Q0.545 0.785 0.572 0.775Q0.599 0.765 0.621 0.755Q0.643 0.746 0.643 0.741Q0.643 0.740 0.636 0.740Q0.627 0.740 0.615 0.728Q0.603 0.716 0.592 0.698Q0.582 0.680 0.575 0.660Q0.568 0.639 0.568 0.621V0.428L0.669 0.369L0.687 0.300L0.568 0.369V0.197Q0.568 0.192 0.566 0.184Q0.564 0.175 0.560 0.167Q0.557 0.159 0.552 0.153Q0.548 0.147 0.543 0.147Q0.526 0.147 0.505 0.153Q0.484 0.159 0.465 0.167Q0.446 0.174 0.433 0.182Q0.420 0.189 0.420 0.192Q0.420 0.199 0.424 0.214Q0.427 0.228 0.427 0.248V0.452Q0.427 0.451 0.412 0.459Q0.397 0.468 0.379 0.478Q0.360 0.489 0.345 0.498Q0.331 0.506 0.331 0.506Z" fill="black"/>
</svg>
