<svg xmlns="http://www.w3.org/2000/svg" viewBox="0 0 1 1" preserveAspectRatio="xMidYMid meet">
  <path d="M0.263 0.510Q0.271 0.505 0.292 0.503Q0.313 0.500 0.334 0.500H0.623Q0.633 0.500 0.642 0.500Q0.652 0.500 0.660 0.496Q0.676 0.486 0.692 0.467Q0.707 0.448 0.719 0.430Q0.730 0.412 0.736 0.399Q0.741 0.387 0.736 0.391Q0.729 0.396 0.714 0.398Q0.698 0.401 0.682 0.401H0.371Q0.361 0.401 0.352 0.401Q0.343 0.402 0.337 0.406Q0.320 0.416 0.306 0.434Q0.291 0.453 0.281 0.471Q0.270 0.489 0.265 0.500Q0.260 0.512 0.263 0.510Z" fill="black"/>
</svg>
