<svg xmlns="http://www.w3.org/2000/svg" viewBox="0 0 1 1" preserveAspectRatio="xMidYMid meet">
  <path d="M0.161 0.510Q0.169 0.505 0.190 0.503Q0.212 0.500 0.233 0.500H0.724Q0.735 0.500 0.744 0.500Q0.754 0.500 0.762 0.496Q0.778 0.486 0.793 0.467Q0.809 0.448 0.820 0.430Q0.832 0.412 0.837 0.399Q0.843 0.387 0.838 0.391Q0.831 0.396 0.815 0.398Q0.800 0.401 0.784 0.401H0.270Q0.260 0.401 0.251 0.401Q0.242 0.402 0.236 0.406Q0.219 0.416 0.204 0.434Q0.190 0.453 0.179 0.471Q0.168 0.489 0.163 0.500Q0.158 0.512 0.161 0.510Z" fill="black"/>
</svg>
