<svg xmlns="http://www.w3.org/2000/svg" viewBox="0 0 1 1" preserveAspectRatio="xMidYMid meet">
  <path d="M0.594 0.242Q0.594 0.235 0.582 0.229Q0.571 0.222 0.557 0.216Q0.544 0.210 0.533 0.204Q0.522 0.198 0.522 0.192Q0.522 0.191 0.520 0.180Q0.519 0.168 0.518 0.150Q0.518 0.132 0.520 0.107Q0.522 0.082 0.529 0.053Q0.532 0.041 0.524 0.052Q0.516 0.063 0.502 0.085Q0.489 0.108 0.472 0.138Q0.455 0.167 0.441 0.195Q0.426 0.222 0.416 0.241Q0.406 0.260 0.406 0.261Q0.406 0.265 0.416 0.274Q0.425 0.282 0.437 0.291Q0.449 0.299 0.460 0.306Q0.471 0.312 0.475 0.312Q0.484 0.312 0.504 0.302Q0.524 0.291 0.544 0.278Q0.564 0.265 0.579 0.254Q0.594 0.243 0.594 0.242Z" fill="black"/>
</svg>
