<svg xmlns="http://www.w3.org/2000/svg" viewBox="0 0 1 1" preserveAspectRatio="xMidYMid meet">
  <path d="M0.406 0.122Q0.406 0.130 0.417 0.136Q0.428 0.143 0.442 0.149Q0.455 0.155 0.467 0.160Q0.478 0.166 0.478 0.171Q0.478 0.173 0.480 0.184Q0.481 0.195 0.482 0.214Q0.482 0.232 0.480 0.257Q0.478 0.282 0.471 0.311Q0.468 0.323 0.476 0.312Q0.484 0.301 0.498 0.279Q0.511 0.256 0.528 0.226Q0.545 0.196 0.559 0.169Q0.574 0.142 0.584 0.123Q0.594 0.104 0.594 0.103Q0.594 0.099 0.584 0.090Q0.575 0.082 0.563 0.073Q0.551 0.065 0.540 0.058Q0.529 0.052 0.525 0.052Q0.516 0.052 0.496 0.062Q0.476 0.073 0.456 0.086Q0.436 0.099 0.421 0.110Q0.406 0.121 0.406 0.122Z" fill="black"/>
</svg>
