<svg xmlns="http://www.w3.org/2000/svg" viewBox="0 0 1 1" preserveAspectRatio="xMidYMid meet">
  <path d="M0.477 0.242Q0.477 0.235 0.465 0.229Q0.454 0.222 0.440 0.216Q0.427 0.210 0.416 0.204Q0.405 0.198 0.405 0.192Q0.405 0.191 0.403 0.180Q0.402 0.168 0.401 0.150Q0.401 0.132 0.403 0.107Q0.405 0.082 0.412 0.053Q0.415 0.041 0.407 0.052Q0.399 0.063 0.385 0.085Q0.372 0.108 0.355 0.138Q0.338 0.167 0.324 0.195Q0.309 0.222 0.299 0.241Q0.289 0.260 0.289 0.261Q0.289 0.265 0.299 0.274Q0.308 0.282 0.320 0.291Q0.332 0.299 0.343 0.306Q0.354 0.312 0.358 0.312Q0.367 0.312 0.387 0.302Q0.407 0.291 0.427 0.278Q0.447 0.265 0.462 0.254Q0.477 0.243 0.477 0.242ZM0.711 0.242Q0.711 0.235 0.699 0.229Q0.688 0.222 0.674 0.216Q0.661 0.210 0.650 0.204Q0.639 0.198 0.639 0.192Q0.639 0.191 0.638 0.180Q0.636 0.168 0.636 0.150Q0.635 0.132 0.637 0.107Q0.639 0.082 0.646 0.053Q0.649 0.041 0.641 0.052Q0.633 0.063 0.620 0.085Q0.606 0.108 0.589 0.138Q0.572 0.167 0.558 0.195Q0.543 0.222 0.533 0.241Q0.523 0.260 0.523 0.261Q0.523 0.265 0.533 0.274Q0.542 0.282 0.554 0.291Q0.566 0.299 0.577 0.306Q0.588 0.312 0.592 0.312Q0.602 0.312 0.622 0.302Q0.642 0.291 0.662 0.278Q0.681 0.265 0.696 0.254Q0.711 0.243 0.711 0.242Z" fill="black"/>
</svg>
