<svg xmlns="http://www.w3.org/2000/svg" viewBox="0 0 1 1" preserveAspectRatio="xMidYMid meet">
  <path d="M0.523 0.122Q0.523 0.130 0.534 0.136Q0.545 0.143 0.559 0.149Q0.572 0.155 0.584 0.160Q0.595 0.166 0.595 0.171Q0.595 0.173 0.597 0.184Q0.598 0.195 0.599 0.214Q0.599 0.232 0.597 0.257Q0.595 0.282 0.588 0.311Q0.585 0.323 0.593 0.312Q0.601 0.301 0.615 0.279Q0.628 0.256 0.645 0.226Q0.662 0.196 0.676 0.169Q0.691 0.142 0.701 0.123Q0.711 0.104 0.711 0.103Q0.711 0.099 0.701 0.090Q0.692 0.082 0.680 0.073Q0.668 0.065 0.657 0.058Q0.646 0.052 0.642 0.052Q0.633 0.052 0.613 0.062Q0.593 0.073 0.573 0.086Q0.553 0.099 0.538 0.110Q0.523 0.121 0.523 0.122ZM0.289 0.122Q0.289 0.130 0.300 0.136Q0.311 0.143 0.325 0.149Q0.338 0.155 0.349 0.160Q0.361 0.166 0.361 0.171Q0.361 0.173 0.362 0.184Q0.364 0.195 0.364 0.214Q0.365 0.232 0.363 0.257Q0.361 0.282 0.354 0.311Q0.351 0.323 0.359 0.312Q0.367 0.301 0.380 0.279Q0.394 0.256 0.411 0.226Q0.428 0.196 0.442 0.169Q0.457 0.142 0.467 0.123Q0.477 0.104 0.477 0.103Q0.477 0.099 0.467 0.090Q0.458 0.082 0.446 0.073Q0.434 0.065 0.423 0.058Q0.412 0.052 0.408 0.052Q0.399 0.052 0.379 0.062Q0.360 0.073 0.340 0.086Q0.320 0.099 0.305 0.110Q0.289 0.121 0.289 0.122Z" fill="black"/>
</svg>
