<svg xmlns="http://www.w3.org/2000/svg" viewBox="0 0 1 1" preserveAspectRatio="xMidYMid meet">
  <path d="M0.523 0.609Q0.523 0.617 0.534 0.624Q0.545 0.630 0.559 0.636Q0.572 0.642 0.584 0.648Q0.595 0.653 0.595 0.659Q0.595 0.661 0.597 0.672Q0.598 0.683 0.599 0.701Q0.599 0.720 0.597 0.745Q0.595 0.770 0.588 0.799Q0.585 0.811 0.593 0.800Q0.601 0.789 0.615 0.766Q0.628 0.744 0.645 0.714Q0.662 0.684 0.676 0.657Q0.691 0.629 0.701 0.610Q0.711 0.591 0.711 0.590Q0.711 0.586 0.701 0.578Q0.692 0.569 0.680 0.561Q0.668 0.552 0.657 0.546Q0.646 0.539 0.642 0.539Q0.633 0.539 0.613 0.550Q0.593 0.560 0.573 0.573Q0.553 0.586 0.538 0.597Q0.523 0.608 0.523 0.609ZM0.289 0.609Q0.289 0.617 0.300 0.624Q0.311 0.630 0.325 0.636Q0.338 0.642 0.349 0.648Q0.361 0.653 0.361 0.659Q0.361 0.661 0.362 0.672Q0.364 0.683 0.364 0.701Q0.365 0.720 0.363 0.745Q0.361 0.770 0.354 0.799Q0.351 0.811 0.359 0.800Q0.367 0.789 0.380 0.766Q0.394 0.744 0.411 0.714Q0.428 0.684 0.442 0.657Q0.457 0.629 0.467 0.610Q0.477 0.591 0.477 0.590Q0.477 0.586 0.467 0.578Q0.458 0.569 0.446 0.561Q0.434 0.552 0.423 0.546Q0.412 0.539 0.408 0.539Q0.399 0.539 0.379 0.550Q0.359 0.560 0.339 0.573Q0.319 0.586 0.304 0.597Q0.289 0.608 0.289 0.609Z" fill="black"/>
</svg>
