<svg xmlns="http://www.w3.org/2000/svg" viewBox="0 0 1 1" preserveAspectRatio="xMidYMid meet">
  <path d="M0.535 0.505 0.518 0.419 0.535 0.335 0.501 0.237 0.602 0.269 0.635 0.236 0.602 0.203 0.501 0.235 0.533 0.135 0.500 0.102 0.467 0.135 0.499 0.235 0.398 0.203 0.365 0.236 0.398 0.269 0.499 0.237 0.467 0.335 0.482 0.419 0.467 0.505 0.499 0.603 0.398 0.571 0.365 0.604 0.398 0.637 0.499 0.605 0.467 0.706 0.500 0.739 0.533 0.706 0.501 0.605 0.602 0.637 0.635 0.604 0.602 0.571 0.501 0.603Z" fill="black"/>
</svg>
