<svg xmlns="http://www.w3.org/2000/svg" viewBox="0 0 1 1" preserveAspectRatio="xMidYMid meet">
  <path d="M0.693 0.750Q0.694 0.758 0.704 0.766Q0.713 0.774 0.725 0.781Q0.737 0.789 0.749 0.794Q0.760 0.799 0.765 0.800Q0.767 0.800 0.786 0.790Q0.804 0.780 0.826 0.767Q0.847 0.754 0.864 0.743Q0.881 0.733 0.881 0.731Q0.880 0.727 0.870 0.719Q0.861 0.711 0.849 0.702Q0.837 0.694 0.827 0.687Q0.816 0.680 0.812 0.680Q0.803 0.679 0.783 0.689Q0.763 0.700 0.743 0.713Q0.723 0.726 0.708 0.737Q0.693 0.749 0.693 0.750ZM0.406 0.752Q0.407 0.760 0.417 0.768Q0.426 0.776 0.438 0.783Q0.450 0.790 0.462 0.794Q0.473 0.799 0.478 0.800Q0.480 0.800 0.499 0.790Q0.517 0.780 0.538 0.768Q0.560 0.756 0.577 0.745Q0.594 0.735 0.594 0.733Q0.593 0.729 0.583 0.721Q0.574 0.713 0.562 0.704Q0.550 0.696 0.539 0.689Q0.529 0.682 0.525 0.682Q0.516 0.681 0.496 0.691Q0.476 0.702 0.456 0.715Q0.436 0.728 0.421 0.739Q0.406 0.751 0.406 0.752ZM0.119 0.750Q0.120 0.758 0.130 0.766Q0.139 0.774 0.151 0.781Q0.163 0.789 0.174 0.794Q0.186 0.799 0.191 0.800Q0.193 0.800 0.211 0.790Q0.230 0.780 0.251 0.767Q0.273 0.754 0.290 0.743Q0.307 0.733 0.307 0.731Q0.306 0.727 0.296 0.719Q0.287 0.711 0.275 0.702Q0.263 0.694 0.252 0.687Q0.242 0.680 0.238 0.680Q0.229 0.679 0.209 0.689Q0.189 0.700 0.169 0.713Q0.149 0.726 0.134 0.737Q0.119 0.749 0.119 0.750Z" fill="black"/>
</svg>
