<svg xmlns="http://www.w3.org/2000/svg" viewBox="0 0 1 1" preserveAspectRatio="xMidYMid meet">
  <path d="M0.707 0.813Q0.724 0.813 0.735 0.805Q0.747 0.798 0.761 0.789Q0.805 0.763 0.823 0.743Q0.841 0.724 0.841 0.694Q0.841 0.676 0.835 0.659Q0.828 0.641 0.816 0.628Q0.804 0.614 0.787 0.606Q0.770 0.597 0.749 0.597Q0.739 0.597 0.721 0.604Q0.704 0.611 0.686 0.621Q0.668 0.630 0.653 0.639Q0.639 0.648 0.636 0.652Q0.630 0.660 0.624 0.677Q0.618 0.694 0.618 0.713Q0.618 0.725 0.622 0.742Q0.626 0.759 0.636 0.775Q0.647 0.791 0.664 0.802Q0.681 0.813 0.707 0.813ZM0.700 0.624Q0.704 0.624 0.717 0.628Q0.731 0.632 0.746 0.643Q0.760 0.654 0.772 0.675Q0.783 0.696 0.783 0.730Q0.783 0.737 0.781 0.746Q0.779 0.755 0.776 0.763Q0.772 0.772 0.766 0.778Q0.760 0.784 0.752 0.784Q0.747 0.784 0.733 0.780Q0.720 0.776 0.706 0.764Q0.693 0.753 0.682 0.734Q0.672 0.715 0.672 0.685Q0.672 0.663 0.679 0.644Q0.687 0.624 0.700 0.624ZM0.168 0.688Q0.164 0.700 0.162 0.720Q0.160 0.740 0.159 0.759Q0.158 0.778 0.159 0.790Q0.160 0.803 0.162 0.800Q0.162 0.802 0.181 0.780Q0.200 0.758 0.232 0.720Q0.263 0.682 0.303 0.633Q0.344 0.583 0.386 0.531Q0.428 0.479 0.469 0.427Q0.510 0.375 0.543 0.333Q0.575 0.291 0.596 0.263Q0.617 0.234 0.619 0.227Q0.625 0.211 0.625 0.189Q0.625 0.167 0.623 0.148Q0.621 0.128 0.618 0.114Q0.616 0.101 0.615 0.102Q0.615 0.098 0.596 0.120Q0.578 0.142 0.547 0.180Q0.516 0.218 0.477 0.269Q0.437 0.319 0.396 0.373Q0.355 0.427 0.315 0.480Q0.275 0.533 0.244 0.577Q0.212 0.621 0.191 0.651Q0.170 0.681 0.168 0.688ZM0.467 0.808Q0.484 0.808 0.496 0.800Q0.507 0.793 0.522 0.784Q0.566 0.758 0.584 0.738Q0.602 0.719 0.602 0.689Q0.602 0.671 0.595 0.654Q0.589 0.636 0.577 0.623Q0.565 0.609 0.548 0.601Q0.531 0.592 0.509 0.592Q0.499 0.592 0.482 0.599Q0.464 0.606 0.446 0.616Q0.428 0.625 0.414 0.634Q0.400 0.643 0.397 0.647Q0.391 0.655 0.385 0.672Q0.379 0.689 0.379 0.708Q0.379 0.720 0.383 0.737Q0.387 0.754 0.397 0.770Q0.408 0.786 0.424 0.797Q0.441 0.808 0.467 0.808ZM0.460 0.619Q0.464 0.619 0.478 0.623Q0.491 0.627 0.506 0.638Q0.521 0.649 0.533 0.670Q0.544 0.691 0.544 0.725Q0.544 0.732 0.542 0.741Q0.540 0.750 0.537 0.758Q0.533 0.767 0.527 0.773Q0.521 0.779 0.513 0.779Q0.507 0.779 0.494 0.775Q0.480 0.771 0.467 0.759Q0.453 0.748 0.443 0.729Q0.432 0.710 0.432 0.680Q0.432 0.658 0.440 0.639Q0.447 0.619 0.460 0.619ZM0.248 0.319Q0.265 0.319 0.276 0.312Q0.288 0.304 0.303 0.295Q0.347 0.269 0.365 0.250Q0.383 0.230 0.383 0.200Q0.383 0.182 0.376 0.165Q0.370 0.148 0.358 0.134Q0.346 0.121 0.329 0.112Q0.312 0.104 0.290 0.104Q0.280 0.104 0.262 0.111Q0.245 0.118 0.227 0.127Q0.209 0.137 0.195 0.146Q0.180 0.155 0.177 0.159Q0.171 0.167 0.165 0.183Q0.159 0.200 0.159 0.219Q0.159 0.231 0.163 0.248Q0.167 0.265 0.178 0.281Q0.188 0.297 0.205 0.308Q0.222 0.319 0.248 0.319ZM0.241 0.131Q0.245 0.131 0.258 0.135Q0.272 0.139 0.287 0.150Q0.302 0.161 0.313 0.181Q0.325 0.202 0.325 0.236Q0.325 0.243 0.323 0.252Q0.321 0.261 0.317 0.270Q0.314 0.278 0.308 0.284Q0.302 0.290 0.294 0.290Q0.288 0.290 0.274 0.286Q0.261 0.282 0.248 0.271Q0.234 0.259 0.224 0.240Q0.213 0.221 0.213 0.191Q0.213 0.169 0.221 0.150Q0.228 0.131 0.241 0.131Z" fill="black"/>
</svg>
