<svg xmlns="http://www.w3.org/2000/svg" viewBox="0 0 1 1" preserveAspectRatio="xMidYMid meet">
  <path d="M0.611 0.538 0.505 0.556Q0.501 0.576 0.494 0.591Q0.486 0.605 0.470 0.618Q0.454 0.631 0.427 0.644Q0.399 0.656 0.354 0.672Q0.354 0.672 0.379 0.680Q0.403 0.688 0.436 0.703Q0.468 0.718 0.500 0.739Q0.533 0.761 0.550 0.789L0.646 0.767Q0.630 0.741 0.603 0.720Q0.576 0.699 0.550 0.684Q0.524 0.670 0.505 0.663Q0.486 0.655 0.486 0.655Q0.518 0.642 0.539 0.631Q0.561 0.619 0.575 0.606Q0.589 0.592 0.597 0.576Q0.605 0.560 0.611 0.538Z" fill="black"/>
</svg>
