<svg xmlns="http://www.w3.org/2000/svg" viewBox="0 0 1 1" preserveAspectRatio="xMidYMid meet">
  <path d="M0.389 0.789 0.495 0.771Q0.499 0.752 0.506 0.737Q0.514 0.722 0.530 0.709Q0.546 0.696 0.573 0.683Q0.601 0.671 0.646 0.655Q0.646 0.655 0.621 0.647Q0.597 0.639 0.564 0.624Q0.532 0.609 0.499 0.588Q0.466 0.566 0.450 0.538L0.354 0.560Q0.370 0.586 0.397 0.607Q0.424 0.628 0.450 0.643Q0.476 0.657 0.495 0.665Q0.514 0.672 0.514 0.672Q0.482 0.685 0.461 0.696Q0.439 0.708 0.425 0.721Q0.411 0.735 0.403 0.751Q0.395 0.767 0.389 0.789Z" fill="black"/>
</svg>
