<svg xmlns="http://www.w3.org/2000/svg" viewBox="0 0 1 1" preserveAspectRatio="xMidYMid meet">
  <path d="M0.574 0.649 0.433 0.699V0.800Q0.433 0.805 0.455 0.798Q0.477 0.792 0.503 0.781Q0.530 0.771 0.552 0.760Q0.574 0.750 0.574 0.748ZM0.433 0.619 0.574 0.571V0.197Q0.574 0.191 0.572 0.183Q0.570 0.175 0.567 0.168Q0.565 0.161 0.562 0.156Q0.560 0.151 0.558 0.151Q0.540 0.151 0.517 0.156Q0.494 0.162 0.474 0.168Q0.454 0.175 0.440 0.182Q0.426 0.189 0.426 0.192Q0.426 0.197 0.430 0.210Q0.433 0.223 0.433 0.248Z" fill="black"/>
</svg>
