<svg xmlns="http://www.w3.org/2000/svg" viewBox="0 0 1 1" preserveAspectRatio="xMidYMid meet">
  <path d="M0.621 0.152Q0.621 0.149 0.616 0.141Q0.611 0.133 0.604 0.124Q0.597 0.115 0.589 0.108Q0.581 0.102 0.576 0.102Q0.571 0.102 0.563 0.108Q0.555 0.115 0.548 0.124Q0.541 0.133 0.536 0.141Q0.531 0.149 0.531 0.152Q0.531 0.154 0.534 0.169Q0.538 0.185 0.543 0.208Q0.548 0.230 0.553 0.257Q0.559 0.283 0.564 0.305Q0.569 0.327 0.572 0.341Q0.576 0.356 0.576 0.356Q0.576 0.357 0.579 0.342Q0.583 0.328 0.588 0.306Q0.593 0.284 0.598 0.258Q0.604 0.231 0.609 0.208Q0.614 0.185 0.617 0.169Q0.621 0.154 0.621 0.152ZM0.469 0.152Q0.469 0.149 0.464 0.141Q0.459 0.133 0.452 0.124Q0.445 0.115 0.437 0.108Q0.429 0.102 0.424 0.102Q0.419 0.102 0.411 0.108Q0.403 0.115 0.396 0.124Q0.389 0.133 0.384 0.141Q0.379 0.149 0.379 0.152Q0.379 0.154 0.383 0.169Q0.386 0.185 0.391 0.208Q0.396 0.230 0.402 0.257Q0.407 0.283 0.412 0.305Q0.417 0.327 0.421 0.341Q0.424 0.356 0.424 0.356Q0.424 0.357 0.428 0.342Q0.431 0.328 0.436 0.306Q0.441 0.284 0.447 0.258Q0.452 0.231 0.457 0.208Q0.462 0.185 0.466 0.169Q0.469 0.154 0.469 0.152Z" fill="black"/>
</svg>
