<svg xmlns="http://www.w3.org/2000/svg" viewBox="0 0 1 1" preserveAspectRatio="xMidYMid meet">
  <path d="M0.588 0.440 0.600 0.343Q0.600 0.341 0.616 0.342Q0.633 0.344 0.651 0.339Q0.662 0.336 0.683 0.326Q0.703 0.316 0.719 0.307Q0.734 0.297 0.739 0.290Q0.743 0.283 0.725 0.286Q0.704 0.289 0.683 0.290Q0.662 0.291 0.645 0.291Q0.628 0.291 0.617 0.290Q0.606 0.289 0.606 0.289L0.623 0.152Q0.623 0.150 0.618 0.153Q0.613 0.157 0.606 0.164Q0.600 0.170 0.592 0.180Q0.585 0.190 0.580 0.200Q0.580 0.200 0.578 0.214Q0.576 0.228 0.574 0.245Q0.572 0.261 0.569 0.275Q0.567 0.289 0.566 0.289L0.450 0.288L0.467 0.152Q0.467 0.150 0.462 0.153Q0.457 0.156 0.450 0.162Q0.443 0.168 0.436 0.178Q0.428 0.188 0.422 0.200Q0.422 0.200 0.421 0.214Q0.419 0.228 0.417 0.245Q0.415 0.261 0.413 0.275Q0.411 0.288 0.410 0.288Q0.410 0.290 0.394 0.288Q0.377 0.286 0.351 0.294Q0.338 0.298 0.318 0.308Q0.297 0.318 0.281 0.328Q0.266 0.338 0.261 0.344Q0.257 0.350 0.277 0.346Q0.298 0.342 0.320 0.340Q0.341 0.339 0.360 0.340Q0.379 0.341 0.391 0.342Q0.403 0.343 0.403 0.343L0.386 0.439Q0.385 0.444 0.386 0.443Q0.387 0.442 0.385 0.440Q0.383 0.439 0.376 0.438Q0.368 0.438 0.351 0.444Q0.339 0.448 0.319 0.458Q0.298 0.469 0.282 0.478Q0.266 0.488 0.261 0.494Q0.257 0.500 0.277 0.496Q0.283 0.495 0.301 0.494Q0.319 0.493 0.336 0.493Q0.355 0.493 0.369 0.493Q0.384 0.493 0.384 0.493L0.363 0.627Q0.363 0.629 0.370 0.625Q0.376 0.620 0.385 0.613Q0.393 0.606 0.402 0.597Q0.410 0.588 0.415 0.579Q0.415 0.579 0.417 0.566Q0.418 0.552 0.420 0.536Q0.422 0.519 0.424 0.505Q0.426 0.492 0.426 0.492L0.536 0.494L0.526 0.627Q0.526 0.629 0.531 0.626Q0.537 0.622 0.544 0.615Q0.552 0.608 0.560 0.599Q0.568 0.589 0.572 0.579Q0.573 0.576 0.575 0.563Q0.577 0.549 0.578 0.533Q0.580 0.517 0.581 0.505Q0.582 0.493 0.582 0.493Q0.582 0.493 0.588 0.493Q0.594 0.494 0.604 0.494Q0.614 0.494 0.626 0.493Q0.639 0.492 0.651 0.489Q0.663 0.486 0.684 0.476Q0.704 0.466 0.719 0.456Q0.734 0.446 0.739 0.439Q0.743 0.433 0.725 0.436Q0.716 0.438 0.693 0.439Q0.670 0.441 0.647 0.441Q0.624 0.442 0.606 0.442Q0.588 0.442 0.588 0.440ZM0.560 0.344 0.546 0.437 0.431 0.436 0.443 0.343Z" fill="black"/>
</svg>
