<svg xmlns="http://www.w3.org/2000/svg" viewBox="0 0 1 1" preserveAspectRatio="xMidYMid meet">
  <path d="M0.602 0.808Q0.619 0.808 0.630 0.800Q0.642 0.793 0.657 0.784Q0.701 0.758 0.719 0.738Q0.737 0.719 0.737 0.689Q0.737 0.671 0.730 0.654Q0.724 0.636 0.712 0.623Q0.700 0.609 0.683 0.601Q0.666 0.592 0.644 0.592Q0.634 0.592 0.616 0.599Q0.599 0.606 0.581 0.616Q0.563 0.625 0.549 0.634Q0.534 0.643 0.531 0.647Q0.525 0.655 0.519 0.672Q0.513 0.689 0.513 0.708Q0.513 0.720 0.517 0.737Q0.521 0.754 0.532 0.770Q0.542 0.786 0.559 0.797Q0.576 0.808 0.602 0.808ZM0.595 0.619Q0.599 0.619 0.612 0.623Q0.626 0.627 0.641 0.638Q0.656 0.649 0.667 0.670Q0.679 0.691 0.679 0.725Q0.679 0.732 0.677 0.741Q0.675 0.750 0.671 0.758Q0.668 0.767 0.662 0.773Q0.656 0.779 0.648 0.779Q0.642 0.779 0.628 0.775Q0.615 0.771 0.601 0.759Q0.588 0.748 0.578 0.729Q0.567 0.710 0.567 0.680Q0.567 0.658 0.575 0.639Q0.582 0.619 0.595 0.619ZM0.273 0.688Q0.269 0.700 0.267 0.720Q0.265 0.740 0.264 0.759Q0.263 0.778 0.264 0.790Q0.265 0.803 0.267 0.800Q0.267 0.802 0.286 0.780Q0.305 0.758 0.336 0.720Q0.368 0.682 0.408 0.633Q0.448 0.583 0.491 0.531Q0.533 0.479 0.574 0.427Q0.615 0.375 0.647 0.333Q0.680 0.291 0.701 0.263Q0.722 0.234 0.724 0.227Q0.730 0.211 0.730 0.189Q0.730 0.167 0.728 0.148Q0.726 0.128 0.723 0.114Q0.721 0.101 0.720 0.102Q0.720 0.098 0.701 0.120Q0.683 0.142 0.652 0.180Q0.621 0.218 0.582 0.269Q0.542 0.319 0.501 0.373Q0.459 0.427 0.419 0.480Q0.380 0.533 0.348 0.577Q0.317 0.621 0.296 0.651Q0.275 0.681 0.273 0.688ZM0.353 0.319Q0.370 0.319 0.381 0.312Q0.393 0.304 0.408 0.295Q0.451 0.269 0.469 0.250Q0.487 0.230 0.487 0.200Q0.487 0.182 0.481 0.165Q0.474 0.148 0.462 0.134Q0.450 0.121 0.433 0.112Q0.416 0.104 0.395 0.104Q0.385 0.104 0.367 0.111Q0.350 0.118 0.332 0.127Q0.314 0.137 0.299 0.146Q0.285 0.155 0.282 0.159Q0.276 0.167 0.270 0.183Q0.264 0.200 0.264 0.219Q0.264 0.231 0.268 0.248Q0.272 0.265 0.282 0.281Q0.293 0.297 0.310 0.308Q0.327 0.319 0.353 0.319ZM0.346 0.131Q0.350 0.131 0.363 0.135Q0.377 0.139 0.392 0.150Q0.407 0.161 0.418 0.181Q0.429 0.202 0.429 0.236Q0.429 0.243 0.427 0.252Q0.425 0.261 0.422 0.270Q0.418 0.278 0.413 0.284Q0.407 0.290 0.399 0.290Q0.393 0.290 0.379 0.286Q0.366 0.282 0.352 0.271Q0.339 0.259 0.328 0.240Q0.318 0.221 0.318 0.191Q0.318 0.169 0.325 0.150Q0.333 0.131 0.346 0.131Z" fill="black"/>
</svg>
