<svg xmlns="http://www.w3.org/2000/svg" viewBox="0 0 1 1" preserveAspectRatio="xMidYMid meet">
  <path d="M0.624 0.567Q0.624 0.566 0.609 0.552Q0.593 0.538 0.570 0.517Q0.546 0.496 0.519 0.471Q0.491 0.447 0.468 0.426Q0.445 0.405 0.430 0.391Q0.415 0.377 0.415 0.377Q0.427 0.371 0.448 0.354Q0.468 0.337 0.488 0.316Q0.508 0.294 0.523 0.271Q0.538 0.248 0.538 0.231Q0.538 0.207 0.524 0.184Q0.509 0.161 0.491 0.142Q0.472 0.124 0.456 0.113Q0.439 0.102 0.435 0.102Q0.407 0.102 0.372 0.107Q0.337 0.112 0.301 0.121Q0.265 0.130 0.231 0.142Q0.196 0.154 0.170 0.167Q0.143 0.181 0.127 0.196Q0.112 0.211 0.112 0.225Q0.112 0.252 0.122 0.274Q0.131 0.296 0.147 0.315Q0.162 0.333 0.180 0.349Q0.198 0.366 0.214 0.382Q0.212 0.383 0.189 0.390Q0.165 0.397 0.128 0.411Q0.092 0.426 0.056 0.444Q0.021 0.463 0.000 0.486Q0.000 0.509 0.000 0.535Q0.000 0.591 0.000 0.641Q0.024 0.691 0.062 0.728Q0.101 0.766 0.141 0.788Q0.182 0.810 0.210 0.810Q0.219 0.810 0.245 0.800Q0.270 0.791 0.303 0.776Q0.337 0.761 0.373 0.743Q0.410 0.726 0.441 0.710Q0.472 0.694 0.494 0.682Q0.516 0.670 0.519 0.667Q0.519 0.667 0.540 0.685Q0.561 0.703 0.593 0.731Q0.625 0.759 0.662 0.791Q0.700 0.824 0.734 0.851Q0.769 0.879 0.794 0.898Q0.819 0.916 0.827 0.916Q0.831 0.916 0.849 0.909Q0.866 0.901 0.890 0.890Q0.913 0.879 0.939 0.866Q0.964 0.852 0.985 0.841Q1.000 0.831 1.000 0.823Q1.000 0.815 1.000 0.815Q1.000 0.814 1.000 0.814Q1.000 0.815 1.000 0.817Q1.000 0.820 0.996 0.823Q0.986 0.827 0.969 0.833Q0.965 0.834 0.949 0.823Q0.932 0.813 0.908 0.795Q0.884 0.777 0.854 0.753Q0.824 0.730 0.794 0.705Q0.764 0.680 0.735 0.657Q0.706 0.633 0.683 0.614Q0.661 0.595 0.647 0.584Q0.634 0.572 0.634 0.572Q0.659 0.563 0.678 0.545Q0.697 0.526 0.710 0.502Q0.724 0.479 0.731 0.452Q0.738 0.425 0.738 0.398Q0.738 0.397 0.746 0.397Q0.754 0.397 0.766 0.396Q0.778 0.396 0.790 0.394Q0.803 0.393 0.812 0.388Q0.825 0.381 0.841 0.364Q0.856 0.348 0.867 0.332Q0.877 0.316 0.879 0.306Q0.880 0.296 0.867 0.302Q0.851 0.309 0.829 0.312Q0.806 0.314 0.781 0.314Q0.755 0.313 0.728 0.311Q0.702 0.309 0.679 0.306Q0.657 0.303 0.640 0.301Q0.624 0.299 0.618 0.299Q0.608 0.299 0.597 0.308Q0.586 0.316 0.576 0.328Q0.565 0.340 0.557 0.354Q0.548 0.368 0.544 0.379Q0.539 0.390 0.540 0.395Q0.540 0.401 0.548 0.397Q0.554 0.394 0.571 0.393Q0.587 0.393 0.604 0.393Q0.620 0.394 0.633 0.395Q0.646 0.397 0.646 0.397Q0.652 0.444 0.649 0.476Q0.646 0.508 0.640 0.529Q0.635 0.549 0.629 0.558Q0.624 0.567 0.624 0.567ZM0.227 0.394Q0.227 0.394 0.244 0.409Q0.261 0.425 0.288 0.450Q0.314 0.475 0.346 0.505Q0.379 0.535 0.410 0.565Q0.442 0.594 0.469 0.619Q0.496 0.644 0.511 0.658Q0.512 0.658 0.494 0.667Q0.475 0.676 0.449 0.686Q0.422 0.697 0.391 0.706Q0.361 0.715 0.338 0.715Q0.324 0.715 0.302 0.705Q0.280 0.696 0.254 0.678Q0.228 0.661 0.202 0.638Q0.176 0.614 0.155 0.587Q0.134 0.559 0.121 0.529Q0.108 0.499 0.108 0.468Q0.108 0.452 0.119 0.440Q0.129 0.428 0.147 0.419Q0.164 0.411 0.185 0.405Q0.206 0.399 0.227 0.394ZM0.434 0.292Q0.434 0.331 0.425 0.347Q0.417 0.364 0.410 0.366Q0.403 0.368 0.402 0.368Q0.355 0.328 0.319 0.287Q0.284 0.245 0.266 0.212Q0.248 0.178 0.253 0.158Q0.257 0.137 0.292 0.137Q0.316 0.137 0.341 0.153Q0.367 0.169 0.387 0.193Q0.408 0.217 0.421 0.244Q0.434 0.271 0.434 0.292Z" fill="black"/>
</svg>
