<svg xmlns="http://www.w3.org/2000/svg" viewBox="0 0 1 1" preserveAspectRatio="xMidYMid meet">
  <path d="M0.545 0.152Q0.545 0.149 0.540 0.141Q0.535 0.133 0.528 0.124Q0.521 0.115 0.513 0.108Q0.505 0.102 0.500 0.102Q0.495 0.102 0.487 0.108Q0.479 0.115 0.472 0.124Q0.465 0.133 0.460 0.141Q0.455 0.149 0.455 0.152Q0.455 0.154 0.459 0.169Q0.462 0.185 0.467 0.208Q0.472 0.230 0.478 0.257Q0.483 0.283 0.488 0.305Q0.493 0.327 0.497 0.341Q0.500 0.356 0.500 0.356Q0.500 0.357 0.503 0.342Q0.507 0.328 0.512 0.306Q0.517 0.284 0.522 0.258Q0.528 0.231 0.533 0.208Q0.538 0.185 0.541 0.169Q0.545 0.154 0.545 0.152Z" fill="black"/>
</svg>
