<svg xmlns="http://www.w3.org/2000/svg" viewBox="0 0 1 1" preserveAspectRatio="xMidYMid meet">
  <path d="M0.632 0.754Q0.632 0.751 0.611 0.732Q0.589 0.713 0.564 0.673Q0.538 0.633 0.517 0.570Q0.496 0.506 0.496 0.415Q0.496 0.315 0.517 0.246Q0.538 0.177 0.564 0.135Q0.589 0.093 0.611 0.074Q0.632 0.056 0.632 0.056Q0.630 0.057 0.605 0.068Q0.579 0.079 0.539 0.110Q0.499 0.141 0.461 0.192Q0.423 0.243 0.395 0.324Q0.368 0.405 0.368 0.515Q0.368 0.569 0.384 0.621Q0.401 0.672 0.421 0.712Q0.441 0.753 0.459 0.777Q0.478 0.802 0.483 0.800Q0.484 0.802 0.507 0.798Q0.530 0.794 0.558 0.786Q0.586 0.779 0.609 0.770Q0.632 0.761 0.632 0.754Z" fill="black"/>
</svg>
