<svg xmlns="http://www.w3.org/2000/svg" viewBox="0 0 1 1" preserveAspectRatio="xMidYMid meet">
  <path d="M0.368 0.102Q0.368 0.105 0.389 0.124Q0.411 0.143 0.436 0.182Q0.462 0.222 0.483 0.286Q0.504 0.349 0.504 0.441Q0.504 0.540 0.483 0.609Q0.462 0.678 0.436 0.720Q0.411 0.763 0.389 0.781Q0.368 0.800 0.368 0.800Q0.370 0.799 0.395 0.788Q0.421 0.777 0.461 0.746Q0.501 0.715 0.539 0.664Q0.577 0.612 0.605 0.531Q0.632 0.451 0.632 0.340Q0.632 0.286 0.616 0.235Q0.599 0.183 0.579 0.143Q0.559 0.103 0.540 0.079Q0.521 0.055 0.517 0.056Q0.516 0.054 0.493 0.058Q0.470 0.062 0.442 0.069Q0.414 0.077 0.391 0.086Q0.368 0.095 0.368 0.102Z" fill="black"/>
</svg>
