<svg xmlns="http://www.w3.org/2000/svg" viewBox="0 0 1 1" preserveAspectRatio="xMidYMid meet">
  <path d="M0.643 0.406 0.510 0.333 0.646 0.260Q0.646 0.258 0.640 0.257Q0.633 0.255 0.625 0.254Q0.617 0.252 0.610 0.251Q0.602 0.250 0.599 0.250L0.507 0.319L0.524 0.172Q0.527 0.167 0.520 0.170Q0.513 0.173 0.504 0.179Q0.495 0.184 0.487 0.191Q0.479 0.197 0.479 0.200Q0.479 0.200 0.481 0.219Q0.484 0.238 0.487 0.261Q0.490 0.283 0.492 0.301Q0.494 0.319 0.494 0.319L0.403 0.250Q0.401 0.250 0.393 0.252Q0.386 0.253 0.378 0.255Q0.370 0.256 0.363 0.258Q0.357 0.259 0.357 0.260L0.490 0.333L0.354 0.406Q0.354 0.408 0.360 0.409Q0.367 0.411 0.375 0.412Q0.383 0.414 0.390 0.415Q0.398 0.416 0.401 0.416L0.493 0.347L0.476 0.494Q0.473 0.499 0.480 0.496Q0.487 0.493 0.496 0.487Q0.505 0.482 0.513 0.475Q0.521 0.469 0.521 0.466Q0.521 0.466 0.519 0.447Q0.516 0.428 0.513 0.405Q0.510 0.383 0.508 0.365Q0.506 0.347 0.506 0.347L0.597 0.416Q0.599 0.416 0.607 0.414Q0.614 0.413 0.622 0.411Q0.630 0.410 0.637 0.408Q0.643 0.407 0.643 0.406Z" fill="black"/>
</svg>
