<svg xmlns="http://www.w3.org/2000/svg" viewBox="0 0 1 1" preserveAspectRatio="xMidYMid meet">
  <path d="M0.549 0.500H0.610Q0.621 0.500 0.630 0.500Q0.640 0.500 0.648 0.496Q0.664 0.486 0.679 0.467Q0.695 0.448 0.706 0.430Q0.718 0.412 0.723 0.399Q0.729 0.387 0.724 0.391Q0.717 0.396 0.701 0.398Q0.686 0.401 0.670 0.401H0.549V0.288Q0.549 0.270 0.552 0.251Q0.554 0.231 0.558 0.227Q0.562 0.223 0.556 0.225Q0.550 0.226 0.538 0.233Q0.526 0.239 0.511 0.249Q0.495 0.259 0.482 0.271Q0.468 0.282 0.459 0.295Q0.450 0.307 0.450 0.318V0.401H0.384Q0.374 0.401 0.365 0.401Q0.356 0.402 0.350 0.406Q0.333 0.416 0.318 0.434Q0.304 0.453 0.293 0.471Q0.282 0.489 0.277 0.500Q0.272 0.512 0.275 0.510Q0.283 0.505 0.304 0.503Q0.326 0.500 0.347 0.500H0.450V0.613Q0.450 0.631 0.447 0.651Q0.445 0.670 0.441 0.674Q0.434 0.681 0.450 0.673Q0.466 0.666 0.488 0.651Q0.510 0.636 0.530 0.617Q0.549 0.598 0.549 0.583Z" fill="black"/>
</svg>
