<svg xmlns="http://www.w3.org/2000/svg" viewBox="0 0 1 1" preserveAspectRatio="xMidYMid meet">
  <path d="M0.406 0.750Q0.406 0.758 0.417 0.764Q0.428 0.771 0.442 0.777Q0.455 0.783 0.467 0.788Q0.478 0.794 0.478 0.800Q0.478 0.802 0.480 0.813Q0.481 0.824 0.482 0.842Q0.482 0.860 0.480 0.885Q0.478 0.910 0.471 0.939Q0.468 0.951 0.476 0.940Q0.484 0.929 0.498 0.907Q0.511 0.884 0.528 0.854Q0.545 0.825 0.559 0.797Q0.574 0.770 0.584 0.751Q0.594 0.732 0.594 0.731Q0.594 0.727 0.584 0.718Q0.575 0.710 0.563 0.701Q0.551 0.693 0.540 0.686Q0.529 0.680 0.525 0.680Q0.516 0.680 0.496 0.690Q0.476 0.701 0.456 0.714Q0.436 0.727 0.421 0.738Q0.406 0.749 0.406 0.750Z" fill="black"/>
</svg>
