<svg xmlns="http://www.w3.org/2000/svg" viewBox="0 0 1 1" preserveAspectRatio="xMidYMid meet">
  <path d="M0.382 0.263Q0.382 0.266 0.397 0.258Q0.411 0.250 0.429 0.240Q0.446 0.230 0.461 0.221Q0.476 0.212 0.477 0.212Q0.478 0.212 0.493 0.221Q0.507 0.229 0.524 0.239Q0.542 0.249 0.556 0.258Q0.571 0.266 0.573 0.266Q0.576 0.266 0.583 0.262Q0.591 0.258 0.598 0.252Q0.606 0.245 0.612 0.238Q0.618 0.231 0.618 0.225Q0.618 0.223 0.600 0.215Q0.583 0.207 0.562 0.199Q0.541 0.190 0.523 0.183Q0.505 0.176 0.504 0.176Q0.503 0.176 0.484 0.189Q0.465 0.202 0.443 0.218Q0.420 0.234 0.401 0.248Q0.382 0.262 0.382 0.263Z" fill="black"/>
</svg>
