<svg xmlns="http://www.w3.org/2000/svg" viewBox="0 0 1 1" preserveAspectRatio="xMidYMid meet">
  <path d="M0.331 0.247Q0.333 0.246 0.343 0.241Q0.354 0.235 0.370 0.229Q0.386 0.222 0.397 0.222Q0.418 0.222 0.438 0.229Q0.459 0.236 0.479 0.245Q0.499 0.254 0.519 0.261Q0.539 0.268 0.559 0.268Q0.575 0.268 0.594 0.257Q0.613 0.245 0.630 0.232Q0.646 0.218 0.658 0.207Q0.669 0.195 0.669 0.195Q0.667 0.196 0.657 0.202Q0.646 0.207 0.630 0.214Q0.614 0.220 0.603 0.220Q0.582 0.220 0.562 0.213Q0.541 0.206 0.521 0.197Q0.500 0.188 0.481 0.181Q0.461 0.174 0.441 0.174Q0.425 0.174 0.406 0.186Q0.387 0.197 0.370 0.211Q0.354 0.224 0.342 0.236Q0.331 0.247 0.331 0.247Z" fill="black"/>
</svg>
