<svg xmlns="http://www.w3.org/2000/svg" viewBox="0 0 1 1" preserveAspectRatio="xMidYMid meet">
  <path d="M0.276 0.688Q0.272 0.700 0.270 0.720Q0.268 0.740 0.267 0.759Q0.266 0.778 0.267 0.790Q0.268 0.803 0.270 0.800Q0.270 0.802 0.289 0.780Q0.308 0.758 0.340 0.720Q0.371 0.682 0.412 0.633Q0.452 0.583 0.494 0.531Q0.537 0.479 0.578 0.427Q0.618 0.375 0.651 0.333Q0.683 0.291 0.704 0.263Q0.725 0.234 0.727 0.227Q0.733 0.211 0.733 0.189Q0.733 0.167 0.731 0.148Q0.729 0.128 0.727 0.114Q0.724 0.101 0.723 0.102Q0.723 0.098 0.705 0.120Q0.686 0.142 0.655 0.180Q0.624 0.218 0.585 0.269Q0.546 0.319 0.504 0.373Q0.463 0.427 0.423 0.480Q0.383 0.533 0.352 0.577Q0.320 0.621 0.299 0.651Q0.278 0.681 0.276 0.688Z" fill="black"/>
</svg>
