<svg xmlns="http://www.w3.org/2000/svg" viewBox="0 0 1 1" preserveAspectRatio="xMidYMid meet">
  <path d="M0.188 0.462Q0.188 0.525 0.208 0.576Q0.228 0.626 0.260 0.664Q0.291 0.702 0.328 0.728Q0.365 0.754 0.399 0.770Q0.434 0.787 0.460 0.794Q0.486 0.802 0.495 0.802Q0.502 0.802 0.529 0.792Q0.556 0.783 0.591 0.762Q0.626 0.742 0.665 0.709Q0.704 0.677 0.736 0.632Q0.769 0.587 0.790 0.528Q0.812 0.470 0.812 0.396Q0.812 0.317 0.786 0.261Q0.760 0.204 0.721 0.169Q0.682 0.135 0.636 0.118Q0.590 0.102 0.550 0.102Q0.532 0.102 0.499 0.118Q0.466 0.135 0.425 0.162Q0.385 0.189 0.343 0.226Q0.301 0.262 0.267 0.302Q0.232 0.342 0.210 0.383Q0.188 0.425 0.188 0.462ZM0.624 0.704Q0.587 0.704 0.537 0.676Q0.487 0.649 0.441 0.603Q0.396 0.556 0.364 0.496Q0.332 0.435 0.332 0.368Q0.332 0.347 0.337 0.320Q0.342 0.292 0.354 0.267Q0.367 0.242 0.387 0.225Q0.407 0.208 0.437 0.208Q0.463 0.208 0.507 0.228Q0.551 0.247 0.594 0.286Q0.636 0.325 0.667 0.382Q0.698 0.440 0.698 0.515Q0.698 0.545 0.691 0.579Q0.684 0.612 0.673 0.640Q0.662 0.667 0.649 0.685Q0.636 0.704 0.624 0.704Z" fill="black"/>
</svg>
