<svg xmlns="http://www.w3.org/2000/svg" viewBox="0 0 1 1" preserveAspectRatio="xMidYMid meet">
  <path d="M0.402 0.228Q0.406 0.228 0.413 0.225Q0.420 0.221 0.427 0.217Q0.434 0.213 0.439 0.210Q0.444 0.206 0.444 0.206V0.800Q0.444 0.807 0.453 0.803Q0.463 0.800 0.476 0.791Q0.489 0.782 0.503 0.770Q0.517 0.759 0.528 0.750Q0.536 0.743 0.548 0.738Q0.560 0.734 0.571 0.730Q0.582 0.727 0.590 0.722Q0.598 0.718 0.598 0.710L0.597 0.112Q0.597 0.095 0.577 0.102Q0.556 0.109 0.528 0.128Q0.500 0.147 0.471 0.170Q0.441 0.194 0.422 0.211Q0.404 0.227 0.402 0.228Z" fill="black"/>
</svg>
