<svg xmlns="http://www.w3.org/2000/svg" viewBox="0 0 1 1" preserveAspectRatio="xMidYMid meet">
  <path d="M0.361 0.563Q0.364 0.563 0.384 0.545Q0.404 0.526 0.426 0.504Q0.448 0.482 0.464 0.462Q0.480 0.442 0.476 0.439Q0.444 0.415 0.428 0.375Q0.412 0.336 0.407 0.298Q0.403 0.259 0.408 0.232Q0.414 0.204 0.425 0.204Q0.434 0.204 0.455 0.216Q0.477 0.228 0.500 0.252Q0.522 0.276 0.540 0.313Q0.557 0.350 0.557 0.400Q0.557 0.426 0.537 0.466Q0.517 0.505 0.487 0.550Q0.456 0.594 0.421 0.639Q0.386 0.683 0.355 0.719Q0.325 0.755 0.305 0.777Q0.285 0.800 0.285 0.800H0.590Q0.595 0.800 0.612 0.784Q0.629 0.768 0.649 0.753Q0.661 0.744 0.676 0.733Q0.692 0.723 0.705 0.713Q0.719 0.704 0.726 0.697Q0.734 0.691 0.730 0.691H0.419Q0.419 0.691 0.440 0.669Q0.461 0.648 0.493 0.613Q0.525 0.577 0.563 0.533Q0.601 0.490 0.633 0.444Q0.665 0.399 0.686 0.356Q0.708 0.314 0.708 0.283Q0.708 0.248 0.694 0.216Q0.680 0.183 0.657 0.158Q0.634 0.133 0.605 0.117Q0.577 0.102 0.549 0.102Q0.543 0.102 0.521 0.112Q0.498 0.122 0.467 0.141Q0.435 0.160 0.401 0.186Q0.366 0.212 0.337 0.246Q0.308 0.279 0.288 0.319Q0.269 0.358 0.269 0.402Q0.269 0.432 0.278 0.461Q0.288 0.490 0.302 0.512Q0.316 0.535 0.332 0.549Q0.348 0.563 0.361 0.563Z" fill="black"/>
</svg>
