<svg xmlns="http://www.w3.org/2000/svg" viewBox="0 0 1 1" preserveAspectRatio="xMidYMid meet">
  <path d="M0.338 0.233Q0.338 0.235 0.344 0.231Q0.351 0.227 0.361 0.222Q0.372 0.216 0.385 0.212Q0.398 0.207 0.412 0.207Q0.433 0.207 0.456 0.215Q0.479 0.223 0.499 0.239Q0.518 0.255 0.531 0.278Q0.544 0.300 0.544 0.330Q0.544 0.358 0.526 0.384Q0.508 0.410 0.487 0.430Q0.465 0.451 0.447 0.463Q0.429 0.475 0.429 0.475Q0.430 0.475 0.445 0.477Q0.460 0.479 0.483 0.487Q0.506 0.496 0.529 0.512Q0.551 0.528 0.567 0.556Q0.583 0.584 0.583 0.625Q0.583 0.666 0.570 0.682Q0.556 0.699 0.531 0.699Q0.513 0.699 0.490 0.689Q0.467 0.680 0.445 0.666Q0.424 0.651 0.409 0.635Q0.394 0.618 0.394 0.603Q0.394 0.602 0.375 0.613Q0.357 0.624 0.335 0.640Q0.313 0.656 0.295 0.673Q0.276 0.691 0.276 0.703Q0.276 0.714 0.285 0.730Q0.294 0.747 0.311 0.762Q0.327 0.778 0.351 0.789Q0.375 0.800 0.406 0.800Q0.416 0.800 0.433 0.792Q0.451 0.784 0.473 0.770Q0.495 0.757 0.520 0.739Q0.546 0.721 0.573 0.700Q0.602 0.679 0.629 0.658Q0.656 0.636 0.677 0.614Q0.698 0.592 0.711 0.569Q0.724 0.545 0.724 0.520Q0.724 0.481 0.708 0.455Q0.693 0.429 0.671 0.414Q0.650 0.400 0.627 0.393Q0.604 0.386 0.590 0.384Q0.575 0.383 0.574 0.383Q0.574 0.383 0.592 0.368Q0.610 0.353 0.632 0.331Q0.654 0.309 0.672 0.284Q0.690 0.258 0.690 0.236Q0.690 0.209 0.676 0.184Q0.663 0.160 0.640 0.141Q0.616 0.123 0.585 0.112Q0.554 0.101 0.520 0.101Q0.498 0.101 0.466 0.121Q0.435 0.141 0.406 0.165Q0.378 0.189 0.358 0.210Q0.338 0.231 0.338 0.233Z" fill="black"/>
</svg>
