<svg xmlns="http://www.w3.org/2000/svg" viewBox="0 0 1 1" preserveAspectRatio="xMidYMid meet">
  <path d="M0.331 0.536Q0.331 0.538 0.343 0.526Q0.355 0.514 0.374 0.500Q0.392 0.487 0.414 0.474Q0.435 0.462 0.453 0.462Q0.485 0.462 0.508 0.478Q0.532 0.495 0.547 0.519Q0.563 0.544 0.570 0.572Q0.578 0.600 0.578 0.622Q0.578 0.632 0.577 0.643Q0.576 0.654 0.569 0.664Q0.563 0.673 0.549 0.679Q0.535 0.685 0.510 0.685Q0.489 0.685 0.467 0.675Q0.445 0.666 0.427 0.655Q0.408 0.644 0.396 0.635Q0.384 0.625 0.382 0.625L0.272 0.724Q0.272 0.742 0.282 0.756Q0.293 0.770 0.308 0.780Q0.324 0.790 0.341 0.795Q0.358 0.800 0.372 0.800Q0.386 0.800 0.417 0.787Q0.447 0.775 0.485 0.754Q0.522 0.733 0.562 0.704Q0.603 0.676 0.636 0.644Q0.668 0.612 0.690 0.578Q0.711 0.543 0.711 0.510Q0.711 0.467 0.695 0.439Q0.678 0.411 0.655 0.395Q0.632 0.379 0.607 0.373Q0.582 0.367 0.565 0.367Q0.542 0.367 0.519 0.375Q0.496 0.384 0.484 0.391Q0.471 0.398 0.469 0.399L0.478 0.216L0.605 0.210L0.728 0.108L0.493 0.113L0.347 0.212Z" fill="black"/>
</svg>
