<svg xmlns="http://www.w3.org/2000/svg" viewBox="0 0 1 1" preserveAspectRatio="xMidYMid meet">
  <path d="M0.280 0.568Q0.280 0.637 0.301 0.682Q0.322 0.727 0.347 0.753Q0.372 0.779 0.395 0.789Q0.417 0.800 0.421 0.800Q0.432 0.800 0.459 0.784Q0.486 0.769 0.519 0.743Q0.553 0.717 0.588 0.683Q0.624 0.650 0.653 0.614Q0.682 0.577 0.701 0.540Q0.720 0.503 0.720 0.472Q0.720 0.455 0.707 0.429Q0.694 0.403 0.672 0.378Q0.651 0.354 0.623 0.336Q0.596 0.319 0.567 0.319Q0.555 0.319 0.531 0.333Q0.507 0.347 0.483 0.364Q0.459 0.382 0.441 0.396Q0.423 0.410 0.423 0.410Q0.423 0.410 0.428 0.396Q0.432 0.383 0.439 0.362Q0.446 0.342 0.455 0.319Q0.463 0.296 0.471 0.277Q0.486 0.241 0.506 0.208Q0.527 0.175 0.544 0.151Q0.562 0.127 0.572 0.113Q0.582 0.100 0.576 0.104L0.451 0.177Q0.446 0.180 0.432 0.199Q0.418 0.217 0.399 0.247Q0.379 0.276 0.358 0.315Q0.337 0.353 0.320 0.395Q0.303 0.438 0.291 0.482Q0.280 0.526 0.280 0.568ZM0.586 0.572Q0.586 0.602 0.581 0.625Q0.576 0.647 0.569 0.662Q0.562 0.677 0.554 0.685Q0.547 0.693 0.542 0.693Q0.531 0.693 0.509 0.674Q0.488 0.656 0.467 0.626Q0.445 0.596 0.429 0.557Q0.413 0.518 0.413 0.477Q0.413 0.460 0.416 0.445Q0.418 0.430 0.418 0.430Q0.418 0.430 0.426 0.424Q0.433 0.418 0.441 0.418Q0.457 0.418 0.482 0.431Q0.507 0.445 0.530 0.467Q0.553 0.489 0.569 0.516Q0.586 0.544 0.586 0.572Z" fill="black"/>
</svg>
