<svg xmlns="http://www.w3.org/2000/svg" viewBox="0 0 1 1" preserveAspectRatio="xMidYMid meet">
  <path d="M0.271 0.245Q0.270 0.246 0.293 0.244Q0.316 0.241 0.351 0.237Q0.386 0.233 0.427 0.229Q0.468 0.224 0.503 0.221Q0.539 0.218 0.563 0.218Q0.587 0.217 0.587 0.221Q0.587 0.225 0.578 0.243Q0.569 0.261 0.556 0.284Q0.543 0.307 0.530 0.331Q0.517 0.354 0.508 0.368Q0.500 0.383 0.499 0.384Q0.472 0.385 0.441 0.400Q0.410 0.416 0.385 0.434Q0.359 0.452 0.344 0.466Q0.330 0.481 0.334 0.481L0.449 0.475Q0.448 0.477 0.435 0.503Q0.422 0.529 0.403 0.567Q0.384 0.605 0.363 0.649Q0.341 0.692 0.325 0.728Q0.309 0.764 0.301 0.786Q0.294 0.809 0.302 0.805L0.456 0.728Q0.456 0.726 0.463 0.706Q0.469 0.686 0.480 0.652Q0.490 0.618 0.502 0.583Q0.514 0.548 0.526 0.517Q0.538 0.487 0.546 0.472Q0.548 0.472 0.558 0.473Q0.568 0.475 0.581 0.476Q0.595 0.477 0.598 0.475L0.724 0.384Q0.728 0.381 0.708 0.379Q0.687 0.377 0.661 0.376Q0.634 0.375 0.611 0.375Q0.588 0.375 0.588 0.375Q0.597 0.355 0.612 0.327Q0.627 0.298 0.643 0.268Q0.660 0.238 0.676 0.209Q0.692 0.179 0.705 0.157Q0.717 0.134 0.724 0.119Q0.731 0.105 0.729 0.105Q0.730 0.103 0.709 0.102Q0.687 0.102 0.653 0.103Q0.619 0.104 0.578 0.106Q0.537 0.108 0.500 0.110Q0.462 0.113 0.434 0.115Q0.405 0.118 0.397 0.120Q0.389 0.122 0.367 0.142Q0.345 0.162 0.323 0.185Q0.301 0.208 0.284 0.227Q0.268 0.245 0.271 0.245Z" fill="black"/>
</svg>
