<svg xmlns="http://www.w3.org/2000/svg" viewBox="0 0 1 1" preserveAspectRatio="xMidYMid meet">
  <path d="M0.733 0.533Q0.733 0.503 0.716 0.478Q0.699 0.453 0.676 0.433Q0.653 0.414 0.628 0.399Q0.603 0.385 0.588 0.378Q0.572 0.372 0.571 0.371Q0.572 0.370 0.587 0.358Q0.602 0.347 0.626 0.327Q0.649 0.306 0.671 0.284Q0.694 0.262 0.710 0.241Q0.726 0.219 0.726 0.204Q0.726 0.177 0.713 0.158Q0.701 0.139 0.682 0.126Q0.663 0.114 0.640 0.108Q0.617 0.102 0.596 0.102Q0.578 0.102 0.550 0.114Q0.521 0.126 0.490 0.145Q0.458 0.165 0.425 0.190Q0.393 0.215 0.367 0.243Q0.342 0.270 0.326 0.297Q0.309 0.324 0.309 0.346Q0.309 0.372 0.324 0.393Q0.338 0.415 0.356 0.430Q0.374 0.446 0.388 0.454Q0.403 0.463 0.403 0.463Q0.402 0.464 0.389 0.473Q0.376 0.482 0.355 0.500Q0.334 0.518 0.315 0.541Q0.295 0.563 0.281 0.590Q0.267 0.617 0.267 0.645Q0.267 0.671 0.282 0.698Q0.296 0.726 0.319 0.748Q0.341 0.771 0.367 0.785Q0.394 0.800 0.417 0.800Q0.421 0.800 0.446 0.788Q0.472 0.776 0.506 0.755Q0.541 0.734 0.581 0.707Q0.621 0.680 0.655 0.651Q0.688 0.621 0.710 0.591Q0.733 0.560 0.733 0.533ZM0.399 0.536Q0.399 0.529 0.400 0.518Q0.402 0.507 0.405 0.498Q0.408 0.488 0.412 0.481Q0.417 0.474 0.423 0.474Q0.424 0.474 0.437 0.478Q0.451 0.483 0.470 0.492Q0.489 0.500 0.511 0.515Q0.533 0.529 0.552 0.549Q0.571 0.568 0.584 0.594Q0.596 0.619 0.596 0.650Q0.596 0.653 0.595 0.661Q0.594 0.668 0.590 0.676Q0.586 0.684 0.578 0.690Q0.570 0.696 0.555 0.696Q0.542 0.696 0.526 0.688Q0.510 0.680 0.493 0.667Q0.476 0.654 0.459 0.637Q0.442 0.620 0.428 0.602Q0.415 0.584 0.407 0.567Q0.399 0.550 0.399 0.536ZM0.553 0.360Q0.550 0.360 0.533 0.351Q0.516 0.342 0.498 0.326Q0.480 0.309 0.465 0.286Q0.450 0.263 0.450 0.234Q0.450 0.214 0.454 0.206Q0.459 0.197 0.473 0.197Q0.481 0.197 0.499 0.205Q0.517 0.212 0.537 0.227Q0.556 0.241 0.571 0.261Q0.586 0.281 0.586 0.306Q0.586 0.324 0.577 0.342Q0.567 0.360 0.553 0.360Z" fill="black"/>
</svg>
