<svg xmlns="http://www.w3.org/2000/svg" viewBox="0 0 1 1" preserveAspectRatio="xMidYMid meet">
  <path d="M0.495 0.591Q0.495 0.600 0.477 0.625Q0.459 0.650 0.434 0.679Q0.408 0.709 0.382 0.737Q0.355 0.766 0.338 0.784Q0.322 0.802 0.321 0.803L0.468 0.730Q0.468 0.730 0.488 0.708Q0.507 0.687 0.537 0.651Q0.567 0.615 0.601 0.569Q0.635 0.522 0.665 0.473Q0.694 0.423 0.714 0.373Q0.733 0.324 0.733 0.281Q0.733 0.239 0.711 0.206Q0.689 0.172 0.660 0.149Q0.630 0.126 0.599 0.114Q0.569 0.102 0.552 0.102Q0.529 0.102 0.500 0.116Q0.470 0.130 0.438 0.153Q0.406 0.176 0.375 0.207Q0.344 0.237 0.321 0.270Q0.297 0.302 0.282 0.334Q0.267 0.367 0.267 0.394Q0.267 0.446 0.288 0.485Q0.309 0.524 0.337 0.551Q0.365 0.578 0.394 0.592Q0.423 0.605 0.439 0.605Q0.445 0.605 0.459 0.602Q0.473 0.598 0.483 0.595Q0.493 0.592 0.495 0.591ZM0.556 0.496Q0.542 0.496 0.515 0.481Q0.488 0.467 0.460 0.438Q0.432 0.410 0.412 0.366Q0.391 0.323 0.391 0.264Q0.391 0.243 0.396 0.232Q0.401 0.221 0.408 0.213Q0.414 0.206 0.444 0.212Q0.473 0.217 0.506 0.237Q0.540 0.256 0.567 0.291Q0.594 0.325 0.594 0.377Q0.594 0.404 0.589 0.425Q0.584 0.447 0.577 0.463Q0.570 0.479 0.564 0.487Q0.558 0.496 0.556 0.496Z" fill="black"/>
</svg>
