<svg xmlns="http://www.w3.org/2000/svg" viewBox="0 0 1 1" preserveAspectRatio="xMidYMid meet">
  <path d="M0.406 0.500Q0.406 0.508 0.416 0.517Q0.425 0.525 0.437 0.533Q0.449 0.540 0.461 0.545Q0.473 0.550 0.478 0.550Q0.480 0.550 0.499 0.540Q0.517 0.530 0.538 0.517Q0.559 0.504 0.576 0.494Q0.594 0.484 0.594 0.482Q0.594 0.478 0.584 0.469Q0.575 0.461 0.563 0.452Q0.551 0.444 0.540 0.437Q0.529 0.431 0.525 0.431Q0.516 0.431 0.496 0.441Q0.476 0.452 0.456 0.465Q0.436 0.478 0.421 0.489Q0.406 0.500 0.406 0.500ZM0.406 0.750Q0.406 0.758 0.416 0.766Q0.425 0.775 0.437 0.782Q0.449 0.790 0.461 0.795Q0.473 0.800 0.478 0.800Q0.480 0.800 0.499 0.790Q0.517 0.780 0.538 0.767Q0.559 0.754 0.576 0.743Q0.594 0.733 0.594 0.731Q0.594 0.727 0.584 0.718Q0.575 0.710 0.563 0.701Q0.551 0.693 0.540 0.686Q0.529 0.680 0.525 0.680Q0.516 0.680 0.496 0.690Q0.476 0.701 0.456 0.714Q0.436 0.727 0.421 0.738Q0.406 0.749 0.406 0.750Z" fill="black"/>
</svg>
