<svg xmlns="http://www.w3.org/2000/svg" viewBox="0 0 1 1" preserveAspectRatio="xMidYMid meet">
  <path d="M0.406 0.745Q0.406 0.753 0.416 0.759Q0.426 0.766 0.439 0.772Q0.451 0.778 0.463 0.783Q0.474 0.789 0.478 0.795Q0.479 0.797 0.481 0.808Q0.482 0.819 0.483 0.837Q0.483 0.855 0.481 0.880Q0.478 0.905 0.471 0.934Q0.468 0.946 0.476 0.935Q0.484 0.924 0.498 0.902Q0.511 0.879 0.528 0.849Q0.545 0.820 0.559 0.792Q0.574 0.765 0.584 0.746Q0.594 0.727 0.594 0.726Q0.594 0.722 0.584 0.713Q0.575 0.705 0.563 0.696Q0.551 0.688 0.540 0.681Q0.529 0.675 0.525 0.675Q0.516 0.675 0.496 0.685Q0.476 0.696 0.456 0.709Q0.436 0.722 0.421 0.733Q0.406 0.744 0.406 0.745ZM0.406 0.466Q0.406 0.474 0.416 0.482Q0.425 0.491 0.437 0.498Q0.449 0.505 0.461 0.510Q0.473 0.515 0.478 0.515Q0.480 0.515 0.499 0.505Q0.517 0.496 0.538 0.483Q0.559 0.470 0.576 0.459Q0.594 0.449 0.594 0.447Q0.594 0.443 0.584 0.434Q0.575 0.426 0.563 0.417Q0.551 0.409 0.540 0.402Q0.529 0.396 0.525 0.396Q0.516 0.396 0.496 0.406Q0.476 0.417 0.456 0.430Q0.436 0.443 0.421 0.454Q0.406 0.465 0.406 0.466Z" fill="black"/>
</svg>
