<svg xmlns="http://www.w3.org/2000/svg" viewBox="0 0 1 1" preserveAspectRatio="xMidYMid meet">
  <path d="M0.327 0.451Q0.327 0.454 0.342 0.477Q0.358 0.500 0.380 0.533Q0.403 0.566 0.431 0.604Q0.458 0.642 0.482 0.674Q0.505 0.707 0.522 0.728Q0.538 0.750 0.540 0.750Q0.542 0.750 0.562 0.739Q0.583 0.728 0.606 0.714Q0.630 0.701 0.650 0.689Q0.670 0.678 0.671 0.678Q0.672 0.678 0.655 0.656Q0.638 0.634 0.612 0.601Q0.586 0.567 0.556 0.529Q0.526 0.491 0.500 0.457Q0.474 0.423 0.457 0.400Q0.439 0.377 0.439 0.375Q0.439 0.372 0.459 0.354Q0.478 0.336 0.506 0.310Q0.534 0.284 0.566 0.255Q0.599 0.226 0.624 0.202Q0.650 0.178 0.664 0.164Q0.679 0.150 0.671 0.152Q0.661 0.155 0.631 0.177Q0.602 0.199 0.563 0.232Q0.525 0.264 0.484 0.301Q0.442 0.338 0.407 0.370Q0.372 0.403 0.350 0.425Q0.327 0.448 0.327 0.451Z" fill="black"/>
</svg>
