<svg xmlns="http://www.w3.org/2000/svg" viewBox="0 0 1 1" preserveAspectRatio="xMidYMid meet">
  <path d="M0.275 0.600Q0.283 0.595 0.304 0.593Q0.326 0.590 0.347 0.590H0.610Q0.621 0.590 0.630 0.590Q0.640 0.590 0.648 0.585Q0.664 0.575 0.679 0.556Q0.695 0.537 0.706 0.519Q0.718 0.501 0.723 0.489Q0.729 0.477 0.724 0.481Q0.717 0.486 0.701 0.488Q0.686 0.491 0.670 0.491H0.384Q0.374 0.491 0.365 0.491Q0.356 0.492 0.350 0.496Q0.333 0.505 0.318 0.524Q0.304 0.542 0.293 0.560Q0.282 0.578 0.277 0.590Q0.272 0.602 0.275 0.600ZM0.275 0.411Q0.283 0.406 0.304 0.403Q0.326 0.401 0.347 0.401H0.610Q0.621 0.401 0.630 0.401Q0.640 0.401 0.648 0.396Q0.664 0.386 0.679 0.367Q0.695 0.348 0.706 0.330Q0.718 0.312 0.723 0.300Q0.729 0.287 0.724 0.291Q0.717 0.296 0.701 0.299Q0.686 0.301 0.670 0.301H0.384Q0.374 0.301 0.365 0.302Q0.356 0.302 0.350 0.306Q0.333 0.316 0.318 0.334Q0.304 0.353 0.293 0.371Q0.282 0.389 0.277 0.401Q0.272 0.413 0.275 0.411Z" fill="black"/>
</svg>
