<svg xmlns="http://www.w3.org/2000/svg" viewBox="0 0 1 1" preserveAspectRatio="xMidYMid meet">
  <path d="M0.673 0.451Q0.674 0.449 0.659 0.425Q0.644 0.402 0.621 0.368Q0.598 0.335 0.570 0.297Q0.543 0.259 0.519 0.227Q0.495 0.194 0.478 0.173Q0.462 0.152 0.460 0.152Q0.458 0.152 0.438 0.163Q0.417 0.173 0.394 0.187Q0.370 0.200 0.350 0.212Q0.330 0.223 0.329 0.223Q0.328 0.223 0.345 0.245Q0.362 0.267 0.388 0.301Q0.414 0.334 0.444 0.372Q0.474 0.411 0.500 0.445Q0.526 0.479 0.543 0.501Q0.561 0.524 0.561 0.526Q0.561 0.529 0.541 0.547Q0.522 0.565 0.494 0.591Q0.466 0.617 0.434 0.646Q0.401 0.675 0.376 0.699Q0.350 0.723 0.336 0.738Q0.321 0.753 0.329 0.750Q0.339 0.747 0.368 0.724Q0.397 0.702 0.435 0.669Q0.473 0.637 0.515 0.600Q0.557 0.563 0.592 0.531Q0.627 0.499 0.649 0.476Q0.672 0.454 0.673 0.451Z" fill="black"/>
</svg>
