<svg xmlns="http://www.w3.org/2000/svg" viewBox="0 0 1 1" preserveAspectRatio="xMidYMid meet">
  <path d="M0.456 0.800Q0.460 0.800 0.481 0.785Q0.501 0.771 0.524 0.753Q0.547 0.736 0.565 0.721Q0.584 0.706 0.584 0.704Q0.584 0.704 0.577 0.689Q0.571 0.674 0.562 0.656Q0.553 0.638 0.544 0.623Q0.535 0.608 0.531 0.608Q0.530 0.608 0.511 0.622Q0.492 0.636 0.470 0.654Q0.448 0.672 0.430 0.688Q0.411 0.704 0.411 0.708Q0.411 0.713 0.417 0.728Q0.423 0.743 0.431 0.759Q0.439 0.775 0.446 0.787Q0.453 0.800 0.456 0.800ZM0.401 0.599Q0.401 0.602 0.411 0.597Q0.421 0.591 0.436 0.581Q0.451 0.570 0.468 0.557Q0.485 0.544 0.500 0.532Q0.515 0.520 0.525 0.511Q0.535 0.502 0.535 0.500Q0.535 0.455 0.543 0.424Q0.551 0.393 0.562 0.370Q0.574 0.348 0.588 0.332Q0.602 0.315 0.613 0.298Q0.625 0.280 0.633 0.260Q0.641 0.239 0.641 0.209Q0.641 0.187 0.628 0.167Q0.615 0.148 0.593 0.132Q0.572 0.117 0.543 0.108Q0.514 0.099 0.481 0.099Q0.465 0.099 0.442 0.114Q0.419 0.130 0.399 0.149Q0.378 0.167 0.367 0.183Q0.355 0.198 0.361 0.198Q0.430 0.198 0.464 0.227Q0.498 0.256 0.498 0.310Q0.498 0.331 0.483 0.356Q0.468 0.382 0.450 0.416Q0.431 0.450 0.416 0.495Q0.401 0.539 0.401 0.599Z" fill="black"/>
</svg>
