<svg xmlns="http://www.w3.org/2000/svg" viewBox="0 0 1 1" preserveAspectRatio="xMidYMid meet">
  <path d="M0.418 0.315Q0.407 0.324 0.400 0.334Q0.393 0.343 0.389 0.350Q0.385 0.358 0.385 0.361Q0.385 0.364 0.388 0.360Q0.394 0.352 0.401 0.342Q0.408 0.333 0.416 0.327Q0.428 0.317 0.445 0.326Q0.461 0.335 0.476 0.352Q0.491 0.370 0.500 0.391Q0.510 0.412 0.509 0.426Q0.509 0.428 0.495 0.432Q0.480 0.437 0.459 0.444Q0.437 0.451 0.412 0.461Q0.387 0.471 0.366 0.484Q0.344 0.498 0.330 0.514Q0.316 0.531 0.316 0.552Q0.316 0.562 0.319 0.580Q0.322 0.597 0.328 0.614Q0.334 0.631 0.342 0.644Q0.350 0.656 0.361 0.656Q0.369 0.656 0.383 0.651Q0.397 0.645 0.414 0.637Q0.431 0.629 0.449 0.620Q0.466 0.611 0.480 0.604Q0.494 0.597 0.503 0.593Q0.512 0.588 0.512 0.590Q0.512 0.593 0.519 0.605Q0.527 0.616 0.541 0.630Q0.555 0.643 0.575 0.654Q0.596 0.664 0.623 0.664Q0.638 0.664 0.659 0.663Q0.679 0.661 0.701 0.655Q0.723 0.649 0.746 0.637Q0.768 0.625 0.785 0.604Q0.802 0.583 0.813 0.552Q0.824 0.520 0.824 0.476Q0.824 0.409 0.799 0.350Q0.773 0.291 0.729 0.247Q0.684 0.202 0.626 0.177Q0.567 0.152 0.500 0.152Q0.433 0.152 0.374 0.177Q0.316 0.202 0.271 0.247Q0.227 0.291 0.201 0.350Q0.176 0.409 0.176 0.476Q0.176 0.542 0.201 0.601Q0.227 0.660 0.271 0.704Q0.316 0.749 0.374 0.774Q0.433 0.800 0.500 0.800Q0.544 0.800 0.584 0.788Q0.624 0.776 0.654 0.760Q0.683 0.745 0.701 0.730Q0.719 0.716 0.719 0.710Q0.719 0.707 0.706 0.713Q0.693 0.719 0.666 0.727Q0.640 0.736 0.598 0.743Q0.557 0.750 0.500 0.750Q0.443 0.750 0.393 0.728Q0.343 0.707 0.306 0.669Q0.269 0.632 0.247 0.582Q0.226 0.532 0.226 0.476Q0.226 0.419 0.247 0.369Q0.269 0.319 0.307 0.282Q0.344 0.244 0.396 0.223Q0.447 0.201 0.507 0.201Q0.561 0.201 0.610 0.223Q0.659 0.244 0.695 0.282Q0.731 0.319 0.753 0.369Q0.774 0.419 0.774 0.476Q0.774 0.513 0.763 0.540Q0.751 0.566 0.735 0.581Q0.718 0.596 0.698 0.600Q0.678 0.604 0.662 0.598Q0.646 0.592 0.634 0.575Q0.623 0.558 0.623 0.532V0.349Q0.623 0.334 0.611 0.319Q0.599 0.304 0.582 0.292Q0.566 0.280 0.549 0.273Q0.533 0.265 0.524 0.265Q0.518 0.265 0.502 0.272Q0.486 0.278 0.469 0.287Q0.452 0.295 0.437 0.304Q0.422 0.312 0.418 0.315ZM0.414 0.500Q0.414 0.486 0.427 0.476Q0.439 0.467 0.455 0.461Q0.471 0.456 0.487 0.454Q0.502 0.453 0.509 0.453V0.573Q0.509 0.575 0.504 0.578Q0.499 0.580 0.492 0.582Q0.485 0.584 0.477 0.586Q0.468 0.588 0.461 0.588Q0.446 0.588 0.437 0.579Q0.428 0.569 0.423 0.556Q0.418 0.542 0.416 0.527Q0.414 0.512 0.414 0.500Z" fill="black"/>
</svg>
