<svg xmlns="http://www.w3.org/2000/svg" viewBox="0 0 1 1" preserveAspectRatio="xMidYMid meet">
  <path d="M0.112 0.326Q0.112 0.326 0.119 0.331Q0.127 0.335 0.138 0.344Q0.149 0.353 0.162 0.366Q0.174 0.379 0.185 0.397Q0.185 0.398 0.195 0.388Q0.204 0.379 0.218 0.364Q0.231 0.350 0.247 0.334Q0.263 0.317 0.277 0.304Q0.291 0.291 0.300 0.283Q0.309 0.275 0.309 0.279V0.539Q0.309 0.557 0.299 0.578Q0.288 0.599 0.273 0.620Q0.257 0.640 0.239 0.659Q0.220 0.677 0.205 0.691Q0.189 0.705 0.179 0.713Q0.168 0.722 0.169 0.722Q0.198 0.704 0.231 0.702Q0.263 0.701 0.298 0.710Q0.332 0.719 0.367 0.734Q0.402 0.750 0.436 0.765Q0.471 0.780 0.503 0.791Q0.536 0.802 0.565 0.802Q0.589 0.802 0.614 0.790Q0.639 0.778 0.665 0.759Q0.690 0.740 0.716 0.715Q0.742 0.691 0.768 0.667Q0.793 0.643 0.815 0.622Q0.837 0.601 0.853 0.580Q0.869 0.559 0.879 0.536Q0.888 0.512 0.888 0.484Q0.888 0.409 0.847 0.369Q0.807 0.329 0.722 0.329Q0.698 0.329 0.677 0.334Q0.657 0.340 0.647 0.344Q0.636 0.349 0.635 0.350L0.794 0.192Q0.792 0.192 0.777 0.190Q0.763 0.188 0.736 0.180Q0.709 0.172 0.682 0.158Q0.669 0.151 0.655 0.141Q0.641 0.131 0.629 0.122Q0.617 0.114 0.608 0.108Q0.599 0.102 0.597 0.102Q0.586 0.102 0.565 0.118Q0.544 0.135 0.524 0.155Q0.503 0.175 0.488 0.195Q0.473 0.214 0.473 0.220V0.459Q0.473 0.492 0.450 0.527Q0.428 0.562 0.380 0.611Q0.380 0.611 0.359 0.610Q0.338 0.608 0.312 0.615Q0.312 0.615 0.327 0.601Q0.341 0.586 0.359 0.567Q0.377 0.548 0.391 0.529Q0.406 0.510 0.406 0.501V0.229Q0.406 0.215 0.412 0.201Q0.419 0.187 0.426 0.176Q0.433 0.165 0.438 0.159Q0.443 0.153 0.439 0.154Q0.421 0.162 0.404 0.172Q0.387 0.182 0.368 0.197Q0.350 0.212 0.328 0.233Q0.305 0.254 0.275 0.284Q0.274 0.285 0.266 0.277Q0.258 0.269 0.248 0.259Q0.237 0.249 0.225 0.241Q0.213 0.232 0.203 0.232Q0.203 0.232 0.189 0.246Q0.174 0.259 0.157 0.276Q0.140 0.293 0.126 0.308Q0.112 0.323 0.112 0.326ZM0.681 0.714Q0.673 0.714 0.649 0.706Q0.625 0.699 0.593 0.688Q0.561 0.677 0.527 0.665Q0.493 0.652 0.464 0.641Q0.435 0.630 0.416 0.623Q0.397 0.615 0.397 0.615Q0.415 0.596 0.439 0.569Q0.464 0.542 0.487 0.517Q0.509 0.492 0.528 0.471Q0.546 0.450 0.552 0.441Q0.554 0.437 0.576 0.429Q0.597 0.421 0.626 0.421Q0.651 0.421 0.678 0.431Q0.706 0.441 0.728 0.463Q0.751 0.485 0.766 0.518Q0.781 0.551 0.781 0.597Q0.781 0.622 0.766 0.644Q0.751 0.665 0.733 0.680Q0.715 0.696 0.699 0.705Q0.683 0.714 0.681 0.714ZM0.568 0.397V0.249Q0.568 0.248 0.573 0.251Q0.578 0.254 0.587 0.258Q0.595 0.262 0.605 0.267Q0.615 0.272 0.626 0.276Q0.645 0.282 0.662 0.284Q0.679 0.286 0.679 0.286Z" fill="black"/>
</svg>
