<svg xmlns="http://www.w3.org/2000/svg" viewBox="0 0 1 1" preserveAspectRatio="xMidYMid meet">
  <path d="M0.691 0.299Q0.691 0.298 0.693 0.289Q0.696 0.280 0.699 0.268Q0.703 0.256 0.704 0.253Q0.705 0.249 0.715 0.235Q0.725 0.221 0.738 0.206Q0.751 0.190 0.763 0.178Q0.775 0.167 0.780 0.167Q0.780 0.165 0.764 0.154Q0.749 0.144 0.729 0.132Q0.709 0.121 0.690 0.111Q0.671 0.102 0.664 0.102Q0.658 0.102 0.641 0.117Q0.624 0.133 0.605 0.151Q0.586 0.169 0.572 0.185Q0.557 0.200 0.557 0.199V0.110Q0.557 0.110 0.532 0.118Q0.507 0.126 0.470 0.144Q0.433 0.162 0.389 0.189Q0.345 0.217 0.308 0.257Q0.270 0.296 0.245 0.348Q0.220 0.400 0.220 0.465Q0.220 0.526 0.248 0.587Q0.276 0.648 0.320 0.696Q0.363 0.745 0.416 0.775Q0.469 0.805 0.518 0.805Q0.548 0.805 0.579 0.791Q0.609 0.778 0.638 0.758Q0.666 0.738 0.691 0.714Q0.717 0.690 0.735 0.668Q0.754 0.647 0.765 0.632Q0.776 0.616 0.776 0.612Q0.776 0.612 0.761 0.627Q0.746 0.642 0.722 0.661Q0.699 0.679 0.670 0.694Q0.641 0.709 0.613 0.709Q0.587 0.709 0.553 0.690Q0.518 0.672 0.488 0.650Q0.458 0.628 0.437 0.610Q0.416 0.591 0.416 0.591Q0.417 0.590 0.430 0.577Q0.444 0.564 0.466 0.543Q0.488 0.522 0.507 0.500Q0.527 0.479 0.542 0.460Q0.557 0.442 0.557 0.435V0.224Q0.557 0.216 0.564 0.209Q0.571 0.202 0.573 0.202Q0.579 0.202 0.596 0.209Q0.613 0.215 0.631 0.224Q0.649 0.232 0.664 0.241Q0.678 0.249 0.680 0.254Q0.682 0.255 0.685 0.267Q0.688 0.279 0.689 0.288Q0.691 0.297 0.691 0.299ZM0.410 0.582Q0.410 0.582 0.395 0.567Q0.381 0.551 0.363 0.523Q0.346 0.496 0.332 0.456Q0.317 0.417 0.317 0.370Q0.317 0.319 0.337 0.281Q0.357 0.243 0.381 0.219Q0.405 0.195 0.425 0.184Q0.445 0.173 0.445 0.176V0.499Q0.445 0.517 0.436 0.537Q0.427 0.557 0.419 0.569Q0.411 0.580 0.410 0.582Z" fill="black"/>
</svg>
