<svg xmlns="http://www.w3.org/2000/svg" viewBox="0 0 1 1" preserveAspectRatio="xMidYMid meet">
  <path d="M0.168 0.519Q0.183 0.509 0.205 0.504Q0.227 0.500 0.252 0.497Q0.277 0.495 0.302 0.494Q0.328 0.494 0.349 0.494Q0.350 0.496 0.359 0.520Q0.368 0.544 0.383 0.584Q0.398 0.624 0.412 0.665Q0.426 0.706 0.436 0.741Q0.446 0.776 0.446 0.790Q0.446 0.804 0.441 0.818Q0.436 0.833 0.436 0.833Q0.435 0.832 0.424 0.824Q0.413 0.817 0.391 0.808Q0.370 0.799 0.346 0.799Q0.325 0.799 0.300 0.816Q0.275 0.834 0.254 0.855Q0.233 0.876 0.219 0.895Q0.205 0.913 0.205 0.914Q0.205 0.916 0.209 0.913Q0.213 0.910 0.220 0.906Q0.227 0.902 0.235 0.899Q0.243 0.895 0.251 0.895Q0.270 0.895 0.289 0.903Q0.308 0.910 0.324 0.920Q0.341 0.929 0.353 0.937Q0.366 0.944 0.373 0.944Q0.377 0.944 0.401 0.925Q0.425 0.905 0.459 0.874Q0.492 0.842 0.531 0.803Q0.569 0.764 0.602 0.723Q0.634 0.682 0.655 0.644Q0.677 0.605 0.677 0.577Q0.677 0.566 0.675 0.551Q0.673 0.536 0.671 0.523Q0.669 0.509 0.667 0.500Q0.665 0.491 0.665 0.491Q0.698 0.491 0.721 0.478Q0.745 0.466 0.764 0.449Q0.783 0.433 0.799 0.418Q0.815 0.403 0.835 0.398H0.634Q0.634 0.396 0.629 0.378Q0.623 0.360 0.616 0.332Q0.608 0.303 0.603 0.276Q0.597 0.248 0.596 0.229Q0.595 0.209 0.602 0.209Q0.614 0.209 0.634 0.219Q0.654 0.228 0.673 0.240Q0.693 0.251 0.707 0.261Q0.721 0.270 0.721 0.270Q0.764 0.233 0.793 0.209Q0.821 0.185 0.827 0.178Q0.828 0.176 0.807 0.165Q0.786 0.153 0.758 0.139Q0.731 0.125 0.706 0.113Q0.682 0.102 0.678 0.102Q0.675 0.102 0.646 0.121Q0.618 0.140 0.585 0.171Q0.552 0.202 0.525 0.242Q0.498 0.281 0.498 0.323Q0.498 0.359 0.510 0.402Q0.522 0.446 0.537 0.491Q0.552 0.536 0.564 0.580Q0.576 0.624 0.576 0.659Q0.576 0.688 0.558 0.721Q0.540 0.755 0.519 0.783Q0.497 0.811 0.479 0.829Q0.462 0.847 0.462 0.847L0.452 0.841Q0.452 0.841 0.465 0.823Q0.479 0.804 0.496 0.778Q0.512 0.753 0.526 0.726Q0.540 0.699 0.540 0.682Q0.540 0.644 0.524 0.591Q0.507 0.538 0.487 0.481Q0.467 0.424 0.451 0.366Q0.435 0.309 0.435 0.261Q0.435 0.224 0.443 0.207Q0.452 0.189 0.461 0.181Q0.470 0.172 0.479 0.169Q0.487 0.166 0.487 0.157Q0.487 0.155 0.475 0.161Q0.463 0.167 0.444 0.179Q0.425 0.191 0.402 0.209Q0.380 0.226 0.361 0.246Q0.342 0.266 0.329 0.288Q0.317 0.309 0.317 0.329Q0.317 0.341 0.319 0.361Q0.322 0.382 0.324 0.395Q0.327 0.409 0.327 0.411Q0.305 0.411 0.283 0.420Q0.261 0.429 0.242 0.442Q0.222 0.456 0.206 0.471Q0.190 0.487 0.180 0.499Q0.169 0.510 0.166 0.517Q0.162 0.523 0.168 0.519Z" fill="black"/>
</svg>
