<svg xmlns="http://www.w3.org/2000/svg" viewBox="0 0 1 1" preserveAspectRatio="xMidYMid meet">
  <path d="M0.177 0.461Q0.177 0.526 0.204 0.588Q0.230 0.650 0.273 0.698Q0.315 0.746 0.368 0.774Q0.422 0.803 0.476 0.803Q0.506 0.803 0.545 0.785Q0.583 0.767 0.622 0.738Q0.660 0.710 0.696 0.674Q0.733 0.638 0.761 0.603Q0.789 0.568 0.806 0.537Q0.823 0.505 0.823 0.486Q0.823 0.408 0.784 0.366Q0.745 0.324 0.677 0.324Q0.667 0.324 0.653 0.328Q0.639 0.331 0.627 0.334Q0.614 0.338 0.605 0.341Q0.596 0.345 0.596 0.345Q0.597 0.344 0.611 0.328Q0.625 0.311 0.648 0.285Q0.670 0.259 0.691 0.233Q0.712 0.207 0.727 0.187Q0.742 0.167 0.742 0.162Q0.742 0.156 0.740 0.157Q0.738 0.159 0.727 0.159Q0.719 0.159 0.703 0.150Q0.687 0.141 0.670 0.130Q0.653 0.120 0.639 0.111Q0.625 0.102 0.621 0.102Q0.617 0.102 0.600 0.118Q0.582 0.134 0.563 0.153Q0.544 0.172 0.529 0.188Q0.513 0.204 0.513 0.204V0.136Q0.513 0.128 0.517 0.119Q0.520 0.110 0.520 0.110Q0.518 0.110 0.492 0.119Q0.466 0.128 0.428 0.146Q0.390 0.164 0.346 0.192Q0.302 0.220 0.265 0.259Q0.227 0.298 0.202 0.348Q0.177 0.399 0.177 0.461ZM0.363 0.578Q0.363 0.578 0.348 0.562Q0.334 0.545 0.317 0.518Q0.300 0.492 0.286 0.458Q0.271 0.425 0.271 0.390Q0.271 0.332 0.292 0.292Q0.312 0.251 0.336 0.226Q0.361 0.200 0.381 0.188Q0.402 0.176 0.402 0.176V0.459Q0.402 0.506 0.392 0.534Q0.382 0.561 0.373 0.569Q0.364 0.577 0.363 0.578ZM0.508 0.441Q0.519 0.426 0.536 0.419Q0.552 0.413 0.570 0.413Q0.600 0.413 0.629 0.424Q0.657 0.436 0.679 0.456Q0.702 0.477 0.716 0.505Q0.730 0.534 0.730 0.568Q0.730 0.593 0.717 0.618Q0.705 0.642 0.685 0.662Q0.665 0.681 0.640 0.693Q0.614 0.706 0.587 0.706Q0.547 0.706 0.509 0.688Q0.471 0.670 0.441 0.648Q0.411 0.626 0.392 0.608Q0.374 0.590 0.374 0.590Q0.375 0.589 0.387 0.576Q0.399 0.563 0.418 0.542Q0.438 0.520 0.457 0.500Q0.476 0.479 0.491 0.462Q0.505 0.445 0.508 0.441ZM0.534 0.201Q0.536 0.201 0.554 0.210Q0.571 0.218 0.592 0.230Q0.612 0.241 0.629 0.251Q0.646 0.261 0.646 0.264Q0.646 0.268 0.632 0.285Q0.618 0.302 0.599 0.323Q0.580 0.344 0.560 0.365Q0.540 0.387 0.527 0.400Q0.514 0.413 0.513 0.414V0.217Q0.514 0.216 0.518 0.213Q0.522 0.209 0.528 0.205Q0.533 0.201 0.534 0.201Z" fill="black"/>
</svg>
