<svg xmlns="http://www.w3.org/2000/svg" viewBox="0 0 1 1" preserveAspectRatio="xMidYMid meet">
  <path d="M0.180 0.800 0.290 0.755V0.162L0.180 0.251ZM0.371 0.800 0.476 0.754V0.426Q0.477 0.425 0.483 0.420Q0.489 0.415 0.498 0.409Q0.507 0.403 0.514 0.403Q0.533 0.403 0.566 0.415Q0.598 0.427 0.629 0.450Q0.660 0.473 0.682 0.506Q0.705 0.539 0.705 0.582Q0.705 0.613 0.692 0.636Q0.680 0.659 0.662 0.678Q0.644 0.698 0.622 0.716Q0.600 0.734 0.582 0.755Q0.564 0.776 0.552 0.802Q0.539 0.828 0.539 0.862Q0.539 0.886 0.552 0.905Q0.565 0.923 0.580 0.935Q0.595 0.946 0.608 0.950Q0.621 0.954 0.621 0.950Q0.621 0.947 0.615 0.945Q0.609 0.943 0.602 0.934Q0.594 0.924 0.588 0.903Q0.582 0.882 0.582 0.842Q0.582 0.807 0.600 0.775Q0.617 0.743 0.644 0.714Q0.670 0.686 0.701 0.660Q0.732 0.633 0.758 0.606Q0.785 0.578 0.802 0.550Q0.820 0.522 0.820 0.491Q0.820 0.452 0.805 0.422Q0.790 0.393 0.767 0.371Q0.744 0.350 0.717 0.336Q0.690 0.322 0.666 0.314Q0.643 0.306 0.626 0.303Q0.609 0.299 0.607 0.299Q0.600 0.299 0.585 0.311Q0.569 0.322 0.551 0.338Q0.533 0.354 0.515 0.371Q0.498 0.388 0.487 0.398Q0.477 0.409 0.476 0.410V0.193Q0.476 0.190 0.487 0.191Q0.499 0.191 0.516 0.194Q0.534 0.197 0.555 0.201Q0.575 0.205 0.593 0.209Q0.611 0.213 0.623 0.216Q0.635 0.219 0.636 0.219Q0.641 0.219 0.657 0.206Q0.673 0.193 0.690 0.178Q0.707 0.163 0.720 0.149Q0.733 0.136 0.733 0.134Q0.733 0.129 0.721 0.124Q0.710 0.120 0.691 0.116Q0.673 0.112 0.651 0.108Q0.629 0.105 0.608 0.103Q0.587 0.101 0.570 0.099Q0.552 0.098 0.543 0.098Q0.540 0.098 0.527 0.104Q0.513 0.110 0.494 0.121Q0.475 0.133 0.453 0.148Q0.432 0.164 0.413 0.182Q0.395 0.201 0.383 0.223Q0.371 0.245 0.371 0.268Z" fill="black"/>
</svg>
