<svg xmlns="http://www.w3.org/2000/svg" viewBox="0 0 1 1" preserveAspectRatio="xMidYMid meet">
  <path d="M0.122 0.905Q0.126 0.905 0.133 0.896Q0.141 0.886 0.149 0.874Q0.158 0.862 0.170 0.853Q0.181 0.843 0.193 0.843Q0.207 0.843 0.235 0.852Q0.262 0.861 0.293 0.873Q0.323 0.885 0.352 0.898Q0.382 0.911 0.400 0.919Q0.418 0.927 0.419 0.928Q0.419 0.928 0.448 0.908Q0.477 0.887 0.522 0.854Q0.567 0.822 0.619 0.779Q0.670 0.737 0.715 0.693Q0.760 0.649 0.789 0.608Q0.818 0.566 0.818 0.534V0.221Q0.818 0.201 0.828 0.180Q0.837 0.160 0.849 0.142Q0.860 0.125 0.870 0.113Q0.879 0.102 0.879 0.102Q0.878 0.103 0.862 0.113Q0.846 0.123 0.821 0.142Q0.796 0.161 0.772 0.183Q0.748 0.206 0.730 0.234Q0.713 0.261 0.713 0.288V0.358Q0.697 0.358 0.683 0.350Q0.670 0.343 0.660 0.332Q0.651 0.320 0.645 0.307Q0.640 0.293 0.640 0.282Q0.640 0.258 0.643 0.242Q0.647 0.225 0.655 0.225Q0.661 0.225 0.675 0.216Q0.690 0.206 0.708 0.192Q0.726 0.177 0.744 0.161Q0.763 0.144 0.777 0.129Q0.792 0.115 0.800 0.105Q0.808 0.096 0.805 0.096Q0.805 0.096 0.794 0.099Q0.783 0.102 0.757 0.102H0.477Q0.458 0.102 0.436 0.116Q0.415 0.131 0.394 0.153Q0.374 0.174 0.355 0.200Q0.337 0.226 0.324 0.248Q0.311 0.270 0.305 0.285Q0.299 0.299 0.303 0.299Q0.303 0.299 0.310 0.287Q0.317 0.275 0.328 0.261Q0.339 0.246 0.353 0.235Q0.367 0.223 0.381 0.223L0.607 0.229Q0.617 0.229 0.606 0.242Q0.595 0.255 0.578 0.277Q0.561 0.299 0.545 0.329Q0.529 0.358 0.529 0.390Q0.529 0.407 0.537 0.418Q0.544 0.429 0.554 0.436Q0.563 0.443 0.573 0.448Q0.582 0.454 0.587 0.461Q0.590 0.466 0.576 0.484Q0.562 0.502 0.544 0.523Q0.525 0.544 0.509 0.562Q0.493 0.579 0.493 0.582Q0.493 0.582 0.508 0.591Q0.523 0.600 0.541 0.618Q0.558 0.636 0.573 0.663Q0.588 0.690 0.588 0.727Q0.588 0.748 0.581 0.766Q0.573 0.785 0.563 0.798Q0.553 0.812 0.544 0.819Q0.534 0.827 0.530 0.827Q0.523 0.827 0.498 0.812Q0.473 0.798 0.439 0.780Q0.405 0.763 0.369 0.748Q0.333 0.734 0.306 0.734Q0.287 0.734 0.265 0.746Q0.243 0.759 0.222 0.778Q0.201 0.798 0.182 0.820Q0.162 0.841 0.148 0.861Q0.134 0.880 0.126 0.893Q0.119 0.905 0.122 0.905ZM0.713 0.368V0.610Q0.713 0.649 0.698 0.677Q0.684 0.705 0.671 0.716Q0.659 0.727 0.657 0.728Q0.659 0.727 0.668 0.716Q0.677 0.705 0.687 0.675Q0.698 0.646 0.698 0.602Q0.698 0.583 0.689 0.564Q0.680 0.545 0.667 0.530Q0.654 0.515 0.640 0.506Q0.625 0.498 0.613 0.498Q0.597 0.498 0.591 0.500Q0.585 0.501 0.585 0.501Q0.586 0.500 0.599 0.487Q0.611 0.474 0.631 0.453Q0.650 0.432 0.668 0.412Q0.686 0.393 0.699 0.379Q0.713 0.366 0.713 0.368Z" fill="black"/>
</svg>
