<svg xmlns="http://www.w3.org/2000/svg" viewBox="0 0 1 1" preserveAspectRatio="xMidYMid meet">
  <path d="M0.371 0.637Q0.371 0.639 0.384 0.630Q0.397 0.621 0.417 0.605Q0.436 0.589 0.459 0.569Q0.481 0.548 0.500 0.527Q0.520 0.506 0.533 0.487Q0.546 0.467 0.546 0.453V0.391Q0.546 0.391 0.560 0.399Q0.575 0.408 0.592 0.418Q0.609 0.428 0.623 0.437Q0.637 0.446 0.637 0.447Q0.637 0.448 0.628 0.456Q0.619 0.464 0.605 0.476Q0.592 0.488 0.576 0.501Q0.561 0.515 0.549 0.527Q0.537 0.539 0.531 0.547Q0.525 0.555 0.530 0.555Q0.539 0.555 0.555 0.567Q0.572 0.579 0.591 0.599Q0.611 0.618 0.630 0.644Q0.649 0.669 0.666 0.696Q0.682 0.724 0.692 0.751Q0.702 0.778 0.702 0.800Q0.702 0.805 0.713 0.797Q0.723 0.789 0.739 0.774Q0.754 0.759 0.772 0.740Q0.790 0.721 0.805 0.704Q0.820 0.688 0.829 0.676Q0.838 0.665 0.837 0.665Q0.835 0.665 0.829 0.669Q0.823 0.673 0.817 0.676Q0.811 0.680 0.806 0.682Q0.802 0.684 0.802 0.680Q0.802 0.667 0.793 0.647Q0.783 0.627 0.768 0.604Q0.753 0.581 0.735 0.558Q0.716 0.535 0.697 0.517Q0.678 0.499 0.661 0.487Q0.643 0.476 0.631 0.476Q0.630 0.476 0.639 0.468Q0.647 0.460 0.660 0.448Q0.673 0.436 0.688 0.422Q0.703 0.408 0.716 0.395Q0.729 0.382 0.738 0.372Q0.746 0.363 0.746 0.361Q0.746 0.358 0.729 0.347Q0.711 0.336 0.690 0.325Q0.668 0.314 0.650 0.305Q0.631 0.296 0.628 0.296Q0.625 0.296 0.611 0.308Q0.598 0.319 0.584 0.333Q0.570 0.346 0.558 0.357Q0.547 0.368 0.547 0.367V0.211Q0.547 0.204 0.570 0.211Q0.593 0.217 0.623 0.228Q0.652 0.238 0.682 0.248Q0.711 0.258 0.725 0.258Q0.726 0.258 0.743 0.244Q0.759 0.229 0.778 0.212Q0.796 0.194 0.810 0.180Q0.824 0.166 0.821 0.166Q0.816 0.166 0.801 0.161Q0.786 0.157 0.766 0.149Q0.745 0.142 0.723 0.134Q0.700 0.126 0.681 0.118Q0.661 0.111 0.649 0.106Q0.636 0.102 0.635 0.102Q0.630 0.102 0.615 0.110Q0.599 0.119 0.577 0.132Q0.555 0.146 0.530 0.162Q0.506 0.178 0.486 0.194Q0.466 0.210 0.453 0.225Q0.439 0.239 0.439 0.247V0.487Q0.439 0.523 0.429 0.550Q0.418 0.577 0.405 0.596Q0.392 0.615 0.382 0.625Q0.371 0.635 0.371 0.637ZM0.259 0.646Q0.259 0.646 0.278 0.634Q0.296 0.622 0.319 0.604Q0.341 0.585 0.360 0.562Q0.379 0.539 0.379 0.516V0.221Q0.379 0.202 0.393 0.185Q0.406 0.168 0.422 0.155Q0.438 0.142 0.452 0.134Q0.465 0.126 0.465 0.126Q0.460 0.126 0.445 0.130Q0.430 0.135 0.410 0.144Q0.389 0.153 0.367 0.166Q0.345 0.179 0.326 0.196Q0.307 0.212 0.295 0.232Q0.284 0.252 0.284 0.275V0.554Q0.284 0.574 0.274 0.594Q0.265 0.613 0.250 0.631Q0.236 0.649 0.219 0.665Q0.203 0.681 0.189 0.692Q0.176 0.704 0.168 0.710Q0.161 0.717 0.164 0.717Q0.173 0.717 0.192 0.729Q0.212 0.741 0.232 0.756Q0.252 0.771 0.267 0.784Q0.282 0.798 0.282 0.801Q0.282 0.801 0.294 0.790Q0.306 0.779 0.322 0.765Q0.337 0.752 0.352 0.741Q0.366 0.730 0.370 0.730Q0.377 0.730 0.393 0.737Q0.408 0.745 0.424 0.756Q0.440 0.767 0.453 0.779Q0.465 0.791 0.465 0.800L0.574 0.717Q0.574 0.715 0.569 0.703Q0.564 0.692 0.553 0.679Q0.542 0.667 0.525 0.657Q0.509 0.646 0.486 0.646Q0.468 0.646 0.447 0.657Q0.425 0.667 0.407 0.679Q0.389 0.691 0.377 0.701Q0.365 0.712 0.365 0.712Q0.365 0.707 0.353 0.696Q0.341 0.685 0.324 0.674Q0.307 0.663 0.290 0.655Q0.272 0.646 0.259 0.646Z" fill="black"/>
</svg>
