<svg xmlns="http://www.w3.org/2000/svg" viewBox="0 0 1 1" preserveAspectRatio="xMidYMid meet">
  <path d="M0.144 0.713Q0.154 0.713 0.171 0.723Q0.188 0.734 0.203 0.748Q0.219 0.762 0.230 0.777Q0.242 0.792 0.242 0.801Q0.242 0.804 0.249 0.798Q0.257 0.793 0.271 0.782Q0.284 0.772 0.301 0.759Q0.317 0.746 0.335 0.734Q0.352 0.723 0.369 0.715Q0.385 0.708 0.398 0.708Q0.411 0.708 0.433 0.715Q0.455 0.722 0.480 0.732Q0.506 0.742 0.533 0.754Q0.560 0.766 0.584 0.776Q0.608 0.786 0.627 0.793Q0.645 0.800 0.654 0.800Q0.667 0.800 0.688 0.791Q0.708 0.783 0.731 0.770Q0.753 0.757 0.776 0.741Q0.799 0.726 0.817 0.712Q0.836 0.698 0.847 0.687Q0.859 0.676 0.859 0.673Q0.859 0.670 0.850 0.676Q0.842 0.682 0.828 0.691Q0.815 0.700 0.797 0.707Q0.780 0.715 0.763 0.715Q0.746 0.715 0.712 0.703Q0.678 0.692 0.638 0.678Q0.598 0.665 0.561 0.654Q0.523 0.642 0.499 0.642Q0.476 0.642 0.451 0.653Q0.426 0.664 0.404 0.676Q0.382 0.689 0.368 0.698Q0.354 0.708 0.354 0.705Q0.354 0.705 0.348 0.693Q0.341 0.682 0.330 0.668Q0.318 0.654 0.302 0.643Q0.285 0.631 0.265 0.631Q0.263 0.631 0.282 0.618Q0.301 0.605 0.325 0.584Q0.349 0.563 0.369 0.536Q0.389 0.509 0.389 0.481V0.191Q0.389 0.172 0.403 0.156Q0.416 0.140 0.431 0.128Q0.446 0.116 0.458 0.109Q0.470 0.102 0.467 0.102Q0.448 0.102 0.417 0.114Q0.386 0.126 0.356 0.145Q0.326 0.165 0.305 0.189Q0.283 0.214 0.283 0.239V0.548Q0.283 0.569 0.271 0.590Q0.259 0.610 0.242 0.628Q0.225 0.646 0.205 0.662Q0.186 0.678 0.170 0.689Q0.155 0.700 0.146 0.706Q0.138 0.713 0.144 0.713ZM0.386 0.622Q0.386 0.626 0.399 0.621Q0.411 0.616 0.430 0.605Q0.449 0.593 0.470 0.577Q0.492 0.561 0.511 0.543Q0.530 0.524 0.542 0.504Q0.555 0.485 0.555 0.466V0.211Q0.555 0.202 0.564 0.202Q0.570 0.202 0.582 0.207Q0.594 0.212 0.608 0.219Q0.621 0.225 0.634 0.230Q0.646 0.235 0.652 0.235Q0.653 0.235 0.671 0.223Q0.689 0.211 0.710 0.196Q0.731 0.181 0.748 0.168Q0.765 0.156 0.765 0.154Q0.765 0.153 0.747 0.146Q0.730 0.139 0.708 0.130Q0.686 0.122 0.666 0.115Q0.645 0.109 0.639 0.109Q0.636 0.109 0.621 0.117Q0.605 0.125 0.584 0.137Q0.564 0.150 0.540 0.165Q0.516 0.180 0.496 0.195Q0.476 0.209 0.462 0.221Q0.449 0.233 0.449 0.239V0.510Q0.449 0.542 0.439 0.563Q0.429 0.583 0.417 0.596Q0.406 0.608 0.396 0.614Q0.386 0.620 0.386 0.622Z" fill="black"/>
</svg>
