<svg xmlns="http://www.w3.org/2000/svg" viewBox="0 0 1 1" preserveAspectRatio="xMidYMid meet">
  <path d="M0.672 0.521Q0.672 0.521 0.679 0.521Q0.687 0.521 0.700 0.522Q0.712 0.523 0.728 0.524Q0.744 0.524 0.761 0.524Q0.788 0.524 0.807 0.507Q0.826 0.491 0.838 0.470Q0.850 0.450 0.855 0.433Q0.861 0.416 0.861 0.416Q0.861 0.416 0.856 0.419Q0.852 0.422 0.834 0.425Q0.816 0.428 0.781 0.428Q0.755 0.428 0.729 0.426Q0.703 0.424 0.689 0.422Q0.674 0.420 0.672 0.420V0.248Q0.672 0.247 0.681 0.241Q0.689 0.234 0.706 0.227Q0.722 0.219 0.746 0.213Q0.770 0.206 0.800 0.206Q0.875 0.206 0.921 0.227Q0.967 0.247 0.992 0.279Q1.000 0.310 1.000 0.349Q1.000 0.389 1.000 0.426Q1.000 0.484 1.000 0.529Q1.000 0.574 0.977 0.609Q0.953 0.643 0.924 0.667Q0.895 0.692 0.871 0.708Q0.847 0.725 0.831 0.734Q0.814 0.743 0.814 0.746Q0.814 0.748 0.823 0.745Q0.831 0.743 0.840 0.743Q0.869 0.743 0.901 0.751Q0.934 0.759 0.961 0.769Q0.989 0.780 1.000 0.789Q1.000 0.798 1.000 0.800Q1.000 0.800 1.000 0.788Q1.000 0.777 1.000 0.762Q1.000 0.748 1.000 0.734Q1.000 0.720 1.000 0.716Q1.000 0.713 1.000 0.705Q1.000 0.697 1.000 0.688Q1.000 0.679 1.000 0.670Q1.000 0.661 0.987 0.656Q0.970 0.650 0.969 0.650Q0.971 0.649 0.989 0.636Q1.000 0.622 1.000 0.595Q1.000 0.567 1.000 0.530Q1.000 0.494 1.000 0.446Q1.000 0.399 1.000 0.346Q1.000 0.281 1.000 0.238Q1.000 0.194 1.000 0.167Q1.000 0.141 1.000 0.127Q0.979 0.114 0.946 0.109Q0.913 0.104 0.890 0.104Q0.868 0.104 0.867 0.104Q0.857 0.104 0.839 0.114Q0.821 0.124 0.800 0.139Q0.778 0.155 0.756 0.171Q0.733 0.188 0.715 0.203Q0.696 0.217 0.684 0.226Q0.672 0.234 0.672 0.232Q0.672 0.183 0.643 0.157Q0.614 0.131 0.571 0.118Q0.529 0.106 0.482 0.104Q0.435 0.102 0.399 0.102Q0.386 0.102 0.367 0.113Q0.348 0.125 0.327 0.142Q0.306 0.160 0.284 0.181Q0.262 0.203 0.244 0.224Q0.227 0.244 0.216 0.262Q0.205 0.279 0.205 0.288V0.639Q0.205 0.663 0.193 0.683Q0.182 0.703 0.167 0.717Q0.153 0.731 0.142 0.739Q0.130 0.747 0.130 0.747Q0.130 0.745 0.117 0.740Q0.104 0.736 0.088 0.732Q0.072 0.728 0.059 0.725Q0.046 0.722 0.046 0.722Q0.046 0.722 0.062 0.710Q0.077 0.699 0.096 0.681Q0.114 0.663 0.130 0.640Q0.145 0.616 0.145 0.592V0.265Q0.145 0.246 0.162 0.222Q0.178 0.198 0.198 0.177Q0.219 0.156 0.235 0.140Q0.252 0.125 0.252 0.123Q0.252 0.120 0.236 0.126Q0.220 0.132 0.196 0.144Q0.172 0.156 0.144 0.172Q0.115 0.188 0.091 0.206Q0.067 0.224 0.051 0.242Q0.035 0.260 0.035 0.274V0.656Q0.035 0.692 0.029 0.704Q0.023 0.716 0.023 0.716Q0.023 0.716 0.017 0.715Q0.010 0.714 0.005 0.714Q0.000 0.714 0.000 0.722Q0.000 0.731 0.000 0.744Q0.000 0.757 0.000 0.772Q0.000 0.788 0.000 0.802Q0.000 0.816 0.000 0.825Q0.000 0.834 0.000 0.836Q0.000 0.837 0.000 0.834Q0.000 0.831 0.000 0.826Q0.000 0.821 0.000 0.817Q0.000 0.813 0.000 0.813Q0.000 0.813 0.000 0.820Q0.012 0.828 0.031 0.837Q0.049 0.846 0.063 0.854Q0.076 0.861 0.084 0.861Q0.089 0.861 0.107 0.851Q0.125 0.840 0.145 0.827Q0.165 0.813 0.181 0.800Q0.197 0.788 0.197 0.783Q0.197 0.781 0.185 0.774Q0.174 0.768 0.165 0.763Q0.155 0.758 0.153 0.757Q0.154 0.757 0.169 0.752Q0.185 0.748 0.210 0.736Q0.235 0.725 0.258 0.707Q0.281 0.689 0.298 0.663Q0.315 0.637 0.315 0.602V0.207Q0.315 0.207 0.336 0.206Q0.357 0.205 0.387 0.205Q0.414 0.205 0.445 0.206Q0.475 0.206 0.501 0.213Q0.528 0.219 0.545 0.234Q0.562 0.249 0.562 0.278V0.420Q0.562 0.421 0.551 0.421Q0.540 0.422 0.526 0.422Q0.512 0.422 0.498 0.421Q0.484 0.421 0.477 0.421Q0.457 0.421 0.439 0.440Q0.421 0.459 0.407 0.482Q0.393 0.504 0.385 0.523Q0.377 0.542 0.377 0.542Q0.378 0.541 0.387 0.535Q0.396 0.529 0.425 0.522Q0.453 0.515 0.502 0.515Q0.536 0.515 0.549 0.517Q0.562 0.518 0.562 0.519V0.800L0.672 0.748Z" fill="black"/>
</svg>
