<svg xmlns="http://www.w3.org/2000/svg" viewBox="0 0 1 1" preserveAspectRatio="xMidYMid meet">
  <path d="M0.420 0.584 0.773 0.319Q0.773 0.319 0.779 0.341Q0.786 0.363 0.786 0.401Q0.786 0.456 0.769 0.501Q0.753 0.546 0.727 0.583Q0.702 0.619 0.673 0.647Q0.644 0.675 0.619 0.694Q0.593 0.714 0.577 0.725Q0.560 0.737 0.560 0.740Q0.560 0.740 0.565 0.738Q0.570 0.737 0.586 0.737Q0.613 0.737 0.646 0.744Q0.678 0.752 0.706 0.762Q0.734 0.772 0.753 0.781Q0.772 0.790 0.772 0.793Q0.772 0.793 0.790 0.781Q0.809 0.770 0.831 0.755Q0.852 0.741 0.871 0.727Q0.889 0.713 0.889 0.709Q0.889 0.706 0.871 0.697Q0.852 0.689 0.827 0.679Q0.801 0.669 0.773 0.660Q0.746 0.650 0.728 0.644Q0.711 0.638 0.710 0.638Q0.712 0.637 0.731 0.623Q0.750 0.608 0.780 0.579Q0.811 0.550 0.839 0.513Q0.868 0.477 0.889 0.431Q0.910 0.385 0.910 0.336Q0.910 0.259 0.881 0.212Q0.851 0.166 0.807 0.140Q0.763 0.114 0.710 0.105Q0.657 0.097 0.610 0.097Q0.598 0.097 0.575 0.112Q0.551 0.127 0.526 0.147Q0.500 0.167 0.476 0.189Q0.451 0.211 0.436 0.225Q0.421 0.239 0.420 0.240Q0.420 0.233 0.419 0.220Q0.418 0.206 0.417 0.193Q0.416 0.180 0.414 0.170Q0.413 0.161 0.412 0.161Q0.404 0.161 0.394 0.166Q0.385 0.171 0.362 0.171Q0.348 0.171 0.323 0.167Q0.297 0.163 0.271 0.155Q0.245 0.147 0.226 0.137Q0.207 0.127 0.207 0.116Q0.207 0.111 0.212 0.107Q0.216 0.103 0.214 0.103Q0.211 0.103 0.192 0.114Q0.172 0.125 0.150 0.140Q0.127 0.155 0.108 0.170Q0.090 0.186 0.090 0.196Q0.090 0.207 0.104 0.214Q0.119 0.221 0.141 0.225Q0.163 0.229 0.188 0.232Q0.214 0.234 0.236 0.236Q0.258 0.237 0.273 0.239Q0.287 0.241 0.287 0.245V0.692Q0.287 0.708 0.288 0.726Q0.288 0.745 0.290 0.761Q0.292 0.778 0.296 0.789Q0.300 0.800 0.307 0.800Q0.308 0.800 0.322 0.796Q0.336 0.793 0.358 0.787Q0.381 0.782 0.402 0.776Q0.423 0.771 0.438 0.766Q0.453 0.761 0.453 0.758Q0.452 0.757 0.444 0.752Q0.437 0.747 0.428 0.731Q0.420 0.715 0.420 0.688ZM0.766 0.305 0.420 0.566V0.509L0.741 0.267Q0.742 0.268 0.747 0.275Q0.753 0.282 0.759 0.292Q0.766 0.301 0.766 0.305ZM0.420 0.257Q0.420 0.249 0.433 0.242Q0.446 0.234 0.468 0.229Q0.490 0.223 0.517 0.220Q0.545 0.217 0.574 0.217Q0.617 0.217 0.647 0.224Q0.676 0.230 0.694 0.238Q0.712 0.245 0.720 0.251Q0.728 0.257 0.728 0.257L0.420 0.491Z" fill="black"/>
</svg>
