<svg xmlns="http://www.w3.org/2000/svg" viewBox="0 0 1 1" preserveAspectRatio="xMidYMid meet">
  <path d="M0.143 0.469Q0.143 0.526 0.165 0.586Q0.187 0.645 0.229 0.693Q0.271 0.741 0.332 0.771Q0.393 0.802 0.470 0.802Q0.496 0.802 0.535 0.793Q0.574 0.784 0.617 0.765Q0.660 0.747 0.703 0.717Q0.746 0.688 0.780 0.647Q0.815 0.605 0.836 0.552Q0.857 0.500 0.857 0.433Q0.857 0.377 0.843 0.331Q0.829 0.285 0.805 0.249Q0.782 0.213 0.753 0.187Q0.724 0.161 0.695 0.143Q0.666 0.126 0.641 0.117Q0.615 0.109 0.598 0.109Q0.581 0.109 0.558 0.120Q0.534 0.132 0.513 0.145Q0.492 0.159 0.477 0.170Q0.462 0.181 0.462 0.181Q0.462 0.181 0.459 0.170Q0.457 0.160 0.453 0.147Q0.450 0.134 0.446 0.123Q0.443 0.112 0.442 0.112Q0.440 0.113 0.411 0.122Q0.382 0.132 0.336 0.157Q0.291 0.181 0.248 0.222Q0.204 0.262 0.173 0.324Q0.143 0.386 0.143 0.469ZM0.310 0.585Q0.310 0.585 0.299 0.573Q0.288 0.560 0.276 0.537Q0.263 0.514 0.252 0.482Q0.241 0.450 0.241 0.410Q0.241 0.355 0.248 0.317Q0.254 0.278 0.264 0.253Q0.274 0.227 0.286 0.213Q0.298 0.198 0.309 0.191Q0.320 0.183 0.328 0.182Q0.336 0.180 0.339 0.180V0.498Q0.339 0.526 0.332 0.547Q0.324 0.567 0.318 0.576Q0.311 0.584 0.310 0.585ZM0.708 0.353Q0.708 0.353 0.714 0.366Q0.720 0.379 0.727 0.402Q0.735 0.426 0.741 0.459Q0.748 0.492 0.748 0.531Q0.748 0.569 0.739 0.606Q0.730 0.643 0.711 0.672Q0.693 0.701 0.666 0.719Q0.638 0.737 0.601 0.737Q0.550 0.736 0.500 0.714Q0.450 0.692 0.410 0.666Q0.370 0.640 0.345 0.619Q0.320 0.597 0.320 0.597ZM0.463 0.442 0.681 0.305Q0.682 0.306 0.686 0.313Q0.691 0.320 0.696 0.329Q0.702 0.337 0.702 0.339L0.418 0.516Q0.420 0.514 0.430 0.501Q0.440 0.489 0.451 0.470Q0.463 0.452 0.463 0.442ZM0.671 0.294 0.463 0.424V0.201Q0.463 0.185 0.488 0.185Q0.520 0.185 0.553 0.202Q0.586 0.219 0.613 0.240Q0.639 0.260 0.655 0.277Q0.671 0.294 0.671 0.294Z" fill="black"/>
</svg>
