<svg xmlns="http://www.w3.org/2000/svg" viewBox="0 0 1 1" preserveAspectRatio="xMidYMid meet">
  <path d="M0.624 0.188Q0.624 0.188 0.613 0.195Q0.602 0.201 0.584 0.209Q0.567 0.216 0.544 0.222Q0.522 0.228 0.500 0.228Q0.477 0.228 0.455 0.222Q0.433 0.216 0.416 0.209Q0.398 0.201 0.387 0.195Q0.376 0.188 0.376 0.188Q0.376 0.188 0.384 0.201Q0.391 0.213 0.406 0.228Q0.421 0.243 0.445 0.255Q0.468 0.267 0.500 0.266Q0.528 0.265 0.551 0.253Q0.574 0.241 0.590 0.227Q0.607 0.212 0.615 0.200Q0.624 0.188 0.624 0.188Z" fill="black"/>
</svg>
