<svg xmlns="http://www.w3.org/2000/svg" viewBox="0 0 1 1" preserveAspectRatio="xMidYMid meet">
  <path d="M0.030 0.325Q0.038 0.325 0.049 0.315Q0.060 0.304 0.074 0.304Q0.092 0.304 0.111 0.317Q0.131 0.330 0.147 0.345Q0.164 0.361 0.174 0.374Q0.185 0.387 0.185 0.388L0.344 0.266Q0.343 0.266 0.339 0.274Q0.334 0.281 0.329 0.312Q0.324 0.342 0.324 0.402V0.963Q0.324 0.966 0.335 0.964Q0.345 0.962 0.360 0.958Q0.375 0.953 0.393 0.947Q0.411 0.940 0.426 0.935Q0.442 0.929 0.452 0.925Q0.462 0.921 0.462 0.921Q0.458 0.921 0.455 0.902Q0.452 0.882 0.450 0.855Q0.448 0.829 0.446 0.800Q0.445 0.772 0.444 0.754Q0.444 0.736 0.444 0.735Q0.449 0.735 0.466 0.745Q0.483 0.755 0.506 0.767Q0.529 0.780 0.556 0.790Q0.583 0.800 0.609 0.800Q0.640 0.800 0.664 0.790Q0.687 0.781 0.708 0.766Q0.729 0.751 0.749 0.732Q0.769 0.714 0.793 0.695Q0.834 0.663 0.867 0.632Q0.899 0.600 0.922 0.567Q0.945 0.533 0.958 0.495Q0.970 0.457 0.970 0.410Q0.970 0.343 0.938 0.286Q0.906 0.228 0.857 0.187Q0.808 0.147 0.748 0.123Q0.689 0.100 0.634 0.100Q0.602 0.100 0.566 0.114Q0.531 0.128 0.494 0.149Q0.457 0.170 0.422 0.195Q0.388 0.219 0.360 0.241Q0.332 0.262 0.313 0.276Q0.293 0.290 0.288 0.290Q0.283 0.290 0.270 0.279Q0.256 0.268 0.238 0.255Q0.219 0.241 0.197 0.230Q0.175 0.218 0.152 0.218Q0.139 0.218 0.117 0.235Q0.096 0.251 0.075 0.272Q0.055 0.292 0.042 0.309Q0.028 0.325 0.030 0.325ZM0.445 0.601V0.219Q0.445 0.202 0.467 0.193Q0.489 0.183 0.523 0.183Q0.587 0.183 0.637 0.205Q0.687 0.226 0.721 0.252Q0.756 0.277 0.773 0.299Q0.791 0.320 0.791 0.320ZM0.832 0.385Q0.832 0.385 0.835 0.394Q0.839 0.403 0.843 0.418Q0.848 0.433 0.852 0.452Q0.856 0.471 0.856 0.491Q0.856 0.519 0.847 0.559Q0.838 0.598 0.820 0.634Q0.803 0.670 0.778 0.695Q0.753 0.720 0.720 0.720Q0.689 0.720 0.658 0.704Q0.627 0.688 0.602 0.668Q0.577 0.649 0.562 0.633Q0.546 0.616 0.546 0.616ZM0.444 0.679V0.621L0.801 0.332L0.825 0.370Z" fill="black"/>
</svg>
