<svg xmlns="http://www.w3.org/2000/svg" viewBox="0 0 1 1" preserveAspectRatio="xMidYMid meet">
  <path d="M0.000 0.464Q0.000 0.533 0.018 0.595Q0.044 0.656 0.084 0.701Q0.125 0.747 0.173 0.773Q0.222 0.800 0.267 0.800Q0.300 0.800 0.336 0.786Q0.372 0.773 0.403 0.757Q0.434 0.742 0.454 0.728Q0.474 0.715 0.475 0.715Q0.476 0.715 0.502 0.729Q0.529 0.743 0.569 0.764Q0.609 0.785 0.656 0.810Q0.702 0.834 0.742 0.855Q0.782 0.876 0.809 0.890Q0.836 0.904 0.837 0.904Q0.840 0.904 0.855 0.898Q0.869 0.892 0.888 0.883Q0.907 0.873 0.928 0.862Q0.949 0.851 0.967 0.841Q0.985 0.832 0.997 0.824Q1.000 0.817 1.000 0.815Q1.000 0.811 1.000 0.813Q0.991 0.815 0.980 0.820Q0.969 0.825 0.960 0.829Q0.950 0.834 0.948 0.834Q0.939 0.834 0.905 0.817Q0.870 0.801 0.824 0.775Q0.777 0.750 0.725 0.720Q0.673 0.691 0.629 0.666Q0.585 0.640 0.557 0.622Q0.528 0.604 0.528 0.603Q0.528 0.601 0.541 0.593Q0.553 0.584 0.573 0.570Q0.592 0.555 0.614 0.535Q0.636 0.514 0.656 0.488Q0.675 0.462 0.687 0.430Q0.700 0.398 0.700 0.360Q0.700 0.316 0.681 0.280Q0.662 0.244 0.634 0.216Q0.605 0.187 0.571 0.166Q0.537 0.145 0.508 0.131Q0.480 0.118 0.459 0.111Q0.439 0.104 0.437 0.104Q0.426 0.104 0.405 0.116Q0.384 0.129 0.363 0.144Q0.342 0.159 0.326 0.171Q0.310 0.183 0.310 0.183Q0.310 0.174 0.307 0.163Q0.304 0.151 0.300 0.139Q0.296 0.128 0.292 0.120Q0.288 0.112 0.287 0.112Q0.284 0.112 0.261 0.121Q0.238 0.131 0.205 0.150Q0.172 0.169 0.135 0.199Q0.098 0.228 0.066 0.267Q0.034 0.306 0.013 0.355Q0.000 0.405 0.000 0.464ZM0.167 0.579Q0.167 0.579 0.156 0.565Q0.144 0.550 0.129 0.526Q0.115 0.502 0.103 0.471Q0.091 0.439 0.091 0.403Q0.091 0.336 0.103 0.294Q0.116 0.252 0.131 0.228Q0.147 0.204 0.161 0.195Q0.175 0.186 0.179 0.186Q0.183 0.186 0.186 0.204Q0.189 0.222 0.191 0.244Q0.192 0.265 0.193 0.284Q0.194 0.303 0.194 0.306V0.479Q0.194 0.527 0.187 0.550Q0.180 0.572 0.174 0.576Q0.168 0.579 0.167 0.579ZM0.401 0.665Q0.401 0.666 0.409 0.672Q0.417 0.679 0.427 0.686Q0.437 0.693 0.445 0.698Q0.454 0.704 0.455 0.704Q0.455 0.704 0.444 0.711Q0.433 0.719 0.402 0.719Q0.354 0.719 0.312 0.698Q0.270 0.678 0.239 0.654Q0.208 0.629 0.191 0.609Q0.173 0.588 0.173 0.588Q0.173 0.588 0.195 0.575Q0.216 0.561 0.242 0.542Q0.267 0.522 0.289 0.500Q0.310 0.477 0.310 0.459V0.198Q0.310 0.190 0.315 0.187Q0.319 0.184 0.331 0.184Q0.340 0.184 0.362 0.191Q0.384 0.198 0.411 0.213Q0.439 0.227 0.468 0.249Q0.497 0.270 0.521 0.300Q0.545 0.329 0.561 0.366Q0.576 0.404 0.576 0.449Q0.576 0.466 0.575 0.486Q0.574 0.505 0.569 0.525Q0.563 0.545 0.553 0.563Q0.542 0.581 0.523 0.592Q0.473 0.622 0.445 0.639Q0.417 0.655 0.409 0.660Q0.402 0.665 0.401 0.665Z" fill="black"/>
</svg>
