<svg xmlns="http://www.w3.org/2000/svg" viewBox="0 0 1 1" preserveAspectRatio="xMidYMid meet">
  <path d="M0.490 0.231V0.492Q0.490 0.511 0.480 0.532Q0.470 0.553 0.458 0.571Q0.447 0.589 0.437 0.601Q0.427 0.612 0.427 0.612Q0.427 0.615 0.439 0.607Q0.452 0.598 0.471 0.582Q0.490 0.566 0.511 0.546Q0.532 0.525 0.551 0.503Q0.570 0.481 0.583 0.459Q0.595 0.438 0.595 0.421V0.197Q0.595 0.191 0.609 0.191Q0.632 0.191 0.666 0.201Q0.701 0.210 0.733 0.228Q0.765 0.245 0.788 0.271Q0.811 0.296 0.811 0.328Q0.811 0.368 0.796 0.394Q0.781 0.421 0.762 0.437Q0.744 0.454 0.729 0.461Q0.714 0.468 0.714 0.468Q0.712 0.468 0.705 0.465Q0.699 0.462 0.688 0.462Q0.666 0.462 0.639 0.475Q0.611 0.488 0.588 0.502Q0.565 0.517 0.552 0.530Q0.538 0.543 0.544 0.543Q0.546 0.543 0.556 0.536Q0.565 0.528 0.574 0.528Q0.587 0.528 0.608 0.548Q0.629 0.568 0.653 0.598Q0.677 0.628 0.701 0.663Q0.725 0.697 0.744 0.727Q0.764 0.758 0.776 0.778Q0.789 0.799 0.789 0.800Q0.789 0.802 0.811 0.789Q0.834 0.777 0.861 0.759Q0.888 0.742 0.911 0.726Q0.933 0.711 0.933 0.707Q0.933 0.704 0.930 0.705Q0.927 0.706 0.923 0.708Q0.918 0.711 0.912 0.713Q0.906 0.716 0.900 0.716Q0.899 0.716 0.888 0.698Q0.877 0.680 0.860 0.653Q0.843 0.626 0.823 0.595Q0.802 0.563 0.782 0.536Q0.763 0.509 0.746 0.492Q0.730 0.474 0.722 0.474Q0.724 0.473 0.744 0.461Q0.764 0.450 0.795 0.428Q0.827 0.406 0.857 0.379Q0.887 0.352 0.909 0.321Q0.930 0.289 0.930 0.259Q0.930 0.228 0.911 0.200Q0.891 0.171 0.864 0.150Q0.836 0.128 0.806 0.115Q0.775 0.102 0.752 0.102Q0.737 0.102 0.711 0.109Q0.686 0.117 0.657 0.129Q0.628 0.141 0.598 0.156Q0.568 0.170 0.544 0.185Q0.520 0.199 0.505 0.212Q0.490 0.224 0.490 0.231ZM0.339 0.630Q0.333 0.630 0.346 0.617Q0.360 0.604 0.378 0.585Q0.397 0.565 0.413 0.543Q0.430 0.520 0.430 0.500V0.252Q0.430 0.232 0.444 0.213Q0.459 0.194 0.476 0.180Q0.493 0.166 0.506 0.157Q0.519 0.148 0.518 0.148Q0.490 0.148 0.455 0.163Q0.421 0.178 0.391 0.197Q0.362 0.215 0.342 0.231Q0.323 0.246 0.323 0.246Q0.320 0.246 0.312 0.235Q0.304 0.223 0.293 0.209Q0.281 0.195 0.268 0.184Q0.255 0.172 0.242 0.172Q0.230 0.172 0.213 0.179Q0.195 0.186 0.175 0.198Q0.156 0.209 0.137 0.223Q0.118 0.236 0.102 0.249Q0.086 0.262 0.076 0.273Q0.067 0.284 0.067 0.289Q0.067 0.292 0.074 0.286Q0.081 0.279 0.092 0.271Q0.103 0.262 0.116 0.254Q0.129 0.246 0.141 0.246Q0.160 0.246 0.175 0.260Q0.190 0.274 0.201 0.291Q0.212 0.307 0.218 0.321Q0.223 0.334 0.223 0.334Q0.223 0.338 0.240 0.326Q0.256 0.313 0.276 0.297Q0.296 0.280 0.314 0.266Q0.332 0.251 0.335 0.251Q0.335 0.251 0.330 0.261Q0.324 0.271 0.324 0.294V0.588Q0.324 0.616 0.302 0.639Q0.279 0.662 0.253 0.678Q0.227 0.694 0.206 0.702Q0.185 0.711 0.188 0.711Q0.226 0.711 0.252 0.725Q0.278 0.739 0.298 0.755Q0.318 0.772 0.335 0.786Q0.353 0.800 0.373 0.800Q0.381 0.800 0.404 0.789Q0.427 0.778 0.452 0.764Q0.477 0.751 0.496 0.739Q0.514 0.728 0.514 0.726Q0.514 0.724 0.507 0.727Q0.500 0.730 0.495 0.730Q0.481 0.730 0.459 0.714Q0.438 0.699 0.415 0.680Q0.393 0.661 0.372 0.646Q0.352 0.630 0.339 0.630Z" fill="black"/>
</svg>
