<svg xmlns="http://www.w3.org/2000/svg" viewBox="0 0 1 1" preserveAspectRatio="xMidYMid meet">
  <path d="M0.170 0.748Q0.170 0.752 0.177 0.746Q0.183 0.740 0.195 0.731Q0.206 0.722 0.222 0.714Q0.237 0.706 0.254 0.706Q0.283 0.706 0.319 0.720Q0.355 0.735 0.391 0.753Q0.427 0.771 0.459 0.785Q0.491 0.800 0.510 0.800Q0.534 0.800 0.556 0.791Q0.578 0.782 0.600 0.766Q0.622 0.751 0.645 0.731Q0.668 0.712 0.695 0.691Q0.730 0.663 0.755 0.642Q0.781 0.620 0.797 0.601Q0.814 0.581 0.822 0.561Q0.830 0.540 0.830 0.514Q0.830 0.476 0.815 0.447Q0.800 0.418 0.777 0.397Q0.754 0.377 0.726 0.363Q0.699 0.350 0.675 0.342Q0.651 0.335 0.634 0.332Q0.617 0.329 0.614 0.329Q0.610 0.329 0.597 0.338Q0.583 0.348 0.568 0.359Q0.553 0.370 0.542 0.379Q0.530 0.389 0.530 0.389L0.543 0.237Q0.543 0.237 0.569 0.240Q0.595 0.243 0.642 0.243Q0.644 0.243 0.657 0.237Q0.670 0.230 0.687 0.220Q0.705 0.209 0.725 0.196Q0.745 0.183 0.761 0.171Q0.778 0.159 0.789 0.149Q0.800 0.139 0.800 0.133Q0.800 0.128 0.795 0.132Q0.790 0.136 0.779 0.143Q0.769 0.151 0.752 0.158Q0.736 0.165 0.714 0.165Q0.681 0.165 0.645 0.155Q0.609 0.145 0.578 0.133Q0.546 0.121 0.524 0.111Q0.501 0.101 0.497 0.101Q0.488 0.101 0.467 0.112Q0.446 0.124 0.419 0.143Q0.392 0.163 0.362 0.189Q0.333 0.216 0.309 0.247Q0.284 0.277 0.269 0.311Q0.253 0.344 0.253 0.376Q0.253 0.414 0.270 0.442Q0.287 0.471 0.309 0.490Q0.331 0.508 0.351 0.518Q0.372 0.527 0.379 0.527Q0.382 0.527 0.393 0.515Q0.405 0.503 0.417 0.490Q0.430 0.476 0.440 0.464Q0.451 0.452 0.451 0.452L0.436 0.634Q0.435 0.633 0.424 0.629Q0.414 0.625 0.394 0.620Q0.375 0.615 0.355 0.615Q0.317 0.615 0.284 0.635Q0.250 0.655 0.225 0.679Q0.200 0.704 0.185 0.725Q0.170 0.746 0.170 0.748ZM0.471 0.221 0.454 0.424Q0.454 0.424 0.439 0.413Q0.425 0.402 0.408 0.382Q0.391 0.362 0.376 0.333Q0.362 0.303 0.362 0.266Q0.362 0.232 0.370 0.215Q0.378 0.197 0.384 0.192Q0.391 0.187 0.392 0.187Q0.392 0.187 0.401 0.193Q0.411 0.198 0.424 0.204Q0.437 0.210 0.450 0.216Q0.464 0.221 0.471 0.221ZM0.529 0.234 0.492 0.663 0.450 0.641 0.486 0.225ZM0.721 0.607Q0.721 0.632 0.708 0.652Q0.696 0.672 0.680 0.686Q0.664 0.700 0.651 0.707Q0.637 0.715 0.636 0.715Q0.615 0.715 0.592 0.708Q0.569 0.701 0.550 0.692Q0.530 0.684 0.518 0.677Q0.505 0.670 0.505 0.670L0.528 0.413Q0.530 0.413 0.549 0.418Q0.567 0.424 0.596 0.438Q0.625 0.452 0.653 0.474Q0.681 0.496 0.701 0.529Q0.721 0.562 0.721 0.607Z" fill="black"/>
</svg>
