<svg xmlns="http://www.w3.org/2000/svg" viewBox="0 0 1 1" preserveAspectRatio="xMidYMid meet">
  <path d="M0.115 0.497Q0.117 0.497 0.135 0.481Q0.153 0.465 0.173 0.445Q0.193 0.426 0.209 0.410Q0.226 0.394 0.225 0.394Q0.218 0.394 0.211 0.380Q0.205 0.367 0.200 0.347Q0.196 0.327 0.194 0.304Q0.192 0.280 0.194 0.260Q0.197 0.240 0.204 0.227Q0.211 0.213 0.224 0.213H0.390Q0.389 0.214 0.380 0.224Q0.370 0.234 0.357 0.253Q0.344 0.271 0.338 0.290Q0.335 0.300 0.334 0.328Q0.332 0.356 0.331 0.393Q0.329 0.430 0.328 0.471Q0.326 0.512 0.324 0.549Q0.321 0.586 0.316 0.614Q0.310 0.641 0.302 0.650Q0.281 0.671 0.258 0.688Q0.236 0.706 0.217 0.720Q0.198 0.735 0.185 0.746Q0.173 0.757 0.173 0.766Q0.173 0.771 0.174 0.767Q0.175 0.764 0.183 0.758Q0.191 0.752 0.208 0.746Q0.226 0.740 0.258 0.740Q0.306 0.740 0.346 0.749Q0.386 0.759 0.422 0.770Q0.459 0.781 0.493 0.790Q0.527 0.800 0.563 0.800Q0.591 0.800 0.627 0.781Q0.662 0.762 0.692 0.738Q0.721 0.715 0.738 0.696Q0.756 0.677 0.750 0.677Q0.747 0.677 0.740 0.683Q0.733 0.689 0.723 0.696Q0.712 0.704 0.699 0.710Q0.685 0.716 0.669 0.716Q0.646 0.716 0.607 0.704Q0.569 0.693 0.524 0.679Q0.479 0.665 0.432 0.654Q0.385 0.642 0.345 0.642Q0.346 0.641 0.355 0.630Q0.363 0.618 0.377 0.598Q0.391 0.578 0.404 0.556Q0.418 0.533 0.427 0.510Q0.437 0.487 0.437 0.469V0.242Q0.437 0.225 0.445 0.217Q0.447 0.215 0.458 0.214Q0.470 0.213 0.483 0.213Q0.497 0.213 0.508 0.213Q0.519 0.213 0.519 0.213V0.500Q0.519 0.540 0.507 0.572Q0.496 0.604 0.486 0.619Q0.476 0.633 0.474 0.635Q0.474 0.635 0.496 0.619Q0.518 0.602 0.544 0.579Q0.570 0.555 0.591 0.530Q0.613 0.505 0.613 0.488V0.213Q0.613 0.213 0.637 0.214Q0.660 0.215 0.693 0.213Q0.725 0.211 0.759 0.205Q0.794 0.199 0.817 0.185Q0.833 0.175 0.854 0.157Q0.875 0.139 0.891 0.122Q0.907 0.105 0.914 0.095Q0.921 0.085 0.909 0.091Q0.896 0.098 0.855 0.100Q0.815 0.102 0.753 0.102H0.329Q0.304 0.102 0.285 0.111Q0.265 0.121 0.248 0.137Q0.232 0.153 0.215 0.173Q0.198 0.194 0.178 0.218Q0.160 0.239 0.143 0.257Q0.126 0.274 0.112 0.294Q0.099 0.313 0.091 0.338Q0.083 0.363 0.083 0.398Q0.083 0.410 0.085 0.426Q0.087 0.443 0.091 0.459Q0.095 0.475 0.101 0.486Q0.107 0.497 0.115 0.497Z" fill="black"/>
</svg>
