<svg xmlns="http://www.w3.org/2000/svg" viewBox="0 0 1 1" preserveAspectRatio="xMidYMid meet">
  <path d="M0.034 0.297Q0.034 0.300 0.046 0.291Q0.057 0.282 0.074 0.271Q0.090 0.259 0.109 0.249Q0.127 0.239 0.140 0.239Q0.167 0.239 0.203 0.265Q0.240 0.290 0.273 0.330Q0.307 0.369 0.330 0.418Q0.352 0.467 0.352 0.513Q0.352 0.540 0.339 0.568Q0.326 0.596 0.309 0.619Q0.293 0.641 0.279 0.656Q0.266 0.670 0.266 0.670L0.788 0.276Q0.789 0.277 0.795 0.287Q0.801 0.296 0.809 0.309Q0.816 0.322 0.816 0.327L0.299 0.717Q0.301 0.716 0.313 0.710Q0.325 0.704 0.341 0.696Q0.358 0.689 0.368 0.689Q0.407 0.689 0.440 0.706Q0.473 0.724 0.499 0.744Q0.524 0.765 0.539 0.782Q0.554 0.800 0.557 0.800Q0.558 0.800 0.589 0.783Q0.620 0.767 0.665 0.736Q0.710 0.706 0.763 0.664Q0.816 0.621 0.861 0.570Q0.906 0.518 0.936 0.459Q0.966 0.400 0.966 0.337Q0.966 0.261 0.934 0.215Q0.903 0.168 0.857 0.143Q0.811 0.118 0.760 0.109Q0.709 0.101 0.670 0.101Q0.648 0.101 0.613 0.116Q0.579 0.132 0.544 0.153Q0.509 0.174 0.477 0.197Q0.445 0.220 0.427 0.235Q0.408 0.249 0.407 0.250Q0.407 0.250 0.393 0.234Q0.379 0.218 0.356 0.199Q0.333 0.180 0.302 0.165Q0.271 0.149 0.238 0.149Q0.225 0.149 0.205 0.159Q0.186 0.169 0.163 0.186Q0.140 0.202 0.117 0.221Q0.094 0.240 0.076 0.257Q0.057 0.273 0.046 0.285Q0.034 0.296 0.034 0.297ZM0.662 0.725Q0.651 0.725 0.637 0.705Q0.624 0.686 0.603 0.662Q0.583 0.638 0.553 0.619Q0.523 0.599 0.481 0.599L0.821 0.343Q0.821 0.343 0.824 0.353Q0.826 0.364 0.826 0.384Q0.826 0.452 0.803 0.513Q0.780 0.575 0.751 0.622Q0.722 0.669 0.696 0.697Q0.669 0.725 0.662 0.725ZM0.574 0.199Q0.631 0.199 0.669 0.209Q0.707 0.219 0.731 0.232Q0.755 0.244 0.766 0.254Q0.776 0.264 0.776 0.264L0.402 0.546Q0.402 0.546 0.409 0.532Q0.416 0.517 0.425 0.496Q0.434 0.474 0.441 0.448Q0.448 0.423 0.448 0.401Q0.448 0.373 0.443 0.347Q0.437 0.321 0.431 0.302Q0.425 0.283 0.420 0.272Q0.414 0.260 0.414 0.260Q0.414 0.260 0.424 0.251Q0.434 0.241 0.454 0.230Q0.474 0.218 0.504 0.209Q0.534 0.199 0.574 0.199Z" fill="black"/>
</svg>
