<svg xmlns="http://www.w3.org/2000/svg" viewBox="0 0 1 1" preserveAspectRatio="xMidYMid meet">
  <path d="M0.000 0.210Q0.000 0.210 0.000 0.209Q0.000 0.207 0.008 0.207Q0.025 0.207 0.046 0.213Q0.067 0.218 0.085 0.225Q0.103 0.232 0.116 0.239Q0.128 0.245 0.128 0.247V0.642Q0.128 0.653 0.119 0.665Q0.109 0.677 0.097 0.687Q0.085 0.697 0.076 0.704Q0.066 0.711 0.066 0.712Q0.066 0.714 0.082 0.712Q0.098 0.710 0.112 0.710Q0.143 0.710 0.172 0.724Q0.200 0.738 0.224 0.755Q0.248 0.772 0.265 0.786Q0.283 0.800 0.294 0.800Q0.296 0.800 0.312 0.789Q0.328 0.779 0.345 0.767Q0.363 0.755 0.378 0.744Q0.392 0.734 0.392 0.734L0.861 0.368Q0.862 0.369 0.865 0.376Q0.869 0.384 0.873 0.393Q0.877 0.403 0.877 0.404L0.583 0.633Q0.583 0.633 0.567 0.648Q0.552 0.662 0.533 0.680Q0.514 0.699 0.499 0.716Q0.483 0.734 0.483 0.740Q0.483 0.743 0.488 0.739Q0.492 0.736 0.500 0.731Q0.508 0.726 0.519 0.721Q0.531 0.717 0.545 0.717Q0.574 0.717 0.601 0.730Q0.628 0.743 0.651 0.759Q0.675 0.775 0.694 0.788Q0.713 0.801 0.727 0.801Q0.735 0.801 0.759 0.784Q0.783 0.768 0.815 0.739Q0.847 0.711 0.882 0.673Q0.917 0.635 0.946 0.593Q0.976 0.550 0.995 0.506Q1.000 0.462 1.000 0.420Q1.000 0.370 0.996 0.325Q0.979 0.280 0.952 0.242Q0.926 0.204 0.894 0.174Q0.863 0.144 0.834 0.122Q0.805 0.101 0.784 0.089Q0.762 0.078 0.756 0.078Q0.748 0.078 0.724 0.093Q0.700 0.108 0.672 0.128Q0.643 0.148 0.613 0.169Q0.584 0.191 0.566 0.205Q0.548 0.218 0.547 0.219V0.165Q0.547 0.163 0.531 0.154Q0.516 0.145 0.497 0.135Q0.477 0.125 0.458 0.117Q0.439 0.109 0.432 0.109Q0.421 0.109 0.400 0.122Q0.378 0.135 0.354 0.153Q0.331 0.170 0.308 0.190Q0.285 0.209 0.271 0.221Q0.258 0.233 0.257 0.234V0.168Q0.257 0.167 0.243 0.158Q0.230 0.149 0.210 0.139Q0.190 0.130 0.167 0.122Q0.143 0.114 0.123 0.114Q0.106 0.114 0.083 0.129Q0.059 0.144 0.037 0.162Q0.015 0.180 0.001 0.195Q0.000 0.210 0.000 0.210ZM0.398 0.704Q0.392 0.704 0.377 0.690Q0.361 0.677 0.336 0.661Q0.311 0.645 0.275 0.632Q0.239 0.618 0.193 0.618Q0.188 0.618 0.197 0.610Q0.207 0.601 0.220 0.587Q0.233 0.573 0.245 0.555Q0.257 0.536 0.257 0.516V0.251Q0.258 0.249 0.267 0.239Q0.277 0.228 0.292 0.216Q0.307 0.204 0.320 0.204Q0.328 0.204 0.344 0.211Q0.361 0.217 0.379 0.226Q0.396 0.234 0.409 0.242Q0.422 0.249 0.422 0.251V0.662Q0.422 0.674 0.415 0.689Q0.407 0.704 0.398 0.704ZM0.520 0.613Q0.521 0.612 0.527 0.605Q0.533 0.598 0.540 0.583Q0.547 0.567 0.547 0.549V0.232Q0.547 0.232 0.559 0.224Q0.571 0.216 0.585 0.207Q0.600 0.198 0.613 0.190Q0.627 0.182 0.630 0.182Q0.649 0.182 0.673 0.195Q0.696 0.207 0.721 0.226Q0.745 0.244 0.769 0.266Q0.792 0.287 0.811 0.307Q0.829 0.326 0.840 0.339Q0.851 0.353 0.851 0.355ZM0.835 0.700Q0.826 0.700 0.807 0.689Q0.787 0.678 0.761 0.665Q0.735 0.651 0.705 0.640Q0.676 0.629 0.646 0.629Q0.634 0.629 0.619 0.633Q0.604 0.637 0.604 0.637L0.883 0.419Q0.883 0.419 0.888 0.436Q0.894 0.454 0.894 0.477Q0.894 0.508 0.889 0.547Q0.884 0.586 0.875 0.620Q0.867 0.654 0.856 0.677Q0.846 0.700 0.835 0.700Z" fill="black"/>
</svg>
