<svg xmlns="http://www.w3.org/2000/svg" viewBox="0 0 1 1" preserveAspectRatio="xMidYMid meet">
  <path d="M0.424 0.484Q0.426 0.535 0.408 0.583Q0.389 0.631 0.359 0.673Q0.330 0.715 0.295 0.749Q0.260 0.783 0.230 0.807Q0.200 0.831 0.180 0.844Q0.160 0.857 0.162 0.857Q0.165 0.857 0.181 0.853Q0.197 0.849 0.225 0.835Q0.253 0.821 0.292 0.794Q0.331 0.767 0.380 0.721Q0.399 0.703 0.420 0.673Q0.441 0.644 0.458 0.616Q0.474 0.587 0.485 0.566Q0.496 0.545 0.496 0.545Q0.496 0.588 0.517 0.634Q0.539 0.679 0.566 0.716Q0.593 0.753 0.616 0.776Q0.640 0.800 0.645 0.800Q0.698 0.800 0.738 0.794Q0.777 0.789 0.801 0.782Q0.825 0.775 0.834 0.769Q0.842 0.764 0.835 0.764Q0.820 0.764 0.794 0.752Q0.767 0.740 0.736 0.719Q0.704 0.699 0.671 0.671Q0.639 0.644 0.612 0.613Q0.585 0.582 0.566 0.549Q0.548 0.515 0.546 0.484Q0.546 0.484 0.562 0.483Q0.579 0.482 0.598 0.481Q0.618 0.481 0.634 0.480Q0.651 0.479 0.652 0.479Q0.661 0.479 0.671 0.467Q0.681 0.455 0.691 0.439Q0.701 0.424 0.708 0.408Q0.714 0.393 0.714 0.386Q0.714 0.383 0.710 0.384Q0.706 0.386 0.694 0.388Q0.682 0.391 0.661 0.394Q0.640 0.397 0.604 0.397Q0.578 0.397 0.559 0.396Q0.540 0.395 0.540 0.395Q0.537 0.359 0.544 0.324Q0.551 0.289 0.561 0.262Q0.571 0.234 0.581 0.217Q0.592 0.200 0.597 0.200Q0.604 0.200 0.614 0.207Q0.625 0.214 0.635 0.223Q0.646 0.232 0.655 0.239Q0.665 0.246 0.670 0.246Q0.671 0.246 0.687 0.236Q0.703 0.226 0.722 0.214Q0.740 0.201 0.755 0.190Q0.769 0.178 0.769 0.175Q0.769 0.173 0.756 0.159Q0.742 0.145 0.724 0.128Q0.706 0.111 0.689 0.097Q0.671 0.083 0.664 0.083Q0.646 0.083 0.624 0.109Q0.603 0.135 0.583 0.170Q0.564 0.205 0.547 0.243Q0.530 0.280 0.520 0.304Q0.511 0.328 0.510 0.330Q0.510 0.330 0.508 0.315Q0.506 0.300 0.503 0.280Q0.499 0.259 0.493 0.238Q0.487 0.216 0.480 0.202Q0.472 0.187 0.460 0.171Q0.448 0.155 0.436 0.142Q0.423 0.129 0.412 0.120Q0.401 0.112 0.395 0.112Q0.389 0.112 0.375 0.118Q0.361 0.125 0.343 0.135Q0.325 0.145 0.305 0.156Q0.286 0.167 0.269 0.178Q0.253 0.188 0.242 0.195Q0.232 0.202 0.232 0.203Q0.232 0.207 0.239 0.201Q0.246 0.195 0.266 0.195Q0.292 0.195 0.314 0.216Q0.337 0.237 0.353 0.266Q0.370 0.294 0.383 0.325Q0.396 0.355 0.402 0.374Q0.408 0.393 0.408 0.395Q0.406 0.395 0.396 0.394Q0.385 0.394 0.370 0.393Q0.354 0.393 0.345 0.393Q0.327 0.393 0.308 0.409Q0.289 0.425 0.273 0.444Q0.258 0.463 0.248 0.479Q0.238 0.495 0.238 0.495Q0.239 0.494 0.245 0.491Q0.252 0.488 0.277 0.484Q0.303 0.481 0.350 0.481Q0.382 0.481 0.403 0.482Q0.424 0.483 0.424 0.484Z" fill="black"/>
</svg>
