<svg xmlns="http://www.w3.org/2000/svg" viewBox="0 0 1 1" preserveAspectRatio="xMidYMid meet">
  <path d="M0.292 0.245V0.626Q0.292 0.642 0.280 0.658Q0.268 0.673 0.254 0.685Q0.240 0.698 0.230 0.705Q0.220 0.713 0.224 0.713Q0.250 0.713 0.274 0.718Q0.299 0.723 0.318 0.728Q0.338 0.734 0.349 0.739Q0.361 0.744 0.361 0.744Q0.361 0.744 0.343 0.758Q0.326 0.772 0.299 0.793Q0.273 0.814 0.243 0.837Q0.213 0.861 0.189 0.882Q0.164 0.903 0.149 0.917Q0.134 0.931 0.139 0.931Q0.142 0.931 0.155 0.925Q0.167 0.918 0.199 0.918Q0.236 0.918 0.277 0.930Q0.318 0.941 0.353 0.956Q0.388 0.970 0.413 0.982Q0.438 0.993 0.443 0.993Q0.449 0.993 0.479 0.978Q0.509 0.963 0.550 0.939Q0.592 0.915 0.638 0.884Q0.684 0.853 0.722 0.821Q0.761 0.789 0.787 0.757Q0.812 0.726 0.812 0.701Q0.812 0.671 0.801 0.648Q0.790 0.624 0.777 0.589Q0.763 0.554 0.752 0.499Q0.741 0.444 0.741 0.350Q0.741 0.291 0.750 0.251Q0.759 0.210 0.773 0.184Q0.786 0.158 0.802 0.143Q0.817 0.129 0.831 0.121Q0.844 0.113 0.853 0.110Q0.862 0.107 0.862 0.103Q0.862 0.102 0.853 0.105Q0.843 0.109 0.827 0.113Q0.810 0.117 0.788 0.120Q0.765 0.124 0.739 0.124Q0.698 0.124 0.666 0.120Q0.634 0.116 0.611 0.111Q0.589 0.106 0.575 0.102Q0.561 0.098 0.554 0.098Q0.549 0.098 0.534 0.108Q0.518 0.119 0.500 0.133Q0.481 0.148 0.463 0.163Q0.444 0.178 0.433 0.188Q0.422 0.197 0.421 0.198V0.170Q0.421 0.164 0.405 0.152Q0.389 0.141 0.369 0.130Q0.349 0.120 0.330 0.112Q0.311 0.105 0.306 0.105Q0.292 0.105 0.270 0.119Q0.249 0.134 0.229 0.152Q0.209 0.169 0.195 0.184Q0.180 0.198 0.181 0.198Q0.182 0.198 0.186 0.196Q0.189 0.194 0.197 0.194Q0.209 0.194 0.225 0.201Q0.242 0.207 0.256 0.216Q0.271 0.224 0.281 0.233Q0.292 0.241 0.292 0.245ZM0.551 0.900Q0.547 0.900 0.523 0.889Q0.499 0.878 0.464 0.865Q0.429 0.851 0.388 0.840Q0.347 0.830 0.309 0.830Q0.291 0.830 0.283 0.833Q0.275 0.835 0.271 0.835Q0.268 0.835 0.283 0.822Q0.299 0.809 0.319 0.792Q0.339 0.776 0.356 0.762Q0.373 0.748 0.373 0.748Q0.373 0.748 0.386 0.754Q0.399 0.760 0.417 0.767Q0.435 0.775 0.453 0.781Q0.470 0.787 0.478 0.787Q0.490 0.787 0.519 0.772Q0.548 0.757 0.578 0.738Q0.609 0.720 0.632 0.705Q0.655 0.690 0.655 0.690Q0.655 0.690 0.659 0.700Q0.664 0.711 0.670 0.727Q0.676 0.744 0.680 0.764Q0.685 0.784 0.685 0.804Q0.685 0.822 0.667 0.838Q0.650 0.855 0.627 0.869Q0.604 0.883 0.582 0.892Q0.560 0.900 0.551 0.900ZM0.343 0.621 0.624 0.423Q0.624 0.423 0.622 0.439Q0.621 0.456 0.621 0.492Q0.621 0.530 0.625 0.564Q0.630 0.597 0.636 0.622Q0.642 0.647 0.646 0.662Q0.651 0.676 0.651 0.676Q0.649 0.677 0.639 0.683Q0.630 0.690 0.615 0.697Q0.601 0.705 0.594 0.705Q0.592 0.705 0.576 0.699Q0.561 0.693 0.538 0.683Q0.515 0.674 0.487 0.663Q0.459 0.652 0.432 0.643Q0.404 0.633 0.380 0.627Q0.357 0.621 0.343 0.621ZM0.640 0.326 0.421 0.480V0.215Q0.421 0.214 0.425 0.210Q0.429 0.206 0.435 0.202Q0.441 0.197 0.449 0.193Q0.456 0.189 0.462 0.189Q0.465 0.189 0.472 0.191Q0.478 0.193 0.491 0.196Q0.503 0.199 0.523 0.201Q0.543 0.203 0.572 0.203H0.709Q0.709 0.203 0.701 0.210Q0.693 0.217 0.682 0.232Q0.671 0.247 0.659 0.271Q0.647 0.294 0.640 0.326ZM0.419 0.500 0.634 0.349Q0.634 0.350 0.632 0.359Q0.631 0.368 0.628 0.382Q0.626 0.396 0.625 0.405L0.395 0.565Q0.396 0.564 0.402 0.556Q0.407 0.547 0.413 0.532Q0.419 0.516 0.419 0.500Z" fill="black"/>
</svg>
