<svg xmlns="http://www.w3.org/2000/svg" viewBox="0 0 1 1" preserveAspectRatio="xMidYMid meet">
  <path d="M0.113 0.299Q0.113 0.328 0.117 0.346Q0.121 0.364 0.126 0.374Q0.131 0.385 0.136 0.388Q0.141 0.392 0.143 0.392Q0.150 0.392 0.168 0.379Q0.187 0.366 0.207 0.350Q0.227 0.334 0.243 0.320Q0.258 0.305 0.258 0.303Q0.258 0.302 0.252 0.293Q0.245 0.283 0.237 0.270Q0.229 0.256 0.223 0.241Q0.216 0.225 0.216 0.212Q0.216 0.203 0.221 0.203Q0.225 0.202 0.240 0.202Q0.255 0.202 0.278 0.203Q0.301 0.204 0.329 0.206Q0.356 0.207 0.386 0.208Q0.416 0.209 0.446 0.209Q0.508 0.209 0.544 0.202Q0.579 0.194 0.590 0.188Q0.600 0.181 0.601 0.180L0.446 0.368Q0.440 0.368 0.433 0.363Q0.426 0.359 0.420 0.354Q0.414 0.349 0.409 0.344Q0.404 0.340 0.401 0.340Q0.394 0.340 0.373 0.352Q0.353 0.365 0.331 0.380Q0.309 0.395 0.292 0.407Q0.275 0.420 0.275 0.421Q0.276 0.422 0.285 0.430Q0.293 0.438 0.311 0.447Q0.328 0.457 0.348 0.457Q0.362 0.457 0.367 0.455Q0.373 0.453 0.373 0.453Q0.373 0.453 0.358 0.470Q0.344 0.487 0.322 0.513Q0.299 0.539 0.272 0.572Q0.245 0.604 0.221 0.635Q0.197 0.665 0.179 0.690Q0.161 0.716 0.155 0.728Q0.149 0.741 0.168 0.722Q0.187 0.703 0.223 0.663Q0.259 0.622 0.308 0.566Q0.356 0.509 0.408 0.448Q0.460 0.387 0.510 0.327Q0.561 0.266 0.602 0.217Q0.643 0.167 0.670 0.135Q0.697 0.102 0.701 0.097Q0.706 0.090 0.697 0.093Q0.688 0.096 0.671 0.102Q0.655 0.109 0.635 0.115Q0.615 0.122 0.600 0.122Q0.590 0.122 0.567 0.120Q0.544 0.119 0.515 0.117Q0.487 0.116 0.455 0.113Q0.424 0.111 0.396 0.109Q0.369 0.108 0.348 0.106Q0.328 0.105 0.322 0.105Q0.316 0.105 0.299 0.116Q0.281 0.127 0.258 0.144Q0.234 0.161 0.209 0.182Q0.183 0.204 0.162 0.226Q0.141 0.247 0.127 0.267Q0.113 0.286 0.113 0.299ZM0.184 0.755Q0.181 0.759 0.187 0.755Q0.193 0.751 0.204 0.745Q0.214 0.739 0.228 0.733Q0.241 0.727 0.252 0.727Q0.280 0.727 0.324 0.738Q0.368 0.750 0.414 0.763Q0.461 0.777 0.503 0.788Q0.545 0.800 0.570 0.800Q0.605 0.800 0.643 0.786Q0.680 0.773 0.715 0.753Q0.751 0.733 0.782 0.709Q0.814 0.685 0.837 0.665Q0.860 0.645 0.874 0.631Q0.887 0.617 0.887 0.616Q0.887 0.610 0.876 0.596Q0.864 0.581 0.849 0.566Q0.834 0.551 0.821 0.540Q0.807 0.528 0.802 0.528Q0.795 0.528 0.775 0.539Q0.755 0.549 0.734 0.563Q0.713 0.576 0.696 0.588Q0.680 0.600 0.680 0.602Q0.680 0.603 0.693 0.615Q0.706 0.627 0.721 0.643Q0.736 0.659 0.749 0.676Q0.762 0.693 0.762 0.705Q0.762 0.710 0.755 0.714Q0.748 0.718 0.738 0.718Q0.720 0.718 0.691 0.711Q0.663 0.705 0.630 0.695Q0.596 0.686 0.561 0.674Q0.526 0.663 0.496 0.654Q0.466 0.644 0.444 0.638Q0.422 0.631 0.415 0.631Q0.363 0.631 0.341 0.637Q0.319 0.643 0.319 0.643L0.431 0.503Q0.431 0.503 0.439 0.503Q0.448 0.502 0.453 0.502Q0.456 0.502 0.462 0.505Q0.468 0.507 0.474 0.510Q0.480 0.513 0.484 0.517Q0.489 0.520 0.489 0.521Q0.489 0.523 0.505 0.510Q0.521 0.497 0.541 0.480Q0.561 0.464 0.578 0.449Q0.594 0.435 0.594 0.433Q0.594 0.429 0.586 0.423Q0.578 0.417 0.567 0.411Q0.556 0.405 0.543 0.401Q0.530 0.397 0.521 0.397Q0.521 0.397 0.540 0.375Q0.559 0.354 0.587 0.322Q0.614 0.289 0.645 0.252Q0.676 0.214 0.700 0.183Q0.724 0.152 0.736 0.131Q0.749 0.111 0.740 0.114Q0.735 0.116 0.712 0.140Q0.689 0.164 0.656 0.202Q0.622 0.241 0.581 0.291Q0.539 0.341 0.497 0.393Q0.455 0.445 0.414 0.495Q0.373 0.544 0.340 0.585Q0.308 0.625 0.287 0.651Q0.265 0.677 0.262 0.681Q0.255 0.689 0.250 0.693Q0.244 0.698 0.236 0.704Q0.228 0.710 0.216 0.721Q0.203 0.733 0.184 0.755Z" fill="black"/>
</svg>
