<svg xmlns="http://www.w3.org/2000/svg" viewBox="0 0 1 1" preserveAspectRatio="xMidYMid meet">
  <path d="M0.550 0.190Q0.555 0.190 0.567 0.176Q0.580 0.162 0.595 0.142Q0.610 0.122 0.625 0.101Q0.640 0.080 0.648 0.066Q0.657 0.053 0.658 0.052H0.462Q0.453 0.052 0.433 0.063Q0.413 0.075 0.393 0.093Q0.372 0.112 0.357 0.134Q0.342 0.157 0.342 0.177V0.800Q0.342 0.800 0.363 0.800Q0.385 0.800 0.415 0.800Q0.445 0.800 0.476 0.800Q0.508 0.800 0.528 0.800Q0.548 0.800 0.550 0.800Q0.556 0.800 0.574 0.778Q0.592 0.756 0.610 0.729Q0.629 0.703 0.643 0.681Q0.658 0.659 0.658 0.659H0.483V0.192Q0.483 0.190 0.494 0.190Q0.504 0.189 0.516 0.189Q0.529 0.189 0.539 0.190Q0.550 0.190 0.550 0.190Z" fill="black"/>
</svg>
