<svg xmlns="http://www.w3.org/2000/svg" viewBox="0 0 1 1" preserveAspectRatio="xMidYMid meet">
  <path d="M0.730 0.800Q0.732 0.803 0.733 0.790Q0.734 0.778 0.733 0.759Q0.732 0.740 0.730 0.720Q0.728 0.700 0.724 0.688Q0.722 0.681 0.701 0.651Q0.680 0.621 0.648 0.577Q0.617 0.533 0.577 0.480Q0.537 0.427 0.496 0.373Q0.454 0.319 0.415 0.269Q0.376 0.218 0.345 0.180Q0.314 0.142 0.295 0.120Q0.277 0.098 0.277 0.102Q0.276 0.101 0.273 0.114Q0.271 0.128 0.269 0.148Q0.267 0.167 0.267 0.189Q0.267 0.211 0.273 0.227Q0.275 0.234 0.296 0.263Q0.317 0.291 0.349 0.333Q0.382 0.375 0.422 0.427Q0.463 0.479 0.506 0.531Q0.548 0.583 0.588 0.633Q0.629 0.682 0.660 0.720Q0.692 0.758 0.711 0.780Q0.730 0.802 0.730 0.800Z" fill="black"/>
</svg>
