<svg xmlns="http://www.w3.org/2000/svg" viewBox="0 0 1 1" preserveAspectRatio="xMidYMid meet">
  <path d="M0.450 0.661Q0.445 0.661 0.433 0.675Q0.420 0.690 0.405 0.710Q0.390 0.730 0.375 0.751Q0.360 0.772 0.352 0.785Q0.343 0.799 0.342 0.800H0.538Q0.547 0.800 0.567 0.788Q0.587 0.777 0.607 0.758Q0.628 0.740 0.643 0.717Q0.658 0.695 0.658 0.674V0.052Q0.658 0.052 0.636 0.052Q0.615 0.052 0.585 0.052Q0.555 0.052 0.523 0.052Q0.492 0.052 0.472 0.052Q0.452 0.052 0.450 0.052Q0.444 0.052 0.426 0.074Q0.408 0.096 0.390 0.122Q0.371 0.149 0.357 0.170Q0.342 0.192 0.342 0.192H0.517V0.659Q0.517 0.661 0.506 0.662Q0.496 0.662 0.483 0.662Q0.471 0.662 0.461 0.662Q0.450 0.661 0.450 0.661Z" fill="black"/>
</svg>
