<svg xmlns="http://www.w3.org/2000/svg" viewBox="0 0 1 1" preserveAspectRatio="xMidYMid meet">
  <path d="M0.238 0.296Q0.238 0.302 0.253 0.296Q0.267 0.290 0.289 0.279Q0.311 0.267 0.338 0.252Q0.365 0.237 0.390 0.224Q0.415 0.210 0.435 0.201Q0.455 0.191 0.463 0.191Q0.481 0.191 0.511 0.208Q0.542 0.225 0.574 0.246Q0.606 0.267 0.631 0.284Q0.656 0.301 0.662 0.301Q0.666 0.301 0.682 0.289Q0.699 0.277 0.716 0.261Q0.734 0.245 0.748 0.231Q0.762 0.216 0.762 0.211Q0.762 0.209 0.748 0.200Q0.734 0.190 0.712 0.178Q0.690 0.167 0.664 0.153Q0.638 0.140 0.615 0.128Q0.592 0.117 0.575 0.109Q0.557 0.102 0.552 0.102Q0.548 0.102 0.523 0.115Q0.499 0.129 0.464 0.150Q0.429 0.170 0.389 0.194Q0.350 0.218 0.316 0.240Q0.282 0.262 0.260 0.278Q0.238 0.293 0.238 0.296Z" fill="black"/>
</svg>
