<svg xmlns="http://www.w3.org/2000/svg" viewBox="0 0 1 1" preserveAspectRatio="xMidYMid meet">
  <path d="M0.431 0.229Q0.431 0.235 0.438 0.242Q0.445 0.248 0.454 0.254Q0.463 0.259 0.472 0.263Q0.480 0.266 0.484 0.266Q0.485 0.266 0.499 0.259Q0.512 0.251 0.528 0.242Q0.544 0.232 0.556 0.224Q0.569 0.216 0.569 0.215Q0.569 0.212 0.562 0.206Q0.555 0.200 0.546 0.194Q0.538 0.187 0.530 0.182Q0.522 0.177 0.519 0.177Q0.512 0.177 0.498 0.185Q0.483 0.193 0.468 0.203Q0.453 0.212 0.442 0.220Q0.431 0.228 0.431 0.229Z" fill="black"/>
</svg>
