<svg xmlns="http://www.w3.org/2000/svg" viewBox="0 0 1 1" preserveAspectRatio="xMidYMid meet">
  <path d="M0.262 0.660Q0.262 0.690 0.283 0.716Q0.303 0.742 0.330 0.760Q0.356 0.779 0.380 0.789Q0.404 0.800 0.411 0.800Q0.422 0.800 0.440 0.793Q0.459 0.787 0.481 0.776Q0.503 0.766 0.527 0.752Q0.551 0.739 0.574 0.726Q0.593 0.715 0.622 0.699Q0.651 0.683 0.678 0.659Q0.706 0.634 0.725 0.600Q0.745 0.565 0.745 0.518Q0.745 0.474 0.722 0.437Q0.700 0.400 0.669 0.373Q0.638 0.346 0.605 0.328Q0.572 0.309 0.552 0.301Q0.531 0.293 0.529 0.292Q0.520 0.292 0.500 0.305Q0.479 0.317 0.457 0.333Q0.436 0.348 0.419 0.360Q0.403 0.373 0.403 0.373V0.197Q0.403 0.194 0.403 0.186Q0.403 0.178 0.401 0.170Q0.400 0.163 0.396 0.157Q0.393 0.151 0.387 0.151Q0.366 0.151 0.342 0.157Q0.319 0.163 0.300 0.169Q0.280 0.175 0.268 0.181Q0.255 0.187 0.255 0.187Q0.255 0.189 0.257 0.199Q0.258 0.209 0.260 0.224Q0.262 0.239 0.262 0.248ZM0.608 0.609Q0.608 0.673 0.585 0.702Q0.561 0.732 0.526 0.732Q0.500 0.732 0.477 0.711Q0.455 0.691 0.438 0.666Q0.422 0.641 0.412 0.619Q0.403 0.597 0.403 0.593V0.383Q0.403 0.383 0.408 0.381Q0.413 0.380 0.418 0.380Q0.424 0.380 0.440 0.385Q0.457 0.391 0.478 0.403Q0.500 0.415 0.522 0.433Q0.545 0.451 0.564 0.477Q0.583 0.502 0.596 0.535Q0.608 0.568 0.608 0.609Z" fill="black"/>
</svg>
