<svg xmlns="http://www.w3.org/2000/svg" viewBox="0 0 1 1" preserveAspectRatio="xMidYMid meet">
  <path d="M0.471 0.800Q0.475 0.800 0.488 0.794Q0.501 0.788 0.519 0.779Q0.536 0.770 0.555 0.759Q0.574 0.748 0.590 0.739Q0.605 0.730 0.615 0.724Q0.624 0.718 0.622 0.718Q0.620 0.718 0.615 0.719Q0.610 0.721 0.605 0.721Q0.588 0.721 0.559 0.705Q0.529 0.689 0.501 0.657Q0.473 0.625 0.452 0.579Q0.432 0.532 0.432 0.471Q0.432 0.462 0.433 0.445Q0.435 0.428 0.438 0.410Q0.441 0.393 0.446 0.380Q0.451 0.367 0.457 0.367Q0.458 0.367 0.466 0.374Q0.475 0.381 0.487 0.391Q0.499 0.401 0.513 0.413Q0.527 0.426 0.540 0.436Q0.553 0.446 0.564 0.453Q0.574 0.460 0.578 0.460Q0.581 0.460 0.601 0.449Q0.621 0.438 0.644 0.424Q0.667 0.411 0.686 0.398Q0.705 0.386 0.705 0.383Q0.705 0.380 0.685 0.367Q0.666 0.354 0.642 0.339Q0.618 0.324 0.596 0.313Q0.574 0.301 0.570 0.301Q0.569 0.301 0.549 0.307Q0.528 0.313 0.498 0.326Q0.468 0.338 0.432 0.358Q0.397 0.378 0.366 0.406Q0.336 0.435 0.316 0.472Q0.295 0.509 0.295 0.557Q0.295 0.610 0.317 0.655Q0.338 0.699 0.367 0.731Q0.397 0.764 0.426 0.782Q0.456 0.800 0.471 0.800Z" fill="black"/>
</svg>
