<svg xmlns="http://www.w3.org/2000/svg" viewBox="0 0 1 1" preserveAspectRatio="xMidYMid meet">
  <path d="M0.434 0.802Q0.440 0.802 0.455 0.795Q0.469 0.789 0.488 0.778Q0.507 0.768 0.527 0.754Q0.547 0.741 0.564 0.728Q0.608 0.694 0.643 0.666Q0.678 0.639 0.703 0.613Q0.728 0.586 0.742 0.559Q0.755 0.531 0.755 0.499Q0.755 0.458 0.735 0.420Q0.714 0.382 0.683 0.348Q0.652 0.315 0.616 0.286Q0.580 0.257 0.548 0.233Q0.517 0.208 0.497 0.189Q0.476 0.170 0.476 0.158Q0.476 0.152 0.488 0.143Q0.499 0.134 0.513 0.125Q0.527 0.116 0.538 0.109Q0.550 0.102 0.550 0.100Q0.550 0.096 0.535 0.102Q0.520 0.109 0.498 0.122Q0.475 0.135 0.449 0.152Q0.423 0.168 0.401 0.184Q0.378 0.200 0.363 0.213Q0.348 0.226 0.348 0.231Q0.348 0.239 0.360 0.254Q0.372 0.268 0.387 0.284Q0.402 0.300 0.417 0.314Q0.432 0.328 0.438 0.333Q0.436 0.334 0.421 0.340Q0.406 0.346 0.385 0.357Q0.363 0.368 0.338 0.385Q0.314 0.402 0.293 0.425Q0.273 0.449 0.259 0.478Q0.245 0.507 0.245 0.544Q0.245 0.584 0.257 0.619Q0.269 0.654 0.287 0.682Q0.306 0.711 0.328 0.733Q0.350 0.756 0.372 0.771Q0.393 0.786 0.410 0.794Q0.427 0.802 0.434 0.802ZM0.554 0.717Q0.550 0.716 0.535 0.706Q0.521 0.696 0.501 0.679Q0.481 0.663 0.459 0.641Q0.437 0.619 0.419 0.593Q0.400 0.566 0.388 0.536Q0.375 0.506 0.375 0.475Q0.375 0.437 0.384 0.412Q0.393 0.387 0.406 0.372Q0.419 0.358 0.432 0.351Q0.444 0.345 0.452 0.343Q0.458 0.346 0.485 0.365Q0.512 0.384 0.542 0.418Q0.573 0.452 0.597 0.498Q0.622 0.544 0.622 0.602Q0.622 0.631 0.613 0.652Q0.604 0.673 0.592 0.686Q0.580 0.700 0.569 0.707Q0.558 0.714 0.554 0.717Z" fill="black"/>
</svg>
