<svg xmlns="http://www.w3.org/2000/svg" viewBox="0 0 1 1" preserveAspectRatio="xMidYMid meet">
  <path d="M0.366 0.800Q0.366 0.803 0.381 0.798Q0.397 0.794 0.416 0.788Q0.435 0.782 0.450 0.776Q0.466 0.770 0.466 0.770Q0.466 0.770 0.474 0.775Q0.482 0.780 0.496 0.780Q0.513 0.780 0.522 0.775Q0.531 0.771 0.531 0.771Q0.530 0.771 0.524 0.766Q0.519 0.761 0.513 0.747Q0.507 0.733 0.507 0.709V0.444Q0.507 0.443 0.515 0.443Q0.523 0.443 0.533 0.443Q0.544 0.443 0.553 0.443Q0.563 0.443 0.568 0.443Q0.571 0.443 0.588 0.430Q0.604 0.417 0.622 0.402Q0.640 0.387 0.652 0.374Q0.664 0.361 0.657 0.361Q0.656 0.361 0.645 0.361Q0.634 0.362 0.617 0.362Q0.600 0.362 0.581 0.362Q0.561 0.363 0.545 0.363Q0.529 0.363 0.518 0.362Q0.507 0.362 0.507 0.361V0.188Q0.507 0.182 0.519 0.195Q0.532 0.208 0.548 0.226Q0.564 0.244 0.580 0.260Q0.596 0.275 0.603 0.275Q0.604 0.275 0.613 0.270Q0.622 0.265 0.635 0.258Q0.647 0.251 0.662 0.243Q0.676 0.234 0.689 0.226Q0.701 0.218 0.709 0.213Q0.717 0.208 0.717 0.207Q0.717 0.204 0.703 0.187Q0.689 0.170 0.671 0.152Q0.653 0.133 0.637 0.117Q0.620 0.102 0.616 0.102Q0.611 0.102 0.581 0.115Q0.551 0.129 0.514 0.149Q0.477 0.168 0.442 0.191Q0.407 0.214 0.392 0.232Q0.383 0.243 0.379 0.269Q0.374 0.295 0.372 0.322Q0.369 0.349 0.369 0.369Q0.368 0.390 0.368 0.390Q0.365 0.390 0.351 0.400Q0.337 0.410 0.321 0.421Q0.305 0.433 0.293 0.443Q0.281 0.453 0.283 0.453Q0.288 0.453 0.302 0.451Q0.315 0.450 0.330 0.448Q0.344 0.447 0.355 0.446Q0.366 0.445 0.366 0.445Z" fill="black"/>
</svg>
