<svg xmlns="http://www.w3.org/2000/svg" viewBox="0 0 1 1" preserveAspectRatio="xMidYMid meet">
  <path d="M0.220 0.889Q0.220 0.892 0.234 0.910Q0.248 0.928 0.273 0.948Q0.299 0.968 0.334 0.984Q0.370 1.000 0.413 1.000Q0.438 1.000 0.459 0.994Q0.479 0.988 0.500 0.978Q0.520 0.968 0.541 0.954Q0.562 0.940 0.588 0.924Q0.619 0.905 0.650 0.885Q0.680 0.864 0.705 0.842Q0.730 0.821 0.746 0.797Q0.762 0.773 0.762 0.747Q0.762 0.720 0.753 0.699Q0.744 0.679 0.733 0.657Q0.721 0.635 0.712 0.607Q0.703 0.578 0.703 0.533Q0.703 0.453 0.715 0.406Q0.727 0.360 0.742 0.336Q0.756 0.313 0.768 0.307Q0.780 0.301 0.780 0.301H0.531Q0.515 0.301 0.489 0.311Q0.462 0.320 0.431 0.337Q0.400 0.355 0.369 0.380Q0.338 0.405 0.313 0.436Q0.288 0.468 0.272 0.505Q0.256 0.543 0.256 0.585Q0.256 0.635 0.275 0.674Q0.295 0.713 0.318 0.739Q0.341 0.766 0.361 0.780Q0.380 0.794 0.380 0.794Q0.379 0.795 0.364 0.802Q0.348 0.810 0.324 0.822Q0.300 0.834 0.276 0.847Q0.253 0.860 0.236 0.872Q0.220 0.883 0.220 0.889ZM0.592 0.709Q0.595 0.714 0.595 0.715Q0.595 0.715 0.596 0.717Q0.597 0.720 0.602 0.727Q0.607 0.734 0.621 0.752Q0.629 0.763 0.637 0.770Q0.645 0.778 0.651 0.786Q0.657 0.794 0.661 0.805Q0.665 0.816 0.665 0.834Q0.665 0.851 0.652 0.866Q0.640 0.881 0.622 0.892Q0.605 0.902 0.585 0.908Q0.565 0.914 0.550 0.914Q0.520 0.914 0.487 0.903Q0.453 0.892 0.426 0.877Q0.398 0.862 0.380 0.846Q0.362 0.830 0.362 0.819ZM0.413 0.381H0.641Q0.641 0.381 0.629 0.396Q0.617 0.412 0.602 0.437Q0.588 0.462 0.576 0.494Q0.564 0.525 0.564 0.559Q0.564 0.627 0.575 0.662Q0.586 0.696 0.586 0.696Q0.581 0.701 0.567 0.707Q0.554 0.713 0.542 0.713Q0.518 0.713 0.491 0.696Q0.463 0.680 0.441 0.652Q0.418 0.624 0.403 0.589Q0.388 0.553 0.388 0.515Q0.388 0.471 0.395 0.439Q0.401 0.408 0.407 0.395Q0.412 0.383 0.413 0.381Z" fill="black"/>
</svg>
