<svg xmlns="http://www.w3.org/2000/svg" viewBox="0 0 1 1" preserveAspectRatio="xMidYMid meet">
  <path d="M0.267 0.801 0.408 0.746V0.412Q0.408 0.412 0.418 0.406Q0.429 0.401 0.440 0.401Q0.449 0.401 0.477 0.418Q0.505 0.435 0.536 0.464Q0.566 0.494 0.590 0.533Q0.613 0.573 0.613 0.620Q0.613 0.659 0.596 0.691Q0.579 0.724 0.559 0.747Q0.538 0.771 0.521 0.784Q0.504 0.797 0.504 0.797Q0.506 0.796 0.524 0.787Q0.542 0.778 0.571 0.763Q0.600 0.748 0.627 0.733Q0.654 0.719 0.674 0.707Q0.694 0.696 0.694 0.694Q0.694 0.693 0.686 0.697Q0.679 0.701 0.669 0.704Q0.660 0.708 0.653 0.709Q0.645 0.710 0.645 0.702Q0.645 0.693 0.660 0.679Q0.674 0.665 0.691 0.645Q0.708 0.624 0.722 0.596Q0.737 0.567 0.737 0.528Q0.737 0.496 0.724 0.466Q0.712 0.437 0.693 0.412Q0.674 0.388 0.651 0.368Q0.628 0.349 0.608 0.335Q0.587 0.322 0.572 0.315Q0.556 0.307 0.551 0.307Q0.545 0.307 0.529 0.317Q0.512 0.326 0.493 0.338Q0.473 0.351 0.453 0.364Q0.433 0.378 0.421 0.386Q0.409 0.395 0.408 0.396V0.197Q0.408 0.192 0.407 0.184Q0.407 0.176 0.405 0.169Q0.404 0.162 0.401 0.156Q0.398 0.151 0.392 0.151Q0.378 0.151 0.356 0.156Q0.334 0.162 0.314 0.169Q0.293 0.176 0.278 0.183Q0.263 0.190 0.263 0.192Q0.263 0.193 0.264 0.199Q0.264 0.205 0.265 0.214Q0.266 0.222 0.267 0.232Q0.267 0.241 0.267 0.248Z" fill="black"/>
</svg>
