<svg xmlns="http://www.w3.org/2000/svg" viewBox="0 0 1 1" preserveAspectRatio="xMidYMid meet">
  <path d="M0.461 0.800Q0.470 0.800 0.495 0.787Q0.520 0.774 0.548 0.758Q0.575 0.742 0.596 0.729Q0.617 0.716 0.617 0.716Q0.617 0.716 0.608 0.718Q0.599 0.721 0.596 0.721Q0.585 0.721 0.575 0.715Q0.565 0.709 0.565 0.680V0.365Q0.565 0.353 0.559 0.341Q0.552 0.330 0.543 0.321Q0.534 0.311 0.526 0.306Q0.518 0.300 0.515 0.300Q0.503 0.300 0.482 0.312Q0.460 0.323 0.438 0.337Q0.416 0.352 0.399 0.363Q0.383 0.375 0.383 0.375Q0.385 0.375 0.394 0.380Q0.403 0.385 0.414 0.401Q0.425 0.418 0.425 0.448V0.743Q0.425 0.760 0.430 0.771Q0.435 0.782 0.441 0.788Q0.447 0.795 0.453 0.797Q0.459 0.800 0.461 0.800ZM0.405 0.217Q0.405 0.223 0.414 0.232Q0.424 0.240 0.436 0.248Q0.448 0.256 0.460 0.262Q0.472 0.267 0.477 0.267Q0.479 0.267 0.497 0.257Q0.515 0.247 0.536 0.234Q0.557 0.221 0.575 0.211Q0.592 0.200 0.592 0.198Q0.592 0.194 0.582 0.186Q0.572 0.177 0.560 0.169Q0.547 0.161 0.536 0.154Q0.525 0.148 0.523 0.148Q0.512 0.148 0.493 0.158Q0.474 0.168 0.454 0.181Q0.434 0.194 0.419 0.205Q0.405 0.216 0.405 0.217Z" fill="black"/>
</svg>
