<svg xmlns="http://www.w3.org/2000/svg" viewBox="0 0 1 1" preserveAspectRatio="xMidYMid meet">
  <path d="M0.425 0.947Q0.425 0.952 0.449 0.942Q0.472 0.931 0.500 0.910Q0.529 0.889 0.552 0.861Q0.576 0.833 0.576 0.801V0.361Q0.576 0.355 0.569 0.345Q0.563 0.336 0.554 0.327Q0.546 0.318 0.538 0.312Q0.530 0.305 0.527 0.305Q0.522 0.305 0.501 0.318Q0.481 0.330 0.458 0.346Q0.435 0.362 0.417 0.377Q0.398 0.392 0.398 0.397Q0.398 0.407 0.405 0.411Q0.412 0.416 0.421 0.420Q0.429 0.425 0.436 0.430Q0.443 0.436 0.443 0.448V0.810Q0.443 0.862 0.440 0.890Q0.437 0.918 0.434 0.931Q0.431 0.943 0.428 0.945Q0.425 0.947 0.425 0.947ZM0.414 0.226Q0.414 0.229 0.424 0.236Q0.434 0.243 0.446 0.251Q0.458 0.259 0.469 0.265Q0.480 0.271 0.483 0.271Q0.486 0.271 0.505 0.261Q0.524 0.250 0.545 0.237Q0.567 0.224 0.584 0.212Q0.602 0.199 0.602 0.196Q0.602 0.193 0.592 0.185Q0.583 0.176 0.571 0.167Q0.560 0.159 0.549 0.152Q0.538 0.146 0.535 0.146Q0.526 0.146 0.506 0.156Q0.486 0.166 0.466 0.178Q0.445 0.191 0.430 0.205Q0.414 0.219 0.414 0.226Z" fill="black"/>
</svg>
