<svg xmlns="http://www.w3.org/2000/svg" viewBox="0 0 1 1" preserveAspectRatio="xMidYMid meet">
  <path d="M0.271 0.800 0.412 0.756V0.617Q0.416 0.617 0.430 0.631Q0.443 0.644 0.461 0.665Q0.479 0.685 0.499 0.708Q0.520 0.732 0.539 0.752Q0.559 0.773 0.575 0.786Q0.591 0.800 0.599 0.800Q0.606 0.800 0.629 0.789Q0.652 0.778 0.677 0.764Q0.701 0.751 0.720 0.739Q0.738 0.728 0.735 0.728Q0.727 0.728 0.712 0.714Q0.696 0.701 0.677 0.680Q0.658 0.660 0.637 0.637Q0.616 0.613 0.598 0.593Q0.580 0.572 0.565 0.559Q0.550 0.545 0.544 0.545Q0.542 0.545 0.541 0.544Q0.540 0.542 0.540 0.542Q0.540 0.539 0.560 0.530Q0.580 0.520 0.603 0.505Q0.627 0.491 0.647 0.472Q0.667 0.453 0.667 0.430Q0.667 0.412 0.656 0.387Q0.645 0.363 0.630 0.340Q0.614 0.318 0.598 0.302Q0.583 0.286 0.573 0.286Q0.566 0.286 0.547 0.295Q0.529 0.304 0.506 0.317Q0.484 0.330 0.462 0.343Q0.440 0.356 0.427 0.364Q0.413 0.373 0.412 0.374V0.197Q0.412 0.151 0.396 0.151Q0.389 0.151 0.368 0.156Q0.346 0.161 0.323 0.167Q0.300 0.174 0.282 0.183Q0.264 0.191 0.264 0.198Q0.264 0.199 0.265 0.204Q0.266 0.209 0.268 0.217Q0.269 0.224 0.270 0.233Q0.271 0.241 0.271 0.248ZM0.537 0.512Q0.537 0.522 0.517 0.538Q0.498 0.553 0.474 0.568Q0.451 0.583 0.431 0.594Q0.412 0.604 0.412 0.604V0.386Q0.413 0.385 0.421 0.381Q0.429 0.377 0.439 0.372Q0.450 0.368 0.454 0.368Q0.462 0.368 0.476 0.381Q0.490 0.395 0.503 0.416Q0.517 0.437 0.527 0.463Q0.537 0.489 0.537 0.512Z" fill="black"/>
</svg>
