<svg xmlns="http://www.w3.org/2000/svg" viewBox="0 0 1 1" preserveAspectRatio="xMidYMid meet">
  <path d="M0.463 0.800Q0.466 0.800 0.490 0.792Q0.513 0.785 0.540 0.775Q0.567 0.765 0.589 0.755Q0.611 0.746 0.611 0.741Q0.611 0.740 0.604 0.740Q0.595 0.740 0.583 0.728Q0.571 0.716 0.561 0.698Q0.550 0.680 0.543 0.660Q0.536 0.639 0.536 0.621V0.197Q0.536 0.192 0.534 0.184Q0.532 0.175 0.529 0.167Q0.525 0.159 0.521 0.153Q0.516 0.147 0.511 0.147Q0.495 0.147 0.474 0.153Q0.453 0.159 0.434 0.167Q0.415 0.174 0.402 0.182Q0.389 0.189 0.389 0.192Q0.389 0.199 0.392 0.214Q0.396 0.228 0.396 0.248V0.680Q0.396 0.706 0.405 0.727Q0.414 0.749 0.425 0.765Q0.436 0.782 0.447 0.791Q0.458 0.800 0.463 0.800Z" fill="black"/>
</svg>
