<svg xmlns="http://www.w3.org/2000/svg" viewBox="0 0 1 1" preserveAspectRatio="xMidYMid meet">
  <path d="M0.153 0.805 0.293 0.755V0.409Q0.293 0.408 0.299 0.404Q0.305 0.401 0.314 0.397Q0.323 0.393 0.333 0.390Q0.344 0.387 0.352 0.387Q0.355 0.387 0.366 0.394Q0.378 0.402 0.390 0.412Q0.403 0.423 0.413 0.434Q0.423 0.446 0.423 0.455V0.800L0.564 0.755V0.412Q0.564 0.411 0.569 0.407Q0.574 0.403 0.582 0.398Q0.589 0.394 0.599 0.391Q0.609 0.388 0.618 0.388Q0.623 0.388 0.636 0.395Q0.648 0.403 0.660 0.413Q0.673 0.423 0.683 0.433Q0.693 0.444 0.693 0.450V0.710Q0.693 0.730 0.704 0.746Q0.715 0.763 0.728 0.775Q0.742 0.787 0.753 0.793Q0.765 0.800 0.766 0.800Q0.773 0.800 0.794 0.792Q0.816 0.784 0.838 0.774Q0.861 0.764 0.880 0.754Q0.898 0.744 0.898 0.740Q0.898 0.739 0.888 0.735Q0.878 0.731 0.866 0.723Q0.853 0.715 0.843 0.702Q0.833 0.690 0.833 0.672V0.399Q0.833 0.387 0.820 0.370Q0.807 0.354 0.788 0.338Q0.769 0.323 0.750 0.312Q0.731 0.301 0.721 0.301Q0.706 0.301 0.679 0.315Q0.653 0.328 0.628 0.344Q0.602 0.361 0.583 0.375Q0.563 0.390 0.561 0.391Q0.558 0.387 0.542 0.372Q0.526 0.358 0.506 0.342Q0.486 0.326 0.467 0.314Q0.448 0.301 0.440 0.301Q0.430 0.301 0.407 0.313Q0.385 0.325 0.360 0.340Q0.336 0.356 0.316 0.370Q0.295 0.384 0.289 0.388Q0.288 0.382 0.281 0.368Q0.274 0.354 0.265 0.339Q0.255 0.324 0.245 0.313Q0.235 0.301 0.227 0.301Q0.211 0.301 0.188 0.315Q0.165 0.328 0.145 0.343Q0.125 0.359 0.112 0.372Q0.099 0.386 0.103 0.386Q0.106 0.386 0.114 0.388Q0.123 0.391 0.131 0.396Q0.140 0.402 0.146 0.411Q0.153 0.421 0.153 0.436Z" fill="black"/>
</svg>
