<svg xmlns="http://www.w3.org/2000/svg" viewBox="0 0 1 1" preserveAspectRatio="xMidYMid meet">
  <path d="M0.447 0.800Q0.467 0.800 0.483 0.795Q0.499 0.790 0.513 0.782Q0.528 0.775 0.543 0.765Q0.557 0.755 0.575 0.745Q0.626 0.715 0.662 0.689Q0.697 0.664 0.718 0.639Q0.740 0.613 0.750 0.586Q0.760 0.558 0.760 0.523Q0.760 0.483 0.745 0.443Q0.731 0.403 0.703 0.371Q0.675 0.340 0.635 0.321Q0.595 0.301 0.544 0.301Q0.521 0.301 0.481 0.318Q0.440 0.334 0.398 0.356Q0.357 0.378 0.324 0.398Q0.291 0.419 0.284 0.428Q0.269 0.448 0.255 0.486Q0.240 0.524 0.240 0.569Q0.240 0.597 0.250 0.637Q0.260 0.676 0.284 0.712Q0.308 0.749 0.347 0.774Q0.387 0.800 0.447 0.800ZM0.431 0.362Q0.437 0.362 0.454 0.365Q0.471 0.369 0.492 0.379Q0.513 0.389 0.537 0.406Q0.561 0.423 0.581 0.450Q0.600 0.478 0.613 0.516Q0.626 0.554 0.626 0.607Q0.626 0.623 0.622 0.645Q0.617 0.666 0.608 0.685Q0.599 0.705 0.585 0.718Q0.571 0.732 0.553 0.732Q0.539 0.732 0.508 0.722Q0.478 0.713 0.446 0.687Q0.415 0.662 0.391 0.618Q0.367 0.573 0.367 0.504Q0.367 0.480 0.371 0.454Q0.376 0.428 0.384 0.408Q0.393 0.388 0.404 0.375Q0.416 0.362 0.431 0.362Z" fill="black"/>
</svg>
