<svg xmlns="http://www.w3.org/2000/svg" viewBox="0 0 1 1" preserveAspectRatio="xMidYMid meet">
  <path d="M0.317 1.000 0.447 0.939V0.789Q0.448 0.789 0.453 0.791Q0.458 0.794 0.465 0.797Q0.471 0.800 0.472 0.800Q0.472 0.800 0.494 0.788Q0.516 0.777 0.548 0.758Q0.580 0.739 0.617 0.713Q0.655 0.688 0.686 0.661Q0.718 0.634 0.739 0.606Q0.761 0.578 0.761 0.553Q0.761 0.507 0.747 0.471Q0.734 0.435 0.713 0.407Q0.693 0.379 0.669 0.359Q0.645 0.339 0.624 0.326Q0.604 0.313 0.590 0.307Q0.576 0.301 0.575 0.301Q0.567 0.301 0.548 0.313Q0.529 0.325 0.508 0.340Q0.487 0.355 0.469 0.368Q0.451 0.382 0.447 0.385Q0.447 0.372 0.446 0.357Q0.445 0.342 0.435 0.342Q0.423 0.342 0.403 0.350Q0.384 0.359 0.361 0.372Q0.338 0.386 0.315 0.401Q0.293 0.416 0.275 0.429Q0.257 0.443 0.247 0.451Q0.237 0.460 0.240 0.460Q0.242 0.460 0.254 0.454Q0.266 0.448 0.280 0.440Q0.294 0.433 0.305 0.427Q0.317 0.421 0.317 0.421V0.665Q0.309 0.668 0.299 0.674Q0.289 0.680 0.281 0.687Q0.272 0.694 0.266 0.699Q0.260 0.705 0.260 0.707Q0.261 0.707 0.270 0.710Q0.279 0.714 0.293 0.719Q0.307 0.724 0.317 0.729ZM0.447 0.636V0.403Q0.447 0.401 0.450 0.397Q0.453 0.394 0.459 0.394Q0.476 0.394 0.508 0.413Q0.539 0.433 0.571 0.465Q0.602 0.497 0.625 0.537Q0.648 0.577 0.648 0.619Q0.648 0.644 0.639 0.662Q0.630 0.679 0.618 0.690Q0.607 0.702 0.597 0.707Q0.586 0.713 0.583 0.714Q0.583 0.714 0.564 0.702Q0.544 0.690 0.520 0.675Q0.495 0.660 0.473 0.648Q0.451 0.636 0.447 0.636Z" fill="black"/>
</svg>
