<svg xmlns="http://www.w3.org/2000/svg" viewBox="0 0 1 1" preserveAspectRatio="xMidYMid meet">
  <path d="M0.454 0.800Q0.482 0.800 0.512 0.787Q0.542 0.775 0.567 0.760Q0.592 0.746 0.608 0.733Q0.624 0.721 0.624 0.721V0.961L0.758 0.905V0.461Q0.758 0.415 0.737 0.384Q0.716 0.354 0.685 0.335Q0.655 0.317 0.621 0.309Q0.587 0.301 0.561 0.301Q0.532 0.301 0.510 0.308Q0.489 0.315 0.470 0.325Q0.452 0.335 0.436 0.346Q0.421 0.357 0.406 0.364Q0.325 0.405 0.284 0.461Q0.242 0.516 0.242 0.581Q0.242 0.630 0.261 0.670Q0.280 0.711 0.310 0.739Q0.340 0.768 0.378 0.784Q0.416 0.800 0.454 0.800ZM0.369 0.509Q0.369 0.498 0.371 0.479Q0.374 0.461 0.379 0.443Q0.384 0.425 0.391 0.411Q0.398 0.397 0.407 0.393Q0.435 0.381 0.462 0.382Q0.494 0.383 0.523 0.396Q0.552 0.410 0.575 0.429Q0.597 0.449 0.611 0.472Q0.624 0.495 0.624 0.514V0.711Q0.624 0.711 0.611 0.715Q0.598 0.720 0.587 0.720Q0.552 0.720 0.514 0.705Q0.476 0.690 0.443 0.662Q0.411 0.634 0.390 0.596Q0.369 0.557 0.369 0.509Z" fill="black"/>
</svg>
