<svg xmlns="http://www.w3.org/2000/svg" viewBox="0 0 1 1" preserveAspectRatio="xMidYMid meet">
  <path d="M0.346 0.800 0.487 0.743V0.385Q0.495 0.385 0.509 0.398Q0.523 0.411 0.538 0.428Q0.552 0.445 0.564 0.462Q0.575 0.479 0.577 0.487L0.586 0.538L0.597 0.485Q0.598 0.478 0.612 0.464Q0.626 0.451 0.644 0.438Q0.661 0.425 0.677 0.414Q0.694 0.404 0.700 0.402Q0.700 0.399 0.688 0.382Q0.677 0.366 0.662 0.348Q0.646 0.330 0.631 0.316Q0.615 0.301 0.608 0.301Q0.603 0.301 0.586 0.310Q0.569 0.319 0.550 0.331Q0.530 0.342 0.512 0.353Q0.494 0.365 0.487 0.370Q0.487 0.363 0.478 0.351Q0.469 0.339 0.457 0.328Q0.445 0.317 0.434 0.309Q0.423 0.301 0.419 0.301Q0.416 0.301 0.397 0.311Q0.378 0.321 0.356 0.334Q0.335 0.347 0.318 0.359Q0.300 0.372 0.300 0.377Q0.302 0.378 0.312 0.386Q0.322 0.394 0.334 0.417Q0.346 0.440 0.346 0.476Z" fill="black"/>
</svg>
