<svg xmlns="http://www.w3.org/2000/svg" viewBox="0 0 1 1" preserveAspectRatio="xMidYMid meet">
  <path d="M0.530 0.800Q0.534 0.800 0.552 0.785Q0.569 0.770 0.588 0.751Q0.606 0.733 0.620 0.718Q0.634 0.703 0.632 0.703Q0.624 0.703 0.611 0.694Q0.598 0.686 0.586 0.673Q0.574 0.661 0.565 0.647Q0.556 0.633 0.556 0.622L0.555 0.411Q0.555 0.411 0.572 0.410Q0.588 0.409 0.600 0.403Q0.609 0.399 0.623 0.384Q0.637 0.369 0.650 0.353Q0.663 0.337 0.672 0.325Q0.681 0.312 0.679 0.312H0.556V0.222Q0.533 0.222 0.511 0.236Q0.488 0.249 0.469 0.266Q0.449 0.282 0.437 0.296Q0.424 0.310 0.421 0.312Q0.415 0.315 0.399 0.324Q0.383 0.333 0.365 0.346Q0.348 0.359 0.334 0.376Q0.321 0.393 0.321 0.412Q0.321 0.413 0.336 0.413Q0.351 0.413 0.368 0.412Q0.386 0.412 0.401 0.411Q0.416 0.411 0.416 0.411V0.684Q0.416 0.702 0.432 0.722Q0.448 0.742 0.469 0.759Q0.489 0.777 0.508 0.788Q0.526 0.800 0.530 0.800Z" fill="black"/>
</svg>
