<svg xmlns="http://www.w3.org/2000/svg" viewBox="0 0 1 1" preserveAspectRatio="xMidYMid meet">
  <path d="M0.452 0.802Q0.454 0.802 0.480 0.785Q0.505 0.768 0.541 0.740Q0.578 0.712 0.620 0.675Q0.662 0.638 0.697 0.597Q0.733 0.556 0.757 0.514Q0.780 0.473 0.780 0.436Q0.780 0.402 0.769 0.373Q0.757 0.344 0.736 0.323Q0.715 0.301 0.686 0.289Q0.658 0.277 0.622 0.277Q0.587 0.277 0.552 0.295Q0.518 0.312 0.490 0.333Q0.461 0.354 0.444 0.371Q0.426 0.389 0.426 0.389Q0.424 0.383 0.416 0.369Q0.408 0.355 0.398 0.341Q0.387 0.328 0.376 0.318Q0.365 0.307 0.357 0.307Q0.345 0.307 0.323 0.323Q0.300 0.339 0.277 0.358Q0.254 0.378 0.237 0.394Q0.220 0.410 0.220 0.410Q0.220 0.410 0.224 0.408Q0.229 0.406 0.234 0.406Q0.252 0.406 0.273 0.435Q0.295 0.465 0.317 0.508Q0.338 0.552 0.359 0.604Q0.380 0.655 0.398 0.699Q0.416 0.743 0.430 0.772Q0.444 0.802 0.452 0.802ZM0.516 0.371Q0.552 0.371 0.579 0.385Q0.606 0.400 0.625 0.423Q0.644 0.446 0.653 0.475Q0.663 0.503 0.663 0.531Q0.663 0.570 0.652 0.599Q0.641 0.627 0.625 0.648Q0.610 0.668 0.592 0.682Q0.575 0.696 0.563 0.706Q0.551 0.687 0.537 0.658Q0.523 0.629 0.509 0.596Q0.495 0.562 0.482 0.529Q0.468 0.496 0.457 0.468Q0.446 0.440 0.439 0.421Q0.432 0.402 0.430 0.398Q0.434 0.395 0.440 0.390Q0.446 0.386 0.456 0.381Q0.465 0.377 0.480 0.374Q0.495 0.371 0.516 0.371Z" fill="black"/>
</svg>
