<svg xmlns="http://www.w3.org/2000/svg" viewBox="0 0 1 1" preserveAspectRatio="xMidYMid meet">
  <path d="M0.325 0.800Q0.326 0.800 0.344 0.788Q0.362 0.777 0.383 0.762Q0.404 0.748 0.421 0.734Q0.438 0.721 0.437 0.716Q0.431 0.692 0.419 0.659Q0.407 0.626 0.392 0.591Q0.377 0.556 0.361 0.521Q0.345 0.487 0.332 0.458Q0.319 0.430 0.309 0.410Q0.300 0.391 0.297 0.386Q0.305 0.381 0.314 0.376Q0.324 0.371 0.339 0.371Q0.354 0.371 0.371 0.377Q0.387 0.384 0.401 0.401Q0.417 0.420 0.437 0.457Q0.456 0.495 0.477 0.539Q0.497 0.584 0.517 0.631Q0.537 0.678 0.552 0.716Q0.568 0.754 0.579 0.778Q0.590 0.802 0.592 0.800Q0.625 0.774 0.662 0.743Q0.699 0.712 0.736 0.679Q0.772 0.646 0.806 0.612Q0.839 0.578 0.864 0.547Q0.890 0.515 0.905 0.488Q0.921 0.460 0.921 0.439Q0.921 0.401 0.905 0.370Q0.890 0.339 0.866 0.318Q0.842 0.296 0.814 0.284Q0.785 0.272 0.759 0.272Q0.731 0.272 0.702 0.289Q0.673 0.305 0.649 0.326Q0.624 0.346 0.607 0.364Q0.590 0.383 0.587 0.387Q0.580 0.372 0.568 0.354Q0.556 0.337 0.541 0.322Q0.526 0.307 0.509 0.297Q0.492 0.287 0.476 0.287Q0.459 0.287 0.430 0.301Q0.401 0.314 0.372 0.331Q0.342 0.347 0.320 0.361Q0.297 0.376 0.294 0.378Q0.288 0.365 0.281 0.351Q0.274 0.338 0.265 0.327Q0.256 0.315 0.245 0.308Q0.235 0.300 0.223 0.300Q0.213 0.300 0.189 0.314Q0.166 0.327 0.142 0.343Q0.117 0.360 0.098 0.375Q0.079 0.390 0.079 0.393Q0.079 0.396 0.089 0.389Q0.099 0.383 0.108 0.383Q0.114 0.383 0.123 0.388Q0.131 0.394 0.142 0.410Q0.158 0.432 0.177 0.469Q0.196 0.506 0.215 0.549Q0.234 0.592 0.252 0.637Q0.271 0.682 0.286 0.718Q0.301 0.754 0.311 0.777Q0.322 0.800 0.325 0.800ZM0.653 0.360Q0.685 0.360 0.713 0.376Q0.740 0.393 0.760 0.417Q0.779 0.442 0.790 0.470Q0.800 0.499 0.800 0.522Q0.800 0.555 0.790 0.581Q0.779 0.606 0.764 0.626Q0.749 0.646 0.732 0.662Q0.715 0.677 0.701 0.690Q0.697 0.679 0.689 0.656Q0.680 0.632 0.669 0.602Q0.658 0.572 0.646 0.539Q0.634 0.506 0.623 0.479Q0.612 0.451 0.604 0.430Q0.597 0.410 0.594 0.404Q0.603 0.392 0.616 0.376Q0.630 0.360 0.653 0.360Z" fill="black"/>
</svg>
