<svg xmlns="http://www.w3.org/2000/svg" viewBox="0 0 1 1" preserveAspectRatio="xMidYMid meet">
  <path d="M0.209 0.894Q0.209 0.897 0.227 0.887Q0.244 0.876 0.269 0.860Q0.293 0.844 0.318 0.827Q0.344 0.809 0.360 0.796Q0.383 0.777 0.403 0.757Q0.424 0.738 0.439 0.722Q0.454 0.706 0.462 0.696Q0.471 0.686 0.471 0.686Q0.475 0.697 0.495 0.716Q0.515 0.736 0.539 0.754Q0.562 0.773 0.584 0.786Q0.605 0.800 0.611 0.800Q0.618 0.800 0.638 0.786Q0.659 0.773 0.680 0.756Q0.701 0.740 0.717 0.726Q0.733 0.713 0.732 0.713Q0.728 0.713 0.715 0.705Q0.703 0.697 0.686 0.684Q0.669 0.671 0.649 0.655Q0.630 0.639 0.614 0.624Q0.597 0.609 0.586 0.596Q0.574 0.583 0.572 0.576Q0.587 0.576 0.613 0.562Q0.639 0.547 0.663 0.530Q0.687 0.513 0.703 0.499Q0.719 0.485 0.715 0.485Q0.706 0.485 0.684 0.486Q0.663 0.487 0.638 0.487Q0.614 0.488 0.592 0.488Q0.570 0.489 0.560 0.489Q0.556 0.466 0.551 0.443Q0.546 0.421 0.539 0.405Q0.538 0.403 0.546 0.400Q0.553 0.398 0.561 0.398Q0.575 0.398 0.594 0.402Q0.612 0.406 0.630 0.412Q0.648 0.418 0.663 0.424Q0.678 0.430 0.685 0.433Q0.685 0.433 0.704 0.416Q0.723 0.400 0.744 0.380Q0.766 0.360 0.781 0.343Q0.795 0.327 0.789 0.327Q0.783 0.327 0.766 0.321Q0.749 0.315 0.729 0.308Q0.709 0.300 0.690 0.294Q0.671 0.288 0.659 0.288Q0.656 0.288 0.642 0.299Q0.628 0.310 0.611 0.325Q0.593 0.340 0.576 0.356Q0.558 0.372 0.547 0.382Q0.536 0.392 0.535 0.393Q0.528 0.378 0.513 0.362Q0.498 0.346 0.481 0.333Q0.463 0.319 0.448 0.310Q0.432 0.301 0.423 0.301Q0.399 0.301 0.376 0.314Q0.354 0.327 0.337 0.342Q0.320 0.357 0.309 0.370Q0.299 0.383 0.299 0.383Q0.307 0.383 0.325 0.397Q0.344 0.412 0.364 0.432Q0.385 0.452 0.402 0.472Q0.419 0.493 0.423 0.504Q0.409 0.510 0.383 0.532Q0.357 0.553 0.313 0.586Q0.310 0.588 0.321 0.587Q0.333 0.586 0.352 0.585Q0.372 0.583 0.396 0.582Q0.420 0.580 0.442 0.580Q0.448 0.603 0.442 0.628Q0.436 0.652 0.422 0.676Q0.409 0.701 0.391 0.724Q0.373 0.747 0.356 0.765Q0.340 0.783 0.326 0.796Q0.313 0.809 0.309 0.813Q0.301 0.822 0.284 0.834Q0.267 0.847 0.251 0.860Q0.234 0.873 0.222 0.883Q0.209 0.892 0.209 0.894Z" fill="black"/>
</svg>
