<svg xmlns="http://www.w3.org/2000/svg" viewBox="0 0 1 1" preserveAspectRatio="xMidYMid meet">
  <path d="M0.331 0.908Q0.330 0.910 0.335 0.909Q0.339 0.907 0.347 0.905Q0.355 0.902 0.365 0.900Q0.375 0.897 0.384 0.897Q0.396 0.897 0.419 0.903Q0.442 0.908 0.467 0.915Q0.491 0.922 0.511 0.928Q0.532 0.933 0.539 0.933Q0.541 0.933 0.551 0.926Q0.561 0.919 0.575 0.909Q0.589 0.898 0.604 0.886Q0.619 0.873 0.632 0.863Q0.644 0.852 0.652 0.845Q0.659 0.838 0.657 0.838Q0.645 0.838 0.630 0.833Q0.614 0.828 0.595 0.821Q0.576 0.814 0.554 0.808Q0.532 0.803 0.507 0.803Q0.494 0.803 0.481 0.804Q0.469 0.806 0.455 0.811Q0.455 0.805 0.467 0.790Q0.479 0.776 0.496 0.757Q0.514 0.739 0.533 0.720Q0.553 0.702 0.568 0.689Q0.598 0.662 0.630 0.635Q0.662 0.607 0.690 0.576Q0.718 0.544 0.738 0.507Q0.758 0.471 0.762 0.424Q0.764 0.399 0.759 0.374Q0.753 0.349 0.737 0.328Q0.721 0.306 0.694 0.290Q0.666 0.274 0.625 0.266Q0.604 0.263 0.582 0.270Q0.561 0.277 0.540 0.291Q0.520 0.304 0.502 0.320Q0.484 0.336 0.471 0.350Q0.457 0.365 0.450 0.374Q0.442 0.384 0.443 0.383Q0.457 0.371 0.473 0.366Q0.489 0.361 0.506 0.361Q0.544 0.361 0.578 0.389Q0.612 0.417 0.629 0.465Q0.643 0.506 0.636 0.542Q0.628 0.578 0.612 0.605Q0.596 0.632 0.579 0.649Q0.562 0.666 0.558 0.669Q0.552 0.664 0.536 0.635Q0.521 0.606 0.501 0.566Q0.481 0.526 0.458 0.482Q0.435 0.437 0.416 0.399Q0.396 0.361 0.382 0.336Q0.367 0.311 0.364 0.311Q0.358 0.311 0.345 0.319Q0.332 0.326 0.317 0.337Q0.302 0.348 0.286 0.360Q0.270 0.373 0.258 0.384Q0.246 0.395 0.240 0.402Q0.235 0.410 0.240 0.410Q0.245 0.410 0.262 0.437Q0.280 0.464 0.302 0.504Q0.323 0.545 0.348 0.593Q0.372 0.640 0.393 0.681Q0.413 0.723 0.427 0.751Q0.440 0.780 0.440 0.782Q0.440 0.792 0.424 0.812Q0.407 0.832 0.387 0.852Q0.367 0.872 0.350 0.889Q0.333 0.905 0.331 0.908Z" fill="black"/>
</svg>
