<svg xmlns="http://www.w3.org/2000/svg" viewBox="0 0 1 1" preserveAspectRatio="xMidYMid meet">
  <path d="M0.261 0.880Q0.290 0.880 0.331 0.896Q0.371 0.911 0.411 0.930Q0.451 0.949 0.484 0.965Q0.516 0.980 0.528 0.980Q0.534 0.980 0.549 0.972Q0.564 0.964 0.583 0.952Q0.602 0.939 0.623 0.924Q0.644 0.909 0.662 0.895Q0.686 0.876 0.711 0.859Q0.736 0.842 0.756 0.824Q0.776 0.805 0.789 0.783Q0.801 0.762 0.801 0.734Q0.801 0.706 0.789 0.675Q0.777 0.644 0.756 0.618Q0.734 0.592 0.706 0.575Q0.677 0.558 0.645 0.558Q0.609 0.558 0.573 0.578Q0.573 0.578 0.590 0.558Q0.608 0.538 0.634 0.509Q0.661 0.480 0.690 0.446Q0.719 0.412 0.744 0.383Q0.768 0.355 0.783 0.337Q0.797 0.320 0.792 0.323Q0.784 0.330 0.761 0.330Q0.741 0.330 0.712 0.326Q0.682 0.321 0.651 0.316Q0.620 0.310 0.589 0.306Q0.558 0.301 0.536 0.301Q0.527 0.301 0.509 0.314Q0.491 0.327 0.469 0.347Q0.446 0.368 0.423 0.392Q0.400 0.416 0.381 0.437Q0.361 0.458 0.349 0.473Q0.337 0.489 0.337 0.493Q0.337 0.498 0.344 0.490Q0.351 0.482 0.361 0.471Q0.370 0.461 0.380 0.451Q0.390 0.441 0.397 0.441Q0.427 0.441 0.461 0.443Q0.494 0.446 0.524 0.449Q0.554 0.453 0.577 0.455Q0.600 0.458 0.609 0.458Q0.619 0.458 0.628 0.456Q0.638 0.455 0.646 0.451Q0.639 0.460 0.622 0.479Q0.606 0.498 0.585 0.521Q0.564 0.545 0.541 0.571Q0.518 0.597 0.500 0.620Q0.481 0.642 0.469 0.658Q0.457 0.674 0.457 0.678Q0.457 0.682 0.461 0.682Q0.465 0.682 0.486 0.674Q0.506 0.667 0.533 0.667Q0.568 0.667 0.595 0.681Q0.623 0.695 0.641 0.717Q0.660 0.739 0.669 0.765Q0.678 0.792 0.678 0.817Q0.678 0.831 0.675 0.842Q0.671 0.853 0.666 0.862Q0.662 0.870 0.657 0.875Q0.653 0.880 0.650 0.880Q0.640 0.880 0.617 0.870Q0.594 0.859 0.563 0.844Q0.533 0.829 0.500 0.811Q0.466 0.794 0.436 0.780Q0.405 0.766 0.382 0.758Q0.358 0.750 0.348 0.754Q0.329 0.762 0.303 0.783Q0.277 0.805 0.254 0.829Q0.231 0.852 0.215 0.873Q0.199 0.893 0.199 0.900Q0.199 0.901 0.204 0.901Q0.207 0.901 0.211 0.898Q0.216 0.894 0.222 0.891Q0.229 0.887 0.238 0.884Q0.247 0.880 0.261 0.880Z" fill="black"/>
</svg>
