<svg xmlns="http://www.w3.org/2000/svg" viewBox="0 0 1 1" preserveAspectRatio="xMidYMid meet">
  <path d="M0.621 0.192Q0.628 0.192 0.645 0.170Q0.662 0.149 0.677 0.122Q0.692 0.096 0.703 0.074Q0.713 0.052 0.708 0.052H0.513Q0.494 0.052 0.469 0.063Q0.444 0.075 0.422 0.095Q0.400 0.116 0.385 0.145Q0.370 0.173 0.370 0.208Q0.370 0.225 0.376 0.245Q0.381 0.264 0.387 0.285Q0.393 0.305 0.399 0.324Q0.404 0.343 0.404 0.358Q0.404 0.381 0.386 0.401Q0.368 0.422 0.347 0.437Q0.326 0.453 0.308 0.462Q0.290 0.471 0.290 0.471Q0.290 0.471 0.305 0.477Q0.320 0.484 0.338 0.497Q0.356 0.509 0.371 0.528Q0.386 0.547 0.386 0.571Q0.386 0.577 0.385 0.593Q0.383 0.608 0.381 0.629Q0.378 0.650 0.377 0.673Q0.375 0.696 0.375 0.715Q0.375 0.730 0.377 0.745Q0.378 0.760 0.384 0.772Q0.389 0.785 0.399 0.792Q0.408 0.800 0.423 0.800H0.601Q0.608 0.800 0.620 0.789Q0.632 0.779 0.645 0.763Q0.658 0.748 0.671 0.729Q0.685 0.711 0.694 0.695Q0.703 0.680 0.708 0.669Q0.712 0.659 0.708 0.659Q0.706 0.659 0.687 0.661Q0.669 0.662 0.642 0.664Q0.616 0.666 0.587 0.667Q0.559 0.669 0.538 0.669Q0.516 0.669 0.511 0.664Q0.506 0.658 0.506 0.632Q0.506 0.599 0.508 0.573Q0.510 0.547 0.510 0.523Q0.510 0.492 0.500 0.469Q0.490 0.446 0.477 0.431Q0.464 0.416 0.450 0.409Q0.436 0.402 0.429 0.402Q0.422 0.402 0.421 0.403Q0.420 0.404 0.415 0.406Q0.424 0.399 0.444 0.383Q0.463 0.367 0.483 0.347Q0.502 0.327 0.517 0.306Q0.531 0.285 0.531 0.268Q0.530 0.250 0.525 0.236Q0.520 0.221 0.520 0.206Q0.520 0.200 0.535 0.197Q0.551 0.194 0.569 0.193Q0.588 0.192 0.604 0.192Q0.620 0.192 0.621 0.192Z" fill="black"/>
</svg>
