<svg xmlns="http://www.w3.org/2000/svg" viewBox="0 0 1 1" preserveAspectRatio="xMidYMid meet">
  <path d="M0.462 0.803Q0.462 0.807 0.473 0.798Q0.483 0.789 0.495 0.774Q0.507 0.759 0.518 0.741Q0.528 0.724 0.528 0.712Q0.528 0.705 0.529 0.674Q0.529 0.644 0.530 0.599Q0.531 0.554 0.533 0.500Q0.534 0.446 0.535 0.390Q0.536 0.335 0.538 0.283Q0.539 0.230 0.540 0.190Q0.540 0.150 0.541 0.125Q0.541 0.101 0.540 0.102Q0.540 0.101 0.528 0.109Q0.515 0.118 0.500 0.132Q0.484 0.147 0.472 0.165Q0.459 0.182 0.459 0.199Q0.459 0.206 0.459 0.236Q0.459 0.266 0.459 0.310Q0.459 0.354 0.459 0.409Q0.459 0.463 0.459 0.517Q0.459 0.572 0.459 0.625Q0.459 0.677 0.460 0.717Q0.460 0.757 0.461 0.781Q0.461 0.805 0.462 0.803Z" fill="black"/>
</svg>
