<svg xmlns="http://www.w3.org/2000/svg" viewBox="0 0 1 1" preserveAspectRatio="xMidYMid meet">
  <path d="M0.379 0.659Q0.374 0.659 0.365 0.669Q0.355 0.680 0.345 0.695Q0.334 0.711 0.323 0.729Q0.313 0.748 0.304 0.763Q0.296 0.779 0.292 0.789Q0.289 0.800 0.292 0.800H0.487Q0.506 0.800 0.531 0.788Q0.556 0.777 0.578 0.756Q0.600 0.736 0.615 0.707Q0.630 0.678 0.630 0.643Q0.630 0.627 0.624 0.607Q0.619 0.587 0.613 0.567Q0.607 0.546 0.601 0.527Q0.596 0.508 0.596 0.494Q0.596 0.471 0.614 0.450Q0.632 0.430 0.653 0.414Q0.674 0.399 0.692 0.390Q0.710 0.381 0.710 0.381Q0.710 0.381 0.695 0.374Q0.680 0.368 0.662 0.355Q0.644 0.342 0.629 0.323Q0.614 0.304 0.614 0.280Q0.614 0.274 0.615 0.259Q0.617 0.243 0.619 0.222Q0.622 0.201 0.623 0.179Q0.625 0.157 0.625 0.137Q0.625 0.122 0.623 0.107Q0.622 0.092 0.616 0.079Q0.611 0.067 0.601 0.059Q0.592 0.052 0.577 0.052H0.399Q0.392 0.052 0.380 0.062Q0.368 0.073 0.355 0.088Q0.342 0.104 0.329 0.122Q0.315 0.141 0.306 0.156Q0.297 0.171 0.292 0.182Q0.288 0.192 0.292 0.192Q0.294 0.192 0.313 0.191Q0.331 0.189 0.358 0.187Q0.384 0.185 0.413 0.184Q0.441 0.182 0.462 0.182Q0.484 0.182 0.489 0.188Q0.494 0.193 0.494 0.219Q0.494 0.252 0.492 0.278Q0.490 0.304 0.490 0.328Q0.490 0.360 0.500 0.383Q0.510 0.406 0.523 0.421Q0.536 0.436 0.549 0.443Q0.563 0.450 0.571 0.450Q0.578 0.450 0.579 0.449Q0.580 0.448 0.585 0.446Q0.576 0.453 0.556 0.469Q0.537 0.485 0.517 0.504Q0.498 0.524 0.483 0.545Q0.469 0.566 0.469 0.583Q0.470 0.601 0.475 0.616Q0.480 0.630 0.480 0.645Q0.480 0.651 0.465 0.654Q0.449 0.657 0.431 0.658Q0.412 0.659 0.396 0.659Q0.380 0.659 0.379 0.659Z" fill="black"/>
</svg>
