<svg xmlns="http://www.w3.org/2000/svg" viewBox="0 0 1 1" preserveAspectRatio="xMidYMid meet">
  <path d="M0.264 0.510Q0.264 0.510 0.272 0.502Q0.280 0.494 0.293 0.484Q0.305 0.475 0.320 0.466Q0.335 0.458 0.349 0.458Q0.377 0.458 0.405 0.473Q0.433 0.489 0.462 0.506Q0.491 0.524 0.519 0.540Q0.548 0.555 0.578 0.555Q0.606 0.555 0.634 0.531Q0.662 0.506 0.684 0.477Q0.707 0.447 0.721 0.422Q0.736 0.398 0.736 0.398Q0.735 0.400 0.726 0.409Q0.718 0.418 0.701 0.429Q0.684 0.440 0.664 0.440Q0.640 0.440 0.615 0.425Q0.590 0.410 0.564 0.391Q0.538 0.373 0.511 0.358Q0.484 0.343 0.453 0.343Q0.432 0.343 0.406 0.360Q0.380 0.378 0.355 0.402Q0.331 0.426 0.310 0.451Q0.289 0.477 0.277 0.493Q0.265 0.509 0.264 0.510Z" fill="black"/>
</svg>
