<svg xmlns="http://www.w3.org/2000/svg" viewBox="0 0 1 1" preserveAspectRatio="xMidYMid meet">
  <path d="M0.570 0.201Q0.570 0.167 0.548 0.149Q0.526 0.132 0.500 0.132Q0.474 0.132 0.452 0.149Q0.430 0.167 0.430 0.201Q0.430 0.236 0.452 0.254Q0.474 0.271 0.500 0.271Q0.526 0.271 0.548 0.254Q0.570 0.236 0.570 0.201ZM0.450 0.201Q0.450 0.176 0.466 0.164Q0.481 0.152 0.500 0.152Q0.519 0.152 0.534 0.164Q0.550 0.176 0.550 0.201Q0.550 0.226 0.534 0.239Q0.519 0.251 0.500 0.251Q0.481 0.251 0.466 0.239Q0.450 0.226 0.450 0.201Z" fill="black"/>
</svg>
