<svg xmlns="http://www.w3.org/2000/svg" viewBox="0 0 1 1" preserveAspectRatio="xMidYMid meet">
  <path d="M0.512 0.153Q0.512 0.151 0.508 0.145Q0.504 0.140 0.500 0.135Q0.496 0.130 0.492 0.127Q0.489 0.125 0.489 0.128Q0.489 0.132 0.475 0.148Q0.462 0.165 0.443 0.184Q0.424 0.204 0.404 0.224Q0.384 0.244 0.371 0.257Q0.359 0.269 0.358 0.270Q0.359 0.269 0.374 0.258Q0.389 0.247 0.412 0.230Q0.436 0.212 0.458 0.196Q0.481 0.179 0.497 0.167Q0.512 0.154 0.512 0.153ZM0.642 0.153Q0.642 0.151 0.638 0.145Q0.634 0.140 0.630 0.135Q0.625 0.130 0.622 0.127Q0.618 0.125 0.618 0.128Q0.618 0.132 0.605 0.148Q0.591 0.165 0.572 0.184Q0.553 0.204 0.533 0.224Q0.513 0.244 0.501 0.257Q0.489 0.269 0.488 0.270Q0.489 0.269 0.503 0.258Q0.518 0.247 0.542 0.230Q0.565 0.212 0.588 0.196Q0.610 0.179 0.626 0.167Q0.642 0.154 0.642 0.153Z" fill="black"/>
</svg>
