<svg xmlns="http://www.w3.org/2000/svg" viewBox="0 0 1 1" preserveAspectRatio="xMidYMid meet">
  <path d="M0.501 0.658 0.525 0.424Q0.543 0.438 0.558 0.449Q0.573 0.460 0.578 0.460Q0.581 0.460 0.601 0.449Q0.621 0.438 0.644 0.424Q0.667 0.411 0.686 0.398Q0.705 0.386 0.705 0.383Q0.705 0.380 0.685 0.367Q0.666 0.354 0.642 0.339Q0.618 0.324 0.596 0.313Q0.574 0.301 0.570 0.301Q0.569 0.301 0.560 0.304Q0.551 0.306 0.536 0.311L0.552 0.152L0.500 0.181L0.486 0.330Q0.456 0.344 0.422 0.364Q0.388 0.384 0.360 0.412Q0.332 0.440 0.314 0.476Q0.295 0.512 0.295 0.557Q0.295 0.601 0.310 0.639Q0.325 0.677 0.347 0.707Q0.370 0.737 0.395 0.758Q0.420 0.780 0.441 0.790L0.425 0.948L0.478 0.903L0.489 0.794Q0.503 0.787 0.527 0.774Q0.551 0.761 0.573 0.748Q0.595 0.736 0.610 0.727Q0.625 0.718 0.622 0.718Q0.620 0.718 0.615 0.719Q0.610 0.721 0.605 0.721Q0.588 0.721 0.559 0.705Q0.530 0.690 0.501 0.658ZM0.481 0.386 0.460 0.596Q0.447 0.570 0.439 0.539Q0.432 0.507 0.432 0.471Q0.432 0.462 0.433 0.445Q0.435 0.428 0.438 0.410Q0.441 0.393 0.446 0.380Q0.451 0.367 0.457 0.367Q0.458 0.367 0.464 0.372Q0.471 0.378 0.481 0.386Z" fill="black"/>
</svg>
