<svg xmlns="http://www.w3.org/2000/svg" viewBox="0 0 1 1" preserveAspectRatio="xMidYMid meet">
  <path d="M0.597 0.725 0.671 0.800 0.691 0.779 0.618 0.705Q0.634 0.685 0.643 0.660Q0.652 0.635 0.652 0.607Q0.652 0.580 0.643 0.556Q0.634 0.531 0.618 0.511L0.690 0.439L0.669 0.419L0.598 0.491Q0.578 0.474 0.553 0.464Q0.528 0.455 0.499 0.455Q0.471 0.455 0.447 0.464Q0.422 0.473 0.402 0.490L0.330 0.418L0.309 0.438L0.381 0.510Q0.364 0.530 0.355 0.555Q0.346 0.580 0.346 0.607Q0.346 0.636 0.355 0.661Q0.364 0.686 0.381 0.706L0.309 0.779L0.330 0.800L0.402 0.726Q0.422 0.743 0.447 0.752Q0.471 0.761 0.499 0.761Q0.528 0.761 0.552 0.751Q0.577 0.742 0.597 0.725ZM0.499 0.484Q0.525 0.484 0.547 0.494Q0.570 0.503 0.587 0.520Q0.604 0.536 0.613 0.559Q0.623 0.582 0.623 0.607Q0.623 0.633 0.613 0.656Q0.604 0.679 0.587 0.696Q0.570 0.713 0.547 0.723Q0.525 0.733 0.499 0.733Q0.473 0.733 0.450 0.723Q0.427 0.713 0.411 0.696Q0.394 0.679 0.385 0.656Q0.375 0.633 0.375 0.607Q0.375 0.582 0.385 0.559Q0.394 0.536 0.411 0.520Q0.427 0.503 0.450 0.494Q0.473 0.484 0.499 0.484Z" fill="black"/>
</svg>
