<svg xmlns="http://www.w3.org/2000/svg" viewBox="0 0 1 1" preserveAspectRatio="xMidYMid meet">
  <path d="M0.423 0.800Q0.432 0.800 0.456 0.794Q0.480 0.788 0.507 0.779Q0.534 0.771 0.559 0.761Q0.585 0.752 0.597 0.746Q0.593 0.746 0.586 0.743Q0.579 0.740 0.572 0.735Q0.565 0.731 0.560 0.725Q0.555 0.719 0.555 0.712Q0.558 0.670 0.559 0.647Q0.561 0.624 0.563 0.624H0.710L0.740 0.600H0.564Q0.564 0.600 0.564 0.588Q0.564 0.575 0.564 0.565Q0.564 0.554 0.564 0.552H0.708L0.740 0.528H0.567Q0.566 0.528 0.580 0.516Q0.595 0.503 0.616 0.482Q0.638 0.461 0.663 0.434Q0.688 0.407 0.710 0.378Q0.732 0.349 0.747 0.321Q0.761 0.292 0.761 0.268Q0.761 0.236 0.752 0.206Q0.743 0.176 0.725 0.153Q0.707 0.130 0.680 0.116Q0.654 0.102 0.618 0.102Q0.581 0.102 0.549 0.120Q0.517 0.139 0.493 0.161Q0.469 0.182 0.456 0.201Q0.443 0.219 0.444 0.218Q0.470 0.196 0.504 0.196Q0.531 0.196 0.555 0.210Q0.580 0.224 0.598 0.246Q0.617 0.268 0.628 0.295Q0.639 0.322 0.639 0.348Q0.639 0.366 0.634 0.387Q0.629 0.409 0.619 0.430Q0.609 0.452 0.594 0.471Q0.579 0.491 0.559 0.504Q0.553 0.500 0.541 0.478Q0.529 0.456 0.513 0.424Q0.496 0.393 0.477 0.355Q0.458 0.317 0.440 0.280Q0.421 0.243 0.405 0.210Q0.388 0.176 0.377 0.155Q0.372 0.146 0.359 0.150Q0.347 0.154 0.330 0.164Q0.313 0.174 0.295 0.189Q0.278 0.204 0.264 0.217Q0.250 0.230 0.243 0.239Q0.236 0.247 0.241 0.245Q0.246 0.243 0.260 0.263Q0.275 0.282 0.294 0.312Q0.313 0.342 0.333 0.378Q0.352 0.415 0.370 0.447Q0.387 0.480 0.399 0.502Q0.411 0.525 0.412 0.528H0.279L0.243 0.552H0.422Q0.427 0.562 0.432 0.574Q0.437 0.586 0.439 0.600H0.279L0.243 0.624H0.440Q0.440 0.632 0.436 0.660Q0.432 0.688 0.428 0.719Q0.424 0.751 0.422 0.775Q0.419 0.800 0.423 0.800Z" fill="black"/>
</svg>
