<svg xmlns="http://www.w3.org/2000/svg" viewBox="0 0 1 1" preserveAspectRatio="xMidYMid meet">
  <path d="M0.460 0.446Q0.460 0.446 0.472 0.434Q0.485 0.422 0.500 0.406Q0.515 0.390 0.528 0.375Q0.540 0.361 0.540 0.355V0.102Q0.540 0.102 0.528 0.111Q0.515 0.120 0.500 0.134Q0.485 0.148 0.472 0.165Q0.460 0.182 0.460 0.199ZM0.460 0.800Q0.460 0.800 0.472 0.790Q0.485 0.781 0.500 0.767Q0.515 0.753 0.528 0.737Q0.540 0.721 0.540 0.709V0.456Q0.540 0.456 0.528 0.467Q0.515 0.479 0.500 0.495Q0.485 0.510 0.472 0.527Q0.460 0.543 0.460 0.553Z" fill="black"/>
</svg>
