<svg xmlns="http://www.w3.org/2000/svg" viewBox="0 0 1 1" preserveAspectRatio="xMidYMid meet">
  <path d="M0.704 0.602Q0.704 0.592 0.692 0.579Q0.680 0.566 0.665 0.555Q0.650 0.543 0.638 0.536Q0.626 0.528 0.626 0.528Q0.626 0.528 0.638 0.514Q0.649 0.500 0.663 0.480Q0.677 0.460 0.688 0.438Q0.700 0.416 0.700 0.400Q0.700 0.385 0.675 0.362Q0.650 0.339 0.612 0.313Q0.574 0.287 0.531 0.259Q0.488 0.231 0.450 0.207Q0.412 0.183 0.387 0.165Q0.362 0.146 0.362 0.137Q0.362 0.128 0.370 0.115Q0.378 0.103 0.389 0.091Q0.400 0.080 0.411 0.072Q0.423 0.064 0.431 0.064Q0.436 0.064 0.450 0.072Q0.465 0.081 0.485 0.093Q0.504 0.105 0.527 0.120Q0.549 0.135 0.569 0.147Q0.589 0.159 0.606 0.167Q0.622 0.175 0.629 0.175Q0.634 0.175 0.646 0.169Q0.658 0.163 0.671 0.153Q0.684 0.143 0.693 0.132Q0.703 0.122 0.703 0.113Q0.703 0.112 0.691 0.104Q0.679 0.096 0.660 0.083Q0.640 0.071 0.616 0.057Q0.592 0.043 0.569 0.031Q0.545 0.020 0.525 0.012Q0.505 0.004 0.494 0.004Q0.479 0.004 0.458 0.015Q0.438 0.026 0.416 0.044Q0.394 0.062 0.372 0.084Q0.351 0.107 0.334 0.129Q0.317 0.151 0.307 0.170Q0.296 0.190 0.296 0.203Q0.296 0.214 0.308 0.227Q0.320 0.240 0.334 0.251Q0.349 0.262 0.361 0.270Q0.373 0.278 0.373 0.278Q0.373 0.278 0.361 0.292Q0.350 0.306 0.336 0.326Q0.323 0.346 0.312 0.368Q0.300 0.390 0.300 0.406Q0.300 0.421 0.325 0.444Q0.350 0.467 0.388 0.493Q0.426 0.518 0.469 0.546Q0.512 0.574 0.550 0.598Q0.588 0.622 0.613 0.641Q0.638 0.660 0.638 0.669Q0.638 0.678 0.630 0.690Q0.622 0.703 0.611 0.714Q0.600 0.726 0.589 0.734Q0.577 0.742 0.569 0.742Q0.561 0.742 0.534 0.724Q0.506 0.707 0.474 0.686Q0.441 0.665 0.411 0.648Q0.382 0.630 0.371 0.630Q0.366 0.630 0.354 0.637Q0.342 0.643 0.329 0.653Q0.316 0.663 0.307 0.673Q0.297 0.684 0.297 0.693Q0.297 0.694 0.309 0.702Q0.321 0.710 0.340 0.722Q0.360 0.735 0.384 0.749Q0.408 0.763 0.431 0.774Q0.455 0.786 0.475 0.794Q0.495 0.802 0.506 0.802Q0.521 0.802 0.542 0.791Q0.562 0.780 0.584 0.762Q0.606 0.744 0.628 0.721Q0.649 0.699 0.666 0.677Q0.683 0.655 0.693 0.635Q0.704 0.615 0.704 0.602ZM0.605 0.515Q0.603 0.514 0.581 0.501Q0.558 0.488 0.523 0.466Q0.488 0.444 0.454 0.421Q0.421 0.399 0.396 0.379Q0.372 0.360 0.372 0.353Q0.372 0.340 0.378 0.325Q0.384 0.310 0.389 0.301Q0.394 0.291 0.395 0.290Q0.397 0.291 0.419 0.305Q0.442 0.318 0.477 0.340Q0.512 0.362 0.546 0.384Q0.579 0.407 0.604 0.426Q0.628 0.446 0.628 0.453Q0.628 0.466 0.622 0.481Q0.616 0.496 0.611 0.505Q0.606 0.514 0.605 0.515Z" fill="black"/>
</svg>
