<svg xmlns="http://www.w3.org/2000/svg" viewBox="0 0 1 1" preserveAspectRatio="xMidYMid meet">
  <path d="M0.559 0.206Q0.559 0.216 0.565 0.226Q0.571 0.236 0.579 0.245Q0.587 0.253 0.595 0.258Q0.603 0.263 0.608 0.263Q0.615 0.263 0.632 0.255Q0.649 0.247 0.666 0.234Q0.682 0.221 0.696 0.206Q0.709 0.191 0.709 0.177Q0.709 0.170 0.698 0.175Q0.687 0.180 0.675 0.184Q0.663 0.187 0.652 0.182Q0.641 0.177 0.641 0.151Q0.641 0.144 0.628 0.148Q0.615 0.153 0.600 0.163Q0.585 0.173 0.572 0.186Q0.559 0.198 0.559 0.206ZM0.291 0.206Q0.291 0.216 0.297 0.226Q0.303 0.236 0.311 0.245Q0.319 0.253 0.327 0.258Q0.335 0.263 0.340 0.263Q0.347 0.263 0.364 0.255Q0.380 0.247 0.398 0.234Q0.415 0.221 0.428 0.206Q0.441 0.191 0.441 0.177Q0.441 0.170 0.431 0.175Q0.420 0.180 0.407 0.184Q0.394 0.188 0.384 0.183Q0.373 0.178 0.373 0.151Q0.373 0.144 0.360 0.148Q0.347 0.153 0.332 0.163Q0.317 0.173 0.304 0.186Q0.291 0.198 0.291 0.206Z" fill="black"/>
</svg>
