<svg xmlns="http://www.w3.org/2000/svg" viewBox="0 0 1 1" preserveAspectRatio="xMidYMid meet">
  <path d="M0.771 0.373Q0.771 0.305 0.748 0.254Q0.724 0.203 0.686 0.169Q0.649 0.136 0.600 0.119Q0.551 0.103 0.500 0.103Q0.449 0.103 0.400 0.119Q0.351 0.136 0.314 0.169Q0.276 0.203 0.252 0.254Q0.229 0.305 0.229 0.373Q0.229 0.441 0.252 0.492Q0.276 0.542 0.314 0.576Q0.351 0.610 0.400 0.627Q0.449 0.644 0.500 0.644Q0.551 0.644 0.600 0.627Q0.649 0.610 0.686 0.576Q0.724 0.542 0.748 0.492Q0.771 0.441 0.771 0.373ZM0.257 0.373Q0.257 0.292 0.293 0.238Q0.329 0.183 0.383 0.157Q0.437 0.130 0.500 0.130Q0.563 0.130 0.617 0.157Q0.671 0.183 0.707 0.238Q0.743 0.292 0.743 0.373Q0.743 0.455 0.707 0.508Q0.671 0.562 0.617 0.589Q0.563 0.616 0.500 0.617Q0.437 0.617 0.383 0.590Q0.329 0.562 0.293 0.508Q0.257 0.454 0.257 0.373ZM0.600 0.273 0.621 0.251Q0.598 0.228 0.566 0.215Q0.535 0.201 0.500 0.201Q0.465 0.201 0.434 0.215Q0.402 0.228 0.379 0.251Q0.355 0.274 0.342 0.305Q0.329 0.336 0.329 0.371Q0.329 0.406 0.342 0.437Q0.355 0.468 0.379 0.491Q0.402 0.513 0.434 0.527Q0.465 0.540 0.500 0.540Q0.535 0.540 0.566 0.527Q0.597 0.514 0.620 0.492L0.598 0.471Q0.579 0.490 0.554 0.500Q0.529 0.510 0.500 0.510Q0.471 0.510 0.446 0.500Q0.420 0.489 0.401 0.470Q0.382 0.451 0.371 0.425Q0.360 0.400 0.360 0.371Q0.360 0.342 0.371 0.317Q0.382 0.291 0.401 0.272Q0.420 0.253 0.446 0.242Q0.471 0.231 0.500 0.231Q0.529 0.231 0.554 0.242Q0.580 0.253 0.600 0.273Z" fill="black"/>
</svg>
