<svg xmlns="http://www.w3.org/2000/svg" viewBox="0 0 1 1" preserveAspectRatio="xMidYMid meet">
  <path d="M0.533 0.303Q0.521 0.303 0.506 0.310Q0.491 0.316 0.477 0.325Q0.463 0.334 0.453 0.344Q0.443 0.355 0.443 0.364Q0.443 0.364 0.445 0.360Q0.448 0.356 0.452 0.351Q0.456 0.346 0.462 0.341Q0.468 0.337 0.474 0.337Q0.481 0.337 0.490 0.344Q0.500 0.351 0.507 0.362Q0.514 0.373 0.520 0.386Q0.525 0.399 0.525 0.410Q0.525 0.410 0.506 0.417Q0.488 0.425 0.465 0.437Q0.443 0.449 0.424 0.463Q0.406 0.478 0.406 0.491Q0.406 0.501 0.409 0.512Q0.412 0.523 0.417 0.532Q0.423 0.541 0.429 0.547Q0.436 0.552 0.443 0.552Q0.449 0.552 0.462 0.545Q0.476 0.538 0.490 0.530Q0.504 0.522 0.515 0.515Q0.525 0.508 0.525 0.508V0.552L0.595 0.516V0.366Q0.595 0.356 0.589 0.344Q0.582 0.333 0.573 0.324Q0.563 0.315 0.553 0.309Q0.542 0.303 0.533 0.303ZM0.463 0.460Q0.463 0.451 0.473 0.443Q0.483 0.435 0.494 0.429Q0.505 0.423 0.515 0.419Q0.525 0.416 0.525 0.416V0.501Q0.525 0.503 0.517 0.507Q0.508 0.510 0.499 0.510Q0.481 0.510 0.472 0.493Q0.463 0.475 0.463 0.460ZM0.400 0.625H0.580L0.600 0.595H0.420Z" fill="black"/>
</svg>
