<svg xmlns="http://www.w3.org/2000/svg" viewBox="0 0 1 1" preserveAspectRatio="xMidYMid meet">
  <path d="M0.491 0.538 0.385 0.556Q0.381 0.576 0.374 0.591Q0.366 0.605 0.350 0.618Q0.334 0.631 0.307 0.644Q0.280 0.656 0.235 0.672Q0.235 0.672 0.259 0.680Q0.284 0.688 0.316 0.703Q0.348 0.718 0.381 0.739Q0.413 0.761 0.430 0.789L0.526 0.767Q0.510 0.741 0.483 0.720Q0.456 0.699 0.430 0.684Q0.404 0.670 0.385 0.663Q0.366 0.655 0.366 0.655Q0.398 0.642 0.420 0.631Q0.441 0.619 0.455 0.606Q0.469 0.592 0.477 0.576Q0.485 0.560 0.491 0.538ZM0.730 0.538 0.625 0.556Q0.621 0.576 0.613 0.591Q0.606 0.605 0.590 0.618Q0.574 0.631 0.546 0.644Q0.519 0.656 0.474 0.672Q0.474 0.672 0.499 0.680Q0.523 0.688 0.555 0.703Q0.588 0.718 0.620 0.739Q0.653 0.761 0.669 0.789L0.765 0.767Q0.749 0.741 0.722 0.720Q0.695 0.699 0.669 0.684Q0.644 0.670 0.625 0.663Q0.606 0.655 0.606 0.655Q0.638 0.642 0.659 0.631Q0.680 0.619 0.694 0.606Q0.708 0.592 0.716 0.576Q0.724 0.560 0.730 0.538Z" fill="black"/>
</svg>
