<svg xmlns="http://www.w3.org/2000/svg" viewBox="0 0 1 1" preserveAspectRatio="xMidYMid meet">
  <path d="M0.717 0.222Q0.717 0.151 0.685 0.102Q0.653 0.054 0.605 0.030Q0.556 0.006 0.500 0.006Q0.444 0.006 0.395 0.030Q0.347 0.054 0.315 0.102Q0.283 0.151 0.283 0.222Q0.283 0.295 0.315 0.343Q0.347 0.391 0.395 0.415Q0.444 0.440 0.500 0.440Q0.556 0.440 0.605 0.415Q0.653 0.391 0.685 0.342Q0.717 0.294 0.717 0.222ZM0.305 0.222Q0.305 0.158 0.334 0.114Q0.363 0.071 0.406 0.049Q0.450 0.027 0.500 0.027Q0.550 0.027 0.594 0.049Q0.637 0.071 0.666 0.114Q0.695 0.158 0.695 0.222Q0.695 0.287 0.666 0.331Q0.637 0.374 0.594 0.396Q0.550 0.418 0.500 0.418Q0.450 0.418 0.406 0.396Q0.363 0.374 0.334 0.331Q0.305 0.287 0.305 0.222ZM0.419 0.372H0.449V0.212H0.489L0.558 0.372H0.588L0.518 0.212Q0.547 0.212 0.568 0.192Q0.588 0.171 0.588 0.143Q0.588 0.114 0.566 0.093Q0.544 0.073 0.518 0.073H0.419ZM0.449 0.182V0.103H0.518Q0.535 0.103 0.547 0.114Q0.558 0.126 0.558 0.143Q0.558 0.160 0.545 0.171Q0.532 0.182 0.518 0.182Z" fill="black"/>
</svg>
