<svg xmlns="http://www.w3.org/2000/svg" viewBox="0 0 1 1" preserveAspectRatio="xMidYMid meet">
  <path d="M0.277 0.251Q0.291 0.248 0.320 0.248Q0.349 0.247 0.386 0.247Q0.424 0.247 0.466 0.248Q0.507 0.249 0.544 0.250Q0.581 0.250 0.610 0.249Q0.639 0.248 0.651 0.244Q0.663 0.241 0.683 0.231Q0.703 0.220 0.719 0.210Q0.734 0.200 0.739 0.194Q0.743 0.187 0.725 0.191Q0.710 0.194 0.680 0.195Q0.651 0.196 0.613 0.196Q0.575 0.195 0.534 0.194Q0.493 0.193 0.456 0.193Q0.419 0.193 0.391 0.194Q0.363 0.195 0.351 0.199Q0.339 0.203 0.319 0.214Q0.298 0.224 0.282 0.234Q0.266 0.243 0.261 0.249Q0.257 0.255 0.277 0.251Z" fill="black"/>
</svg>
