<svg xmlns="http://www.w3.org/2000/svg" viewBox="0 0 1 1" preserveAspectRatio="xMidYMid meet">
  <path d="M0.521 0.800H0.484Q0.483 0.800 0.477 0.805Q0.471 0.810 0.464 0.818Q0.457 0.827 0.451 0.837Q0.445 0.847 0.445 0.859Q0.445 0.871 0.452 0.883Q0.459 0.894 0.469 0.902Q0.478 0.910 0.489 0.915Q0.499 0.920 0.505 0.920Q0.512 0.920 0.520 0.916Q0.529 0.912 0.536 0.908Q0.544 0.903 0.549 0.899Q0.555 0.894 0.555 0.892Q0.555 0.892 0.549 0.894Q0.544 0.896 0.535 0.896Q0.525 0.896 0.515 0.891Q0.505 0.886 0.497 0.879Q0.489 0.871 0.484 0.863Q0.479 0.854 0.479 0.848Q0.479 0.838 0.486 0.830Q0.492 0.822 0.500 0.815Q0.508 0.808 0.514 0.804Q0.521 0.800 0.521 0.800Z" fill="black"/>
</svg>
