<svg xmlns="http://www.w3.org/2000/svg" viewBox="0 0 1 1" preserveAspectRatio="xMidYMid meet">
  <path d="M0.477 0.319Q0.494 0.319 0.505 0.312Q0.517 0.304 0.532 0.295Q0.576 0.269 0.594 0.250Q0.612 0.230 0.612 0.200Q0.612 0.182 0.605 0.165Q0.599 0.148 0.587 0.134Q0.575 0.121 0.558 0.112Q0.541 0.104 0.519 0.104Q0.509 0.104 0.492 0.111Q0.474 0.118 0.456 0.127Q0.438 0.137 0.424 0.146Q0.409 0.155 0.406 0.159Q0.400 0.167 0.394 0.183Q0.388 0.200 0.388 0.219Q0.388 0.231 0.392 0.248Q0.396 0.265 0.407 0.281Q0.417 0.297 0.434 0.308Q0.451 0.319 0.477 0.319ZM0.470 0.131Q0.474 0.131 0.488 0.135Q0.501 0.139 0.516 0.150Q0.531 0.161 0.542 0.181Q0.554 0.202 0.554 0.236Q0.554 0.243 0.552 0.252Q0.550 0.261 0.546 0.270Q0.543 0.278 0.537 0.284Q0.531 0.290 0.523 0.290Q0.517 0.290 0.503 0.286Q0.490 0.282 0.477 0.271Q0.463 0.259 0.453 0.240Q0.442 0.221 0.442 0.191Q0.442 0.169 0.450 0.150Q0.457 0.131 0.470 0.131Z" fill="black"/>
</svg>
