<svg xmlns="http://www.w3.org/2000/svg" viewBox="0 0 1 1" preserveAspectRatio="xMidYMid meet">
  <path d="M0.435 0.318Q0.436 0.318 0.445 0.310Q0.455 0.301 0.465 0.291Q0.476 0.280 0.483 0.271Q0.491 0.262 0.489 0.260Q0.474 0.249 0.466 0.230Q0.459 0.211 0.457 0.193Q0.455 0.175 0.457 0.163Q0.460 0.150 0.465 0.150Q0.469 0.150 0.479 0.155Q0.490 0.161 0.500 0.172Q0.511 0.183 0.519 0.201Q0.527 0.218 0.527 0.241Q0.527 0.256 0.513 0.280Q0.500 0.303 0.482 0.329Q0.464 0.354 0.444 0.377Q0.425 0.401 0.412 0.415Q0.400 0.429 0.399 0.430H0.543Q0.545 0.430 0.553 0.422Q0.560 0.415 0.570 0.408Q0.575 0.404 0.583 0.399Q0.590 0.394 0.596 0.389Q0.602 0.385 0.606 0.382Q0.610 0.379 0.608 0.379H0.462Q0.463 0.378 0.476 0.364Q0.489 0.351 0.510 0.328Q0.531 0.305 0.550 0.280Q0.569 0.254 0.583 0.229Q0.597 0.203 0.597 0.186Q0.597 0.170 0.591 0.155Q0.584 0.140 0.574 0.128Q0.563 0.116 0.550 0.109Q0.537 0.102 0.524 0.102Q0.520 0.102 0.498 0.112Q0.477 0.123 0.453 0.142Q0.429 0.161 0.410 0.186Q0.391 0.211 0.391 0.242Q0.391 0.256 0.395 0.270Q0.400 0.284 0.406 0.295Q0.413 0.305 0.421 0.312Q0.429 0.318 0.435 0.318Z" fill="black"/>
</svg>
