<svg xmlns="http://www.w3.org/2000/svg" viewBox="0 0 1 1" preserveAspectRatio="xMidYMid meet">
  <path d="M0.424 0.164Q0.424 0.165 0.427 0.163Q0.430 0.161 0.435 0.158Q0.440 0.156 0.446 0.154Q0.453 0.152 0.459 0.152Q0.468 0.152 0.479 0.156Q0.490 0.160 0.499 0.167Q0.508 0.174 0.514 0.185Q0.520 0.195 0.520 0.209Q0.520 0.222 0.512 0.235Q0.503 0.247 0.494 0.257Q0.484 0.266 0.475 0.272Q0.467 0.277 0.467 0.277Q0.467 0.277 0.478 0.279Q0.489 0.281 0.502 0.288Q0.515 0.295 0.527 0.309Q0.538 0.323 0.538 0.348Q0.538 0.383 0.514 0.383Q0.506 0.383 0.495 0.378Q0.484 0.374 0.474 0.367Q0.464 0.361 0.457 0.353Q0.450 0.345 0.450 0.338Q0.450 0.337 0.441 0.342Q0.433 0.348 0.422 0.355Q0.412 0.363 0.403 0.371Q0.395 0.379 0.395 0.385Q0.395 0.390 0.399 0.398Q0.403 0.406 0.411 0.413Q0.419 0.420 0.430 0.425Q0.441 0.430 0.456 0.430Q0.466 0.430 0.487 0.416Q0.508 0.403 0.534 0.383Q0.561 0.363 0.583 0.342Q0.605 0.322 0.605 0.299Q0.605 0.275 0.594 0.262Q0.583 0.249 0.570 0.243Q0.556 0.236 0.545 0.235Q0.534 0.234 0.534 0.234Q0.534 0.234 0.543 0.227Q0.551 0.220 0.562 0.210Q0.572 0.199 0.581 0.187Q0.589 0.175 0.589 0.166Q0.589 0.140 0.565 0.121Q0.541 0.102 0.509 0.102Q0.499 0.102 0.484 0.111Q0.470 0.121 0.456 0.132Q0.443 0.144 0.433 0.153Q0.424 0.163 0.424 0.164Z" fill="black"/>
</svg>
