<svg xmlns="http://www.w3.org/2000/svg" viewBox="0 0 1 1" preserveAspectRatio="xMidYMid meet">
  <path d="M0.649 0.231Q0.651 0.231 0.650 0.221Q0.648 0.211 0.645 0.200Q0.643 0.188 0.640 0.181Q0.638 0.173 0.638 0.178Q0.638 0.184 0.616 0.193Q0.595 0.201 0.563 0.211Q0.531 0.221 0.493 0.231Q0.456 0.241 0.424 0.250Q0.392 0.258 0.371 0.263Q0.349 0.268 0.349 0.268Q0.349 0.268 0.371 0.266Q0.393 0.263 0.426 0.259Q0.459 0.254 0.497 0.250Q0.536 0.245 0.569 0.241Q0.603 0.236 0.626 0.234Q0.648 0.231 0.649 0.231Z" fill="black"/>
</svg>
