<svg xmlns="http://www.w3.org/2000/svg" viewBox="0 0 1 1" preserveAspectRatio="xMidYMid meet">
  <path d="M0.611 0.793 0.643 0.446Q0.643 0.446 0.641 0.442Q0.638 0.439 0.633 0.439H0.599Q0.595 0.439 0.594 0.442Q0.592 0.446 0.592 0.446L0.576 0.611Q0.574 0.632 0.569 0.655Q0.563 0.678 0.552 0.698Q0.540 0.718 0.523 0.731Q0.505 0.744 0.482 0.744Q0.457 0.744 0.442 0.722Q0.427 0.701 0.432 0.654L0.450 0.446Q0.450 0.446 0.448 0.442Q0.446 0.439 0.440 0.439H0.407Q0.403 0.439 0.401 0.442Q0.399 0.446 0.399 0.446L0.357 0.930Q0.357 0.930 0.359 0.934Q0.361 0.938 0.367 0.938H0.400Q0.404 0.938 0.406 0.934Q0.408 0.930 0.408 0.930L0.421 0.775H0.422Q0.430 0.792 0.444 0.796Q0.458 0.800 0.466 0.800Q0.502 0.800 0.526 0.779Q0.549 0.758 0.568 0.724L0.570 0.726L0.562 0.793Q0.562 0.793 0.565 0.796Q0.567 0.800 0.572 0.800H0.602Q0.606 0.800 0.609 0.796Q0.611 0.793 0.611 0.793Z" fill="black"/>
</svg>
