<svg xmlns="http://www.w3.org/2000/svg" viewBox="0 0 1 1" preserveAspectRatio="xMidYMid meet">
  <path d="M0.450 0.598Q0.471 0.598 0.495 0.591Q0.518 0.584 0.541 0.571Q0.564 0.557 0.585 0.538Q0.607 0.519 0.624 0.495V0.800H0.667V0.152H0.711V0.800H0.755V0.102H0.548Q0.529 0.102 0.503 0.109Q0.478 0.117 0.451 0.129Q0.424 0.141 0.397 0.155Q0.369 0.169 0.346 0.183Q0.324 0.197 0.308 0.209Q0.292 0.220 0.288 0.226Q0.273 0.246 0.259 0.284Q0.245 0.322 0.245 0.369Q0.245 0.413 0.259 0.454Q0.273 0.495 0.300 0.527Q0.327 0.559 0.364 0.579Q0.402 0.598 0.450 0.598ZM0.420 0.167Q0.434 0.159 0.468 0.155Q0.501 0.152 0.536 0.151Q0.571 0.151 0.597 0.151Q0.624 0.152 0.624 0.152V0.464Q0.624 0.477 0.616 0.489Q0.609 0.501 0.598 0.511Q0.588 0.521 0.577 0.527Q0.566 0.533 0.558 0.533Q0.525 0.533 0.492 0.515Q0.458 0.498 0.431 0.468Q0.404 0.438 0.387 0.398Q0.370 0.358 0.370 0.314Q0.370 0.295 0.373 0.272Q0.375 0.249 0.381 0.228Q0.387 0.207 0.397 0.191Q0.406 0.174 0.420 0.167Z" fill="black"/>
</svg>
