<svg xmlns="http://www.w3.org/2000/svg" viewBox="0 0 1 1" preserveAspectRatio="xMidYMid meet">
  <path d="M0.406 0.461Q0.406 0.469 0.416 0.477Q0.425 0.486 0.437 0.493Q0.449 0.500 0.461 0.505Q0.473 0.510 0.478 0.510Q0.480 0.510 0.499 0.500Q0.517 0.491 0.538 0.478Q0.559 0.465 0.576 0.454Q0.594 0.444 0.594 0.442Q0.594 0.438 0.584 0.429Q0.575 0.421 0.563 0.412Q0.551 0.404 0.540 0.397Q0.529 0.391 0.525 0.391Q0.516 0.391 0.496 0.401Q0.476 0.412 0.456 0.425Q0.436 0.438 0.421 0.449Q0.406 0.460 0.406 0.461Z" fill="black"/>
</svg>
