<svg xmlns="http://www.w3.org/2000/svg" viewBox="0 0 1 1" preserveAspectRatio="xMidYMid meet">
  <path d="M0.505 0.800Q0.503 0.800 0.495 0.799Q0.486 0.798 0.475 0.797Q0.465 0.797 0.465 0.800V0.853Q0.465 0.858 0.472 0.863Q0.480 0.868 0.489 0.874Q0.499 0.879 0.506 0.887Q0.513 0.894 0.513 0.904Q0.513 0.916 0.497 0.924Q0.481 0.932 0.466 0.935Q0.452 0.938 0.450 0.938Q0.450 0.943 0.460 0.943Q0.498 0.943 0.524 0.926Q0.550 0.909 0.550 0.886Q0.550 0.875 0.543 0.868Q0.536 0.860 0.528 0.855Q0.519 0.849 0.512 0.845Q0.505 0.841 0.505 0.838Z" fill="black"/>
</svg>
