<svg xmlns="http://www.w3.org/2000/svg" viewBox="0 0 1 1" preserveAspectRatio="xMidYMid meet">
  <path d="M0.454 0.163Q0.458 0.164 0.466 0.158Q0.474 0.152 0.474 0.153V0.432Q0.474 0.435 0.479 0.433Q0.483 0.431 0.489 0.427Q0.495 0.423 0.502 0.417Q0.509 0.412 0.514 0.408Q0.518 0.405 0.523 0.403Q0.529 0.401 0.534 0.399Q0.539 0.397 0.542 0.395Q0.546 0.393 0.546 0.389V0.108Q0.546 0.100 0.536 0.103Q0.527 0.107 0.513 0.116Q0.500 0.125 0.486 0.136Q0.472 0.147 0.464 0.154Q0.455 0.162 0.454 0.163Z" fill="black"/>
</svg>
