<svg xmlns="http://www.w3.org/2000/svg" viewBox="0 0 1 1" preserveAspectRatio="xMidYMid meet">
  <path d="M0.474 0.553Q0.495 0.553 0.508 0.545Q0.521 0.536 0.538 0.525Q0.564 0.510 0.582 0.498Q0.599 0.486 0.610 0.473Q0.621 0.460 0.626 0.446Q0.631 0.432 0.631 0.415Q0.631 0.394 0.624 0.373Q0.616 0.353 0.603 0.337Q0.589 0.322 0.569 0.312Q0.548 0.302 0.523 0.302Q0.511 0.302 0.491 0.311Q0.471 0.319 0.450 0.330Q0.429 0.341 0.412 0.351Q0.396 0.362 0.393 0.366Q0.385 0.376 0.377 0.395Q0.370 0.415 0.370 0.438Q0.370 0.452 0.375 0.472Q0.380 0.492 0.392 0.509Q0.404 0.527 0.424 0.540Q0.444 0.553 0.474 0.553ZM0.466 0.333Q0.470 0.333 0.486 0.337Q0.502 0.342 0.519 0.355Q0.536 0.369 0.550 0.393Q0.564 0.417 0.564 0.457Q0.564 0.465 0.562 0.476Q0.559 0.487 0.555 0.496Q0.550 0.505 0.543 0.512Q0.536 0.519 0.527 0.519Q0.520 0.519 0.505 0.514Q0.490 0.509 0.474 0.497Q0.458 0.485 0.446 0.462Q0.434 0.440 0.434 0.405Q0.434 0.392 0.436 0.379Q0.439 0.367 0.443 0.356Q0.447 0.346 0.453 0.339Q0.459 0.333 0.466 0.333ZM0.613 0.625 0.633 0.595H0.387L0.367 0.625Z" fill="black"/>
</svg>
