<svg xmlns="http://www.w3.org/2000/svg" viewBox="0 0 1 1" preserveAspectRatio="xMidYMid meet">
  <path d="M0.509 0.789 0.615 0.771Q0.619 0.752 0.626 0.737Q0.634 0.722 0.650 0.709Q0.666 0.696 0.693 0.683Q0.720 0.671 0.765 0.655Q0.765 0.655 0.741 0.647Q0.716 0.639 0.684 0.624Q0.652 0.609 0.619 0.588Q0.586 0.566 0.570 0.538L0.474 0.560Q0.490 0.586 0.517 0.607Q0.544 0.628 0.570 0.643Q0.596 0.657 0.615 0.665Q0.634 0.672 0.634 0.672Q0.602 0.685 0.580 0.696Q0.559 0.708 0.545 0.721Q0.531 0.735 0.523 0.751Q0.515 0.767 0.509 0.789ZM0.270 0.789 0.375 0.771Q0.379 0.752 0.387 0.737Q0.394 0.722 0.410 0.709Q0.426 0.696 0.454 0.683Q0.481 0.671 0.526 0.655Q0.526 0.655 0.501 0.647Q0.477 0.639 0.445 0.624Q0.412 0.609 0.379 0.588Q0.346 0.566 0.331 0.538L0.235 0.560Q0.251 0.586 0.278 0.607Q0.305 0.628 0.331 0.643Q0.356 0.657 0.375 0.665Q0.394 0.672 0.394 0.672Q0.362 0.685 0.341 0.696Q0.320 0.708 0.306 0.721Q0.292 0.735 0.284 0.751Q0.276 0.767 0.270 0.789Z" fill="black"/>
</svg>
