<svg xmlns="http://www.w3.org/2000/svg" viewBox="0 0 1 1" preserveAspectRatio="xMidYMid meet">
  <path d="M0.458 0.163Q0.462 0.164 0.470 0.158Q0.478 0.152 0.478 0.153V0.432Q0.478 0.435 0.482 0.433Q0.487 0.431 0.493 0.427Q0.499 0.423 0.505 0.417Q0.512 0.412 0.517 0.408Q0.521 0.405 0.527 0.403Q0.532 0.401 0.537 0.399Q0.542 0.397 0.546 0.395Q0.549 0.393 0.549 0.389V0.108Q0.549 0.100 0.540 0.103Q0.530 0.107 0.517 0.116Q0.503 0.125 0.490 0.136Q0.476 0.147 0.467 0.154Q0.459 0.162 0.458 0.163ZM0.341 0.464H0.639L0.659 0.444H0.361ZM0.484 0.678V0.793Q0.484 0.793 0.488 0.796Q0.493 0.800 0.497 0.800Q0.498 0.800 0.512 0.790Q0.526 0.780 0.539 0.771Q0.551 0.763 0.553 0.762Q0.548 0.757 0.548 0.750V0.678Q0.549 0.678 0.557 0.678Q0.565 0.678 0.575 0.679Q0.584 0.681 0.584 0.685Q0.584 0.686 0.588 0.680Q0.592 0.674 0.599 0.664Q0.606 0.654 0.616 0.643Q0.626 0.631 0.638 0.620L0.549 0.623V0.472Q0.529 0.484 0.507 0.503Q0.486 0.523 0.463 0.546Q0.441 0.569 0.421 0.593Q0.401 0.616 0.385 0.635Q0.370 0.654 0.360 0.666Q0.351 0.678 0.352 0.678ZM0.410 0.623Q0.408 0.623 0.418 0.612Q0.429 0.600 0.442 0.586Q0.456 0.571 0.468 0.560Q0.481 0.548 0.484 0.548V0.623Z" fill="black"/>
</svg>
