<svg xmlns="http://www.w3.org/2000/svg" viewBox="0 0 1 1" preserveAspectRatio="xMidYMid meet">
  <path d="M0.456 0.163Q0.460 0.164 0.468 0.158Q0.476 0.152 0.476 0.153V0.432Q0.476 0.435 0.480 0.433Q0.485 0.431 0.491 0.427Q0.497 0.423 0.503 0.417Q0.510 0.412 0.515 0.408Q0.519 0.405 0.525 0.403Q0.530 0.401 0.535 0.399Q0.540 0.397 0.544 0.395Q0.547 0.393 0.547 0.389V0.108Q0.547 0.100 0.538 0.103Q0.528 0.107 0.515 0.116Q0.501 0.125 0.488 0.136Q0.474 0.147 0.465 0.154Q0.457 0.162 0.456 0.163ZM0.426 0.688Q0.427 0.688 0.436 0.679Q0.446 0.671 0.456 0.661Q0.467 0.650 0.474 0.641Q0.482 0.632 0.480 0.630Q0.465 0.619 0.457 0.600Q0.450 0.581 0.448 0.563Q0.446 0.545 0.448 0.532Q0.451 0.519 0.456 0.519Q0.460 0.519 0.470 0.525Q0.481 0.530 0.491 0.542Q0.501 0.553 0.509 0.571Q0.517 0.588 0.517 0.611Q0.517 0.626 0.504 0.650Q0.491 0.673 0.473 0.698Q0.455 0.724 0.435 0.747Q0.416 0.771 0.403 0.785Q0.391 0.799 0.390 0.800H0.533Q0.535 0.800 0.543 0.792Q0.551 0.785 0.561 0.778Q0.566 0.774 0.574 0.769Q0.581 0.764 0.587 0.759Q0.593 0.755 0.597 0.752Q0.601 0.749 0.599 0.749H0.453Q0.454 0.748 0.467 0.734Q0.480 0.721 0.500 0.698Q0.521 0.675 0.541 0.650Q0.560 0.624 0.574 0.599Q0.588 0.573 0.588 0.556Q0.588 0.540 0.582 0.525Q0.575 0.509 0.565 0.498Q0.554 0.486 0.541 0.479Q0.527 0.472 0.514 0.472Q0.510 0.472 0.489 0.482Q0.468 0.493 0.444 0.511Q0.420 0.530 0.401 0.556Q0.382 0.581 0.382 0.612Q0.382 0.626 0.386 0.640Q0.391 0.654 0.397 0.665Q0.404 0.675 0.412 0.681Q0.420 0.688 0.426 0.688ZM0.364 0.464H0.616L0.636 0.444H0.384Z" fill="black"/>
</svg>
