<svg xmlns="http://www.w3.org/2000/svg" viewBox="0 0 1 1" preserveAspectRatio="xMidYMid meet">
  <path d="M0.544 0.099Q0.540 0.099 0.519 0.113Q0.499 0.128 0.476 0.145Q0.453 0.163 0.435 0.177Q0.416 0.192 0.416 0.194Q0.416 0.194 0.423 0.209Q0.429 0.224 0.438 0.242Q0.447 0.260 0.456 0.275Q0.464 0.290 0.469 0.290Q0.470 0.290 0.489 0.276Q0.508 0.262 0.530 0.244Q0.552 0.226 0.570 0.210Q0.589 0.194 0.589 0.190Q0.589 0.185 0.583 0.170Q0.577 0.156 0.569 0.140Q0.561 0.124 0.554 0.111Q0.547 0.099 0.544 0.099ZM0.599 0.299Q0.599 0.296 0.589 0.302Q0.579 0.307 0.564 0.318Q0.549 0.328 0.532 0.341Q0.515 0.354 0.500 0.366Q0.485 0.378 0.475 0.387Q0.465 0.396 0.465 0.398Q0.465 0.444 0.457 0.475Q0.449 0.505 0.438 0.528Q0.426 0.550 0.412 0.567Q0.398 0.583 0.387 0.601Q0.375 0.618 0.367 0.639Q0.359 0.659 0.359 0.689Q0.359 0.711 0.372 0.731Q0.385 0.751 0.407 0.766Q0.428 0.782 0.457 0.791Q0.486 0.800 0.519 0.800Q0.535 0.800 0.558 0.784Q0.581 0.769 0.601 0.750Q0.622 0.731 0.633 0.715Q0.645 0.700 0.639 0.700Q0.570 0.700 0.536 0.671Q0.502 0.642 0.502 0.588Q0.502 0.567 0.517 0.542Q0.532 0.516 0.550 0.483Q0.569 0.449 0.584 0.404Q0.599 0.359 0.599 0.299Z" fill="black"/>
</svg>
