<svg xmlns="http://www.w3.org/2000/svg" viewBox="0 0 1 1" preserveAspectRatio="xMidYMid meet">
  <path d="M0.618 0.185Q0.617 0.182 0.602 0.190Q0.588 0.198 0.570 0.208Q0.553 0.218 0.538 0.227Q0.524 0.236 0.523 0.236Q0.522 0.236 0.508 0.228Q0.493 0.219 0.476 0.209Q0.458 0.198 0.443 0.190Q0.428 0.181 0.427 0.182Q0.421 0.186 0.406 0.199Q0.390 0.211 0.382 0.223Q0.381 0.225 0.398 0.233Q0.415 0.241 0.437 0.250Q0.458 0.258 0.477 0.265Q0.495 0.272 0.496 0.272Q0.497 0.272 0.516 0.259Q0.535 0.246 0.558 0.230Q0.581 0.214 0.599 0.201Q0.618 0.187 0.618 0.185Z" fill="black"/>
</svg>
