<svg xmlns="http://www.w3.org/2000/svg" viewBox="0 0 1 1" preserveAspectRatio="xMidYMid meet">
  <path d="M0.160 0.348Q0.160 0.385 0.172 0.402Q0.184 0.419 0.199 0.425Q0.214 0.431 0.228 0.430Q0.242 0.429 0.247 0.429Q0.250 0.429 0.266 0.415Q0.282 0.402 0.299 0.385Q0.316 0.369 0.327 0.355Q0.339 0.342 0.335 0.342Q0.307 0.342 0.290 0.335Q0.274 0.328 0.266 0.313Q0.257 0.298 0.255 0.275Q0.252 0.252 0.252 0.220Q0.252 0.198 0.269 0.191Q0.286 0.184 0.329 0.184Q0.347 0.184 0.368 0.192Q0.390 0.200 0.408 0.213Q0.426 0.225 0.437 0.240Q0.449 0.254 0.447 0.266Q0.447 0.268 0.462 0.257Q0.476 0.246 0.494 0.231Q0.511 0.216 0.526 0.202Q0.540 0.187 0.540 0.182Q0.540 0.169 0.530 0.155Q0.520 0.141 0.501 0.129Q0.482 0.118 0.456 0.110Q0.431 0.103 0.400 0.103Q0.370 0.103 0.350 0.109Q0.331 0.116 0.315 0.126Q0.300 0.137 0.286 0.152Q0.272 0.167 0.255 0.182Q0.237 0.200 0.220 0.218Q0.202 0.236 0.189 0.256Q0.176 0.276 0.168 0.299Q0.160 0.321 0.160 0.348ZM0.526 0.571Q0.532 0.571 0.550 0.559Q0.567 0.547 0.587 0.533Q0.606 0.519 0.621 0.508Q0.636 0.498 0.636 0.500Q0.636 0.592 0.645 0.651Q0.654 0.709 0.667 0.743Q0.680 0.777 0.694 0.789Q0.709 0.802 0.720 0.802Q0.721 0.801 0.735 0.791Q0.749 0.781 0.769 0.765Q0.789 0.749 0.807 0.735Q0.825 0.721 0.835 0.712Q0.844 0.703 0.835 0.706Q0.818 0.712 0.802 0.701Q0.785 0.691 0.772 0.658Q0.760 0.625 0.752 0.568Q0.744 0.510 0.744 0.424V0.166Q0.744 0.137 0.738 0.128Q0.733 0.119 0.730 0.119Q0.726 0.119 0.712 0.126Q0.699 0.133 0.683 0.141Q0.667 0.150 0.652 0.158Q0.637 0.166 0.631 0.167Q0.577 0.182 0.539 0.212Q0.501 0.241 0.475 0.276Q0.449 0.311 0.434 0.348Q0.419 0.385 0.411 0.416Q0.403 0.447 0.400 0.467Q0.398 0.487 0.398 0.488Q0.398 0.539 0.375 0.582Q0.353 0.625 0.318 0.657Q0.316 0.659 0.296 0.671Q0.277 0.684 0.252 0.701Q0.226 0.718 0.203 0.736Q0.179 0.754 0.170 0.767Q0.167 0.771 0.173 0.768Q0.179 0.766 0.188 0.762Q0.196 0.758 0.204 0.754Q0.212 0.750 0.214 0.750Q0.226 0.750 0.250 0.758Q0.274 0.766 0.301 0.775Q0.328 0.784 0.352 0.792Q0.377 0.800 0.389 0.800Q0.399 0.800 0.417 0.788Q0.436 0.776 0.453 0.762Q0.471 0.748 0.484 0.736Q0.497 0.724 0.497 0.724Q0.496 0.724 0.479 0.718Q0.461 0.713 0.434 0.705Q0.407 0.697 0.382 0.689Q0.357 0.681 0.340 0.674Q0.323 0.667 0.327 0.665Q0.345 0.655 0.366 0.638Q0.387 0.620 0.406 0.602Q0.426 0.583 0.441 0.567Q0.456 0.551 0.464 0.542Q0.466 0.540 0.474 0.545Q0.481 0.549 0.491 0.555Q0.500 0.561 0.510 0.566Q0.520 0.571 0.526 0.571ZM0.488 0.495Q0.488 0.487 0.492 0.461Q0.495 0.435 0.503 0.401Q0.511 0.367 0.523 0.329Q0.534 0.291 0.551 0.260Q0.567 0.228 0.588 0.208Q0.609 0.187 0.635 0.187V0.487Q0.635 0.489 0.622 0.484Q0.610 0.479 0.595 0.472Q0.579 0.465 0.565 0.458Q0.551 0.452 0.549 0.449Q0.547 0.452 0.537 0.460Q0.527 0.468 0.516 0.476Q0.505 0.484 0.497 0.490Q0.488 0.496 0.488 0.495ZM0.412 0.011Q0.412 0.006 0.409 0.013Q0.407 0.021 0.404 0.032Q0.401 0.044 0.399 0.054Q0.398 0.064 0.400 0.064Q0.401 0.064 0.424 0.066Q0.446 0.069 0.480 0.073Q0.513 0.078 0.552 0.082Q0.590 0.087 0.623 0.091Q0.656 0.096 0.678 0.098Q0.700 0.101 0.700 0.101Q0.700 0.101 0.678 0.096Q0.657 0.091 0.625 0.082Q0.593 0.074 0.556 0.064Q0.518 0.054 0.486 0.044Q0.454 0.034 0.433 0.025Q0.412 0.016 0.412 0.011Z" fill="black"/>
</svg>
