<svg xmlns="http://www.w3.org/2000/svg" viewBox="0 0 1 1" preserveAspectRatio="xMidYMid meet">
  <path d="M0.056 0.348Q0.056 0.385 0.068 0.402Q0.080 0.419 0.095 0.425Q0.110 0.431 0.124 0.430Q0.138 0.429 0.143 0.429Q0.146 0.429 0.162 0.415Q0.178 0.402 0.195 0.385Q0.212 0.369 0.223 0.355Q0.235 0.342 0.231 0.342Q0.203 0.342 0.186 0.335Q0.170 0.328 0.162 0.313Q0.153 0.298 0.151 0.275Q0.148 0.252 0.148 0.220Q0.148 0.198 0.165 0.191Q0.182 0.184 0.225 0.184Q0.243 0.184 0.264 0.192Q0.286 0.200 0.304 0.213Q0.322 0.225 0.334 0.240Q0.346 0.254 0.344 0.266Q0.344 0.268 0.358 0.257Q0.372 0.246 0.390 0.231Q0.407 0.216 0.422 0.202Q0.436 0.187 0.436 0.182Q0.436 0.169 0.426 0.155Q0.416 0.141 0.397 0.129Q0.378 0.118 0.353 0.110Q0.327 0.103 0.296 0.103Q0.266 0.103 0.246 0.109Q0.227 0.116 0.211 0.126Q0.196 0.137 0.182 0.152Q0.168 0.167 0.151 0.182Q0.133 0.200 0.116 0.218Q0.098 0.236 0.085 0.256Q0.072 0.276 0.064 0.299Q0.056 0.321 0.056 0.348ZM0.860 0.716Q0.848 0.716 0.817 0.707Q0.786 0.698 0.754 0.686Q0.721 0.675 0.695 0.666Q0.669 0.657 0.666 0.657Q0.652 0.657 0.647 0.658Q0.643 0.659 0.638 0.663Q0.640 0.659 0.640 0.657Q0.641 0.654 0.641 0.645V0.451Q0.641 0.451 0.657 0.458Q0.673 0.466 0.692 0.475Q0.712 0.485 0.729 0.492Q0.745 0.500 0.747 0.500Q0.754 0.500 0.767 0.493Q0.780 0.486 0.795 0.475Q0.810 0.465 0.826 0.453Q0.841 0.442 0.852 0.432Q0.863 0.422 0.868 0.415Q0.874 0.409 0.870 0.410Q0.865 0.411 0.846 0.403Q0.826 0.395 0.803 0.384Q0.780 0.374 0.760 0.365Q0.740 0.356 0.734 0.356Q0.728 0.356 0.713 0.368Q0.697 0.381 0.682 0.396Q0.666 0.412 0.653 0.424Q0.641 0.437 0.641 0.437V0.211Q0.641 0.204 0.661 0.208Q0.682 0.212 0.707 0.220Q0.732 0.227 0.755 0.235Q0.777 0.242 0.781 0.242Q0.792 0.242 0.812 0.230Q0.831 0.217 0.850 0.202Q0.869 0.186 0.883 0.174Q0.897 0.162 0.897 0.162Q0.897 0.162 0.874 0.153Q0.851 0.145 0.823 0.134Q0.794 0.124 0.769 0.115Q0.743 0.107 0.738 0.107Q0.736 0.107 0.727 0.110Q0.717 0.114 0.704 0.120Q0.690 0.126 0.674 0.135Q0.658 0.144 0.640 0.154Q0.638 0.133 0.633 0.126Q0.629 0.119 0.626 0.119Q0.622 0.119 0.608 0.126Q0.595 0.133 0.579 0.141Q0.563 0.150 0.548 0.158Q0.533 0.166 0.527 0.167Q0.473 0.182 0.435 0.212Q0.397 0.241 0.371 0.276Q0.346 0.311 0.330 0.348Q0.315 0.385 0.307 0.416Q0.299 0.447 0.296 0.467Q0.294 0.487 0.294 0.488Q0.294 0.539 0.271 0.582Q0.249 0.625 0.214 0.657Q0.212 0.659 0.192 0.671Q0.173 0.684 0.148 0.701Q0.122 0.718 0.099 0.736Q0.075 0.754 0.066 0.767Q0.063 0.771 0.069 0.768Q0.075 0.766 0.084 0.762Q0.092 0.758 0.100 0.754Q0.108 0.750 0.110 0.750Q0.122 0.750 0.146 0.758Q0.170 0.766 0.197 0.775Q0.224 0.784 0.248 0.792Q0.273 0.800 0.285 0.800Q0.295 0.800 0.313 0.788Q0.332 0.776 0.350 0.762Q0.367 0.748 0.380 0.736Q0.393 0.724 0.393 0.724Q0.392 0.724 0.375 0.718Q0.357 0.713 0.330 0.705Q0.303 0.697 0.278 0.689Q0.253 0.681 0.236 0.674Q0.219 0.667 0.223 0.665Q0.241 0.655 0.262 0.638Q0.283 0.620 0.302 0.602Q0.322 0.583 0.337 0.567Q0.353 0.551 0.360 0.542Q0.362 0.540 0.370 0.545Q0.377 0.549 0.387 0.555Q0.396 0.561 0.406 0.566Q0.416 0.571 0.422 0.571Q0.428 0.571 0.446 0.559Q0.463 0.547 0.483 0.533Q0.502 0.519 0.517 0.508Q0.532 0.498 0.532 0.500Q0.532 0.602 0.527 0.661Q0.523 0.720 0.518 0.751Q0.512 0.782 0.508 0.791Q0.503 0.800 0.503 0.802Q0.503 0.802 0.505 0.802Q0.506 0.803 0.508 0.803Q0.515 0.803 0.528 0.795Q0.541 0.787 0.556 0.777Q0.571 0.767 0.586 0.759Q0.602 0.751 0.615 0.751Q0.621 0.751 0.638 0.758Q0.655 0.766 0.675 0.775Q0.694 0.784 0.714 0.791Q0.734 0.799 0.746 0.799Q0.764 0.799 0.788 0.789Q0.811 0.779 0.835 0.763Q0.859 0.748 0.881 0.731Q0.903 0.714 0.918 0.700Q0.934 0.686 0.940 0.678Q0.947 0.670 0.941 0.674Q0.915 0.689 0.896 0.702Q0.877 0.716 0.860 0.716ZM0.384 0.495Q0.384 0.487 0.388 0.461Q0.391 0.435 0.399 0.401Q0.407 0.367 0.419 0.329Q0.430 0.291 0.447 0.260Q0.463 0.228 0.484 0.208Q0.505 0.187 0.531 0.187V0.487Q0.531 0.489 0.519 0.484Q0.506 0.479 0.491 0.472Q0.475 0.465 0.461 0.458Q0.447 0.452 0.445 0.449Q0.443 0.452 0.433 0.460Q0.423 0.468 0.412 0.476Q0.401 0.484 0.393 0.490Q0.384 0.496 0.384 0.495Z" fill="black"/>
</svg>
