<svg xmlns="http://www.w3.org/2000/svg" viewBox="0 0 1 1" preserveAspectRatio="xMidYMid meet">
  <path d="M0.143 0.704Q0.143 0.704 0.159 0.713Q0.174 0.723 0.192 0.738Q0.210 0.753 0.225 0.771Q0.240 0.789 0.239 0.807Q0.239 0.807 0.255 0.792Q0.271 0.777 0.294 0.759Q0.317 0.741 0.343 0.726Q0.369 0.711 0.390 0.711Q0.419 0.711 0.460 0.725Q0.501 0.739 0.541 0.755Q0.580 0.772 0.612 0.785Q0.645 0.799 0.658 0.799Q0.677 0.799 0.700 0.789Q0.724 0.779 0.748 0.763Q0.771 0.748 0.793 0.731Q0.815 0.714 0.831 0.700Q0.846 0.686 0.853 0.678Q0.860 0.670 0.853 0.674Q0.827 0.689 0.808 0.702Q0.788 0.716 0.771 0.716Q0.754 0.716 0.718 0.704Q0.682 0.692 0.639 0.677Q0.597 0.663 0.556 0.651Q0.515 0.639 0.491 0.639Q0.467 0.639 0.443 0.650Q0.418 0.660 0.399 0.672Q0.379 0.684 0.366 0.694Q0.353 0.705 0.353 0.705Q0.353 0.701 0.344 0.688Q0.336 0.676 0.323 0.663Q0.310 0.650 0.294 0.640Q0.279 0.630 0.264 0.630Q0.264 0.630 0.283 0.614Q0.303 0.597 0.326 0.574Q0.349 0.550 0.368 0.525Q0.388 0.500 0.388 0.481V0.201Q0.388 0.178 0.401 0.161Q0.414 0.144 0.429 0.132Q0.444 0.120 0.457 0.114Q0.470 0.108 0.470 0.108Q0.468 0.108 0.450 0.113Q0.432 0.119 0.404 0.130Q0.376 0.142 0.348 0.159Q0.321 0.175 0.301 0.199Q0.282 0.223 0.282 0.253V0.548Q0.282 0.572 0.260 0.600Q0.239 0.627 0.213 0.650Q0.186 0.673 0.165 0.688Q0.143 0.704 0.143 0.704ZM0.392 0.611Q0.393 0.610 0.409 0.601Q0.424 0.592 0.449 0.575Q0.473 0.558 0.497 0.538Q0.520 0.517 0.537 0.495Q0.554 0.473 0.554 0.452Q0.554 0.452 0.570 0.459Q0.586 0.467 0.606 0.476Q0.626 0.485 0.642 0.492Q0.659 0.500 0.661 0.500Q0.668 0.500 0.681 0.493Q0.694 0.486 0.709 0.475Q0.724 0.465 0.739 0.453Q0.754 0.442 0.765 0.432Q0.776 0.422 0.782 0.415Q0.787 0.409 0.783 0.410Q0.778 0.411 0.759 0.403Q0.740 0.395 0.717 0.384Q0.694 0.374 0.674 0.365Q0.654 0.356 0.648 0.356Q0.642 0.356 0.626 0.368Q0.611 0.381 0.594 0.396Q0.578 0.412 0.566 0.424Q0.553 0.437 0.553 0.437V0.211Q0.553 0.204 0.574 0.208Q0.594 0.212 0.619 0.220Q0.645 0.227 0.667 0.235Q0.690 0.242 0.694 0.242Q0.705 0.242 0.724 0.230Q0.744 0.217 0.762 0.202Q0.781 0.186 0.795 0.174Q0.809 0.162 0.809 0.162Q0.809 0.162 0.786 0.153Q0.763 0.145 0.735 0.134Q0.707 0.124 0.681 0.115Q0.656 0.107 0.651 0.107Q0.648 0.107 0.631 0.113Q0.615 0.120 0.592 0.132Q0.570 0.144 0.545 0.159Q0.519 0.174 0.498 0.193Q0.476 0.211 0.462 0.231Q0.447 0.251 0.447 0.271V0.487Q0.447 0.511 0.438 0.534Q0.429 0.556 0.419 0.574Q0.409 0.591 0.400 0.601Q0.392 0.611 0.392 0.611ZM0.681 0.062Q0.683 0.062 0.681 0.052Q0.680 0.042 0.677 0.030Q0.674 0.019 0.671 0.011Q0.669 0.004 0.669 0.009Q0.669 0.015 0.647 0.023Q0.626 0.032 0.594 0.042Q0.562 0.052 0.525 0.062Q0.487 0.072 0.455 0.080Q0.423 0.089 0.402 0.094Q0.381 0.099 0.381 0.099Q0.381 0.099 0.403 0.096Q0.424 0.094 0.457 0.089Q0.490 0.085 0.529 0.080Q0.567 0.076 0.600 0.071Q0.634 0.067 0.657 0.064Q0.680 0.062 0.681 0.062Z" fill="black"/>
</svg>
