<svg xmlns="http://www.w3.org/2000/svg" viewBox="0 0 1 1" preserveAspectRatio="xMidYMid meet">
  <path d="M0.238 0.251Q0.257 0.235 0.274 0.226Q0.290 0.216 0.308 0.211Q0.325 0.206 0.343 0.205Q0.362 0.203 0.385 0.203L0.645 0.198Q0.648 0.198 0.628 0.216Q0.607 0.234 0.575 0.261Q0.543 0.288 0.506 0.320Q0.469 0.351 0.437 0.378Q0.406 0.405 0.387 0.423Q0.368 0.441 0.373 0.441Q0.382 0.441 0.397 0.451Q0.413 0.462 0.428 0.474Q0.444 0.487 0.455 0.497Q0.467 0.507 0.467 0.507L0.369 0.594Q0.369 0.594 0.365 0.593Q0.362 0.592 0.358 0.592Q0.354 0.592 0.342 0.600Q0.331 0.607 0.317 0.618Q0.302 0.629 0.287 0.643Q0.272 0.656 0.260 0.667Q0.248 0.678 0.241 0.685Q0.234 0.693 0.237 0.693Q0.251 0.693 0.273 0.701Q0.295 0.709 0.320 0.721Q0.345 0.733 0.371 0.746Q0.397 0.760 0.419 0.772Q0.441 0.784 0.456 0.792Q0.472 0.800 0.476 0.800Q0.479 0.800 0.498 0.785Q0.518 0.771 0.546 0.748Q0.574 0.726 0.606 0.699Q0.638 0.673 0.665 0.649Q0.692 0.624 0.710 0.606Q0.728 0.588 0.728 0.583V0.225Q0.728 0.177 0.737 0.149Q0.747 0.120 0.755 0.111Q0.763 0.102 0.764 0.101Q0.762 0.101 0.750 0.102Q0.738 0.104 0.718 0.106Q0.699 0.108 0.684 0.108H0.400Q0.388 0.108 0.371 0.119Q0.355 0.130 0.337 0.146Q0.319 0.162 0.301 0.180Q0.283 0.199 0.269 0.215Q0.254 0.231 0.246 0.242Q0.237 0.252 0.238 0.251ZM0.583 0.701Q0.577 0.701 0.562 0.693Q0.547 0.686 0.527 0.675Q0.507 0.664 0.486 0.651Q0.465 0.637 0.445 0.626Q0.425 0.615 0.409 0.608Q0.393 0.600 0.386 0.600Q0.388 0.598 0.409 0.579Q0.430 0.560 0.464 0.530Q0.497 0.500 0.529 0.474Q0.561 0.447 0.584 0.430Q0.607 0.413 0.607 0.419V0.592Q0.607 0.608 0.607 0.627Q0.606 0.646 0.604 0.663Q0.602 0.679 0.597 0.690Q0.592 0.701 0.583 0.701ZM0.606 0.402Q0.606 0.402 0.600 0.408Q0.594 0.414 0.589 0.414Q0.582 0.414 0.570 0.404Q0.557 0.394 0.543 0.382Q0.529 0.371 0.515 0.361Q0.501 0.351 0.492 0.351L0.627 0.236Q0.627 0.237 0.624 0.245Q0.621 0.253 0.618 0.265Q0.614 0.276 0.614 0.283Q0.614 0.301 0.613 0.322Q0.611 0.342 0.610 0.360Q0.608 0.378 0.607 0.390Q0.606 0.402 0.606 0.402ZM0.404 0.006Q0.404 0.001 0.401 0.008Q0.399 0.016 0.396 0.027Q0.393 0.039 0.391 0.049Q0.390 0.059 0.392 0.059Q0.393 0.059 0.416 0.061Q0.439 0.064 0.472 0.068Q0.505 0.073 0.544 0.077Q0.582 0.082 0.615 0.086Q0.648 0.091 0.670 0.093Q0.692 0.096 0.692 0.096Q0.692 0.096 0.670 0.091Q0.649 0.086 0.617 0.077Q0.585 0.069 0.548 0.059Q0.510 0.049 0.479 0.039Q0.447 0.029 0.425 0.020Q0.404 0.011 0.404 0.006Z" fill="black"/>
</svg>
