<svg xmlns="http://www.w3.org/2000/svg" viewBox="0 0 1 1" preserveAspectRatio="xMidYMid meet">
  <path d="M0.185 0.421H0.274V0.553Q0.274 0.591 0.264 0.614Q0.255 0.636 0.247 0.644Q0.239 0.651 0.238 0.652Q0.238 0.652 0.260 0.641Q0.282 0.630 0.309 0.612Q0.335 0.593 0.357 0.567Q0.379 0.541 0.379 0.511V0.421H0.439V0.508Q0.439 0.528 0.416 0.556Q0.393 0.583 0.362 0.610Q0.331 0.637 0.297 0.662Q0.264 0.686 0.243 0.700Q0.222 0.714 0.220 0.715Q0.220 0.715 0.230 0.710Q0.240 0.706 0.253 0.700Q0.267 0.694 0.280 0.689Q0.293 0.685 0.298 0.685Q0.310 0.685 0.331 0.693Q0.352 0.702 0.378 0.715Q0.404 0.728 0.432 0.742Q0.460 0.757 0.486 0.770Q0.512 0.783 0.532 0.791Q0.553 0.800 0.564 0.800Q0.568 0.800 0.588 0.794Q0.609 0.789 0.638 0.774Q0.667 0.760 0.700 0.733Q0.733 0.707 0.761 0.665Q0.788 0.623 0.807 0.563Q0.825 0.502 0.825 0.421Q0.825 0.350 0.820 0.300Q0.814 0.250 0.799 0.217Q0.784 0.183 0.757 0.165Q0.730 0.146 0.686 0.136Q0.643 0.126 0.580 0.123Q0.518 0.121 0.432 0.121Q0.371 0.121 0.339 0.112Q0.308 0.104 0.293 0.093Q0.279 0.083 0.277 0.073Q0.275 0.063 0.275 0.059Q0.275 0.045 0.282 0.033Q0.290 0.022 0.290 0.022Q0.290 0.022 0.272 0.033Q0.254 0.044 0.232 0.059Q0.211 0.075 0.193 0.092Q0.175 0.109 0.175 0.121Q0.175 0.135 0.198 0.151Q0.222 0.167 0.263 0.167Q0.312 0.167 0.357 0.171Q0.402 0.175 0.437 0.180Q0.472 0.184 0.494 0.188Q0.515 0.191 0.515 0.191Q0.515 0.191 0.503 0.199Q0.491 0.207 0.477 0.220Q0.463 0.233 0.451 0.250Q0.439 0.267 0.439 0.284V0.371H0.379V0.305Q0.379 0.265 0.393 0.242Q0.406 0.218 0.418 0.211Q0.430 0.204 0.432 0.203Q0.431 0.203 0.416 0.206Q0.400 0.209 0.376 0.216Q0.352 0.223 0.330 0.234Q0.307 0.244 0.290 0.261Q0.274 0.277 0.274 0.298V0.371H0.235ZM0.662 0.732Q0.661 0.732 0.642 0.723Q0.624 0.715 0.595 0.701Q0.567 0.688 0.534 0.673Q0.502 0.658 0.474 0.645Q0.446 0.631 0.428 0.623Q0.409 0.614 0.409 0.614L0.708 0.508Q0.708 0.518 0.708 0.538Q0.708 0.558 0.707 0.583Q0.705 0.608 0.702 0.635Q0.699 0.661 0.694 0.682Q0.689 0.704 0.681 0.718Q0.673 0.732 0.662 0.732ZM0.431 0.592Q0.431 0.592 0.440 0.585Q0.449 0.577 0.461 0.567Q0.472 0.557 0.481 0.549Q0.490 0.541 0.490 0.539L0.705 0.463L0.707 0.494ZM0.545 0.371V0.196Q0.545 0.194 0.563 0.199Q0.581 0.203 0.604 0.213Q0.628 0.223 0.650 0.238Q0.671 0.253 0.680 0.271Q0.686 0.284 0.691 0.314Q0.695 0.343 0.698 0.373Q0.701 0.403 0.703 0.425Q0.704 0.448 0.704 0.448L0.508 0.517Q0.509 0.516 0.517 0.509Q0.526 0.501 0.535 0.485Q0.545 0.469 0.545 0.448V0.421H0.598L0.648 0.371Z" fill="black"/>
</svg>
