<svg xmlns="http://www.w3.org/2000/svg" viewBox="0 0 1 1" preserveAspectRatio="xMidYMid meet">
  <path d="M0.421 0.586 0.768 0.325Q0.768 0.325 0.775 0.347Q0.781 0.369 0.781 0.406Q0.781 0.460 0.765 0.504Q0.748 0.548 0.724 0.584Q0.699 0.620 0.670 0.648Q0.642 0.675 0.617 0.694Q0.593 0.713 0.576 0.724Q0.560 0.736 0.560 0.739Q0.560 0.739 0.564 0.737Q0.569 0.736 0.585 0.736Q0.612 0.736 0.644 0.743Q0.675 0.751 0.703 0.760Q0.730 0.770 0.749 0.779Q0.767 0.788 0.767 0.791Q0.767 0.791 0.785 0.780Q0.803 0.769 0.825 0.754Q0.847 0.740 0.865 0.726Q0.883 0.713 0.883 0.709Q0.883 0.706 0.864 0.697Q0.846 0.689 0.821 0.679Q0.795 0.670 0.768 0.661Q0.741 0.651 0.724 0.645Q0.707 0.639 0.706 0.639Q0.708 0.638 0.727 0.624Q0.745 0.609 0.775 0.581Q0.805 0.553 0.834 0.517Q0.862 0.481 0.882 0.435Q0.903 0.390 0.903 0.342Q0.903 0.266 0.874 0.220Q0.845 0.174 0.801 0.149Q0.757 0.124 0.706 0.115Q0.655 0.107 0.609 0.107Q0.597 0.107 0.574 0.121Q0.551 0.136 0.525 0.156Q0.500 0.176 0.476 0.198Q0.451 0.219 0.437 0.233Q0.422 0.246 0.421 0.247Q0.421 0.240 0.420 0.227Q0.419 0.214 0.418 0.201Q0.417 0.188 0.416 0.179Q0.414 0.169 0.413 0.169Q0.405 0.169 0.396 0.175Q0.387 0.180 0.364 0.180Q0.351 0.180 0.326 0.176Q0.301 0.171 0.276 0.164Q0.251 0.156 0.232 0.146Q0.213 0.137 0.213 0.126Q0.213 0.121 0.217 0.117Q0.222 0.113 0.220 0.113Q0.217 0.113 0.197 0.123Q0.178 0.134 0.156 0.149Q0.133 0.164 0.115 0.179Q0.097 0.194 0.097 0.204Q0.097 0.215 0.112 0.222Q0.126 0.228 0.148 0.233Q0.169 0.237 0.194 0.239Q0.219 0.241 0.240 0.243Q0.262 0.245 0.276 0.247Q0.291 0.248 0.291 0.252V0.692Q0.291 0.707 0.291 0.725Q0.292 0.744 0.294 0.760Q0.296 0.776 0.300 0.787Q0.304 0.798 0.311 0.798Q0.311 0.798 0.333 0.793Q0.355 0.788 0.382 0.781Q0.408 0.774 0.431 0.767Q0.453 0.760 0.453 0.757Q0.452 0.756 0.445 0.751Q0.438 0.746 0.430 0.730Q0.421 0.714 0.421 0.688ZM0.761 0.311 0.421 0.568V0.512L0.736 0.274Q0.737 0.275 0.743 0.282Q0.748 0.288 0.755 0.298Q0.761 0.307 0.761 0.311ZM0.421 0.264Q0.421 0.256 0.434 0.249Q0.447 0.242 0.469 0.237Q0.490 0.231 0.517 0.228Q0.544 0.225 0.573 0.225Q0.627 0.225 0.662 0.235Q0.697 0.245 0.710 0.254Q0.723 0.263 0.724 0.264L0.421 0.494ZM0.245 0.096Q0.247 0.095 0.257 0.089Q0.268 0.084 0.284 0.077Q0.300 0.071 0.311 0.071Q0.332 0.071 0.352 0.078Q0.372 0.085 0.392 0.094Q0.412 0.103 0.433 0.110Q0.453 0.117 0.473 0.117Q0.489 0.117 0.508 0.105Q0.527 0.094 0.543 0.080Q0.560 0.067 0.571 0.055Q0.583 0.044 0.583 0.044Q0.581 0.045 0.570 0.050Q0.560 0.056 0.544 0.062Q0.528 0.069 0.517 0.069Q0.496 0.069 0.476 0.062Q0.455 0.055 0.435 0.046Q0.414 0.037 0.394 0.030Q0.374 0.023 0.354 0.023Q0.338 0.023 0.320 0.034Q0.301 0.046 0.284 0.059Q0.268 0.073 0.256 0.084Q0.245 0.096 0.245 0.096Z" fill="black"/>
</svg>
