<svg xmlns="http://www.w3.org/2000/svg" viewBox="0 0 1 1" preserveAspectRatio="xMidYMid meet">
  <path d="M0.445 0.452Q0.412 0.496 0.382 0.535Q0.352 0.575 0.329 0.607Q0.306 0.639 0.292 0.661Q0.278 0.682 0.276 0.688Q0.272 0.700 0.270 0.720Q0.268 0.740 0.267 0.759Q0.266 0.778 0.267 0.790Q0.268 0.803 0.270 0.800Q0.270 0.802 0.290 0.779Q0.310 0.756 0.343 0.717Q0.375 0.678 0.416 0.628Q0.458 0.577 0.501 0.523Q0.543 0.578 0.583 0.630Q0.622 0.681 0.654 0.720Q0.685 0.759 0.704 0.781Q0.723 0.804 0.723 0.800Q0.724 0.801 0.727 0.787Q0.729 0.774 0.731 0.754Q0.733 0.734 0.733 0.712Q0.733 0.690 0.727 0.674Q0.725 0.669 0.711 0.649Q0.697 0.629 0.674 0.599Q0.651 0.569 0.621 0.531Q0.591 0.493 0.559 0.451Q0.591 0.409 0.621 0.370Q0.651 0.332 0.674 0.302Q0.697 0.272 0.711 0.252Q0.725 0.232 0.727 0.227Q0.733 0.211 0.733 0.189Q0.733 0.167 0.731 0.148Q0.729 0.128 0.727 0.114Q0.724 0.101 0.723 0.102Q0.723 0.099 0.704 0.121Q0.685 0.144 0.654 0.182Q0.622 0.221 0.583 0.273Q0.543 0.324 0.501 0.379Q0.458 0.325 0.416 0.274Q0.375 0.223 0.343 0.184Q0.310 0.146 0.290 0.123Q0.270 0.100 0.270 0.102Q0.268 0.099 0.267 0.111Q0.266 0.124 0.267 0.143Q0.268 0.162 0.270 0.181Q0.272 0.201 0.276 0.213Q0.278 0.219 0.292 0.241Q0.306 0.262 0.329 0.295Q0.352 0.327 0.382 0.367Q0.412 0.408 0.445 0.452Z" fill="black"/>
</svg>
