<svg xmlns="http://www.w3.org/2000/svg" viewBox="0 0 1 1" preserveAspectRatio="xMidYMid meet">
  <path d="M0.143 0.469Q0.143 0.505 0.151 0.538Q0.158 0.570 0.169 0.596Q0.180 0.622 0.192 0.641Q0.204 0.660 0.212 0.670L0.064 0.800L0.176 0.774L0.248 0.711Q0.248 0.711 0.262 0.725Q0.277 0.739 0.305 0.756Q0.334 0.774 0.375 0.788Q0.416 0.802 0.470 0.802Q0.492 0.802 0.529 0.794Q0.567 0.786 0.610 0.768Q0.653 0.750 0.697 0.721Q0.741 0.693 0.777 0.652Q0.813 0.610 0.835 0.555Q0.858 0.500 0.858 0.430Q0.858 0.393 0.851 0.362Q0.845 0.331 0.835 0.306Q0.825 0.280 0.814 0.261Q0.802 0.241 0.792 0.228L0.936 0.102L0.825 0.128L0.755 0.188Q0.746 0.178 0.729 0.165Q0.711 0.152 0.690 0.139Q0.668 0.127 0.645 0.118Q0.621 0.109 0.599 0.109Q0.583 0.109 0.560 0.119Q0.538 0.130 0.517 0.143Q0.496 0.156 0.481 0.167Q0.465 0.179 0.462 0.181Q0.462 0.180 0.460 0.169Q0.457 0.158 0.454 0.145Q0.450 0.133 0.447 0.122Q0.443 0.112 0.441 0.112Q0.440 0.112 0.418 0.119Q0.395 0.126 0.362 0.142Q0.329 0.159 0.291 0.185Q0.253 0.212 0.220 0.252Q0.187 0.292 0.165 0.345Q0.143 0.399 0.143 0.469ZM0.310 0.583Q0.305 0.578 0.293 0.564Q0.282 0.550 0.270 0.528Q0.259 0.505 0.250 0.474Q0.242 0.443 0.242 0.404Q0.242 0.338 0.252 0.295Q0.263 0.251 0.278 0.226Q0.293 0.200 0.310 0.190Q0.327 0.180 0.339 0.180V0.504Q0.339 0.529 0.332 0.548Q0.324 0.566 0.317 0.574Q0.311 0.582 0.310 0.583ZM0.690 0.318Q0.693 0.323 0.703 0.340Q0.712 0.358 0.722 0.386Q0.732 0.414 0.740 0.451Q0.748 0.488 0.748 0.532Q0.748 0.568 0.739 0.605Q0.730 0.641 0.712 0.670Q0.694 0.700 0.668 0.718Q0.642 0.737 0.607 0.737Q0.564 0.737 0.521 0.721Q0.478 0.706 0.442 0.686Q0.406 0.666 0.381 0.647Q0.355 0.628 0.348 0.621ZM0.655 0.278 0.463 0.448V0.201Q0.463 0.194 0.470 0.190Q0.477 0.185 0.488 0.185Q0.516 0.185 0.543 0.197Q0.571 0.209 0.594 0.225Q0.617 0.241 0.633 0.256Q0.649 0.271 0.655 0.278Z" fill="black"/>
</svg>
