<svg xmlns="http://www.w3.org/2000/svg" viewBox="0 0 1 1" preserveAspectRatio="xMidYMid meet">
  <path d="M0.123 0.232Q0.123 0.233 0.130 0.229Q0.137 0.224 0.150 0.218Q0.164 0.212 0.182 0.207Q0.201 0.202 0.226 0.202H0.387V0.245Q0.385 0.246 0.366 0.256Q0.348 0.266 0.319 0.286Q0.289 0.306 0.261 0.332Q0.233 0.357 0.213 0.388Q0.193 0.420 0.193 0.454Q0.193 0.525 0.211 0.588Q0.228 0.651 0.263 0.698Q0.297 0.746 0.349 0.773Q0.402 0.800 0.472 0.800Q0.511 0.800 0.549 0.784Q0.586 0.768 0.615 0.749Q0.643 0.730 0.660 0.714Q0.677 0.698 0.677 0.698Q0.677 0.718 0.687 0.736Q0.697 0.755 0.709 0.769Q0.722 0.783 0.734 0.792Q0.747 0.801 0.753 0.801Q0.758 0.801 0.769 0.794Q0.780 0.788 0.794 0.778Q0.808 0.768 0.823 0.756Q0.837 0.745 0.849 0.734Q0.861 0.723 0.869 0.715Q0.877 0.707 0.877 0.705Q0.877 0.705 0.871 0.707Q0.865 0.710 0.861 0.710Q0.855 0.710 0.844 0.701Q0.834 0.692 0.823 0.680Q0.813 0.668 0.805 0.657Q0.797 0.646 0.797 0.641V0.145Q0.797 0.140 0.790 0.132Q0.783 0.125 0.773 0.118Q0.763 0.112 0.750 0.107Q0.738 0.102 0.728 0.102Q0.717 0.102 0.694 0.113Q0.672 0.125 0.650 0.139Q0.628 0.153 0.613 0.164Q0.597 0.175 0.600 0.175Q0.606 0.175 0.619 0.179Q0.631 0.183 0.645 0.189Q0.658 0.194 0.668 0.201Q0.678 0.207 0.678 0.211V0.306L0.506 0.445V0.102H0.297Q0.268 0.102 0.237 0.122Q0.206 0.142 0.181 0.166Q0.156 0.189 0.139 0.210Q0.123 0.231 0.123 0.232ZM0.405 0.617 0.678 0.397V0.685Q0.678 0.685 0.657 0.695Q0.636 0.706 0.600 0.706Q0.551 0.706 0.514 0.692Q0.478 0.678 0.453 0.662Q0.429 0.645 0.417 0.631Q0.405 0.617 0.405 0.617ZM0.395 0.606 0.371 0.574 0.678 0.325V0.377ZM0.387 0.260V0.482Q0.387 0.515 0.381 0.533Q0.375 0.550 0.369 0.555Q0.364 0.560 0.363 0.560Q0.363 0.560 0.355 0.546Q0.347 0.531 0.338 0.506Q0.329 0.481 0.321 0.447Q0.313 0.413 0.313 0.374Q0.313 0.352 0.325 0.332Q0.336 0.311 0.350 0.295Q0.364 0.279 0.375 0.270Q0.387 0.260 0.387 0.260ZM0.349 0.002Q0.349 0.000 0.346 0.004Q0.344 0.012 0.341 0.023Q0.338 0.035 0.336 0.045Q0.335 0.055 0.337 0.055Q0.338 0.055 0.361 0.057Q0.384 0.060 0.417 0.064Q0.451 0.069 0.489 0.073Q0.527 0.078 0.560 0.082Q0.593 0.087 0.615 0.089Q0.637 0.092 0.637 0.092Q0.637 0.092 0.616 0.087Q0.594 0.082 0.562 0.073Q0.530 0.065 0.493 0.055Q0.456 0.045 0.424 0.035Q0.392 0.025 0.370 0.016Q0.349 0.008 0.349 0.002Z" fill="black"/>
</svg>
