<svg xmlns="http://www.w3.org/2000/svg" viewBox="0 0 1 1" preserveAspectRatio="xMidYMid meet">
  <path d="M0.351 0.800 0.481 0.739V0.639Q0.481 0.639 0.499 0.623Q0.517 0.606 0.544 0.579Q0.572 0.551 0.604 0.516Q0.635 0.481 0.663 0.444Q0.690 0.407 0.708 0.371Q0.726 0.336 0.726 0.308Q0.726 0.236 0.711 0.202Q0.695 0.167 0.676 0.156Q0.656 0.144 0.637 0.146Q0.618 0.148 0.613 0.148Q0.605 0.148 0.585 0.166Q0.566 0.184 0.544 0.208Q0.523 0.231 0.504 0.252Q0.486 0.272 0.481 0.275V0.042Q0.480 0.028 0.478 0.015Q0.476 0.002 0.469 0.002Q0.457 0.002 0.438 0.010Q0.418 0.019 0.395 0.032Q0.372 0.046 0.350 0.061Q0.327 0.076 0.309 0.089Q0.291 0.103 0.282 0.111Q0.272 0.120 0.275 0.120Q0.277 0.120 0.288 0.114Q0.300 0.108 0.314 0.100Q0.328 0.093 0.340 0.087Q0.351 0.081 0.351 0.081ZM0.481 0.610V0.311Q0.481 0.310 0.490 0.299Q0.500 0.287 0.512 0.274Q0.525 0.261 0.536 0.251Q0.548 0.240 0.551 0.240Q0.557 0.240 0.568 0.248Q0.580 0.256 0.590 0.275Q0.601 0.293 0.609 0.322Q0.616 0.351 0.616 0.393Q0.616 0.433 0.597 0.471Q0.578 0.509 0.554 0.539Q0.530 0.569 0.508 0.589Q0.486 0.608 0.481 0.610Z" fill="black"/>
</svg>
