<svg xmlns="http://www.w3.org/2000/svg" viewBox="0 0 1 1" preserveAspectRatio="xMidYMid meet">
  <path d="M0.293 0.800 0.423 0.720V0.456Q0.423 0.451 0.430 0.442Q0.438 0.433 0.448 0.433Q0.454 0.433 0.476 0.440Q0.499 0.448 0.523 0.469Q0.547 0.490 0.567 0.526Q0.587 0.563 0.587 0.621Q0.587 0.657 0.576 0.680Q0.565 0.703 0.552 0.717Q0.539 0.732 0.528 0.740Q0.517 0.749 0.517 0.755Q0.517 0.758 0.531 0.750Q0.545 0.742 0.566 0.726Q0.587 0.710 0.612 0.687Q0.637 0.664 0.658 0.637Q0.679 0.610 0.693 0.580Q0.707 0.550 0.707 0.520Q0.707 0.484 0.696 0.450Q0.685 0.417 0.665 0.391Q0.645 0.366 0.618 0.351Q0.591 0.336 0.558 0.336Q0.563 0.330 0.575 0.318Q0.586 0.305 0.601 0.291Q0.615 0.276 0.630 0.261Q0.644 0.245 0.656 0.232Q0.668 0.219 0.675 0.211Q0.682 0.203 0.680 0.203Q0.662 0.203 0.641 0.187Q0.619 0.171 0.599 0.153Q0.579 0.134 0.563 0.118Q0.547 0.102 0.540 0.102Q0.538 0.102 0.519 0.112Q0.500 0.122 0.473 0.139Q0.446 0.157 0.414 0.180Q0.383 0.203 0.356 0.230Q0.329 0.257 0.311 0.286Q0.293 0.314 0.293 0.342ZM0.423 0.259Q0.423 0.225 0.428 0.212Q0.433 0.198 0.433 0.198Q0.433 0.201 0.444 0.217Q0.456 0.233 0.475 0.251Q0.494 0.269 0.518 0.283Q0.543 0.297 0.571 0.297Q0.569 0.302 0.562 0.312Q0.555 0.321 0.538 0.336Q0.535 0.336 0.524 0.342Q0.513 0.349 0.498 0.360Q0.482 0.372 0.462 0.388Q0.443 0.404 0.423 0.422Z" fill="black"/>
</svg>
