<svg xmlns="http://www.w3.org/2000/svg" viewBox="0 0 1 1" preserveAspectRatio="xMidYMid meet">
  <path d="M0.565 0.301Q0.542 0.301 0.511 0.314Q0.480 0.327 0.452 0.346Q0.424 0.365 0.404 0.386Q0.385 0.407 0.385 0.423Q0.385 0.425 0.390 0.417Q0.395 0.409 0.403 0.399Q0.411 0.389 0.422 0.380Q0.434 0.372 0.446 0.372Q0.461 0.372 0.479 0.386Q0.498 0.401 0.513 0.422Q0.528 0.444 0.539 0.469Q0.549 0.494 0.549 0.514Q0.547 0.515 0.524 0.524Q0.501 0.533 0.465 0.551Q0.429 0.568 0.394 0.589Q0.360 0.609 0.335 0.633Q0.310 0.657 0.310 0.679Q0.310 0.700 0.317 0.721Q0.323 0.743 0.334 0.761Q0.344 0.779 0.357 0.790Q0.370 0.801 0.384 0.801Q0.394 0.801 0.414 0.792Q0.434 0.783 0.456 0.770Q0.479 0.758 0.500 0.745Q0.522 0.732 0.535 0.724Q0.548 0.716 0.549 0.715V0.800L0.690 0.728V0.430Q0.690 0.409 0.677 0.386Q0.664 0.363 0.645 0.344Q0.626 0.326 0.604 0.314Q0.582 0.301 0.565 0.301ZM0.425 0.617Q0.425 0.599 0.444 0.583Q0.464 0.567 0.487 0.555Q0.510 0.543 0.530 0.536Q0.549 0.529 0.549 0.529V0.701Q0.549 0.703 0.532 0.709Q0.515 0.716 0.496 0.716Q0.478 0.716 0.464 0.706Q0.451 0.696 0.442 0.681Q0.434 0.667 0.429 0.650Q0.425 0.632 0.425 0.617ZM0.369 0.175Q0.369 0.170 0.366 0.178Q0.364 0.185 0.361 0.197Q0.358 0.208 0.356 0.218Q0.355 0.228 0.357 0.228Q0.358 0.228 0.381 0.231Q0.404 0.233 0.437 0.238Q0.471 0.242 0.509 0.247Q0.547 0.251 0.580 0.256Q0.613 0.260 0.635 0.263Q0.657 0.265 0.657 0.265Q0.657 0.265 0.636 0.260Q0.614 0.255 0.582 0.247Q0.550 0.238 0.513 0.228Q0.476 0.218 0.444 0.208Q0.412 0.198 0.390 0.189Q0.369 0.180 0.369 0.175Z" fill="black"/>
</svg>
