<svg xmlns="http://www.w3.org/2000/svg" viewBox="0 0 1 1" preserveAspectRatio="xMidYMid meet">
  <path d="M0.454 0.531Q0.464 0.545 0.482 0.571Q0.500 0.597 0.525 0.624Q0.550 0.650 0.580 0.669Q0.609 0.689 0.641 0.689Q0.659 0.689 0.684 0.672Q0.709 0.656 0.736 0.630Q0.764 0.604 0.791 0.571Q0.819 0.538 0.840 0.505Q0.861 0.472 0.875 0.442Q0.888 0.412 0.888 0.391Q0.888 0.368 0.875 0.344Q0.861 0.320 0.841 0.300Q0.821 0.280 0.797 0.268Q0.773 0.255 0.752 0.255Q0.725 0.255 0.690 0.275Q0.656 0.294 0.623 0.320Q0.590 0.345 0.562 0.370Q0.534 0.396 0.521 0.409Q0.515 0.400 0.498 0.374Q0.480 0.349 0.456 0.323Q0.433 0.296 0.407 0.276Q0.381 0.255 0.359 0.255Q0.335 0.255 0.308 0.271Q0.280 0.286 0.253 0.311Q0.225 0.336 0.200 0.367Q0.174 0.398 0.155 0.429Q0.136 0.461 0.124 0.489Q0.112 0.517 0.112 0.536Q0.112 0.567 0.124 0.595Q0.137 0.623 0.156 0.644Q0.175 0.665 0.200 0.677Q0.224 0.689 0.248 0.689Q0.271 0.689 0.304 0.667Q0.336 0.646 0.367 0.619Q0.398 0.591 0.422 0.565Q0.447 0.539 0.454 0.531ZM0.537 0.429Q0.547 0.419 0.562 0.404Q0.577 0.390 0.594 0.377Q0.611 0.364 0.630 0.355Q0.649 0.346 0.668 0.346Q0.695 0.346 0.716 0.362Q0.738 0.379 0.753 0.404Q0.768 0.429 0.776 0.458Q0.785 0.488 0.785 0.512Q0.785 0.544 0.770 0.562Q0.755 0.579 0.726 0.579Q0.702 0.579 0.678 0.566Q0.654 0.552 0.630 0.531Q0.606 0.509 0.583 0.483Q0.559 0.456 0.537 0.429ZM0.260 0.357Q0.287 0.357 0.314 0.375Q0.341 0.394 0.365 0.419Q0.389 0.444 0.407 0.469Q0.426 0.495 0.435 0.508Q0.430 0.515 0.419 0.529Q0.408 0.542 0.393 0.556Q0.379 0.569 0.361 0.580Q0.344 0.590 0.326 0.590Q0.298 0.590 0.277 0.578Q0.256 0.565 0.242 0.545Q0.227 0.525 0.220 0.499Q0.212 0.473 0.212 0.445Q0.212 0.431 0.213 0.415Q0.214 0.400 0.219 0.387Q0.224 0.374 0.234 0.365Q0.243 0.357 0.260 0.357Z" fill="black"/>
</svg>
