<svg xmlns="http://www.w3.org/2000/svg" viewBox="0 0 1 1" preserveAspectRatio="xMidYMid meet">
  <path d="M0.275 0.451Q0.274 0.454 0.292 0.468Q0.311 0.483 0.339 0.503Q0.367 0.524 0.400 0.547Q0.434 0.570 0.462 0.590Q0.491 0.610 0.511 0.623Q0.531 0.635 0.533 0.635Q0.535 0.635 0.556 0.624Q0.576 0.612 0.600 0.599Q0.623 0.586 0.643 0.575Q0.663 0.563 0.664 0.563Q0.665 0.563 0.645 0.550Q0.625 0.536 0.595 0.516Q0.564 0.496 0.528 0.472Q0.492 0.448 0.461 0.427Q0.431 0.406 0.410 0.391Q0.389 0.377 0.388 0.375Q0.387 0.372 0.405 0.354Q0.424 0.336 0.452 0.310Q0.480 0.284 0.513 0.255Q0.545 0.226 0.572 0.202Q0.598 0.178 0.613 0.164Q0.627 0.150 0.619 0.152Q0.609 0.155 0.580 0.177Q0.551 0.199 0.513 0.232Q0.475 0.264 0.434 0.301Q0.392 0.338 0.357 0.370Q0.322 0.403 0.299 0.425Q0.276 0.448 0.275 0.451ZM0.275 0.800Q0.283 0.795 0.304 0.792Q0.326 0.790 0.347 0.790H0.610Q0.621 0.790 0.630 0.790Q0.640 0.790 0.648 0.785Q0.664 0.775 0.679 0.756Q0.695 0.737 0.706 0.719Q0.718 0.701 0.723 0.688Q0.729 0.676 0.724 0.680Q0.717 0.685 0.701 0.687Q0.686 0.690 0.670 0.690H0.384Q0.374 0.690 0.365 0.690Q0.356 0.691 0.350 0.695Q0.333 0.705 0.318 0.723Q0.304 0.742 0.293 0.760Q0.282 0.778 0.277 0.790Q0.272 0.802 0.275 0.800Z" fill="black"/>
</svg>
