<svg xmlns="http://www.w3.org/2000/svg" viewBox="0 0 1 1" preserveAspectRatio="xMidYMid meet">
  <path d="M0.704 0.336Q0.705 0.334 0.690 0.319Q0.675 0.304 0.651 0.283Q0.628 0.262 0.601 0.239Q0.573 0.216 0.549 0.196Q0.525 0.176 0.509 0.164Q0.492 0.151 0.490 0.152Q0.488 0.152 0.468 0.163Q0.448 0.174 0.424 0.187Q0.401 0.200 0.381 0.212Q0.361 0.223 0.360 0.223Q0.359 0.223 0.376 0.237Q0.393 0.250 0.418 0.271Q0.444 0.291 0.473 0.315Q0.503 0.339 0.529 0.360Q0.555 0.381 0.573 0.395Q0.590 0.410 0.591 0.412Q0.592 0.415 0.574 0.433Q0.555 0.451 0.527 0.477Q0.498 0.502 0.466 0.531Q0.434 0.560 0.407 0.584Q0.381 0.608 0.366 0.623Q0.352 0.637 0.360 0.635Q0.370 0.632 0.399 0.610Q0.428 0.587 0.465 0.555Q0.503 0.522 0.545 0.486Q0.587 0.449 0.622 0.416Q0.657 0.384 0.680 0.361Q0.703 0.339 0.704 0.336ZM0.275 0.800Q0.283 0.795 0.304 0.792Q0.326 0.790 0.347 0.790H0.610Q0.621 0.790 0.630 0.790Q0.640 0.790 0.648 0.785Q0.664 0.775 0.679 0.756Q0.695 0.737 0.706 0.719Q0.718 0.701 0.723 0.688Q0.729 0.676 0.724 0.680Q0.717 0.685 0.701 0.687Q0.686 0.690 0.670 0.690H0.384Q0.374 0.690 0.365 0.690Q0.356 0.691 0.350 0.695Q0.333 0.705 0.318 0.723Q0.304 0.742 0.293 0.760Q0.282 0.778 0.277 0.790Q0.272 0.802 0.275 0.800Z" fill="black"/>
</svg>
