<svg xmlns="http://www.w3.org/2000/svg" viewBox="0 0 1 1" preserveAspectRatio="xMidYMid meet">
  <path d="M0.235 0.411Q0.243 0.406 0.265 0.403Q0.286 0.401 0.307 0.401H0.335V0.800Q0.335 0.804 0.345 0.800Q0.355 0.797 0.369 0.790Q0.383 0.784 0.399 0.775Q0.416 0.767 0.429 0.759Q0.442 0.752 0.448 0.748Q0.455 0.744 0.451 0.746Q0.443 0.750 0.439 0.739Q0.435 0.729 0.435 0.720V0.401H0.534V0.800Q0.534 0.804 0.544 0.800Q0.553 0.797 0.568 0.790Q0.582 0.783 0.598 0.774Q0.614 0.765 0.627 0.758Q0.640 0.751 0.647 0.747Q0.654 0.743 0.650 0.746Q0.646 0.748 0.643 0.746Q0.640 0.744 0.638 0.739Q0.636 0.735 0.635 0.730Q0.634 0.725 0.634 0.720V0.401Q0.636 0.401 0.646 0.401Q0.656 0.401 0.669 0.400Q0.683 0.399 0.688 0.396Q0.704 0.386 0.719 0.367Q0.735 0.348 0.746 0.330Q0.758 0.312 0.763 0.300Q0.769 0.287 0.764 0.291Q0.757 0.296 0.741 0.299Q0.726 0.301 0.710 0.301H0.344Q0.334 0.301 0.325 0.302Q0.316 0.302 0.310 0.306Q0.293 0.316 0.279 0.334Q0.264 0.353 0.253 0.371Q0.242 0.389 0.237 0.401Q0.232 0.413 0.235 0.411Z" fill="black"/>
</svg>
