<svg xmlns="http://www.w3.org/2000/svg" viewBox="0 0 1 1" preserveAspectRatio="xMidYMid meet">
  <path d="M0.188 0.737Q0.188 0.748 0.202 0.736Q0.216 0.725 0.236 0.703Q0.256 0.681 0.278 0.654Q0.300 0.626 0.317 0.604Q0.378 0.524 0.440 0.469Q0.502 0.414 0.565 0.379Q0.627 0.345 0.692 0.330Q0.757 0.314 0.823 0.314L0.891 0.171Q0.807 0.171 0.730 0.207Q0.652 0.243 0.581 0.299Q0.509 0.354 0.442 0.422Q0.375 0.491 0.313 0.554Q0.313 0.554 0.313 0.533Q0.312 0.511 0.309 0.479Q0.306 0.447 0.300 0.409Q0.293 0.372 0.283 0.339Q0.272 0.307 0.256 0.286Q0.241 0.264 0.218 0.264Q0.212 0.264 0.193 0.279Q0.174 0.294 0.154 0.312Q0.135 0.330 0.121 0.345Q0.107 0.360 0.110 0.360Q0.119 0.360 0.134 0.370Q0.150 0.381 0.165 0.405Q0.181 0.429 0.192 0.468Q0.203 0.507 0.203 0.566Q0.203 0.588 0.200 0.615Q0.198 0.641 0.195 0.666Q0.193 0.690 0.190 0.709Q0.188 0.729 0.188 0.737Z" fill="black"/>
</svg>
