<svg xmlns="http://www.w3.org/2000/svg" viewBox="0 0 1 1" preserveAspectRatio="xMidYMid meet">
  <path d="M0.626 0.581V0.457H0.689Q0.739 0.457 0.769 0.432Q0.799 0.408 0.809 0.373Q0.820 0.339 0.812 0.302Q0.804 0.265 0.779 0.240Q0.754 0.215 0.717 0.207Q0.680 0.199 0.646 0.210Q0.611 0.221 0.587 0.251Q0.562 0.281 0.562 0.331V0.393H0.438V0.331Q0.438 0.280 0.413 0.250Q0.389 0.220 0.354 0.210Q0.320 0.199 0.283 0.207Q0.246 0.215 0.221 0.240Q0.196 0.265 0.188 0.302Q0.180 0.339 0.191 0.373Q0.201 0.408 0.231 0.432Q0.261 0.457 0.311 0.457H0.374V0.581H0.311Q0.260 0.581 0.231 0.606Q0.201 0.630 0.191 0.665Q0.180 0.699 0.188 0.736Q0.196 0.773 0.221 0.798Q0.246 0.823 0.283 0.831Q0.320 0.838 0.354 0.828Q0.389 0.817 0.413 0.787Q0.438 0.757 0.438 0.707V0.645H0.562V0.707Q0.562 0.757 0.587 0.787Q0.611 0.817 0.646 0.828Q0.680 0.838 0.717 0.831Q0.754 0.823 0.779 0.798Q0.804 0.773 0.812 0.736Q0.820 0.699 0.809 0.665Q0.798 0.630 0.768 0.606Q0.739 0.581 0.689 0.581ZM0.374 0.393H0.311Q0.285 0.393 0.271 0.380Q0.256 0.368 0.252 0.350Q0.247 0.333 0.251 0.315Q0.255 0.297 0.267 0.285Q0.277 0.275 0.296 0.271Q0.314 0.267 0.331 0.272Q0.348 0.276 0.361 0.291Q0.374 0.305 0.374 0.331ZM0.689 0.393H0.626V0.331Q0.626 0.306 0.639 0.292Q0.652 0.277 0.669 0.272Q0.687 0.267 0.705 0.271Q0.723 0.275 0.734 0.285Q0.746 0.297 0.750 0.315Q0.754 0.333 0.749 0.350Q0.744 0.368 0.729 0.380Q0.715 0.393 0.689 0.393ZM0.311 0.645H0.374V0.707Q0.374 0.733 0.361 0.747Q0.348 0.761 0.331 0.765Q0.314 0.770 0.296 0.766Q0.277 0.763 0.267 0.752Q0.255 0.740 0.251 0.722Q0.247 0.704 0.252 0.687Q0.257 0.670 0.271 0.658Q0.285 0.645 0.311 0.645ZM0.626 0.645H0.689Q0.714 0.645 0.729 0.658Q0.744 0.670 0.749 0.687Q0.754 0.704 0.750 0.722Q0.746 0.740 0.734 0.752Q0.723 0.763 0.705 0.767Q0.687 0.771 0.669 0.766Q0.652 0.762 0.639 0.747Q0.626 0.733 0.626 0.707ZM0.562 0.581H0.438V0.457H0.562Z" fill="black"/>
</svg>
