<svg xmlns="http://www.w3.org/2000/svg" viewBox="0 0 1 1" preserveAspectRatio="xMidYMid meet">
  <path d="M0.526 0.734Q0.538 0.734 0.549 0.741Q0.559 0.748 0.569 0.757Q0.580 0.766 0.591 0.775Q0.603 0.785 0.618 0.791Q0.646 0.802 0.672 0.795Q0.699 0.788 0.722 0.771Q0.744 0.755 0.764 0.732Q0.783 0.710 0.797 0.689Q0.811 0.669 0.818 0.655Q0.825 0.641 0.825 0.641Q0.783 0.648 0.753 0.631Q0.724 0.614 0.706 0.584Q0.689 0.554 0.684 0.517Q0.679 0.481 0.687 0.447Q0.701 0.389 0.745 0.362Q0.789 0.335 0.849 0.325Q0.852 0.325 0.850 0.314Q0.848 0.303 0.841 0.287Q0.833 0.271 0.821 0.253Q0.809 0.235 0.792 0.219Q0.775 0.203 0.753 0.193Q0.732 0.183 0.705 0.183Q0.667 0.183 0.636 0.201Q0.605 0.219 0.582 0.239Q0.559 0.258 0.545 0.272Q0.531 0.285 0.528 0.276Q0.520 0.253 0.522 0.228Q0.524 0.202 0.532 0.180Q0.539 0.158 0.549 0.141Q0.558 0.124 0.565 0.117Q0.574 0.109 0.564 0.111Q0.554 0.113 0.538 0.120Q0.521 0.127 0.505 0.136Q0.489 0.145 0.486 0.151Q0.478 0.167 0.481 0.195Q0.483 0.223 0.483 0.273Q0.483 0.279 0.474 0.267Q0.465 0.254 0.446 0.236Q0.426 0.218 0.396 0.202Q0.366 0.185 0.323 0.183Q0.258 0.180 0.220 0.209Q0.181 0.237 0.164 0.285Q0.147 0.332 0.149 0.393Q0.151 0.454 0.168 0.515Q0.184 0.577 0.213 0.635Q0.242 0.692 0.278 0.732Q0.314 0.773 0.355 0.790Q0.396 0.808 0.437 0.791Q0.451 0.785 0.464 0.775Q0.476 0.766 0.487 0.757Q0.498 0.748 0.508 0.741Q0.518 0.734 0.526 0.734Z" fill="black"/>
</svg>
