<svg xmlns="http://www.w3.org/2000/svg" viewBox="0 0 1 1" preserveAspectRatio="xMidYMid meet">
  <path d="M0.556 0.301Q0.533 0.301 0.501 0.314Q0.470 0.327 0.442 0.346Q0.414 0.365 0.395 0.386Q0.375 0.407 0.375 0.423Q0.375 0.425 0.380 0.417Q0.385 0.409 0.393 0.399Q0.401 0.389 0.413 0.380Q0.424 0.372 0.436 0.372Q0.451 0.372 0.470 0.386Q0.488 0.401 0.503 0.422Q0.519 0.444 0.529 0.469Q0.540 0.494 0.540 0.514Q0.538 0.515 0.515 0.524Q0.492 0.533 0.456 0.551Q0.419 0.568 0.385 0.589Q0.350 0.609 0.326 0.633Q0.301 0.657 0.301 0.679Q0.301 0.700 0.307 0.721Q0.314 0.743 0.324 0.761Q0.334 0.779 0.347 0.790Q0.360 0.801 0.374 0.801Q0.384 0.801 0.404 0.792Q0.424 0.783 0.447 0.770Q0.469 0.758 0.491 0.745Q0.513 0.732 0.526 0.724Q0.539 0.716 0.540 0.715V0.800L0.680 0.728V0.430Q0.680 0.409 0.667 0.386Q0.655 0.363 0.636 0.344Q0.617 0.326 0.595 0.314Q0.573 0.301 0.556 0.301ZM0.415 0.617Q0.415 0.599 0.435 0.583Q0.454 0.567 0.478 0.555Q0.501 0.543 0.520 0.536Q0.540 0.529 0.540 0.529V0.701Q0.540 0.703 0.523 0.709Q0.506 0.716 0.486 0.716Q0.468 0.716 0.455 0.706Q0.441 0.696 0.433 0.681Q0.424 0.667 0.420 0.650Q0.415 0.632 0.415 0.617ZM0.361 0.265Q0.363 0.264 0.374 0.259Q0.384 0.253 0.400 0.247Q0.416 0.240 0.427 0.240Q0.448 0.240 0.469 0.247Q0.489 0.254 0.509 0.263Q0.529 0.272 0.549 0.279Q0.570 0.286 0.590 0.286Q0.606 0.286 0.625 0.275Q0.644 0.263 0.660 0.250Q0.676 0.236 0.688 0.225Q0.699 0.213 0.699 0.213Q0.697 0.214 0.687 0.220Q0.676 0.225 0.661 0.232Q0.645 0.238 0.634 0.238Q0.613 0.238 0.592 0.231Q0.572 0.224 0.551 0.215Q0.531 0.206 0.511 0.199Q0.491 0.192 0.471 0.192Q0.455 0.192 0.436 0.204Q0.417 0.215 0.401 0.229Q0.384 0.242 0.373 0.254Q0.361 0.265 0.361 0.265Z" fill="black"/>
</svg>
