<svg xmlns="http://www.w3.org/2000/svg" viewBox="0 0 1 1" preserveAspectRatio="xMidYMid meet">
  <path d="M0.553 0.301Q0.530 0.301 0.499 0.314Q0.467 0.327 0.439 0.346Q0.411 0.365 0.392 0.386Q0.372 0.407 0.372 0.423Q0.372 0.425 0.377 0.417Q0.382 0.409 0.390 0.399Q0.398 0.389 0.410 0.380Q0.421 0.372 0.433 0.372Q0.448 0.372 0.467 0.386Q0.485 0.401 0.500 0.422Q0.516 0.444 0.526 0.469Q0.537 0.494 0.537 0.514Q0.535 0.515 0.512 0.524Q0.489 0.533 0.453 0.551Q0.416 0.568 0.382 0.589Q0.347 0.609 0.323 0.633Q0.298 0.657 0.298 0.679Q0.298 0.700 0.304 0.721Q0.311 0.743 0.321 0.761Q0.332 0.779 0.344 0.790Q0.357 0.801 0.371 0.801Q0.381 0.801 0.401 0.792Q0.421 0.783 0.444 0.770Q0.466 0.758 0.488 0.745Q0.510 0.732 0.523 0.724Q0.536 0.716 0.537 0.715V0.800L0.677 0.728V0.430Q0.677 0.409 0.665 0.386Q0.652 0.363 0.633 0.344Q0.614 0.326 0.592 0.314Q0.570 0.301 0.553 0.301ZM0.412 0.617Q0.412 0.599 0.432 0.583Q0.451 0.567 0.475 0.555Q0.498 0.543 0.517 0.536Q0.537 0.529 0.537 0.529V0.701Q0.537 0.703 0.520 0.709Q0.503 0.716 0.483 0.716Q0.465 0.716 0.452 0.706Q0.438 0.696 0.430 0.681Q0.421 0.667 0.417 0.650Q0.412 0.632 0.412 0.617ZM0.598 0.225Q0.598 0.241 0.611 0.254Q0.625 0.266 0.632 0.266Q0.638 0.266 0.649 0.260Q0.661 0.254 0.672 0.245Q0.684 0.236 0.693 0.225Q0.702 0.214 0.702 0.205Q0.702 0.201 0.695 0.205Q0.687 0.209 0.678 0.211Q0.669 0.213 0.662 0.209Q0.655 0.205 0.655 0.185Q0.655 0.180 0.646 0.184Q0.637 0.187 0.626 0.195Q0.616 0.202 0.607 0.211Q0.598 0.220 0.598 0.225ZM0.407 0.225Q0.407 0.233 0.412 0.241Q0.416 0.248 0.422 0.254Q0.428 0.259 0.434 0.263Q0.440 0.266 0.443 0.266Q0.449 0.266 0.461 0.260Q0.473 0.254 0.485 0.245Q0.496 0.236 0.505 0.225Q0.514 0.214 0.514 0.205Q0.514 0.201 0.506 0.205Q0.499 0.209 0.491 0.211Q0.482 0.213 0.475 0.209Q0.467 0.205 0.467 0.185Q0.467 0.180 0.458 0.184Q0.448 0.187 0.437 0.195Q0.426 0.202 0.417 0.211Q0.407 0.219 0.407 0.225Z" fill="black"/>
</svg>
