<svg xmlns="http://www.w3.org/2000/svg" viewBox="0 0 1 1" preserveAspectRatio="xMidYMid meet">
  <path d="M0.565 0.301Q0.542 0.301 0.511 0.314Q0.480 0.327 0.452 0.346Q0.424 0.365 0.404 0.386Q0.385 0.407 0.385 0.423Q0.385 0.425 0.390 0.417Q0.395 0.409 0.403 0.399Q0.411 0.389 0.422 0.380Q0.434 0.372 0.446 0.372Q0.461 0.372 0.479 0.386Q0.498 0.401 0.513 0.422Q0.528 0.444 0.539 0.469Q0.549 0.494 0.549 0.514Q0.547 0.515 0.524 0.524Q0.501 0.533 0.465 0.551Q0.429 0.568 0.394 0.589Q0.360 0.609 0.335 0.633Q0.310 0.657 0.310 0.679Q0.310 0.700 0.317 0.721Q0.323 0.743 0.334 0.761Q0.344 0.779 0.357 0.790Q0.370 0.801 0.384 0.801Q0.394 0.801 0.414 0.792Q0.434 0.783 0.456 0.770Q0.479 0.758 0.500 0.745Q0.522 0.732 0.535 0.724Q0.548 0.716 0.549 0.715V0.800L0.690 0.728V0.430Q0.690 0.409 0.677 0.386Q0.664 0.363 0.645 0.344Q0.626 0.326 0.604 0.314Q0.582 0.301 0.565 0.301ZM0.425 0.617Q0.425 0.599 0.444 0.583Q0.464 0.567 0.487 0.555Q0.510 0.543 0.530 0.536Q0.549 0.529 0.549 0.529V0.701Q0.549 0.703 0.532 0.709Q0.515 0.716 0.496 0.716Q0.478 0.716 0.464 0.706Q0.451 0.696 0.442 0.681Q0.434 0.667 0.429 0.650Q0.425 0.632 0.425 0.617ZM0.616 0.206Q0.616 0.171 0.594 0.154Q0.572 0.137 0.546 0.137Q0.520 0.137 0.499 0.154Q0.477 0.171 0.477 0.206Q0.477 0.241 0.499 0.259Q0.520 0.276 0.546 0.276Q0.572 0.276 0.594 0.259Q0.616 0.241 0.616 0.206ZM0.497 0.206Q0.497 0.181 0.512 0.169Q0.527 0.157 0.546 0.157Q0.565 0.157 0.581 0.169Q0.596 0.181 0.596 0.206Q0.596 0.231 0.581 0.244Q0.565 0.256 0.546 0.256Q0.527 0.256 0.512 0.244Q0.497 0.231 0.497 0.206Z" fill="black"/>
</svg>
