<svg xmlns="http://www.w3.org/2000/svg" viewBox="0 0 1 1" preserveAspectRatio="xMidYMid meet">
  <path d="M0.447 0.794V0.853Q0.447 0.858 0.454 0.863Q0.462 0.868 0.471 0.874Q0.481 0.879 0.488 0.887Q0.496 0.894 0.496 0.904Q0.496 0.916 0.479 0.924Q0.463 0.932 0.448 0.935Q0.434 0.938 0.432 0.938Q0.432 0.943 0.442 0.943Q0.480 0.943 0.506 0.926Q0.532 0.909 0.532 0.886Q0.532 0.875 0.525 0.868Q0.518 0.860 0.510 0.855Q0.501 0.849 0.495 0.845Q0.488 0.841 0.488 0.838V0.794Q0.503 0.787 0.527 0.774Q0.551 0.761 0.573 0.748Q0.595 0.736 0.610 0.727Q0.625 0.718 0.622 0.718Q0.620 0.718 0.615 0.719Q0.610 0.721 0.605 0.721Q0.588 0.721 0.559 0.705Q0.529 0.689 0.501 0.657Q0.473 0.625 0.452 0.579Q0.432 0.532 0.432 0.471Q0.432 0.462 0.433 0.445Q0.435 0.428 0.438 0.410Q0.441 0.393 0.446 0.380Q0.451 0.367 0.457 0.367Q0.458 0.367 0.466 0.374Q0.475 0.381 0.487 0.391Q0.499 0.401 0.513 0.413Q0.527 0.426 0.540 0.436Q0.553 0.446 0.564 0.453Q0.574 0.460 0.578 0.460Q0.581 0.460 0.601 0.449Q0.621 0.438 0.644 0.424Q0.667 0.411 0.686 0.398Q0.705 0.386 0.705 0.383Q0.705 0.380 0.685 0.367Q0.666 0.354 0.642 0.339Q0.618 0.324 0.596 0.313Q0.574 0.301 0.570 0.301Q0.569 0.301 0.549 0.307Q0.528 0.313 0.498 0.326Q0.468 0.338 0.432 0.358Q0.397 0.378 0.366 0.406Q0.336 0.435 0.316 0.472Q0.295 0.509 0.295 0.557Q0.295 0.602 0.311 0.641Q0.327 0.680 0.350 0.711Q0.374 0.742 0.400 0.763Q0.427 0.785 0.447 0.794Z" fill="black"/>
</svg>
