<svg xmlns="http://www.w3.org/2000/svg" viewBox="0 0 1 1" preserveAspectRatio="xMidYMid meet">
  <path d="M0.496 0.801Q0.500 0.801 0.524 0.788Q0.547 0.775 0.573 0.759Q0.599 0.743 0.620 0.730Q0.641 0.717 0.640 0.717Q0.640 0.717 0.635 0.719Q0.630 0.722 0.625 0.722Q0.607 0.722 0.588 0.712Q0.569 0.703 0.551 0.689Q0.533 0.675 0.517 0.659Q0.501 0.642 0.490 0.628Q0.478 0.613 0.470 0.603Q0.463 0.592 0.462 0.590Q0.466 0.588 0.484 0.575Q0.502 0.561 0.528 0.542Q0.553 0.522 0.582 0.501Q0.611 0.480 0.636 0.460Q0.660 0.441 0.676 0.427Q0.692 0.413 0.692 0.409Q0.692 0.405 0.675 0.387Q0.659 0.370 0.639 0.350Q0.618 0.331 0.600 0.316Q0.581 0.301 0.576 0.301Q0.571 0.301 0.547 0.313Q0.523 0.324 0.495 0.338Q0.467 0.353 0.441 0.367Q0.415 0.381 0.408 0.387Q0.360 0.423 0.334 0.465Q0.308 0.507 0.308 0.574Q0.308 0.628 0.334 0.670Q0.360 0.713 0.393 0.742Q0.426 0.771 0.456 0.786Q0.487 0.801 0.496 0.801ZM0.456 0.580Q0.455 0.579 0.449 0.569Q0.444 0.559 0.437 0.537Q0.431 0.514 0.431 0.487Q0.431 0.450 0.438 0.426Q0.446 0.403 0.452 0.395Q0.458 0.387 0.459 0.386Q0.459 0.386 0.476 0.400Q0.494 0.414 0.514 0.432Q0.534 0.450 0.552 0.467Q0.569 0.484 0.569 0.491Q0.569 0.493 0.551 0.507Q0.533 0.521 0.512 0.538Q0.492 0.554 0.474 0.567Q0.456 0.580 0.456 0.580ZM0.371 0.180Q0.371 0.175 0.368 0.183Q0.366 0.190 0.363 0.202Q0.360 0.213 0.358 0.223Q0.357 0.233 0.359 0.233Q0.360 0.233 0.383 0.236Q0.406 0.238 0.439 0.243Q0.473 0.247 0.511 0.252Q0.549 0.256 0.582 0.261Q0.615 0.265 0.637 0.268Q0.659 0.270 0.659 0.270Q0.659 0.270 0.638 0.265Q0.616 0.260 0.584 0.252Q0.552 0.243 0.515 0.233Q0.478 0.223 0.446 0.213Q0.414 0.203 0.392 0.195Q0.371 0.186 0.371 0.180Z" fill="black"/>
</svg>
