<svg xmlns="http://www.w3.org/2000/svg" viewBox="0 0 1 1" preserveAspectRatio="xMidYMid meet">
  <path d="M0.362 0.175Q0.362 0.170 0.360 0.178Q0.357 0.185 0.355 0.197Q0.352 0.208 0.350 0.218Q0.349 0.228 0.351 0.228Q0.352 0.228 0.374 0.231Q0.397 0.233 0.431 0.238Q0.464 0.242 0.503 0.247Q0.541 0.251 0.574 0.256Q0.607 0.260 0.629 0.263Q0.651 0.265 0.651 0.265Q0.651 0.265 0.629 0.260Q0.608 0.255 0.576 0.247Q0.544 0.238 0.507 0.228Q0.469 0.218 0.437 0.208Q0.405 0.198 0.384 0.189Q0.362 0.180 0.362 0.175ZM0.454 0.800Q0.463 0.800 0.489 0.787Q0.514 0.774 0.541 0.758Q0.569 0.742 0.590 0.729Q0.611 0.716 0.611 0.716Q0.611 0.716 0.602 0.718Q0.593 0.721 0.590 0.721Q0.579 0.721 0.569 0.715Q0.559 0.709 0.559 0.680V0.365Q0.559 0.353 0.552 0.341Q0.546 0.330 0.537 0.321Q0.528 0.311 0.520 0.306Q0.512 0.300 0.509 0.300Q0.497 0.300 0.475 0.312Q0.453 0.323 0.431 0.337Q0.409 0.352 0.393 0.363Q0.376 0.375 0.376 0.375Q0.378 0.375 0.387 0.380Q0.396 0.385 0.407 0.401Q0.418 0.418 0.418 0.448V0.743Q0.418 0.760 0.423 0.771Q0.428 0.782 0.434 0.788Q0.440 0.795 0.446 0.797Q0.452 0.800 0.454 0.800Z" fill="black"/>
</svg>
