<svg xmlns="http://www.w3.org/2000/svg" viewBox="0 0 1 1" preserveAspectRatio="xMidYMid meet">
  <path d="M0.649 0.231Q0.651 0.231 0.650 0.221Q0.648 0.211 0.645 0.200Q0.643 0.188 0.640 0.181Q0.638 0.173 0.638 0.178Q0.638 0.184 0.616 0.193Q0.595 0.201 0.563 0.211Q0.531 0.221 0.493 0.231Q0.456 0.241 0.424 0.250Q0.392 0.258 0.371 0.263Q0.349 0.268 0.349 0.268Q0.349 0.268 0.371 0.266Q0.393 0.263 0.426 0.259Q0.459 0.254 0.497 0.250Q0.536 0.245 0.569 0.241Q0.603 0.236 0.626 0.234Q0.648 0.231 0.649 0.231ZM0.492 0.800Q0.501 0.800 0.526 0.787Q0.552 0.774 0.579 0.758Q0.607 0.742 0.628 0.729Q0.648 0.716 0.648 0.716Q0.648 0.716 0.640 0.718Q0.631 0.721 0.628 0.721Q0.617 0.721 0.607 0.715Q0.597 0.709 0.597 0.680V0.365Q0.597 0.353 0.590 0.341Q0.584 0.330 0.575 0.321Q0.566 0.311 0.558 0.306Q0.550 0.300 0.547 0.300Q0.535 0.300 0.513 0.312Q0.491 0.323 0.469 0.337Q0.447 0.352 0.431 0.363Q0.414 0.375 0.414 0.375Q0.416 0.375 0.425 0.380Q0.434 0.385 0.445 0.401Q0.456 0.418 0.456 0.448V0.743Q0.456 0.760 0.461 0.771Q0.466 0.782 0.472 0.788Q0.478 0.795 0.484 0.797Q0.490 0.800 0.492 0.800Z" fill="black"/>
</svg>
