<svg xmlns="http://www.w3.org/2000/svg" viewBox="0 0 1 1" preserveAspectRatio="xMidYMid meet">
  <path d="M0.378 0.263Q0.378 0.266 0.393 0.258Q0.407 0.250 0.425 0.240Q0.442 0.230 0.457 0.221Q0.472 0.212 0.473 0.212Q0.474 0.212 0.489 0.221Q0.503 0.229 0.520 0.239Q0.538 0.249 0.552 0.258Q0.567 0.266 0.569 0.266Q0.572 0.266 0.579 0.262Q0.587 0.258 0.594 0.252Q0.602 0.245 0.608 0.238Q0.614 0.231 0.614 0.225Q0.614 0.223 0.596 0.215Q0.579 0.207 0.558 0.199Q0.537 0.190 0.519 0.183Q0.501 0.176 0.500 0.176Q0.499 0.176 0.480 0.189Q0.461 0.202 0.439 0.218Q0.416 0.234 0.397 0.248Q0.378 0.262 0.378 0.263ZM0.465 0.800Q0.474 0.800 0.500 0.787Q0.525 0.774 0.552 0.758Q0.580 0.742 0.601 0.729Q0.622 0.716 0.622 0.716Q0.622 0.716 0.613 0.718Q0.604 0.721 0.601 0.721Q0.590 0.721 0.580 0.715Q0.570 0.709 0.570 0.680V0.365Q0.570 0.353 0.563 0.341Q0.557 0.330 0.548 0.321Q0.539 0.311 0.531 0.306Q0.523 0.300 0.520 0.300Q0.508 0.300 0.486 0.312Q0.464 0.323 0.442 0.337Q0.420 0.352 0.404 0.363Q0.387 0.375 0.387 0.375Q0.389 0.375 0.398 0.380Q0.407 0.385 0.418 0.401Q0.429 0.418 0.429 0.448V0.743Q0.429 0.760 0.434 0.771Q0.439 0.782 0.445 0.788Q0.451 0.795 0.457 0.797Q0.463 0.800 0.465 0.800Z" fill="black"/>
</svg>
