<svg xmlns="http://www.w3.org/2000/svg" viewBox="0 0 1 1" preserveAspectRatio="xMidYMid meet">
  <path d="M0.543 0.225Q0.543 0.241 0.556 0.254Q0.570 0.266 0.577 0.266Q0.583 0.266 0.595 0.260Q0.607 0.254 0.618 0.245Q0.630 0.236 0.639 0.225Q0.648 0.214 0.648 0.205Q0.648 0.201 0.640 0.205Q0.633 0.209 0.624 0.211Q0.615 0.213 0.607 0.209Q0.600 0.205 0.600 0.185Q0.600 0.180 0.591 0.184Q0.582 0.187 0.571 0.195Q0.561 0.202 0.552 0.211Q0.543 0.220 0.543 0.225ZM0.352 0.225Q0.352 0.233 0.357 0.241Q0.361 0.248 0.367 0.254Q0.373 0.259 0.379 0.263Q0.385 0.266 0.388 0.266Q0.394 0.266 0.406 0.260Q0.418 0.254 0.430 0.245Q0.441 0.236 0.450 0.225Q0.459 0.214 0.459 0.205Q0.459 0.201 0.452 0.205Q0.444 0.209 0.436 0.211Q0.427 0.213 0.420 0.209Q0.412 0.205 0.412 0.185Q0.412 0.180 0.403 0.184Q0.393 0.187 0.382 0.195Q0.371 0.202 0.362 0.211Q0.352 0.219 0.352 0.225ZM0.447 0.800Q0.456 0.800 0.482 0.787Q0.507 0.774 0.534 0.758Q0.562 0.742 0.583 0.729Q0.604 0.716 0.604 0.716Q0.604 0.716 0.595 0.718Q0.586 0.721 0.583 0.721Q0.572 0.721 0.562 0.715Q0.552 0.709 0.552 0.680V0.365Q0.552 0.353 0.545 0.341Q0.539 0.330 0.530 0.321Q0.521 0.311 0.513 0.306Q0.505 0.300 0.502 0.300Q0.490 0.300 0.468 0.312Q0.446 0.323 0.424 0.337Q0.402 0.352 0.386 0.363Q0.369 0.375 0.369 0.375Q0.371 0.375 0.380 0.380Q0.389 0.385 0.400 0.401Q0.411 0.418 0.411 0.448V0.743Q0.411 0.760 0.416 0.771Q0.421 0.782 0.427 0.788Q0.433 0.795 0.439 0.797Q0.445 0.800 0.447 0.800Z" fill="black"/>
</svg>
