<svg xmlns="http://www.w3.org/2000/svg" viewBox="0 0 1 1" preserveAspectRatio="xMidYMid meet">
  <path d="M0.272 0.806 0.413 0.754V0.414Q0.413 0.413 0.419 0.407Q0.426 0.401 0.436 0.394Q0.446 0.388 0.458 0.383Q0.470 0.378 0.481 0.378Q0.495 0.378 0.510 0.385Q0.525 0.392 0.538 0.402Q0.550 0.413 0.559 0.425Q0.567 0.438 0.567 0.450V0.734Q0.567 0.744 0.577 0.755Q0.586 0.767 0.599 0.777Q0.611 0.787 0.624 0.794Q0.636 0.801 0.641 0.801Q0.641 0.801 0.661 0.789Q0.681 0.778 0.704 0.763Q0.727 0.748 0.746 0.734Q0.766 0.721 0.766 0.717Q0.766 0.716 0.757 0.713Q0.748 0.711 0.737 0.704Q0.726 0.697 0.717 0.684Q0.708 0.671 0.708 0.649V0.393Q0.708 0.372 0.695 0.355Q0.682 0.338 0.665 0.326Q0.647 0.314 0.630 0.308Q0.613 0.301 0.604 0.301Q0.581 0.301 0.549 0.315Q0.516 0.328 0.486 0.344Q0.456 0.361 0.434 0.374Q0.413 0.388 0.413 0.388Q0.413 0.381 0.408 0.366Q0.404 0.352 0.396 0.337Q0.388 0.323 0.377 0.313Q0.366 0.302 0.352 0.302Q0.344 0.302 0.325 0.313Q0.305 0.324 0.285 0.337Q0.264 0.350 0.249 0.361Q0.233 0.372 0.234 0.373Q0.244 0.383 0.258 0.399Q0.272 0.416 0.272 0.439ZM0.307 0.265Q0.309 0.264 0.320 0.259Q0.330 0.253 0.346 0.247Q0.362 0.240 0.373 0.240Q0.394 0.240 0.414 0.247Q0.435 0.254 0.455 0.263Q0.475 0.272 0.495 0.279Q0.515 0.286 0.535 0.286Q0.551 0.286 0.570 0.275Q0.589 0.263 0.606 0.250Q0.622 0.236 0.634 0.225Q0.645 0.213 0.645 0.213Q0.643 0.214 0.633 0.220Q0.622 0.225 0.606 0.232Q0.590 0.238 0.579 0.238Q0.558 0.238 0.538 0.231Q0.517 0.224 0.497 0.215Q0.477 0.206 0.457 0.199Q0.437 0.192 0.417 0.192Q0.401 0.192 0.382 0.204Q0.363 0.215 0.346 0.229Q0.330 0.242 0.319 0.254Q0.307 0.265 0.307 0.265Z" fill="black"/>
</svg>
