<svg xmlns="http://www.w3.org/2000/svg" viewBox="0 0 1 1" preserveAspectRatio="xMidYMid meet">
  <path d="M0.447 0.800Q0.467 0.800 0.483 0.795Q0.499 0.790 0.513 0.782Q0.528 0.775 0.543 0.765Q0.557 0.755 0.575 0.745Q0.626 0.715 0.662 0.689Q0.697 0.664 0.718 0.639Q0.740 0.613 0.750 0.586Q0.760 0.558 0.760 0.523Q0.760 0.483 0.745 0.443Q0.731 0.403 0.703 0.371Q0.675 0.340 0.635 0.321Q0.595 0.301 0.544 0.301Q0.521 0.301 0.481 0.318Q0.440 0.334 0.398 0.356Q0.357 0.378 0.324 0.398Q0.291 0.419 0.284 0.428Q0.269 0.448 0.255 0.486Q0.240 0.524 0.240 0.569Q0.240 0.597 0.250 0.637Q0.260 0.676 0.284 0.712Q0.308 0.749 0.347 0.774Q0.387 0.800 0.447 0.800ZM0.431 0.362Q0.437 0.362 0.454 0.365Q0.471 0.369 0.492 0.379Q0.513 0.389 0.537 0.406Q0.561 0.423 0.581 0.450Q0.600 0.478 0.613 0.516Q0.626 0.554 0.626 0.607Q0.626 0.623 0.622 0.645Q0.617 0.666 0.608 0.685Q0.599 0.705 0.585 0.718Q0.571 0.732 0.553 0.732Q0.539 0.732 0.508 0.722Q0.478 0.713 0.446 0.687Q0.415 0.662 0.391 0.618Q0.367 0.573 0.367 0.504Q0.367 0.480 0.371 0.454Q0.376 0.428 0.384 0.408Q0.393 0.388 0.404 0.375Q0.416 0.362 0.431 0.362ZM0.549 0.225Q0.549 0.241 0.563 0.254Q0.576 0.266 0.583 0.266Q0.589 0.266 0.601 0.260Q0.613 0.254 0.625 0.245Q0.636 0.236 0.645 0.225Q0.654 0.214 0.654 0.205Q0.654 0.201 0.647 0.205Q0.639 0.209 0.630 0.211Q0.621 0.213 0.614 0.209Q0.606 0.205 0.606 0.185Q0.606 0.180 0.597 0.184Q0.588 0.187 0.578 0.195Q0.567 0.202 0.558 0.211Q0.549 0.220 0.549 0.225ZM0.359 0.225Q0.359 0.233 0.363 0.241Q0.368 0.248 0.374 0.254Q0.380 0.259 0.386 0.263Q0.392 0.266 0.395 0.266Q0.401 0.266 0.413 0.260Q0.425 0.254 0.436 0.245Q0.448 0.236 0.457 0.225Q0.466 0.214 0.466 0.205Q0.466 0.201 0.458 0.205Q0.451 0.209 0.442 0.211Q0.434 0.213 0.426 0.209Q0.419 0.205 0.419 0.185Q0.419 0.180 0.409 0.184Q0.400 0.187 0.389 0.195Q0.378 0.202 0.368 0.211Q0.359 0.219 0.359 0.225Z" fill="black"/>
</svg>
