<svg xmlns="http://www.w3.org/2000/svg" viewBox="0 0 1 1" preserveAspectRatio="xMidYMid meet">
  <path d="M0.440 0.296Q0.440 0.304 0.449 0.313Q0.458 0.321 0.470 0.329Q0.482 0.336 0.494 0.341Q0.506 0.346 0.511 0.346Q0.513 0.346 0.532 0.336Q0.550 0.326 0.571 0.313Q0.592 0.300 0.610 0.290Q0.627 0.279 0.627 0.277Q0.627 0.273 0.618 0.265Q0.608 0.256 0.596 0.248Q0.584 0.239 0.573 0.233Q0.562 0.226 0.558 0.226Q0.549 0.226 0.529 0.237Q0.509 0.247 0.489 0.260Q0.469 0.273 0.455 0.284Q0.440 0.295 0.440 0.296ZM0.370 0.625Q0.370 0.633 0.379 0.642Q0.389 0.650 0.401 0.658Q0.413 0.665 0.425 0.670Q0.437 0.675 0.442 0.675Q0.444 0.675 0.462 0.665Q0.480 0.655 0.501 0.642Q0.522 0.629 0.540 0.619Q0.557 0.608 0.557 0.606Q0.557 0.602 0.548 0.594Q0.538 0.585 0.526 0.577Q0.514 0.568 0.503 0.562Q0.492 0.555 0.488 0.555Q0.479 0.555 0.459 0.566Q0.440 0.576 0.420 0.589Q0.400 0.602 0.385 0.613Q0.370 0.624 0.370 0.625ZM0.275 0.510Q0.283 0.505 0.304 0.503Q0.326 0.500 0.347 0.500H0.610Q0.621 0.500 0.630 0.500Q0.640 0.500 0.648 0.496Q0.664 0.486 0.679 0.467Q0.695 0.448 0.706 0.430Q0.718 0.412 0.723 0.399Q0.729 0.387 0.724 0.391Q0.717 0.396 0.701 0.398Q0.686 0.401 0.670 0.401H0.384Q0.374 0.401 0.365 0.401Q0.356 0.402 0.350 0.406Q0.333 0.416 0.318 0.434Q0.304 0.453 0.293 0.471Q0.282 0.489 0.277 0.500Q0.272 0.512 0.275 0.510Z" fill="black"/>
</svg>
