<svg xmlns="http://www.w3.org/2000/svg" viewBox="0 0 1 1" preserveAspectRatio="xMidYMid meet">
  <path d="M0.449 0.800Q0.470 0.800 0.486 0.795Q0.501 0.790 0.516 0.782Q0.531 0.775 0.546 0.765Q0.560 0.755 0.578 0.745Q0.629 0.715 0.664 0.689Q0.699 0.663 0.721 0.638Q0.743 0.613 0.752 0.587Q0.762 0.560 0.762 0.527Q0.762 0.493 0.755 0.466Q0.748 0.440 0.739 0.422Q0.730 0.404 0.723 0.395Q0.716 0.386 0.716 0.386L0.832 0.283L0.731 0.303L0.681 0.348Q0.681 0.348 0.671 0.341Q0.662 0.334 0.645 0.325Q0.628 0.316 0.603 0.309Q0.578 0.301 0.548 0.301Q0.532 0.301 0.508 0.309Q0.485 0.316 0.457 0.329Q0.430 0.341 0.401 0.355Q0.373 0.370 0.349 0.384Q0.325 0.398 0.308 0.409Q0.291 0.421 0.287 0.427Q0.272 0.447 0.257 0.484Q0.242 0.521 0.242 0.569Q0.242 0.597 0.248 0.621Q0.254 0.645 0.261 0.663Q0.268 0.681 0.274 0.691Q0.280 0.702 0.280 0.702L0.168 0.800L0.269 0.780L0.311 0.743Q0.311 0.743 0.319 0.752Q0.327 0.761 0.344 0.771Q0.361 0.782 0.387 0.791Q0.413 0.800 0.449 0.800ZM0.414 0.652 0.603 0.485Q0.609 0.496 0.619 0.528Q0.628 0.561 0.628 0.605Q0.628 0.625 0.623 0.648Q0.618 0.670 0.609 0.689Q0.599 0.708 0.586 0.720Q0.572 0.732 0.554 0.732Q0.530 0.732 0.507 0.722Q0.484 0.712 0.464 0.698Q0.445 0.685 0.431 0.672Q0.418 0.659 0.414 0.652ZM0.576 0.441 0.388 0.606Q0.384 0.599 0.376 0.571Q0.369 0.543 0.369 0.506Q0.369 0.483 0.373 0.457Q0.378 0.431 0.386 0.410Q0.394 0.389 0.406 0.375Q0.418 0.362 0.433 0.362Q0.454 0.362 0.476 0.371Q0.499 0.380 0.518 0.392Q0.538 0.405 0.554 0.418Q0.569 0.432 0.576 0.441Z" fill="black"/>
</svg>
