<svg xmlns="http://www.w3.org/2000/svg" viewBox="0 0 1 1" preserveAspectRatio="xMidYMid meet">
  <path d="M0.414 0.800Q0.428 0.800 0.456 0.786Q0.485 0.772 0.513 0.754Q0.542 0.736 0.564 0.720Q0.586 0.704 0.586 0.700Q0.587 0.707 0.594 0.723Q0.600 0.739 0.608 0.756Q0.616 0.773 0.625 0.786Q0.633 0.799 0.638 0.799Q0.642 0.799 0.661 0.786Q0.680 0.774 0.701 0.758Q0.722 0.743 0.738 0.730Q0.755 0.717 0.755 0.715Q0.752 0.715 0.747 0.711Q0.743 0.707 0.738 0.700Q0.734 0.694 0.730 0.685Q0.727 0.677 0.727 0.669V0.379Q0.727 0.374 0.717 0.361Q0.708 0.348 0.695 0.334Q0.682 0.321 0.670 0.311Q0.658 0.301 0.652 0.301Q0.645 0.301 0.627 0.312Q0.609 0.323 0.591 0.337Q0.572 0.352 0.558 0.365Q0.544 0.379 0.544 0.384Q0.544 0.388 0.551 0.395Q0.557 0.402 0.565 0.411Q0.573 0.420 0.580 0.431Q0.586 0.442 0.586 0.454V0.675Q0.586 0.682 0.574 0.690Q0.562 0.698 0.547 0.705Q0.531 0.712 0.516 0.717Q0.500 0.722 0.495 0.722Q0.490 0.722 0.480 0.717Q0.470 0.713 0.459 0.706Q0.448 0.700 0.440 0.691Q0.432 0.682 0.432 0.673V0.374Q0.432 0.370 0.423 0.358Q0.415 0.347 0.403 0.334Q0.392 0.322 0.381 0.313Q0.370 0.303 0.366 0.303Q0.361 0.303 0.341 0.314Q0.322 0.324 0.301 0.337Q0.279 0.351 0.262 0.364Q0.245 0.378 0.245 0.383Q0.245 0.385 0.252 0.392Q0.259 0.399 0.268 0.407Q0.277 0.416 0.284 0.425Q0.291 0.434 0.291 0.441V0.695Q0.291 0.711 0.307 0.729Q0.322 0.748 0.343 0.763Q0.364 0.779 0.384 0.789Q0.405 0.800 0.414 0.800ZM0.391 0.180Q0.391 0.175 0.388 0.183Q0.386 0.190 0.383 0.202Q0.380 0.213 0.378 0.223Q0.377 0.233 0.379 0.233Q0.380 0.233 0.403 0.236Q0.426 0.238 0.459 0.243Q0.493 0.247 0.531 0.252Q0.569 0.256 0.602 0.261Q0.635 0.265 0.657 0.268Q0.679 0.270 0.679 0.270Q0.679 0.270 0.658 0.265Q0.636 0.260 0.604 0.252Q0.572 0.243 0.535 0.233Q0.498 0.223 0.466 0.213Q0.434 0.203 0.412 0.195Q0.391 0.186 0.391 0.180Z" fill="black"/>
</svg>
