<svg xmlns="http://www.w3.org/2000/svg" viewBox="0 0 1 1" preserveAspectRatio="xMidYMid meet">
  <path d="M0.414 0.800Q0.428 0.800 0.456 0.786Q0.485 0.772 0.513 0.754Q0.542 0.736 0.564 0.720Q0.586 0.704 0.586 0.700Q0.587 0.707 0.594 0.723Q0.600 0.739 0.608 0.756Q0.616 0.773 0.625 0.786Q0.633 0.799 0.638 0.799Q0.642 0.799 0.661 0.786Q0.680 0.774 0.701 0.758Q0.722 0.743 0.738 0.730Q0.755 0.717 0.755 0.715Q0.752 0.715 0.747 0.711Q0.743 0.707 0.738 0.700Q0.734 0.694 0.730 0.685Q0.727 0.677 0.727 0.669V0.379Q0.727 0.374 0.717 0.361Q0.708 0.348 0.695 0.334Q0.682 0.321 0.670 0.311Q0.658 0.301 0.652 0.301Q0.645 0.301 0.627 0.312Q0.609 0.323 0.591 0.337Q0.572 0.352 0.558 0.365Q0.544 0.379 0.544 0.384Q0.544 0.388 0.551 0.395Q0.557 0.402 0.565 0.411Q0.573 0.420 0.580 0.431Q0.586 0.442 0.586 0.454V0.675Q0.586 0.682 0.574 0.690Q0.562 0.698 0.547 0.705Q0.531 0.712 0.516 0.717Q0.500 0.722 0.495 0.722Q0.490 0.722 0.480 0.717Q0.470 0.713 0.459 0.706Q0.448 0.700 0.440 0.691Q0.432 0.682 0.432 0.673V0.374Q0.432 0.370 0.423 0.358Q0.415 0.347 0.403 0.334Q0.392 0.322 0.381 0.313Q0.370 0.303 0.366 0.303Q0.361 0.303 0.341 0.314Q0.322 0.324 0.301 0.337Q0.279 0.351 0.262 0.364Q0.245 0.378 0.245 0.383Q0.245 0.385 0.252 0.392Q0.259 0.399 0.268 0.407Q0.277 0.416 0.284 0.425Q0.291 0.434 0.291 0.441V0.695Q0.291 0.711 0.307 0.729Q0.322 0.748 0.343 0.763Q0.364 0.779 0.384 0.789Q0.405 0.800 0.414 0.800ZM0.582 0.225Q0.582 0.241 0.596 0.254Q0.609 0.266 0.616 0.266Q0.622 0.266 0.634 0.260Q0.645 0.254 0.657 0.245Q0.669 0.236 0.678 0.225Q0.687 0.214 0.687 0.205Q0.687 0.201 0.679 0.205Q0.672 0.209 0.663 0.211Q0.654 0.213 0.647 0.209Q0.639 0.205 0.639 0.185Q0.639 0.180 0.630 0.184Q0.621 0.187 0.611 0.195Q0.600 0.202 0.591 0.211Q0.582 0.220 0.582 0.225ZM0.392 0.225Q0.392 0.233 0.396 0.241Q0.401 0.248 0.407 0.254Q0.413 0.259 0.419 0.263Q0.425 0.266 0.428 0.266Q0.434 0.266 0.446 0.260Q0.458 0.254 0.469 0.245Q0.481 0.236 0.490 0.225Q0.499 0.214 0.499 0.205Q0.499 0.201 0.491 0.205Q0.484 0.209 0.475 0.211Q0.467 0.213 0.459 0.209Q0.452 0.205 0.452 0.185Q0.452 0.180 0.442 0.184Q0.433 0.187 0.422 0.195Q0.411 0.202 0.401 0.211Q0.392 0.219 0.392 0.225Z" fill="black"/>
</svg>
