<svg xmlns="http://www.w3.org/2000/svg" viewBox="0 0 1 1" preserveAspectRatio="xMidYMid meet">
  <path d="M0.353 1.000 0.482 0.939V0.789Q0.482 0.789 0.500 0.772Q0.518 0.756 0.545 0.729Q0.572 0.702 0.604 0.667Q0.635 0.633 0.662 0.597Q0.689 0.560 0.707 0.525Q0.725 0.490 0.725 0.462Q0.725 0.390 0.709 0.355Q0.694 0.321 0.674 0.309Q0.655 0.297 0.636 0.299Q0.617 0.301 0.611 0.301Q0.603 0.301 0.584 0.320Q0.565 0.338 0.544 0.361Q0.523 0.385 0.505 0.405Q0.487 0.426 0.482 0.429V0.191Q0.481 0.177 0.479 0.165Q0.477 0.152 0.470 0.152Q0.458 0.152 0.439 0.160Q0.420 0.168 0.397 0.182Q0.374 0.195 0.351 0.210Q0.329 0.225 0.311 0.239Q0.293 0.252 0.283 0.261Q0.273 0.269 0.276 0.269Q0.278 0.269 0.290 0.263Q0.302 0.257 0.316 0.250Q0.330 0.242 0.341 0.236Q0.353 0.230 0.353 0.230ZM0.482 0.760V0.465Q0.482 0.464 0.491 0.452Q0.500 0.441 0.512 0.428Q0.524 0.415 0.535 0.404Q0.546 0.394 0.549 0.394Q0.555 0.394 0.567 0.402Q0.578 0.410 0.589 0.428Q0.599 0.447 0.607 0.476Q0.615 0.504 0.615 0.546Q0.615 0.586 0.596 0.624Q0.577 0.661 0.554 0.690Q0.530 0.720 0.509 0.739Q0.487 0.758 0.482 0.760Z" fill="black"/>
</svg>
