<svg xmlns="http://www.w3.org/2000/svg" viewBox="0 0 1 1" preserveAspectRatio="xMidYMid meet">
  <path d="M0.392 0.976Q0.377 0.968 0.361 0.964Q0.346 0.959 0.328 0.952Q0.327 0.941 0.328 0.930Q0.329 0.919 0.324 0.908Q0.309 0.900 0.294 0.897Q0.278 0.894 0.263 0.885Q0.260 0.729 0.262 0.573Q0.263 0.418 0.262 0.259Q0.275 0.250 0.292 0.246Q0.308 0.242 0.324 0.235L0.328 0.229V0.148L0.332 0.143Q0.416 0.130 0.500 0.085Q0.585 0.041 0.670 0.078Q0.672 0.087 0.671 0.098Q0.670 0.108 0.672 0.117L0.676 0.123Q0.690 0.129 0.706 0.134Q0.722 0.139 0.737 0.145Q0.739 0.192 0.738 0.239Q0.737 0.287 0.739 0.335Q0.737 0.449 0.738 0.558Q0.740 0.667 0.735 0.776Q0.721 0.780 0.706 0.786Q0.691 0.791 0.676 0.797L0.672 0.804V0.883Q0.668 0.883 0.666 0.886Q0.665 0.889 0.661 0.891Q0.596 0.910 0.530 0.933Q0.464 0.957 0.399 0.976H0.392ZM0.394 0.955V0.897L0.390 0.893Q0.379 0.900 0.368 0.901Q0.357 0.902 0.347 0.908L0.341 0.914V0.936L0.347 0.942Q0.357 0.947 0.367 0.950Q0.378 0.952 0.387 0.958ZM0.327 0.888Q0.325 0.871 0.326 0.854Q0.327 0.836 0.325 0.821Q0.314 0.815 0.303 0.812Q0.292 0.810 0.282 0.805L0.274 0.807Q0.275 0.824 0.274 0.841Q0.273 0.859 0.276 0.873Q0.288 0.879 0.299 0.882Q0.310 0.884 0.321 0.891ZM0.479 0.847Q0.486 0.842 0.493 0.841Q0.500 0.839 0.506 0.836Q0.492 0.830 0.479 0.827L0.474 0.830Q0.475 0.835 0.474 0.839Q0.473 0.843 0.476 0.847ZM0.533 0.829Q0.544 0.824 0.554 0.821Q0.565 0.817 0.573 0.815Q0.535 0.795 0.495 0.815Q0.503 0.817 0.513 0.821Q0.522 0.824 0.533 0.829ZM0.327 0.799Q0.324 0.780 0.326 0.764Q0.328 0.748 0.324 0.732Q0.312 0.726 0.301 0.723Q0.290 0.721 0.279 0.715L0.274 0.720Q0.277 0.737 0.275 0.753Q0.273 0.769 0.278 0.787Q0.290 0.792 0.301 0.795Q0.312 0.798 0.323 0.804ZM0.481 0.802Q0.491 0.796 0.502 0.794Q0.512 0.792 0.521 0.788L0.526 0.782V0.233L0.523 0.229Q0.510 0.237 0.497 0.239Q0.484 0.241 0.474 0.251Q0.475 0.390 0.474 0.527Q0.473 0.664 0.476 0.802ZM0.593 0.801Q0.590 0.783 0.593 0.765Q0.596 0.747 0.588 0.730Q0.575 0.728 0.564 0.723Q0.553 0.717 0.541 0.717V0.782L0.546 0.788Q0.556 0.793 0.567 0.796Q0.577 0.799 0.587 0.802ZM0.327 0.712Q0.324 0.695 0.326 0.677Q0.328 0.660 0.324 0.642Q0.297 0.634 0.279 0.627L0.274 0.631V0.692L0.279 0.698Q0.290 0.703 0.300 0.706Q0.311 0.708 0.321 0.714ZM0.593 0.711Q0.590 0.693 0.592 0.677Q0.595 0.661 0.590 0.644Q0.578 0.640 0.567 0.636Q0.556 0.631 0.546 0.627L0.541 0.630Q0.542 0.647 0.541 0.665Q0.540 0.682 0.543 0.697Q0.555 0.703 0.566 0.706Q0.576 0.708 0.587 0.714ZM0.327 0.623Q0.324 0.606 0.327 0.588Q0.329 0.570 0.323 0.554Q0.312 0.549 0.301 0.546Q0.290 0.544 0.282 0.539L0.274 0.541V0.604Q0.279 0.611 0.283 0.613Q0.302 0.615 0.321 0.625ZM0.593 0.623Q0.590 0.606 0.593 0.588Q0.596 0.570 0.588 0.554Q0.575 0.552 0.564 0.546Q0.553 0.541 0.541 0.541V0.604L0.546 0.611Q0.556 0.616 0.567 0.617Q0.577 0.619 0.587 0.625ZM0.327 0.535V0.474L0.323 0.465Q0.309 0.462 0.296 0.457Q0.284 0.451 0.274 0.451V0.515L0.279 0.521Q0.290 0.526 0.300 0.529Q0.311 0.532 0.321 0.538ZM0.593 0.535V0.474Q0.585 0.464 0.587 0.464L0.583 0.462Q0.573 0.461 0.564 0.457Q0.555 0.453 0.546 0.449L0.541 0.453Q0.542 0.471 0.541 0.488Q0.540 0.505 0.543 0.520Q0.555 0.526 0.566 0.529Q0.576 0.532 0.587 0.538ZM0.327 0.447Q0.324 0.429 0.327 0.411Q0.329 0.393 0.323 0.377Q0.312 0.372 0.301 0.369Q0.290 0.367 0.282 0.362L0.274 0.364V0.428Q0.278 0.434 0.283 0.435Q0.291 0.436 0.300 0.440Q0.310 0.443 0.321 0.448ZM0.593 0.447Q0.590 0.429 0.593 0.411Q0.596 0.393 0.588 0.377Q0.578 0.374 0.568 0.370Q0.557 0.366 0.547 0.362L0.541 0.364V0.428L0.546 0.434Q0.556 0.439 0.567 0.441Q0.577 0.442 0.587 0.448ZM0.327 0.358Q0.324 0.339 0.327 0.322Q0.329 0.304 0.323 0.288Q0.309 0.285 0.296 0.279Q0.284 0.274 0.274 0.274V0.338Q0.278 0.345 0.283 0.346Q0.293 0.348 0.302 0.353Q0.311 0.358 0.321 0.361ZM0.593 0.356Q0.590 0.338 0.592 0.322Q0.595 0.306 0.590 0.289Q0.578 0.283 0.567 0.281Q0.556 0.279 0.546 0.273L0.541 0.276Q0.542 0.294 0.541 0.310Q0.540 0.327 0.543 0.343Q0.555 0.349 0.566 0.352Q0.576 0.355 0.587 0.361ZM0.333 0.276Q0.341 0.269 0.354 0.267Q0.366 0.265 0.373 0.260Q0.363 0.258 0.352 0.254Q0.341 0.250 0.332 0.247Q0.322 0.252 0.312 0.255Q0.302 0.257 0.296 0.261Q0.303 0.263 0.312 0.267Q0.322 0.271 0.333 0.276ZM0.593 0.268V0.213L0.588 0.206Q0.575 0.212 0.564 0.215Q0.553 0.218 0.541 0.225V0.251Q0.546 0.258 0.549 0.259Q0.558 0.260 0.568 0.264Q0.578 0.268 0.587 0.271ZM0.394 0.247V0.183Q0.389 0.177 0.386 0.175Q0.376 0.174 0.365 0.170Q0.355 0.166 0.348 0.163L0.341 0.165V0.229L0.347 0.235Q0.357 0.240 0.367 0.241Q0.378 0.243 0.387 0.249ZM0.400 0.165Q0.410 0.159 0.420 0.157Q0.431 0.155 0.439 0.148Q0.426 0.147 0.413 0.142Q0.399 0.136 0.387 0.140Q0.378 0.145 0.366 0.148L0.363 0.151Q0.373 0.153 0.382 0.158Q0.390 0.163 0.400 0.165ZM0.676 0.162Q0.697 0.151 0.705 0.151Q0.700 0.147 0.692 0.145Q0.684 0.143 0.680 0.142L0.673 0.143V0.158L0.676 0.162ZM0.466 0.142Q0.477 0.138 0.487 0.135Q0.498 0.132 0.507 0.128Q0.496 0.123 0.485 0.121Q0.475 0.119 0.466 0.115Q0.458 0.117 0.452 0.120Q0.446 0.123 0.440 0.123Q0.437 0.126 0.433 0.127Q0.430 0.127 0.428 0.128Q0.438 0.132 0.447 0.135Q0.456 0.138 0.466 0.142ZM0.533 0.120Q0.544 0.118 0.553 0.114Q0.563 0.111 0.571 0.106Q0.560 0.101 0.550 0.099Q0.541 0.097 0.532 0.092Q0.521 0.098 0.511 0.101Q0.500 0.104 0.495 0.107Q0.505 0.109 0.514 0.113Q0.523 0.118 0.533 0.120ZM0.599 0.098Q0.609 0.095 0.619 0.091Q0.630 0.087 0.640 0.085Q0.632 0.079 0.623 0.079Q0.614 0.078 0.606 0.072Q0.595 0.073 0.583 0.077Q0.571 0.080 0.560 0.085Q0.570 0.087 0.579 0.091Q0.588 0.095 0.599 0.098Z" fill="black"/>
</svg>
