<svg xmlns="http://www.w3.org/2000/svg" viewBox="0 0 1 1" preserveAspectRatio="xMidYMid meet">
  <path d="M0.467 0.954Q0.451 0.947 0.435 0.942Q0.420 0.937 0.403 0.930V0.746Q0.417 0.737 0.433 0.733Q0.450 0.730 0.465 0.722Q0.470 0.685 0.470 0.649Q0.471 0.613 0.470 0.577Q0.470 0.541 0.469 0.504Q0.468 0.467 0.471 0.431L0.465 0.427Q0.442 0.434 0.419 0.442Q0.395 0.450 0.371 0.458Q0.321 0.476 0.274 0.444L0.271 0.439V0.347Q0.299 0.334 0.333 0.324Q0.368 0.314 0.400 0.301Q0.405 0.280 0.403 0.259Q0.401 0.237 0.403 0.214Q0.407 0.214 0.408 0.212Q0.410 0.209 0.415 0.206Q0.443 0.201 0.465 0.191L0.471 0.184V0.105Q0.504 0.089 0.541 0.078Q0.578 0.066 0.614 0.057Q0.629 0.062 0.645 0.067Q0.661 0.071 0.678 0.079L0.681 0.084V0.192V0.649L0.689 0.660Q0.697 0.659 0.706 0.663Q0.714 0.667 0.724 0.669L0.729 0.677V0.868Q0.668 0.892 0.603 0.913Q0.539 0.934 0.474 0.954H0.467ZM0.468 0.932Q0.466 0.915 0.468 0.898Q0.471 0.881 0.465 0.865Q0.454 0.859 0.443 0.857Q0.432 0.855 0.421 0.849L0.417 0.852V0.916Q0.427 0.925 0.440 0.928Q0.453 0.931 0.463 0.936ZM0.468 0.845Q0.466 0.826 0.468 0.810Q0.471 0.794 0.465 0.777Q0.454 0.772 0.443 0.769Q0.432 0.765 0.421 0.760L0.417 0.763Q0.418 0.780 0.417 0.797Q0.416 0.814 0.419 0.830Q0.430 0.835 0.441 0.838Q0.452 0.840 0.462 0.848ZM0.476 0.763Q0.484 0.756 0.494 0.755Q0.505 0.753 0.515 0.748Q0.505 0.744 0.496 0.742Q0.487 0.740 0.479 0.736Q0.464 0.740 0.454 0.743Q0.443 0.746 0.437 0.750Q0.452 0.751 0.476 0.763ZM0.535 0.736Q0.532 0.718 0.534 0.700Q0.536 0.682 0.532 0.666Q0.518 0.662 0.506 0.657Q0.493 0.651 0.483 0.651V0.715L0.488 0.722Q0.516 0.731 0.529 0.738ZM0.686 0.692Q0.693 0.689 0.700 0.686Q0.707 0.684 0.713 0.682Q0.704 0.680 0.697 0.676Q0.690 0.673 0.683 0.675Q0.684 0.681 0.683 0.685Q0.682 0.689 0.684 0.692ZM0.535 0.644V0.584L0.529 0.576Q0.519 0.573 0.508 0.569Q0.497 0.565 0.488 0.562L0.483 0.564V0.627Q0.486 0.633 0.491 0.635Q0.502 0.637 0.511 0.641Q0.520 0.644 0.529 0.648ZM0.535 0.557Q0.532 0.540 0.534 0.522Q0.537 0.504 0.529 0.488Q0.519 0.483 0.508 0.481Q0.497 0.479 0.488 0.473L0.483 0.476V0.540Q0.493 0.548 0.505 0.551Q0.517 0.555 0.527 0.559ZM0.535 0.468Q0.533 0.452 0.534 0.437Q0.536 0.422 0.533 0.408H0.527Q0.516 0.414 0.504 0.416Q0.492 0.419 0.483 0.425V0.450L0.488 0.456Q0.499 0.458 0.510 0.463Q0.520 0.468 0.529 0.471ZM0.335 0.446V0.385L0.330 0.377Q0.319 0.374 0.308 0.369Q0.298 0.365 0.289 0.363L0.285 0.365V0.428Q0.288 0.434 0.293 0.436Q0.303 0.438 0.311 0.442Q0.320 0.446 0.330 0.449ZM0.343 0.365Q0.351 0.358 0.363 0.357Q0.376 0.356 0.381 0.349Q0.371 0.348 0.360 0.342Q0.350 0.337 0.339 0.337Q0.330 0.342 0.321 0.344Q0.311 0.346 0.304 0.350Q0.314 0.356 0.324 0.357Q0.333 0.359 0.343 0.365ZM0.409 0.342Q0.419 0.337 0.429 0.334Q0.439 0.331 0.448 0.327Q0.408 0.311 0.370 0.327Q0.380 0.331 0.389 0.335Q0.398 0.339 0.409 0.342ZM0.468 0.314Q0.466 0.296 0.469 0.278Q0.472 0.260 0.463 0.243Q0.450 0.241 0.438 0.236Q0.426 0.231 0.417 0.231V0.295L0.421 0.301Q0.432 0.305 0.443 0.308Q0.453 0.311 0.462 0.317ZM0.477 0.231Q0.487 0.225 0.496 0.223Q0.505 0.222 0.515 0.217Q0.508 0.212 0.498 0.212Q0.489 0.211 0.482 0.205Q0.473 0.203 0.465 0.207Q0.457 0.211 0.450 0.211Q0.446 0.215 0.442 0.216Q0.437 0.216 0.437 0.220Q0.450 0.220 0.476 0.233ZM0.535 0.203Q0.532 0.186 0.534 0.168Q0.536 0.150 0.532 0.133Q0.520 0.131 0.509 0.127Q0.497 0.122 0.490 0.119L0.483 0.121V0.184L0.488 0.191Q0.499 0.195 0.510 0.197Q0.520 0.199 0.529 0.205ZM0.543 0.121Q0.549 0.116 0.561 0.113Q0.574 0.111 0.580 0.105Q0.567 0.104 0.554 0.098Q0.542 0.092 0.529 0.097Q0.519 0.104 0.503 0.107Q0.513 0.111 0.523 0.114Q0.533 0.117 0.543 0.121ZM0.608 0.099Q0.617 0.093 0.628 0.091Q0.638 0.089 0.646 0.082Q0.635 0.082 0.626 0.077Q0.616 0.072 0.608 0.071Q0.601 0.072 0.595 0.076Q0.588 0.079 0.582 0.079Q0.578 0.082 0.575 0.083Q0.571 0.083 0.569 0.084Q0.580 0.087 0.589 0.091Q0.598 0.095 0.608 0.099Z" fill="black"/>
</svg>
