<svg xmlns="http://www.w3.org/2000/svg" viewBox="0 0 1 1" preserveAspectRatio="xMidYMid meet">
  <path d="M0.326 1.000Q0.310 0.993 0.295 0.988Q0.279 0.983 0.262 0.975Q0.262 0.792 0.265 0.790Q0.268 0.788 0.273 0.784Q0.285 0.783 0.298 0.777Q0.310 0.772 0.325 0.767Q0.329 0.747 0.327 0.725Q0.325 0.703 0.328 0.682Q0.341 0.674 0.357 0.669Q0.373 0.664 0.390 0.658L0.395 0.651V0.571L0.398 0.566Q0.411 0.561 0.426 0.557Q0.441 0.554 0.448 0.551Q0.455 0.548 0.456 0.545Q0.458 0.543 0.461 0.538V0.461L0.465 0.456Q0.477 0.449 0.492 0.445Q0.508 0.441 0.522 0.438L0.527 0.431V0.234L0.522 0.231Q0.514 0.232 0.504 0.237Q0.494 0.242 0.484 0.242L0.477 0.245L0.472 0.251V0.420Q0.469 0.420 0.467 0.423Q0.466 0.426 0.461 0.428Q0.416 0.438 0.367 0.458Q0.321 0.477 0.273 0.450Q0.265 0.446 0.264 0.444Q0.261 0.398 0.262 0.353Q0.263 0.307 0.262 0.260Q0.280 0.251 0.294 0.247Q0.308 0.243 0.323 0.238Q0.330 0.216 0.327 0.196Q0.325 0.175 0.328 0.152L0.331 0.147Q0.373 0.139 0.415 0.124Q0.456 0.110 0.498 0.087Q0.585 0.043 0.668 0.080L0.672 0.085V0.120L0.676 0.127Q0.691 0.131 0.706 0.136Q0.721 0.141 0.737 0.147Q0.739 0.214 0.738 0.283Q0.737 0.352 0.738 0.420Q0.709 0.437 0.683 0.441L0.676 0.444L0.672 0.450V0.530L0.668 0.535Q0.655 0.541 0.640 0.544Q0.625 0.548 0.611 0.554L0.605 0.563V0.640L0.601 0.644Q0.588 0.650 0.573 0.656Q0.558 0.662 0.544 0.666L0.539 0.672V0.751L0.536 0.756Q0.522 0.760 0.508 0.765Q0.493 0.770 0.479 0.775Q0.478 0.775 0.472 0.785V0.801L0.477 0.806Q0.521 0.790 0.566 0.776Q0.610 0.762 0.656 0.745Q0.677 0.745 0.696 0.752Q0.715 0.759 0.734 0.766L0.738 0.772V0.865Q0.637 0.898 0.536 0.934Q0.434 0.971 0.331 0.999L0.326 1.000ZM0.326 0.979Q0.324 0.961 0.325 0.944Q0.327 0.926 0.323 0.910Q0.311 0.908 0.300 0.902Q0.288 0.897 0.282 0.894L0.275 0.896V0.960L0.280 0.966Q0.290 0.972 0.301 0.974Q0.311 0.977 0.322 0.981ZM0.326 0.890Q0.324 0.873 0.326 0.855Q0.328 0.836 0.322 0.820Q0.310 0.819 0.300 0.814Q0.289 0.809 0.280 0.806L0.275 0.809V0.873L0.280 0.879Q0.290 0.880 0.301 0.885Q0.311 0.890 0.322 0.893ZM0.479 0.849Q0.486 0.845 0.493 0.843Q0.500 0.841 0.507 0.839Q0.501 0.834 0.494 0.834Q0.486 0.833 0.480 0.830H0.474Q0.475 0.836 0.474 0.841Q0.473 0.846 0.475 0.849ZM0.533 0.830Q0.541 0.824 0.552 0.822Q0.563 0.820 0.573 0.817Q0.563 0.812 0.555 0.810Q0.547 0.809 0.539 0.804Q0.507 0.809 0.494 0.818Q0.510 0.821 0.533 0.830ZM0.334 0.809Q0.342 0.802 0.353 0.800Q0.364 0.799 0.373 0.795Q0.369 0.793 0.367 0.792Q0.364 0.791 0.363 0.790Q0.324 0.773 0.296 0.796Q0.304 0.797 0.314 0.800Q0.324 0.804 0.334 0.809ZM0.600 0.809Q0.607 0.803 0.617 0.801Q0.626 0.799 0.635 0.796L0.639 0.793Q0.619 0.787 0.599 0.784Q0.579 0.782 0.561 0.796Q0.572 0.798 0.581 0.802Q0.590 0.806 0.600 0.809ZM0.665 0.787Q0.673 0.779 0.684 0.778Q0.696 0.776 0.706 0.772Q0.696 0.767 0.686 0.765Q0.677 0.763 0.668 0.759Q0.648 0.764 0.627 0.772Q0.638 0.776 0.647 0.779Q0.656 0.783 0.665 0.787ZM0.393 0.778Q0.390 0.760 0.392 0.744Q0.394 0.729 0.390 0.711Q0.376 0.707 0.365 0.703Q0.354 0.699 0.342 0.697V0.764Q0.351 0.770 0.363 0.773Q0.375 0.775 0.387 0.782ZM0.401 0.697Q0.410 0.694 0.420 0.689Q0.430 0.684 0.439 0.684Q0.430 0.678 0.420 0.677Q0.409 0.677 0.401 0.671Q0.390 0.675 0.379 0.677Q0.367 0.680 0.361 0.684Q0.371 0.686 0.381 0.691Q0.390 0.695 0.399 0.697ZM0.460 0.669Q0.457 0.650 0.459 0.635Q0.461 0.619 0.457 0.602Q0.445 0.598 0.433 0.593Q0.422 0.588 0.412 0.584L0.407 0.587Q0.409 0.606 0.407 0.622Q0.406 0.639 0.409 0.654Q0.421 0.661 0.432 0.663Q0.443 0.665 0.454 0.672ZM0.466 0.587Q0.476 0.580 0.486 0.579Q0.496 0.578 0.507 0.573Q0.496 0.568 0.487 0.566Q0.477 0.564 0.470 0.560Q0.459 0.562 0.448 0.566Q0.437 0.570 0.428 0.573Q0.438 0.578 0.448 0.580Q0.457 0.582 0.466 0.587ZM0.525 0.560V0.496L0.520 0.489Q0.510 0.485 0.499 0.482Q0.488 0.479 0.479 0.474L0.474 0.478V0.541Q0.485 0.550 0.498 0.553Q0.512 0.556 0.522 0.562ZM0.532 0.476Q0.542 0.474 0.553 0.469Q0.563 0.464 0.573 0.463Q0.566 0.457 0.556 0.457Q0.546 0.456 0.539 0.450Q0.528 0.451 0.516 0.455Q0.505 0.458 0.493 0.463Q0.504 0.465 0.513 0.469Q0.522 0.473 0.532 0.476ZM0.326 0.447V0.386L0.322 0.378Q0.310 0.375 0.300 0.371Q0.289 0.367 0.280 0.365L0.275 0.366V0.430L0.280 0.436Q0.290 0.440 0.301 0.443Q0.311 0.446 0.322 0.450ZM0.592 0.449Q0.590 0.431 0.592 0.413Q0.594 0.395 0.589 0.378Q0.576 0.377 0.564 0.371Q0.553 0.365 0.541 0.365Q0.543 0.382 0.541 0.401Q0.539 0.421 0.544 0.434Q0.554 0.440 0.565 0.442Q0.576 0.443 0.586 0.450ZM0.326 0.360V0.296L0.320 0.288Q0.307 0.287 0.296 0.282Q0.284 0.276 0.275 0.276V0.340L0.280 0.347Q0.290 0.352 0.301 0.354Q0.311 0.357 0.322 0.363ZM0.592 0.360Q0.590 0.341 0.592 0.324Q0.594 0.306 0.587 0.290Q0.576 0.286 0.566 0.283Q0.556 0.279 0.546 0.276L0.541 0.278Q0.542 0.296 0.541 0.312Q0.540 0.329 0.542 0.345Q0.554 0.350 0.566 0.354Q0.577 0.358 0.587 0.363ZM0.332 0.276Q0.343 0.274 0.354 0.270Q0.364 0.265 0.373 0.263Q0.366 0.258 0.357 0.258Q0.347 0.257 0.340 0.251Q0.328 0.253 0.315 0.257Q0.302 0.260 0.294 0.263Q0.301 0.265 0.311 0.268Q0.321 0.271 0.332 0.276ZM0.592 0.270Q0.591 0.255 0.592 0.240Q0.593 0.226 0.591 0.211L0.587 0.209Q0.577 0.213 0.566 0.217Q0.555 0.222 0.546 0.223Q0.539 0.230 0.541 0.238Q0.542 0.247 0.541 0.254Q0.550 0.261 0.562 0.264Q0.575 0.266 0.586 0.273ZM0.393 0.249Q0.390 0.232 0.392 0.214Q0.394 0.196 0.390 0.179Q0.376 0.177 0.365 0.171Q0.354 0.165 0.342 0.165Q0.344 0.183 0.342 0.202Q0.340 0.221 0.345 0.236Q0.355 0.241 0.366 0.242Q0.376 0.244 0.387 0.251ZM0.401 0.167Q0.410 0.161 0.421 0.158Q0.431 0.155 0.439 0.150Q0.426 0.149 0.413 0.144Q0.400 0.138 0.388 0.142Q0.383 0.146 0.374 0.148Q0.366 0.149 0.361 0.152Q0.371 0.159 0.381 0.160Q0.391 0.162 0.401 0.167ZM0.676 0.164Q0.684 0.159 0.692 0.157Q0.700 0.154 0.706 0.152Q0.698 0.149 0.691 0.147Q0.683 0.145 0.680 0.142L0.673 0.144Q0.674 0.149 0.673 0.155Q0.672 0.161 0.675 0.164ZM0.466 0.144Q0.476 0.140 0.486 0.137Q0.496 0.134 0.507 0.130Q0.463 0.114 0.428 0.130Q0.436 0.133 0.446 0.137Q0.455 0.140 0.466 0.144ZM0.532 0.122Q0.542 0.120 0.553 0.115Q0.563 0.111 0.573 0.108Q0.561 0.106 0.551 0.102Q0.540 0.098 0.532 0.095Q0.524 0.097 0.518 0.100Q0.512 0.103 0.509 0.103Q0.507 0.103 0.493 0.108Q0.504 0.111 0.513 0.115Q0.522 0.119 0.532 0.122ZM0.599 0.100Q0.607 0.097 0.619 0.093Q0.631 0.089 0.637 0.083Q0.627 0.082 0.617 0.078Q0.606 0.073 0.599 0.072Q0.591 0.073 0.585 0.077Q0.579 0.080 0.573 0.080Q0.570 0.083 0.566 0.084Q0.562 0.084 0.560 0.085Q0.571 0.089 0.580 0.093Q0.589 0.097 0.599 0.100Z" fill="black"/>
</svg>
