<svg xmlns="http://www.w3.org/2000/svg" viewBox="0 0 1 1" preserveAspectRatio="xMidYMid meet">
  <path d="M0.391 0.976Q0.375 0.970 0.360 0.965Q0.344 0.960 0.328 0.952Q0.326 0.941 0.327 0.930Q0.329 0.920 0.323 0.908Q0.309 0.905 0.295 0.899Q0.280 0.893 0.265 0.888L0.262 0.884V0.702Q0.263 0.701 0.266 0.700Q0.270 0.698 0.273 0.695Q0.321 0.682 0.371 0.665Q0.421 0.646 0.471 0.678Q0.473 0.707 0.472 0.738Q0.471 0.769 0.472 0.801L0.477 0.804Q0.488 0.801 0.499 0.798Q0.510 0.795 0.522 0.789L0.527 0.784V0.588L0.524 0.584Q0.470 0.611 0.396 0.577Q0.394 0.554 0.395 0.530Q0.396 0.507 0.395 0.482L0.398 0.477Q0.426 0.470 0.456 0.458Q0.486 0.447 0.516 0.439L0.522 0.436L0.527 0.429V0.235L0.524 0.231Q0.513 0.232 0.502 0.235Q0.491 0.239 0.485 0.241Q0.479 0.243 0.478 0.245Q0.476 0.247 0.472 0.252V0.278Q0.471 0.317 0.473 0.353Q0.474 0.388 0.470 0.423Q0.446 0.431 0.420 0.440Q0.394 0.448 0.367 0.458Q0.313 0.477 0.264 0.445Q0.261 0.399 0.262 0.353Q0.263 0.307 0.262 0.260L0.267 0.256Q0.295 0.243 0.319 0.240L0.322 0.238Q0.320 0.238 0.328 0.229V0.149Q0.400 0.128 0.473 0.097Q0.547 0.065 0.622 0.063Q0.633 0.068 0.645 0.071Q0.658 0.074 0.670 0.080Q0.672 0.089 0.671 0.100Q0.670 0.110 0.672 0.118L0.676 0.125Q0.691 0.132 0.706 0.136Q0.722 0.140 0.737 0.147Q0.739 0.214 0.738 0.283Q0.737 0.352 0.738 0.420Q0.725 0.428 0.708 0.432Q0.692 0.437 0.676 0.444L0.672 0.449Q0.672 0.457 0.671 0.464Q0.670 0.471 0.675 0.479Q0.689 0.486 0.705 0.489Q0.720 0.493 0.735 0.501L0.738 0.506V0.524V0.771L0.735 0.776Q0.717 0.787 0.681 0.794L0.678 0.796Q0.676 0.796 0.672 0.806V0.885Q0.674 0.883 0.661 0.891Q0.594 0.911 0.527 0.936Q0.460 0.961 0.393 0.976H0.391ZM0.393 0.955Q0.392 0.940 0.393 0.925Q0.394 0.910 0.391 0.894H0.387Q0.375 0.898 0.365 0.903Q0.354 0.909 0.345 0.909L0.341 0.916V0.937Q0.344 0.944 0.348 0.946Q0.365 0.948 0.387 0.958ZM0.326 0.890Q0.324 0.872 0.326 0.854Q0.329 0.836 0.322 0.820Q0.310 0.817 0.300 0.813Q0.289 0.809 0.280 0.807L0.275 0.809Q0.276 0.826 0.275 0.843Q0.274 0.860 0.277 0.875Q0.288 0.880 0.299 0.885Q0.310 0.889 0.322 0.893ZM0.477 0.849Q0.482 0.847 0.489 0.843Q0.496 0.840 0.505 0.837Q0.495 0.835 0.488 0.832Q0.481 0.828 0.474 0.830Q0.475 0.835 0.474 0.840Q0.473 0.846 0.476 0.849ZM0.533 0.829Q0.542 0.823 0.553 0.822Q0.563 0.821 0.572 0.813Q0.546 0.808 0.539 0.804Q0.516 0.807 0.493 0.816Q0.499 0.818 0.509 0.821Q0.519 0.824 0.532 0.829ZM0.326 0.801V0.740L0.322 0.732Q0.310 0.729 0.300 0.725Q0.289 0.721 0.280 0.717L0.275 0.720V0.784Q0.277 0.786 0.279 0.788Q0.281 0.790 0.283 0.791Q0.293 0.793 0.302 0.797Q0.311 0.801 0.322 0.804ZM0.592 0.802Q0.590 0.785 0.592 0.767Q0.594 0.749 0.587 0.732Q0.577 0.728 0.566 0.725Q0.555 0.722 0.546 0.717L0.539 0.720V0.784Q0.543 0.789 0.547 0.791Q0.562 0.792 0.586 0.804ZM0.334 0.720Q0.341 0.712 0.354 0.711Q0.366 0.710 0.372 0.703Q0.351 0.697 0.332 0.696Q0.313 0.694 0.294 0.704Q0.304 0.711 0.314 0.712Q0.325 0.713 0.334 0.720ZM0.592 0.711Q0.590 0.693 0.592 0.677Q0.594 0.662 0.589 0.644Q0.577 0.638 0.566 0.636Q0.554 0.634 0.544 0.628L0.539 0.632V0.695Q0.550 0.704 0.563 0.707Q0.577 0.710 0.587 0.716ZM0.399 0.697Q0.409 0.694 0.419 0.691Q0.429 0.688 0.439 0.682Q0.428 0.677 0.419 0.675Q0.409 0.674 0.399 0.670Q0.395 0.674 0.391 0.674Q0.387 0.674 0.384 0.677Q0.377 0.676 0.371 0.679Q0.365 0.682 0.361 0.682Q0.371 0.686 0.381 0.690Q0.390 0.694 0.399 0.697ZM0.592 0.623V0.566L0.589 0.561Q0.577 0.567 0.566 0.571Q0.554 0.574 0.544 0.577L0.539 0.584V0.606Q0.542 0.612 0.547 0.614Q0.555 0.615 0.565 0.618Q0.575 0.622 0.586 0.627ZM0.460 0.580Q0.457 0.563 0.459 0.545Q0.462 0.527 0.455 0.511Q0.445 0.508 0.434 0.504Q0.423 0.500 0.413 0.496L0.408 0.498V0.561L0.412 0.568Q0.422 0.573 0.433 0.575Q0.444 0.576 0.454 0.582ZM0.676 0.516Q0.681 0.514 0.688 0.512Q0.695 0.510 0.704 0.506Q0.698 0.502 0.691 0.501Q0.684 0.499 0.680 0.496L0.673 0.498Q0.674 0.503 0.673 0.508Q0.672 0.513 0.675 0.516ZM0.467 0.498Q0.475 0.492 0.486 0.491Q0.497 0.490 0.505 0.482Q0.485 0.475 0.464 0.474Q0.444 0.473 0.428 0.485Q0.438 0.487 0.448 0.491Q0.457 0.496 0.467 0.498ZM0.533 0.476Q0.543 0.472 0.553 0.467Q0.563 0.463 0.573 0.461Q0.561 0.456 0.552 0.455Q0.542 0.453 0.533 0.449Q0.522 0.452 0.512 0.456Q0.502 0.459 0.493 0.461Q0.504 0.466 0.513 0.469Q0.523 0.472 0.533 0.476ZM0.326 0.447Q0.324 0.429 0.326 0.411Q0.329 0.393 0.322 0.377Q0.310 0.376 0.300 0.370Q0.289 0.365 0.280 0.364L0.275 0.365V0.429L0.280 0.436Q0.290 0.437 0.301 0.442Q0.311 0.447 0.322 0.449ZM0.592 0.445Q0.590 0.428 0.592 0.412Q0.594 0.395 0.589 0.378Q0.577 0.376 0.566 0.371Q0.554 0.366 0.544 0.364L0.539 0.367V0.428L0.544 0.434Q0.554 0.438 0.565 0.441Q0.576 0.444 0.586 0.449ZM0.326 0.358Q0.324 0.339 0.325 0.323Q0.327 0.307 0.323 0.291Q0.311 0.286 0.300 0.282Q0.288 0.278 0.282 0.274L0.275 0.276V0.340L0.280 0.347Q0.290 0.351 0.301 0.353Q0.311 0.356 0.322 0.361ZM0.592 0.359V0.296L0.587 0.289Q0.577 0.285 0.566 0.282Q0.555 0.279 0.546 0.274L0.539 0.276V0.340Q0.543 0.346 0.547 0.348Q0.557 0.350 0.567 0.354Q0.576 0.359 0.586 0.361ZM0.332 0.276Q0.340 0.274 0.350 0.271Q0.360 0.267 0.373 0.262Q0.363 0.258 0.353 0.256Q0.342 0.253 0.332 0.249Q0.323 0.254 0.312 0.257Q0.302 0.259 0.294 0.262Q0.304 0.265 0.313 0.269Q0.323 0.273 0.332 0.276ZM0.592 0.270V0.212L0.589 0.207Q0.559 0.218 0.544 0.222L0.539 0.229V0.251Q0.542 0.257 0.547 0.259Q0.557 0.260 0.567 0.265Q0.576 0.269 0.586 0.273ZM0.393 0.246Q0.390 0.229 0.392 0.212Q0.394 0.196 0.390 0.179Q0.377 0.177 0.366 0.172Q0.355 0.168 0.345 0.165L0.341 0.168V0.229L0.345 0.235Q0.355 0.239 0.366 0.242Q0.376 0.245 0.387 0.251ZM0.399 0.167Q0.409 0.161 0.419 0.158Q0.429 0.155 0.439 0.152Q0.402 0.133 0.361 0.152Q0.370 0.157 0.381 0.159Q0.391 0.161 0.399 0.167ZM0.676 0.162Q0.684 0.159 0.691 0.157Q0.698 0.155 0.704 0.152Q0.698 0.148 0.691 0.147Q0.684 0.145 0.680 0.142L0.673 0.144Q0.674 0.148 0.673 0.153Q0.672 0.159 0.675 0.162ZM0.467 0.144Q0.474 0.137 0.485 0.136Q0.496 0.135 0.506 0.130Q0.460 0.109 0.428 0.131Q0.436 0.132 0.446 0.136Q0.456 0.139 0.467 0.144ZM0.533 0.122Q0.542 0.116 0.553 0.113Q0.563 0.111 0.572 0.106Q0.523 0.090 0.493 0.108Q0.504 0.113 0.513 0.115Q0.523 0.117 0.533 0.122ZM0.599 0.100Q0.609 0.096 0.619 0.092Q0.629 0.089 0.639 0.085Q0.595 0.067 0.560 0.085Q0.571 0.089 0.580 0.092Q0.589 0.096 0.599 0.100Z" fill="black"/>
</svg>
