<svg xmlns="http://www.w3.org/2000/svg" viewBox="0 0 1 1" preserveAspectRatio="xMidYMid meet">
  <path d="M0.592 0.911Q0.576 0.903 0.560 0.899Q0.544 0.895 0.528 0.886Q0.527 0.833 0.528 0.780Q0.529 0.728 0.525 0.673Q0.501 0.678 0.476 0.686Q0.452 0.694 0.427 0.703Q0.402 0.712 0.376 0.721Q0.350 0.729 0.326 0.733Q0.313 0.725 0.297 0.723Q0.280 0.721 0.265 0.710L0.262 0.706V0.174L0.265 0.169Q0.290 0.161 0.315 0.152Q0.341 0.144 0.366 0.134Q0.417 0.114 0.469 0.146L0.473 0.151V0.445V0.536L0.478 0.540Q0.489 0.536 0.500 0.532Q0.512 0.527 0.523 0.522L0.528 0.514V0.171Q0.526 0.173 0.539 0.165Q0.563 0.158 0.588 0.149Q0.612 0.141 0.637 0.133Q0.687 0.116 0.737 0.146Q0.739 0.327 0.738 0.505Q0.737 0.683 0.738 0.864Q0.704 0.877 0.667 0.889Q0.630 0.901 0.595 0.911H0.592ZM0.593 0.889Q0.591 0.872 0.593 0.856Q0.595 0.839 0.590 0.822Q0.579 0.818 0.567 0.814Q0.556 0.809 0.545 0.805L0.541 0.808V0.872Q0.545 0.878 0.548 0.880Q0.558 0.881 0.568 0.885Q0.578 0.889 0.587 0.893ZM0.593 0.800Q0.591 0.783 0.593 0.766Q0.595 0.750 0.590 0.733Q0.579 0.727 0.567 0.725Q0.556 0.724 0.545 0.717L0.541 0.721V0.785Q0.551 0.793 0.564 0.796Q0.578 0.799 0.589 0.805ZM0.327 0.712Q0.326 0.695 0.327 0.678Q0.328 0.662 0.326 0.645Q0.313 0.639 0.302 0.637Q0.291 0.634 0.281 0.630L0.275 0.631Q0.276 0.649 0.275 0.666Q0.274 0.683 0.276 0.698Q0.288 0.704 0.299 0.706Q0.309 0.708 0.320 0.715ZM0.593 0.712V0.659L0.589 0.650Q0.576 0.657 0.564 0.660Q0.552 0.664 0.541 0.670Q0.541 0.677 0.540 0.684Q0.539 0.691 0.542 0.698Q0.554 0.704 0.565 0.707Q0.576 0.709 0.587 0.715ZM0.327 0.623Q0.325 0.606 0.326 0.589Q0.328 0.573 0.324 0.556Q0.311 0.551 0.301 0.548Q0.290 0.545 0.280 0.540L0.275 0.544Q0.277 0.561 0.275 0.578Q0.273 0.595 0.278 0.611Q0.290 0.617 0.301 0.619Q0.311 0.622 0.322 0.628ZM0.477 0.583Q0.496 0.574 0.505 0.574Q0.500 0.569 0.493 0.568Q0.486 0.566 0.480 0.563L0.473 0.566V0.580L0.477 0.583ZM0.533 0.564Q0.542 0.560 0.553 0.558Q0.563 0.556 0.570 0.549Q0.559 0.549 0.550 0.544Q0.541 0.539 0.533 0.537Q0.525 0.539 0.519 0.542Q0.514 0.545 0.507 0.545Q0.503 0.548 0.500 0.548Q0.496 0.549 0.494 0.550Q0.504 0.554 0.514 0.557Q0.523 0.561 0.533 0.564ZM0.327 0.537Q0.325 0.519 0.326 0.502Q0.328 0.484 0.324 0.467Q0.290 0.456 0.280 0.451L0.275 0.456V0.516L0.280 0.522Q0.290 0.527 0.301 0.530Q0.311 0.534 0.320 0.539ZM0.593 0.536Q0.591 0.517 0.593 0.502Q0.595 0.486 0.590 0.468Q0.579 0.464 0.567 0.460Q0.556 0.456 0.545 0.451L0.541 0.454Q0.541 0.472 0.540 0.489Q0.539 0.506 0.542 0.521Q0.554 0.527 0.565 0.530Q0.576 0.534 0.587 0.539ZM0.327 0.448Q0.325 0.430 0.327 0.412Q0.330 0.394 0.322 0.378Q0.289 0.365 0.275 0.365V0.429Q0.278 0.435 0.283 0.437Q0.293 0.438 0.302 0.443Q0.311 0.447 0.320 0.449ZM0.593 0.445V0.384Q0.588 0.377 0.585 0.376Q0.576 0.375 0.565 0.370Q0.554 0.366 0.547 0.364L0.541 0.365V0.429L0.545 0.435Q0.556 0.440 0.567 0.443Q0.578 0.445 0.587 0.449ZM0.327 0.359V0.298L0.322 0.290Q0.308 0.287 0.296 0.281Q0.284 0.275 0.275 0.275V0.339L0.280 0.346Q0.290 0.351 0.301 0.353Q0.311 0.356 0.320 0.362ZM0.593 0.359V0.298L0.587 0.289L0.584 0.287Q0.572 0.286 0.564 0.282Q0.555 0.278 0.545 0.274L0.541 0.277Q0.541 0.296 0.540 0.312Q0.539 0.329 0.542 0.345Q0.554 0.351 0.565 0.353Q0.576 0.356 0.587 0.362ZM0.327 0.271Q0.325 0.253 0.327 0.235Q0.330 0.217 0.322 0.201Q0.311 0.196 0.301 0.194Q0.290 0.191 0.281 0.187L0.275 0.188V0.252Q0.279 0.258 0.283 0.259Q0.302 0.263 0.320 0.272ZM0.593 0.271Q0.591 0.253 0.593 0.235Q0.596 0.217 0.589 0.201Q0.578 0.198 0.567 0.194Q0.556 0.190 0.547 0.187L0.541 0.188V0.252L0.545 0.258Q0.556 0.263 0.567 0.265Q0.578 0.266 0.587 0.272ZM0.334 0.188Q0.344 0.185 0.353 0.182Q0.363 0.179 0.373 0.174Q0.331 0.157 0.295 0.174Q0.305 0.178 0.314 0.181Q0.324 0.185 0.334 0.188ZM0.600 0.188Q0.609 0.182 0.620 0.180Q0.630 0.179 0.638 0.172Q0.624 0.172 0.612 0.166Q0.599 0.160 0.587 0.165Q0.582 0.167 0.577 0.169Q0.571 0.171 0.564 0.172L0.561 0.175Q0.571 0.177 0.581 0.181Q0.590 0.186 0.600 0.188ZM0.401 0.166Q0.410 0.160 0.421 0.159Q0.431 0.158 0.438 0.150Q0.429 0.148 0.419 0.144Q0.409 0.140 0.401 0.138Q0.391 0.144 0.379 0.146Q0.368 0.148 0.362 0.153Q0.372 0.154 0.381 0.159Q0.391 0.164 0.401 0.166ZM0.665 0.166Q0.675 0.163 0.685 0.160Q0.695 0.157 0.706 0.151Q0.694 0.147 0.684 0.145Q0.674 0.142 0.665 0.138Q0.658 0.140 0.651 0.143Q0.645 0.146 0.640 0.146Q0.636 0.149 0.632 0.150Q0.628 0.150 0.626 0.151Q0.638 0.155 0.646 0.159Q0.655 0.163 0.665 0.166Z" fill="black"/>
</svg>
