<svg xmlns="http://www.w3.org/2000/svg" viewBox="0 0 1 1" preserveAspectRatio="xMidYMid meet">
  <path d="M0.326 1.000Q0.310 0.991 0.295 0.988Q0.279 0.986 0.262 0.977V0.880Q0.307 0.862 0.358 0.847Q0.409 0.831 0.458 0.812Q0.463 0.792 0.461 0.770Q0.459 0.748 0.462 0.726Q0.474 0.717 0.491 0.714Q0.507 0.710 0.524 0.702L0.529 0.696V0.587L0.522 0.584Q0.456 0.600 0.393 0.631Q0.330 0.662 0.264 0.622Q0.261 0.511 0.262 0.399Q0.264 0.288 0.262 0.174L0.265 0.170Q0.326 0.148 0.388 0.129Q0.451 0.110 0.515 0.085Q0.574 0.071 0.625 0.049Q0.680 0.026 0.735 0.058L0.738 0.063V0.155Q0.735 0.155 0.734 0.159Q0.732 0.162 0.727 0.164Q0.666 0.182 0.604 0.204Q0.541 0.226 0.479 0.245Q0.470 0.297 0.473 0.347Q0.476 0.397 0.474 0.449L0.479 0.452Q0.502 0.445 0.527 0.438Q0.551 0.430 0.575 0.422Q0.622 0.404 0.670 0.436L0.673 0.441V0.476L0.678 0.483Q0.708 0.490 0.735 0.501L0.738 0.506V0.688Q0.739 0.687 0.737 0.689Q0.734 0.690 0.727 0.694Q0.716 0.696 0.703 0.702Q0.689 0.707 0.676 0.711Q0.671 0.732 0.673 0.754Q0.675 0.776 0.673 0.798Q0.660 0.807 0.643 0.810Q0.626 0.813 0.611 0.821L0.606 0.828Q0.606 0.908 0.604 0.910Q0.601 0.912 0.596 0.916H0.589Q0.522 0.937 0.458 0.961Q0.394 0.985 0.329 1.000H0.326ZM0.328 0.978Q0.325 0.959 0.327 0.944Q0.329 0.928 0.325 0.912Q0.310 0.909 0.299 0.902Q0.288 0.896 0.277 0.896Q0.279 0.915 0.277 0.932Q0.275 0.950 0.280 0.966Q0.290 0.971 0.301 0.974Q0.311 0.977 0.322 0.983ZM0.336 0.897Q0.344 0.892 0.355 0.890Q0.365 0.887 0.373 0.884Q0.363 0.880 0.352 0.876Q0.342 0.871 0.332 0.871Q0.323 0.876 0.313 0.878Q0.303 0.880 0.296 0.884Q0.306 0.889 0.316 0.891Q0.326 0.892 0.336 0.897ZM0.401 0.876Q0.409 0.869 0.420 0.868Q0.431 0.868 0.440 0.862Q0.395 0.840 0.363 0.863Q0.371 0.864 0.380 0.867Q0.390 0.871 0.401 0.876ZM0.468 0.854Q0.477 0.848 0.488 0.845Q0.498 0.842 0.505 0.837Q0.464 0.822 0.428 0.839Q0.438 0.846 0.448 0.848Q0.458 0.850 0.468 0.854ZM0.527 0.825Q0.524 0.807 0.526 0.789Q0.529 0.771 0.522 0.755Q0.512 0.752 0.501 0.748Q0.490 0.745 0.480 0.742L0.476 0.744Q0.477 0.761 0.475 0.778Q0.474 0.795 0.477 0.810Q0.489 0.815 0.500 0.819Q0.512 0.823 0.522 0.828ZM0.535 0.744Q0.542 0.738 0.552 0.736Q0.561 0.734 0.569 0.731L0.574 0.728Q0.562 0.726 0.552 0.721Q0.542 0.716 0.533 0.714Q0.522 0.718 0.512 0.723Q0.502 0.727 0.493 0.729Q0.520 0.737 0.535 0.744ZM0.594 0.714Q0.591 0.697 0.593 0.679Q0.596 0.662 0.589 0.644Q0.579 0.642 0.568 0.638Q0.557 0.634 0.547 0.630L0.541 0.632V0.696Q0.545 0.703 0.549 0.703Q0.554 0.704 0.564 0.708Q0.574 0.711 0.588 0.716ZM0.328 0.626Q0.325 0.608 0.327 0.590Q0.330 0.572 0.323 0.555Q0.311 0.554 0.301 0.550Q0.290 0.546 0.282 0.543L0.277 0.545Q0.278 0.562 0.277 0.579Q0.276 0.596 0.278 0.612Q0.301 0.619 0.323 0.629ZM0.594 0.626V0.568L0.591 0.563Q0.580 0.568 0.568 0.572Q0.557 0.575 0.546 0.577L0.541 0.584V0.607L0.546 0.613Q0.556 0.618 0.567 0.620Q0.578 0.623 0.588 0.629ZM0.328 0.535V0.474L0.323 0.468Q0.311 0.463 0.301 0.461Q0.290 0.458 0.282 0.453L0.277 0.455V0.522Q0.286 0.529 0.298 0.531Q0.310 0.533 0.322 0.540ZM0.678 0.517Q0.685 0.513 0.692 0.512Q0.700 0.511 0.706 0.508Q0.700 0.504 0.692 0.503Q0.685 0.501 0.681 0.498L0.675 0.500Q0.676 0.505 0.675 0.509Q0.674 0.513 0.676 0.517ZM0.479 0.495Q0.486 0.492 0.493 0.491Q0.499 0.490 0.505 0.486Q0.499 0.482 0.493 0.480Q0.486 0.479 0.482 0.476L0.476 0.478Q0.477 0.483 0.475 0.487Q0.474 0.492 0.477 0.495ZM0.533 0.478Q0.543 0.472 0.553 0.470Q0.563 0.468 0.574 0.463Q0.532 0.444 0.494 0.463Q0.505 0.468 0.515 0.471Q0.524 0.473 0.533 0.478ZM0.600 0.455Q0.610 0.449 0.619 0.448Q0.628 0.446 0.639 0.441Q0.600 0.419 0.561 0.442Q0.573 0.444 0.582 0.449Q0.591 0.453 0.600 0.455ZM0.328 0.449Q0.325 0.431 0.327 0.413Q0.330 0.395 0.323 0.378Q0.311 0.377 0.301 0.372Q0.290 0.368 0.282 0.366L0.277 0.367Q0.278 0.385 0.277 0.402Q0.276 0.420 0.278 0.434Q0.290 0.439 0.301 0.444Q0.311 0.448 0.323 0.452ZM0.328 0.358V0.298L0.323 0.291Q0.311 0.287 0.301 0.284Q0.290 0.280 0.282 0.276L0.277 0.278V0.345Q0.286 0.353 0.298 0.354Q0.310 0.356 0.322 0.363ZM0.328 0.271Q0.325 0.254 0.327 0.236Q0.330 0.218 0.323 0.202Q0.311 0.197 0.301 0.195Q0.290 0.193 0.282 0.189L0.277 0.191Q0.278 0.208 0.277 0.225Q0.276 0.242 0.278 0.258Q0.301 0.265 0.323 0.275ZM0.336 0.191Q0.344 0.184 0.355 0.181Q0.365 0.179 0.373 0.176L0.372 0.174Q0.362 0.172 0.352 0.168Q0.342 0.164 0.334 0.162Q0.324 0.168 0.312 0.170Q0.301 0.172 0.294 0.176Q0.304 0.178 0.315 0.182Q0.326 0.187 0.336 0.191ZM0.403 0.167Q0.422 0.157 0.437 0.155L0.439 0.152Q0.433 0.150 0.427 0.149Q0.421 0.147 0.417 0.144Q0.404 0.139 0.389 0.144Q0.373 0.149 0.363 0.155Q0.375 0.155 0.401 0.169ZM0.468 0.145Q0.476 0.138 0.487 0.137Q0.497 0.135 0.507 0.132Q0.497 0.127 0.490 0.125Q0.482 0.123 0.474 0.119Q0.464 0.120 0.451 0.123Q0.437 0.126 0.430 0.133Q0.445 0.135 0.468 0.145ZM0.535 0.124Q0.543 0.118 0.554 0.115Q0.564 0.113 0.574 0.110Q0.562 0.106 0.552 0.101Q0.541 0.097 0.532 0.097Q0.522 0.102 0.512 0.104Q0.502 0.106 0.494 0.110Q0.505 0.114 0.515 0.116Q0.525 0.118 0.535 0.124ZM0.600 0.101Q0.610 0.096 0.619 0.094Q0.628 0.092 0.639 0.087Q0.597 0.064 0.561 0.088Q0.577 0.089 0.600 0.101ZM0.667 0.079Q0.676 0.073 0.687 0.071Q0.698 0.068 0.706 0.063Q0.662 0.047 0.627 0.065Q0.638 0.070 0.648 0.072Q0.658 0.074 0.667 0.079Z" fill="black"/>
</svg>
