<svg xmlns="http://www.w3.org/2000/svg" viewBox="0 0 1 1" preserveAspectRatio="xMidYMid meet">
  <path d="M0.391 0.976Q0.374 0.967 0.359 0.964Q0.344 0.961 0.327 0.951Q0.326 0.941 0.327 0.930Q0.328 0.919 0.323 0.908Q0.308 0.904 0.294 0.899Q0.279 0.893 0.265 0.888L0.262 0.883V0.437Q0.271 0.428 0.287 0.424Q0.303 0.420 0.318 0.416L0.321 0.415L0.327 0.405V0.325Q0.340 0.317 0.357 0.314Q0.373 0.310 0.389 0.301L0.394 0.295V0.215Q0.397 0.215 0.398 0.213Q0.400 0.210 0.405 0.207Q0.415 0.207 0.426 0.201Q0.438 0.195 0.450 0.195L0.456 0.192L0.461 0.185V0.106L0.464 0.101Q0.497 0.090 0.532 0.078Q0.567 0.066 0.601 0.056Q0.616 0.061 0.634 0.067Q0.651 0.072 0.668 0.078L0.671 0.083V0.175Q0.643 0.191 0.615 0.196L0.609 0.199L0.604 0.205V0.285L0.601 0.290Q0.588 0.294 0.573 0.300Q0.558 0.306 0.543 0.309Q0.539 0.333 0.540 0.356Q0.540 0.379 0.536 0.400Q0.524 0.407 0.508 0.410Q0.492 0.414 0.477 0.421L0.472 0.428V0.446L0.477 0.449Q0.508 0.442 0.540 0.429Q0.572 0.417 0.604 0.412Q0.619 0.417 0.635 0.421Q0.651 0.426 0.668 0.434L0.671 0.438V0.471L0.674 0.477Q0.685 0.486 0.702 0.489Q0.719 0.493 0.735 0.499L0.738 0.504V0.771L0.735 0.776Q0.724 0.782 0.711 0.786Q0.698 0.790 0.681 0.794L0.677 0.796Q0.675 0.796 0.671 0.805V0.885Q0.670 0.886 0.667 0.888Q0.663 0.889 0.660 0.891Q0.593 0.911 0.527 0.935Q0.462 0.960 0.392 0.976H0.391ZM0.392 0.955V0.897L0.389 0.893Q0.378 0.898 0.364 0.903Q0.350 0.908 0.341 0.912V0.940Q0.350 0.948 0.362 0.950Q0.374 0.951 0.386 0.957ZM0.326 0.891Q0.323 0.873 0.325 0.855Q0.327 0.837 0.323 0.821Q0.308 0.816 0.296 0.811Q0.283 0.807 0.275 0.807V0.871L0.279 0.877Q0.292 0.881 0.302 0.885Q0.312 0.889 0.321 0.893ZM0.477 0.849Q0.484 0.845 0.491 0.842Q0.497 0.839 0.504 0.836Q0.489 0.829 0.480 0.829L0.473 0.830Q0.474 0.835 0.474 0.840Q0.473 0.845 0.475 0.849ZM0.531 0.829Q0.541 0.827 0.552 0.822Q0.562 0.817 0.573 0.814Q0.561 0.812 0.551 0.808Q0.540 0.805 0.531 0.802Q0.521 0.807 0.511 0.809Q0.501 0.812 0.493 0.814Q0.504 0.818 0.512 0.822Q0.521 0.825 0.531 0.829ZM0.326 0.800V0.740L0.321 0.732Q0.309 0.728 0.299 0.724Q0.288 0.721 0.279 0.717L0.275 0.720V0.783Q0.280 0.790 0.283 0.791Q0.293 0.792 0.302 0.796Q0.310 0.800 0.321 0.804ZM0.478 0.804Q0.490 0.796 0.503 0.794Q0.516 0.793 0.525 0.783Q0.523 0.733 0.524 0.683Q0.525 0.634 0.523 0.585H0.518Q0.507 0.592 0.494 0.594Q0.482 0.596 0.473 0.603Q0.474 0.654 0.474 0.703Q0.473 0.752 0.475 0.804ZM0.592 0.802Q0.589 0.784 0.591 0.766Q0.593 0.748 0.588 0.732Q0.575 0.730 0.564 0.724Q0.552 0.717 0.540 0.717V0.785Q0.550 0.793 0.562 0.794Q0.575 0.796 0.585 0.804ZM0.326 0.710V0.650L0.321 0.642Q0.309 0.638 0.299 0.636Q0.288 0.634 0.279 0.628L0.275 0.631V0.695Q0.283 0.702 0.296 0.706Q0.308 0.709 0.320 0.714ZM0.592 0.710Q0.589 0.693 0.591 0.677Q0.593 0.662 0.588 0.644Q0.575 0.639 0.564 0.635Q0.552 0.630 0.540 0.630V0.696Q0.550 0.703 0.562 0.706Q0.575 0.708 0.585 0.714ZM0.326 0.623Q0.323 0.606 0.325 0.588Q0.328 0.570 0.321 0.553Q0.309 0.552 0.299 0.547Q0.288 0.542 0.279 0.541L0.275 0.542V0.606L0.279 0.612Q0.289 0.614 0.300 0.618Q0.310 0.623 0.321 0.627ZM0.592 0.625V0.567L0.587 0.561Q0.576 0.567 0.565 0.570Q0.554 0.572 0.545 0.575L0.540 0.581V0.608Q0.550 0.614 0.562 0.616Q0.575 0.619 0.585 0.627ZM0.326 0.536V0.472L0.320 0.463Q0.307 0.462 0.296 0.457Q0.285 0.451 0.275 0.452V0.516L0.279 0.522Q0.289 0.527 0.300 0.529Q0.310 0.532 0.321 0.537ZM0.676 0.514Q0.683 0.512 0.690 0.511Q0.697 0.509 0.703 0.505Q0.697 0.502 0.690 0.500Q0.683 0.498 0.679 0.496L0.672 0.497Q0.673 0.502 0.673 0.507Q0.672 0.512 0.674 0.514ZM0.477 0.494Q0.484 0.491 0.491 0.488Q0.497 0.486 0.504 0.483Q0.497 0.480 0.491 0.478Q0.484 0.476 0.480 0.474L0.473 0.475Q0.474 0.480 0.473 0.486Q0.472 0.492 0.477 0.494ZM0.533 0.475Q0.542 0.471 0.553 0.467Q0.564 0.464 0.571 0.459Q0.557 0.458 0.545 0.453Q0.532 0.447 0.520 0.451Q0.509 0.457 0.493 0.460Q0.504 0.465 0.513 0.468Q0.523 0.472 0.533 0.475ZM0.332 0.452Q0.342 0.450 0.353 0.446Q0.363 0.441 0.373 0.438Q0.362 0.434 0.352 0.431Q0.341 0.429 0.332 0.426Q0.323 0.431 0.312 0.433Q0.302 0.436 0.293 0.438Q0.304 0.442 0.314 0.446Q0.323 0.449 0.332 0.452ZM0.598 0.452Q0.607 0.448 0.618 0.446Q0.629 0.444 0.636 0.437Q0.626 0.437 0.616 0.432Q0.606 0.427 0.598 0.426Q0.591 0.427 0.585 0.430Q0.579 0.434 0.573 0.434Q0.569 0.436 0.565 0.436Q0.561 0.437 0.559 0.438Q0.571 0.442 0.579 0.446Q0.588 0.449 0.598 0.452ZM0.392 0.423Q0.390 0.404 0.392 0.388Q0.394 0.372 0.389 0.356Q0.376 0.354 0.364 0.348Q0.353 0.341 0.341 0.341Q0.344 0.360 0.342 0.378Q0.340 0.395 0.345 0.412Q0.355 0.415 0.366 0.418Q0.377 0.422 0.386 0.428ZM0.399 0.343Q0.409 0.337 0.419 0.335Q0.429 0.332 0.439 0.328Q0.401 0.309 0.360 0.328Q0.369 0.333 0.380 0.335Q0.390 0.337 0.399 0.343ZM0.460 0.314Q0.457 0.296 0.459 0.278Q0.462 0.260 0.455 0.244Q0.442 0.242 0.430 0.237Q0.418 0.232 0.407 0.232V0.295L0.411 0.301Q0.422 0.306 0.433 0.309Q0.444 0.312 0.453 0.316ZM0.464 0.232Q0.474 0.229 0.485 0.224Q0.495 0.220 0.506 0.216Q0.494 0.212 0.484 0.210Q0.473 0.208 0.464 0.204Q0.454 0.209 0.444 0.212Q0.433 0.214 0.426 0.216Q0.436 0.221 0.445 0.224Q0.454 0.228 0.464 0.232ZM0.525 0.202V0.142L0.520 0.134Q0.510 0.131 0.498 0.127Q0.487 0.122 0.478 0.120L0.473 0.121V0.185Q0.476 0.191 0.481 0.193Q0.492 0.195 0.502 0.199Q0.511 0.202 0.520 0.205ZM0.533 0.121Q0.539 0.114 0.552 0.113Q0.565 0.113 0.571 0.106Q0.559 0.105 0.549 0.100Q0.538 0.095 0.530 0.095Q0.520 0.100 0.510 0.101Q0.501 0.103 0.493 0.107Q0.504 0.111 0.513 0.114Q0.523 0.117 0.533 0.121ZM0.598 0.099Q0.608 0.095 0.618 0.091Q0.628 0.088 0.638 0.084Q0.627 0.078 0.617 0.077Q0.607 0.075 0.598 0.072Q0.593 0.075 0.589 0.076Q0.585 0.076 0.582 0.078Q0.576 0.077 0.570 0.081Q0.565 0.084 0.559 0.084Q0.571 0.088 0.579 0.092Q0.588 0.096 0.598 0.099Z" fill="black"/>
</svg>
