<svg xmlns="http://www.w3.org/2000/svg" viewBox="0 0 1 1" preserveAspectRatio="xMidYMid meet">
  <path d="M0.392 0.978Q0.377 0.972 0.361 0.966Q0.345 0.961 0.329 0.953V0.679Q0.343 0.673 0.358 0.668Q0.373 0.664 0.381 0.661Q0.389 0.659 0.390 0.656Q0.392 0.653 0.396 0.648V0.483L0.399 0.478Q0.412 0.476 0.425 0.470Q0.439 0.463 0.453 0.460Q0.458 0.457 0.461 0.452Q0.461 0.284 0.464 0.282Q0.467 0.279 0.473 0.275Q0.483 0.275 0.495 0.269Q0.507 0.262 0.520 0.261Q0.522 0.260 0.524 0.258Q0.526 0.256 0.528 0.254V0.235L0.523 0.230Q0.461 0.243 0.395 0.274Q0.331 0.305 0.265 0.269L0.262 0.264V0.172Q0.338 0.142 0.420 0.116Q0.502 0.090 0.582 0.062Q0.621 0.046 0.660 0.042Q0.698 0.039 0.733 0.057L0.738 0.066V0.244Q0.737 0.245 0.735 0.247Q0.732 0.249 0.727 0.252Q0.699 0.257 0.676 0.267L0.671 0.274V0.443Q0.662 0.452 0.645 0.455Q0.628 0.458 0.612 0.465L0.606 0.475V0.640L0.603 0.645Q0.588 0.652 0.574 0.655Q0.560 0.658 0.545 0.665L0.539 0.674V0.929L0.536 0.934Q0.503 0.943 0.468 0.956Q0.433 0.970 0.399 0.978H0.392ZM0.394 0.957V0.894Q0.389 0.887 0.387 0.886Q0.377 0.885 0.366 0.881Q0.355 0.876 0.348 0.873L0.342 0.875V0.939L0.346 0.945Q0.356 0.950 0.367 0.952Q0.378 0.953 0.388 0.959ZM0.394 0.869V0.808Q0.389 0.799 0.387 0.797Q0.374 0.797 0.362 0.791Q0.350 0.786 0.342 0.786V0.850L0.346 0.856Q0.356 0.861 0.367 0.863Q0.378 0.866 0.388 0.872ZM0.394 0.780Q0.392 0.763 0.394 0.745Q0.396 0.728 0.389 0.710Q0.379 0.708 0.368 0.704Q0.357 0.700 0.348 0.696L0.342 0.698V0.762L0.346 0.768Q0.356 0.773 0.367 0.775Q0.378 0.776 0.388 0.783ZM0.401 0.698Q0.411 0.692 0.420 0.690Q0.429 0.688 0.439 0.683Q0.398 0.661 0.362 0.685Q0.372 0.686 0.382 0.691Q0.391 0.696 0.401 0.698ZM0.460 0.670Q0.457 0.651 0.459 0.634Q0.462 0.616 0.455 0.599Q0.444 0.598 0.433 0.593Q0.422 0.589 0.413 0.586L0.409 0.588Q0.410 0.606 0.409 0.623Q0.407 0.640 0.410 0.655Q0.433 0.663 0.455 0.673ZM0.460 0.580Q0.457 0.562 0.459 0.546Q0.461 0.530 0.456 0.513Q0.434 0.505 0.415 0.497L0.409 0.499V0.563L0.413 0.569Q0.424 0.573 0.434 0.576Q0.445 0.578 0.455 0.583ZM0.468 0.499Q0.474 0.494 0.487 0.491Q0.499 0.489 0.506 0.483Q0.485 0.477 0.466 0.475Q0.447 0.474 0.427 0.485Q0.438 0.490 0.448 0.493Q0.458 0.496 0.468 0.499ZM0.527 0.471V0.410L0.522 0.401Q0.509 0.398 0.496 0.393Q0.483 0.387 0.474 0.387V0.450Q0.477 0.456 0.482 0.458Q0.492 0.460 0.502 0.465Q0.511 0.471 0.520 0.473ZM0.527 0.382Q0.524 0.365 0.526 0.347Q0.529 0.329 0.522 0.312Q0.511 0.308 0.500 0.305Q0.489 0.303 0.480 0.298L0.474 0.300V0.364Q0.476 0.366 0.478 0.368Q0.480 0.370 0.482 0.371Q0.490 0.372 0.499 0.376Q0.509 0.379 0.520 0.384ZM0.533 0.300Q0.543 0.297 0.553 0.294Q0.562 0.291 0.573 0.285Q0.530 0.267 0.494 0.285Q0.505 0.289 0.514 0.293Q0.523 0.297 0.533 0.300ZM0.327 0.271V0.210L0.323 0.202Q0.308 0.198 0.296 0.193Q0.284 0.188 0.275 0.188V0.252L0.280 0.258Q0.290 0.262 0.300 0.265Q0.310 0.268 0.321 0.274ZM0.593 0.269V0.215L0.589 0.208Q0.577 0.216 0.564 0.218Q0.550 0.220 0.541 0.228Q0.541 0.236 0.540 0.242Q0.539 0.249 0.542 0.257Q0.554 0.262 0.565 0.265Q0.576 0.268 0.587 0.274ZM0.334 0.190Q0.356 0.180 0.373 0.175Q0.335 0.154 0.295 0.175Q0.309 0.179 0.334 0.190ZM0.401 0.168Q0.408 0.162 0.419 0.160Q0.430 0.158 0.439 0.153Q0.405 0.133 0.360 0.153Q0.370 0.157 0.381 0.159Q0.391 0.162 0.401 0.168ZM0.468 0.145Q0.474 0.137 0.487 0.137Q0.499 0.136 0.506 0.129Q0.494 0.128 0.484 0.123Q0.473 0.118 0.465 0.118Q0.455 0.123 0.445 0.124Q0.435 0.126 0.427 0.131Q0.438 0.136 0.448 0.138Q0.458 0.139 0.468 0.145ZM0.533 0.123Q0.543 0.118 0.553 0.115Q0.562 0.112 0.573 0.109Q0.561 0.103 0.552 0.101Q0.542 0.100 0.533 0.096Q0.528 0.100 0.524 0.100Q0.520 0.100 0.517 0.102Q0.511 0.101 0.505 0.105Q0.498 0.109 0.494 0.109Q0.503 0.111 0.512 0.114Q0.522 0.118 0.533 0.123ZM0.600 0.101Q0.609 0.095 0.620 0.093Q0.631 0.091 0.639 0.084Q0.619 0.077 0.598 0.076Q0.577 0.075 0.561 0.087Q0.572 0.089 0.581 0.093Q0.590 0.098 0.600 0.101ZM0.667 0.078Q0.677 0.074 0.687 0.070Q0.697 0.066 0.707 0.064Q0.696 0.059 0.686 0.057Q0.676 0.056 0.667 0.051Q0.656 0.055 0.646 0.058Q0.636 0.062 0.627 0.064Q0.638 0.068 0.647 0.071Q0.657 0.074 0.667 0.078Z" fill="black"/>
</svg>
