<svg xmlns="http://www.w3.org/2000/svg" viewBox="0 0 1 1" preserveAspectRatio="xMidYMid meet">
  <path d="M0.392 0.978Q0.377 0.971 0.361 0.965Q0.346 0.960 0.328 0.952Q0.327 0.943 0.328 0.932Q0.329 0.921 0.324 0.909Q0.309 0.901 0.294 0.898Q0.279 0.895 0.263 0.887Q0.260 0.820 0.262 0.751Q0.263 0.682 0.261 0.614Q0.274 0.606 0.291 0.602Q0.308 0.598 0.324 0.590L0.328 0.584V0.561L0.324 0.555Q0.306 0.548 0.291 0.543Q0.275 0.538 0.263 0.535Q0.260 0.466 0.262 0.398Q0.263 0.330 0.262 0.295Q0.261 0.260 0.264 0.258Q0.267 0.256 0.273 0.252Q0.284 0.252 0.295 0.246Q0.306 0.240 0.318 0.240L0.324 0.237L0.328 0.231V0.150L0.332 0.145Q0.418 0.130 0.500 0.086Q0.584 0.042 0.670 0.080Q0.672 0.089 0.671 0.100Q0.670 0.110 0.672 0.118L0.676 0.125Q0.714 0.141 0.737 0.145Q0.739 0.174 0.738 0.201Q0.737 0.229 0.739 0.257V0.419L0.735 0.423Q0.704 0.437 0.681 0.440L0.678 0.442L0.672 0.451V0.471L0.675 0.478Q0.686 0.485 0.703 0.489Q0.720 0.494 0.735 0.499L0.739 0.504V0.772L0.735 0.776Q0.721 0.785 0.705 0.788Q0.690 0.792 0.675 0.799Q0.670 0.820 0.672 0.842Q0.674 0.864 0.672 0.885Q0.668 0.885 0.666 0.888Q0.665 0.891 0.661 0.893Q0.596 0.911 0.530 0.935Q0.464 0.959 0.399 0.977L0.392 0.978ZM0.392 0.957Q0.391 0.942 0.392 0.927Q0.393 0.912 0.390 0.896L0.386 0.894Q0.374 0.900 0.362 0.903Q0.350 0.907 0.341 0.914V0.939Q0.351 0.947 0.363 0.951Q0.375 0.954 0.386 0.958ZM0.327 0.890Q0.324 0.872 0.327 0.854Q0.329 0.836 0.323 0.820Q0.309 0.818 0.296 0.812Q0.284 0.807 0.274 0.807V0.871L0.279 0.877Q0.290 0.882 0.300 0.885Q0.311 0.887 0.321 0.893ZM0.479 0.849Q0.486 0.843 0.493 0.843Q0.500 0.842 0.504 0.837Q0.495 0.835 0.488 0.832Q0.481 0.829 0.474 0.830Q0.475 0.835 0.474 0.840Q0.473 0.846 0.476 0.849ZM0.535 0.829Q0.545 0.823 0.554 0.822Q0.563 0.820 0.573 0.817L0.571 0.813Q0.555 0.810 0.539 0.806Q0.522 0.803 0.507 0.810Q0.503 0.814 0.498 0.815Q0.494 0.815 0.494 0.818Q0.508 0.818 0.533 0.830ZM0.327 0.802Q0.324 0.785 0.327 0.767Q0.329 0.749 0.323 0.732Q0.312 0.728 0.301 0.726Q0.291 0.724 0.282 0.717L0.274 0.720V0.784L0.279 0.790Q0.290 0.793 0.300 0.796Q0.311 0.800 0.321 0.804ZM0.479 0.804Q0.491 0.797 0.504 0.795Q0.516 0.794 0.526 0.785Q0.523 0.755 0.525 0.726Q0.527 0.696 0.523 0.667Q0.511 0.662 0.500 0.660Q0.489 0.658 0.479 0.651L0.474 0.654Q0.475 0.693 0.474 0.730Q0.473 0.767 0.476 0.804ZM0.591 0.802Q0.589 0.785 0.591 0.767Q0.593 0.749 0.588 0.732Q0.578 0.730 0.568 0.726Q0.557 0.722 0.547 0.717L0.541 0.720V0.784L0.546 0.790Q0.556 0.793 0.567 0.796Q0.577 0.800 0.587 0.804ZM0.327 0.713Q0.324 0.695 0.327 0.677Q0.329 0.660 0.323 0.642Q0.309 0.640 0.296 0.635Q0.284 0.630 0.274 0.630V0.694L0.279 0.700Q0.290 0.705 0.300 0.708Q0.311 0.710 0.321 0.716ZM0.591 0.713Q0.590 0.698 0.591 0.682Q0.592 0.667 0.590 0.652H0.585Q0.574 0.658 0.568 0.659Q0.560 0.661 0.553 0.663Q0.546 0.666 0.541 0.670Q0.542 0.678 0.541 0.685Q0.540 0.692 0.543 0.699Q0.566 0.706 0.587 0.716ZM0.526 0.647V0.590L0.521 0.584Q0.508 0.590 0.497 0.594Q0.486 0.598 0.474 0.603Q0.475 0.611 0.474 0.618Q0.473 0.625 0.476 0.632Q0.488 0.638 0.498 0.640Q0.509 0.642 0.520 0.649ZM0.335 0.630Q0.346 0.624 0.355 0.622Q0.364 0.621 0.373 0.618L0.372 0.614Q0.355 0.611 0.339 0.607Q0.323 0.604 0.308 0.611Q0.304 0.615 0.300 0.615Q0.296 0.616 0.296 0.619Q0.308 0.619 0.333 0.632ZM0.392 0.602Q0.391 0.586 0.392 0.571Q0.393 0.555 0.390 0.541H0.386Q0.374 0.546 0.362 0.550Q0.350 0.554 0.341 0.558V0.584L0.347 0.590Q0.357 0.595 0.367 0.597Q0.378 0.600 0.387 0.605ZM0.327 0.535Q0.324 0.516 0.326 0.501Q0.328 0.485 0.324 0.467Q0.312 0.463 0.301 0.460Q0.290 0.457 0.279 0.451L0.274 0.454V0.518Q0.285 0.527 0.298 0.530Q0.312 0.534 0.323 0.540ZM0.676 0.517Q0.684 0.513 0.691 0.511Q0.697 0.509 0.703 0.506Q0.697 0.503 0.691 0.501Q0.684 0.499 0.680 0.496L0.673 0.498Q0.675 0.503 0.673 0.508Q0.672 0.513 0.675 0.517ZM0.544 0.473Q0.557 0.466 0.571 0.461Q0.562 0.459 0.555 0.456Q0.548 0.452 0.541 0.454Q0.542 0.459 0.541 0.464Q0.540 0.470 0.543 0.473ZM0.327 0.447Q0.324 0.429 0.326 0.413Q0.328 0.396 0.324 0.380Q0.312 0.375 0.301 0.371Q0.290 0.367 0.279 0.363L0.274 0.365Q0.275 0.384 0.274 0.400Q0.273 0.417 0.276 0.432Q0.288 0.438 0.299 0.441Q0.310 0.443 0.321 0.449ZM0.591 0.447V0.386L0.587 0.378Q0.576 0.375 0.566 0.371Q0.555 0.367 0.546 0.364L0.541 0.365V0.429Q0.545 0.436 0.549 0.437Q0.559 0.439 0.568 0.443Q0.577 0.447 0.587 0.449ZM0.479 0.405Q0.486 0.401 0.493 0.400Q0.500 0.399 0.504 0.394Q0.497 0.394 0.491 0.390Q0.486 0.386 0.480 0.386L0.474 0.387Q0.475 0.392 0.474 0.397Q0.473 0.402 0.476 0.405ZM0.526 0.382V0.235L0.523 0.231Q0.515 0.235 0.504 0.238Q0.493 0.241 0.479 0.245L0.474 0.251V0.363L0.479 0.369Q0.489 0.374 0.499 0.376Q0.510 0.378 0.520 0.383ZM0.327 0.359Q0.324 0.341 0.327 0.324Q0.329 0.306 0.323 0.290Q0.309 0.287 0.298 0.282Q0.287 0.276 0.274 0.276V0.340L0.279 0.347Q0.290 0.352 0.300 0.355Q0.311 0.358 0.321 0.361ZM0.591 0.358V0.297L0.587 0.290Q0.576 0.285 0.566 0.283Q0.555 0.280 0.546 0.275L0.541 0.278V0.341Q0.550 0.349 0.562 0.353Q0.574 0.357 0.585 0.361ZM0.332 0.276Q0.342 0.274 0.353 0.269Q0.364 0.264 0.373 0.262Q0.363 0.260 0.352 0.256Q0.341 0.252 0.332 0.249Q0.322 0.254 0.312 0.257Q0.302 0.260 0.294 0.262Q0.304 0.265 0.313 0.269Q0.322 0.273 0.332 0.276ZM0.591 0.270Q0.590 0.255 0.591 0.239Q0.592 0.224 0.590 0.209H0.585Q0.573 0.215 0.561 0.218Q0.549 0.221 0.541 0.227V0.252L0.546 0.259Q0.556 0.260 0.567 0.265Q0.577 0.270 0.587 0.273ZM0.392 0.248V0.187L0.387 0.179Q0.377 0.176 0.366 0.172Q0.356 0.168 0.347 0.165L0.341 0.167V0.231Q0.346 0.237 0.350 0.238Q0.360 0.239 0.369 0.243Q0.378 0.248 0.387 0.251ZM0.400 0.167Q0.408 0.160 0.420 0.159Q0.433 0.158 0.439 0.150Q0.428 0.149 0.417 0.144Q0.407 0.139 0.397 0.139Q0.387 0.144 0.378 0.146Q0.369 0.147 0.361 0.152Q0.371 0.155 0.381 0.159Q0.390 0.162 0.400 0.167ZM0.676 0.164Q0.681 0.162 0.688 0.159Q0.694 0.155 0.703 0.152Q0.697 0.148 0.691 0.147Q0.684 0.145 0.680 0.142L0.673 0.144Q0.675 0.148 0.673 0.154Q0.672 0.161 0.676 0.164ZM0.466 0.144Q0.477 0.139 0.486 0.136Q0.496 0.133 0.506 0.130Q0.495 0.124 0.485 0.122Q0.475 0.121 0.466 0.117Q0.461 0.121 0.457 0.121Q0.453 0.121 0.450 0.123Q0.444 0.122 0.438 0.126Q0.432 0.130 0.428 0.130Q0.438 0.133 0.447 0.137Q0.456 0.141 0.466 0.144ZM0.533 0.122Q0.542 0.116 0.552 0.114Q0.563 0.113 0.571 0.106Q0.552 0.099 0.531 0.098Q0.510 0.097 0.494 0.109Q0.505 0.111 0.514 0.115Q0.523 0.119 0.533 0.122ZM0.599 0.100Q0.609 0.098 0.619 0.092Q0.630 0.087 0.640 0.085Q0.629 0.080 0.618 0.078Q0.608 0.076 0.599 0.072Q0.588 0.077 0.578 0.080Q0.568 0.083 0.560 0.085Q0.570 0.089 0.579 0.092Q0.588 0.096 0.599 0.100Z" fill="black"/>
</svg>
