<svg xmlns="http://www.w3.org/2000/svg" viewBox="0 0 1 1" preserveAspectRatio="xMidYMid meet">
  <path d="M0.590 0.913Q0.575 0.903 0.558 0.900Q0.542 0.897 0.526 0.889Q0.525 0.836 0.526 0.783Q0.528 0.730 0.523 0.675Q0.477 0.687 0.427 0.704Q0.379 0.722 0.330 0.691L0.327 0.686V0.651L0.323 0.644Q0.308 0.640 0.294 0.636Q0.279 0.632 0.265 0.624L0.262 0.619Q0.262 0.262 0.265 0.261Q0.268 0.259 0.273 0.255Q0.283 0.255 0.294 0.248Q0.305 0.242 0.317 0.242L0.321 0.240L0.327 0.231V0.151Q0.326 0.152 0.329 0.151Q0.332 0.149 0.338 0.144Q0.419 0.131 0.502 0.087Q0.587 0.045 0.669 0.082Q0.672 0.092 0.670 0.104Q0.668 0.115 0.674 0.127Q0.688 0.133 0.704 0.137Q0.719 0.141 0.735 0.147L0.738 0.152V0.197Q0.737 0.368 0.738 0.534Q0.739 0.700 0.735 0.868Q0.703 0.879 0.666 0.892Q0.628 0.905 0.593 0.913H0.590ZM0.591 0.892Q0.589 0.874 0.591 0.856Q0.594 0.838 0.587 0.822Q0.576 0.820 0.565 0.816Q0.554 0.812 0.545 0.809L0.540 0.810Q0.541 0.828 0.540 0.846Q0.539 0.863 0.542 0.877Q0.554 0.882 0.565 0.887Q0.576 0.891 0.587 0.895ZM0.591 0.801V0.741L0.587 0.734Q0.576 0.730 0.565 0.727Q0.554 0.724 0.545 0.721L0.540 0.722V0.789Q0.550 0.796 0.562 0.797Q0.575 0.799 0.585 0.806ZM0.591 0.713Q0.590 0.698 0.591 0.684Q0.592 0.670 0.590 0.654L0.587 0.653Q0.576 0.660 0.565 0.661Q0.554 0.663 0.545 0.667L0.540 0.672Q0.541 0.680 0.540 0.687Q0.539 0.694 0.542 0.701Q0.565 0.708 0.587 0.718ZM0.392 0.693V0.635L0.389 0.630Q0.377 0.638 0.364 0.640Q0.350 0.641 0.341 0.649Q0.343 0.658 0.341 0.665Q0.340 0.672 0.343 0.679Q0.366 0.686 0.388 0.696ZM0.326 0.626V0.565L0.321 0.557Q0.309 0.554 0.299 0.550Q0.288 0.546 0.279 0.543L0.275 0.545V0.608Q0.277 0.614 0.283 0.616Q0.293 0.618 0.302 0.622Q0.310 0.626 0.321 0.629ZM0.477 0.584Q0.484 0.579 0.491 0.579Q0.497 0.578 0.504 0.575Q0.497 0.571 0.491 0.570Q0.485 0.568 0.480 0.565L0.473 0.567Q0.475 0.572 0.474 0.577Q0.473 0.581 0.475 0.584ZM0.533 0.567Q0.539 0.560 0.552 0.559Q0.564 0.558 0.571 0.551Q0.551 0.545 0.531 0.542Q0.511 0.540 0.494 0.554Q0.510 0.555 0.533 0.567ZM0.326 0.540Q0.323 0.521 0.325 0.504Q0.327 0.487 0.323 0.470Q0.308 0.465 0.296 0.460Q0.283 0.455 0.275 0.455V0.519L0.279 0.525Q0.307 0.535 0.321 0.542ZM0.478 0.542Q0.487 0.536 0.499 0.533Q0.511 0.530 0.520 0.525L0.525 0.520Q0.523 0.449 0.524 0.377Q0.525 0.304 0.523 0.234H0.518Q0.507 0.241 0.494 0.242Q0.482 0.244 0.473 0.251Q0.476 0.324 0.474 0.398Q0.472 0.472 0.477 0.542ZM0.591 0.538Q0.589 0.520 0.591 0.503Q0.594 0.485 0.587 0.468Q0.576 0.463 0.565 0.461Q0.554 0.459 0.545 0.455L0.540 0.456Q0.541 0.475 0.540 0.492Q0.539 0.509 0.542 0.524Q0.565 0.532 0.587 0.542ZM0.326 0.449V0.388L0.321 0.380Q0.309 0.377 0.299 0.373Q0.288 0.369 0.279 0.366L0.275 0.368V0.431Q0.277 0.437 0.283 0.439Q0.293 0.441 0.302 0.445Q0.310 0.449 0.321 0.452ZM0.591 0.450Q0.589 0.433 0.591 0.415Q0.593 0.397 0.588 0.380Q0.575 0.378 0.563 0.372Q0.552 0.366 0.540 0.366V0.433Q0.550 0.440 0.562 0.443Q0.575 0.445 0.585 0.452ZM0.326 0.361V0.298L0.320 0.290Q0.307 0.289 0.296 0.284Q0.285 0.278 0.275 0.278V0.342L0.279 0.349Q0.289 0.354 0.300 0.357Q0.310 0.360 0.321 0.363ZM0.591 0.360Q0.589 0.342 0.591 0.326Q0.593 0.310 0.588 0.293Q0.575 0.288 0.563 0.283Q0.552 0.278 0.540 0.278V0.346Q0.550 0.352 0.562 0.354Q0.575 0.357 0.585 0.363ZM0.332 0.278Q0.342 0.276 0.353 0.271Q0.363 0.266 0.373 0.264Q0.362 0.261 0.352 0.258Q0.341 0.254 0.332 0.251Q0.323 0.256 0.312 0.259Q0.302 0.261 0.293 0.264Q0.304 0.267 0.313 0.271Q0.323 0.275 0.332 0.278ZM0.591 0.273Q0.590 0.257 0.591 0.242Q0.592 0.228 0.590 0.211L0.587 0.210Q0.576 0.216 0.565 0.219Q0.554 0.222 0.545 0.225L0.540 0.231Q0.541 0.238 0.541 0.245Q0.540 0.253 0.543 0.259Q0.554 0.263 0.565 0.266Q0.576 0.269 0.585 0.275ZM0.392 0.251Q0.390 0.234 0.392 0.216Q0.394 0.198 0.389 0.181Q0.375 0.179 0.364 0.173Q0.353 0.167 0.341 0.167V0.234Q0.350 0.241 0.362 0.243Q0.374 0.246 0.386 0.253ZM0.399 0.169Q0.409 0.163 0.419 0.161Q0.429 0.159 0.438 0.153Q0.401 0.134 0.360 0.153Q0.369 0.159 0.379 0.161Q0.390 0.164 0.399 0.169ZM0.676 0.164Q0.683 0.161 0.690 0.159Q0.697 0.158 0.703 0.153Q0.697 0.150 0.690 0.149Q0.683 0.147 0.679 0.144L0.673 0.146Q0.673 0.151 0.673 0.156Q0.672 0.161 0.674 0.164ZM0.466 0.146Q0.476 0.140 0.486 0.138Q0.495 0.136 0.505 0.132Q0.461 0.112 0.427 0.133Q0.437 0.134 0.447 0.139Q0.456 0.143 0.466 0.146ZM0.533 0.124Q0.542 0.119 0.553 0.116Q0.563 0.113 0.571 0.108Q0.526 0.092 0.493 0.110Q0.503 0.114 0.513 0.117Q0.523 0.120 0.533 0.124ZM0.598 0.102Q0.608 0.098 0.618 0.095Q0.628 0.091 0.638 0.087Q0.626 0.082 0.617 0.080Q0.607 0.078 0.598 0.074Q0.590 0.076 0.584 0.079Q0.579 0.082 0.573 0.082Q0.568 0.085 0.565 0.086Q0.561 0.086 0.559 0.087Q0.567 0.089 0.577 0.093Q0.587 0.097 0.598 0.102Z" fill="black"/>
</svg>
