<svg xmlns="http://www.w3.org/2000/svg" viewBox="0 0 1 1" preserveAspectRatio="xMidYMid meet">
  <path d="M0.326 1.000Q0.309 0.992 0.294 0.989Q0.278 0.986 0.262 0.976V0.348Q0.276 0.340 0.291 0.337Q0.306 0.334 0.323 0.327L0.329 0.318V0.241L0.332 0.237Q0.342 0.232 0.356 0.227Q0.370 0.223 0.379 0.220Q0.389 0.217 0.390 0.215Q0.392 0.213 0.396 0.208V0.128Q0.399 0.128 0.400 0.126Q0.402 0.123 0.407 0.120Q0.431 0.115 0.456 0.107Q0.480 0.100 0.504 0.090Q0.554 0.072 0.604 0.103Q0.606 0.111 0.605 0.121Q0.604 0.132 0.606 0.140L0.609 0.147Q0.621 0.155 0.638 0.159Q0.654 0.162 0.669 0.170L0.673 0.174V0.209L0.677 0.216Q0.690 0.221 0.706 0.225Q0.721 0.230 0.735 0.237L0.738 0.241V0.414Q0.737 0.530 0.738 0.642Q0.739 0.754 0.735 0.868L0.727 0.873Q0.679 0.883 0.628 0.903Q0.580 0.922 0.530 0.888Q0.526 0.835 0.528 0.782Q0.531 0.728 0.525 0.673Q0.513 0.675 0.501 0.679Q0.490 0.684 0.477 0.689Q0.472 0.754 0.474 0.820Q0.476 0.885 0.473 0.950L0.471 0.955Q0.434 0.967 0.399 0.981Q0.364 0.994 0.327 1.000H0.326ZM0.327 0.981Q0.325 0.962 0.326 0.945Q0.328 0.928 0.324 0.911Q0.310 0.909 0.299 0.902Q0.288 0.896 0.276 0.896Q0.278 0.915 0.276 0.933Q0.275 0.952 0.279 0.966Q0.289 0.973 0.300 0.974Q0.310 0.976 0.321 0.982ZM0.327 0.891Q0.325 0.873 0.327 0.856Q0.329 0.838 0.323 0.821Q0.294 0.811 0.281 0.809L0.276 0.810Q0.278 0.828 0.276 0.845Q0.275 0.862 0.278 0.877Q0.289 0.882 0.300 0.886Q0.311 0.890 0.323 0.894ZM0.593 0.890Q0.591 0.872 0.593 0.856Q0.595 0.839 0.590 0.823Q0.578 0.818 0.567 0.816Q0.556 0.813 0.545 0.807L0.540 0.810V0.874Q0.551 0.882 0.564 0.886Q0.578 0.889 0.588 0.894ZM0.327 0.804Q0.325 0.786 0.326 0.768Q0.328 0.750 0.324 0.734Q0.310 0.732 0.299 0.726Q0.288 0.720 0.276 0.720V0.787Q0.285 0.794 0.297 0.796Q0.309 0.799 0.321 0.806ZM0.593 0.801V0.740L0.588 0.734Q0.578 0.729 0.567 0.726Q0.556 0.724 0.547 0.720L0.540 0.722Q0.542 0.739 0.541 0.756Q0.539 0.772 0.542 0.788L0.548 0.793Q0.556 0.794 0.566 0.797Q0.576 0.801 0.587 0.806ZM0.324 0.717Q0.328 0.700 0.327 0.684Q0.326 0.668 0.327 0.651L0.323 0.644Q0.311 0.640 0.301 0.638Q0.290 0.635 0.281 0.632L0.276 0.633Q0.278 0.651 0.276 0.668Q0.275 0.685 0.278 0.700Q0.289 0.706 0.300 0.709Q0.311 0.711 0.323 0.717ZM0.593 0.713V0.659L0.588 0.652Q0.577 0.659 0.563 0.661Q0.550 0.664 0.540 0.672V0.697Q0.551 0.705 0.564 0.708Q0.578 0.711 0.588 0.717ZM0.327 0.625V0.561L0.323 0.555Q0.311 0.554 0.301 0.549Q0.290 0.544 0.281 0.543L0.276 0.544Q0.278 0.562 0.276 0.579Q0.275 0.596 0.278 0.611Q0.289 0.617 0.300 0.619Q0.311 0.622 0.323 0.628ZM0.478 0.584Q0.485 0.579 0.492 0.578Q0.499 0.576 0.505 0.574Q0.499 0.571 0.493 0.569Q0.486 0.567 0.481 0.565L0.475 0.566Q0.476 0.571 0.475 0.576Q0.474 0.580 0.477 0.584ZM0.535 0.566Q0.541 0.560 0.551 0.558Q0.560 0.556 0.570 0.554L0.573 0.551Q0.553 0.545 0.533 0.542Q0.513 0.540 0.495 0.554Q0.507 0.555 0.516 0.559Q0.525 0.563 0.535 0.566ZM0.593 0.536Q0.591 0.518 0.593 0.502Q0.595 0.486 0.590 0.470Q0.578 0.463 0.567 0.461Q0.556 0.458 0.545 0.453L0.540 0.456V0.520Q0.550 0.529 0.565 0.532Q0.580 0.534 0.588 0.541ZM0.327 0.536Q0.325 0.518 0.326 0.502Q0.328 0.486 0.324 0.470Q0.310 0.464 0.299 0.459Q0.288 0.454 0.276 0.454V0.521Q0.285 0.527 0.297 0.530Q0.309 0.534 0.321 0.539ZM0.477 0.539Q0.490 0.535 0.503 0.532Q0.517 0.528 0.526 0.518V0.323L0.523 0.319Q0.510 0.325 0.498 0.329Q0.487 0.332 0.475 0.338Q0.476 0.390 0.475 0.440Q0.474 0.490 0.477 0.539ZM0.327 0.449V0.387L0.323 0.380Q0.306 0.373 0.281 0.365L0.276 0.367V0.431L0.281 0.437Q0.291 0.439 0.302 0.444Q0.312 0.448 0.323 0.451ZM0.593 0.447Q0.591 0.429 0.593 0.413Q0.595 0.396 0.590 0.380Q0.578 0.375 0.567 0.372Q0.556 0.370 0.545 0.364L0.540 0.367Q0.542 0.385 0.541 0.402Q0.539 0.419 0.542 0.434Q0.554 0.440 0.565 0.443Q0.577 0.446 0.587 0.451ZM0.335 0.367Q0.342 0.362 0.352 0.359Q0.361 0.357 0.370 0.354L0.373 0.352Q0.354 0.346 0.334 0.343Q0.313 0.340 0.297 0.354Q0.307 0.356 0.316 0.360Q0.326 0.364 0.335 0.367ZM0.593 0.359Q0.592 0.343 0.593 0.329Q0.594 0.315 0.592 0.300L0.587 0.299Q0.577 0.304 0.566 0.307Q0.555 0.310 0.545 0.313L0.540 0.319V0.341Q0.545 0.349 0.548 0.350Q0.563 0.351 0.587 0.363ZM0.394 0.338Q0.391 0.320 0.393 0.302Q0.396 0.285 0.389 0.268Q0.375 0.263 0.364 0.260Q0.353 0.256 0.342 0.256V0.319Q0.347 0.326 0.349 0.327Q0.360 0.328 0.369 0.333Q0.377 0.337 0.388 0.340ZM0.400 0.256Q0.410 0.251 0.420 0.248Q0.429 0.246 0.438 0.241Q0.427 0.237 0.418 0.235Q0.408 0.233 0.399 0.229Q0.389 0.234 0.378 0.236Q0.367 0.239 0.362 0.243Q0.372 0.244 0.382 0.248Q0.391 0.253 0.400 0.256ZM0.677 0.252Q0.682 0.250 0.689 0.247Q0.696 0.245 0.705 0.241Q0.699 0.238 0.692 0.237Q0.686 0.237 0.681 0.234L0.674 0.235Q0.675 0.240 0.674 0.244Q0.673 0.249 0.676 0.252ZM0.460 0.227V0.167L0.455 0.159Q0.423 0.148 0.413 0.142L0.409 0.145V0.209L0.413 0.216Q0.424 0.217 0.434 0.222Q0.445 0.227 0.455 0.231ZM0.612 0.186Q0.619 0.181 0.626 0.180Q0.634 0.179 0.638 0.174Q0.630 0.174 0.625 0.170Q0.620 0.167 0.614 0.167L0.607 0.168Q0.608 0.173 0.607 0.177Q0.606 0.182 0.609 0.186ZM0.467 0.145Q0.475 0.139 0.486 0.137Q0.497 0.135 0.508 0.131Q0.463 0.110 0.429 0.132Q0.446 0.135 0.467 0.145ZM0.535 0.123Q0.541 0.116 0.554 0.115Q0.566 0.115 0.573 0.108Q0.552 0.102 0.533 0.100Q0.514 0.099 0.494 0.109Q0.504 0.115 0.515 0.116Q0.525 0.117 0.535 0.123Z" fill="black"/>
</svg>
