<svg xmlns="http://www.w3.org/2000/svg" viewBox="0 0 1 1" preserveAspectRatio="xMidYMid meet">
  <path d="M0.658 1.000Q0.627 0.988 0.594 0.977Q0.561 0.966 0.530 0.955Q0.527 0.890 0.528 0.826Q0.529 0.762 0.528 0.695L0.525 0.688Q0.516 0.681 0.504 0.679Q0.492 0.678 0.480 0.671L0.473 0.672Q0.471 0.727 0.472 0.778Q0.472 0.829 0.471 0.884L0.469 0.889Q0.453 0.895 0.437 0.900Q0.421 0.904 0.404 0.912Q0.369 0.904 0.334 0.891Q0.299 0.877 0.263 0.867L0.260 0.862V0.236L0.263 0.231Q0.281 0.221 0.301 0.216Q0.321 0.211 0.322 0.209Q0.324 0.206 0.327 0.201V0.176V0.166Q0.339 0.157 0.356 0.152Q0.372 0.148 0.388 0.143Q0.394 0.132 0.392 0.121Q0.390 0.111 0.393 0.099Q0.387 0.105 0.404 0.092Q0.452 0.064 0.503 0.084Q0.552 0.105 0.603 0.118L0.607 0.123V0.203L0.611 0.209Q0.624 0.214 0.640 0.219Q0.655 0.224 0.669 0.231L0.672 0.236V0.312Q0.674 0.320 0.682 0.323Q0.704 0.328 0.737 0.341L0.740 0.346V0.976Q0.695 0.996 0.660 1.000H0.658ZM0.660 0.980Q0.657 0.962 0.659 0.945Q0.661 0.927 0.657 0.910Q0.643 0.908 0.632 0.901Q0.620 0.895 0.608 0.895Q0.610 0.914 0.608 0.933Q0.606 0.952 0.611 0.965Q0.621 0.973 0.633 0.974Q0.644 0.975 0.653 0.982ZM0.593 0.957Q0.590 0.940 0.592 0.922Q0.594 0.904 0.589 0.887Q0.578 0.885 0.566 0.880Q0.554 0.875 0.547 0.873L0.540 0.874V0.939L0.545 0.945Q0.556 0.950 0.567 0.953Q0.578 0.955 0.588 0.959ZM0.392 0.891V0.826L0.386 0.818Q0.372 0.817 0.361 0.812Q0.349 0.807 0.340 0.807V0.872L0.344 0.878Q0.379 0.889 0.387 0.894ZM0.660 0.891Q0.657 0.873 0.660 0.855Q0.662 0.836 0.655 0.819Q0.644 0.816 0.633 0.812Q0.622 0.809 0.613 0.807L0.608 0.809Q0.609 0.827 0.608 0.844Q0.607 0.861 0.610 0.876Q0.621 0.881 0.633 0.885Q0.644 0.889 0.655 0.894ZM0.325 0.868Q0.324 0.851 0.325 0.833Q0.326 0.816 0.324 0.801Q0.307 0.794 0.295 0.790Q0.283 0.786 0.273 0.785V0.849L0.277 0.855Q0.288 0.860 0.299 0.863Q0.309 0.866 0.320 0.872ZM0.593 0.868Q0.590 0.851 0.592 0.832Q0.595 0.814 0.588 0.798Q0.577 0.793 0.566 0.791Q0.555 0.789 0.545 0.784L0.540 0.787Q0.542 0.804 0.541 0.821Q0.539 0.838 0.542 0.854Q0.554 0.860 0.566 0.863Q0.577 0.866 0.588 0.872ZM0.392 0.801V0.740L0.387 0.732Q0.376 0.728 0.365 0.724Q0.354 0.720 0.344 0.717L0.340 0.718V0.784Q0.344 0.789 0.348 0.791Q0.358 0.793 0.367 0.797Q0.377 0.801 0.387 0.804ZM0.660 0.802Q0.657 0.785 0.659 0.766Q0.661 0.748 0.657 0.732Q0.643 0.729 0.632 0.723Q0.620 0.717 0.608 0.717V0.785Q0.617 0.793 0.630 0.795Q0.642 0.797 0.653 0.804ZM0.325 0.776V0.715L0.321 0.708Q0.309 0.704 0.299 0.701Q0.288 0.698 0.279 0.695L0.273 0.696V0.760Q0.277 0.767 0.281 0.768Q0.288 0.769 0.298 0.773Q0.307 0.776 0.320 0.782ZM0.593 0.778V0.717L0.588 0.708Q0.577 0.705 0.566 0.701Q0.555 0.697 0.545 0.695L0.540 0.696V0.760L0.545 0.767Q0.556 0.770 0.567 0.773Q0.578 0.776 0.588 0.782ZM0.392 0.712V0.648L0.386 0.640Q0.372 0.639 0.361 0.634Q0.349 0.629 0.340 0.629V0.693L0.344 0.699Q0.355 0.704 0.366 0.707Q0.377 0.709 0.387 0.715ZM0.660 0.712V0.648L0.655 0.641Q0.629 0.632 0.613 0.629L0.608 0.630Q0.609 0.648 0.608 0.665Q0.607 0.682 0.610 0.698Q0.621 0.703 0.633 0.706Q0.644 0.709 0.655 0.715ZM0.325 0.690V0.625Q0.322 0.619 0.318 0.618Q0.305 0.616 0.294 0.611Q0.282 0.606 0.273 0.606V0.671L0.277 0.677Q0.288 0.682 0.299 0.684Q0.309 0.687 0.320 0.693ZM0.593 0.690V0.625L0.586 0.618Q0.574 0.616 0.562 0.611Q0.550 0.606 0.540 0.606V0.671L0.545 0.677Q0.556 0.682 0.567 0.684Q0.578 0.687 0.588 0.693ZM0.526 0.667Q0.525 0.649 0.526 0.633Q0.527 0.616 0.525 0.600Q0.497 0.586 0.473 0.583V0.648L0.478 0.654Q0.488 0.660 0.499 0.662Q0.511 0.665 0.520 0.671ZM0.459 0.644V0.583L0.454 0.576Q0.432 0.566 0.412 0.561L0.408 0.563V0.627L0.412 0.634Q0.423 0.635 0.434 0.640Q0.445 0.644 0.454 0.648ZM0.392 0.622Q0.389 0.605 0.391 0.586Q0.394 0.568 0.387 0.552Q0.376 0.551 0.365 0.546Q0.354 0.541 0.344 0.538L0.340 0.541V0.605L0.344 0.611Q0.355 0.613 0.366 0.617Q0.377 0.622 0.387 0.625ZM0.660 0.622V0.558L0.655 0.552Q0.644 0.551 0.633 0.545Q0.622 0.540 0.613 0.539L0.608 0.541Q0.609 0.558 0.608 0.575Q0.607 0.592 0.610 0.608Q0.621 0.614 0.633 0.616Q0.644 0.619 0.655 0.625ZM0.325 0.598V0.538L0.321 0.530Q0.309 0.526 0.299 0.523Q0.288 0.520 0.279 0.516L0.273 0.517Q0.274 0.536 0.273 0.553Q0.272 0.570 0.274 0.585L0.281 0.590Q0.297 0.592 0.320 0.603ZM0.593 0.600V0.539L0.588 0.530Q0.577 0.527 0.566 0.523Q0.555 0.518 0.545 0.516L0.540 0.517V0.582Q0.544 0.588 0.549 0.590Q0.559 0.591 0.569 0.596Q0.578 0.600 0.588 0.603ZM0.520 0.580Q0.528 0.582 0.526 0.576Q0.525 0.569 0.526 0.566L0.522 0.559Q0.514 0.563 0.507 0.566Q0.501 0.568 0.494 0.571Q0.502 0.572 0.508 0.575Q0.514 0.578 0.520 0.580ZM0.467 0.563Q0.474 0.557 0.484 0.555Q0.493 0.553 0.503 0.550L0.506 0.547Q0.486 0.541 0.466 0.538Q0.446 0.536 0.428 0.550Q0.439 0.552 0.448 0.555Q0.457 0.559 0.467 0.563ZM0.392 0.535Q0.389 0.516 0.391 0.498Q0.393 0.481 0.388 0.463Q0.378 0.460 0.365 0.456Q0.353 0.451 0.346 0.449L0.340 0.450V0.514L0.344 0.521Q0.355 0.526 0.366 0.529Q0.377 0.532 0.387 0.536ZM0.526 0.535Q0.524 0.482 0.526 0.432Q0.528 0.383 0.523 0.331Q0.512 0.327 0.500 0.323Q0.488 0.318 0.478 0.315L0.473 0.318V0.514Q0.476 0.520 0.481 0.522Q0.492 0.524 0.502 0.529Q0.511 0.534 0.520 0.536ZM0.660 0.533Q0.657 0.514 0.659 0.498Q0.661 0.482 0.657 0.464Q0.643 0.460 0.632 0.455Q0.620 0.450 0.608 0.450V0.517Q0.617 0.524 0.630 0.527Q0.642 0.529 0.653 0.536ZM0.325 0.510Q0.323 0.492 0.325 0.476Q0.327 0.459 0.323 0.442Q0.310 0.436 0.299 0.434Q0.288 0.432 0.277 0.426L0.273 0.429V0.494Q0.283 0.502 0.296 0.506Q0.309 0.509 0.321 0.514ZM0.593 0.511V0.447L0.586 0.439Q0.574 0.438 0.562 0.433Q0.550 0.428 0.540 0.428V0.492L0.545 0.498Q0.556 0.503 0.567 0.506Q0.578 0.509 0.588 0.514ZM0.392 0.444Q0.390 0.427 0.391 0.410Q0.392 0.392 0.390 0.377Q0.378 0.371 0.366 0.368Q0.355 0.365 0.344 0.359L0.340 0.362V0.426L0.344 0.433Q0.355 0.434 0.366 0.439Q0.377 0.444 0.387 0.447ZM0.660 0.444V0.383L0.655 0.375Q0.644 0.370 0.634 0.366Q0.623 0.363 0.613 0.361L0.608 0.362V0.426L0.613 0.433Q0.623 0.434 0.634 0.439Q0.645 0.444 0.655 0.447ZM0.325 0.422Q0.323 0.403 0.325 0.387Q0.327 0.371 0.323 0.354Q0.310 0.350 0.299 0.346Q0.288 0.341 0.277 0.336L0.273 0.339Q0.274 0.358 0.273 0.374Q0.272 0.391 0.274 0.408Q0.286 0.413 0.297 0.415Q0.308 0.418 0.320 0.425ZM0.593 0.422V0.361L0.588 0.353Q0.575 0.349 0.564 0.345Q0.553 0.340 0.545 0.336L0.540 0.339V0.403L0.545 0.411Q0.556 0.412 0.567 0.417Q0.578 0.422 0.588 0.425ZM0.667 0.362Q0.675 0.356 0.685 0.354Q0.695 0.352 0.704 0.349L0.706 0.346Q0.686 0.340 0.666 0.338Q0.646 0.335 0.629 0.349Q0.640 0.351 0.649 0.355Q0.658 0.359 0.667 0.362ZM0.392 0.356Q0.389 0.337 0.391 0.320Q0.393 0.302 0.388 0.285Q0.374 0.283 0.363 0.277Q0.352 0.272 0.340 0.272V0.336L0.344 0.343Q0.355 0.348 0.366 0.350Q0.377 0.352 0.387 0.358ZM0.325 0.333Q0.323 0.315 0.325 0.297Q0.328 0.279 0.321 0.262Q0.287 0.250 0.273 0.250V0.314L0.277 0.320Q0.288 0.325 0.299 0.328Q0.309 0.330 0.320 0.334ZM0.593 0.333Q0.590 0.315 0.592 0.297Q0.594 0.279 0.589 0.262Q0.578 0.260 0.566 0.256Q0.554 0.251 0.547 0.248L0.540 0.250V0.314L0.545 0.320Q0.556 0.325 0.567 0.328Q0.578 0.330 0.588 0.334ZM0.526 0.309Q0.524 0.291 0.526 0.275Q0.528 0.259 0.523 0.241Q0.512 0.236 0.500 0.234Q0.488 0.232 0.478 0.226L0.473 0.229V0.293Q0.484 0.302 0.497 0.305Q0.511 0.308 0.522 0.314ZM0.459 0.289Q0.456 0.270 0.458 0.253Q0.461 0.235 0.454 0.217Q0.440 0.212 0.429 0.209Q0.419 0.206 0.412 0.204L0.408 0.206Q0.408 0.225 0.408 0.241Q0.407 0.258 0.409 0.273Q0.421 0.278 0.432 0.283Q0.444 0.287 0.454 0.292ZM0.392 0.265Q0.389 0.248 0.391 0.230Q0.394 0.212 0.387 0.195Q0.363 0.191 0.344 0.180L0.340 0.184Q0.341 0.201 0.340 0.218Q0.339 0.236 0.342 0.251Q0.353 0.256 0.364 0.260Q0.376 0.264 0.387 0.268ZM0.598 0.250Q0.609 0.247 0.620 0.242Q0.631 0.238 0.641 0.236Q0.630 0.233 0.619 0.229Q0.608 0.225 0.598 0.222Q0.589 0.228 0.579 0.230Q0.569 0.233 0.559 0.236Q0.567 0.238 0.576 0.241Q0.585 0.245 0.598 0.250ZM0.325 0.243Q0.324 0.235 0.323 0.226Q0.315 0.231 0.308 0.231Q0.302 0.232 0.296 0.234L0.293 0.237Q0.301 0.236 0.307 0.240Q0.314 0.245 0.320 0.246ZM0.526 0.221Q0.524 0.203 0.526 0.187Q0.528 0.171 0.523 0.153Q0.512 0.148 0.500 0.144Q0.488 0.140 0.478 0.135L0.473 0.138Q0.474 0.157 0.473 0.174Q0.472 0.191 0.475 0.206Q0.487 0.212 0.498 0.214Q0.509 0.216 0.520 0.224ZM0.459 0.198Q0.456 0.180 0.458 0.164Q0.460 0.147 0.456 0.131Q0.443 0.127 0.431 0.120Q0.419 0.114 0.408 0.114V0.182Q0.417 0.191 0.429 0.193Q0.442 0.195 0.453 0.201ZM0.392 0.176V0.162Q0.368 0.162 0.361 0.171Q0.367 0.171 0.374 0.174Q0.381 0.177 0.387 0.179ZM0.533 0.138Q0.541 0.131 0.552 0.130Q0.562 0.129 0.573 0.124Q0.562 0.120 0.553 0.117Q0.544 0.115 0.536 0.111Q0.525 0.113 0.514 0.117Q0.504 0.121 0.494 0.124Q0.505 0.129 0.514 0.132Q0.523 0.134 0.533 0.138ZM0.466 0.116Q0.476 0.111 0.486 0.109Q0.495 0.107 0.506 0.102Q0.465 0.083 0.427 0.102Q0.438 0.107 0.447 0.109Q0.456 0.112 0.466 0.116Z" fill="black"/>
</svg>
