<svg xmlns="http://www.w3.org/2000/svg" viewBox="0 0 1 1" preserveAspectRatio="xMidYMid meet">
  <path d="M0.326 1.000Q0.309 0.992 0.294 0.988Q0.278 0.984 0.262 0.977V0.174Q0.358 0.148 0.454 0.103Q0.552 0.056 0.649 0.072Q0.654 0.075 0.658 0.076Q0.662 0.077 0.668 0.080L0.673 0.086V0.119Q0.675 0.127 0.682 0.130Q0.694 0.132 0.707 0.136Q0.720 0.140 0.736 0.147Q0.738 0.199 0.738 0.251Q0.737 0.302 0.738 0.355V0.420L0.735 0.425Q0.722 0.428 0.708 0.434Q0.695 0.440 0.681 0.442Q0.678 0.443 0.673 0.450V0.473L0.676 0.479Q0.688 0.488 0.704 0.490Q0.721 0.492 0.736 0.501Q0.738 0.571 0.738 0.638Q0.737 0.705 0.738 0.740Q0.738 0.775 0.727 0.784Q0.715 0.784 0.702 0.789Q0.689 0.795 0.676 0.800Q0.671 0.820 0.673 0.842Q0.675 0.864 0.673 0.885Q0.587 0.918 0.501 0.946Q0.414 0.975 0.327 1.000H0.326ZM0.327 0.979Q0.325 0.961 0.327 0.944Q0.330 0.926 0.323 0.910Q0.311 0.908 0.301 0.903Q0.290 0.899 0.281 0.896L0.276 0.897Q0.277 0.916 0.276 0.933Q0.275 0.950 0.278 0.965Q0.293 0.971 0.304 0.975Q0.316 0.980 0.323 0.983ZM0.327 0.892Q0.325 0.874 0.326 0.856Q0.328 0.838 0.324 0.821Q0.310 0.819 0.299 0.813Q0.288 0.807 0.276 0.807Q0.278 0.825 0.276 0.845Q0.275 0.864 0.279 0.877Q0.290 0.883 0.300 0.885Q0.310 0.886 0.321 0.893ZM0.478 0.849Q0.485 0.846 0.492 0.843Q0.499 0.841 0.506 0.839Q0.499 0.835 0.493 0.834Q0.486 0.832 0.481 0.830H0.475Q0.476 0.836 0.475 0.841Q0.474 0.846 0.477 0.849ZM0.534 0.830Q0.541 0.824 0.554 0.824Q0.567 0.823 0.573 0.815Q0.561 0.814 0.551 0.809Q0.540 0.804 0.531 0.804Q0.521 0.809 0.512 0.811Q0.503 0.813 0.494 0.817Q0.505 0.823 0.514 0.824Q0.524 0.825 0.534 0.830ZM0.327 0.802Q0.325 0.785 0.327 0.767Q0.330 0.749 0.323 0.733Q0.307 0.728 0.297 0.725Q0.286 0.722 0.281 0.720L0.276 0.722Q0.277 0.739 0.276 0.756Q0.275 0.772 0.278 0.789Q0.289 0.793 0.300 0.797Q0.311 0.801 0.323 0.806ZM0.478 0.806Q0.491 0.800 0.503 0.796Q0.515 0.793 0.526 0.787V0.588L0.521 0.585Q0.513 0.589 0.501 0.593Q0.489 0.597 0.480 0.600L0.475 0.605Q0.476 0.657 0.475 0.705Q0.474 0.754 0.477 0.806ZM0.593 0.801Q0.591 0.784 0.593 0.767Q0.595 0.751 0.590 0.734Q0.579 0.728 0.567 0.726Q0.555 0.725 0.545 0.718L0.540 0.722V0.785Q0.551 0.794 0.565 0.797Q0.578 0.800 0.589 0.806ZM0.327 0.714Q0.325 0.697 0.326 0.679Q0.328 0.662 0.324 0.644Q0.310 0.642 0.299 0.636Q0.288 0.630 0.276 0.630V0.697Q0.285 0.704 0.297 0.707Q0.309 0.709 0.321 0.716ZM0.593 0.711V0.651L0.589 0.644Q0.578 0.640 0.567 0.637Q0.556 0.634 0.547 0.630L0.540 0.632Q0.541 0.650 0.540 0.667Q0.539 0.683 0.542 0.699L0.548 0.703Q0.557 0.704 0.567 0.708Q0.577 0.711 0.587 0.716ZM0.324 0.629Q0.328 0.611 0.327 0.595Q0.326 0.578 0.327 0.562L0.323 0.555Q0.311 0.551 0.301 0.549Q0.290 0.547 0.281 0.543L0.276 0.544Q0.277 0.562 0.276 0.579Q0.275 0.596 0.278 0.612Q0.289 0.618 0.300 0.620Q0.311 0.623 0.323 0.629ZM0.593 0.624Q0.592 0.609 0.593 0.594Q0.594 0.579 0.592 0.565L0.589 0.563Q0.577 0.569 0.564 0.572Q0.550 0.574 0.540 0.582Q0.541 0.590 0.541 0.598Q0.540 0.606 0.544 0.612Q0.555 0.618 0.567 0.620Q0.578 0.623 0.589 0.629ZM0.327 0.535Q0.325 0.516 0.326 0.501Q0.328 0.485 0.324 0.468Q0.310 0.465 0.299 0.459Q0.288 0.453 0.276 0.453Q0.278 0.472 0.276 0.489Q0.275 0.507 0.279 0.523Q0.294 0.528 0.305 0.533Q0.316 0.537 0.321 0.540ZM0.676 0.517Q0.683 0.513 0.690 0.513Q0.696 0.512 0.702 0.509L0.705 0.506Q0.699 0.503 0.693 0.503Q0.686 0.502 0.681 0.498L0.674 0.500Q0.675 0.505 0.674 0.509Q0.673 0.513 0.676 0.517ZM0.478 0.495Q0.485 0.491 0.492 0.489Q0.499 0.488 0.506 0.486Q0.499 0.482 0.493 0.480Q0.486 0.479 0.481 0.476L0.475 0.478Q0.476 0.482 0.475 0.487Q0.474 0.492 0.477 0.495ZM0.534 0.478Q0.541 0.472 0.551 0.470Q0.560 0.467 0.570 0.464L0.573 0.461Q0.553 0.455 0.533 0.453Q0.513 0.450 0.495 0.464Q0.507 0.466 0.515 0.470Q0.524 0.474 0.534 0.478ZM0.593 0.447Q0.591 0.429 0.593 0.413Q0.595 0.397 0.590 0.380Q0.579 0.374 0.567 0.371Q0.555 0.369 0.545 0.365L0.540 0.367V0.431Q0.550 0.441 0.565 0.443Q0.580 0.445 0.589 0.451ZM0.327 0.447Q0.325 0.429 0.326 0.413Q0.328 0.397 0.324 0.380Q0.312 0.377 0.303 0.372Q0.293 0.368 0.284 0.366H0.276V0.433Q0.285 0.439 0.297 0.442Q0.309 0.444 0.321 0.450ZM0.480 0.450Q0.492 0.444 0.505 0.442Q0.518 0.439 0.526 0.429V0.236L0.523 0.231Q0.510 0.237 0.498 0.240Q0.487 0.243 0.475 0.249Q0.476 0.301 0.475 0.351Q0.474 0.400 0.477 0.450ZM0.327 0.360V0.299L0.323 0.291Q0.311 0.286 0.301 0.282Q0.290 0.278 0.281 0.276L0.276 0.278V0.342L0.281 0.348Q0.291 0.350 0.302 0.354Q0.312 0.359 0.323 0.363ZM0.593 0.360V0.299L0.589 0.291Q0.576 0.288 0.563 0.282Q0.550 0.276 0.540 0.276V0.340L0.545 0.347Q0.555 0.352 0.567 0.354Q0.578 0.357 0.587 0.363ZM0.327 0.270Q0.325 0.252 0.326 0.236Q0.328 0.220 0.324 0.203Q0.310 0.198 0.299 0.194Q0.288 0.189 0.276 0.189V0.256Q0.285 0.263 0.297 0.265Q0.309 0.266 0.321 0.273ZM0.593 0.270Q0.592 0.255 0.593 0.240Q0.594 0.226 0.592 0.211L0.587 0.209Q0.576 0.213 0.565 0.218Q0.554 0.223 0.545 0.224L0.540 0.231V0.253Q0.544 0.258 0.548 0.260Q0.556 0.261 0.566 0.265Q0.576 0.268 0.587 0.273ZM0.333 0.189Q0.344 0.186 0.354 0.183Q0.363 0.180 0.373 0.174Q0.362 0.172 0.353 0.168Q0.343 0.165 0.333 0.162Q0.329 0.165 0.324 0.166Q0.320 0.167 0.316 0.169Q0.309 0.169 0.304 0.171Q0.299 0.174 0.295 0.174Q0.305 0.178 0.315 0.182Q0.324 0.186 0.333 0.189ZM0.400 0.167Q0.411 0.162 0.420 0.160Q0.429 0.158 0.439 0.152Q0.428 0.147 0.418 0.145Q0.408 0.143 0.399 0.139Q0.389 0.144 0.378 0.147Q0.367 0.150 0.362 0.153Q0.372 0.155 0.382 0.160Q0.391 0.165 0.400 0.167ZM0.677 0.164Q0.682 0.162 0.689 0.159Q0.696 0.157 0.705 0.152Q0.699 0.149 0.693 0.149Q0.686 0.148 0.681 0.144L0.674 0.145Q0.675 0.151 0.674 0.156Q0.673 0.161 0.676 0.164ZM0.467 0.144Q0.477 0.141 0.486 0.137Q0.495 0.133 0.506 0.133L0.507 0.130Q0.469 0.114 0.429 0.128L0.427 0.132Q0.441 0.134 0.466 0.144ZM0.536 0.122Q0.545 0.119 0.555 0.115Q0.566 0.111 0.575 0.110Q0.556 0.102 0.538 0.099Q0.520 0.096 0.504 0.106Q0.498 0.108 0.492 0.110Q0.504 0.112 0.514 0.115Q0.524 0.119 0.534 0.124ZM0.600 0.101Q0.609 0.096 0.620 0.092Q0.631 0.089 0.638 0.085Q0.590 0.068 0.561 0.086Q0.569 0.088 0.578 0.092Q0.588 0.096 0.600 0.101Z" fill="black"/>
</svg>
