<svg xmlns="http://www.w3.org/2000/svg" viewBox="0 0 1 1" preserveAspectRatio="xMidYMid meet">
  <path d="M0.591 0.975Q0.511 0.945 0.429 0.920Q0.348 0.894 0.265 0.864Q0.262 0.664 0.264 0.465Q0.265 0.266 0.264 0.064Q0.364 0.025 0.463 0.079Q0.564 0.133 0.666 0.149L0.670 0.158V0.195V0.235L0.677 0.241Q0.691 0.246 0.704 0.249Q0.717 0.253 0.734 0.260L0.737 0.265V0.534Q0.726 0.540 0.711 0.544Q0.697 0.549 0.680 0.553Q0.677 0.555 0.675 0.557Q0.674 0.559 0.670 0.564V0.582L0.674 0.589Q0.686 0.597 0.702 0.600Q0.717 0.604 0.734 0.611L0.737 0.616V0.881L0.734 0.886Q0.721 0.893 0.707 0.897Q0.694 0.901 0.680 0.903Q0.677 0.905 0.675 0.908Q0.674 0.910 0.670 0.915Q0.670 0.949 0.667 0.951Q0.665 0.953 0.660 0.957Q0.643 0.958 0.627 0.966Q0.611 0.975 0.592 0.975H0.591ZM0.591 0.954Q0.588 0.936 0.591 0.919Q0.593 0.901 0.586 0.884Q0.576 0.882 0.566 0.879Q0.556 0.876 0.546 0.871L0.541 0.873Q0.542 0.891 0.541 0.908Q0.540 0.925 0.543 0.940Q0.555 0.945 0.566 0.949Q0.576 0.953 0.586 0.957ZM0.526 0.932Q0.523 0.915 0.525 0.898Q0.527 0.882 0.523 0.866Q0.501 0.856 0.479 0.849L0.475 0.852Q0.476 0.870 0.475 0.886Q0.474 0.902 0.476 0.918Q0.488 0.924 0.499 0.926Q0.510 0.928 0.520 0.935ZM0.460 0.912Q0.457 0.894 0.459 0.877Q0.461 0.859 0.457 0.842Q0.444 0.839 0.432 0.834Q0.421 0.828 0.410 0.828V0.894Q0.419 0.901 0.431 0.904Q0.443 0.907 0.453 0.914ZM0.393 0.888V0.828L0.389 0.820Q0.378 0.816 0.367 0.812Q0.357 0.809 0.348 0.806L0.343 0.807V0.871Q0.348 0.877 0.351 0.878Q0.358 0.879 0.367 0.883Q0.377 0.886 0.389 0.891ZM0.658 0.889Q0.655 0.872 0.658 0.854Q0.660 0.836 0.654 0.820Q0.641 0.818 0.630 0.812Q0.619 0.806 0.607 0.806Q0.610 0.823 0.608 0.842Q0.606 0.861 0.611 0.875Q0.621 0.881 0.632 0.883Q0.642 0.884 0.651 0.891ZM0.329 0.867Q0.326 0.850 0.329 0.832Q0.331 0.814 0.324 0.798Q0.314 0.793 0.303 0.791Q0.292 0.789 0.284 0.784L0.276 0.786V0.849Q0.280 0.854 0.285 0.856Q0.294 0.857 0.303 0.860Q0.313 0.864 0.323 0.869ZM0.591 0.867Q0.588 0.850 0.590 0.832Q0.592 0.814 0.588 0.798Q0.577 0.796 0.566 0.791Q0.554 0.787 0.547 0.784L0.541 0.786V0.849L0.546 0.855Q0.556 0.860 0.567 0.862Q0.577 0.864 0.586 0.869ZM0.526 0.843Q0.523 0.827 0.523 0.826Q0.517 0.828 0.510 0.831Q0.503 0.834 0.495 0.837Q0.502 0.839 0.508 0.842Q0.514 0.845 0.520 0.847ZM0.468 0.829Q0.475 0.822 0.487 0.822Q0.500 0.821 0.506 0.813Q0.495 0.812 0.484 0.807Q0.474 0.803 0.465 0.803Q0.455 0.808 0.446 0.810Q0.436 0.812 0.429 0.815Q0.439 0.821 0.449 0.822Q0.458 0.823 0.468 0.829ZM0.393 0.801V0.738L0.387 0.730Q0.375 0.729 0.363 0.724Q0.352 0.718 0.343 0.718V0.782L0.348 0.789Q0.359 0.793 0.369 0.795Q0.379 0.798 0.389 0.804ZM0.526 0.800Q0.523 0.748 0.526 0.700Q0.528 0.651 0.521 0.600Q0.511 0.596 0.501 0.593Q0.490 0.590 0.481 0.585L0.475 0.587V0.784Q0.485 0.792 0.498 0.795Q0.511 0.798 0.521 0.804ZM0.658 0.801Q0.655 0.784 0.658 0.766Q0.661 0.748 0.653 0.732Q0.639 0.727 0.629 0.724Q0.618 0.721 0.612 0.718L0.607 0.721Q0.608 0.738 0.607 0.755Q0.606 0.771 0.609 0.787Q0.631 0.797 0.653 0.804ZM0.329 0.778Q0.326 0.761 0.329 0.743Q0.331 0.726 0.324 0.708Q0.311 0.706 0.298 0.701Q0.286 0.696 0.276 0.696V0.760L0.282 0.766Q0.292 0.770 0.302 0.773Q0.313 0.776 0.323 0.782ZM0.591 0.778Q0.588 0.761 0.591 0.743Q0.593 0.726 0.586 0.708Q0.576 0.704 0.566 0.703Q0.555 0.701 0.546 0.695L0.541 0.698Q0.542 0.716 0.541 0.733Q0.540 0.749 0.543 0.764Q0.555 0.770 0.566 0.773Q0.576 0.776 0.586 0.782ZM0.393 0.712V0.652L0.389 0.644Q0.378 0.641 0.367 0.637Q0.357 0.633 0.348 0.630L0.343 0.632V0.695Q0.348 0.701 0.351 0.703Q0.362 0.704 0.370 0.708Q0.379 0.712 0.389 0.715ZM0.658 0.713Q0.655 0.696 0.658 0.679Q0.660 0.662 0.654 0.644Q0.641 0.642 0.630 0.636Q0.619 0.630 0.607 0.630V0.696Q0.617 0.703 0.629 0.706Q0.641 0.708 0.651 0.715ZM0.329 0.688V0.628L0.324 0.622Q0.314 0.618 0.303 0.615Q0.292 0.612 0.284 0.608L0.276 0.610V0.673Q0.279 0.679 0.285 0.681Q0.304 0.683 0.323 0.693ZM0.591 0.690V0.630L0.586 0.622Q0.576 0.619 0.566 0.615Q0.555 0.611 0.546 0.608L0.541 0.610V0.673Q0.544 0.679 0.549 0.681Q0.560 0.682 0.586 0.693ZM0.666 0.632Q0.673 0.625 0.685 0.624Q0.697 0.623 0.703 0.616Q0.693 0.615 0.682 0.610Q0.672 0.605 0.663 0.605Q0.653 0.610 0.644 0.612Q0.634 0.614 0.626 0.618Q0.637 0.623 0.647 0.624Q0.657 0.626 0.666 0.632ZM0.393 0.627V0.564L0.389 0.556Q0.378 0.552 0.367 0.550Q0.357 0.548 0.348 0.542L0.343 0.545V0.608Q0.354 0.617 0.367 0.619Q0.380 0.622 0.390 0.628ZM0.329 0.602Q0.326 0.584 0.328 0.568Q0.330 0.552 0.326 0.535Q0.314 0.530 0.303 0.528Q0.292 0.525 0.282 0.519L0.276 0.522V0.585Q0.287 0.595 0.300 0.598Q0.314 0.601 0.324 0.607ZM0.591 0.603V0.540L0.584 0.533Q0.573 0.532 0.561 0.526Q0.550 0.521 0.541 0.521V0.584L0.546 0.590Q0.556 0.596 0.567 0.598Q0.577 0.601 0.586 0.607ZM0.526 0.581Q0.523 0.563 0.526 0.546Q0.528 0.528 0.521 0.512Q0.508 0.509 0.496 0.504Q0.484 0.499 0.475 0.499V0.562L0.479 0.568Q0.490 0.573 0.500 0.576Q0.510 0.578 0.520 0.584ZM0.460 0.559V0.499L0.455 0.491Q0.446 0.487 0.436 0.483Q0.426 0.480 0.415 0.477L0.410 0.479V0.542L0.415 0.548Q0.425 0.550 0.435 0.554Q0.446 0.559 0.455 0.562ZM0.393 0.537V0.477L0.389 0.470Q0.378 0.465 0.367 0.462Q0.357 0.458 0.348 0.453L0.343 0.456V0.519L0.348 0.526Q0.359 0.527 0.369 0.532Q0.379 0.537 0.389 0.540ZM0.658 0.535Q0.655 0.517 0.658 0.502Q0.660 0.486 0.654 0.470Q0.641 0.466 0.630 0.460Q0.619 0.454 0.607 0.454Q0.610 0.473 0.608 0.490Q0.606 0.508 0.611 0.524Q0.621 0.528 0.632 0.532Q0.642 0.535 0.651 0.540ZM0.329 0.513V0.453L0.324 0.447Q0.314 0.442 0.303 0.439Q0.292 0.436 0.284 0.432L0.276 0.434Q0.277 0.452 0.276 0.469Q0.275 0.486 0.278 0.501L0.285 0.505Q0.302 0.508 0.323 0.517ZM0.591 0.514V0.454L0.586 0.447Q0.576 0.443 0.566 0.439Q0.555 0.435 0.546 0.432L0.541 0.434V0.497Q0.545 0.504 0.549 0.505Q0.559 0.507 0.568 0.511Q0.577 0.514 0.586 0.517ZM0.520 0.496Q0.528 0.497 0.527 0.490Q0.525 0.484 0.526 0.482L0.521 0.475Q0.514 0.479 0.508 0.481Q0.501 0.484 0.495 0.487Q0.502 0.488 0.508 0.491Q0.514 0.494 0.520 0.496ZM0.468 0.479Q0.475 0.473 0.485 0.471Q0.495 0.468 0.503 0.465L0.506 0.462Q0.487 0.456 0.466 0.454Q0.446 0.451 0.430 0.465Q0.440 0.467 0.449 0.471Q0.458 0.475 0.468 0.479ZM0.526 0.448Q0.523 0.396 0.526 0.349Q0.528 0.301 0.521 0.249Q0.511 0.245 0.501 0.242Q0.490 0.239 0.481 0.235L0.475 0.237V0.432Q0.484 0.442 0.498 0.444Q0.513 0.446 0.521 0.453ZM0.393 0.449Q0.391 0.432 0.393 0.415Q0.395 0.397 0.390 0.380Q0.380 0.378 0.368 0.373Q0.357 0.369 0.350 0.366L0.343 0.368V0.431L0.348 0.437Q0.359 0.442 0.369 0.445Q0.379 0.447 0.389 0.451ZM0.658 0.448Q0.655 0.431 0.658 0.415Q0.660 0.398 0.654 0.382Q0.643 0.379 0.634 0.374Q0.624 0.370 0.615 0.368H0.607V0.434Q0.617 0.440 0.629 0.443Q0.641 0.446 0.651 0.451ZM0.329 0.426Q0.326 0.409 0.328 0.392Q0.330 0.376 0.326 0.360Q0.314 0.354 0.303 0.352Q0.292 0.350 0.282 0.343L0.276 0.348V0.411Q0.287 0.419 0.300 0.422Q0.314 0.425 0.324 0.431ZM0.591 0.429V0.366L0.586 0.359Q0.576 0.354 0.566 0.352Q0.555 0.350 0.546 0.343L0.541 0.348V0.411Q0.551 0.419 0.564 0.422Q0.577 0.425 0.588 0.431ZM0.393 0.362Q0.392 0.343 0.393 0.327Q0.394 0.311 0.392 0.295Q0.380 0.289 0.369 0.286Q0.359 0.284 0.348 0.277L0.343 0.280Q0.345 0.299 0.343 0.316Q0.342 0.332 0.345 0.348Q0.368 0.355 0.389 0.365ZM0.658 0.362V0.301L0.653 0.294Q0.642 0.289 0.632 0.285Q0.622 0.282 0.612 0.279L0.607 0.280V0.343L0.612 0.351Q0.622 0.352 0.633 0.357Q0.643 0.362 0.653 0.365ZM0.329 0.339Q0.326 0.322 0.328 0.306Q0.330 0.290 0.326 0.272Q0.314 0.268 0.303 0.264Q0.292 0.260 0.282 0.256L0.276 0.259Q0.277 0.276 0.276 0.293Q0.275 0.310 0.278 0.325Q0.290 0.331 0.301 0.333Q0.312 0.335 0.323 0.342ZM0.591 0.339V0.279L0.586 0.271Q0.571 0.266 0.561 0.262Q0.551 0.258 0.546 0.256L0.541 0.259V0.322L0.546 0.328Q0.556 0.329 0.567 0.334Q0.577 0.339 0.586 0.342ZM0.666 0.280Q0.673 0.275 0.682 0.273Q0.692 0.271 0.700 0.268L0.703 0.265Q0.685 0.259 0.665 0.257Q0.644 0.254 0.628 0.268Q0.638 0.269 0.647 0.273Q0.657 0.277 0.666 0.280ZM0.393 0.274Q0.391 0.257 0.393 0.239Q0.395 0.222 0.390 0.205Q0.377 0.202 0.366 0.197Q0.355 0.192 0.343 0.192V0.256L0.348 0.262Q0.359 0.266 0.369 0.268Q0.379 0.270 0.389 0.276ZM0.329 0.251Q0.326 0.233 0.328 0.217Q0.330 0.201 0.326 0.184Q0.314 0.179 0.303 0.176Q0.292 0.174 0.282 0.169L0.276 0.172V0.235Q0.286 0.245 0.301 0.247Q0.316 0.249 0.324 0.256ZM0.591 0.252Q0.588 0.235 0.590 0.217Q0.592 0.199 0.588 0.183Q0.577 0.181 0.566 0.176Q0.554 0.172 0.547 0.169L0.541 0.171V0.234L0.546 0.240Q0.556 0.245 0.567 0.247Q0.577 0.249 0.586 0.254ZM0.526 0.229Q0.523 0.211 0.525 0.195Q0.527 0.179 0.523 0.163Q0.511 0.157 0.501 0.154Q0.490 0.152 0.479 0.146L0.475 0.149V0.212Q0.485 0.222 0.498 0.225Q0.511 0.228 0.521 0.234ZM0.460 0.208Q0.457 0.190 0.460 0.172Q0.462 0.154 0.455 0.138Q0.444 0.135 0.434 0.132Q0.424 0.128 0.415 0.126L0.410 0.128Q0.411 0.145 0.410 0.162Q0.409 0.179 0.411 0.194Q0.434 0.201 0.455 0.211ZM0.393 0.186Q0.391 0.169 0.394 0.150Q0.396 0.132 0.389 0.116Q0.378 0.114 0.368 0.111Q0.358 0.108 0.348 0.103L0.343 0.106Q0.345 0.123 0.343 0.140Q0.342 0.157 0.345 0.172Q0.367 0.182 0.389 0.189ZM0.598 0.171Q0.608 0.168 0.618 0.163Q0.629 0.159 0.639 0.155Q0.628 0.153 0.617 0.150Q0.607 0.146 0.598 0.143Q0.585 0.149 0.559 0.155Q0.570 0.160 0.579 0.163Q0.587 0.167 0.598 0.171ZM0.329 0.163Q0.326 0.144 0.328 0.129Q0.330 0.113 0.326 0.096Q0.314 0.092 0.303 0.089Q0.292 0.085 0.282 0.080L0.276 0.083Q0.277 0.101 0.276 0.117Q0.275 0.134 0.278 0.149Q0.290 0.155 0.301 0.158Q0.312 0.161 0.323 0.167ZM0.533 0.149Q0.541 0.143 0.551 0.141Q0.562 0.139 0.571 0.133Q0.560 0.129 0.550 0.127Q0.541 0.125 0.532 0.121Q0.521 0.126 0.511 0.129Q0.501 0.132 0.495 0.135Q0.502 0.137 0.511 0.141Q0.520 0.144 0.533 0.149ZM0.470 0.126Q0.479 0.121 0.488 0.119Q0.498 0.117 0.504 0.112Q0.464 0.093 0.427 0.113Q0.449 0.118 0.468 0.128ZM0.401 0.106Q0.410 0.099 0.421 0.097Q0.432 0.095 0.441 0.090Q0.432 0.086 0.424 0.085Q0.416 0.083 0.409 0.078Q0.397 0.080 0.385 0.083Q0.372 0.085 0.364 0.092Q0.372 0.093 0.382 0.097Q0.391 0.101 0.401 0.106ZM0.335 0.083Q0.358 0.073 0.375 0.069Q0.337 0.050 0.298 0.069Q0.306 0.071 0.316 0.075Q0.325 0.078 0.335 0.083Z" fill="black"/>
</svg>
