<svg xmlns="http://www.w3.org/2000/svg" viewBox="0 0 1 1" preserveAspectRatio="xMidYMid meet">
  <path d="M0.393 0.976Q0.377 0.968 0.362 0.964Q0.346 0.959 0.329 0.952Q0.328 0.941 0.329 0.930Q0.330 0.919 0.325 0.908Q0.309 0.900 0.294 0.897Q0.279 0.893 0.264 0.885Q0.261 0.729 0.262 0.573Q0.264 0.418 0.262 0.259Q0.275 0.251 0.291 0.246Q0.308 0.241 0.325 0.235L0.329 0.229V0.148L0.333 0.144Q0.411 0.129 0.495 0.087Q0.579 0.046 0.661 0.074Q0.668 0.079 0.670 0.080Q0.672 0.089 0.671 0.099Q0.670 0.108 0.672 0.117L0.676 0.123Q0.690 0.129 0.706 0.134Q0.722 0.139 0.737 0.145Q0.739 0.191 0.738 0.237Q0.737 0.283 0.738 0.328L0.732 0.335Q0.706 0.342 0.680 0.350Q0.655 0.358 0.629 0.368Q0.581 0.387 0.530 0.355Q0.527 0.323 0.529 0.292Q0.531 0.261 0.526 0.229Q0.497 0.235 0.476 0.244Q0.471 0.384 0.473 0.521Q0.475 0.659 0.472 0.799L0.477 0.804Q0.487 0.803 0.498 0.798Q0.508 0.793 0.519 0.791Q0.522 0.790 0.523 0.788Q0.525 0.786 0.529 0.780V0.614L0.532 0.610Q0.557 0.602 0.582 0.593Q0.607 0.585 0.632 0.575Q0.684 0.556 0.735 0.586L0.738 0.591V0.773Q0.739 0.772 0.727 0.780Q0.723 0.778 0.717 0.783Q0.711 0.787 0.706 0.787Q0.694 0.791 0.685 0.793Q0.676 0.795 0.672 0.802V0.881L0.668 0.886Q0.600 0.910 0.532 0.933Q0.465 0.957 0.395 0.976H0.393ZM0.393 0.955Q0.392 0.940 0.393 0.925Q0.394 0.910 0.391 0.894H0.387Q0.381 0.898 0.377 0.898Q0.374 0.898 0.370 0.900Q0.352 0.903 0.342 0.913Q0.343 0.920 0.342 0.927Q0.341 0.934 0.344 0.941Q0.355 0.946 0.366 0.950Q0.377 0.954 0.388 0.958ZM0.328 0.888Q0.325 0.871 0.327 0.855Q0.329 0.838 0.325 0.821Q0.312 0.817 0.301 0.813Q0.290 0.809 0.280 0.804L0.275 0.807V0.871L0.280 0.877Q0.303 0.883 0.321 0.891ZM0.479 0.847Q0.486 0.842 0.494 0.841Q0.502 0.839 0.506 0.835Q0.497 0.833 0.489 0.830Q0.481 0.827 0.474 0.829Q0.475 0.834 0.474 0.839Q0.473 0.843 0.476 0.847ZM0.533 0.829Q0.540 0.823 0.551 0.822Q0.562 0.820 0.571 0.815Q0.562 0.809 0.555 0.808Q0.547 0.807 0.539 0.802Q0.521 0.802 0.494 0.816Q0.515 0.819 0.533 0.829ZM0.328 0.801Q0.325 0.783 0.327 0.765Q0.330 0.747 0.324 0.731Q0.309 0.728 0.298 0.723Q0.287 0.717 0.275 0.717V0.782L0.280 0.788Q0.290 0.793 0.301 0.795Q0.311 0.798 0.321 0.802ZM0.592 0.801Q0.590 0.783 0.592 0.765Q0.594 0.747 0.589 0.731Q0.579 0.728 0.566 0.723Q0.554 0.718 0.547 0.716L0.541 0.717V0.782L0.546 0.788Q0.556 0.793 0.567 0.795Q0.578 0.798 0.588 0.802ZM0.328 0.711V0.650L0.324 0.642Q0.309 0.639 0.297 0.634Q0.284 0.628 0.275 0.628V0.692L0.280 0.698Q0.290 0.703 0.301 0.706Q0.311 0.708 0.321 0.714ZM0.592 0.711Q0.591 0.693 0.592 0.677Q0.593 0.661 0.591 0.644Q0.579 0.638 0.567 0.635Q0.556 0.632 0.546 0.628L0.541 0.630V0.694L0.546 0.700Q0.556 0.702 0.567 0.707Q0.578 0.711 0.588 0.714ZM0.600 0.630Q0.608 0.623 0.619 0.621Q0.630 0.619 0.641 0.616Q0.630 0.612 0.623 0.610Q0.615 0.608 0.606 0.603Q0.596 0.605 0.583 0.607Q0.570 0.610 0.561 0.617Q0.581 0.620 0.600 0.630ZM0.328 0.623V0.560Q0.322 0.554 0.319 0.552Q0.309 0.551 0.299 0.546Q0.288 0.542 0.282 0.539L0.275 0.541V0.605L0.280 0.611Q0.290 0.615 0.301 0.618Q0.311 0.621 0.321 0.625ZM0.665 0.608Q0.676 0.602 0.686 0.600Q0.695 0.598 0.706 0.593Q0.667 0.573 0.627 0.593Q0.637 0.598 0.647 0.600Q0.657 0.602 0.665 0.608ZM0.328 0.535Q0.326 0.516 0.327 0.500Q0.328 0.484 0.326 0.467Q0.310 0.460 0.298 0.456Q0.285 0.452 0.275 0.451V0.515L0.280 0.521Q0.290 0.526 0.301 0.529Q0.311 0.532 0.321 0.538ZM0.328 0.447Q0.325 0.429 0.327 0.411Q0.330 0.393 0.324 0.377Q0.312 0.372 0.302 0.369Q0.291 0.367 0.282 0.363L0.275 0.364V0.428Q0.277 0.430 0.279 0.432Q0.281 0.434 0.283 0.436Q0.292 0.437 0.302 0.441Q0.312 0.445 0.321 0.448ZM0.328 0.358V0.294Q0.322 0.288 0.319 0.286Q0.307 0.285 0.296 0.279Q0.284 0.274 0.275 0.274V0.338L0.280 0.345Q0.290 0.350 0.301 0.352Q0.311 0.355 0.321 0.361ZM0.592 0.358Q0.590 0.339 0.592 0.322Q0.595 0.304 0.588 0.288Q0.577 0.284 0.566 0.281Q0.555 0.278 0.546 0.273L0.541 0.276Q0.542 0.295 0.541 0.311Q0.540 0.328 0.543 0.343Q0.566 0.351 0.588 0.361ZM0.336 0.274Q0.346 0.268 0.355 0.267Q0.364 0.265 0.373 0.262L0.372 0.259Q0.355 0.255 0.339 0.252Q0.324 0.248 0.308 0.256Q0.304 0.259 0.300 0.260Q0.296 0.260 0.296 0.263Q0.306 0.263 0.315 0.268Q0.325 0.272 0.334 0.276ZM0.592 0.268Q0.591 0.253 0.592 0.238Q0.593 0.223 0.591 0.207H0.586Q0.574 0.212 0.561 0.216Q0.549 0.221 0.541 0.225V0.251Q0.546 0.258 0.549 0.259Q0.559 0.260 0.568 0.264Q0.578 0.268 0.588 0.271ZM0.393 0.246V0.186L0.388 0.177Q0.377 0.174 0.367 0.170Q0.356 0.166 0.347 0.163L0.342 0.165V0.229L0.347 0.235Q0.357 0.240 0.368 0.241Q0.378 0.243 0.388 0.249ZM0.401 0.165Q0.410 0.159 0.421 0.156Q0.431 0.153 0.439 0.148Q0.396 0.133 0.361 0.150Q0.371 0.155 0.381 0.158Q0.391 0.160 0.401 0.165ZM0.676 0.162Q0.684 0.159 0.691 0.156Q0.697 0.153 0.704 0.150Q0.697 0.147 0.691 0.145Q0.684 0.143 0.680 0.140L0.673 0.142Q0.674 0.147 0.673 0.153Q0.672 0.159 0.676 0.162ZM0.466 0.142Q0.484 0.136 0.506 0.128Q0.463 0.112 0.428 0.128Q0.438 0.132 0.447 0.136Q0.457 0.139 0.466 0.142ZM0.533 0.120Q0.542 0.114 0.553 0.112Q0.563 0.111 0.571 0.104Q0.561 0.103 0.551 0.099Q0.541 0.095 0.533 0.092Q0.515 0.103 0.497 0.104L0.494 0.108Q0.505 0.109 0.515 0.113Q0.524 0.118 0.533 0.120ZM0.600 0.098Q0.609 0.091 0.620 0.090Q0.630 0.089 0.639 0.082Q0.614 0.077 0.606 0.072Q0.581 0.075 0.560 0.085Q0.575 0.088 0.599 0.098Z" fill="black"/>
</svg>
