<svg xmlns="http://www.w3.org/2000/svg" viewBox="0 0 1 1" preserveAspectRatio="xMidYMid meet">
  <path d="M0.591 0.977Q0.526 0.949 0.460 0.930Q0.395 0.912 0.328 0.884Q0.324 0.863 0.326 0.841Q0.329 0.819 0.323 0.796Q0.308 0.789 0.293 0.786Q0.278 0.783 0.262 0.773Q0.259 0.617 0.260 0.459Q0.262 0.302 0.260 0.142L0.263 0.137Q0.277 0.135 0.290 0.129Q0.303 0.123 0.319 0.120Q0.320 0.119 0.322 0.117Q0.324 0.116 0.326 0.112V0.076L0.330 0.071Q0.413 0.034 0.498 0.077Q0.586 0.122 0.670 0.137L0.673 0.142V0.223Q0.673 0.225 0.684 0.233Q0.701 0.237 0.713 0.240Q0.725 0.244 0.737 0.250L0.740 0.255V0.438Q0.688 0.472 0.635 0.452Q0.608 0.442 0.582 0.433Q0.555 0.424 0.529 0.416Q0.526 0.373 0.527 0.330Q0.528 0.287 0.527 0.243L0.522 0.237Q0.512 0.234 0.499 0.230Q0.486 0.226 0.474 0.223Q0.472 0.364 0.472 0.504Q0.472 0.643 0.475 0.785Q0.496 0.796 0.524 0.801L0.527 0.796V0.677Q0.545 0.664 0.565 0.659Q0.585 0.654 0.606 0.657Q0.627 0.659 0.647 0.665Q0.668 0.672 0.690 0.679Q0.699 0.684 0.718 0.688Q0.729 0.692 0.735 0.696L0.740 0.703V0.883Q0.727 0.892 0.710 0.896Q0.694 0.899 0.678 0.908L0.673 0.914V0.949L0.670 0.954Q0.652 0.958 0.632 0.966Q0.612 0.974 0.593 0.977H0.591ZM0.593 0.955Q0.590 0.937 0.592 0.919Q0.595 0.901 0.588 0.884Q0.577 0.882 0.566 0.878Q0.555 0.874 0.546 0.872L0.541 0.873Q0.542 0.891 0.541 0.908Q0.540 0.925 0.543 0.940Q0.555 0.946 0.566 0.950Q0.577 0.954 0.588 0.958ZM0.526 0.933Q0.523 0.915 0.525 0.897Q0.528 0.879 0.521 0.862Q0.510 0.860 0.499 0.856Q0.488 0.852 0.479 0.850L0.474 0.852Q0.475 0.869 0.474 0.886Q0.472 0.902 0.475 0.918Q0.487 0.923 0.498 0.927Q0.510 0.932 0.521 0.936ZM0.459 0.912Q0.457 0.894 0.459 0.876Q0.461 0.858 0.456 0.841Q0.445 0.836 0.433 0.833Q0.422 0.830 0.411 0.825L0.407 0.828Q0.407 0.847 0.406 0.863Q0.405 0.880 0.408 0.895Q0.420 0.901 0.431 0.904Q0.443 0.908 0.453 0.914ZM0.392 0.886Q0.389 0.868 0.391 0.852Q0.393 0.835 0.389 0.818Q0.376 0.816 0.364 0.810Q0.352 0.804 0.341 0.804Q0.343 0.822 0.341 0.840Q0.339 0.858 0.344 0.875Q0.354 0.879 0.365 0.882Q0.376 0.885 0.386 0.891ZM0.661 0.887Q0.658 0.870 0.660 0.854Q0.661 0.837 0.657 0.820Q0.645 0.816 0.634 0.812Q0.622 0.808 0.612 0.803L0.607 0.806V0.870L0.612 0.876Q0.637 0.882 0.654 0.891ZM0.593 0.866Q0.591 0.848 0.592 0.830Q0.593 0.813 0.591 0.798Q0.579 0.792 0.568 0.789Q0.556 0.787 0.546 0.782L0.541 0.784V0.852Q0.553 0.857 0.565 0.859Q0.576 0.862 0.587 0.869ZM0.526 0.842Q0.524 0.838 0.525 0.834Q0.526 0.830 0.524 0.827H0.519Q0.514 0.830 0.510 0.830Q0.507 0.830 0.503 0.832L0.491 0.836Q0.498 0.838 0.506 0.840Q0.514 0.842 0.521 0.847ZM0.466 0.828Q0.474 0.822 0.486 0.820Q0.497 0.817 0.507 0.814Q0.496 0.809 0.488 0.807Q0.480 0.806 0.472 0.801Q0.454 0.801 0.427 0.815Q0.445 0.818 0.466 0.828ZM0.392 0.798Q0.389 0.780 0.391 0.764Q0.393 0.747 0.389 0.730Q0.378 0.727 0.368 0.723Q0.358 0.718 0.348 0.715H0.341V0.784Q0.350 0.789 0.362 0.792Q0.374 0.795 0.386 0.801ZM0.661 0.800Q0.658 0.782 0.660 0.764Q0.662 0.746 0.656 0.729Q0.642 0.727 0.631 0.721Q0.619 0.715 0.607 0.715V0.780L0.612 0.787Q0.622 0.792 0.633 0.794Q0.644 0.797 0.654 0.801ZM0.325 0.778Q0.322 0.761 0.324 0.743Q0.326 0.725 0.322 0.707Q0.288 0.694 0.273 0.693V0.758L0.278 0.764Q0.288 0.768 0.299 0.771Q0.309 0.774 0.320 0.780ZM0.593 0.776V0.712L0.588 0.706Q0.560 0.696 0.546 0.693L0.541 0.695Q0.542 0.713 0.541 0.730Q0.540 0.747 0.543 0.762Q0.555 0.768 0.566 0.771Q0.577 0.774 0.588 0.780ZM0.667 0.715Q0.676 0.709 0.687 0.708Q0.698 0.707 0.705 0.700Q0.696 0.699 0.685 0.695Q0.675 0.690 0.667 0.688Q0.657 0.694 0.645 0.696Q0.634 0.698 0.628 0.703Q0.639 0.704 0.648 0.709Q0.657 0.713 0.667 0.715ZM0.392 0.710Q0.389 0.693 0.391 0.675Q0.393 0.658 0.389 0.640Q0.376 0.637 0.364 0.632Q0.352 0.627 0.341 0.626V0.693Q0.350 0.699 0.362 0.702Q0.374 0.705 0.386 0.712ZM0.602 0.693Q0.612 0.689 0.621 0.686Q0.630 0.684 0.638 0.679Q0.628 0.675 0.618 0.673Q0.609 0.671 0.600 0.666Q0.590 0.671 0.579 0.673Q0.568 0.676 0.560 0.681Q0.572 0.682 0.581 0.686Q0.590 0.691 0.599 0.693ZM0.325 0.687Q0.322 0.669 0.324 0.651Q0.327 0.633 0.320 0.617Q0.308 0.615 0.298 0.610Q0.287 0.605 0.278 0.603L0.273 0.605V0.669L0.278 0.676Q0.288 0.677 0.299 0.682Q0.309 0.687 0.320 0.690ZM0.392 0.618V0.557L0.387 0.551Q0.377 0.546 0.366 0.543Q0.355 0.541 0.345 0.536L0.341 0.538V0.605Q0.350 0.613 0.362 0.614Q0.374 0.616 0.386 0.623ZM0.325 0.598Q0.322 0.580 0.324 0.562Q0.327 0.545 0.320 0.527Q0.308 0.523 0.298 0.521Q0.287 0.518 0.278 0.513L0.273 0.516V0.580Q0.282 0.588 0.295 0.592Q0.307 0.596 0.319 0.600ZM0.392 0.532Q0.389 0.513 0.391 0.495Q0.394 0.478 0.387 0.460Q0.377 0.458 0.366 0.454Q0.355 0.450 0.345 0.448L0.341 0.449Q0.342 0.467 0.341 0.484Q0.340 0.501 0.342 0.516Q0.354 0.521 0.365 0.525Q0.377 0.529 0.387 0.535ZM0.325 0.509Q0.323 0.491 0.324 0.474Q0.325 0.457 0.323 0.441Q0.310 0.435 0.299 0.432Q0.288 0.429 0.278 0.425L0.273 0.427V0.491L0.278 0.497Q0.288 0.499 0.299 0.504Q0.309 0.508 0.320 0.512ZM0.392 0.439V0.378L0.387 0.372Q0.377 0.367 0.366 0.364Q0.355 0.362 0.345 0.358L0.341 0.360V0.427Q0.350 0.434 0.362 0.435Q0.374 0.437 0.386 0.444ZM0.661 0.442Q0.658 0.425 0.660 0.407Q0.662 0.388 0.656 0.372Q0.645 0.367 0.634 0.365Q0.623 0.363 0.613 0.358L0.607 0.360V0.424Q0.611 0.430 0.615 0.431Q0.622 0.432 0.632 0.435Q0.641 0.439 0.654 0.444ZM0.325 0.419Q0.322 0.400 0.324 0.384Q0.326 0.368 0.322 0.351Q0.307 0.347 0.296 0.341Q0.285 0.336 0.273 0.336V0.400L0.278 0.408Q0.288 0.413 0.299 0.414Q0.309 0.416 0.320 0.422ZM0.593 0.419Q0.590 0.400 0.592 0.384Q0.594 0.368 0.590 0.351Q0.577 0.348 0.565 0.341Q0.553 0.335 0.541 0.336V0.404Q0.551 0.412 0.564 0.413Q0.576 0.415 0.587 0.422ZM0.392 0.353Q0.389 0.334 0.391 0.317Q0.394 0.300 0.387 0.282Q0.377 0.280 0.366 0.276Q0.355 0.271 0.345 0.269L0.341 0.271Q0.342 0.289 0.341 0.305Q0.340 0.322 0.342 0.338Q0.354 0.343 0.365 0.348Q0.377 0.352 0.387 0.356ZM0.661 0.353V0.289Q0.656 0.282 0.652 0.280Q0.640 0.279 0.628 0.274Q0.616 0.269 0.607 0.269V0.333L0.612 0.340Q0.622 0.345 0.633 0.347Q0.644 0.350 0.654 0.356ZM0.325 0.330Q0.322 0.312 0.324 0.294Q0.327 0.276 0.320 0.259Q0.308 0.257 0.298 0.253Q0.287 0.249 0.278 0.247L0.273 0.248Q0.275 0.266 0.273 0.284Q0.272 0.301 0.275 0.316Q0.297 0.326 0.320 0.333ZM0.593 0.331Q0.590 0.314 0.592 0.296Q0.594 0.278 0.590 0.261Q0.577 0.258 0.565 0.253Q0.553 0.248 0.541 0.247V0.314Q0.551 0.320 0.564 0.323Q0.576 0.326 0.587 0.333ZM0.668 0.269Q0.679 0.263 0.688 0.262Q0.697 0.260 0.707 0.256L0.705 0.253Q0.689 0.250 0.672 0.246Q0.656 0.243 0.641 0.250Q0.638 0.254 0.633 0.255Q0.628 0.255 0.628 0.258Q0.642 0.258 0.667 0.271ZM0.392 0.262Q0.391 0.245 0.392 0.228Q0.393 0.211 0.390 0.195Q0.379 0.189 0.367 0.186Q0.356 0.184 0.345 0.179L0.341 0.181V0.248Q0.350 0.256 0.362 0.258Q0.374 0.259 0.386 0.266ZM0.325 0.240V0.179L0.320 0.172Q0.308 0.168 0.298 0.164Q0.287 0.160 0.278 0.157L0.273 0.159V0.223L0.278 0.229Q0.288 0.234 0.299 0.236Q0.309 0.238 0.320 0.243ZM0.593 0.238V0.178L0.588 0.172Q0.577 0.167 0.566 0.164Q0.555 0.161 0.546 0.157L0.541 0.159V0.226Q0.551 0.234 0.564 0.235Q0.576 0.237 0.587 0.243ZM0.526 0.220V0.154L0.519 0.147Q0.507 0.146 0.495 0.140Q0.484 0.134 0.474 0.136V0.200L0.479 0.206Q0.489 0.211 0.500 0.213Q0.511 0.215 0.521 0.221ZM0.459 0.196Q0.457 0.179 0.459 0.161Q0.462 0.143 0.455 0.126Q0.442 0.124 0.430 0.118Q0.418 0.113 0.407 0.113V0.178L0.411 0.184Q0.422 0.189 0.433 0.192Q0.444 0.194 0.453 0.198ZM0.392 0.174Q0.389 0.157 0.391 0.139Q0.394 0.121 0.387 0.104Q0.377 0.099 0.366 0.097Q0.355 0.095 0.345 0.090L0.341 0.092Q0.342 0.111 0.341 0.128Q0.340 0.144 0.342 0.160Q0.354 0.165 0.365 0.169Q0.377 0.174 0.387 0.178ZM0.599 0.159Q0.609 0.153 0.619 0.150Q0.630 0.147 0.640 0.144Q0.629 0.138 0.618 0.137Q0.608 0.135 0.599 0.131Q0.594 0.135 0.590 0.135Q0.587 0.135 0.583 0.137Q0.577 0.136 0.571 0.140Q0.566 0.144 0.560 0.144Q0.572 0.147 0.581 0.151Q0.590 0.154 0.599 0.159ZM0.325 0.153Q0.323 0.149 0.324 0.144Q0.325 0.139 0.323 0.136L0.320 0.134Q0.312 0.137 0.305 0.140Q0.298 0.142 0.292 0.144Q0.299 0.147 0.306 0.150Q0.314 0.152 0.320 0.154ZM0.534 0.136Q0.542 0.130 0.553 0.129Q0.565 0.127 0.572 0.120Q0.527 0.105 0.493 0.121Q0.504 0.126 0.514 0.129Q0.524 0.132 0.534 0.136ZM0.466 0.113Q0.475 0.108 0.486 0.106Q0.496 0.105 0.505 0.097Q0.494 0.096 0.484 0.091Q0.474 0.087 0.466 0.086Q0.456 0.091 0.445 0.093Q0.433 0.096 0.427 0.101Q0.438 0.102 0.447 0.106Q0.456 0.111 0.466 0.113ZM0.400 0.092Q0.408 0.085 0.419 0.083Q0.429 0.081 0.439 0.078L0.438 0.075Q0.427 0.073 0.417 0.069Q0.407 0.065 0.399 0.064Q0.388 0.069 0.377 0.071Q0.365 0.073 0.358 0.078Q0.368 0.079 0.379 0.084Q0.390 0.089 0.400 0.092Z" fill="black"/>
</svg>
