<svg xmlns="http://www.w3.org/2000/svg" viewBox="0 0 1 1" preserveAspectRatio="xMidYMid meet">
  <path d="M0.326 1.000Q0.309 0.994 0.294 0.989Q0.278 0.985 0.262 0.977Q0.262 0.173 0.273 0.165Q0.355 0.153 0.435 0.110Q0.517 0.066 0.601 0.103L0.606 0.111Q0.607 0.120 0.606 0.129Q0.604 0.138 0.609 0.149Q0.623 0.157 0.639 0.160Q0.654 0.163 0.669 0.170Q0.672 0.178 0.671 0.188Q0.670 0.198 0.671 0.208Q0.674 0.217 0.681 0.218Q0.699 0.221 0.735 0.237L0.738 0.241V0.400V0.686L0.735 0.691Q0.722 0.697 0.707 0.701Q0.692 0.704 0.677 0.710Q0.675 0.710 0.671 0.720V0.796L0.668 0.801Q0.652 0.808 0.638 0.812Q0.623 0.817 0.610 0.820Q0.603 0.841 0.606 0.864Q0.608 0.886 0.606 0.909Q0.607 0.908 0.604 0.909Q0.601 0.911 0.595 0.916Q0.528 0.935 0.461 0.960Q0.395 0.985 0.327 1.000H0.326ZM0.327 0.981V0.917Q0.325 0.915 0.323 0.913Q0.322 0.911 0.320 0.909Q0.309 0.909 0.299 0.903Q0.288 0.898 0.281 0.896L0.275 0.897V0.961L0.279 0.967Q0.289 0.974 0.300 0.975Q0.310 0.977 0.321 0.983ZM0.327 0.891V0.830Q0.319 0.821 0.321 0.821Q0.308 0.819 0.296 0.814Q0.283 0.809 0.275 0.809V0.873L0.279 0.879Q0.289 0.883 0.300 0.886Q0.310 0.889 0.321 0.894ZM0.478 0.851Q0.485 0.847 0.491 0.845Q0.497 0.842 0.505 0.838Q0.495 0.836 0.488 0.833Q0.481 0.830 0.473 0.832Q0.475 0.837 0.474 0.842Q0.473 0.847 0.475 0.851ZM0.526 0.824Q0.524 0.807 0.526 0.791Q0.528 0.774 0.523 0.758Q0.512 0.753 0.501 0.749Q0.489 0.745 0.478 0.740L0.473 0.744V0.807Q0.478 0.814 0.481 0.815Q0.504 0.818 0.520 0.828ZM0.327 0.801V0.740Q0.323 0.734 0.320 0.732Q0.308 0.731 0.299 0.727Q0.290 0.723 0.281 0.720L0.275 0.722V0.785Q0.278 0.791 0.283 0.793Q0.291 0.794 0.300 0.797Q0.309 0.801 0.321 0.806ZM0.533 0.744Q0.541 0.737 0.552 0.736Q0.562 0.735 0.573 0.729Q0.527 0.707 0.494 0.731Q0.503 0.732 0.512 0.735Q0.522 0.739 0.533 0.744ZM0.327 0.714V0.651Q0.323 0.645 0.320 0.643Q0.307 0.641 0.295 0.637Q0.283 0.632 0.275 0.632V0.696L0.279 0.702Q0.289 0.706 0.300 0.709Q0.310 0.712 0.321 0.717ZM0.477 0.717Q0.489 0.713 0.500 0.708Q0.511 0.703 0.522 0.702L0.526 0.696V0.320Q0.523 0.314 0.519 0.311Q0.509 0.310 0.498 0.305Q0.487 0.301 0.480 0.299L0.473 0.301Q0.476 0.405 0.474 0.511Q0.472 0.616 0.477 0.717ZM0.592 0.714Q0.589 0.697 0.591 0.679Q0.594 0.662 0.587 0.644Q0.576 0.641 0.565 0.638Q0.554 0.634 0.545 0.632L0.540 0.633Q0.542 0.651 0.541 0.668Q0.539 0.685 0.542 0.700Q0.565 0.710 0.587 0.717ZM0.327 0.625Q0.325 0.608 0.326 0.591Q0.328 0.575 0.324 0.558Q0.311 0.554 0.300 0.550Q0.289 0.546 0.279 0.541L0.275 0.544V0.608Q0.279 0.615 0.283 0.616Q0.305 0.619 0.321 0.629ZM0.592 0.625V0.565L0.587 0.557Q0.576 0.554 0.565 0.550Q0.554 0.546 0.545 0.543L0.540 0.544V0.608Q0.543 0.614 0.548 0.616Q0.558 0.617 0.568 0.621Q0.578 0.625 0.587 0.629ZM0.327 0.536Q0.325 0.518 0.326 0.503Q0.328 0.487 0.324 0.470Q0.311 0.463 0.300 0.461Q0.289 0.459 0.279 0.453L0.275 0.456V0.520Q0.285 0.529 0.298 0.532Q0.311 0.535 0.323 0.541ZM0.592 0.540Q0.589 0.521 0.591 0.504Q0.593 0.487 0.588 0.470Q0.575 0.465 0.562 0.460Q0.550 0.455 0.540 0.455V0.518L0.545 0.525Q0.573 0.534 0.587 0.541ZM0.327 0.449Q0.325 0.431 0.326 0.415Q0.328 0.398 0.324 0.382Q0.311 0.377 0.300 0.373Q0.289 0.369 0.279 0.364L0.275 0.367V0.431L0.279 0.437Q0.290 0.439 0.300 0.443Q0.310 0.446 0.321 0.451ZM0.592 0.449V0.387L0.587 0.380Q0.576 0.377 0.565 0.372Q0.554 0.368 0.545 0.365L0.540 0.367V0.431L0.545 0.437Q0.556 0.439 0.567 0.444Q0.578 0.448 0.587 0.451ZM0.327 0.361Q0.325 0.343 0.327 0.326Q0.329 0.308 0.323 0.291Q0.308 0.289 0.297 0.284Q0.286 0.278 0.275 0.278V0.341L0.279 0.348Q0.289 0.353 0.300 0.355Q0.310 0.358 0.321 0.363ZM0.592 0.361V0.303L0.588 0.299Q0.577 0.304 0.564 0.307Q0.550 0.311 0.540 0.318V0.343Q0.550 0.351 0.562 0.354Q0.575 0.358 0.585 0.363ZM0.526 0.294V0.237L0.523 0.232Q0.509 0.237 0.497 0.240Q0.486 0.244 0.478 0.246L0.473 0.252V0.275L0.478 0.280Q0.489 0.286 0.500 0.289Q0.511 0.292 0.520 0.297ZM0.327 0.271V0.211Q0.320 0.201 0.321 0.201L0.318 0.199Q0.306 0.199 0.297 0.195Q0.288 0.191 0.279 0.187L0.275 0.190Q0.276 0.208 0.275 0.225Q0.274 0.242 0.276 0.257Q0.288 0.263 0.299 0.266Q0.309 0.269 0.321 0.275ZM0.677 0.252Q0.685 0.248 0.693 0.247Q0.700 0.246 0.703 0.241Q0.678 0.233 0.673 0.235Q0.673 0.240 0.673 0.244Q0.672 0.249 0.674 0.252ZM0.334 0.190Q0.341 0.184 0.352 0.182Q0.363 0.181 0.371 0.176Q0.363 0.170 0.355 0.169Q0.347 0.169 0.340 0.164Q0.319 0.164 0.295 0.178Q0.309 0.180 0.334 0.190ZM0.610 0.186Q0.617 0.181 0.624 0.180Q0.632 0.180 0.638 0.176Q0.632 0.173 0.625 0.171Q0.618 0.170 0.614 0.167L0.607 0.168Q0.608 0.173 0.607 0.177Q0.606 0.182 0.609 0.186ZM0.400 0.168Q0.408 0.161 0.420 0.160Q0.432 0.159 0.439 0.152Q0.427 0.151 0.417 0.146Q0.407 0.141 0.397 0.141Q0.388 0.145 0.378 0.147Q0.367 0.148 0.362 0.155Q0.371 0.157 0.382 0.161Q0.392 0.165 0.400 0.168ZM0.466 0.145Q0.476 0.139 0.486 0.138Q0.495 0.136 0.506 0.132Q0.462 0.111 0.427 0.132Q0.436 0.136 0.447 0.139Q0.457 0.141 0.466 0.145ZM0.533 0.123Q0.543 0.117 0.552 0.116Q0.560 0.115 0.571 0.109Q0.530 0.086 0.494 0.111Q0.505 0.112 0.514 0.116Q0.523 0.121 0.533 0.123Z" fill="black"/>
</svg>
