<svg xmlns="http://www.w3.org/2000/svg" viewBox="0 0 1 1" preserveAspectRatio="xMidYMid meet">
  <path d="M0.526 0.956Q0.462 0.932 0.396 0.912Q0.331 0.891 0.266 0.868Q0.263 0.667 0.264 0.467Q0.265 0.268 0.264 0.066Q0.348 0.026 0.432 0.070Q0.474 0.091 0.516 0.106Q0.558 0.121 0.600 0.129L0.605 0.135V0.212Q0.606 0.217 0.614 0.223Q0.626 0.225 0.639 0.229Q0.652 0.233 0.668 0.240L0.671 0.245V0.270V0.322L0.679 0.332Q0.697 0.337 0.710 0.341Q0.723 0.346 0.733 0.350L0.736 0.354V0.798L0.731 0.803Q0.700 0.815 0.682 0.818Q0.677 0.820 0.676 0.823Q0.674 0.825 0.671 0.830V0.865Q0.658 0.873 0.641 0.877Q0.625 0.881 0.609 0.888L0.605 0.894V0.930L0.601 0.934Q0.585 0.938 0.568 0.946Q0.550 0.954 0.532 0.955L0.526 0.956ZM0.526 0.934Q0.523 0.916 0.525 0.900Q0.527 0.884 0.523 0.868Q0.510 0.863 0.497 0.858Q0.484 0.853 0.475 0.853V0.917L0.479 0.923Q0.490 0.927 0.501 0.931Q0.512 0.935 0.521 0.939ZM0.461 0.914Q0.458 0.895 0.460 0.878Q0.463 0.861 0.456 0.843Q0.443 0.841 0.430 0.836Q0.417 0.831 0.409 0.831V0.894L0.413 0.900Q0.424 0.905 0.435 0.908Q0.445 0.911 0.454 0.917ZM0.394 0.891Q0.391 0.873 0.394 0.856Q0.397 0.838 0.390 0.822Q0.376 0.819 0.363 0.814Q0.351 0.809 0.342 0.809V0.873Q0.344 0.875 0.346 0.877Q0.348 0.879 0.350 0.880Q0.360 0.881 0.370 0.886Q0.379 0.891 0.388 0.894ZM0.327 0.869V0.809L0.323 0.801Q0.314 0.797 0.303 0.793Q0.293 0.790 0.282 0.787L0.277 0.789V0.852L0.282 0.858Q0.292 0.860 0.303 0.864Q0.314 0.869 0.323 0.873ZM0.592 0.871Q0.590 0.853 0.592 0.835Q0.594 0.818 0.589 0.801Q0.578 0.797 0.567 0.794Q0.556 0.791 0.544 0.786L0.540 0.790V0.851L0.544 0.857Q0.556 0.862 0.566 0.864Q0.577 0.867 0.586 0.873ZM0.526 0.847Q0.523 0.829 0.526 0.811Q0.528 0.794 0.521 0.777Q0.510 0.776 0.500 0.771Q0.489 0.766 0.479 0.764L0.475 0.766V0.830L0.479 0.836Q0.490 0.837 0.501 0.842Q0.512 0.848 0.521 0.851ZM0.454 0.828Q0.463 0.829 0.461 0.823Q0.459 0.817 0.461 0.814L0.456 0.808Q0.448 0.813 0.439 0.814Q0.431 0.814 0.426 0.818Q0.433 0.821 0.441 0.823Q0.449 0.825 0.454 0.828ZM0.394 0.805Q0.391 0.787 0.394 0.769Q0.397 0.751 0.390 0.735Q0.379 0.730 0.368 0.727Q0.357 0.725 0.348 0.721L0.342 0.722V0.786L0.347 0.792Q0.357 0.796 0.368 0.798Q0.379 0.800 0.388 0.806ZM0.659 0.805Q0.656 0.787 0.659 0.769Q0.661 0.751 0.654 0.735Q0.644 0.732 0.633 0.728Q0.623 0.725 0.613 0.721L0.606 0.722V0.786Q0.610 0.792 0.614 0.793Q0.621 0.794 0.630 0.797Q0.639 0.801 0.652 0.806ZM0.327 0.783Q0.326 0.764 0.328 0.746Q0.330 0.729 0.323 0.712Q0.312 0.709 0.301 0.705Q0.291 0.701 0.282 0.698L0.277 0.701V0.764Q0.286 0.773 0.298 0.775Q0.311 0.776 0.322 0.784ZM0.592 0.783Q0.590 0.764 0.592 0.746Q0.594 0.729 0.587 0.712Q0.577 0.707 0.566 0.705Q0.556 0.703 0.546 0.698L0.540 0.700V0.763Q0.543 0.768 0.548 0.770Q0.568 0.774 0.586 0.784ZM0.526 0.758Q0.524 0.754 0.525 0.750Q0.526 0.746 0.524 0.743H0.519Q0.512 0.745 0.506 0.748Q0.500 0.751 0.495 0.752Q0.501 0.754 0.507 0.757Q0.514 0.759 0.519 0.761ZM0.478 0.741Q0.490 0.734 0.503 0.731Q0.516 0.728 0.526 0.721V0.347L0.521 0.338Q0.510 0.335 0.500 0.331Q0.489 0.327 0.479 0.324L0.475 0.325Q0.477 0.430 0.475 0.535Q0.473 0.639 0.478 0.741ZM0.394 0.713Q0.391 0.696 0.393 0.680Q0.395 0.664 0.391 0.647Q0.379 0.641 0.368 0.640Q0.357 0.638 0.347 0.631L0.342 0.635V0.698Q0.352 0.706 0.365 0.709Q0.379 0.712 0.390 0.718ZM0.659 0.715V0.652Q0.654 0.645 0.651 0.644Q0.639 0.643 0.627 0.638Q0.615 0.633 0.606 0.633V0.697L0.611 0.703Q0.622 0.707 0.632 0.710Q0.643 0.712 0.652 0.718ZM0.327 0.693Q0.326 0.676 0.328 0.658Q0.330 0.640 0.323 0.623Q0.312 0.621 0.301 0.617Q0.291 0.614 0.282 0.611L0.277 0.613Q0.278 0.630 0.277 0.647Q0.276 0.664 0.279 0.679Q0.290 0.684 0.301 0.688Q0.312 0.692 0.323 0.697ZM0.592 0.693Q0.590 0.676 0.592 0.658Q0.594 0.640 0.587 0.623Q0.575 0.621 0.562 0.616Q0.549 0.611 0.540 0.611V0.675Q0.544 0.681 0.548 0.682Q0.559 0.684 0.568 0.689Q0.577 0.693 0.586 0.697ZM0.394 0.625V0.565L0.390 0.559Q0.379 0.555 0.368 0.552Q0.357 0.549 0.348 0.545L0.342 0.546V0.610Q0.345 0.616 0.350 0.618Q0.369 0.620 0.388 0.630ZM0.659 0.627Q0.656 0.609 0.658 0.592Q0.660 0.576 0.656 0.560Q0.644 0.556 0.633 0.552Q0.622 0.548 0.611 0.543L0.606 0.546Q0.607 0.564 0.606 0.581Q0.605 0.598 0.608 0.613Q0.621 0.619 0.631 0.621Q0.642 0.624 0.652 0.630ZM0.327 0.605V0.545L0.323 0.537Q0.312 0.534 0.301 0.529Q0.291 0.525 0.282 0.522L0.277 0.524V0.587L0.282 0.593Q0.292 0.599 0.303 0.600Q0.314 0.602 0.323 0.608ZM0.592 0.606Q0.590 0.588 0.592 0.571Q0.594 0.554 0.587 0.537Q0.577 0.533 0.566 0.529Q0.556 0.526 0.546 0.522L0.540 0.524V0.587L0.544 0.593Q0.556 0.598 0.566 0.600Q0.577 0.602 0.586 0.608ZM0.394 0.538Q0.391 0.520 0.393 0.505Q0.395 0.489 0.391 0.472Q0.379 0.465 0.368 0.463Q0.357 0.460 0.347 0.455L0.342 0.458Q0.344 0.477 0.342 0.493Q0.340 0.509 0.345 0.525Q0.356 0.532 0.368 0.534Q0.379 0.537 0.390 0.543ZM0.659 0.538Q0.656 0.520 0.658 0.505Q0.660 0.489 0.656 0.472Q0.644 0.465 0.633 0.463Q0.622 0.461 0.611 0.455L0.606 0.458V0.522Q0.616 0.532 0.630 0.534Q0.644 0.537 0.654 0.543ZM0.327 0.517Q0.326 0.500 0.328 0.482Q0.330 0.464 0.323 0.448Q0.310 0.443 0.300 0.440Q0.290 0.437 0.282 0.435L0.277 0.437Q0.278 0.454 0.277 0.471Q0.276 0.488 0.279 0.503Q0.290 0.508 0.301 0.512Q0.312 0.516 0.323 0.520ZM0.592 0.519Q0.590 0.501 0.592 0.484Q0.594 0.466 0.589 0.449Q0.578 0.444 0.567 0.442Q0.556 0.440 0.544 0.433L0.540 0.437V0.500Q0.550 0.509 0.564 0.512Q0.577 0.514 0.587 0.520ZM0.394 0.452Q0.391 0.435 0.393 0.417Q0.395 0.399 0.391 0.383Q0.379 0.381 0.368 0.376Q0.357 0.371 0.347 0.368L0.342 0.372V0.432L0.347 0.438Q0.357 0.443 0.368 0.446Q0.379 0.448 0.388 0.454ZM0.659 0.451Q0.656 0.433 0.658 0.417Q0.660 0.401 0.656 0.384Q0.644 0.380 0.633 0.376Q0.622 0.372 0.611 0.367L0.606 0.370V0.433L0.611 0.440Q0.632 0.444 0.652 0.454ZM0.327 0.429V0.368L0.323 0.361Q0.312 0.358 0.301 0.353Q0.291 0.349 0.282 0.347L0.277 0.348V0.412Q0.282 0.419 0.285 0.420Q0.295 0.421 0.304 0.425Q0.314 0.429 0.323 0.432ZM0.592 0.429V0.368L0.587 0.361Q0.577 0.356 0.566 0.353Q0.556 0.351 0.546 0.347L0.540 0.348V0.412Q0.545 0.419 0.548 0.420Q0.565 0.421 0.586 0.432ZM0.665 0.370Q0.673 0.365 0.685 0.362Q0.696 0.360 0.705 0.356Q0.696 0.352 0.686 0.349Q0.676 0.347 0.668 0.343Q0.656 0.345 0.646 0.349Q0.636 0.354 0.626 0.356Q0.636 0.360 0.645 0.362Q0.655 0.365 0.665 0.370ZM0.394 0.362Q0.391 0.345 0.393 0.329Q0.395 0.313 0.391 0.296Q0.379 0.290 0.368 0.287Q0.357 0.285 0.347 0.280L0.342 0.283V0.347Q0.351 0.356 0.366 0.358Q0.381 0.360 0.390 0.367ZM0.327 0.340Q0.326 0.322 0.327 0.306Q0.329 0.291 0.325 0.273Q0.312 0.269 0.299 0.264Q0.286 0.259 0.277 0.259V0.322L0.282 0.329Q0.307 0.336 0.323 0.345ZM0.592 0.340Q0.590 0.322 0.592 0.306Q0.594 0.291 0.589 0.273Q0.578 0.267 0.567 0.265Q0.556 0.263 0.544 0.258L0.540 0.260V0.324Q0.550 0.332 0.564 0.336Q0.577 0.339 0.587 0.345ZM0.526 0.319Q0.523 0.302 0.526 0.284Q0.528 0.266 0.521 0.250Q0.509 0.246 0.498 0.242Q0.487 0.239 0.479 0.237L0.475 0.239Q0.475 0.257 0.475 0.273Q0.474 0.290 0.476 0.305Q0.499 0.315 0.521 0.322ZM0.394 0.276Q0.391 0.259 0.393 0.241Q0.395 0.224 0.391 0.207Q0.379 0.202 0.368 0.200Q0.357 0.197 0.347 0.191L0.342 0.195V0.256L0.347 0.262Q0.357 0.267 0.368 0.270Q0.379 0.272 0.388 0.278ZM0.599 0.260Q0.607 0.255 0.618 0.253Q0.629 0.250 0.637 0.245Q0.626 0.240 0.616 0.238Q0.606 0.236 0.597 0.233Q0.587 0.238 0.577 0.240Q0.567 0.243 0.561 0.246Q0.571 0.248 0.580 0.253Q0.589 0.258 0.599 0.260ZM0.327 0.253V0.193L0.323 0.185Q0.312 0.181 0.301 0.177Q0.291 0.174 0.282 0.171L0.277 0.173V0.236L0.282 0.242Q0.292 0.243 0.303 0.248Q0.314 0.253 0.323 0.256ZM0.526 0.231V0.171L0.521 0.163Q0.510 0.160 0.500 0.155Q0.489 0.151 0.479 0.148L0.475 0.150V0.213Q0.478 0.218 0.483 0.222Q0.494 0.223 0.503 0.227Q0.512 0.231 0.521 0.234ZM0.461 0.210Q0.458 0.192 0.460 0.175Q0.463 0.158 0.456 0.140Q0.446 0.138 0.435 0.134Q0.424 0.130 0.414 0.126L0.409 0.128V0.191Q0.412 0.198 0.416 0.199Q0.423 0.200 0.433 0.204Q0.442 0.207 0.454 0.212ZM0.394 0.188Q0.391 0.171 0.394 0.153Q0.397 0.135 0.390 0.118Q0.379 0.114 0.368 0.111Q0.357 0.109 0.348 0.104L0.342 0.106V0.170Q0.344 0.172 0.346 0.174Q0.348 0.176 0.350 0.177Q0.370 0.181 0.388 0.190ZM0.327 0.166Q0.326 0.148 0.328 0.131Q0.330 0.113 0.323 0.096Q0.312 0.091 0.301 0.090Q0.291 0.088 0.282 0.082L0.277 0.085V0.148Q0.286 0.155 0.298 0.159Q0.311 0.163 0.322 0.168ZM0.534 0.150Q0.540 0.143 0.553 0.142Q0.566 0.141 0.572 0.134Q0.561 0.133 0.550 0.128Q0.539 0.123 0.531 0.123Q0.521 0.128 0.511 0.130Q0.502 0.131 0.495 0.135Q0.505 0.141 0.514 0.143Q0.524 0.144 0.534 0.150ZM0.467 0.128Q0.477 0.122 0.486 0.120Q0.496 0.119 0.505 0.113Q0.465 0.090 0.429 0.115Q0.440 0.117 0.448 0.121Q0.457 0.126 0.467 0.128ZM0.401 0.106Q0.410 0.101 0.421 0.099Q0.432 0.097 0.439 0.089Q0.428 0.089 0.419 0.085Q0.409 0.080 0.401 0.078Q0.393 0.080 0.387 0.083Q0.382 0.086 0.376 0.086Q0.372 0.089 0.369 0.089Q0.365 0.089 0.362 0.091Q0.373 0.095 0.382 0.099Q0.391 0.103 0.401 0.106ZM0.334 0.083Q0.345 0.081 0.355 0.077Q0.365 0.072 0.376 0.069Q0.364 0.067 0.354 0.063Q0.343 0.059 0.334 0.057Q0.327 0.058 0.321 0.061Q0.315 0.064 0.309 0.064Q0.306 0.067 0.302 0.068Q0.298 0.068 0.296 0.069Q0.307 0.072 0.316 0.076Q0.325 0.080 0.334 0.083Z" fill="black"/>
</svg>
