<svg xmlns="http://www.w3.org/2000/svg" viewBox="0 0 1 1" preserveAspectRatio="xMidYMid meet">
  <path d="M0.321 1.000Q0.305 0.992 0.289 0.988Q0.273 0.985 0.256 0.976V0.152Q0.357 0.113 0.459 0.081Q0.562 0.050 0.665 0.012Q0.684 0.012 0.703 0.021Q0.721 0.029 0.742 0.035L0.744 0.040V0.134Q0.741 0.134 0.739 0.137Q0.738 0.140 0.733 0.142Q0.700 0.153 0.665 0.164Q0.630 0.175 0.595 0.189Q0.561 0.199 0.531 0.208Q0.502 0.217 0.476 0.228L0.471 0.235V0.433L0.476 0.438Q0.527 0.424 0.573 0.408Q0.623 0.389 0.673 0.421L0.676 0.425V0.520Q0.633 0.540 0.582 0.555Q0.530 0.571 0.482 0.587L0.478 0.588Q0.477 0.588 0.471 0.598Q0.472 0.649 0.471 0.699Q0.469 0.749 0.474 0.801Q0.538 0.791 0.602 0.758Q0.669 0.726 0.733 0.757Q0.741 0.761 0.743 0.763Q0.745 0.788 0.744 0.811Q0.743 0.835 0.744 0.860L0.742 0.865Q0.686 0.883 0.629 0.901Q0.573 0.920 0.515 0.939Q0.465 0.954 0.419 0.972Q0.373 0.990 0.324 1.000H0.321ZM0.323 0.981Q0.320 0.962 0.322 0.944Q0.324 0.926 0.320 0.909Q0.307 0.907 0.296 0.901Q0.284 0.896 0.274 0.894L0.269 0.897V0.959L0.274 0.965Q0.284 0.971 0.295 0.974Q0.306 0.977 0.317 0.982ZM0.323 0.889Q0.320 0.871 0.322 0.853Q0.325 0.834 0.318 0.817Q0.282 0.805 0.269 0.805V0.870Q0.273 0.875 0.277 0.877Q0.287 0.879 0.297 0.884Q0.306 0.888 0.317 0.891ZM0.476 0.847Q0.498 0.836 0.506 0.836Q0.501 0.832 0.493 0.831Q0.486 0.829 0.480 0.825L0.473 0.827Q0.474 0.832 0.473 0.838Q0.471 0.845 0.476 0.847ZM0.533 0.827Q0.545 0.823 0.555 0.820Q0.565 0.817 0.574 0.812Q0.531 0.794 0.495 0.812Q0.505 0.816 0.514 0.820Q0.523 0.823 0.533 0.827ZM0.602 0.805Q0.612 0.799 0.623 0.797Q0.634 0.795 0.641 0.788Q0.631 0.787 0.621 0.782Q0.611 0.777 0.602 0.776Q0.592 0.783 0.581 0.785Q0.569 0.787 0.563 0.791Q0.574 0.793 0.583 0.797Q0.592 0.802 0.602 0.805ZM0.323 0.800Q0.320 0.782 0.322 0.763Q0.324 0.745 0.320 0.727Q0.307 0.723 0.296 0.720Q0.284 0.717 0.274 0.710L0.269 0.715V0.778L0.274 0.785Q0.284 0.790 0.295 0.792Q0.306 0.795 0.317 0.801ZM0.670 0.782Q0.680 0.779 0.690 0.774Q0.701 0.769 0.712 0.766Q0.701 0.764 0.690 0.760Q0.679 0.756 0.670 0.753Q0.659 0.758 0.649 0.761Q0.638 0.764 0.630 0.766L0.670 0.782ZM0.323 0.707Q0.320 0.690 0.322 0.672Q0.325 0.653 0.318 0.636Q0.307 0.631 0.296 0.629Q0.285 0.626 0.276 0.621L0.269 0.623V0.688Q0.273 0.695 0.277 0.696Q0.285 0.697 0.295 0.701Q0.305 0.704 0.317 0.709ZM0.323 0.617V0.554L0.318 0.546Q0.305 0.543 0.291 0.537Q0.278 0.532 0.269 0.532V0.598Q0.273 0.604 0.277 0.605Q0.287 0.607 0.297 0.611Q0.306 0.616 0.317 0.619ZM0.323 0.523V0.461L0.318 0.454Q0.307 0.450 0.296 0.447Q0.285 0.444 0.276 0.440L0.269 0.441V0.507Q0.273 0.513 0.277 0.514Q0.293 0.517 0.317 0.528ZM0.478 0.483Q0.486 0.478 0.493 0.477Q0.500 0.477 0.506 0.473Q0.488 0.465 0.478 0.463L0.473 0.466Q0.474 0.471 0.473 0.475Q0.471 0.479 0.474 0.483ZM0.533 0.464Q0.545 0.457 0.555 0.456Q0.565 0.454 0.574 0.449Q0.558 0.442 0.533 0.437Q0.523 0.439 0.513 0.443Q0.503 0.447 0.495 0.449Q0.504 0.454 0.515 0.457Q0.525 0.459 0.533 0.464ZM0.602 0.441Q0.614 0.435 0.622 0.434Q0.631 0.433 0.641 0.427Q0.600 0.404 0.563 0.429Q0.574 0.430 0.583 0.434Q0.592 0.439 0.602 0.441ZM0.323 0.433Q0.320 0.416 0.322 0.399Q0.324 0.382 0.320 0.365Q0.307 0.360 0.296 0.357Q0.284 0.355 0.274 0.349L0.269 0.352V0.417Q0.279 0.426 0.293 0.429Q0.307 0.432 0.318 0.438ZM0.323 0.345Q0.320 0.327 0.322 0.309Q0.325 0.291 0.318 0.273Q0.307 0.268 0.296 0.265Q0.285 0.262 0.276 0.259L0.269 0.260V0.325Q0.274 0.333 0.277 0.334Q0.294 0.336 0.317 0.347ZM0.323 0.252Q0.320 0.234 0.322 0.217Q0.324 0.201 0.320 0.184Q0.307 0.178 0.296 0.176Q0.284 0.174 0.274 0.167L0.269 0.171V0.236Q0.279 0.244 0.293 0.247Q0.307 0.251 0.318 0.257ZM0.329 0.171Q0.338 0.165 0.349 0.162Q0.360 0.160 0.369 0.153Q0.358 0.149 0.347 0.147Q0.337 0.145 0.328 0.141Q0.318 0.146 0.307 0.149Q0.297 0.152 0.290 0.155Q0.309 0.161 0.329 0.171ZM0.398 0.146Q0.408 0.140 0.420 0.138Q0.432 0.136 0.439 0.131Q0.388 0.111 0.358 0.132Q0.368 0.135 0.377 0.139Q0.386 0.142 0.396 0.146ZM0.467 0.125Q0.475 0.117 0.487 0.115Q0.498 0.114 0.508 0.111Q0.498 0.106 0.490 0.104Q0.482 0.102 0.473 0.097Q0.441 0.102 0.428 0.112Q0.436 0.113 0.445 0.116Q0.455 0.120 0.467 0.125ZM0.533 0.102Q0.545 0.097 0.555 0.093Q0.566 0.089 0.574 0.087Q0.534 0.068 0.495 0.087Q0.509 0.090 0.533 0.102ZM0.602 0.079Q0.611 0.073 0.622 0.071Q0.633 0.068 0.643 0.064Q0.633 0.060 0.624 0.057Q0.615 0.055 0.606 0.051Q0.594 0.054 0.583 0.057Q0.571 0.061 0.563 0.066Q0.571 0.067 0.581 0.071Q0.590 0.074 0.602 0.079ZM0.671 0.056Q0.679 0.049 0.691 0.048Q0.704 0.047 0.710 0.040Q0.689 0.034 0.669 0.032Q0.649 0.030 0.630 0.042Q0.640 0.048 0.650 0.049Q0.660 0.050 0.671 0.056Z" fill="black"/>
</svg>
