<svg xmlns="http://www.w3.org/2000/svg" viewBox="0 0 1 1" preserveAspectRatio="xMidYMid meet">
  <path d="M0.658 1.000Q0.557 0.964 0.459 0.932Q0.360 0.900 0.260 0.865V0.052Q0.276 0.047 0.293 0.041Q0.309 0.036 0.327 0.027Q0.409 0.051 0.489 0.079Q0.570 0.108 0.652 0.134Q0.674 0.143 0.695 0.148Q0.716 0.153 0.737 0.164L0.740 0.168V0.261Q0.735 0.263 0.728 0.267Q0.666 0.301 0.602 0.268Q0.538 0.235 0.474 0.226L0.471 0.231Q0.472 0.280 0.471 0.329Q0.470 0.378 0.474 0.430Q0.523 0.449 0.572 0.464Q0.621 0.480 0.670 0.497Q0.673 0.521 0.672 0.545Q0.671 0.568 0.672 0.593L0.669 0.599Q0.622 0.630 0.573 0.613Q0.548 0.605 0.524 0.597Q0.499 0.588 0.476 0.580L0.473 0.582Q0.473 0.634 0.472 0.685Q0.470 0.737 0.474 0.789Q0.536 0.810 0.598 0.830Q0.660 0.851 0.722 0.872Q0.740 0.883 0.740 0.881V0.975Q0.699 0.995 0.661 1.000H0.658ZM0.660 0.981Q0.657 0.962 0.659 0.945Q0.661 0.927 0.657 0.911Q0.644 0.908 0.633 0.903Q0.621 0.898 0.611 0.895L0.606 0.898V0.959L0.611 0.966Q0.621 0.972 0.632 0.974Q0.643 0.977 0.653 0.983ZM0.592 0.957V0.895L0.587 0.887Q0.577 0.884 0.566 0.880Q0.555 0.875 0.545 0.873L0.540 0.875V0.939Q0.545 0.946 0.549 0.947Q0.559 0.949 0.569 0.953Q0.578 0.956 0.587 0.959ZM0.526 0.935Q0.523 0.917 0.525 0.900Q0.528 0.884 0.523 0.867Q0.511 0.862 0.499 0.858Q0.488 0.854 0.478 0.851L0.473 0.852V0.917Q0.476 0.923 0.481 0.925Q0.493 0.926 0.520 0.937ZM0.459 0.914Q0.456 0.895 0.458 0.878Q0.461 0.860 0.454 0.842Q0.444 0.838 0.432 0.836Q0.421 0.833 0.412 0.828L0.406 0.830V0.894Q0.411 0.901 0.414 0.902Q0.422 0.903 0.432 0.907Q0.442 0.911 0.453 0.916ZM0.666 0.897Q0.676 0.891 0.686 0.889Q0.697 0.886 0.706 0.883Q0.697 0.879 0.687 0.876Q0.677 0.872 0.669 0.870Q0.658 0.872 0.647 0.876Q0.637 0.879 0.628 0.883Q0.637 0.888 0.647 0.890Q0.657 0.891 0.666 0.897ZM0.392 0.891Q0.389 0.873 0.391 0.855Q0.394 0.837 0.387 0.820Q0.376 0.815 0.365 0.813Q0.354 0.811 0.344 0.806L0.340 0.809V0.873Q0.349 0.880 0.361 0.884Q0.373 0.888 0.386 0.892ZM0.600 0.875Q0.607 0.868 0.620 0.867Q0.633 0.866 0.639 0.859Q0.628 0.858 0.617 0.853Q0.606 0.848 0.597 0.848Q0.587 0.853 0.578 0.855Q0.569 0.857 0.559 0.861Q0.571 0.867 0.580 0.868Q0.590 0.869 0.600 0.875ZM0.324 0.870V0.806L0.319 0.798Q0.308 0.793 0.297 0.791Q0.286 0.789 0.277 0.784L0.273 0.787V0.851Q0.283 0.860 0.296 0.863Q0.309 0.866 0.321 0.872ZM0.533 0.852Q0.543 0.847 0.552 0.846Q0.561 0.845 0.572 0.837Q0.531 0.817 0.493 0.839Q0.505 0.840 0.514 0.846Q0.523 0.851 0.533 0.852ZM0.465 0.830Q0.475 0.826 0.485 0.823Q0.495 0.820 0.506 0.815Q0.463 0.799 0.426 0.815Q0.438 0.819 0.447 0.823Q0.456 0.826 0.465 0.830ZM0.392 0.801V0.740L0.387 0.732Q0.379 0.728 0.368 0.725Q0.357 0.722 0.344 0.717L0.340 0.720V0.784L0.344 0.790Q0.355 0.791 0.366 0.796Q0.377 0.801 0.387 0.804ZM0.324 0.778V0.717L0.319 0.709Q0.304 0.704 0.294 0.701Q0.284 0.697 0.277 0.693L0.273 0.696V0.761L0.277 0.767Q0.288 0.769 0.298 0.773Q0.308 0.776 0.319 0.782ZM0.392 0.710Q0.389 0.693 0.391 0.677Q0.393 0.661 0.388 0.643Q0.374 0.640 0.363 0.634Q0.352 0.627 0.340 0.627V0.695Q0.349 0.703 0.361 0.705Q0.373 0.707 0.386 0.714ZM0.324 0.690Q0.322 0.673 0.323 0.654Q0.325 0.636 0.321 0.619Q0.309 0.617 0.298 0.612Q0.286 0.608 0.279 0.605L0.273 0.607V0.671L0.277 0.677Q0.288 0.682 0.299 0.684Q0.309 0.687 0.319 0.691ZM0.392 0.622Q0.389 0.605 0.391 0.587Q0.394 0.569 0.387 0.552Q0.376 0.550 0.365 0.546Q0.354 0.542 0.344 0.539L0.340 0.541Q0.341 0.559 0.340 0.576Q0.339 0.592 0.342 0.609Q0.353 0.613 0.364 0.617Q0.376 0.621 0.387 0.626ZM0.324 0.600Q0.323 0.582 0.323 0.566Q0.324 0.549 0.323 0.533Q0.310 0.526 0.299 0.524Q0.288 0.521 0.277 0.515L0.273 0.518Q0.274 0.536 0.272 0.553Q0.271 0.570 0.274 0.585Q0.286 0.591 0.297 0.595Q0.308 0.598 0.319 0.604ZM0.592 0.600V0.539L0.587 0.530Q0.561 0.520 0.545 0.516L0.540 0.518V0.582L0.545 0.589Q0.556 0.590 0.567 0.595Q0.578 0.600 0.587 0.604ZM0.526 0.577Q0.523 0.560 0.525 0.544Q0.528 0.527 0.523 0.510Q0.497 0.502 0.478 0.492L0.473 0.496V0.560L0.478 0.566Q0.489 0.568 0.499 0.572Q0.510 0.575 0.520 0.580ZM0.459 0.554V0.492L0.454 0.486Q0.444 0.482 0.432 0.479Q0.421 0.476 0.412 0.472L0.406 0.473Q0.407 0.492 0.406 0.509Q0.405 0.525 0.408 0.541L0.414 0.546Q0.430 0.548 0.453 0.558ZM0.392 0.533V0.472L0.387 0.463Q0.376 0.460 0.365 0.456Q0.354 0.452 0.344 0.449L0.340 0.450V0.515L0.344 0.521Q0.355 0.526 0.366 0.528Q0.377 0.529 0.387 0.536ZM0.600 0.518Q0.607 0.512 0.617 0.510Q0.627 0.508 0.636 0.505L0.639 0.502Q0.619 0.496 0.599 0.493Q0.578 0.491 0.561 0.505Q0.573 0.507 0.581 0.511Q0.590 0.514 0.600 0.518ZM0.324 0.512Q0.322 0.494 0.323 0.476Q0.325 0.458 0.321 0.441Q0.309 0.439 0.298 0.434Q0.286 0.429 0.279 0.427L0.273 0.428V0.492L0.277 0.499Q0.288 0.504 0.299 0.507Q0.309 0.509 0.319 0.513ZM0.533 0.496Q0.541 0.490 0.552 0.487Q0.562 0.485 0.573 0.481Q0.562 0.477 0.553 0.474Q0.544 0.472 0.536 0.468Q0.521 0.473 0.510 0.476Q0.499 0.479 0.493 0.483Q0.510 0.484 0.533 0.496ZM0.465 0.473Q0.475 0.466 0.485 0.465Q0.495 0.463 0.506 0.458Q0.493 0.453 0.465 0.446Q0.456 0.449 0.445 0.453Q0.434 0.456 0.426 0.458Q0.436 0.463 0.447 0.466Q0.457 0.468 0.465 0.473ZM0.392 0.444Q0.389 0.427 0.391 0.409Q0.394 0.390 0.387 0.374Q0.372 0.369 0.362 0.366Q0.352 0.363 0.344 0.361L0.340 0.363Q0.341 0.380 0.340 0.397Q0.339 0.414 0.342 0.430Q0.353 0.435 0.364 0.439Q0.376 0.443 0.387 0.448ZM0.324 0.424V0.360L0.319 0.351Q0.307 0.349 0.297 0.345Q0.287 0.341 0.277 0.336L0.273 0.340Q0.274 0.358 0.272 0.374Q0.271 0.391 0.274 0.408Q0.286 0.414 0.297 0.416Q0.308 0.419 0.319 0.425ZM0.392 0.355V0.293L0.387 0.285Q0.376 0.282 0.365 0.277Q0.354 0.273 0.344 0.270L0.340 0.272V0.336Q0.344 0.343 0.348 0.345Q0.358 0.346 0.367 0.350Q0.377 0.354 0.387 0.358ZM0.324 0.331V0.270L0.319 0.263Q0.308 0.259 0.297 0.255Q0.286 0.251 0.277 0.248L0.273 0.250V0.314Q0.277 0.321 0.281 0.322Q0.287 0.323 0.296 0.327Q0.305 0.330 0.319 0.335ZM0.392 0.266Q0.389 0.248 0.391 0.230Q0.394 0.212 0.387 0.195Q0.376 0.191 0.365 0.189Q0.354 0.186 0.344 0.182L0.340 0.184Q0.341 0.202 0.340 0.219Q0.339 0.236 0.342 0.252Q0.353 0.257 0.364 0.261Q0.376 0.264 0.387 0.269ZM0.660 0.264Q0.657 0.246 0.659 0.230Q0.661 0.214 0.657 0.196Q0.644 0.191 0.633 0.189Q0.621 0.187 0.611 0.181L0.606 0.184V0.248Q0.617 0.257 0.631 0.260Q0.644 0.263 0.655 0.269ZM0.324 0.243V0.179L0.318 0.171Q0.305 0.171 0.293 0.165Q0.281 0.160 0.273 0.160V0.224L0.277 0.231Q0.288 0.236 0.299 0.238Q0.309 0.241 0.319 0.247ZM0.592 0.243Q0.590 0.226 0.592 0.208Q0.595 0.190 0.587 0.173Q0.576 0.169 0.566 0.166Q0.555 0.163 0.545 0.160L0.540 0.162Q0.542 0.179 0.541 0.196Q0.539 0.213 0.542 0.229Q0.554 0.234 0.566 0.238Q0.577 0.242 0.587 0.247ZM0.526 0.220V0.159L0.522 0.152Q0.511 0.147 0.499 0.145Q0.487 0.142 0.478 0.136L0.473 0.139Q0.474 0.158 0.473 0.174Q0.472 0.191 0.474 0.206Q0.486 0.212 0.497 0.215Q0.509 0.217 0.520 0.224ZM0.459 0.198V0.137L0.454 0.129Q0.441 0.126 0.428 0.120Q0.415 0.115 0.406 0.115V0.179L0.410 0.185Q0.421 0.191 0.432 0.193Q0.443 0.195 0.453 0.201ZM0.666 0.184Q0.674 0.178 0.685 0.176Q0.696 0.174 0.705 0.168Q0.694 0.164 0.684 0.161Q0.674 0.159 0.664 0.154Q0.655 0.160 0.644 0.163Q0.634 0.167 0.628 0.170Q0.637 0.172 0.646 0.175Q0.656 0.179 0.666 0.184ZM0.392 0.176Q0.390 0.158 0.391 0.141Q0.392 0.124 0.390 0.109Q0.378 0.104 0.366 0.099Q0.355 0.095 0.344 0.092L0.340 0.093Q0.341 0.112 0.340 0.129Q0.339 0.146 0.342 0.162Q0.353 0.168 0.364 0.171Q0.376 0.174 0.387 0.179ZM0.601 0.160Q0.611 0.157 0.621 0.152Q0.632 0.148 0.641 0.147Q0.621 0.139 0.604 0.136Q0.586 0.133 0.570 0.144Q0.556 0.149 0.558 0.147Q0.569 0.151 0.579 0.153Q0.590 0.155 0.600 0.162ZM0.324 0.153V0.092L0.319 0.084Q0.308 0.081 0.297 0.077Q0.286 0.072 0.277 0.070L0.273 0.071V0.136Q0.276 0.142 0.281 0.144Q0.291 0.145 0.300 0.149Q0.309 0.153 0.319 0.157ZM0.533 0.139Q0.541 0.132 0.552 0.130Q0.562 0.128 0.573 0.125Q0.562 0.120 0.555 0.118Q0.547 0.117 0.539 0.112Q0.527 0.112 0.517 0.116Q0.507 0.121 0.495 0.123L0.493 0.126Q0.502 0.127 0.512 0.131Q0.522 0.134 0.533 0.139ZM0.465 0.117Q0.476 0.112 0.487 0.108Q0.497 0.105 0.506 0.103Q0.467 0.083 0.426 0.103Q0.435 0.105 0.445 0.108Q0.455 0.112 0.465 0.117ZM0.400 0.093Q0.407 0.087 0.419 0.086Q0.431 0.084 0.438 0.078Q0.427 0.077 0.417 0.072Q0.406 0.067 0.396 0.067Q0.387 0.071 0.377 0.073Q0.366 0.074 0.361 0.081Q0.374 0.083 0.400 0.093ZM0.332 0.071Q0.340 0.065 0.351 0.064Q0.362 0.063 0.370 0.057Q0.330 0.035 0.293 0.059Q0.309 0.061 0.332 0.071Z" fill="black"/>
</svg>
