<svg xmlns="http://www.w3.org/2000/svg" viewBox="0 0 1 1" preserveAspectRatio="xMidYMid meet">
  <path d="M0.326 1.000Q0.309 0.994 0.294 0.989Q0.278 0.985 0.262 0.977V0.173Q0.316 0.159 0.370 0.139Q0.424 0.119 0.480 0.096Q0.593 0.047 0.704 0.047Q0.710 0.051 0.718 0.053Q0.726 0.055 0.735 0.060L0.738 0.065V0.157Q0.739 0.155 0.727 0.164Q0.695 0.174 0.661 0.184Q0.628 0.195 0.593 0.208Q0.563 0.218 0.533 0.228Q0.504 0.238 0.476 0.246L0.472 0.253V0.447L0.478 0.453Q0.511 0.443 0.543 0.431Q0.576 0.419 0.609 0.414L0.615 0.419Q0.629 0.422 0.642 0.425Q0.655 0.429 0.669 0.436L0.673 0.441V0.534Q0.671 0.535 0.668 0.536Q0.665 0.537 0.662 0.540Q0.616 0.554 0.570 0.569Q0.523 0.583 0.476 0.602L0.472 0.608V0.952L0.469 0.957Q0.434 0.966 0.399 0.980Q0.364 0.994 0.329 1.000H0.326ZM0.327 0.981V0.917L0.322 0.912Q0.311 0.907 0.301 0.904Q0.290 0.901 0.281 0.896L0.274 0.897V0.961Q0.278 0.967 0.283 0.970Q0.293 0.972 0.302 0.976Q0.310 0.980 0.321 0.983ZM0.327 0.893Q0.325 0.875 0.326 0.857Q0.328 0.839 0.324 0.823Q0.311 0.820 0.300 0.816Q0.289 0.812 0.279 0.809L0.274 0.812V0.873L0.279 0.879Q0.297 0.884 0.321 0.894ZM0.327 0.804Q0.325 0.787 0.327 0.769Q0.329 0.751 0.322 0.734Q0.311 0.730 0.301 0.727Q0.290 0.725 0.281 0.720L0.274 0.722V0.786Q0.280 0.792 0.283 0.793Q0.290 0.794 0.300 0.797Q0.309 0.801 0.321 0.806ZM0.327 0.714Q0.325 0.697 0.327 0.679Q0.329 0.662 0.322 0.644Q0.308 0.642 0.296 0.637Q0.283 0.632 0.274 0.632V0.696Q0.278 0.703 0.283 0.703Q0.293 0.705 0.302 0.710Q0.310 0.714 0.321 0.717ZM0.327 0.627Q0.325 0.609 0.327 0.591Q0.329 0.574 0.322 0.557Q0.311 0.553 0.301 0.550Q0.290 0.547 0.281 0.543L0.274 0.544V0.608L0.279 0.615Q0.289 0.618 0.300 0.620Q0.310 0.623 0.321 0.629ZM0.327 0.540Q0.325 0.521 0.326 0.504Q0.328 0.487 0.324 0.470Q0.311 0.463 0.300 0.461Q0.289 0.459 0.279 0.453L0.274 0.456V0.520Q0.284 0.529 0.298 0.532Q0.311 0.535 0.322 0.541ZM0.476 0.496Q0.483 0.492 0.492 0.490Q0.500 0.489 0.506 0.484Q0.497 0.484 0.492 0.481Q0.486 0.478 0.480 0.478L0.473 0.479V0.493L0.476 0.496ZM0.533 0.478Q0.541 0.474 0.552 0.471Q0.563 0.468 0.571 0.463Q0.560 0.458 0.551 0.457Q0.542 0.455 0.534 0.450Q0.523 0.455 0.512 0.458Q0.501 0.460 0.494 0.464Q0.516 0.471 0.533 0.478ZM0.600 0.456Q0.606 0.450 0.616 0.449Q0.625 0.447 0.635 0.444L0.638 0.441Q0.602 0.424 0.562 0.439L0.558 0.442Q0.573 0.446 0.583 0.449Q0.594 0.452 0.600 0.456ZM0.327 0.449V0.388L0.322 0.380Q0.311 0.375 0.301 0.372Q0.290 0.369 0.281 0.365L0.274 0.367V0.431Q0.278 0.437 0.283 0.439Q0.291 0.440 0.300 0.444Q0.309 0.447 0.321 0.452ZM0.327 0.360Q0.325 0.341 0.326 0.325Q0.328 0.309 0.324 0.293Q0.311 0.287 0.300 0.285Q0.289 0.283 0.279 0.276L0.274 0.279V0.343Q0.284 0.352 0.298 0.355Q0.311 0.359 0.322 0.365ZM0.327 0.273Q0.325 0.256 0.326 0.238Q0.328 0.220 0.324 0.203Q0.311 0.201 0.300 0.196Q0.289 0.191 0.279 0.189L0.274 0.192V0.253L0.279 0.259Q0.289 0.264 0.300 0.267Q0.310 0.269 0.321 0.275ZM0.333 0.191Q0.344 0.185 0.354 0.182Q0.363 0.180 0.373 0.176Q0.335 0.155 0.295 0.176Q0.304 0.181 0.314 0.183Q0.325 0.185 0.333 0.191ZM0.400 0.168Q0.409 0.161 0.420 0.160Q0.430 0.160 0.441 0.153Q0.393 0.133 0.362 0.155Q0.376 0.157 0.400 0.168ZM0.467 0.145Q0.476 0.140 0.487 0.137Q0.497 0.134 0.506 0.130Q0.485 0.124 0.466 0.122Q0.447 0.121 0.427 0.132Q0.437 0.137 0.447 0.139Q0.457 0.141 0.467 0.145ZM0.533 0.124Q0.543 0.120 0.553 0.117Q0.562 0.114 0.573 0.109Q0.529 0.092 0.494 0.109Q0.505 0.113 0.514 0.116Q0.523 0.120 0.533 0.124ZM0.600 0.102Q0.608 0.096 0.619 0.094Q0.631 0.092 0.638 0.085Q0.629 0.084 0.618 0.080Q0.607 0.075 0.600 0.074Q0.589 0.079 0.579 0.082Q0.569 0.084 0.559 0.087Q0.570 0.091 0.580 0.095Q0.590 0.098 0.600 0.102ZM0.666 0.079Q0.676 0.073 0.687 0.072Q0.698 0.070 0.705 0.063Q0.679 0.058 0.673 0.053Q0.648 0.056 0.626 0.066Q0.635 0.068 0.644 0.071Q0.653 0.074 0.664 0.079Z" fill="black"/>
</svg>
