<svg xmlns="http://www.w3.org/2000/svg" viewBox="0 0 1 1" preserveAspectRatio="xMidYMid meet">
  <path d="M0.391 0.977Q0.376 0.967 0.360 0.964Q0.344 0.961 0.327 0.953Q0.326 0.942 0.327 0.931Q0.328 0.920 0.323 0.909Q0.308 0.902 0.294 0.899Q0.279 0.895 0.265 0.888L0.262 0.883V0.261L0.265 0.256Q0.278 0.249 0.293 0.245Q0.307 0.242 0.323 0.238Q0.330 0.216 0.327 0.195Q0.325 0.174 0.327 0.151L0.330 0.146Q0.400 0.124 0.468 0.099Q0.537 0.074 0.607 0.057Q0.619 0.065 0.636 0.068Q0.652 0.071 0.668 0.079L0.671 0.084V0.119L0.676 0.126Q0.703 0.132 0.736 0.148Q0.738 0.194 0.738 0.239Q0.737 0.285 0.738 0.331L0.730 0.336Q0.704 0.343 0.678 0.352Q0.653 0.360 0.628 0.369Q0.578 0.387 0.528 0.356Q0.524 0.324 0.526 0.293Q0.529 0.261 0.523 0.230Q0.514 0.230 0.502 0.236Q0.490 0.242 0.480 0.242Q0.475 0.245 0.472 0.250V0.534L0.475 0.539Q0.541 0.527 0.605 0.495Q0.671 0.461 0.736 0.502Q0.738 0.591 0.738 0.680Q0.737 0.768 0.738 0.861L0.735 0.865Q0.662 0.890 0.589 0.915Q0.516 0.940 0.442 0.962Q0.427 0.967 0.416 0.972Q0.404 0.977 0.392 0.977H0.391ZM0.392 0.954Q0.391 0.939 0.392 0.925Q0.393 0.911 0.391 0.895L0.388 0.894Q0.377 0.899 0.366 0.902Q0.355 0.904 0.346 0.909L0.342 0.914Q0.343 0.921 0.341 0.928Q0.340 0.935 0.343 0.942Q0.355 0.946 0.366 0.951Q0.377 0.955 0.388 0.959ZM0.326 0.889V0.829L0.321 0.821Q0.309 0.817 0.299 0.813Q0.288 0.809 0.279 0.807L0.275 0.808V0.872Q0.278 0.877 0.283 0.879Q0.293 0.881 0.302 0.885Q0.310 0.889 0.321 0.892ZM0.477 0.848Q0.484 0.843 0.491 0.843Q0.497 0.842 0.504 0.838Q0.497 0.834 0.491 0.833Q0.484 0.831 0.480 0.829L0.473 0.830Q0.474 0.834 0.474 0.839Q0.473 0.845 0.475 0.848ZM0.533 0.830Q0.539 0.823 0.552 0.822Q0.565 0.820 0.571 0.814Q0.551 0.809 0.530 0.806Q0.510 0.803 0.494 0.817Q0.503 0.818 0.512 0.822Q0.522 0.825 0.533 0.830ZM0.326 0.803Q0.323 0.786 0.325 0.767Q0.327 0.749 0.323 0.733Q0.306 0.727 0.295 0.723Q0.283 0.720 0.275 0.718V0.783L0.279 0.789Q0.290 0.794 0.300 0.796Q0.310 0.799 0.321 0.805ZM0.478 0.805Q0.486 0.799 0.498 0.796Q0.510 0.794 0.520 0.789L0.525 0.784Q0.522 0.754 0.524 0.725Q0.526 0.695 0.521 0.666Q0.511 0.661 0.500 0.659Q0.489 0.657 0.480 0.651L0.473 0.653Q0.476 0.692 0.474 0.731Q0.472 0.770 0.477 0.805ZM0.592 0.802V0.738L0.587 0.731Q0.561 0.724 0.545 0.718L0.540 0.721Q0.541 0.738 0.540 0.755Q0.539 0.771 0.542 0.788Q0.554 0.793 0.565 0.796Q0.576 0.799 0.587 0.805ZM0.326 0.712Q0.323 0.694 0.325 0.677Q0.328 0.660 0.321 0.642Q0.309 0.641 0.299 0.636Q0.288 0.631 0.279 0.629L0.275 0.631V0.695L0.279 0.701Q0.290 0.702 0.300 0.707Q0.310 0.712 0.321 0.715ZM0.592 0.713Q0.590 0.697 0.591 0.682Q0.592 0.668 0.590 0.651L0.587 0.650Q0.576 0.657 0.565 0.659Q0.554 0.662 0.545 0.665L0.540 0.671Q0.541 0.679 0.541 0.686Q0.540 0.693 0.544 0.699Q0.554 0.703 0.565 0.706Q0.576 0.709 0.585 0.715ZM0.525 0.643Q0.522 0.626 0.524 0.610Q0.526 0.593 0.521 0.576Q0.511 0.575 0.499 0.570Q0.487 0.565 0.480 0.562L0.473 0.564V0.628L0.478 0.634Q0.489 0.638 0.499 0.641Q0.510 0.644 0.520 0.648ZM0.326 0.623V0.562L0.321 0.555Q0.309 0.550 0.299 0.547Q0.288 0.545 0.279 0.540L0.275 0.543V0.607Q0.283 0.615 0.295 0.618Q0.307 0.622 0.320 0.626ZM0.533 0.564Q0.542 0.560 0.553 0.556Q0.564 0.553 0.571 0.548Q0.526 0.534 0.492 0.550Q0.503 0.555 0.513 0.558Q0.523 0.561 0.533 0.564ZM0.598 0.542Q0.607 0.537 0.618 0.535Q0.629 0.534 0.637 0.525Q0.626 0.525 0.616 0.521Q0.606 0.516 0.598 0.514Q0.591 0.516 0.585 0.519Q0.579 0.522 0.573 0.522Q0.569 0.525 0.565 0.526Q0.561 0.526 0.559 0.527Q0.571 0.532 0.579 0.535Q0.588 0.539 0.598 0.542ZM0.326 0.536Q0.324 0.517 0.325 0.501Q0.326 0.484 0.324 0.468Q0.311 0.462 0.301 0.459Q0.290 0.456 0.279 0.452L0.275 0.454V0.517L0.279 0.524Q0.290 0.525 0.300 0.530Q0.310 0.535 0.321 0.539ZM0.665 0.519Q0.675 0.514 0.684 0.512Q0.694 0.510 0.704 0.505Q0.693 0.500 0.682 0.498Q0.672 0.496 0.663 0.492Q0.654 0.497 0.644 0.499Q0.635 0.502 0.629 0.507Q0.638 0.511 0.646 0.514Q0.655 0.516 0.663 0.519ZM0.326 0.448V0.384L0.320 0.376Q0.307 0.375 0.296 0.369Q0.285 0.364 0.275 0.365V0.428L0.279 0.435Q0.290 0.439 0.300 0.442Q0.310 0.445 0.321 0.449ZM0.326 0.359Q0.323 0.340 0.325 0.323Q0.328 0.305 0.321 0.289Q0.307 0.286 0.297 0.282Q0.287 0.278 0.279 0.274L0.275 0.277Q0.276 0.295 0.275 0.312Q0.274 0.329 0.276 0.343Q0.288 0.349 0.299 0.353Q0.309 0.358 0.321 0.362ZM0.592 0.359Q0.589 0.340 0.591 0.323Q0.594 0.305 0.587 0.289Q0.576 0.286 0.565 0.282Q0.554 0.278 0.545 0.275L0.540 0.277Q0.541 0.295 0.540 0.312Q0.539 0.329 0.542 0.343Q0.554 0.349 0.565 0.353Q0.576 0.358 0.587 0.362ZM0.333 0.277Q0.342 0.270 0.353 0.268Q0.363 0.266 0.373 0.262Q0.363 0.258 0.356 0.257Q0.348 0.255 0.340 0.250Q0.309 0.253 0.295 0.264Q0.303 0.265 0.312 0.269Q0.322 0.272 0.333 0.277ZM0.592 0.269Q0.590 0.254 0.591 0.238Q0.592 0.223 0.590 0.208H0.585Q0.574 0.213 0.561 0.217Q0.548 0.222 0.540 0.226V0.255Q0.550 0.262 0.562 0.264Q0.575 0.265 0.585 0.272ZM0.392 0.247Q0.390 0.229 0.392 0.212Q0.394 0.196 0.389 0.180Q0.376 0.177 0.364 0.171Q0.353 0.165 0.342 0.166V0.233Q0.350 0.240 0.362 0.241Q0.374 0.243 0.387 0.250ZM0.399 0.166Q0.409 0.163 0.419 0.160Q0.429 0.157 0.439 0.151Q0.396 0.134 0.360 0.151Q0.370 0.154 0.380 0.159Q0.389 0.163 0.399 0.166ZM0.676 0.163Q0.681 0.161 0.689 0.158Q0.696 0.154 0.704 0.151Q0.685 0.143 0.679 0.143L0.673 0.145Q0.674 0.150 0.673 0.155Q0.671 0.160 0.674 0.163ZM0.466 0.143Q0.475 0.137 0.486 0.136Q0.496 0.134 0.504 0.127Q0.494 0.127 0.484 0.122Q0.474 0.118 0.466 0.116Q0.456 0.122 0.445 0.124Q0.433 0.126 0.427 0.131Q0.438 0.132 0.447 0.137Q0.456 0.141 0.466 0.143ZM0.533 0.121Q0.542 0.115 0.553 0.114Q0.564 0.113 0.571 0.106Q0.545 0.101 0.539 0.096Q0.528 0.097 0.516 0.100Q0.505 0.104 0.492 0.109Q0.503 0.111 0.512 0.114Q0.521 0.118 0.531 0.121ZM0.600 0.101Q0.606 0.095 0.616 0.092Q0.626 0.090 0.635 0.087L0.637 0.084Q0.626 0.080 0.616 0.077Q0.606 0.073 0.598 0.071Q0.587 0.076 0.577 0.079Q0.568 0.082 0.558 0.086Q0.570 0.088 0.580 0.092Q0.590 0.096 0.600 0.101Z" fill="black"/>
</svg>
