<svg xmlns="http://www.w3.org/2000/svg" viewBox="0 0 1 1" preserveAspectRatio="xMidYMid meet">
  <path d="M0.660 1.000Q0.577 0.971 0.494 0.944Q0.412 0.918 0.328 0.887Q0.324 0.866 0.327 0.843Q0.330 0.820 0.322 0.798Q0.286 0.783 0.261 0.776Q0.258 0.618 0.260 0.461Q0.261 0.304 0.259 0.144Q0.259 0.143 0.271 0.135Q0.282 0.135 0.294 0.129Q0.306 0.123 0.319 0.121Q0.324 0.119 0.327 0.113V0.077L0.330 0.072Q0.415 0.036 0.500 0.079Q0.585 0.124 0.671 0.140L0.674 0.145V0.171V0.227Q0.685 0.236 0.703 0.239Q0.722 0.243 0.739 0.251Q0.741 0.298 0.740 0.343Q0.739 0.389 0.741 0.438Q0.741 0.437 0.729 0.446Q0.681 0.474 0.630 0.453Q0.605 0.443 0.580 0.434Q0.555 0.426 0.529 0.419Q0.525 0.375 0.528 0.330Q0.530 0.286 0.524 0.240Q0.513 0.236 0.502 0.233Q0.491 0.230 0.480 0.224L0.475 0.226Q0.473 0.308 0.474 0.389Q0.475 0.471 0.474 0.554L0.477 0.558Q0.492 0.555 0.508 0.548Q0.523 0.542 0.541 0.541Q0.589 0.560 0.638 0.574Q0.687 0.588 0.737 0.608L0.741 0.613V0.870Q0.739 0.899 0.740 0.926Q0.742 0.952 0.737 0.978L0.732 0.981Q0.715 0.982 0.698 0.991Q0.680 1.000 0.662 1.000H0.660ZM0.660 0.981Q0.658 0.962 0.659 0.945Q0.661 0.927 0.657 0.910Q0.643 0.905 0.631 0.900Q0.618 0.895 0.609 0.895V0.959L0.614 0.966Q0.624 0.971 0.635 0.974Q0.645 0.978 0.655 0.982ZM0.595 0.956Q0.592 0.938 0.593 0.921Q0.595 0.904 0.592 0.889Q0.576 0.882 0.564 0.878Q0.551 0.874 0.541 0.873V0.937L0.546 0.943Q0.556 0.948 0.567 0.951Q0.577 0.954 0.587 0.959ZM0.526 0.936Q0.523 0.918 0.525 0.900Q0.527 0.882 0.523 0.865Q0.510 0.862 0.498 0.857Q0.487 0.852 0.475 0.851V0.918Q0.485 0.924 0.497 0.927Q0.509 0.930 0.520 0.937ZM0.459 0.912Q0.456 0.894 0.459 0.876Q0.461 0.858 0.454 0.840Q0.443 0.839 0.432 0.834Q0.422 0.829 0.413 0.828L0.408 0.830V0.894L0.413 0.900Q0.423 0.901 0.433 0.907Q0.444 0.912 0.454 0.915ZM0.393 0.889Q0.390 0.871 0.392 0.855Q0.394 0.838 0.390 0.821Q0.378 0.817 0.367 0.813Q0.356 0.809 0.345 0.804L0.340 0.807V0.872Q0.345 0.878 0.348 0.879Q0.369 0.882 0.386 0.892ZM0.660 0.889V0.828L0.655 0.820Q0.643 0.816 0.633 0.812Q0.622 0.808 0.614 0.806L0.609 0.807V0.872Q0.611 0.874 0.613 0.876Q0.615 0.878 0.617 0.879Q0.627 0.881 0.636 0.885Q0.645 0.889 0.655 0.892ZM0.595 0.865V0.804L0.589 0.798Q0.578 0.793 0.568 0.791Q0.557 0.789 0.548 0.784L0.541 0.785V0.850Q0.543 0.852 0.545 0.854Q0.547 0.856 0.549 0.857Q0.557 0.858 0.567 0.861Q0.576 0.865 0.587 0.870ZM0.526 0.845Q0.525 0.839 0.526 0.834Q0.526 0.829 0.523 0.826Q0.505 0.834 0.494 0.837Q0.501 0.839 0.508 0.842Q0.514 0.846 0.520 0.848ZM0.467 0.830Q0.474 0.822 0.487 0.821Q0.500 0.819 0.506 0.813Q0.494 0.812 0.483 0.807Q0.473 0.802 0.464 0.802Q0.454 0.807 0.444 0.808Q0.434 0.810 0.428 0.816Q0.443 0.819 0.467 0.830ZM0.393 0.799Q0.390 0.782 0.392 0.765Q0.394 0.748 0.390 0.732Q0.378 0.726 0.367 0.724Q0.356 0.722 0.345 0.715L0.340 0.718V0.784Q0.351 0.792 0.364 0.795Q0.377 0.798 0.388 0.804ZM0.523 0.804Q0.527 0.775 0.526 0.747Q0.525 0.720 0.526 0.691Q0.521 0.685 0.518 0.683Q0.509 0.682 0.498 0.678Q0.488 0.674 0.480 0.672L0.475 0.674Q0.476 0.703 0.475 0.731Q0.474 0.759 0.477 0.787Q0.489 0.793 0.500 0.795Q0.511 0.798 0.521 0.804ZM0.660 0.802Q0.658 0.785 0.659 0.766Q0.661 0.748 0.657 0.732Q0.623 0.718 0.609 0.717V0.782L0.614 0.788Q0.624 0.793 0.635 0.795Q0.645 0.798 0.655 0.804ZM0.325 0.778Q0.323 0.760 0.326 0.742Q0.328 0.725 0.321 0.707Q0.310 0.705 0.299 0.701Q0.289 0.697 0.279 0.695L0.274 0.696Q0.275 0.714 0.274 0.731Q0.273 0.748 0.275 0.764Q0.288 0.768 0.299 0.773Q0.310 0.777 0.321 0.782ZM0.595 0.778V0.713Q0.588 0.707 0.585 0.705Q0.574 0.704 0.562 0.700Q0.551 0.695 0.541 0.695V0.759L0.546 0.765Q0.556 0.770 0.567 0.773Q0.577 0.775 0.587 0.782ZM0.393 0.710Q0.390 0.693 0.392 0.677Q0.394 0.661 0.390 0.643Q0.378 0.639 0.367 0.635Q0.356 0.630 0.345 0.626L0.340 0.629V0.693L0.345 0.699Q0.356 0.701 0.366 0.705Q0.376 0.708 0.386 0.713ZM0.660 0.710Q0.658 0.693 0.660 0.675Q0.662 0.658 0.655 0.640Q0.643 0.639 0.633 0.634Q0.622 0.628 0.614 0.627L0.609 0.629V0.693L0.614 0.699Q0.624 0.701 0.635 0.706Q0.645 0.710 0.655 0.713ZM0.325 0.688Q0.324 0.671 0.325 0.654Q0.326 0.637 0.324 0.621Q0.312 0.615 0.301 0.612Q0.290 0.610 0.279 0.605L0.274 0.607V0.674Q0.287 0.680 0.297 0.682Q0.308 0.684 0.319 0.691ZM0.595 0.688Q0.591 0.671 0.593 0.654Q0.596 0.638 0.590 0.621Q0.565 0.613 0.546 0.603L0.541 0.607Q0.542 0.625 0.541 0.642Q0.540 0.659 0.543 0.674Q0.555 0.680 0.566 0.682Q0.576 0.684 0.587 0.691ZM0.526 0.664V0.603L0.521 0.598Q0.511 0.592 0.501 0.589Q0.490 0.585 0.480 0.582L0.475 0.583V0.651Q0.485 0.659 0.497 0.660Q0.509 0.662 0.520 0.669ZM0.668 0.629Q0.675 0.621 0.688 0.620Q0.700 0.619 0.706 0.613Q0.695 0.612 0.684 0.607Q0.674 0.602 0.665 0.602Q0.654 0.607 0.645 0.608Q0.635 0.609 0.629 0.616Q0.635 0.617 0.645 0.620Q0.654 0.624 0.668 0.629ZM0.393 0.622Q0.390 0.605 0.393 0.586Q0.395 0.568 0.388 0.552Q0.375 0.550 0.363 0.544Q0.352 0.539 0.340 0.539V0.603L0.345 0.610Q0.356 0.615 0.366 0.617Q0.377 0.619 0.386 0.624ZM0.601 0.607Q0.609 0.600 0.619 0.599Q0.630 0.598 0.640 0.592Q0.596 0.570 0.562 0.593Q0.570 0.595 0.580 0.598Q0.589 0.602 0.601 0.607ZM0.325 0.600V0.536L0.321 0.529Q0.307 0.524 0.296 0.521Q0.286 0.518 0.279 0.516L0.274 0.517Q0.275 0.536 0.274 0.553Q0.273 0.570 0.275 0.585Q0.288 0.591 0.299 0.595Q0.310 0.598 0.321 0.603ZM0.533 0.583Q0.544 0.579 0.553 0.576Q0.563 0.573 0.573 0.569Q0.562 0.563 0.552 0.561Q0.543 0.560 0.533 0.556Q0.528 0.560 0.524 0.560Q0.520 0.561 0.516 0.563Q0.511 0.562 0.505 0.566Q0.499 0.569 0.494 0.569Q0.505 0.573 0.514 0.577Q0.523 0.580 0.533 0.583ZM0.393 0.533V0.471Q0.389 0.465 0.386 0.461L0.384 0.460Q0.372 0.459 0.363 0.455Q0.355 0.451 0.345 0.447L0.340 0.450Q0.341 0.468 0.340 0.486Q0.339 0.503 0.342 0.517Q0.354 0.524 0.365 0.527Q0.376 0.529 0.386 0.536ZM0.325 0.511Q0.323 0.493 0.325 0.475Q0.327 0.457 0.322 0.441Q0.309 0.439 0.298 0.432Q0.287 0.426 0.274 0.426V0.494Q0.284 0.503 0.296 0.505Q0.308 0.506 0.319 0.513ZM0.393 0.444V0.380Q0.388 0.373 0.385 0.372Q0.375 0.370 0.364 0.366Q0.354 0.362 0.347 0.359L0.340 0.361V0.425L0.345 0.431Q0.356 0.435 0.366 0.438Q0.377 0.441 0.386 0.446ZM0.660 0.444V0.380L0.653 0.372Q0.641 0.370 0.630 0.365Q0.619 0.360 0.609 0.361V0.425L0.614 0.431Q0.624 0.435 0.635 0.438Q0.645 0.441 0.655 0.446ZM0.325 0.420Q0.323 0.402 0.325 0.386Q0.327 0.369 0.322 0.353Q0.312 0.350 0.302 0.345Q0.292 0.340 0.283 0.338H0.274V0.405Q0.284 0.412 0.296 0.414Q0.308 0.417 0.319 0.423ZM0.595 0.422Q0.591 0.403 0.594 0.386Q0.597 0.368 0.589 0.351Q0.576 0.349 0.565 0.343Q0.553 0.338 0.541 0.338V0.402L0.546 0.409Q0.556 0.414 0.567 0.416Q0.577 0.419 0.587 0.423ZM0.393 0.354Q0.390 0.336 0.393 0.319Q0.395 0.301 0.388 0.284Q0.375 0.282 0.362 0.276Q0.350 0.270 0.340 0.270V0.334L0.345 0.341Q0.356 0.347 0.366 0.349Q0.377 0.352 0.386 0.358ZM0.660 0.354Q0.658 0.336 0.660 0.319Q0.662 0.301 0.655 0.284Q0.644 0.282 0.634 0.278Q0.623 0.274 0.614 0.269L0.609 0.272Q0.610 0.291 0.609 0.307Q0.608 0.324 0.610 0.339Q0.622 0.345 0.633 0.349Q0.643 0.353 0.655 0.358ZM0.325 0.333Q0.323 0.316 0.325 0.298Q0.327 0.279 0.322 0.262Q0.309 0.259 0.298 0.255Q0.287 0.250 0.274 0.248V0.315Q0.284 0.322 0.296 0.325Q0.308 0.327 0.319 0.334ZM0.595 0.331V0.270Q0.590 0.265 0.587 0.260L0.584 0.259Q0.573 0.258 0.564 0.254Q0.555 0.250 0.546 0.246L0.541 0.250Q0.542 0.267 0.541 0.285Q0.540 0.302 0.543 0.317Q0.555 0.323 0.566 0.326Q0.576 0.328 0.587 0.334ZM0.668 0.272Q0.676 0.265 0.687 0.263Q0.698 0.261 0.707 0.258Q0.698 0.253 0.690 0.252Q0.682 0.250 0.674 0.245Q0.663 0.246 0.650 0.249Q0.637 0.252 0.629 0.259Q0.637 0.260 0.647 0.264Q0.657 0.267 0.668 0.272ZM0.393 0.265Q0.390 0.248 0.393 0.230Q0.395 0.212 0.388 0.195Q0.377 0.193 0.366 0.189Q0.356 0.184 0.347 0.180L0.340 0.182V0.246Q0.341 0.251 0.348 0.255Q0.358 0.256 0.368 0.260Q0.378 0.264 0.386 0.267ZM0.325 0.241Q0.323 0.224 0.325 0.207Q0.327 0.191 0.322 0.174Q0.309 0.171 0.298 0.165Q0.287 0.159 0.274 0.160V0.227Q0.284 0.235 0.296 0.236Q0.308 0.238 0.319 0.245ZM0.595 0.243V0.179Q0.588 0.173 0.585 0.171Q0.576 0.170 0.566 0.165Q0.555 0.161 0.548 0.158L0.541 0.160V0.224L0.546 0.231Q0.556 0.236 0.567 0.237Q0.577 0.239 0.587 0.245ZM0.526 0.218Q0.523 0.201 0.525 0.185Q0.527 0.169 0.523 0.152Q0.512 0.148 0.502 0.144Q0.492 0.140 0.483 0.137H0.475V0.204Q0.485 0.210 0.497 0.213Q0.509 0.216 0.520 0.222ZM0.459 0.200Q0.456 0.182 0.458 0.164Q0.460 0.146 0.455 0.129Q0.442 0.125 0.429 0.120Q0.417 0.115 0.408 0.115V0.179L0.413 0.185Q0.442 0.196 0.454 0.201ZM0.393 0.176V0.111Q0.391 0.109 0.389 0.107Q0.387 0.105 0.385 0.104Q0.373 0.103 0.361 0.098Q0.350 0.092 0.340 0.092V0.157L0.345 0.163Q0.356 0.168 0.366 0.170Q0.377 0.173 0.386 0.179ZM0.601 0.160Q0.610 0.153 0.621 0.152Q0.632 0.151 0.639 0.144Q0.620 0.136 0.599 0.136Q0.577 0.135 0.562 0.147Q0.572 0.148 0.581 0.153Q0.590 0.158 0.601 0.160ZM0.325 0.153Q0.324 0.149 0.325 0.144Q0.325 0.138 0.322 0.135Q0.315 0.138 0.307 0.141Q0.300 0.144 0.294 0.145Q0.301 0.146 0.307 0.150Q0.313 0.154 0.319 0.157ZM0.533 0.137Q0.544 0.132 0.552 0.130Q0.561 0.128 0.571 0.123Q0.560 0.118 0.550 0.116Q0.541 0.114 0.532 0.110Q0.521 0.115 0.511 0.118Q0.500 0.121 0.494 0.124Q0.505 0.126 0.514 0.131Q0.523 0.135 0.533 0.137ZM0.467 0.115Q0.476 0.109 0.487 0.108Q0.498 0.107 0.506 0.099Q0.481 0.093 0.474 0.089Q0.451 0.090 0.427 0.102Q0.448 0.108 0.465 0.115ZM0.401 0.092Q0.412 0.086 0.421 0.085Q0.430 0.083 0.440 0.079Q0.432 0.073 0.422 0.073Q0.413 0.072 0.407 0.066Q0.397 0.064 0.389 0.068Q0.381 0.072 0.374 0.072Q0.370 0.076 0.365 0.077Q0.361 0.077 0.361 0.081Q0.373 0.081 0.399 0.093Z" fill="black"/>
</svg>
