<svg xmlns="http://www.w3.org/2000/svg" viewBox="0 0 1 1" preserveAspectRatio="xMidYMid meet">
  <path d="M0.323 1.000Q0.309 0.991 0.293 0.988Q0.277 0.985 0.262 0.978Q0.259 0.775 0.261 0.573Q0.262 0.371 0.260 0.168Q0.312 0.151 0.364 0.131Q0.416 0.111 0.470 0.143L0.472 0.148Q0.473 0.223 0.472 0.298Q0.471 0.373 0.476 0.449Q0.488 0.448 0.499 0.443Q0.510 0.438 0.523 0.433Q0.528 0.393 0.526 0.354Q0.524 0.314 0.526 0.273V0.079Q0.552 0.071 0.577 0.062Q0.603 0.053 0.629 0.043Q0.684 0.022 0.737 0.053L0.740 0.058V0.863Q0.721 0.870 0.701 0.878Q0.681 0.885 0.661 0.894Q0.619 0.912 0.578 0.905Q0.567 0.902 0.554 0.898Q0.542 0.894 0.529 0.888L0.526 0.883V0.710V0.590L0.518 0.583Q0.509 0.585 0.498 0.590Q0.488 0.595 0.477 0.598L0.472 0.605V0.950L0.470 0.955Q0.434 0.966 0.398 0.980Q0.362 0.994 0.324 1.000H0.323ZM0.324 0.979Q0.323 0.961 0.324 0.945Q0.325 0.928 0.323 0.912Q0.311 0.905 0.300 0.902Q0.289 0.899 0.278 0.895L0.273 0.897Q0.274 0.916 0.273 0.932Q0.272 0.949 0.275 0.964Q0.287 0.970 0.298 0.974Q0.309 0.979 0.320 0.983ZM0.324 0.891Q0.322 0.873 0.324 0.855Q0.326 0.837 0.322 0.821Q0.311 0.818 0.300 0.814Q0.290 0.810 0.280 0.807L0.273 0.808V0.872L0.278 0.878Q0.289 0.882 0.299 0.885Q0.310 0.888 0.320 0.893ZM0.592 0.891Q0.589 0.873 0.592 0.855Q0.595 0.837 0.587 0.821Q0.577 0.816 0.567 0.814Q0.556 0.811 0.546 0.807L0.540 0.808V0.872Q0.543 0.878 0.548 0.880Q0.556 0.881 0.566 0.885Q0.575 0.888 0.586 0.893ZM0.324 0.802Q0.322 0.784 0.325 0.766Q0.327 0.748 0.320 0.731Q0.309 0.729 0.298 0.725Q0.288 0.722 0.278 0.718L0.273 0.721Q0.274 0.738 0.273 0.755Q0.272 0.771 0.275 0.788Q0.287 0.792 0.298 0.796Q0.309 0.800 0.320 0.805ZM0.592 0.802Q0.589 0.784 0.592 0.766Q0.595 0.748 0.587 0.731Q0.574 0.729 0.561 0.724Q0.549 0.718 0.540 0.718V0.783Q0.543 0.788 0.548 0.790Q0.558 0.792 0.567 0.797Q0.576 0.802 0.586 0.805ZM0.324 0.712V0.651L0.320 0.643Q0.309 0.640 0.298 0.636Q0.288 0.631 0.278 0.629L0.273 0.630V0.694L0.278 0.701Q0.289 0.705 0.299 0.707Q0.310 0.709 0.320 0.715ZM0.592 0.713Q0.589 0.695 0.592 0.677Q0.595 0.660 0.587 0.643Q0.577 0.639 0.567 0.636Q0.556 0.632 0.546 0.629L0.540 0.630V0.694L0.544 0.701Q0.555 0.704 0.566 0.707Q0.576 0.709 0.586 0.715ZM0.324 0.624Q0.322 0.606 0.325 0.588Q0.327 0.570 0.320 0.553Q0.309 0.550 0.298 0.546Q0.288 0.543 0.278 0.541L0.273 0.542Q0.274 0.560 0.273 0.577Q0.272 0.595 0.275 0.610Q0.287 0.614 0.298 0.618Q0.309 0.622 0.320 0.627ZM0.592 0.625V0.568L0.587 0.561Q0.576 0.569 0.562 0.571Q0.549 0.572 0.540 0.580V0.606Q0.550 0.615 0.564 0.618Q0.577 0.621 0.587 0.627ZM0.324 0.535V0.474L0.320 0.465Q0.309 0.461 0.298 0.457Q0.288 0.453 0.278 0.450L0.273 0.452V0.516Q0.276 0.522 0.282 0.524Q0.293 0.525 0.301 0.530Q0.310 0.535 0.320 0.538ZM0.477 0.492Q0.484 0.488 0.491 0.487Q0.498 0.487 0.504 0.483Q0.498 0.480 0.491 0.478Q0.485 0.476 0.480 0.474L0.474 0.475Q0.475 0.480 0.474 0.485Q0.473 0.490 0.476 0.492ZM0.534 0.475Q0.540 0.467 0.553 0.466Q0.566 0.464 0.572 0.458Q0.560 0.457 0.549 0.453Q0.539 0.448 0.529 0.448Q0.520 0.452 0.510 0.453Q0.500 0.454 0.495 0.462Q0.504 0.463 0.514 0.467Q0.524 0.472 0.534 0.475ZM0.324 0.448Q0.322 0.430 0.324 0.412Q0.326 0.394 0.322 0.377Q0.308 0.373 0.295 0.368Q0.283 0.363 0.273 0.363V0.427L0.278 0.433Q0.305 0.442 0.320 0.449ZM0.592 0.444Q0.589 0.427 0.591 0.411Q0.593 0.394 0.589 0.377Q0.581 0.374 0.573 0.371Q0.565 0.369 0.560 0.366Q0.557 0.366 0.544 0.362L0.540 0.365Q0.542 0.382 0.540 0.398Q0.538 0.415 0.543 0.432Q0.555 0.438 0.566 0.441Q0.577 0.443 0.587 0.449ZM0.324 0.357V0.296L0.320 0.288Q0.309 0.285 0.298 0.280Q0.288 0.275 0.278 0.273L0.273 0.275V0.338L0.278 0.345Q0.289 0.347 0.299 0.352Q0.310 0.357 0.320 0.360ZM0.592 0.358Q0.589 0.340 0.591 0.322Q0.593 0.304 0.589 0.288Q0.577 0.286 0.566 0.280Q0.555 0.275 0.544 0.273L0.540 0.276V0.337L0.544 0.343Q0.555 0.349 0.566 0.351Q0.576 0.354 0.586 0.360ZM0.324 0.268Q0.322 0.250 0.325 0.233Q0.327 0.215 0.320 0.198Q0.309 0.193 0.298 0.191Q0.288 0.188 0.278 0.183L0.273 0.187V0.251Q0.283 0.258 0.295 0.262Q0.308 0.265 0.318 0.270ZM0.592 0.268V0.204L0.587 0.198Q0.577 0.193 0.567 0.191Q0.556 0.188 0.546 0.183L0.540 0.185V0.249Q0.543 0.255 0.548 0.257Q0.558 0.258 0.567 0.263Q0.576 0.267 0.586 0.270ZM0.331 0.185Q0.341 0.181 0.352 0.177Q0.363 0.174 0.373 0.171Q0.362 0.169 0.351 0.165Q0.340 0.161 0.331 0.158Q0.325 0.161 0.316 0.164Q0.306 0.167 0.293 0.171Q0.303 0.174 0.312 0.177Q0.321 0.181 0.331 0.185ZM0.592 0.180Q0.589 0.162 0.591 0.144Q0.593 0.127 0.589 0.110Q0.577 0.107 0.566 0.103Q0.555 0.099 0.544 0.096L0.540 0.099V0.160L0.544 0.166Q0.563 0.171 0.586 0.182ZM0.400 0.164Q0.409 0.157 0.419 0.154Q0.430 0.152 0.438 0.149L0.437 0.146Q0.427 0.145 0.417 0.141Q0.407 0.136 0.398 0.135Q0.387 0.141 0.377 0.143Q0.366 0.145 0.359 0.149Q0.369 0.151 0.380 0.156Q0.390 0.161 0.400 0.164ZM0.599 0.097Q0.610 0.091 0.620 0.088Q0.631 0.084 0.639 0.082Q0.601 0.063 0.560 0.082Q0.568 0.084 0.578 0.088Q0.587 0.091 0.599 0.097ZM0.666 0.074Q0.674 0.068 0.685 0.066Q0.696 0.064 0.706 0.060Q0.696 0.055 0.687 0.053Q0.678 0.051 0.670 0.047Q0.658 0.049 0.647 0.053Q0.636 0.058 0.626 0.060Q0.636 0.064 0.646 0.066Q0.657 0.068 0.666 0.074Z" fill="black"/>
</svg>
