<svg xmlns="http://www.w3.org/2000/svg" viewBox="0 0 1 1" preserveAspectRatio="xMidYMid meet">
  <path d="M0.659 1.000Q0.627 0.986 0.595 0.977Q0.562 0.968 0.530 0.955Q0.527 0.869 0.528 0.782Q0.529 0.694 0.528 0.605L0.525 0.599Q0.515 0.591 0.501 0.588Q0.487 0.585 0.474 0.582Q0.471 0.659 0.472 0.733Q0.473 0.808 0.472 0.884Q0.443 0.905 0.406 0.906Q0.369 0.907 0.335 0.891Q0.316 0.885 0.298 0.879Q0.279 0.872 0.261 0.865Q0.258 0.728 0.260 0.591Q0.261 0.454 0.260 0.316V0.054Q0.272 0.049 0.286 0.043Q0.299 0.038 0.313 0.034Q0.327 0.030 0.342 0.032Q0.357 0.033 0.371 0.040Q0.394 0.047 0.418 0.056Q0.442 0.065 0.467 0.071L0.472 0.079V0.424Q0.473 0.431 0.482 0.434Q0.490 0.434 0.501 0.439Q0.511 0.444 0.520 0.448L0.526 0.446Q0.529 0.370 0.528 0.295Q0.526 0.221 0.528 0.144Q0.532 0.144 0.533 0.141Q0.535 0.138 0.540 0.136Q0.588 0.111 0.638 0.130Q0.688 0.150 0.739 0.164Q0.741 0.216 0.740 0.270Q0.739 0.323 0.741 0.378Q0.739 0.532 0.740 0.680Q0.742 0.828 0.737 0.978L0.729 0.983Q0.711 0.984 0.695 0.992Q0.679 1.000 0.662 1.000H0.659ZM0.661 0.979Q0.659 0.961 0.660 0.945Q0.661 0.928 0.659 0.912Q0.646 0.905 0.635 0.902Q0.624 0.899 0.614 0.895L0.609 0.897Q0.610 0.916 0.609 0.932Q0.608 0.949 0.610 0.964Q0.622 0.970 0.633 0.974Q0.644 0.978 0.655 0.983ZM0.595 0.957Q0.591 0.939 0.593 0.923Q0.596 0.907 0.591 0.889Q0.578 0.885 0.567 0.881Q0.556 0.876 0.546 0.872L0.541 0.874V0.939L0.546 0.945Q0.557 0.948 0.567 0.952Q0.577 0.955 0.587 0.959ZM0.393 0.891V0.827Q0.389 0.820 0.385 0.818Q0.375 0.817 0.364 0.813Q0.354 0.809 0.347 0.806L0.340 0.808V0.872L0.346 0.878Q0.356 0.883 0.366 0.885Q0.377 0.886 0.386 0.892ZM0.661 0.891Q0.658 0.873 0.660 0.855Q0.662 0.837 0.655 0.820Q0.644 0.817 0.634 0.813Q0.623 0.809 0.614 0.806L0.609 0.809V0.873Q0.618 0.882 0.630 0.884Q0.642 0.885 0.653 0.892ZM0.325 0.868Q0.323 0.851 0.326 0.832Q0.328 0.814 0.321 0.798Q0.308 0.793 0.296 0.789Q0.285 0.785 0.272 0.785V0.850Q0.276 0.856 0.280 0.857Q0.292 0.859 0.301 0.863Q0.310 0.868 0.319 0.870ZM0.595 0.868Q0.591 0.851 0.594 0.832Q0.597 0.814 0.589 0.798Q0.578 0.796 0.567 0.791Q0.555 0.787 0.548 0.784L0.541 0.785V0.850L0.546 0.856Q0.556 0.861 0.567 0.863Q0.577 0.866 0.587 0.870ZM0.393 0.801V0.740Q0.389 0.735 0.386 0.730Q0.375 0.728 0.362 0.723Q0.350 0.717 0.340 0.717V0.782L0.346 0.789Q0.356 0.793 0.366 0.795Q0.377 0.798 0.386 0.804ZM0.661 0.801Q0.658 0.784 0.660 0.765Q0.662 0.747 0.655 0.730Q0.644 0.728 0.634 0.724Q0.623 0.721 0.614 0.717L0.609 0.720Q0.610 0.737 0.609 0.754Q0.608 0.770 0.610 0.787Q0.622 0.792 0.633 0.796Q0.644 0.800 0.655 0.804ZM0.325 0.779Q0.323 0.762 0.325 0.744Q0.327 0.726 0.322 0.709Q0.311 0.704 0.300 0.702Q0.289 0.699 0.277 0.693L0.272 0.698V0.759L0.277 0.765Q0.289 0.770 0.299 0.773Q0.310 0.775 0.319 0.782ZM0.595 0.776V0.715Q0.590 0.708 0.584 0.706H0.578Q0.569 0.703 0.561 0.700Q0.553 0.697 0.546 0.693L0.541 0.697Q0.542 0.714 0.541 0.731Q0.540 0.748 0.543 0.764Q0.555 0.769 0.566 0.772Q0.576 0.775 0.587 0.782ZM0.393 0.712Q0.390 0.695 0.393 0.677Q0.395 0.659 0.388 0.641Q0.377 0.640 0.367 0.636Q0.357 0.631 0.347 0.627L0.340 0.629V0.693Q0.343 0.699 0.349 0.701Q0.354 0.702 0.363 0.706Q0.373 0.709 0.386 0.714ZM0.661 0.711V0.649L0.655 0.641Q0.644 0.639 0.634 0.635Q0.623 0.630 0.614 0.627L0.609 0.629V0.693L0.614 0.700Q0.624 0.704 0.635 0.706Q0.645 0.708 0.655 0.714ZM0.325 0.690Q0.323 0.673 0.326 0.654Q0.328 0.636 0.321 0.619Q0.310 0.615 0.299 0.612Q0.289 0.610 0.279 0.605L0.272 0.607V0.671Q0.275 0.677 0.280 0.679Q0.296 0.680 0.319 0.692ZM0.595 0.690V0.626Q0.589 0.619 0.586 0.618Q0.576 0.617 0.566 0.612Q0.555 0.608 0.548 0.605L0.541 0.607V0.671L0.546 0.678Q0.556 0.682 0.567 0.684Q0.577 0.686 0.587 0.692ZM0.393 0.622Q0.390 0.605 0.393 0.587Q0.395 0.569 0.388 0.552Q0.375 0.550 0.362 0.544Q0.350 0.539 0.340 0.539V0.604L0.346 0.610Q0.356 0.615 0.366 0.617Q0.377 0.620 0.386 0.626ZM0.661 0.622Q0.658 0.605 0.660 0.587Q0.662 0.569 0.655 0.552Q0.641 0.547 0.631 0.544Q0.620 0.541 0.614 0.539L0.609 0.541Q0.610 0.559 0.609 0.576Q0.608 0.592 0.610 0.609Q0.622 0.613 0.633 0.617Q0.644 0.621 0.655 0.626ZM0.325 0.600Q0.323 0.582 0.326 0.565Q0.328 0.547 0.321 0.529Q0.308 0.527 0.295 0.522Q0.283 0.516 0.272 0.516V0.580Q0.277 0.588 0.280 0.589Q0.292 0.590 0.301 0.595Q0.310 0.600 0.319 0.604ZM0.595 0.600V0.539Q0.588 0.529 0.587 0.529Q0.575 0.527 0.563 0.522Q0.551 0.516 0.541 0.516V0.580L0.546 0.587Q0.556 0.592 0.567 0.595Q0.577 0.598 0.587 0.604ZM0.526 0.579Q0.524 0.561 0.526 0.543Q0.528 0.525 0.523 0.509Q0.511 0.504 0.500 0.502Q0.489 0.499 0.479 0.492L0.474 0.497V0.558L0.479 0.565Q0.489 0.570 0.499 0.573Q0.510 0.575 0.520 0.580ZM0.459 0.555Q0.456 0.538 0.459 0.519Q0.461 0.501 0.454 0.485Q0.443 0.483 0.432 0.478Q0.422 0.473 0.413 0.472L0.408 0.473V0.538L0.413 0.544Q0.423 0.546 0.434 0.550Q0.445 0.555 0.454 0.558ZM0.393 0.533Q0.390 0.514 0.392 0.498Q0.394 0.482 0.390 0.465Q0.378 0.460 0.367 0.456Q0.356 0.452 0.346 0.448L0.340 0.450Q0.341 0.468 0.340 0.486Q0.339 0.503 0.342 0.518Q0.354 0.524 0.365 0.527Q0.376 0.530 0.386 0.536ZM0.661 0.533V0.472L0.655 0.463Q0.644 0.460 0.634 0.456Q0.623 0.452 0.614 0.449L0.609 0.450V0.515Q0.613 0.522 0.617 0.522Q0.627 0.524 0.636 0.528Q0.645 0.533 0.655 0.536ZM0.325 0.512Q0.323 0.494 0.326 0.476Q0.328 0.458 0.321 0.441Q0.310 0.436 0.299 0.433Q0.289 0.430 0.279 0.427L0.272 0.428V0.492L0.277 0.499Q0.289 0.503 0.299 0.505Q0.310 0.507 0.319 0.513ZM0.595 0.512Q0.591 0.494 0.594 0.476Q0.597 0.458 0.589 0.441Q0.578 0.439 0.568 0.434Q0.557 0.430 0.548 0.427L0.541 0.428V0.492Q0.545 0.500 0.550 0.501Q0.558 0.502 0.568 0.506Q0.578 0.510 0.587 0.513ZM0.526 0.488Q0.521 0.468 0.523 0.471Q0.511 0.476 0.504 0.478Q0.497 0.480 0.495 0.481Q0.502 0.483 0.508 0.486Q0.514 0.489 0.520 0.491ZM0.467 0.473Q0.475 0.466 0.487 0.465Q0.500 0.463 0.506 0.457Q0.495 0.456 0.484 0.451Q0.474 0.446 0.464 0.446Q0.454 0.451 0.444 0.452Q0.434 0.453 0.428 0.460Q0.443 0.462 0.467 0.473ZM0.393 0.443Q0.390 0.425 0.392 0.409Q0.394 0.392 0.390 0.375Q0.378 0.369 0.367 0.367Q0.356 0.365 0.346 0.360L0.340 0.363V0.427Q0.351 0.435 0.364 0.439Q0.377 0.442 0.388 0.448ZM0.661 0.443Q0.658 0.425 0.659 0.409Q0.661 0.392 0.657 0.375Q0.643 0.371 0.631 0.366Q0.618 0.361 0.609 0.361V0.425L0.614 0.431Q0.641 0.441 0.655 0.448ZM0.325 0.420Q0.323 0.402 0.325 0.386Q0.327 0.370 0.322 0.353Q0.311 0.347 0.300 0.345Q0.289 0.342 0.277 0.336L0.272 0.340V0.404Q0.283 0.413 0.296 0.416Q0.310 0.419 0.321 0.425ZM0.595 0.422V0.358Q0.589 0.351 0.586 0.350Q0.574 0.349 0.562 0.343Q0.551 0.338 0.541 0.338V0.402L0.546 0.409Q0.556 0.414 0.567 0.416Q0.577 0.419 0.587 0.425ZM0.393 0.355Q0.390 0.336 0.392 0.320Q0.394 0.304 0.390 0.287Q0.378 0.283 0.367 0.278Q0.356 0.274 0.346 0.269L0.340 0.272V0.336L0.346 0.343Q0.356 0.346 0.366 0.349Q0.376 0.353 0.386 0.358ZM0.661 0.355V0.293L0.655 0.285Q0.644 0.282 0.634 0.277Q0.623 0.273 0.614 0.270L0.609 0.272V0.336L0.614 0.343Q0.624 0.345 0.635 0.349Q0.645 0.354 0.655 0.358ZM0.325 0.333Q0.323 0.316 0.326 0.298Q0.328 0.279 0.321 0.262Q0.310 0.258 0.299 0.255Q0.289 0.252 0.279 0.249L0.272 0.250V0.314Q0.275 0.320 0.280 0.322Q0.296 0.323 0.319 0.335ZM0.595 0.331Q0.591 0.314 0.593 0.298Q0.596 0.282 0.591 0.264Q0.578 0.259 0.567 0.256Q0.556 0.252 0.546 0.247L0.541 0.250V0.314Q0.545 0.320 0.550 0.322Q0.560 0.323 0.569 0.327Q0.577 0.331 0.587 0.335ZM0.393 0.266Q0.390 0.248 0.393 0.230Q0.395 0.212 0.388 0.195Q0.375 0.193 0.364 0.188Q0.353 0.182 0.340 0.182V0.247L0.346 0.253Q0.356 0.258 0.366 0.261Q0.377 0.263 0.386 0.267ZM0.661 0.266Q0.658 0.248 0.660 0.230Q0.662 0.212 0.655 0.195Q0.644 0.191 0.634 0.189Q0.623 0.186 0.614 0.181L0.609 0.184V0.249Q0.618 0.256 0.630 0.260Q0.642 0.263 0.653 0.267ZM0.325 0.242Q0.323 0.224 0.325 0.207Q0.327 0.191 0.322 0.174Q0.311 0.169 0.300 0.167Q0.289 0.165 0.277 0.159L0.272 0.162V0.226Q0.283 0.235 0.296 0.238Q0.310 0.241 0.321 0.247ZM0.595 0.242Q0.591 0.224 0.593 0.207Q0.596 0.191 0.591 0.174Q0.578 0.169 0.567 0.167Q0.556 0.165 0.546 0.159L0.541 0.162V0.226Q0.552 0.235 0.565 0.238Q0.578 0.241 0.589 0.247ZM0.667 0.182Q0.677 0.179 0.688 0.175Q0.698 0.172 0.708 0.168Q0.697 0.166 0.686 0.162Q0.676 0.158 0.667 0.154Q0.657 0.160 0.646 0.163Q0.636 0.166 0.628 0.168Q0.639 0.172 0.648 0.175Q0.657 0.179 0.667 0.182ZM0.393 0.176V0.115Q0.389 0.110 0.386 0.106L0.384 0.104Q0.373 0.103 0.364 0.099Q0.355 0.095 0.346 0.090L0.340 0.093Q0.341 0.112 0.340 0.129Q0.339 0.146 0.342 0.162Q0.354 0.168 0.365 0.171Q0.376 0.174 0.386 0.179ZM0.601 0.160Q0.611 0.157 0.620 0.152Q0.629 0.148 0.639 0.148L0.640 0.145Q0.630 0.143 0.619 0.139Q0.609 0.135 0.599 0.132Q0.589 0.137 0.579 0.140Q0.568 0.143 0.560 0.145Q0.571 0.150 0.580 0.153Q0.589 0.155 0.599 0.160ZM0.325 0.153Q0.324 0.135 0.325 0.118Q0.326 0.102 0.324 0.086Q0.312 0.080 0.301 0.078Q0.290 0.075 0.279 0.070L0.272 0.071Q0.274 0.089 0.273 0.107Q0.271 0.124 0.274 0.139Q0.287 0.145 0.297 0.147Q0.308 0.149 0.319 0.157ZM0.399 0.093Q0.408 0.088 0.419 0.086Q0.431 0.083 0.440 0.079Q0.430 0.075 0.422 0.073Q0.415 0.071 0.407 0.067Q0.387 0.067 0.361 0.081Q0.377 0.083 0.399 0.093ZM0.332 0.071Q0.342 0.066 0.353 0.064Q0.363 0.061 0.372 0.057Q0.334 0.038 0.294 0.057Q0.303 0.062 0.313 0.064Q0.323 0.066 0.332 0.071Z" fill="black"/>
</svg>
