<svg xmlns="http://www.w3.org/2000/svg" viewBox="0 0 1 1" preserveAspectRatio="xMidYMid meet">
  <path d="M0.326 1.000 0.332 0.998Q0.434 0.968 0.533 0.934Q0.632 0.899 0.734 0.866L0.738 0.862Q0.736 0.836 0.737 0.813Q0.738 0.790 0.736 0.766Q0.703 0.752 0.671 0.748Q0.639 0.745 0.608 0.761L0.605 0.756Q0.607 0.615 0.605 0.478Q0.603 0.341 0.608 0.201Q0.637 0.191 0.666 0.182Q0.695 0.173 0.724 0.162Q0.727 0.166 0.730 0.162Q0.733 0.159 0.734 0.159Q0.739 0.144 0.737 0.130Q0.736 0.116 0.738 0.100Q0.736 0.089 0.737 0.079Q0.738 0.068 0.736 0.058Q0.697 0.047 0.659 0.049Q0.620 0.051 0.581 0.060Q0.543 0.070 0.504 0.085Q0.465 0.101 0.427 0.116Q0.388 0.131 0.350 0.144Q0.312 0.158 0.273 0.164Q0.262 0.170 0.262 0.172V0.263L0.265 0.268Q0.336 0.302 0.389 0.273L0.394 0.278V0.826L0.388 0.835L0.385 0.837Q0.354 0.848 0.321 0.858Q0.288 0.868 0.262 0.880V0.977Q0.295 0.987 0.326 1.000ZM0.320 0.981Q0.309 0.977 0.297 0.973Q0.285 0.970 0.275 0.961V0.897L0.280 0.896Q0.289 0.899 0.299 0.902Q0.310 0.904 0.321 0.910Q0.328 0.926 0.326 0.944Q0.323 0.961 0.326 0.979ZM0.332 0.896Q0.323 0.893 0.314 0.890Q0.305 0.886 0.295 0.882Q0.303 0.880 0.313 0.877Q0.323 0.874 0.332 0.870Q0.341 0.872 0.352 0.876Q0.363 0.880 0.374 0.882Q0.364 0.885 0.354 0.890Q0.343 0.894 0.332 0.896ZM0.399 0.876Q0.388 0.871 0.379 0.867Q0.369 0.864 0.361 0.862Q0.367 0.858 0.378 0.855Q0.388 0.852 0.397 0.848Q0.408 0.851 0.417 0.853Q0.427 0.855 0.438 0.860Q0.432 0.866 0.419 0.867Q0.407 0.869 0.399 0.876ZM0.453 0.849Q0.445 0.846 0.435 0.841Q0.425 0.837 0.416 0.835Q0.411 0.833 0.408 0.828V0.764L0.412 0.762Q0.419 0.764 0.430 0.768Q0.441 0.772 0.456 0.778Q0.461 0.795 0.459 0.811Q0.457 0.827 0.460 0.846ZM0.608 0.804Q0.605 0.801 0.606 0.796Q0.608 0.791 0.607 0.787L0.613 0.785Q0.619 0.787 0.624 0.789Q0.629 0.792 0.637 0.795Q0.631 0.797 0.624 0.799Q0.617 0.802 0.610 0.804ZM0.666 0.787Q0.654 0.782 0.645 0.778Q0.635 0.774 0.627 0.773Q0.633 0.769 0.643 0.767Q0.652 0.764 0.663 0.759Q0.686 0.762 0.704 0.771Q0.695 0.778 0.684 0.779Q0.674 0.779 0.666 0.787ZM0.453 0.761Q0.444 0.755 0.433 0.753Q0.423 0.750 0.412 0.745L0.408 0.739V0.675Q0.417 0.675 0.429 0.680Q0.442 0.685 0.455 0.688Q0.462 0.704 0.460 0.722Q0.457 0.740 0.460 0.757ZM0.453 0.672Q0.443 0.666 0.432 0.663Q0.421 0.661 0.410 0.654Q0.407 0.639 0.408 0.622Q0.409 0.606 0.408 0.587L0.412 0.584Q0.423 0.588 0.434 0.593Q0.445 0.598 0.456 0.602Q0.461 0.619 0.459 0.635Q0.457 0.650 0.460 0.669ZM0.455 0.584Q0.444 0.578 0.431 0.575Q0.418 0.572 0.408 0.563V0.499L0.412 0.496Q0.423 0.502 0.434 0.504Q0.445 0.506 0.456 0.512Q0.461 0.529 0.459 0.545Q0.457 0.561 0.460 0.579ZM0.453 0.495Q0.443 0.490 0.433 0.486Q0.423 0.483 0.412 0.481L0.408 0.474V0.411L0.412 0.408Q0.423 0.412 0.434 0.416Q0.445 0.420 0.456 0.425Q0.461 0.442 0.459 0.458Q0.457 0.474 0.460 0.492ZM0.453 0.405Q0.444 0.401 0.433 0.399Q0.423 0.396 0.412 0.391L0.408 0.385V0.321L0.414 0.319Q0.421 0.322 0.431 0.327Q0.442 0.331 0.452 0.332Q0.453 0.333 0.455 0.335Q0.457 0.336 0.460 0.340V0.400ZM0.453 0.318Q0.443 0.312 0.432 0.309Q0.421 0.306 0.410 0.301Q0.407 0.293 0.408 0.286Q0.409 0.279 0.408 0.271L0.417 0.265H0.424Q0.431 0.261 0.439 0.260Q0.447 0.258 0.455 0.253L0.458 0.254Q0.460 0.268 0.459 0.283Q0.458 0.298 0.460 0.313ZM0.321 0.273Q0.312 0.270 0.303 0.266Q0.294 0.261 0.284 0.260Q0.279 0.258 0.275 0.253V0.189L0.280 0.187Q0.289 0.190 0.299 0.194Q0.310 0.198 0.321 0.201L0.326 0.209V0.270ZM0.334 0.189Q0.324 0.183 0.315 0.181Q0.305 0.180 0.295 0.174Q0.303 0.170 0.312 0.168Q0.321 0.167 0.330 0.162Q0.340 0.162 0.351 0.167Q0.362 0.172 0.372 0.173Q0.366 0.180 0.354 0.181Q0.341 0.182 0.334 0.189ZM0.399 0.167Q0.389 0.164 0.380 0.160Q0.371 0.155 0.361 0.152Q0.366 0.152 0.371 0.148Q0.377 0.144 0.383 0.145Q0.387 0.143 0.390 0.143Q0.394 0.143 0.399 0.139Q0.409 0.143 0.419 0.145Q0.429 0.146 0.439 0.152Q0.430 0.155 0.420 0.159Q0.411 0.162 0.399 0.167ZM0.466 0.144Q0.456 0.142 0.447 0.138Q0.438 0.133 0.428 0.132Q0.443 0.120 0.464 0.120Q0.486 0.121 0.505 0.128Q0.497 0.135 0.486 0.137Q0.476 0.138 0.466 0.144ZM0.532 0.122Q0.521 0.119 0.513 0.115Q0.504 0.111 0.494 0.108Q0.496 0.107 0.499 0.106Q0.502 0.106 0.506 0.103Q0.512 0.103 0.518 0.100Q0.524 0.097 0.532 0.095Q0.541 0.098 0.551 0.102Q0.562 0.106 0.573 0.108Q0.564 0.112 0.553 0.115Q0.543 0.118 0.532 0.122ZM0.599 0.101Q0.587 0.096 0.578 0.092Q0.568 0.088 0.560 0.086Q0.566 0.083 0.577 0.080Q0.587 0.077 0.598 0.072Q0.606 0.076 0.616 0.078Q0.626 0.080 0.637 0.085Q0.627 0.089 0.618 0.093Q0.609 0.097 0.599 0.101ZM0.665 0.077Q0.637 0.067 0.626 0.065Q0.654 0.043 0.706 0.063Q0.698 0.068 0.687 0.070Q0.676 0.071 0.666 0.077Z" fill="black"/>
</svg>
