<svg xmlns="http://www.w3.org/2000/svg" viewBox="0 0 1 1" preserveAspectRatio="xMidYMid meet">
  <path d="M0.660 1.000Q0.561 0.962 0.462 0.932Q0.362 0.902 0.262 0.864Q0.259 0.839 0.260 0.815Q0.261 0.791 0.260 0.765Q0.275 0.759 0.291 0.754Q0.306 0.748 0.322 0.746Q0.338 0.744 0.354 0.746Q0.369 0.749 0.386 0.759H0.391Q0.395 0.618 0.393 0.480Q0.391 0.342 0.394 0.199L0.389 0.195Q0.357 0.183 0.327 0.173Q0.296 0.164 0.264 0.151L0.260 0.147V0.054Q0.300 0.022 0.348 0.035Q0.371 0.041 0.395 0.048Q0.418 0.055 0.442 0.063Q0.518 0.089 0.590 0.112Q0.662 0.135 0.736 0.161L0.740 0.168V0.260Q0.676 0.297 0.609 0.268Q0.607 0.410 0.607 0.549Q0.606 0.689 0.610 0.831Q0.640 0.843 0.670 0.853Q0.700 0.862 0.729 0.872Q0.738 0.876 0.739 0.878Q0.741 0.900 0.740 0.925Q0.739 0.949 0.740 0.973L0.737 0.978Q0.720 0.982 0.702 0.989Q0.684 0.997 0.666 0.998L0.660 1.000ZM0.660 0.979Q0.658 0.961 0.660 0.944Q0.662 0.926 0.655 0.909Q0.644 0.903 0.633 0.901Q0.622 0.899 0.613 0.894L0.609 0.896V0.961Q0.618 0.968 0.631 0.973Q0.643 0.977 0.654 0.981ZM0.595 0.956Q0.592 0.938 0.594 0.920Q0.597 0.902 0.590 0.886Q0.577 0.884 0.563 0.879Q0.550 0.873 0.541 0.873V0.937L0.546 0.944Q0.556 0.948 0.567 0.951Q0.578 0.954 0.588 0.959ZM0.527 0.934V0.873L0.522 0.865Q0.509 0.862 0.496 0.856Q0.483 0.851 0.474 0.851V0.916Q0.476 0.919 0.482 0.923Q0.492 0.925 0.501 0.929Q0.511 0.934 0.521 0.937ZM0.460 0.912V0.851L0.455 0.842Q0.431 0.832 0.412 0.828L0.408 0.830V0.894L0.412 0.900Q0.423 0.901 0.434 0.907Q0.445 0.912 0.455 0.916ZM0.666 0.895Q0.677 0.893 0.688 0.889Q0.699 0.884 0.708 0.881Q0.698 0.879 0.687 0.875Q0.676 0.871 0.666 0.868Q0.660 0.871 0.650 0.874Q0.641 0.877 0.627 0.881Q0.639 0.885 0.648 0.889Q0.657 0.892 0.666 0.895ZM0.392 0.889V0.828L0.387 0.820Q0.371 0.815 0.361 0.811Q0.350 0.807 0.345 0.804L0.341 0.807V0.872L0.345 0.878Q0.356 0.880 0.366 0.884Q0.376 0.887 0.387 0.892ZM0.599 0.873Q0.610 0.869 0.620 0.866Q0.631 0.863 0.641 0.860Q0.634 0.854 0.623 0.854Q0.614 0.854 0.607 0.848Q0.595 0.849 0.582 0.853Q0.569 0.857 0.560 0.860Q0.568 0.862 0.577 0.865Q0.586 0.868 0.599 0.873ZM0.326 0.865V0.804L0.322 0.798Q0.310 0.793 0.300 0.790Q0.289 0.788 0.280 0.784L0.273 0.785Q0.275 0.803 0.273 0.820Q0.272 0.836 0.275 0.852L0.281 0.857Q0.296 0.858 0.320 0.870ZM0.527 0.842V0.782L0.522 0.775Q0.512 0.770 0.501 0.767Q0.490 0.764 0.480 0.760L0.474 0.762V0.827Q0.478 0.833 0.482 0.834Q0.497 0.835 0.521 0.848ZM0.460 0.822Q0.457 0.804 0.459 0.788Q0.461 0.771 0.456 0.754Q0.443 0.751 0.431 0.744Q0.420 0.738 0.408 0.738V0.806Q0.417 0.814 0.430 0.816Q0.443 0.817 0.453 0.825ZM0.392 0.799Q0.389 0.783 0.391 0.785L0.387 0.784Q0.380 0.788 0.372 0.789Q0.364 0.791 0.361 0.794Q0.368 0.794 0.374 0.797Q0.381 0.801 0.387 0.803ZM0.333 0.785Q0.343 0.777 0.353 0.776Q0.363 0.775 0.372 0.770Q0.364 0.766 0.354 0.763Q0.344 0.760 0.333 0.757Q0.323 0.760 0.312 0.764Q0.302 0.768 0.294 0.770Q0.303 0.775 0.313 0.778Q0.324 0.780 0.333 0.785ZM0.527 0.754Q0.524 0.737 0.526 0.720Q0.528 0.703 0.524 0.687Q0.512 0.681 0.500 0.679Q0.489 0.677 0.479 0.671L0.474 0.674V0.738Q0.484 0.747 0.498 0.750Q0.512 0.753 0.522 0.759ZM0.460 0.734Q0.457 0.715 0.459 0.698Q0.462 0.680 0.455 0.663Q0.444 0.661 0.433 0.657Q0.422 0.652 0.412 0.649L0.408 0.651Q0.409 0.670 0.408 0.686Q0.407 0.703 0.409 0.720Q0.421 0.724 0.432 0.728Q0.444 0.732 0.455 0.737ZM0.527 0.664V0.603L0.522 0.597Q0.512 0.592 0.501 0.589Q0.490 0.586 0.480 0.582L0.474 0.584Q0.475 0.602 0.474 0.619Q0.472 0.636 0.475 0.651L0.482 0.657Q0.498 0.659 0.521 0.669ZM0.460 0.643V0.582L0.455 0.574Q0.444 0.571 0.433 0.567Q0.422 0.562 0.412 0.559L0.408 0.561V0.626L0.412 0.632Q0.423 0.637 0.434 0.639Q0.445 0.640 0.455 0.646ZM0.527 0.576Q0.524 0.558 0.526 0.542Q0.528 0.525 0.524 0.508Q0.512 0.502 0.500 0.499Q0.489 0.497 0.479 0.492L0.474 0.495Q0.476 0.513 0.474 0.530Q0.472 0.547 0.477 0.563Q0.489 0.569 0.500 0.572Q0.512 0.575 0.522 0.580ZM0.460 0.555Q0.457 0.537 0.459 0.519Q0.462 0.501 0.455 0.485Q0.441 0.480 0.430 0.477Q0.420 0.474 0.412 0.472L0.408 0.473Q0.409 0.491 0.408 0.508Q0.407 0.525 0.409 0.541Q0.421 0.546 0.432 0.550Q0.444 0.554 0.455 0.558ZM0.527 0.489Q0.524 0.471 0.526 0.453Q0.528 0.435 0.524 0.419Q0.500 0.413 0.479 0.402L0.474 0.405Q0.475 0.424 0.474 0.441Q0.472 0.457 0.475 0.473Q0.487 0.479 0.498 0.481Q0.510 0.484 0.521 0.491ZM0.460 0.465V0.403L0.455 0.396Q0.444 0.392 0.433 0.388Q0.422 0.384 0.412 0.381L0.408 0.383V0.447Q0.411 0.453 0.416 0.455Q0.427 0.456 0.436 0.460Q0.445 0.464 0.455 0.468ZM0.527 0.397Q0.524 0.380 0.526 0.363Q0.528 0.347 0.524 0.330Q0.512 0.324 0.500 0.322Q0.489 0.319 0.479 0.314L0.474 0.317V0.381Q0.483 0.391 0.498 0.393Q0.513 0.395 0.522 0.402ZM0.460 0.377Q0.457 0.359 0.459 0.341Q0.462 0.323 0.455 0.306Q0.444 0.301 0.433 0.299Q0.422 0.297 0.412 0.293L0.408 0.295Q0.409 0.313 0.408 0.330Q0.407 0.347 0.409 0.362Q0.421 0.367 0.432 0.371Q0.444 0.375 0.455 0.380ZM0.527 0.309V0.248L0.522 0.240Q0.509 0.237 0.496 0.231Q0.483 0.226 0.474 0.226V0.290L0.479 0.297Q0.489 0.301 0.500 0.303Q0.511 0.306 0.521 0.312ZM0.460 0.287Q0.458 0.269 0.459 0.253Q0.460 0.236 0.458 0.218Q0.446 0.214 0.434 0.210Q0.423 0.205 0.412 0.203L0.408 0.204Q0.409 0.223 0.408 0.240Q0.407 0.257 0.409 0.272Q0.421 0.278 0.432 0.281Q0.444 0.284 0.455 0.290ZM0.660 0.264V0.203L0.655 0.195Q0.644 0.192 0.633 0.188Q0.622 0.183 0.613 0.180L0.609 0.182V0.247Q0.613 0.253 0.617 0.254Q0.627 0.256 0.637 0.260Q0.646 0.264 0.655 0.267ZM0.595 0.242Q0.592 0.224 0.594 0.207Q0.596 0.191 0.591 0.174Q0.579 0.170 0.568 0.165Q0.556 0.161 0.546 0.158L0.541 0.160V0.224Q0.544 0.230 0.549 0.233Q0.558 0.234 0.569 0.238Q0.579 0.242 0.588 0.245ZM0.527 0.221Q0.524 0.203 0.527 0.185Q0.530 0.168 0.522 0.150Q0.512 0.145 0.501 0.143Q0.490 0.140 0.480 0.135L0.474 0.137V0.201Q0.479 0.208 0.482 0.209Q0.490 0.210 0.500 0.214Q0.510 0.217 0.521 0.223ZM0.460 0.198V0.134L0.455 0.128Q0.444 0.124 0.433 0.120Q0.422 0.116 0.412 0.115L0.408 0.116V0.180Q0.417 0.188 0.430 0.192Q0.443 0.195 0.453 0.199ZM0.668 0.182Q0.675 0.175 0.688 0.174Q0.701 0.174 0.707 0.166Q0.696 0.166 0.685 0.160Q0.674 0.154 0.665 0.154Q0.655 0.160 0.646 0.161Q0.637 0.163 0.627 0.168Q0.639 0.174 0.648 0.175Q0.658 0.176 0.668 0.182ZM0.392 0.177V0.113L0.387 0.105Q0.375 0.101 0.365 0.099Q0.354 0.097 0.345 0.090L0.341 0.093V0.158Q0.351 0.167 0.364 0.170Q0.377 0.174 0.389 0.179ZM0.601 0.160Q0.611 0.153 0.620 0.152Q0.630 0.151 0.640 0.145Q0.597 0.123 0.561 0.147Q0.573 0.148 0.582 0.153Q0.591 0.158 0.601 0.160ZM0.326 0.151Q0.323 0.133 0.325 0.117Q0.327 0.102 0.323 0.084Q0.310 0.079 0.299 0.077Q0.288 0.074 0.278 0.068L0.273 0.071V0.135Q0.283 0.144 0.297 0.147Q0.310 0.150 0.322 0.157ZM0.533 0.137Q0.544 0.133 0.554 0.131Q0.563 0.128 0.574 0.123Q0.529 0.107 0.494 0.123Q0.502 0.126 0.512 0.130Q0.522 0.133 0.533 0.137ZM0.466 0.115Q0.476 0.111 0.487 0.107Q0.497 0.104 0.508 0.101Q0.496 0.099 0.486 0.095Q0.475 0.090 0.466 0.087Q0.458 0.089 0.452 0.092Q0.447 0.096 0.441 0.096Q0.436 0.099 0.433 0.099Q0.429 0.100 0.427 0.101Q0.437 0.104 0.447 0.107Q0.456 0.111 0.466 0.115ZM0.400 0.092Q0.410 0.089 0.419 0.085Q0.428 0.081 0.438 0.081L0.441 0.077Q0.395 0.061 0.360 0.077Q0.370 0.083 0.380 0.086Q0.389 0.088 0.399 0.092ZM0.333 0.071Q0.341 0.064 0.353 0.062Q0.364 0.060 0.372 0.055Q0.361 0.053 0.351 0.049Q0.340 0.046 0.331 0.043Q0.322 0.047 0.311 0.049Q0.300 0.052 0.294 0.057Q0.311 0.061 0.333 0.071Z" fill="black"/>
</svg>
