<svg xmlns="http://www.w3.org/2000/svg" viewBox="0 0 1 1" preserveAspectRatio="xMidYMid meet">
  <path d="M0.393 0.976Q0.378 0.967 0.361 0.963Q0.345 0.958 0.329 0.951Q0.328 0.941 0.329 0.930Q0.330 0.919 0.325 0.907Q0.309 0.899 0.294 0.897Q0.279 0.894 0.264 0.884Q0.261 0.838 0.262 0.793Q0.264 0.748 0.262 0.701Q0.335 0.667 0.410 0.653Q0.422 0.661 0.439 0.664Q0.456 0.668 0.471 0.676L0.474 0.681V0.798L0.479 0.801Q0.489 0.801 0.501 0.796Q0.512 0.792 0.524 0.788L0.529 0.780V0.082L0.532 0.077Q0.565 0.066 0.599 0.055Q0.634 0.044 0.669 0.034Q0.686 0.040 0.703 0.044Q0.719 0.048 0.734 0.054L0.738 0.062Q0.738 0.772 0.735 0.774Q0.732 0.775 0.727 0.779Q0.717 0.782 0.704 0.786Q0.692 0.790 0.676 0.797Q0.672 0.817 0.674 0.839Q0.675 0.862 0.673 0.883Q0.606 0.909 0.536 0.932Q0.465 0.956 0.395 0.976H0.393ZM0.395 0.954V0.897L0.391 0.892Q0.380 0.896 0.368 0.901Q0.357 0.905 0.346 0.907L0.342 0.914V0.936L0.346 0.941Q0.357 0.946 0.368 0.949Q0.379 0.952 0.388 0.957ZM0.328 0.886Q0.325 0.868 0.327 0.852Q0.329 0.835 0.325 0.819Q0.310 0.816 0.299 0.810Q0.288 0.805 0.277 0.805Q0.279 0.823 0.277 0.840Q0.275 0.858 0.280 0.874Q0.290 0.878 0.301 0.882Q0.311 0.885 0.322 0.891ZM0.477 0.847Q0.485 0.840 0.492 0.840Q0.501 0.840 0.508 0.836Q0.503 0.831 0.495 0.831Q0.488 0.831 0.482 0.827L0.476 0.829Q0.477 0.833 0.476 0.838Q0.475 0.842 0.477 0.847ZM0.535 0.829Q0.543 0.821 0.554 0.820Q0.565 0.818 0.574 0.814Q0.554 0.806 0.533 0.804Q0.512 0.802 0.496 0.815Q0.507 0.817 0.516 0.821Q0.525 0.825 0.535 0.829ZM0.328 0.798Q0.325 0.780 0.327 0.764Q0.329 0.748 0.325 0.732Q0.314 0.728 0.304 0.724Q0.294 0.720 0.284 0.717H0.277V0.784Q0.286 0.790 0.298 0.793Q0.310 0.796 0.322 0.801ZM0.594 0.800Q0.591 0.783 0.593 0.764Q0.596 0.746 0.589 0.730Q0.576 0.728 0.565 0.723Q0.553 0.717 0.541 0.717V0.780L0.546 0.788Q0.556 0.792 0.567 0.794Q0.578 0.797 0.588 0.801ZM0.334 0.717Q0.345 0.713 0.355 0.710Q0.364 0.707 0.373 0.703Q0.363 0.698 0.353 0.696Q0.343 0.694 0.334 0.690Q0.327 0.691 0.321 0.695Q0.315 0.698 0.308 0.698Q0.304 0.701 0.301 0.702Q0.298 0.702 0.296 0.703Q0.306 0.706 0.316 0.710Q0.325 0.713 0.334 0.717ZM0.594 0.710Q0.591 0.693 0.593 0.675Q0.596 0.658 0.589 0.640Q0.576 0.638 0.563 0.633Q0.550 0.628 0.541 0.628V0.691L0.546 0.698Q0.556 0.703 0.567 0.705Q0.578 0.707 0.588 0.713ZM0.401 0.695Q0.411 0.689 0.420 0.687Q0.429 0.685 0.440 0.681Q0.428 0.676 0.419 0.674Q0.409 0.672 0.399 0.668Q0.390 0.672 0.380 0.676Q0.369 0.680 0.361 0.681Q0.371 0.684 0.381 0.688Q0.390 0.691 0.399 0.695ZM0.594 0.623Q0.591 0.605 0.593 0.587Q0.596 0.570 0.589 0.553Q0.579 0.551 0.568 0.546Q0.557 0.542 0.547 0.539L0.541 0.540V0.604Q0.544 0.610 0.549 0.612Q0.558 0.614 0.569 0.617Q0.579 0.621 0.588 0.624ZM0.594 0.534Q0.592 0.515 0.593 0.499Q0.595 0.483 0.592 0.467Q0.564 0.453 0.541 0.450V0.514L0.546 0.520Q0.556 0.525 0.567 0.528Q0.578 0.532 0.588 0.537ZM0.594 0.443V0.382L0.589 0.376Q0.579 0.372 0.568 0.368Q0.557 0.365 0.547 0.362L0.541 0.364V0.427Q0.544 0.433 0.549 0.435Q0.565 0.436 0.588 0.448ZM0.594 0.357V0.293Q0.589 0.287 0.586 0.285Q0.574 0.284 0.562 0.279Q0.550 0.274 0.541 0.274V0.337L0.546 0.343Q0.556 0.349 0.567 0.351Q0.578 0.354 0.588 0.360ZM0.594 0.267Q0.591 0.250 0.593 0.234Q0.595 0.217 0.591 0.200Q0.579 0.196 0.568 0.192Q0.556 0.188 0.546 0.183L0.541 0.186V0.250Q0.544 0.255 0.549 0.258Q0.564 0.260 0.588 0.270ZM0.594 0.178Q0.591 0.161 0.593 0.144Q0.595 0.128 0.591 0.111Q0.579 0.106 0.568 0.104Q0.556 0.102 0.546 0.096L0.541 0.099V0.163Q0.551 0.171 0.565 0.174Q0.579 0.177 0.589 0.183ZM0.600 0.097Q0.610 0.092 0.619 0.090Q0.629 0.087 0.639 0.082Q0.612 0.073 0.599 0.070Q0.589 0.075 0.579 0.077Q0.570 0.079 0.564 0.084Q0.573 0.088 0.581 0.091Q0.590 0.093 0.599 0.097ZM0.665 0.074Q0.691 0.067 0.707 0.062Q0.700 0.056 0.690 0.055Q0.680 0.055 0.673 0.049Q0.649 0.052 0.628 0.062Q0.638 0.065 0.647 0.068Q0.656 0.071 0.665 0.074Z" fill="black"/>
</svg>
