<svg xmlns="http://www.w3.org/2000/svg" viewBox="0 0 1 1" preserveAspectRatio="xMidYMid meet">
  <path d="M0.593 0.977Q0.526 0.951 0.460 0.931Q0.395 0.911 0.330 0.886Q0.327 0.876 0.327 0.865Q0.327 0.854 0.328 0.842Q0.329 0.831 0.328 0.820Q0.327 0.809 0.322 0.797Q0.308 0.791 0.293 0.786Q0.278 0.780 0.262 0.774Q0.258 0.729 0.259 0.683Q0.261 0.638 0.259 0.589L0.263 0.584Q0.313 0.552 0.365 0.572Q0.392 0.582 0.417 0.590Q0.442 0.599 0.469 0.607L0.472 0.612V0.779L0.475 0.786Q0.485 0.793 0.499 0.796Q0.514 0.799 0.527 0.802Q0.529 0.662 0.528 0.524Q0.527 0.387 0.529 0.246V0.141Q0.530 0.140 0.533 0.139Q0.536 0.137 0.539 0.134Q0.555 0.132 0.572 0.124Q0.590 0.117 0.607 0.115Q0.640 0.128 0.672 0.138Q0.704 0.148 0.737 0.161Q0.742 0.342 0.740 0.522Q0.738 0.701 0.740 0.883Q0.727 0.892 0.710 0.896Q0.693 0.899 0.678 0.908L0.673 0.915V0.949L0.670 0.954Q0.653 0.960 0.635 0.967Q0.617 0.974 0.599 0.977H0.593ZM0.593 0.957Q0.590 0.939 0.592 0.921Q0.594 0.903 0.590 0.886Q0.577 0.882 0.563 0.878Q0.550 0.873 0.541 0.873V0.936L0.546 0.942Q0.556 0.946 0.567 0.950Q0.578 0.954 0.588 0.958ZM0.527 0.933Q0.526 0.916 0.527 0.898Q0.528 0.881 0.525 0.866Q0.492 0.852 0.474 0.851V0.915L0.479 0.921Q0.489 0.926 0.500 0.928Q0.511 0.931 0.521 0.936ZM0.459 0.913Q0.457 0.894 0.459 0.877Q0.461 0.859 0.456 0.841Q0.442 0.838 0.431 0.834Q0.420 0.829 0.408 0.827V0.894Q0.417 0.900 0.430 0.903Q0.442 0.907 0.453 0.915ZM0.392 0.888Q0.389 0.871 0.392 0.853Q0.395 0.834 0.387 0.817Q0.376 0.816 0.366 0.811Q0.355 0.806 0.345 0.805L0.341 0.806V0.871L0.345 0.877Q0.356 0.878 0.367 0.883Q0.377 0.888 0.387 0.891ZM0.661 0.886Q0.658 0.869 0.659 0.853Q0.661 0.836 0.657 0.819Q0.644 0.817 0.632 0.811Q0.620 0.805 0.609 0.805Q0.611 0.823 0.609 0.841Q0.607 0.859 0.612 0.875Q0.622 0.879 0.633 0.882Q0.644 0.885 0.654 0.891ZM0.593 0.866V0.805L0.588 0.797Q0.577 0.793 0.566 0.789Q0.555 0.786 0.546 0.783L0.541 0.784V0.849Q0.545 0.855 0.549 0.856Q0.559 0.858 0.568 0.862Q0.578 0.866 0.588 0.869ZM0.527 0.843Q0.526 0.838 0.526 0.833Q0.527 0.828 0.524 0.825Q0.517 0.831 0.508 0.832Q0.499 0.832 0.494 0.838Q0.501 0.837 0.507 0.841Q0.514 0.845 0.521 0.847ZM0.468 0.829Q0.476 0.822 0.487 0.820Q0.497 0.818 0.505 0.814Q0.486 0.806 0.465 0.804Q0.444 0.802 0.428 0.816Q0.439 0.817 0.449 0.822Q0.458 0.826 0.468 0.829ZM0.392 0.800Q0.389 0.783 0.391 0.764Q0.393 0.746 0.389 0.729Q0.377 0.727 0.366 0.722Q0.354 0.717 0.347 0.714L0.341 0.716V0.780L0.345 0.788Q0.356 0.792 0.367 0.794Q0.377 0.797 0.387 0.802ZM0.661 0.798Q0.658 0.780 0.659 0.764Q0.661 0.748 0.657 0.731Q0.646 0.728 0.636 0.724Q0.626 0.720 0.617 0.716H0.609V0.784Q0.618 0.790 0.630 0.793Q0.643 0.796 0.654 0.802ZM0.326 0.775Q0.322 0.758 0.325 0.742Q0.328 0.726 0.322 0.708Q0.310 0.702 0.299 0.700Q0.288 0.698 0.278 0.692L0.273 0.695V0.760Q0.283 0.768 0.297 0.771Q0.310 0.774 0.321 0.780ZM0.593 0.779Q0.590 0.761 0.592 0.743Q0.594 0.726 0.590 0.708Q0.577 0.703 0.563 0.699Q0.550 0.694 0.541 0.694V0.758L0.546 0.764Q0.556 0.769 0.567 0.772Q0.578 0.774 0.588 0.780ZM0.392 0.709Q0.391 0.692 0.392 0.675Q0.393 0.659 0.391 0.642Q0.378 0.636 0.367 0.633Q0.356 0.630 0.345 0.626L0.341 0.628V0.692L0.345 0.699Q0.356 0.700 0.367 0.705Q0.377 0.709 0.387 0.713ZM0.661 0.711Q0.658 0.694 0.659 0.676Q0.661 0.659 0.657 0.640Q0.644 0.637 0.632 0.633Q0.620 0.628 0.609 0.626V0.694Q0.618 0.700 0.630 0.703Q0.643 0.706 0.654 0.713ZM0.326 0.687Q0.322 0.670 0.325 0.653Q0.328 0.637 0.322 0.620Q0.310 0.616 0.299 0.612Q0.288 0.608 0.278 0.602L0.273 0.606V0.670L0.278 0.676Q0.301 0.682 0.319 0.690ZM0.593 0.687Q0.590 0.670 0.592 0.652Q0.595 0.634 0.588 0.617Q0.577 0.616 0.566 0.611Q0.555 0.606 0.546 0.604L0.541 0.606V0.670L0.546 0.676Q0.556 0.678 0.567 0.682Q0.578 0.687 0.588 0.690ZM0.400 0.628Q0.408 0.621 0.419 0.619Q0.430 0.618 0.440 0.614Q0.430 0.609 0.422 0.607Q0.414 0.606 0.407 0.601Q0.396 0.602 0.382 0.605Q0.369 0.608 0.361 0.616Q0.376 0.617 0.400 0.628ZM0.661 0.619V0.557L0.656 0.551Q0.645 0.547 0.634 0.544Q0.623 0.542 0.613 0.537L0.609 0.538V0.606Q0.618 0.613 0.630 0.614Q0.643 0.616 0.654 0.623ZM0.333 0.606Q0.341 0.600 0.352 0.598Q0.363 0.596 0.372 0.591Q0.363 0.586 0.353 0.584Q0.344 0.582 0.336 0.578Q0.324 0.579 0.313 0.584Q0.302 0.588 0.292 0.591Q0.302 0.596 0.312 0.598Q0.322 0.600 0.333 0.606ZM0.593 0.599Q0.590 0.581 0.592 0.564Q0.594 0.546 0.590 0.528Q0.579 0.526 0.567 0.521Q0.555 0.516 0.548 0.513L0.541 0.515V0.579L0.546 0.586Q0.556 0.591 0.567 0.594Q0.578 0.597 0.588 0.601ZM0.661 0.532Q0.658 0.513 0.660 0.495Q0.662 0.478 0.656 0.460Q0.645 0.458 0.634 0.454Q0.623 0.450 0.613 0.448L0.609 0.449Q0.610 0.468 0.609 0.485Q0.607 0.502 0.610 0.517Q0.622 0.522 0.633 0.526Q0.645 0.530 0.656 0.535ZM0.593 0.509Q0.591 0.491 0.592 0.474Q0.594 0.457 0.591 0.442Q0.579 0.436 0.567 0.432Q0.556 0.429 0.546 0.426L0.541 0.428V0.492L0.546 0.498Q0.556 0.499 0.567 0.504Q0.578 0.509 0.588 0.512ZM0.661 0.440V0.379L0.656 0.373Q0.645 0.368 0.634 0.365Q0.623 0.362 0.613 0.358L0.609 0.360V0.428Q0.618 0.435 0.630 0.436Q0.643 0.438 0.654 0.445ZM0.593 0.421Q0.590 0.403 0.592 0.385Q0.594 0.367 0.590 0.350Q0.577 0.348 0.565 0.342Q0.553 0.337 0.541 0.337V0.401L0.546 0.408Q0.556 0.412 0.567 0.415Q0.578 0.418 0.588 0.423ZM0.661 0.353Q0.658 0.335 0.660 0.318Q0.662 0.300 0.656 0.283Q0.645 0.278 0.634 0.276Q0.623 0.273 0.613 0.270L0.609 0.271Q0.610 0.290 0.609 0.306Q0.607 0.323 0.610 0.338Q0.622 0.343 0.633 0.348Q0.645 0.352 0.656 0.357ZM0.593 0.330Q0.590 0.313 0.592 0.295Q0.595 0.277 0.588 0.260Q0.577 0.258 0.566 0.255Q0.556 0.251 0.546 0.246L0.541 0.249Q0.542 0.267 0.541 0.284Q0.540 0.301 0.543 0.316Q0.555 0.321 0.566 0.325Q0.577 0.329 0.588 0.334ZM0.661 0.265Q0.658 0.247 0.659 0.229Q0.661 0.211 0.657 0.194Q0.644 0.192 0.632 0.186Q0.620 0.180 0.609 0.180V0.247Q0.618 0.256 0.630 0.258Q0.643 0.259 0.654 0.266ZM0.593 0.241V0.180L0.588 0.172Q0.577 0.169 0.566 0.164Q0.555 0.160 0.546 0.158L0.541 0.159V0.224L0.546 0.230Q0.556 0.235 0.567 0.236Q0.578 0.238 0.588 0.244ZM0.666 0.181Q0.677 0.175 0.687 0.173Q0.697 0.172 0.707 0.167Q0.668 0.147 0.627 0.167Q0.638 0.172 0.648 0.174Q0.658 0.177 0.666 0.181ZM0.601 0.159Q0.610 0.153 0.621 0.150Q0.631 0.147 0.640 0.143Q0.595 0.128 0.560 0.144Q0.571 0.150 0.581 0.152Q0.591 0.153 0.601 0.159Z" fill="black"/>
</svg>
