<svg xmlns="http://www.w3.org/2000/svg" viewBox="0 0 1 1" preserveAspectRatio="xMidYMid meet">
  <path d="M0.322 1.000Q0.305 0.992 0.290 0.989Q0.274 0.986 0.257 0.976V0.154Q0.279 0.147 0.302 0.139Q0.326 0.130 0.351 0.120Q0.402 0.099 0.451 0.121Q0.455 0.124 0.459 0.125Q0.464 0.126 0.470 0.129L0.473 0.134V0.255L0.476 0.259Q0.492 0.256 0.507 0.251Q0.522 0.245 0.523 0.242Q0.525 0.240 0.529 0.235V0.066L0.532 0.061Q0.571 0.053 0.610 0.034Q0.650 0.014 0.692 0.020Q0.705 0.026 0.716 0.029Q0.727 0.033 0.738 0.039L0.743 0.045V0.231Q0.721 0.241 0.684 0.250Q0.681 0.251 0.676 0.258V0.430L0.673 0.435Q0.659 0.440 0.645 0.445Q0.631 0.449 0.615 0.454Q0.614 0.454 0.608 0.464V0.484L0.611 0.491Q0.623 0.499 0.640 0.502Q0.657 0.505 0.673 0.513L0.676 0.518V0.645L0.681 0.651Q0.695 0.654 0.710 0.661Q0.725 0.667 0.740 0.671L0.743 0.677V0.862Q0.743 0.860 0.732 0.868Q0.698 0.878 0.664 0.891Q0.631 0.903 0.595 0.911Q0.579 0.903 0.563 0.898Q0.547 0.893 0.530 0.886Q0.528 0.855 0.529 0.823Q0.530 0.791 0.529 0.757L0.522 0.747Q0.511 0.747 0.499 0.741Q0.487 0.735 0.475 0.737Q0.472 0.783 0.473 0.829Q0.474 0.876 0.473 0.922V0.949L0.470 0.954Q0.433 0.966 0.397 0.980Q0.361 0.994 0.324 1.000H0.322ZM0.324 0.979Q0.322 0.960 0.323 0.944Q0.324 0.927 0.322 0.911Q0.309 0.905 0.298 0.901Q0.287 0.896 0.277 0.894L0.272 0.895V0.964Q0.283 0.971 0.294 0.973Q0.305 0.975 0.318 0.982ZM0.324 0.888Q0.321 0.870 0.323 0.853Q0.325 0.836 0.321 0.819Q0.307 0.815 0.295 0.810Q0.282 0.806 0.272 0.805V0.873Q0.281 0.879 0.293 0.882Q0.305 0.885 0.318 0.891ZM0.595 0.889Q0.593 0.872 0.596 0.854Q0.598 0.835 0.591 0.818Q0.577 0.815 0.565 0.810Q0.553 0.805 0.542 0.805V0.870L0.546 0.876Q0.557 0.881 0.568 0.884Q0.579 0.887 0.589 0.891ZM0.324 0.797Q0.321 0.778 0.323 0.762Q0.325 0.746 0.321 0.728Q0.306 0.726 0.295 0.720Q0.283 0.713 0.272 0.713Q0.274 0.732 0.272 0.750Q0.270 0.768 0.275 0.786Q0.285 0.789 0.296 0.792Q0.306 0.796 0.318 0.802ZM0.595 0.800V0.742L0.591 0.735Q0.578 0.742 0.565 0.744Q0.551 0.747 0.542 0.754V0.780L0.546 0.787Q0.569 0.792 0.589 0.802ZM0.527 0.728V0.667L0.522 0.661Q0.511 0.655 0.500 0.653Q0.489 0.650 0.480 0.645L0.475 0.646V0.715Q0.484 0.723 0.497 0.724Q0.510 0.726 0.521 0.733ZM0.324 0.707Q0.321 0.689 0.323 0.673Q0.325 0.657 0.321 0.639Q0.309 0.635 0.299 0.631Q0.289 0.627 0.279 0.624H0.272V0.692Q0.281 0.699 0.293 0.702Q0.305 0.704 0.318 0.710ZM0.680 0.689Q0.688 0.685 0.696 0.683Q0.704 0.682 0.709 0.677Q0.702 0.677 0.696 0.672Q0.690 0.668 0.683 0.668L0.678 0.670Q0.679 0.675 0.678 0.680Q0.677 0.686 0.680 0.689ZM0.527 0.639Q0.526 0.623 0.527 0.608Q0.528 0.593 0.525 0.578L0.522 0.576Q0.511 0.584 0.500 0.585Q0.489 0.586 0.480 0.591L0.475 0.597Q0.476 0.604 0.475 0.611Q0.474 0.619 0.476 0.626Q0.488 0.631 0.499 0.635Q0.511 0.639 0.522 0.643ZM0.324 0.619Q0.321 0.601 0.323 0.583Q0.325 0.565 0.321 0.548Q0.306 0.544 0.295 0.539Q0.283 0.535 0.272 0.534V0.602Q0.281 0.608 0.293 0.611Q0.305 0.614 0.318 0.621ZM0.324 0.525V0.463L0.319 0.456Q0.307 0.451 0.297 0.449Q0.286 0.447 0.277 0.442L0.272 0.444V0.512Q0.281 0.519 0.293 0.521Q0.305 0.522 0.318 0.530ZM0.613 0.530Q0.620 0.525 0.628 0.525Q0.635 0.524 0.641 0.520Q0.635 0.516 0.628 0.515Q0.620 0.513 0.616 0.510L0.610 0.512Q0.611 0.516 0.610 0.521Q0.609 0.526 0.611 0.530ZM0.476 0.486Q0.484 0.482 0.492 0.480Q0.501 0.478 0.506 0.473Q0.498 0.473 0.492 0.468Q0.486 0.464 0.480 0.464L0.475 0.466Q0.476 0.471 0.475 0.476Q0.474 0.482 0.476 0.486ZM0.527 0.459Q0.524 0.442 0.527 0.424Q0.530 0.405 0.522 0.388Q0.511 0.386 0.500 0.382Q0.489 0.378 0.480 0.375L0.475 0.377Q0.476 0.395 0.475 0.412Q0.474 0.429 0.476 0.445Q0.488 0.450 0.499 0.454Q0.511 0.458 0.522 0.463ZM0.324 0.437Q0.321 0.419 0.323 0.401Q0.326 0.383 0.319 0.365Q0.307 0.364 0.297 0.360Q0.286 0.356 0.277 0.353L0.272 0.354Q0.273 0.372 0.272 0.390Q0.271 0.408 0.273 0.423Q0.285 0.428 0.296 0.431Q0.307 0.435 0.319 0.440ZM0.527 0.368Q0.526 0.351 0.527 0.333Q0.528 0.316 0.525 0.301Q0.513 0.295 0.502 0.292Q0.490 0.289 0.480 0.284L0.475 0.286V0.354Q0.487 0.361 0.498 0.363Q0.510 0.365 0.521 0.372ZM0.324 0.343V0.283L0.319 0.276Q0.307 0.271 0.297 0.268Q0.286 0.265 0.277 0.261L0.272 0.263V0.331Q0.281 0.338 0.293 0.340Q0.305 0.342 0.318 0.349ZM0.533 0.286Q0.544 0.279 0.554 0.278Q0.565 0.276 0.575 0.271Q0.530 0.251 0.494 0.271Q0.505 0.276 0.515 0.278Q0.525 0.280 0.533 0.286ZM0.324 0.256Q0.321 0.238 0.323 0.220Q0.326 0.202 0.319 0.185Q0.307 0.182 0.297 0.178Q0.286 0.174 0.277 0.172L0.272 0.174Q0.273 0.192 0.272 0.209Q0.271 0.226 0.273 0.242Q0.285 0.247 0.296 0.251Q0.307 0.255 0.319 0.259ZM0.595 0.256V0.191Q0.590 0.184 0.587 0.183Q0.575 0.182 0.563 0.177Q0.551 0.172 0.542 0.172V0.237L0.546 0.243Q0.557 0.248 0.568 0.251Q0.579 0.253 0.589 0.259ZM0.332 0.174Q0.339 0.168 0.349 0.165Q0.358 0.163 0.367 0.161L0.369 0.157Q0.343 0.149 0.330 0.144Q0.320 0.149 0.309 0.152Q0.299 0.155 0.289 0.159Q0.311 0.164 0.332 0.174ZM0.595 0.165Q0.593 0.147 0.595 0.131Q0.596 0.114 0.592 0.097Q0.580 0.092 0.569 0.088Q0.557 0.084 0.546 0.079L0.542 0.082V0.147Q0.546 0.153 0.549 0.154Q0.565 0.158 0.589 0.169ZM0.399 0.150Q0.407 0.144 0.419 0.142Q0.430 0.139 0.440 0.135Q0.428 0.131 0.421 0.130Q0.413 0.128 0.405 0.123Q0.385 0.123 0.359 0.137Q0.367 0.138 0.377 0.142Q0.387 0.145 0.399 0.150ZM0.602 0.082Q0.610 0.075 0.621 0.074Q0.633 0.073 0.642 0.068Q0.595 0.046 0.562 0.069Q0.571 0.070 0.581 0.074Q0.591 0.077 0.602 0.082ZM0.670 0.059Q0.680 0.053 0.691 0.050Q0.702 0.048 0.709 0.043Q0.665 0.027 0.630 0.045Q0.640 0.051 0.650 0.053Q0.660 0.055 0.670 0.059Z" fill="black"/>
</svg>
