<svg xmlns="http://www.w3.org/2000/svg" viewBox="0 0 1 1" preserveAspectRatio="xMidYMid meet">
  <path d="M0.660 1.000Q0.628 0.987 0.595 0.977Q0.562 0.967 0.530 0.954Q0.525 0.909 0.528 0.864Q0.532 0.819 0.523 0.772Q0.512 0.768 0.501 0.766Q0.490 0.764 0.477 0.756L0.472 0.759Q0.470 0.790 0.471 0.821Q0.472 0.852 0.471 0.883L0.468 0.888Q0.416 0.921 0.364 0.900Q0.338 0.890 0.312 0.882Q0.286 0.873 0.260 0.865L0.257 0.860V0.045L0.260 0.040Q0.271 0.037 0.282 0.032Q0.293 0.027 0.304 0.024Q0.316 0.020 0.327 0.019Q0.339 0.018 0.351 0.021Q0.382 0.033 0.410 0.042Q0.439 0.052 0.467 0.063L0.471 0.068Q0.472 0.121 0.471 0.175Q0.469 0.229 0.474 0.284Q0.486 0.282 0.498 0.277Q0.510 0.272 0.523 0.267L0.528 0.260V0.134Q0.532 0.134 0.533 0.132Q0.534 0.129 0.539 0.126Q0.590 0.100 0.639 0.119Q0.664 0.129 0.690 0.138Q0.715 0.146 0.741 0.154Q0.743 0.201 0.742 0.247Q0.741 0.294 0.743 0.342Q0.731 0.348 0.716 0.354Q0.701 0.361 0.685 0.364L0.679 0.366L0.674 0.373V0.500Q0.663 0.507 0.647 0.513Q0.631 0.518 0.616 0.522Q0.611 0.525 0.608 0.530V0.556L0.612 0.561Q0.626 0.567 0.641 0.571Q0.656 0.575 0.671 0.582L0.674 0.587V0.756Q0.676 0.764 0.684 0.767Q0.701 0.769 0.739 0.786L0.743 0.790V0.881Q0.741 0.907 0.742 0.930Q0.743 0.954 0.739 0.978Q0.723 0.982 0.703 0.990Q0.682 0.998 0.663 1.000H0.660ZM0.661 0.979Q0.660 0.960 0.661 0.944Q0.662 0.927 0.660 0.911Q0.648 0.907 0.636 0.902Q0.624 0.897 0.614 0.894L0.609 0.895V0.964Q0.621 0.971 0.633 0.973Q0.644 0.975 0.655 0.982ZM0.593 0.956V0.894L0.588 0.886Q0.577 0.883 0.566 0.879Q0.555 0.874 0.546 0.872L0.541 0.873V0.938L0.546 0.945Q0.556 0.950 0.567 0.952Q0.578 0.953 0.588 0.959ZM0.390 0.890Q0.387 0.872 0.390 0.854Q0.393 0.835 0.385 0.818Q0.373 0.813 0.363 0.811Q0.352 0.809 0.343 0.804L0.338 0.807V0.872Q0.347 0.879 0.360 0.883Q0.372 0.886 0.384 0.891ZM0.661 0.888Q0.659 0.870 0.661 0.853Q0.662 0.836 0.658 0.819Q0.624 0.806 0.609 0.805V0.873Q0.618 0.879 0.631 0.882Q0.644 0.885 0.655 0.891ZM0.324 0.867V0.802Q0.322 0.800 0.320 0.798Q0.318 0.796 0.316 0.794Q0.303 0.792 0.291 0.787Q0.279 0.783 0.270 0.783V0.848L0.275 0.854Q0.285 0.859 0.296 0.861Q0.306 0.864 0.317 0.870ZM0.593 0.867Q0.591 0.849 0.593 0.830Q0.595 0.812 0.588 0.796Q0.579 0.792 0.568 0.789Q0.557 0.786 0.546 0.783L0.541 0.784Q0.542 0.803 0.541 0.820Q0.540 0.836 0.542 0.852Q0.554 0.857 0.566 0.861Q0.577 0.866 0.588 0.870ZM0.671 0.805Q0.680 0.801 0.690 0.798Q0.699 0.795 0.707 0.790Q0.698 0.786 0.688 0.784Q0.678 0.783 0.670 0.777Q0.659 0.783 0.648 0.785Q0.637 0.788 0.629 0.792Q0.640 0.793 0.649 0.798Q0.658 0.803 0.668 0.805ZM0.390 0.799Q0.387 0.780 0.390 0.763Q0.393 0.745 0.385 0.727Q0.373 0.726 0.363 0.721Q0.352 0.715 0.343 0.714L0.338 0.715V0.780L0.343 0.788Q0.353 0.789 0.364 0.793Q0.376 0.798 0.385 0.802ZM0.324 0.775Q0.321 0.758 0.323 0.741Q0.325 0.725 0.321 0.707Q0.307 0.703 0.296 0.699Q0.285 0.694 0.275 0.690L0.270 0.693V0.758Q0.273 0.764 0.278 0.766Q0.296 0.767 0.317 0.779ZM0.593 0.775V0.714L0.588 0.706Q0.577 0.702 0.566 0.698Q0.555 0.694 0.546 0.691L0.541 0.693V0.758Q0.546 0.765 0.549 0.766Q0.559 0.767 0.569 0.771Q0.578 0.775 0.588 0.779ZM0.527 0.751V0.690Q0.522 0.683 0.518 0.682Q0.508 0.681 0.498 0.676Q0.489 0.671 0.479 0.669L0.472 0.670V0.735Q0.476 0.741 0.481 0.743Q0.498 0.746 0.520 0.756ZM0.390 0.707Q0.387 0.690 0.389 0.673Q0.392 0.657 0.387 0.639Q0.376 0.635 0.364 0.631Q0.352 0.627 0.344 0.623L0.338 0.624V0.690L0.343 0.696Q0.353 0.701 0.364 0.704Q0.376 0.706 0.385 0.710ZM0.324 0.685Q0.321 0.667 0.323 0.650Q0.325 0.634 0.321 0.617Q0.307 0.611 0.296 0.609Q0.285 0.607 0.275 0.600L0.270 0.604V0.669Q0.280 0.678 0.294 0.681Q0.307 0.684 0.319 0.690ZM0.593 0.688Q0.591 0.670 0.593 0.652Q0.595 0.634 0.590 0.617Q0.557 0.604 0.541 0.602V0.667L0.546 0.673Q0.556 0.679 0.567 0.681Q0.578 0.684 0.588 0.690ZM0.527 0.664V0.599Q0.520 0.591 0.518 0.590Q0.507 0.589 0.494 0.584Q0.482 0.579 0.472 0.579V0.644L0.477 0.650Q0.488 0.655 0.499 0.659Q0.511 0.662 0.520 0.667ZM0.390 0.619Q0.389 0.601 0.390 0.583Q0.391 0.566 0.389 0.550Q0.377 0.544 0.365 0.541Q0.353 0.538 0.343 0.534L0.338 0.535V0.600L0.343 0.607Q0.353 0.608 0.364 0.613Q0.376 0.618 0.385 0.621ZM0.600 0.602Q0.610 0.600 0.621 0.595Q0.632 0.589 0.642 0.587Q0.631 0.585 0.620 0.581Q0.609 0.576 0.600 0.574Q0.590 0.579 0.579 0.582Q0.569 0.585 0.560 0.587Q0.572 0.591 0.581 0.595Q0.590 0.599 0.600 0.602ZM0.324 0.596Q0.321 0.577 0.323 0.561Q0.325 0.545 0.321 0.527Q0.307 0.522 0.296 0.518Q0.285 0.514 0.275 0.509L0.270 0.512V0.577L0.275 0.584Q0.286 0.586 0.296 0.590Q0.306 0.593 0.317 0.599ZM0.527 0.573Q0.524 0.555 0.526 0.538Q0.528 0.521 0.523 0.504Q0.511 0.500 0.499 0.496Q0.488 0.492 0.477 0.487L0.472 0.490Q0.474 0.508 0.473 0.525Q0.472 0.543 0.474 0.558Q0.486 0.564 0.498 0.567Q0.510 0.569 0.520 0.576ZM0.458 0.549V0.487L0.453 0.480Q0.443 0.476 0.431 0.473Q0.420 0.470 0.411 0.465L0.406 0.466V0.535Q0.416 0.543 0.428 0.544Q0.441 0.546 0.452 0.553ZM0.390 0.527Q0.387 0.509 0.389 0.492Q0.392 0.476 0.387 0.458Q0.376 0.454 0.364 0.450Q0.352 0.446 0.344 0.442L0.338 0.444V0.509L0.343 0.515Q0.353 0.520 0.364 0.522Q0.376 0.524 0.385 0.530ZM0.324 0.506Q0.321 0.488 0.323 0.470Q0.326 0.451 0.319 0.434Q0.304 0.432 0.293 0.427Q0.282 0.422 0.270 0.422V0.487L0.275 0.493Q0.285 0.498 0.296 0.501Q0.306 0.503 0.317 0.508ZM0.593 0.504V0.442L0.588 0.434Q0.577 0.430 0.566 0.427Q0.555 0.425 0.546 0.420L0.541 0.423V0.488Q0.551 0.495 0.563 0.499Q0.575 0.503 0.587 0.508ZM0.527 0.482Q0.524 0.463 0.526 0.447Q0.528 0.431 0.523 0.414Q0.511 0.408 0.499 0.405Q0.488 0.403 0.477 0.397L0.472 0.400V0.465Q0.484 0.474 0.497 0.477Q0.511 0.481 0.522 0.487ZM0.458 0.462V0.446L0.453 0.442Q0.448 0.448 0.440 0.448Q0.431 0.448 0.426 0.452Q0.432 0.456 0.440 0.458Q0.448 0.460 0.453 0.463ZM0.390 0.438Q0.387 0.420 0.390 0.402Q0.393 0.384 0.385 0.366Q0.373 0.365 0.363 0.360Q0.352 0.356 0.343 0.354L0.338 0.355Q0.340 0.373 0.338 0.390Q0.337 0.408 0.340 0.423Q0.352 0.428 0.363 0.432Q0.373 0.436 0.385 0.441ZM0.324 0.415V0.354Q0.318 0.343 0.317 0.343L0.314 0.342Q0.302 0.341 0.293 0.337Q0.284 0.332 0.275 0.328L0.270 0.332Q0.271 0.351 0.270 0.368Q0.269 0.385 0.271 0.400Q0.283 0.407 0.294 0.409Q0.305 0.412 0.317 0.418ZM0.593 0.415Q0.592 0.397 0.593 0.380Q0.594 0.363 0.591 0.347Q0.579 0.340 0.568 0.337Q0.556 0.334 0.546 0.330L0.541 0.332V0.397L0.546 0.403Q0.556 0.405 0.567 0.410Q0.578 0.415 0.588 0.418ZM0.527 0.392Q0.524 0.374 0.526 0.358Q0.528 0.341 0.523 0.323Q0.511 0.319 0.499 0.315Q0.488 0.311 0.477 0.306L0.472 0.309V0.374L0.477 0.381Q0.498 0.385 0.520 0.395ZM0.390 0.347V0.285L0.385 0.277Q0.373 0.273 0.363 0.269Q0.352 0.265 0.343 0.262L0.338 0.264V0.328L0.343 0.335Q0.353 0.340 0.364 0.342Q0.376 0.343 0.385 0.350ZM0.661 0.345V0.284L0.657 0.277Q0.645 0.272 0.634 0.269Q0.623 0.266 0.614 0.262L0.609 0.264V0.332Q0.618 0.339 0.631 0.341Q0.644 0.343 0.655 0.350ZM0.324 0.325V0.260Q0.322 0.258 0.320 0.256Q0.318 0.254 0.316 0.252Q0.305 0.251 0.294 0.246Q0.283 0.242 0.277 0.240L0.270 0.241V0.306L0.275 0.313Q0.285 0.318 0.296 0.320Q0.306 0.321 0.317 0.327ZM0.593 0.325V0.260L0.587 0.252Q0.575 0.251 0.564 0.245Q0.552 0.240 0.541 0.241V0.306L0.546 0.313Q0.556 0.318 0.567 0.320Q0.578 0.321 0.588 0.327ZM0.527 0.301Q0.522 0.285 0.525 0.287L0.520 0.285Q0.513 0.289 0.505 0.291Q0.497 0.293 0.493 0.297Q0.499 0.297 0.520 0.304ZM0.390 0.257Q0.387 0.239 0.390 0.221Q0.393 0.203 0.385 0.186Q0.369 0.181 0.359 0.178Q0.348 0.175 0.343 0.173L0.338 0.175Q0.340 0.193 0.338 0.210Q0.337 0.227 0.340 0.243Q0.362 0.253 0.385 0.260ZM0.661 0.257Q0.659 0.239 0.662 0.221Q0.664 0.203 0.657 0.186Q0.645 0.184 0.634 0.179Q0.623 0.175 0.614 0.173L0.609 0.175Q0.610 0.193 0.609 0.210Q0.608 0.227 0.611 0.243Q0.622 0.248 0.634 0.252Q0.645 0.256 0.657 0.260ZM0.324 0.235Q0.321 0.216 0.323 0.198Q0.326 0.180 0.319 0.163Q0.304 0.161 0.292 0.155Q0.279 0.150 0.270 0.150V0.215L0.275 0.222Q0.285 0.227 0.296 0.229Q0.306 0.232 0.317 0.238ZM0.593 0.235Q0.591 0.216 0.593 0.198Q0.595 0.180 0.588 0.163Q0.577 0.161 0.566 0.157Q0.555 0.153 0.546 0.150L0.541 0.152Q0.542 0.170 0.541 0.187Q0.540 0.204 0.542 0.221Q0.554 0.225 0.566 0.229Q0.577 0.234 0.588 0.238ZM0.670 0.175Q0.677 0.169 0.687 0.167Q0.697 0.165 0.705 0.162L0.707 0.159Q0.697 0.154 0.687 0.151Q0.677 0.147 0.668 0.145Q0.657 0.150 0.647 0.153Q0.637 0.157 0.628 0.160Q0.650 0.165 0.670 0.175ZM0.390 0.167V0.105L0.385 0.097Q0.373 0.092 0.363 0.088Q0.352 0.084 0.343 0.082L0.338 0.083V0.148Q0.343 0.155 0.346 0.157Q0.357 0.158 0.366 0.162Q0.376 0.167 0.385 0.170ZM0.601 0.152Q0.609 0.144 0.620 0.142Q0.632 0.140 0.642 0.137Q0.632 0.132 0.624 0.131Q0.616 0.129 0.608 0.124Q0.596 0.126 0.583 0.129Q0.571 0.132 0.562 0.138Q0.571 0.140 0.580 0.144Q0.590 0.147 0.601 0.152ZM0.324 0.145Q0.321 0.127 0.323 0.109Q0.326 0.091 0.319 0.073Q0.307 0.071 0.297 0.067Q0.286 0.063 0.277 0.059L0.270 0.061V0.126Q0.273 0.131 0.278 0.134Q0.290 0.135 0.317 0.146ZM0.398 0.083Q0.405 0.076 0.418 0.075Q0.430 0.074 0.438 0.067Q0.426 0.066 0.416 0.061Q0.405 0.056 0.395 0.056Q0.385 0.061 0.376 0.062Q0.366 0.064 0.357 0.068Q0.368 0.075 0.378 0.076Q0.388 0.077 0.398 0.083ZM0.330 0.061Q0.341 0.055 0.350 0.053Q0.359 0.052 0.369 0.047Q0.326 0.023 0.291 0.048Q0.301 0.049 0.310 0.054Q0.320 0.059 0.330 0.061Z" fill="black"/>
</svg>
