<svg xmlns="http://www.w3.org/2000/svg" viewBox="0 0 1 1" preserveAspectRatio="xMidYMid meet">
  <path d="M0.326 1.000Q0.309 0.993 0.294 0.989Q0.278 0.986 0.262 0.977V0.173Q0.308 0.154 0.362 0.136Q0.415 0.117 0.468 0.145L0.473 0.153V0.658V0.803L0.477 0.807Q0.537 0.794 0.605 0.762Q0.669 0.732 0.735 0.767L0.738 0.772V0.865Q0.638 0.900 0.535 0.936Q0.432 0.972 0.329 1.000H0.326ZM0.327 0.981Q0.325 0.963 0.327 0.946Q0.330 0.928 0.323 0.912Q0.311 0.907 0.301 0.904Q0.290 0.901 0.281 0.896L0.275 0.897V0.961Q0.277 0.967 0.283 0.970Q0.291 0.971 0.300 0.974Q0.309 0.978 0.321 0.983ZM0.327 0.892Q0.326 0.874 0.327 0.857Q0.328 0.840 0.326 0.824Q0.293 0.810 0.275 0.809V0.873L0.279 0.879Q0.290 0.884 0.301 0.887Q0.311 0.889 0.321 0.894ZM0.478 0.851Q0.485 0.847 0.492 0.845Q0.498 0.842 0.505 0.838Q0.495 0.836 0.488 0.833Q0.481 0.830 0.473 0.832Q0.475 0.837 0.474 0.842Q0.473 0.847 0.475 0.851ZM0.531 0.830Q0.541 0.828 0.552 0.825Q0.562 0.821 0.573 0.818L0.571 0.815Q0.561 0.814 0.551 0.810Q0.541 0.806 0.533 0.804Q0.522 0.810 0.511 0.812Q0.499 0.814 0.493 0.818Q0.504 0.821 0.512 0.825Q0.521 0.828 0.531 0.830ZM0.600 0.810Q0.607 0.803 0.619 0.801Q0.632 0.799 0.640 0.795Q0.621 0.790 0.604 0.785Q0.586 0.780 0.570 0.793Q0.558 0.798 0.558 0.796Q0.569 0.800 0.579 0.802Q0.590 0.805 0.600 0.810ZM0.327 0.801V0.741L0.323 0.734Q0.311 0.730 0.301 0.727Q0.290 0.724 0.281 0.720L0.275 0.722V0.786Q0.279 0.792 0.283 0.793Q0.291 0.794 0.300 0.797Q0.309 0.801 0.321 0.806ZM0.666 0.789Q0.673 0.783 0.683 0.780Q0.693 0.778 0.702 0.775L0.705 0.772Q0.685 0.766 0.665 0.763Q0.644 0.760 0.629 0.775Q0.639 0.776 0.648 0.780Q0.657 0.785 0.666 0.789ZM0.327 0.714V0.651Q0.322 0.644 0.320 0.643Q0.307 0.641 0.296 0.637Q0.284 0.632 0.275 0.632V0.696L0.279 0.702Q0.290 0.707 0.301 0.710Q0.311 0.712 0.321 0.718ZM0.327 0.626Q0.325 0.608 0.326 0.591Q0.328 0.575 0.324 0.559Q0.311 0.555 0.301 0.550Q0.290 0.546 0.279 0.541L0.275 0.545Q0.276 0.562 0.275 0.579Q0.274 0.596 0.276 0.612Q0.288 0.618 0.299 0.619Q0.309 0.621 0.321 0.629ZM0.327 0.536Q0.325 0.518 0.326 0.503Q0.328 0.487 0.324 0.470Q0.311 0.463 0.301 0.461Q0.290 0.459 0.279 0.453L0.275 0.456V0.520Q0.285 0.529 0.298 0.532Q0.311 0.535 0.323 0.541ZM0.327 0.449Q0.325 0.431 0.326 0.415Q0.328 0.398 0.324 0.382Q0.301 0.372 0.279 0.365L0.275 0.367V0.431L0.279 0.438Q0.290 0.440 0.300 0.444Q0.310 0.447 0.321 0.452ZM0.327 0.361Q0.325 0.343 0.327 0.326Q0.330 0.308 0.323 0.291Q0.308 0.289 0.297 0.284Q0.286 0.278 0.275 0.278V0.341L0.279 0.348Q0.290 0.353 0.301 0.355Q0.311 0.358 0.321 0.363ZM0.327 0.273Q0.325 0.256 0.326 0.238Q0.328 0.221 0.324 0.203Q0.311 0.198 0.301 0.196Q0.290 0.193 0.279 0.187L0.275 0.191Q0.276 0.208 0.275 0.225Q0.274 0.242 0.276 0.258Q0.288 0.263 0.299 0.266Q0.309 0.269 0.321 0.275ZM0.334 0.191Q0.341 0.185 0.352 0.183Q0.363 0.181 0.371 0.176Q0.363 0.171 0.355 0.170Q0.347 0.169 0.340 0.164Q0.321 0.164 0.295 0.178Q0.303 0.179 0.313 0.182Q0.323 0.186 0.334 0.191ZM0.400 0.168Q0.408 0.161 0.420 0.160Q0.432 0.159 0.439 0.152Q0.419 0.146 0.398 0.144Q0.378 0.141 0.362 0.155Q0.377 0.157 0.400 0.168Z" fill="black"/>
</svg>
