<svg xmlns="http://www.w3.org/2000/svg" viewBox="0 0 1 1" preserveAspectRatio="xMidYMid meet">
  <path d="M0.659 1.000Q0.558 0.965 0.459 0.933Q0.361 0.901 0.260 0.866Q0.260 0.057 0.271 0.049Q0.319 0.021 0.365 0.041Q0.411 0.060 0.460 0.071L0.467 0.074L0.472 0.081V0.254V0.786L0.479 0.792Q0.543 0.812 0.606 0.832Q0.670 0.853 0.735 0.878L0.740 0.884V0.975Q0.703 0.995 0.665 1.000H0.659ZM0.660 0.981Q0.658 0.962 0.660 0.945Q0.663 0.928 0.654 0.911Q0.643 0.905 0.633 0.903Q0.622 0.900 0.613 0.895L0.607 0.897V0.961Q0.612 0.968 0.615 0.970Q0.623 0.971 0.633 0.974Q0.642 0.978 0.653 0.983ZM0.592 0.957Q0.589 0.939 0.591 0.923Q0.593 0.907 0.589 0.889Q0.578 0.886 0.568 0.882Q0.558 0.877 0.549 0.875H0.541V0.942Q0.551 0.948 0.563 0.951Q0.575 0.954 0.585 0.959ZM0.525 0.936V0.872L0.518 0.864Q0.506 0.863 0.495 0.858Q0.484 0.853 0.474 0.853V0.917L0.479 0.923Q0.489 0.928 0.499 0.931Q0.510 0.935 0.520 0.937ZM0.459 0.914V0.850Q0.454 0.843 0.451 0.841Q0.439 0.840 0.427 0.835Q0.416 0.830 0.407 0.830V0.894L0.411 0.900Q0.422 0.905 0.432 0.908Q0.443 0.911 0.452 0.917ZM0.666 0.897Q0.677 0.891 0.685 0.890Q0.694 0.888 0.705 0.883Q0.666 0.861 0.627 0.884Q0.638 0.886 0.647 0.891Q0.657 0.895 0.666 0.897ZM0.391 0.891Q0.389 0.873 0.392 0.855Q0.394 0.837 0.387 0.820Q0.376 0.818 0.365 0.814Q0.355 0.810 0.346 0.808L0.340 0.809Q0.341 0.827 0.340 0.844Q0.339 0.861 0.342 0.877Q0.354 0.881 0.365 0.886Q0.376 0.890 0.387 0.894ZM0.599 0.875Q0.608 0.871 0.618 0.869Q0.629 0.867 0.637 0.859Q0.627 0.858 0.617 0.854Q0.607 0.850 0.599 0.848Q0.591 0.850 0.585 0.853Q0.578 0.856 0.573 0.856Q0.569 0.859 0.566 0.859Q0.562 0.860 0.560 0.861Q0.566 0.863 0.576 0.866Q0.585 0.870 0.599 0.875ZM0.324 0.869Q0.323 0.851 0.324 0.834Q0.324 0.817 0.323 0.801Q0.311 0.795 0.300 0.792Q0.289 0.789 0.277 0.786L0.273 0.787V0.852L0.277 0.858Q0.289 0.859 0.299 0.864Q0.310 0.869 0.320 0.872ZM0.532 0.853Q0.542 0.851 0.552 0.846Q0.563 0.840 0.573 0.837Q0.562 0.835 0.551 0.832Q0.541 0.828 0.532 0.825Q0.521 0.830 0.511 0.833Q0.501 0.835 0.493 0.837Q0.503 0.841 0.512 0.846Q0.521 0.850 0.532 0.853ZM0.463 0.830Q0.475 0.827 0.485 0.824Q0.496 0.820 0.506 0.817L0.504 0.814Q0.494 0.813 0.484 0.809Q0.474 0.805 0.465 0.803Q0.454 0.809 0.443 0.811Q0.432 0.813 0.426 0.817Q0.436 0.820 0.445 0.824Q0.454 0.827 0.463 0.830ZM0.391 0.800V0.739L0.387 0.732Q0.376 0.728 0.365 0.725Q0.355 0.722 0.346 0.717L0.340 0.720V0.787Q0.350 0.794 0.362 0.795Q0.374 0.797 0.385 0.805ZM0.324 0.780Q0.322 0.762 0.324 0.744Q0.325 0.727 0.321 0.709Q0.310 0.707 0.298 0.703Q0.287 0.698 0.279 0.695L0.273 0.697V0.761L0.277 0.767Q0.289 0.771 0.299 0.774Q0.310 0.777 0.320 0.782ZM0.391 0.712Q0.389 0.695 0.392 0.677Q0.394 0.660 0.387 0.642Q0.376 0.640 0.365 0.636Q0.355 0.632 0.346 0.630L0.340 0.631Q0.341 0.649 0.340 0.666Q0.339 0.683 0.342 0.699Q0.354 0.703 0.365 0.707Q0.376 0.711 0.387 0.716ZM0.324 0.691Q0.322 0.673 0.324 0.655Q0.326 0.637 0.320 0.620Q0.296 0.616 0.277 0.606L0.273 0.609Q0.274 0.627 0.273 0.644Q0.272 0.661 0.274 0.676Q0.287 0.681 0.298 0.685Q0.309 0.689 0.320 0.694ZM0.391 0.624Q0.389 0.607 0.391 0.589Q0.393 0.571 0.388 0.555Q0.375 0.552 0.364 0.546Q0.353 0.540 0.340 0.540V0.607Q0.350 0.616 0.362 0.617Q0.374 0.619 0.385 0.626ZM0.324 0.601V0.540L0.320 0.533Q0.309 0.528 0.298 0.524Q0.288 0.520 0.277 0.517L0.273 0.518V0.583L0.277 0.589Q0.289 0.595 0.299 0.596Q0.310 0.598 0.320 0.604ZM0.391 0.535V0.471L0.387 0.464Q0.376 0.461 0.365 0.458Q0.355 0.454 0.346 0.451L0.340 0.453Q0.341 0.471 0.340 0.488Q0.339 0.505 0.342 0.520Q0.354 0.526 0.365 0.529Q0.376 0.533 0.387 0.538ZM0.324 0.512Q0.322 0.494 0.324 0.476Q0.326 0.458 0.320 0.442Q0.309 0.439 0.298 0.435Q0.288 0.432 0.277 0.428L0.273 0.430Q0.274 0.449 0.273 0.466Q0.272 0.483 0.274 0.498Q0.287 0.503 0.298 0.507Q0.309 0.511 0.320 0.515ZM0.391 0.444Q0.389 0.426 0.391 0.410Q0.393 0.393 0.388 0.376Q0.375 0.374 0.364 0.368Q0.353 0.362 0.340 0.362Q0.342 0.380 0.340 0.398Q0.338 0.416 0.343 0.432Q0.354 0.436 0.365 0.440Q0.376 0.443 0.385 0.449ZM0.324 0.423V0.362L0.320 0.354Q0.309 0.351 0.298 0.347Q0.288 0.342 0.277 0.339L0.273 0.341V0.405Q0.276 0.411 0.282 0.413Q0.292 0.415 0.301 0.419Q0.310 0.423 0.320 0.426ZM0.391 0.356Q0.389 0.337 0.391 0.321Q0.393 0.305 0.388 0.288Q0.378 0.285 0.368 0.280Q0.358 0.276 0.349 0.273H0.340V0.341Q0.350 0.347 0.362 0.350Q0.374 0.353 0.385 0.359ZM0.324 0.336Q0.322 0.318 0.324 0.300Q0.325 0.283 0.321 0.265Q0.308 0.261 0.295 0.256Q0.283 0.251 0.273 0.251V0.315L0.277 0.322Q0.289 0.326 0.299 0.329Q0.310 0.331 0.320 0.337ZM0.391 0.268Q0.389 0.251 0.391 0.233Q0.393 0.215 0.388 0.198Q0.375 0.195 0.364 0.190Q0.353 0.185 0.340 0.184V0.251Q0.350 0.257 0.362 0.260Q0.374 0.263 0.385 0.270ZM0.324 0.245V0.184L0.320 0.176Q0.309 0.173 0.298 0.168Q0.288 0.164 0.277 0.162L0.273 0.163V0.227L0.277 0.234Q0.289 0.235 0.299 0.239Q0.310 0.244 0.320 0.248ZM0.391 0.177Q0.389 0.160 0.391 0.143Q0.393 0.127 0.388 0.110Q0.375 0.107 0.364 0.101Q0.353 0.095 0.340 0.096V0.163Q0.350 0.171 0.362 0.172Q0.374 0.174 0.385 0.180ZM0.324 0.157Q0.322 0.138 0.324 0.120Q0.325 0.103 0.321 0.085Q0.310 0.083 0.298 0.079Q0.287 0.074 0.279 0.071L0.273 0.073V0.137L0.277 0.143Q0.289 0.148 0.299 0.151Q0.310 0.153 0.320 0.158ZM0.398 0.096Q0.409 0.091 0.419 0.089Q0.429 0.086 0.438 0.081Q0.392 0.061 0.360 0.081Q0.370 0.084 0.379 0.088Q0.388 0.091 0.398 0.096ZM0.330 0.073Q0.341 0.070 0.352 0.066Q0.363 0.061 0.373 0.059Q0.362 0.057 0.351 0.053Q0.340 0.049 0.330 0.046Q0.321 0.051 0.311 0.054Q0.301 0.057 0.293 0.059Q0.303 0.062 0.312 0.066Q0.321 0.069 0.330 0.073Z" fill="black"/>
</svg>
