<svg xmlns="http://www.w3.org/2000/svg" viewBox="0 0 1 1" preserveAspectRatio="xMidYMid meet">
  <path d="M0.321 0.999Q0.305 0.990 0.289 0.986Q0.273 0.983 0.257 0.975V0.153Q0.258 0.152 0.260 0.150Q0.263 0.148 0.268 0.145Q0.328 0.115 0.398 0.148L0.403 0.157V0.189L0.408 0.196Q0.422 0.202 0.438 0.207Q0.454 0.212 0.469 0.218Q0.472 0.226 0.470 0.235Q0.469 0.244 0.471 0.253L0.476 0.258Q0.486 0.257 0.497 0.252Q0.508 0.246 0.518 0.245L0.522 0.243L0.528 0.234V0.154L0.532 0.150Q0.545 0.144 0.560 0.139Q0.575 0.134 0.590 0.129L0.595 0.123V0.042L0.598 0.037Q0.670 0.000 0.741 0.038L0.743 0.043Q0.742 0.250 0.743 0.454Q0.744 0.658 0.740 0.862L0.731 0.867Q0.667 0.897 0.598 0.862L0.595 0.857V0.645L0.590 0.641Q0.547 0.651 0.500 0.672Q0.457 0.691 0.411 0.665L0.405 0.666Q0.402 0.730 0.403 0.794Q0.404 0.859 0.403 0.923V0.971Q0.400 0.978 0.393 0.981Q0.376 0.981 0.359 0.990Q0.341 1.000 0.325 0.999H0.321ZM0.323 0.978Q0.321 0.959 0.323 0.943Q0.325 0.927 0.321 0.909Q0.307 0.902 0.296 0.899Q0.285 0.896 0.275 0.891L0.270 0.894Q0.271 0.913 0.270 0.930Q0.269 0.947 0.271 0.962Q0.283 0.968 0.294 0.972Q0.305 0.975 0.316 0.981ZM0.323 0.887Q0.321 0.870 0.323 0.852Q0.326 0.833 0.318 0.816Q0.304 0.814 0.293 0.808Q0.281 0.803 0.270 0.803V0.868L0.275 0.874Q0.285 0.880 0.296 0.882Q0.306 0.883 0.316 0.889ZM0.661 0.863Q0.659 0.846 0.661 0.829Q0.663 0.812 0.659 0.795Q0.646 0.789 0.635 0.786Q0.623 0.784 0.613 0.778L0.608 0.782V0.848Q0.617 0.857 0.633 0.859Q0.648 0.861 0.657 0.868ZM0.323 0.795V0.733L0.316 0.725Q0.305 0.723 0.295 0.719Q0.285 0.715 0.275 0.710L0.270 0.713Q0.271 0.732 0.270 0.749Q0.269 0.766 0.271 0.782Q0.283 0.789 0.294 0.791Q0.305 0.794 0.316 0.800ZM0.661 0.775Q0.659 0.757 0.661 0.739Q0.663 0.722 0.659 0.703Q0.646 0.699 0.635 0.696Q0.623 0.693 0.613 0.687L0.608 0.692V0.754L0.613 0.761Q0.623 0.766 0.634 0.768Q0.645 0.770 0.655 0.776ZM0.323 0.705Q0.321 0.687 0.323 0.671Q0.325 0.654 0.321 0.637Q0.307 0.632 0.296 0.628Q0.285 0.623 0.275 0.621L0.270 0.622V0.687Q0.274 0.694 0.278 0.695Q0.287 0.697 0.297 0.701Q0.307 0.705 0.316 0.708ZM0.661 0.684Q0.659 0.666 0.661 0.648Q0.664 0.630 0.657 0.613Q0.646 0.608 0.635 0.605Q0.623 0.603 0.615 0.598L0.608 0.600V0.665Q0.613 0.672 0.616 0.673Q0.633 0.675 0.655 0.685ZM0.459 0.660Q0.456 0.641 0.458 0.625Q0.460 0.609 0.455 0.591Q0.442 0.585 0.431 0.583Q0.420 0.580 0.409 0.575L0.405 0.578V0.643Q0.414 0.653 0.429 0.655Q0.445 0.658 0.453 0.665ZM0.323 0.616Q0.321 0.598 0.323 0.579Q0.326 0.561 0.318 0.544Q0.304 0.542 0.292 0.537Q0.279 0.532 0.270 0.532V0.597L0.275 0.603Q0.285 0.608 0.296 0.610Q0.306 0.613 0.316 0.619ZM0.661 0.593Q0.659 0.575 0.661 0.557Q0.664 0.539 0.657 0.521Q0.644 0.519 0.630 0.514Q0.617 0.508 0.608 0.508V0.573Q0.612 0.580 0.616 0.581Q0.626 0.583 0.636 0.588Q0.645 0.593 0.655 0.597ZM0.459 0.572Q0.456 0.554 0.458 0.536Q0.460 0.517 0.455 0.500Q0.442 0.495 0.431 0.493Q0.420 0.491 0.409 0.484L0.405 0.489V0.551L0.409 0.557Q0.420 0.562 0.431 0.565Q0.441 0.567 0.452 0.573ZM0.323 0.524Q0.321 0.507 0.323 0.490Q0.325 0.474 0.321 0.456Q0.307 0.451 0.296 0.447Q0.285 0.443 0.275 0.439L0.270 0.442V0.507Q0.273 0.512 0.278 0.514Q0.288 0.516 0.297 0.520Q0.306 0.524 0.316 0.527ZM0.661 0.503Q0.659 0.486 0.661 0.467Q0.664 0.449 0.657 0.432Q0.646 0.428 0.635 0.425Q0.623 0.423 0.615 0.418L0.608 0.419V0.484L0.613 0.491Q0.623 0.494 0.634 0.496Q0.645 0.499 0.655 0.505ZM0.459 0.479Q0.457 0.463 0.458 0.449Q0.459 0.434 0.457 0.419L0.452 0.418Q0.440 0.421 0.430 0.426Q0.419 0.431 0.409 0.432L0.405 0.439V0.461Q0.408 0.467 0.413 0.470Q0.421 0.471 0.431 0.474Q0.440 0.478 0.452 0.483ZM0.323 0.434Q0.321 0.416 0.323 0.399Q0.325 0.383 0.321 0.365Q0.307 0.359 0.296 0.357Q0.285 0.355 0.275 0.349L0.270 0.353V0.418Q0.280 0.427 0.294 0.430Q0.307 0.433 0.318 0.439ZM0.661 0.413V0.354L0.659 0.349Q0.639 0.357 0.613 0.364L0.608 0.370V0.393Q0.613 0.400 0.616 0.401Q0.626 0.402 0.636 0.407Q0.645 0.412 0.655 0.416ZM0.323 0.343Q0.321 0.326 0.323 0.309Q0.325 0.293 0.321 0.275Q0.307 0.271 0.296 0.267Q0.285 0.262 0.275 0.258L0.270 0.261Q0.271 0.279 0.270 0.297Q0.269 0.314 0.271 0.329Q0.283 0.335 0.294 0.338Q0.305 0.341 0.316 0.348ZM0.478 0.301Q0.485 0.297 0.492 0.296Q0.499 0.296 0.503 0.291Q0.496 0.291 0.491 0.286Q0.485 0.282 0.479 0.282L0.473 0.284Q0.474 0.289 0.472 0.294Q0.471 0.299 0.474 0.301ZM0.533 0.284Q0.541 0.278 0.553 0.276Q0.564 0.273 0.574 0.269Q0.529 0.247 0.493 0.270Q0.501 0.271 0.512 0.275Q0.522 0.278 0.533 0.284ZM0.323 0.255Q0.321 0.237 0.323 0.218Q0.326 0.200 0.318 0.183Q0.304 0.181 0.293 0.175Q0.281 0.170 0.270 0.170V0.235L0.275 0.241Q0.285 0.246 0.296 0.249Q0.306 0.253 0.316 0.256ZM0.594 0.255Q0.591 0.237 0.593 0.218Q0.595 0.200 0.588 0.183Q0.577 0.178 0.566 0.176Q0.555 0.174 0.546 0.169L0.541 0.172V0.237Q0.551 0.244 0.563 0.248Q0.576 0.252 0.587 0.256ZM0.408 0.235Q0.429 0.226 0.437 0.226Q0.431 0.221 0.424 0.219Q0.417 0.217 0.411 0.213L0.405 0.215Q0.405 0.221 0.404 0.227Q0.403 0.233 0.408 0.235ZM0.328 0.170Q0.339 0.168 0.349 0.163Q0.360 0.158 0.370 0.154Q0.359 0.153 0.348 0.149Q0.338 0.145 0.328 0.142Q0.318 0.147 0.308 0.150Q0.297 0.153 0.289 0.154Q0.299 0.159 0.309 0.163Q0.318 0.167 0.328 0.170ZM0.600 0.170Q0.611 0.168 0.622 0.163Q0.633 0.158 0.642 0.154Q0.630 0.153 0.620 0.149Q0.609 0.145 0.600 0.142Q0.581 0.152 0.560 0.154Q0.572 0.159 0.581 0.163Q0.590 0.167 0.600 0.170ZM0.661 0.139V0.077L0.657 0.070Q0.646 0.066 0.635 0.063Q0.623 0.060 0.615 0.056L0.608 0.058V0.123Q0.613 0.130 0.616 0.131Q0.633 0.133 0.655 0.143ZM0.668 0.058Q0.679 0.050 0.689 0.049Q0.700 0.048 0.709 0.043Q0.701 0.039 0.690 0.036Q0.679 0.033 0.668 0.029Q0.658 0.033 0.648 0.037Q0.638 0.041 0.629 0.043Q0.639 0.048 0.649 0.050Q0.659 0.053 0.668 0.058Z" fill="black"/>
</svg>
