<svg xmlns="http://www.w3.org/2000/svg" viewBox="0 0 1 1" preserveAspectRatio="xMidYMid meet">
  <path d="M0.662 0.999Q0.646 0.990 0.630 0.986Q0.614 0.983 0.597 0.975Q0.595 0.897 0.597 0.821Q0.598 0.744 0.594 0.665Q0.549 0.689 0.503 0.673Q0.479 0.665 0.456 0.657Q0.432 0.648 0.409 0.640L0.406 0.641Q0.404 0.696 0.405 0.751Q0.406 0.805 0.405 0.860Q0.404 0.862 0.400 0.863Q0.397 0.864 0.393 0.867Q0.329 0.896 0.260 0.862L0.257 0.857V0.167Q0.257 0.040 0.260 0.038Q0.263 0.036 0.270 0.032Q0.331 0.004 0.400 0.037L0.405 0.043V0.121Q0.407 0.129 0.414 0.132Q0.430 0.133 0.470 0.150L0.473 0.154V0.234L0.476 0.240Q0.501 0.255 0.525 0.256L0.529 0.251V0.222Q0.531 0.221 0.532 0.218Q0.533 0.216 0.538 0.213Q0.550 0.212 0.564 0.207Q0.577 0.202 0.583 0.200Q0.590 0.197 0.591 0.195Q0.593 0.193 0.597 0.188V0.154L0.600 0.150Q0.665 0.113 0.740 0.150L0.743 0.154V0.917V0.971Q0.739 0.978 0.733 0.981Q0.717 0.981 0.699 0.990Q0.681 1.000 0.665 0.999H0.662ZM0.663 0.978Q0.660 0.959 0.663 0.943Q0.665 0.927 0.660 0.909Q0.648 0.902 0.637 0.899Q0.626 0.896 0.615 0.891L0.609 0.894Q0.611 0.913 0.610 0.930Q0.609 0.947 0.611 0.962Q0.623 0.968 0.635 0.972Q0.646 0.975 0.657 0.981ZM0.663 0.884V0.823Q0.658 0.815 0.655 0.814Q0.646 0.813 0.635 0.808Q0.623 0.804 0.616 0.802L0.609 0.803V0.868L0.615 0.874Q0.626 0.880 0.636 0.882Q0.647 0.884 0.657 0.889ZM0.323 0.865V0.800L0.319 0.793Q0.307 0.790 0.296 0.786Q0.285 0.782 0.276 0.780L0.271 0.782V0.848Q0.281 0.855 0.293 0.858Q0.305 0.862 0.318 0.867ZM0.663 0.795V0.733L0.657 0.725Q0.646 0.723 0.635 0.719Q0.624 0.715 0.615 0.710L0.609 0.713Q0.611 0.732 0.610 0.749Q0.609 0.766 0.611 0.782Q0.623 0.789 0.635 0.791Q0.646 0.794 0.657 0.800ZM0.323 0.773V0.711L0.319 0.703Q0.293 0.693 0.276 0.689L0.271 0.690V0.756L0.276 0.762Q0.287 0.764 0.298 0.769Q0.308 0.773 0.319 0.776ZM0.663 0.705Q0.660 0.687 0.663 0.671Q0.665 0.654 0.660 0.637Q0.648 0.632 0.637 0.628Q0.626 0.623 0.615 0.621L0.609 0.622V0.687Q0.612 0.693 0.617 0.695Q0.624 0.697 0.634 0.700Q0.644 0.703 0.657 0.708ZM0.323 0.684Q0.321 0.666 0.323 0.648Q0.326 0.630 0.319 0.613Q0.307 0.609 0.296 0.605Q0.285 0.601 0.276 0.598L0.271 0.602V0.666Q0.281 0.675 0.293 0.677Q0.305 0.680 0.318 0.685ZM0.527 0.662V0.597L0.522 0.590Q0.511 0.586 0.500 0.582Q0.489 0.578 0.480 0.576L0.475 0.578V0.643Q0.484 0.651 0.497 0.655Q0.510 0.659 0.520 0.663ZM0.460 0.637Q0.457 0.619 0.459 0.603Q0.462 0.586 0.457 0.569Q0.445 0.563 0.433 0.560Q0.422 0.558 0.411 0.553L0.406 0.555V0.621Q0.417 0.630 0.431 0.633Q0.445 0.636 0.455 0.641ZM0.663 0.616Q0.660 0.598 0.663 0.579Q0.666 0.561 0.659 0.544Q0.645 0.542 0.632 0.537Q0.619 0.532 0.609 0.532V0.597L0.615 0.603Q0.626 0.608 0.636 0.610Q0.647 0.613 0.657 0.619ZM0.323 0.593Q0.321 0.575 0.323 0.557Q0.326 0.539 0.319 0.521Q0.307 0.519 0.296 0.515Q0.285 0.511 0.276 0.508L0.271 0.510Q0.273 0.528 0.271 0.545Q0.270 0.562 0.273 0.578Q0.285 0.583 0.296 0.588Q0.307 0.592 0.319 0.597ZM0.527 0.570V0.508L0.522 0.500Q0.504 0.492 0.480 0.486L0.475 0.488V0.553L0.480 0.559Q0.490 0.560 0.501 0.565Q0.512 0.570 0.522 0.573ZM0.460 0.548Q0.457 0.529 0.459 0.513Q0.462 0.496 0.457 0.479Q0.445 0.475 0.433 0.471Q0.422 0.466 0.411 0.461L0.406 0.464V0.529L0.411 0.536Q0.433 0.541 0.454 0.551ZM0.663 0.524Q0.660 0.507 0.663 0.490Q0.665 0.474 0.660 0.456Q0.648 0.451 0.637 0.447Q0.626 0.443 0.615 0.439L0.609 0.442V0.507Q0.613 0.513 0.617 0.514Q0.629 0.516 0.638 0.520Q0.647 0.524 0.657 0.527ZM0.323 0.503Q0.321 0.486 0.323 0.467Q0.326 0.449 0.319 0.432Q0.307 0.428 0.296 0.424Q0.285 0.420 0.276 0.418L0.271 0.419V0.484L0.276 0.491Q0.287 0.496 0.298 0.497Q0.308 0.499 0.319 0.505ZM0.527 0.481Q0.524 0.463 0.526 0.445Q0.529 0.427 0.522 0.409Q0.511 0.405 0.500 0.401Q0.489 0.397 0.480 0.394L0.475 0.397V0.463Q0.484 0.472 0.497 0.474Q0.510 0.477 0.520 0.483ZM0.460 0.458Q0.457 0.440 0.460 0.422Q0.463 0.403 0.455 0.386Q0.442 0.384 0.430 0.379Q0.418 0.373 0.406 0.373V0.439L0.411 0.445Q0.422 0.449 0.433 0.453Q0.444 0.456 0.454 0.459ZM0.663 0.434Q0.660 0.416 0.663 0.399Q0.665 0.383 0.660 0.365Q0.648 0.359 0.637 0.357Q0.626 0.355 0.615 0.349L0.609 0.353V0.418Q0.620 0.427 0.634 0.430Q0.648 0.433 0.659 0.439ZM0.323 0.413Q0.321 0.394 0.323 0.377Q0.326 0.359 0.319 0.340Q0.307 0.338 0.296 0.334Q0.285 0.330 0.276 0.327L0.271 0.329Q0.273 0.348 0.271 0.365Q0.270 0.382 0.273 0.397Q0.285 0.402 0.296 0.407Q0.307 0.411 0.319 0.416ZM0.595 0.413Q0.593 0.394 0.595 0.377Q0.597 0.359 0.590 0.340Q0.577 0.338 0.564 0.333Q0.551 0.327 0.541 0.327V0.393Q0.546 0.400 0.549 0.401Q0.559 0.402 0.569 0.407Q0.579 0.412 0.589 0.416ZM0.527 0.389Q0.524 0.371 0.526 0.353Q0.529 0.335 0.522 0.318Q0.511 0.316 0.500 0.312Q0.489 0.308 0.480 0.305L0.475 0.306Q0.475 0.325 0.474 0.342Q0.473 0.360 0.476 0.375Q0.488 0.380 0.499 0.384Q0.511 0.388 0.522 0.393ZM0.460 0.367Q0.457 0.349 0.459 0.332Q0.462 0.316 0.457 0.299Q0.445 0.294 0.433 0.290Q0.422 0.286 0.411 0.280L0.406 0.284Q0.407 0.302 0.406 0.319Q0.405 0.336 0.408 0.353Q0.420 0.359 0.431 0.361Q0.443 0.364 0.454 0.370ZM0.392 0.343V0.282L0.387 0.274Q0.376 0.269 0.365 0.266Q0.354 0.263 0.344 0.259L0.338 0.261Q0.339 0.279 0.338 0.297Q0.337 0.314 0.340 0.329Q0.351 0.335 0.363 0.338Q0.374 0.340 0.385 0.348ZM0.663 0.343Q0.660 0.326 0.663 0.309Q0.665 0.293 0.660 0.275Q0.648 0.271 0.637 0.267Q0.626 0.262 0.615 0.258L0.609 0.261Q0.611 0.279 0.610 0.297Q0.609 0.314 0.611 0.329Q0.623 0.335 0.635 0.338Q0.646 0.341 0.657 0.348ZM0.323 0.321V0.259L0.319 0.251Q0.307 0.248 0.296 0.243Q0.285 0.239 0.276 0.237L0.271 0.238V0.303Q0.275 0.310 0.279 0.311Q0.290 0.313 0.299 0.317Q0.308 0.321 0.319 0.324ZM0.595 0.322Q0.593 0.305 0.595 0.287Q0.597 0.268 0.590 0.251Q0.579 0.247 0.568 0.243Q0.557 0.240 0.548 0.237L0.541 0.238V0.303Q0.545 0.310 0.549 0.311Q0.571 0.314 0.589 0.324ZM0.527 0.299Q0.525 0.294 0.526 0.290Q0.528 0.286 0.525 0.282H0.520Q0.513 0.285 0.507 0.288Q0.501 0.291 0.494 0.292Q0.502 0.294 0.508 0.297Q0.514 0.300 0.520 0.301ZM0.467 0.284Q0.475 0.278 0.486 0.276Q0.497 0.273 0.508 0.269Q0.463 0.247 0.427 0.270Q0.435 0.271 0.446 0.275Q0.456 0.278 0.467 0.284ZM0.392 0.253Q0.389 0.235 0.391 0.218Q0.393 0.201 0.389 0.184Q0.376 0.178 0.364 0.176Q0.353 0.174 0.343 0.169L0.338 0.172Q0.341 0.190 0.338 0.206Q0.336 0.223 0.341 0.240Q0.353 0.246 0.364 0.249Q0.376 0.252 0.387 0.258ZM0.663 0.255Q0.660 0.237 0.663 0.218Q0.666 0.200 0.659 0.183Q0.645 0.181 0.633 0.175Q0.621 0.170 0.609 0.170V0.235L0.615 0.241Q0.626 0.246 0.636 0.249Q0.647 0.253 0.657 0.256ZM0.323 0.232Q0.321 0.213 0.323 0.195Q0.326 0.177 0.319 0.160Q0.307 0.155 0.296 0.153Q0.285 0.151 0.276 0.147L0.271 0.148Q0.273 0.167 0.271 0.184Q0.270 0.201 0.273 0.216Q0.285 0.222 0.296 0.226Q0.307 0.231 0.319 0.235ZM0.590 0.235Q0.596 0.232 0.595 0.226Q0.594 0.221 0.595 0.216L0.590 0.213Q0.583 0.218 0.576 0.219Q0.569 0.220 0.562 0.224Q0.571 0.228 0.577 0.230Q0.584 0.232 0.590 0.235ZM0.398 0.170Q0.409 0.166 0.418 0.163Q0.427 0.161 0.438 0.154Q0.426 0.150 0.416 0.148Q0.406 0.146 0.397 0.142Q0.387 0.147 0.376 0.150Q0.365 0.153 0.359 0.157Q0.369 0.159 0.379 0.163Q0.388 0.168 0.398 0.170ZM0.668 0.170Q0.679 0.168 0.690 0.163Q0.701 0.158 0.711 0.154Q0.700 0.153 0.689 0.149Q0.678 0.145 0.668 0.142Q0.649 0.152 0.630 0.154Q0.640 0.159 0.649 0.163Q0.658 0.167 0.668 0.170ZM0.323 0.140V0.078L0.319 0.070Q0.307 0.067 0.296 0.063Q0.285 0.059 0.276 0.056L0.271 0.058V0.123Q0.276 0.130 0.279 0.131Q0.290 0.132 0.299 0.136Q0.308 0.140 0.319 0.143ZM0.332 0.058Q0.339 0.050 0.352 0.049Q0.364 0.049 0.370 0.042Q0.359 0.040 0.349 0.035Q0.338 0.029 0.328 0.029Q0.319 0.035 0.309 0.037Q0.299 0.039 0.291 0.043Q0.301 0.047 0.311 0.050Q0.322 0.053 0.332 0.058Z" fill="black"/>
</svg>
