<svg xmlns="http://www.w3.org/2000/svg" viewBox="0 0 1 1" preserveAspectRatio="xMidYMid meet">
  <path d="M0.321 1.000Q0.305 0.993 0.289 0.987Q0.273 0.982 0.256 0.976V0.149Q0.283 0.141 0.309 0.133Q0.335 0.124 0.362 0.113Q0.416 0.091 0.468 0.126L0.472 0.131V0.255Q0.475 0.263 0.482 0.266Q0.495 0.268 0.509 0.274Q0.522 0.279 0.537 0.285L0.540 0.290V0.325L0.545 0.332Q0.556 0.333 0.569 0.339Q0.581 0.346 0.595 0.347Q0.597 0.291 0.596 0.235Q0.595 0.179 0.596 0.121V0.038Q0.614 0.030 0.636 0.022Q0.659 0.013 0.679 0.012Q0.691 0.020 0.708 0.023Q0.725 0.026 0.742 0.035L0.744 0.040V0.860Q0.732 0.866 0.718 0.872Q0.704 0.878 0.691 0.882Q0.677 0.885 0.663 0.885Q0.648 0.884 0.635 0.876Q0.626 0.873 0.617 0.871Q0.609 0.869 0.599 0.863L0.596 0.858Q0.595 0.803 0.596 0.747Q0.597 0.692 0.592 0.636Q0.577 0.629 0.562 0.626Q0.547 0.622 0.530 0.613Q0.527 0.605 0.529 0.595Q0.530 0.585 0.529 0.575Q0.524 0.566 0.519 0.564Q0.498 0.559 0.477 0.551L0.474 0.553Q0.471 0.562 0.472 0.573Q0.473 0.584 0.472 0.596V0.949L0.468 0.954Q0.434 0.965 0.398 0.978Q0.363 0.991 0.328 1.000H0.321ZM0.323 0.979V0.914Q0.318 0.908 0.315 0.905Q0.302 0.904 0.290 0.899Q0.278 0.894 0.269 0.894V0.958L0.274 0.965Q0.285 0.971 0.295 0.974Q0.306 0.977 0.317 0.982ZM0.323 0.887Q0.320 0.869 0.322 0.853Q0.324 0.836 0.320 0.819Q0.307 0.814 0.296 0.810Q0.285 0.806 0.274 0.801L0.269 0.804V0.869Q0.273 0.876 0.277 0.877Q0.299 0.880 0.317 0.890ZM0.663 0.863V0.801L0.659 0.794Q0.646 0.790 0.636 0.787Q0.625 0.784 0.616 0.779L0.611 0.782V0.850Q0.620 0.857 0.633 0.859Q0.645 0.861 0.657 0.868ZM0.323 0.796Q0.320 0.777 0.322 0.761Q0.324 0.745 0.320 0.727Q0.307 0.722 0.296 0.720Q0.285 0.717 0.274 0.710L0.269 0.714V0.779Q0.279 0.789 0.293 0.792Q0.307 0.795 0.318 0.801ZM0.663 0.774Q0.660 0.756 0.663 0.738Q0.666 0.721 0.659 0.703Q0.646 0.700 0.636 0.696Q0.625 0.692 0.616 0.690L0.611 0.691Q0.612 0.709 0.611 0.727Q0.610 0.744 0.612 0.760Q0.624 0.765 0.635 0.769Q0.646 0.773 0.659 0.777ZM0.323 0.705Q0.320 0.688 0.322 0.671Q0.324 0.654 0.320 0.637Q0.307 0.633 0.296 0.629Q0.285 0.625 0.274 0.619L0.269 0.622V0.688L0.274 0.694Q0.297 0.700 0.317 0.709ZM0.663 0.683V0.624L0.659 0.619Q0.647 0.625 0.634 0.630Q0.620 0.634 0.611 0.639V0.669Q0.620 0.676 0.633 0.677Q0.645 0.679 0.657 0.686ZM0.323 0.616Q0.320 0.598 0.323 0.580Q0.325 0.562 0.318 0.544Q0.305 0.542 0.293 0.537Q0.280 0.532 0.269 0.532V0.597L0.274 0.603Q0.285 0.608 0.295 0.610Q0.306 0.613 0.317 0.618ZM0.595 0.616V0.557L0.591 0.553Q0.578 0.557 0.565 0.561Q0.552 0.565 0.542 0.572V0.598Q0.552 0.606 0.564 0.609Q0.576 0.613 0.587 0.618ZM0.527 0.548V0.489L0.524 0.484Q0.493 0.495 0.479 0.498L0.474 0.505V0.527L0.479 0.535Q0.489 0.540 0.499 0.542Q0.510 0.545 0.520 0.551ZM0.323 0.524Q0.320 0.507 0.322 0.490Q0.324 0.474 0.320 0.456Q0.307 0.451 0.296 0.447Q0.285 0.443 0.274 0.438L0.269 0.441Q0.270 0.460 0.269 0.477Q0.268 0.494 0.271 0.510Q0.283 0.516 0.294 0.519Q0.305 0.521 0.317 0.527ZM0.323 0.435V0.369Q0.318 0.364 0.315 0.362Q0.305 0.360 0.294 0.355Q0.283 0.351 0.275 0.349L0.269 0.350V0.415L0.274 0.422Q0.285 0.427 0.295 0.428Q0.306 0.430 0.317 0.436ZM0.614 0.436Q0.621 0.432 0.628 0.431Q0.635 0.430 0.641 0.427Q0.635 0.424 0.629 0.422Q0.622 0.420 0.617 0.417L0.611 0.419Q0.612 0.424 0.611 0.428Q0.610 0.433 0.612 0.436ZM0.663 0.410Q0.660 0.392 0.662 0.376Q0.664 0.359 0.659 0.342Q0.645 0.337 0.634 0.332Q0.622 0.327 0.611 0.327V0.395Q0.620 0.402 0.633 0.405Q0.645 0.408 0.657 0.414ZM0.545 0.369Q0.553 0.366 0.560 0.363Q0.567 0.361 0.573 0.358Q0.555 0.350 0.549 0.350L0.542 0.352Q0.543 0.357 0.542 0.361Q0.541 0.366 0.544 0.369ZM0.323 0.342V0.280Q0.316 0.271 0.313 0.270H0.307Q0.298 0.266 0.290 0.263Q0.282 0.260 0.274 0.257L0.269 0.260Q0.270 0.279 0.269 0.296Q0.268 0.313 0.271 0.328Q0.283 0.334 0.294 0.338Q0.305 0.341 0.317 0.347ZM0.663 0.322Q0.660 0.304 0.662 0.286Q0.664 0.267 0.659 0.251Q0.645 0.248 0.634 0.242Q0.622 0.236 0.611 0.236V0.304Q0.620 0.310 0.633 0.314Q0.645 0.317 0.657 0.323ZM0.479 0.301Q0.486 0.297 0.493 0.296Q0.500 0.295 0.504 0.290Q0.477 0.282 0.474 0.283Q0.475 0.288 0.473 0.293Q0.472 0.298 0.475 0.301ZM0.323 0.254Q0.320 0.236 0.323 0.217Q0.325 0.199 0.318 0.182Q0.307 0.179 0.296 0.175Q0.286 0.171 0.275 0.167L0.269 0.169V0.234L0.274 0.241Q0.285 0.245 0.295 0.247Q0.306 0.249 0.317 0.255ZM0.663 0.230Q0.660 0.211 0.662 0.195Q0.664 0.178 0.659 0.161Q0.645 0.158 0.634 0.151Q0.622 0.144 0.611 0.145V0.214Q0.620 0.222 0.633 0.223Q0.645 0.225 0.657 0.233ZM0.329 0.169Q0.340 0.163 0.350 0.161Q0.359 0.159 0.369 0.153Q0.326 0.131 0.291 0.155Q0.301 0.158 0.310 0.162Q0.320 0.167 0.329 0.169ZM0.398 0.145Q0.409 0.142 0.419 0.138Q0.429 0.134 0.439 0.131Q0.428 0.127 0.418 0.125Q0.408 0.123 0.398 0.118Q0.387 0.122 0.377 0.126Q0.367 0.129 0.358 0.131Q0.368 0.136 0.378 0.139Q0.388 0.142 0.398 0.145ZM0.663 0.141Q0.660 0.123 0.662 0.105Q0.664 0.086 0.659 0.069Q0.645 0.066 0.634 0.061Q0.622 0.056 0.611 0.054V0.123Q0.620 0.129 0.633 0.132Q0.645 0.135 0.657 0.142ZM0.669 0.056Q0.679 0.050 0.690 0.047Q0.701 0.045 0.708 0.040Q0.687 0.033 0.668 0.031Q0.649 0.029 0.630 0.042Q0.639 0.044 0.649 0.047Q0.659 0.051 0.669 0.056Z" fill="black"/>
</svg>
