<svg xmlns="http://www.w3.org/2000/svg" viewBox="0 0 1 1" preserveAspectRatio="xMidYMid meet">
  <path d="M0.659 1.000Q0.643 0.993 0.627 0.987Q0.611 0.982 0.594 0.976V0.713Q0.592 0.705 0.585 0.702Q0.561 0.698 0.530 0.684L0.526 0.680V0.599L0.522 0.592Q0.511 0.591 0.498 0.585Q0.485 0.578 0.473 0.577Q0.470 0.653 0.471 0.729Q0.472 0.805 0.471 0.881L0.465 0.888Q0.413 0.919 0.362 0.900Q0.337 0.890 0.312 0.881Q0.287 0.872 0.261 0.864L0.258 0.859V0.309V0.047Q0.268 0.042 0.280 0.036Q0.292 0.030 0.305 0.027Q0.317 0.023 0.330 0.022Q0.343 0.021 0.355 0.026Q0.383 0.038 0.411 0.046Q0.439 0.054 0.468 0.066L0.471 0.070V0.239L0.474 0.245Q0.486 0.254 0.503 0.257Q0.520 0.260 0.536 0.268Q0.538 0.289 0.537 0.309Q0.536 0.330 0.537 0.353L0.542 0.359Q0.554 0.364 0.565 0.367Q0.576 0.371 0.588 0.377L0.593 0.373Q0.595 0.320 0.594 0.267Q0.593 0.214 0.594 0.160L0.597 0.154Q0.665 0.121 0.736 0.154L0.741 0.160V0.555Q0.736 0.668 0.741 0.769Q0.743 0.820 0.742 0.871Q0.742 0.923 0.736 0.978Q0.735 0.978 0.732 0.981Q0.728 0.985 0.725 0.981Q0.710 0.985 0.694 0.992Q0.678 1.000 0.661 1.000H0.659ZM0.661 0.979V0.915Q0.658 0.909 0.653 0.907Q0.641 0.905 0.629 0.900Q0.618 0.894 0.607 0.894V0.959L0.613 0.965Q0.623 0.971 0.633 0.974Q0.644 0.977 0.654 0.982ZM0.390 0.889Q0.388 0.872 0.390 0.854Q0.393 0.835 0.386 0.818Q0.375 0.814 0.364 0.811Q0.353 0.808 0.343 0.804L0.337 0.806V0.870Q0.340 0.876 0.345 0.878Q0.353 0.879 0.363 0.883Q0.373 0.886 0.384 0.891ZM0.661 0.888Q0.658 0.871 0.660 0.854Q0.662 0.837 0.657 0.820Q0.645 0.816 0.634 0.812Q0.623 0.808 0.613 0.802L0.607 0.806V0.870Q0.611 0.877 0.616 0.878Q0.637 0.881 0.654 0.891ZM0.322 0.866V0.804L0.318 0.796Q0.307 0.793 0.295 0.789Q0.284 0.785 0.276 0.782L0.271 0.783V0.848L0.276 0.854Q0.286 0.859 0.297 0.861Q0.308 0.863 0.318 0.869ZM0.390 0.798Q0.388 0.779 0.390 0.763Q0.392 0.747 0.387 0.730Q0.375 0.724 0.364 0.722Q0.352 0.720 0.342 0.713L0.337 0.716V0.782Q0.347 0.790 0.361 0.793Q0.375 0.797 0.386 0.802ZM0.661 0.798Q0.658 0.779 0.660 0.763Q0.662 0.747 0.657 0.730Q0.645 0.724 0.634 0.722Q0.623 0.720 0.613 0.713L0.607 0.716V0.782Q0.618 0.790 0.631 0.793Q0.645 0.797 0.656 0.802ZM0.322 0.776Q0.320 0.759 0.322 0.741Q0.325 0.723 0.318 0.705Q0.304 0.700 0.293 0.697Q0.282 0.694 0.276 0.692L0.271 0.694Q0.272 0.712 0.271 0.729Q0.269 0.746 0.272 0.762Q0.284 0.767 0.295 0.771Q0.307 0.775 0.318 0.779ZM0.390 0.710Q0.388 0.692 0.390 0.674Q0.392 0.657 0.387 0.639Q0.375 0.636 0.364 0.632Q0.352 0.627 0.342 0.624L0.337 0.627V0.689L0.342 0.695Q0.352 0.701 0.363 0.703Q0.374 0.705 0.384 0.711ZM0.661 0.708Q0.658 0.690 0.660 0.674Q0.662 0.658 0.657 0.640Q0.645 0.636 0.634 0.632Q0.623 0.628 0.613 0.623L0.607 0.626V0.690L0.613 0.697Q0.624 0.699 0.634 0.703Q0.644 0.706 0.654 0.711ZM0.322 0.686V0.624L0.318 0.616Q0.307 0.613 0.295 0.609Q0.284 0.605 0.276 0.602L0.271 0.603V0.668Q0.274 0.674 0.279 0.676Q0.289 0.678 0.298 0.681Q0.308 0.685 0.318 0.689ZM0.593 0.686V0.624L0.588 0.616Q0.577 0.612 0.566 0.609Q0.555 0.606 0.546 0.602L0.539 0.603V0.668Q0.543 0.675 0.547 0.676Q0.567 0.679 0.586 0.689ZM0.390 0.618Q0.388 0.600 0.390 0.583Q0.392 0.567 0.387 0.550Q0.375 0.544 0.364 0.541Q0.352 0.539 0.342 0.534L0.337 0.537V0.602Q0.346 0.612 0.361 0.614Q0.377 0.616 0.386 0.623ZM0.661 0.619Q0.658 0.602 0.661 0.583Q0.663 0.565 0.656 0.548Q0.643 0.546 0.631 0.540Q0.620 0.535 0.607 0.535V0.600L0.613 0.607Q0.623 0.612 0.633 0.614Q0.644 0.617 0.654 0.621ZM0.322 0.596Q0.320 0.577 0.322 0.561Q0.324 0.545 0.319 0.526Q0.306 0.522 0.293 0.518Q0.280 0.513 0.271 0.513V0.577L0.276 0.583Q0.306 0.595 0.318 0.600ZM0.593 0.596Q0.590 0.577 0.592 0.561Q0.594 0.545 0.589 0.526Q0.577 0.521 0.566 0.519Q0.555 0.517 0.544 0.511L0.539 0.514V0.578Q0.551 0.587 0.564 0.591Q0.577 0.595 0.588 0.600ZM0.525 0.574Q0.522 0.556 0.525 0.538Q0.527 0.520 0.520 0.503Q0.506 0.498 0.495 0.495Q0.484 0.492 0.477 0.490L0.473 0.492Q0.474 0.510 0.473 0.527Q0.471 0.544 0.474 0.559Q0.486 0.564 0.498 0.569Q0.509 0.573 0.520 0.577ZM0.390 0.530Q0.388 0.513 0.390 0.495Q0.392 0.477 0.387 0.459Q0.374 0.455 0.362 0.451Q0.351 0.447 0.342 0.443L0.337 0.448V0.509L0.342 0.515Q0.352 0.520 0.363 0.523Q0.374 0.525 0.384 0.532ZM0.661 0.528Q0.658 0.511 0.660 0.494Q0.662 0.478 0.657 0.460Q0.645 0.456 0.634 0.452Q0.623 0.448 0.613 0.443L0.607 0.446Q0.608 0.464 0.607 0.481Q0.606 0.498 0.609 0.514Q0.621 0.520 0.632 0.523Q0.643 0.525 0.654 0.532ZM0.322 0.506V0.444L0.318 0.436Q0.307 0.433 0.295 0.429Q0.284 0.425 0.276 0.422L0.271 0.424V0.489L0.276 0.495Q0.286 0.496 0.297 0.501Q0.308 0.506 0.318 0.509ZM0.586 0.509Q0.595 0.511 0.593 0.504Q0.591 0.497 0.593 0.495L0.588 0.489Q0.580 0.493 0.572 0.494Q0.565 0.496 0.561 0.499Q0.568 0.498 0.574 0.503Q0.580 0.508 0.586 0.509ZM0.525 0.484V0.422L0.520 0.414Q0.509 0.411 0.498 0.407Q0.487 0.402 0.477 0.399L0.473 0.400V0.465Q0.476 0.472 0.481 0.474Q0.492 0.475 0.501 0.479Q0.510 0.484 0.520 0.487ZM0.458 0.462Q0.455 0.445 0.458 0.427Q0.461 0.409 0.453 0.391Q0.443 0.388 0.432 0.384Q0.421 0.380 0.411 0.377L0.405 0.378V0.443L0.410 0.449Q0.420 0.454 0.432 0.456Q0.443 0.458 0.452 0.464ZM0.390 0.439Q0.388 0.422 0.390 0.404Q0.393 0.386 0.386 0.368Q0.375 0.364 0.364 0.361Q0.353 0.359 0.343 0.354L0.337 0.356V0.420Q0.341 0.427 0.345 0.428Q0.353 0.429 0.363 0.432Q0.373 0.436 0.384 0.441ZM0.661 0.439V0.375Q0.658 0.369 0.653 0.367Q0.643 0.365 0.632 0.361Q0.621 0.357 0.615 0.354L0.607 0.356V0.420L0.613 0.427Q0.623 0.432 0.633 0.433Q0.644 0.435 0.654 0.441ZM0.322 0.417Q0.320 0.399 0.322 0.381Q0.325 0.363 0.318 0.346Q0.307 0.341 0.295 0.339Q0.284 0.337 0.276 0.331L0.271 0.334V0.399Q0.280 0.407 0.292 0.410Q0.305 0.414 0.316 0.419ZM0.533 0.400Q0.540 0.393 0.553 0.392Q0.566 0.391 0.572 0.384Q0.552 0.379 0.532 0.378Q0.512 0.376 0.493 0.386Q0.503 0.392 0.513 0.393Q0.523 0.394 0.533 0.400ZM0.458 0.372Q0.455 0.354 0.458 0.336Q0.461 0.318 0.453 0.301Q0.440 0.298 0.427 0.293Q0.414 0.288 0.405 0.288V0.353L0.410 0.359Q0.420 0.364 0.432 0.366Q0.443 0.369 0.452 0.375ZM0.390 0.349Q0.388 0.331 0.390 0.313Q0.393 0.295 0.386 0.277Q0.372 0.275 0.359 0.270Q0.346 0.265 0.337 0.265V0.329L0.342 0.336Q0.352 0.341 0.363 0.344Q0.374 0.347 0.384 0.353ZM0.661 0.348V0.286L0.654 0.277Q0.643 0.275 0.633 0.272Q0.623 0.268 0.613 0.263L0.607 0.266Q0.608 0.285 0.607 0.302Q0.606 0.319 0.609 0.334Q0.621 0.340 0.632 0.343Q0.643 0.347 0.654 0.353ZM0.322 0.326Q0.320 0.308 0.322 0.290Q0.325 0.272 0.318 0.255Q0.307 0.254 0.295 0.248Q0.284 0.243 0.276 0.242L0.271 0.244V0.309L0.276 0.315Q0.286 0.317 0.297 0.322Q0.308 0.326 0.318 0.329ZM0.467 0.288Q0.477 0.282 0.486 0.280Q0.496 0.278 0.506 0.274Q0.498 0.268 0.488 0.268Q0.478 0.267 0.471 0.261Q0.462 0.259 0.454 0.264Q0.447 0.268 0.440 0.268Q0.436 0.271 0.431 0.272Q0.427 0.272 0.427 0.276Q0.443 0.278 0.465 0.289ZM0.390 0.260Q0.388 0.242 0.390 0.224Q0.393 0.206 0.386 0.189Q0.375 0.184 0.364 0.181Q0.353 0.179 0.343 0.174L0.337 0.176V0.240Q0.342 0.248 0.345 0.249Q0.360 0.250 0.384 0.261ZM0.661 0.260Q0.658 0.242 0.661 0.224Q0.663 0.206 0.656 0.189Q0.645 0.186 0.634 0.182Q0.624 0.178 0.615 0.174L0.607 0.176V0.240L0.613 0.247Q0.623 0.252 0.633 0.254Q0.644 0.256 0.654 0.261ZM0.322 0.238Q0.320 0.220 0.322 0.201Q0.325 0.183 0.318 0.166Q0.307 0.163 0.295 0.158Q0.284 0.153 0.276 0.151L0.271 0.154V0.220Q0.280 0.229 0.292 0.231Q0.305 0.233 0.316 0.239ZM0.667 0.176Q0.678 0.170 0.687 0.168Q0.697 0.167 0.706 0.161Q0.664 0.137 0.629 0.163Q0.639 0.165 0.648 0.169Q0.657 0.174 0.667 0.176ZM0.390 0.170Q0.388 0.151 0.390 0.133Q0.393 0.115 0.386 0.098Q0.372 0.096 0.359 0.090Q0.346 0.085 0.337 0.085V0.150Q0.339 0.152 0.341 0.154Q0.343 0.157 0.345 0.158Q0.355 0.160 0.365 0.165Q0.374 0.170 0.384 0.173ZM0.322 0.146V0.085L0.318 0.077Q0.307 0.072 0.296 0.069Q0.286 0.065 0.276 0.063L0.271 0.064Q0.272 0.082 0.271 0.099Q0.269 0.116 0.272 0.132Q0.284 0.137 0.295 0.141Q0.307 0.145 0.318 0.150ZM0.397 0.086Q0.408 0.081 0.418 0.078Q0.429 0.074 0.438 0.072Q0.429 0.068 0.417 0.064Q0.405 0.060 0.395 0.057Q0.385 0.062 0.376 0.065Q0.367 0.068 0.358 0.072Q0.367 0.074 0.376 0.078Q0.386 0.081 0.397 0.086ZM0.331 0.064Q0.339 0.057 0.350 0.055Q0.361 0.053 0.371 0.049Q0.369 0.048 0.366 0.047Q0.364 0.047 0.359 0.045Q0.321 0.027 0.291 0.051Q0.303 0.052 0.312 0.056Q0.321 0.061 0.331 0.064Z" fill="black"/>
</svg>
