<svg xmlns="http://www.w3.org/2000/svg" viewBox="0 0 1 1" preserveAspectRatio="xMidYMid meet">
  <path d="M0.392 0.978Q0.357 0.962 0.328 0.953Q0.327 0.942 0.328 0.931Q0.329 0.921 0.324 0.909Q0.309 0.901 0.294 0.898Q0.278 0.895 0.263 0.886Q0.260 0.730 0.262 0.574Q0.263 0.419 0.262 0.259Q0.291 0.243 0.318 0.239L0.324 0.236L0.328 0.230V0.150L0.332 0.145Q0.418 0.130 0.500 0.086Q0.585 0.042 0.670 0.079Q0.672 0.088 0.671 0.099Q0.670 0.109 0.672 0.118L0.676 0.124Q0.690 0.131 0.706 0.136Q0.722 0.140 0.737 0.146Q0.739 0.195 0.738 0.241Q0.737 0.288 0.739 0.336Q0.737 0.450 0.738 0.559Q0.740 0.668 0.735 0.777Q0.715 0.784 0.676 0.799L0.672 0.805V0.884Q0.668 0.884 0.666 0.887Q0.665 0.890 0.661 0.892Q0.596 0.910 0.530 0.934Q0.464 0.958 0.399 0.976L0.392 0.978ZM0.394 0.954Q0.392 0.939 0.393 0.925Q0.394 0.911 0.392 0.895Q0.379 0.895 0.365 0.901Q0.351 0.908 0.341 0.914V0.939Q0.352 0.947 0.365 0.950Q0.379 0.953 0.389 0.959ZM0.327 0.891Q0.324 0.873 0.326 0.855Q0.328 0.837 0.324 0.821Q0.312 0.816 0.301 0.814Q0.290 0.811 0.279 0.805L0.274 0.809V0.871L0.279 0.876Q0.290 0.881 0.300 0.884Q0.311 0.886 0.321 0.892ZM0.479 0.848Q0.487 0.843 0.493 0.843Q0.500 0.842 0.507 0.838L0.506 0.835Q0.497 0.835 0.489 0.832Q0.481 0.828 0.474 0.830Q0.475 0.835 0.474 0.840Q0.473 0.845 0.476 0.848ZM0.533 0.830Q0.542 0.824 0.552 0.822Q0.563 0.819 0.571 0.814Q0.524 0.798 0.495 0.816Q0.503 0.818 0.513 0.822Q0.522 0.825 0.533 0.830ZM0.327 0.802Q0.324 0.784 0.327 0.766Q0.329 0.748 0.323 0.732Q0.312 0.727 0.301 0.725Q0.290 0.723 0.282 0.717L0.274 0.718V0.783Q0.278 0.790 0.283 0.790Q0.299 0.793 0.321 0.804ZM0.479 0.804Q0.491 0.798 0.502 0.795Q0.512 0.793 0.523 0.788Q0.527 0.646 0.526 0.509Q0.525 0.371 0.525 0.231L0.521 0.230Q0.510 0.237 0.499 0.239Q0.488 0.241 0.477 0.245Q0.474 0.386 0.474 0.525Q0.474 0.664 0.476 0.804ZM0.593 0.802Q0.590 0.784 0.593 0.766Q0.596 0.748 0.588 0.732Q0.575 0.729 0.564 0.724Q0.553 0.718 0.541 0.718V0.783L0.546 0.789Q0.556 0.794 0.567 0.796Q0.577 0.798 0.587 0.804ZM0.327 0.712Q0.324 0.694 0.327 0.677Q0.329 0.660 0.323 0.642Q0.309 0.640 0.296 0.635Q0.284 0.630 0.274 0.630V0.693Q0.277 0.699 0.283 0.701Q0.293 0.703 0.302 0.708Q0.311 0.712 0.321 0.715ZM0.593 0.710V0.650L0.588 0.644Q0.578 0.639 0.567 0.637Q0.555 0.634 0.546 0.628L0.541 0.631Q0.542 0.649 0.541 0.666Q0.540 0.683 0.543 0.698Q0.555 0.704 0.566 0.707Q0.576 0.709 0.587 0.715ZM0.327 0.621V0.561L0.323 0.555Q0.312 0.550 0.301 0.547Q0.290 0.544 0.282 0.540L0.274 0.542V0.606Q0.279 0.613 0.283 0.614Q0.302 0.617 0.321 0.626ZM0.593 0.623Q0.590 0.606 0.592 0.589Q0.595 0.573 0.590 0.556Q0.578 0.552 0.567 0.547Q0.556 0.543 0.546 0.540L0.541 0.542V0.606Q0.546 0.613 0.549 0.614Q0.561 0.615 0.587 0.626ZM0.327 0.534Q0.324 0.515 0.326 0.499Q0.328 0.484 0.324 0.467Q0.312 0.462 0.301 0.460Q0.290 0.457 0.279 0.451L0.274 0.454V0.517Q0.285 0.526 0.298 0.529Q0.312 0.533 0.323 0.539ZM0.593 0.536Q0.590 0.517 0.593 0.499Q0.596 0.482 0.588 0.465Q0.575 0.463 0.562 0.458Q0.550 0.452 0.541 0.452V0.516L0.546 0.522Q0.556 0.527 0.567 0.530Q0.577 0.533 0.587 0.539ZM0.327 0.448Q0.324 0.430 0.327 0.412Q0.329 0.394 0.323 0.378Q0.312 0.373 0.301 0.370Q0.290 0.367 0.282 0.364L0.274 0.365V0.429Q0.277 0.435 0.283 0.437Q0.302 0.439 0.321 0.449ZM0.593 0.446Q0.590 0.428 0.592 0.412Q0.595 0.396 0.590 0.379Q0.578 0.375 0.567 0.371Q0.556 0.367 0.546 0.362L0.541 0.365V0.429Q0.544 0.435 0.549 0.437Q0.559 0.438 0.568 0.442Q0.577 0.446 0.587 0.449ZM0.327 0.357Q0.324 0.339 0.326 0.323Q0.328 0.307 0.324 0.290Q0.312 0.284 0.301 0.282Q0.290 0.280 0.279 0.274L0.274 0.277V0.341Q0.285 0.350 0.298 0.353Q0.312 0.356 0.323 0.362ZM0.593 0.357Q0.590 0.339 0.592 0.323Q0.595 0.307 0.590 0.290Q0.578 0.284 0.567 0.282Q0.556 0.280 0.546 0.274L0.541 0.277V0.341Q0.551 0.350 0.565 0.353Q0.578 0.356 0.588 0.362ZM0.333 0.277Q0.341 0.271 0.353 0.269Q0.364 0.267 0.372 0.261Q0.361 0.257 0.351 0.255Q0.341 0.253 0.332 0.248Q0.322 0.253 0.312 0.256Q0.302 0.259 0.296 0.263Q0.304 0.265 0.313 0.269Q0.322 0.272 0.333 0.277ZM0.593 0.269V0.215L0.588 0.207Q0.575 0.213 0.564 0.217Q0.553 0.221 0.541 0.227Q0.542 0.234 0.541 0.241Q0.540 0.248 0.543 0.255Q0.555 0.261 0.566 0.264Q0.576 0.266 0.587 0.272ZM0.394 0.247Q0.391 0.229 0.393 0.213Q0.395 0.197 0.390 0.180Q0.379 0.176 0.368 0.172Q0.357 0.168 0.347 0.163L0.341 0.166V0.230Q0.345 0.236 0.350 0.238Q0.360 0.239 0.369 0.243Q0.378 0.247 0.387 0.250ZM0.400 0.166Q0.409 0.159 0.419 0.158Q0.430 0.158 0.439 0.151Q0.399 0.129 0.363 0.153Q0.377 0.154 0.400 0.166ZM0.676 0.163Q0.700 0.153 0.705 0.153Q0.700 0.148 0.693 0.147Q0.685 0.145 0.680 0.142L0.673 0.143Q0.675 0.148 0.673 0.154Q0.672 0.161 0.676 0.163ZM0.467 0.143Q0.475 0.139 0.487 0.136Q0.500 0.133 0.506 0.128Q0.496 0.125 0.486 0.122Q0.476 0.120 0.467 0.116Q0.459 0.122 0.454 0.119Q0.442 0.128 0.428 0.129Q0.438 0.134 0.448 0.137Q0.457 0.140 0.467 0.143ZM0.533 0.121Q0.542 0.117 0.552 0.115Q0.563 0.113 0.571 0.106Q0.560 0.106 0.550 0.101Q0.541 0.096 0.533 0.095Q0.525 0.096 0.519 0.099Q0.513 0.102 0.507 0.102Q0.503 0.105 0.500 0.105Q0.497 0.106 0.495 0.107Q0.503 0.110 0.512 0.113Q0.521 0.117 0.533 0.121ZM0.599 0.099Q0.609 0.097 0.619 0.092Q0.630 0.087 0.640 0.084Q0.629 0.082 0.618 0.078Q0.608 0.074 0.599 0.071Q0.588 0.076 0.578 0.079Q0.568 0.082 0.560 0.084Q0.570 0.088 0.579 0.092Q0.588 0.096 0.599 0.099Z" fill="black"/>
</svg>
