<svg xmlns="http://www.w3.org/2000/svg" viewBox="0 0 1 1" preserveAspectRatio="xMidYMid meet">
  <path d="M0.593 0.977Q0.526 0.951 0.459 0.931Q0.393 0.911 0.325 0.884Q0.324 0.863 0.326 0.840Q0.328 0.818 0.321 0.795Q0.308 0.793 0.292 0.786Q0.277 0.779 0.263 0.775L0.260 0.770V0.141Q0.259 0.142 0.262 0.141Q0.265 0.139 0.271 0.134Q0.295 0.130 0.323 0.117Q0.327 0.108 0.325 0.097Q0.323 0.086 0.325 0.075Q0.362 0.047 0.404 0.054Q0.425 0.058 0.447 0.063Q0.468 0.068 0.488 0.076Q0.534 0.091 0.579 0.108Q0.625 0.124 0.671 0.137Q0.673 0.159 0.672 0.179Q0.671 0.199 0.672 0.222Q0.673 0.228 0.683 0.233Q0.699 0.238 0.711 0.241Q0.723 0.244 0.735 0.250L0.740 0.257V0.883Q0.726 0.892 0.709 0.896Q0.693 0.900 0.677 0.908L0.672 0.914V0.949L0.669 0.954Q0.654 0.958 0.638 0.964Q0.622 0.971 0.605 0.977H0.593ZM0.589 0.958Q0.594 0.940 0.593 0.924Q0.591 0.909 0.593 0.891L0.588 0.884Q0.577 0.880 0.566 0.878Q0.556 0.876 0.545 0.870L0.540 0.873Q0.542 0.892 0.541 0.909Q0.540 0.926 0.542 0.941Q0.554 0.947 0.566 0.950Q0.577 0.952 0.588 0.958ZM0.526 0.933Q0.524 0.916 0.527 0.897Q0.529 0.879 0.522 0.862Q0.509 0.860 0.496 0.855Q0.482 0.850 0.473 0.850V0.914L0.478 0.920Q0.488 0.925 0.500 0.927Q0.511 0.930 0.520 0.936ZM0.459 0.911V0.850L0.454 0.841Q0.441 0.837 0.428 0.832Q0.415 0.827 0.406 0.827V0.891Q0.409 0.897 0.414 0.899Q0.424 0.900 0.434 0.905Q0.443 0.911 0.453 0.914ZM0.392 0.888V0.827L0.387 0.819Q0.376 0.814 0.365 0.810Q0.354 0.807 0.344 0.805L0.340 0.806V0.870L0.344 0.876Q0.355 0.878 0.366 0.883Q0.377 0.888 0.387 0.891ZM0.660 0.890Q0.657 0.872 0.659 0.854Q0.661 0.835 0.657 0.819Q0.645 0.814 0.633 0.811Q0.622 0.809 0.611 0.803L0.607 0.808V0.869L0.611 0.875Q0.622 0.880 0.633 0.883Q0.644 0.885 0.653 0.891ZM0.593 0.866Q0.591 0.848 0.592 0.831Q0.593 0.814 0.591 0.798Q0.578 0.794 0.567 0.789Q0.557 0.785 0.545 0.783L0.540 0.784Q0.542 0.802 0.541 0.819Q0.540 0.835 0.542 0.852Q0.554 0.857 0.566 0.860Q0.577 0.863 0.588 0.869ZM0.520 0.847Q0.528 0.848 0.527 0.841Q0.525 0.834 0.526 0.831L0.522 0.825Q0.513 0.831 0.504 0.831Q0.496 0.831 0.491 0.836Q0.499 0.839 0.506 0.841Q0.514 0.842 0.520 0.847ZM0.466 0.828Q0.474 0.822 0.485 0.820Q0.497 0.817 0.504 0.812Q0.493 0.810 0.483 0.805Q0.473 0.801 0.464 0.800Q0.454 0.804 0.444 0.807Q0.435 0.811 0.427 0.814Q0.445 0.818 0.466 0.828ZM0.392 0.800Q0.389 0.782 0.391 0.764Q0.394 0.746 0.387 0.729Q0.376 0.726 0.365 0.722Q0.354 0.717 0.344 0.714L0.340 0.717V0.783Q0.349 0.791 0.361 0.793Q0.374 0.796 0.386 0.802ZM0.526 0.800V0.247Q0.523 0.242 0.521 0.239Q0.519 0.237 0.518 0.236Q0.507 0.235 0.496 0.230Q0.484 0.225 0.473 0.225V0.780L0.478 0.787Q0.488 0.792 0.500 0.794Q0.511 0.796 0.520 0.802ZM0.660 0.800Q0.657 0.782 0.660 0.764Q0.662 0.746 0.655 0.729Q0.644 0.725 0.633 0.722Q0.623 0.720 0.613 0.714L0.607 0.716V0.780Q0.610 0.787 0.615 0.789Q0.624 0.790 0.633 0.793Q0.642 0.797 0.653 0.802ZM0.324 0.777Q0.322 0.759 0.323 0.741Q0.325 0.724 0.321 0.706Q0.310 0.704 0.298 0.699Q0.286 0.694 0.279 0.692L0.273 0.694V0.758L0.277 0.764Q0.288 0.769 0.299 0.772Q0.310 0.774 0.320 0.778ZM0.593 0.777V0.713L0.588 0.706Q0.577 0.703 0.566 0.699Q0.556 0.695 0.545 0.694L0.540 0.695V0.759Q0.550 0.767 0.563 0.771Q0.575 0.774 0.586 0.778ZM0.392 0.709Q0.389 0.691 0.391 0.674Q0.394 0.657 0.387 0.639Q0.376 0.637 0.365 0.633Q0.354 0.629 0.344 0.626L0.340 0.628Q0.341 0.645 0.340 0.663Q0.339 0.680 0.342 0.695Q0.353 0.700 0.364 0.704Q0.376 0.708 0.387 0.713ZM0.660 0.709Q0.657 0.691 0.660 0.674Q0.662 0.657 0.655 0.639Q0.642 0.637 0.629 0.632Q0.616 0.626 0.607 0.626V0.690Q0.611 0.697 0.615 0.698Q0.626 0.700 0.635 0.705Q0.644 0.709 0.653 0.713ZM0.324 0.687Q0.323 0.669 0.323 0.652Q0.324 0.636 0.323 0.620Q0.311 0.614 0.299 0.611Q0.288 0.608 0.277 0.602L0.273 0.606Q0.274 0.623 0.273 0.640Q0.272 0.658 0.274 0.673Q0.286 0.679 0.297 0.681Q0.309 0.684 0.320 0.690ZM0.593 0.687V0.626L0.588 0.618Q0.575 0.613 0.564 0.609Q0.553 0.606 0.545 0.604L0.540 0.606V0.670L0.545 0.676Q0.557 0.678 0.567 0.682Q0.578 0.687 0.588 0.690ZM0.392 0.621Q0.389 0.604 0.391 0.586Q0.394 0.568 0.387 0.551Q0.376 0.547 0.365 0.543Q0.354 0.539 0.344 0.536L0.340 0.538V0.602L0.344 0.609Q0.355 0.614 0.366 0.615Q0.377 0.617 0.387 0.623ZM0.660 0.618V0.557L0.655 0.551Q0.644 0.546 0.633 0.543Q0.623 0.540 0.613 0.536L0.607 0.538V0.602Q0.609 0.608 0.615 0.610Q0.635 0.613 0.653 0.623ZM0.324 0.599Q0.322 0.580 0.323 0.562Q0.325 0.545 0.321 0.528Q0.308 0.525 0.296 0.520Q0.284 0.515 0.273 0.515V0.579L0.277 0.586Q0.288 0.591 0.299 0.593Q0.310 0.595 0.320 0.601ZM0.593 0.599Q0.590 0.580 0.593 0.562Q0.595 0.545 0.588 0.528Q0.577 0.525 0.566 0.521Q0.556 0.516 0.545 0.513L0.540 0.516V0.581Q0.550 0.590 0.563 0.592Q0.575 0.595 0.586 0.601ZM0.392 0.532Q0.389 0.513 0.391 0.495Q0.394 0.478 0.387 0.460Q0.376 0.458 0.365 0.454Q0.354 0.450 0.344 0.448L0.340 0.449Q0.341 0.467 0.340 0.484Q0.339 0.501 0.342 0.516Q0.353 0.522 0.364 0.526Q0.376 0.530 0.387 0.535ZM0.660 0.529Q0.657 0.512 0.659 0.496Q0.661 0.480 0.657 0.462Q0.645 0.457 0.633 0.455Q0.622 0.452 0.611 0.446L0.607 0.449V0.513Q0.618 0.522 0.631 0.525Q0.644 0.528 0.655 0.535ZM0.324 0.509Q0.322 0.491 0.324 0.473Q0.326 0.455 0.320 0.438Q0.297 0.434 0.277 0.424L0.273 0.427Q0.274 0.445 0.273 0.462Q0.272 0.479 0.274 0.494Q0.286 0.500 0.297 0.503Q0.309 0.506 0.320 0.512ZM0.593 0.509Q0.590 0.491 0.593 0.473Q0.595 0.455 0.588 0.438Q0.577 0.436 0.566 0.432Q0.556 0.428 0.545 0.426L0.540 0.427Q0.542 0.445 0.541 0.462Q0.540 0.479 0.542 0.494Q0.554 0.499 0.566 0.503Q0.577 0.507 0.588 0.512ZM0.392 0.441V0.380L0.387 0.372Q0.376 0.369 0.365 0.365Q0.354 0.361 0.344 0.358L0.340 0.360V0.424Q0.343 0.430 0.348 0.432Q0.358 0.433 0.368 0.437Q0.377 0.441 0.387 0.445ZM0.660 0.443Q0.657 0.425 0.660 0.407Q0.662 0.389 0.655 0.372Q0.644 0.368 0.633 0.365Q0.623 0.362 0.613 0.358L0.607 0.360V0.424Q0.612 0.431 0.615 0.432Q0.625 0.433 0.634 0.436Q0.643 0.440 0.653 0.445ZM0.324 0.421Q0.322 0.402 0.323 0.385Q0.325 0.367 0.321 0.350Q0.310 0.348 0.299 0.343Q0.288 0.339 0.279 0.335L0.273 0.337V0.401L0.277 0.408Q0.288 0.412 0.299 0.415Q0.310 0.418 0.320 0.423ZM0.593 0.421Q0.590 0.402 0.593 0.385Q0.595 0.367 0.588 0.350Q0.577 0.347 0.566 0.342Q0.556 0.338 0.545 0.335L0.540 0.337V0.401L0.545 0.408Q0.557 0.412 0.567 0.415Q0.578 0.418 0.588 0.423ZM0.392 0.353Q0.389 0.335 0.391 0.318Q0.394 0.300 0.387 0.283Q0.376 0.278 0.365 0.276Q0.354 0.273 0.344 0.269L0.340 0.271Q0.341 0.290 0.340 0.306Q0.339 0.323 0.342 0.338Q0.353 0.343 0.364 0.348Q0.376 0.352 0.387 0.357ZM0.660 0.352Q0.657 0.333 0.659 0.317Q0.661 0.301 0.657 0.284Q0.645 0.278 0.633 0.276Q0.622 0.274 0.611 0.267L0.607 0.271V0.335Q0.618 0.343 0.631 0.347Q0.644 0.351 0.655 0.357ZM0.324 0.330V0.266L0.320 0.259Q0.308 0.258 0.295 0.253Q0.282 0.247 0.273 0.247V0.311L0.277 0.318Q0.288 0.322 0.299 0.325Q0.310 0.327 0.320 0.333ZM0.593 0.330Q0.590 0.313 0.593 0.295Q0.595 0.277 0.588 0.259Q0.577 0.258 0.566 0.254Q0.556 0.250 0.545 0.247L0.540 0.249Q0.542 0.266 0.541 0.284Q0.540 0.301 0.542 0.316Q0.554 0.321 0.566 0.325Q0.577 0.329 0.588 0.333ZM0.666 0.271Q0.674 0.265 0.685 0.263Q0.696 0.261 0.705 0.255Q0.694 0.251 0.684 0.248Q0.674 0.246 0.664 0.242Q0.655 0.247 0.644 0.250Q0.634 0.253 0.628 0.257Q0.636 0.259 0.645 0.263Q0.655 0.266 0.666 0.271ZM0.392 0.263V0.202L0.387 0.194Q0.376 0.191 0.365 0.186Q0.354 0.182 0.344 0.179L0.340 0.181V0.245Q0.344 0.252 0.348 0.253Q0.358 0.255 0.368 0.259Q0.377 0.263 0.387 0.266ZM0.324 0.240V0.179L0.320 0.172Q0.309 0.169 0.298 0.164Q0.287 0.160 0.277 0.157L0.273 0.159V0.223Q0.277 0.230 0.281 0.231Q0.291 0.233 0.300 0.236Q0.310 0.240 0.320 0.244ZM0.593 0.240V0.179L0.588 0.172Q0.577 0.169 0.566 0.164Q0.556 0.160 0.545 0.157L0.540 0.159V0.223Q0.544 0.229 0.549 0.231Q0.560 0.233 0.569 0.236Q0.578 0.240 0.588 0.244ZM0.526 0.220Q0.524 0.202 0.527 0.184Q0.529 0.166 0.522 0.149Q0.515 0.147 0.505 0.143Q0.495 0.139 0.480 0.134L0.473 0.136V0.200L0.478 0.207Q0.488 0.210 0.500 0.213Q0.511 0.216 0.520 0.222ZM0.459 0.197Q0.456 0.179 0.458 0.161Q0.461 0.143 0.454 0.127Q0.441 0.122 0.429 0.118Q0.418 0.114 0.406 0.114V0.178Q0.409 0.184 0.414 0.186Q0.432 0.188 0.453 0.198ZM0.392 0.175Q0.389 0.157 0.391 0.139Q0.394 0.121 0.387 0.104Q0.376 0.100 0.365 0.098Q0.354 0.096 0.344 0.089L0.340 0.092V0.157Q0.349 0.165 0.361 0.168Q0.374 0.172 0.386 0.176ZM0.600 0.159Q0.607 0.151 0.620 0.151Q0.633 0.150 0.639 0.142Q0.619 0.136 0.599 0.135Q0.579 0.133 0.561 0.144Q0.571 0.150 0.581 0.151Q0.591 0.152 0.600 0.159ZM0.324 0.152V0.137L0.321 0.134Q0.313 0.139 0.306 0.140Q0.298 0.141 0.292 0.144Q0.302 0.147 0.310 0.150Q0.317 0.152 0.321 0.154ZM0.533 0.136Q0.542 0.130 0.553 0.129Q0.564 0.128 0.572 0.120Q0.558 0.119 0.545 0.113Q0.532 0.108 0.520 0.112Q0.512 0.117 0.498 0.120L0.495 0.123Q0.505 0.125 0.514 0.130Q0.523 0.134 0.533 0.136ZM0.466 0.114Q0.474 0.109 0.485 0.107Q0.497 0.105 0.504 0.098Q0.493 0.098 0.483 0.093Q0.473 0.088 0.466 0.086Q0.458 0.088 0.452 0.091Q0.446 0.095 0.440 0.095Q0.436 0.097 0.433 0.097Q0.429 0.098 0.427 0.099Q0.438 0.103 0.447 0.107Q0.456 0.111 0.466 0.114ZM0.398 0.090Q0.408 0.089 0.419 0.084Q0.429 0.079 0.440 0.076Q0.428 0.074 0.418 0.071Q0.408 0.067 0.398 0.064Q0.388 0.068 0.378 0.071Q0.368 0.074 0.359 0.076Q0.370 0.080 0.379 0.084Q0.388 0.088 0.398 0.090Z" fill="black"/>
</svg>
