<svg xmlns="http://www.w3.org/2000/svg" viewBox="0 0 1 1" preserveAspectRatio="xMidYMid meet">
  <path d="M0.324 1.000Q0.309 0.993 0.294 0.989Q0.279 0.985 0.263 0.978Q0.260 0.776 0.261 0.575Q0.262 0.374 0.261 0.171Q0.363 0.150 0.464 0.100Q0.565 0.047 0.667 0.080L0.672 0.088V0.120L0.676 0.127Q0.690 0.134 0.705 0.138Q0.721 0.142 0.737 0.149Q0.739 0.201 0.738 0.253Q0.737 0.305 0.739 0.358V0.420L0.735 0.425Q0.714 0.435 0.681 0.442L0.678 0.444L0.672 0.453V0.534Q0.670 0.535 0.667 0.536Q0.664 0.537 0.661 0.540Q0.615 0.553 0.570 0.569Q0.525 0.585 0.502 0.591Q0.479 0.598 0.477 0.600Q0.476 0.603 0.472 0.608V0.952Q0.470 0.954 0.469 0.956Q0.468 0.957 0.463 0.960Q0.429 0.967 0.396 0.982Q0.363 0.996 0.328 1.000H0.324ZM0.325 0.981Q0.323 0.962 0.325 0.945Q0.326 0.928 0.322 0.911Q0.311 0.909 0.299 0.904Q0.288 0.899 0.281 0.896L0.275 0.897V0.961L0.280 0.967Q0.290 0.974 0.300 0.976Q0.311 0.978 0.321 0.982ZM0.325 0.893V0.829L0.321 0.821Q0.310 0.817 0.299 0.815Q0.289 0.813 0.280 0.807L0.275 0.810Q0.276 0.828 0.275 0.845Q0.274 0.862 0.277 0.877Q0.288 0.882 0.299 0.886Q0.310 0.890 0.321 0.894ZM0.325 0.802V0.742L0.321 0.734Q0.310 0.731 0.299 0.727Q0.289 0.723 0.280 0.720L0.275 0.722V0.785Q0.280 0.792 0.283 0.793Q0.296 0.795 0.321 0.806ZM0.325 0.714V0.651L0.319 0.643Q0.307 0.641 0.295 0.637Q0.284 0.632 0.275 0.632V0.696L0.280 0.702Q0.290 0.706 0.300 0.709Q0.311 0.712 0.321 0.717ZM0.325 0.625V0.565L0.321 0.557Q0.310 0.554 0.299 0.549Q0.289 0.545 0.280 0.543L0.275 0.544V0.608Q0.279 0.615 0.283 0.616Q0.293 0.617 0.302 0.621Q0.311 0.625 0.321 0.629ZM0.325 0.540V0.476L0.321 0.467Q0.310 0.463 0.299 0.461Q0.289 0.459 0.280 0.453L0.275 0.456V0.520Q0.285 0.529 0.298 0.532Q0.311 0.535 0.322 0.541ZM0.477 0.496Q0.484 0.493 0.491 0.490Q0.498 0.488 0.504 0.485Q0.489 0.478 0.480 0.478L0.474 0.479Q0.475 0.484 0.474 0.488Q0.473 0.493 0.476 0.496ZM0.532 0.478Q0.542 0.475 0.552 0.470Q0.563 0.465 0.572 0.463Q0.561 0.460 0.550 0.456Q0.540 0.452 0.532 0.450Q0.521 0.455 0.511 0.458Q0.501 0.460 0.493 0.463Q0.503 0.466 0.512 0.470Q0.521 0.474 0.532 0.478ZM0.325 0.449V0.387L0.321 0.380Q0.308 0.376 0.298 0.372Q0.288 0.368 0.280 0.364L0.275 0.367Q0.276 0.385 0.275 0.402Q0.274 0.419 0.277 0.434Q0.288 0.440 0.299 0.443Q0.310 0.446 0.321 0.451ZM0.479 0.451Q0.491 0.444 0.503 0.443Q0.515 0.441 0.525 0.431Q0.524 0.381 0.525 0.332Q0.526 0.283 0.524 0.234H0.518Q0.506 0.241 0.494 0.242Q0.482 0.244 0.474 0.251Q0.475 0.303 0.474 0.352Q0.473 0.401 0.476 0.451ZM0.592 0.450Q0.590 0.432 0.592 0.415Q0.594 0.397 0.589 0.380Q0.575 0.378 0.564 0.371Q0.553 0.365 0.541 0.365V0.432Q0.550 0.440 0.562 0.443Q0.574 0.445 0.585 0.451ZM0.325 0.361V0.297L0.319 0.289Q0.307 0.288 0.296 0.283Q0.285 0.278 0.275 0.278V0.341L0.280 0.348Q0.290 0.353 0.300 0.356Q0.311 0.359 0.321 0.363ZM0.592 0.359Q0.590 0.341 0.592 0.325Q0.594 0.309 0.589 0.293Q0.575 0.288 0.564 0.284Q0.553 0.279 0.541 0.278V0.345Q0.550 0.351 0.562 0.354Q0.574 0.357 0.585 0.363ZM0.325 0.271V0.211L0.321 0.203Q0.308 0.199 0.298 0.195Q0.288 0.191 0.280 0.187L0.275 0.190Q0.276 0.208 0.275 0.225Q0.274 0.242 0.277 0.257Q0.288 0.262 0.299 0.266Q0.310 0.270 0.321 0.275ZM0.592 0.271V0.214L0.589 0.209Q0.576 0.217 0.563 0.219Q0.550 0.221 0.541 0.229V0.254L0.546 0.260Q0.556 0.262 0.567 0.267Q0.577 0.271 0.587 0.275ZM0.333 0.190Q0.342 0.183 0.353 0.181Q0.364 0.180 0.373 0.176Q0.369 0.175 0.363 0.171Q0.324 0.154 0.295 0.178Q0.311 0.180 0.333 0.190ZM0.401 0.168Q0.408 0.161 0.420 0.160Q0.432 0.160 0.439 0.152Q0.428 0.151 0.417 0.146Q0.407 0.141 0.397 0.141Q0.387 0.145 0.378 0.148Q0.369 0.150 0.361 0.153Q0.371 0.158 0.381 0.161Q0.390 0.164 0.401 0.168ZM0.676 0.164Q0.684 0.160 0.691 0.159Q0.697 0.158 0.703 0.153Q0.697 0.150 0.691 0.148Q0.684 0.146 0.680 0.144L0.673 0.145Q0.674 0.150 0.673 0.155Q0.672 0.160 0.675 0.164ZM0.466 0.145Q0.476 0.139 0.485 0.138Q0.494 0.137 0.504 0.132Q0.463 0.110 0.428 0.132Q0.444 0.135 0.466 0.145ZM0.533 0.123Q0.542 0.117 0.552 0.116Q0.563 0.115 0.571 0.108Q0.557 0.107 0.544 0.101Q0.532 0.095 0.519 0.100Q0.515 0.102 0.510 0.104Q0.505 0.106 0.498 0.108L0.494 0.111Q0.505 0.112 0.514 0.116Q0.522 0.121 0.533 0.123ZM0.599 0.101Q0.609 0.098 0.619 0.095Q0.628 0.091 0.638 0.086Q0.627 0.082 0.617 0.080Q0.607 0.077 0.599 0.074Q0.591 0.075 0.584 0.079Q0.578 0.082 0.572 0.082Q0.569 0.084 0.566 0.085Q0.562 0.085 0.560 0.086Q0.570 0.090 0.579 0.094Q0.589 0.098 0.599 0.101Z" fill="black"/>
</svg>
