<svg xmlns="http://www.w3.org/2000/svg" viewBox="0 0 1 1" preserveAspectRatio="xMidYMid meet">
  <path d="M0.392 0.909Q0.359 0.894 0.326 0.885Q0.293 0.876 0.260 0.862V0.052Q0.278 0.039 0.298 0.034Q0.319 0.029 0.339 0.032Q0.359 0.034 0.380 0.040Q0.401 0.047 0.421 0.054Q0.483 0.076 0.544 0.096Q0.605 0.115 0.669 0.137L0.674 0.144V0.221Q0.675 0.229 0.683 0.233Q0.697 0.234 0.710 0.239Q0.723 0.245 0.738 0.250Q0.740 0.273 0.739 0.296Q0.738 0.319 0.740 0.343V0.524L0.737 0.529Q0.723 0.533 0.710 0.539Q0.697 0.545 0.682 0.547Q0.679 0.548 0.674 0.555V0.590L0.670 0.596Q0.622 0.628 0.573 0.610Q0.523 0.591 0.474 0.579Q0.472 0.653 0.473 0.729Q0.474 0.805 0.473 0.881L0.467 0.887Q0.449 0.893 0.430 0.900Q0.412 0.908 0.393 0.909H0.392ZM0.393 0.887Q0.390 0.870 0.392 0.852Q0.395 0.833 0.388 0.817Q0.374 0.814 0.362 0.809Q0.349 0.804 0.340 0.804V0.868L0.344 0.874Q0.355 0.880 0.366 0.883Q0.377 0.885 0.387 0.891ZM0.325 0.865V0.804L0.321 0.796Q0.297 0.786 0.279 0.782L0.274 0.784V0.848L0.279 0.854Q0.289 0.855 0.300 0.860Q0.310 0.865 0.321 0.868ZM0.393 0.796V0.735L0.388 0.729Q0.377 0.725 0.366 0.722Q0.355 0.718 0.346 0.714L0.340 0.715V0.779Q0.345 0.788 0.348 0.789Q0.364 0.791 0.387 0.801ZM0.325 0.775Q0.323 0.757 0.325 0.741Q0.327 0.725 0.323 0.707Q0.308 0.704 0.297 0.698Q0.286 0.692 0.274 0.693V0.761Q0.283 0.768 0.295 0.770Q0.307 0.771 0.319 0.778ZM0.393 0.707Q0.390 0.690 0.392 0.674Q0.394 0.658 0.390 0.640Q0.378 0.636 0.366 0.633Q0.355 0.630 0.344 0.624L0.340 0.627V0.691Q0.350 0.700 0.363 0.703Q0.377 0.706 0.388 0.712ZM0.325 0.687Q0.323 0.669 0.325 0.651Q0.328 0.633 0.321 0.616Q0.309 0.614 0.299 0.610Q0.288 0.606 0.279 0.604L0.274 0.605Q0.275 0.623 0.274 0.640Q0.273 0.658 0.276 0.672Q0.287 0.677 0.298 0.681Q0.309 0.685 0.321 0.690ZM0.393 0.621Q0.390 0.603 0.392 0.585Q0.395 0.567 0.388 0.551Q0.377 0.546 0.366 0.543Q0.355 0.540 0.346 0.536L0.340 0.538V0.602Q0.345 0.609 0.348 0.610Q0.363 0.611 0.387 0.622ZM0.325 0.598Q0.323 0.579 0.325 0.563Q0.327 0.547 0.323 0.529Q0.308 0.526 0.297 0.520Q0.286 0.513 0.274 0.513Q0.276 0.532 0.274 0.551Q0.272 0.570 0.277 0.584Q0.288 0.590 0.299 0.591Q0.309 0.592 0.319 0.600ZM0.594 0.596V0.535L0.589 0.527Q0.578 0.523 0.567 0.520Q0.556 0.517 0.547 0.513L0.540 0.514V0.579Q0.545 0.586 0.549 0.587Q0.568 0.589 0.587 0.600ZM0.526 0.574Q0.523 0.556 0.525 0.540Q0.528 0.524 0.523 0.507Q0.510 0.502 0.498 0.497Q0.486 0.492 0.474 0.492V0.560Q0.484 0.567 0.496 0.569Q0.509 0.570 0.520 0.577ZM0.459 0.554Q0.456 0.536 0.458 0.518Q0.460 0.500 0.456 0.483Q0.445 0.481 0.433 0.476Q0.421 0.471 0.413 0.468L0.407 0.471V0.535L0.412 0.541Q0.422 0.546 0.433 0.548Q0.445 0.551 0.454 0.555ZM0.393 0.529Q0.390 0.512 0.392 0.495Q0.394 0.479 0.390 0.462Q0.378 0.456 0.366 0.454Q0.355 0.451 0.344 0.446L0.340 0.449V0.513Q0.350 0.522 0.363 0.525Q0.377 0.528 0.388 0.535ZM0.660 0.533V0.468L0.655 0.460Q0.644 0.455 0.633 0.453Q0.621 0.451 0.613 0.446L0.608 0.449V0.513Q0.618 0.522 0.632 0.525Q0.645 0.528 0.656 0.535ZM0.325 0.508Q0.323 0.491 0.325 0.473Q0.328 0.454 0.321 0.438Q0.309 0.435 0.299 0.431Q0.288 0.428 0.279 0.425L0.274 0.427Q0.275 0.445 0.274 0.462Q0.273 0.479 0.276 0.494Q0.287 0.499 0.298 0.503Q0.309 0.507 0.321 0.512ZM0.594 0.507Q0.591 0.489 0.593 0.473Q0.595 0.456 0.591 0.439Q0.578 0.435 0.567 0.432Q0.556 0.429 0.545 0.424L0.540 0.427V0.491Q0.551 0.499 0.565 0.503Q0.578 0.506 0.589 0.512ZM0.526 0.488Q0.525 0.483 0.526 0.478Q0.527 0.474 0.525 0.471L0.522 0.468Q0.510 0.477 0.493 0.478Q0.502 0.482 0.508 0.484Q0.515 0.486 0.522 0.489ZM0.465 0.471Q0.475 0.467 0.486 0.463Q0.496 0.458 0.507 0.455Q0.495 0.453 0.485 0.449Q0.474 0.445 0.465 0.443Q0.455 0.448 0.445 0.451Q0.434 0.453 0.426 0.455Q0.438 0.459 0.446 0.463Q0.455 0.466 0.465 0.471ZM0.393 0.443Q0.390 0.425 0.392 0.407Q0.395 0.389 0.388 0.372Q0.377 0.367 0.366 0.364Q0.355 0.362 0.346 0.358L0.340 0.359Q0.341 0.377 0.340 0.394Q0.339 0.411 0.342 0.427Q0.353 0.432 0.364 0.434Q0.376 0.437 0.387 0.444ZM0.526 0.443Q0.523 0.390 0.526 0.339Q0.530 0.289 0.522 0.237Q0.511 0.235 0.500 0.231Q0.489 0.227 0.479 0.225L0.474 0.226V0.425Q0.484 0.432 0.496 0.434Q0.509 0.437 0.520 0.444ZM0.660 0.441V0.380L0.655 0.372Q0.644 0.368 0.633 0.364Q0.621 0.360 0.613 0.358L0.608 0.359V0.424Q0.609 0.428 0.616 0.431Q0.627 0.433 0.636 0.437Q0.645 0.441 0.655 0.444ZM0.325 0.420Q0.323 0.402 0.325 0.384Q0.327 0.366 0.323 0.350Q0.308 0.347 0.297 0.341Q0.286 0.335 0.274 0.335V0.402Q0.283 0.410 0.295 0.412Q0.307 0.415 0.319 0.422ZM0.594 0.420Q0.591 0.402 0.593 0.384Q0.596 0.366 0.589 0.350Q0.578 0.345 0.567 0.342Q0.556 0.339 0.547 0.335L0.540 0.336V0.400Q0.544 0.407 0.549 0.409Q0.557 0.410 0.567 0.413Q0.576 0.417 0.587 0.422ZM0.393 0.351Q0.390 0.333 0.392 0.317Q0.394 0.301 0.390 0.284Q0.378 0.277 0.366 0.275Q0.355 0.272 0.344 0.267L0.340 0.270V0.335Q0.350 0.343 0.363 0.347Q0.377 0.350 0.388 0.356ZM0.660 0.353V0.289L0.653 0.280Q0.641 0.279 0.630 0.274Q0.618 0.269 0.608 0.269V0.333L0.613 0.340Q0.623 0.345 0.634 0.348Q0.645 0.351 0.655 0.355ZM0.325 0.330Q0.323 0.312 0.325 0.294Q0.328 0.276 0.321 0.259Q0.309 0.255 0.299 0.253Q0.288 0.251 0.279 0.247L0.274 0.248Q0.275 0.266 0.274 0.284Q0.273 0.301 0.276 0.316Q0.287 0.321 0.298 0.325Q0.309 0.328 0.321 0.333ZM0.594 0.328Q0.591 0.311 0.593 0.295Q0.595 0.278 0.591 0.261Q0.578 0.255 0.567 0.253Q0.556 0.251 0.545 0.245L0.540 0.248V0.312Q0.551 0.321 0.565 0.324Q0.578 0.327 0.589 0.333ZM0.666 0.269Q0.676 0.267 0.687 0.263Q0.698 0.258 0.708 0.255Q0.697 0.253 0.686 0.248Q0.675 0.244 0.666 0.242Q0.656 0.247 0.646 0.250Q0.636 0.253 0.628 0.255Q0.634 0.257 0.643 0.261Q0.653 0.264 0.666 0.269ZM0.393 0.261Q0.390 0.243 0.392 0.227Q0.394 0.210 0.390 0.194Q0.366 0.187 0.344 0.177L0.340 0.180Q0.341 0.198 0.340 0.215Q0.339 0.233 0.342 0.248Q0.353 0.254 0.364 0.257Q0.376 0.260 0.387 0.266ZM0.325 0.242Q0.323 0.224 0.325 0.206Q0.327 0.188 0.323 0.171Q0.308 0.169 0.297 0.163Q0.286 0.157 0.274 0.157V0.225Q0.283 0.232 0.295 0.234Q0.307 0.237 0.319 0.243ZM0.594 0.242Q0.591 0.224 0.593 0.206Q0.596 0.188 0.589 0.171Q0.578 0.167 0.567 0.164Q0.556 0.161 0.547 0.157L0.540 0.159Q0.542 0.176 0.541 0.193Q0.539 0.210 0.542 0.226Q0.554 0.232 0.566 0.234Q0.577 0.237 0.587 0.243ZM0.526 0.218Q0.523 0.201 0.525 0.183Q0.528 0.166 0.523 0.148Q0.510 0.146 0.498 0.140Q0.486 0.134 0.474 0.134V0.201Q0.484 0.209 0.496 0.211Q0.509 0.213 0.520 0.221ZM0.459 0.196Q0.456 0.179 0.458 0.161Q0.460 0.143 0.456 0.126Q0.445 0.124 0.434 0.120Q0.423 0.116 0.413 0.112L0.407 0.113V0.177L0.412 0.184Q0.422 0.188 0.433 0.191Q0.445 0.194 0.454 0.198ZM0.393 0.174Q0.390 0.157 0.392 0.139Q0.395 0.121 0.388 0.104Q0.374 0.099 0.363 0.095Q0.352 0.090 0.340 0.090V0.154Q0.344 0.162 0.348 0.163Q0.365 0.166 0.387 0.176ZM0.600 0.159Q0.610 0.151 0.620 0.150Q0.631 0.149 0.641 0.144Q0.631 0.139 0.621 0.137Q0.611 0.135 0.603 0.131Q0.593 0.132 0.582 0.136Q0.571 0.140 0.561 0.144Q0.573 0.149 0.581 0.151Q0.590 0.153 0.600 0.159ZM0.325 0.150Q0.323 0.132 0.325 0.116Q0.327 0.100 0.323 0.083Q0.308 0.078 0.297 0.074Q0.286 0.069 0.274 0.068V0.136Q0.283 0.142 0.295 0.145Q0.307 0.147 0.319 0.153ZM0.534 0.136Q0.541 0.129 0.554 0.128Q0.567 0.127 0.573 0.120Q0.552 0.114 0.533 0.112Q0.514 0.111 0.493 0.121Q0.505 0.127 0.515 0.129Q0.525 0.130 0.534 0.136ZM0.467 0.113Q0.476 0.108 0.487 0.106Q0.497 0.105 0.506 0.098Q0.486 0.090 0.465 0.089Q0.444 0.088 0.428 0.101Q0.439 0.102 0.448 0.106Q0.457 0.111 0.467 0.113ZM0.400 0.090Q0.408 0.086 0.419 0.084Q0.430 0.082 0.438 0.074Q0.427 0.074 0.418 0.070Q0.408 0.065 0.400 0.064Q0.392 0.065 0.386 0.068Q0.380 0.071 0.373 0.071Q0.369 0.074 0.366 0.075Q0.363 0.075 0.361 0.076Q0.371 0.080 0.381 0.085Q0.390 0.089 0.400 0.090ZM0.332 0.068Q0.341 0.065 0.353 0.061Q0.364 0.058 0.370 0.052Q0.360 0.051 0.350 0.047Q0.340 0.043 0.332 0.041Q0.325 0.043 0.318 0.046Q0.311 0.049 0.306 0.049Q0.302 0.052 0.299 0.052Q0.295 0.053 0.293 0.054Q0.303 0.058 0.312 0.061Q0.322 0.065 0.332 0.068Z" fill="black"/>
</svg>
