<svg xmlns="http://www.w3.org/2000/svg" viewBox="0 0 1 1" preserveAspectRatio="xMidYMid meet">
  <path d="M0.392 0.979Q0.377 0.972 0.361 0.966Q0.345 0.961 0.328 0.954Q0.327 0.944 0.328 0.933Q0.329 0.922 0.324 0.911Q0.309 0.902 0.294 0.900Q0.279 0.897 0.263 0.888Q0.260 0.732 0.261 0.576Q0.262 0.420 0.261 0.261Q0.275 0.253 0.291 0.249Q0.308 0.245 0.324 0.238L0.328 0.231V0.151L0.332 0.146Q0.374 0.139 0.415 0.124Q0.457 0.110 0.499 0.087Q0.585 0.044 0.670 0.081Q0.672 0.089 0.671 0.100Q0.670 0.111 0.672 0.119L0.676 0.126Q0.690 0.132 0.706 0.137Q0.722 0.142 0.737 0.148Q0.739 0.195 0.738 0.242Q0.737 0.290 0.738 0.338Q0.737 0.430 0.739 0.516Q0.740 0.602 0.735 0.690Q0.724 0.696 0.708 0.700Q0.691 0.703 0.676 0.710L0.672 0.717V0.740L0.676 0.746Q0.690 0.753 0.706 0.757Q0.722 0.760 0.737 0.768Q0.739 0.791 0.738 0.815Q0.737 0.838 0.738 0.862L0.735 0.867Q0.650 0.895 0.565 0.925Q0.481 0.955 0.395 0.979H0.392ZM0.392 0.957V0.898Q0.380 0.898 0.369 0.902Q0.357 0.907 0.346 0.911L0.342 0.917V0.938L0.346 0.945Q0.357 0.950 0.368 0.953Q0.378 0.955 0.387 0.960ZM0.327 0.891Q0.324 0.873 0.326 0.857Q0.328 0.840 0.324 0.824Q0.312 0.819 0.301 0.815Q0.290 0.811 0.280 0.807L0.275 0.809Q0.276 0.827 0.275 0.844Q0.274 0.861 0.277 0.876Q0.288 0.883 0.299 0.885Q0.310 0.887 0.320 0.894ZM0.477 0.850Q0.491 0.841 0.505 0.841Q0.500 0.836 0.493 0.834Q0.485 0.832 0.480 0.830L0.474 0.831Q0.475 0.836 0.474 0.841Q0.473 0.847 0.475 0.850ZM0.527 0.825Q0.524 0.808 0.526 0.790Q0.529 0.772 0.522 0.755Q0.511 0.751 0.501 0.748Q0.490 0.746 0.480 0.741L0.474 0.743V0.807Q0.476 0.809 0.478 0.811Q0.480 0.813 0.482 0.814Q0.490 0.815 0.499 0.819Q0.508 0.822 0.520 0.827ZM0.327 0.803Q0.324 0.786 0.327 0.768Q0.329 0.750 0.322 0.733Q0.289 0.721 0.275 0.721V0.784Q0.280 0.791 0.282 0.792Q0.293 0.794 0.302 0.798Q0.311 0.803 0.320 0.805ZM0.676 0.784Q0.698 0.774 0.705 0.774Q0.700 0.769 0.692 0.768Q0.684 0.766 0.680 0.763L0.673 0.765Q0.674 0.769 0.672 0.775Q0.671 0.782 0.676 0.784ZM0.533 0.743Q0.543 0.738 0.553 0.735Q0.563 0.732 0.572 0.728Q0.530 0.710 0.494 0.728Q0.505 0.732 0.514 0.736Q0.523 0.741 0.533 0.743ZM0.327 0.715Q0.324 0.698 0.326 0.680Q0.328 0.662 0.324 0.645Q0.312 0.640 0.301 0.638Q0.290 0.635 0.280 0.629L0.275 0.633Q0.276 0.650 0.275 0.667Q0.274 0.684 0.277 0.700Q0.288 0.705 0.299 0.708Q0.310 0.711 0.320 0.717ZM0.479 0.717Q0.492 0.711 0.503 0.707Q0.514 0.703 0.527 0.698V0.236L0.523 0.231Q0.511 0.237 0.500 0.240Q0.489 0.243 0.479 0.247L0.474 0.252Q0.475 0.369 0.474 0.485Q0.473 0.601 0.475 0.717ZM0.592 0.714Q0.591 0.696 0.592 0.679Q0.593 0.663 0.591 0.647Q0.578 0.641 0.567 0.638Q0.556 0.635 0.546 0.629L0.541 0.633Q0.542 0.650 0.541 0.667Q0.540 0.684 0.543 0.700Q0.554 0.704 0.565 0.708Q0.576 0.712 0.587 0.717ZM0.327 0.626Q0.324 0.609 0.327 0.591Q0.329 0.573 0.322 0.556Q0.311 0.552 0.301 0.549Q0.290 0.547 0.282 0.542L0.275 0.544V0.607Q0.279 0.613 0.282 0.615Q0.292 0.617 0.302 0.621Q0.312 0.625 0.320 0.628ZM0.592 0.626Q0.590 0.609 0.592 0.591Q0.594 0.573 0.589 0.556Q0.575 0.554 0.564 0.549Q0.553 0.544 0.541 0.544V0.607L0.546 0.614Q0.556 0.619 0.567 0.620Q0.577 0.622 0.587 0.628ZM0.327 0.537Q0.324 0.519 0.327 0.502Q0.329 0.484 0.322 0.467Q0.309 0.464 0.296 0.459Q0.284 0.454 0.275 0.454V0.517L0.280 0.524Q0.290 0.529 0.301 0.532Q0.311 0.535 0.320 0.540ZM0.592 0.537Q0.590 0.519 0.592 0.502Q0.594 0.484 0.587 0.467Q0.561 0.461 0.546 0.452L0.541 0.455Q0.542 0.474 0.541 0.490Q0.540 0.507 0.543 0.522Q0.554 0.527 0.565 0.532Q0.576 0.536 0.587 0.540ZM0.327 0.449Q0.324 0.432 0.327 0.414Q0.329 0.396 0.322 0.379Q0.311 0.375 0.301 0.372Q0.290 0.370 0.282 0.365L0.275 0.366V0.430Q0.279 0.436 0.282 0.438Q0.297 0.439 0.320 0.450ZM0.592 0.449Q0.590 0.432 0.592 0.414Q0.594 0.396 0.589 0.379Q0.578 0.377 0.568 0.373Q0.557 0.369 0.547 0.365L0.541 0.366V0.430L0.546 0.437Q0.556 0.440 0.567 0.443Q0.577 0.446 0.587 0.450ZM0.327 0.360Q0.324 0.342 0.327 0.325Q0.329 0.307 0.322 0.290Q0.309 0.288 0.296 0.283Q0.284 0.277 0.275 0.277V0.341L0.280 0.348Q0.290 0.352 0.301 0.355Q0.311 0.358 0.320 0.364ZM0.592 0.362Q0.590 0.343 0.592 0.326Q0.594 0.308 0.589 0.292Q0.553 0.278 0.541 0.277V0.341L0.546 0.348Q0.556 0.352 0.567 0.355Q0.577 0.358 0.587 0.364ZM0.334 0.279Q0.342 0.271 0.354 0.269Q0.366 0.267 0.373 0.262Q0.363 0.260 0.352 0.257Q0.342 0.253 0.332 0.250Q0.322 0.255 0.312 0.258Q0.301 0.260 0.296 0.264Q0.303 0.266 0.313 0.270Q0.322 0.274 0.334 0.279ZM0.592 0.271V0.213L0.589 0.208Q0.575 0.215 0.564 0.218Q0.553 0.222 0.541 0.228V0.253Q0.544 0.259 0.549 0.261Q0.559 0.262 0.568 0.266Q0.577 0.270 0.587 0.274ZM0.392 0.250Q0.389 0.233 0.391 0.215Q0.393 0.197 0.389 0.180Q0.378 0.178 0.368 0.174Q0.357 0.170 0.348 0.166L0.342 0.168V0.231L0.346 0.238Q0.357 0.241 0.368 0.244Q0.378 0.247 0.387 0.252ZM0.401 0.168Q0.410 0.162 0.420 0.160Q0.431 0.159 0.439 0.151Q0.390 0.133 0.363 0.154Q0.373 0.155 0.382 0.161Q0.390 0.166 0.401 0.168ZM0.676 0.165Q0.697 0.154 0.705 0.154Q0.700 0.150 0.693 0.149Q0.685 0.147 0.680 0.143L0.673 0.146V0.161L0.676 0.165ZM0.466 0.145Q0.480 0.140 0.490 0.137Q0.500 0.133 0.505 0.131Q0.494 0.126 0.484 0.124Q0.475 0.122 0.466 0.118Q0.459 0.119 0.452 0.122Q0.446 0.126 0.440 0.126Q0.436 0.129 0.433 0.130Q0.430 0.130 0.428 0.131Q0.438 0.134 0.447 0.138Q0.457 0.142 0.466 0.145ZM0.535 0.123Q0.544 0.119 0.554 0.114Q0.564 0.110 0.572 0.110L0.571 0.107Q0.561 0.106 0.551 0.101Q0.541 0.097 0.533 0.096Q0.522 0.102 0.511 0.104Q0.500 0.106 0.493 0.110Q0.503 0.111 0.512 0.115Q0.522 0.120 0.532 0.123ZM0.599 0.101Q0.609 0.099 0.620 0.094Q0.630 0.089 0.639 0.088Q0.632 0.082 0.623 0.082Q0.613 0.081 0.606 0.074Q0.585 0.077 0.560 0.088Q0.573 0.090 0.599 0.101Z" fill="black"/>
</svg>
