<svg xmlns="http://www.w3.org/2000/svg" viewBox="0 0 1 1" preserveAspectRatio="xMidYMid meet">
  <path d="M0.326 1.000Q0.309 0.991 0.294 0.988Q0.278 0.986 0.262 0.977V0.173Q0.361 0.149 0.463 0.099Q0.567 0.047 0.668 0.080L0.673 0.087Q0.673 0.097 0.672 0.107Q0.671 0.118 0.677 0.128Q0.691 0.132 0.705 0.136Q0.720 0.140 0.735 0.147L0.738 0.152V0.350Q0.736 0.373 0.738 0.390Q0.739 0.407 0.735 0.425L0.727 0.429Q0.715 0.429 0.702 0.435Q0.689 0.441 0.676 0.446Q0.671 0.475 0.673 0.504Q0.675 0.534 0.673 0.563L0.677 0.570Q0.691 0.575 0.705 0.579Q0.720 0.583 0.735 0.590L0.738 0.596V0.863L0.735 0.868Q0.683 0.882 0.633 0.901Q0.582 0.920 0.531 0.890L0.528 0.885V0.675L0.524 0.669Q0.516 0.662 0.504 0.660Q0.492 0.659 0.480 0.651L0.475 0.652Q0.473 0.727 0.474 0.801Q0.474 0.876 0.473 0.952Q0.438 0.967 0.402 0.980Q0.366 0.992 0.329 1.000H0.326ZM0.327 0.978Q0.325 0.959 0.326 0.944Q0.328 0.928 0.324 0.912Q0.310 0.909 0.299 0.902Q0.288 0.896 0.276 0.896Q0.278 0.915 0.276 0.932Q0.275 0.950 0.279 0.966Q0.289 0.971 0.300 0.974Q0.310 0.977 0.321 0.983ZM0.327 0.890Q0.325 0.873 0.326 0.856Q0.328 0.839 0.324 0.823Q0.312 0.820 0.303 0.816Q0.293 0.811 0.283 0.809H0.276V0.876Q0.285 0.882 0.297 0.885Q0.309 0.887 0.321 0.893ZM0.593 0.892Q0.591 0.874 0.593 0.856Q0.595 0.838 0.588 0.821Q0.575 0.819 0.564 0.814Q0.552 0.809 0.540 0.809V0.873L0.545 0.879Q0.555 0.884 0.566 0.887Q0.577 0.889 0.587 0.893ZM0.327 0.804Q0.325 0.787 0.326 0.769Q0.328 0.751 0.324 0.734Q0.310 0.731 0.299 0.726Q0.288 0.722 0.276 0.720V0.787Q0.285 0.793 0.297 0.796Q0.309 0.799 0.321 0.806ZM0.593 0.803Q0.591 0.785 0.593 0.767Q0.595 0.749 0.588 0.733Q0.575 0.730 0.562 0.725Q0.549 0.720 0.540 0.720V0.784L0.545 0.790Q0.555 0.795 0.566 0.797Q0.577 0.800 0.587 0.806ZM0.327 0.713Q0.325 0.695 0.326 0.679Q0.328 0.663 0.324 0.646Q0.310 0.642 0.299 0.637Q0.288 0.631 0.276 0.632V0.699Q0.285 0.706 0.297 0.708Q0.309 0.709 0.321 0.716ZM0.593 0.713Q0.592 0.698 0.593 0.683Q0.594 0.669 0.592 0.654L0.587 0.652Q0.576 0.659 0.565 0.661Q0.554 0.664 0.545 0.667L0.540 0.674V0.696Q0.544 0.702 0.548 0.703Q0.555 0.704 0.565 0.708Q0.574 0.711 0.587 0.716ZM0.526 0.646Q0.525 0.631 0.526 0.616Q0.527 0.602 0.524 0.587L0.521 0.585Q0.511 0.591 0.500 0.593Q0.489 0.596 0.480 0.600L0.475 0.605Q0.476 0.613 0.475 0.619Q0.474 0.626 0.476 0.633Q0.488 0.638 0.499 0.642Q0.511 0.646 0.521 0.651ZM0.327 0.626Q0.325 0.608 0.327 0.590Q0.329 0.572 0.322 0.555Q0.311 0.554 0.301 0.550Q0.290 0.546 0.281 0.543L0.276 0.545Q0.277 0.562 0.276 0.579Q0.275 0.597 0.278 0.612Q0.289 0.616 0.300 0.620Q0.311 0.624 0.322 0.629ZM0.677 0.607Q0.682 0.605 0.689 0.602Q0.696 0.599 0.705 0.596Q0.699 0.592 0.693 0.592Q0.686 0.591 0.681 0.587L0.674 0.588Q0.675 0.593 0.674 0.598Q0.673 0.603 0.676 0.607ZM0.327 0.535V0.474L0.322 0.467Q0.311 0.463 0.301 0.460Q0.290 0.457 0.281 0.453L0.276 0.455V0.522Q0.285 0.529 0.297 0.531Q0.309 0.533 0.321 0.540ZM0.478 0.495Q0.485 0.492 0.492 0.490Q0.499 0.488 0.506 0.486Q0.499 0.482 0.493 0.480Q0.486 0.479 0.481 0.476L0.475 0.478Q0.476 0.483 0.475 0.487Q0.474 0.492 0.476 0.495ZM0.533 0.478Q0.543 0.472 0.553 0.470Q0.562 0.468 0.573 0.463Q0.534 0.443 0.494 0.463Q0.505 0.468 0.514 0.471Q0.523 0.473 0.533 0.478ZM0.327 0.449Q0.325 0.431 0.327 0.413Q0.329 0.395 0.322 0.378Q0.311 0.377 0.301 0.372Q0.290 0.368 0.281 0.366L0.276 0.367Q0.277 0.385 0.276 0.402Q0.275 0.420 0.278 0.434Q0.289 0.439 0.300 0.444Q0.311 0.448 0.322 0.452ZM0.476 0.452Q0.488 0.446 0.499 0.444Q0.511 0.441 0.521 0.436L0.526 0.429Q0.525 0.379 0.526 0.331Q0.527 0.283 0.524 0.234L0.521 0.232Q0.511 0.237 0.500 0.240Q0.489 0.243 0.480 0.246L0.475 0.251Q0.476 0.303 0.475 0.353Q0.474 0.402 0.476 0.452ZM0.593 0.449Q0.591 0.431 0.593 0.413Q0.595 0.395 0.588 0.378Q0.575 0.377 0.562 0.371Q0.549 0.366 0.540 0.366V0.429L0.545 0.436Q0.555 0.441 0.566 0.444Q0.577 0.446 0.587 0.452ZM0.327 0.360Q0.325 0.341 0.326 0.325Q0.328 0.309 0.324 0.293Q0.310 0.290 0.299 0.283Q0.288 0.276 0.276 0.276V0.343Q0.285 0.352 0.297 0.354Q0.309 0.356 0.321 0.363ZM0.593 0.360Q0.591 0.341 0.593 0.325Q0.595 0.309 0.590 0.293Q0.578 0.288 0.567 0.284Q0.555 0.280 0.545 0.275L0.540 0.278V0.341Q0.545 0.349 0.548 0.350Q0.564 0.351 0.587 0.363ZM0.327 0.272Q0.325 0.254 0.327 0.236Q0.329 0.218 0.322 0.201Q0.311 0.197 0.301 0.195Q0.290 0.193 0.281 0.189L0.276 0.191Q0.277 0.208 0.276 0.225Q0.275 0.242 0.278 0.258Q0.289 0.262 0.300 0.266Q0.311 0.270 0.322 0.275ZM0.593 0.270V0.216L0.588 0.209Q0.577 0.215 0.563 0.218Q0.549 0.221 0.540 0.229V0.254Q0.551 0.263 0.565 0.266Q0.578 0.269 0.588 0.275ZM0.335 0.191Q0.343 0.184 0.354 0.181Q0.364 0.179 0.373 0.176L0.371 0.173Q0.362 0.172 0.352 0.168Q0.342 0.164 0.333 0.162Q0.323 0.168 0.311 0.170Q0.300 0.172 0.293 0.176Q0.304 0.178 0.315 0.182Q0.325 0.187 0.335 0.191ZM0.400 0.168Q0.409 0.161 0.421 0.159Q0.432 0.157 0.441 0.152Q0.390 0.134 0.362 0.153Q0.370 0.155 0.380 0.159Q0.389 0.163 0.400 0.168ZM0.676 0.164Q0.684 0.158 0.692 0.158Q0.699 0.158 0.707 0.153Q0.702 0.149 0.694 0.149Q0.686 0.149 0.681 0.144L0.674 0.145Q0.675 0.151 0.674 0.155Q0.673 0.160 0.676 0.164ZM0.467 0.145Q0.475 0.138 0.486 0.137Q0.497 0.135 0.507 0.132Q0.497 0.127 0.490 0.126Q0.482 0.124 0.473 0.119Q0.444 0.122 0.429 0.133Q0.444 0.134 0.467 0.145ZM0.534 0.124Q0.542 0.117 0.553 0.115Q0.564 0.113 0.573 0.110Q0.524 0.088 0.495 0.111Q0.507 0.112 0.515 0.116Q0.524 0.120 0.534 0.124ZM0.600 0.102Q0.608 0.093 0.618 0.093Q0.629 0.092 0.638 0.087Q0.596 0.064 0.561 0.088Q0.570 0.089 0.579 0.093Q0.589 0.097 0.600 0.102Z" fill="black"/>
</svg>
