<svg xmlns="http://www.w3.org/2000/svg" viewBox="0 0 1 1" preserveAspectRatio="xMidYMid meet">
  <path d="M0.657 1.000Q0.625 0.987 0.593 0.977Q0.561 0.967 0.530 0.955Q0.527 0.891 0.528 0.828Q0.529 0.764 0.528 0.699L0.525 0.692Q0.516 0.685 0.502 0.683Q0.489 0.681 0.477 0.674L0.474 0.675Q0.472 0.727 0.473 0.779Q0.474 0.832 0.473 0.887Q0.474 0.886 0.462 0.894Q0.412 0.922 0.363 0.901Q0.314 0.879 0.265 0.869Q0.262 0.688 0.263 0.509Q0.264 0.330 0.263 0.148V0.066Q0.361 0.026 0.463 0.079Q0.563 0.132 0.666 0.150L0.671 0.158V0.234L0.676 0.240Q0.689 0.246 0.705 0.252Q0.721 0.257 0.736 0.262Q0.738 0.329 0.737 0.398Q0.736 0.466 0.737 0.534Q0.708 0.551 0.682 0.555L0.676 0.557L0.671 0.564V0.675L0.676 0.681Q0.689 0.688 0.705 0.692Q0.721 0.695 0.736 0.703Q0.738 0.770 0.737 0.839Q0.736 0.908 0.737 0.975Q0.721 0.983 0.700 0.990Q0.679 0.998 0.660 1.000H0.657ZM0.659 0.978Q0.656 0.959 0.658 0.944Q0.660 0.928 0.655 0.912Q0.642 0.909 0.631 0.903Q0.619 0.897 0.607 0.897Q0.609 0.916 0.608 0.933Q0.606 0.950 0.610 0.966Q0.621 0.971 0.632 0.974Q0.643 0.977 0.652 0.983ZM0.592 0.957V0.897L0.587 0.889Q0.576 0.886 0.566 0.882Q0.555 0.877 0.545 0.874L0.541 0.876V0.940Q0.545 0.946 0.548 0.948Q0.558 0.949 0.568 0.953Q0.578 0.957 0.587 0.960ZM0.393 0.892Q0.391 0.874 0.393 0.857Q0.395 0.839 0.390 0.822Q0.380 0.820 0.368 0.816Q0.356 0.811 0.349 0.808L0.343 0.810V0.873L0.347 0.879Q0.357 0.884 0.368 0.887Q0.379 0.889 0.389 0.894ZM0.659 0.891Q0.656 0.873 0.658 0.857Q0.660 0.840 0.655 0.824Q0.644 0.821 0.634 0.817Q0.624 0.812 0.615 0.810H0.607V0.876Q0.616 0.882 0.629 0.885Q0.642 0.888 0.652 0.894ZM0.328 0.869Q0.326 0.851 0.328 0.835Q0.330 0.819 0.326 0.802Q0.313 0.796 0.302 0.794Q0.291 0.792 0.281 0.787L0.276 0.789V0.853Q0.286 0.862 0.299 0.865Q0.312 0.868 0.324 0.873ZM0.592 0.872Q0.589 0.854 0.591 0.836Q0.593 0.819 0.588 0.802Q0.575 0.797 0.562 0.792Q0.550 0.788 0.541 0.788V0.852L0.545 0.858Q0.556 0.863 0.567 0.865Q0.578 0.868 0.587 0.873ZM0.393 0.804Q0.392 0.786 0.393 0.769Q0.394 0.752 0.392 0.737Q0.380 0.731 0.368 0.728Q0.357 0.725 0.347 0.721L0.343 0.723V0.787L0.347 0.792Q0.357 0.794 0.368 0.798Q0.379 0.803 0.389 0.807ZM0.659 0.805Q0.656 0.788 0.658 0.770Q0.660 0.752 0.655 0.735Q0.642 0.732 0.631 0.727Q0.619 0.723 0.607 0.721V0.788Q0.616 0.794 0.629 0.797Q0.642 0.800 0.652 0.807ZM0.328 0.782Q0.326 0.763 0.328 0.747Q0.330 0.731 0.326 0.714Q0.313 0.710 0.302 0.706Q0.291 0.702 0.281 0.697L0.276 0.700V0.764L0.281 0.770Q0.303 0.774 0.323 0.785ZM0.592 0.782V0.721L0.587 0.713Q0.576 0.709 0.566 0.705Q0.555 0.701 0.545 0.699L0.541 0.700V0.764L0.545 0.770Q0.556 0.771 0.567 0.776Q0.578 0.782 0.587 0.785ZM0.666 0.723Q0.674 0.715 0.685 0.714Q0.696 0.712 0.705 0.708Q0.685 0.700 0.664 0.698Q0.643 0.696 0.629 0.710Q0.639 0.711 0.648 0.715Q0.657 0.720 0.666 0.723ZM0.393 0.716Q0.391 0.698 0.393 0.680Q0.395 0.663 0.390 0.646Q0.376 0.644 0.365 0.639Q0.354 0.634 0.343 0.634V0.697L0.347 0.703Q0.357 0.708 0.368 0.710Q0.379 0.712 0.389 0.717ZM0.328 0.694Q0.326 0.676 0.328 0.659Q0.331 0.641 0.324 0.624Q0.310 0.622 0.299 0.617Q0.288 0.612 0.276 0.612V0.675L0.281 0.681Q0.291 0.686 0.302 0.689Q0.312 0.691 0.323 0.696ZM0.592 0.694Q0.589 0.676 0.591 0.659Q0.593 0.641 0.588 0.624Q0.578 0.622 0.566 0.617Q0.554 0.613 0.547 0.610L0.541 0.612V0.675L0.545 0.681Q0.556 0.686 0.567 0.689Q0.578 0.691 0.587 0.696ZM0.527 0.670Q0.524 0.652 0.526 0.636Q0.528 0.620 0.524 0.604Q0.512 0.598 0.500 0.596Q0.489 0.593 0.479 0.587L0.474 0.590V0.654Q0.485 0.663 0.498 0.666Q0.512 0.669 0.522 0.675ZM0.393 0.627Q0.391 0.610 0.393 0.592Q0.396 0.574 0.389 0.557Q0.377 0.555 0.367 0.551Q0.357 0.548 0.347 0.543L0.343 0.547Q0.344 0.564 0.343 0.581Q0.342 0.598 0.345 0.613Q0.356 0.618 0.367 0.622Q0.377 0.626 0.389 0.630ZM0.328 0.607Q0.326 0.588 0.328 0.571Q0.330 0.554 0.326 0.537Q0.313 0.533 0.302 0.530Q0.291 0.527 0.281 0.521L0.276 0.524Q0.277 0.542 0.276 0.559Q0.275 0.576 0.278 0.590Q0.289 0.598 0.300 0.600Q0.311 0.603 0.323 0.609ZM0.592 0.605Q0.590 0.587 0.591 0.571Q0.592 0.554 0.590 0.539Q0.579 0.533 0.568 0.529Q0.556 0.526 0.545 0.522L0.541 0.524V0.587L0.545 0.595Q0.556 0.596 0.567 0.600Q0.578 0.605 0.587 0.609ZM0.527 0.582Q0.524 0.565 0.526 0.549Q0.528 0.534 0.524 0.516Q0.512 0.512 0.500 0.508Q0.489 0.504 0.479 0.499L0.474 0.502V0.565L0.479 0.572Q0.491 0.575 0.501 0.579Q0.512 0.582 0.520 0.586ZM0.460 0.562Q0.457 0.545 0.459 0.527Q0.461 0.509 0.457 0.492Q0.444 0.490 0.432 0.484Q0.421 0.479 0.409 0.479V0.545Q0.418 0.554 0.430 0.555Q0.443 0.557 0.454 0.564ZM0.393 0.539V0.479L0.389 0.471Q0.377 0.467 0.367 0.463Q0.356 0.458 0.347 0.456L0.343 0.457V0.521L0.347 0.527Q0.357 0.533 0.368 0.534Q0.379 0.536 0.389 0.542ZM0.659 0.537V0.477L0.654 0.471Q0.643 0.465 0.632 0.462Q0.621 0.459 0.612 0.456L0.607 0.457V0.524Q0.616 0.532 0.629 0.533Q0.642 0.535 0.652 0.542ZM0.328 0.517Q0.326 0.500 0.328 0.482Q0.331 0.464 0.324 0.448Q0.312 0.446 0.302 0.442Q0.291 0.438 0.283 0.434L0.276 0.435V0.499Q0.281 0.506 0.284 0.507Q0.296 0.508 0.323 0.519ZM0.592 0.517Q0.589 0.500 0.591 0.482Q0.593 0.464 0.588 0.448Q0.575 0.446 0.564 0.441Q0.553 0.435 0.541 0.435V0.499L0.545 0.505Q0.556 0.510 0.567 0.512Q0.578 0.513 0.587 0.519ZM0.527 0.494Q0.525 0.490 0.526 0.486Q0.527 0.483 0.525 0.480L0.520 0.479Q0.513 0.482 0.506 0.484Q0.498 0.486 0.494 0.489Q0.498 0.489 0.520 0.497ZM0.466 0.480Q0.477 0.474 0.487 0.472Q0.496 0.471 0.506 0.465Q0.463 0.446 0.428 0.465Q0.437 0.471 0.448 0.473Q0.458 0.475 0.466 0.480ZM0.393 0.451Q0.391 0.433 0.393 0.416Q0.396 0.398 0.389 0.381Q0.377 0.379 0.367 0.376Q0.356 0.372 0.347 0.367L0.343 0.370Q0.344 0.388 0.343 0.405Q0.342 0.422 0.345 0.437Q0.356 0.442 0.367 0.446Q0.377 0.450 0.389 0.454ZM0.527 0.451Q0.524 0.399 0.526 0.351Q0.528 0.302 0.524 0.252Q0.512 0.247 0.500 0.242Q0.489 0.238 0.479 0.236L0.474 0.239V0.432L0.479 0.439Q0.489 0.444 0.500 0.447Q0.511 0.449 0.520 0.454ZM0.659 0.451Q0.656 0.433 0.658 0.416Q0.661 0.398 0.654 0.381Q0.643 0.379 0.632 0.375Q0.621 0.371 0.612 0.369L0.607 0.370Q0.608 0.388 0.607 0.405Q0.606 0.422 0.609 0.437Q0.632 0.447 0.654 0.454ZM0.328 0.429Q0.326 0.412 0.328 0.394Q0.331 0.376 0.324 0.359Q0.310 0.357 0.298 0.352Q0.285 0.347 0.276 0.347V0.410L0.281 0.417Q0.291 0.422 0.302 0.424Q0.312 0.427 0.323 0.432ZM0.592 0.429Q0.589 0.412 0.591 0.394Q0.594 0.376 0.587 0.359Q0.575 0.357 0.564 0.353Q0.553 0.350 0.545 0.345L0.541 0.348Q0.542 0.366 0.541 0.383Q0.539 0.399 0.542 0.415Q0.564 0.425 0.587 0.432ZM0.393 0.363V0.302L0.389 0.295Q0.377 0.291 0.367 0.287Q0.356 0.283 0.347 0.280L0.343 0.282V0.345Q0.347 0.351 0.350 0.353Q0.361 0.355 0.370 0.359Q0.379 0.363 0.389 0.365ZM0.659 0.363Q0.656 0.345 0.658 0.329Q0.660 0.313 0.655 0.296Q0.642 0.293 0.631 0.287Q0.619 0.280 0.607 0.280V0.347Q0.616 0.355 0.629 0.357Q0.642 0.359 0.652 0.365ZM0.328 0.342Q0.326 0.324 0.328 0.306Q0.331 0.289 0.324 0.272Q0.312 0.267 0.302 0.265Q0.291 0.262 0.283 0.258L0.276 0.259V0.322Q0.279 0.328 0.284 0.330Q0.292 0.331 0.302 0.335Q0.311 0.338 0.323 0.343ZM0.592 0.342Q0.589 0.324 0.591 0.306Q0.593 0.289 0.588 0.272Q0.578 0.269 0.567 0.265Q0.556 0.261 0.547 0.258L0.541 0.259V0.322L0.545 0.329Q0.556 0.333 0.567 0.336Q0.578 0.339 0.587 0.343ZM0.664 0.282Q0.675 0.275 0.685 0.274Q0.695 0.272 0.705 0.267Q0.664 0.249 0.626 0.267Q0.636 0.272 0.646 0.275Q0.656 0.277 0.664 0.282ZM0.393 0.277Q0.391 0.259 0.393 0.241Q0.395 0.224 0.390 0.207Q0.376 0.202 0.364 0.198Q0.352 0.193 0.343 0.193V0.256L0.347 0.262Q0.357 0.267 0.368 0.270Q0.379 0.272 0.389 0.278ZM0.328 0.253Q0.326 0.236 0.328 0.217Q0.331 0.199 0.324 0.183Q0.310 0.181 0.298 0.176Q0.285 0.171 0.276 0.171V0.234L0.281 0.240Q0.291 0.245 0.302 0.247Q0.312 0.250 0.323 0.256ZM0.592 0.253Q0.589 0.236 0.591 0.217Q0.594 0.199 0.587 0.183Q0.563 0.179 0.545 0.169L0.541 0.172Q0.542 0.190 0.541 0.207Q0.539 0.224 0.542 0.239Q0.564 0.249 0.587 0.256ZM0.527 0.231Q0.524 0.213 0.526 0.196Q0.529 0.178 0.522 0.161Q0.509 0.159 0.496 0.153Q0.483 0.148 0.474 0.148V0.211L0.479 0.217Q0.489 0.223 0.500 0.225Q0.511 0.228 0.520 0.234ZM0.460 0.210Q0.457 0.192 0.459 0.174Q0.461 0.157 0.457 0.140Q0.444 0.138 0.432 0.132Q0.421 0.126 0.409 0.126V0.193Q0.418 0.198 0.430 0.201Q0.443 0.204 0.454 0.211ZM0.393 0.186V0.126L0.389 0.118Q0.377 0.115 0.367 0.111Q0.356 0.107 0.347 0.104L0.343 0.106V0.169Q0.347 0.175 0.350 0.177Q0.361 0.178 0.370 0.182Q0.379 0.186 0.389 0.190ZM0.598 0.171Q0.608 0.168 0.619 0.164Q0.630 0.161 0.640 0.158Q0.632 0.152 0.622 0.152Q0.613 0.151 0.606 0.145Q0.586 0.146 0.559 0.158Q0.571 0.161 0.579 0.164Q0.588 0.168 0.598 0.171ZM0.328 0.166Q0.326 0.148 0.328 0.131Q0.331 0.113 0.324 0.096Q0.312 0.091 0.302 0.089Q0.291 0.086 0.283 0.081L0.276 0.083V0.146Q0.279 0.152 0.284 0.154Q0.299 0.155 0.323 0.167ZM0.533 0.150Q0.540 0.144 0.551 0.142Q0.562 0.140 0.571 0.135Q0.562 0.130 0.554 0.129Q0.546 0.128 0.539 0.123Q0.518 0.123 0.494 0.137Q0.508 0.137 0.533 0.150ZM0.468 0.128Q0.476 0.121 0.487 0.119Q0.497 0.117 0.506 0.114Q0.487 0.106 0.467 0.104Q0.447 0.102 0.430 0.115Q0.441 0.116 0.449 0.120Q0.458 0.125 0.468 0.128ZM0.401 0.106Q0.408 0.099 0.421 0.098Q0.433 0.098 0.439 0.089Q0.428 0.088 0.418 0.083Q0.407 0.078 0.398 0.078Q0.390 0.084 0.379 0.085Q0.368 0.086 0.363 0.092Q0.371 0.093 0.381 0.097Q0.390 0.101 0.401 0.106ZM0.335 0.083Q0.345 0.077 0.354 0.076Q0.363 0.075 0.372 0.069Q0.334 0.047 0.297 0.070Q0.307 0.072 0.317 0.077Q0.326 0.081 0.335 0.083Z" fill="black"/>
</svg>
