<svg xmlns="http://www.w3.org/2000/svg" viewBox="0 0 1 1" preserveAspectRatio="xMidYMid meet">
  <path d="M0.393 0.976Q0.377 0.967 0.362 0.963Q0.346 0.958 0.329 0.951Q0.328 0.941 0.329 0.930Q0.330 0.919 0.325 0.907Q0.308 0.899 0.295 0.897Q0.281 0.894 0.264 0.884Q0.261 0.862 0.262 0.838Q0.264 0.814 0.262 0.790L0.265 0.786Q0.316 0.772 0.368 0.752Q0.420 0.732 0.472 0.765Q0.475 0.772 0.473 0.781Q0.472 0.790 0.474 0.798L0.479 0.802Q0.489 0.802 0.500 0.797Q0.512 0.792 0.524 0.788L0.529 0.780V0.669L0.524 0.663Q0.509 0.659 0.494 0.654Q0.478 0.649 0.463 0.640Q0.460 0.631 0.461 0.620Q0.463 0.609 0.459 0.598Q0.443 0.590 0.428 0.587Q0.413 0.583 0.398 0.575Q0.395 0.567 0.396 0.558Q0.397 0.549 0.396 0.539L0.393 0.533Q0.380 0.524 0.364 0.521Q0.347 0.518 0.333 0.510L0.329 0.505V0.471L0.325 0.463Q0.309 0.459 0.294 0.454Q0.279 0.449 0.264 0.441Q0.261 0.395 0.262 0.350Q0.264 0.305 0.262 0.258Q0.275 0.250 0.291 0.245Q0.308 0.241 0.325 0.234L0.329 0.228V0.148L0.333 0.143Q0.378 0.129 0.423 0.114Q0.468 0.099 0.515 0.083Q0.554 0.064 0.592 0.060Q0.630 0.057 0.668 0.078L0.673 0.084Q0.674 0.095 0.673 0.103Q0.672 0.112 0.676 0.123Q0.690 0.130 0.706 0.133Q0.722 0.136 0.737 0.145Q0.739 0.169 0.738 0.193Q0.737 0.216 0.738 0.242Q0.713 0.250 0.687 0.260Q0.662 0.269 0.636 0.279Q0.585 0.299 0.532 0.266L0.529 0.261V0.233L0.526 0.228Q0.515 0.228 0.503 0.233Q0.492 0.239 0.480 0.240Q0.481 0.240 0.474 0.250V0.362L0.479 0.366Q0.493 0.372 0.507 0.377Q0.521 0.381 0.536 0.387L0.539 0.392V0.427L0.544 0.433Q0.558 0.439 0.574 0.444Q0.589 0.448 0.605 0.455Q0.608 0.465 0.606 0.477Q0.604 0.488 0.609 0.498Q0.623 0.506 0.639 0.510Q0.655 0.513 0.670 0.521L0.673 0.525V0.561L0.678 0.567Q0.711 0.576 0.735 0.586L0.738 0.591Q0.738 0.772 0.735 0.774Q0.732 0.775 0.727 0.779Q0.704 0.784 0.676 0.797Q0.672 0.817 0.674 0.839Q0.675 0.862 0.673 0.883Q0.652 0.894 0.628 0.900Q0.604 0.905 0.579 0.918Q0.530 0.931 0.486 0.948Q0.441 0.964 0.396 0.976H0.393ZM0.395 0.954V0.897L0.391 0.892Q0.379 0.896 0.368 0.901Q0.357 0.905 0.347 0.907L0.342 0.914V0.936L0.347 0.941Q0.357 0.946 0.368 0.949Q0.378 0.951 0.388 0.957ZM0.328 0.887V0.824L0.324 0.817Q0.312 0.816 0.301 0.811Q0.290 0.806 0.282 0.805L0.277 0.807Q0.278 0.824 0.277 0.841Q0.276 0.858 0.278 0.873Q0.290 0.879 0.301 0.882Q0.312 0.885 0.324 0.891ZM0.479 0.847Q0.486 0.841 0.493 0.840Q0.499 0.839 0.506 0.836Q0.499 0.833 0.493 0.832Q0.487 0.830 0.482 0.827L0.476 0.829Q0.477 0.833 0.475 0.838Q0.474 0.843 0.477 0.847ZM0.535 0.829Q0.542 0.823 0.552 0.821Q0.561 0.818 0.569 0.816L0.574 0.812Q0.554 0.807 0.534 0.804Q0.514 0.802 0.496 0.816Q0.507 0.817 0.516 0.821Q0.525 0.825 0.535 0.829ZM0.336 0.807Q0.343 0.800 0.355 0.798Q0.367 0.796 0.373 0.790Q0.363 0.789 0.352 0.784Q0.342 0.779 0.333 0.779Q0.322 0.785 0.313 0.787Q0.303 0.789 0.296 0.792Q0.306 0.796 0.316 0.799Q0.326 0.802 0.336 0.807ZM0.594 0.800Q0.591 0.783 0.593 0.764Q0.596 0.746 0.589 0.730Q0.576 0.725 0.564 0.721Q0.553 0.716 0.541 0.716V0.780Q0.545 0.788 0.549 0.789Q0.559 0.790 0.568 0.794Q0.578 0.799 0.588 0.802ZM0.401 0.784Q0.411 0.776 0.421 0.775Q0.430 0.774 0.440 0.769Q0.430 0.765 0.421 0.763Q0.412 0.761 0.404 0.757Q0.374 0.763 0.363 0.771Q0.378 0.773 0.401 0.784ZM0.594 0.712Q0.592 0.696 0.593 0.681Q0.595 0.666 0.592 0.650L0.589 0.648Q0.581 0.653 0.572 0.656Q0.564 0.659 0.557 0.662H0.550L0.541 0.668Q0.542 0.675 0.541 0.682Q0.540 0.689 0.543 0.696Q0.555 0.702 0.566 0.705Q0.577 0.708 0.588 0.713ZM0.527 0.643Q0.526 0.628 0.527 0.614Q0.528 0.600 0.526 0.585L0.522 0.583Q0.512 0.587 0.501 0.591Q0.490 0.595 0.480 0.598L0.476 0.603Q0.478 0.610 0.476 0.618Q0.474 0.626 0.479 0.631Q0.489 0.637 0.500 0.639Q0.511 0.640 0.521 0.646ZM0.678 0.603Q0.685 0.599 0.692 0.597Q0.700 0.596 0.706 0.592Q0.700 0.589 0.692 0.587Q0.685 0.585 0.681 0.583L0.675 0.585Q0.676 0.589 0.675 0.594Q0.674 0.599 0.676 0.603ZM0.457 0.581Q0.461 0.569 0.460 0.552Q0.459 0.536 0.460 0.521L0.457 0.516Q0.444 0.521 0.431 0.525Q0.418 0.528 0.409 0.536V0.561Q0.419 0.569 0.432 0.573Q0.445 0.576 0.457 0.581ZM0.611 0.537Q0.626 0.532 0.639 0.525Q0.620 0.517 0.614 0.517L0.608 0.519Q0.609 0.524 0.608 0.529Q0.607 0.535 0.609 0.537ZM0.395 0.513Q0.393 0.497 0.394 0.482Q0.395 0.466 0.393 0.450L0.390 0.449Q0.381 0.454 0.373 0.456Q0.365 0.458 0.358 0.462H0.352L0.342 0.468Q0.343 0.476 0.342 0.483Q0.341 0.490 0.344 0.497Q0.355 0.503 0.366 0.506Q0.377 0.509 0.388 0.514ZM0.544 0.471Q0.551 0.465 0.557 0.465Q0.563 0.464 0.569 0.462L0.574 0.458Q0.564 0.456 0.556 0.453Q0.548 0.450 0.541 0.452Q0.542 0.457 0.541 0.462Q0.540 0.466 0.543 0.471ZM0.328 0.445Q0.325 0.427 0.327 0.411Q0.329 0.394 0.325 0.378Q0.310 0.374 0.299 0.368Q0.288 0.362 0.277 0.362Q0.279 0.380 0.277 0.399Q0.275 0.418 0.280 0.432Q0.290 0.438 0.301 0.440Q0.311 0.441 0.321 0.448ZM0.479 0.403Q0.486 0.399 0.493 0.398Q0.499 0.397 0.506 0.393Q0.499 0.390 0.493 0.388Q0.487 0.386 0.482 0.384L0.476 0.386Q0.477 0.390 0.475 0.395Q0.474 0.399 0.477 0.403ZM0.328 0.357Q0.325 0.339 0.327 0.322Q0.330 0.304 0.324 0.287Q0.312 0.285 0.301 0.280Q0.290 0.276 0.282 0.274L0.277 0.275Q0.278 0.294 0.277 0.310Q0.276 0.327 0.278 0.342Q0.290 0.348 0.301 0.352Q0.312 0.356 0.324 0.360ZM0.336 0.275Q0.343 0.269 0.352 0.267Q0.362 0.265 0.370 0.262L0.372 0.259Q0.332 0.242 0.294 0.261Q0.305 0.263 0.315 0.267Q0.326 0.270 0.336 0.275ZM0.594 0.267V0.210L0.591 0.205Q0.579 0.211 0.567 0.214Q0.556 0.216 0.546 0.222L0.541 0.228V0.250Q0.544 0.256 0.549 0.258Q0.564 0.259 0.588 0.271ZM0.395 0.247Q0.392 0.229 0.394 0.211Q0.397 0.194 0.390 0.177Q0.379 0.173 0.369 0.170Q0.358 0.168 0.348 0.163L0.342 0.164V0.228Q0.345 0.233 0.350 0.236Q0.364 0.237 0.388 0.248ZM0.401 0.164Q0.411 0.160 0.421 0.157Q0.430 0.153 0.440 0.150Q0.401 0.131 0.363 0.150Q0.373 0.153 0.382 0.157Q0.391 0.161 0.401 0.164ZM0.678 0.161Q0.681 0.159 0.688 0.157Q0.694 0.154 0.706 0.150Q0.697 0.147 0.692 0.144Q0.687 0.141 0.681 0.141L0.675 0.143Q0.676 0.148 0.675 0.153Q0.674 0.158 0.676 0.161ZM0.468 0.141Q0.477 0.135 0.488 0.134Q0.498 0.133 0.506 0.126Q0.495 0.125 0.486 0.121Q0.477 0.118 0.468 0.115Q0.451 0.123 0.428 0.127Q0.438 0.132 0.448 0.135Q0.458 0.138 0.468 0.141ZM0.533 0.119Q0.542 0.116 0.554 0.113Q0.565 0.110 0.571 0.104Q0.561 0.103 0.551 0.098Q0.541 0.093 0.533 0.092Q0.526 0.093 0.520 0.097Q0.514 0.101 0.507 0.101Q0.503 0.103 0.500 0.103Q0.496 0.104 0.494 0.106Q0.505 0.109 0.515 0.112Q0.524 0.116 0.533 0.119ZM0.600 0.099Q0.608 0.092 0.619 0.091Q0.629 0.089 0.639 0.083Q0.627 0.078 0.618 0.076Q0.608 0.073 0.599 0.070Q0.589 0.075 0.578 0.078Q0.567 0.081 0.561 0.084Q0.579 0.088 0.600 0.099Z" fill="black"/>
</svg>
