<svg xmlns="http://www.w3.org/2000/svg" viewBox="0 0 1 1" preserveAspectRatio="xMidYMid meet">
  <path d="M0.593 0.978Q0.526 0.952 0.461 0.932Q0.397 0.912 0.330 0.887Q0.327 0.876 0.327 0.865Q0.327 0.854 0.327 0.842Q0.328 0.831 0.327 0.820Q0.327 0.809 0.322 0.797Q0.308 0.791 0.293 0.786Q0.278 0.780 0.262 0.774Q0.258 0.752 0.260 0.728Q0.262 0.703 0.261 0.680L0.264 0.675Q0.315 0.642 0.365 0.662Q0.392 0.672 0.417 0.680Q0.442 0.689 0.469 0.697L0.472 0.702V0.779L0.475 0.786Q0.485 0.793 0.499 0.796Q0.514 0.800 0.527 0.802Q0.527 0.773 0.528 0.745Q0.530 0.716 0.526 0.686Q0.511 0.679 0.495 0.676Q0.480 0.673 0.464 0.664L0.461 0.659V0.581L0.458 0.575Q0.445 0.567 0.429 0.563Q0.412 0.559 0.397 0.553L0.394 0.548V0.467L0.389 0.461Q0.375 0.456 0.360 0.452Q0.345 0.448 0.331 0.440L0.328 0.435V0.359L0.325 0.352Q0.312 0.343 0.296 0.340Q0.279 0.337 0.264 0.329L0.261 0.324V0.222V0.141Q0.273 0.134 0.289 0.130Q0.305 0.125 0.321 0.119L0.328 0.110V0.077L0.331 0.072Q0.346 0.064 0.362 0.060Q0.378 0.057 0.395 0.050Q0.465 0.068 0.533 0.092Q0.601 0.116 0.671 0.140Q0.674 0.161 0.673 0.180Q0.671 0.200 0.673 0.222Q0.676 0.231 0.682 0.234Q0.693 0.236 0.707 0.240Q0.720 0.244 0.737 0.251L0.740 0.256V0.349Q0.676 0.387 0.604 0.356Q0.586 0.347 0.567 0.342Q0.549 0.337 0.530 0.329Q0.527 0.308 0.529 0.285Q0.532 0.262 0.526 0.239Q0.513 0.234 0.501 0.232Q0.490 0.230 0.477 0.222L0.474 0.224Q0.471 0.250 0.472 0.277Q0.473 0.305 0.472 0.332L0.475 0.339Q0.487 0.347 0.504 0.351Q0.521 0.355 0.536 0.362L0.540 0.366V0.447L0.544 0.453Q0.558 0.458 0.574 0.463Q0.590 0.467 0.605 0.476Q0.609 0.497 0.607 0.519Q0.604 0.542 0.610 0.564Q0.641 0.575 0.661 0.580L0.670 0.584Q0.674 0.606 0.672 0.627Q0.670 0.648 0.673 0.670L0.678 0.677Q0.692 0.682 0.708 0.686Q0.723 0.691 0.739 0.697Q0.741 0.744 0.740 0.790Q0.739 0.835 0.740 0.884Q0.727 0.892 0.710 0.896Q0.693 0.899 0.678 0.908L0.673 0.915V0.949L0.670 0.954Q0.653 0.960 0.635 0.967Q0.617 0.974 0.599 0.978H0.593ZM0.593 0.956V0.892L0.586 0.884Q0.575 0.882 0.563 0.878Q0.551 0.873 0.541 0.873V0.937L0.546 0.943Q0.561 0.948 0.572 0.952Q0.583 0.956 0.588 0.958ZM0.527 0.934Q0.526 0.916 0.527 0.899Q0.528 0.882 0.526 0.866Q0.496 0.853 0.474 0.851V0.915L0.479 0.921Q0.489 0.926 0.500 0.928Q0.511 0.931 0.521 0.937ZM0.459 0.913Q0.457 0.894 0.459 0.877Q0.461 0.859 0.456 0.842Q0.442 0.838 0.431 0.834Q0.420 0.829 0.408 0.827V0.894Q0.417 0.900 0.429 0.904Q0.441 0.908 0.453 0.915ZM0.392 0.888Q0.389 0.871 0.391 0.853Q0.394 0.834 0.387 0.817Q0.376 0.817 0.366 0.812Q0.355 0.807 0.345 0.803L0.341 0.807V0.871L0.345 0.877Q0.356 0.879 0.367 0.884Q0.377 0.888 0.387 0.892ZM0.661 0.888V0.824L0.656 0.817Q0.644 0.817 0.633 0.812Q0.623 0.807 0.613 0.805L0.609 0.807Q0.610 0.825 0.609 0.842Q0.608 0.859 0.610 0.874Q0.622 0.880 0.633 0.883Q0.644 0.886 0.656 0.892ZM0.593 0.866V0.805L0.588 0.797Q0.577 0.794 0.566 0.790Q0.555 0.786 0.546 0.783L0.541 0.785V0.849Q0.543 0.851 0.545 0.853Q0.547 0.855 0.549 0.857Q0.559 0.858 0.568 0.862Q0.578 0.866 0.588 0.869ZM0.527 0.843Q0.522 0.824 0.524 0.826Q0.516 0.830 0.507 0.832Q0.499 0.834 0.494 0.838Q0.501 0.837 0.507 0.841Q0.514 0.845 0.521 0.847ZM0.468 0.829Q0.474 0.823 0.484 0.821Q0.493 0.819 0.502 0.816L0.505 0.813Q0.486 0.807 0.465 0.804Q0.444 0.801 0.428 0.816Q0.439 0.817 0.449 0.822Q0.458 0.826 0.468 0.829ZM0.392 0.800Q0.389 0.783 0.391 0.764Q0.393 0.746 0.389 0.730Q0.377 0.727 0.366 0.722Q0.354 0.717 0.347 0.715L0.341 0.716V0.780L0.345 0.788Q0.356 0.792 0.367 0.794Q0.377 0.797 0.387 0.802ZM0.661 0.799Q0.658 0.780 0.659 0.764Q0.661 0.748 0.657 0.731Q0.644 0.727 0.632 0.722Q0.620 0.716 0.609 0.716V0.785Q0.618 0.790 0.630 0.793Q0.643 0.796 0.654 0.802ZM0.326 0.776Q0.322 0.758 0.325 0.742Q0.328 0.726 0.322 0.708Q0.310 0.703 0.299 0.701Q0.288 0.699 0.278 0.692L0.273 0.696V0.760Q0.283 0.768 0.297 0.771Q0.310 0.774 0.321 0.780ZM0.593 0.777V0.713L0.586 0.705Q0.575 0.704 0.563 0.699Q0.551 0.694 0.541 0.694V0.758L0.546 0.764Q0.556 0.769 0.567 0.772Q0.578 0.774 0.588 0.780ZM0.399 0.716Q0.409 0.714 0.420 0.709Q0.430 0.704 0.440 0.702Q0.429 0.700 0.419 0.696Q0.408 0.692 0.399 0.689Q0.389 0.694 0.378 0.697Q0.368 0.700 0.360 0.702Q0.370 0.705 0.379 0.709Q0.389 0.713 0.399 0.716ZM0.666 0.716Q0.676 0.712 0.687 0.710Q0.697 0.708 0.705 0.701Q0.695 0.699 0.685 0.695Q0.675 0.691 0.666 0.689Q0.659 0.691 0.653 0.694Q0.647 0.697 0.641 0.697Q0.638 0.700 0.634 0.701Q0.630 0.701 0.627 0.702Q0.639 0.705 0.648 0.709Q0.657 0.713 0.666 0.716ZM0.333 0.694Q0.343 0.690 0.352 0.688Q0.361 0.685 0.371 0.680Q0.360 0.675 0.350 0.673Q0.341 0.671 0.331 0.667Q0.321 0.672 0.311 0.674Q0.301 0.677 0.296 0.682Q0.304 0.685 0.313 0.688Q0.322 0.691 0.331 0.694ZM0.593 0.688V0.627L0.588 0.619Q0.577 0.615 0.566 0.611Q0.555 0.608 0.546 0.603L0.541 0.606V0.670L0.546 0.677Q0.556 0.678 0.567 0.683Q0.578 0.688 0.588 0.691ZM0.527 0.667Q0.524 0.648 0.526 0.631Q0.529 0.613 0.522 0.597Q0.512 0.591 0.500 0.588Q0.489 0.585 0.480 0.581L0.474 0.583V0.647Q0.477 0.652 0.482 0.655Q0.497 0.657 0.521 0.669ZM0.600 0.606Q0.609 0.600 0.621 0.598Q0.632 0.596 0.641 0.591Q0.634 0.590 0.629 0.586Q0.592 0.570 0.562 0.593Q0.581 0.596 0.600 0.606ZM0.527 0.575Q0.524 0.557 0.526 0.541Q0.528 0.525 0.524 0.508Q0.512 0.502 0.500 0.500Q0.489 0.498 0.479 0.492L0.474 0.495V0.559Q0.484 0.568 0.498 0.571Q0.512 0.574 0.522 0.580ZM0.459 0.555Q0.457 0.537 0.459 0.518Q0.462 0.500 0.455 0.484Q0.443 0.481 0.433 0.477Q0.422 0.474 0.413 0.471L0.408 0.472Q0.409 0.491 0.408 0.508Q0.407 0.524 0.409 0.540Q0.421 0.545 0.432 0.549Q0.443 0.553 0.455 0.557ZM0.534 0.493Q0.544 0.489 0.553 0.486Q0.562 0.484 0.571 0.479Q0.560 0.474 0.551 0.472Q0.541 0.471 0.532 0.466Q0.522 0.471 0.512 0.473Q0.502 0.476 0.496 0.481Q0.505 0.485 0.514 0.487Q0.523 0.490 0.532 0.493ZM0.459 0.464Q0.457 0.446 0.459 0.430Q0.461 0.414 0.456 0.397Q0.442 0.393 0.431 0.387Q0.420 0.381 0.408 0.381V0.448Q0.417 0.457 0.429 0.459Q0.441 0.460 0.453 0.467ZM0.392 0.443Q0.389 0.426 0.391 0.408Q0.393 0.389 0.389 0.373Q0.377 0.371 0.367 0.367Q0.356 0.363 0.347 0.359L0.341 0.360V0.424L0.345 0.431Q0.356 0.436 0.367 0.438Q0.377 0.439 0.387 0.445ZM0.466 0.382Q0.476 0.376 0.486 0.374Q0.495 0.373 0.505 0.368Q0.465 0.350 0.427 0.368Q0.437 0.373 0.446 0.376Q0.456 0.378 0.466 0.382ZM0.392 0.356Q0.389 0.337 0.391 0.319Q0.393 0.301 0.389 0.285Q0.371 0.278 0.360 0.275Q0.348 0.271 0.341 0.270V0.334L0.345 0.340Q0.359 0.346 0.369 0.349Q0.379 0.353 0.387 0.357ZM0.661 0.354Q0.658 0.335 0.660 0.318Q0.662 0.300 0.656 0.283Q0.644 0.280 0.633 0.276Q0.623 0.272 0.613 0.270L0.609 0.271Q0.610 0.290 0.609 0.306Q0.608 0.323 0.610 0.339Q0.622 0.343 0.633 0.348Q0.644 0.352 0.656 0.357ZM0.326 0.331Q0.322 0.313 0.326 0.295Q0.329 0.277 0.321 0.260Q0.307 0.258 0.295 0.253Q0.283 0.248 0.273 0.248V0.312L0.278 0.318Q0.288 0.323 0.299 0.326Q0.309 0.328 0.319 0.334ZM0.593 0.331Q0.590 0.313 0.592 0.295Q0.595 0.277 0.588 0.260Q0.577 0.258 0.566 0.255Q0.556 0.251 0.546 0.246L0.541 0.249Q0.542 0.267 0.541 0.284Q0.540 0.301 0.543 0.316Q0.555 0.321 0.566 0.325Q0.577 0.329 0.588 0.334ZM0.668 0.271Q0.675 0.265 0.685 0.263Q0.694 0.261 0.704 0.259L0.705 0.256Q0.666 0.238 0.626 0.257Q0.638 0.259 0.648 0.263Q0.658 0.266 0.668 0.271ZM0.392 0.263V0.202L0.387 0.195Q0.376 0.191 0.366 0.187Q0.355 0.183 0.345 0.180L0.341 0.182V0.246Q0.345 0.252 0.348 0.254Q0.359 0.255 0.368 0.259Q0.377 0.263 0.387 0.266ZM0.326 0.243Q0.322 0.225 0.326 0.207Q0.329 0.189 0.321 0.172Q0.310 0.168 0.300 0.165Q0.289 0.163 0.280 0.158L0.273 0.159V0.224Q0.278 0.231 0.281 0.232Q0.298 0.234 0.319 0.244ZM0.593 0.243Q0.590 0.225 0.592 0.207Q0.594 0.189 0.590 0.172Q0.579 0.170 0.567 0.166Q0.556 0.162 0.548 0.158L0.541 0.159V0.224L0.546 0.230Q0.556 0.234 0.567 0.237Q0.578 0.240 0.588 0.244ZM0.527 0.220Q0.524 0.202 0.526 0.184Q0.529 0.167 0.522 0.149Q0.512 0.145 0.500 0.143Q0.489 0.140 0.480 0.135L0.474 0.136V0.201Q0.479 0.208 0.482 0.209Q0.493 0.211 0.521 0.222ZM0.459 0.196Q0.457 0.178 0.459 0.162Q0.461 0.145 0.456 0.129Q0.442 0.124 0.431 0.119Q0.420 0.114 0.408 0.114V0.182Q0.417 0.188 0.429 0.191Q0.441 0.194 0.453 0.199ZM0.392 0.175V0.111L0.386 0.103Q0.373 0.102 0.362 0.097Q0.350 0.091 0.341 0.091V0.155L0.345 0.163Q0.368 0.170 0.387 0.178ZM0.600 0.159Q0.610 0.153 0.621 0.152Q0.631 0.150 0.640 0.143Q0.596 0.127 0.560 0.145L0.600 0.159ZM0.326 0.152Q0.325 0.148 0.326 0.144Q0.327 0.140 0.325 0.136L0.319 0.135Q0.312 0.139 0.305 0.141Q0.297 0.143 0.294 0.146Q0.301 0.145 0.307 0.150Q0.313 0.154 0.319 0.155ZM0.534 0.136Q0.542 0.132 0.553 0.130Q0.564 0.128 0.571 0.121Q0.562 0.119 0.552 0.115Q0.541 0.111 0.534 0.110Q0.516 0.118 0.497 0.121L0.494 0.124Q0.505 0.125 0.515 0.130Q0.524 0.134 0.534 0.136ZM0.468 0.114Q0.477 0.111 0.487 0.106Q0.497 0.102 0.505 0.102Q0.497 0.095 0.487 0.093Q0.476 0.092 0.468 0.087Q0.456 0.091 0.445 0.094Q0.434 0.097 0.427 0.102Q0.437 0.103 0.446 0.107Q0.456 0.112 0.466 0.114ZM0.399 0.091Q0.409 0.089 0.420 0.085Q0.430 0.080 0.440 0.078Q0.432 0.072 0.423 0.072Q0.413 0.071 0.407 0.066Q0.383 0.067 0.360 0.078Q0.370 0.081 0.379 0.085Q0.389 0.088 0.399 0.091Z" fill="black"/>
</svg>
