<svg xmlns="http://www.w3.org/2000/svg" viewBox="0 0 1 1" preserveAspectRatio="xMidYMid meet">
  <path d="M0.458 0.957Q0.444 0.948 0.428 0.946Q0.413 0.943 0.398 0.935Q0.394 0.769 0.396 0.607Q0.399 0.444 0.393 0.277L0.388 0.276Q0.357 0.294 0.327 0.289Q0.296 0.284 0.264 0.270Q0.261 0.247 0.262 0.223Q0.263 0.199 0.262 0.176L0.266 0.171Q0.325 0.160 0.383 0.138Q0.442 0.117 0.500 0.087Q0.619 0.027 0.737 0.059Q0.739 0.083 0.738 0.107Q0.737 0.130 0.738 0.155L0.735 0.160Q0.720 0.169 0.704 0.172Q0.688 0.175 0.672 0.182Q0.653 0.191 0.635 0.193Q0.617 0.195 0.606 0.207V0.905Q0.605 0.910 0.592 0.917Q0.559 0.927 0.527 0.940Q0.494 0.952 0.461 0.957H0.458ZM0.460 0.936V0.875L0.455 0.868Q0.444 0.864 0.433 0.860Q0.423 0.856 0.413 0.853L0.409 0.855V0.918Q0.412 0.925 0.416 0.927Q0.427 0.928 0.436 0.932Q0.446 0.936 0.455 0.939ZM0.460 0.851Q0.457 0.832 0.459 0.815Q0.461 0.797 0.457 0.779Q0.444 0.775 0.431 0.770Q0.418 0.765 0.409 0.765V0.829L0.413 0.835Q0.424 0.839 0.435 0.843Q0.446 0.848 0.455 0.852ZM0.460 0.759V0.698L0.455 0.690Q0.444 0.687 0.433 0.683Q0.423 0.679 0.413 0.677L0.409 0.678V0.742L0.413 0.748Q0.424 0.749 0.435 0.754Q0.446 0.759 0.455 0.762ZM0.460 0.672Q0.457 0.653 0.459 0.636Q0.462 0.619 0.455 0.602Q0.444 0.597 0.433 0.595Q0.423 0.592 0.413 0.587L0.409 0.590V0.654Q0.418 0.662 0.430 0.665Q0.443 0.669 0.454 0.673ZM0.460 0.582Q0.458 0.564 0.459 0.548Q0.460 0.532 0.458 0.515Q0.447 0.509 0.435 0.506Q0.424 0.503 0.413 0.499L0.409 0.501V0.565L0.413 0.571Q0.424 0.572 0.435 0.577Q0.446 0.582 0.455 0.585ZM0.460 0.493Q0.457 0.475 0.459 0.459Q0.461 0.443 0.457 0.426Q0.444 0.422 0.432 0.417Q0.421 0.412 0.409 0.412V0.476L0.413 0.482Q0.424 0.487 0.435 0.489Q0.446 0.491 0.455 0.496ZM0.460 0.405Q0.457 0.387 0.459 0.369Q0.462 0.352 0.455 0.335Q0.444 0.333 0.433 0.329Q0.423 0.325 0.413 0.322L0.409 0.324Q0.410 0.342 0.409 0.359Q0.408 0.376 0.410 0.391Q0.422 0.395 0.433 0.400Q0.444 0.404 0.455 0.409ZM0.460 0.316Q0.458 0.301 0.459 0.286Q0.460 0.270 0.458 0.256H0.454Q0.442 0.260 0.429 0.264Q0.417 0.268 0.409 0.273V0.299L0.413 0.305Q0.424 0.309 0.435 0.312Q0.446 0.315 0.455 0.319ZM0.328 0.273Q0.325 0.255 0.327 0.237Q0.330 0.220 0.323 0.203Q0.289 0.190 0.275 0.190V0.254Q0.279 0.260 0.283 0.261Q0.293 0.263 0.302 0.268Q0.311 0.272 0.322 0.274ZM0.334 0.190Q0.345 0.186 0.354 0.183Q0.362 0.181 0.372 0.176Q0.361 0.172 0.352 0.169Q0.342 0.167 0.332 0.164Q0.323 0.168 0.312 0.171Q0.301 0.174 0.295 0.177Q0.305 0.179 0.315 0.183Q0.325 0.188 0.334 0.190ZM0.401 0.168Q0.411 0.165 0.420 0.161Q0.429 0.157 0.439 0.157L0.441 0.153Q0.430 0.151 0.420 0.147Q0.409 0.143 0.399 0.140Q0.390 0.144 0.380 0.148Q0.369 0.152 0.361 0.153Q0.371 0.159 0.381 0.161Q0.390 0.164 0.399 0.168ZM0.468 0.145Q0.476 0.141 0.485 0.139Q0.493 0.136 0.502 0.134L0.506 0.131Q0.497 0.128 0.489 0.127Q0.481 0.125 0.474 0.120Q0.462 0.122 0.449 0.126Q0.436 0.130 0.428 0.132Q0.435 0.134 0.445 0.137Q0.455 0.140 0.466 0.145ZM0.533 0.125Q0.542 0.119 0.553 0.116Q0.563 0.114 0.572 0.109Q0.550 0.102 0.532 0.100Q0.514 0.099 0.494 0.111Q0.504 0.113 0.513 0.116Q0.523 0.120 0.533 0.125ZM0.600 0.103Q0.607 0.097 0.618 0.095Q0.630 0.092 0.639 0.088Q0.597 0.065 0.561 0.089Q0.570 0.090 0.579 0.094Q0.589 0.098 0.600 0.103ZM0.667 0.080Q0.674 0.073 0.687 0.072Q0.700 0.071 0.706 0.064Q0.695 0.063 0.684 0.058Q0.673 0.053 0.663 0.053Q0.654 0.058 0.645 0.060Q0.636 0.063 0.627 0.066Q0.638 0.071 0.647 0.073Q0.657 0.074 0.667 0.080Z" fill="black"/>
</svg>
