<svg xmlns="http://www.w3.org/2000/svg" viewBox="0 0 1 1" preserveAspectRatio="xMidYMid meet">
  <path d="M0.525 0.955Q0.492 0.941 0.460 0.932Q0.427 0.923 0.393 0.909Q0.391 0.730 0.394 0.552Q0.397 0.374 0.388 0.195Q0.358 0.183 0.326 0.174Q0.294 0.165 0.263 0.151L0.260 0.146V0.053Q0.323 0.014 0.396 0.047Q0.481 0.077 0.566 0.104Q0.651 0.131 0.737 0.163L0.740 0.168V0.212V0.259L0.737 0.263Q0.667 0.296 0.608 0.268Q0.603 0.433 0.605 0.597Q0.607 0.761 0.605 0.927L0.601 0.932Q0.584 0.939 0.566 0.946Q0.547 0.952 0.528 0.955H0.525ZM0.526 0.934Q0.524 0.916 0.526 0.899Q0.528 0.883 0.523 0.866Q0.511 0.862 0.499 0.858Q0.488 0.854 0.478 0.849L0.473 0.852Q0.474 0.870 0.473 0.887Q0.472 0.903 0.475 0.919Q0.487 0.925 0.498 0.928Q0.509 0.931 0.520 0.937ZM0.459 0.913Q0.456 0.894 0.458 0.877Q0.461 0.859 0.454 0.842Q0.444 0.837 0.432 0.834Q0.421 0.831 0.412 0.828L0.406 0.829V0.893L0.410 0.899Q0.421 0.903 0.432 0.906Q0.443 0.909 0.453 0.915ZM0.526 0.843Q0.524 0.826 0.526 0.810Q0.528 0.794 0.523 0.776Q0.511 0.770 0.499 0.768Q0.488 0.766 0.478 0.760L0.473 0.763V0.828Q0.484 0.836 0.497 0.839Q0.511 0.842 0.522 0.849ZM0.459 0.821Q0.456 0.804 0.458 0.787Q0.460 0.770 0.456 0.754Q0.444 0.748 0.432 0.746Q0.421 0.744 0.410 0.738L0.406 0.741V0.805Q0.416 0.814 0.430 0.817Q0.444 0.820 0.454 0.826ZM0.526 0.755Q0.524 0.738 0.526 0.721Q0.528 0.704 0.523 0.688Q0.511 0.683 0.499 0.679Q0.488 0.675 0.478 0.670L0.473 0.674V0.738L0.478 0.745Q0.501 0.749 0.520 0.759ZM0.459 0.735Q0.456 0.716 0.458 0.699Q0.461 0.681 0.454 0.664Q0.444 0.660 0.432 0.657Q0.421 0.653 0.412 0.649L0.406 0.651V0.715Q0.409 0.722 0.414 0.724Q0.430 0.726 0.453 0.736ZM0.526 0.667Q0.524 0.649 0.526 0.632Q0.529 0.614 0.522 0.597Q0.509 0.595 0.497 0.589Q0.485 0.583 0.473 0.583V0.647L0.478 0.654Q0.488 0.660 0.499 0.662Q0.510 0.664 0.520 0.669ZM0.459 0.643Q0.456 0.625 0.458 0.609Q0.460 0.592 0.456 0.575Q0.444 0.569 0.432 0.567Q0.421 0.565 0.410 0.559L0.406 0.562V0.627Q0.416 0.636 0.430 0.639Q0.444 0.641 0.454 0.647ZM0.526 0.576V0.516Q0.523 0.511 0.520 0.506L0.517 0.505Q0.506 0.504 0.496 0.500Q0.487 0.496 0.478 0.492L0.473 0.495Q0.474 0.513 0.473 0.530Q0.472 0.547 0.475 0.562Q0.487 0.568 0.498 0.571Q0.509 0.574 0.520 0.580ZM0.459 0.555Q0.457 0.537 0.458 0.520Q0.459 0.503 0.457 0.487Q0.446 0.481 0.434 0.478Q0.423 0.476 0.412 0.471L0.406 0.473Q0.407 0.491 0.406 0.508Q0.405 0.524 0.408 0.540Q0.419 0.546 0.430 0.548Q0.442 0.551 0.453 0.558ZM0.526 0.489V0.425Q0.521 0.418 0.518 0.417Q0.509 0.415 0.498 0.411Q0.487 0.407 0.480 0.403L0.473 0.405V0.470L0.478 0.476Q0.488 0.481 0.499 0.483Q0.510 0.485 0.520 0.491ZM0.459 0.464Q0.456 0.447 0.458 0.430Q0.460 0.414 0.456 0.397Q0.444 0.391 0.432 0.389Q0.421 0.386 0.410 0.381L0.406 0.384V0.448Q0.415 0.458 0.430 0.460Q0.446 0.462 0.454 0.470ZM0.526 0.398V0.337Q0.523 0.332 0.521 0.330Q0.519 0.327 0.518 0.326Q0.507 0.326 0.495 0.321Q0.483 0.315 0.473 0.315V0.379L0.478 0.386Q0.488 0.390 0.499 0.393Q0.510 0.396 0.520 0.402ZM0.459 0.378Q0.456 0.360 0.458 0.342Q0.460 0.324 0.456 0.307Q0.442 0.303 0.430 0.299Q0.418 0.295 0.410 0.291L0.406 0.296V0.357L0.410 0.364Q0.421 0.368 0.432 0.370Q0.443 0.373 0.453 0.379ZM0.526 0.310Q0.524 0.293 0.526 0.275Q0.529 0.257 0.522 0.239Q0.511 0.238 0.500 0.233Q0.489 0.229 0.480 0.225L0.473 0.227V0.291L0.478 0.298Q0.488 0.302 0.499 0.304Q0.510 0.306 0.520 0.312ZM0.459 0.288Q0.456 0.269 0.458 0.252Q0.461 0.234 0.454 0.216Q0.444 0.212 0.432 0.210Q0.421 0.207 0.412 0.202L0.406 0.204V0.268Q0.410 0.275 0.414 0.276Q0.422 0.277 0.432 0.281Q0.442 0.285 0.453 0.290ZM0.660 0.265Q0.657 0.248 0.660 0.230Q0.662 0.211 0.655 0.195Q0.621 0.182 0.606 0.182V0.246Q0.609 0.252 0.614 0.254Q0.624 0.256 0.634 0.260Q0.643 0.264 0.653 0.267ZM0.589 0.246Q0.594 0.229 0.592 0.212Q0.591 0.195 0.592 0.179L0.588 0.173Q0.577 0.168 0.566 0.166Q0.555 0.164 0.545 0.158L0.540 0.161Q0.542 0.179 0.541 0.196Q0.539 0.213 0.542 0.229Q0.554 0.234 0.566 0.237Q0.577 0.241 0.588 0.246ZM0.526 0.221Q0.524 0.202 0.526 0.184Q0.529 0.167 0.522 0.149Q0.509 0.147 0.496 0.142Q0.483 0.137 0.473 0.137V0.201L0.478 0.207Q0.488 0.212 0.499 0.215Q0.510 0.217 0.520 0.224ZM0.459 0.198Q0.456 0.180 0.458 0.162Q0.461 0.144 0.454 0.127Q0.441 0.125 0.428 0.119Q0.415 0.114 0.406 0.114V0.179L0.410 0.185Q0.421 0.190 0.432 0.193Q0.443 0.195 0.453 0.201ZM0.666 0.182Q0.676 0.177 0.685 0.175Q0.695 0.173 0.705 0.168Q0.694 0.163 0.684 0.161Q0.674 0.159 0.664 0.154Q0.655 0.160 0.644 0.163Q0.634 0.166 0.628 0.169Q0.639 0.171 0.647 0.175Q0.656 0.180 0.666 0.182ZM0.391 0.175Q0.389 0.158 0.391 0.140Q0.394 0.122 0.387 0.105Q0.376 0.104 0.365 0.099Q0.354 0.093 0.345 0.091L0.340 0.093V0.158L0.345 0.165Q0.355 0.166 0.366 0.170Q0.377 0.175 0.387 0.179ZM0.600 0.160Q0.609 0.153 0.620 0.152Q0.632 0.150 0.639 0.143Q0.616 0.140 0.606 0.133Q0.582 0.136 0.560 0.146Q0.571 0.149 0.580 0.152Q0.589 0.155 0.598 0.160ZM0.326 0.153Q0.323 0.135 0.325 0.119Q0.327 0.103 0.323 0.085Q0.310 0.081 0.299 0.077Q0.288 0.072 0.278 0.068L0.273 0.071Q0.274 0.089 0.273 0.106Q0.272 0.123 0.274 0.138Q0.286 0.144 0.297 0.147Q0.308 0.150 0.320 0.157ZM0.533 0.137Q0.543 0.131 0.554 0.129Q0.566 0.127 0.573 0.122Q0.523 0.103 0.492 0.124Q0.510 0.129 0.531 0.137ZM0.465 0.116Q0.474 0.111 0.485 0.108Q0.496 0.105 0.504 0.100Q0.457 0.083 0.427 0.102Q0.435 0.104 0.445 0.107Q0.455 0.111 0.465 0.116ZM0.400 0.093Q0.407 0.087 0.417 0.085Q0.426 0.083 0.434 0.080L0.439 0.077Q0.419 0.071 0.398 0.069Q0.378 0.066 0.361 0.080Q0.371 0.082 0.381 0.086Q0.390 0.089 0.400 0.093ZM0.332 0.071Q0.340 0.064 0.351 0.064Q0.362 0.063 0.372 0.057Q0.362 0.052 0.353 0.049Q0.344 0.047 0.335 0.044Q0.306 0.050 0.293 0.058Q0.301 0.059 0.311 0.062Q0.321 0.066 0.332 0.071Z" fill="black"/>
</svg>
