<svg xmlns="http://www.w3.org/2000/svg" viewBox="0 0 1 1" preserveAspectRatio="xMidYMid meet">
  <path d="M0.392 0.979Q0.377 0.972 0.361 0.967Q0.345 0.962 0.328 0.955Q0.327 0.944 0.329 0.933Q0.330 0.922 0.324 0.911Q0.309 0.903 0.294 0.900Q0.279 0.896 0.263 0.889Q0.260 0.709 0.262 0.532Q0.263 0.354 0.262 0.173Q0.265 0.173 0.267 0.170Q0.268 0.167 0.273 0.165Q0.322 0.154 0.371 0.134Q0.420 0.115 0.471 0.148Q0.473 0.271 0.472 0.392Q0.471 0.513 0.472 0.638V0.802L0.477 0.807Q0.486 0.805 0.497 0.800Q0.508 0.795 0.518 0.794Q0.521 0.793 0.523 0.790Q0.524 0.788 0.528 0.783V0.084Q0.548 0.077 0.568 0.069Q0.588 0.061 0.612 0.051Q0.660 0.030 0.702 0.047Q0.709 0.050 0.718 0.052Q0.727 0.055 0.737 0.061Q0.739 0.175 0.738 0.291Q0.737 0.408 0.739 0.524Q0.737 0.591 0.738 0.653Q0.740 0.714 0.736 0.778L0.727 0.783Q0.716 0.783 0.704 0.789Q0.692 0.796 0.680 0.797Q0.675 0.799 0.672 0.805V0.884L0.668 0.889Q0.600 0.913 0.532 0.936Q0.464 0.959 0.394 0.979H0.392ZM0.392 0.956Q0.391 0.941 0.392 0.927Q0.393 0.913 0.390 0.897L0.387 0.895Q0.379 0.900 0.367 0.903Q0.356 0.907 0.346 0.911L0.341 0.917V0.939L0.346 0.945Q0.357 0.950 0.367 0.953Q0.378 0.955 0.387 0.961ZM0.327 0.891Q0.324 0.873 0.326 0.857Q0.328 0.841 0.324 0.824Q0.312 0.818 0.301 0.815Q0.290 0.812 0.279 0.807L0.274 0.810Q0.276 0.828 0.275 0.845Q0.273 0.862 0.276 0.877Q0.288 0.883 0.299 0.886Q0.310 0.888 0.321 0.894ZM0.479 0.850Q0.486 0.846 0.493 0.845Q0.500 0.843 0.504 0.838Q0.495 0.836 0.488 0.833Q0.481 0.830 0.474 0.831Q0.475 0.837 0.474 0.842Q0.473 0.847 0.476 0.850ZM0.534 0.831Q0.541 0.825 0.552 0.823Q0.563 0.821 0.572 0.818Q0.563 0.813 0.555 0.811Q0.548 0.810 0.539 0.805Q0.527 0.805 0.517 0.809Q0.507 0.814 0.496 0.816L0.494 0.819Q0.510 0.822 0.534 0.831ZM0.327 0.804V0.740Q0.324 0.734 0.319 0.732Q0.309 0.730 0.298 0.726Q0.288 0.722 0.282 0.720L0.274 0.721V0.785L0.279 0.791Q0.290 0.796 0.300 0.798Q0.311 0.801 0.321 0.805ZM0.591 0.804Q0.589 0.786 0.592 0.768Q0.595 0.750 0.586 0.733Q0.576 0.730 0.566 0.726Q0.555 0.722 0.546 0.720L0.541 0.723V0.786Q0.550 0.795 0.562 0.796Q0.575 0.798 0.585 0.805ZM0.327 0.712V0.652L0.321 0.644Q0.308 0.641 0.298 0.638Q0.288 0.634 0.279 0.630L0.274 0.633Q0.276 0.650 0.275 0.667Q0.273 0.684 0.276 0.700Q0.288 0.705 0.299 0.708Q0.310 0.711 0.321 0.717ZM0.591 0.714Q0.589 0.696 0.592 0.679Q0.595 0.662 0.586 0.644Q0.576 0.641 0.566 0.638Q0.555 0.634 0.546 0.631L0.541 0.633Q0.542 0.650 0.541 0.667Q0.540 0.684 0.543 0.700Q0.555 0.704 0.566 0.708Q0.576 0.712 0.586 0.717ZM0.327 0.625Q0.324 0.607 0.326 0.591Q0.328 0.575 0.324 0.558Q0.308 0.552 0.297 0.548Q0.287 0.544 0.279 0.542L0.274 0.544V0.608Q0.279 0.615 0.283 0.616Q0.295 0.617 0.321 0.628ZM0.591 0.626Q0.589 0.609 0.592 0.591Q0.595 0.573 0.586 0.556Q0.576 0.553 0.566 0.549Q0.555 0.545 0.546 0.542L0.541 0.544V0.608L0.546 0.614Q0.556 0.619 0.567 0.620Q0.577 0.622 0.586 0.628ZM0.327 0.537Q0.324 0.519 0.327 0.502Q0.329 0.484 0.322 0.467Q0.309 0.465 0.296 0.460Q0.284 0.454 0.274 0.454V0.517L0.279 0.524Q0.290 0.529 0.300 0.532Q0.311 0.535 0.321 0.541ZM0.591 0.537Q0.589 0.519 0.592 0.502Q0.595 0.484 0.586 0.467Q0.574 0.463 0.564 0.460Q0.554 0.456 0.546 0.454L0.541 0.455Q0.542 0.474 0.541 0.491Q0.540 0.508 0.543 0.522Q0.555 0.527 0.566 0.532Q0.576 0.536 0.586 0.541ZM0.327 0.448Q0.324 0.430 0.326 0.414Q0.328 0.398 0.324 0.381Q0.312 0.377 0.301 0.372Q0.290 0.368 0.279 0.364L0.274 0.367V0.430Q0.277 0.436 0.283 0.438Q0.293 0.440 0.302 0.444Q0.311 0.448 0.321 0.451ZM0.591 0.448V0.387L0.586 0.379Q0.576 0.376 0.566 0.372Q0.555 0.368 0.546 0.365L0.541 0.367V0.430Q0.545 0.437 0.549 0.438Q0.559 0.440 0.568 0.444Q0.577 0.448 0.586 0.451ZM0.327 0.359Q0.324 0.341 0.326 0.325Q0.328 0.309 0.324 0.292Q0.312 0.286 0.301 0.284Q0.290 0.282 0.279 0.275L0.274 0.279V0.343Q0.285 0.352 0.298 0.355Q0.312 0.358 0.322 0.364ZM0.591 0.359Q0.589 0.341 0.591 0.325Q0.593 0.309 0.588 0.292Q0.558 0.278 0.541 0.277V0.341L0.546 0.348Q0.573 0.358 0.586 0.364ZM0.327 0.271Q0.324 0.253 0.326 0.237Q0.328 0.221 0.324 0.204Q0.312 0.199 0.301 0.196Q0.290 0.192 0.279 0.187L0.274 0.190Q0.276 0.207 0.275 0.224Q0.273 0.241 0.276 0.257Q0.288 0.262 0.299 0.265Q0.310 0.268 0.321 0.274ZM0.591 0.271V0.210L0.586 0.202Q0.576 0.199 0.566 0.195Q0.555 0.191 0.546 0.188L0.541 0.190V0.254Q0.543 0.256 0.545 0.258Q0.547 0.260 0.549 0.261Q0.559 0.262 0.568 0.267Q0.577 0.271 0.586 0.274ZM0.333 0.190Q0.341 0.183 0.353 0.182Q0.364 0.181 0.373 0.175Q0.364 0.171 0.354 0.169Q0.345 0.167 0.336 0.163Q0.322 0.167 0.311 0.170Q0.301 0.173 0.296 0.177Q0.304 0.178 0.313 0.181Q0.322 0.185 0.333 0.190ZM0.591 0.183Q0.589 0.166 0.592 0.148Q0.595 0.130 0.586 0.113Q0.579 0.111 0.570 0.108Q0.560 0.105 0.546 0.101L0.541 0.102V0.166Q0.550 0.174 0.562 0.177Q0.575 0.180 0.585 0.185ZM0.400 0.168Q0.408 0.161 0.420 0.160Q0.433 0.159 0.439 0.151Q0.419 0.145 0.399 0.144Q0.380 0.143 0.361 0.153Q0.371 0.160 0.381 0.161Q0.390 0.162 0.400 0.168ZM0.599 0.101Q0.609 0.099 0.619 0.094Q0.630 0.089 0.639 0.086Q0.628 0.084 0.617 0.080Q0.607 0.076 0.599 0.073Q0.590 0.074 0.584 0.078Q0.578 0.081 0.572 0.081Q0.569 0.084 0.566 0.085Q0.562 0.085 0.560 0.086Q0.570 0.089 0.579 0.093Q0.588 0.098 0.599 0.101ZM0.665 0.080Q0.676 0.075 0.685 0.072Q0.694 0.068 0.703 0.064Q0.692 0.059 0.682 0.057Q0.673 0.055 0.663 0.051Q0.653 0.056 0.643 0.059Q0.632 0.062 0.627 0.066Q0.643 0.069 0.665 0.080Z" fill="black"/>
</svg>
