<svg xmlns="http://www.w3.org/2000/svg" viewBox="0 0 1 1" preserveAspectRatio="xMidYMid meet">
  <path d="M0.593 0.978Q0.526 0.950 0.461 0.931Q0.396 0.913 0.329 0.885Q0.326 0.865 0.327 0.845Q0.328 0.825 0.327 0.804L0.321 0.794Q0.298 0.789 0.263 0.774L0.260 0.769V0.053Q0.285 0.040 0.314 0.032Q0.343 0.024 0.370 0.038Q0.394 0.048 0.419 0.055Q0.445 0.062 0.470 0.072L0.473 0.077V0.322V0.783L0.480 0.789Q0.489 0.794 0.500 0.795Q0.511 0.796 0.522 0.804L0.525 0.802L0.528 0.797V0.141Q0.522 0.147 0.539 0.135Q0.556 0.133 0.574 0.124Q0.592 0.115 0.610 0.116Q0.637 0.127 0.668 0.138Q0.699 0.149 0.728 0.155Q0.737 0.160 0.738 0.163Q0.741 0.217 0.740 0.273Q0.738 0.328 0.740 0.386V0.882Q0.737 0.888 0.730 0.892Q0.718 0.892 0.705 0.898Q0.693 0.903 0.679 0.908L0.674 0.915V0.949L0.670 0.954Q0.651 0.959 0.633 0.967Q0.614 0.975 0.594 0.978H0.593ZM0.594 0.954Q0.591 0.936 0.593 0.920Q0.595 0.904 0.591 0.887Q0.578 0.881 0.567 0.879Q0.556 0.876 0.545 0.871L0.540 0.874Q0.543 0.892 0.541 0.909Q0.539 0.925 0.544 0.941Q0.556 0.947 0.567 0.950Q0.578 0.953 0.589 0.959ZM0.526 0.934Q0.524 0.916 0.526 0.898Q0.529 0.880 0.522 0.863Q0.501 0.856 0.480 0.851L0.475 0.852Q0.476 0.870 0.475 0.887Q0.473 0.903 0.476 0.919Q0.488 0.924 0.499 0.928Q0.511 0.932 0.522 0.936ZM0.459 0.913V0.849L0.454 0.840Q0.444 0.835 0.432 0.833Q0.421 0.831 0.412 0.826L0.408 0.829Q0.408 0.848 0.408 0.864Q0.407 0.881 0.409 0.896Q0.421 0.902 0.432 0.905Q0.444 0.909 0.454 0.915ZM0.393 0.888V0.828L0.388 0.819Q0.374 0.816 0.362 0.810Q0.349 0.805 0.340 0.805V0.869L0.344 0.876Q0.355 0.880 0.366 0.883Q0.377 0.886 0.387 0.892ZM0.660 0.888Q0.658 0.871 0.659 0.854Q0.660 0.837 0.658 0.821Q0.646 0.815 0.635 0.812Q0.623 0.809 0.613 0.804L0.608 0.807Q0.609 0.825 0.608 0.842Q0.607 0.859 0.610 0.874Q0.621 0.880 0.633 0.883Q0.644 0.886 0.655 0.892ZM0.594 0.868Q0.591 0.850 0.593 0.832Q0.595 0.814 0.591 0.797Q0.577 0.793 0.566 0.789Q0.554 0.785 0.545 0.780L0.540 0.785Q0.542 0.803 0.541 0.820Q0.539 0.836 0.542 0.852Q0.554 0.858 0.566 0.860Q0.577 0.862 0.588 0.869ZM0.526 0.843Q0.525 0.839 0.526 0.835Q0.527 0.831 0.525 0.828Q0.516 0.830 0.507 0.832Q0.497 0.833 0.492 0.837Q0.499 0.839 0.508 0.841Q0.516 0.843 0.522 0.847ZM0.467 0.829Q0.475 0.822 0.486 0.820Q0.497 0.818 0.508 0.814Q0.497 0.810 0.489 0.808Q0.481 0.807 0.473 0.802Q0.461 0.802 0.451 0.806Q0.441 0.810 0.429 0.813L0.428 0.816Q0.436 0.817 0.446 0.821Q0.456 0.824 0.467 0.829ZM0.393 0.800Q0.390 0.783 0.392 0.764Q0.395 0.746 0.388 0.730Q0.378 0.725 0.367 0.722Q0.356 0.720 0.346 0.715L0.340 0.716V0.780Q0.344 0.788 0.348 0.789Q0.363 0.790 0.387 0.802ZM0.660 0.800Q0.657 0.783 0.659 0.764Q0.661 0.746 0.657 0.730Q0.645 0.727 0.633 0.722Q0.621 0.717 0.615 0.715L0.608 0.716V0.780L0.613 0.788Q0.623 0.792 0.634 0.794Q0.645 0.797 0.655 0.802ZM0.594 0.776Q0.591 0.758 0.593 0.742Q0.595 0.726 0.591 0.708Q0.578 0.702 0.567 0.700Q0.556 0.697 0.545 0.692L0.540 0.696V0.760Q0.550 0.769 0.565 0.771Q0.580 0.773 0.589 0.780ZM0.325 0.777V0.713L0.321 0.706Q0.309 0.703 0.299 0.700Q0.288 0.696 0.279 0.694L0.274 0.696V0.760Q0.283 0.767 0.296 0.771Q0.308 0.774 0.320 0.779ZM0.393 0.710Q0.390 0.692 0.392 0.674Q0.395 0.657 0.388 0.640Q0.374 0.637 0.362 0.632Q0.349 0.627 0.340 0.627V0.691Q0.344 0.698 0.348 0.699Q0.358 0.700 0.367 0.705Q0.377 0.709 0.387 0.713ZM0.660 0.711V0.647L0.655 0.640Q0.629 0.634 0.613 0.625L0.608 0.628Q0.609 0.646 0.608 0.664Q0.607 0.681 0.610 0.696Q0.621 0.702 0.633 0.705Q0.644 0.707 0.655 0.713ZM0.325 0.688V0.627L0.321 0.619Q0.305 0.612 0.279 0.604L0.274 0.606V0.670L0.279 0.677Q0.289 0.678 0.300 0.683Q0.310 0.688 0.321 0.691ZM0.594 0.688V0.627L0.589 0.619Q0.576 0.616 0.563 0.610Q0.550 0.604 0.540 0.604V0.669L0.545 0.675Q0.556 0.680 0.567 0.682Q0.578 0.685 0.588 0.691ZM0.393 0.619V0.557L0.388 0.551Q0.378 0.547 0.367 0.544Q0.356 0.541 0.346 0.537L0.340 0.539V0.603Q0.344 0.610 0.348 0.611Q0.363 0.612 0.387 0.623ZM0.660 0.620V0.559L0.655 0.551Q0.644 0.548 0.633 0.544Q0.622 0.540 0.613 0.537L0.608 0.539V0.603Q0.613 0.610 0.616 0.611Q0.626 0.612 0.636 0.616Q0.646 0.620 0.655 0.623ZM0.325 0.599Q0.323 0.581 0.325 0.564Q0.328 0.546 0.321 0.528Q0.309 0.524 0.299 0.522Q0.288 0.519 0.279 0.514L0.274 0.517V0.581Q0.283 0.590 0.296 0.593Q0.308 0.596 0.320 0.601ZM0.594 0.599Q0.591 0.581 0.593 0.564Q0.596 0.546 0.589 0.528Q0.578 0.524 0.567 0.522Q0.556 0.519 0.547 0.514L0.540 0.515V0.580Q0.544 0.586 0.549 0.588Q0.564 0.590 0.588 0.601ZM0.393 0.530Q0.390 0.513 0.392 0.496Q0.394 0.480 0.390 0.462Q0.378 0.458 0.366 0.455Q0.355 0.452 0.344 0.447L0.340 0.449V0.514Q0.350 0.523 0.364 0.526Q0.378 0.529 0.388 0.535ZM0.660 0.532V0.467L0.653 0.459Q0.641 0.458 0.629 0.453Q0.617 0.448 0.608 0.448V0.512L0.613 0.518Q0.623 0.524 0.634 0.527Q0.645 0.529 0.655 0.535ZM0.325 0.509Q0.323 0.492 0.325 0.474Q0.328 0.455 0.321 0.439Q0.309 0.436 0.299 0.432Q0.288 0.428 0.279 0.426L0.274 0.428Q0.276 0.446 0.274 0.463Q0.273 0.480 0.276 0.495Q0.298 0.505 0.321 0.512ZM0.594 0.509Q0.591 0.492 0.593 0.474Q0.596 0.455 0.589 0.439Q0.576 0.436 0.563 0.431Q0.550 0.426 0.540 0.426V0.491Q0.546 0.497 0.549 0.498Q0.559 0.499 0.569 0.504Q0.578 0.509 0.588 0.512ZM0.393 0.443Q0.390 0.426 0.392 0.408Q0.395 0.389 0.388 0.373Q0.378 0.368 0.367 0.365Q0.356 0.363 0.346 0.359L0.340 0.360V0.424Q0.343 0.430 0.348 0.432Q0.356 0.433 0.366 0.436Q0.376 0.440 0.387 0.445ZM0.660 0.442V0.381L0.655 0.373Q0.644 0.369 0.633 0.365Q0.622 0.362 0.613 0.357L0.608 0.360V0.424Q0.612 0.431 0.616 0.432Q0.627 0.434 0.636 0.438Q0.645 0.442 0.655 0.445ZM0.325 0.421Q0.323 0.403 0.325 0.385Q0.328 0.367 0.321 0.351Q0.309 0.347 0.299 0.342Q0.288 0.338 0.279 0.336L0.274 0.337V0.401L0.279 0.408Q0.289 0.413 0.300 0.415Q0.310 0.417 0.321 0.423ZM0.594 0.418V0.357L0.589 0.351Q0.578 0.346 0.567 0.343Q0.556 0.341 0.547 0.336L0.540 0.337V0.401Q0.545 0.409 0.549 0.410Q0.565 0.411 0.588 0.423ZM0.393 0.352Q0.390 0.334 0.392 0.318Q0.394 0.301 0.390 0.285Q0.378 0.278 0.366 0.276Q0.355 0.274 0.344 0.268L0.340 0.271V0.336Q0.350 0.345 0.364 0.348Q0.378 0.351 0.388 0.357ZM0.660 0.356V0.291L0.655 0.283Q0.644 0.278 0.633 0.276Q0.622 0.274 0.613 0.268L0.608 0.271V0.336Q0.619 0.345 0.632 0.348Q0.645 0.351 0.657 0.357ZM0.325 0.331Q0.323 0.313 0.325 0.295Q0.328 0.277 0.321 0.260Q0.309 0.258 0.299 0.254Q0.288 0.250 0.279 0.248L0.274 0.249Q0.276 0.267 0.274 0.284Q0.273 0.301 0.276 0.317Q0.299 0.324 0.321 0.334ZM0.594 0.331Q0.591 0.313 0.593 0.295Q0.596 0.277 0.589 0.260Q0.576 0.258 0.563 0.253Q0.550 0.248 0.540 0.248V0.312Q0.545 0.319 0.549 0.320Q0.559 0.321 0.569 0.326Q0.578 0.331 0.588 0.334ZM0.393 0.263V0.202L0.388 0.195Q0.378 0.190 0.367 0.187Q0.356 0.184 0.346 0.180L0.340 0.182Q0.341 0.199 0.340 0.216Q0.339 0.234 0.342 0.249Q0.353 0.255 0.364 0.257Q0.376 0.259 0.387 0.266ZM0.660 0.263V0.202L0.655 0.195Q0.644 0.191 0.633 0.188Q0.622 0.184 0.613 0.178L0.608 0.182Q0.609 0.199 0.608 0.216Q0.607 0.234 0.610 0.249Q0.621 0.255 0.633 0.258Q0.644 0.260 0.655 0.266ZM0.325 0.241V0.180L0.321 0.172Q0.309 0.169 0.299 0.165Q0.288 0.161 0.279 0.158L0.274 0.159V0.224Q0.277 0.230 0.282 0.232Q0.292 0.233 0.301 0.237Q0.310 0.241 0.321 0.244ZM0.594 0.243Q0.591 0.225 0.593 0.207Q0.596 0.189 0.589 0.172Q0.578 0.168 0.567 0.165Q0.556 0.162 0.547 0.158L0.540 0.159V0.224Q0.545 0.231 0.549 0.232Q0.565 0.233 0.588 0.244ZM0.667 0.182Q0.676 0.174 0.686 0.174Q0.698 0.174 0.708 0.167Q0.698 0.163 0.689 0.160Q0.679 0.158 0.670 0.154Q0.642 0.161 0.629 0.169Q0.644 0.170 0.667 0.182ZM0.393 0.174Q0.390 0.155 0.392 0.139Q0.394 0.123 0.390 0.107Q0.378 0.101 0.366 0.098Q0.355 0.095 0.344 0.089L0.340 0.093Q0.343 0.111 0.340 0.128Q0.338 0.144 0.344 0.161Q0.355 0.167 0.366 0.170Q0.378 0.173 0.388 0.178ZM0.600 0.159Q0.611 0.153 0.621 0.151Q0.631 0.149 0.641 0.145Q0.599 0.126 0.561 0.145Q0.573 0.149 0.582 0.152Q0.591 0.154 0.600 0.159ZM0.325 0.152Q0.323 0.134 0.325 0.116Q0.328 0.099 0.321 0.082Q0.309 0.077 0.299 0.075Q0.288 0.072 0.279 0.069L0.274 0.070Q0.276 0.089 0.274 0.106Q0.273 0.123 0.276 0.138Q0.298 0.148 0.321 0.155ZM0.400 0.091Q0.410 0.087 0.419 0.085Q0.428 0.082 0.438 0.077Q0.427 0.072 0.418 0.070Q0.408 0.068 0.398 0.064Q0.388 0.069 0.377 0.072Q0.366 0.075 0.361 0.078Q0.371 0.080 0.381 0.085Q0.390 0.089 0.400 0.091ZM0.334 0.069Q0.343 0.063 0.354 0.062Q0.365 0.061 0.372 0.053Q0.366 0.052 0.357 0.049Q0.347 0.047 0.334 0.042Q0.323 0.048 0.312 0.050Q0.301 0.052 0.293 0.056Q0.303 0.059 0.313 0.062Q0.323 0.066 0.332 0.069Z" fill="black"/>
</svg>
