<svg xmlns="http://www.w3.org/2000/svg" viewBox="0 0 1 1" preserveAspectRatio="xMidYMid meet">
  <path d="M0.458 0.958Q0.443 0.953 0.427 0.949Q0.411 0.944 0.395 0.935V0.899L0.391 0.894Q0.380 0.884 0.363 0.882Q0.346 0.879 0.331 0.872L0.328 0.867Q0.326 0.857 0.327 0.847Q0.329 0.836 0.325 0.825Q0.310 0.819 0.294 0.816Q0.279 0.812 0.264 0.805Q0.261 0.647 0.262 0.491Q0.263 0.335 0.262 0.256Q0.262 0.177 0.273 0.169Q0.322 0.157 0.372 0.138Q0.420 0.119 0.471 0.152Q0.473 0.272 0.472 0.391Q0.471 0.509 0.472 0.629Q0.473 0.654 0.472 0.679Q0.470 0.703 0.477 0.724Q0.487 0.718 0.499 0.715Q0.510 0.711 0.522 0.707Q0.529 0.552 0.527 0.398Q0.524 0.245 0.527 0.089Q0.527 0.088 0.537 0.081Q0.563 0.074 0.587 0.067Q0.611 0.059 0.636 0.050Q0.684 0.030 0.735 0.063L0.738 0.068V0.686Q0.723 0.696 0.707 0.702Q0.692 0.707 0.676 0.715L0.671 0.722V0.798Q0.666 0.807 0.661 0.809Q0.627 0.817 0.609 0.825L0.604 0.831V0.912L0.601 0.916Q0.567 0.926 0.532 0.940Q0.497 0.953 0.461 0.958H0.458ZM0.460 0.940V0.882L0.457 0.878Q0.445 0.881 0.434 0.886Q0.422 0.890 0.412 0.892L0.407 0.898V0.921Q0.412 0.928 0.415 0.929Q0.426 0.930 0.435 0.934Q0.444 0.939 0.454 0.941ZM0.393 0.873V0.815L0.390 0.811Q0.378 0.818 0.364 0.820Q0.351 0.822 0.342 0.830Q0.343 0.837 0.342 0.845Q0.341 0.852 0.343 0.859Q0.355 0.864 0.366 0.868Q0.378 0.872 0.388 0.876ZM0.326 0.806V0.746L0.321 0.738Q0.311 0.734 0.300 0.730Q0.289 0.726 0.280 0.724L0.275 0.725V0.789Q0.280 0.796 0.283 0.797Q0.293 0.798 0.302 0.802Q0.312 0.806 0.321 0.809ZM0.477 0.764Q0.484 0.760 0.491 0.759Q0.499 0.758 0.505 0.755Q0.497 0.753 0.491 0.750Q0.486 0.747 0.480 0.746L0.474 0.747Q0.475 0.752 0.474 0.757Q0.473 0.761 0.475 0.764ZM0.533 0.747Q0.541 0.741 0.552 0.739Q0.564 0.737 0.573 0.733Q0.564 0.728 0.554 0.726Q0.544 0.724 0.536 0.720Q0.521 0.724 0.510 0.727Q0.500 0.730 0.495 0.734Q0.503 0.735 0.512 0.738Q0.522 0.742 0.533 0.747ZM0.326 0.720V0.657L0.321 0.648Q0.311 0.643 0.300 0.642Q0.289 0.640 0.280 0.634L0.275 0.637V0.701Q0.285 0.709 0.298 0.712Q0.312 0.715 0.323 0.722ZM0.589 0.722Q0.594 0.703 0.593 0.688Q0.591 0.672 0.592 0.654L0.587 0.648Q0.577 0.643 0.566 0.641Q0.556 0.639 0.546 0.635L0.541 0.637Q0.542 0.655 0.541 0.672Q0.540 0.689 0.542 0.703Q0.554 0.709 0.566 0.712Q0.577 0.715 0.587 0.722ZM0.326 0.629V0.568L0.321 0.560Q0.311 0.557 0.300 0.553Q0.289 0.550 0.280 0.545L0.275 0.548V0.612L0.280 0.618Q0.290 0.619 0.301 0.624Q0.312 0.629 0.321 0.632ZM0.592 0.628Q0.590 0.610 0.592 0.593Q0.594 0.577 0.589 0.560Q0.576 0.558 0.565 0.552Q0.553 0.546 0.541 0.546Q0.543 0.564 0.541 0.582Q0.539 0.600 0.544 0.617Q0.554 0.620 0.565 0.623Q0.576 0.626 0.586 0.632ZM0.326 0.542Q0.324 0.523 0.325 0.506Q0.327 0.488 0.323 0.472Q0.312 0.470 0.300 0.464Q0.288 0.459 0.281 0.457L0.275 0.458V0.522L0.280 0.528Q0.290 0.534 0.301 0.536Q0.312 0.539 0.321 0.543ZM0.592 0.540Q0.590 0.522 0.592 0.506Q0.594 0.490 0.589 0.473Q0.579 0.470 0.568 0.465Q0.558 0.461 0.549 0.458H0.541V0.525Q0.550 0.532 0.563 0.534Q0.575 0.537 0.586 0.543ZM0.326 0.452Q0.325 0.434 0.326 0.418Q0.327 0.401 0.325 0.385Q0.313 0.379 0.301 0.377Q0.290 0.374 0.280 0.368L0.275 0.371Q0.276 0.389 0.275 0.406Q0.274 0.423 0.277 0.438Q0.288 0.443 0.299 0.447Q0.311 0.450 0.321 0.455ZM0.592 0.452V0.391L0.587 0.384Q0.566 0.373 0.546 0.369L0.541 0.371V0.434L0.546 0.441Q0.557 0.443 0.567 0.448Q0.578 0.452 0.587 0.455ZM0.326 0.365Q0.324 0.347 0.325 0.329Q0.327 0.311 0.323 0.295Q0.310 0.292 0.298 0.287Q0.286 0.282 0.275 0.282V0.346L0.280 0.352Q0.290 0.357 0.301 0.359Q0.312 0.361 0.321 0.366ZM0.592 0.363Q0.590 0.345 0.592 0.329Q0.594 0.313 0.589 0.296Q0.576 0.292 0.565 0.287Q0.553 0.282 0.541 0.282V0.349Q0.550 0.356 0.563 0.357Q0.575 0.359 0.586 0.366ZM0.326 0.275Q0.324 0.257 0.326 0.239Q0.328 0.222 0.321 0.205Q0.310 0.203 0.300 0.200Q0.290 0.196 0.280 0.191L0.275 0.194Q0.276 0.212 0.275 0.229Q0.274 0.246 0.277 0.260Q0.288 0.265 0.299 0.270Q0.311 0.274 0.321 0.278ZM0.592 0.275Q0.590 0.257 0.592 0.239Q0.594 0.222 0.587 0.205Q0.577 0.203 0.566 0.199Q0.556 0.195 0.546 0.193L0.541 0.194Q0.542 0.212 0.541 0.229Q0.540 0.246 0.542 0.260Q0.554 0.265 0.566 0.270Q0.577 0.274 0.587 0.278ZM0.334 0.194Q0.342 0.187 0.353 0.185Q0.364 0.183 0.374 0.180Q0.364 0.175 0.356 0.173Q0.348 0.172 0.340 0.167Q0.329 0.169 0.316 0.171Q0.303 0.174 0.295 0.181Q0.303 0.182 0.313 0.185Q0.323 0.189 0.334 0.194ZM0.592 0.186Q0.590 0.169 0.592 0.152Q0.594 0.136 0.589 0.119Q0.576 0.116 0.565 0.109Q0.553 0.103 0.541 0.103V0.170Q0.550 0.179 0.563 0.180Q0.575 0.182 0.586 0.189ZM0.401 0.172Q0.408 0.166 0.418 0.164Q0.427 0.162 0.436 0.159L0.440 0.155Q0.420 0.150 0.400 0.148Q0.379 0.145 0.362 0.159Q0.373 0.161 0.382 0.165Q0.391 0.169 0.401 0.172ZM0.599 0.105Q0.609 0.102 0.619 0.098Q0.629 0.095 0.639 0.090Q0.628 0.084 0.618 0.083Q0.607 0.081 0.599 0.077Q0.594 0.081 0.590 0.082Q0.586 0.082 0.582 0.084Q0.577 0.082 0.571 0.086Q0.565 0.090 0.561 0.090Q0.571 0.093 0.580 0.098Q0.589 0.102 0.599 0.105ZM0.665 0.082Q0.674 0.077 0.686 0.076Q0.697 0.074 0.704 0.067Q0.693 0.067 0.683 0.062Q0.673 0.057 0.665 0.055Q0.658 0.057 0.652 0.060Q0.646 0.063 0.640 0.063Q0.636 0.066 0.633 0.067Q0.630 0.067 0.628 0.068Q0.638 0.071 0.647 0.076Q0.656 0.080 0.665 0.082Z" fill="black"/>
</svg>
