<svg xmlns="http://www.w3.org/2000/svg" viewBox="0 0 1 1" preserveAspectRatio="xMidYMid meet">
  <path d="M0.524 0.956Q0.493 0.944 0.461 0.934Q0.429 0.924 0.396 0.911Q0.393 0.890 0.394 0.870Q0.395 0.851 0.394 0.829Q0.392 0.822 0.385 0.817Q0.366 0.814 0.330 0.800L0.327 0.795V0.714L0.322 0.709Q0.304 0.702 0.289 0.697Q0.273 0.692 0.261 0.689Q0.258 0.530 0.260 0.373Q0.261 0.216 0.259 0.056Q0.285 0.045 0.314 0.036Q0.342 0.026 0.371 0.040Q0.396 0.050 0.421 0.057Q0.445 0.065 0.472 0.075Q0.474 0.154 0.473 0.234Q0.472 0.314 0.474 0.393V0.697Q0.481 0.704 0.495 0.708Q0.510 0.711 0.521 0.716L0.526 0.713Q0.528 0.571 0.527 0.429Q0.526 0.288 0.528 0.144Q0.541 0.139 0.554 0.134Q0.567 0.128 0.581 0.124Q0.596 0.121 0.610 0.122Q0.625 0.123 0.639 0.130Q0.663 0.138 0.688 0.146Q0.713 0.153 0.739 0.164Q0.741 0.283 0.740 0.399Q0.739 0.516 0.741 0.636V0.795Q0.738 0.801 0.731 0.805Q0.716 0.807 0.704 0.811Q0.691 0.816 0.679 0.821L0.674 0.827V0.863L0.671 0.868Q0.658 0.873 0.642 0.877Q0.627 0.880 0.614 0.886Q0.613 0.886 0.607 0.896V0.932Q0.609 0.930 0.596 0.938Q0.578 0.941 0.562 0.949Q0.546 0.957 0.528 0.956H0.524ZM0.526 0.935Q0.523 0.917 0.525 0.900Q0.527 0.884 0.523 0.868Q0.512 0.864 0.502 0.860Q0.492 0.856 0.483 0.853H0.475V0.921Q0.485 0.927 0.497 0.929Q0.509 0.932 0.520 0.938ZM0.459 0.916V0.852L0.454 0.843Q0.443 0.838 0.432 0.836Q0.422 0.834 0.413 0.829L0.408 0.831V0.896Q0.418 0.905 0.431 0.909Q0.445 0.912 0.455 0.917ZM0.595 0.869Q0.591 0.852 0.594 0.833Q0.597 0.815 0.589 0.798Q0.576 0.796 0.564 0.791Q0.551 0.786 0.541 0.786V0.851L0.546 0.856Q0.556 0.861 0.567 0.864Q0.577 0.867 0.587 0.873ZM0.526 0.847V0.786L0.521 0.777Q0.498 0.767 0.480 0.763L0.475 0.764V0.829L0.480 0.835Q0.491 0.836 0.502 0.841Q0.512 0.847 0.521 0.851ZM0.459 0.824V0.763L0.454 0.755Q0.443 0.751 0.432 0.747Q0.422 0.744 0.413 0.739L0.408 0.742V0.807L0.413 0.813Q0.423 0.814 0.433 0.819Q0.444 0.824 0.454 0.827ZM0.393 0.800V0.739L0.388 0.733Q0.377 0.728 0.366 0.725Q0.356 0.723 0.347 0.718L0.340 0.720Q0.341 0.738 0.340 0.755Q0.339 0.771 0.342 0.788L0.348 0.792Q0.363 0.793 0.386 0.805ZM0.660 0.802V0.741L0.655 0.733Q0.643 0.729 0.633 0.725Q0.622 0.721 0.614 0.718L0.609 0.720V0.784Q0.612 0.789 0.617 0.792Q0.627 0.793 0.636 0.797Q0.645 0.802 0.655 0.805ZM0.595 0.777V0.716L0.589 0.709Q0.578 0.705 0.568 0.702Q0.557 0.699 0.548 0.695L0.541 0.697V0.761Q0.544 0.767 0.549 0.769Q0.564 0.770 0.587 0.783ZM0.526 0.757Q0.525 0.752 0.526 0.748Q0.527 0.745 0.524 0.741H0.520Q0.512 0.743 0.506 0.746Q0.500 0.749 0.494 0.750Q0.501 0.751 0.508 0.755Q0.514 0.758 0.520 0.760ZM0.467 0.742Q0.476 0.736 0.487 0.734Q0.498 0.732 0.507 0.728Q0.461 0.706 0.428 0.729Q0.436 0.730 0.446 0.733Q0.456 0.737 0.467 0.742ZM0.393 0.711Q0.390 0.694 0.392 0.678Q0.394 0.662 0.390 0.644Q0.378 0.638 0.367 0.636Q0.356 0.634 0.345 0.628L0.340 0.631V0.695Q0.351 0.704 0.364 0.707Q0.377 0.710 0.388 0.716ZM0.660 0.714V0.650L0.655 0.642Q0.643 0.638 0.633 0.636Q0.622 0.634 0.614 0.628L0.609 0.631V0.695Q0.619 0.704 0.632 0.707Q0.645 0.710 0.657 0.716ZM0.325 0.690Q0.323 0.673 0.326 0.655Q0.328 0.637 0.321 0.620Q0.310 0.617 0.299 0.613Q0.289 0.610 0.279 0.608L0.274 0.609Q0.275 0.627 0.274 0.644Q0.273 0.662 0.275 0.676Q0.288 0.681 0.299 0.685Q0.310 0.689 0.321 0.694ZM0.595 0.689Q0.591 0.672 0.593 0.655Q0.596 0.639 0.590 0.622Q0.578 0.618 0.567 0.615Q0.556 0.612 0.546 0.606L0.541 0.609V0.673Q0.552 0.682 0.565 0.685Q0.578 0.688 0.589 0.694ZM0.393 0.623Q0.390 0.606 0.392 0.589Q0.394 0.573 0.390 0.556Q0.378 0.552 0.367 0.547Q0.356 0.543 0.345 0.538L0.340 0.541Q0.341 0.559 0.340 0.576Q0.339 0.593 0.342 0.609Q0.354 0.615 0.365 0.617Q0.376 0.619 0.386 0.626ZM0.660 0.623V0.562L0.655 0.554Q0.626 0.546 0.614 0.538L0.609 0.541V0.606L0.614 0.612Q0.624 0.614 0.635 0.618Q0.645 0.623 0.655 0.626ZM0.325 0.602Q0.323 0.584 0.325 0.567Q0.327 0.549 0.322 0.532Q0.309 0.529 0.298 0.523Q0.287 0.517 0.274 0.517V0.584Q0.284 0.592 0.296 0.595Q0.308 0.597 0.319 0.604ZM0.595 0.602Q0.591 0.584 0.594 0.567Q0.597 0.549 0.589 0.532Q0.578 0.527 0.568 0.524Q0.557 0.521 0.548 0.517L0.541 0.518V0.582Q0.544 0.588 0.549 0.591Q0.568 0.593 0.587 0.604ZM0.393 0.534Q0.390 0.515 0.392 0.499Q0.394 0.483 0.390 0.466Q0.378 0.460 0.367 0.457Q0.356 0.454 0.345 0.449L0.340 0.452V0.517Q0.350 0.527 0.364 0.529Q0.379 0.532 0.388 0.538ZM0.660 0.535Q0.658 0.516 0.659 0.498Q0.661 0.481 0.657 0.464Q0.645 0.462 0.634 0.457Q0.622 0.452 0.615 0.449L0.609 0.451V0.515L0.614 0.522Q0.624 0.527 0.635 0.530Q0.645 0.533 0.655 0.537ZM0.325 0.512Q0.323 0.494 0.326 0.476Q0.328 0.458 0.321 0.441Q0.310 0.437 0.299 0.435Q0.289 0.433 0.279 0.429L0.274 0.430Q0.275 0.449 0.274 0.466Q0.273 0.483 0.275 0.498Q0.288 0.503 0.299 0.507Q0.310 0.511 0.321 0.515ZM0.595 0.511Q0.591 0.493 0.593 0.477Q0.596 0.460 0.590 0.443Q0.578 0.437 0.567 0.435Q0.556 0.433 0.546 0.428L0.541 0.430V0.495Q0.552 0.503 0.565 0.507Q0.578 0.510 0.589 0.515ZM0.393 0.443Q0.390 0.426 0.392 0.409Q0.394 0.392 0.390 0.376Q0.378 0.371 0.367 0.368Q0.356 0.366 0.345 0.360L0.340 0.364Q0.341 0.381 0.340 0.398Q0.339 0.415 0.342 0.430Q0.354 0.436 0.365 0.439Q0.376 0.442 0.386 0.448ZM0.660 0.445Q0.659 0.427 0.660 0.410Q0.661 0.393 0.659 0.377Q0.646 0.371 0.635 0.368Q0.624 0.366 0.614 0.360L0.609 0.364Q0.610 0.381 0.609 0.398Q0.608 0.415 0.610 0.430Q0.622 0.435 0.633 0.439Q0.643 0.443 0.655 0.448ZM0.325 0.421Q0.323 0.403 0.325 0.387Q0.327 0.370 0.322 0.354Q0.309 0.351 0.298 0.345Q0.287 0.339 0.274 0.339Q0.276 0.358 0.274 0.376Q0.272 0.393 0.277 0.410Q0.288 0.414 0.298 0.417Q0.309 0.420 0.319 0.426ZM0.595 0.423Q0.591 0.404 0.593 0.388Q0.596 0.372 0.590 0.355Q0.578 0.351 0.567 0.347Q0.556 0.342 0.546 0.337L0.541 0.340Q0.542 0.359 0.541 0.376Q0.540 0.392 0.543 0.408Q0.555 0.414 0.566 0.416Q0.576 0.419 0.587 0.426ZM0.393 0.357Q0.390 0.338 0.393 0.321Q0.395 0.303 0.388 0.286Q0.377 0.282 0.366 0.279Q0.356 0.276 0.347 0.271L0.340 0.273V0.337Q0.341 0.342 0.348 0.345Q0.365 0.348 0.386 0.359ZM0.660 0.357Q0.658 0.338 0.659 0.321Q0.661 0.303 0.657 0.286Q0.643 0.284 0.632 0.278Q0.620 0.273 0.609 0.273V0.337L0.614 0.343Q0.624 0.349 0.635 0.351Q0.645 0.353 0.655 0.359ZM0.595 0.332Q0.591 0.315 0.593 0.298Q0.596 0.282 0.590 0.265Q0.578 0.259 0.567 0.257Q0.556 0.254 0.546 0.249L0.541 0.252V0.316Q0.552 0.325 0.565 0.328Q0.578 0.331 0.589 0.337ZM0.325 0.332Q0.323 0.315 0.325 0.298Q0.327 0.282 0.322 0.265Q0.309 0.260 0.298 0.256Q0.287 0.252 0.274 0.251V0.318Q0.284 0.324 0.296 0.327Q0.308 0.329 0.319 0.335ZM0.393 0.266Q0.390 0.249 0.393 0.231Q0.395 0.213 0.388 0.195Q0.375 0.194 0.362 0.189Q0.350 0.183 0.340 0.183V0.247L0.345 0.254Q0.356 0.259 0.366 0.262Q0.377 0.264 0.386 0.270ZM0.660 0.266Q0.658 0.249 0.660 0.231Q0.662 0.213 0.655 0.195Q0.644 0.193 0.634 0.190Q0.623 0.186 0.614 0.181L0.609 0.185Q0.610 0.202 0.609 0.220Q0.608 0.237 0.610 0.252Q0.622 0.257 0.633 0.261Q0.643 0.265 0.655 0.270ZM0.325 0.244Q0.323 0.226 0.326 0.208Q0.328 0.190 0.321 0.174Q0.310 0.173 0.299 0.167Q0.289 0.162 0.279 0.161L0.274 0.162V0.227L0.279 0.233Q0.290 0.235 0.300 0.239Q0.311 0.244 0.321 0.247ZM0.595 0.242Q0.591 0.225 0.593 0.208Q0.596 0.192 0.590 0.175Q0.578 0.171 0.567 0.167Q0.556 0.164 0.546 0.159L0.541 0.162Q0.542 0.180 0.541 0.197Q0.540 0.214 0.543 0.230Q0.555 0.236 0.566 0.238Q0.576 0.241 0.587 0.247ZM0.668 0.185Q0.676 0.177 0.687 0.175Q0.698 0.174 0.707 0.171Q0.698 0.166 0.690 0.164Q0.682 0.163 0.674 0.158Q0.663 0.159 0.650 0.162Q0.637 0.165 0.629 0.172Q0.637 0.173 0.647 0.176Q0.657 0.180 0.668 0.185ZM0.393 0.178Q0.390 0.161 0.393 0.143Q0.395 0.125 0.388 0.108Q0.377 0.103 0.366 0.100Q0.356 0.098 0.347 0.092L0.340 0.095V0.159Q0.342 0.165 0.348 0.167Q0.367 0.170 0.386 0.180ZM0.601 0.162Q0.612 0.157 0.622 0.153Q0.632 0.149 0.640 0.147Q0.630 0.143 0.622 0.141Q0.615 0.139 0.607 0.135Q0.595 0.133 0.583 0.139Q0.572 0.145 0.562 0.147Q0.570 0.149 0.580 0.153Q0.589 0.157 0.601 0.162ZM0.325 0.153Q0.323 0.136 0.325 0.120Q0.327 0.104 0.322 0.086Q0.309 0.083 0.298 0.077Q0.287 0.071 0.274 0.072V0.139Q0.284 0.147 0.296 0.149Q0.308 0.150 0.319 0.158ZM0.399 0.095Q0.410 0.089 0.420 0.087Q0.430 0.084 0.440 0.080Q0.398 0.061 0.361 0.080Q0.371 0.084 0.380 0.088Q0.389 0.091 0.399 0.095ZM0.332 0.072Q0.342 0.068 0.353 0.066Q0.363 0.063 0.372 0.058Q0.362 0.053 0.352 0.051Q0.341 0.049 0.332 0.045Q0.324 0.047 0.318 0.050Q0.312 0.053 0.306 0.053Q0.303 0.056 0.299 0.056Q0.296 0.057 0.294 0.058Q0.304 0.062 0.313 0.065Q0.322 0.068 0.332 0.072Z" fill="black"/>
</svg>
