<svg xmlns="http://www.w3.org/2000/svg" viewBox="0 0 1 1" preserveAspectRatio="xMidYMid meet">
  <path d="M0.390 0.976Q0.376 0.968 0.361 0.965Q0.346 0.961 0.330 0.953Q0.326 0.942 0.329 0.931Q0.331 0.921 0.324 0.909Q0.309 0.901 0.294 0.898Q0.278 0.894 0.263 0.886Q0.260 0.707 0.262 0.529Q0.263 0.351 0.262 0.171Q0.325 0.132 0.384 0.160Q0.388 0.163 0.393 0.164Q0.397 0.165 0.404 0.168L0.408 0.173V0.379L0.412 0.383Q0.434 0.377 0.456 0.370Q0.479 0.363 0.501 0.355Q0.545 0.338 0.591 0.359Q0.595 0.319 0.593 0.278Q0.591 0.237 0.593 0.196V0.061Q0.619 0.049 0.647 0.040Q0.676 0.030 0.703 0.045Q0.710 0.048 0.718 0.050Q0.727 0.053 0.735 0.057L0.739 0.062V0.772Q0.709 0.790 0.683 0.794L0.676 0.797L0.672 0.804V0.883L0.669 0.888Q0.652 0.894 0.637 0.898Q0.621 0.902 0.605 0.911Q0.586 0.909 0.569 0.901Q0.551 0.893 0.532 0.888L0.528 0.883V0.854L0.521 0.849Q0.511 0.853 0.500 0.855Q0.489 0.858 0.477 0.864L0.472 0.871V0.950Q0.468 0.950 0.467 0.953Q0.465 0.956 0.461 0.957Q0.444 0.960 0.427 0.968Q0.411 0.976 0.394 0.976H0.390ZM0.392 0.955V0.897L0.389 0.892Q0.376 0.898 0.365 0.902Q0.354 0.905 0.341 0.912V0.937L0.346 0.943Q0.357 0.947 0.367 0.950Q0.378 0.953 0.387 0.957ZM0.327 0.889V0.825Q0.325 0.823 0.323 0.821Q0.321 0.819 0.319 0.818Q0.307 0.816 0.295 0.811Q0.284 0.807 0.274 0.807V0.871L0.279 0.876Q0.290 0.881 0.300 0.884Q0.311 0.886 0.321 0.892ZM0.591 0.889Q0.590 0.874 0.591 0.859Q0.592 0.843 0.590 0.829H0.585Q0.580 0.832 0.576 0.832Q0.573 0.832 0.569 0.835Q0.554 0.838 0.541 0.847Q0.542 0.854 0.541 0.861Q0.540 0.868 0.543 0.875Q0.554 0.880 0.565 0.884Q0.576 0.888 0.587 0.892ZM0.327 0.800Q0.324 0.783 0.326 0.766Q0.328 0.750 0.324 0.733Q0.312 0.729 0.301 0.725Q0.290 0.721 0.279 0.715L0.274 0.718Q0.275 0.737 0.274 0.754Q0.273 0.770 0.276 0.786Q0.288 0.792 0.299 0.794Q0.310 0.796 0.321 0.804ZM0.327 0.710Q0.324 0.693 0.326 0.677Q0.328 0.661 0.324 0.643Q0.312 0.638 0.301 0.636Q0.290 0.634 0.279 0.628L0.274 0.631V0.695Q0.285 0.703 0.298 0.706Q0.311 0.709 0.322 0.715ZM0.412 0.693Q0.419 0.690 0.426 0.688Q0.433 0.685 0.439 0.682Q0.431 0.680 0.426 0.677Q0.421 0.674 0.415 0.674L0.409 0.676Q0.410 0.681 0.409 0.685Q0.408 0.690 0.410 0.693ZM0.459 0.670Q0.457 0.651 0.459 0.634Q0.461 0.617 0.456 0.599Q0.443 0.597 0.432 0.591Q0.421 0.586 0.409 0.585V0.651Q0.418 0.659 0.430 0.661Q0.442 0.664 0.453 0.671ZM0.327 0.623Q0.324 0.606 0.326 0.589Q0.328 0.573 0.324 0.556Q0.312 0.552 0.301 0.548Q0.290 0.544 0.279 0.539L0.274 0.542V0.606L0.279 0.612Q0.301 0.617 0.321 0.626ZM0.611 0.626Q0.618 0.622 0.626 0.621Q0.633 0.620 0.638 0.616Q0.632 0.612 0.626 0.611Q0.620 0.611 0.614 0.608L0.608 0.609Q0.609 0.614 0.608 0.618Q0.607 0.623 0.609 0.626ZM0.659 0.601Q0.658 0.583 0.659 0.567Q0.660 0.550 0.658 0.535Q0.645 0.528 0.634 0.526Q0.623 0.523 0.613 0.517L0.608 0.519V0.586Q0.617 0.595 0.629 0.596Q0.641 0.598 0.652 0.604ZM0.459 0.577V0.516L0.454 0.510Q0.444 0.506 0.433 0.503Q0.423 0.499 0.414 0.496L0.409 0.497V0.564Q0.418 0.572 0.430 0.574Q0.442 0.575 0.453 0.581ZM0.327 0.536Q0.324 0.517 0.327 0.499Q0.329 0.482 0.322 0.465Q0.309 0.463 0.298 0.458Q0.287 0.452 0.274 0.452V0.516L0.279 0.522Q0.290 0.527 0.300 0.530Q0.311 0.533 0.321 0.537ZM0.659 0.513Q0.655 0.495 0.659 0.478Q0.662 0.460 0.654 0.443Q0.643 0.438 0.633 0.436Q0.622 0.434 0.613 0.430L0.608 0.432Q0.609 0.449 0.608 0.466Q0.607 0.484 0.609 0.499Q0.621 0.504 0.632 0.508Q0.643 0.512 0.654 0.516ZM0.459 0.491Q0.457 0.473 0.459 0.455Q0.461 0.437 0.454 0.421Q0.444 0.419 0.433 0.415Q0.423 0.411 0.414 0.408L0.409 0.410Q0.410 0.428 0.409 0.445Q0.408 0.461 0.410 0.477Q0.422 0.482 0.433 0.486Q0.444 0.490 0.454 0.494ZM0.327 0.446V0.386Q0.320 0.376 0.321 0.376L0.318 0.375Q0.307 0.374 0.298 0.369Q0.289 0.365 0.279 0.362L0.274 0.365Q0.275 0.383 0.274 0.400Q0.273 0.417 0.276 0.432Q0.288 0.438 0.299 0.441Q0.310 0.443 0.321 0.449ZM0.659 0.426Q0.655 0.408 0.658 0.390Q0.661 0.372 0.655 0.356Q0.641 0.354 0.631 0.348Q0.620 0.341 0.608 0.341V0.408Q0.617 0.417 0.629 0.418Q0.641 0.420 0.652 0.428ZM0.467 0.410Q0.475 0.403 0.484 0.401Q0.494 0.399 0.502 0.397L0.504 0.393Q0.491 0.389 0.481 0.386Q0.472 0.383 0.466 0.381Q0.455 0.386 0.445 0.389Q0.435 0.392 0.426 0.395Q0.437 0.397 0.447 0.401Q0.457 0.404 0.467 0.410ZM0.533 0.387Q0.541 0.381 0.552 0.379Q0.564 0.377 0.573 0.373Q0.563 0.368 0.555 0.366Q0.548 0.365 0.539 0.361Q0.520 0.361 0.495 0.375Q0.513 0.377 0.533 0.387ZM0.327 0.359V0.295Q0.322 0.288 0.319 0.287Q0.309 0.286 0.298 0.282Q0.288 0.277 0.282 0.274L0.274 0.275V0.339L0.279 0.346Q0.290 0.351 0.300 0.353Q0.311 0.355 0.321 0.361ZM0.659 0.334Q0.655 0.317 0.658 0.301Q0.661 0.285 0.655 0.267Q0.641 0.263 0.631 0.259Q0.620 0.254 0.608 0.254V0.321Q0.617 0.326 0.629 0.329Q0.641 0.332 0.652 0.338ZM0.327 0.267Q0.324 0.250 0.326 0.234Q0.328 0.217 0.324 0.201Q0.312 0.196 0.301 0.194Q0.290 0.191 0.279 0.185L0.274 0.188Q0.275 0.206 0.274 0.223Q0.273 0.240 0.276 0.255Q0.288 0.261 0.299 0.264Q0.310 0.266 0.321 0.272ZM0.659 0.249Q0.655 0.231 0.658 0.213Q0.661 0.195 0.655 0.178Q0.641 0.176 0.631 0.170Q0.620 0.165 0.608 0.165V0.231Q0.617 0.237 0.629 0.240Q0.641 0.243 0.652 0.250ZM0.333 0.188Q0.341 0.182 0.353 0.179Q0.365 0.177 0.373 0.174Q0.364 0.170 0.356 0.168Q0.348 0.166 0.340 0.161Q0.321 0.161 0.296 0.175Q0.304 0.176 0.313 0.179Q0.322 0.183 0.333 0.188ZM0.659 0.158Q0.655 0.140 0.658 0.124Q0.661 0.108 0.655 0.090Q0.641 0.087 0.631 0.081Q0.620 0.075 0.608 0.076V0.143Q0.617 0.151 0.629 0.152Q0.641 0.153 0.652 0.161ZM0.665 0.076Q0.675 0.072 0.685 0.070Q0.696 0.068 0.703 0.061Q0.692 0.061 0.682 0.056Q0.673 0.051 0.665 0.049Q0.658 0.051 0.651 0.054Q0.645 0.057 0.640 0.057Q0.636 0.060 0.633 0.060Q0.629 0.061 0.627 0.062Q0.637 0.066 0.646 0.070Q0.655 0.073 0.665 0.076Z" fill="black"/>
</svg>
