<svg xmlns="http://www.w3.org/2000/svg" viewBox="0 0 1 1" preserveAspectRatio="xMidYMid meet">
  <path d="M0.592 0.978Q0.575 0.972 0.559 0.967Q0.543 0.962 0.527 0.954V0.873L0.524 0.867Q0.514 0.860 0.503 0.858Q0.491 0.857 0.479 0.850L0.475 0.852L0.472 0.856V0.884L0.469 0.889Q0.399 0.926 0.327 0.888Q0.324 0.868 0.325 0.848Q0.326 0.828 0.325 0.806Q0.323 0.800 0.316 0.795Q0.305 0.793 0.291 0.789Q0.278 0.785 0.261 0.777Q0.258 0.597 0.259 0.418Q0.260 0.239 0.259 0.057L0.263 0.052Q0.326 0.013 0.402 0.052L0.405 0.057V0.256V0.355L0.409 0.360Q0.453 0.330 0.498 0.351Q0.520 0.361 0.543 0.368Q0.566 0.376 0.590 0.382L0.595 0.374V0.169L0.597 0.164Q0.663 0.127 0.739 0.165Q0.741 0.346 0.740 0.525Q0.739 0.704 0.741 0.886Q0.739 0.888 0.735 0.889Q0.732 0.890 0.729 0.893Q0.717 0.894 0.705 0.899Q0.694 0.904 0.681 0.908Q0.678 0.909 0.673 0.916V0.950L0.670 0.955Q0.651 0.962 0.632 0.970Q0.613 0.977 0.593 0.978H0.592ZM0.593 0.955V0.894L0.588 0.888Q0.576 0.883 0.566 0.881Q0.555 0.878 0.546 0.873L0.541 0.875V0.942Q0.551 0.950 0.563 0.952Q0.575 0.953 0.587 0.960ZM0.391 0.891Q0.388 0.873 0.391 0.855Q0.394 0.837 0.386 0.820Q0.376 0.818 0.365 0.814Q0.355 0.810 0.345 0.808L0.341 0.809Q0.342 0.827 0.341 0.844Q0.340 0.861 0.343 0.876Q0.354 0.881 0.365 0.886Q0.376 0.890 0.386 0.894ZM0.661 0.891V0.827Q0.656 0.820 0.652 0.819Q0.639 0.817 0.628 0.812Q0.616 0.808 0.607 0.808V0.872L0.612 0.878Q0.622 0.883 0.633 0.886Q0.643 0.888 0.654 0.894ZM0.593 0.869Q0.590 0.851 0.592 0.833Q0.595 0.815 0.588 0.798Q0.576 0.796 0.566 0.792Q0.555 0.788 0.546 0.786L0.541 0.787Q0.542 0.805 0.541 0.822Q0.540 0.838 0.543 0.854Q0.555 0.859 0.566 0.863Q0.576 0.868 0.588 0.872ZM0.525 0.847Q0.524 0.828 0.525 0.811Q0.526 0.795 0.524 0.778Q0.511 0.772 0.500 0.769Q0.489 0.766 0.479 0.762L0.474 0.764V0.828L0.479 0.834Q0.489 0.836 0.500 0.841Q0.510 0.847 0.520 0.850ZM0.459 0.823Q0.456 0.806 0.458 0.790Q0.460 0.773 0.455 0.756Q0.444 0.752 0.433 0.748Q0.422 0.744 0.411 0.738L0.407 0.742V0.806L0.411 0.812Q0.434 0.819 0.452 0.827ZM0.391 0.802Q0.390 0.784 0.391 0.766Q0.392 0.749 0.390 0.734Q0.378 0.728 0.367 0.725Q0.356 0.723 0.345 0.717L0.341 0.720V0.787Q0.350 0.794 0.362 0.796Q0.374 0.798 0.385 0.805ZM0.661 0.802Q0.658 0.784 0.659 0.767Q0.661 0.751 0.657 0.734Q0.644 0.729 0.633 0.725Q0.622 0.722 0.612 0.716L0.607 0.720Q0.608 0.737 0.607 0.754Q0.606 0.771 0.609 0.787Q0.620 0.793 0.631 0.795Q0.642 0.798 0.654 0.805ZM0.324 0.778V0.717L0.319 0.709Q0.308 0.706 0.297 0.702Q0.287 0.698 0.278 0.695L0.272 0.697V0.761L0.278 0.767Q0.288 0.772 0.298 0.774Q0.309 0.775 0.319 0.782ZM0.593 0.777V0.716L0.588 0.709Q0.576 0.704 0.566 0.702Q0.555 0.699 0.546 0.695L0.541 0.697V0.764Q0.551 0.771 0.563 0.773Q0.575 0.774 0.587 0.782ZM0.525 0.756Q0.522 0.739 0.525 0.722Q0.527 0.705 0.521 0.689Q0.511 0.684 0.500 0.680Q0.488 0.677 0.480 0.673L0.474 0.674V0.738L0.479 0.745Q0.489 0.750 0.500 0.752Q0.510 0.753 0.520 0.759ZM0.459 0.735Q0.456 0.717 0.459 0.700Q0.462 0.682 0.454 0.665Q0.441 0.663 0.429 0.657Q0.418 0.651 0.407 0.651V0.716L0.411 0.723Q0.422 0.727 0.433 0.729Q0.443 0.732 0.452 0.737ZM0.388 0.716Q0.392 0.698 0.391 0.682Q0.390 0.666 0.391 0.648L0.386 0.641Q0.376 0.637 0.365 0.635Q0.355 0.633 0.345 0.629L0.341 0.631Q0.342 0.649 0.341 0.666Q0.340 0.683 0.343 0.698Q0.354 0.704 0.365 0.707Q0.376 0.710 0.386 0.716ZM0.661 0.711Q0.658 0.693 0.659 0.677Q0.661 0.661 0.657 0.643Q0.644 0.638 0.633 0.636Q0.622 0.634 0.612 0.627L0.607 0.631V0.695Q0.618 0.703 0.631 0.707Q0.644 0.710 0.656 0.716ZM0.324 0.690Q0.321 0.673 0.324 0.654Q0.326 0.636 0.319 0.619Q0.308 0.617 0.297 0.613Q0.287 0.610 0.278 0.607L0.272 0.609Q0.275 0.626 0.273 0.643Q0.271 0.661 0.275 0.676Q0.287 0.681 0.297 0.685Q0.308 0.689 0.319 0.694ZM0.593 0.692Q0.592 0.687 0.593 0.682Q0.594 0.678 0.592 0.674L0.588 0.673Q0.582 0.678 0.574 0.678Q0.566 0.678 0.560 0.682Q0.567 0.686 0.574 0.688Q0.581 0.690 0.588 0.694ZM0.525 0.668Q0.522 0.650 0.525 0.632Q0.528 0.614 0.520 0.598Q0.509 0.595 0.499 0.590Q0.488 0.586 0.479 0.584L0.474 0.585Q0.475 0.604 0.473 0.621Q0.472 0.638 0.475 0.653Q0.487 0.659 0.498 0.663Q0.509 0.667 0.520 0.671ZM0.459 0.645V0.584Q0.455 0.579 0.452 0.575L0.449 0.573Q0.438 0.572 0.429 0.568Q0.420 0.564 0.411 0.560L0.407 0.563Q0.407 0.581 0.406 0.599Q0.406 0.616 0.408 0.631Q0.420 0.637 0.431 0.640Q0.442 0.642 0.452 0.648ZM0.385 0.626Q0.393 0.627 0.392 0.621Q0.390 0.615 0.391 0.612L0.386 0.606Q0.379 0.611 0.372 0.612Q0.364 0.614 0.360 0.617Q0.366 0.616 0.373 0.620Q0.379 0.625 0.385 0.626ZM0.661 0.623Q0.658 0.605 0.659 0.588Q0.661 0.572 0.657 0.555Q0.644 0.551 0.633 0.547Q0.622 0.543 0.612 0.538L0.607 0.541V0.606L0.612 0.612Q0.635 0.616 0.654 0.626ZM0.324 0.601V0.539L0.319 0.532Q0.308 0.527 0.297 0.523Q0.287 0.519 0.278 0.516L0.272 0.518V0.582Q0.278 0.589 0.281 0.590Q0.292 0.592 0.300 0.596Q0.309 0.600 0.319 0.604ZM0.525 0.577V0.516L0.520 0.509Q0.509 0.506 0.499 0.502Q0.488 0.497 0.479 0.494L0.474 0.496V0.560L0.479 0.567Q0.489 0.571 0.500 0.573Q0.510 0.575 0.520 0.581ZM0.459 0.557V0.493Q0.454 0.486 0.450 0.485Q0.441 0.484 0.431 0.479Q0.420 0.475 0.413 0.472L0.407 0.474V0.538L0.411 0.544Q0.422 0.549 0.433 0.551Q0.443 0.553 0.452 0.558ZM0.661 0.535Q0.658 0.516 0.660 0.498Q0.662 0.481 0.656 0.463Q0.641 0.461 0.630 0.456Q0.618 0.451 0.607 0.451V0.515L0.612 0.521Q0.622 0.526 0.633 0.529Q0.643 0.532 0.654 0.536ZM0.324 0.513Q0.321 0.496 0.323 0.478Q0.325 0.460 0.321 0.443Q0.307 0.438 0.294 0.433Q0.282 0.428 0.272 0.428V0.493L0.278 0.499Q0.288 0.503 0.298 0.507Q0.309 0.511 0.319 0.515ZM0.525 0.490Q0.522 0.472 0.525 0.454Q0.528 0.436 0.520 0.419Q0.488 0.408 0.479 0.407L0.474 0.408Q0.475 0.426 0.473 0.443Q0.472 0.459 0.475 0.475Q0.487 0.480 0.498 0.484Q0.509 0.488 0.520 0.493ZM0.459 0.467Q0.456 0.449 0.459 0.431Q0.462 0.414 0.454 0.396Q0.441 0.394 0.428 0.389Q0.416 0.383 0.407 0.383V0.448L0.411 0.454Q0.422 0.459 0.433 0.462Q0.443 0.464 0.452 0.471ZM0.661 0.445V0.383Q0.657 0.378 0.654 0.374L0.651 0.372Q0.639 0.371 0.630 0.367Q0.621 0.364 0.612 0.360L0.607 0.363Q0.608 0.381 0.607 0.398Q0.606 0.415 0.609 0.430Q0.620 0.436 0.631 0.439Q0.642 0.442 0.654 0.448ZM0.324 0.422V0.361L0.319 0.353Q0.308 0.350 0.297 0.346Q0.287 0.341 0.278 0.338L0.272 0.340V0.404L0.278 0.411Q0.288 0.413 0.298 0.417Q0.309 0.422 0.319 0.426ZM0.534 0.407Q0.552 0.397 0.568 0.394L0.571 0.391Q0.563 0.388 0.555 0.387Q0.547 0.385 0.539 0.380Q0.515 0.383 0.493 0.393Q0.503 0.395 0.512 0.399Q0.521 0.402 0.532 0.407ZM0.466 0.385Q0.474 0.378 0.485 0.376Q0.496 0.374 0.505 0.371Q0.496 0.366 0.488 0.364Q0.480 0.363 0.472 0.358Q0.459 0.358 0.449 0.362Q0.439 0.367 0.428 0.369L0.427 0.372Q0.436 0.373 0.446 0.377Q0.455 0.380 0.466 0.385ZM0.661 0.357V0.292Q0.656 0.285 0.652 0.284Q0.642 0.283 0.631 0.278Q0.620 0.273 0.613 0.271L0.607 0.272V0.336L0.612 0.343Q0.622 0.348 0.633 0.350Q0.643 0.352 0.654 0.358ZM0.324 0.333Q0.321 0.316 0.324 0.298Q0.326 0.280 0.319 0.263Q0.308 0.258 0.297 0.257Q0.287 0.255 0.278 0.249L0.272 0.252V0.316Q0.282 0.323 0.294 0.327Q0.307 0.330 0.318 0.335ZM0.661 0.264Q0.658 0.247 0.659 0.231Q0.661 0.214 0.657 0.197Q0.644 0.193 0.633 0.190Q0.622 0.187 0.612 0.181L0.607 0.184Q0.608 0.202 0.607 0.220Q0.606 0.237 0.609 0.252Q0.620 0.258 0.631 0.261Q0.642 0.263 0.654 0.269ZM0.324 0.243Q0.321 0.226 0.324 0.208Q0.326 0.190 0.319 0.173Q0.308 0.172 0.297 0.167Q0.287 0.162 0.278 0.160L0.272 0.162V0.226L0.278 0.233Q0.288 0.234 0.298 0.238Q0.309 0.243 0.319 0.247ZM0.666 0.184Q0.675 0.178 0.687 0.176Q0.698 0.174 0.706 0.170Q0.697 0.166 0.689 0.164Q0.681 0.162 0.673 0.157Q0.653 0.157 0.627 0.172Q0.642 0.173 0.666 0.184ZM0.324 0.153Q0.321 0.136 0.323 0.120Q0.325 0.104 0.321 0.086Q0.307 0.081 0.296 0.076Q0.285 0.071 0.272 0.071V0.136L0.278 0.142Q0.288 0.147 0.298 0.149Q0.309 0.151 0.319 0.157ZM0.332 0.071Q0.343 0.068 0.353 0.064Q0.363 0.060 0.372 0.057Q0.362 0.053 0.352 0.051Q0.342 0.049 0.332 0.045Q0.321 0.048 0.311 0.051Q0.301 0.055 0.292 0.057Q0.302 0.062 0.312 0.065Q0.322 0.068 0.332 0.071Z" fill="black"/>
</svg>
