<svg xmlns="http://www.w3.org/2000/svg" viewBox="0 0 1 1" preserveAspectRatio="xMidYMid meet">
  <path d="M0.325 1.000Q0.310 0.993 0.294 0.987Q0.278 0.982 0.261 0.977V0.701Q0.260 0.704 0.272 0.695Q0.284 0.694 0.297 0.688Q0.311 0.682 0.324 0.677Q0.331 0.655 0.328 0.635Q0.326 0.614 0.328 0.590Q0.332 0.590 0.333 0.588Q0.335 0.585 0.340 0.582Q0.350 0.581 0.363 0.577Q0.376 0.572 0.381 0.570Q0.387 0.568 0.388 0.566Q0.390 0.564 0.394 0.559V0.447Q0.383 0.438 0.364 0.434Q0.346 0.431 0.330 0.422Q0.327 0.413 0.328 0.402Q0.329 0.392 0.328 0.383L0.324 0.377Q0.309 0.371 0.293 0.366Q0.278 0.361 0.263 0.355Q0.260 0.309 0.261 0.263Q0.262 0.217 0.261 0.171L0.264 0.166Q0.297 0.153 0.329 0.144Q0.361 0.134 0.396 0.121Q0.413 0.121 0.432 0.130Q0.450 0.138 0.469 0.143L0.472 0.148V0.272L0.477 0.277Q0.487 0.283 0.499 0.286Q0.510 0.289 0.522 0.295L0.525 0.294Q0.530 0.250 0.528 0.208Q0.526 0.167 0.528 0.121V0.081Q0.551 0.072 0.577 0.063Q0.602 0.054 0.629 0.044Q0.684 0.023 0.734 0.055L0.739 0.062V0.241Q0.725 0.249 0.711 0.254Q0.697 0.259 0.684 0.261L0.677 0.264L0.672 0.271V0.351L0.669 0.356Q0.656 0.359 0.642 0.365Q0.629 0.371 0.614 0.373L0.611 0.375L0.605 0.384V0.493L0.610 0.500Q0.624 0.506 0.639 0.511Q0.655 0.516 0.670 0.522Q0.672 0.532 0.671 0.541Q0.670 0.550 0.672 0.559L0.675 0.565Q0.688 0.574 0.704 0.577Q0.720 0.579 0.735 0.587L0.739 0.592V0.861L0.735 0.866Q0.710 0.873 0.685 0.882Q0.660 0.890 0.634 0.900Q0.583 0.921 0.531 0.888L0.528 0.883V0.717Q0.527 0.703 0.529 0.690Q0.530 0.677 0.523 0.665Q0.513 0.659 0.502 0.657Q0.490 0.655 0.479 0.648L0.475 0.650L0.472 0.654V0.952Q0.474 0.950 0.461 0.958Q0.428 0.967 0.396 0.980Q0.363 0.993 0.330 0.999L0.325 1.000ZM0.327 0.980Q0.324 0.961 0.326 0.944Q0.329 0.926 0.323 0.910Q0.309 0.907 0.297 0.901Q0.286 0.896 0.274 0.896V0.960L0.279 0.966Q0.289 0.972 0.300 0.974Q0.311 0.977 0.321 0.981ZM0.327 0.890V0.829L0.321 0.820L0.318 0.818Q0.307 0.817 0.297 0.813Q0.288 0.809 0.279 0.806L0.274 0.809Q0.275 0.826 0.274 0.843Q0.273 0.860 0.276 0.875Q0.287 0.881 0.298 0.884Q0.310 0.887 0.321 0.893ZM0.592 0.890Q0.591 0.872 0.592 0.855Q0.593 0.838 0.591 0.823Q0.579 0.817 0.568 0.814Q0.557 0.810 0.546 0.807L0.541 0.809V0.873L0.546 0.878Q0.557 0.880 0.567 0.885Q0.578 0.890 0.587 0.893ZM0.327 0.802V0.738Q0.322 0.731 0.319 0.730Q0.309 0.729 0.298 0.725Q0.287 0.721 0.281 0.717L0.274 0.718V0.783L0.279 0.789Q0.289 0.794 0.300 0.796Q0.311 0.798 0.321 0.804ZM0.592 0.801Q0.590 0.783 0.592 0.766Q0.594 0.750 0.589 0.733Q0.578 0.729 0.566 0.725Q0.554 0.722 0.547 0.717L0.541 0.718V0.783L0.546 0.789Q0.557 0.794 0.567 0.796Q0.578 0.798 0.587 0.804ZM0.333 0.718Q0.343 0.712 0.354 0.711Q0.364 0.710 0.372 0.703Q0.352 0.696 0.331 0.695Q0.310 0.694 0.295 0.706Q0.306 0.707 0.315 0.712Q0.324 0.716 0.333 0.718ZM0.592 0.712Q0.591 0.697 0.592 0.681Q0.593 0.666 0.591 0.651H0.586Q0.574 0.658 0.562 0.660Q0.549 0.662 0.541 0.669Q0.542 0.677 0.541 0.684Q0.539 0.691 0.542 0.698Q0.554 0.703 0.566 0.707Q0.577 0.711 0.587 0.715ZM0.392 0.690Q0.391 0.672 0.392 0.655Q0.393 0.639 0.391 0.623Q0.379 0.617 0.368 0.614Q0.356 0.611 0.346 0.607L0.341 0.609V0.673L0.346 0.679Q0.356 0.680 0.367 0.685Q0.378 0.690 0.387 0.693ZM0.527 0.645V0.590L0.522 0.582Q0.509 0.588 0.498 0.592Q0.486 0.597 0.474 0.602V0.628Q0.479 0.635 0.482 0.636Q0.500 0.637 0.520 0.648ZM0.401 0.609Q0.408 0.603 0.418 0.600Q0.427 0.598 0.436 0.596L0.439 0.592Q0.419 0.586 0.399 0.584Q0.379 0.581 0.362 0.596Q0.373 0.597 0.382 0.600Q0.391 0.604 0.401 0.609ZM0.677 0.604Q0.684 0.599 0.691 0.598Q0.699 0.598 0.705 0.595Q0.697 0.591 0.691 0.588Q0.686 0.585 0.681 0.584L0.673 0.586Q0.675 0.590 0.674 0.595Q0.672 0.600 0.675 0.604ZM0.460 0.579V0.515L0.455 0.509Q0.444 0.505 0.433 0.503Q0.422 0.500 0.413 0.495L0.407 0.496V0.560Q0.410 0.567 0.414 0.568Q0.425 0.570 0.435 0.574Q0.444 0.578 0.453 0.581ZM0.610 0.538Q0.633 0.528 0.639 0.528Q0.634 0.524 0.627 0.523Q0.620 0.521 0.613 0.517L0.606 0.520V0.535L0.610 0.538ZM0.460 0.491V0.432L0.456 0.428Q0.438 0.438 0.411 0.442L0.407 0.449V0.471L0.411 0.477Q0.419 0.479 0.430 0.483Q0.441 0.488 0.453 0.493ZM0.392 0.423Q0.391 0.408 0.392 0.392Q0.393 0.377 0.391 0.363H0.387Q0.374 0.367 0.361 0.371Q0.349 0.375 0.341 0.380V0.405L0.346 0.412Q0.356 0.417 0.367 0.419Q0.378 0.421 0.387 0.427ZM0.544 0.381Q0.551 0.378 0.559 0.377Q0.566 0.376 0.572 0.372Q0.566 0.368 0.559 0.366Q0.551 0.365 0.547 0.363L0.541 0.364Q0.542 0.369 0.541 0.373Q0.539 0.378 0.542 0.381ZM0.327 0.356Q0.324 0.338 0.326 0.322Q0.328 0.306 0.324 0.289Q0.312 0.283 0.300 0.280Q0.289 0.278 0.279 0.272L0.274 0.276V0.340Q0.284 0.349 0.298 0.352Q0.312 0.355 0.323 0.361ZM0.592 0.359Q0.590 0.341 0.592 0.324Q0.594 0.306 0.589 0.289Q0.576 0.284 0.563 0.279Q0.550 0.274 0.541 0.274V0.338L0.546 0.345Q0.574 0.355 0.587 0.361ZM0.477 0.316Q0.482 0.314 0.489 0.311Q0.496 0.309 0.505 0.305Q0.496 0.302 0.488 0.299Q0.481 0.296 0.474 0.298Q0.475 0.303 0.474 0.308Q0.472 0.313 0.475 0.316ZM0.327 0.267Q0.324 0.250 0.326 0.234Q0.328 0.217 0.324 0.200Q0.312 0.196 0.300 0.192Q0.289 0.188 0.279 0.183L0.274 0.186Q0.275 0.204 0.274 0.221Q0.273 0.238 0.276 0.254Q0.287 0.259 0.298 0.262Q0.310 0.265 0.321 0.271ZM0.592 0.267V0.207L0.587 0.199Q0.577 0.195 0.566 0.191Q0.556 0.187 0.546 0.185L0.541 0.186V0.250Q0.544 0.256 0.549 0.258Q0.560 0.259 0.569 0.263Q0.578 0.267 0.587 0.271ZM0.333 0.186Q0.341 0.179 0.352 0.178Q0.363 0.178 0.373 0.172Q0.363 0.168 0.354 0.165Q0.344 0.163 0.336 0.160Q0.304 0.168 0.295 0.174Q0.312 0.175 0.333 0.186ZM0.592 0.180Q0.590 0.162 0.593 0.144Q0.595 0.127 0.587 0.110Q0.577 0.105 0.566 0.103Q0.556 0.101 0.546 0.095L0.541 0.099V0.163Q0.550 0.170 0.563 0.173Q0.575 0.177 0.586 0.181ZM0.401 0.164Q0.408 0.157 0.420 0.156Q0.433 0.155 0.439 0.148Q0.418 0.142 0.399 0.141Q0.380 0.139 0.360 0.149Q0.371 0.155 0.380 0.157Q0.390 0.158 0.401 0.164ZM0.598 0.097Q0.609 0.095 0.620 0.090Q0.631 0.085 0.640 0.082Q0.629 0.080 0.619 0.076Q0.608 0.072 0.598 0.069Q0.589 0.074 0.579 0.077Q0.569 0.080 0.561 0.082Q0.569 0.085 0.578 0.089Q0.587 0.092 0.598 0.097ZM0.667 0.076Q0.675 0.069 0.686 0.067Q0.697 0.064 0.706 0.062L0.705 0.059Q0.695 0.057 0.685 0.053Q0.674 0.049 0.665 0.047Q0.655 0.053 0.644 0.055Q0.633 0.057 0.626 0.062Q0.636 0.063 0.646 0.068Q0.657 0.072 0.667 0.076Z" fill="black"/>
</svg>
