<svg xmlns="http://www.w3.org/2000/svg" viewBox="0 0 1 1" preserveAspectRatio="xMidYMid meet">
  <path d="M0.659 1.000Q0.626 0.986 0.593 0.977Q0.561 0.967 0.527 0.954V0.694L0.524 0.688Q0.515 0.681 0.503 0.679Q0.491 0.678 0.480 0.670L0.476 0.672L0.472 0.677V0.885Q0.430 0.918 0.381 0.903Q0.357 0.895 0.333 0.888Q0.309 0.881 0.285 0.873Q0.281 0.871 0.275 0.871Q0.269 0.871 0.263 0.866Q0.260 0.798 0.262 0.729Q0.263 0.661 0.261 0.590Q0.264 0.587 0.273 0.582Q0.283 0.581 0.296 0.576Q0.309 0.571 0.315 0.570Q0.321 0.568 0.322 0.566Q0.324 0.563 0.327 0.558V0.523Q0.326 0.524 0.329 0.523Q0.332 0.521 0.338 0.516Q0.350 0.515 0.364 0.510Q0.377 0.504 0.390 0.499L0.394 0.492V0.383L0.391 0.377Q0.379 0.370 0.362 0.366Q0.345 0.363 0.330 0.355L0.327 0.350V0.270Q0.327 0.269 0.316 0.260Q0.301 0.256 0.288 0.253Q0.276 0.250 0.263 0.242Q0.260 0.196 0.262 0.150Q0.263 0.104 0.261 0.057L0.266 0.052Q0.317 0.022 0.367 0.041Q0.392 0.050 0.418 0.059Q0.443 0.068 0.468 0.076L0.472 0.082V0.249L0.477 0.255Q0.490 0.259 0.501 0.263Q0.513 0.267 0.526 0.270Q0.528 0.240 0.527 0.208Q0.526 0.176 0.527 0.161Q0.527 0.145 0.538 0.138Q0.586 0.109 0.632 0.130Q0.681 0.150 0.727 0.160Q0.732 0.162 0.734 0.163Q0.737 0.165 0.738 0.166Q0.740 0.214 0.739 0.260Q0.738 0.305 0.739 0.354Q0.724 0.357 0.711 0.363Q0.697 0.370 0.682 0.372Q0.679 0.373 0.674 0.380V0.416L0.670 0.421Q0.655 0.428 0.640 0.431Q0.624 0.435 0.610 0.443Q0.605 0.472 0.607 0.500Q0.609 0.528 0.606 0.558L0.610 0.564Q0.621 0.573 0.638 0.576Q0.654 0.578 0.670 0.586L0.674 0.591V0.630V0.674Q0.684 0.683 0.701 0.686Q0.718 0.689 0.734 0.698L0.739 0.703V0.975Q0.721 0.982 0.703 0.989Q0.684 0.997 0.664 0.999L0.659 1.000ZM0.660 0.980Q0.657 0.961 0.660 0.944Q0.662 0.926 0.655 0.909Q0.642 0.907 0.631 0.901Q0.620 0.895 0.608 0.895V0.960L0.613 0.966Q0.623 0.972 0.633 0.974Q0.644 0.977 0.654 0.981ZM0.593 0.955Q0.590 0.937 0.592 0.921Q0.594 0.905 0.590 0.888Q0.578 0.882 0.567 0.880Q0.556 0.877 0.546 0.872L0.540 0.875Q0.543 0.893 0.540 0.910Q0.538 0.926 0.544 0.942Q0.556 0.948 0.566 0.951Q0.577 0.954 0.588 0.960ZM0.393 0.891Q0.390 0.873 0.392 0.855Q0.394 0.837 0.390 0.821Q0.378 0.816 0.367 0.814Q0.356 0.811 0.344 0.805L0.340 0.809V0.871L0.344 0.877Q0.356 0.881 0.366 0.884Q0.377 0.887 0.387 0.893ZM0.660 0.889V0.829Q0.653 0.819 0.654 0.819L0.650 0.817Q0.640 0.816 0.631 0.812Q0.622 0.809 0.613 0.805L0.608 0.808Q0.609 0.826 0.608 0.843Q0.607 0.860 0.610 0.875Q0.621 0.881 0.632 0.884Q0.643 0.887 0.654 0.893ZM0.325 0.868Q0.323 0.850 0.326 0.832Q0.328 0.814 0.321 0.797Q0.310 0.796 0.299 0.791Q0.288 0.786 0.279 0.785L0.274 0.786V0.850L0.279 0.856Q0.289 0.858 0.300 0.862Q0.311 0.867 0.321 0.871ZM0.593 0.869Q0.590 0.852 0.592 0.833Q0.594 0.815 0.590 0.799Q0.578 0.796 0.567 0.791Q0.556 0.787 0.546 0.785L0.540 0.788V0.849L0.546 0.855Q0.556 0.860 0.566 0.862Q0.577 0.865 0.586 0.871ZM0.393 0.802Q0.390 0.784 0.393 0.766Q0.395 0.748 0.388 0.731Q0.377 0.727 0.366 0.724Q0.356 0.722 0.346 0.716L0.340 0.718V0.783Q0.345 0.790 0.348 0.791Q0.366 0.793 0.387 0.803ZM0.660 0.802V0.738Q0.655 0.731 0.652 0.730Q0.642 0.728 0.631 0.724Q0.621 0.720 0.615 0.716L0.608 0.718V0.783L0.613 0.789Q0.623 0.794 0.633 0.795Q0.644 0.797 0.654 0.803ZM0.593 0.777Q0.590 0.760 0.592 0.743Q0.594 0.727 0.590 0.710Q0.578 0.704 0.567 0.702Q0.556 0.699 0.546 0.694L0.540 0.698V0.761Q0.550 0.771 0.564 0.773Q0.579 0.775 0.588 0.783ZM0.325 0.779Q0.323 0.761 0.326 0.743Q0.328 0.726 0.321 0.708Q0.310 0.704 0.299 0.702Q0.288 0.699 0.279 0.694L0.274 0.698V0.761Q0.283 0.768 0.296 0.772Q0.308 0.776 0.320 0.782ZM0.666 0.718Q0.677 0.712 0.687 0.711Q0.698 0.709 0.705 0.702Q0.686 0.695 0.664 0.694Q0.643 0.693 0.629 0.705Q0.639 0.706 0.648 0.711Q0.657 0.716 0.666 0.718ZM0.393 0.712Q0.390 0.694 0.393 0.676Q0.395 0.659 0.388 0.641Q0.375 0.639 0.362 0.634Q0.349 0.629 0.340 0.629V0.693Q0.343 0.698 0.348 0.701Q0.359 0.702 0.368 0.707Q0.377 0.711 0.387 0.715ZM0.325 0.689V0.629L0.321 0.621Q0.302 0.612 0.279 0.606L0.274 0.608V0.672L0.279 0.679Q0.289 0.680 0.300 0.684Q0.311 0.689 0.321 0.693ZM0.593 0.691Q0.590 0.673 0.592 0.655Q0.594 0.638 0.590 0.621Q0.578 0.617 0.567 0.614Q0.556 0.611 0.546 0.605L0.540 0.610V0.670L0.546 0.677Q0.556 0.682 0.566 0.684Q0.577 0.687 0.586 0.693ZM0.526 0.667V0.606L0.521 0.598Q0.510 0.595 0.499 0.590Q0.489 0.586 0.480 0.583L0.474 0.585V0.649L0.480 0.655Q0.491 0.658 0.501 0.662Q0.512 0.667 0.521 0.670ZM0.393 0.624Q0.390 0.606 0.393 0.588Q0.395 0.570 0.388 0.553Q0.377 0.549 0.366 0.546Q0.356 0.543 0.346 0.539L0.340 0.541V0.605L0.344 0.611Q0.356 0.615 0.366 0.617Q0.377 0.620 0.387 0.626ZM0.599 0.608Q0.611 0.603 0.620 0.599Q0.630 0.596 0.640 0.593Q0.600 0.574 0.561 0.593Q0.570 0.596 0.580 0.599Q0.589 0.603 0.599 0.608ZM0.325 0.600Q0.324 0.596 0.325 0.591Q0.326 0.587 0.324 0.583H0.320Q0.312 0.586 0.306 0.589Q0.300 0.592 0.294 0.593Q0.301 0.595 0.307 0.598Q0.313 0.601 0.320 0.603ZM0.526 0.579Q0.523 0.561 0.526 0.543Q0.528 0.525 0.521 0.509Q0.510 0.504 0.499 0.502Q0.489 0.499 0.480 0.494L0.474 0.497V0.561Q0.484 0.569 0.496 0.573Q0.509 0.576 0.519 0.580ZM0.460 0.555Q0.457 0.537 0.459 0.521Q0.461 0.505 0.457 0.488Q0.445 0.482 0.434 0.480Q0.423 0.478 0.412 0.472L0.407 0.475V0.539Q0.418 0.548 0.431 0.551Q0.444 0.554 0.455 0.560ZM0.388 0.538Q0.394 0.535 0.393 0.529Q0.391 0.523 0.393 0.519L0.388 0.516Q0.384 0.521 0.375 0.521Q0.367 0.521 0.361 0.526Q0.368 0.529 0.375 0.532Q0.382 0.535 0.388 0.538ZM0.526 0.490V0.428L0.521 0.421Q0.510 0.416 0.500 0.412Q0.490 0.409 0.480 0.407L0.474 0.408V0.472L0.480 0.478Q0.491 0.480 0.501 0.485Q0.512 0.490 0.521 0.492ZM0.460 0.466Q0.457 0.449 0.459 0.433Q0.461 0.417 0.457 0.399Q0.445 0.395 0.434 0.391Q0.423 0.386 0.412 0.382L0.407 0.385V0.449L0.412 0.455Q0.433 0.460 0.454 0.471ZM0.593 0.424Q0.590 0.405 0.593 0.388Q0.595 0.370 0.588 0.354Q0.577 0.349 0.567 0.346Q0.557 0.343 0.547 0.339L0.540 0.340V0.404L0.546 0.411Q0.556 0.415 0.566 0.417Q0.577 0.420 0.586 0.426ZM0.526 0.399Q0.524 0.395 0.525 0.391Q0.526 0.387 0.524 0.383H0.519Q0.512 0.386 0.506 0.389Q0.500 0.392 0.494 0.393Q0.501 0.394 0.507 0.397Q0.514 0.400 0.519 0.402ZM0.460 0.379Q0.457 0.361 0.460 0.343Q0.462 0.325 0.455 0.308Q0.442 0.306 0.431 0.301Q0.420 0.296 0.407 0.296V0.360L0.412 0.366Q0.423 0.371 0.433 0.373Q0.444 0.376 0.454 0.380ZM0.393 0.355Q0.390 0.337 0.392 0.321Q0.394 0.304 0.390 0.288Q0.378 0.282 0.367 0.279Q0.356 0.277 0.344 0.271L0.340 0.275V0.339Q0.350 0.348 0.364 0.351Q0.377 0.354 0.388 0.360ZM0.660 0.355Q0.657 0.337 0.659 0.321Q0.661 0.304 0.657 0.288Q0.645 0.282 0.634 0.279Q0.623 0.277 0.613 0.271L0.608 0.275V0.339Q0.618 0.348 0.631 0.351Q0.644 0.354 0.655 0.360ZM0.593 0.334Q0.590 0.316 0.593 0.298Q0.595 0.280 0.588 0.263Q0.575 0.261 0.562 0.256Q0.550 0.251 0.540 0.251V0.315Q0.544 0.320 0.549 0.322Q0.559 0.324 0.568 0.329Q0.577 0.333 0.586 0.337ZM0.465 0.296Q0.475 0.294 0.486 0.289Q0.497 0.284 0.507 0.280Q0.496 0.276 0.485 0.274Q0.474 0.272 0.465 0.268Q0.446 0.278 0.427 0.280Q0.437 0.285 0.446 0.289Q0.455 0.293 0.465 0.296ZM0.393 0.266Q0.391 0.249 0.392 0.232Q0.393 0.215 0.391 0.199Q0.379 0.193 0.368 0.191Q0.357 0.188 0.346 0.183L0.340 0.185V0.249Q0.345 0.256 0.348 0.257Q0.357 0.258 0.366 0.262Q0.376 0.265 0.387 0.270ZM0.660 0.266Q0.657 0.249 0.659 0.233Q0.661 0.216 0.657 0.199Q0.645 0.195 0.634 0.191Q0.623 0.187 0.613 0.182L0.608 0.185Q0.609 0.203 0.608 0.220Q0.607 0.237 0.610 0.252Q0.621 0.258 0.632 0.261Q0.643 0.264 0.654 0.270ZM0.325 0.244V0.183L0.321 0.175Q0.310 0.172 0.299 0.168Q0.288 0.164 0.279 0.161L0.274 0.163V0.227Q0.277 0.232 0.282 0.235Q0.293 0.237 0.302 0.240Q0.311 0.244 0.321 0.247ZM0.593 0.246Q0.590 0.228 0.593 0.210Q0.595 0.193 0.588 0.175Q0.577 0.171 0.567 0.168Q0.557 0.165 0.547 0.161L0.540 0.163V0.227Q0.544 0.232 0.549 0.235Q0.565 0.236 0.586 0.247ZM0.666 0.185Q0.676 0.178 0.686 0.177Q0.697 0.177 0.707 0.171Q0.697 0.166 0.688 0.164Q0.679 0.162 0.670 0.158Q0.641 0.165 0.629 0.173Q0.644 0.175 0.666 0.185ZM0.393 0.177Q0.390 0.159 0.392 0.143Q0.394 0.127 0.390 0.110Q0.378 0.104 0.367 0.101Q0.356 0.099 0.344 0.093L0.340 0.097Q0.342 0.115 0.340 0.131Q0.338 0.147 0.343 0.165Q0.356 0.171 0.366 0.173Q0.377 0.176 0.388 0.182ZM0.599 0.163Q0.611 0.157 0.620 0.155Q0.630 0.153 0.640 0.148Q0.598 0.130 0.561 0.148Q0.570 0.153 0.581 0.155Q0.591 0.158 0.599 0.163ZM0.323 0.160Q0.327 0.141 0.326 0.126Q0.324 0.110 0.325 0.091L0.321 0.086Q0.310 0.081 0.299 0.079Q0.288 0.076 0.279 0.072L0.274 0.074Q0.275 0.092 0.274 0.109Q0.273 0.126 0.276 0.141Q0.287 0.147 0.299 0.151Q0.310 0.154 0.321 0.160ZM0.399 0.096Q0.409 0.090 0.419 0.088Q0.429 0.085 0.438 0.081Q0.427 0.076 0.417 0.074Q0.407 0.071 0.398 0.068Q0.388 0.073 0.377 0.076Q0.367 0.079 0.361 0.082Q0.371 0.084 0.380 0.088Q0.389 0.092 0.399 0.096ZM0.334 0.072Q0.343 0.067 0.354 0.066Q0.365 0.064 0.372 0.057Q0.350 0.054 0.340 0.047Q0.315 0.050 0.294 0.060Q0.304 0.063 0.313 0.066Q0.323 0.069 0.332 0.072Z" fill="black"/>
</svg>
