<svg xmlns="http://www.w3.org/2000/svg" viewBox="0 0 1 1" preserveAspectRatio="xMidYMid meet">
  <path d="M0.458 0.955Q0.443 0.947 0.427 0.944Q0.412 0.941 0.395 0.931Q0.392 0.855 0.395 0.778Q0.397 0.701 0.390 0.622Q0.375 0.615 0.360 0.611Q0.345 0.607 0.329 0.600Q0.326 0.591 0.327 0.582Q0.328 0.573 0.328 0.563L0.325 0.557Q0.313 0.549 0.296 0.546Q0.280 0.544 0.264 0.535Q0.261 0.445 0.262 0.356Q0.263 0.266 0.262 0.174L0.265 0.170Q0.291 0.162 0.316 0.153Q0.342 0.144 0.367 0.135Q0.419 0.115 0.470 0.147L0.473 0.151V0.445L0.480 0.451Q0.489 0.449 0.500 0.445Q0.510 0.441 0.515 0.439Q0.520 0.437 0.522 0.435Q0.524 0.433 0.528 0.428V0.306V0.083Q0.552 0.075 0.577 0.066Q0.603 0.057 0.629 0.047Q0.683 0.026 0.735 0.058L0.738 0.063V0.423Q0.723 0.428 0.709 0.433Q0.695 0.438 0.681 0.442Q0.678 0.443 0.672 0.449V0.529L0.669 0.535Q0.656 0.542 0.641 0.544Q0.626 0.547 0.619 0.550Q0.612 0.554 0.610 0.556Q0.609 0.558 0.605 0.563V0.908Q0.602 0.908 0.600 0.911Q0.599 0.914 0.595 0.916Q0.561 0.923 0.528 0.936Q0.494 0.949 0.460 0.955H0.458ZM0.460 0.934Q0.457 0.916 0.459 0.900Q0.462 0.884 0.457 0.868Q0.445 0.863 0.434 0.859Q0.423 0.855 0.413 0.850L0.408 0.853V0.917L0.413 0.923Q0.434 0.928 0.454 0.937ZM0.460 0.847Q0.457 0.829 0.460 0.811Q0.463 0.794 0.455 0.776Q0.442 0.774 0.431 0.769Q0.420 0.764 0.408 0.764V0.827L0.413 0.833Q0.423 0.838 0.434 0.841Q0.444 0.845 0.454 0.849ZM0.460 0.757Q0.457 0.740 0.459 0.724Q0.462 0.707 0.457 0.690Q0.445 0.686 0.434 0.682Q0.423 0.678 0.413 0.673L0.408 0.677Q0.410 0.694 0.408 0.711Q0.407 0.728 0.410 0.743Q0.422 0.749 0.433 0.752Q0.443 0.755 0.454 0.760ZM0.460 0.668Q0.458 0.653 0.459 0.639Q0.460 0.624 0.458 0.610L0.454 0.608Q0.443 0.614 0.433 0.616Q0.422 0.619 0.413 0.622L0.408 0.628V0.650L0.413 0.658Q0.423 0.662 0.434 0.664Q0.444 0.666 0.454 0.672ZM0.393 0.603V0.546L0.390 0.541Q0.361 0.552 0.346 0.555L0.341 0.561V0.583Q0.344 0.589 0.349 0.591Q0.359 0.593 0.368 0.598Q0.377 0.603 0.387 0.606ZM0.326 0.536V0.475L0.321 0.467Q0.311 0.464 0.300 0.460Q0.290 0.455 0.281 0.453L0.276 0.454V0.518Q0.281 0.525 0.283 0.526Q0.294 0.527 0.303 0.532Q0.312 0.536 0.321 0.539ZM0.478 0.494Q0.485 0.490 0.492 0.489Q0.499 0.488 0.505 0.485Q0.499 0.482 0.493 0.480Q0.486 0.478 0.481 0.475L0.475 0.477Q0.476 0.482 0.475 0.486Q0.474 0.491 0.476 0.494ZM0.534 0.477Q0.541 0.471 0.553 0.469Q0.566 0.467 0.572 0.461Q0.553 0.455 0.533 0.453Q0.512 0.450 0.495 0.464Q0.508 0.466 0.534 0.477ZM0.593 0.447Q0.591 0.429 0.593 0.413Q0.595 0.396 0.590 0.380Q0.577 0.374 0.566 0.371Q0.555 0.368 0.545 0.364L0.540 0.367Q0.542 0.385 0.540 0.401Q0.538 0.418 0.543 0.434Q0.555 0.440 0.566 0.443Q0.577 0.446 0.588 0.451ZM0.326 0.448Q0.324 0.430 0.326 0.413Q0.328 0.395 0.321 0.378Q0.313 0.375 0.303 0.372Q0.294 0.369 0.281 0.365L0.276 0.367V0.431Q0.285 0.438 0.297 0.442Q0.309 0.445 0.320 0.449ZM0.326 0.359V0.296L0.321 0.289Q0.311 0.288 0.300 0.283Q0.290 0.277 0.281 0.276L0.276 0.277Q0.277 0.296 0.276 0.312Q0.275 0.329 0.278 0.345Q0.289 0.351 0.300 0.354Q0.311 0.357 0.321 0.363ZM0.593 0.361Q0.591 0.342 0.593 0.325Q0.595 0.307 0.590 0.291Q0.577 0.289 0.566 0.284Q0.555 0.279 0.545 0.276L0.540 0.279V0.339L0.545 0.346Q0.555 0.351 0.566 0.354Q0.576 0.357 0.587 0.363ZM0.326 0.271Q0.324 0.254 0.326 0.236Q0.328 0.218 0.321 0.201Q0.311 0.196 0.300 0.194Q0.290 0.192 0.281 0.187L0.276 0.190V0.254Q0.285 0.261 0.297 0.265Q0.309 0.268 0.320 0.273ZM0.593 0.271Q0.591 0.254 0.593 0.236Q0.595 0.218 0.588 0.201Q0.574 0.196 0.563 0.192Q0.552 0.188 0.540 0.188V0.252Q0.544 0.259 0.548 0.260Q0.558 0.261 0.567 0.266Q0.576 0.271 0.587 0.273ZM0.332 0.188Q0.344 0.185 0.353 0.182Q0.363 0.179 0.372 0.174Q0.362 0.170 0.352 0.167Q0.343 0.165 0.332 0.162Q0.325 0.163 0.319 0.166Q0.313 0.170 0.307 0.170Q0.304 0.172 0.300 0.172Q0.297 0.173 0.295 0.174Q0.305 0.178 0.314 0.181Q0.323 0.185 0.332 0.188ZM0.593 0.182V0.122L0.588 0.113Q0.574 0.111 0.562 0.105Q0.549 0.100 0.540 0.100V0.163L0.545 0.170Q0.555 0.174 0.566 0.176Q0.576 0.179 0.587 0.185ZM0.400 0.166Q0.411 0.164 0.420 0.160Q0.430 0.157 0.438 0.151Q0.427 0.147 0.417 0.145Q0.408 0.142 0.399 0.139Q0.388 0.144 0.378 0.147Q0.367 0.150 0.362 0.153Q0.372 0.154 0.381 0.159Q0.390 0.164 0.400 0.166ZM0.600 0.101Q0.611 0.096 0.621 0.092Q0.631 0.088 0.639 0.086Q0.601 0.066 0.561 0.086Q0.569 0.088 0.579 0.092Q0.589 0.096 0.600 0.101ZM0.666 0.078Q0.674 0.072 0.685 0.070Q0.696 0.068 0.706 0.064Q0.696 0.060 0.687 0.057Q0.678 0.055 0.669 0.051Q0.658 0.053 0.647 0.057Q0.636 0.062 0.626 0.064Q0.636 0.068 0.646 0.070Q0.657 0.072 0.666 0.078Z" fill="black"/>
</svg>
