<svg xmlns="http://www.w3.org/2000/svg" viewBox="0 0 1 1" preserveAspectRatio="xMidYMid meet">
  <path d="M0.525 0.957Q0.492 0.943 0.459 0.934Q0.427 0.925 0.393 0.911Q0.391 0.822 0.393 0.733Q0.394 0.643 0.390 0.554Q0.375 0.548 0.360 0.544Q0.345 0.541 0.328 0.534Q0.326 0.513 0.327 0.492Q0.328 0.472 0.327 0.449L0.322 0.443Q0.286 0.427 0.261 0.423Q0.258 0.330 0.259 0.240Q0.260 0.150 0.259 0.056Q0.271 0.051 0.285 0.045Q0.299 0.040 0.313 0.036Q0.327 0.033 0.342 0.034Q0.357 0.035 0.371 0.042Q0.394 0.050 0.420 0.058Q0.445 0.066 0.470 0.075Q0.473 0.155 0.471 0.236Q0.470 0.317 0.472 0.399V0.427L0.480 0.436Q0.490 0.438 0.501 0.442Q0.511 0.446 0.521 0.449L0.527 0.446Q0.529 0.372 0.528 0.298Q0.527 0.224 0.529 0.147L0.532 0.142Q0.582 0.110 0.633 0.129Q0.685 0.149 0.737 0.166L0.741 0.170V0.529Q0.738 0.533 0.729 0.538Q0.699 0.544 0.678 0.554L0.673 0.560V0.596L0.669 0.601Q0.656 0.605 0.642 0.610Q0.629 0.616 0.615 0.619Q0.611 0.620 0.607 0.626V0.931Q0.585 0.942 0.566 0.949Q0.546 0.955 0.529 0.957H0.525ZM0.527 0.936Q0.526 0.918 0.527 0.901Q0.528 0.885 0.525 0.869Q0.512 0.863 0.502 0.860Q0.491 0.858 0.480 0.853L0.474 0.855Q0.475 0.873 0.473 0.890Q0.472 0.907 0.475 0.922Q0.487 0.928 0.498 0.930Q0.509 0.932 0.520 0.939ZM0.459 0.914V0.853L0.454 0.845Q0.443 0.841 0.433 0.837Q0.422 0.832 0.413 0.830L0.408 0.831V0.896Q0.409 0.899 0.416 0.904Q0.426 0.905 0.435 0.910Q0.444 0.914 0.454 0.917ZM0.527 0.847Q0.524 0.828 0.526 0.812Q0.528 0.796 0.524 0.778Q0.511 0.772 0.500 0.770Q0.489 0.767 0.479 0.763L0.474 0.766Q0.476 0.784 0.474 0.800Q0.472 0.817 0.477 0.833Q0.489 0.839 0.500 0.842Q0.511 0.846 0.521 0.852ZM0.459 0.825Q0.456 0.808 0.459 0.790Q0.462 0.771 0.454 0.755Q0.443 0.750 0.433 0.748Q0.422 0.746 0.413 0.742L0.408 0.744Q0.409 0.762 0.408 0.778Q0.407 0.795 0.409 0.811Q0.421 0.816 0.432 0.820Q0.443 0.824 0.454 0.828ZM0.527 0.760Q0.524 0.742 0.526 0.724Q0.528 0.706 0.524 0.689Q0.509 0.685 0.498 0.681Q0.487 0.677 0.479 0.673L0.474 0.678V0.739L0.479 0.746Q0.489 0.750 0.500 0.753Q0.510 0.755 0.520 0.761ZM0.459 0.736V0.675L0.454 0.667Q0.443 0.663 0.433 0.659Q0.422 0.654 0.413 0.652L0.408 0.653V0.717Q0.411 0.724 0.416 0.726Q0.426 0.727 0.435 0.731Q0.444 0.735 0.454 0.739ZM0.527 0.670Q0.524 0.651 0.527 0.634Q0.530 0.616 0.521 0.599Q0.511 0.595 0.501 0.592Q0.490 0.589 0.480 0.584L0.474 0.585V0.650Q0.477 0.657 0.482 0.659Q0.499 0.661 0.520 0.671ZM0.459 0.647Q0.456 0.629 0.459 0.611Q0.462 0.593 0.454 0.576Q0.443 0.572 0.433 0.570Q0.422 0.568 0.413 0.562L0.408 0.565V0.629Q0.417 0.637 0.429 0.641Q0.442 0.644 0.452 0.648ZM0.595 0.602Q0.592 0.584 0.594 0.567Q0.597 0.549 0.590 0.532Q0.576 0.529 0.564 0.524Q0.551 0.518 0.541 0.518V0.582L0.546 0.589Q0.556 0.595 0.567 0.597Q0.577 0.600 0.588 0.606ZM0.527 0.579V0.518L0.521 0.511Q0.508 0.507 0.496 0.502Q0.483 0.496 0.474 0.496V0.560L0.479 0.567Q0.489 0.572 0.500 0.574Q0.510 0.576 0.520 0.582ZM0.459 0.557Q0.456 0.539 0.459 0.521Q0.462 0.503 0.454 0.487Q0.443 0.486 0.433 0.480Q0.422 0.475 0.413 0.474L0.408 0.475V0.540L0.413 0.546Q0.423 0.548 0.434 0.552Q0.444 0.557 0.454 0.560ZM0.391 0.535V0.474L0.386 0.465Q0.376 0.462 0.365 0.458Q0.355 0.454 0.345 0.449L0.341 0.452Q0.342 0.471 0.341 0.488Q0.340 0.505 0.343 0.520Q0.354 0.526 0.365 0.529Q0.376 0.532 0.386 0.538ZM0.660 0.535V0.474L0.656 0.465Q0.643 0.462 0.633 0.458Q0.622 0.453 0.613 0.451L0.609 0.452V0.516Q0.612 0.522 0.617 0.525Q0.627 0.526 0.636 0.530Q0.645 0.535 0.656 0.538ZM0.595 0.512Q0.592 0.494 0.594 0.478Q0.596 0.461 0.591 0.445Q0.578 0.440 0.567 0.435Q0.556 0.431 0.546 0.429L0.541 0.430V0.494Q0.544 0.500 0.549 0.502Q0.558 0.504 0.568 0.508Q0.578 0.512 0.588 0.515ZM0.520 0.493Q0.529 0.494 0.527 0.487Q0.526 0.481 0.527 0.479L0.521 0.472Q0.514 0.476 0.507 0.478Q0.500 0.481 0.494 0.483Q0.497 0.484 0.504 0.486Q0.510 0.489 0.520 0.493ZM0.468 0.475Q0.474 0.468 0.487 0.467Q0.500 0.465 0.506 0.459Q0.486 0.453 0.466 0.451Q0.445 0.448 0.428 0.462Q0.438 0.463 0.448 0.467Q0.458 0.472 0.468 0.475ZM0.391 0.446V0.382L0.385 0.374Q0.373 0.373 0.362 0.368Q0.351 0.363 0.341 0.363V0.427L0.345 0.433Q0.356 0.438 0.366 0.442Q0.377 0.445 0.386 0.448ZM0.660 0.446Q0.658 0.428 0.660 0.410Q0.662 0.392 0.656 0.375Q0.643 0.371 0.633 0.369Q0.622 0.367 0.613 0.361L0.609 0.365V0.429Q0.618 0.436 0.630 0.440Q0.642 0.443 0.654 0.448ZM0.325 0.423Q0.322 0.404 0.324 0.388Q0.326 0.372 0.322 0.355Q0.310 0.349 0.299 0.347Q0.288 0.345 0.278 0.338L0.272 0.341V0.407Q0.283 0.415 0.296 0.418Q0.310 0.421 0.321 0.427ZM0.595 0.424Q0.592 0.407 0.594 0.388Q0.597 0.370 0.590 0.353Q0.576 0.351 0.564 0.346Q0.551 0.340 0.541 0.340V0.404L0.546 0.411Q0.556 0.416 0.567 0.418Q0.577 0.421 0.588 0.427ZM0.391 0.357V0.296L0.386 0.288Q0.357 0.276 0.345 0.271L0.341 0.274V0.338L0.345 0.345Q0.366 0.349 0.386 0.360ZM0.660 0.357V0.292L0.656 0.286Q0.643 0.285 0.633 0.279Q0.622 0.274 0.613 0.273L0.609 0.274Q0.610 0.293 0.609 0.309Q0.608 0.326 0.610 0.341Q0.622 0.348 0.633 0.351Q0.643 0.354 0.656 0.360ZM0.325 0.335Q0.322 0.318 0.325 0.300Q0.328 0.282 0.321 0.264Q0.310 0.260 0.299 0.257Q0.289 0.254 0.280 0.250L0.272 0.252Q0.274 0.270 0.272 0.287Q0.271 0.304 0.275 0.319Q0.286 0.325 0.297 0.327Q0.308 0.329 0.319 0.336ZM0.595 0.333Q0.592 0.316 0.594 0.299Q0.596 0.283 0.591 0.266Q0.578 0.261 0.567 0.258Q0.556 0.254 0.546 0.249L0.541 0.252Q0.542 0.270 0.541 0.287Q0.540 0.304 0.543 0.319Q0.555 0.325 0.566 0.328Q0.576 0.331 0.588 0.336ZM0.391 0.264Q0.388 0.247 0.390 0.231Q0.392 0.214 0.388 0.197Q0.377 0.195 0.365 0.190Q0.354 0.185 0.347 0.183L0.341 0.184V0.249L0.345 0.255Q0.356 0.260 0.366 0.263Q0.377 0.265 0.386 0.269ZM0.660 0.268Q0.658 0.250 0.660 0.232Q0.662 0.214 0.656 0.197Q0.643 0.193 0.633 0.191Q0.622 0.188 0.613 0.183L0.609 0.186V0.250Q0.618 0.258 0.630 0.262Q0.642 0.265 0.654 0.269ZM0.325 0.244Q0.322 0.226 0.324 0.210Q0.326 0.194 0.322 0.176Q0.310 0.171 0.299 0.168Q0.288 0.166 0.278 0.161L0.272 0.164Q0.275 0.182 0.272 0.198Q0.270 0.214 0.276 0.231Q0.288 0.237 0.299 0.240Q0.310 0.243 0.321 0.249ZM0.595 0.245Q0.592 0.228 0.594 0.210Q0.597 0.192 0.590 0.175Q0.576 0.173 0.565 0.167Q0.553 0.162 0.541 0.162V0.226L0.546 0.233Q0.556 0.238 0.567 0.241Q0.577 0.244 0.588 0.247ZM0.666 0.184Q0.677 0.181 0.687 0.178Q0.696 0.175 0.706 0.170Q0.695 0.166 0.686 0.163Q0.676 0.161 0.666 0.157Q0.659 0.159 0.653 0.162Q0.646 0.166 0.640 0.166Q0.637 0.168 0.634 0.168Q0.630 0.169 0.627 0.170Q0.638 0.174 0.647 0.177Q0.657 0.181 0.666 0.184ZM0.391 0.178Q0.388 0.160 0.391 0.142Q0.393 0.124 0.386 0.108Q0.365 0.104 0.345 0.092L0.341 0.096Q0.342 0.114 0.341 0.131Q0.340 0.148 0.343 0.164Q0.354 0.170 0.365 0.172Q0.376 0.175 0.386 0.181ZM0.599 0.162Q0.609 0.160 0.620 0.155Q0.630 0.150 0.640 0.147Q0.629 0.145 0.619 0.141Q0.608 0.137 0.599 0.134Q0.589 0.139 0.578 0.142Q0.568 0.145 0.560 0.147Q0.571 0.151 0.580 0.155Q0.589 0.159 0.599 0.162ZM0.325 0.155V0.095L0.321 0.086Q0.309 0.083 0.296 0.078Q0.283 0.073 0.272 0.072V0.136L0.278 0.142Q0.288 0.147 0.298 0.150Q0.309 0.152 0.319 0.159ZM0.400 0.096Q0.408 0.089 0.419 0.087Q0.430 0.085 0.440 0.081Q0.430 0.077 0.422 0.075Q0.414 0.073 0.407 0.069Q0.394 0.069 0.382 0.074Q0.369 0.078 0.361 0.083Q0.376 0.084 0.400 0.096ZM0.332 0.073Q0.343 0.068 0.353 0.066Q0.363 0.063 0.372 0.059Q0.363 0.056 0.353 0.052Q0.344 0.048 0.335 0.047Q0.324 0.048 0.314 0.052Q0.303 0.056 0.294 0.059Q0.303 0.064 0.313 0.066Q0.323 0.068 0.332 0.073Z" fill="black"/>
</svg>
