<svg xmlns="http://www.w3.org/2000/svg" viewBox="0 0 1 1" preserveAspectRatio="xMidYMid meet">
  <path d="M0.325 1.000Q0.309 0.992 0.293 0.988Q0.277 0.984 0.261 0.977V0.701Q0.275 0.695 0.289 0.690Q0.303 0.684 0.319 0.682L0.322 0.680L0.328 0.671Q0.328 0.590 0.339 0.582Q0.351 0.582 0.364 0.577Q0.377 0.571 0.390 0.566Q0.395 0.547 0.393 0.524Q0.391 0.502 0.393 0.481Q0.407 0.472 0.424 0.467Q0.440 0.463 0.456 0.456L0.461 0.450V0.370L0.464 0.365Q0.476 0.361 0.492 0.356Q0.507 0.352 0.514 0.349Q0.521 0.346 0.523 0.343Q0.524 0.341 0.528 0.336V0.231L0.523 0.227Q0.458 0.240 0.394 0.272Q0.330 0.303 0.264 0.266L0.261 0.261V0.169Q0.262 0.168 0.265 0.166Q0.268 0.165 0.272 0.163Q0.333 0.143 0.396 0.121Q0.459 0.100 0.521 0.080Q0.550 0.073 0.576 0.065Q0.602 0.056 0.629 0.045Q0.681 0.022 0.735 0.053L0.739 0.062Q0.739 0.330 0.727 0.338Q0.716 0.339 0.703 0.345Q0.690 0.350 0.677 0.354L0.672 0.361V0.440Q0.662 0.449 0.646 0.453Q0.630 0.457 0.617 0.461L0.613 0.462Q0.611 0.462 0.607 0.473V0.553Q0.593 0.561 0.576 0.565Q0.559 0.568 0.544 0.576L0.539 0.582V0.663Q0.535 0.663 0.534 0.665Q0.532 0.668 0.528 0.671Q0.513 0.674 0.476 0.686L0.472 0.693V0.799L0.478 0.805Q0.510 0.798 0.542 0.787Q0.574 0.775 0.607 0.761Q0.673 0.731 0.738 0.765Q0.740 0.789 0.739 0.812Q0.738 0.835 0.739 0.861L0.736 0.866Q0.708 0.877 0.680 0.886Q0.652 0.894 0.624 0.904Q0.550 0.928 0.477 0.953Q0.404 0.979 0.331 1.000H0.325ZM0.326 0.978Q0.324 0.959 0.326 0.944Q0.328 0.928 0.324 0.911Q0.311 0.904 0.300 0.902Q0.288 0.900 0.278 0.894L0.274 0.897V0.961Q0.284 0.971 0.298 0.974Q0.311 0.977 0.322 0.982ZM0.326 0.890Q0.324 0.872 0.326 0.856Q0.328 0.839 0.324 0.822Q0.311 0.818 0.300 0.814Q0.288 0.810 0.278 0.805L0.274 0.808Q0.275 0.826 0.274 0.843Q0.273 0.860 0.275 0.875Q0.287 0.881 0.299 0.884Q0.310 0.886 0.320 0.893ZM0.476 0.849Q0.484 0.843 0.490 0.843Q0.497 0.842 0.503 0.840L0.506 0.836Q0.498 0.836 0.492 0.833Q0.487 0.829 0.481 0.829L0.473 0.830Q0.474 0.835 0.473 0.840Q0.472 0.845 0.475 0.849ZM0.533 0.830Q0.545 0.825 0.555 0.822Q0.565 0.818 0.573 0.816Q0.534 0.796 0.495 0.816Q0.503 0.818 0.513 0.822Q0.522 0.825 0.533 0.830ZM0.599 0.808Q0.609 0.802 0.619 0.800Q0.630 0.798 0.640 0.794Q0.630 0.789 0.621 0.787Q0.612 0.785 0.603 0.780Q0.573 0.788 0.562 0.796Q0.576 0.797 0.599 0.808ZM0.326 0.800Q0.324 0.783 0.326 0.766Q0.328 0.750 0.324 0.733Q0.311 0.727 0.300 0.725Q0.288 0.723 0.278 0.717L0.274 0.721Q0.276 0.739 0.274 0.755Q0.272 0.770 0.277 0.788Q0.288 0.794 0.300 0.796Q0.311 0.799 0.322 0.805ZM0.666 0.786Q0.675 0.778 0.687 0.778Q0.700 0.777 0.706 0.769Q0.685 0.764 0.665 0.763Q0.646 0.761 0.627 0.771Q0.638 0.777 0.648 0.778Q0.657 0.779 0.666 0.786ZM0.334 0.718Q0.344 0.715 0.355 0.711Q0.365 0.706 0.373 0.706L0.371 0.703Q0.361 0.703 0.351 0.698Q0.341 0.693 0.333 0.691Q0.322 0.697 0.311 0.699Q0.301 0.701 0.293 0.706Q0.304 0.707 0.313 0.712Q0.322 0.716 0.331 0.718ZM0.392 0.690V0.629L0.388 0.621Q0.374 0.616 0.363 0.612Q0.352 0.609 0.345 0.605L0.341 0.609Q0.342 0.626 0.341 0.643Q0.340 0.661 0.342 0.676Q0.355 0.682 0.366 0.684Q0.377 0.687 0.388 0.693ZM0.400 0.609Q0.408 0.603 0.420 0.600Q0.431 0.598 0.440 0.595Q0.431 0.589 0.421 0.587Q0.411 0.584 0.403 0.580Q0.372 0.588 0.362 0.596Q0.377 0.597 0.400 0.609ZM0.459 0.579Q0.456 0.562 0.459 0.544Q0.461 0.526 0.454 0.509Q0.427 0.499 0.412 0.496L0.408 0.498Q0.409 0.515 0.408 0.533Q0.407 0.550 0.409 0.565Q0.422 0.570 0.433 0.574Q0.444 0.578 0.454 0.582ZM0.467 0.496Q0.476 0.491 0.487 0.489Q0.498 0.488 0.506 0.481Q0.499 0.480 0.490 0.477Q0.481 0.475 0.467 0.470Q0.456 0.474 0.445 0.476Q0.435 0.479 0.428 0.484Q0.439 0.486 0.466 0.496ZM0.526 0.466V0.405L0.521 0.398Q0.511 0.394 0.500 0.391Q0.490 0.388 0.481 0.384L0.473 0.386V0.450Q0.478 0.457 0.482 0.458Q0.499 0.460 0.520 0.471ZM0.533 0.386Q0.544 0.380 0.552 0.379Q0.561 0.378 0.571 0.371Q0.531 0.350 0.495 0.373Q0.505 0.375 0.514 0.380Q0.523 0.384 0.533 0.386ZM0.592 0.359V0.295L0.587 0.287Q0.576 0.283 0.565 0.280Q0.555 0.278 0.546 0.272L0.540 0.275Q0.541 0.294 0.540 0.310Q0.539 0.327 0.543 0.343Q0.555 0.349 0.565 0.352Q0.576 0.355 0.587 0.361ZM0.326 0.266V0.205L0.322 0.198Q0.311 0.194 0.300 0.191Q0.289 0.188 0.280 0.185L0.274 0.186V0.250Q0.276 0.256 0.282 0.258Q0.290 0.259 0.300 0.263Q0.309 0.266 0.320 0.271ZM0.592 0.267V0.210L0.588 0.205Q0.575 0.211 0.564 0.215Q0.553 0.218 0.540 0.225V0.250Q0.544 0.256 0.549 0.258Q0.563 0.260 0.587 0.271ZM0.333 0.186Q0.343 0.180 0.353 0.178Q0.364 0.177 0.373 0.172Q0.363 0.166 0.352 0.164Q0.342 0.163 0.333 0.159Q0.328 0.163 0.324 0.163Q0.320 0.164 0.317 0.166Q0.303 0.166 0.295 0.174Q0.305 0.175 0.314 0.179Q0.323 0.184 0.333 0.186ZM0.400 0.164Q0.409 0.158 0.420 0.157Q0.431 0.155 0.439 0.148Q0.426 0.146 0.412 0.141Q0.399 0.135 0.388 0.139Q0.383 0.141 0.365 0.148L0.362 0.151Q0.372 0.152 0.381 0.157Q0.390 0.162 0.400 0.164ZM0.466 0.141Q0.481 0.136 0.491 0.133Q0.501 0.129 0.507 0.127Q0.496 0.122 0.485 0.120Q0.474 0.118 0.466 0.114Q0.458 0.116 0.452 0.119Q0.446 0.122 0.440 0.122Q0.436 0.125 0.433 0.126Q0.430 0.126 0.428 0.127Q0.438 0.131 0.447 0.135Q0.456 0.138 0.466 0.141ZM0.534 0.119Q0.544 0.116 0.554 0.111Q0.564 0.106 0.573 0.106L0.571 0.103Q0.560 0.103 0.550 0.098Q0.540 0.093 0.533 0.091Q0.522 0.098 0.511 0.100Q0.500 0.102 0.493 0.106Q0.503 0.108 0.512 0.112Q0.521 0.117 0.531 0.119ZM0.598 0.097Q0.609 0.093 0.619 0.090Q0.630 0.086 0.640 0.084Q0.633 0.078 0.623 0.078Q0.614 0.077 0.607 0.071Q0.595 0.072 0.584 0.076Q0.572 0.079 0.560 0.084Q0.570 0.086 0.579 0.090Q0.588 0.093 0.598 0.097ZM0.669 0.074Q0.678 0.071 0.688 0.067Q0.699 0.063 0.707 0.062Q0.689 0.054 0.671 0.051Q0.653 0.048 0.637 0.058Q0.623 0.065 0.626 0.062Q0.636 0.066 0.647 0.068Q0.657 0.070 0.666 0.076Z" fill="black"/>
</svg>
