<svg xmlns="http://www.w3.org/2000/svg" viewBox="0 0 1 1" preserveAspectRatio="xMidYMid meet">
  <path d="M0.661 1.000Q0.560 0.962 0.458 0.931Q0.356 0.899 0.255 0.861V0.579Q0.269 0.572 0.285 0.568Q0.300 0.564 0.317 0.558Q0.323 0.548 0.321 0.537Q0.319 0.526 0.322 0.514L0.325 0.510Q0.340 0.502 0.355 0.499Q0.371 0.496 0.387 0.487Q0.392 0.478 0.390 0.466Q0.388 0.455 0.391 0.445Q0.404 0.436 0.421 0.432Q0.439 0.428 0.455 0.420L0.459 0.414V0.377L0.463 0.372Q0.480 0.366 0.494 0.361Q0.508 0.357 0.519 0.355Q0.521 0.353 0.527 0.346V0.229Q0.463 0.200 0.394 0.180Q0.325 0.161 0.258 0.134L0.255 0.130Q0.255 0.035 0.258 0.033Q0.261 0.030 0.266 0.026Q0.278 0.025 0.290 0.021Q0.301 0.016 0.316 0.012Q0.422 0.037 0.526 0.073Q0.629 0.110 0.733 0.141L0.740 0.144L0.745 0.151V0.427Q0.714 0.443 0.688 0.448L0.680 0.450L0.676 0.457V0.494L0.672 0.498Q0.653 0.508 0.616 0.516Q0.613 0.518 0.612 0.521Q0.610 0.523 0.607 0.528V0.564Q0.612 0.559 0.595 0.571Q0.575 0.575 0.543 0.588Q0.538 0.599 0.540 0.609Q0.542 0.620 0.539 0.631Q0.526 0.640 0.509 0.645Q0.491 0.649 0.476 0.655L0.471 0.663V0.777L0.476 0.784Q0.541 0.808 0.608 0.829Q0.674 0.850 0.741 0.873L0.745 0.878V0.974Q0.747 0.972 0.743 0.974Q0.740 0.976 0.733 0.981Q0.725 0.981 0.704 0.990Q0.694 0.997 0.683 0.997Q0.672 0.997 0.662 1.000H0.661ZM0.662 0.978Q0.659 0.958 0.662 0.942Q0.664 0.926 0.659 0.909Q0.647 0.902 0.635 0.900Q0.624 0.898 0.613 0.892L0.608 0.895V0.960Q0.620 0.970 0.633 0.973Q0.647 0.977 0.658 0.982ZM0.593 0.956Q0.591 0.938 0.594 0.920Q0.596 0.901 0.589 0.884Q0.576 0.879 0.565 0.876Q0.554 0.873 0.546 0.871L0.541 0.873Q0.542 0.891 0.541 0.908Q0.540 0.925 0.543 0.941Q0.554 0.946 0.566 0.950Q0.578 0.954 0.589 0.958ZM0.525 0.933Q0.522 0.915 0.524 0.896Q0.527 0.878 0.520 0.861Q0.499 0.857 0.477 0.847L0.472 0.850Q0.474 0.868 0.473 0.885Q0.471 0.902 0.474 0.918Q0.486 0.923 0.498 0.927Q0.509 0.932 0.520 0.936ZM0.458 0.909Q0.455 0.890 0.457 0.873Q0.459 0.857 0.455 0.839Q0.421 0.830 0.408 0.823L0.404 0.826Q0.405 0.846 0.404 0.862Q0.403 0.879 0.405 0.895Q0.417 0.901 0.429 0.904Q0.441 0.908 0.451 0.914ZM0.669 0.895Q0.677 0.889 0.689 0.887Q0.700 0.885 0.709 0.878Q0.698 0.874 0.688 0.872Q0.677 0.870 0.667 0.866Q0.657 0.871 0.646 0.874Q0.636 0.877 0.630 0.880Q0.649 0.885 0.669 0.895ZM0.389 0.885Q0.386 0.867 0.388 0.850Q0.390 0.833 0.386 0.816Q0.373 0.814 0.360 0.808Q0.348 0.802 0.337 0.802Q0.339 0.820 0.337 0.838Q0.335 0.857 0.340 0.873Q0.351 0.877 0.362 0.881Q0.373 0.884 0.382 0.890ZM0.603 0.871Q0.613 0.867 0.624 0.863Q0.635 0.859 0.643 0.858Q0.600 0.836 0.560 0.858Q0.582 0.863 0.602 0.873ZM0.320 0.864V0.802L0.316 0.794Q0.303 0.790 0.293 0.786Q0.282 0.782 0.273 0.778L0.268 0.780V0.847Q0.272 0.853 0.276 0.854Q0.286 0.856 0.296 0.860Q0.305 0.864 0.316 0.868ZM0.533 0.850Q0.541 0.841 0.552 0.840Q0.564 0.838 0.574 0.834Q0.564 0.830 0.556 0.828Q0.548 0.826 0.539 0.821Q0.529 0.823 0.516 0.826Q0.503 0.829 0.493 0.836Q0.502 0.837 0.512 0.841Q0.522 0.845 0.533 0.850ZM0.464 0.826Q0.475 0.821 0.486 0.818Q0.497 0.814 0.506 0.812Q0.466 0.791 0.424 0.812Q0.441 0.815 0.464 0.826ZM0.389 0.795Q0.386 0.776 0.388 0.760Q0.390 0.744 0.386 0.726Q0.373 0.722 0.360 0.717Q0.348 0.713 0.337 0.711V0.780Q0.346 0.787 0.359 0.790Q0.372 0.793 0.382 0.799ZM0.320 0.775V0.710L0.316 0.702Q0.303 0.697 0.293 0.695Q0.282 0.693 0.273 0.687L0.268 0.690V0.756Q0.278 0.765 0.292 0.768Q0.305 0.771 0.317 0.777ZM0.389 0.704Q0.386 0.687 0.389 0.669Q0.392 0.650 0.384 0.633Q0.373 0.632 0.362 0.627Q0.351 0.621 0.341 0.619L0.337 0.621V0.687L0.341 0.694Q0.352 0.695 0.363 0.700Q0.374 0.704 0.384 0.708ZM0.320 0.682V0.619L0.316 0.612Q0.303 0.608 0.293 0.604Q0.282 0.600 0.273 0.598L0.268 0.599V0.664Q0.273 0.671 0.276 0.673Q0.286 0.674 0.296 0.678Q0.305 0.682 0.316 0.685ZM0.458 0.638Q0.455 0.620 0.457 0.602Q0.460 0.583 0.453 0.566Q0.442 0.561 0.431 0.558Q0.420 0.556 0.410 0.551L0.404 0.553V0.619Q0.408 0.625 0.412 0.626Q0.433 0.629 0.451 0.639ZM0.389 0.614Q0.386 0.596 0.388 0.579Q0.390 0.562 0.386 0.545Q0.373 0.540 0.360 0.535Q0.348 0.529 0.337 0.529V0.599Q0.346 0.606 0.359 0.607Q0.372 0.609 0.382 0.617ZM0.320 0.590V0.576L0.316 0.574Q0.309 0.578 0.300 0.580Q0.292 0.582 0.289 0.585Q0.296 0.585 0.302 0.589Q0.309 0.593 0.316 0.593ZM0.525 0.571V0.505L0.520 0.497Q0.509 0.493 0.498 0.490Q0.487 0.488 0.477 0.482L0.472 0.486V0.551Q0.483 0.560 0.497 0.563Q0.511 0.566 0.522 0.572ZM0.458 0.546Q0.455 0.528 0.457 0.510Q0.460 0.492 0.453 0.474Q0.440 0.472 0.426 0.466Q0.413 0.461 0.404 0.461V0.526L0.408 0.534Q0.419 0.538 0.430 0.541Q0.442 0.544 0.451 0.550ZM0.389 0.525Q0.388 0.520 0.389 0.516Q0.390 0.511 0.387 0.507L0.384 0.505Q0.375 0.513 0.356 0.514Q0.363 0.518 0.371 0.521Q0.378 0.523 0.384 0.526ZM0.593 0.500V0.435L0.589 0.428Q0.578 0.427 0.567 0.422Q0.555 0.417 0.546 0.415L0.541 0.417Q0.542 0.435 0.541 0.452Q0.540 0.470 0.543 0.486Q0.554 0.492 0.566 0.494Q0.578 0.497 0.589 0.503ZM0.525 0.478V0.415L0.520 0.407Q0.509 0.403 0.498 0.399Q0.487 0.395 0.477 0.392L0.472 0.393V0.459Q0.477 0.466 0.480 0.467Q0.491 0.470 0.501 0.473Q0.510 0.477 0.520 0.481ZM0.458 0.456Q0.456 0.451 0.457 0.447Q0.458 0.442 0.456 0.438L0.453 0.436Q0.446 0.441 0.438 0.442Q0.429 0.443 0.424 0.448Q0.432 0.450 0.451 0.457ZM0.662 0.433Q0.659 0.415 0.662 0.396Q0.665 0.378 0.658 0.361Q0.647 0.357 0.636 0.354Q0.625 0.351 0.614 0.346L0.608 0.348V0.414Q0.613 0.421 0.616 0.422Q0.625 0.423 0.635 0.426Q0.645 0.430 0.656 0.435ZM0.593 0.409Q0.591 0.390 0.593 0.373Q0.595 0.357 0.591 0.339Q0.577 0.335 0.565 0.330Q0.553 0.325 0.541 0.325V0.393Q0.551 0.399 0.564 0.402Q0.576 0.405 0.588 0.412ZM0.525 0.386V0.371L0.520 0.369Q0.514 0.373 0.506 0.375Q0.498 0.377 0.493 0.381Q0.502 0.381 0.508 0.385Q0.514 0.388 0.520 0.388ZM0.662 0.341Q0.659 0.323 0.662 0.305Q0.665 0.287 0.658 0.269Q0.644 0.267 0.631 0.262Q0.618 0.256 0.608 0.256V0.322L0.613 0.328Q0.624 0.333 0.635 0.336Q0.646 0.338 0.656 0.345ZM0.593 0.318V0.256L0.589 0.248Q0.569 0.239 0.546 0.233L0.541 0.235Q0.542 0.254 0.541 0.271Q0.540 0.288 0.543 0.304Q0.554 0.309 0.566 0.313Q0.578 0.317 0.589 0.322ZM0.662 0.248V0.186L0.658 0.179Q0.647 0.174 0.636 0.171Q0.625 0.169 0.614 0.165L0.608 0.166V0.232Q0.613 0.239 0.616 0.240Q0.625 0.241 0.635 0.244Q0.645 0.248 0.656 0.253ZM0.593 0.227Q0.591 0.208 0.593 0.192Q0.595 0.175 0.591 0.158Q0.577 0.153 0.565 0.147Q0.553 0.141 0.541 0.141V0.210Q0.551 0.218 0.564 0.221Q0.576 0.224 0.588 0.230ZM0.525 0.205Q0.522 0.187 0.524 0.169Q0.527 0.151 0.522 0.133Q0.511 0.131 0.499 0.126Q0.486 0.121 0.479 0.118L0.472 0.120V0.186L0.477 0.192Q0.488 0.197 0.499 0.200Q0.510 0.202 0.520 0.207ZM0.458 0.181Q0.455 0.163 0.457 0.146Q0.459 0.129 0.455 0.112Q0.443 0.106 0.431 0.103Q0.419 0.101 0.408 0.096L0.404 0.099V0.165Q0.414 0.174 0.428 0.177Q0.442 0.180 0.453 0.186ZM0.669 0.166Q0.679 0.160 0.689 0.159Q0.699 0.158 0.709 0.151Q0.668 0.129 0.630 0.152Q0.641 0.153 0.650 0.159Q0.659 0.164 0.669 0.166ZM0.389 0.160Q0.386 0.141 0.389 0.123Q0.392 0.105 0.384 0.087Q0.367 0.082 0.357 0.079Q0.346 0.076 0.341 0.074L0.337 0.076Q0.338 0.095 0.337 0.112Q0.336 0.129 0.338 0.144Q0.350 0.150 0.361 0.154Q0.373 0.158 0.384 0.163ZM0.600 0.143Q0.611 0.139 0.621 0.136Q0.631 0.133 0.641 0.128Q0.626 0.123 0.615 0.120Q0.605 0.117 0.600 0.115Q0.595 0.117 0.591 0.118Q0.587 0.120 0.582 0.122Q0.576 0.122 0.571 0.125Q0.566 0.128 0.561 0.128Q0.572 0.132 0.581 0.136Q0.591 0.139 0.600 0.143ZM0.320 0.136Q0.318 0.118 0.320 0.100Q0.323 0.082 0.316 0.064Q0.303 0.060 0.293 0.058Q0.282 0.056 0.273 0.050L0.268 0.053Q0.269 0.071 0.268 0.088Q0.267 0.106 0.270 0.122Q0.281 0.128 0.292 0.131Q0.303 0.133 0.316 0.139ZM0.531 0.120Q0.542 0.118 0.553 0.113Q0.564 0.108 0.574 0.106Q0.563 0.104 0.552 0.099Q0.541 0.095 0.531 0.092Q0.524 0.093 0.517 0.097Q0.511 0.101 0.506 0.101Q0.502 0.103 0.498 0.103Q0.495 0.104 0.492 0.106Q0.504 0.110 0.513 0.113Q0.522 0.117 0.531 0.120ZM0.466 0.097Q0.475 0.093 0.486 0.089Q0.497 0.084 0.506 0.084L0.504 0.080Q0.492 0.080 0.483 0.075Q0.473 0.070 0.464 0.069Q0.453 0.075 0.442 0.077Q0.430 0.079 0.423 0.084Q0.435 0.085 0.444 0.090Q0.453 0.095 0.463 0.097ZM0.395 0.074Q0.405 0.070 0.416 0.067Q0.427 0.064 0.435 0.059Q0.424 0.055 0.415 0.053Q0.405 0.051 0.397 0.047Q0.386 0.051 0.375 0.054Q0.363 0.057 0.356 0.061Q0.378 0.067 0.395 0.074ZM0.330 0.051Q0.341 0.046 0.350 0.044Q0.359 0.043 0.370 0.039Q0.361 0.033 0.352 0.032Q0.342 0.032 0.335 0.025Q0.326 0.023 0.318 0.027Q0.310 0.032 0.302 0.032Q0.298 0.036 0.294 0.036Q0.289 0.037 0.289 0.040Q0.297 0.041 0.307 0.044Q0.317 0.048 0.328 0.053Z" fill="black"/>
</svg>
