<svg xmlns="http://www.w3.org/2000/svg" viewBox="0 0 241.3044 506.9858" width="241.3044" height="506.9858">
  <path id="text.002" fill="black" fill-rule="evenodd" stroke="none" d="M 152.2266 370.7975 C 150.4836 369.9561 148.7407 369.1148 146.9978 368.2734 C 145.1268 367.4029 143.2558 366.5324 141.3848 365.6619 C 139.3857 364.7622 137.3866 363.8625 135.3875 362.9628 C 133.2604 362.0340 131.1332 361.1051 129.0061 360.1763 C 112.8461 353.3288 96.6861 346.4814 80.5261 339.6339 C 76.3117 337.6913 72.0974 335.7486 67.8830 333.8060 C 64.0351 331.7517 60.1872 329.6975 56.3393 327.6433 C 52.8579 325.4774 49.3765 323.3116 45.8951 321.1458 C 42.7801 318.8684 39.6651 316.5910 36.5502 314.3135 C 33.8017 311.9245 31.0532 309.5355 28.3047 307.1465 C 25.9227 304.6459 23.5407 302.1454 21.1586 299.6448 C 19.1431 297.0326 17.1275 294.4204 15.1119 291.8082 C 13.4629 289.0845 11.8138 286.3607 10.1647 283.6369 C 8.8820 280.8016 7.5994 277.9662 6.3168 275.1309 C 5.4006 272.1839 4.4845 269.2370 3.5683 266.2900 C 3.0186 263.2315 2.4689 260.1730 1.9192 257.1144 C 1.7359 253.9443 1.5527 250.7742 1.3695 247.6041 C 1.4620 245.3083 1.5546 243.0125 1.6472 240.7167 C 1.9249 238.4247 2.2026 236.1327 2.4803 233.8407 C 2.9431 231.5525 3.4060 229.2643 3.8688 226.9761 C 4.5168 224.6917 5.1647 222.4073 5.8127 220.1230 C 6.6458 217.8424 7.4789 215.5618 8.3120 213.2812 C 9.3303 211.0044 10.3485 208.7277 11.3668 206.4509 C 12.5701 204.1779 13.7735 201.9049 14.9769 199.6319 C 16.3654 197.3628 17.7539 195.0936 19.1424 192.8244 C 20.7161 190.5591 22.2897 188.2937 23.8634 186.0283 C 25.6222 183.7668 27.3809 181.5052 29.1397 179.2436 C 31.0836 176.9859 33.0276 174.7281 34.9715 172.4704 C 37.1005 170.2164 39.2296 167.9625 41.3586 165.7085 C 39.3025 164.2445 37.2463 162.7806 35.1902 161.3166 C 33.3129 159.7854 31.4355 158.2543 29.5582 156.7231 C 27.8596 155.1247 26.1611 153.5264 24.4625 151.9280 C 22.9428 150.2624 21.4230 148.5968 19.9033 146.9312 C 18.5623 145.1985 17.2213 143.4657 15.8804 141.7329 C 14.7182 139.9329 13.5560 138.1329 12.3939 136.3329 C 11.4105 134.4657 10.4271 132.5985 9.4438 130.7313 C 8.6392 128.7969 7.8346 126.8625 7.0300 124.9281 C 6.4042 122.9265 5.7784 120.9248 5.1527 118.9232 C 4.7057 116.8544 4.2587 114.7856 3.8117 112.7168 C 3.5435 110.5808 3.2753 108.4447 3.0071 106.3087 C 2.9177 104.1055 2.8283 101.9022 2.7390 99.6990 C 2.8211 97.2441 2.9032 94.7891 2.9853 92.3342 C 3.2316 89.9604 3.4779 87.5866 3.7242 85.2128 C 4.1348 82.9202 4.5453 80.6276 4.9558 78.3349 C 5.5306 76.1235 6.1053 73.9120 6.6800 71.7005 C 7.4190 69.5702 8.1580 67.4399 8.8969 65.3096 C 9.8001 63.2604 10.7033 61.2112 11.6064 59.1621 C 12.6738 57.1941 13.7412 55.2261 14.8085 53.2580 C 16.0401 51.3712 17.2717 49.4843 18.5033 47.5975 C 19.8991 45.7918 21.2949 43.9861 22.6908 42.1804 C 24.2508 40.4558 25.8108 38.7313 27.3708 37.0068 C 29.0950 35.3633 30.8192 33.7200 32.5435 32.0766 C 34.4319 30.5143 36.3203 28.9521 38.2088 27.3899 C 40.2310 25.9316 42.2532 24.4734 44.2755 23.0151 C 46.4010 21.6837 48.5266 20.3522 50.6521 19.0208 C 52.8811 17.8161 55.1100 16.6115 57.3389 15.4068 C 59.6711 14.3290 62.0034 13.2511 64.3357 12.1733 C 66.7713 11.2222 69.2069 10.2712 71.6425 9.3202 C 74.1814 8.4959 76.7204 7.6717 79.2593 6.8475 C 81.9016 6.1501 84.5439 5.4526 87.1862 4.7552 C 89.9318 4.1846 92.6775 3.6140 95.4231 3.0433 C 98.2721 2.5995 101.1211 2.1557 103.9701 1.7119 C 106.9224 1.3949 109.8747 1.0779 112.8271 0.7608 C 115.8827 0.5706 118.9384 0.3804 121.9941 0.1902 C 125.1531 0.1268 128.3121 0.0634 131.4712 0.0000 C 133.7822 0.0298 136.0932 0.0596 138.4042 0.0894 C 140.7723 0.1788 143.1404 0.2682 145.5085 0.3576 C 147.9336 0.5066 150.3587 0.6556 152.7839 0.8046 C 155.2661 1.0132 157.7483 1.2218 160.2305 1.4304 C 162.7697 1.6986 165.3090 1.9668 167.8483 2.2350 C 170.4446 2.5628 173.0409 2.8906 175.6373 3.2183 C 178.2906 3.6058 180.9440 3.9931 183.5974 4.3805 C 186.3079 4.8275 189.0183 5.2745 191.7288 5.7215 C 194.4963 6.2281 197.2638 6.7347 200.0313 7.2413 C 202.8559 7.8075 205.6805 8.3736 208.5050 8.9398 C 211.3867 9.5656 214.2683 10.1914 217.1500 10.8172 C 220.0887 11.5026 223.0274 12.1879 225.9661 12.8733 C 225.9661 27.4812 225.9661 42.0891 225.9661 56.6970 C 222.9278 55.8366 219.8896 54.9762 216.8514 54.1159 C 213.8841 53.3303 210.9169 52.5448 207.9497 51.7592 C 205.0534 51.0485 202.1572 50.3377 199.2610 49.6270 C 196.4358 48.9911 193.6106 48.3551 190.7854 47.7192 C 188.0312 47.1581 185.2770 46.5970 182.5228 46.0359 C 179.8396 45.5496 177.1564 45.0633 174.4732 44.5770 C 171.8610 44.1655 169.2488 43.7540 166.6367 43.3425 C 164.0955 43.0059 161.5543 42.6692 159.0132 42.3326 C 156.5430 42.0707 154.0728 41.8088 151.6027 41.5470 C 149.2036 41.3600 146.8044 41.1729 144.4053 40.9859 C 142.0771 40.8737 139.7490 40.7614 137.4209 40.6492 C 135.1637 40.6118 132.9066 40.5744 130.6495 40.5370 C 128.7179 40.5693 126.7864 40.6017 124.8548 40.6340 C 122.9860 40.7310 121.1172 40.8280 119.2485 40.9250 C 117.4424 41.0867 115.6364 41.2484 113.8304 41.4100 C 112.0872 41.6364 110.3439 41.8627 108.6007 42.0891 C 106.9202 42.3801 105.2397 42.6711 103.5592 42.9621 C 101.9415 43.3178 100.3238 43.6735 98.7061 44.0292 C 97.1511 44.4495 95.5962 44.8699 94.0413 45.2903 C 92.5491 45.7753 91.0569 46.2603 89.5647 46.7453 C 88.1353 47.2950 86.7059 47.8447 85.2765 48.3944 C 83.9099 49.0088 82.5432 49.6232 81.1766 50.2376 C 79.8727 50.9166 78.5688 51.5956 77.2650 52.2747 C 76.0239 53.0184 74.7828 53.7621 73.5417 54.5058 C 72.3824 55.3021 71.2230 56.0985 70.0637 56.8948 C 69.0052 57.7317 67.9467 58.5686 66.8882 59.4055 C 65.9305 60.2830 64.9728 61.1605 64.0151 62.0380 C 63.1583 62.9561 62.3014 63.8741 61.4445 64.7922 C 60.6884 65.7508 59.9323 66.7095 59.1763 67.6681 C 58.5210 68.6673 57.8657 69.6666 57.2105 70.6658 C 56.6560 71.7056 56.1016 72.7454 55.5471 73.7852 C 55.0935 74.8656 54.6398 75.9459 54.1862 77.0263 C 53.8334 78.1473 53.4805 79.2682 53.1277 80.3892 C 52.8757 81.5507 52.6236 82.7123 52.3716 83.8738 C 52.2204 85.0759 52.0692 86.2780 51.9180 87.4801 C 51.8676 88.7228 51.8172 89.9655 51.7668 91.2082 C 51.7915 92.1082 51.8162 93.0082 51.8409 93.9082 C 51.9151 94.7822 51.9893 95.6562 52.0635 96.5302 C 52.1871 97.3782 52.3108 98.2262 52.4344 99.0742 C 52.6075 99.8962 52.7806 100.7182 52.9537 101.5402 C 53.1762 102.3362 53.3987 103.1323 53.6213 103.9283 C 53.8933 104.6983 54.1653 105.4683 54.4373 106.2383 C 54.7587 106.9824 55.0802 107.7264 55.4016 108.4704 C 55.7725 109.1885 56.1434 109.9065 56.5143 110.6245 C 56.9347 111.3166 57.3550 112.0086 57.7754 112.7006 C 58.2452 113.3667 58.7150 114.0327 59.1848 114.6987 C 59.7041 115.3388 60.2234 115.9788 60.7426 116.6189 C 61.3113 117.2329 61.8801 117.8470 62.4488 118.4610 C 63.0790 119.0618 63.7092 119.6625 64.3394 120.2632 C 65.0432 120.8634 65.7470 121.4635 66.4507 122.0636 C 67.2281 122.6630 68.0054 123.2625 68.7827 123.8620 C 69.6336 124.4608 70.4844 125.0596 71.3353 125.6585 C 72.2597 126.2567 73.1841 126.8549 74.1085 127.4531 C 75.1064 128.0506 76.1044 128.6482 77.1024 129.2458 C 78.1739 129.8427 79.2453 130.4396 80.3168 131.0366 C 81.4619 131.6329 82.6069 132.2292 83.7520 132.8255 C 84.9706 133.4211 86.1892 134.0168 87.4078 134.6125 C 88.6999 135.2075 89.9921 135.8025 91.2842 136.3976 C 92.6499 136.9920 94.0156 137.5864 95.3812 138.1808 C 96.8205 138.7745 98.2597 139.3683 99.6989 139.9621 C 112.1157 144.9835 124.5324 150.0050 136.9491 155.0265 C 140.0181 156.2872 143.0871 157.5480 146.1561 158.8087 C 149.0634 160.0651 151.9707 161.3214 154.8781 162.5777 C 157.6237 163.8296 160.3693 165.0815 163.1150 166.3333 C 165.6989 167.5808 168.2829 168.8282 170.8669 170.0757 C 173.2892 171.3187 175.7114 172.5617 178.1337 173.8047 C 180.3943 175.0432 182.6549 176.2818 184.9155 177.5204 C 187.0145 178.7545 189.1134 179.9886 191.2124 181.2228 C 193.1496 182.4524 195.0869 183.6821 197.0241 184.9118 C 198.7997 186.1371 200.5753 187.3623 202.3509 188.5876 C 203.9648 189.8084 205.5787 191.0292 207.1926 192.2500 C 208.6448 193.4664 210.0971 194.6828 211.5493 195.8991 C 212.8399 197.1111 214.1304 198.3230 215.4210 199.5349 C 216.5803 200.7729 217.7396 202.0108 218.8989 203.2487 C 219.9574 204.5431 221.0159 205.8375 222.0744 207.1318 C 223.0321 208.4826 223.9898 209.8334 224.9475 211.1842 C 225.8044 212.5914 226.6613 213.9986 227.5182 215.4058 C 228.2742 216.8695 229.0303 218.3331 229.7864 219.7968 C 230.4416 221.3168 231.0969 222.8369 231.7522 224.3570 C 232.3066 225.9335 232.8611 227.5100 233.4155 229.0865 C 233.8692 230.7194 234.3228 232.3523 234.7765 233.9853 C 235.1293 235.6746 235.4821 237.3640 235.8350 239.0533 C 236.0870 240.7991 236.3390 242.5449 236.5910 244.2907 C 236.7422 246.0929 236.8935 247.8951 237.0447 249.6973 C 237.0951 251.5560 237.1455 253.4146 237.1959 255.2732 C 237.1014 257.4492 237.0070 259.6252 236.9125 261.8011 C 236.6291 264.0076 236.3457 266.2140 236.0623 268.4204 C 235.5899 270.6572 235.1176 272.8940 234.6452 275.1309 C 233.9839 277.3981 233.3226 279.6654 232.6614 281.9327 C 231.8111 284.2304 230.9609 286.5281 230.1107 288.8258 C 229.0715 291.1539 228.0324 293.4821 226.9932 295.8102 C 225.7651 298.1688 224.5370 300.5273 223.3089 302.8859 C 221.8918 305.2749 220.4748 307.6639 219.0578 310.0529 C 217.4518 312.4723 215.8458 314.8918 214.2398 317.3112 C 212.4449 319.7611 210.6500 322.2109 208.8550 324.6608 C 206.8712 327.1411 204.8873 329.6214 202.9035 332.1017 C 200.7307 334.6125 198.5579 337.1232 196.3851 339.6339 C 198.7766 341.1289 201.1681 342.6240 203.5597 344.1190 C 205.7432 345.7129 207.9268 347.3069 210.1104 348.9008 C 212.0860 350.5936 214.0616 352.2865 216.0373 353.9793 C 217.8049 355.7711 219.5726 357.5628 221.3402 359.3546 C 222.8999 361.2452 224.4596 363.1359 226.0193 365.0266 C 227.3711 367.0161 228.7228 369.0057 230.0745 370.9953 C 231.2183 373.0838 232.3621 375.1722 233.5059 377.2607 C 234.4417 379.4481 235.3775 381.6355 236.3133 383.8229 C 237.0412 386.1091 237.7690 388.3954 238.4969 390.6817 C 239.0168 393.0669 239.5367 395.4521 240.0566 397.8373 C 240.3685 400.3214 240.6805 402.8055 240.9924 405.2896 C 241.0964 407.8726 241.2004 410.4556 241.3044 413.0387 C 241.2197 415.3871 241.1351 417.7355 241.0504 420.0839 C 240.7965 422.3512 240.5426 424.6185 240.2887 426.8857 C 239.8654 429.0718 239.4422 431.2580 239.0190 433.4441 C 238.4265 435.5490 237.8340 437.6540 237.2415 439.7589 C 236.4798 441.7827 235.7180 443.8065 234.9562 445.8304 C 234.0251 447.7730 233.0941 449.7157 232.1630 451.6583 C 231.0627 453.5198 229.9623 455.3813 228.8620 457.2428 C 227.5923 459.0231 226.3227 460.8035 225.0531 462.5838 C 223.6142 464.2830 222.1752 465.9822 220.7363 467.6813 C 219.1281 469.2994 217.5199 470.9174 215.9117 472.5354 C 214.1342 474.0723 212.3567 475.6092 210.5793 477.1461 C 208.6325 478.6018 206.6857 480.0575 204.7390 481.5132 C 202.6502 482.8694 200.5614 484.2256 198.4726 485.5817 C 196.2690 486.8200 194.0655 488.0582 191.8619 489.2965 C 189.5436 490.4168 187.2253 491.5371 184.9070 492.6575 C 182.4739 493.6599 180.0409 494.6622 177.6078 495.6646 C 175.0600 496.5491 172.5122 497.4335 169.9643 498.3180 C 167.3018 499.0845 164.6392 499.8511 161.9766 500.6176 C 159.1993 501.2662 156.4219 501.9148 153.6446 502.5634 C 150.7525 503.0941 147.8604 503.6248 144.9682 504.1555 C 141.9614 504.5682 138.9545 504.9810 135.9477 505.3937 C 132.8261 505.6885 129.7044 505.9834 126.5828 506.2782 C 123.3465 506.4551 120.1101 506.6320 116.8737 506.8089 C 113.5226 506.8678 110.1715 506.9268 106.8203 506.9858 C 104.3971 506.9389 101.9738 506.8919 99.5506 506.8450 C 97.0284 506.7043 94.5063 506.5635 91.9841 506.4227 C 89.3631 506.1882 86.7420 505.9536 84.1210 505.7190 C 81.4010 505.3905 78.6811 505.0621 75.9611 504.7337 C 73.1422 504.3114 70.3234 503.8892 67.5045 503.4669 C 64.5867 502.9508 61.6689 502.4347 58.7512 501.9186 C 55.7345 501.3087 52.7178 500.6987 49.7011 500.0888 C 46.5855 499.3851 43.4699 498.6813 40.3543 497.9775 C 37.1398 497.1799 33.9253 496.3823 30.7108 495.5847 C 27.3974 494.6933 24.0840 493.8019 20.7706 492.9104 C 17.3583 491.9251 13.9460 490.9399 10.5336 489.9546 C 7.0224 488.8755 3.5112 487.7964 0.0000 486.7173 C 0.0000 470.2834 0.0000 453.8495 0.0000 437.4156 C 3.6361 438.9468 7.2722 440.4779 10.9084 442.0091 C 14.4519 443.4071 17.9955 444.8051 21.5390 446.2032 C 24.9900 447.4680 28.4410 448.7329 31.8920 449.9978 C 35.2504 451.1295 38.6088 452.2613 41.9673 453.3930 C 45.2331 454.3916 48.4990 455.3902 51.7649 456.3888 C 54.9381 457.2542 58.1114 458.1197 61.2847 458.9851 C 64.3654 459.7174 67.4461 460.4497 70.5269 461.1820 C 73.5150 461.7811 76.5032 462.3803 79.4913 462.9795 C 82.3869 463.4455 85.2825 463.9115 88.1781 464.3775 C 90.9811 464.7104 93.7841 465.0432 96.5872 465.3761 C 99.2976 465.5758 102.0081 465.7755 104.7185 465.9752 C 107.3364 466.0418 109.9543 466.1084 112.5722 466.1749 C 114.5044 466.1432 116.4366 466.1115 118.3687 466.0798 C 120.2394 465.9847 122.1101 465.8896 123.9808 465.7945 C 125.7900 465.6360 127.5992 465.4775 129.4084 465.3190 C 131.1560 465.0971 132.9037 464.8752 134.6514 464.6533 C 136.3376 464.3680 138.0238 464.0827 139.7100 463.7973 C 141.3347 463.4486 142.9593 463.0999 144.5840 462.7512 C 146.1472 462.3391 147.7104 461.9270 149.2736 461.5149 C 150.7753 461.0394 152.2770 460.5638 153.7787 460.0883 C 155.2188 459.5494 156.6590 459.0105 158.0992 458.4715 C 159.4779 457.8692 160.8566 457.2669 162.2353 456.6646 C 163.5524 455.9989 164.8696 455.3331 166.1868 454.6674 C 167.4425 453.9383 168.6982 453.2091 169.9539 452.4800 C 171.1278 451.7001 172.3017 450.9203 173.4755 450.1404 C 174.5474 449.3226 175.6192 448.5047 176.6910 447.6868 C 177.6607 446.8308 178.6305 445.9749 179.6002 445.1190 C 180.4679 444.2250 181.3355 443.3310 182.2032 442.4371 C 182.9688 441.5051 183.7344 440.5730 184.4999 439.6410 C 185.1635 438.6710 185.8270 437.7009 186.4905 436.7309 C 187.0519 435.7228 187.6133 434.7147 188.1747 433.7066 C 188.6341 432.6604 189.0934 431.6143 189.5528 430.5682 C 189.9100 429.4840 190.2673 428.3998 190.6246 427.3156 C 190.8798 426.1934 191.1350 425.0712 191.3902 423.9490 C 191.5433 422.7887 191.6964 421.6284 191.8495 420.4682 C 191.9006 419.2699 191.9516 418.0715 192.0027 416.8732 C 191.9754 415.8715 191.9481 414.8697 191.9209 413.8679 C 191.8391 412.9017 191.7573 411.9355 191.6755 410.9692 C 191.5392 410.0385 191.4029 409.1077 191.2666 408.1770 C 191.0757 407.2817 190.8849 406.3865 190.6941 405.4912 C 190.4487 404.6315 190.2033 403.7718 189.9579 402.9120 C 189.6580 402.0878 189.3581 401.2636 189.0582 400.4393 C 188.7038 399.6506 188.3494 398.8619 187.9950 398.0732 C 187.5861 397.3199 187.1771 396.5667 186.7682 395.8135 C 186.3047 395.0958 185.8412 394.3780 185.3777 393.6603 C 184.8597 392.9781 184.3418 392.2959 183.8238 391.6137 C 183.2512 390.9670 182.6787 390.3203 182.1062 389.6736 C 181.4791 389.0624 180.8521 388.4512 180.2250 387.8400 C 179.5067 387.2320 178.7883 386.6239 178.0700 386.0159 C 177.2236 385.3787 176.3772 384.7415 175.5307 384.1043 C 174.5563 383.4380 173.5818 382.7716 172.6073 382.1053 C 171.5047 381.4097 170.4021 380.7142 169.2996 380.0187 C 168.0689 379.2940 166.8383 378.5693 165.6076 377.8446 C 164.2489 377.0908 162.8902 376.3369 161.5315 375.5831 C 160.0447 374.8001 158.5579 374.0170 157.0712 373.2340 C 155.4563 372.4218 153.8414 371.6096 152.2266 370.7975 Z M 189.4038 273.5279 C 189.4627 272.2127 189.5215 270.8976 189.5804 269.5824 C 189.5622 268.3894 189.5440 267.1964 189.5259 266.0034 C 189.4393 264.9124 189.3527 263.8213 189.2661 262.7302 C 189.1164 261.7034 188.9668 260.6766 188.8171 259.6498 C 188.6064 258.6649 188.3958 257.6801 188.1851 256.6953 C 187.9141 255.7448 187.6431 254.7944 187.3721 253.8440 C 187.0408 252.9262 186.7095 252.0084 186.3782 251.0906 C 185.9867 250.2052 185.5952 249.3198 185.2037 248.4343 C 184.7519 247.5812 184.3002 246.7281 183.8484 245.8750 C 183.3362 245.0541 182.8241 244.2331 182.3119 243.4122 C 181.7387 242.6227 181.1655 241.8332 180.5922 241.0437 C 179.9555 240.2831 179.3188 239.5225 178.6821 238.7618 C 177.9759 238.0237 177.2697 237.2855 176.5636 236.5473 C 175.7781 235.8212 174.9927 235.0951 174.2072 234.3690 C 173.3327 233.6445 172.4583 232.9200 171.5838 232.1955 C 170.6143 231.4663 169.6448 230.7370 168.6754 230.0078 C 167.6084 229.2711 166.5415 228.5345 165.4746 227.7979 C 164.3095 227.0532 163.1445 226.3085 161.9794 225.5638 C 160.7159 224.8109 159.4525 224.0579 158.1890 223.3049 C 156.8253 222.5429 155.4616 221.7808 154.0979 221.0188 C 152.6186 220.2412 151.1394 219.4637 149.6602 218.6862 C 147.9714 217.8537 146.2826 217.0213 144.5938 216.1888 C 142.2882 215.1304 139.9827 214.0720 137.6771 213.0136 C 133.5992 211.2436 129.5213 209.4736 125.4433 207.7037 C 117.8311 204.4791 110.2188 201.2545 102.6066 198.0299 C 91.3205 193.2819 80.0345 188.5338 68.7484 183.7858 C 67.7083 185.1611 66.6682 186.5364 65.6281 187.9117 C 64.6499 189.2912 63.6717 190.6707 62.6935 192.0501 C 61.8029 193.4355 60.9122 194.8209 60.0216 196.2063 C 59.2240 197.5980 58.4265 198.9897 57.6290 200.3814 C 56.9252 201.7794 56.2214 203.1774 55.5177 204.5754 C 54.9077 205.9798 54.2978 207.3842 53.6879 208.7885 C 53.1718 210.1992 52.6557 211.6099 52.1396 213.0206 C 51.7173 214.4377 51.2951 215.8547 50.8728 217.2718 C 50.5444 218.6955 50.2161 220.1191 49.8877 221.5428 C 49.6539 222.9767 49.4202 224.4105 49.1864 225.8443 C 49.0531 227.3137 48.9197 228.7831 48.7863 230.2524 C 48.7803 231.8502 48.7742 233.4479 48.7681 235.0456 C 48.9542 236.8825 49.1402 238.7195 49.3263 240.5564 C 49.7692 242.4858 50.2122 244.4151 50.6552 246.3444 C 51.3820 248.2584 52.1088 250.1724 52.8356 252.0864 C 53.8520 253.9564 54.8684 255.8265 55.8848 257.6965 C 57.1915 259.5187 58.4982 261.3409 59.8049 263.1630 C 61.4020 264.9370 62.9991 266.7110 64.5962 268.4850 C 66.4837 270.2108 68.3712 271.9367 70.2587 273.6625 C 72.4369 275.3402 74.6151 277.0180 76.7933 278.6958 C 79.2698 280.3288 81.7464 281.9618 84.2229 283.5948 C 87.0969 285.2256 89.9709 286.8563 92.8449 288.4871 C 96.8254 290.4210 100.8059 292.3548 104.7865 294.2886 C 112.4297 297.6314 120.0729 300.9742 127.7161 304.3170 C 141.6584 310.2462 155.6007 316.1753 169.5430 322.1044 C 170.5554 320.6041 171.5678 319.1038 172.5802 317.6035 C 173.5444 316.1058 174.5086 314.6081 175.4728 313.1104 C 176.3593 311.6169 177.2457 310.1235 178.1321 308.6300 C 178.9288 307.1413 179.7255 305.6527 180.5222 304.1641 C 181.2258 302.6804 181.9295 301.1968 182.6331 299.7132 C 183.2430 298.2347 183.8529 296.7562 184.4629 295.2776 C 184.9790 293.8042 185.4950 292.3308 186.0111 290.8573 C 186.4334 289.3893 186.8557 287.9213 187.2780 286.4533 C 187.6066 284.9926 187.9352 283.5320 188.2638 282.0713 C 188.4992 280.6266 188.7347 279.1819 188.9702 277.7372 C 189.1147 276.3341 189.2593 274.9310 189.4038 273.5279 Z" />
</svg>
