<svg xmlns="http://www.w3.org/2000/svg" viewBox="0 0 1 1" preserveAspectRatio="xMidYMid meet">
  <path d="M0.628 0.712Q0.569 0.730 0.526 0.730Q0.459 0.730 0.414 0.680Q0.369 0.630 0.369 0.553Q0.369 0.471 0.413 0.426Q0.458 0.380 0.537 0.380Q0.576 0.380 0.624 0.391V0.442Q0.573 0.427 0.541 0.427Q0.494 0.427 0.466 0.462Q0.438 0.497 0.438 0.555Q0.438 0.611 0.467 0.646Q0.496 0.681 0.542 0.681Q0.584 0.681 0.628 0.660ZM0.415 0.327 0.489 0.228H0.557L0.631 0.327H0.585L0.523 0.265L0.461 0.327Z" fill="black"/>
</svg>
