<svg xmlns="http://www.w3.org/2000/svg" viewBox="0 0 1 1" preserveAspectRatio="xMidYMid meet">
  <path d="M0.627 0.712Q0.568 0.730 0.525 0.730Q0.458 0.730 0.413 0.680Q0.368 0.630 0.368 0.553Q0.368 0.471 0.412 0.426Q0.457 0.380 0.536 0.380Q0.575 0.380 0.623 0.391V0.442Q0.572 0.427 0.540 0.427Q0.493 0.427 0.465 0.462Q0.437 0.497 0.437 0.555Q0.437 0.611 0.466 0.646Q0.495 0.681 0.541 0.681Q0.583 0.681 0.627 0.660ZM0.632 0.228 0.557 0.327H0.490L0.416 0.228H0.462L0.524 0.290L0.586 0.228Z" fill="black"/>
</svg>
