<svg xmlns="http://www.w3.org/2000/svg" viewBox="0 0 1 1" preserveAspectRatio="xMidYMid meet">
  <path d="M0.529 0.722V0.659Q0.492 0.730 0.418 0.730Q0.357 0.730 0.323 0.686Q0.288 0.642 0.288 0.565Q0.288 0.482 0.327 0.431Q0.367 0.380 0.431 0.380Q0.490 0.380 0.529 0.426V0.236H0.590V0.722ZM0.529 0.467Q0.482 0.426 0.440 0.426Q0.398 0.426 0.376 0.461Q0.353 0.496 0.353 0.559Q0.353 0.677 0.431 0.677Q0.481 0.677 0.529 0.622ZM0.651 0.376V0.357Q0.675 0.351 0.675 0.302V0.296H0.651V0.236H0.712V0.288Q0.712 0.369 0.651 0.376Z" fill="black"/>
</svg>
