<svg xmlns="http://www.w3.org/2000/svg" viewBox="0 0 1 1" preserveAspectRatio="xMidYMid meet">
  <path d="M0.635 0.712Q0.574 0.730 0.531 0.730Q0.456 0.730 0.410 0.681Q0.363 0.632 0.363 0.553Q0.363 0.477 0.404 0.429Q0.446 0.380 0.510 0.380Q0.570 0.380 0.604 0.423Q0.637 0.467 0.637 0.546L0.636 0.565H0.425Q0.439 0.684 0.542 0.684Q0.580 0.684 0.635 0.663ZM0.428 0.519H0.576Q0.576 0.426 0.506 0.426Q0.436 0.426 0.428 0.519ZM0.543 0.722H0.576Q0.536 0.746 0.536 0.777Q0.536 0.807 0.571 0.807Q0.589 0.807 0.599 0.802V0.827Q0.581 0.836 0.557 0.836Q0.529 0.836 0.511 0.823Q0.494 0.809 0.494 0.787Q0.494 0.749 0.543 0.722Z" fill="black"/>
</svg>
