<svg xmlns="http://www.w3.org/2000/svg" viewBox="0 0 1 1" preserveAspectRatio="xMidYMid meet">
  <path d="M0.377 0.834 0.384 0.781Q0.436 0.806 0.488 0.806Q0.590 0.806 0.590 0.697V0.644Q0.574 0.678 0.545 0.696Q0.516 0.715 0.480 0.715Q0.420 0.715 0.384 0.671Q0.349 0.627 0.349 0.553Q0.349 0.476 0.389 0.428Q0.430 0.380 0.494 0.380Q0.550 0.380 0.590 0.426V0.388H0.651V0.631Q0.651 0.710 0.643 0.747Q0.635 0.785 0.612 0.809Q0.573 0.851 0.488 0.851Q0.430 0.851 0.377 0.834ZM0.590 0.606V0.467Q0.550 0.426 0.503 0.426Q0.461 0.426 0.437 0.459Q0.414 0.493 0.414 0.553Q0.414 0.662 0.491 0.662Q0.544 0.662 0.590 0.606ZM0.397 0.236H0.435Q0.445 0.281 0.500 0.281Q0.555 0.281 0.565 0.236H0.602Q0.598 0.277 0.570 0.302Q0.542 0.327 0.500 0.327Q0.458 0.327 0.430 0.302Q0.402 0.277 0.397 0.236Z" fill="black"/>
</svg>
