<svg xmlns="http://www.w3.org/2000/svg" viewBox="0 0 1 1" preserveAspectRatio="xMidYMid meet">
  <path d="M0.685 0.710Q0.602 0.734 0.540 0.734Q0.431 0.734 0.373 0.672Q0.315 0.610 0.315 0.494Q0.315 0.380 0.374 0.318Q0.433 0.255 0.540 0.255Q0.609 0.255 0.684 0.276V0.335Q0.590 0.303 0.540 0.303Q0.466 0.303 0.425 0.353Q0.384 0.403 0.384 0.495Q0.384 0.585 0.428 0.635Q0.471 0.685 0.550 0.685Q0.583 0.685 0.620 0.674V0.525H0.685ZM0.527 0.722H0.557L0.538 0.756Q0.562 0.756 0.580 0.771Q0.598 0.785 0.598 0.805Q0.598 0.826 0.580 0.841Q0.562 0.855 0.536 0.855Q0.514 0.855 0.491 0.849V0.824Q0.505 0.829 0.523 0.829Q0.555 0.829 0.555 0.806Q0.555 0.776 0.497 0.776Z" fill="black"/>
</svg>
