<svg xmlns="http://www.w3.org/2000/svg" viewBox="0 0 1 1" preserveAspectRatio="xMidYMid meet">
  <path d="M0.363 0.722V0.388H0.424V0.451Q0.472 0.380 0.542 0.380Q0.585 0.380 0.611 0.408Q0.637 0.435 0.637 0.482V0.722H0.576V0.502Q0.576 0.464 0.565 0.449Q0.554 0.433 0.529 0.433Q0.473 0.433 0.424 0.506V0.722ZM0.495 0.722H0.525L0.506 0.756Q0.530 0.756 0.548 0.771Q0.566 0.785 0.566 0.805Q0.566 0.826 0.548 0.841Q0.530 0.855 0.504 0.855Q0.482 0.855 0.459 0.849V0.824Q0.473 0.829 0.492 0.829Q0.523 0.829 0.523 0.806Q0.523 0.776 0.466 0.776Z" fill="black"/>
</svg>
