<svg xmlns="http://www.w3.org/2000/svg" viewBox="0 0 1 1" preserveAspectRatio="xMidYMid meet">
  <path d="M0.500 0.734Q0.403 0.734 0.345 0.669Q0.287 0.603 0.287 0.494Q0.287 0.385 0.345 0.320Q0.403 0.255 0.500 0.255Q0.597 0.255 0.655 0.320Q0.713 0.385 0.713 0.494Q0.713 0.603 0.655 0.669Q0.597 0.734 0.500 0.734ZM0.500 0.685Q0.568 0.685 0.606 0.635Q0.645 0.584 0.645 0.494Q0.645 0.404 0.606 0.354Q0.568 0.303 0.500 0.303Q0.432 0.303 0.394 0.354Q0.355 0.404 0.355 0.494Q0.355 0.584 0.394 0.635Q0.432 0.685 0.500 0.685ZM0.397 0.137H0.435Q0.445 0.182 0.500 0.182Q0.555 0.182 0.565 0.137H0.603Q0.598 0.178 0.570 0.203Q0.542 0.228 0.500 0.228Q0.458 0.228 0.430 0.203Q0.402 0.178 0.397 0.137Z" fill="black"/>
</svg>
