<svg xmlns="http://www.w3.org/2000/svg" viewBox="0 0 1 1" preserveAspectRatio="xMidYMid meet">
  <path d="M0.500 0.730Q0.426 0.730 0.383 0.683Q0.340 0.636 0.340 0.555Q0.340 0.474 0.383 0.427Q0.426 0.380 0.500 0.380Q0.574 0.380 0.617 0.427Q0.660 0.474 0.660 0.555Q0.660 0.636 0.617 0.683Q0.574 0.730 0.500 0.730ZM0.500 0.684Q0.545 0.684 0.570 0.651Q0.595 0.617 0.595 0.555Q0.595 0.493 0.570 0.460Q0.545 0.426 0.500 0.426Q0.455 0.426 0.430 0.460Q0.405 0.493 0.405 0.555Q0.405 0.617 0.430 0.651Q0.455 0.684 0.500 0.684ZM0.397 0.236H0.435Q0.445 0.281 0.500 0.281Q0.555 0.281 0.565 0.236H0.603Q0.598 0.277 0.570 0.302Q0.542 0.327 0.500 0.327Q0.458 0.327 0.430 0.302Q0.402 0.277 0.397 0.236Z" fill="black"/>
</svg>
