<svg xmlns="http://www.w3.org/2000/svg" viewBox="0 0 1 1" preserveAspectRatio="xMidYMid meet">
  <path d="M0.495 0.730Q0.421 0.730 0.378 0.683Q0.335 0.636 0.335 0.555Q0.335 0.474 0.378 0.427Q0.421 0.380 0.495 0.380Q0.568 0.380 0.611 0.427Q0.654 0.474 0.654 0.555Q0.654 0.636 0.611 0.683Q0.568 0.730 0.495 0.730ZM0.495 0.684Q0.540 0.684 0.565 0.651Q0.590 0.617 0.590 0.555Q0.590 0.493 0.565 0.460Q0.540 0.426 0.495 0.426Q0.449 0.426 0.425 0.460Q0.400 0.493 0.400 0.555Q0.400 0.617 0.425 0.651Q0.449 0.684 0.495 0.684ZM0.424 0.327 0.498 0.228H0.557L0.458 0.327ZM0.532 0.327 0.606 0.228H0.665L0.566 0.327Z" fill="black"/>
</svg>
