<svg xmlns="http://www.w3.org/2000/svg" viewBox="0 0 1 1" preserveAspectRatio="xMidYMid meet">
  <path d="M0.524 0.704Q0.476 0.734 0.417 0.734Q0.323 0.734 0.266 0.668Q0.208 0.602 0.208 0.494Q0.208 0.386 0.266 0.320Q0.324 0.255 0.420 0.255Q0.476 0.255 0.524 0.284V0.266H0.779V0.315H0.589V0.461H0.748V0.509L0.589 0.509L0.589 0.674H0.792V0.722H0.524ZM0.524 0.547V0.442Q0.524 0.369 0.499 0.336Q0.474 0.303 0.420 0.303Q0.353 0.303 0.315 0.354Q0.277 0.405 0.277 0.494Q0.277 0.584 0.315 0.635Q0.353 0.685 0.421 0.685Q0.475 0.685 0.499 0.652Q0.524 0.619 0.524 0.547Z" fill="black"/>
</svg>
