<svg xmlns="http://www.w3.org/2000/svg" viewBox="0 0 1 1" preserveAspectRatio="xMidYMid meet">
  <path d="M0.514 0.669Q0.474 0.730 0.403 0.730Q0.332 0.730 0.289 0.682Q0.247 0.635 0.247 0.555Q0.247 0.475 0.289 0.428Q0.332 0.380 0.404 0.380Q0.471 0.380 0.512 0.442Q0.550 0.380 0.625 0.380Q0.753 0.380 0.753 0.565H0.546Q0.555 0.684 0.659 0.684Q0.702 0.684 0.753 0.663V0.711Q0.694 0.730 0.646 0.730Q0.599 0.730 0.569 0.716Q0.538 0.701 0.514 0.669ZM0.405 0.684Q0.484 0.684 0.484 0.550Q0.484 0.426 0.405 0.426Q0.361 0.426 0.336 0.460Q0.311 0.494 0.311 0.555Q0.311 0.616 0.336 0.650Q0.361 0.684 0.405 0.684ZM0.548 0.523H0.689Q0.689 0.426 0.623 0.426Q0.556 0.426 0.548 0.523Z" fill="black"/>
</svg>
