<svg xmlns="http://www.w3.org/2000/svg" viewBox="0 0 1 1" preserveAspectRatio="xMidYMid meet">
  <path d="M0.333 0.722V0.266H0.471Q0.537 0.266 0.572 0.295Q0.607 0.324 0.607 0.379Q0.607 0.423 0.583 0.457Q0.558 0.491 0.515 0.509L0.667 0.722H0.587L0.458 0.529H0.397V0.722ZM0.397 0.481H0.418Q0.478 0.481 0.509 0.457Q0.540 0.432 0.540 0.386Q0.540 0.315 0.438 0.315H0.397ZM0.459 0.722H0.489L0.471 0.756Q0.494 0.756 0.512 0.771Q0.530 0.785 0.530 0.805Q0.530 0.826 0.512 0.841Q0.494 0.855 0.468 0.855Q0.446 0.855 0.423 0.849V0.824Q0.438 0.829 0.456 0.829Q0.488 0.829 0.488 0.806Q0.488 0.776 0.430 0.776Z" fill="black"/>
</svg>
