<svg xmlns="http://www.w3.org/2000/svg" viewBox="0 0 1 1" preserveAspectRatio="xMidYMid meet">
  <path d="M0.592 0.722Q0.563 0.730 0.543 0.730Q0.497 0.730 0.471 0.704Q0.445 0.677 0.445 0.630V0.433H0.403V0.388H0.445V0.327L0.506 0.321V0.388H0.593V0.433H0.506V0.619Q0.506 0.684 0.562 0.684Q0.574 0.684 0.592 0.680ZM0.526 0.722H0.556L0.537 0.756Q0.561 0.756 0.579 0.771Q0.597 0.785 0.597 0.805Q0.597 0.826 0.579 0.841Q0.561 0.855 0.535 0.855Q0.513 0.855 0.490 0.849V0.824Q0.504 0.829 0.522 0.829Q0.554 0.829 0.554 0.806Q0.554 0.776 0.497 0.776Z" fill="black"/>
</svg>
