<svg xmlns="http://www.w3.org/2000/svg" viewBox="0 0 1 1" preserveAspectRatio="xMidYMid meet">
  <path d="M0.336 0.266H0.401V0.554Q0.401 0.623 0.427 0.654Q0.452 0.685 0.507 0.685Q0.562 0.685 0.584 0.656Q0.607 0.627 0.607 0.556V0.266H0.664V0.555Q0.664 0.615 0.652 0.647Q0.640 0.679 0.610 0.704Q0.571 0.734 0.505 0.734Q0.418 0.734 0.377 0.690Q0.336 0.646 0.336 0.553ZM0.397 0.228Q0.401 0.156 0.454 0.156Q0.477 0.156 0.496 0.168L0.514 0.179Q0.532 0.190 0.541 0.190Q0.562 0.190 0.565 0.156H0.603Q0.599 0.228 0.546 0.228Q0.523 0.228 0.504 0.216L0.486 0.205Q0.468 0.194 0.459 0.194Q0.438 0.194 0.435 0.228Z" fill="black"/>
</svg>
