<svg xmlns="http://www.w3.org/2000/svg" viewBox="0 0 1 1" preserveAspectRatio="xMidYMid meet">
  <path d="M0.576 0.722V0.659Q0.528 0.730 0.459 0.730Q0.415 0.730 0.389 0.702Q0.363 0.675 0.363 0.628V0.388H0.424V0.608Q0.424 0.646 0.435 0.662Q0.446 0.678 0.471 0.678Q0.527 0.678 0.576 0.605V0.388H0.637V0.722ZM0.397 0.327Q0.401 0.255 0.454 0.255Q0.477 0.255 0.496 0.267L0.514 0.278Q0.532 0.289 0.541 0.289Q0.562 0.289 0.565 0.255H0.603Q0.599 0.327 0.546 0.327Q0.523 0.327 0.504 0.315L0.486 0.304Q0.468 0.293 0.459 0.293Q0.438 0.293 0.435 0.327Z" fill="black"/>
</svg>
