<svg xmlns="http://www.w3.org/2000/svg" viewBox="0 0 1 1" preserveAspectRatio="xMidYMid meet">
  <path d="M0.336 0.266H0.401V0.554Q0.401 0.623 0.427 0.654Q0.452 0.685 0.507 0.685Q0.562 0.685 0.584 0.656Q0.607 0.627 0.607 0.556V0.266H0.664V0.555Q0.664 0.615 0.652 0.647Q0.640 0.679 0.610 0.704Q0.571 0.734 0.505 0.734Q0.418 0.734 0.377 0.690Q0.336 0.646 0.336 0.553ZM0.500 0.236Q0.471 0.236 0.450 0.215Q0.430 0.195 0.430 0.166Q0.430 0.137 0.450 0.116Q0.471 0.096 0.500 0.096Q0.529 0.096 0.549 0.116Q0.570 0.137 0.570 0.166Q0.570 0.195 0.550 0.215Q0.529 0.236 0.500 0.236ZM0.500 0.209Q0.518 0.209 0.531 0.197Q0.543 0.184 0.543 0.166Q0.543 0.148 0.531 0.135Q0.518 0.122 0.500 0.122Q0.482 0.122 0.469 0.135Q0.457 0.148 0.457 0.166Q0.457 0.184 0.469 0.196Q0.482 0.209 0.500 0.209Z" fill="black"/>
</svg>
