<svg xmlns="http://www.w3.org/2000/svg" viewBox="0 0 1 1" preserveAspectRatio="xMidYMid meet">
  <path d="M0.336 0.266H0.401V0.554Q0.401 0.623 0.427 0.654Q0.452 0.685 0.507 0.685Q0.562 0.685 0.584 0.656Q0.607 0.627 0.607 0.556V0.266H0.664V0.555Q0.664 0.615 0.652 0.647Q0.640 0.679 0.610 0.704Q0.571 0.734 0.505 0.734Q0.418 0.734 0.377 0.690Q0.336 0.646 0.336 0.553ZM0.537 0.722H0.570Q0.530 0.746 0.530 0.777Q0.530 0.807 0.565 0.807Q0.583 0.807 0.593 0.802V0.827Q0.575 0.836 0.551 0.836Q0.522 0.836 0.505 0.823Q0.488 0.809 0.488 0.787Q0.488 0.749 0.537 0.722Z" fill="black"/>
</svg>
