<svg xmlns="http://www.w3.org/2000/svg" viewBox="0 0 1 1" preserveAspectRatio="xMidYMid meet">
  <path d="M0.576 0.722V0.659Q0.528 0.730 0.459 0.730Q0.415 0.730 0.389 0.702Q0.363 0.675 0.363 0.628V0.388H0.424V0.608Q0.424 0.646 0.435 0.662Q0.446 0.678 0.471 0.678Q0.527 0.678 0.576 0.605V0.388H0.637V0.722ZM0.576 0.722H0.609Q0.569 0.746 0.569 0.777Q0.569 0.807 0.604 0.807Q0.622 0.807 0.633 0.802V0.827Q0.614 0.836 0.590 0.836Q0.562 0.836 0.544 0.823Q0.527 0.809 0.527 0.787Q0.527 0.749 0.576 0.722Z" fill="black"/>
</svg>
