<svg xmlns="http://www.w3.org/2000/svg" viewBox="0 0 1 1" preserveAspectRatio="xMidYMid meet">
  <path d="M0.426 0.722V0.314H0.420Q0.377 0.314 0.361 0.325Q0.344 0.336 0.344 0.364Q0.344 0.388 0.353 0.409H0.303Q0.296 0.384 0.296 0.364Q0.296 0.311 0.326 0.289Q0.356 0.266 0.426 0.266H0.544Q0.612 0.266 0.649 0.292Q0.686 0.318 0.686 0.367Q0.686 0.406 0.661 0.437Q0.637 0.468 0.592 0.485Q0.704 0.519 0.704 0.608Q0.704 0.648 0.679 0.680Q0.660 0.703 0.634 0.713Q0.607 0.722 0.560 0.722ZM0.490 0.674H0.503Q0.574 0.674 0.595 0.665Q0.635 0.648 0.635 0.602Q0.635 0.561 0.599 0.535Q0.563 0.508 0.508 0.508H0.490ZM0.490 0.467H0.510Q0.563 0.467 0.591 0.444Q0.619 0.422 0.619 0.381Q0.619 0.315 0.515 0.315H0.490Z" fill="black"/>
</svg>
