<svg xmlns="http://www.w3.org/2000/svg" viewBox="0 0 1 1" preserveAspectRatio="xMidYMid meet">
  <path d="M0.637 0.643V0.699Q0.570 0.734 0.490 0.734Q0.384 0.734 0.326 0.671Q0.268 0.609 0.268 0.495Q0.268 0.381 0.327 0.318Q0.386 0.255 0.493 0.255Q0.540 0.255 0.589 0.264V0.260Q0.589 0.196 0.613 0.166Q0.636 0.137 0.687 0.137Q0.707 0.137 0.732 0.143V0.194Q0.711 0.184 0.687 0.184Q0.659 0.184 0.648 0.201Q0.637 0.218 0.637 0.261V0.336Q0.543 0.303 0.492 0.303Q0.418 0.303 0.377 0.353Q0.337 0.404 0.337 0.495Q0.337 0.583 0.380 0.633Q0.424 0.683 0.499 0.683Q0.563 0.683 0.637 0.643Z" fill="black"/>
</svg>
