<svg xmlns="http://www.w3.org/2000/svg" viewBox="0 0 1 1" preserveAspectRatio="xMidYMid meet">
  <path d="M0.534 0.383V0.346Q0.534 0.228 0.627 0.228Q0.650 0.228 0.676 0.234V0.280Q0.656 0.272 0.632 0.272Q0.602 0.272 0.591 0.288Q0.580 0.304 0.580 0.348V0.442Q0.528 0.427 0.496 0.427Q0.449 0.427 0.421 0.462Q0.393 0.497 0.393 0.555Q0.393 0.611 0.422 0.646Q0.451 0.681 0.498 0.681Q0.539 0.681 0.583 0.660V0.712Q0.524 0.730 0.482 0.730Q0.414 0.730 0.369 0.680Q0.324 0.630 0.324 0.553Q0.324 0.471 0.369 0.426Q0.413 0.380 0.493 0.380Q0.512 0.380 0.534 0.383Z" fill="black"/>
</svg>
