<svg xmlns="http://www.w3.org/2000/svg" viewBox="0 0 1 1" preserveAspectRatio="xMidYMid meet">
  <path d="M0.374 0.722V0.314H0.369Q0.325 0.314 0.309 0.325Q0.292 0.336 0.292 0.364Q0.292 0.388 0.301 0.409H0.251Q0.244 0.384 0.244 0.364Q0.244 0.311 0.274 0.289Q0.304 0.266 0.374 0.266H0.525Q0.593 0.266 0.635 0.281Q0.677 0.296 0.707 0.333Q0.756 0.390 0.756 0.484Q0.756 0.589 0.699 0.655Q0.668 0.691 0.628 0.707Q0.587 0.722 0.526 0.722ZM0.439 0.674H0.521Q0.610 0.674 0.647 0.626Q0.687 0.575 0.687 0.490Q0.687 0.409 0.648 0.363Q0.624 0.335 0.591 0.325Q0.558 0.315 0.492 0.315H0.439Z" fill="black"/>
</svg>
