<svg xmlns="http://www.w3.org/2000/svg" viewBox="0 0 1 1" preserveAspectRatio="xMidYMid meet">
  <path d="M0.535 0.537Q0.591 0.566 0.616 0.592Q0.641 0.617 0.641 0.646Q0.641 0.685 0.603 0.708Q0.565 0.730 0.497 0.730Q0.454 0.730 0.418 0.721V0.671Q0.458 0.684 0.504 0.684Q0.538 0.684 0.559 0.675Q0.580 0.666 0.580 0.651Q0.580 0.628 0.525 0.596L0.496 0.579L0.463 0.559Q0.402 0.522 0.375 0.482Q0.348 0.442 0.348 0.388Q0.348 0.318 0.391 0.273Q0.433 0.228 0.500 0.228Q0.565 0.228 0.609 0.272Q0.652 0.316 0.652 0.382Q0.652 0.492 0.535 0.537ZM0.490 0.507Q0.587 0.473 0.587 0.381Q0.587 0.335 0.562 0.304Q0.536 0.274 0.498 0.274Q0.461 0.274 0.437 0.306Q0.413 0.338 0.413 0.386Q0.413 0.427 0.430 0.454Q0.447 0.480 0.490 0.507Z" fill="black"/>
</svg>
