<svg xmlns="http://www.w3.org/2000/svg" viewBox="0 0 1 1" preserveAspectRatio="xMidYMid meet">
  <path d="M0.633 0.719Q0.575 0.734 0.528 0.734Q0.453 0.734 0.410 0.697Q0.367 0.660 0.367 0.596Q0.367 0.554 0.390 0.520Q0.412 0.487 0.452 0.470Q0.380 0.426 0.380 0.359Q0.380 0.309 0.415 0.282Q0.451 0.255 0.515 0.255Q0.576 0.255 0.625 0.273V0.323Q0.576 0.302 0.527 0.302Q0.491 0.302 0.469 0.321Q0.446 0.340 0.446 0.371Q0.446 0.410 0.476 0.431Q0.505 0.452 0.559 0.452H0.567V0.500H0.559Q0.503 0.500 0.469 0.526Q0.435 0.553 0.435 0.597Q0.435 0.636 0.462 0.661Q0.490 0.686 0.533 0.686Q0.570 0.686 0.633 0.663Z" fill="black"/>
</svg>
