<svg xmlns="http://www.w3.org/2000/svg" viewBox="0 0 1 1" preserveAspectRatio="xMidYMid meet">
  <path d="M0.637 0.710Q0.555 0.734 0.493 0.734Q0.384 0.734 0.326 0.672Q0.268 0.610 0.268 0.494Q0.268 0.381 0.327 0.318Q0.386 0.255 0.493 0.255Q0.540 0.255 0.589 0.264V0.260Q0.589 0.196 0.613 0.166Q0.636 0.137 0.687 0.137Q0.707 0.137 0.732 0.143V0.194Q0.711 0.184 0.687 0.184Q0.659 0.184 0.648 0.201Q0.637 0.218 0.637 0.261V0.335Q0.543 0.303 0.492 0.303Q0.418 0.303 0.378 0.353Q0.337 0.403 0.337 0.495Q0.337 0.585 0.380 0.635Q0.424 0.685 0.503 0.685Q0.535 0.685 0.573 0.674V0.525H0.637Z" fill="black"/>
</svg>
