<svg xmlns="http://www.w3.org/2000/svg" viewBox="0 0 1 1" preserveAspectRatio="xMidYMid meet">
  <path d="M0.533 0.633 0.537 0.639Q0.557 0.671 0.572 0.710Q0.587 0.749 0.587 0.771Q0.587 0.806 0.562 0.829Q0.537 0.851 0.499 0.851Q0.463 0.851 0.441 0.831Q0.418 0.810 0.418 0.778Q0.418 0.731 0.466 0.651L0.471 0.643L0.296 0.266H0.363L0.504 0.569L0.646 0.266H0.704ZM0.499 0.693Q0.497 0.699 0.495 0.702Q0.471 0.753 0.471 0.775Q0.471 0.806 0.499 0.806Q0.530 0.806 0.530 0.773Q0.530 0.749 0.499 0.693Z" fill="black"/>
</svg>
