<svg xmlns="http://www.w3.org/2000/svg" viewBox="0 0 1 1" preserveAspectRatio="xMidYMid meet">
  <path d="M0.664 0.388H0.730Q0.739 0.427 0.739 0.479Q0.739 0.593 0.692 0.661Q0.645 0.730 0.565 0.730Q0.525 0.730 0.500 0.707Q0.485 0.692 0.479 0.673Q0.473 0.653 0.473 0.612V0.502Q0.473 0.464 0.463 0.449Q0.452 0.433 0.426 0.433Q0.371 0.433 0.321 0.506V0.722H0.261V0.236H0.321V0.451Q0.369 0.380 0.439 0.380Q0.483 0.380 0.508 0.408Q0.534 0.435 0.534 0.482V0.607Q0.534 0.646 0.546 0.662Q0.557 0.679 0.584 0.679Q0.629 0.679 0.656 0.631Q0.682 0.584 0.682 0.504Q0.682 0.433 0.664 0.388Z" fill="black"/>
</svg>
