<svg xmlns="http://www.w3.org/2000/svg" viewBox="0 0 1 1" preserveAspectRatio="xMidYMid meet">
  <path d="M0.500 0.734Q0.403 0.734 0.345 0.669Q0.287 0.603 0.287 0.494Q0.287 0.385 0.345 0.320Q0.403 0.255 0.500 0.255Q0.597 0.255 0.655 0.320Q0.713 0.385 0.713 0.494Q0.713 0.603 0.655 0.669Q0.597 0.734 0.500 0.734ZM0.356 0.511Q0.361 0.596 0.398 0.641Q0.435 0.685 0.500 0.685Q0.565 0.685 0.602 0.641Q0.639 0.596 0.644 0.511ZM0.357 0.462H0.643Q0.637 0.386 0.599 0.345Q0.562 0.303 0.500 0.303Q0.438 0.303 0.401 0.345Q0.363 0.386 0.357 0.462Z" fill="black"/>
</svg>
