<svg xmlns="http://www.w3.org/2000/svg" viewBox="0 0 1 1" preserveAspectRatio="xMidYMid meet">
  <path d="M0.606 0.428Q0.648 0.480 0.648 0.555Q0.648 0.636 0.605 0.683Q0.562 0.730 0.488 0.730Q0.414 0.730 0.371 0.683Q0.329 0.636 0.329 0.555Q0.329 0.475 0.371 0.427Q0.414 0.380 0.488 0.380Q0.515 0.380 0.542 0.388H0.552Q0.595 0.388 0.612 0.376Q0.628 0.365 0.628 0.335Q0.628 0.312 0.619 0.292H0.665Q0.671 0.317 0.671 0.341Q0.671 0.410 0.606 0.428ZM0.488 0.684Q0.533 0.684 0.558 0.651Q0.583 0.617 0.583 0.555Q0.583 0.493 0.558 0.460Q0.533 0.426 0.488 0.426Q0.443 0.426 0.418 0.460Q0.393 0.493 0.393 0.555Q0.393 0.617 0.418 0.651Q0.443 0.684 0.488 0.684Z" fill="black"/>
</svg>
