<svg xmlns="http://www.w3.org/2000/svg" viewBox="0 0 1 1" preserveAspectRatio="xMidYMid meet">
  <path d="M0.727 0.844V0.402Q0.727 0.349 0.714 0.328Q0.702 0.306 0.670 0.306Q0.634 0.306 0.591 0.337Q0.636 0.402 0.636 0.495Q0.636 0.604 0.577 0.669Q0.519 0.734 0.421 0.734Q0.325 0.734 0.267 0.668Q0.208 0.602 0.208 0.493Q0.208 0.385 0.267 0.320Q0.325 0.255 0.423 0.255Q0.505 0.255 0.560 0.302L0.565 0.298Q0.616 0.255 0.678 0.255Q0.792 0.255 0.792 0.389V0.844ZM0.422 0.686Q0.490 0.686 0.529 0.636Q0.567 0.585 0.567 0.495Q0.567 0.405 0.529 0.353Q0.490 0.302 0.422 0.302Q0.354 0.302 0.315 0.353Q0.277 0.404 0.277 0.494Q0.277 0.585 0.315 0.636Q0.353 0.686 0.422 0.686Z" fill="black"/>
</svg>
