<svg xmlns="http://www.w3.org/2000/svg" viewBox="0 0 1 1" preserveAspectRatio="xMidYMid meet">
  <path d="M0.424 0.684Q0.468 0.684 0.494 0.650Q0.519 0.615 0.519 0.553Q0.519 0.493 0.494 0.459Q0.468 0.426 0.423 0.426Q0.378 0.426 0.353 0.459Q0.329 0.493 0.329 0.556Q0.329 0.616 0.354 0.650Q0.379 0.684 0.424 0.684ZM0.675 0.844V0.535Q0.675 0.468 0.663 0.452Q0.647 0.431 0.619 0.431Q0.591 0.431 0.561 0.457Q0.584 0.502 0.584 0.555Q0.584 0.635 0.540 0.682Q0.497 0.730 0.424 0.730Q0.350 0.730 0.307 0.683Q0.264 0.636 0.264 0.554Q0.264 0.475 0.307 0.427Q0.350 0.380 0.422 0.380Q0.489 0.380 0.533 0.420L0.538 0.416Q0.577 0.380 0.626 0.380Q0.736 0.380 0.736 0.515V0.844Z" fill="black"/>
</svg>
