<svg xmlns="http://www.w3.org/2000/svg" viewBox="0 0 1 1" preserveAspectRatio="xMidYMid meet">
  <path d="M0.425 0.722V0.314H0.420Q0.377 0.314 0.360 0.325Q0.344 0.336 0.344 0.364Q0.344 0.388 0.353 0.409H0.303Q0.296 0.384 0.296 0.364Q0.296 0.311 0.326 0.289Q0.356 0.266 0.425 0.266H0.549Q0.603 0.266 0.632 0.275Q0.661 0.284 0.680 0.306Q0.704 0.335 0.704 0.386Q0.704 0.459 0.655 0.500Q0.606 0.541 0.518 0.541H0.489V0.722ZM0.489 0.492H0.516Q0.573 0.492 0.605 0.466Q0.636 0.439 0.636 0.390Q0.636 0.350 0.611 0.332Q0.586 0.315 0.529 0.315H0.489Z" fill="black"/>
</svg>
