<svg xmlns="http://www.w3.org/2000/svg" viewBox="0 0 1 1" preserveAspectRatio="xMidYMid meet">
  <path d="M0.639 0.714Q0.567 0.734 0.522 0.734Q0.449 0.734 0.405 0.698Q0.361 0.662 0.361 0.602Q0.361 0.560 0.385 0.530Q0.408 0.500 0.467 0.467L0.500 0.448Q0.542 0.424 0.558 0.406Q0.574 0.389 0.574 0.366Q0.574 0.339 0.552 0.321Q0.530 0.303 0.497 0.303Q0.462 0.303 0.390 0.332V0.272Q0.448 0.255 0.501 0.255Q0.560 0.255 0.598 0.289Q0.636 0.323 0.636 0.376Q0.636 0.415 0.613 0.444Q0.589 0.474 0.530 0.507L0.499 0.525Q0.458 0.548 0.443 0.567Q0.427 0.586 0.427 0.613Q0.427 0.645 0.451 0.665Q0.474 0.685 0.512 0.685Q0.562 0.685 0.639 0.650Z" fill="black"/>
</svg>
