<svg xmlns="http://www.w3.org/2000/svg" viewBox="0 0 1 1" preserveAspectRatio="xMidYMid meet">
  <path d="M0.612 0.711Q0.553 0.730 0.511 0.730Q0.457 0.730 0.422 0.702Q0.388 0.673 0.388 0.629Q0.388 0.594 0.408 0.571Q0.429 0.548 0.478 0.527L0.508 0.515Q0.552 0.496 0.552 0.468Q0.552 0.426 0.493 0.426Q0.464 0.426 0.413 0.441V0.390L0.425 0.388Q0.467 0.380 0.495 0.380Q0.549 0.380 0.580 0.405Q0.610 0.431 0.610 0.474Q0.610 0.536 0.532 0.568L0.496 0.583Q0.448 0.604 0.448 0.635Q0.448 0.656 0.465 0.670Q0.483 0.684 0.509 0.684Q0.553 0.684 0.612 0.655Z" fill="black"/>
</svg>
