<svg xmlns="http://www.w3.org/2000/svg" viewBox="0 0 1 1" preserveAspectRatio="xMidYMid meet">
  <path d="M0.676 0.841Q0.641 0.852 0.608 0.852Q0.490 0.852 0.490 0.692V0.416Q0.460 0.437 0.427 0.437Q0.385 0.437 0.355 0.406Q0.324 0.374 0.324 0.332Q0.324 0.288 0.355 0.258Q0.386 0.228 0.433 0.228Q0.550 0.228 0.550 0.389V0.692Q0.550 0.756 0.564 0.781Q0.577 0.806 0.611 0.806Q0.638 0.806 0.676 0.791ZM0.490 0.367V0.358Q0.490 0.274 0.429 0.274Q0.404 0.274 0.387 0.290Q0.370 0.307 0.370 0.332Q0.370 0.357 0.388 0.374Q0.405 0.391 0.432 0.391Q0.465 0.391 0.490 0.367Z" fill="black"/>
</svg>
