<svg xmlns="http://www.w3.org/2000/svg" viewBox="0 0 1 1" preserveAspectRatio="xMidYMid meet">
  <path d="M0.272 0.266H0.337V0.554Q0.337 0.623 0.362 0.654Q0.387 0.685 0.443 0.685Q0.497 0.685 0.520 0.656Q0.542 0.627 0.542 0.556V0.266H0.603Q0.647 0.266 0.664 0.255Q0.681 0.244 0.681 0.216Q0.681 0.192 0.671 0.171H0.722Q0.728 0.196 0.728 0.216Q0.728 0.267 0.699 0.291Q0.669 0.314 0.603 0.314H0.599V0.555Q0.599 0.615 0.587 0.647Q0.576 0.679 0.545 0.704Q0.507 0.734 0.440 0.734Q0.353 0.734 0.313 0.690Q0.272 0.646 0.272 0.553Z" fill="black"/>
</svg>
