<svg xmlns="http://www.w3.org/2000/svg" viewBox="0 0 1 1" preserveAspectRatio="xMidYMid meet">
  <path d="M0.629 0.388V0.433L0.489 0.536Q0.504 0.534 0.511 0.534Q0.562 0.534 0.594 0.560Q0.627 0.585 0.627 0.626Q0.627 0.661 0.604 0.683Q0.582 0.704 0.520 0.730L0.487 0.743Q0.456 0.756 0.446 0.763Q0.437 0.771 0.437 0.782Q0.437 0.806 0.486 0.806Q0.533 0.806 0.594 0.781V0.831Q0.543 0.851 0.489 0.851Q0.434 0.851 0.403 0.832Q0.371 0.812 0.371 0.778Q0.371 0.751 0.394 0.730Q0.417 0.709 0.470 0.688L0.507 0.673Q0.543 0.658 0.554 0.649Q0.566 0.639 0.566 0.624Q0.566 0.582 0.476 0.582Q0.437 0.582 0.404 0.589V0.542L0.551 0.433H0.374V0.388Z" fill="black"/>
</svg>
