<svg xmlns="http://www.w3.org/2000/svg" viewBox="0 0 1 1" preserveAspectRatio="xMidYMid meet">
  <path d="M0.435 0.350V0.236H0.496L0.496 0.350H0.595V0.395H0.496L0.496 0.404Q0.496 0.434 0.503 0.448Q0.510 0.461 0.540 0.490L0.554 0.504Q0.601 0.549 0.614 0.571Q0.627 0.593 0.627 0.625Q0.627 0.674 0.593 0.702Q0.559 0.730 0.500 0.730Q0.447 0.730 0.388 0.711V0.661Q0.440 0.684 0.491 0.684Q0.527 0.684 0.548 0.667Q0.568 0.650 0.568 0.619Q0.568 0.578 0.517 0.531L0.502 0.517Q0.463 0.481 0.449 0.457Q0.435 0.432 0.435 0.400V0.395H0.373V0.350Z" fill="black"/>
</svg>
