<svg xmlns="http://www.w3.org/2000/svg" viewBox="0 0 1 1" preserveAspectRatio="xMidYMid meet">
  <path d="M0.144 0.722V0.266H0.296Q0.363 0.266 0.405 0.281Q0.447 0.296 0.478 0.333Q0.526 0.390 0.526 0.484Q0.526 0.589 0.469 0.655Q0.438 0.691 0.398 0.707Q0.357 0.722 0.297 0.722ZM0.209 0.674H0.292Q0.380 0.674 0.417 0.626Q0.457 0.575 0.457 0.490Q0.457 0.409 0.418 0.363Q0.394 0.335 0.361 0.325Q0.328 0.315 0.262 0.315H0.209ZM0.533 0.722V0.671L0.778 0.315H0.548V0.266H0.856V0.315L0.611 0.671H0.856V0.722ZM0.810 0.129 0.736 0.228H0.669L0.594 0.129H0.640L0.702 0.191L0.764 0.129Z" fill="black"/>
</svg>
