<svg xmlns="http://www.w3.org/2000/svg" viewBox="0 0 1 1" preserveAspectRatio="xMidYMid meet">
  <path d="M0.143 0.722V0.266H0.294Q0.362 0.266 0.404 0.281Q0.446 0.296 0.476 0.333Q0.524 0.390 0.524 0.484Q0.524 0.589 0.468 0.655Q0.437 0.691 0.396 0.707Q0.356 0.722 0.295 0.722ZM0.207 0.674H0.290Q0.379 0.674 0.416 0.626Q0.456 0.575 0.456 0.490Q0.456 0.409 0.417 0.363Q0.393 0.335 0.360 0.325Q0.327 0.315 0.261 0.315H0.207ZM0.571 0.722V0.677L0.778 0.433H0.581V0.388H0.853V0.433L0.646 0.677H0.857V0.722Z" fill="black"/>
</svg>
