<svg xmlns="http://www.w3.org/2000/svg" viewBox="0 0 1 1" preserveAspectRatio="xMidYMid meet">
  <path d="M0.417 0.722V0.659Q0.380 0.730 0.305 0.730Q0.245 0.730 0.210 0.686Q0.176 0.642 0.176 0.565Q0.176 0.482 0.215 0.431Q0.254 0.380 0.318 0.380Q0.378 0.380 0.417 0.426V0.236H0.478V0.722ZM0.417 0.467Q0.370 0.426 0.327 0.426Q0.286 0.426 0.263 0.461Q0.240 0.496 0.240 0.559Q0.240 0.677 0.318 0.677Q0.368 0.677 0.417 0.622ZM0.539 0.722V0.677L0.746 0.433H0.548V0.388H0.820V0.433L0.613 0.677H0.824V0.722Z" fill="black"/>
</svg>
