<svg xmlns="http://www.w3.org/2000/svg" viewBox="0 0 1 1" preserveAspectRatio="xMidYMid meet">
  <path d="M0.287 0.722V0.388H0.348V0.451Q0.396 0.380 0.465 0.380Q0.509 0.380 0.535 0.408Q0.561 0.435 0.561 0.482V0.722H0.500V0.502Q0.500 0.464 0.489 0.449Q0.478 0.433 0.453 0.433Q0.397 0.433 0.348 0.506V0.722ZM0.534 0.836V0.788Q0.577 0.806 0.599 0.806Q0.624 0.806 0.638 0.792Q0.647 0.783 0.650 0.771Q0.652 0.760 0.652 0.722V0.388H0.713V0.722Q0.713 0.851 0.604 0.851Q0.571 0.851 0.534 0.836ZM0.652 0.327V0.266H0.713V0.327Z" fill="black"/>
</svg>
