<svg xmlns="http://www.w3.org/2000/svg" viewBox="0 0 1 1" preserveAspectRatio="xMidYMid meet">
  <path d="M0.336 0.266H0.401V0.554Q0.401 0.623 0.427 0.654Q0.452 0.685 0.507 0.685Q0.562 0.685 0.584 0.656Q0.607 0.627 0.607 0.556V0.266H0.664V0.555Q0.664 0.615 0.652 0.647Q0.640 0.679 0.610 0.704Q0.571 0.734 0.505 0.734Q0.418 0.734 0.377 0.690Q0.336 0.646 0.336 0.553ZM0.416 0.228V0.175H0.470V0.228ZM0.538 0.228V0.175H0.592V0.228ZM0.612 0.030 0.538 0.129H0.470L0.396 0.030H0.442L0.504 0.092L0.566 0.030Z" fill="black"/>
</svg>
