<svg xmlns="http://www.w3.org/2000/svg" viewBox="0 0 1 1" preserveAspectRatio="xMidYMid meet">
  <path d="M0.339 0.834 0.346 0.781Q0.398 0.806 0.450 0.806Q0.552 0.806 0.552 0.697V0.644Q0.536 0.678 0.507 0.696Q0.478 0.715 0.442 0.715Q0.382 0.715 0.346 0.671Q0.311 0.627 0.311 0.553Q0.311 0.476 0.351 0.428Q0.392 0.380 0.456 0.380Q0.512 0.380 0.552 0.426V0.388H0.613V0.516H0.689V0.554H0.613V0.631Q0.613 0.710 0.605 0.747Q0.597 0.785 0.574 0.809Q0.535 0.851 0.450 0.851Q0.392 0.851 0.339 0.834ZM0.552 0.606V0.554H0.469V0.516H0.552V0.467Q0.512 0.426 0.465 0.426Q0.423 0.426 0.399 0.459Q0.376 0.493 0.376 0.553Q0.376 0.662 0.453 0.662Q0.506 0.662 0.552 0.606Z" fill="black"/>
</svg>
