<svg xmlns="http://www.w3.org/2000/svg" viewBox="0 0 1 1" preserveAspectRatio="xMidYMid meet">
  <path d="M0.685 0.710Q0.602 0.734 0.540 0.734Q0.431 0.734 0.373 0.672Q0.315 0.610 0.315 0.494Q0.315 0.380 0.374 0.318Q0.433 0.255 0.540 0.255Q0.609 0.255 0.684 0.276V0.335Q0.590 0.303 0.540 0.303Q0.466 0.303 0.425 0.353Q0.384 0.403 0.384 0.495Q0.384 0.585 0.428 0.635Q0.471 0.685 0.550 0.685Q0.583 0.685 0.620 0.674V0.525H0.685ZM0.647 0.129 0.572 0.228H0.505L0.431 0.129H0.476L0.539 0.191L0.601 0.129Z" fill="black"/>
</svg>
