<svg xmlns="http://www.w3.org/2000/svg" viewBox="0 0 1 1" preserveAspectRatio="xMidYMid meet">
  <path d="M0.500 0.734Q0.403 0.734 0.345 0.669Q0.287 0.603 0.287 0.494Q0.287 0.385 0.345 0.320Q0.403 0.255 0.500 0.255Q0.597 0.255 0.655 0.320Q0.713 0.385 0.713 0.494Q0.713 0.603 0.655 0.669Q0.597 0.734 0.500 0.734ZM0.500 0.685Q0.568 0.685 0.606 0.635Q0.645 0.584 0.645 0.494Q0.645 0.404 0.606 0.354Q0.568 0.303 0.500 0.303Q0.432 0.303 0.394 0.354Q0.355 0.404 0.355 0.494Q0.355 0.584 0.394 0.635Q0.432 0.685 0.500 0.685ZM0.518 0.722H0.551Q0.512 0.746 0.512 0.777Q0.512 0.807 0.547 0.807Q0.564 0.807 0.575 0.802V0.827Q0.556 0.836 0.532 0.836Q0.504 0.836 0.487 0.823Q0.469 0.809 0.469 0.787Q0.469 0.749 0.518 0.722ZM0.401 0.228V0.182H0.599V0.228Z" fill="black"/>
</svg>
