<svg xmlns="http://www.w3.org/2000/svg" viewBox="0 0 1 1" preserveAspectRatio="xMidYMid meet">
  <path d="M0.359 0.718V0.661Q0.417 0.686 0.472 0.686Q0.517 0.686 0.545 0.662Q0.572 0.637 0.572 0.597Q0.572 0.554 0.535 0.527Q0.499 0.500 0.439 0.500Q0.424 0.500 0.401 0.504V0.457L0.555 0.323H0.363V0.266H0.627V0.323L0.477 0.453Q0.547 0.453 0.594 0.493Q0.641 0.533 0.641 0.593Q0.641 0.659 0.595 0.696Q0.549 0.734 0.469 0.734Q0.414 0.734 0.359 0.718ZM0.603 0.129 0.529 0.228H0.462L0.387 0.129H0.433L0.496 0.191L0.557 0.129Z" fill="black"/>
</svg>
