<svg xmlns="http://www.w3.org/2000/svg" viewBox="0 0 1 1" preserveAspectRatio="xMidYMid meet">
  <path d="M0.366 0.836V0.785Q0.428 0.806 0.472 0.806Q0.517 0.806 0.543 0.782Q0.569 0.758 0.569 0.719Q0.569 0.671 0.527 0.644Q0.484 0.617 0.409 0.617H0.404V0.574L0.552 0.437H0.372V0.388H0.623V0.433L0.473 0.574Q0.548 0.581 0.591 0.618Q0.634 0.656 0.634 0.715Q0.634 0.776 0.590 0.814Q0.545 0.851 0.473 0.851Q0.429 0.851 0.366 0.836ZM0.605 0.228 0.531 0.327H0.464L0.389 0.228H0.435L0.498 0.290L0.559 0.228Z" fill="black"/>
</svg>
