<svg xmlns="http://www.w3.org/2000/svg" viewBox="0 0 1 1" preserveAspectRatio="xMidYMid meet">
  <path d="M0.288 0.722 0.469 0.266H0.533L0.712 0.722H0.642L0.592 0.596H0.399L0.349 0.722ZM0.418 0.548H0.573L0.496 0.351ZM0.456 0.099 0.530 0.000H0.600L0.501 0.099ZM0.501 0.266Q0.472 0.266 0.452 0.245Q0.431 0.225 0.431 0.196Q0.431 0.167 0.452 0.146Q0.472 0.126 0.501 0.126Q0.530 0.126 0.551 0.146Q0.571 0.166 0.571 0.196Q0.571 0.225 0.551 0.245Q0.531 0.266 0.501 0.266ZM0.501 0.239Q0.520 0.239 0.532 0.227Q0.545 0.214 0.545 0.196Q0.545 0.178 0.532 0.165Q0.519 0.152 0.501 0.152Q0.483 0.152 0.471 0.165Q0.458 0.178 0.458 0.196Q0.458 0.214 0.471 0.226Q0.483 0.239 0.501 0.239Z" fill="black"/>
</svg>
