<svg xmlns="http://www.w3.org/2000/svg" viewBox="0 0 1 1" preserveAspectRatio="xMidYMid meet">
  <path d="M0.188 0.734 0.547 0.255H0.595L0.236 0.734ZM0.282 0.494Q0.237 0.494 0.211 0.463Q0.184 0.433 0.184 0.380Q0.184 0.328 0.211 0.297Q0.237 0.266 0.282 0.266Q0.326 0.266 0.352 0.297Q0.378 0.328 0.378 0.380Q0.378 0.433 0.352 0.463Q0.326 0.494 0.282 0.494ZM0.282 0.464Q0.305 0.464 0.319 0.441Q0.333 0.418 0.333 0.380Q0.333 0.342 0.319 0.319Q0.305 0.296 0.282 0.296Q0.258 0.296 0.244 0.319Q0.230 0.342 0.230 0.380Q0.230 0.418 0.244 0.441Q0.258 0.464 0.282 0.464ZM0.502 0.722Q0.457 0.722 0.431 0.692Q0.405 0.661 0.405 0.608Q0.405 0.556 0.431 0.525Q0.457 0.494 0.502 0.494Q0.547 0.494 0.573 0.525Q0.599 0.556 0.599 0.608Q0.599 0.661 0.573 0.692Q0.547 0.722 0.502 0.722ZM0.502 0.692Q0.526 0.692 0.539 0.669Q0.553 0.647 0.553 0.608Q0.553 0.570 0.539 0.547Q0.526 0.524 0.502 0.524Q0.478 0.524 0.465 0.547Q0.451 0.570 0.451 0.608Q0.451 0.647 0.465 0.669Q0.478 0.692 0.502 0.692ZM0.718 0.722Q0.674 0.722 0.648 0.692Q0.622 0.661 0.622 0.608Q0.622 0.556 0.648 0.525Q0.674 0.494 0.718 0.494Q0.763 0.494 0.789 0.525Q0.816 0.556 0.816 0.608Q0.816 0.661 0.789 0.692Q0.763 0.722 0.718 0.722ZM0.718 0.692Q0.742 0.692 0.756 0.669Q0.770 0.647 0.770 0.608Q0.770 0.570 0.756 0.547Q0.742 0.524 0.718 0.524Q0.695 0.524 0.681 0.547Q0.667 0.570 0.667 0.608Q0.667 0.647 0.681 0.669Q0.695 0.692 0.718 0.692Z" fill="black"/>
</svg>
