<svg xmlns="http://www.w3.org/2000/svg" viewBox="0 0 1 1" preserveAspectRatio="xMidYMid meet">
  <path d="M0.080 0.734 0.439 0.255H0.487L0.128 0.734ZM0.173 0.494Q0.129 0.494 0.102 0.463Q0.076 0.433 0.076 0.380Q0.076 0.328 0.102 0.297Q0.129 0.266 0.173 0.266Q0.218 0.266 0.244 0.297Q0.270 0.328 0.270 0.380Q0.270 0.433 0.244 0.463Q0.218 0.494 0.173 0.494ZM0.173 0.464Q0.197 0.464 0.210 0.441Q0.224 0.418 0.224 0.380Q0.224 0.342 0.210 0.319Q0.197 0.296 0.173 0.296Q0.149 0.296 0.136 0.319Q0.122 0.342 0.122 0.380Q0.122 0.418 0.136 0.441Q0.149 0.464 0.173 0.464ZM0.394 0.722Q0.349 0.722 0.323 0.692Q0.297 0.661 0.297 0.608Q0.297 0.556 0.323 0.525Q0.349 0.494 0.394 0.494Q0.438 0.494 0.464 0.525Q0.491 0.556 0.491 0.608Q0.491 0.661 0.464 0.692Q0.438 0.722 0.394 0.722ZM0.394 0.692Q0.417 0.692 0.431 0.669Q0.445 0.647 0.445 0.608Q0.445 0.570 0.431 0.547Q0.417 0.524 0.394 0.524Q0.370 0.524 0.356 0.547Q0.342 0.570 0.342 0.608Q0.342 0.647 0.356 0.669Q0.370 0.692 0.394 0.692ZM0.610 0.722Q0.566 0.722 0.540 0.692Q0.513 0.661 0.513 0.608Q0.513 0.556 0.540 0.525Q0.566 0.494 0.610 0.494Q0.655 0.494 0.681 0.525Q0.707 0.556 0.707 0.608Q0.707 0.661 0.681 0.692Q0.655 0.722 0.610 0.722ZM0.610 0.692Q0.634 0.692 0.648 0.669Q0.662 0.647 0.662 0.608Q0.662 0.570 0.648 0.547Q0.634 0.524 0.610 0.524Q0.587 0.524 0.573 0.547Q0.559 0.570 0.559 0.608Q0.559 0.647 0.573 0.669Q0.587 0.692 0.610 0.692ZM0.827 0.722Q0.782 0.722 0.756 0.692Q0.730 0.661 0.730 0.608Q0.730 0.556 0.756 0.525Q0.782 0.494 0.827 0.494Q0.871 0.494 0.898 0.525Q0.924 0.556 0.924 0.608Q0.924 0.661 0.898 0.692Q0.872 0.722 0.827 0.722ZM0.827 0.692Q0.851 0.692 0.864 0.669Q0.878 0.647 0.878 0.608Q0.878 0.570 0.864 0.547Q0.851 0.524 0.827 0.524Q0.803 0.524 0.790 0.547Q0.776 0.570 0.776 0.608Q0.776 0.647 0.790 0.669Q0.803 0.692 0.827 0.692Z" fill="black"/>
</svg>
