<svg xmlns="http://www.w3.org/2000/svg" viewBox="0 0 1 1" preserveAspectRatio="xMidYMid meet">
  <path d="M0.500 0.467 0.648 0.320 0.675 0.346 0.527 0.494 0.675 0.642 0.648 0.669 0.500 0.521 0.352 0.669 0.325 0.642 0.473 0.494 0.325 0.346 0.352 0.320ZM0.352 0.529Q0.338 0.529 0.328 0.518Q0.318 0.508 0.318 0.494Q0.318 0.480 0.328 0.470Q0.338 0.460 0.352 0.460Q0.366 0.460 0.376 0.470Q0.386 0.480 0.386 0.494Q0.386 0.508 0.376 0.518Q0.366 0.529 0.352 0.529ZM0.648 0.529Q0.634 0.529 0.624 0.518Q0.614 0.508 0.614 0.494Q0.614 0.480 0.624 0.470Q0.634 0.460 0.648 0.460Q0.662 0.460 0.672 0.470Q0.682 0.480 0.682 0.494Q0.682 0.508 0.672 0.518Q0.662 0.529 0.648 0.529ZM0.500 0.381Q0.486 0.381 0.476 0.371Q0.466 0.361 0.466 0.346Q0.466 0.332 0.476 0.322Q0.486 0.312 0.500 0.312Q0.514 0.312 0.524 0.322Q0.534 0.332 0.534 0.346Q0.534 0.361 0.524 0.371Q0.514 0.381 0.500 0.381ZM0.500 0.676Q0.486 0.676 0.476 0.666Q0.466 0.656 0.466 0.642Q0.466 0.628 0.476 0.618Q0.486 0.608 0.500 0.608Q0.514 0.608 0.524 0.618Q0.534 0.628 0.534 0.642Q0.534 0.656 0.524 0.666Q0.514 0.676 0.500 0.676Z" fill="black"/>
</svg>
