<svg xmlns="http://www.w3.org/2000/svg" viewBox="0 0 1 1" preserveAspectRatio="xMidYMid meet">
  <path d="M0.444 0.722V0.662H0.505V0.722ZM0.509 0.451Q0.557 0.395 0.557 0.360Q0.557 0.333 0.536 0.316Q0.514 0.300 0.478 0.300Q0.431 0.300 0.378 0.323V0.272Q0.435 0.255 0.486 0.255Q0.548 0.255 0.585 0.283Q0.622 0.311 0.622 0.359Q0.622 0.386 0.611 0.406Q0.600 0.425 0.570 0.454L0.551 0.472Q0.522 0.499 0.514 0.517Q0.505 0.536 0.505 0.567V0.601H0.444V0.584Q0.444 0.561 0.449 0.541L0.444 0.445V0.353H0.505V0.445L0.504 0.456Z" fill="black"/>
</svg>
