<svg xmlns="http://www.w3.org/2000/svg" viewBox="0 0 1 1" preserveAspectRatio="xMidYMid meet">
  <path d="M0.613 0.340 0.515 0.388 0.613 0.435 0.599 0.462 0.508 0.401 0.515 0.509H0.485L0.492 0.401L0.402 0.462L0.387 0.435L0.485 0.388L0.387 0.340L0.402 0.314L0.492 0.375L0.485 0.266H0.515L0.508 0.375L0.598 0.314ZM0.736 0.553 0.638 0.601 0.736 0.648 0.720 0.675 0.631 0.614 0.638 0.722H0.608L0.615 0.614L0.525 0.675L0.510 0.648L0.608 0.601L0.510 0.553L0.525 0.527L0.615 0.587L0.608 0.479H0.638L0.631 0.588L0.720 0.527ZM0.490 0.553 0.392 0.601 0.490 0.648 0.475 0.675 0.385 0.614 0.392 0.722H0.362L0.369 0.614L0.279 0.675L0.264 0.648L0.362 0.601L0.264 0.553L0.279 0.527L0.369 0.587L0.362 0.479H0.392L0.385 0.588L0.475 0.527Z" fill="black"/>
</svg>
