<svg xmlns="http://www.w3.org/2000/svg" viewBox="0 0 1 1" preserveAspectRatio="xMidYMid meet">
  <path d="M0.450 0.396Q0.476 0.364 0.516 0.364Q0.552 0.364 0.575 0.388Q0.598 0.412 0.598 0.449Q0.598 0.492 0.572 0.519Q0.545 0.547 0.504 0.547Q0.456 0.547 0.429 0.510Q0.402 0.474 0.402 0.409Q0.402 0.338 0.432 0.299Q0.463 0.259 0.519 0.259Q0.546 0.259 0.584 0.269V0.305Q0.546 0.290 0.519 0.290Q0.450 0.290 0.450 0.396ZM0.553 0.457Q0.553 0.428 0.540 0.411Q0.526 0.394 0.504 0.394Q0.482 0.394 0.467 0.409Q0.452 0.424 0.452 0.446Q0.452 0.477 0.466 0.497Q0.481 0.516 0.505 0.516Q0.527 0.516 0.540 0.500Q0.553 0.484 0.553 0.457Z" fill="black"/>
</svg>
