<svg xmlns="http://www.w3.org/2000/svg" viewBox="0 0 1 1" preserveAspectRatio="xMidYMid meet">
  <path d="M0.458 0.392Q0.419 0.365 0.419 0.330Q0.419 0.298 0.442 0.279Q0.466 0.259 0.505 0.259Q0.541 0.259 0.563 0.276Q0.584 0.292 0.584 0.320Q0.584 0.358 0.536 0.390Q0.596 0.421 0.596 0.468Q0.596 0.503 0.569 0.525Q0.542 0.547 0.499 0.547Q0.456 0.547 0.430 0.526Q0.404 0.506 0.404 0.473Q0.404 0.424 0.458 0.392ZM0.512 0.377Q0.544 0.353 0.544 0.326Q0.544 0.310 0.532 0.300Q0.520 0.290 0.501 0.290Q0.459 0.290 0.459 0.323Q0.459 0.348 0.512 0.377ZM0.482 0.409Q0.448 0.435 0.448 0.465Q0.448 0.488 0.463 0.502Q0.478 0.516 0.502 0.516Q0.524 0.516 0.538 0.504Q0.553 0.493 0.553 0.475Q0.553 0.450 0.508 0.423Z" fill="black"/>
</svg>
