<svg xmlns="http://www.w3.org/2000/svg" viewBox="0 0 1 1" preserveAspectRatio="xMidYMid meet">
  <path d="M0.550 0.405Q0.524 0.438 0.485 0.438Q0.448 0.438 0.425 0.414Q0.401 0.390 0.401 0.353Q0.401 0.310 0.428 0.282Q0.455 0.255 0.496 0.255Q0.544 0.255 0.571 0.291Q0.599 0.328 0.599 0.392Q0.599 0.463 0.568 0.503Q0.537 0.542 0.481 0.542Q0.454 0.542 0.416 0.532V0.496Q0.453 0.512 0.481 0.512Q0.550 0.512 0.550 0.405ZM0.447 0.345Q0.447 0.374 0.460 0.391Q0.473 0.408 0.496 0.408Q0.518 0.408 0.533 0.392Q0.548 0.377 0.548 0.356Q0.548 0.324 0.534 0.305Q0.519 0.286 0.495 0.286Q0.473 0.286 0.460 0.302Q0.447 0.317 0.447 0.345Z" fill="black"/>
</svg>
