<svg xmlns="http://www.w3.org/2000/svg" viewBox="0 0 1 1" preserveAspectRatio="xMidYMid meet">
  <path d="M0.415 0.720V0.683Q0.455 0.698 0.480 0.698Q0.505 0.698 0.521 0.684Q0.537 0.671 0.537 0.648Q0.537 0.592 0.456 0.592H0.441V0.563H0.454Q0.529 0.563 0.529 0.512Q0.529 0.472 0.481 0.472Q0.453 0.472 0.419 0.488V0.453Q0.453 0.442 0.489 0.442Q0.576 0.442 0.576 0.506Q0.576 0.555 0.517 0.575Q0.585 0.590 0.585 0.648Q0.585 0.686 0.558 0.707Q0.531 0.729 0.485 0.729Q0.452 0.729 0.415 0.720Z" fill="black"/>
</svg>
