<svg xmlns="http://www.w3.org/2000/svg" viewBox="0 0 1 1" preserveAspectRatio="xMidYMid meet">
  <path d="M0.458 0.574Q0.419 0.548 0.419 0.512Q0.419 0.481 0.442 0.461Q0.466 0.442 0.505 0.442Q0.541 0.442 0.563 0.458Q0.584 0.475 0.584 0.502Q0.584 0.540 0.536 0.573Q0.596 0.603 0.596 0.650Q0.596 0.685 0.569 0.707Q0.542 0.729 0.499 0.729Q0.456 0.729 0.430 0.709Q0.404 0.688 0.404 0.655Q0.404 0.606 0.458 0.574ZM0.512 0.559Q0.544 0.536 0.544 0.508Q0.544 0.492 0.532 0.482Q0.520 0.472 0.501 0.472Q0.459 0.472 0.459 0.505Q0.459 0.530 0.512 0.559ZM0.482 0.591Q0.448 0.618 0.448 0.648Q0.448 0.670 0.463 0.684Q0.478 0.699 0.502 0.699Q0.524 0.699 0.538 0.687Q0.553 0.676 0.553 0.657Q0.553 0.632 0.508 0.606Z" fill="black"/>
</svg>
