<svg xmlns="http://www.w3.org/2000/svg" viewBox="0 0 1 1" preserveAspectRatio="xMidYMid meet">
  <path d="M0.550 0.592Q0.524 0.625 0.485 0.625Q0.448 0.625 0.425 0.601Q0.401 0.577 0.401 0.540Q0.401 0.497 0.428 0.469Q0.455 0.442 0.496 0.442Q0.544 0.442 0.571 0.478Q0.599 0.515 0.599 0.579Q0.599 0.651 0.568 0.690Q0.537 0.729 0.481 0.729Q0.454 0.729 0.416 0.719V0.683Q0.453 0.699 0.481 0.699Q0.550 0.699 0.550 0.592ZM0.447 0.532Q0.447 0.561 0.460 0.578Q0.473 0.595 0.496 0.595Q0.518 0.595 0.533 0.580Q0.548 0.564 0.548 0.543Q0.548 0.511 0.534 0.492Q0.519 0.473 0.495 0.473Q0.473 0.473 0.460 0.489Q0.447 0.504 0.447 0.532Z" fill="black"/>
</svg>
