<svg xmlns="http://www.w3.org/2000/svg" viewBox="0 0 1 1" preserveAspectRatio="xMidYMid meet">
  <path d="M0.279 0.783 0.352 0.638Q0.317 0.578 0.317 0.494Q0.317 0.382 0.377 0.317Q0.407 0.285 0.441 0.272Q0.476 0.258 0.540 0.255H0.543L0.568 0.205H0.611L0.585 0.257Q0.615 0.259 0.648 0.266L0.678 0.205H0.721L0.686 0.275V0.336L0.679 0.333Q0.667 0.329 0.660 0.327L0.488 0.674Q0.516 0.683 0.547 0.683Q0.613 0.683 0.687 0.643V0.699Q0.619 0.734 0.542 0.734Q0.498 0.734 0.461 0.724L0.432 0.783H0.389L0.426 0.711Q0.398 0.696 0.377 0.673L0.322 0.783ZM0.561 0.304 0.411 0.605Q0.427 0.635 0.453 0.655L0.623 0.316Q0.591 0.306 0.561 0.304ZM0.518 0.304Q0.455 0.312 0.420 0.362Q0.386 0.411 0.386 0.494Q0.386 0.525 0.392 0.556Z" fill="black"/>
</svg>
