<svg xmlns="http://www.w3.org/2000/svg" viewBox="0 0 1 1" preserveAspectRatio="xMidYMid meet">
  <path d="M0.672 0.708Q0.603 0.734 0.530 0.734Q0.451 0.734 0.406 0.695Q0.371 0.664 0.349 0.609Q0.328 0.553 0.328 0.491Q0.328 0.384 0.386 0.316Q0.438 0.255 0.542 0.255Q0.613 0.255 0.672 0.275V0.328Q0.594 0.300 0.534 0.300Q0.466 0.300 0.429 0.350Q0.393 0.399 0.393 0.489Q0.393 0.568 0.422 0.621Q0.451 0.674 0.501 0.686V0.418H0.562V0.473Q0.585 0.440 0.607 0.427Q0.629 0.414 0.665 0.413L0.672 0.412V0.471Q0.661 0.470 0.656 0.470Q0.602 0.470 0.562 0.527V0.686Q0.627 0.676 0.672 0.651Z" fill="black"/>
</svg>
