<svg xmlns="http://www.w3.org/2000/svg" viewBox="0 0 1 1" preserveAspectRatio="xMidYMid meet">
  <path d="M0.139 0.722V0.266H0.256Q0.310 0.266 0.339 0.275Q0.368 0.284 0.387 0.306Q0.411 0.335 0.411 0.386Q0.411 0.459 0.362 0.500Q0.312 0.541 0.225 0.541H0.200V0.722ZM0.200 0.492H0.226Q0.284 0.492 0.315 0.466Q0.347 0.439 0.347 0.390Q0.347 0.350 0.322 0.332Q0.297 0.315 0.240 0.315H0.200ZM0.616 0.722Q0.588 0.730 0.567 0.730Q0.521 0.730 0.495 0.704Q0.469 0.677 0.469 0.630V0.433H0.439V0.388H0.469V0.327L0.530 0.321V0.388H0.617V0.433H0.530V0.619Q0.530 0.684 0.587 0.684Q0.599 0.684 0.616 0.680ZM0.636 0.711V0.655Q0.695 0.684 0.740 0.684Q0.766 0.684 0.783 0.670Q0.800 0.656 0.800 0.635Q0.800 0.604 0.752 0.583L0.716 0.568Q0.638 0.536 0.638 0.474Q0.638 0.431 0.669 0.405Q0.700 0.380 0.754 0.380Q0.782 0.380 0.823 0.388L0.836 0.390V0.441Q0.785 0.426 0.755 0.426Q0.728 0.426 0.712 0.437Q0.697 0.449 0.697 0.468Q0.697 0.496 0.741 0.515L0.770 0.527Q0.820 0.548 0.840 0.571Q0.861 0.594 0.861 0.629Q0.861 0.673 0.826 0.702Q0.792 0.730 0.737 0.730Q0.695 0.730 0.636 0.711Z" fill="black"/>
</svg>
