<svg xmlns="http://www.w3.org/2000/svg" viewBox="0 0 1 1" preserveAspectRatio="xMidYMid meet">
  <path d="M0.236 0.722V0.266H0.374Q0.440 0.266 0.475 0.295Q0.510 0.324 0.510 0.379Q0.510 0.423 0.486 0.457Q0.461 0.491 0.418 0.509L0.546 0.722H0.466L0.361 0.529H0.300V0.722ZM0.300 0.481H0.321Q0.381 0.481 0.412 0.457Q0.443 0.432 0.443 0.386Q0.443 0.315 0.341 0.315H0.300ZM0.539 0.711V0.655Q0.598 0.684 0.643 0.684Q0.669 0.684 0.686 0.670Q0.704 0.656 0.704 0.635Q0.704 0.604 0.655 0.583L0.619 0.568Q0.541 0.536 0.541 0.474Q0.541 0.431 0.572 0.405Q0.603 0.380 0.657 0.380Q0.685 0.380 0.726 0.388L0.739 0.390V0.441Q0.688 0.426 0.658 0.426Q0.631 0.426 0.615 0.437Q0.600 0.449 0.600 0.468Q0.600 0.496 0.644 0.515L0.673 0.527Q0.723 0.548 0.743 0.571Q0.764 0.594 0.764 0.629Q0.764 0.673 0.729 0.702Q0.695 0.730 0.640 0.730Q0.598 0.730 0.539 0.711Z" fill="black"/>
</svg>
