<svg xmlns="http://www.w3.org/2000/svg" viewBox="0 0 1 1" preserveAspectRatio="xMidYMid meet">
  <path d="M0.386 0.627 0.420 0.487H0.350ZM0.585 0.487 0.616 0.622 0.654 0.487ZM0.514 0.449 0.500 0.388H0.492L0.478 0.449ZM0.576 0.449H0.665L0.682 0.388H0.562ZM0.429 0.449 0.443 0.388H0.324L0.340 0.449ZM0.412 0.722H0.348L0.287 0.487H0.185V0.449H0.278L0.262 0.388H0.185V0.350H0.252L0.231 0.266H0.293L0.314 0.350H0.452L0.472 0.266H0.535L0.554 0.350H0.693L0.716 0.266H0.769L0.746 0.350H0.815V0.388H0.735L0.718 0.449H0.815V0.487H0.707L0.641 0.722H0.577L0.523 0.487H0.469Z" fill="black"/>
</svg>
