<svg xmlns="http://www.w3.org/2000/svg" viewBox="0 0 1 1" preserveAspectRatio="xMidYMid meet">
  <path d="M0.234 0.722V0.266H0.437Q0.546 0.266 0.579 0.302Q0.595 0.320 0.601 0.351Q0.606 0.382 0.606 0.450V0.570H0.553V0.464Q0.553 0.402 0.549 0.380Q0.545 0.359 0.531 0.345Q0.512 0.327 0.437 0.327H0.287V0.722ZM0.394 0.722V0.418H0.447V0.662H0.597Q0.671 0.662 0.691 0.643Q0.705 0.630 0.709 0.608Q0.713 0.586 0.713 0.524V0.266H0.766V0.539Q0.766 0.606 0.760 0.638Q0.755 0.669 0.739 0.686Q0.706 0.722 0.597 0.722Z" fill="black"/>
</svg>
