<svg xmlns="http://www.w3.org/2000/svg" viewBox="0 0 1 1" preserveAspectRatio="xMidYMid meet">
  <path d="M0.266 0.722 0.684 0.266H0.734L0.316 0.722ZM0.401 0.473 0.418 0.389Q0.395 0.429 0.368 0.453Q0.340 0.477 0.316 0.477Q0.299 0.477 0.287 0.463Q0.276 0.449 0.276 0.428Q0.276 0.369 0.319 0.317Q0.362 0.266 0.411 0.266Q0.424 0.266 0.441 0.271H0.487L0.447 0.473ZM0.427 0.343 0.435 0.303Q0.422 0.296 0.407 0.296Q0.378 0.296 0.355 0.327Q0.343 0.344 0.333 0.371Q0.323 0.399 0.323 0.418Q0.323 0.435 0.336 0.435Q0.364 0.435 0.427 0.343ZM0.656 0.704Q0.614 0.722 0.579 0.722Q0.510 0.722 0.510 0.652Q0.510 0.597 0.550 0.554Q0.590 0.511 0.641 0.511Q0.661 0.511 0.688 0.519L0.682 0.553Q0.656 0.542 0.638 0.542Q0.606 0.542 0.582 0.573Q0.559 0.604 0.559 0.647Q0.559 0.689 0.595 0.687Q0.629 0.686 0.664 0.665Z" fill="black"/>
</svg>
