<svg xmlns="http://www.w3.org/2000/svg" viewBox="0 0 1 1" preserveAspectRatio="xMidYMid meet">
  <path d="M0.266 0.722 0.684 0.266H0.734L0.316 0.722ZM0.401 0.473 0.418 0.389Q0.395 0.429 0.368 0.453Q0.340 0.477 0.316 0.477Q0.299 0.477 0.287 0.463Q0.276 0.449 0.276 0.428Q0.276 0.369 0.319 0.317Q0.362 0.266 0.411 0.266Q0.424 0.266 0.441 0.271H0.487L0.447 0.473ZM0.427 0.343 0.435 0.303Q0.422 0.296 0.407 0.296Q0.378 0.296 0.355 0.327Q0.343 0.344 0.333 0.371Q0.323 0.399 0.323 0.418Q0.323 0.435 0.336 0.435Q0.364 0.435 0.427 0.343ZM0.511 0.708 0.518 0.673Q0.557 0.692 0.582 0.692Q0.613 0.692 0.613 0.667Q0.613 0.656 0.595 0.638L0.580 0.623Q0.548 0.591 0.548 0.568Q0.548 0.544 0.569 0.527Q0.590 0.511 0.622 0.511Q0.651 0.511 0.680 0.521L0.673 0.556Q0.643 0.542 0.622 0.542Q0.593 0.542 0.593 0.565Q0.593 0.576 0.612 0.594L0.629 0.611Q0.658 0.639 0.658 0.663Q0.658 0.690 0.637 0.706Q0.615 0.722 0.580 0.722Q0.548 0.722 0.511 0.708Z" fill="black"/>
</svg>
