<svg xmlns="http://www.w3.org/2000/svg" viewBox="0 0 1 1" preserveAspectRatio="xMidYMid meet">
  <path d="M0.693 0.705Q0.670 0.717 0.630 0.726Q0.589 0.734 0.552 0.734Q0.443 0.734 0.375 0.667Q0.307 0.601 0.307 0.494Q0.307 0.387 0.375 0.321Q0.443 0.255 0.552 0.255Q0.617 0.255 0.689 0.274V0.311Q0.618 0.285 0.559 0.285Q0.502 0.285 0.472 0.326Q0.429 0.386 0.429 0.490Q0.429 0.596 0.472 0.660Q0.501 0.704 0.557 0.704Q0.624 0.704 0.693 0.668ZM0.469 0.694Q0.398 0.627 0.398 0.494Q0.398 0.362 0.469 0.295Q0.408 0.318 0.373 0.371Q0.338 0.425 0.338 0.494Q0.338 0.564 0.373 0.617Q0.408 0.670 0.469 0.694Z" fill="black"/>
</svg>
