<svg xmlns="http://www.w3.org/2000/svg" viewBox="0 0 1 1" preserveAspectRatio="xMidYMid meet">
  <path d="M0.310 0.392Q0.281 0.392 0.261 0.372Q0.242 0.352 0.242 0.323Q0.242 0.294 0.261 0.275Q0.281 0.255 0.310 0.255Q0.339 0.255 0.359 0.275Q0.378 0.295 0.378 0.323Q0.378 0.352 0.359 0.372Q0.339 0.392 0.310 0.392ZM0.310 0.361Q0.325 0.361 0.337 0.350Q0.348 0.338 0.348 0.323Q0.348 0.308 0.337 0.296Q0.325 0.285 0.310 0.285Q0.295 0.285 0.284 0.296Q0.272 0.308 0.272 0.323Q0.272 0.338 0.284 0.350Q0.295 0.361 0.310 0.361ZM0.758 0.699Q0.691 0.734 0.611 0.734Q0.505 0.734 0.447 0.671Q0.389 0.609 0.389 0.495Q0.389 0.380 0.448 0.318Q0.507 0.255 0.614 0.255Q0.676 0.255 0.758 0.275V0.336Q0.664 0.303 0.613 0.303Q0.539 0.303 0.498 0.353Q0.458 0.404 0.458 0.495Q0.458 0.583 0.501 0.633Q0.545 0.683 0.620 0.683Q0.684 0.683 0.758 0.643Z" fill="black"/>
</svg>
