<svg xmlns="http://www.w3.org/2000/svg" viewBox="0 0 1 1" preserveAspectRatio="xMidYMid meet">
  <path d="M0.266 0.722 0.684 0.266H0.734L0.316 0.722ZM0.450 0.459Q0.408 0.477 0.373 0.477Q0.304 0.477 0.304 0.407Q0.304 0.352 0.344 0.309Q0.384 0.266 0.435 0.266Q0.455 0.266 0.483 0.274L0.476 0.308Q0.451 0.297 0.432 0.297Q0.400 0.297 0.376 0.328Q0.353 0.359 0.353 0.402Q0.353 0.444 0.389 0.442Q0.423 0.440 0.458 0.420ZM0.568 0.722Q0.535 0.722 0.516 0.704Q0.497 0.686 0.497 0.655Q0.497 0.596 0.535 0.554Q0.572 0.511 0.623 0.511Q0.657 0.511 0.676 0.529Q0.696 0.547 0.696 0.579Q0.696 0.638 0.658 0.680Q0.620 0.722 0.568 0.722ZM0.578 0.691Q0.606 0.691 0.627 0.660Q0.647 0.629 0.647 0.588Q0.647 0.543 0.614 0.543Q0.586 0.543 0.566 0.574Q0.545 0.605 0.545 0.646Q0.545 0.691 0.578 0.691Z" fill="black"/>
</svg>
