<svg xmlns="http://www.w3.org/2000/svg" viewBox="0 0 1 1" preserveAspectRatio="xMidYMid meet">
  <path d="M0.266 0.722 0.684 0.266H0.734L0.316 0.722ZM0.450 0.459Q0.408 0.477 0.373 0.477Q0.304 0.477 0.304 0.407Q0.304 0.352 0.344 0.309Q0.384 0.266 0.435 0.266Q0.455 0.266 0.483 0.274L0.476 0.308Q0.451 0.297 0.432 0.297Q0.400 0.297 0.376 0.328Q0.353 0.359 0.353 0.402Q0.353 0.444 0.389 0.442Q0.423 0.440 0.458 0.420ZM0.618 0.722 0.634 0.639Q0.585 0.727 0.534 0.727Q0.500 0.727 0.500 0.688Q0.500 0.676 0.502 0.664L0.530 0.520H0.576L0.548 0.663Q0.547 0.667 0.547 0.671Q0.547 0.683 0.557 0.683Q0.582 0.683 0.644 0.590L0.658 0.520H0.703L0.663 0.722Z" fill="black"/>
</svg>
