<svg xmlns="http://www.w3.org/2000/svg" viewBox="0 0 1 1" preserveAspectRatio="xMidYMid meet">
  <path d="M0.645 0.705Q0.580 0.734 0.518 0.734Q0.445 0.734 0.400 0.697Q0.355 0.659 0.355 0.600Q0.355 0.549 0.390 0.514Q0.425 0.479 0.492 0.465Q0.443 0.451 0.415 0.422Q0.387 0.394 0.387 0.359Q0.387 0.311 0.426 0.283Q0.465 0.255 0.530 0.255Q0.577 0.255 0.638 0.271V0.337H0.607L0.607 0.331Q0.603 0.274 0.528 0.274Q0.489 0.274 0.467 0.296Q0.444 0.319 0.444 0.358Q0.444 0.407 0.472 0.431Q0.500 0.456 0.555 0.456H0.571V0.487H0.551Q0.487 0.487 0.455 0.515Q0.415 0.550 0.415 0.601Q0.415 0.648 0.448 0.679Q0.481 0.711 0.529 0.711Q0.573 0.711 0.592 0.692Q0.612 0.674 0.615 0.629L0.615 0.623H0.645Z" fill="black"/>
</svg>
