<svg xmlns="http://www.w3.org/2000/svg" viewBox="0 0 1 1" preserveAspectRatio="xMidYMid meet">
  <path d="M0.350 0.392Q0.321 0.392 0.301 0.372Q0.281 0.352 0.281 0.323Q0.281 0.294 0.301 0.275Q0.321 0.255 0.350 0.255Q0.378 0.255 0.398 0.275Q0.418 0.295 0.418 0.323Q0.418 0.352 0.398 0.372Q0.378 0.392 0.350 0.392ZM0.350 0.361Q0.365 0.361 0.376 0.350Q0.388 0.338 0.388 0.323Q0.388 0.308 0.376 0.296Q0.365 0.285 0.350 0.285Q0.335 0.285 0.323 0.296Q0.312 0.308 0.312 0.323Q0.312 0.338 0.323 0.350Q0.335 0.361 0.350 0.361ZM0.464 0.722V0.266H0.719V0.315H0.529V0.467H0.688V0.515H0.529V0.722Z" fill="black"/>
</svg>
