<svg xmlns="http://www.w3.org/2000/svg" viewBox="0 0 1 1" preserveAspectRatio="xMidYMid meet">
  <path d="M0.569 0.388H0.630L0.571 0.682Q0.673 0.644 0.725 0.557L0.736 0.565Q0.677 0.663 0.568 0.699L0.567 0.705Q0.522 0.928 0.355 0.928Q0.317 0.928 0.290 0.908Q0.264 0.888 0.264 0.859Q0.264 0.766 0.508 0.697L0.521 0.630Q0.483 0.694 0.422 0.694Q0.378 0.694 0.347 0.659Q0.317 0.623 0.317 0.573Q0.317 0.499 0.365 0.439Q0.414 0.380 0.475 0.380Q0.536 0.380 0.558 0.445ZM0.539 0.542 0.543 0.521Q0.547 0.500 0.547 0.480Q0.547 0.445 0.531 0.422Q0.514 0.399 0.489 0.399Q0.447 0.399 0.413 0.458Q0.379 0.517 0.379 0.590Q0.379 0.626 0.395 0.649Q0.411 0.671 0.436 0.671Q0.510 0.671 0.539 0.542ZM0.504 0.713Q0.311 0.768 0.311 0.858Q0.311 0.881 0.329 0.896Q0.347 0.912 0.374 0.912Q0.465 0.912 0.502 0.726Z" fill="black"/>
</svg>
