<svg xmlns="http://www.w3.org/2000/svg" viewBox="0 0 1 1" preserveAspectRatio="xMidYMid meet">
  <path d="M0.456 0.499 0.448 0.540Q0.430 0.628 0.376 0.681Q0.322 0.734 0.248 0.734Q0.212 0.734 0.187 0.714Q0.163 0.695 0.163 0.665Q0.163 0.622 0.204 0.591Q0.245 0.560 0.302 0.560L0.299 0.572Q0.259 0.576 0.236 0.598Q0.213 0.621 0.213 0.655Q0.213 0.680 0.231 0.697Q0.249 0.713 0.278 0.713Q0.319 0.713 0.344 0.678Q0.361 0.654 0.380 0.560L0.392 0.499Q0.376 0.499 0.364 0.505Q0.367 0.479 0.396 0.479L0.434 0.286Q0.420 0.285 0.413 0.285Q0.362 0.285 0.326 0.310Q0.290 0.335 0.290 0.370Q0.290 0.390 0.306 0.404Q0.321 0.418 0.342 0.418Q0.345 0.418 0.353 0.417L0.354 0.426Q0.343 0.430 0.331 0.430Q0.293 0.430 0.269 0.412Q0.245 0.395 0.245 0.367Q0.245 0.338 0.268 0.315Q0.291 0.292 0.332 0.280Q0.380 0.266 0.477 0.266H0.502L0.460 0.479H0.580L0.582 0.471Q0.603 0.362 0.655 0.295Q0.707 0.228 0.770 0.228Q0.837 0.228 0.837 0.309Q0.837 0.378 0.784 0.429Q0.731 0.479 0.642 0.492L0.638 0.512Q0.622 0.592 0.622 0.634Q0.622 0.667 0.627 0.679Q0.633 0.692 0.646 0.692Q0.663 0.692 0.686 0.668Q0.710 0.644 0.725 0.611L0.735 0.617Q0.710 0.670 0.678 0.702Q0.646 0.734 0.617 0.734Q0.559 0.734 0.559 0.632Q0.559 0.582 0.574 0.508L0.576 0.497ZM0.645 0.474Q0.710 0.463 0.748 0.413Q0.785 0.363 0.785 0.287Q0.785 0.243 0.759 0.243Q0.731 0.243 0.699 0.306Q0.666 0.369 0.648 0.461Z" fill="black"/>
</svg>
