<svg xmlns="http://www.w3.org/2000/svg" viewBox="0 0 1 1" preserveAspectRatio="xMidYMid meet">
  <path d="M0.314 0.734 0.336 0.682Q0.353 0.677 0.384 0.672Q0.420 0.643 0.420 0.605Q0.420 0.577 0.410 0.530L0.400 0.487L0.395 0.462Q0.387 0.423 0.387 0.405Q0.387 0.392 0.390 0.374Q0.417 0.335 0.459 0.303Q0.500 0.270 0.541 0.255Q0.620 0.255 0.665 0.289L0.622 0.340Q0.570 0.297 0.511 0.297L0.497 0.297Q0.474 0.311 0.461 0.334Q0.447 0.358 0.447 0.383Q0.447 0.416 0.459 0.465L0.466 0.493L0.472 0.520Q0.503 0.436 0.590 0.381Q0.603 0.415 0.624 0.440L0.630 0.448Q0.664 0.490 0.675 0.518Q0.686 0.545 0.686 0.589Q0.686 0.697 0.603 0.817Q0.589 0.813 0.580 0.813Q0.555 0.813 0.543 0.818Q0.532 0.823 0.525 0.838L0.508 0.838Q0.522 0.794 0.539 0.769Q0.559 0.765 0.571 0.765Q0.589 0.765 0.608 0.771L0.612 0.763Q0.637 0.707 0.637 0.629Q0.637 0.586 0.628 0.560Q0.619 0.533 0.591 0.495L0.582 0.483L0.573 0.472Q0.568 0.466 0.558 0.448Q0.527 0.471 0.504 0.505Q0.482 0.539 0.478 0.568L0.477 0.578Q0.473 0.622 0.412 0.673Q0.424 0.672 0.433 0.672Q0.466 0.672 0.502 0.684L0.475 0.734Q0.441 0.722 0.408 0.722Q0.362 0.722 0.314 0.734Z" fill="black"/>
</svg>
