<svg xmlns="http://www.w3.org/2000/svg" viewBox="0 0 1 1" preserveAspectRatio="xMidYMid meet">
  <path d="M0.302 0.722 0.384 0.316Q0.388 0.290 0.388 0.271Q0.388 0.258 0.365 0.257L0.344 0.255L0.339 0.255L0.342 0.236H0.460L0.396 0.555H0.400Q0.427 0.500 0.474 0.444Q0.528 0.380 0.579 0.380Q0.602 0.380 0.616 0.396Q0.629 0.411 0.629 0.436Q0.629 0.455 0.624 0.481L0.594 0.631Q0.587 0.667 0.587 0.677Q0.587 0.697 0.605 0.697Q0.636 0.697 0.698 0.629L0.692 0.658Q0.624 0.730 0.571 0.730Q0.526 0.730 0.526 0.684Q0.526 0.668 0.534 0.631L0.563 0.480Q0.567 0.463 0.567 0.451Q0.567 0.426 0.549 0.426Q0.491 0.426 0.385 0.612L0.363 0.722Z" fill="black"/>
</svg>
