<svg xmlns="http://www.w3.org/2000/svg" viewBox="0 0 1 1" preserveAspectRatio="xMidYMid meet">
  <path d="M0.348 0.236H0.466L0.445 0.337L0.577 0.298L0.572 0.326L0.440 0.365L0.402 0.555H0.406Q0.433 0.500 0.480 0.444Q0.534 0.380 0.585 0.380Q0.608 0.380 0.621 0.396Q0.635 0.411 0.635 0.436Q0.635 0.455 0.630 0.481L0.600 0.631Q0.593 0.667 0.593 0.677Q0.593 0.697 0.611 0.697Q0.642 0.697 0.703 0.629L0.698 0.658Q0.630 0.730 0.577 0.730Q0.532 0.730 0.532 0.684Q0.532 0.668 0.539 0.631L0.569 0.480Q0.573 0.463 0.573 0.451Q0.573 0.426 0.555 0.426Q0.497 0.426 0.391 0.612L0.369 0.722H0.308L0.375 0.384L0.297 0.407L0.302 0.380L0.381 0.356L0.389 0.316Q0.394 0.291 0.394 0.271Q0.394 0.258 0.371 0.257L0.350 0.255L0.344 0.255Z" fill="black"/>
</svg>
