<svg xmlns="http://www.w3.org/2000/svg" viewBox="0 0 1 1" preserveAspectRatio="xMidYMid meet">
  <path d="M0.519 0.580H0.502Q0.453 0.580 0.421 0.556Q0.389 0.533 0.389 0.497Q0.389 0.407 0.542 0.324L0.560 0.314L0.584 0.299L0.619 0.279Q0.636 0.269 0.658 0.255Q0.639 0.301 0.625 0.372L0.590 0.548Q0.636 0.531 0.668 0.494Q0.700 0.457 0.700 0.420L0.699 0.414H0.714Q0.714 0.420 0.714 0.422Q0.714 0.466 0.679 0.506Q0.643 0.546 0.586 0.566L0.580 0.596Q0.559 0.703 0.516 0.757Q0.452 0.836 0.367 0.836Q0.335 0.836 0.310 0.819Q0.286 0.802 0.286 0.779Q0.286 0.753 0.334 0.736Q0.329 0.747 0.329 0.758Q0.329 0.785 0.345 0.801Q0.361 0.817 0.387 0.817Q0.432 0.817 0.462 0.774Q0.487 0.739 0.512 0.611ZM0.569 0.327Q0.447 0.394 0.447 0.484Q0.447 0.516 0.467 0.538Q0.488 0.560 0.518 0.560H0.523Z" fill="black"/>
</svg>
