<svg xmlns="http://www.w3.org/2000/svg" viewBox="0 0 1 1" preserveAspectRatio="xMidYMid meet">
  <path d="M0.331 0.645 0.383 0.604Q0.398 0.643 0.433 0.668Q0.468 0.692 0.509 0.692Q0.544 0.692 0.569 0.666Q0.594 0.640 0.594 0.603Q0.594 0.579 0.583 0.531L0.574 0.496L0.568 0.471Q0.560 0.438 0.560 0.431Q0.560 0.390 0.632 0.300Q0.571 0.343 0.536 0.343Q0.518 0.343 0.490 0.332L0.472 0.324Q0.464 0.321 0.456 0.317Q0.431 0.304 0.422 0.304Q0.395 0.304 0.395 0.335Q0.395 0.357 0.416 0.377L0.433 0.393Q0.459 0.418 0.459 0.434Q0.459 0.462 0.412 0.510L0.398 0.496Q0.414 0.481 0.414 0.465Q0.414 0.447 0.394 0.430L0.375 0.414Q0.343 0.387 0.343 0.355Q0.397 0.284 0.469 0.255Q0.536 0.298 0.577 0.298Q0.613 0.298 0.653 0.270L0.669 0.286Q0.617 0.338 0.617 0.382Q0.617 0.399 0.625 0.430L0.633 0.460L0.640 0.491Q0.650 0.534 0.650 0.561Q0.650 0.626 0.589 0.677Q0.536 0.721 0.470 0.734Q0.373 0.715 0.331 0.645Z" fill="black"/>
</svg>
