<svg xmlns="http://www.w3.org/2000/svg" viewBox="0 0 1 1" preserveAspectRatio="xMidYMid meet">
  <path d="M0.440 0.626 0.476 0.445Q0.422 0.441 0.387 0.407Q0.352 0.374 0.352 0.327Q0.352 0.314 0.357 0.298H0.373Q0.368 0.313 0.368 0.326Q0.368 0.366 0.398 0.394Q0.427 0.422 0.479 0.430L0.480 0.422Q0.496 0.345 0.542 0.300Q0.588 0.255 0.651 0.255Q0.680 0.255 0.699 0.270Q0.717 0.286 0.717 0.310Q0.717 0.353 0.666 0.392Q0.614 0.431 0.541 0.442L0.524 0.529Q0.523 0.534 0.515 0.564L0.507 0.597Q0.503 0.614 0.491 0.642L0.551 0.661Q0.615 0.683 0.645 0.683Q0.696 0.683 0.724 0.614L0.735 0.617Q0.721 0.665 0.687 0.699Q0.654 0.734 0.622 0.734Q0.588 0.734 0.522 0.707L0.496 0.697L0.462 0.684Q0.404 0.734 0.340 0.734Q0.305 0.734 0.285 0.719Q0.265 0.705 0.265 0.680Q0.265 0.651 0.292 0.633Q0.319 0.616 0.365 0.616Q0.395 0.616 0.440 0.626ZM0.544 0.428Q0.600 0.417 0.633 0.388Q0.666 0.359 0.666 0.320Q0.666 0.299 0.655 0.286Q0.645 0.274 0.627 0.274Q0.574 0.274 0.549 0.400ZM0.425 0.667Q0.373 0.643 0.337 0.643Q0.315 0.643 0.300 0.654Q0.284 0.666 0.284 0.683Q0.284 0.699 0.299 0.710Q0.313 0.720 0.335 0.720Q0.362 0.720 0.388 0.705Q0.413 0.690 0.425 0.667Z" fill="black"/>
</svg>
