<svg xmlns="http://www.w3.org/2000/svg" viewBox="0 0 1 1" preserveAspectRatio="xMidYMid meet">
  <path d="M0.609 0.557 0.623 0.562Q0.599 0.638 0.558 0.684Q0.517 0.729 0.474 0.729Q0.414 0.729 0.414 0.654Q0.414 0.626 0.424 0.575L0.428 0.554Q0.388 0.569 0.331 0.577L0.317 0.579L0.321 0.563Q0.386 0.553 0.431 0.536L0.448 0.453Q0.466 0.360 0.482 0.315Q0.497 0.270 0.522 0.238Q0.563 0.182 0.615 0.182Q0.644 0.182 0.663 0.206Q0.683 0.230 0.683 0.267Q0.683 0.335 0.629 0.408Q0.576 0.482 0.494 0.525L0.486 0.569L0.480 0.595Q0.472 0.634 0.472 0.653Q0.472 0.700 0.502 0.700Q0.528 0.700 0.561 0.656Q0.594 0.611 0.609 0.557ZM0.498 0.505Q0.563 0.469 0.605 0.398Q0.647 0.327 0.647 0.254Q0.647 0.197 0.614 0.197Q0.585 0.197 0.563 0.243Q0.541 0.288 0.520 0.395Z" fill="black"/>
</svg>
