<svg xmlns="http://www.w3.org/2000/svg" viewBox="0 0 1 1" preserveAspectRatio="xMidYMid meet">
  <path d="M0.328 0.722H0.267V0.335H0.218V0.296H0.267V0.236H0.328V0.296H0.480V0.236H0.541V0.296H0.609V0.335H0.541V0.451Q0.578 0.380 0.653 0.380Q0.713 0.380 0.748 0.424Q0.782 0.468 0.782 0.545Q0.782 0.628 0.743 0.679Q0.704 0.730 0.639 0.730Q0.580 0.730 0.541 0.684L0.533 0.726H0.480V0.335H0.328ZM0.541 0.643Q0.588 0.684 0.630 0.684Q0.672 0.684 0.695 0.649Q0.718 0.614 0.718 0.551Q0.718 0.433 0.640 0.433Q0.589 0.433 0.541 0.488Z" fill="black"/>
</svg>
