<svg xmlns="http://www.w3.org/2000/svg" viewBox="0 0 1 1" preserveAspectRatio="xMidYMid meet">
  <path d="M0.665 0.563Q0.618 0.563 0.590 0.532Q0.563 0.501 0.563 0.449Q0.563 0.396 0.590 0.365Q0.618 0.335 0.665 0.335Q0.712 0.335 0.740 0.365Q0.768 0.396 0.768 0.449Q0.768 0.501 0.740 0.532Q0.712 0.563 0.665 0.563ZM0.665 0.524Q0.715 0.524 0.715 0.449Q0.715 0.373 0.665 0.373Q0.616 0.373 0.616 0.449Q0.616 0.524 0.665 0.524ZM0.582 0.654V0.608H0.749V0.654ZM0.283 0.375V0.722H0.232V0.266H0.287L0.466 0.612V0.266H0.517V0.722H0.462Z" fill="black"/>
</svg>
