<svg xmlns="http://www.w3.org/2000/svg" viewBox="0 0 1 1" preserveAspectRatio="xMidYMid meet">
  <path d="M0.500 0.734Q0.401 0.734 0.331 0.663Q0.261 0.593 0.261 0.494Q0.261 0.395 0.331 0.325Q0.401 0.255 0.500 0.255Q0.599 0.255 0.669 0.325Q0.739 0.395 0.739 0.494Q0.739 0.593 0.669 0.663Q0.599 0.734 0.500 0.734ZM0.500 0.700Q0.598 0.700 0.657 0.626Q0.705 0.565 0.705 0.494Q0.705 0.423 0.657 0.363Q0.598 0.289 0.500 0.289Q0.402 0.289 0.343 0.363Q0.295 0.423 0.295 0.494Q0.295 0.565 0.343 0.626Q0.402 0.700 0.500 0.700ZM0.433 0.634V0.360H0.513Q0.563 0.360 0.584 0.376Q0.606 0.393 0.606 0.432Q0.606 0.476 0.576 0.500Q0.547 0.525 0.495 0.525H0.476V0.634ZM0.476 0.494H0.490Q0.560 0.494 0.560 0.435Q0.560 0.391 0.499 0.391H0.476Z" fill="black"/>
</svg>
