<svg xmlns="http://www.w3.org/2000/svg" viewBox="0 0 1 1" preserveAspectRatio="xMidYMid meet">
  <path d="M0.464 0.342 0.473 0.357Q0.392 0.403 0.392 0.471Q0.392 0.502 0.409 0.547L0.412 0.557Q0.548 0.380 0.637 0.380Q0.669 0.380 0.687 0.404Q0.705 0.427 0.705 0.469Q0.705 0.569 0.642 0.644Q0.587 0.711 0.534 0.711Q0.512 0.711 0.498 0.699Q0.484 0.686 0.484 0.667Q0.484 0.654 0.493 0.644Q0.502 0.635 0.515 0.635Q0.545 0.635 0.545 0.665Q0.545 0.673 0.539 0.684Q0.546 0.687 0.552 0.687Q0.585 0.687 0.616 0.621Q0.647 0.555 0.647 0.486Q0.647 0.428 0.603 0.428Q0.567 0.428 0.518 0.467Q0.469 0.507 0.419 0.575L0.424 0.589L0.436 0.618Q0.459 0.676 0.459 0.720Q0.459 0.774 0.429 0.813Q0.398 0.852 0.355 0.852Q0.295 0.852 0.295 0.782Q0.295 0.716 0.374 0.606L0.370 0.596Q0.343 0.531 0.343 0.490Q0.343 0.400 0.464 0.342ZM0.381 0.624Q0.314 0.721 0.314 0.778Q0.314 0.830 0.355 0.830Q0.380 0.830 0.397 0.806Q0.414 0.782 0.414 0.747Q0.414 0.709 0.386 0.637Z" fill="black"/>
</svg>
