<svg xmlns="http://www.w3.org/2000/svg" viewBox="0 0 1 1" preserveAspectRatio="xMidYMid meet">
  <path d="M0.447 0.544V0.722H0.325V0.266H0.512Q0.568 0.266 0.593 0.271Q0.617 0.277 0.637 0.294Q0.675 0.327 0.675 0.388Q0.675 0.473 0.598 0.516Q0.550 0.544 0.459 0.544ZM0.356 0.692H0.416V0.296H0.356ZM0.447 0.513H0.453Q0.499 0.513 0.526 0.483Q0.553 0.452 0.553 0.402Q0.553 0.354 0.526 0.325Q0.499 0.296 0.453 0.296H0.447ZM0.538 0.508Q0.645 0.479 0.645 0.386Q0.645 0.296 0.538 0.296H0.531Q0.584 0.330 0.584 0.402Q0.584 0.466 0.538 0.508Z" fill="black"/>
</svg>
