<svg xmlns="http://www.w3.org/2000/svg" viewBox="0 0 1 1" preserveAspectRatio="xMidYMid meet">
  <path d="M0.516 0.732Q0.506 0.733 0.496 0.733L0.477 0.734Q0.375 0.734 0.308 0.666Q0.241 0.598 0.241 0.494Q0.241 0.388 0.309 0.321Q0.376 0.255 0.484 0.255Q0.592 0.255 0.660 0.321Q0.728 0.388 0.728 0.494Q0.728 0.665 0.561 0.725Q0.665 0.777 0.759 0.784L0.728 0.815Q0.595 0.788 0.516 0.732ZM0.402 0.694Q0.332 0.627 0.332 0.494Q0.332 0.362 0.402 0.295Q0.341 0.318 0.306 0.371Q0.271 0.425 0.271 0.494Q0.271 0.564 0.306 0.617Q0.341 0.670 0.402 0.694ZM0.484 0.703Q0.537 0.703 0.571 0.644Q0.606 0.585 0.606 0.494Q0.606 0.403 0.571 0.344Q0.537 0.285 0.484 0.285Q0.431 0.285 0.397 0.344Q0.363 0.403 0.363 0.494Q0.363 0.585 0.397 0.644Q0.431 0.703 0.484 0.703ZM0.566 0.295Q0.636 0.362 0.636 0.494Q0.636 0.627 0.566 0.694Q0.627 0.670 0.662 0.617Q0.697 0.564 0.697 0.494Q0.697 0.425 0.662 0.371Q0.627 0.318 0.566 0.295Z" fill="black"/>
</svg>
