<svg xmlns="http://www.w3.org/2000/svg" viewBox="0 0 1 1" preserveAspectRatio="xMidYMid meet">
  <path d="M0.513 0.496 0.504 0.541Q0.486 0.631 0.438 0.676Q0.377 0.734 0.306 0.734Q0.268 0.734 0.245 0.714Q0.221 0.694 0.221 0.663Q0.221 0.622 0.263 0.591Q0.306 0.559 0.360 0.559L0.358 0.571Q0.319 0.575 0.296 0.599Q0.272 0.622 0.272 0.656Q0.272 0.681 0.291 0.697Q0.310 0.713 0.338 0.713Q0.376 0.713 0.400 0.679Q0.416 0.657 0.436 0.559L0.492 0.278Q0.436 0.282 0.399 0.308Q0.362 0.334 0.362 0.371Q0.362 0.390 0.376 0.404Q0.391 0.418 0.411 0.418Q0.415 0.418 0.423 0.417L0.424 0.427Q0.409 0.431 0.395 0.431Q0.362 0.431 0.338 0.413Q0.314 0.395 0.314 0.370Q0.314 0.316 0.381 0.286Q0.447 0.255 0.564 0.255Q0.727 0.255 0.727 0.348Q0.727 0.398 0.682 0.436Q0.637 0.474 0.560 0.489Q0.606 0.496 0.622 0.514Q0.638 0.533 0.649 0.593L0.655 0.624Q0.669 0.700 0.698 0.700Q0.717 0.700 0.735 0.676Q0.753 0.653 0.766 0.614L0.779 0.618Q0.768 0.669 0.738 0.701Q0.709 0.734 0.674 0.734Q0.644 0.734 0.626 0.712Q0.608 0.689 0.596 0.637L0.590 0.608L0.582 0.575Q0.572 0.532 0.559 0.516Q0.545 0.500 0.513 0.496ZM0.517 0.478Q0.580 0.478 0.622 0.443Q0.665 0.408 0.665 0.356Q0.665 0.273 0.557 0.273Z" fill="black"/>
</svg>
