<svg xmlns="http://www.w3.org/2000/svg" viewBox="0 0 1 1" preserveAspectRatio="xMidYMid meet">
  <path d="M0.461 0.528Q0.431 0.617 0.379 0.675Q0.397 0.673 0.409 0.673Q0.449 0.673 0.479 0.682Q0.455 0.701 0.444 0.734Q0.407 0.722 0.358 0.722Q0.328 0.722 0.286 0.734L0.310 0.685Q0.354 0.677 0.375 0.646Q0.416 0.584 0.416 0.475Q0.416 0.398 0.392 0.348Q0.368 0.298 0.331 0.298Q0.317 0.298 0.307 0.309Q0.297 0.320 0.297 0.335Q0.297 0.355 0.318 0.377L0.335 0.393L0.348 0.406Q0.361 0.419 0.361 0.436Q0.361 0.460 0.314 0.510L0.300 0.497Q0.316 0.479 0.316 0.464Q0.316 0.447 0.296 0.430L0.276 0.414Q0.245 0.387 0.245 0.355Q0.296 0.283 0.369 0.255Q0.441 0.264 0.469 0.345Q0.509 0.290 0.580 0.255Q0.604 0.268 0.617 0.308L0.623 0.325L0.629 0.340Q0.637 0.365 0.657 0.370V0.391Q0.608 0.419 0.538 0.470Q0.528 0.477 0.507 0.492Q0.561 0.480 0.600 0.480Q0.613 0.499 0.633 0.544L0.649 0.578Q0.674 0.636 0.697 0.664Q0.717 0.654 0.742 0.635L0.755 0.648Q0.688 0.703 0.662 0.734Q0.634 0.709 0.596 0.623L0.585 0.597Q0.583 0.592 0.576 0.578Q0.571 0.567 0.567 0.558Q0.558 0.540 0.551 0.527Q0.528 0.523 0.510 0.523Q0.489 0.523 0.461 0.528ZM0.469 0.499Q0.489 0.480 0.527 0.449L0.559 0.424Q0.569 0.416 0.584 0.404L0.596 0.395Q0.579 0.378 0.570 0.354L0.565 0.341Q0.559 0.324 0.549 0.311Q0.509 0.327 0.476 0.368Q0.481 0.403 0.481 0.427Q0.481 0.457 0.469 0.499Z" fill="black"/>
</svg>
