<svg xmlns="http://www.w3.org/2000/svg" viewBox="0 0 1 1" preserveAspectRatio="xMidYMid meet">
  <path d="M0.301 0.722V0.266H0.466L0.501 0.266Q0.562 0.266 0.599 0.298Q0.635 0.330 0.635 0.383Q0.635 0.424 0.612 0.456Q0.588 0.488 0.546 0.504L0.699 0.722H0.546L0.422 0.517V0.722ZM0.331 0.692H0.392V0.296H0.331ZM0.422 0.490H0.438Q0.471 0.490 0.493 0.464Q0.514 0.438 0.514 0.396Q0.514 0.353 0.489 0.325Q0.464 0.296 0.427 0.296H0.422ZM0.495 0.494Q0.542 0.488 0.573 0.456Q0.605 0.424 0.605 0.383Q0.605 0.344 0.575 0.320Q0.545 0.296 0.495 0.296Q0.544 0.331 0.544 0.390Q0.544 0.464 0.495 0.494ZM0.563 0.692H0.639L0.520 0.517H0.456Z" fill="black"/>
</svg>
