<svg xmlns="http://www.w3.org/2000/svg" viewBox="0 0 1 1" preserveAspectRatio="xMidYMid meet">
  <path d="M0.397 0.529V0.699L0.472 0.550L0.458 0.529ZM0.397 0.481H0.418Q0.478 0.481 0.509 0.457Q0.540 0.432 0.540 0.386Q0.540 0.315 0.438 0.315H0.397ZM0.542 0.496 0.527 0.525 0.667 0.722H0.587L0.496 0.587L0.383 0.814L0.349 0.797L0.386 0.722H0.333V0.266H0.471Q0.518 0.266 0.545 0.278Q0.571 0.289 0.589 0.316L0.614 0.266L0.500 0.209L0.516 0.175L0.665 0.249L0.606 0.367Q0.607 0.376 0.607 0.380Q0.607 0.414 0.589 0.445Q0.572 0.476 0.542 0.496Z" fill="black"/>
</svg>
