<svg xmlns="http://www.w3.org/2000/svg" viewBox="0 0 1 1" preserveAspectRatio="xMidYMid meet">
  <path d="M0.284 0.492V0.453Q0.321 0.468 0.347 0.468Q0.386 0.468 0.386 0.438Q0.386 0.419 0.355 0.401L0.339 0.393Q0.283 0.361 0.283 0.323Q0.283 0.295 0.304 0.278Q0.325 0.260 0.359 0.260Q0.386 0.260 0.420 0.268V0.305Q0.385 0.292 0.365 0.292Q0.330 0.292 0.330 0.317Q0.330 0.333 0.362 0.351L0.378 0.360Q0.411 0.379 0.424 0.394Q0.436 0.410 0.436 0.432Q0.436 0.464 0.413 0.482Q0.389 0.500 0.347 0.500Q0.320 0.500 0.284 0.492ZM0.487 0.494V0.266H0.550L0.605 0.427L0.662 0.266H0.717V0.494H0.672V0.322L0.617 0.479H0.579L0.525 0.320V0.494Z" fill="black"/>
</svg>
