<svg xmlns="http://www.w3.org/2000/svg" viewBox="0 0 1 1" preserveAspectRatio="xMidYMid meet">
  <path d="M0.574 0.682H0.623L0.666 0.681Q0.692 0.681 0.693 0.659L0.694 0.631L0.695 0.625H0.729V0.722H0.547V0.682Q0.650 0.570 0.650 0.459Q0.650 0.379 0.608 0.328Q0.566 0.277 0.500 0.277Q0.434 0.277 0.392 0.328Q0.350 0.379 0.350 0.459Q0.350 0.570 0.453 0.682V0.722H0.271V0.625L0.306 0.626L0.306 0.631L0.307 0.659Q0.308 0.680 0.334 0.680L0.377 0.682H0.426Q0.347 0.615 0.315 0.565Q0.282 0.515 0.282 0.460Q0.282 0.371 0.344 0.313Q0.406 0.255 0.500 0.255Q0.594 0.255 0.656 0.312Q0.718 0.370 0.718 0.458Q0.718 0.515 0.686 0.565Q0.653 0.615 0.574 0.682Z" fill="black"/>
</svg>
