<svg xmlns="http://www.w3.org/2000/svg" viewBox="0 0 1 1" preserveAspectRatio="xMidYMid meet">
  <path d="M0.426 0.306H0.377L0.334 0.308Q0.308 0.308 0.307 0.329L0.306 0.357L0.305 0.363H0.271V0.266H0.453V0.306Q0.350 0.418 0.350 0.529Q0.350 0.609 0.392 0.660Q0.434 0.711 0.500 0.711Q0.566 0.711 0.608 0.660Q0.650 0.609 0.650 0.529Q0.650 0.418 0.547 0.306V0.266H0.729V0.363H0.695L0.694 0.357L0.693 0.329Q0.692 0.308 0.666 0.308L0.623 0.306H0.574Q0.653 0.373 0.685 0.423Q0.718 0.473 0.718 0.529Q0.718 0.618 0.656 0.676Q0.594 0.734 0.500 0.734Q0.406 0.734 0.344 0.676Q0.282 0.618 0.282 0.530Q0.282 0.474 0.314 0.424Q0.347 0.373 0.426 0.306Z" fill="black"/>
</svg>
