<svg xmlns="http://www.w3.org/2000/svg" viewBox="0 0 1 1" preserveAspectRatio="xMidYMid meet">
  <path d="M0.338 0.670 0.388 0.628Q0.448 0.690 0.516 0.690Q0.550 0.690 0.573 0.664Q0.596 0.638 0.596 0.600Q0.596 0.546 0.563 0.517Q0.531 0.488 0.471 0.488Q0.418 0.488 0.382 0.504L0.390 0.479Q0.427 0.461 0.473 0.417Q0.519 0.374 0.549 0.330Q0.539 0.331 0.535 0.331Q0.523 0.331 0.488 0.322L0.466 0.316L0.450 0.312Q0.435 0.308 0.419 0.308Q0.380 0.308 0.355 0.348L0.345 0.343Q0.358 0.300 0.403 0.256Q0.410 0.255 0.413 0.255Q0.420 0.255 0.441 0.259L0.474 0.266Q0.487 0.268 0.498 0.271L0.528 0.278Q0.553 0.284 0.580 0.284Q0.617 0.284 0.650 0.260L0.662 0.269Q0.636 0.306 0.576 0.359Q0.516 0.413 0.454 0.456Q0.492 0.451 0.516 0.451Q0.578 0.451 0.613 0.480Q0.649 0.509 0.649 0.560Q0.649 0.617 0.602 0.664Q0.555 0.711 0.476 0.734Q0.399 0.729 0.338 0.670Z" fill="black"/>
</svg>
