<svg xmlns="http://www.w3.org/2000/svg" viewBox="0 0 1 1" preserveAspectRatio="xMidYMid meet">
  <path d="M0.418 0.548H0.573L0.496 0.351ZM0.533 0.266 0.712 0.722H0.642L0.592 0.596H0.399L0.349 0.722H0.288L0.469 0.266Q0.446 0.248 0.446 0.221Q0.446 0.198 0.462 0.181Q0.478 0.165 0.501 0.165Q0.524 0.165 0.541 0.181Q0.557 0.198 0.557 0.221Q0.557 0.248 0.533 0.266ZM0.501 0.253Q0.515 0.253 0.524 0.244Q0.534 0.234 0.534 0.221Q0.534 0.207 0.524 0.198Q0.515 0.188 0.501 0.188Q0.488 0.188 0.478 0.198Q0.469 0.207 0.469 0.221Q0.469 0.234 0.478 0.244Q0.488 0.253 0.501 0.253Z" fill="black"/>
</svg>
