<svg xmlns="http://www.w3.org/2000/svg" viewBox="0 0 1 1" preserveAspectRatio="xMidYMid meet">
  <path d="M0.510 0.277Q0.451 0.283 0.416 0.308Q0.380 0.334 0.380 0.370Q0.380 0.390 0.395 0.404Q0.410 0.418 0.432 0.418Q0.436 0.418 0.443 0.418L0.443 0.427Q0.425 0.431 0.414 0.431Q0.381 0.431 0.357 0.413Q0.334 0.395 0.334 0.369Q0.334 0.319 0.394 0.287Q0.455 0.255 0.547 0.255Q0.639 0.255 0.683 0.281Q0.727 0.308 0.727 0.362Q0.727 0.404 0.695 0.437Q0.663 0.469 0.608 0.483Q0.664 0.498 0.695 0.531Q0.725 0.563 0.725 0.608Q0.725 0.662 0.679 0.698Q0.633 0.734 0.564 0.734Q0.513 0.734 0.448 0.696Q0.407 0.734 0.352 0.734Q0.316 0.734 0.295 0.718Q0.273 0.703 0.273 0.679Q0.273 0.652 0.296 0.635Q0.319 0.618 0.354 0.618Q0.389 0.618 0.428 0.636Q0.430 0.637 0.434 0.639Q0.444 0.611 0.451 0.573ZM0.535 0.478Q0.597 0.478 0.631 0.447Q0.665 0.416 0.665 0.361Q0.665 0.321 0.646 0.301Q0.627 0.282 0.584 0.276L0.575 0.275ZM0.532 0.495 0.522 0.541Q0.506 0.621 0.480 0.661L0.488 0.667L0.516 0.686Q0.562 0.717 0.588 0.717Q0.618 0.717 0.640 0.686Q0.662 0.655 0.662 0.614Q0.662 0.567 0.627 0.535Q0.592 0.503 0.532 0.495ZM0.414 0.674Q0.373 0.646 0.337 0.646Q0.318 0.646 0.305 0.656Q0.292 0.665 0.292 0.679Q0.292 0.692 0.306 0.702Q0.321 0.711 0.342 0.711Q0.385 0.711 0.414 0.674Z" fill="black"/>
</svg>
