<svg xmlns="http://www.w3.org/2000/svg" viewBox="0 0 1 1" preserveAspectRatio="xMidYMid meet">
  <path d="M0.697 0.639Q0.663 0.678 0.631 0.698Q0.600 0.717 0.543 0.734Q0.441 0.734 0.372 0.661Q0.303 0.588 0.303 0.483Q0.303 0.448 0.310 0.414Q0.343 0.362 0.390 0.328Q0.438 0.293 0.492 0.281Q0.504 0.269 0.518 0.259Q0.523 0.261 0.525 0.262Q0.572 0.278 0.600 0.278Q0.644 0.278 0.682 0.255Q0.676 0.304 0.649 0.332L0.639 0.334Q0.617 0.339 0.600 0.339Q0.532 0.339 0.486 0.309Q0.468 0.326 0.468 0.345Q0.468 0.364 0.494 0.397L0.517 0.427Q0.519 0.430 0.530 0.443Q0.555 0.472 0.555 0.492Q0.555 0.514 0.535 0.540Q0.516 0.565 0.484 0.586L0.478 0.572Q0.506 0.555 0.506 0.519Q0.506 0.501 0.468 0.454L0.449 0.431L0.439 0.419Q0.423 0.399 0.420 0.374Q0.437 0.341 0.475 0.300Q0.417 0.325 0.392 0.362Q0.366 0.399 0.366 0.457Q0.366 0.562 0.434 0.626Q0.491 0.679 0.560 0.679Q0.626 0.679 0.687 0.627Z" fill="black"/>
</svg>
