<svg xmlns="http://www.w3.org/2000/svg" viewBox="0 0 1 1" preserveAspectRatio="xMidYMid meet">
  <path d="M0.329 0.494V0.556Q0.329 0.626 0.367 0.659Q0.390 0.678 0.427 0.691Q0.464 0.703 0.499 0.703Q0.545 0.703 0.584 0.682Q0.623 0.661 0.670 0.612L0.693 0.632Q0.604 0.734 0.495 0.734Q0.412 0.734 0.346 0.684Q0.260 0.619 0.260 0.507Q0.260 0.401 0.330 0.328Q0.399 0.255 0.500 0.255Q0.579 0.255 0.642 0.303Q0.705 0.350 0.727 0.427Q0.744 0.486 0.739 0.494ZM0.671 0.464V0.438Q0.671 0.407 0.659 0.378Q0.648 0.348 0.631 0.332Q0.608 0.311 0.572 0.298Q0.535 0.285 0.500 0.285Q0.464 0.285 0.427 0.298Q0.391 0.311 0.368 0.332Q0.351 0.348 0.340 0.378Q0.329 0.407 0.329 0.438V0.464Z" fill="black"/>
</svg>
