<svg xmlns="http://www.w3.org/2000/svg" viewBox="0 0 1 1" preserveAspectRatio="xMidYMid meet">
  <path d="M0.607 0.637Q0.584 0.680 0.548 0.705Q0.512 0.730 0.473 0.730Q0.428 0.730 0.401 0.695Q0.374 0.659 0.374 0.599Q0.374 0.516 0.430 0.448Q0.487 0.380 0.557 0.380Q0.589 0.380 0.608 0.397Q0.626 0.414 0.626 0.444Q0.626 0.500 0.570 0.543Q0.513 0.586 0.438 0.586Q0.437 0.598 0.437 0.612Q0.437 0.704 0.500 0.704Q0.546 0.704 0.593 0.631ZM0.441 0.569H0.446Q0.499 0.569 0.534 0.534Q0.568 0.498 0.568 0.443Q0.568 0.399 0.539 0.399Q0.509 0.399 0.479 0.450Q0.449 0.502 0.441 0.569Z" fill="black"/>
</svg>
