<svg xmlns="http://www.w3.org/2000/svg" viewBox="0 0 1 1" preserveAspectRatio="xMidYMid meet">
  <path d="M0.654 0.605Q0.629 0.665 0.580 0.699Q0.532 0.734 0.474 0.734Q0.416 0.734 0.379 0.702Q0.341 0.670 0.341 0.621Q0.341 0.571 0.376 0.532Q0.410 0.493 0.469 0.476Q0.399 0.451 0.399 0.394Q0.399 0.371 0.413 0.346Q0.428 0.321 0.451 0.303Q0.436 0.286 0.436 0.256Q0.436 0.216 0.465 0.179L0.477 0.186Q0.453 0.221 0.453 0.254Q0.453 0.276 0.463 0.293Q0.517 0.255 0.585 0.255Q0.659 0.255 0.659 0.302Q0.659 0.329 0.634 0.347Q0.610 0.365 0.571 0.365Q0.521 0.365 0.479 0.332Q0.461 0.367 0.461 0.395Q0.461 0.424 0.483 0.444Q0.504 0.464 0.536 0.464Q0.559 0.464 0.572 0.458Q0.573 0.462 0.573 0.465Q0.575 0.490 0.537 0.490H0.528Q0.479 0.490 0.444 0.525Q0.409 0.561 0.409 0.609Q0.409 0.649 0.437 0.674Q0.465 0.700 0.510 0.700Q0.589 0.700 0.641 0.599ZM0.489 0.318Q0.531 0.346 0.566 0.346Q0.585 0.346 0.600 0.334Q0.614 0.322 0.614 0.307Q0.614 0.292 0.601 0.282Q0.588 0.272 0.568 0.272Q0.522 0.272 0.489 0.318Z" fill="black"/>
</svg>
