<svg xmlns="http://www.w3.org/2000/svg" viewBox="0 0 1 1" preserveAspectRatio="xMidYMid meet">
  <path d="M0.511 0.485 0.503 0.527Q0.484 0.623 0.442 0.668Q0.382 0.734 0.303 0.734Q0.265 0.734 0.242 0.714Q0.219 0.695 0.219 0.663Q0.219 0.621 0.260 0.590Q0.301 0.559 0.357 0.559L0.355 0.571Q0.320 0.571 0.294 0.596Q0.268 0.622 0.268 0.657Q0.268 0.680 0.287 0.696Q0.306 0.713 0.333 0.713Q0.373 0.713 0.396 0.679Q0.412 0.656 0.429 0.571L0.447 0.485H0.436Q0.417 0.485 0.396 0.494Q0.395 0.491 0.395 0.489Q0.395 0.468 0.451 0.462L0.485 0.292L0.476 0.291L0.455 0.291Q0.400 0.291 0.370 0.321Q0.342 0.349 0.342 0.381Q0.342 0.402 0.357 0.416Q0.372 0.430 0.395 0.430Q0.400 0.430 0.406 0.428L0.407 0.439Q0.392 0.443 0.378 0.443Q0.344 0.443 0.320 0.424Q0.296 0.406 0.296 0.380Q0.296 0.328 0.362 0.297Q0.427 0.266 0.535 0.266H0.622Q0.700 0.266 0.733 0.257Q0.766 0.247 0.775 0.223Q0.781 0.229 0.781 0.235Q0.781 0.245 0.768 0.266Q0.756 0.287 0.745 0.295Q0.722 0.312 0.667 0.312Q0.651 0.312 0.637 0.311L0.597 0.307L0.556 0.303Q0.554 0.303 0.547 0.302L0.517 0.454H0.534L0.558 0.454L0.600 0.452Q0.648 0.452 0.664 0.428Q0.670 0.432 0.670 0.438Q0.670 0.445 0.661 0.459Q0.643 0.488 0.592 0.488Q0.573 0.488 0.534 0.486Q0.520 0.485 0.515 0.485Z" fill="black"/>
</svg>
