<svg xmlns="http://www.w3.org/2000/svg" viewBox="0 0 1 1" preserveAspectRatio="xMidYMid meet">
  <path d="M0.363 0.382Q0.398 0.322 0.436 0.288Q0.474 0.255 0.508 0.255Q0.531 0.255 0.546 0.272Q0.561 0.290 0.561 0.318Q0.561 0.341 0.555 0.368L0.553 0.382Q0.587 0.323 0.625 0.289Q0.663 0.255 0.696 0.255Q0.753 0.255 0.753 0.326Q0.753 0.351 0.741 0.411L0.705 0.591Q0.693 0.653 0.693 0.669Q0.693 0.692 0.711 0.692Q0.728 0.692 0.749 0.669Q0.771 0.646 0.789 0.610L0.799 0.616Q0.775 0.670 0.743 0.702Q0.710 0.734 0.680 0.734Q0.631 0.734 0.631 0.671Q0.631 0.640 0.645 0.571L0.678 0.404Q0.681 0.389 0.681 0.386L0.685 0.363Q0.688 0.343 0.688 0.335Q0.688 0.304 0.663 0.304Q0.627 0.304 0.583 0.365Q0.546 0.414 0.529 0.500L0.485 0.722L0.422 0.734L0.491 0.385L0.494 0.369Q0.498 0.347 0.498 0.339Q0.498 0.306 0.473 0.306Q0.437 0.306 0.391 0.369Q0.369 0.399 0.359 0.424Q0.349 0.448 0.339 0.501L0.295 0.722L0.228 0.734L0.295 0.397Q0.307 0.336 0.307 0.319Q0.307 0.296 0.289 0.296Q0.272 0.296 0.250 0.319Q0.229 0.342 0.211 0.378L0.201 0.372Q0.225 0.319 0.257 0.287Q0.290 0.255 0.321 0.255Q0.370 0.255 0.370 0.317Q0.370 0.334 0.367 0.351L0.364 0.374Q0.363 0.377 0.363 0.382Z" fill="black"/>
</svg>
