<svg xmlns="http://www.w3.org/2000/svg" viewBox="0 0 1 1" preserveAspectRatio="xMidYMid meet">
  <path d="M0.463 0.730Q0.415 0.730 0.384 0.693Q0.353 0.655 0.353 0.596Q0.353 0.514 0.409 0.447Q0.465 0.380 0.534 0.380Q0.584 0.380 0.616 0.418Q0.647 0.456 0.647 0.516Q0.647 0.599 0.591 0.664Q0.534 0.730 0.463 0.730ZM0.471 0.715Q0.509 0.715 0.539 0.668Q0.559 0.635 0.573 0.585Q0.587 0.535 0.587 0.494Q0.587 0.395 0.530 0.395Q0.492 0.395 0.463 0.441Q0.443 0.472 0.429 0.522Q0.416 0.572 0.416 0.613Q0.416 0.715 0.471 0.715Z" fill="black"/>
</svg>
