<svg xmlns="http://www.w3.org/2000/svg" viewBox="0 0 1 1" preserveAspectRatio="xMidYMid meet">
  <path d="M0.330 0.722 0.349 0.662Q0.345 0.637 0.345 0.623Q0.345 0.549 0.396 0.473Q0.364 0.436 0.349 0.398L0.388 0.350H0.406Q0.404 0.360 0.404 0.365Q0.404 0.414 0.500 0.497L0.514 0.508L0.532 0.523L0.551 0.541Q0.554 0.544 0.560 0.549Q0.601 0.493 0.605 0.418H0.555L0.543 0.405L0.566 0.335H0.585V0.357H0.660L0.670 0.371Q0.655 0.476 0.574 0.562Q0.633 0.618 0.661 0.682L0.622 0.730H0.603V0.721Q0.603 0.684 0.576 0.646Q0.549 0.609 0.483 0.553L0.464 0.537L0.449 0.524L0.425 0.502Q0.421 0.499 0.409 0.487Q0.386 0.532 0.386 0.584Q0.386 0.623 0.398 0.662H0.453L0.435 0.722Z" fill="black"/>
</svg>
