<svg xmlns="http://www.w3.org/2000/svg" viewBox="0 0 1 1" preserveAspectRatio="xMidYMid meet">
  <path d="M0.334 0.540V0.296H0.288V0.271L0.380 0.263V0.540ZM0.288 0.734 0.624 0.255H0.665L0.330 0.734ZM0.574 0.574Q0.534 0.548 0.534 0.512Q0.534 0.481 0.558 0.461Q0.582 0.442 0.620 0.442Q0.656 0.442 0.678 0.458Q0.700 0.475 0.700 0.502Q0.700 0.540 0.652 0.573Q0.712 0.603 0.712 0.650Q0.712 0.685 0.685 0.707Q0.657 0.729 0.614 0.729Q0.571 0.729 0.545 0.709Q0.519 0.688 0.519 0.655Q0.519 0.606 0.574 0.574ZM0.627 0.559Q0.660 0.536 0.660 0.508Q0.660 0.492 0.648 0.482Q0.636 0.472 0.616 0.472Q0.574 0.472 0.574 0.505Q0.574 0.530 0.627 0.559ZM0.597 0.591Q0.563 0.618 0.563 0.648Q0.563 0.670 0.579 0.684Q0.594 0.699 0.617 0.699Q0.640 0.699 0.654 0.687Q0.668 0.675 0.668 0.657Q0.668 0.632 0.623 0.606Z" fill="black"/>
</svg>
