<svg xmlns="http://www.w3.org/2000/svg" viewBox="0 0 1 1" preserveAspectRatio="xMidYMid meet">
  <path d="M0.281 0.305V0.271Q0.315 0.259 0.351 0.259Q0.438 0.259 0.438 0.324Q0.438 0.372 0.379 0.392Q0.447 0.408 0.447 0.466Q0.447 0.503 0.420 0.525Q0.394 0.547 0.347 0.547Q0.314 0.547 0.278 0.538V0.500Q0.318 0.516 0.342 0.516Q0.367 0.516 0.383 0.502Q0.399 0.488 0.399 0.466Q0.399 0.410 0.319 0.410H0.303V0.381H0.316Q0.392 0.381 0.392 0.330Q0.392 0.290 0.343 0.290Q0.315 0.290 0.281 0.305ZM0.305 0.734 0.640 0.255H0.682L0.347 0.734ZM0.585 0.574Q0.545 0.548 0.545 0.512Q0.545 0.481 0.569 0.461Q0.592 0.442 0.631 0.442Q0.667 0.442 0.689 0.458Q0.711 0.475 0.711 0.502Q0.711 0.540 0.662 0.573Q0.722 0.603 0.722 0.650Q0.722 0.685 0.695 0.707Q0.668 0.729 0.625 0.729Q0.582 0.729 0.556 0.709Q0.530 0.688 0.530 0.655Q0.530 0.606 0.585 0.574ZM0.638 0.559Q0.671 0.536 0.671 0.508Q0.671 0.492 0.659 0.482Q0.647 0.472 0.627 0.472Q0.585 0.472 0.585 0.505Q0.585 0.530 0.638 0.559ZM0.608 0.591Q0.574 0.618 0.574 0.648Q0.574 0.670 0.589 0.684Q0.604 0.699 0.628 0.699Q0.650 0.699 0.665 0.687Q0.679 0.675 0.679 0.657Q0.679 0.632 0.634 0.606Z" fill="black"/>
</svg>
