<svg xmlns="http://www.w3.org/2000/svg" viewBox="0 0 1 1" preserveAspectRatio="xMidYMid meet">
  <path d="M0.278 0.540V0.504Q0.308 0.516 0.333 0.516Q0.358 0.516 0.372 0.501Q0.387 0.486 0.387 0.460Q0.387 0.400 0.302 0.400Q0.292 0.400 0.282 0.402V0.266H0.430V0.304H0.318V0.369Q0.373 0.369 0.404 0.394Q0.436 0.418 0.436 0.461Q0.436 0.501 0.408 0.524Q0.380 0.547 0.332 0.547Q0.309 0.547 0.278 0.540ZM0.299 0.734 0.634 0.255H0.676L0.341 0.734ZM0.585 0.574Q0.545 0.548 0.545 0.512Q0.545 0.481 0.569 0.461Q0.592 0.442 0.631 0.442Q0.667 0.442 0.689 0.458Q0.711 0.475 0.711 0.502Q0.711 0.540 0.662 0.573Q0.722 0.603 0.722 0.650Q0.722 0.685 0.695 0.707Q0.668 0.729 0.625 0.729Q0.582 0.729 0.556 0.709Q0.530 0.688 0.530 0.655Q0.530 0.606 0.585 0.574ZM0.638 0.559Q0.671 0.536 0.671 0.508Q0.671 0.492 0.659 0.482Q0.647 0.472 0.627 0.472Q0.585 0.472 0.585 0.505Q0.585 0.530 0.638 0.559ZM0.608 0.591Q0.574 0.618 0.574 0.648Q0.574 0.670 0.589 0.684Q0.604 0.699 0.628 0.699Q0.650 0.699 0.665 0.687Q0.679 0.675 0.679 0.657Q0.679 0.632 0.634 0.606Z" fill="black"/>
</svg>
