<svg xmlns="http://www.w3.org/2000/svg" viewBox="0 0 1 1" preserveAspectRatio="xMidYMid meet">
  <path d="M0.292 0.540Q0.296 0.509 0.306 0.486Q0.317 0.463 0.350 0.412L0.419 0.305H0.278V0.266H0.459V0.305Q0.350 0.454 0.343 0.540ZM0.278 0.734 0.613 0.255H0.655L0.320 0.734ZM0.585 0.574Q0.545 0.548 0.545 0.512Q0.545 0.481 0.569 0.461Q0.592 0.442 0.631 0.442Q0.667 0.442 0.689 0.458Q0.711 0.475 0.711 0.502Q0.711 0.540 0.662 0.573Q0.722 0.603 0.722 0.650Q0.722 0.685 0.695 0.707Q0.668 0.729 0.625 0.729Q0.582 0.729 0.556 0.709Q0.530 0.688 0.530 0.655Q0.530 0.606 0.585 0.574ZM0.638 0.559Q0.671 0.536 0.671 0.508Q0.671 0.492 0.659 0.482Q0.647 0.472 0.627 0.472Q0.585 0.472 0.585 0.505Q0.585 0.530 0.638 0.559ZM0.608 0.591Q0.574 0.618 0.574 0.648Q0.574 0.670 0.589 0.684Q0.604 0.699 0.628 0.699Q0.650 0.699 0.665 0.687Q0.679 0.675 0.679 0.657Q0.679 0.632 0.634 0.606Z" fill="black"/>
</svg>
