<svg xmlns="http://www.w3.org/2000/svg" viewBox="0 0 1 1" preserveAspectRatio="xMidYMid meet">
  <path d="M0.184 0.540 0.316 0.464 0.286 0.524H0.318Q0.339 0.524 0.351 0.534L0.361 0.541L0.396 0.568Q0.406 0.575 0.411 0.575Q0.417 0.575 0.424 0.564Q0.426 0.561 0.429 0.556L0.465 0.502L0.471 0.491Q0.485 0.467 0.500 0.467Q0.515 0.467 0.529 0.491L0.535 0.502L0.571 0.556L0.576 0.564Q0.583 0.575 0.589 0.575Q0.594 0.575 0.604 0.568L0.639 0.541L0.649 0.534Q0.661 0.524 0.682 0.524H0.714L0.684 0.464L0.816 0.540L0.684 0.616L0.714 0.555H0.682Q0.671 0.555 0.657 0.565L0.618 0.595Q0.596 0.612 0.586 0.612Q0.575 0.612 0.563 0.597L0.553 0.584L0.544 0.570L0.509 0.518L0.506 0.514Q0.503 0.509 0.500 0.509Q0.497 0.509 0.494 0.514L0.491 0.518L0.456 0.570L0.447 0.584L0.437 0.597Q0.425 0.612 0.414 0.612Q0.404 0.612 0.382 0.595L0.343 0.565Q0.329 0.555 0.318 0.555H0.286L0.316 0.616Z" fill="black"/>
</svg>
