<svg xmlns="http://www.w3.org/2000/svg" viewBox="0 0 1 1" preserveAspectRatio="xMidYMid meet">
  <path d="M0.618 0.419 0.579 0.272 0.726 0.311 0.661 0.333Q0.728 0.404 0.728 0.494Q0.728 0.589 0.661 0.656Q0.595 0.722 0.500 0.722Q0.406 0.722 0.339 0.656Q0.272 0.589 0.272 0.495Q0.272 0.404 0.339 0.333L0.360 0.354Q0.302 0.416 0.302 0.494Q0.302 0.576 0.360 0.634Q0.418 0.692 0.500 0.692Q0.582 0.692 0.640 0.634Q0.698 0.576 0.698 0.495Q0.698 0.437 0.666 0.388Q0.645 0.353 0.640 0.354Z" fill="black"/>
</svg>
