<svg xmlns="http://www.w3.org/2000/svg" viewBox="0 0 1 1" preserveAspectRatio="xMidYMid meet">
  <path d="M0.382 0.419Q0.369 0.367 0.360 0.354L0.347 0.369Q0.302 0.426 0.302 0.495Q0.302 0.576 0.360 0.634Q0.418 0.692 0.500 0.692Q0.582 0.692 0.640 0.634Q0.698 0.576 0.698 0.494Q0.698 0.416 0.640 0.354L0.661 0.333Q0.728 0.404 0.728 0.495Q0.728 0.589 0.661 0.656Q0.595 0.722 0.500 0.722Q0.406 0.722 0.339 0.656Q0.272 0.589 0.272 0.494Q0.272 0.404 0.339 0.333L0.274 0.311L0.421 0.272Z" fill="black"/>
</svg>
