<svg xmlns="http://www.w3.org/2000/svg" viewBox="0 0 1 1" preserveAspectRatio="xMidYMid meet">
  <path d="M0.290 0.555 0.320 0.616 0.188 0.540 0.320 0.464 0.290 0.524H0.326Q0.343 0.524 0.355 0.534L0.365 0.541L0.400 0.568Q0.410 0.575 0.414 0.575Q0.421 0.575 0.428 0.564Q0.429 0.562 0.434 0.556L0.469 0.502Q0.492 0.468 0.504 0.468Q0.516 0.468 0.539 0.502L0.574 0.556Q0.578 0.561 0.580 0.564Q0.585 0.571 0.587 0.571Q0.590 0.571 0.594 0.565L0.596 0.562L0.631 0.510Q0.636 0.502 0.640 0.496L0.650 0.484Q0.661 0.470 0.673 0.468Q0.685 0.469 0.706 0.485L0.745 0.515Q0.758 0.524 0.770 0.524H0.812V0.555H0.759Q0.747 0.554 0.726 0.539L0.691 0.512Q0.681 0.505 0.677 0.505Q0.670 0.505 0.663 0.516Q0.662 0.518 0.658 0.524L0.622 0.578Q0.599 0.612 0.587 0.612Q0.579 0.612 0.567 0.597L0.557 0.584Q0.552 0.577 0.548 0.570L0.513 0.518L0.511 0.515Q0.506 0.509 0.504 0.509Q0.501 0.509 0.497 0.515L0.495 0.518L0.460 0.570Q0.456 0.577 0.451 0.584L0.441 0.597Q0.431 0.610 0.418 0.612Q0.406 0.611 0.386 0.595L0.346 0.565Q0.333 0.555 0.321 0.555Z" fill="black"/>
</svg>
