<svg xmlns="http://www.w3.org/2000/svg" viewBox="0 0 1 1" preserveAspectRatio="xMidYMid meet">
  <path d="M0.711 0.555H0.679Q0.667 0.555 0.654 0.565L0.615 0.595Q0.594 0.611 0.582 0.612Q0.570 0.610 0.559 0.597L0.549 0.584Q0.545 0.577 0.540 0.570L0.505 0.518L0.503 0.515Q0.499 0.509 0.496 0.509Q0.494 0.509 0.489 0.515L0.487 0.518L0.453 0.570Q0.448 0.577 0.443 0.584L0.433 0.597Q0.422 0.612 0.413 0.612Q0.401 0.612 0.378 0.578L0.343 0.524Q0.338 0.518 0.337 0.516Q0.330 0.505 0.324 0.505Q0.319 0.505 0.309 0.512L0.274 0.539Q0.253 0.554 0.241 0.555H0.188V0.524H0.230Q0.242 0.524 0.255 0.515L0.294 0.485Q0.315 0.469 0.327 0.468Q0.339 0.470 0.350 0.484L0.360 0.496Q0.364 0.502 0.369 0.510L0.404 0.562L0.406 0.565Q0.410 0.571 0.413 0.571Q0.416 0.571 0.420 0.564Q0.422 0.562 0.426 0.556L0.462 0.502Q0.484 0.468 0.496 0.468Q0.508 0.468 0.531 0.502L0.566 0.556Q0.571 0.562 0.572 0.564Q0.579 0.575 0.586 0.575Q0.590 0.575 0.600 0.568L0.635 0.541L0.645 0.534Q0.657 0.524 0.675 0.524H0.711L0.680 0.464L0.812 0.540L0.680 0.616Z" fill="black"/>
</svg>
