<svg xmlns="http://www.w3.org/2000/svg" viewBox="0 0 1 1" preserveAspectRatio="xMidYMid meet">
  <path d="M0.658 0.652Q0.649 0.728 0.608 0.769Q0.567 0.810 0.500 0.810Q0.435 0.810 0.388 0.764Q0.342 0.717 0.342 0.652V0.337Q0.342 0.271 0.388 0.225Q0.435 0.179 0.500 0.179Q0.567 0.179 0.608 0.220Q0.649 0.261 0.658 0.337H0.612Q0.606 0.283 0.577 0.254Q0.547 0.224 0.500 0.224Q0.453 0.224 0.421 0.257Q0.388 0.290 0.388 0.337V0.652Q0.394 0.706 0.423 0.735Q0.453 0.764 0.500 0.764Q0.547 0.764 0.577 0.735Q0.606 0.705 0.612 0.652Z" fill="black"/>
</svg>
