<svg xmlns="http://www.w3.org/2000/svg" viewBox="0 0 1 1" preserveAspectRatio="xMidYMid meet">
  <path d="M0.376 0.324Q0.423 0.228 0.505 0.228Q0.568 0.228 0.603 0.284Q0.638 0.340 0.638 0.441Q0.638 0.565 0.586 0.648Q0.534 0.730 0.454 0.730Q0.412 0.730 0.387 0.701Q0.362 0.671 0.362 0.623Q0.362 0.545 0.415 0.478Q0.468 0.410 0.530 0.410Q0.581 0.410 0.619 0.463Q0.619 0.281 0.485 0.281Q0.428 0.281 0.376 0.324ZM0.617 0.491Q0.584 0.428 0.535 0.428Q0.489 0.428 0.454 0.479Q0.419 0.529 0.419 0.595Q0.419 0.638 0.435 0.664Q0.452 0.691 0.478 0.691Q0.528 0.691 0.568 0.633Q0.608 0.575 0.617 0.491Z" fill="black"/>
</svg>
