<svg xmlns="http://www.w3.org/2000/svg" viewBox="0 0 1 1" preserveAspectRatio="xMidYMid meet">
  <path d="M0.272 0.701 0.320 0.653Q0.260 0.584 0.260 0.494Q0.260 0.395 0.331 0.325Q0.401 0.255 0.500 0.255Q0.588 0.255 0.658 0.314L0.707 0.266L0.728 0.288L0.680 0.336Q0.740 0.405 0.740 0.494Q0.740 0.594 0.669 0.664Q0.599 0.734 0.500 0.734Q0.410 0.734 0.342 0.674L0.293 0.722ZM0.342 0.631 0.637 0.336Q0.576 0.285 0.500 0.285Q0.413 0.285 0.352 0.346Q0.291 0.407 0.291 0.494Q0.291 0.572 0.342 0.631ZM0.363 0.652Q0.422 0.703 0.500 0.703Q0.587 0.703 0.648 0.642Q0.709 0.581 0.709 0.494Q0.709 0.418 0.658 0.357Z" fill="black"/>
</svg>
