<svg xmlns="http://www.w3.org/2000/svg" viewBox="0 0 1 1" preserveAspectRatio="xMidYMid meet">
  <path d="M0.445 0.791 0.469 0.720Q0.403 0.708 0.360 0.657Q0.318 0.607 0.318 0.540Q0.318 0.464 0.371 0.411Q0.424 0.357 0.500 0.357H0.590L0.612 0.289H0.645L0.622 0.357H0.682V0.388H0.612L0.566 0.524H0.682V0.555H0.556L0.510 0.692H0.682V0.722H0.500L0.477 0.791ZM0.349 0.524H0.534L0.580 0.388H0.500Q0.441 0.388 0.397 0.428Q0.353 0.468 0.349 0.524ZM0.349 0.555Q0.353 0.606 0.389 0.644Q0.425 0.682 0.479 0.691L0.524 0.555Z" fill="black"/>
</svg>
