<svg xmlns="http://www.w3.org/2000/svg" viewBox="0 0 1 1" preserveAspectRatio="xMidYMid meet">
  <path d="M0.651 0.524Q0.647 0.473 0.611 0.435Q0.575 0.398 0.522 0.389L0.476 0.524ZM0.466 0.555 0.420 0.692 0.466 0.692Q0.570 0.693 0.616 0.639Q0.648 0.601 0.651 0.555ZM0.355 0.791 0.378 0.722H0.318V0.692H0.388L0.434 0.555H0.318V0.524H0.445L0.490 0.388H0.318V0.357H0.500L0.523 0.289H0.555L0.531 0.360Q0.597 0.372 0.640 0.422Q0.682 0.473 0.682 0.540Q0.682 0.616 0.629 0.669Q0.576 0.722 0.500 0.722H0.411L0.388 0.791Z" fill="black"/>
</svg>
