<svg xmlns="http://www.w3.org/2000/svg" viewBox="0 0 1 1" preserveAspectRatio="xMidYMid meet">
  <path d="M0.386 0.291V0.643Q0.386 0.679 0.391 0.690Q0.397 0.700 0.416 0.701L0.437 0.703L0.443 0.703V0.722H0.276V0.703L0.281 0.703L0.302 0.701Q0.322 0.700 0.327 0.690Q0.333 0.679 0.333 0.643V0.346Q0.333 0.310 0.327 0.299Q0.322 0.288 0.302 0.287L0.281 0.285L0.276 0.285V0.266H0.724V0.285L0.718 0.285L0.698 0.287Q0.680 0.288 0.675 0.293Q0.670 0.298 0.669 0.316L0.667 0.346V0.643L0.669 0.673Q0.670 0.691 0.675 0.695Q0.680 0.700 0.698 0.701L0.718 0.703L0.724 0.703V0.722H0.557V0.703L0.563 0.703L0.584 0.701Q0.601 0.700 0.606 0.695Q0.611 0.691 0.612 0.673L0.614 0.643V0.291Z" fill="black"/>
</svg>
