<svg xmlns="http://www.w3.org/2000/svg" viewBox="0 0 1 1" preserveAspectRatio="xMidYMid meet">
  <path d="M0.614 0.698V0.346Q0.614 0.309 0.608 0.299Q0.603 0.288 0.584 0.287L0.563 0.285L0.557 0.285V0.266H0.724V0.285L0.718 0.285L0.698 0.287Q0.680 0.288 0.675 0.293Q0.670 0.298 0.669 0.316L0.667 0.346V0.643L0.669 0.673Q0.670 0.691 0.675 0.695Q0.680 0.700 0.698 0.701L0.718 0.703L0.724 0.703V0.722H0.276V0.703L0.281 0.703L0.302 0.701Q0.322 0.700 0.327 0.690Q0.333 0.679 0.333 0.643V0.346Q0.333 0.310 0.327 0.299Q0.322 0.288 0.302 0.287L0.281 0.285L0.276 0.285V0.266H0.443V0.285L0.437 0.285L0.416 0.287Q0.397 0.288 0.391 0.299Q0.386 0.310 0.386 0.346V0.698Z" fill="black"/>
</svg>
