<svg xmlns="http://www.w3.org/2000/svg" viewBox="0 0 1 1" preserveAspectRatio="xMidYMid meet">
  <path d="M0.277 0.567 0.269 0.550 0.350 0.509 0.472 0.753 0.711 0.156H0.731L0.480 0.783H0.453L0.332 0.540ZM0.388 0.434V0.397Q0.428 0.412 0.452 0.412Q0.509 0.412 0.509 0.362Q0.509 0.306 0.429 0.306H0.413V0.277H0.427Q0.502 0.277 0.502 0.226Q0.502 0.187 0.453 0.187Q0.425 0.187 0.391 0.202V0.167Q0.425 0.156 0.461 0.156Q0.548 0.156 0.548 0.220Q0.548 0.269 0.489 0.289Q0.557 0.304 0.557 0.362Q0.557 0.400 0.530 0.422Q0.504 0.443 0.457 0.443Q0.424 0.443 0.388 0.434Z" fill="black"/>
</svg>
