<svg xmlns="http://www.w3.org/2000/svg" viewBox="0 0 1 1" preserveAspectRatio="xMidYMid meet">
  <path d="M0.494 0.570Q0.443 0.669 0.377 0.669Q0.333 0.669 0.303 0.634Q0.272 0.598 0.272 0.548Q0.272 0.491 0.304 0.451Q0.337 0.410 0.382 0.410Q0.417 0.410 0.445 0.433Q0.472 0.455 0.508 0.513Q0.567 0.410 0.623 0.410H0.728V0.437H0.623Q0.593 0.437 0.570 0.457Q0.548 0.477 0.521 0.530Q0.587 0.623 0.623 0.623H0.728V0.669H0.623Q0.586 0.669 0.561 0.650Q0.536 0.631 0.494 0.570ZM0.481 0.553Q0.418 0.457 0.374 0.457Q0.346 0.457 0.326 0.486Q0.305 0.514 0.305 0.554Q0.305 0.590 0.327 0.615Q0.348 0.639 0.380 0.639Q0.436 0.639 0.481 0.553Z" fill="black"/>
</svg>
