<svg xmlns="http://www.w3.org/2000/svg" viewBox="0 0 1 1" preserveAspectRatio="xMidYMid meet">
  <path d="M0.494 0.570Q0.443 0.669 0.377 0.669Q0.333 0.669 0.303 0.634Q0.272 0.598 0.272 0.548Q0.272 0.491 0.304 0.451Q0.337 0.410 0.382 0.410Q0.417 0.410 0.445 0.433Q0.472 0.455 0.508 0.513Q0.565 0.410 0.623 0.410Q0.667 0.410 0.698 0.447Q0.728 0.484 0.728 0.535Q0.728 0.592 0.696 0.631Q0.664 0.669 0.618 0.669Q0.583 0.669 0.556 0.648Q0.530 0.627 0.494 0.570ZM0.481 0.553Q0.418 0.457 0.374 0.457Q0.346 0.457 0.326 0.486Q0.305 0.514 0.305 0.554Q0.305 0.590 0.327 0.615Q0.348 0.639 0.380 0.639Q0.436 0.639 0.481 0.553ZM0.521 0.529Q0.584 0.625 0.626 0.625Q0.653 0.625 0.674 0.596Q0.695 0.568 0.695 0.531Q0.695 0.494 0.673 0.468Q0.651 0.443 0.619 0.443Q0.566 0.443 0.521 0.529Z" fill="black"/>
</svg>
