<svg xmlns="http://www.w3.org/2000/svg" viewBox="0 0 1 1" preserveAspectRatio="xMidYMid meet">
  <path d="M0.430 0.787Q0.436 0.791 0.442 0.791Q0.478 0.791 0.478 0.720L0.476 0.674L0.473 0.570V0.467Q0.473 0.338 0.496 0.281Q0.518 0.224 0.568 0.224Q0.614 0.224 0.614 0.266Q0.614 0.298 0.586 0.298Q0.559 0.298 0.559 0.272Q0.559 0.260 0.569 0.251Q0.562 0.247 0.557 0.247Q0.522 0.247 0.522 0.309L0.523 0.363L0.526 0.428L0.527 0.467V0.570Q0.527 0.814 0.432 0.814Q0.386 0.814 0.386 0.772Q0.386 0.740 0.415 0.740Q0.440 0.740 0.440 0.767Q0.440 0.778 0.430 0.787Z" fill="black"/>
</svg>
