<svg xmlns="http://www.w3.org/2000/svg" viewBox="0 0 1 1" preserveAspectRatio="xMidYMid meet">
  <path d="M0.343 0.787Q0.349 0.791 0.355 0.791Q0.390 0.791 0.390 0.720L0.389 0.674L0.386 0.570V0.467Q0.386 0.338 0.408 0.281Q0.430 0.224 0.481 0.224Q0.527 0.224 0.527 0.266Q0.527 0.298 0.498 0.298Q0.472 0.298 0.472 0.272Q0.472 0.260 0.482 0.251Q0.474 0.247 0.470 0.247Q0.435 0.247 0.435 0.309L0.436 0.363L0.438 0.428L0.439 0.467V0.570Q0.439 0.814 0.344 0.814Q0.298 0.814 0.298 0.772Q0.298 0.740 0.327 0.740Q0.352 0.740 0.352 0.767Q0.352 0.778 0.343 0.787ZM0.518 0.787Q0.524 0.791 0.530 0.791Q0.565 0.791 0.565 0.720L0.564 0.674L0.561 0.570V0.467Q0.561 0.338 0.583 0.281Q0.605 0.224 0.656 0.224Q0.702 0.224 0.702 0.266Q0.702 0.298 0.673 0.298Q0.647 0.298 0.647 0.272Q0.647 0.260 0.657 0.251Q0.649 0.247 0.645 0.247Q0.609 0.247 0.609 0.309L0.611 0.363L0.613 0.428L0.614 0.467V0.570Q0.614 0.814 0.519 0.814Q0.473 0.814 0.473 0.772Q0.473 0.740 0.502 0.740Q0.527 0.740 0.527 0.767Q0.527 0.778 0.518 0.787Z" fill="black"/>
</svg>
