<svg xmlns="http://www.w3.org/2000/svg" viewBox="0 0 1 1" preserveAspectRatio="xMidYMid meet">
  <path d="M0.255 0.787Q0.261 0.791 0.267 0.791Q0.302 0.791 0.302 0.720L0.301 0.674L0.298 0.570V0.467Q0.298 0.338 0.321 0.281Q0.343 0.224 0.393 0.224Q0.439 0.224 0.439 0.266Q0.439 0.298 0.411 0.298Q0.384 0.298 0.384 0.272Q0.384 0.260 0.394 0.251Q0.387 0.247 0.382 0.247Q0.347 0.247 0.347 0.309L0.348 0.363L0.351 0.428L0.351 0.467V0.570Q0.351 0.814 0.257 0.814Q0.211 0.814 0.211 0.772Q0.211 0.740 0.240 0.740Q0.265 0.740 0.265 0.767Q0.265 0.778 0.255 0.787ZM0.430 0.787Q0.436 0.791 0.442 0.791Q0.477 0.791 0.477 0.720L0.476 0.674L0.473 0.570V0.467Q0.473 0.338 0.495 0.281Q0.518 0.224 0.568 0.224Q0.614 0.224 0.614 0.266Q0.614 0.298 0.586 0.298Q0.559 0.298 0.559 0.272Q0.559 0.260 0.569 0.251Q0.562 0.247 0.557 0.247Q0.522 0.247 0.522 0.309L0.523 0.363L0.525 0.428L0.527 0.467V0.570Q0.527 0.814 0.431 0.814Q0.386 0.814 0.386 0.772Q0.386 0.740 0.414 0.740Q0.440 0.740 0.440 0.767Q0.440 0.778 0.430 0.787ZM0.605 0.787Q0.611 0.791 0.617 0.791Q0.652 0.791 0.652 0.720L0.651 0.674L0.648 0.570V0.467Q0.648 0.338 0.670 0.281Q0.693 0.224 0.743 0.224Q0.789 0.224 0.789 0.266Q0.789 0.298 0.761 0.298Q0.734 0.298 0.734 0.272Q0.734 0.260 0.744 0.251Q0.737 0.247 0.732 0.247Q0.697 0.247 0.697 0.309L0.698 0.363L0.700 0.428L0.702 0.467V0.570Q0.702 0.814 0.606 0.814Q0.561 0.814 0.561 0.772Q0.561 0.740 0.589 0.740Q0.615 0.740 0.615 0.767Q0.615 0.778 0.605 0.787Z" fill="black"/>
</svg>
