<svg xmlns="http://www.w3.org/2000/svg" viewBox="0 0 1 1" preserveAspectRatio="xMidYMid meet">
  <path d="M0.524 0.642 0.524 0.649Q0.512 0.814 0.432 0.814Q0.386 0.814 0.386 0.772Q0.386 0.740 0.415 0.740Q0.440 0.740 0.440 0.767Q0.440 0.778 0.430 0.787Q0.436 0.791 0.442 0.791Q0.478 0.791 0.478 0.720L0.476 0.674L0.475 0.650V0.642Q0.430 0.632 0.402 0.598Q0.375 0.564 0.375 0.519Q0.375 0.474 0.403 0.439Q0.431 0.405 0.475 0.396L0.476 0.382Q0.486 0.224 0.568 0.224Q0.614 0.224 0.614 0.266Q0.614 0.298 0.586 0.298Q0.559 0.298 0.559 0.272Q0.559 0.260 0.569 0.251Q0.562 0.247 0.557 0.247Q0.522 0.247 0.522 0.316L0.523 0.363L0.524 0.382L0.524 0.396Q0.569 0.406 0.597 0.440Q0.625 0.474 0.625 0.519Q0.625 0.564 0.598 0.598Q0.570 0.632 0.524 0.642ZM0.474 0.618 0.474 0.607 0.473 0.570V0.467L0.474 0.424V0.420Q0.397 0.443 0.397 0.519Q0.397 0.595 0.474 0.618ZM0.525 0.419 0.526 0.428 0.527 0.467V0.570L0.526 0.618Q0.603 0.594 0.603 0.519Q0.603 0.443 0.525 0.419Z" fill="black"/>
</svg>
