<svg xmlns="http://www.w3.org/2000/svg" viewBox="0 0 1 1" preserveAspectRatio="xMidYMid meet">
  <path d="M0.526 0.621Q0.581 0.621 0.649 0.606L0.648 0.570V0.467L0.649 0.433Q0.581 0.417 0.525 0.417L0.525 0.428L0.527 0.467V0.570ZM0.299 0.590V0.448Q0.222 0.477 0.222 0.520Q0.222 0.561 0.299 0.590ZM0.475 0.621 0.474 0.607 0.473 0.570V0.467L0.474 0.424L0.474 0.417Q0.417 0.417 0.351 0.433L0.352 0.467V0.570L0.351 0.605Q0.420 0.621 0.475 0.621ZM0.701 0.590Q0.778 0.560 0.778 0.518Q0.778 0.477 0.701 0.448L0.702 0.467V0.570ZM0.299 0.612Q0.200 0.575 0.200 0.520Q0.200 0.460 0.299 0.426V0.424Q0.299 0.224 0.394 0.224Q0.439 0.224 0.439 0.266Q0.439 0.298 0.411 0.298Q0.385 0.298 0.385 0.272Q0.385 0.260 0.394 0.251Q0.387 0.247 0.382 0.247Q0.347 0.247 0.347 0.315L0.349 0.363L0.350 0.410Q0.417 0.394 0.476 0.394Q0.485 0.224 0.569 0.224Q0.614 0.224 0.614 0.266Q0.614 0.298 0.586 0.298Q0.560 0.298 0.560 0.272Q0.560 0.260 0.569 0.251Q0.562 0.247 0.557 0.247Q0.522 0.247 0.522 0.315L0.523 0.363L0.524 0.394Q0.583 0.394 0.649 0.410Q0.659 0.224 0.744 0.224Q0.789 0.224 0.789 0.266Q0.789 0.298 0.761 0.298Q0.734 0.298 0.734 0.272Q0.734 0.260 0.744 0.251Q0.737 0.247 0.732 0.247Q0.697 0.247 0.697 0.315L0.698 0.363L0.700 0.426Q0.800 0.462 0.800 0.518Q0.800 0.577 0.701 0.612Q0.696 0.722 0.674 0.768Q0.652 0.814 0.606 0.814Q0.561 0.814 0.561 0.772Q0.561 0.740 0.590 0.740Q0.615 0.740 0.615 0.767Q0.615 0.778 0.605 0.787Q0.611 0.791 0.617 0.791Q0.652 0.791 0.652 0.720L0.651 0.674L0.650 0.628Q0.580 0.644 0.524 0.644Q0.512 0.814 0.431 0.814Q0.386 0.814 0.386 0.772Q0.386 0.740 0.414 0.740Q0.440 0.740 0.440 0.767Q0.440 0.778 0.431 0.787Q0.436 0.791 0.443 0.791Q0.477 0.791 0.477 0.720L0.476 0.674L0.475 0.644Q0.422 0.644 0.351 0.628Q0.344 0.728 0.322 0.771Q0.301 0.814 0.257 0.814Q0.211 0.814 0.211 0.772Q0.211 0.740 0.240 0.740Q0.265 0.740 0.265 0.767Q0.265 0.778 0.255 0.787Q0.261 0.791 0.267 0.791Q0.303 0.791 0.303 0.720L0.301 0.674Z" fill="black"/>
</svg>
