<svg xmlns="http://www.w3.org/2000/svg" viewBox="0 0 1 1" preserveAspectRatio="xMidYMid meet">
  <path d="M0.358 0.544Q0.356 0.529 0.356 0.519Q0.356 0.474 0.384 0.440Q0.412 0.405 0.457 0.396Q0.466 0.224 0.550 0.224Q0.595 0.224 0.595 0.266Q0.595 0.298 0.567 0.298Q0.541 0.298 0.541 0.272Q0.541 0.260 0.551 0.251Q0.543 0.247 0.539 0.247Q0.504 0.247 0.504 0.308L0.505 0.363L0.505 0.382L0.506 0.396Q0.583 0.412 0.603 0.488H0.644L0.591 0.581L0.538 0.488H0.579Q0.563 0.437 0.507 0.419L0.507 0.428L0.508 0.467V0.570Q0.508 0.814 0.413 0.814Q0.367 0.814 0.367 0.772Q0.367 0.740 0.396 0.740Q0.421 0.740 0.421 0.767Q0.421 0.778 0.412 0.787Q0.418 0.791 0.424 0.791Q0.459 0.791 0.459 0.720L0.458 0.674L0.455 0.570V0.467L0.455 0.424V0.420Q0.379 0.443 0.379 0.520Q0.379 0.528 0.381 0.539Z" fill="black"/>
</svg>
