<svg xmlns="http://www.w3.org/2000/svg" viewBox="0 0 1 1" preserveAspectRatio="xMidYMid meet">
  <path d="M0.456 0.618 0.455 0.607 0.455 0.570V0.467L0.455 0.424L0.456 0.420Q0.379 0.443 0.379 0.519Q0.379 0.595 0.456 0.618ZM0.508 0.618Q0.562 0.602 0.578 0.554L0.579 0.549H0.538L0.577 0.482L0.576 0.480Q0.560 0.436 0.507 0.419L0.507 0.428L0.508 0.467V0.570ZM0.603 0.549Q0.583 0.625 0.506 0.642L0.505 0.649Q0.493 0.814 0.413 0.814Q0.367 0.814 0.367 0.772Q0.367 0.740 0.396 0.740Q0.422 0.740 0.422 0.767Q0.422 0.778 0.412 0.787Q0.418 0.791 0.424 0.791Q0.459 0.791 0.459 0.720L0.458 0.674L0.457 0.650V0.642Q0.411 0.632 0.384 0.598Q0.356 0.564 0.356 0.519Q0.356 0.474 0.384 0.440Q0.412 0.405 0.457 0.396Q0.466 0.224 0.550 0.224Q0.596 0.224 0.596 0.266Q0.596 0.298 0.567 0.298Q0.541 0.298 0.541 0.272Q0.541 0.260 0.551 0.251Q0.543 0.247 0.539 0.247Q0.504 0.247 0.504 0.308L0.505 0.363L0.505 0.382L0.506 0.396Q0.562 0.408 0.591 0.457L0.644 0.549Z" fill="black"/>
</svg>
