<svg xmlns="http://www.w3.org/2000/svg" viewBox="0 0 1 1" preserveAspectRatio="xMidYMid meet">
  <path d="M0.571 0.484 0.562 0.455Q0.584 0.448 0.597 0.448Q0.631 0.448 0.657 0.476Q0.682 0.504 0.682 0.540Q0.682 0.578 0.656 0.604Q0.629 0.631 0.592 0.631Q0.541 0.631 0.511 0.586L0.499 0.568L0.469 0.522Q0.441 0.479 0.409 0.479Q0.384 0.479 0.366 0.497Q0.348 0.515 0.348 0.540Q0.348 0.566 0.366 0.584Q0.385 0.601 0.413 0.601Q0.420 0.601 0.429 0.598L0.438 0.627Q0.422 0.631 0.411 0.631Q0.371 0.631 0.345 0.605Q0.318 0.578 0.318 0.540Q0.318 0.502 0.344 0.475Q0.371 0.449 0.409 0.449Q0.457 0.449 0.499 0.512L0.528 0.556L0.536 0.569Q0.557 0.601 0.592 0.601Q0.616 0.601 0.634 0.583Q0.652 0.565 0.652 0.540Q0.652 0.515 0.635 0.497Q0.617 0.479 0.593 0.479Q0.584 0.479 0.571 0.484Z" fill="black"/>
</svg>
