<svg xmlns="http://www.w3.org/2000/svg" viewBox="0 0 1 1" preserveAspectRatio="xMidYMid meet">
  <path d="M0.333 0.540H0.302Q0.324 0.440 0.348 0.399Q0.372 0.357 0.408 0.357Q0.440 0.357 0.461 0.386Q0.482 0.414 0.500 0.482L0.517 0.547Q0.540 0.631 0.555 0.661Q0.571 0.692 0.591 0.692Q0.622 0.692 0.646 0.612L0.664 0.550Q0.665 0.549 0.667 0.540H0.698Q0.669 0.652 0.649 0.687Q0.628 0.722 0.592 0.722Q0.532 0.722 0.500 0.600L0.482 0.530L0.472 0.498L0.459 0.453Q0.440 0.388 0.409 0.388Q0.388 0.388 0.372 0.419Q0.357 0.450 0.333 0.540Z" fill="black"/>
</svg>
