<svg xmlns="http://www.w3.org/2000/svg" viewBox="0 0 1 1" preserveAspectRatio="xMidYMid meet">
  <path d="M0.464 0.612 0.501 0.502 0.473 0.489Q0.412 0.462 0.389 0.462Q0.367 0.462 0.352 0.481Q0.337 0.500 0.337 0.529H0.318Q0.322 0.430 0.398 0.430Q0.431 0.430 0.501 0.462L0.512 0.467L0.540 0.384H0.572L0.540 0.480L0.542 0.480Q0.594 0.504 0.612 0.504Q0.656 0.504 0.664 0.437H0.682Q0.676 0.536 0.601 0.536Q0.578 0.536 0.532 0.516L0.528 0.514L0.496 0.612H0.682V0.643H0.486L0.460 0.719H0.428L0.453 0.643H0.318V0.612Z" fill="black"/>
</svg>
