<svg xmlns="http://www.w3.org/2000/svg" viewBox="0 0 1 1" preserveAspectRatio="xMidYMid meet">
  <path d="M0.444 0.669 0.471 0.586H0.318V0.555H0.482L0.516 0.452L0.501 0.445L0.473 0.432Q0.412 0.405 0.389 0.405Q0.367 0.405 0.352 0.424Q0.337 0.443 0.337 0.471H0.318Q0.322 0.373 0.398 0.373Q0.430 0.373 0.501 0.405L0.527 0.417L0.558 0.327H0.590L0.555 0.429L0.558 0.431Q0.596 0.447 0.612 0.447Q0.656 0.447 0.664 0.380H0.682Q0.676 0.479 0.601 0.479Q0.579 0.479 0.546 0.465L0.544 0.464L0.514 0.555H0.682V0.586H0.503L0.476 0.669H0.682V0.700H0.465L0.443 0.768H0.411L0.433 0.700H0.318V0.669Z" fill="black"/>
</svg>
