<svg xmlns="http://www.w3.org/2000/svg" viewBox="0 0 1 1" preserveAspectRatio="xMidYMid meet">
  <path d="M0.337 0.654H0.318Q0.322 0.556 0.398 0.556Q0.430 0.556 0.501 0.588L0.528 0.600Q0.593 0.629 0.612 0.629Q0.656 0.629 0.664 0.563H0.682Q0.676 0.661 0.601 0.661Q0.575 0.661 0.519 0.635L0.501 0.627L0.473 0.615Q0.412 0.587 0.389 0.587Q0.367 0.587 0.352 0.606Q0.337 0.626 0.337 0.654ZM0.337 0.517H0.318Q0.322 0.419 0.398 0.419Q0.430 0.419 0.501 0.451L0.528 0.463Q0.593 0.492 0.612 0.492Q0.656 0.492 0.664 0.426H0.682Q0.676 0.524 0.601 0.524Q0.576 0.524 0.519 0.499L0.501 0.490L0.473 0.478Q0.412 0.450 0.389 0.450Q0.367 0.450 0.352 0.469Q0.337 0.489 0.337 0.517Z" fill="black"/>
</svg>
