<svg xmlns="http://www.w3.org/2000/svg" viewBox="0 0 1 1" preserveAspectRatio="xMidYMid meet">
  <path d="M0.318 0.711V0.680H0.682V0.711ZM0.337 0.597H0.318Q0.322 0.499 0.398 0.499Q0.430 0.499 0.501 0.531L0.528 0.543Q0.593 0.572 0.612 0.572Q0.656 0.572 0.664 0.506H0.682Q0.676 0.604 0.601 0.604Q0.576 0.604 0.519 0.578L0.501 0.570L0.473 0.558Q0.412 0.530 0.389 0.530Q0.367 0.530 0.352 0.549Q0.337 0.569 0.337 0.597ZM0.337 0.460H0.318Q0.322 0.362 0.398 0.362Q0.430 0.362 0.501 0.394L0.528 0.406Q0.593 0.435 0.612 0.435Q0.656 0.435 0.664 0.369H0.682Q0.676 0.467 0.601 0.467Q0.576 0.467 0.519 0.442L0.501 0.433L0.473 0.421Q0.412 0.393 0.389 0.393Q0.367 0.393 0.352 0.412Q0.337 0.431 0.337 0.460Z" fill="black"/>
</svg>
