<svg xmlns="http://www.w3.org/2000/svg" viewBox="0 0 1 1" preserveAspectRatio="xMidYMid meet">
  <path d="M0.664 0.494H0.682Q0.676 0.593 0.601 0.593Q0.576 0.593 0.519 0.567L0.501 0.559L0.473 0.546Q0.412 0.519 0.389 0.519Q0.367 0.519 0.352 0.538Q0.337 0.557 0.337 0.586H0.318Q0.322 0.487 0.398 0.487Q0.430 0.487 0.501 0.519L0.528 0.532Q0.593 0.561 0.612 0.561Q0.656 0.561 0.664 0.494ZM0.664 0.357H0.682Q0.676 0.456 0.601 0.456Q0.576 0.456 0.519 0.430L0.501 0.422L0.473 0.409Q0.412 0.382 0.389 0.382Q0.367 0.382 0.352 0.401Q0.337 0.420 0.337 0.449H0.318Q0.322 0.350 0.398 0.350Q0.430 0.350 0.501 0.382L0.528 0.395Q0.593 0.424 0.612 0.424Q0.656 0.424 0.664 0.357ZM0.337 0.722H0.318Q0.322 0.624 0.398 0.624Q0.430 0.624 0.501 0.656L0.528 0.668Q0.593 0.698 0.612 0.698Q0.656 0.698 0.664 0.631H0.682Q0.676 0.729 0.601 0.729Q0.576 0.729 0.519 0.704L0.501 0.696L0.473 0.683Q0.412 0.656 0.389 0.656Q0.367 0.656 0.352 0.675Q0.337 0.694 0.337 0.722Z" fill="black"/>
</svg>
