<svg xmlns="http://www.w3.org/2000/svg" viewBox="0 0 1 1" preserveAspectRatio="xMidYMid meet">
  <path d="M0.318 0.722V0.692H0.682V0.722ZM0.318 0.608V0.578H0.682V0.608ZM0.429 0.355Q0.416 0.350 0.408 0.350Q0.384 0.350 0.366 0.368Q0.348 0.386 0.348 0.410Q0.348 0.436 0.366 0.454Q0.384 0.471 0.408 0.471Q0.443 0.471 0.472 0.427L0.501 0.383Q0.543 0.319 0.591 0.319Q0.629 0.319 0.656 0.346Q0.682 0.373 0.682 0.410Q0.682 0.449 0.656 0.475Q0.629 0.502 0.589 0.502Q0.578 0.502 0.563 0.497L0.571 0.469Q0.580 0.471 0.586 0.471Q0.615 0.471 0.634 0.454Q0.652 0.437 0.652 0.410Q0.652 0.385 0.634 0.367Q0.616 0.350 0.591 0.350Q0.560 0.350 0.531 0.393L0.501 0.439L0.489 0.457Q0.459 0.502 0.408 0.502Q0.371 0.502 0.344 0.475Q0.318 0.448 0.318 0.410Q0.318 0.374 0.343 0.347Q0.369 0.319 0.403 0.319Q0.416 0.319 0.438 0.326Z" fill="black"/>
</svg>
