<svg xmlns="http://www.w3.org/2000/svg" viewBox="0 0 1 1" preserveAspectRatio="xMidYMid meet">
  <path d="M0.447 0.498H0.318V0.467H0.416Q0.426 0.384 0.500 0.384Q0.574 0.384 0.584 0.467H0.682V0.498H0.553V0.467Q0.553 0.446 0.538 0.430Q0.522 0.414 0.500 0.414Q0.478 0.414 0.462 0.430Q0.447 0.446 0.447 0.467ZM0.553 0.582H0.682V0.612H0.584Q0.574 0.696 0.500 0.696Q0.426 0.696 0.416 0.612H0.318V0.582H0.447V0.612Q0.447 0.634 0.462 0.650Q0.478 0.665 0.500 0.665Q0.522 0.665 0.538 0.650Q0.553 0.634 0.553 0.612Z" fill="black"/>
</svg>
