<svg xmlns="http://www.w3.org/2000/svg" viewBox="0 0 1 1" preserveAspectRatio="xMidYMid meet">
  <path d="M0.318 0.722V0.692H0.682V0.722ZM0.318 0.608V0.578H0.682V0.608ZM0.420 0.422Q0.420 0.389 0.444 0.365Q0.467 0.342 0.500 0.342Q0.533 0.342 0.557 0.365Q0.580 0.389 0.580 0.422Q0.580 0.455 0.556 0.478Q0.533 0.502 0.500 0.502Q0.467 0.502 0.444 0.478Q0.420 0.455 0.420 0.422ZM0.451 0.422Q0.451 0.442 0.465 0.457Q0.480 0.471 0.500 0.471Q0.520 0.471 0.535 0.457Q0.550 0.443 0.550 0.422Q0.550 0.402 0.535 0.387Q0.520 0.373 0.500 0.373Q0.480 0.373 0.465 0.387Q0.451 0.402 0.451 0.422Z" fill="black"/>
</svg>
