<svg xmlns="http://www.w3.org/2000/svg" viewBox="0 0 1 1" preserveAspectRatio="xMidYMid meet">
  <path d="M0.318 0.722V0.692H0.682V0.722ZM0.318 0.608V0.578H0.682V0.608ZM0.420 0.509V0.484Q0.405 0.512 0.374 0.512Q0.321 0.512 0.321 0.445Q0.321 0.411 0.337 0.390Q0.353 0.369 0.380 0.369Q0.404 0.369 0.420 0.388V0.310H0.445V0.509ZM0.420 0.405Q0.401 0.388 0.383 0.388Q0.347 0.388 0.347 0.443Q0.347 0.491 0.379 0.491Q0.400 0.491 0.420 0.468ZM0.579 0.505Q0.555 0.512 0.536 0.512Q0.506 0.512 0.487 0.492Q0.468 0.472 0.468 0.440Q0.468 0.409 0.485 0.389Q0.502 0.369 0.528 0.369Q0.580 0.369 0.580 0.437V0.445H0.493Q0.499 0.494 0.541 0.494Q0.557 0.494 0.579 0.485ZM0.494 0.426H0.555Q0.555 0.388 0.526 0.388Q0.498 0.388 0.494 0.426ZM0.610 0.509V0.391H0.590V0.372H0.610V0.356Q0.610 0.307 0.654 0.307Q0.667 0.307 0.682 0.311V0.331Q0.666 0.326 0.656 0.326Q0.634 0.326 0.634 0.353V0.372H0.669V0.391H0.634V0.509Z" fill="black"/>
</svg>
