<svg xmlns="http://www.w3.org/2000/svg" viewBox="0 0 1 1" preserveAspectRatio="xMidYMid meet">
  <path d="M0.500 0.768Q0.464 0.798 0.424 0.814V0.795Q0.452 0.780 0.480 0.749Q0.394 0.650 0.394 0.524Q0.394 0.398 0.480 0.300Q0.452 0.269 0.424 0.255V0.236Q0.464 0.251 0.500 0.281Q0.536 0.251 0.576 0.236V0.255Q0.548 0.269 0.520 0.300Q0.606 0.398 0.606 0.524Q0.606 0.651 0.520 0.749Q0.548 0.780 0.576 0.795V0.814Q0.536 0.798 0.500 0.768ZM0.500 0.728Q0.561 0.653 0.561 0.525Q0.561 0.396 0.500 0.321Q0.439 0.396 0.439 0.525Q0.439 0.653 0.500 0.728Z" fill="black"/>
</svg>
