<svg xmlns="http://www.w3.org/2000/svg" viewBox="0 0 1 1" preserveAspectRatio="xMidYMid meet">
  <path d="M0.552 0.397 0.516 0.504 0.682 0.571V0.604L0.506 0.533L0.471 0.643Q0.481 0.647 0.501 0.656L0.528 0.668Q0.593 0.698 0.612 0.698Q0.656 0.698 0.664 0.631H0.682Q0.676 0.729 0.601 0.729Q0.576 0.729 0.519 0.704L0.501 0.696L0.473 0.683Q0.472 0.683 0.460 0.678L0.458 0.677L0.433 0.753H0.401L0.430 0.666L0.428 0.665Q0.402 0.656 0.389 0.656Q0.367 0.656 0.352 0.675Q0.337 0.694 0.337 0.722H0.318Q0.322 0.624 0.398 0.624Q0.418 0.624 0.441 0.632L0.478 0.522L0.318 0.458L0.527 0.374L0.563 0.266H0.596L0.564 0.359L0.682 0.312V0.345ZM0.515 0.411 0.400 0.458 0.488 0.493Z" fill="black"/>
</svg>
