<svg xmlns="http://www.w3.org/2000/svg" viewBox="0 0 1 1" preserveAspectRatio="xMidYMid meet">
  <path d="M0.501 0.385 0.541 0.266H0.573L0.529 0.396L0.682 0.458L0.482 0.538L0.450 0.635L0.452 0.636Q0.472 0.643 0.501 0.656L0.528 0.668Q0.593 0.698 0.612 0.698Q0.656 0.698 0.664 0.631H0.682Q0.676 0.729 0.601 0.729Q0.576 0.729 0.519 0.704L0.501 0.696L0.473 0.683Q0.467 0.680 0.438 0.669L0.410 0.753H0.378L0.410 0.659Q0.398 0.656 0.389 0.656Q0.367 0.656 0.352 0.675Q0.337 0.694 0.337 0.722H0.318Q0.322 0.624 0.399 0.624Q0.409 0.624 0.420 0.626L0.445 0.553L0.318 0.604V0.571L0.458 0.515L0.491 0.414L0.318 0.345V0.312ZM0.494 0.500 0.600 0.457 0.519 0.425Z" fill="black"/>
</svg>
