<svg xmlns="http://www.w3.org/2000/svg" viewBox="0 0 1 1" preserveAspectRatio="xMidYMid meet">
  <path d="M0.437 0.410Q0.520 0.420 0.590 0.471Q0.659 0.523 0.682 0.593H0.648Q0.619 0.516 0.531 0.471Q0.442 0.426 0.321 0.426H0.318V0.395H0.321Q0.442 0.395 0.531 0.350Q0.619 0.305 0.648 0.228H0.682Q0.659 0.298 0.590 0.350Q0.520 0.402 0.437 0.410ZM0.337 0.722H0.318Q0.322 0.624 0.398 0.624Q0.430 0.624 0.501 0.656L0.528 0.668Q0.593 0.698 0.612 0.698Q0.656 0.698 0.664 0.631H0.682Q0.676 0.729 0.601 0.729Q0.576 0.729 0.519 0.704L0.501 0.696L0.473 0.683Q0.412 0.656 0.389 0.656Q0.367 0.656 0.352 0.675Q0.337 0.694 0.337 0.722Z" fill="black"/>
</svg>
