<svg xmlns="http://www.w3.org/2000/svg" viewBox="0 0 1 1" preserveAspectRatio="xMidYMid meet">
  <path d="M0.451 0.722 0.428 0.791H0.396L0.419 0.722H0.318V0.692H0.429L0.454 0.616H0.447Q0.393 0.616 0.355 0.578Q0.318 0.540 0.318 0.487Q0.318 0.433 0.355 0.395Q0.393 0.357 0.447 0.357H0.541L0.563 0.289H0.596L0.573 0.357H0.682V0.388H0.563L0.497 0.586H0.682V0.616H0.486L0.461 0.692H0.682V0.722ZM0.531 0.388H0.447Q0.406 0.388 0.377 0.417Q0.348 0.446 0.348 0.487Q0.348 0.528 0.377 0.557Q0.406 0.586 0.447 0.586H0.465Z" fill="black"/>
</svg>
