<svg xmlns="http://www.w3.org/2000/svg" viewBox="0 0 1 1" preserveAspectRatio="xMidYMid meet">
  <path d="M0.402 0.692 0.428 0.616H0.318V0.586H0.438L0.503 0.388H0.318V0.357H0.514L0.536 0.289H0.568L0.546 0.357H0.553Q0.607 0.357 0.645 0.395Q0.682 0.433 0.682 0.487Q0.682 0.540 0.645 0.578Q0.607 0.616 0.553 0.616H0.460L0.434 0.692H0.682V0.722H0.424L0.401 0.791H0.369L0.392 0.722H0.318V0.692ZM0.470 0.586H0.553Q0.594 0.586 0.623 0.557Q0.652 0.528 0.652 0.487Q0.652 0.446 0.623 0.417Q0.594 0.388 0.553 0.388H0.535Z" fill="black"/>
</svg>
