<svg xmlns="http://www.w3.org/2000/svg" viewBox="0 0 1 1" preserveAspectRatio="xMidYMid meet">
  <path d="M0.500 0.730Q0.421 0.730 0.366 0.674Q0.310 0.618 0.310 0.540Q0.310 0.461 0.366 0.405Q0.421 0.349 0.500 0.349Q0.579 0.349 0.634 0.405Q0.690 0.461 0.690 0.540Q0.690 0.618 0.634 0.674Q0.579 0.730 0.500 0.730ZM0.515 0.555 0.515 0.699Q0.573 0.693 0.613 0.653Q0.653 0.613 0.659 0.555ZM0.485 0.524V0.381Q0.427 0.386 0.387 0.427Q0.347 0.467 0.341 0.524ZM0.515 0.524H0.659Q0.653 0.467 0.613 0.427Q0.573 0.386 0.515 0.381ZM0.485 0.555H0.341Q0.347 0.613 0.387 0.653Q0.427 0.693 0.485 0.699Z" fill="black"/>
</svg>
