<svg xmlns="http://www.w3.org/2000/svg" viewBox="0 0 1 1" preserveAspectRatio="xMidYMid meet">
  <path d="M0.500 0.730Q0.421 0.730 0.366 0.674Q0.310 0.618 0.310 0.540Q0.310 0.461 0.366 0.405Q0.421 0.349 0.500 0.349Q0.579 0.349 0.634 0.405Q0.690 0.461 0.690 0.540Q0.690 0.618 0.634 0.674Q0.579 0.730 0.500 0.730ZM0.341 0.524H0.659Q0.653 0.463 0.607 0.421Q0.562 0.380 0.500 0.380Q0.438 0.380 0.393 0.421Q0.347 0.463 0.341 0.524ZM0.341 0.555Q0.347 0.617 0.393 0.658Q0.438 0.700 0.500 0.700Q0.562 0.700 0.607 0.658Q0.653 0.617 0.659 0.555Z" fill="black"/>
</svg>
