<svg xmlns="http://www.w3.org/2000/svg" viewBox="0 0 1 1" preserveAspectRatio="xMidYMid meet">
  <path d="M0.310 0.541Q0.310 0.461 0.365 0.406Q0.421 0.350 0.500 0.350Q0.579 0.350 0.635 0.405Q0.690 0.461 0.690 0.540Q0.690 0.619 0.634 0.675Q0.579 0.730 0.499 0.730Q0.421 0.730 0.366 0.674Q0.310 0.618 0.310 0.541ZM0.500 0.561 0.398 0.663Q0.443 0.700 0.500 0.700Q0.557 0.700 0.602 0.663ZM0.500 0.518 0.602 0.417Q0.558 0.380 0.500 0.380Q0.443 0.380 0.399 0.417ZM0.522 0.540 0.623 0.641Q0.660 0.597 0.660 0.540Q0.660 0.483 0.623 0.438ZM0.478 0.540 0.377 0.438Q0.340 0.483 0.340 0.540Q0.340 0.597 0.377 0.642Z" fill="black"/>
</svg>
