<svg xmlns="http://www.w3.org/2000/svg" viewBox="0 0 1 1" preserveAspectRatio="xMidYMid meet">
  <path d="M0.500 0.730Q0.421 0.730 0.365 0.674Q0.310 0.619 0.310 0.540Q0.310 0.461 0.365 0.405Q0.421 0.350 0.500 0.350Q0.579 0.350 0.635 0.405Q0.690 0.461 0.690 0.540Q0.690 0.619 0.635 0.674Q0.579 0.730 0.500 0.730ZM0.500 0.700Q0.566 0.700 0.613 0.653Q0.660 0.606 0.660 0.540Q0.660 0.474 0.613 0.427Q0.566 0.380 0.500 0.380Q0.434 0.380 0.387 0.427Q0.340 0.474 0.340 0.540Q0.340 0.606 0.387 0.653Q0.434 0.700 0.500 0.700ZM0.466 0.574V0.506H0.534V0.574Z" fill="black"/>
</svg>
