<svg xmlns="http://www.w3.org/2000/svg" viewBox="0 0 1 1" preserveAspectRatio="xMidYMid meet">
  <path d="M0.500 0.730Q0.421 0.730 0.365 0.674Q0.310 0.619 0.310 0.540Q0.310 0.461 0.365 0.405Q0.421 0.350 0.500 0.350Q0.579 0.350 0.635 0.405Q0.690 0.461 0.690 0.540Q0.690 0.619 0.635 0.674Q0.579 0.730 0.500 0.730ZM0.500 0.700Q0.566 0.700 0.613 0.653Q0.660 0.606 0.660 0.540Q0.660 0.474 0.613 0.427Q0.566 0.380 0.500 0.380Q0.434 0.380 0.387 0.427Q0.340 0.474 0.340 0.540Q0.340 0.606 0.387 0.653Q0.434 0.700 0.500 0.700ZM0.485 0.631 0.492 0.553 0.429 0.598 0.413 0.572 0.485 0.540 0.413 0.507 0.429 0.481 0.492 0.527 0.485 0.449H0.515L0.508 0.527L0.571 0.481L0.587 0.507L0.515 0.540L0.587 0.572L0.571 0.598L0.508 0.553L0.515 0.631Z" fill="black"/>
</svg>
