<svg xmlns="http://www.w3.org/2000/svg" viewBox="0 0 1 1" preserveAspectRatio="xMidYMid meet">
  <path d="M0.345 0.578H0.655Q0.660 0.557 0.660 0.540Q0.660 0.523 0.655 0.502H0.345Q0.340 0.523 0.340 0.540Q0.340 0.557 0.345 0.578ZM0.356 0.471H0.644Q0.600 0.380 0.500 0.380Q0.401 0.380 0.356 0.471ZM0.500 0.730Q0.421 0.730 0.365 0.674Q0.310 0.619 0.310 0.540Q0.310 0.461 0.365 0.405Q0.421 0.350 0.500 0.350Q0.579 0.350 0.635 0.405Q0.690 0.461 0.690 0.540Q0.690 0.619 0.635 0.674Q0.579 0.730 0.500 0.730ZM0.356 0.608Q0.401 0.700 0.500 0.700Q0.600 0.700 0.644 0.608Z" fill="black"/>
</svg>
