<svg xmlns="http://www.w3.org/2000/svg" viewBox="0 0 1 1" preserveAspectRatio="xMidYMid meet">
  <path d="M0.409 0.495Q0.525 0.518 0.604 0.566Q0.682 0.613 0.682 0.661Q0.682 0.687 0.664 0.704Q0.646 0.722 0.620 0.722Q0.601 0.722 0.575 0.710L0.590 0.683Q0.605 0.692 0.618 0.692Q0.652 0.692 0.652 0.661Q0.652 0.616 0.536 0.567Q0.400 0.509 0.325 0.509H0.318V0.479H0.325Q0.401 0.479 0.536 0.422Q0.652 0.372 0.652 0.329Q0.652 0.296 0.618 0.296Q0.605 0.296 0.590 0.306L0.575 0.278Q0.601 0.266 0.620 0.266Q0.646 0.266 0.664 0.284Q0.682 0.302 0.682 0.328Q0.682 0.375 0.604 0.423Q0.525 0.471 0.409 0.495Z" fill="black"/>
</svg>
