<svg xmlns="http://www.w3.org/2000/svg" viewBox="0 0 1 1" preserveAspectRatio="xMidYMid meet">
  <path d="M0.591 0.494Q0.475 0.471 0.396 0.423Q0.318 0.375 0.318 0.328Q0.318 0.302 0.336 0.284Q0.354 0.266 0.380 0.266Q0.399 0.266 0.425 0.278L0.410 0.306Q0.395 0.296 0.382 0.296Q0.348 0.296 0.348 0.328Q0.348 0.372 0.464 0.422Q0.600 0.479 0.675 0.479H0.682V0.509H0.675Q0.600 0.509 0.464 0.567Q0.348 0.616 0.348 0.659Q0.348 0.692 0.382 0.692Q0.395 0.692 0.410 0.683L0.425 0.710Q0.399 0.722 0.380 0.722Q0.354 0.722 0.336 0.704Q0.318 0.687 0.318 0.660Q0.318 0.613 0.396 0.566Q0.475 0.518 0.591 0.494Z" fill="black"/>
</svg>
