<svg xmlns="http://www.w3.org/2000/svg" viewBox="0 0 1 1" preserveAspectRatio="xMidYMid meet">
  <path d="M0.570 0.555H0.430Q0.424 0.584 0.402 0.602Q0.381 0.620 0.352 0.620Q0.319 0.620 0.295 0.596Q0.272 0.573 0.272 0.540Q0.272 0.507 0.295 0.484Q0.319 0.460 0.352 0.460Q0.416 0.460 0.430 0.524H0.570Q0.584 0.460 0.648 0.460Q0.682 0.460 0.705 0.484Q0.728 0.507 0.728 0.540Q0.728 0.573 0.705 0.596Q0.682 0.620 0.648 0.620Q0.620 0.620 0.598 0.602Q0.576 0.584 0.570 0.555ZM0.698 0.540Q0.698 0.519 0.683 0.505Q0.669 0.490 0.648 0.490Q0.628 0.490 0.613 0.505Q0.599 0.519 0.599 0.540Q0.599 0.560 0.613 0.575Q0.628 0.589 0.648 0.589Q0.669 0.589 0.683 0.575Q0.698 0.560 0.698 0.540Z" fill="black"/>
</svg>
