<svg xmlns="http://www.w3.org/2000/svg" viewBox="0 0 1 1" preserveAspectRatio="xMidYMid meet">
  <path d="M0.318 0.524H0.524Q0.538 0.460 0.603 0.460Q0.636 0.460 0.659 0.484Q0.682 0.507 0.682 0.540Q0.682 0.573 0.659 0.596Q0.636 0.620 0.603 0.620Q0.574 0.620 0.552 0.602Q0.531 0.584 0.524 0.555H0.318ZM0.652 0.540Q0.652 0.519 0.638 0.505Q0.623 0.490 0.603 0.490Q0.582 0.490 0.568 0.505Q0.553 0.519 0.553 0.540Q0.553 0.560 0.568 0.575Q0.582 0.589 0.603 0.589Q0.623 0.589 0.638 0.575Q0.652 0.560 0.652 0.540Z" fill="black"/>
</svg>
