<svg xmlns="http://www.w3.org/2000/svg" viewBox="0 0 1 1" preserveAspectRatio="xMidYMid meet">
  <path d="M0.682 0.722H0.500Q0.424 0.722 0.371 0.669Q0.318 0.616 0.318 0.540Q0.318 0.464 0.371 0.411Q0.424 0.357 0.500 0.357H0.682V0.388H0.500Q0.437 0.388 0.393 0.432Q0.348 0.477 0.348 0.540Q0.348 0.603 0.393 0.647Q0.437 0.692 0.500 0.692H0.682ZM0.682 0.631H0.500Q0.462 0.631 0.436 0.604Q0.409 0.578 0.409 0.540Q0.409 0.502 0.435 0.475Q0.462 0.449 0.500 0.449H0.682V0.479H0.500Q0.475 0.479 0.457 0.497Q0.439 0.515 0.439 0.540Q0.439 0.565 0.457 0.583Q0.475 0.601 0.500 0.601H0.682Z" fill="black"/>
</svg>
