<svg xmlns="http://www.w3.org/2000/svg" viewBox="0 0 1 1" preserveAspectRatio="xMidYMid meet">
  <path d="M0.318 0.357H0.500Q0.576 0.357 0.629 0.411Q0.682 0.464 0.682 0.540Q0.682 0.616 0.629 0.669Q0.576 0.722 0.500 0.722H0.318V0.692H0.500Q0.563 0.692 0.608 0.647Q0.652 0.603 0.652 0.540Q0.652 0.477 0.608 0.432Q0.563 0.388 0.500 0.388H0.318ZM0.318 0.449H0.500Q0.538 0.449 0.565 0.475Q0.591 0.502 0.591 0.540Q0.591 0.578 0.565 0.604Q0.538 0.631 0.500 0.631H0.318V0.601H0.500Q0.525 0.601 0.543 0.583Q0.561 0.565 0.561 0.540Q0.561 0.515 0.543 0.497Q0.525 0.479 0.500 0.479L0.318 0.479Z" fill="black"/>
</svg>
