<svg xmlns="http://www.w3.org/2000/svg" viewBox="0 0 1 1" preserveAspectRatio="xMidYMid meet">
  <path d="M0.683 0.357V0.540Q0.683 0.616 0.629 0.669Q0.576 0.722 0.500 0.722Q0.424 0.722 0.371 0.669Q0.317 0.616 0.317 0.540V0.357H0.348V0.540Q0.348 0.603 0.392 0.647Q0.437 0.692 0.500 0.692Q0.563 0.692 0.608 0.647Q0.652 0.603 0.652 0.540V0.357ZM0.591 0.357V0.540Q0.591 0.578 0.565 0.604Q0.538 0.631 0.500 0.631Q0.462 0.631 0.435 0.604Q0.409 0.578 0.409 0.540V0.357H0.439V0.540Q0.439 0.565 0.457 0.583Q0.475 0.601 0.500 0.601Q0.525 0.601 0.543 0.583Q0.561 0.565 0.561 0.540V0.357Z" fill="black"/>
</svg>
