<svg xmlns="http://www.w3.org/2000/svg" viewBox="0 0 1 1" preserveAspectRatio="xMidYMid meet">
  <path d="M0.317 0.722V0.540Q0.317 0.464 0.371 0.411Q0.424 0.357 0.500 0.357Q0.576 0.357 0.629 0.411Q0.683 0.464 0.683 0.540V0.722H0.652V0.540Q0.652 0.477 0.608 0.432Q0.563 0.388 0.500 0.388Q0.437 0.388 0.392 0.432Q0.348 0.477 0.348 0.540V0.722ZM0.409 0.722V0.540Q0.409 0.502 0.435 0.475Q0.462 0.449 0.500 0.449Q0.538 0.449 0.565 0.475Q0.591 0.502 0.591 0.540V0.722H0.561V0.540Q0.561 0.515 0.543 0.497Q0.525 0.479 0.500 0.479Q0.475 0.479 0.457 0.497Q0.439 0.515 0.439 0.540V0.722Z" fill="black"/>
</svg>
