<svg xmlns="http://www.w3.org/2000/svg" viewBox="0 0 1 1" preserveAspectRatio="xMidYMid meet">
  <path d="M0.568 0.511 0.570 0.512Q0.654 0.563 0.682 0.646H0.648Q0.629 0.594 0.568 0.549V0.692H0.682V0.722H0.568V0.814H0.538V0.722H0.318V0.692H0.538V0.529Q0.452 0.479 0.321 0.479H0.318V0.449H0.321Q0.452 0.449 0.538 0.399V0.251H0.568V0.379Q0.629 0.333 0.648 0.281H0.682Q0.654 0.365 0.570 0.416L0.568 0.417ZM0.538 0.494V0.434L0.536 0.435Q0.487 0.458 0.437 0.464Q0.487 0.469 0.536 0.493Z" fill="black"/>
</svg>
