<svg xmlns="http://www.w3.org/2000/svg" viewBox="0 0 1 1" preserveAspectRatio="xMidYMid meet">
  <path d="M0.492 0.652 0.515 0.582H0.547L0.520 0.665L0.528 0.668Q0.593 0.698 0.612 0.698Q0.656 0.698 0.664 0.631H0.682Q0.676 0.729 0.601 0.729Q0.575 0.729 0.519 0.704L0.514 0.701L0.509 0.699L0.485 0.771H0.453L0.481 0.687L0.473 0.683Q0.411 0.656 0.389 0.656Q0.367 0.656 0.352 0.675Q0.337 0.694 0.337 0.722H0.318Q0.322 0.624 0.398 0.624Q0.429 0.624 0.489 0.651ZM0.682 0.312V0.345L0.400 0.458L0.682 0.571V0.604L0.318 0.458Z" fill="black"/>
</svg>
