<svg xmlns="http://www.w3.org/2000/svg" viewBox="0 0 1 1" preserveAspectRatio="xMidYMid meet">
  <path d="M0.492 0.652 0.515 0.582H0.547L0.520 0.665L0.528 0.668Q0.593 0.698 0.612 0.698Q0.656 0.698 0.664 0.631H0.682Q0.676 0.729 0.601 0.729Q0.575 0.729 0.519 0.704L0.514 0.701L0.509 0.699L0.485 0.771H0.453L0.481 0.687L0.473 0.683Q0.411 0.656 0.389 0.656Q0.367 0.656 0.352 0.675Q0.337 0.694 0.337 0.722H0.318Q0.322 0.624 0.398 0.624Q0.429 0.624 0.489 0.651ZM0.563 0.421Q0.480 0.412 0.411 0.360Q0.341 0.309 0.318 0.239H0.352Q0.381 0.316 0.469 0.361Q0.558 0.406 0.679 0.406H0.682V0.436H0.679Q0.558 0.436 0.469 0.482Q0.381 0.527 0.352 0.604H0.318Q0.341 0.534 0.410 0.482Q0.480 0.431 0.563 0.421Z" fill="black"/>
</svg>
