<svg xmlns="http://www.w3.org/2000/svg" viewBox="0 0 1 1" preserveAspectRatio="xMidYMid meet">
  <path d="M0.492 0.760V0.722Q0.438 0.722 0.371 0.697V0.644Q0.440 0.677 0.492 0.677V0.513Q0.430 0.475 0.407 0.446Q0.384 0.416 0.384 0.376Q0.384 0.330 0.414 0.300Q0.443 0.270 0.492 0.266V0.228H0.523V0.266Q0.568 0.266 0.622 0.287V0.337Q0.562 0.311 0.523 0.308V0.470Q0.539 0.480 0.548 0.485Q0.595 0.514 0.612 0.537Q0.629 0.560 0.629 0.595Q0.629 0.643 0.601 0.678Q0.572 0.712 0.523 0.722V0.760ZM0.523 0.673Q0.576 0.654 0.576 0.604Q0.576 0.582 0.566 0.568Q0.556 0.554 0.523 0.531ZM0.492 0.450V0.310Q0.437 0.327 0.437 0.374Q0.437 0.398 0.449 0.414Q0.460 0.430 0.492 0.450Z" fill="black"/>
</svg>
