<svg xmlns="http://www.w3.org/2000/svg" viewBox="0 0 1 1" preserveAspectRatio="xMidYMid meet">
  <path d="M0.213 0.719V0.685Q0.252 0.701 0.281 0.701Q0.302 0.701 0.315 0.691Q0.329 0.681 0.329 0.665Q0.329 0.646 0.302 0.631L0.258 0.608Q0.214 0.585 0.214 0.549Q0.214 0.521 0.234 0.505Q0.254 0.488 0.290 0.488Q0.320 0.488 0.352 0.497V0.528Q0.319 0.515 0.291 0.515Q0.249 0.515 0.249 0.543Q0.249 0.561 0.275 0.574L0.319 0.598Q0.368 0.623 0.368 0.660Q0.368 0.692 0.344 0.710Q0.321 0.728 0.279 0.728Q0.254 0.728 0.213 0.719ZM0.469 0.722V0.521H0.397V0.494H0.580V0.521H0.508V0.722ZM0.604 0.722 0.675 0.608 0.608 0.494H0.652L0.700 0.574L0.749 0.494H0.782L0.716 0.602L0.787 0.722H0.743L0.691 0.635L0.636 0.722Z" fill="black"/>
</svg>
