<svg xmlns="http://www.w3.org/2000/svg" viewBox="0 0 1 1" preserveAspectRatio="xMidYMid meet">
  <path d="M0.214 0.722V0.494H0.352V0.521H0.252V0.590H0.337V0.615H0.252V0.696H0.360V0.722ZM0.676 0.722V0.521H0.603V0.494H0.786V0.521H0.714V0.722ZM0.493 0.728Q0.451 0.728 0.428 0.696Q0.404 0.665 0.404 0.608Q0.404 0.552 0.428 0.520Q0.451 0.488 0.493 0.488Q0.534 0.488 0.558 0.520Q0.581 0.552 0.581 0.608Q0.581 0.665 0.558 0.696Q0.534 0.728 0.493 0.728ZM0.493 0.701Q0.540 0.701 0.540 0.608Q0.540 0.515 0.493 0.515Q0.445 0.515 0.445 0.608Q0.445 0.701 0.493 0.701Z" fill="black"/>
</svg>
