<svg xmlns="http://www.w3.org/2000/svg" viewBox="0 0 1 1" preserveAspectRatio="xMidYMid meet">
  <path d="M0.213 0.722V0.494H0.351V0.521H0.251V0.590H0.336V0.615H0.251V0.696H0.359V0.722ZM0.406 0.722V0.494H0.441L0.529 0.655V0.494H0.556V0.722H0.522L0.434 0.559V0.722ZM0.761 0.768Q0.730 0.758 0.700 0.735L0.691 0.728L0.683 0.728Q0.642 0.728 0.619 0.696Q0.596 0.664 0.596 0.608Q0.596 0.552 0.619 0.520Q0.642 0.488 0.684 0.488Q0.726 0.488 0.749 0.520Q0.772 0.552 0.772 0.608Q0.772 0.686 0.724 0.719Q0.749 0.735 0.787 0.740ZM0.636 0.608Q0.636 0.701 0.684 0.701Q0.731 0.701 0.731 0.608Q0.731 0.515 0.684 0.515Q0.636 0.515 0.636 0.608Z" fill="black"/>
</svg>
