<svg xmlns="http://www.w3.org/2000/svg" viewBox="0 0 1 1" preserveAspectRatio="xMidYMid meet">
  <path d="M0.197 0.722 0.272 0.494H0.311L0.382 0.722H0.342L0.322 0.661H0.246L0.226 0.722ZM0.255 0.635H0.315L0.286 0.542ZM0.582 0.716Q0.549 0.728 0.519 0.728Q0.471 0.728 0.442 0.696Q0.413 0.663 0.413 0.609Q0.413 0.553 0.442 0.521Q0.471 0.488 0.521 0.488Q0.553 0.488 0.581 0.496V0.529Q0.548 0.515 0.523 0.515Q0.492 0.515 0.473 0.541Q0.454 0.567 0.454 0.610Q0.454 0.650 0.474 0.675Q0.495 0.700 0.528 0.700Q0.551 0.700 0.582 0.686ZM0.640 0.722V0.494H0.678V0.603L0.760 0.494H0.794L0.716 0.599L0.803 0.722H0.758L0.678 0.610V0.722Z" fill="black"/>
</svg>
