<svg xmlns="http://www.w3.org/2000/svg" viewBox="0 0 1 1" preserveAspectRatio="xMidYMid meet">
  <path d="M0.211 0.722V0.494H0.283Q0.352 0.494 0.352 0.546Q0.352 0.582 0.309 0.602Q0.362 0.619 0.362 0.665Q0.362 0.722 0.285 0.722ZM0.249 0.591H0.260Q0.313 0.591 0.313 0.551Q0.313 0.521 0.265 0.521H0.249ZM0.249 0.696H0.275Q0.321 0.696 0.321 0.661Q0.321 0.640 0.304 0.628Q0.288 0.616 0.260 0.616H0.249ZM0.430 0.722V0.494H0.568V0.521H0.468V0.590H0.553V0.615H0.468V0.696H0.576V0.722ZM0.645 0.722V0.494H0.682V0.696H0.789V0.722Z" fill="black"/>
</svg>
