<svg xmlns="http://www.w3.org/2000/svg" viewBox="0 0 1 1" preserveAspectRatio="xMidYMid meet">
  <path d="M0.318 0.722V0.494H0.390Q0.459 0.494 0.459 0.546Q0.459 0.582 0.416 0.602Q0.468 0.619 0.468 0.665Q0.468 0.722 0.392 0.722ZM0.355 0.591H0.367Q0.420 0.591 0.420 0.551Q0.420 0.521 0.371 0.521H0.355ZM0.355 0.696H0.382Q0.428 0.696 0.428 0.661Q0.428 0.640 0.411 0.628Q0.395 0.616 0.367 0.616H0.355ZM0.528 0.719V0.685Q0.566 0.701 0.596 0.701Q0.616 0.701 0.630 0.691Q0.643 0.681 0.643 0.665Q0.643 0.646 0.616 0.631L0.573 0.608Q0.528 0.585 0.528 0.549Q0.528 0.521 0.549 0.505Q0.569 0.488 0.605 0.488Q0.635 0.488 0.667 0.497V0.528Q0.633 0.515 0.605 0.515Q0.564 0.515 0.564 0.543Q0.564 0.561 0.589 0.574L0.634 0.598Q0.682 0.623 0.682 0.660Q0.682 0.692 0.659 0.710Q0.635 0.728 0.594 0.728Q0.569 0.728 0.528 0.719Z" fill="black"/>
</svg>
