<svg xmlns="http://www.w3.org/2000/svg" viewBox="0 0 1 1" preserveAspectRatio="xMidYMid meet">
  <path d="M0.466 0.716Q0.433 0.728 0.403 0.728Q0.355 0.728 0.326 0.696Q0.297 0.663 0.297 0.609Q0.297 0.553 0.326 0.521Q0.355 0.488 0.405 0.488Q0.437 0.488 0.465 0.496V0.529Q0.432 0.515 0.407 0.515Q0.376 0.515 0.357 0.541Q0.338 0.567 0.338 0.610Q0.338 0.650 0.358 0.675Q0.379 0.700 0.412 0.700Q0.435 0.700 0.466 0.686ZM0.541 0.722V0.494H0.612Q0.682 0.494 0.682 0.551Q0.682 0.594 0.638 0.617L0.703 0.722H0.658L0.601 0.627H0.579V0.722ZM0.579 0.600H0.591Q0.614 0.600 0.628 0.588Q0.642 0.575 0.642 0.553Q0.642 0.535 0.632 0.528Q0.622 0.521 0.596 0.521H0.579Z" fill="black"/>
</svg>
