<svg xmlns="http://www.w3.org/2000/svg" viewBox="0 0 1 1" preserveAspectRatio="xMidYMid meet">
  <path d="M0.296 0.719V0.685Q0.335 0.701 0.364 0.701Q0.385 0.701 0.398 0.691Q0.412 0.681 0.412 0.665Q0.412 0.646 0.385 0.631L0.341 0.608Q0.297 0.585 0.297 0.549Q0.297 0.521 0.317 0.505Q0.337 0.488 0.373 0.488Q0.403 0.488 0.435 0.497V0.528Q0.402 0.515 0.374 0.515Q0.332 0.515 0.332 0.543Q0.332 0.561 0.358 0.574L0.402 0.598Q0.451 0.623 0.451 0.660Q0.451 0.692 0.427 0.710Q0.404 0.728 0.362 0.728Q0.337 0.728 0.296 0.719ZM0.615 0.728Q0.573 0.728 0.550 0.696Q0.527 0.665 0.527 0.608Q0.527 0.552 0.550 0.520Q0.573 0.488 0.615 0.488Q0.657 0.488 0.680 0.520Q0.704 0.552 0.704 0.608Q0.704 0.665 0.680 0.696Q0.657 0.728 0.615 0.728ZM0.615 0.701Q0.663 0.701 0.663 0.608Q0.663 0.515 0.615 0.515Q0.568 0.515 0.568 0.608Q0.568 0.701 0.615 0.701Z" fill="black"/>
</svg>
