<svg xmlns="http://www.w3.org/2000/svg" viewBox="0 0 1 1" preserveAspectRatio="xMidYMid meet">
  <path d="M0.308 0.719V0.685Q0.347 0.701 0.376 0.701Q0.397 0.701 0.410 0.691Q0.424 0.681 0.424 0.665Q0.424 0.646 0.396 0.631L0.353 0.608Q0.309 0.585 0.309 0.549Q0.309 0.521 0.329 0.505Q0.349 0.488 0.385 0.488Q0.415 0.488 0.447 0.497V0.528Q0.414 0.515 0.386 0.515Q0.344 0.515 0.344 0.543Q0.344 0.561 0.370 0.574L0.414 0.598Q0.463 0.623 0.463 0.660Q0.463 0.692 0.439 0.710Q0.416 0.728 0.374 0.728Q0.349 0.728 0.308 0.719ZM0.547 0.722V0.696H0.600V0.521H0.547V0.494H0.692V0.521H0.639V0.696H0.692V0.722Z" fill="black"/>
</svg>
