<svg xmlns="http://www.w3.org/2000/svg" viewBox="0 0 1 1" preserveAspectRatio="xMidYMid meet">
  <path d="M0.220 0.722V0.494H0.291Q0.385 0.494 0.385 0.604Q0.385 0.722 0.282 0.722ZM0.258 0.696H0.273Q0.311 0.696 0.327 0.675Q0.344 0.655 0.344 0.607Q0.344 0.560 0.327 0.540Q0.310 0.521 0.268 0.521H0.258ZM0.590 0.716Q0.557 0.728 0.527 0.728Q0.479 0.728 0.450 0.696Q0.421 0.663 0.421 0.609Q0.421 0.553 0.450 0.521Q0.479 0.488 0.529 0.488Q0.561 0.488 0.589 0.496V0.529Q0.556 0.515 0.531 0.515Q0.500 0.515 0.481 0.541Q0.462 0.567 0.462 0.610Q0.462 0.650 0.482 0.675Q0.503 0.700 0.536 0.700Q0.559 0.700 0.590 0.686ZM0.635 0.722V0.696H0.688V0.524L0.635 0.530V0.508L0.726 0.488V0.696H0.780V0.722Z" fill="black"/>
</svg>
