<svg xmlns="http://www.w3.org/2000/svg" viewBox="0 0 1 1" preserveAspectRatio="xMidYMid meet">
  <path d="M0.222 0.722V0.494H0.293Q0.387 0.494 0.387 0.604Q0.387 0.722 0.284 0.722ZM0.260 0.696H0.276Q0.313 0.696 0.329 0.675Q0.346 0.655 0.346 0.607Q0.346 0.560 0.329 0.540Q0.312 0.521 0.271 0.521H0.260ZM0.593 0.716Q0.560 0.728 0.529 0.728Q0.481 0.728 0.452 0.696Q0.423 0.663 0.423 0.609Q0.423 0.553 0.452 0.521Q0.481 0.488 0.531 0.488Q0.563 0.488 0.591 0.496V0.529Q0.558 0.515 0.533 0.515Q0.502 0.515 0.483 0.541Q0.464 0.567 0.464 0.610Q0.464 0.650 0.485 0.675Q0.505 0.700 0.538 0.700Q0.561 0.700 0.593 0.686ZM0.643 0.722V0.690Q0.656 0.667 0.688 0.633L0.705 0.614Q0.737 0.580 0.737 0.552Q0.737 0.516 0.700 0.516Q0.678 0.516 0.650 0.530V0.500Q0.677 0.488 0.707 0.488Q0.738 0.488 0.758 0.506Q0.778 0.523 0.778 0.551Q0.778 0.582 0.741 0.616L0.725 0.631Q0.693 0.662 0.684 0.690H0.776V0.722Z" fill="black"/>
</svg>
