<svg xmlns="http://www.w3.org/2000/svg" viewBox="0 0 1 1" preserveAspectRatio="xMidYMid meet">
  <path d="M0.225 0.722V0.494H0.296Q0.390 0.494 0.390 0.604Q0.390 0.722 0.287 0.722ZM0.263 0.696H0.278Q0.316 0.696 0.332 0.675Q0.349 0.655 0.349 0.607Q0.349 0.560 0.332 0.540Q0.315 0.521 0.273 0.521H0.263ZM0.595 0.716Q0.562 0.728 0.532 0.728Q0.484 0.728 0.455 0.696Q0.426 0.663 0.426 0.609Q0.426 0.553 0.455 0.521Q0.484 0.488 0.534 0.488Q0.566 0.488 0.594 0.496V0.529Q0.561 0.515 0.536 0.515Q0.504 0.515 0.486 0.541Q0.467 0.567 0.467 0.610Q0.467 0.650 0.487 0.675Q0.508 0.700 0.541 0.700Q0.564 0.700 0.595 0.686ZM0.646 0.720V0.691Q0.673 0.701 0.691 0.701Q0.710 0.701 0.722 0.690Q0.734 0.678 0.734 0.660Q0.734 0.615 0.677 0.615H0.667V0.589H0.673Q0.730 0.589 0.730 0.547Q0.730 0.515 0.696 0.515Q0.674 0.515 0.649 0.527V0.497Q0.674 0.488 0.700 0.488Q0.731 0.488 0.749 0.503Q0.768 0.517 0.768 0.542Q0.768 0.582 0.722 0.599Q0.775 0.615 0.775 0.661Q0.775 0.691 0.752 0.709Q0.729 0.728 0.693 0.728Q0.668 0.728 0.646 0.720Z" fill="black"/>
</svg>
