<svg xmlns="http://www.w3.org/2000/svg" viewBox="0 0 1 1" preserveAspectRatio="xMidYMid meet">
  <path d="M0.223 0.722V0.494H0.294Q0.388 0.494 0.388 0.604Q0.388 0.722 0.285 0.722ZM0.261 0.696H0.276Q0.314 0.696 0.330 0.675Q0.347 0.655 0.347 0.607Q0.347 0.560 0.330 0.540Q0.313 0.521 0.271 0.521H0.261ZM0.594 0.716Q0.561 0.728 0.530 0.728Q0.482 0.728 0.453 0.696Q0.424 0.663 0.424 0.609Q0.424 0.553 0.453 0.521Q0.482 0.488 0.532 0.488Q0.564 0.488 0.592 0.496V0.529Q0.559 0.515 0.534 0.515Q0.503 0.515 0.484 0.541Q0.465 0.567 0.465 0.610Q0.465 0.650 0.486 0.675Q0.506 0.700 0.539 0.700Q0.562 0.700 0.594 0.686ZM0.712 0.722V0.662H0.619V0.630L0.709 0.494H0.746V0.632H0.777V0.662H0.746V0.722ZM0.649 0.632H0.712V0.538Z" fill="black"/>
</svg>
