<svg xmlns="http://www.w3.org/2000/svg" viewBox="0 0 1 1" preserveAspectRatio="xMidYMid meet">
  <path d="M0.220 0.719V0.685Q0.259 0.701 0.288 0.701Q0.309 0.701 0.322 0.691Q0.336 0.681 0.336 0.665Q0.336 0.646 0.309 0.631L0.265 0.608Q0.221 0.585 0.221 0.549Q0.221 0.521 0.241 0.505Q0.261 0.488 0.298 0.488Q0.327 0.488 0.359 0.497V0.528Q0.326 0.515 0.298 0.515Q0.256 0.515 0.256 0.543Q0.256 0.561 0.282 0.574L0.326 0.598Q0.375 0.623 0.375 0.660Q0.375 0.692 0.351 0.710Q0.328 0.728 0.286 0.728Q0.261 0.728 0.220 0.719ZM0.475 0.722V0.626L0.402 0.494H0.445L0.500 0.593L0.557 0.494H0.589L0.513 0.626V0.722ZM0.629 0.722V0.494H0.665L0.752 0.655V0.494H0.780V0.722H0.746L0.657 0.559V0.722Z" fill="black"/>
</svg>
