<svg xmlns="http://www.w3.org/2000/svg" viewBox="0 0 1 1" preserveAspectRatio="xMidYMid meet">
  <path d="M0.222 0.722V0.494H0.361V0.521H0.260V0.590H0.345V0.615H0.260V0.696H0.368V0.722ZM0.471 0.722V0.521H0.398V0.494H0.581V0.521H0.509V0.722ZM0.627 0.722V0.494H0.699Q0.768 0.494 0.768 0.546Q0.768 0.582 0.725 0.602Q0.778 0.619 0.778 0.665Q0.778 0.722 0.701 0.722ZM0.665 0.591H0.676Q0.729 0.591 0.729 0.551Q0.729 0.521 0.681 0.521H0.665ZM0.665 0.696H0.691Q0.737 0.696 0.737 0.661Q0.737 0.640 0.720 0.628Q0.704 0.616 0.676 0.616H0.665Z" fill="black"/>
</svg>
