<svg xmlns="http://www.w3.org/2000/svg" viewBox="0 0 1 1" preserveAspectRatio="xMidYMid meet">
  <path d="M0.390 0.716Q0.357 0.728 0.327 0.728Q0.278 0.728 0.249 0.696Q0.220 0.663 0.220 0.609Q0.220 0.553 0.249 0.521Q0.278 0.488 0.329 0.488Q0.360 0.488 0.388 0.496V0.529Q0.356 0.515 0.331 0.515Q0.299 0.515 0.280 0.541Q0.261 0.567 0.261 0.610Q0.261 0.650 0.282 0.675Q0.302 0.700 0.336 0.700Q0.359 0.700 0.390 0.686ZM0.408 0.722 0.484 0.494H0.522L0.593 0.722H0.553L0.534 0.661H0.457L0.437 0.722ZM0.466 0.635H0.526L0.497 0.542ZM0.629 0.722V0.494H0.665L0.752 0.655V0.494H0.780V0.722H0.746L0.657 0.559V0.722Z" fill="black"/>
</svg>
