<svg xmlns="http://www.w3.org/2000/svg" viewBox="0 0 1 1" preserveAspectRatio="xMidYMid meet">
  <path d="M0.222 0.719V0.685Q0.261 0.701 0.290 0.701Q0.311 0.701 0.324 0.691Q0.338 0.681 0.338 0.665Q0.338 0.646 0.311 0.631L0.267 0.608Q0.223 0.585 0.223 0.549Q0.223 0.521 0.243 0.505Q0.263 0.488 0.300 0.488Q0.329 0.488 0.361 0.497V0.528Q0.328 0.515 0.300 0.515Q0.258 0.515 0.258 0.543Q0.258 0.561 0.284 0.574L0.328 0.598Q0.377 0.623 0.377 0.660Q0.377 0.692 0.353 0.710Q0.330 0.728 0.288 0.728Q0.263 0.728 0.222 0.719ZM0.423 0.494H0.461V0.643Q0.461 0.701 0.500 0.701Q0.540 0.701 0.540 0.643V0.494H0.572V0.638Q0.572 0.686 0.555 0.707Q0.538 0.728 0.499 0.728Q0.423 0.728 0.423 0.643ZM0.627 0.722V0.494H0.699Q0.768 0.494 0.768 0.546Q0.768 0.582 0.725 0.602Q0.778 0.619 0.778 0.665Q0.778 0.722 0.701 0.722ZM0.664 0.591H0.675Q0.729 0.591 0.729 0.551Q0.729 0.521 0.680 0.521H0.664ZM0.664 0.696H0.691Q0.737 0.696 0.737 0.661Q0.737 0.640 0.720 0.628Q0.704 0.616 0.676 0.616H0.664Z" fill="black"/>
</svg>
