<svg xmlns="http://www.w3.org/2000/svg" viewBox="0 0 1 1" preserveAspectRatio="xMidYMid meet">
  <path d="M0.215 0.722V0.494H0.353V0.521H0.253V0.590H0.337V0.615H0.253V0.696H0.361V0.722ZM0.410 0.719V0.685Q0.448 0.701 0.477 0.701Q0.498 0.701 0.512 0.691Q0.525 0.681 0.525 0.665Q0.525 0.646 0.498 0.631L0.455 0.608Q0.410 0.585 0.410 0.549Q0.410 0.521 0.431 0.505Q0.451 0.488 0.487 0.488Q0.517 0.488 0.549 0.497V0.528Q0.515 0.515 0.487 0.515Q0.446 0.515 0.446 0.543Q0.446 0.561 0.471 0.574L0.516 0.598Q0.564 0.623 0.564 0.660Q0.564 0.692 0.541 0.710Q0.517 0.728 0.476 0.728Q0.451 0.728 0.410 0.719ZM0.785 0.716Q0.752 0.728 0.722 0.728Q0.674 0.728 0.645 0.696Q0.616 0.663 0.616 0.609Q0.616 0.553 0.645 0.521Q0.674 0.488 0.724 0.488Q0.756 0.488 0.784 0.496V0.529Q0.751 0.515 0.726 0.515Q0.694 0.515 0.676 0.541Q0.657 0.567 0.657 0.610Q0.657 0.650 0.677 0.675Q0.698 0.700 0.731 0.700Q0.754 0.700 0.785 0.686Z" fill="black"/>
</svg>
