<svg xmlns="http://www.w3.org/2000/svg" viewBox="0 0 1 1" preserveAspectRatio="xMidYMid meet">
  <path d="M0.464 0.717Q0.432 0.728 0.403 0.728Q0.354 0.728 0.325 0.696Q0.296 0.664 0.296 0.609Q0.296 0.552 0.326 0.520Q0.355 0.488 0.406 0.488Q0.434 0.488 0.463 0.497V0.529Q0.435 0.515 0.407 0.515Q0.375 0.515 0.356 0.541Q0.337 0.566 0.337 0.610Q0.337 0.650 0.358 0.675Q0.378 0.699 0.413 0.699Q0.419 0.699 0.427 0.698V0.619H0.464ZM0.549 0.719V0.685Q0.587 0.701 0.616 0.701Q0.638 0.701 0.651 0.691Q0.664 0.681 0.664 0.665Q0.664 0.646 0.637 0.631L0.594 0.608Q0.549 0.585 0.549 0.549Q0.549 0.521 0.569 0.505Q0.590 0.488 0.626 0.488Q0.656 0.488 0.688 0.497V0.528Q0.654 0.515 0.626 0.515Q0.585 0.515 0.585 0.543Q0.585 0.561 0.610 0.574L0.655 0.598Q0.704 0.623 0.704 0.660Q0.704 0.692 0.680 0.710Q0.656 0.728 0.615 0.728Q0.590 0.728 0.549 0.719Z" fill="black"/>
</svg>
