<svg xmlns="http://www.w3.org/2000/svg" viewBox="0 0 1 1" preserveAspectRatio="xMidYMid meet">
  <path d="M0.543 0.719V0.685Q0.581 0.701 0.610 0.701Q0.631 0.701 0.645 0.691Q0.658 0.681 0.658 0.665Q0.658 0.646 0.631 0.631L0.588 0.608Q0.543 0.585 0.543 0.549Q0.543 0.521 0.563 0.505Q0.584 0.488 0.620 0.488Q0.650 0.488 0.682 0.497V0.528Q0.648 0.515 0.620 0.515Q0.578 0.515 0.578 0.543Q0.578 0.561 0.604 0.574L0.648 0.598Q0.697 0.623 0.697 0.660Q0.697 0.692 0.674 0.710Q0.650 0.728 0.608 0.728Q0.583 0.728 0.543 0.719ZM0.303 0.722V0.494H0.374Q0.444 0.494 0.444 0.551Q0.444 0.594 0.400 0.617L0.465 0.722H0.420L0.363 0.627H0.341V0.722ZM0.341 0.600H0.353Q0.376 0.600 0.390 0.588Q0.404 0.575 0.404 0.553Q0.404 0.535 0.394 0.528Q0.384 0.521 0.357 0.521H0.341Z" fill="black"/>
</svg>
