<svg xmlns="http://www.w3.org/2000/svg" viewBox="0 0 1 1" preserveAspectRatio="xMidYMid meet">
  <path d="M0.298 0.719V0.685Q0.337 0.701 0.366 0.701Q0.387 0.701 0.400 0.691Q0.414 0.681 0.414 0.665Q0.414 0.646 0.386 0.631L0.343 0.608Q0.299 0.585 0.299 0.549Q0.299 0.521 0.319 0.505Q0.339 0.488 0.375 0.488Q0.405 0.488 0.437 0.497V0.528Q0.404 0.515 0.376 0.515Q0.334 0.515 0.334 0.543Q0.334 0.561 0.360 0.574L0.404 0.598Q0.453 0.623 0.453 0.660Q0.453 0.692 0.429 0.710Q0.406 0.728 0.364 0.728Q0.339 0.728 0.298 0.719ZM0.551 0.722V0.494H0.627Q0.702 0.494 0.702 0.555Q0.702 0.631 0.609 0.631H0.589V0.722ZM0.589 0.605H0.604Q0.661 0.605 0.661 0.556Q0.661 0.521 0.612 0.521H0.589Z" fill="black"/>
</svg>
