<svg xmlns="http://www.w3.org/2000/svg" viewBox="0 0 1 1" preserveAspectRatio="xMidYMid meet">
  <path d="M0.480 0.684 0.472 0.726H0.419V0.580L0.324 0.722H0.279L0.419 0.512V0.236H0.480V0.420L0.608 0.228H0.654L0.547 0.388Q0.569 0.380 0.592 0.380Q0.652 0.380 0.687 0.424Q0.721 0.468 0.721 0.545Q0.721 0.628 0.682 0.679Q0.643 0.730 0.579 0.730Q0.519 0.730 0.480 0.684ZM0.480 0.643Q0.527 0.684 0.569 0.684Q0.611 0.684 0.634 0.649Q0.657 0.614 0.657 0.551Q0.657 0.433 0.579 0.433Q0.528 0.433 0.480 0.488Z" fill="black"/>
</svg>
