<svg xmlns="http://www.w3.org/2000/svg" viewBox="0 0 1 1" preserveAspectRatio="xMidYMid meet">
  <path d="M0.296 0.734 0.656 0.255H0.703L0.344 0.734ZM0.390 0.494Q0.345 0.494 0.319 0.463Q0.293 0.433 0.293 0.380Q0.293 0.328 0.319 0.297Q0.345 0.266 0.390 0.266Q0.434 0.266 0.460 0.297Q0.487 0.328 0.487 0.380Q0.487 0.433 0.460 0.463Q0.434 0.494 0.390 0.494ZM0.390 0.464Q0.413 0.464 0.427 0.441Q0.441 0.418 0.441 0.380Q0.441 0.342 0.427 0.319Q0.413 0.296 0.390 0.296Q0.366 0.296 0.352 0.319Q0.338 0.342 0.338 0.380Q0.338 0.418 0.352 0.441Q0.366 0.464 0.390 0.464ZM0.610 0.722Q0.565 0.722 0.539 0.692Q0.513 0.661 0.513 0.608Q0.513 0.556 0.539 0.525Q0.565 0.494 0.610 0.494Q0.655 0.494 0.681 0.525Q0.707 0.556 0.707 0.608Q0.707 0.661 0.681 0.692Q0.655 0.722 0.610 0.722ZM0.610 0.692Q0.634 0.692 0.648 0.669Q0.662 0.647 0.662 0.608Q0.662 0.570 0.648 0.547Q0.634 0.524 0.610 0.524Q0.587 0.524 0.573 0.547Q0.559 0.570 0.559 0.608Q0.559 0.647 0.573 0.669Q0.587 0.692 0.610 0.692Z" fill="black"/>
</svg>
