<svg xmlns="http://www.w3.org/2000/svg" viewBox="0 0 1 1" preserveAspectRatio="xMidYMid meet">
  <path d="M0.449 0.430Q0.504 0.380 0.555 0.380Q0.596 0.380 0.623 0.406Q0.651 0.432 0.651 0.472Q0.651 0.527 0.605 0.556Q0.559 0.586 0.473 0.586L0.458 0.586V0.626Q0.458 0.684 0.519 0.684Q0.566 0.684 0.622 0.655V0.705Q0.561 0.730 0.506 0.730Q0.451 0.730 0.424 0.705Q0.397 0.679 0.397 0.626V0.474Q0.397 0.422 0.365 0.422Q0.361 0.422 0.354 0.423L0.349 0.390Q0.370 0.380 0.395 0.380Q0.437 0.380 0.449 0.430ZM0.458 0.463V0.550L0.478 0.550Q0.528 0.550 0.559 0.532Q0.590 0.513 0.590 0.482Q0.590 0.460 0.575 0.445Q0.559 0.430 0.537 0.430Q0.499 0.430 0.458 0.463Z" fill="black"/>
</svg>
