<svg xmlns="http://www.w3.org/2000/svg" viewBox="0 0 1 1" preserveAspectRatio="xMidYMid meet">
  <path d="M0.349 0.726V0.419Q0.349 0.228 0.503 0.228Q0.544 0.228 0.585 0.241V0.294Q0.543 0.274 0.500 0.274Q0.451 0.274 0.430 0.310Q0.410 0.346 0.410 0.431V0.451Q0.447 0.380 0.521 0.380Q0.582 0.380 0.616 0.424Q0.651 0.468 0.651 0.545Q0.651 0.628 0.612 0.679Q0.573 0.730 0.508 0.730Q0.449 0.730 0.410 0.684L0.402 0.726ZM0.410 0.643Q0.456 0.684 0.499 0.684Q0.541 0.684 0.564 0.649Q0.586 0.614 0.586 0.551Q0.586 0.433 0.508 0.433Q0.458 0.433 0.410 0.488Z" fill="black"/>
</svg>
