<svg xmlns="http://www.w3.org/2000/svg" viewBox="0 0 1 1" preserveAspectRatio="xMidYMid meet">
  <path d="M0.606 0.390V0.441Q0.564 0.426 0.521 0.426Q0.472 0.426 0.444 0.458Q0.416 0.491 0.416 0.548Q0.416 0.602 0.442 0.636Q0.466 0.604 0.501 0.584Q0.536 0.565 0.569 0.565Q0.604 0.565 0.626 0.585Q0.649 0.606 0.649 0.636Q0.649 0.676 0.615 0.703Q0.580 0.730 0.529 0.730Q0.485 0.730 0.447 0.710Q0.431 0.747 0.431 0.783H0.384Q0.384 0.729 0.409 0.685Q0.351 0.635 0.351 0.549Q0.351 0.470 0.397 0.425Q0.444 0.380 0.527 0.380Q0.570 0.380 0.606 0.390ZM0.476 0.666Q0.504 0.684 0.534 0.684Q0.561 0.684 0.583 0.670Q0.604 0.655 0.604 0.636Q0.604 0.610 0.569 0.610Q0.523 0.610 0.476 0.666Z" fill="black"/>
</svg>
