<svg xmlns="http://www.w3.org/2000/svg" viewBox="0 0 1 1" preserveAspectRatio="xMidYMid meet">
  <path d="M0.548 0.467Q0.501 0.426 0.459 0.426Q0.417 0.426 0.395 0.461Q0.372 0.496 0.372 0.559Q0.372 0.677 0.449 0.677Q0.500 0.677 0.548 0.622ZM0.548 0.659Q0.511 0.730 0.437 0.730Q0.376 0.730 0.342 0.686Q0.307 0.642 0.307 0.565Q0.307 0.482 0.346 0.431Q0.386 0.380 0.450 0.380Q0.509 0.380 0.548 0.426V0.236H0.609V0.739Q0.609 0.776 0.620 0.791Q0.630 0.806 0.655 0.806Q0.674 0.806 0.693 0.798V0.845Q0.670 0.852 0.648 0.852Q0.601 0.852 0.575 0.825Q0.548 0.798 0.548 0.751Z" fill="black"/>
</svg>
