<svg xmlns="http://www.w3.org/2000/svg" viewBox="0 0 1 1" preserveAspectRatio="xMidYMid meet">
  <path d="M0.200 0.256V0.224H0.232V0.256ZM0.200 0.319V0.288H0.232V0.319ZM0.200 0.382V0.350H0.232V0.382ZM0.200 0.445V0.414H0.232V0.445ZM0.200 0.508V0.477H0.232V0.508ZM0.263 0.256V0.224H0.295V0.256ZM0.263 0.319V0.288H0.295V0.319ZM0.263 0.382V0.350H0.295V0.382ZM0.263 0.445V0.414H0.295V0.445ZM0.263 0.508V0.477H0.295V0.508ZM0.327 0.256V0.224H0.358V0.256ZM0.327 0.319V0.288H0.358V0.319ZM0.327 0.382V0.350H0.358V0.382ZM0.327 0.445V0.414H0.358V0.445ZM0.327 0.508V0.477H0.358V0.508ZM0.389 0.256V0.224H0.421V0.256ZM0.389 0.319V0.288H0.421V0.319ZM0.389 0.382V0.350H0.421V0.382ZM0.389 0.445V0.414H0.421V0.445ZM0.389 0.508V0.477H0.421V0.508ZM0.453 0.256V0.224H0.484V0.256ZM0.453 0.319V0.288H0.484V0.319ZM0.453 0.382V0.350H0.484V0.382ZM0.453 0.445V0.414H0.484V0.445ZM0.453 0.508V0.477H0.484V0.508ZM0.516 0.256V0.224H0.547V0.256ZM0.516 0.319V0.288H0.547V0.319ZM0.516 0.382V0.350H0.547V0.382ZM0.516 0.445V0.414H0.547V0.445ZM0.516 0.508V0.477H0.547V0.508ZM0.579 0.256V0.224H0.610V0.256ZM0.579 0.319V0.288H0.610V0.319ZM0.579 0.382V0.350H0.610V0.382ZM0.579 0.445V0.414H0.610V0.445ZM0.579 0.508V0.477H0.610V0.508ZM0.642 0.256V0.224H0.673V0.256ZM0.642 0.319V0.288H0.673V0.319ZM0.642 0.382V0.350H0.673V0.382ZM0.642 0.445V0.414H0.673V0.445ZM0.642 0.508V0.477H0.673V0.508ZM0.705 0.256V0.224H0.737V0.256ZM0.705 0.319V0.288H0.737V0.319ZM0.705 0.382V0.350H0.737V0.382ZM0.705 0.445V0.414H0.737V0.445ZM0.705 0.508V0.477H0.737V0.508ZM0.768 0.256V0.224H0.800V0.256ZM0.768 0.319V0.288H0.800V0.319ZM0.768 0.382V0.350H0.800V0.382ZM0.768 0.445V0.414H0.800V0.445ZM0.768 0.508V0.477H0.800V0.508ZM0.200 0.571V0.540H0.232V0.571ZM0.200 0.635V0.603H0.232V0.635ZM0.200 0.698V0.666H0.232V0.698ZM0.200 0.761V0.729H0.232V0.761ZM0.200 0.824V0.792H0.232V0.824ZM0.263 0.571V0.540H0.295V0.571ZM0.263 0.635V0.603H0.295V0.635ZM0.263 0.698V0.666H0.295V0.698ZM0.263 0.761V0.729H0.295V0.761ZM0.263 0.824V0.792H0.295V0.824ZM0.327 0.571V0.540H0.358V0.571ZM0.327 0.635V0.603H0.358V0.635ZM0.327 0.698V0.666H0.358V0.698ZM0.327 0.761V0.729H0.358V0.761ZM0.327 0.824V0.792H0.358V0.824ZM0.389 0.571V0.540H0.421V0.571ZM0.389 0.635V0.603H0.421V0.635ZM0.389 0.698V0.666H0.421V0.698ZM0.389 0.761V0.729H0.421V0.761ZM0.389 0.824V0.792H0.421V0.824ZM0.453 0.571V0.540H0.484V0.571ZM0.453 0.635V0.603H0.484V0.635ZM0.453 0.698V0.666H0.484V0.698ZM0.453 0.761V0.729H0.484V0.761ZM0.453 0.824V0.792H0.484V0.824ZM0.516 0.571V0.540H0.547V0.571ZM0.516 0.635V0.603H0.547V0.635ZM0.516 0.698V0.666H0.547V0.698ZM0.516 0.761V0.729H0.547V0.761ZM0.516 0.824V0.792H0.547V0.824ZM0.579 0.571V0.540H0.610V0.571ZM0.579 0.635V0.603H0.610V0.635ZM0.579 0.698V0.666H0.610V0.698ZM0.579 0.761V0.729H0.610V0.761ZM0.579 0.824V0.792H0.610V0.824ZM0.642 0.571V0.540H0.673V0.571ZM0.642 0.635V0.603H0.673V0.635ZM0.642 0.698V0.666H0.673V0.698ZM0.642 0.761V0.729H0.673V0.761ZM0.642 0.824V0.792H0.673V0.824ZM0.705 0.571V0.540H0.737V0.571ZM0.705 0.635V0.603H0.737V0.635ZM0.705 0.698V0.666H0.737V0.698ZM0.705 0.761V0.729H0.737V0.761ZM0.705 0.824V0.792H0.737V0.824ZM0.768 0.571V0.540H0.800V0.571ZM0.768 0.635V0.603H0.800V0.635ZM0.768 0.698V0.666H0.800V0.698ZM0.768 0.761V0.729H0.800V0.761ZM0.768 0.824V0.792H0.800V0.824Z" fill="black"/>
</svg>
