<svg xmlns="http://www.w3.org/2000/svg" viewBox="0 0 1 1" preserveAspectRatio="xMidYMid meet">
  <path d="M0.184 0.256V0.224H0.216V0.256ZM0.184 0.319V0.288H0.216V0.319ZM0.184 0.382V0.350H0.216V0.382ZM0.184 0.445V0.414H0.216V0.445ZM0.184 0.508V0.477H0.216V0.508ZM0.248 0.256H0.279V0.224H0.248ZM0.248 0.319H0.279V0.288H0.248ZM0.248 0.382H0.279V0.350H0.248ZM0.248 0.445H0.279V0.414H0.248ZM0.248 0.508H0.279V0.477H0.248ZM0.311 0.256H0.342V0.224H0.311ZM0.311 0.319H0.342V0.288H0.311ZM0.311 0.382H0.342V0.350H0.311ZM0.311 0.445H0.342V0.414H0.311ZM0.311 0.508H0.342V0.477H0.311ZM0.374 0.256H0.405V0.224H0.374ZM0.374 0.319H0.405V0.288H0.374ZM0.374 0.382H0.405V0.350H0.374ZM0.374 0.445H0.405V0.414H0.374ZM0.374 0.508H0.405V0.477H0.374ZM0.437 0.256H0.469V0.224H0.437ZM0.437 0.319H0.469V0.288H0.437ZM0.437 0.382H0.469V0.350H0.437ZM0.437 0.445H0.469V0.414H0.437ZM0.437 0.508H0.469V0.477H0.437ZM0.216 0.288H0.248V0.256H0.216ZM0.216 0.350H0.248V0.319H0.216ZM0.216 0.414H0.248V0.382H0.216ZM0.216 0.477H0.248V0.445H0.216ZM0.216 0.540H0.248V0.508H0.216ZM0.279 0.288H0.311V0.256H0.279ZM0.279 0.350H0.311V0.319H0.279ZM0.279 0.414H0.311V0.382H0.279ZM0.279 0.477H0.311V0.445H0.279ZM0.279 0.540H0.311V0.508H0.279ZM0.342 0.288H0.374V0.256H0.342ZM0.342 0.350H0.374V0.319H0.342ZM0.342 0.414H0.374V0.382H0.342ZM0.342 0.477H0.374V0.445H0.342ZM0.342 0.540H0.374V0.508H0.342ZM0.405 0.288H0.437V0.256H0.405ZM0.405 0.350H0.437V0.319H0.405ZM0.405 0.414H0.437V0.382H0.405ZM0.405 0.477H0.437V0.445H0.405ZM0.405 0.540H0.437V0.508H0.405ZM0.469 0.288H0.500V0.256H0.469ZM0.469 0.350H0.500V0.319H0.469ZM0.469 0.414H0.500V0.382H0.469ZM0.469 0.477H0.500V0.445H0.469ZM0.469 0.540H0.500V0.508H0.469ZM0.500 0.256H0.531V0.224H0.500ZM0.500 0.319H0.531V0.288H0.500ZM0.500 0.382H0.531V0.350H0.500ZM0.500 0.445H0.531V0.414H0.500ZM0.500 0.508H0.531V0.477H0.500ZM0.563 0.256H0.595V0.224H0.563ZM0.563 0.319H0.595V0.288H0.563ZM0.563 0.382H0.595V0.350H0.563ZM0.563 0.445H0.595V0.414H0.563ZM0.563 0.508H0.595V0.477H0.563ZM0.626 0.256H0.658V0.224H0.626ZM0.626 0.319H0.658V0.288H0.626ZM0.626 0.382H0.658V0.350H0.626ZM0.626 0.445H0.658V0.414H0.626ZM0.626 0.508H0.658V0.477H0.626ZM0.689 0.256H0.721V0.224H0.689ZM0.689 0.319H0.721V0.288H0.689ZM0.689 0.382H0.721V0.350H0.689ZM0.689 0.445H0.721V0.414H0.689ZM0.689 0.508H0.721V0.477H0.689ZM0.752 0.256H0.784V0.224H0.752ZM0.752 0.319H0.784V0.288H0.752ZM0.752 0.382H0.784V0.350H0.752ZM0.752 0.445H0.784V0.414H0.752ZM0.752 0.508H0.784V0.477H0.752ZM0.531 0.288H0.563V0.256H0.531ZM0.531 0.350H0.563V0.319H0.531ZM0.531 0.414H0.563V0.382H0.531ZM0.531 0.477H0.563V0.445H0.531ZM0.531 0.540H0.563V0.508H0.531ZM0.595 0.288H0.626V0.256H0.595ZM0.595 0.350H0.626V0.319H0.595ZM0.595 0.414H0.626V0.382H0.595ZM0.595 0.477H0.626V0.445H0.595ZM0.595 0.540H0.626V0.508H0.595ZM0.658 0.288H0.689V0.256H0.658ZM0.658 0.350H0.689V0.319H0.658ZM0.658 0.414H0.689V0.382H0.658ZM0.658 0.477H0.689V0.445H0.658ZM0.658 0.540H0.689V0.508H0.658ZM0.721 0.288H0.752V0.256H0.721ZM0.721 0.350H0.752V0.319H0.721ZM0.721 0.414H0.752V0.382H0.721ZM0.721 0.477H0.752V0.445H0.721ZM0.721 0.540H0.752V0.508H0.721ZM0.784 0.288H0.816V0.256H0.784ZM0.784 0.350H0.816V0.319H0.784ZM0.784 0.414H0.816V0.382H0.784ZM0.784 0.477H0.816V0.445H0.784ZM0.784 0.540H0.816V0.508H0.784ZM0.184 0.571V0.540H0.216V0.571ZM0.184 0.635V0.603H0.216V0.635ZM0.184 0.698V0.666H0.216V0.698ZM0.184 0.761V0.729H0.216V0.761ZM0.184 0.824V0.792H0.216V0.824ZM0.248 0.571H0.279V0.540H0.248ZM0.248 0.635H0.279V0.603H0.248ZM0.248 0.698H0.279V0.666H0.248ZM0.248 0.761H0.279V0.729H0.248ZM0.248 0.824H0.279V0.792H0.248ZM0.311 0.571H0.342V0.540H0.311ZM0.311 0.635H0.342V0.603H0.311ZM0.311 0.698H0.342V0.666H0.311ZM0.311 0.761H0.342V0.729H0.311ZM0.311 0.824H0.342V0.792H0.311ZM0.374 0.571H0.405V0.540H0.374ZM0.374 0.635H0.405V0.603H0.374ZM0.374 0.698H0.405V0.666H0.374ZM0.374 0.761H0.405V0.729H0.374ZM0.374 0.824H0.405V0.792H0.374ZM0.437 0.571H0.469V0.540H0.437ZM0.437 0.635H0.469V0.603H0.437ZM0.437 0.698H0.469V0.666H0.437ZM0.437 0.761H0.469V0.729H0.437ZM0.437 0.824H0.469V0.792H0.437ZM0.216 0.603H0.248V0.571H0.216ZM0.216 0.666H0.248V0.635H0.216ZM0.216 0.729H0.248V0.698H0.216ZM0.216 0.792H0.248V0.761H0.216ZM0.216 0.855V0.824H0.248V0.855ZM0.279 0.603H0.311V0.571H0.279ZM0.279 0.666H0.311V0.635H0.279ZM0.279 0.729H0.311V0.698H0.279ZM0.279 0.792H0.311V0.761H0.279ZM0.279 0.855V0.824H0.311V0.855ZM0.342 0.603H0.374V0.571H0.342ZM0.342 0.666H0.374V0.635H0.342ZM0.342 0.729H0.374V0.698H0.342ZM0.342 0.792H0.374V0.761H0.342ZM0.342 0.855V0.824H0.374V0.855ZM0.405 0.603H0.437V0.571H0.405ZM0.405 0.666H0.437V0.635H0.405ZM0.405 0.729H0.437V0.698H0.405ZM0.405 0.792H0.437V0.761H0.405ZM0.405 0.855V0.824H0.437V0.855ZM0.469 0.603H0.500V0.571H0.469ZM0.469 0.666H0.500V0.635H0.469ZM0.469 0.729H0.500V0.698H0.469ZM0.469 0.792H0.500V0.761H0.469ZM0.469 0.855V0.824H0.500V0.855ZM0.500 0.571H0.531V0.540H0.500ZM0.500 0.635H0.531V0.603H0.500ZM0.500 0.698H0.531V0.666H0.500ZM0.500 0.761H0.531V0.729H0.500ZM0.500 0.824H0.531V0.792H0.500ZM0.563 0.571H0.595V0.540H0.563ZM0.563 0.635H0.595V0.603H0.563ZM0.563 0.698H0.595V0.666H0.563ZM0.563 0.761H0.595V0.729H0.563ZM0.563 0.824H0.595V0.792H0.563ZM0.626 0.571H0.658V0.540H0.626ZM0.626 0.635H0.658V0.603H0.626ZM0.626 0.698H0.658V0.666H0.626ZM0.626 0.761H0.658V0.729H0.626ZM0.626 0.824H0.658V0.792H0.626ZM0.689 0.571H0.721V0.540H0.689ZM0.689 0.635H0.721V0.603H0.689ZM0.689 0.698H0.721V0.666H0.689ZM0.689 0.761H0.721V0.729H0.689ZM0.689 0.824H0.721V0.792H0.689ZM0.752 0.571H0.784V0.540H0.752ZM0.752 0.635H0.784V0.603H0.752ZM0.752 0.698H0.784V0.666H0.752ZM0.752 0.761H0.784V0.729H0.752ZM0.752 0.824H0.784V0.792H0.752ZM0.531 0.603H0.563V0.571H0.531ZM0.531 0.666H0.563V0.635H0.531ZM0.531 0.729H0.563V0.698H0.531ZM0.531 0.792H0.563V0.761H0.531ZM0.531 0.855V0.824H0.563V0.855ZM0.595 0.603H0.626V0.571H0.595ZM0.595 0.666H0.626V0.635H0.595ZM0.595 0.729H0.626V0.698H0.595ZM0.595 0.792H0.626V0.761H0.595ZM0.595 0.855V0.824H0.626V0.855ZM0.658 0.603H0.689V0.571H0.658ZM0.658 0.666H0.689V0.635H0.658ZM0.658 0.729H0.689V0.698H0.658ZM0.658 0.792H0.689V0.761H0.658ZM0.658 0.855V0.824H0.689V0.855ZM0.721 0.603H0.752V0.571H0.721ZM0.721 0.666H0.752V0.635H0.721ZM0.721 0.729H0.752V0.698H0.721ZM0.721 0.792H0.752V0.761H0.721ZM0.721 0.855V0.824H0.752V0.855ZM0.784 0.603H0.816V0.571H0.784ZM0.784 0.666H0.816V0.635H0.784ZM0.784 0.729H0.816V0.698H0.784ZM0.784 0.792H0.816V0.761H0.784ZM0.784 0.855V0.824H0.816V0.855Z" fill="black"/>
</svg>
