<svg xmlns="http://www.w3.org/2000/svg" viewBox="0 0 1 1" preserveAspectRatio="xMidYMid meet">
  <path d="M0.275 0.398Q0.340 0.380 0.377 0.380Q0.438 0.380 0.477 0.408Q0.515 0.437 0.538 0.497L0.659 0.465V0.533Q0.659 0.571 0.666 0.585Q0.673 0.599 0.694 0.599Q0.707 0.599 0.725 0.589V0.636Q0.698 0.644 0.683 0.644Q0.613 0.644 0.613 0.547V0.524L0.546 0.543L0.547 0.558Q0.547 0.633 0.506 0.682Q0.465 0.730 0.402 0.730Q0.343 0.730 0.309 0.687Q0.275 0.644 0.275 0.569L0.480 0.513Q0.456 0.426 0.368 0.426Q0.331 0.426 0.275 0.447ZM0.485 0.560 0.335 0.600 0.336 0.614Q0.344 0.684 0.404 0.684Q0.485 0.684 0.485 0.560Z" fill="black"/>
</svg>
