<svg xmlns="http://www.w3.org/2000/svg" viewBox="0 0 1 1" preserveAspectRatio="xMidYMid meet">
  <path d="M0.426 0.357H0.574Q0.619 0.357 0.651 0.389Q0.682 0.421 0.682 0.466V0.614Q0.682 0.659 0.651 0.691Q0.619 0.722 0.574 0.722H0.426Q0.381 0.722 0.349 0.691Q0.318 0.659 0.318 0.614V0.466Q0.318 0.420 0.347 0.391Q0.376 0.361 0.426 0.357ZM0.348 0.466V0.614Q0.348 0.646 0.371 0.669Q0.394 0.692 0.426 0.692H0.574Q0.606 0.692 0.629 0.669Q0.652 0.646 0.652 0.614V0.466Q0.652 0.434 0.629 0.411Q0.606 0.388 0.574 0.388H0.426Q0.393 0.388 0.372 0.409Q0.351 0.430 0.348 0.466Z" fill="black"/>
</svg>
