<svg xmlns="http://www.w3.org/2000/svg" viewBox="0 0 1 1" preserveAspectRatio="xMidYMid meet">
  <path d="M0.318 0.722V0.357H0.682V0.722ZM0.348 0.692H0.401V0.639H0.348ZM0.599 0.608H0.652V0.555H0.599ZM0.515 0.608H0.568V0.555H0.515ZM0.432 0.608H0.485V0.555H0.432ZM0.348 0.608H0.401V0.555H0.348ZM0.432 0.524H0.485V0.471H0.432ZM0.599 0.524H0.652V0.471H0.599ZM0.515 0.524H0.568V0.471H0.515ZM0.348 0.524H0.401V0.471H0.348ZM0.599 0.441H0.652V0.388H0.599ZM0.515 0.441H0.568V0.388H0.515ZM0.432 0.441H0.485V0.388H0.432ZM0.599 0.692H0.652V0.639H0.599ZM0.515 0.692H0.568V0.639H0.515ZM0.432 0.692H0.485V0.639H0.432ZM0.348 0.441H0.401V0.388H0.348Z" fill="black"/>
</svg>
