<svg xmlns="http://www.w3.org/2000/svg" viewBox="0 0 1 1" preserveAspectRatio="xMidYMid meet">
  <path d="M0.318 0.722V0.357H0.682V0.722ZM0.369 0.692H0.394L0.382 0.680ZM0.652 0.484V0.477L0.618 0.443L0.581 0.481L0.618 0.518ZM0.652 0.603V0.595L0.618 0.561L0.581 0.599L0.618 0.637ZM0.348 0.552 0.360 0.540 0.348 0.528ZM0.348 0.484 0.382 0.518 0.420 0.481 0.382 0.443 0.348 0.477ZM0.348 0.595V0.603L0.382 0.637L0.420 0.599L0.382 0.561ZM0.348 0.646V0.671L0.360 0.658ZM0.488 0.388 0.500 0.400 0.512 0.388ZM0.522 0.658 0.555 0.692H0.563L0.597 0.658L0.559 0.620ZM0.462 0.599 0.500 0.637 0.538 0.599 0.500 0.561ZM0.403 0.540 0.441 0.578 0.478 0.540 0.441 0.502ZM0.462 0.481 0.500 0.518 0.538 0.481 0.500 0.443ZM0.522 0.540 0.559 0.578 0.597 0.540 0.559 0.502ZM0.478 0.422 0.445 0.388H0.437L0.403 0.422L0.441 0.459ZM0.640 0.540 0.652 0.552V0.528ZM0.563 0.388H0.555L0.522 0.422L0.559 0.459L0.597 0.422ZM0.500 0.680 0.488 0.692H0.512ZM0.403 0.658 0.437 0.692H0.445L0.478 0.658L0.441 0.620ZM0.348 0.409V0.434L0.360 0.422ZM0.394 0.388H0.369L0.382 0.400ZM0.631 0.388H0.606L0.618 0.400ZM0.652 0.434V0.409L0.640 0.422ZM0.652 0.671V0.646L0.640 0.658ZM0.606 0.692H0.631L0.618 0.680Z" fill="black"/>
</svg>
