<svg xmlns="http://www.w3.org/2000/svg" viewBox="0 0 1 1" preserveAspectRatio="xMidYMid meet">
  <path d="M0.614 0.663V0.712Q0.565 0.730 0.520 0.730Q0.463 0.730 0.424 0.701Q0.386 0.671 0.386 0.628Q0.386 0.598 0.408 0.572Q0.431 0.546 0.467 0.536Q0.405 0.504 0.405 0.459Q0.405 0.422 0.437 0.401Q0.468 0.380 0.524 0.380Q0.579 0.380 0.607 0.391V0.437L0.603 0.436Q0.565 0.426 0.527 0.426Q0.497 0.426 0.480 0.436Q0.462 0.447 0.462 0.465Q0.462 0.492 0.491 0.506Q0.519 0.521 0.571 0.521H0.580V0.566H0.537Q0.498 0.566 0.472 0.583Q0.447 0.600 0.447 0.626Q0.447 0.653 0.469 0.669Q0.491 0.684 0.528 0.684Q0.567 0.684 0.609 0.665Z" fill="black"/>
</svg>
