<svg xmlns="http://www.w3.org/2000/svg" viewBox="0 0 1 1" preserveAspectRatio="xMidYMid meet">
  <path d="M0.386 0.663 0.391 0.665Q0.433 0.684 0.472 0.684Q0.509 0.684 0.531 0.669Q0.553 0.653 0.553 0.627Q0.553 0.600 0.528 0.583Q0.503 0.566 0.463 0.566H0.420V0.521H0.429Q0.538 0.521 0.538 0.465Q0.538 0.426 0.472 0.426Q0.435 0.426 0.397 0.436L0.394 0.437V0.391Q0.421 0.380 0.476 0.380Q0.532 0.380 0.564 0.401Q0.595 0.422 0.595 0.459Q0.595 0.504 0.533 0.536Q0.569 0.546 0.592 0.572Q0.614 0.598 0.614 0.628Q0.614 0.671 0.576 0.701Q0.538 0.730 0.480 0.730Q0.435 0.730 0.386 0.712Z" fill="black"/>
</svg>
