<svg xmlns="http://www.w3.org/2000/svg" viewBox="0 0 1 1" preserveAspectRatio="xMidYMid meet">
  <path d="M0.500 0.722Q0.424 0.722 0.371 0.669Q0.318 0.616 0.318 0.540Q0.318 0.464 0.371 0.411Q0.424 0.357 0.500 0.357Q0.576 0.357 0.629 0.411Q0.682 0.464 0.682 0.540Q0.682 0.616 0.629 0.669Q0.576 0.722 0.500 0.722ZM0.500 0.692Q0.563 0.692 0.608 0.647Q0.652 0.603 0.652 0.540Q0.652 0.477 0.608 0.432Q0.563 0.388 0.500 0.388Q0.437 0.388 0.393 0.432Q0.348 0.477 0.348 0.540Q0.348 0.603 0.393 0.647Q0.437 0.692 0.500 0.692ZM0.500 0.631Q0.462 0.631 0.435 0.604Q0.409 0.578 0.409 0.540Q0.409 0.502 0.436 0.475Q0.462 0.449 0.500 0.449Q0.538 0.449 0.565 0.475Q0.591 0.502 0.591 0.540Q0.591 0.578 0.565 0.604Q0.538 0.631 0.500 0.631Z" fill="black"/>
</svg>
