<svg xmlns="http://www.w3.org/2000/svg" viewBox="0 0 1 1" preserveAspectRatio="xMidYMid meet">
  <path d="M0.392 0.432 0.371 0.411Q0.411 0.373 0.464 0.361L0.470 0.391Q0.426 0.401 0.392 0.432ZM0.652 0.540H0.682Q0.682 0.592 0.652 0.641L0.626 0.624Q0.652 0.583 0.652 0.540ZM0.629 0.669Q0.590 0.707 0.536 0.719L0.530 0.689Q0.574 0.679 0.608 0.647ZM0.371 0.669Q0.333 0.629 0.321 0.575L0.351 0.569Q0.361 0.614 0.392 0.647ZM0.500 0.388V0.357Q0.552 0.357 0.601 0.388L0.585 0.414Q0.543 0.388 0.500 0.388ZM0.608 0.432 0.629 0.411Q0.667 0.450 0.679 0.504L0.649 0.510Q0.639 0.465 0.608 0.432ZM0.500 0.692V0.722Q0.448 0.722 0.399 0.692L0.416 0.666Q0.456 0.692 0.500 0.692ZM0.348 0.540H0.318Q0.318 0.487 0.348 0.439L0.374 0.455Q0.348 0.496 0.348 0.540Z" fill="black"/>
</svg>
