<svg xmlns="http://www.w3.org/2000/svg" viewBox="0 0 1 1" preserveAspectRatio="xMidYMid meet">
  <path d="M0.599 0.655Q0.652 0.607 0.652 0.540Q0.652 0.472 0.599 0.424ZM0.515 0.691Q0.543 0.688 0.568 0.676V0.404Q0.544 0.392 0.515 0.389ZM0.432 0.676Q0.457 0.688 0.485 0.691V0.389Q0.456 0.392 0.432 0.404ZM0.500 0.722Q0.424 0.722 0.371 0.669Q0.318 0.616 0.318 0.540Q0.318 0.464 0.371 0.411Q0.424 0.357 0.500 0.357Q0.576 0.357 0.629 0.411Q0.682 0.464 0.682 0.540Q0.682 0.616 0.629 0.669Q0.576 0.722 0.500 0.722ZM0.401 0.424Q0.348 0.472 0.348 0.540Q0.348 0.607 0.401 0.655Z" fill="black"/>
</svg>
