<svg xmlns="http://www.w3.org/2000/svg" viewBox="0 0 1 1" preserveAspectRatio="xMidYMid meet">
  <path d="M0.310 0.663 0.315 0.665Q0.358 0.684 0.396 0.684Q0.434 0.684 0.456 0.669Q0.478 0.653 0.478 0.627Q0.478 0.600 0.453 0.583Q0.428 0.566 0.388 0.566H0.345V0.521H0.353Q0.463 0.521 0.463 0.465Q0.463 0.426 0.397 0.426Q0.360 0.426 0.321 0.436L0.318 0.437V0.391Q0.346 0.380 0.400 0.380Q0.470 0.380 0.502 0.413L0.623 0.380V0.448Q0.623 0.487 0.630 0.500Q0.638 0.514 0.658 0.514Q0.672 0.514 0.690 0.504V0.552Q0.662 0.560 0.647 0.560Q0.577 0.560 0.577 0.463V0.439L0.519 0.456L0.520 0.460Q0.520 0.504 0.457 0.536Q0.494 0.546 0.516 0.572Q0.539 0.598 0.539 0.628Q0.539 0.671 0.500 0.701Q0.462 0.730 0.405 0.730Q0.360 0.730 0.310 0.712Z" fill="black"/>
</svg>
