<svg xmlns="http://www.w3.org/2000/svg" viewBox="0 0 1 1" preserveAspectRatio="xMidYMid meet">
  <path d="M0.500 0.777Q0.598 0.777 0.667 0.707Q0.737 0.638 0.737 0.540Q0.737 0.442 0.667 0.372Q0.598 0.303 0.500 0.303Q0.402 0.303 0.333 0.372Q0.263 0.442 0.263 0.540Q0.263 0.638 0.333 0.707Q0.402 0.777 0.500 0.777ZM0.500 0.746Q0.415 0.746 0.354 0.686Q0.294 0.625 0.294 0.540Q0.294 0.455 0.354 0.394Q0.415 0.334 0.500 0.334Q0.585 0.334 0.646 0.394Q0.706 0.455 0.706 0.540Q0.706 0.625 0.646 0.686Q0.585 0.746 0.500 0.746ZM0.184 0.224H0.816V0.855H0.184Z" fill="black"/>
</svg>
