<svg xmlns="http://www.w3.org/2000/svg" viewBox="0 0 1 1" preserveAspectRatio="xMidYMid meet">
  <path d="M0.587 0.543Q0.650 0.570 0.650 0.624Q0.650 0.671 0.611 0.701Q0.573 0.730 0.510 0.730Q0.434 0.730 0.392 0.685Q0.350 0.641 0.350 0.561Q0.350 0.476 0.394 0.428Q0.438 0.380 0.516 0.380Q0.576 0.380 0.611 0.403Q0.646 0.426 0.646 0.465Q0.646 0.490 0.630 0.511Q0.614 0.533 0.587 0.543ZM0.467 0.570V0.524H0.499Q0.543 0.524 0.567 0.511Q0.591 0.498 0.591 0.473Q0.591 0.452 0.569 0.439Q0.547 0.426 0.512 0.426Q0.458 0.426 0.428 0.462Q0.397 0.498 0.397 0.560Q0.397 0.620 0.426 0.652Q0.455 0.684 0.509 0.684Q0.545 0.684 0.567 0.667Q0.589 0.650 0.589 0.622Q0.589 0.570 0.500 0.570Z" fill="black"/>
</svg>
