<svg xmlns="http://www.w3.org/2000/svg" viewBox="0 0 1 1" preserveAspectRatio="xMidYMid meet">
  <path d="M0.392 0.540Q0.392 0.495 0.423 0.463Q0.455 0.431 0.500 0.431Q0.545 0.431 0.577 0.463Q0.608 0.495 0.608 0.540Q0.608 0.585 0.577 0.617Q0.545 0.648 0.500 0.648Q0.455 0.648 0.423 0.617Q0.392 0.585 0.392 0.540ZM0.422 0.540Q0.422 0.572 0.445 0.595Q0.468 0.618 0.500 0.618Q0.532 0.618 0.555 0.595Q0.578 0.572 0.578 0.540Q0.578 0.508 0.555 0.485Q0.532 0.462 0.500 0.462Q0.468 0.462 0.445 0.485Q0.422 0.508 0.422 0.540Z" fill="black"/>
</svg>
