<svg xmlns="http://www.w3.org/2000/svg" viewBox="0 0 1 1" preserveAspectRatio="xMidYMid meet">
  <path d="M0.609 0.722 0.586 0.695Q0.536 0.734 0.468 0.734Q0.397 0.734 0.351 0.692Q0.305 0.651 0.305 0.587Q0.305 0.481 0.416 0.444Q0.385 0.388 0.385 0.351Q0.385 0.311 0.417 0.283Q0.449 0.255 0.496 0.255Q0.540 0.255 0.569 0.281Q0.598 0.307 0.598 0.347Q0.598 0.415 0.497 0.466Q0.543 0.547 0.604 0.618Q0.632 0.577 0.632 0.502L0.632 0.480H0.692Q0.692 0.581 0.632 0.654Q0.660 0.689 0.695 0.722ZM0.560 0.660Q0.495 0.581 0.437 0.480Q0.365 0.508 0.365 0.572Q0.365 0.620 0.398 0.654Q0.431 0.688 0.478 0.688Q0.521 0.688 0.560 0.660ZM0.475 0.427Q0.541 0.398 0.541 0.348Q0.541 0.326 0.527 0.313Q0.514 0.300 0.493 0.300Q0.472 0.300 0.459 0.314Q0.446 0.327 0.446 0.348Q0.446 0.380 0.475 0.427Z" fill="black"/>
</svg>
