<svg xmlns="http://www.w3.org/2000/svg" viewBox="0 0 1 1" preserveAspectRatio="xMidYMid meet">
  <path d="M0.694 0.235V0.280Q0.678 0.274 0.660 0.274Q0.628 0.274 0.618 0.286Q0.608 0.299 0.608 0.342V0.631Q0.608 0.710 0.600 0.747Q0.592 0.785 0.570 0.809Q0.530 0.851 0.445 0.851Q0.388 0.851 0.334 0.834L0.341 0.781Q0.394 0.806 0.445 0.806Q0.547 0.806 0.547 0.697V0.644Q0.532 0.678 0.503 0.696Q0.473 0.715 0.438 0.715Q0.377 0.715 0.342 0.671Q0.306 0.627 0.306 0.553Q0.306 0.476 0.347 0.428Q0.387 0.380 0.451 0.380Q0.507 0.380 0.547 0.426V0.334Q0.547 0.228 0.651 0.228Q0.672 0.228 0.694 0.235ZM0.547 0.606V0.467Q0.507 0.426 0.460 0.426Q0.418 0.426 0.395 0.459Q0.371 0.493 0.371 0.553Q0.371 0.662 0.448 0.662Q0.501 0.662 0.547 0.606Z" fill="black"/>
</svg>
