<svg xmlns="http://www.w3.org/2000/svg" viewBox="0 0 1 1" preserveAspectRatio="xMidYMid meet">
  <path d="M0.541 0.612Q0.590 0.701 0.590 0.756Q0.590 0.797 0.564 0.824Q0.538 0.851 0.498 0.851Q0.461 0.851 0.439 0.828Q0.416 0.804 0.416 0.766Q0.416 0.697 0.477 0.618Q0.435 0.525 0.404 0.485Q0.373 0.444 0.335 0.435L0.364 0.388Q0.403 0.396 0.437 0.435Q0.472 0.475 0.511 0.556L0.517 0.569Q0.571 0.497 0.590 0.463Q0.609 0.429 0.609 0.404Q0.609 0.397 0.607 0.388H0.663Q0.665 0.396 0.665 0.401Q0.665 0.429 0.643 0.466Q0.622 0.503 0.556 0.593ZM0.502 0.655Q0.463 0.706 0.463 0.758Q0.463 0.782 0.474 0.796Q0.485 0.810 0.502 0.810Q0.535 0.810 0.535 0.769Q0.535 0.732 0.502 0.655Z" fill="black"/>
</svg>
