<svg xmlns="http://www.w3.org/2000/svg" viewBox="0 0 1 1" preserveAspectRatio="xMidYMid meet">
  <path d="M0.500 0.734Q0.401 0.734 0.331 0.664Q0.261 0.594 0.261 0.494Q0.261 0.395 0.331 0.325Q0.401 0.255 0.500 0.255Q0.599 0.255 0.669 0.325Q0.739 0.395 0.739 0.494Q0.739 0.594 0.669 0.664Q0.599 0.734 0.500 0.734ZM0.352 0.508Q0.361 0.573 0.401 0.612Q0.441 0.650 0.500 0.650Q0.559 0.650 0.599 0.612Q0.639 0.573 0.648 0.508H0.614Q0.592 0.601 0.500 0.601Q0.408 0.601 0.386 0.508ZM0.424 0.456Q0.440 0.456 0.451 0.445Q0.462 0.434 0.462 0.418Q0.462 0.402 0.451 0.391Q0.440 0.380 0.424 0.380Q0.408 0.380 0.397 0.391Q0.386 0.402 0.386 0.418Q0.386 0.434 0.397 0.445Q0.408 0.456 0.424 0.456ZM0.576 0.456Q0.592 0.456 0.603 0.445Q0.614 0.434 0.614 0.418Q0.614 0.402 0.603 0.391Q0.592 0.380 0.576 0.380Q0.560 0.380 0.549 0.391Q0.538 0.402 0.538 0.418Q0.538 0.434 0.549 0.445Q0.560 0.456 0.576 0.456Z" fill="black"/>
</svg>
