<svg xmlns="http://www.w3.org/2000/svg" viewBox="0 0 1 1" preserveAspectRatio="xMidYMid meet">
  <path d="M0.477 0.730V0.652Q0.439 0.646 0.404 0.622L0.350 0.677L0.318 0.644L0.372 0.590Q0.349 0.558 0.342 0.517H0.264V0.471H0.342Q0.349 0.431 0.372 0.398L0.318 0.344L0.350 0.312L0.404 0.366Q0.439 0.343 0.477 0.336V0.259H0.523V0.336Q0.561 0.343 0.596 0.366L0.650 0.312L0.682 0.344L0.628 0.398Q0.651 0.431 0.658 0.471H0.736V0.517H0.658Q0.651 0.558 0.628 0.590L0.682 0.644L0.650 0.677L0.596 0.622Q0.561 0.646 0.523 0.652V0.730ZM0.500 0.608Q0.547 0.608 0.581 0.575Q0.614 0.541 0.614 0.494Q0.614 0.447 0.581 0.414Q0.547 0.380 0.500 0.380Q0.453 0.380 0.419 0.414Q0.386 0.447 0.386 0.494Q0.386 0.541 0.419 0.575Q0.453 0.608 0.500 0.608Z" fill="black"/>
</svg>
