<svg xmlns="http://www.w3.org/2000/svg" viewBox="0 0 1 1" preserveAspectRatio="xMidYMid meet">
  <path d="M0.501 0.489Q0.575 0.386 0.643 0.386Q0.647 0.386 0.653 0.386V0.429Q0.649 0.429 0.647 0.429Q0.625 0.429 0.593 0.455Q0.561 0.481 0.529 0.524L0.535 0.532Q0.583 0.603 0.583 0.643Q0.583 0.679 0.555 0.704Q0.528 0.730 0.489 0.730Q0.453 0.730 0.427 0.708Q0.402 0.685 0.402 0.653Q0.402 0.611 0.463 0.529Q0.399 0.435 0.360 0.435Q0.354 0.435 0.347 0.438V0.392Q0.362 0.386 0.373 0.386Q0.425 0.386 0.501 0.489ZM0.488 0.562Q0.448 0.610 0.448 0.649Q0.448 0.666 0.459 0.677Q0.471 0.688 0.488 0.688Q0.505 0.688 0.517 0.676Q0.529 0.664 0.529 0.648Q0.529 0.634 0.516 0.606Q0.504 0.579 0.488 0.562Z" fill="black"/>
</svg>
