<svg xmlns="http://www.w3.org/2000/svg" viewBox="0 0 1 1" preserveAspectRatio="xMidYMid meet">
  <path d="M0.477 0.844V0.768H0.339V0.722H0.477V0.637Q0.396 0.626 0.346 0.569Q0.295 0.512 0.295 0.433Q0.295 0.348 0.355 0.288Q0.415 0.228 0.500 0.228Q0.585 0.228 0.645 0.288Q0.705 0.348 0.705 0.433Q0.705 0.512 0.654 0.569Q0.604 0.626 0.523 0.637V0.722H0.661V0.768H0.523V0.844ZM0.500 0.593Q0.566 0.593 0.613 0.546Q0.660 0.500 0.660 0.433Q0.660 0.367 0.613 0.320Q0.566 0.274 0.500 0.274Q0.434 0.274 0.387 0.320Q0.340 0.367 0.340 0.433Q0.340 0.500 0.387 0.546Q0.434 0.593 0.500 0.593Z" fill="black"/>
</svg>
