<svg xmlns="http://www.w3.org/2000/svg" viewBox="0 0 1 1" preserveAspectRatio="xMidYMid meet">
  <path d="M0.580 0.369 0.676 0.274H0.559V0.228H0.757V0.418H0.711V0.304L0.612 0.402Q0.654 0.462 0.654 0.527Q0.654 0.612 0.593 0.673Q0.533 0.734 0.448 0.734Q0.363 0.734 0.303 0.673Q0.243 0.613 0.243 0.527Q0.243 0.442 0.303 0.383Q0.363 0.323 0.449 0.323Q0.519 0.323 0.580 0.369ZM0.289 0.529Q0.289 0.595 0.336 0.641Q0.382 0.688 0.449 0.688Q0.515 0.688 0.561 0.641Q0.608 0.595 0.608 0.529Q0.608 0.462 0.561 0.416Q0.515 0.369 0.449 0.369Q0.382 0.369 0.336 0.416Q0.289 0.462 0.289 0.529Z" fill="black"/>
</svg>
