<svg xmlns="http://www.w3.org/2000/svg" viewBox="0 0 1 1" preserveAspectRatio="xMidYMid meet">
  <path d="M0.454 0.722 0.484 0.538Q0.461 0.590 0.435 0.613Q0.408 0.636 0.369 0.636Q0.328 0.636 0.300 0.608Q0.272 0.579 0.272 0.537Q0.272 0.490 0.302 0.462Q0.331 0.433 0.381 0.433Q0.399 0.433 0.420 0.440Q0.401 0.403 0.401 0.371Q0.401 0.327 0.429 0.296Q0.458 0.266 0.500 0.266Q0.542 0.266 0.571 0.296Q0.599 0.327 0.599 0.371Q0.599 0.403 0.580 0.440Q0.601 0.433 0.620 0.433Q0.669 0.433 0.698 0.462Q0.728 0.490 0.728 0.537Q0.728 0.579 0.700 0.608Q0.672 0.636 0.631 0.636Q0.592 0.636 0.565 0.613Q0.539 0.590 0.516 0.538L0.546 0.722Z" fill="black"/>
</svg>
