<svg xmlns="http://www.w3.org/2000/svg" viewBox="0 0 1 1" preserveAspectRatio="xMidYMid meet">
  <path d="M0.470 0.630V0.266H0.501V0.274Q0.501 0.315 0.567 0.366L0.589 0.382Q0.656 0.433 0.656 0.476Q0.656 0.508 0.623 0.550L0.602 0.534Q0.621 0.508 0.621 0.489Q0.621 0.470 0.594 0.446L0.571 0.426Q0.564 0.420 0.548 0.408Q0.520 0.388 0.501 0.368V0.591Q0.501 0.670 0.470 0.702Q0.440 0.734 0.396 0.734Q0.373 0.734 0.359 0.722Q0.344 0.711 0.344 0.692Q0.344 0.664 0.371 0.643Q0.398 0.622 0.434 0.622Q0.452 0.622 0.470 0.630Z" fill="black"/>
</svg>
