<svg xmlns="http://www.w3.org/2000/svg" viewBox="0 0 1 1" preserveAspectRatio="xMidYMid meet">
  <path d="M0.483 0.415V0.670Q0.483 0.749 0.453 0.781Q0.422 0.814 0.380 0.814Q0.357 0.814 0.342 0.802Q0.327 0.790 0.327 0.770Q0.327 0.742 0.354 0.722Q0.380 0.701 0.417 0.701Q0.436 0.701 0.452 0.708V0.361L0.673 0.255V0.566Q0.673 0.612 0.667 0.634Q0.661 0.657 0.644 0.675Q0.614 0.707 0.571 0.707Q0.547 0.707 0.533 0.696Q0.518 0.684 0.518 0.666Q0.518 0.638 0.545 0.618Q0.571 0.598 0.609 0.598Q0.625 0.598 0.642 0.604V0.338Z" fill="black"/>
</svg>
