<svg xmlns="http://www.w3.org/2000/svg" viewBox="0 0 1 1" preserveAspectRatio="xMidYMid meet">
  <path d="M0.363 0.722V0.419Q0.363 0.228 0.518 0.228Q0.558 0.228 0.599 0.241V0.294Q0.558 0.274 0.514 0.274Q0.465 0.274 0.445 0.310Q0.424 0.346 0.424 0.431V0.451Q0.472 0.380 0.542 0.380Q0.585 0.380 0.611 0.408Q0.637 0.435 0.637 0.482V0.751Q0.637 0.798 0.611 0.825Q0.585 0.852 0.538 0.852Q0.515 0.852 0.492 0.845V0.798Q0.512 0.806 0.531 0.806Q0.555 0.806 0.566 0.791Q0.576 0.775 0.576 0.739V0.502Q0.576 0.464 0.565 0.449Q0.554 0.433 0.529 0.433Q0.473 0.433 0.424 0.506V0.722Z" fill="black"/>
</svg>
