<svg xmlns="http://www.w3.org/2000/svg" viewBox="0 0 1 1" preserveAspectRatio="xMidYMid meet">
  <path d="M0.264 0.722V0.388H0.325V0.451Q0.369 0.380 0.439 0.380Q0.506 0.380 0.531 0.451Q0.574 0.380 0.643 0.380Q0.687 0.380 0.711 0.406Q0.736 0.432 0.736 0.479V0.751Q0.736 0.798 0.710 0.825Q0.683 0.852 0.637 0.852Q0.614 0.852 0.591 0.845V0.798Q0.610 0.806 0.630 0.806Q0.654 0.806 0.664 0.791Q0.675 0.775 0.675 0.739V0.488Q0.675 0.431 0.629 0.431Q0.582 0.431 0.531 0.498V0.722H0.469V0.488Q0.469 0.431 0.423 0.431Q0.377 0.431 0.325 0.498V0.722Z" fill="black"/>
</svg>
