<svg xmlns="http://www.w3.org/2000/svg" viewBox="0 0 1 1" preserveAspectRatio="xMidYMid meet">
  <path d="M0.514 0.716Q0.474 0.730 0.443 0.730Q0.368 0.730 0.322 0.682Q0.277 0.634 0.277 0.555Q0.277 0.476 0.322 0.428Q0.368 0.380 0.443 0.380Q0.474 0.380 0.514 0.393V0.388H0.717V0.433H0.574V0.525H0.694L0.695 0.569H0.574V0.677H0.723V0.722H0.514ZM0.514 0.594V0.516Q0.514 0.426 0.441 0.426Q0.394 0.426 0.367 0.460Q0.341 0.494 0.341 0.555Q0.341 0.616 0.367 0.650Q0.394 0.684 0.442 0.684Q0.514 0.684 0.514 0.594Z" fill="black"/>
</svg>
