<svg xmlns="http://www.w3.org/2000/svg" viewBox="0 0 1 1" preserveAspectRatio="xMidYMid meet">
  <path d="M0.500 0.671Q0.460 0.730 0.401 0.730Q0.347 0.730 0.313 0.688Q0.280 0.646 0.280 0.580Q0.280 0.488 0.339 0.434Q0.399 0.380 0.500 0.380Q0.601 0.380 0.661 0.434Q0.720 0.488 0.720 0.580Q0.720 0.646 0.687 0.688Q0.653 0.730 0.599 0.730Q0.540 0.730 0.500 0.671ZM0.477 0.618Q0.464 0.588 0.464 0.560Q0.464 0.529 0.477 0.496H0.523Q0.536 0.529 0.536 0.560Q0.536 0.588 0.523 0.618Q0.533 0.643 0.553 0.659Q0.572 0.675 0.594 0.675Q0.624 0.675 0.643 0.648Q0.662 0.620 0.662 0.576Q0.662 0.514 0.621 0.470Q0.581 0.426 0.497 0.426Q0.419 0.426 0.379 0.470Q0.338 0.514 0.338 0.576Q0.338 0.620 0.357 0.648Q0.376 0.675 0.406 0.675Q0.428 0.675 0.447 0.659Q0.467 0.643 0.477 0.618Z" fill="black"/>
</svg>
