<svg xmlns="http://www.w3.org/2000/svg" viewBox="0 0 1 1" preserveAspectRatio="xMidYMid meet">
  <path d="M0.487 0.631H0.411V0.593H0.487V0.487H0.411V0.449H0.487V0.329Q0.487 0.281 0.513 0.255Q0.539 0.228 0.586 0.228Q0.608 0.228 0.631 0.235V0.282Q0.612 0.274 0.593 0.274Q0.568 0.274 0.558 0.289Q0.548 0.304 0.548 0.341V0.449H0.624V0.487H0.548V0.593H0.624V0.631H0.548V0.722Q0.548 0.851 0.439 0.851Q0.406 0.851 0.369 0.836V0.788Q0.411 0.806 0.434 0.806Q0.459 0.806 0.473 0.792Q0.482 0.783 0.484 0.771Q0.487 0.760 0.487 0.722Z" fill="black"/>
</svg>
