<svg xmlns="http://www.w3.org/2000/svg" viewBox="0 0 1 1" preserveAspectRatio="xMidYMid meet">
  <path d="M0.637 0.730H0.546Q0.546 0.782 0.508 0.817Q0.471 0.851 0.416 0.851Q0.379 0.851 0.354 0.828Q0.329 0.805 0.329 0.771Q0.329 0.727 0.366 0.702Q0.393 0.684 0.459 0.684H0.485V0.388Q0.485 0.228 0.604 0.228Q0.638 0.228 0.671 0.240V0.290Q0.637 0.274 0.605 0.274Q0.570 0.274 0.558 0.298Q0.546 0.321 0.546 0.388V0.684H0.637ZM0.485 0.730H0.443Q0.374 0.730 0.374 0.770Q0.374 0.806 0.419 0.806Q0.449 0.806 0.467 0.786Q0.485 0.767 0.485 0.734Z" fill="black"/>
</svg>
