<svg xmlns="http://www.w3.org/2000/svg" viewBox="0 0 1 1" preserveAspectRatio="xMidYMid meet">
  <path d="M0.637 0.388V0.433L0.479 0.569Q0.552 0.569 0.598 0.607Q0.645 0.645 0.645 0.704Q0.645 0.759 0.595 0.804Q0.619 0.843 0.621 0.907H0.576Q0.574 0.866 0.556 0.829Q0.515 0.851 0.470 0.851Q0.424 0.851 0.390 0.824Q0.355 0.796 0.355 0.758Q0.355 0.728 0.378 0.707Q0.400 0.686 0.434 0.686Q0.506 0.686 0.565 0.759Q0.582 0.736 0.582 0.705Q0.582 0.610 0.437 0.610L0.416 0.611V0.564L0.568 0.433H0.384V0.388ZM0.530 0.789Q0.488 0.732 0.437 0.732Q0.401 0.732 0.401 0.760Q0.401 0.778 0.423 0.792Q0.445 0.806 0.474 0.806Q0.499 0.806 0.530 0.789Z" fill="black"/>
</svg>
