<svg xmlns="http://www.w3.org/2000/svg" viewBox="0 0 1 1" preserveAspectRatio="xMidYMid meet">
  <path d="M0.428 0.722V0.586Q0.428 0.531 0.439 0.506Q0.450 0.482 0.495 0.441L0.509 0.427Q0.561 0.380 0.561 0.339Q0.561 0.308 0.540 0.291Q0.520 0.274 0.483 0.274Q0.433 0.274 0.380 0.297V0.247Q0.439 0.228 0.492 0.228Q0.551 0.228 0.586 0.256Q0.620 0.284 0.620 0.333Q0.620 0.365 0.606 0.387Q0.593 0.409 0.547 0.454L0.533 0.468Q0.502 0.497 0.496 0.510Q0.489 0.523 0.489 0.553L0.489 0.587V0.722Z" fill="black"/>
</svg>
