<svg xmlns="http://www.w3.org/2000/svg" viewBox="0 0 1 1" preserveAspectRatio="xMidYMid meet">
  <path d="M0.572 0.722H0.512V0.587L0.511 0.553Q0.511 0.523 0.504 0.510Q0.498 0.497 0.468 0.468L0.453 0.454Q0.407 0.410 0.394 0.387Q0.380 0.365 0.380 0.333Q0.380 0.284 0.414 0.256Q0.449 0.228 0.508 0.228Q0.561 0.228 0.620 0.247V0.297Q0.567 0.274 0.516 0.274Q0.480 0.274 0.460 0.291Q0.439 0.308 0.439 0.339Q0.439 0.380 0.491 0.427L0.506 0.441Q0.550 0.482 0.561 0.506Q0.572 0.531 0.572 0.586Z" fill="black"/>
</svg>
