<svg xmlns="http://www.w3.org/2000/svg" viewBox="0 0 1 1" preserveAspectRatio="xMidYMid meet">
  <path d="M0.500 0.730Q0.427 0.730 0.376 0.679Q0.325 0.628 0.325 0.555Q0.325 0.483 0.376 0.431Q0.427 0.380 0.500 0.380Q0.573 0.380 0.624 0.431Q0.675 0.483 0.675 0.555Q0.675 0.628 0.624 0.679Q0.573 0.730 0.500 0.730ZM0.500 0.684Q0.553 0.684 0.591 0.647Q0.629 0.609 0.629 0.555Q0.629 0.501 0.591 0.464Q0.553 0.426 0.500 0.426Q0.446 0.426 0.408 0.464Q0.371 0.502 0.371 0.555Q0.371 0.609 0.408 0.647Q0.446 0.684 0.500 0.684ZM0.466 0.589V0.521H0.534V0.589Z" fill="black"/>
</svg>
