<svg xmlns="http://www.w3.org/2000/svg" viewBox="0 0 1 1" preserveAspectRatio="xMidYMid meet">
  <path d="M0.413 0.543Q0.386 0.533 0.370 0.511Q0.353 0.490 0.353 0.465Q0.353 0.426 0.389 0.403Q0.424 0.380 0.484 0.380Q0.561 0.380 0.606 0.428Q0.650 0.476 0.650 0.561Q0.650 0.641 0.608 0.685Q0.566 0.730 0.490 0.730Q0.427 0.730 0.389 0.701Q0.350 0.671 0.350 0.624Q0.350 0.570 0.413 0.543ZM0.532 0.570H0.500Q0.410 0.570 0.410 0.622Q0.410 0.650 0.433 0.667Q0.455 0.684 0.491 0.684Q0.545 0.684 0.574 0.652Q0.603 0.620 0.603 0.560Q0.603 0.498 0.572 0.462Q0.541 0.426 0.488 0.426Q0.453 0.426 0.431 0.439Q0.409 0.452 0.409 0.473Q0.409 0.498 0.433 0.511Q0.457 0.524 0.501 0.524H0.532Z" fill="black"/>
</svg>
