<svg xmlns="http://www.w3.org/2000/svg" viewBox="0 0 1 1" preserveAspectRatio="xMidYMid meet">
  <path d="M0.596 0.442Q0.527 0.426 0.489 0.426Q0.432 0.426 0.402 0.460Q0.371 0.494 0.371 0.557Q0.371 0.619 0.401 0.653Q0.431 0.688 0.486 0.688Q0.506 0.688 0.536 0.683V0.578H0.597V0.713Q0.531 0.730 0.484 0.730Q0.399 0.730 0.353 0.685Q0.307 0.639 0.307 0.555Q0.307 0.471 0.354 0.426Q0.400 0.380 0.485 0.380Q0.512 0.380 0.543 0.384L0.551 0.385V0.346Q0.551 0.228 0.644 0.228Q0.667 0.228 0.693 0.234V0.280Q0.673 0.272 0.649 0.272Q0.619 0.272 0.608 0.288Q0.596 0.304 0.596 0.348Z" fill="black"/>
</svg>
