<svg xmlns="http://www.w3.org/2000/svg" viewBox="0 0 1 1" preserveAspectRatio="xMidYMid meet">
  <path d="M0.435 0.608H0.373V0.563H0.435V0.557Q0.435 0.526 0.449 0.501Q0.463 0.477 0.502 0.441L0.517 0.427Q0.568 0.380 0.568 0.339Q0.568 0.308 0.548 0.291Q0.527 0.274 0.490 0.274Q0.440 0.274 0.388 0.297V0.247Q0.447 0.228 0.500 0.228Q0.559 0.228 0.593 0.256Q0.627 0.284 0.627 0.333Q0.627 0.365 0.614 0.387Q0.601 0.409 0.554 0.454L0.540 0.468Q0.510 0.497 0.503 0.510Q0.496 0.524 0.496 0.554L0.496 0.563H0.595V0.608H0.496L0.496 0.722H0.435Z" fill="black"/>
</svg>
