<svg xmlns="http://www.w3.org/2000/svg" viewBox="0 0 1 1" preserveAspectRatio="xMidYMid meet">
  <path d="M0.565 0.608V0.722H0.504V0.608H0.405V0.563H0.504V0.554Q0.504 0.524 0.497 0.510Q0.490 0.497 0.460 0.468L0.446 0.454Q0.399 0.410 0.386 0.387Q0.373 0.365 0.373 0.333Q0.373 0.284 0.407 0.256Q0.441 0.228 0.500 0.228Q0.553 0.228 0.612 0.247V0.297Q0.560 0.274 0.509 0.274Q0.473 0.274 0.452 0.291Q0.432 0.308 0.432 0.339Q0.432 0.380 0.483 0.427L0.498 0.441Q0.537 0.477 0.551 0.501Q0.565 0.526 0.565 0.558V0.563H0.627V0.608Z" fill="black"/>
</svg>
