<svg xmlns="http://www.w3.org/2000/svg" viewBox="0 0 1 1" preserveAspectRatio="xMidYMid meet">
  <path d="M0.794 0.722H0.447V0.659Q0.410 0.730 0.336 0.730Q0.275 0.730 0.241 0.686Q0.206 0.642 0.206 0.565Q0.206 0.482 0.245 0.431Q0.284 0.380 0.349 0.380Q0.408 0.380 0.447 0.426V0.236H0.508V0.388H0.790V0.433L0.583 0.677H0.794ZM0.447 0.467Q0.400 0.426 0.358 0.426Q0.316 0.426 0.293 0.461Q0.271 0.496 0.271 0.559Q0.271 0.677 0.348 0.677Q0.399 0.677 0.447 0.622ZM0.508 0.433V0.677L0.715 0.433Z" fill="black"/>
</svg>
