<svg xmlns="http://www.w3.org/2000/svg" viewBox="0 0 1 1" preserveAspectRatio="xMidYMid meet">
  <path d="M0.519 0.722H0.458V0.659Q0.421 0.730 0.347 0.730Q0.286 0.730 0.251 0.686Q0.217 0.642 0.217 0.565Q0.217 0.482 0.256 0.431Q0.295 0.380 0.359 0.380Q0.419 0.380 0.458 0.426V0.236H0.519V0.388H0.772V0.433L0.637 0.576Q0.705 0.579 0.744 0.614Q0.783 0.650 0.783 0.707Q0.783 0.769 0.735 0.812Q0.693 0.851 0.614 0.851Q0.582 0.851 0.534 0.842V0.791Q0.587 0.806 0.616 0.806Q0.662 0.806 0.690 0.781Q0.719 0.755 0.719 0.714Q0.719 0.667 0.682 0.642Q0.646 0.616 0.580 0.616V0.570L0.709 0.433H0.519ZM0.458 0.467Q0.411 0.426 0.369 0.426Q0.327 0.426 0.304 0.461Q0.282 0.496 0.282 0.559Q0.282 0.677 0.359 0.677Q0.410 0.677 0.458 0.622Z" fill="black"/>
</svg>
