<svg xmlns="http://www.w3.org/2000/svg" viewBox="0 0 1 1" preserveAspectRatio="xMidYMid meet">
  <path d="M0.592 0.722H0.393V0.659Q0.356 0.730 0.282 0.730Q0.221 0.730 0.187 0.686Q0.152 0.642 0.152 0.565Q0.152 0.482 0.191 0.431Q0.231 0.380 0.295 0.380Q0.354 0.380 0.393 0.426V0.236H0.454V0.388H0.734V0.433L0.528 0.675H0.616Q0.690 0.553 0.771 0.553Q0.804 0.553 0.826 0.573Q0.848 0.593 0.848 0.623Q0.848 0.675 0.805 0.698Q0.763 0.722 0.672 0.722H0.642Q0.620 0.766 0.616 0.814H0.569Q0.573 0.764 0.592 0.722ZM0.393 0.467Q0.346 0.426 0.304 0.426Q0.262 0.426 0.240 0.461Q0.217 0.496 0.217 0.559Q0.217 0.677 0.294 0.677Q0.345 0.677 0.393 0.622ZM0.454 0.433V0.675L0.659 0.433ZM0.669 0.675H0.685Q0.802 0.675 0.802 0.626Q0.802 0.613 0.793 0.604Q0.784 0.595 0.772 0.595Q0.728 0.595 0.674 0.668Z" fill="black"/>
</svg>
