<svg xmlns="http://www.w3.org/2000/svg" viewBox="0 0 1 1" preserveAspectRatio="xMidYMid meet">
  <path d="M0.692 0.390V0.441Q0.641 0.426 0.610 0.426Q0.584 0.426 0.568 0.437Q0.552 0.449 0.552 0.468Q0.552 0.496 0.597 0.515L0.626 0.527Q0.676 0.548 0.696 0.571Q0.717 0.594 0.717 0.629Q0.717 0.673 0.682 0.702Q0.647 0.730 0.593 0.730Q0.551 0.730 0.492 0.711V0.655Q0.551 0.684 0.595 0.684Q0.622 0.684 0.639 0.670Q0.656 0.656 0.656 0.635Q0.656 0.604 0.608 0.583L0.572 0.568Q0.494 0.536 0.494 0.474Q0.494 0.452 0.503 0.434L0.386 0.433V0.619Q0.386 0.684 0.443 0.684Q0.455 0.684 0.472 0.680V0.722Q0.444 0.730 0.423 0.730Q0.377 0.730 0.351 0.704Q0.325 0.677 0.325 0.630V0.433H0.283V0.388H0.325V0.327L0.386 0.321V0.388H0.556Q0.581 0.380 0.610 0.380Q0.638 0.380 0.679 0.388Z" fill="black"/>
</svg>
