<svg xmlns="http://www.w3.org/2000/svg" viewBox="0 0 1 1" preserveAspectRatio="xMidYMid meet">
  <path d="M0.534 0.388V0.384Q0.534 0.228 0.653 0.228Q0.687 0.228 0.720 0.240V0.290Q0.687 0.274 0.655 0.274Q0.620 0.274 0.607 0.297Q0.595 0.321 0.595 0.388V0.692Q0.595 0.851 0.476 0.851Q0.447 0.851 0.411 0.841V0.791Q0.445 0.806 0.475 0.806Q0.508 0.806 0.521 0.781Q0.534 0.756 0.534 0.693V0.433H0.382V0.619Q0.382 0.684 0.439 0.684Q0.451 0.684 0.468 0.680V0.722Q0.440 0.730 0.419 0.730Q0.373 0.730 0.347 0.704Q0.321 0.677 0.321 0.630V0.433H0.280V0.388H0.321V0.327L0.382 0.321V0.388Z" fill="black"/>
</svg>
