<svg xmlns="http://www.w3.org/2000/svg" viewBox="0 0 1 1" preserveAspectRatio="xMidYMid meet">
  <path d="M0.284 0.433H0.243V0.388H0.284V0.327L0.345 0.321V0.388H0.569Q0.600 0.380 0.636 0.380Q0.678 0.380 0.714 0.390V0.441Q0.672 0.426 0.630 0.426Q0.580 0.426 0.552 0.458Q0.524 0.491 0.524 0.548Q0.524 0.602 0.550 0.636Q0.575 0.604 0.609 0.584Q0.644 0.565 0.677 0.565Q0.712 0.565 0.735 0.585Q0.757 0.606 0.757 0.636Q0.757 0.676 0.723 0.703Q0.688 0.730 0.638 0.730Q0.593 0.730 0.556 0.710Q0.539 0.747 0.539 0.783H0.493Q0.493 0.729 0.517 0.685Q0.459 0.635 0.459 0.549Q0.459 0.481 0.498 0.434L0.345 0.433V0.619Q0.345 0.684 0.402 0.684Q0.414 0.684 0.431 0.680V0.722Q0.403 0.730 0.382 0.730Q0.336 0.730 0.310 0.704Q0.284 0.677 0.284 0.630ZM0.584 0.666Q0.612 0.684 0.642 0.684Q0.670 0.684 0.691 0.670Q0.712 0.655 0.712 0.636Q0.712 0.610 0.677 0.610Q0.631 0.610 0.584 0.666Z" fill="black"/>
</svg>
