<svg xmlns="http://www.w3.org/2000/svg" viewBox="0 0 1 1" preserveAspectRatio="xMidYMid meet">
  <path d="M0.500 0.327Q0.471 0.327 0.450 0.307Q0.430 0.286 0.430 0.257Q0.430 0.228 0.450 0.208Q0.471 0.187 0.500 0.187Q0.529 0.187 0.549 0.207Q0.570 0.228 0.570 0.257Q0.570 0.286 0.550 0.307Q0.529 0.327 0.500 0.327ZM0.500 0.300Q0.518 0.300 0.531 0.288Q0.543 0.275 0.543 0.257Q0.543 0.239 0.531 0.226Q0.518 0.214 0.500 0.214Q0.482 0.214 0.469 0.226Q0.457 0.239 0.457 0.257Q0.457 0.275 0.469 0.288Q0.482 0.300 0.500 0.300Z" fill="black"/>
</svg>
