<svg xmlns="http://www.w3.org/2000/svg" viewBox="0 0 1 1" preserveAspectRatio="xMidYMid meet">
  <path d="M0.536 0.388Q0.567 0.443 0.567 0.479Q0.567 0.508 0.550 0.526Q0.532 0.545 0.504 0.545Q0.478 0.545 0.462 0.529Q0.445 0.513 0.445 0.489Q0.445 0.447 0.485 0.390Q0.461 0.333 0.437 0.304Q0.413 0.275 0.384 0.271L0.407 0.236Q0.466 0.239 0.517 0.352Q0.575 0.277 0.575 0.242Q0.575 0.239 0.573 0.236H0.614Q0.616 0.241 0.616 0.246Q0.616 0.266 0.590 0.312Q0.564 0.358 0.536 0.388ZM0.504 0.428Q0.485 0.457 0.485 0.483Q0.485 0.510 0.504 0.510Q0.523 0.510 0.523 0.486Q0.523 0.462 0.504 0.428Z" fill="black"/>
</svg>
