<svg xmlns="http://www.w3.org/2000/svg" viewBox="0 0 1 1" preserveAspectRatio="xMidYMid meet">
  <path d="M0.500 0.923Q0.471 0.923 0.451 0.903Q0.430 0.882 0.430 0.853Q0.430 0.824 0.451 0.804Q0.471 0.783 0.500 0.783Q0.529 0.783 0.549 0.804Q0.570 0.824 0.570 0.853Q0.570 0.882 0.549 0.903Q0.529 0.923 0.500 0.923ZM0.500 0.896Q0.518 0.896 0.531 0.884Q0.543 0.871 0.543 0.853Q0.543 0.835 0.531 0.822Q0.518 0.810 0.500 0.810Q0.482 0.810 0.469 0.822Q0.457 0.835 0.457 0.853Q0.457 0.871 0.469 0.884Q0.482 0.896 0.500 0.896Z" fill="black"/>
</svg>
