<svg xmlns="http://www.w3.org/2000/svg" viewBox="0 0 1 1" preserveAspectRatio="xMidYMid meet">
  <path d="M0.367 0.719V0.662Q0.432 0.688 0.469 0.688Q0.513 0.688 0.541 0.663Q0.568 0.638 0.568 0.597Q0.568 0.501 0.433 0.501H0.409V0.460L0.431 0.459Q0.557 0.459 0.557 0.370Q0.557 0.300 0.473 0.300Q0.428 0.300 0.373 0.326V0.273Q0.427 0.255 0.477 0.255Q0.545 0.255 0.582 0.282Q0.618 0.309 0.618 0.361Q0.618 0.441 0.523 0.475Q0.633 0.501 0.633 0.596Q0.633 0.660 0.590 0.697Q0.548 0.734 0.474 0.734Q0.431 0.734 0.367 0.719Z" fill="black"/>
</svg>
