<svg xmlns="http://www.w3.org/2000/svg" viewBox="0 0 1 1" preserveAspectRatio="xMidYMid meet">
  <path d="M0.410 0.486Q0.454 0.430 0.520 0.430Q0.580 0.430 0.618 0.469Q0.656 0.509 0.656 0.571Q0.656 0.642 0.613 0.688Q0.570 0.734 0.504 0.734Q0.429 0.734 0.387 0.673Q0.344 0.612 0.344 0.504Q0.344 0.360 0.418 0.292Q0.459 0.255 0.530 0.255Q0.571 0.255 0.632 0.272V0.325Q0.568 0.300 0.526 0.300Q0.410 0.300 0.410 0.486ZM0.595 0.583Q0.595 0.532 0.571 0.503Q0.548 0.473 0.507 0.473Q0.468 0.473 0.441 0.499Q0.413 0.525 0.413 0.561Q0.413 0.619 0.439 0.653Q0.466 0.688 0.509 0.688Q0.549 0.688 0.572 0.660Q0.595 0.631 0.595 0.583Z" fill="black"/>
</svg>
