<svg xmlns="http://www.w3.org/2000/svg" viewBox="0 0 1 1" preserveAspectRatio="xMidYMid meet">
  <path d="M0.438 0.474Q0.400 0.448 0.386 0.425Q0.371 0.403 0.371 0.371Q0.371 0.319 0.409 0.287Q0.447 0.255 0.508 0.255Q0.564 0.255 0.599 0.282Q0.634 0.309 0.634 0.353Q0.634 0.419 0.549 0.474Q0.653 0.524 0.653 0.604Q0.653 0.661 0.609 0.698Q0.566 0.734 0.498 0.734Q0.431 0.734 0.389 0.700Q0.347 0.666 0.347 0.610Q0.347 0.528 0.438 0.474ZM0.515 0.455Q0.579 0.413 0.579 0.361Q0.579 0.334 0.558 0.317Q0.536 0.300 0.502 0.300Q0.468 0.300 0.447 0.317Q0.426 0.333 0.426 0.360Q0.426 0.385 0.445 0.406Q0.464 0.426 0.515 0.455ZM0.471 0.499Q0.434 0.527 0.421 0.548Q0.408 0.569 0.408 0.601Q0.408 0.640 0.433 0.664Q0.459 0.688 0.500 0.688Q0.540 0.688 0.565 0.667Q0.590 0.647 0.590 0.614Q0.590 0.587 0.574 0.569Q0.559 0.551 0.514 0.524Z" fill="black"/>
</svg>
