<svg xmlns="http://www.w3.org/2000/svg" viewBox="0 0 1 1" preserveAspectRatio="xMidYMid meet">
  <path d="M0.541 0.734Q0.444 0.734 0.386 0.669Q0.328 0.603 0.328 0.494Q0.328 0.385 0.386 0.320Q0.444 0.255 0.541 0.255Q0.638 0.255 0.696 0.320Q0.754 0.385 0.754 0.494Q0.754 0.603 0.696 0.669Q0.638 0.734 0.541 0.734ZM0.541 0.685Q0.609 0.685 0.647 0.635Q0.686 0.584 0.686 0.494Q0.686 0.404 0.647 0.354Q0.609 0.303 0.541 0.303Q0.473 0.303 0.435 0.354Q0.397 0.404 0.397 0.494Q0.397 0.584 0.435 0.635Q0.473 0.685 0.541 0.685ZM0.253 0.365 0.246 0.266H0.306L0.299 0.365Z" fill="black"/>
</svg>
