<svg xmlns="http://www.w3.org/2000/svg" viewBox="0 0 1 1" preserveAspectRatio="xMidYMid meet">
  <path d="M0.308 0.722V0.675H0.433Q0.323 0.592 0.323 0.466Q0.323 0.373 0.383 0.314Q0.442 0.255 0.536 0.255Q0.629 0.255 0.689 0.314Q0.749 0.373 0.749 0.466Q0.749 0.592 0.638 0.675H0.764V0.722H0.576V0.675Q0.680 0.604 0.680 0.472Q0.680 0.392 0.642 0.347Q0.604 0.302 0.536 0.302Q0.469 0.302 0.430 0.347Q0.391 0.391 0.391 0.469Q0.391 0.604 0.496 0.675V0.722ZM0.244 0.365 0.236 0.266H0.297L0.290 0.365Z" fill="black"/>
</svg>
