<svg xmlns="http://www.w3.org/2000/svg" viewBox="0 0 1 1" preserveAspectRatio="xMidYMid meet">
  <path d="M0.369 0.720V0.668Q0.427 0.688 0.467 0.688Q0.524 0.688 0.556 0.640Q0.588 0.592 0.588 0.506Q0.542 0.563 0.483 0.563Q0.425 0.563 0.385 0.520Q0.345 0.478 0.345 0.417Q0.345 0.347 0.388 0.301Q0.430 0.255 0.495 0.255Q0.569 0.255 0.612 0.314Q0.655 0.374 0.655 0.478Q0.655 0.544 0.634 0.602Q0.614 0.660 0.579 0.692Q0.534 0.734 0.461 0.734Q0.426 0.734 0.369 0.720ZM0.406 0.406Q0.406 0.459 0.429 0.489Q0.453 0.519 0.494 0.519Q0.532 0.519 0.560 0.493Q0.587 0.467 0.587 0.430Q0.587 0.371 0.561 0.336Q0.534 0.300 0.491 0.300Q0.451 0.300 0.429 0.329Q0.406 0.357 0.406 0.406Z" fill="black"/>
</svg>
