<svg xmlns="http://www.w3.org/2000/svg" viewBox="0 0 1 1" preserveAspectRatio="xMidYMid meet">
  <path d="M0.469 0.722V0.654H0.461Q0.394 0.654 0.345 0.607Q0.297 0.560 0.297 0.496Q0.297 0.426 0.346 0.380Q0.395 0.335 0.469 0.335V0.266H0.530V0.335Q0.605 0.335 0.654 0.380Q0.703 0.426 0.703 0.496Q0.703 0.560 0.655 0.607Q0.606 0.654 0.538 0.654H0.530V0.722ZM0.469 0.382Q0.420 0.382 0.391 0.413Q0.361 0.445 0.361 0.497Q0.361 0.546 0.391 0.576Q0.420 0.606 0.469 0.606ZM0.530 0.382V0.606Q0.579 0.606 0.609 0.576Q0.639 0.546 0.639 0.497Q0.639 0.445 0.609 0.413Q0.580 0.382 0.530 0.382Z" fill="black"/>
</svg>
