<svg xmlns="http://www.w3.org/2000/svg" viewBox="0 0 1 1" preserveAspectRatio="xMidYMid meet">
  <path d="M0.467 0.722V0.530Q0.409 0.526 0.379 0.499Q0.349 0.471 0.340 0.413L0.334 0.374Q0.327 0.335 0.317 0.324Q0.307 0.314 0.277 0.314H0.273V0.266H0.278Q0.332 0.266 0.354 0.285Q0.376 0.304 0.386 0.358L0.392 0.394Q0.401 0.444 0.416 0.463Q0.431 0.482 0.461 0.482Q0.463 0.482 0.467 0.482V0.266H0.533V0.482Q0.537 0.482 0.539 0.482Q0.569 0.482 0.584 0.463Q0.599 0.444 0.608 0.394L0.614 0.358Q0.624 0.304 0.646 0.285Q0.668 0.266 0.722 0.266H0.727V0.314H0.723Q0.693 0.314 0.683 0.324Q0.673 0.335 0.666 0.374L0.660 0.413Q0.651 0.471 0.621 0.499Q0.592 0.526 0.533 0.530V0.722Z" fill="black"/>
</svg>
