<svg xmlns="http://www.w3.org/2000/svg" viewBox="0 0 1 1" preserveAspectRatio="xMidYMid meet">
  <path d="M0.577 0.533Q0.614 0.467 0.614 0.388H0.679Q0.665 0.481 0.599 0.575Q0.652 0.672 0.690 0.722H0.620Q0.614 0.712 0.611 0.708L0.591 0.675L0.570 0.640Q0.567 0.635 0.560 0.623Q0.481 0.730 0.416 0.730Q0.368 0.730 0.339 0.689Q0.310 0.647 0.310 0.578Q0.310 0.497 0.351 0.438Q0.391 0.380 0.447 0.380Q0.483 0.380 0.510 0.412Q0.537 0.444 0.577 0.533ZM0.539 0.585 0.523 0.549Q0.492 0.480 0.473 0.454Q0.455 0.428 0.439 0.428Q0.413 0.428 0.394 0.469Q0.375 0.511 0.375 0.566Q0.375 0.621 0.389 0.653Q0.404 0.684 0.429 0.684Q0.471 0.684 0.539 0.585Z" fill="black"/>
</svg>
