<svg xmlns="http://www.w3.org/2000/svg" viewBox="0 0 1 1" preserveAspectRatio="xMidYMid meet">
  <path d="M0.355 0.844V0.398Q0.355 0.317 0.392 0.273Q0.428 0.228 0.492 0.228Q0.545 0.228 0.578 0.256Q0.610 0.284 0.610 0.329Q0.610 0.408 0.527 0.451Q0.580 0.468 0.612 0.506Q0.645 0.544 0.645 0.590Q0.645 0.651 0.602 0.691Q0.559 0.730 0.493 0.730Q0.451 0.730 0.416 0.717V0.844ZM0.439 0.441H0.450Q0.490 0.441 0.520 0.409Q0.549 0.377 0.549 0.334Q0.549 0.306 0.533 0.290Q0.516 0.274 0.488 0.274Q0.416 0.274 0.416 0.388V0.664L0.427 0.669Q0.460 0.684 0.492 0.684Q0.531 0.684 0.557 0.658Q0.584 0.631 0.584 0.593Q0.584 0.545 0.547 0.516Q0.511 0.487 0.451 0.487H0.439Z" fill="black"/>
</svg>
