<svg xmlns="http://www.w3.org/2000/svg" viewBox="0 0 1 1" preserveAspectRatio="xMidYMid meet">
  <path d="M0.465 0.421Q0.409 0.392 0.384 0.366Q0.359 0.341 0.359 0.312Q0.359 0.273 0.397 0.250Q0.435 0.228 0.503 0.228Q0.546 0.228 0.582 0.237V0.288Q0.542 0.274 0.496 0.274Q0.462 0.274 0.441 0.283Q0.420 0.292 0.420 0.307Q0.420 0.330 0.475 0.362L0.504 0.379L0.537 0.399Q0.598 0.436 0.625 0.476Q0.652 0.516 0.652 0.570Q0.652 0.640 0.609 0.685Q0.567 0.730 0.500 0.730Q0.435 0.730 0.391 0.686Q0.348 0.642 0.348 0.576Q0.348 0.467 0.465 0.421ZM0.510 0.451Q0.413 0.485 0.413 0.577Q0.413 0.623 0.438 0.654Q0.464 0.684 0.502 0.684Q0.539 0.684 0.563 0.652Q0.587 0.620 0.587 0.572Q0.587 0.531 0.570 0.504Q0.553 0.478 0.510 0.451Z" fill="black"/>
</svg>
