<svg xmlns="http://www.w3.org/2000/svg" viewBox="0 0 1 1" preserveAspectRatio="xMidYMid meet">
  <path d="M0.502 0.849V0.799Q0.540 0.806 0.563 0.806Q0.641 0.806 0.641 0.759Q0.641 0.722 0.598 0.722H0.529Q0.442 0.722 0.400 0.684Q0.357 0.646 0.357 0.568Q0.357 0.516 0.382 0.455Q0.407 0.395 0.446 0.352Q0.429 0.353 0.422 0.353Q0.369 0.353 0.310 0.331V0.277Q0.380 0.314 0.462 0.314L0.484 0.314Q0.577 0.234 0.665 0.228L0.679 0.270Q0.649 0.300 0.601 0.322Q0.553 0.344 0.502 0.352Q0.465 0.402 0.443 0.459Q0.422 0.516 0.422 0.565Q0.422 0.621 0.449 0.645Q0.476 0.669 0.539 0.669H0.567Q0.690 0.669 0.690 0.754Q0.690 0.800 0.652 0.826Q0.613 0.852 0.544 0.852Q0.529 0.852 0.502 0.849Z" fill="black"/>
</svg>
