<svg xmlns="http://www.w3.org/2000/svg" viewBox="0 0 1 1" preserveAspectRatio="xMidYMid meet">
  <path d="M0.348 0.483Q0.348 0.358 0.387 0.293Q0.426 0.228 0.500 0.228Q0.574 0.228 0.613 0.293Q0.652 0.357 0.652 0.479Q0.652 0.601 0.613 0.665Q0.573 0.730 0.500 0.730Q0.426 0.730 0.387 0.667Q0.348 0.603 0.348 0.483ZM0.413 0.452H0.587Q0.587 0.373 0.563 0.323Q0.539 0.274 0.500 0.274Q0.461 0.274 0.437 0.323Q0.413 0.373 0.413 0.452ZM0.587 0.498H0.413Q0.413 0.583 0.436 0.634Q0.460 0.684 0.500 0.684Q0.539 0.684 0.563 0.633Q0.587 0.581 0.587 0.498Z" fill="black"/>
</svg>
