<svg xmlns="http://www.w3.org/2000/svg" viewBox="0 0 1 1" preserveAspectRatio="xMidYMid meet">
  <path d="M0.490 0.849V0.799Q0.527 0.806 0.554 0.806Q0.631 0.806 0.631 0.761Q0.631 0.722 0.562 0.722H0.530Q0.447 0.722 0.407 0.686Q0.367 0.650 0.367 0.598Q0.367 0.556 0.396 0.520Q0.426 0.484 0.478 0.464Q0.440 0.450 0.417 0.421Q0.393 0.392 0.393 0.359Q0.393 0.332 0.416 0.300Q0.372 0.300 0.321 0.280V0.230Q0.373 0.255 0.453 0.260L0.466 0.261Q0.522 0.228 0.582 0.228Q0.603 0.228 0.625 0.232L0.635 0.261Q0.581 0.301 0.499 0.301L0.475 0.300Q0.454 0.324 0.454 0.354Q0.454 0.397 0.490 0.423Q0.526 0.449 0.585 0.449H0.625V0.494H0.584Q0.537 0.494 0.515 0.500Q0.493 0.505 0.470 0.522Q0.432 0.551 0.432 0.596Q0.432 0.631 0.456 0.650Q0.481 0.669 0.527 0.669H0.557Q0.620 0.669 0.649 0.690Q0.679 0.710 0.679 0.754Q0.679 0.799 0.641 0.825Q0.602 0.851 0.537 0.851Q0.527 0.851 0.510 0.850Z" fill="black"/>
</svg>
