<svg xmlns="http://www.w3.org/2000/svg" viewBox="0 0 1 1" preserveAspectRatio="xMidYMid meet">
  <path d="M0.355 0.844V0.594Q0.355 0.475 0.402 0.425Q0.443 0.380 0.509 0.380Q0.572 0.380 0.608 0.418Q0.645 0.457 0.645 0.524Q0.645 0.610 0.596 0.666Q0.548 0.722 0.474 0.722Q0.446 0.722 0.416 0.712V0.844ZM0.416 0.653Q0.445 0.677 0.481 0.677Q0.525 0.677 0.555 0.636Q0.584 0.596 0.584 0.535Q0.584 0.486 0.561 0.456Q0.538 0.426 0.501 0.426Q0.461 0.426 0.438 0.463Q0.416 0.499 0.416 0.567Z" fill="black"/>
</svg>
