<svg xmlns="http://www.w3.org/2000/svg" viewBox="0 0 1 1" preserveAspectRatio="xMidYMid meet">
  <path d="M0.472 0.801Q0.502 0.806 0.530 0.806Q0.611 0.806 0.611 0.760Q0.611 0.722 0.537 0.722H0.506Q0.459 0.722 0.432 0.713Q0.404 0.703 0.380 0.679Q0.341 0.640 0.341 0.578Q0.341 0.493 0.404 0.437Q0.466 0.380 0.560 0.380Q0.596 0.380 0.624 0.387V0.434Q0.592 0.426 0.558 0.426Q0.484 0.426 0.444 0.464Q0.404 0.502 0.404 0.573Q0.404 0.624 0.430 0.646Q0.457 0.669 0.515 0.669H0.537Q0.659 0.669 0.659 0.754Q0.659 0.799 0.621 0.826Q0.583 0.852 0.518 0.852Q0.496 0.852 0.472 0.848Z" fill="black"/>
</svg>
