<svg xmlns="http://www.w3.org/2000/svg" viewBox="0 0 1 1" preserveAspectRatio="xMidYMid meet">
  <path d="M0.505 0.388H0.705V0.441H0.581Q0.614 0.493 0.614 0.555Q0.614 0.636 0.571 0.683Q0.529 0.730 0.455 0.730Q0.381 0.730 0.338 0.683Q0.295 0.636 0.295 0.555Q0.295 0.475 0.338 0.428Q0.381 0.380 0.454 0.380Q0.474 0.380 0.505 0.388ZM0.455 0.684Q0.500 0.684 0.525 0.651Q0.550 0.617 0.550 0.555Q0.550 0.493 0.525 0.460Q0.500 0.426 0.455 0.426Q0.409 0.426 0.385 0.460Q0.360 0.493 0.360 0.555Q0.360 0.617 0.385 0.651Q0.409 0.684 0.455 0.684Z" fill="black"/>
</svg>
