<svg xmlns="http://www.w3.org/2000/svg" viewBox="0 0 1 1" preserveAspectRatio="xMidYMid meet">
  <path d="M0.470 0.844V0.712Q0.388 0.712 0.340 0.670Q0.291 0.627 0.291 0.556Q0.291 0.484 0.340 0.442Q0.388 0.399 0.470 0.399V0.236H0.530V0.399Q0.612 0.399 0.660 0.442Q0.709 0.484 0.709 0.556Q0.709 0.627 0.660 0.670Q0.612 0.712 0.530 0.712V0.844ZM0.470 0.446Q0.412 0.449 0.382 0.478Q0.352 0.506 0.352 0.556Q0.352 0.605 0.384 0.636Q0.417 0.666 0.470 0.666ZM0.530 0.446V0.666Q0.583 0.666 0.616 0.636Q0.648 0.605 0.648 0.556Q0.648 0.506 0.618 0.478Q0.588 0.449 0.530 0.446Z" fill="black"/>
</svg>
