<svg xmlns="http://www.w3.org/2000/svg" viewBox="0 0 1 1" preserveAspectRatio="xMidYMid meet">
  <path d="M0.500 0.634Q0.461 0.730 0.388 0.730Q0.328 0.730 0.290 0.684Q0.251 0.637 0.251 0.564Q0.251 0.521 0.266 0.472Q0.280 0.423 0.303 0.388H0.367Q0.342 0.423 0.326 0.471Q0.310 0.520 0.310 0.558Q0.310 0.611 0.332 0.646Q0.354 0.680 0.388 0.680Q0.419 0.680 0.441 0.653Q0.464 0.626 0.472 0.579Q0.458 0.541 0.458 0.501Q0.458 0.458 0.472 0.420H0.528Q0.542 0.458 0.542 0.501Q0.542 0.541 0.528 0.579Q0.536 0.626 0.559 0.653Q0.581 0.680 0.612 0.680Q0.646 0.680 0.668 0.645Q0.691 0.610 0.691 0.558Q0.691 0.520 0.674 0.471Q0.658 0.423 0.633 0.388H0.697Q0.720 0.423 0.734 0.472Q0.749 0.521 0.749 0.564Q0.749 0.637 0.710 0.684Q0.672 0.730 0.612 0.730Q0.539 0.730 0.500 0.634Z" fill="black"/>
</svg>
