<svg xmlns="http://www.w3.org/2000/svg" viewBox="0 0 1 1" preserveAspectRatio="xMidYMid meet">
  <path d="M0.444 0.367Q0.475 0.388 0.504 0.388Q0.532 0.388 0.551 0.368Q0.569 0.348 0.569 0.319Q0.569 0.299 0.557 0.286Q0.544 0.274 0.526 0.274Q0.502 0.274 0.479 0.299Q0.457 0.324 0.444 0.367ZM0.436 0.409Q0.424 0.451 0.424 0.502Q0.424 0.528 0.429 0.550Q0.476 0.504 0.528 0.504Q0.573 0.504 0.604 0.534Q0.634 0.563 0.634 0.608Q0.634 0.658 0.596 0.694Q0.558 0.730 0.506 0.730Q0.442 0.730 0.404 0.668Q0.366 0.605 0.366 0.500Q0.366 0.385 0.414 0.306Q0.463 0.228 0.535 0.228Q0.576 0.228 0.601 0.253Q0.626 0.278 0.626 0.317Q0.626 0.365 0.591 0.399Q0.555 0.433 0.507 0.433Q0.469 0.433 0.436 0.409ZM0.436 0.596Q0.444 0.635 0.467 0.660Q0.489 0.684 0.518 0.684Q0.541 0.684 0.558 0.663Q0.575 0.642 0.575 0.614Q0.575 0.586 0.558 0.568Q0.541 0.549 0.516 0.549Q0.468 0.549 0.436 0.596Z" fill="black"/>
</svg>
