<svg xmlns="http://www.w3.org/2000/svg" viewBox="0 0 1 1" preserveAspectRatio="xMidYMid meet">
  <path d="M0.335 0.586H0.391Q0.397 0.598 0.402 0.616L0.408 0.636Q0.422 0.684 0.459 0.684Q0.496 0.684 0.518 0.637Q0.541 0.589 0.541 0.511V0.498H0.476Q0.397 0.498 0.369 0.474Q0.330 0.441 0.330 0.383Q0.330 0.322 0.371 0.275Q0.412 0.228 0.466 0.228Q0.586 0.228 0.607 0.445H0.670V0.498H0.607Q0.607 0.599 0.565 0.665Q0.523 0.730 0.458 0.730Q0.386 0.730 0.360 0.656L0.351 0.628L0.347 0.613Q0.342 0.599 0.335 0.586ZM0.541 0.445V0.436Q0.541 0.363 0.519 0.318Q0.497 0.274 0.461 0.274Q0.431 0.274 0.407 0.306Q0.383 0.339 0.383 0.381Q0.383 0.409 0.400 0.427Q0.410 0.438 0.427 0.441Q0.445 0.445 0.486 0.445Z" fill="black"/>
</svg>
