<svg xmlns="http://www.w3.org/2000/svg" viewBox="0 0 1 1" preserveAspectRatio="xMidYMid meet">
  <path d="M0.469 0.844V0.722L0.460 0.721Q0.401 0.712 0.367 0.697Q0.334 0.681 0.308 0.651Q0.262 0.598 0.262 0.527Q0.262 0.465 0.300 0.423Q0.338 0.380 0.394 0.380Q0.473 0.380 0.500 0.466Q0.526 0.380 0.606 0.380Q0.662 0.380 0.700 0.423Q0.738 0.465 0.738 0.527Q0.738 0.598 0.692 0.651Q0.666 0.681 0.633 0.697Q0.599 0.712 0.540 0.721L0.531 0.722V0.844ZM0.469 0.676V0.557Q0.469 0.428 0.396 0.428Q0.364 0.428 0.344 0.457Q0.323 0.486 0.323 0.530Q0.323 0.562 0.337 0.594Q0.351 0.625 0.373 0.644Q0.406 0.672 0.469 0.676ZM0.531 0.676Q0.594 0.672 0.627 0.644Q0.649 0.625 0.663 0.594Q0.677 0.562 0.677 0.530Q0.677 0.486 0.656 0.457Q0.636 0.428 0.604 0.428Q0.531 0.428 0.531 0.557Z" fill="black"/>
</svg>
