<svg xmlns="http://www.w3.org/2000/svg" viewBox="0 0 1 1" preserveAspectRatio="xMidYMid meet">
  <path d="M0.512 0.660Q0.471 0.730 0.412 0.730Q0.358 0.730 0.322 0.683Q0.286 0.636 0.286 0.567Q0.286 0.498 0.316 0.433H0.306Q0.270 0.433 0.235 0.447V0.399Q0.271 0.388 0.324 0.388H0.765V0.433H0.707Q0.737 0.498 0.737 0.569Q0.737 0.638 0.701 0.684Q0.665 0.730 0.611 0.730Q0.550 0.730 0.512 0.660ZM0.378 0.433Q0.347 0.499 0.347 0.560Q0.347 0.611 0.367 0.644Q0.388 0.677 0.420 0.677Q0.440 0.677 0.459 0.660Q0.479 0.643 0.491 0.614Q0.474 0.579 0.474 0.547Q0.474 0.515 0.489 0.479H0.534Q0.549 0.514 0.549 0.545Q0.549 0.576 0.533 0.614Q0.562 0.675 0.606 0.675Q0.635 0.675 0.655 0.643Q0.676 0.611 0.676 0.565Q0.676 0.504 0.646 0.433Z" fill="black"/>
</svg>
