<svg xmlns="http://www.w3.org/2000/svg" viewBox="0 0 1 1" preserveAspectRatio="xMidYMid meet">
  <path d="M0.490 0.851V0.804Q0.519 0.806 0.540 0.806Q0.638 0.806 0.638 0.759Q0.638 0.738 0.619 0.730Q0.600 0.722 0.551 0.722H0.522Q0.459 0.722 0.430 0.716Q0.401 0.710 0.372 0.690Q0.309 0.645 0.309 0.542Q0.309 0.419 0.386 0.337Q0.463 0.255 0.580 0.255Q0.627 0.255 0.672 0.266V0.316Q0.619 0.300 0.577 0.300Q0.488 0.300 0.430 0.367Q0.371 0.433 0.371 0.534Q0.371 0.605 0.412 0.639Q0.433 0.655 0.455 0.660Q0.477 0.665 0.531 0.665H0.559Q0.628 0.665 0.659 0.686Q0.691 0.708 0.691 0.753Q0.691 0.852 0.533 0.852L0.519 0.851L0.500 0.851Z" fill="black"/>
</svg>
