<svg xmlns="http://www.w3.org/2000/svg" viewBox="0 0 1 1" preserveAspectRatio="xMidYMid meet">
  <path d="M0.388 0.730 0.355 0.709Q0.371 0.641 0.421 0.592Q0.423 0.573 0.423 0.555Q0.423 0.490 0.411 0.465Q0.400 0.441 0.368 0.441Q0.362 0.441 0.355 0.443V0.387Q0.378 0.380 0.393 0.380Q0.433 0.380 0.450 0.416Q0.468 0.452 0.468 0.534V0.550Q0.498 0.519 0.532 0.499Q0.546 0.414 0.615 0.380L0.645 0.403Q0.627 0.470 0.576 0.519Q0.575 0.531 0.575 0.547V0.586Q0.575 0.669 0.628 0.669Q0.632 0.669 0.640 0.668L0.645 0.668V0.722Q0.628 0.730 0.607 0.730Q0.530 0.730 0.530 0.578L0.530 0.561Q0.502 0.585 0.468 0.619Q0.458 0.689 0.388 0.730Z" fill="black"/>
</svg>
