<svg xmlns="http://www.w3.org/2000/svg" viewBox="0 0 1 1" preserveAspectRatio="xMidYMid meet">
  <path d="M0.645 0.791V0.844H0.549Q0.442 0.844 0.399 0.789Q0.355 0.734 0.355 0.599Q0.355 0.530 0.365 0.492Q0.374 0.454 0.398 0.427Q0.440 0.380 0.508 0.380Q0.571 0.380 0.608 0.418Q0.645 0.456 0.645 0.520Q0.645 0.598 0.595 0.650Q0.546 0.703 0.473 0.703Q0.438 0.703 0.408 0.689Q0.411 0.742 0.441 0.767Q0.471 0.791 0.535 0.791ZM0.416 0.638Q0.447 0.658 0.480 0.658Q0.522 0.658 0.551 0.622Q0.580 0.586 0.580 0.532Q0.580 0.484 0.558 0.455Q0.536 0.426 0.499 0.426Q0.461 0.426 0.439 0.461Q0.416 0.495 0.416 0.554Z" fill="black"/>
</svg>
