<svg xmlns="http://www.w3.org/2000/svg" viewBox="0 0 1 1" preserveAspectRatio="xMidYMid meet">
  <path d="M0.563 0.709Q0.508 0.734 0.454 0.734Q0.368 0.734 0.311 0.680Q0.255 0.627 0.255 0.545Q0.255 0.440 0.330 0.354Q0.370 0.308 0.427 0.281Q0.484 0.255 0.543 0.255Q0.629 0.255 0.687 0.310Q0.745 0.366 0.745 0.448Q0.745 0.524 0.699 0.578Q0.652 0.631 0.586 0.631Q0.534 0.631 0.534 0.596Q0.534 0.583 0.541 0.563L0.553 0.524H0.549Q0.494 0.631 0.430 0.631Q0.403 0.631 0.387 0.612Q0.371 0.594 0.371 0.562Q0.371 0.519 0.393 0.469Q0.415 0.420 0.448 0.392Q0.485 0.359 0.533 0.359Q0.542 0.359 0.557 0.360Q0.572 0.361 0.581 0.361H0.623L0.584 0.557Q0.582 0.567 0.582 0.576Q0.582 0.597 0.606 0.597Q0.647 0.597 0.679 0.553Q0.711 0.509 0.711 0.453Q0.711 0.382 0.662 0.336Q0.613 0.289 0.538 0.289Q0.441 0.289 0.365 0.366Q0.289 0.443 0.289 0.542Q0.289 0.611 0.337 0.655Q0.384 0.700 0.459 0.700Q0.508 0.700 0.552 0.677ZM0.557 0.466 0.569 0.406Q0.541 0.395 0.520 0.395Q0.489 0.395 0.469 0.413Q0.448 0.431 0.433 0.471Q0.418 0.511 0.418 0.549Q0.418 0.593 0.444 0.593Q0.463 0.593 0.494 0.558Q0.524 0.523 0.557 0.466Z" fill="black"/>
</svg>
