<svg xmlns="http://www.w3.org/2000/svg" viewBox="0 0 1 1" preserveAspectRatio="xMidYMid meet">
  <path d="M0.361 0.714V0.650Q0.438 0.685 0.488 0.685Q0.526 0.685 0.549 0.665Q0.573 0.645 0.573 0.613Q0.573 0.586 0.557 0.567Q0.542 0.548 0.501 0.525L0.470 0.507Q0.411 0.474 0.388 0.444Q0.364 0.415 0.364 0.376Q0.364 0.323 0.402 0.289Q0.440 0.255 0.499 0.255Q0.552 0.255 0.610 0.272V0.332Q0.538 0.303 0.503 0.303Q0.469 0.303 0.447 0.321Q0.426 0.339 0.426 0.366Q0.426 0.389 0.442 0.406Q0.458 0.424 0.500 0.448L0.533 0.467Q0.592 0.500 0.615 0.530Q0.639 0.560 0.639 0.602Q0.639 0.662 0.595 0.698Q0.551 0.734 0.479 0.734Q0.433 0.734 0.361 0.714Z" fill="black"/>
</svg>
