<svg xmlns="http://www.w3.org/2000/svg" viewBox="0 0 1 1" preserveAspectRatio="xMidYMid meet">
  <path d="M0.581 0.675H0.604Q0.670 0.675 0.696 0.656Q0.729 0.632 0.729 0.588Q0.729 0.546 0.701 0.528Q0.674 0.509 0.612 0.509H0.581ZM0.206 0.722V0.665Q0.273 0.656 0.293 0.595Q0.315 0.531 0.315 0.295V0.266H0.581V0.462H0.616Q0.670 0.462 0.694 0.466Q0.719 0.471 0.742 0.485Q0.794 0.518 0.794 0.584Q0.794 0.659 0.734 0.697Q0.694 0.722 0.599 0.722H0.516V0.314H0.379V0.324Q0.379 0.532 0.356 0.606Q0.338 0.663 0.304 0.690Q0.269 0.716 0.206 0.722Z" fill="black"/>
</svg>
