<svg xmlns="http://www.w3.org/2000/svg" viewBox="0 0 1 1" preserveAspectRatio="xMidYMid meet">
  <path d="M0.417 0.511V0.722H0.352V0.266H0.417V0.463H0.420Q0.445 0.463 0.458 0.451Q0.471 0.438 0.503 0.384L0.523 0.350L0.539 0.322Q0.557 0.291 0.575 0.278Q0.594 0.266 0.622 0.266L0.630 0.266V0.314Q0.626 0.313 0.625 0.313Q0.601 0.313 0.575 0.360L0.563 0.382L0.553 0.398Q0.530 0.440 0.517 0.456Q0.504 0.472 0.485 0.484Q0.518 0.495 0.537 0.516Q0.556 0.537 0.583 0.593L0.599 0.625Q0.602 0.631 0.616 0.661Q0.633 0.696 0.648 0.722H0.580L0.575 0.713L0.555 0.672L0.529 0.619Q0.489 0.539 0.448 0.511ZM0.439 0.228 0.514 0.129H0.584L0.485 0.228Z" fill="black"/>
</svg>
