<svg xmlns="http://www.w3.org/2000/svg" viewBox="0 0 1 1" preserveAspectRatio="xMidYMid meet">
  <path d="M0.531 0.508V0.722H0.469V0.508H0.443Q0.415 0.522 0.399 0.551Q0.377 0.591 0.344 0.677Q0.331 0.711 0.326 0.722H0.259L0.266 0.707Q0.285 0.665 0.300 0.628L0.314 0.594Q0.337 0.538 0.356 0.516Q0.375 0.493 0.408 0.483Q0.391 0.473 0.380 0.458Q0.369 0.443 0.349 0.401L0.337 0.377Q0.318 0.337 0.307 0.325Q0.296 0.314 0.278 0.314V0.266L0.284 0.266Q0.316 0.266 0.337 0.286Q0.359 0.305 0.385 0.358L0.394 0.378L0.407 0.402Q0.425 0.439 0.437 0.451Q0.448 0.462 0.469 0.463V0.266H0.531V0.463Q0.552 0.460 0.564 0.449Q0.577 0.437 0.593 0.402Q0.602 0.386 0.606 0.378L0.615 0.358Q0.641 0.305 0.663 0.286Q0.684 0.266 0.716 0.266L0.722 0.266V0.314Q0.704 0.314 0.693 0.325Q0.682 0.337 0.663 0.377L0.651 0.401Q0.631 0.443 0.620 0.458Q0.609 0.473 0.592 0.483Q0.625 0.493 0.644 0.516Q0.663 0.538 0.686 0.594L0.700 0.628Q0.715 0.665 0.734 0.707L0.741 0.722H0.674Q0.669 0.710 0.656 0.677Q0.624 0.593 0.601 0.551Q0.591 0.531 0.582 0.523Q0.573 0.516 0.553 0.508Z" fill="black"/>
</svg>
