<svg xmlns="http://www.w3.org/2000/svg" viewBox="0 0 1 1" preserveAspectRatio="xMidYMid meet">
  <path d="M0.353 0.715V0.658Q0.424 0.684 0.476 0.684Q0.523 0.684 0.551 0.661Q0.579 0.638 0.579 0.598Q0.579 0.552 0.542 0.527Q0.506 0.503 0.435 0.503H0.426V0.457H0.435Q0.498 0.457 0.533 0.434Q0.567 0.411 0.567 0.369Q0.567 0.303 0.473 0.303Q0.424 0.303 0.360 0.326V0.274Q0.419 0.255 0.477 0.255Q0.552 0.255 0.593 0.283Q0.634 0.312 0.634 0.364Q0.634 0.445 0.535 0.475Q0.588 0.483 0.618 0.514Q0.647 0.546 0.647 0.593Q0.647 0.653 0.599 0.693Q0.550 0.734 0.478 0.734Q0.413 0.734 0.353 0.715Z" fill="black"/>
</svg>
