<svg xmlns="http://www.w3.org/2000/svg" viewBox="0 0 1 1" preserveAspectRatio="xMidYMid meet">
  <path d="M0.361 0.722V0.266H0.479Q0.548 0.266 0.584 0.292Q0.621 0.318 0.621 0.367Q0.621 0.406 0.596 0.437Q0.572 0.468 0.527 0.485Q0.639 0.519 0.639 0.608Q0.639 0.648 0.614 0.680Q0.596 0.703 0.569 0.713Q0.543 0.722 0.495 0.722ZM0.425 0.674H0.438Q0.510 0.674 0.531 0.665Q0.571 0.648 0.571 0.602Q0.571 0.561 0.534 0.535Q0.498 0.508 0.443 0.508H0.425ZM0.425 0.467H0.446Q0.498 0.467 0.526 0.444Q0.555 0.422 0.555 0.381Q0.555 0.315 0.450 0.315H0.425Z" fill="black"/>
</svg>
