<svg xmlns="http://www.w3.org/2000/svg" viewBox="0 0 1 1" preserveAspectRatio="xMidYMid meet">
  <path d="M0.470 0.722V0.654H0.464Q0.398 0.654 0.349 0.607Q0.300 0.560 0.300 0.496Q0.300 0.427 0.349 0.381Q0.398 0.335 0.470 0.335V0.266H0.530V0.335Q0.602 0.335 0.651 0.381Q0.700 0.427 0.700 0.496Q0.700 0.560 0.651 0.607Q0.602 0.654 0.536 0.654H0.530V0.722ZM0.470 0.382Q0.420 0.386 0.392 0.416Q0.365 0.446 0.365 0.497Q0.365 0.545 0.394 0.576Q0.424 0.606 0.470 0.606ZM0.530 0.382V0.606Q0.576 0.606 0.606 0.576Q0.635 0.545 0.635 0.497Q0.635 0.446 0.608 0.416Q0.581 0.386 0.530 0.382Z" fill="black"/>
</svg>
