<svg xmlns="http://www.w3.org/2000/svg" viewBox="0 0 1 1" preserveAspectRatio="xMidYMid meet">
  <path d="M0.242 0.722V0.266H0.307V0.470H0.379Q0.386 0.367 0.435 0.311Q0.485 0.255 0.568 0.255Q0.656 0.255 0.707 0.319Q0.758 0.383 0.758 0.494Q0.758 0.605 0.707 0.669Q0.656 0.734 0.568 0.734Q0.485 0.734 0.435 0.676Q0.384 0.619 0.379 0.518H0.307V0.722ZM0.568 0.686Q0.625 0.686 0.657 0.635Q0.690 0.584 0.690 0.494Q0.690 0.404 0.657 0.353Q0.625 0.302 0.568 0.302Q0.511 0.302 0.479 0.353Q0.447 0.404 0.447 0.494Q0.447 0.584 0.479 0.635Q0.511 0.686 0.568 0.686Z" fill="black"/>
</svg>
