<svg xmlns="http://www.w3.org/2000/svg" viewBox="0 0 1 1" preserveAspectRatio="xMidYMid meet">
  <path d="M0.598 0.529H0.556Q0.513 0.572 0.452 0.672Q0.444 0.686 0.429 0.709L0.421 0.722H0.338Q0.364 0.692 0.388 0.653L0.402 0.632L0.410 0.620L0.428 0.592Q0.464 0.538 0.498 0.516Q0.451 0.507 0.421 0.472Q0.391 0.438 0.391 0.393Q0.391 0.333 0.435 0.295Q0.454 0.278 0.480 0.272Q0.507 0.266 0.559 0.266H0.662V0.722H0.598ZM0.598 0.314H0.559Q0.509 0.314 0.487 0.332Q0.459 0.356 0.459 0.394Q0.459 0.437 0.488 0.459Q0.518 0.481 0.576 0.481H0.598Z" fill="black"/>
</svg>
