<svg xmlns="http://www.w3.org/2000/svg" viewBox="0 0 1 1" preserveAspectRatio="xMidYMid meet">
  <path d="M0.551 0.680Q0.496 0.730 0.446 0.730Q0.404 0.730 0.377 0.704Q0.349 0.678 0.349 0.638Q0.349 0.583 0.395 0.554Q0.441 0.524 0.528 0.524H0.542V0.484Q0.542 0.426 0.481 0.426Q0.434 0.426 0.378 0.455V0.405Q0.440 0.380 0.494 0.380Q0.550 0.380 0.576 0.406Q0.603 0.431 0.603 0.484V0.636Q0.603 0.688 0.635 0.688Q0.639 0.688 0.646 0.687L0.651 0.720Q0.630 0.730 0.605 0.730Q0.563 0.730 0.551 0.680ZM0.542 0.647V0.560L0.522 0.560Q0.472 0.560 0.441 0.578Q0.410 0.597 0.410 0.628Q0.410 0.650 0.425 0.665Q0.441 0.680 0.463 0.680Q0.501 0.680 0.542 0.647Z" fill="black"/>
</svg>
