<svg xmlns="http://www.w3.org/2000/svg" viewBox="0 0 1 1" preserveAspectRatio="xMidYMid meet">
  <path d="M0.406 0.461Q0.452 0.388 0.528 0.388Q0.585 0.388 0.620 0.433Q0.655 0.478 0.655 0.552Q0.655 0.632 0.612 0.681Q0.569 0.730 0.499 0.730Q0.345 0.730 0.345 0.505Q0.345 0.364 0.388 0.300Q0.430 0.236 0.524 0.236H0.537Q0.583 0.236 0.619 0.219V0.268Q0.590 0.281 0.545 0.281H0.537Q0.470 0.281 0.441 0.320Q0.413 0.359 0.406 0.461ZM0.406 0.504 0.406 0.514Q0.406 0.684 0.502 0.684Q0.543 0.684 0.567 0.650Q0.590 0.615 0.590 0.556Q0.590 0.443 0.511 0.443Q0.455 0.443 0.406 0.504Z" fill="black"/>
</svg>
