<svg xmlns="http://www.w3.org/2000/svg" viewBox="0 0 1 1" preserveAspectRatio="xMidYMid meet">
  <path d="M0.379 0.716V0.664Q0.427 0.683 0.478 0.683Q0.513 0.683 0.535 0.667Q0.557 0.651 0.557 0.625Q0.557 0.564 0.460 0.564H0.452V0.524H0.462Q0.549 0.524 0.549 0.475Q0.549 0.427 0.471 0.427Q0.432 0.427 0.385 0.443V0.394Q0.429 0.380 0.482 0.380Q0.543 0.380 0.577 0.402Q0.611 0.423 0.611 0.462Q0.611 0.510 0.549 0.543Q0.621 0.565 0.621 0.625Q0.621 0.670 0.580 0.700Q0.538 0.730 0.476 0.730Q0.435 0.730 0.379 0.716Z" fill="black"/>
</svg>
