<svg xmlns="http://www.w3.org/2000/svg" viewBox="0 0 1 1" preserveAspectRatio="xMidYMid meet">
  <path d="M0.437 0.580V0.722H0.376V0.388H0.437V0.534L0.442 0.534Q0.465 0.533 0.474 0.525Q0.484 0.518 0.496 0.496L0.506 0.476L0.513 0.462Q0.535 0.415 0.553 0.401Q0.570 0.388 0.608 0.388V0.433Q0.590 0.433 0.581 0.442Q0.572 0.450 0.557 0.481L0.551 0.493L0.544 0.510Q0.530 0.538 0.500 0.554Q0.525 0.563 0.538 0.577Q0.551 0.591 0.573 0.633L0.585 0.656Q0.606 0.696 0.624 0.722H0.557Q0.547 0.704 0.537 0.686L0.521 0.656Q0.489 0.599 0.467 0.580Z" fill="black"/>
</svg>
