<svg xmlns="http://www.w3.org/2000/svg" viewBox="0 0 1 1" preserveAspectRatio="xMidYMid meet">
  <path d="M0.470 0.844V0.700Q0.441 0.730 0.404 0.730Q0.352 0.730 0.318 0.681Q0.283 0.631 0.283 0.557Q0.283 0.482 0.318 0.431Q0.352 0.380 0.403 0.380Q0.447 0.380 0.470 0.410V0.266H0.531V0.410Q0.553 0.380 0.597 0.380Q0.648 0.380 0.682 0.431Q0.717 0.482 0.717 0.557Q0.717 0.631 0.682 0.681Q0.648 0.730 0.597 0.730Q0.559 0.730 0.531 0.700V0.844ZM0.470 0.444Q0.445 0.430 0.422 0.430Q0.387 0.430 0.366 0.465Q0.344 0.500 0.344 0.556Q0.344 0.612 0.366 0.646Q0.388 0.680 0.423 0.680Q0.443 0.680 0.470 0.666ZM0.531 0.444V0.666Q0.557 0.680 0.577 0.680Q0.612 0.680 0.634 0.646Q0.656 0.612 0.656 0.556Q0.656 0.500 0.634 0.465Q0.613 0.430 0.578 0.430Q0.555 0.430 0.531 0.444Z" fill="black"/>
</svg>
