<svg xmlns="http://www.w3.org/2000/svg" viewBox="0 0 1 1" preserveAspectRatio="xMidYMid meet">
  <path d="M0.477 0.555Q0.477 0.617 0.499 0.651Q0.521 0.684 0.561 0.684Q0.601 0.684 0.623 0.651Q0.645 0.617 0.645 0.555Q0.645 0.493 0.623 0.459Q0.601 0.426 0.561 0.426Q0.521 0.426 0.499 0.459Q0.477 0.493 0.477 0.555ZM0.414 0.578H0.351V0.722H0.291V0.388H0.351V0.532H0.414Q0.420 0.461 0.459 0.421Q0.498 0.380 0.561 0.380Q0.629 0.380 0.669 0.428Q0.709 0.475 0.709 0.555Q0.709 0.635 0.669 0.683Q0.629 0.730 0.561 0.730Q0.498 0.730 0.459 0.690Q0.420 0.650 0.414 0.578Z" fill="black"/>
</svg>
