<svg xmlns="http://www.w3.org/2000/svg" viewBox="0 0 1 1" preserveAspectRatio="xMidYMid meet">
  <path d="M0.394 0.722V0.373H0.333V0.334H0.394V0.236H0.454V0.334H0.569V0.373H0.454V0.504Q0.502 0.433 0.572 0.433Q0.616 0.433 0.641 0.461Q0.667 0.488 0.667 0.535V0.751Q0.667 0.798 0.641 0.825Q0.615 0.852 0.568 0.852Q0.546 0.852 0.523 0.845V0.798Q0.542 0.806 0.561 0.806Q0.586 0.806 0.596 0.791Q0.606 0.775 0.606 0.739V0.555Q0.606 0.517 0.596 0.502Q0.585 0.486 0.559 0.486Q0.504 0.486 0.454 0.559V0.722Z" fill="black"/>
</svg>
