<svg xmlns="http://www.w3.org/2000/svg" viewBox="0 0 1 1" preserveAspectRatio="xMidYMid meet">
  <path d="M0.388 0.711V0.655Q0.447 0.684 0.491 0.684Q0.517 0.684 0.535 0.670Q0.552 0.656 0.552 0.635Q0.552 0.604 0.503 0.583L0.468 0.568Q0.389 0.536 0.389 0.474Q0.389 0.431 0.420 0.405Q0.451 0.380 0.505 0.380Q0.533 0.380 0.575 0.388L0.587 0.390V0.441Q0.536 0.426 0.506 0.426Q0.480 0.426 0.464 0.437Q0.448 0.449 0.448 0.468Q0.448 0.496 0.492 0.515L0.522 0.527Q0.571 0.548 0.592 0.571Q0.612 0.594 0.612 0.629Q0.612 0.673 0.578 0.702Q0.543 0.730 0.489 0.730Q0.447 0.730 0.388 0.711Z" fill="black"/>
</svg>
