<svg xmlns="http://www.w3.org/2000/svg" viewBox="0 0 1 1" preserveAspectRatio="xMidYMid meet">
  <path d="M0.513 0.473 0.649 0.314H0.352L0.487 0.473ZM0.530 0.508V0.722H0.470V0.508H0.447Q0.418 0.522 0.402 0.551Q0.381 0.591 0.348 0.677Q0.335 0.711 0.330 0.722H0.263L0.270 0.707Q0.288 0.665 0.304 0.628L0.318 0.594Q0.343 0.532 0.366 0.508Q0.389 0.485 0.430 0.479L0.289 0.314V0.266H0.711V0.314L0.570 0.479Q0.611 0.485 0.634 0.508Q0.657 0.532 0.682 0.594L0.696 0.628Q0.712 0.665 0.730 0.707L0.737 0.722H0.671Q0.665 0.711 0.652 0.677Q0.620 0.592 0.598 0.551Q0.582 0.522 0.553 0.508Z" fill="black"/>
</svg>
