<svg xmlns="http://www.w3.org/2000/svg" viewBox="0 0 1 1" preserveAspectRatio="xMidYMid meet">
  <path d="M0.502 0.540H0.510L0.616 0.433H0.396ZM0.707 0.722H0.641L0.637 0.714L0.623 0.687Q0.611 0.664 0.603 0.651Q0.582 0.614 0.581 0.612Q0.565 0.583 0.551 0.574H0.530V0.722H0.470V0.574H0.449Q0.435 0.583 0.419 0.612Q0.418 0.614 0.397 0.651Q0.389 0.664 0.377 0.687L0.363 0.714L0.358 0.722H0.293Q0.307 0.700 0.318 0.678Q0.330 0.655 0.332 0.651L0.348 0.621L0.361 0.598Q0.379 0.565 0.413 0.553L0.433 0.548L0.318 0.433V0.388H0.678V0.433L0.563 0.548Q0.617 0.557 0.639 0.598L0.651 0.621L0.668 0.651Q0.670 0.655 0.682 0.678Q0.693 0.700 0.707 0.722Z" fill="black"/>
</svg>
