<svg xmlns="http://www.w3.org/2000/svg" viewBox="0 0 1 1" preserveAspectRatio="xMidYMid meet">
  <path d="M0.512 0.508V0.722H0.451V0.508H0.424Q0.396 0.522 0.380 0.551Q0.358 0.591 0.325 0.677Q0.312 0.711 0.307 0.722H0.241L0.247 0.707Q0.266 0.665 0.281 0.628L0.296 0.594Q0.318 0.538 0.337 0.516Q0.357 0.493 0.389 0.483Q0.372 0.473 0.361 0.458Q0.350 0.443 0.330 0.401L0.319 0.377Q0.299 0.337 0.288 0.325Q0.277 0.314 0.259 0.314V0.266L0.265 0.266Q0.297 0.266 0.318 0.286Q0.340 0.305 0.366 0.358L0.376 0.378L0.388 0.402Q0.406 0.439 0.418 0.451Q0.430 0.462 0.451 0.463V0.266H0.512V0.463Q0.533 0.460 0.546 0.449Q0.558 0.437 0.575 0.402Q0.583 0.386 0.587 0.378L0.597 0.358Q0.623 0.305 0.644 0.286Q0.666 0.266 0.697 0.266L0.704 0.266V0.314Q0.686 0.314 0.675 0.325Q0.663 0.337 0.644 0.377L0.633 0.401Q0.612 0.443 0.602 0.458Q0.591 0.473 0.574 0.483Q0.606 0.493 0.625 0.516Q0.644 0.538 0.667 0.594L0.681 0.628Q0.694 0.658 0.696 0.663L0.698 0.669H0.759V0.814H0.698V0.722H0.655Q0.650 0.711 0.637 0.677Q0.605 0.592 0.583 0.551Q0.567 0.522 0.538 0.508Z" fill="black"/>
</svg>
