<svg xmlns="http://www.w3.org/2000/svg" viewBox="0 0 1 1" preserveAspectRatio="xMidYMid meet">
  <path d="M0.454 0.722V0.574H0.426Q0.411 0.583 0.396 0.612Q0.395 0.614 0.373 0.651Q0.366 0.664 0.354 0.687L0.340 0.714L0.335 0.722H0.270Q0.284 0.700 0.295 0.678Q0.307 0.655 0.309 0.651L0.325 0.621L0.337 0.598Q0.356 0.565 0.390 0.553Q0.366 0.539 0.347 0.499L0.341 0.486Q0.339 0.481 0.334 0.470Q0.325 0.449 0.318 0.442Q0.312 0.435 0.298 0.433V0.388H0.301Q0.328 0.388 0.344 0.402Q0.360 0.417 0.378 0.458L0.385 0.474Q0.400 0.508 0.411 0.520Q0.422 0.532 0.439 0.532L0.454 0.532V0.388H0.515V0.532L0.530 0.532Q0.546 0.532 0.557 0.520Q0.568 0.508 0.583 0.474L0.591 0.458Q0.610 0.416 0.625 0.402Q0.640 0.388 0.667 0.388H0.671V0.433Q0.657 0.435 0.650 0.442Q0.644 0.449 0.635 0.470Q0.630 0.481 0.628 0.486L0.622 0.499Q0.603 0.539 0.578 0.553Q0.613 0.565 0.631 0.598L0.643 0.621L0.660 0.651L0.669 0.669H0.730V0.798H0.669V0.722H0.633L0.629 0.714L0.615 0.687Q0.603 0.664 0.595 0.651Q0.573 0.614 0.573 0.612Q0.557 0.583 0.543 0.574H0.515V0.722Z" fill="black"/>
</svg>
