<svg xmlns="http://www.w3.org/2000/svg" viewBox="0 0 1 1" preserveAspectRatio="xMidYMid meet">
  <path d="M0.379 0.716V0.664Q0.427 0.683 0.478 0.683Q0.513 0.683 0.535 0.667Q0.557 0.651 0.557 0.625Q0.557 0.564 0.460 0.564H0.452V0.524H0.462Q0.549 0.524 0.549 0.475Q0.549 0.427 0.471 0.427Q0.432 0.427 0.385 0.443V0.394Q0.429 0.380 0.482 0.380Q0.543 0.380 0.577 0.402Q0.611 0.423 0.611 0.462Q0.611 0.510 0.549 0.543Q0.621 0.565 0.621 0.625Q0.621 0.670 0.580 0.700Q0.538 0.730 0.476 0.730Q0.435 0.730 0.379 0.716ZM0.468 0.722H0.498L0.479 0.756Q0.503 0.756 0.521 0.771Q0.539 0.785 0.539 0.805Q0.539 0.826 0.521 0.841Q0.503 0.855 0.477 0.855Q0.455 0.855 0.432 0.849V0.824Q0.446 0.829 0.465 0.829Q0.496 0.829 0.496 0.806Q0.496 0.776 0.439 0.776Z" fill="black"/>
</svg>
