<svg xmlns="http://www.w3.org/2000/svg" viewBox="0 0 1 1" preserveAspectRatio="xMidYMid meet">
  <path d="M0.563 0.722 0.558 0.713 0.538 0.672 0.512 0.619Q0.473 0.539 0.432 0.511H0.400V0.722H0.335V0.266H0.400V0.463H0.403Q0.429 0.463 0.442 0.451Q0.455 0.438 0.487 0.384L0.506 0.350L0.522 0.322Q0.540 0.291 0.559 0.278Q0.577 0.266 0.605 0.266L0.613 0.266V0.314Q0.610 0.313 0.608 0.313Q0.584 0.313 0.558 0.360L0.546 0.382L0.537 0.398Q0.513 0.440 0.501 0.456Q0.488 0.472 0.469 0.484Q0.502 0.495 0.520 0.516Q0.539 0.537 0.567 0.593L0.583 0.625L0.600 0.661L0.604 0.669H0.665V0.821H0.604V0.722Z" fill="black"/>
</svg>
