<svg xmlns="http://www.w3.org/2000/svg" viewBox="0 0 1 1" preserveAspectRatio="xMidYMid meet">
  <path d="M0.422 0.580V0.722H0.361V0.388H0.422V0.534L0.428 0.534Q0.450 0.533 0.459 0.527Q0.468 0.520 0.481 0.496L0.492 0.476L0.499 0.460Q0.519 0.419 0.537 0.403Q0.556 0.388 0.586 0.388H0.593V0.433Q0.576 0.433 0.565 0.443Q0.554 0.453 0.542 0.481L0.537 0.493Q0.525 0.521 0.515 0.533Q0.506 0.544 0.485 0.554Q0.514 0.566 0.524 0.578Q0.535 0.589 0.559 0.634L0.578 0.669H0.639V0.798H0.578V0.722H0.542Q0.535 0.709 0.524 0.689Q0.513 0.670 0.506 0.656Q0.477 0.603 0.452 0.580Z" fill="black"/>
</svg>
