<svg xmlns="http://www.w3.org/2000/svg" viewBox="0 0 1 1" preserveAspectRatio="xMidYMid meet">
  <path d="M0.379 0.511V0.722H0.314V0.266H0.379V0.463H0.424V0.372H0.462V0.463H0.465Q0.484 0.463 0.498 0.449Q0.511 0.435 0.541 0.384L0.561 0.350L0.577 0.322Q0.595 0.291 0.613 0.278Q0.632 0.266 0.660 0.266L0.667 0.266V0.314Q0.664 0.313 0.663 0.313Q0.639 0.313 0.613 0.360L0.601 0.382L0.591 0.398Q0.568 0.440 0.555 0.456Q0.543 0.472 0.523 0.484Q0.556 0.495 0.575 0.516Q0.594 0.537 0.622 0.593L0.637 0.625Q0.640 0.631 0.654 0.661Q0.671 0.696 0.686 0.722H0.618L0.613 0.713L0.593 0.672L0.567 0.619Q0.527 0.539 0.486 0.511H0.462V0.602H0.424V0.511Z" fill="black"/>
</svg>
