<svg xmlns="http://www.w3.org/2000/svg" viewBox="0 0 1 1" preserveAspectRatio="xMidYMid meet">
  <path d="M0.335 0.722V0.388H0.396V0.534H0.442V0.466H0.480V0.534H0.482Q0.502 0.534 0.514 0.526Q0.526 0.518 0.537 0.496L0.547 0.476L0.554 0.462Q0.576 0.415 0.594 0.401Q0.612 0.388 0.649 0.388V0.433Q0.631 0.433 0.622 0.442Q0.613 0.450 0.598 0.481L0.592 0.493L0.585 0.510Q0.571 0.538 0.541 0.554Q0.566 0.563 0.579 0.577Q0.592 0.591 0.614 0.633L0.626 0.656Q0.647 0.696 0.665 0.722H0.598Q0.588 0.704 0.578 0.686L0.562 0.656Q0.530 0.599 0.508 0.580H0.480V0.648H0.442V0.580H0.396V0.722Z" fill="black"/>
</svg>
