<svg xmlns="http://www.w3.org/2000/svg" viewBox="0 0 1 1" preserveAspectRatio="xMidYMid meet">
  <path d="M0.384 0.722V0.373H0.321V0.327H0.384V0.266H0.448V0.327H0.511V0.373H0.448V0.463H0.451Q0.477 0.463 0.490 0.451Q0.503 0.438 0.535 0.384L0.554 0.350L0.570 0.322Q0.588 0.291 0.607 0.278Q0.625 0.266 0.653 0.266L0.661 0.266V0.314Q0.658 0.313 0.656 0.313Q0.632 0.313 0.606 0.360L0.594 0.382L0.585 0.398Q0.561 0.440 0.549 0.456Q0.536 0.472 0.517 0.484Q0.550 0.495 0.568 0.516Q0.587 0.537 0.615 0.593L0.630 0.625Q0.633 0.631 0.648 0.661Q0.664 0.696 0.679 0.722H0.611L0.606 0.713L0.586 0.672L0.560 0.619Q0.521 0.539 0.479 0.511H0.448V0.722Z" fill="black"/>
</svg>
