<svg xmlns="http://www.w3.org/2000/svg" viewBox="0 0 1 1" preserveAspectRatio="xMidYMid meet">
  <path d="M0.406 0.722V0.350H0.346V0.312H0.406V0.236H0.467V0.312H0.547V0.350H0.467V0.534L0.473 0.534Q0.495 0.533 0.505 0.525Q0.515 0.518 0.526 0.496L0.537 0.476L0.543 0.462Q0.566 0.415 0.583 0.401Q0.601 0.388 0.639 0.388V0.433Q0.620 0.433 0.611 0.442Q0.602 0.450 0.588 0.481L0.582 0.493L0.574 0.510Q0.561 0.538 0.530 0.554Q0.555 0.563 0.568 0.577Q0.582 0.591 0.603 0.633L0.616 0.656Q0.636 0.696 0.654 0.722H0.587Q0.578 0.704 0.568 0.686L0.551 0.656Q0.519 0.599 0.498 0.580H0.467V0.722Z" fill="black"/>
</svg>
