<svg xmlns="http://www.w3.org/2000/svg" viewBox="0 0 1 1" preserveAspectRatio="xMidYMid meet">
  <path d="M0.482 0.580V0.722H0.422V0.433H0.331V0.388H0.482V0.534L0.488 0.534Q0.510 0.533 0.520 0.526Q0.530 0.519 0.541 0.496L0.552 0.476L0.559 0.462Q0.581 0.415 0.599 0.401Q0.616 0.388 0.654 0.388V0.433Q0.636 0.433 0.625 0.443Q0.614 0.454 0.602 0.481L0.597 0.493Q0.579 0.537 0.545 0.554Q0.571 0.563 0.584 0.577Q0.596 0.591 0.619 0.633L0.631 0.656Q0.653 0.697 0.669 0.722H0.602Q0.594 0.705 0.583 0.686L0.567 0.656Q0.537 0.604 0.513 0.580Z" fill="black"/>
</svg>
