<svg xmlns="http://www.w3.org/2000/svg" viewBox="0 0 1 1" preserveAspectRatio="xMidYMid meet">
  <path d="M0.546 0.672Q0.590 0.634 0.590 0.560Q0.590 0.502 0.557 0.502Q0.519 0.502 0.519 0.580Q0.519 0.630 0.546 0.672ZM0.616 0.470Q0.647 0.498 0.647 0.552Q0.647 0.598 0.625 0.640Q0.604 0.681 0.570 0.704Q0.620 0.757 0.675 0.757V0.802Q0.586 0.794 0.527 0.724Q0.503 0.730 0.481 0.730Q0.410 0.730 0.368 0.682Q0.325 0.635 0.325 0.555Q0.325 0.475 0.368 0.428Q0.410 0.380 0.482 0.380Q0.530 0.380 0.566 0.405Q0.603 0.430 0.616 0.470ZM0.555 0.456Q0.531 0.426 0.487 0.426Q0.390 0.426 0.390 0.555Q0.390 0.684 0.485 0.684Q0.490 0.684 0.500 0.684Q0.466 0.621 0.466 0.565Q0.466 0.519 0.490 0.488Q0.513 0.456 0.548 0.456Z" fill="black"/>
</svg>
