<svg xmlns="http://www.w3.org/2000/svg" viewBox="0 0 1 1" preserveAspectRatio="xMidYMid meet">
  <path d="M0.685 0.699Q0.617 0.734 0.537 0.734Q0.431 0.734 0.373 0.671Q0.315 0.609 0.315 0.495Q0.315 0.380 0.374 0.318Q0.433 0.255 0.541 0.255Q0.602 0.255 0.684 0.275V0.336Q0.590 0.303 0.540 0.303Q0.465 0.303 0.425 0.353Q0.384 0.404 0.384 0.495Q0.384 0.583 0.427 0.633Q0.471 0.683 0.546 0.683Q0.611 0.683 0.685 0.643ZM0.521 0.722H0.551L0.533 0.756Q0.557 0.756 0.575 0.771Q0.593 0.785 0.593 0.805Q0.593 0.826 0.575 0.841Q0.557 0.855 0.531 0.855Q0.508 0.855 0.486 0.849V0.824Q0.500 0.829 0.518 0.829Q0.550 0.829 0.550 0.806Q0.550 0.776 0.492 0.776Z" fill="black"/>
</svg>
