<svg xmlns="http://www.w3.org/2000/svg" viewBox="0 0 1 1" preserveAspectRatio="xMidYMid meet">
  <path d="M0.629 0.712Q0.571 0.730 0.528 0.730Q0.460 0.730 0.415 0.680Q0.371 0.630 0.371 0.553Q0.371 0.471 0.415 0.426Q0.459 0.380 0.538 0.380Q0.577 0.380 0.626 0.391V0.442Q0.574 0.427 0.542 0.427Q0.495 0.427 0.467 0.462Q0.439 0.497 0.439 0.555Q0.439 0.611 0.468 0.646Q0.497 0.681 0.544 0.681Q0.585 0.681 0.629 0.660ZM0.521 0.722H0.551L0.532 0.756Q0.556 0.756 0.574 0.771Q0.592 0.785 0.592 0.805Q0.592 0.826 0.574 0.841Q0.556 0.855 0.530 0.855Q0.508 0.855 0.485 0.849V0.824Q0.499 0.829 0.517 0.829Q0.549 0.829 0.549 0.806Q0.549 0.776 0.491 0.776Z" fill="black"/>
</svg>
