<svg xmlns="http://www.w3.org/2000/svg" viewBox="0 0 1 1" preserveAspectRatio="xMidYMid meet">
  <path d="M0.742 0.498H0.447Q0.447 0.577 0.490 0.629Q0.534 0.681 0.600 0.681Q0.669 0.681 0.739 0.647V0.705Q0.673 0.734 0.602 0.734Q0.500 0.734 0.441 0.670Q0.382 0.607 0.382 0.498H0.378Q0.257 0.498 0.257 0.400Q0.257 0.380 0.264 0.355H0.314Q0.305 0.376 0.305 0.400Q0.305 0.428 0.322 0.439Q0.338 0.451 0.379 0.451H0.384Q0.396 0.359 0.448 0.307Q0.499 0.255 0.576 0.255Q0.743 0.255 0.743 0.473ZM0.451 0.451H0.673V0.445Q0.673 0.302 0.574 0.302Q0.526 0.302 0.493 0.342Q0.460 0.382 0.451 0.451ZM0.590 0.722H0.623Q0.584 0.746 0.584 0.777Q0.584 0.807 0.618 0.807Q0.636 0.807 0.647 0.802V0.827Q0.628 0.836 0.604 0.836Q0.576 0.836 0.559 0.823Q0.541 0.809 0.541 0.787Q0.541 0.749 0.590 0.722Z" fill="black"/>
</svg>
