<svg xmlns="http://www.w3.org/2000/svg" viewBox="0 0 1 1" preserveAspectRatio="xMidYMid meet">
  <path d="M0.701 0.565H0.490Q0.503 0.684 0.606 0.684Q0.644 0.684 0.700 0.663V0.712Q0.639 0.730 0.595 0.730Q0.524 0.730 0.478 0.685Q0.433 0.641 0.428 0.565H0.417Q0.299 0.565 0.299 0.471Q0.299 0.448 0.305 0.423H0.351Q0.342 0.443 0.342 0.466Q0.342 0.496 0.359 0.508Q0.375 0.519 0.418 0.519H0.431Q0.442 0.453 0.480 0.417Q0.517 0.380 0.574 0.380Q0.635 0.380 0.668 0.423Q0.701 0.467 0.701 0.546ZM0.492 0.519H0.640Q0.640 0.426 0.570 0.426Q0.500 0.426 0.492 0.519ZM0.575 0.722H0.608Q0.569 0.746 0.569 0.777Q0.569 0.807 0.603 0.807Q0.621 0.807 0.632 0.802V0.827Q0.613 0.836 0.589 0.836Q0.561 0.836 0.544 0.823Q0.526 0.809 0.526 0.787Q0.526 0.749 0.575 0.722Z" fill="black"/>
</svg>
