<svg xmlns="http://www.w3.org/2000/svg" viewBox="0 0 1 1" preserveAspectRatio="xMidYMid meet">
  <path d="M0.531 0.574V0.722H0.469V0.574H0.441Q0.427 0.583 0.412 0.612Q0.411 0.614 0.389 0.651Q0.381 0.664 0.369 0.687L0.355 0.714L0.351 0.722H0.286Q0.299 0.700 0.311 0.678Q0.322 0.655 0.324 0.651L0.341 0.621L0.353 0.598Q0.371 0.565 0.406 0.553Q0.381 0.539 0.363 0.499L0.356 0.486Q0.354 0.481 0.349 0.470Q0.341 0.449 0.334 0.442Q0.327 0.435 0.314 0.433V0.388H0.317Q0.344 0.388 0.359 0.402Q0.375 0.417 0.394 0.458L0.401 0.474Q0.416 0.508 0.427 0.520Q0.438 0.532 0.454 0.532L0.469 0.532V0.388H0.531V0.532L0.546 0.532Q0.562 0.532 0.573 0.520Q0.584 0.508 0.599 0.474L0.606 0.458Q0.625 0.416 0.641 0.402Q0.656 0.388 0.683 0.388H0.686V0.433Q0.673 0.435 0.666 0.442Q0.659 0.449 0.651 0.470Q0.646 0.481 0.644 0.486L0.637 0.499Q0.619 0.539 0.594 0.553Q0.629 0.565 0.647 0.598L0.659 0.621L0.676 0.651Q0.678 0.655 0.689 0.678Q0.701 0.700 0.714 0.722H0.649L0.645 0.714L0.630 0.687Q0.619 0.664 0.611 0.651Q0.589 0.614 0.588 0.612Q0.573 0.583 0.559 0.574ZM0.397 0.236H0.435Q0.445 0.281 0.500 0.281Q0.555 0.281 0.565 0.236H0.603Q0.598 0.277 0.570 0.302Q0.542 0.327 0.500 0.327Q0.458 0.327 0.430 0.302Q0.402 0.277 0.397 0.236Z" fill="black"/>
</svg>
