<svg xmlns="http://www.w3.org/2000/svg" viewBox="0 0 1 1" preserveAspectRatio="xMidYMid meet">
  <path d="M0.355 0.722V0.266H0.420V0.463H0.423Q0.449 0.463 0.462 0.451Q0.475 0.438 0.507 0.384L0.526 0.350L0.542 0.322Q0.560 0.291 0.579 0.278Q0.597 0.266 0.625 0.266L0.633 0.266V0.314Q0.630 0.313 0.628 0.313Q0.604 0.313 0.578 0.360L0.566 0.382L0.557 0.398Q0.524 0.457 0.498 0.478Q0.557 0.478 0.601 0.526Q0.645 0.573 0.645 0.638Q0.645 0.712 0.602 0.763Q0.559 0.814 0.498 0.814Q0.486 0.814 0.471 0.810V0.762Q0.482 0.766 0.492 0.766Q0.531 0.766 0.554 0.732Q0.576 0.699 0.576 0.640Q0.576 0.579 0.539 0.545Q0.502 0.511 0.436 0.511H0.420V0.722Z" fill="black"/>
</svg>
