<svg xmlns="http://www.w3.org/2000/svg" viewBox="0 0 1 1" preserveAspectRatio="xMidYMid meet">
  <path d="M0.380 0.722V0.388H0.441V0.534L0.447 0.534Q0.469 0.533 0.479 0.525Q0.488 0.518 0.500 0.496L0.510 0.476L0.517 0.462Q0.540 0.415 0.557 0.401Q0.574 0.388 0.612 0.388V0.433Q0.594 0.433 0.585 0.442Q0.576 0.450 0.561 0.481L0.556 0.493L0.548 0.510Q0.534 0.539 0.505 0.553Q0.556 0.558 0.588 0.593Q0.620 0.627 0.620 0.676Q0.620 0.734 0.584 0.774Q0.549 0.814 0.498 0.814Q0.489 0.814 0.479 0.812V0.766Q0.491 0.768 0.499 0.768Q0.525 0.768 0.542 0.741Q0.559 0.714 0.559 0.672Q0.559 0.629 0.530 0.604Q0.501 0.580 0.451 0.580H0.441V0.722Z" fill="black"/>
</svg>
