<svg xmlns="http://www.w3.org/2000/svg" viewBox="0 0 1 1" preserveAspectRatio="xMidYMid meet">
  <path d="M0.463 0.563H0.409Q0.424 0.494 0.424 0.463Q0.424 0.439 0.407 0.426Q0.390 0.414 0.341 0.402L0.369 0.350Q0.430 0.360 0.455 0.383Q0.481 0.406 0.481 0.451Q0.481 0.480 0.466 0.549Q0.465 0.553 0.463 0.563ZM0.640 0.563H0.587Q0.601 0.494 0.601 0.463Q0.601 0.439 0.585 0.426Q0.568 0.414 0.519 0.402L0.547 0.350Q0.608 0.360 0.633 0.383Q0.659 0.406 0.659 0.451Q0.659 0.480 0.643 0.549Q0.642 0.553 0.640 0.563Z" fill="black"/>
</svg>
