<svg xmlns="http://www.w3.org/2000/svg" viewBox="0 0 1 1" preserveAspectRatio="xMidYMid meet">
  <path d="M0.422 0.502H0.437Q0.484 0.502 0.484 0.452Q0.484 0.431 0.479 0.409L0.473 0.382Q0.468 0.356 0.468 0.330Q0.468 0.289 0.497 0.264Q0.527 0.239 0.578 0.236V0.281H0.569Q0.548 0.281 0.535 0.292Q0.521 0.303 0.521 0.320Q0.521 0.327 0.525 0.349L0.530 0.380Q0.533 0.401 0.533 0.429Q0.533 0.486 0.488 0.524Q0.533 0.563 0.533 0.621Q0.533 0.649 0.530 0.669L0.525 0.700Q0.521 0.722 0.521 0.730Q0.521 0.746 0.535 0.757Q0.549 0.768 0.569 0.768H0.578V0.814Q0.526 0.810 0.497 0.785Q0.468 0.760 0.468 0.719Q0.468 0.693 0.473 0.667L0.479 0.640Q0.484 0.618 0.484 0.597Q0.484 0.547 0.437 0.547H0.422Z" fill="black"/>
</svg>
