<svg xmlns="http://www.w3.org/2000/svg" viewBox="0 0 1 1" preserveAspectRatio="xMidYMid meet">
  <path d="M0.578 0.547H0.563Q0.516 0.547 0.516 0.597Q0.516 0.618 0.521 0.640L0.527 0.667Q0.532 0.693 0.532 0.719Q0.532 0.760 0.503 0.785Q0.473 0.810 0.422 0.814V0.768H0.431Q0.451 0.768 0.465 0.757Q0.479 0.746 0.479 0.730Q0.479 0.722 0.475 0.700L0.470 0.669Q0.466 0.649 0.466 0.620Q0.466 0.563 0.512 0.524Q0.466 0.486 0.466 0.428Q0.466 0.400 0.470 0.380L0.475 0.349Q0.479 0.327 0.479 0.319Q0.479 0.303 0.465 0.292Q0.451 0.281 0.431 0.281H0.422V0.236Q0.474 0.239 0.503 0.264Q0.532 0.289 0.532 0.331Q0.532 0.356 0.527 0.382L0.521 0.409Q0.516 0.431 0.516 0.453Q0.516 0.502 0.563 0.502H0.578Z" fill="black"/>
</svg>
