<svg xmlns="http://www.w3.org/2000/svg" viewBox="0 0 1 1" preserveAspectRatio="xMidYMid meet">
  <path d="M0.418 0.603 0.357 0.663 0.331 0.637 0.391 0.577Q0.363 0.540 0.363 0.494Q0.363 0.449 0.391 0.412L0.331 0.352L0.357 0.325L0.418 0.385Q0.456 0.357 0.500 0.357Q0.544 0.357 0.582 0.385L0.642 0.325L0.669 0.352L0.609 0.412Q0.637 0.449 0.637 0.494Q0.637 0.540 0.609 0.577L0.669 0.637L0.642 0.663L0.582 0.603Q0.544 0.631 0.500 0.631Q0.456 0.631 0.418 0.603ZM0.500 0.586Q0.538 0.586 0.565 0.559Q0.591 0.533 0.591 0.494Q0.591 0.456 0.565 0.429Q0.538 0.403 0.500 0.403Q0.461 0.403 0.435 0.429Q0.409 0.456 0.409 0.494Q0.409 0.533 0.435 0.559Q0.461 0.586 0.500 0.586Z" fill="black"/>
</svg>
