<svg xmlns="http://www.w3.org/2000/svg" viewBox="0 0 1 1" preserveAspectRatio="xMidYMid meet">
  <path d="M0.364 0.802V0.747Q0.439 0.779 0.491 0.779Q0.531 0.779 0.555 0.764Q0.580 0.749 0.580 0.724Q0.580 0.703 0.567 0.691Q0.554 0.679 0.509 0.660L0.455 0.637Q0.366 0.599 0.366 0.533Q0.366 0.487 0.411 0.441Q0.367 0.412 0.367 0.367Q0.367 0.316 0.407 0.286Q0.447 0.255 0.512 0.255Q0.558 0.255 0.618 0.269V0.319Q0.556 0.300 0.511 0.300Q0.471 0.300 0.447 0.316Q0.422 0.332 0.422 0.357Q0.422 0.376 0.435 0.388Q0.447 0.400 0.476 0.412L0.518 0.429Q0.582 0.455 0.607 0.479Q0.631 0.504 0.631 0.542Q0.631 0.586 0.585 0.637Q0.636 0.666 0.636 0.720Q0.636 0.768 0.595 0.797Q0.553 0.825 0.484 0.825Q0.436 0.825 0.364 0.802ZM0.555 0.617Q0.578 0.587 0.578 0.557Q0.578 0.535 0.563 0.521Q0.549 0.507 0.510 0.490L0.442 0.462Q0.419 0.489 0.419 0.519Q0.419 0.560 0.489 0.590Z" fill="black"/>
</svg>
