<svg xmlns="http://www.w3.org/2000/svg" viewBox="0 0 1 1" preserveAspectRatio="xMidYMid meet">
  <path d="M0.500 0.734Q0.401 0.734 0.331 0.663Q0.261 0.593 0.261 0.494Q0.261 0.395 0.331 0.325Q0.401 0.255 0.500 0.255Q0.599 0.255 0.669 0.325Q0.739 0.395 0.739 0.494Q0.739 0.593 0.669 0.663Q0.599 0.734 0.500 0.734ZM0.500 0.700Q0.598 0.700 0.657 0.626Q0.705 0.565 0.705 0.494Q0.705 0.423 0.657 0.363Q0.598 0.289 0.500 0.289Q0.402 0.289 0.343 0.363Q0.295 0.423 0.295 0.494Q0.295 0.565 0.343 0.626Q0.402 0.700 0.500 0.700ZM0.588 0.616Q0.544 0.631 0.509 0.631Q0.451 0.631 0.414 0.593Q0.376 0.555 0.376 0.496Q0.376 0.434 0.413 0.396Q0.449 0.359 0.510 0.359Q0.538 0.359 0.580 0.367L0.588 0.369V0.407Q0.546 0.390 0.512 0.390Q0.472 0.390 0.447 0.418Q0.422 0.447 0.422 0.495Q0.422 0.542 0.448 0.569Q0.473 0.597 0.518 0.597Q0.553 0.597 0.588 0.578Z" fill="black"/>
</svg>
