<svg xmlns="http://www.w3.org/2000/svg" viewBox="0 0 1 1" preserveAspectRatio="xMidYMid meet">
  <path d="M0.526 0.414Q0.496 0.442 0.465 0.442Q0.439 0.442 0.422 0.426Q0.406 0.410 0.406 0.386Q0.406 0.353 0.433 0.335Q0.460 0.316 0.509 0.316H0.523V0.295Q0.523 0.262 0.486 0.262Q0.456 0.262 0.424 0.280V0.246Q0.460 0.231 0.495 0.231Q0.567 0.231 0.567 0.294V0.385Q0.567 0.412 0.585 0.412Q0.588 0.412 0.592 0.411L0.594 0.437Q0.579 0.442 0.565 0.442Q0.535 0.442 0.526 0.414ZM0.523 0.389V0.343H0.512Q0.450 0.343 0.450 0.380Q0.450 0.392 0.459 0.400Q0.467 0.409 0.480 0.409Q0.501 0.409 0.523 0.389Z" fill="black"/>
</svg>
