<svg xmlns="http://www.w3.org/2000/svg" viewBox="0 0 1 1" preserveAspectRatio="xMidYMid meet">
  <path d="M0.500 0.529Q0.443 0.529 0.403 0.488Q0.363 0.448 0.363 0.392Q0.363 0.335 0.403 0.295Q0.443 0.255 0.500 0.255Q0.557 0.255 0.597 0.295Q0.637 0.335 0.637 0.392Q0.637 0.448 0.597 0.488Q0.557 0.529 0.500 0.529ZM0.500 0.498Q0.543 0.498 0.575 0.467Q0.607 0.435 0.607 0.392Q0.607 0.348 0.575 0.316Q0.544 0.285 0.500 0.285Q0.457 0.285 0.425 0.316Q0.394 0.348 0.394 0.392Q0.394 0.435 0.425 0.467Q0.457 0.498 0.500 0.498ZM0.445 0.475V0.312H0.492Q0.555 0.312 0.555 0.354Q0.555 0.384 0.522 0.402L0.560 0.475H0.525L0.490 0.409H0.475V0.475ZM0.475 0.386H0.489Q0.521 0.386 0.521 0.357Q0.521 0.334 0.490 0.334H0.475Z" fill="black"/>
</svg>
