<svg xmlns="http://www.w3.org/2000/svg" viewBox="0 0 1 1" preserveAspectRatio="xMidYMid meet">
  <path d="M0.500 0.392Q0.471 0.392 0.451 0.372Q0.432 0.352 0.432 0.323Q0.432 0.294 0.451 0.275Q0.471 0.255 0.500 0.255Q0.529 0.255 0.549 0.275Q0.568 0.295 0.568 0.323Q0.568 0.352 0.549 0.372Q0.529 0.392 0.500 0.392ZM0.500 0.361Q0.515 0.361 0.527 0.350Q0.538 0.338 0.538 0.323Q0.538 0.308 0.527 0.296Q0.515 0.285 0.500 0.285Q0.485 0.285 0.473 0.296Q0.462 0.308 0.462 0.323Q0.462 0.338 0.473 0.350Q0.485 0.361 0.500 0.361Z" fill="black"/>
</svg>
