<svg xmlns="http://www.w3.org/2000/svg" viewBox="0 0 1 1" preserveAspectRatio="xMidYMid meet">
  <path d="M0.419 0.305V0.271Q0.453 0.259 0.489 0.259Q0.576 0.259 0.576 0.324Q0.576 0.372 0.517 0.392Q0.585 0.408 0.585 0.466Q0.585 0.503 0.558 0.525Q0.531 0.547 0.485 0.547Q0.452 0.547 0.415 0.538V0.500Q0.455 0.516 0.480 0.516Q0.505 0.516 0.521 0.502Q0.537 0.488 0.537 0.466Q0.537 0.410 0.456 0.410H0.441V0.381H0.454Q0.529 0.381 0.529 0.330Q0.529 0.290 0.481 0.290Q0.453 0.290 0.419 0.305Z" fill="black"/>
</svg>
