<svg xmlns="http://www.w3.org/2000/svg" viewBox="0 0 1 1" preserveAspectRatio="xMidYMid meet">
  <path d="M0.323 0.540V0.296H0.278V0.271L0.369 0.263V0.540ZM0.278 0.734 0.613 0.255H0.654L0.319 0.734ZM0.548 0.722V0.685Q0.569 0.649 0.604 0.617L0.626 0.598Q0.674 0.556 0.674 0.519Q0.674 0.473 0.624 0.473Q0.594 0.473 0.555 0.494V0.458Q0.594 0.442 0.633 0.442Q0.673 0.442 0.698 0.463Q0.722 0.484 0.722 0.517Q0.722 0.542 0.710 0.561Q0.698 0.581 0.666 0.607L0.649 0.620Q0.608 0.654 0.601 0.685H0.721V0.722Z" fill="black"/>
</svg>
