<svg xmlns="http://www.w3.org/2000/svg" viewBox="0 0 1 1" preserveAspectRatio="xMidYMid meet">
  <path d="M0.281 0.305V0.271Q0.315 0.259 0.351 0.259Q0.438 0.259 0.438 0.324Q0.438 0.372 0.379 0.392Q0.447 0.408 0.447 0.466Q0.447 0.503 0.420 0.525Q0.394 0.547 0.347 0.547Q0.314 0.547 0.278 0.538V0.500Q0.318 0.516 0.342 0.516Q0.367 0.516 0.383 0.502Q0.399 0.488 0.399 0.466Q0.399 0.410 0.319 0.410H0.303V0.381H0.316Q0.392 0.381 0.392 0.330Q0.392 0.290 0.343 0.290Q0.315 0.290 0.281 0.305ZM0.324 0.734 0.659 0.255H0.700L0.365 0.734ZM0.643 0.722V0.648H0.517V0.613L0.641 0.449H0.684V0.612H0.722V0.648H0.684V0.722ZM0.557 0.612H0.643V0.500Z" fill="black"/>
</svg>
