<svg xmlns="http://www.w3.org/2000/svg" viewBox="0 0 1 1" preserveAspectRatio="xMidYMid meet">
  <path d="M0.556 0.388V0.449H0.495V0.388ZM0.556 0.509V0.526Q0.556 0.561 0.547 0.584Q0.537 0.606 0.511 0.637L0.491 0.659Q0.443 0.714 0.443 0.750Q0.443 0.778 0.464 0.794Q0.486 0.810 0.522 0.810Q0.568 0.810 0.622 0.787V0.838Q0.564 0.855 0.514 0.855Q0.452 0.855 0.415 0.827Q0.378 0.799 0.378 0.751Q0.378 0.724 0.389 0.704Q0.399 0.685 0.430 0.656L0.449 0.638Q0.477 0.611 0.486 0.593Q0.495 0.575 0.495 0.544V0.509Z" fill="black"/>
</svg>
