<svg xmlns="http://www.w3.org/2000/svg" viewBox="0 0 1 1" preserveAspectRatio="xMidYMid meet">
  <path d="M0.288 0.722 0.469 0.266H0.533L0.712 0.722H0.642L0.592 0.596H0.399L0.349 0.722ZM0.418 0.548H0.573L0.496 0.351ZM0.501 0.228Q0.472 0.228 0.452 0.208Q0.431 0.187 0.431 0.158Q0.431 0.129 0.452 0.109Q0.472 0.088 0.501 0.088Q0.530 0.088 0.551 0.108Q0.571 0.129 0.571 0.158Q0.571 0.187 0.551 0.208Q0.531 0.228 0.501 0.228ZM0.501 0.202Q0.520 0.202 0.532 0.189Q0.545 0.176 0.545 0.158Q0.545 0.140 0.532 0.127Q0.519 0.115 0.501 0.115Q0.483 0.115 0.471 0.127Q0.458 0.140 0.458 0.158Q0.458 0.176 0.471 0.189Q0.483 0.202 0.501 0.202Z" fill="black"/>
</svg>
