<svg xmlns="http://www.w3.org/2000/svg" viewBox="0 0 1 1" preserveAspectRatio="xMidYMid meet">
  <path d="M0.500 0.734Q0.403 0.734 0.345 0.669Q0.287 0.603 0.287 0.494Q0.287 0.385 0.345 0.320Q0.403 0.255 0.500 0.255Q0.597 0.255 0.655 0.320Q0.713 0.385 0.713 0.494Q0.713 0.603 0.655 0.669Q0.597 0.734 0.500 0.734ZM0.500 0.685Q0.568 0.685 0.606 0.635Q0.645 0.584 0.645 0.494Q0.645 0.404 0.606 0.354Q0.568 0.303 0.500 0.303Q0.432 0.303 0.394 0.354Q0.355 0.404 0.355 0.494Q0.355 0.584 0.394 0.635Q0.432 0.685 0.500 0.685ZM0.397 0.228Q0.401 0.156 0.454 0.156Q0.477 0.156 0.496 0.168L0.514 0.179Q0.532 0.190 0.541 0.190Q0.562 0.190 0.565 0.156H0.603Q0.599 0.228 0.546 0.228Q0.523 0.228 0.504 0.216L0.486 0.205Q0.468 0.194 0.459 0.194Q0.438 0.194 0.435 0.228Z" fill="black"/>
</svg>
