<svg xmlns="http://www.w3.org/2000/svg" viewBox="0 0 1 1" preserveAspectRatio="xMidYMid meet">
  <path d="M0.593 0.338Q0.556 0.303 0.500 0.303Q0.432 0.303 0.394 0.354Q0.355 0.404 0.355 0.494Q0.355 0.565 0.381 0.615ZM0.407 0.650Q0.444 0.685 0.501 0.685Q0.568 0.685 0.606 0.635Q0.645 0.584 0.645 0.495Q0.645 0.422 0.619 0.373ZM0.290 0.734 0.342 0.666Q0.287 0.599 0.287 0.494Q0.287 0.385 0.345 0.320Q0.403 0.255 0.500 0.255Q0.573 0.255 0.627 0.294L0.657 0.255H0.710L0.658 0.323Q0.713 0.389 0.713 0.495Q0.713 0.603 0.655 0.668Q0.597 0.734 0.501 0.734Q0.425 0.734 0.373 0.695L0.343 0.734Z" fill="black"/>
</svg>
