<svg xmlns="http://www.w3.org/2000/svg" viewBox="0 0 1 1" preserveAspectRatio="xMidYMid meet">
  <path d="M0.351 0.722V0.368Q0.351 0.292 0.377 0.260Q0.402 0.228 0.464 0.228Q0.515 0.228 0.546 0.250Q0.576 0.272 0.576 0.309Q0.576 0.347 0.536 0.400Q0.512 0.431 0.512 0.444Q0.512 0.463 0.546 0.492L0.596 0.533Q0.649 0.578 0.649 0.630Q0.649 0.676 0.620 0.703Q0.591 0.730 0.542 0.730Q0.498 0.730 0.455 0.712V0.660Q0.511 0.684 0.542 0.684Q0.565 0.684 0.578 0.671Q0.592 0.658 0.592 0.636Q0.592 0.620 0.585 0.609Q0.578 0.597 0.556 0.579L0.497 0.529Q0.459 0.495 0.459 0.461Q0.459 0.435 0.490 0.388Q0.515 0.349 0.515 0.320Q0.515 0.274 0.463 0.274Q0.412 0.274 0.412 0.342V0.722Z" fill="black"/>
</svg>
