<svg xmlns="http://www.w3.org/2000/svg" viewBox="0 0 1 1" preserveAspectRatio="xMidYMid meet">
  <path d="M0.344 0.236Q0.412 0.236 0.467 0.259L0.519 0.207L0.545 0.234L0.501 0.278Q0.575 0.327 0.616 0.396Q0.656 0.466 0.656 0.545Q0.656 0.628 0.613 0.679Q0.570 0.730 0.500 0.730Q0.430 0.730 0.387 0.682Q0.344 0.635 0.344 0.557Q0.344 0.481 0.386 0.434Q0.429 0.387 0.497 0.387Q0.516 0.387 0.539 0.394Q0.514 0.349 0.463 0.316L0.411 0.368L0.384 0.341L0.429 0.297Q0.393 0.281 0.344 0.281ZM0.501 0.684Q0.545 0.684 0.570 0.649Q0.595 0.614 0.595 0.554Q0.595 0.432 0.503 0.432Q0.459 0.432 0.434 0.465Q0.409 0.498 0.409 0.557Q0.409 0.616 0.434 0.650Q0.459 0.684 0.501 0.684Z" fill="black"/>
</svg>
