<svg xmlns="http://www.w3.org/2000/svg" viewBox="0 0 1 1" preserveAspectRatio="xMidYMid meet">
  <path d="M0.363 0.722V0.388H0.424V0.451Q0.472 0.380 0.542 0.380Q0.585 0.380 0.611 0.408Q0.637 0.435 0.637 0.482V0.722H0.576V0.502Q0.576 0.464 0.565 0.449Q0.554 0.433 0.529 0.433Q0.473 0.433 0.424 0.506V0.722ZM0.405 0.327Q0.408 0.255 0.462 0.255Q0.485 0.255 0.504 0.267L0.522 0.278Q0.539 0.289 0.548 0.289Q0.570 0.289 0.572 0.255H0.610Q0.607 0.327 0.553 0.327Q0.531 0.327 0.512 0.315L0.493 0.304Q0.476 0.293 0.467 0.293Q0.446 0.293 0.443 0.327Z" fill="black"/>
</svg>
