<svg xmlns="http://www.w3.org/2000/svg" viewBox="0 0 1 1" preserveAspectRatio="xMidYMid meet">
  <path d="M0.500 0.730Q0.426 0.730 0.383 0.683Q0.340 0.636 0.340 0.555Q0.340 0.474 0.383 0.427Q0.426 0.380 0.500 0.380Q0.574 0.380 0.617 0.427Q0.660 0.474 0.660 0.555Q0.660 0.636 0.617 0.683Q0.574 0.730 0.500 0.730ZM0.500 0.684Q0.545 0.684 0.570 0.651Q0.595 0.617 0.595 0.555Q0.595 0.493 0.570 0.460Q0.545 0.426 0.500 0.426Q0.455 0.426 0.430 0.460Q0.405 0.493 0.405 0.555Q0.405 0.617 0.430 0.651Q0.455 0.684 0.500 0.684ZM0.397 0.327Q0.401 0.255 0.454 0.255Q0.477 0.255 0.496 0.267L0.514 0.278Q0.532 0.289 0.541 0.289Q0.562 0.289 0.565 0.255H0.603Q0.599 0.327 0.546 0.327Q0.523 0.327 0.504 0.315L0.486 0.304Q0.468 0.293 0.459 0.293Q0.438 0.293 0.435 0.327Z" fill="black"/>
</svg>
