<svg xmlns="http://www.w3.org/2000/svg" viewBox="0 0 1 1" preserveAspectRatio="xMidYMid meet">
  <path d="M0.340 0.730 0.380 0.678Q0.340 0.633 0.340 0.556Q0.340 0.475 0.383 0.427Q0.426 0.380 0.500 0.380Q0.555 0.380 0.594 0.406L0.615 0.380H0.660L0.620 0.431L0.620 0.432Q0.660 0.481 0.660 0.555Q0.660 0.635 0.617 0.683Q0.574 0.730 0.500 0.730Q0.447 0.730 0.407 0.704L0.386 0.730ZM0.582 0.480 0.439 0.662Q0.463 0.684 0.499 0.684Q0.545 0.684 0.570 0.651Q0.595 0.617 0.595 0.557Q0.595 0.515 0.582 0.480ZM0.418 0.631 0.561 0.449Q0.536 0.426 0.501 0.426Q0.455 0.426 0.430 0.460Q0.405 0.493 0.405 0.554Q0.405 0.598 0.418 0.631Z" fill="black"/>
</svg>
