<svg xmlns="http://www.w3.org/2000/svg" viewBox="0 0 1 1" preserveAspectRatio="xMidYMid meet">
  <path d="M0.264 0.722V0.266H0.415Q0.483 0.266 0.525 0.281Q0.567 0.296 0.597 0.333Q0.645 0.390 0.645 0.484Q0.645 0.589 0.589 0.655Q0.558 0.691 0.517 0.707Q0.477 0.722 0.416 0.722ZM0.328 0.674H0.411Q0.500 0.674 0.537 0.626Q0.577 0.575 0.577 0.490Q0.577 0.409 0.538 0.363Q0.514 0.335 0.481 0.325Q0.448 0.315 0.382 0.315H0.328ZM0.676 0.406V0.388Q0.699 0.382 0.699 0.332V0.327H0.676V0.266H0.736V0.319Q0.736 0.400 0.676 0.406Z" fill="black"/>
</svg>
