<svg xmlns="http://www.w3.org/2000/svg" viewBox="0 0 1 1" preserveAspectRatio="xMidYMid meet">
  <path d="M0.551 0.722V0.659Q0.514 0.730 0.440 0.730Q0.380 0.730 0.345 0.686Q0.310 0.642 0.310 0.565Q0.310 0.482 0.349 0.431Q0.389 0.380 0.453 0.380Q0.512 0.380 0.551 0.426V0.236H0.612V0.722ZM0.551 0.467Q0.504 0.426 0.462 0.426Q0.420 0.426 0.398 0.461Q0.375 0.496 0.375 0.559Q0.375 0.677 0.453 0.677Q0.503 0.677 0.551 0.622ZM0.690 0.106 0.616 0.205H0.548L0.474 0.106H0.520L0.582 0.169L0.644 0.106Z" fill="black"/>
</svg>
