<svg xmlns="http://www.w3.org/2000/svg" viewBox="0 0 1 1" preserveAspectRatio="xMidYMid meet">
  <path d="M0.342 0.572Q0.325 0.572 0.325 0.555Q0.325 0.538 0.342 0.538Q0.359 0.538 0.359 0.555Q0.359 0.572 0.342 0.572ZM0.337 0.495Q0.337 0.478 0.354 0.478Q0.371 0.478 0.371 0.495Q0.371 0.512 0.354 0.512Q0.337 0.512 0.337 0.495ZM0.371 0.444Q0.371 0.427 0.388 0.427Q0.406 0.427 0.406 0.443Q0.406 0.461 0.388 0.461Q0.371 0.461 0.371 0.444ZM0.422 0.409Q0.422 0.392 0.439 0.392Q0.457 0.392 0.457 0.409Q0.457 0.427 0.439 0.427Q0.422 0.427 0.422 0.409ZM0.483 0.397Q0.483 0.380 0.500 0.380Q0.517 0.380 0.517 0.397Q0.517 0.414 0.500 0.414Q0.483 0.414 0.483 0.397ZM0.560 0.392Q0.578 0.392 0.578 0.409Q0.578 0.427 0.560 0.427Q0.543 0.427 0.543 0.410Q0.543 0.392 0.560 0.392ZM0.611 0.426Q0.629 0.426 0.629 0.443Q0.629 0.461 0.611 0.461Q0.594 0.461 0.594 0.443Q0.594 0.426 0.611 0.426ZM0.646 0.478Q0.663 0.478 0.663 0.495Q0.663 0.512 0.646 0.512Q0.628 0.512 0.628 0.495Q0.628 0.478 0.646 0.478ZM0.658 0.538Q0.675 0.538 0.675 0.555Q0.675 0.572 0.658 0.572Q0.640 0.572 0.640 0.555Q0.640 0.538 0.658 0.538ZM0.663 0.615Q0.663 0.633 0.646 0.633Q0.629 0.633 0.629 0.615Q0.629 0.598 0.645 0.598Q0.663 0.598 0.663 0.615ZM0.629 0.667Q0.629 0.684 0.611 0.684Q0.594 0.684 0.594 0.667Q0.594 0.649 0.612 0.649Q0.629 0.649 0.629 0.667ZM0.578 0.701Q0.578 0.718 0.560 0.718Q0.543 0.718 0.543 0.701Q0.543 0.684 0.560 0.684Q0.578 0.684 0.578 0.701ZM0.517 0.713Q0.517 0.730 0.500 0.730Q0.483 0.730 0.483 0.713Q0.483 0.696 0.500 0.696Q0.517 0.696 0.517 0.713ZM0.439 0.718Q0.422 0.718 0.422 0.701Q0.422 0.684 0.439 0.684Q0.457 0.684 0.457 0.700Q0.457 0.718 0.439 0.718ZM0.389 0.684Q0.371 0.684 0.371 0.667Q0.371 0.650 0.388 0.650Q0.406 0.650 0.406 0.667Q0.406 0.684 0.389 0.684ZM0.354 0.633Q0.337 0.633 0.337 0.615Q0.337 0.598 0.354 0.598Q0.371 0.598 0.371 0.615Q0.371 0.633 0.354 0.633Z" fill="black"/>
</svg>
