<svg xmlns="http://www.w3.org/2000/svg" viewBox="0 0 1 1" preserveAspectRatio="xMidYMid meet">
  <path d="M0.216 0.288V0.224H0.279V0.288ZM0.216 0.414V0.350H0.279V0.414ZM0.216 0.540V0.477H0.279V0.540ZM0.216 0.666V0.603H0.279V0.666ZM0.216 0.792V0.729H0.279V0.792ZM0.342 0.288V0.224H0.405V0.288ZM0.342 0.414V0.350H0.405V0.414ZM0.342 0.540V0.477H0.405V0.540ZM0.342 0.666V0.603H0.405V0.666ZM0.342 0.792V0.729H0.405V0.792ZM0.468 0.288V0.224H0.532V0.288ZM0.468 0.414V0.350H0.532V0.414ZM0.468 0.540V0.477H0.532V0.540ZM0.468 0.666V0.603H0.532V0.666ZM0.468 0.792V0.729H0.532V0.792ZM0.595 0.288V0.224H0.658V0.288ZM0.595 0.414V0.350H0.658V0.414ZM0.595 0.540V0.477H0.658V0.540ZM0.595 0.666V0.603H0.658V0.666ZM0.595 0.792V0.729H0.658V0.792ZM0.721 0.288V0.224H0.784V0.288ZM0.721 0.414V0.350H0.784V0.414ZM0.721 0.540V0.477H0.784V0.540ZM0.721 0.666V0.603H0.784V0.666ZM0.721 0.792V0.729H0.784V0.792Z" fill="black"/>
</svg>
