<svg xmlns="http://www.w3.org/2000/svg" viewBox="0 0 1 1" preserveAspectRatio="xMidYMid meet">
  <path d="M0.184 0.288V0.224H0.248V0.288ZM0.184 0.414V0.350H0.248V0.414ZM0.184 0.540V0.477H0.248V0.540ZM0.184 0.666V0.603H0.248V0.666ZM0.184 0.792V0.729H0.248V0.792ZM0.311 0.288H0.374V0.224H0.311ZM0.311 0.414H0.374V0.350H0.311ZM0.311 0.540H0.374V0.477H0.311ZM0.311 0.666H0.374V0.603H0.311ZM0.311 0.792H0.374V0.729H0.311ZM0.437 0.288H0.500V0.224H0.437ZM0.437 0.414H0.500V0.350H0.437ZM0.437 0.540H0.500V0.477H0.437ZM0.437 0.666H0.500V0.603H0.437ZM0.437 0.792H0.500V0.729H0.437ZM0.563 0.288H0.626V0.224H0.563ZM0.563 0.414H0.626V0.350H0.563ZM0.563 0.540H0.626V0.477H0.563ZM0.563 0.666H0.626V0.603H0.563ZM0.563 0.792H0.626V0.729H0.563ZM0.689 0.288H0.752V0.224H0.689ZM0.689 0.414H0.752V0.350H0.689ZM0.689 0.540H0.752V0.477H0.689ZM0.689 0.666H0.752V0.603H0.689ZM0.689 0.792H0.752V0.729H0.689ZM0.248 0.350H0.311V0.288H0.248ZM0.248 0.477H0.311V0.414H0.248ZM0.248 0.603H0.311V0.540H0.248ZM0.248 0.729H0.311V0.666H0.248ZM0.248 0.855V0.792H0.311V0.855ZM0.374 0.350H0.437V0.288H0.374ZM0.374 0.477H0.437V0.414H0.374ZM0.374 0.603H0.437V0.540H0.374ZM0.374 0.729H0.437V0.666H0.374ZM0.374 0.855V0.792H0.437V0.855ZM0.500 0.350H0.563V0.288H0.500ZM0.500 0.477H0.563V0.414H0.500ZM0.500 0.603H0.563V0.540H0.500ZM0.500 0.729H0.563V0.666H0.500ZM0.500 0.855V0.792H0.563V0.855ZM0.626 0.350H0.689V0.288H0.626ZM0.626 0.477H0.689V0.414H0.626ZM0.626 0.603H0.689V0.540H0.626ZM0.626 0.729H0.689V0.666H0.626ZM0.626 0.855V0.792H0.689V0.855ZM0.752 0.350H0.816V0.288H0.752ZM0.752 0.477H0.816V0.414H0.752ZM0.752 0.603H0.816V0.540H0.752ZM0.752 0.729H0.816V0.666H0.752ZM0.752 0.855V0.792H0.816V0.855Z" fill="black"/>
</svg>
