<svg xmlns="http://www.w3.org/2000/svg" viewBox="0 0 1 1" preserveAspectRatio="xMidYMid meet">
  <path d="M0.500 0.477H0.563V0.414H0.500ZM0.500 0.603H0.563V0.540H0.500ZM0.500 0.729H0.563V0.666H0.500ZM0.500 0.350H0.563V0.288H0.500ZM0.248 0.350H0.311V0.288H0.248ZM0.248 0.477H0.311V0.414H0.248ZM0.248 0.603H0.311V0.540H0.248ZM0.248 0.729H0.311V0.666H0.248ZM0.374 0.350H0.437V0.288H0.374ZM0.374 0.477H0.437V0.414H0.374ZM0.374 0.603H0.437V0.540H0.374ZM0.374 0.729H0.437V0.666H0.374ZM0.184 0.855V0.224H0.816V0.288H0.752V0.350H0.816V0.414H0.752V0.477H0.816V0.540H0.752V0.603H0.816V0.666H0.752V0.729H0.816V0.792H0.752V0.855H0.689V0.792H0.626V0.855H0.563V0.792H0.500V0.855H0.437V0.792H0.374V0.855H0.311V0.792H0.248V0.855ZM0.626 0.350H0.689V0.288H0.626ZM0.626 0.477H0.689V0.414H0.626ZM0.626 0.603H0.689V0.540H0.626ZM0.626 0.729H0.689V0.666H0.626Z" fill="black"/>
</svg>
