<svg xmlns="http://www.w3.org/2000/svg" viewBox="0 0 1 1" preserveAspectRatio="xMidYMid meet">
  <path d="M0.584 0.682Q0.584 0.718 0.560 0.742Q0.535 0.766 0.500 0.766Q0.463 0.766 0.440 0.742Q0.416 0.718 0.416 0.682V0.249Q0.416 0.213 0.440 0.189Q0.463 0.165 0.500 0.165Q0.536 0.165 0.560 0.189Q0.584 0.213 0.584 0.249ZM0.543 0.618V0.249Q0.543 0.230 0.531 0.219Q0.519 0.207 0.500 0.207Q0.481 0.207 0.469 0.219Q0.457 0.230 0.457 0.249V0.618Q0.457 0.637 0.469 0.649Q0.481 0.661 0.500 0.661Q0.519 0.661 0.531 0.649Q0.543 0.637 0.543 0.618Z" fill="black"/>
</svg>
