<svg xmlns="http://www.w3.org/2000/svg" viewBox="0 0 1 1" preserveAspectRatio="xMidYMid meet">
  <path d="M0.707 0.682Q0.707 0.718 0.683 0.742Q0.659 0.766 0.622 0.766H0.383Q0.346 0.766 0.322 0.748Q0.293 0.728 0.293 0.688Q0.293 0.672 0.299 0.657Q0.293 0.642 0.293 0.624Q0.293 0.592 0.320 0.563Q0.339 0.543 0.379 0.517Q0.344 0.515 0.322 0.491Q0.299 0.468 0.299 0.433Q0.299 0.413 0.302 0.394Q0.299 0.382 0.299 0.369Q0.299 0.282 0.358 0.224Q0.416 0.165 0.503 0.165Q0.589 0.165 0.648 0.224Q0.707 0.282 0.707 0.369Q0.707 0.384 0.705 0.399Q0.707 0.416 0.707 0.433Q0.707 0.492 0.670 0.548Q0.707 0.572 0.707 0.618Q0.707 0.635 0.701 0.650Q0.707 0.665 0.707 0.682ZM0.521 0.403Q0.513 0.398 0.503 0.398Q0.488 0.398 0.478 0.408Q0.468 0.418 0.468 0.433Q0.468 0.445 0.465 0.456Q0.503 0.425 0.521 0.403ZM0.666 0.618Q0.666 0.599 0.654 0.587Q0.642 0.575 0.622 0.575H0.518Q0.588 0.520 0.616 0.487Q0.666 0.430 0.666 0.369Q0.666 0.300 0.619 0.253Q0.572 0.207 0.503 0.207Q0.434 0.207 0.387 0.253Q0.341 0.300 0.341 0.369Q0.341 0.388 0.352 0.400Q0.364 0.412 0.383 0.412Q0.402 0.412 0.414 0.400Q0.427 0.388 0.427 0.369Q0.427 0.337 0.449 0.315Q0.471 0.293 0.503 0.293Q0.535 0.293 0.557 0.315Q0.580 0.337 0.580 0.369Q0.580 0.426 0.444 0.524Q0.397 0.558 0.361 0.581Q0.334 0.599 0.334 0.624Q0.334 0.661 0.383 0.661H0.622Q0.642 0.661 0.654 0.649Q0.666 0.637 0.666 0.618Z" fill="black"/>
</svg>
