<svg xmlns="http://www.w3.org/2000/svg" viewBox="0 0 1 1" preserveAspectRatio="xMidYMid meet">
  <path d="M0.676 0.590Q0.676 0.664 0.625 0.715Q0.574 0.766 0.500 0.766H0.408Q0.372 0.766 0.348 0.742Q0.324 0.718 0.324 0.682Q0.324 0.665 0.330 0.650Q0.324 0.635 0.324 0.618Q0.324 0.582 0.348 0.558Q0.372 0.534 0.408 0.534H0.420Q0.412 0.517 0.412 0.496Q0.412 0.492 0.412 0.489H0.409Q0.373 0.490 0.349 0.465Q0.324 0.441 0.324 0.405Q0.324 0.385 0.328 0.367Q0.324 0.354 0.324 0.341Q0.324 0.267 0.375 0.216Q0.426 0.165 0.500 0.165Q0.574 0.165 0.625 0.216Q0.676 0.267 0.676 0.341Q0.676 0.358 0.674 0.373Q0.676 0.389 0.676 0.405Q0.676 0.437 0.665 0.466Q0.676 0.494 0.676 0.527Q0.676 0.543 0.674 0.559Q0.676 0.574 0.676 0.590ZM0.635 0.527Q0.635 0.473 0.597 0.434Q0.635 0.396 0.635 0.341Q0.635 0.284 0.596 0.245Q0.557 0.207 0.500 0.207Q0.443 0.207 0.404 0.245Q0.366 0.284 0.366 0.341Q0.366 0.360 0.378 0.372Q0.390 0.384 0.409 0.384Q0.428 0.384 0.440 0.372Q0.452 0.359 0.452 0.340Q0.452 0.321 0.466 0.307Q0.480 0.293 0.500 0.293Q0.520 0.293 0.535 0.307Q0.549 0.321 0.549 0.341Q0.549 0.361 0.535 0.375Q0.520 0.389 0.500 0.390Q0.480 0.391 0.466 0.402Q0.453 0.413 0.453 0.433Q0.453 0.450 0.465 0.462Q0.478 0.473 0.496 0.475Q0.517 0.478 0.533 0.492Q0.549 0.506 0.549 0.527Q0.549 0.547 0.535 0.561Q0.520 0.575 0.500 0.575H0.408Q0.389 0.575 0.377 0.587Q0.365 0.599 0.365 0.618Q0.365 0.637 0.377 0.649Q0.389 0.661 0.408 0.661H0.500Q0.557 0.661 0.596 0.622Q0.635 0.584 0.635 0.527Z" fill="black"/>
</svg>
