<svg xmlns="http://www.w3.org/2000/svg" viewBox="0 0 1 1" preserveAspectRatio="xMidYMid meet">
  <path d="M0.678 0.682Q0.678 0.718 0.655 0.742Q0.631 0.766 0.594 0.766Q0.559 0.766 0.534 0.742Q0.510 0.718 0.510 0.682V0.635H0.500Q0.425 0.635 0.373 0.584Q0.322 0.532 0.322 0.457V0.251Q0.322 0.214 0.345 0.190Q0.369 0.166 0.406 0.166Q0.442 0.166 0.466 0.190Q0.490 0.214 0.490 0.251V0.393Q0.490 0.403 0.500 0.403H0.510V0.249Q0.510 0.214 0.534 0.190Q0.559 0.165 0.594 0.165Q0.631 0.165 0.655 0.189Q0.678 0.213 0.678 0.249ZM0.637 0.618V0.249Q0.637 0.230 0.625 0.219Q0.614 0.207 0.594 0.207Q0.576 0.207 0.564 0.219Q0.551 0.231 0.551 0.249V0.445H0.500Q0.479 0.445 0.464 0.430Q0.449 0.415 0.449 0.393V0.251Q0.449 0.232 0.437 0.219Q0.425 0.207 0.406 0.207Q0.386 0.207 0.375 0.219Q0.363 0.232 0.363 0.251V0.393Q0.363 0.452 0.402 0.491Q0.441 0.531 0.500 0.531H0.551V0.618Q0.551 0.637 0.564 0.649Q0.576 0.661 0.594 0.661Q0.614 0.661 0.625 0.649Q0.637 0.637 0.637 0.618Z" fill="black"/>
</svg>
