<svg xmlns="http://www.w3.org/2000/svg" viewBox="0 0 1 1" preserveAspectRatio="xMidYMid meet">
  <path d="M0.682 0.562Q0.682 0.648 0.623 0.707Q0.564 0.766 0.478 0.766H0.402Q0.365 0.766 0.342 0.742Q0.318 0.718 0.318 0.682Q0.318 0.665 0.323 0.650Q0.318 0.635 0.318 0.618Q0.318 0.582 0.342 0.558Q0.365 0.534 0.402 0.534H0.478Q0.486 0.534 0.494 0.531Q0.486 0.527 0.478 0.527H0.402Q0.367 0.527 0.343 0.502Q0.318 0.477 0.318 0.443V0.249Q0.318 0.215 0.343 0.190Q0.367 0.165 0.402 0.165H0.591Q0.627 0.165 0.651 0.189Q0.675 0.213 0.675 0.249Q0.675 0.267 0.670 0.282Q0.675 0.297 0.675 0.313Q0.675 0.357 0.645 0.380Q0.682 0.432 0.682 0.499Q0.682 0.515 0.680 0.530Q0.682 0.546 0.682 0.562ZM0.641 0.499Q0.641 0.429 0.594 0.383Q0.547 0.336 0.478 0.336H0.445V0.293H0.591Q0.633 0.293 0.633 0.249Q0.633 0.230 0.622 0.219Q0.610 0.207 0.591 0.207H0.402Q0.385 0.207 0.372 0.219Q0.359 0.232 0.359 0.249V0.379Q0.359 0.396 0.372 0.409Q0.385 0.422 0.402 0.422H0.478Q0.510 0.422 0.532 0.444Q0.555 0.467 0.555 0.499Q0.555 0.531 0.532 0.553Q0.510 0.575 0.478 0.575H0.402Q0.383 0.575 0.371 0.587Q0.359 0.599 0.359 0.618Q0.359 0.637 0.371 0.649Q0.383 0.661 0.402 0.661H0.478Q0.547 0.661 0.594 0.614Q0.641 0.567 0.641 0.499Z" fill="black"/>
</svg>
