<svg xmlns="http://www.w3.org/2000/svg" viewBox="0 0 1 1" preserveAspectRatio="xMidYMid meet">
  <path d="M0.704 0.563Q0.704 0.649 0.645 0.708Q0.586 0.767 0.500 0.767Q0.413 0.767 0.355 0.708Q0.296 0.649 0.296 0.563V0.369Q0.296 0.282 0.355 0.224Q0.413 0.165 0.500 0.165Q0.557 0.165 0.610 0.197Q0.671 0.233 0.671 0.286Q0.671 0.303 0.665 0.318Q0.671 0.333 0.671 0.350Q0.671 0.365 0.666 0.379Q0.704 0.432 0.704 0.499Q0.704 0.516 0.701 0.532Q0.704 0.547 0.704 0.563ZM0.663 0.499Q0.663 0.430 0.616 0.384Q0.569 0.337 0.500 0.337Q0.460 0.337 0.425 0.356Q0.429 0.328 0.450 0.310Q0.472 0.293 0.500 0.293Q0.533 0.293 0.555 0.316Q0.568 0.330 0.586 0.330Q0.603 0.330 0.617 0.317Q0.630 0.304 0.630 0.286Q0.630 0.270 0.617 0.256Q0.569 0.207 0.500 0.207Q0.430 0.207 0.384 0.253Q0.337 0.300 0.337 0.369V0.499Q0.337 0.569 0.384 0.615Q0.430 0.662 0.500 0.662Q0.569 0.662 0.616 0.615Q0.663 0.569 0.663 0.499ZM0.577 0.499Q0.577 0.531 0.554 0.554Q0.531 0.576 0.500 0.576Q0.468 0.576 0.446 0.554Q0.423 0.531 0.423 0.499Q0.423 0.468 0.446 0.445Q0.468 0.423 0.500 0.423Q0.531 0.423 0.554 0.445Q0.577 0.468 0.577 0.499Z" fill="black"/>
</svg>
