<svg xmlns="http://www.w3.org/2000/svg" viewBox="0 0 1 1" preserveAspectRatio="xMidYMid meet">
  <path d="M0.685 0.310Q0.685 0.349 0.647 0.459L0.560 0.709Q0.540 0.767 0.482 0.767Q0.446 0.767 0.421 0.743Q0.396 0.719 0.396 0.683Q0.396 0.670 0.400 0.656L0.402 0.651Q0.396 0.636 0.396 0.620Q0.396 0.606 0.400 0.592L0.464 0.398H0.399Q0.363 0.398 0.339 0.373Q0.315 0.349 0.315 0.313Q0.315 0.296 0.321 0.281Q0.315 0.266 0.315 0.249Q0.315 0.213 0.339 0.189Q0.363 0.165 0.399 0.165H0.601Q0.638 0.165 0.662 0.187Q0.685 0.209 0.685 0.246Q0.685 0.260 0.680 0.281Q0.685 0.295 0.685 0.310ZM0.643 0.246Q0.643 0.207 0.601 0.207H0.399Q0.380 0.207 0.368 0.219Q0.357 0.230 0.357 0.249Q0.357 0.268 0.368 0.281Q0.380 0.293 0.399 0.293H0.542L0.440 0.605Q0.437 0.613 0.437 0.620Q0.437 0.638 0.450 0.650Q0.463 0.662 0.482 0.662Q0.511 0.662 0.521 0.632L0.608 0.382Q0.643 0.279 0.643 0.246Z" fill="black"/>
</svg>
