<svg xmlns="http://www.w3.org/2000/svg" viewBox="0 0 1 1" preserveAspectRatio="xMidYMid meet">
  <path d="M0.683 0.583Q0.683 0.660 0.630 0.713Q0.577 0.766 0.500 0.766Q0.423 0.766 0.370 0.713Q0.317 0.660 0.317 0.583Q0.317 0.566 0.319 0.551Q0.317 0.535 0.317 0.519Q0.317 0.475 0.335 0.438Q0.331 0.419 0.331 0.398Q0.331 0.382 0.333 0.366Q0.331 0.351 0.331 0.335Q0.331 0.265 0.378 0.215Q0.426 0.165 0.500 0.165Q0.572 0.165 0.621 0.214Q0.670 0.263 0.670 0.335Q0.670 0.351 0.667 0.366Q0.670 0.382 0.670 0.398Q0.670 0.419 0.665 0.438Q0.683 0.475 0.683 0.519Q0.683 0.536 0.681 0.551Q0.683 0.566 0.683 0.583ZM0.642 0.519Q0.642 0.459 0.599 0.417Q0.628 0.381 0.628 0.335Q0.628 0.280 0.592 0.243Q0.555 0.206 0.500 0.206Q0.446 0.206 0.409 0.243Q0.372 0.280 0.372 0.335Q0.372 0.381 0.401 0.417Q0.358 0.459 0.358 0.519Q0.358 0.580 0.399 0.620Q0.440 0.661 0.500 0.661Q0.560 0.661 0.601 0.620Q0.642 0.580 0.642 0.519ZM0.543 0.335Q0.543 0.352 0.530 0.365Q0.518 0.377 0.500 0.377Q0.483 0.377 0.470 0.364Q0.458 0.352 0.458 0.335Q0.458 0.317 0.470 0.304Q0.482 0.292 0.500 0.292Q0.518 0.292 0.530 0.304Q0.543 0.317 0.543 0.335ZM0.556 0.519Q0.556 0.543 0.540 0.559Q0.524 0.575 0.500 0.575Q0.477 0.575 0.461 0.559Q0.444 0.542 0.444 0.519Q0.444 0.496 0.460 0.479Q0.476 0.462 0.500 0.462Q0.524 0.462 0.540 0.479Q0.556 0.496 0.556 0.519Z" fill="black"/>
</svg>
