<svg xmlns="http://www.w3.org/2000/svg" viewBox="0 0 1 1" preserveAspectRatio="xMidYMid meet">
  <path d="M0.704 0.563Q0.704 0.649 0.645 0.708Q0.586 0.767 0.500 0.767Q0.444 0.767 0.390 0.736Q0.329 0.699 0.329 0.646Q0.329 0.630 0.335 0.615Q0.329 0.599 0.329 0.583Q0.329 0.567 0.334 0.553Q0.296 0.500 0.296 0.433Q0.296 0.417 0.299 0.401Q0.296 0.385 0.296 0.369Q0.296 0.282 0.355 0.224Q0.413 0.165 0.500 0.165Q0.586 0.165 0.645 0.224Q0.704 0.283 0.704 0.369ZM0.663 0.499V0.369Q0.663 0.300 0.616 0.253Q0.569 0.207 0.500 0.207Q0.430 0.207 0.384 0.253Q0.337 0.300 0.337 0.369Q0.337 0.438 0.384 0.485Q0.430 0.532 0.500 0.532Q0.540 0.532 0.575 0.513Q0.570 0.541 0.549 0.559Q0.528 0.576 0.500 0.576Q0.467 0.576 0.444 0.553Q0.431 0.539 0.414 0.539Q0.396 0.539 0.383 0.552Q0.370 0.565 0.370 0.583Q0.370 0.599 0.383 0.612Q0.430 0.662 0.500 0.662Q0.569 0.662 0.616 0.615Q0.663 0.569 0.663 0.499ZM0.577 0.369Q0.577 0.401 0.554 0.423Q0.531 0.446 0.500 0.446Q0.468 0.446 0.446 0.423Q0.423 0.401 0.423 0.369Q0.423 0.337 0.446 0.315Q0.468 0.293 0.500 0.293Q0.531 0.293 0.554 0.315Q0.577 0.337 0.577 0.369Z" fill="black"/>
</svg>
