<svg xmlns="http://www.w3.org/2000/svg" viewBox="0 0 1 1" preserveAspectRatio="xMidYMid meet">
  <path d="M0.704 0.682Q0.704 0.718 0.679 0.742Q0.655 0.766 0.619 0.766Q0.584 0.766 0.560 0.743Q0.536 0.767 0.500 0.767Q0.413 0.767 0.355 0.708Q0.296 0.649 0.296 0.563Q0.296 0.547 0.299 0.531Q0.296 0.515 0.296 0.499Q0.296 0.413 0.355 0.354Q0.413 0.296 0.500 0.296Q0.586 0.296 0.645 0.355Q0.704 0.413 0.704 0.499ZM0.663 0.618V0.499Q0.663 0.430 0.616 0.384Q0.569 0.337 0.500 0.337Q0.430 0.337 0.384 0.384Q0.337 0.430 0.337 0.499Q0.337 0.569 0.384 0.615Q0.430 0.662 0.500 0.662Q0.519 0.662 0.531 0.650Q0.543 0.638 0.543 0.619Q0.543 0.600 0.531 0.588Q0.519 0.576 0.500 0.576Q0.468 0.576 0.446 0.554Q0.423 0.531 0.423 0.499Q0.423 0.468 0.446 0.445Q0.468 0.423 0.500 0.423Q0.531 0.423 0.554 0.445Q0.577 0.468 0.577 0.499V0.618Q0.577 0.637 0.588 0.649Q0.600 0.661 0.619 0.661Q0.638 0.661 0.650 0.649Q0.663 0.637 0.663 0.618ZM0.526 0.539Q0.515 0.528 0.500 0.528Q0.491 0.528 0.484 0.531Q0.491 0.534 0.504 0.536Q0.520 0.537 0.526 0.539Z" fill="black"/>
</svg>
