<svg xmlns="http://www.w3.org/2000/svg" viewBox="0 0 1 1" preserveAspectRatio="xMidYMid meet">
  <path d="M0.752 0.822Q0.752 0.858 0.728 0.882Q0.704 0.906 0.668 0.906Q0.591 0.906 0.539 0.855Q0.487 0.803 0.487 0.727V0.634Q0.469 0.637 0.451 0.637Q0.433 0.637 0.416 0.630V0.682Q0.416 0.718 0.392 0.742Q0.368 0.766 0.332 0.766Q0.295 0.766 0.272 0.742Q0.248 0.718 0.248 0.682V0.369Q0.248 0.282 0.306 0.224Q0.365 0.165 0.451 0.165Q0.538 0.165 0.597 0.224Q0.656 0.283 0.656 0.369V0.663Q0.656 0.674 0.665 0.674Q0.703 0.674 0.727 0.697Q0.752 0.721 0.752 0.758Q0.752 0.775 0.747 0.789Q0.752 0.805 0.752 0.822ZM0.467 0.401Q0.460 0.398 0.451 0.398Q0.436 0.398 0.426 0.408Q0.441 0.408 0.467 0.401ZM0.711 0.758Q0.711 0.739 0.699 0.727Q0.687 0.715 0.668 0.715H0.665Q0.643 0.715 0.629 0.700Q0.614 0.685 0.614 0.663V0.369Q0.614 0.300 0.567 0.253Q0.521 0.207 0.451 0.207Q0.382 0.207 0.336 0.253Q0.289 0.300 0.289 0.369V0.618Q0.289 0.637 0.301 0.649Q0.313 0.661 0.332 0.661Q0.351 0.661 0.363 0.649Q0.375 0.637 0.375 0.618V0.369Q0.375 0.337 0.397 0.315Q0.420 0.293 0.451 0.293Q0.483 0.293 0.506 0.315Q0.528 0.337 0.528 0.369Q0.528 0.401 0.506 0.423Q0.483 0.446 0.451 0.446Q0.432 0.446 0.420 0.458Q0.409 0.469 0.409 0.489Q0.409 0.508 0.420 0.520Q0.432 0.532 0.451 0.532Q0.492 0.532 0.528 0.513V0.663Q0.528 0.722 0.567 0.761Q0.607 0.801 0.665 0.801H0.668Q0.687 0.801 0.699 0.789Q0.711 0.777 0.711 0.758Z" fill="black"/>
</svg>
