<svg xmlns="http://www.w3.org/2000/svg" viewBox="0 0 1 1" preserveAspectRatio="xMidYMid meet">
  <path d="M0.704 0.562Q0.704 0.648 0.644 0.707Q0.585 0.766 0.500 0.766Q0.414 0.766 0.355 0.707Q0.296 0.648 0.296 0.562V0.249Q0.296 0.214 0.320 0.190Q0.344 0.165 0.380 0.165Q0.416 0.165 0.441 0.189Q0.465 0.213 0.465 0.249V0.302Q0.481 0.295 0.500 0.295Q0.586 0.295 0.645 0.353Q0.704 0.412 0.704 0.499Q0.704 0.515 0.701 0.531Q0.704 0.546 0.704 0.562ZM0.663 0.499Q0.663 0.429 0.616 0.383Q0.569 0.336 0.500 0.336Q0.481 0.336 0.469 0.348Q0.457 0.360 0.457 0.379Q0.457 0.398 0.469 0.410Q0.481 0.422 0.500 0.422Q0.531 0.422 0.554 0.444Q0.577 0.467 0.577 0.499Q0.577 0.531 0.554 0.553Q0.531 0.575 0.500 0.575Q0.468 0.575 0.446 0.553Q0.423 0.531 0.423 0.499V0.249Q0.423 0.230 0.411 0.219Q0.399 0.207 0.380 0.207Q0.362 0.207 0.350 0.219Q0.337 0.231 0.337 0.249V0.499Q0.337 0.567 0.384 0.614Q0.431 0.661 0.500 0.661Q0.568 0.661 0.615 0.614Q0.663 0.567 0.663 0.499ZM0.516 0.531Q0.509 0.527 0.495 0.526Q0.480 0.525 0.474 0.523Q0.484 0.534 0.500 0.534Q0.508 0.534 0.516 0.531Z" fill="black"/>
</svg>
