<svg xmlns="http://www.w3.org/2000/svg" viewBox="0 0 1 1" preserveAspectRatio="xMidYMid meet">
  <path d="M0.644 0.682Q0.644 0.718 0.620 0.742Q0.595 0.766 0.559 0.766Q0.474 0.766 0.415 0.707Q0.356 0.648 0.356 0.562Q0.356 0.546 0.358 0.531Q0.356 0.515 0.356 0.499Q0.356 0.412 0.414 0.353Q0.473 0.295 0.559 0.295Q0.596 0.295 0.620 0.319Q0.644 0.343 0.644 0.379Q0.644 0.396 0.638 0.411Q0.644 0.426 0.644 0.443Q0.644 0.479 0.620 0.503Q0.596 0.527 0.559 0.527Q0.551 0.527 0.544 0.531Q0.551 0.534 0.559 0.534Q0.596 0.534 0.620 0.558Q0.644 0.582 0.644 0.618Q0.644 0.635 0.638 0.650Q0.644 0.665 0.644 0.682ZM0.603 0.618Q0.603 0.599 0.591 0.587Q0.579 0.575 0.559 0.575Q0.528 0.575 0.505 0.553Q0.483 0.531 0.483 0.499Q0.483 0.467 0.505 0.444Q0.528 0.422 0.559 0.422Q0.579 0.422 0.591 0.410Q0.603 0.398 0.603 0.379Q0.603 0.360 0.591 0.348Q0.579 0.336 0.559 0.336Q0.490 0.336 0.444 0.383Q0.397 0.429 0.397 0.499Q0.397 0.567 0.444 0.614Q0.491 0.661 0.559 0.661Q0.579 0.661 0.591 0.649Q0.603 0.637 0.603 0.618Z" fill="black"/>
</svg>
