<svg xmlns="http://www.w3.org/2000/svg" viewBox="0 0 1 1" preserveAspectRatio="xMidYMid meet">
  <path d="M0.677 0.683Q0.677 0.719 0.652 0.743Q0.628 0.767 0.592 0.767Q0.479 0.767 0.401 0.689Q0.323 0.611 0.323 0.498Q0.323 0.482 0.325 0.466Q0.323 0.450 0.323 0.434Q0.323 0.321 0.401 0.243Q0.479 0.165 0.592 0.165Q0.628 0.165 0.653 0.189Q0.677 0.213 0.677 0.249Q0.677 0.266 0.671 0.281Q0.677 0.296 0.677 0.313Q0.677 0.349 0.653 0.373Q0.628 0.398 0.593 0.398Q0.558 0.398 0.532 0.416Q0.506 0.435 0.496 0.466Q0.506 0.497 0.532 0.516Q0.558 0.535 0.593 0.535Q0.628 0.535 0.653 0.559Q0.677 0.583 0.677 0.620Q0.677 0.637 0.671 0.651Q0.677 0.667 0.677 0.683ZM0.635 0.620Q0.635 0.601 0.623 0.588Q0.611 0.576 0.592 0.576Q0.532 0.576 0.491 0.536Q0.450 0.495 0.450 0.434Q0.450 0.374 0.491 0.333Q0.532 0.293 0.592 0.293Q0.611 0.293 0.623 0.281Q0.635 0.268 0.635 0.249Q0.635 0.230 0.623 0.219Q0.611 0.207 0.592 0.207Q0.496 0.207 0.430 0.273Q0.365 0.338 0.365 0.434Q0.365 0.531 0.430 0.596Q0.496 0.662 0.592 0.662Q0.611 0.662 0.623 0.650Q0.635 0.639 0.635 0.620Z" fill="black"/>
</svg>
