<svg xmlns="http://www.w3.org/2000/svg" viewBox="0 0 1 1" preserveAspectRatio="xMidYMid meet">
  <path d="M0.704 0.562Q0.704 0.648 0.644 0.707Q0.585 0.766 0.500 0.766Q0.414 0.766 0.355 0.707Q0.296 0.648 0.296 0.562Q0.296 0.546 0.299 0.531Q0.296 0.515 0.296 0.499Q0.296 0.412 0.355 0.353Q0.413 0.295 0.500 0.295Q0.519 0.295 0.535 0.302V0.249Q0.535 0.214 0.559 0.190Q0.584 0.165 0.619 0.165Q0.656 0.165 0.680 0.189Q0.704 0.213 0.704 0.249ZM0.663 0.499V0.249Q0.663 0.230 0.650 0.219Q0.638 0.207 0.619 0.207Q0.601 0.207 0.589 0.219Q0.577 0.231 0.577 0.249V0.499Q0.577 0.531 0.554 0.553Q0.531 0.575 0.500 0.575Q0.468 0.575 0.446 0.553Q0.423 0.531 0.423 0.499Q0.423 0.467 0.446 0.444Q0.468 0.422 0.500 0.422Q0.519 0.422 0.531 0.410Q0.543 0.398 0.543 0.379Q0.543 0.360 0.531 0.348Q0.519 0.336 0.500 0.336Q0.430 0.336 0.384 0.383Q0.337 0.429 0.337 0.499Q0.337 0.567 0.384 0.614Q0.431 0.661 0.500 0.661Q0.568 0.661 0.615 0.614Q0.663 0.567 0.663 0.499ZM0.525 0.523Q0.510 0.524 0.484 0.531Q0.491 0.534 0.500 0.534Q0.515 0.534 0.525 0.523Z" fill="black"/>
</svg>
