<svg xmlns="http://www.w3.org/2000/svg" viewBox="0 0 1 1" preserveAspectRatio="xMidYMid meet">
  <path d="M0.724 0.498Q0.724 0.611 0.646 0.689Q0.568 0.767 0.455 0.767Q0.427 0.767 0.406 0.753Q0.386 0.766 0.360 0.766Q0.324 0.766 0.300 0.742Q0.276 0.718 0.276 0.682V0.249Q0.276 0.215 0.301 0.190Q0.326 0.165 0.360 0.165H0.455Q0.569 0.165 0.646 0.243Q0.724 0.321 0.724 0.434Q0.724 0.451 0.722 0.467Q0.724 0.482 0.724 0.498ZM0.683 0.434Q0.683 0.338 0.617 0.272Q0.552 0.207 0.455 0.207H0.360Q0.343 0.207 0.330 0.219Q0.317 0.232 0.317 0.249V0.618Q0.317 0.637 0.329 0.649Q0.341 0.661 0.360 0.661Q0.379 0.661 0.391 0.649Q0.403 0.637 0.403 0.618V0.293H0.455Q0.516 0.293 0.556 0.333Q0.597 0.373 0.597 0.434Q0.597 0.495 0.556 0.536Q0.515 0.576 0.455 0.576Q0.436 0.576 0.424 0.588Q0.412 0.601 0.412 0.620Q0.412 0.639 0.424 0.650Q0.436 0.662 0.455 0.662Q0.552 0.662 0.617 0.597Q0.683 0.531 0.683 0.434ZM0.551 0.466Q0.541 0.435 0.516 0.416Q0.490 0.398 0.455 0.398H0.445V0.536Q0.450 0.535 0.455 0.535Q0.489 0.535 0.515 0.516Q0.541 0.497 0.551 0.466Z" fill="black"/>
</svg>
