<svg xmlns="http://www.w3.org/2000/svg" viewBox="0 0 1 1" preserveAspectRatio="xMidYMid meet">
  <path d="M0.688 0.480Q0.688 0.520 0.655 0.546Q0.650 0.551 0.637 0.564Q0.656 0.587 0.656 0.619Q0.656 0.635 0.651 0.651Q0.656 0.666 0.656 0.683Q0.656 0.719 0.633 0.743Q0.609 0.767 0.573 0.767H0.516Q0.430 0.767 0.371 0.708Q0.312 0.649 0.312 0.563Q0.312 0.547 0.315 0.531Q0.312 0.515 0.312 0.499Q0.312 0.413 0.371 0.354Q0.429 0.296 0.516 0.296Q0.573 0.296 0.626 0.327Q0.688 0.363 0.688 0.416Q0.688 0.433 0.681 0.448Q0.688 0.463 0.688 0.480ZM0.646 0.416Q0.646 0.400 0.634 0.387Q0.585 0.337 0.516 0.337Q0.447 0.337 0.400 0.384Q0.354 0.430 0.354 0.499Q0.354 0.569 0.400 0.615Q0.447 0.662 0.516 0.662H0.573Q0.592 0.662 0.603 0.650Q0.615 0.638 0.615 0.619Q0.615 0.600 0.603 0.588Q0.592 0.576 0.573 0.576H0.516Q0.484 0.576 0.462 0.554Q0.440 0.531 0.440 0.499Q0.440 0.468 0.462 0.445Q0.484 0.423 0.516 0.423Q0.524 0.423 0.532 0.424L0.487 0.469Q0.473 0.483 0.473 0.499Q0.473 0.517 0.486 0.531Q0.499 0.544 0.517 0.544Q0.532 0.544 0.546 0.531L0.628 0.451Q0.646 0.437 0.646 0.416Z" fill="black"/>
</svg>
