<svg xmlns="http://www.w3.org/2000/svg" viewBox="0 0 1 1" preserveAspectRatio="xMidYMid meet">
  <path d="M0.677 0.683Q0.677 0.719 0.653 0.743Q0.628 0.767 0.592 0.767Q0.479 0.767 0.401 0.689Q0.323 0.611 0.323 0.498Q0.323 0.482 0.325 0.466Q0.323 0.450 0.323 0.434Q0.323 0.321 0.401 0.243Q0.479 0.165 0.592 0.165Q0.628 0.165 0.653 0.189Q0.677 0.213 0.677 0.249Q0.677 0.266 0.671 0.281Q0.677 0.296 0.677 0.313Q0.677 0.348 0.654 0.372Q0.677 0.396 0.677 0.431Q0.677 0.448 0.671 0.463Q0.677 0.478 0.677 0.495Q0.677 0.533 0.651 0.557Q0.677 0.581 0.677 0.620Q0.677 0.636 0.671 0.651Q0.677 0.667 0.677 0.683ZM0.635 0.620Q0.635 0.601 0.623 0.588Q0.611 0.576 0.592 0.576Q0.545 0.576 0.507 0.548Q0.469 0.520 0.456 0.475H0.592Q0.611 0.475 0.623 0.462Q0.635 0.450 0.635 0.431Q0.635 0.412 0.623 0.400Q0.611 0.389 0.592 0.389H0.458Q0.473 0.345 0.510 0.319Q0.546 0.293 0.592 0.293Q0.611 0.293 0.623 0.281Q0.635 0.268 0.635 0.249Q0.635 0.230 0.623 0.219Q0.611 0.207 0.592 0.207Q0.496 0.207 0.430 0.273Q0.365 0.338 0.365 0.434Q0.365 0.531 0.430 0.596Q0.496 0.662 0.592 0.662Q0.611 0.662 0.623 0.650Q0.635 0.639 0.635 0.620Z" fill="black"/>
</svg>
