<svg xmlns="http://www.w3.org/2000/svg" viewBox="0 0 1 1" preserveAspectRatio="xMidYMid meet">
  <path d="M0.680 0.542Q0.680 0.578 0.656 0.602Q0.632 0.626 0.596 0.626H0.489V0.682Q0.489 0.718 0.465 0.742Q0.441 0.766 0.404 0.766Q0.368 0.766 0.344 0.742Q0.320 0.718 0.320 0.682V0.344Q0.320 0.268 0.372 0.217Q0.423 0.165 0.499 0.165Q0.574 0.165 0.626 0.217Q0.677 0.269 0.677 0.344V0.349Q0.677 0.361 0.674 0.373Q0.677 0.390 0.677 0.408V0.412Q0.677 0.428 0.672 0.442Q0.680 0.459 0.680 0.478Q0.680 0.496 0.674 0.510Q0.680 0.525 0.680 0.542ZM0.638 0.478Q0.638 0.459 0.627 0.447Q0.615 0.435 0.596 0.435H0.448V0.344Q0.448 0.323 0.462 0.308Q0.477 0.293 0.499 0.293Q0.521 0.293 0.535 0.308Q0.550 0.323 0.550 0.344V0.349Q0.550 0.367 0.562 0.379Q0.575 0.392 0.593 0.392Q0.612 0.392 0.624 0.380Q0.636 0.368 0.636 0.349V0.344Q0.636 0.286 0.597 0.246Q0.558 0.207 0.499 0.207Q0.440 0.207 0.401 0.246Q0.362 0.285 0.362 0.344V0.618Q0.362 0.637 0.373 0.649Q0.385 0.661 0.404 0.661Q0.423 0.661 0.435 0.649Q0.448 0.637 0.448 0.618V0.521H0.596Q0.615 0.521 0.627 0.509Q0.638 0.497 0.638 0.478Z" fill="black"/>
</svg>
