<svg xmlns="http://www.w3.org/2000/svg" viewBox="0 0 1 1" preserveAspectRatio="xMidYMid meet">
  <path d="M0.661 0.511Q0.661 0.547 0.637 0.571Q0.613 0.595 0.577 0.595H0.507V0.682Q0.507 0.718 0.483 0.742Q0.459 0.766 0.423 0.766Q0.386 0.766 0.363 0.742Q0.339 0.718 0.339 0.682V0.344Q0.339 0.268 0.390 0.217Q0.442 0.165 0.517 0.165H0.577Q0.613 0.165 0.637 0.189Q0.661 0.213 0.661 0.249Q0.661 0.266 0.656 0.281Q0.661 0.296 0.661 0.313Q0.661 0.356 0.629 0.380Q0.661 0.405 0.661 0.447Q0.661 0.464 0.656 0.479Q0.661 0.494 0.661 0.511ZM0.620 0.447Q0.620 0.428 0.608 0.416Q0.596 0.405 0.577 0.405H0.466V0.344Q0.466 0.323 0.481 0.308Q0.496 0.293 0.517 0.293H0.577Q0.596 0.293 0.608 0.281Q0.620 0.268 0.620 0.249Q0.620 0.230 0.608 0.219Q0.596 0.207 0.577 0.207H0.517Q0.458 0.207 0.419 0.246Q0.380 0.285 0.380 0.344V0.618Q0.380 0.637 0.392 0.649Q0.404 0.661 0.423 0.661Q0.442 0.661 0.454 0.649Q0.466 0.637 0.466 0.618V0.490H0.577Q0.596 0.490 0.608 0.478Q0.620 0.466 0.620 0.447Z" fill="black"/>
</svg>
