<svg xmlns="http://www.w3.org/2000/svg" viewBox="0 0 1 1" preserveAspectRatio="xMidYMid meet">
  <path d="M0.704 0.901Q0.704 0.987 0.645 1.000Q0.586 1.000 0.500 1.000Q0.414 1.000 0.355 1.000Q0.296 0.987 0.296 0.901Q0.296 0.885 0.299 0.870Q0.296 0.854 0.296 0.838Q0.296 0.758 0.348 0.700Q0.296 0.643 0.296 0.563Q0.296 0.547 0.299 0.531Q0.296 0.515 0.296 0.499Q0.296 0.413 0.355 0.354Q0.413 0.296 0.500 0.296Q0.587 0.296 0.645 0.354Q0.704 0.413 0.704 0.499V0.716Q0.704 0.753 0.687 0.786Q0.704 0.808 0.704 0.838Q0.704 0.858 0.700 0.876Q0.704 0.888 0.704 0.901ZM0.525 0.538Q0.515 0.528 0.500 0.528Q0.492 0.528 0.485 0.531Q0.491 0.534 0.505 0.536Q0.520 0.537 0.525 0.538ZM0.662 0.838Q0.662 0.819 0.650 0.807Q0.639 0.795 0.620 0.795Q0.601 0.795 0.589 0.807Q0.576 0.819 0.576 0.838Q0.576 0.870 0.554 0.892Q0.532 0.914 0.500 0.914Q0.468 0.914 0.446 0.892Q0.424 0.870 0.424 0.838Q0.424 0.806 0.446 0.783Q0.468 0.761 0.500 0.761H0.555Q0.600 0.761 0.631 0.729Q0.662 0.698 0.662 0.653V0.499Q0.662 0.430 0.616 0.384Q0.569 0.337 0.500 0.337Q0.431 0.337 0.384 0.384Q0.338 0.430 0.338 0.499Q0.338 0.569 0.384 0.615Q0.431 0.662 0.500 0.662Q0.519 0.662 0.531 0.650Q0.543 0.638 0.543 0.619Q0.543 0.600 0.531 0.588Q0.519 0.576 0.500 0.576Q0.468 0.576 0.446 0.554Q0.424 0.531 0.424 0.499Q0.424 0.468 0.446 0.445Q0.468 0.423 0.500 0.423Q0.532 0.423 0.554 0.445Q0.576 0.468 0.576 0.499V0.653Q0.576 0.662 0.570 0.668Q0.564 0.675 0.555 0.675H0.499Q0.431 0.675 0.384 0.722Q0.338 0.769 0.338 0.838Q0.338 0.906 0.385 0.953Q0.431 1.000 0.500 1.000Q0.569 1.000 0.615 0.953Q0.662 0.906 0.662 0.838ZM0.522 0.866H0.500Q0.492 0.866 0.485 0.870Q0.492 0.873 0.500 0.873Q0.512 0.873 0.522 0.866Z" fill="black"/>
</svg>
