<svg xmlns="http://www.w3.org/2000/svg" viewBox="0 0 1 1" preserveAspectRatio="xMidYMid meet">
  <path d="M0.769 0.498Q0.769 0.611 0.691 0.689Q0.613 0.767 0.500 0.767Q0.387 0.767 0.309 0.689Q0.231 0.611 0.231 0.498Q0.231 0.482 0.233 0.466Q0.231 0.450 0.231 0.434Q0.231 0.321 0.309 0.243Q0.387 0.165 0.500 0.165Q0.568 0.165 0.640 0.204Q0.723 0.249 0.723 0.311Q0.723 0.328 0.717 0.343Q0.720 0.351 0.721 0.359Q0.769 0.382 0.769 0.434Q0.769 0.455 0.766 0.476Q0.769 0.487 0.769 0.498ZM0.728 0.434Q0.728 0.417 0.715 0.404Q0.702 0.391 0.685 0.391H0.549Q0.530 0.391 0.518 0.403Q0.506 0.415 0.506 0.434Q0.506 0.453 0.518 0.465Q0.530 0.477 0.549 0.477H0.635Q0.622 0.522 0.584 0.549Q0.547 0.576 0.500 0.576Q0.440 0.576 0.399 0.536Q0.358 0.495 0.358 0.434Q0.358 0.373 0.399 0.333Q0.439 0.293 0.500 0.293Q0.564 0.293 0.606 0.340Q0.620 0.355 0.637 0.355Q0.655 0.355 0.669 0.342Q0.682 0.329 0.682 0.311Q0.682 0.296 0.670 0.283Q0.601 0.207 0.500 0.207Q0.404 0.207 0.338 0.273Q0.272 0.338 0.272 0.434Q0.272 0.531 0.338 0.596Q0.404 0.662 0.500 0.662Q0.596 0.662 0.662 0.596Q0.728 0.531 0.728 0.434ZM0.471 0.531Q0.465 0.515 0.465 0.497Q0.465 0.481 0.471 0.466Q0.465 0.450 0.465 0.434Q0.465 0.417 0.471 0.401Q0.420 0.415 0.404 0.466Q0.420 0.517 0.471 0.531Z" fill="black"/>
</svg>
