<svg xmlns="http://www.w3.org/2000/svg" viewBox="0 0 1 1" preserveAspectRatio="xMidYMid meet">
  <path d="M0.727 0.822Q0.727 0.858 0.703 0.882Q0.679 0.906 0.643 0.906Q0.566 0.906 0.514 0.855Q0.462 0.803 0.462 0.727L0.461 0.538Q0.461 0.528 0.452 0.528Q0.441 0.528 0.441 0.538V0.682Q0.441 0.718 0.417 0.742Q0.393 0.766 0.357 0.766Q0.321 0.766 0.297 0.742Q0.273 0.718 0.273 0.682V0.249Q0.273 0.213 0.297 0.189Q0.321 0.165 0.357 0.165Q0.393 0.165 0.417 0.189Q0.441 0.213 0.441 0.249V0.296Q0.447 0.296 0.452 0.296Q0.527 0.296 0.579 0.347Q0.630 0.399 0.630 0.474V0.663Q0.630 0.674 0.641 0.674Q0.678 0.674 0.703 0.698Q0.727 0.721 0.727 0.758Q0.727 0.775 0.721 0.790Q0.727 0.805 0.727 0.822ZM0.686 0.758Q0.686 0.739 0.674 0.727Q0.662 0.715 0.643 0.715H0.641Q0.619 0.715 0.604 0.700Q0.589 0.685 0.589 0.663V0.474Q0.589 0.415 0.550 0.376Q0.510 0.337 0.452 0.337Q0.424 0.337 0.400 0.347V0.249Q0.400 0.230 0.388 0.219Q0.376 0.207 0.357 0.207Q0.338 0.207 0.326 0.219Q0.314 0.230 0.314 0.249V0.618Q0.314 0.637 0.326 0.649Q0.338 0.661 0.357 0.661Q0.376 0.661 0.388 0.649Q0.400 0.637 0.400 0.618V0.474Q0.400 0.452 0.415 0.438Q0.430 0.423 0.452 0.423Q0.473 0.423 0.488 0.438Q0.503 0.453 0.503 0.474L0.503 0.663Q0.503 0.722 0.543 0.761Q0.582 0.801 0.641 0.801H0.643Q0.662 0.801 0.674 0.789Q0.686 0.777 0.686 0.758Z" fill="black"/>
</svg>
