<svg xmlns="http://www.w3.org/2000/svg" viewBox="0 0 1 1" preserveAspectRatio="xMidYMid meet">
  <path d="M0.764 0.822Q0.764 0.858 0.739 0.882Q0.715 0.906 0.679 0.906Q0.602 0.906 0.549 0.855Q0.497 0.804 0.497 0.727V0.564H0.405V0.682Q0.405 0.718 0.381 0.742Q0.357 0.766 0.320 0.766Q0.284 0.766 0.260 0.742Q0.236 0.718 0.236 0.682V0.249Q0.236 0.213 0.260 0.189Q0.284 0.165 0.320 0.165Q0.357 0.165 0.381 0.189Q0.405 0.213 0.405 0.249V0.331H0.497V0.249Q0.497 0.213 0.520 0.189Q0.544 0.165 0.580 0.165Q0.617 0.165 0.641 0.189Q0.665 0.213 0.665 0.249V0.663Q0.665 0.674 0.675 0.674Q0.713 0.674 0.739 0.697Q0.764 0.721 0.764 0.758Q0.764 0.775 0.758 0.790Q0.764 0.805 0.764 0.822ZM0.722 0.758Q0.722 0.739 0.710 0.727Q0.698 0.715 0.679 0.715H0.675Q0.654 0.715 0.639 0.700Q0.624 0.685 0.624 0.663V0.249Q0.624 0.230 0.612 0.219Q0.600 0.207 0.580 0.207Q0.561 0.207 0.550 0.219Q0.538 0.230 0.538 0.249V0.373H0.364V0.249Q0.364 0.230 0.351 0.219Q0.339 0.207 0.320 0.207Q0.301 0.207 0.289 0.219Q0.278 0.230 0.278 0.249V0.618Q0.278 0.637 0.289 0.649Q0.301 0.661 0.320 0.661Q0.339 0.661 0.351 0.649Q0.364 0.637 0.364 0.618V0.459H0.538V0.663Q0.538 0.722 0.577 0.761Q0.617 0.801 0.675 0.801H0.679Q0.698 0.801 0.710 0.789Q0.722 0.777 0.722 0.758Z" fill="black"/>
</svg>
