<svg xmlns="http://www.w3.org/2000/svg" viewBox="0 0 1 1" preserveAspectRatio="xMidYMid meet">
  <path d="M0.594 0.317Q0.594 0.342 0.583 0.362Q0.585 0.370 0.585 0.380V0.682Q0.585 0.718 0.560 0.742Q0.536 0.766 0.500 0.766Q0.464 0.766 0.440 0.742Q0.416 0.718 0.416 0.682V0.380Q0.416 0.371 0.417 0.363Q0.406 0.342 0.406 0.317Q0.406 0.301 0.412 0.286Q0.406 0.270 0.406 0.254Q0.406 0.215 0.434 0.187Q0.461 0.160 0.500 0.160Q0.539 0.160 0.566 0.187Q0.594 0.215 0.594 0.254Q0.594 0.270 0.588 0.286Q0.594 0.301 0.594 0.317ZM0.553 0.254Q0.553 0.232 0.537 0.217Q0.522 0.201 0.500 0.201Q0.478 0.201 0.463 0.217Q0.447 0.232 0.447 0.254Q0.447 0.275 0.463 0.291Q0.478 0.307 0.500 0.307Q0.522 0.307 0.537 0.291Q0.553 0.275 0.553 0.254ZM0.543 0.618V0.380Q0.543 0.337 0.500 0.337Q0.481 0.337 0.469 0.349Q0.457 0.361 0.457 0.380V0.618Q0.457 0.637 0.469 0.649Q0.481 0.661 0.500 0.661Q0.519 0.661 0.531 0.649Q0.543 0.637 0.543 0.618Z" fill="black"/>
</svg>
