<svg xmlns="http://www.w3.org/2000/svg" viewBox="0 0 1 1" preserveAspectRatio="xMidYMid meet">
  <path d="M0.638 0.317Q0.638 0.342 0.627 0.362Q0.628 0.370 0.628 0.380V0.727Q0.628 0.802 0.576 0.854Q0.524 0.906 0.449 0.906Q0.412 0.906 0.387 0.882Q0.362 0.859 0.362 0.822Q0.362 0.805 0.368 0.790Q0.362 0.775 0.362 0.758Q0.362 0.722 0.386 0.698Q0.411 0.674 0.447 0.674Q0.460 0.674 0.460 0.663V0.380Q0.460 0.371 0.461 0.363Q0.449 0.342 0.449 0.317Q0.449 0.301 0.455 0.286Q0.449 0.270 0.449 0.254Q0.449 0.215 0.477 0.187Q0.505 0.160 0.544 0.160Q0.582 0.160 0.610 0.187Q0.638 0.215 0.638 0.254Q0.638 0.271 0.632 0.286Q0.638 0.301 0.638 0.317ZM0.596 0.254Q0.596 0.232 0.581 0.217Q0.565 0.201 0.544 0.201Q0.522 0.201 0.506 0.217Q0.491 0.232 0.491 0.254Q0.491 0.275 0.506 0.291Q0.522 0.307 0.544 0.307Q0.565 0.307 0.581 0.291Q0.596 0.275 0.596 0.254ZM0.587 0.663V0.380Q0.587 0.337 0.544 0.337Q0.524 0.337 0.513 0.349Q0.501 0.361 0.501 0.380V0.663Q0.501 0.685 0.486 0.700Q0.471 0.715 0.449 0.715H0.447Q0.428 0.715 0.416 0.727Q0.404 0.739 0.404 0.758Q0.404 0.777 0.416 0.789Q0.428 0.801 0.447 0.801H0.449Q0.508 0.801 0.547 0.761Q0.587 0.722 0.587 0.663Z" fill="black"/>
</svg>
