<svg xmlns="http://www.w3.org/2000/svg" viewBox="0 0 1 1" preserveAspectRatio="xMidYMid meet">
  <path d="M0.682 0.585Q0.682 0.662 0.629 0.714Q0.576 0.767 0.500 0.767Q0.423 0.767 0.371 0.714Q0.318 0.662 0.318 0.585Q0.318 0.572 0.322 0.559Q0.318 0.541 0.318 0.522Q0.318 0.485 0.343 0.462Q0.367 0.438 0.403 0.438Q0.439 0.438 0.463 0.462Q0.487 0.485 0.487 0.522Q0.487 0.535 0.500 0.535Q0.513 0.535 0.513 0.522V0.249Q0.513 0.213 0.537 0.189Q0.561 0.165 0.597 0.165Q0.633 0.165 0.657 0.189Q0.682 0.213 0.682 0.249ZM0.640 0.522V0.249Q0.640 0.230 0.628 0.219Q0.616 0.207 0.597 0.207Q0.578 0.207 0.566 0.219Q0.554 0.230 0.554 0.249V0.522Q0.554 0.545 0.538 0.560Q0.523 0.576 0.500 0.576Q0.477 0.576 0.461 0.560Q0.446 0.545 0.446 0.522Q0.446 0.503 0.434 0.491Q0.422 0.479 0.403 0.479Q0.384 0.479 0.372 0.491Q0.360 0.503 0.360 0.522Q0.360 0.581 0.400 0.622Q0.440 0.662 0.500 0.662Q0.559 0.662 0.600 0.622Q0.640 0.581 0.640 0.522Z" fill="black"/>
</svg>
