<svg xmlns="http://www.w3.org/2000/svg" viewBox="0 0 1 1" preserveAspectRatio="xMidYMid meet">
  <path d="M0.722 0.822Q0.722 0.858 0.698 0.882Q0.674 0.906 0.638 0.906Q0.561 0.906 0.509 0.855Q0.456 0.803 0.456 0.727V0.652Q0.456 0.642 0.446 0.642V0.682Q0.446 0.718 0.422 0.742Q0.398 0.766 0.362 0.766Q0.325 0.766 0.302 0.742Q0.278 0.718 0.278 0.682V0.251Q0.278 0.214 0.302 0.190Q0.325 0.166 0.362 0.166Q0.398 0.166 0.422 0.190Q0.446 0.214 0.446 0.251V0.352Q0.462 0.296 0.526 0.296Q0.563 0.296 0.587 0.320Q0.611 0.344 0.611 0.380Q0.611 0.399 0.607 0.417Q0.611 0.430 0.611 0.443Q0.611 0.473 0.602 0.500Q0.625 0.539 0.625 0.588V0.663Q0.625 0.674 0.635 0.674Q0.673 0.674 0.698 0.698Q0.722 0.721 0.722 0.758Q0.722 0.775 0.717 0.790Q0.722 0.805 0.722 0.822ZM0.681 0.758Q0.681 0.739 0.669 0.727Q0.657 0.715 0.638 0.715H0.635Q0.614 0.715 0.599 0.700Q0.584 0.685 0.584 0.663V0.588Q0.584 0.520 0.528 0.478Q0.570 0.438 0.570 0.380Q0.570 0.361 0.558 0.349Q0.545 0.337 0.526 0.337Q0.484 0.337 0.484 0.381Q0.484 0.402 0.469 0.417Q0.453 0.432 0.432 0.431L0.405 0.431V0.251Q0.405 0.232 0.393 0.219Q0.381 0.207 0.362 0.207Q0.343 0.207 0.331 0.219Q0.319 0.232 0.319 0.251V0.618Q0.319 0.637 0.331 0.649Q0.343 0.661 0.362 0.661Q0.381 0.661 0.393 0.649Q0.405 0.637 0.405 0.618V0.538H0.446Q0.468 0.538 0.483 0.552Q0.498 0.567 0.498 0.588V0.663Q0.498 0.722 0.537 0.761Q0.577 0.801 0.635 0.801H0.638Q0.657 0.801 0.669 0.789Q0.681 0.777 0.681 0.758Z" fill="black"/>
</svg>
