<svg xmlns="http://www.w3.org/2000/svg" viewBox="0 0 1 1" preserveAspectRatio="xMidYMid meet">
  <path d="M0.736 0.822Q0.736 0.858 0.712 0.882Q0.688 0.906 0.652 0.906Q0.575 0.906 0.523 0.855Q0.471 0.804 0.471 0.727V0.587Q0.471 0.577 0.461 0.577H0.433V0.682Q0.433 0.718 0.408 0.742Q0.384 0.766 0.348 0.766Q0.312 0.766 0.288 0.742Q0.264 0.718 0.264 0.682V0.251Q0.264 0.214 0.288 0.190Q0.312 0.166 0.348 0.166Q0.384 0.166 0.408 0.190Q0.433 0.214 0.433 0.251V0.308Q0.441 0.282 0.463 0.266Q0.485 0.250 0.513 0.250Q0.549 0.250 0.573 0.274Q0.597 0.298 0.597 0.335Q0.597 0.354 0.594 0.372Q0.597 0.384 0.597 0.398Q0.597 0.403 0.597 0.406Q0.639 0.454 0.639 0.523V0.663Q0.639 0.674 0.649 0.674Q0.688 0.674 0.712 0.697Q0.736 0.720 0.736 0.758Q0.736 0.775 0.731 0.789Q0.736 0.804 0.736 0.822ZM0.695 0.758Q0.695 0.715 0.652 0.715H0.649Q0.628 0.715 0.613 0.700Q0.598 0.685 0.598 0.663V0.523Q0.598 0.448 0.535 0.408Q0.556 0.374 0.556 0.335Q0.556 0.316 0.544 0.303Q0.532 0.291 0.513 0.291Q0.494 0.291 0.482 0.303Q0.470 0.316 0.470 0.334Q0.470 0.354 0.457 0.369Q0.444 0.384 0.424 0.386L0.391 0.385V0.251Q0.391 0.232 0.379 0.219Q0.367 0.207 0.348 0.207Q0.329 0.207 0.317 0.219Q0.305 0.232 0.305 0.251V0.618Q0.305 0.637 0.317 0.649Q0.329 0.661 0.348 0.661Q0.367 0.661 0.379 0.649Q0.391 0.637 0.391 0.618V0.472H0.461Q0.482 0.472 0.497 0.487Q0.512 0.502 0.512 0.523V0.663Q0.512 0.723 0.551 0.762Q0.590 0.801 0.649 0.801H0.652Q0.671 0.801 0.683 0.789Q0.695 0.777 0.695 0.758Z" fill="black"/>
</svg>
