<svg xmlns="http://www.w3.org/2000/svg" viewBox="0 0 1 1" preserveAspectRatio="xMidYMid meet">
  <path d="M0.584 0.682Q0.584 0.718 0.560 0.742Q0.535 0.766 0.500 0.766Q0.463 0.766 0.440 0.742Q0.416 0.718 0.416 0.682V0.251Q0.416 0.214 0.440 0.191Q0.463 0.167 0.500 0.167Q0.538 0.167 0.561 0.189Q0.584 0.212 0.584 0.251ZM0.543 0.618V0.251Q0.543 0.208 0.500 0.208Q0.481 0.208 0.469 0.220Q0.457 0.232 0.457 0.251V0.618Q0.457 0.637 0.469 0.649Q0.481 0.661 0.500 0.661Q0.519 0.661 0.531 0.649Q0.543 0.637 0.543 0.618Z" fill="black"/>
</svg>
