<svg xmlns="http://www.w3.org/2000/svg" viewBox="0 0 1 1" preserveAspectRatio="xMidYMid meet">
  <path d="M0.645 0.682Q0.645 0.718 0.622 0.742Q0.598 0.766 0.561 0.766H0.533Q0.458 0.766 0.406 0.714Q0.355 0.663 0.355 0.587V0.249Q0.355 0.213 0.378 0.189Q0.402 0.165 0.439 0.165Q0.475 0.165 0.499 0.189Q0.523 0.213 0.523 0.249V0.524Q0.523 0.534 0.533 0.534H0.561Q0.598 0.534 0.622 0.558Q0.645 0.582 0.645 0.618Q0.645 0.635 0.640 0.650Q0.645 0.665 0.645 0.682ZM0.604 0.618Q0.604 0.599 0.592 0.587Q0.580 0.575 0.561 0.575H0.533Q0.512 0.575 0.497 0.560Q0.482 0.545 0.482 0.524V0.249Q0.482 0.230 0.470 0.219Q0.458 0.207 0.439 0.207Q0.420 0.207 0.408 0.219Q0.396 0.230 0.396 0.249V0.524Q0.396 0.583 0.435 0.622Q0.474 0.661 0.533 0.661H0.561Q0.580 0.661 0.592 0.649Q0.604 0.637 0.604 0.618Z" fill="black"/>
</svg>
