<svg xmlns="http://www.w3.org/2000/svg" viewBox="0 0 1 1" preserveAspectRatio="xMidYMid meet">
  <path d="M0.816 0.822Q0.816 0.858 0.792 0.882Q0.768 0.906 0.732 0.906Q0.655 0.906 0.603 0.855Q0.550 0.803 0.550 0.727V0.408Q0.550 0.398 0.541 0.398V0.682Q0.541 0.718 0.517 0.742Q0.493 0.766 0.457 0.766Q0.420 0.766 0.397 0.742Q0.373 0.718 0.373 0.682V0.408Q0.373 0.398 0.363 0.398Q0.352 0.398 0.352 0.408V0.682Q0.352 0.718 0.329 0.742Q0.305 0.766 0.268 0.766Q0.232 0.766 0.208 0.742Q0.184 0.718 0.184 0.682V0.344Q0.184 0.269 0.236 0.217Q0.288 0.165 0.363 0.165Q0.411 0.165 0.452 0.189Q0.492 0.165 0.541 0.165Q0.616 0.165 0.667 0.217Q0.719 0.269 0.719 0.344V0.663Q0.719 0.674 0.729 0.674Q0.767 0.674 0.791 0.698Q0.816 0.721 0.816 0.758Q0.816 0.775 0.810 0.790Q0.816 0.805 0.816 0.822ZM0.775 0.758Q0.775 0.739 0.763 0.727Q0.751 0.715 0.732 0.715H0.729Q0.707 0.715 0.692 0.700Q0.677 0.685 0.677 0.663V0.344Q0.677 0.286 0.638 0.246Q0.599 0.207 0.541 0.207Q0.490 0.207 0.452 0.240Q0.413 0.207 0.363 0.207Q0.304 0.207 0.265 0.246Q0.225 0.286 0.225 0.344V0.618Q0.225 0.637 0.237 0.649Q0.249 0.661 0.268 0.661Q0.288 0.661 0.299 0.649Q0.311 0.637 0.311 0.618V0.344Q0.311 0.323 0.326 0.308Q0.341 0.293 0.363 0.293Q0.384 0.293 0.399 0.308Q0.414 0.323 0.414 0.344V0.618Q0.414 0.637 0.426 0.649Q0.438 0.661 0.457 0.661Q0.476 0.661 0.488 0.649Q0.500 0.637 0.500 0.618V0.313Q0.515 0.293 0.541 0.293Q0.562 0.293 0.577 0.308Q0.592 0.323 0.592 0.344V0.663Q0.592 0.722 0.631 0.761Q0.670 0.801 0.729 0.801H0.732Q0.751 0.801 0.763 0.789Q0.775 0.777 0.775 0.758Z" fill="black"/>
</svg>
