<svg xmlns="http://www.w3.org/2000/svg" viewBox="0 0 1 1" preserveAspectRatio="xMidYMid meet">
  <path d="M0.727 0.822Q0.727 0.858 0.703 0.882Q0.678 0.906 0.643 0.906Q0.566 0.906 0.514 0.855Q0.462 0.804 0.462 0.727V0.690L0.461 0.408Q0.461 0.398 0.451 0.398Q0.441 0.398 0.441 0.408V0.682Q0.441 0.718 0.417 0.742Q0.393 0.766 0.357 0.766Q0.320 0.766 0.296 0.742Q0.273 0.718 0.273 0.682V0.344Q0.273 0.269 0.324 0.217Q0.376 0.165 0.451 0.165Q0.523 0.165 0.575 0.214Q0.629 0.265 0.629 0.337L0.630 0.663Q0.630 0.674 0.640 0.674Q0.678 0.674 0.703 0.698Q0.727 0.721 0.727 0.758Q0.727 0.775 0.722 0.790Q0.727 0.805 0.727 0.822ZM0.686 0.758Q0.686 0.739 0.674 0.727Q0.662 0.715 0.643 0.715H0.640Q0.619 0.715 0.604 0.700Q0.589 0.685 0.589 0.663L0.588 0.337Q0.588 0.282 0.547 0.245Q0.506 0.207 0.451 0.207Q0.393 0.207 0.353 0.246Q0.314 0.286 0.314 0.344V0.618Q0.314 0.637 0.326 0.649Q0.337 0.661 0.357 0.661Q0.376 0.661 0.388 0.649Q0.400 0.637 0.400 0.618V0.344Q0.400 0.323 0.415 0.308Q0.430 0.293 0.451 0.293Q0.472 0.293 0.487 0.308Q0.502 0.323 0.502 0.344L0.503 0.663Q0.503 0.723 0.542 0.762Q0.581 0.801 0.640 0.801H0.643Q0.662 0.801 0.674 0.789Q0.686 0.777 0.686 0.758Z" fill="black"/>
</svg>
