<svg xmlns="http://www.w3.org/2000/svg" viewBox="0 0 1 1" preserveAspectRatio="xMidYMid meet">
  <path d="M0.769 0.498Q0.769 0.611 0.691 0.689Q0.613 0.767 0.500 0.767Q0.387 0.767 0.309 0.689Q0.231 0.611 0.231 0.498Q0.231 0.482 0.233 0.466Q0.231 0.450 0.231 0.434Q0.231 0.321 0.309 0.243Q0.387 0.165 0.500 0.165Q0.613 0.165 0.691 0.243Q0.769 0.321 0.769 0.434Q0.769 0.451 0.767 0.467Q0.769 0.482 0.769 0.498ZM0.728 0.434Q0.728 0.338 0.662 0.273Q0.596 0.207 0.500 0.207Q0.404 0.207 0.338 0.273Q0.272 0.338 0.272 0.434Q0.272 0.531 0.338 0.596Q0.404 0.662 0.500 0.662Q0.596 0.662 0.662 0.596Q0.728 0.531 0.728 0.434ZM0.642 0.434Q0.642 0.495 0.601 0.536Q0.560 0.576 0.500 0.576Q0.440 0.576 0.399 0.536Q0.358 0.495 0.358 0.434Q0.358 0.373 0.399 0.333Q0.440 0.293 0.500 0.293Q0.560 0.293 0.601 0.333Q0.642 0.374 0.642 0.434ZM0.596 0.466Q0.589 0.444 0.572 0.426Q0.543 0.398 0.500 0.398Q0.466 0.398 0.440 0.416Q0.413 0.435 0.405 0.466Q0.414 0.497 0.440 0.516Q0.466 0.535 0.500 0.535Q0.534 0.535 0.560 0.516Q0.587 0.497 0.596 0.466Z" fill="black"/>
</svg>
