<svg xmlns="http://www.w3.org/2000/svg" viewBox="0 0 1 1" preserveAspectRatio="xMidYMid meet">
  <path d="M0.704 0.563Q0.704 0.649 0.645 0.708Q0.586 0.767 0.500 0.767Q0.481 0.767 0.465 0.760V0.812Q0.465 0.848 0.441 0.872Q0.416 0.896 0.380 0.896Q0.344 0.896 0.320 0.872Q0.296 0.848 0.296 0.812V0.499Q0.296 0.413 0.355 0.354Q0.413 0.296 0.500 0.296Q0.586 0.296 0.645 0.354Q0.704 0.413 0.704 0.499Q0.704 0.516 0.701 0.532Q0.704 0.547 0.704 0.563ZM0.516 0.531Q0.508 0.528 0.500 0.528Q0.484 0.528 0.474 0.539Q0.489 0.538 0.516 0.531ZM0.663 0.499Q0.663 0.430 0.616 0.384Q0.569 0.337 0.500 0.337Q0.430 0.337 0.384 0.384Q0.337 0.430 0.337 0.499V0.748Q0.337 0.767 0.349 0.779Q0.361 0.791 0.380 0.791Q0.399 0.791 0.411 0.779Q0.423 0.767 0.423 0.748V0.499Q0.423 0.468 0.446 0.445Q0.468 0.423 0.500 0.423Q0.531 0.423 0.554 0.445Q0.577 0.468 0.577 0.499Q0.577 0.531 0.554 0.554Q0.531 0.576 0.500 0.576Q0.481 0.576 0.469 0.588Q0.457 0.600 0.457 0.619Q0.457 0.638 0.469 0.650Q0.481 0.662 0.500 0.662Q0.569 0.662 0.616 0.615Q0.663 0.569 0.663 0.499Z" fill="black"/>
</svg>
