<svg xmlns="http://www.w3.org/2000/svg" viewBox="0 0 1 1" preserveAspectRatio="xMidYMid meet">
  <path d="M0.704 0.433Q0.704 0.518 0.645 0.578Q0.586 0.637 0.500 0.637Q0.481 0.637 0.465 0.630V0.682Q0.465 0.718 0.441 0.742Q0.416 0.766 0.380 0.766Q0.344 0.766 0.320 0.742Q0.296 0.718 0.296 0.682V0.369Q0.296 0.282 0.355 0.224Q0.413 0.165 0.500 0.165Q0.586 0.165 0.645 0.224Q0.704 0.282 0.704 0.369Q0.704 0.385 0.701 0.401Q0.704 0.417 0.704 0.433ZM0.516 0.401Q0.508 0.398 0.500 0.398Q0.484 0.398 0.474 0.408Q0.489 0.408 0.516 0.401ZM0.663 0.369Q0.663 0.300 0.616 0.253Q0.569 0.207 0.500 0.207Q0.430 0.207 0.384 0.253Q0.337 0.300 0.337 0.369V0.618Q0.337 0.637 0.350 0.649Q0.362 0.661 0.380 0.661Q0.399 0.661 0.411 0.649Q0.423 0.637 0.423 0.618V0.369Q0.423 0.337 0.446 0.315Q0.468 0.293 0.500 0.293Q0.531 0.293 0.554 0.315Q0.577 0.337 0.577 0.369Q0.577 0.401 0.554 0.423Q0.531 0.446 0.500 0.446Q0.481 0.446 0.469 0.458Q0.457 0.469 0.457 0.489Q0.457 0.508 0.469 0.520Q0.481 0.532 0.500 0.532Q0.569 0.532 0.616 0.485Q0.663 0.438 0.663 0.369Z" fill="black"/>
</svg>
