<svg xmlns="http://www.w3.org/2000/svg" viewBox="0 0 1 1" preserveAspectRatio="xMidYMid meet">
  <path d="M0.704 0.812Q0.704 0.848 0.680 0.872Q0.656 0.896 0.619 0.896Q0.583 0.896 0.559 0.872Q0.535 0.848 0.535 0.812V0.760Q0.519 0.767 0.500 0.767Q0.413 0.767 0.355 0.708Q0.296 0.649 0.296 0.563Q0.296 0.547 0.299 0.531Q0.296 0.515 0.296 0.499Q0.296 0.413 0.355 0.354Q0.413 0.296 0.500 0.296Q0.586 0.296 0.645 0.355Q0.704 0.413 0.704 0.499ZM0.525 0.539Q0.515 0.528 0.500 0.528Q0.491 0.528 0.484 0.531Q0.491 0.534 0.504 0.536Q0.520 0.537 0.525 0.539ZM0.663 0.748V0.499Q0.663 0.430 0.616 0.384Q0.569 0.337 0.500 0.337Q0.430 0.337 0.384 0.384Q0.337 0.430 0.337 0.499Q0.337 0.569 0.384 0.615Q0.430 0.662 0.500 0.662Q0.519 0.662 0.531 0.650Q0.543 0.638 0.543 0.619Q0.543 0.600 0.531 0.588Q0.519 0.576 0.500 0.576Q0.468 0.576 0.446 0.554Q0.423 0.531 0.423 0.499Q0.423 0.468 0.446 0.445Q0.468 0.423 0.500 0.423Q0.531 0.423 0.554 0.445Q0.577 0.468 0.577 0.499V0.748Q0.577 0.767 0.588 0.779Q0.600 0.791 0.619 0.791Q0.638 0.791 0.650 0.779Q0.663 0.767 0.663 0.748Z" fill="black"/>
</svg>
