<svg xmlns="http://www.w3.org/2000/svg" viewBox="0 0 1 1" preserveAspectRatio="xMidYMid meet">
  <path d="M0.769 0.498Q0.769 0.585 0.719 0.655Q0.669 0.725 0.588 0.753L0.588 0.756Q0.587 0.791 0.586 0.826Q0.582 0.866 0.567 0.887Q0.547 0.913 0.504 0.913Q0.468 0.913 0.444 0.889Q0.420 0.865 0.420 0.830V0.717Q0.402 0.726 0.382 0.726Q0.353 0.726 0.329 0.705Q0.231 0.625 0.231 0.498Q0.231 0.482 0.233 0.467Q0.231 0.451 0.231 0.434Q0.231 0.321 0.309 0.243Q0.387 0.165 0.500 0.165Q0.613 0.165 0.691 0.243Q0.769 0.321 0.769 0.434Q0.769 0.450 0.767 0.466Q0.769 0.482 0.769 0.498ZM0.595 0.466Q0.581 0.419 0.535 0.403Q0.573 0.440 0.583 0.491Q0.592 0.479 0.595 0.466ZM0.728 0.434Q0.728 0.338 0.662 0.273Q0.596 0.207 0.500 0.207Q0.404 0.207 0.338 0.273Q0.272 0.338 0.272 0.434Q0.272 0.542 0.355 0.610Q0.368 0.621 0.382 0.621Q0.400 0.621 0.413 0.608Q0.426 0.594 0.426 0.576Q0.426 0.557 0.410 0.544Q0.358 0.501 0.358 0.434Q0.358 0.373 0.399 0.333Q0.439 0.293 0.500 0.293Q0.560 0.293 0.601 0.333Q0.642 0.374 0.642 0.434Q0.642 0.480 0.616 0.517Q0.590 0.554 0.546 0.569V0.532Q0.546 0.473 0.507 0.434Q0.468 0.394 0.410 0.394Q0.391 0.394 0.378 0.406Q0.366 0.418 0.366 0.437Q0.366 0.457 0.379 0.469Q0.391 0.480 0.412 0.480Q0.433 0.480 0.447 0.496Q0.461 0.511 0.461 0.532L0.461 0.766Q0.461 0.784 0.473 0.796Q0.485 0.809 0.504 0.809Q0.522 0.809 0.535 0.796Q0.547 0.784 0.547 0.766L0.546 0.657Q0.627 0.641 0.677 0.579Q0.728 0.517 0.728 0.434Z" fill="black"/>
</svg>
