<svg xmlns="http://www.w3.org/2000/svg" viewBox="0 0 1 1" preserveAspectRatio="xMidYMid meet">
  <path d="M0.631 0.443Q0.631 0.481 0.609 0.503Q0.586 0.525 0.550 0.528Q0.537 0.529 0.537 0.538V0.682Q0.537 0.718 0.513 0.742Q0.489 0.766 0.453 0.766Q0.416 0.766 0.392 0.742Q0.369 0.718 0.369 0.682V0.474Q0.369 0.399 0.420 0.347Q0.472 0.296 0.547 0.296Q0.583 0.296 0.607 0.320Q0.631 0.344 0.631 0.380Q0.631 0.398 0.626 0.412Q0.631 0.427 0.631 0.443ZM0.590 0.380Q0.590 0.361 0.578 0.349Q0.566 0.337 0.547 0.337Q0.489 0.337 0.449 0.376Q0.410 0.415 0.410 0.474V0.618Q0.410 0.637 0.422 0.649Q0.434 0.661 0.453 0.661Q0.472 0.661 0.484 0.649Q0.496 0.637 0.496 0.618V0.474Q0.496 0.452 0.510 0.439Q0.524 0.425 0.546 0.423Q0.590 0.419 0.590 0.380Z" fill="black"/>
</svg>
