<svg xmlns="http://www.w3.org/2000/svg" viewBox="0 0 1 1" preserveAspectRatio="xMidYMid meet">
  <path d="M0.704 0.433Q0.704 0.506 0.658 0.562Q0.678 0.585 0.678 0.618Q0.678 0.635 0.673 0.650Q0.678 0.665 0.678 0.682Q0.678 0.718 0.654 0.742Q0.630 0.766 0.594 0.766Q0.512 0.766 0.461 0.708Q0.453 0.734 0.431 0.750Q0.409 0.766 0.380 0.766Q0.344 0.766 0.320 0.742Q0.296 0.718 0.296 0.682V0.369Q0.296 0.282 0.355 0.224Q0.413 0.165 0.500 0.165Q0.586 0.165 0.645 0.224Q0.704 0.282 0.704 0.369Q0.704 0.385 0.701 0.400Q0.704 0.416 0.704 0.433ZM0.516 0.401Q0.508 0.398 0.500 0.398Q0.484 0.398 0.474 0.409Q0.489 0.408 0.516 0.401ZM0.663 0.369Q0.663 0.300 0.616 0.253Q0.569 0.207 0.500 0.207Q0.430 0.207 0.384 0.253Q0.337 0.300 0.337 0.369V0.618Q0.337 0.637 0.350 0.649Q0.362 0.661 0.380 0.661Q0.399 0.661 0.411 0.649Q0.423 0.637 0.423 0.618V0.369Q0.423 0.337 0.446 0.315Q0.468 0.293 0.500 0.293Q0.531 0.293 0.554 0.315Q0.577 0.337 0.577 0.369Q0.577 0.401 0.554 0.423Q0.531 0.446 0.500 0.446Q0.483 0.446 0.470 0.459Q0.457 0.471 0.457 0.489V0.524Q0.457 0.583 0.496 0.622Q0.535 0.661 0.594 0.661Q0.613 0.661 0.625 0.649Q0.637 0.637 0.637 0.618Q0.637 0.599 0.625 0.587Q0.613 0.575 0.593 0.575Q0.573 0.575 0.558 0.561Q0.544 0.546 0.543 0.526Q0.596 0.511 0.629 0.468Q0.663 0.424 0.663 0.369Z" fill="black"/>
</svg>
