<svg xmlns="http://www.w3.org/2000/svg" viewBox="0 0 1 1" preserveAspectRatio="xMidYMid meet">
  <path d="M0.666 0.443Q0.666 0.478 0.644 0.501Q0.621 0.525 0.587 0.527Q0.587 0.527 0.586 0.525Q0.584 0.523 0.584 0.522Q0.584 0.538 0.584 0.562V0.574Q0.584 0.622 0.577 0.648Q0.566 0.685 0.535 0.717Q0.487 0.765 0.418 0.765Q0.381 0.765 0.358 0.741Q0.334 0.718 0.334 0.681Q0.334 0.665 0.339 0.649Q0.334 0.634 0.334 0.618Q0.334 0.582 0.357 0.558Q0.380 0.534 0.416 0.533V0.525Q0.416 0.518 0.416 0.511Q0.416 0.503 0.416 0.497V0.462Q0.416 0.392 0.464 0.344Q0.512 0.296 0.582 0.296Q0.618 0.296 0.642 0.320Q0.666 0.344 0.666 0.380Q0.666 0.397 0.661 0.412Q0.666 0.426 0.666 0.443ZM0.625 0.380Q0.625 0.361 0.613 0.349Q0.601 0.337 0.582 0.337Q0.529 0.337 0.493 0.373Q0.457 0.409 0.457 0.462V0.497Q0.457 0.501 0.456 0.523Q0.456 0.523 0.456 0.536Q0.456 0.552 0.445 0.563Q0.434 0.574 0.418 0.574Q0.399 0.574 0.387 0.587Q0.375 0.599 0.375 0.618Q0.375 0.637 0.387 0.649Q0.399 0.660 0.418 0.660Q0.470 0.660 0.506 0.624Q0.542 0.588 0.542 0.536L0.543 0.462Q0.543 0.452 0.545 0.448Q0.546 0.443 0.554 0.434Q0.563 0.426 0.583 0.423Q0.604 0.419 0.615 0.409Q0.625 0.398 0.625 0.380Z" fill="black"/>
</svg>
