<svg xmlns="http://www.w3.org/2000/svg" viewBox="0 0 1 1" preserveAspectRatio="xMidYMid meet">
  <path d="M0.666 0.313Q0.666 0.349 0.643 0.372Q0.621 0.394 0.586 0.397L0.584 0.601Q0.584 0.670 0.536 0.718Q0.488 0.767 0.418 0.767Q0.382 0.767 0.358 0.743Q0.334 0.719 0.334 0.683Q0.334 0.666 0.340 0.651Q0.334 0.635 0.334 0.619Q0.334 0.583 0.358 0.559Q0.381 0.535 0.417 0.534L0.415 0.395Q0.415 0.386 0.416 0.377L0.415 0.331Q0.414 0.262 0.462 0.214Q0.511 0.165 0.581 0.165Q0.617 0.165 0.642 0.189Q0.666 0.213 0.666 0.249Q0.666 0.267 0.660 0.282Q0.666 0.296 0.666 0.313ZM0.624 0.249Q0.624 0.230 0.612 0.219Q0.600 0.207 0.581 0.207Q0.528 0.207 0.492 0.243Q0.456 0.279 0.456 0.331L0.457 0.537Q0.457 0.553 0.446 0.565Q0.435 0.576 0.418 0.576Q0.399 0.576 0.387 0.588Q0.376 0.600 0.376 0.619Q0.376 0.638 0.387 0.650Q0.399 0.662 0.418 0.662Q0.470 0.662 0.507 0.626Q0.543 0.590 0.543 0.537L0.542 0.331Q0.542 0.296 0.583 0.292Q0.624 0.289 0.624 0.249Z" fill="black"/>
</svg>
