<svg xmlns="http://www.w3.org/2000/svg" viewBox="0 0 1 1" preserveAspectRatio="xMidYMid meet">
  <path d="M0.678 0.587Q0.678 0.662 0.627 0.714Q0.575 0.766 0.500 0.766Q0.425 0.766 0.373 0.714Q0.322 0.663 0.322 0.587V0.305Q0.322 0.268 0.345 0.244Q0.369 0.220 0.406 0.220Q0.439 0.220 0.463 0.242Q0.487 0.263 0.490 0.297H0.594Q0.631 0.297 0.655 0.321Q0.678 0.345 0.678 0.381Q0.678 0.399 0.673 0.414Q0.678 0.429 0.678 0.445Q0.678 0.466 0.671 0.483Q0.678 0.499 0.678 0.518V0.524Q0.678 0.541 0.675 0.558Q0.678 0.569 0.678 0.581ZM0.637 0.524V0.518Q0.637 0.499 0.625 0.487Q0.613 0.475 0.594 0.475Q0.576 0.475 0.564 0.487Q0.551 0.499 0.551 0.518V0.524Q0.551 0.545 0.537 0.560Q0.522 0.575 0.500 0.575Q0.479 0.575 0.464 0.560Q0.449 0.545 0.449 0.524V0.424H0.594Q0.637 0.424 0.637 0.381Q0.637 0.362 0.625 0.350Q0.614 0.338 0.594 0.338H0.449V0.305Q0.449 0.286 0.437 0.274Q0.425 0.261 0.406 0.261Q0.386 0.261 0.375 0.274Q0.363 0.286 0.363 0.305V0.524Q0.363 0.583 0.402 0.622Q0.441 0.661 0.500 0.661Q0.559 0.661 0.598 0.622Q0.637 0.582 0.637 0.524ZM0.509 0.529H0.491Q0.495 0.534 0.500 0.534Q0.506 0.534 0.509 0.529Z" fill="black"/>
</svg>
