<svg xmlns="http://www.w3.org/2000/svg" viewBox="0 0 1 1" preserveAspectRatio="xMidYMid meet">
  <path d="M0.685 0.313Q0.685 0.349 0.661 0.373Q0.637 0.398 0.601 0.398H0.583V0.682Q0.583 0.718 0.559 0.742Q0.535 0.766 0.499 0.766Q0.462 0.766 0.438 0.742Q0.414 0.718 0.414 0.682V0.398H0.399Q0.363 0.398 0.339 0.373Q0.315 0.349 0.315 0.313Q0.315 0.296 0.321 0.281Q0.315 0.266 0.315 0.249Q0.315 0.213 0.339 0.189Q0.363 0.165 0.399 0.165H0.601Q0.637 0.165 0.661 0.189Q0.685 0.213 0.685 0.249Q0.685 0.267 0.679 0.281Q0.685 0.296 0.685 0.313ZM0.644 0.249Q0.644 0.230 0.632 0.219Q0.620 0.207 0.601 0.207H0.399Q0.380 0.207 0.368 0.219Q0.356 0.230 0.356 0.249Q0.356 0.268 0.368 0.281Q0.380 0.293 0.399 0.293H0.455V0.618Q0.455 0.637 0.468 0.649Q0.480 0.661 0.499 0.661Q0.518 0.661 0.530 0.649Q0.541 0.637 0.541 0.618V0.293H0.601Q0.620 0.293 0.632 0.281Q0.644 0.268 0.644 0.249Z" fill="black"/>
</svg>
