<svg xmlns="http://www.w3.org/2000/svg" viewBox="0 0 1 1" preserveAspectRatio="xMidYMid meet">
  <path d="M0.666 0.380Q0.666 0.414 0.644 0.438Q0.621 0.461 0.587 0.464Q0.587 0.463 0.586 0.461Q0.584 0.459 0.584 0.459Q0.584 0.475 0.584 0.499V0.511Q0.584 0.578 0.566 0.613Q0.568 0.622 0.568 0.633Q0.568 0.650 0.561 0.665Q0.568 0.680 0.568 0.697Q0.568 0.728 0.546 0.750Q0.524 0.771 0.493 0.771Q0.463 0.771 0.442 0.751Q0.420 0.731 0.418 0.702H0.418Q0.381 0.702 0.358 0.678Q0.334 0.654 0.334 0.618Q0.334 0.601 0.339 0.586Q0.334 0.571 0.334 0.554Q0.334 0.518 0.357 0.494Q0.380 0.470 0.416 0.469V0.462Q0.416 0.455 0.416 0.447Q0.416 0.439 0.416 0.433V0.398Q0.416 0.367 0.427 0.338Q0.418 0.322 0.418 0.304Q0.418 0.288 0.425 0.272Q0.418 0.257 0.418 0.240Q0.418 0.209 0.440 0.187Q0.462 0.165 0.493 0.165Q0.523 0.165 0.544 0.185Q0.565 0.204 0.568 0.233Q0.575 0.232 0.582 0.232Q0.618 0.232 0.642 0.256Q0.666 0.280 0.666 0.316Q0.666 0.333 0.661 0.348Q0.666 0.363 0.666 0.380ZM0.527 0.240Q0.527 0.226 0.517 0.217Q0.507 0.207 0.493 0.207Q0.479 0.207 0.469 0.217Q0.460 0.226 0.460 0.240Q0.460 0.254 0.469 0.264Q0.479 0.274 0.493 0.274Q0.507 0.274 0.517 0.264Q0.527 0.254 0.527 0.240ZM0.625 0.316Q0.625 0.297 0.613 0.285Q0.601 0.274 0.582 0.274Q0.529 0.274 0.493 0.309Q0.457 0.345 0.457 0.398V0.433Q0.457 0.438 0.456 0.459Q0.456 0.459 0.456 0.472Q0.456 0.489 0.445 0.500Q0.434 0.511 0.418 0.511Q0.399 0.511 0.387 0.523Q0.375 0.535 0.375 0.554Q0.375 0.573 0.387 0.585Q0.399 0.597 0.418 0.597Q0.470 0.597 0.506 0.560Q0.542 0.524 0.542 0.472L0.543 0.398Q0.543 0.389 0.545 0.384Q0.546 0.379 0.554 0.371Q0.563 0.363 0.583 0.359Q0.604 0.356 0.615 0.345Q0.625 0.335 0.625 0.316ZM0.527 0.633Q0.527 0.619 0.517 0.609Q0.507 0.599 0.493 0.599Q0.479 0.599 0.469 0.609Q0.460 0.619 0.460 0.633Q0.460 0.647 0.469 0.656Q0.479 0.666 0.493 0.666Q0.507 0.666 0.517 0.656Q0.527 0.647 0.527 0.633Z" fill="black"/>
</svg>
