<svg xmlns="http://www.w3.org/2000/svg" viewBox="0 0 1 1" preserveAspectRatio="xMidYMid meet">
  <path d="M0.594 0.666Q0.594 0.705 0.567 0.733Q0.539 0.760 0.500 0.760Q0.461 0.760 0.433 0.733Q0.406 0.705 0.406 0.666Q0.406 0.649 0.412 0.635Q0.406 0.619 0.406 0.602Q0.406 0.579 0.417 0.558Q0.415 0.549 0.415 0.540V0.249Q0.415 0.214 0.440 0.190Q0.464 0.165 0.499 0.165Q0.536 0.165 0.560 0.189Q0.584 0.213 0.584 0.249V0.540Q0.584 0.549 0.583 0.557Q0.594 0.578 0.594 0.602Q0.594 0.620 0.589 0.635Q0.594 0.649 0.594 0.666ZM0.543 0.476V0.249Q0.543 0.230 0.531 0.219Q0.518 0.207 0.499 0.207Q0.481 0.207 0.469 0.219Q0.457 0.231 0.457 0.249V0.476Q0.457 0.496 0.469 0.508Q0.480 0.520 0.499 0.520Q0.518 0.520 0.531 0.508Q0.543 0.496 0.543 0.476ZM0.553 0.602Q0.553 0.581 0.537 0.566Q0.522 0.550 0.500 0.550Q0.478 0.550 0.463 0.566Q0.447 0.581 0.447 0.602Q0.447 0.625 0.462 0.640Q0.478 0.655 0.500 0.655Q0.522 0.655 0.538 0.640Q0.553 0.625 0.553 0.602Z" fill="black"/>
</svg>
