<svg xmlns="http://www.w3.org/2000/svg" viewBox="0 0 1 1" preserveAspectRatio="xMidYMid meet">
  <path d="M0.661 0.401Q0.661 0.441 0.634 0.468Q0.606 0.495 0.567 0.495Q0.527 0.495 0.500 0.467L0.499 0.468Q0.472 0.495 0.433 0.495Q0.394 0.495 0.367 0.468Q0.339 0.440 0.339 0.401V0.260Q0.339 0.221 0.367 0.193Q0.394 0.165 0.433 0.165Q0.473 0.165 0.500 0.193Q0.527 0.165 0.567 0.165Q0.606 0.165 0.634 0.193Q0.661 0.220 0.661 0.260ZM0.620 0.338V0.260Q0.620 0.237 0.604 0.222Q0.589 0.207 0.567 0.207Q0.545 0.207 0.530 0.222Q0.515 0.238 0.515 0.260V0.338Q0.515 0.359 0.530 0.375Q0.545 0.390 0.567 0.390Q0.589 0.390 0.604 0.375Q0.620 0.360 0.620 0.338ZM0.486 0.338V0.260Q0.486 0.238 0.470 0.222Q0.455 0.207 0.433 0.207Q0.412 0.207 0.396 0.222Q0.380 0.238 0.380 0.260V0.338Q0.380 0.359 0.396 0.375Q0.412 0.390 0.433 0.390Q0.455 0.390 0.470 0.375Q0.486 0.359 0.486 0.338Z" fill="black"/>
</svg>
