<svg xmlns="http://www.w3.org/2000/svg" viewBox="0 0 1 1" preserveAspectRatio="xMidYMid meet">
  <path d="M0.594 0.744Q0.594 0.783 0.566 0.811Q0.539 0.838 0.500 0.838Q0.461 0.838 0.434 0.811Q0.406 0.783 0.406 0.744V0.602Q0.406 0.564 0.434 0.536Q0.461 0.509 0.500 0.509Q0.539 0.509 0.566 0.536Q0.594 0.564 0.594 0.602ZM0.553 0.681V0.602Q0.553 0.581 0.537 0.566Q0.522 0.550 0.500 0.550Q0.478 0.550 0.463 0.566Q0.447 0.581 0.447 0.602V0.681Q0.447 0.702 0.463 0.718Q0.478 0.733 0.500 0.733Q0.522 0.733 0.537 0.718Q0.553 0.702 0.553 0.681Z" fill="black"/>
</svg>
