<svg xmlns="http://www.w3.org/2000/svg" viewBox="0 0 1 1" preserveAspectRatio="xMidYMid meet">
  <path d="M0.677 0.728Q0.677 0.764 0.652 0.788Q0.628 0.812 0.592 0.812Q0.479 0.812 0.401 0.734Q0.323 0.656 0.323 0.543V0.390Q0.323 0.277 0.401 0.199Q0.479 0.121 0.592 0.121Q0.628 0.121 0.653 0.145Q0.677 0.169 0.677 0.205Q0.677 0.221 0.671 0.237Q0.677 0.252 0.677 0.268Q0.677 0.305 0.653 0.329Q0.628 0.353 0.592 0.353Q0.549 0.353 0.520 0.382Q0.492 0.410 0.492 0.454V0.479Q0.492 0.522 0.520 0.551Q0.549 0.580 0.592 0.580Q0.628 0.580 0.653 0.604Q0.677 0.628 0.677 0.664Q0.677 0.681 0.671 0.696Q0.677 0.711 0.677 0.728ZM0.635 0.664Q0.635 0.645 0.623 0.633Q0.611 0.621 0.592 0.621Q0.532 0.621 0.491 0.580Q0.450 0.539 0.450 0.479V0.390Q0.450 0.330 0.491 0.289Q0.532 0.248 0.592 0.248Q0.611 0.248 0.623 0.236Q0.635 0.224 0.635 0.205Q0.635 0.186 0.623 0.174Q0.611 0.162 0.592 0.162Q0.496 0.162 0.430 0.228Q0.365 0.294 0.365 0.390V0.479Q0.365 0.575 0.430 0.641Q0.496 0.707 0.592 0.707Q0.611 0.707 0.623 0.695Q0.635 0.683 0.635 0.664Z" fill="black"/>
</svg>
