<svg xmlns="http://www.w3.org/2000/svg" viewBox="0 0 1 1" preserveAspectRatio="xMidYMid meet">
  <path d="M0.677 0.543Q0.677 0.655 0.599 0.733Q0.520 0.812 0.408 0.812Q0.372 0.812 0.347 0.788Q0.323 0.764 0.323 0.728Q0.323 0.711 0.329 0.696Q0.323 0.681 0.323 0.664Q0.323 0.628 0.347 0.604Q0.372 0.580 0.408 0.580Q0.451 0.580 0.480 0.551Q0.508 0.522 0.508 0.479V0.454Q0.508 0.410 0.480 0.382Q0.451 0.353 0.408 0.353Q0.372 0.353 0.347 0.329Q0.323 0.305 0.323 0.268Q0.323 0.252 0.329 0.237Q0.323 0.221 0.323 0.205Q0.323 0.169 0.347 0.145Q0.372 0.121 0.408 0.121Q0.521 0.121 0.599 0.199Q0.677 0.277 0.677 0.390ZM0.635 0.479V0.390Q0.635 0.294 0.570 0.228Q0.504 0.162 0.408 0.162Q0.389 0.162 0.377 0.174Q0.365 0.186 0.365 0.205Q0.365 0.224 0.377 0.236Q0.389 0.248 0.408 0.248Q0.468 0.248 0.509 0.289Q0.550 0.330 0.550 0.390V0.479Q0.550 0.539 0.509 0.580Q0.468 0.621 0.408 0.621Q0.389 0.621 0.377 0.633Q0.365 0.645 0.365 0.664Q0.365 0.683 0.377 0.695Q0.389 0.707 0.408 0.707Q0.504 0.707 0.570 0.641Q0.635 0.575 0.635 0.479Z" fill="black"/>
</svg>
