<svg xmlns="http://www.w3.org/2000/svg" viewBox="0 0 1 1" preserveAspectRatio="xMidYMid meet">
  <path d="M0.594 0.401Q0.594 0.440 0.566 0.468Q0.539 0.495 0.500 0.495Q0.461 0.495 0.434 0.468Q0.406 0.440 0.406 0.401V0.260Q0.406 0.221 0.434 0.193Q0.461 0.165 0.500 0.165Q0.539 0.165 0.566 0.193Q0.594 0.221 0.594 0.260ZM0.553 0.338V0.260Q0.553 0.238 0.537 0.222Q0.522 0.207 0.500 0.207Q0.478 0.207 0.463 0.222Q0.447 0.238 0.447 0.260V0.338Q0.447 0.359 0.463 0.375Q0.478 0.390 0.500 0.390Q0.522 0.390 0.537 0.375Q0.553 0.359 0.553 0.338Z" fill="black"/>
</svg>
