<svg xmlns="http://www.w3.org/2000/svg" viewBox="0 0 1 1" preserveAspectRatio="xMidYMid meet">
  <path d="M0.663 0.557Q0.663 0.595 0.642 0.617Q0.621 0.640 0.584 0.642Q0.582 0.676 0.559 0.698Q0.535 0.721 0.500 0.721Q0.465 0.721 0.441 0.698Q0.418 0.676 0.416 0.642Q0.381 0.640 0.359 0.616Q0.337 0.592 0.337 0.557Q0.337 0.541 0.343 0.525Q0.337 0.510 0.337 0.494Q0.337 0.459 0.359 0.435Q0.381 0.412 0.416 0.410Q0.418 0.373 0.440 0.352Q0.463 0.331 0.500 0.331Q0.535 0.331 0.559 0.353Q0.582 0.375 0.584 0.410Q0.619 0.412 0.641 0.435Q0.663 0.459 0.663 0.494Q0.663 0.511 0.658 0.527Q0.663 0.541 0.663 0.557ZM0.622 0.494Q0.622 0.475 0.610 0.463Q0.598 0.451 0.579 0.451H0.543V0.415Q0.543 0.396 0.531 0.384Q0.519 0.372 0.500 0.372Q0.457 0.372 0.457 0.415V0.451H0.421Q0.402 0.451 0.390 0.463Q0.378 0.475 0.378 0.494Q0.378 0.513 0.390 0.525Q0.402 0.537 0.421 0.537H0.457V0.573Q0.457 0.592 0.469 0.604Q0.481 0.616 0.500 0.616Q0.519 0.616 0.531 0.604Q0.543 0.592 0.543 0.573V0.537H0.579Q0.622 0.537 0.622 0.494Z" fill="black"/>
</svg>
