<svg xmlns="http://www.w3.org/2000/svg" viewBox="0 0 1 1" preserveAspectRatio="xMidYMid meet">
  <path d="M0.695 0.486Q0.695 0.550 0.641 0.566Q0.632 0.590 0.611 0.605Q0.589 0.620 0.562 0.620Q0.524 0.620 0.500 0.594Q0.476 0.620 0.438 0.620Q0.411 0.620 0.389 0.605Q0.367 0.590 0.358 0.566Q0.334 0.557 0.319 0.535Q0.305 0.513 0.305 0.486Q0.305 0.469 0.311 0.454Q0.305 0.439 0.305 0.422Q0.305 0.406 0.310 0.392Q0.305 0.378 0.305 0.362Q0.305 0.345 0.311 0.330Q0.305 0.316 0.305 0.298Q0.305 0.272 0.319 0.250Q0.334 0.228 0.358 0.219Q0.367 0.194 0.389 0.180Q0.411 0.165 0.438 0.165Q0.476 0.165 0.500 0.191Q0.524 0.165 0.562 0.165Q0.589 0.165 0.611 0.180Q0.633 0.194 0.642 0.219Q0.666 0.228 0.681 0.250Q0.695 0.272 0.695 0.298Q0.695 0.315 0.689 0.330Q0.695 0.345 0.695 0.362Q0.695 0.378 0.690 0.392Q0.695 0.406 0.695 0.422Q0.695 0.440 0.690 0.455Q0.695 0.470 0.695 0.486ZM0.654 0.422Q0.654 0.403 0.642 0.392Q0.630 0.380 0.611 0.380H0.605V0.341H0.611Q0.630 0.341 0.642 0.329Q0.654 0.317 0.654 0.298Q0.654 0.279 0.642 0.267Q0.630 0.255 0.611 0.255H0.605V0.249Q0.605 0.230 0.593 0.219Q0.581 0.207 0.562 0.207Q0.543 0.207 0.531 0.219Q0.519 0.230 0.519 0.249V0.255H0.481V0.249Q0.481 0.230 0.469 0.219Q0.457 0.207 0.438 0.207Q0.419 0.207 0.407 0.219Q0.395 0.230 0.395 0.249V0.255H0.389Q0.370 0.255 0.358 0.267Q0.346 0.279 0.346 0.298Q0.346 0.317 0.358 0.329Q0.370 0.341 0.389 0.341H0.395V0.380H0.389Q0.370 0.380 0.358 0.392Q0.346 0.403 0.346 0.422Q0.346 0.441 0.358 0.454Q0.370 0.466 0.389 0.466H0.395V0.471Q0.395 0.490 0.407 0.503Q0.419 0.515 0.438 0.515Q0.457 0.515 0.469 0.503Q0.481 0.490 0.481 0.471V0.466H0.519V0.471Q0.519 0.490 0.531 0.503Q0.543 0.515 0.562 0.515Q0.581 0.515 0.593 0.503Q0.605 0.490 0.605 0.471V0.466H0.611Q0.654 0.466 0.654 0.422ZM0.519 0.380H0.481V0.341H0.519Z" fill="black"/>
</svg>
