<svg xmlns="http://www.w3.org/2000/svg" viewBox="0 0 1 1" preserveAspectRatio="xMidYMid meet">
  <path d="M0.670 0.267Q0.670 0.283 0.665 0.297L0.494 0.776Q0.474 0.832 0.416 0.832Q0.381 0.832 0.356 0.808Q0.330 0.784 0.330 0.749Q0.330 0.733 0.335 0.719L0.336 0.716Q0.330 0.702 0.330 0.686Q0.330 0.669 0.335 0.655L0.506 0.177Q0.527 0.120 0.584 0.120Q0.620 0.120 0.645 0.144Q0.670 0.168 0.670 0.204Q0.670 0.219 0.665 0.233L0.664 0.236Q0.670 0.251 0.670 0.267ZM0.628 0.204Q0.628 0.185 0.615 0.173Q0.602 0.162 0.584 0.162Q0.555 0.162 0.545 0.191L0.374 0.669Q0.372 0.676 0.372 0.686Q0.372 0.704 0.385 0.715Q0.398 0.727 0.416 0.727Q0.445 0.727 0.455 0.698L0.626 0.219Q0.628 0.212 0.628 0.204Z" fill="black"/>
</svg>
