<svg xmlns="http://www.w3.org/2000/svg" viewBox="0 0 1 1" preserveAspectRatio="xMidYMid meet">
  <path d="M0.594 0.522Q0.594 0.560 0.566 0.588Q0.539 0.616 0.500 0.616Q0.461 0.616 0.434 0.588Q0.406 0.560 0.406 0.522Q0.406 0.505 0.412 0.490Q0.406 0.475 0.406 0.458Q0.406 0.419 0.434 0.392Q0.461 0.364 0.500 0.364Q0.539 0.364 0.566 0.392Q0.594 0.419 0.594 0.458Q0.594 0.475 0.588 0.490Q0.594 0.505 0.594 0.522ZM0.553 0.458Q0.553 0.436 0.537 0.421Q0.522 0.405 0.500 0.405Q0.478 0.405 0.463 0.421Q0.447 0.436 0.447 0.458Q0.447 0.480 0.463 0.495Q0.478 0.511 0.500 0.511Q0.522 0.511 0.537 0.495Q0.553 0.480 0.553 0.458Z" fill="black"/>
</svg>
