<svg xmlns="http://www.w3.org/2000/svg" viewBox="0 0 1 1" preserveAspectRatio="xMidYMid meet">
  <path d="M0.660 0.532Q0.660 0.553 0.620 0.605Q0.621 0.631 0.621 0.639Q0.621 0.711 0.564 0.711Q0.549 0.711 0.500 0.693Q0.451 0.711 0.436 0.711Q0.379 0.711 0.379 0.639Q0.379 0.631 0.380 0.605Q0.340 0.553 0.340 0.532Q0.340 0.513 0.352 0.499Q0.340 0.477 0.340 0.468Q0.340 0.438 0.370 0.420Q0.385 0.412 0.426 0.401Q0.448 0.368 0.455 0.359Q0.476 0.338 0.500 0.338Q0.529 0.338 0.550 0.366Q0.553 0.370 0.574 0.401Q0.615 0.412 0.630 0.420Q0.660 0.438 0.660 0.468Q0.660 0.477 0.648 0.499Q0.660 0.513 0.660 0.532ZM0.618 0.468Q0.618 0.459 0.601 0.452Q0.592 0.448 0.548 0.437Q0.521 0.396 0.519 0.394Q0.508 0.380 0.500 0.380Q0.490 0.380 0.481 0.394Q0.467 0.414 0.452 0.437Q0.408 0.448 0.399 0.452Q0.382 0.459 0.382 0.468Q0.382 0.478 0.422 0.528Q0.420 0.566 0.420 0.576Q0.420 0.606 0.436 0.606Q0.447 0.606 0.500 0.585Q0.553 0.606 0.564 0.606Q0.580 0.606 0.580 0.576Q0.580 0.566 0.578 0.528Q0.618 0.478 0.618 0.468Z" fill="black"/>
</svg>
