<svg xmlns="http://www.w3.org/2000/svg" viewBox="0 0 1 1" preserveAspectRatio="xMidYMid meet">
  <path d="M0.594 0.666Q0.594 0.705 0.567 0.733Q0.539 0.760 0.500 0.760Q0.461 0.760 0.433 0.733Q0.406 0.705 0.406 0.666Q0.406 0.649 0.412 0.635Q0.406 0.619 0.406 0.602Q0.406 0.564 0.434 0.536Q0.461 0.509 0.500 0.509Q0.539 0.509 0.566 0.536Q0.594 0.564 0.594 0.602Q0.594 0.620 0.589 0.635Q0.594 0.649 0.594 0.666ZM0.553 0.602Q0.553 0.581 0.537 0.566Q0.522 0.550 0.500 0.550Q0.478 0.550 0.463 0.566Q0.447 0.581 0.447 0.602Q0.447 0.625 0.462 0.640Q0.478 0.655 0.500 0.655Q0.522 0.655 0.538 0.640Q0.553 0.625 0.553 0.602Z" fill="black"/>
</svg>
