<svg xmlns="http://www.w3.org/2000/svg" viewBox="0 0 1 1" preserveAspectRatio="xMidYMid meet">
  <path d="M0.783 0.510Q0.783 0.561 0.747 0.597Q0.711 0.633 0.660 0.633Q0.624 0.633 0.594 0.615Q0.577 0.633 0.548 0.633Q0.519 0.633 0.501 0.614Q0.483 0.633 0.454 0.633Q0.439 0.633 0.426 0.627Q0.414 0.632 0.400 0.632Q0.384 0.632 0.371 0.626Q0.357 0.633 0.340 0.633Q0.289 0.633 0.253 0.597Q0.217 0.561 0.217 0.510Q0.217 0.494 0.221 0.478Q0.217 0.463 0.217 0.447Q0.217 0.396 0.253 0.360Q0.289 0.324 0.340 0.324Q0.388 0.324 0.423 0.356Q0.455 0.324 0.501 0.324Q0.546 0.324 0.578 0.355Q0.612 0.325 0.657 0.324V0.323Q0.657 0.295 0.674 0.277Q0.692 0.260 0.720 0.260Q0.748 0.260 0.765 0.277Q0.783 0.295 0.783 0.323ZM0.741 0.447V0.323Q0.741 0.301 0.720 0.301Q0.698 0.301 0.698 0.323V0.447Q0.698 0.462 0.687 0.474Q0.676 0.485 0.660 0.485Q0.644 0.485 0.633 0.474Q0.622 0.462 0.622 0.447Q0.622 0.431 0.633 0.420Q0.644 0.408 0.660 0.408Q0.682 0.408 0.682 0.387Q0.682 0.365 0.660 0.365Q0.626 0.365 0.602 0.389Q0.579 0.413 0.579 0.447Q0.579 0.480 0.602 0.504Q0.626 0.528 0.660 0.528Q0.694 0.528 0.718 0.504Q0.741 0.480 0.741 0.447ZM0.570 0.506V0.434Q0.570 0.406 0.550 0.386Q0.530 0.366 0.501 0.366Q0.472 0.366 0.452 0.386Q0.432 0.406 0.432 0.434V0.506Q0.432 0.528 0.454 0.528Q0.476 0.528 0.476 0.506V0.434Q0.476 0.424 0.483 0.416Q0.490 0.408 0.501 0.408Q0.512 0.408 0.519 0.416Q0.526 0.424 0.526 0.434V0.506Q0.526 0.528 0.548 0.528Q0.570 0.528 0.570 0.506ZM0.421 0.506V0.447Q0.421 0.413 0.398 0.389Q0.374 0.365 0.340 0.365Q0.306 0.365 0.282 0.389Q0.259 0.413 0.259 0.447Q0.259 0.480 0.282 0.504Q0.306 0.528 0.340 0.528Q0.362 0.528 0.362 0.506Q0.362 0.485 0.340 0.485Q0.324 0.485 0.313 0.474Q0.302 0.462 0.302 0.447Q0.302 0.431 0.313 0.420Q0.324 0.408 0.340 0.408Q0.356 0.408 0.367 0.420Q0.378 0.431 0.378 0.447V0.506Q0.378 0.527 0.400 0.527Q0.421 0.527 0.421 0.506Z" fill="black"/>
</svg>
