<svg xmlns="http://www.w3.org/2000/svg" viewBox="0 0 1 1" preserveAspectRatio="xMidYMid meet">
  <path d="M0.752 0.612Q0.752 0.663 0.716 0.699Q0.680 0.735 0.629 0.735Q0.562 0.735 0.526 0.679L0.491 0.776Q0.472 0.832 0.414 0.832Q0.379 0.832 0.353 0.808Q0.327 0.784 0.327 0.749Q0.327 0.735 0.333 0.719L0.334 0.717Q0.327 0.702 0.327 0.686Q0.327 0.671 0.333 0.655L0.397 0.475Q0.385 0.477 0.371 0.477Q0.320 0.477 0.284 0.441Q0.248 0.405 0.248 0.354Q0.248 0.338 0.252 0.323Q0.248 0.307 0.248 0.291Q0.248 0.240 0.284 0.204Q0.320 0.168 0.371 0.168Q0.407 0.168 0.437 0.187Q0.467 0.206 0.482 0.237L0.503 0.177Q0.524 0.120 0.582 0.120Q0.617 0.120 0.642 0.144Q0.668 0.169 0.668 0.204Q0.668 0.219 0.663 0.233L0.662 0.237Q0.668 0.251 0.668 0.267Q0.668 0.283 0.663 0.297L0.617 0.426Q0.622 0.426 0.629 0.426Q0.680 0.426 0.716 0.462Q0.752 0.497 0.752 0.548Q0.752 0.565 0.748 0.580Q0.752 0.596 0.752 0.612ZM0.453 0.291Q0.453 0.257 0.429 0.233Q0.405 0.209 0.371 0.209Q0.337 0.209 0.314 0.233Q0.290 0.257 0.290 0.291Q0.290 0.324 0.314 0.348Q0.337 0.372 0.371 0.372Q0.405 0.372 0.429 0.348Q0.453 0.324 0.453 0.291ZM0.710 0.548Q0.710 0.515 0.686 0.491Q0.663 0.467 0.629 0.467Q0.595 0.467 0.571 0.491Q0.547 0.515 0.547 0.548Q0.547 0.582 0.571 0.606Q0.595 0.630 0.629 0.630Q0.663 0.630 0.686 0.606Q0.710 0.582 0.710 0.548ZM0.626 0.204Q0.626 0.186 0.613 0.174Q0.600 0.162 0.582 0.162Q0.552 0.162 0.542 0.191L0.372 0.669Q0.369 0.678 0.369 0.686Q0.369 0.704 0.382 0.715Q0.396 0.727 0.414 0.727Q0.442 0.727 0.453 0.698L0.624 0.219Q0.626 0.212 0.626 0.204ZM0.409 0.291Q0.409 0.307 0.398 0.318Q0.387 0.329 0.371 0.329Q0.355 0.329 0.344 0.318Q0.333 0.307 0.333 0.291Q0.333 0.275 0.344 0.264Q0.355 0.253 0.371 0.253Q0.387 0.253 0.398 0.264Q0.409 0.275 0.409 0.291ZM0.667 0.548Q0.667 0.564 0.656 0.575Q0.645 0.587 0.629 0.587Q0.613 0.587 0.602 0.575Q0.591 0.564 0.591 0.548Q0.591 0.532 0.602 0.521Q0.613 0.510 0.629 0.510Q0.645 0.510 0.656 0.521Q0.667 0.532 0.667 0.548Z" fill="black"/>
</svg>
