<svg xmlns="http://www.w3.org/2000/svg" viewBox="0 0 1 1" preserveAspectRatio="xMidYMid meet">
  <path d="M0.594 0.744Q0.594 0.783 0.566 0.811Q0.539 0.838 0.500 0.838Q0.461 0.838 0.434 0.811Q0.406 0.783 0.406 0.744V0.602Q0.406 0.581 0.415 0.562Q0.406 0.543 0.406 0.522Q0.406 0.505 0.412 0.490Q0.406 0.475 0.406 0.458Q0.406 0.419 0.434 0.392Q0.461 0.364 0.500 0.364Q0.539 0.364 0.566 0.392Q0.594 0.419 0.594 0.458Q0.594 0.475 0.588 0.490Q0.594 0.505 0.594 0.522Q0.594 0.543 0.585 0.562Q0.594 0.581 0.594 0.602ZM0.553 0.458Q0.553 0.436 0.537 0.421Q0.522 0.405 0.500 0.405Q0.478 0.405 0.463 0.421Q0.447 0.436 0.447 0.458Q0.447 0.480 0.463 0.495Q0.478 0.511 0.500 0.511Q0.522 0.511 0.537 0.495Q0.553 0.480 0.553 0.458ZM0.553 0.681V0.602Q0.553 0.581 0.537 0.566Q0.522 0.550 0.500 0.550Q0.478 0.550 0.463 0.566Q0.447 0.581 0.447 0.602V0.681Q0.447 0.702 0.463 0.718Q0.478 0.733 0.500 0.733Q0.522 0.733 0.537 0.718Q0.553 0.702 0.553 0.681Z" fill="black"/>
</svg>
