<svg xmlns="http://www.w3.org/2000/svg" viewBox="0 0 1 1" preserveAspectRatio="xMidYMid meet">
  <path d="M0.704 0.433Q0.704 0.518 0.645 0.578Q0.603 0.620 0.546 0.632Q0.545 0.635 0.545 0.637Q0.550 0.652 0.550 0.669Q0.550 0.708 0.523 0.735Q0.495 0.763 0.456 0.763Q0.416 0.763 0.389 0.735Q0.362 0.708 0.362 0.669Q0.362 0.652 0.367 0.637Q0.362 0.622 0.362 0.605Q0.362 0.588 0.367 0.573Q0.365 0.563 0.365 0.553Q0.365 0.536 0.371 0.521Q0.371 0.519 0.370 0.517Q0.337 0.513 0.317 0.489Q0.296 0.466 0.296 0.433Q0.296 0.413 0.299 0.394Q0.296 0.382 0.296 0.369Q0.296 0.282 0.355 0.224Q0.413 0.165 0.500 0.165Q0.586 0.165 0.645 0.224Q0.704 0.282 0.704 0.369Q0.704 0.385 0.701 0.401Q0.704 0.417 0.704 0.433ZM0.663 0.369Q0.663 0.300 0.616 0.253Q0.569 0.207 0.500 0.207Q0.430 0.207 0.384 0.253Q0.337 0.300 0.337 0.369Q0.337 0.388 0.349 0.400Q0.361 0.412 0.380 0.412Q0.399 0.412 0.411 0.400Q0.423 0.388 0.423 0.369Q0.423 0.337 0.446 0.315Q0.468 0.293 0.500 0.293Q0.531 0.293 0.554 0.315Q0.577 0.337 0.577 0.369Q0.577 0.401 0.554 0.423Q0.531 0.446 0.500 0.446H0.449Q0.430 0.446 0.419 0.458Q0.407 0.470 0.407 0.489Q0.407 0.508 0.419 0.520Q0.430 0.532 0.449 0.532H0.500Q0.569 0.532 0.616 0.485Q0.663 0.438 0.663 0.369ZM0.516 0.401Q0.508 0.398 0.500 0.398Q0.488 0.398 0.478 0.405H0.500Q0.508 0.405 0.516 0.401ZM0.509 0.605Q0.509 0.583 0.493 0.568Q0.477 0.553 0.456 0.553Q0.434 0.553 0.419 0.568Q0.403 0.583 0.403 0.605Q0.403 0.627 0.418 0.642Q0.434 0.658 0.456 0.658Q0.478 0.658 0.493 0.642Q0.509 0.627 0.509 0.605Z" fill="black"/>
</svg>
