<svg xmlns="http://www.w3.org/2000/svg" viewBox="0 0 1 1" preserveAspectRatio="xMidYMid meet">
  <path d="M0.616 0.619Q0.616 0.653 0.590 0.679Q0.565 0.704 0.531 0.704Q0.499 0.704 0.464 0.674Q0.446 0.658 0.413 0.620Q0.384 0.587 0.384 0.557Q0.384 0.542 0.392 0.525Q0.384 0.509 0.384 0.494Q0.384 0.462 0.417 0.426Q0.444 0.399 0.470 0.373Q0.496 0.347 0.531 0.347Q0.565 0.347 0.590 0.372Q0.616 0.398 0.616 0.432Q0.616 0.448 0.609 0.464Q0.616 0.479 0.616 0.496Q0.616 0.511 0.610 0.525Q0.616 0.539 0.616 0.555Q0.616 0.572 0.609 0.587Q0.616 0.602 0.616 0.619ZM0.574 0.555Q0.574 0.539 0.561 0.525L0.529 0.494L0.561 0.462Q0.574 0.448 0.574 0.432Q0.574 0.415 0.561 0.401Q0.548 0.388 0.531 0.388Q0.513 0.388 0.500 0.401L0.444 0.458Q0.426 0.476 0.426 0.494Q0.426 0.508 0.444 0.529Q0.448 0.534 0.500 0.586Q0.513 0.599 0.531 0.599Q0.548 0.599 0.561 0.586Q0.574 0.573 0.574 0.555Z" fill="black"/>
</svg>
