<svg xmlns="http://www.w3.org/2000/svg" viewBox="0 0 1 1" preserveAspectRatio="xMidYMid meet">
  <path d="M0.663 0.620Q0.663 0.658 0.641 0.681Q0.618 0.704 0.579 0.704H0.421Q0.385 0.704 0.361 0.680Q0.337 0.656 0.337 0.620Q0.337 0.603 0.343 0.588Q0.337 0.573 0.337 0.556Q0.337 0.540 0.342 0.525Q0.337 0.511 0.337 0.496Q0.337 0.479 0.343 0.464Q0.337 0.448 0.337 0.432Q0.337 0.396 0.361 0.372Q0.385 0.347 0.421 0.347H0.579Q0.615 0.347 0.639 0.372Q0.663 0.396 0.663 0.432Q0.663 0.449 0.657 0.464Q0.663 0.479 0.663 0.496Q0.663 0.512 0.658 0.526Q0.663 0.540 0.663 0.556Q0.663 0.574 0.658 0.589Q0.663 0.604 0.663 0.620ZM0.622 0.432Q0.622 0.413 0.610 0.401Q0.598 0.389 0.579 0.389H0.421Q0.402 0.389 0.390 0.401Q0.378 0.413 0.378 0.432Q0.378 0.451 0.390 0.463Q0.402 0.475 0.421 0.475H0.579Q0.598 0.475 0.610 0.463Q0.622 0.451 0.622 0.432ZM0.622 0.556Q0.622 0.537 0.610 0.525Q0.598 0.513 0.579 0.513H0.421Q0.402 0.513 0.390 0.525Q0.378 0.537 0.378 0.556Q0.378 0.575 0.390 0.587Q0.402 0.599 0.421 0.599H0.579Q0.622 0.599 0.622 0.556Z" fill="black"/>
</svg>
