<svg xmlns="http://www.w3.org/2000/svg" viewBox="0 0 1 1" preserveAspectRatio="xMidYMid meet">
  <path d="M0.616 0.557Q0.616 0.587 0.587 0.620Q0.554 0.658 0.536 0.674Q0.501 0.704 0.469 0.704Q0.435 0.704 0.410 0.679Q0.384 0.653 0.384 0.619Q0.384 0.602 0.391 0.587Q0.384 0.572 0.384 0.555Q0.384 0.539 0.390 0.525Q0.384 0.511 0.384 0.496Q0.384 0.479 0.391 0.464Q0.384 0.448 0.384 0.432Q0.384 0.398 0.410 0.372Q0.435 0.347 0.469 0.347Q0.501 0.347 0.535 0.377Q0.560 0.403 0.585 0.429Q0.616 0.460 0.616 0.494Q0.616 0.509 0.608 0.525Q0.616 0.541 0.616 0.557ZM0.574 0.494Q0.574 0.476 0.556 0.458L0.500 0.401Q0.487 0.388 0.469 0.388Q0.452 0.388 0.439 0.401Q0.426 0.415 0.426 0.432Q0.426 0.448 0.439 0.462L0.471 0.494L0.439 0.525Q0.426 0.539 0.426 0.555Q0.426 0.573 0.439 0.586Q0.452 0.599 0.469 0.599Q0.487 0.599 0.500 0.586L0.556 0.529Q0.574 0.508 0.574 0.494Z" fill="black"/>
</svg>
