<svg xmlns="http://www.w3.org/2000/svg" viewBox="0 0 1 1" preserveAspectRatio="xMidYMid meet">
  <path d="M0.670 0.749Q0.670 0.784 0.644 0.808Q0.619 0.832 0.584 0.832Q0.526 0.832 0.506 0.776L0.335 0.297Q0.330 0.283 0.330 0.267Q0.330 0.251 0.336 0.236L0.335 0.233Q0.330 0.219 0.330 0.204Q0.330 0.168 0.355 0.144Q0.380 0.120 0.416 0.120Q0.473 0.120 0.494 0.177L0.665 0.655Q0.670 0.669 0.670 0.686Q0.670 0.702 0.664 0.716L0.665 0.719Q0.670 0.733 0.670 0.749ZM0.628 0.686Q0.628 0.676 0.626 0.669L0.455 0.191Q0.445 0.162 0.416 0.162Q0.398 0.162 0.385 0.173Q0.372 0.185 0.372 0.204Q0.372 0.212 0.374 0.219L0.545 0.698Q0.555 0.727 0.584 0.727Q0.602 0.727 0.615 0.715Q0.628 0.704 0.628 0.686Z" fill="black"/>
</svg>
