<svg xmlns="http://www.w3.org/2000/svg" viewBox="0 0 1 1" preserveAspectRatio="xMidYMid meet">
  <path d="M0.646 0.714Q0.646 0.789 0.594 0.841Q0.542 0.893 0.467 0.893H0.439Q0.403 0.893 0.378 0.869Q0.354 0.845 0.354 0.809Q0.354 0.793 0.360 0.777Q0.354 0.762 0.354 0.746Q0.354 0.709 0.378 0.685Q0.403 0.661 0.439 0.661H0.467Q0.477 0.661 0.477 0.651V0.336Q0.477 0.326 0.467 0.326H0.439Q0.403 0.326 0.378 0.302Q0.354 0.278 0.354 0.242Q0.354 0.225 0.360 0.210Q0.354 0.195 0.354 0.178Q0.354 0.142 0.378 0.118Q0.403 0.094 0.439 0.094H0.467Q0.541 0.094 0.594 0.146Q0.646 0.198 0.646 0.272ZM0.604 0.651V0.272Q0.604 0.214 0.565 0.175Q0.525 0.135 0.467 0.135H0.439Q0.420 0.135 0.408 0.147Q0.396 0.159 0.396 0.178Q0.396 0.197 0.408 0.209Q0.420 0.221 0.439 0.221H0.467Q0.488 0.221 0.503 0.236Q0.518 0.251 0.518 0.272V0.651Q0.518 0.672 0.503 0.687Q0.489 0.702 0.467 0.702H0.439Q0.420 0.702 0.408 0.714Q0.396 0.726 0.396 0.746Q0.396 0.765 0.408 0.776Q0.420 0.788 0.439 0.788H0.467Q0.525 0.788 0.565 0.749Q0.604 0.709 0.604 0.651Z" fill="black"/>
</svg>
