<svg xmlns="http://www.w3.org/2000/svg" viewBox="0 0 1 1" preserveAspectRatio="xMidYMid meet">
  <path d="M0.704 0.676Q0.704 0.711 0.680 0.736Q0.656 0.760 0.620 0.760H0.381Q0.345 0.760 0.321 0.736Q0.296 0.712 0.296 0.676Q0.296 0.659 0.302 0.644Q0.296 0.628 0.296 0.612Q0.296 0.576 0.321 0.552Q0.345 0.528 0.381 0.528H0.620Q0.656 0.528 0.680 0.552Q0.704 0.576 0.704 0.612Q0.704 0.629 0.698 0.644Q0.704 0.659 0.704 0.676ZM0.662 0.612Q0.662 0.593 0.650 0.581Q0.639 0.569 0.620 0.569H0.381Q0.362 0.569 0.350 0.581Q0.338 0.593 0.338 0.612Q0.338 0.631 0.350 0.643Q0.362 0.655 0.381 0.655H0.620Q0.639 0.655 0.650 0.643Q0.662 0.631 0.662 0.612Z" fill="black"/>
</svg>
