<svg xmlns="http://www.w3.org/2000/svg" viewBox="0 0 1 1" preserveAspectRatio="xMidYMid meet">
  <path d="M0.647 0.379Q0.647 0.414 0.622 0.439Q0.596 0.464 0.561 0.464Q0.528 0.464 0.503 0.439H0.497Q0.471 0.464 0.438 0.464Q0.404 0.464 0.378 0.439Q0.353 0.413 0.353 0.379Q0.353 0.364 0.360 0.349Q0.353 0.333 0.353 0.316Q0.353 0.284 0.383 0.250Q0.395 0.237 0.437 0.198Q0.470 0.169 0.500 0.169Q0.528 0.169 0.567 0.202Q0.567 0.202 0.622 0.256Q0.647 0.282 0.647 0.316Q0.647 0.333 0.641 0.348Q0.647 0.363 0.647 0.379ZM0.606 0.316Q0.606 0.299 0.593 0.286Q0.544 0.238 0.535 0.230Q0.514 0.211 0.500 0.211Q0.486 0.211 0.465 0.230Q0.454 0.239 0.407 0.286Q0.394 0.299 0.394 0.316Q0.394 0.333 0.407 0.346Q0.421 0.359 0.438 0.359Q0.455 0.359 0.468 0.346L0.500 0.315L0.531 0.346Q0.545 0.359 0.561 0.359Q0.579 0.359 0.593 0.346Q0.606 0.333 0.606 0.316Z" fill="black"/>
</svg>
