<svg xmlns="http://www.w3.org/2000/svg" viewBox="0 0 1 1" preserveAspectRatio="xMidYMid meet">
  <path d="M0.609 0.398Q0.609 0.460 0.552 0.485Q0.533 0.492 0.515 0.492Q0.479 0.492 0.455 0.471Q0.436 0.455 0.422 0.421Q0.410 0.391 0.398 0.362Q0.391 0.345 0.391 0.326Q0.391 0.309 0.396 0.294Q0.391 0.279 0.391 0.263Q0.391 0.222 0.418 0.195Q0.445 0.169 0.485 0.169Q0.521 0.169 0.545 0.190Q0.563 0.205 0.578 0.239Q0.590 0.268 0.602 0.298Q0.609 0.315 0.609 0.335Q0.609 0.352 0.604 0.367Q0.609 0.382 0.609 0.398ZM0.567 0.335Q0.567 0.323 0.564 0.314L0.534 0.242Q0.520 0.210 0.485 0.210Q0.475 0.210 0.465 0.214Q0.433 0.227 0.433 0.263Q0.433 0.273 0.436 0.282L0.466 0.355Q0.480 0.387 0.515 0.387Q0.525 0.387 0.535 0.383Q0.567 0.369 0.567 0.335Z" fill="black"/>
</svg>
