<svg xmlns="http://www.w3.org/2000/svg" viewBox="0 0 1 1" preserveAspectRatio="xMidYMid meet">
  <path d="M0.584 0.746Q0.584 0.782 0.560 0.806Q0.535 0.830 0.500 0.830Q0.463 0.830 0.440 0.806Q0.416 0.782 0.416 0.746V0.186Q0.416 0.149 0.440 0.126Q0.463 0.102 0.500 0.102Q0.536 0.102 0.560 0.126Q0.584 0.149 0.584 0.186ZM0.543 0.682V0.186Q0.543 0.167 0.531 0.155Q0.519 0.143 0.500 0.143Q0.481 0.143 0.469 0.155Q0.457 0.167 0.457 0.186V0.682Q0.457 0.701 0.469 0.713Q0.481 0.725 0.500 0.725Q0.519 0.725 0.531 0.713Q0.543 0.701 0.543 0.682Z" fill="black"/>
</svg>
