<svg xmlns="http://www.w3.org/2000/svg" viewBox="0 0 1 1" preserveAspectRatio="xMidYMid meet">
  <path d="M0.651 0.323Q0.651 0.362 0.614 0.393Q0.580 0.422 0.539 0.422Q0.515 0.422 0.473 0.405Q0.455 0.415 0.434 0.415Q0.400 0.415 0.375 0.389Q0.349 0.364 0.349 0.330Q0.349 0.314 0.356 0.298Q0.349 0.282 0.349 0.266Q0.349 0.226 0.385 0.195Q0.420 0.166 0.461 0.166Q0.489 0.166 0.527 0.183Q0.545 0.174 0.565 0.174Q0.600 0.174 0.625 0.199Q0.651 0.224 0.651 0.259Q0.651 0.275 0.644 0.290Q0.651 0.306 0.651 0.323ZM0.609 0.259Q0.609 0.241 0.596 0.228Q0.583 0.215 0.565 0.215Q0.547 0.215 0.534 0.230Q0.533 0.231 0.531 0.231L0.505 0.219Q0.480 0.207 0.461 0.207Q0.429 0.207 0.402 0.237Q0.391 0.250 0.391 0.266Q0.391 0.283 0.404 0.296Q0.417 0.310 0.434 0.310Q0.452 0.310 0.466 0.295Q0.467 0.294 0.468 0.294L0.496 0.305Q0.524 0.317 0.539 0.317Q0.571 0.317 0.597 0.288Q0.609 0.274 0.609 0.259Z" fill="black"/>
</svg>
