<svg xmlns="http://www.w3.org/2000/svg" viewBox="0 0 1 1" preserveAspectRatio="xMidYMid meet">
  <path d="M0.645 0.809Q0.645 0.845 0.622 0.869Q0.598 0.893 0.561 0.893H0.533Q0.458 0.893 0.406 0.841Q0.355 0.789 0.355 0.714V0.272Q0.355 0.197 0.406 0.145Q0.458 0.094 0.533 0.094H0.561Q0.598 0.094 0.622 0.118Q0.645 0.142 0.645 0.178Q0.645 0.195 0.640 0.210Q0.645 0.225 0.645 0.242Q0.645 0.278 0.622 0.302Q0.598 0.326 0.561 0.326H0.533Q0.523 0.326 0.523 0.336V0.651Q0.523 0.661 0.533 0.661H0.561Q0.598 0.661 0.622 0.685Q0.645 0.709 0.645 0.746Q0.645 0.763 0.640 0.777Q0.645 0.793 0.645 0.809ZM0.604 0.746Q0.604 0.726 0.592 0.714Q0.580 0.702 0.561 0.702H0.533Q0.512 0.702 0.497 0.687Q0.482 0.672 0.482 0.651V0.272Q0.482 0.251 0.497 0.236Q0.512 0.221 0.533 0.221H0.561Q0.580 0.221 0.592 0.209Q0.604 0.197 0.604 0.178Q0.604 0.159 0.592 0.147Q0.580 0.135 0.561 0.135H0.533Q0.475 0.135 0.435 0.174Q0.396 0.214 0.396 0.272V0.651Q0.396 0.709 0.435 0.749Q0.475 0.788 0.533 0.788H0.561Q0.580 0.788 0.592 0.776Q0.604 0.765 0.604 0.746Z" fill="black"/>
</svg>
