<svg xmlns="http://www.w3.org/2000/svg" viewBox="0 0 1 1" preserveAspectRatio="xMidYMid meet">
  <path d="M0.732 0.389Q0.732 0.426 0.708 0.449Q0.684 0.473 0.648 0.473Q0.635 0.473 0.635 0.483V0.587Q0.635 0.662 0.583 0.714Q0.531 0.766 0.456 0.766H0.452Q0.417 0.766 0.394 0.745Q0.371 0.723 0.368 0.690Q0.362 0.690 0.356 0.690H0.352Q0.316 0.690 0.292 0.666Q0.268 0.642 0.268 0.606Q0.268 0.590 0.274 0.574Q0.268 0.559 0.268 0.543Q0.268 0.506 0.292 0.482Q0.316 0.458 0.352 0.458H0.356Q0.366 0.458 0.366 0.448V0.344Q0.366 0.269 0.418 0.217Q0.470 0.165 0.545 0.165Q0.581 0.165 0.605 0.186Q0.630 0.207 0.632 0.242Q0.639 0.241 0.645 0.241Q0.684 0.241 0.708 0.264Q0.732 0.288 0.732 0.326Q0.732 0.342 0.727 0.357Q0.732 0.372 0.732 0.389ZM0.691 0.326Q0.691 0.282 0.648 0.282H0.645Q0.587 0.282 0.547 0.322Q0.508 0.361 0.508 0.420V0.524Q0.508 0.545 0.493 0.560Q0.478 0.575 0.456 0.575H0.452Q0.433 0.575 0.421 0.587Q0.409 0.599 0.409 0.618Q0.409 0.637 0.421 0.649Q0.433 0.661 0.452 0.661H0.456Q0.515 0.661 0.554 0.622Q0.594 0.582 0.594 0.524V0.420Q0.594 0.398 0.608 0.383Q0.623 0.368 0.645 0.368H0.648Q0.667 0.368 0.679 0.357Q0.691 0.345 0.691 0.326ZM0.592 0.250Q0.592 0.231 0.580 0.219Q0.567 0.207 0.548 0.207H0.545Q0.487 0.207 0.447 0.246Q0.408 0.286 0.408 0.344V0.448Q0.408 0.469 0.393 0.484Q0.378 0.499 0.356 0.499H0.352Q0.333 0.499 0.321 0.511Q0.309 0.524 0.309 0.543Q0.309 0.562 0.321 0.573Q0.333 0.585 0.352 0.585H0.356Q0.415 0.585 0.454 0.546Q0.494 0.506 0.494 0.448V0.344Q0.494 0.323 0.509 0.308Q0.524 0.293 0.545 0.293H0.548Q0.567 0.293 0.580 0.281Q0.592 0.269 0.592 0.250Z" fill="black"/>
</svg>
