<svg xmlns="http://www.w3.org/2000/svg" viewBox="0 0 1 1" preserveAspectRatio="xMidYMid meet">
  <path d="M0.678 0.587Q0.678 0.662 0.627 0.714Q0.575 0.766 0.500 0.766Q0.425 0.766 0.373 0.714Q0.322 0.663 0.322 0.587V0.249Q0.322 0.213 0.345 0.189Q0.369 0.165 0.406 0.165Q0.442 0.165 0.466 0.189Q0.490 0.213 0.490 0.249V0.524Q0.490 0.534 0.500 0.534Q0.510 0.534 0.510 0.524V0.249Q0.510 0.213 0.534 0.189Q0.559 0.164 0.594 0.164Q0.631 0.164 0.655 0.188Q0.678 0.212 0.678 0.249ZM0.637 0.524V0.249Q0.637 0.230 0.625 0.218Q0.614 0.205 0.594 0.205Q0.576 0.205 0.564 0.218Q0.551 0.230 0.551 0.249V0.524Q0.551 0.545 0.537 0.560Q0.522 0.575 0.500 0.575Q0.479 0.575 0.464 0.560Q0.449 0.545 0.449 0.524V0.249Q0.449 0.230 0.437 0.219Q0.425 0.207 0.406 0.207Q0.386 0.207 0.375 0.219Q0.363 0.230 0.363 0.249V0.524Q0.363 0.583 0.402 0.622Q0.441 0.661 0.500 0.661Q0.559 0.661 0.598 0.622Q0.637 0.582 0.637 0.524Z" fill="black"/>
</svg>
