<svg xmlns="http://www.w3.org/2000/svg" viewBox="0 0 1 1" preserveAspectRatio="xMidYMid meet">
  <path d="M0.677 0.442Q0.677 0.458 0.671 0.473L0.579 0.712Q0.555 0.773 0.500 0.773Q0.445 0.773 0.421 0.712L0.329 0.473Q0.323 0.458 0.323 0.442Q0.323 0.426 0.330 0.411L0.329 0.410Q0.323 0.394 0.323 0.378Q0.323 0.344 0.349 0.319Q0.374 0.295 0.409 0.295Q0.448 0.295 0.470 0.323Q0.482 0.338 0.500 0.385Q0.518 0.338 0.530 0.323Q0.552 0.295 0.591 0.295Q0.626 0.295 0.651 0.319Q0.677 0.344 0.677 0.378Q0.677 0.394 0.671 0.410L0.670 0.411Q0.677 0.426 0.677 0.442ZM0.635 0.378Q0.635 0.361 0.622 0.349Q0.609 0.337 0.591 0.337Q0.563 0.337 0.552 0.365L0.500 0.499L0.448 0.365Q0.437 0.337 0.409 0.337Q0.391 0.337 0.378 0.349Q0.365 0.361 0.365 0.378Q0.365 0.387 0.368 0.395L0.460 0.634Q0.473 0.668 0.500 0.668Q0.527 0.668 0.540 0.634L0.632 0.395Q0.635 0.387 0.635 0.378Z" fill="black"/>
</svg>
