<svg xmlns="http://www.w3.org/2000/svg" viewBox="0 0 1 1" preserveAspectRatio="xMidYMid meet">
  <path d="M0.712 0.312Q0.712 0.324 0.707 0.340L0.580 0.709Q0.558 0.774 0.500 0.774Q0.442 0.774 0.420 0.709L0.293 0.340Q0.288 0.326 0.288 0.312Q0.288 0.295 0.294 0.281L0.293 0.277Q0.288 0.263 0.288 0.248Q0.288 0.213 0.313 0.189Q0.338 0.165 0.373 0.165Q0.414 0.165 0.442 0.204Q0.463 0.233 0.479 0.287Q0.490 0.324 0.500 0.361Q0.510 0.324 0.521 0.287Q0.537 0.233 0.558 0.204Q0.586 0.165 0.627 0.165Q0.662 0.165 0.687 0.189Q0.712 0.213 0.712 0.248Q0.712 0.261 0.707 0.277L0.706 0.280Q0.712 0.295 0.712 0.312ZM0.671 0.248Q0.671 0.230 0.658 0.218Q0.644 0.206 0.627 0.206Q0.597 0.206 0.587 0.235L0.500 0.487L0.413 0.235Q0.403 0.206 0.373 0.206Q0.356 0.206 0.342 0.218Q0.329 0.230 0.329 0.248Q0.329 0.256 0.331 0.263L0.459 0.632Q0.472 0.669 0.500 0.669Q0.528 0.669 0.541 0.632L0.668 0.263Q0.671 0.254 0.671 0.248Z" fill="black"/>
</svg>
