<svg xmlns="http://www.w3.org/2000/svg" viewBox="0 0 1 1" preserveAspectRatio="xMidYMid meet">
  <path d="M0.767 0.586Q0.767 0.661 0.716 0.713Q0.664 0.765 0.589 0.765Q0.540 0.765 0.500 0.741Q0.460 0.765 0.411 0.765Q0.336 0.765 0.284 0.713Q0.233 0.662 0.233 0.586V0.378Q0.233 0.340 0.255 0.317Q0.278 0.295 0.317 0.295Q0.353 0.295 0.377 0.318Q0.401 0.342 0.401 0.378V0.522Q0.401 0.532 0.411 0.532Q0.421 0.532 0.421 0.522V0.378Q0.421 0.342 0.445 0.318Q0.469 0.295 0.505 0.295Q0.544 0.295 0.567 0.317Q0.590 0.340 0.590 0.378V0.532Q0.599 0.532 0.599 0.522V0.378Q0.599 0.342 0.623 0.318Q0.647 0.295 0.684 0.295Q0.720 0.295 0.744 0.318Q0.767 0.342 0.767 0.378ZM0.726 0.522V0.378Q0.726 0.359 0.714 0.348Q0.703 0.336 0.684 0.336Q0.664 0.336 0.652 0.348Q0.640 0.359 0.640 0.378V0.522Q0.640 0.544 0.626 0.559Q0.611 0.574 0.589 0.574Q0.564 0.574 0.549 0.554V0.378Q0.549 0.336 0.505 0.336Q0.486 0.336 0.475 0.348Q0.463 0.359 0.463 0.378V0.522Q0.463 0.544 0.448 0.559Q0.433 0.574 0.411 0.574Q0.390 0.574 0.375 0.559Q0.360 0.544 0.360 0.522V0.378Q0.360 0.359 0.348 0.348Q0.336 0.336 0.317 0.336Q0.274 0.336 0.274 0.378V0.522Q0.274 0.581 0.313 0.621Q0.352 0.660 0.411 0.660Q0.462 0.660 0.500 0.627Q0.538 0.660 0.589 0.660Q0.648 0.660 0.687 0.620Q0.726 0.581 0.726 0.522Z" fill="black"/>
</svg>
