<svg xmlns="http://www.w3.org/2000/svg" viewBox="0 0 1 1" preserveAspectRatio="xMidYMid meet">
  <path d="M0.678 0.682Q0.678 0.718 0.655 0.742Q0.631 0.766 0.594 0.766Q0.559 0.766 0.534 0.742Q0.510 0.718 0.510 0.682V0.665Q0.510 0.655 0.500 0.655Q0.490 0.655 0.490 0.665V0.682Q0.490 0.718 0.466 0.742Q0.442 0.766 0.406 0.766Q0.369 0.766 0.345 0.742Q0.322 0.718 0.322 0.682V0.665Q0.322 0.651 0.323 0.637Q0.322 0.628 0.322 0.618V0.602Q0.322 0.564 0.336 0.531Q0.322 0.498 0.322 0.460V0.443Q0.322 0.433 0.323 0.424Q0.322 0.410 0.322 0.396V0.380Q0.322 0.344 0.345 0.320Q0.369 0.296 0.406 0.296Q0.444 0.296 0.467 0.318Q0.490 0.341 0.490 0.380V0.396Q0.490 0.406 0.500 0.406Q0.510 0.406 0.510 0.396V0.380Q0.510 0.344 0.534 0.320Q0.558 0.296 0.594 0.296Q0.631 0.296 0.655 0.320Q0.678 0.344 0.678 0.380V0.396Q0.678 0.410 0.677 0.424Q0.678 0.433 0.678 0.443V0.460Q0.678 0.498 0.664 0.531Q0.678 0.564 0.678 0.602V0.618Q0.678 0.628 0.677 0.637Q0.678 0.651 0.678 0.665ZM0.637 0.618V0.602Q0.637 0.540 0.591 0.499Q0.637 0.458 0.637 0.396V0.380Q0.637 0.361 0.625 0.349Q0.614 0.337 0.594 0.337Q0.575 0.337 0.563 0.349Q0.551 0.361 0.551 0.380V0.396Q0.551 0.417 0.536 0.432Q0.521 0.447 0.500 0.447Q0.479 0.447 0.464 0.433Q0.449 0.418 0.449 0.396V0.380Q0.449 0.337 0.406 0.337Q0.386 0.337 0.375 0.349Q0.363 0.361 0.363 0.380V0.396Q0.363 0.458 0.409 0.499Q0.363 0.540 0.363 0.602V0.618Q0.363 0.637 0.375 0.649Q0.386 0.661 0.406 0.661Q0.425 0.661 0.437 0.649Q0.449 0.637 0.449 0.618V0.602Q0.449 0.580 0.464 0.565Q0.479 0.550 0.500 0.550Q0.521 0.550 0.536 0.566Q0.551 0.581 0.551 0.602V0.618Q0.551 0.637 0.564 0.649Q0.576 0.661 0.594 0.661Q0.614 0.661 0.625 0.649Q0.637 0.637 0.637 0.618Z" fill="black"/>
</svg>
