<svg xmlns="http://www.w3.org/2000/svg" viewBox="0 0 1 1" preserveAspectRatio="xMidYMid meet">
  <path d="M0.678 0.682Q0.678 0.718 0.655 0.742Q0.631 0.766 0.594 0.766Q0.559 0.766 0.534 0.742Q0.510 0.718 0.510 0.682V0.595Q0.510 0.585 0.500 0.585Q0.490 0.585 0.490 0.595V0.682Q0.490 0.718 0.466 0.742Q0.442 0.766 0.406 0.766Q0.369 0.766 0.345 0.742Q0.322 0.718 0.322 0.682V0.532Q0.322 0.497 0.333 0.467Q0.322 0.437 0.322 0.403V0.249Q0.322 0.213 0.345 0.189Q0.369 0.165 0.406 0.165Q0.442 0.165 0.466 0.189Q0.490 0.213 0.490 0.249V0.339Q0.490 0.349 0.500 0.349Q0.510 0.349 0.510 0.339V0.249Q0.510 0.214 0.534 0.190Q0.559 0.165 0.594 0.165Q0.631 0.165 0.655 0.189Q0.678 0.213 0.678 0.249V0.403Q0.678 0.437 0.667 0.467Q0.678 0.497 0.678 0.532ZM0.637 0.618V0.532Q0.637 0.475 0.598 0.435Q0.637 0.395 0.637 0.339V0.249Q0.637 0.230 0.625 0.219Q0.614 0.207 0.594 0.207Q0.576 0.207 0.564 0.219Q0.551 0.231 0.551 0.249V0.339Q0.551 0.360 0.536 0.375Q0.521 0.390 0.500 0.390Q0.479 0.390 0.464 0.375Q0.449 0.361 0.449 0.339V0.249Q0.449 0.230 0.437 0.219Q0.425 0.207 0.406 0.207Q0.386 0.207 0.375 0.219Q0.363 0.230 0.363 0.249V0.339Q0.363 0.395 0.402 0.435Q0.363 0.475 0.363 0.532V0.618Q0.363 0.637 0.375 0.649Q0.386 0.661 0.406 0.661Q0.425 0.661 0.437 0.649Q0.449 0.637 0.449 0.618V0.532Q0.449 0.510 0.464 0.495Q0.479 0.480 0.500 0.480Q0.521 0.480 0.536 0.496Q0.551 0.511 0.551 0.532V0.618Q0.551 0.637 0.564 0.649Q0.576 0.661 0.594 0.661Q0.614 0.661 0.625 0.649Q0.637 0.637 0.637 0.618Z" fill="black"/>
</svg>
