<svg xmlns="http://www.w3.org/2000/svg" viewBox="0 0 1 1" preserveAspectRatio="xMidYMid meet">
  <path d="M0.678 0.727Q0.678 0.802 0.627 0.854Q0.575 0.906 0.500 0.906Q0.462 0.906 0.437 0.882Q0.413 0.859 0.413 0.822Q0.413 0.805 0.418 0.790Q0.413 0.775 0.413 0.758Q0.413 0.751 0.414 0.745Q0.371 0.722 0.346 0.680Q0.322 0.639 0.322 0.587V0.380Q0.322 0.344 0.345 0.320Q0.369 0.296 0.406 0.296Q0.444 0.296 0.467 0.318Q0.490 0.341 0.490 0.380V0.524Q0.490 0.534 0.500 0.534Q0.510 0.534 0.510 0.524V0.380Q0.510 0.344 0.534 0.320Q0.558 0.296 0.594 0.296Q0.631 0.296 0.655 0.320Q0.678 0.344 0.678 0.380ZM0.637 0.663V0.380Q0.637 0.361 0.625 0.349Q0.614 0.337 0.594 0.337Q0.575 0.337 0.563 0.349Q0.551 0.361 0.551 0.380V0.524Q0.551 0.545 0.537 0.560Q0.522 0.575 0.500 0.575Q0.479 0.575 0.464 0.560Q0.449 0.545 0.449 0.524V0.380Q0.449 0.337 0.406 0.337Q0.386 0.337 0.375 0.349Q0.363 0.361 0.363 0.380V0.524Q0.363 0.583 0.402 0.622Q0.441 0.661 0.500 0.661Q0.527 0.661 0.551 0.651V0.663Q0.551 0.684 0.536 0.700Q0.521 0.715 0.500 0.715H0.497Q0.478 0.715 0.466 0.727Q0.454 0.739 0.454 0.758Q0.454 0.777 0.466 0.789Q0.478 0.801 0.497 0.801H0.500Q0.558 0.801 0.598 0.761Q0.637 0.722 0.637 0.663Z" fill="black"/>
</svg>
