<svg xmlns="http://www.w3.org/2000/svg" viewBox="0 0 1 1" preserveAspectRatio="xMidYMid meet">
  <path d="M0.686 0.429Q0.686 0.474 0.627 0.548Q0.663 0.572 0.663 0.618Q0.663 0.635 0.658 0.649Q0.663 0.665 0.663 0.682Q0.663 0.718 0.639 0.742Q0.615 0.766 0.580 0.766H0.401Q0.368 0.766 0.345 0.753Q0.314 0.735 0.314 0.696Q0.314 0.681 0.320 0.663Q0.314 0.649 0.314 0.632Q0.314 0.587 0.374 0.513Q0.338 0.489 0.338 0.443Q0.338 0.426 0.344 0.412Q0.338 0.396 0.338 0.380Q0.338 0.344 0.362 0.320Q0.386 0.296 0.422 0.296H0.599Q0.632 0.296 0.655 0.309Q0.686 0.327 0.686 0.365Q0.686 0.380 0.680 0.398Q0.686 0.412 0.686 0.429ZM0.645 0.365Q0.645 0.337 0.599 0.337H0.422Q0.403 0.337 0.392 0.349Q0.380 0.361 0.380 0.380Q0.380 0.398 0.392 0.411Q0.404 0.423 0.422 0.423H0.508L0.413 0.531Q0.355 0.600 0.355 0.632Q0.355 0.661 0.401 0.661H0.580Q0.598 0.661 0.610 0.649Q0.622 0.637 0.622 0.618Q0.622 0.599 0.610 0.587Q0.599 0.575 0.580 0.575H0.493Q0.563 0.496 0.587 0.468Q0.645 0.398 0.645 0.365Z" fill="black"/>
</svg>
