<svg xmlns="http://www.w3.org/2000/svg" viewBox="0 0 1 1" preserveAspectRatio="xMidYMid meet">
  <path d="M0.695 0.307Q0.695 0.331 0.681 0.356L0.576 0.534H0.611Q0.647 0.534 0.671 0.558Q0.695 0.582 0.695 0.618Q0.695 0.635 0.689 0.650Q0.695 0.665 0.695 0.682Q0.695 0.718 0.671 0.742Q0.647 0.766 0.611 0.766H0.391Q0.356 0.766 0.330 0.745Q0.305 0.724 0.305 0.688Q0.305 0.671 0.311 0.655Q0.305 0.641 0.305 0.625Q0.305 0.599 0.319 0.575L0.423 0.398Q0.388 0.396 0.365 0.372Q0.342 0.349 0.342 0.313Q0.342 0.296 0.348 0.281Q0.342 0.266 0.342 0.249Q0.342 0.213 0.366 0.189Q0.390 0.165 0.426 0.165H0.608Q0.644 0.165 0.668 0.183Q0.695 0.204 0.695 0.243Q0.695 0.258 0.690 0.274Q0.695 0.289 0.695 0.307ZM0.654 0.243Q0.654 0.207 0.608 0.207H0.426Q0.407 0.207 0.395 0.219Q0.384 0.230 0.384 0.249Q0.384 0.268 0.395 0.281Q0.407 0.293 0.426 0.293H0.533L0.354 0.596Q0.346 0.610 0.346 0.625Q0.346 0.642 0.359 0.652Q0.373 0.661 0.391 0.661H0.611Q0.630 0.661 0.642 0.649Q0.653 0.637 0.653 0.618Q0.653 0.599 0.642 0.587Q0.630 0.575 0.611 0.575H0.466L0.645 0.271Q0.654 0.256 0.654 0.243Z" fill="black"/>
</svg>
