<svg xmlns="http://www.w3.org/2000/svg" viewBox="0 0 1 1" preserveAspectRatio="xMidYMid meet">
  <path d="M0.568 0.661Q0.568 0.690 0.548 0.709Q0.528 0.728 0.500 0.728Q0.471 0.728 0.452 0.709Q0.432 0.690 0.432 0.661V0.419Q0.432 0.390 0.452 0.371Q0.471 0.352 0.500 0.352Q0.531 0.352 0.549 0.370Q0.568 0.388 0.568 0.419ZM0.534 0.610V0.419Q0.534 0.385 0.500 0.385Q0.484 0.385 0.475 0.394Q0.466 0.404 0.466 0.419V0.610Q0.466 0.625 0.475 0.635Q0.484 0.644 0.500 0.644Q0.515 0.644 0.525 0.635Q0.534 0.625 0.534 0.610Z" fill="black"/>
</svg>
