<svg xmlns="http://www.w3.org/2000/svg" viewBox="0 0 1 1" preserveAspectRatio="xMidYMid meet">
  <path d="M0.790 0.662Q0.790 0.691 0.770 0.710Q0.751 0.729 0.722 0.729Q0.636 0.729 0.574 0.670Q0.511 0.729 0.426 0.729Q0.335 0.729 0.273 0.667Q0.210 0.604 0.210 0.514Q0.210 0.501 0.212 0.488Q0.210 0.476 0.210 0.463Q0.210 0.372 0.273 0.310Q0.335 0.247 0.426 0.247Q0.515 0.247 0.574 0.306Q0.636 0.247 0.722 0.247Q0.751 0.247 0.770 0.266Q0.790 0.285 0.790 0.314Q0.790 0.328 0.785 0.340Q0.790 0.352 0.790 0.365Q0.790 0.393 0.771 0.413Q0.790 0.432 0.790 0.460Q0.790 0.473 0.785 0.486Q0.790 0.498 0.790 0.511Q0.790 0.542 0.769 0.561Q0.790 0.581 0.790 0.611Q0.790 0.624 0.785 0.637Q0.790 0.649 0.790 0.662ZM0.757 0.611Q0.757 0.596 0.747 0.586Q0.737 0.576 0.722 0.576Q0.684 0.576 0.654 0.554Q0.624 0.531 0.613 0.495H0.722Q0.737 0.495 0.747 0.485Q0.757 0.476 0.757 0.460Q0.757 0.445 0.747 0.436Q0.737 0.426 0.722 0.426H0.614Q0.626 0.391 0.656 0.370Q0.685 0.349 0.722 0.349Q0.737 0.349 0.747 0.339Q0.757 0.330 0.757 0.314Q0.757 0.299 0.747 0.290Q0.737 0.280 0.722 0.280Q0.678 0.280 0.639 0.300Q0.600 0.321 0.574 0.356Q0.519 0.280 0.426 0.280Q0.349 0.280 0.296 0.333Q0.243 0.386 0.243 0.463Q0.243 0.540 0.296 0.593Q0.349 0.645 0.426 0.645Q0.470 0.645 0.509 0.625Q0.548 0.605 0.574 0.569Q0.600 0.605 0.639 0.625Q0.678 0.645 0.722 0.645Q0.737 0.645 0.747 0.636Q0.757 0.626 0.757 0.611ZM0.540 0.463Q0.540 0.511 0.507 0.544Q0.474 0.576 0.426 0.576Q0.377 0.576 0.345 0.544Q0.312 0.511 0.312 0.463Q0.312 0.414 0.345 0.381Q0.377 0.349 0.426 0.349Q0.474 0.349 0.507 0.382Q0.540 0.414 0.540 0.463ZM0.503 0.488Q0.497 0.470 0.483 0.456Q0.460 0.433 0.426 0.433Q0.398 0.433 0.377 0.448Q0.357 0.463 0.349 0.488Q0.357 0.513 0.377 0.528Q0.398 0.543 0.426 0.543Q0.453 0.543 0.474 0.528Q0.495 0.513 0.503 0.488Z" fill="black"/>
</svg>
