<svg xmlns="http://www.w3.org/2000/svg" viewBox="0 0 1 1" preserveAspectRatio="xMidYMid meet">
  <path d="M0.746 0.499Q0.746 0.531 0.720 0.552Q0.716 0.556 0.706 0.567Q0.722 0.585 0.722 0.611Q0.722 0.624 0.717 0.636Q0.722 0.648 0.722 0.662Q0.722 0.690 0.702 0.710Q0.682 0.729 0.654 0.729H0.609Q0.555 0.729 0.513 0.698Q0.471 0.729 0.417 0.729Q0.348 0.729 0.301 0.682Q0.254 0.635 0.254 0.566Q0.254 0.553 0.256 0.540Q0.254 0.528 0.254 0.515Q0.254 0.445 0.301 0.399Q0.348 0.352 0.417 0.352Q0.471 0.352 0.513 0.382Q0.555 0.352 0.609 0.352Q0.654 0.352 0.697 0.377Q0.746 0.405 0.746 0.448Q0.746 0.462 0.741 0.473Q0.746 0.486 0.746 0.499ZM0.713 0.448Q0.713 0.435 0.703 0.425Q0.664 0.385 0.609 0.385Q0.551 0.385 0.513 0.427Q0.474 0.385 0.417 0.385Q0.361 0.385 0.324 0.422Q0.287 0.459 0.287 0.515Q0.287 0.570 0.324 0.608Q0.361 0.645 0.417 0.645Q0.474 0.645 0.513 0.603Q0.551 0.645 0.609 0.645H0.654Q0.669 0.645 0.679 0.635Q0.689 0.625 0.689 0.611Q0.689 0.595 0.679 0.586Q0.669 0.576 0.654 0.576H0.609Q0.583 0.576 0.565 0.558Q0.547 0.540 0.547 0.515Q0.547 0.489 0.565 0.471Q0.583 0.454 0.609 0.454Q0.615 0.454 0.622 0.455L0.585 0.491Q0.574 0.502 0.574 0.515Q0.574 0.529 0.585 0.540Q0.595 0.550 0.610 0.550Q0.622 0.550 0.633 0.540L0.698 0.476Q0.713 0.465 0.713 0.448ZM0.479 0.515Q0.479 0.540 0.460 0.558Q0.442 0.576 0.417 0.576Q0.391 0.576 0.374 0.558Q0.356 0.540 0.356 0.515Q0.356 0.489 0.374 0.471Q0.391 0.454 0.417 0.454Q0.442 0.454 0.460 0.471Q0.479 0.489 0.479 0.515Z" fill="black"/>
</svg>
