<svg xmlns="http://www.w3.org/2000/svg" viewBox="0 0 1 1" preserveAspectRatio="xMidYMid meet">
  <path d="M0.633 0.365Q0.633 0.394 0.615 0.413Q0.597 0.431 0.569 0.433L0.568 0.596Q0.567 0.651 0.529 0.690Q0.490 0.729 0.435 0.729Q0.405 0.729 0.386 0.710Q0.367 0.691 0.367 0.662Q0.367 0.648 0.372 0.636Q0.367 0.624 0.367 0.611Q0.367 0.582 0.386 0.563Q0.405 0.543 0.433 0.543L0.432 0.431Q0.432 0.424 0.432 0.416L0.432 0.380Q0.431 0.325 0.470 0.286Q0.509 0.247 0.565 0.247Q0.594 0.247 0.613 0.266Q0.633 0.285 0.633 0.314Q0.633 0.328 0.628 0.340Q0.633 0.352 0.633 0.365ZM0.600 0.314Q0.600 0.299 0.590 0.290Q0.580 0.280 0.565 0.280Q0.523 0.280 0.494 0.309Q0.465 0.338 0.465 0.380L0.466 0.545Q0.466 0.558 0.457 0.567Q0.448 0.576 0.435 0.576Q0.419 0.576 0.410 0.586Q0.400 0.595 0.400 0.611Q0.400 0.626 0.410 0.635Q0.419 0.645 0.435 0.645Q0.476 0.645 0.505 0.616Q0.534 0.587 0.534 0.545L0.534 0.380Q0.534 0.352 0.567 0.349Q0.600 0.346 0.600 0.314ZM0.614 0.225Q0.614 0.252 0.594 0.273Q0.551 0.315 0.550 0.316Q0.519 0.343 0.496 0.343Q0.472 0.343 0.442 0.316Q0.439 0.313 0.398 0.273Q0.378 0.252 0.378 0.225Q0.378 0.212 0.383 0.200Q0.378 0.188 0.378 0.174Q0.378 0.147 0.398 0.126Q0.419 0.106 0.446 0.106Q0.473 0.106 0.494 0.126H0.498Q0.518 0.106 0.545 0.106Q0.573 0.106 0.594 0.126Q0.614 0.146 0.614 0.174Q0.614 0.188 0.609 0.200Q0.614 0.212 0.614 0.225ZM0.581 0.174Q0.581 0.160 0.570 0.150Q0.559 0.139 0.545 0.139Q0.532 0.139 0.521 0.150L0.496 0.175L0.470 0.150Q0.459 0.139 0.446 0.139Q0.432 0.139 0.422 0.150Q0.411 0.161 0.411 0.174Q0.411 0.188 0.422 0.198Q0.462 0.239 0.468 0.244Q0.485 0.258 0.496 0.258Q0.507 0.258 0.524 0.244Q0.528 0.240 0.570 0.198Q0.581 0.188 0.581 0.174Z" fill="black"/>
</svg>
