<svg xmlns="http://www.w3.org/2000/svg" viewBox="0 0 1 1" preserveAspectRatio="xMidYMid meet">
  <path d="M0.656 0.360Q0.656 0.380 0.645 0.400L0.561 0.542H0.589Q0.618 0.542 0.637 0.562Q0.656 0.581 0.656 0.610Q0.656 0.623 0.651 0.636Q0.656 0.648 0.656 0.661Q0.656 0.690 0.637 0.709Q0.618 0.728 0.589 0.728H0.413Q0.384 0.728 0.364 0.712Q0.344 0.695 0.344 0.666Q0.344 0.652 0.349 0.640Q0.344 0.628 0.344 0.615Q0.344 0.594 0.355 0.575L0.438 0.433Q0.410 0.432 0.392 0.413Q0.374 0.394 0.374 0.365Q0.374 0.352 0.378 0.340Q0.374 0.328 0.374 0.314Q0.374 0.285 0.393 0.266Q0.412 0.247 0.441 0.247H0.587Q0.616 0.247 0.635 0.261Q0.656 0.278 0.656 0.309Q0.656 0.322 0.652 0.334Q0.656 0.346 0.656 0.360ZM0.623 0.309Q0.623 0.280 0.587 0.280H0.441Q0.426 0.280 0.416 0.290Q0.407 0.299 0.407 0.314Q0.407 0.330 0.416 0.339Q0.426 0.349 0.441 0.349H0.527L0.383 0.592Q0.377 0.603 0.377 0.615Q0.377 0.629 0.387 0.637Q0.398 0.644 0.413 0.644H0.589Q0.604 0.644 0.613 0.635Q0.623 0.625 0.623 0.610Q0.623 0.595 0.613 0.585Q0.604 0.575 0.589 0.575H0.473L0.616 0.332Q0.623 0.320 0.623 0.309ZM0.607 0.225Q0.607 0.252 0.587 0.273Q0.544 0.315 0.543 0.316Q0.512 0.343 0.489 0.343Q0.465 0.343 0.435 0.316Q0.432 0.313 0.391 0.273Q0.371 0.252 0.371 0.225Q0.371 0.212 0.376 0.200Q0.371 0.188 0.371 0.174Q0.371 0.147 0.391 0.126Q0.412 0.106 0.439 0.106Q0.466 0.106 0.487 0.126H0.491Q0.511 0.106 0.538 0.106Q0.566 0.106 0.587 0.126Q0.607 0.146 0.607 0.174Q0.607 0.188 0.602 0.200Q0.607 0.212 0.607 0.225ZM0.574 0.174Q0.574 0.160 0.563 0.150Q0.552 0.139 0.538 0.139Q0.525 0.139 0.514 0.150L0.489 0.175L0.463 0.150Q0.453 0.139 0.439 0.139Q0.426 0.139 0.415 0.150Q0.404 0.161 0.404 0.174Q0.404 0.188 0.415 0.198Q0.455 0.239 0.461 0.244Q0.478 0.258 0.489 0.258Q0.501 0.258 0.517 0.244Q0.521 0.240 0.563 0.198Q0.574 0.188 0.574 0.174Z" fill="black"/>
</svg>
