<svg xmlns="http://www.w3.org/2000/svg" viewBox="0 0 1 1" preserveAspectRatio="xMidYMid meet">
  <path d="M0.650 0.366Q0.650 0.395 0.631 0.414Q0.612 0.433 0.583 0.433H0.576Q0.568 0.433 0.568 0.441V0.449Q0.591 0.454 0.605 0.472Q0.620 0.490 0.620 0.514Q0.620 0.528 0.615 0.540Q0.620 0.552 0.620 0.565Q0.620 0.590 0.605 0.608Q0.591 0.626 0.568 0.631V0.691Q0.568 0.751 0.526 0.792Q0.484 0.834 0.424 0.834H0.417Q0.388 0.834 0.369 0.814Q0.350 0.795 0.350 0.766Q0.350 0.753 0.354 0.741Q0.350 0.728 0.350 0.715Q0.350 0.686 0.369 0.667Q0.388 0.648 0.417 0.648H0.424Q0.432 0.648 0.432 0.640V0.629Q0.412 0.623 0.400 0.605Q0.388 0.588 0.388 0.565Q0.388 0.552 0.392 0.540Q0.388 0.528 0.388 0.514Q0.388 0.492 0.400 0.475Q0.412 0.457 0.432 0.451V0.390Q0.432 0.330 0.474 0.289Q0.516 0.247 0.576 0.247H0.583Q0.614 0.247 0.632 0.266Q0.650 0.284 0.650 0.315Q0.650 0.328 0.646 0.339Q0.650 0.352 0.650 0.366ZM0.617 0.315Q0.617 0.280 0.583 0.280H0.576Q0.529 0.280 0.497 0.312Q0.466 0.344 0.466 0.390V0.480H0.455Q0.440 0.480 0.430 0.490Q0.421 0.499 0.421 0.514Q0.421 0.530 0.430 0.539Q0.440 0.549 0.455 0.549H0.466V0.640Q0.466 0.657 0.454 0.669Q0.442 0.681 0.424 0.681H0.417Q0.402 0.681 0.392 0.690Q0.383 0.700 0.383 0.715Q0.383 0.730 0.392 0.740Q0.402 0.750 0.417 0.750H0.424Q0.471 0.750 0.503 0.718Q0.534 0.687 0.534 0.640V0.549H0.552Q0.568 0.549 0.577 0.539Q0.586 0.530 0.586 0.514Q0.586 0.499 0.577 0.490Q0.568 0.480 0.552 0.480H0.534V0.390Q0.534 0.373 0.546 0.361Q0.558 0.349 0.576 0.349H0.583Q0.598 0.349 0.608 0.340Q0.617 0.330 0.617 0.315Z" fill="black"/>
</svg>
