<svg xmlns="http://www.w3.org/2000/svg" viewBox="0 0 1 1" preserveAspectRatio="xMidYMid meet">
  <path d="M0.628 0.565Q0.628 0.594 0.609 0.614Q0.589 0.633 0.560 0.633H0.440Q0.411 0.633 0.391 0.614Q0.372 0.594 0.372 0.565Q0.372 0.552 0.377 0.540Q0.372 0.528 0.372 0.514Q0.372 0.485 0.391 0.466Q0.411 0.447 0.440 0.447H0.560Q0.589 0.447 0.609 0.466Q0.628 0.485 0.628 0.514Q0.628 0.528 0.623 0.540Q0.628 0.552 0.628 0.565ZM0.595 0.514Q0.595 0.499 0.585 0.490Q0.575 0.480 0.560 0.480H0.440Q0.425 0.480 0.415 0.490Q0.405 0.499 0.405 0.514Q0.405 0.530 0.415 0.539Q0.425 0.549 0.440 0.549H0.560Q0.575 0.549 0.585 0.539Q0.595 0.530 0.595 0.514Z" fill="black"/>
</svg>
