<svg xmlns="http://www.w3.org/2000/svg" viewBox="0 0 1 1" preserveAspectRatio="xMidYMid meet">
  <path d="M0.679 0.565Q0.679 0.594 0.660 0.614Q0.640 0.633 0.611 0.633H0.389Q0.360 0.633 0.340 0.614Q0.321 0.594 0.321 0.565Q0.321 0.552 0.326 0.540Q0.321 0.528 0.321 0.514Q0.321 0.485 0.340 0.466Q0.360 0.447 0.389 0.447H0.611Q0.640 0.447 0.660 0.466Q0.679 0.485 0.679 0.514Q0.679 0.528 0.674 0.540Q0.679 0.552 0.679 0.565ZM0.646 0.514Q0.646 0.499 0.636 0.490Q0.626 0.480 0.611 0.480H0.389Q0.374 0.480 0.364 0.490Q0.354 0.499 0.354 0.514Q0.354 0.530 0.364 0.539Q0.374 0.549 0.389 0.549H0.611Q0.626 0.549 0.636 0.539Q0.646 0.530 0.646 0.514Z" fill="black"/>
</svg>
