<svg xmlns="http://www.w3.org/2000/svg" viewBox="0 0 1 1" preserveAspectRatio="xMidYMid meet">
  <path d="M0.575 0.436Q0.575 0.467 0.553 0.489Q0.531 0.511 0.500 0.511Q0.469 0.511 0.447 0.489Q0.425 0.467 0.425 0.436V0.323Q0.425 0.292 0.447 0.269Q0.469 0.247 0.500 0.247Q0.531 0.247 0.553 0.269Q0.575 0.292 0.575 0.323ZM0.542 0.385V0.323Q0.542 0.305 0.530 0.293Q0.517 0.280 0.500 0.280Q0.483 0.280 0.470 0.293Q0.458 0.305 0.458 0.323V0.385Q0.458 0.403 0.470 0.415Q0.483 0.427 0.500 0.427Q0.517 0.427 0.530 0.415Q0.542 0.403 0.542 0.385Z" fill="black"/>
</svg>
