<svg xmlns="http://www.w3.org/2000/svg" viewBox="0 0 1 1" preserveAspectRatio="xMidYMid meet">
  <path d="M0.629 0.436Q0.629 0.468 0.607 0.490Q0.585 0.511 0.554 0.511Q0.522 0.511 0.500 0.489L0.499 0.489Q0.478 0.511 0.446 0.511Q0.415 0.511 0.393 0.489Q0.371 0.467 0.371 0.436V0.323Q0.371 0.292 0.393 0.269Q0.415 0.247 0.446 0.247Q0.478 0.247 0.500 0.270Q0.522 0.247 0.554 0.247Q0.585 0.247 0.607 0.269Q0.629 0.291 0.629 0.323ZM0.596 0.385V0.323Q0.596 0.305 0.584 0.293Q0.571 0.280 0.554 0.280Q0.536 0.280 0.524 0.293Q0.512 0.305 0.512 0.323V0.385Q0.512 0.403 0.524 0.415Q0.536 0.427 0.554 0.427Q0.571 0.427 0.584 0.415Q0.596 0.403 0.596 0.385ZM0.489 0.385V0.323Q0.489 0.305 0.476 0.293Q0.464 0.280 0.446 0.280Q0.429 0.280 0.417 0.293Q0.404 0.305 0.404 0.323V0.385Q0.404 0.403 0.417 0.415Q0.429 0.427 0.446 0.427Q0.464 0.427 0.476 0.415Q0.489 0.403 0.489 0.385Z" fill="black"/>
</svg>
