<svg xmlns="http://www.w3.org/2000/svg" viewBox="0 0 1 1" preserveAspectRatio="xMidYMid meet">
  <path d="M0.508 0.711Q0.508 0.742 0.486 0.764Q0.464 0.786 0.433 0.786Q0.402 0.786 0.380 0.764Q0.358 0.742 0.358 0.711V0.597Q0.358 0.566 0.380 0.544Q0.402 0.522 0.433 0.522Q0.464 0.522 0.486 0.544Q0.508 0.566 0.508 0.597ZM0.475 0.660V0.597Q0.475 0.580 0.463 0.568Q0.450 0.556 0.433 0.556Q0.416 0.556 0.403 0.568Q0.391 0.580 0.391 0.597V0.660Q0.391 0.677 0.403 0.690Q0.416 0.702 0.433 0.702Q0.450 0.702 0.463 0.690Q0.475 0.677 0.475 0.660ZM0.642 0.711Q0.642 0.742 0.620 0.764Q0.598 0.786 0.567 0.786Q0.536 0.786 0.514 0.764Q0.492 0.742 0.492 0.711V0.597Q0.492 0.566 0.514 0.544Q0.536 0.522 0.567 0.522Q0.598 0.522 0.620 0.544Q0.642 0.566 0.642 0.597ZM0.609 0.660V0.597Q0.609 0.580 0.597 0.568Q0.584 0.556 0.567 0.556Q0.550 0.556 0.537 0.568Q0.525 0.580 0.525 0.597V0.660Q0.525 0.677 0.537 0.690Q0.550 0.702 0.567 0.702Q0.584 0.702 0.597 0.690Q0.609 0.677 0.609 0.660Z" fill="black"/>
</svg>
