<svg xmlns="http://www.w3.org/2000/svg" viewBox="0 0 1 1" preserveAspectRatio="xMidYMid meet">
  <path d="M0.601 0.520Q0.601 0.562 0.572 0.591Q0.542 0.621 0.500 0.621Q0.458 0.621 0.428 0.592Q0.399 0.562 0.399 0.520Q0.399 0.507 0.402 0.494Q0.399 0.482 0.399 0.469Q0.399 0.427 0.428 0.397Q0.458 0.368 0.500 0.368Q0.542 0.368 0.572 0.398Q0.601 0.427 0.601 0.469Q0.601 0.482 0.598 0.494Q0.601 0.507 0.601 0.520ZM0.568 0.469Q0.568 0.441 0.548 0.421Q0.528 0.401 0.500 0.401Q0.472 0.401 0.452 0.421Q0.432 0.440 0.432 0.469Q0.432 0.497 0.452 0.517Q0.472 0.537 0.500 0.537Q0.528 0.537 0.548 0.517Q0.568 0.497 0.568 0.469Z" fill="black"/>
</svg>
