<svg xmlns="http://www.w3.org/2000/svg" viewBox="0 0 1 1" preserveAspectRatio="xMidYMid meet">
  <path d="M0.696 0.648Q0.696 0.680 0.674 0.702Q0.652 0.724 0.621 0.724Q0.582 0.724 0.559 0.693Q0.537 0.724 0.498 0.724Q0.461 0.724 0.439 0.695Q0.416 0.724 0.379 0.724Q0.348 0.724 0.326 0.702Q0.304 0.680 0.304 0.648Q0.304 0.635 0.309 0.623Q0.304 0.611 0.304 0.597Q0.304 0.566 0.326 0.544Q0.348 0.522 0.379 0.522Q0.416 0.522 0.439 0.551Q0.462 0.522 0.498 0.522Q0.537 0.522 0.560 0.554Q0.582 0.522 0.621 0.522Q0.652 0.522 0.674 0.544Q0.696 0.566 0.696 0.597Q0.696 0.611 0.692 0.623Q0.696 0.635 0.696 0.648ZM0.663 0.597Q0.663 0.580 0.651 0.568Q0.638 0.556 0.621 0.556Q0.603 0.556 0.591 0.568Q0.579 0.580 0.579 0.597Q0.579 0.615 0.591 0.627Q0.603 0.640 0.621 0.640Q0.638 0.640 0.651 0.627Q0.663 0.615 0.663 0.597ZM0.541 0.597Q0.541 0.580 0.528 0.568Q0.516 0.556 0.498 0.556Q0.481 0.556 0.469 0.568Q0.456 0.580 0.456 0.597Q0.456 0.615 0.468 0.627Q0.480 0.640 0.498 0.640Q0.516 0.640 0.528 0.627Q0.541 0.615 0.541 0.597ZM0.422 0.597Q0.422 0.580 0.409 0.568Q0.397 0.556 0.379 0.556Q0.362 0.556 0.350 0.568Q0.337 0.580 0.337 0.597Q0.337 0.615 0.349 0.627Q0.362 0.640 0.379 0.640Q0.397 0.640 0.410 0.627Q0.422 0.615 0.422 0.597Z" fill="black"/>
</svg>
