<svg xmlns="http://www.w3.org/2000/svg" viewBox="0 0 1 1" preserveAspectRatio="xMidYMid meet">
  <path d="M0.720 0.682Q0.720 0.723 0.691 0.752Q0.663 0.781 0.622 0.781Q0.585 0.781 0.557 0.756Q0.529 0.732 0.524 0.695Q0.509 0.689 0.496 0.677L0.475 0.736Q0.459 0.781 0.412 0.781Q0.384 0.781 0.364 0.762Q0.343 0.743 0.343 0.715Q0.343 0.703 0.348 0.691L0.348 0.689Q0.343 0.677 0.343 0.664Q0.343 0.652 0.348 0.640L0.399 0.495Q0.389 0.497 0.378 0.497Q0.337 0.497 0.309 0.468Q0.280 0.439 0.280 0.399Q0.280 0.385 0.283 0.373Q0.280 0.361 0.280 0.348Q0.280 0.307 0.309 0.278Q0.337 0.249 0.378 0.249Q0.407 0.249 0.431 0.265Q0.455 0.280 0.467 0.305L0.484 0.256Q0.501 0.211 0.547 0.211Q0.575 0.211 0.595 0.230Q0.616 0.250 0.616 0.278Q0.616 0.291 0.612 0.302L0.611 0.304Q0.616 0.316 0.616 0.329Q0.616 0.341 0.612 0.353L0.575 0.456Q0.608 0.460 0.632 0.484Q0.656 0.508 0.661 0.541Q0.688 0.552 0.704 0.577Q0.720 0.602 0.720 0.631Q0.720 0.645 0.717 0.657Q0.720 0.670 0.720 0.682ZM0.443 0.348Q0.443 0.321 0.424 0.301Q0.405 0.282 0.378 0.282Q0.351 0.282 0.332 0.301Q0.313 0.321 0.313 0.348Q0.313 0.375 0.332 0.394Q0.351 0.413 0.378 0.413Q0.405 0.413 0.424 0.394Q0.443 0.375 0.443 0.348ZM0.583 0.278Q0.583 0.264 0.572 0.254Q0.561 0.244 0.547 0.244Q0.523 0.244 0.515 0.268L0.379 0.651Q0.376 0.658 0.376 0.664Q0.376 0.678 0.387 0.688Q0.398 0.697 0.412 0.697Q0.435 0.697 0.443 0.674L0.581 0.291Q0.583 0.285 0.583 0.278ZM0.687 0.631Q0.687 0.606 0.670 0.587Q0.653 0.569 0.627 0.567Q0.628 0.561 0.628 0.554Q0.628 0.527 0.609 0.508Q0.590 0.489 0.563 0.489Q0.536 0.489 0.517 0.508Q0.498 0.527 0.498 0.554Q0.498 0.580 0.515 0.598Q0.533 0.617 0.558 0.619Q0.557 0.625 0.557 0.631Q0.557 0.659 0.576 0.678Q0.595 0.697 0.622 0.697Q0.649 0.697 0.668 0.678Q0.687 0.659 0.687 0.631ZM0.409 0.348Q0.409 0.360 0.400 0.369Q0.391 0.378 0.378 0.378Q0.365 0.378 0.357 0.369Q0.348 0.360 0.348 0.348Q0.348 0.335 0.357 0.326Q0.365 0.317 0.378 0.317Q0.391 0.317 0.400 0.326Q0.409 0.335 0.409 0.348ZM0.594 0.554Q0.594 0.567 0.585 0.576Q0.576 0.585 0.563 0.585Q0.550 0.585 0.542 0.576Q0.533 0.567 0.533 0.554Q0.533 0.541 0.542 0.532Q0.550 0.523 0.563 0.523Q0.576 0.523 0.585 0.532Q0.594 0.541 0.594 0.554ZM0.652 0.631Q0.652 0.644 0.643 0.653Q0.635 0.663 0.622 0.663Q0.609 0.663 0.600 0.653Q0.591 0.644 0.591 0.631Q0.591 0.619 0.600 0.610Q0.609 0.601 0.622 0.601Q0.635 0.601 0.643 0.610Q0.652 0.619 0.652 0.631Z" fill="black"/>
</svg>
