<svg xmlns="http://www.w3.org/2000/svg" viewBox="0 0 1 1" preserveAspectRatio="xMidYMid meet">
  <path d="M0.593 0.611Q0.593 0.638 0.572 0.659Q0.552 0.679 0.524 0.679Q0.499 0.679 0.471 0.655Q0.457 0.642 0.430 0.611Q0.407 0.585 0.407 0.561Q0.407 0.549 0.413 0.536Q0.407 0.522 0.407 0.510Q0.407 0.485 0.433 0.456Q0.455 0.434 0.476 0.413Q0.497 0.392 0.524 0.392Q0.552 0.392 0.572 0.413Q0.593 0.433 0.593 0.461Q0.593 0.474 0.588 0.486Q0.593 0.498 0.593 0.512Q0.593 0.524 0.588 0.536Q0.593 0.547 0.593 0.560Q0.593 0.573 0.588 0.585Q0.593 0.597 0.593 0.611ZM0.560 0.560Q0.560 0.546 0.549 0.536L0.523 0.510L0.549 0.485Q0.560 0.474 0.560 0.461Q0.560 0.447 0.549 0.436Q0.538 0.426 0.524 0.426Q0.511 0.426 0.500 0.436L0.455 0.482Q0.440 0.496 0.440 0.510Q0.440 0.521 0.455 0.539Q0.458 0.542 0.500 0.584Q0.511 0.595 0.524 0.595Q0.538 0.595 0.549 0.584Q0.560 0.573 0.560 0.560Z" fill="black"/>
</svg>
