<svg xmlns="http://www.w3.org/2000/svg" viewBox="0 0 1 1" preserveAspectRatio="xMidYMid meet">
  <path d="M0.636 0.329Q0.636 0.341 0.632 0.353L0.495 0.736Q0.479 0.781 0.433 0.781Q0.405 0.781 0.384 0.762Q0.364 0.743 0.364 0.715Q0.364 0.702 0.368 0.691L0.369 0.689Q0.364 0.677 0.364 0.664Q0.364 0.651 0.368 0.640L0.505 0.256Q0.521 0.211 0.567 0.211Q0.596 0.211 0.616 0.230Q0.636 0.249 0.636 0.278Q0.636 0.291 0.632 0.302L0.631 0.304Q0.636 0.315 0.636 0.329ZM0.603 0.278Q0.603 0.263 0.593 0.254Q0.582 0.244 0.567 0.244Q0.544 0.244 0.536 0.268L0.399 0.651Q0.397 0.656 0.397 0.664Q0.397 0.678 0.408 0.688Q0.418 0.697 0.433 0.697Q0.456 0.697 0.464 0.674L0.601 0.291Q0.603 0.285 0.603 0.278Z" fill="black"/>
</svg>
