<svg xmlns="http://www.w3.org/2000/svg" viewBox="0 0 1 1" preserveAspectRatio="xMidYMid meet">
  <path d="M0.661 0.662Q0.661 0.691 0.642 0.710Q0.623 0.729 0.594 0.729Q0.538 0.729 0.490 0.703Q0.441 0.676 0.412 0.630H0.406Q0.377 0.630 0.358 0.611Q0.339 0.591 0.339 0.562Q0.339 0.549 0.343 0.537Q0.339 0.525 0.339 0.511Q0.339 0.498 0.343 0.486Q0.339 0.475 0.339 0.463Q0.339 0.450 0.344 0.437Q0.339 0.425 0.339 0.412Q0.339 0.383 0.358 0.363Q0.377 0.344 0.406 0.344H0.413Q0.443 0.299 0.491 0.273Q0.539 0.247 0.594 0.247Q0.623 0.247 0.642 0.266Q0.661 0.285 0.661 0.314Q0.661 0.328 0.657 0.340Q0.661 0.352 0.661 0.365Q0.661 0.394 0.642 0.414Q0.641 0.426 0.637 0.437Q0.642 0.449 0.642 0.463Q0.642 0.476 0.638 0.487Q0.642 0.498 0.642 0.511Q0.642 0.525 0.637 0.537Q0.642 0.549 0.642 0.562V0.563Q0.661 0.582 0.661 0.611Q0.661 0.625 0.657 0.637Q0.661 0.649 0.661 0.662ZM0.628 0.611Q0.628 0.596 0.619 0.586Q0.609 0.576 0.594 0.576Q0.549 0.576 0.516 0.546H0.574Q0.589 0.546 0.599 0.536Q0.609 0.527 0.609 0.511Q0.609 0.496 0.599 0.486Q0.589 0.477 0.574 0.477H0.481Q0.480 0.470 0.480 0.463Q0.480 0.455 0.481 0.446H0.574Q0.589 0.446 0.599 0.437Q0.609 0.427 0.609 0.412Q0.609 0.397 0.599 0.387Q0.589 0.377 0.574 0.377H0.519Q0.551 0.349 0.594 0.349Q0.609 0.349 0.619 0.339Q0.628 0.330 0.628 0.314Q0.628 0.299 0.619 0.290Q0.609 0.280 0.594 0.280Q0.543 0.280 0.499 0.306Q0.456 0.332 0.432 0.377H0.406Q0.391 0.377 0.382 0.387Q0.372 0.397 0.372 0.412Q0.372 0.427 0.382 0.437Q0.391 0.446 0.406 0.446H0.412Q0.411 0.455 0.411 0.463Q0.411 0.470 0.412 0.477H0.406Q0.391 0.477 0.381 0.486Q0.372 0.496 0.372 0.511Q0.372 0.527 0.381 0.536Q0.391 0.546 0.406 0.546H0.431Q0.454 0.592 0.498 0.619Q0.542 0.645 0.594 0.645Q0.609 0.645 0.619 0.636Q0.628 0.626 0.628 0.611Z" fill="black"/>
</svg>
