<svg xmlns="http://www.w3.org/2000/svg" viewBox="0 0 1 1" preserveAspectRatio="xMidYMid meet">
  <path d="M0.575 0.648Q0.575 0.680 0.554 0.702Q0.532 0.724 0.500 0.724Q0.468 0.724 0.446 0.702Q0.425 0.680 0.425 0.648Q0.425 0.635 0.429 0.623Q0.425 0.611 0.425 0.597Q0.425 0.578 0.434 0.562Q0.432 0.555 0.432 0.547V0.314Q0.432 0.286 0.452 0.267Q0.471 0.247 0.499 0.247Q0.529 0.247 0.548 0.266Q0.567 0.285 0.567 0.314V0.547Q0.567 0.555 0.566 0.561Q0.575 0.578 0.575 0.597Q0.575 0.611 0.571 0.623Q0.575 0.635 0.575 0.648ZM0.534 0.496V0.314Q0.534 0.299 0.524 0.290Q0.515 0.280 0.499 0.280Q0.485 0.280 0.475 0.290Q0.465 0.300 0.465 0.314V0.496Q0.465 0.512 0.475 0.521Q0.484 0.531 0.499 0.531Q0.515 0.531 0.524 0.521Q0.534 0.512 0.534 0.496ZM0.542 0.597Q0.542 0.580 0.530 0.568Q0.517 0.556 0.500 0.556Q0.483 0.556 0.470 0.568Q0.458 0.580 0.458 0.597Q0.458 0.615 0.470 0.627Q0.482 0.640 0.500 0.640Q0.518 0.640 0.530 0.627Q0.542 0.615 0.542 0.597Z" fill="black"/>
</svg>
