<svg xmlns="http://www.w3.org/2000/svg" viewBox="0 0 1 1" preserveAspectRatio="xMidYMid meet">
  <path d="M0.678 0.476Q0.678 0.498 0.664 0.512Q0.650 0.527 0.627 0.527Q0.604 0.527 0.589 0.511Q0.576 0.527 0.552 0.527Q0.521 0.527 0.507 0.502Q0.482 0.524 0.443 0.524H0.411Q0.374 0.524 0.348 0.499Q0.322 0.473 0.322 0.436V0.298Q0.322 0.275 0.336 0.261Q0.350 0.247 0.373 0.247Q0.409 0.247 0.420 0.278H0.433Q0.456 0.278 0.471 0.293Q0.492 0.279 0.518 0.279Q0.537 0.279 0.554 0.287Q0.571 0.279 0.589 0.279Q0.626 0.279 0.652 0.305Q0.678 0.331 0.678 0.367ZM0.644 0.425V0.367Q0.644 0.345 0.628 0.328Q0.612 0.312 0.589 0.312Q0.569 0.312 0.554 0.326Q0.538 0.312 0.518 0.312Q0.495 0.312 0.479 0.328Q0.463 0.345 0.463 0.367V0.385Q0.463 0.394 0.457 0.400Q0.451 0.406 0.443 0.406H0.411Q0.402 0.406 0.396 0.400Q0.390 0.394 0.390 0.385V0.346H0.433Q0.450 0.346 0.450 0.328Q0.450 0.311 0.433 0.311H0.390V0.298Q0.390 0.280 0.373 0.280Q0.356 0.280 0.356 0.298V0.385Q0.356 0.408 0.372 0.424Q0.388 0.440 0.411 0.440H0.443Q0.466 0.440 0.481 0.430Q0.498 0.418 0.498 0.396V0.367Q0.498 0.359 0.504 0.353Q0.509 0.347 0.518 0.347Q0.528 0.347 0.534 0.355V0.425Q0.534 0.442 0.552 0.442Q0.569 0.442 0.569 0.425V0.367Q0.569 0.359 0.575 0.353Q0.581 0.347 0.589 0.347Q0.598 0.347 0.604 0.353Q0.610 0.359 0.610 0.367V0.425Q0.610 0.442 0.627 0.442Q0.644 0.442 0.644 0.425Z" fill="black"/>
</svg>
