<svg xmlns="http://www.w3.org/2000/svg" viewBox="0 0 1 1" preserveAspectRatio="xMidYMid meet">
  <path d="M0.786 0.405Q0.786 0.433 0.763 0.455Q0.766 0.462 0.766 0.468Q0.766 0.492 0.732 0.496Q0.732 0.501 0.732 0.505Q0.732 0.542 0.688 0.550Q0.681 0.591 0.641 0.591Q0.618 0.591 0.591 0.579L0.591 0.580Q0.589 0.578 0.586 0.576Q0.549 0.604 0.548 0.605Q0.522 0.623 0.506 0.623Q0.465 0.623 0.404 0.563L0.405 0.564Q0.370 0.580 0.340 0.580Q0.285 0.580 0.258 0.531Q0.250 0.515 0.252 0.510Q0.227 0.496 0.214 0.479Q0.253 0.479 0.268 0.460Q0.234 0.460 0.225 0.413Q0.275 0.386 0.292 0.357Q0.286 0.358 0.281 0.358Q0.237 0.358 0.222 0.318Q0.314 0.300 0.336 0.246Q0.353 0.189 0.394 0.144Q0.427 0.110 0.458 0.110Q0.478 0.110 0.496 0.124Q0.511 0.122 0.524 0.122Q0.616 0.122 0.677 0.211Q0.704 0.249 0.721 0.300Q0.724 0.316 0.724 0.336Q0.724 0.361 0.717 0.384Q0.732 0.394 0.744 0.394Q0.766 0.394 0.769 0.359Q0.786 0.382 0.786 0.405ZM0.643 0.368Q0.618 0.274 0.515 0.207Q0.459 0.205 0.435 0.251Q0.425 0.271 0.423 0.297Q0.422 0.310 0.418 0.335Q0.425 0.334 0.433 0.334Q0.471 0.334 0.485 0.353Q0.482 0.355 0.476 0.355Q0.466 0.355 0.446 0.348Q0.427 0.341 0.416 0.342Q0.401 0.399 0.373 0.410Q0.370 0.414 0.360 0.420Q0.372 0.481 0.394 0.508Q0.429 0.552 0.445 0.567Q0.478 0.597 0.506 0.597Q0.535 0.597 0.566 0.567Q0.583 0.551 0.618 0.508Q0.638 0.483 0.642 0.443Q0.643 0.434 0.643 0.368ZM0.629 0.351Q0.625 0.354 0.619 0.351Q0.607 0.344 0.597 0.344Q0.588 0.344 0.569 0.350Q0.550 0.357 0.541 0.357Q0.535 0.357 0.532 0.354Q0.545 0.336 0.583 0.336Q0.595 0.336 0.609 0.339Q0.627 0.344 0.629 0.351ZM0.618 0.397Q0.612 0.403 0.606 0.403Q0.601 0.403 0.593 0.398Q0.586 0.392 0.580 0.390Q0.581 0.393 0.581 0.397Q0.581 0.413 0.565 0.413Q0.549 0.413 0.549 0.397Q0.549 0.392 0.552 0.388Q0.540 0.393 0.540 0.401Q0.540 0.403 0.541 0.405L0.533 0.403Q0.541 0.382 0.562 0.381V0.382Q0.564 0.381 0.565 0.381Q0.583 0.381 0.594 0.387Q0.597 0.389 0.601 0.389Q0.608 0.389 0.613 0.382Q0.614 0.391 0.604 0.393Q0.609 0.398 0.614 0.398Q0.616 0.398 0.618 0.397ZM0.487 0.403 0.478 0.406Q0.480 0.403 0.480 0.401Q0.480 0.391 0.466 0.388Q0.468 0.392 0.468 0.397Q0.468 0.413 0.453 0.413Q0.437 0.413 0.437 0.397Q0.437 0.393 0.438 0.390Q0.432 0.392 0.424 0.398Q0.416 0.404 0.411 0.404Q0.405 0.404 0.400 0.400Q0.407 0.402 0.411 0.395Q0.404 0.393 0.404 0.386Q0.404 0.384 0.405 0.382Q0.410 0.389 0.417 0.389Q0.420 0.389 0.424 0.387Q0.435 0.381 0.453 0.381Q0.455 0.381 0.458 0.382Q0.484 0.386 0.487 0.403ZM0.552 0.515H0.462Q0.478 0.485 0.507 0.485Q0.537 0.485 0.552 0.515ZM0.551 0.520Q0.547 0.536 0.536 0.546Q0.523 0.558 0.508 0.558Q0.492 0.558 0.480 0.547Q0.468 0.536 0.463 0.520H0.468Q0.483 0.532 0.508 0.532Q0.532 0.532 0.544 0.520Z" fill="black"/>
</svg>
