<svg xmlns="http://www.w3.org/2000/svg" viewBox="0 0 1 1" preserveAspectRatio="xMidYMid meet">
  <path d="M0.648 0.661Q0.648 0.690 0.629 0.709Q0.610 0.728 0.581 0.728Q0.547 0.728 0.527 0.703Q0.508 0.728 0.473 0.728Q0.444 0.728 0.425 0.709Q0.406 0.690 0.406 0.661V0.432Q0.382 0.428 0.367 0.409Q0.352 0.390 0.352 0.365Q0.352 0.352 0.356 0.340Q0.352 0.328 0.352 0.314Q0.352 0.285 0.371 0.266Q0.390 0.247 0.419 0.247H0.582Q0.611 0.247 0.629 0.267Q0.648 0.286 0.648 0.314ZM0.615 0.610V0.314Q0.615 0.300 0.606 0.290Q0.597 0.280 0.582 0.280H0.419Q0.404 0.280 0.394 0.290Q0.385 0.299 0.385 0.314Q0.385 0.330 0.394 0.339Q0.404 0.349 0.419 0.349H0.439V0.610Q0.439 0.625 0.449 0.635Q0.458 0.644 0.473 0.644Q0.489 0.644 0.498 0.635Q0.508 0.625 0.508 0.610V0.349H0.546V0.610Q0.546 0.625 0.556 0.635Q0.566 0.644 0.581 0.644Q0.596 0.644 0.606 0.635Q0.615 0.625 0.615 0.610Z" fill="black"/>
</svg>
