<svg xmlns="http://www.w3.org/2000/svg" viewBox="0 0 1 1" preserveAspectRatio="xMidYMid meet">
  <path d="M0.719 0.343Q0.719 0.355 0.707 0.355Q0.696 0.355 0.696 0.343V0.311Q0.696 0.303 0.690 0.297Q0.684 0.291 0.676 0.291Q0.667 0.291 0.661 0.297Q0.655 0.303 0.655 0.311Q0.655 0.320 0.661 0.326Q0.667 0.332 0.676 0.332Q0.687 0.332 0.687 0.343Q0.687 0.355 0.676 0.355Q0.658 0.355 0.645 0.342Q0.632 0.329 0.632 0.311Q0.632 0.293 0.645 0.281Q0.657 0.268 0.676 0.268Q0.694 0.268 0.706 0.281Q0.719 0.293 0.719 0.311ZM0.562 0.246Q0.562 0.260 0.548 0.260Q0.534 0.260 0.534 0.246Q0.534 0.232 0.548 0.232Q0.562 0.232 0.562 0.246ZM0.623 0.343Q0.623 0.354 0.612 0.354Q0.594 0.354 0.581 0.342Q0.569 0.329 0.569 0.311Q0.569 0.293 0.581 0.281Q0.594 0.268 0.612 0.268Q0.623 0.268 0.623 0.279Q0.623 0.291 0.612 0.291Q0.603 0.291 0.597 0.297Q0.591 0.303 0.591 0.311Q0.591 0.331 0.612 0.331Q0.623 0.331 0.623 0.343ZM0.559 0.343Q0.559 0.354 0.548 0.354Q0.536 0.354 0.536 0.343V0.279Q0.536 0.268 0.548 0.268Q0.559 0.268 0.559 0.279ZM0.527 0.279Q0.527 0.290 0.517 0.291Q0.511 0.291 0.508 0.294Q0.505 0.297 0.505 0.301V0.321Q0.505 0.335 0.496 0.345Q0.486 0.354 0.472 0.354Q0.461 0.354 0.461 0.343Q0.461 0.334 0.472 0.331Q0.482 0.328 0.482 0.321L0.483 0.318V0.301Q0.483 0.287 0.493 0.278Q0.502 0.268 0.516 0.268Q0.527 0.268 0.527 0.279ZM0.719 0.530Q0.719 0.546 0.703 0.546Q0.686 0.546 0.686 0.530V0.485Q0.686 0.473 0.678 0.465Q0.670 0.456 0.658 0.456Q0.646 0.456 0.637 0.464Q0.629 0.472 0.629 0.485Q0.629 0.497 0.637 0.505Q0.646 0.514 0.658 0.514Q0.674 0.514 0.674 0.530Q0.674 0.546 0.658 0.546Q0.632 0.546 0.614 0.529Q0.597 0.511 0.597 0.485Q0.597 0.459 0.614 0.441Q0.632 0.424 0.658 0.424Q0.683 0.424 0.701 0.442Q0.719 0.460 0.719 0.485ZM0.481 0.279Q0.481 0.290 0.470 0.291Q0.465 0.291 0.462 0.294Q0.459 0.297 0.459 0.301V0.321Q0.459 0.335 0.449 0.345Q0.440 0.354 0.425 0.354Q0.414 0.354 0.414 0.343Q0.414 0.334 0.425 0.331Q0.436 0.328 0.436 0.321V0.301Q0.436 0.287 0.446 0.278Q0.455 0.268 0.469 0.268Q0.481 0.268 0.481 0.279ZM0.719 0.634Q0.719 0.640 0.713 0.640Q0.707 0.640 0.707 0.634V0.582Q0.707 0.575 0.713 0.575Q0.719 0.575 0.719 0.582ZM0.332 0.246Q0.332 0.260 0.318 0.260Q0.304 0.260 0.304 0.246Q0.304 0.232 0.318 0.232Q0.332 0.232 0.332 0.246ZM0.702 0.620Q0.702 0.628 0.696 0.634Q0.691 0.640 0.683 0.640Q0.675 0.640 0.669 0.634Q0.663 0.628 0.663 0.620V0.600Q0.663 0.593 0.669 0.593Q0.676 0.593 0.676 0.600V0.620Q0.676 0.627 0.683 0.627Q0.690 0.627 0.690 0.620V0.599Q0.690 0.593 0.696 0.593Q0.702 0.593 0.702 0.599ZM0.416 0.289Q0.416 0.295 0.411 0.298L0.390 0.320Q0.387 0.323 0.381 0.323Q0.370 0.323 0.370 0.311Q0.370 0.307 0.374 0.303L0.386 0.292Q0.384 0.291 0.381 0.291Q0.373 0.291 0.367 0.297Q0.361 0.303 0.361 0.311Q0.361 0.320 0.367 0.326Q0.373 0.332 0.381 0.332H0.396Q0.408 0.332 0.408 0.343Q0.408 0.355 0.396 0.355H0.381Q0.363 0.355 0.351 0.342Q0.338 0.330 0.338 0.311Q0.338 0.293 0.351 0.281Q0.363 0.268 0.381 0.268Q0.400 0.268 0.413 0.281Q0.416 0.285 0.416 0.289ZM0.583 0.485Q0.583 0.511 0.565 0.528Q0.548 0.546 0.522 0.546Q0.497 0.546 0.479 0.528Q0.462 0.510 0.462 0.485V0.391Q0.462 0.375 0.477 0.375Q0.494 0.375 0.494 0.391V0.485Q0.494 0.497 0.502 0.505Q0.510 0.514 0.522 0.514Q0.534 0.514 0.543 0.506Q0.551 0.497 0.551 0.485Q0.551 0.473 0.543 0.465Q0.534 0.456 0.522 0.456Q0.506 0.456 0.506 0.440Q0.506 0.424 0.522 0.424Q0.548 0.424 0.566 0.441Q0.583 0.459 0.583 0.485ZM0.659 0.614Q0.659 0.620 0.653 0.620H0.632V0.634Q0.632 0.640 0.626 0.640Q0.620 0.640 0.620 0.634V0.595Q0.620 0.587 0.625 0.581Q0.631 0.575 0.639 0.575Q0.647 0.575 0.653 0.581Q0.658 0.587 0.658 0.595V0.595Q0.658 0.601 0.652 0.601Q0.646 0.601 0.646 0.595V0.595Q0.646 0.587 0.639 0.587Q0.632 0.587 0.632 0.595V0.608H0.653Q0.659 0.608 0.659 0.614ZM0.616 0.582Q0.616 0.589 0.608 0.589Q0.601 0.589 0.601 0.582Q0.601 0.574 0.608 0.574Q0.616 0.574 0.616 0.582ZM0.614 0.634Q0.614 0.640 0.608 0.640Q0.602 0.640 0.602 0.634V0.599Q0.602 0.593 0.608 0.593Q0.614 0.593 0.614 0.599ZM0.330 0.355Q0.330 0.371 0.319 0.381Q0.308 0.391 0.293 0.391H0.292Q0.281 0.391 0.281 0.380Q0.281 0.369 0.292 0.369H0.293Q0.307 0.369 0.307 0.355V0.279Q0.307 0.268 0.318 0.268Q0.330 0.268 0.330 0.279ZM0.448 0.530Q0.448 0.546 0.432 0.546Q0.416 0.546 0.416 0.530V0.391Q0.416 0.376 0.432 0.376Q0.448 0.376 0.448 0.391ZM0.597 0.620Q0.597 0.628 0.591 0.634Q0.586 0.640 0.578 0.640Q0.570 0.640 0.564 0.634Q0.558 0.628 0.558 0.620V0.589Q0.558 0.583 0.564 0.583Q0.571 0.583 0.571 0.589V0.594H0.591Q0.597 0.594 0.597 0.600Q0.597 0.606 0.591 0.606H0.571V0.620Q0.571 0.627 0.578 0.627Q0.585 0.627 0.585 0.620V0.619Q0.585 0.613 0.591 0.613Q0.597 0.613 0.597 0.619ZM0.554 0.620Q0.554 0.628 0.548 0.634Q0.542 0.640 0.534 0.640Q0.526 0.640 0.520 0.634Q0.515 0.628 0.515 0.620V0.600Q0.515 0.593 0.521 0.593Q0.527 0.593 0.527 0.600V0.620Q0.527 0.627 0.534 0.627Q0.542 0.627 0.542 0.620V0.599Q0.542 0.593 0.548 0.593Q0.554 0.593 0.554 0.599ZM0.510 0.634Q0.510 0.640 0.503 0.640Q0.498 0.640 0.498 0.634V0.617Q0.498 0.606 0.486 0.606Q0.476 0.606 0.476 0.617Q0.476 0.627 0.486 0.627Q0.493 0.627 0.493 0.634Q0.493 0.640 0.486 0.640Q0.477 0.640 0.470 0.633Q0.464 0.626 0.464 0.617Q0.464 0.607 0.470 0.600Q0.477 0.593 0.486 0.593Q0.496 0.593 0.503 0.600Q0.510 0.607 0.510 0.617ZM0.403 0.530Q0.403 0.546 0.387 0.546Q0.371 0.546 0.371 0.530V0.485Q0.371 0.473 0.362 0.465Q0.354 0.456 0.342 0.456Q0.330 0.456 0.321 0.464Q0.313 0.472 0.313 0.485Q0.313 0.497 0.321 0.505Q0.330 0.514 0.342 0.514Q0.358 0.514 0.358 0.530Q0.358 0.546 0.342 0.546Q0.316 0.546 0.298 0.529Q0.281 0.511 0.281 0.485Q0.281 0.459 0.298 0.441Q0.316 0.424 0.342 0.424Q0.367 0.424 0.385 0.442Q0.403 0.460 0.403 0.485ZM0.459 0.605Q0.459 0.608 0.456 0.610L0.445 0.621Q0.443 0.623 0.441 0.623Q0.435 0.623 0.435 0.617Q0.435 0.615 0.436 0.613L0.443 0.606Q0.442 0.606 0.440 0.606Q0.429 0.606 0.429 0.617Q0.429 0.627 0.441 0.627H0.448Q0.454 0.627 0.454 0.634Q0.454 0.640 0.448 0.640H0.441Q0.431 0.640 0.424 0.633Q0.417 0.626 0.417 0.617Q0.417 0.607 0.424 0.600Q0.431 0.593 0.441 0.593Q0.450 0.593 0.457 0.600Q0.459 0.602 0.459 0.605ZM0.413 0.617Q0.413 0.626 0.406 0.633Q0.399 0.640 0.390 0.640Q0.380 0.640 0.373 0.633Q0.367 0.626 0.367 0.617V0.581Q0.367 0.575 0.372 0.575Q0.378 0.575 0.378 0.581V0.617Q0.378 0.627 0.390 0.627Q0.400 0.627 0.400 0.617Q0.400 0.606 0.390 0.606Q0.384 0.606 0.384 0.600Q0.384 0.593 0.390 0.593Q0.399 0.593 0.406 0.600Q0.413 0.607 0.413 0.617ZM0.295 0.582Q0.295 0.589 0.288 0.589Q0.281 0.589 0.281 0.582Q0.281 0.574 0.288 0.574Q0.295 0.574 0.295 0.582ZM0.335 0.599Q0.335 0.602 0.333 0.604Q0.330 0.604 0.324 0.608Q0.323 0.609 0.323 0.611V0.622Q0.323 0.629 0.318 0.634Q0.312 0.639 0.305 0.639Q0.299 0.639 0.299 0.634Q0.299 0.629 0.305 0.627Q0.311 0.626 0.311 0.622V0.611Q0.311 0.593 0.328 0.593Q0.335 0.593 0.335 0.599ZM0.294 0.634Q0.294 0.640 0.288 0.640Q0.282 0.640 0.282 0.634V0.599Q0.282 0.593 0.288 0.593Q0.294 0.593 0.294 0.599Z" fill="black"/>
</svg>
