<svg xmlns="http://www.w3.org/2000/svg" viewBox="0 0 1 1" preserveAspectRatio="xMidYMid meet">
  <path d="M0.666 0.366Q0.666 0.395 0.647 0.414Q0.627 0.433 0.598 0.433H0.576Q0.568 0.433 0.568 0.441V0.691Q0.568 0.751 0.526 0.792Q0.485 0.834 0.425 0.834H0.402Q0.373 0.834 0.354 0.814Q0.334 0.795 0.334 0.766Q0.334 0.753 0.339 0.741Q0.334 0.728 0.334 0.715Q0.334 0.686 0.354 0.667Q0.373 0.648 0.402 0.648H0.425Q0.433 0.648 0.433 0.640V0.390Q0.433 0.330 0.474 0.289Q0.516 0.247 0.576 0.247H0.598Q0.627 0.247 0.647 0.267Q0.666 0.286 0.666 0.315Q0.666 0.329 0.661 0.340Q0.666 0.353 0.666 0.366ZM0.633 0.315Q0.633 0.300 0.623 0.290Q0.614 0.280 0.598 0.280H0.576Q0.529 0.280 0.497 0.312Q0.466 0.344 0.466 0.390V0.640Q0.466 0.657 0.454 0.669Q0.442 0.681 0.425 0.681H0.402Q0.387 0.681 0.377 0.690Q0.367 0.700 0.367 0.715Q0.367 0.730 0.377 0.740Q0.387 0.750 0.402 0.750H0.425Q0.471 0.750 0.503 0.718Q0.535 0.687 0.535 0.640V0.390Q0.535 0.373 0.547 0.361Q0.559 0.349 0.576 0.349H0.598Q0.614 0.349 0.623 0.340Q0.633 0.330 0.633 0.315Z" fill="black"/>
</svg>
