<svg xmlns="http://www.w3.org/2000/svg" viewBox="0 0 1 1" preserveAspectRatio="xMidYMid meet">
  <path d="M0.664 0.918Q0.664 0.947 0.644 0.966Q0.625 0.986 0.596 0.986H0.479Q0.419 0.986 0.378 0.944Q0.336 0.903 0.336 0.843V0.837Q0.336 0.825 0.338 0.813Q0.336 0.803 0.336 0.792V0.786Q0.336 0.722 0.377 0.676Q0.336 0.630 0.336 0.566Q0.336 0.553 0.338 0.540Q0.336 0.528 0.336 0.515Q0.336 0.445 0.383 0.399Q0.430 0.352 0.499 0.352Q0.569 0.352 0.615 0.399Q0.662 0.445 0.662 0.515V0.689Q0.662 0.726 0.642 0.756Q0.622 0.786 0.588 0.800H0.596Q0.625 0.800 0.644 0.819Q0.664 0.838 0.664 0.867Q0.664 0.880 0.659 0.892Q0.664 0.905 0.664 0.918ZM0.520 0.546Q0.511 0.538 0.499 0.538Q0.493 0.538 0.487 0.540Q0.492 0.543 0.504 0.544Q0.515 0.545 0.520 0.546ZM0.631 0.867Q0.631 0.852 0.621 0.842Q0.611 0.833 0.596 0.833H0.479Q0.462 0.833 0.450 0.821Q0.438 0.809 0.438 0.792V0.786Q0.438 0.760 0.456 0.742Q0.474 0.724 0.499 0.724H0.543Q0.579 0.724 0.604 0.699Q0.629 0.674 0.629 0.638V0.515Q0.629 0.459 0.592 0.422Q0.555 0.385 0.499 0.385Q0.444 0.385 0.406 0.422Q0.369 0.459 0.369 0.515Q0.369 0.570 0.406 0.608Q0.444 0.645 0.499 0.645Q0.515 0.645 0.524 0.636Q0.534 0.626 0.534 0.611Q0.534 0.595 0.524 0.586Q0.515 0.576 0.499 0.576Q0.474 0.576 0.456 0.558Q0.438 0.540 0.438 0.515Q0.438 0.489 0.456 0.471Q0.474 0.454 0.499 0.454Q0.525 0.454 0.543 0.471Q0.560 0.489 0.560 0.515V0.638Q0.560 0.645 0.555 0.650Q0.550 0.655 0.543 0.655H0.499Q0.444 0.655 0.406 0.693Q0.369 0.731 0.369 0.786V0.792Q0.369 0.838 0.401 0.870Q0.432 0.902 0.479 0.902H0.596Q0.611 0.902 0.621 0.892Q0.631 0.882 0.631 0.867Z" fill="black"/>
</svg>
