<svg xmlns="http://www.w3.org/2000/svg" viewBox="0 0 1 1" preserveAspectRatio="xMidYMid meet">
  <path d="M0.610 0.656Q0.610 0.687 0.592 0.705Q0.574 0.724 0.543 0.724H0.457Q0.428 0.724 0.409 0.704Q0.390 0.685 0.390 0.656Q0.390 0.643 0.394 0.630Q0.390 0.618 0.390 0.605Q0.390 0.571 0.415 0.551Q0.406 0.536 0.406 0.520Q0.406 0.508 0.412 0.495Q0.406 0.482 0.406 0.469Q0.406 0.444 0.432 0.415Q0.454 0.393 0.475 0.373Q0.495 0.352 0.523 0.352Q0.550 0.352 0.571 0.372Q0.591 0.392 0.591 0.420Q0.591 0.433 0.586 0.445Q0.591 0.458 0.591 0.471Q0.591 0.484 0.587 0.495Q0.591 0.506 0.591 0.519Q0.591 0.532 0.586 0.544Q0.588 0.550 0.590 0.556Q0.610 0.575 0.610 0.605Q0.610 0.619 0.606 0.631Q0.610 0.643 0.610 0.656ZM0.558 0.519Q0.558 0.506 0.547 0.495L0.522 0.469L0.547 0.444Q0.558 0.433 0.558 0.420Q0.558 0.406 0.547 0.396Q0.537 0.385 0.523 0.385Q0.509 0.385 0.498 0.396L0.454 0.441Q0.439 0.456 0.439 0.469Q0.439 0.481 0.454 0.498Q0.457 0.502 0.498 0.543Q0.509 0.554 0.523 0.554Q0.537 0.554 0.547 0.543Q0.558 0.533 0.558 0.519ZM0.577 0.605Q0.577 0.590 0.568 0.580Q0.558 0.571 0.543 0.571H0.457Q0.442 0.571 0.432 0.580Q0.423 0.590 0.423 0.605Q0.423 0.620 0.432 0.630Q0.442 0.640 0.457 0.640H0.543Q0.577 0.640 0.577 0.605Z" fill="black"/>
</svg>
