<svg xmlns="http://www.w3.org/2000/svg" viewBox="0 0 1 1" preserveAspectRatio="xMidYMid meet">
  <path d="M0.610 0.656Q0.610 0.687 0.592 0.705Q0.574 0.724 0.543 0.724H0.457Q0.428 0.724 0.409 0.704Q0.390 0.685 0.390 0.656Q0.390 0.643 0.394 0.630Q0.390 0.618 0.390 0.605Q0.390 0.577 0.407 0.559Q0.408 0.554 0.410 0.549Q0.405 0.537 0.405 0.524Q0.405 0.511 0.410 0.500Q0.405 0.489 0.405 0.476Q0.405 0.463 0.410 0.451Q0.405 0.438 0.405 0.425Q0.405 0.398 0.426 0.377Q0.446 0.357 0.473 0.357Q0.499 0.357 0.526 0.381Q0.546 0.402 0.566 0.423Q0.591 0.448 0.591 0.475Q0.591 0.487 0.585 0.499Q0.591 0.512 0.591 0.525Q0.591 0.538 0.585 0.551Q0.610 0.571 0.610 0.605Q0.610 0.619 0.606 0.631Q0.610 0.643 0.610 0.656ZM0.558 0.475Q0.558 0.461 0.543 0.446L0.498 0.401Q0.487 0.390 0.473 0.390Q0.460 0.390 0.449 0.401Q0.438 0.411 0.438 0.425Q0.438 0.438 0.449 0.449L0.475 0.475L0.449 0.500Q0.438 0.511 0.438 0.524Q0.438 0.538 0.449 0.548Q0.460 0.559 0.473 0.559Q0.487 0.559 0.498 0.548L0.543 0.503Q0.558 0.486 0.558 0.475ZM0.577 0.605Q0.577 0.590 0.568 0.580Q0.558 0.571 0.543 0.571H0.457Q0.442 0.571 0.432 0.580Q0.423 0.590 0.423 0.605Q0.423 0.620 0.432 0.630Q0.442 0.640 0.457 0.640H0.543Q0.577 0.640 0.577 0.605Z" fill="black"/>
</svg>
