<svg xmlns="http://www.w3.org/2000/svg" viewBox="0 0 1 1" preserveAspectRatio="xMidYMid meet">
  <path d="M0.656 0.504Q0.656 0.555 0.613 0.568Q0.606 0.588 0.589 0.599Q0.572 0.611 0.550 0.611Q0.520 0.611 0.500 0.590Q0.480 0.611 0.450 0.611Q0.428 0.611 0.411 0.599Q0.394 0.588 0.387 0.568Q0.367 0.561 0.355 0.543Q0.344 0.525 0.344 0.504Q0.344 0.491 0.348 0.479Q0.344 0.466 0.344 0.453Q0.344 0.440 0.348 0.429Q0.344 0.417 0.344 0.405Q0.344 0.391 0.348 0.379Q0.344 0.367 0.344 0.354Q0.344 0.332 0.355 0.315Q0.367 0.297 0.387 0.290Q0.394 0.270 0.411 0.259Q0.429 0.247 0.450 0.247Q0.480 0.247 0.500 0.268Q0.519 0.247 0.550 0.247Q0.571 0.247 0.589 0.259Q0.606 0.270 0.613 0.290Q0.633 0.297 0.645 0.315Q0.656 0.332 0.656 0.354Q0.656 0.367 0.652 0.379Q0.656 0.391 0.656 0.405Q0.656 0.417 0.652 0.429Q0.656 0.440 0.656 0.453Q0.656 0.467 0.652 0.480Q0.656 0.491 0.656 0.504ZM0.623 0.453Q0.623 0.438 0.614 0.428Q0.604 0.419 0.589 0.419H0.584V0.388H0.589Q0.604 0.388 0.614 0.378Q0.623 0.369 0.623 0.354Q0.623 0.338 0.614 0.329Q0.604 0.319 0.589 0.319H0.584V0.314Q0.584 0.299 0.575 0.290Q0.565 0.280 0.550 0.280Q0.534 0.280 0.525 0.290Q0.516 0.299 0.516 0.314V0.319H0.484V0.314Q0.484 0.299 0.475 0.290Q0.466 0.280 0.450 0.280Q0.435 0.280 0.425 0.290Q0.416 0.299 0.416 0.314V0.319H0.411Q0.396 0.319 0.386 0.329Q0.377 0.338 0.377 0.354Q0.377 0.369 0.386 0.378Q0.396 0.388 0.411 0.388H0.416V0.419H0.411Q0.396 0.419 0.386 0.428Q0.377 0.438 0.377 0.453Q0.377 0.468 0.386 0.478Q0.396 0.488 0.411 0.488H0.416V0.492Q0.416 0.508 0.425 0.517Q0.435 0.527 0.450 0.527Q0.466 0.527 0.475 0.517Q0.484 0.508 0.484 0.492V0.488H0.516V0.492Q0.516 0.508 0.525 0.517Q0.534 0.527 0.550 0.527Q0.565 0.527 0.575 0.517Q0.584 0.508 0.584 0.492V0.488H0.589Q0.623 0.488 0.623 0.453ZM0.516 0.419H0.484V0.388H0.516Z" fill="black"/>
</svg>
