<svg xmlns="http://www.w3.org/2000/svg" viewBox="0 0 1 1" preserveAspectRatio="xMidYMid meet">
  <path d="M0.633 0.419Q0.633 0.446 0.615 0.465Q0.597 0.484 0.570 0.486Q0.570 0.486 0.569 0.484Q0.568 0.483 0.568 0.482Q0.567 0.495 0.567 0.514V0.524Q0.567 0.578 0.553 0.606Q0.555 0.613 0.555 0.622Q0.555 0.636 0.549 0.647Q0.555 0.660 0.555 0.673Q0.555 0.698 0.537 0.715Q0.519 0.732 0.495 0.732Q0.471 0.732 0.453 0.716Q0.436 0.700 0.435 0.677H0.434Q0.405 0.677 0.386 0.658Q0.367 0.639 0.367 0.610Q0.367 0.596 0.371 0.584Q0.367 0.572 0.367 0.559Q0.367 0.530 0.385 0.511Q0.404 0.491 0.432 0.491V0.485Q0.432 0.479 0.433 0.473Q0.432 0.466 0.432 0.462V0.434Q0.432 0.409 0.441 0.386Q0.435 0.373 0.435 0.358Q0.435 0.345 0.440 0.333Q0.435 0.321 0.435 0.307Q0.435 0.282 0.452 0.265Q0.470 0.247 0.495 0.247Q0.518 0.247 0.535 0.263Q0.552 0.278 0.554 0.301Q0.560 0.301 0.565 0.301Q0.595 0.301 0.614 0.320Q0.633 0.339 0.633 0.368Q0.633 0.382 0.629 0.393Q0.633 0.405 0.633 0.419ZM0.522 0.307Q0.522 0.296 0.514 0.288Q0.506 0.280 0.495 0.280Q0.483 0.280 0.476 0.288Q0.468 0.296 0.468 0.307Q0.468 0.319 0.476 0.326Q0.483 0.334 0.495 0.334Q0.506 0.334 0.514 0.326Q0.522 0.319 0.522 0.307ZM0.600 0.368Q0.600 0.353 0.590 0.343Q0.581 0.334 0.565 0.334Q0.523 0.334 0.494 0.363Q0.466 0.391 0.466 0.434V0.462Q0.466 0.465 0.465 0.483Q0.465 0.483 0.465 0.493Q0.465 0.506 0.456 0.515Q0.447 0.524 0.434 0.524Q0.419 0.524 0.409 0.534Q0.400 0.543 0.400 0.559Q0.400 0.574 0.409 0.583Q0.419 0.593 0.434 0.593Q0.476 0.593 0.505 0.564Q0.533 0.535 0.534 0.493L0.534 0.434Q0.534 0.426 0.536 0.422Q0.537 0.418 0.544 0.412Q0.550 0.405 0.567 0.402Q0.583 0.400 0.592 0.391Q0.600 0.383 0.600 0.368ZM0.522 0.622Q0.522 0.611 0.514 0.603Q0.506 0.595 0.495 0.595Q0.483 0.595 0.476 0.603Q0.468 0.611 0.468 0.622Q0.468 0.633 0.476 0.641Q0.483 0.648 0.495 0.648Q0.506 0.648 0.514 0.641Q0.522 0.633 0.522 0.622Z" fill="black"/>
</svg>
