<svg xmlns="http://www.w3.org/2000/svg" viewBox="0 0 1 1" preserveAspectRatio="xMidYMid meet">
  <path d="M0.702 0.605Q0.702 0.646 0.673 0.675Q0.644 0.703 0.603 0.703Q0.550 0.703 0.521 0.659L0.493 0.736Q0.477 0.781 0.431 0.781Q0.403 0.781 0.382 0.762Q0.362 0.743 0.362 0.715Q0.362 0.703 0.366 0.691L0.367 0.689Q0.362 0.677 0.362 0.664Q0.362 0.652 0.366 0.640L0.418 0.495Q0.407 0.497 0.397 0.497Q0.356 0.497 0.327 0.468Q0.298 0.439 0.298 0.399Q0.298 0.385 0.301 0.373Q0.298 0.361 0.298 0.348Q0.298 0.307 0.327 0.278Q0.356 0.249 0.397 0.249Q0.426 0.249 0.450 0.265Q0.473 0.280 0.485 0.305L0.503 0.256Q0.519 0.211 0.565 0.211Q0.594 0.211 0.614 0.230Q0.634 0.250 0.634 0.278Q0.634 0.291 0.630 0.302L0.630 0.304Q0.634 0.316 0.634 0.329Q0.634 0.341 0.630 0.353L0.594 0.456Q0.598 0.456 0.603 0.456Q0.644 0.456 0.673 0.484Q0.702 0.513 0.702 0.554Q0.702 0.567 0.699 0.580Q0.702 0.592 0.702 0.605ZM0.462 0.348Q0.462 0.321 0.443 0.301Q0.424 0.282 0.397 0.282Q0.370 0.282 0.351 0.301Q0.332 0.321 0.332 0.348Q0.332 0.375 0.351 0.394Q0.370 0.413 0.397 0.413Q0.424 0.413 0.443 0.394Q0.462 0.375 0.462 0.348ZM0.668 0.554Q0.668 0.527 0.649 0.508Q0.630 0.489 0.603 0.489Q0.576 0.489 0.557 0.508Q0.538 0.527 0.538 0.554Q0.538 0.581 0.557 0.600Q0.576 0.619 0.603 0.619Q0.630 0.619 0.649 0.600Q0.668 0.581 0.668 0.554ZM0.601 0.278Q0.601 0.264 0.590 0.254Q0.580 0.244 0.565 0.244Q0.542 0.244 0.534 0.268L0.397 0.651Q0.395 0.658 0.395 0.664Q0.395 0.678 0.406 0.688Q0.417 0.697 0.431 0.697Q0.454 0.697 0.462 0.674L0.599 0.291Q0.601 0.285 0.601 0.278ZM0.427 0.348Q0.427 0.360 0.418 0.369Q0.410 0.378 0.397 0.378Q0.384 0.378 0.375 0.369Q0.366 0.360 0.366 0.348Q0.366 0.335 0.375 0.326Q0.384 0.317 0.397 0.317Q0.410 0.317 0.418 0.326Q0.427 0.335 0.427 0.348ZM0.634 0.554Q0.634 0.567 0.625 0.576Q0.616 0.585 0.603 0.585Q0.590 0.585 0.582 0.576Q0.573 0.567 0.573 0.554Q0.573 0.541 0.582 0.532Q0.590 0.523 0.603 0.523Q0.616 0.523 0.625 0.532Q0.634 0.541 0.634 0.554Z" fill="black"/>
</svg>
