<svg xmlns="http://www.w3.org/2000/svg" viewBox="0 0 1 1" preserveAspectRatio="xMidYMid meet">
  <path d="M0.727 0.523Q0.727 0.564 0.698 0.593Q0.669 0.622 0.628 0.622Q0.600 0.622 0.576 0.607Q0.562 0.622 0.538 0.622Q0.515 0.622 0.501 0.607Q0.486 0.622 0.463 0.622Q0.451 0.622 0.441 0.617Q0.431 0.621 0.420 0.621Q0.407 0.621 0.396 0.616Q0.386 0.622 0.372 0.622Q0.331 0.622 0.302 0.593Q0.273 0.564 0.273 0.523Q0.273 0.510 0.277 0.498Q0.273 0.486 0.273 0.472Q0.273 0.432 0.302 0.403Q0.331 0.374 0.372 0.374Q0.411 0.374 0.439 0.400Q0.464 0.375 0.501 0.375Q0.537 0.375 0.562 0.399Q0.589 0.375 0.626 0.374V0.373Q0.626 0.351 0.640 0.337Q0.654 0.323 0.676 0.323Q0.699 0.323 0.713 0.337Q0.727 0.351 0.727 0.373ZM0.693 0.472V0.373Q0.693 0.356 0.676 0.356Q0.659 0.356 0.659 0.373V0.472Q0.659 0.485 0.650 0.494Q0.641 0.503 0.628 0.503Q0.615 0.503 0.607 0.494Q0.598 0.485 0.598 0.472Q0.598 0.460 0.607 0.451Q0.615 0.442 0.628 0.442Q0.646 0.442 0.646 0.425Q0.646 0.407 0.628 0.407Q0.601 0.407 0.582 0.426Q0.563 0.445 0.563 0.472Q0.563 0.499 0.582 0.519Q0.601 0.538 0.628 0.538Q0.655 0.538 0.674 0.519Q0.693 0.499 0.693 0.472ZM0.556 0.520V0.463Q0.556 0.440 0.540 0.424Q0.524 0.408 0.501 0.408Q0.478 0.408 0.462 0.424Q0.446 0.440 0.446 0.463V0.520Q0.446 0.538 0.463 0.538Q0.480 0.538 0.480 0.520V0.463Q0.480 0.454 0.486 0.448Q0.492 0.442 0.501 0.442Q0.509 0.442 0.515 0.448Q0.521 0.454 0.521 0.463V0.520Q0.521 0.538 0.538 0.538Q0.556 0.538 0.556 0.520ZM0.437 0.520V0.472Q0.437 0.445 0.418 0.426Q0.399 0.407 0.372 0.407Q0.345 0.407 0.326 0.426Q0.307 0.445 0.307 0.472Q0.307 0.499 0.326 0.519Q0.345 0.538 0.372 0.538Q0.389 0.538 0.389 0.520Q0.389 0.503 0.372 0.503Q0.359 0.503 0.350 0.494Q0.341 0.485 0.341 0.472Q0.341 0.460 0.350 0.451Q0.359 0.442 0.372 0.442Q0.385 0.442 0.393 0.451Q0.402 0.460 0.402 0.472V0.520Q0.402 0.537 0.420 0.537Q0.437 0.537 0.437 0.520Z" fill="black"/>
</svg>
