<svg xmlns="http://www.w3.org/2000/svg" viewBox="0 0 1 1" preserveAspectRatio="xMidYMid meet">
  <path d="M0.642 0.698Q0.642 0.727 0.622 0.746Q0.602 0.765 0.574 0.765Q0.483 0.765 0.421 0.703Q0.358 0.640 0.358 0.549V0.427Q0.358 0.336 0.421 0.274Q0.483 0.212 0.574 0.212Q0.603 0.212 0.622 0.231Q0.642 0.250 0.642 0.279Q0.642 0.292 0.637 0.304Q0.642 0.317 0.642 0.330Q0.642 0.359 0.622 0.378Q0.603 0.398 0.574 0.398Q0.539 0.398 0.516 0.420Q0.493 0.443 0.493 0.478V0.498Q0.493 0.533 0.516 0.556Q0.539 0.579 0.574 0.579Q0.603 0.579 0.622 0.598Q0.642 0.618 0.642 0.647Q0.642 0.661 0.637 0.672Q0.642 0.685 0.642 0.698ZM0.609 0.647Q0.609 0.631 0.599 0.622Q0.589 0.612 0.574 0.612Q0.525 0.612 0.493 0.580Q0.460 0.547 0.460 0.498V0.427Q0.460 0.379 0.493 0.346Q0.525 0.313 0.574 0.313Q0.589 0.313 0.599 0.304Q0.609 0.294 0.609 0.279Q0.609 0.264 0.599 0.254Q0.589 0.245 0.574 0.245Q0.497 0.245 0.444 0.297Q0.391 0.350 0.391 0.427V0.498Q0.391 0.575 0.444 0.628Q0.497 0.681 0.574 0.681Q0.589 0.681 0.599 0.672Q0.609 0.662 0.609 0.647Z" fill="black"/>
</svg>
