<svg xmlns="http://www.w3.org/2000/svg" viewBox="0 0 1 1" preserveAspectRatio="xMidYMid meet">
  <path d="M0.642 0.549Q0.642 0.640 0.579 0.702Q0.516 0.765 0.426 0.765Q0.397 0.765 0.378 0.746Q0.358 0.727 0.358 0.698Q0.358 0.685 0.363 0.672Q0.358 0.660 0.358 0.647Q0.358 0.618 0.378 0.598Q0.397 0.579 0.426 0.579Q0.461 0.579 0.484 0.556Q0.507 0.533 0.507 0.498V0.478Q0.507 0.443 0.484 0.420Q0.461 0.398 0.426 0.398Q0.397 0.398 0.378 0.378Q0.358 0.359 0.358 0.330Q0.358 0.317 0.363 0.304Q0.358 0.292 0.358 0.279Q0.358 0.250 0.378 0.231Q0.397 0.212 0.426 0.212Q0.517 0.212 0.579 0.274Q0.642 0.336 0.642 0.427ZM0.609 0.498V0.427Q0.609 0.350 0.556 0.297Q0.503 0.245 0.426 0.245Q0.411 0.245 0.401 0.254Q0.391 0.264 0.391 0.279Q0.391 0.294 0.401 0.304Q0.411 0.313 0.426 0.313Q0.475 0.313 0.507 0.346Q0.540 0.379 0.540 0.427V0.498Q0.540 0.547 0.507 0.580Q0.475 0.612 0.426 0.612Q0.411 0.612 0.401 0.622Q0.391 0.631 0.391 0.647Q0.391 0.662 0.401 0.672Q0.411 0.681 0.426 0.681Q0.503 0.681 0.556 0.628Q0.609 0.575 0.609 0.498Z" fill="black"/>
</svg>
