<svg xmlns="http://www.w3.org/2000/svg" viewBox="0 0 1 1" preserveAspectRatio="xMidYMid meet">
  <path d="M0.628 0.541Q0.628 0.558 0.596 0.599Q0.597 0.620 0.597 0.627Q0.597 0.684 0.551 0.684Q0.539 0.684 0.500 0.670Q0.461 0.684 0.449 0.684Q0.403 0.684 0.403 0.627Q0.403 0.620 0.404 0.599Q0.372 0.558 0.372 0.541Q0.372 0.525 0.381 0.514Q0.372 0.497 0.372 0.490Q0.372 0.465 0.396 0.452Q0.408 0.445 0.441 0.436Q0.458 0.410 0.464 0.403Q0.481 0.386 0.500 0.386Q0.523 0.386 0.540 0.408Q0.542 0.411 0.559 0.436Q0.592 0.445 0.604 0.452Q0.628 0.465 0.628 0.490Q0.628 0.497 0.619 0.514Q0.628 0.525 0.628 0.541ZM0.595 0.490Q0.595 0.483 0.581 0.477Q0.573 0.474 0.538 0.465Q0.517 0.432 0.515 0.430Q0.507 0.419 0.500 0.419Q0.492 0.419 0.485 0.430Q0.473 0.446 0.462 0.465Q0.427 0.474 0.419 0.477Q0.405 0.483 0.405 0.490Q0.405 0.498 0.438 0.538Q0.436 0.568 0.436 0.576Q0.436 0.600 0.449 0.600Q0.457 0.600 0.500 0.583Q0.543 0.600 0.551 0.600Q0.564 0.600 0.564 0.576Q0.564 0.568 0.562 0.538Q0.595 0.498 0.595 0.490Z" fill="black"/>
</svg>
