<svg xmlns="http://www.w3.org/2000/svg" viewBox="0 0 1 1" preserveAspectRatio="xMidYMid meet">
  <path d="M0.631 0.561Q0.631 0.591 0.614 0.609Q0.597 0.627 0.568 0.629Q0.566 0.656 0.547 0.674Q0.528 0.692 0.500 0.692Q0.472 0.692 0.453 0.674Q0.434 0.656 0.432 0.629Q0.405 0.627 0.387 0.608Q0.369 0.589 0.369 0.561Q0.369 0.548 0.374 0.536Q0.369 0.523 0.369 0.510Q0.369 0.483 0.387 0.464Q0.405 0.444 0.432 0.443Q0.434 0.414 0.452 0.397Q0.470 0.380 0.500 0.380Q0.528 0.380 0.547 0.398Q0.566 0.415 0.568 0.443Q0.595 0.444 0.613 0.464Q0.631 0.483 0.631 0.510Q0.631 0.524 0.627 0.537Q0.631 0.548 0.631 0.561ZM0.598 0.510Q0.598 0.495 0.588 0.485Q0.579 0.476 0.563 0.476H0.534V0.447Q0.534 0.432 0.525 0.422Q0.516 0.413 0.500 0.413Q0.466 0.413 0.466 0.447V0.476H0.437Q0.421 0.476 0.412 0.485Q0.402 0.495 0.402 0.510Q0.402 0.525 0.412 0.535Q0.421 0.545 0.437 0.545H0.466V0.574Q0.466 0.589 0.475 0.599Q0.485 0.608 0.500 0.608Q0.516 0.608 0.525 0.599Q0.534 0.589 0.534 0.574V0.545H0.563Q0.598 0.545 0.598 0.510Z" fill="black"/>
</svg>
