<svg xmlns="http://www.w3.org/2000/svg" viewBox="0 0 1 1" preserveAspectRatio="xMidYMid meet">
  <path d="M0.575 0.711Q0.575 0.742 0.553 0.764Q0.531 0.786 0.500 0.786Q0.469 0.786 0.447 0.764Q0.425 0.742 0.425 0.711V0.597Q0.425 0.566 0.447 0.544Q0.469 0.522 0.500 0.522Q0.531 0.522 0.553 0.544Q0.575 0.566 0.575 0.597ZM0.542 0.660V0.597Q0.542 0.580 0.530 0.568Q0.517 0.556 0.500 0.556Q0.483 0.556 0.470 0.568Q0.458 0.580 0.458 0.597V0.660Q0.458 0.677 0.470 0.690Q0.483 0.702 0.500 0.702Q0.517 0.702 0.530 0.690Q0.542 0.677 0.542 0.660Z" fill="black"/>
</svg>
