<svg xmlns="http://www.w3.org/2000/svg" viewBox="0 0 1 1" preserveAspectRatio="xMidYMid meet">
  <path d="M0.618 0.296Q0.618 0.324 0.598 0.344Q0.577 0.364 0.549 0.364Q0.523 0.364 0.502 0.344H0.497Q0.477 0.364 0.450 0.364Q0.422 0.364 0.402 0.344Q0.382 0.324 0.382 0.296Q0.382 0.284 0.388 0.272Q0.382 0.259 0.382 0.245Q0.382 0.220 0.406 0.193Q0.416 0.182 0.450 0.151Q0.476 0.128 0.500 0.128Q0.523 0.128 0.554 0.154Q0.554 0.154 0.598 0.198Q0.618 0.218 0.618 0.245Q0.618 0.259 0.613 0.271Q0.618 0.283 0.618 0.296ZM0.585 0.245Q0.585 0.232 0.574 0.221Q0.535 0.183 0.528 0.176Q0.511 0.161 0.500 0.161Q0.489 0.161 0.472 0.176Q0.463 0.184 0.426 0.221Q0.415 0.232 0.415 0.245Q0.415 0.259 0.426 0.270Q0.436 0.280 0.450 0.280Q0.464 0.280 0.474 0.270L0.500 0.245L0.525 0.270Q0.536 0.280 0.549 0.280Q0.563 0.280 0.574 0.270Q0.585 0.259 0.585 0.245Z" fill="black"/>
</svg>
