<svg xmlns="http://www.w3.org/2000/svg" viewBox="0 0 1 1" preserveAspectRatio="xMidYMid meet">
  <path d="M0.618 0.246Q0.618 0.273 0.598 0.293Q0.555 0.336 0.554 0.336Q0.523 0.363 0.500 0.363Q0.476 0.363 0.446 0.336Q0.443 0.334 0.402 0.293Q0.382 0.273 0.382 0.246Q0.382 0.232 0.387 0.220Q0.382 0.208 0.382 0.195Q0.382 0.167 0.402 0.147Q0.423 0.126 0.450 0.126Q0.477 0.126 0.498 0.147H0.502Q0.522 0.126 0.549 0.126Q0.577 0.126 0.598 0.147Q0.618 0.167 0.618 0.195Q0.618 0.208 0.613 0.220Q0.618 0.232 0.618 0.246ZM0.585 0.195Q0.585 0.180 0.574 0.170Q0.563 0.160 0.549 0.160Q0.536 0.160 0.525 0.170L0.500 0.196L0.474 0.170Q0.464 0.160 0.450 0.160Q0.437 0.160 0.426 0.170Q0.415 0.181 0.415 0.195Q0.415 0.208 0.426 0.219Q0.466 0.259 0.472 0.264Q0.489 0.279 0.500 0.279Q0.511 0.279 0.528 0.264Q0.532 0.260 0.574 0.219Q0.585 0.208 0.585 0.195Z" fill="black"/>
</svg>
