<svg xmlns="http://www.w3.org/2000/svg" viewBox="0 0 1 1" preserveAspectRatio="xMidYMid meet">
  <path d="M0.575 0.533Q0.575 0.564 0.553 0.586Q0.531 0.608 0.500 0.608Q0.469 0.608 0.447 0.586Q0.425 0.564 0.425 0.533Q0.425 0.519 0.429 0.507Q0.425 0.495 0.425 0.482Q0.425 0.451 0.447 0.428Q0.469 0.406 0.500 0.406Q0.531 0.406 0.553 0.428Q0.575 0.451 0.575 0.482Q0.575 0.495 0.571 0.507Q0.575 0.519 0.575 0.533ZM0.542 0.482Q0.542 0.464 0.530 0.452Q0.517 0.439 0.500 0.439Q0.483 0.439 0.470 0.452Q0.458 0.464 0.458 0.482Q0.458 0.499 0.470 0.511Q0.483 0.524 0.500 0.524Q0.517 0.524 0.530 0.511Q0.542 0.499 0.542 0.482Z" fill="black"/>
</svg>
