<svg xmlns="http://www.w3.org/2000/svg" viewBox="0 0 1 1" preserveAspectRatio="xMidYMid meet">
  <path d="M0.609 0.256Q0.609 0.301 0.577 0.333Q0.545 0.365 0.500 0.365Q0.455 0.365 0.423 0.333Q0.391 0.301 0.391 0.256Q0.391 0.244 0.395 0.233Q0.391 0.220 0.391 0.205Q0.391 0.176 0.411 0.157Q0.430 0.138 0.459 0.138Q0.483 0.138 0.500 0.151Q0.518 0.138 0.541 0.138Q0.570 0.138 0.589 0.157Q0.609 0.176 0.609 0.205Q0.609 0.220 0.605 0.233Q0.609 0.244 0.609 0.256ZM0.575 0.205Q0.575 0.190 0.566 0.180Q0.557 0.171 0.541 0.171Q0.526 0.171 0.516 0.180Q0.507 0.190 0.507 0.205Q0.507 0.212 0.500 0.212Q0.493 0.212 0.493 0.205Q0.493 0.190 0.484 0.180Q0.475 0.171 0.459 0.171Q0.444 0.171 0.434 0.180Q0.425 0.190 0.425 0.205Q0.425 0.236 0.447 0.259Q0.469 0.281 0.500 0.281Q0.531 0.281 0.553 0.259Q0.575 0.236 0.575 0.205Z" fill="black"/>
</svg>
