<svg xmlns="http://www.w3.org/2000/svg" viewBox="0 0 1 1" preserveAspectRatio="xMidYMid meet">
  <path d="M0.575 0.290Q0.575 0.321 0.554 0.343Q0.532 0.365 0.500 0.365Q0.468 0.365 0.446 0.343Q0.425 0.321 0.425 0.290Q0.425 0.276 0.429 0.265Q0.425 0.252 0.425 0.239Q0.425 0.207 0.447 0.186Q0.469 0.164 0.500 0.164Q0.531 0.164 0.553 0.186Q0.575 0.207 0.575 0.239Q0.575 0.252 0.571 0.265Q0.575 0.276 0.575 0.290ZM0.542 0.239Q0.542 0.221 0.530 0.209Q0.517 0.197 0.500 0.197Q0.483 0.197 0.470 0.209Q0.458 0.221 0.458 0.239Q0.458 0.256 0.470 0.269Q0.482 0.281 0.500 0.281Q0.518 0.281 0.530 0.269Q0.542 0.256 0.542 0.239Z" fill="black"/>
</svg>
