<svg xmlns="http://www.w3.org/2000/svg" viewBox="0 0 1 1" preserveAspectRatio="xMidYMid meet">
  <path d="M0.586 0.277Q0.586 0.313 0.561 0.338Q0.536 0.363 0.500 0.363Q0.464 0.363 0.439 0.338Q0.414 0.313 0.414 0.277Q0.414 0.264 0.417 0.252Q0.414 0.240 0.414 0.226Q0.414 0.191 0.439 0.165Q0.464 0.140 0.500 0.140Q0.536 0.140 0.561 0.165Q0.586 0.191 0.586 0.226Q0.586 0.240 0.583 0.252Q0.586 0.264 0.586 0.277ZM0.553 0.226Q0.553 0.204 0.537 0.189Q0.522 0.173 0.500 0.173Q0.478 0.173 0.463 0.189Q0.447 0.204 0.447 0.226Q0.447 0.248 0.463 0.264Q0.478 0.279 0.500 0.279Q0.522 0.279 0.537 0.264Q0.553 0.248 0.553 0.226ZM0.515 0.226Q0.515 0.241 0.500 0.241Q0.485 0.241 0.485 0.226Q0.485 0.212 0.500 0.212Q0.515 0.212 0.515 0.226Z" fill="black"/>
</svg>
