<svg xmlns="http://www.w3.org/2000/svg" viewBox="0 0 1 1" preserveAspectRatio="xMidYMid meet">
  <path d="M0.621 0.292Q0.621 0.323 0.591 0.348Q0.564 0.372 0.531 0.372Q0.512 0.372 0.479 0.357Q0.464 0.365 0.448 0.365Q0.420 0.365 0.400 0.345Q0.379 0.325 0.379 0.297Q0.379 0.284 0.384 0.272Q0.379 0.259 0.379 0.246Q0.379 0.214 0.408 0.190Q0.436 0.166 0.469 0.166Q0.491 0.166 0.521 0.180Q0.536 0.172 0.552 0.172Q0.580 0.172 0.600 0.192Q0.621 0.213 0.621 0.241Q0.621 0.253 0.616 0.266Q0.621 0.278 0.621 0.292ZM0.588 0.241Q0.588 0.226 0.577 0.216Q0.566 0.205 0.552 0.205Q0.538 0.205 0.527 0.218Q0.527 0.218 0.525 0.218L0.504 0.208Q0.484 0.199 0.469 0.199Q0.443 0.199 0.422 0.223Q0.412 0.233 0.412 0.246Q0.412 0.260 0.423 0.271Q0.434 0.281 0.448 0.281Q0.462 0.281 0.473 0.269Q0.473 0.269 0.475 0.269L0.497 0.278Q0.519 0.287 0.531 0.287Q0.557 0.287 0.578 0.264Q0.588 0.253 0.588 0.241Z" fill="black"/>
</svg>
