<svg xmlns="http://www.w3.org/2000/svg" viewBox="0 0 1 1" preserveAspectRatio="xMidYMid meet">
  <path d="M0.724 0.609Q0.724 0.622 0.715 0.631Q0.706 0.640 0.693 0.640H0.307Q0.294 0.640 0.285 0.631Q0.276 0.622 0.276 0.609V0.262Q0.276 0.250 0.285 0.241Q0.294 0.232 0.307 0.232H0.693Q0.706 0.232 0.715 0.241Q0.724 0.250 0.724 0.262ZM0.700 0.353V0.324Q0.700 0.307 0.688 0.296Q0.677 0.285 0.661 0.285Q0.644 0.285 0.633 0.296Q0.622 0.307 0.622 0.324Q0.622 0.340 0.633 0.351Q0.645 0.363 0.661 0.363Q0.671 0.363 0.671 0.352Q0.671 0.342 0.661 0.342Q0.653 0.342 0.648 0.337Q0.643 0.331 0.643 0.324Q0.643 0.305 0.661 0.305Q0.679 0.305 0.679 0.324V0.353Q0.679 0.363 0.690 0.363Q0.700 0.363 0.700 0.353ZM0.559 0.265Q0.559 0.252 0.546 0.252Q0.533 0.252 0.533 0.265Q0.533 0.278 0.546 0.278Q0.559 0.278 0.559 0.265ZM0.614 0.352Q0.614 0.342 0.603 0.342Q0.596 0.342 0.590 0.337Q0.585 0.331 0.585 0.324Q0.585 0.316 0.590 0.311Q0.596 0.305 0.603 0.305Q0.614 0.305 0.614 0.295Q0.614 0.285 0.603 0.285Q0.587 0.285 0.576 0.296Q0.565 0.307 0.565 0.324Q0.565 0.340 0.576 0.351Q0.587 0.362 0.603 0.362Q0.614 0.362 0.614 0.352ZM0.556 0.352V0.295Q0.556 0.285 0.545 0.285Q0.535 0.285 0.535 0.295V0.352Q0.535 0.362 0.545 0.362Q0.556 0.362 0.556 0.352ZM0.528 0.295Q0.528 0.285 0.517 0.285Q0.505 0.285 0.496 0.293Q0.487 0.302 0.487 0.314V0.332Q0.487 0.338 0.477 0.341Q0.467 0.345 0.467 0.352Q0.467 0.362 0.478 0.362Q0.490 0.362 0.499 0.354Q0.508 0.345 0.508 0.332V0.314Q0.508 0.308 0.518 0.305Q0.528 0.302 0.528 0.295ZM0.700 0.523V0.482Q0.700 0.459 0.684 0.443Q0.668 0.427 0.645 0.427Q0.621 0.427 0.606 0.443Q0.590 0.459 0.590 0.482Q0.590 0.505 0.606 0.521Q0.622 0.537 0.645 0.537Q0.660 0.537 0.660 0.522Q0.660 0.508 0.645 0.508Q0.634 0.508 0.626 0.501Q0.619 0.493 0.619 0.482Q0.619 0.471 0.626 0.464Q0.634 0.456 0.645 0.456Q0.655 0.456 0.663 0.464Q0.671 0.471 0.671 0.482V0.523Q0.671 0.537 0.685 0.537Q0.700 0.537 0.700 0.523ZM0.485 0.295Q0.485 0.285 0.475 0.285Q0.463 0.285 0.454 0.294Q0.445 0.302 0.445 0.314V0.323Q0.445 0.326 0.445 0.329V0.332Q0.445 0.338 0.435 0.341Q0.426 0.345 0.426 0.352Q0.426 0.362 0.436 0.362Q0.449 0.362 0.457 0.354Q0.466 0.345 0.466 0.332V0.314Q0.466 0.308 0.476 0.305Q0.485 0.302 0.485 0.295ZM0.700 0.614V0.567Q0.700 0.562 0.695 0.562Q0.689 0.562 0.689 0.567V0.614Q0.689 0.619 0.695 0.619Q0.700 0.619 0.700 0.614ZM0.352 0.265Q0.352 0.252 0.339 0.252Q0.326 0.252 0.326 0.265Q0.326 0.278 0.339 0.278Q0.352 0.278 0.352 0.265ZM0.685 0.601V0.583Q0.685 0.578 0.679 0.578Q0.674 0.578 0.674 0.583V0.601Q0.674 0.608 0.667 0.608Q0.661 0.608 0.661 0.601V0.583Q0.661 0.578 0.655 0.578Q0.650 0.578 0.650 0.583V0.601Q0.650 0.619 0.667 0.619Q0.685 0.619 0.685 0.601ZM0.427 0.304Q0.427 0.300 0.424 0.297Q0.413 0.285 0.396 0.285Q0.380 0.285 0.369 0.296Q0.357 0.307 0.357 0.324Q0.357 0.340 0.369 0.351Q0.380 0.363 0.396 0.363H0.410Q0.420 0.363 0.420 0.352Q0.420 0.342 0.410 0.342H0.396Q0.388 0.342 0.383 0.337Q0.378 0.331 0.378 0.324Q0.378 0.316 0.383 0.311Q0.388 0.305 0.396 0.305Q0.398 0.305 0.400 0.306L0.389 0.317Q0.386 0.320 0.386 0.324Q0.386 0.334 0.396 0.334Q0.401 0.334 0.403 0.331L0.423 0.312Q0.427 0.309 0.427 0.304ZM0.578 0.482Q0.578 0.459 0.562 0.443Q0.546 0.427 0.523 0.427Q0.509 0.427 0.509 0.441Q0.509 0.456 0.523 0.456Q0.534 0.456 0.541 0.464Q0.549 0.471 0.549 0.482Q0.549 0.493 0.541 0.500Q0.534 0.508 0.523 0.508Q0.512 0.508 0.504 0.500Q0.497 0.493 0.497 0.482V0.398Q0.497 0.383 0.483 0.383Q0.468 0.383 0.468 0.398V0.482Q0.468 0.505 0.484 0.521Q0.500 0.537 0.523 0.537Q0.546 0.537 0.562 0.521Q0.578 0.505 0.578 0.482ZM0.645 0.596Q0.645 0.590 0.640 0.590H0.621V0.578Q0.621 0.572 0.628 0.572Q0.634 0.572 0.634 0.579V0.580Q0.634 0.585 0.640 0.585Q0.645 0.585 0.645 0.580V0.579Q0.645 0.561 0.628 0.561Q0.610 0.561 0.610 0.578V0.614Q0.610 0.619 0.616 0.619Q0.621 0.619 0.621 0.614V0.601H0.640Q0.645 0.601 0.645 0.596ZM0.607 0.567Q0.607 0.561 0.600 0.561Q0.593 0.561 0.593 0.567Q0.593 0.574 0.600 0.574Q0.607 0.574 0.607 0.567ZM0.606 0.614V0.583Q0.606 0.578 0.600 0.578Q0.595 0.578 0.595 0.583V0.614Q0.595 0.619 0.600 0.619Q0.606 0.619 0.606 0.614ZM0.349 0.363V0.295Q0.349 0.285 0.339 0.285Q0.329 0.285 0.329 0.295V0.363Q0.329 0.376 0.317 0.376H0.316Q0.305 0.376 0.305 0.386Q0.305 0.396 0.316 0.396H0.317Q0.330 0.396 0.340 0.386Q0.349 0.377 0.349 0.363ZM0.457 0.522V0.398Q0.457 0.384 0.442 0.384Q0.427 0.384 0.427 0.398V0.522Q0.427 0.537 0.442 0.537Q0.457 0.537 0.457 0.522ZM0.590 0.601V0.601Q0.590 0.595 0.585 0.595Q0.580 0.595 0.580 0.601V0.601Q0.580 0.608 0.573 0.608Q0.566 0.608 0.566 0.601V0.589H0.585Q0.590 0.589 0.590 0.584Q0.590 0.578 0.585 0.578H0.566V0.574Q0.566 0.568 0.561 0.568Q0.556 0.568 0.556 0.574V0.601Q0.556 0.619 0.573 0.619Q0.590 0.619 0.590 0.601ZM0.551 0.601V0.583Q0.551 0.578 0.545 0.578Q0.540 0.578 0.540 0.583V0.601Q0.540 0.608 0.534 0.608Q0.527 0.608 0.527 0.601V0.583Q0.527 0.578 0.521 0.578Q0.516 0.578 0.516 0.583V0.601Q0.516 0.619 0.534 0.619Q0.551 0.619 0.551 0.601ZM0.512 0.614V0.598Q0.512 0.590 0.506 0.584Q0.499 0.578 0.491 0.578Q0.482 0.578 0.476 0.584Q0.470 0.590 0.470 0.598Q0.470 0.607 0.476 0.613Q0.482 0.619 0.491 0.619Q0.496 0.619 0.496 0.614Q0.496 0.610 0.491 0.608Q0.485 0.606 0.484 0.604Q0.481 0.602 0.481 0.598Q0.481 0.589 0.491 0.589Q0.501 0.589 0.501 0.598V0.614Q0.501 0.619 0.506 0.619Q0.512 0.619 0.512 0.614ZM0.415 0.523V0.482Q0.415 0.459 0.399 0.443Q0.383 0.427 0.360 0.427Q0.337 0.427 0.321 0.443Q0.305 0.459 0.305 0.482Q0.305 0.505 0.321 0.521Q0.337 0.537 0.360 0.537Q0.375 0.537 0.375 0.522Q0.375 0.508 0.360 0.508Q0.350 0.508 0.342 0.501Q0.335 0.493 0.335 0.482Q0.335 0.471 0.342 0.464Q0.349 0.456 0.360 0.456Q0.371 0.456 0.379 0.464Q0.386 0.471 0.386 0.482V0.523Q0.386 0.537 0.401 0.537Q0.415 0.537 0.415 0.523ZM0.466 0.588Q0.466 0.586 0.464 0.584Q0.458 0.578 0.449 0.578Q0.440 0.578 0.435 0.584Q0.429 0.590 0.429 0.598Q0.429 0.607 0.435 0.613Q0.440 0.619 0.449 0.619H0.456Q0.462 0.619 0.462 0.614Q0.462 0.608 0.456 0.608H0.449Q0.439 0.608 0.439 0.598Q0.439 0.589 0.449 0.589Q0.450 0.589 0.451 0.589L0.445 0.595Q0.443 0.596 0.443 0.598Q0.443 0.604 0.449 0.604Q0.452 0.604 0.453 0.602L0.463 0.592Q0.466 0.591 0.466 0.588ZM0.424 0.598Q0.424 0.590 0.418 0.584Q0.412 0.578 0.403 0.578Q0.398 0.578 0.398 0.583Q0.398 0.588 0.402 0.589Q0.413 0.591 0.413 0.598Q0.413 0.608 0.403 0.608Q0.393 0.608 0.393 0.598V0.567Q0.393 0.561 0.388 0.561Q0.383 0.561 0.383 0.567V0.598Q0.383 0.607 0.389 0.613Q0.394 0.619 0.403 0.619Q0.412 0.619 0.418 0.613Q0.424 0.607 0.424 0.598ZM0.319 0.567Q0.319 0.561 0.312 0.561Q0.305 0.561 0.305 0.567Q0.305 0.574 0.312 0.574Q0.319 0.574 0.319 0.567ZM0.354 0.583Q0.354 0.578 0.348 0.578Q0.332 0.578 0.332 0.594V0.603Q0.332 0.607 0.327 0.608Q0.322 0.610 0.322 0.614Q0.322 0.619 0.327 0.619Q0.343 0.619 0.343 0.603V0.594Q0.343 0.590 0.348 0.589Q0.354 0.587 0.354 0.583ZM0.318 0.614V0.583Q0.318 0.578 0.312 0.578Q0.306 0.578 0.306 0.583V0.614Q0.306 0.619 0.312 0.619Q0.318 0.619 0.318 0.614Z" fill="black"/>
</svg>
