<svg xmlns="http://www.w3.org/2000/svg" viewBox="0 0 1 1" preserveAspectRatio="xMidYMid meet">
  <path d="M0.666 0.661Q0.666 0.690 0.647 0.709Q0.627 0.728 0.598 0.728H0.406Q0.376 0.728 0.357 0.714Q0.334 0.698 0.334 0.666Q0.334 0.653 0.339 0.641Q0.334 0.629 0.334 0.615Q0.334 0.589 0.356 0.566Q0.371 0.550 0.403 0.529Q0.375 0.528 0.357 0.508Q0.339 0.489 0.339 0.461Q0.339 0.445 0.342 0.430Q0.339 0.420 0.339 0.410Q0.339 0.341 0.386 0.294Q0.433 0.247 0.502 0.247Q0.572 0.247 0.619 0.294Q0.666 0.341 0.666 0.410Q0.666 0.423 0.664 0.435Q0.666 0.448 0.666 0.461Q0.666 0.509 0.636 0.554Q0.666 0.573 0.666 0.610Q0.666 0.623 0.661 0.636Q0.666 0.648 0.666 0.661ZM0.517 0.437Q0.510 0.433 0.502 0.433Q0.491 0.433 0.482 0.441Q0.474 0.450 0.474 0.461Q0.474 0.471 0.472 0.480Q0.502 0.455 0.517 0.437ZM0.633 0.610Q0.633 0.595 0.623 0.585Q0.613 0.575 0.598 0.575H0.515Q0.571 0.531 0.593 0.505Q0.633 0.459 0.633 0.410Q0.633 0.355 0.595 0.318Q0.558 0.280 0.502 0.280Q0.447 0.280 0.410 0.318Q0.372 0.355 0.372 0.410Q0.372 0.426 0.382 0.435Q0.391 0.445 0.406 0.445Q0.422 0.445 0.431 0.435Q0.441 0.426 0.441 0.410Q0.441 0.385 0.459 0.367Q0.477 0.349 0.502 0.349Q0.528 0.349 0.546 0.367Q0.564 0.385 0.564 0.410Q0.564 0.456 0.455 0.534Q0.417 0.562 0.389 0.581Q0.367 0.595 0.367 0.615Q0.367 0.644 0.406 0.644H0.598Q0.613 0.644 0.623 0.635Q0.633 0.625 0.633 0.610Z" fill="black"/>
</svg>
