<svg xmlns="http://www.w3.org/2000/svg" viewBox="0 0 1 1" preserveAspectRatio="xMidYMid meet">
  <path d="M0.641 0.588Q0.641 0.647 0.600 0.688Q0.559 0.728 0.500 0.728H0.427Q0.398 0.728 0.378 0.709Q0.359 0.690 0.359 0.661Q0.359 0.648 0.363 0.636Q0.359 0.623 0.359 0.610Q0.359 0.581 0.378 0.562Q0.398 0.542 0.427 0.542H0.436Q0.429 0.529 0.429 0.512Q0.429 0.509 0.429 0.507H0.427Q0.398 0.507 0.379 0.488Q0.359 0.468 0.359 0.439Q0.359 0.424 0.362 0.409Q0.359 0.399 0.359 0.388Q0.359 0.329 0.400 0.288Q0.441 0.247 0.500 0.247Q0.559 0.247 0.600 0.288Q0.641 0.329 0.641 0.388Q0.641 0.401 0.639 0.413Q0.641 0.426 0.641 0.439Q0.641 0.465 0.633 0.488Q0.641 0.511 0.641 0.537Q0.641 0.550 0.639 0.562Q0.641 0.575 0.641 0.588ZM0.608 0.537Q0.608 0.493 0.578 0.463Q0.608 0.432 0.608 0.388Q0.608 0.342 0.577 0.311Q0.546 0.280 0.500 0.280Q0.454 0.280 0.423 0.311Q0.392 0.342 0.392 0.388Q0.392 0.403 0.402 0.413Q0.412 0.423 0.427 0.423Q0.442 0.423 0.452 0.413Q0.461 0.403 0.461 0.387Q0.461 0.372 0.473 0.360Q0.484 0.349 0.500 0.349Q0.516 0.349 0.528 0.360Q0.539 0.372 0.539 0.388Q0.539 0.404 0.528 0.415Q0.516 0.427 0.500 0.427Q0.484 0.428 0.473 0.437Q0.462 0.445 0.462 0.461Q0.462 0.475 0.472 0.484Q0.482 0.494 0.496 0.495Q0.514 0.497 0.527 0.509Q0.539 0.520 0.539 0.537Q0.539 0.553 0.528 0.564Q0.516 0.575 0.500 0.575H0.427Q0.411 0.575 0.402 0.585Q0.392 0.595 0.392 0.610Q0.392 0.625 0.402 0.635Q0.411 0.644 0.427 0.644H0.500Q0.546 0.644 0.577 0.613Q0.608 0.583 0.608 0.537Z" fill="black"/>
</svg>
