<svg xmlns="http://www.w3.org/2000/svg" viewBox="0 0 1 1" preserveAspectRatio="xMidYMid meet">
  <path d="M0.643 0.661Q0.643 0.690 0.624 0.709Q0.605 0.728 0.576 0.728Q0.547 0.728 0.528 0.709Q0.508 0.690 0.508 0.661V0.624H0.500Q0.440 0.624 0.398 0.583Q0.357 0.541 0.357 0.481V0.315Q0.357 0.286 0.376 0.267Q0.395 0.248 0.424 0.248Q0.453 0.248 0.473 0.267Q0.492 0.286 0.492 0.315V0.430Q0.492 0.438 0.500 0.438H0.508V0.314Q0.508 0.286 0.528 0.267Q0.547 0.247 0.576 0.247Q0.605 0.247 0.624 0.266Q0.643 0.285 0.643 0.314ZM0.610 0.610V0.314Q0.610 0.299 0.600 0.290Q0.591 0.280 0.576 0.280Q0.561 0.280 0.551 0.290Q0.541 0.300 0.541 0.314V0.471H0.500Q0.483 0.471 0.471 0.459Q0.459 0.447 0.459 0.430V0.315Q0.459 0.300 0.449 0.291Q0.440 0.281 0.424 0.281Q0.409 0.281 0.400 0.291Q0.390 0.300 0.390 0.315V0.430Q0.390 0.477 0.422 0.508Q0.453 0.540 0.500 0.540H0.541V0.610Q0.541 0.625 0.551 0.635Q0.561 0.644 0.576 0.644Q0.591 0.644 0.600 0.635Q0.610 0.625 0.610 0.610Z" fill="black"/>
</svg>
