<svg xmlns="http://www.w3.org/2000/svg" viewBox="0 0 1 1" preserveAspectRatio="xMidYMid meet">
  <path d="M0.646 0.565Q0.646 0.634 0.599 0.681Q0.551 0.728 0.482 0.728H0.421Q0.392 0.728 0.373 0.709Q0.354 0.690 0.354 0.661Q0.354 0.648 0.359 0.636Q0.354 0.623 0.354 0.610Q0.354 0.581 0.373 0.562Q0.392 0.542 0.421 0.542H0.482Q0.489 0.542 0.495 0.540Q0.489 0.537 0.482 0.537H0.421Q0.394 0.537 0.374 0.517Q0.354 0.497 0.354 0.469V0.314Q0.354 0.287 0.374 0.267Q0.394 0.247 0.421 0.247H0.573Q0.602 0.247 0.621 0.266Q0.640 0.285 0.640 0.314Q0.640 0.329 0.636 0.341Q0.640 0.353 0.640 0.365Q0.640 0.401 0.616 0.419Q0.646 0.461 0.646 0.514Q0.646 0.527 0.644 0.539Q0.646 0.552 0.646 0.565ZM0.613 0.514Q0.613 0.459 0.575 0.421Q0.538 0.384 0.482 0.384H0.456V0.349H0.573Q0.607 0.349 0.607 0.314Q0.607 0.299 0.597 0.290Q0.588 0.280 0.573 0.280H0.421Q0.407 0.280 0.397 0.291Q0.387 0.301 0.387 0.314V0.418Q0.387 0.432 0.397 0.442Q0.407 0.453 0.421 0.453H0.482Q0.508 0.453 0.526 0.471Q0.544 0.489 0.544 0.514Q0.544 0.540 0.526 0.558Q0.508 0.575 0.482 0.575H0.421Q0.406 0.575 0.397 0.585Q0.387 0.595 0.387 0.610Q0.387 0.625 0.397 0.635Q0.406 0.644 0.421 0.644H0.482Q0.537 0.644 0.575 0.607Q0.613 0.569 0.613 0.514Z" fill="black"/>
</svg>
