<svg xmlns="http://www.w3.org/2000/svg" viewBox="0 0 1 1" preserveAspectRatio="xMidYMid meet">
  <path d="M0.663 0.566Q0.663 0.635 0.616 0.682Q0.569 0.729 0.500 0.729Q0.430 0.729 0.384 0.682Q0.337 0.635 0.337 0.566V0.410Q0.337 0.341 0.384 0.294Q0.430 0.247 0.500 0.247Q0.546 0.247 0.588 0.272Q0.637 0.301 0.637 0.344Q0.637 0.357 0.632 0.370Q0.637 0.382 0.637 0.395Q0.637 0.407 0.633 0.418Q0.663 0.461 0.663 0.515Q0.663 0.528 0.661 0.541Q0.663 0.553 0.663 0.566ZM0.630 0.515Q0.630 0.459 0.593 0.422Q0.555 0.385 0.500 0.385Q0.468 0.385 0.440 0.400Q0.443 0.378 0.460 0.363Q0.477 0.349 0.500 0.349Q0.526 0.349 0.544 0.368Q0.555 0.379 0.569 0.379Q0.583 0.379 0.594 0.369Q0.604 0.358 0.604 0.344Q0.604 0.331 0.594 0.320Q0.555 0.280 0.500 0.280Q0.444 0.280 0.407 0.318Q0.370 0.355 0.370 0.410V0.515Q0.370 0.570 0.407 0.608Q0.444 0.645 0.500 0.645Q0.555 0.645 0.593 0.608Q0.630 0.570 0.630 0.515ZM0.561 0.515Q0.561 0.540 0.543 0.558Q0.525 0.576 0.500 0.576Q0.474 0.576 0.456 0.558Q0.439 0.540 0.439 0.515Q0.439 0.489 0.456 0.471Q0.474 0.454 0.500 0.454Q0.525 0.454 0.543 0.471Q0.561 0.489 0.561 0.515Z" fill="black"/>
</svg>
