<svg xmlns="http://www.w3.org/2000/svg" viewBox="0 0 1 1" preserveAspectRatio="xMidYMid meet">
  <path d="M0.648 0.363Q0.648 0.394 0.617 0.482L0.548 0.682Q0.532 0.729 0.485 0.729Q0.457 0.729 0.437 0.710Q0.417 0.691 0.417 0.662Q0.417 0.651 0.420 0.640L0.422 0.637Q0.417 0.624 0.417 0.611Q0.417 0.600 0.420 0.589L0.471 0.433H0.419Q0.390 0.433 0.371 0.414Q0.352 0.394 0.352 0.365Q0.352 0.352 0.357 0.340Q0.352 0.328 0.352 0.314Q0.352 0.285 0.371 0.266Q0.390 0.247 0.419 0.247H0.581Q0.611 0.247 0.629 0.265Q0.648 0.282 0.648 0.312Q0.648 0.323 0.644 0.340Q0.648 0.351 0.648 0.363ZM0.615 0.312Q0.615 0.280 0.581 0.280H0.419Q0.404 0.280 0.394 0.290Q0.385 0.299 0.385 0.314Q0.385 0.330 0.394 0.339Q0.404 0.349 0.419 0.349H0.534L0.452 0.599Q0.450 0.606 0.450 0.611Q0.450 0.626 0.460 0.635Q0.471 0.645 0.485 0.645Q0.509 0.645 0.517 0.621L0.586 0.420Q0.615 0.338 0.615 0.312Z" fill="black"/>
</svg>
