<svg xmlns="http://www.w3.org/2000/svg" viewBox="0 0 1 1" preserveAspectRatio="xMidYMid meet">
  <path d="M0.647 0.582Q0.647 0.643 0.604 0.686Q0.562 0.728 0.500 0.728Q0.438 0.728 0.396 0.686Q0.353 0.643 0.353 0.582Q0.353 0.568 0.355 0.556Q0.353 0.543 0.353 0.531Q0.353 0.495 0.368 0.465Q0.364 0.450 0.364 0.434Q0.364 0.421 0.366 0.408Q0.364 0.396 0.364 0.383Q0.364 0.327 0.403 0.287Q0.441 0.247 0.500 0.247Q0.558 0.247 0.597 0.286Q0.636 0.325 0.636 0.383Q0.636 0.396 0.634 0.408Q0.636 0.420 0.636 0.434Q0.636 0.451 0.633 0.466Q0.647 0.495 0.647 0.531Q0.647 0.544 0.645 0.556Q0.647 0.568 0.647 0.582ZM0.614 0.531Q0.614 0.482 0.579 0.449Q0.603 0.420 0.603 0.383Q0.603 0.339 0.573 0.309Q0.544 0.280 0.500 0.280Q0.457 0.280 0.427 0.309Q0.398 0.339 0.398 0.383Q0.398 0.420 0.421 0.449Q0.386 0.482 0.386 0.531Q0.386 0.579 0.419 0.612Q0.452 0.644 0.500 0.644Q0.548 0.644 0.581 0.612Q0.614 0.579 0.614 0.531ZM0.534 0.383Q0.534 0.397 0.524 0.407Q0.514 0.416 0.500 0.416Q0.486 0.416 0.476 0.406Q0.466 0.397 0.466 0.383Q0.466 0.369 0.476 0.359Q0.486 0.349 0.500 0.349Q0.514 0.349 0.524 0.359Q0.534 0.369 0.534 0.383ZM0.545 0.531Q0.545 0.549 0.532 0.562Q0.519 0.575 0.500 0.575Q0.482 0.575 0.468 0.562Q0.455 0.549 0.455 0.531Q0.455 0.512 0.468 0.498Q0.481 0.485 0.500 0.485Q0.519 0.485 0.532 0.498Q0.545 0.512 0.545 0.531Z" fill="black"/>
</svg>
