<svg xmlns="http://www.w3.org/2000/svg" viewBox="0 0 1 1" preserveAspectRatio="xMidYMid meet">
  <path d="M0.663 0.566Q0.663 0.635 0.616 0.682Q0.569 0.729 0.500 0.729Q0.455 0.729 0.412 0.704Q0.363 0.675 0.363 0.633Q0.363 0.619 0.368 0.607Q0.363 0.595 0.363 0.582Q0.363 0.569 0.367 0.558Q0.337 0.515 0.337 0.461Q0.337 0.449 0.339 0.436Q0.337 0.423 0.337 0.410Q0.337 0.341 0.384 0.294Q0.430 0.247 0.500 0.247Q0.569 0.247 0.616 0.294Q0.663 0.341 0.663 0.410ZM0.630 0.515V0.410Q0.630 0.355 0.593 0.318Q0.555 0.280 0.500 0.280Q0.444 0.280 0.407 0.318Q0.370 0.355 0.370 0.410Q0.370 0.466 0.407 0.503Q0.444 0.541 0.500 0.541Q0.532 0.541 0.560 0.526Q0.556 0.548 0.539 0.562Q0.522 0.576 0.500 0.576Q0.474 0.576 0.455 0.558Q0.445 0.546 0.431 0.546Q0.417 0.546 0.406 0.557Q0.396 0.567 0.396 0.582Q0.396 0.594 0.406 0.605Q0.444 0.645 0.500 0.645Q0.555 0.645 0.593 0.608Q0.630 0.570 0.630 0.515ZM0.561 0.410Q0.561 0.436 0.543 0.454Q0.525 0.472 0.500 0.472Q0.474 0.472 0.456 0.454Q0.439 0.436 0.439 0.410Q0.439 0.385 0.456 0.367Q0.474 0.349 0.500 0.349Q0.525 0.349 0.543 0.367Q0.561 0.385 0.561 0.410Z" fill="black"/>
</svg>
