<svg xmlns="http://www.w3.org/2000/svg" viewBox="0 0 1 1" preserveAspectRatio="xMidYMid meet">
  <path d="M0.648 0.661Q0.648 0.690 0.629 0.709Q0.610 0.728 0.581 0.728Q0.547 0.728 0.527 0.703Q0.508 0.728 0.473 0.728Q0.445 0.728 0.425 0.709Q0.406 0.690 0.406 0.661V0.537Q0.382 0.533 0.367 0.514Q0.352 0.495 0.352 0.471Q0.352 0.457 0.356 0.445Q0.352 0.433 0.352 0.420Q0.352 0.391 0.371 0.372Q0.390 0.353 0.419 0.353H0.582Q0.611 0.353 0.629 0.372Q0.648 0.391 0.648 0.420ZM0.615 0.610V0.420Q0.615 0.405 0.606 0.396Q0.597 0.386 0.582 0.386H0.419Q0.404 0.386 0.394 0.395Q0.385 0.405 0.385 0.420Q0.385 0.435 0.395 0.445Q0.405 0.455 0.419 0.455H0.439V0.610Q0.439 0.625 0.449 0.635Q0.458 0.644 0.473 0.644Q0.489 0.644 0.498 0.635Q0.508 0.625 0.508 0.610V0.455H0.546V0.610Q0.546 0.625 0.556 0.635Q0.566 0.644 0.581 0.644Q0.596 0.644 0.606 0.635Q0.615 0.625 0.615 0.610Z" fill="black"/>
</svg>
