<svg xmlns="http://www.w3.org/2000/svg" viewBox="0 0 1 1" preserveAspectRatio="xMidYMid meet">
  <path d="M0.631 0.611Q0.631 0.642 0.613 0.661Q0.595 0.679 0.563 0.679H0.437Q0.407 0.679 0.388 0.660Q0.369 0.640 0.369 0.611Q0.369 0.598 0.374 0.586Q0.369 0.573 0.369 0.560Q0.369 0.547 0.373 0.536Q0.369 0.524 0.369 0.512Q0.369 0.498 0.374 0.486Q0.369 0.474 0.369 0.461Q0.369 0.432 0.388 0.412Q0.407 0.393 0.437 0.393H0.563Q0.593 0.393 0.612 0.412Q0.631 0.432 0.631 0.461Q0.631 0.475 0.626 0.486Q0.631 0.498 0.631 0.512Q0.631 0.525 0.627 0.536Q0.631 0.547 0.631 0.560Q0.631 0.574 0.627 0.587Q0.631 0.598 0.631 0.611ZM0.598 0.461Q0.598 0.445 0.588 0.436Q0.579 0.426 0.563 0.426H0.437Q0.421 0.426 0.412 0.436Q0.402 0.445 0.402 0.461Q0.402 0.476 0.412 0.485Q0.421 0.495 0.437 0.495H0.563Q0.579 0.495 0.588 0.485Q0.598 0.476 0.598 0.461ZM0.598 0.560Q0.598 0.545 0.588 0.535Q0.579 0.526 0.563 0.526H0.437Q0.421 0.526 0.412 0.535Q0.402 0.545 0.402 0.560Q0.402 0.575 0.412 0.585Q0.421 0.595 0.437 0.595H0.563Q0.598 0.595 0.598 0.560Z" fill="black"/>
</svg>
