<svg xmlns="http://www.w3.org/2000/svg" viewBox="0 0 1 1" preserveAspectRatio="xMidYMid meet">
  <path d="M0.593 0.561Q0.593 0.585 0.570 0.611Q0.543 0.642 0.529 0.655Q0.501 0.679 0.476 0.679Q0.448 0.679 0.428 0.659Q0.407 0.638 0.407 0.611Q0.407 0.597 0.412 0.585Q0.407 0.573 0.407 0.560Q0.407 0.547 0.412 0.536Q0.407 0.524 0.407 0.512Q0.407 0.498 0.412 0.486Q0.407 0.474 0.407 0.461Q0.407 0.433 0.428 0.413Q0.448 0.392 0.476 0.392Q0.501 0.392 0.528 0.416Q0.548 0.437 0.568 0.458Q0.593 0.483 0.593 0.510Q0.593 0.522 0.587 0.535Q0.593 0.548 0.593 0.561ZM0.560 0.510Q0.560 0.496 0.545 0.482L0.500 0.436Q0.489 0.426 0.476 0.426Q0.462 0.426 0.451 0.436Q0.440 0.447 0.440 0.461Q0.440 0.474 0.451 0.485L0.477 0.510L0.451 0.536Q0.440 0.546 0.440 0.560Q0.440 0.573 0.451 0.584Q0.462 0.595 0.476 0.595Q0.489 0.595 0.500 0.584L0.545 0.539Q0.560 0.521 0.560 0.510Z" fill="black"/>
</svg>
