<svg xmlns="http://www.w3.org/2000/svg" viewBox="0 0 1 1" preserveAspectRatio="xMidYMid meet">
  <path d="M0.663 0.461Q0.663 0.530 0.616 0.577Q0.582 0.611 0.537 0.621Q0.536 0.623 0.536 0.625Q0.540 0.637 0.540 0.650Q0.540 0.682 0.518 0.704Q0.496 0.726 0.465 0.726Q0.433 0.726 0.411 0.704Q0.389 0.682 0.389 0.650Q0.389 0.637 0.394 0.625Q0.389 0.613 0.389 0.599Q0.389 0.586 0.394 0.573Q0.392 0.566 0.392 0.558Q0.392 0.544 0.397 0.532Q0.396 0.531 0.396 0.529Q0.370 0.525 0.353 0.507Q0.337 0.488 0.337 0.461Q0.337 0.445 0.339 0.430Q0.337 0.420 0.337 0.410Q0.337 0.341 0.384 0.294Q0.430 0.247 0.500 0.247Q0.569 0.247 0.616 0.294Q0.663 0.341 0.663 0.410Q0.663 0.424 0.661 0.436Q0.663 0.449 0.663 0.461ZM0.630 0.410Q0.630 0.355 0.593 0.318Q0.555 0.280 0.500 0.280Q0.444 0.280 0.407 0.318Q0.370 0.355 0.370 0.410Q0.370 0.426 0.379 0.435Q0.389 0.445 0.404 0.445Q0.419 0.445 0.429 0.435Q0.439 0.426 0.439 0.410Q0.439 0.385 0.456 0.367Q0.474 0.349 0.500 0.349Q0.525 0.349 0.543 0.367Q0.561 0.385 0.561 0.410Q0.561 0.436 0.543 0.454Q0.525 0.472 0.500 0.472H0.459Q0.444 0.472 0.435 0.482Q0.425 0.491 0.425 0.507Q0.425 0.522 0.435 0.531Q0.444 0.541 0.459 0.541H0.500Q0.555 0.541 0.593 0.503Q0.630 0.466 0.630 0.410ZM0.512 0.436Q0.506 0.433 0.500 0.433Q0.490 0.433 0.482 0.439H0.500Q0.506 0.439 0.512 0.436ZM0.507 0.599Q0.507 0.582 0.494 0.570Q0.482 0.558 0.465 0.558Q0.447 0.558 0.435 0.570Q0.422 0.582 0.422 0.599Q0.422 0.617 0.435 0.629Q0.447 0.642 0.465 0.642Q0.482 0.642 0.495 0.629Q0.507 0.617 0.507 0.599Z" fill="black"/>
</svg>
