<svg xmlns="http://www.w3.org/2000/svg" viewBox="0 0 1 1" preserveAspectRatio="xMidYMid meet">
  <path d="M0.716 0.514Q0.716 0.604 0.653 0.667Q0.590 0.729 0.500 0.729Q0.409 0.729 0.347 0.667Q0.284 0.604 0.284 0.514Q0.284 0.501 0.286 0.488Q0.284 0.476 0.284 0.463Q0.284 0.372 0.347 0.310Q0.409 0.247 0.500 0.247Q0.591 0.247 0.653 0.310Q0.716 0.372 0.716 0.463Q0.716 0.476 0.714 0.489Q0.716 0.501 0.716 0.514ZM0.682 0.463Q0.682 0.386 0.630 0.333Q0.577 0.280 0.500 0.280Q0.423 0.280 0.370 0.333Q0.318 0.386 0.318 0.463Q0.318 0.540 0.370 0.593Q0.423 0.645 0.500 0.645Q0.577 0.645 0.630 0.593Q0.682 0.540 0.682 0.463ZM0.614 0.463Q0.614 0.498 0.594 0.527V0.463Q0.594 0.424 0.567 0.396Q0.539 0.369 0.500 0.369Q0.461 0.369 0.433 0.396Q0.406 0.424 0.406 0.463Q0.406 0.502 0.433 0.529Q0.461 0.557 0.500 0.557Q0.511 0.557 0.518 0.550Q0.525 0.543 0.525 0.532Q0.525 0.507 0.500 0.507Q0.482 0.507 0.469 0.494Q0.456 0.481 0.456 0.463Q0.456 0.444 0.469 0.431Q0.482 0.418 0.500 0.418Q0.518 0.418 0.531 0.431Q0.544 0.444 0.544 0.463V0.568Q0.523 0.576 0.500 0.576Q0.452 0.576 0.419 0.544Q0.386 0.511 0.386 0.463Q0.386 0.414 0.419 0.381Q0.451 0.349 0.500 0.349Q0.548 0.349 0.581 0.382Q0.614 0.414 0.614 0.463Z" fill="black"/>
</svg>
