<svg xmlns="http://www.w3.org/2000/svg" viewBox="0 0 1 1" preserveAspectRatio="xMidYMid meet">
  <path d="M0.679 0.514Q0.679 0.604 0.617 0.667Q0.555 0.729 0.464 0.729Q0.442 0.729 0.425 0.718Q0.409 0.728 0.388 0.728Q0.359 0.728 0.340 0.709Q0.321 0.690 0.321 0.661V0.314Q0.321 0.287 0.340 0.267Q0.360 0.247 0.388 0.247H0.464Q0.555 0.247 0.617 0.309Q0.679 0.372 0.679 0.463Q0.679 0.476 0.678 0.489Q0.679 0.501 0.679 0.514ZM0.646 0.463Q0.646 0.385 0.594 0.333Q0.541 0.280 0.464 0.280H0.388Q0.374 0.280 0.364 0.291Q0.354 0.301 0.354 0.314V0.610Q0.354 0.625 0.363 0.635Q0.373 0.644 0.388 0.644Q0.403 0.644 0.413 0.635Q0.423 0.625 0.423 0.610V0.349H0.464Q0.513 0.349 0.545 0.381Q0.577 0.414 0.577 0.463Q0.577 0.511 0.545 0.544Q0.512 0.576 0.464 0.576Q0.449 0.576 0.439 0.586Q0.430 0.596 0.430 0.611Q0.430 0.626 0.439 0.636Q0.449 0.645 0.464 0.645Q0.541 0.645 0.594 0.593Q0.646 0.540 0.646 0.463ZM0.541 0.488Q0.533 0.463 0.512 0.448Q0.492 0.433 0.464 0.433H0.456V0.544Q0.460 0.543 0.464 0.543Q0.491 0.543 0.512 0.528Q0.533 0.513 0.541 0.488Z" fill="black"/>
</svg>
