<svg xmlns="http://www.w3.org/2000/svg" viewBox="0 0 1 1" preserveAspectRatio="xMidYMid meet">
  <path d="M0.629 0.524Q0.629 0.553 0.610 0.572Q0.590 0.592 0.561 0.592H0.506V0.661Q0.506 0.690 0.486 0.709Q0.467 0.728 0.438 0.728Q0.409 0.728 0.390 0.709Q0.371 0.690 0.371 0.661V0.390Q0.371 0.330 0.412 0.288Q0.453 0.247 0.514 0.247H0.561Q0.590 0.247 0.610 0.266Q0.629 0.285 0.629 0.314Q0.629 0.328 0.625 0.340Q0.629 0.352 0.629 0.365Q0.629 0.400 0.604 0.419Q0.629 0.439 0.629 0.473Q0.629 0.487 0.625 0.498Q0.629 0.511 0.629 0.524ZM0.596 0.473Q0.596 0.458 0.586 0.448Q0.577 0.439 0.561 0.439H0.473V0.390Q0.473 0.373 0.485 0.361Q0.497 0.349 0.514 0.349H0.561Q0.577 0.349 0.586 0.339Q0.596 0.330 0.596 0.314Q0.596 0.299 0.586 0.290Q0.577 0.280 0.561 0.280H0.514Q0.467 0.280 0.435 0.312Q0.404 0.343 0.404 0.390V0.610Q0.404 0.625 0.413 0.635Q0.423 0.644 0.438 0.644Q0.453 0.644 0.463 0.635Q0.473 0.625 0.473 0.610V0.508H0.561Q0.577 0.508 0.586 0.498Q0.596 0.488 0.596 0.473Z" fill="black"/>
</svg>
