<svg xmlns="http://www.w3.org/2000/svg" viewBox="0 0 1 1" preserveAspectRatio="xMidYMid meet">
  <path d="M0.716 0.514Q0.716 0.604 0.653 0.667Q0.591 0.729 0.500 0.729Q0.409 0.729 0.347 0.667Q0.284 0.604 0.284 0.514Q0.284 0.501 0.286 0.488Q0.284 0.476 0.284 0.463Q0.284 0.372 0.347 0.310Q0.409 0.247 0.500 0.247Q0.555 0.247 0.612 0.278Q0.679 0.314 0.679 0.364Q0.679 0.377 0.674 0.389Q0.676 0.396 0.677 0.402Q0.716 0.421 0.716 0.463Q0.716 0.480 0.713 0.496Q0.716 0.505 0.716 0.514ZM0.682 0.463Q0.682 0.449 0.672 0.439Q0.662 0.428 0.648 0.428H0.539Q0.524 0.428 0.515 0.438Q0.505 0.447 0.505 0.462Q0.505 0.478 0.515 0.487Q0.524 0.497 0.539 0.497H0.609Q0.597 0.533 0.568 0.555Q0.538 0.576 0.500 0.576Q0.452 0.576 0.419 0.544Q0.386 0.511 0.386 0.463Q0.386 0.414 0.419 0.381Q0.451 0.349 0.500 0.349Q0.551 0.349 0.585 0.387Q0.596 0.399 0.610 0.399Q0.624 0.399 0.635 0.389Q0.646 0.378 0.646 0.364Q0.646 0.352 0.636 0.341Q0.581 0.280 0.500 0.280Q0.423 0.280 0.370 0.333Q0.318 0.386 0.318 0.463Q0.318 0.540 0.370 0.593Q0.423 0.645 0.500 0.645Q0.577 0.645 0.630 0.593Q0.682 0.540 0.682 0.463ZM0.477 0.540Q0.472 0.528 0.472 0.513Q0.472 0.500 0.477 0.488Q0.472 0.476 0.472 0.462Q0.472 0.449 0.477 0.436Q0.436 0.448 0.423 0.488Q0.436 0.529 0.477 0.540Z" fill="black"/>
</svg>
