<svg xmlns="http://www.w3.org/2000/svg" viewBox="0 0 1 1" preserveAspectRatio="xMidYMid meet">
  <path d="M0.711 0.773Q0.711 0.802 0.692 0.821Q0.672 0.840 0.643 0.840Q0.582 0.840 0.540 0.800Q0.497 0.759 0.497 0.697V0.566H0.424V0.661Q0.424 0.690 0.404 0.709Q0.385 0.728 0.356 0.728Q0.327 0.728 0.308 0.709Q0.289 0.690 0.289 0.661V0.314Q0.289 0.285 0.308 0.266Q0.327 0.247 0.356 0.247Q0.385 0.247 0.404 0.266Q0.424 0.285 0.424 0.314V0.380H0.497V0.314Q0.497 0.285 0.516 0.266Q0.535 0.247 0.564 0.247Q0.594 0.247 0.613 0.266Q0.632 0.285 0.632 0.314V0.646Q0.632 0.654 0.640 0.654Q0.671 0.654 0.691 0.673Q0.711 0.692 0.711 0.722Q0.711 0.736 0.707 0.748Q0.711 0.759 0.711 0.773ZM0.678 0.722Q0.678 0.707 0.668 0.697Q0.659 0.688 0.643 0.688H0.640Q0.623 0.688 0.611 0.676Q0.599 0.664 0.599 0.646V0.314Q0.599 0.299 0.589 0.290Q0.580 0.280 0.564 0.280Q0.549 0.280 0.540 0.290Q0.530 0.299 0.530 0.314V0.413H0.391V0.314Q0.391 0.299 0.381 0.290Q0.371 0.280 0.356 0.280Q0.341 0.280 0.331 0.290Q0.322 0.299 0.322 0.314V0.610Q0.322 0.625 0.331 0.635Q0.341 0.644 0.356 0.644Q0.371 0.644 0.381 0.635Q0.391 0.625 0.391 0.610V0.482H0.530V0.646Q0.530 0.693 0.562 0.725Q0.594 0.756 0.640 0.756H0.643Q0.659 0.756 0.668 0.747Q0.678 0.738 0.678 0.722Z" fill="black"/>
</svg>
