<svg xmlns="http://www.w3.org/2000/svg" viewBox="0 0 1 1" preserveAspectRatio="xMidYMid meet">
  <path d="M0.568 0.661Q0.568 0.690 0.548 0.709Q0.528 0.728 0.500 0.728Q0.471 0.728 0.452 0.709Q0.432 0.690 0.432 0.661V0.314Q0.432 0.285 0.452 0.266Q0.471 0.247 0.500 0.247Q0.529 0.247 0.548 0.266Q0.568 0.285 0.568 0.314ZM0.534 0.610V0.314Q0.534 0.299 0.525 0.290Q0.515 0.280 0.500 0.280Q0.484 0.280 0.475 0.290Q0.466 0.299 0.466 0.314V0.610Q0.466 0.625 0.475 0.635Q0.484 0.644 0.500 0.644Q0.515 0.644 0.525 0.635Q0.534 0.625 0.534 0.610Z" fill="black"/>
</svg>
