<svg xmlns="http://www.w3.org/2000/svg" viewBox="0 0 1 1" preserveAspectRatio="xMidYMid meet">
  <path d="M0.646 0.584Q0.646 0.645 0.603 0.687Q0.561 0.729 0.500 0.729Q0.439 0.729 0.397 0.687Q0.354 0.645 0.354 0.584Q0.354 0.573 0.358 0.563Q0.354 0.548 0.354 0.533Q0.354 0.504 0.374 0.484Q0.393 0.465 0.422 0.465Q0.451 0.465 0.470 0.484Q0.490 0.504 0.490 0.533Q0.490 0.543 0.500 0.543Q0.510 0.543 0.510 0.533V0.314Q0.510 0.285 0.530 0.266Q0.549 0.247 0.578 0.247Q0.607 0.247 0.626 0.266Q0.646 0.285 0.646 0.314ZM0.612 0.533V0.314Q0.612 0.299 0.603 0.290Q0.593 0.280 0.578 0.280Q0.562 0.280 0.553 0.290Q0.544 0.299 0.544 0.314V0.533Q0.544 0.551 0.531 0.564Q0.518 0.576 0.500 0.576Q0.481 0.576 0.469 0.564Q0.456 0.551 0.456 0.533Q0.456 0.517 0.447 0.508Q0.438 0.498 0.422 0.498Q0.407 0.498 0.397 0.508Q0.388 0.517 0.388 0.533Q0.388 0.581 0.420 0.613Q0.452 0.645 0.500 0.645Q0.548 0.645 0.580 0.613Q0.612 0.581 0.612 0.533Z" fill="black"/>
</svg>
