<svg xmlns="http://www.w3.org/2000/svg" viewBox="0 0 1 1" preserveAspectRatio="xMidYMid meet">
  <path d="M0.616 0.661Q0.616 0.690 0.597 0.709Q0.578 0.728 0.549 0.728H0.527Q0.466 0.728 0.425 0.687Q0.384 0.646 0.384 0.585V0.314Q0.384 0.285 0.403 0.266Q0.422 0.247 0.451 0.247Q0.480 0.247 0.499 0.266Q0.519 0.285 0.519 0.314V0.534Q0.519 0.542 0.527 0.542H0.549Q0.578 0.542 0.597 0.562Q0.616 0.581 0.616 0.610Q0.616 0.624 0.612 0.636Q0.616 0.648 0.616 0.661ZM0.583 0.610Q0.583 0.595 0.574 0.585Q0.564 0.575 0.549 0.575H0.527Q0.509 0.575 0.497 0.563Q0.485 0.551 0.485 0.534V0.314Q0.485 0.299 0.476 0.290Q0.466 0.280 0.451 0.280Q0.436 0.280 0.426 0.290Q0.417 0.299 0.417 0.314V0.534Q0.417 0.582 0.448 0.613Q0.479 0.644 0.527 0.644H0.549Q0.564 0.644 0.574 0.635Q0.583 0.625 0.583 0.610Z" fill="black"/>
</svg>
