<svg xmlns="http://www.w3.org/2000/svg" viewBox="0 0 1 1" preserveAspectRatio="xMidYMid meet">
  <path d="M0.753 0.773Q0.753 0.802 0.734 0.821Q0.715 0.840 0.686 0.840Q0.624 0.840 0.582 0.799Q0.540 0.758 0.540 0.697V0.441Q0.540 0.434 0.533 0.433V0.661Q0.533 0.690 0.514 0.709Q0.494 0.728 0.465 0.728Q0.436 0.728 0.417 0.709Q0.398 0.690 0.398 0.661V0.441Q0.398 0.433 0.390 0.433Q0.382 0.433 0.382 0.441V0.661Q0.382 0.690 0.363 0.709Q0.344 0.728 0.314 0.728Q0.285 0.728 0.266 0.709Q0.247 0.690 0.247 0.661V0.390Q0.247 0.330 0.288 0.289Q0.330 0.247 0.390 0.247Q0.429 0.247 0.461 0.266Q0.493 0.247 0.533 0.247Q0.593 0.247 0.634 0.289Q0.675 0.330 0.675 0.390V0.646Q0.675 0.654 0.683 0.654Q0.714 0.654 0.733 0.674Q0.753 0.693 0.753 0.722Q0.753 0.735 0.749 0.748Q0.753 0.759 0.753 0.773ZM0.720 0.722Q0.720 0.707 0.710 0.697Q0.701 0.688 0.686 0.688H0.683Q0.666 0.688 0.654 0.676Q0.642 0.664 0.642 0.646V0.390Q0.642 0.344 0.611 0.312Q0.580 0.280 0.533 0.280Q0.492 0.280 0.461 0.307Q0.430 0.280 0.390 0.280Q0.343 0.280 0.311 0.312Q0.280 0.344 0.280 0.390V0.610Q0.280 0.625 0.290 0.635Q0.299 0.644 0.314 0.644Q0.330 0.644 0.339 0.635Q0.349 0.625 0.349 0.610V0.390Q0.349 0.373 0.361 0.361Q0.373 0.349 0.390 0.349Q0.407 0.349 0.419 0.361Q0.431 0.374 0.431 0.390V0.610Q0.431 0.625 0.441 0.635Q0.450 0.644 0.465 0.644Q0.481 0.644 0.490 0.635Q0.500 0.625 0.500 0.610V0.365Q0.512 0.349 0.533 0.349Q0.549 0.349 0.561 0.361Q0.573 0.374 0.573 0.390V0.646Q0.573 0.693 0.605 0.725Q0.637 0.756 0.683 0.756H0.686Q0.701 0.756 0.710 0.747Q0.720 0.738 0.720 0.722Z" fill="black"/>
</svg>
