<svg xmlns="http://www.w3.org/2000/svg" viewBox="0 0 1 1" preserveAspectRatio="xMidYMid meet">
  <path d="M0.663 0.461Q0.663 0.530 0.616 0.577Q0.569 0.625 0.500 0.625Q0.485 0.625 0.472 0.619V0.661Q0.472 0.690 0.452 0.709Q0.433 0.728 0.404 0.728Q0.375 0.728 0.356 0.709Q0.337 0.690 0.337 0.661V0.410Q0.337 0.341 0.384 0.294Q0.430 0.247 0.500 0.247Q0.569 0.247 0.616 0.294Q0.663 0.341 0.663 0.410Q0.663 0.424 0.661 0.436Q0.663 0.449 0.663 0.461ZM0.512 0.436Q0.506 0.433 0.500 0.433Q0.488 0.433 0.479 0.442Q0.491 0.441 0.512 0.436ZM0.630 0.410Q0.630 0.355 0.593 0.318Q0.555 0.280 0.500 0.280Q0.444 0.280 0.407 0.318Q0.370 0.355 0.370 0.410V0.610Q0.370 0.625 0.379 0.635Q0.389 0.644 0.404 0.644Q0.419 0.644 0.429 0.635Q0.439 0.625 0.439 0.610V0.410Q0.439 0.385 0.456 0.367Q0.474 0.349 0.500 0.349Q0.525 0.349 0.543 0.367Q0.561 0.385 0.561 0.410Q0.561 0.436 0.543 0.454Q0.525 0.472 0.500 0.472Q0.484 0.472 0.475 0.481Q0.466 0.491 0.466 0.506Q0.466 0.521 0.475 0.531Q0.484 0.541 0.500 0.541Q0.555 0.541 0.593 0.503Q0.630 0.466 0.630 0.410Z" fill="black"/>
</svg>
