<svg xmlns="http://www.w3.org/2000/svg" viewBox="0 0 1 1" preserveAspectRatio="xMidYMid meet">
  <path d="M0.716 0.514Q0.716 0.583 0.676 0.639Q0.636 0.696 0.571 0.718L0.570 0.720Q0.570 0.748 0.569 0.776Q0.566 0.809 0.554 0.825Q0.538 0.847 0.503 0.847Q0.475 0.847 0.455 0.827Q0.436 0.808 0.436 0.779V0.689Q0.422 0.696 0.406 0.696Q0.382 0.696 0.363 0.680Q0.284 0.616 0.284 0.514Q0.284 0.501 0.286 0.489Q0.284 0.476 0.284 0.463Q0.284 0.372 0.347 0.310Q0.409 0.247 0.500 0.247Q0.591 0.247 0.653 0.310Q0.716 0.372 0.716 0.463Q0.716 0.476 0.714 0.488Q0.716 0.501 0.716 0.514ZM0.576 0.488Q0.565 0.451 0.528 0.438Q0.558 0.467 0.567 0.508Q0.573 0.498 0.576 0.488ZM0.682 0.463Q0.682 0.386 0.630 0.333Q0.577 0.280 0.500 0.280Q0.423 0.280 0.370 0.333Q0.318 0.386 0.318 0.463Q0.318 0.549 0.384 0.603Q0.394 0.612 0.406 0.612Q0.420 0.612 0.430 0.601Q0.441 0.591 0.441 0.576Q0.441 0.561 0.428 0.550Q0.386 0.516 0.386 0.463Q0.386 0.414 0.419 0.381Q0.451 0.349 0.500 0.349Q0.548 0.349 0.581 0.382Q0.614 0.414 0.614 0.463Q0.614 0.499 0.593 0.529Q0.572 0.559 0.537 0.570V0.541Q0.537 0.494 0.506 0.462Q0.475 0.431 0.428 0.431Q0.412 0.431 0.403 0.440Q0.393 0.450 0.393 0.465Q0.393 0.481 0.403 0.490Q0.413 0.499 0.429 0.499Q0.446 0.499 0.457 0.512Q0.468 0.524 0.468 0.541L0.469 0.728Q0.469 0.743 0.479 0.753Q0.488 0.762 0.503 0.762Q0.518 0.762 0.528 0.753Q0.538 0.743 0.538 0.728L0.537 0.641Q0.601 0.628 0.642 0.578Q0.682 0.529 0.682 0.463Z" fill="black"/>
</svg>
