<svg xmlns="http://www.w3.org/2000/svg" viewBox="0 0 1 1" preserveAspectRatio="xMidYMid meet">
  <path d="M0.663 0.461Q0.663 0.520 0.627 0.565Q0.643 0.584 0.643 0.610Q0.643 0.623 0.638 0.636Q0.643 0.647 0.643 0.661Q0.643 0.690 0.624 0.709Q0.604 0.728 0.575 0.728Q0.510 0.728 0.469 0.682Q0.462 0.703 0.444 0.716Q0.427 0.728 0.404 0.728Q0.375 0.728 0.356 0.709Q0.337 0.690 0.337 0.661V0.410Q0.337 0.341 0.384 0.294Q0.430 0.247 0.500 0.247Q0.569 0.247 0.616 0.294Q0.663 0.341 0.663 0.410Q0.663 0.423 0.661 0.435Q0.663 0.448 0.663 0.461ZM0.512 0.436Q0.506 0.433 0.500 0.433Q0.487 0.433 0.479 0.442Q0.491 0.441 0.512 0.436ZM0.630 0.410Q0.630 0.355 0.593 0.318Q0.555 0.280 0.500 0.280Q0.444 0.280 0.407 0.318Q0.370 0.355 0.370 0.410V0.610Q0.370 0.625 0.379 0.635Q0.389 0.644 0.404 0.644Q0.419 0.644 0.429 0.635Q0.439 0.625 0.439 0.610V0.410Q0.439 0.385 0.456 0.367Q0.474 0.349 0.500 0.349Q0.525 0.349 0.543 0.367Q0.561 0.385 0.561 0.410Q0.561 0.436 0.543 0.454Q0.525 0.472 0.500 0.472Q0.486 0.472 0.476 0.482Q0.466 0.492 0.466 0.506V0.534Q0.466 0.582 0.497 0.613Q0.528 0.644 0.575 0.644Q0.590 0.644 0.600 0.635Q0.610 0.625 0.610 0.610Q0.610 0.594 0.600 0.585Q0.590 0.575 0.574 0.575Q0.558 0.575 0.547 0.564Q0.535 0.552 0.534 0.536Q0.577 0.524 0.604 0.489Q0.630 0.455 0.630 0.410Z" fill="black"/>
</svg>
