<svg xmlns="http://www.w3.org/2000/svg" viewBox="0 0 1 1" preserveAspectRatio="xMidYMid meet">
  <path d="M0.633 0.365Q0.633 0.394 0.615 0.413Q0.597 0.431 0.569 0.433L0.568 0.596Q0.567 0.651 0.529 0.690Q0.490 0.729 0.435 0.729Q0.405 0.729 0.386 0.710Q0.367 0.691 0.367 0.662Q0.367 0.648 0.372 0.636Q0.367 0.624 0.367 0.611Q0.367 0.582 0.386 0.563Q0.405 0.543 0.433 0.543L0.432 0.431Q0.432 0.424 0.432 0.416L0.432 0.380Q0.431 0.325 0.470 0.286Q0.509 0.247 0.565 0.247Q0.594 0.247 0.613 0.266Q0.633 0.285 0.633 0.314Q0.633 0.328 0.628 0.340Q0.633 0.352 0.633 0.365ZM0.600 0.314Q0.600 0.299 0.590 0.290Q0.580 0.280 0.565 0.280Q0.523 0.280 0.494 0.309Q0.465 0.338 0.465 0.380L0.466 0.545Q0.466 0.558 0.457 0.567Q0.448 0.576 0.435 0.576Q0.419 0.576 0.410 0.586Q0.400 0.595 0.400 0.611Q0.400 0.626 0.410 0.635Q0.419 0.645 0.435 0.645Q0.476 0.645 0.505 0.616Q0.534 0.587 0.534 0.545L0.534 0.380Q0.534 0.352 0.567 0.349Q0.600 0.346 0.600 0.314Z" fill="black"/>
</svg>
