<svg xmlns="http://www.w3.org/2000/svg" viewBox="0 0 1 1" preserveAspectRatio="xMidYMid meet">
  <path d="M0.648 0.365Q0.648 0.394 0.629 0.414Q0.610 0.433 0.581 0.433H0.566V0.661Q0.566 0.690 0.547 0.709Q0.528 0.728 0.499 0.728Q0.470 0.728 0.451 0.709Q0.431 0.690 0.431 0.661V0.433H0.419Q0.390 0.433 0.371 0.414Q0.352 0.394 0.352 0.365Q0.352 0.352 0.356 0.340Q0.352 0.328 0.352 0.314Q0.352 0.285 0.371 0.266Q0.390 0.247 0.419 0.247H0.581Q0.610 0.247 0.629 0.266Q0.648 0.285 0.648 0.314Q0.648 0.328 0.644 0.340Q0.648 0.352 0.648 0.365ZM0.615 0.314Q0.615 0.299 0.606 0.290Q0.596 0.280 0.581 0.280H0.419Q0.404 0.280 0.394 0.290Q0.385 0.299 0.385 0.314Q0.385 0.330 0.394 0.339Q0.404 0.349 0.419 0.349H0.464V0.610Q0.464 0.625 0.474 0.635Q0.484 0.644 0.499 0.644Q0.514 0.644 0.524 0.635Q0.533 0.625 0.533 0.610V0.349H0.581Q0.596 0.349 0.606 0.339Q0.615 0.330 0.615 0.314Z" fill="black"/>
</svg>
