<svg xmlns="http://www.w3.org/2000/svg" viewBox="0 0 1 1" preserveAspectRatio="xMidYMid meet">
  <path d="M0.670 0.364Q0.670 0.375 0.666 0.387L0.564 0.683Q0.546 0.734 0.500 0.734Q0.454 0.734 0.436 0.683L0.334 0.387Q0.330 0.376 0.330 0.364Q0.330 0.351 0.335 0.339L0.334 0.336Q0.330 0.325 0.330 0.313Q0.330 0.285 0.350 0.266Q0.371 0.247 0.399 0.247Q0.431 0.247 0.454 0.278Q0.470 0.301 0.483 0.345Q0.492 0.374 0.500 0.404Q0.508 0.374 0.517 0.345Q0.530 0.301 0.546 0.278Q0.569 0.247 0.601 0.247Q0.629 0.247 0.650 0.266Q0.670 0.285 0.670 0.313Q0.670 0.324 0.666 0.336L0.665 0.339Q0.670 0.351 0.670 0.364ZM0.637 0.313Q0.637 0.299 0.626 0.290Q0.616 0.280 0.601 0.280Q0.578 0.280 0.570 0.303L0.500 0.505L0.430 0.303Q0.422 0.280 0.399 0.280Q0.384 0.280 0.374 0.290Q0.363 0.299 0.363 0.313Q0.363 0.320 0.365 0.326L0.467 0.621Q0.478 0.650 0.500 0.650Q0.522 0.650 0.533 0.621L0.635 0.326Q0.637 0.318 0.637 0.313Z" fill="black"/>
</svg>
