<svg xmlns="http://www.w3.org/2000/svg" viewBox="0 0 1 1" preserveAspectRatio="xMidYMid meet">
  <path d="M0.714 0.585Q0.714 0.645 0.673 0.687Q0.631 0.728 0.571 0.728Q0.532 0.728 0.500 0.709Q0.468 0.728 0.429 0.728Q0.369 0.728 0.327 0.687Q0.286 0.646 0.286 0.585V0.314Q0.286 0.285 0.305 0.266Q0.325 0.247 0.354 0.247Q0.383 0.247 0.402 0.266Q0.421 0.285 0.421 0.314V0.534Q0.421 0.541 0.428 0.542V0.314Q0.428 0.285 0.447 0.266Q0.466 0.247 0.495 0.247Q0.524 0.247 0.544 0.266Q0.563 0.285 0.563 0.314V0.534Q0.563 0.542 0.571 0.542Q0.579 0.542 0.579 0.534V0.314Q0.579 0.285 0.598 0.266Q0.617 0.247 0.646 0.247Q0.675 0.247 0.695 0.266Q0.714 0.285 0.714 0.314ZM0.681 0.534V0.314Q0.681 0.299 0.671 0.290Q0.662 0.280 0.646 0.280Q0.631 0.280 0.622 0.290Q0.612 0.299 0.612 0.314V0.534Q0.612 0.551 0.600 0.563Q0.588 0.575 0.571 0.575Q0.554 0.575 0.542 0.563Q0.530 0.551 0.530 0.534V0.314Q0.530 0.299 0.520 0.290Q0.511 0.280 0.495 0.280Q0.480 0.280 0.470 0.290Q0.461 0.299 0.461 0.314V0.561Q0.449 0.575 0.429 0.575Q0.412 0.575 0.400 0.563Q0.388 0.551 0.388 0.534V0.314Q0.388 0.299 0.378 0.290Q0.369 0.280 0.354 0.280Q0.338 0.280 0.329 0.290Q0.319 0.299 0.319 0.314V0.534Q0.319 0.582 0.350 0.613Q0.382 0.644 0.429 0.644Q0.469 0.644 0.500 0.618Q0.531 0.644 0.571 0.644Q0.618 0.644 0.649 0.613Q0.681 0.581 0.681 0.534Z" fill="black"/>
</svg>
