<svg xmlns="http://www.w3.org/2000/svg" viewBox="0 0 1 1" preserveAspectRatio="xMidYMid meet">
  <path d="M0.643 0.661Q0.643 0.690 0.624 0.709Q0.605 0.728 0.576 0.728Q0.547 0.728 0.528 0.709Q0.508 0.690 0.508 0.661V0.592Q0.508 0.584 0.500 0.584Q0.492 0.584 0.492 0.592V0.661Q0.492 0.690 0.473 0.709Q0.453 0.728 0.424 0.728Q0.395 0.728 0.376 0.709Q0.357 0.690 0.357 0.661V0.541Q0.357 0.513 0.366 0.489Q0.357 0.465 0.357 0.437V0.314Q0.357 0.285 0.376 0.266Q0.395 0.247 0.424 0.247Q0.453 0.247 0.473 0.266Q0.492 0.285 0.492 0.314V0.386Q0.492 0.394 0.500 0.394Q0.508 0.394 0.508 0.386V0.314Q0.508 0.286 0.528 0.267Q0.547 0.247 0.576 0.247Q0.605 0.247 0.624 0.266Q0.643 0.285 0.643 0.314V0.437Q0.643 0.465 0.634 0.489Q0.643 0.513 0.643 0.541ZM0.610 0.610V0.541Q0.610 0.495 0.578 0.463Q0.610 0.431 0.610 0.386V0.314Q0.610 0.299 0.600 0.290Q0.591 0.280 0.576 0.280Q0.561 0.280 0.551 0.290Q0.541 0.300 0.541 0.314V0.386Q0.541 0.403 0.529 0.415Q0.517 0.427 0.500 0.427Q0.483 0.427 0.471 0.415Q0.459 0.404 0.459 0.386V0.314Q0.459 0.299 0.449 0.290Q0.440 0.280 0.424 0.280Q0.409 0.280 0.400 0.290Q0.390 0.299 0.390 0.314V0.386Q0.390 0.431 0.422 0.463Q0.390 0.495 0.390 0.541V0.610Q0.390 0.625 0.400 0.635Q0.409 0.644 0.424 0.644Q0.440 0.644 0.449 0.635Q0.459 0.625 0.459 0.610V0.541Q0.459 0.523 0.471 0.511Q0.483 0.499 0.500 0.499Q0.517 0.499 0.529 0.512Q0.541 0.524 0.541 0.541V0.610Q0.541 0.625 0.551 0.635Q0.561 0.644 0.576 0.644Q0.591 0.644 0.600 0.635Q0.610 0.625 0.610 0.610Z" fill="black"/>
</svg>
