<svg xmlns="http://www.w3.org/2000/svg" viewBox="0 0 1 1" preserveAspectRatio="xMidYMid meet">
  <path d="M0.643 0.585Q0.643 0.645 0.602 0.687Q0.560 0.728 0.500 0.728Q0.440 0.728 0.398 0.687Q0.357 0.646 0.357 0.585V0.580Q0.357 0.570 0.360 0.561Q0.357 0.548 0.357 0.534V0.529Q0.357 0.508 0.368 0.491Q0.357 0.464 0.357 0.434V0.314Q0.357 0.285 0.376 0.266Q0.395 0.247 0.424 0.247Q0.453 0.247 0.473 0.266Q0.492 0.285 0.492 0.314V0.383Q0.492 0.391 0.500 0.391Q0.508 0.391 0.508 0.383V0.314Q0.508 0.286 0.528 0.267Q0.547 0.247 0.576 0.247Q0.605 0.247 0.624 0.266Q0.643 0.285 0.643 0.314ZM0.610 0.534V0.314Q0.610 0.299 0.600 0.290Q0.591 0.280 0.576 0.280Q0.561 0.280 0.551 0.290Q0.541 0.300 0.541 0.314V0.383Q0.540 0.390 0.538 0.395Q0.534 0.408 0.529 0.412Q0.518 0.425 0.500 0.425Q0.483 0.425 0.471 0.413Q0.459 0.401 0.459 0.383V0.314Q0.459 0.299 0.449 0.290Q0.440 0.280 0.424 0.280Q0.409 0.280 0.400 0.290Q0.390 0.299 0.390 0.314V0.383Q0.390 0.431 0.422 0.462Q0.453 0.493 0.500 0.493Q0.522 0.493 0.541 0.485V0.534Q0.541 0.551 0.529 0.563Q0.518 0.575 0.500 0.575Q0.483 0.575 0.471 0.563Q0.459 0.551 0.459 0.534V0.529Q0.459 0.514 0.449 0.504Q0.440 0.495 0.424 0.495Q0.409 0.495 0.400 0.504Q0.390 0.514 0.390 0.529V0.534Q0.390 0.582 0.422 0.613Q0.453 0.644 0.500 0.644Q0.547 0.644 0.578 0.613Q0.610 0.581 0.610 0.534Z" fill="black"/>
</svg>
