<svg xmlns="http://www.w3.org/2000/svg" viewBox="0 0 1 1" preserveAspectRatio="xMidYMid meet">
  <path d="M0.616 0.763Q0.616 0.792 0.597 0.811Q0.578 0.830 0.549 0.830H0.527Q0.467 0.830 0.425 0.789Q0.384 0.747 0.384 0.687V0.333Q0.384 0.273 0.425 0.231Q0.467 0.190 0.527 0.190H0.549Q0.578 0.190 0.597 0.209Q0.616 0.228 0.616 0.257Q0.616 0.271 0.612 0.283Q0.616 0.295 0.616 0.308Q0.616 0.337 0.597 0.357Q0.578 0.376 0.549 0.376H0.527Q0.519 0.376 0.519 0.384V0.636Q0.519 0.644 0.527 0.644H0.549Q0.578 0.644 0.597 0.664Q0.616 0.683 0.616 0.712Q0.616 0.726 0.612 0.738Q0.616 0.750 0.616 0.763ZM0.583 0.712Q0.583 0.697 0.574 0.687Q0.564 0.677 0.549 0.677H0.527Q0.509 0.677 0.497 0.665Q0.485 0.653 0.485 0.636V0.333Q0.485 0.315 0.497 0.304Q0.509 0.292 0.527 0.292H0.549Q0.564 0.292 0.574 0.282Q0.583 0.273 0.583 0.257Q0.583 0.242 0.574 0.232Q0.564 0.223 0.549 0.223H0.527Q0.480 0.223 0.448 0.254Q0.417 0.286 0.417 0.333V0.636Q0.417 0.683 0.448 0.715Q0.480 0.746 0.527 0.746H0.549Q0.564 0.746 0.574 0.737Q0.583 0.727 0.583 0.712Z" fill="black"/>
</svg>
