<svg xmlns="http://www.w3.org/2000/svg" viewBox="0 0 1 1" preserveAspectRatio="xMidYMid meet">
  <path d="M0.636 0.715Q0.636 0.743 0.616 0.762Q0.595 0.781 0.567 0.781Q0.521 0.781 0.505 0.736L0.368 0.353Q0.364 0.341 0.364 0.329Q0.364 0.315 0.369 0.304L0.368 0.302Q0.364 0.291 0.364 0.278Q0.364 0.249 0.384 0.230Q0.404 0.211 0.433 0.211Q0.479 0.211 0.495 0.256L0.632 0.640Q0.636 0.651 0.636 0.664Q0.636 0.677 0.631 0.689L0.632 0.691Q0.636 0.702 0.636 0.715ZM0.603 0.664Q0.603 0.656 0.601 0.651L0.464 0.268Q0.456 0.244 0.433 0.244Q0.418 0.244 0.407 0.254Q0.397 0.263 0.397 0.278Q0.397 0.285 0.399 0.291L0.536 0.674Q0.544 0.697 0.567 0.697Q0.582 0.697 0.592 0.688Q0.603 0.678 0.603 0.664Z" fill="black"/>
</svg>
