<svg xmlns="http://www.w3.org/2000/svg" viewBox="0 0 1 1" preserveAspectRatio="xMidYMid meet">
  <path d="M0.617 0.687Q0.617 0.747 0.575 0.789Q0.534 0.830 0.473 0.830H0.451Q0.422 0.830 0.403 0.811Q0.383 0.792 0.383 0.763Q0.383 0.750 0.388 0.738Q0.383 0.725 0.383 0.712Q0.383 0.683 0.403 0.664Q0.422 0.644 0.451 0.644H0.473Q0.482 0.644 0.482 0.636V0.384Q0.482 0.376 0.473 0.376H0.451Q0.422 0.376 0.403 0.357Q0.383 0.337 0.383 0.308Q0.383 0.295 0.388 0.283Q0.383 0.271 0.383 0.257Q0.383 0.228 0.403 0.209Q0.422 0.190 0.451 0.190H0.473Q0.533 0.190 0.575 0.231Q0.617 0.273 0.617 0.333ZM0.584 0.636V0.333Q0.584 0.286 0.552 0.255Q0.520 0.223 0.473 0.223H0.451Q0.436 0.223 0.426 0.232Q0.416 0.242 0.416 0.257Q0.416 0.273 0.426 0.282Q0.436 0.292 0.451 0.292H0.473Q0.490 0.292 0.503 0.304Q0.515 0.316 0.515 0.333V0.636Q0.515 0.653 0.503 0.665Q0.491 0.677 0.473 0.677H0.451Q0.436 0.677 0.426 0.687Q0.416 0.697 0.416 0.712Q0.416 0.727 0.426 0.737Q0.436 0.746 0.451 0.746H0.473Q0.520 0.746 0.552 0.715Q0.584 0.683 0.584 0.636Z" fill="black"/>
</svg>
