<svg xmlns="http://www.w3.org/2000/svg" viewBox="0 0 1 1" preserveAspectRatio="xMidYMid meet">
  <path d="M0.618 0.418Q0.618 0.446 0.598 0.467Q0.577 0.487 0.549 0.487Q0.523 0.487 0.502 0.466H0.497Q0.477 0.487 0.450 0.487Q0.423 0.487 0.402 0.466Q0.382 0.446 0.382 0.418Q0.382 0.406 0.388 0.394Q0.382 0.381 0.382 0.367Q0.382 0.343 0.406 0.315Q0.416 0.304 0.450 0.274Q0.476 0.250 0.500 0.250Q0.523 0.250 0.554 0.277Q0.554 0.277 0.598 0.320Q0.618 0.340 0.618 0.367Q0.618 0.381 0.613 0.393Q0.618 0.405 0.618 0.418ZM0.585 0.367Q0.585 0.354 0.574 0.344Q0.535 0.305 0.528 0.299Q0.511 0.283 0.500 0.283Q0.489 0.283 0.472 0.299Q0.463 0.306 0.426 0.344Q0.415 0.354 0.415 0.367Q0.415 0.381 0.426 0.392Q0.437 0.403 0.450 0.403Q0.464 0.403 0.474 0.392L0.500 0.367L0.525 0.392Q0.536 0.403 0.549 0.403Q0.563 0.403 0.574 0.392Q0.585 0.382 0.585 0.367Z" fill="black"/>
</svg>
