<svg xmlns="http://www.w3.org/2000/svg" viewBox="0 0 1 1" preserveAspectRatio="xMidYMid meet">
  <path d="M0.663 0.656Q0.663 0.685 0.644 0.704Q0.625 0.724 0.596 0.724H0.405Q0.376 0.724 0.356 0.704Q0.337 0.685 0.337 0.656Q0.337 0.643 0.341 0.630Q0.337 0.618 0.337 0.605Q0.337 0.576 0.356 0.557Q0.376 0.538 0.405 0.538H0.596Q0.625 0.538 0.644 0.557Q0.663 0.576 0.663 0.605Q0.663 0.619 0.659 0.630Q0.663 0.643 0.663 0.656ZM0.630 0.605Q0.630 0.590 0.621 0.580Q0.611 0.571 0.596 0.571H0.405Q0.389 0.571 0.380 0.580Q0.370 0.590 0.370 0.605Q0.370 0.620 0.380 0.630Q0.389 0.640 0.405 0.640H0.596Q0.611 0.640 0.621 0.630Q0.630 0.620 0.630 0.605Z" fill="black"/>
</svg>
