<svg xmlns="http://www.w3.org/2000/svg" viewBox="0 0 1 1" preserveAspectRatio="xMidYMid meet">
  <path d="M0.587 0.434Q0.587 0.483 0.541 0.503Q0.527 0.509 0.512 0.509Q0.483 0.509 0.464 0.492Q0.449 0.479 0.437 0.452Q0.428 0.428 0.418 0.405Q0.413 0.391 0.413 0.376Q0.413 0.362 0.417 0.350Q0.413 0.338 0.413 0.325Q0.413 0.293 0.435 0.271Q0.456 0.250 0.488 0.250Q0.517 0.250 0.536 0.267Q0.550 0.279 0.563 0.306Q0.572 0.330 0.582 0.354Q0.587 0.367 0.587 0.383Q0.587 0.397 0.583 0.409Q0.587 0.420 0.587 0.434ZM0.554 0.383Q0.554 0.374 0.551 0.366L0.527 0.309Q0.516 0.283 0.488 0.283Q0.480 0.283 0.472 0.286Q0.446 0.297 0.446 0.325Q0.446 0.333 0.449 0.341L0.473 0.399Q0.484 0.425 0.512 0.425Q0.520 0.425 0.528 0.422Q0.554 0.410 0.554 0.383Z" fill="black"/>
</svg>
