<svg xmlns="http://www.w3.org/2000/svg" viewBox="0 0 1 1" preserveAspectRatio="xMidYMid meet">
  <path d="M0.663 0.565Q0.663 0.634 0.616 0.681Q0.568 0.728 0.500 0.728Q0.431 0.728 0.384 0.681Q0.337 0.634 0.337 0.565V0.314Q0.337 0.286 0.356 0.267Q0.375 0.247 0.404 0.247Q0.433 0.247 0.452 0.266Q0.472 0.285 0.472 0.314V0.356Q0.485 0.351 0.500 0.351Q0.569 0.351 0.616 0.398Q0.663 0.445 0.663 0.514Q0.663 0.528 0.661 0.540Q0.663 0.552 0.663 0.565ZM0.630 0.514Q0.630 0.459 0.593 0.421Q0.555 0.384 0.500 0.384Q0.484 0.384 0.475 0.393Q0.466 0.403 0.466 0.418Q0.466 0.434 0.475 0.443Q0.484 0.453 0.500 0.453Q0.525 0.453 0.543 0.471Q0.561 0.489 0.561 0.514Q0.561 0.540 0.543 0.558Q0.525 0.575 0.500 0.575Q0.474 0.575 0.456 0.558Q0.439 0.540 0.439 0.514V0.314Q0.439 0.299 0.429 0.290Q0.419 0.280 0.404 0.280Q0.389 0.280 0.379 0.290Q0.370 0.300 0.370 0.314V0.514Q0.370 0.569 0.407 0.607Q0.445 0.644 0.500 0.644Q0.555 0.644 0.593 0.607Q0.630 0.569 0.630 0.514ZM0.512 0.540Q0.507 0.537 0.496 0.536Q0.484 0.535 0.479 0.534Q0.488 0.542 0.500 0.542Q0.506 0.542 0.512 0.540Z" fill="black"/>
</svg>
