<svg xmlns="http://www.w3.org/2000/svg" viewBox="0 0 1 1" preserveAspectRatio="xMidYMid meet">
  <path d="M0.615 0.661Q0.615 0.690 0.596 0.709Q0.576 0.728 0.548 0.728Q0.479 0.728 0.432 0.681Q0.385 0.634 0.385 0.565Q0.385 0.552 0.387 0.540Q0.385 0.527 0.385 0.514Q0.385 0.445 0.431 0.398Q0.478 0.351 0.548 0.351Q0.577 0.351 0.596 0.370Q0.615 0.389 0.615 0.418Q0.615 0.432 0.611 0.444Q0.615 0.456 0.615 0.469Q0.615 0.498 0.596 0.518Q0.577 0.537 0.548 0.537Q0.541 0.537 0.535 0.540Q0.541 0.542 0.548 0.542Q0.577 0.542 0.596 0.562Q0.615 0.581 0.615 0.610Q0.615 0.624 0.611 0.636Q0.615 0.648 0.615 0.661ZM0.582 0.610Q0.582 0.595 0.573 0.585Q0.563 0.575 0.548 0.575Q0.522 0.575 0.504 0.558Q0.486 0.540 0.486 0.514Q0.486 0.489 0.504 0.471Q0.522 0.453 0.548 0.453Q0.563 0.453 0.573 0.443Q0.582 0.434 0.582 0.418Q0.582 0.403 0.573 0.393Q0.563 0.384 0.548 0.384Q0.492 0.384 0.455 0.421Q0.418 0.459 0.418 0.514Q0.418 0.569 0.455 0.607Q0.493 0.644 0.548 0.644Q0.563 0.644 0.573 0.635Q0.582 0.625 0.582 0.610Z" fill="black"/>
</svg>
