<svg xmlns="http://www.w3.org/2000/svg" viewBox="0 0 1 1" preserveAspectRatio="xMidYMid meet">
  <path d="M0.663 0.565Q0.663 0.634 0.616 0.681Q0.568 0.728 0.500 0.728Q0.431 0.728 0.384 0.681Q0.337 0.634 0.337 0.565Q0.337 0.552 0.339 0.540Q0.337 0.527 0.337 0.514Q0.337 0.445 0.384 0.398Q0.430 0.351 0.500 0.351Q0.515 0.351 0.528 0.356V0.314Q0.528 0.286 0.548 0.267Q0.567 0.247 0.596 0.247Q0.625 0.247 0.644 0.266Q0.663 0.285 0.663 0.314ZM0.630 0.514V0.314Q0.630 0.299 0.621 0.290Q0.611 0.280 0.596 0.280Q0.581 0.280 0.571 0.290Q0.561 0.300 0.561 0.314V0.514Q0.561 0.540 0.543 0.558Q0.525 0.575 0.500 0.575Q0.474 0.575 0.456 0.558Q0.439 0.540 0.439 0.514Q0.439 0.489 0.456 0.471Q0.474 0.453 0.500 0.453Q0.515 0.453 0.525 0.443Q0.534 0.434 0.534 0.418Q0.534 0.403 0.525 0.393Q0.515 0.384 0.500 0.384Q0.444 0.384 0.407 0.421Q0.370 0.459 0.370 0.514Q0.370 0.569 0.407 0.607Q0.445 0.644 0.500 0.644Q0.555 0.644 0.593 0.607Q0.630 0.569 0.630 0.514ZM0.520 0.534Q0.508 0.534 0.488 0.540Q0.493 0.542 0.500 0.542Q0.512 0.542 0.520 0.534Z" fill="black"/>
</svg>
