<svg xmlns="http://www.w3.org/2000/svg" viewBox="0 0 1 1" preserveAspectRatio="xMidYMid meet">
  <path d="M0.644 0.549Q0.644 0.578 0.625 0.597Q0.606 0.616 0.577 0.616H0.491V0.661Q0.491 0.690 0.472 0.709Q0.452 0.728 0.423 0.728Q0.394 0.728 0.375 0.709Q0.356 0.690 0.356 0.661V0.390Q0.356 0.330 0.397 0.288Q0.439 0.247 0.499 0.247Q0.559 0.247 0.601 0.289Q0.642 0.330 0.642 0.390V0.394Q0.642 0.404 0.639 0.413Q0.642 0.427 0.642 0.441V0.445Q0.642 0.458 0.638 0.469Q0.644 0.482 0.644 0.498Q0.644 0.512 0.639 0.523Q0.644 0.536 0.644 0.549ZM0.611 0.498Q0.611 0.483 0.601 0.473Q0.592 0.463 0.577 0.463H0.458V0.390Q0.458 0.373 0.470 0.361Q0.482 0.349 0.499 0.349Q0.517 0.349 0.528 0.361Q0.540 0.373 0.540 0.390V0.394Q0.540 0.409 0.550 0.419Q0.560 0.429 0.575 0.429Q0.590 0.429 0.599 0.419Q0.609 0.409 0.609 0.394V0.390Q0.609 0.344 0.577 0.312Q0.546 0.280 0.499 0.280Q0.452 0.280 0.420 0.312Q0.389 0.343 0.389 0.390V0.610Q0.389 0.625 0.399 0.635Q0.408 0.644 0.423 0.644Q0.439 0.644 0.448 0.635Q0.458 0.625 0.458 0.610V0.532H0.577Q0.592 0.532 0.601 0.523Q0.611 0.513 0.611 0.498Z" fill="black"/>
</svg>
