<svg xmlns="http://www.w3.org/2000/svg" viewBox="0 0 1 1" preserveAspectRatio="xMidYMid meet">
  <path d="M0.663 0.837Q0.663 0.906 0.616 0.953Q0.569 1.000 0.500 1.000Q0.431 1.000 0.384 0.953Q0.337 0.906 0.337 0.837Q0.337 0.824 0.339 0.811Q0.337 0.799 0.337 0.786Q0.337 0.722 0.378 0.676Q0.337 0.630 0.337 0.566Q0.337 0.553 0.339 0.540Q0.337 0.528 0.337 0.515Q0.337 0.445 0.384 0.399Q0.431 0.352 0.500 0.352Q0.569 0.352 0.616 0.399Q0.663 0.445 0.663 0.515V0.689Q0.663 0.718 0.650 0.744Q0.663 0.762 0.663 0.786Q0.663 0.802 0.661 0.817Q0.663 0.826 0.663 0.837ZM0.520 0.546Q0.512 0.538 0.500 0.538Q0.493 0.538 0.488 0.540Q0.493 0.543 0.504 0.544Q0.516 0.545 0.520 0.546ZM0.630 0.786Q0.630 0.771 0.621 0.761Q0.611 0.751 0.596 0.751Q0.581 0.751 0.571 0.761Q0.561 0.771 0.561 0.786Q0.561 0.811 0.543 0.829Q0.525 0.847 0.500 0.847Q0.475 0.847 0.457 0.829Q0.439 0.811 0.439 0.786Q0.439 0.760 0.457 0.742Q0.475 0.724 0.500 0.724H0.544Q0.580 0.724 0.605 0.699Q0.630 0.674 0.630 0.638V0.515Q0.630 0.459 0.593 0.422Q0.556 0.385 0.500 0.385Q0.444 0.385 0.407 0.422Q0.370 0.459 0.370 0.515Q0.370 0.570 0.407 0.608Q0.444 0.645 0.500 0.645Q0.515 0.645 0.525 0.636Q0.535 0.626 0.535 0.611Q0.535 0.595 0.525 0.586Q0.515 0.576 0.500 0.576Q0.475 0.576 0.457 0.558Q0.439 0.540 0.439 0.515Q0.439 0.489 0.457 0.471Q0.475 0.454 0.500 0.454Q0.525 0.454 0.543 0.471Q0.561 0.489 0.561 0.515V0.638Q0.561 0.645 0.556 0.650Q0.551 0.655 0.544 0.655H0.499Q0.444 0.655 0.407 0.693Q0.370 0.731 0.370 0.786Q0.370 0.841 0.407 0.878Q0.445 0.916 0.500 0.916Q0.555 0.916 0.593 0.878Q0.630 0.841 0.630 0.786ZM0.517 0.808H0.500Q0.493 0.808 0.488 0.811Q0.493 0.814 0.500 0.814Q0.510 0.814 0.517 0.808Z" fill="black"/>
</svg>
