<svg xmlns="http://www.w3.org/2000/svg" viewBox="0 0 1 1" preserveAspectRatio="xMidYMid meet">
  <path d="M0.682 0.773Q0.682 0.802 0.663 0.821Q0.644 0.840 0.615 0.840Q0.553 0.840 0.511 0.799Q0.469 0.758 0.469 0.697L0.469 0.545Q0.469 0.538 0.461 0.538Q0.453 0.538 0.453 0.545V0.661Q0.453 0.690 0.434 0.709Q0.414 0.728 0.385 0.728Q0.356 0.728 0.337 0.709Q0.318 0.690 0.318 0.661V0.314Q0.318 0.285 0.337 0.266Q0.356 0.247 0.385 0.247Q0.414 0.247 0.434 0.266Q0.453 0.285 0.453 0.314V0.352Q0.457 0.352 0.461 0.352Q0.521 0.352 0.563 0.393Q0.604 0.434 0.604 0.494V0.646Q0.604 0.654 0.613 0.654Q0.643 0.654 0.662 0.674Q0.682 0.693 0.682 0.722Q0.682 0.736 0.677 0.748Q0.682 0.759 0.682 0.773ZM0.649 0.722Q0.649 0.707 0.639 0.697Q0.630 0.688 0.615 0.688H0.613Q0.595 0.688 0.583 0.676Q0.571 0.664 0.571 0.646V0.494Q0.571 0.448 0.540 0.416Q0.508 0.385 0.461 0.385Q0.439 0.385 0.420 0.392V0.314Q0.420 0.299 0.410 0.290Q0.401 0.280 0.385 0.280Q0.370 0.280 0.361 0.290Q0.351 0.299 0.351 0.314V0.610Q0.351 0.625 0.361 0.635Q0.370 0.644 0.385 0.644Q0.401 0.644 0.410 0.635Q0.420 0.625 0.420 0.610V0.494Q0.420 0.477 0.432 0.465Q0.444 0.454 0.461 0.454Q0.478 0.454 0.490 0.466Q0.502 0.478 0.502 0.494L0.503 0.646Q0.503 0.693 0.534 0.725Q0.566 0.756 0.613 0.756H0.615Q0.630 0.756 0.639 0.747Q0.649 0.738 0.649 0.722Z" fill="black"/>
</svg>
