<svg xmlns="http://www.w3.org/2000/svg" viewBox="0 0 1 1" preserveAspectRatio="xMidYMid meet">
  <path d="M0.610 0.369Q0.610 0.388 0.602 0.405Q0.603 0.411 0.603 0.419V0.697Q0.603 0.757 0.561 0.799Q0.520 0.840 0.459 0.840Q0.429 0.840 0.410 0.822Q0.390 0.803 0.390 0.773Q0.390 0.760 0.394 0.748Q0.390 0.736 0.390 0.722Q0.390 0.693 0.409 0.674Q0.428 0.654 0.457 0.654Q0.468 0.654 0.468 0.646V0.419Q0.468 0.412 0.469 0.405Q0.459 0.388 0.459 0.369Q0.459 0.356 0.464 0.344Q0.459 0.331 0.459 0.318Q0.459 0.287 0.482 0.265Q0.504 0.243 0.535 0.243Q0.566 0.243 0.588 0.265Q0.610 0.287 0.610 0.318Q0.610 0.332 0.606 0.344Q0.610 0.356 0.610 0.369ZM0.577 0.318Q0.577 0.301 0.565 0.288Q0.552 0.276 0.535 0.276Q0.518 0.276 0.505 0.288Q0.493 0.301 0.493 0.318Q0.493 0.335 0.505 0.348Q0.518 0.360 0.535 0.360Q0.552 0.360 0.565 0.348Q0.577 0.335 0.577 0.318ZM0.570 0.646V0.419Q0.570 0.385 0.535 0.385Q0.520 0.385 0.510 0.394Q0.501 0.404 0.501 0.419V0.646Q0.501 0.664 0.489 0.676Q0.477 0.688 0.459 0.688H0.457Q0.442 0.688 0.432 0.697Q0.423 0.707 0.423 0.722Q0.423 0.738 0.432 0.747Q0.442 0.756 0.457 0.756H0.459Q0.506 0.756 0.538 0.725Q0.570 0.693 0.570 0.646Z" fill="black"/>
</svg>
