<svg xmlns="http://www.w3.org/2000/svg" viewBox="0 0 1 1" preserveAspectRatio="xMidYMid meet">
  <path d="M0.678 0.773Q0.678 0.802 0.659 0.821Q0.639 0.840 0.610 0.840Q0.549 0.840 0.507 0.799Q0.465 0.758 0.465 0.697V0.637Q0.465 0.629 0.457 0.629V0.661Q0.457 0.690 0.438 0.709Q0.418 0.728 0.389 0.728Q0.360 0.728 0.341 0.709Q0.322 0.690 0.322 0.661V0.315Q0.322 0.286 0.341 0.267Q0.360 0.248 0.389 0.248Q0.418 0.248 0.438 0.267Q0.457 0.286 0.457 0.315V0.397Q0.470 0.352 0.521 0.352Q0.550 0.352 0.570 0.371Q0.589 0.390 0.589 0.419Q0.589 0.435 0.586 0.449Q0.589 0.459 0.589 0.470Q0.589 0.494 0.582 0.515Q0.600 0.547 0.600 0.586V0.646Q0.600 0.654 0.608 0.654Q0.638 0.654 0.658 0.674Q0.678 0.693 0.678 0.722Q0.678 0.735 0.674 0.748Q0.678 0.759 0.678 0.773ZM0.645 0.722Q0.645 0.707 0.635 0.697Q0.626 0.688 0.610 0.688H0.608Q0.591 0.688 0.579 0.676Q0.567 0.664 0.567 0.646V0.586Q0.567 0.531 0.522 0.498Q0.556 0.465 0.556 0.419Q0.556 0.404 0.546 0.394Q0.536 0.385 0.521 0.385Q0.487 0.385 0.487 0.420Q0.487 0.437 0.475 0.449Q0.463 0.461 0.446 0.460L0.424 0.460V0.315Q0.424 0.300 0.414 0.291Q0.404 0.281 0.389 0.281Q0.374 0.281 0.364 0.291Q0.355 0.300 0.355 0.315V0.610Q0.355 0.625 0.364 0.635Q0.374 0.644 0.389 0.644Q0.404 0.644 0.414 0.635Q0.424 0.625 0.424 0.610V0.545H0.457Q0.474 0.545 0.486 0.557Q0.498 0.569 0.498 0.586V0.646Q0.498 0.693 0.530 0.725Q0.561 0.756 0.608 0.756H0.610Q0.626 0.756 0.635 0.747Q0.645 0.738 0.645 0.722Z" fill="black"/>
</svg>
