<svg xmlns="http://www.w3.org/2000/svg" viewBox="0 0 1 1" preserveAspectRatio="xMidYMid meet">
  <path d="M0.663 0.566Q0.663 0.635 0.616 0.682Q0.569 0.729 0.500 0.729Q0.430 0.729 0.384 0.682Q0.337 0.635 0.337 0.566Q0.337 0.553 0.339 0.540Q0.337 0.528 0.337 0.515Q0.337 0.445 0.384 0.399Q0.430 0.352 0.500 0.352Q0.569 0.352 0.616 0.399Q0.663 0.445 0.663 0.515Q0.663 0.528 0.661 0.541Q0.663 0.553 0.663 0.566ZM0.630 0.515Q0.630 0.459 0.593 0.422Q0.555 0.385 0.500 0.385Q0.444 0.385 0.407 0.422Q0.370 0.459 0.370 0.515Q0.370 0.570 0.407 0.608Q0.444 0.645 0.500 0.645Q0.555 0.645 0.593 0.608Q0.630 0.570 0.630 0.515ZM0.561 0.515Q0.561 0.540 0.543 0.558Q0.525 0.576 0.500 0.576Q0.474 0.576 0.456 0.558Q0.439 0.540 0.439 0.515Q0.439 0.489 0.456 0.471Q0.474 0.454 0.500 0.454Q0.525 0.454 0.543 0.471Q0.561 0.489 0.561 0.515Z" fill="black"/>
</svg>
