<svg xmlns="http://www.w3.org/2000/svg" viewBox="0 0 1 1" preserveAspectRatio="xMidYMid meet">
  <path d="M0.663 0.566Q0.663 0.635 0.616 0.682Q0.569 0.729 0.500 0.729Q0.485 0.729 0.472 0.724V0.765Q0.472 0.794 0.452 0.813Q0.433 0.833 0.404 0.833Q0.375 0.833 0.356 0.813Q0.337 0.794 0.337 0.765V0.515Q0.337 0.445 0.384 0.399Q0.430 0.352 0.500 0.352Q0.569 0.352 0.616 0.399Q0.663 0.445 0.663 0.515Q0.663 0.528 0.661 0.541Q0.663 0.553 0.663 0.566ZM0.512 0.540Q0.506 0.538 0.500 0.538Q0.488 0.538 0.479 0.546Q0.491 0.546 0.512 0.540ZM0.630 0.515Q0.630 0.459 0.593 0.422Q0.555 0.385 0.500 0.385Q0.444 0.385 0.407 0.422Q0.370 0.459 0.370 0.515V0.714Q0.370 0.729 0.379 0.739Q0.389 0.749 0.404 0.749Q0.419 0.749 0.429 0.739Q0.439 0.729 0.439 0.714V0.515Q0.439 0.489 0.456 0.471Q0.474 0.454 0.500 0.454Q0.525 0.454 0.543 0.471Q0.561 0.489 0.561 0.515Q0.561 0.540 0.543 0.558Q0.525 0.576 0.500 0.576Q0.484 0.576 0.475 0.586Q0.466 0.595 0.466 0.611Q0.466 0.626 0.475 0.636Q0.484 0.645 0.500 0.645Q0.555 0.645 0.593 0.608Q0.630 0.570 0.630 0.515Z" fill="black"/>
</svg>
