<svg xmlns="http://www.w3.org/2000/svg" viewBox="0 0 1 1" preserveAspectRatio="xMidYMid meet">
  <path d="M0.663 0.765Q0.663 0.794 0.644 0.813Q0.625 0.833 0.596 0.833Q0.567 0.833 0.547 0.813Q0.528 0.794 0.528 0.765V0.724Q0.515 0.729 0.500 0.729Q0.430 0.729 0.384 0.682Q0.337 0.635 0.337 0.566Q0.337 0.553 0.339 0.540Q0.337 0.528 0.337 0.515Q0.337 0.445 0.384 0.399Q0.430 0.352 0.500 0.352Q0.569 0.352 0.616 0.399Q0.663 0.446 0.663 0.515ZM0.520 0.546Q0.512 0.538 0.500 0.538Q0.493 0.538 0.488 0.540Q0.493 0.543 0.503 0.544Q0.516 0.545 0.520 0.546ZM0.630 0.714V0.515Q0.630 0.459 0.593 0.422Q0.555 0.385 0.500 0.385Q0.444 0.385 0.407 0.422Q0.370 0.459 0.370 0.515Q0.370 0.570 0.407 0.608Q0.444 0.645 0.500 0.645Q0.515 0.645 0.525 0.636Q0.534 0.626 0.534 0.611Q0.534 0.595 0.525 0.586Q0.515 0.576 0.500 0.576Q0.474 0.576 0.456 0.558Q0.439 0.540 0.439 0.515Q0.439 0.489 0.456 0.471Q0.474 0.454 0.500 0.454Q0.525 0.454 0.543 0.471Q0.561 0.489 0.561 0.515V0.714Q0.561 0.729 0.571 0.739Q0.580 0.749 0.596 0.749Q0.611 0.749 0.621 0.739Q0.630 0.729 0.630 0.714Z" fill="black"/>
</svg>
