<svg xmlns="http://www.w3.org/2000/svg" viewBox="0 0 1 1" preserveAspectRatio="xMidYMid meet">
  <path d="M0.605 0.470Q0.605 0.500 0.587 0.518Q0.569 0.535 0.540 0.538Q0.530 0.538 0.530 0.545V0.661Q0.530 0.690 0.510 0.709Q0.491 0.728 0.462 0.728Q0.433 0.728 0.414 0.709Q0.395 0.690 0.395 0.661V0.494Q0.395 0.434 0.436 0.393Q0.478 0.352 0.538 0.352Q0.567 0.352 0.586 0.371Q0.605 0.390 0.605 0.419Q0.605 0.433 0.601 0.445Q0.605 0.457 0.605 0.470ZM0.572 0.419Q0.572 0.404 0.562 0.394Q0.553 0.385 0.538 0.385Q0.491 0.385 0.459 0.416Q0.428 0.448 0.428 0.494V0.610Q0.428 0.625 0.437 0.635Q0.447 0.644 0.462 0.644Q0.477 0.644 0.487 0.635Q0.497 0.625 0.497 0.610V0.494Q0.497 0.477 0.508 0.466Q0.520 0.455 0.537 0.454Q0.572 0.451 0.572 0.419Z" fill="black"/>
</svg>
