<svg xmlns="http://www.w3.org/2000/svg" viewBox="0 0 1 1" preserveAspectRatio="xMidYMid meet">
  <path d="M0.633 0.470Q0.633 0.497 0.615 0.516Q0.597 0.535 0.570 0.537Q0.570 0.537 0.569 0.535Q0.568 0.534 0.568 0.533Q0.567 0.546 0.567 0.565V0.575Q0.567 0.613 0.561 0.634Q0.553 0.664 0.528 0.689Q0.490 0.728 0.434 0.728Q0.405 0.728 0.386 0.709Q0.367 0.690 0.367 0.661Q0.367 0.647 0.371 0.635Q0.367 0.623 0.367 0.610Q0.367 0.581 0.385 0.562Q0.404 0.542 0.432 0.542V0.536Q0.432 0.530 0.433 0.524Q0.432 0.517 0.432 0.513V0.485Q0.432 0.429 0.471 0.390Q0.509 0.352 0.565 0.352Q0.595 0.352 0.614 0.371Q0.633 0.390 0.633 0.419Q0.633 0.433 0.629 0.444Q0.633 0.456 0.633 0.470ZM0.600 0.419Q0.600 0.404 0.590 0.394Q0.581 0.385 0.565 0.385Q0.523 0.385 0.494 0.414Q0.466 0.442 0.466 0.485V0.513Q0.466 0.516 0.465 0.534Q0.465 0.534 0.465 0.544Q0.465 0.557 0.456 0.566Q0.447 0.575 0.434 0.575Q0.419 0.575 0.409 0.585Q0.400 0.594 0.400 0.610Q0.400 0.625 0.409 0.634Q0.419 0.644 0.434 0.644Q0.476 0.644 0.505 0.615Q0.533 0.586 0.534 0.544L0.534 0.485Q0.534 0.477 0.536 0.473Q0.537 0.469 0.544 0.463Q0.550 0.456 0.567 0.453Q0.583 0.451 0.592 0.442Q0.600 0.434 0.600 0.419Z" fill="black"/>
</svg>
