<svg xmlns="http://www.w3.org/2000/svg" viewBox="0 0 1 1" preserveAspectRatio="xMidYMid meet">
  <path d="M0.643 0.585Q0.643 0.645 0.602 0.687Q0.560 0.728 0.500 0.728Q0.440 0.728 0.398 0.687Q0.357 0.646 0.357 0.585V0.359Q0.357 0.330 0.376 0.310Q0.395 0.291 0.424 0.291Q0.451 0.291 0.470 0.308Q0.490 0.326 0.492 0.353H0.576Q0.605 0.353 0.624 0.372Q0.643 0.391 0.643 0.420Q0.643 0.434 0.639 0.446Q0.643 0.458 0.643 0.471Q0.643 0.488 0.637 0.502Q0.643 0.515 0.643 0.530V0.534Q0.643 0.548 0.640 0.562Q0.643 0.571 0.643 0.581ZM0.610 0.534V0.530Q0.610 0.515 0.600 0.505Q0.590 0.495 0.576 0.495Q0.561 0.495 0.551 0.505Q0.541 0.515 0.541 0.530V0.534Q0.541 0.551 0.529 0.563Q0.518 0.575 0.500 0.575Q0.483 0.575 0.471 0.563Q0.459 0.551 0.459 0.534V0.455H0.576Q0.610 0.455 0.610 0.420Q0.610 0.405 0.600 0.395Q0.591 0.386 0.576 0.386H0.459V0.359Q0.459 0.344 0.449 0.334Q0.440 0.324 0.424 0.324Q0.409 0.324 0.400 0.334Q0.390 0.344 0.390 0.359V0.534Q0.390 0.582 0.422 0.613Q0.453 0.644 0.500 0.644Q0.547 0.644 0.578 0.613Q0.610 0.581 0.610 0.534ZM0.507 0.539H0.493Q0.496 0.542 0.500 0.542Q0.505 0.542 0.507 0.539Z" fill="black"/>
</svg>
