<svg xmlns="http://www.w3.org/2000/svg" viewBox="0 0 1 1" preserveAspectRatio="xMidYMid meet">
  <path d="M0.643 0.585Q0.643 0.645 0.602 0.687Q0.560 0.728 0.500 0.728Q0.440 0.728 0.398 0.687Q0.357 0.646 0.357 0.585V0.420Q0.357 0.391 0.376 0.372Q0.395 0.352 0.424 0.352Q0.453 0.352 0.473 0.372Q0.492 0.391 0.492 0.420V0.534Q0.492 0.542 0.500 0.542Q0.508 0.542 0.508 0.534V0.419Q0.508 0.390 0.527 0.371Q0.547 0.352 0.576 0.352Q0.605 0.352 0.624 0.371Q0.643 0.390 0.643 0.419ZM0.610 0.534V0.419Q0.610 0.404 0.600 0.394Q0.591 0.385 0.576 0.385Q0.560 0.385 0.551 0.394Q0.541 0.404 0.541 0.419V0.534Q0.541 0.551 0.529 0.563Q0.518 0.575 0.500 0.575Q0.483 0.575 0.471 0.563Q0.459 0.551 0.459 0.534V0.420Q0.459 0.405 0.449 0.395Q0.440 0.385 0.424 0.385Q0.409 0.385 0.400 0.395Q0.390 0.405 0.390 0.420V0.534Q0.390 0.582 0.422 0.613Q0.453 0.644 0.500 0.644Q0.547 0.644 0.578 0.613Q0.610 0.581 0.610 0.534Z" fill="black"/>
</svg>
