<svg xmlns="http://www.w3.org/2000/svg" viewBox="0 0 1 1" preserveAspectRatio="xMidYMid meet">
  <path d="M0.642 0.469Q0.642 0.482 0.637 0.494L0.563 0.685Q0.544 0.734 0.500 0.734Q0.456 0.734 0.437 0.685L0.363 0.494Q0.358 0.482 0.358 0.469Q0.358 0.456 0.363 0.444L0.363 0.443Q0.358 0.431 0.358 0.418Q0.358 0.390 0.379 0.371Q0.399 0.351 0.427 0.351Q0.459 0.351 0.476 0.374Q0.486 0.385 0.500 0.423Q0.514 0.385 0.524 0.374Q0.541 0.351 0.573 0.351Q0.601 0.351 0.621 0.371Q0.642 0.390 0.642 0.418Q0.642 0.431 0.637 0.443L0.637 0.444Q0.642 0.456 0.642 0.469ZM0.609 0.418Q0.609 0.404 0.598 0.394Q0.587 0.384 0.573 0.384Q0.550 0.384 0.542 0.407L0.500 0.515L0.458 0.407Q0.450 0.384 0.427 0.384Q0.413 0.384 0.402 0.394Q0.391 0.404 0.391 0.418Q0.391 0.425 0.394 0.431L0.468 0.622Q0.479 0.650 0.500 0.650Q0.521 0.650 0.532 0.622L0.606 0.431Q0.609 0.425 0.609 0.418Z" fill="black"/>
</svg>
