<svg xmlns="http://www.w3.org/2000/svg" viewBox="0 0 1 1" preserveAspectRatio="xMidYMid meet">
  <path d="M0.714 0.584Q0.714 0.644 0.673 0.686Q0.632 0.727 0.572 0.727Q0.532 0.727 0.500 0.708Q0.468 0.727 0.429 0.727Q0.368 0.727 0.327 0.686Q0.286 0.645 0.286 0.584V0.418Q0.286 0.387 0.304 0.369Q0.322 0.351 0.353 0.351Q0.383 0.351 0.402 0.370Q0.421 0.389 0.421 0.418V0.533Q0.421 0.541 0.429 0.541Q0.437 0.541 0.437 0.533V0.418Q0.437 0.389 0.456 0.370Q0.475 0.351 0.504 0.351Q0.535 0.351 0.554 0.369Q0.572 0.387 0.572 0.418V0.541Q0.579 0.541 0.579 0.533V0.418Q0.579 0.389 0.599 0.370Q0.618 0.351 0.647 0.351Q0.676 0.351 0.695 0.370Q0.714 0.389 0.714 0.418ZM0.681 0.533V0.418Q0.681 0.403 0.672 0.393Q0.662 0.384 0.647 0.384Q0.632 0.384 0.622 0.393Q0.612 0.403 0.612 0.418V0.533Q0.612 0.550 0.601 0.562Q0.589 0.574 0.572 0.574Q0.551 0.574 0.539 0.559V0.418Q0.539 0.384 0.504 0.384Q0.489 0.384 0.480 0.393Q0.470 0.403 0.470 0.418V0.533Q0.470 0.550 0.458 0.562Q0.446 0.574 0.429 0.574Q0.412 0.574 0.400 0.562Q0.388 0.550 0.388 0.533V0.418Q0.388 0.403 0.378 0.393Q0.369 0.384 0.353 0.384Q0.319 0.384 0.319 0.418V0.533Q0.319 0.581 0.350 0.612Q0.381 0.643 0.429 0.643Q0.469 0.643 0.500 0.617Q0.531 0.643 0.572 0.643Q0.619 0.643 0.650 0.612Q0.681 0.580 0.681 0.533Z" fill="black"/>
</svg>
