<svg xmlns="http://www.w3.org/2000/svg" viewBox="0 0 1 1" preserveAspectRatio="xMidYMid meet">
  <path d="M0.643 0.661Q0.643 0.690 0.624 0.709Q0.605 0.728 0.576 0.728Q0.547 0.728 0.528 0.709Q0.508 0.690 0.508 0.661V0.648Q0.508 0.640 0.500 0.640Q0.492 0.640 0.492 0.648V0.661Q0.492 0.690 0.473 0.709Q0.453 0.728 0.424 0.728Q0.395 0.728 0.376 0.709Q0.357 0.690 0.357 0.661V0.648Q0.357 0.637 0.359 0.625Q0.357 0.618 0.357 0.610V0.597Q0.357 0.566 0.368 0.540Q0.357 0.514 0.357 0.483V0.470Q0.357 0.462 0.359 0.455Q0.357 0.443 0.357 0.432V0.419Q0.357 0.390 0.376 0.371Q0.395 0.352 0.424 0.352Q0.455 0.352 0.474 0.370Q0.492 0.388 0.492 0.419V0.432Q0.492 0.440 0.500 0.440Q0.508 0.440 0.508 0.432V0.419Q0.508 0.390 0.527 0.371Q0.547 0.352 0.576 0.352Q0.605 0.352 0.624 0.371Q0.643 0.390 0.643 0.419V0.432Q0.643 0.443 0.641 0.455Q0.643 0.462 0.643 0.470V0.483Q0.643 0.514 0.632 0.540Q0.643 0.566 0.643 0.597V0.610Q0.643 0.618 0.641 0.625Q0.643 0.637 0.643 0.648ZM0.610 0.610V0.597Q0.610 0.547 0.573 0.514Q0.610 0.482 0.610 0.432V0.419Q0.610 0.404 0.600 0.394Q0.591 0.385 0.576 0.385Q0.560 0.385 0.551 0.394Q0.541 0.404 0.541 0.419V0.432Q0.541 0.449 0.529 0.461Q0.517 0.473 0.500 0.473Q0.483 0.473 0.471 0.461Q0.459 0.450 0.459 0.432V0.419Q0.459 0.385 0.424 0.385Q0.409 0.385 0.400 0.394Q0.390 0.404 0.390 0.419V0.432Q0.390 0.482 0.427 0.514Q0.390 0.547 0.390 0.597V0.610Q0.390 0.625 0.400 0.635Q0.409 0.644 0.424 0.644Q0.440 0.644 0.449 0.635Q0.459 0.625 0.459 0.610V0.597Q0.459 0.580 0.471 0.568Q0.483 0.556 0.500 0.556Q0.517 0.556 0.529 0.568Q0.541 0.580 0.541 0.597V0.610Q0.541 0.625 0.551 0.635Q0.561 0.644 0.576 0.644Q0.591 0.644 0.600 0.635Q0.610 0.625 0.610 0.610Z" fill="black"/>
</svg>
