<svg xmlns="http://www.w3.org/2000/svg" viewBox="0 0 1 1" preserveAspectRatio="xMidYMid meet">
  <path d="M0.643 0.697Q0.643 0.757 0.601 0.799Q0.560 0.840 0.500 0.840Q0.470 0.840 0.450 0.822Q0.430 0.803 0.430 0.773Q0.430 0.760 0.435 0.748Q0.430 0.736 0.430 0.722Q0.430 0.717 0.431 0.712Q0.397 0.693 0.377 0.660Q0.357 0.626 0.357 0.585V0.419Q0.357 0.390 0.376 0.371Q0.395 0.352 0.424 0.352Q0.455 0.352 0.474 0.370Q0.492 0.388 0.492 0.419V0.534Q0.492 0.542 0.500 0.542Q0.508 0.542 0.508 0.534V0.419Q0.508 0.390 0.527 0.371Q0.547 0.352 0.576 0.352Q0.605 0.352 0.624 0.371Q0.643 0.390 0.643 0.419ZM0.610 0.646V0.419Q0.610 0.404 0.600 0.394Q0.591 0.385 0.576 0.385Q0.560 0.385 0.551 0.394Q0.541 0.404 0.541 0.419V0.534Q0.541 0.551 0.529 0.563Q0.518 0.575 0.500 0.575Q0.483 0.575 0.471 0.563Q0.459 0.551 0.459 0.534V0.419Q0.459 0.385 0.424 0.385Q0.409 0.385 0.400 0.394Q0.390 0.404 0.390 0.419V0.534Q0.390 0.582 0.422 0.613Q0.453 0.644 0.500 0.644Q0.522 0.644 0.541 0.637V0.646Q0.541 0.663 0.529 0.675Q0.517 0.688 0.500 0.688H0.498Q0.482 0.688 0.473 0.697Q0.463 0.707 0.463 0.722Q0.463 0.738 0.473 0.747Q0.482 0.756 0.498 0.756H0.500Q0.547 0.756 0.578 0.725Q0.610 0.693 0.610 0.646Z" fill="black"/>
</svg>
