<svg xmlns="http://www.w3.org/2000/svg" viewBox="0 0 1 1" preserveAspectRatio="xMidYMid meet">
  <path d="M0.649 0.458Q0.649 0.494 0.601 0.554Q0.631 0.573 0.631 0.610Q0.631 0.623 0.626 0.635Q0.631 0.647 0.631 0.661Q0.631 0.690 0.612 0.709Q0.592 0.728 0.564 0.728H0.421Q0.394 0.728 0.376 0.718Q0.351 0.703 0.351 0.672Q0.351 0.660 0.356 0.646Q0.351 0.635 0.351 0.621Q0.351 0.585 0.399 0.526Q0.371 0.506 0.371 0.470Q0.371 0.456 0.375 0.444Q0.371 0.432 0.371 0.419Q0.371 0.390 0.390 0.371Q0.409 0.352 0.438 0.352H0.580Q0.606 0.352 0.624 0.362Q0.649 0.377 0.649 0.407Q0.649 0.419 0.644 0.434Q0.649 0.444 0.649 0.458ZM0.616 0.407Q0.616 0.385 0.580 0.385H0.438Q0.423 0.385 0.413 0.394Q0.404 0.404 0.404 0.419Q0.404 0.434 0.413 0.444Q0.423 0.454 0.438 0.454H0.506L0.431 0.540Q0.384 0.595 0.384 0.621Q0.384 0.644 0.421 0.644H0.564Q0.578 0.644 0.588 0.635Q0.598 0.625 0.598 0.610Q0.598 0.595 0.588 0.585Q0.579 0.575 0.564 0.575H0.494Q0.550 0.512 0.569 0.489Q0.616 0.433 0.616 0.407Z" fill="black"/>
</svg>
