<svg xmlns="http://www.w3.org/2000/svg" viewBox="0 0 1 1" preserveAspectRatio="xMidYMid meet">
  <path d="M0.568 0.712Q0.568 0.741 0.548 0.760Q0.528 0.779 0.500 0.779Q0.471 0.779 0.452 0.760Q0.432 0.741 0.432 0.712V0.264Q0.432 0.234 0.452 0.215Q0.471 0.196 0.500 0.196Q0.529 0.196 0.548 0.215Q0.568 0.234 0.568 0.264ZM0.534 0.661V0.264Q0.534 0.248 0.525 0.239Q0.515 0.229 0.500 0.229Q0.484 0.229 0.475 0.239Q0.466 0.248 0.466 0.264V0.661Q0.466 0.676 0.475 0.686Q0.484 0.695 0.500 0.695Q0.515 0.695 0.525 0.686Q0.534 0.676 0.534 0.661Z" fill="black"/>
</svg>
