<svg xmlns="http://www.w3.org/2000/svg" viewBox="0 0 1 1" preserveAspectRatio="xMidYMid meet">
  <path d="M0.621 0.373Q0.621 0.405 0.591 0.430Q0.564 0.453 0.531 0.453Q0.512 0.453 0.479 0.439Q0.464 0.447 0.448 0.447Q0.420 0.447 0.400 0.427Q0.379 0.406 0.379 0.379Q0.379 0.366 0.384 0.353Q0.379 0.341 0.379 0.328Q0.379 0.296 0.408 0.271Q0.436 0.248 0.469 0.248Q0.491 0.248 0.521 0.261Q0.536 0.254 0.552 0.254Q0.580 0.254 0.600 0.274Q0.621 0.294 0.621 0.322Q0.621 0.335 0.616 0.347Q0.621 0.360 0.621 0.373ZM0.588 0.322Q0.588 0.308 0.577 0.297Q0.566 0.287 0.552 0.287Q0.538 0.287 0.527 0.299Q0.527 0.300 0.525 0.300L0.504 0.290Q0.484 0.281 0.469 0.281Q0.443 0.281 0.422 0.305Q0.412 0.315 0.412 0.328Q0.412 0.341 0.423 0.352Q0.434 0.363 0.448 0.363Q0.462 0.363 0.473 0.351Q0.473 0.350 0.475 0.350L0.497 0.359Q0.519 0.369 0.531 0.369Q0.557 0.369 0.578 0.345Q0.588 0.334 0.588 0.322Z" fill="black"/>
</svg>
