<svg xmlns="http://www.w3.org/2000/svg" viewBox="0 0 1 1" preserveAspectRatio="xMidYMid meet">
  <path d="M0.575 0.374Q0.575 0.393 0.566 0.409Q0.568 0.416 0.568 0.424V0.656Q0.568 0.685 0.548 0.704Q0.529 0.724 0.500 0.724Q0.471 0.724 0.452 0.704Q0.433 0.685 0.433 0.656V0.424Q0.433 0.416 0.434 0.410Q0.425 0.393 0.425 0.374Q0.425 0.360 0.429 0.348Q0.425 0.336 0.425 0.323Q0.425 0.291 0.446 0.269Q0.468 0.247 0.500 0.247Q0.532 0.247 0.554 0.269Q0.575 0.291 0.575 0.323Q0.575 0.336 0.571 0.348Q0.575 0.360 0.575 0.374ZM0.542 0.323Q0.542 0.305 0.530 0.293Q0.518 0.280 0.500 0.280Q0.482 0.280 0.470 0.293Q0.458 0.305 0.458 0.323Q0.458 0.340 0.470 0.352Q0.483 0.364 0.500 0.364Q0.517 0.364 0.530 0.352Q0.542 0.340 0.542 0.323ZM0.535 0.605V0.424Q0.535 0.408 0.525 0.399Q0.515 0.389 0.500 0.389Q0.485 0.389 0.475 0.399Q0.466 0.408 0.466 0.424V0.605Q0.466 0.620 0.475 0.630Q0.485 0.640 0.500 0.640Q0.515 0.640 0.525 0.630Q0.535 0.620 0.535 0.605Z" fill="black"/>
</svg>
