<svg xmlns="http://www.w3.org/2000/svg" viewBox="0 0 1 1" preserveAspectRatio="xMidYMid meet">
  <path d="M0.615 0.610Q0.615 0.639 0.596 0.659Q0.586 0.668 0.573 0.673Q0.573 0.698 0.555 0.715Q0.537 0.732 0.512 0.732Q0.488 0.732 0.470 0.715Q0.452 0.698 0.452 0.673Q0.452 0.661 0.456 0.650Q0.423 0.628 0.404 0.593Q0.385 0.557 0.385 0.514Q0.385 0.502 0.387 0.489Q0.385 0.476 0.385 0.463Q0.385 0.421 0.404 0.384Q0.423 0.349 0.455 0.327Q0.452 0.318 0.452 0.307Q0.452 0.282 0.470 0.265Q0.488 0.247 0.512 0.247Q0.536 0.247 0.554 0.264Q0.571 0.280 0.573 0.304Q0.592 0.311 0.604 0.328Q0.615 0.346 0.615 0.367Q0.615 0.381 0.611 0.393Q0.615 0.405 0.615 0.418Q0.615 0.448 0.596 0.467Q0.577 0.486 0.548 0.486Q0.541 0.486 0.535 0.489Q0.541 0.491 0.548 0.491Q0.577 0.491 0.596 0.511Q0.615 0.530 0.615 0.559Q0.615 0.573 0.611 0.585Q0.615 0.597 0.615 0.610ZM0.540 0.307Q0.540 0.296 0.532 0.288Q0.524 0.280 0.512 0.280Q0.501 0.280 0.493 0.288Q0.485 0.296 0.485 0.307Q0.485 0.319 0.493 0.326Q0.501 0.334 0.512 0.334Q0.524 0.334 0.532 0.326Q0.540 0.319 0.540 0.307ZM0.582 0.559Q0.582 0.544 0.573 0.534Q0.563 0.524 0.548 0.524Q0.522 0.524 0.504 0.507Q0.486 0.489 0.486 0.463Q0.486 0.438 0.504 0.420Q0.522 0.402 0.548 0.402Q0.563 0.402 0.573 0.392Q0.582 0.383 0.582 0.367Q0.582 0.352 0.573 0.343Q0.563 0.333 0.548 0.333Q0.492 0.333 0.455 0.370Q0.418 0.408 0.418 0.463Q0.418 0.518 0.455 0.556Q0.493 0.593 0.548 0.593Q0.563 0.593 0.573 0.584Q0.582 0.574 0.582 0.559ZM0.540 0.622Q0.540 0.611 0.532 0.603Q0.524 0.595 0.512 0.595Q0.501 0.595 0.493 0.603Q0.485 0.611 0.485 0.622Q0.485 0.633 0.493 0.641Q0.501 0.648 0.512 0.648Q0.524 0.648 0.532 0.641Q0.540 0.633 0.540 0.622Z" fill="black"/>
</svg>
