<svg xmlns="http://www.w3.org/2000/svg" viewBox="0 0 1 1" preserveAspectRatio="xMidYMid meet">
  <path d="M0.657 0.593Q0.657 0.624 0.639 0.643Q0.621 0.661 0.590 0.661H0.568Q0.568 0.690 0.548 0.709Q0.529 0.728 0.500 0.728Q0.471 0.728 0.452 0.709Q0.432 0.690 0.432 0.661H0.410Q0.381 0.661 0.362 0.642Q0.343 0.622 0.343 0.593Q0.343 0.580 0.347 0.568Q0.343 0.556 0.343 0.542Q0.343 0.534 0.344 0.527Q0.343 0.519 0.343 0.511Q0.343 0.498 0.347 0.486Q0.343 0.474 0.343 0.460Q0.343 0.435 0.358 0.417Q0.356 0.407 0.356 0.396V0.267Q0.356 0.238 0.375 0.218Q0.394 0.199 0.423 0.199Q0.454 0.199 0.473 0.217Q0.491 0.235 0.491 0.267V0.345Q0.491 0.353 0.499 0.353Q0.507 0.353 0.507 0.345V0.266Q0.507 0.237 0.527 0.218Q0.546 0.198 0.575 0.198Q0.604 0.198 0.623 0.218Q0.642 0.237 0.642 0.266V0.396Q0.642 0.406 0.641 0.415Q0.657 0.434 0.657 0.460Q0.657 0.475 0.653 0.487Q0.657 0.498 0.657 0.511Q0.657 0.520 0.656 0.528Q0.657 0.535 0.657 0.542Q0.657 0.557 0.653 0.569Q0.657 0.581 0.657 0.593ZM0.624 0.542Q0.624 0.527 0.615 0.518Q0.605 0.508 0.590 0.508H0.534V0.495H0.590Q0.624 0.495 0.624 0.460Q0.624 0.445 0.615 0.436Q0.605 0.426 0.590 0.426H0.574Q0.609 0.393 0.609 0.345V0.266Q0.609 0.251 0.600 0.241Q0.590 0.231 0.575 0.231Q0.559 0.231 0.550 0.241Q0.541 0.251 0.541 0.266V0.345Q0.541 0.362 0.529 0.374Q0.517 0.386 0.499 0.386Q0.482 0.386 0.470 0.374Q0.458 0.362 0.458 0.345V0.267Q0.458 0.232 0.423 0.232Q0.408 0.232 0.399 0.242Q0.389 0.251 0.389 0.267V0.345Q0.389 0.393 0.425 0.426H0.410Q0.395 0.426 0.385 0.436Q0.376 0.445 0.376 0.460Q0.376 0.476 0.385 0.485Q0.395 0.495 0.410 0.495H0.466V0.508H0.410Q0.395 0.508 0.385 0.518Q0.376 0.527 0.376 0.542Q0.376 0.558 0.385 0.567Q0.395 0.577 0.410 0.577H0.466V0.610Q0.466 0.625 0.475 0.635Q0.485 0.644 0.500 0.644Q0.516 0.644 0.525 0.635Q0.534 0.625 0.534 0.610V0.577H0.590Q0.624 0.577 0.624 0.542Z" fill="black"/>
</svg>
