<svg xmlns="http://www.w3.org/2000/svg" viewBox="0 0 1 1" preserveAspectRatio="xMidYMid meet">
  <path d="M0.686 0.427Q0.686 0.456 0.667 0.475Q0.648 0.494 0.619 0.494Q0.608 0.494 0.608 0.502V0.585Q0.608 0.645 0.567 0.687Q0.525 0.728 0.465 0.728H0.461Q0.434 0.728 0.415 0.711Q0.397 0.694 0.394 0.667Q0.389 0.668 0.385 0.668H0.381Q0.352 0.668 0.333 0.649Q0.314 0.629 0.314 0.600Q0.314 0.587 0.319 0.575Q0.314 0.563 0.314 0.549Q0.314 0.520 0.333 0.501Q0.352 0.482 0.381 0.482H0.385Q0.393 0.482 0.393 0.473V0.390Q0.393 0.330 0.435 0.289Q0.476 0.247 0.536 0.247Q0.565 0.247 0.584 0.264Q0.604 0.281 0.606 0.308Q0.611 0.308 0.616 0.308Q0.647 0.308 0.667 0.326Q0.686 0.345 0.686 0.376Q0.686 0.389 0.682 0.401Q0.686 0.413 0.686 0.427ZM0.653 0.376Q0.653 0.341 0.619 0.341H0.616Q0.569 0.341 0.538 0.373Q0.506 0.404 0.506 0.451V0.534Q0.506 0.551 0.494 0.563Q0.482 0.575 0.465 0.575H0.461Q0.446 0.575 0.437 0.585Q0.427 0.595 0.427 0.610Q0.427 0.625 0.437 0.635Q0.446 0.644 0.461 0.644H0.465Q0.512 0.644 0.543 0.613Q0.575 0.581 0.575 0.534V0.451Q0.575 0.434 0.587 0.422Q0.599 0.410 0.616 0.410H0.619Q0.634 0.410 0.643 0.400Q0.653 0.391 0.653 0.376ZM0.573 0.315Q0.573 0.300 0.564 0.290Q0.554 0.280 0.539 0.280H0.536Q0.489 0.280 0.458 0.312Q0.426 0.344 0.426 0.390V0.473Q0.426 0.491 0.414 0.503Q0.402 0.515 0.385 0.515H0.381Q0.366 0.515 0.357 0.524Q0.347 0.534 0.347 0.549Q0.347 0.565 0.357 0.574Q0.366 0.584 0.381 0.584H0.385Q0.432 0.584 0.463 0.552Q0.495 0.520 0.495 0.473V0.390Q0.495 0.373 0.507 0.361Q0.519 0.349 0.536 0.349H0.539Q0.554 0.349 0.564 0.340Q0.573 0.330 0.573 0.315Z" fill="black"/>
</svg>
