<svg xmlns="http://www.w3.org/2000/svg" viewBox="0 0 1 1" preserveAspectRatio="xMidYMid meet">
  <path d="M0.624 0.187Q0.624 0.219 0.602 0.241Q0.581 0.262 0.549 0.262Q0.521 0.262 0.500 0.245Q0.479 0.262 0.451 0.262Q0.420 0.262 0.398 0.241Q0.376 0.219 0.376 0.187Q0.376 0.174 0.380 0.162Q0.376 0.149 0.376 0.136Q0.376 0.105 0.398 0.083Q0.420 0.061 0.451 0.061Q0.479 0.061 0.500 0.079Q0.521 0.061 0.549 0.061Q0.580 0.061 0.602 0.083Q0.624 0.105 0.624 0.136Q0.624 0.150 0.620 0.162Q0.624 0.174 0.624 0.187ZM0.591 0.136Q0.591 0.119 0.579 0.107Q0.567 0.094 0.549 0.094Q0.531 0.094 0.519 0.106Q0.507 0.118 0.507 0.136Q0.507 0.154 0.519 0.166Q0.531 0.178 0.549 0.178Q0.567 0.178 0.579 0.166Q0.591 0.154 0.591 0.136ZM0.494 0.136Q0.494 0.119 0.481 0.107Q0.469 0.094 0.451 0.094Q0.434 0.094 0.422 0.107Q0.409 0.119 0.409 0.136Q0.409 0.154 0.421 0.166Q0.433 0.178 0.451 0.178Q0.469 0.178 0.481 0.166Q0.494 0.154 0.494 0.136Z" fill="black"/>
</svg>
