<svg xmlns="http://www.w3.org/2000/svg" viewBox="0 0 1 1" preserveAspectRatio="xMidYMid meet">
  <path d="M0.716 0.514Q0.716 0.604 0.653 0.667Q0.590 0.729 0.500 0.729Q0.409 0.729 0.347 0.667Q0.284 0.604 0.284 0.514Q0.284 0.501 0.286 0.488Q0.284 0.476 0.284 0.463Q0.284 0.372 0.347 0.310Q0.409 0.247 0.500 0.247Q0.591 0.247 0.653 0.310Q0.716 0.372 0.716 0.463Q0.716 0.476 0.714 0.489Q0.716 0.501 0.716 0.514ZM0.682 0.463Q0.682 0.386 0.630 0.333Q0.577 0.280 0.500 0.280Q0.423 0.280 0.370 0.333Q0.318 0.386 0.318 0.463Q0.318 0.540 0.370 0.593Q0.423 0.645 0.500 0.645Q0.577 0.645 0.630 0.593Q0.682 0.540 0.682 0.463ZM0.614 0.463Q0.614 0.511 0.581 0.544Q0.548 0.576 0.500 0.576Q0.452 0.576 0.419 0.544Q0.386 0.511 0.386 0.463Q0.386 0.414 0.419 0.381Q0.451 0.349 0.500 0.349Q0.548 0.349 0.581 0.382Q0.614 0.414 0.614 0.463ZM0.522 0.537Q0.522 0.519 0.506 0.519Q0.482 0.519 0.465 0.503Q0.449 0.487 0.449 0.463Q0.449 0.439 0.465 0.422Q0.482 0.406 0.506 0.406Q0.522 0.406 0.522 0.389Q0.522 0.372 0.506 0.372Q0.467 0.372 0.441 0.398Q0.414 0.425 0.414 0.463Q0.414 0.501 0.441 0.528Q0.467 0.554 0.506 0.554Q0.522 0.554 0.522 0.537Z" fill="black"/>
</svg>
