<svg xmlns="http://www.w3.org/2000/svg" viewBox="0 0 1 1" preserveAspectRatio="xMidYMid meet">
  <path d="M0.648 0.611Q0.648 0.638 0.627 0.659Q0.607 0.679 0.579 0.679Q0.552 0.679 0.524 0.651Q0.502 0.679 0.470 0.679Q0.445 0.679 0.417 0.655Q0.402 0.642 0.375 0.611Q0.352 0.585 0.352 0.561Q0.352 0.549 0.359 0.536Q0.352 0.522 0.352 0.510Q0.352 0.485 0.378 0.456Q0.400 0.434 0.421 0.413Q0.442 0.392 0.470 0.392Q0.503 0.392 0.524 0.420Q0.541 0.405 0.548 0.401Q0.562 0.392 0.579 0.392Q0.607 0.392 0.627 0.413Q0.648 0.433 0.648 0.461Q0.648 0.474 0.642 0.486Q0.648 0.498 0.648 0.512Q0.648 0.524 0.643 0.536Q0.648 0.547 0.648 0.560Q0.648 0.573 0.642 0.585Q0.648 0.597 0.648 0.611ZM0.614 0.560Q0.614 0.546 0.604 0.536L0.578 0.510L0.604 0.485Q0.614 0.474 0.614 0.461Q0.614 0.447 0.604 0.436Q0.593 0.426 0.579 0.426Q0.566 0.426 0.555 0.436L0.510 0.482Q0.495 0.496 0.495 0.510Q0.495 0.522 0.510 0.539Q0.510 0.539 0.555 0.584Q0.566 0.595 0.579 0.595Q0.593 0.595 0.604 0.584Q0.614 0.573 0.614 0.560ZM0.505 0.560Q0.505 0.546 0.494 0.536L0.469 0.510L0.494 0.485Q0.505 0.474 0.505 0.461Q0.505 0.447 0.494 0.436Q0.483 0.426 0.470 0.426Q0.456 0.426 0.445 0.436L0.400 0.482Q0.386 0.496 0.386 0.510Q0.386 0.521 0.400 0.539Q0.403 0.542 0.445 0.584Q0.456 0.595 0.470 0.595Q0.483 0.595 0.494 0.584Q0.505 0.573 0.505 0.560Z" fill="black"/>
</svg>
