<svg xmlns="http://www.w3.org/2000/svg" viewBox="0 0 1 1" preserveAspectRatio="xMidYMid meet">
  <path d="M0.842 0.429Q0.842 0.456 0.814 0.478Q0.818 0.484 0.818 0.490Q0.818 0.512 0.777 0.517Q0.778 0.521 0.778 0.525Q0.778 0.560 0.724 0.568Q0.717 0.607 0.668 0.607Q0.641 0.607 0.609 0.596V0.596Q0.607 0.595 0.603 0.593L0.558 0.621Q0.530 0.637 0.507 0.637Q0.474 0.637 0.423 0.606Q0.381 0.581 0.351 0.550Q0.302 0.585 0.265 0.585Q0.241 0.585 0.225 0.570Q0.202 0.558 0.202 0.539Q0.202 0.534 0.203 0.530Q0.174 0.517 0.158 0.500Q0.205 0.500 0.222 0.482Q0.182 0.483 0.172 0.437Q0.232 0.411 0.251 0.384Q0.188 0.389 0.168 0.346Q0.278 0.329 0.305 0.278Q0.326 0.218 0.374 0.168Q0.416 0.124 0.456 0.124Q0.476 0.124 0.496 0.136Q0.622 0.138 0.706 0.234Q0.741 0.274 0.764 0.330Q0.769 0.345 0.769 0.364Q0.769 0.388 0.760 0.410Q0.778 0.420 0.792 0.420Q0.818 0.420 0.822 0.386Q0.842 0.407 0.842 0.429ZM0.676 0.394Q0.667 0.359 0.649 0.329Q0.604 0.256 0.518 0.222Q0.421 0.236 0.408 0.327Q0.396 0.411 0.340 0.439Q0.336 0.440 0.325 0.444Q0.335 0.482 0.367 0.521Q0.397 0.556 0.434 0.581Q0.472 0.606 0.507 0.606Q0.542 0.606 0.580 0.581Q0.605 0.563 0.641 0.528Q0.665 0.503 0.672 0.466Q0.676 0.448 0.676 0.394ZM0.608 0.371Q0.607 0.371 0.606 0.371Q0.602 0.371 0.599 0.369Q0.589 0.362 0.578 0.362Q0.572 0.362 0.559 0.365Q0.546 0.367 0.539 0.367Q0.532 0.367 0.529 0.365Q0.539 0.354 0.562 0.354Q0.573 0.354 0.588 0.357Q0.607 0.362 0.608 0.371ZM0.615 0.420Q0.615 0.425 0.607 0.428Q0.599 0.430 0.594 0.430V0.436Q0.594 0.453 0.583 0.465Q0.571 0.476 0.554 0.476Q0.537 0.476 0.525 0.464Q0.514 0.453 0.514 0.436Q0.514 0.419 0.525 0.407Q0.537 0.396 0.554 0.395Q0.576 0.394 0.591 0.402Q0.595 0.404 0.598 0.404Q0.604 0.404 0.608 0.396Q0.611 0.401 0.611 0.404Q0.611 0.414 0.592 0.416Q0.599 0.420 0.607 0.420Q0.609 0.420 0.612 0.420Q0.615 0.419 0.615 0.420ZM0.496 0.362Q0.493 0.365 0.484 0.365Q0.478 0.365 0.466 0.363Q0.455 0.360 0.449 0.360Q0.436 0.360 0.426 0.369Q0.421 0.372 0.417 0.371Q0.418 0.362 0.439 0.356Q0.452 0.352 0.466 0.352Q0.486 0.352 0.496 0.362ZM0.503 0.436Q0.503 0.453 0.491 0.465Q0.480 0.476 0.462 0.476Q0.445 0.476 0.434 0.464Q0.422 0.453 0.422 0.436Q0.422 0.433 0.423 0.430Q0.417 0.430 0.410 0.428Q0.402 0.425 0.402 0.420Q0.402 0.419 0.405 0.420Q0.408 0.420 0.411 0.420Q0.418 0.420 0.426 0.416Q0.407 0.410 0.407 0.404Q0.407 0.401 0.409 0.396Q0.412 0.404 0.419 0.404Q0.422 0.404 0.426 0.402Q0.440 0.394 0.463 0.395Q0.480 0.396 0.491 0.407Q0.503 0.419 0.503 0.436ZM0.556 0.534H0.460Q0.476 0.506 0.507 0.506Q0.540 0.506 0.556 0.534ZM0.555 0.539Q0.550 0.555 0.537 0.565Q0.524 0.576 0.508 0.576Q0.492 0.576 0.479 0.565Q0.466 0.555 0.461 0.539H0.466Q0.482 0.550 0.508 0.550Q0.534 0.550 0.547 0.539ZM0.556 0.412Q0.556 0.405 0.548 0.405Q0.541 0.405 0.541 0.412Q0.541 0.419 0.548 0.419Q0.556 0.419 0.556 0.412ZM0.532 0.419Q0.532 0.415 0.528 0.415Q0.524 0.415 0.524 0.419Q0.524 0.423 0.528 0.423Q0.532 0.423 0.532 0.419ZM0.554 0.437Q0.554 0.424 0.541 0.424Q0.528 0.424 0.528 0.437Q0.528 0.450 0.541 0.450Q0.554 0.450 0.554 0.437ZM0.462 0.412Q0.462 0.405 0.455 0.405Q0.448 0.405 0.448 0.412Q0.448 0.419 0.455 0.419Q0.462 0.419 0.462 0.412ZM0.439 0.419Q0.439 0.415 0.435 0.415Q0.431 0.415 0.431 0.419Q0.431 0.423 0.435 0.423Q0.439 0.423 0.439 0.419ZM0.461 0.437Q0.461 0.424 0.448 0.424Q0.435 0.424 0.435 0.437Q0.435 0.450 0.448 0.450Q0.461 0.450 0.461 0.437Z" fill="black"/>
</svg>
