<svg xmlns="http://www.w3.org/2000/svg" viewBox="0 0 1 1" preserveAspectRatio="xMidYMid meet">
  <path d="M0.716 0.514Q0.716 0.604 0.653 0.667Q0.590 0.729 0.500 0.729Q0.409 0.729 0.347 0.667Q0.284 0.604 0.284 0.514Q0.284 0.501 0.286 0.488Q0.284 0.476 0.284 0.463Q0.284 0.372 0.347 0.310Q0.409 0.247 0.500 0.247Q0.591 0.247 0.653 0.310Q0.716 0.372 0.716 0.463Q0.716 0.476 0.714 0.489Q0.716 0.501 0.716 0.514ZM0.682 0.463Q0.682 0.386 0.630 0.333Q0.577 0.280 0.500 0.280Q0.423 0.280 0.370 0.333Q0.318 0.386 0.318 0.463Q0.318 0.540 0.370 0.593Q0.423 0.645 0.500 0.645Q0.577 0.645 0.630 0.593Q0.682 0.540 0.682 0.463ZM0.614 0.463Q0.614 0.511 0.581 0.544Q0.548 0.576 0.500 0.576Q0.452 0.576 0.419 0.544Q0.386 0.511 0.386 0.463Q0.386 0.414 0.419 0.381Q0.451 0.349 0.500 0.349Q0.548 0.349 0.581 0.382Q0.614 0.414 0.614 0.463ZM0.564 0.436Q0.564 0.409 0.545 0.390Q0.525 0.371 0.498 0.371Q0.471 0.371 0.453 0.390Q0.434 0.409 0.434 0.436V0.536Q0.434 0.553 0.451 0.553Q0.468 0.553 0.468 0.536V0.436Q0.468 0.424 0.477 0.415Q0.486 0.406 0.498 0.406Q0.511 0.406 0.520 0.415Q0.530 0.424 0.530 0.436Q0.530 0.449 0.520 0.458Q0.511 0.467 0.498 0.467Q0.492 0.467 0.487 0.472Q0.482 0.478 0.482 0.484L0.481 0.498Q0.480 0.521 0.497 0.537Q0.513 0.554 0.536 0.554Q0.554 0.554 0.554 0.536Q0.554 0.519 0.536 0.519Q0.517 0.519 0.516 0.499Q0.537 0.493 0.550 0.476Q0.564 0.458 0.564 0.436Z" fill="black"/>
</svg>
