<svg xmlns="http://www.w3.org/2000/svg" viewBox="0 0 1 1" preserveAspectRatio="xMidYMid meet">
  <path d="M0.625 0.297Q0.625 0.326 0.605 0.345Q0.586 0.364 0.557 0.364H0.443Q0.414 0.364 0.395 0.345Q0.375 0.326 0.375 0.297Q0.375 0.283 0.380 0.271Q0.375 0.259 0.375 0.246Q0.375 0.217 0.395 0.198Q0.414 0.178 0.443 0.178H0.557Q0.586 0.178 0.605 0.198Q0.625 0.217 0.625 0.246Q0.625 0.259 0.620 0.271Q0.625 0.283 0.625 0.297ZM0.591 0.246Q0.591 0.230 0.582 0.221Q0.572 0.212 0.557 0.212H0.443Q0.428 0.212 0.418 0.221Q0.409 0.230 0.409 0.246Q0.409 0.261 0.418 0.271Q0.428 0.280 0.443 0.280H0.557Q0.572 0.280 0.582 0.271Q0.591 0.261 0.591 0.246Z" fill="black"/>
</svg>
