<svg xmlns="http://www.w3.org/2000/svg" viewBox="0 0 1 1" preserveAspectRatio="xMidYMid meet">
  <path d="M0.586 0.384Q0.586 0.420 0.561 0.445Q0.536 0.470 0.500 0.470Q0.464 0.470 0.439 0.445Q0.414 0.420 0.414 0.384Q0.414 0.371 0.417 0.359Q0.414 0.347 0.414 0.333Q0.414 0.298 0.439 0.272Q0.464 0.247 0.500 0.247Q0.536 0.247 0.561 0.272Q0.586 0.298 0.586 0.333Q0.586 0.347 0.583 0.359Q0.586 0.371 0.586 0.384ZM0.553 0.333Q0.553 0.311 0.537 0.296Q0.522 0.280 0.500 0.280Q0.478 0.280 0.463 0.296Q0.447 0.311 0.447 0.333Q0.447 0.355 0.463 0.371Q0.478 0.386 0.500 0.386Q0.522 0.386 0.537 0.371Q0.553 0.355 0.553 0.333ZM0.515 0.333Q0.515 0.348 0.500 0.348Q0.485 0.348 0.485 0.333Q0.485 0.319 0.500 0.319Q0.515 0.319 0.515 0.333Z" fill="black"/>
</svg>
