<svg xmlns="http://www.w3.org/2000/svg" viewBox="0 0 1 1" preserveAspectRatio="xMidYMid meet">
  <path d="M0.631 0.656Q0.631 0.687 0.613 0.705Q0.595 0.724 0.564 0.724H0.436Q0.407 0.724 0.388 0.704Q0.369 0.685 0.369 0.656Q0.369 0.643 0.374 0.630Q0.369 0.618 0.369 0.605Q0.369 0.577 0.387 0.558Q0.369 0.538 0.369 0.510Q0.369 0.497 0.374 0.485Q0.369 0.472 0.369 0.459Q0.369 0.432 0.387 0.413Q0.405 0.393 0.432 0.392Q0.434 0.363 0.452 0.346Q0.470 0.329 0.500 0.329Q0.528 0.329 0.547 0.347Q0.566 0.364 0.567 0.392Q0.595 0.393 0.613 0.413Q0.630 0.432 0.630 0.459Q0.630 0.473 0.626 0.486Q0.630 0.497 0.630 0.510Q0.630 0.540 0.613 0.559Q0.631 0.577 0.631 0.605Q0.631 0.619 0.627 0.631Q0.631 0.643 0.631 0.656ZM0.597 0.459Q0.597 0.444 0.588 0.435Q0.578 0.425 0.563 0.425H0.534V0.396Q0.534 0.381 0.525 0.371Q0.515 0.362 0.500 0.362Q0.465 0.362 0.465 0.396V0.425H0.436Q0.421 0.425 0.412 0.435Q0.402 0.444 0.402 0.459Q0.402 0.475 0.412 0.484Q0.421 0.494 0.436 0.494H0.465V0.523Q0.465 0.538 0.475 0.548Q0.485 0.557 0.500 0.557Q0.515 0.557 0.525 0.548Q0.534 0.538 0.534 0.523V0.494H0.563Q0.597 0.494 0.597 0.459ZM0.598 0.605Q0.598 0.590 0.588 0.580Q0.579 0.571 0.564 0.571H0.436Q0.421 0.571 0.412 0.580Q0.402 0.590 0.402 0.605Q0.402 0.620 0.412 0.630Q0.421 0.640 0.436 0.640H0.564Q0.598 0.640 0.598 0.605Z" fill="black"/>
</svg>
