<svg xmlns="http://www.w3.org/2000/svg" viewBox="0 0 1 1" preserveAspectRatio="xMidYMid meet">
  <path d="M0.587 0.131Q0.587 0.146 0.582 0.160Q0.572 0.184 0.563 0.208Q0.551 0.234 0.536 0.248Q0.517 0.265 0.488 0.265Q0.457 0.265 0.435 0.243Q0.413 0.221 0.413 0.189Q0.413 0.178 0.417 0.164Q0.413 0.151 0.413 0.138Q0.413 0.121 0.425 0.092Q0.433 0.072 0.442 0.051Q0.462 0.005 0.512 0.005Q0.544 0.005 0.565 0.027Q0.587 0.048 0.587 0.081Q0.587 0.093 0.583 0.106Q0.587 0.118 0.587 0.131ZM0.554 0.081Q0.554 0.052 0.528 0.041Q0.520 0.038 0.512 0.038Q0.484 0.038 0.473 0.064L0.449 0.122Q0.446 0.129 0.446 0.138Q0.446 0.166 0.472 0.177Q0.480 0.180 0.488 0.180Q0.516 0.180 0.527 0.154L0.551 0.096Q0.554 0.089 0.554 0.081Z" fill="black"/>
</svg>
