<svg xmlns="http://www.w3.org/2000/svg" viewBox="0 0 1 1" preserveAspectRatio="xMidYMid meet">
  <path d="M0.692 0.661Q0.692 0.690 0.673 0.709Q0.653 0.728 0.624 0.728H0.602Q0.560 0.728 0.527 0.707Q0.493 0.728 0.451 0.728Q0.447 0.728 0.443 0.728V0.774Q0.443 0.803 0.424 0.822Q0.405 0.841 0.376 0.841Q0.347 0.841 0.327 0.822Q0.308 0.803 0.308 0.774V0.419Q0.308 0.390 0.327 0.371Q0.346 0.352 0.375 0.352Q0.406 0.352 0.425 0.370Q0.443 0.388 0.443 0.419V0.534Q0.443 0.542 0.451 0.542Q0.459 0.542 0.459 0.534V0.419Q0.459 0.390 0.478 0.371Q0.497 0.352 0.527 0.352Q0.556 0.352 0.575 0.371Q0.594 0.390 0.594 0.419V0.534Q0.594 0.542 0.602 0.542H0.624Q0.653 0.542 0.673 0.562Q0.692 0.581 0.692 0.610Q0.692 0.624 0.688 0.636Q0.692 0.648 0.692 0.661ZM0.659 0.610Q0.659 0.595 0.649 0.585Q0.640 0.575 0.624 0.575H0.602Q0.585 0.575 0.573 0.563Q0.561 0.551 0.561 0.534V0.419Q0.561 0.404 0.551 0.394Q0.542 0.385 0.527 0.385Q0.511 0.385 0.502 0.394Q0.492 0.404 0.492 0.419V0.534Q0.492 0.551 0.480 0.563Q0.468 0.575 0.451 0.575Q0.434 0.575 0.422 0.563Q0.410 0.551 0.410 0.534V0.419Q0.410 0.385 0.375 0.385Q0.360 0.385 0.350 0.394Q0.341 0.404 0.341 0.419V0.723Q0.341 0.738 0.351 0.747Q0.360 0.757 0.376 0.757Q0.391 0.757 0.400 0.747Q0.410 0.738 0.410 0.723V0.637Q0.429 0.644 0.451 0.644Q0.495 0.644 0.527 0.614Q0.558 0.644 0.602 0.644H0.624Q0.640 0.644 0.649 0.635Q0.659 0.625 0.659 0.610Z" fill="black"/>
</svg>
