<svg xmlns="http://www.w3.org/2000/svg" viewBox="0 0 1 1" preserveAspectRatio="xMidYMid meet">
  <path d="M0.696 0.661Q0.696 0.690 0.677 0.709Q0.657 0.728 0.628 0.728Q0.607 0.728 0.590 0.717Q0.573 0.706 0.565 0.686Q0.558 0.705 0.541 0.717Q0.523 0.728 0.502 0.728Q0.473 0.728 0.454 0.709Q0.435 0.690 0.435 0.661V0.622Q0.377 0.611 0.340 0.566Q0.304 0.520 0.304 0.461Q0.304 0.449 0.306 0.436Q0.304 0.423 0.304 0.410Q0.304 0.341 0.351 0.294Q0.398 0.247 0.467 0.247H0.630Q0.659 0.247 0.677 0.267Q0.696 0.286 0.696 0.314ZM0.663 0.610V0.314Q0.663 0.300 0.654 0.290Q0.645 0.280 0.630 0.280H0.467Q0.412 0.280 0.374 0.318Q0.337 0.355 0.337 0.410Q0.337 0.466 0.374 0.503Q0.412 0.541 0.467 0.541H0.468V0.610Q0.468 0.625 0.477 0.635Q0.487 0.644 0.502 0.644Q0.517 0.644 0.527 0.635Q0.537 0.625 0.537 0.610V0.349H0.594V0.610Q0.594 0.625 0.604 0.635Q0.613 0.644 0.628 0.644Q0.644 0.644 0.653 0.635Q0.663 0.625 0.663 0.610ZM0.468 0.472H0.467Q0.442 0.472 0.424 0.454Q0.406 0.436 0.406 0.410Q0.406 0.385 0.424 0.367Q0.442 0.349 0.467 0.349H0.468Z" fill="black"/>
</svg>
