<svg xmlns="http://www.w3.org/2000/svg" viewBox="0 0 1 1" preserveAspectRatio="xMidYMid meet">
  <path d="M0.575 0.648Q0.575 0.680 0.554 0.702Q0.532 0.724 0.500 0.724Q0.468 0.724 0.446 0.702Q0.425 0.680 0.425 0.648Q0.425 0.635 0.429 0.623Q0.425 0.611 0.425 0.597Q0.425 0.566 0.447 0.544Q0.469 0.522 0.500 0.522Q0.531 0.522 0.553 0.544Q0.575 0.566 0.575 0.597Q0.575 0.611 0.571 0.623Q0.575 0.635 0.575 0.648ZM0.542 0.597Q0.542 0.580 0.530 0.568Q0.517 0.556 0.500 0.556Q0.483 0.556 0.470 0.568Q0.458 0.580 0.458 0.597Q0.458 0.615 0.470 0.627Q0.482 0.640 0.500 0.640Q0.518 0.640 0.530 0.627Q0.542 0.615 0.542 0.597Z" fill="black"/>
</svg>
