<svg xmlns="http://www.w3.org/2000/svg" viewBox="0 0 1 1" preserveAspectRatio="xMidYMid meet">
  <path d="M0.648 0.561Q0.648 0.585 0.624 0.612Q0.595 0.645 0.583 0.655Q0.555 0.679 0.531 0.679Q0.497 0.679 0.477 0.652Q0.447 0.679 0.421 0.679Q0.393 0.679 0.373 0.659Q0.352 0.639 0.352 0.611Q0.352 0.597 0.357 0.585Q0.352 0.573 0.352 0.560Q0.352 0.547 0.357 0.536Q0.352 0.524 0.352 0.512Q0.352 0.498 0.357 0.486Q0.352 0.474 0.352 0.461Q0.352 0.433 0.373 0.413Q0.393 0.392 0.421 0.392Q0.448 0.392 0.477 0.419Q0.497 0.392 0.531 0.392Q0.556 0.392 0.583 0.416Q0.603 0.437 0.623 0.458Q0.648 0.484 0.648 0.510Q0.648 0.522 0.642 0.535Q0.648 0.548 0.648 0.561ZM0.615 0.510Q0.615 0.497 0.599 0.482L0.555 0.436Q0.544 0.426 0.531 0.426Q0.516 0.426 0.506 0.436Q0.495 0.446 0.495 0.461Q0.495 0.474 0.506 0.485L0.531 0.510L0.506 0.536Q0.495 0.546 0.495 0.560Q0.495 0.574 0.506 0.584Q0.516 0.595 0.531 0.595Q0.544 0.595 0.555 0.584L0.599 0.539Q0.615 0.521 0.615 0.510ZM0.505 0.510Q0.505 0.497 0.490 0.482L0.445 0.436Q0.434 0.426 0.421 0.426Q0.407 0.426 0.396 0.436Q0.385 0.446 0.385 0.461Q0.385 0.474 0.396 0.485L0.422 0.510L0.396 0.536Q0.385 0.546 0.385 0.560Q0.385 0.574 0.396 0.584Q0.407 0.595 0.421 0.595Q0.434 0.595 0.445 0.584L0.490 0.539Q0.505 0.521 0.505 0.510Z" fill="black"/>
</svg>
