<svg xmlns="http://www.w3.org/2000/svg" viewBox="0 0 1 1" preserveAspectRatio="xMidYMid meet">
  <path d="M0.663 0.562Q0.663 0.631 0.616 0.678Q0.569 0.726 0.500 0.726Q0.430 0.726 0.384 0.679Q0.337 0.631 0.337 0.562Q0.337 0.549 0.339 0.537Q0.337 0.524 0.337 0.511Q0.337 0.453 0.372 0.409Q0.407 0.364 0.463 0.352Q0.464 0.350 0.464 0.348Q0.460 0.335 0.460 0.322Q0.460 0.291 0.482 0.269Q0.504 0.247 0.535 0.247Q0.567 0.247 0.588 0.269Q0.610 0.291 0.610 0.322Q0.610 0.336 0.606 0.348Q0.610 0.360 0.610 0.373Q0.610 0.387 0.606 0.399Q0.608 0.407 0.608 0.415Q0.608 0.429 0.603 0.441Q0.604 0.443 0.604 0.444Q0.630 0.448 0.647 0.466Q0.663 0.485 0.663 0.511Q0.663 0.528 0.661 0.542Q0.663 0.552 0.663 0.562ZM0.577 0.322Q0.577 0.305 0.565 0.293Q0.553 0.280 0.535 0.280Q0.518 0.280 0.505 0.292Q0.493 0.304 0.493 0.322Q0.493 0.340 0.505 0.352Q0.518 0.364 0.535 0.364Q0.553 0.364 0.565 0.352Q0.577 0.340 0.577 0.322ZM0.630 0.511Q0.630 0.496 0.621 0.486Q0.611 0.477 0.596 0.477Q0.581 0.477 0.571 0.487Q0.561 0.496 0.561 0.511Q0.561 0.537 0.543 0.555Q0.525 0.573 0.500 0.573Q0.474 0.573 0.456 0.555Q0.439 0.537 0.439 0.511Q0.439 0.486 0.457 0.468Q0.475 0.450 0.500 0.450H0.541Q0.556 0.450 0.565 0.440Q0.575 0.431 0.575 0.415Q0.575 0.400 0.565 0.391Q0.555 0.381 0.540 0.381H0.500Q0.445 0.381 0.407 0.419Q0.370 0.456 0.370 0.511Q0.370 0.567 0.407 0.604Q0.444 0.642 0.500 0.642Q0.555 0.642 0.593 0.604Q0.630 0.567 0.630 0.511ZM0.517 0.534H0.500Q0.493 0.534 0.488 0.537Q0.493 0.540 0.500 0.540Q0.509 0.540 0.517 0.534Z" fill="black"/>
</svg>
