<svg xmlns="http://www.w3.org/2000/svg" viewBox="0 0 1 1" preserveAspectRatio="xMidYMid meet">
  <path d="M0.702 0.773Q0.702 0.802 0.683 0.821Q0.663 0.840 0.635 0.840Q0.573 0.840 0.531 0.799Q0.490 0.758 0.490 0.697V0.622Q0.475 0.625 0.461 0.625Q0.446 0.625 0.433 0.619V0.661Q0.433 0.690 0.414 0.709Q0.394 0.728 0.365 0.728Q0.336 0.728 0.317 0.709Q0.298 0.690 0.298 0.661V0.410Q0.298 0.341 0.345 0.294Q0.392 0.247 0.461 0.247Q0.530 0.247 0.577 0.294Q0.625 0.341 0.625 0.410V0.646Q0.625 0.654 0.632 0.654Q0.662 0.654 0.682 0.673Q0.702 0.692 0.702 0.722Q0.702 0.735 0.698 0.747Q0.702 0.759 0.702 0.773ZM0.474 0.436Q0.468 0.433 0.461 0.433Q0.449 0.433 0.441 0.442Q0.452 0.441 0.474 0.436ZM0.669 0.722Q0.669 0.707 0.660 0.697Q0.650 0.688 0.635 0.688H0.632Q0.615 0.688 0.603 0.676Q0.591 0.664 0.591 0.646V0.410Q0.591 0.355 0.554 0.318Q0.517 0.280 0.461 0.280Q0.405 0.280 0.368 0.318Q0.331 0.355 0.331 0.410V0.610Q0.331 0.625 0.340 0.635Q0.350 0.644 0.365 0.644Q0.380 0.644 0.390 0.635Q0.400 0.625 0.400 0.610V0.410Q0.400 0.385 0.418 0.367Q0.436 0.349 0.461 0.349Q0.486 0.349 0.505 0.367Q0.523 0.385 0.523 0.410Q0.523 0.436 0.505 0.454Q0.486 0.472 0.461 0.472Q0.446 0.472 0.436 0.481Q0.427 0.491 0.427 0.506Q0.427 0.521 0.436 0.531Q0.446 0.541 0.461 0.541Q0.494 0.541 0.523 0.525V0.646Q0.523 0.693 0.554 0.725Q0.585 0.756 0.632 0.756H0.635Q0.650 0.756 0.659 0.747Q0.669 0.737 0.669 0.722ZM0.581 0.156Q0.581 0.188 0.560 0.210Q0.538 0.232 0.506 0.232Q0.478 0.232 0.457 0.214Q0.437 0.232 0.409 0.232Q0.377 0.232 0.355 0.210Q0.333 0.188 0.333 0.156Q0.333 0.143 0.338 0.131Q0.333 0.119 0.333 0.106Q0.333 0.074 0.355 0.052Q0.377 0.031 0.409 0.031Q0.436 0.031 0.457 0.048Q0.478 0.031 0.506 0.031Q0.537 0.031 0.559 0.052Q0.581 0.074 0.581 0.106Q0.581 0.119 0.577 0.131Q0.581 0.143 0.581 0.156ZM0.548 0.106Q0.548 0.088 0.536 0.076Q0.524 0.064 0.506 0.064Q0.489 0.064 0.476 0.076Q0.464 0.088 0.464 0.106Q0.464 0.123 0.476 0.136Q0.489 0.148 0.506 0.148Q0.524 0.148 0.536 0.136Q0.548 0.123 0.548 0.106ZM0.451 0.106Q0.451 0.088 0.438 0.076Q0.426 0.064 0.409 0.064Q0.391 0.064 0.379 0.076Q0.366 0.088 0.366 0.106Q0.366 0.123 0.378 0.136Q0.391 0.148 0.409 0.148Q0.426 0.148 0.439 0.136Q0.451 0.123 0.451 0.106Z" fill="black"/>
</svg>
