<svg xmlns="http://www.w3.org/2000/svg" viewBox="0 0 1 1" preserveAspectRatio="xMidYMid meet">
  <path d="M0.702 0.773Q0.702 0.802 0.683 0.821Q0.663 0.840 0.635 0.840Q0.573 0.840 0.531 0.799Q0.490 0.758 0.490 0.697V0.622Q0.475 0.625 0.461 0.625Q0.446 0.625 0.433 0.619V0.661Q0.433 0.690 0.414 0.709Q0.394 0.728 0.365 0.728Q0.336 0.728 0.317 0.709Q0.298 0.690 0.298 0.661V0.410Q0.298 0.341 0.345 0.294Q0.392 0.247 0.461 0.247Q0.530 0.247 0.577 0.294Q0.625 0.341 0.625 0.410V0.646Q0.625 0.654 0.632 0.654Q0.662 0.654 0.682 0.673Q0.702 0.692 0.702 0.722Q0.702 0.735 0.698 0.747Q0.702 0.759 0.702 0.773ZM0.474 0.436Q0.468 0.433 0.461 0.433Q0.449 0.433 0.441 0.442Q0.452 0.441 0.474 0.436ZM0.669 0.722Q0.669 0.707 0.660 0.697Q0.650 0.688 0.635 0.688H0.632Q0.615 0.688 0.603 0.676Q0.591 0.664 0.591 0.646V0.410Q0.591 0.355 0.554 0.318Q0.517 0.280 0.461 0.280Q0.405 0.280 0.368 0.318Q0.331 0.355 0.331 0.410V0.610Q0.331 0.625 0.340 0.635Q0.350 0.644 0.365 0.644Q0.380 0.644 0.390 0.635Q0.400 0.625 0.400 0.610V0.410Q0.400 0.385 0.418 0.367Q0.436 0.349 0.461 0.349Q0.486 0.349 0.505 0.367Q0.523 0.385 0.523 0.410Q0.523 0.436 0.505 0.454Q0.486 0.472 0.461 0.472Q0.446 0.472 0.436 0.481Q0.427 0.491 0.427 0.506Q0.427 0.521 0.436 0.531Q0.446 0.541 0.461 0.541Q0.494 0.541 0.523 0.525V0.646Q0.523 0.693 0.554 0.725Q0.585 0.756 0.632 0.756H0.635Q0.650 0.756 0.659 0.747Q0.669 0.737 0.669 0.722ZM0.536 0.252Q0.536 0.287 0.511 0.313Q0.485 0.338 0.450 0.338Q0.414 0.338 0.389 0.313Q0.364 0.287 0.364 0.252Q0.364 0.239 0.367 0.226Q0.364 0.214 0.364 0.201Q0.364 0.165 0.389 0.140Q0.414 0.115 0.450 0.115Q0.485 0.115 0.511 0.140Q0.536 0.165 0.536 0.201Q0.536 0.214 0.532 0.226Q0.536 0.239 0.536 0.252ZM0.503 0.201Q0.503 0.179 0.487 0.163Q0.472 0.148 0.450 0.148Q0.428 0.148 0.412 0.163Q0.397 0.179 0.397 0.201Q0.397 0.223 0.412 0.238Q0.428 0.254 0.450 0.254Q0.472 0.254 0.487 0.238Q0.503 0.223 0.503 0.201ZM0.465 0.201Q0.465 0.216 0.450 0.216Q0.435 0.216 0.435 0.201Q0.435 0.186 0.450 0.186Q0.465 0.186 0.465 0.201Z" fill="black"/>
</svg>
