<svg xmlns="http://www.w3.org/2000/svg" viewBox="0 0 1 1" preserveAspectRatio="xMidYMid meet">
  <path d="M0.642 0.662Q0.642 0.691 0.622 0.710Q0.609 0.724 0.590 0.728Q0.594 0.739 0.594 0.751Q0.594 0.782 0.572 0.804Q0.550 0.826 0.519 0.826Q0.488 0.826 0.466 0.804Q0.443 0.782 0.443 0.751Q0.443 0.738 0.448 0.725Q0.443 0.713 0.443 0.700Q0.443 0.694 0.444 0.687Q0.404 0.657 0.381 0.612Q0.358 0.567 0.358 0.514Q0.358 0.501 0.360 0.488Q0.358 0.476 0.358 0.463Q0.358 0.372 0.421 0.310Q0.483 0.247 0.574 0.247Q0.603 0.247 0.622 0.266Q0.642 0.285 0.642 0.314Q0.642 0.328 0.637 0.340Q0.642 0.352 0.642 0.365Q0.642 0.394 0.622 0.414Q0.603 0.433 0.575 0.433Q0.546 0.433 0.526 0.448Q0.505 0.463 0.497 0.488Q0.505 0.513 0.526 0.528Q0.546 0.543 0.575 0.543Q0.603 0.543 0.622 0.563Q0.642 0.582 0.642 0.611Q0.642 0.625 0.637 0.637Q0.642 0.649 0.642 0.662ZM0.609 0.611Q0.609 0.596 0.599 0.586Q0.589 0.576 0.574 0.576Q0.525 0.576 0.493 0.544Q0.460 0.511 0.460 0.463Q0.460 0.414 0.493 0.382Q0.525 0.349 0.574 0.349Q0.589 0.349 0.599 0.339Q0.609 0.330 0.609 0.314Q0.609 0.299 0.599 0.290Q0.589 0.280 0.574 0.280Q0.497 0.280 0.444 0.333Q0.391 0.386 0.391 0.463Q0.391 0.540 0.444 0.593Q0.497 0.645 0.574 0.645Q0.589 0.645 0.599 0.636Q0.609 0.626 0.609 0.611ZM0.561 0.700Q0.561 0.682 0.548 0.670Q0.536 0.657 0.519 0.657Q0.502 0.657 0.489 0.670Q0.477 0.682 0.477 0.700Q0.477 0.717 0.489 0.730Q0.502 0.742 0.519 0.742Q0.536 0.742 0.548 0.730Q0.561 0.717 0.561 0.700Z" fill="black"/>
</svg>
