<svg xmlns="http://www.w3.org/2000/svg" viewBox="0 0 1 1" preserveAspectRatio="xMidYMid meet">
  <path d="M0.642 0.662Q0.642 0.691 0.622 0.710Q0.603 0.729 0.574 0.729Q0.483 0.729 0.421 0.667Q0.358 0.604 0.358 0.514Q0.358 0.501 0.360 0.488Q0.358 0.476 0.358 0.463Q0.358 0.372 0.421 0.310Q0.483 0.247 0.574 0.247Q0.603 0.247 0.622 0.266Q0.642 0.285 0.642 0.314Q0.642 0.328 0.637 0.340Q0.642 0.352 0.642 0.365Q0.642 0.393 0.623 0.413Q0.642 0.432 0.642 0.460Q0.642 0.473 0.637 0.486Q0.642 0.498 0.642 0.511Q0.642 0.542 0.621 0.561Q0.642 0.581 0.642 0.611Q0.642 0.624 0.637 0.637Q0.642 0.649 0.642 0.662ZM0.609 0.611Q0.609 0.596 0.599 0.586Q0.589 0.576 0.574 0.576Q0.536 0.576 0.506 0.554Q0.476 0.531 0.465 0.495H0.574Q0.589 0.495 0.599 0.485Q0.609 0.476 0.609 0.460Q0.609 0.445 0.599 0.436Q0.589 0.426 0.574 0.426H0.466Q0.478 0.391 0.508 0.370Q0.537 0.349 0.574 0.349Q0.589 0.349 0.599 0.339Q0.609 0.330 0.609 0.314Q0.609 0.299 0.599 0.290Q0.589 0.280 0.574 0.280Q0.497 0.280 0.444 0.333Q0.391 0.386 0.391 0.463Q0.391 0.540 0.444 0.593Q0.497 0.645 0.574 0.645Q0.589 0.645 0.599 0.636Q0.609 0.626 0.609 0.611ZM0.594 0.204Q0.594 0.254 0.548 0.274Q0.533 0.280 0.518 0.280Q0.490 0.280 0.470 0.263Q0.456 0.250 0.444 0.223Q0.434 0.199 0.425 0.175Q0.419 0.162 0.419 0.147Q0.419 0.133 0.424 0.121Q0.419 0.109 0.419 0.096Q0.419 0.063 0.441 0.042Q0.463 0.020 0.494 0.020Q0.523 0.020 0.542 0.037Q0.557 0.050 0.569 0.077Q0.578 0.100 0.588 0.124Q0.594 0.138 0.594 0.153Q0.594 0.167 0.590 0.179Q0.594 0.191 0.594 0.204ZM0.561 0.153Q0.561 0.144 0.558 0.137L0.534 0.080Q0.523 0.054 0.494 0.054Q0.486 0.054 0.479 0.057Q0.453 0.067 0.453 0.096Q0.453 0.104 0.456 0.112L0.480 0.170Q0.490 0.196 0.518 0.196Q0.527 0.196 0.535 0.192Q0.561 0.181 0.561 0.153Z" fill="black"/>
</svg>
