<svg xmlns="http://www.w3.org/2000/svg" viewBox="0 0 1 1" preserveAspectRatio="xMidYMid meet">
  <path d="M0.642 0.662Q0.642 0.691 0.622 0.710Q0.603 0.729 0.574 0.729Q0.483 0.729 0.421 0.667Q0.358 0.604 0.358 0.514Q0.358 0.501 0.360 0.488Q0.358 0.476 0.358 0.463Q0.358 0.372 0.421 0.310Q0.483 0.247 0.574 0.247Q0.603 0.247 0.622 0.266Q0.642 0.285 0.642 0.314Q0.642 0.328 0.637 0.340Q0.642 0.352 0.642 0.365Q0.642 0.393 0.623 0.413Q0.642 0.432 0.642 0.460Q0.642 0.473 0.637 0.486Q0.642 0.498 0.642 0.511Q0.642 0.542 0.621 0.561Q0.642 0.581 0.642 0.611Q0.642 0.624 0.637 0.637Q0.642 0.649 0.642 0.662ZM0.609 0.611Q0.609 0.596 0.599 0.586Q0.589 0.576 0.574 0.576Q0.536 0.576 0.506 0.554Q0.476 0.531 0.465 0.495H0.574Q0.589 0.495 0.599 0.485Q0.609 0.476 0.609 0.460Q0.609 0.445 0.599 0.436Q0.589 0.426 0.574 0.426H0.466Q0.478 0.391 0.508 0.370Q0.537 0.349 0.574 0.349Q0.589 0.349 0.599 0.339Q0.609 0.330 0.609 0.314Q0.609 0.299 0.599 0.290Q0.589 0.280 0.574 0.280Q0.497 0.280 0.444 0.333Q0.391 0.386 0.391 0.463Q0.391 0.540 0.444 0.593Q0.497 0.645 0.574 0.645Q0.589 0.645 0.599 0.636Q0.609 0.626 0.609 0.611ZM0.575 0.131Q0.575 0.146 0.569 0.160Q0.560 0.184 0.550 0.208Q0.539 0.234 0.523 0.248Q0.505 0.265 0.476 0.265Q0.444 0.265 0.423 0.243Q0.401 0.221 0.401 0.189Q0.401 0.178 0.405 0.164Q0.401 0.151 0.401 0.138Q0.401 0.121 0.412 0.092Q0.421 0.072 0.430 0.051Q0.450 0.005 0.499 0.005Q0.532 0.005 0.553 0.027Q0.575 0.048 0.575 0.081Q0.575 0.093 0.571 0.106Q0.575 0.118 0.575 0.131ZM0.542 0.081Q0.542 0.052 0.516 0.041Q0.508 0.038 0.499 0.038Q0.471 0.038 0.461 0.064L0.437 0.122Q0.434 0.129 0.434 0.138Q0.434 0.166 0.460 0.177Q0.468 0.180 0.476 0.180Q0.504 0.180 0.515 0.154L0.539 0.096Q0.542 0.089 0.542 0.081Z" fill="black"/>
</svg>
