<svg xmlns="http://www.w3.org/2000/svg" viewBox="0 0 1 1" preserveAspectRatio="xMidYMid meet">
  <path d="M0.642 0.662Q0.642 0.691 0.622 0.710Q0.603 0.729 0.574 0.729Q0.483 0.729 0.421 0.667Q0.358 0.604 0.358 0.514Q0.358 0.501 0.360 0.488Q0.358 0.476 0.358 0.463Q0.358 0.372 0.421 0.310Q0.483 0.247 0.574 0.247Q0.603 0.247 0.622 0.266Q0.642 0.285 0.642 0.314Q0.642 0.328 0.637 0.340Q0.642 0.352 0.642 0.365Q0.642 0.393 0.623 0.413Q0.642 0.432 0.642 0.460Q0.642 0.473 0.637 0.486Q0.642 0.498 0.642 0.511Q0.642 0.542 0.621 0.561Q0.642 0.581 0.642 0.611Q0.642 0.624 0.637 0.637Q0.642 0.649 0.642 0.662ZM0.609 0.611Q0.609 0.596 0.599 0.586Q0.589 0.576 0.574 0.576Q0.536 0.576 0.506 0.554Q0.476 0.531 0.465 0.495H0.574Q0.589 0.495 0.599 0.485Q0.609 0.476 0.609 0.460Q0.609 0.445 0.599 0.436Q0.589 0.426 0.574 0.426H0.466Q0.478 0.391 0.508 0.370Q0.537 0.349 0.574 0.349Q0.589 0.349 0.599 0.339Q0.609 0.330 0.609 0.314Q0.609 0.299 0.599 0.290Q0.589 0.280 0.574 0.280Q0.497 0.280 0.444 0.333Q0.391 0.386 0.391 0.463Q0.391 0.540 0.444 0.593Q0.497 0.645 0.574 0.645Q0.589 0.645 0.599 0.636Q0.609 0.626 0.609 0.611ZM0.636 0.204Q0.636 0.232 0.615 0.253Q0.595 0.273 0.567 0.273Q0.540 0.273 0.520 0.252H0.515Q0.494 0.273 0.468 0.273Q0.440 0.273 0.420 0.253Q0.400 0.232 0.400 0.204Q0.400 0.192 0.405 0.180Q0.400 0.167 0.400 0.153Q0.400 0.128 0.424 0.101Q0.433 0.090 0.467 0.060Q0.494 0.036 0.517 0.036Q0.540 0.036 0.571 0.063Q0.571 0.063 0.615 0.106Q0.636 0.126 0.636 0.153Q0.636 0.167 0.630 0.179Q0.636 0.191 0.636 0.204ZM0.602 0.153Q0.602 0.140 0.592 0.129Q0.553 0.091 0.546 0.085Q0.529 0.069 0.517 0.069Q0.507 0.069 0.489 0.085Q0.481 0.092 0.443 0.129Q0.433 0.140 0.433 0.153Q0.433 0.168 0.443 0.178Q0.454 0.189 0.468 0.189Q0.481 0.189 0.492 0.178L0.517 0.153L0.543 0.178Q0.554 0.189 0.567 0.189Q0.581 0.189 0.592 0.178Q0.602 0.168 0.602 0.153Z" fill="black"/>
</svg>
