<svg xmlns="http://www.w3.org/2000/svg" viewBox="0 0 1 1" preserveAspectRatio="xMidYMid meet">
  <path d="M0.642 0.662Q0.642 0.691 0.622 0.710Q0.603 0.729 0.574 0.729Q0.483 0.729 0.421 0.667Q0.358 0.604 0.358 0.514Q0.358 0.501 0.360 0.488Q0.358 0.476 0.358 0.463Q0.358 0.372 0.421 0.310Q0.483 0.247 0.574 0.247Q0.603 0.247 0.622 0.266Q0.642 0.285 0.642 0.314Q0.642 0.328 0.637 0.340Q0.642 0.352 0.642 0.365Q0.642 0.393 0.623 0.413Q0.642 0.432 0.642 0.460Q0.642 0.473 0.637 0.486Q0.642 0.498 0.642 0.511Q0.642 0.542 0.621 0.561Q0.642 0.581 0.642 0.611Q0.642 0.624 0.637 0.637Q0.642 0.649 0.642 0.662ZM0.609 0.611Q0.609 0.596 0.599 0.586Q0.589 0.576 0.574 0.576Q0.536 0.576 0.506 0.554Q0.476 0.531 0.465 0.495H0.574Q0.589 0.495 0.599 0.485Q0.609 0.476 0.609 0.460Q0.609 0.445 0.599 0.436Q0.589 0.426 0.574 0.426H0.466Q0.478 0.391 0.508 0.370Q0.537 0.349 0.574 0.349Q0.589 0.349 0.599 0.339Q0.609 0.330 0.609 0.314Q0.609 0.299 0.599 0.290Q0.589 0.280 0.574 0.280Q0.497 0.280 0.444 0.333Q0.391 0.386 0.391 0.463Q0.391 0.540 0.444 0.593Q0.497 0.645 0.574 0.645Q0.589 0.645 0.599 0.636Q0.609 0.626 0.609 0.611ZM0.642 0.156Q0.642 0.188 0.620 0.210Q0.598 0.232 0.567 0.232Q0.539 0.232 0.518 0.214Q0.497 0.232 0.469 0.232Q0.437 0.232 0.415 0.210Q0.393 0.188 0.393 0.156Q0.393 0.143 0.398 0.131Q0.393 0.119 0.393 0.106Q0.393 0.074 0.416 0.052Q0.438 0.031 0.469 0.031Q0.496 0.031 0.517 0.048Q0.539 0.031 0.567 0.031Q0.598 0.031 0.620 0.052Q0.642 0.074 0.642 0.106Q0.642 0.119 0.638 0.131Q0.642 0.143 0.642 0.156ZM0.609 0.106Q0.609 0.088 0.596 0.076Q0.584 0.064 0.567 0.064Q0.549 0.064 0.537 0.076Q0.524 0.088 0.524 0.106Q0.524 0.123 0.537 0.136Q0.549 0.148 0.567 0.148Q0.585 0.148 0.597 0.136Q0.609 0.123 0.609 0.106ZM0.511 0.106Q0.511 0.088 0.499 0.076Q0.486 0.064 0.469 0.064Q0.452 0.064 0.439 0.076Q0.427 0.088 0.427 0.106Q0.427 0.123 0.439 0.136Q0.451 0.148 0.469 0.148Q0.487 0.148 0.499 0.136Q0.511 0.123 0.511 0.106Z" fill="black"/>
</svg>
