<svg xmlns="http://www.w3.org/2000/svg" viewBox="0 0 1 1" preserveAspectRatio="xMidYMid meet">
  <path d="M0.573 0.661Q0.573 0.690 0.554 0.709Q0.534 0.728 0.506 0.728Q0.477 0.728 0.457 0.709Q0.438 0.690 0.438 0.661V0.314Q0.438 0.285 0.457 0.266Q0.477 0.247 0.506 0.247Q0.535 0.247 0.554 0.266Q0.573 0.285 0.573 0.314ZM0.540 0.610V0.314Q0.540 0.299 0.531 0.290Q0.521 0.280 0.506 0.280Q0.490 0.280 0.481 0.290Q0.471 0.299 0.471 0.314V0.610Q0.471 0.625 0.481 0.635Q0.490 0.644 0.506 0.644Q0.521 0.644 0.531 0.635Q0.540 0.625 0.540 0.610ZM0.587 0.204Q0.587 0.254 0.541 0.274Q0.527 0.280 0.512 0.280Q0.483 0.280 0.464 0.263Q0.449 0.250 0.437 0.223Q0.428 0.199 0.418 0.175Q0.413 0.162 0.413 0.147Q0.413 0.133 0.417 0.121Q0.413 0.109 0.413 0.096Q0.413 0.063 0.435 0.042Q0.456 0.020 0.488 0.020Q0.517 0.020 0.536 0.037Q0.550 0.050 0.563 0.077Q0.572 0.100 0.582 0.124Q0.587 0.138 0.587 0.153Q0.587 0.167 0.583 0.179Q0.587 0.191 0.587 0.204ZM0.554 0.153Q0.554 0.144 0.551 0.137L0.527 0.080Q0.516 0.054 0.488 0.054Q0.480 0.054 0.472 0.057Q0.446 0.067 0.446 0.096Q0.446 0.104 0.449 0.112L0.473 0.170Q0.484 0.196 0.512 0.196Q0.520 0.196 0.528 0.192Q0.554 0.181 0.554 0.153Z" fill="black"/>
</svg>
