<svg xmlns="http://www.w3.org/2000/svg" viewBox="0 0 1 1" preserveAspectRatio="xMidYMid meet">
  <path d="M0.573 0.661Q0.573 0.690 0.553 0.709Q0.533 0.728 0.505 0.728Q0.476 0.728 0.457 0.709Q0.438 0.690 0.438 0.661V0.314Q0.438 0.285 0.457 0.266Q0.476 0.247 0.505 0.247Q0.534 0.247 0.553 0.266Q0.573 0.285 0.573 0.314ZM0.540 0.610V0.314Q0.540 0.299 0.530 0.290Q0.520 0.280 0.505 0.280Q0.490 0.280 0.480 0.290Q0.471 0.299 0.471 0.314V0.610Q0.471 0.625 0.480 0.635Q0.490 0.644 0.505 0.644Q0.520 0.644 0.530 0.635Q0.540 0.625 0.540 0.610ZM0.618 0.209Q0.618 0.238 0.598 0.258Q0.577 0.278 0.549 0.278Q0.523 0.278 0.502 0.257H0.497Q0.477 0.278 0.450 0.278Q0.422 0.278 0.402 0.258Q0.382 0.238 0.382 0.209Q0.382 0.197 0.388 0.185Q0.382 0.172 0.382 0.159Q0.382 0.134 0.406 0.106Q0.416 0.095 0.450 0.065Q0.476 0.041 0.500 0.041Q0.523 0.041 0.554 0.068Q0.554 0.068 0.598 0.111Q0.618 0.131 0.618 0.159Q0.618 0.172 0.613 0.185Q0.618 0.196 0.618 0.209ZM0.585 0.159Q0.585 0.145 0.574 0.135Q0.535 0.096 0.528 0.090Q0.511 0.074 0.500 0.074Q0.489 0.074 0.472 0.090Q0.463 0.097 0.426 0.135Q0.415 0.145 0.415 0.159Q0.415 0.173 0.426 0.183Q0.436 0.194 0.450 0.194Q0.464 0.194 0.474 0.183L0.500 0.158L0.525 0.183Q0.536 0.194 0.549 0.194Q0.563 0.194 0.574 0.183Q0.585 0.173 0.585 0.159Z" fill="black"/>
</svg>
