<svg xmlns="http://www.w3.org/2000/svg" viewBox="0 0 1 1" preserveAspectRatio="xMidYMid meet">
  <path d="M0.578 0.661Q0.578 0.690 0.558 0.709Q0.538 0.728 0.510 0.728Q0.481 0.728 0.462 0.709Q0.443 0.690 0.443 0.661V0.314Q0.443 0.285 0.462 0.266Q0.481 0.247 0.510 0.247Q0.539 0.247 0.558 0.266Q0.578 0.285 0.578 0.314ZM0.545 0.610V0.314Q0.545 0.299 0.535 0.290Q0.525 0.280 0.510 0.280Q0.495 0.280 0.485 0.290Q0.476 0.299 0.476 0.314V0.610Q0.476 0.625 0.485 0.635Q0.495 0.644 0.510 0.644Q0.525 0.644 0.535 0.635Q0.545 0.625 0.545 0.610ZM0.624 0.156Q0.624 0.188 0.602 0.210Q0.581 0.232 0.549 0.232Q0.521 0.232 0.500 0.214Q0.479 0.232 0.451 0.232Q0.420 0.232 0.398 0.210Q0.376 0.188 0.376 0.156Q0.376 0.143 0.380 0.131Q0.376 0.119 0.376 0.106Q0.376 0.074 0.398 0.052Q0.420 0.031 0.451 0.031Q0.479 0.031 0.500 0.048Q0.521 0.031 0.549 0.031Q0.580 0.031 0.602 0.052Q0.624 0.074 0.624 0.106Q0.624 0.119 0.620 0.131Q0.624 0.143 0.624 0.156ZM0.591 0.106Q0.591 0.088 0.579 0.076Q0.567 0.064 0.549 0.064Q0.531 0.064 0.519 0.076Q0.507 0.088 0.507 0.106Q0.507 0.123 0.519 0.136Q0.531 0.148 0.549 0.148Q0.567 0.148 0.579 0.136Q0.591 0.123 0.591 0.106ZM0.494 0.106Q0.494 0.088 0.481 0.076Q0.469 0.064 0.451 0.064Q0.434 0.064 0.422 0.076Q0.409 0.088 0.409 0.106Q0.409 0.123 0.421 0.136Q0.433 0.148 0.451 0.148Q0.469 0.148 0.481 0.136Q0.494 0.123 0.494 0.106Z" fill="black"/>
</svg>
