<svg xmlns="http://www.w3.org/2000/svg" viewBox="0 0 1 1" preserveAspectRatio="xMidYMid meet">
  <path d="M0.682 0.773Q0.682 0.802 0.663 0.821Q0.643 0.840 0.614 0.840Q0.553 0.840 0.511 0.800Q0.469 0.759 0.469 0.697V0.668L0.469 0.441Q0.469 0.433 0.461 0.433Q0.453 0.433 0.453 0.441V0.661Q0.453 0.690 0.433 0.709Q0.414 0.728 0.385 0.728Q0.356 0.728 0.337 0.709Q0.318 0.690 0.318 0.661V0.390Q0.318 0.330 0.359 0.289Q0.401 0.247 0.461 0.247Q0.519 0.247 0.560 0.286Q0.604 0.327 0.604 0.384L0.604 0.646Q0.604 0.654 0.612 0.654Q0.642 0.654 0.662 0.674Q0.682 0.693 0.682 0.722Q0.682 0.736 0.678 0.748Q0.682 0.759 0.682 0.773ZM0.649 0.722Q0.649 0.707 0.639 0.697Q0.630 0.688 0.614 0.688H0.612Q0.595 0.688 0.583 0.676Q0.571 0.664 0.571 0.646L0.571 0.384Q0.571 0.341 0.538 0.311Q0.505 0.280 0.461 0.280Q0.414 0.280 0.383 0.312Q0.351 0.344 0.351 0.390V0.610Q0.351 0.625 0.360 0.635Q0.370 0.644 0.385 0.644Q0.400 0.644 0.410 0.635Q0.420 0.625 0.420 0.610V0.390Q0.420 0.373 0.432 0.361Q0.444 0.349 0.461 0.349Q0.478 0.349 0.490 0.361Q0.502 0.374 0.502 0.390L0.502 0.646Q0.502 0.694 0.534 0.725Q0.565 0.756 0.612 0.756H0.614Q0.630 0.756 0.639 0.747Q0.649 0.738 0.649 0.722ZM0.580 0.256Q0.580 0.287 0.550 0.312Q0.523 0.336 0.490 0.336Q0.471 0.336 0.438 0.322Q0.423 0.330 0.406 0.330Q0.379 0.330 0.359 0.309Q0.338 0.289 0.338 0.261Q0.338 0.249 0.343 0.236Q0.338 0.224 0.338 0.210Q0.338 0.178 0.367 0.154Q0.395 0.130 0.428 0.130Q0.450 0.130 0.480 0.144Q0.495 0.137 0.511 0.137Q0.539 0.137 0.559 0.157Q0.580 0.177 0.580 0.205Q0.580 0.218 0.575 0.230Q0.580 0.243 0.580 0.256ZM0.547 0.205Q0.547 0.191 0.536 0.180Q0.525 0.170 0.511 0.170Q0.497 0.170 0.486 0.182Q0.485 0.182 0.484 0.182L0.463 0.173Q0.443 0.164 0.428 0.164Q0.402 0.164 0.380 0.188Q0.371 0.198 0.371 0.210Q0.371 0.224 0.382 0.235Q0.393 0.246 0.406 0.246Q0.421 0.246 0.432 0.233Q0.432 0.233 0.433 0.233L0.456 0.242Q0.478 0.252 0.490 0.252Q0.516 0.252 0.537 0.228Q0.547 0.217 0.547 0.205Z" fill="black"/>
</svg>
