<svg xmlns="http://www.w3.org/2000/svg" viewBox="0 0 1 1" preserveAspectRatio="xMidYMid meet">
  <path d="M0.716 0.514Q0.716 0.604 0.653 0.667Q0.590 0.729 0.500 0.729Q0.409 0.729 0.347 0.667Q0.284 0.604 0.284 0.514Q0.284 0.501 0.286 0.488Q0.284 0.476 0.284 0.463Q0.284 0.372 0.347 0.310Q0.409 0.247 0.500 0.247Q0.591 0.247 0.653 0.310Q0.716 0.372 0.716 0.463Q0.716 0.476 0.714 0.489Q0.716 0.501 0.716 0.514ZM0.682 0.463Q0.682 0.386 0.630 0.333Q0.577 0.280 0.500 0.280Q0.423 0.280 0.370 0.333Q0.318 0.386 0.318 0.463Q0.318 0.540 0.370 0.593Q0.423 0.645 0.500 0.645Q0.577 0.645 0.630 0.593Q0.682 0.540 0.682 0.463ZM0.614 0.463Q0.614 0.511 0.581 0.544Q0.548 0.576 0.500 0.576Q0.452 0.576 0.419 0.544Q0.386 0.511 0.386 0.463Q0.386 0.414 0.419 0.381Q0.452 0.349 0.500 0.349Q0.548 0.349 0.581 0.382Q0.614 0.414 0.614 0.463ZM0.577 0.488Q0.571 0.470 0.558 0.456Q0.534 0.433 0.500 0.433Q0.472 0.433 0.452 0.448Q0.431 0.463 0.424 0.488Q0.431 0.513 0.452 0.528Q0.472 0.543 0.500 0.543Q0.528 0.543 0.548 0.528Q0.569 0.513 0.577 0.488ZM0.572 0.184Q0.572 0.233 0.527 0.253Q0.512 0.259 0.497 0.259Q0.468 0.259 0.449 0.243Q0.434 0.229 0.423 0.202Q0.413 0.178 0.404 0.155Q0.398 0.141 0.398 0.126Q0.398 0.113 0.402 0.100Q0.398 0.089 0.398 0.075Q0.398 0.043 0.420 0.021Q0.441 0.000 0.473 0.000Q0.502 0.000 0.521 0.017Q0.536 0.030 0.548 0.057Q0.557 0.080 0.567 0.104Q0.572 0.117 0.572 0.133Q0.572 0.147 0.568 0.159Q0.572 0.171 0.572 0.184ZM0.539 0.133Q0.539 0.124 0.536 0.117L0.512 0.059Q0.502 0.033 0.473 0.033Q0.465 0.033 0.457 0.036Q0.431 0.047 0.431 0.075Q0.431 0.084 0.434 0.091L0.458 0.149Q0.469 0.175 0.497 0.175Q0.505 0.175 0.513 0.172Q0.539 0.161 0.539 0.133Z" fill="black"/>
</svg>
