<svg xmlns="http://www.w3.org/2000/svg" viewBox="0 0 1 1" preserveAspectRatio="xMidYMid meet">
  <path d="M0.716 0.514Q0.716 0.604 0.653 0.667Q0.590 0.729 0.500 0.729Q0.409 0.729 0.347 0.667Q0.284 0.604 0.284 0.514Q0.284 0.501 0.286 0.488Q0.284 0.476 0.284 0.463Q0.284 0.372 0.347 0.310Q0.409 0.247 0.500 0.247Q0.591 0.247 0.653 0.310Q0.716 0.372 0.716 0.463Q0.716 0.476 0.714 0.489Q0.716 0.501 0.716 0.514ZM0.682 0.463Q0.682 0.386 0.630 0.333Q0.577 0.280 0.500 0.280Q0.423 0.280 0.370 0.333Q0.318 0.386 0.318 0.463Q0.318 0.540 0.370 0.593Q0.423 0.645 0.500 0.645Q0.577 0.645 0.630 0.593Q0.682 0.540 0.682 0.463ZM0.614 0.463Q0.614 0.511 0.581 0.544Q0.548 0.576 0.500 0.576Q0.452 0.576 0.419 0.544Q0.386 0.511 0.386 0.463Q0.386 0.414 0.419 0.381Q0.452 0.349 0.500 0.349Q0.548 0.349 0.581 0.382Q0.614 0.414 0.614 0.463ZM0.577 0.488Q0.571 0.470 0.558 0.456Q0.534 0.433 0.500 0.433Q0.472 0.433 0.452 0.448Q0.431 0.463 0.424 0.488Q0.431 0.513 0.452 0.528Q0.472 0.543 0.500 0.543Q0.528 0.543 0.548 0.528Q0.569 0.513 0.577 0.488ZM0.604 0.137Q0.604 0.151 0.599 0.165Q0.590 0.189 0.580 0.213Q0.568 0.240 0.553 0.253Q0.534 0.270 0.505 0.270Q0.474 0.270 0.452 0.248Q0.430 0.226 0.430 0.194Q0.430 0.183 0.434 0.169Q0.430 0.156 0.430 0.143Q0.430 0.126 0.442 0.097Q0.451 0.077 0.460 0.057Q0.479 0.010 0.529 0.010Q0.561 0.010 0.583 0.032Q0.604 0.053 0.604 0.086Q0.604 0.098 0.600 0.111Q0.604 0.123 0.604 0.137ZM0.571 0.086Q0.571 0.057 0.545 0.046Q0.538 0.043 0.529 0.043Q0.501 0.043 0.490 0.069L0.466 0.127Q0.463 0.134 0.463 0.143Q0.463 0.171 0.489 0.182Q0.497 0.186 0.505 0.186Q0.534 0.186 0.544 0.160L0.568 0.101Q0.571 0.094 0.571 0.086Z" fill="black"/>
</svg>
