<svg xmlns="http://www.w3.org/2000/svg" viewBox="0 0 1 1" preserveAspectRatio="xMidYMid meet">
  <path d="M0.716 0.514Q0.716 0.604 0.653 0.667Q0.590 0.729 0.500 0.729Q0.409 0.729 0.347 0.667Q0.284 0.604 0.284 0.514Q0.284 0.501 0.286 0.488Q0.284 0.476 0.284 0.463Q0.284 0.372 0.347 0.310Q0.409 0.247 0.500 0.247Q0.591 0.247 0.653 0.310Q0.716 0.372 0.716 0.463Q0.716 0.476 0.714 0.489Q0.716 0.501 0.716 0.514ZM0.682 0.463Q0.682 0.386 0.630 0.333Q0.577 0.280 0.500 0.280Q0.423 0.280 0.370 0.333Q0.318 0.386 0.318 0.463Q0.318 0.540 0.370 0.593Q0.423 0.645 0.500 0.645Q0.577 0.645 0.630 0.593Q0.682 0.540 0.682 0.463ZM0.614 0.463Q0.614 0.511 0.581 0.544Q0.548 0.576 0.500 0.576Q0.452 0.576 0.419 0.544Q0.386 0.511 0.386 0.463Q0.386 0.414 0.419 0.381Q0.452 0.349 0.500 0.349Q0.548 0.349 0.581 0.382Q0.614 0.414 0.614 0.463ZM0.577 0.488Q0.571 0.470 0.558 0.456Q0.534 0.433 0.500 0.433Q0.472 0.433 0.452 0.448Q0.431 0.463 0.424 0.488Q0.431 0.513 0.452 0.528Q0.472 0.543 0.500 0.543Q0.528 0.543 0.548 0.528Q0.569 0.513 0.577 0.488ZM0.620 0.156Q0.620 0.188 0.599 0.210Q0.577 0.232 0.545 0.232Q0.517 0.232 0.496 0.214Q0.476 0.232 0.448 0.232Q0.416 0.232 0.394 0.210Q0.372 0.188 0.372 0.156Q0.372 0.143 0.377 0.131Q0.372 0.119 0.372 0.106Q0.372 0.074 0.394 0.052Q0.416 0.031 0.448 0.031Q0.475 0.031 0.496 0.048Q0.517 0.031 0.545 0.031Q0.576 0.031 0.598 0.052Q0.620 0.074 0.620 0.106Q0.620 0.119 0.616 0.131Q0.620 0.143 0.620 0.156ZM0.587 0.106Q0.587 0.088 0.575 0.076Q0.563 0.064 0.545 0.064Q0.528 0.064 0.515 0.076Q0.503 0.088 0.503 0.106Q0.503 0.123 0.515 0.136Q0.528 0.148 0.545 0.148Q0.563 0.148 0.575 0.136Q0.587 0.123 0.587 0.106ZM0.490 0.106Q0.490 0.088 0.477 0.076Q0.465 0.064 0.448 0.064Q0.430 0.064 0.418 0.076Q0.405 0.088 0.405 0.106Q0.405 0.123 0.417 0.136Q0.430 0.148 0.448 0.148Q0.465 0.148 0.478 0.136Q0.490 0.123 0.490 0.106Z" fill="black"/>
</svg>
