<svg xmlns="http://www.w3.org/2000/svg" viewBox="0 0 1 1" preserveAspectRatio="xMidYMid meet">
  <path d="M0.643 0.585Q0.643 0.645 0.602 0.687Q0.560 0.728 0.500 0.728Q0.440 0.728 0.398 0.687Q0.357 0.646 0.357 0.585V0.314Q0.357 0.285 0.376 0.266Q0.395 0.247 0.424 0.247Q0.453 0.247 0.473 0.266Q0.492 0.285 0.492 0.314V0.534Q0.492 0.542 0.500 0.542Q0.508 0.542 0.508 0.534V0.314Q0.508 0.285 0.528 0.266Q0.547 0.246 0.576 0.246Q0.605 0.246 0.624 0.266Q0.643 0.285 0.643 0.314ZM0.610 0.534V0.314Q0.610 0.299 0.600 0.289Q0.591 0.279 0.576 0.279Q0.561 0.279 0.551 0.289Q0.541 0.299 0.541 0.314V0.534Q0.541 0.551 0.529 0.563Q0.518 0.575 0.500 0.575Q0.483 0.575 0.471 0.563Q0.459 0.551 0.459 0.534V0.314Q0.459 0.299 0.449 0.290Q0.440 0.280 0.424 0.280Q0.409 0.280 0.400 0.290Q0.390 0.299 0.390 0.314V0.534Q0.390 0.582 0.422 0.613Q0.453 0.644 0.500 0.644Q0.547 0.644 0.578 0.613Q0.610 0.581 0.610 0.534ZM0.593 0.215Q0.593 0.264 0.547 0.284Q0.532 0.290 0.517 0.290Q0.489 0.290 0.469 0.273Q0.454 0.260 0.443 0.233Q0.433 0.209 0.424 0.186Q0.418 0.172 0.418 0.157Q0.418 0.143 0.422 0.131Q0.418 0.119 0.418 0.106Q0.418 0.073 0.440 0.052Q0.462 0.031 0.493 0.031Q0.522 0.031 0.541 0.047Q0.556 0.060 0.568 0.087Q0.577 0.111 0.587 0.135Q0.593 0.148 0.593 0.164Q0.593 0.177 0.588 0.190Q0.593 0.201 0.593 0.215ZM0.559 0.164Q0.559 0.154 0.556 0.147L0.532 0.090Q0.522 0.064 0.493 0.064Q0.485 0.064 0.477 0.067Q0.451 0.077 0.451 0.106Q0.451 0.114 0.454 0.122L0.478 0.180Q0.489 0.206 0.517 0.206Q0.525 0.206 0.533 0.202Q0.559 0.191 0.559 0.164Z" fill="black"/>
</svg>
