<svg xmlns="http://www.w3.org/2000/svg" viewBox="0 0 1 1" preserveAspectRatio="xMidYMid meet">
  <path d="M0.643 0.585Q0.643 0.645 0.602 0.687Q0.560 0.728 0.500 0.728Q0.440 0.728 0.398 0.687Q0.357 0.646 0.357 0.585V0.314Q0.357 0.285 0.376 0.266Q0.395 0.247 0.424 0.247Q0.453 0.247 0.473 0.266Q0.492 0.285 0.492 0.314V0.534Q0.492 0.542 0.500 0.542Q0.508 0.542 0.508 0.534V0.314Q0.508 0.285 0.528 0.266Q0.547 0.246 0.576 0.246Q0.605 0.246 0.624 0.266Q0.643 0.285 0.643 0.314ZM0.610 0.534V0.314Q0.610 0.299 0.600 0.289Q0.591 0.279 0.576 0.279Q0.561 0.279 0.551 0.289Q0.541 0.299 0.541 0.314V0.534Q0.541 0.551 0.529 0.563Q0.518 0.575 0.500 0.575Q0.483 0.575 0.471 0.563Q0.459 0.551 0.459 0.534V0.314Q0.459 0.299 0.449 0.290Q0.440 0.280 0.424 0.280Q0.409 0.280 0.400 0.290Q0.390 0.299 0.390 0.314V0.534Q0.390 0.582 0.422 0.613Q0.453 0.644 0.500 0.644Q0.547 0.644 0.578 0.613Q0.610 0.581 0.610 0.534ZM0.594 0.131Q0.594 0.146 0.588 0.160Q0.579 0.184 0.570 0.208Q0.558 0.234 0.543 0.248Q0.524 0.265 0.495 0.265Q0.464 0.265 0.442 0.243Q0.420 0.221 0.420 0.189Q0.420 0.178 0.424 0.164Q0.420 0.151 0.420 0.138Q0.420 0.121 0.431 0.092Q0.440 0.072 0.449 0.051Q0.469 0.005 0.519 0.005Q0.551 0.005 0.572 0.027Q0.594 0.048 0.594 0.081Q0.594 0.093 0.590 0.106Q0.594 0.118 0.594 0.131ZM0.561 0.081Q0.561 0.052 0.535 0.041Q0.527 0.038 0.519 0.038Q0.491 0.038 0.480 0.064L0.456 0.122Q0.453 0.129 0.453 0.138Q0.453 0.166 0.479 0.177Q0.487 0.180 0.495 0.180Q0.523 0.180 0.534 0.154L0.558 0.096Q0.561 0.089 0.561 0.081Z" fill="black"/>
</svg>
