<svg xmlns="http://www.w3.org/2000/svg" viewBox="0 0 1 1" preserveAspectRatio="xMidYMid meet">
  <path d="M0.643 0.585Q0.643 0.645 0.602 0.687Q0.560 0.728 0.500 0.728Q0.440 0.728 0.398 0.687Q0.357 0.646 0.357 0.585V0.314Q0.357 0.285 0.376 0.266Q0.395 0.247 0.424 0.247Q0.453 0.247 0.473 0.266Q0.492 0.285 0.492 0.314V0.534Q0.492 0.542 0.500 0.542Q0.508 0.542 0.508 0.534V0.314Q0.508 0.285 0.528 0.266Q0.547 0.246 0.576 0.246Q0.605 0.246 0.624 0.266Q0.643 0.285 0.643 0.314ZM0.610 0.534V0.314Q0.610 0.299 0.600 0.289Q0.591 0.279 0.576 0.279Q0.561 0.279 0.551 0.289Q0.541 0.299 0.541 0.314V0.534Q0.541 0.551 0.529 0.563Q0.518 0.575 0.500 0.575Q0.483 0.575 0.471 0.563Q0.459 0.551 0.459 0.534V0.314Q0.459 0.299 0.449 0.290Q0.440 0.280 0.424 0.280Q0.409 0.280 0.400 0.290Q0.390 0.299 0.390 0.314V0.534Q0.390 0.582 0.422 0.613Q0.453 0.644 0.500 0.644Q0.547 0.644 0.578 0.613Q0.610 0.581 0.610 0.534ZM0.614 0.209Q0.614 0.238 0.594 0.258Q0.573 0.278 0.545 0.278Q0.519 0.278 0.498 0.257H0.493Q0.473 0.278 0.446 0.278Q0.418 0.278 0.398 0.258Q0.378 0.238 0.378 0.209Q0.378 0.197 0.384 0.185Q0.378 0.172 0.378 0.159Q0.378 0.134 0.402 0.106Q0.412 0.095 0.446 0.065Q0.472 0.041 0.496 0.041Q0.519 0.041 0.550 0.068Q0.550 0.068 0.594 0.111Q0.614 0.131 0.614 0.159Q0.614 0.172 0.609 0.185Q0.614 0.196 0.614 0.209ZM0.581 0.159Q0.581 0.145 0.570 0.135Q0.531 0.096 0.524 0.090Q0.507 0.074 0.496 0.074Q0.485 0.074 0.468 0.090Q0.459 0.097 0.422 0.135Q0.411 0.145 0.411 0.159Q0.411 0.173 0.422 0.183Q0.432 0.194 0.446 0.194Q0.459 0.194 0.470 0.183L0.496 0.158L0.521 0.183Q0.532 0.194 0.545 0.194Q0.559 0.194 0.570 0.183Q0.581 0.173 0.581 0.159Z" fill="black"/>
</svg>
