<svg xmlns="http://www.w3.org/2000/svg" viewBox="0 0 1 1" preserveAspectRatio="xMidYMid meet">
  <path d="M0.567 0.157Q0.567 0.165 0.563 0.173L0.540 0.231Q0.529 0.257 0.500 0.257Q0.493 0.257 0.484 0.253Q0.458 0.242 0.458 0.215Q0.458 0.205 0.462 0.198L0.485 0.141Q0.496 0.115 0.524 0.115Q0.533 0.115 0.541 0.118Q0.567 0.128 0.567 0.157ZM0.610 0.534Q0.610 0.581 0.578 0.613Q0.547 0.644 0.500 0.644Q0.453 0.644 0.422 0.613Q0.390 0.582 0.390 0.534V0.529Q0.390 0.514 0.400 0.504Q0.409 0.495 0.424 0.495Q0.440 0.495 0.449 0.504Q0.459 0.514 0.459 0.529V0.534Q0.459 0.551 0.471 0.563Q0.483 0.575 0.500 0.575Q0.518 0.575 0.529 0.563Q0.541 0.551 0.541 0.534V0.485Q0.522 0.493 0.500 0.493Q0.453 0.493 0.422 0.462Q0.390 0.431 0.390 0.383V0.314Q0.390 0.299 0.400 0.290Q0.409 0.280 0.424 0.280Q0.440 0.280 0.449 0.290Q0.459 0.299 0.459 0.314V0.383Q0.459 0.401 0.471 0.413Q0.483 0.425 0.500 0.425Q0.518 0.425 0.529 0.413Q0.541 0.401 0.541 0.383V0.314Q0.541 0.300 0.551 0.290Q0.561 0.280 0.576 0.280Q0.591 0.280 0.600 0.290Q0.610 0.299 0.610 0.314Z" fill="black"/>
</svg>
