<svg xmlns="http://www.w3.org/2000/svg" viewBox="0 0 1 1" preserveAspectRatio="xMidYMid meet">
  <path d="M0.641 0.588Q0.641 0.647 0.600 0.688Q0.559 0.728 0.500 0.728Q0.497 0.728 0.494 0.728V0.759Q0.494 0.788 0.475 0.807Q0.456 0.827 0.427 0.827Q0.398 0.827 0.378 0.807Q0.359 0.788 0.359 0.759V0.388Q0.359 0.329 0.400 0.288Q0.441 0.247 0.500 0.247Q0.559 0.247 0.600 0.288Q0.641 0.329 0.641 0.388Q0.641 0.401 0.639 0.413Q0.641 0.426 0.641 0.439Q0.641 0.465 0.632 0.488Q0.641 0.511 0.641 0.537Q0.641 0.550 0.639 0.562Q0.641 0.575 0.641 0.588ZM0.608 0.537Q0.608 0.493 0.578 0.463Q0.608 0.432 0.608 0.388Q0.608 0.342 0.577 0.311Q0.546 0.280 0.500 0.280Q0.454 0.280 0.423 0.311Q0.392 0.342 0.392 0.388V0.708Q0.392 0.723 0.402 0.733Q0.412 0.743 0.427 0.743Q0.442 0.743 0.452 0.733Q0.461 0.723 0.461 0.708V0.388Q0.461 0.372 0.472 0.361Q0.484 0.349 0.500 0.349Q0.516 0.349 0.528 0.360Q0.539 0.372 0.539 0.388Q0.539 0.404 0.528 0.415Q0.516 0.427 0.500 0.427Q0.483 0.428 0.473 0.437Q0.462 0.445 0.462 0.461Q0.462 0.475 0.472 0.484Q0.482 0.494 0.496 0.495Q0.514 0.497 0.526 0.509Q0.539 0.520 0.539 0.537Q0.539 0.552 0.528 0.564Q0.516 0.575 0.501 0.575Q0.485 0.575 0.475 0.585Q0.466 0.595 0.466 0.610Q0.466 0.625 0.475 0.635Q0.485 0.644 0.500 0.644Q0.546 0.644 0.577 0.613Q0.608 0.583 0.608 0.537Z" fill="black"/>
</svg>
