<svg xmlns="http://www.w3.org/2000/svg" viewBox="0 0 1 1" preserveAspectRatio="xMidYMid meet">
  <path d="M0.663 0.661Q0.663 0.690 0.644 0.709Q0.624 0.728 0.596 0.728Q0.567 0.728 0.548 0.710Q0.529 0.729 0.500 0.729Q0.430 0.729 0.384 0.682Q0.337 0.635 0.337 0.566Q0.337 0.553 0.339 0.540Q0.337 0.528 0.337 0.515Q0.337 0.445 0.384 0.399Q0.430 0.352 0.500 0.352Q0.569 0.352 0.616 0.399Q0.663 0.446 0.663 0.515ZM0.630 0.610V0.515Q0.630 0.459 0.593 0.422Q0.555 0.385 0.500 0.385Q0.444 0.385 0.407 0.422Q0.370 0.459 0.370 0.515Q0.370 0.570 0.407 0.608Q0.444 0.645 0.500 0.645Q0.515 0.645 0.525 0.636Q0.534 0.626 0.534 0.611Q0.534 0.595 0.525 0.586Q0.515 0.576 0.500 0.576Q0.474 0.576 0.456 0.558Q0.439 0.540 0.439 0.515Q0.439 0.489 0.456 0.471Q0.474 0.454 0.500 0.454Q0.525 0.454 0.543 0.471Q0.561 0.489 0.561 0.515V0.610Q0.561 0.625 0.571 0.635Q0.580 0.644 0.596 0.644Q0.611 0.644 0.621 0.635Q0.630 0.625 0.630 0.610ZM0.521 0.546Q0.512 0.538 0.500 0.538Q0.493 0.538 0.488 0.540Q0.493 0.543 0.503 0.544Q0.516 0.545 0.521 0.546ZM0.572 0.286Q0.572 0.335 0.526 0.355Q0.511 0.361 0.497 0.361Q0.468 0.361 0.449 0.345Q0.434 0.331 0.422 0.304Q0.413 0.280 0.403 0.257Q0.398 0.243 0.398 0.228Q0.398 0.215 0.402 0.202Q0.398 0.191 0.398 0.177Q0.398 0.145 0.419 0.123Q0.441 0.102 0.473 0.102Q0.502 0.102 0.521 0.119Q0.535 0.131 0.548 0.159Q0.557 0.182 0.567 0.206Q0.572 0.219 0.572 0.235Q0.572 0.249 0.568 0.261Q0.572 0.273 0.572 0.286ZM0.539 0.235Q0.539 0.226 0.536 0.219L0.512 0.161Q0.501 0.135 0.473 0.135Q0.465 0.135 0.457 0.138Q0.431 0.149 0.431 0.177Q0.431 0.186 0.434 0.193L0.458 0.251Q0.469 0.277 0.497 0.277Q0.505 0.277 0.513 0.274Q0.539 0.262 0.539 0.235Z" fill="black"/>
</svg>
