<svg xmlns="http://www.w3.org/2000/svg" viewBox="0 0 1 1" preserveAspectRatio="xMidYMid meet">
  <path d="M0.663 0.661Q0.663 0.690 0.644 0.709Q0.624 0.728 0.596 0.728Q0.567 0.728 0.548 0.710Q0.529 0.729 0.500 0.729Q0.430 0.729 0.384 0.682Q0.337 0.635 0.337 0.566Q0.337 0.553 0.339 0.540Q0.337 0.528 0.337 0.515Q0.337 0.445 0.384 0.399Q0.430 0.352 0.500 0.352Q0.569 0.352 0.616 0.399Q0.663 0.446 0.663 0.515ZM0.630 0.610V0.515Q0.630 0.459 0.593 0.422Q0.555 0.385 0.500 0.385Q0.444 0.385 0.407 0.422Q0.370 0.459 0.370 0.515Q0.370 0.570 0.407 0.608Q0.444 0.645 0.500 0.645Q0.515 0.645 0.525 0.636Q0.534 0.626 0.534 0.611Q0.534 0.595 0.525 0.586Q0.515 0.576 0.500 0.576Q0.474 0.576 0.456 0.558Q0.439 0.540 0.439 0.515Q0.439 0.489 0.456 0.471Q0.474 0.454 0.500 0.454Q0.525 0.454 0.543 0.471Q0.561 0.489 0.561 0.515V0.610Q0.561 0.625 0.571 0.635Q0.580 0.644 0.596 0.644Q0.611 0.644 0.621 0.635Q0.630 0.625 0.630 0.610ZM0.521 0.546Q0.512 0.538 0.500 0.538Q0.493 0.538 0.488 0.540Q0.493 0.543 0.503 0.544Q0.516 0.545 0.521 0.546ZM0.574 0.182Q0.574 0.197 0.568 0.211Q0.559 0.235 0.549 0.259Q0.537 0.285 0.522 0.299Q0.503 0.315 0.474 0.315Q0.443 0.315 0.421 0.294Q0.399 0.272 0.399 0.240Q0.399 0.229 0.403 0.215Q0.399 0.202 0.399 0.189Q0.399 0.172 0.411 0.143Q0.420 0.123 0.429 0.102Q0.448 0.056 0.498 0.056Q0.530 0.056 0.552 0.077Q0.574 0.099 0.574 0.131Q0.574 0.144 0.570 0.156Q0.574 0.169 0.574 0.182ZM0.541 0.131Q0.541 0.103 0.515 0.092Q0.507 0.089 0.498 0.089Q0.470 0.089 0.459 0.115L0.436 0.173Q0.432 0.180 0.432 0.189Q0.432 0.217 0.458 0.228Q0.467 0.231 0.474 0.231Q0.503 0.231 0.514 0.205L0.537 0.147Q0.541 0.140 0.541 0.131Z" fill="black"/>
</svg>
