<svg xmlns="http://www.w3.org/2000/svg" viewBox="0 0 1 1" preserveAspectRatio="xMidYMid meet">
  <path d="M0.663 0.661Q0.663 0.690 0.644 0.709Q0.624 0.728 0.596 0.728Q0.567 0.728 0.548 0.710Q0.529 0.729 0.500 0.729Q0.430 0.729 0.384 0.682Q0.337 0.635 0.337 0.566Q0.337 0.553 0.339 0.540Q0.337 0.528 0.337 0.515Q0.337 0.445 0.384 0.399Q0.430 0.352 0.500 0.352Q0.569 0.352 0.616 0.399Q0.663 0.446 0.663 0.515ZM0.630 0.610V0.515Q0.630 0.459 0.593 0.422Q0.555 0.385 0.500 0.385Q0.444 0.385 0.407 0.422Q0.370 0.459 0.370 0.515Q0.370 0.570 0.407 0.608Q0.444 0.645 0.500 0.645Q0.515 0.645 0.525 0.636Q0.534 0.626 0.534 0.611Q0.534 0.595 0.525 0.586Q0.515 0.576 0.500 0.576Q0.474 0.576 0.456 0.558Q0.439 0.540 0.439 0.515Q0.439 0.489 0.456 0.471Q0.474 0.454 0.500 0.454Q0.525 0.454 0.543 0.471Q0.561 0.489 0.561 0.515V0.610Q0.561 0.625 0.571 0.635Q0.580 0.644 0.596 0.644Q0.611 0.644 0.621 0.635Q0.630 0.625 0.630 0.610ZM0.521 0.546Q0.512 0.538 0.500 0.538Q0.493 0.538 0.488 0.540Q0.493 0.543 0.503 0.544Q0.516 0.545 0.521 0.546ZM0.619 0.317Q0.619 0.345 0.599 0.365Q0.578 0.385 0.550 0.385Q0.524 0.385 0.503 0.364H0.498Q0.478 0.385 0.451 0.385Q0.423 0.385 0.403 0.365Q0.383 0.345 0.383 0.317Q0.383 0.304 0.389 0.292Q0.383 0.279 0.383 0.266Q0.383 0.241 0.407 0.213Q0.417 0.202 0.451 0.172Q0.477 0.148 0.501 0.148Q0.524 0.148 0.555 0.175Q0.555 0.175 0.599 0.218Q0.619 0.239 0.619 0.266Q0.619 0.279 0.614 0.292Q0.619 0.303 0.619 0.317ZM0.586 0.266Q0.586 0.252 0.575 0.242Q0.536 0.203 0.529 0.197Q0.512 0.181 0.501 0.181Q0.490 0.181 0.473 0.197Q0.464 0.204 0.427 0.242Q0.416 0.252 0.416 0.266Q0.416 0.280 0.427 0.290Q0.437 0.301 0.451 0.301Q0.465 0.301 0.475 0.290L0.501 0.265L0.526 0.290Q0.537 0.301 0.550 0.301Q0.564 0.301 0.575 0.290Q0.586 0.280 0.586 0.266Z" fill="black"/>
</svg>
