<svg xmlns="http://www.w3.org/2000/svg" viewBox="0 0 1 1" preserveAspectRatio="xMidYMid meet">
  <path d="M0.663 0.661Q0.663 0.690 0.644 0.709Q0.624 0.728 0.596 0.728Q0.567 0.728 0.548 0.710Q0.529 0.729 0.500 0.729Q0.430 0.729 0.384 0.682Q0.337 0.635 0.337 0.566Q0.337 0.553 0.339 0.540Q0.337 0.528 0.337 0.515Q0.337 0.445 0.384 0.399Q0.430 0.352 0.500 0.352Q0.569 0.352 0.616 0.399Q0.663 0.446 0.663 0.515ZM0.630 0.610V0.515Q0.630 0.459 0.593 0.422Q0.555 0.385 0.500 0.385Q0.444 0.385 0.407 0.422Q0.370 0.459 0.370 0.515Q0.370 0.570 0.407 0.608Q0.444 0.645 0.500 0.645Q0.515 0.645 0.525 0.636Q0.534 0.626 0.534 0.611Q0.534 0.595 0.525 0.586Q0.515 0.576 0.500 0.576Q0.474 0.576 0.456 0.558Q0.439 0.540 0.439 0.515Q0.439 0.489 0.456 0.471Q0.474 0.454 0.500 0.454Q0.525 0.454 0.543 0.471Q0.561 0.489 0.561 0.515V0.610Q0.561 0.625 0.571 0.635Q0.580 0.644 0.596 0.644Q0.611 0.644 0.621 0.635Q0.630 0.625 0.630 0.610ZM0.521 0.546Q0.512 0.538 0.500 0.538Q0.493 0.538 0.488 0.540Q0.493 0.543 0.503 0.544Q0.516 0.545 0.521 0.546ZM0.624 0.302Q0.624 0.333 0.595 0.358Q0.567 0.382 0.534 0.382Q0.516 0.382 0.482 0.367Q0.468 0.376 0.451 0.376Q0.423 0.376 0.403 0.355Q0.383 0.335 0.383 0.307Q0.383 0.295 0.388 0.282Q0.383 0.270 0.383 0.256Q0.383 0.224 0.412 0.200Q0.439 0.176 0.472 0.176Q0.495 0.176 0.525 0.190Q0.539 0.182 0.555 0.182Q0.583 0.182 0.604 0.203Q0.624 0.223 0.624 0.251Q0.624 0.264 0.619 0.276Q0.624 0.288 0.624 0.302ZM0.591 0.251Q0.591 0.236 0.580 0.226Q0.570 0.216 0.555 0.216Q0.541 0.216 0.530 0.228Q0.530 0.228 0.528 0.228L0.507 0.219Q0.488 0.209 0.472 0.209Q0.446 0.209 0.425 0.233Q0.416 0.244 0.416 0.256Q0.416 0.270 0.426 0.281Q0.437 0.292 0.451 0.292Q0.465 0.292 0.476 0.279Q0.477 0.279 0.478 0.279L0.500 0.288Q0.522 0.298 0.534 0.298Q0.560 0.298 0.581 0.274Q0.591 0.263 0.591 0.251Z" fill="black"/>
</svg>
