<svg xmlns="http://www.w3.org/2000/svg" viewBox="0 0 1 1" preserveAspectRatio="xMidYMid meet">
  <path d="M0.663 0.661Q0.663 0.690 0.644 0.709Q0.624 0.728 0.596 0.728Q0.567 0.728 0.548 0.710Q0.529 0.729 0.500 0.729Q0.430 0.729 0.384 0.682Q0.337 0.635 0.337 0.566Q0.337 0.553 0.339 0.540Q0.337 0.528 0.337 0.515Q0.337 0.445 0.384 0.399Q0.430 0.352 0.500 0.352Q0.569 0.352 0.616 0.399Q0.663 0.446 0.663 0.515ZM0.630 0.610V0.515Q0.630 0.459 0.593 0.422Q0.555 0.385 0.500 0.385Q0.444 0.385 0.407 0.422Q0.370 0.459 0.370 0.515Q0.370 0.570 0.407 0.608Q0.444 0.645 0.500 0.645Q0.515 0.645 0.525 0.636Q0.534 0.626 0.534 0.611Q0.534 0.595 0.525 0.586Q0.515 0.576 0.500 0.576Q0.474 0.576 0.456 0.558Q0.439 0.540 0.439 0.515Q0.439 0.489 0.456 0.471Q0.474 0.454 0.500 0.454Q0.525 0.454 0.543 0.471Q0.561 0.489 0.561 0.515V0.610Q0.561 0.625 0.571 0.635Q0.580 0.644 0.596 0.644Q0.611 0.644 0.621 0.635Q0.630 0.625 0.630 0.610ZM0.521 0.546Q0.512 0.538 0.500 0.538Q0.493 0.538 0.488 0.540Q0.493 0.543 0.503 0.544Q0.516 0.545 0.521 0.546ZM0.620 0.258Q0.620 0.290 0.598 0.312Q0.577 0.334 0.545 0.334Q0.517 0.334 0.496 0.316Q0.475 0.334 0.447 0.334Q0.416 0.334 0.394 0.312Q0.372 0.290 0.372 0.258Q0.372 0.245 0.376 0.233Q0.372 0.221 0.372 0.207Q0.372 0.176 0.394 0.154Q0.416 0.133 0.447 0.133Q0.475 0.133 0.496 0.150Q0.517 0.133 0.545 0.133Q0.576 0.133 0.598 0.154Q0.620 0.176 0.620 0.207Q0.620 0.221 0.616 0.233Q0.620 0.245 0.620 0.258ZM0.587 0.207Q0.587 0.190 0.575 0.178Q0.562 0.166 0.545 0.166Q0.527 0.166 0.515 0.178Q0.503 0.190 0.503 0.207Q0.503 0.225 0.515 0.238Q0.527 0.250 0.545 0.250Q0.563 0.250 0.575 0.238Q0.587 0.225 0.587 0.207ZM0.490 0.207Q0.490 0.190 0.477 0.178Q0.465 0.166 0.447 0.166Q0.430 0.166 0.417 0.178Q0.405 0.190 0.405 0.207Q0.405 0.225 0.417 0.238Q0.429 0.250 0.447 0.250Q0.465 0.250 0.477 0.238Q0.490 0.225 0.490 0.207Z" fill="black"/>
</svg>
