<svg xmlns="http://www.w3.org/2000/svg" viewBox="0 0 1 1" preserveAspectRatio="xMidYMid meet">
  <path d="M0.650 0.499Q0.650 0.531 0.624 0.552Q0.620 0.556 0.610 0.567Q0.625 0.585 0.625 0.611Q0.625 0.624 0.621 0.636Q0.625 0.648 0.625 0.662Q0.625 0.691 0.606 0.710Q0.587 0.729 0.558 0.729H0.513Q0.444 0.729 0.397 0.682Q0.350 0.635 0.350 0.566Q0.350 0.553 0.352 0.540Q0.350 0.528 0.350 0.515Q0.350 0.445 0.397 0.399Q0.443 0.352 0.513 0.352Q0.558 0.352 0.601 0.377Q0.650 0.405 0.650 0.448Q0.650 0.462 0.645 0.473Q0.650 0.486 0.650 0.499ZM0.617 0.448Q0.617 0.435 0.607 0.425Q0.568 0.385 0.513 0.385Q0.457 0.385 0.420 0.422Q0.383 0.459 0.383 0.515Q0.383 0.570 0.420 0.608Q0.457 0.645 0.513 0.645H0.558Q0.573 0.645 0.583 0.636Q0.592 0.626 0.592 0.611Q0.592 0.595 0.583 0.586Q0.573 0.576 0.558 0.576H0.513Q0.487 0.576 0.469 0.558Q0.452 0.540 0.452 0.515Q0.452 0.489 0.469 0.471Q0.487 0.454 0.513 0.454Q0.519 0.454 0.526 0.455L0.489 0.491Q0.478 0.502 0.478 0.515Q0.478 0.529 0.489 0.540Q0.499 0.550 0.513 0.550Q0.526 0.550 0.537 0.540L0.602 0.476Q0.617 0.465 0.617 0.448ZM0.585 0.306Q0.585 0.356 0.539 0.376Q0.524 0.382 0.510 0.382Q0.481 0.382 0.462 0.365Q0.447 0.352 0.435 0.325Q0.426 0.301 0.416 0.277Q0.411 0.264 0.411 0.249Q0.411 0.235 0.415 0.223Q0.411 0.211 0.411 0.198Q0.411 0.165 0.432 0.144Q0.454 0.122 0.486 0.122Q0.515 0.122 0.534 0.139Q0.548 0.152 0.561 0.179Q0.570 0.202 0.580 0.226Q0.585 0.240 0.585 0.255Q0.585 0.269 0.581 0.281Q0.585 0.293 0.585 0.306ZM0.552 0.255Q0.552 0.246 0.549 0.239L0.525 0.181Q0.514 0.155 0.486 0.155Q0.478 0.155 0.470 0.159Q0.444 0.169 0.444 0.198Q0.444 0.206 0.447 0.214L0.471 0.272Q0.482 0.298 0.510 0.298Q0.518 0.298 0.526 0.294Q0.552 0.283 0.552 0.255Z" fill="black"/>
</svg>
