<svg xmlns="http://www.w3.org/2000/svg" viewBox="0 0 1 1" preserveAspectRatio="xMidYMid meet">
  <path d="M0.650 0.499Q0.650 0.531 0.624 0.552Q0.620 0.556 0.610 0.567Q0.625 0.585 0.625 0.611Q0.625 0.624 0.621 0.636Q0.625 0.648 0.625 0.662Q0.625 0.691 0.606 0.710Q0.587 0.729 0.558 0.729H0.513Q0.444 0.729 0.397 0.682Q0.350 0.635 0.350 0.566Q0.350 0.553 0.352 0.540Q0.350 0.528 0.350 0.515Q0.350 0.445 0.397 0.399Q0.443 0.352 0.513 0.352Q0.558 0.352 0.601 0.377Q0.650 0.405 0.650 0.448Q0.650 0.462 0.645 0.473Q0.650 0.486 0.650 0.499ZM0.617 0.448Q0.617 0.435 0.607 0.425Q0.568 0.385 0.513 0.385Q0.457 0.385 0.420 0.422Q0.383 0.459 0.383 0.515Q0.383 0.570 0.420 0.608Q0.457 0.645 0.513 0.645H0.558Q0.573 0.645 0.583 0.636Q0.592 0.626 0.592 0.611Q0.592 0.595 0.583 0.586Q0.573 0.576 0.558 0.576H0.513Q0.487 0.576 0.469 0.558Q0.452 0.540 0.452 0.515Q0.452 0.489 0.469 0.471Q0.487 0.454 0.513 0.454Q0.519 0.454 0.526 0.455L0.489 0.491Q0.478 0.502 0.478 0.515Q0.478 0.529 0.489 0.540Q0.499 0.550 0.513 0.550Q0.526 0.550 0.537 0.540L0.602 0.476Q0.617 0.465 0.617 0.448ZM0.587 0.239Q0.587 0.253 0.581 0.267Q0.572 0.291 0.562 0.315Q0.550 0.341 0.535 0.355Q0.516 0.372 0.487 0.372Q0.456 0.372 0.434 0.350Q0.412 0.328 0.412 0.296Q0.412 0.285 0.416 0.271Q0.412 0.258 0.412 0.245Q0.412 0.228 0.424 0.199Q0.433 0.179 0.442 0.159Q0.461 0.112 0.511 0.112Q0.543 0.112 0.565 0.134Q0.587 0.155 0.587 0.188Q0.587 0.200 0.583 0.213Q0.587 0.225 0.587 0.239ZM0.554 0.188Q0.554 0.159 0.528 0.148Q0.520 0.145 0.511 0.145Q0.483 0.145 0.472 0.171L0.449 0.229Q0.445 0.236 0.445 0.245Q0.445 0.273 0.471 0.284Q0.480 0.287 0.487 0.287Q0.516 0.287 0.527 0.261L0.550 0.203Q0.554 0.196 0.554 0.188Z" fill="black"/>
</svg>
