<svg xmlns="http://www.w3.org/2000/svg" viewBox="0 0 1 1" preserveAspectRatio="xMidYMid meet">
  <path d="M0.650 0.499Q0.650 0.531 0.624 0.552Q0.620 0.556 0.610 0.567Q0.625 0.585 0.625 0.611Q0.625 0.624 0.621 0.636Q0.625 0.648 0.625 0.662Q0.625 0.691 0.606 0.710Q0.587 0.729 0.558 0.729H0.513Q0.444 0.729 0.397 0.682Q0.350 0.635 0.350 0.566Q0.350 0.553 0.352 0.540Q0.350 0.528 0.350 0.515Q0.350 0.445 0.397 0.399Q0.443 0.352 0.513 0.352Q0.558 0.352 0.601 0.377Q0.650 0.405 0.650 0.448Q0.650 0.462 0.645 0.473Q0.650 0.486 0.650 0.499ZM0.617 0.448Q0.617 0.435 0.607 0.425Q0.568 0.385 0.513 0.385Q0.457 0.385 0.420 0.422Q0.383 0.459 0.383 0.515Q0.383 0.570 0.420 0.608Q0.457 0.645 0.513 0.645H0.558Q0.573 0.645 0.583 0.636Q0.592 0.626 0.592 0.611Q0.592 0.595 0.583 0.586Q0.573 0.576 0.558 0.576H0.513Q0.487 0.576 0.469 0.558Q0.452 0.540 0.452 0.515Q0.452 0.489 0.469 0.471Q0.487 0.454 0.513 0.454Q0.519 0.454 0.526 0.455L0.489 0.491Q0.478 0.502 0.478 0.515Q0.478 0.529 0.489 0.540Q0.499 0.550 0.513 0.550Q0.526 0.550 0.537 0.540L0.602 0.476Q0.617 0.465 0.617 0.448ZM0.627 0.311Q0.627 0.339 0.607 0.360Q0.586 0.380 0.558 0.380Q0.532 0.380 0.511 0.359H0.506Q0.486 0.380 0.459 0.380Q0.431 0.380 0.411 0.360Q0.391 0.339 0.391 0.311Q0.391 0.299 0.397 0.287Q0.391 0.274 0.391 0.260Q0.391 0.235 0.415 0.208Q0.425 0.197 0.459 0.167Q0.485 0.143 0.509 0.143Q0.532 0.143 0.563 0.170Q0.563 0.170 0.607 0.213Q0.627 0.233 0.627 0.260Q0.627 0.274 0.622 0.286Q0.627 0.298 0.627 0.311ZM0.594 0.260Q0.594 0.247 0.583 0.236Q0.544 0.198 0.537 0.192Q0.520 0.176 0.509 0.176Q0.498 0.176 0.481 0.192Q0.472 0.199 0.435 0.236Q0.424 0.247 0.424 0.260Q0.424 0.275 0.435 0.285Q0.445 0.296 0.459 0.296Q0.472 0.296 0.483 0.285L0.509 0.260L0.534 0.285Q0.545 0.296 0.558 0.296Q0.572 0.296 0.583 0.285Q0.594 0.275 0.594 0.260Z" fill="black"/>
</svg>
