<svg xmlns="http://www.w3.org/2000/svg" viewBox="0 0 1 1" preserveAspectRatio="xMidYMid meet">
  <path d="M0.650 0.499Q0.650 0.531 0.624 0.552Q0.620 0.556 0.610 0.567Q0.625 0.585 0.625 0.611Q0.625 0.624 0.621 0.636Q0.625 0.648 0.625 0.662Q0.625 0.691 0.606 0.710Q0.587 0.729 0.558 0.729H0.513Q0.444 0.729 0.397 0.682Q0.350 0.635 0.350 0.566Q0.350 0.553 0.352 0.540Q0.350 0.528 0.350 0.515Q0.350 0.445 0.397 0.399Q0.443 0.352 0.513 0.352Q0.558 0.352 0.601 0.377Q0.650 0.405 0.650 0.448Q0.650 0.462 0.645 0.473Q0.650 0.486 0.650 0.499ZM0.617 0.448Q0.617 0.435 0.607 0.425Q0.568 0.385 0.513 0.385Q0.457 0.385 0.420 0.422Q0.383 0.459 0.383 0.515Q0.383 0.570 0.420 0.608Q0.457 0.645 0.513 0.645H0.558Q0.573 0.645 0.583 0.636Q0.592 0.626 0.592 0.611Q0.592 0.595 0.583 0.586Q0.573 0.576 0.558 0.576H0.513Q0.487 0.576 0.469 0.558Q0.452 0.540 0.452 0.515Q0.452 0.489 0.469 0.471Q0.487 0.454 0.513 0.454Q0.519 0.454 0.526 0.455L0.489 0.491Q0.478 0.502 0.478 0.515Q0.478 0.529 0.489 0.540Q0.499 0.550 0.513 0.550Q0.526 0.550 0.537 0.540L0.602 0.476Q0.617 0.465 0.617 0.448ZM0.628 0.258Q0.628 0.290 0.606 0.312Q0.585 0.334 0.553 0.334Q0.525 0.334 0.504 0.316Q0.483 0.334 0.455 0.334Q0.424 0.334 0.402 0.312Q0.380 0.290 0.380 0.258Q0.380 0.245 0.384 0.233Q0.380 0.221 0.380 0.207Q0.380 0.176 0.402 0.154Q0.424 0.133 0.455 0.133Q0.483 0.133 0.504 0.150Q0.525 0.133 0.553 0.133Q0.584 0.133 0.606 0.154Q0.628 0.176 0.628 0.207Q0.628 0.221 0.624 0.233Q0.628 0.245 0.628 0.258ZM0.595 0.207Q0.595 0.190 0.583 0.178Q0.570 0.166 0.553 0.166Q0.535 0.166 0.523 0.178Q0.511 0.190 0.511 0.207Q0.511 0.225 0.523 0.238Q0.535 0.250 0.553 0.250Q0.571 0.250 0.583 0.238Q0.595 0.225 0.595 0.207ZM0.497 0.207Q0.497 0.190 0.485 0.178Q0.472 0.166 0.455 0.166Q0.438 0.166 0.425 0.178Q0.413 0.190 0.413 0.207Q0.413 0.225 0.425 0.238Q0.437 0.250 0.455 0.250Q0.473 0.250 0.485 0.238Q0.497 0.225 0.497 0.207Z" fill="black"/>
</svg>
