<svg xmlns="http://www.w3.org/2000/svg" viewBox="0 0 1 1" preserveAspectRatio="xMidYMid meet">
  <path d="M0.583 0.661Q0.583 0.690 0.563 0.709Q0.544 0.728 0.515 0.728Q0.486 0.728 0.467 0.709Q0.448 0.690 0.448 0.661V0.419Q0.448 0.390 0.467 0.371Q0.486 0.352 0.515 0.352Q0.546 0.352 0.565 0.370Q0.583 0.388 0.583 0.419ZM0.550 0.610V0.419Q0.550 0.385 0.515 0.385Q0.500 0.385 0.491 0.394Q0.481 0.404 0.481 0.419V0.610Q0.481 0.625 0.491 0.635Q0.500 0.644 0.515 0.644Q0.531 0.644 0.540 0.635Q0.550 0.625 0.550 0.610ZM0.587 0.301Q0.587 0.351 0.541 0.371Q0.527 0.377 0.512 0.377Q0.483 0.377 0.464 0.360Q0.449 0.347 0.437 0.320Q0.428 0.296 0.418 0.272Q0.413 0.258 0.413 0.244Q0.413 0.230 0.417 0.218Q0.413 0.206 0.413 0.193Q0.413 0.160 0.435 0.139Q0.456 0.117 0.488 0.117Q0.517 0.117 0.536 0.134Q0.550 0.147 0.563 0.174Q0.572 0.197 0.582 0.221Q0.587 0.234 0.587 0.250Q0.587 0.264 0.583 0.276Q0.587 0.288 0.587 0.301ZM0.554 0.250Q0.554 0.241 0.551 0.234L0.527 0.176Q0.516 0.150 0.488 0.150Q0.480 0.150 0.472 0.153Q0.446 0.164 0.446 0.193Q0.446 0.201 0.449 0.208L0.473 0.267Q0.484 0.293 0.512 0.293Q0.520 0.293 0.528 0.289Q0.554 0.278 0.554 0.250Z" fill="black"/>
</svg>
