<svg xmlns="http://www.w3.org/2000/svg" viewBox="0 0 1 1" preserveAspectRatio="xMidYMid meet">
  <path d="M0.556 0.661Q0.556 0.690 0.536 0.709Q0.517 0.728 0.488 0.728Q0.459 0.728 0.440 0.709Q0.421 0.690 0.421 0.661V0.419Q0.421 0.390 0.440 0.371Q0.459 0.352 0.488 0.352Q0.519 0.352 0.538 0.370Q0.556 0.388 0.556 0.419ZM0.523 0.610V0.419Q0.523 0.385 0.488 0.385Q0.473 0.385 0.464 0.394Q0.454 0.404 0.454 0.419V0.610Q0.454 0.625 0.464 0.635Q0.473 0.644 0.488 0.644Q0.504 0.644 0.513 0.635Q0.523 0.625 0.523 0.610ZM0.587 0.239Q0.587 0.253 0.582 0.267Q0.572 0.291 0.563 0.315Q0.551 0.341 0.536 0.355Q0.517 0.372 0.488 0.372Q0.457 0.372 0.435 0.350Q0.413 0.328 0.413 0.296Q0.413 0.285 0.417 0.271Q0.413 0.258 0.413 0.245Q0.413 0.228 0.425 0.199Q0.433 0.179 0.442 0.159Q0.462 0.112 0.512 0.112Q0.544 0.112 0.565 0.134Q0.587 0.155 0.587 0.188Q0.587 0.200 0.583 0.213Q0.587 0.225 0.587 0.239ZM0.554 0.188Q0.554 0.159 0.528 0.148Q0.520 0.145 0.512 0.145Q0.484 0.145 0.473 0.171L0.449 0.229Q0.446 0.236 0.446 0.245Q0.446 0.273 0.472 0.284Q0.480 0.287 0.488 0.287Q0.516 0.287 0.527 0.261L0.551 0.203Q0.554 0.196 0.554 0.188Z" fill="black"/>
</svg>
