<svg xmlns="http://www.w3.org/2000/svg" viewBox="0 0 1 1" preserveAspectRatio="xMidYMid meet">
  <path d="M0.567 0.661Q0.567 0.690 0.547 0.709Q0.528 0.728 0.499 0.728Q0.470 0.728 0.451 0.709Q0.432 0.690 0.432 0.661V0.419Q0.432 0.390 0.451 0.371Q0.470 0.352 0.499 0.352Q0.530 0.352 0.549 0.370Q0.567 0.388 0.567 0.419ZM0.534 0.610V0.419Q0.534 0.385 0.499 0.385Q0.484 0.385 0.475 0.394Q0.465 0.404 0.465 0.419V0.610Q0.465 0.625 0.475 0.635Q0.484 0.644 0.499 0.644Q0.515 0.644 0.524 0.635Q0.534 0.625 0.534 0.610ZM0.618 0.311Q0.618 0.339 0.598 0.360Q0.577 0.380 0.549 0.380Q0.523 0.380 0.502 0.359H0.497Q0.477 0.380 0.450 0.380Q0.422 0.380 0.402 0.360Q0.382 0.339 0.382 0.311Q0.382 0.299 0.388 0.287Q0.382 0.274 0.382 0.260Q0.382 0.235 0.406 0.208Q0.416 0.197 0.450 0.167Q0.476 0.143 0.500 0.143Q0.523 0.143 0.554 0.170Q0.554 0.170 0.598 0.213Q0.618 0.233 0.618 0.260Q0.618 0.274 0.613 0.286Q0.618 0.298 0.618 0.311ZM0.585 0.260Q0.585 0.247 0.574 0.236Q0.535 0.198 0.528 0.192Q0.511 0.176 0.500 0.176Q0.489 0.176 0.472 0.192Q0.463 0.199 0.426 0.236Q0.415 0.247 0.415 0.260Q0.415 0.275 0.426 0.285Q0.436 0.296 0.450 0.296Q0.464 0.296 0.474 0.285L0.500 0.260L0.525 0.285Q0.536 0.296 0.549 0.296Q0.563 0.296 0.574 0.285Q0.585 0.275 0.585 0.260Z" fill="black"/>
</svg>
