<svg xmlns="http://www.w3.org/2000/svg" viewBox="0 0 1 1" preserveAspectRatio="xMidYMid meet">
  <path d="M0.567 0.661Q0.567 0.690 0.547 0.709Q0.528 0.728 0.499 0.728Q0.470 0.728 0.451 0.709Q0.432 0.690 0.432 0.661V0.419Q0.432 0.390 0.451 0.371Q0.470 0.352 0.499 0.352Q0.530 0.352 0.549 0.370Q0.567 0.388 0.567 0.419ZM0.534 0.610V0.419Q0.534 0.385 0.499 0.385Q0.484 0.385 0.475 0.394Q0.465 0.404 0.465 0.419V0.610Q0.465 0.625 0.475 0.635Q0.484 0.644 0.499 0.644Q0.515 0.644 0.524 0.635Q0.534 0.625 0.534 0.610ZM0.624 0.258Q0.624 0.290 0.602 0.312Q0.581 0.334 0.549 0.334Q0.521 0.334 0.500 0.316Q0.479 0.334 0.451 0.334Q0.420 0.334 0.398 0.312Q0.376 0.290 0.376 0.258Q0.376 0.245 0.380 0.233Q0.376 0.221 0.376 0.207Q0.376 0.176 0.398 0.154Q0.420 0.133 0.451 0.133Q0.479 0.133 0.500 0.150Q0.521 0.133 0.549 0.133Q0.580 0.133 0.602 0.154Q0.624 0.176 0.624 0.207Q0.624 0.221 0.620 0.233Q0.624 0.245 0.624 0.258ZM0.591 0.207Q0.591 0.190 0.579 0.178Q0.567 0.166 0.549 0.166Q0.531 0.166 0.519 0.178Q0.507 0.190 0.507 0.207Q0.507 0.225 0.519 0.238Q0.531 0.250 0.549 0.250Q0.567 0.250 0.579 0.238Q0.591 0.225 0.591 0.207ZM0.494 0.207Q0.494 0.190 0.481 0.178Q0.469 0.166 0.451 0.166Q0.434 0.166 0.422 0.178Q0.409 0.190 0.409 0.207Q0.409 0.225 0.421 0.238Q0.433 0.250 0.451 0.250Q0.469 0.250 0.481 0.238Q0.494 0.225 0.494 0.207Z" fill="black"/>
</svg>
