<svg xmlns="http://www.w3.org/2000/svg" viewBox="0 0 1 1" preserveAspectRatio="xMidYMid meet">
  <path d="M0.587 0.549Q0.587 0.578 0.568 0.597Q0.548 0.616 0.519 0.616H0.434V0.661Q0.434 0.690 0.414 0.709Q0.395 0.728 0.366 0.728Q0.337 0.728 0.318 0.709Q0.299 0.690 0.299 0.661V0.390Q0.299 0.330 0.340 0.288Q0.381 0.247 0.442 0.247Q0.502 0.247 0.543 0.289Q0.585 0.330 0.585 0.390V0.394Q0.585 0.404 0.582 0.413Q0.585 0.427 0.585 0.441V0.445Q0.585 0.458 0.581 0.469Q0.587 0.482 0.587 0.498Q0.587 0.512 0.582 0.523Q0.587 0.536 0.587 0.549ZM0.554 0.498Q0.554 0.483 0.544 0.473Q0.535 0.463 0.519 0.463H0.401V0.390Q0.401 0.373 0.413 0.361Q0.425 0.349 0.442 0.349Q0.459 0.349 0.471 0.361Q0.483 0.373 0.483 0.390V0.394Q0.483 0.409 0.493 0.419Q0.503 0.429 0.517 0.429Q0.533 0.429 0.542 0.419Q0.551 0.409 0.551 0.394V0.390Q0.551 0.344 0.520 0.312Q0.489 0.280 0.442 0.280Q0.394 0.280 0.363 0.312Q0.332 0.343 0.332 0.390V0.610Q0.332 0.625 0.341 0.635Q0.351 0.644 0.366 0.644Q0.381 0.644 0.391 0.635Q0.401 0.625 0.401 0.610V0.532H0.519Q0.535 0.532 0.544 0.523Q0.554 0.513 0.554 0.498ZM0.701 0.369Q0.701 0.388 0.693 0.405Q0.694 0.411 0.694 0.419V0.661Q0.694 0.690 0.674 0.709Q0.654 0.728 0.626 0.728Q0.597 0.728 0.578 0.709Q0.559 0.690 0.559 0.661V0.419Q0.559 0.412 0.560 0.405Q0.550 0.388 0.550 0.369Q0.550 0.356 0.555 0.344Q0.550 0.331 0.550 0.318Q0.550 0.287 0.573 0.265Q0.595 0.243 0.626 0.243Q0.657 0.243 0.679 0.265Q0.701 0.287 0.701 0.318Q0.701 0.331 0.697 0.344Q0.701 0.356 0.701 0.369ZM0.668 0.318Q0.668 0.301 0.656 0.288Q0.643 0.276 0.626 0.276Q0.609 0.276 0.596 0.288Q0.584 0.301 0.584 0.318Q0.584 0.335 0.596 0.348Q0.609 0.360 0.626 0.360Q0.643 0.360 0.656 0.348Q0.668 0.335 0.668 0.318ZM0.661 0.610V0.419Q0.661 0.385 0.626 0.385Q0.611 0.385 0.601 0.394Q0.592 0.404 0.592 0.419V0.610Q0.592 0.625 0.601 0.635Q0.611 0.644 0.626 0.644Q0.641 0.644 0.651 0.635Q0.661 0.625 0.661 0.610Z" fill="black"/>
</svg>
