<svg xmlns="http://www.w3.org/2000/svg" viewBox="0 0 1 1" preserveAspectRatio="xMidYMid meet">
  <path d="M0.593 0.549Q0.593 0.578 0.574 0.597Q0.555 0.616 0.526 0.616H0.440V0.661Q0.440 0.690 0.421 0.709Q0.401 0.728 0.372 0.728Q0.343 0.728 0.324 0.709Q0.305 0.690 0.305 0.661V0.390Q0.305 0.330 0.346 0.288Q0.388 0.247 0.448 0.247Q0.508 0.247 0.550 0.289Q0.591 0.330 0.591 0.390V0.394Q0.591 0.404 0.588 0.413Q0.591 0.427 0.591 0.441V0.445Q0.591 0.458 0.587 0.469Q0.593 0.482 0.593 0.498Q0.593 0.512 0.588 0.523Q0.593 0.536 0.593 0.549ZM0.560 0.498Q0.560 0.483 0.550 0.473Q0.541 0.463 0.526 0.463H0.407V0.390Q0.407 0.373 0.419 0.361Q0.431 0.349 0.448 0.349Q0.466 0.349 0.477 0.361Q0.489 0.373 0.489 0.390V0.394Q0.489 0.409 0.499 0.419Q0.509 0.429 0.524 0.429Q0.539 0.429 0.548 0.419Q0.558 0.409 0.558 0.394V0.390Q0.558 0.344 0.527 0.312Q0.495 0.280 0.448 0.280Q0.401 0.280 0.370 0.312Q0.338 0.343 0.338 0.390V0.610Q0.338 0.625 0.348 0.635Q0.357 0.644 0.372 0.644Q0.388 0.644 0.397 0.635Q0.407 0.625 0.407 0.610V0.532H0.526Q0.541 0.532 0.550 0.523Q0.560 0.513 0.560 0.498ZM0.695 0.661Q0.695 0.690 0.675 0.709Q0.656 0.728 0.627 0.728Q0.598 0.728 0.579 0.709Q0.560 0.690 0.560 0.661V0.315Q0.560 0.286 0.579 0.267Q0.598 0.248 0.627 0.248Q0.658 0.248 0.677 0.266Q0.695 0.284 0.695 0.315ZM0.662 0.610V0.315Q0.662 0.281 0.627 0.281Q0.612 0.281 0.602 0.291Q0.593 0.300 0.593 0.315V0.610Q0.593 0.625 0.602 0.635Q0.612 0.644 0.627 0.644Q0.642 0.644 0.652 0.635Q0.662 0.625 0.662 0.610Z" fill="black"/>
</svg>
