<svg xmlns="http://www.w3.org/2000/svg" viewBox="0 0 1 1" preserveAspectRatio="xMidYMid meet">
  <path d="M0.682 0.773Q0.682 0.802 0.663 0.821Q0.643 0.840 0.614 0.840Q0.553 0.840 0.511 0.800Q0.469 0.759 0.469 0.697V0.673L0.469 0.545Q0.469 0.538 0.461 0.538Q0.453 0.538 0.453 0.545V0.661Q0.453 0.690 0.433 0.709Q0.414 0.728 0.385 0.728Q0.356 0.728 0.337 0.709Q0.318 0.690 0.318 0.661V0.494Q0.318 0.434 0.359 0.393Q0.401 0.352 0.461 0.352Q0.521 0.352 0.563 0.393Q0.604 0.434 0.604 0.494V0.646Q0.604 0.654 0.612 0.654Q0.642 0.654 0.662 0.674Q0.682 0.693 0.682 0.722Q0.682 0.736 0.678 0.748Q0.682 0.759 0.682 0.773ZM0.649 0.722Q0.649 0.707 0.639 0.697Q0.630 0.688 0.614 0.688H0.612Q0.595 0.688 0.583 0.676Q0.571 0.664 0.571 0.646V0.494Q0.571 0.448 0.540 0.416Q0.508 0.385 0.461 0.385Q0.414 0.385 0.383 0.416Q0.351 0.448 0.351 0.494V0.610Q0.351 0.625 0.360 0.635Q0.370 0.644 0.385 0.644Q0.400 0.644 0.410 0.635Q0.420 0.625 0.420 0.610V0.494Q0.420 0.477 0.432 0.465Q0.444 0.454 0.461 0.454Q0.478 0.454 0.490 0.466Q0.502 0.478 0.502 0.494L0.502 0.646Q0.502 0.694 0.534 0.725Q0.565 0.756 0.612 0.756H0.614Q0.630 0.756 0.639 0.747Q0.649 0.738 0.649 0.722ZM0.585 0.292Q0.585 0.323 0.555 0.348Q0.528 0.372 0.495 0.372Q0.476 0.372 0.443 0.357Q0.428 0.365 0.412 0.365Q0.384 0.365 0.364 0.345Q0.343 0.325 0.343 0.297Q0.343 0.284 0.348 0.272Q0.343 0.259 0.343 0.246Q0.343 0.214 0.372 0.190Q0.400 0.166 0.433 0.166Q0.455 0.166 0.485 0.180Q0.500 0.172 0.516 0.172Q0.544 0.172 0.564 0.192Q0.585 0.213 0.585 0.241Q0.585 0.253 0.580 0.266Q0.585 0.278 0.585 0.292ZM0.552 0.241Q0.552 0.226 0.541 0.216Q0.530 0.205 0.516 0.205Q0.502 0.205 0.491 0.218Q0.491 0.218 0.489 0.218L0.468 0.208Q0.448 0.199 0.433 0.199Q0.407 0.199 0.386 0.223Q0.376 0.233 0.376 0.246Q0.376 0.260 0.387 0.271Q0.398 0.281 0.412 0.281Q0.426 0.281 0.437 0.269Q0.438 0.269 0.439 0.269L0.461 0.278Q0.483 0.287 0.495 0.287Q0.521 0.287 0.542 0.264Q0.552 0.253 0.552 0.241Z" fill="black"/>
</svg>
