<svg xmlns="http://www.w3.org/2000/svg" viewBox="0 0 1 1" preserveAspectRatio="xMidYMid meet">
  <path d="M0.663 0.566Q0.663 0.635 0.616 0.682Q0.569 0.729 0.500 0.729Q0.430 0.729 0.384 0.682Q0.337 0.635 0.337 0.566Q0.337 0.553 0.339 0.540Q0.337 0.528 0.337 0.515Q0.337 0.445 0.384 0.399Q0.430 0.352 0.500 0.352Q0.569 0.352 0.616 0.399Q0.663 0.445 0.663 0.515Q0.663 0.528 0.661 0.541Q0.663 0.553 0.663 0.566ZM0.630 0.515Q0.630 0.459 0.593 0.422Q0.555 0.385 0.500 0.385Q0.444 0.385 0.407 0.422Q0.370 0.459 0.370 0.515Q0.370 0.570 0.407 0.608Q0.444 0.645 0.500 0.645Q0.555 0.645 0.593 0.608Q0.630 0.570 0.630 0.515ZM0.561 0.515Q0.561 0.540 0.543 0.558Q0.525 0.576 0.500 0.576Q0.474 0.576 0.456 0.558Q0.439 0.540 0.439 0.515Q0.439 0.489 0.456 0.471Q0.474 0.454 0.500 0.454Q0.525 0.454 0.543 0.471Q0.561 0.489 0.561 0.515ZM0.572 0.301Q0.572 0.351 0.526 0.371Q0.511 0.377 0.497 0.377Q0.468 0.377 0.449 0.360Q0.434 0.347 0.422 0.320Q0.413 0.296 0.403 0.272Q0.398 0.258 0.398 0.244Q0.398 0.230 0.402 0.218Q0.398 0.206 0.398 0.193Q0.398 0.160 0.419 0.139Q0.441 0.117 0.473 0.117Q0.502 0.117 0.521 0.134Q0.535 0.147 0.548 0.174Q0.557 0.197 0.567 0.221Q0.572 0.234 0.572 0.250Q0.572 0.264 0.568 0.276Q0.572 0.288 0.572 0.301ZM0.539 0.250Q0.539 0.241 0.536 0.234L0.512 0.176Q0.501 0.150 0.473 0.150Q0.465 0.150 0.457 0.153Q0.431 0.164 0.431 0.193Q0.431 0.201 0.434 0.208L0.458 0.267Q0.469 0.293 0.497 0.293Q0.505 0.293 0.513 0.289Q0.539 0.278 0.539 0.250Z" fill="black"/>
</svg>
