<svg xmlns="http://www.w3.org/2000/svg" viewBox="0 0 1 1" preserveAspectRatio="xMidYMid meet">
  <path d="M0.663 0.566Q0.663 0.635 0.616 0.682Q0.569 0.729 0.500 0.729Q0.430 0.729 0.384 0.682Q0.337 0.635 0.337 0.566Q0.337 0.553 0.339 0.540Q0.337 0.528 0.337 0.515Q0.337 0.445 0.384 0.399Q0.430 0.352 0.500 0.352Q0.569 0.352 0.616 0.399Q0.663 0.445 0.663 0.515Q0.663 0.528 0.661 0.541Q0.663 0.553 0.663 0.566ZM0.630 0.515Q0.630 0.459 0.593 0.422Q0.555 0.385 0.500 0.385Q0.444 0.385 0.407 0.422Q0.370 0.459 0.370 0.515Q0.370 0.570 0.407 0.608Q0.444 0.645 0.500 0.645Q0.555 0.645 0.593 0.608Q0.630 0.570 0.630 0.515ZM0.561 0.515Q0.561 0.540 0.543 0.558Q0.525 0.576 0.500 0.576Q0.474 0.576 0.456 0.558Q0.439 0.540 0.439 0.515Q0.439 0.489 0.456 0.471Q0.474 0.454 0.500 0.454Q0.525 0.454 0.543 0.471Q0.561 0.489 0.561 0.515ZM0.584 0.239Q0.584 0.253 0.578 0.267Q0.569 0.291 0.559 0.315Q0.548 0.341 0.532 0.355Q0.514 0.372 0.484 0.372Q0.453 0.372 0.431 0.350Q0.410 0.328 0.410 0.296Q0.410 0.285 0.414 0.271Q0.410 0.258 0.410 0.245Q0.410 0.228 0.421 0.199Q0.430 0.179 0.439 0.159Q0.458 0.112 0.508 0.112Q0.541 0.112 0.562 0.134Q0.584 0.155 0.584 0.188Q0.584 0.200 0.580 0.213Q0.584 0.225 0.584 0.239ZM0.551 0.188Q0.551 0.159 0.525 0.148Q0.517 0.145 0.508 0.145Q0.480 0.145 0.470 0.171L0.446 0.229Q0.443 0.236 0.443 0.245Q0.443 0.273 0.469 0.284Q0.477 0.287 0.484 0.287Q0.513 0.287 0.524 0.261L0.548 0.203Q0.551 0.196 0.551 0.188Z" fill="black"/>
</svg>
