<svg xmlns="http://www.w3.org/2000/svg" viewBox="0 0 1 1" preserveAspectRatio="xMidYMid meet">
  <path d="M0.663 0.566Q0.663 0.635 0.616 0.682Q0.569 0.729 0.500 0.729Q0.430 0.729 0.384 0.682Q0.337 0.635 0.337 0.566Q0.337 0.553 0.339 0.540Q0.337 0.528 0.337 0.515Q0.337 0.445 0.384 0.399Q0.430 0.352 0.500 0.352Q0.569 0.352 0.616 0.399Q0.663 0.445 0.663 0.515Q0.663 0.528 0.661 0.541Q0.663 0.553 0.663 0.566ZM0.630 0.515Q0.630 0.459 0.593 0.422Q0.555 0.385 0.500 0.385Q0.444 0.385 0.407 0.422Q0.370 0.459 0.370 0.515Q0.370 0.570 0.407 0.608Q0.444 0.645 0.500 0.645Q0.555 0.645 0.593 0.608Q0.630 0.570 0.630 0.515ZM0.561 0.515Q0.561 0.540 0.543 0.558Q0.525 0.576 0.500 0.576Q0.474 0.576 0.456 0.558Q0.439 0.540 0.439 0.515Q0.439 0.489 0.456 0.471Q0.474 0.454 0.500 0.454Q0.525 0.454 0.543 0.471Q0.561 0.489 0.561 0.515ZM0.614 0.311Q0.614 0.339 0.594 0.360Q0.573 0.380 0.545 0.380Q0.519 0.380 0.498 0.359H0.493Q0.473 0.380 0.446 0.380Q0.418 0.380 0.398 0.360Q0.378 0.339 0.378 0.311Q0.378 0.299 0.384 0.287Q0.378 0.274 0.378 0.260Q0.378 0.235 0.402 0.208Q0.412 0.197 0.446 0.167Q0.472 0.143 0.496 0.143Q0.519 0.143 0.550 0.170Q0.550 0.170 0.594 0.213Q0.614 0.233 0.614 0.260Q0.614 0.274 0.609 0.286Q0.614 0.298 0.614 0.311ZM0.581 0.260Q0.581 0.247 0.570 0.236Q0.531 0.198 0.524 0.192Q0.507 0.176 0.496 0.176Q0.485 0.176 0.468 0.192Q0.459 0.199 0.422 0.236Q0.411 0.247 0.411 0.260Q0.411 0.275 0.422 0.285Q0.432 0.296 0.446 0.296Q0.459 0.296 0.470 0.285L0.496 0.260L0.521 0.285Q0.532 0.296 0.545 0.296Q0.559 0.296 0.570 0.285Q0.581 0.275 0.581 0.260Z" fill="black"/>
</svg>
