<svg xmlns="http://www.w3.org/2000/svg" viewBox="0 0 1 1" preserveAspectRatio="xMidYMid meet">
  <path d="M0.663 0.566Q0.663 0.635 0.616 0.682Q0.569 0.729 0.500 0.729Q0.430 0.729 0.384 0.682Q0.337 0.635 0.337 0.566Q0.337 0.553 0.339 0.540Q0.337 0.528 0.337 0.515Q0.337 0.445 0.384 0.399Q0.430 0.352 0.500 0.352Q0.569 0.352 0.616 0.399Q0.663 0.445 0.663 0.515Q0.663 0.528 0.661 0.541Q0.663 0.553 0.663 0.566ZM0.630 0.515Q0.630 0.459 0.593 0.422Q0.555 0.385 0.500 0.385Q0.444 0.385 0.407 0.422Q0.370 0.459 0.370 0.515Q0.370 0.570 0.407 0.608Q0.444 0.645 0.500 0.645Q0.555 0.645 0.593 0.608Q0.630 0.570 0.630 0.515ZM0.561 0.515Q0.561 0.540 0.543 0.558Q0.525 0.576 0.500 0.576Q0.474 0.576 0.456 0.558Q0.439 0.540 0.439 0.515Q0.439 0.489 0.456 0.471Q0.474 0.454 0.500 0.454Q0.525 0.454 0.543 0.471Q0.561 0.489 0.561 0.515ZM0.629 0.286Q0.629 0.318 0.600 0.343Q0.572 0.366 0.540 0.366Q0.521 0.366 0.487 0.352Q0.473 0.360 0.456 0.360Q0.428 0.360 0.408 0.340Q0.388 0.320 0.388 0.292Q0.388 0.279 0.393 0.267Q0.388 0.254 0.388 0.241Q0.388 0.209 0.417 0.185Q0.444 0.161 0.477 0.161Q0.500 0.161 0.530 0.175Q0.544 0.167 0.560 0.167Q0.588 0.167 0.609 0.187Q0.629 0.207 0.629 0.235Q0.629 0.248 0.624 0.260Q0.629 0.273 0.629 0.286ZM0.596 0.235Q0.596 0.221 0.585 0.211Q0.575 0.200 0.560 0.200Q0.546 0.200 0.535 0.213Q0.535 0.213 0.533 0.213L0.512 0.203Q0.493 0.194 0.477 0.194Q0.451 0.194 0.430 0.218Q0.421 0.228 0.421 0.241Q0.421 0.255 0.431 0.266Q0.442 0.276 0.456 0.276Q0.470 0.276 0.481 0.264Q0.482 0.264 0.483 0.264L0.505 0.273Q0.527 0.282 0.540 0.282Q0.565 0.282 0.586 0.258Q0.596 0.248 0.596 0.235Z" fill="black"/>
</svg>
