<svg xmlns="http://www.w3.org/2000/svg" viewBox="0 0 1 1" preserveAspectRatio="xMidYMid meet">
  <path d="M0.643 0.585Q0.643 0.645 0.602 0.687Q0.560 0.728 0.500 0.728Q0.440 0.728 0.398 0.687Q0.357 0.646 0.357 0.585V0.420Q0.357 0.391 0.376 0.372Q0.395 0.352 0.424 0.352Q0.453 0.352 0.473 0.372Q0.492 0.391 0.492 0.420V0.534Q0.492 0.542 0.500 0.542Q0.508 0.542 0.508 0.534V0.419Q0.508 0.390 0.527 0.371Q0.547 0.352 0.576 0.352Q0.605 0.352 0.624 0.371Q0.643 0.390 0.643 0.419ZM0.610 0.534V0.419Q0.610 0.404 0.600 0.394Q0.591 0.385 0.576 0.385Q0.560 0.385 0.551 0.394Q0.541 0.404 0.541 0.419V0.534Q0.541 0.551 0.529 0.563Q0.518 0.575 0.500 0.575Q0.483 0.575 0.471 0.563Q0.459 0.551 0.459 0.534V0.420Q0.459 0.405 0.449 0.395Q0.440 0.385 0.424 0.385Q0.409 0.385 0.400 0.395Q0.390 0.405 0.390 0.420V0.534Q0.390 0.582 0.422 0.613Q0.453 0.644 0.500 0.644Q0.547 0.644 0.578 0.613Q0.610 0.581 0.610 0.534ZM0.582 0.317Q0.582 0.366 0.536 0.386Q0.522 0.392 0.507 0.392Q0.478 0.392 0.459 0.375Q0.444 0.362 0.432 0.335Q0.423 0.311 0.414 0.287Q0.408 0.274 0.408 0.259Q0.408 0.245 0.412 0.233Q0.408 0.221 0.408 0.208Q0.408 0.175 0.430 0.154Q0.451 0.133 0.483 0.133Q0.512 0.133 0.531 0.149Q0.546 0.162 0.558 0.189Q0.567 0.213 0.577 0.236Q0.582 0.250 0.582 0.266Q0.582 0.279 0.578 0.292Q0.582 0.303 0.582 0.317ZM0.549 0.266Q0.549 0.256 0.546 0.249L0.522 0.192Q0.511 0.166 0.483 0.166Q0.475 0.166 0.467 0.169Q0.441 0.179 0.441 0.208Q0.441 0.216 0.444 0.224L0.468 0.282Q0.479 0.308 0.507 0.308Q0.515 0.308 0.523 0.304Q0.549 0.293 0.549 0.266Z" fill="black"/>
</svg>
