<svg xmlns="http://www.w3.org/2000/svg" viewBox="0 0 1 1" preserveAspectRatio="xMidYMid meet">
  <path d="M0.594 0.239Q0.594 0.253 0.588 0.267Q0.579 0.291 0.570 0.315Q0.558 0.341 0.543 0.355Q0.524 0.372 0.495 0.372Q0.464 0.372 0.442 0.350Q0.420 0.328 0.420 0.296Q0.420 0.285 0.424 0.271Q0.420 0.258 0.420 0.245Q0.420 0.228 0.431 0.199Q0.440 0.179 0.449 0.159Q0.469 0.112 0.519 0.112Q0.551 0.112 0.572 0.134Q0.594 0.155 0.594 0.188Q0.594 0.200 0.590 0.213Q0.594 0.225 0.594 0.239ZM0.561 0.188Q0.561 0.159 0.535 0.148Q0.527 0.145 0.519 0.145Q0.491 0.145 0.480 0.171L0.456 0.229Q0.453 0.236 0.453 0.245Q0.453 0.273 0.479 0.284Q0.487 0.287 0.495 0.287Q0.523 0.287 0.534 0.261L0.558 0.203Q0.561 0.196 0.561 0.188ZM0.643 0.585Q0.643 0.645 0.602 0.687Q0.560 0.728 0.500 0.728Q0.440 0.728 0.398 0.687Q0.357 0.646 0.357 0.585V0.420Q0.357 0.391 0.376 0.372Q0.395 0.352 0.424 0.352Q0.453 0.352 0.473 0.372Q0.492 0.391 0.492 0.420V0.534Q0.492 0.542 0.500 0.542Q0.508 0.542 0.508 0.534V0.419Q0.508 0.390 0.527 0.371Q0.547 0.352 0.576 0.352Q0.605 0.352 0.624 0.371Q0.643 0.390 0.643 0.419ZM0.610 0.534V0.419Q0.610 0.404 0.600 0.394Q0.591 0.385 0.576 0.385Q0.560 0.385 0.551 0.394Q0.541 0.404 0.541 0.419V0.534Q0.541 0.551 0.529 0.563Q0.518 0.575 0.500 0.575Q0.483 0.575 0.471 0.563Q0.459 0.551 0.459 0.534V0.420Q0.459 0.405 0.449 0.395Q0.440 0.385 0.424 0.385Q0.409 0.385 0.400 0.395Q0.390 0.405 0.390 0.420V0.534Q0.390 0.582 0.422 0.613Q0.453 0.644 0.500 0.644Q0.547 0.644 0.578 0.613Q0.610 0.581 0.610 0.534Z" fill="black"/>
</svg>
