<svg xmlns="http://www.w3.org/2000/svg" viewBox="0 0 1 1" preserveAspectRatio="xMidYMid meet">
  <path d="M0.643 0.585Q0.643 0.645 0.602 0.687Q0.560 0.728 0.500 0.728Q0.440 0.728 0.398 0.687Q0.357 0.646 0.357 0.585V0.420Q0.357 0.391 0.376 0.372Q0.395 0.352 0.424 0.352Q0.453 0.352 0.473 0.372Q0.492 0.391 0.492 0.420V0.534Q0.492 0.542 0.500 0.542Q0.508 0.542 0.508 0.534V0.419Q0.508 0.390 0.527 0.371Q0.547 0.352 0.576 0.352Q0.605 0.352 0.624 0.371Q0.643 0.390 0.643 0.419ZM0.610 0.534V0.419Q0.610 0.404 0.600 0.394Q0.591 0.385 0.576 0.385Q0.560 0.385 0.551 0.394Q0.541 0.404 0.541 0.419V0.534Q0.541 0.551 0.529 0.563Q0.518 0.575 0.500 0.575Q0.483 0.575 0.471 0.563Q0.459 0.551 0.459 0.534V0.420Q0.459 0.405 0.449 0.395Q0.440 0.385 0.424 0.385Q0.409 0.385 0.400 0.395Q0.390 0.405 0.390 0.420V0.534Q0.390 0.582 0.422 0.613Q0.453 0.644 0.500 0.644Q0.547 0.644 0.578 0.613Q0.610 0.581 0.610 0.534ZM0.619 0.311Q0.619 0.339 0.599 0.360Q0.578 0.380 0.550 0.380Q0.524 0.380 0.503 0.359H0.498Q0.478 0.380 0.451 0.380Q0.423 0.380 0.403 0.360Q0.383 0.339 0.383 0.311Q0.383 0.299 0.389 0.287Q0.383 0.274 0.383 0.260Q0.383 0.235 0.407 0.208Q0.417 0.197 0.451 0.167Q0.477 0.143 0.501 0.143Q0.524 0.143 0.555 0.170Q0.555 0.170 0.599 0.213Q0.619 0.233 0.619 0.260Q0.619 0.274 0.614 0.286Q0.619 0.298 0.619 0.311ZM0.586 0.260Q0.586 0.247 0.575 0.236Q0.536 0.198 0.529 0.192Q0.512 0.176 0.501 0.176Q0.490 0.176 0.473 0.192Q0.464 0.199 0.427 0.236Q0.416 0.247 0.416 0.260Q0.416 0.275 0.427 0.285Q0.437 0.296 0.451 0.296Q0.465 0.296 0.475 0.285L0.501 0.260L0.526 0.285Q0.537 0.296 0.550 0.296Q0.564 0.296 0.575 0.285Q0.586 0.275 0.586 0.260Z" fill="black"/>
</svg>
