<svg xmlns="http://www.w3.org/2000/svg" viewBox="0 0 1 1" preserveAspectRatio="xMidYMid meet">
  <path d="M0.643 0.697Q0.643 0.757 0.601 0.799Q0.560 0.840 0.500 0.840Q0.470 0.840 0.450 0.822Q0.430 0.803 0.430 0.773Q0.430 0.760 0.435 0.748Q0.430 0.736 0.430 0.722Q0.430 0.717 0.431 0.712Q0.397 0.693 0.377 0.660Q0.357 0.626 0.357 0.585V0.419Q0.357 0.390 0.376 0.371Q0.395 0.352 0.424 0.352Q0.455 0.352 0.474 0.370Q0.492 0.388 0.492 0.419V0.534Q0.492 0.542 0.500 0.542Q0.508 0.542 0.508 0.534V0.419Q0.508 0.390 0.527 0.371Q0.547 0.352 0.576 0.352Q0.605 0.352 0.624 0.371Q0.643 0.390 0.643 0.419ZM0.610 0.646V0.419Q0.610 0.404 0.600 0.394Q0.591 0.385 0.576 0.385Q0.560 0.385 0.551 0.394Q0.541 0.404 0.541 0.419V0.534Q0.541 0.551 0.529 0.563Q0.518 0.575 0.500 0.575Q0.483 0.575 0.471 0.563Q0.459 0.551 0.459 0.534V0.419Q0.459 0.385 0.424 0.385Q0.409 0.385 0.400 0.394Q0.390 0.404 0.390 0.419V0.534Q0.390 0.582 0.422 0.613Q0.453 0.644 0.500 0.644Q0.522 0.644 0.541 0.637V0.646Q0.541 0.663 0.529 0.675Q0.517 0.688 0.500 0.688H0.498Q0.482 0.688 0.473 0.697Q0.463 0.707 0.463 0.722Q0.463 0.738 0.473 0.747Q0.482 0.756 0.498 0.756H0.500Q0.547 0.756 0.578 0.725Q0.610 0.693 0.610 0.646ZM0.620 0.258Q0.620 0.290 0.598 0.312Q0.577 0.334 0.545 0.334Q0.517 0.334 0.496 0.316Q0.475 0.334 0.447 0.334Q0.416 0.334 0.394 0.312Q0.372 0.290 0.372 0.258Q0.372 0.245 0.376 0.233Q0.372 0.221 0.372 0.207Q0.372 0.176 0.394 0.154Q0.416 0.133 0.447 0.133Q0.475 0.133 0.496 0.150Q0.517 0.133 0.545 0.133Q0.576 0.133 0.598 0.154Q0.620 0.176 0.620 0.207Q0.620 0.221 0.616 0.233Q0.620 0.245 0.620 0.258ZM0.587 0.207Q0.587 0.190 0.575 0.178Q0.562 0.166 0.545 0.166Q0.527 0.166 0.515 0.178Q0.503 0.190 0.503 0.207Q0.503 0.225 0.515 0.238Q0.527 0.250 0.545 0.250Q0.563 0.250 0.575 0.238Q0.587 0.225 0.587 0.207ZM0.490 0.207Q0.490 0.190 0.477 0.178Q0.465 0.166 0.447 0.166Q0.430 0.166 0.417 0.178Q0.405 0.190 0.405 0.207Q0.405 0.225 0.417 0.238Q0.429 0.250 0.447 0.250Q0.465 0.250 0.477 0.238Q0.490 0.225 0.490 0.207Z" fill="black"/>
</svg>
