<svg xmlns="http://www.w3.org/2000/svg" viewBox="0 0 1 1" preserveAspectRatio="xMidYMid meet">
  <path d="M0.337 0.354V0.703H0.467V0.354ZM0.551 0.784Q0.557 0.836 0.496 0.837H0.293Q0.216 0.839 0.204 0.770V0.248L0.337 0.221V0.280L0.372 0.221H0.548Q0.549 0.221 0.549 0.221L0.796 0.221L0.760 0.357L0.605 0.359V0.426L0.781 0.426L0.760 0.549H0.602Q0.601 0.562 0.601 0.574V0.617Q0.602 0.660 0.614 0.678Q0.633 0.710 0.677 0.710L0.777 0.710L0.755 0.838L0.639 0.837Q0.576 0.831 0.551 0.784Z" fill="black"/>
</svg>
