<svg xmlns="http://www.w3.org/2000/svg" viewBox="0 0 1 1" preserveAspectRatio="xMidYMid meet">
  <path d="M0.332 0.429Q0.354 0.366 0.404 0.315Q0.493 0.226 0.620 0.226Q0.674 0.226 0.722 0.242V0.372Q0.677 0.343 0.620 0.343Q0.542 0.343 0.487 0.398Q0.472 0.413 0.461 0.429H0.720V0.495H0.435Q0.432 0.512 0.432 0.531Q0.432 0.538 0.432 0.545H0.720V0.612H0.449Q0.463 0.641 0.487 0.664Q0.542 0.720 0.620 0.720Q0.677 0.720 0.722 0.690V0.821Q0.674 0.837 0.620 0.837Q0.494 0.837 0.405 0.748Q0.345 0.688 0.325 0.612H0.278V0.545H0.316Q0.315 0.539 0.315 0.532Q0.315 0.513 0.317 0.495H0.278V0.429Z" fill="black"/>
</svg>
