<svg xmlns="http://www.w3.org/2000/svg" viewBox="0 0 1 1" preserveAspectRatio="xMidYMid meet">
  <path d="M0.531 0.577V0.717Q0.548 0.712 0.562 0.701Q0.592 0.679 0.592 0.647Q0.592 0.615 0.563 0.593Q0.548 0.583 0.531 0.577ZM0.481 0.332Q0.457 0.338 0.437 0.352Q0.407 0.374 0.407 0.406Q0.407 0.437 0.437 0.459Q0.457 0.474 0.481 0.479ZM0.481 0.569Q0.406 0.563 0.351 0.522Q0.286 0.474 0.286 0.405Q0.286 0.337 0.352 0.289Q0.407 0.248 0.481 0.242V0.146H0.531V0.241Q0.611 0.246 0.669 0.289Q0.697 0.310 0.714 0.335L0.604 0.371Q0.597 0.360 0.585 0.352Q0.561 0.335 0.531 0.331V0.485Q0.598 0.494 0.649 0.531Q0.714 0.579 0.714 0.648Q0.714 0.716 0.648 0.764Q0.598 0.801 0.531 0.810V0.929H0.481V0.812Q0.394 0.811 0.331 0.764Q0.302 0.743 0.286 0.718L0.396 0.682Q0.403 0.692 0.415 0.701Q0.443 0.722 0.481 0.724Z" fill="black"/>
</svg>
