<svg xmlns="http://www.w3.org/2000/svg" viewBox="0 0 1 1" preserveAspectRatio="xMidYMid meet">
  <path d="M0.470 0.351Q0.396 0.351 0.402 0.399Q0.408 0.447 0.485 0.454L0.734 0.452L0.730 0.573H0.694Q0.693 0.724 0.735 0.723V0.838Q0.595 0.854 0.571 0.681V0.628L0.645 0.578L0.571 0.577L0.394 0.576Q0.389 0.690 0.413 0.706Q0.437 0.721 0.533 0.710L0.578 0.824Q0.471 0.849 0.372 0.826Q0.329 0.816 0.300 0.786Q0.270 0.757 0.265 0.704V0.526Q0.276 0.454 0.331 0.458Q0.275 0.446 0.281 0.337Q0.287 0.227 0.472 0.222H0.534L0.550 0.351Z" fill="black"/>
</svg>
