<svg xmlns="http://www.w3.org/2000/svg" viewBox="0 0 1 1" preserveAspectRatio="xMidYMid meet">
  <path d="M0.346 0.222H0.656Q0.709 0.229 0.712 0.294L0.712 0.768Q0.714 0.840 0.654 0.839L0.344 0.838Q0.284 0.843 0.288 0.770L0.289 0.294Q0.286 0.227 0.346 0.222ZM0.437 0.344Q0.385 0.344 0.389 0.371L0.389 0.691Q0.395 0.722 0.439 0.717H0.571Q0.611 0.724 0.613 0.689L0.613 0.373Q0.616 0.344 0.561 0.344ZM0.504 0.437Q0.563 0.427 0.554 0.534Q0.563 0.644 0.504 0.631Q0.446 0.638 0.453 0.534Q0.448 0.426 0.504 0.437Z" fill="black"/>
</svg>
