<svg xmlns="http://www.w3.org/2000/svg" viewBox="0 0 1 1" preserveAspectRatio="xMidYMid meet">
  <path d="M0.283 0.222H0.566Q0.657 0.227 0.676 0.266Q0.696 0.304 0.692 0.347Q0.688 0.391 0.627 0.458Q0.722 0.454 0.733 0.526V0.723Q0.728 0.776 0.699 0.805Q0.669 0.835 0.626 0.845Q0.527 0.868 0.420 0.824L0.465 0.710Q0.561 0.740 0.585 0.725Q0.609 0.709 0.604 0.568L0.433 0.569V0.681Q0.409 0.854 0.269 0.838V0.723Q0.311 0.724 0.304 0.652V0.573H0.268L0.268 0.458L0.315 0.459V0.351H0.267ZM0.433 0.351V0.453L0.491 0.440Q0.553 0.407 0.548 0.351Z" fill="black"/>
</svg>
