<svg xmlns="http://www.w3.org/2000/svg" viewBox="0 0 1 1" preserveAspectRatio="xMidYMid meet">
  <path d="M0.310 0.219 0.386 0.592Q0.441 0.546 0.450 0.496Q0.458 0.446 0.434 0.356H0.382L0.402 0.222L0.559 0.223L0.636 0.581Q0.669 0.560 0.685 0.503Q0.701 0.446 0.677 0.352H0.628L0.651 0.222L0.793 0.223Q0.835 0.450 0.817 0.525Q0.799 0.600 0.773 0.645Q0.748 0.691 0.696 0.735L0.660 0.710L0.690 0.852L0.561 0.899L0.506 0.644Q0.487 0.703 0.447 0.734L0.417 0.720L0.443 0.852L0.321 0.906L0.178 0.250Z" fill="black"/>
</svg>
