<svg xmlns="http://www.w3.org/2000/svg" viewBox="0 0 1 1" preserveAspectRatio="xMidYMid meet">
  <path d="M0.630 0.223Q0.751 0.252 0.758 0.402H0.638Q0.636 0.355 0.577 0.359H0.415Q0.365 0.467 0.363 0.522Q0.360 0.578 0.392 0.626Q0.423 0.675 0.459 0.696Q0.496 0.716 0.559 0.710Q0.623 0.704 0.678 0.628L0.759 0.729Q0.688 0.797 0.644 0.820Q0.600 0.843 0.528 0.844Q0.456 0.845 0.396 0.816Q0.336 0.787 0.286 0.708Q0.236 0.629 0.242 0.529Q0.247 0.428 0.268 0.400L0.358 0.359H0.250L0.258 0.316L0.268 0.275L0.288 0.223Z" fill="black"/>
</svg>
