<svg xmlns="http://www.w3.org/2000/svg" viewBox="0 0 1 1" preserveAspectRatio="xMidYMid meet">
  <path d="M0.393 0.620 0.296 0.850 0.174 0.814 0.350 0.395 0.221 0.395 0.231 0.262H0.401L0.437 0.177L0.548 0.219L0.535 0.261H0.826L0.790 0.398L0.627 0.399V0.497H0.811L0.790 0.620L0.624 0.620Q0.617 0.647 0.636 0.679Q0.655 0.710 0.699 0.710H0.808L0.785 0.838Q0.643 0.843 0.611 0.826Q0.579 0.809 0.544 0.770Q0.510 0.731 0.500 0.655V0.620ZM0.505 0.399 0.485 0.400 0.445 0.496 0.505 0.497Z" fill="black"/>
</svg>
