<?xml version="1.0" encoding="UTF-8" standalone="no"?>
<!DOCTYPE svg PUBLIC "-//W3C//DTD SVG 1.1//EN"
 "http://www.w3.org/Graphics/SVG/1.1/DTD/svg11.dtd">
<!-- Generated by graphviz version 14.1.2 (0)
 -->
<!-- Title: acpi&#45;v6.1.1 Pages: 1 -->
<svg width="545pt" height="879pt"
 viewBox="0.00 0.00 545.00 879.00" xmlns="http://www.w3.org/2000/svg" xmlns:xlink="http://www.w3.org/1999/xlink">
<g id="graph0" class="graph" transform="scale(1 1) rotate(0) translate(4 875.3)">
<title>acpi&#45;v6.1.1</title>
<polygon fill="white" stroke="none" points="-4,4 -4,-875.3 541.41,-875.3 541.41,4 -4,4"/>
<!-- n0 -->
<g id="node1" class="node">
<title>n0</title>
<path fill="#dff3ff" stroke="#1b78a6" d="M107.61,-557.9C107.61,-557.9 77.61,-557.9 77.61,-557.9 71.61,-557.9 65.61,-551.9 65.61,-545.9 65.61,-545.9 65.61,-530.5 65.61,-530.5 65.61,-524.5 71.61,-518.5 77.61,-518.5 77.61,-518.5 107.61,-518.5 107.61,-518.5 113.61,-518.5 119.61,-524.5 119.61,-530.5 119.61,-530.5 119.61,-545.9 119.61,-545.9 119.61,-551.9 113.61,-557.9 107.61,-557.9"/>
<text xml:space="preserve" text-anchor="start" x="79.11" y="-539.35" font-family="Inter,Arial" font-weight="bold" font-size="13.00" fill="#172033">acpi</text>
<text xml:space="preserve" text-anchor="start" x="79.49" y="-527.3" font-family="Inter,Arial" font-size="12.00" fill="#172033">6.1.1</text>
</g>
<!-- n1 -->
<g id="node2" class="node">
<title>n1</title>
<path fill="#f7f9fb" stroke="#8b9bb0" d="M492.78,-793.9C492.78,-793.9 446.31,-793.9 446.31,-793.9 440.31,-793.9 434.31,-787.9 434.31,-781.9 434.31,-781.9 434.31,-766.5 434.31,-766.5 434.31,-760.5 440.31,-754.5 446.31,-754.5 446.31,-754.5 492.78,-754.5 492.78,-754.5 498.78,-754.5 504.78,-760.5 504.78,-766.5 504.78,-766.5 504.78,-781.9 504.78,-781.9 504.78,-787.9 498.78,-793.9 492.78,-793.9"/>
<text xml:space="preserve" text-anchor="start" x="443.67" y="-775.35" font-family="Inter,Arial" font-weight="bold" font-size="13.00" fill="#172033">bit_field</text>
<text xml:space="preserve" text-anchor="start" x="453.05" y="-763.3" font-family="Inter,Arial" font-size="12.00" fill="#172033">0.10.3</text>
</g>
<!-- n0&#45;&gt;n1 -->
<g id="edge1" class="edge">
<title>n0&#45;&gt;n1</title>
<path fill="none" stroke="#9aa8b8" stroke-width="0.9" d="M94.84,-558.25C99.6,-615.96 122.11,-782.7 225.22,-851.2 275.74,-884.76 303.97,-869.83 361.69,-851.2 393.59,-840.91 423.99,-817.16 444.15,-798.73"/>
<polygon fill="#9aa8b8" stroke="#9aa8b8" stroke-width="0.9" points="445.34,-800.26 448.06,-795.1 442.72,-797.44 445.34,-800.26"/>
</g>
<!-- n2 -->
<g id="node3" class="node">
<title>n2</title>
<path fill="#f7f9fb" stroke="#8b9bb0" d="M490.91,-497.9C490.91,-497.9 448.19,-497.9 448.19,-497.9 442.19,-497.9 436.19,-491.9 436.19,-485.9 436.19,-485.9 436.19,-470.5 436.19,-470.5 436.19,-464.5 442.19,-458.5 448.19,-458.5 448.19,-458.5 490.91,-458.5 490.91,-458.5 496.91,-458.5 502.91,-464.5 502.91,-470.5 502.91,-470.5 502.91,-485.9 502.91,-485.9 502.91,-491.9 496.91,-497.9 490.91,-497.9"/>
<text xml:space="preserve" text-anchor="start" x="445.55" y="-479.35" font-family="Inter,Arial" font-weight="bold" font-size="13.00" fill="#172033">bitflags</text>
<text xml:space="preserve" text-anchor="start" x="453.05" y="-467.3" font-family="Inter,Arial" font-size="12.00" fill="#172033">2.13.0</text>
</g>
<!-- n0&#45;&gt;n2 -->
<g id="edge2" class="edge">
<title>n0&#45;&gt;n2</title>
<path fill="none" stroke="#9aa8b8" stroke-width="0.9" d="M119.78,-537.69C168.07,-536.33 274.27,-531.35 361.69,-513.2 384.63,-508.44 409.55,-500.45 429.54,-493.3"/>
<polygon fill="#9aa8b8" stroke="#9aa8b8" stroke-width="0.9" points="430.06,-495.16 434.57,-491.48 428.75,-491.54 430.06,-495.16"/>
</g>
<!-- n3 -->
<g id="node4" class="node">
<title>n3</title>
<path fill="#f7f9fb" stroke="#8b9bb0" d="M321.94,-159.9C321.94,-159.9 264.97,-159.9 264.97,-159.9 258.97,-159.9 252.97,-153.9 252.97,-147.9 252.97,-147.9 252.97,-132.5 252.97,-132.5 252.97,-126.5 258.97,-120.5 264.97,-120.5 264.97,-120.5 321.94,-120.5 321.94,-120.5 327.94,-120.5 333.94,-126.5 333.94,-132.5 333.94,-132.5 333.94,-147.9 333.94,-147.9 333.94,-153.9 327.94,-159.9 321.94,-159.9"/>
<text xml:space="preserve" text-anchor="start" x="262.33" y="-141.35" font-family="Inter,Arial" font-weight="bold" font-size="13.00" fill="#172033">byteorder</text>
<text xml:space="preserve" text-anchor="start" x="280.33" y="-129.3" font-family="Inter,Arial" font-size="12.00" fill="#172033">1.5.0</text>
</g>
<!-- n0&#45;&gt;n3 -->
<g id="edge3" class="edge">
<title>n0&#45;&gt;n3</title>
<path fill="none" stroke="#9aa8b8" stroke-width="0.9" d="M105.6,-518.1C124.95,-484.87 163.13,-415.91 185.22,-353.2 212.59,-275.49 173.93,-236.67 225.22,-172.2 230.97,-164.97 238.76,-159.28 246.99,-154.83"/>
<polygon fill="#9aa8b8" stroke="#9aa8b8" stroke-width="0.9" points="247.47,-156.75 251.52,-152.56 245.75,-153.31 247.47,-156.75"/>
</g>
<!-- n5 -->
<g id="node6" class="node">
<title>n5</title>
<path fill="#f7f9fb" stroke="#8b9bb0" d="M321.94,-793.9C321.94,-793.9 264.97,-793.9 264.97,-793.9 258.97,-793.9 252.97,-787.9 252.97,-781.9 252.97,-781.9 252.97,-766.5 252.97,-766.5 252.97,-760.5 258.97,-754.5 264.97,-754.5 264.97,-754.5 321.94,-754.5 321.94,-754.5 327.94,-754.5 333.94,-760.5 333.94,-766.5 333.94,-766.5 333.94,-781.9 333.94,-781.9 333.94,-787.9 327.94,-793.9 321.94,-793.9"/>
<text xml:space="preserve" text-anchor="start" x="262.33" y="-775.35" font-family="Inter,Arial" font-weight="bold" font-size="13.00" fill="#172033">pci_types</text>
<text xml:space="preserve" text-anchor="start" x="276.95" y="-763.3" font-family="Inter,Arial" font-size="12.00" fill="#172033">0.10.1</text>
</g>
<!-- n0&#45;&gt;n5 -->
<g id="edge4" class="edge">
<title>n0&#45;&gt;n5</title>
<path fill="none" stroke="#9aa8b8" stroke-width="0.9" d="M101.95,-558.19C119.44,-597.98 163.49,-687.94 225.22,-742.2 231.56,-747.78 239.05,-752.59 246.68,-756.67"/>
<polygon fill="#9aa8b8" stroke="#9aa8b8" stroke-width="0.9" points="245.54,-758.25 251.32,-759.03 247.29,-754.82 245.54,-758.25"/>
</g>
<!-- n6 -->
<g id="node7" class="node">
<title>n6</title>
<path fill="#f7f9fb" stroke="#8b9bb0" d="M333.19,-223.9C333.19,-223.9 253.72,-223.9 253.72,-223.9 247.72,-223.9 241.72,-217.9 241.72,-211.9 241.72,-211.9 241.72,-196.5 241.72,-196.5 241.72,-190.5 247.72,-184.5 253.72,-184.5 253.72,-184.5 333.19,-184.5 333.19,-184.5 339.19,-184.5 345.19,-190.5 345.19,-196.5 345.19,-196.5 345.19,-211.9 345.19,-211.9 345.19,-217.9 339.19,-223.9 333.19,-223.9"/>
<text xml:space="preserve" text-anchor="start" x="251.08" y="-205.35" font-family="Inter,Arial" font-weight="bold" font-size="13.00" fill="#172033">spinning_top</text>
<text xml:space="preserve" text-anchor="start" x="280.33" y="-193.3" font-family="Inter,Arial" font-size="12.00" fill="#172033">0.3.0</text>
</g>
<!-- n0&#45;&gt;n6 -->
<g id="edge5" class="edge">
<title>n0&#45;&gt;n6</title>
<path fill="none" stroke="#9aa8b8" stroke-width="0.9" d="M104.66,-518.07C122.84,-484.51 159.59,-414.74 185.22,-353.2 206.35,-302.47 188.65,-277.22 225.22,-236.2 228.35,-232.68 231.96,-229.52 235.84,-226.68"/>
<polygon fill="#9aa8b8" stroke="#9aa8b8" stroke-width="0.9" points="236.66,-228.44 240.14,-223.77 234.51,-225.25 236.66,-228.44"/>
</g>
<!-- n4 -->
<g id="node5" class="node">
<title>n4</title>
<path fill="#f7f9fb" stroke="#8b9bb0" d="M525.41,-156.77C525.41,-156.77 413.69,-156.77 413.69,-156.77 407.69,-156.77 401.69,-150.77 401.69,-144.77 401.69,-144.77 401.69,-81.62 401.69,-81.62 401.69,-75.62 407.69,-69.62 413.69,-69.62 413.69,-69.62 525.41,-69.62 525.41,-69.62 531.41,-69.62 537.41,-75.62 537.41,-81.62 537.41,-81.62 537.41,-144.77 537.41,-144.77 537.41,-150.77 531.41,-156.77 525.41,-156.77"/>
<text xml:space="preserve" text-anchor="start" x="442.55" y="-138.22" font-family="Inter,Arial" font-weight="bold" font-size="13.00" fill="#172033">lock_api</text>
<text xml:space="preserve" text-anchor="start" x="453.05" y="-123.17" font-family="Inter,Arial" font-size="12.00" fill="#172033">0.4.14</text>
<text xml:space="preserve" text-anchor="start" x="426.05" y="-95.87" font-family="Inter,Arial" font-weight="bold" font-size="11.00" fill="#172033">scopeguard</text>
<text xml:space="preserve" text-anchor="start" x="488.3" y="-95.87" font-family="Inter,Arial" font-size="10.00" fill="#172033"> </text>
<text xml:space="preserve" text-anchor="start" x="491.3" y="-95.87" font-family="Inter,Arial" font-size="10.00" fill="#172033">1.2.0</text>
<path fill="none" stroke="#9aa8b8" d="M427.55,-82.82C427.55,-82.82 511.55,-82.82 511.55,-82.82 516.8,-82.82 522.05,-88.07 522.05,-93.32 522.05,-93.32 522.05,-103.82 522.05,-103.82 522.05,-109.07 516.8,-114.32 511.55,-114.32 511.55,-114.32 427.55,-114.32 427.55,-114.32 422.3,-114.32 417.05,-109.07 417.05,-103.82 417.05,-103.82 417.05,-93.32 417.05,-93.32 417.05,-88.07 422.3,-82.82 427.55,-82.82"/>
</g>
<!-- n5&#45;&gt;n1 -->
<g id="edge6" class="edge">
<title>n5&#45;&gt;n1</title>
<path fill="none" stroke="#9aa8b8" stroke-width="0.9" d="M334.4,-774.2C362.28,-774.2 399.39,-774.2 427.51,-774.2"/>
<polygon fill="#9aa8b8" stroke="#9aa8b8" stroke-width="0.9" points="427.22,-776.13 432.72,-774.2 427.22,-772.28 427.22,-776.13"/>
</g>
<!-- n5&#45;&gt;n2 -->
<g id="edge7" class="edge">
<title>n5&#45;&gt;n2</title>
<path fill="none" stroke="#9aa8b8" stroke-width="0.9" d="M334.29,-761.15C344.21,-756.41 354.16,-750.2 361.69,-742.2 427.56,-672.28 455,-556.44 464.4,-504.65"/>
<polygon fill="#9aa8b8" stroke="#9aa8b8" stroke-width="0.9" points="466.26,-505.16 465.32,-499.41 462.47,-504.49 466.26,-505.16"/>
</g>
<!-- n6&#45;&gt;n4 -->
<g id="edge8" class="edge">
<title>n6&#45;&gt;n4</title>
<path fill="none" stroke="#9aa8b8" stroke-width="0.9" d="M337.69,-184.1C345.71,-180.23 353.98,-176.16 361.69,-172.2 372.69,-166.55 384.22,-160.42 395.48,-154.31"/>
<polygon fill="#9aa8b8" stroke="#9aa8b8" stroke-width="0.9" points="396.23,-156.09 400.13,-151.77 394.38,-152.71 396.23,-156.09"/>
</g>
<!-- in0 -->
<g id="node8" class="node">
<title>in0</title>
<polygon fill="#eef6ff" stroke="#4b8fc5" points="343.69,-293.4 237.22,-293.4 237.22,-249 349.69,-249 349.69,-287.4 343.69,-293.4"/>
<polyline fill="none" stroke="#4b8fc5" points="343.69,-293.4 343.69,-287.4"/>
<polyline fill="none" stroke="#4b8fc5" points="349.69,-287.4 343.69,-287.4"/>
<text xml:space="preserve" text-anchor="start" x="246.58" y="-277.7" font-family="Inter,Arial" font-size="10.00" fill="#123d5c">from alsa&#45;v0.11.0.svg</text>
<text xml:space="preserve" text-anchor="start" x="276.2" y="-267.7" font-family="Inter,Arial" font-weight="bold" font-size="10.00" fill="#123d5c">bitflags</text>
<text xml:space="preserve" text-anchor="start" x="279.95" y="-257.7" font-family="Inter,Arial" font-size="10.00" fill="#123d5c">2.13.0</text>
</g>
<!-- in0&#45;&gt;n2 -->
<g id="edge9" class="edge">
<title>in0&#45;&gt;n2</title>
<path fill="none" stroke="#4b8fc5" stroke-width="0.9" stroke-dasharray="5,2" d="M346.67,-293.87C352.03,-297.26 357.16,-301.04 361.69,-305.2 408.15,-347.86 441.81,-415.24 457.9,-452.05"/>
<polygon fill="#4b8fc5" stroke="#4b8fc5" stroke-width="0.9" points="456.04,-452.59 459.98,-456.88 459.57,-451.06 456.04,-452.59"/>
</g>
<!-- in1 -->
<g id="node9" class="node">
<title>in1</title>
<polygon fill="#eef6ff" stroke="#4b8fc5" points="142.1,-340.4 37.13,-340.4 37.13,-256 148.1,-256 148.1,-334.4 142.1,-340.4"/>
<polyline fill="none" stroke="#4b8fc5" points="142.1,-340.4 142.1,-334.4"/>
<polyline fill="none" stroke="#4b8fc5" points="148.1,-334.4 142.1,-334.4"/>
<text xml:space="preserve" text-anchor="start" x="46.49" y="-324.7" font-family="Inter,Arial" font-size="10.00" fill="#123d5c">from aml&#45;v0.16.4.svg</text>
<text xml:space="preserve" text-anchor="start" x="73.86" y="-314.7" font-family="Inter,Arial" font-weight="bold" font-size="10.00" fill="#123d5c">bit_field</text>
<text xml:space="preserve" text-anchor="start" x="79.11" y="-304.7" font-family="Inter,Arial" font-size="10.00" fill="#123d5c">0.10.3</text>
<text xml:space="preserve" text-anchor="start" x="70.49" y="-294.7" font-family="Inter,Arial" font-weight="bold" font-size="10.00" fill="#123d5c">byteorder</text>
<text xml:space="preserve" text-anchor="start" x="81.74" y="-284.7" font-family="Inter,Arial" font-size="10.00" fill="#123d5c">1.5.0</text>
<text xml:space="preserve" text-anchor="start" x="61.86" y="-274.7" font-family="Inter,Arial" font-weight="bold" font-size="10.00" fill="#123d5c">spinning_top</text>
<text xml:space="preserve" text-anchor="start" x="81.74" y="-264.7" font-family="Inter,Arial" font-size="10.00" fill="#123d5c">0.3.0</text>
</g>
<!-- in1&#45;&gt;n1 -->
<g id="edge10" class="edge">
<title>in1&#45;&gt;n1</title>
<path fill="none" stroke="#4b8fc5" stroke-width="0.9" stroke-dasharray="5,2" d="M116.6,-340.7C137.81,-381.84 168.47,-446.56 185.22,-506.2 203.4,-570.95 174.62,-761.9 225.22,-806.2 281.4,-855.39 374.69,-822.24 427.96,-796.43"/>
<polygon fill="#4b8fc5" stroke="#4b8fc5" stroke-width="0.9" points="428.63,-798.24 432.71,-794.08 426.93,-794.79 428.63,-798.24"/>
</g>
<!-- in1&#45;&gt;n3 -->
<g id="edge11" class="edge">
<title>in1&#45;&gt;n3</title>
<path fill="none" stroke="#4b8fc5" stroke-width="0.9" stroke-dasharray="5,2" d="M148.4,-272.3C161.46,-264.48 174.65,-255.04 185.22,-244.2 210.77,-217.99 198.53,-197.26 225.22,-172.2 231.45,-166.35 238.95,-161.38 246.65,-157.24"/>
<polygon fill="#4b8fc5" stroke="#4b8fc5" stroke-width="0.9" points="247.32,-159.06 251.34,-154.85 245.57,-155.63 247.32,-159.06"/>
</g>
<!-- in1&#45;&gt;n6 -->
<g id="edge12" class="edge">
<title>in1&#45;&gt;n6</title>
<path fill="none" stroke="#4b8fc5" stroke-width="0.9" stroke-dasharray="5,2" d="M148.47,-272.27C178.31,-258.16 214.89,-240.87 243.72,-227.24"/>
<polygon fill="#4b8fc5" stroke="#4b8fc5" stroke-width="0.9" points="244.37,-229.06 248.51,-224.97 242.72,-225.58 244.37,-229.06"/>
</g>
<!-- in2 -->
<g id="node10" class="node">
<title>in2</title>
<polygon fill="#eef6ff" stroke="#4b8fc5" points="351.19,-729.4 229.72,-729.4 229.72,-665 357.19,-665 357.19,-723.4 351.19,-729.4"/>
<polyline fill="none" stroke="#4b8fc5" points="351.19,-729.4 351.19,-723.4"/>
<polyline fill="none" stroke="#4b8fc5" points="357.19,-723.4 351.19,-723.4"/>
<text xml:space="preserve" text-anchor="start" x="239.08" y="-713.7" font-family="Inter,Arial" font-size="10.00" fill="#123d5c">from crab&#45;usb&#45;v0.9.1.svg</text>
<text xml:space="preserve" text-anchor="start" x="276.2" y="-703.7" font-family="Inter,Arial" font-weight="bold" font-size="10.00" fill="#123d5c">bitflags</text>
<text xml:space="preserve" text-anchor="start" x="279.95" y="-693.7" font-family="Inter,Arial" font-size="10.00" fill="#123d5c">2.13.0</text>
<text xml:space="preserve" text-anchor="start" x="274.7" y="-683.7" font-family="Inter,Arial" font-weight="bold" font-size="10.00" fill="#123d5c">bit_field</text>
<text xml:space="preserve" text-anchor="start" x="279.95" y="-673.7" font-family="Inter,Arial" font-size="10.00" fill="#123d5c">0.10.3</text>
</g>
<!-- in2&#45;&gt;n1 -->
<g id="edge13" class="edge">
<title>in2&#45;&gt;n1</title>
<path fill="none" stroke="#4b8fc5" stroke-width="0.9" stroke-dasharray="5,2" d="M357.31,-725C380.89,-735.43 407.04,-747 428.06,-756.29"/>
<polygon fill="#4b8fc5" stroke="#4b8fc5" stroke-width="0.9" points="427.07,-757.96 432.88,-758.42 428.63,-754.44 427.07,-757.96"/>
</g>
<!-- in2&#45;&gt;n2 -->
<g id="edge14" class="edge">
<title>in2&#45;&gt;n2</title>
<path fill="none" stroke="#4b8fc5" stroke-width="0.9" stroke-dasharray="5,2" d="M348.98,-664.64C353.5,-661.04 357.81,-657.21 361.69,-653.2 405.84,-607.65 440.3,-540.72 457.17,-504.25"/>
<polygon fill="#4b8fc5" stroke="#4b8fc5" stroke-width="0.9" points="458.82,-505.27 459.35,-499.47 455.32,-503.67 458.82,-505.27"/>
</g>
<!-- in3 -->
<g id="node11" class="node">
<title>in3</title>
<polygon fill="#eef6ff" stroke="#4b8fc5" points="163.47,-162.4 15.75,-162.4 15.75,-118 169.47,-118 169.47,-156.4 163.47,-162.4"/>
<polyline fill="none" stroke="#4b8fc5" points="163.47,-162.4 163.47,-156.4"/>
<polyline fill="none" stroke="#4b8fc5" points="169.47,-156.4 163.47,-156.4"/>
<text xml:space="preserve" text-anchor="start" x="25.11" y="-146.7" font-family="Inter,Arial" font-size="10.00" fill="#123d5c">from embassy&#45;sync&#45;v0.8.0.svg</text>
<text xml:space="preserve" text-anchor="start" x="70.49" y="-136.7" font-family="Inter,Arial" font-weight="bold" font-size="10.00" fill="#123d5c">byteorder</text>
<text xml:space="preserve" text-anchor="start" x="81.74" y="-126.7" font-family="Inter,Arial" font-size="10.00" fill="#123d5c">1.5.0</text>
</g>
<!-- in3&#45;&gt;n3 -->
<g id="edge15" class="edge">
<title>in3&#45;&gt;n3</title>
<path fill="none" stroke="#4b8fc5" stroke-width="0.9" stroke-dasharray="5,2" d="M169.92,-140.2C195.43,-140.2 223.09,-140.2 245.66,-140.2"/>
<polygon fill="#4b8fc5" stroke="#4b8fc5" stroke-width="0.9" points="245.63,-142.13 251.13,-140.2 245.63,-138.28 245.63,-142.13"/>
</g>
<!-- in4 -->
<g id="node12" class="node">
<title>in4</title>
<polygon fill="#eef6ff" stroke="#4b8fc5" points="179.22,-231.4 0,-231.4 0,-187 185.22,-187 185.22,-225.4 179.22,-231.4"/>
<polyline fill="none" stroke="#4b8fc5" points="179.22,-231.4 179.22,-225.4"/>
<polyline fill="none" stroke="#4b8fc5" points="185.22,-225.4 179.22,-225.4"/>
<text xml:space="preserve" text-anchor="start" x="9.36" y="-215.7" font-family="Inter,Arial" font-size="10.00" fill="#123d5c">from embedded&#45;websocket&#45;v0.9.4.svg</text>
<text xml:space="preserve" text-anchor="start" x="70.49" y="-205.7" font-family="Inter,Arial" font-weight="bold" font-size="10.00" fill="#123d5c">byteorder</text>
<text xml:space="preserve" text-anchor="start" x="81.74" y="-195.7" font-family="Inter,Arial" font-size="10.00" fill="#123d5c">1.5.0</text>
</g>
<!-- in4&#45;&gt;n3 -->
<g id="edge16" class="edge">
<title>in4&#45;&gt;n3</title>
<path fill="none" stroke="#4b8fc5" stroke-width="0.9" stroke-dasharray="5,2" d="M158.99,-186.51C187.48,-176.63 220.21,-165.27 246.13,-156.28"/>
<polygon fill="#4b8fc5" stroke="#4b8fc5" stroke-width="0.9" points="246.71,-158.11 251.28,-154.49 245.45,-154.47 246.71,-158.11"/>
</g>
<!-- in5 -->
<g id="node13" class="node">
<title>in5</title>
<polygon fill="#eef6ff" stroke="#4b8fc5" points="351.19,-500.4 229.72,-500.4 229.72,-456 357.19,-456 357.19,-494.4 351.19,-500.4"/>
<polyline fill="none" stroke="#4b8fc5" points="351.19,-500.4 351.19,-494.4"/>
<polyline fill="none" stroke="#4b8fc5" points="357.19,-494.4 351.19,-494.4"/>
<text xml:space="preserve" text-anchor="start" x="239.08" y="-484.7" font-family="Inter,Arial" font-size="10.00" fill="#123d5c">from parry2d&#45;v0.26.1.svg</text>
<text xml:space="preserve" text-anchor="start" x="276.2" y="-474.7" font-family="Inter,Arial" font-weight="bold" font-size="10.00" fill="#123d5c">bitflags</text>
<text xml:space="preserve" text-anchor="start" x="279.95" y="-464.7" font-family="Inter,Arial" font-size="10.00" fill="#123d5c">2.13.0</text>
</g>
<!-- in5&#45;&gt;n2 -->
<g id="edge17" class="edge">
<title>in5&#45;&gt;n2</title>
<path fill="none" stroke="#4b8fc5" stroke-width="0.9" stroke-dasharray="5,2" d="M357.31,-478.2C381.39,-478.2 408.15,-478.2 429.39,-478.2"/>
<polygon fill="#4b8fc5" stroke="#4b8fc5" stroke-width="0.9" points="429.22,-480.13 434.72,-478.2 429.22,-476.28 429.22,-480.13"/>
</g>
<!-- in6 -->
<g id="node14" class="node">
<title>in6</title>
<polygon fill="#eef6ff" stroke="#4b8fc5" points="342.94,-431.4 237.97,-431.4 237.97,-387 348.94,-387 348.94,-425.4 342.94,-431.4"/>
<polyline fill="none" stroke="#4b8fc5" points="342.94,-431.4 342.94,-425.4"/>
<polyline fill="none" stroke="#4b8fc5" points="348.94,-425.4 342.94,-425.4"/>
<text xml:space="preserve" text-anchor="start" x="247.33" y="-415.7" font-family="Inter,Arial" font-size="10.00" fill="#123d5c">from png&#45;v0.18.1.svg</text>
<text xml:space="preserve" text-anchor="start" x="276.2" y="-405.7" font-family="Inter,Arial" font-weight="bold" font-size="10.00" fill="#123d5c">bitflags</text>
<text xml:space="preserve" text-anchor="start" x="279.95" y="-395.7" font-family="Inter,Arial" font-size="10.00" fill="#123d5c">2.13.0</text>
</g>
<!-- in6&#45;&gt;n2 -->
<g id="edge18" class="edge">
<title>in6&#45;&gt;n2</title>
<path fill="none" stroke="#4b8fc5" stroke-width="0.9" stroke-dasharray="5,2" d="M349.06,-430.84C375.24,-441.22 405.99,-453.41 429.74,-462.82"/>
<polygon fill="#4b8fc5" stroke="#4b8fc5" stroke-width="0.9" points="428.84,-464.53 434.66,-464.77 430.26,-460.95 428.84,-464.53"/>
</g>
<!-- in7 -->
<g id="node15" class="node">
<title>in7</title>
<polygon fill="#eef6ff" stroke="#4b8fc5" points="355.69,-362.4 225.22,-362.4 225.22,-318 361.69,-318 361.69,-356.4 355.69,-362.4"/>
<polyline fill="none" stroke="#4b8fc5" points="355.69,-362.4 355.69,-356.4"/>
<polyline fill="none" stroke="#4b8fc5" points="361.69,-356.4 355.69,-356.4"/>
<text xml:space="preserve" text-anchor="start" x="234.58" y="-346.7" font-family="Inter,Arial" font-size="10.00" fill="#123d5c">from raw&#45;cpuid&#45;v11.6.0.svg</text>
<text xml:space="preserve" text-anchor="start" x="276.2" y="-336.7" font-family="Inter,Arial" font-weight="bold" font-size="10.00" fill="#123d5c">bitflags</text>
<text xml:space="preserve" text-anchor="start" x="279.95" y="-326.7" font-family="Inter,Arial" font-size="10.00" fill="#123d5c">2.13.0</text>
</g>
<!-- in7&#45;&gt;n2 -->
<g id="edge19" class="edge">
<title>in7&#45;&gt;n2</title>
<path fill="none" stroke="#4b8fc5" stroke-width="0.9" stroke-dasharray="5,2" d="M343.59,-362.83C349.86,-366.35 356.05,-370.17 361.69,-374.2 394.4,-397.55 426.74,-430.83 447.13,-453.41"/>
<polygon fill="#4b8fc5" stroke="#4b8fc5" stroke-width="0.9" points="445.53,-454.51 450.63,-457.32 448.4,-451.94 445.53,-454.51"/>
</g>
<!-- in8 -->
<g id="node16" class="node">
<title>in8</title>
<polygon fill="#eef6ff" stroke="#4b8fc5" points="151.47,-93.4 27.75,-93.4 27.75,-29 157.47,-29 157.47,-87.4 151.47,-93.4"/>
<polyline fill="none" stroke="#4b8fc5" points="151.47,-93.4 151.47,-87.4"/>
<polyline fill="none" stroke="#4b8fc5" points="157.47,-87.4 151.47,-87.4"/>
<text xml:space="preserve" text-anchor="start" x="37.11" y="-77.7" font-family="Inter,Arial" font-size="10.00" fill="#123d5c">from smoltcp&#45;v0.13.1.svg</text>
<text xml:space="preserve" text-anchor="start" x="75.36" y="-67.7" font-family="Inter,Arial" font-weight="bold" font-size="10.00" fill="#123d5c">bitflags</text>
<text xml:space="preserve" text-anchor="start" x="79.11" y="-57.7" font-family="Inter,Arial" font-size="10.00" fill="#123d5c">2.13.0</text>
<text xml:space="preserve" text-anchor="start" x="70.49" y="-47.7" font-family="Inter,Arial" font-weight="bold" font-size="10.00" fill="#123d5c">byteorder</text>
<text xml:space="preserve" text-anchor="start" x="81.74" y="-37.7" font-family="Inter,Arial" font-size="10.00" fill="#123d5c">1.5.0</text>
</g>
<!-- in8&#45;&gt;n2 -->
<g id="edge20" class="edge">
<title>in8&#45;&gt;n2</title>
<path fill="none" stroke="#4b8fc5" stroke-width="0.9" stroke-dasharray="5,2" d="M157.95,-64.76C227.51,-69.91 332.38,-81.88 361.69,-108.2 414.09,-155.24 452.61,-375.37 464.61,-451.9"/>
<polygon fill="#4b8fc5" stroke="#4b8fc5" stroke-width="0.9" points="462.67,-451.94 465.41,-457.08 466.47,-451.35 462.67,-451.94"/>
</g>
<!-- in8&#45;&gt;n3 -->
<g id="edge21" class="edge">
<title>in8&#45;&gt;n3</title>
<path fill="none" stroke="#4b8fc5" stroke-width="0.9" stroke-dasharray="5,2" d="M157.89,-86.74C186.78,-98.22 220.21,-111.5 246.52,-121.95"/>
<polygon fill="#4b8fc5" stroke="#4b8fc5" stroke-width="0.9" points="245.62,-123.66 251.44,-123.91 247.04,-120.09 245.62,-123.66"/>
</g>
<!-- in9 -->
<g id="node17" class="node">
<title>in9</title>
<polygon fill="#eef6ff" stroke="#4b8fc5" points="344.06,-44.4 236.84,-44.4 236.84,0 350.06,0 350.06,-38.4 344.06,-44.4"/>
<polyline fill="none" stroke="#4b8fc5" points="344.06,-44.4 344.06,-38.4"/>
<polyline fill="none" stroke="#4b8fc5" points="350.06,-38.4 344.06,-38.4"/>
<text xml:space="preserve" text-anchor="start" x="246.2" y="-28.7" font-family="Inter,Arial" font-size="10.00" fill="#123d5c">from spin&#45;v0.10.0.svg</text>
<text xml:space="preserve" text-anchor="start" x="273.95" y="-18.7" font-family="Inter,Arial" font-weight="bold" font-size="10.00" fill="#123d5c">lock_api</text>
<text xml:space="preserve" text-anchor="start" x="279.95" y="-8.7" font-family="Inter,Arial" font-size="10.00" fill="#123d5c">0.4.14</text>
</g>
<!-- in9&#45;&gt;n4 -->
<g id="edge22" class="edge">
<title>in9&#45;&gt;n4</title>
<path fill="none" stroke="#4b8fc5" stroke-width="0.9" stroke-dasharray="5,2" d="M337.49,-44.69C354.92,-53.8 375.54,-64.58 395.21,-74.86"/>
<polygon fill="#4b8fc5" stroke="#4b8fc5" stroke-width="0.9" points="394.3,-76.56 400.07,-77.41 396.09,-73.15 394.3,-76.56"/>
</g>
<!-- in10 -->
<g id="node18" class="node">
<title>in10</title>
<polygon fill="#eef6ff" stroke="#4b8fc5" points="350.81,-640.4 230.09,-640.4 230.09,-576 356.81,-576 356.81,-634.4 350.81,-640.4"/>
<polyline fill="none" stroke="#4b8fc5" points="350.81,-640.4 350.81,-634.4"/>
<polyline fill="none" stroke="#4b8fc5" points="356.81,-634.4 350.81,-634.4"/>
<text xml:space="preserve" text-anchor="start" x="239.45" y="-624.7" font-family="Inter,Arial" font-size="10.00" fill="#123d5c">from x86_64&#45;v0.15.4.svg</text>
<text xml:space="preserve" text-anchor="start" x="274.7" y="-614.7" font-family="Inter,Arial" font-weight="bold" font-size="10.00" fill="#123d5c">bit_field</text>
<text xml:space="preserve" text-anchor="start" x="279.95" y="-604.7" font-family="Inter,Arial" font-size="10.00" fill="#123d5c">0.10.3</text>
<text xml:space="preserve" text-anchor="start" x="276.2" y="-594.7" font-family="Inter,Arial" font-weight="bold" font-size="10.00" fill="#123d5c">bitflags</text>
<text xml:space="preserve" text-anchor="start" x="279.95" y="-584.7" font-family="Inter,Arial" font-size="10.00" fill="#123d5c">2.13.0</text>
</g>
<!-- in10&#45;&gt;n1 -->
<g id="edge23" class="edge">
<title>in10&#45;&gt;n1</title>
<path fill="none" stroke="#4b8fc5" stroke-width="0.9" stroke-dasharray="5,2" d="M347.23,-640.72C352.26,-644.41 357.16,-648.27 361.69,-652.2 396.01,-682.03 429.56,-722.78 449.65,-748.8"/>
<polygon fill="#4b8fc5" stroke="#4b8fc5" stroke-width="0.9" points="448.03,-749.84 452.9,-753.04 451.08,-747.5 448.03,-749.84"/>
</g>
<!-- in10&#45;&gt;n2 -->
<g id="edge24" class="edge">
<title>in10&#45;&gt;n2</title>
<path fill="none" stroke="#4b8fc5" stroke-width="0.9" stroke-dasharray="5,2" d="M337.94,-575.73C368.43,-552.96 408.55,-523.01 436.23,-502.33"/>
<polygon fill="#4b8fc5" stroke="#4b8fc5" stroke-width="0.9" points="437.25,-503.98 440.5,-499.14 434.94,-500.89 437.25,-503.98"/>
</g>
</g>
</svg>
