<?xml version="1.0" encoding="UTF-8" standalone="no"?>
<!DOCTYPE svg PUBLIC "-//W3C//DTD SVG 1.1//EN"
 "http://www.w3.org/Graphics/SVG/1.1/DTD/svg11.dtd">
<!-- Generated by graphviz version 14.1.2 (0)
 -->
<!-- Title: acpi&#45;v6.1.1 Pages: 1 -->
<svg width="484pt" height="941pt"
 viewBox="0.00 0.00 484.00 941.00" xmlns="http://www.w3.org/2000/svg" xmlns:xlink="http://www.w3.org/1999/xlink">
<g id="graph0" class="graph" transform="scale(1 1) rotate(0) translate(4 937.2)">
<title>acpi&#45;v6.1.1</title>
<polygon fill="white" stroke="none" points="-4,4 -4,-937.2 480.31,-937.2 480.31,4 -4,4"/>
<!-- n0 -->
<g id="node1" class="node">
<title>n0</title>
<path fill="#dff3ff" stroke="#1b78a6" d="M104.01,-683.6C104.01,-683.6 74.01,-683.6 74.01,-683.6 68.01,-683.6 62.01,-677.6 62.01,-671.6 62.01,-671.6 62.01,-659.6 62.01,-659.6 62.01,-653.6 68.01,-647.6 74.01,-647.6 74.01,-647.6 104.01,-647.6 104.01,-647.6 110.01,-647.6 116.01,-653.6 116.01,-659.6 116.01,-659.6 116.01,-671.6 116.01,-671.6 116.01,-677.6 110.01,-683.6 104.01,-683.6"/>
<text xml:space="preserve" text-anchor="start" x="79.26" y="-667.1" font-family="Inter,Arial" font-weight="bold" font-size="10.00" fill="#172033">acpi</text>
<text xml:space="preserve" text-anchor="start" x="78.13" y="-657.1" font-family="Inter,Arial" font-size="10.00" fill="#172033">6.1.1</text>
</g>
<!-- n1 -->
<g id="node2" class="node">
<title>n1</title>
<path fill="#f7f9fb" stroke="#8b9bb0" d="M446.8,-763.6C446.8,-763.6 416.8,-763.6 416.8,-763.6 410.8,-763.6 404.8,-757.6 404.8,-751.6 404.8,-751.6 404.8,-739.6 404.8,-739.6 404.8,-733.6 410.8,-727.6 416.8,-727.6 416.8,-727.6 446.8,-727.6 446.8,-727.6 452.8,-727.6 458.8,-733.6 458.8,-739.6 458.8,-739.6 458.8,-751.6 458.8,-751.6 458.8,-757.6 452.8,-763.6 446.8,-763.6"/>
<text xml:space="preserve" text-anchor="start" x="413.05" y="-747.1" font-family="Inter,Arial" font-weight="bold" font-size="10.00" fill="#172033">bit_field</text>
<text xml:space="preserve" text-anchor="start" x="418.3" y="-737.1" font-family="Inter,Arial" font-size="10.00" fill="#172033">0.10.3</text>
</g>
<!-- n0&#45;&gt;n1 -->
<g id="edge1" class="edge">
<title>n0&#45;&gt;n1</title>
<path fill="none" stroke="#9aa8b8" stroke-width="0.9" d="M97.35,-683.88C113.09,-720.27 153.98,-801 218.02,-832.6 269.54,-858.02 294.44,-855.13 347.29,-832.6 377.35,-819.79 401.79,-790.27 416.3,-769.17"/>
<polygon fill="#9aa8b8" stroke="#9aa8b8" stroke-width="0.9" points="417.72,-770.5 419.18,-764.86 414.52,-768.36 417.72,-770.5"/>
</g>
<!-- n2 -->
<g id="node3" class="node">
<title>n2</title>
<path fill="#f7f9fb" stroke="#8b9bb0" d="M446.8,-490.6C446.8,-490.6 416.8,-490.6 416.8,-490.6 410.8,-490.6 404.8,-484.6 404.8,-478.6 404.8,-478.6 404.8,-466.6 404.8,-466.6 404.8,-460.6 410.8,-454.6 416.8,-454.6 416.8,-454.6 446.8,-454.6 446.8,-454.6 452.8,-454.6 458.8,-460.6 458.8,-466.6 458.8,-466.6 458.8,-478.6 458.8,-478.6 458.8,-484.6 452.8,-490.6 446.8,-490.6"/>
<text xml:space="preserve" text-anchor="start" x="414.55" y="-474.1" font-family="Inter,Arial" font-weight="bold" font-size="10.00" fill="#172033">bitflags</text>
<text xml:space="preserve" text-anchor="start" x="418.3" y="-464.1" font-family="Inter,Arial" font-size="10.00" fill="#172033">2.11.1</text>
</g>
<!-- n0&#45;&gt;n2 -->
<g id="edge2" class="edge">
<title>n0&#45;&gt;n2</title>
<path fill="none" stroke="#9aa8b8" stroke-width="0.9" d="M107.14,-647.46C130.38,-623.71 174.06,-582 218.02,-555.6 234.1,-545.94 342.64,-505.22 398.19,-484.63"/>
<polygon fill="#9aa8b8" stroke="#9aa8b8" stroke-width="0.9" points="398.6,-486.53 403.09,-482.81 397.26,-482.92 398.6,-486.53"/>
</g>
<!-- n3 -->
<g id="node4" class="node">
<title>n3</title>
<path fill="#f7f9fb" stroke="#8b9bb0" d="M298.54,-118.6C298.54,-118.6 266.77,-118.6 266.77,-118.6 260.77,-118.6 254.77,-112.6 254.77,-106.6 254.77,-106.6 254.77,-94.6 254.77,-94.6 254.77,-88.6 260.77,-82.6 266.77,-82.6 266.77,-82.6 298.54,-82.6 298.54,-82.6 304.54,-82.6 310.54,-88.6 310.54,-94.6 310.54,-94.6 310.54,-106.6 310.54,-106.6 310.54,-112.6 304.54,-118.6 298.54,-118.6"/>
<text xml:space="preserve" text-anchor="start" x="260.53" y="-102.1" font-family="Inter,Arial" font-weight="bold" font-size="10.00" fill="#172033">byteorder</text>
<text xml:space="preserve" text-anchor="start" x="271.78" y="-92.1" font-family="Inter,Arial" font-size="10.00" fill="#172033">1.5.0</text>
</g>
<!-- n0&#45;&gt;n3 -->
<g id="edge3" class="edge">
<title>n0&#45;&gt;n3</title>
<path fill="none" stroke="#9aa8b8" stroke-width="0.9" d="M94.38,-647.27C116.69,-553.61 216.96,-132.92 218.02,-131.6 225.74,-121.98 237.2,-115.13 248.27,-110.37"/>
<polygon fill="#9aa8b8" stroke="#9aa8b8" stroke-width="0.9" points="248.7,-112.27 253.09,-108.44 247.27,-108.7 248.7,-112.27"/>
</g>
<!-- n5 -->
<g id="node6" class="node">
<title>n5</title>
<path fill="#f7f9fb" stroke="#8b9bb0" d="M298.54,-819.6C298.54,-819.6 266.77,-819.6 266.77,-819.6 260.77,-819.6 254.77,-813.6 254.77,-807.6 254.77,-807.6 254.77,-795.6 254.77,-795.6 254.77,-789.6 260.77,-783.6 266.77,-783.6 266.77,-783.6 298.54,-783.6 298.54,-783.6 304.54,-783.6 310.54,-789.6 310.54,-795.6 310.54,-795.6 310.54,-807.6 310.54,-807.6 310.54,-813.6 304.54,-819.6 298.54,-819.6"/>
<text xml:space="preserve" text-anchor="start" x="260.53" y="-803.1" font-family="Inter,Arial" font-weight="bold" font-size="10.00" fill="#172033">pci_types</text>
<text xml:space="preserve" text-anchor="start" x="269.15" y="-793.1" font-family="Inter,Arial" font-size="10.00" fill="#172033">0.10.1</text>
</g>
<!-- n0&#45;&gt;n5 -->
<g id="edge4" class="edge">
<title>n0&#45;&gt;n5</title>
<path fill="none" stroke="#9aa8b8" stroke-width="0.9" d="M112,-684.05C136.99,-704.66 179.33,-738.56 218.02,-764.6 227.77,-771.16 238.72,-777.78 248.76,-783.58"/>
<polygon fill="#9aa8b8" stroke="#9aa8b8" stroke-width="0.9" points="247.64,-785.15 253.37,-786.21 249.55,-781.81 247.64,-785.15"/>
</g>
<!-- n6 -->
<g id="node7" class="node">
<title>n6</title>
<path fill="#f7f9fb" stroke="#8b9bb0" d="M307.16,-242.6C307.16,-242.6 258.14,-242.6 258.14,-242.6 252.14,-242.6 246.14,-236.6 246.14,-230.6 246.14,-230.6 246.14,-218.6 246.14,-218.6 246.14,-212.6 252.14,-206.6 258.14,-206.6 258.14,-206.6 307.16,-206.6 307.16,-206.6 313.16,-206.6 319.16,-212.6 319.16,-218.6 319.16,-218.6 319.16,-230.6 319.16,-230.6 319.16,-236.6 313.16,-242.6 307.16,-242.6"/>
<text xml:space="preserve" text-anchor="start" x="251.9" y="-226.1" font-family="Inter,Arial" font-weight="bold" font-size="10.00" fill="#172033">spinning_top</text>
<text xml:space="preserve" text-anchor="start" x="271.78" y="-216.1" font-family="Inter,Arial" font-size="10.00" fill="#172033">0.3.0</text>
</g>
<!-- n0&#45;&gt;n6 -->
<g id="edge5" class="edge">
<title>n0&#45;&gt;n6</title>
<path fill="none" stroke="#9aa8b8" stroke-width="0.9" d="M90.74,-647.21C94.16,-584.69 113.27,-377.46 218.02,-255.6 224.01,-248.63 231.92,-243.09 240.13,-238.74"/>
<polygon fill="#9aa8b8" stroke="#9aa8b8" stroke-width="0.9" points="240.55,-240.68 244.62,-236.52 238.84,-237.23 240.55,-240.68"/>
</g>
<!-- out0 -->
<g id="node8" class="node">
<title>out0</title>
<polygon fill="#fff8e8" stroke="#d19922" points="321.41,-933.2 237.89,-933.2 237.89,-896 327.41,-896 327.41,-927.2 321.41,-933.2"/>
<polyline fill="none" stroke="#d19922" points="321.41,-933.2 321.41,-927.2"/>
<polyline fill="none" stroke="#d19922" points="327.41,-927.2 321.41,-927.2"/>
<text xml:space="preserve" text-anchor="start" x="243.65" y="-921.1" font-family="Inter,Arial" font-size="10.00" fill="#614000">to log&#45;v0.4.29.svg</text>
<text xml:space="preserve" text-anchor="start" x="275.15" y="-911.1" font-family="Inter,Arial" font-weight="bold" font-size="10.00" fill="#614000">log</text>
<text xml:space="preserve" text-anchor="start" x="269.15" y="-901.1" font-family="Inter,Arial" font-size="10.00" fill="#614000">0.4.29</text>
</g>
<!-- n0&#45;&gt;out0 -->
<g id="edge9" class="edge">
<title>n0&#45;&gt;out0</title>
<path fill="none" stroke="#d19922" stroke-width="0.9" stroke-dasharray="5,2" d="M97.48,-683.98C114.17,-723.29 157.82,-816.82 218.02,-876.6 223.84,-882.38 230.71,-887.64 237.74,-892.28"/>
<polygon fill="#d19922" stroke="#d19922" stroke-width="0.9" points="236.31,-893.65 241.99,-894.97 238.37,-890.4 236.31,-893.65"/>
</g>
<!-- n4 -->
<g id="node5" class="node">
<title>n4</title>
<path fill="#f7f9fb" stroke="#8b9bb0" d="M464.31,-219.08C464.31,-219.08 399.29,-219.08 399.29,-219.08 393.29,-219.08 387.29,-213.08 387.29,-207.08 387.29,-207.08 387.29,-180.13 387.29,-180.13 387.29,-174.13 393.29,-168.13 399.29,-168.13 399.29,-168.13 464.31,-168.13 464.31,-168.13 470.31,-168.13 476.31,-174.13 476.31,-180.13 476.31,-180.13 476.31,-207.08 476.31,-207.08 476.31,-213.08 470.31,-219.08 464.31,-219.08"/>
<text xml:space="preserve" text-anchor="start" x="412.3" y="-206.98" font-family="Inter,Arial" font-weight="bold" font-size="10.00" fill="#172033">lock_api</text>
<text xml:space="preserve" text-anchor="start" x="418.3" y="-193.98" font-family="Inter,Arial" font-size="10.00" fill="#172033">0.4.14</text>
<text xml:space="preserve" text-anchor="start" x="398.05" y="-179.88" font-family="Inter,Arial" font-weight="bold" font-size="8.00" fill="#172033">scopeguard</text>
<text xml:space="preserve" text-anchor="start" x="445.3" y="-179.88" font-family="Inter,Arial" font-size="8.00" fill="#172033"> 1.2.0</text>
<path fill="none" stroke="#9aa8b8" d="M399.63,-171.73C399.63,-171.73 463.97,-171.73 463.97,-171.73 467.26,-171.73 470.55,-175.02 470.55,-178.31 470.55,-178.31 470.55,-184.89 470.55,-184.89 470.55,-188.18 467.26,-191.48 463.97,-191.48 463.97,-191.48 399.63,-191.48 399.63,-191.48 396.34,-191.48 393.05,-188.18 393.05,-184.89 393.05,-184.89 393.05,-178.31 393.05,-178.31 393.05,-175.02 396.34,-171.73 399.63,-171.73"/>
</g>
<!-- n5&#45;&gt;n1 -->
<g id="edge6" class="edge">
<title>n5&#45;&gt;n1</title>
<path fill="none" stroke="#9aa8b8" stroke-width="0.9" d="M310.99,-791.2C335.76,-781.77 372.3,-767.86 398.51,-757.89"/>
<polygon fill="#9aa8b8" stroke="#9aa8b8" stroke-width="0.9" points="398.87,-759.81 403.33,-756.05 397.51,-756.21 398.87,-759.81"/>
</g>
<!-- n5&#45;&gt;n2 -->
<g id="edge7" class="edge">
<title>n5&#45;&gt;n2</title>
<path fill="none" stroke="#9aa8b8" stroke-width="0.9" d="M300.77,-783.31C314.85,-767.47 334.5,-743.41 347.29,-719.6 388.25,-643.36 414.61,-543.23 425.33,-497.42"/>
<polygon fill="#9aa8b8" stroke="#9aa8b8" stroke-width="0.9" points="427.19,-497.92 426.55,-492.13 423.44,-497.06 427.19,-497.92"/>
</g>
<!-- n6&#45;&gt;n4 -->
<g id="edge8" class="edge">
<title>n6&#45;&gt;n4</title>
<path fill="none" stroke="#9aa8b8" stroke-width="0.9" d="M319.65,-217.02C337.92,-213.17 360.42,-208.43 380.38,-204.22"/>
<polygon fill="#9aa8b8" stroke="#9aa8b8" stroke-width="0.9" points="380.72,-206.12 385.71,-203.1 379.93,-202.35 380.72,-206.12"/>
</g>
<!-- in1 -->
<g id="node9" class="node">
<title>in1</title>
<polygon fill="#eef6ff" stroke="#4b8fc5" points="329.29,-491.2 230.02,-491.2 230.02,-454 335.29,-454 335.29,-485.2 329.29,-491.2"/>
<polyline fill="none" stroke="#4b8fc5" points="329.29,-491.2 329.29,-485.2"/>
<polyline fill="none" stroke="#4b8fc5" points="335.29,-485.2 329.29,-485.2"/>
<text xml:space="preserve" text-anchor="start" x="235.78" y="-479.1" font-family="Inter,Arial" font-size="10.00" fill="#123d5c">from alsa&#45;v0.11.0.svg</text>
<text xml:space="preserve" text-anchor="start" x="265.4" y="-469.1" font-family="Inter,Arial" font-weight="bold" font-size="10.00" fill="#123d5c">bitflags</text>
<text xml:space="preserve" text-anchor="start" x="269.15" y="-459.1" font-family="Inter,Arial" font-size="10.00" fill="#123d5c">2.11.1</text>
</g>
<!-- in1&#45;&gt;n2 -->
<g id="edge10" class="edge">
<title>in1&#45;&gt;n2</title>
<path fill="none" stroke="#4b8fc5" stroke-width="0.9" stroke-dasharray="5,2" d="M335.53,-472.6C356.31,-472.6 379.63,-472.6 398,-472.6"/>
<polygon fill="#4b8fc5" stroke="#4b8fc5" stroke-width="0.9" points="397.66,-474.53 403.16,-472.6 397.66,-470.68 397.66,-474.53"/>
</g>
<!-- in2 -->
<g id="node10" class="node">
<title>in2</title>
<polygon fill="#eef6ff" stroke="#4b8fc5" points="134.89,-283.2 37.12,-283.2 37.12,-206 140.89,-206 140.89,-277.2 134.89,-283.2"/>
<polyline fill="none" stroke="#4b8fc5" points="134.89,-283.2 134.89,-277.2"/>
<polyline fill="none" stroke="#4b8fc5" points="140.89,-277.2 134.89,-277.2"/>
<text xml:space="preserve" text-anchor="start" x="42.88" y="-271.1" font-family="Inter,Arial" font-size="10.00" fill="#123d5c">from aml&#45;v0.16.4.svg</text>
<text xml:space="preserve" text-anchor="start" x="70.26" y="-261.1" font-family="Inter,Arial" font-weight="bold" font-size="10.00" fill="#123d5c">bit_field</text>
<text xml:space="preserve" text-anchor="start" x="75.51" y="-251.1" font-family="Inter,Arial" font-size="10.00" fill="#123d5c">0.10.3</text>
<text xml:space="preserve" text-anchor="start" x="66.88" y="-241.1" font-family="Inter,Arial" font-weight="bold" font-size="10.00" fill="#123d5c">byteorder</text>
<text xml:space="preserve" text-anchor="start" x="78.13" y="-231.1" font-family="Inter,Arial" font-size="10.00" fill="#123d5c">1.5.0</text>
<text xml:space="preserve" text-anchor="start" x="58.26" y="-221.1" font-family="Inter,Arial" font-weight="bold" font-size="10.00" fill="#123d5c">spinning_top</text>
<text xml:space="preserve" text-anchor="start" x="78.13" y="-211.1" font-family="Inter,Arial" font-size="10.00" fill="#123d5c">0.3.0</text>
</g>
<!-- in2&#45;&gt;n1 -->
<g id="edge11" class="edge">
<title>in2&#45;&gt;n1</title>
<path fill="none" stroke="#4b8fc5" stroke-width="0.9" stroke-dasharray="5,2" d="M97.88,-283.41C120.17,-391.55 184.27,-690.32 218.02,-719.6 268.26,-763.18 352.05,-758.59 398.06,-751.84"/>
<polygon fill="#4b8fc5" stroke="#4b8fc5" stroke-width="0.9" points="398.08,-753.78 403.22,-751.04 397.49,-749.98 398.08,-753.78"/>
</g>
<!-- in2&#45;&gt;n3 -->
<g id="edge12" class="edge">
<title>in2&#45;&gt;n3</title>
<path fill="none" stroke="#4b8fc5" stroke-width="0.9" stroke-dasharray="5,2" d="M141.27,-220.33C154.12,-212.85 167.28,-203.84 178.02,-193.6 201.76,-170.97 193.49,-153.36 218.02,-131.6 226.78,-123.83 237.84,-117.55 248.27,-112.72"/>
<polygon fill="#4b8fc5" stroke="#4b8fc5" stroke-width="0.9" points="248.81,-114.59 253.07,-110.6 247.26,-111.07 248.81,-114.59"/>
</g>
<!-- in2&#45;&gt;n6 -->
<g id="edge13" class="edge">
<title>in2&#45;&gt;n6</title>
<path fill="none" stroke="#4b8fc5" stroke-width="0.9" stroke-dasharray="5,2" d="M141.37,-239.24C171.96,-236.05 210.31,-232.05 239.18,-229.03"/>
<polygon fill="#4b8fc5" stroke="#4b8fc5" stroke-width="0.9" points="239.31,-230.95 244.58,-228.47 238.91,-227.13 239.31,-230.95"/>
</g>
<!-- in3 -->
<g id="node11" class="node">
<title>in3</title>
<polygon fill="#eef6ff" stroke="#4b8fc5" points="336.79,-707.2 222.52,-707.2 222.52,-650 342.79,-650 342.79,-701.2 336.79,-707.2"/>
<polyline fill="none" stroke="#4b8fc5" points="336.79,-707.2 336.79,-701.2"/>
<polyline fill="none" stroke="#4b8fc5" points="342.79,-701.2 336.79,-701.2"/>
<text xml:space="preserve" text-anchor="start" x="228.28" y="-695.1" font-family="Inter,Arial" font-size="10.00" fill="#123d5c">from crab&#45;usb&#45;v0.9.1.svg</text>
<text xml:space="preserve" text-anchor="start" x="265.4" y="-685.1" font-family="Inter,Arial" font-weight="bold" font-size="10.00" fill="#123d5c">bitflags</text>
<text xml:space="preserve" text-anchor="start" x="269.15" y="-675.1" font-family="Inter,Arial" font-size="10.00" fill="#123d5c">2.11.1</text>
<text xml:space="preserve" text-anchor="start" x="263.9" y="-665.1" font-family="Inter,Arial" font-weight="bold" font-size="10.00" fill="#123d5c">bit_field</text>
<text xml:space="preserve" text-anchor="start" x="269.15" y="-655.1" font-family="Inter,Arial" font-size="10.00" fill="#123d5c">0.10.3</text>
</g>
<!-- in3&#45;&gt;n1 -->
<g id="edge14" class="edge">
<title>in3&#45;&gt;n1</title>
<path fill="none" stroke="#4b8fc5" stroke-width="0.9" stroke-dasharray="5,2" d="M343.08,-705.66C361.95,-714.25 382.11,-723.43 398.34,-730.82"/>
<polygon fill="#4b8fc5" stroke="#4b8fc5" stroke-width="0.9" points="397.54,-732.57 403.35,-733.1 399.14,-729.07 397.54,-732.57"/>
</g>
<!-- in3&#45;&gt;n2 -->
<g id="edge15" class="edge">
<title>in3&#45;&gt;n2</title>
<path fill="none" stroke="#4b8fc5" stroke-width="0.9" stroke-dasharray="5,2" d="M334.33,-649.65C339,-645.93 343.42,-641.9 347.29,-637.6 385.63,-595.05 411.09,-531.68 423,-497.17"/>
<polygon fill="#4b8fc5" stroke="#4b8fc5" stroke-width="0.9" points="424.69,-498.19 424.63,-492.36 421.04,-496.95 424.69,-498.19"/>
</g>
<!-- in4 -->
<g id="node12" class="node">
<title>in4</title>
<polygon fill="#eef6ff" stroke="#4b8fc5" points="156.27,-181.2 15.75,-181.2 15.75,-144 162.27,-144 162.27,-175.2 156.27,-181.2"/>
<polyline fill="none" stroke="#4b8fc5" points="156.27,-181.2 156.27,-175.2"/>
<polyline fill="none" stroke="#4b8fc5" points="162.27,-175.2 156.27,-175.2"/>
<text xml:space="preserve" text-anchor="start" x="21.51" y="-169.1" font-family="Inter,Arial" font-size="10.00" fill="#123d5c">from embassy&#45;sync&#45;v0.8.0.svg</text>
<text xml:space="preserve" text-anchor="start" x="66.88" y="-159.1" font-family="Inter,Arial" font-weight="bold" font-size="10.00" fill="#123d5c">byteorder</text>
<text xml:space="preserve" text-anchor="start" x="78.13" y="-149.1" font-family="Inter,Arial" font-size="10.00" fill="#123d5c">1.5.0</text>
</g>
<!-- in4&#45;&gt;n3 -->
<g id="edge16" class="edge">
<title>in4&#45;&gt;n3</title>
<path fill="none" stroke="#4b8fc5" stroke-width="0.9" stroke-dasharray="5,2" d="M148.81,-143.58C181.41,-133.03 220.76,-120.3 248.13,-111.44"/>
<polygon fill="#4b8fc5" stroke="#4b8fc5" stroke-width="0.9" points="248.54,-113.34 253.18,-109.81 247.36,-109.67 248.54,-113.34"/>
</g>
<!-- in5 -->
<g id="node13" class="node">
<title>in5</title>
<polygon fill="#eef6ff" stroke="#4b8fc5" points="172.02,-119.2 0,-119.2 0,-82 178.02,-82 178.02,-113.2 172.02,-119.2"/>
<polyline fill="none" stroke="#4b8fc5" points="172.02,-119.2 172.02,-113.2"/>
<polyline fill="none" stroke="#4b8fc5" points="178.02,-113.2 172.02,-113.2"/>
<text xml:space="preserve" text-anchor="start" x="5.76" y="-107.1" font-family="Inter,Arial" font-size="10.00" fill="#123d5c">from embedded&#45;websocket&#45;v0.9.4.svg</text>
<text xml:space="preserve" text-anchor="start" x="66.88" y="-97.1" font-family="Inter,Arial" font-weight="bold" font-size="10.00" fill="#123d5c">byteorder</text>
<text xml:space="preserve" text-anchor="start" x="78.13" y="-87.1" font-family="Inter,Arial" font-size="10.00" fill="#123d5c">1.5.0</text>
</g>
<!-- in5&#45;&gt;n3 -->
<g id="edge17" class="edge">
<title>in5&#45;&gt;n3</title>
<path fill="none" stroke="#4b8fc5" stroke-width="0.9" stroke-dasharray="5,2" d="M178.26,-100.6C203.04,-100.6 228.5,-100.6 247.96,-100.6"/>
<polygon fill="#4b8fc5" stroke="#4b8fc5" stroke-width="0.9" points="247.72,-102.53 253.22,-100.6 247.72,-98.68 247.72,-102.53"/>
</g>
<!-- in6 -->
<g id="node14" class="node">
<title>in6</title>
<polygon fill="#eef6ff" stroke="#4b8fc5" points="336.79,-429.2 222.52,-429.2 222.52,-392 342.79,-392 342.79,-423.2 336.79,-429.2"/>
<polyline fill="none" stroke="#4b8fc5" points="336.79,-429.2 336.79,-423.2"/>
<polyline fill="none" stroke="#4b8fc5" points="342.79,-423.2 336.79,-423.2"/>
<text xml:space="preserve" text-anchor="start" x="228.28" y="-417.1" font-family="Inter,Arial" font-size="10.00" fill="#123d5c">from parry2d&#45;v0.26.0.svg</text>
<text xml:space="preserve" text-anchor="start" x="265.4" y="-407.1" font-family="Inter,Arial" font-weight="bold" font-size="10.00" fill="#123d5c">bitflags</text>
<text xml:space="preserve" text-anchor="start" x="269.15" y="-397.1" font-family="Inter,Arial" font-size="10.00" fill="#123d5c">2.11.1</text>
</g>
<!-- in6&#45;&gt;n2 -->
<g id="edge18" class="edge">
<title>in6&#45;&gt;n2</title>
<path fill="none" stroke="#4b8fc5" stroke-width="0.9" stroke-dasharray="5,2" d="M328.6,-429.54C351.12,-439.03 377.88,-450.3 398.36,-458.93"/>
<polygon fill="#4b8fc5" stroke="#4b8fc5" stroke-width="0.9" points="397.44,-460.63 403.25,-460.99 398.93,-457.08 397.44,-460.63"/>
</g>
<!-- in7 -->
<g id="node15" class="node">
<title>in7</title>
<polygon fill="#eef6ff" stroke="#4b8fc5" points="328.54,-367.2 230.77,-367.2 230.77,-330 334.54,-330 334.54,-361.2 328.54,-367.2"/>
<polyline fill="none" stroke="#4b8fc5" points="328.54,-367.2 328.54,-361.2"/>
<polyline fill="none" stroke="#4b8fc5" points="334.54,-361.2 328.54,-361.2"/>
<text xml:space="preserve" text-anchor="start" x="236.53" y="-355.1" font-family="Inter,Arial" font-size="10.00" fill="#123d5c">from png&#45;v0.18.1.svg</text>
<text xml:space="preserve" text-anchor="start" x="265.4" y="-345.1" font-family="Inter,Arial" font-weight="bold" font-size="10.00" fill="#123d5c">bitflags</text>
<text xml:space="preserve" text-anchor="start" x="269.15" y="-335.1" font-family="Inter,Arial" font-size="10.00" fill="#123d5c">2.11.1</text>
</g>
<!-- in7&#45;&gt;n2 -->
<g id="edge19" class="edge">
<title>in7&#45;&gt;n2</title>
<path fill="none" stroke="#4b8fc5" stroke-width="0.9" stroke-dasharray="5,2" d="M328.42,-367.66C335,-371.23 341.5,-375.23 347.29,-379.6 373.69,-399.51 398.25,-428.67 413.81,-449.01"/>
<polygon fill="#4b8fc5" stroke="#4b8fc5" stroke-width="0.9" points="412.08,-449.93 416.94,-453.15 415.16,-447.61 412.08,-449.93"/>
</g>
<!-- in8 -->
<g id="node16" class="node">
<title>in8</title>
<polygon fill="#eef6ff" stroke="#4b8fc5" points="341.29,-305.2 218.02,-305.2 218.02,-268 347.29,-268 347.29,-299.2 341.29,-305.2"/>
<polyline fill="none" stroke="#4b8fc5" points="341.29,-305.2 341.29,-299.2"/>
<polyline fill="none" stroke="#4b8fc5" points="347.29,-299.2 341.29,-299.2"/>
<text xml:space="preserve" text-anchor="start" x="223.78" y="-293.1" font-family="Inter,Arial" font-size="10.00" fill="#123d5c">from raw&#45;cpuid&#45;v11.6.0.svg</text>
<text xml:space="preserve" text-anchor="start" x="265.4" y="-283.1" font-family="Inter,Arial" font-weight="bold" font-size="10.00" fill="#123d5c">bitflags</text>
<text xml:space="preserve" text-anchor="start" x="269.15" y="-273.1" font-family="Inter,Arial" font-size="10.00" fill="#123d5c">2.11.1</text>
</g>
<!-- in8&#45;&gt;n2 -->
<g id="edge20" class="edge">
<title>in8&#45;&gt;n2</title>
<path fill="none" stroke="#4b8fc5" stroke-width="0.9" stroke-dasharray="5,2" d="M331.37,-305.66C337.11,-309.12 342.59,-313.09 347.29,-317.6 386.36,-355.11 411.35,-414.95 423.04,-448.24"/>
<polygon fill="#4b8fc5" stroke="#4b8fc5" stroke-width="0.9" points="421.15,-448.66 424.76,-453.24 424.79,-447.41 421.15,-448.66"/>
</g>
<!-- in9 -->
<g id="node17" class="node">
<title>in9</title>
<polygon fill="#eef6ff" stroke="#4b8fc5" points="144.27,-57.2 27.75,-57.2 27.75,0 150.27,0 150.27,-51.2 144.27,-57.2"/>
<polyline fill="none" stroke="#4b8fc5" points="144.27,-57.2 144.27,-51.2"/>
<polyline fill="none" stroke="#4b8fc5" points="150.27,-51.2 144.27,-51.2"/>
<text xml:space="preserve" text-anchor="start" x="33.51" y="-45.1" font-family="Inter,Arial" font-size="10.00" fill="#123d5c">from smoltcp&#45;v0.13.1.svg</text>
<text xml:space="preserve" text-anchor="start" x="71.76" y="-35.1" font-family="Inter,Arial" font-weight="bold" font-size="10.00" fill="#123d5c">bitflags</text>
<text xml:space="preserve" text-anchor="start" x="75.51" y="-25.1" font-family="Inter,Arial" font-size="10.00" fill="#123d5c">2.11.1</text>
<text xml:space="preserve" text-anchor="start" x="66.88" y="-15.1" font-family="Inter,Arial" font-weight="bold" font-size="10.00" fill="#123d5c">byteorder</text>
<text xml:space="preserve" text-anchor="start" x="78.13" y="-5.1" font-family="Inter,Arial" font-size="10.00" fill="#123d5c">1.5.0</text>
</g>
<!-- in9&#45;&gt;n2 -->
<g id="edge21" class="edge">
<title>in9&#45;&gt;n2</title>
<path fill="none" stroke="#4b8fc5" stroke-width="0.9" stroke-dasharray="5,2" d="M150.7,-20.39C208.9,-16.16 295.36,-20.02 347.29,-69.6 361.27,-82.95 411.28,-361.67 426.42,-447.6"/>
<polygon fill="#4b8fc5" stroke="#4b8fc5" stroke-width="0.9" points="424.49,-447.72 427.34,-452.81 428.28,-447.06 424.49,-447.72"/>
</g>
<!-- in9&#45;&gt;n3 -->
<g id="edge22" class="edge">
<title>in9&#45;&gt;n3</title>
<path fill="none" stroke="#4b8fc5" stroke-width="0.9" stroke-dasharray="5,2" d="M150.65,-51.38C182.93,-63.51 221.4,-77.96 248.27,-88.06"/>
<polygon fill="#4b8fc5" stroke="#4b8fc5" stroke-width="0.9" points="247.4,-89.79 253.23,-89.92 248.76,-86.18 247.4,-89.79"/>
</g>
<!-- in10 -->
<g id="node18" class="node">
<title>in10</title>
<polygon fill="#eef6ff" stroke="#4b8fc5" points="329.66,-181.2 229.64,-181.2 229.64,-144 335.66,-144 335.66,-175.2 329.66,-181.2"/>
<polyline fill="none" stroke="#4b8fc5" points="329.66,-181.2 329.66,-175.2"/>
<polyline fill="none" stroke="#4b8fc5" points="335.66,-175.2 329.66,-175.2"/>
<text xml:space="preserve" text-anchor="start" x="235.4" y="-169.1" font-family="Inter,Arial" font-size="10.00" fill="#123d5c">from spin&#45;v0.10.0.svg</text>
<text xml:space="preserve" text-anchor="start" x="263.15" y="-159.1" font-family="Inter,Arial" font-weight="bold" font-size="10.00" fill="#123d5c">lock_api</text>
<text xml:space="preserve" text-anchor="start" x="269.15" y="-149.1" font-family="Inter,Arial" font-size="10.00" fill="#123d5c">0.4.14</text>
</g>
<!-- in10&#45;&gt;n4 -->
<g id="edge23" class="edge">
<title>in10&#45;&gt;n4</title>
<path fill="none" stroke="#4b8fc5" stroke-width="0.9" stroke-dasharray="5,2" d="M335.95,-173.62C350.42,-176.67 366.09,-179.97 380.45,-182.99"/>
<polygon fill="#4b8fc5" stroke="#4b8fc5" stroke-width="0.9" points="379.83,-184.83 385.61,-184.08 380.62,-181.06 379.83,-184.83"/>
</g>
<!-- in11 -->
<g id="node19" class="node">
<title>in11</title>
<polygon fill="#eef6ff" stroke="#4b8fc5" points="336.41,-625.2 222.89,-625.2 222.89,-568 342.41,-568 342.41,-619.2 336.41,-625.2"/>
<polyline fill="none" stroke="#4b8fc5" points="336.41,-625.2 336.41,-619.2"/>
<polyline fill="none" stroke="#4b8fc5" points="342.41,-619.2 336.41,-619.2"/>
<text xml:space="preserve" text-anchor="start" x="228.65" y="-613.1" font-family="Inter,Arial" font-size="10.00" fill="#123d5c">from x86_64&#45;v0.15.4.svg</text>
<text xml:space="preserve" text-anchor="start" x="263.9" y="-603.1" font-family="Inter,Arial" font-weight="bold" font-size="10.00" fill="#123d5c">bit_field</text>
<text xml:space="preserve" text-anchor="start" x="269.15" y="-593.1" font-family="Inter,Arial" font-size="10.00" fill="#123d5c">0.10.3</text>
<text xml:space="preserve" text-anchor="start" x="265.4" y="-583.1" font-family="Inter,Arial" font-weight="bold" font-size="10.00" fill="#123d5c">bitflags</text>
<text xml:space="preserve" text-anchor="start" x="269.15" y="-573.1" font-family="Inter,Arial" font-size="10.00" fill="#123d5c">2.11.1</text>
</g>
<!-- in11&#45;&gt;n1 -->
<g id="edge24" class="edge">
<title>in11&#45;&gt;n1</title>
<path fill="none" stroke="#4b8fc5" stroke-width="0.9" stroke-dasharray="5,2" d="M332.54,-625.61C337.71,-629.4 342.74,-633.42 347.29,-637.6 374.98,-663.01 400.41,-698.38 415.75,-721.62"/>
<polygon fill="#4b8fc5" stroke="#4b8fc5" stroke-width="0.9" points="414.06,-722.56 418.68,-726.11 417.29,-720.45 414.06,-722.56"/>
</g>
<!-- in11&#45;&gt;n2 -->
<g id="edge25" class="edge">
<title>in11&#45;&gt;n2</title>
<path fill="none" stroke="#4b8fc5" stroke-width="0.9" stroke-dasharray="5,2" d="M323.13,-567.71C331.23,-561.54 339.62,-554.96 347.29,-548.6 367.94,-531.48 390.38,-510.94 406.79,-495.54"/>
<polygon fill="#4b8fc5" stroke="#4b8fc5" stroke-width="0.9" points="408,-497.04 410.69,-491.87 405.36,-494.24 408,-497.04"/>
</g>
</g>
</svg>
