<?xml version="1.0" encoding="UTF-8" standalone="no"?>
<!DOCTYPE svg PUBLIC "-//W3C//DTD SVG 1.1//EN"
 "http://www.w3.org/Graphics/SVG/1.1/DTD/svg11.dtd">
<!-- Generated by graphviz version 14.1.2 (0)
 -->
<!-- Title: acpi&#45;v6.1.1 Pages: 1 -->
<svg width="545pt" height="879pt"
 viewBox="0.00 0.00 545.00 879.00" xmlns="http://www.w3.org/2000/svg" xmlns:xlink="http://www.w3.org/1999/xlink">
<g id="graph0" class="graph" transform="scale(1 1) rotate(0) translate(4 875.3)">
<title>acpi&#45;v6.1.1</title>
<polygon fill="white" stroke="none" points="-4,4 -4,-875.3 541.41,-875.3 541.41,4 -4,4"/>
<!-- n0 -->
<g id="node1" class="node">
<title>n0</title>
<path fill="#dff3ff" stroke="#1b78a6" d="M107.61,-557.9C107.61,-557.9 77.61,-557.9 77.61,-557.9 71.61,-557.9 65.61,-551.9 65.61,-545.9 65.61,-545.9 65.61,-530.5 65.61,-530.5 65.61,-524.5 71.61,-518.5 77.61,-518.5 77.61,-518.5 107.61,-518.5 107.61,-518.5 113.61,-518.5 119.61,-524.5 119.61,-530.5 119.61,-530.5 119.61,-545.9 119.61,-545.9 119.61,-551.9 113.61,-557.9 107.61,-557.9"/>
<text xml:space="preserve" text-anchor="start" x="79.11" y="-539.35" font-family="Inter,Arial" font-weight="bold" font-size="13.00" fill="#172033">acpi</text>
<text xml:space="preserve" text-anchor="start" x="79.49" y="-527.3" font-family="Inter,Arial" font-size="12.00" fill="#172033">6.1.1</text>
</g>
<!-- n1 -->
<g id="node2" class="node">
<title>n1</title>
<path fill="#f7f9fb" stroke="#8b9bb0" d="M492.78,-793.9C492.78,-793.9 446.31,-793.9 446.31,-793.9 440.31,-793.9 434.31,-787.9 434.31,-781.9 434.31,-781.9 434.31,-766.5 434.31,-766.5 434.31,-760.5 440.31,-754.5 446.31,-754.5 446.31,-754.5 492.78,-754.5 492.78,-754.5 498.78,-754.5 504.78,-760.5 504.78,-766.5 504.78,-766.5 504.78,-781.9 504.78,-781.9 504.78,-787.9 498.78,-793.9 492.78,-793.9"/>
<text xml:space="preserve" text-anchor="start" x="443.67" y="-775.35" font-family="Inter,Arial" font-weight="bold" font-size="13.00" fill="#172033">bit_field</text>
<text xml:space="preserve" text-anchor="start" x="453.05" y="-763.3" font-family="Inter,Arial" font-size="12.00" fill="#172033">0.10.3</text>
</g>
<!-- n0&#45;&gt;n1 -->
<g id="edge1" class="edge">
<title>n0&#45;&gt;n1</title>
<path fill="none" stroke="#9aa8b8" stroke-width="7.2" d="M94.84,-558.25C99.6,-615.96 122.11,-782.7 225.22,-851.2 275.74,-884.76 303.97,-869.83 361.69,-851.2 391.56,-841.56 420.12,-820.12 440.19,-802.31"/>
<polygon fill="#9aa8b8" stroke="#9aa8b8" stroke-width="7.2" points="442.36,-805.01 444.08,-798.74 437.68,-799.9 442.36,-805.01"/>
</g>
<!-- n2 -->
<g id="node3" class="node">
<title>n2</title>
<path fill="#f7f9fb" stroke="#8b9bb0" d="M490.91,-497.9C490.91,-497.9 448.19,-497.9 448.19,-497.9 442.19,-497.9 436.19,-491.9 436.19,-485.9 436.19,-485.9 436.19,-470.5 436.19,-470.5 436.19,-464.5 442.19,-458.5 448.19,-458.5 448.19,-458.5 490.91,-458.5 490.91,-458.5 496.91,-458.5 502.91,-464.5 502.91,-470.5 502.91,-470.5 502.91,-485.9 502.91,-485.9 502.91,-491.9 496.91,-497.9 490.91,-497.9"/>
<text xml:space="preserve" text-anchor="start" x="445.55" y="-479.35" font-family="Inter,Arial" font-weight="bold" font-size="13.00" fill="#172033">bitflags</text>
<text xml:space="preserve" text-anchor="start" x="453.05" y="-467.3" font-family="Inter,Arial" font-size="12.00" fill="#172033">2.13.0</text>
</g>
<!-- n0&#45;&gt;n2 -->
<g id="edge2" class="edge">
<title>n0&#45;&gt;n2</title>
<path fill="none" stroke="#9aa8b8" stroke-width="7.2" d="M119.78,-537.69C168.07,-536.33 274.27,-531.35 361.69,-513.2 382.74,-508.83 405.46,-501.74 424.51,-495.08"/>
<polygon fill="#9aa8b8" stroke="#9aa8b8" stroke-width="7.2" points="425.49,-498.41 429.5,-493.3 423.15,-491.89 425.49,-498.41"/>
</g>
<!-- n3 -->
<g id="node4" class="node">
<title>n3</title>
<path fill="#f7f9fb" stroke="#8b9bb0" d="M321.94,-159.9C321.94,-159.9 264.97,-159.9 264.97,-159.9 258.97,-159.9 252.97,-153.9 252.97,-147.9 252.97,-147.9 252.97,-132.5 252.97,-132.5 252.97,-126.5 258.97,-120.5 264.97,-120.5 264.97,-120.5 321.94,-120.5 321.94,-120.5 327.94,-120.5 333.94,-126.5 333.94,-132.5 333.94,-132.5 333.94,-147.9 333.94,-147.9 333.94,-153.9 327.94,-159.9 321.94,-159.9"/>
<text xml:space="preserve" text-anchor="start" x="262.33" y="-141.35" font-family="Inter,Arial" font-weight="bold" font-size="13.00" fill="#172033">byteorder</text>
<text xml:space="preserve" text-anchor="start" x="280.33" y="-129.3" font-family="Inter,Arial" font-size="12.00" fill="#172033">1.5.0</text>
</g>
<!-- n0&#45;&gt;n3 -->
<g id="edge3" class="edge">
<title>n0&#45;&gt;n3</title>
<path fill="none" stroke="#9aa8b8" stroke-width="7.2" d="M105.6,-518.1C124.95,-484.87 163.13,-415.91 185.22,-353.2 212.59,-275.49 173.93,-236.67 225.22,-172.2 229.87,-166.36 235.84,-161.52 242.3,-157.54"/>
<polygon fill="#9aa8b8" stroke="#9aa8b8" stroke-width="7.2" points="243.57,-160.79 246.79,-155.14 240.3,-154.68 243.57,-160.79"/>
</g>
<!-- n5 -->
<g id="node6" class="node">
<title>n5</title>
<path fill="#f7f9fb" stroke="#8b9bb0" d="M321.94,-793.9C321.94,-793.9 264.97,-793.9 264.97,-793.9 258.97,-793.9 252.97,-787.9 252.97,-781.9 252.97,-781.9 252.97,-766.5 252.97,-766.5 252.97,-760.5 258.97,-754.5 264.97,-754.5 264.97,-754.5 321.94,-754.5 321.94,-754.5 327.94,-754.5 333.94,-760.5 333.94,-766.5 333.94,-766.5 333.94,-781.9 333.94,-781.9 333.94,-787.9 327.94,-793.9 321.94,-793.9"/>
<text xml:space="preserve" text-anchor="start" x="262.33" y="-775.35" font-family="Inter,Arial" font-weight="bold" font-size="13.00" fill="#172033">pci_types</text>
<text xml:space="preserve" text-anchor="start" x="276.95" y="-763.3" font-family="Inter,Arial" font-size="12.00" fill="#172033">0.10.1</text>
</g>
<!-- n0&#45;&gt;n5 -->
<g id="edge4" class="edge">
<title>n0&#45;&gt;n5</title>
<path fill="none" stroke="#9aa8b8" stroke-width="7.2" d="M101.95,-558.19C119.44,-597.98 163.49,-687.94 225.22,-742.2 230.2,-746.57 235.87,-750.48 241.78,-753.93"/>
<polygon fill="#9aa8b8" stroke="#9aa8b8" stroke-width="7.2" points="240.08,-756.95 246.57,-756.47 243.34,-750.83 240.08,-756.95"/>
</g>
<!-- n6 -->
<g id="node7" class="node">
<title>n6</title>
<path fill="#f7f9fb" stroke="#8b9bb0" d="M333.19,-223.9C333.19,-223.9 253.72,-223.9 253.72,-223.9 247.72,-223.9 241.72,-217.9 241.72,-211.9 241.72,-211.9 241.72,-196.5 241.72,-196.5 241.72,-190.5 247.72,-184.5 253.72,-184.5 253.72,-184.5 333.19,-184.5 333.19,-184.5 339.19,-184.5 345.19,-190.5 345.19,-196.5 345.19,-196.5 345.19,-211.9 345.19,-211.9 345.19,-217.9 339.19,-223.9 333.19,-223.9"/>
<text xml:space="preserve" text-anchor="start" x="251.08" y="-205.35" font-family="Inter,Arial" font-weight="bold" font-size="13.00" fill="#172033">spinning_top</text>
<text xml:space="preserve" text-anchor="start" x="280.33" y="-193.3" font-family="Inter,Arial" font-size="12.00" fill="#172033">0.3.0</text>
</g>
<!-- n0&#45;&gt;n6 -->
<g id="edge5" class="edge">
<title>n0&#45;&gt;n6</title>
<path fill="none" stroke="#9aa8b8" stroke-width="7.2" d="M104.66,-518.07C122.84,-484.51 159.59,-414.74 185.22,-353.2 206.35,-302.47 188.65,-277.22 225.22,-236.2 227.21,-233.96 229.4,-231.87 231.72,-229.91"/>
<polygon fill="#9aa8b8" stroke="#9aa8b8" stroke-width="7.2" points="233.37,-232.99 235.8,-226.96 229.31,-227.38 233.37,-232.99"/>
</g>
<!-- n4 -->
<g id="node5" class="node">
<title>n4</title>
<path fill="#f7f9fb" stroke="#8b9bb0" d="M525.41,-156.77C525.41,-156.77 413.69,-156.77 413.69,-156.77 407.69,-156.77 401.69,-150.77 401.69,-144.77 401.69,-144.77 401.69,-81.62 401.69,-81.62 401.69,-75.62 407.69,-69.62 413.69,-69.62 413.69,-69.62 525.41,-69.62 525.41,-69.62 531.41,-69.62 537.41,-75.62 537.41,-81.62 537.41,-81.62 537.41,-144.77 537.41,-144.77 537.41,-150.77 531.41,-156.77 525.41,-156.77"/>
<text xml:space="preserve" text-anchor="start" x="442.55" y="-138.22" font-family="Inter,Arial" font-weight="bold" font-size="13.00" fill="#172033">lock_api</text>
<text xml:space="preserve" text-anchor="start" x="453.05" y="-123.17" font-family="Inter,Arial" font-size="12.00" fill="#172033">0.4.14</text>
<text xml:space="preserve" text-anchor="start" x="426.05" y="-95.87" font-family="Inter,Arial" font-weight="bold" font-size="11.00" fill="#172033">scopeguard</text>
<text xml:space="preserve" text-anchor="start" x="488.3" y="-95.87" font-family="Inter,Arial" font-size="10.00" fill="#172033"> </text>
<text xml:space="preserve" text-anchor="start" x="491.3" y="-95.87" font-family="Inter,Arial" font-size="10.00" fill="#172033">1.2.0</text>
<path fill="none" stroke="#9aa8b8" d="M427.55,-82.82C427.55,-82.82 511.55,-82.82 511.55,-82.82 516.8,-82.82 522.05,-88.07 522.05,-93.32 522.05,-93.32 522.05,-103.82 522.05,-103.82 522.05,-109.07 516.8,-114.32 511.55,-114.32 511.55,-114.32 427.55,-114.32 427.55,-114.32 422.3,-114.32 417.05,-109.07 417.05,-103.82 417.05,-103.82 417.05,-93.32 417.05,-93.32 417.05,-88.07 422.3,-82.82 427.55,-82.82"/>
</g>
<!-- n5&#45;&gt;n1 -->
<g id="edge6" class="edge">
<title>n5&#45;&gt;n1</title>
<path fill="none" stroke="#9aa8b8" stroke-width="7.2" d="M334.4,-774.2C360.51,-774.2 394.72,-774.2 422.06,-774.2"/>
<polygon fill="#9aa8b8" stroke="#9aa8b8" stroke-width="7.2" points="421.83,-777.67 427.33,-774.2 421.83,-770.74 421.83,-777.67"/>
</g>
<!-- n5&#45;&gt;n2 -->
<g id="edge7" class="edge">
<title>n5&#45;&gt;n2</title>
<path fill="none" stroke="#9aa8b8" stroke-width="7.2" d="M334.29,-761.15C344.21,-756.41 354.16,-750.2 361.69,-742.2 425.41,-674.56 453.16,-563.96 463.42,-509.92"/>
<polygon fill="#9aa8b8" stroke="#9aa8b8" stroke-width="7.2" points="466.79,-510.74 464.36,-504.71 459.97,-509.51 466.79,-510.74"/>
</g>
<!-- n6&#45;&gt;n4 -->
<g id="edge8" class="edge">
<title>n6&#45;&gt;n4</title>
<path fill="none" stroke="#9aa8b8" stroke-width="7.2" d="M337.69,-184.1C345.71,-180.23 353.98,-176.16 361.69,-172.2 371.17,-167.33 381.06,-162.1 390.81,-156.83"/>
<polygon fill="#9aa8b8" stroke="#9aa8b8" stroke-width="7.2" points="392.22,-160.01 395.4,-154.34 388.91,-153.92 392.22,-160.01"/>
</g>
<!-- in0 -->
<g id="node8" class="node">
<title>in0</title>
<polygon fill="#eef6ff" stroke="#4b8fc5" points="343.69,-293.4 237.22,-293.4 237.22,-249 349.69,-249 349.69,-287.4 343.69,-293.4"/>
<polyline fill="none" stroke="#4b8fc5" points="343.69,-293.4 343.69,-287.4"/>
<polyline fill="none" stroke="#4b8fc5" points="349.69,-287.4 343.69,-287.4"/>
<text xml:space="preserve" text-anchor="start" x="246.58" y="-277.7" font-family="Inter,Arial" font-size="10.00" fill="#123d5c">from alsa&#45;v0.11.0.svg</text>
<text xml:space="preserve" text-anchor="start" x="276.2" y="-267.7" font-family="Inter,Arial" font-weight="bold" font-size="10.00" fill="#123d5c">bitflags</text>
<text xml:space="preserve" text-anchor="start" x="279.95" y="-257.7" font-family="Inter,Arial" font-size="10.00" fill="#123d5c">2.13.0</text>
</g>
<!-- in0&#45;&gt;n2 -->
<g id="edge9" class="edge">
<title>in0&#45;&gt;n2</title>
<path fill="none" stroke="#4b8fc5" stroke-width="7.2" stroke-dasharray="5,2" d="M346.67,-293.87C352.03,-297.26 357.16,-301.04 361.69,-305.2 406.23,-346.1 439,-409.71 455.82,-447.34"/>
<polygon fill="#4b8fc5" stroke="#4b8fc5" stroke-width="7.2" points="452.45,-448.28 457.82,-451.94 458.8,-445.51 452.45,-448.28"/>
</g>
<!-- in1 -->
<g id="node9" class="node">
<title>in1</title>
<polygon fill="#eef6ff" stroke="#4b8fc5" points="142.1,-340.4 37.13,-340.4 37.13,-256 148.1,-256 148.1,-334.4 142.1,-340.4"/>
<polyline fill="none" stroke="#4b8fc5" points="142.1,-340.4 142.1,-334.4"/>
<polyline fill="none" stroke="#4b8fc5" points="148.1,-334.4 142.1,-334.4"/>
<text xml:space="preserve" text-anchor="start" x="46.49" y="-324.7" font-family="Inter,Arial" font-size="10.00" fill="#123d5c">from aml&#45;v0.16.4.svg</text>
<text xml:space="preserve" text-anchor="start" x="73.86" y="-314.7" font-family="Inter,Arial" font-weight="bold" font-size="10.00" fill="#123d5c">bit_field</text>
<text xml:space="preserve" text-anchor="start" x="79.11" y="-304.7" font-family="Inter,Arial" font-size="10.00" fill="#123d5c">0.10.3</text>
<text xml:space="preserve" text-anchor="start" x="70.49" y="-294.7" font-family="Inter,Arial" font-weight="bold" font-size="10.00" fill="#123d5c">byteorder</text>
<text xml:space="preserve" text-anchor="start" x="81.74" y="-284.7" font-family="Inter,Arial" font-size="10.00" fill="#123d5c">1.5.0</text>
<text xml:space="preserve" text-anchor="start" x="61.86" y="-274.7" font-family="Inter,Arial" font-weight="bold" font-size="10.00" fill="#123d5c">spinning_top</text>
<text xml:space="preserve" text-anchor="start" x="81.74" y="-264.7" font-family="Inter,Arial" font-size="10.00" fill="#123d5c">0.3.0</text>
</g>
<!-- in1&#45;&gt;n1 -->
<g id="edge10" class="edge">
<title>in1&#45;&gt;n1</title>
<path fill="none" stroke="#4b8fc5" stroke-width="7.2" stroke-dasharray="5,2" d="M116.6,-340.7C137.81,-381.84 168.47,-446.56 185.22,-506.2 203.4,-570.95 174.62,-761.9 225.22,-806.2 279.69,-853.89 369.05,-824.18 422.99,-798.8"/>
<polygon fill="#4b8fc5" stroke="#4b8fc5" stroke-width="7.2" points="424.43,-801.95 427.86,-796.43 421.4,-795.72 424.43,-801.95"/>
</g>
<!-- in1&#45;&gt;n3 -->
<g id="edge11" class="edge">
<title>in1&#45;&gt;n3</title>
<path fill="none" stroke="#4b8fc5" stroke-width="7.2" stroke-dasharray="5,2" d="M148.4,-272.3C161.46,-264.48 174.65,-255.04 185.22,-244.2 210.77,-217.99 198.53,-197.26 225.22,-172.2 230.23,-167.49 236.06,-163.36 242.15,-159.77"/>
<polygon fill="#4b8fc5" stroke="#4b8fc5" stroke-width="7.2" points="243.37,-163.05 246.6,-157.4 240.11,-156.93 243.37,-163.05"/>
</g>
<!-- in1&#45;&gt;n6 -->
<g id="edge12" class="edge">
<title>in1&#45;&gt;n6</title>
<path fill="none" stroke="#4b8fc5" stroke-width="7.2" stroke-dasharray="5,2" d="M148.47,-272.27C176.68,-258.93 210.93,-242.74 238.95,-229.49"/>
<polygon fill="#4b8fc5" stroke="#4b8fc5" stroke-width="7.2" points="240.15,-232.76 243.64,-227.28 237.19,-226.49 240.15,-232.76"/>
</g>
<!-- in2 -->
<g id="node10" class="node">
<title>in2</title>
<polygon fill="#eef6ff" stroke="#4b8fc5" points="351.19,-729.4 229.72,-729.4 229.72,-665 357.19,-665 357.19,-723.4 351.19,-729.4"/>
<polyline fill="none" stroke="#4b8fc5" points="351.19,-729.4 351.19,-723.4"/>
<polyline fill="none" stroke="#4b8fc5" points="357.19,-723.4 351.19,-723.4"/>
<text xml:space="preserve" text-anchor="start" x="239.08" y="-713.7" font-family="Inter,Arial" font-size="10.00" fill="#123d5c">from crab&#45;usb&#45;v0.9.1.svg</text>
<text xml:space="preserve" text-anchor="start" x="276.2" y="-703.7" font-family="Inter,Arial" font-weight="bold" font-size="10.00" fill="#123d5c">bitflags</text>
<text xml:space="preserve" text-anchor="start" x="279.95" y="-693.7" font-family="Inter,Arial" font-size="10.00" fill="#123d5c">2.13.0</text>
<text xml:space="preserve" text-anchor="start" x="274.7" y="-683.7" font-family="Inter,Arial" font-weight="bold" font-size="10.00" fill="#123d5c">bit_field</text>
<text xml:space="preserve" text-anchor="start" x="279.95" y="-673.7" font-family="Inter,Arial" font-size="10.00" fill="#123d5c">0.10.3</text>
</g>
<!-- in2&#45;&gt;n1 -->
<g id="edge13" class="edge">
<title>in2&#45;&gt;n1</title>
<path fill="none" stroke="#4b8fc5" stroke-width="7.2" stroke-dasharray="5,2" d="M357.31,-725C379.07,-734.62 403.01,-745.21 423.1,-754.1"/>
<polygon fill="#4b8fc5" stroke="#4b8fc5" stroke-width="7.2" points="421.52,-757.19 427.95,-756.24 424.32,-750.85 421.52,-757.19"/>
</g>
<!-- in2&#45;&gt;n2 -->
<g id="edge14" class="edge">
<title>in2&#45;&gt;n2</title>
<path fill="none" stroke="#4b8fc5" stroke-width="7.2" stroke-dasharray="5,2" d="M348.98,-664.64C353.5,-661.04 357.81,-657.21 361.69,-653.2 404.01,-609.53 437.44,-546.22 454.99,-508.92"/>
<polygon fill="#4b8fc5" stroke="#4b8fc5" stroke-width="7.2" points="457.93,-510.81 457.09,-504.37 451.64,-507.91 457.93,-510.81"/>
</g>
<!-- in3 -->
<g id="node11" class="node">
<title>in3</title>
<polygon fill="#eef6ff" stroke="#4b8fc5" points="163.47,-162.4 15.75,-162.4 15.75,-118 169.47,-118 169.47,-156.4 163.47,-162.4"/>
<polyline fill="none" stroke="#4b8fc5" points="163.47,-162.4 163.47,-156.4"/>
<polyline fill="none" stroke="#4b8fc5" points="169.47,-156.4 163.47,-156.4"/>
<text xml:space="preserve" text-anchor="start" x="25.11" y="-146.7" font-family="Inter,Arial" font-size="10.00" fill="#123d5c">from embassy&#45;sync&#45;v0.8.0.svg</text>
<text xml:space="preserve" text-anchor="start" x="70.49" y="-136.7" font-family="Inter,Arial" font-weight="bold" font-size="10.00" fill="#123d5c">byteorder</text>
<text xml:space="preserve" text-anchor="start" x="81.74" y="-126.7" font-family="Inter,Arial" font-size="10.00" fill="#123d5c">1.5.0</text>
</g>
<!-- in3&#45;&gt;n3 -->
<g id="edge15" class="edge">
<title>in3&#45;&gt;n3</title>
<path fill="none" stroke="#4b8fc5" stroke-width="7.2" stroke-dasharray="5,2" d="M169.92,-140.2C193.45,-140.2 218.81,-140.2 240.32,-140.2"/>
<polygon fill="#4b8fc5" stroke="#4b8fc5" stroke-width="7.2" points="240.24,-143.67 245.74,-140.2 240.24,-136.74 240.24,-143.67"/>
</g>
<!-- in4 -->
<g id="node12" class="node">
<title>in4</title>
<polygon fill="#eef6ff" stroke="#4b8fc5" points="179.22,-231.4 0,-231.4 0,-187 185.22,-187 185.22,-225.4 179.22,-231.4"/>
<polyline fill="none" stroke="#4b8fc5" points="179.22,-231.4 179.22,-225.4"/>
<polyline fill="none" stroke="#4b8fc5" points="185.22,-225.4 179.22,-225.4"/>
<text xml:space="preserve" text-anchor="start" x="9.36" y="-215.7" font-family="Inter,Arial" font-size="10.00" fill="#123d5c">from embedded&#45;websocket&#45;v0.9.4.svg</text>
<text xml:space="preserve" text-anchor="start" x="70.49" y="-205.7" font-family="Inter,Arial" font-weight="bold" font-size="10.00" fill="#123d5c">byteorder</text>
<text xml:space="preserve" text-anchor="start" x="81.74" y="-195.7" font-family="Inter,Arial" font-size="10.00" fill="#123d5c">1.5.0</text>
</g>
<!-- in4&#45;&gt;n3 -->
<g id="edge16" class="edge">
<title>in4&#45;&gt;n3</title>
<path fill="none" stroke="#4b8fc5" stroke-width="7.2" stroke-dasharray="5,2" d="M158.99,-186.51C185.67,-177.25 216.07,-166.71 241.11,-158.02"/>
<polygon fill="#4b8fc5" stroke="#4b8fc5" stroke-width="7.2" points="242.12,-161.33 246.18,-156.26 239.85,-154.79 242.12,-161.33"/>
</g>
<!-- in5 -->
<g id="node13" class="node">
<title>in5</title>
<polygon fill="#eef6ff" stroke="#4b8fc5" points="351.19,-500.4 229.72,-500.4 229.72,-456 357.19,-456 357.19,-494.4 351.19,-500.4"/>
<polyline fill="none" stroke="#4b8fc5" points="351.19,-500.4 351.19,-494.4"/>
<polyline fill="none" stroke="#4b8fc5" points="357.19,-494.4 351.19,-494.4"/>
<text xml:space="preserve" text-anchor="start" x="239.08" y="-484.7" font-family="Inter,Arial" font-size="10.00" fill="#123d5c">from parry2d&#45;v0.26.1.svg</text>
<text xml:space="preserve" text-anchor="start" x="276.2" y="-474.7" font-family="Inter,Arial" font-weight="bold" font-size="10.00" fill="#123d5c">bitflags</text>
<text xml:space="preserve" text-anchor="start" x="279.95" y="-464.7" font-family="Inter,Arial" font-size="10.00" fill="#123d5c">2.13.0</text>
</g>
<!-- in5&#45;&gt;n2 -->
<g id="edge17" class="edge">
<title>in5&#45;&gt;n2</title>
<path fill="none" stroke="#4b8fc5" stroke-width="7.2" stroke-dasharray="5,2" d="M357.31,-478.2C379.41,-478.2 403.77,-478.2 424.04,-478.2"/>
<polygon fill="#4b8fc5" stroke="#4b8fc5" stroke-width="7.2" points="423.83,-481.67 429.33,-478.2 423.83,-474.74 423.83,-481.67"/>
</g>
<!-- in6 -->
<g id="node14" class="node">
<title>in6</title>
<polygon fill="#eef6ff" stroke="#4b8fc5" points="342.94,-431.4 237.97,-431.4 237.97,-387 348.94,-387 348.94,-425.4 342.94,-431.4"/>
<polyline fill="none" stroke="#4b8fc5" points="342.94,-431.4 342.94,-425.4"/>
<polyline fill="none" stroke="#4b8fc5" points="348.94,-425.4 342.94,-425.4"/>
<text xml:space="preserve" text-anchor="start" x="247.33" y="-415.7" font-family="Inter,Arial" font-size="10.00" fill="#123d5c">from png&#45;v0.18.1.svg</text>
<text xml:space="preserve" text-anchor="start" x="276.2" y="-405.7" font-family="Inter,Arial" font-weight="bold" font-size="10.00" fill="#123d5c">bitflags</text>
<text xml:space="preserve" text-anchor="start" x="279.95" y="-395.7" font-family="Inter,Arial" font-size="10.00" fill="#123d5c">2.13.0</text>
</g>
<!-- in6&#45;&gt;n2 -->
<g id="edge18" class="edge">
<title>in6&#45;&gt;n2</title>
<path fill="none" stroke="#4b8fc5" stroke-width="7.2" stroke-dasharray="5,2" d="M349.06,-430.84C373.46,-440.51 401.83,-451.75 424.8,-460.86"/>
<polygon fill="#4b8fc5" stroke="#4b8fc5" stroke-width="7.2" points="423.26,-463.98 429.65,-462.78 425.82,-457.54 423.26,-463.98"/>
</g>
<!-- in7 -->
<g id="node15" class="node">
<title>in7</title>
<polygon fill="#eef6ff" stroke="#4b8fc5" points="355.69,-362.4 225.22,-362.4 225.22,-318 361.69,-318 361.69,-356.4 355.69,-362.4"/>
<polyline fill="none" stroke="#4b8fc5" points="355.69,-362.4 355.69,-356.4"/>
<polyline fill="none" stroke="#4b8fc5" points="361.69,-356.4 355.69,-356.4"/>
<text xml:space="preserve" text-anchor="start" x="234.58" y="-346.7" font-family="Inter,Arial" font-size="10.00" fill="#123d5c">from raw&#45;cpuid&#45;v11.6.0.svg</text>
<text xml:space="preserve" text-anchor="start" x="276.2" y="-336.7" font-family="Inter,Arial" font-weight="bold" font-size="10.00" fill="#123d5c">bitflags</text>
<text xml:space="preserve" text-anchor="start" x="279.95" y="-326.7" font-family="Inter,Arial" font-size="10.00" fill="#123d5c">2.13.0</text>
</g>
<!-- in7&#45;&gt;n2 -->
<g id="edge19" class="edge">
<title>in7&#45;&gt;n2</title>
<path fill="none" stroke="#4b8fc5" stroke-width="7.2" stroke-dasharray="5,2" d="M343.59,-362.83C349.86,-366.35 356.05,-370.17 361.69,-374.2 392.48,-396.18 422.93,-426.95 443.41,-449.32"/>
<polygon fill="#4b8fc5" stroke="#4b8fc5" stroke-width="7.2" points="440.76,-451.56 447.02,-453.32 445.91,-446.92 440.76,-451.56"/>
</g>
<!-- in8 -->
<g id="node16" class="node">
<title>in8</title>
<polygon fill="#eef6ff" stroke="#4b8fc5" points="151.47,-93.4 27.75,-93.4 27.75,-29 157.47,-29 157.47,-87.4 151.47,-93.4"/>
<polyline fill="none" stroke="#4b8fc5" points="151.47,-93.4 151.47,-87.4"/>
<polyline fill="none" stroke="#4b8fc5" points="157.47,-87.4 151.47,-87.4"/>
<text xml:space="preserve" text-anchor="start" x="37.11" y="-77.7" font-family="Inter,Arial" font-size="10.00" fill="#123d5c">from smoltcp&#45;v0.13.1.svg</text>
<text xml:space="preserve" text-anchor="start" x="75.36" y="-67.7" font-family="Inter,Arial" font-weight="bold" font-size="10.00" fill="#123d5c">bitflags</text>
<text xml:space="preserve" text-anchor="start" x="79.11" y="-57.7" font-family="Inter,Arial" font-size="10.00" fill="#123d5c">2.13.0</text>
<text xml:space="preserve" text-anchor="start" x="70.49" y="-47.7" font-family="Inter,Arial" font-weight="bold" font-size="10.00" fill="#123d5c">byteorder</text>
<text xml:space="preserve" text-anchor="start" x="81.74" y="-37.7" font-family="Inter,Arial" font-size="10.00" fill="#123d5c">1.5.0</text>
</g>
<!-- in8&#45;&gt;n2 -->
<g id="edge20" class="edge">
<title>in8&#45;&gt;n2</title>
<path fill="none" stroke="#4b8fc5" stroke-width="7.2" stroke-dasharray="5,2" d="M157.95,-64.76C227.51,-69.91 332.38,-81.88 361.69,-108.2 412.88,-154.16 450.82,-365.28 463.73,-446.36"/>
<polygon fill="#4b8fc5" stroke="#4b8fc5" stroke-width="7.2" points="460.3,-446.86 464.58,-451.76 467.15,-445.79 460.3,-446.86"/>
</g>
<!-- in8&#45;&gt;n3 -->
<g id="edge21" class="edge">
<title>in8&#45;&gt;n3</title>
<path fill="none" stroke="#4b8fc5" stroke-width="7.2" stroke-dasharray="5,2" d="M157.89,-86.74C184.95,-97.49 216,-109.82 241.45,-119.93"/>
<polygon fill="#4b8fc5" stroke="#4b8fc5" stroke-width="7.2" points="240.04,-123.1 246.43,-121.92 242.6,-116.66 240.04,-123.1"/>
</g>
<!-- in9 -->
<g id="node17" class="node">
<title>in9</title>
<polygon fill="#eef6ff" stroke="#4b8fc5" points="344.06,-44.4 236.84,-44.4 236.84,0 350.06,0 350.06,-38.4 344.06,-44.4"/>
<polyline fill="none" stroke="#4b8fc5" points="344.06,-44.4 344.06,-38.4"/>
<polyline fill="none" stroke="#4b8fc5" points="350.06,-38.4 344.06,-38.4"/>
<text xml:space="preserve" text-anchor="start" x="246.2" y="-28.7" font-family="Inter,Arial" font-size="10.00" fill="#123d5c">from spin&#45;v0.10.0.svg</text>
<text xml:space="preserve" text-anchor="start" x="273.95" y="-18.7" font-family="Inter,Arial" font-weight="bold" font-size="10.00" fill="#123d5c">lock_api</text>
<text xml:space="preserve" text-anchor="start" x="279.95" y="-8.7" font-family="Inter,Arial" font-size="10.00" fill="#123d5c">0.4.14</text>
</g>
<!-- in9&#45;&gt;n4 -->
<g id="edge22" class="edge">
<title>in9&#45;&gt;n4</title>
<path fill="none" stroke="#4b8fc5" stroke-width="7.2" stroke-dasharray="5,2" d="M337.49,-44.69C353.57,-53.1 372.36,-62.92 390.62,-72.46"/>
<polygon fill="#4b8fc5" stroke="#4b8fc5" stroke-width="7.2" points="388.81,-75.43 395.29,-74.91 392.02,-69.29 388.81,-75.43"/>
</g>
<!-- in10 -->
<g id="node18" class="node">
<title>in10</title>
<polygon fill="#eef6ff" stroke="#4b8fc5" points="350.81,-640.4 230.09,-640.4 230.09,-576 356.81,-576 356.81,-634.4 350.81,-640.4"/>
<polyline fill="none" stroke="#4b8fc5" points="350.81,-640.4 350.81,-634.4"/>
<polyline fill="none" stroke="#4b8fc5" points="356.81,-634.4 350.81,-634.4"/>
<text xml:space="preserve" text-anchor="start" x="239.45" y="-624.7" font-family="Inter,Arial" font-size="10.00" fill="#123d5c">from x86_64&#45;v0.15.4.svg</text>
<text xml:space="preserve" text-anchor="start" x="274.7" y="-614.7" font-family="Inter,Arial" font-weight="bold" font-size="10.00" fill="#123d5c">bit_field</text>
<text xml:space="preserve" text-anchor="start" x="279.95" y="-604.7" font-family="Inter,Arial" font-size="10.00" fill="#123d5c">0.10.3</text>
<text xml:space="preserve" text-anchor="start" x="276.2" y="-594.7" font-family="Inter,Arial" font-weight="bold" font-size="10.00" fill="#123d5c">bitflags</text>
<text xml:space="preserve" text-anchor="start" x="279.95" y="-584.7" font-family="Inter,Arial" font-size="10.00" fill="#123d5c">2.13.0</text>
</g>
<!-- in10&#45;&gt;n1 -->
<g id="edge23" class="edge">
<title>in10&#45;&gt;n1</title>
<path fill="none" stroke="#4b8fc5" stroke-width="7.2" stroke-dasharray="5,2" d="M347.23,-640.72C352.26,-644.41 357.16,-648.27 361.69,-652.2 394.15,-680.41 425.91,-718.38 446.26,-744.43"/>
<polygon fill="#4b8fc5" stroke="#4b8fc5" stroke-width="7.2" points="443.5,-746.53 449.61,-748.77 448.99,-742.3 443.5,-746.53"/>
</g>
<!-- in10&#45;&gt;n2 -->
<g id="edge24" class="edge">
<title>in10&#45;&gt;n2</title>
<path fill="none" stroke="#4b8fc5" stroke-width="7.2" stroke-dasharray="5,2" d="M337.94,-575.73C366.91,-554.1 404.56,-525.98 431.99,-505.5"/>
<polygon fill="#4b8fc5" stroke="#4b8fc5" stroke-width="7.2" points="433.85,-508.44 436.18,-502.37 429.7,-502.88 433.85,-508.44"/>
</g>
</g>
</svg>
