<?xml version="1.0" encoding="UTF-8" standalone="no"?>
<!DOCTYPE svg PUBLIC "-//W3C//DTD SVG 1.1//EN"
 "http://www.w3.org/Graphics/SVG/1.1/DTD/svg11.dtd">
<!-- Generated by graphviz version 14.1.2 (0)
 -->
<!-- Title: acpi&#45;v6.1.1 Pages: 1 -->
<svg width="545pt" height="1014pt"
 viewBox="0.00 0.00 545.00 1014.00" xmlns="http://www.w3.org/2000/svg" xmlns:xlink="http://www.w3.org/1999/xlink">
<g id="graph0" class="graph" transform="scale(1 1) rotate(0) translate(4 1010.4)">
<title>acpi&#45;v6.1.1</title>
<polygon fill="white" stroke="none" points="-4,4 -4,-1010.4 541.41,-1010.4 541.41,4 -4,4"/>
<!-- n0 -->
<g id="node1" class="node">
<title>n0</title>
<path fill="#dff3ff" stroke="#1b78a6" d="M107.61,-741.9C107.61,-741.9 77.61,-741.9 77.61,-741.9 71.61,-741.9 65.61,-735.9 65.61,-729.9 65.61,-729.9 65.61,-714.5 65.61,-714.5 65.61,-708.5 71.61,-702.5 77.61,-702.5 77.61,-702.5 107.61,-702.5 107.61,-702.5 113.61,-702.5 119.61,-708.5 119.61,-714.5 119.61,-714.5 119.61,-729.9 119.61,-729.9 119.61,-735.9 113.61,-741.9 107.61,-741.9"/>
<text xml:space="preserve" text-anchor="start" x="79.11" y="-723.35" font-family="Inter,Arial" font-weight="bold" font-size="13.00" fill="#172033">acpi</text>
<text xml:space="preserve" text-anchor="start" x="79.49" y="-711.3" font-family="Inter,Arial" font-size="12.00" fill="#172033">6.1.1</text>
</g>
<!-- n1 -->
<g id="node2" class="node">
<title>n1</title>
<path fill="#f7f9fb" stroke="#8b9bb0" d="M492.78,-827.9C492.78,-827.9 446.31,-827.9 446.31,-827.9 440.31,-827.9 434.31,-821.9 434.31,-815.9 434.31,-815.9 434.31,-800.5 434.31,-800.5 434.31,-794.5 440.31,-788.5 446.31,-788.5 446.31,-788.5 492.78,-788.5 492.78,-788.5 498.78,-788.5 504.78,-794.5 504.78,-800.5 504.78,-800.5 504.78,-815.9 504.78,-815.9 504.78,-821.9 498.78,-827.9 492.78,-827.9"/>
<text xml:space="preserve" text-anchor="start" x="443.67" y="-809.35" font-family="Inter,Arial" font-weight="bold" font-size="13.00" fill="#172033">bit_field</text>
<text xml:space="preserve" text-anchor="start" x="453.05" y="-797.3" font-family="Inter,Arial" font-size="12.00" fill="#172033">0.10.3</text>
</g>
<!-- n0&#45;&gt;n1 -->
<g id="edge1" class="edge">
<title>n0&#45;&gt;n1</title>
<path fill="none" stroke="#9aa8b8" stroke-width="0.9" d="M101.38,-742.34C117.58,-781.07 159.04,-865.05 225.22,-898.2 279.45,-925.36 304.71,-919 361.69,-898.2 396.92,-885.34 428.57,-855.19 448.12,-833.32"/>
<polygon fill="#9aa8b8" stroke="#9aa8b8" stroke-width="0.9" points="449.5,-834.66 451.68,-829.26 446.61,-832.12 449.5,-834.66"/>
</g>
<!-- n2 -->
<g id="node3" class="node">
<title>n2</title>
<path fill="#f7f9fb" stroke="#8b9bb0" d="M490.91,-538.9C490.91,-538.9 448.19,-538.9 448.19,-538.9 442.19,-538.9 436.19,-532.9 436.19,-526.9 436.19,-526.9 436.19,-511.5 436.19,-511.5 436.19,-505.5 442.19,-499.5 448.19,-499.5 448.19,-499.5 490.91,-499.5 490.91,-499.5 496.91,-499.5 502.91,-505.5 502.91,-511.5 502.91,-511.5 502.91,-526.9 502.91,-526.9 502.91,-532.9 496.91,-538.9 490.91,-538.9"/>
<text xml:space="preserve" text-anchor="start" x="445.55" y="-520.35" font-family="Inter,Arial" font-weight="bold" font-size="13.00" fill="#172033">bitflags</text>
<text xml:space="preserve" text-anchor="start" x="453.8" y="-508.3" font-family="Inter,Arial" font-size="12.00" fill="#172033">2.11.1</text>
</g>
<!-- n0&#45;&gt;n2 -->
<g id="edge2" class="edge">
<title>n0&#45;&gt;n2</title>
<path fill="none" stroke="#9aa8b8" stroke-width="0.9" d="M110.91,-702.44C134.46,-676.62 178.98,-631.51 225.22,-604.2 243.29,-593.53 365.49,-552.87 429.55,-531.89"/>
<polygon fill="#9aa8b8" stroke="#9aa8b8" stroke-width="0.9" points="430.01,-533.76 434.64,-530.22 428.81,-530.1 430.01,-533.76"/>
</g>
<!-- n3 -->
<g id="node4" class="node">
<title>n3</title>
<path fill="#f7f9fb" stroke="#8b9bb0" d="M321.94,-130.9C321.94,-130.9 264.97,-130.9 264.97,-130.9 258.97,-130.9 252.97,-124.9 252.97,-118.9 252.97,-118.9 252.97,-103.5 252.97,-103.5 252.97,-97.5 258.97,-91.5 264.97,-91.5 264.97,-91.5 321.94,-91.5 321.94,-91.5 327.94,-91.5 333.94,-97.5 333.94,-103.5 333.94,-103.5 333.94,-118.9 333.94,-118.9 333.94,-124.9 327.94,-130.9 321.94,-130.9"/>
<text xml:space="preserve" text-anchor="start" x="262.33" y="-112.35" font-family="Inter,Arial" font-weight="bold" font-size="13.00" fill="#172033">byteorder</text>
<text xml:space="preserve" text-anchor="start" x="280.33" y="-100.3" font-family="Inter,Arial" font-size="12.00" fill="#172033">1.5.0</text>
</g>
<!-- n0&#45;&gt;n3 -->
<g id="edge3" class="edge">
<title>n0&#45;&gt;n3</title>
<path fill="none" stroke="#9aa8b8" stroke-width="0.9" d="M98.25,-702.34C111.8,-644.22 152.45,-469.45 185.22,-324.2 203.35,-243.83 173.93,-207.67 225.22,-143.2 230.97,-135.97 238.76,-130.28 246.99,-125.83"/>
<polygon fill="#9aa8b8" stroke="#9aa8b8" stroke-width="0.9" points="247.47,-127.75 251.52,-123.56 245.75,-124.31 247.47,-127.75"/>
</g>
<!-- n5 -->
<g id="node6" class="node">
<title>n5</title>
<path fill="#f7f9fb" stroke="#8b9bb0" d="M321.94,-885.9C321.94,-885.9 264.97,-885.9 264.97,-885.9 258.97,-885.9 252.97,-879.9 252.97,-873.9 252.97,-873.9 252.97,-858.5 252.97,-858.5 252.97,-852.5 258.97,-846.5 264.97,-846.5 264.97,-846.5 321.94,-846.5 321.94,-846.5 327.94,-846.5 333.94,-852.5 333.94,-858.5 333.94,-858.5 333.94,-873.9 333.94,-873.9 333.94,-879.9 327.94,-885.9 321.94,-885.9"/>
<text xml:space="preserve" text-anchor="start" x="262.33" y="-867.35" font-family="Inter,Arial" font-weight="bold" font-size="13.00" fill="#172033">pci_types</text>
<text xml:space="preserve" text-anchor="start" x="276.95" y="-855.3" font-family="Inter,Arial" font-size="12.00" fill="#172033">0.10.1</text>
</g>
<!-- n0&#45;&gt;n5 -->
<g id="edge4" class="edge">
<title>n0&#45;&gt;n5</title>
<path fill="none" stroke="#9aa8b8" stroke-width="0.9" d="M116.58,-742.25C142.24,-764.23 185.4,-799.99 225.22,-827.2 233,-832.52 241.55,-837.84 249.86,-842.77"/>
<polygon fill="#9aa8b8" stroke="#9aa8b8" stroke-width="0.9" points="248.67,-844.3 254.39,-845.42 250.61,-840.98 248.67,-844.3"/>
</g>
<!-- n6 -->
<g id="node7" class="node">
<title>n6</title>
<path fill="#f7f9fb" stroke="#8b9bb0" d="M333.19,-264.9C333.19,-264.9 253.72,-264.9 253.72,-264.9 247.72,-264.9 241.72,-258.9 241.72,-252.9 241.72,-252.9 241.72,-237.5 241.72,-237.5 241.72,-231.5 247.72,-225.5 253.72,-225.5 253.72,-225.5 333.19,-225.5 333.19,-225.5 339.19,-225.5 345.19,-231.5 345.19,-237.5 345.19,-237.5 345.19,-252.9 345.19,-252.9 345.19,-258.9 339.19,-264.9 333.19,-264.9"/>
<text xml:space="preserve" text-anchor="start" x="251.08" y="-246.35" font-family="Inter,Arial" font-weight="bold" font-size="13.00" fill="#172033">spinning_top</text>
<text xml:space="preserve" text-anchor="start" x="280.33" y="-234.3" font-family="Inter,Arial" font-size="12.00" fill="#172033">0.3.0</text>
</g>
<!-- n0&#45;&gt;n6 -->
<g id="edge5" class="edge">
<title>n0&#45;&gt;n6</title>
<path fill="none" stroke="#9aa8b8" stroke-width="0.9" d="M93.98,-702.22C96.27,-634.3 112.44,-409.2 225.22,-277.2 228.34,-273.55 231.97,-270.29 235.89,-267.37"/>
<polygon fill="#9aa8b8" stroke="#9aa8b8" stroke-width="0.9" points="236.82,-269.07 240.28,-264.38 234.65,-265.89 236.82,-269.07"/>
</g>
<!-- out0 -->
<g id="node8" class="node">
<title>out0</title>
<polygon fill="#fff8e8" stroke="#d19922" points="335.81,-1006.4 245.09,-1006.4 245.09,-962 341.81,-962 341.81,-1000.4 335.81,-1006.4"/>
<polyline fill="none" stroke="#d19922" points="335.81,-1006.4 335.81,-1000.4"/>
<polyline fill="none" stroke="#d19922" points="341.81,-1000.4 335.81,-1000.4"/>
<text xml:space="preserve" text-anchor="start" x="254.45" y="-990.7" font-family="Inter,Arial" font-size="10.00" fill="#614000">to log&#45;v0.4.29.svg</text>
<text xml:space="preserve" text-anchor="start" x="285.95" y="-980.7" font-family="Inter,Arial" font-weight="bold" font-size="10.00" fill="#614000">log</text>
<text xml:space="preserve" text-anchor="start" x="279.95" y="-970.7" font-family="Inter,Arial" font-size="10.00" fill="#614000">0.4.29</text>
</g>
<!-- n0&#45;&gt;out0 -->
<g id="edge9" class="edge">
<title>n0&#45;&gt;out0</title>
<path fill="none" stroke="#d19922" stroke-width="0.9" stroke-dasharray="5,2" d="M101.63,-742.36C118.99,-784 163.5,-880.83 225.22,-943.2 230.55,-948.59 236.73,-953.57 243.14,-958.06"/>
<polygon fill="#d19922" stroke="#d19922" stroke-width="0.9" points="241.8,-959.48 247.43,-960.96 243.95,-956.29 241.8,-959.48"/>
</g>
<!-- n4 -->
<g id="node5" class="node">
<title>n4</title>
<path fill="#f7f9fb" stroke="#8b9bb0" d="M525.41,-255.78C525.41,-255.78 413.69,-255.78 413.69,-255.78 407.69,-255.78 401.69,-249.78 401.69,-243.78 401.69,-243.78 401.69,-180.63 401.69,-180.63 401.69,-174.63 407.69,-168.63 413.69,-168.63 413.69,-168.63 525.41,-168.63 525.41,-168.63 531.41,-168.63 537.41,-174.63 537.41,-180.63 537.41,-180.63 537.41,-243.78 537.41,-243.78 537.41,-249.78 531.41,-255.78 525.41,-255.78"/>
<text xml:space="preserve" text-anchor="start" x="442.55" y="-237.23" font-family="Inter,Arial" font-weight="bold" font-size="13.00" fill="#172033">lock_api</text>
<text xml:space="preserve" text-anchor="start" x="453.05" y="-222.18" font-family="Inter,Arial" font-size="12.00" fill="#172033">0.4.14</text>
<text xml:space="preserve" text-anchor="start" x="426.05" y="-194.88" font-family="Inter,Arial" font-weight="bold" font-size="11.00" fill="#172033">scopeguard</text>
<text xml:space="preserve" text-anchor="start" x="488.3" y="-194.88" font-family="Inter,Arial" font-size="10.00" fill="#172033"> </text>
<text xml:space="preserve" text-anchor="start" x="491.3" y="-194.88" font-family="Inter,Arial" font-size="10.00" fill="#172033">1.2.0</text>
<path fill="none" stroke="#9aa8b8" d="M427.55,-181.83C427.55,-181.83 511.55,-181.83 511.55,-181.83 516.8,-181.83 522.05,-187.08 522.05,-192.33 522.05,-192.33 522.05,-202.83 522.05,-202.83 522.05,-208.08 516.8,-213.33 511.55,-213.33 511.55,-213.33 427.55,-213.33 427.55,-213.33 422.3,-213.33 417.05,-208.08 417.05,-202.83 417.05,-202.83 417.05,-192.33 417.05,-192.33 417.05,-187.08 422.3,-181.83 427.55,-181.83"/>
</g>
<!-- n5&#45;&gt;n1 -->
<g id="edge6" class="edge">
<title>n5&#45;&gt;n1</title>
<path fill="none" stroke="#9aa8b8" stroke-width="0.9" d="M334.4,-852.89C362.39,-843.57 399.7,-831.14 427.86,-821.76"/>
<polygon fill="#9aa8b8" stroke="#9aa8b8" stroke-width="0.9" points="428.18,-823.68 432.79,-820.11 426.97,-820.02 428.18,-823.68"/>
</g>
<!-- n5&#45;&gt;n2 -->
<g id="edge7" class="edge">
<title>n5&#45;&gt;n2</title>
<path fill="none" stroke="#9aa8b8" stroke-width="0.9" d="M313.41,-846.31C328,-830.24 347.94,-806.52 361.69,-783.2 409.66,-701.84 445.54,-594.91 460.66,-545.87"/>
<polygon fill="#9aa8b8" stroke="#9aa8b8" stroke-width="0.9" points="462.49,-546.47 462.26,-540.65 458.81,-545.34 462.49,-546.47"/>
</g>
<!-- n6&#45;&gt;n4 -->
<g id="edge8" class="edge">
<title>n6&#45;&gt;n4</title>
<path fill="none" stroke="#9aa8b8" stroke-width="0.9" d="M345.28,-235.57C360.78,-232.63 378.16,-229.33 394.86,-226.17"/>
<polygon fill="#9aa8b8" stroke="#9aa8b8" stroke-width="0.9" points="395.08,-228.09 400.13,-225.17 394.36,-224.3 395.08,-228.09"/>
</g>
<!-- in1 -->
<g id="node9" class="node">
<title>in1</title>
<polygon fill="#eef6ff" stroke="#4b8fc5" points="343.69,-541.4 237.22,-541.4 237.22,-497 349.69,-497 349.69,-535.4 343.69,-541.4"/>
<polyline fill="none" stroke="#4b8fc5" points="343.69,-541.4 343.69,-535.4"/>
<polyline fill="none" stroke="#4b8fc5" points="349.69,-535.4 343.69,-535.4"/>
<text xml:space="preserve" text-anchor="start" x="246.58" y="-525.7" font-family="Inter,Arial" font-size="10.00" fill="#123d5c">from alsa&#45;v0.11.0.svg</text>
<text xml:space="preserve" text-anchor="start" x="276.2" y="-515.7" font-family="Inter,Arial" font-weight="bold" font-size="10.00" fill="#123d5c">bitflags</text>
<text xml:space="preserve" text-anchor="start" x="279.95" y="-505.7" font-family="Inter,Arial" font-size="10.00" fill="#123d5c">2.11.1</text>
</g>
<!-- in1&#45;&gt;n2 -->
<g id="edge10" class="edge">
<title>in1&#45;&gt;n2</title>
<path fill="none" stroke="#4b8fc5" stroke-width="0.9" stroke-dasharray="5,2" d="M350.02,-519.2C375.74,-519.2 405.7,-519.2 429.07,-519.2"/>
<polygon fill="#4b8fc5" stroke="#4b8fc5" stroke-width="0.9" points="428.92,-521.13 434.42,-519.2 428.92,-517.28 428.92,-521.13"/>
</g>
<!-- in2 -->
<g id="node10" class="node">
<title>in2</title>
<polygon fill="#eef6ff" stroke="#4b8fc5" points="142.1,-311.4 37.13,-311.4 37.13,-227 148.1,-227 148.1,-305.4 142.1,-311.4"/>
<polyline fill="none" stroke="#4b8fc5" points="142.1,-311.4 142.1,-305.4"/>
<polyline fill="none" stroke="#4b8fc5" points="148.1,-305.4 142.1,-305.4"/>
<text xml:space="preserve" text-anchor="start" x="46.49" y="-295.7" font-family="Inter,Arial" font-size="10.00" fill="#123d5c">from aml&#45;v0.16.4.svg</text>
<text xml:space="preserve" text-anchor="start" x="73.86" y="-285.7" font-family="Inter,Arial" font-weight="bold" font-size="10.00" fill="#123d5c">bit_field</text>
<text xml:space="preserve" text-anchor="start" x="79.11" y="-275.7" font-family="Inter,Arial" font-size="10.00" fill="#123d5c">0.10.3</text>
<text xml:space="preserve" text-anchor="start" x="70.49" y="-265.7" font-family="Inter,Arial" font-weight="bold" font-size="10.00" fill="#123d5c">byteorder</text>
<text xml:space="preserve" text-anchor="start" x="81.74" y="-255.7" font-family="Inter,Arial" font-size="10.00" fill="#123d5c">1.5.0</text>
<text xml:space="preserve" text-anchor="start" x="61.86" y="-245.7" font-family="Inter,Arial" font-weight="bold" font-size="10.00" fill="#123d5c">spinning_top</text>
<text xml:space="preserve" text-anchor="start" x="81.74" y="-235.7" font-family="Inter,Arial" font-size="10.00" fill="#123d5c">0.3.0</text>
</g>
<!-- in2&#45;&gt;n1 -->
<g id="edge11" class="edge">
<title>in2&#45;&gt;n1</title>
<path fill="none" stroke="#4b8fc5" stroke-width="0.9" stroke-dasharray="5,2" d="M101.6,-311.64C124.11,-429.07 188.76,-751.78 225.22,-783.2 281.37,-831.58 374.06,-825.61 427.37,-816.92"/>
<polygon fill="#4b8fc5" stroke="#4b8fc5" stroke-width="0.9" points="427.54,-818.84 432.64,-816.02 426.9,-815.04 427.54,-818.84"/>
</g>
<!-- in2&#45;&gt;n3 -->
<g id="edge12" class="edge">
<title>in2&#45;&gt;n3</title>
<path fill="none" stroke="#4b8fc5" stroke-width="0.9" stroke-dasharray="5,2" d="M148.4,-243.3C161.46,-235.48 174.65,-226.04 185.22,-215.2 210.77,-188.99 198.53,-168.26 225.22,-143.2 231.45,-137.35 238.95,-132.38 246.65,-128.24"/>
<polygon fill="#4b8fc5" stroke="#4b8fc5" stroke-width="0.9" points="247.32,-130.06 251.34,-125.85 245.57,-126.63 247.32,-130.06"/>
</g>
<!-- in2&#45;&gt;n6 -->
<g id="edge13" class="edge">
<title>in2&#45;&gt;n6</title>
<path fill="none" stroke="#4b8fc5" stroke-width="0.9" stroke-dasharray="5,2" d="M148.47,-262.58C175.28,-259.34 207.55,-255.45 234.73,-252.17"/>
<polygon fill="#4b8fc5" stroke="#4b8fc5" stroke-width="0.9" points="234.94,-254.08 240.17,-251.51 234.48,-250.26 234.94,-254.08"/>
</g>
<!-- in3 -->
<g id="node11" class="node">
<title>in3</title>
<polygon fill="#eef6ff" stroke="#4b8fc5" points="351.19,-770.4 229.72,-770.4 229.72,-706 357.19,-706 357.19,-764.4 351.19,-770.4"/>
<polyline fill="none" stroke="#4b8fc5" points="351.19,-770.4 351.19,-764.4"/>
<polyline fill="none" stroke="#4b8fc5" points="357.19,-764.4 351.19,-764.4"/>
<text xml:space="preserve" text-anchor="start" x="239.08" y="-754.7" font-family="Inter,Arial" font-size="10.00" fill="#123d5c">from crab&#45;usb&#45;v0.9.1.svg</text>
<text xml:space="preserve" text-anchor="start" x="276.2" y="-744.7" font-family="Inter,Arial" font-weight="bold" font-size="10.00" fill="#123d5c">bitflags</text>
<text xml:space="preserve" text-anchor="start" x="279.95" y="-734.7" font-family="Inter,Arial" font-size="10.00" fill="#123d5c">2.11.1</text>
<text xml:space="preserve" text-anchor="start" x="274.7" y="-724.7" font-family="Inter,Arial" font-weight="bold" font-size="10.00" fill="#123d5c">bit_field</text>
<text xml:space="preserve" text-anchor="start" x="279.95" y="-714.7" font-family="Inter,Arial" font-size="10.00" fill="#123d5c">0.10.3</text>
</g>
<!-- in3&#45;&gt;n1 -->
<g id="edge14" class="edge">
<title>in3&#45;&gt;n1</title>
<path fill="none" stroke="#4b8fc5" stroke-width="0.9" stroke-dasharray="5,2" d="M357.31,-763.47C380.79,-772.91 406.82,-783.38 427.79,-791.81"/>
<polygon fill="#4b8fc5" stroke="#4b8fc5" stroke-width="0.9" points="427.04,-793.59 432.86,-793.85 428.48,-790.01 427.04,-793.59"/>
</g>
<!-- in3&#45;&gt;n2 -->
<g id="edge15" class="edge">
<title>in3&#45;&gt;n2</title>
<path fill="none" stroke="#4b8fc5" stroke-width="0.9" stroke-dasharray="5,2" d="M348.98,-705.64C353.5,-702.04 357.81,-698.21 361.69,-694.2 405.84,-648.65 440.3,-581.72 457.17,-545.25"/>
<polygon fill="#4b8fc5" stroke="#4b8fc5" stroke-width="0.9" points="458.82,-546.27 459.35,-540.47 455.32,-544.67 458.82,-546.27"/>
</g>
<!-- in4 -->
<g id="node12" class="node">
<title>in4</title>
<polygon fill="#eef6ff" stroke="#4b8fc5" points="163.47,-202.4 15.75,-202.4 15.75,-158 169.47,-158 169.47,-196.4 163.47,-202.4"/>
<polyline fill="none" stroke="#4b8fc5" points="163.47,-202.4 163.47,-196.4"/>
<polyline fill="none" stroke="#4b8fc5" points="169.47,-196.4 163.47,-196.4"/>
<text xml:space="preserve" text-anchor="start" x="25.11" y="-186.7" font-family="Inter,Arial" font-size="10.00" fill="#123d5c">from embassy&#45;sync&#45;v0.8.0.svg</text>
<text xml:space="preserve" text-anchor="start" x="70.49" y="-176.7" font-family="Inter,Arial" font-weight="bold" font-size="10.00" fill="#123d5c">byteorder</text>
<text xml:space="preserve" text-anchor="start" x="81.74" y="-166.7" font-family="Inter,Arial" font-size="10.00" fill="#123d5c">1.5.0</text>
</g>
<!-- in4&#45;&gt;n3 -->
<g id="edge16" class="edge">
<title>in4&#45;&gt;n3</title>
<path fill="none" stroke="#4b8fc5" stroke-width="0.9" stroke-dasharray="5,2" d="M158.99,-157.51C187.48,-147.63 220.21,-136.27 246.13,-127.28"/>
<polygon fill="#4b8fc5" stroke="#4b8fc5" stroke-width="0.9" points="246.71,-129.11 251.28,-125.49 245.45,-125.47 246.71,-129.11"/>
</g>
<!-- in5 -->
<g id="node13" class="node">
<title>in5</title>
<polygon fill="#eef6ff" stroke="#4b8fc5" points="179.22,-133.4 0,-133.4 0,-89 185.22,-89 185.22,-127.4 179.22,-133.4"/>
<polyline fill="none" stroke="#4b8fc5" points="179.22,-133.4 179.22,-127.4"/>
<polyline fill="none" stroke="#4b8fc5" points="185.22,-127.4 179.22,-127.4"/>
<text xml:space="preserve" text-anchor="start" x="9.36" y="-117.7" font-family="Inter,Arial" font-size="10.00" fill="#123d5c">from embedded&#45;websocket&#45;v0.9.4.svg</text>
<text xml:space="preserve" text-anchor="start" x="70.49" y="-107.7" font-family="Inter,Arial" font-weight="bold" font-size="10.00" fill="#123d5c">byteorder</text>
<text xml:space="preserve" text-anchor="start" x="81.74" y="-97.7" font-family="Inter,Arial" font-size="10.00" fill="#123d5c">1.5.0</text>
</g>
<!-- in5&#45;&gt;n3 -->
<g id="edge17" class="edge">
<title>in5&#45;&gt;n3</title>
<path fill="none" stroke="#4b8fc5" stroke-width="0.9" stroke-dasharray="5,2" d="M185.47,-111.2C206.49,-111.2 227.97,-111.2 246.12,-111.2"/>
<polygon fill="#4b8fc5" stroke="#4b8fc5" stroke-width="0.9" points="245.78,-113.13 251.28,-111.2 245.78,-109.28 245.78,-113.13"/>
</g>
<!-- in6 -->
<g id="node14" class="node">
<title>in6</title>
<polygon fill="#eef6ff" stroke="#4b8fc5" points="351.19,-472.4 229.72,-472.4 229.72,-428 357.19,-428 357.19,-466.4 351.19,-472.4"/>
<polyline fill="none" stroke="#4b8fc5" points="351.19,-472.4 351.19,-466.4"/>
<polyline fill="none" stroke="#4b8fc5" points="357.19,-466.4 351.19,-466.4"/>
<text xml:space="preserve" text-anchor="start" x="239.08" y="-456.7" font-family="Inter,Arial" font-size="10.00" fill="#123d5c">from parry2d&#45;v0.26.0.svg</text>
<text xml:space="preserve" text-anchor="start" x="276.2" y="-446.7" font-family="Inter,Arial" font-weight="bold" font-size="10.00" fill="#123d5c">bitflags</text>
<text xml:space="preserve" text-anchor="start" x="279.95" y="-436.7" font-family="Inter,Arial" font-size="10.00" fill="#123d5c">2.11.1</text>
</g>
<!-- in6&#45;&gt;n2 -->
<g id="edge18" class="edge">
<title>in6&#45;&gt;n2</title>
<path fill="none" stroke="#4b8fc5" stroke-width="0.9" stroke-dasharray="5,2" d="M351.46,-472.79C377.02,-482.92 406.52,-494.62 429.52,-503.73"/>
<polygon fill="#4b8fc5" stroke="#4b8fc5" stroke-width="0.9" points="428.73,-505.49 434.56,-505.73 430.15,-501.91 428.73,-505.49"/>
</g>
<!-- in7 -->
<g id="node15" class="node">
<title>in7</title>
<polygon fill="#eef6ff" stroke="#4b8fc5" points="342.94,-403.4 237.97,-403.4 237.97,-359 348.94,-359 348.94,-397.4 342.94,-403.4"/>
<polyline fill="none" stroke="#4b8fc5" points="342.94,-403.4 342.94,-397.4"/>
<polyline fill="none" stroke="#4b8fc5" points="348.94,-397.4 342.94,-397.4"/>
<text xml:space="preserve" text-anchor="start" x="247.33" y="-387.7" font-family="Inter,Arial" font-size="10.00" fill="#123d5c">from png&#45;v0.18.1.svg</text>
<text xml:space="preserve" text-anchor="start" x="276.2" y="-377.7" font-family="Inter,Arial" font-weight="bold" font-size="10.00" fill="#123d5c">bitflags</text>
<text xml:space="preserve" text-anchor="start" x="279.95" y="-367.7" font-family="Inter,Arial" font-size="10.00" fill="#123d5c">2.11.1</text>
</g>
<!-- in7&#45;&gt;n2 -->
<g id="edge19" class="edge">
<title>in7&#45;&gt;n2</title>
<path fill="none" stroke="#4b8fc5" stroke-width="0.9" stroke-dasharray="5,2" d="M343.59,-403.83C349.86,-407.35 356.05,-411.17 361.69,-415.2 394.4,-438.55 426.74,-471.83 447.13,-494.41"/>
<polygon fill="#4b8fc5" stroke="#4b8fc5" stroke-width="0.9" points="445.53,-495.51 450.63,-498.32 448.4,-492.94 445.53,-495.51"/>
</g>
<!-- in8 -->
<g id="node16" class="node">
<title>in8</title>
<polygon fill="#eef6ff" stroke="#4b8fc5" points="355.69,-334.4 225.22,-334.4 225.22,-290 361.69,-290 361.69,-328.4 355.69,-334.4"/>
<polyline fill="none" stroke="#4b8fc5" points="355.69,-334.4 355.69,-328.4"/>
<polyline fill="none" stroke="#4b8fc5" points="361.69,-328.4 355.69,-328.4"/>
<text xml:space="preserve" text-anchor="start" x="234.58" y="-318.7" font-family="Inter,Arial" font-size="10.00" fill="#123d5c">from raw&#45;cpuid&#45;v11.6.0.svg</text>
<text xml:space="preserve" text-anchor="start" x="276.2" y="-308.7" font-family="Inter,Arial" font-weight="bold" font-size="10.00" fill="#123d5c">bitflags</text>
<text xml:space="preserve" text-anchor="start" x="279.95" y="-298.7" font-family="Inter,Arial" font-size="10.00" fill="#123d5c">2.11.1</text>
</g>
<!-- in8&#45;&gt;n2 -->
<g id="edge20" class="edge">
<title>in8&#45;&gt;n2</title>
<path fill="none" stroke="#4b8fc5" stroke-width="0.9" stroke-dasharray="5,2" d="M346.67,-334.87C352.03,-338.26 357.16,-342.04 361.69,-346.2 408.15,-388.86 441.81,-456.24 457.9,-493.05"/>
<polygon fill="#4b8fc5" stroke="#4b8fc5" stroke-width="0.9" points="456.04,-493.59 459.98,-497.88 459.57,-492.06 456.04,-493.59"/>
</g>
<!-- in9 -->
<g id="node17" class="node">
<title>in9</title>
<polygon fill="#eef6ff" stroke="#4b8fc5" points="151.47,-64.4 27.75,-64.4 27.75,0 157.47,0 157.47,-58.4 151.47,-64.4"/>
<polyline fill="none" stroke="#4b8fc5" points="151.47,-64.4 151.47,-58.4"/>
<polyline fill="none" stroke="#4b8fc5" points="157.47,-58.4 151.47,-58.4"/>
<text xml:space="preserve" text-anchor="start" x="37.11" y="-48.7" font-family="Inter,Arial" font-size="10.00" fill="#123d5c">from smoltcp&#45;v0.13.1.svg</text>
<text xml:space="preserve" text-anchor="start" x="75.36" y="-38.7" font-family="Inter,Arial" font-weight="bold" font-size="10.00" fill="#123d5c">bitflags</text>
<text xml:space="preserve" text-anchor="start" x="79.11" y="-28.7" font-family="Inter,Arial" font-size="10.00" fill="#123d5c">2.11.1</text>
<text xml:space="preserve" text-anchor="start" x="70.49" y="-18.7" font-family="Inter,Arial" font-weight="bold" font-size="10.00" fill="#123d5c">byteorder</text>
<text xml:space="preserve" text-anchor="start" x="81.74" y="-8.7" font-family="Inter,Arial" font-size="10.00" fill="#123d5c">1.5.0</text>
</g>
<!-- in9&#45;&gt;n2 -->
<g id="edge21" class="edge">
<title>in9&#45;&gt;n2</title>
<path fill="none" stroke="#4b8fc5" stroke-width="0.9" stroke-dasharray="5,2" d="M157.78,-24.79C218.45,-21.59 307.98,-27.34 361.69,-79.2 423.46,-138.84 381.74,-184.69 401.69,-268.2 421.36,-350.56 448.14,-447.13 461.02,-492.76"/>
<polygon fill="#4b8fc5" stroke="#4b8fc5" stroke-width="0.9" points="459.1,-493.04 462.45,-497.81 462.81,-491.99 459.1,-493.04"/>
</g>
<!-- in9&#45;&gt;n3 -->
<g id="edge22" class="edge">
<title>in9&#45;&gt;n3</title>
<path fill="none" stroke="#4b8fc5" stroke-width="0.9" stroke-dasharray="5,2" d="M157.89,-57.74C186.78,-69.22 220.21,-82.5 246.52,-92.95"/>
<polygon fill="#4b8fc5" stroke="#4b8fc5" stroke-width="0.9" points="245.62,-94.66 251.44,-94.91 247.04,-91.09 245.62,-94.66"/>
</g>
<!-- in10 -->
<g id="node18" class="node">
<title>in10</title>
<polygon fill="#eef6ff" stroke="#4b8fc5" points="344.06,-200.4 236.84,-200.4 236.84,-156 350.06,-156 350.06,-194.4 344.06,-200.4"/>
<polyline fill="none" stroke="#4b8fc5" points="344.06,-200.4 344.06,-194.4"/>
<polyline fill="none" stroke="#4b8fc5" points="350.06,-194.4 344.06,-194.4"/>
<text xml:space="preserve" text-anchor="start" x="246.2" y="-184.7" font-family="Inter,Arial" font-size="10.00" fill="#123d5c">from spin&#45;v0.10.0.svg</text>
<text xml:space="preserve" text-anchor="start" x="273.95" y="-174.7" font-family="Inter,Arial" font-weight="bold" font-size="10.00" fill="#123d5c">lock_api</text>
<text xml:space="preserve" text-anchor="start" x="279.95" y="-164.7" font-family="Inter,Arial" font-size="10.00" fill="#123d5c">0.4.14</text>
</g>
<!-- in10&#45;&gt;n4 -->
<g id="edge23" class="edge">
<title>in10&#45;&gt;n4</title>
<path fill="none" stroke="#4b8fc5" stroke-width="0.9" stroke-dasharray="5,2" d="M350.5,-189.14C364.68,-191.91 380.11,-194.93 395.01,-197.84"/>
<polygon fill="#4b8fc5" stroke="#4b8fc5" stroke-width="0.9" points="394.26,-199.65 400.02,-198.82 394.99,-195.87 394.26,-199.65"/>
</g>
<!-- in11 -->
<g id="node19" class="node">
<title>in11</title>
<polygon fill="#eef6ff" stroke="#4b8fc5" points="350.81,-681.4 230.09,-681.4 230.09,-617 356.81,-617 356.81,-675.4 350.81,-681.4"/>
<polyline fill="none" stroke="#4b8fc5" points="350.81,-681.4 350.81,-675.4"/>
<polyline fill="none" stroke="#4b8fc5" points="356.81,-675.4 350.81,-675.4"/>
<text xml:space="preserve" text-anchor="start" x="239.45" y="-665.7" font-family="Inter,Arial" font-size="10.00" fill="#123d5c">from x86_64&#45;v0.15.4.svg</text>
<text xml:space="preserve" text-anchor="start" x="274.7" y="-655.7" font-family="Inter,Arial" font-weight="bold" font-size="10.00" fill="#123d5c">bit_field</text>
<text xml:space="preserve" text-anchor="start" x="279.95" y="-645.7" font-family="Inter,Arial" font-size="10.00" fill="#123d5c">0.10.3</text>
<text xml:space="preserve" text-anchor="start" x="276.2" y="-635.7" font-family="Inter,Arial" font-weight="bold" font-size="10.00" fill="#123d5c">bitflags</text>
<text xml:space="preserve" text-anchor="start" x="279.95" y="-625.7" font-family="Inter,Arial" font-size="10.00" fill="#123d5c">2.11.1</text>
</g>
<!-- in11&#45;&gt;n1 -->
<g id="edge24" class="edge">
<title>in11&#45;&gt;n1</title>
<path fill="none" stroke="#4b8fc5" stroke-width="0.9" stroke-dasharray="5,2" d="M347.11,-681.86C352.16,-685.52 357.11,-689.33 361.69,-693.2 394.75,-721.09 427.89,-758.6 448.31,-783.08"/>
<polygon fill="#4b8fc5" stroke="#4b8fc5" stroke-width="0.9" points="446.6,-784.04 451.59,-787.05 449.57,-781.59 446.6,-784.04"/>
</g>
<!-- in11&#45;&gt;n2 -->
<g id="edge25" class="edge">
<title>in11&#45;&gt;n2</title>
<path fill="none" stroke="#4b8fc5" stroke-width="0.9" stroke-dasharray="5,2" d="M337.94,-616.73C368.43,-593.96 408.55,-564.01 436.23,-543.33"/>
<polygon fill="#4b8fc5" stroke="#4b8fc5" stroke-width="0.9" points="437.25,-544.98 440.5,-540.14 434.94,-541.89 437.25,-544.98"/>
</g>
</g>
</svg>
