<?xml version="1.0" encoding="UTF-8" standalone="no"?>
<!DOCTYPE svg PUBLIC "-//W3C//DTD SVG 1.1//EN"
 "http://www.w3.org/Graphics/SVG/1.1/DTD/svg11.dtd">
<!-- Generated by graphviz version 14.1.2 (0)
 -->
<!-- Title: aes&#45;v0.8.4 Pages: 1 -->
<svg width="1274pt" height="1532pt"
 viewBox="0.00 0.00 1274.00 1532.00" xmlns="http://www.w3.org/2000/svg" xmlns:xlink="http://www.w3.org/1999/xlink">
<g id="graph0" class="graph" transform="scale(1 1) rotate(0) translate(4 1528.46)">
<title>aes&#45;v0.8.4</title>
<polygon fill="white" stroke="none" points="-4,4 -4,-1528.46 1269.79,-1528.46 1269.79,4 -4,4"/>
<!-- n0 -->
<g id="node1" class="node">
<title>n0</title>
<path fill="#dff3ff" stroke="#1b78a6" d="M480.05,-770.9C480.05,-770.9 450.05,-770.9 450.05,-770.9 444.05,-770.9 438.05,-764.9 438.05,-758.9 438.05,-758.9 438.05,-743.5 438.05,-743.5 438.05,-737.5 444.05,-731.5 450.05,-731.5 450.05,-731.5 480.05,-731.5 480.05,-731.5 486.05,-731.5 492.05,-737.5 492.05,-743.5 492.05,-743.5 492.05,-758.9 492.05,-758.9 492.05,-764.9 486.05,-770.9 480.05,-770.9"/>
<text xml:space="preserve" text-anchor="start" x="453.8" y="-752.35" font-family="Inter,Arial" font-weight="bold" font-size="13.00" fill="#172033">aes</text>
<text xml:space="preserve" text-anchor="start" x="451.92" y="-740.3" font-family="Inter,Arial" font-size="12.00" fill="#172033">0.8.4</text>
</g>
<!-- n1 -->
<g id="node2" class="node">
<title>n1</title>
<path fill="#f7f9fb" stroke="#8b9bb0" d="M689.52,-1169.9C689.52,-1169.9 659.52,-1169.9 659.52,-1169.9 653.52,-1169.9 647.52,-1163.9 647.52,-1157.9 647.52,-1157.9 647.52,-1142.5 647.52,-1142.5 647.52,-1136.5 653.52,-1130.5 659.52,-1130.5 659.52,-1130.5 689.52,-1130.5 689.52,-1130.5 695.52,-1130.5 701.52,-1136.5 701.52,-1142.5 701.52,-1142.5 701.52,-1157.9 701.52,-1157.9 701.52,-1163.9 695.52,-1169.9 689.52,-1169.9"/>
<text xml:space="preserve" text-anchor="start" x="658.02" y="-1151.35" font-family="Inter,Arial" font-weight="bold" font-size="13.00" fill="#172033">cfg&#45;if</text>
<text xml:space="preserve" text-anchor="start" x="661.39" y="-1139.3" font-family="Inter,Arial" font-size="12.00" fill="#172033">1.0.4</text>
</g>
<!-- n0&#45;&gt;n1 -->
<g id="edge1" class="edge">
<title>n0&#45;&gt;n1</title>
<path fill="none" stroke="#9aa8b8" stroke-width="0.9" d="M488.23,-771.35C504.68,-787.2 526.8,-810.5 541.91,-834.2 605,-933.16 649.07,-1067.47 665.92,-1123.72"/>
<polygon fill="#9aa8b8" stroke="#9aa8b8" stroke-width="0.9" points="664.04,-1124.15 667.45,-1128.88 667.73,-1123.06 664.04,-1124.15"/>
</g>
<!-- n2 -->
<g id="node3" class="node">
<title>n2</title>
<path fill="#f7f9fb" stroke="#8b9bb0" d="M692.13,-758.9C692.13,-758.9 656.91,-758.9 656.91,-758.9 650.91,-758.9 644.91,-752.9 644.91,-746.9 644.91,-746.9 644.91,-731.5 644.91,-731.5 644.91,-725.5 650.91,-719.5 656.91,-719.5 656.91,-719.5 692.13,-719.5 692.13,-719.5 698.13,-719.5 704.13,-725.5 704.13,-731.5 704.13,-731.5 704.13,-746.9 704.13,-746.9 704.13,-752.9 698.13,-758.9 692.13,-758.9"/>
<text xml:space="preserve" text-anchor="start" x="654.27" y="-740.35" font-family="Inter,Arial" font-weight="bold" font-size="13.00" fill="#172033">cipher</text>
<text xml:space="preserve" text-anchor="start" x="661.39" y="-728.3" font-family="Inter,Arial" font-size="12.00" fill="#172033">0.4.4</text>
</g>
<!-- n0&#45;&gt;n2 -->
<g id="edge2" class="edge">
<title>n0&#45;&gt;n2</title>
<path fill="none" stroke="#9aa8b8" stroke-width="0.9" d="M492.33,-749.68C529.2,-747.55 596.41,-743.66 637.8,-741.27"/>
<polygon fill="#9aa8b8" stroke="#9aa8b8" stroke-width="0.9" points="637.72,-743.2 643.1,-740.96 637.5,-739.36 637.72,-743.2"/>
</g>
<!-- n3 -->
<g id="node4" class="node">
<title>n3</title>
<path fill="#f7f9fb" stroke="#8b9bb0" d="M710.13,-834.9C710.13,-834.9 638.91,-834.9 638.91,-834.9 632.91,-834.9 626.91,-828.9 626.91,-822.9 626.91,-822.9 626.91,-807.5 626.91,-807.5 626.91,-801.5 632.91,-795.5 638.91,-795.5 638.91,-795.5 710.13,-795.5 710.13,-795.5 716.13,-795.5 722.13,-801.5 722.13,-807.5 722.13,-807.5 722.13,-822.9 722.13,-822.9 722.13,-828.9 716.13,-834.9 710.13,-834.9"/>
<text xml:space="preserve" text-anchor="start" x="636.27" y="-816.35" font-family="Inter,Arial" font-weight="bold" font-size="13.00" fill="#172033">cpufeatures</text>
<text xml:space="preserve" text-anchor="start" x="658.02" y="-804.3" font-family="Inter,Arial" font-size="12.00" fill="#172033">0.2.17</text>
</g>
<!-- n0&#45;&gt;n3 -->
<g id="edge3" class="edge">
<title>n0&#45;&gt;n3</title>
<path fill="none" stroke="#9aa8b8" stroke-width="0.9" d="M492.33,-759.31C524.31,-769.17 579.11,-786.08 620.09,-798.72"/>
<polygon fill="#9aa8b8" stroke="#9aa8b8" stroke-width="0.9" points="619.42,-800.53 625.24,-800.31 620.56,-796.85 619.42,-800.53"/>
</g>
<!-- n4 -->
<g id="node5" class="node">
<title>n4</title>
<path fill="#f7f9fb" stroke="#8b9bb0" d="M914.35,-701.9C914.35,-701.9 819.13,-701.9 819.13,-701.9 813.13,-701.9 807.13,-695.9 807.13,-689.9 807.13,-689.9 807.13,-674.5 807.13,-674.5 807.13,-668.5 813.13,-662.5 819.13,-662.5 819.13,-662.5 914.35,-662.5 914.35,-662.5 920.35,-662.5 926.35,-668.5 926.35,-674.5 926.35,-674.5 926.35,-689.9 926.35,-689.9 926.35,-695.9 920.35,-701.9 914.35,-701.9"/>
<text xml:space="preserve" text-anchor="start" x="816.49" y="-683.35" font-family="Inter,Arial" font-weight="bold" font-size="13.00" fill="#172033">crypto&#45;common</text>
<text xml:space="preserve" text-anchor="start" x="853.62" y="-671.3" font-family="Inter,Arial" font-size="12.00" fill="#172033">0.1.7</text>
</g>
<!-- n2&#45;&gt;n4 -->
<g id="edge4" class="edge">
<title>n2&#45;&gt;n4</title>
<path fill="none" stroke="#9aa8b8" stroke-width="0.9" d="M704.41,-730.54C729.84,-722.92 767.81,-711.54 800.53,-701.74"/>
<polygon fill="#9aa8b8" stroke="#9aa8b8" stroke-width="0.9" points="800.98,-703.62 805.69,-700.19 799.87,-699.93 800.98,-703.62"/>
</g>
<!-- n6 -->
<g id="node7" class="node">
<title>n6</title>
<path fill="#f7f9fb" stroke="#8b9bb0" d="M881.74,-765.9C881.74,-765.9 851.74,-765.9 851.74,-765.9 845.74,-765.9 839.74,-759.9 839.74,-753.9 839.74,-753.9 839.74,-738.5 839.74,-738.5 839.74,-732.5 845.74,-726.5 851.74,-726.5 851.74,-726.5 881.74,-726.5 881.74,-726.5 887.74,-726.5 893.74,-732.5 893.74,-738.5 893.74,-738.5 893.74,-753.9 893.74,-753.9 893.74,-759.9 887.74,-765.9 881.74,-765.9"/>
<text xml:space="preserve" text-anchor="start" x="850.24" y="-747.35" font-family="Inter,Arial" font-weight="bold" font-size="13.00" fill="#172033">inout</text>
<text xml:space="preserve" text-anchor="start" x="853.62" y="-735.3" font-family="Inter,Arial" font-size="12.00" fill="#172033">0.1.4</text>
</g>
<!-- n2&#45;&gt;n6 -->
<g id="edge5" class="edge">
<title>n2&#45;&gt;n6</title>
<path fill="none" stroke="#9aa8b8" stroke-width="0.9" d="M704.41,-740.26C738.95,-741.53 796.62,-743.66 832.84,-744.99"/>
<polygon fill="#9aa8b8" stroke="#9aa8b8" stroke-width="0.9" points="832.41,-746.9 837.98,-745.18 832.56,-743.05 832.41,-746.9"/>
</g>
<!-- out0 -->
<g id="node12" class="node">
<title>out0</title>
<polygon fill="#fff8e8" stroke="#d19922" points="1259.79,-765.4 1155.57,-765.4 1155.57,-721 1265.79,-721 1265.79,-759.4 1259.79,-765.4"/>
<polyline fill="none" stroke="#d19922" points="1259.79,-765.4 1259.79,-759.4"/>
<polyline fill="none" stroke="#d19922" points="1265.79,-759.4 1259.79,-759.4"/>
<text xml:space="preserve" text-anchor="start" x="1164.93" y="-749.7" font-family="Inter,Arial" font-size="10.00" fill="#614000">to zeroize&#45;v1.9.0.svg</text>
<text xml:space="preserve" text-anchor="start" x="1193.81" y="-739.7" font-family="Inter,Arial" font-weight="bold" font-size="10.00" fill="#614000">zeroize</text>
<text xml:space="preserve" text-anchor="start" x="1199.81" y="-729.7" font-family="Inter,Arial" font-size="10.00" fill="#614000">1.9.0</text>
</g>
<!-- n2&#45;&gt;out0 -->
<g id="edge14" class="edge">
<title>n2&#45;&gt;out0</title>
<path fill="none" stroke="#d19922" stroke-width="0.9" stroke-dasharray="5,2" d="M704.51,-750.42C730.82,-759.97 770.93,-772.95 807.13,-778.2 927.5,-795.66 1069.46,-773.42 1148.56,-757.24"/>
<polygon fill="#d19922" stroke="#d19922" stroke-width="0.9" points="1148.75,-759.17 1153.75,-756.17 1147.97,-755.4 1148.75,-759.17"/>
</g>
<!-- n5 -->
<g id="node6" class="node">
<title>n5</title>
<path fill="#f7f9fb" stroke="#8b9bb0" d="M1103.57,-725.78C1103.57,-725.78 978.35,-725.78 978.35,-725.78 972.35,-725.78 966.35,-719.78 966.35,-713.78 966.35,-713.78 966.35,-650.62 966.35,-650.62 966.35,-644.62 972.35,-638.62 978.35,-638.62 978.35,-638.62 1103.57,-638.62 1103.57,-638.62 1109.57,-638.62 1115.57,-644.62 1115.57,-650.62 1115.57,-650.62 1115.57,-713.78 1115.57,-713.78 1115.57,-719.78 1109.57,-725.78 1103.57,-725.78"/>
<text xml:space="preserve" text-anchor="start" x="998.21" y="-707.23" font-family="Inter,Arial" font-weight="bold" font-size="13.00" fill="#172033">generic&#45;array</text>
<text xml:space="preserve" text-anchor="start" x="1024.46" y="-692.18" font-family="Inter,Arial" font-size="12.00" fill="#172033">0.14.7</text>
<text xml:space="preserve" text-anchor="start" x="990.71" y="-664.88" font-family="Inter,Arial" font-weight="bold" font-size="11.00" fill="#172033">version_check</text>
<text xml:space="preserve" text-anchor="start" x="1066.46" y="-664.88" font-family="Inter,Arial" font-size="10.00" fill="#172033"> </text>
<text xml:space="preserve" text-anchor="start" x="1069.46" y="-664.88" font-family="Inter,Arial" font-size="10.00" fill="#172033">0.9.5</text>
<path fill="none" stroke="#9aa8b8" d="M992.21,-651.83C992.21,-651.83 1089.71,-651.83 1089.71,-651.83 1094.96,-651.83 1100.21,-657.08 1100.21,-662.33 1100.21,-662.33 1100.21,-672.83 1100.21,-672.83 1100.21,-678.08 1094.96,-683.33 1089.71,-683.33 1089.71,-683.33 992.21,-683.33 992.21,-683.33 986.96,-683.33 981.71,-678.08 981.71,-672.83 981.71,-672.83 981.71,-662.33 981.71,-662.33 981.71,-657.08 986.96,-651.83 992.21,-651.83"/>
</g>
<!-- n4&#45;&gt;n5 -->
<g id="edge6" class="edge">
<title>n4&#45;&gt;n5</title>
<path fill="none" stroke="#9aa8b8" stroke-width="0.9" d="M926.53,-682.2C937.02,-682.2 948.11,-682.2 959.09,-682.2"/>
<polygon fill="#9aa8b8" stroke="#9aa8b8" stroke-width="0.9" points="959.04,-684.13 964.54,-682.2 959.04,-680.28 959.04,-684.13"/>
</g>
<!-- n5&#45;&gt;out0 -->
<g id="edge15" class="edge">
<title>n5&#45;&gt;out0</title>
<path fill="none" stroke="#d19922" stroke-width="0.9" stroke-dasharray="5,2" d="M1116.01,-709.13C1127.02,-713.14 1138.25,-717.22 1148.94,-721.11"/>
<polygon fill="#d19922" stroke="#d19922" stroke-width="0.9" points="1148.05,-722.83 1153.88,-722.91 1149.37,-719.22 1148.05,-722.83"/>
</g>
<!-- n6&#45;&gt;n5 -->
<g id="edge7" class="edge">
<title>n6&#45;&gt;n5</title>
<path fill="none" stroke="#9aa8b8" stroke-width="0.9" d="M893.9,-736.48C911.6,-729.9 936.03,-720.82 959.84,-711.98"/>
<polygon fill="#9aa8b8" stroke="#9aa8b8" stroke-width="0.9" points="960.44,-713.81 964.92,-710.09 959.1,-710.2 960.44,-713.81"/>
</g>
<!-- n7 -->
<g id="node8" class="node">
<title>n7</title>
<path fill="#f7f9fb" stroke="#8b9bb0" d="M904.6,-308.9C904.6,-308.9 828.88,-308.9 828.88,-308.9 822.88,-308.9 816.88,-302.9 816.88,-296.9 816.88,-296.9 816.88,-281.5 816.88,-281.5 816.88,-275.5 822.88,-269.5 828.88,-269.5 828.88,-269.5 904.6,-269.5 904.6,-269.5 910.6,-269.5 916.6,-275.5 916.6,-281.5 916.6,-281.5 916.6,-296.9 916.6,-296.9 916.6,-302.9 910.6,-308.9 904.6,-308.9"/>
<text xml:space="preserve" text-anchor="start" x="826.24" y="-290.35" font-family="Inter,Arial" font-weight="bold" font-size="13.00" fill="#172033">proc&#45;macro2</text>
<text xml:space="preserve" text-anchor="start" x="846.87" y="-278.3" font-family="Inter,Arial" font-size="12.00" fill="#172033">1.0.106</text>
</g>
<!-- n8 -->
<g id="node9" class="node">
<title>n8</title>
<path fill="#f7f9fb" stroke="#8b9bb0" d="M690.25,-250.9C690.25,-250.9 658.78,-250.9 658.78,-250.9 652.78,-250.9 646.78,-244.9 646.78,-238.9 646.78,-238.9 646.78,-223.5 646.78,-223.5 646.78,-217.5 652.78,-211.5 658.78,-211.5 658.78,-211.5 690.25,-211.5 690.25,-211.5 696.25,-211.5 702.25,-217.5 702.25,-223.5 702.25,-223.5 702.25,-238.9 702.25,-238.9 702.25,-244.9 696.25,-250.9 690.25,-250.9"/>
<text xml:space="preserve" text-anchor="start" x="656.14" y="-232.35" font-family="Inter,Arial" font-weight="bold" font-size="13.00" fill="#172033">quote</text>
<text xml:space="preserve" text-anchor="start" x="658.02" y="-220.3" font-family="Inter,Arial" font-size="12.00" fill="#172033">1.0.46</text>
</g>
<!-- n8&#45;&gt;n7 -->
<g id="edge8" class="edge">
<title>n8&#45;&gt;n7</title>
<path fill="none" stroke="#9aa8b8" stroke-width="0.9" d="M702.37,-239.39C730.23,-247.88 774.61,-261.41 810.09,-272.23"/>
<polygon fill="#9aa8b8" stroke="#9aa8b8" stroke-width="0.9" points="809.48,-274.06 815.3,-273.82 810.6,-270.38 809.48,-274.06"/>
</g>
<!-- n9 -->
<g id="node10" class="node">
<title>n9</title>
<path fill="#f7f9fb" stroke="#8b9bb0" d="M481.53,-279.9C481.53,-279.9 448.56,-279.9 448.56,-279.9 442.56,-279.9 436.56,-273.9 436.56,-267.9 436.56,-267.9 436.56,-252.5 436.56,-252.5 436.56,-246.5 442.56,-240.5 448.56,-240.5 448.56,-240.5 481.53,-240.5 481.53,-240.5 487.53,-240.5 493.53,-246.5 493.53,-252.5 493.53,-252.5 493.53,-267.9 493.53,-267.9 493.53,-273.9 487.53,-279.9 481.53,-279.9"/>
<text xml:space="preserve" text-anchor="start" x="453.42" y="-261.35" font-family="Inter,Arial" font-weight="bold" font-size="13.00" fill="#172033">syn</text>
<text xml:space="preserve" text-anchor="start" x="445.92" y="-249.3" font-family="Inter,Arial" font-size="12.00" fill="#172033">2.0.118</text>
</g>
<!-- n9&#45;&gt;n7 -->
<g id="edge9" class="edge">
<title>n9&#45;&gt;n7</title>
<path fill="none" stroke="#9aa8b8" stroke-width="0.9" d="M493.84,-262.22C559.06,-266.95 722.97,-278.84 809.78,-285.14"/>
<polygon fill="#9aa8b8" stroke="#9aa8b8" stroke-width="0.9" points="809.42,-287.04 815.04,-285.52 809.7,-283.2 809.42,-287.04"/>
</g>
<!-- n9&#45;&gt;n8 -->
<g id="edge10" class="edge">
<title>n9&#45;&gt;n8</title>
<path fill="none" stroke="#9aa8b8" stroke-width="0.9" d="M494.03,-256.29C531.78,-251.01 598.94,-241.62 639.54,-235.95"/>
<polygon fill="#9aa8b8" stroke="#9aa8b8" stroke-width="0.9" points="639.78,-237.86 644.96,-235.19 639.25,-234.05 639.78,-237.86"/>
</g>
<!-- n10 -->
<g id="node11" class="node">
<title>n10</title>
<path fill="#f7f9fb" stroke="#8b9bb0" d="M298.69,-377.4C298.69,-377.4 210.97,-377.4 210.97,-377.4 204.97,-377.4 198.97,-371.4 198.97,-365.4 198.97,-365.4 198.97,-339 198.97,-339 198.97,-333 204.97,-327 210.97,-327 210.97,-327 298.69,-327 298.69,-327 304.69,-327 310.69,-333 310.69,-339 310.69,-339 310.69,-365.4 310.69,-365.4 310.69,-371.4 304.69,-377.4 298.69,-377.4"/>
<text xml:space="preserve" text-anchor="start" x="208.33" y="-358.85" font-family="Inter,Arial" font-weight="bold" font-size="13.00" fill="#172033">zeroize_derive</text>
<text xml:space="preserve" text-anchor="start" x="241.7" y="-346.8" font-family="Inter,Arial" font-size="12.00" fill="#172033">1.5.0</text>
<text xml:space="preserve" text-anchor="start" x="227.45" y="-335.75" font-family="Inter,Arial" font-size="11.00" fill="#172033">proc&#45;macro</text>
</g>
<!-- n10&#45;&gt;n7 -->
<g id="edge11" class="edge">
<title>n10&#45;&gt;n7</title>
<path fill="none" stroke="#9aa8b8" stroke-width="0.9" d="M310.82,-352.79C405.03,-352.87 603.04,-349.04 767.13,-319.2 781.33,-316.62 796.37,-312.69 810.31,-308.51"/>
<polygon fill="#9aa8b8" stroke="#9aa8b8" stroke-width="0.9" points="810.63,-310.42 815.33,-306.98 809.5,-306.74 810.63,-310.42"/>
</g>
<!-- n10&#45;&gt;n8 -->
<g id="edge12" class="edge">
<title>n10&#45;&gt;n8</title>
<path fill="none" stroke="#9aa8b8" stroke-width="0.9" d="M311.12,-344.43C369.47,-335.35 463.64,-318.17 541.91,-292.2 576.65,-280.67 614.37,-262.57 640.48,-249.08"/>
<polygon fill="#9aa8b8" stroke="#9aa8b8" stroke-width="0.9" points="641.34,-250.8 645.32,-246.55 639.56,-247.39 641.34,-250.8"/>
</g>
<!-- n10&#45;&gt;n9 -->
<g id="edge13" class="edge">
<title>n10&#45;&gt;n9</title>
<path fill="none" stroke="#9aa8b8" stroke-width="0.9" d="M310.76,-330.85C323.13,-325.86 336.16,-320.46 348.19,-315.2 376.09,-303 407.26,-288.14 430.23,-276.94"/>
<polygon fill="#9aa8b8" stroke="#9aa8b8" stroke-width="0.9" points="430.86,-278.77 434.96,-274.63 429.17,-275.31 430.86,-278.77"/>
</g>
<!-- in1 -->
<g id="node13" class="node">
<title>in1</title>
<polygon fill="#eef6ff" stroke="#4b8fc5" points="515.28,-1396.4 408.81,-1396.4 408.81,-1352 521.28,-1352 521.28,-1390.4 515.28,-1396.4"/>
<polyline fill="none" stroke="#4b8fc5" points="515.28,-1396.4 515.28,-1390.4"/>
<polyline fill="none" stroke="#4b8fc5" points="521.28,-1390.4 515.28,-1390.4"/>
<text xml:space="preserve" text-anchor="start" x="418.17" y="-1380.7" font-family="Inter,Arial" font-size="10.00" fill="#123d5c">from alsa&#45;v0.11.0.svg</text>
<text xml:space="preserve" text-anchor="start" x="453.42" y="-1370.7" font-family="Inter,Arial" font-weight="bold" font-size="10.00" fill="#123d5c">cfg&#45;if</text>
<text xml:space="preserve" text-anchor="start" x="454.17" y="-1360.7" font-family="Inter,Arial" font-size="10.00" fill="#123d5c">1.0.4</text>
</g>
<!-- in1&#45;&gt;n1 -->
<g id="edge16" class="edge">
<title>in1&#45;&gt;n1</title>
<path fill="none" stroke="#4b8fc5" stroke-width="0.9" stroke-dasharray="5,2" d="M521.62,-1353.61C528.82,-1349.73 535.8,-1345.27 541.91,-1340.2 598.31,-1293.35 641.25,-1216.58 661.21,-1176.47"/>
<polygon fill="#4b8fc5" stroke="#4b8fc5" stroke-width="0.9" points="662.91,-1177.37 663.61,-1171.58 659.46,-1175.67 662.91,-1177.37"/>
</g>
<!-- in2 -->
<g id="node14" class="node">
<title>in2</title>
<polygon fill="#eef6ff" stroke="#4b8fc5" points="312.56,-84.4 191.09,-84.4 191.09,0 318.56,0 318.56,-78.4 312.56,-84.4"/>
<polyline fill="none" stroke="#4b8fc5" points="312.56,-84.4 312.56,-78.4"/>
<polyline fill="none" stroke="#4b8fc5" points="318.56,-78.4 312.56,-78.4"/>
<text xml:space="preserve" text-anchor="start" x="200.45" y="-68.7" font-family="Inter,Arial" font-size="10.00" fill="#123d5c">from crab&#45;usb&#45;v0.9.1.svg</text>
<text xml:space="preserve" text-anchor="start" x="225.58" y="-58.7" font-family="Inter,Arial" font-weight="bold" font-size="10.00" fill="#123d5c">proc&#45;macro2</text>
<text xml:space="preserve" text-anchor="start" x="238.7" y="-48.7" font-family="Inter,Arial" font-size="10.00" fill="#123d5c">1.0.106</text>
<text xml:space="preserve" text-anchor="start" x="241.7" y="-38.7" font-family="Inter,Arial" font-weight="bold" font-size="10.00" fill="#123d5c">quote</text>
<text xml:space="preserve" text-anchor="start" x="241.33" y="-28.7" font-family="Inter,Arial" font-size="10.00" fill="#123d5c">1.0.46</text>
<text xml:space="preserve" text-anchor="start" x="246.58" y="-18.7" font-family="Inter,Arial" font-weight="bold" font-size="10.00" fill="#123d5c">syn</text>
<text xml:space="preserve" text-anchor="start" x="238.7" y="-8.7" font-family="Inter,Arial" font-size="10.00" fill="#123d5c">2.0.118</text>
</g>
<!-- in2&#45;&gt;n7 -->
<g id="edge17" class="edge">
<title>in2&#45;&gt;n7</title>
<path fill="none" stroke="#4b8fc5" stroke-width="0.9" stroke-dasharray="5,2" d="M319.01,-39.81C421.7,-38.97 627.38,-50.24 767.13,-143.2 811.6,-172.78 841.29,-229.94 855.67,-263.29"/>
<polygon fill="#4b8fc5" stroke="#4b8fc5" stroke-width="0.9" points="853.73,-263.66 857.64,-267.98 857.28,-262.16 853.73,-263.66"/>
</g>
<!-- in2&#45;&gt;n8 -->
<g id="edge18" class="edge">
<title>in2&#45;&gt;n8</title>
<path fill="none" stroke="#4b8fc5" stroke-width="0.9" stroke-dasharray="5,2" d="M318.93,-70.56C376.92,-96.65 465.25,-136.44 541.91,-171.2 575.36,-186.37 613.55,-203.79 640.15,-215.94"/>
<polygon fill="#4b8fc5" stroke="#4b8fc5" stroke-width="0.9" points="639.27,-217.66 645.07,-218.19 640.87,-214.15 639.27,-217.66"/>
</g>
<!-- in2&#45;&gt;n9 -->
<g id="edge19" class="edge">
<title>in2&#45;&gt;n9</title>
<path fill="none" stroke="#4b8fc5" stroke-width="0.9" stroke-dasharray="5,2" d="M318.98,-74.2C329.28,-80.77 339.43,-88.16 348.19,-96.2 393.48,-137.75 431.34,-199.85 450.52,-234.49"/>
<polygon fill="#4b8fc5" stroke="#4b8fc5" stroke-width="0.9" points="448.67,-235.13 453.01,-239.03 452.05,-233.28 448.67,-235.13"/>
</g>
<!-- in3 -->
<g id="node15" class="node">
<title>in3</title>
<polygon fill="#eef6ff" stroke="#4b8fc5" points="524.28,-1327.4 399.81,-1327.4 399.81,-1283 530.28,-1283 530.28,-1321.4 524.28,-1327.4"/>
<polyline fill="none" stroke="#4b8fc5" points="524.28,-1327.4 524.28,-1321.4"/>
<polyline fill="none" stroke="#4b8fc5" points="530.28,-1321.4 524.28,-1321.4"/>
<text xml:space="preserve" text-anchor="start" x="409.17" y="-1311.7" font-family="Inter,Arial" font-size="10.00" fill="#123d5c">from crc32fast&#45;v1.5.0.svg</text>
<text xml:space="preserve" text-anchor="start" x="453.42" y="-1301.7" font-family="Inter,Arial" font-weight="bold" font-size="10.00" fill="#123d5c">cfg&#45;if</text>
<text xml:space="preserve" text-anchor="start" x="454.17" y="-1291.7" font-family="Inter,Arial" font-size="10.00" fill="#123d5c">1.0.4</text>
</g>
<!-- in3&#45;&gt;n1 -->
<g id="edge20" class="edge">
<title>in3&#45;&gt;n1</title>
<path fill="none" stroke="#4b8fc5" stroke-width="0.9" stroke-dasharray="5,2" d="M511.54,-1282.71C521.78,-1277.07 532.43,-1270.75 541.91,-1264.2 581.55,-1236.81 622.84,-1199.34 648.36,-1174.96"/>
<polygon fill="#4b8fc5" stroke="#4b8fc5" stroke-width="0.9" points="649.64,-1176.4 652.27,-1171.2 646.97,-1173.63 649.64,-1176.4"/>
</g>
<!-- in4 -->
<g id="node16" class="node">
<title>in4</title>
<polygon fill="#eef6ff" stroke="#4b8fc5" points="509.66,-655.4 414.44,-655.4 414.44,-611 515.66,-611 515.66,-649.4 509.66,-655.4"/>
<polyline fill="none" stroke="#4b8fc5" points="509.66,-655.4 509.66,-649.4"/>
<polyline fill="none" stroke="#4b8fc5" points="515.66,-649.4 509.66,-649.4"/>
<text xml:space="preserve" text-anchor="start" x="423.8" y="-639.7" font-family="Inter,Arial" font-size="10.00" fill="#123d5c">from ctr&#45;v0.9.2.svg</text>
<text xml:space="preserve" text-anchor="start" x="450.42" y="-629.7" font-family="Inter,Arial" font-weight="bold" font-size="10.00" fill="#123d5c">cipher</text>
<text xml:space="preserve" text-anchor="start" x="454.17" y="-619.7" font-family="Inter,Arial" font-size="10.00" fill="#123d5c">0.4.4</text>
</g>
<!-- in4&#45;&gt;n2 -->
<g id="edge21" class="edge">
<title>in4&#45;&gt;n2</title>
<path fill="none" stroke="#4b8fc5" stroke-width="0.9" stroke-dasharray="5,2" d="M509.79,-655.89C520.42,-661.66 531.67,-668 541.91,-674.2 560.26,-685.31 563.02,-691.04 581.91,-701.2 600.01,-710.93 621.14,-719.85 638.55,-726.6"/>
<polygon fill="#4b8fc5" stroke="#4b8fc5" stroke-width="0.9" points="637.68,-728.33 643.51,-728.49 639.06,-724.73 637.68,-728.33"/>
</g>
<!-- in5 -->
<g id="node17" class="node">
<title>in5</title>
<polygon fill="#eef6ff" stroke="#4b8fc5" points="521.28,-1207.4 402.81,-1207.4 402.81,-1163 527.28,-1163 527.28,-1201.4 521.28,-1207.4"/>
<polyline fill="none" stroke="#4b8fc5" points="521.28,-1207.4 521.28,-1201.4"/>
<polyline fill="none" stroke="#4b8fc5" points="527.28,-1201.4 521.28,-1201.4"/>
<text xml:space="preserve" text-anchor="start" x="412.17" y="-1191.7" font-family="Inter,Arial" font-size="10.00" fill="#123d5c">from dma&#45;api&#45;v0.7.3.svg</text>
<text xml:space="preserve" text-anchor="start" x="453.42" y="-1181.7" font-family="Inter,Arial" font-weight="bold" font-size="10.00" fill="#123d5c">cfg&#45;if</text>
<text xml:space="preserve" text-anchor="start" x="454.17" y="-1171.7" font-family="Inter,Arial" font-size="10.00" fill="#123d5c">1.0.4</text>
</g>
<!-- in5&#45;&gt;n1 -->
<g id="edge22" class="edge">
<title>in5&#45;&gt;n1</title>
<path fill="none" stroke="#4b8fc5" stroke-width="0.9" stroke-dasharray="5,2" d="M527.74,-1174.79C564.72,-1168.56 610.28,-1160.87 640.52,-1155.77"/>
<polygon fill="#4b8fc5" stroke="#4b8fc5" stroke-width="0.9" points="640.66,-1157.7 645.76,-1154.88 640.02,-1153.9 640.66,-1157.7"/>
</g>
<!-- in6 -->
<g id="node18" class="node">
<title>in6</title>
<polygon fill="#eef6ff" stroke="#4b8fc5" points="336.56,-302.4 167.09,-302.4 167.09,-218 342.56,-218 342.56,-296.4 336.56,-302.4"/>
<polyline fill="none" stroke="#4b8fc5" points="336.56,-302.4 336.56,-296.4"/>
<polyline fill="none" stroke="#4b8fc5" points="342.56,-296.4 336.56,-296.4"/>
<text xml:space="preserve" text-anchor="start" x="176.45" y="-286.7" font-family="Inter,Arial" font-size="10.00" fill="#123d5c">from embassy&#45;executor&#45;v0.10.0.svg</text>
<text xml:space="preserve" text-anchor="start" x="225.58" y="-276.7" font-family="Inter,Arial" font-weight="bold" font-size="10.00" fill="#123d5c">proc&#45;macro2</text>
<text xml:space="preserve" text-anchor="start" x="238.7" y="-266.7" font-family="Inter,Arial" font-size="10.00" fill="#123d5c">1.0.106</text>
<text xml:space="preserve" text-anchor="start" x="241.7" y="-256.7" font-family="Inter,Arial" font-weight="bold" font-size="10.00" fill="#123d5c">quote</text>
<text xml:space="preserve" text-anchor="start" x="241.33" y="-246.7" font-family="Inter,Arial" font-size="10.00" fill="#123d5c">1.0.46</text>
<text xml:space="preserve" text-anchor="start" x="246.58" y="-236.7" font-family="Inter,Arial" font-weight="bold" font-size="10.00" fill="#123d5c">syn</text>
<text xml:space="preserve" text-anchor="start" x="238.7" y="-226.7" font-family="Inter,Arial" font-size="10.00" fill="#123d5c">2.0.118</text>
</g>
<!-- in6&#45;&gt;n7 -->
<g id="edge23" class="edge">
<title>in6&#45;&gt;n7</title>
<path fill="none" stroke="#4b8fc5" stroke-width="0.9" stroke-dasharray="5,2" d="M342.89,-284.2C357.89,-287.49 373.41,-290.36 388.19,-292.2 539.74,-311.05 720.44,-301.22 809.88,-294.22"/>
<polygon fill="#4b8fc5" stroke="#4b8fc5" stroke-width="0.9" points="810,-296.15 815.33,-293.79 809.69,-292.31 810,-296.15"/>
</g>
<!-- in6&#45;&gt;n8 -->
<g id="edge24" class="edge">
<title>in6&#45;&gt;n8</title>
<path fill="none" stroke="#4b8fc5" stroke-width="0.9" stroke-dasharray="5,2" d="M342.87,-236.07C357.87,-232.8 373.4,-229.96 388.19,-228.2 478.76,-217.41 586.65,-223.69 640.09,-228.07"/>
<polygon fill="#4b8fc5" stroke="#4b8fc5" stroke-width="0.9" points="639.65,-229.97 645.29,-228.51 639.97,-226.13 639.65,-229.97"/>
</g>
<!-- in6&#45;&gt;n9 -->
<g id="edge25" class="edge">
<title>in6&#45;&gt;n9</title>
<path fill="none" stroke="#4b8fc5" stroke-width="0.9" stroke-dasharray="5,2" d="M342.93,-260.2C373.36,-260.2 405.78,-260.2 429.41,-260.2"/>
<polygon fill="#4b8fc5" stroke="#4b8fc5" stroke-width="0.9" points="429.28,-262.13 434.78,-260.2 429.28,-258.28 429.28,-262.13"/>
</g>
<!-- in7 -->
<g id="node19" class="node">
<title>in7</title>
<polygon fill="#eef6ff" stroke="#4b8fc5" points="535.91,-1138.4 388.19,-1138.4 388.19,-1094 541.91,-1094 541.91,-1132.4 535.91,-1138.4"/>
<polyline fill="none" stroke="#4b8fc5" points="535.91,-1138.4 535.91,-1132.4"/>
<polyline fill="none" stroke="#4b8fc5" points="541.91,-1132.4 535.91,-1132.4"/>
<text xml:space="preserve" text-anchor="start" x="397.55" y="-1122.7" font-family="Inter,Arial" font-size="10.00" fill="#123d5c">from embassy&#45;sync&#45;v0.8.0.svg</text>
<text xml:space="preserve" text-anchor="start" x="453.42" y="-1112.7" font-family="Inter,Arial" font-weight="bold" font-size="10.00" fill="#123d5c">cfg&#45;if</text>
<text xml:space="preserve" text-anchor="start" x="454.17" y="-1102.7" font-family="Inter,Arial" font-size="10.00" fill="#123d5c">1.0.4</text>
</g>
<!-- in7&#45;&gt;n1 -->
<g id="edge26" class="edge">
<title>in7&#45;&gt;n1</title>
<path fill="none" stroke="#4b8fc5" stroke-width="0.9" stroke-dasharray="5,2" d="M542.13,-1128.67C576.03,-1134.22 614.18,-1140.48 640.61,-1144.81"/>
<polygon fill="#4b8fc5" stroke="#4b8fc5" stroke-width="0.9" points="639.98,-1146.65 645.72,-1145.64 640.6,-1142.85 639.98,-1146.65"/>
</g>
<!-- in8 -->
<g id="node20" class="node">
<title>in8</title>
<polygon fill="#eef6ff" stroke="#4b8fc5" points="761.13,-688.4 581.91,-688.4 581.91,-624 767.13,-624 767.13,-682.4 761.13,-688.4"/>
<polyline fill="none" stroke="#4b8fc5" points="761.13,-688.4 761.13,-682.4"/>
<polyline fill="none" stroke="#4b8fc5" points="767.13,-682.4 761.13,-682.4"/>
<text xml:space="preserve" text-anchor="start" x="591.27" y="-672.7" font-family="Inter,Arial" font-size="10.00" fill="#123d5c">from embedded&#45;websocket&#45;v0.9.4.svg</text>
<text xml:space="preserve" text-anchor="start" x="644.14" y="-662.7" font-family="Inter,Arial" font-weight="bold" font-size="10.00" fill="#123d5c">generic&#45;array</text>
<text xml:space="preserve" text-anchor="start" x="661.02" y="-652.7" font-family="Inter,Arial" font-size="10.00" fill="#123d5c">0.14.7</text>
<text xml:space="preserve" text-anchor="start" x="637.77" y="-642.7" font-family="Inter,Arial" font-weight="bold" font-size="10.00" fill="#123d5c">crypto&#45;common</text>
<text xml:space="preserve" text-anchor="start" x="663.64" y="-632.7" font-family="Inter,Arial" font-size="10.00" fill="#123d5c">0.1.7</text>
</g>
<!-- in8&#45;&gt;n4 -->
<g id="edge27" class="edge">
<title>in8&#45;&gt;n4</title>
<path fill="none" stroke="#4b8fc5" stroke-width="0.9" stroke-dasharray="5,2" d="M767.57,-668.78C778.64,-670.29 789.77,-671.82 800.35,-673.26"/>
<polygon fill="#4b8fc5" stroke="#4b8fc5" stroke-width="0.9" points="799.8,-675.13 805.51,-673.97 800.33,-671.32 799.8,-675.13"/>
</g>
<!-- in8&#45;&gt;n5 -->
<g id="edge28" class="edge">
<title>in8&#45;&gt;n5</title>
<path fill="none" stroke="#4b8fc5" stroke-width="0.9" stroke-dasharray="5,2" d="M767.36,-646.96C815,-643.94 874.03,-642.97 926.35,-650.2 937.21,-651.7 948.49,-653.97 959.55,-656.62"/>
<polygon fill="#4b8fc5" stroke="#4b8fc5" stroke-width="0.9" points="958.9,-658.45 964.7,-657.9 959.83,-654.71 958.9,-658.45"/>
</g>
<!-- in9 -->
<g id="node21" class="node">
<title>in9</title>
<polygon fill="#eef6ff" stroke="#4b8fc5" points="529.53,-1069.4 394.56,-1069.4 394.56,-1025 535.53,-1025 535.53,-1063.4 529.53,-1069.4"/>
<polyline fill="none" stroke="#4b8fc5" points="529.53,-1069.4 529.53,-1063.4"/>
<polyline fill="none" stroke="#4b8fc5" points="535.53,-1063.4 529.53,-1063.4"/>
<text xml:space="preserve" text-anchor="start" x="403.92" y="-1053.7" font-family="Inter,Arial" font-size="10.00" fill="#123d5c">from getrandom&#45;v0.2.17.svg</text>
<text xml:space="preserve" text-anchor="start" x="453.42" y="-1043.7" font-family="Inter,Arial" font-weight="bold" font-size="10.00" fill="#123d5c">cfg&#45;if</text>
<text xml:space="preserve" text-anchor="start" x="454.17" y="-1033.7" font-family="Inter,Arial" font-size="10.00" fill="#123d5c">1.0.4</text>
</g>
<!-- in9&#45;&gt;n1 -->
<g id="edge29" class="edge">
<title>in9&#45;&gt;n1</title>
<path fill="none" stroke="#4b8fc5" stroke-width="0.9" stroke-dasharray="5,2" d="M517.66,-1069.82C525.82,-1073.54 534.12,-1077.42 541.91,-1081.2 576.21,-1097.86 614.78,-1118.29 641.25,-1132.57"/>
<polygon fill="#4b8fc5" stroke="#4b8fc5" stroke-width="0.9" points="640.09,-1134.14 645.85,-1135.06 641.93,-1130.75 640.09,-1134.14"/>
</g>
<!-- in10 -->
<g id="node22" class="node">
<title>in10</title>
<polygon fill="#eef6ff" stroke="#4b8fc5" points="342.19,-790.4 161.47,-790.4 161.47,-596 348.19,-596 348.19,-784.4 342.19,-790.4"/>
<polyline fill="none" stroke="#4b8fc5" points="342.19,-790.4 342.19,-784.4"/>
<polyline fill="none" stroke="#4b8fc5" points="348.19,-784.4 342.19,-784.4"/>
<text xml:space="preserve" text-anchor="start" x="170.83" y="-774.7" font-family="Inter,Arial" font-size="10.00" fill="#123d5c">from rustls&#45;rustcrypto&#45;v0.0.2&#45;alpha.svg</text>
<text xml:space="preserve" text-anchor="start" x="218.08" y="-764.7" font-family="Inter,Arial" font-weight="bold" font-size="10.00" fill="#123d5c">crypto&#45;common</text>
<text xml:space="preserve" text-anchor="start" x="243.95" y="-754.7" font-family="Inter,Arial" font-size="10.00" fill="#123d5c">0.1.7</text>
<text xml:space="preserve" text-anchor="start" x="224.45" y="-744.7" font-family="Inter,Arial" font-weight="bold" font-size="10.00" fill="#123d5c">generic&#45;array</text>
<text xml:space="preserve" text-anchor="start" x="241.33" y="-734.7" font-family="Inter,Arial" font-size="10.00" fill="#123d5c">0.14.7</text>
<text xml:space="preserve" text-anchor="start" x="246.95" y="-724.7" font-family="Inter,Arial" font-weight="bold" font-size="10.00" fill="#123d5c">aes</text>
<text xml:space="preserve" text-anchor="start" x="243.95" y="-714.7" font-family="Inter,Arial" font-size="10.00" fill="#123d5c">0.8.4</text>
<text xml:space="preserve" text-anchor="start" x="240.2" y="-704.7" font-family="Inter,Arial" font-weight="bold" font-size="10.00" fill="#123d5c">cipher</text>
<text xml:space="preserve" text-anchor="start" x="243.95" y="-694.7" font-family="Inter,Arial" font-size="10.00" fill="#123d5c">0.4.4</text>
<text xml:space="preserve" text-anchor="start" x="243.2" y="-684.7" font-family="Inter,Arial" font-weight="bold" font-size="10.00" fill="#123d5c">cfg&#45;if</text>
<text xml:space="preserve" text-anchor="start" x="243.95" y="-674.7" font-family="Inter,Arial" font-size="10.00" fill="#123d5c">1.0.4</text>
<text xml:space="preserve" text-anchor="start" x="227.83" y="-664.7" font-family="Inter,Arial" font-weight="bold" font-size="10.00" fill="#123d5c">cpufeatures</text>
<text xml:space="preserve" text-anchor="start" x="241.33" y="-654.7" font-family="Inter,Arial" font-size="10.00" fill="#123d5c">0.2.17</text>
<text xml:space="preserve" text-anchor="start" x="225.58" y="-644.7" font-family="Inter,Arial" font-weight="bold" font-size="10.00" fill="#123d5c">proc&#45;macro2</text>
<text xml:space="preserve" text-anchor="start" x="238.7" y="-634.7" font-family="Inter,Arial" font-size="10.00" fill="#123d5c">1.0.106</text>
<text xml:space="preserve" text-anchor="start" x="241.7" y="-624.7" font-family="Inter,Arial" font-weight="bold" font-size="10.00" fill="#123d5c">quote</text>
<text xml:space="preserve" text-anchor="start" x="241.33" y="-614.7" font-family="Inter,Arial" font-size="10.00" fill="#123d5c">1.0.46</text>
<text xml:space="preserve" text-anchor="start" x="233.83" y="-604.7" font-family="Inter,Arial" font-size="10.00" fill="#123d5c">... 1 more</text>
</g>
<!-- in10&#45;&gt;n0 -->
<g id="edge30" class="edge">
<title>in10&#45;&gt;n0</title>
<path fill="none" stroke="#4b8fc5" stroke-width="0.9" stroke-dasharray="5,2" d="M348.67,-719.06C378.29,-727.31 409.13,-735.9 431.47,-742.12"/>
<polygon fill="#4b8fc5" stroke="#4b8fc5" stroke-width="0.9" points="430.7,-743.91 436.51,-743.53 431.73,-740.2 430.7,-743.91"/>
</g>
<!-- in10&#45;&gt;n1 -->
<g id="edge31" class="edge">
<title>in10&#45;&gt;n1</title>
<path fill="none" stroke="#4b8fc5" stroke-width="0.9" stroke-dasharray="5,2" d="M266.16,-790.87C282.95,-928.33 321.2,-1167.95 388.19,-1220.2 464.6,-1279.79 584.73,-1212.39 641.62,-1173.66"/>
<polygon fill="#4b8fc5" stroke="#4b8fc5" stroke-width="0.9" points="642.69,-1175.25 646.13,-1170.55 640.51,-1172.08 642.69,-1175.25"/>
</g>
<!-- in10&#45;&gt;n2 -->
<g id="edge32" class="edge">
<title>in10&#45;&gt;n2</title>
<path fill="none" stroke="#4b8fc5" stroke-width="0.9" stroke-dasharray="5,2" d="M348.42,-700.19C404.5,-704.78 477.43,-711.38 541.91,-719.2 574.59,-723.16 611.64,-728.91 638.09,-733.22"/>
<polygon fill="#4b8fc5" stroke="#4b8fc5" stroke-width="0.9" points="637.49,-735.08 643.23,-734.07 638.12,-731.28 637.49,-735.08"/>
</g>
<!-- in10&#45;&gt;n3 -->
<g id="edge33" class="edge">
<title>in10&#45;&gt;n3</title>
<path fill="none" stroke="#4b8fc5" stroke-width="0.9" stroke-dasharray="5,2" d="M348.58,-764.23C361.39,-771.62 374.77,-778.23 388.19,-783.2 465.16,-811.68 561.16,-816.76 619.86,-816.76"/>
<polygon fill="#4b8fc5" stroke="#4b8fc5" stroke-width="0.9" points="619.62,-818.69 625.12,-816.75 619.61,-814.84 619.62,-818.69"/>
</g>
<!-- in10&#45;&gt;n4 -->
<g id="edge34" class="edge">
<title>in10&#45;&gt;n4</title>
<path fill="none" stroke="#4b8fc5" stroke-width="0.9" stroke-dasharray="5,2" d="M257.27,-790.85C262.35,-981.27 285.29,-1391.2 388.19,-1478.2 614.9,-1669.88 761.44,-1196.96 767.13,-1182.2 804.67,-1084.8 750.09,-801.61 807.13,-714.2 808.9,-711.49 810.98,-708.99 813.28,-706.69"/>
<polygon fill="#4b8fc5" stroke="#4b8fc5" stroke-width="0.9" points="814.44,-708.23 817.27,-703.14 811.88,-705.36 814.44,-708.23"/>
</g>
<!-- in10&#45;&gt;n5 -->
<g id="edge35" class="edge">
<title>in10&#45;&gt;n5</title>
<path fill="none" stroke="#4b8fc5" stroke-width="0.9" stroke-dasharray="5,2" d="M348.48,-616.29C361.21,-608.92 374.59,-602.57 388.19,-598.2 616.51,-524.74 695.12,-574.52 926.35,-638.2 937.36,-641.23 948.78,-644.94 959.95,-648.91"/>
<polygon fill="#4b8fc5" stroke="#4b8fc5" stroke-width="0.9" points="959.02,-650.62 964.84,-650.68 960.32,-647 959.02,-650.62"/>
</g>
<!-- in10&#45;&gt;n7 -->
<g id="edge36" class="edge">
<title>in10&#45;&gt;n7</title>
<path fill="none" stroke="#4b8fc5" stroke-width="0.9" stroke-dasharray="5,2" d="M341.12,-595.61C356.08,-580.9 372.04,-566.55 388.19,-554.2 540.29,-437.88 601.08,-444.55 767.13,-349.2 787.45,-337.53 809.77,-324.01 828.03,-312.76"/>
<polygon fill="#4b8fc5" stroke="#4b8fc5" stroke-width="0.9" points="828.74,-314.59 832.41,-310.06 826.71,-311.31 828.74,-314.59"/>
</g>
<!-- in10&#45;&gt;n8 -->
<g id="edge37" class="edge">
<title>in10&#45;&gt;n8</title>
<path fill="none" stroke="#4b8fc5" stroke-width="0.9" stroke-dasharray="5,2" d="M318.2,-595.7C339.21,-565.12 363.59,-531.89 388.19,-503.2 473.43,-403.8 590.64,-301.05 644.41,-255.48"/>
<polygon fill="#4b8fc5" stroke="#4b8fc5" stroke-width="0.9" points="645.42,-257.15 648.37,-252.13 642.93,-254.21 645.42,-257.15"/>
</g>
<!-- in10&#45;&gt;n9 -->
<g id="edge38" class="edge">
<title>in10&#45;&gt;n9</title>
<path fill="none" stroke="#4b8fc5" stroke-width="0.9" stroke-dasharray="5,2" d="M283.86,-595.75C306.48,-524.86 342.11,-428.07 388.19,-350.2 402.46,-326.09 423.2,-301.99 439.39,-284.8"/>
<polygon fill="#4b8fc5" stroke="#4b8fc5" stroke-width="0.9" points="440.49,-286.44 442.89,-281.13 437.7,-283.79 440.49,-286.44"/>
</g>
<!-- in11 -->
<g id="node23" class="node">
<title>in11</title>
<polygon fill="#eef6ff" stroke="#4b8fc5" points="311.06,-193.4 192.59,-193.4 192.59,-109 317.06,-109 317.06,-187.4 311.06,-193.4"/>
<polyline fill="none" stroke="#4b8fc5" points="311.06,-193.4 311.06,-187.4"/>
<polyline fill="none" stroke="#4b8fc5" points="317.06,-187.4 311.06,-187.4"/>
<text xml:space="preserve" text-anchor="start" x="201.95" y="-177.7" font-family="Inter,Arial" font-size="10.00" fill="#123d5c">from serde&#45;v1.0.228.svg</text>
<text xml:space="preserve" text-anchor="start" x="225.58" y="-167.7" font-family="Inter,Arial" font-weight="bold" font-size="10.00" fill="#123d5c">proc&#45;macro2</text>
<text xml:space="preserve" text-anchor="start" x="238.7" y="-157.7" font-family="Inter,Arial" font-size="10.00" fill="#123d5c">1.0.106</text>
<text xml:space="preserve" text-anchor="start" x="241.7" y="-147.7" font-family="Inter,Arial" font-weight="bold" font-size="10.00" fill="#123d5c">quote</text>
<text xml:space="preserve" text-anchor="start" x="241.33" y="-137.7" font-family="Inter,Arial" font-size="10.00" fill="#123d5c">1.0.46</text>
<text xml:space="preserve" text-anchor="start" x="246.58" y="-127.7" font-family="Inter,Arial" font-weight="bold" font-size="10.00" fill="#123d5c">syn</text>
<text xml:space="preserve" text-anchor="start" x="238.7" y="-117.7" font-family="Inter,Arial" font-size="10.00" fill="#123d5c">2.0.118</text>
</g>
<!-- in11&#45;&gt;n7 -->
<g id="edge39" class="edge">
<title>in11&#45;&gt;n7</title>
<path fill="none" stroke="#4b8fc5" stroke-width="0.9" stroke-dasharray="5,2" d="M317.43,-144.3C417.02,-135.85 617.32,-130.18 767.13,-199.2 799.15,-213.95 827.93,-242.95 846.02,-264.05"/>
<polygon fill="#4b8fc5" stroke="#4b8fc5" stroke-width="0.9" points="844.49,-265.23 849.51,-268.19 847.44,-262.75 844.49,-265.23"/>
</g>
<!-- in11&#45;&gt;n8 -->
<g id="edge40" class="edge">
<title>in11&#45;&gt;n8</title>
<path fill="none" stroke="#4b8fc5" stroke-width="0.9" stroke-dasharray="5,2" d="M317.46,-163C406.94,-180.14 569.76,-211.33 639.9,-224.76"/>
<polygon fill="#4b8fc5" stroke="#4b8fc5" stroke-width="0.9" points="639.29,-226.6 645.05,-225.75 640.01,-222.82 639.29,-226.6"/>
</g>
<!-- in11&#45;&gt;n9 -->
<g id="edge41" class="edge">
<title>in11&#45;&gt;n9</title>
<path fill="none" stroke="#4b8fc5" stroke-width="0.9" stroke-dasharray="5,2" d="M317.46,-183.46C354.33,-202.76 399.79,-226.56 430.22,-242.49"/>
<polygon fill="#4b8fc5" stroke="#4b8fc5" stroke-width="0.9" points="429.13,-244.09 434.89,-244.94 430.91,-240.68 429.13,-244.09"/>
</g>
<!-- in12 -->
<g id="node24" class="node">
<title>in12</title>
<polygon fill="#eef6ff" stroke="#4b8fc5" points="517.16,-911.4 406.94,-911.4 406.94,-847 523.16,-847 523.16,-905.4 517.16,-911.4"/>
<polyline fill="none" stroke="#4b8fc5" points="517.16,-911.4 517.16,-905.4"/>
<polyline fill="none" stroke="#4b8fc5" points="523.16,-905.4 517.16,-905.4"/>
<text xml:space="preserve" text-anchor="start" x="416.3" y="-895.7" font-family="Inter,Arial" font-size="10.00" fill="#123d5c">from sha1&#45;v0.10.6.svg</text>
<text xml:space="preserve" text-anchor="start" x="453.42" y="-885.7" font-family="Inter,Arial" font-weight="bold" font-size="10.00" fill="#123d5c">cfg&#45;if</text>
<text xml:space="preserve" text-anchor="start" x="454.17" y="-875.7" font-family="Inter,Arial" font-size="10.00" fill="#123d5c">1.0.4</text>
<text xml:space="preserve" text-anchor="start" x="438.05" y="-865.7" font-family="Inter,Arial" font-weight="bold" font-size="10.00" fill="#123d5c">cpufeatures</text>
<text xml:space="preserve" text-anchor="start" x="451.55" y="-855.7" font-family="Inter,Arial" font-size="10.00" fill="#123d5c">0.2.17</text>
</g>
<!-- in12&#45;&gt;n1 -->
<g id="edge42" class="edge">
<title>in12&#45;&gt;n1</title>
<path fill="none" stroke="#4b8fc5" stroke-width="0.9" stroke-dasharray="5,2" d="M523.52,-908.09C530.11,-912.66 536.42,-917.71 541.91,-923.2 602.54,-983.84 645.17,-1078.04 663.48,-1123.66"/>
<polygon fill="#4b8fc5" stroke="#4b8fc5" stroke-width="0.9" points="661.69,-1124.35 665.51,-1128.76 665.27,-1122.93 661.69,-1124.35"/>
</g>
<!-- in12&#45;&gt;n3 -->
<g id="edge43" class="edge">
<title>in12&#45;&gt;n3</title>
<path fill="none" stroke="#4b8fc5" stroke-width="0.9" stroke-dasharray="5,2" d="M523.57,-861.46C553.91,-852.1 590.88,-840.69 620.52,-831.55"/>
<polygon fill="#4b8fc5" stroke="#4b8fc5" stroke-width="0.9" points="620.74,-833.5 625.43,-830.04 619.6,-829.82 620.74,-833.5"/>
</g>
<!-- in13 -->
<g id="node25" class="node">
<title>in13</title>
<polygon fill="#eef6ff" stroke="#4b8fc5" points="517.16,-1000.4 406.94,-1000.4 406.94,-936 523.16,-936 523.16,-994.4 517.16,-1000.4"/>
<polyline fill="none" stroke="#4b8fc5" points="517.16,-1000.4 517.16,-994.4"/>
<polyline fill="none" stroke="#4b8fc5" points="523.16,-994.4 517.16,-994.4"/>
<text xml:space="preserve" text-anchor="start" x="416.3" y="-984.7" font-family="Inter,Arial" font-size="10.00" fill="#123d5c">from sha2&#45;v0.10.9.svg</text>
<text xml:space="preserve" text-anchor="start" x="453.42" y="-974.7" font-family="Inter,Arial" font-weight="bold" font-size="10.00" fill="#123d5c">cfg&#45;if</text>
<text xml:space="preserve" text-anchor="start" x="454.17" y="-964.7" font-family="Inter,Arial" font-size="10.00" fill="#123d5c">1.0.4</text>
<text xml:space="preserve" text-anchor="start" x="438.05" y="-954.7" font-family="Inter,Arial" font-weight="bold" font-size="10.00" fill="#123d5c">cpufeatures</text>
<text xml:space="preserve" text-anchor="start" x="451.55" y="-944.7" font-family="Inter,Arial" font-size="10.00" fill="#123d5c">0.2.17</text>
</g>
<!-- in13&#45;&gt;n1 -->
<g id="edge44" class="edge">
<title>in13&#45;&gt;n1</title>
<path fill="none" stroke="#4b8fc5" stroke-width="0.9" stroke-dasharray="5,2" d="M523.54,-999.18C529.92,-1003.3 536.17,-1007.68 541.91,-1012.2 585.73,-1046.73 628.89,-1095.59 653.27,-1124.96"/>
<polygon fill="#4b8fc5" stroke="#4b8fc5" stroke-width="0.9" points="651.74,-1126.14 656.73,-1129.16 654.71,-1123.69 651.74,-1126.14"/>
</g>
<!-- in13&#45;&gt;n3 -->
<g id="edge45" class="edge">
<title>in13&#45;&gt;n3</title>
<path fill="none" stroke="#4b8fc5" stroke-width="0.9" stroke-dasharray="5,2" d="M523.44,-936.29C529.77,-932.36 536.04,-928.29 541.91,-924.2 580.02,-897.64 620.74,-862.8 646.62,-839.74"/>
<polygon fill="#4b8fc5" stroke="#4b8fc5" stroke-width="0.9" points="647.77,-841.3 650.58,-836.2 645.2,-838.43 647.77,-841.3"/>
</g>
<!-- in14 -->
<g id="node26" class="node">
<title>in14</title>
<polygon fill="#eef6ff" stroke="#4b8fc5" points="523.91,-1465.4 400.19,-1465.4 400.19,-1421 529.91,-1421 529.91,-1459.4 523.91,-1465.4"/>
<polyline fill="none" stroke="#4b8fc5" points="523.91,-1465.4 523.91,-1459.4"/>
<polyline fill="none" stroke="#4b8fc5" points="529.91,-1459.4 523.91,-1459.4"/>
<text xml:space="preserve" text-anchor="start" x="409.55" y="-1449.7" font-family="Inter,Arial" font-size="10.00" fill="#123d5c">from smoltcp&#45;v0.13.1.svg</text>
<text xml:space="preserve" text-anchor="start" x="453.42" y="-1439.7" font-family="Inter,Arial" font-weight="bold" font-size="10.00" fill="#123d5c">cfg&#45;if</text>
<text xml:space="preserve" text-anchor="start" x="454.17" y="-1429.7" font-family="Inter,Arial" font-size="10.00" fill="#123d5c">1.0.4</text>
</g>
<!-- in14&#45;&gt;n1 -->
<g id="edge46" class="edge">
<title>in14&#45;&gt;n1</title>
<path fill="none" stroke="#4b8fc5" stroke-width="0.9" stroke-dasharray="5,2" d="M526.87,-1420.64C532.29,-1417.28 537.42,-1413.48 541.91,-1409.2 612.69,-1341.79 651.73,-1228.01 666.52,-1176.7"/>
<polygon fill="#4b8fc5" stroke="#4b8fc5" stroke-width="0.9" points="668.35,-1177.31 668,-1171.49 664.65,-1176.26 668.35,-1177.31"/>
</g>
<!-- in15 -->
<g id="node27" class="node">
<title>in15</title>
<polygon fill="#eef6ff" stroke="#4b8fc5" points="115.47,-379.4 0,-379.4 0,-325 121.47,-325 121.47,-373.4 115.47,-379.4"/>
<polyline fill="none" stroke="#4b8fc5" points="115.47,-379.4 115.47,-373.4"/>
<polyline fill="none" stroke="#4b8fc5" points="121.47,-373.4 115.47,-373.4"/>
<text xml:space="preserve" text-anchor="start" x="9.36" y="-363.7" font-family="Inter,Arial" font-size="10.00" fill="#123d5c">from zeroize&#45;v1.9.0.svg</text>
<text xml:space="preserve" text-anchor="start" x="26.98" y="-353.7" font-family="Inter,Arial" font-weight="bold" font-size="10.00" fill="#123d5c">zeroize_derive</text>
<text xml:space="preserve" text-anchor="start" x="49.86" y="-343.7" font-family="Inter,Arial" font-size="10.00" fill="#123d5c">1.5.0</text>
<text xml:space="preserve" text-anchor="start" x="36.36" y="-333.7" font-family="Inter,Arial" font-size="10.00" fill="#123d5c">proc&#45;macro</text>
</g>
<!-- in15&#45;&gt;n10 -->
<g id="edge47" class="edge">
<title>in15&#45;&gt;n10</title>
<path fill="none" stroke="#4b8fc5" stroke-width="0.9" stroke-dasharray="5,2" d="M121.72,-352.2C144.07,-352.2 169.46,-352.2 191.96,-352.2"/>
<polygon fill="#4b8fc5" stroke="#4b8fc5" stroke-width="0.9" points="191.68,-354.13 197.18,-352.2 191.68,-350.28 191.68,-354.13"/>
</g>
</g>
</svg>
