<?xml version="1.0" encoding="UTF-8" standalone="no"?>
<!DOCTYPE svg PUBLIC "-//W3C//DTD SVG 1.1//EN"
 "http://www.w3.org/Graphics/SVG/1.1/DTD/svg11.dtd">
<!-- Generated by graphviz version 14.1.2 (0)
 -->
<!-- Title: aes&#45;v0.8.4 Pages: 1 -->
<svg width="1134pt" height="1345pt"
 viewBox="0.00 0.00 1134.00 1345.00" xmlns="http://www.w3.org/2000/svg" xmlns:xlink="http://www.w3.org/1999/xlink">
<g id="graph0" class="graph" transform="scale(1 1) rotate(0) translate(4 1341.22)">
<title>aes&#45;v0.8.4</title>
<polygon fill="white" stroke="none" points="-4,4 -4,-1341.22 1129.64,-1341.22 1129.64,4 -4,4"/>
<!-- n0 -->
<g id="node1" class="node">
<title>n0</title>
<path fill="#dff3ff" stroke="#1b78a6" d="M462.05,-661.6C462.05,-661.6 432.05,-661.6 432.05,-661.6 426.05,-661.6 420.05,-655.6 420.05,-649.6 420.05,-649.6 420.05,-637.6 420.05,-637.6 420.05,-631.6 426.05,-625.6 432.05,-625.6 432.05,-625.6 462.05,-625.6 462.05,-625.6 468.05,-625.6 474.05,-631.6 474.05,-637.6 474.05,-637.6 474.05,-649.6 474.05,-649.6 474.05,-655.6 468.05,-661.6 462.05,-661.6"/>
<text xml:space="preserve" text-anchor="start" x="439.17" y="-645.1" font-family="Inter,Arial" font-weight="bold" font-size="10.00" fill="#172033">aes</text>
<text xml:space="preserve" text-anchor="start" x="436.17" y="-635.1" font-family="Inter,Arial" font-size="10.00" fill="#172033">0.8.4</text>
</g>
<!-- n1 -->
<g id="node2" class="node">
<title>n1</title>
<path fill="#f7f9fb" stroke="#8b9bb0" d="M608.07,-1031.6C608.07,-1031.6 578.07,-1031.6 578.07,-1031.6 572.07,-1031.6 566.07,-1025.6 566.07,-1019.6 566.07,-1019.6 566.07,-1007.6 566.07,-1007.6 566.07,-1001.6 572.07,-995.6 578.07,-995.6 578.07,-995.6 608.07,-995.6 608.07,-995.6 614.07,-995.6 620.07,-1001.6 620.07,-1007.6 620.07,-1007.6 620.07,-1019.6 620.07,-1019.6 620.07,-1025.6 614.07,-1031.6 608.07,-1031.6"/>
<text xml:space="preserve" text-anchor="start" x="581.44" y="-1015.1" font-family="Inter,Arial" font-weight="bold" font-size="10.00" fill="#172033">cfg&#45;if</text>
<text xml:space="preserve" text-anchor="start" x="582.19" y="-1005.1" font-family="Inter,Arial" font-size="10.00" fill="#172033">1.0.4</text>
</g>
<!-- n0&#45;&gt;n1 -->
<g id="edge1" class="edge">
<title>n0&#45;&gt;n1</title>
<path fill="none" stroke="#9aa8b8" stroke-width="0.9" d="M468.81,-661.79C485.15,-677.21 507.26,-700.73 520.31,-725.6 567.4,-815.34 584.49,-937.17 589.88,-988.82"/>
<polygon fill="#9aa8b8" stroke="#9aa8b8" stroke-width="0.9" points="587.94,-988.71 590.4,-993.99 591.77,-988.33 587.94,-988.71"/>
</g>
<!-- n2 -->
<g id="node3" class="node">
<title>n2</title>
<path fill="#f7f9fb" stroke="#8b9bb0" d="M608.07,-599.6C608.07,-599.6 578.07,-599.6 578.07,-599.6 572.07,-599.6 566.07,-593.6 566.07,-587.6 566.07,-587.6 566.07,-575.6 566.07,-575.6 566.07,-569.6 572.07,-563.6 578.07,-563.6 578.07,-563.6 608.07,-563.6 608.07,-563.6 614.07,-563.6 620.07,-569.6 620.07,-575.6 620.07,-575.6 620.07,-587.6 620.07,-587.6 620.07,-593.6 614.07,-599.6 608.07,-599.6"/>
<text xml:space="preserve" text-anchor="start" x="578.44" y="-583.1" font-family="Inter,Arial" font-weight="bold" font-size="10.00" fill="#172033">cipher</text>
<text xml:space="preserve" text-anchor="start" x="582.19" y="-573.1" font-family="Inter,Arial" font-size="10.00" fill="#172033">0.4.4</text>
</g>
<!-- n0&#45;&gt;n2 -->
<g id="edge2" class="edge">
<title>n0&#45;&gt;n2</title>
<path fill="none" stroke="#9aa8b8" stroke-width="0.9" d="M474.48,-632.28C488.17,-626.41 505.14,-619.13 520.31,-612.6 533.15,-607.07 547.28,-600.97 559.58,-595.65"/>
<polygon fill="#9aa8b8" stroke="#9aa8b8" stroke-width="0.9" points="560.3,-597.44 564.58,-593.49 558.77,-593.91 560.3,-597.44"/>
</g>
<!-- n3 -->
<g id="node4" class="node">
<title>n3</title>
<path fill="#f7f9fb" stroke="#8b9bb0" d="M613.83,-750.6C613.83,-750.6 572.31,-750.6 572.31,-750.6 566.31,-750.6 560.31,-744.6 560.31,-738.6 560.31,-738.6 560.31,-726.6 560.31,-726.6 560.31,-720.6 566.31,-714.6 572.31,-714.6 572.31,-714.6 613.83,-714.6 613.83,-714.6 619.83,-714.6 625.83,-720.6 625.83,-726.6 625.83,-726.6 625.83,-738.6 625.83,-738.6 625.83,-744.6 619.83,-750.6 613.83,-750.6"/>
<text xml:space="preserve" text-anchor="start" x="566.07" y="-734.1" font-family="Inter,Arial" font-weight="bold" font-size="10.00" fill="#172033">cpufeatures</text>
<text xml:space="preserve" text-anchor="start" x="579.57" y="-724.1" font-family="Inter,Arial" font-size="10.00" fill="#172033">0.2.17</text>
</g>
<!-- n0&#45;&gt;n3 -->
<g id="edge3" class="edge">
<title>n0&#45;&gt;n3</title>
<path fill="none" stroke="#9aa8b8" stroke-width="0.9" d="M474.33,-655.84C488.27,-662.64 505.53,-671.54 520.31,-680.6 535,-689.61 550.57,-700.69 563.44,-710.3"/>
<polygon fill="#9aa8b8" stroke="#9aa8b8" stroke-width="0.9" points="562.14,-711.73 567.69,-713.5 564.46,-708.66 562.14,-711.73"/>
</g>
<!-- n4 -->
<g id="node5" class="node">
<title>n4</title>
<path fill="#f7f9fb" stroke="#8b9bb0" d="M963.74,-735.6C963.74,-735.6 902.72,-735.6 902.72,-735.6 896.72,-735.6 890.72,-729.6 890.72,-723.6 890.72,-723.6 890.72,-711.6 890.72,-711.6 890.72,-705.6 896.72,-699.6 902.72,-699.6 902.72,-699.6 963.74,-699.6 963.74,-699.6 969.74,-699.6 975.74,-705.6 975.74,-711.6 975.74,-711.6 975.74,-723.6 975.74,-723.6 975.74,-729.6 969.74,-735.6 963.74,-735.6"/>
<text xml:space="preserve" text-anchor="start" x="896.48" y="-719.1" font-family="Inter,Arial" font-weight="bold" font-size="10.00" fill="#172033">crypto&#45;common</text>
<text xml:space="preserve" text-anchor="start" x="922.36" y="-709.1" font-family="Inter,Arial" font-size="10.00" fill="#172033">0.1.7</text>
</g>
<!-- n2&#45;&gt;n4 -->
<g id="edge4" class="edge">
<title>n2&#45;&gt;n4</title>
<path fill="none" stroke="#9aa8b8" stroke-width="0.9" d="M599.83,-599.83C609.12,-625.85 630.07,-672.89 665.83,-694.6 732.75,-735.22 827.12,-732.31 883.72,-725.58"/>
<polygon fill="#9aa8b8" stroke="#9aa8b8" stroke-width="0.9" points="883.86,-727.51 889.08,-724.92 883.39,-723.69 883.86,-727.51"/>
</g>
<!-- n6 -->
<g id="node7" class="node">
<title>n6</title>
<path fill="#f7f9fb" stroke="#8b9bb0" d="M769.84,-599.6C769.84,-599.6 739.84,-599.6 739.84,-599.6 733.84,-599.6 727.84,-593.6 727.84,-587.6 727.84,-587.6 727.84,-575.6 727.84,-575.6 727.84,-569.6 733.84,-563.6 739.84,-563.6 739.84,-563.6 769.84,-563.6 769.84,-563.6 775.84,-563.6 781.84,-569.6 781.84,-575.6 781.84,-575.6 781.84,-587.6 781.84,-587.6 781.84,-593.6 775.84,-599.6 769.84,-599.6"/>
<text xml:space="preserve" text-anchor="start" x="742.84" y="-583.1" font-family="Inter,Arial" font-weight="bold" font-size="10.00" fill="#172033">inout</text>
<text xml:space="preserve" text-anchor="start" x="743.96" y="-573.1" font-family="Inter,Arial" font-size="10.00" fill="#172033">0.1.4</text>
</g>
<!-- n2&#45;&gt;n6 -->
<g id="edge5" class="edge">
<title>n2&#45;&gt;n6</title>
<path fill="none" stroke="#9aa8b8" stroke-width="0.9" d="M620.45,-581.6C647.97,-581.6 691.17,-581.6 720.91,-581.6"/>
<polygon fill="#9aa8b8" stroke="#9aa8b8" stroke-width="0.9" points="720.56,-583.53 726.06,-581.6 720.56,-579.68 720.56,-583.53"/>
</g>
<!-- out0 -->
<g id="node14" class="node">
<title>out0</title>
<polygon fill="#fff8e8" stroke="#d19922" points="1119.64,-575.2 1022.62,-575.2 1022.62,-538 1125.64,-538 1125.64,-569.2 1119.64,-575.2"/>
<polyline fill="none" stroke="#d19922" points="1119.64,-575.2 1119.64,-569.2"/>
<polyline fill="none" stroke="#d19922" points="1125.64,-569.2 1119.64,-569.2"/>
<text xml:space="preserve" text-anchor="start" x="1028.38" y="-563.1" font-family="Inter,Arial" font-size="10.00" fill="#614000">to zeroize&#45;v1.8.2.svg</text>
<text xml:space="preserve" text-anchor="start" x="1057.25" y="-553.1" font-family="Inter,Arial" font-weight="bold" font-size="10.00" fill="#614000">zeroize</text>
<text xml:space="preserve" text-anchor="start" x="1063.25" y="-543.1" font-family="Inter,Arial" font-size="10.00" fill="#614000">1.8.2</text>
</g>
<!-- n2&#45;&gt;out0 -->
<g id="edge18" class="edge">
<title>n2&#45;&gt;out0</title>
<path fill="none" stroke="#d19922" stroke-width="0.9" stroke-dasharray="5,2" d="M620.47,-567.11C633.68,-560.68 650.15,-553.84 665.83,-550.6 788.43,-525.25 936.23,-537.83 1015.76,-548"/>
<polygon fill="#d19922" stroke="#d19922" stroke-width="0.9" points="1015.25,-549.88 1020.95,-548.68 1015.75,-546.06 1015.25,-549.88"/>
</g>
<!-- n5 -->
<g id="node6" class="node">
<title>n5</title>
<path fill="#f7f9fb" stroke="#8b9bb0" d="M970.62,-614.08C970.62,-614.08 895.85,-614.08 895.85,-614.08 889.85,-614.08 883.85,-608.08 883.85,-602.08 883.85,-602.08 883.85,-575.12 883.85,-575.12 883.85,-569.12 889.85,-563.12 895.85,-563.12 895.85,-563.12 970.62,-563.12 970.62,-563.12 976.62,-563.12 982.62,-569.12 982.62,-575.12 982.62,-575.12 982.62,-602.08 982.62,-602.08 982.62,-608.08 976.62,-614.08 970.62,-614.08"/>
<text xml:space="preserve" text-anchor="start" x="902.86" y="-601.98" font-family="Inter,Arial" font-weight="bold" font-size="10.00" fill="#172033">generic&#45;array</text>
<text xml:space="preserve" text-anchor="start" x="919.73" y="-588.98" font-family="Inter,Arial" font-size="10.00" fill="#172033">0.14.7</text>
<text xml:space="preserve" text-anchor="start" x="894.61" y="-574.88" font-family="Inter,Arial" font-weight="bold" font-size="8.00" fill="#172033">version_check</text>
<text xml:space="preserve" text-anchor="start" x="951.61" y="-574.88" font-family="Inter,Arial" font-size="8.00" fill="#172033"> 0.9.5</text>
<path fill="none" stroke="#9aa8b8" d="M896.19,-566.73C896.19,-566.73 970.28,-566.73 970.28,-566.73 973.57,-566.73 976.86,-570.02 976.86,-573.31 976.86,-573.31 976.86,-579.89 976.86,-579.89 976.86,-583.18 973.57,-586.48 970.28,-586.48 970.28,-586.48 896.19,-586.48 896.19,-586.48 892.9,-586.48 889.61,-583.18 889.61,-579.89 889.61,-579.89 889.61,-573.31 889.61,-573.31 889.61,-570.02 892.9,-566.73 896.19,-566.73"/>
</g>
<!-- n4&#45;&gt;n5 -->
<g id="edge6" class="edge">
<title>n4&#45;&gt;n5</title>
<path fill="none" stroke="#9aa8b8" stroke-width="0.9" d="M890.27,-699.91C879.77,-693.41 869.84,-684.92 863.85,-674.1 856.1,-660.1 856.52,-652.32 863.85,-638.1 867.63,-630.76 873.06,-624.27 879.23,-618.61"/>
<polygon fill="#9aa8b8" stroke="#9aa8b8" stroke-width="0.9" points="880.14,-620.37 883.05,-615.32 877.63,-617.45 880.14,-620.37"/>
</g>
<!-- n10 -->
<g id="node11" class="node">
<title>n10</title>
<path fill="#f7f9fb" stroke="#8b9bb0" d="M948.23,-674.6C948.23,-674.6 918.23,-674.6 918.23,-674.6 912.23,-674.6 906.23,-668.6 906.23,-662.6 906.23,-662.6 906.23,-650.6 906.23,-650.6 906.23,-644.6 912.23,-638.6 918.23,-638.6 918.23,-638.6 948.23,-638.6 948.23,-638.6 954.23,-638.6 960.23,-644.6 960.23,-650.6 960.23,-650.6 960.23,-662.6 960.23,-662.6 960.23,-668.6 954.23,-674.6 948.23,-674.6"/>
<text xml:space="preserve" text-anchor="start" x="912.98" y="-658.1" font-family="Inter,Arial" font-weight="bold" font-size="10.00" fill="#172033">typenum</text>
<text xml:space="preserve" text-anchor="start" x="919.73" y="-648.1" font-family="Inter,Arial" font-size="10.00" fill="#172033">1.20.0</text>
</g>
<!-- n4&#45;&gt;n10 -->
<g id="edge7" class="edge">
<title>n4&#45;&gt;n10</title>
<path fill="none" stroke="#9aa8b8" stroke-width="0.9" d="M950.31,-699.17C953.53,-693.06 954.3,-686.94 952.63,-680.82"/>
<polygon fill="#9aa8b8" stroke="#9aa8b8" stroke-width="0.9" points="954.51,-680.34 950.66,-675.97 950.94,-681.79 954.51,-680.34"/>
</g>
<!-- n4&#45;&gt;n10 -->
<!-- n5&#45;&gt;n10 -->
<g id="edge8" class="edge">
<title>n5&#45;&gt;n10</title>
<path fill="none" stroke="#9aa8b8" stroke-width="0.9" d="M968.1,-614.37C971.78,-621.34 970.79,-628.31 965.12,-635.28"/>
<polygon fill="#9aa8b8" stroke="#9aa8b8" stroke-width="0.9" points="963.85,-633.83 961.41,-639.12 966.61,-636.51 963.85,-633.83"/>
</g>
<!-- n5&#45;&gt;out0 -->
<g id="edge19" class="edge">
<title>n5&#45;&gt;out0</title>
<path fill="none" stroke="#d19922" stroke-width="0.9" stroke-dasharray="5,2" d="M982.81,-577.41C993.54,-574.94 1005,-572.3 1016.02,-569.76"/>
<polygon fill="#d19922" stroke="#d19922" stroke-width="0.9" points="1016.2,-571.69 1021.13,-568.58 1015.34,-567.94 1016.2,-571.69"/>
</g>
<!-- n6&#45;&gt;n5 -->
<g id="edge9" class="edge">
<title>n6&#45;&gt;n5</title>
<path fill="none" stroke="#9aa8b8" stroke-width="0.9" d="M782.25,-582.65C807.19,-583.64 845.39,-585.15 876.99,-586.41"/>
<polygon fill="#9aa8b8" stroke="#9aa8b8" stroke-width="0.9" points="876.69,-588.32 882.27,-586.62 876.85,-584.48 876.69,-588.32"/>
</g>
<!-- n7 -->
<g id="node8" class="node">
<title>n7</title>
<path fill="#f7f9fb" stroke="#8b9bb0" d="M470.06,-160.6C470.06,-160.6 424.04,-160.6 424.04,-160.6 418.04,-160.6 412.04,-154.6 412.04,-148.6 412.04,-148.6 412.04,-136.6 412.04,-136.6 412.04,-130.6 418.04,-124.6 424.04,-124.6 424.04,-124.6 470.06,-124.6 470.06,-124.6 476.06,-124.6 482.06,-130.6 482.06,-136.6 482.06,-136.6 482.06,-148.6 482.06,-148.6 482.06,-154.6 476.06,-160.6 470.06,-160.6"/>
<text xml:space="preserve" text-anchor="start" x="417.8" y="-144.1" font-family="Inter,Arial" font-weight="bold" font-size="10.00" fill="#172033">proc&#45;macro2</text>
<text xml:space="preserve" text-anchor="start" x="430.92" y="-134.1" font-family="Inter,Arial" font-size="10.00" fill="#172033">1.0.106</text>
</g>
<!-- n11 -->
<g id="node12" class="node">
<title>n11</title>
<path fill="#f7f9fb" stroke="#8b9bb0" d="M472.68,-282.6C472.68,-282.6 421.41,-282.6 421.41,-282.6 415.41,-282.6 409.41,-276.6 409.41,-270.6 409.41,-270.6 409.41,-258.6 409.41,-258.6 409.41,-252.6 415.41,-246.6 421.41,-246.6 421.41,-246.6 472.68,-246.6 472.68,-246.6 478.68,-246.6 484.68,-252.6 484.68,-258.6 484.68,-258.6 484.68,-270.6 484.68,-270.6 484.68,-276.6 478.68,-282.6 472.68,-282.6"/>
<text xml:space="preserve" text-anchor="start" x="415.17" y="-266.1" font-family="Inter,Arial" font-weight="bold" font-size="10.00" fill="#172033">unicode&#45;ident</text>
<text xml:space="preserve" text-anchor="start" x="433.55" y="-256.1" font-family="Inter,Arial" font-size="10.00" fill="#172033">1.0.24</text>
</g>
<!-- n7&#45;&gt;n11 -->
<g id="edge10" class="edge">
<title>n7&#45;&gt;n11</title>
<path fill="none" stroke="#9aa8b8" stroke-width="0.9" d="M411.85,-147.85C392.65,-152.79 370.74,-162.38 360.46,-180.93 350.9,-198.17 350.9,-208.03 360.46,-225.27 369.23,-241.09 386.35,-250.57 403.06,-256.24"/>
<polygon fill="#9aa8b8" stroke="#9aa8b8" stroke-width="0.9" points="402.07,-257.95 407.89,-257.76 403.22,-254.27 402.07,-257.95"/>
</g>
<!-- n7&#45;&gt;n11 -->
<!-- n8 -->
<g id="node9" class="node">
<title>n8</title>
<path fill="#f7f9fb" stroke="#8b9bb0" d="M608.07,-221.6C608.07,-221.6 578.07,-221.6 578.07,-221.6 572.07,-221.6 566.07,-215.6 566.07,-209.6 566.07,-209.6 566.07,-197.6 566.07,-197.6 566.07,-191.6 572.07,-185.6 578.07,-185.6 578.07,-185.6 608.07,-185.6 608.07,-185.6 614.07,-185.6 620.07,-191.6 620.07,-197.6 620.07,-197.6 620.07,-209.6 620.07,-209.6 620.07,-215.6 614.07,-221.6 608.07,-221.6"/>
<text xml:space="preserve" text-anchor="start" x="579.94" y="-205.1" font-family="Inter,Arial" font-weight="bold" font-size="10.00" fill="#172033">quote</text>
<text xml:space="preserve" text-anchor="start" x="579.57" y="-195.1" font-family="Inter,Arial" font-size="10.00" fill="#172033">1.0.45</text>
</g>
<!-- n8&#45;&gt;n7 -->
<g id="edge11" class="edge">
<title>n8&#45;&gt;n7</title>
<path fill="none" stroke="#9aa8b8" stroke-width="0.9" d="M565.86,-192.17C552.29,-186.28 535.43,-179 520.31,-172.6 510.06,-168.26 498.96,-163.62 488.61,-159.32"/>
<polygon fill="#9aa8b8" stroke="#9aa8b8" stroke-width="0.9" points="489.35,-157.54 483.53,-157.21 487.88,-161.1 489.35,-157.54"/>
</g>
<!-- n9 -->
<g id="node10" class="node">
<title>n9</title>
<path fill="#f7f9fb" stroke="#8b9bb0" d="M462.05,-221.6C462.05,-221.6 432.05,-221.6 432.05,-221.6 426.05,-221.6 420.05,-215.6 420.05,-209.6 420.05,-209.6 420.05,-197.6 420.05,-197.6 420.05,-191.6 426.05,-185.6 432.05,-185.6 432.05,-185.6 462.05,-185.6 462.05,-185.6 468.05,-185.6 474.05,-191.6 474.05,-197.6 474.05,-197.6 474.05,-209.6 474.05,-209.6 474.05,-215.6 468.05,-221.6 462.05,-221.6"/>
<text xml:space="preserve" text-anchor="start" x="438.8" y="-205.1" font-family="Inter,Arial" font-weight="bold" font-size="10.00" fill="#172033">syn</text>
<text xml:space="preserve" text-anchor="start" x="430.92" y="-195.1" font-family="Inter,Arial" font-size="10.00" fill="#172033">2.0.117</text>
</g>
<!-- n9&#45;&gt;n7 -->
<g id="edge12" class="edge">
<title>n9&#45;&gt;n7</title>
<path fill="none" stroke="#9aa8b8" stroke-width="0.9" d="M447.05,-185.17C447.05,-179.18 447.05,-173.19 447.05,-167.21"/>
<polygon fill="#9aa8b8" stroke="#9aa8b8" stroke-width="0.9" points="448.98,-167.57 447.05,-162.07 445.13,-167.57 448.98,-167.57"/>
</g>
<!-- n9&#45;&gt;n8 -->
<g id="edge13" class="edge">
<title>n9&#45;&gt;n8</title>
<path fill="none" stroke="#9aa8b8" stroke-width="0.9" d="M474.47,-203.6C498.32,-203.6 533.51,-203.6 559.18,-203.6"/>
<polygon fill="#9aa8b8" stroke="#9aa8b8" stroke-width="0.9" points="558.96,-205.53 564.46,-203.6 558.96,-201.68 558.96,-205.53"/>
</g>
<!-- n9&#45;&gt;n11 -->
<g id="edge14" class="edge">
<title>n9&#45;&gt;n11</title>
<path fill="none" stroke="#9aa8b8" stroke-width="0.9" d="M463.96,-221.71C467.26,-227.82 468.11,-233.94 466.53,-240.06"/>
<polygon fill="#9aa8b8" stroke="#9aa8b8" stroke-width="0.9" points="464.84,-239.08 464.63,-244.9 468.43,-240.49 464.84,-239.08"/>
</g>
<!-- n10&#45;&gt;n5 -->
<!-- n11&#45;&gt;n9 -->
<!-- n12 -->
<g id="node13" class="node">
<title>n12</title>
<path fill="#f7f9fb" stroke="#8b9bb0" d="M271.54,-343.2C271.54,-343.2 216.52,-343.2 216.52,-343.2 210.52,-343.2 204.52,-337.2 204.52,-331.2 204.52,-331.2 204.52,-318 204.52,-318 204.52,-312 210.52,-306 216.52,-306 216.52,-306 271.54,-306 271.54,-306 277.54,-306 283.54,-312 283.54,-318 283.54,-318 283.54,-331.2 283.54,-331.2 283.54,-337.2 277.54,-343.2 271.54,-343.2"/>
<text xml:space="preserve" text-anchor="start" x="210.28" y="-331.1" font-family="Inter,Arial" font-weight="bold" font-size="10.00" fill="#172033">zeroize_derive</text>
<text xml:space="preserve" text-anchor="start" x="233.15" y="-321.1" font-family="Inter,Arial" font-size="10.00" fill="#172033">1.4.3</text>
<text xml:space="preserve" text-anchor="start" x="219.65" y="-311.1" font-family="Inter,Arial" font-size="10.00" fill="#172033">proc&#45;macro</text>
</g>
<!-- n12&#45;&gt;n7 -->
<g id="edge15" class="edge">
<title>n12&#45;&gt;n7</title>
<path fill="none" stroke="#9aa8b8" stroke-width="0.9" d="M283.72,-319.04C301.05,-314.73 320.51,-307.1 333.79,-293.6 373.5,-253.22 335.25,-214.11 373.79,-172.6 382.29,-163.44 394.01,-157 405.54,-152.49"/>
<polygon fill="#9aa8b8" stroke="#9aa8b8" stroke-width="0.9" points="406.1,-154.33 410.62,-150.65 404.79,-150.71 406.1,-154.33"/>
</g>
<!-- n12&#45;&gt;n8 -->
<g id="edge16" class="edge">
<title>n12&#45;&gt;n8</title>
<path fill="none" stroke="#9aa8b8" stroke-width="0.9" d="M283.64,-335.22C339.83,-348.36 445.55,-364.17 520.31,-321.6 555.42,-301.61 575.4,-256.82 584.95,-228.53"/>
<polygon fill="#9aa8b8" stroke="#9aa8b8" stroke-width="0.9" points="586.76,-229.19 586.63,-223.36 583.1,-228 586.76,-229.19"/>
</g>
<!-- n12&#45;&gt;n9 -->
<g id="edge17" class="edge">
<title>n12&#45;&gt;n9</title>
<path fill="none" stroke="#9aa8b8" stroke-width="0.9" d="M283.97,-316.84C300.55,-312.13 319.34,-304.8 333.79,-293.6 359.12,-273.97 349.03,-253.95 373.79,-233.6 385.24,-224.18 400.06,-217.34 413.3,-212.6"/>
<polygon fill="#9aa8b8" stroke="#9aa8b8" stroke-width="0.9" points="413.77,-214.47 418.36,-210.87 412.53,-210.82 413.77,-214.47"/>
</g>
<!-- in1 -->
<g id="node15" class="node">
<title>in1</title>
<polygon fill="#eef6ff" stroke="#4b8fc5" points="493.68,-1187.2 394.41,-1187.2 394.41,-1150 499.68,-1150 499.68,-1181.2 493.68,-1187.2"/>
<polyline fill="none" stroke="#4b8fc5" points="493.68,-1187.2 493.68,-1181.2"/>
<polyline fill="none" stroke="#4b8fc5" points="499.68,-1181.2 493.68,-1181.2"/>
<text xml:space="preserve" text-anchor="start" x="400.17" y="-1175.1" font-family="Inter,Arial" font-size="10.00" fill="#123d5c">from alsa&#45;v0.11.0.svg</text>
<text xml:space="preserve" text-anchor="start" x="435.42" y="-1165.1" font-family="Inter,Arial" font-weight="bold" font-size="10.00" fill="#123d5c">cfg&#45;if</text>
<text xml:space="preserve" text-anchor="start" x="436.17" y="-1155.1" font-family="Inter,Arial" font-size="10.00" fill="#123d5c">1.0.4</text>
</g>
<!-- in1&#45;&gt;n1 -->
<g id="edge20" class="edge">
<title>in1&#45;&gt;n1</title>
<path fill="none" stroke="#4b8fc5" stroke-width="0.9" stroke-dasharray="5,2" d="M499.86,-1151.28C507.2,-1147.47 514.29,-1142.95 520.31,-1137.6 551.31,-1110.09 572.36,-1065.85 583.28,-1038.32"/>
<polygon fill="#4b8fc5" stroke="#4b8fc5" stroke-width="0.9" points="585.03,-1039.14 585.21,-1033.31 581.44,-1037.75 585.03,-1039.14"/>
</g>
<!-- in2 -->
<g id="node16" class="node">
<title>in2</title>
<polygon fill="#eef6ff" stroke="#4b8fc5" points="298.16,-281.2 183.89,-281.2 183.89,-204 304.16,-204 304.16,-275.2 298.16,-281.2"/>
<polyline fill="none" stroke="#4b8fc5" points="298.16,-281.2 298.16,-275.2"/>
<polyline fill="none" stroke="#4b8fc5" points="304.16,-275.2 298.16,-275.2"/>
<text xml:space="preserve" text-anchor="start" x="189.65" y="-269.1" font-family="Inter,Arial" font-size="10.00" fill="#123d5c">from crab&#45;usb&#45;v0.9.1.svg</text>
<text xml:space="preserve" text-anchor="start" x="214.78" y="-259.1" font-family="Inter,Arial" font-weight="bold" font-size="10.00" fill="#123d5c">proc&#45;macro2</text>
<text xml:space="preserve" text-anchor="start" x="227.9" y="-249.1" font-family="Inter,Arial" font-size="10.00" fill="#123d5c">1.0.106</text>
<text xml:space="preserve" text-anchor="start" x="230.9" y="-239.1" font-family="Inter,Arial" font-weight="bold" font-size="10.00" fill="#123d5c">quote</text>
<text xml:space="preserve" text-anchor="start" x="230.53" y="-229.1" font-family="Inter,Arial" font-size="10.00" fill="#123d5c">1.0.45</text>
<text xml:space="preserve" text-anchor="start" x="235.78" y="-219.1" font-family="Inter,Arial" font-weight="bold" font-size="10.00" fill="#123d5c">syn</text>
<text xml:space="preserve" text-anchor="start" x="227.9" y="-209.1" font-family="Inter,Arial" font-size="10.00" fill="#123d5c">2.0.117</text>
</g>
<!-- in2&#45;&gt;n7 -->
<g id="edge21" class="edge">
<title>in2&#45;&gt;n7</title>
<path fill="none" stroke="#4b8fc5" stroke-width="0.9" stroke-dasharray="5,2" d="M304.62,-208.52C326.16,-196.65 350.83,-183.57 373.79,-172.6 383.84,-167.8 394.86,-163 405.2,-158.69"/>
<polygon fill="#4b8fc5" stroke="#4b8fc5" stroke-width="0.9" points="405.93,-160.47 410.28,-156.59 404.46,-156.91 405.93,-160.47"/>
</g>
<!-- in2&#45;&gt;n8 -->
<g id="edge22" class="edge">
<title>in2&#45;&gt;n8</title>
<path fill="none" stroke="#4b8fc5" stroke-width="0.9" stroke-dasharray="5,2" d="M304.49,-274.24C362.23,-300.38 451.06,-328.18 520.31,-294.6 548.61,-280.88 569.1,-249.99 580.77,-228.01"/>
<polygon fill="#4b8fc5" stroke="#4b8fc5" stroke-width="0.9" points="582.4,-229.05 583.21,-223.28 578.98,-227.29 582.4,-229.05"/>
</g>
<!-- in2&#45;&gt;n9 -->
<g id="edge23" class="edge">
<title>in2&#45;&gt;n9</title>
<path fill="none" stroke="#4b8fc5" stroke-width="0.9" stroke-dasharray="5,2" d="M304.53,-231.06C340.05,-224.17 383.81,-215.67 413.19,-209.98"/>
<polygon fill="#4b8fc5" stroke="#4b8fc5" stroke-width="0.9" points="413.23,-211.93 418.26,-208.99 412.49,-208.15 413.23,-211.93"/>
</g>
<!-- in3 -->
<g id="node17" class="node">
<title>in3</title>
<polygon fill="#eef6ff" stroke="#4b8fc5" points="502.68,-1125.2 385.41,-1125.2 385.41,-1088 508.68,-1088 508.68,-1119.2 502.68,-1125.2"/>
<polyline fill="none" stroke="#4b8fc5" points="502.68,-1125.2 502.68,-1119.2"/>
<polyline fill="none" stroke="#4b8fc5" points="508.68,-1119.2 502.68,-1119.2"/>
<text xml:space="preserve" text-anchor="start" x="391.17" y="-1113.1" font-family="Inter,Arial" font-size="10.00" fill="#123d5c">from crc32fast&#45;v1.5.0.svg</text>
<text xml:space="preserve" text-anchor="start" x="435.42" y="-1103.1" font-family="Inter,Arial" font-weight="bold" font-size="10.00" fill="#123d5c">cfg&#45;if</text>
<text xml:space="preserve" text-anchor="start" x="436.17" y="-1093.1" font-family="Inter,Arial" font-size="10.00" fill="#123d5c">1.0.4</text>
</g>
<!-- in3&#45;&gt;n1 -->
<g id="edge24" class="edge">
<title>in3&#45;&gt;n1</title>
<path fill="none" stroke="#4b8fc5" stroke-width="0.9" stroke-dasharray="5,2" d="M498.05,-1087.55C505.71,-1083.95 513.37,-1079.94 520.31,-1075.6 538.09,-1064.48 555.94,-1049.08 569.39,-1036.41"/>
<polygon fill="#4b8fc5" stroke="#4b8fc5" stroke-width="0.9" points="570.5,-1038.01 573.15,-1032.82 567.84,-1035.22 570.5,-1038.01"/>
</g>
<!-- in4 -->
<g id="node18" class="node">
<title>in4</title>
<polygon fill="#eef6ff" stroke="#4b8fc5" points="488.06,-600.2 400.04,-600.2 400.04,-563 494.06,-563 494.06,-594.2 488.06,-600.2"/>
<polyline fill="none" stroke="#4b8fc5" points="488.06,-600.2 488.06,-594.2"/>
<polyline fill="none" stroke="#4b8fc5" points="494.06,-594.2 488.06,-594.2"/>
<text xml:space="preserve" text-anchor="start" x="405.8" y="-588.1" font-family="Inter,Arial" font-size="10.00" fill="#123d5c">from ctr&#45;v0.9.2.svg</text>
<text xml:space="preserve" text-anchor="start" x="432.42" y="-578.1" font-family="Inter,Arial" font-weight="bold" font-size="10.00" fill="#123d5c">cipher</text>
<text xml:space="preserve" text-anchor="start" x="436.17" y="-568.1" font-family="Inter,Arial" font-size="10.00" fill="#123d5c">0.4.4</text>
</g>
<!-- in4&#45;&gt;n2 -->
<g id="edge25" class="edge">
<title>in4&#45;&gt;n2</title>
<path fill="none" stroke="#4b8fc5" stroke-width="0.9" stroke-dasharray="5,2" d="M494.41,-581.6C515.5,-581.6 539.97,-581.6 559.14,-581.6"/>
<polygon fill="#4b8fc5" stroke="#4b8fc5" stroke-width="0.9" points="559.09,-583.53 564.59,-581.6 559.09,-579.68 559.09,-583.53"/>
</g>
<!-- in5 -->
<g id="node19" class="node">
<title>in5</title>
<polygon fill="#eef6ff" stroke="#4b8fc5" points="499.68,-1063.2 388.41,-1063.2 388.41,-1026 505.68,-1026 505.68,-1057.2 499.68,-1063.2"/>
<polyline fill="none" stroke="#4b8fc5" points="499.68,-1063.2 499.68,-1057.2"/>
<polyline fill="none" stroke="#4b8fc5" points="505.68,-1057.2 499.68,-1057.2"/>
<text xml:space="preserve" text-anchor="start" x="394.17" y="-1051.1" font-family="Inter,Arial" font-size="10.00" fill="#123d5c">from dma&#45;api&#45;v0.7.3.svg</text>
<text xml:space="preserve" text-anchor="start" x="435.42" y="-1041.1" font-family="Inter,Arial" font-weight="bold" font-size="10.00" fill="#123d5c">cfg&#45;if</text>
<text xml:space="preserve" text-anchor="start" x="436.17" y="-1031.1" font-family="Inter,Arial" font-size="10.00" fill="#123d5c">1.0.4</text>
</g>
<!-- in5&#45;&gt;n1 -->
<g id="edge26" class="edge">
<title>in5&#45;&gt;n1</title>
<path fill="none" stroke="#4b8fc5" stroke-width="0.9" stroke-dasharray="5,2" d="M505.8,-1032.17C524.01,-1028.25 543.5,-1024.06 559.33,-1020.65"/>
<polygon fill="#4b8fc5" stroke="#4b8fc5" stroke-width="0.9" points="559.57,-1022.56 564.55,-1019.52 558.76,-1018.8 559.57,-1022.56"/>
</g>
<!-- in6 -->
<g id="node20" class="node">
<title>in6</title>
<polygon fill="#eef6ff" stroke="#4b8fc5" points="322.16,-179.2 159.89,-179.2 159.89,-102 328.16,-102 328.16,-173.2 322.16,-179.2"/>
<polyline fill="none" stroke="#4b8fc5" points="322.16,-179.2 322.16,-173.2"/>
<polyline fill="none" stroke="#4b8fc5" points="328.16,-173.2 322.16,-173.2"/>
<text xml:space="preserve" text-anchor="start" x="165.65" y="-167.1" font-family="Inter,Arial" font-size="10.00" fill="#123d5c">from embassy&#45;executor&#45;v0.10.0.svg</text>
<text xml:space="preserve" text-anchor="start" x="214.78" y="-157.1" font-family="Inter,Arial" font-weight="bold" font-size="10.00" fill="#123d5c">proc&#45;macro2</text>
<text xml:space="preserve" text-anchor="start" x="227.9" y="-147.1" font-family="Inter,Arial" font-size="10.00" fill="#123d5c">1.0.106</text>
<text xml:space="preserve" text-anchor="start" x="230.9" y="-137.1" font-family="Inter,Arial" font-weight="bold" font-size="10.00" fill="#123d5c">quote</text>
<text xml:space="preserve" text-anchor="start" x="230.53" y="-127.1" font-family="Inter,Arial" font-size="10.00" fill="#123d5c">1.0.45</text>
<text xml:space="preserve" text-anchor="start" x="235.78" y="-117.1" font-family="Inter,Arial" font-weight="bold" font-size="10.00" fill="#123d5c">syn</text>
<text xml:space="preserve" text-anchor="start" x="227.9" y="-107.1" font-family="Inter,Arial" font-size="10.00" fill="#123d5c">2.0.117</text>
</g>
<!-- in6&#45;&gt;n7 -->
<g id="edge27" class="edge">
<title>in6&#45;&gt;n7</title>
<path fill="none" stroke="#4b8fc5" stroke-width="0.9" stroke-dasharray="5,2" d="M328.53,-141.43C354.93,-141.69 382.94,-141.97 404.98,-142.19"/>
<polygon fill="#4b8fc5" stroke="#4b8fc5" stroke-width="0.9" points="404.75,-144.11 410.27,-142.24 404.78,-140.26 404.75,-144.11"/>
</g>
<!-- in6&#45;&gt;n8 -->
<g id="edge28" class="edge">
<title>in6&#45;&gt;n8</title>
<path fill="none" stroke="#4b8fc5" stroke-width="0.9" stroke-dasharray="5,2" d="M328.59,-109.25C385.38,-93.2 460.72,-82.5 520.31,-111.6 548.93,-125.57 569.46,-157.08 581.05,-179.32"/>
<polygon fill="#4b8fc5" stroke="#4b8fc5" stroke-width="0.9" points="579.26,-180.06 583.46,-184.11 582.7,-178.33 579.26,-180.06"/>
</g>
<!-- in6&#45;&gt;n9 -->
<g id="edge29" class="edge">
<title>in6&#45;&gt;n9</title>
<path fill="none" stroke="#4b8fc5" stroke-width="0.9" stroke-dasharray="5,2" d="M328.53,-166.77C358.51,-176.16 390.56,-186.21 413.61,-193.43"/>
<polygon fill="#4b8fc5" stroke="#4b8fc5" stroke-width="0.9" points="412.74,-195.18 418.56,-194.98 413.89,-191.5 412.74,-195.18"/>
</g>
<!-- in7 -->
<g id="node21" class="node">
<title>in7</title>
<polygon fill="#eef6ff" stroke="#4b8fc5" points="514.31,-1001.2 373.79,-1001.2 373.79,-964 520.31,-964 520.31,-995.2 514.31,-1001.2"/>
<polyline fill="none" stroke="#4b8fc5" points="514.31,-1001.2 514.31,-995.2"/>
<polyline fill="none" stroke="#4b8fc5" points="520.31,-995.2 514.31,-995.2"/>
<text xml:space="preserve" text-anchor="start" x="379.55" y="-989.1" font-family="Inter,Arial" font-size="10.00" fill="#123d5c">from embassy&#45;sync&#45;v0.8.0.svg</text>
<text xml:space="preserve" text-anchor="start" x="435.42" y="-979.1" font-family="Inter,Arial" font-weight="bold" font-size="10.00" fill="#123d5c">cfg&#45;if</text>
<text xml:space="preserve" text-anchor="start" x="436.17" y="-969.1" font-family="Inter,Arial" font-size="10.00" fill="#123d5c">1.0.4</text>
</g>
<!-- in7&#45;&gt;n1 -->
<g id="edge30" class="edge">
<title>in7&#45;&gt;n1</title>
<path fill="none" stroke="#4b8fc5" stroke-width="0.9" stroke-dasharray="5,2" d="M520.48,-998.19C534.07,-1001.11 547.63,-1004.03 559.24,-1006.53"/>
<polygon fill="#4b8fc5" stroke="#4b8fc5" stroke-width="0.9" points="558.72,-1008.39 564.51,-1007.67 559.53,-1004.63 558.72,-1008.39"/>
</g>
<!-- in8 -->
<g id="node22" class="node">
<title>in8</title>
<polygon fill="#eef6ff" stroke="#4b8fc5" points="837.85,-682.2 665.83,-682.2 665.83,-625 843.85,-625 843.85,-676.2 837.85,-682.2"/>
<polyline fill="none" stroke="#4b8fc5" points="837.85,-682.2 837.85,-676.2"/>
<polyline fill="none" stroke="#4b8fc5" points="843.85,-676.2 837.85,-676.2"/>
<text xml:space="preserve" text-anchor="start" x="671.59" y="-670.1" font-family="Inter,Arial" font-size="10.00" fill="#123d5c">from embedded&#45;websocket&#45;v0.9.4.svg</text>
<text xml:space="preserve" text-anchor="start" x="724.46" y="-660.1" font-family="Inter,Arial" font-weight="bold" font-size="10.00" fill="#123d5c">generic&#45;array</text>
<text xml:space="preserve" text-anchor="start" x="741.34" y="-650.1" font-family="Inter,Arial" font-size="10.00" fill="#123d5c">0.14.7</text>
<text xml:space="preserve" text-anchor="start" x="718.09" y="-640.1" font-family="Inter,Arial" font-weight="bold" font-size="10.00" fill="#123d5c">crypto&#45;common</text>
<text xml:space="preserve" text-anchor="start" x="743.96" y="-630.1" font-family="Inter,Arial" font-size="10.00" fill="#123d5c">0.1.7</text>
</g>
<!-- in8&#45;&gt;n4 -->
<g id="edge31" class="edge">
<title>in8&#45;&gt;n4</title>
<path fill="none" stroke="#4b8fc5" stroke-width="0.9" stroke-dasharray="5,2" d="M836.04,-682.7C852.44,-688.65 869.22,-694.74 884.07,-700.13"/>
<polygon fill="#4b8fc5" stroke="#4b8fc5" stroke-width="0.9" points="883.21,-701.86 889.03,-701.93 884.52,-698.24 883.21,-701.86"/>
</g>
<!-- in8&#45;&gt;n5 -->
<g id="edge32" class="edge">
<title>in8&#45;&gt;n5</title>
<path fill="none" stroke="#4b8fc5" stroke-width="0.9" stroke-dasharray="5,2" d="M834.75,-624.52C849.15,-619.22 863.88,-613.79 877.39,-608.81"/>
<polygon fill="#4b8fc5" stroke="#4b8fc5" stroke-width="0.9" points="877.73,-610.74 882.23,-607.03 876.4,-607.12 877.73,-610.74"/>
</g>
<!-- in9 -->
<g id="node23" class="node">
<title>in9</title>
<polygon fill="#eef6ff" stroke="#4b8fc5" points="507.93,-939.2 380.16,-939.2 380.16,-902 513.93,-902 513.93,-933.2 507.93,-939.2"/>
<polyline fill="none" stroke="#4b8fc5" points="507.93,-939.2 507.93,-933.2"/>
<polyline fill="none" stroke="#4b8fc5" points="513.93,-933.2 507.93,-933.2"/>
<text xml:space="preserve" text-anchor="start" x="385.92" y="-927.1" font-family="Inter,Arial" font-size="10.00" fill="#123d5c">from getrandom&#45;v0.2.17.svg</text>
<text xml:space="preserve" text-anchor="start" x="435.42" y="-917.1" font-family="Inter,Arial" font-weight="bold" font-size="10.00" fill="#123d5c">cfg&#45;if</text>
<text xml:space="preserve" text-anchor="start" x="436.17" y="-907.1" font-family="Inter,Arial" font-size="10.00" fill="#123d5c">1.0.4</text>
</g>
<!-- in9&#45;&gt;n1 -->
<g id="edge33" class="edge">
<title>in9&#45;&gt;n1</title>
<path fill="none" stroke="#4b8fc5" stroke-width="0.9" stroke-dasharray="5,2" d="M498.05,-939.65C505.71,-943.25 513.37,-947.26 520.31,-951.6 538.09,-962.72 555.94,-978.12 569.39,-990.79"/>
<polygon fill="#4b8fc5" stroke="#4b8fc5" stroke-width="0.9" points="567.84,-991.98 573.15,-994.38 570.5,-989.19 567.84,-991.98"/>
</g>
<!-- in10 -->
<g id="node24" class="node">
<title>in10</title>
<polygon fill="#eef6ff" stroke="#4b8fc5" points="327.79,-618.2 154.27,-618.2 154.27,-431 333.79,-431 333.79,-612.2 327.79,-618.2"/>
<polyline fill="none" stroke="#4b8fc5" points="327.79,-618.2 327.79,-612.2"/>
<polyline fill="none" stroke="#4b8fc5" points="333.79,-612.2 327.79,-612.2"/>
<text xml:space="preserve" text-anchor="start" x="160.03" y="-606.1" font-family="Inter,Arial" font-size="10.00" fill="#123d5c">from rustls&#45;rustcrypto&#45;v0.0.2&#45;alpha.svg</text>
<text xml:space="preserve" text-anchor="start" x="207.28" y="-596.1" font-family="Inter,Arial" font-weight="bold" font-size="10.00" fill="#123d5c">crypto&#45;common</text>
<text xml:space="preserve" text-anchor="start" x="233.15" y="-586.1" font-family="Inter,Arial" font-size="10.00" fill="#123d5c">0.1.7</text>
<text xml:space="preserve" text-anchor="start" x="213.65" y="-576.1" font-family="Inter,Arial" font-weight="bold" font-size="10.00" fill="#123d5c">generic&#45;array</text>
<text xml:space="preserve" text-anchor="start" x="230.53" y="-566.1" font-family="Inter,Arial" font-size="10.00" fill="#123d5c">0.14.7</text>
<text xml:space="preserve" text-anchor="start" x="236.15" y="-556.1" font-family="Inter,Arial" font-weight="bold" font-size="10.00" fill="#123d5c">aes</text>
<text xml:space="preserve" text-anchor="start" x="233.15" y="-546.1" font-family="Inter,Arial" font-size="10.00" fill="#123d5c">0.8.4</text>
<text xml:space="preserve" text-anchor="start" x="229.4" y="-536.1" font-family="Inter,Arial" font-weight="bold" font-size="10.00" fill="#123d5c">cipher</text>
<text xml:space="preserve" text-anchor="start" x="233.15" y="-526.1" font-family="Inter,Arial" font-size="10.00" fill="#123d5c">0.4.4</text>
<text xml:space="preserve" text-anchor="start" x="232.4" y="-516.1" font-family="Inter,Arial" font-weight="bold" font-size="10.00" fill="#123d5c">cfg&#45;if</text>
<text xml:space="preserve" text-anchor="start" x="233.15" y="-506.1" font-family="Inter,Arial" font-size="10.00" fill="#123d5c">1.0.4</text>
<text xml:space="preserve" text-anchor="start" x="217.03" y="-496.1" font-family="Inter,Arial" font-weight="bold" font-size="10.00" fill="#123d5c">cpufeatures</text>
<text xml:space="preserve" text-anchor="start" x="230.53" y="-486.1" font-family="Inter,Arial" font-size="10.00" fill="#123d5c">0.2.17</text>
<text xml:space="preserve" text-anchor="start" x="214.78" y="-476.1" font-family="Inter,Arial" font-weight="bold" font-size="10.00" fill="#123d5c">proc&#45;macro2</text>
<text xml:space="preserve" text-anchor="start" x="227.9" y="-466.1" font-family="Inter,Arial" font-size="10.00" fill="#123d5c">1.0.106</text>
<text xml:space="preserve" text-anchor="start" x="230.9" y="-456.1" font-family="Inter,Arial" font-weight="bold" font-size="10.00" fill="#123d5c">quote</text>
<text xml:space="preserve" text-anchor="start" x="230.53" y="-446.1" font-family="Inter,Arial" font-size="10.00" fill="#123d5c">1.0.45</text>
<text xml:space="preserve" text-anchor="start" x="223.03" y="-436.1" font-family="Inter,Arial" font-size="10.00" fill="#123d5c">... 1 more</text>
</g>
<!-- in10&#45;&gt;n0 -->
<g id="edge34" class="edge">
<title>in10&#45;&gt;n0</title>
<path fill="none" stroke="#4b8fc5" stroke-width="0.9" stroke-dasharray="5,2" d="M334.02,-588.67C347.11,-597.13 360.62,-605.36 373.79,-612.6 386.44,-619.55 400.96,-626.04 413.65,-631.28"/>
<polygon fill="#4b8fc5" stroke="#4b8fc5" stroke-width="0.9" points="412.64,-632.94 418.46,-633.23 414.09,-629.37 412.64,-632.94"/>
</g>
<!-- in10&#45;&gt;n1 -->
<g id="edge35" class="edge">
<title>in10&#45;&gt;n1</title>
<path fill="none" stroke="#4b8fc5" stroke-width="0.9" stroke-dasharray="5,2" d="M247.03,-618.39C253.06,-798.11 277.21,-1180.43 373.79,-1261.6 423.64,-1303.5 468.26,-1300.73 520.31,-1261.6 556.46,-1234.43 580.21,-1095.99 588.64,-1038.59"/>
<polygon fill="#4b8fc5" stroke="#4b8fc5" stroke-width="0.9" points="590.52,-1039.07 589.4,-1033.35 586.71,-1038.52 590.52,-1039.07"/>
</g>
<!-- in10&#45;&gt;n2 -->
<g id="edge36" class="edge">
<title>in10&#45;&gt;n2</title>
<path fill="none" stroke="#4b8fc5" stroke-width="0.9" stroke-dasharray="5,2" d="M334.26,-525.97C388.74,-528.54 459.39,-534.98 520.31,-550.6 533.63,-554.02 547.65,-559.58 559.73,-565.07"/>
<polygon fill="#4b8fc5" stroke="#4b8fc5" stroke-width="0.9" points="558.82,-566.77 564.62,-567.34 560.44,-563.28 558.82,-566.77"/>
</g>
<!-- in10&#45;&gt;n3 -->
<g id="edge37" class="edge">
<title>in10&#45;&gt;n3</title>
<path fill="none" stroke="#4b8fc5" stroke-width="0.9" stroke-dasharray="5,2" d="M311.09,-618.41C329.37,-639.04 350.63,-659.05 373.79,-673.6 430.18,-709.04 507.7,-723.42 553.57,-729.09"/>
<polygon fill="#4b8fc5" stroke="#4b8fc5" stroke-width="0.9" points="553.06,-730.96 558.75,-729.7 553.52,-727.14 553.06,-730.96"/>
</g>
<!-- in10&#45;&gt;n4 -->
<g id="edge38" class="edge">
<title>in10&#45;&gt;n4</title>
<path fill="none" stroke="#4b8fc5" stroke-width="0.9" stroke-dasharray="5,2" d="M246.23,-618.35C250.79,-804.4 272.43,-1209.76 373.79,-1295.6 617.77,-1502.21 872.38,-875.93 923.13,-742.19"/>
<polygon fill="#4b8fc5" stroke="#4b8fc5" stroke-width="0.9" points="924.91,-742.95 925.05,-737.12 921.31,-741.59 924.91,-742.95"/>
</g>
<!-- in10&#45;&gt;n5 -->
<g id="edge39" class="edge">
<title>in10&#45;&gt;n5</title>
<path fill="none" stroke="#4b8fc5" stroke-width="0.9" stroke-dasharray="5,2" d="M334.03,-523.04C347.36,-522.86 360.94,-522.7 373.79,-522.6 583.07,-520.97 640.87,-499.6 843.85,-550.6 854.95,-553.39 866.45,-557.41 877.33,-561.8"/>
<polygon fill="#4b8fc5" stroke="#4b8fc5" stroke-width="0.9" points="876.58,-563.58 882.4,-563.9 878.05,-560.02 876.58,-563.58"/>
</g>
<!-- in10&#45;&gt;n7 -->
<g id="edge40" class="edge">
<title>in10&#45;&gt;n7</title>
<path fill="none" stroke="#4b8fc5" stroke-width="0.9" stroke-dasharray="5,2" d="M300.1,-430.56C312.49,-406.68 324.66,-380.67 333.79,-355.6 362.29,-277.38 320.4,-236.48 373.79,-172.6 381.88,-162.93 393.6,-156.32 405.25,-151.84"/>
<polygon fill="#4b8fc5" stroke="#4b8fc5" stroke-width="0.9" points="405.87,-153.66 410.42,-150.01 404.59,-150.03 405.87,-153.66"/>
</g>
<!-- in10&#45;&gt;n8 -->
<g id="edge41" class="edge">
<title>in10&#45;&gt;n8</title>
<path fill="none" stroke="#4b8fc5" stroke-width="0.9" stroke-dasharray="5,2" d="M334.12,-476.86C403.41,-438.42 492.34,-385.82 520.31,-354.6 554.12,-316.86 575.19,-260.37 585.17,-228.25"/>
<polygon fill="#4b8fc5" stroke="#4b8fc5" stroke-width="0.9" points="586.98,-228.91 586.74,-223.09 583.3,-227.79 586.98,-228.91"/>
</g>
<!-- in10&#45;&gt;n9 -->
<g id="edge42" class="edge">
<title>in10&#45;&gt;n9</title>
<path fill="none" stroke="#4b8fc5" stroke-width="0.9" stroke-dasharray="5,2" d="M297.86,-430.75C310.45,-406.64 323.27,-380.48 333.79,-355.6 356.02,-303.05 335.02,-275.47 373.79,-233.6 384.27,-222.28 399.68,-215.1 413.58,-210.61"/>
<polygon fill="#4b8fc5" stroke="#4b8fc5" stroke-width="0.9" points="413.82,-212.55 418.53,-209.13 412.71,-208.86 413.82,-212.55"/>
</g>
<!-- in11 -->
<g id="node25" class="node">
<title>in11</title>
<polygon fill="#eef6ff" stroke="#4b8fc5" points="296.66,-77.2 185.39,-77.2 185.39,0 302.66,0 302.66,-71.2 296.66,-77.2"/>
<polyline fill="none" stroke="#4b8fc5" points="296.66,-77.2 296.66,-71.2"/>
<polyline fill="none" stroke="#4b8fc5" points="302.66,-71.2 296.66,-71.2"/>
<text xml:space="preserve" text-anchor="start" x="191.15" y="-65.1" font-family="Inter,Arial" font-size="10.00" fill="#123d5c">from serde&#45;v1.0.228.svg</text>
<text xml:space="preserve" text-anchor="start" x="214.78" y="-55.1" font-family="Inter,Arial" font-weight="bold" font-size="10.00" fill="#123d5c">proc&#45;macro2</text>
<text xml:space="preserve" text-anchor="start" x="227.9" y="-45.1" font-family="Inter,Arial" font-size="10.00" fill="#123d5c">1.0.106</text>
<text xml:space="preserve" text-anchor="start" x="230.9" y="-35.1" font-family="Inter,Arial" font-weight="bold" font-size="10.00" fill="#123d5c">quote</text>
<text xml:space="preserve" text-anchor="start" x="230.53" y="-25.1" font-family="Inter,Arial" font-size="10.00" fill="#123d5c">1.0.45</text>
<text xml:space="preserve" text-anchor="start" x="235.78" y="-15.1" font-family="Inter,Arial" font-weight="bold" font-size="10.00" fill="#123d5c">syn</text>
<text xml:space="preserve" text-anchor="start" x="227.9" y="-5.1" font-family="Inter,Arial" font-size="10.00" fill="#123d5c">2.0.117</text>
</g>
<!-- in11&#45;&gt;n7 -->
<g id="edge43" class="edge">
<title>in11&#45;&gt;n7</title>
<path fill="none" stroke="#4b8fc5" stroke-width="0.9" stroke-dasharray="5,2" d="M302.9,-68.54C335.96,-85.64 376.57,-106.65 406.08,-121.92"/>
<polygon fill="#4b8fc5" stroke="#4b8fc5" stroke-width="0.9" points="404.85,-123.45 410.62,-124.27 406.62,-120.03 404.85,-123.45"/>
</g>
<!-- in11&#45;&gt;n8 -->
<g id="edge44" class="edge">
<title>in11&#45;&gt;n8</title>
<path fill="none" stroke="#4b8fc5" stroke-width="0.9" stroke-dasharray="5,2" d="M303.08,-35.7C362.58,-35.56 455.35,-43.49 520.31,-87.6 552.96,-109.77 573.51,-152.23 583.88,-179.17"/>
<polygon fill="#4b8fc5" stroke="#4b8fc5" stroke-width="0.9" points="581.97,-179.57 585.7,-184.05 585.58,-178.23 581.97,-179.57"/>
</g>
<!-- in11&#45;&gt;n9 -->
<g id="edge45" class="edge">
<title>in11&#45;&gt;n9</title>
<path fill="none" stroke="#4b8fc5" stroke-width="0.9" stroke-dasharray="5,2" d="M302.71,-64.96C313.94,-71.87 324.95,-80.1 333.79,-89.6 361.68,-119.58 344.21,-144.29 373.79,-172.6 384.72,-183.06 399.74,-190.28 413.25,-195.1"/>
<polygon fill="#4b8fc5" stroke="#4b8fc5" stroke-width="0.9" points="412.62,-196.91 418.44,-196.84 413.84,-193.26 412.62,-196.91"/>
</g>
<!-- in12 -->
<g id="node26" class="node">
<title>in12</title>
<polygon fill="#eef6ff" stroke="#4b8fc5" points="495.56,-795.2 392.54,-795.2 392.54,-738 501.56,-738 501.56,-789.2 495.56,-795.2"/>
<polyline fill="none" stroke="#4b8fc5" points="495.56,-795.2 495.56,-789.2"/>
<polyline fill="none" stroke="#4b8fc5" points="501.56,-789.2 495.56,-789.2"/>
<text xml:space="preserve" text-anchor="start" x="398.3" y="-783.1" font-family="Inter,Arial" font-size="10.00" fill="#123d5c">from sha1&#45;v0.10.6.svg</text>
<text xml:space="preserve" text-anchor="start" x="435.42" y="-773.1" font-family="Inter,Arial" font-weight="bold" font-size="10.00" fill="#123d5c">cfg&#45;if</text>
<text xml:space="preserve" text-anchor="start" x="436.17" y="-763.1" font-family="Inter,Arial" font-size="10.00" fill="#123d5c">1.0.4</text>
<text xml:space="preserve" text-anchor="start" x="420.05" y="-753.1" font-family="Inter,Arial" font-weight="bold" font-size="10.00" fill="#123d5c">cpufeatures</text>
<text xml:space="preserve" text-anchor="start" x="433.55" y="-743.1" font-family="Inter,Arial" font-size="10.00" fill="#123d5c">0.2.17</text>
</g>
<!-- in12&#45;&gt;n1 -->
<g id="edge46" class="edge">
<title>in12&#45;&gt;n1</title>
<path fill="none" stroke="#4b8fc5" stroke-width="0.9" stroke-dasharray="5,2" d="M501.98,-791.21C508.77,-795.94 515.14,-801.4 520.31,-807.6 565.68,-862.02 583.06,-946.92 589.13,-988.68"/>
<polygon fill="#4b8fc5" stroke="#4b8fc5" stroke-width="0.9" points="587.19,-988.71 589.86,-993.9 591.01,-988.18 587.19,-988.71"/>
</g>
<!-- in12&#45;&gt;n3 -->
<g id="edge47" class="edge">
<title>in12&#45;&gt;n3</title>
<path fill="none" stroke="#4b8fc5" stroke-width="0.9" stroke-dasharray="5,2" d="M501.68,-753.94C518.89,-749.88 537.61,-745.46 553.52,-741.7"/>
<polygon fill="#4b8fc5" stroke="#4b8fc5" stroke-width="0.9" points="553.92,-743.58 558.83,-740.45 553.04,-739.84 553.92,-743.58"/>
</g>
<!-- in13 -->
<g id="node27" class="node">
<title>in13</title>
<polygon fill="#eef6ff" stroke="#4b8fc5" points="495.56,-877.2 392.54,-877.2 392.54,-820 501.56,-820 501.56,-871.2 495.56,-877.2"/>
<polyline fill="none" stroke="#4b8fc5" points="495.56,-877.2 495.56,-871.2"/>
<polyline fill="none" stroke="#4b8fc5" points="501.56,-871.2 495.56,-871.2"/>
<text xml:space="preserve" text-anchor="start" x="398.3" y="-865.1" font-family="Inter,Arial" font-size="10.00" fill="#123d5c">from sha2&#45;v0.10.9.svg</text>
<text xml:space="preserve" text-anchor="start" x="435.42" y="-855.1" font-family="Inter,Arial" font-weight="bold" font-size="10.00" fill="#123d5c">cfg&#45;if</text>
<text xml:space="preserve" text-anchor="start" x="436.17" y="-845.1" font-family="Inter,Arial" font-size="10.00" fill="#123d5c">1.0.4</text>
<text xml:space="preserve" text-anchor="start" x="420.05" y="-835.1" font-family="Inter,Arial" font-weight="bold" font-size="10.00" fill="#123d5c">cpufeatures</text>
<text xml:space="preserve" text-anchor="start" x="433.55" y="-825.1" font-family="Inter,Arial" font-size="10.00" fill="#123d5c">0.2.17</text>
</g>
<!-- in13&#45;&gt;n1 -->
<g id="edge48" class="edge">
<title>in13&#45;&gt;n1</title>
<path fill="none" stroke="#4b8fc5" stroke-width="0.9" stroke-dasharray="5,2" d="M501.69,-874.65C508.37,-879.12 514.78,-884.12 520.31,-889.6 549.58,-918.62 571.02,-962.03 582.51,-989.04"/>
<polygon fill="#4b8fc5" stroke="#4b8fc5" stroke-width="0.9" points="580.66,-989.61 584.56,-993.94 584.22,-988.13 580.66,-989.61"/>
</g>
<!-- in13&#45;&gt;n3 -->
<g id="edge49" class="edge">
<title>in13&#45;&gt;n3</title>
<path fill="none" stroke="#4b8fc5" stroke-width="0.9" stroke-dasharray="5,2" d="M501.69,-820.53C508.15,-816.47 514.51,-812.12 520.31,-807.6 539.85,-792.38 559.1,-771.88 572.73,-756.16"/>
<polygon fill="#4b8fc5" stroke="#4b8fc5" stroke-width="0.9" points="574.13,-757.49 576.24,-752.06 571.2,-754.98 574.13,-757.49"/>
</g>
<!-- in14 -->
<g id="node28" class="node">
<title>in14</title>
<polygon fill="#eef6ff" stroke="#4b8fc5" points="502.31,-1249.2 385.79,-1249.2 385.79,-1212 508.31,-1212 508.31,-1243.2 502.31,-1249.2"/>
<polyline fill="none" stroke="#4b8fc5" points="502.31,-1249.2 502.31,-1243.2"/>
<polyline fill="none" stroke="#4b8fc5" points="508.31,-1243.2 502.31,-1243.2"/>
<text xml:space="preserve" text-anchor="start" x="391.55" y="-1237.1" font-family="Inter,Arial" font-size="10.00" fill="#123d5c">from smoltcp&#45;v0.13.1.svg</text>
<text xml:space="preserve" text-anchor="start" x="435.42" y="-1227.1" font-family="Inter,Arial" font-weight="bold" font-size="10.00" fill="#123d5c">cfg&#45;if</text>
<text xml:space="preserve" text-anchor="start" x="436.17" y="-1217.1" font-family="Inter,Arial" font-size="10.00" fill="#123d5c">1.0.4</text>
</g>
<!-- in14&#45;&gt;n1 -->
<g id="edge50" class="edge">
<title>in14&#45;&gt;n1</title>
<path fill="none" stroke="#4b8fc5" stroke-width="0.9" stroke-dasharray="5,2" d="M505,-1211.59C510.61,-1208.19 515.86,-1204.22 520.31,-1199.6 564.58,-1153.66 582.3,-1077.44 588.76,-1038.37"/>
<polygon fill="#4b8fc5" stroke="#4b8fc5" stroke-width="0.9" points="590.6,-1039.05 589.55,-1033.32 586.79,-1038.45 590.6,-1039.05"/>
</g>
<!-- in15 -->
<g id="node29" class="node">
<title>in15</title>
<polygon fill="#eef6ff" stroke="#4b8fc5" points="108.27,-348.2 0,-348.2 0,-301 114.27,-301 114.27,-342.2 108.27,-348.2"/>
<polyline fill="none" stroke="#4b8fc5" points="108.27,-348.2 108.27,-342.2"/>
<polyline fill="none" stroke="#4b8fc5" points="114.27,-342.2 108.27,-342.2"/>
<text xml:space="preserve" text-anchor="start" x="5.76" y="-336.1" font-family="Inter,Arial" font-size="10.00" fill="#123d5c">from zeroize&#45;v1.8.2.svg</text>
<text xml:space="preserve" text-anchor="start" x="23.38" y="-326.1" font-family="Inter,Arial" font-weight="bold" font-size="10.00" fill="#123d5c">zeroize_derive</text>
<text xml:space="preserve" text-anchor="start" x="46.26" y="-316.1" font-family="Inter,Arial" font-size="10.00" fill="#123d5c">1.4.3</text>
<text xml:space="preserve" text-anchor="start" x="32.76" y="-306.1" font-family="Inter,Arial" font-size="10.00" fill="#123d5c">proc&#45;macro</text>
</g>
<!-- in15&#45;&gt;n12 -->
<g id="edge51" class="edge">
<title>in15&#45;&gt;n12</title>
<path fill="none" stroke="#4b8fc5" stroke-width="0.9" stroke-dasharray="5,2" d="M114.61,-324.6C141.23,-324.6 172.55,-324.6 197.6,-324.6"/>
<polygon fill="#4b8fc5" stroke="#4b8fc5" stroke-width="0.9" points="197.3,-326.53 202.8,-324.6 197.3,-322.68 197.3,-326.53"/>
</g>
</g>
</svg>
