<?xml version="1.0" encoding="UTF-8" standalone="no"?>
<!DOCTYPE svg PUBLIC "-//W3C//DTD SVG 1.1//EN"
 "http://www.w3.org/Graphics/SVG/1.1/DTD/svg11.dtd">
<!-- Generated by graphviz version 14.1.2 (0)
 -->
<!-- Title: aes&#45;v0.8.4 Pages: 1 -->
<svg width="1274pt" height="1532pt"
 viewBox="0.00 0.00 1274.00 1532.00" xmlns="http://www.w3.org/2000/svg" xmlns:xlink="http://www.w3.org/1999/xlink">
<g id="graph0" class="graph" transform="scale(1 1) rotate(0) translate(4 1528.46)">
<title>aes&#45;v0.8.4</title>
<polygon fill="white" stroke="none" points="-4,4 -4,-1528.46 1269.79,-1528.46 1269.79,4 -4,4"/>
<!-- n0 -->
<g id="node1" class="node">
<title>n0</title>
<path fill="#dff3ff" stroke="#1b78a6" d="M480.05,-770.9C480.05,-770.9 450.05,-770.9 450.05,-770.9 444.05,-770.9 438.05,-764.9 438.05,-758.9 438.05,-758.9 438.05,-743.5 438.05,-743.5 438.05,-737.5 444.05,-731.5 450.05,-731.5 450.05,-731.5 480.05,-731.5 480.05,-731.5 486.05,-731.5 492.05,-737.5 492.05,-743.5 492.05,-743.5 492.05,-758.9 492.05,-758.9 492.05,-764.9 486.05,-770.9 480.05,-770.9"/>
<text xml:space="preserve" text-anchor="start" x="453.8" y="-752.35" font-family="Inter,Arial" font-weight="bold" font-size="13.00" fill="#172033">aes</text>
<text xml:space="preserve" text-anchor="start" x="451.92" y="-740.3" font-family="Inter,Arial" font-size="12.00" fill="#172033">0.8.4</text>
</g>
<!-- n1 -->
<g id="node2" class="node">
<title>n1</title>
<path fill="#f7f9fb" stroke="#8b9bb0" d="M689.52,-1169.9C689.52,-1169.9 659.52,-1169.9 659.52,-1169.9 653.52,-1169.9 647.52,-1163.9 647.52,-1157.9 647.52,-1157.9 647.52,-1142.5 647.52,-1142.5 647.52,-1136.5 653.52,-1130.5 659.52,-1130.5 659.52,-1130.5 689.52,-1130.5 689.52,-1130.5 695.52,-1130.5 701.52,-1136.5 701.52,-1142.5 701.52,-1142.5 701.52,-1157.9 701.52,-1157.9 701.52,-1163.9 695.52,-1169.9 689.52,-1169.9"/>
<text xml:space="preserve" text-anchor="start" x="658.02" y="-1151.35" font-family="Inter,Arial" font-weight="bold" font-size="13.00" fill="#172033">cfg&#45;if</text>
<text xml:space="preserve" text-anchor="start" x="661.39" y="-1139.3" font-family="Inter,Arial" font-size="12.00" fill="#172033">1.0.4</text>
</g>
<!-- n0&#45;&gt;n1 -->
<g id="edge1" class="edge">
<title>n0&#45;&gt;n1</title>
<path fill="none" stroke="#9aa8b8" stroke-width="7.2" d="M488.23,-771.35C504.68,-787.2 526.8,-810.5 541.91,-834.2 603.2,-930.34 646.54,-1059.86 664.42,-1118.73"/>
<polygon fill="#9aa8b8" stroke="#9aa8b8" stroke-width="7.2" points="661.01,-1119.44 665.91,-1123.71 667.65,-1117.45 661.01,-1119.44"/>
</g>
<!-- n2 -->
<g id="node3" class="node">
<title>n2</title>
<path fill="#f7f9fb" stroke="#8b9bb0" d="M692.13,-758.9C692.13,-758.9 656.91,-758.9 656.91,-758.9 650.91,-758.9 644.91,-752.9 644.91,-746.9 644.91,-746.9 644.91,-731.5 644.91,-731.5 644.91,-725.5 650.91,-719.5 656.91,-719.5 656.91,-719.5 692.13,-719.5 692.13,-719.5 698.13,-719.5 704.13,-725.5 704.13,-731.5 704.13,-731.5 704.13,-746.9 704.13,-746.9 704.13,-752.9 698.13,-758.9 692.13,-758.9"/>
<text xml:space="preserve" text-anchor="start" x="654.27" y="-740.35" font-family="Inter,Arial" font-weight="bold" font-size="13.00" fill="#172033">cipher</text>
<text xml:space="preserve" text-anchor="start" x="661.39" y="-728.3" font-family="Inter,Arial" font-size="12.00" fill="#172033">0.4.4</text>
</g>
<!-- n0&#45;&gt;n2 -->
<g id="edge2" class="edge">
<title>n0&#45;&gt;n2</title>
<path fill="none" stroke="#9aa8b8" stroke-width="7.2" d="M492.33,-749.68C527.6,-747.64 590.65,-743.99 632.28,-741.59"/>
<polygon fill="#9aa8b8" stroke="#9aa8b8" stroke-width="7.2" points="632.43,-745.05 637.72,-741.27 632.03,-738.13 632.43,-745.05"/>
</g>
<!-- n3 -->
<g id="node4" class="node">
<title>n3</title>
<path fill="#f7f9fb" stroke="#8b9bb0" d="M710.13,-834.9C710.13,-834.9 638.91,-834.9 638.91,-834.9 632.91,-834.9 626.91,-828.9 626.91,-822.9 626.91,-822.9 626.91,-807.5 626.91,-807.5 626.91,-801.5 632.91,-795.5 638.91,-795.5 638.91,-795.5 710.13,-795.5 710.13,-795.5 716.13,-795.5 722.13,-801.5 722.13,-807.5 722.13,-807.5 722.13,-822.9 722.13,-822.9 722.13,-828.9 716.13,-834.9 710.13,-834.9"/>
<text xml:space="preserve" text-anchor="start" x="636.27" y="-816.35" font-family="Inter,Arial" font-weight="bold" font-size="13.00" fill="#172033">cpufeatures</text>
<text xml:space="preserve" text-anchor="start" x="658.02" y="-804.3" font-family="Inter,Arial" font-size="12.00" fill="#172033">0.2.17</text>
</g>
<!-- n0&#45;&gt;n3 -->
<g id="edge3" class="edge">
<title>n0&#45;&gt;n3</title>
<path fill="none" stroke="#9aa8b8" stroke-width="7.2" d="M492.33,-759.31C522.99,-768.77 574.64,-784.7 614.97,-797.14"/>
<polygon fill="#9aa8b8" stroke="#9aa8b8" stroke-width="7.2" points="613.81,-800.41 620.09,-798.72 615.86,-793.79 613.81,-800.41"/>
</g>
<!-- n4 -->
<g id="node5" class="node">
<title>n4</title>
<path fill="#f7f9fb" stroke="#8b9bb0" d="M914.35,-701.9C914.35,-701.9 819.13,-701.9 819.13,-701.9 813.13,-701.9 807.13,-695.9 807.13,-689.9 807.13,-689.9 807.13,-674.5 807.13,-674.5 807.13,-668.5 813.13,-662.5 819.13,-662.5 819.13,-662.5 914.35,-662.5 914.35,-662.5 920.35,-662.5 926.35,-668.5 926.35,-674.5 926.35,-674.5 926.35,-689.9 926.35,-689.9 926.35,-695.9 920.35,-701.9 914.35,-701.9"/>
<text xml:space="preserve" text-anchor="start" x="816.49" y="-683.35" font-family="Inter,Arial" font-weight="bold" font-size="13.00" fill="#172033">crypto&#45;common</text>
<text xml:space="preserve" text-anchor="start" x="853.62" y="-671.3" font-family="Inter,Arial" font-size="12.00" fill="#172033">0.1.7</text>
</g>
<!-- n2&#45;&gt;n4 -->
<g id="edge4" class="edge">
<title>n2&#45;&gt;n4</title>
<path fill="none" stroke="#9aa8b8" stroke-width="7.2" d="M704.41,-730.54C728.57,-723.3 764.05,-712.67 795.58,-703.22"/>
<polygon fill="#9aa8b8" stroke="#9aa8b8" stroke-width="7.2" points="796.25,-706.64 800.53,-701.74 794.26,-700 796.25,-706.64"/>
</g>
<!-- n6 -->
<g id="node7" class="node">
<title>n6</title>
<path fill="#f7f9fb" stroke="#8b9bb0" d="M881.74,-765.9C881.74,-765.9 851.74,-765.9 851.74,-765.9 845.74,-765.9 839.74,-759.9 839.74,-753.9 839.74,-753.9 839.74,-738.5 839.74,-738.5 839.74,-732.5 845.74,-726.5 851.74,-726.5 851.74,-726.5 881.74,-726.5 881.74,-726.5 887.74,-726.5 893.74,-732.5 893.74,-738.5 893.74,-738.5 893.74,-753.9 893.74,-753.9 893.74,-759.9 887.74,-765.9 881.74,-765.9"/>
<text xml:space="preserve" text-anchor="start" x="850.24" y="-747.35" font-family="Inter,Arial" font-weight="bold" font-size="13.00" fill="#172033">inout</text>
<text xml:space="preserve" text-anchor="start" x="853.62" y="-735.3" font-family="Inter,Arial" font-size="12.00" fill="#172033">0.1.4</text>
</g>
<!-- n2&#45;&gt;n6 -->
<g id="edge5" class="edge">
<title>n2&#45;&gt;n6</title>
<path fill="none" stroke="#9aa8b8" stroke-width="7.2" d="M704.41,-740.26C737.23,-741.47 790.93,-743.45 827.27,-744.78"/>
<polygon fill="#9aa8b8" stroke="#9aa8b8" stroke-width="7.2" points="826.97,-748.24 832.59,-744.98 827.22,-741.32 826.97,-748.24"/>
</g>
<!-- out0 -->
<g id="node12" class="node">
<title>out0</title>
<polygon fill="#fff8e8" stroke="#d19922" points="1259.79,-765.4 1155.57,-765.4 1155.57,-721 1265.79,-721 1265.79,-759.4 1259.79,-765.4"/>
<polyline fill="none" stroke="#d19922" points="1259.79,-765.4 1259.79,-759.4"/>
<polyline fill="none" stroke="#d19922" points="1265.79,-759.4 1259.79,-759.4"/>
<text xml:space="preserve" text-anchor="start" x="1164.93" y="-749.7" font-family="Inter,Arial" font-size="10.00" fill="#614000">to zeroize&#45;v1.9.0.svg</text>
<text xml:space="preserve" text-anchor="start" x="1193.81" y="-739.7" font-family="Inter,Arial" font-weight="bold" font-size="10.00" fill="#614000">zeroize</text>
<text xml:space="preserve" text-anchor="start" x="1199.81" y="-729.7" font-family="Inter,Arial" font-size="10.00" fill="#614000">1.9.0</text>
</g>
<!-- n2&#45;&gt;out0 -->
<g id="edge14" class="edge">
<title>n2&#45;&gt;out0</title>
<path fill="none" stroke="#d19922" stroke-width="7.2" stroke-dasharray="5,2" d="M704.51,-750.42C730.82,-759.97 770.93,-772.95 807.13,-778.2 924.84,-795.27 1063.2,-774.38 1143.23,-758.32"/>
<polygon fill="#d19922" stroke="#d19922" stroke-width="7.2" points="1143.78,-761.75 1148.47,-757.25 1142.38,-754.96 1143.78,-761.75"/>
</g>
<!-- n5 -->
<g id="node6" class="node">
<title>n5</title>
<path fill="#f7f9fb" stroke="#8b9bb0" d="M1103.57,-725.78C1103.57,-725.78 978.35,-725.78 978.35,-725.78 972.35,-725.78 966.35,-719.78 966.35,-713.78 966.35,-713.78 966.35,-650.62 966.35,-650.62 966.35,-644.62 972.35,-638.62 978.35,-638.62 978.35,-638.62 1103.57,-638.62 1103.57,-638.62 1109.57,-638.62 1115.57,-644.62 1115.57,-650.62 1115.57,-650.62 1115.57,-713.78 1115.57,-713.78 1115.57,-719.78 1109.57,-725.78 1103.57,-725.78"/>
<text xml:space="preserve" text-anchor="start" x="998.21" y="-707.23" font-family="Inter,Arial" font-weight="bold" font-size="13.00" fill="#172033">generic&#45;array</text>
<text xml:space="preserve" text-anchor="start" x="1024.46" y="-692.18" font-family="Inter,Arial" font-size="12.00" fill="#172033">0.14.7</text>
<text xml:space="preserve" text-anchor="start" x="990.71" y="-664.88" font-family="Inter,Arial" font-weight="bold" font-size="11.00" fill="#172033">version_check</text>
<text xml:space="preserve" text-anchor="start" x="1066.46" y="-664.88" font-family="Inter,Arial" font-size="10.00" fill="#172033"> </text>
<text xml:space="preserve" text-anchor="start" x="1069.46" y="-664.88" font-family="Inter,Arial" font-size="10.00" fill="#172033">0.9.5</text>
<path fill="none" stroke="#9aa8b8" d="M992.21,-651.83C992.21,-651.83 1089.71,-651.83 1089.71,-651.83 1094.96,-651.83 1100.21,-657.08 1100.21,-662.33 1100.21,-662.33 1100.21,-672.83 1100.21,-672.83 1100.21,-678.08 1094.96,-683.33 1089.71,-683.33 1089.71,-683.33 992.21,-683.33 992.21,-683.33 986.96,-683.33 981.71,-678.08 981.71,-672.83 981.71,-672.83 981.71,-662.33 981.71,-662.33 981.71,-657.08 986.96,-651.83 992.21,-651.83"/>
</g>
<!-- n4&#45;&gt;n5 -->
<g id="edge6" class="edge">
<title>n4&#45;&gt;n5</title>
<path fill="none" stroke="#9aa8b8" stroke-width="7.2" d="M926.53,-682.2C935.33,-682.2 944.57,-682.2 953.8,-682.2"/>
<polygon fill="#9aa8b8" stroke="#9aa8b8" stroke-width="7.2" points="953.65,-685.67 959.15,-682.2 953.65,-678.74 953.65,-685.67"/>
</g>
<!-- n5&#45;&gt;out0 -->
<g id="edge15" class="edge">
<title>n5&#45;&gt;out0</title>
<path fill="none" stroke="#d19922" stroke-width="7.2" stroke-dasharray="5,2" d="M1116.01,-709.13C1125.27,-712.5 1134.68,-715.92 1143.8,-719.24"/>
<polygon fill="#d19922" stroke="#d19922" stroke-width="7.2" points="1142.46,-722.44 1148.81,-721.06 1144.83,-715.93 1142.46,-722.44"/>
</g>
<!-- n6&#45;&gt;n5 -->
<g id="edge7" class="edge">
<title>n6&#45;&gt;n5</title>
<path fill="none" stroke="#9aa8b8" stroke-width="7.2" d="M893.9,-736.48C910.4,-730.35 932.73,-722.05 954.97,-713.79"/>
<polygon fill="#9aa8b8" stroke="#9aa8b8" stroke-width="7.2" points="955.92,-717.13 959.87,-711.96 953.51,-710.63 955.92,-717.13"/>
</g>
<!-- n7 -->
<g id="node8" class="node">
<title>n7</title>
<path fill="#f7f9fb" stroke="#8b9bb0" d="M904.6,-308.9C904.6,-308.9 828.88,-308.9 828.88,-308.9 822.88,-308.9 816.88,-302.9 816.88,-296.9 816.88,-296.9 816.88,-281.5 816.88,-281.5 816.88,-275.5 822.88,-269.5 828.88,-269.5 828.88,-269.5 904.6,-269.5 904.6,-269.5 910.6,-269.5 916.6,-275.5 916.6,-281.5 916.6,-281.5 916.6,-296.9 916.6,-296.9 916.6,-302.9 910.6,-308.9 904.6,-308.9"/>
<text xml:space="preserve" text-anchor="start" x="826.24" y="-290.35" font-family="Inter,Arial" font-weight="bold" font-size="13.00" fill="#172033">proc&#45;macro2</text>
<text xml:space="preserve" text-anchor="start" x="846.87" y="-278.3" font-family="Inter,Arial" font-size="12.00" fill="#172033">1.0.106</text>
</g>
<!-- n8 -->
<g id="node9" class="node">
<title>n8</title>
<path fill="#f7f9fb" stroke="#8b9bb0" d="M690.25,-250.9C690.25,-250.9 658.78,-250.9 658.78,-250.9 652.78,-250.9 646.78,-244.9 646.78,-238.9 646.78,-238.9 646.78,-223.5 646.78,-223.5 646.78,-217.5 652.78,-211.5 658.78,-211.5 658.78,-211.5 690.25,-211.5 690.25,-211.5 696.25,-211.5 702.25,-217.5 702.25,-223.5 702.25,-223.5 702.25,-238.9 702.25,-238.9 702.25,-244.9 696.25,-250.9 690.25,-250.9"/>
<text xml:space="preserve" text-anchor="start" x="656.14" y="-232.35" font-family="Inter,Arial" font-weight="bold" font-size="13.00" fill="#172033">quote</text>
<text xml:space="preserve" text-anchor="start" x="658.02" y="-220.3" font-family="Inter,Arial" font-size="12.00" fill="#172033">1.0.46</text>
</g>
<!-- n8&#45;&gt;n7 -->
<g id="edge8" class="edge">
<title>n8&#45;&gt;n7</title>
<path fill="none" stroke="#9aa8b8" stroke-width="7.2" d="M702.37,-239.39C728.96,-247.49 770.6,-260.19 805.18,-270.73"/>
<polygon fill="#9aa8b8" stroke="#9aa8b8" stroke-width="7.2" points="803.87,-273.96 810.15,-272.25 805.9,-267.33 803.87,-273.96"/>
</g>
<!-- n9 -->
<g id="node10" class="node">
<title>n9</title>
<path fill="#f7f9fb" stroke="#8b9bb0" d="M481.53,-279.9C481.53,-279.9 448.56,-279.9 448.56,-279.9 442.56,-279.9 436.56,-273.9 436.56,-267.9 436.56,-267.9 436.56,-252.5 436.56,-252.5 436.56,-246.5 442.56,-240.5 448.56,-240.5 448.56,-240.5 481.53,-240.5 481.53,-240.5 487.53,-240.5 493.53,-246.5 493.53,-252.5 493.53,-252.5 493.53,-267.9 493.53,-267.9 493.53,-273.9 487.53,-279.9 481.53,-279.9"/>
<text xml:space="preserve" text-anchor="start" x="453.42" y="-261.35" font-family="Inter,Arial" font-weight="bold" font-size="13.00" fill="#172033">syn</text>
<text xml:space="preserve" text-anchor="start" x="445.92" y="-249.3" font-family="Inter,Arial" font-size="12.00" fill="#172033">2.0.118</text>
</g>
<!-- n9&#45;&gt;n7 -->
<g id="edge9" class="edge">
<title>n9&#45;&gt;n7</title>
<path fill="none" stroke="#9aa8b8" stroke-width="7.2" d="M493.84,-262.22C557.69,-266.85 716.11,-278.34 804.2,-284.73"/>
<polygon fill="#9aa8b8" stroke="#9aa8b8" stroke-width="7.2" points="803.93,-288.19 809.67,-285.13 804.43,-281.28 803.93,-288.19"/>
</g>
<!-- n9&#45;&gt;n8 -->
<g id="edge10" class="edge">
<title>n9&#45;&gt;n8</title>
<path fill="none" stroke="#9aa8b8" stroke-width="7.2" d="M494.03,-256.29C530.22,-251.23 593.44,-242.39 634.38,-236.67"/>
<polygon fill="#9aa8b8" stroke="#9aa8b8" stroke-width="7.2" points="634.66,-240.13 639.62,-235.94 633.7,-233.27 634.66,-240.13"/>
</g>
<!-- n10 -->
<g id="node11" class="node">
<title>n10</title>
<path fill="#f7f9fb" stroke="#8b9bb0" d="M298.69,-377.4C298.69,-377.4 210.97,-377.4 210.97,-377.4 204.97,-377.4 198.97,-371.4 198.97,-365.4 198.97,-365.4 198.97,-339 198.97,-339 198.97,-333 204.97,-327 210.97,-327 210.97,-327 298.69,-327 298.69,-327 304.69,-327 310.69,-333 310.69,-339 310.69,-339 310.69,-365.4 310.69,-365.4 310.69,-371.4 304.69,-377.4 298.69,-377.4"/>
<text xml:space="preserve" text-anchor="start" x="208.33" y="-358.85" font-family="Inter,Arial" font-weight="bold" font-size="13.00" fill="#172033">zeroize_derive</text>
<text xml:space="preserve" text-anchor="start" x="241.7" y="-346.8" font-family="Inter,Arial" font-size="12.00" fill="#172033">1.5.0</text>
<text xml:space="preserve" text-anchor="start" x="227.45" y="-335.75" font-family="Inter,Arial" font-size="11.00" fill="#172033">proc&#45;macro</text>
</g>
<!-- n10&#45;&gt;n7 -->
<g id="edge11" class="edge">
<title>n10&#45;&gt;n7</title>
<path fill="none" stroke="#9aa8b8" stroke-width="7.2" d="M310.82,-352.79C405.03,-352.87 603.04,-349.04 767.13,-319.2 779.54,-316.94 792.59,-313.66 804.99,-310.08"/>
<polygon fill="#9aa8b8" stroke="#9aa8b8" stroke-width="7.2" points="805.89,-313.42 810.16,-308.52 803.9,-306.78 805.89,-313.42"/>
</g>
<!-- n10&#45;&gt;n8 -->
<g id="edge12" class="edge">
<title>n10&#45;&gt;n8</title>
<path fill="none" stroke="#9aa8b8" stroke-width="7.2" d="M311.12,-344.43C369.47,-335.35 463.64,-318.17 541.91,-292.2 574.6,-281.35 609.92,-264.69 635.74,-251.51"/>
<polygon fill="#9aa8b8" stroke="#9aa8b8" stroke-width="7.2" points="637.24,-254.64 640.53,-249.03 634.06,-248.48 637.24,-254.64"/>
</g>
<!-- n10&#45;&gt;n9 -->
<g id="edge13" class="edge">
<title>n10&#45;&gt;n9</title>
<path fill="none" stroke="#9aa8b8" stroke-width="7.2" d="M310.76,-330.85C323.13,-325.86 336.16,-320.46 348.19,-315.2 374.19,-303.83 403.03,-290.15 425.42,-279.27"/>
<polygon fill="#9aa8b8" stroke="#9aa8b8" stroke-width="7.2" points="426.69,-282.51 430.11,-276.99 423.65,-276.29 426.69,-282.51"/>
</g>
<!-- in1 -->
<g id="node13" class="node">
<title>in1</title>
<polygon fill="#eef6ff" stroke="#4b8fc5" points="515.28,-1396.4 408.81,-1396.4 408.81,-1352 521.28,-1352 521.28,-1390.4 515.28,-1396.4"/>
<polyline fill="none" stroke="#4b8fc5" points="515.28,-1396.4 515.28,-1390.4"/>
<polyline fill="none" stroke="#4b8fc5" points="521.28,-1390.4 515.28,-1390.4"/>
<text xml:space="preserve" text-anchor="start" x="418.17" y="-1380.7" font-family="Inter,Arial" font-size="10.00" fill="#123d5c">from alsa&#45;v0.11.0.svg</text>
<text xml:space="preserve" text-anchor="start" x="453.42" y="-1370.7" font-family="Inter,Arial" font-weight="bold" font-size="10.00" fill="#123d5c">cfg&#45;if</text>
<text xml:space="preserve" text-anchor="start" x="454.17" y="-1360.7" font-family="Inter,Arial" font-size="10.00" fill="#123d5c">1.0.4</text>
</g>
<!-- in1&#45;&gt;n1 -->
<g id="edge16" class="edge">
<title>in1&#45;&gt;n1</title>
<path fill="none" stroke="#4b8fc5" stroke-width="7.2" stroke-dasharray="5,2" d="M521.62,-1353.61C528.82,-1349.73 535.8,-1345.27 541.91,-1340.2 596.22,-1295.08 638.05,-1222.23 658.9,-1181.08"/>
<polygon fill="#4b8fc5" stroke="#4b8fc5" stroke-width="7.2" points="661.87,-1182.88 661.21,-1176.41 655.66,-1179.8 661.87,-1182.88"/>
</g>
<!-- in2 -->
<g id="node14" class="node">
<title>in2</title>
<polygon fill="#eef6ff" stroke="#4b8fc5" points="312.56,-84.4 191.09,-84.4 191.09,0 318.56,0 318.56,-78.4 312.56,-84.4"/>
<polyline fill="none" stroke="#4b8fc5" points="312.56,-84.4 312.56,-78.4"/>
<polyline fill="none" stroke="#4b8fc5" points="318.56,-78.4 312.56,-78.4"/>
<text xml:space="preserve" text-anchor="start" x="200.45" y="-68.7" font-family="Inter,Arial" font-size="10.00" fill="#123d5c">from crab&#45;usb&#45;v0.9.1.svg</text>
<text xml:space="preserve" text-anchor="start" x="225.58" y="-58.7" font-family="Inter,Arial" font-weight="bold" font-size="10.00" fill="#123d5c">proc&#45;macro2</text>
<text xml:space="preserve" text-anchor="start" x="238.7" y="-48.7" font-family="Inter,Arial" font-size="10.00" fill="#123d5c">1.0.106</text>
<text xml:space="preserve" text-anchor="start" x="241.7" y="-38.7" font-family="Inter,Arial" font-weight="bold" font-size="10.00" fill="#123d5c">quote</text>
<text xml:space="preserve" text-anchor="start" x="241.33" y="-28.7" font-family="Inter,Arial" font-size="10.00" fill="#123d5c">1.0.46</text>
<text xml:space="preserve" text-anchor="start" x="246.58" y="-18.7" font-family="Inter,Arial" font-weight="bold" font-size="10.00" fill="#123d5c">syn</text>
<text xml:space="preserve" text-anchor="start" x="238.7" y="-8.7" font-family="Inter,Arial" font-size="10.00" fill="#123d5c">2.0.118</text>
</g>
<!-- in2&#45;&gt;n7 -->
<g id="edge17" class="edge">
<title>in2&#45;&gt;n7</title>
<path fill="none" stroke="#4b8fc5" stroke-width="7.2" stroke-dasharray="5,2" d="M319.01,-39.81C421.7,-38.97 627.38,-50.24 767.13,-143.2 809.39,-171.31 838.3,-224.32 853.4,-258.14"/>
<polygon fill="#4b8fc5" stroke="#4b8fc5" stroke-width="7.2" points="850.15,-259.34 855.5,-263.03 856.52,-256.6 850.15,-259.34"/>
</g>
<!-- in2&#45;&gt;n8 -->
<g id="edge18" class="edge">
<title>in2&#45;&gt;n8</title>
<path fill="none" stroke="#4b8fc5" stroke-width="7.2" stroke-dasharray="5,2" d="M318.93,-70.56C376.92,-96.65 465.25,-136.44 541.91,-171.2 573.39,-185.47 609.06,-201.74 635.32,-213.73"/>
<polygon fill="#4b8fc5" stroke="#4b8fc5" stroke-width="7.2" points="633.73,-216.82 640.17,-215.95 636.61,-210.51 633.73,-216.82"/>
</g>
<!-- in2&#45;&gt;n9 -->
<g id="edge19" class="edge">
<title>in2&#45;&gt;n9</title>
<path fill="none" stroke="#4b8fc5" stroke-width="7.2" stroke-dasharray="5,2" d="M318.98,-74.2C329.28,-80.77 339.43,-88.16 348.19,-96.2 391.42,-135.86 427.88,-194.25 447.79,-229.6"/>
<polygon fill="#4b8fc5" stroke="#4b8fc5" stroke-width="7.2" points="444.7,-231.17 450.39,-234.31 450.76,-227.82 444.7,-231.17"/>
</g>
<!-- in3 -->
<g id="node15" class="node">
<title>in3</title>
<polygon fill="#eef6ff" stroke="#4b8fc5" points="524.28,-1327.4 399.81,-1327.4 399.81,-1283 530.28,-1283 530.28,-1321.4 524.28,-1327.4"/>
<polyline fill="none" stroke="#4b8fc5" points="524.28,-1327.4 524.28,-1321.4"/>
<polyline fill="none" stroke="#4b8fc5" points="530.28,-1321.4 524.28,-1321.4"/>
<text xml:space="preserve" text-anchor="start" x="409.17" y="-1311.7" font-family="Inter,Arial" font-size="10.00" fill="#123d5c">from crc32fast&#45;v1.5.0.svg</text>
<text xml:space="preserve" text-anchor="start" x="453.42" y="-1301.7" font-family="Inter,Arial" font-weight="bold" font-size="10.00" fill="#123d5c">cfg&#45;if</text>
<text xml:space="preserve" text-anchor="start" x="454.17" y="-1291.7" font-family="Inter,Arial" font-size="10.00" fill="#123d5c">1.0.4</text>
</g>
<!-- in3&#45;&gt;n1 -->
<g id="edge20" class="edge">
<title>in3&#45;&gt;n1</title>
<path fill="none" stroke="#4b8fc5" stroke-width="7.2" stroke-dasharray="5,2" d="M511.54,-1282.71C521.78,-1277.07 532.43,-1270.75 541.91,-1264.2 579.56,-1238.18 618.71,-1203.06 644.42,-1178.71"/>
<polygon fill="#4b8fc5" stroke="#4b8fc5" stroke-width="7.2" points="646.79,-1181.23 648.37,-1174.93 642,-1176.23 646.79,-1181.23"/>
</g>
<!-- in4 -->
<g id="node16" class="node">
<title>in4</title>
<polygon fill="#eef6ff" stroke="#4b8fc5" points="509.66,-655.4 414.44,-655.4 414.44,-611 515.66,-611 515.66,-649.4 509.66,-655.4"/>
<polyline fill="none" stroke="#4b8fc5" points="509.66,-655.4 509.66,-649.4"/>
<polyline fill="none" stroke="#4b8fc5" points="515.66,-649.4 509.66,-649.4"/>
<text xml:space="preserve" text-anchor="start" x="423.8" y="-639.7" font-family="Inter,Arial" font-size="10.00" fill="#123d5c">from ctr&#45;v0.9.2.svg</text>
<text xml:space="preserve" text-anchor="start" x="450.42" y="-629.7" font-family="Inter,Arial" font-weight="bold" font-size="10.00" fill="#123d5c">cipher</text>
<text xml:space="preserve" text-anchor="start" x="454.17" y="-619.7" font-family="Inter,Arial" font-size="10.00" fill="#123d5c">0.4.4</text>
</g>
<!-- in4&#45;&gt;n2 -->
<g id="edge21" class="edge">
<title>in4&#45;&gt;n2</title>
<path fill="none" stroke="#4b8fc5" stroke-width="7.2" stroke-dasharray="5,2" d="M509.79,-655.89C520.42,-661.66 531.67,-668 541.91,-674.2 560.26,-685.31 563.02,-691.04 581.91,-701.2 598.26,-709.99 617.09,-718.12 633.41,-724.58"/>
<polygon fill="#4b8fc5" stroke="#4b8fc5" stroke-width="7.2" points="632.1,-727.79 638.48,-726.55 634.6,-721.33 632.1,-727.79"/>
</g>
<!-- in5 -->
<g id="node17" class="node">
<title>in5</title>
<polygon fill="#eef6ff" stroke="#4b8fc5" points="521.28,-1207.4 402.81,-1207.4 402.81,-1163 527.28,-1163 527.28,-1201.4 521.28,-1207.4"/>
<polyline fill="none" stroke="#4b8fc5" points="521.28,-1207.4 521.28,-1201.4"/>
<polyline fill="none" stroke="#4b8fc5" points="527.28,-1201.4 521.28,-1201.4"/>
<text xml:space="preserve" text-anchor="start" x="412.17" y="-1191.7" font-family="Inter,Arial" font-size="10.00" fill="#123d5c">from dma&#45;api&#45;v0.7.3.svg</text>
<text xml:space="preserve" text-anchor="start" x="453.42" y="-1181.7" font-family="Inter,Arial" font-weight="bold" font-size="10.00" fill="#123d5c">cfg&#45;if</text>
<text xml:space="preserve" text-anchor="start" x="454.17" y="-1171.7" font-family="Inter,Arial" font-size="10.00" fill="#123d5c">1.0.4</text>
</g>
<!-- in5&#45;&gt;n1 -->
<g id="edge22" class="edge">
<title>in5&#45;&gt;n1</title>
<path fill="none" stroke="#4b8fc5" stroke-width="7.2" stroke-dasharray="5,2" d="M527.74,-1174.79C562.54,-1168.92 604.94,-1161.77 635.03,-1156.69"/>
<polygon fill="#4b8fc5" stroke="#4b8fc5" stroke-width="7.2" points="635.6,-1160.11 640.45,-1155.78 634.45,-1153.28 635.6,-1160.11"/>
</g>
<!-- in6 -->
<g id="node18" class="node">
<title>in6</title>
<polygon fill="#eef6ff" stroke="#4b8fc5" points="336.56,-302.4 167.09,-302.4 167.09,-218 342.56,-218 342.56,-296.4 336.56,-302.4"/>
<polyline fill="none" stroke="#4b8fc5" points="336.56,-302.4 336.56,-296.4"/>
<polyline fill="none" stroke="#4b8fc5" points="342.56,-296.4 336.56,-296.4"/>
<text xml:space="preserve" text-anchor="start" x="176.45" y="-286.7" font-family="Inter,Arial" font-size="10.00" fill="#123d5c">from embassy&#45;executor&#45;v0.10.0.svg</text>
<text xml:space="preserve" text-anchor="start" x="225.58" y="-276.7" font-family="Inter,Arial" font-weight="bold" font-size="10.00" fill="#123d5c">proc&#45;macro2</text>
<text xml:space="preserve" text-anchor="start" x="238.7" y="-266.7" font-family="Inter,Arial" font-size="10.00" fill="#123d5c">1.0.106</text>
<text xml:space="preserve" text-anchor="start" x="241.7" y="-256.7" font-family="Inter,Arial" font-weight="bold" font-size="10.00" fill="#123d5c">quote</text>
<text xml:space="preserve" text-anchor="start" x="241.33" y="-246.7" font-family="Inter,Arial" font-size="10.00" fill="#123d5c">1.0.46</text>
<text xml:space="preserve" text-anchor="start" x="246.58" y="-236.7" font-family="Inter,Arial" font-weight="bold" font-size="10.00" fill="#123d5c">syn</text>
<text xml:space="preserve" text-anchor="start" x="238.7" y="-226.7" font-family="Inter,Arial" font-size="10.00" fill="#123d5c">2.0.118</text>
</g>
<!-- in6&#45;&gt;n7 -->
<g id="edge23" class="edge">
<title>in6&#45;&gt;n7</title>
<path fill="none" stroke="#4b8fc5" stroke-width="7.2" stroke-dasharray="5,2" d="M342.89,-284.2C357.89,-287.49 373.41,-290.36 388.19,-292.2 536.86,-310.69 713.57,-301.59 804.68,-294.63"/>
<polygon fill="#4b8fc5" stroke="#4b8fc5" stroke-width="7.2" points="804.74,-298.1 809.95,-294.21 804.2,-291.19 804.74,-298.1"/>
</g>
<!-- in6&#45;&gt;n8 -->
<g id="edge24" class="edge">
<title>in6&#45;&gt;n8</title>
<path fill="none" stroke="#4b8fc5" stroke-width="7.2" stroke-dasharray="5,2" d="M342.87,-236.07C357.87,-232.8 373.4,-229.96 388.19,-228.2 475.81,-217.76 579.64,-223.3 634.7,-227.64"/>
<polygon fill="#4b8fc5" stroke="#4b8fc5" stroke-width="7.2" points="634.15,-231.07 639.92,-228.07 634.72,-224.16 634.15,-231.07"/>
</g>
<!-- in6&#45;&gt;n9 -->
<g id="edge25" class="edge">
<title>in6&#45;&gt;n9</title>
<path fill="none" stroke="#4b8fc5" stroke-width="7.2" stroke-dasharray="5,2" d="M342.93,-260.2C371.14,-260.2 401.06,-260.2 424.1,-260.2"/>
<polygon fill="#4b8fc5" stroke="#4b8fc5" stroke-width="7.2" points="423.89,-263.67 429.39,-260.2 423.89,-256.74 423.89,-263.67"/>
</g>
<!-- in7 -->
<g id="node19" class="node">
<title>in7</title>
<polygon fill="#eef6ff" stroke="#4b8fc5" points="535.91,-1138.4 388.19,-1138.4 388.19,-1094 541.91,-1094 541.91,-1132.4 535.91,-1138.4"/>
<polyline fill="none" stroke="#4b8fc5" points="535.91,-1138.4 535.91,-1132.4"/>
<polyline fill="none" stroke="#4b8fc5" points="541.91,-1132.4 535.91,-1132.4"/>
<text xml:space="preserve" text-anchor="start" x="397.55" y="-1122.7" font-family="Inter,Arial" font-size="10.00" fill="#123d5c">from embassy&#45;sync&#45;v0.8.0.svg</text>
<text xml:space="preserve" text-anchor="start" x="453.42" y="-1112.7" font-family="Inter,Arial" font-weight="bold" font-size="10.00" fill="#123d5c">cfg&#45;if</text>
<text xml:space="preserve" text-anchor="start" x="454.17" y="-1102.7" font-family="Inter,Arial" font-size="10.00" fill="#123d5c">1.0.4</text>
</g>
<!-- in7&#45;&gt;n1 -->
<g id="edge26" class="edge">
<title>in7&#45;&gt;n1</title>
<path fill="none" stroke="#4b8fc5" stroke-width="7.2" stroke-dasharray="5,2" d="M542.13,-1128.67C573.73,-1133.85 609.03,-1139.63 635.08,-1143.9"/>
<polygon fill="#4b8fc5" stroke="#4b8fc5" stroke-width="7.2" points="634.41,-1147.3 640.4,-1144.77 635.53,-1140.46 634.41,-1147.3"/>
</g>
<!-- in8 -->
<g id="node20" class="node">
<title>in8</title>
<polygon fill="#eef6ff" stroke="#4b8fc5" points="761.13,-688.4 581.91,-688.4 581.91,-624 767.13,-624 767.13,-682.4 761.13,-688.4"/>
<polyline fill="none" stroke="#4b8fc5" points="761.13,-688.4 761.13,-682.4"/>
<polyline fill="none" stroke="#4b8fc5" points="767.13,-682.4 761.13,-682.4"/>
<text xml:space="preserve" text-anchor="start" x="591.27" y="-672.7" font-family="Inter,Arial" font-size="10.00" fill="#123d5c">from embedded&#45;websocket&#45;v0.9.4.svg</text>
<text xml:space="preserve" text-anchor="start" x="644.14" y="-662.7" font-family="Inter,Arial" font-weight="bold" font-size="10.00" fill="#123d5c">generic&#45;array</text>
<text xml:space="preserve" text-anchor="start" x="661.02" y="-652.7" font-family="Inter,Arial" font-size="10.00" fill="#123d5c">0.14.7</text>
<text xml:space="preserve" text-anchor="start" x="637.77" y="-642.7" font-family="Inter,Arial" font-weight="bold" font-size="10.00" fill="#123d5c">crypto&#45;common</text>
<text xml:space="preserve" text-anchor="start" x="663.64" y="-632.7" font-family="Inter,Arial" font-size="10.00" fill="#123d5c">0.1.7</text>
</g>
<!-- in8&#45;&gt;n4 -->
<g id="edge27" class="edge">
<title>in8&#45;&gt;n4</title>
<path fill="none" stroke="#4b8fc5" stroke-width="7.2" stroke-dasharray="5,2" d="M767.57,-668.78C776.76,-670.04 785.99,-671.3 794.91,-672.52"/>
<polygon fill="#4b8fc5" stroke="#4b8fc5" stroke-width="7.2" points="794.25,-675.93 800.17,-673.24 795.19,-669.06 794.25,-675.93"/>
</g>
<!-- in8&#45;&gt;n5 -->
<g id="edge28" class="edge">
<title>in8&#45;&gt;n5</title>
<path fill="none" stroke="#4b8fc5" stroke-width="7.2" stroke-dasharray="5,2" d="M767.36,-646.96C815,-643.94 874.03,-642.97 926.35,-650.2 935.48,-651.46 944.92,-653.27 954.26,-655.39"/>
<polygon fill="#4b8fc5" stroke="#4b8fc5" stroke-width="7.2" points="953.3,-658.72 959.46,-656.64 954.93,-651.99 953.3,-658.72"/>
</g>
<!-- in9 -->
<g id="node21" class="node">
<title>in9</title>
<polygon fill="#eef6ff" stroke="#4b8fc5" points="529.53,-1069.4 394.56,-1069.4 394.56,-1025 535.53,-1025 535.53,-1063.4 529.53,-1069.4"/>
<polyline fill="none" stroke="#4b8fc5" points="529.53,-1069.4 529.53,-1063.4"/>
<polyline fill="none" stroke="#4b8fc5" points="535.53,-1063.4 529.53,-1063.4"/>
<text xml:space="preserve" text-anchor="start" x="403.92" y="-1053.7" font-family="Inter,Arial" font-size="10.00" fill="#123d5c">from getrandom&#45;v0.2.17.svg</text>
<text xml:space="preserve" text-anchor="start" x="453.42" y="-1043.7" font-family="Inter,Arial" font-weight="bold" font-size="10.00" fill="#123d5c">cfg&#45;if</text>
<text xml:space="preserve" text-anchor="start" x="454.17" y="-1033.7" font-family="Inter,Arial" font-size="10.00" fill="#123d5c">1.0.4</text>
</g>
<!-- in9&#45;&gt;n1 -->
<g id="edge29" class="edge">
<title>in9&#45;&gt;n1</title>
<path fill="none" stroke="#4b8fc5" stroke-width="7.2" stroke-dasharray="5,2" d="M517.66,-1069.82C525.82,-1073.54 534.12,-1077.42 541.91,-1081.2 574.2,-1096.88 610.26,-1115.9 636.46,-1129.99"/>
<polygon fill="#4b8fc5" stroke="#4b8fc5" stroke-width="7.2" points="634.62,-1132.93 641.1,-1132.5 637.91,-1126.84 634.62,-1132.93"/>
</g>
<!-- in10 -->
<g id="node22" class="node">
<title>in10</title>
<polygon fill="#eef6ff" stroke="#4b8fc5" points="342.19,-790.4 161.47,-790.4 161.47,-596 348.19,-596 348.19,-784.4 342.19,-790.4"/>
<polyline fill="none" stroke="#4b8fc5" points="342.19,-790.4 342.19,-784.4"/>
<polyline fill="none" stroke="#4b8fc5" points="348.19,-784.4 342.19,-784.4"/>
<text xml:space="preserve" text-anchor="start" x="170.83" y="-774.7" font-family="Inter,Arial" font-size="10.00" fill="#123d5c">from rustls&#45;rustcrypto&#45;v0.0.2&#45;alpha.svg</text>
<text xml:space="preserve" text-anchor="start" x="218.08" y="-764.7" font-family="Inter,Arial" font-weight="bold" font-size="10.00" fill="#123d5c">crypto&#45;common</text>
<text xml:space="preserve" text-anchor="start" x="243.95" y="-754.7" font-family="Inter,Arial" font-size="10.00" fill="#123d5c">0.1.7</text>
<text xml:space="preserve" text-anchor="start" x="224.45" y="-744.7" font-family="Inter,Arial" font-weight="bold" font-size="10.00" fill="#123d5c">generic&#45;array</text>
<text xml:space="preserve" text-anchor="start" x="241.33" y="-734.7" font-family="Inter,Arial" font-size="10.00" fill="#123d5c">0.14.7</text>
<text xml:space="preserve" text-anchor="start" x="246.95" y="-724.7" font-family="Inter,Arial" font-weight="bold" font-size="10.00" fill="#123d5c">aes</text>
<text xml:space="preserve" text-anchor="start" x="243.95" y="-714.7" font-family="Inter,Arial" font-size="10.00" fill="#123d5c">0.8.4</text>
<text xml:space="preserve" text-anchor="start" x="240.2" y="-704.7" font-family="Inter,Arial" font-weight="bold" font-size="10.00" fill="#123d5c">cipher</text>
<text xml:space="preserve" text-anchor="start" x="243.95" y="-694.7" font-family="Inter,Arial" font-size="10.00" fill="#123d5c">0.4.4</text>
<text xml:space="preserve" text-anchor="start" x="243.2" y="-684.7" font-family="Inter,Arial" font-weight="bold" font-size="10.00" fill="#123d5c">cfg&#45;if</text>
<text xml:space="preserve" text-anchor="start" x="243.95" y="-674.7" font-family="Inter,Arial" font-size="10.00" fill="#123d5c">1.0.4</text>
<text xml:space="preserve" text-anchor="start" x="227.83" y="-664.7" font-family="Inter,Arial" font-weight="bold" font-size="10.00" fill="#123d5c">cpufeatures</text>
<text xml:space="preserve" text-anchor="start" x="241.33" y="-654.7" font-family="Inter,Arial" font-size="10.00" fill="#123d5c">0.2.17</text>
<text xml:space="preserve" text-anchor="start" x="225.58" y="-644.7" font-family="Inter,Arial" font-weight="bold" font-size="10.00" fill="#123d5c">proc&#45;macro2</text>
<text xml:space="preserve" text-anchor="start" x="238.7" y="-634.7" font-family="Inter,Arial" font-size="10.00" fill="#123d5c">1.0.106</text>
<text xml:space="preserve" text-anchor="start" x="241.7" y="-624.7" font-family="Inter,Arial" font-weight="bold" font-size="10.00" fill="#123d5c">quote</text>
<text xml:space="preserve" text-anchor="start" x="241.33" y="-614.7" font-family="Inter,Arial" font-size="10.00" fill="#123d5c">1.0.46</text>
<text xml:space="preserve" text-anchor="start" x="233.83" y="-604.7" font-family="Inter,Arial" font-size="10.00" fill="#123d5c">... 1 more</text>
</g>
<!-- in10&#45;&gt;n0 -->
<g id="edge30" class="edge">
<title>in10&#45;&gt;n0</title>
<path fill="none" stroke="#4b8fc5" stroke-width="7.2" stroke-dasharray="5,2" d="M348.67,-719.06C376,-726.67 404.37,-734.58 426.14,-740.64"/>
<polygon fill="#4b8fc5" stroke="#4b8fc5" stroke-width="7.2" points="425.09,-743.94 431.32,-742.08 426.95,-737.27 425.09,-743.94"/>
</g>
<!-- in10&#45;&gt;n1 -->
<g id="edge31" class="edge">
<title>in10&#45;&gt;n1</title>
<path fill="none" stroke="#4b8fc5" stroke-width="7.2" stroke-dasharray="5,2" d="M266.16,-790.87C282.95,-928.33 321.2,-1167.95 388.19,-1220.2 462.75,-1278.35 578.93,-1215.58 637.37,-1176.52"/>
<polygon fill="#4b8fc5" stroke="#4b8fc5" stroke-width="7.2" points="639.09,-1179.55 641.68,-1173.58 635.18,-1173.83 639.09,-1179.55"/>
</g>
<!-- in10&#45;&gt;n2 -->
<g id="edge32" class="edge">
<title>in10&#45;&gt;n2</title>
<path fill="none" stroke="#4b8fc5" stroke-width="7.2" stroke-dasharray="5,2" d="M348.42,-700.19C404.5,-704.78 477.43,-711.38 541.91,-719.2 572.37,-722.9 606.64,-728.14 632.57,-732.33"/>
<polygon fill="#4b8fc5" stroke="#4b8fc5" stroke-width="7.2" points="631.92,-735.73 637.91,-733.2 633.04,-728.89 631.92,-735.73"/>
</g>
<!-- in10&#45;&gt;n3 -->
<g id="edge33" class="edge">
<title>in10&#45;&gt;n3</title>
<path fill="none" stroke="#4b8fc5" stroke-width="7.2" stroke-dasharray="5,2" d="M348.58,-764.23C361.39,-771.62 374.77,-778.23 388.19,-783.2 462.82,-810.82 555.33,-816.43 614.4,-816.75"/>
<polygon fill="#4b8fc5" stroke="#4b8fc5" stroke-width="7.2" points="614.23,-820.22 619.73,-816.75 614.22,-813.29 614.23,-820.22"/>
</g>
<!-- in10&#45;&gt;n4 -->
<g id="edge34" class="edge">
<title>in10&#45;&gt;n4</title>
<path fill="none" stroke="#4b8fc5" stroke-width="7.2" stroke-dasharray="5,2" d="M257.27,-790.85C262.35,-981.27 285.29,-1391.2 388.19,-1478.2 614.9,-1669.88 761.44,-1196.96 767.13,-1182.2 804.67,-1084.8 750.09,-801.61 807.13,-714.2 807.97,-712.92 808.87,-711.68 809.84,-710.49"/>
<polygon fill="#4b8fc5" stroke="#4b8fc5" stroke-width="7.2" points="811.95,-713.28 813.46,-706.96 807.1,-708.32 811.95,-713.28"/>
</g>
<!-- in10&#45;&gt;n5 -->
<g id="edge35" class="edge">
<title>in10&#45;&gt;n5</title>
<path fill="none" stroke="#4b8fc5" stroke-width="7.2" stroke-dasharray="5,2" d="M348.48,-616.29C361.21,-608.92 374.59,-602.57 388.19,-598.2 616.51,-524.74 695.12,-574.52 926.35,-638.2 935.63,-640.76 945.2,-643.79 954.66,-647.06"/>
<polygon fill="#4b8fc5" stroke="#4b8fc5" stroke-width="7.2" points="953.42,-650.29 959.76,-648.88 955.74,-643.77 953.42,-650.29"/>
</g>
<!-- in10&#45;&gt;n7 -->
<g id="edge36" class="edge">
<title>in10&#45;&gt;n7</title>
<path fill="none" stroke="#4b8fc5" stroke-width="7.2" stroke-dasharray="5,2" d="M341.12,-595.61C356.08,-580.9 372.04,-566.55 388.19,-554.2 540.29,-437.88 601.08,-444.55 767.13,-349.2 785.7,-338.54 805.94,-326.33 823.22,-315.72"/>
<polygon fill="#4b8fc5" stroke="#4b8fc5" stroke-width="7.2" points="824.95,-318.72 827.82,-312.89 821.31,-312.82 824.95,-318.72"/>
</g>
<!-- in10&#45;&gt;n8 -->
<g id="edge37" class="edge">
<title>in10&#45;&gt;n8</title>
<path fill="none" stroke="#4b8fc5" stroke-width="7.2" stroke-dasharray="5,2" d="M318.2,-595.7C339.21,-565.12 363.59,-531.89 388.19,-503.2 471.37,-406.21 584.98,-306.02 640.4,-258.88"/>
<polygon fill="#4b8fc5" stroke="#4b8fc5" stroke-width="7.2" points="642.3,-261.81 644.26,-255.61 637.83,-256.52 642.3,-261.81"/>
</g>
<!-- in10&#45;&gt;n9 -->
<g id="edge38" class="edge">
<title>in10&#45;&gt;n9</title>
<path fill="none" stroke="#4b8fc5" stroke-width="7.2" stroke-dasharray="5,2" d="M283.86,-595.75C306.48,-524.86 342.11,-428.07 388.19,-350.2 401.36,-327.94 420.05,-305.69 435.58,-288.89"/>
<polygon fill="#4b8fc5" stroke="#4b8fc5" stroke-width="7.2" points="437.94,-291.43 439.2,-285.06 432.9,-286.68 437.94,-291.43"/>
</g>
<!-- in11 -->
<g id="node23" class="node">
<title>in11</title>
<polygon fill="#eef6ff" stroke="#4b8fc5" points="311.06,-193.4 192.59,-193.4 192.59,-109 317.06,-109 317.06,-187.4 311.06,-193.4"/>
<polyline fill="none" stroke="#4b8fc5" points="311.06,-193.4 311.06,-187.4"/>
<polyline fill="none" stroke="#4b8fc5" points="317.06,-187.4 311.06,-187.4"/>
<text xml:space="preserve" text-anchor="start" x="201.95" y="-177.7" font-family="Inter,Arial" font-size="10.00" fill="#123d5c">from serde&#45;v1.0.228.svg</text>
<text xml:space="preserve" text-anchor="start" x="225.58" y="-167.7" font-family="Inter,Arial" font-weight="bold" font-size="10.00" fill="#123d5c">proc&#45;macro2</text>
<text xml:space="preserve" text-anchor="start" x="238.7" y="-157.7" font-family="Inter,Arial" font-size="10.00" fill="#123d5c">1.0.106</text>
<text xml:space="preserve" text-anchor="start" x="241.7" y="-147.7" font-family="Inter,Arial" font-weight="bold" font-size="10.00" fill="#123d5c">quote</text>
<text xml:space="preserve" text-anchor="start" x="241.33" y="-137.7" font-family="Inter,Arial" font-size="10.00" fill="#123d5c">1.0.46</text>
<text xml:space="preserve" text-anchor="start" x="246.58" y="-127.7" font-family="Inter,Arial" font-weight="bold" font-size="10.00" fill="#123d5c">syn</text>
<text xml:space="preserve" text-anchor="start" x="238.7" y="-117.7" font-family="Inter,Arial" font-size="10.00" fill="#123d5c">2.0.118</text>
</g>
<!-- in11&#45;&gt;n7 -->
<g id="edge39" class="edge">
<title>in11&#45;&gt;n7</title>
<path fill="none" stroke="#4b8fc5" stroke-width="7.2" stroke-dasharray="5,2" d="M317.43,-144.3C417.02,-135.85 617.32,-130.18 767.13,-199.2 797.12,-213.02 824.26,-239.32 842.44,-259.94"/>
<polygon fill="#4b8fc5" stroke="#4b8fc5" stroke-width="7.2" points="839.79,-262.17 846,-264.1 845.06,-257.67 839.79,-262.17"/>
</g>
<!-- in11&#45;&gt;n8 -->
<g id="edge40" class="edge">
<title>in11&#45;&gt;n8</title>
<path fill="none" stroke="#4b8fc5" stroke-width="7.2" stroke-dasharray="5,2" d="M317.46,-163C404.77,-179.73 561.92,-209.83 634.65,-223.75"/>
<polygon fill="#4b8fc5" stroke="#4b8fc5" stroke-width="7.2" points="633.7,-227.1 639.76,-224.73 635.01,-220.3 633.7,-227.1"/>
</g>
<!-- in11&#45;&gt;n9 -->
<g id="edge41" class="edge">
<title>in11&#45;&gt;n9</title>
<path fill="none" stroke="#4b8fc5" stroke-width="7.2" stroke-dasharray="5,2" d="M317.46,-183.46C352.49,-201.8 395.27,-224.19 425.55,-240.04"/>
<polygon fill="#4b8fc5" stroke="#4b8fc5" stroke-width="7.2" points="423.64,-242.96 430.12,-242.44 426.85,-236.82 423.64,-242.96"/>
</g>
<!-- in12 -->
<g id="node24" class="node">
<title>in12</title>
<polygon fill="#eef6ff" stroke="#4b8fc5" points="517.16,-911.4 406.94,-911.4 406.94,-847 523.16,-847 523.16,-905.4 517.16,-911.4"/>
<polyline fill="none" stroke="#4b8fc5" points="517.16,-911.4 517.16,-905.4"/>
<polyline fill="none" stroke="#4b8fc5" points="523.16,-905.4 517.16,-905.4"/>
<text xml:space="preserve" text-anchor="start" x="416.3" y="-895.7" font-family="Inter,Arial" font-size="10.00" fill="#123d5c">from sha1&#45;v0.10.6.svg</text>
<text xml:space="preserve" text-anchor="start" x="453.42" y="-885.7" font-family="Inter,Arial" font-weight="bold" font-size="10.00" fill="#123d5c">cfg&#45;if</text>
<text xml:space="preserve" text-anchor="start" x="454.17" y="-875.7" font-family="Inter,Arial" font-size="10.00" fill="#123d5c">1.0.4</text>
<text xml:space="preserve" text-anchor="start" x="438.05" y="-865.7" font-family="Inter,Arial" font-weight="bold" font-size="10.00" fill="#123d5c">cpufeatures</text>
<text xml:space="preserve" text-anchor="start" x="451.55" y="-855.7" font-family="Inter,Arial" font-size="10.00" fill="#123d5c">0.2.17</text>
</g>
<!-- in12&#45;&gt;n1 -->
<g id="edge42" class="edge">
<title>in12&#45;&gt;n1</title>
<path fill="none" stroke="#4b8fc5" stroke-width="7.2" stroke-dasharray="5,2" d="M523.52,-908.09C530.11,-912.66 536.42,-917.71 541.91,-923.2 600.43,-981.73 642.17,-1071.52 661.48,-1118.71"/>
<polygon fill="#4b8fc5" stroke="#4b8fc5" stroke-width="7.2" points="658.24,-1119.94 663.5,-1123.75 664.67,-1117.36 658.24,-1119.94"/>
</g>
<!-- in12&#45;&gt;n3 -->
<g id="edge43" class="edge">
<title>in12&#45;&gt;n3</title>
<path fill="none" stroke="#4b8fc5" stroke-width="7.2" stroke-dasharray="5,2" d="M523.57,-861.46C552.13,-852.65 586.57,-842.02 615.24,-833.18"/>
<polygon fill="#4b8fc5" stroke="#4b8fc5" stroke-width="7.2" points="616.04,-836.56 620.27,-831.63 614,-829.94 616.04,-836.56"/>
</g>
<!-- in13 -->
<g id="node25" class="node">
<title>in13</title>
<polygon fill="#eef6ff" stroke="#4b8fc5" points="517.16,-1000.4 406.94,-1000.4 406.94,-936 523.16,-936 523.16,-994.4 517.16,-1000.4"/>
<polyline fill="none" stroke="#4b8fc5" points="517.16,-1000.4 517.16,-994.4"/>
<polyline fill="none" stroke="#4b8fc5" points="523.16,-994.4 517.16,-994.4"/>
<text xml:space="preserve" text-anchor="start" x="416.3" y="-984.7" font-family="Inter,Arial" font-size="10.00" fill="#123d5c">from sha2&#45;v0.10.9.svg</text>
<text xml:space="preserve" text-anchor="start" x="453.42" y="-974.7" font-family="Inter,Arial" font-weight="bold" font-size="10.00" fill="#123d5c">cfg&#45;if</text>
<text xml:space="preserve" text-anchor="start" x="454.17" y="-964.7" font-family="Inter,Arial" font-size="10.00" fill="#123d5c">1.0.4</text>
<text xml:space="preserve" text-anchor="start" x="438.05" y="-954.7" font-family="Inter,Arial" font-weight="bold" font-size="10.00" fill="#123d5c">cpufeatures</text>
<text xml:space="preserve" text-anchor="start" x="451.55" y="-944.7" font-family="Inter,Arial" font-size="10.00" fill="#123d5c">0.2.17</text>
</g>
<!-- in13&#45;&gt;n1 -->
<g id="edge44" class="edge">
<title>in13&#45;&gt;n1</title>
<path fill="none" stroke="#4b8fc5" stroke-width="7.2" stroke-dasharray="5,2" d="M523.54,-999.18C529.92,-1003.3 536.17,-1007.68 541.91,-1012.2 583.73,-1045.15 624.95,-1091.16 649.81,-1120.82"/>
<polygon fill="#4b8fc5" stroke="#4b8fc5" stroke-width="7.2" points="647.11,-1122.99 653.29,-1125.01 652.44,-1118.57 647.11,-1122.99"/>
</g>
<!-- in13&#45;&gt;n3 -->
<g id="edge45" class="edge">
<title>in13&#45;&gt;n3</title>
<path fill="none" stroke="#4b8fc5" stroke-width="7.2" stroke-dasharray="5,2" d="M523.44,-936.29C529.77,-932.36 536.04,-928.29 541.91,-924.2 578.11,-898.97 616.67,-866.26 642.63,-843.28"/>
<polygon fill="#4b8fc5" stroke="#4b8fc5" stroke-width="7.2" points="644.76,-846.03 646.56,-839.79 640.15,-840.86 644.76,-846.03"/>
</g>
<!-- in14 -->
<g id="node26" class="node">
<title>in14</title>
<polygon fill="#eef6ff" stroke="#4b8fc5" points="523.91,-1465.4 400.19,-1465.4 400.19,-1421 529.91,-1421 529.91,-1459.4 523.91,-1465.4"/>
<polyline fill="none" stroke="#4b8fc5" points="523.91,-1465.4 523.91,-1459.4"/>
<polyline fill="none" stroke="#4b8fc5" points="529.91,-1459.4 523.91,-1459.4"/>
<text xml:space="preserve" text-anchor="start" x="409.55" y="-1449.7" font-family="Inter,Arial" font-size="10.00" fill="#123d5c">from smoltcp&#45;v0.13.1.svg</text>
<text xml:space="preserve" text-anchor="start" x="453.42" y="-1439.7" font-family="Inter,Arial" font-weight="bold" font-size="10.00" fill="#123d5c">cfg&#45;if</text>
<text xml:space="preserve" text-anchor="start" x="454.17" y="-1429.7" font-family="Inter,Arial" font-size="10.00" fill="#123d5c">1.0.4</text>
</g>
<!-- in14&#45;&gt;n1 -->
<g id="edge46" class="edge">
<title>in14&#45;&gt;n1</title>
<path fill="none" stroke="#4b8fc5" stroke-width="7.2" stroke-dasharray="5,2" d="M526.87,-1420.64C532.29,-1417.28 537.42,-1413.48 541.91,-1409.2 610.38,-1343.99 649.15,-1235.39 665,-1181.92"/>
<polygon fill="#4b8fc5" stroke="#4b8fc5" stroke-width="7.2" points="668.32,-1182.91 666.5,-1176.67 661.66,-1181 668.32,-1182.91"/>
</g>
<!-- in15 -->
<g id="node27" class="node">
<title>in15</title>
<polygon fill="#eef6ff" stroke="#4b8fc5" points="115.47,-379.4 0,-379.4 0,-325 121.47,-325 121.47,-373.4 115.47,-379.4"/>
<polyline fill="none" stroke="#4b8fc5" points="115.47,-379.4 115.47,-373.4"/>
<polyline fill="none" stroke="#4b8fc5" points="121.47,-373.4 115.47,-373.4"/>
<text xml:space="preserve" text-anchor="start" x="9.36" y="-363.7" font-family="Inter,Arial" font-size="10.00" fill="#123d5c">from zeroize&#45;v1.9.0.svg</text>
<text xml:space="preserve" text-anchor="start" x="26.98" y="-353.7" font-family="Inter,Arial" font-weight="bold" font-size="10.00" fill="#123d5c">zeroize_derive</text>
<text xml:space="preserve" text-anchor="start" x="49.86" y="-343.7" font-family="Inter,Arial" font-size="10.00" fill="#123d5c">1.5.0</text>
<text xml:space="preserve" text-anchor="start" x="36.36" y="-333.7" font-family="Inter,Arial" font-size="10.00" fill="#123d5c">proc&#45;macro</text>
</g>
<!-- in15&#45;&gt;n10 -->
<g id="edge47" class="edge">
<title>in15&#45;&gt;n10</title>
<path fill="none" stroke="#4b8fc5" stroke-width="7.2" stroke-dasharray="5,2" d="M121.72,-352.2C142.25,-352.2 165.34,-352.2 186.4,-352.2"/>
<polygon fill="#4b8fc5" stroke="#4b8fc5" stroke-width="7.2" points="186.29,-355.67 191.79,-352.2 186.29,-348.74 186.29,-355.67"/>
</g>
</g>
</svg>
