<?xml version="1.0" encoding="UTF-8" standalone="no"?>
<!DOCTYPE svg PUBLIC "-//W3C//DTD SVG 1.1//EN"
 "http://www.w3.org/Graphics/SVG/1.1/DTD/svg11.dtd">
<!-- Generated by graphviz version 14.1.2 (0)
 -->
<!-- Title: alsa&#45;v0.11.0 Pages: 1 -->
<svg width="331pt" height="610pt"
 viewBox="0.00 0.00 331.00 610.00" xmlns="http://www.w3.org/2000/svg" xmlns:xlink="http://www.w3.org/1999/xlink">
<g id="graph0" class="graph" transform="scale(1 1) rotate(0) translate(4 606.4)">
<title>alsa&#45;v0.11.0</title>
<polygon fill="white" stroke="none" points="-4,4 -4,-606.4 327.44,-606.4 327.44,4 -4,4"/>
<!-- n0 -->
<g id="node1" class="node">
<title>n0</title>
<path fill="#dff3ff" stroke="#1b78a6" d="M136.47,-602.4C136.47,-602.4 50.25,-602.4 50.25,-602.4 44.25,-602.4 38.25,-596.4 38.25,-590.4 38.25,-590.4 38.25,-564 38.25,-564 38.25,-558 44.25,-552 50.25,-552 50.25,-552 136.47,-552 136.47,-552 142.47,-552 148.47,-558 148.47,-564 148.47,-564 148.47,-590.4 148.47,-590.4 148.47,-596.4 142.47,-602.4 136.47,-602.4"/>
<text xml:space="preserve" text-anchor="start" x="80.24" y="-583.85" font-family="Inter,Arial" font-weight="bold" font-size="13.00" fill="#172033">alsa</text>
<text xml:space="preserve" text-anchor="start" x="77.61" y="-571.8" font-family="Inter,Arial" font-size="12.00" fill="#172033">0.11.0</text>
<text xml:space="preserve" text-anchor="start" x="47.61" y="-560.75" font-family="Inter,Arial" font-size="11.00" fill="#172033">/vendor/alsa&#45;0.11.0</text>
</g>
<!-- n1 -->
<g id="node2" class="node">
<title>n1</title>
<path fill="#f7f9fb" stroke="#8b9bb0" d="M290.08,-317.9C290.08,-317.9 260.08,-317.9 260.08,-317.9 254.08,-317.9 248.08,-311.9 248.08,-305.9 248.08,-305.9 248.08,-290.5 248.08,-290.5 248.08,-284.5 254.08,-278.5 260.08,-278.5 260.08,-278.5 290.08,-278.5 290.08,-278.5 296.08,-278.5 302.08,-284.5 302.08,-290.5 302.08,-290.5 302.08,-305.9 302.08,-305.9 302.08,-311.9 296.08,-317.9 290.08,-317.9"/>
<text xml:space="preserve" text-anchor="start" x="258.58" y="-299.35" font-family="Inter,Arial" font-weight="bold" font-size="13.00" fill="#172033">cfg&#45;if</text>
<text xml:space="preserve" text-anchor="start" x="261.95" y="-287.3" font-family="Inter,Arial" font-size="12.00" fill="#172033">1.0.4</text>
</g>
<!-- n0&#45;&gt;n1 -->
<g id="edge1" class="edge">
<title>n0&#45;&gt;n1</title>
<path fill="none" stroke="#9aa8b8" stroke-width="7.2" d="M148.8,-564.06C162.59,-558.57 176.4,-550.88 186.72,-540.2 243.96,-480.94 264.07,-381.45 270.84,-330.46"/>
<polygon fill="#9aa8b8" stroke="#9aa8b8" stroke-width="7.2" points="274.27,-330.89 271.5,-325.01 267.4,-330.05 274.27,-330.89"/>
</g>
<!-- out0 -->
<g id="node3" class="node">
<title>out0</title>
<polygon fill="#fff8e8" stroke="#d19922" points="317.44,-599.4 226.72,-599.4 226.72,-555 323.44,-555 323.44,-593.4 317.44,-599.4"/>
<polyline fill="none" stroke="#d19922" points="317.44,-599.4 317.44,-593.4"/>
<polyline fill="none" stroke="#d19922" points="323.44,-593.4 317.44,-593.4"/>
<text xml:space="preserve" text-anchor="start" x="236.08" y="-583.7" font-family="Inter,Arial" font-size="10.00" fill="#614000">to acpi&#45;v6.1.1.svg</text>
<text xml:space="preserve" text-anchor="start" x="257.83" y="-573.7" font-family="Inter,Arial" font-weight="bold" font-size="10.00" fill="#614000">bitflags</text>
<text xml:space="preserve" text-anchor="start" x="261.58" y="-563.7" font-family="Inter,Arial" font-size="10.00" fill="#614000">2.13.0</text>
</g>
<!-- n0&#45;&gt;out0 -->
<g id="edge2" class="edge">
<title>n0&#45;&gt;out0</title>
<path fill="none" stroke="#d19922" stroke-width="7.2" stroke-dasharray="5,2" d="M148.77,-577.2C169.41,-577.2 193.02,-577.2 214.15,-577.2"/>
<polygon fill="#d19922" stroke="#d19922" stroke-width="7.2" points="214,-580.67 219.5,-577.2 214,-573.74 214,-580.67"/>
</g>
<!-- in1 -->
<g id="node4" class="node">
<title>in1</title>
<polygon fill="#eef6ff" stroke="#4b8fc5" points="152.6,-527.4 28.13,-527.4 28.13,-483 158.6,-483 158.6,-521.4 152.6,-527.4"/>
<polyline fill="none" stroke="#4b8fc5" points="152.6,-527.4 152.6,-521.4"/>
<polyline fill="none" stroke="#4b8fc5" points="158.6,-521.4 152.6,-521.4"/>
<text xml:space="preserve" text-anchor="start" x="37.49" y="-511.7" font-family="Inter,Arial" font-size="10.00" fill="#123d5c">from crc32fast&#45;v1.5.0.svg</text>
<text xml:space="preserve" text-anchor="start" x="81.74" y="-501.7" font-family="Inter,Arial" font-weight="bold" font-size="10.00" fill="#123d5c">cfg&#45;if</text>
<text xml:space="preserve" text-anchor="start" x="82.49" y="-491.7" font-family="Inter,Arial" font-size="10.00" fill="#123d5c">1.0.4</text>
</g>
<!-- in1&#45;&gt;n1 -->
<g id="edge3" class="edge">
<title>in1&#45;&gt;n1</title>
<path fill="none" stroke="#4b8fc5" stroke-width="7.2" stroke-dasharray="5,2" d="M158.99,-488.58C169.01,-484.06 178.68,-478.36 186.72,-471.2 229.69,-432.9 254.24,-368.53 265.8,-330.04"/>
<polygon fill="#4b8fc5" stroke="#4b8fc5" stroke-width="7.2" points="269.13,-331.02 267.31,-324.78 262.47,-329.11 269.13,-331.02"/>
</g>
<!-- in2 -->
<g id="node5" class="node">
<title>in2</title>
<polygon fill="#eef6ff" stroke="#4b8fc5" points="149.6,-458.4 31.13,-458.4 31.13,-414 155.6,-414 155.6,-452.4 149.6,-458.4"/>
<polyline fill="none" stroke="#4b8fc5" points="149.6,-458.4 149.6,-452.4"/>
<polyline fill="none" stroke="#4b8fc5" points="155.6,-452.4 149.6,-452.4"/>
<text xml:space="preserve" text-anchor="start" x="40.49" y="-442.7" font-family="Inter,Arial" font-size="10.00" fill="#123d5c">from dma&#45;api&#45;v0.7.3.svg</text>
<text xml:space="preserve" text-anchor="start" x="81.74" y="-432.7" font-family="Inter,Arial" font-weight="bold" font-size="10.00" fill="#123d5c">cfg&#45;if</text>
<text xml:space="preserve" text-anchor="start" x="82.49" y="-422.7" font-family="Inter,Arial" font-size="10.00" fill="#123d5c">1.0.4</text>
</g>
<!-- in2&#45;&gt;n1 -->
<g id="edge4" class="edge">
<title>in2&#45;&gt;n1</title>
<path fill="none" stroke="#4b8fc5" stroke-width="7.2" stroke-dasharray="5,2" d="M155.73,-418.73C166.56,-414.25 177.35,-408.78 186.72,-402.2 215,-382.33 239.53,-351.13 255.34,-328.08"/>
<polygon fill="#4b8fc5" stroke="#4b8fc5" stroke-width="7.2" points="258.05,-330.25 258.22,-323.75 252.29,-326.41 258.05,-330.25"/>
</g>
<!-- in3 -->
<g id="node6" class="node">
<title>in3</title>
<polygon fill="#eef6ff" stroke="#4b8fc5" points="164.22,-389.4 16.5,-389.4 16.5,-345 170.22,-345 170.22,-383.4 164.22,-389.4"/>
<polyline fill="none" stroke="#4b8fc5" points="164.22,-389.4 164.22,-383.4"/>
<polyline fill="none" stroke="#4b8fc5" points="170.22,-383.4 164.22,-383.4"/>
<text xml:space="preserve" text-anchor="start" x="25.86" y="-373.7" font-family="Inter,Arial" font-size="10.00" fill="#123d5c">from embassy&#45;sync&#45;v0.8.0.svg</text>
<text xml:space="preserve" text-anchor="start" x="81.74" y="-363.7" font-family="Inter,Arial" font-weight="bold" font-size="10.00" fill="#123d5c">cfg&#45;if</text>
<text xml:space="preserve" text-anchor="start" x="82.49" y="-353.7" font-family="Inter,Arial" font-size="10.00" fill="#123d5c">1.0.4</text>
</g>
<!-- in3&#45;&gt;n1 -->
<g id="edge5" class="edge">
<title>in3&#45;&gt;n1</title>
<path fill="none" stroke="#4b8fc5" stroke-width="7.2" stroke-dasharray="5,2" d="M156.55,-344.58C166.65,-340.83 176.99,-336.94 186.72,-333.2 203.13,-326.89 221.17,-319.71 236.58,-313.49"/>
<polygon fill="#4b8fc5" stroke="#4b8fc5" stroke-width="7.2" points="237.72,-316.77 241.52,-311.5 235.12,-310.35 237.72,-316.77"/>
</g>
<!-- in4 -->
<g id="node7" class="node">
<title>in4</title>
<polygon fill="#eef6ff" stroke="#4b8fc5" points="179.97,-320.4 0.75,-320.4 0.75,-276 185.97,-276 185.97,-314.4 179.97,-320.4"/>
<polyline fill="none" stroke="#4b8fc5" points="179.97,-320.4 179.97,-314.4"/>
<polyline fill="none" stroke="#4b8fc5" points="185.97,-314.4 179.97,-314.4"/>
<text xml:space="preserve" text-anchor="start" x="10.11" y="-304.7" font-family="Inter,Arial" font-size="10.00" fill="#123d5c">from embedded&#45;websocket&#45;v0.9.4.svg</text>
<text xml:space="preserve" text-anchor="start" x="81.74" y="-294.7" font-family="Inter,Arial" font-weight="bold" font-size="10.00" fill="#123d5c">cfg&#45;if</text>
<text xml:space="preserve" text-anchor="start" x="82.49" y="-284.7" font-family="Inter,Arial" font-size="10.00" fill="#123d5c">1.0.4</text>
</g>
<!-- in4&#45;&gt;n1 -->
<g id="edge6" class="edge">
<title>in4&#45;&gt;n1</title>
<path fill="none" stroke="#4b8fc5" stroke-width="7.2" stroke-dasharray="5,2" d="M186.33,-298.2C203.83,-298.2 221.22,-298.2 235.85,-298.2"/>
<polygon fill="#4b8fc5" stroke="#4b8fc5" stroke-width="7.2" points="235.68,-301.67 241.18,-298.2 235.68,-294.74 235.68,-301.67"/>
</g>
<!-- in5 -->
<g id="node8" class="node">
<title>in5</title>
<polygon fill="#eef6ff" stroke="#4b8fc5" points="157.85,-251.4 22.88,-251.4 22.88,-207 163.85,-207 163.85,-245.4 157.85,-251.4"/>
<polyline fill="none" stroke="#4b8fc5" points="157.85,-251.4 157.85,-245.4"/>
<polyline fill="none" stroke="#4b8fc5" points="163.85,-245.4 157.85,-245.4"/>
<text xml:space="preserve" text-anchor="start" x="32.24" y="-235.7" font-family="Inter,Arial" font-size="10.00" fill="#123d5c">from getrandom&#45;v0.2.17.svg</text>
<text xml:space="preserve" text-anchor="start" x="81.74" y="-225.7" font-family="Inter,Arial" font-weight="bold" font-size="10.00" fill="#123d5c">cfg&#45;if</text>
<text xml:space="preserve" text-anchor="start" x="82.49" y="-215.7" font-family="Inter,Arial" font-size="10.00" fill="#123d5c">1.0.4</text>
</g>
<!-- in5&#45;&gt;n1 -->
<g id="edge7" class="edge">
<title>in5&#45;&gt;n1</title>
<path fill="none" stroke="#4b8fc5" stroke-width="7.2" stroke-dasharray="5,2" d="M156.55,-251.82C166.65,-255.57 176.99,-259.46 186.72,-263.2 203.13,-269.51 221.17,-276.69 236.58,-282.91"/>
<polygon fill="#4b8fc5" stroke="#4b8fc5" stroke-width="7.2" points="235.12,-286.05 241.52,-284.9 237.72,-279.63 235.12,-286.05"/>
</g>
<!-- in6 -->
<g id="node9" class="node">
<title>in6</title>
<polygon fill="#eef6ff" stroke="#4b8fc5" points="180.72,-182.4 0,-182.4 0,-138 186.72,-138 186.72,-176.4 180.72,-182.4"/>
<polyline fill="none" stroke="#4b8fc5" points="180.72,-182.4 180.72,-176.4"/>
<polyline fill="none" stroke="#4b8fc5" points="186.72,-176.4 180.72,-176.4"/>
<text xml:space="preserve" text-anchor="start" x="9.36" y="-166.7" font-family="Inter,Arial" font-size="10.00" fill="#123d5c">from rustls&#45;rustcrypto&#45;v0.0.2&#45;alpha.svg</text>
<text xml:space="preserve" text-anchor="start" x="81.74" y="-156.7" font-family="Inter,Arial" font-weight="bold" font-size="10.00" fill="#123d5c">cfg&#45;if</text>
<text xml:space="preserve" text-anchor="start" x="82.49" y="-146.7" font-family="Inter,Arial" font-size="10.00" fill="#123d5c">1.0.4</text>
</g>
<!-- in6&#45;&gt;n1 -->
<g id="edge8" class="edge">
<title>in6&#45;&gt;n1</title>
<path fill="none" stroke="#4b8fc5" stroke-width="7.2" stroke-dasharray="5,2" d="M167.29,-182.87C174.11,-186.21 180.71,-189.98 186.72,-194.2 215,-214.07 239.53,-245.27 255.34,-268.32"/>
<polygon fill="#4b8fc5" stroke="#4b8fc5" stroke-width="7.2" points="252.29,-269.99 258.22,-272.65 258.05,-266.15 252.29,-269.99"/>
</g>
<!-- in7 -->
<g id="node10" class="node">
<title>in7</title>
<polygon fill="#eef6ff" stroke="#4b8fc5" points="145.47,-113.4 35.25,-113.4 35.25,-69 151.47,-69 151.47,-107.4 145.47,-113.4"/>
<polyline fill="none" stroke="#4b8fc5" points="145.47,-113.4 145.47,-107.4"/>
<polyline fill="none" stroke="#4b8fc5" points="151.47,-107.4 145.47,-107.4"/>
<text xml:space="preserve" text-anchor="start" x="44.61" y="-97.7" font-family="Inter,Arial" font-size="10.00" fill="#123d5c">from sha2&#45;v0.10.9.svg</text>
<text xml:space="preserve" text-anchor="start" x="81.74" y="-87.7" font-family="Inter,Arial" font-weight="bold" font-size="10.00" fill="#123d5c">cfg&#45;if</text>
<text xml:space="preserve" text-anchor="start" x="82.49" y="-77.7" font-family="Inter,Arial" font-size="10.00" fill="#123d5c">1.0.4</text>
</g>
<!-- in7&#45;&gt;n1 -->
<g id="edge9" class="edge">
<title>in7&#45;&gt;n1</title>
<path fill="none" stroke="#4b8fc5" stroke-width="7.2" stroke-dasharray="5,2" d="M151.79,-104.79C164.31,-109.71 176.77,-116.33 186.72,-125.2 229.69,-163.5 254.24,-227.87 265.8,-266.36"/>
<polygon fill="#4b8fc5" stroke="#4b8fc5" stroke-width="7.2" points="262.47,-267.29 267.31,-271.62 269.13,-265.38 262.47,-267.29"/>
</g>
<!-- in8 -->
<g id="node11" class="node">
<title>in8</title>
<polygon fill="#eef6ff" stroke="#4b8fc5" points="152.22,-44.4 28.5,-44.4 28.5,0 158.22,0 158.22,-38.4 152.22,-44.4"/>
<polyline fill="none" stroke="#4b8fc5" points="152.22,-44.4 152.22,-38.4"/>
<polyline fill="none" stroke="#4b8fc5" points="158.22,-38.4 152.22,-38.4"/>
<text xml:space="preserve" text-anchor="start" x="37.86" y="-28.7" font-family="Inter,Arial" font-size="10.00" fill="#123d5c">from smoltcp&#45;v0.13.1.svg</text>
<text xml:space="preserve" text-anchor="start" x="81.74" y="-18.7" font-family="Inter,Arial" font-weight="bold" font-size="10.00" fill="#123d5c">cfg&#45;if</text>
<text xml:space="preserve" text-anchor="start" x="82.49" y="-8.7" font-family="Inter,Arial" font-size="10.00" fill="#123d5c">1.0.4</text>
</g>
<!-- in8&#45;&gt;n1 -->
<g id="edge10" class="edge">
<title>in8&#45;&gt;n1</title>
<path fill="none" stroke="#4b8fc5" stroke-width="7.2" stroke-dasharray="5,2" d="M158.33,-37.37C168.78,-42.07 178.77,-48.2 186.72,-56.2 245.06,-114.91 264.71,-215.42 271.12,-266.45"/>
<polygon fill="#4b8fc5" stroke="#4b8fc5" stroke-width="7.2" points="267.64,-266.53 271.71,-271.6 274.53,-265.74 267.64,-266.53"/>
</g>
</g>
</svg>
