<?xml version="1.0" encoding="UTF-8" standalone="no"?>
<!DOCTYPE svg PUBLIC "-//W3C//DTD SVG 1.1//EN"
 "http://www.w3.org/Graphics/SVG/1.1/DTD/svg11.dtd">
<!-- Generated by graphviz version 14.1.2 (0)
 -->
<!-- Title: alsa&#45;v0.11.0 Pages: 1 -->
<svg width="232pt" height="107pt"
 viewBox="0.00 0.00 232.00 107.00" xmlns="http://www.w3.org/2000/svg" xmlns:xlink="http://www.w3.org/1999/xlink">
<g id="graph0" class="graph" transform="scale(1 1) rotate(0) translate(4 103.2)">
<title>alsa&#45;v0.11.0</title>
<polygon fill="white" stroke="none" points="-4,4 -4,-103.2 227.54,-103.2 227.54,4 -4,4"/>
<!-- n0 -->
<g id="node1" class="node">
<title>n0</title>
<path fill="#dff3ff" stroke="#1b78a6" d="M82.02,-68.2C82.02,-68.2 12,-68.2 12,-68.2 6,-68.2 0,-62.2 0,-56.2 0,-56.2 0,-43 0,-43 0,-37 6,-31 12,-31 12,-31 82.02,-31 82.02,-31 88.02,-31 94.02,-37 94.02,-43 94.02,-43 94.02,-56.2 94.02,-56.2 94.02,-62.2 88.02,-68.2 82.02,-68.2"/>
<text xml:space="preserve" text-anchor="start" x="37.63" y="-56.1" font-family="Inter,Arial" font-weight="bold" font-size="10.00" fill="#172033">alsa</text>
<text xml:space="preserve" text-anchor="start" x="33.51" y="-46.1" font-family="Inter,Arial" font-size="10.00" fill="#172033">0.11.0</text>
<text xml:space="preserve" text-anchor="start" x="5.76" y="-36.1" font-family="Inter,Arial" font-size="10.00" fill="#172033">/vendor/alsa&#45;0.11.0</text>
</g>
<!-- out0 -->
<g id="node2" class="node">
<title>out0</title>
<polygon fill="#fff8e8" stroke="#d19922" points="217.54,-99.2 134.02,-99.2 134.02,-62 223.54,-62 223.54,-93.2 217.54,-99.2"/>
<polyline fill="none" stroke="#d19922" points="217.54,-99.2 217.54,-93.2"/>
<polyline fill="none" stroke="#d19922" points="223.54,-93.2 217.54,-93.2"/>
<text xml:space="preserve" text-anchor="start" x="139.78" y="-87.1" font-family="Inter,Arial" font-size="10.00" fill="#614000">to acpi&#45;v6.1.1.svg</text>
<text xml:space="preserve" text-anchor="start" x="161.53" y="-77.1" font-family="Inter,Arial" font-weight="bold" font-size="10.00" fill="#614000">bitflags</text>
<text xml:space="preserve" text-anchor="start" x="165.28" y="-67.1" font-family="Inter,Arial" font-size="10.00" fill="#614000">2.11.1</text>
</g>
<!-- n0&#45;&gt;out0 -->
<g id="edge1" class="edge">
<title>n0&#45;&gt;out0</title>
<path fill="none" stroke="#d19922" stroke-width="0.9" stroke-dasharray="5,2" d="M94.49,-60.7C105.09,-63.24 116.41,-65.94 127.17,-68.51"/>
<polygon fill="#d19922" stroke="#d19922" stroke-width="0.9" points="126.67,-70.37 132.46,-69.77 127.56,-66.62 126.67,-70.37"/>
</g>
<!-- out1 -->
<g id="node3" class="node">
<title>out1</title>
<polygon fill="#fff8e8" stroke="#d19922" points="216.41,-37.2 135.14,-37.2 135.14,0 222.41,0 222.41,-31.2 216.41,-37.2"/>
<polyline fill="none" stroke="#d19922" points="216.41,-37.2 216.41,-31.2"/>
<polyline fill="none" stroke="#d19922" points="222.41,-31.2 216.41,-31.2"/>
<text xml:space="preserve" text-anchor="start" x="140.9" y="-25.1" font-family="Inter,Arial" font-size="10.00" fill="#614000">to aes&#45;v0.8.4.svg</text>
<text xml:space="preserve" text-anchor="start" x="167.15" y="-15.1" font-family="Inter,Arial" font-weight="bold" font-size="10.00" fill="#614000">cfg&#45;if</text>
<text xml:space="preserve" text-anchor="start" x="167.9" y="-5.1" font-family="Inter,Arial" font-size="10.00" fill="#614000">1.0.4</text>
</g>
<!-- n0&#45;&gt;out1 -->
<g id="edge2" class="edge">
<title>n0&#45;&gt;out1</title>
<path fill="none" stroke="#d19922" stroke-width="0.9" stroke-dasharray="5,2" d="M94.49,-38.5C105.44,-35.88 117.14,-33.09 128.21,-30.44"/>
<polygon fill="#d19922" stroke="#d19922" stroke-width="0.9" points="128.42,-32.37 133.33,-29.22 127.53,-28.63 128.42,-32.37"/>
</g>
</g>
</svg>
