<?xml version="1.0" encoding="UTF-8" standalone="no"?>
<!DOCTYPE svg PUBLIC "-//W3C//DTD SVG 1.1//EN"
 "http://www.w3.org/Graphics/SVG/1.1/DTD/svg11.dtd">
<!-- Generated by graphviz version 14.1.2 (0)
 -->
<!-- Title: alsa&#45;v0.11.0 Pages: 1 -->
<svg width="255pt" height="121pt"
 viewBox="0.00 0.00 255.00 121.00" xmlns="http://www.w3.org/2000/svg" xmlns:xlink="http://www.w3.org/1999/xlink">
<g id="graph0" class="graph" transform="scale(1 1) rotate(0) translate(4 117.4)">
<title>alsa&#45;v0.11.0</title>
<polygon fill="white" stroke="none" points="-4,4 -4,-117.4 250.94,-117.4 250.94,4 -4,4"/>
<!-- n0 -->
<g id="node1" class="node">
<title>n0</title>
<path fill="#dff3ff" stroke="#1b78a6" d="M98.22,-81.4C98.22,-81.4 12,-81.4 12,-81.4 6,-81.4 0,-75.4 0,-69.4 0,-69.4 0,-43 0,-43 0,-37 6,-31 12,-31 12,-31 98.22,-31 98.22,-31 104.22,-31 110.22,-37 110.22,-43 110.22,-43 110.22,-69.4 110.22,-69.4 110.22,-75.4 104.22,-81.4 98.22,-81.4"/>
<text xml:space="preserve" text-anchor="start" x="41.99" y="-62.85" font-family="Inter,Arial" font-weight="bold" font-size="13.00" fill="#172033">alsa</text>
<text xml:space="preserve" text-anchor="start" x="39.36" y="-50.8" font-family="Inter,Arial" font-size="12.00" fill="#172033">0.11.0</text>
<text xml:space="preserve" text-anchor="start" x="9.36" y="-39.75" font-family="Inter,Arial" font-size="11.00" fill="#172033">/vendor/alsa&#45;0.11.0</text>
</g>
<!-- out0 -->
<g id="node2" class="node">
<title>out0</title>
<polygon fill="#fff8e8" stroke="#d19922" points="240.94,-113.4 150.22,-113.4 150.22,-69 246.94,-69 246.94,-107.4 240.94,-113.4"/>
<polyline fill="none" stroke="#d19922" points="240.94,-113.4 240.94,-107.4"/>
<polyline fill="none" stroke="#d19922" points="246.94,-107.4 240.94,-107.4"/>
<text xml:space="preserve" text-anchor="start" x="159.58" y="-97.7" font-family="Inter,Arial" font-size="10.00" fill="#614000">to acpi&#45;v6.1.1.svg</text>
<text xml:space="preserve" text-anchor="start" x="181.33" y="-87.7" font-family="Inter,Arial" font-weight="bold" font-size="10.00" fill="#614000">bitflags</text>
<text xml:space="preserve" text-anchor="start" x="185.08" y="-77.7" font-family="Inter,Arial" font-size="10.00" fill="#614000">2.13.0</text>
</g>
<!-- n0&#45;&gt;out0 -->
<g id="edge1" class="edge">
<title>n0&#45;&gt;out0</title>
<path fill="none" stroke="#d19922" stroke-width="7.2" stroke-dasharray="5,2" d="M110.4,-69.63C119.61,-71.91 129.2,-74.28 138.52,-76.59"/>
<polygon fill="#d19922" stroke="#d19922" stroke-width="7.2" points="137.4,-79.88 143.57,-77.84 139.07,-73.15 137.4,-79.88"/>
</g>
<!-- out1 -->
<g id="node3" class="node">
<title>out1</title>
<polygon fill="#fff8e8" stroke="#d19922" points="239.81,-44.4 151.34,-44.4 151.34,0 245.81,0 245.81,-38.4 239.81,-44.4"/>
<polyline fill="none" stroke="#d19922" points="239.81,-44.4 239.81,-38.4"/>
<polyline fill="none" stroke="#d19922" points="245.81,-38.4 239.81,-38.4"/>
<text xml:space="preserve" text-anchor="start" x="160.7" y="-28.7" font-family="Inter,Arial" font-size="10.00" fill="#614000">to aes&#45;v0.8.4.svg</text>
<text xml:space="preserve" text-anchor="start" x="186.95" y="-18.7" font-family="Inter,Arial" font-weight="bold" font-size="10.00" fill="#614000">cfg&#45;if</text>
<text xml:space="preserve" text-anchor="start" x="187.7" y="-8.7" font-family="Inter,Arial" font-size="10.00" fill="#614000">1.0.4</text>
</g>
<!-- n0&#45;&gt;out1 -->
<g id="edge2" class="edge">
<title>n0&#45;&gt;out1</title>
<path fill="none" stroke="#d19922" stroke-width="7.2" stroke-dasharray="5,2" d="M110.4,-43.15C119.82,-40.89 129.66,-38.52 139.19,-36.23"/>
<polygon fill="#d19922" stroke="#d19922" stroke-width="7.2" points="139.93,-39.62 144.47,-34.96 138.31,-32.88 139.93,-39.62"/>
</g>
</g>
</svg>
