<?xml version="1.0" encoding="UTF-8" standalone="no"?>
<!DOCTYPE svg PUBLIC "-//W3C//DTD SVG 1.1//EN"
 "http://www.w3.org/Graphics/SVG/1.1/DTD/svg11.dtd">
<!-- Generated by graphviz version 14.1.2 (0)
 -->
<!-- Title: aml&#45;v0.16.4 Pages: 1 -->
<svg width="230pt" height="365pt"
 viewBox="0.00 0.00 230.00 365.00" xmlns="http://www.w3.org/2000/svg" xmlns:xlink="http://www.w3.org/1999/xlink">
<g id="graph0" class="graph" transform="scale(1 1) rotate(0) translate(4 360.95)">
<title>aml&#45;v0.16.4</title>
<polygon fill="white" stroke="none" points="-4,4 -4,-360.95 226.04,-360.95 226.04,4 -4,4"/>
<!-- n0 -->
<g id="node1" class="node">
<title>n0</title>
<path fill="#dff3ff" stroke="#1b78a6" d="M80.52,-119.2C80.52,-119.2 12,-119.2 12,-119.2 6,-119.2 0,-113.2 0,-107.2 0,-107.2 0,-94 0,-94 0,-88 6,-82 12,-82 12,-82 80.52,-82 80.52,-82 86.52,-82 92.52,-88 92.52,-94 92.52,-94 92.52,-107.2 92.52,-107.2 92.52,-113.2 86.52,-119.2 80.52,-119.2"/>
<text xml:space="preserve" text-anchor="start" x="37.63" y="-107.1" font-family="Inter,Arial" font-weight="bold" font-size="10.00" fill="#172033">aml</text>
<text xml:space="preserve" text-anchor="start" x="32.76" y="-97.1" font-family="Inter,Arial" font-size="10.00" fill="#172033">0.16.4</text>
<text xml:space="preserve" text-anchor="start" x="5.76" y="-87.1" font-family="Inter,Arial" font-size="10.00" fill="#172033">/vendor/aml&#45;0.16.4</text>
</g>
<!-- n1 -->
<g id="node2" class="node">
<title>n1</title>
<path fill="#f7f9fb" stroke="#8b9bb0" d="M199.66,-356.95C199.66,-356.95 154.89,-356.95 154.89,-356.95 148.89,-356.95 142.89,-350.95 142.89,-344.95 142.89,-344.95 142.89,-298.25 142.89,-298.25 142.89,-292.25 148.89,-286.25 154.89,-286.25 154.89,-286.25 199.66,-286.25 199.66,-286.25 205.66,-286.25 211.66,-292.25 211.66,-298.25 211.66,-298.25 211.66,-344.95 211.66,-344.95 211.66,-350.95 205.66,-356.95 199.66,-356.95"/>
<text xml:space="preserve" text-anchor="start" x="163.4" y="-344.85" font-family="Inter,Arial" font-weight="bold" font-size="10.00" fill="#172033">bitvec</text>
<text xml:space="preserve" text-anchor="start" x="166.4" y="-331.85" font-family="Inter,Arial" font-size="10.00" fill="#172033">1.0.1</text>
<text xml:space="preserve" text-anchor="start" x="156.65" y="-317.75" font-family="Inter,Arial" font-weight="bold" font-size="8.00" fill="#172033">funty</text>
<text xml:space="preserve" text-anchor="start" x="177.65" y="-317.75" font-family="Inter,Arial" font-size="8.00" fill="#172033"> 2.0.0</text>
<path fill="none" stroke="#9aa8b8" d="M155.24,-309.6C155.24,-309.6 199.32,-309.6 199.32,-309.6 202.61,-309.6 205.9,-312.89 205.9,-316.18 205.9,-316.18 205.9,-322.77 205.9,-322.77 205.9,-326.06 202.61,-329.35 199.32,-329.35 199.32,-329.35 155.24,-329.35 155.24,-329.35 151.95,-329.35 148.65,-326.06 148.65,-322.77 148.65,-322.77 148.65,-316.18 148.65,-316.18 148.65,-312.89 151.95,-309.6 155.24,-309.6"/>
<text xml:space="preserve" text-anchor="start" x="153.65" y="-298" font-family="Inter,Arial" font-weight="bold" font-size="8.00" fill="#172033">radium</text>
<text xml:space="preserve" text-anchor="start" x="180.65" y="-298" font-family="Inter,Arial" font-size="8.00" fill="#172033"> 0.7.0</text>
<path fill="none" stroke="#9aa8b8" d="M155.24,-289.85C155.24,-289.85 199.32,-289.85 199.32,-289.85 202.61,-289.85 205.9,-293.14 205.9,-296.43 205.9,-296.43 205.9,-303.02 205.9,-303.02 205.9,-306.31 202.61,-309.6 199.32,-309.6 199.32,-309.6 155.24,-309.6 155.24,-309.6 151.95,-309.6 148.65,-306.31 148.65,-303.02 148.65,-303.02 148.65,-296.43 148.65,-296.43 148.65,-293.14 151.95,-289.85 155.24,-289.85"/>
</g>
<!-- n0&#45;&gt;n1 -->
<g id="edge1" class="edge">
<title>n0&#45;&gt;n1</title>
<path fill="none" stroke="#9aa8b8" stroke-width="0.9" d="M54.42,-119.62C67.34,-152.71 96.58,-222.36 132.52,-274.6 134.32,-277.22 136.26,-279.84 138.29,-282.42"/>
<polygon fill="#9aa8b8" stroke="#9aa8b8" stroke-width="0.9" points="136.74,-283.56 141.71,-286.61 139.73,-281.13 136.74,-283.56"/>
</g>
<!-- out0 -->
<g id="node5" class="node">
<title>out0</title>
<polygon fill="#fff8e8" stroke="#d19922" points="216.04,-139.2 132.52,-139.2 132.52,-62 222.04,-62 222.04,-133.2 216.04,-139.2"/>
<polyline fill="none" stroke="#d19922" points="216.04,-139.2 216.04,-133.2"/>
<polyline fill="none" stroke="#d19922" points="222.04,-133.2 216.04,-133.2"/>
<text xml:space="preserve" text-anchor="start" x="138.28" y="-127.1" font-family="Inter,Arial" font-size="10.00" fill="#614000">to acpi&#45;v6.1.1.svg</text>
<text xml:space="preserve" text-anchor="start" x="158.53" y="-117.1" font-family="Inter,Arial" font-weight="bold" font-size="10.00" fill="#614000">bit_field</text>
<text xml:space="preserve" text-anchor="start" x="163.78" y="-107.1" font-family="Inter,Arial" font-size="10.00" fill="#614000">0.10.3</text>
<text xml:space="preserve" text-anchor="start" x="155.15" y="-97.1" font-family="Inter,Arial" font-weight="bold" font-size="10.00" fill="#614000">byteorder</text>
<text xml:space="preserve" text-anchor="start" x="166.4" y="-87.1" font-family="Inter,Arial" font-size="10.00" fill="#614000">1.5.0</text>
<text xml:space="preserve" text-anchor="start" x="146.53" y="-77.1" font-family="Inter,Arial" font-weight="bold" font-size="10.00" fill="#614000">spinning_top</text>
<text xml:space="preserve" text-anchor="start" x="166.4" y="-67.1" font-family="Inter,Arial" font-size="10.00" fill="#614000">0.3.0</text>
</g>
<!-- n0&#45;&gt;out0 -->
<g id="edge5" class="edge">
<title>n0&#45;&gt;out0</title>
<path fill="none" stroke="#d19922" stroke-width="0.9" stroke-dasharray="5,2" d="M92.75,-100.6C103.32,-100.6 114.64,-100.6 125.43,-100.6"/>
<polygon fill="#d19922" stroke="#d19922" stroke-width="0.9" points="125.21,-102.53 130.71,-100.6 125.21,-98.68 125.21,-102.53"/>
</g>
<!-- out1 -->
<g id="node6" class="node">
<title>out1</title>
<polygon fill="#fff8e8" stroke="#d19922" points="216.04,-37.2 132.52,-37.2 132.52,0 222.04,0 222.04,-31.2 216.04,-37.2"/>
<polyline fill="none" stroke="#d19922" points="216.04,-37.2 216.04,-31.2"/>
<polyline fill="none" stroke="#d19922" points="222.04,-31.2 216.04,-31.2"/>
<text xml:space="preserve" text-anchor="start" x="138.28" y="-25.1" font-family="Inter,Arial" font-size="10.00" fill="#614000">to log&#45;v0.4.29.svg</text>
<text xml:space="preserve" text-anchor="start" x="169.78" y="-15.1" font-family="Inter,Arial" font-weight="bold" font-size="10.00" fill="#614000">log</text>
<text xml:space="preserve" text-anchor="start" x="163.78" y="-5.1" font-family="Inter,Arial" font-size="10.00" fill="#614000">0.4.29</text>
</g>
<!-- n0&#45;&gt;out1 -->
<g id="edge6" class="edge">
<title>n0&#45;&gt;out1</title>
<path fill="none" stroke="#d19922" stroke-width="0.9" stroke-dasharray="5,2" d="M77.18,-81.58C96.15,-69.52 120.79,-53.87 140.75,-41.18"/>
<polygon fill="#d19922" stroke="#d19922" stroke-width="0.9" points="141.76,-42.82 145.37,-38.25 139.69,-39.57 141.76,-42.82"/>
</g>
<!-- n2 -->
<g id="node3" class="node">
<title>n2</title>
<path fill="#f7f9fb" stroke="#8b9bb0" d="M192.28,-261.6C192.28,-261.6 162.28,-261.6 162.28,-261.6 156.28,-261.6 150.28,-255.6 150.28,-249.6 150.28,-249.6 150.28,-237.6 150.28,-237.6 150.28,-231.6 156.28,-225.6 162.28,-225.6 162.28,-225.6 192.28,-225.6 192.28,-225.6 198.28,-225.6 204.28,-231.6 204.28,-237.6 204.28,-237.6 204.28,-249.6 204.28,-249.6 204.28,-255.6 198.28,-261.6 192.28,-261.6"/>
<text xml:space="preserve" text-anchor="start" x="170.15" y="-245.1" font-family="Inter,Arial" font-weight="bold" font-size="10.00" fill="#172033">tap</text>
<text xml:space="preserve" text-anchor="start" x="166.4" y="-235.1" font-family="Inter,Arial" font-size="10.00" fill="#172033">1.0.1</text>
</g>
<!-- n1&#45;&gt;n2 -->
<g id="edge2" class="edge">
<title>n1&#45;&gt;n2</title>
<path fill="none" stroke="#9aa8b8" stroke-width="0.9" d="M197.36,-286.14C197.93,-280.08 197.04,-274.01 194.67,-267.95"/>
<polygon fill="#9aa8b8" stroke="#9aa8b8" stroke-width="0.9" points="196.48,-267.27 192.4,-263.11 193,-268.91 196.48,-267.27"/>
</g>
<!-- n1&#45;&gt;n2 -->
<!-- n3 -->
<g id="node4" class="node">
<title>n3</title>
<path fill="#f7f9fb" stroke="#8b9bb0" d="M192.28,-200.6C192.28,-200.6 162.28,-200.6 162.28,-200.6 156.28,-200.6 150.28,-194.6 150.28,-188.6 150.28,-188.6 150.28,-176.6 150.28,-176.6 150.28,-170.6 156.28,-164.6 162.28,-164.6 162.28,-164.6 192.28,-164.6 192.28,-164.6 198.28,-164.6 204.28,-170.6 204.28,-176.6 204.28,-176.6 204.28,-188.6 204.28,-188.6 204.28,-194.6 198.28,-200.6 192.28,-200.6"/>
<text xml:space="preserve" text-anchor="start" x="168.28" y="-184.1" font-family="Inter,Arial" font-weight="bold" font-size="10.00" fill="#172033">wyz</text>
<text xml:space="preserve" text-anchor="start" x="166.4" y="-174.1" font-family="Inter,Arial" font-size="10.00" fill="#172033">0.5.1</text>
</g>
<!-- n1&#45;&gt;n3 -->
<g id="edge3" class="edge">
<title>n1&#45;&gt;n3</title>
<path fill="none" stroke="#9aa8b8" stroke-width="0.9" d="M142.65,-298.96C130.79,-289.18 118.91,-276.64 112.52,-262.1 106.09,-247.45 104.99,-240.22 112.52,-226.1 119.36,-213.26 131.87,-203.54 144.07,-196.57"/>
<polygon fill="#9aa8b8" stroke="#9aa8b8" stroke-width="0.9" points="144.89,-198.32 148.82,-194.02 143.06,-194.93 144.89,-198.32"/>
</g>
<!-- n2&#45;&gt;n3 -->
<!-- n3&#45;&gt;n2 -->
<g id="edge4" class="edge">
<title>n3&#45;&gt;n2</title>
<path fill="none" stroke="#9aa8b8" stroke-width="0.9" d="M194.19,-200.71C197.49,-206.82 198.34,-212.94 196.76,-219.06"/>
<polygon fill="#9aa8b8" stroke="#9aa8b8" stroke-width="0.9" points="195.07,-218.08 194.86,-223.9 198.66,-219.49 195.07,-218.08"/>
</g>
</g>
</svg>
