<?xml version="1.0" encoding="UTF-8" standalone="no"?>
<!DOCTYPE svg PUBLIC "-//W3C//DTD SVG 1.1//EN"
 "http://www.w3.org/Graphics/SVG/1.1/DTD/svg11.dtd">
<!-- Generated by graphviz version 14.1.2 (0)
 -->
<!-- Title: aml&#45;v0.16.4 Pages: 1 -->
<svg width="277pt" height="339pt"
 viewBox="0.00 0.00 277.00 339.00" xmlns="http://www.w3.org/2000/svg" xmlns:xlink="http://www.w3.org/1999/xlink">
<g id="graph0" class="graph" transform="scale(1 1) rotate(0) translate(4 335.03)">
<title>aml&#45;v0.16.4</title>
<polygon fill="white" stroke="none" points="-4,4 -4,-335.03 272.69,-335.03 272.69,4 -4,4"/>
<!-- n0 -->
<g id="node1" class="node">
<title>n0</title>
<path fill="#dff3ff" stroke="#1b78a6" d="M96.72,-156.4C96.72,-156.4 12,-156.4 12,-156.4 6,-156.4 0,-150.4 0,-144.4 0,-144.4 0,-118 0,-118 0,-112 6,-106 12,-106 12,-106 96.72,-106 96.72,-106 102.72,-106 108.72,-112 108.72,-118 108.72,-118 108.72,-144.4 108.72,-144.4 108.72,-150.4 102.72,-156.4 96.72,-156.4"/>
<text xml:space="preserve" text-anchor="start" x="43.11" y="-137.85" font-family="Inter,Arial" font-weight="bold" font-size="13.00" fill="#172033">aml</text>
<text xml:space="preserve" text-anchor="start" x="37.86" y="-125.8" font-family="Inter,Arial" font-size="12.00" fill="#172033">0.16.4</text>
<text xml:space="preserve" text-anchor="start" x="9.36" y="-114.75" font-family="Inter,Arial" font-size="11.00" fill="#172033">/vendor/aml&#45;0.16.4</text>
</g>
<!-- n1 -->
<g id="node2" class="node">
<title>n1</title>
<path fill="#f7f9fb" stroke="#8b9bb0" d="M256.69,-331.02C256.69,-331.02 160.72,-331.02 160.72,-331.02 154.72,-331.02 148.72,-325.02 148.72,-319.02 148.72,-319.02 148.72,-121.38 148.72,-121.38 148.72,-115.38 154.72,-109.37 160.72,-109.37 160.72,-109.37 256.69,-109.37 256.69,-109.37 262.69,-109.37 268.69,-115.37 268.69,-121.37 268.69,-121.37 268.69,-319.02 268.69,-319.02 268.69,-325.02 262.69,-331.02 256.69,-331.02"/>
<text xml:space="preserve" text-anchor="start" x="189.2" y="-312.47" font-family="Inter,Arial" font-weight="bold" font-size="13.00" fill="#172033">bitvec</text>
<text xml:space="preserve" text-anchor="start" x="195.58" y="-297.43" font-family="Inter,Arial" font-size="12.00" fill="#172033">1.1.1</text>
<text xml:space="preserve" text-anchor="start" x="182.83" y="-270.12" font-family="Inter,Arial" font-weight="bold" font-size="11.00" fill="#172033">funty</text>
<text xml:space="preserve" text-anchor="start" x="209.83" y="-270.12" font-family="Inter,Arial" font-size="10.00" fill="#172033"> </text>
<text xml:space="preserve" text-anchor="start" x="212.83" y="-270.12" font-family="Inter,Arial" font-size="10.00" fill="#172033">2.0.0</text>
<path fill="none" stroke="#9aa8b8" d="M174.58,-257.07C174.58,-257.07 242.83,-257.07 242.83,-257.07 248.08,-257.07 253.33,-262.32 253.33,-267.57 253.33,-267.57 253.33,-278.07 253.33,-278.07 253.33,-283.32 248.08,-288.57 242.83,-288.57 242.83,-288.57 174.58,-288.57 174.58,-288.57 169.33,-288.57 164.08,-283.32 164.08,-278.07 164.08,-278.07 164.08,-267.57 164.08,-267.57 164.08,-262.32 169.33,-257.07 174.58,-257.07"/>
<text xml:space="preserve" text-anchor="start" x="177.95" y="-232.62" font-family="Inter,Arial" font-weight="bold" font-size="11.00" fill="#172033">radium</text>
<text xml:space="preserve" text-anchor="start" x="214.7" y="-232.62" font-family="Inter,Arial" font-size="10.00" fill="#172033"> </text>
<text xml:space="preserve" text-anchor="start" x="217.7" y="-232.62" font-family="Inter,Arial" font-size="10.00" fill="#172033">0.7.0</text>
<path fill="none" stroke="#9aa8b8" d="M174.58,-219.57C174.58,-219.57 242.83,-219.57 242.83,-219.57 248.08,-219.57 253.33,-224.82 253.33,-230.07 253.33,-230.07 253.33,-240.57 253.33,-240.57 253.33,-245.82 248.08,-251.07 242.83,-251.07 242.83,-251.07 174.58,-251.07 174.58,-251.07 169.33,-251.07 164.08,-245.82 164.08,-240.57 164.08,-240.57 164.08,-230.07 164.08,-230.07 164.08,-224.82 169.33,-219.57 174.58,-219.57"/>
<text xml:space="preserve" text-anchor="start" x="186.58" y="-195.12" font-family="Inter,Arial" font-weight="bold" font-size="11.00" fill="#172033">wyz</text>
<text xml:space="preserve" text-anchor="start" x="206.08" y="-195.12" font-family="Inter,Arial" font-size="10.00" fill="#172033"> </text>
<text xml:space="preserve" text-anchor="start" x="209.08" y="-195.12" font-family="Inter,Arial" font-size="10.00" fill="#172033">0.5.1</text>
<text xml:space="preserve" text-anchor="start" x="188.08" y="-150.62" font-family="Inter,Arial" font-weight="bold" font-size="11.00" fill="#172033">tap</text>
<text xml:space="preserve" text-anchor="start" x="204.58" y="-150.62" font-family="Inter,Arial" font-size="10.00" fill="#172033"> </text>
<text xml:space="preserve" text-anchor="start" x="207.58" y="-150.62" font-family="Inter,Arial" font-size="10.00" fill="#172033">1.0.1</text>
<path fill="none" stroke="#9aa8b8" d="M189.58,-137.57C189.58,-137.57 227.83,-137.57 227.83,-137.57 233.08,-137.57 238.33,-142.82 238.33,-148.07 238.33,-148.07 238.33,-158.57 238.33,-158.57 238.33,-163.82 233.08,-169.07 227.83,-169.07 227.83,-169.07 189.58,-169.07 189.58,-169.07 184.33,-169.07 179.08,-163.82 179.08,-158.57 179.08,-158.57 179.08,-148.07 179.08,-148.07 179.08,-142.82 184.33,-137.57 189.58,-137.57"/>
<path fill="none" stroke="#9aa8b8" d="M176.08,-122.57C176.08,-122.57 241.33,-122.57 241.33,-122.57 247.33,-122.57 253.33,-128.57 253.33,-134.57 253.33,-134.57 253.33,-201.57 253.33,-201.57 253.33,-207.57 247.33,-213.57 241.33,-213.57 241.33,-213.57 176.08,-213.57 176.08,-213.57 170.08,-213.57 164.08,-207.57 164.08,-201.57 164.08,-201.57 164.08,-134.57 164.08,-134.57 164.08,-128.57 170.08,-122.57 176.08,-122.57"/>
</g>
<!-- n0&#45;&gt;n1 -->
<g id="edge1" class="edge">
<title>n0&#45;&gt;n1</title>
<path fill="none" stroke="#9aa8b8" stroke-width="0.9" d="M99.02,-156.7C112.6,-164.64 127.88,-173.57 142.6,-182.17"/>
<polygon fill="#9aa8b8" stroke="#9aa8b8" stroke-width="0.9" points="141.53,-183.77 147.25,-184.88 143.47,-180.45 141.53,-183.77"/>
</g>
<!-- out0 -->
<g id="node3" class="node">
<title>out0</title>
<polygon fill="#fff8e8" stroke="#d19922" points="251.06,-84.4 160.34,-84.4 160.34,0 257.06,0 257.06,-78.4 251.06,-84.4"/>
<polyline fill="none" stroke="#d19922" points="251.06,-84.4 251.06,-78.4"/>
<polyline fill="none" stroke="#d19922" points="257.06,-78.4 251.06,-78.4"/>
<text xml:space="preserve" text-anchor="start" x="169.7" y="-68.7" font-family="Inter,Arial" font-size="10.00" fill="#614000">to acpi&#45;v6.1.1.svg</text>
<text xml:space="preserve" text-anchor="start" x="189.95" y="-58.7" font-family="Inter,Arial" font-weight="bold" font-size="10.00" fill="#614000">bit_field</text>
<text xml:space="preserve" text-anchor="start" x="195.2" y="-48.7" font-family="Inter,Arial" font-size="10.00" fill="#614000">0.10.3</text>
<text xml:space="preserve" text-anchor="start" x="186.58" y="-38.7" font-family="Inter,Arial" font-weight="bold" font-size="10.00" fill="#614000">byteorder</text>
<text xml:space="preserve" text-anchor="start" x="197.83" y="-28.7" font-family="Inter,Arial" font-size="10.00" fill="#614000">1.5.0</text>
<text xml:space="preserve" text-anchor="start" x="177.95" y="-18.7" font-family="Inter,Arial" font-weight="bold" font-size="10.00" fill="#614000">spinning_top</text>
<text xml:space="preserve" text-anchor="start" x="197.83" y="-8.7" font-family="Inter,Arial" font-size="10.00" fill="#614000">0.3.0</text>
</g>
<!-- n0&#45;&gt;out0 -->
<g id="edge2" class="edge">
<title>n0&#45;&gt;out0</title>
<path fill="none" stroke="#d19922" stroke-width="0.9" stroke-dasharray="5,2" d="M99.02,-105.7C116.31,-95.59 136.35,-83.89 154.48,-73.29"/>
<polygon fill="#d19922" stroke="#d19922" stroke-width="0.9" points="155.09,-75.17 158.86,-70.73 153.14,-71.85 155.09,-75.17"/>
</g>
<g id="nested-shared-leaf-badges" class="nested-shared-leaf-badges" pointer-events="none">
<!-- nested shared leaf badge tap / 1.0.1 on wyz / 0.5.1 -->
<g>
<title>nested shared leaf tap / 1.0.1</title>
<rect x="177.83" y="-170.32" width="61.75" height="34.00" fill="#f7f9fb" stroke="none"/>
<rect x="179.08" y="-138.32" width="59.25" height="31.50" rx="15.75" ry="15.75" fill="#f7f9fb" stroke="#9aa8b8" stroke-opacity="1" stroke-width="1.25"/>
<text xml:space="preserve" text-anchor="start" x="188.08" y="-119.87" font-family="Inter,Arial" font-weight="bold" font-size="11.00" fill="#172033">tap</text>
<text xml:space="preserve" text-anchor="start" x="204.58" y="-119.87" font-family="Inter,Arial" font-size="10.00" fill="#172033"> </text>
<text xml:space="preserve" text-anchor="start" x="207.58" y="-119.87" font-family="Inter,Arial" font-size="10.00" fill="#172033">1.0.1</text>
</g>
</g>
</g>
</svg>
