<?xml version="1.0" encoding="UTF-8" standalone="no"?>
<!DOCTYPE svg PUBLIC "-//W3C//DTD SVG 1.1//EN"
 "http://www.w3.org/Graphics/SVG/1.1/DTD/svg11.dtd">
<!-- Generated by graphviz version 14.1.2 (0)
 -->
<!-- Title: aml&#45;v0.16.4 Pages: 1 -->
<svg width="267pt" height="440pt"
 viewBox="0.00 0.00 267.00 440.00" xmlns="http://www.w3.org/2000/svg" xmlns:xlink="http://www.w3.org/1999/xlink">
<g id="graph0" class="graph" transform="scale(1 1) rotate(0) translate(4 435.52)">
<title>aml&#45;v0.16.4</title>
<polygon fill="white" stroke="none" points="-4,4 -4,-435.52 262.94,-435.52 262.94,4 -4,4"/>
<!-- n0 -->
<g id="node1" class="node">
<title>n0</title>
<path fill="#dff3ff" stroke="#1b78a6" d="M96.72,-136.4C96.72,-136.4 12,-136.4 12,-136.4 6,-136.4 0,-130.4 0,-124.4 0,-124.4 0,-98 0,-98 0,-92 6,-86 12,-86 12,-86 96.72,-86 96.72,-86 102.72,-86 108.72,-92 108.72,-98 108.72,-98 108.72,-124.4 108.72,-124.4 108.72,-130.4 102.72,-136.4 96.72,-136.4"/>
<text xml:space="preserve" text-anchor="start" x="43.11" y="-117.85" font-family="Inter,Arial" font-weight="bold" font-size="13.00" fill="#172033">aml</text>
<text xml:space="preserve" text-anchor="start" x="37.86" y="-105.8" font-family="Inter,Arial" font-size="12.00" fill="#172033">0.16.4</text>
<text xml:space="preserve" text-anchor="start" x="9.36" y="-94.75" font-family="Inter,Arial" font-size="11.00" fill="#172033">/vendor/aml&#45;0.16.4</text>
</g>
<!-- n1 -->
<g id="node2" class="node">
<title>n1</title>
<path fill="#f7f9fb" stroke="#8b9bb0" d="M246.94,-431.52C246.94,-431.52 160.72,-431.52 160.72,-431.52 154.72,-431.52 148.72,-425.52 148.72,-419.52 148.72,-419.52 148.72,-318.88 148.72,-318.88 148.72,-312.88 154.72,-306.88 160.72,-306.88 160.72,-306.88 246.94,-306.88 246.94,-306.88 252.94,-306.88 258.94,-312.88 258.94,-318.88 258.94,-318.88 258.94,-419.52 258.94,-419.52 258.94,-425.52 252.94,-431.52 246.94,-431.52"/>
<text xml:space="preserve" text-anchor="start" x="184.33" y="-412.97" font-family="Inter,Arial" font-weight="bold" font-size="13.00" fill="#172033">bitvec</text>
<text xml:space="preserve" text-anchor="start" x="190.7" y="-397.93" font-family="Inter,Arial" font-size="12.00" fill="#172033">1.0.1</text>
<text xml:space="preserve" text-anchor="start" x="177.95" y="-370.62" font-family="Inter,Arial" font-weight="bold" font-size="11.00" fill="#172033">funty</text>
<text xml:space="preserve" text-anchor="start" x="204.95" y="-370.62" font-family="Inter,Arial" font-size="10.00" fill="#172033"> </text>
<text xml:space="preserve" text-anchor="start" x="207.95" y="-370.62" font-family="Inter,Arial" font-size="10.00" fill="#172033">2.0.0</text>
<path fill="none" stroke="#9aa8b8" d="M174.58,-357.57C174.58,-357.57 233.08,-357.57 233.08,-357.57 238.33,-357.57 243.58,-362.82 243.58,-368.07 243.58,-368.07 243.58,-378.57 243.58,-378.57 243.58,-383.82 238.33,-389.07 233.08,-389.07 233.08,-389.07 174.58,-389.07 174.58,-389.07 169.33,-389.07 164.08,-383.82 164.08,-378.57 164.08,-378.57 164.08,-368.07 164.08,-368.07 164.08,-362.82 169.33,-357.57 174.58,-357.57"/>
<text xml:space="preserve" text-anchor="start" x="173.08" y="-333.12" font-family="Inter,Arial" font-weight="bold" font-size="11.00" fill="#172033">radium</text>
<text xml:space="preserve" text-anchor="start" x="209.83" y="-333.12" font-family="Inter,Arial" font-size="10.00" fill="#172033"> </text>
<text xml:space="preserve" text-anchor="start" x="212.83" y="-333.12" font-family="Inter,Arial" font-size="10.00" fill="#172033">0.7.0</text>
<path fill="none" stroke="#9aa8b8" d="M174.58,-320.07C174.58,-320.07 233.08,-320.07 233.08,-320.07 238.33,-320.07 243.58,-325.32 243.58,-330.57 243.58,-330.57 243.58,-341.07 243.58,-341.07 243.58,-346.32 238.33,-351.57 233.08,-351.57 233.08,-351.57 174.58,-351.57 174.58,-351.57 169.33,-351.57 164.08,-346.32 164.08,-341.07 164.08,-341.07 164.08,-330.57 164.08,-330.57 164.08,-325.32 169.33,-320.07 174.58,-320.07"/>
</g>
<!-- n0&#45;&gt;n1 -->
<g id="edge1" class="edge">
<title>n0&#45;&gt;n1</title>
<path fill="none" stroke="#9aa8b8" stroke-width="0.9" d="M66.86,-136.72C83.42,-172.71 115.62,-240.02 148.72,-294.2 150.13,-296.51 151.59,-298.85 153.09,-301.19"/>
<polygon fill="#9aa8b8" stroke="#9aa8b8" stroke-width="0.9" points="151.29,-301.95 155.9,-305.52 154.52,-299.86 151.29,-301.95"/>
</g>
<!-- out0 -->
<g id="node5" class="node">
<title>out0</title>
<polygon fill="#fff8e8" stroke="#d19922" points="246.19,-153.4 155.47,-153.4 155.47,-69 252.19,-69 252.19,-147.4 246.19,-153.4"/>
<polyline fill="none" stroke="#d19922" points="246.19,-153.4 246.19,-147.4"/>
<polyline fill="none" stroke="#d19922" points="252.19,-147.4 246.19,-147.4"/>
<text xml:space="preserve" text-anchor="start" x="164.83" y="-137.7" font-family="Inter,Arial" font-size="10.00" fill="#614000">to acpi&#45;v6.1.1.svg</text>
<text xml:space="preserve" text-anchor="start" x="185.08" y="-127.7" font-family="Inter,Arial" font-weight="bold" font-size="10.00" fill="#614000">bit_field</text>
<text xml:space="preserve" text-anchor="start" x="190.33" y="-117.7" font-family="Inter,Arial" font-size="10.00" fill="#614000">0.10.3</text>
<text xml:space="preserve" text-anchor="start" x="181.7" y="-107.7" font-family="Inter,Arial" font-weight="bold" font-size="10.00" fill="#614000">byteorder</text>
<text xml:space="preserve" text-anchor="start" x="192.95" y="-97.7" font-family="Inter,Arial" font-size="10.00" fill="#614000">1.5.0</text>
<text xml:space="preserve" text-anchor="start" x="173.08" y="-87.7" font-family="Inter,Arial" font-weight="bold" font-size="10.00" fill="#614000">spinning_top</text>
<text xml:space="preserve" text-anchor="start" x="192.95" y="-77.7" font-family="Inter,Arial" font-size="10.00" fill="#614000">0.3.0</text>
</g>
<!-- n0&#45;&gt;out0 -->
<g id="edge5" class="edge">
<title>n0&#45;&gt;out0</title>
<path fill="none" stroke="#d19922" stroke-width="0.9" stroke-dasharray="5,2" d="M109.02,-111.2C121.92,-111.2 135.71,-111.2 148.64,-111.2"/>
<polygon fill="#d19922" stroke="#d19922" stroke-width="0.9" points="148.45,-113.13 153.95,-111.2 148.45,-109.28 148.45,-113.13"/>
</g>
<!-- out1 -->
<g id="node6" class="node">
<title>out1</title>
<polygon fill="#fff8e8" stroke="#d19922" points="246.19,-44.4 155.47,-44.4 155.47,0 252.19,0 252.19,-38.4 246.19,-44.4"/>
<polyline fill="none" stroke="#d19922" points="246.19,-44.4 246.19,-38.4"/>
<polyline fill="none" stroke="#d19922" points="252.19,-38.4 246.19,-38.4"/>
<text xml:space="preserve" text-anchor="start" x="164.83" y="-28.7" font-family="Inter,Arial" font-size="10.00" fill="#614000">to log&#45;v0.4.29.svg</text>
<text xml:space="preserve" text-anchor="start" x="196.33" y="-18.7" font-family="Inter,Arial" font-weight="bold" font-size="10.00" fill="#614000">log</text>
<text xml:space="preserve" text-anchor="start" x="190.33" y="-8.7" font-family="Inter,Arial" font-size="10.00" fill="#614000">0.4.29</text>
</g>
<!-- n0&#45;&gt;out1 -->
<g id="edge6" class="edge">
<title>n0&#45;&gt;out1</title>
<path fill="none" stroke="#d19922" stroke-width="0.9" stroke-dasharray="5,2" d="M97.62,-85.7C117.14,-73.91 140.28,-59.95 159.89,-48.12"/>
<polygon fill="#d19922" stroke="#d19922" stroke-width="0.9" points="160.7,-49.87 164.42,-45.38 158.71,-46.58 160.7,-49.87"/>
</g>
<!-- n2 -->
<g id="node3" class="node">
<title>n2</title>
<path fill="#f7f9fb" stroke="#8b9bb0" d="M218.83,-281.9C218.83,-281.9 188.83,-281.9 188.83,-281.9 182.83,-281.9 176.83,-275.9 176.83,-269.9 176.83,-269.9 176.83,-254.5 176.83,-254.5 176.83,-248.5 182.83,-242.5 188.83,-242.5 188.83,-242.5 218.83,-242.5 218.83,-242.5 224.83,-242.5 230.83,-248.5 230.83,-254.5 230.83,-254.5 230.83,-269.9 230.83,-269.9 230.83,-275.9 224.83,-281.9 218.83,-281.9"/>
<text xml:space="preserve" text-anchor="start" x="193.7" y="-263.35" font-family="Inter,Arial" font-weight="bold" font-size="13.00" fill="#172033">tap</text>
<text xml:space="preserve" text-anchor="start" x="190.7" y="-251.3" font-family="Inter,Arial" font-size="12.00" fill="#172033">1.0.1</text>
</g>
<!-- n1&#45;&gt;n2 -->
<g id="edge2" class="edge">
<title>n1&#45;&gt;n2</title>
<path fill="none" stroke="#9aa8b8" stroke-width="0.9" d="M223.51,-306.71C222.73,-300.6 221.16,-294.49 218.8,-288.38"/>
<polygon fill="#9aa8b8" stroke="#9aa8b8" stroke-width="0.9" points="220.65,-287.81 216.71,-283.51 217.11,-289.33 220.65,-287.81"/>
</g>
<!-- n1&#45;&gt;n2 -->
<!-- n3 -->
<g id="node4" class="node">
<title>n3</title>
<path fill="#f7f9fb" stroke="#8b9bb0" d="M218.83,-217.9C218.83,-217.9 188.83,-217.9 188.83,-217.9 182.83,-217.9 176.83,-211.9 176.83,-205.9 176.83,-205.9 176.83,-190.5 176.83,-190.5 176.83,-184.5 182.83,-178.5 188.83,-178.5 188.83,-178.5 218.83,-178.5 218.83,-178.5 224.83,-178.5 230.83,-184.5 230.83,-190.5 230.83,-190.5 230.83,-205.9 230.83,-205.9 230.83,-211.9 224.83,-217.9 218.83,-217.9"/>
<text xml:space="preserve" text-anchor="start" x="191.83" y="-199.35" font-family="Inter,Arial" font-weight="bold" font-size="13.00" fill="#172033">wyz</text>
<text xml:space="preserve" text-anchor="start" x="190.7" y="-187.3" font-family="Inter,Arial" font-size="12.00" fill="#172033">0.5.1</text>
</g>
<!-- n1&#45;&gt;n3 -->
<g id="edge3" class="edge">
<title>n1&#45;&gt;n3</title>
<path fill="none" stroke="#9aa8b8" stroke-width="0.9" d="M148.33,-316.14C140.31,-305.55 133.24,-293.9 128.72,-281.7 122.7,-265.45 120.32,-257.86 128.72,-242.7 137.54,-226.78 154.61,-216.01 170.25,-209.05"/>
<polygon fill="#9aa8b8" stroke="#9aa8b8" stroke-width="0.9" points="170.79,-210.91 175.12,-207.01 169.31,-207.36 170.79,-210.91"/>
</g>
<!-- n2&#45;&gt;n3 -->
<!-- n3&#45;&gt;n2 -->
<g id="edge4" class="edge">
<title>n3&#45;&gt;n2</title>
<path fill="none" stroke="#9aa8b8" stroke-width="0.9" d="M221.23,-218.2C224.03,-224.09 224.77,-229.98 223.44,-235.87"/>
<polygon fill="#9aa8b8" stroke="#9aa8b8" stroke-width="0.9" points="221.66,-235.15 221.65,-240.98 225.29,-236.42 221.66,-235.15"/>
</g>
</g>
</svg>
