<?xml version="1.0" encoding="UTF-8" standalone="no"?>
<!DOCTYPE svg PUBLIC "-//W3C//DTD SVG 1.1//EN"
 "http://www.w3.org/Graphics/SVG/1.1/DTD/svg11.dtd">
<!-- Generated by graphviz version 14.1.2 (0)
 -->
<!-- Title: base64&#45;v0.22.1 Pages: 1 -->
<svg width="360pt" height="141pt"
 viewBox="0.00 0.00 360.00 141.00" xmlns="http://www.w3.org/2000/svg" xmlns:xlink="http://www.w3.org/1999/xlink">
<g id="graph0" class="graph" transform="scale(1 1) rotate(0) translate(4 137.4)">
<title>base64&#45;v0.22.1</title>
<polygon fill="white" stroke="none" points="-4,4 -4,-137.4 355.94,-137.4 355.94,4 -4,4"/>
<!-- n0 -->
<g id="node1" class="node">
<title>n0</title>
<path fill="#dff3ff" stroke="#1b78a6" d="M339.94,-91.4C339.94,-91.4 237.22,-91.4 237.22,-91.4 231.22,-91.4 225.22,-85.4 225.22,-79.4 225.22,-79.4 225.22,-53 225.22,-53 225.22,-47 231.22,-41 237.22,-41 237.22,-41 339.94,-41 339.94,-41 345.94,-41 351.94,-47 351.94,-53 351.94,-53 351.94,-79.4 351.94,-79.4 351.94,-85.4 345.94,-91.4 339.94,-91.4"/>
<text xml:space="preserve" text-anchor="start" x="265.7" y="-72.85" font-family="Inter,Arial" font-weight="bold" font-size="13.00" fill="#172033">base64</text>
<text xml:space="preserve" text-anchor="start" x="272.08" y="-60.8" font-family="Inter,Arial" font-size="12.00" fill="#172033">0.22.1</text>
<text xml:space="preserve" text-anchor="start" x="234.58" y="-49.75" font-family="Inter,Arial" font-size="11.00" fill="#172033">/vendor/base64&#45;0.22.1</text>
</g>
<!-- in0 -->
<g id="node2" class="node">
<title>in0</title>
<polygon fill="#eef6ff" stroke="#4b8fc5" points="179.22,-133.4 0,-133.4 0,-79 185.22,-79 185.22,-127.4 179.22,-133.4"/>
<polyline fill="none" stroke="#4b8fc5" points="179.22,-133.4 179.22,-127.4"/>
<polyline fill="none" stroke="#4b8fc5" points="185.22,-127.4 179.22,-127.4"/>
<text xml:space="preserve" text-anchor="start" x="9.36" y="-117.7" font-family="Inter,Arial" font-size="10.00" fill="#123d5c">from embedded&#45;websocket&#45;v0.9.4.svg</text>
<text xml:space="preserve" text-anchor="start" x="76.48" y="-107.7" font-family="Inter,Arial" font-weight="bold" font-size="10.00" fill="#123d5c">base64</text>
<text xml:space="preserve" text-anchor="start" x="79.11" y="-97.7" font-family="Inter,Arial" font-size="10.00" fill="#123d5c">0.22.1</text>
<text xml:space="preserve" text-anchor="start" x="44.23" y="-87.7" font-family="Inter,Arial" font-size="10.00" fill="#123d5c">/vendor/base64&#45;0.22.1</text>
</g>
<!-- in0&#45;&gt;n0 -->
<g id="edge1" class="edge">
<title>in0&#45;&gt;n0</title>
<path fill="none" stroke="#4b8fc5" stroke-width="0.9" stroke-dasharray="5,2" d="M185.48,-87.25C196.51,-84.98 207.63,-82.69 218.26,-80.49"/>
<polygon fill="#4b8fc5" stroke="#4b8fc5" stroke-width="0.9" points="218.48,-82.42 223.48,-79.42 217.7,-78.64 218.48,-82.42"/>
</g>
<!-- in1 -->
<g id="node3" class="node">
<title>in1</title>
<polygon fill="#eef6ff" stroke="#4b8fc5" points="144.72,-54.4 34.5,-54.4 34.5,0 150.72,0 150.72,-48.4 144.72,-54.4"/>
<polyline fill="none" stroke="#4b8fc5" points="144.72,-54.4 144.72,-48.4"/>
<polyline fill="none" stroke="#4b8fc5" points="150.72,-48.4 144.72,-48.4"/>
<text xml:space="preserve" text-anchor="start" x="43.86" y="-38.7" font-family="Inter,Arial" font-size="10.00" fill="#123d5c">from usvg&#45;v0.45.1.svg</text>
<text xml:space="preserve" text-anchor="start" x="76.48" y="-28.7" font-family="Inter,Arial" font-weight="bold" font-size="10.00" fill="#123d5c">base64</text>
<text xml:space="preserve" text-anchor="start" x="79.11" y="-18.7" font-family="Inter,Arial" font-size="10.00" fill="#123d5c">0.22.1</text>
<text xml:space="preserve" text-anchor="start" x="44.23" y="-8.7" font-family="Inter,Arial" font-size="10.00" fill="#123d5c">/vendor/base64&#45;0.22.1</text>
</g>
<!-- in1&#45;&gt;n0 -->
<g id="edge2" class="edge">
<title>in1&#45;&gt;n0</title>
<path fill="none" stroke="#4b8fc5" stroke-width="0.9" stroke-dasharray="5,2" d="M151.02,-38.74C172.17,-43 196.35,-47.86 218.42,-52.3"/>
<polygon fill="#4b8fc5" stroke="#4b8fc5" stroke-width="0.9" points="217.79,-54.13 223.56,-53.33 218.55,-50.36 217.79,-54.13"/>
</g>
</g>
</svg>
