<?xml version="1.0" encoding="UTF-8" standalone="no"?>
<!DOCTYPE svg PUBLIC "-//W3C//DTD SVG 1.1//EN"
 "http://www.w3.org/Graphics/SVG/1.1/DTD/svg11.dtd">
<!-- Generated by graphviz version 14.1.2 (0)
 -->
<!-- Title: bytes&#45;v1.11.1 Pages: 1 -->
<svg width="209pt" height="45pt"
 viewBox="0.00 0.00 209.00 45.00" xmlns="http://www.w3.org/2000/svg" xmlns:xlink="http://www.w3.org/1999/xlink">
<g id="graph0" class="graph" transform="scale(1 1) rotate(0) translate(4 41.2)">
<title>bytes&#45;v1.11.1</title>
<polygon fill="white" stroke="none" points="-4,4 -4,-41.2 204.77,-41.2 204.77,4 -4,4"/>
<!-- n0 -->
<g id="node1" class="node">
<title>n0</title>
<path fill="#dff3ff" stroke="#1b78a6" d="M188.77,-36.6C188.77,-36.6 158.77,-36.6 158.77,-36.6 152.77,-36.6 146.77,-30.6 146.77,-24.6 146.77,-24.6 146.77,-12.6 146.77,-12.6 146.77,-6.6 152.77,-0.6 158.77,-0.6 158.77,-0.6 188.77,-0.6 188.77,-0.6 194.77,-0.6 200.77,-6.6 200.77,-12.6 200.77,-12.6 200.77,-24.6 200.77,-24.6 200.77,-30.6 194.77,-36.6 188.77,-36.6"/>
<text xml:space="preserve" text-anchor="start" x="161.39" y="-20.1" font-family="Inter,Arial" font-weight="bold" font-size="10.00" fill="#172033">bytes</text>
<text xml:space="preserve" text-anchor="start" x="160.27" y="-10.1" font-family="Inter,Arial" font-size="10.00" fill="#172033">1.11.1</text>
</g>
<!-- in0 -->
<g id="node2" class="node">
<title>in0</title>
<polygon fill="#eef6ff" stroke="#4b8fc5" points="100.77,-37.2 0,-37.2 0,0 106.77,0 106.77,-31.2 100.77,-37.2"/>
<polyline fill="none" stroke="#4b8fc5" points="100.77,-37.2 100.77,-31.2"/>
<polyline fill="none" stroke="#4b8fc5" points="106.77,-31.2 100.77,-31.2"/>
<text xml:space="preserve" text-anchor="start" x="5.76" y="-25.1" font-family="Inter,Arial" font-size="10.00" fill="#123d5c">from hyper&#45;v1.9.0.svg</text>
<text xml:space="preserve" text-anchor="start" x="41.01" y="-15.1" font-family="Inter,Arial" font-weight="bold" font-size="10.00" fill="#123d5c">bytes</text>
<text xml:space="preserve" text-anchor="start" x="39.88" y="-5.1" font-family="Inter,Arial" font-size="10.00" fill="#123d5c">1.11.1</text>
</g>
<!-- in0&#45;&gt;n0 -->
<g id="edge1" class="edge">
<title>in0&#45;&gt;n0</title>
<path fill="none" stroke="#4b8fc5" stroke-width="0.9" stroke-dasharray="5,2" d="M107,-18.6C118.14,-18.6 129.59,-18.6 139.76,-18.6"/>
<polygon fill="#4b8fc5" stroke="#4b8fc5" stroke-width="0.9" points="139.7,-20.53 145.2,-18.6 139.7,-16.68 139.7,-20.53"/>
</g>
</g>
</svg>
