<?xml version="1.0" encoding="UTF-8" standalone="no"?>
<!DOCTYPE svg PUBLIC "-//W3C//DTD SVG 1.1//EN"
 "http://www.w3.org/Graphics/SVG/1.1/DTD/svg11.dtd">
<!-- Generated by graphviz version 14.1.2 (0)
 -->
<!-- Title: bytes&#45;v1.12.0 Pages: 1 -->
<svg width="216pt" height="52pt"
 viewBox="0.00 0.00 216.00 52.00" xmlns="http://www.w3.org/2000/svg" xmlns:xlink="http://www.w3.org/1999/xlink">
<g id="graph0" class="graph" transform="scale(1 1) rotate(0) translate(4 48.4)">
<title>bytes&#45;v1.12.0</title>
<polygon fill="white" stroke="none" points="-4,4 -4,-48.4 211.97,-48.4 211.97,4 -4,4"/>
<!-- n0 -->
<g id="node1" class="node">
<title>n0</title>
<path fill="#dff3ff" stroke="#1b78a6" d="M195.97,-41.9C195.97,-41.9 165.97,-41.9 165.97,-41.9 159.97,-41.9 153.97,-35.9 153.97,-29.9 153.97,-29.9 153.97,-14.5 153.97,-14.5 153.97,-8.5 159.97,-2.5 165.97,-2.5 165.97,-2.5 195.97,-2.5 195.97,-2.5 201.97,-2.5 207.97,-8.5 207.97,-14.5 207.97,-14.5 207.97,-29.9 207.97,-29.9 207.97,-35.9 201.97,-41.9 195.97,-41.9"/>
<text xml:space="preserve" text-anchor="start" x="163.35" y="-23.35" font-family="Inter,Arial" font-weight="bold" font-size="13.00" fill="#172033">bytes</text>
<text xml:space="preserve" text-anchor="start" x="164.47" y="-11.3" font-family="Inter,Arial" font-size="12.00" fill="#172033">1.12.0</text>
</g>
<!-- in0 -->
<g id="node2" class="node">
<title>in0</title>
<polygon fill="#eef6ff" stroke="#4b8fc5" points="107.97,-44.4 0,-44.4 0,0 113.97,0 113.97,-38.4 107.97,-44.4"/>
<polyline fill="none" stroke="#4b8fc5" points="107.97,-44.4 107.97,-38.4"/>
<polyline fill="none" stroke="#4b8fc5" points="113.97,-38.4 107.97,-38.4"/>
<text xml:space="preserve" text-anchor="start" x="9.36" y="-28.7" font-family="Inter,Arial" font-size="10.00" fill="#123d5c">from hyper&#45;v1.9.0.svg</text>
<text xml:space="preserve" text-anchor="start" x="44.61" y="-18.7" font-family="Inter,Arial" font-weight="bold" font-size="10.00" fill="#123d5c">bytes</text>
<text xml:space="preserve" text-anchor="start" x="43.49" y="-8.7" font-family="Inter,Arial" font-size="10.00" fill="#123d5c">1.12.0</text>
</g>
<!-- in0&#45;&gt;n0 -->
<g id="edge1" class="edge">
<title>in0&#45;&gt;n0</title>
<path fill="none" stroke="#4b8fc5" stroke-width="0.9" stroke-dasharray="5,2" d="M114.34,-22.2C125.49,-22.2 136.86,-22.2 146.93,-22.2"/>
<polygon fill="#4b8fc5" stroke="#4b8fc5" stroke-width="0.9" points="146.81,-24.13 152.31,-22.2 146.81,-20.28 146.81,-24.13"/>
</g>
</g>
</svg>
