<?xml version="1.0" encoding="UTF-8" standalone="no"?>
<!DOCTYPE svg PUBLIC "-//W3C//DTD SVG 1.1//EN"
 "http://www.w3.org/Graphics/SVG/1.1/DTD/svg11.dtd">
<!-- Generated by graphviz version 14.1.2 (0)
 -->
<!-- Title: core3&#45;v0.1.2 Pages: 1 -->
<svg width="374pt" height="293pt"
 viewBox="0.00 0.00 374.00 293.00" xmlns="http://www.w3.org/2000/svg" xmlns:xlink="http://www.w3.org/1999/xlink">
<g id="graph0" class="graph" transform="scale(1 1) rotate(0) translate(4 289.2)">
<title>core3&#45;v0.1.2</title>
<polygon fill="white" stroke="none" points="-4,4 -4,-289.2 370.29,-289.2 370.29,4 -4,4"/>
<!-- n0 -->
<g id="node1" class="node">
<title>n0</title>
<path fill="#dff3ff" stroke="#1b78a6" d="M207.52,-160.6C207.52,-160.6 177.52,-160.6 177.52,-160.6 171.52,-160.6 165.52,-154.6 165.52,-148.6 165.52,-148.6 165.52,-136.6 165.52,-136.6 165.52,-130.6 171.52,-124.6 177.52,-124.6 177.52,-124.6 207.52,-124.6 207.52,-124.6 213.52,-124.6 219.52,-130.6 219.52,-136.6 219.52,-136.6 219.52,-148.6 219.52,-148.6 219.52,-154.6 213.52,-160.6 207.52,-160.6"/>
<text xml:space="preserve" text-anchor="start" x="179.77" y="-144.1" font-family="Inter,Arial" font-weight="bold" font-size="10.00" fill="#172033">core3</text>
<text xml:space="preserve" text-anchor="start" x="181.64" y="-134.1" font-family="Inter,Arial" font-size="10.00" fill="#172033">0.1.2</text>
</g>
<!-- out0 -->
<g id="node2" class="node">
<title>out0</title>
<polygon fill="#fff8e8" stroke="#d19922" points="360.29,-161.2 259.52,-161.2 259.52,-124 366.29,-124 366.29,-155.2 360.29,-161.2"/>
<polyline fill="none" stroke="#d19922" points="360.29,-161.2 360.29,-155.2"/>
<polyline fill="none" stroke="#d19922" points="366.29,-155.2 360.29,-155.2"/>
<text xml:space="preserve" text-anchor="start" x="265.28" y="-149.1" font-family="Inter,Arial" font-size="10.00" fill="#614000">to memchr&#45;v2.8.0.svg</text>
<text xml:space="preserve" text-anchor="start" x="293.78" y="-139.1" font-family="Inter,Arial" font-weight="bold" font-size="10.00" fill="#614000">memchr</text>
<text xml:space="preserve" text-anchor="start" x="302.03" y="-129.1" font-family="Inter,Arial" font-size="10.00" fill="#614000">2.8.0</text>
</g>
<!-- n0&#45;&gt;out0 -->
<g id="edge1" class="edge">
<title>n0&#45;&gt;out0</title>
<path fill="none" stroke="#d19922" stroke-width="0.9" stroke-dasharray="5,2" d="M219.79,-142.6C229.59,-142.6 241.15,-142.6 252.7,-142.6"/>
<polygon fill="#d19922" stroke="#d19922" stroke-width="0.9" points="252.63,-144.53 258.13,-142.6 252.63,-140.68 252.63,-144.53"/>
</g>
<!-- in1 -->
<g id="node3" class="node">
<title>in1</title>
<polygon fill="#eef6ff" stroke="#4b8fc5" points="106.02,-285.2 13.5,-285.2 13.5,-248 112.02,-248 112.02,-279.2 106.02,-285.2"/>
<polyline fill="none" stroke="#4b8fc5" points="106.02,-285.2 106.02,-279.2"/>
<polyline fill="none" stroke="#4b8fc5" points="112.02,-279.2 106.02,-279.2"/>
<text xml:space="preserve" text-anchor="start" x="19.26" y="-273.1" font-family="Inter,Arial" font-size="10.00" fill="#123d5c">from mio&#45;v1.2.0.svg</text>
<text xml:space="preserve" text-anchor="start" x="50.01" y="-263.1" font-family="Inter,Arial" font-weight="bold" font-size="10.00" fill="#123d5c">core3</text>
<text xml:space="preserve" text-anchor="start" x="51.88" y="-253.1" font-family="Inter,Arial" font-size="10.00" fill="#123d5c">0.1.2</text>
</g>
<!-- in1&#45;&gt;n0 -->
<g id="edge2" class="edge">
<title>in1&#45;&gt;n0</title>
<path fill="none" stroke="#4b8fc5" stroke-width="0.9" stroke-dasharray="5,2" d="M108.29,-247.6C114.39,-244.06 120.33,-240.05 125.52,-235.6 148.22,-216.12 167.11,-187.24 178.79,-166.84"/>
<polygon fill="#4b8fc5" stroke="#4b8fc5" stroke-width="0.9" points="180.35,-167.99 181.36,-162.25 176.99,-166.1 180.35,-167.99"/>
</g>
<!-- in2 -->
<g id="node4" class="node">
<title>in2</title>
<polygon fill="#eef6ff" stroke="#4b8fc5" points="108.64,-223.2 10.87,-223.2 10.87,-186 114.64,-186 114.64,-217.2 108.64,-223.2"/>
<polyline fill="none" stroke="#4b8fc5" points="108.64,-223.2 108.64,-217.2"/>
<polyline fill="none" stroke="#4b8fc5" points="114.64,-217.2 108.64,-217.2"/>
<text xml:space="preserve" text-anchor="start" x="16.63" y="-211.1" font-family="Inter,Arial" font-size="10.00" fill="#123d5c">from png&#45;v0.18.1.svg</text>
<text xml:space="preserve" text-anchor="start" x="50.01" y="-201.1" font-family="Inter,Arial" font-weight="bold" font-size="10.00" fill="#123d5c">core3</text>
<text xml:space="preserve" text-anchor="start" x="51.88" y="-191.1" font-family="Inter,Arial" font-size="10.00" fill="#123d5c">0.1.2</text>
</g>
<!-- in2&#45;&gt;n0 -->
<g id="edge3" class="edge">
<title>in2&#45;&gt;n0</title>
<path fill="none" stroke="#4b8fc5" stroke-width="0.9" stroke-dasharray="5,2" d="M102.79,-185.66C120.82,-176.91 142,-166.63 159.13,-158.32"/>
<polygon fill="#4b8fc5" stroke="#4b8fc5" stroke-width="0.9" points="159.92,-160.08 164.03,-155.94 158.24,-156.61 159.92,-160.08"/>
</g>
<!-- in3 -->
<g id="node5" class="node">
<title>in3</title>
<polygon fill="#eef6ff" stroke="#4b8fc5" points="115.39,-161.2 4.12,-161.2 4.12,-124 121.39,-124 121.39,-155.2 115.39,-161.2"/>
<polyline fill="none" stroke="#4b8fc5" points="115.39,-161.2 115.39,-155.2"/>
<polyline fill="none" stroke="#4b8fc5" points="121.39,-155.2 115.39,-155.2"/>
<text xml:space="preserve" text-anchor="start" x="9.88" y="-149.1" font-family="Inter,Arial" font-size="10.00" fill="#123d5c">from socket2&#45;v0.6.3.svg</text>
<text xml:space="preserve" text-anchor="start" x="50.01" y="-139.1" font-family="Inter,Arial" font-weight="bold" font-size="10.00" fill="#123d5c">core3</text>
<text xml:space="preserve" text-anchor="start" x="51.88" y="-129.1" font-family="Inter,Arial" font-size="10.00" fill="#123d5c">0.1.2</text>
</g>
<!-- in3&#45;&gt;n0 -->
<g id="edge4" class="edge">
<title>in3&#45;&gt;n0</title>
<path fill="none" stroke="#4b8fc5" stroke-width="0.9" stroke-dasharray="5,2" d="M121.66,-142.6C134.23,-142.6 147.12,-142.6 158.35,-142.6"/>
<polygon fill="#4b8fc5" stroke="#4b8fc5" stroke-width="0.9" points="158.24,-144.53 163.74,-142.6 158.24,-140.68 158.24,-144.53"/>
</g>
<!-- in4 -->
<g id="node6" class="node">
<title>in4</title>
<polygon fill="#eef6ff" stroke="#4b8fc5" points="116.89,-99.2 2.62,-99.2 2.62,-62 122.89,-62 122.89,-93.2 116.89,-99.2"/>
<polyline fill="none" stroke="#4b8fc5" points="116.89,-99.2 116.89,-93.2"/>
<polyline fill="none" stroke="#4b8fc5" points="122.89,-93.2 116.89,-93.2"/>
<text xml:space="preserve" text-anchor="start" x="8.38" y="-87.1" font-family="Inter,Arial" font-size="10.00" fill="#123d5c">from trueos&#45;io&#45;v0.1.0.svg</text>
<text xml:space="preserve" text-anchor="start" x="50.01" y="-77.1" font-family="Inter,Arial" font-weight="bold" font-size="10.00" fill="#123d5c">core3</text>
<text xml:space="preserve" text-anchor="start" x="51.88" y="-67.1" font-family="Inter,Arial" font-size="10.00" fill="#123d5c">0.1.2</text>
</g>
<!-- in4&#45;&gt;n0 -->
<g id="edge5" class="edge">
<title>in4&#45;&gt;n0</title>
<path fill="none" stroke="#4b8fc5" stroke-width="0.9" stroke-dasharray="5,2" d="M102.79,-99.54C120.82,-108.29 142,-118.57 159.13,-126.88"/>
<polygon fill="#4b8fc5" stroke="#4b8fc5" stroke-width="0.9" points="158.24,-128.59 164.03,-129.26 159.92,-125.12 158.24,-128.59"/>
</g>
<!-- in5 -->
<g id="node7" class="node">
<title>in5</title>
<polygon fill="#eef6ff" stroke="#4b8fc5" points="119.52,-37.2 0,-37.2 0,0 125.52,0 125.52,-31.2 119.52,-37.2"/>
<polyline fill="none" stroke="#4b8fc5" points="119.52,-37.2 119.52,-31.2"/>
<polyline fill="none" stroke="#4b8fc5" points="125.52,-31.2 119.52,-31.2"/>
<text xml:space="preserve" text-anchor="start" x="5.76" y="-25.1" font-family="Inter,Arial" font-size="10.00" fill="#123d5c">from trueos&#45;qjs&#45;v0.1.0.svg</text>
<text xml:space="preserve" text-anchor="start" x="50.01" y="-15.1" font-family="Inter,Arial" font-weight="bold" font-size="10.00" fill="#123d5c">core3</text>
<text xml:space="preserve" text-anchor="start" x="51.88" y="-5.1" font-family="Inter,Arial" font-size="10.00" fill="#123d5c">0.1.2</text>
</g>
<!-- in5&#45;&gt;n0 -->
<g id="edge6" class="edge">
<title>in5&#45;&gt;n0</title>
<path fill="none" stroke="#4b8fc5" stroke-width="0.9" stroke-dasharray="5,2" d="M108.29,-37.6C114.39,-41.14 120.33,-45.15 125.52,-49.6 148.22,-69.08 167.11,-97.96 178.79,-118.36"/>
<polygon fill="#4b8fc5" stroke="#4b8fc5" stroke-width="0.9" points="176.99,-119.1 181.36,-122.95 180.35,-117.21 176.99,-119.1"/>
</g>
</g>
</svg>
