<?xml version="1.0" encoding="UTF-8" standalone="no"?>
<!DOCTYPE svg PUBLIC "-//W3C//DTD SVG 1.1//EN"
 "http://www.w3.org/Graphics/SVG/1.1/DTD/svg11.dtd">
<!-- Generated by graphviz version 14.1.2 (0)
 -->
<!-- Title: core3&#45;v0.1.2 Pages: 1 -->
<svg width="389pt" height="328pt"
 viewBox="0.00 0.00 389.00 328.00" xmlns="http://www.w3.org/2000/svg" xmlns:xlink="http://www.w3.org/1999/xlink">
<g id="graph0" class="graph" transform="scale(1 1) rotate(0) translate(4 324.4)">
<title>core3&#45;v0.1.2</title>
<polygon fill="white" stroke="none" points="-4,4 -4,-324.4 385.41,-324.4 385.41,4 -4,4"/>
<!-- n0 -->
<g id="node1" class="node">
<title>n0</title>
<path fill="#dff3ff" stroke="#1b78a6" d="M215.44,-179.9C215.44,-179.9 184.72,-179.9 184.72,-179.9 178.72,-179.9 172.72,-173.9 172.72,-167.9 172.72,-167.9 172.72,-152.5 172.72,-152.5 172.72,-146.5 178.72,-140.5 184.72,-140.5 184.72,-140.5 215.44,-140.5 215.44,-140.5 221.44,-140.5 227.44,-146.5 227.44,-152.5 227.44,-152.5 227.44,-167.9 227.44,-167.9 227.44,-173.9 221.44,-179.9 215.44,-179.9"/>
<text xml:space="preserve" text-anchor="start" x="182.08" y="-161.35" font-family="Inter,Arial" font-weight="bold" font-size="13.00" fill="#172033">core3</text>
<text xml:space="preserve" text-anchor="start" x="186.95" y="-149.3" font-family="Inter,Arial" font-size="12.00" fill="#172033">0.1.2</text>
</g>
<!-- out0 -->
<g id="node2" class="node">
<title>out0</title>
<polygon fill="#fff8e8" stroke="#d19922" points="375.41,-182.4 267.44,-182.4 267.44,-138 381.41,-138 381.41,-176.4 375.41,-182.4"/>
<polyline fill="none" stroke="#d19922" points="375.41,-182.4 375.41,-176.4"/>
<polyline fill="none" stroke="#d19922" points="381.41,-176.4 375.41,-176.4"/>
<text xml:space="preserve" text-anchor="start" x="276.8" y="-166.7" font-family="Inter,Arial" font-size="10.00" fill="#614000">to memchr&#45;v2.8.2.svg</text>
<text xml:space="preserve" text-anchor="start" x="305.3" y="-156.7" font-family="Inter,Arial" font-weight="bold" font-size="10.00" fill="#614000">memchr</text>
<text xml:space="preserve" text-anchor="start" x="313.55" y="-146.7" font-family="Inter,Arial" font-size="10.00" fill="#614000">2.8.2</text>
</g>
<!-- n0&#45;&gt;out0 -->
<g id="edge1" class="edge">
<title>n0&#45;&gt;out0</title>
<path fill="none" stroke="#d19922" stroke-width="0.9" stroke-dasharray="5,2" d="M227.93,-160.2C237.57,-160.2 248.9,-160.2 260.31,-160.2"/>
<polygon fill="#d19922" stroke="#d19922" stroke-width="0.9" points="260.17,-162.13 265.67,-160.2 260.17,-158.28 260.17,-162.13"/>
</g>
<!-- in1 -->
<g id="node3" class="node">
<title>in1</title>
<polygon fill="#eef6ff" stroke="#4b8fc5" points="113.22,-320.4 13.5,-320.4 13.5,-276 119.22,-276 119.22,-314.4 113.22,-320.4"/>
<polyline fill="none" stroke="#4b8fc5" points="113.22,-320.4 113.22,-314.4"/>
<polyline fill="none" stroke="#4b8fc5" points="119.22,-314.4 113.22,-314.4"/>
<text xml:space="preserve" text-anchor="start" x="22.86" y="-304.7" font-family="Inter,Arial" font-size="10.00" fill="#123d5c">from mio&#45;v1.2.0.svg</text>
<text xml:space="preserve" text-anchor="start" x="53.61" y="-294.7" font-family="Inter,Arial" font-weight="bold" font-size="10.00" fill="#123d5c">core3</text>
<text xml:space="preserve" text-anchor="start" x="55.49" y="-284.7" font-family="Inter,Arial" font-size="10.00" fill="#123d5c">0.1.2</text>
</g>
<!-- in1&#45;&gt;n0 -->
<g id="edge2" class="edge">
<title>in1&#45;&gt;n0</title>
<path fill="none" stroke="#4b8fc5" stroke-width="0.9" stroke-dasharray="5,2" d="M117.72,-275.55C123.06,-272.13 128.19,-268.35 132.72,-264.2 156.98,-241.99 176.01,-209.01 187.36,-186.16"/>
<polygon fill="#4b8fc5" stroke="#4b8fc5" stroke-width="0.9" points="189.08,-187.02 189.76,-181.23 185.62,-185.33 189.08,-187.02"/>
</g>
<!-- in2 -->
<g id="node4" class="node">
<title>in2</title>
<polygon fill="#eef6ff" stroke="#4b8fc5" points="115.85,-251.4 10.88,-251.4 10.88,-207 121.85,-207 121.85,-245.4 115.85,-251.4"/>
<polyline fill="none" stroke="#4b8fc5" points="115.85,-251.4 115.85,-245.4"/>
<polyline fill="none" stroke="#4b8fc5" points="121.85,-245.4 115.85,-245.4"/>
<text xml:space="preserve" text-anchor="start" x="20.24" y="-235.7" font-family="Inter,Arial" font-size="10.00" fill="#123d5c">from png&#45;v0.18.1.svg</text>
<text xml:space="preserve" text-anchor="start" x="53.61" y="-225.7" font-family="Inter,Arial" font-weight="bold" font-size="10.00" fill="#123d5c">core3</text>
<text xml:space="preserve" text-anchor="start" x="55.49" y="-215.7" font-family="Inter,Arial" font-size="10.00" fill="#123d5c">0.1.2</text>
</g>
<!-- in2&#45;&gt;n0 -->
<g id="edge3" class="edge">
<title>in2&#45;&gt;n0</title>
<path fill="none" stroke="#4b8fc5" stroke-width="0.9" stroke-dasharray="5,2" d="M110.97,-206.56C118.24,-202.77 125.7,-198.88 132.72,-195.2 143.72,-189.44 155.73,-183.11 166.48,-177.44"/>
<polygon fill="#4b8fc5" stroke="#4b8fc5" stroke-width="0.9" points="167.13,-179.28 171.09,-175.01 165.33,-175.87 167.13,-179.28"/>
</g>
<!-- in3 -->
<g id="node5" class="node">
<title>in3</title>
<polygon fill="#eef6ff" stroke="#4b8fc5" points="122.6,-182.4 4.13,-182.4 4.13,-138 128.6,-138 128.6,-176.4 122.6,-182.4"/>
<polyline fill="none" stroke="#4b8fc5" points="122.6,-182.4 122.6,-176.4"/>
<polyline fill="none" stroke="#4b8fc5" points="128.6,-176.4 122.6,-176.4"/>
<text xml:space="preserve" text-anchor="start" x="13.49" y="-166.7" font-family="Inter,Arial" font-size="10.00" fill="#123d5c">from socket2&#45;v0.6.3.svg</text>
<text xml:space="preserve" text-anchor="start" x="53.61" y="-156.7" font-family="Inter,Arial" font-weight="bold" font-size="10.00" fill="#123d5c">core3</text>
<text xml:space="preserve" text-anchor="start" x="55.49" y="-146.7" font-family="Inter,Arial" font-size="10.00" fill="#123d5c">0.1.2</text>
</g>
<!-- in3&#45;&gt;n0 -->
<g id="edge4" class="edge">
<title>in3&#45;&gt;n0</title>
<path fill="none" stroke="#4b8fc5" stroke-width="0.9" stroke-dasharray="5,2" d="M128.98,-160.2C141.62,-160.2 154.47,-160.2 165.66,-160.2"/>
<polygon fill="#4b8fc5" stroke="#4b8fc5" stroke-width="0.9" points="165.53,-162.13 171.03,-160.2 165.53,-158.28 165.53,-162.13"/>
</g>
<!-- in4 -->
<g id="node6" class="node">
<title>in4</title>
<polygon fill="#eef6ff" stroke="#4b8fc5" points="124.1,-113.4 2.63,-113.4 2.63,-69 130.1,-69 130.1,-107.4 124.1,-113.4"/>
<polyline fill="none" stroke="#4b8fc5" points="124.1,-113.4 124.1,-107.4"/>
<polyline fill="none" stroke="#4b8fc5" points="130.1,-107.4 124.1,-107.4"/>
<text xml:space="preserve" text-anchor="start" x="11.99" y="-97.7" font-family="Inter,Arial" font-size="10.00" fill="#123d5c">from trueos&#45;io&#45;v0.1.0.svg</text>
<text xml:space="preserve" text-anchor="start" x="53.61" y="-87.7" font-family="Inter,Arial" font-weight="bold" font-size="10.00" fill="#123d5c">core3</text>
<text xml:space="preserve" text-anchor="start" x="55.49" y="-77.7" font-family="Inter,Arial" font-size="10.00" fill="#123d5c">0.1.2</text>
</g>
<!-- in4&#45;&gt;n0 -->
<g id="edge5" class="edge">
<title>in4&#45;&gt;n0</title>
<path fill="none" stroke="#4b8fc5" stroke-width="0.9" stroke-dasharray="5,2" d="M110.97,-113.84C118.24,-117.63 125.7,-121.52 132.72,-125.2 143.72,-130.96 155.73,-137.29 166.48,-142.96"/>
<polygon fill="#4b8fc5" stroke="#4b8fc5" stroke-width="0.9" points="165.33,-144.53 171.09,-145.39 167.13,-141.12 165.33,-144.53"/>
</g>
<!-- in5 -->
<g id="node7" class="node">
<title>in5</title>
<polygon fill="#eef6ff" stroke="#4b8fc5" points="126.72,-44.4 0,-44.4 0,0 132.72,0 132.72,-38.4 126.72,-44.4"/>
<polyline fill="none" stroke="#4b8fc5" points="126.72,-44.4 126.72,-38.4"/>
<polyline fill="none" stroke="#4b8fc5" points="132.72,-38.4 126.72,-38.4"/>
<text xml:space="preserve" text-anchor="start" x="9.36" y="-28.7" font-family="Inter,Arial" font-size="10.00" fill="#123d5c">from trueos&#45;qjs&#45;v0.1.0.svg</text>
<text xml:space="preserve" text-anchor="start" x="53.61" y="-18.7" font-family="Inter,Arial" font-weight="bold" font-size="10.00" fill="#123d5c">core3</text>
<text xml:space="preserve" text-anchor="start" x="55.49" y="-8.7" font-family="Inter,Arial" font-size="10.00" fill="#123d5c">0.1.2</text>
</g>
<!-- in5&#45;&gt;n0 -->
<g id="edge6" class="edge">
<title>in5&#45;&gt;n0</title>
<path fill="none" stroke="#4b8fc5" stroke-width="0.9" stroke-dasharray="5,2" d="M117.72,-44.85C123.06,-48.27 128.19,-52.05 132.72,-56.2 156.98,-78.41 176.01,-111.39 187.36,-134.24"/>
<polygon fill="#4b8fc5" stroke="#4b8fc5" stroke-width="0.9" points="185.62,-135.07 189.76,-139.17 189.08,-133.38 185.62,-135.07"/>
</g>
</g>
</svg>
