<?xml version="1.0" encoding="UTF-8" standalone="no"?>
<!DOCTYPE svg PUBLIC "-//W3C//DTD SVG 1.1//EN"
 "http://www.w3.org/Graphics/SVG/1.1/DTD/svg11.dtd">
<!-- Generated by graphviz version 14.1.2 (0)
 -->
<!-- Title: crc32fast&#45;v1.5.0 Pages: 1 -->
<svg width="431pt" height="62pt"
 viewBox="0.00 0.00 431.00 62.00" xmlns="http://www.w3.org/2000/svg" xmlns:xlink="http://www.w3.org/1999/xlink">
<g id="graph0" class="graph" transform="scale(1 1) rotate(0) translate(4 58.4)">
<title>crc32fast&#45;v1.5.0</title>
<polygon fill="white" stroke="none" points="-4,4 -4,-58.4 426.66,-58.4 426.66,4 -4,4"/>
<!-- n0 -->
<g id="node1" class="node">
<title>n0</title>
<path fill="#dff3ff" stroke="#1b78a6" d="M276.19,-52.4C276.19,-52.4 171.22,-52.4 171.22,-52.4 165.22,-52.4 159.22,-46.4 159.22,-40.4 159.22,-40.4 159.22,-14 159.22,-14 159.22,-8 165.22,-2 171.22,-2 171.22,-2 276.19,-2 276.19,-2 282.19,-2 288.19,-8 288.19,-14 288.19,-14 288.19,-40.4 288.19,-40.4 288.19,-46.4 282.19,-52.4 276.19,-52.4"/>
<text xml:space="preserve" text-anchor="start" x="194.08" y="-33.85" font-family="Inter,Arial" font-weight="bold" font-size="13.00" fill="#172033">crc32fast</text>
<text xml:space="preserve" text-anchor="start" x="210.58" y="-21.8" font-family="Inter,Arial" font-size="12.00" fill="#172033">1.5.0</text>
<text xml:space="preserve" text-anchor="start" x="168.58" y="-10.75" font-family="Inter,Arial" font-size="11.00" fill="#172033">/vendor/crc32fast&#45;1.5.0</text>
</g>
<!-- out0 -->
<g id="node2" class="node">
<title>out0</title>
<polygon fill="#fff8e8" stroke="#d19922" points="416.66,-49.4 328.19,-49.4 328.19,-5 422.66,-5 422.66,-43.4 416.66,-49.4"/>
<polyline fill="none" stroke="#d19922" points="416.66,-49.4 416.66,-43.4"/>
<polyline fill="none" stroke="#d19922" points="422.66,-43.4 416.66,-43.4"/>
<text xml:space="preserve" text-anchor="start" x="337.55" y="-33.7" font-family="Inter,Arial" font-size="10.00" fill="#614000">to aes&#45;v0.8.4.svg</text>
<text xml:space="preserve" text-anchor="start" x="363.8" y="-23.7" font-family="Inter,Arial" font-weight="bold" font-size="10.00" fill="#614000">cfg&#45;if</text>
<text xml:space="preserve" text-anchor="start" x="364.55" y="-13.7" font-family="Inter,Arial" font-size="10.00" fill="#614000">1.0.4</text>
</g>
<!-- n0&#45;&gt;out0 -->
<g id="edge1" class="edge">
<title>n0&#45;&gt;out0</title>
<path fill="none" stroke="#d19922" stroke-width="0.9" stroke-dasharray="5,2" d="M288.63,-27.2C299.46,-27.2 310.59,-27.2 321.11,-27.2"/>
<polygon fill="#d19922" stroke="#d19922" stroke-width="0.9" points="321.05,-29.13 326.55,-27.2 321.05,-25.28 321.05,-29.13"/>
</g>
<!-- in1 -->
<g id="node3" class="node">
<title>in1</title>
<polygon fill="#eef6ff" stroke="#4b8fc5" points="113.22,-54.4 0,-54.4 0,0 119.22,0 119.22,-48.4 113.22,-54.4"/>
<polyline fill="none" stroke="#4b8fc5" points="113.22,-54.4 113.22,-48.4"/>
<polyline fill="none" stroke="#4b8fc5" points="119.22,-48.4 113.22,-48.4"/>
<text xml:space="preserve" text-anchor="start" x="13.49" y="-38.7" font-family="Inter,Arial" font-size="10.00" fill="#123d5c">from png&#45;v0.18.1.svg</text>
<text xml:space="preserve" text-anchor="start" x="38.99" y="-28.7" font-family="Inter,Arial" font-weight="bold" font-size="10.00" fill="#123d5c">crc32fast</text>
<text xml:space="preserve" text-anchor="start" x="48.74" y="-18.7" font-family="Inter,Arial" font-size="10.00" fill="#123d5c">1.5.0</text>
<text xml:space="preserve" text-anchor="start" x="9.36" y="-8.7" font-family="Inter,Arial" font-size="10.00" fill="#123d5c">/vendor/crc32fast&#45;1.5.0</text>
</g>
<!-- in1&#45;&gt;n0 -->
<g id="edge2" class="edge">
<title>in1&#45;&gt;n0</title>
<path fill="none" stroke="#4b8fc5" stroke-width="0.9" stroke-dasharray="5,2" d="M119.59,-27.2C130.16,-27.2 141.27,-27.2 152.13,-27.2"/>
<polygon fill="#4b8fc5" stroke="#4b8fc5" stroke-width="0.9" points="151.98,-29.13 157.48,-27.2 151.98,-25.28 151.98,-29.13"/>
</g>
</g>
</svg>
