<?xml version="1.0" encoding="UTF-8" standalone="no"?>
<!DOCTYPE svg PUBLIC "-//W3C//DTD SVG 1.1//EN"
 "http://www.w3.org/Graphics/SVG/1.1/DTD/svg11.dtd">
<!-- Generated by graphviz version 14.1.2 (0)
 -->
<!-- Title: crc32fast&#45;v1.5.0 Pages: 1 -->
<svg width="399pt" height="55pt"
 viewBox="0.00 0.00 399.00 55.00" xmlns="http://www.w3.org/2000/svg" xmlns:xlink="http://www.w3.org/1999/xlink">
<g id="graph0" class="graph" transform="scale(1 1) rotate(0) translate(4 51.2)">
<title>crc32fast&#45;v1.5.0</title>
<polygon fill="white" stroke="none" points="-4,4 -4,-51.2 395.31,-51.2 395.31,4 -4,4"/>
<!-- n0 -->
<g id="node1" class="node">
<title>n0</title>
<path fill="#dff3ff" stroke="#1b78a6" d="M252.04,-42.2C252.04,-42.2 164.02,-42.2 164.02,-42.2 158.02,-42.2 152.02,-36.2 152.02,-30.2 152.02,-30.2 152.02,-17 152.02,-17 152.02,-11 158.02,-5 164.02,-5 164.02,-5 252.04,-5 252.04,-5 258.04,-5 264.04,-11 264.04,-17 264.04,-17 264.04,-30.2 264.04,-30.2 264.04,-36.2 258.04,-42.2 252.04,-42.2"/>
<text xml:space="preserve" text-anchor="start" x="187.4" y="-30.1" font-family="Inter,Arial" font-weight="bold" font-size="10.00" fill="#172033">crc32fast</text>
<text xml:space="preserve" text-anchor="start" x="197.15" y="-20.1" font-family="Inter,Arial" font-size="10.00" fill="#172033">1.5.0</text>
<text xml:space="preserve" text-anchor="start" x="157.78" y="-10.1" font-family="Inter,Arial" font-size="10.00" fill="#172033">/vendor/crc32fast&#45;1.5.0</text>
</g>
<!-- out0 -->
<g id="node2" class="node">
<title>out0</title>
<polygon fill="#fff8e8" stroke="#d19922" points="385.31,-42.2 304.04,-42.2 304.04,-5 391.31,-5 391.31,-36.2 385.31,-42.2"/>
<polyline fill="none" stroke="#d19922" points="385.31,-42.2 385.31,-36.2"/>
<polyline fill="none" stroke="#d19922" points="391.31,-36.2 385.31,-36.2"/>
<text xml:space="preserve" text-anchor="start" x="309.8" y="-30.1" font-family="Inter,Arial" font-size="10.00" fill="#614000">to aes&#45;v0.8.4.svg</text>
<text xml:space="preserve" text-anchor="start" x="336.05" y="-20.1" font-family="Inter,Arial" font-weight="bold" font-size="10.00" fill="#614000">cfg&#45;if</text>
<text xml:space="preserve" text-anchor="start" x="336.8" y="-10.1" font-family="Inter,Arial" font-size="10.00" fill="#614000">1.0.4</text>
</g>
<!-- n0&#45;&gt;out0 -->
<g id="edge1" class="edge">
<title>n0&#45;&gt;out0</title>
<path fill="none" stroke="#d19922" stroke-width="0.9" stroke-dasharray="5,2" d="M264.22,-23.6C275.12,-23.6 286.5,-23.6 297.2,-23.6"/>
<polygon fill="#d19922" stroke="#d19922" stroke-width="0.9" points="296.9,-25.53 302.4,-23.6 296.9,-21.68 296.9,-25.53"/>
</g>
<!-- in1 -->
<g id="node3" class="node">
<title>in1</title>
<polygon fill="#eef6ff" stroke="#4b8fc5" points="106.02,-47.2 0,-47.2 0,0 112.02,0 112.02,-41.2 106.02,-47.2"/>
<polyline fill="none" stroke="#4b8fc5" points="106.02,-47.2 106.02,-41.2"/>
<polyline fill="none" stroke="#4b8fc5" points="112.02,-41.2 106.02,-41.2"/>
<text xml:space="preserve" text-anchor="start" x="9.88" y="-35.1" font-family="Inter,Arial" font-size="10.00" fill="#123d5c">from png&#45;v0.18.1.svg</text>
<text xml:space="preserve" text-anchor="start" x="35.38" y="-25.1" font-family="Inter,Arial" font-weight="bold" font-size="10.00" fill="#123d5c">crc32fast</text>
<text xml:space="preserve" text-anchor="start" x="45.13" y="-15.1" font-family="Inter,Arial" font-size="10.00" fill="#123d5c">1.5.0</text>
<text xml:space="preserve" text-anchor="start" x="5.76" y="-5.1" font-family="Inter,Arial" font-size="10.00" fill="#123d5c">/vendor/crc32fast&#45;1.5.0</text>
</g>
<!-- in1&#45;&gt;n0 -->
<g id="edge2" class="edge">
<title>in1&#45;&gt;n0</title>
<path fill="none" stroke="#4b8fc5" stroke-width="0.9" stroke-dasharray="5,2" d="M112.45,-23.6C123.09,-23.6 134.3,-23.6 145.13,-23.6"/>
<polygon fill="#4b8fc5" stroke="#4b8fc5" stroke-width="0.9" points="144.96,-25.53 150.46,-23.6 144.96,-21.68 144.96,-25.53"/>
</g>
</g>
</svg>
