<?xml version="1.0" encoding="UTF-8" standalone="no"?>
<!DOCTYPE svg PUBLIC "-//W3C//DTD SVG 1.1//EN"
 "http://www.w3.org/Graphics/SVG/1.1/DTD/svg11.dtd">
<!-- Generated by graphviz version 14.1.2 (0)
 -->
<!-- Title: ctr&#45;v0.9.2 Pages: 1 -->
<svg width="423pt" height="52pt"
 viewBox="0.00 0.00 423.00 52.00" xmlns="http://www.w3.org/2000/svg" xmlns:xlink="http://www.w3.org/1999/xlink">
<g id="graph0" class="graph" transform="scale(1 1) rotate(0) translate(4 48.4)">
<title>ctr&#45;v0.9.2</title>
<polygon fill="white" stroke="none" points="-4,4 -4,-48.4 419.19,-48.4 419.19,4 -4,4"/>
<!-- n0 -->
<g id="node1" class="node">
<title>n0</title>
<path fill="#dff3ff" stroke="#1b78a6" d="M268.72,-41.9C268.72,-41.9 238.72,-41.9 238.72,-41.9 232.72,-41.9 226.72,-35.9 226.72,-29.9 226.72,-29.9 226.72,-14.5 226.72,-14.5 226.72,-8.5 232.72,-2.5 238.72,-2.5 238.72,-2.5 268.72,-2.5 268.72,-2.5 274.72,-2.5 280.72,-8.5 280.72,-14.5 280.72,-14.5 280.72,-29.9 280.72,-29.9 280.72,-35.9 274.72,-41.9 268.72,-41.9"/>
<text xml:space="preserve" text-anchor="start" x="245.1" y="-23.35" font-family="Inter,Arial" font-weight="bold" font-size="13.00" fill="#172033">ctr</text>
<text xml:space="preserve" text-anchor="start" x="240.6" y="-11.3" font-family="Inter,Arial" font-size="12.00" fill="#172033">0.9.2</text>
</g>
<!-- out0 -->
<g id="node2" class="node">
<title>out0</title>
<polygon fill="#fff8e8" stroke="#d19922" points="409.19,-44.4 320.72,-44.4 320.72,0 415.19,0 415.19,-38.4 409.19,-44.4"/>
<polyline fill="none" stroke="#d19922" points="409.19,-44.4 409.19,-38.4"/>
<polyline fill="none" stroke="#d19922" points="415.19,-38.4 409.19,-38.4"/>
<text xml:space="preserve" text-anchor="start" x="330.08" y="-28.7" font-family="Inter,Arial" font-size="10.00" fill="#614000">to aes&#45;v0.8.4.svg</text>
<text xml:space="preserve" text-anchor="start" x="353.33" y="-18.7" font-family="Inter,Arial" font-weight="bold" font-size="10.00" fill="#614000">cipher</text>
<text xml:space="preserve" text-anchor="start" x="357.08" y="-8.7" font-family="Inter,Arial" font-size="10.00" fill="#614000">0.4.4</text>
</g>
<!-- n0&#45;&gt;out0 -->
<g id="edge1" class="edge">
<title>n0&#45;&gt;out0</title>
<path fill="none" stroke="#d19922" stroke-width="0.9" stroke-dasharray="5,2" d="M281.03,-22.2C290.89,-22.2 302.48,-22.2 313.89,-22.2"/>
<polygon fill="#d19922" stroke="#d19922" stroke-width="0.9" points="313.72,-24.13 319.22,-22.2 313.72,-20.28 313.72,-24.13"/>
</g>
<!-- in1 -->
<g id="node3" class="node">
<title>in1</title>
<polygon fill="#eef6ff" stroke="#4b8fc5" points="180.72,-44.4 0,-44.4 0,0 186.72,0 186.72,-38.4 180.72,-44.4"/>
<polyline fill="none" stroke="#4b8fc5" points="180.72,-44.4 180.72,-38.4"/>
<polyline fill="none" stroke="#4b8fc5" points="186.72,-38.4 180.72,-38.4"/>
<text xml:space="preserve" text-anchor="start" x="9.36" y="-28.7" font-family="Inter,Arial" font-size="10.00" fill="#123d5c">from rustls&#45;rustcrypto&#45;v0.0.2&#45;alpha.svg</text>
<text xml:space="preserve" text-anchor="start" x="87.36" y="-18.7" font-family="Inter,Arial" font-weight="bold" font-size="10.00" fill="#123d5c">ctr</text>
<text xml:space="preserve" text-anchor="start" x="82.49" y="-8.7" font-family="Inter,Arial" font-size="10.00" fill="#123d5c">0.9.2</text>
</g>
<!-- in1&#45;&gt;n0 -->
<g id="edge2" class="edge">
<title>in1&#45;&gt;n0</title>
<path fill="none" stroke="#4b8fc5" stroke-width="0.9" stroke-dasharray="5,2" d="M186.94,-22.2C198.71,-22.2 210.07,-22.2 219.94,-22.2"/>
<polygon fill="#4b8fc5" stroke="#4b8fc5" stroke-width="0.9" points="219.66,-24.13 225.16,-22.2 219.66,-20.28 219.66,-24.13"/>
</g>
</g>
</svg>
