<?xml version="1.0" encoding="UTF-8" standalone="no"?>
<!DOCTYPE svg PUBLIC "-//W3C//DTD SVG 1.1//EN"
 "http://www.w3.org/Graphics/SVG/1.1/DTD/svg11.dtd">
<!-- Generated by graphviz version 14.1.2 (0)
 -->
<!-- Title: dma&#45;api&#45;v0.7.3 Pages: 1 -->
<svg width="456pt" height="299pt"
 viewBox="0.00 0.00 456.00 299.00" xmlns="http://www.w3.org/2000/svg" xmlns:xlink="http://www.w3.org/1999/xlink">
<g id="graph0" class="graph" transform="scale(1 1) rotate(0) translate(4 295.4)">
<title>dma&#45;api&#45;v0.7.3</title>
<polygon fill="white" stroke="none" points="-4,4 -4,-295.4 452.16,-295.4 452.16,4 -4,4"/>
<!-- n0 -->
<g id="node1" class="node">
<title>n0</title>
<path fill="#dff3ff" stroke="#1b78a6" d="M279.94,-160.4C279.94,-160.4 179.47,-160.4 179.47,-160.4 173.47,-160.4 167.47,-154.4 167.47,-148.4 167.47,-148.4 167.47,-122 167.47,-122 167.47,-116 173.47,-110 179.47,-110 179.47,-110 279.94,-110 279.94,-110 285.94,-110 291.94,-116 291.94,-122 291.94,-122 291.94,-148.4 291.94,-148.4 291.94,-154.4 285.94,-160.4 279.94,-160.4"/>
<text xml:space="preserve" text-anchor="start" x="204.2" y="-141.85" font-family="Inter,Arial" font-weight="bold" font-size="13.00" fill="#172033">dma&#45;api</text>
<text xml:space="preserve" text-anchor="start" x="216.58" y="-129.8" font-family="Inter,Arial" font-size="12.00" fill="#172033">0.7.3</text>
<text xml:space="preserve" text-anchor="start" x="176.83" y="-118.75" font-family="Inter,Arial" font-size="11.00" fill="#172033">/vendor/dma&#45;api&#45;0.7.3</text>
</g>
<!-- out0 -->
<g id="node2" class="node">
<title>out0</title>
<polygon fill="#fff8e8" stroke="#d19922" points="431.28,-291.4 342.81,-291.4 342.81,-247 437.28,-247 437.28,-285.4 431.28,-291.4"/>
<polyline fill="none" stroke="#d19922" points="431.28,-291.4 431.28,-285.4"/>
<polyline fill="none" stroke="#d19922" points="437.28,-285.4 431.28,-285.4"/>
<text xml:space="preserve" text-anchor="start" x="352.17" y="-275.7" font-family="Inter,Arial" font-size="10.00" fill="#614000">to aes&#45;v0.8.4.svg</text>
<text xml:space="preserve" text-anchor="start" x="378.42" y="-265.7" font-family="Inter,Arial" font-weight="bold" font-size="10.00" fill="#614000">cfg&#45;if</text>
<text xml:space="preserve" text-anchor="start" x="379.17" y="-255.7" font-family="Inter,Arial" font-size="10.00" fill="#614000">1.0.4</text>
</g>
<!-- n0&#45;&gt;out0 -->
<g id="edge1" class="edge">
<title>n0&#45;&gt;out0</title>
<path fill="none" stroke="#d19922" stroke-width="0.9" stroke-dasharray="5,2" d="M253.32,-160.78C272.91,-182.1 302.62,-212.53 331.94,-235.2 335.37,-237.86 339.03,-240.46 342.78,-242.98"/>
<polygon fill="#d19922" stroke="#d19922" stroke-width="0.9" points="341.51,-244.46 347.16,-245.86 343.62,-241.23 341.51,-244.46"/>
</g>
<!-- out1 -->
<g id="node3" class="node">
<title>out1</title>
<polygon fill="#fff8e8" stroke="#d19922" points="442.16,-222.4 331.94,-222.4 331.94,-138 448.16,-138 448.16,-216.4 442.16,-222.4"/>
<polyline fill="none" stroke="#d19922" points="442.16,-222.4 442.16,-216.4"/>
<polyline fill="none" stroke="#d19922" points="448.16,-216.4 442.16,-216.4"/>
<text xml:space="preserve" text-anchor="start" x="341.3" y="-206.7" font-family="Inter,Arial" font-size="10.00" fill="#614000">to crab&#45;usb&#45;v0.9.1.svg</text>
<text xml:space="preserve" text-anchor="start" x="361.17" y="-196.7" font-family="Inter,Arial" font-weight="bold" font-size="10.00" fill="#614000">derive_more</text>
<text xml:space="preserve" text-anchor="start" x="379.17" y="-186.7" font-family="Inter,Arial" font-size="10.00" fill="#614000">2.1.1</text>
<text xml:space="preserve" text-anchor="start" x="370.17" y="-176.7" font-family="Inter,Arial" font-weight="bold" font-size="10.00" fill="#614000">mbarrier</text>
<text xml:space="preserve" text-anchor="start" x="379.17" y="-166.7" font-family="Inter,Arial" font-size="10.00" fill="#614000">0.1.3</text>
<text xml:space="preserve" text-anchor="start" x="370.17" y="-156.7" font-family="Inter,Arial" font-weight="bold" font-size="10.00" fill="#614000">thiserror</text>
<text xml:space="preserve" text-anchor="start" x="376.55" y="-146.7" font-family="Inter,Arial" font-size="10.00" fill="#614000">2.0.18</text>
</g>
<!-- n0&#45;&gt;out1 -->
<g id="edge2" class="edge">
<title>n0&#45;&gt;out1</title>
<path fill="none" stroke="#d19922" stroke-width="0.9" stroke-dasharray="5,2" d="M292.38,-152.73C303.19,-155.8 314.47,-159 325.34,-162.09"/>
<polygon fill="#d19922" stroke="#d19922" stroke-width="0.9" points="324.56,-163.87 330.38,-163.53 325.61,-160.17 324.56,-163.87"/>
</g>
<!-- out2 -->
<g id="node4" class="node">
<title>out2</title>
<polygon fill="#fff8e8" stroke="#d19922" points="432.41,-113.4 341.69,-113.4 341.69,-69 438.41,-69 438.41,-107.4 432.41,-113.4"/>
<polyline fill="none" stroke="#d19922" points="432.41,-113.4 432.41,-107.4"/>
<polyline fill="none" stroke="#d19922" points="438.41,-107.4 432.41,-107.4"/>
<text xml:space="preserve" text-anchor="start" x="351.05" y="-97.7" font-family="Inter,Arial" font-size="10.00" fill="#614000">to log&#45;v0.4.29.svg</text>
<text xml:space="preserve" text-anchor="start" x="382.55" y="-87.7" font-family="Inter,Arial" font-weight="bold" font-size="10.00" fill="#614000">log</text>
<text xml:space="preserve" text-anchor="start" x="376.55" y="-77.7" font-family="Inter,Arial" font-size="10.00" fill="#614000">0.4.29</text>
</g>
<!-- n0&#45;&gt;out2 -->
<g id="edge3" class="edge">
<title>n0&#45;&gt;out2</title>
<path fill="none" stroke="#d19922" stroke-width="0.9" stroke-dasharray="5,2" d="M292.38,-118.06C306.54,-114.13 321.48,-109.98 335.27,-106.14"/>
<polygon fill="#d19922" stroke="#d19922" stroke-width="0.9" points="335.42,-108.1 340.21,-104.77 334.39,-104.39 335.42,-108.1"/>
</g>
<!-- out3 -->
<g id="node5" class="node">
<title>out3</title>
<polygon fill="#fff8e8" stroke="#d19922" points="435.03,-44.4 339.06,-44.4 339.06,0 441.03,0 441.03,-38.4 435.03,-44.4"/>
<polyline fill="none" stroke="#d19922" points="435.03,-44.4 435.03,-38.4"/>
<polyline fill="none" stroke="#d19922" points="441.03,-38.4 435.03,-38.4"/>
<text xml:space="preserve" text-anchor="start" x="348.42" y="-28.7" font-family="Inter,Arial" font-size="10.00" fill="#614000">to spin&#45;v0.10.0.svg</text>
<text xml:space="preserve" text-anchor="start" x="379.92" y="-18.7" font-family="Inter,Arial" font-weight="bold" font-size="10.00" fill="#614000">spin</text>
<text xml:space="preserve" text-anchor="start" x="376.55" y="-8.7" font-family="Inter,Arial" font-size="10.00" fill="#614000">0.10.0</text>
</g>
<!-- n0&#45;&gt;out3 -->
<g id="edge4" class="edge">
<title>n0&#45;&gt;out3</title>
<path fill="none" stroke="#d19922" stroke-width="0.9" stroke-dasharray="5,2" d="M261.41,-109.6C281.1,-93.61 307.47,-72.94 331.94,-56.2 335.8,-53.56 339.88,-50.9 344,-48.3"/>
<polygon fill="#d19922" stroke="#d19922" stroke-width="0.9" points="344.82,-50.05 348.47,-45.51 342.78,-46.78 344.82,-50.05"/>
</g>
<!-- in4 -->
<g id="node6" class="node">
<title>in4</title>
<polygon fill="#eef6ff" stroke="#4b8fc5" points="121.47,-162.4 0,-162.4 0,-108 127.47,-108 127.47,-156.4 121.47,-162.4"/>
<polyline fill="none" stroke="#4b8fc5" points="121.47,-162.4 121.47,-156.4"/>
<polyline fill="none" stroke="#4b8fc5" points="127.47,-156.4 121.47,-156.4"/>
<text xml:space="preserve" text-anchor="start" x="9.36" y="-146.7" font-family="Inter,Arial" font-size="10.00" fill="#123d5c">from crab&#45;usb&#45;v0.9.1.svg</text>
<text xml:space="preserve" text-anchor="start" x="44.99" y="-136.7" font-family="Inter,Arial" font-weight="bold" font-size="10.00" fill="#123d5c">dma&#45;api</text>
<text xml:space="preserve" text-anchor="start" x="52.86" y="-126.7" font-family="Inter,Arial" font-size="10.00" fill="#123d5c">0.7.3</text>
<text xml:space="preserve" text-anchor="start" x="16.49" y="-116.7" font-family="Inter,Arial" font-size="10.00" fill="#123d5c">/vendor/dma&#45;api&#45;0.7.3</text>
</g>
<!-- in4&#45;&gt;n0 -->
<g id="edge5" class="edge">
<title>in4&#45;&gt;n0</title>
<path fill="none" stroke="#4b8fc5" stroke-width="0.9" stroke-dasharray="5,2" d="M127.66,-135.2C138.36,-135.2 149.51,-135.2 160.34,-135.2"/>
<polygon fill="#4b8fc5" stroke="#4b8fc5" stroke-width="0.9" points="160.17,-137.13 165.67,-135.2 160.17,-133.28 160.17,-137.13"/>
</g>
</g>
</svg>
