<?xml version="1.0" encoding="UTF-8" standalone="no"?>
<!DOCTYPE svg PUBLIC "-//W3C//DTD SVG 1.1//EN"
 "http://www.w3.org/Graphics/SVG/1.1/DTD/svg11.dtd">
<!-- Generated by graphviz version 14.1.2 (0)
 -->
<!-- Title: dma&#45;api&#45;v0.7.3 Pages: 1 -->
<svg width="423pt" height="271pt"
 viewBox="0.00 0.00 423.00 271.00" xmlns="http://www.w3.org/2000/svg" xmlns:xlink="http://www.w3.org/1999/xlink">
<g id="graph0" class="graph" transform="scale(1 1) rotate(0) translate(4 267.2)">
<title>dma&#45;api&#45;v0.7.3</title>
<polygon fill="white" stroke="none" points="-4,4 -4,-267.2 419.31,-267.2 419.31,4 -4,4"/>
<!-- n0 -->
<g id="node1" class="node">
<title>n0</title>
<path fill="#dff3ff" stroke="#1b78a6" d="M254.29,-140.2C254.29,-140.2 172.27,-140.2 172.27,-140.2 166.27,-140.2 160.27,-134.2 160.27,-128.2 160.27,-128.2 160.27,-115 160.27,-115 160.27,-109 166.27,-103 172.27,-103 172.27,-103 254.29,-103 254.29,-103 260.29,-103 266.29,-109 266.29,-115 266.29,-115 266.29,-128.2 266.29,-128.2 266.29,-134.2 260.29,-140.2 254.29,-140.2"/>
<text xml:space="preserve" text-anchor="start" x="194.53" y="-128.1" font-family="Inter,Arial" font-weight="bold" font-size="10.00" fill="#172033">dma&#45;api</text>
<text xml:space="preserve" text-anchor="start" x="202.4" y="-118.1" font-family="Inter,Arial" font-size="10.00" fill="#172033">0.7.3</text>
<text xml:space="preserve" text-anchor="start" x="166.03" y="-108.1" font-family="Inter,Arial" font-size="10.00" fill="#172033">/vendor/dma&#45;api&#45;0.7.3</text>
</g>
<!-- out0 -->
<g id="node2" class="node">
<title>out0</title>
<polygon fill="#fff8e8" stroke="#d19922" points="398.44,-263.2 317.17,-263.2 317.17,-226 404.44,-226 404.44,-257.2 398.44,-263.2"/>
<polyline fill="none" stroke="#d19922" points="398.44,-263.2 398.44,-257.2"/>
<polyline fill="none" stroke="#d19922" points="404.44,-257.2 398.44,-257.2"/>
<text xml:space="preserve" text-anchor="start" x="322.93" y="-251.1" font-family="Inter,Arial" font-size="10.00" fill="#614000">to aes&#45;v0.8.4.svg</text>
<text xml:space="preserve" text-anchor="start" x="349.18" y="-241.1" font-family="Inter,Arial" font-weight="bold" font-size="10.00" fill="#614000">cfg&#45;if</text>
<text xml:space="preserve" text-anchor="start" x="349.93" y="-231.1" font-family="Inter,Arial" font-size="10.00" fill="#614000">1.0.4</text>
</g>
<!-- n0&#45;&gt;out0 -->
<g id="edge1" class="edge">
<title>n0&#45;&gt;out0</title>
<path fill="none" stroke="#d19922" stroke-width="0.9" stroke-dasharray="5,2" d="M230.65,-140.68C248.14,-160.38 277.27,-191.3 306.29,-213.6 310.04,-216.48 314.07,-219.28 318.2,-221.95"/>
<polygon fill="#d19922" stroke="#d19922" stroke-width="0.9" points="317.01,-223.48 322.69,-224.78 319.06,-220.23 317.01,-223.48"/>
</g>
<!-- out1 -->
<g id="node3" class="node">
<title>out1</title>
<polygon fill="#fff8e8" stroke="#d19922" points="409.31,-201.2 306.29,-201.2 306.29,-124 415.31,-124 415.31,-195.2 409.31,-201.2"/>
<polyline fill="none" stroke="#d19922" points="409.31,-201.2 409.31,-195.2"/>
<polyline fill="none" stroke="#d19922" points="415.31,-195.2 409.31,-195.2"/>
<text xml:space="preserve" text-anchor="start" x="312.05" y="-189.1" font-family="Inter,Arial" font-size="10.00" fill="#614000">to crab&#45;usb&#45;v0.9.1.svg</text>
<text xml:space="preserve" text-anchor="start" x="331.93" y="-179.1" font-family="Inter,Arial" font-weight="bold" font-size="10.00" fill="#614000">derive_more</text>
<text xml:space="preserve" text-anchor="start" x="349.93" y="-169.1" font-family="Inter,Arial" font-size="10.00" fill="#614000">2.1.1</text>
<text xml:space="preserve" text-anchor="start" x="340.93" y="-159.1" font-family="Inter,Arial" font-weight="bold" font-size="10.00" fill="#614000">mbarrier</text>
<text xml:space="preserve" text-anchor="start" x="349.93" y="-149.1" font-family="Inter,Arial" font-size="10.00" fill="#614000">0.1.3</text>
<text xml:space="preserve" text-anchor="start" x="340.93" y="-139.1" font-family="Inter,Arial" font-weight="bold" font-size="10.00" fill="#614000">thiserror</text>
<text xml:space="preserve" text-anchor="start" x="347.3" y="-129.1" font-family="Inter,Arial" font-size="10.00" fill="#614000">2.0.18</text>
</g>
<!-- n0&#45;&gt;out1 -->
<g id="edge2" class="edge">
<title>n0&#45;&gt;out1</title>
<path fill="none" stroke="#d19922" stroke-width="0.9" stroke-dasharray="5,2" d="M266.41,-136.29C277.18,-139.32 288.61,-142.54 299.64,-145.65"/>
<polygon fill="#d19922" stroke="#d19922" stroke-width="0.9" points="298.95,-147.46 304.77,-147.09 299.99,-143.75 298.95,-147.46"/>
</g>
<!-- out2 -->
<g id="node4" class="node">
<title>out2</title>
<polygon fill="#fff8e8" stroke="#d19922" points="399.56,-99.2 316.04,-99.2 316.04,-62 405.56,-62 405.56,-93.2 399.56,-99.2"/>
<polyline fill="none" stroke="#d19922" points="399.56,-99.2 399.56,-93.2"/>
<polyline fill="none" stroke="#d19922" points="405.56,-93.2 399.56,-93.2"/>
<text xml:space="preserve" text-anchor="start" x="321.8" y="-87.1" font-family="Inter,Arial" font-size="10.00" fill="#614000">to log&#45;v0.4.29.svg</text>
<text xml:space="preserve" text-anchor="start" x="353.3" y="-77.1" font-family="Inter,Arial" font-weight="bold" font-size="10.00" fill="#614000">log</text>
<text xml:space="preserve" text-anchor="start" x="347.3" y="-67.1" font-family="Inter,Arial" font-size="10.00" fill="#614000">0.4.29</text>
</g>
<!-- n0&#45;&gt;out2 -->
<g id="edge3" class="edge">
<title>n0&#45;&gt;out2</title>
<path fill="none" stroke="#d19922" stroke-width="0.9" stroke-dasharray="5,2" d="M266.41,-106.91C280.41,-102.97 295.52,-98.71 309.43,-94.79"/>
<polygon fill="#d19922" stroke="#d19922" stroke-width="0.9" points="309.64,-96.73 314.41,-93.39 308.6,-93.03 309.64,-96.73"/>
</g>
<!-- out3 -->
<g id="node5" class="node">
<title>out3</title>
<polygon fill="#fff8e8" stroke="#d19922" points="402.19,-37.2 313.42,-37.2 313.42,0 408.19,0 408.19,-31.2 402.19,-37.2"/>
<polyline fill="none" stroke="#d19922" points="402.19,-37.2 402.19,-31.2"/>
<polyline fill="none" stroke="#d19922" points="408.19,-31.2 402.19,-31.2"/>
<text xml:space="preserve" text-anchor="start" x="319.18" y="-25.1" font-family="Inter,Arial" font-size="10.00" fill="#614000">to spin&#45;v0.10.0.svg</text>
<text xml:space="preserve" text-anchor="start" x="350.68" y="-15.1" font-family="Inter,Arial" font-weight="bold" font-size="10.00" fill="#614000">spin</text>
<text xml:space="preserve" text-anchor="start" x="347.3" y="-5.1" font-family="Inter,Arial" font-size="10.00" fill="#614000">0.10.0</text>
</g>
<!-- n0&#45;&gt;out3 -->
<g id="edge4" class="edge">
<title>n0&#45;&gt;out3</title>
<path fill="none" stroke="#d19922" stroke-width="0.9" stroke-dasharray="5,2" d="M236.68,-102.64C254.92,-87.56 281.59,-66.3 306.29,-49.6 310.54,-46.72 315.07,-43.84 319.63,-41.06"/>
<polygon fill="#d19922" stroke="#d19922" stroke-width="0.9" points="320.51,-42.77 324.23,-38.29 318.52,-39.47 320.51,-42.77"/>
</g>
<!-- in4 -->
<g id="node6" class="node">
<title>in4</title>
<polygon fill="#eef6ff" stroke="#4b8fc5" points="114.27,-145.2 0,-145.2 0,-98 120.27,-98 120.27,-139.2 114.27,-145.2"/>
<polyline fill="none" stroke="#4b8fc5" points="114.27,-145.2 114.27,-139.2"/>
<polyline fill="none" stroke="#4b8fc5" points="120.27,-139.2 114.27,-139.2"/>
<text xml:space="preserve" text-anchor="start" x="5.76" y="-133.1" font-family="Inter,Arial" font-size="10.00" fill="#123d5c">from crab&#45;usb&#45;v0.9.1.svg</text>
<text xml:space="preserve" text-anchor="start" x="41.38" y="-123.1" font-family="Inter,Arial" font-weight="bold" font-size="10.00" fill="#123d5c">dma&#45;api</text>
<text xml:space="preserve" text-anchor="start" x="49.26" y="-113.1" font-family="Inter,Arial" font-size="10.00" fill="#123d5c">0.7.3</text>
<text xml:space="preserve" text-anchor="start" x="12.88" y="-103.1" font-family="Inter,Arial" font-size="10.00" fill="#123d5c">/vendor/dma&#45;api&#45;0.7.3</text>
</g>
<!-- in4&#45;&gt;n0 -->
<g id="edge5" class="edge">
<title>in4&#45;&gt;n0</title>
<path fill="none" stroke="#4b8fc5" stroke-width="0.9" stroke-dasharray="5,2" d="M120.44,-121.6C131.26,-121.6 142.55,-121.6 153.36,-121.6"/>
<polygon fill="#4b8fc5" stroke="#4b8fc5" stroke-width="0.9" points="153.16,-123.53 158.66,-121.6 153.16,-119.68 153.16,-123.53"/>
</g>
</g>
</svg>
