<?xml version="1.0" encoding="UTF-8" standalone="no"?>
<!DOCTYPE svg PUBLIC "-//W3C//DTD SVG 1.1//EN"
 "http://www.w3.org/Graphics/SVG/1.1/DTD/svg11.dtd">
<!-- Generated by graphviz version 14.1.2 (0)
 -->
<!-- Title: dma&#45;api&#45;v0.7.3 Pages: 1 -->
<svg width="456pt" height="230pt"
 viewBox="0.00 0.00 456.00 230.00" xmlns="http://www.w3.org/2000/svg" xmlns:xlink="http://www.w3.org/1999/xlink">
<g id="graph0" class="graph" transform="scale(1 1) rotate(0) translate(4 226.4)">
<title>dma&#45;api&#45;v0.7.3</title>
<polygon fill="white" stroke="none" points="-4,4 -4,-226.4 452.16,-226.4 452.16,4 -4,4"/>
<!-- n0 -->
<g id="node1" class="node">
<title>n0</title>
<path fill="#dff3ff" stroke="#1b78a6" d="M279.94,-136.4C279.94,-136.4 179.47,-136.4 179.47,-136.4 173.47,-136.4 167.47,-130.4 167.47,-124.4 167.47,-124.4 167.47,-98 167.47,-98 167.47,-92 173.47,-86 179.47,-86 179.47,-86 279.94,-86 279.94,-86 285.94,-86 291.94,-92 291.94,-98 291.94,-98 291.94,-124.4 291.94,-124.4 291.94,-130.4 285.94,-136.4 279.94,-136.4"/>
<text xml:space="preserve" text-anchor="start" x="204.2" y="-117.85" font-family="Inter,Arial" font-weight="bold" font-size="13.00" fill="#172033">dma&#45;api</text>
<text xml:space="preserve" text-anchor="start" x="216.58" y="-105.8" font-family="Inter,Arial" font-size="12.00" fill="#172033">0.7.3</text>
<text xml:space="preserve" text-anchor="start" x="176.83" y="-94.75" font-family="Inter,Arial" font-size="11.00" fill="#172033">/vendor/dma&#45;api&#45;0.7.3</text>
</g>
<!-- out0 -->
<g id="node2" class="node">
<title>out0</title>
<polygon fill="#fff8e8" stroke="#d19922" points="434.66,-222.4 339.44,-222.4 339.44,-178 440.66,-178 440.66,-216.4 434.66,-222.4"/>
<polyline fill="none" stroke="#d19922" points="434.66,-222.4 434.66,-216.4"/>
<polyline fill="none" stroke="#d19922" points="440.66,-216.4 434.66,-216.4"/>
<text xml:space="preserve" text-anchor="start" x="348.8" y="-206.7" font-family="Inter,Arial" font-size="10.00" fill="#614000">to alsa&#45;v0.11.0.svg</text>
<text xml:space="preserve" text-anchor="start" x="378.42" y="-196.7" font-family="Inter,Arial" font-weight="bold" font-size="10.00" fill="#614000">cfg&#45;if</text>
<text xml:space="preserve" text-anchor="start" x="379.17" y="-186.7" font-family="Inter,Arial" font-size="10.00" fill="#614000">1.0.4</text>
</g>
<!-- n0&#45;&gt;out0 -->
<g id="edge1" class="edge">
<title>n0&#45;&gt;out0</title>
<path fill="none" stroke="#d19922" stroke-width="7.2" stroke-dasharray="5,2" d="M276.08,-136.7C295.52,-147.63 318.32,-160.44 338.32,-171.68"/>
<polygon fill="#d19922" stroke="#d19922" stroke-width="7.2" points="336.41,-174.59 342.91,-174.26 339.81,-168.55 336.41,-174.59"/>
</g>
<!-- out1 -->
<g id="node3" class="node">
<title>out1</title>
<polygon fill="#fff8e8" stroke="#d19922" points="442.16,-153.4 331.94,-153.4 331.94,-69 448.16,-69 448.16,-147.4 442.16,-153.4"/>
<polyline fill="none" stroke="#d19922" points="442.16,-153.4 442.16,-147.4"/>
<polyline fill="none" stroke="#d19922" points="448.16,-147.4 442.16,-147.4"/>
<text xml:space="preserve" text-anchor="start" x="341.3" y="-137.7" font-family="Inter,Arial" font-size="10.00" fill="#614000">to crab&#45;usb&#45;v0.9.1.svg</text>
<text xml:space="preserve" text-anchor="start" x="361.17" y="-127.7" font-family="Inter,Arial" font-weight="bold" font-size="10.00" fill="#614000">derive_more</text>
<text xml:space="preserve" text-anchor="start" x="379.17" y="-117.7" font-family="Inter,Arial" font-size="10.00" fill="#614000">2.1.1</text>
<text xml:space="preserve" text-anchor="start" x="370.17" y="-107.7" font-family="Inter,Arial" font-weight="bold" font-size="10.00" fill="#614000">mbarrier</text>
<text xml:space="preserve" text-anchor="start" x="379.17" y="-97.7" font-family="Inter,Arial" font-size="10.00" fill="#614000">0.1.3</text>
<text xml:space="preserve" text-anchor="start" x="370.17" y="-87.7" font-family="Inter,Arial" font-weight="bold" font-size="10.00" fill="#614000">thiserror</text>
<text xml:space="preserve" text-anchor="start" x="376.55" y="-77.7" font-family="Inter,Arial" font-size="10.00" fill="#614000">2.0.18</text>
</g>
<!-- n0&#45;&gt;out1 -->
<g id="edge2" class="edge">
<title>n0&#45;&gt;out1</title>
<path fill="none" stroke="#d19922" stroke-width="7.2" stroke-dasharray="5,2" d="M292.38,-111.2C301.27,-111.2 310.48,-111.2 319.52,-111.2"/>
<polygon fill="#d19922" stroke="#d19922" stroke-width="7.2" points="319.43,-114.67 324.93,-111.2 319.43,-107.74 319.43,-114.67"/>
</g>
<!-- out2 -->
<g id="node4" class="node">
<title>out2</title>
<polygon fill="#fff8e8" stroke="#d19922" points="435.03,-44.4 339.06,-44.4 339.06,0 441.03,0 441.03,-38.4 435.03,-44.4"/>
<polyline fill="none" stroke="#d19922" points="435.03,-44.4 435.03,-38.4"/>
<polyline fill="none" stroke="#d19922" points="441.03,-38.4 435.03,-38.4"/>
<text xml:space="preserve" text-anchor="start" x="348.42" y="-28.7" font-family="Inter,Arial" font-size="10.00" fill="#614000">to spin&#45;v0.10.0.svg</text>
<text xml:space="preserve" text-anchor="start" x="379.92" y="-18.7" font-family="Inter,Arial" font-weight="bold" font-size="10.00" fill="#614000">spin</text>
<text xml:space="preserve" text-anchor="start" x="376.55" y="-8.7" font-family="Inter,Arial" font-size="10.00" fill="#614000">0.10.0</text>
</g>
<!-- n0&#45;&gt;out2 -->
<g id="edge3" class="edge">
<title>n0&#45;&gt;out2</title>
<path fill="none" stroke="#d19922" stroke-width="7.2" stroke-dasharray="5,2" d="M276.08,-85.7C295.52,-74.77 318.32,-61.96 338.32,-50.72"/>
<polygon fill="#d19922" stroke="#d19922" stroke-width="7.2" points="339.81,-53.85 342.91,-48.14 336.41,-47.81 339.81,-53.85"/>
</g>
<!-- in3 -->
<g id="node5" class="node">
<title>in3</title>
<polygon fill="#eef6ff" stroke="#4b8fc5" points="121.47,-138.4 0,-138.4 0,-84 127.47,-84 127.47,-132.4 121.47,-138.4"/>
<polyline fill="none" stroke="#4b8fc5" points="121.47,-138.4 121.47,-132.4"/>
<polyline fill="none" stroke="#4b8fc5" points="127.47,-132.4 121.47,-132.4"/>
<text xml:space="preserve" text-anchor="start" x="9.36" y="-122.7" font-family="Inter,Arial" font-size="10.00" fill="#123d5c">from crab&#45;usb&#45;v0.9.1.svg</text>
<text xml:space="preserve" text-anchor="start" x="44.99" y="-112.7" font-family="Inter,Arial" font-weight="bold" font-size="10.00" fill="#123d5c">dma&#45;api</text>
<text xml:space="preserve" text-anchor="start" x="52.86" y="-102.7" font-family="Inter,Arial" font-size="10.00" fill="#123d5c">0.7.3</text>
<text xml:space="preserve" text-anchor="start" x="16.49" y="-92.7" font-family="Inter,Arial" font-size="10.00" fill="#123d5c">/vendor/dma&#45;api&#45;0.7.3</text>
</g>
<!-- in3&#45;&gt;n0 -->
<g id="edge4" class="edge">
<title>in3&#45;&gt;n0</title>
<path fill="none" stroke="#4b8fc5" stroke-width="7.2" stroke-dasharray="5,2" d="M127.66,-111.2C136.54,-111.2 145.73,-111.2 154.8,-111.2"/>
<polygon fill="#4b8fc5" stroke="#4b8fc5" stroke-width="7.2" points="154.78,-114.67 160.28,-111.2 154.78,-107.74 154.78,-114.67"/>
</g>
</g>
</svg>
