<?xml version="1.0" encoding="UTF-8" standalone="no"?>
<!DOCTYPE svg PUBLIC "-//W3C//DTD SVG 1.1//EN"
 "http://www.w3.org/Graphics/SVG/1.1/DTD/svg11.dtd">
<!-- Generated by graphviz version 14.1.2 (0)
 -->
<!-- Title: embassy&#45;sync&#45;v0.8.0 Pages: 1 -->
<svg width="504pt" height="375pt"
 viewBox="0.00 0.00 504.00 375.00" xmlns="http://www.w3.org/2000/svg" xmlns:xlink="http://www.w3.org/1999/xlink">
<g id="graph0" class="graph" transform="scale(1 1) rotate(0) translate(4 371.2)">
<title>embassy&#45;sync&#45;v0.8.0</title>
<polygon fill="white" stroke="none" points="-4,4 -4,-371.2 499.56,-371.2 499.56,4 -4,4"/>
<!-- n0 -->
<g id="node1" class="node">
<title>n0</title>
<path fill="#dff3ff" stroke="#1b78a6" d="M279.79,-160.6C279.79,-160.6 226.27,-160.6 226.27,-160.6 220.27,-160.6 214.27,-154.6 214.27,-148.6 214.27,-148.6 214.27,-136.6 214.27,-136.6 214.27,-130.6 220.27,-124.6 226.27,-124.6 226.27,-124.6 279.79,-124.6 279.79,-124.6 285.79,-124.6 291.79,-130.6 291.79,-136.6 291.79,-136.6 291.79,-148.6 291.79,-148.6 291.79,-154.6 285.79,-160.6 279.79,-160.6"/>
<text xml:space="preserve" text-anchor="start" x="220.03" y="-144.1" font-family="Inter,Arial" font-weight="bold" font-size="10.00" fill="#172033">embassy&#45;sync</text>
<text xml:space="preserve" text-anchor="start" x="242.16" y="-134.1" font-family="Inter,Arial" font-size="10.00" fill="#172033">0.8.0</text>
</g>
<!-- out1 -->
<g id="node6" class="node">
<title>out1</title>
<polygon fill="#fff8e8" stroke="#d19922" points="454.69,-305.2 373.42,-305.2 373.42,-268 460.69,-268 460.69,-299.2 454.69,-305.2"/>
<polyline fill="none" stroke="#d19922" points="454.69,-305.2 454.69,-299.2"/>
<polyline fill="none" stroke="#d19922" points="460.69,-299.2 454.69,-299.2"/>
<text xml:space="preserve" text-anchor="start" x="379.18" y="-293.1" font-family="Inter,Arial" font-size="10.00" fill="#614000">to aes&#45;v0.8.4.svg</text>
<text xml:space="preserve" text-anchor="start" x="405.43" y="-283.1" font-family="Inter,Arial" font-weight="bold" font-size="10.00" fill="#614000">cfg&#45;if</text>
<text xml:space="preserve" text-anchor="start" x="406.18" y="-273.1" font-family="Inter,Arial" font-size="10.00" fill="#614000">1.0.4</text>
</g>
<!-- n0&#45;&gt;out1 -->
<g id="edge2" class="edge">
<title>n0&#45;&gt;out1</title>
<path fill="none" stroke="#d19922" stroke-width="0.9" stroke-dasharray="5,2" d="M277.2,-160.78C284.54,-167.2 292.35,-174.78 298.54,-182.6 321.51,-211.6 310.85,-231.07 338.54,-255.6 346.71,-262.84 356.79,-268.51 366.95,-272.9"/>
<polygon fill="#d19922" stroke="#d19922" stroke-width="0.9" points="366.18,-274.66 372,-274.95 367.63,-271.1 366.18,-274.66"/>
</g>
<!-- out2 -->
<g id="node7" class="node">
<title>out2</title>
<polygon fill="#fff8e8" stroke="#d19922" points="465.56,-243.2 362.54,-243.2 362.54,-186 471.56,-186 471.56,-237.2 465.56,-243.2"/>
<polyline fill="none" stroke="#d19922" points="465.56,-243.2 465.56,-237.2"/>
<polyline fill="none" stroke="#d19922" points="471.56,-237.2 465.56,-237.2"/>
<text xml:space="preserve" text-anchor="start" x="368.3" y="-231.1" font-family="Inter,Arial" font-size="10.00" fill="#614000">to crab&#45;usb&#45;v0.9.1.svg</text>
<text xml:space="preserve" text-anchor="start" x="389.3" y="-221.1" font-family="Inter,Arial" font-weight="bold" font-size="10.00" fill="#614000">futures&#45;core</text>
<text xml:space="preserve" text-anchor="start" x="403.55" y="-211.1" font-family="Inter,Arial" font-size="10.00" fill="#614000">0.3.32</text>
<text xml:space="preserve" text-anchor="start" x="389.68" y="-201.1" font-family="Inter,Arial" font-weight="bold" font-size="10.00" fill="#614000">futures&#45;sink</text>
<text xml:space="preserve" text-anchor="start" x="403.55" y="-191.1" font-family="Inter,Arial" font-size="10.00" fill="#614000">0.3.32</text>
</g>
<!-- n0&#45;&gt;out2 -->
<g id="edge3" class="edge">
<title>n0&#45;&gt;out2</title>
<path fill="none" stroke="#d19922" stroke-width="0.9" stroke-dasharray="5,2" d="M292.02,-159.48C311,-167.92 334.42,-178.33 355.79,-187.82"/>
<polygon fill="#d19922" stroke="#d19922" stroke-width="0.9" points="354.99,-189.57 360.8,-190.05 356.56,-186.05 354.99,-189.57"/>
</g>
<!-- out3 -->
<g id="node8" class="node">
<title>out3</title>
<polygon fill="#fff8e8" stroke="#d19922" points="489.56,-161.2 338.54,-161.2 338.54,-124 495.56,-124 495.56,-155.2 489.56,-161.2"/>
<polyline fill="none" stroke="#d19922" points="489.56,-161.2 489.56,-155.2"/>
<polyline fill="none" stroke="#d19922" points="495.56,-155.2 489.56,-155.2"/>
<text xml:space="preserve" text-anchor="start" x="344.3" y="-149.1" font-family="Inter,Arial" font-size="10.00" fill="#614000">to embassy&#45;executor&#45;v0.10.0.svg</text>
<text xml:space="preserve" text-anchor="start" x="382.93" y="-139.1" font-family="Inter,Arial" font-weight="bold" font-size="10.00" fill="#614000">critical&#45;section</text>
<text xml:space="preserve" text-anchor="start" x="406.18" y="-129.1" font-family="Inter,Arial" font-size="10.00" fill="#614000">1.2.0</text>
</g>
<!-- n0&#45;&gt;out3 -->
<g id="edge4" class="edge">
<title>n0&#45;&gt;out3</title>
<path fill="none" stroke="#d19922" stroke-width="0.9" stroke-dasharray="5,2" d="M292.02,-142.6C303.91,-142.6 317.55,-142.6 331.34,-142.6"/>
<polygon fill="#d19922" stroke="#d19922" stroke-width="0.9" points="331.24,-144.53 336.74,-142.6 331.24,-140.68 331.24,-144.53"/>
</g>
<!-- out4 -->
<g id="node9" class="node">
<title>out4</title>
<polygon fill="#fff8e8" stroke="#d19922" points="489.19,-99.2 338.92,-99.2 338.92,-62 495.19,-62 495.19,-93.2 489.19,-99.2"/>
<polyline fill="none" stroke="#d19922" points="489.19,-99.2 489.19,-93.2"/>
<polyline fill="none" stroke="#d19922" points="495.19,-93.2 489.19,-93.2"/>
<text xml:space="preserve" text-anchor="start" x="344.68" y="-87.1" font-family="Inter,Arial" font-size="10.00" fill="#614000">to embedded&#45;io&#45;async&#45;v0.7.0.svg</text>
<text xml:space="preserve" text-anchor="start" x="371.68" y="-77.1" font-family="Inter,Arial" font-weight="bold" font-size="10.00" fill="#614000">embedded&#45;io&#45;async</text>
<text xml:space="preserve" text-anchor="start" x="406.18" y="-67.1" font-family="Inter,Arial" font-size="10.00" fill="#614000">0.7.0</text>
</g>
<!-- n0&#45;&gt;out4 -->
<g id="edge5" class="edge">
<title>n0&#45;&gt;out4</title>
<path fill="none" stroke="#d19922" stroke-width="0.9" stroke-dasharray="5,2" d="M292.02,-128.06C312.28,-120.31 337.6,-110.62 360.07,-102.02"/>
<polygon fill="#d19922" stroke="#d19922" stroke-width="0.9" points="360.61,-103.88 365.05,-100.11 359.23,-100.28 360.61,-103.88"/>
</g>
<!-- out5 -->
<g id="node10" class="node">
<title>out5</title>
<polygon fill="#fff8e8" stroke="#d19922" points="466.31,-37.2 361.79,-37.2 361.79,0 472.31,0 472.31,-31.2 466.31,-37.2"/>
<polyline fill="none" stroke="#d19922" points="466.31,-37.2 466.31,-31.2"/>
<polyline fill="none" stroke="#d19922" points="472.31,-31.2 466.31,-31.2"/>
<text xml:space="preserve" text-anchor="start" x="367.55" y="-25.1" font-family="Inter,Arial" font-size="10.00" fill="#614000">to heapless&#45;v0.9.3.svg</text>
<text xml:space="preserve" text-anchor="start" x="396.43" y="-15.1" font-family="Inter,Arial" font-weight="bold" font-size="10.00" fill="#614000">heapless</text>
<text xml:space="preserve" text-anchor="start" x="406.18" y="-5.1" font-family="Inter,Arial" font-size="10.00" fill="#614000">0.9.3</text>
</g>
<!-- n0&#45;&gt;out5 -->
<g id="edge6" class="edge">
<title>n0&#45;&gt;out5</title>
<path fill="none" stroke="#d19922" stroke-width="0.9" stroke-dasharray="5,2" d="M266.72,-124.23C281.77,-103.62 308.61,-70.38 338.54,-49.6 343.81,-45.94 349.57,-42.62 355.5,-39.64"/>
<polygon fill="#d19922" stroke="#d19922" stroke-width="0.9" points="356.13,-41.47 360.24,-37.35 354.45,-38 356.13,-41.47"/>
</g>
<!-- n1 -->
<g id="node2" class="node">
<title>n1</title>
<path fill="#f7f9fb" stroke="#8b9bb0" d="M277.17,-230.6C277.17,-230.6 228.9,-230.6 228.9,-230.6 222.9,-230.6 216.9,-224.6 216.9,-218.6 216.9,-218.6 216.9,-206.6 216.9,-206.6 216.9,-200.6 222.9,-194.6 228.9,-194.6 228.9,-194.6 277.17,-194.6 277.17,-194.6 283.17,-194.6 289.17,-200.6 289.17,-206.6 289.17,-206.6 289.17,-218.6 289.17,-218.6 289.17,-224.6 283.17,-230.6 277.17,-230.6"/>
<text xml:space="preserve" text-anchor="start" x="222.66" y="-214.1" font-family="Inter,Arial" font-weight="bold" font-size="10.00" fill="#172033">embedded&#45;io</text>
<text xml:space="preserve" text-anchor="start" x="242.16" y="-204.1" font-family="Inter,Arial" font-size="10.00" fill="#172033">0.7.1</text>
</g>
<!-- n2 -->
<g id="node3" class="node">
<title>n2</title>
<path fill="#f7f9fb" stroke="#8b9bb0" d="M268.03,-366.6C268.03,-366.6 238.03,-366.6 238.03,-366.6 232.03,-366.6 226.03,-360.6 226.03,-354.6 226.03,-354.6 226.03,-342.6 226.03,-342.6 226.03,-336.6 232.03,-330.6 238.03,-330.6 238.03,-330.6 268.03,-330.6 268.03,-330.6 274.03,-330.6 280.03,-336.6 280.03,-342.6 280.03,-342.6 280.03,-354.6 280.03,-354.6 280.03,-360.6 274.03,-366.6 268.03,-366.6"/>
<text xml:space="preserve" text-anchor="start" x="236.53" y="-350.1" font-family="Inter,Arial" font-weight="bold" font-size="10.00" fill="#172033">hash32</text>
<text xml:space="preserve" text-anchor="start" x="242.16" y="-340.1" font-family="Inter,Arial" font-size="10.00" fill="#172033">0.3.1</text>
</g>
<!-- out0 -->
<g id="node5" class="node">
<title>out0</title>
<polygon fill="#fff8e8" stroke="#d19922" points="455.81,-367.2 372.29,-367.2 372.29,-330 461.81,-330 461.81,-361.2 455.81,-367.2"/>
<polyline fill="none" stroke="#d19922" points="455.81,-367.2 455.81,-361.2"/>
<polyline fill="none" stroke="#d19922" points="461.81,-361.2 455.81,-361.2"/>
<text xml:space="preserve" text-anchor="start" x="378.05" y="-355.1" font-family="Inter,Arial" font-size="10.00" fill="#614000">to acpi&#45;v6.1.1.svg</text>
<text xml:space="preserve" text-anchor="start" x="394.93" y="-345.1" font-family="Inter,Arial" font-weight="bold" font-size="10.00" fill="#614000">byteorder</text>
<text xml:space="preserve" text-anchor="start" x="406.18" y="-335.1" font-family="Inter,Arial" font-size="10.00" fill="#614000">1.5.0</text>
</g>
<!-- n2&#45;&gt;out0 -->
<g id="edge1" class="edge">
<title>n2&#45;&gt;out0</title>
<path fill="none" stroke="#d19922" stroke-width="0.9" stroke-dasharray="5,2" d="M280.42,-348.6C303.33,-348.6 337.16,-348.6 365.29,-348.6"/>
<polygon fill="#d19922" stroke="#d19922" stroke-width="0.9" points="365.08,-350.53 370.58,-348.6 365.08,-346.68 365.08,-350.53"/>
</g>
<!-- n3 -->
<g id="node4" class="node">
<title>n3</title>
<path fill="#f7f9fb" stroke="#8b9bb0" d="M286.54,-305.6C286.54,-305.6 219.52,-305.6 219.52,-305.6 213.52,-305.6 207.52,-299.6 207.52,-293.6 207.52,-293.6 207.52,-281.6 207.52,-281.6 207.52,-275.6 213.52,-269.6 219.52,-269.6 219.52,-269.6 286.54,-269.6 286.54,-269.6 292.54,-269.6 298.54,-275.6 298.54,-281.6 298.54,-281.6 298.54,-293.6 298.54,-293.6 298.54,-299.6 292.54,-305.6 286.54,-305.6"/>
<text xml:space="preserve" text-anchor="start" x="213.28" y="-289.1" font-family="Inter,Arial" font-weight="bold" font-size="10.00" fill="#172033">stable_deref_trait</text>
<text xml:space="preserve" text-anchor="start" x="242.16" y="-279.1" font-family="Inter,Arial" font-size="10.00" fill="#172033">1.2.1</text>
</g>
<!-- in6 -->
<g id="node11" class="node">
<title>in6</title>
<polygon fill="#eef6ff" stroke="#4b8fc5" points="161.52,-231.2 0,-231.2 0,-194 167.52,-194 167.52,-225.2 161.52,-231.2"/>
<polyline fill="none" stroke="#4b8fc5" points="161.52,-231.2 161.52,-225.2"/>
<polyline fill="none" stroke="#4b8fc5" points="167.52,-225.2 161.52,-225.2"/>
<text xml:space="preserve" text-anchor="start" x="5.76" y="-219.1" font-family="Inter,Arial" font-size="10.00" fill="#123d5c">from embedded&#45;io&#45;async&#45;v0.7.0.svg</text>
<text xml:space="preserve" text-anchor="start" x="53.38" y="-209.1" font-family="Inter,Arial" font-weight="bold" font-size="10.00" fill="#123d5c">embedded&#45;io</text>
<text xml:space="preserve" text-anchor="start" x="72.88" y="-199.1" font-family="Inter,Arial" font-size="10.00" fill="#123d5c">0.7.1</text>
</g>
<!-- in6&#45;&gt;n1 -->
<g id="edge7" class="edge">
<title>in6&#45;&gt;n1</title>
<path fill="none" stroke="#4b8fc5" stroke-width="0.9" stroke-dasharray="5,2" d="M167.9,-212.6C182.57,-212.6 197.25,-212.6 210.15,-212.6"/>
<polygon fill="#4b8fc5" stroke="#4b8fc5" stroke-width="0.9" points="209.86,-214.53 215.36,-212.6 209.86,-210.68 209.86,-214.53"/>
</g>
<!-- in7 -->
<g id="node12" class="node">
<title>in7</title>
<polygon fill="#eef6ff" stroke="#4b8fc5" points="138.64,-321.2 22.87,-321.2 22.87,-264 144.64,-264 144.64,-315.2 138.64,-321.2"/>
<polyline fill="none" stroke="#4b8fc5" points="138.64,-321.2 138.64,-315.2"/>
<polyline fill="none" stroke="#4b8fc5" points="144.64,-315.2 138.64,-315.2"/>
<text xml:space="preserve" text-anchor="start" x="28.63" y="-309.1" font-family="Inter,Arial" font-size="10.00" fill="#123d5c">from heapless&#45;v0.9.3.svg</text>
<text xml:space="preserve" text-anchor="start" x="67.26" y="-299.1" font-family="Inter,Arial" font-weight="bold" font-size="10.00" fill="#123d5c">hash32</text>
<text xml:space="preserve" text-anchor="start" x="72.88" y="-289.1" font-family="Inter,Arial" font-size="10.00" fill="#123d5c">0.3.1</text>
<text xml:space="preserve" text-anchor="start" x="44.01" y="-279.1" font-family="Inter,Arial" font-weight="bold" font-size="10.00" fill="#123d5c">stable_deref_trait</text>
<text xml:space="preserve" text-anchor="start" x="72.88" y="-269.1" font-family="Inter,Arial" font-size="10.00" fill="#123d5c">1.2.1</text>
</g>
<!-- in7&#45;&gt;n2 -->
<g id="edge8" class="edge">
<title>in7&#45;&gt;n2</title>
<path fill="none" stroke="#4b8fc5" stroke-width="0.9" stroke-dasharray="5,2" d="M144.68,-312.66C169.82,-321.08 198.09,-330.54 219.3,-337.64"/>
<polygon fill="#4b8fc5" stroke="#4b8fc5" stroke-width="0.9" points="218.53,-339.41 224.35,-339.33 219.75,-335.76 218.53,-339.41"/>
</g>
<!-- in7&#45;&gt;n3 -->
<g id="edge9" class="edge">
<title>in7&#45;&gt;n3</title>
<path fill="none" stroke="#4b8fc5" stroke-width="0.9" stroke-dasharray="5,2" d="M144.68,-290.81C163.04,-290.26 183.08,-289.66 200.81,-289.13"/>
<polygon fill="#4b8fc5" stroke="#4b8fc5" stroke-width="0.9" points="200.43,-291.07 205.87,-288.98 200.31,-287.22 200.43,-291.07"/>
</g>
<!-- in8 -->
<g id="node13" class="node">
<title>in8</title>
<polygon fill="#eef6ff" stroke="#4b8fc5" points="140.52,-161.2 21,-161.2 21,-124 146.52,-124 146.52,-155.2 140.52,-161.2"/>
<polyline fill="none" stroke="#4b8fc5" points="140.52,-161.2 140.52,-155.2"/>
<polyline fill="none" stroke="#4b8fc5" points="146.52,-155.2 140.52,-155.2"/>
<text xml:space="preserve" text-anchor="start" x="26.76" y="-149.1" font-family="Inter,Arial" font-size="10.00" fill="#123d5c">from trueos&#45;qjs&#45;v0.1.0.svg</text>
<text xml:space="preserve" text-anchor="start" x="50.76" y="-139.1" font-family="Inter,Arial" font-weight="bold" font-size="10.00" fill="#123d5c">embassy&#45;sync</text>
<text xml:space="preserve" text-anchor="start" x="72.88" y="-129.1" font-family="Inter,Arial" font-size="10.00" fill="#123d5c">0.8.0</text>
</g>
<!-- in8&#45;&gt;n0 -->
<g id="edge10" class="edge">
<title>in8&#45;&gt;n0</title>
<path fill="none" stroke="#4b8fc5" stroke-width="0.9" stroke-dasharray="5,2" d="M146.57,-142.6C166.79,-142.6 188.85,-142.6 207.54,-142.6"/>
<polygon fill="#4b8fc5" stroke="#4b8fc5" stroke-width="0.9" points="207.4,-144.53 212.9,-142.6 207.4,-140.68 207.4,-144.53"/>
</g>
</g>
</svg>
