<?xml version="1.0" encoding="UTF-8" standalone="no"?>
<!DOCTYPE svg PUBLIC "-//W3C//DTD SVG 1.1//EN"
 "http://www.w3.org/Graphics/SVG/1.1/DTD/svg11.dtd">
<!-- Generated by graphviz version 14.1.2 (0)
 -->
<!-- Title: embassy&#45;time&#45;v0.5.1 Pages: 1 -->
<svg width="611pt" height="141pt"
 viewBox="0.00 0.00 611.00 141.00" xmlns="http://www.w3.org/2000/svg" xmlns:xlink="http://www.w3.org/1999/xlink">
<g id="graph0" class="graph" transform="scale(1 1) rotate(0) translate(4 137.4)">
<title>embassy&#45;time&#45;v0.5.1</title>
<polygon fill="white" stroke="none" points="-4,4 -4,-137.4 607.41,-137.4 607.41,4 -4,4"/>
<!-- n0 -->
<g id="node1" class="node">
<title>n0</title>
<path fill="#dff3ff" stroke="#1b78a6" d="M384.19,-91.4C384.19,-91.4 222.22,-91.4 222.22,-91.4 216.22,-91.4 210.22,-85.4 210.22,-79.4 210.22,-79.4 210.22,-53 210.22,-53 210.22,-47 216.22,-41 222.22,-41 222.22,-41 384.19,-41 384.19,-41 390.19,-41 396.19,-47 396.19,-53 396.19,-53 396.19,-79.4 396.19,-79.4 396.19,-85.4 390.19,-91.4 384.19,-91.4"/>
<text xml:space="preserve" text-anchor="start" x="258.96" y="-72.85" font-family="Inter,Arial" font-weight="bold" font-size="13.00" fill="#172033">embassy&#45;time</text>
<text xml:space="preserve" text-anchor="start" x="290.08" y="-60.8" font-family="Inter,Arial" font-size="12.00" fill="#172033">0.5.1</text>
<text xml:space="preserve" text-anchor="start" x="219.58" y="-49.75" font-family="Inter,Arial" font-size="11.00" fill="#172033">/vendor/embassy&#45;time&#45;0.5.1&#45;trueos</text>
</g>
<!-- out0 -->
<g id="node2" class="node">
<title>out0</title>
<polygon fill="#fff8e8" stroke="#d19922" points="571.91,-123.4 461.69,-123.4 461.69,-79 577.91,-79 577.91,-117.4 571.91,-123.4"/>
<polyline fill="none" stroke="#d19922" points="571.91,-123.4 571.91,-117.4"/>
<polyline fill="none" stroke="#d19922" points="577.91,-117.4 571.91,-117.4"/>
<text xml:space="preserve" text-anchor="start" x="471.05" y="-107.7" font-family="Inter,Arial" font-size="10.00" fill="#614000">to crab&#45;usb&#45;v0.9.1.svg</text>
<text xml:space="preserve" text-anchor="start" x="492.05" y="-97.7" font-family="Inter,Arial" font-weight="bold" font-size="10.00" fill="#614000">futures&#45;core</text>
<text xml:space="preserve" text-anchor="start" x="506.3" y="-87.7" font-family="Inter,Arial" font-size="10.00" fill="#614000">0.3.32</text>
</g>
<!-- n0&#45;&gt;out0 -->
<g id="edge1" class="edge">
<title>n0&#45;&gt;out0</title>
<path fill="none" stroke="#d19922" stroke-width="7.2" stroke-dasharray="5,2" d="M396.46,-81.25C414.19,-84.14 432.49,-87.12 449.35,-89.87"/>
<polygon fill="#d19922" stroke="#d19922" stroke-width="7.2" points="448.69,-93.28 454.68,-90.74 449.81,-86.44 448.69,-93.28"/>
</g>
<!-- out1 -->
<g id="node3" class="node">
<title>out1</title>
<polygon fill="#fff8e8" stroke="#d19922" points="597.41,-54.4 436.19,-54.4 436.19,-10 603.41,-10 603.41,-48.4 597.41,-54.4"/>
<polyline fill="none" stroke="#d19922" points="597.41,-54.4 597.41,-48.4"/>
<polyline fill="none" stroke="#d19922" points="603.41,-48.4 597.41,-48.4"/>
<text xml:space="preserve" text-anchor="start" x="445.55" y="-38.7" font-family="Inter,Arial" font-size="10.00" fill="#614000">to embassy&#45;time&#45;driver&#45;v0.2.2.svg</text>
<text xml:space="preserve" text-anchor="start" x="472.55" y="-28.7" font-family="Inter,Arial" font-weight="bold" font-size="10.00" fill="#614000">embassy&#45;time&#45;driver</text>
<text xml:space="preserve" text-anchor="start" x="508.92" y="-18.7" font-family="Inter,Arial" font-size="10.00" fill="#614000">0.2.2</text>
</g>
<!-- n0&#45;&gt;out1 -->
<g id="edge2" class="edge">
<title>n0&#45;&gt;out1</title>
<path fill="none" stroke="#d19922" stroke-width="7.2" stroke-dasharray="5,2" d="M396.46,-51.58C405.54,-50.14 414.77,-48.68 423.88,-47.24"/>
<polygon fill="#d19922" stroke="#d19922" stroke-width="7.2" points="424.2,-50.7 429.09,-46.41 423.12,-43.85 424.2,-50.7"/>
</g>
<!-- in2 -->
<g id="node4" class="node">
<title>in2</title>
<polygon fill="#eef6ff" stroke="#4b8fc5" points="164.22,-133.4 0,-133.4 0,-79 170.22,-79 170.22,-127.4 164.22,-133.4"/>
<polyline fill="none" stroke="#4b8fc5" points="164.22,-133.4 164.22,-127.4"/>
<polyline fill="none" stroke="#4b8fc5" points="170.22,-127.4 164.22,-127.4"/>
<text xml:space="preserve" text-anchor="start" x="26.61" y="-117.7" font-family="Inter,Arial" font-size="10.00" fill="#123d5c">from trueos&#45;esp&#45;v0.1.0.svg</text>
<text xml:space="preserve" text-anchor="start" x="52.86" y="-107.7" font-family="Inter,Arial" font-weight="bold" font-size="10.00" fill="#123d5c">embassy&#45;time</text>
<text xml:space="preserve" text-anchor="start" x="74.24" y="-97.7" font-family="Inter,Arial" font-size="10.00" fill="#123d5c">0.5.1</text>
<text xml:space="preserve" text-anchor="start" x="9.36" y="-87.7" font-family="Inter,Arial" font-size="10.00" fill="#123d5c">/vendor/embassy&#45;time&#45;0.5.1&#45;trueos</text>
</g>
<!-- in2&#45;&gt;n0 -->
<g id="edge3" class="edge">
<title>in2&#45;&gt;n0</title>
<path fill="none" stroke="#4b8fc5" stroke-width="7.2" stroke-dasharray="5,2" d="M170.59,-90.56C179.56,-88.9 188.76,-87.2 197.92,-85.5"/>
<polygon fill="#4b8fc5" stroke="#4b8fc5" stroke-width="7.2" points="198.51,-88.92 203.28,-84.51 197.24,-82.1 198.51,-88.92"/>
</g>
<!-- in3 -->
<g id="node5" class="node">
<title>in3</title>
<polygon fill="#eef6ff" stroke="#4b8fc5" points="164.22,-54.4 0,-54.4 0,0 170.22,0 170.22,-48.4 164.22,-54.4"/>
<polyline fill="none" stroke="#4b8fc5" points="164.22,-54.4 164.22,-48.4"/>
<polyline fill="none" stroke="#4b8fc5" points="170.22,-48.4 164.22,-48.4"/>
<text xml:space="preserve" text-anchor="start" x="28.11" y="-38.7" font-family="Inter,Arial" font-size="10.00" fill="#123d5c">from trueos&#45;qjs&#45;v0.1.0.svg</text>
<text xml:space="preserve" text-anchor="start" x="52.86" y="-28.7" font-family="Inter,Arial" font-weight="bold" font-size="10.00" fill="#123d5c">embassy&#45;time</text>
<text xml:space="preserve" text-anchor="start" x="74.24" y="-18.7" font-family="Inter,Arial" font-size="10.00" fill="#123d5c">0.5.1</text>
<text xml:space="preserve" text-anchor="start" x="9.36" y="-8.7" font-family="Inter,Arial" font-size="10.00" fill="#123d5c">/vendor/embassy&#45;time&#45;0.5.1&#45;trueos</text>
</g>
<!-- in3&#45;&gt;n0 -->
<g id="edge4" class="edge">
<title>in3&#45;&gt;n0</title>
<path fill="none" stroke="#4b8fc5" stroke-width="7.2" stroke-dasharray="5,2" d="M170.59,-42.45C179.56,-44.07 188.76,-45.73 197.92,-47.38"/>
<polygon fill="#4b8fc5" stroke="#4b8fc5" stroke-width="7.2" points="197.25,-50.78 203.28,-48.35 198.48,-43.96 197.25,-50.78"/>
</g>
</g>
</svg>
