<?xml version="1.0" encoding="UTF-8" standalone="no"?>
<!DOCTYPE svg PUBLIC "-//W3C//DTD SVG 1.1//EN"
 "http://www.w3.org/Graphics/SVG/1.1/DTD/svg11.dtd">
<!-- Generated by graphviz version 14.1.2 (0)
 -->
<!-- Title: embassy&#45;executor&#45;v0.10.0 Pages: 1 -->
<svg width="1204pt" height="354pt"
 viewBox="0.00 0.00 1204.00 354.00" xmlns="http://www.w3.org/2000/svg" xmlns:xlink="http://www.w3.org/1999/xlink">
<g id="graph0" class="graph" transform="scale(1 1) rotate(0) translate(4 349.64)">
<title>embassy&#45;executor&#45;v0.10.0</title>
<polygon fill="white" stroke="none" points="-4,4 -4,-349.64 1200.04,-349.64 1200.04,4 -4,4"/>
<!-- n0 -->
<g id="node1" class="node">
<title>n0</title>
<path fill="#dff3ff" stroke="#1b78a6" d="M396.94,-230.4C396.94,-230.4 184.72,-230.4 184.72,-230.4 178.72,-230.4 172.72,-224.4 172.72,-218.4 172.72,-218.4 172.72,-104.25 172.72,-104.25 172.72,-98.25 178.72,-92.25 184.72,-92.25 184.72,-92.25 396.94,-92.25 396.94,-92.25 402.94,-92.25 408.94,-98.25 408.94,-104.25 408.94,-104.25 408.94,-218.4 408.94,-218.4 408.94,-224.4 402.94,-230.4 396.94,-230.4"/>
<text xml:space="preserve" text-anchor="start" x="231.95" y="-211.85" font-family="Inter,Arial" font-weight="bold" font-size="13.00" fill="#172033">embassy&#45;executor</text>
<text xml:space="preserve" text-anchor="start" x="274.33" y="-196.8" font-family="Inter,Arial" font-size="12.00" fill="#172033">0.10.0</text>
<text xml:space="preserve" text-anchor="start" x="235.7" y="-183.5" font-family="Inter,Arial" font-size="11.00" fill="#172033">/crates/trueos&#45;executor</text>
<text xml:space="preserve" text-anchor="start" x="251.08" y="-156" font-family="Inter,Arial" font-weight="bold" font-size="11.00" fill="#172033">cordyceps</text>
<text xml:space="preserve" text-anchor="start" x="305.83" y="-156" font-family="Inter,Arial" font-size="10.00" fill="#172033"> </text>
<text xml:space="preserve" text-anchor="start" x="308.83" y="-156" font-family="Inter,Arial" font-size="10.00" fill="#172033">0.3.4</text>
<path fill="none" stroke="#9aa8b8" d="M198.58,-142.95C198.58,-142.95 383.08,-142.95 383.08,-142.95 388.33,-142.95 393.58,-148.2 393.58,-153.45 393.58,-153.45 393.58,-163.95 393.58,-163.95 393.58,-169.2 388.33,-174.45 383.08,-174.45 383.08,-174.45 198.58,-174.45 198.58,-174.45 193.33,-174.45 188.08,-169.2 188.08,-163.95 188.08,-163.95 188.08,-153.45 188.08,-153.45 188.08,-148.2 193.33,-142.95 198.58,-142.95"/>
<text xml:space="preserve" text-anchor="start" x="197.08" y="-118.5" font-family="Inter,Arial" font-weight="bold" font-size="11.00" fill="#172033">embassy&#45;executor&#45;timer&#45;queue</text>
<text xml:space="preserve" text-anchor="start" x="359.83" y="-118.5" font-family="Inter,Arial" font-size="10.00" fill="#172033"> </text>
<text xml:space="preserve" text-anchor="start" x="362.83" y="-118.5" font-family="Inter,Arial" font-size="10.00" fill="#172033">0.1.0</text>
<path fill="none" stroke="#9aa8b8" d="M198.58,-105.45C198.58,-105.45 383.08,-105.45 383.08,-105.45 388.33,-105.45 393.58,-110.7 393.58,-115.95 393.58,-115.95 393.58,-126.45 393.58,-126.45 393.58,-131.7 388.33,-136.95 383.08,-136.95 383.08,-136.95 198.58,-136.95 198.58,-136.95 193.33,-136.95 188.08,-131.7 188.08,-126.45 188.08,-126.45 188.08,-115.95 188.08,-115.95 188.08,-110.7 193.33,-105.45 198.58,-105.45"/>
</g>
<!-- n1 -->
<g id="node2" class="node">
<title>n1</title>
<path fill="#f7f9fb" stroke="#8b9bb0" d="M588.03,-274.02C588.03,-274.02 498.06,-274.02 498.06,-274.02 492.06,-274.02 486.06,-268.02 486.06,-262.02 486.06,-262.02 486.06,-246.62 486.06,-246.62 486.06,-240.62 492.06,-234.62 498.06,-234.62 498.06,-234.62 588.03,-234.62 588.03,-234.62 594.03,-234.62 600.03,-240.62 600.03,-246.62 600.03,-246.62 600.03,-262.02 600.03,-262.02 600.03,-268.02 594.03,-274.02 588.03,-274.02"/>
<text xml:space="preserve" text-anchor="start" x="495.42" y="-255.47" font-family="Inter,Arial" font-weight="bold" font-size="13.00" fill="#172033">critical&#45;section</text>
<text xml:space="preserve" text-anchor="start" x="529.92" y="-243.42" font-family="Inter,Arial" font-size="12.00" fill="#172033">1.2.0</text>
</g>
<!-- n0&#45;&gt;n1 -->
<g id="edge4" class="edge">
<title>n0&#45;&gt;n1</title>
<path fill="none" stroke="#9aa8b8" stroke-width="0.9" d="M409.25,-204.97C434.21,-214.24 459.58,-223.67 481.37,-231.77"/>
<polygon fill="#9aa8b8" stroke="#9aa8b8" stroke-width="0.9" points="480.61,-233.54 486.44,-233.65 481.95,-229.93 480.61,-233.54"/>
</g>
<!-- n5 -->
<g id="node6" class="node">
<title>n5</title>
<path fill="#f7f9fb" stroke="#8b9bb0" d="M600.78,-100.65C600.78,-100.65 485.31,-100.65 485.31,-100.65 479.31,-100.65 473.31,-94.65 473.31,-88.65 473.31,-88.65 473.31,-12 473.31,-12 473.31,-6 479.31,0 485.31,0 485.31,0 600.78,0 600.78,0 606.78,0 612.78,-6 612.78,-12 612.78,-12 612.78,-88.65 612.78,-88.65 612.78,-94.65 606.78,-100.65 600.78,-100.65"/>
<text xml:space="preserve" text-anchor="start" x="482.67" y="-82.1" font-family="Inter,Arial" font-weight="bold" font-size="13.00" fill="#172033">document&#45;features</text>
<text xml:space="preserve" text-anchor="start" x="526.55" y="-67.05" font-family="Inter,Arial" font-size="12.00" fill="#172033">0.2.12</text>
<text xml:space="preserve" text-anchor="start" x="515.67" y="-53.75" font-family="Inter,Arial" font-size="11.00" fill="#172033">proc&#45;macro</text>
<text xml:space="preserve" text-anchor="start" x="520.55" y="-26.25" font-family="Inter,Arial" font-weight="bold" font-size="11.00" fill="#172033">litrs</text>
<text xml:space="preserve" text-anchor="start" x="540.8" y="-26.25" font-family="Inter,Arial" font-size="10.00" fill="#172033"> </text>
<text xml:space="preserve" text-anchor="start" x="543.8" y="-26.25" font-family="Inter,Arial" font-size="10.00" fill="#172033">1.0.0</text>
<path fill="none" stroke="#9aa8b8" d="M499.17,-13.2C499.17,-13.2 586.92,-13.2 586.92,-13.2 592.17,-13.2 597.42,-18.45 597.42,-23.7 597.42,-23.7 597.42,-34.2 597.42,-34.2 597.42,-39.45 592.17,-44.7 586.92,-44.7 586.92,-44.7 499.17,-44.7 499.17,-44.7 493.92,-44.7 488.67,-39.45 488.67,-34.2 488.67,-34.2 488.67,-23.7 488.67,-23.7 488.67,-18.45 493.92,-13.2 499.17,-13.2"/>
</g>
<!-- n0&#45;&gt;n5 -->
<g id="edge5" class="edge">
<title>n0&#45;&gt;n5</title>
<path fill="none" stroke="#9aa8b8" stroke-width="0.9" d="M409.25,-109.24C428.87,-100.53 448.74,-91.72 466.93,-83.65"/>
<polygon fill="#9aa8b8" stroke="#9aa8b8" stroke-width="0.9" points="467.54,-85.48 471.79,-81.49 465.98,-81.97 467.54,-85.48"/>
</g>
<!-- n6 -->
<g id="node7" class="node">
<title>n6</title>
<path fill="#f7f9fb" stroke="#8b9bb0" d="M625.16,-186.52C625.16,-186.52 460.94,-186.52 460.94,-186.52 454.94,-186.52 448.94,-180.52 448.94,-174.52 448.94,-174.52 448.94,-148.12 448.94,-148.12 448.94,-142.12 454.94,-136.12 460.94,-136.12 460.94,-136.12 625.16,-136.12 625.16,-136.12 631.16,-136.12 637.16,-142.12 637.16,-148.12 637.16,-148.12 637.16,-174.52 637.16,-174.52 637.16,-180.52 631.16,-186.52 625.16,-186.52"/>
<text xml:space="preserve" text-anchor="start" x="458.3" y="-167.97" font-family="Inter,Arial" font-weight="bold" font-size="13.00" fill="#172033">embassy&#45;executor&#45;macros</text>
<text xml:space="preserve" text-anchor="start" x="529.92" y="-155.92" font-family="Inter,Arial" font-size="12.00" fill="#172033">0.8.0</text>
<text xml:space="preserve" text-anchor="start" x="515.67" y="-144.87" font-family="Inter,Arial" font-size="11.00" fill="#172033">proc&#45;macro</text>
</g>
<!-- n0&#45;&gt;n6 -->
<g id="edge6" class="edge">
<title>n0&#45;&gt;n6</title>
<path fill="none" stroke="#9aa8b8" stroke-width="0.9" d="M409.25,-161.32C420.18,-161.32 431.2,-161.32 441.95,-161.32"/>
<polygon fill="#9aa8b8" stroke="#9aa8b8" stroke-width="0.9" points="441.75,-163.25 447.25,-161.33 441.75,-159.4 441.75,-163.25"/>
</g>
<!-- n2 -->
<g id="node3" class="node">
<title>n2</title>
<path fill="#f7f9fb" stroke="#8b9bb0" d="M728.88,-225.02C728.88,-225.02 689.16,-225.02 689.16,-225.02 683.16,-225.02 677.16,-219.02 677.16,-213.02 677.16,-213.02 677.16,-197.62 677.16,-197.62 677.16,-191.62 683.16,-185.62 689.16,-185.62 689.16,-185.62 728.88,-185.62 728.88,-185.62 734.88,-185.62 740.88,-191.62 740.88,-197.62 740.88,-197.62 740.88,-213.02 740.88,-213.02 740.88,-219.02 734.88,-225.02 728.88,-225.02"/>
<text xml:space="preserve" text-anchor="start" x="686.52" y="-206.47" font-family="Inter,Arial" font-weight="bold" font-size="13.00" fill="#172033">darling</text>
<text xml:space="preserve" text-anchor="start" x="689.89" y="-194.42" font-family="Inter,Arial" font-size="12.00" fill="#172033">0.20.11</text>
</g>
<!-- n3 -->
<g id="node4" class="node">
<title>n3</title>
<path fill="#f7f9fb" stroke="#8b9bb0" d="M1049.57,-317.4C1049.57,-317.4 943.85,-317.4 943.85,-317.4 937.85,-317.4 931.85,-311.4 931.85,-305.4 931.85,-305.4 931.85,-167.25 931.85,-167.25 931.85,-161.25 937.85,-155.25 943.85,-155.25 943.85,-155.25 1049.57,-155.25 1049.57,-155.25 1055.57,-155.25 1061.57,-161.25 1061.57,-167.25 1061.57,-167.25 1061.57,-305.4 1061.57,-305.4 1061.57,-311.4 1055.57,-317.4 1049.57,-317.4"/>
<text xml:space="preserve" text-anchor="start" x="956.21" y="-298.85" font-family="Inter,Arial" font-weight="bold" font-size="13.00" fill="#172033">darling_core</text>
<text xml:space="preserve" text-anchor="start" x="977.59" y="-283.8" font-family="Inter,Arial" font-size="12.00" fill="#172033">0.20.11</text>
<text xml:space="preserve" text-anchor="start" x="976.09" y="-256.5" font-family="Inter,Arial" font-weight="bold" font-size="11.00" fill="#172033">fnv</text>
<text xml:space="preserve" text-anchor="start" x="992.59" y="-256.5" font-family="Inter,Arial" font-size="10.00" fill="#172033"> </text>
<text xml:space="preserve" text-anchor="start" x="995.59" y="-256.5" font-family="Inter,Arial" font-size="10.00" fill="#172033">1.0.7</text>
<path fill="none" stroke="#9aa8b8" d="M957.71,-243.45C957.71,-243.45 1035.71,-243.45 1035.71,-243.45 1040.96,-243.45 1046.21,-248.7 1046.21,-253.95 1046.21,-253.95 1046.21,-264.45 1046.21,-264.45 1046.21,-269.7 1040.96,-274.95 1035.71,-274.95 1035.71,-274.95 957.71,-274.95 957.71,-274.95 952.46,-274.95 947.21,-269.7 947.21,-264.45 947.21,-264.45 947.21,-253.95 947.21,-253.95 947.21,-248.7 952.46,-243.45 957.71,-243.45"/>
<text xml:space="preserve" text-anchor="start" x="956.21" y="-219" font-family="Inter,Arial" font-weight="bold" font-size="11.00" fill="#172033">ident_case</text>
<text xml:space="preserve" text-anchor="start" x="1012.46" y="-219" font-family="Inter,Arial" font-size="10.00" fill="#172033"> </text>
<text xml:space="preserve" text-anchor="start" x="1015.46" y="-219" font-family="Inter,Arial" font-size="10.00" fill="#172033">1.0.1</text>
<path fill="none" stroke="#9aa8b8" d="M957.71,-205.95C957.71,-205.95 1035.71,-205.95 1035.71,-205.95 1040.96,-205.95 1046.21,-211.2 1046.21,-216.45 1046.21,-216.45 1046.21,-226.95 1046.21,-226.95 1046.21,-232.2 1040.96,-237.45 1035.71,-237.45 1035.71,-237.45 957.71,-237.45 957.71,-237.45 952.46,-237.45 947.21,-232.2 947.21,-226.95 947.21,-226.95 947.21,-216.45 947.21,-216.45 947.21,-211.2 952.46,-205.95 957.71,-205.95"/>
<text xml:space="preserve" text-anchor="start" x="965.21" y="-181.5" font-family="Inter,Arial" font-weight="bold" font-size="11.00" fill="#172033">strsim</text>
<text xml:space="preserve" text-anchor="start" x="998.21" y="-181.5" font-family="Inter,Arial" font-size="10.00" fill="#172033"> </text>
<text xml:space="preserve" text-anchor="start" x="1001.21" y="-181.5" font-family="Inter,Arial" font-size="10.00" fill="#172033">0.11.1</text>
<path fill="none" stroke="#9aa8b8" d="M957.71,-168.45C957.71,-168.45 1035.71,-168.45 1035.71,-168.45 1040.96,-168.45 1046.21,-173.7 1046.21,-178.95 1046.21,-178.95 1046.21,-189.45 1046.21,-189.45 1046.21,-194.7 1040.96,-199.95 1035.71,-199.95 1035.71,-199.95 957.71,-199.95 957.71,-199.95 952.46,-199.95 947.21,-194.7 947.21,-189.45 947.21,-189.45 947.21,-178.95 947.21,-178.95 947.21,-173.7 952.46,-168.45 957.71,-168.45"/>
</g>
<!-- n2&#45;&gt;n3 -->
<g id="edge1" class="edge">
<title>n2&#45;&gt;n3</title>
<path fill="none" stroke="#9aa8b8" stroke-width="0.9" d="M741.14,-208.7C784.93,-213.45 865.98,-222.25 924.89,-228.64"/>
<polygon fill="#9aa8b8" stroke="#9aa8b8" stroke-width="0.9" points="924.57,-230.54 930.24,-229.22 924.98,-226.71 924.57,-230.54"/>
</g>
<!-- n4 -->
<g id="node5" class="node">
<title>n4</title>
<path fill="#f7f9fb" stroke="#8b9bb0" d="M879.85,-293.52C879.85,-293.52 792.88,-293.52 792.88,-293.52 786.88,-293.52 780.88,-287.52 780.88,-281.52 780.88,-281.52 780.88,-255.12 780.88,-255.12 780.88,-249.12 786.88,-243.12 792.88,-243.12 792.88,-243.12 879.85,-243.12 879.85,-243.12 885.85,-243.12 891.85,-249.12 891.85,-255.12 891.85,-255.12 891.85,-281.52 891.85,-281.52 891.85,-287.52 885.85,-293.52 879.85,-293.52"/>
<text xml:space="preserve" text-anchor="start" x="790.24" y="-274.97" font-family="Inter,Arial" font-weight="bold" font-size="13.00" fill="#172033">darling_macro</text>
<text xml:space="preserve" text-anchor="start" x="817.24" y="-262.92" font-family="Inter,Arial" font-size="12.00" fill="#172033">0.20.11</text>
<text xml:space="preserve" text-anchor="start" x="808.99" y="-251.87" font-family="Inter,Arial" font-size="11.00" fill="#172033">proc&#45;macro</text>
</g>
<!-- n2&#45;&gt;n4 -->
<g id="edge2" class="edge">
<title>n2&#45;&gt;n4</title>
<path fill="none" stroke="#9aa8b8" stroke-width="0.9" d="M741.33,-221.06C752.65,-226.75 765.8,-233.36 778.63,-239.81"/>
<polygon fill="#9aa8b8" stroke="#9aa8b8" stroke-width="0.9" points="777.49,-241.39 783.27,-242.14 779.22,-237.95 777.49,-241.39"/>
</g>
<!-- out0 -->
<g id="node8" class="node">
<title>out0</title>
<polygon fill="#fff8e8" stroke="#d19922" points="1190.04,-278.52 1101.57,-278.52 1101.57,-194.12 1196.04,-194.12 1196.04,-272.52 1190.04,-278.52"/>
<polyline fill="none" stroke="#d19922" points="1190.04,-278.52 1190.04,-272.52"/>
<polyline fill="none" stroke="#d19922" points="1196.04,-272.52 1190.04,-272.52"/>
<text xml:space="preserve" text-anchor="start" x="1110.93" y="-262.82" font-family="Inter,Arial" font-size="10.00" fill="#614000">to aes&#45;v0.8.4.svg</text>
<text xml:space="preserve" text-anchor="start" x="1119.56" y="-252.82" font-family="Inter,Arial" font-weight="bold" font-size="10.00" fill="#614000">proc&#45;macro2</text>
<text xml:space="preserve" text-anchor="start" x="1132.68" y="-242.82" font-family="Inter,Arial" font-size="10.00" fill="#614000">1.0.106</text>
<text xml:space="preserve" text-anchor="start" x="1135.68" y="-232.82" font-family="Inter,Arial" font-weight="bold" font-size="10.00" fill="#614000">quote</text>
<text xml:space="preserve" text-anchor="start" x="1135.31" y="-222.82" font-family="Inter,Arial" font-size="10.00" fill="#614000">1.0.45</text>
<text xml:space="preserve" text-anchor="start" x="1140.56" y="-212.82" font-family="Inter,Arial" font-weight="bold" font-size="10.00" fill="#614000">syn</text>
<text xml:space="preserve" text-anchor="start" x="1132.68" y="-202.82" font-family="Inter,Arial" font-size="10.00" fill="#614000">2.0.117</text>
</g>
<!-- n3&#45;&gt;out0 -->
<g id="edge8" class="edge">
<title>n3&#45;&gt;out0</title>
<path fill="none" stroke="#d19922" stroke-width="0.9" stroke-dasharray="5,2" d="M1061.8,-236.32C1072.65,-236.32 1083.81,-236.32 1094.35,-236.32"/>
<polygon fill="#d19922" stroke="#d19922" stroke-width="0.9" points="1094.32,-238.25 1099.82,-236.33 1094.32,-234.4 1094.32,-238.25"/>
</g>
<!-- n4&#45;&gt;n3 -->
<g id="edge3" class="edge">
<title>n4&#45;&gt;n3</title>
<path fill="none" stroke="#9aa8b8" stroke-width="0.9" d="M892.3,-257.22C902.91,-255.08 914.15,-252.81 925.17,-250.58"/>
<polygon fill="#9aa8b8" stroke="#9aa8b8" stroke-width="0.9" points="925.28,-252.52 930.29,-249.55 924.52,-248.75 925.28,-252.52"/>
</g>
<!-- n4&#45;&gt;out0 -->
<g id="edge9" class="edge">
<title>n4&#45;&gt;out0</title>
<path fill="none" stroke="#d19922" stroke-width="0.9" stroke-dasharray="5,2" d="M866.56,-293.93C884.17,-307.64 907.79,-323.14 931.85,-330.32 987.09,-346.83 1008.79,-353.53 1061.57,-330.32 1083.81,-320.55 1102.82,-301.89 1117.29,-283.76"/>
<polygon fill="#d19922" stroke="#d19922" stroke-width="0.9" points="1118.56,-285.27 1120.41,-279.74 1115.52,-282.9 1118.56,-285.27"/>
</g>
<!-- n6&#45;&gt;n2 -->
<g id="edge7" class="edge">
<title>n6&#45;&gt;n2</title>
<path fill="none" stroke="#9aa8b8" stroke-width="0.9" d="M637.53,-186.41C649.09,-189.51 660.35,-192.53 670.34,-195.21"/>
<polygon fill="#9aa8b8" stroke="#9aa8b8" stroke-width="0.9" points="669.59,-197.01 675.4,-196.57 670.59,-193.29 669.59,-197.01"/>
</g>
<!-- n6&#45;&gt;out0 -->
<g id="edge10" class="edge">
<title>n6&#45;&gt;out0</title>
<path fill="none" stroke="#d19922" stroke-width="0.9" stroke-dasharray="5,2" d="M631.71,-135.74C738.28,-109.54 921.24,-80.63 1061.57,-142.32 1083.81,-152.1 1102.82,-170.76 1117.29,-188.89"/>
<polygon fill="#d19922" stroke="#d19922" stroke-width="0.9" points="1115.52,-189.75 1120.41,-192.91 1118.56,-187.38 1115.52,-189.75"/>
</g>
<!-- in1 -->
<g id="node9" class="node">
<title>in1</title>
<polygon fill="#eef6ff" stroke="#4b8fc5" points="361.69,-299.52 213.97,-299.52 213.97,-255.12 367.69,-255.12 367.69,-293.52 361.69,-299.52"/>
<polyline fill="none" stroke="#4b8fc5" points="361.69,-299.52 361.69,-293.52"/>
<polyline fill="none" stroke="#4b8fc5" points="367.69,-293.52 361.69,-293.52"/>
<text xml:space="preserve" text-anchor="start" x="223.33" y="-283.82" font-family="Inter,Arial" font-size="10.00" fill="#123d5c">from embassy&#45;sync&#45;v0.8.0.svg</text>
<text xml:space="preserve" text-anchor="start" x="256.7" y="-273.82" font-family="Inter,Arial" font-weight="bold" font-size="10.00" fill="#123d5c">critical&#45;section</text>
<text xml:space="preserve" text-anchor="start" x="279.95" y="-263.82" font-family="Inter,Arial" font-size="10.00" fill="#123d5c">1.2.0</text>
</g>
<!-- in1&#45;&gt;n1 -->
<g id="edge11" class="edge">
<title>in1&#45;&gt;n1</title>
<path fill="none" stroke="#4b8fc5" stroke-width="0.9" stroke-dasharray="5,2" d="M367.92,-270.33C403.51,-267.06 445.38,-263.21 479.14,-260.11"/>
<polygon fill="#4b8fc5" stroke="#4b8fc5" stroke-width="0.9" points="479.13,-262.04 484.43,-259.62 478.77,-258.21 479.13,-262.04"/>
</g>
<!-- in2 -->
<g id="node10" class="node">
<title>in2</title>
<polygon fill="#eef6ff" stroke="#4b8fc5" points="374.06,-67.53 201.59,-67.53 201.59,-13.13 380.06,-13.13 380.06,-61.53 374.06,-67.53"/>
<polyline fill="none" stroke="#4b8fc5" points="374.06,-67.53 374.06,-61.53"/>
<polyline fill="none" stroke="#4b8fc5" points="380.06,-61.53 374.06,-61.53"/>
<text xml:space="preserve" text-anchor="start" x="210.95" y="-51.83" font-family="Inter,Arial" font-size="10.00" fill="#123d5c">from embassy&#45;time&#45;driver&#45;v0.2.2.svg</text>
<text xml:space="preserve" text-anchor="start" x="247.7" y="-41.83" font-family="Inter,Arial" font-weight="bold" font-size="10.00" fill="#123d5c">document&#45;features</text>
<text xml:space="preserve" text-anchor="start" x="277.33" y="-31.83" font-family="Inter,Arial" font-size="10.00" fill="#123d5c">0.2.12</text>
<text xml:space="preserve" text-anchor="start" x="266.45" y="-21.83" font-family="Inter,Arial" font-size="10.00" fill="#123d5c">proc&#45;macro</text>
</g>
<!-- in2&#45;&gt;n5 -->
<g id="edge12" class="edge">
<title>in2&#45;&gt;n5</title>
<path fill="none" stroke="#4b8fc5" stroke-width="0.9" stroke-dasharray="5,2" d="M380.4,-43.86C408.39,-44.98 439.06,-46.21 466.09,-47.29"/>
<polygon fill="#4b8fc5" stroke="#4b8fc5" stroke-width="0.9" points="465.95,-49.21 471.52,-47.51 466.1,-45.36 465.95,-49.21"/>
</g>
<!-- in3 -->
<g id="node11" class="node">
<title>in3</title>
<polygon fill="#eef6ff" stroke="#4b8fc5" points="126.72,-188.52 0,-188.52 0,-134.12 132.72,-134.12 132.72,-182.52 126.72,-188.52"/>
<polyline fill="none" stroke="#4b8fc5" points="126.72,-188.52 126.72,-182.52"/>
<polyline fill="none" stroke="#4b8fc5" points="132.72,-182.52 126.72,-182.52"/>
<text xml:space="preserve" text-anchor="start" x="9.36" y="-172.82" font-family="Inter,Arial" font-size="10.00" fill="#123d5c">from trueos&#45;qjs&#45;v0.1.0.svg</text>
<text xml:space="preserve" text-anchor="start" x="24.36" y="-162.82" font-family="Inter,Arial" font-weight="bold" font-size="10.00" fill="#123d5c">embassy&#45;executor</text>
<text xml:space="preserve" text-anchor="start" x="52.86" y="-152.82" font-family="Inter,Arial" font-size="10.00" fill="#123d5c">0.10.0</text>
<text xml:space="preserve" text-anchor="start" x="16.11" y="-142.82" font-family="Inter,Arial" font-size="10.00" fill="#123d5c">/crates/trueos&#45;executor</text>
</g>
<!-- in3&#45;&gt;n0 -->
<g id="edge13" class="edge">
<title>in3&#45;&gt;n0</title>
<path fill="none" stroke="#4b8fc5" stroke-width="0.9" stroke-dasharray="5,2" d="M133.21,-161.32C143.59,-161.32 154.62,-161.32 165.82,-161.32"/>
<polygon fill="#4b8fc5" stroke="#4b8fc5" stroke-width="0.9" points="165.57,-163.25 171.07,-161.33 165.57,-159.4 165.57,-163.25"/>
</g>
</g>
</svg>
