<?xml version="1.0" encoding="UTF-8" standalone="no"?>
<!DOCTYPE svg PUBLIC "-//W3C//DTD SVG 1.1//EN"
 "http://www.w3.org/Graphics/SVG/1.1/DTD/svg11.dtd">
<!-- Generated by graphviz version 14.1.2 (0)
 -->
<!-- Title: embassy&#45;time&#45;driver&#45;v0.2.2 Pages: 1 -->
<svg width="495pt" height="107pt"
 viewBox="0.00 0.00 495.00 107.00" xmlns="http://www.w3.org/2000/svg" xmlns:xlink="http://www.w3.org/1999/xlink">
<g id="graph0" class="graph" transform="scale(1 1) rotate(0) translate(4 103.2)">
<title>embassy&#45;time&#45;driver&#45;v0.2.2</title>
<polygon fill="white" stroke="none" points="-4,4 -4,-103.2 491.31,-103.2 491.31,4 -4,4"/>
<!-- n0 -->
<g id="node1" class="node">
<title>n0</title>
<path fill="#dff3ff" stroke="#1b78a6" d="M278.29,-67.6C278.29,-67.6 196.27,-67.6 196.27,-67.6 190.27,-67.6 184.27,-61.6 184.27,-55.6 184.27,-55.6 184.27,-43.6 184.27,-43.6 184.27,-37.6 190.27,-31.6 196.27,-31.6 196.27,-31.6 278.29,-31.6 278.29,-31.6 284.29,-31.6 290.29,-37.6 290.29,-43.6 290.29,-43.6 290.29,-55.6 290.29,-55.6 290.29,-61.6 284.29,-67.6 278.29,-67.6"/>
<text xml:space="preserve" text-anchor="start" x="190.03" y="-51.1" font-family="Inter,Arial" font-weight="bold" font-size="10.00" fill="#172033">embassy&#45;time&#45;driver</text>
<text xml:space="preserve" text-anchor="start" x="226.41" y="-41.1" font-family="Inter,Arial" font-size="10.00" fill="#172033">0.2.2</text>
</g>
<!-- out0 -->
<g id="node2" class="node">
<title>out0</title>
<polygon fill="#fff8e8" stroke="#d19922" points="481.31,-73.2 330.29,-73.2 330.29,-26 487.31,-26 487.31,-67.2 481.31,-73.2"/>
<polyline fill="none" stroke="#d19922" points="481.31,-73.2 481.31,-67.2"/>
<polyline fill="none" stroke="#d19922" points="487.31,-67.2 481.31,-67.2"/>
<text xml:space="preserve" text-anchor="start" x="336.05" y="-61.1" font-family="Inter,Arial" font-size="10.00" fill="#614000">to embassy&#45;executor&#45;v0.10.0.svg</text>
<text xml:space="preserve" text-anchor="start" x="365.68" y="-51.1" font-family="Inter,Arial" font-weight="bold" font-size="10.00" fill="#614000">document&#45;features</text>
<text xml:space="preserve" text-anchor="start" x="395.3" y="-41.1" font-family="Inter,Arial" font-size="10.00" fill="#614000">0.2.12</text>
<text xml:space="preserve" text-anchor="start" x="384.43" y="-31.1" font-family="Inter,Arial" font-size="10.00" fill="#614000">proc&#45;macro</text>
</g>
<!-- n0&#45;&gt;out0 -->
<g id="edge1" class="edge">
<title>n0&#45;&gt;out0</title>
<path fill="none" stroke="#d19922" stroke-width="0.9" stroke-dasharray="5,2" d="M290.52,-49.6C300.93,-49.6 312.11,-49.6 323.29,-49.6"/>
<polygon fill="#d19922" stroke="#d19922" stroke-width="0.9" points="323,-51.53 328.5,-49.6 323,-47.68 323,-51.53"/>
</g>
<!-- in1 -->
<g id="node3" class="node">
<title>in1</title>
<polygon fill="#eef6ff" stroke="#4b8fc5" points="138.27,-99.2 0,-99.2 0,-62 144.27,-62 144.27,-93.2 138.27,-99.2"/>
<polyline fill="none" stroke="#4b8fc5" points="138.27,-99.2 138.27,-93.2"/>
<polyline fill="none" stroke="#4b8fc5" points="144.27,-93.2 138.27,-93.2"/>
<text xml:space="preserve" text-anchor="start" x="5.76" y="-87.1" font-family="Inter,Arial" font-size="10.00" fill="#123d5c">from embassy&#45;time&#45;v0.5.1.svg</text>
<text xml:space="preserve" text-anchor="start" x="24.88" y="-77.1" font-family="Inter,Arial" font-weight="bold" font-size="10.00" fill="#123d5c">embassy&#45;time&#45;driver</text>
<text xml:space="preserve" text-anchor="start" x="61.26" y="-67.1" font-family="Inter,Arial" font-size="10.00" fill="#123d5c">0.2.2</text>
</g>
<!-- in1&#45;&gt;n0 -->
<g id="edge2" class="edge">
<title>in1&#45;&gt;n0</title>
<path fill="none" stroke="#4b8fc5" stroke-width="0.9" stroke-dasharray="5,2" d="M144.69,-67C155.61,-64.93 166.77,-62.81 177.38,-60.79"/>
<polygon fill="#4b8fc5" stroke="#4b8fc5" stroke-width="0.9" points="177.52,-62.72 182.57,-59.81 176.8,-58.94 177.52,-62.72"/>
</g>
<!-- in2 -->
<g id="node4" class="node">
<title>in2</title>
<polygon fill="#eef6ff" stroke="#4b8fc5" points="128.89,-37.2 9.37,-37.2 9.37,0 134.89,0 134.89,-31.2 128.89,-37.2"/>
<polyline fill="none" stroke="#4b8fc5" points="128.89,-37.2 128.89,-31.2"/>
<polyline fill="none" stroke="#4b8fc5" points="134.89,-31.2 128.89,-31.2"/>
<text xml:space="preserve" text-anchor="start" x="15.13" y="-25.1" font-family="Inter,Arial" font-size="10.00" fill="#123d5c">from trueos&#45;qjs&#45;v0.1.0.svg</text>
<text xml:space="preserve" text-anchor="start" x="24.88" y="-15.1" font-family="Inter,Arial" font-weight="bold" font-size="10.00" fill="#123d5c">embassy&#45;time&#45;driver</text>
<text xml:space="preserve" text-anchor="start" x="61.26" y="-5.1" font-family="Inter,Arial" font-size="10.00" fill="#123d5c">0.2.2</text>
</g>
<!-- in2&#45;&gt;n0 -->
<g id="edge3" class="edge">
<title>in2&#45;&gt;n0</title>
<path fill="none" stroke="#4b8fc5" stroke-width="0.9" stroke-dasharray="5,2" d="M135.28,-30.41C149.05,-33.03 163.61,-35.79 177.26,-38.38"/>
<polygon fill="#4b8fc5" stroke="#4b8fc5" stroke-width="0.9" points="176.78,-40.25 182.54,-39.39 177.49,-36.47 176.78,-40.25"/>
</g>
</g>
</svg>
