<?xml version="1.0" encoding="UTF-8" standalone="no"?>
<!DOCTYPE svg PUBLIC "-//W3C//DTD SVG 1.1//EN"
 "http://www.w3.org/Graphics/SVG/1.1/DTD/svg11.dtd">
<!-- Generated by graphviz version 14.1.2 (0)
 -->
<!-- Title: embassy&#45;time&#45;v0.5.1 Pages: 1 -->
<svg width="574pt" height="127pt"
 viewBox="0.00 0.00 574.00 127.00" xmlns="http://www.w3.org/2000/svg" xmlns:xlink="http://www.w3.org/1999/xlink">
<g id="graph0" class="graph" transform="scale(1 1) rotate(0) translate(4 123.2)">
<title>embassy&#45;time&#45;v0.5.1</title>
<polygon fill="white" stroke="none" points="-4,4 -4,-123.2 570.06,-123.2 570.06,4 -4,4"/>
<!-- n0 -->
<g id="node1" class="node">
<title>n0</title>
<path fill="#dff3ff" stroke="#1b78a6" d="M354.04,-78.2C354.04,-78.2 215.02,-78.2 215.02,-78.2 209.02,-78.2 203.02,-72.2 203.02,-66.2 203.02,-66.2 203.02,-53 203.02,-53 203.02,-47 209.02,-41 215.02,-41 215.02,-41 354.04,-41 354.04,-41 360.04,-41 366.04,-47 366.04,-53 366.04,-53 366.04,-66.2 366.04,-66.2 366.04,-72.2 360.04,-78.2 354.04,-78.2"/>
<text xml:space="preserve" text-anchor="start" x="252.28" y="-66.1" font-family="Inter,Arial" font-weight="bold" font-size="10.00" fill="#172033">embassy&#45;time</text>
<text xml:space="preserve" text-anchor="start" x="273.66" y="-56.1" font-family="Inter,Arial" font-size="10.00" fill="#172033">0.5.1</text>
<text xml:space="preserve" text-anchor="start" x="208.78" y="-46.1" font-family="Inter,Arial" font-size="10.00" fill="#172033">/vendor/embassy&#45;time&#45;0.5.1&#45;trueos</text>
</g>
<!-- out0 -->
<g id="node2" class="node">
<title>out0</title>
<polygon fill="#fff8e8" stroke="#d19922" points="534.56,-109.2 431.54,-109.2 431.54,-72 540.56,-72 540.56,-103.2 534.56,-109.2"/>
<polyline fill="none" stroke="#d19922" points="534.56,-109.2 534.56,-103.2"/>
<polyline fill="none" stroke="#d19922" points="540.56,-103.2 534.56,-103.2"/>
<text xml:space="preserve" text-anchor="start" x="437.3" y="-97.1" font-family="Inter,Arial" font-size="10.00" fill="#614000">to crab&#45;usb&#45;v0.9.1.svg</text>
<text xml:space="preserve" text-anchor="start" x="458.3" y="-87.1" font-family="Inter,Arial" font-weight="bold" font-size="10.00" fill="#614000">futures&#45;core</text>
<text xml:space="preserve" text-anchor="start" x="472.55" y="-77.1" font-family="Inter,Arial" font-size="10.00" fill="#614000">0.3.32</text>
</g>
<!-- n0&#45;&gt;out0 -->
<g id="edge1" class="edge">
<title>n0&#45;&gt;out0</title>
<path fill="none" stroke="#d19922" stroke-width="0.9" stroke-dasharray="5,2" d="M366.39,-72.16C385.83,-75.18 406.25,-78.36 424.58,-81.2"/>
<polygon fill="#d19922" stroke="#d19922" stroke-width="0.9" points="424.15,-83.09 429.88,-82.03 424.74,-79.28 424.15,-83.09"/>
</g>
<!-- out1 -->
<g id="node3" class="node">
<title>out1</title>
<polygon fill="#fff8e8" stroke="#d19922" points="560.06,-47.2 406.04,-47.2 406.04,-10 566.06,-10 566.06,-41.2 560.06,-47.2"/>
<polyline fill="none" stroke="#d19922" points="560.06,-47.2 560.06,-41.2"/>
<polyline fill="none" stroke="#d19922" points="566.06,-41.2 560.06,-41.2"/>
<text xml:space="preserve" text-anchor="start" x="411.8" y="-35.1" font-family="Inter,Arial" font-size="10.00" fill="#614000">to embassy&#45;time&#45;driver&#45;v0.2.2.svg</text>
<text xml:space="preserve" text-anchor="start" x="438.8" y="-25.1" font-family="Inter,Arial" font-weight="bold" font-size="10.00" fill="#614000">embassy&#45;time&#45;driver</text>
<text xml:space="preserve" text-anchor="start" x="475.18" y="-15.1" font-family="Inter,Arial" font-size="10.00" fill="#614000">0.2.2</text>
</g>
<!-- n0&#45;&gt;out1 -->
<g id="edge2" class="edge">
<title>n0&#45;&gt;out1</title>
<path fill="none" stroke="#d19922" stroke-width="0.9" stroke-dasharray="5,2" d="M366.39,-47.04C377.13,-45.37 388.17,-43.65 398.99,-41.97"/>
<polygon fill="#d19922" stroke="#d19922" stroke-width="0.9" points="399.2,-43.89 404.34,-41.14 398.61,-40.08 399.2,-43.89"/>
</g>
<!-- in2 -->
<g id="node4" class="node">
<title>in2</title>
<polygon fill="#eef6ff" stroke="#4b8fc5" points="157.02,-119.2 0,-119.2 0,-72 163.02,-72 163.02,-113.2 157.02,-119.2"/>
<polyline fill="none" stroke="#4b8fc5" points="157.02,-119.2 157.02,-113.2"/>
<polyline fill="none" stroke="#4b8fc5" points="163.02,-113.2 157.02,-113.2"/>
<text xml:space="preserve" text-anchor="start" x="23.01" y="-107.1" font-family="Inter,Arial" font-size="10.00" fill="#123d5c">from trueos&#45;esp&#45;v0.1.0.svg</text>
<text xml:space="preserve" text-anchor="start" x="49.26" y="-97.1" font-family="Inter,Arial" font-weight="bold" font-size="10.00" fill="#123d5c">embassy&#45;time</text>
<text xml:space="preserve" text-anchor="start" x="70.63" y="-87.1" font-family="Inter,Arial" font-size="10.00" fill="#123d5c">0.5.1</text>
<text xml:space="preserve" text-anchor="start" x="5.76" y="-77.1" font-family="Inter,Arial" font-size="10.00" fill="#123d5c">/vendor/embassy&#45;time&#45;0.5.1&#45;trueos</text>
</g>
<!-- in2&#45;&gt;n0 -->
<g id="edge3" class="edge">
<title>in2&#45;&gt;n0</title>
<path fill="none" stroke="#4b8fc5" stroke-width="0.9" stroke-dasharray="5,2" d="M163.4,-81.11C174.15,-79.19 185.22,-77.21 196.07,-75.26"/>
<polygon fill="#4b8fc5" stroke="#4b8fc5" stroke-width="0.9" points="196.39,-77.16 201.46,-74.3 195.71,-73.37 196.39,-77.16"/>
</g>
<!-- in3 -->
<g id="node5" class="node">
<title>in3</title>
<polygon fill="#eef6ff" stroke="#4b8fc5" points="157.02,-47.2 0,-47.2 0,0 163.02,0 163.02,-41.2 157.02,-47.2"/>
<polyline fill="none" stroke="#4b8fc5" points="157.02,-47.2 157.02,-41.2"/>
<polyline fill="none" stroke="#4b8fc5" points="163.02,-41.2 157.02,-41.2"/>
<text xml:space="preserve" text-anchor="start" x="24.51" y="-35.1" font-family="Inter,Arial" font-size="10.00" fill="#123d5c">from trueos&#45;qjs&#45;v0.1.0.svg</text>
<text xml:space="preserve" text-anchor="start" x="49.26" y="-25.1" font-family="Inter,Arial" font-weight="bold" font-size="10.00" fill="#123d5c">embassy&#45;time</text>
<text xml:space="preserve" text-anchor="start" x="70.63" y="-15.1" font-family="Inter,Arial" font-size="10.00" fill="#123d5c">0.5.1</text>
<text xml:space="preserve" text-anchor="start" x="5.76" y="-5.1" font-family="Inter,Arial" font-size="10.00" fill="#123d5c">/vendor/embassy&#45;time&#45;0.5.1&#45;trueos</text>
</g>
<!-- in3&#45;&gt;n0 -->
<g id="edge4" class="edge">
<title>in3&#45;&gt;n0</title>
<path fill="none" stroke="#4b8fc5" stroke-width="0.9" stroke-dasharray="5,2" d="M163.4,-38.09C174.15,-40.01 185.22,-41.99 196.07,-43.94"/>
<polygon fill="#4b8fc5" stroke="#4b8fc5" stroke-width="0.9" points="195.71,-45.83 201.46,-44.9 196.39,-42.04 195.71,-45.83"/>
</g>
</g>
</svg>
