<?xml version="1.0" encoding="UTF-8" standalone="no"?>
<!DOCTYPE svg PUBLIC "-//W3C//DTD SVG 1.1//EN"
 "http://www.w3.org/Graphics/SVG/1.1/DTD/svg11.dtd">
<!-- Generated by graphviz version 14.1.2 (0)
 -->
<!-- Title: embassy&#45;executor&#45;v0.10.0 Pages: 1 -->
<svg width="983pt" height="235pt"
 viewBox="0.00 0.00 983.00 235.00" xmlns="http://www.w3.org/2000/svg" xmlns:xlink="http://www.w3.org/1999/xlink">
<g id="graph0" class="graph" transform="scale(1 1) rotate(0) translate(4 230.75)">
<title>embassy&#45;executor&#45;v0.10.0</title>
<polygon fill="white" stroke="none" points="-4,4 -4,-230.75 978.62,-230.75 978.62,4 -4,4"/>
<!-- n0 -->
<g id="node1" class="node">
<title>n0</title>
<path fill="#dff3ff" stroke="#1b78a6" d="M321.16,-154.95C321.16,-154.95 181.14,-154.95 181.14,-154.95 175.14,-154.95 169.14,-148.95 169.14,-142.95 169.14,-142.95 169.14,-84.25 169.14,-84.25 169.14,-78.25 175.14,-72.25 181.14,-72.25 181.14,-72.25 321.16,-72.25 321.16,-72.25 327.16,-72.25 333.16,-78.25 333.16,-84.25 333.16,-84.25 333.16,-142.95 333.16,-142.95 333.16,-148.95 327.16,-154.95 321.16,-154.95"/>
<text xml:space="preserve" text-anchor="start" x="209.15" y="-142.85" font-family="Inter,Arial" font-weight="bold" font-size="10.00" fill="#172033">embassy&#45;executor</text>
<text xml:space="preserve" text-anchor="start" x="237.65" y="-129.85" font-family="Inter,Arial" font-size="10.00" fill="#172033">0.10.0</text>
<text xml:space="preserve" text-anchor="start" x="200.9" y="-117.85" font-family="Inter,Arial" font-size="10.00" fill="#172033">/crates/trueos&#45;executor</text>
<text xml:space="preserve" text-anchor="start" x="220.4" y="-103.75" font-family="Inter,Arial" font-weight="bold" font-size="8.00" fill="#172033">cordyceps</text>
<text xml:space="preserve" text-anchor="start" x="261.65" y="-103.75" font-family="Inter,Arial" font-size="8.00" fill="#172033"> 0.3.4</text>
<path fill="none" stroke="#9aa8b8" d="M181.49,-95.6C181.49,-95.6 320.82,-95.6 320.82,-95.6 324.11,-95.6 327.4,-98.89 327.4,-102.18 327.4,-102.18 327.4,-108.77 327.4,-108.77 327.4,-112.06 324.11,-115.35 320.82,-115.35 320.82,-115.35 181.49,-115.35 181.49,-115.35 178.2,-115.35 174.9,-112.06 174.9,-108.77 174.9,-108.77 174.9,-102.18 174.9,-102.18 174.9,-98.89 178.2,-95.6 181.49,-95.6"/>
<text xml:space="preserve" text-anchor="start" x="179.9" y="-84" font-family="Inter,Arial" font-weight="bold" font-size="8.00" fill="#172033">embassy&#45;executor&#45;timer&#45;queue</text>
<text xml:space="preserve" text-anchor="start" x="302.15" y="-84" font-family="Inter,Arial" font-size="8.00" fill="#172033"> 0.1.0</text>
<path fill="none" stroke="#9aa8b8" d="M181.49,-75.85C181.49,-75.85 320.82,-75.85 320.82,-75.85 324.11,-75.85 327.4,-79.14 327.4,-82.43 327.4,-82.43 327.4,-89.02 327.4,-89.02 327.4,-92.31 324.11,-95.6 320.82,-95.6 320.82,-95.6 181.49,-95.6 181.49,-95.6 178.2,-95.6 174.9,-92.31 174.9,-89.02 174.9,-89.02 174.9,-82.43 174.9,-82.43 174.9,-79.14 178.2,-75.85 181.49,-75.85"/>
</g>
<!-- n1 -->
<g id="node2" class="node">
<title>n1</title>
<path fill="#f7f9fb" stroke="#8b9bb0" d="M471.18,-204.6C471.18,-204.6 415.41,-204.6 415.41,-204.6 409.41,-204.6 403.41,-198.6 403.41,-192.6 403.41,-192.6 403.41,-180.6 403.41,-180.6 403.41,-174.6 409.41,-168.6 415.41,-168.6 415.41,-168.6 471.18,-168.6 471.18,-168.6 477.18,-168.6 483.18,-174.6 483.18,-180.6 483.18,-180.6 483.18,-192.6 483.18,-192.6 483.18,-198.6 477.18,-204.6 471.18,-204.6"/>
<text xml:space="preserve" text-anchor="start" x="409.17" y="-188.1" font-family="Inter,Arial" font-weight="bold" font-size="10.00" fill="#172033">critical&#45;section</text>
<text xml:space="preserve" text-anchor="start" x="432.42" y="-178.1" font-family="Inter,Arial" font-size="10.00" fill="#172033">1.2.0</text>
</g>
<!-- n0&#45;&gt;n1 -->
<g id="edge4" class="edge">
<title>n0&#45;&gt;n1</title>
<path fill="none" stroke="#9aa8b8" stroke-width="0.9" d="M333.62,-144.88C355.27,-153.19 377.87,-161.86 396.82,-169.14"/>
<polygon fill="#9aa8b8" stroke="#9aa8b8" stroke-width="0.9" points="396.01,-170.89 401.83,-171.06 397.39,-167.29 396.01,-170.89"/>
</g>
<!-- n5 -->
<g id="node6" class="node">
<title>n5</title>
<path fill="#f7f9fb" stroke="#8b9bb0" d="M480.18,-63.08C480.18,-63.08 406.41,-63.08 406.41,-63.08 400.41,-63.08 394.41,-57.08 394.41,-51.08 394.41,-51.08 394.41,-12.12 394.41,-12.12 394.41,-6.12 400.41,-0.13 406.41,-0.13 406.41,-0.13 480.18,-0.13 480.18,-0.13 486.18,-0.13 492.18,-6.13 492.18,-12.13 492.18,-12.13 492.18,-51.08 492.18,-51.08 492.18,-57.08 486.18,-63.08 480.18,-63.08"/>
<text xml:space="preserve" text-anchor="start" x="400.17" y="-50.98" font-family="Inter,Arial" font-weight="bold" font-size="10.00" fill="#172033">document&#45;features</text>
<text xml:space="preserve" text-anchor="start" x="429.8" y="-37.98" font-family="Inter,Arial" font-size="10.00" fill="#172033">0.2.12</text>
<text xml:space="preserve" text-anchor="start" x="418.92" y="-25.98" font-family="Inter,Arial" font-size="10.00" fill="#172033">proc&#45;macro</text>
<text xml:space="preserve" text-anchor="start" x="425.67" y="-11.88" font-family="Inter,Arial" font-weight="bold" font-size="8.00" fill="#172033">litrs</text>
<text xml:space="preserve" text-anchor="start" x="440.67" y="-11.88" font-family="Inter,Arial" font-size="8.00" fill="#172033"> 1.0.0</text>
<path fill="none" stroke="#9aa8b8" d="M406.76,-3.73C406.76,-3.73 479.84,-3.73 479.84,-3.73 483.13,-3.73 486.42,-7.02 486.42,-10.31 486.42,-10.31 486.42,-16.89 486.42,-16.89 486.42,-20.18 483.13,-23.48 479.84,-23.48 479.84,-23.48 406.76,-23.48 406.76,-23.48 403.47,-23.48 400.17,-20.18 400.17,-16.89 400.17,-16.89 400.17,-10.31 400.17,-10.31 400.17,-7.02 403.47,-3.73 406.76,-3.73"/>
</g>
<!-- n0&#45;&gt;n5 -->
<g id="edge5" class="edge">
<title>n0&#45;&gt;n5</title>
<path fill="none" stroke="#9aa8b8" stroke-width="0.9" d="M333.62,-78.47C351.93,-70.57 370.94,-62.38 387.83,-55.09"/>
<polygon fill="#9aa8b8" stroke="#9aa8b8" stroke-width="0.9" points="388.42,-56.93 392.7,-52.99 386.89,-53.4 388.42,-56.93"/>
</g>
<!-- n6 -->
<g id="node7" class="node">
<title>n6</title>
<path fill="#f7f9fb" stroke="#8b9bb0" d="M497.81,-132.2C497.81,-132.2 388.79,-132.2 388.79,-132.2 382.79,-132.2 376.79,-126.2 376.79,-120.2 376.79,-120.2 376.79,-107 376.79,-107 376.79,-101 382.79,-95 388.79,-95 388.79,-95 497.81,-95 497.81,-95 503.81,-95 509.81,-101 509.81,-107 509.81,-107 509.81,-120.2 509.81,-120.2 509.81,-126.2 503.81,-132.2 497.81,-132.2"/>
<text xml:space="preserve" text-anchor="start" x="382.55" y="-120.1" font-family="Inter,Arial" font-weight="bold" font-size="10.00" fill="#172033">embassy&#45;executor&#45;macros</text>
<text xml:space="preserve" text-anchor="start" x="432.42" y="-110.1" font-family="Inter,Arial" font-size="10.00" fill="#172033">0.8.0</text>
<text xml:space="preserve" text-anchor="start" x="418.92" y="-100.1" font-family="Inter,Arial" font-size="10.00" fill="#172033">proc&#45;macro</text>
</g>
<!-- n0&#45;&gt;n6 -->
<g id="edge6" class="edge">
<title>n0&#45;&gt;n6</title>
<path fill="none" stroke="#9aa8b8" stroke-width="0.9" d="M333.62,-113.6C345.7,-113.6 358.07,-113.6 369.95,-113.6"/>
<polygon fill="#9aa8b8" stroke="#9aa8b8" stroke-width="0.9" points="369.63,-115.53 375.13,-113.6 369.63,-111.68 369.63,-115.53"/>
</g>
<!-- n2 -->
<g id="node3" class="node">
<title>n2</title>
<path fill="#f7f9fb" stroke="#8b9bb0" d="M591.81,-165.6C591.81,-165.6 561.81,-165.6 561.81,-165.6 555.81,-165.6 549.81,-159.6 549.81,-153.6 549.81,-153.6 549.81,-141.6 549.81,-141.6 549.81,-135.6 555.81,-129.6 561.81,-129.6 561.81,-129.6 591.81,-129.6 591.81,-129.6 597.81,-129.6 603.81,-135.6 603.81,-141.6 603.81,-141.6 603.81,-153.6 603.81,-153.6 603.81,-159.6 597.81,-165.6 591.81,-165.6"/>
<text xml:space="preserve" text-anchor="start" x="560.31" y="-149.1" font-family="Inter,Arial" font-weight="bold" font-size="10.00" fill="#172033">darling</text>
<text xml:space="preserve" text-anchor="start" x="560.68" y="-139.1" font-family="Inter,Arial" font-size="10.00" fill="#172033">0.20.11</text>
</g>
<!-- n3 -->
<g id="node4" class="node">
<title>n3</title>
<path fill="#f7f9fb" stroke="#8b9bb0" d="M835.35,-206.82C835.35,-206.82 774.83,-206.82 774.83,-206.82 768.83,-206.82 762.83,-200.82 762.83,-194.82 762.83,-194.82 762.83,-128.38 762.83,-128.38 762.83,-122.38 768.83,-116.38 774.83,-116.38 774.83,-116.38 835.35,-116.38 835.35,-116.38 841.35,-116.38 847.35,-122.38 847.35,-128.38 847.35,-128.38 847.35,-194.82 847.35,-194.82 847.35,-200.82 841.35,-206.82 835.35,-206.82"/>
<text xml:space="preserve" text-anchor="start" x="775.84" y="-194.72" font-family="Inter,Arial" font-weight="bold" font-size="10.00" fill="#172033">darling_core</text>
<text xml:space="preserve" text-anchor="start" x="788.96" y="-181.72" font-family="Inter,Arial" font-size="10.00" fill="#172033">0.20.11</text>
<text xml:space="preserve" text-anchor="start" x="788.59" y="-167.62" font-family="Inter,Arial" font-weight="bold" font-size="8.00" fill="#172033">fnv</text>
<text xml:space="preserve" text-anchor="start" x="801.34" y="-167.62" font-family="Inter,Arial" font-size="8.00" fill="#172033"> 1.0.7</text>
<path fill="none" stroke="#9aa8b8" d="M775.17,-159.47C775.17,-159.47 835.01,-159.47 835.01,-159.47 838.3,-159.47 841.59,-162.77 841.59,-166.06 841.59,-166.06 841.59,-172.64 841.59,-172.64 841.59,-175.93 838.3,-179.22 835.01,-179.22 835.01,-179.22 775.17,-179.22 775.17,-179.22 771.88,-179.22 768.59,-175.93 768.59,-172.64 768.59,-172.64 768.59,-166.06 768.59,-166.06 768.59,-162.77 771.88,-159.47 775.17,-159.47"/>
<text xml:space="preserve" text-anchor="start" x="773.59" y="-147.88" font-family="Inter,Arial" font-weight="bold" font-size="8.00" fill="#172033">ident_case</text>
<text xml:space="preserve" text-anchor="start" x="816.34" y="-147.88" font-family="Inter,Arial" font-size="8.00" fill="#172033"> 1.0.1</text>
<path fill="none" stroke="#9aa8b8" d="M775.17,-139.72C775.17,-139.72 835.01,-139.72 835.01,-139.72 838.3,-139.72 841.59,-143.02 841.59,-146.31 841.59,-146.31 841.59,-152.89 841.59,-152.89 841.59,-156.18 838.3,-159.47 835.01,-159.47 835.01,-159.47 775.17,-159.47 775.17,-159.47 771.88,-159.47 768.59,-156.18 768.59,-152.89 768.59,-152.89 768.59,-146.31 768.59,-146.31 768.59,-143.02 771.88,-139.72 775.17,-139.72"/>
<text xml:space="preserve" text-anchor="start" x="780.71" y="-128.12" font-family="Inter,Arial" font-weight="bold" font-size="8.00" fill="#172033">strsim</text>
<text xml:space="preserve" text-anchor="start" x="804.71" y="-128.12" font-family="Inter,Arial" font-size="8.00" fill="#172033"> 0.11.1</text>
<path fill="none" stroke="#9aa8b8" d="M775.17,-119.97C775.17,-119.97 835.01,-119.97 835.01,-119.97 838.3,-119.97 841.59,-123.27 841.59,-126.56 841.59,-126.56 841.59,-133.14 841.59,-133.14 841.59,-136.43 838.3,-139.72 835.01,-139.72 835.01,-139.72 775.17,-139.72 775.17,-139.72 771.88,-139.72 768.59,-136.43 768.59,-133.14 768.59,-133.14 768.59,-126.56 768.59,-126.56 768.59,-123.27 771.88,-119.97 775.17,-119.97"/>
</g>
<!-- n2&#45;&gt;n3 -->
<g id="edge1" class="edge">
<title>n2&#45;&gt;n3</title>
<path fill="none" stroke="#9aa8b8" stroke-width="0.9" d="M604.21,-149.23C641.32,-151.53 709.56,-155.75 755.86,-158.62"/>
<polygon fill="#9aa8b8" stroke="#9aa8b8" stroke-width="0.9" points="755.56,-160.53 761.17,-158.94 755.8,-156.68 755.56,-160.53"/>
</g>
<!-- n4 -->
<g id="node5" class="node">
<title>n4</title>
<path fill="#f7f9fb" stroke="#8b9bb0" d="M710.83,-223.2C710.83,-223.2 655.81,-223.2 655.81,-223.2 649.81,-223.2 643.81,-217.2 643.81,-211.2 643.81,-211.2 643.81,-198 643.81,-198 643.81,-192 649.81,-186 655.81,-186 655.81,-186 710.83,-186 710.83,-186 716.83,-186 722.83,-192 722.83,-198 722.83,-198 722.83,-211.2 722.83,-211.2 722.83,-217.2 716.83,-223.2 710.83,-223.2"/>
<text xml:space="preserve" text-anchor="start" x="649.57" y="-211.1" font-family="Inter,Arial" font-weight="bold" font-size="10.00" fill="#172033">darling_macro</text>
<text xml:space="preserve" text-anchor="start" x="667.19" y="-201.1" font-family="Inter,Arial" font-size="10.00" fill="#172033">0.20.11</text>
<text xml:space="preserve" text-anchor="start" x="658.94" y="-191.1" font-family="Inter,Arial" font-size="10.00" fill="#172033">proc&#45;macro</text>
</g>
<!-- n2&#45;&gt;n4 -->
<g id="edge2" class="edge">
<title>n2&#45;&gt;n4</title>
<path fill="none" stroke="#9aa8b8" stroke-width="0.9" d="M604.18,-161.98C615.61,-168.22 629.26,-175.66 641.92,-182.56"/>
<polygon fill="#9aa8b8" stroke="#9aa8b8" stroke-width="0.9" points="640.71,-184.1 646.46,-185.04 642.55,-180.72 640.71,-184.1"/>
</g>
<!-- out0 -->
<g id="node8" class="node">
<title>out0</title>
<polygon fill="#fff8e8" stroke="#d19922" points="968.62,-200.2 887.35,-200.2 887.35,-123 974.62,-123 974.62,-194.2 968.62,-200.2"/>
<polyline fill="none" stroke="#d19922" points="968.62,-200.2 968.62,-194.2"/>
<polyline fill="none" stroke="#d19922" points="974.62,-194.2 968.62,-194.2"/>
<text xml:space="preserve" text-anchor="start" x="893.11" y="-188.1" font-family="Inter,Arial" font-size="10.00" fill="#614000">to aes&#45;v0.8.4.svg</text>
<text xml:space="preserve" text-anchor="start" x="901.73" y="-178.1" font-family="Inter,Arial" font-weight="bold" font-size="10.00" fill="#614000">proc&#45;macro2</text>
<text xml:space="preserve" text-anchor="start" x="914.86" y="-168.1" font-family="Inter,Arial" font-size="10.00" fill="#614000">1.0.106</text>
<text xml:space="preserve" text-anchor="start" x="917.86" y="-158.1" font-family="Inter,Arial" font-weight="bold" font-size="10.00" fill="#614000">quote</text>
<text xml:space="preserve" text-anchor="start" x="917.48" y="-148.1" font-family="Inter,Arial" font-size="10.00" fill="#614000">1.0.45</text>
<text xml:space="preserve" text-anchor="start" x="922.73" y="-138.1" font-family="Inter,Arial" font-weight="bold" font-size="10.00" fill="#614000">syn</text>
<text xml:space="preserve" text-anchor="start" x="914.86" y="-128.1" font-family="Inter,Arial" font-size="10.00" fill="#614000">2.0.117</text>
</g>
<!-- n3&#45;&gt;out0 -->
<g id="edge8" class="edge">
<title>n3&#45;&gt;out0</title>
<path fill="none" stroke="#d19922" stroke-width="0.9" stroke-dasharray="5,2" d="M847.69,-161.6C858.17,-161.6 869.52,-161.6 880.35,-161.6"/>
<polygon fill="#d19922" stroke="#d19922" stroke-width="0.9" points="880.15,-163.53 885.65,-161.6 880.15,-159.68 880.15,-163.53"/>
</g>
<!-- n4&#45;&gt;n3 -->
<g id="edge3" class="edge">
<title>n4&#45;&gt;n3</title>
<path fill="none" stroke="#9aa8b8" stroke-width="0.9" d="M723.21,-190.64C733.71,-186.87 745.21,-182.74 756.14,-178.81"/>
<polygon fill="#9aa8b8" stroke="#9aa8b8" stroke-width="0.9" points="756.7,-180.66 761.23,-176.99 755.4,-177.04 756.7,-180.66"/>
</g>
<!-- n4&#45;&gt;out0 -->
<g id="edge9" class="edge">
<title>n4&#45;&gt;out0</title>
<path fill="none" stroke="#d19922" stroke-width="0.9" stroke-dasharray="5,2" d="M723.11,-216.54C756.73,-224.94 806.29,-232.57 847.35,-219.6 859.31,-215.82 871.03,-209.63 881.72,-202.66"/>
<polygon fill="#d19922" stroke="#d19922" stroke-width="0.9" points="882.6,-204.39 886.09,-199.72 880.45,-201.2 882.6,-204.39"/>
</g>
<!-- n6&#45;&gt;n2 -->
<g id="edge7" class="edge">
<title>n6&#45;&gt;n2</title>
<path fill="none" stroke="#9aa8b8" stroke-width="0.9" d="M510.05,-130.6C521.54,-133.57 533.02,-136.54 543.1,-139.14"/>
<polygon fill="#9aa8b8" stroke="#9aa8b8" stroke-width="0.9" points="542.39,-140.95 548.19,-140.46 543.35,-137.22 542.39,-140.95"/>
</g>
<!-- n6&#45;&gt;out0 -->
<g id="edge10" class="edge">
<title>n6&#45;&gt;out0</title>
<path fill="none" stroke="#d19922" stroke-width="0.9" stroke-dasharray="5,2" d="M509.99,-99.17C591.31,-84.17 733.05,-67.49 847.35,-103.6 859.31,-107.38 871.03,-113.57 881.72,-120.54"/>
<polygon fill="#d19922" stroke="#d19922" stroke-width="0.9" points="880.45,-122 886.09,-123.48 882.6,-118.81 880.45,-122"/>
</g>
<!-- in1 -->
<g id="node9" class="node">
<title>in1</title>
<polygon fill="#eef6ff" stroke="#4b8fc5" points="318.41,-217.2 177.89,-217.2 177.89,-180 324.41,-180 324.41,-211.2 318.41,-217.2"/>
<polyline fill="none" stroke="#4b8fc5" points="318.41,-217.2 318.41,-211.2"/>
<polyline fill="none" stroke="#4b8fc5" points="324.41,-211.2 318.41,-211.2"/>
<text xml:space="preserve" text-anchor="start" x="183.65" y="-205.1" font-family="Inter,Arial" font-size="10.00" fill="#123d5c">from embassy&#45;sync&#45;v0.8.0.svg</text>
<text xml:space="preserve" text-anchor="start" x="217.03" y="-195.1" font-family="Inter,Arial" font-weight="bold" font-size="10.00" fill="#123d5c">critical&#45;section</text>
<text xml:space="preserve" text-anchor="start" x="240.28" y="-185.1" font-family="Inter,Arial" font-size="10.00" fill="#123d5c">1.2.0</text>
</g>
<!-- in1&#45;&gt;n1 -->
<g id="edge11" class="edge">
<title>in1&#45;&gt;n1</title>
<path fill="none" stroke="#4b8fc5" stroke-width="0.9" stroke-dasharray="5,2" d="M324.85,-194.01C348.88,-192.5 374.93,-190.85 396.38,-189.5"/>
<polygon fill="#4b8fc5" stroke="#4b8fc5" stroke-width="0.9" points="396.45,-191.42 401.82,-189.16 396.2,-187.58 396.45,-191.42"/>
</g>
<!-- in2 -->
<g id="node10" class="node">
<title>in2</title>
<polygon fill="#eef6ff" stroke="#4b8fc5" points="330.79,-47.2 165.52,-47.2 165.52,0 336.79,0 336.79,-41.2 330.79,-47.2"/>
<polyline fill="none" stroke="#4b8fc5" points="330.79,-47.2 330.79,-41.2"/>
<polyline fill="none" stroke="#4b8fc5" points="336.79,-41.2 330.79,-41.2"/>
<text xml:space="preserve" text-anchor="start" x="171.28" y="-35.1" font-family="Inter,Arial" font-size="10.00" fill="#123d5c">from embassy&#45;time&#45;driver&#45;v0.2.2.svg</text>
<text xml:space="preserve" text-anchor="start" x="208.03" y="-25.1" font-family="Inter,Arial" font-weight="bold" font-size="10.00" fill="#123d5c">document&#45;features</text>
<text xml:space="preserve" text-anchor="start" x="237.65" y="-15.1" font-family="Inter,Arial" font-size="10.00" fill="#123d5c">0.2.12</text>
<text xml:space="preserve" text-anchor="start" x="226.78" y="-5.1" font-family="Inter,Arial" font-size="10.00" fill="#123d5c">proc&#45;macro</text>
</g>
<!-- in2&#45;&gt;n5 -->
<g id="edge12" class="edge">
<title>in2&#45;&gt;n5</title>
<path fill="none" stroke="#4b8fc5" stroke-width="0.9" stroke-dasharray="5,2" d="M337.22,-27.18C354.26,-27.9 371.74,-28.63 387.43,-29.29"/>
<polygon fill="#4b8fc5" stroke="#4b8fc5" stroke-width="0.9" points="387.1,-31.2 392.68,-29.51 387.26,-27.36 387.1,-31.2"/>
</g>
<!-- in3 -->
<g id="node11" class="node">
<title>in3</title>
<polygon fill="#eef6ff" stroke="#4b8fc5" points="119.52,-137.2 0,-137.2 0,-90 125.52,-90 125.52,-131.2 119.52,-137.2"/>
<polyline fill="none" stroke="#4b8fc5" points="119.52,-137.2 119.52,-131.2"/>
<polyline fill="none" stroke="#4b8fc5" points="125.52,-131.2 119.52,-131.2"/>
<text xml:space="preserve" text-anchor="start" x="5.76" y="-125.1" font-family="Inter,Arial" font-size="10.00" fill="#123d5c">from trueos&#45;qjs&#45;v0.1.0.svg</text>
<text xml:space="preserve" text-anchor="start" x="20.76" y="-115.1" font-family="Inter,Arial" font-weight="bold" font-size="10.00" fill="#123d5c">embassy&#45;executor</text>
<text xml:space="preserve" text-anchor="start" x="49.26" y="-105.1" font-family="Inter,Arial" font-size="10.00" fill="#123d5c">0.10.0</text>
<text xml:space="preserve" text-anchor="start" x="12.51" y="-95.1" font-family="Inter,Arial" font-size="10.00" fill="#123d5c">/crates/trueos&#45;executor</text>
</g>
<!-- in3&#45;&gt;n0 -->
<g id="edge13" class="edge">
<title>in3&#45;&gt;n0</title>
<path fill="none" stroke="#4b8fc5" stroke-width="0.9" stroke-dasharray="5,2" d="M125.83,-113.6C137.44,-113.6 149.79,-113.6 162.02,-113.6"/>
<polygon fill="#4b8fc5" stroke="#4b8fc5" stroke-width="0.9" points="161.93,-115.53 167.43,-113.6 161.93,-111.68 161.93,-115.53"/>
</g>
</g>
</svg>
