<?xml version="1.0" encoding="UTF-8" standalone="no"?>
<!DOCTYPE svg PUBLIC "-//W3C//DTD SVG 1.1//EN"
 "http://www.w3.org/Graphics/SVG/1.1/DTD/svg11.dtd">
<!-- Generated by graphviz version 14.1.2 (0)
 -->
<!-- Title: embassy&#45;sync&#45;v0.8.0 Pages: 1 -->
<svg width="558pt" height="417pt"
 viewBox="0.00 0.00 558.00 417.00" xmlns="http://www.w3.org/2000/svg" xmlns:xlink="http://www.w3.org/1999/xlink">
<g id="graph0" class="graph" transform="scale(1 1) rotate(0) translate(4 413.4)">
<title>embassy&#45;sync&#45;v0.8.0</title>
<polygon fill="white" stroke="none" points="-4,4 -4,-413.4 554.16,-413.4 554.16,4 -4,4"/>
<!-- n0 -->
<g id="node1" class="node">
<title>n0</title>
<path fill="#dff3ff" stroke="#1b78a6" d="M323.81,-179.9C323.81,-179.9 236.84,-179.9 236.84,-179.9 230.84,-179.9 224.84,-173.9 224.84,-167.9 224.84,-167.9 224.84,-152.5 224.84,-152.5 224.84,-146.5 230.84,-140.5 236.84,-140.5 236.84,-140.5 323.81,-140.5 323.81,-140.5 329.81,-140.5 335.81,-146.5 335.81,-152.5 335.81,-152.5 335.81,-167.9 335.81,-167.9 335.81,-173.9 329.81,-179.9 323.81,-179.9"/>
<text xml:space="preserve" text-anchor="start" x="234.2" y="-161.35" font-family="Inter,Arial" font-weight="bold" font-size="13.00" fill="#172033">embassy&#45;sync</text>
<text xml:space="preserve" text-anchor="start" x="267.2" y="-149.3" font-family="Inter,Arial" font-size="12.00" fill="#172033">0.8.0</text>
</g>
<!-- out1 -->
<g id="node6" class="node">
<title>out1</title>
<polygon fill="#fff8e8" stroke="#d19922" points="509.28,-340.4 420.81,-340.4 420.81,-296 515.28,-296 515.28,-334.4 509.28,-340.4"/>
<polyline fill="none" stroke="#d19922" points="509.28,-340.4 509.28,-334.4"/>
<polyline fill="none" stroke="#d19922" points="515.28,-334.4 509.28,-334.4"/>
<text xml:space="preserve" text-anchor="start" x="430.17" y="-324.7" font-family="Inter,Arial" font-size="10.00" fill="#614000">to aes&#45;v0.8.4.svg</text>
<text xml:space="preserve" text-anchor="start" x="456.42" y="-314.7" font-family="Inter,Arial" font-weight="bold" font-size="10.00" fill="#614000">cfg&#45;if</text>
<text xml:space="preserve" text-anchor="start" x="457.17" y="-304.7" font-family="Inter,Arial" font-size="10.00" fill="#614000">1.0.4</text>
</g>
<!-- n0&#45;&gt;out1 -->
<g id="edge2" class="edge">
<title>n0&#45;&gt;out1</title>
<path fill="none" stroke="#d19922" stroke-width="0.9" stroke-dasharray="5,2" d="M314.27,-180.36C325.24,-188.13 336.94,-197.69 345.94,-208.2 370.77,-237.19 357.79,-258.42 385.94,-284.2 394.13,-291.7 404.21,-297.68 414.45,-302.41"/>
<polygon fill="#d19922" stroke="#d19922" stroke-width="0.9" points="413.42,-304.06 419.23,-304.5 414.97,-300.53 413.42,-304.06"/>
</g>
<!-- out2 -->
<g id="node7" class="node">
<title>out2</title>
<polygon fill="#fff8e8" stroke="#d19922" points="520.16,-271.4 409.94,-271.4 409.94,-207 526.16,-207 526.16,-265.4 520.16,-271.4"/>
<polyline fill="none" stroke="#d19922" points="520.16,-271.4 520.16,-265.4"/>
<polyline fill="none" stroke="#d19922" points="526.16,-265.4 520.16,-265.4"/>
<text xml:space="preserve" text-anchor="start" x="419.3" y="-255.7" font-family="Inter,Arial" font-size="10.00" fill="#614000">to crab&#45;usb&#45;v0.9.1.svg</text>
<text xml:space="preserve" text-anchor="start" x="440.3" y="-245.7" font-family="Inter,Arial" font-weight="bold" font-size="10.00" fill="#614000">futures&#45;core</text>
<text xml:space="preserve" text-anchor="start" x="454.55" y="-235.7" font-family="Inter,Arial" font-size="10.00" fill="#614000">0.3.32</text>
<text xml:space="preserve" text-anchor="start" x="440.67" y="-225.7" font-family="Inter,Arial" font-weight="bold" font-size="10.00" fill="#614000">futures&#45;sink</text>
<text xml:space="preserve" text-anchor="start" x="454.55" y="-215.7" font-family="Inter,Arial" font-size="10.00" fill="#614000">0.3.32</text>
</g>
<!-- n0&#45;&gt;out2 -->
<g id="edge3" class="edge">
<title>n0&#45;&gt;out2</title>
<path fill="none" stroke="#d19922" stroke-width="0.9" stroke-dasharray="5,2" d="M328.68,-180.34C351.36,-189.99 378.87,-201.69 403.36,-212.11"/>
<polygon fill="#d19922" stroke="#d19922" stroke-width="0.9" points="402.45,-213.81 408.26,-214.19 403.95,-210.27 402.45,-213.81"/>
</g>
<!-- out3 -->
<g id="node8" class="node">
<title>out3</title>
<polygon fill="#fff8e8" stroke="#d19922" points="544.16,-182.4 385.94,-182.4 385.94,-138 550.16,-138 550.16,-176.4 544.16,-182.4"/>
<polyline fill="none" stroke="#d19922" points="544.16,-182.4 544.16,-176.4"/>
<polyline fill="none" stroke="#d19922" points="550.16,-176.4 544.16,-176.4"/>
<text xml:space="preserve" text-anchor="start" x="395.3" y="-166.7" font-family="Inter,Arial" font-size="10.00" fill="#614000">to embassy&#45;executor&#45;v0.10.0.svg</text>
<text xml:space="preserve" text-anchor="start" x="433.92" y="-156.7" font-family="Inter,Arial" font-weight="bold" font-size="10.00" fill="#614000">critical&#45;section</text>
<text xml:space="preserve" text-anchor="start" x="457.17" y="-146.7" font-family="Inter,Arial" font-size="10.00" fill="#614000">1.2.0</text>
</g>
<!-- n0&#45;&gt;out3 -->
<g id="edge4" class="edge">
<title>n0&#45;&gt;out3</title>
<path fill="none" stroke="#d19922" stroke-width="0.9" stroke-dasharray="5,2" d="M336.3,-160.2C349.75,-160.2 364.48,-160.2 379.05,-160.2"/>
<polygon fill="#d19922" stroke="#d19922" stroke-width="0.9" points="378.86,-162.13 384.36,-160.2 378.86,-158.28 378.86,-162.13"/>
</g>
<!-- out4 -->
<g id="node9" class="node">
<title>out4</title>
<polygon fill="#fff8e8" stroke="#d19922" points="543.78,-113.4 386.31,-113.4 386.31,-69 549.78,-69 549.78,-107.4 543.78,-113.4"/>
<polyline fill="none" stroke="#d19922" points="543.78,-113.4 543.78,-107.4"/>
<polyline fill="none" stroke="#d19922" points="549.78,-107.4 543.78,-107.4"/>
<text xml:space="preserve" text-anchor="start" x="395.67" y="-97.7" font-family="Inter,Arial" font-size="10.00" fill="#614000">to embedded&#45;io&#45;async&#45;v0.7.0.svg</text>
<text xml:space="preserve" text-anchor="start" x="422.67" y="-87.7" font-family="Inter,Arial" font-weight="bold" font-size="10.00" fill="#614000">embedded&#45;io&#45;async</text>
<text xml:space="preserve" text-anchor="start" x="457.17" y="-77.7" font-family="Inter,Arial" font-size="10.00" fill="#614000">0.7.0</text>
</g>
<!-- n0&#45;&gt;out4 -->
<g id="edge5" class="edge">
<title>n0&#45;&gt;out4</title>
<path fill="none" stroke="#d19922" stroke-width="0.9" stroke-dasharray="5,2" d="M335.55,-140.06C355.72,-132.56 378.85,-123.97 400.03,-116.1"/>
<polygon fill="#d19922" stroke="#d19922" stroke-width="0.9" points="400.48,-117.99 404.97,-114.26 399.14,-114.38 400.48,-117.99"/>
</g>
<!-- out5 -->
<g id="node10" class="node">
<title>out5</title>
<polygon fill="#fff8e8" stroke="#d19922" points="520.91,-44.4 409.19,-44.4 409.19,0 526.91,0 526.91,-38.4 520.91,-44.4"/>
<polyline fill="none" stroke="#d19922" points="520.91,-44.4 520.91,-38.4"/>
<polyline fill="none" stroke="#d19922" points="526.91,-38.4 520.91,-38.4"/>
<text xml:space="preserve" text-anchor="start" x="418.55" y="-28.7" font-family="Inter,Arial" font-size="10.00" fill="#614000">to heapless&#45;v0.9.3.svg</text>
<text xml:space="preserve" text-anchor="start" x="447.42" y="-18.7" font-family="Inter,Arial" font-weight="bold" font-size="10.00" fill="#614000">heapless</text>
<text xml:space="preserve" text-anchor="start" x="457.17" y="-8.7" font-family="Inter,Arial" font-size="10.00" fill="#614000">0.9.3</text>
</g>
<!-- n0&#45;&gt;out5 -->
<g id="edge6" class="edge">
<title>n0&#45;&gt;out5</title>
<path fill="none" stroke="#d19922" stroke-width="0.9" stroke-dasharray="5,2" d="M297.24,-140.26C316.31,-117.44 350.18,-80.13 385.94,-56.2 391.27,-52.63 397.03,-49.32 402.95,-46.28"/>
<polygon fill="#d19922" stroke="#d19922" stroke-width="0.9" points="403.61,-48.1 407.68,-43.93 401.9,-44.65 403.61,-48.1"/>
</g>
<!-- n1 -->
<g id="node2" class="node">
<title>n1</title>
<path fill="#f7f9fb" stroke="#8b9bb0" d="M319.31,-259.9C319.31,-259.9 241.34,-259.9 241.34,-259.9 235.34,-259.9 229.34,-253.9 229.34,-247.9 229.34,-247.9 229.34,-232.5 229.34,-232.5 229.34,-226.5 235.34,-220.5 241.34,-220.5 241.34,-220.5 319.31,-220.5 319.31,-220.5 325.31,-220.5 331.31,-226.5 331.31,-232.5 331.31,-232.5 331.31,-247.9 331.31,-247.9 331.31,-253.9 325.31,-259.9 319.31,-259.9"/>
<text xml:space="preserve" text-anchor="start" x="238.7" y="-241.35" font-family="Inter,Arial" font-weight="bold" font-size="13.00" fill="#172033">embedded&#45;io</text>
<text xml:space="preserve" text-anchor="start" x="267.2" y="-229.3" font-family="Inter,Arial" font-size="12.00" fill="#172033">0.7.1</text>
</g>
<!-- n2 -->
<g id="node3" class="node">
<title>n2</title>
<path fill="#f7f9fb" stroke="#8b9bb0" d="M300.94,-406.9C300.94,-406.9 259.72,-406.9 259.72,-406.9 253.72,-406.9 247.72,-400.9 247.72,-394.9 247.72,-394.9 247.72,-379.5 247.72,-379.5 247.72,-373.5 253.72,-367.5 259.72,-367.5 259.72,-367.5 300.94,-367.5 300.94,-367.5 306.94,-367.5 312.94,-373.5 312.94,-379.5 312.94,-379.5 312.94,-394.9 312.94,-394.9 312.94,-400.9 306.94,-406.9 300.94,-406.9"/>
<text xml:space="preserve" text-anchor="start" x="257.08" y="-388.35" font-family="Inter,Arial" font-weight="bold" font-size="13.00" fill="#172033">hash32</text>
<text xml:space="preserve" text-anchor="start" x="267.2" y="-376.3" font-family="Inter,Arial" font-size="12.00" fill="#172033">0.3.1</text>
</g>
<!-- out0 -->
<g id="node5" class="node">
<title>out0</title>
<polygon fill="#fff8e8" stroke="#d19922" points="510.41,-409.4 419.69,-409.4 419.69,-365 516.41,-365 516.41,-403.4 510.41,-409.4"/>
<polyline fill="none" stroke="#d19922" points="510.41,-409.4 510.41,-403.4"/>
<polyline fill="none" stroke="#d19922" points="516.41,-403.4 510.41,-403.4"/>
<text xml:space="preserve" text-anchor="start" x="429.05" y="-393.7" font-family="Inter,Arial" font-size="10.00" fill="#614000">to acpi&#45;v6.1.1.svg</text>
<text xml:space="preserve" text-anchor="start" x="445.92" y="-383.7" font-family="Inter,Arial" font-weight="bold" font-size="10.00" fill="#614000">byteorder</text>
<text xml:space="preserve" text-anchor="start" x="457.17" y="-373.7" font-family="Inter,Arial" font-size="10.00" fill="#614000">1.5.0</text>
</g>
<!-- n2&#45;&gt;out0 -->
<g id="edge1" class="edge">
<title>n2&#45;&gt;out0</title>
<path fill="none" stroke="#d19922" stroke-width="0.9" stroke-dasharray="5,2" d="M313.26,-387.2C340.56,-387.2 380.45,-387.2 412.76,-387.2"/>
<polygon fill="#d19922" stroke="#d19922" stroke-width="0.9" points="412.67,-389.13 418.17,-387.2 412.67,-385.28 412.67,-389.13"/>
</g>
<!-- n3 -->
<g id="node4" class="node">
<title>n3</title>
<path fill="#f7f9fb" stroke="#8b9bb0" d="M333.94,-342.9C333.94,-342.9 226.72,-342.9 226.72,-342.9 220.72,-342.9 214.72,-336.9 214.72,-330.9 214.72,-330.9 214.72,-315.5 214.72,-315.5 214.72,-309.5 220.72,-303.5 226.72,-303.5 226.72,-303.5 333.94,-303.5 333.94,-303.5 339.94,-303.5 345.94,-309.5 345.94,-315.5 345.94,-315.5 345.94,-330.9 345.94,-330.9 345.94,-336.9 339.94,-342.9 333.94,-342.9"/>
<text xml:space="preserve" text-anchor="start" x="224.08" y="-324.35" font-family="Inter,Arial" font-weight="bold" font-size="13.00" fill="#172033">stable_deref_trait</text>
<text xml:space="preserve" text-anchor="start" x="267.2" y="-312.3" font-family="Inter,Arial" font-size="12.00" fill="#172033">1.2.1</text>
</g>
<!-- in6 -->
<g id="node11" class="node">
<title>in6</title>
<polygon fill="#eef6ff" stroke="#4b8fc5" points="168.72,-262.4 0,-262.4 0,-218 174.72,-218 174.72,-256.4 168.72,-262.4"/>
<polyline fill="none" stroke="#4b8fc5" points="168.72,-262.4 168.72,-256.4"/>
<polyline fill="none" stroke="#4b8fc5" points="174.72,-256.4 168.72,-256.4"/>
<text xml:space="preserve" text-anchor="start" x="9.36" y="-246.7" font-family="Inter,Arial" font-size="10.00" fill="#123d5c">from embedded&#45;io&#45;async&#45;v0.7.0.svg</text>
<text xml:space="preserve" text-anchor="start" x="56.99" y="-236.7" font-family="Inter,Arial" font-weight="bold" font-size="10.00" fill="#123d5c">embedded&#45;io</text>
<text xml:space="preserve" text-anchor="start" x="76.49" y="-226.7" font-family="Inter,Arial" font-size="10.00" fill="#123d5c">0.7.1</text>
</g>
<!-- in6&#45;&gt;n1 -->
<g id="edge7" class="edge">
<title>in6&#45;&gt;n1</title>
<path fill="none" stroke="#4b8fc5" stroke-width="0.9" stroke-dasharray="5,2" d="M175.18,-240.2C191.16,-240.2 207.47,-240.2 222.29,-240.2"/>
<polygon fill="#4b8fc5" stroke="#4b8fc5" stroke-width="0.9" points="222.12,-242.13 227.62,-240.2 222.12,-238.28 222.12,-242.13"/>
</g>
<!-- in7 -->
<g id="node12" class="node">
<title>in7</title>
<polygon fill="#eef6ff" stroke="#4b8fc5" points="145.85,-362.4 22.88,-362.4 22.88,-298 151.85,-298 151.85,-356.4 145.85,-362.4"/>
<polyline fill="none" stroke="#4b8fc5" points="145.85,-362.4 145.85,-356.4"/>
<polyline fill="none" stroke="#4b8fc5" points="151.85,-356.4 145.85,-356.4"/>
<text xml:space="preserve" text-anchor="start" x="32.24" y="-346.7" font-family="Inter,Arial" font-size="10.00" fill="#123d5c">from heapless&#45;v0.9.3.svg</text>
<text xml:space="preserve" text-anchor="start" x="70.86" y="-336.7" font-family="Inter,Arial" font-weight="bold" font-size="10.00" fill="#123d5c">hash32</text>
<text xml:space="preserve" text-anchor="start" x="76.49" y="-326.7" font-family="Inter,Arial" font-size="10.00" fill="#123d5c">0.3.1</text>
<text xml:space="preserve" text-anchor="start" x="47.61" y="-316.7" font-family="Inter,Arial" font-weight="bold" font-size="10.00" fill="#123d5c">stable_deref_trait</text>
<text xml:space="preserve" text-anchor="start" x="76.49" y="-306.7" font-family="Inter,Arial" font-size="10.00" fill="#123d5c">1.2.1</text>
</g>
<!-- in7&#45;&gt;n2 -->
<g id="edge8" class="edge">
<title>in7&#45;&gt;n2</title>
<path fill="none" stroke="#4b8fc5" stroke-width="0.9" stroke-dasharray="5,2" d="M152.22,-349.26C181.7,-358.06 215.73,-368.22 241.15,-375.8"/>
<polygon fill="#4b8fc5" stroke="#4b8fc5" stroke-width="0.9" points="240.3,-377.56 246.12,-377.29 241.4,-373.87 240.3,-377.56"/>
</g>
<!-- in7&#45;&gt;n3 -->
<g id="edge9" class="edge">
<title>in7&#45;&gt;n3</title>
<path fill="none" stroke="#4b8fc5" stroke-width="0.9" stroke-dasharray="5,2" d="M152.22,-327.86C169.98,-327.21 189.4,-326.5 207.59,-325.83"/>
<polygon fill="#4b8fc5" stroke="#4b8fc5" stroke-width="0.9" points="207.44,-327.76 212.87,-325.64 207.3,-323.91 207.44,-327.76"/>
</g>
<!-- in8 -->
<g id="node13" class="node">
<title>in8</title>
<polygon fill="#eef6ff" stroke="#4b8fc5" points="147.72,-182.4 21,-182.4 21,-138 153.72,-138 153.72,-176.4 147.72,-182.4"/>
<polyline fill="none" stroke="#4b8fc5" points="147.72,-182.4 147.72,-176.4"/>
<polyline fill="none" stroke="#4b8fc5" points="153.72,-176.4 147.72,-176.4"/>
<text xml:space="preserve" text-anchor="start" x="30.36" y="-166.7" font-family="Inter,Arial" font-size="10.00" fill="#123d5c">from trueos&#45;qjs&#45;v0.1.0.svg</text>
<text xml:space="preserve" text-anchor="start" x="54.36" y="-156.7" font-family="Inter,Arial" font-weight="bold" font-size="10.00" fill="#123d5c">embassy&#45;sync</text>
<text xml:space="preserve" text-anchor="start" x="76.49" y="-146.7" font-family="Inter,Arial" font-size="10.00" fill="#123d5c">0.8.0</text>
</g>
<!-- in8&#45;&gt;n0 -->
<g id="edge10" class="edge">
<title>in8&#45;&gt;n0</title>
<path fill="none" stroke="#4b8fc5" stroke-width="0.9" stroke-dasharray="5,2" d="M154.08,-160.2C174.73,-160.2 197.44,-160.2 217.78,-160.2"/>
<polygon fill="#4b8fc5" stroke="#4b8fc5" stroke-width="0.9" points="217.73,-162.13 223.23,-160.2 217.73,-158.28 217.73,-162.13"/>
</g>
</g>
</svg>
