<?xml version="1.0" encoding="UTF-8" standalone="no"?>
<!DOCTYPE svg PUBLIC "-//W3C//DTD SVG 1.1//EN"
 "http://www.w3.org/Graphics/SVG/1.1/DTD/svg11.dtd">
<!-- Generated by graphviz version 14.1.2 (0)
 -->
<!-- Title: embassy&#45;time&#45;driver&#45;v0.2.2 Pages: 1 -->
<svg width="553pt" height="121pt"
 viewBox="0.00 0.00 553.00 121.00" xmlns="http://www.w3.org/2000/svg" xmlns:xlink="http://www.w3.org/1999/xlink">
<g id="graph0" class="graph" transform="scale(1 1) rotate(0) translate(4 117.4)">
<title>embassy&#45;time&#45;driver&#45;v0.2.2</title>
<polygon fill="white" stroke="none" points="-4,4 -4,-117.4 548.91,-117.4 548.91,4 -4,4"/>
<!-- n0 -->
<g id="node1" class="node">
<title>n0</title>
<path fill="#dff3ff" stroke="#1b78a6" d="M328.69,-75.9C328.69,-75.9 203.47,-75.9 203.47,-75.9 197.47,-75.9 191.47,-69.9 191.47,-63.9 191.47,-63.9 191.47,-48.5 191.47,-48.5 191.47,-42.5 197.47,-36.5 203.47,-36.5 203.47,-36.5 328.69,-36.5 328.69,-36.5 334.69,-36.5 340.69,-42.5 340.69,-48.5 340.69,-48.5 340.69,-63.9 340.69,-63.9 340.69,-69.9 334.69,-75.9 328.69,-75.9"/>
<text xml:space="preserve" text-anchor="start" x="200.83" y="-57.35" font-family="Inter,Arial" font-weight="bold" font-size="13.00" fill="#172033">embassy&#45;time&#45;driver</text>
<text xml:space="preserve" text-anchor="start" x="252.95" y="-45.3" font-family="Inter,Arial" font-size="12.00" fill="#172033">0.2.2</text>
</g>
<!-- out0 -->
<g id="node2" class="node">
<title>out0</title>
<polygon fill="#fff8e8" stroke="#d19922" points="538.91,-83.4 380.69,-83.4 380.69,-29 544.91,-29 544.91,-77.4 538.91,-83.4"/>
<polyline fill="none" stroke="#d19922" points="538.91,-83.4 538.91,-77.4"/>
<polyline fill="none" stroke="#d19922" points="544.91,-77.4 538.91,-77.4"/>
<text xml:space="preserve" text-anchor="start" x="390.05" y="-67.7" font-family="Inter,Arial" font-size="10.00" fill="#614000">to embassy&#45;executor&#45;v0.10.0.svg</text>
<text xml:space="preserve" text-anchor="start" x="419.67" y="-57.7" font-family="Inter,Arial" font-weight="bold" font-size="10.00" fill="#614000">document&#45;features</text>
<text xml:space="preserve" text-anchor="start" x="449.3" y="-47.7" font-family="Inter,Arial" font-size="10.00" fill="#614000">0.2.12</text>
<text xml:space="preserve" text-anchor="start" x="438.42" y="-37.7" font-family="Inter,Arial" font-size="10.00" fill="#614000">proc&#45;macro</text>
</g>
<!-- n0&#45;&gt;out0 -->
<g id="edge1" class="edge">
<title>n0&#45;&gt;out0</title>
<path fill="none" stroke="#d19922" stroke-width="0.9" stroke-dasharray="5,2" d="M340.97,-56.2C351.66,-56.2 362.76,-56.2 373.69,-56.2"/>
<polygon fill="#d19922" stroke="#d19922" stroke-width="0.9" points="373.61,-58.13 379.11,-56.2 373.61,-54.28 373.61,-58.13"/>
</g>
<!-- in1 -->
<g id="node3" class="node">
<title>in1</title>
<polygon fill="#eef6ff" stroke="#4b8fc5" points="145.47,-113.4 0,-113.4 0,-69 151.47,-69 151.47,-107.4 145.47,-113.4"/>
<polyline fill="none" stroke="#4b8fc5" points="145.47,-113.4 145.47,-107.4"/>
<polyline fill="none" stroke="#4b8fc5" points="151.47,-107.4 145.47,-107.4"/>
<text xml:space="preserve" text-anchor="start" x="9.36" y="-97.7" font-family="Inter,Arial" font-size="10.00" fill="#123d5c">from embassy&#45;time&#45;v0.5.1.svg</text>
<text xml:space="preserve" text-anchor="start" x="28.49" y="-87.7" font-family="Inter,Arial" font-weight="bold" font-size="10.00" fill="#123d5c">embassy&#45;time&#45;driver</text>
<text xml:space="preserve" text-anchor="start" x="64.86" y="-77.7" font-family="Inter,Arial" font-size="10.00" fill="#123d5c">0.2.2</text>
</g>
<!-- in1&#45;&gt;n0 -->
<g id="edge2" class="edge">
<title>in1&#45;&gt;n0</title>
<path fill="none" stroke="#4b8fc5" stroke-width="0.9" stroke-dasharray="5,2" d="M151.72,-77.27C162.42,-75.28 173.47,-73.22 184.28,-71.22"/>
<polygon fill="#4b8fc5" stroke="#4b8fc5" stroke-width="0.9" points="184.58,-73.12 189.63,-70.22 183.87,-69.33 184.58,-73.12"/>
</g>
<!-- in2 -->
<g id="node4" class="node">
<title>in2</title>
<polygon fill="#eef6ff" stroke="#4b8fc5" points="136.1,-44.4 9.38,-44.4 9.38,0 142.1,0 142.1,-38.4 136.1,-44.4"/>
<polyline fill="none" stroke="#4b8fc5" points="136.1,-44.4 136.1,-38.4"/>
<polyline fill="none" stroke="#4b8fc5" points="142.1,-38.4 136.1,-38.4"/>
<text xml:space="preserve" text-anchor="start" x="18.74" y="-28.7" font-family="Inter,Arial" font-size="10.00" fill="#123d5c">from trueos&#45;qjs&#45;v0.1.0.svg</text>
<text xml:space="preserve" text-anchor="start" x="28.49" y="-18.7" font-family="Inter,Arial" font-weight="bold" font-size="10.00" fill="#123d5c">embassy&#45;time&#45;driver</text>
<text xml:space="preserve" text-anchor="start" x="64.86" y="-8.7" font-family="Inter,Arial" font-size="10.00" fill="#123d5c">0.2.2</text>
</g>
<!-- in2&#45;&gt;n0 -->
<g id="edge3" class="edge">
<title>in2&#45;&gt;n0</title>
<path fill="none" stroke="#4b8fc5" stroke-width="0.9" stroke-dasharray="5,2" d="M142.34,-34.04C155.97,-36.5 170.48,-39.12 184.57,-41.67"/>
<polygon fill="#4b8fc5" stroke="#4b8fc5" stroke-width="0.9" points="183.91,-43.5 189.67,-42.59 184.6,-39.71 183.91,-43.5"/>
</g>
</g>
</svg>
