<?xml version="1.0" encoding="UTF-8" standalone="no"?>
<!DOCTYPE svg PUBLIC "-//W3C//DTD SVG 1.1//EN"
 "http://www.w3.org/Graphics/SVG/1.1/DTD/svg11.dtd">
<!-- Generated by graphviz version 14.1.2 (0)
 -->
<!-- Title: embedded&#45;websocket&#45;v0.9.4 Pages: 1 -->
<svg width="635pt" height="909pt"
 viewBox="0.00 0.00 635.00 909.00" xmlns="http://www.w3.org/2000/svg" xmlns:xlink="http://www.w3.org/1999/xlink">
<g id="graph0" class="graph" transform="scale(1 1) rotate(0) translate(4 905.4)">
<title>embedded&#45;websocket&#45;v0.9.4</title>
<polygon fill="white" stroke="none" points="-4,4 -4,-905.4 630.88,-905.4 630.88,4 -4,4"/>
<!-- n0 -->
<g id="node1" class="node">
<title>n0</title>
<path fill="#dff3ff" stroke="#1b78a6" d="M179.22,-254.4C179.22,-254.4 12,-254.4 12,-254.4 6,-254.4 0,-248.4 0,-242.4 0,-242.4 0,-216 0,-216 0,-210 6,-204 12,-204 12,-204 179.22,-204 179.22,-204 185.22,-204 191.22,-210 191.22,-216 191.22,-216 191.22,-242.4 191.22,-242.4 191.22,-248.4 185.22,-254.4 179.22,-254.4"/>
<text xml:space="preserve" text-anchor="start" x="25.86" y="-235.85" font-family="Inter,Arial" font-weight="bold" font-size="13.00" fill="#172033">embedded&#45;websocket</text>
<text xml:space="preserve" text-anchor="start" x="82.49" y="-223.8" font-family="Inter,Arial" font-size="12.00" fill="#172033">0.9.4</text>
<text xml:space="preserve" text-anchor="start" x="9.36" y="-212.75" font-family="Inter,Arial" font-size="11.00" fill="#172033">/vendor/embedded&#45;websocket&#45;0.9.4</text>
</g>
<!-- n4 -->
<g id="node5" class="node">
<title>n4</title>
<path fill="#f7f9fb" stroke="#8b9bb0" d="M317.44,-463.9C317.44,-463.9 269.47,-463.9 269.47,-463.9 263.47,-463.9 257.47,-457.9 257.47,-451.9 257.47,-451.9 257.47,-436.5 257.47,-436.5 257.47,-430.5 263.47,-424.5 269.47,-424.5 269.47,-424.5 317.44,-424.5 317.44,-424.5 323.44,-424.5 329.44,-430.5 329.44,-436.5 329.44,-436.5 329.44,-451.9 329.44,-451.9 329.44,-457.9 323.44,-463.9 317.44,-463.9"/>
<text xml:space="preserve" text-anchor="start" x="266.83" y="-445.35" font-family="Inter,Arial" font-weight="bold" font-size="13.00" fill="#172033">httparse</text>
<text xml:space="preserve" text-anchor="start" x="276.96" y="-433.3" font-family="Inter,Arial" font-size="12.00" fill="#172033">1.10.1</text>
</g>
<!-- n0&#45;&gt;n4 -->
<g id="edge4" class="edge">
<title>n0&#45;&gt;n4</title>
<path fill="none" stroke="#9aa8b8" stroke-width="7.2" d="M110.37,-254.83C131.94,-293.08 176.89,-365.59 231.22,-412.2 235.88,-416.2 241.12,-419.88 246.53,-423.2"/>
<polygon fill="#9aa8b8" stroke="#9aa8b8" stroke-width="7.2" points="244.66,-426.12 251.15,-425.83 248.08,-420.1 244.66,-426.12"/>
</g>
<!-- out0 -->
<g id="node7" class="node">
<title>out0</title>
<polygon fill="#fff8e8" stroke="#d19922" points="335.82,-399.4 245.1,-399.4 245.1,-355 341.82,-355 341.82,-393.4 335.82,-399.4"/>
<polyline fill="none" stroke="#d19922" points="335.82,-399.4 335.82,-393.4"/>
<polyline fill="none" stroke="#d19922" points="341.82,-393.4 335.82,-393.4"/>
<text xml:space="preserve" text-anchor="start" x="254.46" y="-383.7" font-family="Inter,Arial" font-size="10.00" fill="#614000">to acpi&#45;v6.1.1.svg</text>
<text xml:space="preserve" text-anchor="start" x="271.33" y="-373.7" font-family="Inter,Arial" font-weight="bold" font-size="10.00" fill="#614000">byteorder</text>
<text xml:space="preserve" text-anchor="start" x="282.58" y="-363.7" font-family="Inter,Arial" font-size="10.00" fill="#614000">1.5.0</text>
</g>
<!-- n0&#45;&gt;out0 -->
<g id="edge5" class="edge">
<title>n0&#45;&gt;out0</title>
<path fill="none" stroke="#d19922" stroke-width="7.2" stroke-dasharray="5,2" d="M123.69,-254.9C150,-279.18 191.67,-315.86 231.22,-343.2 233.71,-344.92 236.3,-346.63 238.95,-348.32"/>
<polygon fill="#d19922" stroke="#d19922" stroke-width="7.2" points="237.05,-351.22 243.55,-351.13 240.66,-345.31 237.05,-351.22"/>
</g>
<!-- out2 -->
<g id="node9" class="node">
<title>out2</title>
<polygon fill="#fff8e8" stroke="#d19922" points="345.19,-330.4 235.72,-330.4 235.72,-276 351.19,-276 351.19,-324.4 345.19,-330.4"/>
<polyline fill="none" stroke="#d19922" points="345.19,-330.4 345.19,-324.4"/>
<polyline fill="none" stroke="#d19922" points="351.19,-324.4 345.19,-324.4"/>
<text xml:space="preserve" text-anchor="start" x="245.08" y="-314.7" font-family="Inter,Arial" font-size="10.00" fill="#614000">to base64&#45;v0.22.1.svg</text>
<text xml:space="preserve" text-anchor="start" x="277.33" y="-304.7" font-family="Inter,Arial" font-weight="bold" font-size="10.00" fill="#614000">base64</text>
<text xml:space="preserve" text-anchor="start" x="279.96" y="-294.7" font-family="Inter,Arial" font-size="10.00" fill="#614000">0.22.1</text>
<text xml:space="preserve" text-anchor="start" x="245.08" y="-284.7" font-family="Inter,Arial" font-size="10.00" fill="#614000">/vendor/base64&#45;0.22.1</text>
</g>
<!-- n0&#45;&gt;out2 -->
<g id="edge8" class="edge">
<title>n0&#45;&gt;out2</title>
<path fill="none" stroke="#d19922" stroke-width="7.2" stroke-dasharray="5,2" d="M164.56,-254.87C183.77,-262.13 204.68,-270.04 223.93,-277.31"/>
<polygon fill="#d19922" stroke="#d19922" stroke-width="7.2" points="222.67,-280.53 229.04,-279.24 225.12,-274.05 222.67,-280.53"/>
</g>
<!-- out3 -->
<g id="node10" class="node">
<title>out3</title>
<polygon fill="#fff8e8" stroke="#d19922" points="345.57,-251.4 235.35,-251.4 235.35,-207 351.57,-207 351.57,-245.4 345.57,-251.4"/>
<polyline fill="none" stroke="#d19922" points="345.57,-251.4 345.57,-245.4"/>
<polyline fill="none" stroke="#d19922" points="351.57,-245.4 345.57,-245.4"/>
<text xml:space="preserve" text-anchor="start" x="244.71" y="-235.7" font-family="Inter,Arial" font-size="10.00" fill="#614000">to crab&#45;usb&#45;v0.9.1.svg</text>
<text xml:space="preserve" text-anchor="start" x="277.33" y="-225.7" font-family="Inter,Arial" font-weight="bold" font-size="10.00" fill="#614000">futures</text>
<text xml:space="preserve" text-anchor="start" x="279.96" y="-215.7" font-family="Inter,Arial" font-size="10.00" fill="#614000">0.3.32</text>
</g>
<!-- n0&#45;&gt;out3 -->
<g id="edge9" class="edge">
<title>n0&#45;&gt;out3</title>
<path fill="none" stroke="#d19922" stroke-width="7.2" stroke-dasharray="5,2" d="M191.66,-229.2C202.2,-229.2 212.77,-229.2 222.9,-229.2"/>
<polygon fill="#d19922" stroke="#d19922" stroke-width="7.2" points="222.76,-232.67 228.26,-229.2 222.76,-225.74 222.76,-232.67"/>
</g>
<!-- out4 -->
<g id="node11" class="node">
<title>out4</title>
<polygon fill="#fff8e8" stroke="#d19922" points="346.32,-182.4 234.6,-182.4 234.6,-138 352.32,-138 352.32,-176.4 346.32,-182.4"/>
<polyline fill="none" stroke="#d19922" points="346.32,-182.4 346.32,-176.4"/>
<polyline fill="none" stroke="#d19922" points="352.32,-176.4 346.32,-176.4"/>
<text xml:space="preserve" text-anchor="start" x="243.96" y="-166.7" font-family="Inter,Arial" font-size="10.00" fill="#614000">to heapless&#45;v0.9.3.svg</text>
<text xml:space="preserve" text-anchor="start" x="272.83" y="-156.7" font-family="Inter,Arial" font-weight="bold" font-size="10.00" fill="#614000">heapless</text>
<text xml:space="preserve" text-anchor="start" x="282.58" y="-146.7" font-family="Inter,Arial" font-size="10.00" fill="#614000">0.9.3</text>
</g>
<!-- n0&#45;&gt;out4 -->
<g id="edge10" class="edge">
<title>n0&#45;&gt;out4</title>
<path fill="none" stroke="#d19922" stroke-width="7.2" stroke-dasharray="5,2" d="M169.54,-203.51C187.02,-197.35 205.65,-190.78 222.97,-184.68"/>
<polygon fill="#d19922" stroke="#d19922" stroke-width="7.2" points="223.74,-188.08 227.77,-182.99 221.43,-181.55 223.74,-188.08"/>
</g>
<!-- out5 -->
<g id="node12" class="node">
<title>out5</title>
<polygon fill="#fff8e8" stroke="#d19922" points="348.19,-113.4 232.72,-113.4 232.72,-69 354.19,-69 354.19,-107.4 348.19,-113.4"/>
<polyline fill="none" stroke="#d19922" points="348.19,-113.4 348.19,-107.4"/>
<polyline fill="none" stroke="#d19922" points="354.19,-107.4 348.19,-107.4"/>
<text xml:space="preserve" text-anchor="start" x="242.08" y="-97.7" font-family="Inter,Arial" font-size="10.00" fill="#614000">to rand_core&#45;v0.6.4.svg</text>
<text xml:space="preserve" text-anchor="start" x="270.21" y="-87.7" font-family="Inter,Arial" font-weight="bold" font-size="10.00" fill="#614000">rand_core</text>
<text xml:space="preserve" text-anchor="start" x="282.58" y="-77.7" font-family="Inter,Arial" font-size="10.00" fill="#614000">0.6.4</text>
</g>
<!-- n0&#45;&gt;out5 -->
<g id="edge11" class="edge">
<title>n0&#45;&gt;out5</title>
<path fill="none" stroke="#d19922" stroke-width="7.2" stroke-dasharray="5,2" d="M126.91,-203.66C153.57,-181.71 193.85,-149.81 231.22,-125.2 233.89,-123.44 236.66,-121.69 239.47,-119.95"/>
<polygon fill="#d19922" stroke="#d19922" stroke-width="7.2" points="241.05,-123.05 244,-117.25 237.5,-117.1 241.05,-123.05"/>
</g>
<!-- out6 -->
<g id="node13" class="node">
<title>out6</title>
<polygon fill="#fff8e8" stroke="#d19922" points="339.94,-44.4 240.97,-44.4 240.97,0 345.94,0 345.94,-38.4 339.94,-44.4"/>
<polyline fill="none" stroke="#d19922" points="339.94,-44.4 339.94,-38.4"/>
<polyline fill="none" stroke="#d19922" points="345.94,-38.4 339.94,-38.4"/>
<text xml:space="preserve" text-anchor="start" x="250.33" y="-28.7" font-family="Inter,Arial" font-size="10.00" fill="#614000">to sha1&#45;v0.10.6.svg</text>
<text xml:space="preserve" text-anchor="start" x="282.58" y="-18.7" font-family="Inter,Arial" font-weight="bold" font-size="10.00" fill="#614000">sha1</text>
<text xml:space="preserve" text-anchor="start" x="279.96" y="-8.7" font-family="Inter,Arial" font-size="10.00" fill="#614000">0.10.6</text>
</g>
<!-- n0&#45;&gt;out6 -->
<g id="edge12" class="edge">
<title>n0&#45;&gt;out6</title>
<path fill="none" stroke="#d19922" stroke-width="7.2" stroke-dasharray="5,2" d="M111.78,-203.69C134.28,-167.44 179.48,-100.51 231.22,-56.2 233.02,-54.66 234.9,-53.15 236.84,-51.69"/>
<polygon fill="#d19922" stroke="#d19922" stroke-width="7.2" points="238.81,-54.54 241.37,-48.56 234.87,-48.84 238.81,-54.54"/>
</g>
<!-- n1 -->
<g id="node2" class="node">
<title>n1</title>
<path fill="#f7f9fb" stroke="#8b9bb0" d="M480.41,-802.9C480.41,-802.9 407.69,-802.9 407.69,-802.9 401.69,-802.9 395.69,-796.9 395.69,-790.9 395.69,-790.9 395.69,-775.5 395.69,-775.5 395.69,-769.5 401.69,-763.5 407.69,-763.5 407.69,-763.5 480.41,-763.5 480.41,-763.5 486.41,-763.5 492.41,-769.5 492.41,-775.5 492.41,-775.5 492.41,-790.9 492.41,-790.9 492.41,-796.9 486.41,-802.9 480.41,-802.9"/>
<text xml:space="preserve" text-anchor="start" x="405.05" y="-784.35" font-family="Inter,Arial" font-weight="bold" font-size="13.00" fill="#172033">block&#45;buffer</text>
<text xml:space="preserve" text-anchor="start" x="427.55" y="-772.3" font-family="Inter,Arial" font-size="12.00" fill="#172033">0.10.4</text>
</g>
<!-- out1 -->
<g id="node8" class="node">
<title>out1</title>
<polygon fill="#fff8e8" stroke="#d19922" points="620.88,-786.4 532.41,-786.4 532.41,-722 626.88,-722 626.88,-780.4 620.88,-786.4"/>
<polyline fill="none" stroke="#d19922" points="620.88,-786.4 620.88,-780.4"/>
<polyline fill="none" stroke="#d19922" points="626.88,-780.4 620.88,-780.4"/>
<text xml:space="preserve" text-anchor="start" x="541.77" y="-770.7" font-family="Inter,Arial" font-size="10.00" fill="#614000">to aes&#45;v0.8.4.svg</text>
<text xml:space="preserve" text-anchor="start" x="549.27" y="-760.7" font-family="Inter,Arial" font-weight="bold" font-size="10.00" fill="#614000">generic&#45;array</text>
<text xml:space="preserve" text-anchor="start" x="566.14" y="-750.7" font-family="Inter,Arial" font-size="10.00" fill="#614000">0.14.7</text>
<text xml:space="preserve" text-anchor="start" x="542.89" y="-740.7" font-family="Inter,Arial" font-weight="bold" font-size="10.00" fill="#614000">crypto&#45;common</text>
<text xml:space="preserve" text-anchor="start" x="568.77" y="-730.7" font-family="Inter,Arial" font-size="10.00" fill="#614000">0.1.7</text>
</g>
<!-- n1&#45;&gt;out1 -->
<g id="edge6" class="edge">
<title>n1&#45;&gt;out1</title>
<path fill="none" stroke="#d19922" stroke-width="7.2" stroke-dasharray="5,2" d="M492.9,-772.81C501.75,-770.89 511.09,-768.87 520.21,-766.88"/>
<polygon fill="#d19922" stroke="#d19922" stroke-width="7.2" points="520.78,-770.31 525.42,-765.75 519.31,-763.53 520.78,-770.31"/>
</g>
<!-- n2 -->
<g id="node3" class="node">
<title>n2</title>
<path fill="#f7f9fb" stroke="#8b9bb0" d="M471.79,-680.9C471.79,-680.9 416.31,-680.9 416.31,-680.9 410.31,-680.9 404.31,-674.9 404.31,-668.9 404.31,-668.9 404.31,-653.5 404.31,-653.5 404.31,-647.5 410.31,-641.5 416.31,-641.5 416.31,-641.5 471.79,-641.5 471.79,-641.5 477.79,-641.5 483.79,-647.5 483.79,-653.5 483.79,-653.5 483.79,-668.9 483.79,-668.9 483.79,-674.9 477.79,-680.9 471.79,-680.9"/>
<text xml:space="preserve" text-anchor="start" x="413.68" y="-662.35" font-family="Inter,Arial" font-weight="bold" font-size="13.00" fill="#172033">const&#45;oid</text>
<text xml:space="preserve" text-anchor="start" x="430.93" y="-650.3" font-family="Inter,Arial" font-size="12.00" fill="#172033">0.9.6</text>
</g>
<!-- n3 -->
<g id="node4" class="node">
<title>n3</title>
<path fill="#f7f9fb" stroke="#8b9bb0" d="M310.69,-750.9C310.69,-750.9 276.22,-750.9 276.22,-750.9 270.22,-750.9 264.22,-744.9 264.22,-738.9 264.22,-738.9 264.22,-723.5 264.22,-723.5 264.22,-717.5 270.22,-711.5 276.22,-711.5 276.22,-711.5 310.69,-711.5 310.69,-711.5 316.69,-711.5 322.69,-717.5 322.69,-723.5 322.69,-723.5 322.69,-738.9 322.69,-738.9 322.69,-744.9 316.69,-750.9 310.69,-750.9"/>
<text xml:space="preserve" text-anchor="start" x="273.58" y="-732.35" font-family="Inter,Arial" font-weight="bold" font-size="13.00" fill="#172033">digest</text>
<text xml:space="preserve" text-anchor="start" x="276.96" y="-720.3" font-family="Inter,Arial" font-size="12.00" fill="#172033">0.10.7</text>
</g>
<!-- n3&#45;&gt;n1 -->
<g id="edge1" class="edge">
<title>n3&#45;&gt;n1</title>
<path fill="none" stroke="#9aa8b8" stroke-width="7.2" d="M323.11,-741.23C340.33,-747.25 362.89,-755.15 383.79,-762.46"/>
<polygon fill="#9aa8b8" stroke="#9aa8b8" stroke-width="7.2" points="382.48,-765.67 388.82,-764.22 384.77,-759.13 382.48,-765.67"/>
</g>
<!-- n3&#45;&gt;n2 -->
<g id="edge2" class="edge">
<title>n3&#45;&gt;n2</title>
<path fill="none" stroke="#9aa8b8" stroke-width="7.2" d="M323.11,-717.7C342.98,-708.34 369.97,-695.62 393.32,-684.63"/>
<polygon fill="#9aa8b8" stroke="#9aa8b8" stroke-width="7.2" points="394.48,-687.91 397.98,-682.43 391.53,-681.64 394.48,-687.91"/>
</g>
<!-- n5 -->
<g id="node6" class="node">
<title>n5</title>
<path fill="#f7f9fb" stroke="#8b9bb0" d="M461.29,-604.9C461.29,-604.9 426.81,-604.9 426.81,-604.9 420.81,-604.9 414.81,-598.9 414.81,-592.9 414.81,-592.9 414.81,-577.5 414.81,-577.5 414.81,-571.5 420.81,-565.5 426.81,-565.5 426.81,-565.5 461.29,-565.5 461.29,-565.5 467.29,-565.5 473.29,-571.5 473.29,-577.5 473.29,-577.5 473.29,-592.9 473.29,-592.9 473.29,-598.9 467.29,-604.9 461.29,-604.9"/>
<text xml:space="preserve" text-anchor="start" x="424.18" y="-586.35" font-family="Inter,Arial" font-weight="bold" font-size="13.00" fill="#172033">subtle</text>
<text xml:space="preserve" text-anchor="start" x="430.93" y="-574.3" font-family="Inter,Arial" font-size="12.00" fill="#172033">2.6.1</text>
</g>
<!-- n3&#45;&gt;n5 -->
<g id="edge3" class="edge">
<title>n3&#45;&gt;n5</title>
<path fill="none" stroke="#9aa8b8" stroke-width="7.2" d="M323.16,-716.46C334.13,-709.97 346.25,-701.65 355.69,-692.2 379.13,-668.73 374.48,-654.7 395.69,-629.2 400.2,-623.78 405.34,-618.38 410.54,-613.3"/>
<polygon fill="#9aa8b8" stroke="#9aa8b8" stroke-width="7.2" points="412.68,-616.05 414.31,-609.76 407.93,-611 412.68,-616.05"/>
</g>
<!-- n3&#45;&gt;out1 -->
<g id="edge7" class="edge">
<title>n3&#45;&gt;out1</title>
<path fill="none" stroke="#d19922" stroke-width="7.2" stroke-dasharray="5,2" d="M323.01,-733.51C368.9,-737.22 460,-744.6 520.13,-749.46"/>
<polygon fill="#d19922" stroke="#d19922" stroke-width="7.2" points="519.6,-752.9 525.36,-749.89 520.16,-745.99 519.6,-752.9"/>
</g>
<!-- in7 -->
<g id="node14" class="node">
<title>in7</title>
<polygon fill="#eef6ff" stroke="#4b8fc5" points="149.22,-763.4 36,-763.4 36,-719 155.22,-719 155.22,-757.4 149.22,-763.4"/>
<polyline fill="none" stroke="#4b8fc5" points="149.22,-763.4 149.22,-757.4"/>
<polyline fill="none" stroke="#4b8fc5" points="155.22,-757.4 149.22,-757.4"/>
<text xml:space="preserve" text-anchor="start" x="45.36" y="-747.7" font-family="Inter,Arial" font-size="10.00" fill="#123d5c">from hmac&#45;v0.12.1.svg</text>
<text xml:space="preserve" text-anchor="start" x="81.36" y="-737.7" font-family="Inter,Arial" font-weight="bold" font-size="10.00" fill="#123d5c">digest</text>
<text xml:space="preserve" text-anchor="start" x="82.11" y="-727.7" font-family="Inter,Arial" font-size="10.00" fill="#123d5c">0.10.7</text>
</g>
<!-- in7&#45;&gt;n3 -->
<g id="edge13" class="edge">
<title>in7&#45;&gt;n3</title>
<path fill="none" stroke="#4b8fc5" stroke-width="7.2" stroke-dasharray="5,2" d="M155.64,-738.19C186.69,-736.6 223.99,-734.7 251.79,-733.28"/>
<polygon fill="#4b8fc5" stroke="#4b8fc5" stroke-width="7.2" points="251.78,-736.75 257.09,-733.01 251.42,-729.83 251.78,-736.75"/>
</g>
<!-- in8 -->
<g id="node15" class="node">
<title>in8</title>
<polygon fill="#eef6ff" stroke="#4b8fc5" points="146.59,-466.4 38.63,-466.4 38.63,-422 152.59,-422 152.59,-460.4 146.59,-466.4"/>
<polyline fill="none" stroke="#4b8fc5" points="146.59,-466.4 146.59,-460.4"/>
<polyline fill="none" stroke="#4b8fc5" points="152.59,-460.4 146.59,-460.4"/>
<text xml:space="preserve" text-anchor="start" x="47.99" y="-450.7" font-family="Inter,Arial" font-size="10.00" fill="#123d5c">from hyper&#45;v1.9.0.svg</text>
<text xml:space="preserve" text-anchor="start" x="76.86" y="-440.7" font-family="Inter,Arial" font-weight="bold" font-size="10.00" fill="#123d5c">httparse</text>
<text xml:space="preserve" text-anchor="start" x="82.11" y="-430.7" font-family="Inter,Arial" font-size="10.00" fill="#123d5c">1.10.1</text>
</g>
<!-- in8&#45;&gt;n4 -->
<g id="edge14" class="edge">
<title>in8&#45;&gt;n4</title>
<path fill="none" stroke="#4b8fc5" stroke-width="7.2" stroke-dasharray="5,2" d="M152.99,-444.2C182.1,-444.2 217.21,-444.2 244.92,-444.2"/>
<polygon fill="#4b8fc5" stroke="#4b8fc5" stroke-width="7.2" points="244.83,-447.67 250.33,-444.2 244.83,-440.74 244.83,-447.67"/>
</g>
<!-- in9 -->
<g id="node16" class="node">
<title>in9</title>
<polygon fill="#eef6ff" stroke="#4b8fc5" points="143.97,-605.4 41.25,-605.4 41.25,-521 149.97,-521 149.97,-599.4 143.97,-605.4"/>
<polyline fill="none" stroke="#4b8fc5" points="143.97,-605.4 143.97,-599.4"/>
<polyline fill="none" stroke="#4b8fc5" points="149.97,-599.4 143.97,-599.4"/>
<text xml:space="preserve" text-anchor="start" x="50.61" y="-589.7" font-family="Inter,Arial" font-size="10.00" fill="#123d5c">from rsa&#45;v0.9.10.svg</text>
<text xml:space="preserve" text-anchor="start" x="73.86" y="-579.7" font-family="Inter,Arial" font-weight="bold" font-size="10.00" fill="#123d5c">const&#45;oid</text>
<text xml:space="preserve" text-anchor="start" x="84.74" y="-569.7" font-family="Inter,Arial" font-size="10.00" fill="#123d5c">0.9.6</text>
<text xml:space="preserve" text-anchor="start" x="81.36" y="-559.7" font-family="Inter,Arial" font-weight="bold" font-size="10.00" fill="#123d5c">digest</text>
<text xml:space="preserve" text-anchor="start" x="82.11" y="-549.7" font-family="Inter,Arial" font-size="10.00" fill="#123d5c">0.10.7</text>
<text xml:space="preserve" text-anchor="start" x="81.36" y="-539.7" font-family="Inter,Arial" font-weight="bold" font-size="10.00" fill="#123d5c">subtle</text>
<text xml:space="preserve" text-anchor="start" x="84.74" y="-529.7" font-family="Inter,Arial" font-size="10.00" fill="#123d5c">2.6.1</text>
</g>
<!-- in9&#45;&gt;n2 -->
<g id="edge15" class="edge">
<title>in9&#45;&gt;n2</title>
<path fill="none" stroke="#4b8fc5" stroke-width="7.2" stroke-dasharray="5,2" d="M150.36,-578.4C216.47,-597.11 327.85,-628.61 392.47,-646.89"/>
<polygon fill="#4b8fc5" stroke="#4b8fc5" stroke-width="7.2" points="391.24,-650.14 397.47,-648.31 393.12,-643.48 391.24,-650.14"/>
</g>
<!-- in9&#45;&gt;n3 -->
<g id="edge16" class="edge">
<title>in9&#45;&gt;n3</title>
<path fill="none" stroke="#4b8fc5" stroke-width="7.2" stroke-dasharray="5,2" d="M150.15,-589.74C164.11,-597.72 178.74,-607.07 191.22,-617.2 222.11,-642.26 251.62,-677.19 270.73,-701.76"/>
<polygon fill="#4b8fc5" stroke="#4b8fc5" stroke-width="7.2" points="267.81,-703.65 273.9,-705.91 273.31,-699.44 267.81,-703.65"/>
</g>
<!-- in9&#45;&gt;n5 -->
<g id="edge17" class="edge">
<title>in9&#45;&gt;n5</title>
<path fill="none" stroke="#4b8fc5" stroke-width="7.2" stroke-dasharray="5,2" d="M150.24,-542.63C203.36,-525.28 286.56,-506.34 355.69,-527.2 376.04,-533.34 396,-545.95 411.69,-557.84"/>
<polygon fill="#4b8fc5" stroke="#4b8fc5" stroke-width="7.2" points="409.11,-560.22 415.58,-560.91 413.41,-554.78 409.11,-560.22"/>
</g>
<!-- in10 -->
<g id="node17" class="node">
<title>in10</title>
<polygon fill="#eef6ff" stroke="#4b8fc5" points="182.97,-694.4 2.25,-694.4 2.25,-630 188.97,-630 188.97,-688.4 182.97,-694.4"/>
<polyline fill="none" stroke="#4b8fc5" points="182.97,-694.4 182.97,-688.4"/>
<polyline fill="none" stroke="#4b8fc5" points="188.97,-688.4 182.97,-688.4"/>
<text xml:space="preserve" text-anchor="start" x="11.61" y="-678.7" font-family="Inter,Arial" font-size="10.00" fill="#123d5c">from rustls&#45;rustcrypto&#45;v0.0.2&#45;alpha.svg</text>
<text xml:space="preserve" text-anchor="start" x="81.36" y="-668.7" font-family="Inter,Arial" font-weight="bold" font-size="10.00" fill="#123d5c">subtle</text>
<text xml:space="preserve" text-anchor="start" x="84.74" y="-658.7" font-family="Inter,Arial" font-size="10.00" fill="#123d5c">2.6.1</text>
<text xml:space="preserve" text-anchor="start" x="81.36" y="-648.7" font-family="Inter,Arial" font-weight="bold" font-size="10.00" fill="#123d5c">digest</text>
<text xml:space="preserve" text-anchor="start" x="82.11" y="-638.7" font-family="Inter,Arial" font-size="10.00" fill="#123d5c">0.10.7</text>
</g>
<!-- in10&#45;&gt;n3 -->
<g id="edge18" class="edge">
<title>in10&#45;&gt;n3</title>
<path fill="none" stroke="#4b8fc5" stroke-width="7.2" stroke-dasharray="5,2" d="M189.37,-694.88C211.59,-702.71 234.17,-710.67 252.51,-717.13"/>
<polygon fill="#4b8fc5" stroke="#4b8fc5" stroke-width="7.2" points="251.19,-720.34 257.53,-718.9 253.49,-713.8 251.19,-720.34"/>
</g>
<!-- in10&#45;&gt;n5 -->
<g id="edge19" class="edge">
<title>in10&#45;&gt;n5</title>
<path fill="none" stroke="#4b8fc5" stroke-width="7.2" stroke-dasharray="5,2" d="M189.45,-641.57C259.03,-626.1 350.85,-605.69 402.76,-594.16"/>
<polygon fill="#4b8fc5" stroke="#4b8fc5" stroke-width="7.2" points="403.23,-597.6 407.85,-593.02 401.73,-590.84 403.23,-597.6"/>
</g>
<!-- in11 -->
<g id="node18" class="node">
<title>in11</title>
<polygon fill="#eef6ff" stroke="#4b8fc5" points="349.69,-584.4 231.22,-584.4 231.22,-540 355.69,-540 355.69,-578.4 349.69,-584.4"/>
<polyline fill="none" stroke="#4b8fc5" points="349.69,-584.4 349.69,-578.4"/>
<polyline fill="none" stroke="#4b8fc5" points="355.69,-578.4 349.69,-578.4"/>
<text xml:space="preserve" text-anchor="start" x="240.58" y="-568.7" font-family="Inter,Arial" font-size="10.00" fill="#123d5c">from rustls&#45;v0.23.41.svg</text>
<text xml:space="preserve" text-anchor="start" x="279.21" y="-558.7" font-family="Inter,Arial" font-weight="bold" font-size="10.00" fill="#123d5c">subtle</text>
<text xml:space="preserve" text-anchor="start" x="282.58" y="-548.7" font-family="Inter,Arial" font-size="10.00" fill="#123d5c">2.6.1</text>
</g>
<!-- in11&#45;&gt;n5 -->
<g id="edge20" class="edge">
<title>in11&#45;&gt;n5</title>
<path fill="none" stroke="#4b8fc5" stroke-width="7.2" stroke-dasharray="5,2" d="M356.18,-571.75C371.85,-574.18 388.28,-576.72 402.58,-578.94"/>
<polygon fill="#4b8fc5" stroke="#4b8fc5" stroke-width="7.2" points="401.9,-582.34 407.86,-579.75 402.96,-575.49 401.9,-582.34"/>
</g>
<!-- in12 -->
<g id="node19" class="node">
<title>in12</title>
<polygon fill="#eef6ff" stroke="#4b8fc5" points="147.72,-901.4 37.5,-901.4 37.5,-857 153.72,-857 153.72,-895.4 147.72,-901.4"/>
<polyline fill="none" stroke="#4b8fc5" points="147.72,-901.4 147.72,-895.4"/>
<polyline fill="none" stroke="#4b8fc5" points="153.72,-895.4 147.72,-895.4"/>
<text xml:space="preserve" text-anchor="start" x="46.86" y="-885.7" font-family="Inter,Arial" font-size="10.00" fill="#123d5c">from sha1&#45;v0.10.6.svg</text>
<text xml:space="preserve" text-anchor="start" x="81.36" y="-875.7" font-family="Inter,Arial" font-weight="bold" font-size="10.00" fill="#123d5c">digest</text>
<text xml:space="preserve" text-anchor="start" x="82.11" y="-865.7" font-family="Inter,Arial" font-size="10.00" fill="#123d5c">0.10.7</text>
</g>
<!-- in12&#45;&gt;n3 -->
<g id="edge21" class="edge">
<title>in12&#45;&gt;n3</title>
<path fill="none" stroke="#4b8fc5" stroke-width="7.2" stroke-dasharray="5,2" d="M153.87,-863.81C166.76,-858.97 179.94,-852.83 191.22,-845.2 224.55,-822.65 254,-786.67 272.42,-761.17"/>
<polygon fill="#4b8fc5" stroke="#4b8fc5" stroke-width="7.2" points="275.16,-763.3 275.5,-756.81 269.5,-759.31 275.16,-763.3"/>
</g>
<!-- in13 -->
<g id="node20" class="node">
<title>in13</title>
<polygon fill="#eef6ff" stroke="#4b8fc5" points="147.72,-832.4 37.5,-832.4 37.5,-788 153.72,-788 153.72,-826.4 147.72,-832.4"/>
<polyline fill="none" stroke="#4b8fc5" points="147.72,-832.4 147.72,-826.4"/>
<polyline fill="none" stroke="#4b8fc5" points="153.72,-826.4 147.72,-826.4"/>
<text xml:space="preserve" text-anchor="start" x="46.86" y="-816.7" font-family="Inter,Arial" font-size="10.00" fill="#123d5c">from sha2&#45;v0.10.9.svg</text>
<text xml:space="preserve" text-anchor="start" x="81.36" y="-806.7" font-family="Inter,Arial" font-weight="bold" font-size="10.00" fill="#123d5c">digest</text>
<text xml:space="preserve" text-anchor="start" x="82.11" y="-796.7" font-family="Inter,Arial" font-size="10.00" fill="#123d5c">0.10.7</text>
</g>
<!-- in13&#45;&gt;n3 -->
<g id="edge22" class="edge">
<title>in13&#45;&gt;n3</title>
<path fill="none" stroke="#4b8fc5" stroke-width="7.2" stroke-dasharray="5,2" d="M154.15,-790.28C166.45,-785.81 179.31,-780.98 191.22,-776.2 211.77,-767.95 234.3,-758.03 252.89,-749.59"/>
<polygon fill="#4b8fc5" stroke="#4b8fc5" stroke-width="7.2" points="254.19,-752.81 257.75,-747.37 251.31,-746.51 254.19,-752.81"/>
</g>
</g>
</svg>
