<?xml version="1.0" encoding="UTF-8" standalone="no"?>
<!DOCTYPE svg PUBLIC "-//W3C//DTD SVG 1.1//EN"
 "http://www.w3.org/Graphics/SVG/1.1/DTD/svg11.dtd">
<!-- Generated by graphviz version 14.1.2 (0)
 -->
<!-- Title: embedded&#45;websocket&#45;v0.9.4 Pages: 1 -->
<svg width="1251pt" height="863pt"
 viewBox="0.00 0.00 1251.00 863.00" xmlns="http://www.w3.org/2000/svg" xmlns:xlink="http://www.w3.org/1999/xlink">
<g id="graph0" class="graph" transform="scale(1 1) rotate(0) translate(4 859.23)">
<title>embedded&#45;websocket&#45;v0.9.4</title>
<polygon fill="white" stroke="none" points="-4,4 -4,-859.23 1246.54,-859.23 1246.54,4 -4,4"/>
<!-- n0 -->
<g id="node1" class="node">
<title>n0</title>
<path fill="#dff3ff" stroke="#1b78a6" d="M340.69,-644.23C340.69,-644.23 173.47,-644.23 173.47,-644.23 167.47,-644.23 161.47,-638.23 161.47,-632.23 161.47,-632.23 161.47,-605.83 161.47,-605.83 161.47,-599.83 167.47,-593.83 173.47,-593.83 173.47,-593.83 340.69,-593.83 340.69,-593.83 346.69,-593.83 352.69,-599.83 352.69,-605.83 352.69,-605.83 352.69,-632.23 352.69,-632.23 352.69,-638.23 346.69,-644.23 340.69,-644.23"/>
<text xml:space="preserve" text-anchor="start" x="187.33" y="-625.68" font-family="Inter,Arial" font-weight="bold" font-size="13.00" fill="#172033">embedded&#45;websocket</text>
<text xml:space="preserve" text-anchor="start" x="243.95" y="-613.63" font-family="Inter,Arial" font-size="12.00" fill="#172033">0.9.4</text>
<text xml:space="preserve" text-anchor="start" x="170.83" y="-602.58" font-family="Inter,Arial" font-size="11.00" fill="#172033">/vendor/embedded&#45;websocket&#45;0.9.4</text>
</g>
<!-- n1 -->
<g id="node2" class="node">
<title>n1</title>
<path fill="#fff0d5" stroke="#c47a1a" d="M537.41,-852.23C537.41,-852.23 434.69,-852.23 434.69,-852.23 428.69,-852.23 422.69,-846.23 422.69,-840.23 422.69,-840.23 422.69,-813.83 422.69,-813.83 422.69,-807.83 428.69,-801.83 434.69,-801.83 434.69,-801.83 537.41,-801.83 537.41,-801.83 543.41,-801.83 549.41,-807.83 549.41,-813.83 549.41,-813.83 549.41,-840.23 549.41,-840.23 549.41,-846.23 543.41,-852.23 537.41,-852.23"/>
<text xml:space="preserve" text-anchor="start" x="463.17" y="-833.68" font-family="Inter,Arial" font-weight="bold" font-size="13.00" fill="#172033">base64</text>
<text xml:space="preserve" text-anchor="start" x="469.55" y="-821.63" font-family="Inter,Arial" font-size="12.00" fill="#172033">0.22.1</text>
<text xml:space="preserve" text-anchor="start" x="432.05" y="-810.58" font-family="Inter,Arial" font-size="11.00" fill="#172033">/vendor/base64&#45;0.22.1</text>
</g>
<!-- n0&#45;&gt;n1 -->
<g id="edge7" class="edge">
<title>n0&#45;&gt;n1</title>
<path fill="none" stroke="#9aa8b8" stroke-width="7.2" d="M285.52,-644.73C305.42,-664.11 332.29,-691.91 352.69,-719.03 373.76,-747.06 366.42,-763.81 392.69,-787.03 398.36,-792.05 404.76,-796.51 411.47,-800.46"/>
<polygon fill="#9aa8b8" stroke="#9aa8b8" stroke-width="7.2" points="409.79,-803.49 416.28,-803.05 413.08,-797.39 409.79,-803.49"/>
</g>
<!-- n8 -->
<g id="node9" class="node">
<title>n8</title>
<path fill="#f7f9fb" stroke="#8b9bb0" d="M510.03,-774.73C510.03,-774.73 462.06,-774.73 462.06,-774.73 456.06,-774.73 450.06,-768.73 450.06,-762.73 450.06,-762.73 450.06,-747.33 450.06,-747.33 450.06,-741.33 456.06,-735.33 462.06,-735.33 462.06,-735.33 510.03,-735.33 510.03,-735.33 516.03,-735.33 522.03,-741.33 522.03,-747.33 522.03,-747.33 522.03,-762.73 522.03,-762.73 522.03,-768.73 516.03,-774.73 510.03,-774.73"/>
<text xml:space="preserve" text-anchor="start" x="459.42" y="-756.18" font-family="Inter,Arial" font-weight="bold" font-size="13.00" fill="#172033">httparse</text>
<text xml:space="preserve" text-anchor="start" x="469.55" y="-744.13" font-family="Inter,Arial" font-size="12.00" fill="#172033">1.10.1</text>
</g>
<!-- n0&#45;&gt;n8 -->
<g id="edge8" class="edge">
<title>n0&#45;&gt;n8</title>
<path fill="none" stroke="#9aa8b8" stroke-width="7.2" d="M285.6,-644.66C311.57,-667.73 352.42,-701.26 392.69,-723.03 406.82,-730.68 423.14,-737.04 438.09,-742.03"/>
<polygon fill="#9aa8b8" stroke="#9aa8b8" stroke-width="7.2" points="436.99,-745.32 443.28,-743.69 439.09,-738.71 436.99,-745.32"/>
</g>
<!-- n9 -->
<g id="node10" class="node">
<title>n9</title>
<path fill="#f7f9fb" stroke="#8b9bb0" d="M501.05,-571.73C501.05,-571.73 471.05,-571.73 471.05,-571.73 465.05,-571.73 459.05,-565.73 459.05,-559.73 459.05,-559.73 459.05,-544.33 459.05,-544.33 459.05,-538.33 465.05,-532.33 471.05,-532.33 471.05,-532.33 501.05,-532.33 501.05,-532.33 507.05,-532.33 513.05,-538.33 513.05,-544.33 513.05,-544.33 513.05,-559.73 513.05,-559.73 513.05,-565.73 507.05,-571.73 501.05,-571.73"/>
<text xml:space="preserve" text-anchor="start" x="470.67" y="-553.18" font-family="Inter,Arial" font-weight="bold" font-size="13.00" fill="#172033">sha1</text>
<text xml:space="preserve" text-anchor="start" x="469.55" y="-541.13" font-family="Inter,Arial" font-size="12.00" fill="#172033">0.10.6</text>
</g>
<!-- n0&#45;&gt;n9 -->
<g id="edge9" class="edge">
<title>n0&#45;&gt;n9</title>
<path fill="none" stroke="#9aa8b8" stroke-width="7.2" d="M344.86,-593.42C380.18,-582.99 419.16,-571.48 447.03,-563.26"/>
<polygon fill="#9aa8b8" stroke="#9aa8b8" stroke-width="7.2" points="447.86,-566.63 452.15,-561.75 445.89,-559.98 447.86,-566.63"/>
</g>
<!-- out0 -->
<g id="node13" class="node">
<title>out0</title>
<polygon fill="#fff8e8" stroke="#d19922" points="528.41,-507.23 437.69,-507.23 437.69,-462.83 534.41,-462.83 534.41,-501.23 528.41,-507.23"/>
<polyline fill="none" stroke="#d19922" points="528.41,-507.23 528.41,-501.23"/>
<polyline fill="none" stroke="#d19922" points="534.41,-501.23 528.41,-501.23"/>
<text xml:space="preserve" text-anchor="start" x="447.05" y="-491.53" font-family="Inter,Arial" font-size="10.00" fill="#614000">to acpi&#45;v6.1.1.svg</text>
<text xml:space="preserve" text-anchor="start" x="463.92" y="-481.53" font-family="Inter,Arial" font-weight="bold" font-size="10.00" fill="#614000">byteorder</text>
<text xml:space="preserve" text-anchor="start" x="475.17" y="-471.53" font-family="Inter,Arial" font-size="10.00" fill="#614000">1.5.0</text>
</g>
<!-- n0&#45;&gt;out0 -->
<g id="edge12" class="edge">
<title>n0&#45;&gt;out0</title>
<path fill="none" stroke="#d19922" stroke-width="7.2" stroke-dasharray="5,2" d="M287.76,-593.51C314.03,-571.85 354.08,-541.03 392.69,-520.03 403.2,-514.32 414.83,-509.12 426.21,-504.58"/>
<polygon fill="#d19922" stroke="#d19922" stroke-width="7.2" points="427.24,-507.89 431.13,-502.69 424.76,-501.42 427.24,-507.89"/>
</g>
<!-- out2 -->
<g id="node15" class="node">
<title>out2</title>
<polygon fill="#fff8e8" stroke="#d19922" points="538.16,-438.23 427.94,-438.23 427.94,-333.83 544.16,-333.83 544.16,-432.23 538.16,-438.23"/>
<polyline fill="none" stroke="#d19922" points="538.16,-438.23 538.16,-432.23"/>
<polyline fill="none" stroke="#d19922" points="544.16,-432.23 538.16,-432.23"/>
<text xml:space="preserve" text-anchor="start" x="437.3" y="-422.53" font-family="Inter,Arial" font-size="10.00" fill="#614000">to crab&#45;usb&#45;v0.9.1.svg</text>
<text xml:space="preserve" text-anchor="start" x="469.92" y="-412.53" font-family="Inter,Arial" font-weight="bold" font-size="10.00" fill="#614000">futures</text>
<text xml:space="preserve" text-anchor="start" x="472.55" y="-402.53" font-family="Inter,Arial" font-size="10.00" fill="#614000">0.3.32</text>
<text xml:space="preserve" text-anchor="start" x="456.8" y="-392.53" font-family="Inter,Arial" font-weight="bold" font-size="10.00" fill="#614000">proc&#45;macro2</text>
<text xml:space="preserve" text-anchor="start" x="469.92" y="-382.53" font-family="Inter,Arial" font-size="10.00" fill="#614000">1.0.106</text>
<text xml:space="preserve" text-anchor="start" x="472.92" y="-372.53" font-family="Inter,Arial" font-weight="bold" font-size="10.00" fill="#614000">quote</text>
<text xml:space="preserve" text-anchor="start" x="472.55" y="-362.53" font-family="Inter,Arial" font-size="10.00" fill="#614000">1.0.46</text>
<text xml:space="preserve" text-anchor="start" x="477.8" y="-352.53" font-family="Inter,Arial" font-weight="bold" font-size="10.00" fill="#614000">syn</text>
<text xml:space="preserve" text-anchor="start" x="469.92" y="-342.53" font-family="Inter,Arial" font-size="10.00" fill="#614000">2.0.118</text>
</g>
<!-- n0&#45;&gt;out2 -->
<g id="edge14" class="edge">
<title>n0&#45;&gt;out2</title>
<path fill="none" stroke="#d19922" stroke-width="7.2" stroke-dasharray="5,2" d="M274.97,-593.35C298.68,-558.46 344.34,-495.26 392.69,-450.03 400.54,-442.69 409.28,-435.55 418.18,-428.86"/>
<polygon fill="#d19922" stroke="#d19922" stroke-width="7.2" points="420,-431.81 422.4,-425.77 415.91,-426.22 420,-431.81"/>
</g>
<!-- out3 -->
<g id="node16" class="node">
<title>out3</title>
<polygon fill="#fff8e8" stroke="#d19922" points="538.91,-710.23 427.19,-710.23 427.19,-665.83 544.91,-665.83 544.91,-704.23 538.91,-710.23"/>
<polyline fill="none" stroke="#d19922" points="538.91,-710.23 538.91,-704.23"/>
<polyline fill="none" stroke="#d19922" points="544.91,-704.23 538.91,-704.23"/>
<text xml:space="preserve" text-anchor="start" x="436.55" y="-694.53" font-family="Inter,Arial" font-size="10.00" fill="#614000">to heapless&#45;v0.9.3.svg</text>
<text xml:space="preserve" text-anchor="start" x="465.42" y="-684.53" font-family="Inter,Arial" font-weight="bold" font-size="10.00" fill="#614000">heapless</text>
<text xml:space="preserve" text-anchor="start" x="475.17" y="-674.53" font-family="Inter,Arial" font-size="10.00" fill="#614000">0.9.3</text>
</g>
<!-- n0&#45;&gt;out3 -->
<g id="edge16" class="edge">
<title>n0&#45;&gt;out3</title>
<path fill="none" stroke="#d19922" stroke-width="7.2" stroke-dasharray="5,2" d="M342.6,-644.73C366.64,-652.04 392.54,-659.91 415.58,-666.91"/>
<polygon fill="#d19922" stroke="#d19922" stroke-width="7.2" points="414.26,-670.13 420.53,-668.42 416.27,-663.5 414.26,-670.13"/>
</g>
<!-- out4 -->
<g id="node17" class="node">
<title>out4</title>
<polygon fill="#fff8e8" stroke="#d19922" points="540.78,-641.23 425.31,-641.23 425.31,-596.83 546.78,-596.83 546.78,-635.23 540.78,-641.23"/>
<polyline fill="none" stroke="#d19922" points="540.78,-641.23 540.78,-635.23"/>
<polyline fill="none" stroke="#d19922" points="546.78,-635.23 540.78,-635.23"/>
<text xml:space="preserve" text-anchor="start" x="434.67" y="-625.53" font-family="Inter,Arial" font-size="10.00" fill="#614000">to rand_core&#45;v0.6.4.svg</text>
<text xml:space="preserve" text-anchor="start" x="462.8" y="-615.53" font-family="Inter,Arial" font-weight="bold" font-size="10.00" fill="#614000">rand_core</text>
<text xml:space="preserve" text-anchor="start" x="475.17" y="-605.53" font-family="Inter,Arial" font-size="10.00" fill="#614000">0.6.4</text>
</g>
<!-- n0&#45;&gt;out4 -->
<g id="edge17" class="edge">
<title>n0&#45;&gt;out4</title>
<path fill="none" stroke="#d19922" stroke-width="7.2" stroke-dasharray="5,2" d="M353.02,-619.03C373.05,-619.03 393.87,-619.03 412.9,-619.03"/>
<polygon fill="#d19922" stroke="#d19922" stroke-width="7.2" points="412.86,-622.5 418.36,-619.03 412.86,-615.57 412.86,-622.5"/>
</g>
<!-- n2 -->
<g id="node3" class="node">
<title>n2</title>
<path fill="#f7f9fb" stroke="#8b9bb0" d="M879.85,-305.73C879.85,-305.73 807.13,-305.73 807.13,-305.73 801.13,-305.73 795.13,-299.73 795.13,-293.73 795.13,-293.73 795.13,-278.33 795.13,-278.33 795.13,-272.33 801.13,-266.33 807.13,-266.33 807.13,-266.33 879.85,-266.33 879.85,-266.33 885.85,-266.33 891.85,-272.33 891.85,-278.33 891.85,-278.33 891.85,-293.73 891.85,-293.73 891.85,-299.73 885.85,-305.73 879.85,-305.73"/>
<text xml:space="preserve" text-anchor="start" x="804.49" y="-287.18" font-family="Inter,Arial" font-weight="bold" font-size="13.00" fill="#172033">block&#45;buffer</text>
<text xml:space="preserve" text-anchor="start" x="826.99" y="-275.13" font-family="Inter,Arial" font-size="12.00" fill="#172033">0.10.4</text>
</g>
<!-- n7 -->
<g id="node8" class="node">
<title>n7</title>
<path fill="#f7f9fb" stroke="#8b9bb0" d="M1080.32,-201.61C1080.32,-201.61 955.1,-201.61 955.1,-201.61 949.1,-201.61 943.1,-195.61 943.1,-189.61 943.1,-189.61 943.1,-126.46 943.1,-126.46 943.1,-120.46 949.1,-114.46 955.1,-114.46 955.1,-114.46 1080.32,-114.46 1080.32,-114.46 1086.32,-114.46 1092.32,-120.46 1092.32,-126.46 1092.32,-126.46 1092.32,-189.61 1092.32,-189.61 1092.32,-195.61 1086.32,-201.61 1080.32,-201.61"/>
<text xml:space="preserve" text-anchor="start" x="974.96" y="-183.06" font-family="Inter,Arial" font-weight="bold" font-size="13.00" fill="#172033">generic&#45;array</text>
<text xml:space="preserve" text-anchor="start" x="1001.21" y="-168.01" font-family="Inter,Arial" font-size="12.00" fill="#172033">0.14.7</text>
<text xml:space="preserve" text-anchor="start" x="967.46" y="-140.71" font-family="Inter,Arial" font-weight="bold" font-size="11.00" fill="#172033">version_check</text>
<text xml:space="preserve" text-anchor="start" x="1043.21" y="-140.71" font-family="Inter,Arial" font-size="10.00" fill="#172033"> </text>
<text xml:space="preserve" text-anchor="start" x="1046.21" y="-140.71" font-family="Inter,Arial" font-size="10.00" fill="#172033">0.9.5</text>
<path fill="none" stroke="#9aa8b8" d="M968.96,-127.66C968.96,-127.66 1066.46,-127.66 1066.46,-127.66 1071.71,-127.66 1076.96,-132.91 1076.96,-138.16 1076.96,-138.16 1076.96,-148.66 1076.96,-148.66 1076.96,-153.91 1071.71,-159.16 1066.46,-159.16 1066.46,-159.16 968.96,-159.16 968.96,-159.16 963.71,-159.16 958.46,-153.91 958.46,-148.66 958.46,-148.66 958.46,-138.16 958.46,-138.16 958.46,-132.91 963.71,-127.66 968.96,-127.66"/>
</g>
<!-- n2&#45;&gt;n7 -->
<g id="edge1" class="edge">
<title>n2&#45;&gt;n7</title>
<path fill="none" stroke="#9aa8b8" stroke-width="7.2" d="M883.92,-265.93C890.47,-262.2 897.07,-258.16 903.1,-254.03 922.51,-240.73 942.5,-224.74 960.19,-209.66"/>
<polygon fill="#9aa8b8" stroke="#9aa8b8" stroke-width="7.2" points="962.2,-212.5 964.1,-206.28 957.67,-207.25 962.2,-212.5"/>
</g>
<!-- n3 -->
<g id="node4" class="node">
<title>n3</title>
<path fill="#f7f9fb" stroke="#8b9bb0" d="M871.23,-241.73C871.23,-241.73 815.75,-241.73 815.75,-241.73 809.75,-241.73 803.75,-235.73 803.75,-229.73 803.75,-229.73 803.75,-214.33 803.75,-214.33 803.75,-208.33 809.75,-202.33 815.75,-202.33 815.75,-202.33 871.23,-202.33 871.23,-202.33 877.23,-202.33 883.23,-208.33 883.23,-214.33 883.23,-214.33 883.23,-229.73 883.23,-229.73 883.23,-235.73 877.23,-241.73 871.23,-241.73"/>
<text xml:space="preserve" text-anchor="start" x="813.12" y="-223.18" font-family="Inter,Arial" font-weight="bold" font-size="13.00" fill="#172033">const&#45;oid</text>
<text xml:space="preserve" text-anchor="start" x="830.37" y="-211.13" font-family="Inter,Arial" font-size="12.00" fill="#172033">0.9.6</text>
</g>
<!-- n4 -->
<g id="node5" class="node">
<title>n4</title>
<path fill="#f7f9fb" stroke="#8b9bb0" d="M717.25,-350.73C717.25,-350.73 646.03,-350.73 646.03,-350.73 640.03,-350.73 634.03,-344.73 634.03,-338.73 634.03,-338.73 634.03,-323.33 634.03,-323.33 634.03,-317.33 640.03,-311.33 646.03,-311.33 646.03,-311.33 717.25,-311.33 717.25,-311.33 723.25,-311.33 729.25,-317.33 729.25,-323.33 729.25,-323.33 729.25,-338.73 729.25,-338.73 729.25,-344.73 723.25,-350.73 717.25,-350.73"/>
<text xml:space="preserve" text-anchor="start" x="643.39" y="-332.18" font-family="Inter,Arial" font-weight="bold" font-size="13.00" fill="#172033">cpufeatures</text>
<text xml:space="preserve" text-anchor="start" x="665.14" y="-320.13" font-family="Inter,Arial" font-size="12.00" fill="#172033">0.2.17</text>
</g>
<!-- n5 -->
<g id="node6" class="node">
<title>n5</title>
<path fill="#f7f9fb" stroke="#8b9bb0" d="M891.1,-177.73C891.1,-177.73 795.88,-177.73 795.88,-177.73 789.88,-177.73 783.88,-171.73 783.88,-165.73 783.88,-165.73 783.88,-150.33 783.88,-150.33 783.88,-144.33 789.88,-138.33 795.88,-138.33 795.88,-138.33 891.1,-138.33 891.1,-138.33 897.1,-138.33 903.1,-144.33 903.1,-150.33 903.1,-150.33 903.1,-165.73 903.1,-165.73 903.1,-171.73 897.1,-177.73 891.1,-177.73"/>
<text xml:space="preserve" text-anchor="start" x="793.24" y="-159.18" font-family="Inter,Arial" font-weight="bold" font-size="13.00" fill="#172033">crypto&#45;common</text>
<text xml:space="preserve" text-anchor="start" x="830.37" y="-147.13" font-family="Inter,Arial" font-size="12.00" fill="#172033">0.1.7</text>
</g>
<!-- n5&#45;&gt;n7 -->
<g id="edge2" class="edge">
<title>n5&#45;&gt;n7</title>
<path fill="none" stroke="#9aa8b8" stroke-width="7.2" d="M903.28,-158.03C912.08,-158.03 921.32,-158.03 930.55,-158.03"/>
<polygon fill="#9aa8b8" stroke="#9aa8b8" stroke-width="7.2" points="930.4,-161.5 935.9,-158.03 930.4,-154.57 930.4,-161.5"/>
</g>
<!-- n6 -->
<g id="node7" class="node">
<title>n6</title>
<path fill="#f7f9fb" stroke="#8b9bb0" d="M698.88,-286.73C698.88,-286.73 664.41,-286.73 664.41,-286.73 658.41,-286.73 652.41,-280.73 652.41,-274.73 652.41,-274.73 652.41,-259.33 652.41,-259.33 652.41,-253.33 658.41,-247.33 664.41,-247.33 664.41,-247.33 698.88,-247.33 698.88,-247.33 704.88,-247.33 710.88,-253.33 710.88,-259.33 710.88,-259.33 710.88,-274.73 710.88,-274.73 710.88,-280.73 704.88,-286.73 698.88,-286.73"/>
<text xml:space="preserve" text-anchor="start" x="661.77" y="-268.18" font-family="Inter,Arial" font-weight="bold" font-size="13.00" fill="#172033">digest</text>
<text xml:space="preserve" text-anchor="start" x="665.14" y="-256.13" font-family="Inter,Arial" font-size="12.00" fill="#172033">0.10.7</text>
</g>
<!-- n6&#45;&gt;n2 -->
<g id="edge3" class="edge">
<title>n6&#45;&gt;n2</title>
<path fill="none" stroke="#9aa8b8" stroke-width="7.2" d="M711.22,-270.43C731.04,-272.79 758.17,-276.01 782.62,-278.92"/>
<polygon fill="#9aa8b8" stroke="#9aa8b8" stroke-width="7.2" points="782.15,-282.35 788.02,-279.56 782.97,-275.47 782.15,-282.35"/>
</g>
<!-- n6&#45;&gt;n3 -->
<g id="edge4" class="edge">
<title>n6&#45;&gt;n3</title>
<path fill="none" stroke="#9aa8b8" stroke-width="7.2" d="M711.22,-258.99C733.59,-252.69 765.27,-243.77 791.91,-236.27"/>
<polygon fill="#9aa8b8" stroke="#9aa8b8" stroke-width="7.2" points="792.5,-239.71 796.85,-234.88 790.62,-233.04 792.5,-239.71"/>
</g>
<!-- n6&#45;&gt;n5 -->
<g id="edge5" class="edge">
<title>n6&#45;&gt;n5</title>
<path fill="none" stroke="#9aa8b8" stroke-width="7.2" d="M706.85,-246.97C726.9,-230.77 756.45,-207.81 783.88,-190.03 786.9,-188.08 790.04,-186.13 793.24,-184.21"/>
<polygon fill="#9aa8b8" stroke="#9aa8b8" stroke-width="7.2" points="794.69,-187.37 797.7,-181.62 791.21,-181.38 794.69,-187.37"/>
</g>
<!-- n10 -->
<g id="node11" class="node">
<title>n10</title>
<path fill="#f7f9fb" stroke="#8b9bb0" d="M860.73,-113.73C860.73,-113.73 826.25,-113.73 826.25,-113.73 820.25,-113.73 814.25,-107.73 814.25,-101.73 814.25,-101.73 814.25,-86.33 814.25,-86.33 814.25,-80.33 820.25,-74.33 826.25,-74.33 826.25,-74.33 860.73,-74.33 860.73,-74.33 866.73,-74.33 872.73,-80.33 872.73,-86.33 872.73,-86.33 872.73,-101.73 872.73,-101.73 872.73,-107.73 866.73,-113.73 860.73,-113.73"/>
<text xml:space="preserve" text-anchor="start" x="823.62" y="-95.18" font-family="Inter,Arial" font-weight="bold" font-size="13.00" fill="#172033">subtle</text>
<text xml:space="preserve" text-anchor="start" x="830.37" y="-83.13" font-family="Inter,Arial" font-size="12.00" fill="#172033">2.6.1</text>
</g>
<!-- n6&#45;&gt;n10 -->
<g id="edge6" class="edge">
<title>n6&#45;&gt;n10</title>
<path fill="none" stroke="#9aa8b8" stroke-width="7.2" d="M693.1,-247.12C709.33,-217.69 743.01,-162.16 783.88,-126.03 789.69,-120.89 796.47,-116.25 803.32,-112.2"/>
<polygon fill="#9aa8b8" stroke="#9aa8b8" stroke-width="7.2" points="804.93,-115.28 808.08,-109.59 801.59,-109.2 804.93,-115.28"/>
</g>
<!-- out5 -->
<g id="node18" class="node">
<title>out5</title>
<polygon fill="#fff8e8" stroke="#d19922" points="1236.54,-180.23 1132.32,-180.23 1132.32,-135.83 1242.54,-135.83 1242.54,-174.23 1236.54,-180.23"/>
<polyline fill="none" stroke="#d19922" points="1236.54,-180.23 1236.54,-174.23"/>
<polyline fill="none" stroke="#d19922" points="1242.54,-174.23 1236.54,-174.23"/>
<text xml:space="preserve" text-anchor="start" x="1141.68" y="-164.53" font-family="Inter,Arial" font-size="10.00" fill="#614000">to zeroize&#45;v1.9.0.svg</text>
<text xml:space="preserve" text-anchor="start" x="1170.56" y="-154.53" font-family="Inter,Arial" font-weight="bold" font-size="10.00" fill="#614000">zeroize</text>
<text xml:space="preserve" text-anchor="start" x="1176.56" y="-144.53" font-family="Inter,Arial" font-size="10.00" fill="#614000">1.9.0</text>
</g>
<!-- n7&#45;&gt;out5 -->
<g id="edge18" class="edge">
<title>n7&#45;&gt;out5</title>
<path fill="none" stroke="#d19922" stroke-width="7.2" stroke-dasharray="5,2" d="M1092.76,-158.03C1101.81,-158.03 1111.02,-158.03 1119.95,-158.03"/>
<polygon fill="#d19922" stroke="#d19922" stroke-width="7.2" points="1119.66,-161.5 1125.16,-158.03 1119.66,-154.57 1119.66,-161.5"/>
</g>
<!-- n9&#45;&gt;n4 -->
<g id="edge10" class="edge">
<title>n9&#45;&gt;n4</title>
<path fill="none" stroke="#9aa8b8" stroke-width="7.2" d="M513.53,-548.21C533.55,-544.15 560.69,-536 579.41,-520.03 629.18,-477.58 658.32,-404.35 671.71,-362.6"/>
<polygon fill="#9aa8b8" stroke="#9aa8b8" stroke-width="7.2" points="674.99,-363.7 673.3,-357.42 668.37,-361.66 674.99,-363.7"/>
</g>
<!-- n9&#45;&gt;n6 -->
<g id="edge11" class="edge">
<title>n9&#45;&gt;n6</title>
<path fill="none" stroke="#9aa8b8" stroke-width="7.2" d="M513.35,-550C534.37,-546.93 562.96,-539.24 579.41,-520.03 644.34,-444.22 560.27,-379.44 619.41,-299.03 624.99,-291.44 632.92,-285.49 641.22,-280.9"/>
<polygon fill="#9aa8b8" stroke="#9aa8b8" stroke-width="7.2" points="642.66,-284.05 646.1,-278.54 639.65,-277.81 642.66,-284.05"/>
</g>
<!-- out1 -->
<g id="node14" class="node">
<title>out1</title>
<polygon fill="#fff8e8" stroke="#d19922" points="726.25,-574.23 631.03,-574.23 631.03,-529.83 732.25,-529.83 732.25,-568.23 726.25,-574.23"/>
<polyline fill="none" stroke="#d19922" points="726.25,-574.23 726.25,-568.23"/>
<polyline fill="none" stroke="#d19922" points="732.25,-568.23 726.25,-568.23"/>
<text xml:space="preserve" text-anchor="start" x="640.39" y="-558.53" font-family="Inter,Arial" font-size="10.00" fill="#614000">to alsa&#45;v0.11.0.svg</text>
<text xml:space="preserve" text-anchor="start" x="670.02" y="-548.53" font-family="Inter,Arial" font-weight="bold" font-size="10.00" fill="#614000">cfg&#45;if</text>
<text xml:space="preserve" text-anchor="start" x="670.77" y="-538.53" font-family="Inter,Arial" font-size="10.00" fill="#614000">1.0.4</text>
</g>
<!-- n9&#45;&gt;out1 -->
<g id="edge13" class="edge">
<title>n9&#45;&gt;out1</title>
<path fill="none" stroke="#d19922" stroke-width="7.2" stroke-dasharray="5,2" d="M513.16,-552.03C540.14,-552.03 583.24,-552.03 618.96,-552.03"/>
<polygon fill="#d19922" stroke="#d19922" stroke-width="7.2" points="618.5,-555.5 624,-552.03 618.5,-548.57 618.5,-555.5"/>
</g>
<!-- n11 -->
<g id="node12" class="node">
<title>n11</title>
<path fill="#f7f9fb" stroke="#8b9bb0" d="M300.94,-411.23C300.94,-411.23 213.22,-411.23 213.22,-411.23 207.22,-411.23 201.22,-405.23 201.22,-399.23 201.22,-399.23 201.22,-372.83 201.22,-372.83 201.22,-366.83 207.22,-360.83 213.22,-360.83 213.22,-360.83 300.94,-360.83 300.94,-360.83 306.94,-360.83 312.94,-366.83 312.94,-372.83 312.94,-372.83 312.94,-399.23 312.94,-399.23 312.94,-405.23 306.94,-411.23 300.94,-411.23"/>
<text xml:space="preserve" text-anchor="start" x="210.58" y="-392.68" font-family="Inter,Arial" font-weight="bold" font-size="13.00" fill="#172033">zeroize_derive</text>
<text xml:space="preserve" text-anchor="start" x="243.95" y="-380.63" font-family="Inter,Arial" font-size="12.00" fill="#172033">1.5.0</text>
<text xml:space="preserve" text-anchor="start" x="229.7" y="-369.58" font-family="Inter,Arial" font-size="11.00" fill="#172033">proc&#45;macro</text>
</g>
<!-- n11&#45;&gt;out2 -->
<g id="edge15" class="edge">
<title>n11&#45;&gt;out2</title>
<path fill="none" stroke="#d19922" stroke-width="7.2" stroke-dasharray="5,2" d="M313.31,-386.03C344.03,-386.03 382.56,-386.03 415.34,-386.03"/>
<polygon fill="#d19922" stroke="#d19922" stroke-width="7.2" points="415.33,-389.5 420.83,-386.03 415.33,-382.57 415.33,-389.5"/>
</g>
<!-- in6 -->
<g id="node19" class="node">
<title>in6</title>
<polygon fill="#eef6ff" stroke="#4b8fc5" points="308.06,-776.23 200.09,-776.23 200.09,-731.83 314.06,-731.83 314.06,-770.23 308.06,-776.23"/>
<polyline fill="none" stroke="#4b8fc5" points="308.06,-776.23 308.06,-770.23"/>
<polyline fill="none" stroke="#4b8fc5" points="314.06,-770.23 308.06,-770.23"/>
<text xml:space="preserve" text-anchor="start" x="209.45" y="-760.53" font-family="Inter,Arial" font-size="10.00" fill="#123d5c">from hyper&#45;v1.9.0.svg</text>
<text xml:space="preserve" text-anchor="start" x="238.33" y="-750.53" font-family="Inter,Arial" font-weight="bold" font-size="10.00" fill="#123d5c">httparse</text>
<text xml:space="preserve" text-anchor="start" x="243.58" y="-740.53" font-family="Inter,Arial" font-size="10.00" fill="#123d5c">1.10.1</text>
</g>
<!-- in6&#45;&gt;n8 -->
<g id="edge19" class="edge">
<title>in6&#45;&gt;n8</title>
<path fill="none" stroke="#4b8fc5" stroke-width="7.2" stroke-dasharray="5,2" d="M314.48,-754.28C352.41,-754.45 401.85,-754.67 437.73,-754.82"/>
<polygon fill="#4b8fc5" stroke="#4b8fc5" stroke-width="7.2" points="437.55,-758.29 443.06,-754.85 437.58,-751.36 437.55,-758.29"/>
</g>
<!-- in7 -->
<g id="node20" class="node">
<title>in7</title>
<polygon fill="#eef6ff" stroke="#4b8fc5" points="573.41,-220.23 392.69,-220.23 392.69,-75.83 579.41,-75.83 579.41,-214.23 573.41,-220.23"/>
<polyline fill="none" stroke="#4b8fc5" points="573.41,-220.23 573.41,-214.23"/>
<polyline fill="none" stroke="#4b8fc5" points="579.41,-214.23 573.41,-214.23"/>
<text xml:space="preserve" text-anchor="start" x="402.05" y="-204.53" font-family="Inter,Arial" font-size="10.00" fill="#123d5c">from rustls&#45;rustcrypto&#45;v0.0.2&#45;alpha.svg</text>
<text xml:space="preserve" text-anchor="start" x="449.3" y="-194.53" font-family="Inter,Arial" font-weight="bold" font-size="10.00" fill="#123d5c">crypto&#45;common</text>
<text xml:space="preserve" text-anchor="start" x="475.17" y="-184.53" font-family="Inter,Arial" font-size="10.00" fill="#123d5c">0.1.7</text>
<text xml:space="preserve" text-anchor="start" x="455.67" y="-174.53" font-family="Inter,Arial" font-weight="bold" font-size="10.00" fill="#123d5c">generic&#45;array</text>
<text xml:space="preserve" text-anchor="start" x="472.55" y="-164.53" font-family="Inter,Arial" font-size="10.00" fill="#123d5c">0.14.7</text>
<text xml:space="preserve" text-anchor="start" x="459.05" y="-154.53" font-family="Inter,Arial" font-weight="bold" font-size="10.00" fill="#123d5c">cpufeatures</text>
<text xml:space="preserve" text-anchor="start" x="472.55" y="-144.53" font-family="Inter,Arial" font-size="10.00" fill="#123d5c">0.2.17</text>
<text xml:space="preserve" text-anchor="start" x="471.8" y="-134.53" font-family="Inter,Arial" font-weight="bold" font-size="10.00" fill="#123d5c">subtle</text>
<text xml:space="preserve" text-anchor="start" x="475.17" y="-124.53" font-family="Inter,Arial" font-size="10.00" fill="#123d5c">2.6.1</text>
<text xml:space="preserve" text-anchor="start" x="471.8" y="-114.53" font-family="Inter,Arial" font-weight="bold" font-size="10.00" fill="#123d5c">digest</text>
<text xml:space="preserve" text-anchor="start" x="472.55" y="-104.53" font-family="Inter,Arial" font-size="10.00" fill="#123d5c">0.10.7</text>
<text xml:space="preserve" text-anchor="start" x="464.3" y="-94.53" font-family="Inter,Arial" font-weight="bold" font-size="10.00" fill="#123d5c">const&#45;oid</text>
<text xml:space="preserve" text-anchor="start" x="475.17" y="-84.53" font-family="Inter,Arial" font-size="10.00" fill="#123d5c">0.9.6</text>
</g>
<!-- in7&#45;&gt;n3 -->
<g id="edge20" class="edge">
<title>in7&#45;&gt;n3</title>
<path fill="none" stroke="#4b8fc5" stroke-width="7.2" stroke-dasharray="5,2" d="M579.51,-167.28C647.21,-181.38 736.53,-199.97 791.71,-211.46"/>
<polygon fill="#4b8fc5" stroke="#4b8fc5" stroke-width="7.2" points="790.92,-214.84 797.01,-212.56 792.33,-208.05 790.92,-214.84"/>
</g>
<!-- in7&#45;&gt;n4 -->
<g id="edge21" class="edge">
<title>in7&#45;&gt;n4</title>
<path fill="none" stroke="#4b8fc5" stroke-width="7.2" stroke-dasharray="5,2" d="M569.46,-220.53C572.92,-224.33 576.25,-228.17 579.41,-232.03 601.36,-258.88 594.2,-275.21 619.41,-299.03 621.32,-300.84 623.36,-302.57 625.48,-304.23"/>
<polygon fill="#4b8fc5" stroke="#4b8fc5" stroke-width="7.2" points="623.19,-306.86 629.68,-307.16 627.15,-301.17 623.19,-306.86"/>
</g>
<!-- in7&#45;&gt;n5 -->
<g id="edge22" class="edge">
<title>in7&#45;&gt;n5</title>
<path fill="none" stroke="#4b8fc5" stroke-width="7.2" stroke-dasharray="5,2" d="M579.51,-150.63C639.46,-152.32 716.38,-154.49 771.51,-156.04"/>
<polygon fill="#4b8fc5" stroke="#4b8fc5" stroke-width="7.2" points="771.29,-159.5 776.88,-156.19 771.48,-152.57 771.29,-159.5"/>
</g>
<!-- in7&#45;&gt;n6 -->
<g id="edge23" class="edge">
<title>in7&#45;&gt;n6</title>
<path fill="none" stroke="#4b8fc5" stroke-width="7.2" stroke-dasharray="5,2" d="M579.88,-205.09C601.68,-218.49 623.75,-232.06 641.65,-243.07"/>
<polygon fill="#4b8fc5" stroke="#4b8fc5" stroke-width="7.2" points="639.7,-245.93 646.2,-245.86 643.33,-240.03 639.7,-245.93"/>
</g>
<!-- in7&#45;&gt;n7 -->
<g id="edge24" class="edge">
<title>in7&#45;&gt;n7</title>
<path fill="none" stroke="#4b8fc5" stroke-width="7.2" stroke-dasharray="5,2" d="M537.92,-75.59C559.81,-50.54 587.69,-25.42 619.41,-12.03 670.37,9.48 689.2,-3.65 743.88,-12.03 817.19,-23.27 838.11,-26.28 903.1,-62.03 924.78,-73.96 946.15,-90.41 964.4,-106.32"/>
<polygon fill="#4b8fc5" stroke="#4b8fc5" stroke-width="7.2" points="961.64,-108.5 968.05,-109.58 966.25,-103.33 961.64,-108.5"/>
</g>
<!-- in7&#45;&gt;n10 -->
<g id="edge25" class="edge">
<title>in7&#45;&gt;n10</title>
<path fill="none" stroke="#4b8fc5" stroke-width="7.2" stroke-dasharray="5,2" d="M579.51,-133.99C651.49,-123.05 747.93,-108.4 801.76,-100.22"/>
<polygon fill="#4b8fc5" stroke="#4b8fc5" stroke-width="7.2" points="802.26,-103.65 807.18,-99.4 801.22,-96.8 802.26,-103.65"/>
</g>
<!-- in8 -->
<g id="node21" class="node">
<title>in8</title>
<polygon fill="#eef6ff" stroke="#4b8fc5" points="737.88,-69.23 619.41,-69.23 619.41,-24.83 743.88,-24.83 743.88,-63.23 737.88,-69.23"/>
<polyline fill="none" stroke="#4b8fc5" points="737.88,-69.23 737.88,-63.23"/>
<polyline fill="none" stroke="#4b8fc5" points="743.88,-63.23 737.88,-63.23"/>
<text xml:space="preserve" text-anchor="start" x="628.77" y="-53.53" font-family="Inter,Arial" font-size="10.00" fill="#123d5c">from rustls&#45;v0.23.41.svg</text>
<text xml:space="preserve" text-anchor="start" x="667.39" y="-43.53" font-family="Inter,Arial" font-weight="bold" font-size="10.00" fill="#123d5c">subtle</text>
<text xml:space="preserve" text-anchor="start" x="670.77" y="-33.53" font-family="Inter,Arial" font-size="10.00" fill="#123d5c">2.6.1</text>
</g>
<!-- in8&#45;&gt;n10 -->
<g id="edge26" class="edge">
<title>in8&#45;&gt;n10</title>
<path fill="none" stroke="#4b8fc5" stroke-width="7.2" stroke-dasharray="5,2" d="M743.99,-65.07C763.59,-70.83 784.77,-77.06 802.45,-82.26"/>
<polygon fill="#4b8fc5" stroke="#4b8fc5" stroke-width="7.2" points="801.33,-85.54 807.58,-83.77 803.28,-78.89 801.33,-85.54"/>
</g>
<!-- in9 -->
<g id="node22" class="node">
<title>in9</title>
<polygon fill="#eef6ff" stroke="#4b8fc5" points="538.16,-309.23 427.94,-309.23 427.94,-244.83 544.16,-244.83 544.16,-303.23 538.16,-309.23"/>
<polyline fill="none" stroke="#4b8fc5" points="538.16,-309.23 538.16,-303.23"/>
<polyline fill="none" stroke="#4b8fc5" points="544.16,-303.23 538.16,-303.23"/>
<text xml:space="preserve" text-anchor="start" x="437.3" y="-293.53" font-family="Inter,Arial" font-size="10.00" fill="#123d5c">from sha2&#45;v0.10.9.svg</text>
<text xml:space="preserve" text-anchor="start" x="459.05" y="-283.53" font-family="Inter,Arial" font-weight="bold" font-size="10.00" fill="#123d5c">cpufeatures</text>
<text xml:space="preserve" text-anchor="start" x="472.55" y="-273.53" font-family="Inter,Arial" font-size="10.00" fill="#123d5c">0.2.17</text>
<text xml:space="preserve" text-anchor="start" x="471.8" y="-263.53" font-family="Inter,Arial" font-weight="bold" font-size="10.00" fill="#123d5c">digest</text>
<text xml:space="preserve" text-anchor="start" x="472.55" y="-253.53" font-family="Inter,Arial" font-size="10.00" fill="#123d5c">0.10.7</text>
</g>
<!-- in9&#45;&gt;n4 -->
<g id="edge27" class="edge">
<title>in9&#45;&gt;n4</title>
<path fill="none" stroke="#4b8fc5" stroke-width="7.2" stroke-dasharray="5,2" d="M544.61,-293.09C569.04,-299.9 597.47,-307.83 622.01,-314.68"/>
<polygon fill="#4b8fc5" stroke="#4b8fc5" stroke-width="7.2" points="620.98,-317.99 627.21,-316.13 622.84,-311.31 620.98,-317.99"/>
</g>
<!-- in9&#45;&gt;n6 -->
<g id="edge28" class="edge">
<title>in9&#45;&gt;n6</title>
<path fill="none" stroke="#4b8fc5" stroke-width="7.2" stroke-dasharray="5,2" d="M544.61,-274.06C575.35,-272.47 612.44,-270.56 640.12,-269.13"/>
<polygon fill="#4b8fc5" stroke="#4b8fc5" stroke-width="7.2" points="640.06,-272.6 645.38,-268.86 639.7,-265.68 640.06,-272.6"/>
</g>
<!-- in10 -->
<g id="node23" class="node">
<title>in10</title>
<polygon fill="#eef6ff" stroke="#4b8fc5" points="309.19,-855.23 198.97,-855.23 198.97,-800.83 315.19,-800.83 315.19,-849.23 309.19,-855.23"/>
<polyline fill="none" stroke="#4b8fc5" points="309.19,-855.23 309.19,-849.23"/>
<polyline fill="none" stroke="#4b8fc5" points="315.19,-849.23 309.19,-849.23"/>
<text xml:space="preserve" text-anchor="start" x="208.33" y="-839.53" font-family="Inter,Arial" font-size="10.00" fill="#123d5c">from usvg&#45;v0.45.1.svg</text>
<text xml:space="preserve" text-anchor="start" x="240.95" y="-829.53" font-family="Inter,Arial" font-weight="bold" font-size="10.00" fill="#123d5c">base64</text>
<text xml:space="preserve" text-anchor="start" x="243.58" y="-819.53" font-family="Inter,Arial" font-size="10.00" fill="#123d5c">0.22.1</text>
<text xml:space="preserve" text-anchor="start" x="208.7" y="-809.53" font-family="Inter,Arial" font-size="10.00" fill="#123d5c">/vendor/base64&#45;0.22.1</text>
</g>
<!-- in10&#45;&gt;n1 -->
<g id="edge29" class="edge">
<title>in10&#45;&gt;n1</title>
<path fill="none" stroke="#4b8fc5" stroke-width="7.2" stroke-dasharray="5,2" d="M315.65,-827.78C344.4,-827.65 379.54,-827.5 410.34,-827.36"/>
<polygon fill="#4b8fc5" stroke="#4b8fc5" stroke-width="7.2" points="410.12,-830.83 415.6,-827.34 410.09,-823.9 410.12,-830.83"/>
</g>
<!-- in11 -->
<g id="node24" class="node">
<title>in11</title>
<polygon fill="#eef6ff" stroke="#4b8fc5" points="115.47,-413.23 0,-413.23 0,-358.83 121.47,-358.83 121.47,-407.23 115.47,-413.23"/>
<polyline fill="none" stroke="#4b8fc5" points="115.47,-413.23 115.47,-407.23"/>
<polyline fill="none" stroke="#4b8fc5" points="121.47,-407.23 115.47,-407.23"/>
<text xml:space="preserve" text-anchor="start" x="9.36" y="-397.53" font-family="Inter,Arial" font-size="10.00" fill="#123d5c">from zeroize&#45;v1.9.0.svg</text>
<text xml:space="preserve" text-anchor="start" x="26.98" y="-387.53" font-family="Inter,Arial" font-weight="bold" font-size="10.00" fill="#123d5c">zeroize_derive</text>
<text xml:space="preserve" text-anchor="start" x="49.86" y="-377.53" font-family="Inter,Arial" font-size="10.00" fill="#123d5c">1.5.0</text>
<text xml:space="preserve" text-anchor="start" x="36.36" y="-367.53" font-family="Inter,Arial" font-size="10.00" fill="#123d5c">proc&#45;macro</text>
</g>
<!-- in11&#45;&gt;n11 -->
<g id="edge30" class="edge">
<title>in11&#45;&gt;n11</title>
<path fill="none" stroke="#4b8fc5" stroke-width="7.2" stroke-dasharray="5,2" d="M121.9,-386.03C143.06,-386.03 166.97,-386.03 188.68,-386.03"/>
<polygon fill="#4b8fc5" stroke="#4b8fc5" stroke-width="7.2" points="188.58,-389.5 194.08,-386.03 188.58,-382.57 188.58,-389.5"/>
</g>
</g>
</svg>
