<?xml version="1.0" encoding="UTF-8" standalone="no"?>
<!DOCTYPE svg PUBLIC "-//W3C//DTD SVG 1.1//EN"
 "http://www.w3.org/Graphics/SVG/1.1/DTD/svg11.dtd">
<!-- Generated by graphviz version 14.1.2 (0)
 -->
<!-- Title: embedded&#45;io&#45;async&#45;v0.7.0 Pages: 1 -->
<svg width="529pt" height="52pt"
 viewBox="0.00 0.00 529.00 52.00" xmlns="http://www.w3.org/2000/svg" xmlns:xlink="http://www.w3.org/1999/xlink">
<g id="graph0" class="graph" transform="scale(1 1) rotate(0) translate(4 48.4)">
<title>embedded&#45;io&#45;async&#45;v0.7.0</title>
<polygon fill="white" stroke="none" points="-4,4 -4,-48.4 524.91,-48.4 524.91,4 -4,4"/>
<!-- n0 -->
<g id="node1" class="node">
<title>n0</title>
<path fill="#dff3ff" stroke="#1b78a6" d="M326.44,-41.9C326.44,-41.9 205.72,-41.9 205.72,-41.9 199.72,-41.9 193.72,-35.9 193.72,-29.9 193.72,-29.9 193.72,-14.5 193.72,-14.5 193.72,-8.5 199.72,-2.5 205.72,-2.5 205.72,-2.5 326.44,-2.5 326.44,-2.5 332.44,-2.5 338.44,-8.5 338.44,-14.5 338.44,-14.5 338.44,-29.9 338.44,-29.9 338.44,-35.9 332.44,-41.9 326.44,-41.9"/>
<text xml:space="preserve" text-anchor="start" x="203.08" y="-23.35" font-family="Inter,Arial" font-weight="bold" font-size="13.00" fill="#172033">embedded&#45;io&#45;async</text>
<text xml:space="preserve" text-anchor="start" x="252.95" y="-11.3" font-family="Inter,Arial" font-size="12.00" fill="#172033">0.7.0</text>
</g>
<!-- out0 -->
<g id="node2" class="node">
<title>out0</title>
<polygon fill="#fff8e8" stroke="#d19922" points="514.91,-44.4 378.44,-44.4 378.44,0 520.91,0 520.91,-38.4 514.91,-44.4"/>
<polyline fill="none" stroke="#d19922" points="514.91,-44.4 514.91,-38.4"/>
<polyline fill="none" stroke="#d19922" points="520.91,-38.4 514.91,-38.4"/>
<text xml:space="preserve" text-anchor="start" x="387.8" y="-28.7" font-family="Inter,Arial" font-size="10.00" fill="#614000">to embassy&#45;sync&#45;v0.8.0.svg</text>
<text xml:space="preserve" text-anchor="start" x="419.3" y="-18.7" font-family="Inter,Arial" font-weight="bold" font-size="10.00" fill="#614000">embedded&#45;io</text>
<text xml:space="preserve" text-anchor="start" x="438.8" y="-8.7" font-family="Inter,Arial" font-size="10.00" fill="#614000">0.7.1</text>
</g>
<!-- n0&#45;&gt;out0 -->
<g id="edge1" class="edge">
<title>n0&#45;&gt;out0</title>
<path fill="none" stroke="#d19922" stroke-width="0.9" stroke-dasharray="5,2" d="M338.85,-22.2C349.52,-22.2 360.56,-22.2 371.35,-22.2"/>
<polygon fill="#d19922" stroke="#d19922" stroke-width="0.9" points="371.16,-24.13 376.66,-22.2 371.16,-20.28 371.16,-24.13"/>
</g>
<!-- in1 -->
<g id="node3" class="node">
<title>in1</title>
<polygon fill="#eef6ff" stroke="#4b8fc5" points="147.72,-44.4 0,-44.4 0,0 153.72,0 153.72,-38.4 147.72,-44.4"/>
<polyline fill="none" stroke="#4b8fc5" points="147.72,-44.4 147.72,-38.4"/>
<polyline fill="none" stroke="#4b8fc5" points="153.72,-38.4 147.72,-38.4"/>
<text xml:space="preserve" text-anchor="start" x="9.36" y="-28.7" font-family="Inter,Arial" font-size="10.00" fill="#123d5c">from embassy&#45;sync&#45;v0.8.0.svg</text>
<text xml:space="preserve" text-anchor="start" x="31.49" y="-18.7" font-family="Inter,Arial" font-weight="bold" font-size="10.00" fill="#123d5c">embedded&#45;io&#45;async</text>
<text xml:space="preserve" text-anchor="start" x="65.99" y="-8.7" font-family="Inter,Arial" font-size="10.00" fill="#123d5c">0.7.0</text>
</g>
<!-- in1&#45;&gt;n0 -->
<g id="edge2" class="edge">
<title>in1&#45;&gt;n0</title>
<path fill="none" stroke="#4b8fc5" stroke-width="0.9" stroke-dasharray="5,2" d="M154.01,-22.2C164.74,-22.2 175.79,-22.2 186.56,-22.2"/>
<polygon fill="#4b8fc5" stroke="#4b8fc5" stroke-width="0.9" points="186.37,-24.13 191.87,-22.2 186.37,-20.28 186.37,-24.13"/>
</g>
</g>
</svg>
