<?xml version="1.0" encoding="UTF-8" standalone="no"?>
<!DOCTYPE svg PUBLIC "-//W3C//DTD SVG 1.1//EN"
 "http://www.w3.org/Graphics/SVG/1.1/DTD/svg11.dtd">
<!-- Generated by graphviz version 14.1.2 (0)
 -->
<!-- Title: embedded&#45;io&#45;async&#45;v0.7.0 Pages: 1 -->
<svg width="472pt" height="45pt"
 viewBox="0.00 0.00 472.00 45.00" xmlns="http://www.w3.org/2000/svg" xmlns:xlink="http://www.w3.org/1999/xlink">
<g id="graph0" class="graph" transform="scale(1 1) rotate(0) translate(4 41.2)">
<title>embedded&#45;io&#45;async&#45;v0.7.0</title>
<polygon fill="white" stroke="none" points="-4,4 -4,-41.2 468.06,-41.2 468.06,4 -4,4"/>
<!-- n0 -->
<g id="node1" class="node">
<title>n0</title>
<path fill="#dff3ff" stroke="#1b78a6" d="M276.79,-36.6C276.79,-36.6 198.52,-36.6 198.52,-36.6 192.52,-36.6 186.52,-30.6 186.52,-24.6 186.52,-24.6 186.52,-12.6 186.52,-12.6 186.52,-6.6 192.52,-0.6 198.52,-0.6 198.52,-0.6 276.79,-0.6 276.79,-0.6 282.79,-0.6 288.79,-6.6 288.79,-12.6 288.79,-12.6 288.79,-24.6 288.79,-24.6 288.79,-30.6 282.79,-36.6 276.79,-36.6"/>
<text xml:space="preserve" text-anchor="start" x="192.28" y="-20.1" font-family="Inter,Arial" font-weight="bold" font-size="10.00" fill="#172033">embedded&#45;io&#45;async</text>
<text xml:space="preserve" text-anchor="start" x="226.78" y="-10.1" font-family="Inter,Arial" font-size="10.00" fill="#172033">0.7.0</text>
</g>
<!-- out0 -->
<g id="node2" class="node">
<title>out0</title>
<polygon fill="#fff8e8" stroke="#d19922" points="458.06,-37.2 328.79,-37.2 328.79,0 464.06,0 464.06,-31.2 458.06,-37.2"/>
<polyline fill="none" stroke="#d19922" points="458.06,-37.2 458.06,-31.2"/>
<polyline fill="none" stroke="#d19922" points="464.06,-31.2 458.06,-31.2"/>
<text xml:space="preserve" text-anchor="start" x="334.55" y="-25.1" font-family="Inter,Arial" font-size="10.00" fill="#614000">to embassy&#45;sync&#45;v0.8.0.svg</text>
<text xml:space="preserve" text-anchor="start" x="366.05" y="-15.1" font-family="Inter,Arial" font-weight="bold" font-size="10.00" fill="#614000">embedded&#45;io</text>
<text xml:space="preserve" text-anchor="start" x="385.55" y="-5.1" font-family="Inter,Arial" font-size="10.00" fill="#614000">0.7.1</text>
</g>
<!-- n0&#45;&gt;out0 -->
<g id="edge1" class="edge">
<title>n0&#45;&gt;out0</title>
<path fill="none" stroke="#d19922" stroke-width="0.9" stroke-dasharray="5,2" d="M289.12,-18.6C299.5,-18.6 310.63,-18.6 321.63,-18.6"/>
<polygon fill="#d19922" stroke="#d19922" stroke-width="0.9" points="321.6,-20.53 327.1,-18.6 321.6,-16.68 321.6,-20.53"/>
</g>
<!-- in1 -->
<g id="node3" class="node">
<title>in1</title>
<polygon fill="#eef6ff" stroke="#4b8fc5" points="140.52,-37.2 0,-37.2 0,0 146.52,0 146.52,-31.2 140.52,-37.2"/>
<polyline fill="none" stroke="#4b8fc5" points="140.52,-37.2 140.52,-31.2"/>
<polyline fill="none" stroke="#4b8fc5" points="146.52,-31.2 140.52,-31.2"/>
<text xml:space="preserve" text-anchor="start" x="5.76" y="-25.1" font-family="Inter,Arial" font-size="10.00" fill="#123d5c">from embassy&#45;sync&#45;v0.8.0.svg</text>
<text xml:space="preserve" text-anchor="start" x="27.88" y="-15.1" font-family="Inter,Arial" font-weight="bold" font-size="10.00" fill="#123d5c">embedded&#45;io&#45;async</text>
<text xml:space="preserve" text-anchor="start" x="62.38" y="-5.1" font-family="Inter,Arial" font-size="10.00" fill="#123d5c">0.7.0</text>
</g>
<!-- in1&#45;&gt;n0 -->
<g id="edge2" class="edge">
<title>in1&#45;&gt;n0</title>
<path fill="none" stroke="#4b8fc5" stroke-width="0.9" stroke-dasharray="5,2" d="M146.91,-18.6C157.85,-18.6 169.01,-18.6 179.57,-18.6"/>
<polygon fill="#4b8fc5" stroke="#4b8fc5" stroke-width="0.9" points="179.55,-20.53 185.05,-18.6 179.55,-16.68 179.55,-20.53"/>
</g>
</g>
</svg>
