<?xml version="1.0" encoding="UTF-8" standalone="no"?>
<!DOCTYPE svg PUBLIC "-//W3C//DTD SVG 1.1//EN"
 "http://www.w3.org/Graphics/SVG/1.1/DTD/svg11.dtd">
<!-- Generated by graphviz version 14.1.2 (0)
 -->
<!-- Title: embedded&#45;websocket&#45;v0.9.4 Pages: 1 -->
<svg width="579pt" height="836pt"
 viewBox="0.00 0.00 579.00 836.00" xmlns="http://www.w3.org/2000/svg" xmlns:xlink="http://www.w3.org/1999/xlink">
<g id="graph0" class="graph" transform="scale(1 1) rotate(0) translate(4 832.2)">
<title>embedded&#45;websocket&#45;v0.9.4</title>
<polygon fill="white" stroke="none" points="-4,4 -4,-832.2 575.08,-832.2 575.08,4 -4,4"/>
<!-- n0 -->
<g id="node1" class="node">
<title>n0</title>
<path fill="#dff3ff" stroke="#1b78a6" d="M161.14,-223.2C161.14,-223.2 18.38,-223.2 18.38,-223.2 12.38,-223.2 6.37,-217.2 6.37,-211.2 6.37,-211.2 6.37,-198 6.37,-198 6.37,-192 12.37,-186 18.37,-186 18.37,-186 161.14,-186 161.14,-186 167.14,-186 173.14,-192 173.14,-198 173.14,-198 173.14,-211.2 173.14,-211.2 173.14,-217.2 167.14,-223.2 161.14,-223.2"/>
<text xml:space="preserve" text-anchor="start" x="39.51" y="-211.1" font-family="Inter,Arial" font-weight="bold" font-size="10.00" fill="#172033">embedded&#45;websocket</text>
<text xml:space="preserve" text-anchor="start" x="78.88" y="-201.1" font-family="Inter,Arial" font-size="10.00" fill="#172033">0.9.4</text>
<text xml:space="preserve" text-anchor="start" x="12.13" y="-191.1" font-family="Inter,Arial" font-size="10.00" fill="#172033">/vendor/embedded&#45;websocket&#45;0.9.4</text>
</g>
<!-- n4 -->
<g id="node5" class="node">
<title>n4</title>
<path fill="#f7f9fb" stroke="#8b9bb0" d="M293.15,-418.6C293.15,-418.6 263.15,-418.6 263.15,-418.6 257.15,-418.6 251.15,-412.6 251.15,-406.6 251.15,-406.6 251.15,-394.6 251.15,-394.6 251.15,-388.6 257.15,-382.6 263.15,-382.6 263.15,-382.6 293.15,-382.6 293.15,-382.6 299.15,-382.6 305.15,-388.6 305.15,-394.6 305.15,-394.6 305.15,-406.6 305.15,-406.6 305.15,-412.6 299.15,-418.6 293.15,-418.6"/>
<text xml:space="preserve" text-anchor="start" x="259.4" y="-402.1" font-family="Inter,Arial" font-weight="bold" font-size="10.00" fill="#172033">httparse</text>
<text xml:space="preserve" text-anchor="start" x="264.65" y="-392.1" font-family="Inter,Arial" font-size="10.00" fill="#172033">1.10.1</text>
</g>
<!-- n0&#45;&gt;n4 -->
<g id="edge4" class="edge">
<title>n0&#45;&gt;n4</title>
<path fill="none" stroke="#9aa8b8" stroke-width="0.9" d="M101.82,-223.49C121.86,-256.49 167.03,-325.32 219.52,-369.6 227.07,-375.97 236.14,-381.59 244.82,-386.23"/>
<polygon fill="#9aa8b8" stroke="#9aa8b8" stroke-width="0.9" points="243.77,-387.85 249.54,-388.66 245.53,-384.43 243.77,-387.85"/>
</g>
<!-- out0 -->
<g id="node7" class="node">
<title>out0</title>
<polygon fill="#fff8e8" stroke="#d19922" points="316.91,-357.2 233.39,-357.2 233.39,-320 322.91,-320 322.91,-351.2 316.91,-357.2"/>
<polyline fill="none" stroke="#d19922" points="316.91,-357.2 316.91,-351.2"/>
<polyline fill="none" stroke="#d19922" points="322.91,-351.2 316.91,-351.2"/>
<text xml:space="preserve" text-anchor="start" x="239.15" y="-345.1" font-family="Inter,Arial" font-size="10.00" fill="#614000">to acpi&#45;v6.1.1.svg</text>
<text xml:space="preserve" text-anchor="start" x="256.03" y="-335.1" font-family="Inter,Arial" font-weight="bold" font-size="10.00" fill="#614000">byteorder</text>
<text xml:space="preserve" text-anchor="start" x="267.28" y="-325.1" font-family="Inter,Arial" font-size="10.00" fill="#614000">1.5.0</text>
</g>
<!-- n0&#45;&gt;out0 -->
<g id="edge5" class="edge">
<title>n0&#45;&gt;out0</title>
<path fill="none" stroke="#d19922" stroke-width="0.9" stroke-dasharray="5,2" d="M111.72,-223.34C136.49,-245.01 179.4,-281.08 219.52,-307.6 224.02,-310.57 228.83,-313.51 233.68,-316.32"/>
<polygon fill="#d19922" stroke="#d19922" stroke-width="0.9" points="232.46,-317.84 238.19,-318.88 234.36,-314.49 232.46,-317.84"/>
</g>
<!-- out2 -->
<g id="node9" class="node">
<title>out2</title>
<polygon fill="#fff8e8" stroke="#d19922" points="326.29,-295.2 224.02,-295.2 224.02,-248 332.29,-248 332.29,-289.2 326.29,-295.2"/>
<polyline fill="none" stroke="#d19922" points="326.29,-295.2 326.29,-289.2"/>
<polyline fill="none" stroke="#d19922" points="332.29,-289.2 326.29,-289.2"/>
<text xml:space="preserve" text-anchor="start" x="229.78" y="-283.1" font-family="Inter,Arial" font-size="10.00" fill="#614000">to base64&#45;v0.22.1.svg</text>
<text xml:space="preserve" text-anchor="start" x="262.03" y="-273.1" font-family="Inter,Arial" font-weight="bold" font-size="10.00" fill="#614000">base64</text>
<text xml:space="preserve" text-anchor="start" x="264.65" y="-263.1" font-family="Inter,Arial" font-size="10.00" fill="#614000">0.22.1</text>
<text xml:space="preserve" text-anchor="start" x="229.78" y="-253.1" font-family="Inter,Arial" font-size="10.00" fill="#614000">/vendor/base64&#45;0.22.1</text>
</g>
<!-- n0&#45;&gt;out2 -->
<g id="edge8" class="edge">
<title>n0&#45;&gt;out2</title>
<path fill="none" stroke="#d19922" stroke-width="0.9" stroke-dasharray="5,2" d="M143.67,-223.62C166.7,-231.9 193.78,-241.63 217.51,-250.16"/>
<polygon fill="#d19922" stroke="#d19922" stroke-width="0.9" points="216.68,-251.91 222.5,-251.96 217.98,-248.28 216.68,-251.91"/>
</g>
<!-- out3 -->
<g id="node10" class="node">
<title>out3</title>
<polygon fill="#fff8e8" stroke="#d19922" points="326.66,-223.2 223.64,-223.2 223.64,-186 332.66,-186 332.66,-217.2 326.66,-223.2"/>
<polyline fill="none" stroke="#d19922" points="326.66,-223.2 326.66,-217.2"/>
<polyline fill="none" stroke="#d19922" points="332.66,-217.2 326.66,-217.2"/>
<text xml:space="preserve" text-anchor="start" x="229.4" y="-211.1" font-family="Inter,Arial" font-size="10.00" fill="#614000">to crab&#45;usb&#45;v0.9.1.svg</text>
<text xml:space="preserve" text-anchor="start" x="262.03" y="-201.1" font-family="Inter,Arial" font-weight="bold" font-size="10.00" fill="#614000">futures</text>
<text xml:space="preserve" text-anchor="start" x="264.65" y="-191.1" font-family="Inter,Arial" font-size="10.00" fill="#614000">0.3.32</text>
</g>
<!-- n0&#45;&gt;out3 -->
<g id="edge9" class="edge">
<title>n0&#45;&gt;out3</title>
<path fill="none" stroke="#d19922" stroke-width="0.9" stroke-dasharray="5,2" d="M173.6,-204.6C188.06,-204.6 202.85,-204.6 216.56,-204.6"/>
<polygon fill="#d19922" stroke="#d19922" stroke-width="0.9" points="216.34,-206.53 221.84,-204.6 216.34,-202.68 216.34,-206.53"/>
</g>
<!-- out4 -->
<g id="node11" class="node">
<title>out4</title>
<polygon fill="#fff8e8" stroke="#d19922" points="327.41,-161.2 222.89,-161.2 222.89,-124 333.41,-124 333.41,-155.2 327.41,-161.2"/>
<polyline fill="none" stroke="#d19922" points="327.41,-161.2 327.41,-155.2"/>
<polyline fill="none" stroke="#d19922" points="333.41,-155.2 327.41,-155.2"/>
<text xml:space="preserve" text-anchor="start" x="228.65" y="-149.1" font-family="Inter,Arial" font-size="10.00" fill="#614000">to heapless&#45;v0.9.3.svg</text>
<text xml:space="preserve" text-anchor="start" x="257.53" y="-139.1" font-family="Inter,Arial" font-weight="bold" font-size="10.00" fill="#614000">heapless</text>
<text xml:space="preserve" text-anchor="start" x="267.28" y="-129.1" font-family="Inter,Arial" font-size="10.00" fill="#614000">0.9.3</text>
</g>
<!-- n0&#45;&gt;out4 -->
<g id="edge10" class="edge">
<title>n0&#45;&gt;out4</title>
<path fill="none" stroke="#d19922" stroke-width="0.9" stroke-dasharray="5,2" d="M147.95,-185.58C169.57,-178.38 194.25,-170.18 216.21,-162.87"/>
<polygon fill="#d19922" stroke="#d19922" stroke-width="0.9" points="216.72,-164.73 221.33,-161.17 215.51,-161.08 216.72,-164.73"/>
</g>
<!-- out5 -->
<g id="node12" class="node">
<title>out5</title>
<polygon fill="#fff8e8" stroke="#d19922" points="329.29,-99.2 221.02,-99.2 221.02,-62 335.29,-62 335.29,-93.2 329.29,-99.2"/>
<polyline fill="none" stroke="#d19922" points="329.29,-99.2 329.29,-93.2"/>
<polyline fill="none" stroke="#d19922" points="335.29,-93.2 329.29,-93.2"/>
<text xml:space="preserve" text-anchor="start" x="226.78" y="-87.1" font-family="Inter,Arial" font-size="10.00" fill="#614000">to rand_core&#45;v0.6.4.svg</text>
<text xml:space="preserve" text-anchor="start" x="254.9" y="-77.1" font-family="Inter,Arial" font-weight="bold" font-size="10.00" fill="#614000">rand_core</text>
<text xml:space="preserve" text-anchor="start" x="267.28" y="-67.1" font-family="Inter,Arial" font-size="10.00" fill="#614000">0.6.4</text>
</g>
<!-- n0&#45;&gt;out5 -->
<g id="edge11" class="edge">
<title>n0&#45;&gt;out5</title>
<path fill="none" stroke="#d19922" stroke-width="0.9" stroke-dasharray="5,2" d="M114.78,-185.78C140.15,-166.25 181.66,-135.31 219.52,-111.6 224.23,-108.65 229.24,-105.7 234.26,-102.85"/>
<polygon fill="#d19922" stroke="#d19922" stroke-width="0.9" points="235.1,-104.59 238.96,-100.23 233.22,-101.23 235.1,-104.59"/>
</g>
<!-- out6 -->
<g id="node13" class="node">
<title>out6</title>
<polygon fill="#fff8e8" stroke="#d19922" points="321.04,-37.2 229.27,-37.2 229.27,0 327.04,0 327.04,-31.2 321.04,-37.2"/>
<polyline fill="none" stroke="#d19922" points="321.04,-37.2 321.04,-31.2"/>
<polyline fill="none" stroke="#d19922" points="327.04,-31.2 321.04,-31.2"/>
<text xml:space="preserve" text-anchor="start" x="235.03" y="-25.1" font-family="Inter,Arial" font-size="10.00" fill="#614000">to sha1&#45;v0.10.6.svg</text>
<text xml:space="preserve" text-anchor="start" x="267.28" y="-15.1" font-family="Inter,Arial" font-weight="bold" font-size="10.00" fill="#614000">sha1</text>
<text xml:space="preserve" text-anchor="start" x="264.65" y="-5.1" font-family="Inter,Arial" font-size="10.00" fill="#614000">0.10.6</text>
</g>
<!-- n0&#45;&gt;out6 -->
<g id="edge12" class="edge">
<title>n0&#45;&gt;out6</title>
<path fill="none" stroke="#d19922" stroke-width="0.9" stroke-dasharray="5,2" d="M102.91,-185.66C123.76,-154.29 169.02,-90.91 219.52,-49.6 223.21,-46.58 227.23,-43.72 231.39,-41.05"/>
<polygon fill="#d19922" stroke="#d19922" stroke-width="0.9" points="232.28,-42.76 235.96,-38.24 230.26,-39.48 232.28,-42.76"/>
</g>
<!-- n1 -->
<g id="node2" class="node">
<title>n1</title>
<path fill="#f7f9fb" stroke="#8b9bb0" d="M431.81,-745.6C431.81,-745.6 388.79,-745.6 388.79,-745.6 382.79,-745.6 376.79,-739.6 376.79,-733.6 376.79,-733.6 376.79,-721.6 376.79,-721.6 376.79,-715.6 382.79,-709.6 388.79,-709.6 388.79,-709.6 431.81,-709.6 431.81,-709.6 437.81,-709.6 443.81,-715.6 443.81,-721.6 443.81,-721.6 443.81,-733.6 443.81,-733.6 443.81,-739.6 437.81,-745.6 431.81,-745.6"/>
<text xml:space="preserve" text-anchor="start" x="382.55" y="-729.1" font-family="Inter,Arial" font-weight="bold" font-size="10.00" fill="#172033">block&#45;buffer</text>
<text xml:space="preserve" text-anchor="start" x="396.8" y="-719.1" font-family="Inter,Arial" font-size="10.00" fill="#172033">0.10.4</text>
</g>
<!-- out1 -->
<g id="node8" class="node">
<title>out1</title>
<polygon fill="#fff8e8" stroke="#d19922" points="565.08,-728.2 483.81,-728.2 483.81,-671 571.08,-671 571.08,-722.2 565.08,-728.2"/>
<polyline fill="none" stroke="#d19922" points="565.08,-728.2 565.08,-722.2"/>
<polyline fill="none" stroke="#d19922" points="571.08,-722.2 565.08,-722.2"/>
<text xml:space="preserve" text-anchor="start" x="489.57" y="-716.1" font-family="Inter,Arial" font-size="10.00" fill="#614000">to aes&#45;v0.8.4.svg</text>
<text xml:space="preserve" text-anchor="start" x="497.07" y="-706.1" font-family="Inter,Arial" font-weight="bold" font-size="10.00" fill="#614000">generic&#45;array</text>
<text xml:space="preserve" text-anchor="start" x="513.94" y="-696.1" font-family="Inter,Arial" font-size="10.00" fill="#614000">0.14.7</text>
<text xml:space="preserve" text-anchor="start" x="490.69" y="-686.1" font-family="Inter,Arial" font-weight="bold" font-size="10.00" fill="#614000">crypto&#45;common</text>
<text xml:space="preserve" text-anchor="start" x="516.57" y="-676.1" font-family="Inter,Arial" font-size="10.00" fill="#614000">0.1.7</text>
</g>
<!-- n1&#45;&gt;out1 -->
<g id="edge6" class="edge">
<title>n1&#45;&gt;out1</title>
<path fill="none" stroke="#d19922" stroke-width="0.9" stroke-dasharray="5,2" d="M444.3,-719.58C454.52,-717.09 466.01,-714.3 477.09,-711.6"/>
<polygon fill="#d19922" stroke="#d19922" stroke-width="0.9" points="477.34,-713.52 482.23,-710.35 476.43,-709.78 477.34,-713.52"/>
</g>
<!-- n2 -->
<g id="node3" class="node">
<title>n2</title>
<path fill="#f7f9fb" stroke="#8b9bb0" d="M425.81,-627.6C425.81,-627.6 394.79,-627.6 394.79,-627.6 388.79,-627.6 382.79,-621.6 382.79,-615.6 382.79,-615.6 382.79,-603.6 382.79,-603.6 382.79,-597.6 388.79,-591.6 394.79,-591.6 394.79,-591.6 425.81,-591.6 425.81,-591.6 431.81,-591.6 437.81,-597.6 437.81,-603.6 437.81,-603.6 437.81,-615.6 437.81,-615.6 437.81,-621.6 431.81,-627.6 425.81,-627.6"/>
<text xml:space="preserve" text-anchor="start" x="388.55" y="-611.1" font-family="Inter,Arial" font-weight="bold" font-size="10.00" fill="#172033">const&#45;oid</text>
<text xml:space="preserve" text-anchor="start" x="399.42" y="-601.1" font-family="Inter,Arial" font-size="10.00" fill="#172033">0.9.6</text>
</g>
<!-- n3 -->
<g id="node4" class="node">
<title>n3</title>
<path fill="#f7f9fb" stroke="#8b9bb0" d="M293.15,-695.6C293.15,-695.6 263.15,-695.6 263.15,-695.6 257.15,-695.6 251.15,-689.6 251.15,-683.6 251.15,-683.6 251.15,-671.6 251.15,-671.6 251.15,-665.6 257.15,-659.6 263.15,-659.6 263.15,-659.6 293.15,-659.6 293.15,-659.6 299.15,-659.6 305.15,-665.6 305.15,-671.6 305.15,-671.6 305.15,-683.6 305.15,-683.6 305.15,-689.6 299.15,-695.6 293.15,-695.6"/>
<text xml:space="preserve" text-anchor="start" x="263.9" y="-679.1" font-family="Inter,Arial" font-weight="bold" font-size="10.00" fill="#172033">digest</text>
<text xml:space="preserve" text-anchor="start" x="264.65" y="-669.1" font-family="Inter,Arial" font-size="10.00" fill="#172033">0.10.7</text>
</g>
<!-- n3&#45;&gt;n1 -->
<g id="edge1" class="edge">
<title>n3&#45;&gt;n1</title>
<path fill="none" stroke="#9aa8b8" stroke-width="0.9" d="M305.49,-687.72C324.07,-694.86 349.27,-704.54 370.19,-712.57"/>
<polygon fill="#9aa8b8" stroke="#9aa8b8" stroke-width="0.9" points="369.44,-714.35 375.26,-714.52 370.82,-710.75 369.44,-714.35"/>
</g>
<!-- n3&#45;&gt;n2 -->
<g id="edge2" class="edge">
<title>n3&#45;&gt;n2</title>
<path fill="none" stroke="#9aa8b8" stroke-width="0.9" d="M305.49,-663.84C326,-653.13 354.57,-638.2 376.54,-626.72"/>
<polygon fill="#9aa8b8" stroke="#9aa8b8" stroke-width="0.9" points="377.37,-628.46 381.35,-624.2 375.58,-625.05 377.37,-628.46"/>
</g>
<!-- n5 -->
<g id="node6" class="node">
<title>n5</title>
<path fill="#f7f9fb" stroke="#8b9bb0" d="M425.3,-554.6C425.3,-554.6 395.3,-554.6 395.3,-554.6 389.3,-554.6 383.3,-548.6 383.3,-542.6 383.3,-542.6 383.3,-530.6 383.3,-530.6 383.3,-524.6 389.3,-518.6 395.3,-518.6 395.3,-518.6 425.3,-518.6 425.3,-518.6 431.3,-518.6 437.3,-524.6 437.3,-530.6 437.3,-530.6 437.3,-542.6 437.3,-542.6 437.3,-548.6 431.3,-554.6 425.3,-554.6"/>
<text xml:space="preserve" text-anchor="start" x="396.05" y="-538.1" font-family="Inter,Arial" font-weight="bold" font-size="10.00" fill="#172033">subtle</text>
<text xml:space="preserve" text-anchor="start" x="399.42" y="-528.1" font-family="Inter,Arial" font-size="10.00" fill="#172033">2.6.1</text>
</g>
<!-- n3&#45;&gt;n5 -->
<g id="edge3" class="edge">
<title>n3&#45;&gt;n5</title>
<path fill="none" stroke="#9aa8b8" stroke-width="0.9" d="M305.52,-663.86C315.98,-657.63 327.67,-649.64 336.79,-640.6 359.83,-617.79 358.11,-606.1 376.79,-579.6 381.34,-573.15 386.42,-566.27 391.19,-559.96"/>
<polygon fill="#9aa8b8" stroke="#9aa8b8" stroke-width="0.9" points="392.48,-561.44 394.28,-555.9 389.42,-559.11 392.48,-561.44"/>
</g>
<!-- n3&#45;&gt;out1 -->
<g id="edge7" class="edge">
<title>n3&#45;&gt;out1</title>
<path fill="none" stroke="#d19922" stroke-width="0.9" stroke-dasharray="5,2" d="M305.62,-679.95C346.4,-683.58 425.28,-690.6 476.89,-695.19"/>
<polygon fill="#d19922" stroke="#d19922" stroke-width="0.9" points="476.66,-697.1 482.31,-695.67 477.01,-693.27 476.66,-697.1"/>
</g>
<!-- in7 -->
<g id="node14" class="node">
<title>in7</title>
<polygon fill="#eef6ff" stroke="#4b8fc5" points="139.77,-704.2 33.75,-704.2 33.75,-667 145.77,-667 145.77,-698.2 139.77,-704.2"/>
<polyline fill="none" stroke="#4b8fc5" points="139.77,-704.2 139.77,-698.2"/>
<polyline fill="none" stroke="#4b8fc5" points="145.77,-698.2 139.77,-698.2"/>
<text xml:space="preserve" text-anchor="start" x="39.51" y="-692.1" font-family="Inter,Arial" font-size="10.00" fill="#123d5c">from hmac&#45;v0.12.1.svg</text>
<text xml:space="preserve" text-anchor="start" x="75.51" y="-682.1" font-family="Inter,Arial" font-weight="bold" font-size="10.00" fill="#123d5c">digest</text>
<text xml:space="preserve" text-anchor="start" x="76.26" y="-672.1" font-family="Inter,Arial" font-size="10.00" fill="#123d5c">0.10.7</text>
</g>
<!-- in7&#45;&gt;n3 -->
<g id="edge13" class="edge">
<title>in7&#45;&gt;n3</title>
<path fill="none" stroke="#4b8fc5" stroke-width="0.9" stroke-dasharray="5,2" d="M146.18,-683.22C178.04,-681.85 216.98,-680.18 244.08,-679.02"/>
<polygon fill="#4b8fc5" stroke="#4b8fc5" stroke-width="0.9" points="243.93,-680.95 249.35,-678.79 243.77,-677.11 243.93,-680.95"/>
</g>
<!-- in8 -->
<g id="node15" class="node">
<title>in8</title>
<polygon fill="#eef6ff" stroke="#4b8fc5" points="137.14,-419.2 36.37,-419.2 36.37,-382 143.14,-382 143.14,-413.2 137.14,-419.2"/>
<polyline fill="none" stroke="#4b8fc5" points="137.14,-419.2 137.14,-413.2"/>
<polyline fill="none" stroke="#4b8fc5" points="143.14,-413.2 137.14,-413.2"/>
<text xml:space="preserve" text-anchor="start" x="42.13" y="-407.1" font-family="Inter,Arial" font-size="10.00" fill="#123d5c">from hyper&#45;v1.9.0.svg</text>
<text xml:space="preserve" text-anchor="start" x="71.01" y="-397.1" font-family="Inter,Arial" font-weight="bold" font-size="10.00" fill="#123d5c">httparse</text>
<text xml:space="preserve" text-anchor="start" x="76.26" y="-387.1" font-family="Inter,Arial" font-size="10.00" fill="#123d5c">1.10.1</text>
</g>
<!-- in8&#45;&gt;n4 -->
<g id="edge14" class="edge">
<title>in8&#45;&gt;n4</title>
<path fill="none" stroke="#4b8fc5" stroke-width="0.9" stroke-dasharray="5,2" d="M143.18,-400.6C175.54,-400.6 216.07,-400.6 244.03,-400.6"/>
<polygon fill="#4b8fc5" stroke="#4b8fc5" stroke-width="0.9" points="243.99,-402.53 249.49,-400.6 243.99,-398.68 243.99,-402.53"/>
</g>
<!-- in9 -->
<g id="node16" class="node">
<title>in9</title>
<polygon fill="#eef6ff" stroke="#4b8fc5" points="134.52,-560.2 39,-560.2 39,-483 140.52,-483 140.52,-554.2 134.52,-560.2"/>
<polyline fill="none" stroke="#4b8fc5" points="134.52,-560.2 134.52,-554.2"/>
<polyline fill="none" stroke="#4b8fc5" points="140.52,-554.2 134.52,-554.2"/>
<text xml:space="preserve" text-anchor="start" x="44.76" y="-548.1" font-family="Inter,Arial" font-size="10.00" fill="#123d5c">from rsa&#45;v0.9.10.svg</text>
<text xml:space="preserve" text-anchor="start" x="68.01" y="-538.1" font-family="Inter,Arial" font-weight="bold" font-size="10.00" fill="#123d5c">const&#45;oid</text>
<text xml:space="preserve" text-anchor="start" x="78.88" y="-528.1" font-family="Inter,Arial" font-size="10.00" fill="#123d5c">0.9.6</text>
<text xml:space="preserve" text-anchor="start" x="75.51" y="-518.1" font-family="Inter,Arial" font-weight="bold" font-size="10.00" fill="#123d5c">digest</text>
<text xml:space="preserve" text-anchor="start" x="76.26" y="-508.1" font-family="Inter,Arial" font-size="10.00" fill="#123d5c">0.10.7</text>
<text xml:space="preserve" text-anchor="start" x="75.51" y="-498.1" font-family="Inter,Arial" font-weight="bold" font-size="10.00" fill="#123d5c">subtle</text>
<text xml:space="preserve" text-anchor="start" x="78.88" y="-488.1" font-family="Inter,Arial" font-size="10.00" fill="#123d5c">2.6.1</text>
</g>
<!-- in9&#45;&gt;n2 -->
<g id="edge15" class="edge">
<title>in9&#45;&gt;n2</title>
<path fill="none" stroke="#4b8fc5" stroke-width="0.9" stroke-dasharray="5,2" d="M140.88,-535.45C206.54,-553.59 319.89,-584.9 375.94,-600.38"/>
<polygon fill="#4b8fc5" stroke="#4b8fc5" stroke-width="0.9" points="375.35,-602.22 381.17,-601.83 376.38,-598.51 375.35,-602.22"/>
</g>
<!-- in9&#45;&gt;n3 -->
<g id="edge16" class="edge">
<title>in9&#45;&gt;n3</title>
<path fill="none" stroke="#4b8fc5" stroke-width="0.9" stroke-dasharray="5,2" d="M140.83,-546.88C153.94,-554.42 167.69,-563.2 179.52,-572.6 210.37,-597.12 240.4,-631.47 258.83,-654.11"/>
<polygon fill="#4b8fc5" stroke="#4b8fc5" stroke-width="0.9" points="257.22,-655.19 262.18,-658.26 260.22,-652.77 257.22,-655.19"/>
</g>
<!-- in9&#45;&gt;n5 -->
<g id="edge17" class="edge">
<title>in9&#45;&gt;n5</title>
<path fill="none" stroke="#4b8fc5" stroke-width="0.9" stroke-dasharray="5,2" d="M140.9,-500.08C191.42,-481.51 271.11,-460.83 336.79,-482.6 355.47,-488.79 373.24,-501.87 386.51,-513.6"/>
<polygon fill="#4b8fc5" stroke="#4b8fc5" stroke-width="0.9" points="385.18,-514.99 390.55,-517.27 387.77,-512.14 385.18,-514.99"/>
</g>
<!-- in10 -->
<g id="node17" class="node">
<title>in10</title>
<polygon fill="#eef6ff" stroke="#4b8fc5" points="173.52,-642.2 0,-642.2 0,-585 179.52,-585 179.52,-636.2 173.52,-642.2"/>
<polyline fill="none" stroke="#4b8fc5" points="173.52,-642.2 173.52,-636.2"/>
<polyline fill="none" stroke="#4b8fc5" points="179.52,-636.2 173.52,-636.2"/>
<text xml:space="preserve" text-anchor="start" x="5.76" y="-630.1" font-family="Inter,Arial" font-size="10.00" fill="#123d5c">from rustls&#45;rustcrypto&#45;v0.0.2&#45;alpha.svg</text>
<text xml:space="preserve" text-anchor="start" x="75.51" y="-620.1" font-family="Inter,Arial" font-weight="bold" font-size="10.00" fill="#123d5c">subtle</text>
<text xml:space="preserve" text-anchor="start" x="78.88" y="-610.1" font-family="Inter,Arial" font-size="10.00" fill="#123d5c">2.6.1</text>
<text xml:space="preserve" text-anchor="start" x="75.51" y="-600.1" font-family="Inter,Arial" font-weight="bold" font-size="10.00" fill="#123d5c">digest</text>
<text xml:space="preserve" text-anchor="start" x="76.26" y="-590.1" font-family="Inter,Arial" font-size="10.00" fill="#123d5c">0.10.7</text>
</g>
<!-- in10&#45;&gt;n3 -->
<g id="edge18" class="edge">
<title>in10&#45;&gt;n3</title>
<path fill="none" stroke="#4b8fc5" stroke-width="0.9" stroke-dasharray="5,2" d="M175.5,-642.7C200.04,-651.12 225.37,-659.82 244.6,-666.42"/>
<polygon fill="#4b8fc5" stroke="#4b8fc5" stroke-width="0.9" points="243.77,-668.17 249.59,-668.14 245.02,-664.53 243.77,-668.17"/>
</g>
<!-- in10&#45;&gt;n5 -->
<g id="edge19" class="edge">
<title>in10&#45;&gt;n5</title>
<path fill="none" stroke="#4b8fc5" stroke-width="0.9" stroke-dasharray="5,2" d="M179.91,-592.05C245.35,-576.23 330.51,-555.65 376.45,-544.54"/>
<polygon fill="#4b8fc5" stroke="#4b8fc5" stroke-width="0.9" points="376.72,-546.46 381.62,-543.29 375.82,-542.71 376.72,-546.46"/>
</g>
<!-- in11 -->
<g id="node18" class="node">
<title>in11</title>
<polygon fill="#eef6ff" stroke="#4b8fc5" points="330.79,-532.2 219.52,-532.2 219.52,-495 336.79,-495 336.79,-526.2 330.79,-532.2"/>
<polyline fill="none" stroke="#4b8fc5" points="330.79,-532.2 330.79,-526.2"/>
<polyline fill="none" stroke="#4b8fc5" points="336.79,-526.2 330.79,-526.2"/>
<text xml:space="preserve" text-anchor="start" x="225.28" y="-520.1" font-family="Inter,Arial" font-size="10.00" fill="#123d5c">from rustls&#45;v0.23.40.svg</text>
<text xml:space="preserve" text-anchor="start" x="263.9" y="-510.1" font-family="Inter,Arial" font-weight="bold" font-size="10.00" fill="#123d5c">subtle</text>
<text xml:space="preserve" text-anchor="start" x="267.28" y="-500.1" font-family="Inter,Arial" font-size="10.00" fill="#123d5c">2.6.1</text>
</g>
<!-- in11&#45;&gt;n5 -->
<g id="edge20" class="edge">
<title>in11&#45;&gt;n5</title>
<path fill="none" stroke="#4b8fc5" stroke-width="0.9" stroke-dasharray="5,2" d="M337,-523.82C350.51,-526.21 364.45,-528.67 376.44,-530.79"/>
<polygon fill="#4b8fc5" stroke="#4b8fc5" stroke-width="0.9" points="375.79,-532.63 381.55,-531.7 376.46,-528.84 375.79,-532.63"/>
</g>
<!-- in12 -->
<g id="node19" class="node">
<title>in12</title>
<polygon fill="#eef6ff" stroke="#4b8fc5" points="138.27,-828.2 35.25,-828.2 35.25,-791 144.27,-791 144.27,-822.2 138.27,-828.2"/>
<polyline fill="none" stroke="#4b8fc5" points="138.27,-828.2 138.27,-822.2"/>
<polyline fill="none" stroke="#4b8fc5" points="144.27,-822.2 138.27,-822.2"/>
<text xml:space="preserve" text-anchor="start" x="41.01" y="-816.1" font-family="Inter,Arial" font-size="10.00" fill="#123d5c">from sha1&#45;v0.10.6.svg</text>
<text xml:space="preserve" text-anchor="start" x="75.51" y="-806.1" font-family="Inter,Arial" font-weight="bold" font-size="10.00" fill="#123d5c">digest</text>
<text xml:space="preserve" text-anchor="start" x="76.26" y="-796.1" font-family="Inter,Arial" font-size="10.00" fill="#123d5c">0.10.7</text>
</g>
<!-- in12&#45;&gt;n3 -->
<g id="edge21" class="edge">
<title>in12&#45;&gt;n3</title>
<path fill="none" stroke="#4b8fc5" stroke-width="0.9" stroke-dasharray="5,2" d="M144.73,-795.26C156.68,-790.88 168.93,-785.37 179.52,-778.6 212.23,-757.67 242.02,-723.7 259.87,-701.01"/>
<polygon fill="#4b8fc5" stroke="#4b8fc5" stroke-width="0.9" points="261.24,-702.39 263.1,-696.86 258.2,-700.02 261.24,-702.39"/>
</g>
<!-- in13 -->
<g id="node20" class="node">
<title>in13</title>
<polygon fill="#eef6ff" stroke="#4b8fc5" points="138.27,-766.2 35.25,-766.2 35.25,-729 144.27,-729 144.27,-760.2 138.27,-766.2"/>
<polyline fill="none" stroke="#4b8fc5" points="138.27,-766.2 138.27,-760.2"/>
<polyline fill="none" stroke="#4b8fc5" points="144.27,-760.2 138.27,-760.2"/>
<text xml:space="preserve" text-anchor="start" x="41.01" y="-754.1" font-family="Inter,Arial" font-size="10.00" fill="#123d5c">from sha2&#45;v0.10.9.svg</text>
<text xml:space="preserve" text-anchor="start" x="75.51" y="-744.1" font-family="Inter,Arial" font-weight="bold" font-size="10.00" fill="#123d5c">digest</text>
<text xml:space="preserve" text-anchor="start" x="76.26" y="-734.1" font-family="Inter,Arial" font-size="10.00" fill="#123d5c">0.10.7</text>
</g>
<!-- in13&#45;&gt;n3 -->
<g id="edge22" class="edge">
<title>in13&#45;&gt;n3</title>
<path fill="none" stroke="#4b8fc5" stroke-width="0.9" stroke-dasharray="5,2" d="M144.4,-729.29C156.02,-725.21 168.21,-720.83 179.52,-716.6 201.33,-708.44 225.65,-698.73 244.56,-691.04"/>
<polygon fill="#4b8fc5" stroke="#4b8fc5" stroke-width="0.9" points="245.13,-692.88 249.5,-689.02 243.68,-689.32 245.13,-692.88"/>
</g>
</g>
</svg>
