<?xml version="1.0" encoding="UTF-8" standalone="no"?>
<!DOCTYPE svg PUBLIC "-//W3C//DTD SVG 1.1//EN"
 "http://www.w3.org/Graphics/SVG/1.1/DTD/svg11.dtd">
<!-- Generated by graphviz version 14.1.2 (0)
 -->
<!-- Title: euclid&#45;v0.22.13 Pages: 1 -->
<svg width="416pt" height="62pt"
 viewBox="0.00 0.00 416.00 62.00" xmlns="http://www.w3.org/2000/svg" xmlns:xlink="http://www.w3.org/1999/xlink">
<g id="graph0" class="graph" transform="scale(1 1) rotate(0) translate(4 58.4)">
<title>euclid&#45;v0.22.13</title>
<polygon fill="white" stroke="none" points="-4,4 -4,-58.4 412.41,-58.4 412.41,4 -4,4"/>
<!-- n0 -->
<g id="node1" class="node">
<title>n0</title>
<path fill="#dff3ff" stroke="#1b78a6" d="M228.94,-46.9C228.94,-46.9 194.47,-46.9 194.47,-46.9 188.47,-46.9 182.47,-40.9 182.47,-34.9 182.47,-34.9 182.47,-19.5 182.47,-19.5 182.47,-13.5 188.47,-7.5 194.47,-7.5 194.47,-7.5 228.94,-7.5 228.94,-7.5 234.94,-7.5 240.94,-13.5 240.94,-19.5 240.94,-19.5 240.94,-34.9 240.94,-34.9 240.94,-40.9 234.94,-46.9 228.94,-46.9"/>
<text xml:space="preserve" text-anchor="start" x="192.2" y="-28.35" font-family="Inter,Arial" font-weight="bold" font-size="13.00" fill="#172033">euclid</text>
<text xml:space="preserve" text-anchor="start" x="191.83" y="-16.3" font-family="Inter,Arial" font-size="12.00" fill="#172033">0.22.13</text>
</g>
<!-- out0 -->
<g id="node2" class="node">
<title>out0</title>
<polygon fill="#fff8e8" stroke="#d19922" points="402.41,-54.4 280.94,-54.4 280.94,0 408.41,0 408.41,-48.4 402.41,-54.4"/>
<polyline fill="none" stroke="#d19922" points="402.41,-54.4 402.41,-48.4"/>
<polyline fill="none" stroke="#d19922" points="408.41,-48.4 402.41,-48.4"/>
<text xml:space="preserve" text-anchor="start" x="295.92" y="-38.7" font-family="Inter,Arial" font-size="10.00" fill="#614000">to crab&#45;usb&#45;v0.9.1.svg</text>
<text xml:space="preserve" text-anchor="start" x="321.05" y="-28.7" font-family="Inter,Arial" font-weight="bold" font-size="10.00" fill="#614000">num&#45;traits</text>
<text xml:space="preserve" text-anchor="start" x="331.17" y="-18.7" font-family="Inter,Arial" font-size="10.00" fill="#614000">0.2.19</text>
<text xml:space="preserve" text-anchor="start" x="290.3" y="-8.7" font-family="Inter,Arial" font-size="10.00" fill="#614000">/vendor/num&#45;traits&#45;0.2.19</text>
</g>
<!-- n0&#45;&gt;out0 -->
<g id="edge1" class="edge">
<title>n0&#45;&gt;out0</title>
<path fill="none" stroke="#d19922" stroke-width="7.2" stroke-dasharray="5,2" d="M241.12,-27.2C249.41,-27.2 258.89,-27.2 268.65,-27.2"/>
<polygon fill="#d19922" stroke="#d19922" stroke-width="7.2" points="268.38,-30.67 273.88,-27.2 268.38,-23.74 268.38,-30.67"/>
</g>
<!-- in1 -->
<g id="node3" class="node">
<title>in1</title>
<polygon fill="#eef6ff" stroke="#4b8fc5" points="136.47,-49.4 0,-49.4 0,-5 142.47,-5 142.47,-43.4 136.47,-49.4"/>
<polyline fill="none" stroke="#4b8fc5" points="136.47,-49.4 136.47,-43.4"/>
<polyline fill="none" stroke="#4b8fc5" points="142.47,-43.4 136.47,-43.4"/>
<text xml:space="preserve" text-anchor="start" x="9.36" y="-33.7" font-family="Inter,Arial" font-size="10.00" fill="#123d5c">from lyon_geom&#45;v1.0.19.svg</text>
<text xml:space="preserve" text-anchor="start" x="56.99" y="-23.7" font-family="Inter,Arial" font-weight="bold" font-size="10.00" fill="#123d5c">euclid</text>
<text xml:space="preserve" text-anchor="start" x="55.11" y="-13.7" font-family="Inter,Arial" font-size="10.00" fill="#123d5c">0.22.13</text>
</g>
<!-- in1&#45;&gt;n0 -->
<g id="edge2" class="edge">
<title>in1&#45;&gt;n0</title>
<path fill="none" stroke="#4b8fc5" stroke-width="7.2" stroke-dasharray="5,2" d="M142.69,-27.2C152.11,-27.2 161.51,-27.2 170.18,-27.2"/>
<polygon fill="#4b8fc5" stroke="#4b8fc5" stroke-width="7.2" points="170.02,-30.67 175.52,-27.2 170.02,-23.74 170.02,-30.67"/>
</g>
</g>
</svg>
