<?xml version="1.0" encoding="UTF-8" standalone="no"?>
<!DOCTYPE svg PUBLIC "-//W3C//DTD SVG 1.1//EN"
 "http://www.w3.org/Graphics/SVG/1.1/DTD/svg11.dtd">
<!-- Generated by graphviz version 14.1.2 (0)
 -->
<!-- Title: euclid&#45;v0.22.13 Pages: 1 -->
<svg width="398pt" height="55pt"
 viewBox="0.00 0.00 398.00 55.00" xmlns="http://www.w3.org/2000/svg" xmlns:xlink="http://www.w3.org/1999/xlink">
<g id="graph0" class="graph" transform="scale(1 1) rotate(0) translate(4 51.2)">
<title>euclid&#45;v0.22.13</title>
<polygon fill="white" stroke="none" points="-4,4 -4,-51.2 393.54,-51.2 393.54,4 -4,4"/>
<!-- n0 -->
<g id="node1" class="node">
<title>n0</title>
<path fill="#dff3ff" stroke="#1b78a6" d="M217.27,-41.6C217.27,-41.6 187.27,-41.6 187.27,-41.6 181.27,-41.6 175.27,-35.6 175.27,-29.6 175.27,-29.6 175.27,-17.6 175.27,-17.6 175.27,-11.6 181.27,-5.6 187.27,-5.6 187.27,-5.6 217.27,-5.6 217.27,-5.6 223.27,-5.6 229.27,-11.6 229.27,-17.6 229.27,-17.6 229.27,-29.6 229.27,-29.6 229.27,-35.6 223.27,-41.6 217.27,-41.6"/>
<text xml:space="preserve" text-anchor="start" x="188.02" y="-25.1" font-family="Inter,Arial" font-weight="bold" font-size="10.00" fill="#172033">euclid</text>
<text xml:space="preserve" text-anchor="start" x="186.14" y="-15.1" font-family="Inter,Arial" font-size="10.00" fill="#172033">0.22.13</text>
</g>
<!-- out0 -->
<g id="node2" class="node">
<title>out0</title>
<polygon fill="#fff8e8" stroke="#d19922" points="383.54,-47.2 269.27,-47.2 269.27,0 389.54,0 389.54,-41.2 383.54,-47.2"/>
<polyline fill="none" stroke="#d19922" points="383.54,-47.2 383.54,-41.2"/>
<polyline fill="none" stroke="#d19922" points="389.54,-41.2 383.54,-41.2"/>
<text xml:space="preserve" text-anchor="start" x="280.65" y="-35.1" font-family="Inter,Arial" font-size="10.00" fill="#614000">to crab&#45;usb&#45;v0.9.1.svg</text>
<text xml:space="preserve" text-anchor="start" x="305.78" y="-25.1" font-family="Inter,Arial" font-weight="bold" font-size="10.00" fill="#614000">num&#45;traits</text>
<text xml:space="preserve" text-anchor="start" x="315.9" y="-15.1" font-family="Inter,Arial" font-size="10.00" fill="#614000">0.2.19</text>
<text xml:space="preserve" text-anchor="start" x="275.03" y="-5.1" font-family="Inter,Arial" font-size="10.00" fill="#614000">/vendor/num&#45;traits&#45;0.2.19</text>
</g>
<!-- n0&#45;&gt;out0 -->
<g id="edge1" class="edge">
<title>n0&#45;&gt;out0</title>
<path fill="none" stroke="#d19922" stroke-width="0.9" stroke-dasharray="5,2" d="M229.5,-23.6C239.15,-23.6 250.56,-23.6 262.13,-23.6"/>
<polygon fill="#d19922" stroke="#d19922" stroke-width="0.9" points="262.1,-25.53 267.6,-23.6 262.1,-21.68 262.1,-25.53"/>
</g>
<!-- in1 -->
<g id="node3" class="node">
<title>in1</title>
<polygon fill="#eef6ff" stroke="#4b8fc5" points="129.27,-42.2 0,-42.2 0,-5 135.27,-5 135.27,-36.2 129.27,-42.2"/>
<polyline fill="none" stroke="#4b8fc5" points="129.27,-42.2 129.27,-36.2"/>
<polyline fill="none" stroke="#4b8fc5" points="135.27,-36.2 129.27,-36.2"/>
<text xml:space="preserve" text-anchor="start" x="5.76" y="-30.1" font-family="Inter,Arial" font-size="10.00" fill="#123d5c">from lyon_geom&#45;v1.0.19.svg</text>
<text xml:space="preserve" text-anchor="start" x="53.38" y="-20.1" font-family="Inter,Arial" font-weight="bold" font-size="10.00" fill="#123d5c">euclid</text>
<text xml:space="preserve" text-anchor="start" x="51.51" y="-10.1" font-family="Inter,Arial" font-size="10.00" fill="#123d5c">0.22.13</text>
</g>
<!-- in1&#45;&gt;n0 -->
<g id="edge2" class="edge">
<title>in1&#45;&gt;n0</title>
<path fill="none" stroke="#4b8fc5" stroke-width="0.9" stroke-dasharray="5,2" d="M135.73,-23.6C147.01,-23.6 158.25,-23.6 168.16,-23.6"/>
<polygon fill="#4b8fc5" stroke="#4b8fc5" stroke-width="0.9" points="167.94,-25.53 173.44,-23.6 167.94,-21.68 167.94,-25.53"/>
</g>
</g>
</svg>
