<?xml version="1.0" encoding="UTF-8" standalone="no"?>
<!DOCTYPE svg PUBLIC "-//W3C//DTD SVG 1.1//EN"
 "http://www.w3.org/Graphics/SVG/1.1/DTD/svg11.dtd">
<!-- Generated by graphviz version 14.1.2 (0)
 -->
<!-- Title: getrandom&#45;v0.2.17 Pages: 1 -->
<svg width="465pt" height="62pt"
 viewBox="0.00 0.00 465.00 62.00" xmlns="http://www.w3.org/2000/svg" xmlns:xlink="http://www.w3.org/1999/xlink">
<g id="graph0" class="graph" transform="scale(1 1) rotate(0) translate(4 58.4)">
<title>getrandom&#45;v0.2.17</title>
<polygon fill="white" stroke="none" points="-4,4 -4,-58.4 461.16,-58.4 461.16,4 -4,4"/>
<!-- n0 -->
<g id="node1" class="node">
<title>n0</title>
<path fill="#dff3ff" stroke="#1b78a6" d="M303.94,-52.4C303.94,-52.4 184.72,-52.4 184.72,-52.4 178.72,-52.4 172.72,-46.4 172.72,-40.4 172.72,-40.4 172.72,-14 172.72,-14 172.72,-8 178.72,-2 184.72,-2 184.72,-2 303.94,-2 303.94,-2 309.94,-2 315.94,-8 315.94,-14 315.94,-14 315.94,-40.4 315.94,-40.4 315.94,-46.4 309.94,-52.4 303.94,-52.4"/>
<text xml:space="preserve" text-anchor="start" x="209.83" y="-33.85" font-family="Inter,Arial" font-weight="bold" font-size="13.00" fill="#172033">getrandom</text>
<text xml:space="preserve" text-anchor="start" x="227.83" y="-21.8" font-family="Inter,Arial" font-size="12.00" fill="#172033">0.2.17</text>
<text xml:space="preserve" text-anchor="start" x="182.08" y="-10.75" font-family="Inter,Arial" font-size="11.00" fill="#172033">/vendor/getrandom&#45;0.2.17</text>
</g>
<!-- out0 -->
<g id="node2" class="node">
<title>out0</title>
<polygon fill="#fff8e8" stroke="#d19922" points="451.16,-49.4 355.94,-49.4 355.94,-5 457.16,-5 457.16,-43.4 451.16,-49.4"/>
<polyline fill="none" stroke="#d19922" points="451.16,-49.4 451.16,-43.4"/>
<polyline fill="none" stroke="#d19922" points="457.16,-43.4 451.16,-43.4"/>
<text xml:space="preserve" text-anchor="start" x="365.3" y="-33.7" font-family="Inter,Arial" font-size="10.00" fill="#614000">to alsa&#45;v0.11.0.svg</text>
<text xml:space="preserve" text-anchor="start" x="394.92" y="-23.7" font-family="Inter,Arial" font-weight="bold" font-size="10.00" fill="#614000">cfg&#45;if</text>
<text xml:space="preserve" text-anchor="start" x="395.67" y="-13.7" font-family="Inter,Arial" font-size="10.00" fill="#614000">1.0.4</text>
</g>
<!-- n0&#45;&gt;out0 -->
<g id="edge1" class="edge">
<title>n0&#45;&gt;out0</title>
<path fill="none" stroke="#d19922" stroke-width="7.2" stroke-dasharray="5,2" d="M316.07,-27.2C325.29,-27.2 334.68,-27.2 343.74,-27.2"/>
<polygon fill="#d19922" stroke="#d19922" stroke-width="7.2" points="343.59,-30.67 349.09,-27.2 343.59,-23.74 343.59,-30.67"/>
</g>
<!-- in1 -->
<g id="node3" class="node">
<title>in1</title>
<polygon fill="#eef6ff" stroke="#4b8fc5" points="126.72,-54.4 0,-54.4 0,0 132.72,0 132.72,-48.4 126.72,-54.4"/>
<polyline fill="none" stroke="#4b8fc5" points="126.72,-54.4 126.72,-48.4"/>
<polyline fill="none" stroke="#4b8fc5" points="132.72,-48.4 126.72,-48.4"/>
<text xml:space="preserve" text-anchor="start" x="9.36" y="-38.7" font-family="Inter,Arial" font-size="10.00" fill="#123d5c">from rand_core&#45;v0.6.4.svg</text>
<text xml:space="preserve" text-anchor="start" x="41.24" y="-28.7" font-family="Inter,Arial" font-weight="bold" font-size="10.00" fill="#123d5c">getrandom</text>
<text xml:space="preserve" text-anchor="start" x="52.86" y="-18.7" font-family="Inter,Arial" font-size="10.00" fill="#123d5c">0.2.17</text>
<text xml:space="preserve" text-anchor="start" x="10.86" y="-8.7" font-family="Inter,Arial" font-size="10.00" fill="#123d5c">/vendor/getrandom&#45;0.2.17</text>
</g>
<!-- in1&#45;&gt;n0 -->
<g id="edge2" class="edge">
<title>in1&#45;&gt;n0</title>
<path fill="none" stroke="#4b8fc5" stroke-width="7.2" stroke-dasharray="5,2" d="M133.13,-27.2C141.93,-27.2 151.04,-27.2 160.08,-27.2"/>
<polygon fill="#4b8fc5" stroke="#4b8fc5" stroke-width="7.2" points="160.08,-30.67 165.58,-27.2 160.08,-23.74 160.08,-30.67"/>
</g>
</g>
</svg>
