<?xml version="1.0" encoding="UTF-8" standalone="no"?>
<!DOCTYPE svg PUBLIC "-//W3C//DTD SVG 1.1//EN"
 "http://www.w3.org/Graphics/SVG/1.1/DTD/svg11.dtd">
<!-- Generated by graphviz version 14.1.2 (0)
 -->
<!-- Title: hashbrown&#45;v0.17.1 Pages: 1 -->
<svg width="404pt" height="119pt"
 viewBox="0.00 0.00 404.00 119.00" xmlns="http://www.w3.org/2000/svg" xmlns:xlink="http://www.w3.org/1999/xlink">
<g id="graph0" class="graph" transform="scale(1 1) rotate(0) translate(4 115.4)">
<title>hashbrown&#45;v0.17.1</title>
<polygon fill="white" stroke="none" points="-4,4 -4,-115.4 400.41,-115.4 400.41,4 -4,4"/>
<!-- n0 -->
<g id="node1" class="node">
<title>n0</title>
<path fill="#dff3ff" stroke="#1b78a6" d="M250.69,-41.9C250.69,-41.9 184.72,-41.9 184.72,-41.9 178.72,-41.9 172.72,-35.9 172.72,-29.9 172.72,-29.9 172.72,-14.5 172.72,-14.5 172.72,-8.5 178.72,-2.5 184.72,-2.5 184.72,-2.5 250.69,-2.5 250.69,-2.5 256.69,-2.5 262.69,-8.5 262.69,-14.5 262.69,-14.5 262.69,-29.9 262.69,-29.9 262.69,-35.9 256.69,-41.9 250.69,-41.9"/>
<text xml:space="preserve" text-anchor="start" x="182.08" y="-23.35" font-family="Inter,Arial" font-weight="bold" font-size="13.00" fill="#172033">hashbrown</text>
<text xml:space="preserve" text-anchor="start" x="201.2" y="-11.3" font-family="Inter,Arial" font-size="12.00" fill="#172033">0.17.1</text>
</g>
<!-- n1 -->
<g id="node2" class="node">
<title>n1</title>
<path fill="#f7f9fb" stroke="#8b9bb0" d="M384.41,-74.9C384.41,-74.9 333.44,-74.9 333.44,-74.9 327.44,-74.9 321.44,-68.9 321.44,-62.9 321.44,-62.9 321.44,-47.5 321.44,-47.5 321.44,-41.5 327.44,-35.5 333.44,-35.5 333.44,-35.5 384.41,-35.5 384.41,-35.5 390.41,-35.5 396.41,-41.5 396.41,-47.5 396.41,-47.5 396.41,-62.9 396.41,-62.9 396.41,-68.9 390.41,-74.9 384.41,-74.9"/>
<text xml:space="preserve" text-anchor="start" x="330.8" y="-56.35" font-family="Inter,Arial" font-weight="bold" font-size="13.00" fill="#172033">foldhash</text>
<text xml:space="preserve" text-anchor="start" x="345.8" y="-44.3" font-family="Inter,Arial" font-size="12.00" fill="#172033">0.2.0</text>
</g>
<!-- n0&#45;&gt;n1 -->
<g id="edge1" class="edge">
<title>n0&#45;&gt;n1</title>
<path fill="none" stroke="#9aa8b8" stroke-width="0.9" d="M263.14,-32.73C279.72,-36.66 298.5,-41.11 314.95,-45.01"/>
<polygon fill="#9aa8b8" stroke="#9aa8b8" stroke-width="0.9" points="314.24,-46.82 320.04,-46.22 315.13,-43.08 314.24,-46.82"/>
</g>
<!-- in0 -->
<g id="node3" class="node">
<title>in0</title>
<polygon fill="#eef6ff" stroke="#4b8fc5" points="107.97,-44.4 0,-44.4 0,0 113.97,0 113.97,-38.4 107.97,-44.4"/>
<polyline fill="none" stroke="#4b8fc5" points="107.97,-44.4 107.97,-38.4"/>
<polyline fill="none" stroke="#4b8fc5" points="113.97,-38.4 107.97,-38.4"/>
<text xml:space="preserve" text-anchor="start" x="9.36" y="-28.7" font-family="Inter,Arial" font-size="10.00" fill="#123d5c">from hyper&#45;v1.9.0.svg</text>
<text xml:space="preserve" text-anchor="start" x="31.11" y="-18.7" font-family="Inter,Arial" font-weight="bold" font-size="10.00" fill="#123d5c">hashbrown</text>
<text xml:space="preserve" text-anchor="start" x="43.49" y="-8.7" font-family="Inter,Arial" font-size="10.00" fill="#123d5c">0.17.1</text>
</g>
<!-- in0&#45;&gt;n0 -->
<g id="edge2" class="edge">
<title>in0&#45;&gt;n0</title>
<path fill="none" stroke="#4b8fc5" stroke-width="0.9" stroke-dasharray="5,2" d="M114.39,-22.2C131.22,-22.2 149.57,-22.2 166.01,-22.2"/>
<polygon fill="#4b8fc5" stroke="#4b8fc5" stroke-width="0.9" points="165.59,-24.13 171.09,-22.2 165.59,-20.28 165.59,-24.13"/>
</g>
<!-- in1 -->
<g id="node4" class="node">
<title>in1</title>
<polygon fill="#eef6ff" stroke="#4b8fc5" points="275.44,-111.4 153.97,-111.4 153.97,-67 281.44,-67 281.44,-105.4 275.44,-111.4"/>
<polyline fill="none" stroke="#4b8fc5" points="275.44,-111.4 275.44,-105.4"/>
<polyline fill="none" stroke="#4b8fc5" points="281.44,-105.4 275.44,-105.4"/>
<text xml:space="preserve" text-anchor="start" x="163.33" y="-95.7" font-family="Inter,Arial" font-size="10.00" fill="#123d5c">from parry2d&#45;v0.26.1.svg</text>
<text xml:space="preserve" text-anchor="start" x="197.45" y="-85.7" font-family="Inter,Arial" font-weight="bold" font-size="10.00" fill="#123d5c">foldhash</text>
<text xml:space="preserve" text-anchor="start" x="206.83" y="-75.7" font-family="Inter,Arial" font-size="10.00" fill="#123d5c">0.2.0</text>
</g>
<!-- in1&#45;&gt;n1 -->
<g id="edge3" class="edge">
<title>in1&#45;&gt;n1</title>
<path fill="none" stroke="#4b8fc5" stroke-width="0.9" stroke-dasharray="5,2" d="M281.8,-73.79C293,-71.06 304.43,-68.27 314.91,-65.71"/>
<polygon fill="#4b8fc5" stroke="#4b8fc5" stroke-width="0.9" points="315.09,-67.64 319.98,-64.47 314.18,-63.9 315.09,-67.64"/>
</g>
</g>
</svg>
