<?xml version="1.0" encoding="UTF-8" standalone="no"?>
<!DOCTYPE svg PUBLIC "-//W3C//DTD SVG 1.1//EN"
 "http://www.w3.org/Graphics/SVG/1.1/DTD/svg11.dtd">
<!-- Generated by graphviz version 14.1.2 (0)
 -->
<!-- Title: hashbrown&#45;v0.17.1 Pages: 1 -->
<svg width="369pt" height="107pt"
 viewBox="0.00 0.00 369.00 107.00" xmlns="http://www.w3.org/2000/svg" xmlns:xlink="http://www.w3.org/1999/xlink">
<g id="graph0" class="graph" transform="scale(1 1) rotate(0) translate(4 103.2)">
<title>hashbrown&#45;v0.17.1</title>
<polygon fill="white" stroke="none" points="-4,4 -4,-103.2 365.04,-103.2 365.04,4 -4,4"/>
<!-- n0 -->
<g id="node1" class="node">
<title>n0</title>
<path fill="#dff3ff" stroke="#1b78a6" d="M226.54,-36.6C226.54,-36.6 187.27,-36.6 187.27,-36.6 181.27,-36.6 175.27,-30.6 175.27,-24.6 175.27,-24.6 175.27,-12.6 175.27,-12.6 175.27,-6.6 181.27,-0.6 187.27,-0.6 187.27,-0.6 226.54,-0.6 226.54,-0.6 232.54,-0.6 238.54,-6.6 238.54,-12.6 238.54,-12.6 238.54,-24.6 238.54,-24.6 238.54,-30.6 232.54,-36.6 226.54,-36.6"/>
<text xml:space="preserve" text-anchor="start" x="181.03" y="-20.1" font-family="Inter,Arial" font-weight="bold" font-size="10.00" fill="#172033">hashbrown</text>
<text xml:space="preserve" text-anchor="start" x="193.4" y="-10.1" font-family="Inter,Arial" font-size="10.00" fill="#172033">0.17.1</text>
</g>
<!-- n1 -->
<g id="node2" class="node">
<title>n1</title>
<path fill="#f7f9fb" stroke="#8b9bb0" d="M349.04,-67.6C349.04,-67.6 319.04,-67.6 319.04,-67.6 313.04,-67.6 307.04,-61.6 307.04,-55.6 307.04,-55.6 307.04,-43.6 307.04,-43.6 307.04,-37.6 313.04,-31.6 319.04,-31.6 319.04,-31.6 349.04,-31.6 349.04,-31.6 355.04,-31.6 361.04,-37.6 361.04,-43.6 361.04,-43.6 361.04,-55.6 361.04,-55.6 361.04,-61.6 355.04,-67.6 349.04,-67.6"/>
<text xml:space="preserve" text-anchor="start" x="313.79" y="-51.1" font-family="Inter,Arial" font-weight="bold" font-size="10.00" fill="#172033">foldhash</text>
<text xml:space="preserve" text-anchor="start" x="323.16" y="-41.1" font-family="Inter,Arial" font-size="10.00" fill="#172033">0.2.0</text>
</g>
<!-- n0&#45;&gt;n1 -->
<g id="edge1" class="edge">
<title>n0&#45;&gt;n1</title>
<path fill="none" stroke="#9aa8b8" stroke-width="0.9" d="M238.84,-26.26C257.56,-30.9 281.42,-36.81 300.44,-41.52"/>
<polygon fill="#9aa8b8" stroke="#9aa8b8" stroke-width="0.9" points="299.57,-43.29 305.37,-42.75 300.5,-39.55 299.57,-43.29"/>
</g>
<!-- in0 -->
<g id="node3" class="node">
<title>in0</title>
<polygon fill="#eef6ff" stroke="#4b8fc5" points="100.77,-37.2 0,-37.2 0,0 106.77,0 106.77,-31.2 100.77,-37.2"/>
<polyline fill="none" stroke="#4b8fc5" points="100.77,-37.2 100.77,-31.2"/>
<polyline fill="none" stroke="#4b8fc5" points="106.77,-31.2 100.77,-31.2"/>
<text xml:space="preserve" text-anchor="start" x="5.76" y="-25.1" font-family="Inter,Arial" font-size="10.00" fill="#123d5c">from hyper&#45;v1.9.0.svg</text>
<text xml:space="preserve" text-anchor="start" x="27.51" y="-15.1" font-family="Inter,Arial" font-weight="bold" font-size="10.00" fill="#123d5c">hashbrown</text>
<text xml:space="preserve" text-anchor="start" x="39.88" y="-5.1" font-family="Inter,Arial" font-size="10.00" fill="#123d5c">0.17.1</text>
</g>
<!-- in0&#45;&gt;n0 -->
<g id="edge2" class="edge">
<title>in0&#45;&gt;n0</title>
<path fill="none" stroke="#4b8fc5" stroke-width="0.9" stroke-dasharray="5,2" d="M106.95,-18.6C127.2,-18.6 149.9,-18.6 168.44,-18.6"/>
<polygon fill="#4b8fc5" stroke="#4b8fc5" stroke-width="0.9" points="168.21,-20.53 173.71,-18.6 168.21,-16.68 168.21,-20.53"/>
</g>
<!-- in1 -->
<g id="node4" class="node">
<title>in1</title>
<polygon fill="#eef6ff" stroke="#4b8fc5" points="261.04,-99.2 146.77,-99.2 146.77,-62 267.04,-62 267.04,-93.2 261.04,-99.2"/>
<polyline fill="none" stroke="#4b8fc5" points="261.04,-99.2 261.04,-93.2"/>
<polyline fill="none" stroke="#4b8fc5" points="267.04,-93.2 261.04,-93.2"/>
<text xml:space="preserve" text-anchor="start" x="152.53" y="-87.1" font-family="Inter,Arial" font-size="10.00" fill="#123d5c">from parry2d&#45;v0.26.0.svg</text>
<text xml:space="preserve" text-anchor="start" x="186.65" y="-77.1" font-family="Inter,Arial" font-weight="bold" font-size="10.00" fill="#123d5c">foldhash</text>
<text xml:space="preserve" text-anchor="start" x="196.03" y="-67.1" font-family="Inter,Arial" font-size="10.00" fill="#123d5c">0.2.0</text>
</g>
<!-- in1&#45;&gt;n1 -->
<g id="edge3" class="edge">
<title>in1&#45;&gt;n1</title>
<path fill="none" stroke="#4b8fc5" stroke-width="0.9" stroke-dasharray="5,2" d="M267.17,-65.92C278.57,-63.09 290.12,-60.23 300.3,-57.71"/>
<polygon fill="#4b8fc5" stroke="#4b8fc5" stroke-width="0.9" points="300.57,-59.63 305.44,-56.44 299.64,-55.89 300.57,-59.63"/>
</g>
</g>
</svg>
