<?xml version="1.0" encoding="UTF-8" standalone="no"?>
<!DOCTYPE svg PUBLIC "-//W3C//DTD SVG 1.1//EN"
 "http://www.w3.org/Graphics/SVG/1.1/DTD/svg11.dtd">
<!-- Generated by graphviz version 14.1.2 (0)
 -->
<!-- Title: heapless&#45;v0.9.3 Pages: 1 -->
<svg width="455pt" height="231pt"
 viewBox="0.00 0.00 455.00 231.00" xmlns="http://www.w3.org/2000/svg" xmlns:xlink="http://www.w3.org/1999/xlink">
<g id="graph0" class="graph" transform="scale(1 1) rotate(0) translate(4 227.2)">
<title>heapless&#45;v0.9.3</title>
<polygon fill="white" stroke="none" points="-4,4 -4,-227.2 451.29,-227.2 451.29,4 -4,4"/>
<!-- n0 -->
<g id="node1" class="node">
<title>n0</title>
<path fill="#dff3ff" stroke="#1b78a6" d="M260.02,-129.6C260.02,-129.6 230.02,-129.6 230.02,-129.6 224.02,-129.6 218.02,-123.6 218.02,-117.6 218.02,-117.6 218.02,-105.6 218.02,-105.6 218.02,-99.6 224.02,-93.6 230.02,-93.6 230.02,-93.6 260.02,-93.6 260.02,-93.6 266.02,-93.6 272.02,-99.6 272.02,-105.6 272.02,-105.6 272.02,-117.6 272.02,-117.6 272.02,-123.6 266.02,-129.6 260.02,-129.6"/>
<text xml:space="preserve" text-anchor="start" x="224.39" y="-113.1" font-family="Inter,Arial" font-weight="bold" font-size="10.00" fill="#172033">heapless</text>
<text xml:space="preserve" text-anchor="start" x="234.14" y="-103.1" font-family="Inter,Arial" font-size="10.00" fill="#172033">0.9.3</text>
</g>
<!-- out0 -->
<g id="node2" class="node">
<title>out0</title>
<polygon fill="#fff8e8" stroke="#d19922" points="441.29,-140.2 312.02,-140.2 312.02,-83 447.29,-83 447.29,-134.2 441.29,-140.2"/>
<polyline fill="none" stroke="#d19922" points="441.29,-140.2 441.29,-134.2"/>
<polyline fill="none" stroke="#d19922" points="447.29,-134.2 441.29,-134.2"/>
<text xml:space="preserve" text-anchor="start" x="317.78" y="-128.1" font-family="Inter,Arial" font-size="10.00" fill="#614000">to embassy&#45;sync&#45;v0.8.0.svg</text>
<text xml:space="preserve" text-anchor="start" x="363.15" y="-118.1" font-family="Inter,Arial" font-weight="bold" font-size="10.00" fill="#614000">hash32</text>
<text xml:space="preserve" text-anchor="start" x="368.78" y="-108.1" font-family="Inter,Arial" font-size="10.00" fill="#614000">0.3.1</text>
<text xml:space="preserve" text-anchor="start" x="339.9" y="-98.1" font-family="Inter,Arial" font-weight="bold" font-size="10.00" fill="#614000">stable_deref_trait</text>
<text xml:space="preserve" text-anchor="start" x="368.78" y="-88.1" font-family="Inter,Arial" font-size="10.00" fill="#614000">1.2.1</text>
</g>
<!-- n0&#45;&gt;out0 -->
<g id="edge1" class="edge">
<title>n0&#45;&gt;out0</title>
<path fill="none" stroke="#d19922" stroke-width="0.9" stroke-dasharray="5,2" d="M272.22,-111.6C281.84,-111.6 293.27,-111.6 305,-111.6"/>
<polygon fill="#d19922" stroke="#d19922" stroke-width="0.9" points="304.68,-113.53 310.18,-111.6 304.68,-109.68 304.68,-113.53"/>
</g>
<!-- in1 -->
<g id="node3" class="node">
<title>in1</title>
<polygon fill="#eef6ff" stroke="#4b8fc5" points="156.27,-223.2 15.75,-223.2 15.75,-186 162.27,-186 162.27,-217.2 156.27,-223.2"/>
<polyline fill="none" stroke="#4b8fc5" points="156.27,-223.2 156.27,-217.2"/>
<polyline fill="none" stroke="#4b8fc5" points="162.27,-217.2 156.27,-217.2"/>
<text xml:space="preserve" text-anchor="start" x="21.51" y="-211.1" font-family="Inter,Arial" font-size="10.00" fill="#123d5c">from embassy&#45;sync&#45;v0.8.0.svg</text>
<text xml:space="preserve" text-anchor="start" x="68.38" y="-201.1" font-family="Inter,Arial" font-weight="bold" font-size="10.00" fill="#123d5c">heapless</text>
<text xml:space="preserve" text-anchor="start" x="78.13" y="-191.1" font-family="Inter,Arial" font-size="10.00" fill="#123d5c">0.9.3</text>
</g>
<!-- in1&#45;&gt;n0 -->
<g id="edge2" class="edge">
<title>in1&#45;&gt;n0</title>
<path fill="none" stroke="#4b8fc5" stroke-width="0.9" stroke-dasharray="5,2" d="M153.96,-185.65C162.31,-182.15 170.55,-178.15 178.02,-173.6 195.1,-163.22 211.49,-147.86 223.66,-135.02"/>
<polygon fill="#4b8fc5" stroke="#4b8fc5" stroke-width="0.9" points="225.01,-136.4 227.35,-131.06 222.2,-133.77 225.01,-136.4"/>
</g>
<!-- in2 -->
<g id="node4" class="node">
<title>in2</title>
<polygon fill="#eef6ff" stroke="#4b8fc5" points="172.02,-161.2 0,-161.2 0,-124 178.02,-124 178.02,-155.2 172.02,-161.2"/>
<polyline fill="none" stroke="#4b8fc5" points="172.02,-161.2 172.02,-155.2"/>
<polyline fill="none" stroke="#4b8fc5" points="178.02,-155.2 172.02,-155.2"/>
<text xml:space="preserve" text-anchor="start" x="5.76" y="-149.1" font-family="Inter,Arial" font-size="10.00" fill="#123d5c">from embedded&#45;websocket&#45;v0.9.4.svg</text>
<text xml:space="preserve" text-anchor="start" x="68.38" y="-139.1" font-family="Inter,Arial" font-weight="bold" font-size="10.00" fill="#123d5c">heapless</text>
<text xml:space="preserve" text-anchor="start" x="78.13" y="-129.1" font-family="Inter,Arial" font-size="10.00" fill="#123d5c">0.9.3</text>
</g>
<!-- in2&#45;&gt;n0 -->
<g id="edge3" class="edge">
<title>in2&#45;&gt;n0</title>
<path fill="none" stroke="#4b8fc5" stroke-width="0.9" stroke-dasharray="5,2" d="M178.26,-124.84C189.95,-122.48 201.28,-120.2 211.15,-118.22"/>
<polygon fill="#4b8fc5" stroke="#4b8fc5" stroke-width="0.9" points="211.39,-120.13 216.4,-117.16 210.63,-116.36 211.39,-120.13"/>
</g>
<!-- in3 -->
<g id="node5" class="node">
<title>in3</title>
<polygon fill="#eef6ff" stroke="#4b8fc5" points="144.27,-99.2 27.75,-99.2 27.75,-62 150.27,-62 150.27,-93.2 144.27,-99.2"/>
<polyline fill="none" stroke="#4b8fc5" points="144.27,-99.2 144.27,-93.2"/>
<polyline fill="none" stroke="#4b8fc5" points="150.27,-93.2 144.27,-93.2"/>
<text xml:space="preserve" text-anchor="start" x="33.51" y="-87.1" font-family="Inter,Arial" font-size="10.00" fill="#123d5c">from smoltcp&#45;v0.13.1.svg</text>
<text xml:space="preserve" text-anchor="start" x="68.38" y="-77.1" font-family="Inter,Arial" font-weight="bold" font-size="10.00" fill="#123d5c">heapless</text>
<text xml:space="preserve" text-anchor="start" x="78.13" y="-67.1" font-family="Inter,Arial" font-size="10.00" fill="#123d5c">0.9.3</text>
</g>
<!-- in3&#45;&gt;n0 -->
<g id="edge4" class="edge">
<title>in3&#45;&gt;n0</title>
<path fill="none" stroke="#4b8fc5" stroke-width="0.9" stroke-dasharray="5,2" d="M150.44,-92.76C171.15,-96.93 193.55,-101.44 211.23,-105"/>
<polygon fill="#4b8fc5" stroke="#4b8fc5" stroke-width="0.9" points="210.42,-106.8 216.19,-106 211.18,-103.03 210.42,-106.8"/>
</g>
<!-- in4 -->
<g id="node6" class="node">
<title>in4</title>
<polygon fill="#eef6ff" stroke="#4b8fc5" points="147.27,-37.2 24.75,-37.2 24.75,0 153.27,0 153.27,-31.2 147.27,-37.2"/>
<polyline fill="none" stroke="#4b8fc5" points="147.27,-37.2 147.27,-31.2"/>
<polyline fill="none" stroke="#4b8fc5" points="153.27,-31.2 147.27,-31.2"/>
<text xml:space="preserve" text-anchor="start" x="30.51" y="-25.1" font-family="Inter,Arial" font-size="10.00" fill="#123d5c">from trueos&#45;esp&#45;v0.1.0.svg</text>
<text xml:space="preserve" text-anchor="start" x="68.38" y="-15.1" font-family="Inter,Arial" font-weight="bold" font-size="10.00" fill="#123d5c">heapless</text>
<text xml:space="preserve" text-anchor="start" x="78.13" y="-5.1" font-family="Inter,Arial" font-size="10.00" fill="#123d5c">0.9.3</text>
</g>
<!-- in4&#45;&gt;n0 -->
<g id="edge5" class="edge">
<title>in4&#45;&gt;n0</title>
<path fill="none" stroke="#4b8fc5" stroke-width="0.9" stroke-dasharray="5,2" d="M153.5,-37.36C162,-40.9 170.41,-44.97 178.02,-49.6 195.1,-59.98 211.49,-75.34 223.66,-88.18"/>
<polygon fill="#4b8fc5" stroke="#4b8fc5" stroke-width="0.9" points="222.2,-89.43 227.35,-92.14 225.01,-86.8 222.2,-89.43"/>
</g>
</g>
</svg>
