<?xml version="1.0" encoding="UTF-8" standalone="no"?>
<!DOCTYPE svg PUBLIC "-//W3C//DTD SVG 1.1//EN"
 "http://www.w3.org/Graphics/SVG/1.1/DTD/svg11.dtd">
<!-- Generated by graphviz version 14.1.2 (0)
 -->
<!-- Title: heapless&#45;v0.9.3 Pages: 1 -->
<svg width="492pt" height="259pt"
 viewBox="0.00 0.00 492.00 259.00" xmlns="http://www.w3.org/2000/svg" xmlns:xlink="http://www.w3.org/1999/xlink">
<g id="graph0" class="graph" transform="scale(1 1) rotate(0) translate(4 255.4)">
<title>heapless&#45;v0.9.3</title>
<polygon fill="white" stroke="none" points="-4,4 -4,-255.4 488.16,-255.4 488.16,4 -4,4"/>
<!-- n0 -->
<g id="node1" class="node">
<title>n0</title>
<path fill="#dff3ff" stroke="#1b78a6" d="M289.69,-144.9C289.69,-144.9 237.22,-144.9 237.22,-144.9 231.22,-144.9 225.22,-138.9 225.22,-132.9 225.22,-132.9 225.22,-117.5 225.22,-117.5 225.22,-111.5 231.22,-105.5 237.22,-105.5 237.22,-105.5 289.69,-105.5 289.69,-105.5 295.69,-105.5 301.69,-111.5 301.69,-117.5 301.69,-117.5 301.69,-132.9 301.69,-132.9 301.69,-138.9 295.69,-144.9 289.69,-144.9"/>
<text xml:space="preserve" text-anchor="start" x="234.58" y="-126.35" font-family="Inter,Arial" font-weight="bold" font-size="13.00" fill="#172033">heapless</text>
<text xml:space="preserve" text-anchor="start" x="250.33" y="-114.3" font-family="Inter,Arial" font-size="12.00" fill="#172033">0.9.3</text>
</g>
<!-- out0 -->
<g id="node2" class="node">
<title>out0</title>
<polygon fill="#fff8e8" stroke="#d19922" points="478.16,-157.4 341.69,-157.4 341.69,-93 484.16,-93 484.16,-151.4 478.16,-157.4"/>
<polyline fill="none" stroke="#d19922" points="478.16,-157.4 478.16,-151.4"/>
<polyline fill="none" stroke="#d19922" points="484.16,-151.4 478.16,-151.4"/>
<text xml:space="preserve" text-anchor="start" x="351.05" y="-141.7" font-family="Inter,Arial" font-size="10.00" fill="#614000">to embassy&#45;sync&#45;v0.8.0.svg</text>
<text xml:space="preserve" text-anchor="start" x="396.42" y="-131.7" font-family="Inter,Arial" font-weight="bold" font-size="10.00" fill="#614000">hash32</text>
<text xml:space="preserve" text-anchor="start" x="402.05" y="-121.7" font-family="Inter,Arial" font-size="10.00" fill="#614000">0.3.1</text>
<text xml:space="preserve" text-anchor="start" x="373.17" y="-111.7" font-family="Inter,Arial" font-weight="bold" font-size="10.00" fill="#614000">stable_deref_trait</text>
<text xml:space="preserve" text-anchor="start" x="402.05" y="-101.7" font-family="Inter,Arial" font-size="10.00" fill="#614000">1.2.1</text>
</g>
<!-- n0&#45;&gt;out0 -->
<g id="edge1" class="edge">
<title>n0&#45;&gt;out0</title>
<path fill="none" stroke="#d19922" stroke-width="0.9" stroke-dasharray="5,2" d="M302.05,-125.2C312.11,-125.2 323.36,-125.2 334.72,-125.2"/>
<polygon fill="#d19922" stroke="#d19922" stroke-width="0.9" points="334.55,-127.13 340.05,-125.2 334.55,-123.28 334.55,-127.13"/>
</g>
<!-- in1 -->
<g id="node3" class="node">
<title>in1</title>
<polygon fill="#eef6ff" stroke="#4b8fc5" points="163.47,-251.4 15.75,-251.4 15.75,-207 169.47,-207 169.47,-245.4 163.47,-251.4"/>
<polyline fill="none" stroke="#4b8fc5" points="163.47,-251.4 163.47,-245.4"/>
<polyline fill="none" stroke="#4b8fc5" points="169.47,-245.4 163.47,-245.4"/>
<text xml:space="preserve" text-anchor="start" x="25.11" y="-235.7" font-family="Inter,Arial" font-size="10.00" fill="#123d5c">from embassy&#45;sync&#45;v0.8.0.svg</text>
<text xml:space="preserve" text-anchor="start" x="71.99" y="-225.7" font-family="Inter,Arial" font-weight="bold" font-size="10.00" fill="#123d5c">heapless</text>
<text xml:space="preserve" text-anchor="start" x="81.74" y="-215.7" font-family="Inter,Arial" font-size="10.00" fill="#123d5c">0.9.3</text>
</g>
<!-- in1&#45;&gt;n0 -->
<g id="edge2" class="edge">
<title>in1&#45;&gt;n0</title>
<path fill="none" stroke="#4b8fc5" stroke-width="0.9" stroke-dasharray="5,2" d="M162.98,-206.71C170.69,-203.26 178.26,-199.43 185.22,-195.2 205.51,-182.88 225.28,-164.8 239.74,-150.11"/>
<polygon fill="#4b8fc5" stroke="#4b8fc5" stroke-width="0.9" points="241.04,-151.54 243.49,-146.25 238.28,-148.86 241.04,-151.54"/>
</g>
<!-- in2 -->
<g id="node4" class="node">
<title>in2</title>
<polygon fill="#eef6ff" stroke="#4b8fc5" points="179.22,-182.4 0,-182.4 0,-138 185.22,-138 185.22,-176.4 179.22,-182.4"/>
<polyline fill="none" stroke="#4b8fc5" points="179.22,-182.4 179.22,-176.4"/>
<polyline fill="none" stroke="#4b8fc5" points="185.22,-176.4 179.22,-176.4"/>
<text xml:space="preserve" text-anchor="start" x="9.36" y="-166.7" font-family="Inter,Arial" font-size="10.00" fill="#123d5c">from embedded&#45;websocket&#45;v0.9.4.svg</text>
<text xml:space="preserve" text-anchor="start" x="71.99" y="-156.7" font-family="Inter,Arial" font-weight="bold" font-size="10.00" fill="#123d5c">heapless</text>
<text xml:space="preserve" text-anchor="start" x="81.74" y="-146.7" font-family="Inter,Arial" font-size="10.00" fill="#123d5c">0.9.3</text>
</g>
<!-- in2&#45;&gt;n0 -->
<g id="edge3" class="edge">
<title>in2&#45;&gt;n0</title>
<path fill="none" stroke="#4b8fc5" stroke-width="0.9" stroke-dasharray="5,2" d="M185.44,-141.16C196.86,-138.8 208.1,-136.47 218.31,-134.35"/>
<polygon fill="#4b8fc5" stroke="#4b8fc5" stroke-width="0.9" points="218.54,-136.27 223.53,-133.27 217.76,-132.5 218.54,-136.27"/>
</g>
<!-- in3 -->
<g id="node5" class="node">
<title>in3</title>
<polygon fill="#eef6ff" stroke="#4b8fc5" points="151.47,-113.4 27.75,-113.4 27.75,-69 157.47,-69 157.47,-107.4 151.47,-113.4"/>
<polyline fill="none" stroke="#4b8fc5" points="151.47,-113.4 151.47,-107.4"/>
<polyline fill="none" stroke="#4b8fc5" points="157.47,-107.4 151.47,-107.4"/>
<text xml:space="preserve" text-anchor="start" x="37.11" y="-97.7" font-family="Inter,Arial" font-size="10.00" fill="#123d5c">from smoltcp&#45;v0.13.1.svg</text>
<text xml:space="preserve" text-anchor="start" x="71.99" y="-87.7" font-family="Inter,Arial" font-weight="bold" font-size="10.00" fill="#123d5c">heapless</text>
<text xml:space="preserve" text-anchor="start" x="81.74" y="-77.7" font-family="Inter,Arial" font-size="10.00" fill="#123d5c">0.9.3</text>
</g>
<!-- in3&#45;&gt;n0 -->
<g id="edge4" class="edge">
<title>in3&#45;&gt;n0</title>
<path fill="none" stroke="#4b8fc5" stroke-width="0.9" stroke-dasharray="5,2" d="M157.92,-104.15C178.01,-108.2 199.71,-112.57 218.1,-116.27"/>
<polygon fill="#4b8fc5" stroke="#4b8fc5" stroke-width="0.9" points="217.61,-118.13 223.39,-117.33 218.38,-114.36 217.61,-118.13"/>
</g>
<!-- in4 -->
<g id="node6" class="node">
<title>in4</title>
<polygon fill="#eef6ff" stroke="#4b8fc5" points="154.47,-44.4 24.75,-44.4 24.75,0 160.47,0 160.47,-38.4 154.47,-44.4"/>
<polyline fill="none" stroke="#4b8fc5" points="154.47,-44.4 154.47,-38.4"/>
<polyline fill="none" stroke="#4b8fc5" points="160.47,-38.4 154.47,-38.4"/>
<text xml:space="preserve" text-anchor="start" x="34.11" y="-28.7" font-family="Inter,Arial" font-size="10.00" fill="#123d5c">from trueos&#45;esp&#45;v0.1.0.svg</text>
<text xml:space="preserve" text-anchor="start" x="71.99" y="-18.7" font-family="Inter,Arial" font-weight="bold" font-size="10.00" fill="#123d5c">heapless</text>
<text xml:space="preserve" text-anchor="start" x="81.74" y="-8.7" font-family="Inter,Arial" font-size="10.00" fill="#123d5c">0.9.3</text>
</g>
<!-- in4&#45;&gt;n0 -->
<g id="edge5" class="edge">
<title>in4&#45;&gt;n0</title>
<path fill="none" stroke="#4b8fc5" stroke-width="0.9" stroke-dasharray="5,2" d="M160.54,-43.68C169.08,-47.38 177.52,-51.56 185.22,-56.2 205.28,-68.29 224.93,-85.94 239.38,-100.37"/>
<polygon fill="#4b8fc5" stroke="#4b8fc5" stroke-width="0.9" points="237.89,-101.59 243.12,-104.15 240.63,-98.89 237.89,-101.59"/>
</g>
</g>
</svg>
