<?xml version="1.0" encoding="UTF-8" standalone="no"?>
<!DOCTYPE svg PUBLIC "-//W3C//DTD SVG 1.1//EN"
 "http://www.w3.org/Graphics/SVG/1.1/DTD/svg11.dtd">
<!-- Generated by graphviz version 14.1.2 (0)
 -->
<!-- Title: hmac&#45;v0.12.1 Pages: 1 -->
<svg width="503pt" height="52pt"
 viewBox="0.00 0.00 503.00 52.00" xmlns="http://www.w3.org/2000/svg" xmlns:xlink="http://www.w3.org/1999/xlink">
<g id="graph0" class="graph" transform="scale(1 1) rotate(0) translate(4 48.4)">
<title>hmac&#45;v0.12.1</title>
<polygon fill="white" stroke="none" points="-4,4 -4,-48.4 498.69,-48.4 498.69,4 -4,4"/>
<!-- n0 -->
<g id="node1" class="node">
<title>n0</title>
<path fill="#dff3ff" stroke="#1b78a6" d="M268.72,-41.9C268.72,-41.9 238.72,-41.9 238.72,-41.9 232.72,-41.9 226.72,-35.9 226.72,-29.9 226.72,-29.9 226.72,-14.5 226.72,-14.5 226.72,-8.5 232.72,-2.5 238.72,-2.5 238.72,-2.5 268.72,-2.5 268.72,-2.5 274.72,-2.5 280.72,-8.5 280.72,-14.5 280.72,-14.5 280.72,-29.9 280.72,-29.9 280.72,-35.9 274.72,-41.9 268.72,-41.9"/>
<text xml:space="preserve" text-anchor="start" x="236.47" y="-23.35" font-family="Inter,Arial" font-weight="bold" font-size="13.00" fill="#172033">hmac</text>
<text xml:space="preserve" text-anchor="start" x="237.22" y="-11.3" font-family="Inter,Arial" font-size="12.00" fill="#172033">0.12.1</text>
</g>
<!-- out0 -->
<g id="node2" class="node">
<title>out0</title>
<polygon fill="#fff8e8" stroke="#d19922" points="488.69,-44.4 320.72,-44.4 320.72,0 494.69,0 494.69,-38.4 488.69,-44.4"/>
<polyline fill="none" stroke="#d19922" points="488.69,-44.4 488.69,-38.4"/>
<polyline fill="none" stroke="#d19922" points="494.69,-38.4 488.69,-38.4"/>
<text xml:space="preserve" text-anchor="start" x="330.08" y="-28.7" font-family="Inter,Arial" font-size="10.00" fill="#614000">to embedded&#45;websocket&#45;v0.9.4.svg</text>
<text xml:space="preserve" text-anchor="start" x="393.46" y="-18.7" font-family="Inter,Arial" font-weight="bold" font-size="10.00" fill="#614000">digest</text>
<text xml:space="preserve" text-anchor="start" x="394.21" y="-8.7" font-family="Inter,Arial" font-size="10.00" fill="#614000">0.10.7</text>
</g>
<!-- n0&#45;&gt;out0 -->
<g id="edge1" class="edge">
<title>n0&#45;&gt;out0</title>
<path fill="none" stroke="#d19922" stroke-width="7.2" stroke-dasharray="5,2" d="M281.19,-22.2C289.18,-22.2 298.45,-22.2 308.27,-22.2"/>
<polygon fill="#d19922" stroke="#d19922" stroke-width="7.2" points="308.22,-25.67 313.72,-22.2 308.22,-18.74 308.22,-25.67"/>
</g>
<!-- in1 -->
<g id="node3" class="node">
<title>in1</title>
<polygon fill="#eef6ff" stroke="#4b8fc5" points="180.72,-44.4 0,-44.4 0,0 186.72,0 186.72,-38.4 180.72,-44.4"/>
<polyline fill="none" stroke="#4b8fc5" points="180.72,-44.4 180.72,-38.4"/>
<polyline fill="none" stroke="#4b8fc5" points="186.72,-38.4 180.72,-38.4"/>
<text xml:space="preserve" text-anchor="start" x="9.36" y="-28.7" font-family="Inter,Arial" font-size="10.00" fill="#123d5c">from rustls&#45;rustcrypto&#45;v0.0.2&#45;alpha.svg</text>
<text xml:space="preserve" text-anchor="start" x="80.61" y="-18.7" font-family="Inter,Arial" font-weight="bold" font-size="10.00" fill="#123d5c">hmac</text>
<text xml:space="preserve" text-anchor="start" x="79.86" y="-8.7" font-family="Inter,Arial" font-size="10.00" fill="#123d5c">0.12.1</text>
</g>
<!-- in1&#45;&gt;n0 -->
<g id="edge2" class="edge">
<title>in1&#45;&gt;n0</title>
<path fill="none" stroke="#4b8fc5" stroke-width="7.2" stroke-dasharray="5,2" d="M186.94,-22.2C196.56,-22.2 205.9,-22.2 214.39,-22.2"/>
<polygon fill="#4b8fc5" stroke="#4b8fc5" stroke-width="7.2" points="214.27,-25.67 219.77,-22.2 214.27,-18.74 214.27,-25.67"/>
</g>
</g>
</svg>
