<?xml version="1.0" encoding="UTF-8" standalone="no"?>
<!DOCTYPE svg PUBLIC "-//W3C//DTD SVG 1.1//EN"
 "http://www.w3.org/Graphics/SVG/1.1/DTD/svg11.dtd">
<!-- Generated by graphviz version 14.1.2 (0)
 -->
<!-- Title: hmac&#45;v0.12.1 Pages: 1 -->
<svg width="488pt" height="45pt"
 viewBox="0.00 0.00 488.00 45.00" xmlns="http://www.w3.org/2000/svg" xmlns:xlink="http://www.w3.org/1999/xlink">
<g id="graph0" class="graph" transform="scale(1 1) rotate(0) translate(4 41.2)">
<title>hmac&#45;v0.12.1</title>
<polygon fill="white" stroke="none" points="-4,4 -4,-41.2 484.29,-41.2 484.29,4 -4,4"/>
<!-- n0 -->
<g id="node1" class="node">
<title>n0</title>
<path fill="#dff3ff" stroke="#1b78a6" d="M261.52,-36.6C261.52,-36.6 231.52,-36.6 231.52,-36.6 225.52,-36.6 219.52,-30.6 219.52,-24.6 219.52,-24.6 219.52,-12.6 219.52,-12.6 219.52,-6.6 225.52,-0.6 231.52,-0.6 231.52,-0.6 261.52,-0.6 261.52,-0.6 267.52,-0.6 273.52,-6.6 273.52,-12.6 273.52,-12.6 273.52,-24.6 273.52,-24.6 273.52,-30.6 267.52,-36.6 261.52,-36.6"/>
<text xml:space="preserve" text-anchor="start" x="233.77" y="-20.1" font-family="Inter,Arial" font-weight="bold" font-size="10.00" fill="#172033">hmac</text>
<text xml:space="preserve" text-anchor="start" x="233.02" y="-10.1" font-family="Inter,Arial" font-size="10.00" fill="#172033">0.12.1</text>
</g>
<!-- out0 -->
<g id="node2" class="node">
<title>out0</title>
<polygon fill="#fff8e8" stroke="#d19922" points="474.29,-37.2 313.52,-37.2 313.52,0 480.29,0 480.29,-31.2 474.29,-37.2"/>
<polyline fill="none" stroke="#d19922" points="474.29,-37.2 474.29,-31.2"/>
<polyline fill="none" stroke="#d19922" points="480.29,-31.2 474.29,-31.2"/>
<text xml:space="preserve" text-anchor="start" x="319.28" y="-25.1" font-family="Inter,Arial" font-size="10.00" fill="#614000">to embedded&#45;websocket&#45;v0.9.4.svg</text>
<text xml:space="preserve" text-anchor="start" x="382.65" y="-15.1" font-family="Inter,Arial" font-weight="bold" font-size="10.00" fill="#614000">digest</text>
<text xml:space="preserve" text-anchor="start" x="383.4" y="-5.1" font-family="Inter,Arial" font-size="10.00" fill="#614000">0.10.7</text>
</g>
<!-- n0&#45;&gt;out0 -->
<g id="edge1" class="edge">
<title>n0&#45;&gt;out0</title>
<path fill="none" stroke="#d19922" stroke-width="0.9" stroke-dasharray="5,2" d="M273.71,-18.6C283.25,-18.6 294.66,-18.6 306.61,-18.6"/>
<polygon fill="#d19922" stroke="#d19922" stroke-width="0.9" points="306.44,-20.53 311.94,-18.6 306.44,-16.68 306.44,-20.53"/>
</g>
<!-- in1 -->
<g id="node3" class="node">
<title>in1</title>
<polygon fill="#eef6ff" stroke="#4b8fc5" points="173.52,-37.2 0,-37.2 0,0 179.52,0 179.52,-31.2 173.52,-37.2"/>
<polyline fill="none" stroke="#4b8fc5" points="173.52,-37.2 173.52,-31.2"/>
<polyline fill="none" stroke="#4b8fc5" points="179.52,-31.2 173.52,-31.2"/>
<text xml:space="preserve" text-anchor="start" x="5.76" y="-25.1" font-family="Inter,Arial" font-size="10.00" fill="#123d5c">from rustls&#45;rustcrypto&#45;v0.0.2&#45;alpha.svg</text>
<text xml:space="preserve" text-anchor="start" x="77.01" y="-15.1" font-family="Inter,Arial" font-weight="bold" font-size="10.00" fill="#123d5c">hmac</text>
<text xml:space="preserve" text-anchor="start" x="76.26" y="-5.1" font-family="Inter,Arial" font-size="10.00" fill="#123d5c">0.12.1</text>
</g>
<!-- in1&#45;&gt;n0 -->
<g id="edge2" class="edge">
<title>in1&#45;&gt;n0</title>
<path fill="none" stroke="#4b8fc5" stroke-width="0.9" stroke-dasharray="5,2" d="M179.89,-18.6C191.46,-18.6 202.67,-18.6 212.46,-18.6"/>
<polygon fill="#4b8fc5" stroke="#4b8fc5" stroke-width="0.9" points="212.45,-20.53 217.95,-18.6 212.45,-16.68 212.45,-20.53"/>
</g>
</g>
</svg>
