<?xml version="1.0" encoding="UTF-8" standalone="no"?>
<!DOCTYPE svg PUBLIC "-//W3C//DTD SVG 1.1//EN"
 "http://www.w3.org/Graphics/SVG/1.1/DTD/svg11.dtd">
<!-- Generated by graphviz version 14.1.2 (0)
 -->
<!-- Title: hyper&#45;v1.9.0 Pages: 1 -->
<svg width="768pt" height="815pt"
 viewBox="0.00 0.00 768.00 815.00" xmlns="http://www.w3.org/2000/svg" xmlns:xlink="http://www.w3.org/1999/xlink">
<g id="graph0" class="graph" transform="scale(1 1) rotate(0) translate(4 811.4)">
<title>hyper&#45;v1.9.0</title>
<polygon fill="white" stroke="none" points="-4,4 -4,-811.4 763.63,-811.4 763.63,4 -4,4"/>
<!-- n0 -->
<g id="node1" class="node">
<title>n0</title>
<path fill="#dff3ff" stroke="#1b78a6" d="M152.97,-491.52C152.97,-491.52 33.75,-491.52 33.75,-491.52 27.75,-491.52 21.75,-485.52 21.75,-479.52 21.75,-479.52 21.75,-358.88 21.75,-358.88 21.75,-352.88 27.75,-346.88 33.75,-346.88 33.75,-346.88 152.97,-346.88 152.97,-346.88 158.97,-346.88 164.97,-352.88 164.97,-358.88 164.97,-358.88 164.97,-479.52 164.97,-479.52 164.97,-485.52 158.97,-491.52 152.97,-491.52"/>
<text xml:space="preserve" text-anchor="start" x="74.99" y="-472.97" font-family="Inter,Arial" font-weight="bold" font-size="13.00" fill="#172033">hyper</text>
<text xml:space="preserve" text-anchor="start" x="80.24" y="-457.93" font-family="Inter,Arial" font-size="12.00" fill="#172033">1.9.0</text>
<text xml:space="preserve" text-anchor="start" x="46.49" y="-444.62" font-family="Inter,Arial" font-size="11.00" fill="#172033">/vendor/hyper&#45;1.9.0</text>
<text xml:space="preserve" text-anchor="start" x="46.11" y="-417.12" font-family="Inter,Arial" font-weight="bold" font-size="11.00" fill="#172033">atomic&#45;waker</text>
<text xml:space="preserve" text-anchor="start" x="115.86" y="-417.12" font-family="Inter,Arial" font-size="10.00" fill="#172033"> </text>
<text xml:space="preserve" text-anchor="start" x="118.86" y="-417.12" font-family="Inter,Arial" font-size="10.00" fill="#172033">1.1.2</text>
<path fill="none" stroke="#9aa8b8" d="M47.61,-404.07C47.61,-404.07 139.11,-404.07 139.11,-404.07 144.36,-404.07 149.61,-409.32 149.61,-414.57 149.61,-414.57 149.61,-425.07 149.61,-425.07 149.61,-430.32 144.36,-435.57 139.11,-435.57 139.11,-435.57 47.61,-435.57 47.61,-435.57 42.36,-435.57 37.11,-430.32 37.11,-425.07 37.11,-425.07 37.11,-414.57 37.11,-414.57 37.11,-409.32 42.36,-404.07 47.61,-404.07"/>
<text xml:space="preserve" text-anchor="start" x="59.24" y="-379.62" font-family="Inter,Arial" font-weight="bold" font-size="11.00" fill="#172033">httpdate</text>
<text xml:space="preserve" text-anchor="start" x="102.74" y="-379.62" font-family="Inter,Arial" font-size="10.00" fill="#172033"> </text>
<text xml:space="preserve" text-anchor="start" x="105.74" y="-379.62" font-family="Inter,Arial" font-size="10.00" fill="#172033">1.0.3</text>
<text xml:space="preserve" text-anchor="start" x="48.74" y="-370.52" font-family="Inter,Arial" font-size="9.00" fill="#172033">/vendor/httpdate&#45;1.0.3</text>
<path fill="none" stroke="#9aa8b8" d="M49.11,-360.07C49.11,-360.07 137.61,-360.07 137.61,-360.07 143.61,-360.07 149.61,-366.07 149.61,-372.07 149.61,-372.07 149.61,-386.07 149.61,-386.07 149.61,-392.07 143.61,-398.07 137.61,-398.07 137.61,-398.07 49.11,-398.07 49.11,-398.07 43.11,-398.07 37.11,-392.07 37.11,-386.07 37.11,-386.07 37.11,-372.07 37.11,-372.07 37.11,-366.07 43.11,-360.07 49.11,-360.07"/>
</g>
<!-- n1 -->
<g id="node2" class="node">
<title>n1</title>
<path fill="#fff0d5" stroke="#c47a1a" d="M554.28,-464.4C554.28,-464.4 474.81,-464.4 474.81,-464.4 468.81,-464.4 462.81,-458.4 462.81,-452.4 462.81,-452.4 462.81,-426 462.81,-426 462.81,-420 468.81,-414 474.81,-414 474.81,-414 554.28,-414 554.28,-414 560.28,-414 566.28,-420 566.28,-426 566.28,-426 566.28,-452.4 566.28,-452.4 566.28,-458.4 560.28,-464.4 554.28,-464.4"/>
<text xml:space="preserve" text-anchor="start" x="501.8" y="-445.85" font-family="Inter,Arial" font-weight="bold" font-size="13.00" fill="#172033">http</text>
<text xml:space="preserve" text-anchor="start" x="501.42" y="-433.8" font-family="Inter,Arial" font-size="12.00" fill="#172033">1.4.0</text>
<text xml:space="preserve" text-anchor="start" x="472.17" y="-422.75" font-family="Inter,Arial" font-size="11.00" fill="#172033">/vendor/http&#45;1.4.0</text>
</g>
<!-- n0&#45;&gt;n1 -->
<g id="edge3" class="edge">
<title>n0&#45;&gt;n1</title>
<path fill="none" stroke="#9aa8b8" stroke-width="7.2" d="M165.45,-423.06C185.28,-424.11 206.84,-425.22 226.72,-426.2 303.76,-429.98 392.47,-433.94 450.59,-436.48"/>
<polygon fill="#9aa8b8" stroke="#9aa8b8" stroke-width="7.2" points="450.12,-439.93 455.76,-436.71 450.42,-433.01 450.12,-439.93"/>
</g>
<!-- n2 -->
<g id="node3" class="node">
<title>n2</title>
<path fill="#fff0d5" stroke="#c47a1a" d="M366.94,-413.4C366.94,-413.4 260.47,-413.4 260.47,-413.4 254.47,-413.4 248.47,-407.4 248.47,-401.4 248.47,-401.4 248.47,-375 248.47,-375 248.47,-369 254.47,-363 260.47,-363 260.47,-363 366.94,-363 366.94,-363 372.94,-363 378.94,-369 378.94,-375 378.94,-375 378.94,-401.4 378.94,-401.4 378.94,-407.4 372.94,-413.4 366.94,-413.4"/>
<text xml:space="preserve" text-anchor="start" x="282.58" y="-394.85" font-family="Inter,Arial" font-weight="bold" font-size="13.00" fill="#172033">http&#45;body</text>
<text xml:space="preserve" text-anchor="start" x="300.58" y="-382.8" font-family="Inter,Arial" font-size="12.00" fill="#172033">1.0.1</text>
<text xml:space="preserve" text-anchor="start" x="257.83" y="-371.75" font-family="Inter,Arial" font-size="11.00" fill="#172033">/vendor/http&#45;body&#45;1.0.1</text>
</g>
<!-- n0&#45;&gt;n2 -->
<g id="edge4" class="edge">
<title>n0&#45;&gt;n2</title>
<path fill="none" stroke="#9aa8b8" stroke-width="7.2" d="M165.25,-409.14C187.94,-405.91 213.16,-402.33 236.23,-399.06"/>
<polygon fill="#9aa8b8" stroke="#9aa8b8" stroke-width="7.2" points="236.43,-402.53 241.39,-398.32 235.46,-395.67 236.43,-402.53"/>
</g>
<!-- n3 -->
<g id="node4" class="node">
<title>n3</title>
<path fill="#f7f9fb" stroke="#8b9bb0" d="M709.02,-530.9C709.02,-530.9 679.02,-530.9 679.02,-530.9 673.02,-530.9 667.02,-524.9 667.02,-518.9 667.02,-518.9 667.02,-503.5 667.02,-503.5 667.02,-497.5 673.02,-491.5 679.02,-491.5 679.02,-491.5 709.02,-491.5 709.02,-491.5 715.02,-491.5 721.02,-497.5 721.02,-503.5 721.02,-503.5 721.02,-518.9 721.02,-518.9 721.02,-524.9 715.02,-530.9 709.02,-530.9"/>
<text xml:space="preserve" text-anchor="start" x="682.02" y="-512.35" font-family="Inter,Arial" font-weight="bold" font-size="13.00" fill="#172033">itoa</text>
<text xml:space="preserve" text-anchor="start" x="677.52" y="-500.3" font-family="Inter,Arial" font-size="12.00" fill="#172033">1.0.18</text>
</g>
<!-- n0&#45;&gt;n3 -->
<g id="edge5" class="edge">
<title>n0&#45;&gt;n3</title>
<path fill="none" stroke="#9aa8b8" stroke-width="7.2" d="M165.27,-453.6C233.86,-484.84 341.69,-528.62 440.69,-546.2 505.33,-557.68 523.61,-556.75 588.41,-546.2 611.21,-542.49 635.76,-534.5 655.34,-527.09"/>
<polygon fill="#9aa8b8" stroke="#9aa8b8" stroke-width="7.2" points="656.38,-530.4 660.24,-525.18 653.86,-523.95 656.38,-530.4"/>
</g>
<!-- n4 -->
<g id="node5" class="node">
<title>n4</title>
<path fill="#f7f9fb" stroke="#8b9bb0" d="M339.19,-110.9C339.19,-110.9 288.22,-110.9 288.22,-110.9 282.22,-110.9 276.22,-104.9 276.22,-98.9 276.22,-98.9 276.22,-83.5 276.22,-83.5 276.22,-77.5 282.22,-71.5 288.22,-71.5 288.22,-71.5 339.19,-71.5 339.19,-71.5 345.19,-71.5 351.19,-77.5 351.19,-83.5 351.19,-83.5 351.19,-98.9 351.19,-98.9 351.19,-104.9 345.19,-110.9 339.19,-110.9"/>
<text xml:space="preserve" text-anchor="start" x="285.58" y="-92.35" font-family="Inter,Arial" font-weight="bold" font-size="13.00" fill="#172033">smallvec</text>
<text xml:space="preserve" text-anchor="start" x="297.21" y="-80.3" font-family="Inter,Arial" font-size="12.00" fill="#172033">1.15.2</text>
</g>
<!-- n0&#45;&gt;n4 -->
<g id="edge6" class="edge">
<title>n0&#45;&gt;n4</title>
<path fill="none" stroke="#9aa8b8" stroke-width="7.2" d="M123.38,-346.61C156.78,-264.36 209.29,-139.54 226.72,-123.2 237.14,-113.42 250.82,-106.57 264.19,-101.79"/>
<polygon fill="#9aa8b8" stroke="#9aa8b8" stroke-width="7.2" points="265.15,-105.12 269.34,-100.15 263.05,-98.52 265.15,-105.12"/>
</g>
<!-- n5 -->
<g id="node6" class="node">
<title>n5</title>
<path fill="#fff0d5" stroke="#c47a1a" d="M358.32,-236.52C358.32,-236.52 269.1,-236.52 269.1,-236.52 263.1,-236.52 257.1,-230.52 257.1,-224.52 257.1,-224.52 257.1,-147.88 257.1,-147.88 257.1,-141.88 263.1,-135.88 269.1,-135.88 269.1,-135.88 358.32,-135.88 358.32,-135.88 364.32,-135.88 370.32,-141.88 370.32,-147.88 370.32,-147.88 370.32,-224.52 370.32,-224.52 370.32,-230.52 364.32,-236.52 358.32,-236.52"/>
<text xml:space="preserve" text-anchor="start" x="298.71" y="-217.97" font-family="Inter,Arial" font-weight="bold" font-size="13.00" fill="#172033">want</text>
<text xml:space="preserve" text-anchor="start" x="300.58" y="-202.92" font-family="Inter,Arial" font-size="12.00" fill="#172033">0.3.1</text>
<text xml:space="preserve" text-anchor="start" x="268.71" y="-189.62" font-family="Inter,Arial" font-size="11.00" fill="#172033">/vendor/want&#45;0.3.1</text>
<text xml:space="preserve" text-anchor="start" x="281.46" y="-162.12" font-family="Inter,Arial" font-weight="bold" font-size="11.00" fill="#172033">try&#45;lock</text>
<text xml:space="preserve" text-anchor="start" x="321.21" y="-162.12" font-family="Inter,Arial" font-size="10.00" fill="#172033"> </text>
<text xml:space="preserve" text-anchor="start" x="324.21" y="-162.12" font-family="Inter,Arial" font-size="10.00" fill="#172033">0.2.5</text>
<path fill="none" stroke="#9aa8b8" d="M282.96,-149.07C282.96,-149.07 344.46,-149.07 344.46,-149.07 349.71,-149.07 354.96,-154.32 354.96,-159.57 354.96,-159.57 354.96,-170.07 354.96,-170.07 354.96,-175.32 349.71,-180.57 344.46,-180.57 344.46,-180.57 282.96,-180.57 282.96,-180.57 277.71,-180.57 272.46,-175.32 272.46,-170.07 272.46,-170.07 272.46,-159.57 272.46,-159.57 272.46,-154.32 277.71,-149.07 282.96,-149.07"/>
</g>
<!-- n0&#45;&gt;n5 -->
<g id="edge7" class="edge">
<title>n0&#45;&gt;n5</title>
<path fill="none" stroke="#9aa8b8" stroke-width="7.2" d="M147.55,-346.52C170.55,-316.96 198.61,-283.23 226.72,-255.2 233.2,-248.74 240.26,-242.28 247.45,-236.06"/>
<polygon fill="#9aa8b8" stroke="#9aa8b8" stroke-width="7.2" points="249.49,-238.87 251.45,-232.67 245.02,-233.58 249.49,-238.87"/>
</g>
<!-- out0 -->
<g id="node7" class="node">
<title>out0</title>
<polygon fill="#fff8e8" stroke="#d19922" points="742,-398.4 640.03,-398.4 640.03,-354 748,-354 748,-392.4 742,-398.4"/>
<polyline fill="none" stroke="#d19922" points="742,-398.4 742,-392.4"/>
<polyline fill="none" stroke="#d19922" points="748,-392.4 742,-392.4"/>
<text xml:space="preserve" text-anchor="start" x="649.39" y="-382.7" font-family="Inter,Arial" font-size="10.00" fill="#614000">to bytes&#45;v1.12.0.svg</text>
<text xml:space="preserve" text-anchor="start" x="681.64" y="-372.7" font-family="Inter,Arial" font-weight="bold" font-size="10.00" fill="#614000">bytes</text>
<text xml:space="preserve" text-anchor="start" x="680.52" y="-362.7" font-family="Inter,Arial" font-size="10.00" fill="#614000">1.12.0</text>
</g>
<!-- n0&#45;&gt;out0 -->
<g id="edge10" class="edge">
<title>n0&#45;&gt;out0</title>
<path fill="none" stroke="#d19922" stroke-width="7.2" stroke-dasharray="5,2" d="M165.38,-374.27C184.57,-364.37 205.83,-355.32 226.72,-350.2 366.53,-315.95 536.68,-341.7 627.85,-360.71"/>
<polygon fill="#d19922" stroke="#d19922" stroke-width="7.2" points="626.94,-364.06 633.04,-361.82 628.38,-357.28 626.94,-364.06"/>
</g>
<!-- out1 -->
<g id="node8" class="node">
<title>out1</title>
<polygon fill="#fff8e8" stroke="#d19922" points="365.82,-807.4 255.6,-807.4 255.6,-723 371.82,-723 371.82,-801.4 365.82,-807.4"/>
<polyline fill="none" stroke="#d19922" points="365.82,-807.4 365.82,-801.4"/>
<polyline fill="none" stroke="#d19922" points="371.82,-801.4 365.82,-801.4"/>
<text xml:space="preserve" text-anchor="start" x="264.96" y="-791.7" font-family="Inter,Arial" font-size="10.00" fill="#614000">to crab&#45;usb&#45;v0.9.1.svg</text>
<text xml:space="preserve" text-anchor="start" x="277.71" y="-781.7" font-family="Inter,Arial" font-weight="bold" font-size="10.00" fill="#614000">futures&#45;channel</text>
<text xml:space="preserve" text-anchor="start" x="300.21" y="-771.7" font-family="Inter,Arial" font-size="10.00" fill="#614000">0.3.32</text>
<text xml:space="preserve" text-anchor="start" x="285.96" y="-761.7" font-family="Inter,Arial" font-weight="bold" font-size="10.00" fill="#614000">futures&#45;core</text>
<text xml:space="preserve" text-anchor="start" x="300.21" y="-751.7" font-family="Inter,Arial" font-size="10.00" fill="#614000">0.3.32</text>
<text xml:space="preserve" text-anchor="start" x="279.96" y="-741.7" font-family="Inter,Arial" font-weight="bold" font-size="10.00" fill="#614000">pin&#45;project&#45;lite</text>
<text xml:space="preserve" text-anchor="start" x="300.21" y="-731.7" font-family="Inter,Arial" font-size="10.00" fill="#614000">0.2.17</text>
</g>
<!-- n0&#45;&gt;out1 -->
<g id="edge11" class="edge">
<title>n0&#45;&gt;out1</title>
<path fill="none" stroke="#d19922" stroke-width="7.2" stroke-dasharray="5,2" d="M114.2,-491.82C134.37,-555.28 170.71,-647.05 226.72,-711.2 232.3,-717.59 238.82,-723.49 245.73,-728.85"/>
<polygon fill="#d19922" stroke="#d19922" stroke-width="7.2" points="243.39,-731.43 249.88,-731.86 247.46,-725.82 243.39,-731.43"/>
</g>
<!-- out2 -->
<g id="node9" class="node">
<title>out2</title>
<polygon fill="#fff8e8" stroke="#d19922" points="394.69,-698.4 226.72,-698.4 226.72,-654 400.69,-654 400.69,-692.4 394.69,-698.4"/>
<polyline fill="none" stroke="#d19922" points="394.69,-698.4 394.69,-692.4"/>
<polyline fill="none" stroke="#d19922" points="400.69,-692.4 394.69,-692.4"/>
<text xml:space="preserve" text-anchor="start" x="236.08" y="-682.7" font-family="Inter,Arial" font-size="10.00" fill="#614000">to embedded&#45;websocket&#45;v0.9.4.svg</text>
<text xml:space="preserve" text-anchor="start" x="294.96" y="-672.7" font-family="Inter,Arial" font-weight="bold" font-size="10.00" fill="#614000">httparse</text>
<text xml:space="preserve" text-anchor="start" x="300.21" y="-662.7" font-family="Inter,Arial" font-size="10.00" fill="#614000">1.10.1</text>
</g>
<!-- n0&#45;&gt;out2 -->
<g id="edge12" class="edge">
<title>n0&#45;&gt;out2</title>
<path fill="none" stroke="#d19922" stroke-width="7.2" stroke-dasharray="5,2" d="M122.66,-491.97C144.67,-540.25 179.44,-601.9 226.72,-642.2 228.75,-643.93 230.89,-645.59 233.1,-647.16"/>
<polygon fill="#d19922" stroke="#d19922" stroke-width="7.2" points="231.02,-649.95 237.52,-649.96 234.73,-644.09 231.02,-649.95"/>
</g>
<!-- out3 -->
<g id="node10" class="node">
<title>out3</title>
<polygon fill="#fff8e8" stroke="#d19922" points="753.63,-313.4 628.41,-313.4 628.41,-269 759.63,-269 759.63,-307.4 753.63,-313.4"/>
<polyline fill="none" stroke="#d19922" points="753.63,-313.4 753.63,-307.4"/>
<polyline fill="none" stroke="#d19922" points="759.63,-307.4 753.63,-307.4"/>
<text xml:space="preserve" text-anchor="start" x="637.77" y="-297.7" font-family="Inter,Arial" font-size="10.00" fill="#614000">to hashbrown&#45;v0.17.1.svg</text>
<text xml:space="preserve" text-anchor="start" x="668.14" y="-287.7" font-family="Inter,Arial" font-weight="bold" font-size="10.00" fill="#614000">hashbrown</text>
<text xml:space="preserve" text-anchor="start" x="680.52" y="-277.7" font-family="Inter,Arial" font-size="10.00" fill="#614000">0.17.1</text>
</g>
<!-- n0&#45;&gt;out3 -->
<g id="edge14" class="edge">
<title>n0&#45;&gt;out3</title>
<path fill="none" stroke="#d19922" stroke-width="7.2" stroke-dasharray="5,2" d="M165.42,-359.67C184.28,-346.81 205.37,-334.81 226.72,-327.2 357.52,-280.6 521.64,-280.2 616.2,-285.06"/>
<polygon fill="#d19922" stroke="#d19922" stroke-width="7.2" points="615.8,-288.51 621.48,-285.35 616.18,-281.59 615.8,-288.51"/>
</g>
<!-- out4 -->
<g id="node11" class="node">
<title>out4</title>
<polygon fill="#fff8e8" stroke="#d19922" points="365.82,-629.4 255.6,-629.4 255.6,-575 371.82,-575 371.82,-623.4 365.82,-629.4"/>
<polyline fill="none" stroke="#d19922" points="365.82,-629.4 365.82,-623.4"/>
<polyline fill="none" stroke="#d19922" points="371.82,-623.4 365.82,-623.4"/>
<text xml:space="preserve" text-anchor="start" x="264.96" y="-613.7" font-family="Inter,Arial" font-size="10.00" fill="#614000">to trueos&#45;io&#45;v0.1.0.svg</text>
<text xml:space="preserve" text-anchor="start" x="293.08" y="-603.7" font-family="Inter,Arial" font-weight="bold" font-size="10.00" fill="#614000">trueos&#45;io</text>
<text xml:space="preserve" text-anchor="start" x="302.83" y="-593.7" font-family="Inter,Arial" font-size="10.00" fill="#614000">0.1.0</text>
<text xml:space="preserve" text-anchor="start" x="278.46" y="-583.7" font-family="Inter,Arial" font-size="10.00" fill="#614000">/crates/trueos&#45;io</text>
</g>
<!-- n0&#45;&gt;out4 -->
<g id="edge15" class="edge">
<title>n0&#45;&gt;out4</title>
<path fill="none" stroke="#d19922" stroke-width="7.2" stroke-dasharray="5,2" d="M156.49,-491.84C177.48,-514.01 201.91,-537.46 226.72,-556.2 232.48,-560.55 238.71,-564.73 245.09,-568.68"/>
<polygon fill="#d19922" stroke="#d19922" stroke-width="7.2" points="242.89,-571.4 249.39,-571.22 246.43,-565.44 242.89,-571.4"/>
</g>
<!-- n1&#45;&gt;n3 -->
<g id="edge1" class="edge">
<title>n1&#45;&gt;n3</title>
<path fill="none" stroke="#9aa8b8" stroke-width="7.2" d="M566.41,-459.83C594.83,-471.36 629.64,-485.48 655.56,-496"/>
<polygon fill="#9aa8b8" stroke="#9aa8b8" stroke-width="7.2" points="654.13,-499.16 660.53,-498.02 656.73,-492.74 654.13,-499.16"/>
</g>
<!-- n1&#45;&gt;out0 -->
<g id="edge8" class="edge">
<title>n1&#45;&gt;out0</title>
<path fill="none" stroke="#d19922" stroke-width="7.2" stroke-dasharray="5,2" d="M566.41,-421.15C585.67,-414.31 607.88,-406.42 628.26,-399.19"/>
<polygon fill="#d19922" stroke="#d19922" stroke-width="7.2" points="629.29,-402.5 633.32,-397.39 626.98,-395.97 629.29,-402.5"/>
</g>
<!-- n1&#45;&gt;out3 -->
<g id="edge13" class="edge">
<title>n1&#45;&gt;out3</title>
<path fill="none" stroke="#d19922" stroke-width="7.2" stroke-dasharray="5,2" d="M543.93,-413.77C566.53,-393.72 599.11,-365.22 628.41,-341.2 636.45,-334.61 645.18,-327.69 653.56,-321.17"/>
<polygon fill="#d19922" stroke="#d19922" stroke-width="7.2" points="655.58,-323.99 657.81,-317.88 651.34,-318.51 655.58,-323.99"/>
</g>
<!-- n2&#45;&gt;n1 -->
<g id="edge2" class="edge">
<title>n2&#45;&gt;n1</title>
<path fill="none" stroke="#9aa8b8" stroke-width="7.2" d="M379.26,-404.76C402.25,-410.65 428.08,-417.28 450.9,-423.13"/>
<polygon fill="#9aa8b8" stroke="#9aa8b8" stroke-width="7.2" points="449.8,-426.43 455.98,-424.44 451.52,-419.71 449.8,-426.43"/>
</g>
<!-- n2&#45;&gt;out0 -->
<g id="edge9" class="edge">
<title>n2&#45;&gt;out0</title>
<path fill="none" stroke="#d19922" stroke-width="7.2" stroke-dasharray="5,2" d="M379.31,-386.15C448.59,-383.95 558,-380.48 627.6,-378.28"/>
<polygon fill="#d19922" stroke="#d19922" stroke-width="7.2" points="627.55,-381.74 632.93,-378.11 627.33,-374.82 627.55,-381.74"/>
</g>
<!-- in5 -->
<g id="node12" class="node">
<title>in5</title>
<polygon fill="#eef6ff" stroke="#4b8fc5" points="146.6,-182.4 34.13,-182.4 34.13,-138 152.6,-138 152.6,-176.4 146.6,-182.4"/>
<polyline fill="none" stroke="#4b8fc5" points="146.6,-182.4 146.6,-176.4"/>
<polyline fill="none" stroke="#4b8fc5" points="152.6,-176.4 146.6,-176.4"/>
<text xml:space="preserve" text-anchor="start" x="43.49" y="-166.7" font-family="Inter,Arial" font-size="10.00" fill="#123d5c">from kurbo&#45;v0.11.3.svg</text>
<text xml:space="preserve" text-anchor="start" x="72.74" y="-156.7" font-family="Inter,Arial" font-weight="bold" font-size="10.00" fill="#123d5c">smallvec</text>
<text xml:space="preserve" text-anchor="start" x="79.86" y="-146.7" font-family="Inter,Arial" font-size="10.00" fill="#123d5c">1.15.2</text>
</g>
<!-- in5&#45;&gt;n4 -->
<g id="edge16" class="edge">
<title>in5&#45;&gt;n4</title>
<path fill="none" stroke="#4b8fc5" stroke-width="7.2" stroke-dasharray="5,2" d="M152.87,-141.71C187.75,-130.69 231.49,-116.87 264.39,-106.47"/>
<polygon fill="#4b8fc5" stroke="#4b8fc5" stroke-width="7.2" points="265.35,-109.8 269.55,-104.84 263.26,-103.19 265.35,-109.8"/>
</g>
<!-- in6 -->
<g id="node13" class="node">
<title>in6</title>
<polygon fill="#eef6ff" stroke="#4b8fc5" points="151.1,-113.4 29.63,-113.4 29.63,-69 157.1,-69 157.1,-107.4 151.1,-113.4"/>
<polyline fill="none" stroke="#4b8fc5" points="151.1,-113.4 151.1,-107.4"/>
<polyline fill="none" stroke="#4b8fc5" points="157.1,-107.4 151.1,-107.4"/>
<text xml:space="preserve" text-anchor="start" x="38.99" y="-97.7" font-family="Inter,Arial" font-size="10.00" fill="#123d5c">from parry2d&#45;v0.26.1.svg</text>
<text xml:space="preserve" text-anchor="start" x="72.74" y="-87.7" font-family="Inter,Arial" font-weight="bold" font-size="10.00" fill="#123d5c">smallvec</text>
<text xml:space="preserve" text-anchor="start" x="79.86" y="-77.7" font-family="Inter,Arial" font-size="10.00" fill="#123d5c">1.15.2</text>
</g>
<!-- in6&#45;&gt;n4 -->
<g id="edge17" class="edge">
<title>in6&#45;&gt;n4</title>
<path fill="none" stroke="#4b8fc5" stroke-width="7.2" stroke-dasharray="5,2" d="M157.51,-91.2C191.43,-91.2 232.59,-91.2 264,-91.2"/>
<polygon fill="#4b8fc5" stroke="#4b8fc5" stroke-width="7.2" points="263.7,-94.67 269.2,-91.2 263.7,-87.74 263.7,-94.67"/>
</g>
<!-- in7 -->
<g id="node14" class="node">
<title>in7</title>
<polygon fill="#eef6ff" stroke="#4b8fc5" points="180.72,-44.4 0,-44.4 0,0 186.72,0 186.72,-38.4 180.72,-44.4"/>
<polyline fill="none" stroke="#4b8fc5" points="180.72,-44.4 180.72,-38.4"/>
<polyline fill="none" stroke="#4b8fc5" points="186.72,-38.4 180.72,-38.4"/>
<text xml:space="preserve" text-anchor="start" x="9.36" y="-28.7" font-family="Inter,Arial" font-size="10.00" fill="#123d5c">from rustls&#45;rustcrypto&#45;v0.0.2&#45;alpha.svg</text>
<text xml:space="preserve" text-anchor="start" x="72.74" y="-18.7" font-family="Inter,Arial" font-weight="bold" font-size="10.00" fill="#123d5c">smallvec</text>
<text xml:space="preserve" text-anchor="start" x="79.86" y="-8.7" font-family="Inter,Arial" font-size="10.00" fill="#123d5c">1.15.2</text>
</g>
<!-- in7&#45;&gt;n4 -->
<g id="edge18" class="edge">
<title>in7&#45;&gt;n4</title>
<path fill="none" stroke="#4b8fc5" stroke-width="7.2" stroke-dasharray="5,2" d="M166.16,-44.89C198.38,-55.07 235.55,-66.82 264.39,-75.93"/>
<polygon fill="#4b8fc5" stroke="#4b8fc5" stroke-width="7.2" points="263.08,-79.15 269.37,-77.5 265.17,-72.54 263.08,-79.15"/>
</g>
<!-- in8 -->
<g id="node15" class="node">
<title>in8</title>
<polygon fill="#eef6ff" stroke="#4b8fc5" points="582.41,-533.4 440.69,-533.4 440.69,-489 588.41,-489 588.41,-527.4 582.41,-533.4"/>
<polyline fill="none" stroke="#4b8fc5" points="582.41,-533.4 582.41,-527.4"/>
<polyline fill="none" stroke="#4b8fc5" points="588.41,-527.4 582.41,-527.4"/>
<text xml:space="preserve" text-anchor="start" x="450.05" y="-517.7" font-family="Inter,Arial" font-size="10.00" fill="#123d5c">from serde_json&#45;v1.0.150.svg</text>
<text xml:space="preserve" text-anchor="start" x="505.92" y="-507.7" font-family="Inter,Arial" font-weight="bold" font-size="10.00" fill="#123d5c">itoa</text>
<text xml:space="preserve" text-anchor="start" x="501.05" y="-497.7" font-family="Inter,Arial" font-size="10.00" fill="#123d5c">1.0.18</text>
</g>
<!-- in8&#45;&gt;n3 -->
<g id="edge19" class="edge">
<title>in8&#45;&gt;n3</title>
<path fill="none" stroke="#4b8fc5" stroke-width="7.2" stroke-dasharray="5,2" d="M588.76,-511.2C611.36,-511.2 635.36,-511.2 654.62,-511.2"/>
<polygon fill="#4b8fc5" stroke="#4b8fc5" stroke-width="7.2" points="654.58,-514.67 660.08,-511.2 654.58,-507.74 654.58,-514.67"/>
</g>
</g>
</svg>
