<?xml version="1.0" encoding="UTF-8" standalone="no"?>
<!DOCTYPE svg PUBLIC "-//W3C//DTD SVG 1.1//EN"
 "http://www.w3.org/Graphics/SVG/1.1/DTD/svg11.dtd">
<!-- Generated by graphviz version 14.1.2 (0)
 -->
<!-- Title: hyper&#45;v1.9.0 Pages: 1 -->
<svg width="680pt" height="728pt"
 viewBox="0.00 0.00 680.00 728.00" xmlns="http://www.w3.org/2000/svg" xmlns:xlink="http://www.w3.org/1999/xlink">
<g id="graph0" class="graph" transform="scale(1 1) rotate(0) translate(4 724.2)">
<title>hyper&#45;v1.9.0</title>
<polygon fill="white" stroke="none" points="-4,4 -4,-724.2 675.58,-724.2 675.58,4 -4,4"/>
<!-- n0 -->
<g id="node1" class="node">
<title>n0</title>
<path fill="#dff3ff" stroke="#1b78a6" d="M98.64,-404.08C98.64,-404.08 21.62,-404.08 21.62,-404.08 15.62,-404.08 9.62,-398.08 9.62,-392.08 9.62,-392.08 9.62,-327.12 9.62,-327.12 9.62,-321.12 15.62,-315.12 21.62,-315.12 21.62,-315.12 98.64,-315.12 98.64,-315.12 104.64,-315.12 110.64,-321.12 110.64,-327.12 110.64,-327.12 110.64,-392.08 110.64,-392.08 110.64,-398.08 104.64,-404.08 98.64,-404.08"/>
<text xml:space="preserve" text-anchor="start" x="47.01" y="-391.98" font-family="Inter,Arial" font-weight="bold" font-size="10.00" fill="#172033">hyper</text>
<text xml:space="preserve" text-anchor="start" x="49.26" y="-378.98" font-family="Inter,Arial" font-size="10.00" fill="#172033">1.9.0</text>
<text xml:space="preserve" text-anchor="start" x="18.13" y="-366.98" font-family="Inter,Arial" font-size="10.00" fill="#172033">/vendor/hyper&#45;1.9.0</text>
<text xml:space="preserve" text-anchor="start" x="24.13" y="-352.88" font-family="Inter,Arial" font-weight="bold" font-size="8.00" fill="#172033">atomic&#45;waker</text>
<text xml:space="preserve" text-anchor="start" x="75.88" y="-352.88" font-family="Inter,Arial" font-size="8.00" fill="#172033"> 1.1.2</text>
<path fill="none" stroke="#9aa8b8" d="M21.97,-344.73C21.97,-344.73 98.3,-344.73 98.3,-344.73 101.59,-344.73 104.88,-348.02 104.88,-351.31 104.88,-351.31 104.88,-357.89 104.88,-357.89 104.88,-361.18 101.59,-364.48 98.3,-364.48 98.3,-364.48 21.97,-364.48 21.97,-364.48 18.68,-364.48 15.38,-361.18 15.38,-357.89 15.38,-357.89 15.38,-351.31 15.38,-351.31 15.38,-348.02 18.68,-344.73 21.97,-344.73"/>
<text xml:space="preserve" text-anchor="start" x="33.13" y="-333.12" font-family="Inter,Arial" font-weight="bold" font-size="8.00" fill="#172033">httpdate</text>
<text xml:space="preserve" text-anchor="start" x="66.88" y="-333.12" font-family="Inter,Arial" font-size="8.00" fill="#172033"> 1.0.3</text>
<text xml:space="preserve" text-anchor="start" x="20.38" y="-325.12" font-family="Inter,Arial" font-size="8.00" fill="#172033">/vendor/httpdate&#45;1.0.3</text>
<path fill="none" stroke="#9aa8b8" d="M24.05,-318.73C24.05,-318.73 96.22,-318.73 96.22,-318.73 100.55,-318.73 104.88,-323.06 104.88,-327.39 104.88,-327.39 104.88,-336.06 104.88,-336.06 104.88,-340.39 100.55,-344.73 96.22,-344.73 96.22,-344.73 24.05,-344.73 24.05,-344.73 19.72,-344.73 15.38,-340.39 15.38,-336.06 15.38,-336.06 15.38,-327.39 15.38,-327.39 15.38,-323.06 19.72,-318.73 24.05,-318.73"/>
</g>
<!-- n1 -->
<g id="node2" class="node">
<title>n1</title>
<path fill="#fff0d5" stroke="#c47a1a" d="M469.31,-401.2C469.31,-401.2 405.29,-401.2 405.29,-401.2 399.29,-401.2 393.29,-395.2 393.29,-389.2 393.29,-389.2 393.29,-376 393.29,-376 393.29,-370 399.29,-364 405.29,-364 405.29,-364 469.31,-364 469.31,-364 475.31,-364 481.31,-370 481.31,-376 481.31,-376 481.31,-389.2 481.31,-389.2 481.31,-395.2 475.31,-401.2 469.31,-401.2"/>
<text xml:space="preserve" text-anchor="start" x="428.3" y="-389.1" font-family="Inter,Arial" font-weight="bold" font-size="10.00" fill="#172033">http</text>
<text xml:space="preserve" text-anchor="start" x="426.43" y="-379.1" font-family="Inter,Arial" font-size="10.00" fill="#172033">1.4.0</text>
<text xml:space="preserve" text-anchor="start" x="399.05" y="-369.1" font-family="Inter,Arial" font-size="10.00" fill="#172033">/vendor/http&#45;1.4.0</text>
</g>
<!-- n0&#45;&gt;n1 -->
<g id="edge3" class="edge">
<title>n0&#45;&gt;n1</title>
<path fill="none" stroke="#9aa8b8" stroke-width="0.9" d="M110.95,-362.65C182.69,-367.05 314.32,-375.12 386.21,-379.53"/>
<polygon fill="#9aa8b8" stroke="#9aa8b8" stroke-width="0.9" points="386.01,-381.45 391.62,-379.86 386.24,-377.6 386.01,-381.45"/>
</g>
<!-- n2 -->
<g id="node3" class="node">
<title>n2</title>
<path fill="#fff0d5" stroke="#c47a1a" d="M287.67,-350.2C287.67,-350.2 199.65,-350.2 199.65,-350.2 193.65,-350.2 187.65,-344.2 187.65,-338.2 187.65,-338.2 187.65,-325 187.65,-325 187.65,-319 193.65,-313 199.65,-313 199.65,-313 287.67,-313 287.67,-313 293.67,-313 299.67,-319 299.67,-325 299.67,-325 299.67,-338.2 299.67,-338.2 299.67,-344.2 293.67,-350.2 287.67,-350.2"/>
<text xml:space="preserve" text-anchor="start" x="221.53" y="-338.1" font-family="Inter,Arial" font-weight="bold" font-size="10.00" fill="#172033">http&#45;body</text>
<text xml:space="preserve" text-anchor="start" x="232.78" y="-328.1" font-family="Inter,Arial" font-size="10.00" fill="#172033">1.0.1</text>
<text xml:space="preserve" text-anchor="start" x="193.41" y="-318.1" font-family="Inter,Arial" font-size="10.00" fill="#172033">/vendor/http&#45;body&#45;1.0.1</text>
</g>
<!-- n0&#45;&gt;n2 -->
<g id="edge4" class="edge">
<title>n0&#45;&gt;n2</title>
<path fill="none" stroke="#9aa8b8" stroke-width="0.9" d="M110.74,-351.95C132.33,-348.62 157.86,-344.68 180.69,-341.16"/>
<polygon fill="#9aa8b8" stroke="#9aa8b8" stroke-width="0.9" points="180.87,-343.08 186.01,-340.34 180.29,-339.27 180.87,-343.08"/>
</g>
<!-- n3 -->
<g id="node4" class="node">
<title>n3</title>
<path fill="#f7f9fb" stroke="#8b9bb0" d="M624.57,-462.6C624.57,-462.6 594.57,-462.6 594.57,-462.6 588.57,-462.6 582.57,-456.6 582.57,-450.6 582.57,-450.6 582.57,-438.6 582.57,-438.6 582.57,-432.6 588.57,-426.6 594.57,-426.6 594.57,-426.6 624.57,-426.6 624.57,-426.6 630.57,-426.6 636.57,-432.6 636.57,-438.6 636.57,-438.6 636.57,-450.6 636.57,-450.6 636.57,-456.6 630.57,-462.6 624.57,-462.6"/>
<text xml:space="preserve" text-anchor="start" x="600.95" y="-446.1" font-family="Inter,Arial" font-weight="bold" font-size="10.00" fill="#172033">itoa</text>
<text xml:space="preserve" text-anchor="start" x="596.07" y="-436.1" font-family="Inter,Arial" font-size="10.00" fill="#172033">1.0.18</text>
</g>
<!-- n0&#45;&gt;n3 -->
<g id="edge5" class="edge">
<title>n0&#45;&gt;n3</title>
<path fill="none" stroke="#9aa8b8" stroke-width="0.9" d="M110.92,-384.95C170.16,-413.55 272.9,-458.35 367.04,-475.6 428.47,-486.86 445.8,-484.86 507.56,-475.6 531.03,-472.08 556.58,-464.2 576.1,-457.27"/>
<polygon fill="#9aa8b8" stroke="#9aa8b8" stroke-width="0.9" points="576.69,-459.1 581.2,-455.42 575.38,-455.48 576.69,-459.1"/>
</g>
<!-- n4 -->
<g id="node5" class="node">
<title>n4</title>
<path fill="#f7f9fb" stroke="#8b9bb0" d="M258.66,-98.6C258.66,-98.6 228.66,-98.6 228.66,-98.6 222.66,-98.6 216.66,-92.6 216.66,-86.6 216.66,-86.6 216.66,-74.6 216.66,-74.6 216.66,-68.6 222.66,-62.6 228.66,-62.6 228.66,-62.6 258.66,-62.6 258.66,-62.6 264.66,-62.6 270.66,-68.6 270.66,-74.6 270.66,-74.6 270.66,-86.6 270.66,-86.6 270.66,-92.6 264.66,-98.6 258.66,-98.6"/>
<text xml:space="preserve" text-anchor="start" x="223.03" y="-82.1" font-family="Inter,Arial" font-weight="bold" font-size="10.00" fill="#172033">smallvec</text>
<text xml:space="preserve" text-anchor="start" x="230.16" y="-72.1" font-family="Inter,Arial" font-size="10.00" fill="#172033">1.15.1</text>
</g>
<!-- n0&#45;&gt;n4 -->
<g id="edge6" class="edge">
<title>n0&#45;&gt;n4</title>
<path fill="none" stroke="#9aa8b8" stroke-width="0.9" d="M74.13,-314.77C93.32,-251.33 130.18,-139.81 160.27,-110.6 173.67,-97.59 193.16,-90.16 209.81,-85.95"/>
<polygon fill="#9aa8b8" stroke="#9aa8b8" stroke-width="0.9" points="210.03,-87.87 214.95,-84.75 209.15,-84.13 210.03,-87.87"/>
</g>
<!-- n5 -->
<g id="node6" class="node">
<title>n5</title>
<path fill="#fff0d5" stroke="#c47a1a" d="M277.92,-186.07C277.92,-186.07 209.4,-186.07 209.4,-186.07 203.4,-186.07 197.4,-180.07 197.4,-174.07 197.4,-174.07 197.4,-135.12 197.4,-135.12 197.4,-129.12 203.4,-123.12 209.4,-123.12 209.4,-123.12 277.92,-123.12 277.92,-123.12 283.92,-123.12 289.92,-129.12 289.92,-135.12 289.92,-135.12 289.92,-174.07 289.92,-174.07 289.92,-180.07 283.92,-186.07 277.92,-186.07"/>
<text xml:space="preserve" text-anchor="start" x="232.78" y="-173.97" font-family="Inter,Arial" font-weight="bold" font-size="10.00" fill="#172033">want</text>
<text xml:space="preserve" text-anchor="start" x="232.78" y="-160.97" font-family="Inter,Arial" font-size="10.00" fill="#172033">0.3.1</text>
<text xml:space="preserve" text-anchor="start" x="203.16" y="-148.97" font-family="Inter,Arial" font-size="10.00" fill="#172033">/vendor/want&#45;0.3.1</text>
<text xml:space="preserve" text-anchor="start" x="218.53" y="-134.88" font-family="Inter,Arial" font-weight="bold" font-size="8.00" fill="#172033">try&#45;lock</text>
<text xml:space="preserve" text-anchor="start" x="248.53" y="-134.88" font-family="Inter,Arial" font-size="8.00" fill="#172033"> 0.2.5</text>
<path fill="none" stroke="#9aa8b8" d="M209.74,-126.72C209.74,-126.72 277.57,-126.72 277.57,-126.72 280.86,-126.72 284.16,-130.02 284.16,-133.31 284.16,-133.31 284.16,-139.89 284.16,-139.89 284.16,-143.18 280.86,-146.47 277.57,-146.47 277.57,-146.47 209.74,-146.47 209.74,-146.47 206.45,-146.47 203.16,-143.18 203.16,-139.89 203.16,-139.89 203.16,-133.31 203.16,-133.31 203.16,-130.02 206.45,-126.72 209.74,-126.72"/>
</g>
<!-- n0&#45;&gt;n5 -->
<g id="edge7" class="edge">
<title>n0&#45;&gt;n5</title>
<path fill="none" stroke="#9aa8b8" stroke-width="0.9" d="M82.75,-314.66C100.3,-281.45 127.48,-236.63 160.27,-204.6 169.44,-195.64 180.51,-187.56 191.51,-180.64"/>
<polygon fill="#9aa8b8" stroke="#9aa8b8" stroke-width="0.9" points="192.4,-182.36 196.08,-177.84 190.39,-179.07 192.4,-182.36"/>
</g>
<!-- out0 -->
<g id="node7" class="node">
<title>out0</title>
<polygon fill="#fff8e8" stroke="#d19922" points="653.58,-344.2 559.56,-344.2 559.56,-307 659.58,-307 659.58,-338.2 653.58,-344.2"/>
<polyline fill="none" stroke="#d19922" points="653.58,-344.2 653.58,-338.2"/>
<polyline fill="none" stroke="#d19922" points="659.58,-338.2 653.58,-338.2"/>
<text xml:space="preserve" text-anchor="start" x="565.32" y="-332.1" font-family="Inter,Arial" font-size="10.00" fill="#614000">to bytes&#45;v1.11.1.svg</text>
<text xml:space="preserve" text-anchor="start" x="597.2" y="-322.1" font-family="Inter,Arial" font-weight="bold" font-size="10.00" fill="#614000">bytes</text>
<text xml:space="preserve" text-anchor="start" x="596.07" y="-312.1" font-family="Inter,Arial" font-size="10.00" fill="#614000">1.11.1</text>
</g>
<!-- n0&#45;&gt;out0 -->
<g id="edge10" class="edge">
<title>n0&#45;&gt;out0</title>
<path fill="none" stroke="#d19922" stroke-width="0.9" stroke-dasharray="5,2" d="M110.97,-322.92C126.06,-313.8 143.18,-305.3 160.27,-300.6 297.43,-262.87 466.86,-291.64 552.84,-311.27"/>
<polygon fill="#d19922" stroke="#d19922" stroke-width="0.9" points="552.27,-313.11 558.06,-312.48 553.14,-309.36 552.27,-313.11"/>
</g>
<!-- out1 -->
<g id="node8" class="node">
<title>out1</title>
<polygon fill="#fff8e8" stroke="#d19922" points="292.17,-720.2 189.15,-720.2 189.15,-643 298.17,-643 298.17,-714.2 292.17,-720.2"/>
<polyline fill="none" stroke="#d19922" points="292.17,-720.2 292.17,-714.2"/>
<polyline fill="none" stroke="#d19922" points="298.17,-714.2 292.17,-714.2"/>
<text xml:space="preserve" text-anchor="start" x="194.91" y="-708.1" font-family="Inter,Arial" font-size="10.00" fill="#614000">to crab&#45;usb&#45;v0.9.1.svg</text>
<text xml:space="preserve" text-anchor="start" x="207.66" y="-698.1" font-family="Inter,Arial" font-weight="bold" font-size="10.00" fill="#614000">futures&#45;channel</text>
<text xml:space="preserve" text-anchor="start" x="230.16" y="-688.1" font-family="Inter,Arial" font-size="10.00" fill="#614000">0.3.32</text>
<text xml:space="preserve" text-anchor="start" x="215.91" y="-678.1" font-family="Inter,Arial" font-weight="bold" font-size="10.00" fill="#614000">futures&#45;core</text>
<text xml:space="preserve" text-anchor="start" x="230.16" y="-668.1" font-family="Inter,Arial" font-size="10.00" fill="#614000">0.3.32</text>
<text xml:space="preserve" text-anchor="start" x="209.91" y="-658.1" font-family="Inter,Arial" font-weight="bold" font-size="10.00" fill="#614000">pin&#45;project&#45;lite</text>
<text xml:space="preserve" text-anchor="start" x="230.16" y="-648.1" font-family="Inter,Arial" font-size="10.00" fill="#614000">0.2.17</text>
</g>
<!-- n0&#45;&gt;out1 -->
<g id="edge11" class="edge">
<title>n0&#45;&gt;out1</title>
<path fill="none" stroke="#d19922" stroke-width="0.9" stroke-dasharray="5,2" d="M68.19,-404.4C79.2,-462.11 105.21,-563.02 160.27,-630.6 166.78,-638.59 174.9,-645.68 183.47,-651.84"/>
<polygon fill="#d19922" stroke="#d19922" stroke-width="0.9" points="182.12,-653.25 187.74,-654.78 184.3,-650.08 182.12,-653.25"/>
</g>
<!-- out2 -->
<g id="node9" class="node">
<title>out2</title>
<polygon fill="#fff8e8" stroke="#d19922" points="321.04,-618.2 160.27,-618.2 160.27,-581 327.04,-581 327.04,-612.2 321.04,-618.2"/>
<polyline fill="none" stroke="#d19922" points="321.04,-618.2 321.04,-612.2"/>
<polyline fill="none" stroke="#d19922" points="327.04,-612.2 321.04,-612.2"/>
<text xml:space="preserve" text-anchor="start" x="166.03" y="-606.1" font-family="Inter,Arial" font-size="10.00" fill="#614000">to embedded&#45;websocket&#45;v0.9.4.svg</text>
<text xml:space="preserve" text-anchor="start" x="224.91" y="-596.1" font-family="Inter,Arial" font-weight="bold" font-size="10.00" fill="#614000">httparse</text>
<text xml:space="preserve" text-anchor="start" x="230.16" y="-586.1" font-family="Inter,Arial" font-size="10.00" fill="#614000">1.10.1</text>
</g>
<!-- n0&#45;&gt;out2 -->
<g id="edge12" class="edge">
<title>n0&#45;&gt;out2</title>
<path fill="none" stroke="#d19922" stroke-width="0.9" stroke-dasharray="5,2" d="M71.69,-404.33C84.92,-451.22 111.95,-524.14 160.27,-568.6 163.75,-571.8 167.59,-574.68 171.66,-577.27"/>
<polygon fill="#d19922" stroke="#d19922" stroke-width="0.9" points="170.44,-578.79 176.15,-579.93 172.4,-575.48 170.44,-578.79"/>
</g>
<!-- out3 -->
<g id="node10" class="node">
<title>out3</title>
<polygon fill="#fff8e8" stroke="#d19922" points="665.58,-262.2 547.56,-262.2 547.56,-225 671.58,-225 671.58,-256.2 665.58,-262.2"/>
<polyline fill="none" stroke="#d19922" points="665.58,-262.2 665.58,-256.2"/>
<polyline fill="none" stroke="#d19922" points="671.58,-256.2 665.58,-256.2"/>
<text xml:space="preserve" text-anchor="start" x="553.32" y="-250.1" font-family="Inter,Arial" font-size="10.00" fill="#614000">to hashbrown&#45;v0.17.1.svg</text>
<text xml:space="preserve" text-anchor="start" x="583.7" y="-240.1" font-family="Inter,Arial" font-weight="bold" font-size="10.00" fill="#614000">hashbrown</text>
<text xml:space="preserve" text-anchor="start" x="596.07" y="-230.1" font-family="Inter,Arial" font-size="10.00" fill="#614000">0.17.1</text>
</g>
<!-- n0&#45;&gt;out3 -->
<g id="edge14" class="edge">
<title>n0&#45;&gt;out3</title>
<path fill="none" stroke="#d19922" stroke-width="0.9" stroke-dasharray="5,2" d="M102.56,-314.97C119,-300.13 139.05,-285.2 160.27,-276.6 286.92,-225.24 450.07,-228.71 540.52,-236.02"/>
<polygon fill="#d19922" stroke="#d19922" stroke-width="0.9" points="540.18,-237.92 545.82,-236.46 540.5,-234.09 540.18,-237.92"/>
</g>
<!-- out4 -->
<g id="node11" class="node">
<title>out4</title>
<polygon fill="#fff8e8" stroke="#d19922" points="292.17,-556.2 189.15,-556.2 189.15,-509 298.17,-509 298.17,-550.2 292.17,-556.2"/>
<polyline fill="none" stroke="#d19922" points="292.17,-556.2 292.17,-550.2"/>
<polyline fill="none" stroke="#d19922" points="298.17,-550.2 292.17,-550.2"/>
<text xml:space="preserve" text-anchor="start" x="194.91" y="-544.1" font-family="Inter,Arial" font-size="10.00" fill="#614000">to trueos&#45;io&#45;v0.1.0.svg</text>
<text xml:space="preserve" text-anchor="start" x="223.03" y="-534.1" font-family="Inter,Arial" font-weight="bold" font-size="10.00" fill="#614000">trueos&#45;io</text>
<text xml:space="preserve" text-anchor="start" x="232.78" y="-524.1" font-family="Inter,Arial" font-size="10.00" fill="#614000">0.1.0</text>
<text xml:space="preserve" text-anchor="start" x="208.41" y="-514.1" font-family="Inter,Arial" font-size="10.00" fill="#614000">/crates/trueos&#45;io</text>
</g>
<!-- n0&#45;&gt;out4 -->
<g id="edge15" class="edge">
<title>n0&#45;&gt;out4</title>
<path fill="none" stroke="#d19922" stroke-width="0.9" stroke-dasharray="5,2" d="M88.21,-404.56C106.16,-431.65 131.62,-465.46 160.27,-489.6 167.29,-495.51 175.25,-500.92 183.4,-505.76"/>
<polygon fill="#d19922" stroke="#d19922" stroke-width="0.9" points="182.15,-507.26 187.88,-508.33 184.07,-503.92 182.15,-507.26"/>
</g>
<!-- n1&#45;&gt;n3 -->
<g id="edge1" class="edge">
<title>n1&#45;&gt;n3</title>
<path fill="none" stroke="#9aa8b8" stroke-width="0.9" d="M481.71,-398.41C511.08,-409.1 549.25,-423 576.02,-432.75"/>
<polygon fill="#9aa8b8" stroke="#9aa8b8" stroke-width="0.9" points="575.13,-434.47 580.95,-434.54 576.44,-430.85 575.13,-434.47"/>
</g>
<!-- n1&#45;&gt;out0 -->
<g id="edge8" class="edge">
<title>n1&#45;&gt;out0</title>
<path fill="none" stroke="#d19922" stroke-width="0.9" stroke-dasharray="5,2" d="M481.71,-368.07C503.32,-360.83 529.7,-352 552.8,-344.27"/>
<polygon fill="#d19922" stroke="#d19922" stroke-width="0.9" points="553.32,-346.12 557.93,-342.55 552.1,-342.47 553.32,-346.12"/>
</g>
<!-- n1&#45;&gt;out3 -->
<g id="edge13" class="edge">
<title>n1&#45;&gt;out3</title>
<path fill="none" stroke="#d19922" stroke-width="0.9" stroke-dasharray="5,2" d="M461.62,-363.56C492.48,-338.37 546.86,-293.97 580.11,-266.83"/>
<polygon fill="#d19922" stroke="#d19922" stroke-width="0.9" points="581.16,-268.46 584.21,-263.49 578.73,-265.48 581.16,-268.46"/>
</g>
<!-- n2&#45;&gt;n1 -->
<g id="edge2" class="edge">
<title>n2&#45;&gt;n1</title>
<path fill="none" stroke="#9aa8b8" stroke-width="0.9" d="M300.09,-346.35C327.3,-353.59 359.83,-362.25 386.27,-369.29"/>
<polygon fill="#9aa8b8" stroke="#9aa8b8" stroke-width="0.9" points="385.73,-371.13 391.54,-370.69 386.72,-367.41 385.73,-371.13"/>
</g>
<!-- n2&#45;&gt;out0 -->
<g id="edge9" class="edge">
<title>n2&#45;&gt;out0</title>
<path fill="none" stroke="#d19922" stroke-width="0.9" stroke-dasharray="5,2" d="M299.93,-330.69C368.31,-329.56 484.08,-327.65 552.72,-326.52"/>
<polygon fill="#d19922" stroke="#d19922" stroke-width="0.9" points="552.39,-328.45 557.85,-326.44 552.32,-324.6 552.39,-328.45"/>
</g>
<!-- in5 -->
<g id="node12" class="node">
<title>in5</title>
<polygon fill="#eef6ff" stroke="#4b8fc5" points="109.77,-161.2 4.5,-161.2 4.5,-124 115.77,-124 115.77,-155.2 109.77,-161.2"/>
<polyline fill="none" stroke="#4b8fc5" points="109.77,-161.2 109.77,-155.2"/>
<polyline fill="none" stroke="#4b8fc5" points="115.77,-155.2 109.77,-155.2"/>
<text xml:space="preserve" text-anchor="start" x="10.26" y="-149.1" font-family="Inter,Arial" font-size="10.00" fill="#123d5c">from kurbo&#45;v0.11.3.svg</text>
<text xml:space="preserve" text-anchor="start" x="39.51" y="-139.1" font-family="Inter,Arial" font-weight="bold" font-size="10.00" fill="#123d5c">smallvec</text>
<text xml:space="preserve" text-anchor="start" x="46.63" y="-129.1" font-family="Inter,Arial" font-size="10.00" fill="#123d5c">1.15.1</text>
</g>
<!-- in5&#45;&gt;n4 -->
<g id="edge16" class="edge">
<title>in5&#45;&gt;n4</title>
<path fill="none" stroke="#4b8fc5" stroke-width="0.9" stroke-dasharray="5,2" d="M116.09,-123.83C146.68,-113.38 183.73,-100.73 209.82,-91.82"/>
<polygon fill="#4b8fc5" stroke="#4b8fc5" stroke-width="0.9" points="210.33,-93.67 214.92,-90.07 209.09,-90.03 210.33,-93.67"/>
</g>
<!-- in6 -->
<g id="node13" class="node">
<title>in6</title>
<polygon fill="#eef6ff" stroke="#4b8fc5" points="114.27,-99.2 0,-99.2 0,-62 120.27,-62 120.27,-93.2 114.27,-99.2"/>
<polyline fill="none" stroke="#4b8fc5" points="114.27,-99.2 114.27,-93.2"/>
<polyline fill="none" stroke="#4b8fc5" points="120.27,-93.2 114.27,-93.2"/>
<text xml:space="preserve" text-anchor="start" x="5.76" y="-87.1" font-family="Inter,Arial" font-size="10.00" fill="#123d5c">from parry2d&#45;v0.26.0.svg</text>
<text xml:space="preserve" text-anchor="start" x="39.51" y="-77.1" font-family="Inter,Arial" font-weight="bold" font-size="10.00" fill="#123d5c">smallvec</text>
<text xml:space="preserve" text-anchor="start" x="46.63" y="-67.1" font-family="Inter,Arial" font-size="10.00" fill="#123d5c">1.15.1</text>
</g>
<!-- in6&#45;&gt;n4 -->
<g id="edge17" class="edge">
<title>in6&#45;&gt;n4</title>
<path fill="none" stroke="#4b8fc5" stroke-width="0.9" stroke-dasharray="5,2" d="M120.57,-80.6C150.25,-80.6 185.02,-80.6 209.84,-80.6"/>
<polygon fill="#4b8fc5" stroke="#4b8fc5" stroke-width="0.9" points="209.71,-82.53 215.21,-80.6 209.71,-78.68 209.71,-82.53"/>
</g>
<!-- in7 -->
<g id="node14" class="node">
<title>in7</title>
<polygon fill="#eef6ff" stroke="#4b8fc5" points="104.89,-37.2 9.37,-37.2 9.37,0 110.89,0 110.89,-31.2 104.89,-37.2"/>
<polyline fill="none" stroke="#4b8fc5" points="104.89,-37.2 104.89,-31.2"/>
<polyline fill="none" stroke="#4b8fc5" points="110.89,-31.2 104.89,-31.2"/>
<text xml:space="preserve" text-anchor="start" x="15.13" y="-25.1" font-family="Inter,Arial" font-size="10.00" fill="#123d5c">from rsa&#45;v0.9.10.svg</text>
<text xml:space="preserve" text-anchor="start" x="39.51" y="-15.1" font-family="Inter,Arial" font-weight="bold" font-size="10.00" fill="#123d5c">smallvec</text>
<text xml:space="preserve" text-anchor="start" x="46.63" y="-5.1" font-family="Inter,Arial" font-size="10.00" fill="#123d5c">1.15.1</text>
</g>
<!-- in7&#45;&gt;n4 -->
<g id="edge18" class="edge">
<title>in7&#45;&gt;n4</title>
<path fill="none" stroke="#4b8fc5" stroke-width="0.9" stroke-dasharray="5,2" d="M111.22,-35.71C142.69,-46.46 182.4,-60.02 209.89,-69.41"/>
<polygon fill="#4b8fc5" stroke="#4b8fc5" stroke-width="0.9" points="209.14,-71.19 214.97,-71.14 210.39,-67.54 209.14,-71.19"/>
</g>
<!-- in8 -->
<g id="node15" class="node">
<title>in8</title>
<polygon fill="#eef6ff" stroke="#4b8fc5" points="501.56,-463.2 367.04,-463.2 367.04,-426 507.56,-426 507.56,-457.2 501.56,-463.2"/>
<polyline fill="none" stroke="#4b8fc5" points="501.56,-463.2 501.56,-457.2"/>
<polyline fill="none" stroke="#4b8fc5" points="507.56,-457.2 501.56,-457.2"/>
<text xml:space="preserve" text-anchor="start" x="372.8" y="-451.1" font-family="Inter,Arial" font-size="10.00" fill="#123d5c">from serde_json&#45;v1.0.149.svg</text>
<text xml:space="preserve" text-anchor="start" x="428.68" y="-441.1" font-family="Inter,Arial" font-weight="bold" font-size="10.00" fill="#123d5c">itoa</text>
<text xml:space="preserve" text-anchor="start" x="423.8" y="-431.1" font-family="Inter,Arial" font-size="10.00" fill="#123d5c">1.0.18</text>
</g>
<!-- in8&#45;&gt;n3 -->
<g id="edge19" class="edge">
<title>in8&#45;&gt;n3</title>
<path fill="none" stroke="#4b8fc5" stroke-width="0.9" stroke-dasharray="5,2" d="M508.05,-444.6C531.44,-444.6 556.44,-444.6 575.65,-444.6"/>
<polygon fill="#4b8fc5" stroke="#4b8fc5" stroke-width="0.9" points="575.59,-446.53 581.09,-444.6 575.59,-442.68 575.59,-446.53"/>
</g>
</g>
</svg>
