<?xml version="1.0" encoding="UTF-8" standalone="no"?>
<!DOCTYPE svg PUBLIC "-//W3C//DTD SVG 1.1//EN"
 "http://www.w3.org/Graphics/SVG/1.1/DTD/svg11.dtd">
<!-- Generated by graphviz version 14.1.2 (0)
 -->
<!-- Title: hyper&#45;v1.9.0 Pages: 1 -->
<svg width="724pt" height="815pt"
 viewBox="0.00 0.00 724.00 815.00" xmlns="http://www.w3.org/2000/svg" xmlns:xlink="http://www.w3.org/1999/xlink">
<g id="graph0" class="graph" transform="scale(1 1) rotate(0) translate(4 811.4)">
<title>hyper&#45;v1.9.0</title>
<polygon fill="white" stroke="none" points="-4,4 -4,-811.4 720.13,-811.4 720.13,4 -4,4"/>
<!-- n0 -->
<g id="node1" class="node">
<title>n0</title>
<path fill="#dff3ff" stroke="#1b78a6" d="M131.22,-491.52C131.22,-491.52 12,-491.52 12,-491.52 6,-491.52 0,-485.52 0,-479.52 0,-479.52 0,-358.88 0,-358.88 0,-352.88 6,-346.88 12,-346.88 12,-346.88 131.22,-346.88 131.22,-346.88 137.22,-346.88 143.22,-352.88 143.22,-358.88 143.22,-358.88 143.22,-479.52 143.22,-479.52 143.22,-485.52 137.22,-491.52 131.22,-491.52"/>
<text xml:space="preserve" text-anchor="start" x="53.24" y="-472.97" font-family="Inter,Arial" font-weight="bold" font-size="13.00" fill="#172033">hyper</text>
<text xml:space="preserve" text-anchor="start" x="58.49" y="-457.93" font-family="Inter,Arial" font-size="12.00" fill="#172033">1.9.0</text>
<text xml:space="preserve" text-anchor="start" x="24.74" y="-444.62" font-family="Inter,Arial" font-size="11.00" fill="#172033">/vendor/hyper&#45;1.9.0</text>
<text xml:space="preserve" text-anchor="start" x="24.36" y="-417.12" font-family="Inter,Arial" font-weight="bold" font-size="11.00" fill="#172033">atomic&#45;waker</text>
<text xml:space="preserve" text-anchor="start" x="94.11" y="-417.12" font-family="Inter,Arial" font-size="10.00" fill="#172033"> </text>
<text xml:space="preserve" text-anchor="start" x="97.11" y="-417.12" font-family="Inter,Arial" font-size="10.00" fill="#172033">1.1.2</text>
<path fill="none" stroke="#9aa8b8" d="M25.86,-404.07C25.86,-404.07 117.36,-404.07 117.36,-404.07 122.61,-404.07 127.86,-409.32 127.86,-414.57 127.86,-414.57 127.86,-425.07 127.86,-425.07 127.86,-430.32 122.61,-435.57 117.36,-435.57 117.36,-435.57 25.86,-435.57 25.86,-435.57 20.61,-435.57 15.36,-430.32 15.36,-425.07 15.36,-425.07 15.36,-414.57 15.36,-414.57 15.36,-409.32 20.61,-404.07 25.86,-404.07"/>
<text xml:space="preserve" text-anchor="start" x="37.49" y="-379.62" font-family="Inter,Arial" font-weight="bold" font-size="11.00" fill="#172033">httpdate</text>
<text xml:space="preserve" text-anchor="start" x="80.99" y="-379.62" font-family="Inter,Arial" font-size="10.00" fill="#172033"> </text>
<text xml:space="preserve" text-anchor="start" x="83.99" y="-379.62" font-family="Inter,Arial" font-size="10.00" fill="#172033">1.0.3</text>
<text xml:space="preserve" text-anchor="start" x="26.99" y="-370.52" font-family="Inter,Arial" font-size="9.00" fill="#172033">/vendor/httpdate&#45;1.0.3</text>
<path fill="none" stroke="#9aa8b8" d="M27.36,-360.07C27.36,-360.07 115.86,-360.07 115.86,-360.07 121.86,-360.07 127.86,-366.07 127.86,-372.07 127.86,-372.07 127.86,-386.07 127.86,-386.07 127.86,-392.07 121.86,-398.07 115.86,-398.07 115.86,-398.07 27.36,-398.07 27.36,-398.07 21.36,-398.07 15.36,-392.07 15.36,-386.07 15.36,-386.07 15.36,-372.07 15.36,-372.07 15.36,-366.07 21.36,-360.07 27.36,-360.07"/>
</g>
<!-- n1 -->
<g id="node2" class="node">
<title>n1</title>
<path fill="#fff0d5" stroke="#c47a1a" d="M510.78,-464.4C510.78,-464.4 431.31,-464.4 431.31,-464.4 425.31,-464.4 419.31,-458.4 419.31,-452.4 419.31,-452.4 419.31,-426 419.31,-426 419.31,-420 425.31,-414 431.31,-414 431.31,-414 510.78,-414 510.78,-414 516.78,-414 522.78,-420 522.78,-426 522.78,-426 522.78,-452.4 522.78,-452.4 522.78,-458.4 516.78,-464.4 510.78,-464.4"/>
<text xml:space="preserve" text-anchor="start" x="458.3" y="-445.85" font-family="Inter,Arial" font-weight="bold" font-size="13.00" fill="#172033">http</text>
<text xml:space="preserve" text-anchor="start" x="457.93" y="-433.8" font-family="Inter,Arial" font-size="12.00" fill="#172033">1.4.0</text>
<text xml:space="preserve" text-anchor="start" x="428.68" y="-422.75" font-family="Inter,Arial" font-size="11.00" fill="#172033">/vendor/http&#45;1.4.0</text>
</g>
<!-- n0&#45;&gt;n1 -->
<g id="edge3" class="edge">
<title>n0&#45;&gt;n1</title>
<path fill="none" stroke="#9aa8b8" stroke-width="0.9" d="M143.7,-423.89C156.84,-424.7 170.44,-425.51 183.22,-426.2 262.66,-430.51 354.53,-434.5 412.46,-436.89"/>
<polygon fill="#9aa8b8" stroke="#9aa8b8" stroke-width="0.9" points="412.07,-438.8 417.64,-437.11 412.22,-434.96 412.07,-438.8"/>
</g>
<!-- n2 -->
<g id="node3" class="node">
<title>n2</title>
<path fill="#fff0d5" stroke="#c47a1a" d="M323.44,-413.4C323.44,-413.4 216.97,-413.4 216.97,-413.4 210.97,-413.4 204.97,-407.4 204.97,-401.4 204.97,-401.4 204.97,-375 204.97,-375 204.97,-369 210.97,-363 216.97,-363 216.97,-363 323.44,-363 323.44,-363 329.44,-363 335.44,-369 335.44,-375 335.44,-375 335.44,-401.4 335.44,-401.4 335.44,-407.4 329.44,-413.4 323.44,-413.4"/>
<text xml:space="preserve" text-anchor="start" x="239.08" y="-394.85" font-family="Inter,Arial" font-weight="bold" font-size="13.00" fill="#172033">http&#45;body</text>
<text xml:space="preserve" text-anchor="start" x="257.08" y="-382.8" font-family="Inter,Arial" font-size="12.00" fill="#172033">1.0.1</text>
<text xml:space="preserve" text-anchor="start" x="214.33" y="-371.75" font-family="Inter,Arial" font-size="11.00" fill="#172033">/vendor/http&#45;body&#45;1.0.1</text>
</g>
<!-- n0&#45;&gt;n2 -->
<g id="edge4" class="edge">
<title>n0&#45;&gt;n2</title>
<path fill="none" stroke="#9aa8b8" stroke-width="0.9" d="M143.59,-408.01C161.32,-405.21 180.33,-402.21 198.07,-399.42"/>
<polygon fill="#9aa8b8" stroke="#9aa8b8" stroke-width="0.9" points="198.06,-401.37 203.2,-398.61 197.46,-397.56 198.06,-401.37"/>
</g>
<!-- n3 -->
<g id="node4" class="node">
<title>n3</title>
<path fill="#f7f9fb" stroke="#8b9bb0" d="M665.52,-530.9C665.52,-530.9 635.52,-530.9 635.52,-530.9 629.52,-530.9 623.52,-524.9 623.52,-518.9 623.52,-518.9 623.52,-503.5 623.52,-503.5 623.52,-497.5 629.52,-491.5 635.52,-491.5 635.52,-491.5 665.52,-491.5 665.52,-491.5 671.52,-491.5 677.52,-497.5 677.52,-503.5 677.52,-503.5 677.52,-518.9 677.52,-518.9 677.52,-524.9 671.52,-530.9 665.52,-530.9"/>
<text xml:space="preserve" text-anchor="start" x="638.52" y="-512.35" font-family="Inter,Arial" font-weight="bold" font-size="13.00" fill="#172033">itoa</text>
<text xml:space="preserve" text-anchor="start" x="634.02" y="-500.3" font-family="Inter,Arial" font-size="12.00" fill="#172033">1.0.18</text>
</g>
<!-- n0&#45;&gt;n3 -->
<g id="edge5" class="edge">
<title>n0&#45;&gt;n3</title>
<path fill="none" stroke="#9aa8b8" stroke-width="0.9" d="M143.46,-455.85C207.72,-486.89 306.07,-529.01 397.19,-546.2 461.71,-558.37 480.11,-556.75 544.91,-546.2 569.64,-542.17 596.42,-533.12 616.69,-525.23"/>
<polygon fill="#9aa8b8" stroke="#9aa8b8" stroke-width="0.9" points="617.36,-527.03 621.77,-523.22 615.94,-523.45 617.36,-527.03"/>
</g>
<!-- n4 -->
<g id="node5" class="node">
<title>n4</title>
<path fill="#f7f9fb" stroke="#8b9bb0" d="M295.69,-110.9C295.69,-110.9 244.72,-110.9 244.72,-110.9 238.72,-110.9 232.72,-104.9 232.72,-98.9 232.72,-98.9 232.72,-83.5 232.72,-83.5 232.72,-77.5 238.72,-71.5 244.72,-71.5 244.72,-71.5 295.69,-71.5 295.69,-71.5 301.69,-71.5 307.69,-77.5 307.69,-83.5 307.69,-83.5 307.69,-98.9 307.69,-98.9 307.69,-104.9 301.69,-110.9 295.69,-110.9"/>
<text xml:space="preserve" text-anchor="start" x="242.08" y="-92.35" font-family="Inter,Arial" font-weight="bold" font-size="13.00" fill="#172033">smallvec</text>
<text xml:space="preserve" text-anchor="start" x="253.71" y="-80.3" font-family="Inter,Arial" font-size="12.00" fill="#172033">1.15.1</text>
</g>
<!-- n0&#45;&gt;n4 -->
<g id="edge6" class="edge">
<title>n0&#45;&gt;n4</title>
<path fill="none" stroke="#9aa8b8" stroke-width="0.9" d="M96.21,-346.64C123.49,-264.43 166.75,-139.65 183.22,-123.2 194.76,-111.68 210.82,-104.25 225.94,-99.49"/>
<polygon fill="#9aa8b8" stroke="#9aa8b8" stroke-width="0.9" points="226.31,-101.39 231.04,-97.99 225.22,-97.7 226.31,-101.39"/>
</g>
<!-- n5 -->
<g id="node6" class="node">
<title>n5</title>
<path fill="#fff0d5" stroke="#c47a1a" d="M314.82,-236.52C314.82,-236.52 225.6,-236.52 225.6,-236.52 219.6,-236.52 213.6,-230.52 213.6,-224.52 213.6,-224.52 213.6,-147.88 213.6,-147.88 213.6,-141.88 219.6,-135.88 225.6,-135.88 225.6,-135.88 314.82,-135.88 314.82,-135.88 320.82,-135.88 326.82,-141.88 326.82,-147.88 326.82,-147.88 326.82,-224.52 326.82,-224.52 326.82,-230.52 320.82,-236.52 314.82,-236.52"/>
<text xml:space="preserve" text-anchor="start" x="255.21" y="-217.97" font-family="Inter,Arial" font-weight="bold" font-size="13.00" fill="#172033">want</text>
<text xml:space="preserve" text-anchor="start" x="257.08" y="-202.92" font-family="Inter,Arial" font-size="12.00" fill="#172033">0.3.1</text>
<text xml:space="preserve" text-anchor="start" x="225.21" y="-189.62" font-family="Inter,Arial" font-size="11.00" fill="#172033">/vendor/want&#45;0.3.1</text>
<text xml:space="preserve" text-anchor="start" x="237.96" y="-162.12" font-family="Inter,Arial" font-weight="bold" font-size="11.00" fill="#172033">try&#45;lock</text>
<text xml:space="preserve" text-anchor="start" x="277.71" y="-162.12" font-family="Inter,Arial" font-size="10.00" fill="#172033"> </text>
<text xml:space="preserve" text-anchor="start" x="280.71" y="-162.12" font-family="Inter,Arial" font-size="10.00" fill="#172033">0.2.5</text>
<path fill="none" stroke="#9aa8b8" d="M239.46,-149.07C239.46,-149.07 300.96,-149.07 300.96,-149.07 306.21,-149.07 311.46,-154.32 311.46,-159.57 311.46,-159.57 311.46,-170.07 311.46,-170.07 311.46,-175.32 306.21,-180.57 300.96,-180.57 300.96,-180.57 239.46,-180.57 239.46,-180.57 234.21,-180.57 228.96,-175.32 228.96,-170.07 228.96,-170.07 228.96,-159.57 228.96,-159.57 228.96,-154.32 234.21,-149.07 239.46,-149.07"/>
</g>
<!-- n0&#45;&gt;n5 -->
<g id="edge7" class="edge">
<title>n0&#45;&gt;n5</title>
<path fill="none" stroke="#9aa8b8" stroke-width="0.9" d="M114.8,-346.73C133.84,-316.87 157.75,-282.87 183.22,-255.2 190.88,-246.88 199.58,-238.73 208.43,-231.11"/>
<polygon fill="#9aa8b8" stroke="#9aa8b8" stroke-width="0.9" points="209.37,-232.84 212.32,-227.81 206.88,-229.9 209.37,-232.84"/>
</g>
<!-- out0 -->
<g id="node7" class="node">
<title>out0</title>
<polygon fill="#fff8e8" stroke="#d19922" points="698.13,-398.4 596.91,-398.4 596.91,-354 704.13,-354 704.13,-392.4 698.13,-398.4"/>
<polyline fill="none" stroke="#d19922" points="698.13,-398.4 698.13,-392.4"/>
<polyline fill="none" stroke="#d19922" points="704.13,-392.4 698.13,-392.4"/>
<text xml:space="preserve" text-anchor="start" x="606.27" y="-382.7" font-family="Inter,Arial" font-size="10.00" fill="#614000">to bytes&#45;v1.11.1.svg</text>
<text xml:space="preserve" text-anchor="start" x="638.14" y="-372.7" font-family="Inter,Arial" font-weight="bold" font-size="10.00" fill="#614000">bytes</text>
<text xml:space="preserve" text-anchor="start" x="637.02" y="-362.7" font-family="Inter,Arial" font-size="10.00" fill="#614000">1.11.1</text>
</g>
<!-- n0&#45;&gt;out0 -->
<g id="edge10" class="edge">
<title>n0&#45;&gt;out0</title>
<path fill="none" stroke="#d19922" stroke-width="0.9" stroke-dasharray="5,2" d="M143.66,-367.04C156.29,-360.1 169.73,-354.06 183.22,-350.2 324.66,-309.7 499.87,-339.68 589.92,-360.57"/>
<polygon fill="#d19922" stroke="#d19922" stroke-width="0.9" points="589.39,-362.42 595.19,-361.81 590.27,-358.68 589.39,-362.42"/>
</g>
<!-- out1 -->
<g id="node8" class="node">
<title>out1</title>
<polygon fill="#fff8e8" stroke="#d19922" points="322.32,-807.4 212.1,-807.4 212.1,-723 328.32,-723 328.32,-801.4 322.32,-807.4"/>
<polyline fill="none" stroke="#d19922" points="322.32,-807.4 322.32,-801.4"/>
<polyline fill="none" stroke="#d19922" points="328.32,-801.4 322.32,-801.4"/>
<text xml:space="preserve" text-anchor="start" x="221.46" y="-791.7" font-family="Inter,Arial" font-size="10.00" fill="#614000">to crab&#45;usb&#45;v0.9.1.svg</text>
<text xml:space="preserve" text-anchor="start" x="234.21" y="-781.7" font-family="Inter,Arial" font-weight="bold" font-size="10.00" fill="#614000">futures&#45;channel</text>
<text xml:space="preserve" text-anchor="start" x="256.71" y="-771.7" font-family="Inter,Arial" font-size="10.00" fill="#614000">0.3.32</text>
<text xml:space="preserve" text-anchor="start" x="242.46" y="-761.7" font-family="Inter,Arial" font-weight="bold" font-size="10.00" fill="#614000">futures&#45;core</text>
<text xml:space="preserve" text-anchor="start" x="256.71" y="-751.7" font-family="Inter,Arial" font-size="10.00" fill="#614000">0.3.32</text>
<text xml:space="preserve" text-anchor="start" x="236.46" y="-741.7" font-family="Inter,Arial" font-weight="bold" font-size="10.00" fill="#614000">pin&#45;project&#45;lite</text>
<text xml:space="preserve" text-anchor="start" x="256.71" y="-731.7" font-family="Inter,Arial" font-size="10.00" fill="#614000">0.2.17</text>
</g>
<!-- n0&#45;&gt;out1 -->
<g id="edge11" class="edge">
<title>n0&#45;&gt;out1</title>
<path fill="none" stroke="#d19922" stroke-width="0.9" stroke-dasharray="5,2" d="M86.4,-491.8C101.43,-555.26 130.68,-647.03 183.22,-711.2 189.79,-719.22 197.87,-726.4 206.43,-732.71"/>
<polygon fill="#d19922" stroke="#d19922" stroke-width="0.9" points="205.1,-734.13 210.7,-735.74 207.33,-730.99 205.1,-734.13"/>
</g>
<!-- out2 -->
<g id="node9" class="node">
<title>out2</title>
<polygon fill="#fff8e8" stroke="#d19922" points="351.19,-698.4 183.22,-698.4 183.22,-654 357.19,-654 357.19,-692.4 351.19,-698.4"/>
<polyline fill="none" stroke="#d19922" points="351.19,-698.4 351.19,-692.4"/>
<polyline fill="none" stroke="#d19922" points="357.19,-692.4 351.19,-692.4"/>
<text xml:space="preserve" text-anchor="start" x="192.58" y="-682.7" font-family="Inter,Arial" font-size="10.00" fill="#614000">to embedded&#45;websocket&#45;v0.9.4.svg</text>
<text xml:space="preserve" text-anchor="start" x="251.46" y="-672.7" font-family="Inter,Arial" font-weight="bold" font-size="10.00" fill="#614000">httparse</text>
<text xml:space="preserve" text-anchor="start" x="256.71" y="-662.7" font-family="Inter,Arial" font-size="10.00" fill="#614000">1.10.1</text>
</g>
<!-- n0&#45;&gt;out2 -->
<g id="edge12" class="edge">
<title>n0&#45;&gt;out2</title>
<path fill="none" stroke="#d19922" stroke-width="0.9" stroke-dasharray="5,2" d="M93.46,-491.93C110.61,-540.19 139.32,-601.84 183.22,-642.2 186.32,-645.05 189.69,-647.68 193.24,-650.09"/>
<polygon fill="#d19922" stroke="#d19922" stroke-width="0.9" points="192.13,-651.66 197.81,-652.98 194.19,-648.41 192.13,-651.66"/>
</g>
<!-- out3 -->
<g id="node10" class="node">
<title>out3</title>
<polygon fill="#fff8e8" stroke="#d19922" points="710.13,-313.4 584.91,-313.4 584.91,-269 716.13,-269 716.13,-307.4 710.13,-313.4"/>
<polyline fill="none" stroke="#d19922" points="710.13,-313.4 710.13,-307.4"/>
<polyline fill="none" stroke="#d19922" points="716.13,-307.4 710.13,-307.4"/>
<text xml:space="preserve" text-anchor="start" x="594.27" y="-297.7" font-family="Inter,Arial" font-size="10.00" fill="#614000">to hashbrown&#45;v0.17.1.svg</text>
<text xml:space="preserve" text-anchor="start" x="624.64" y="-287.7" font-family="Inter,Arial" font-weight="bold" font-size="10.00" fill="#614000">hashbrown</text>
<text xml:space="preserve" text-anchor="start" x="637.02" y="-277.7" font-family="Inter,Arial" font-size="10.00" fill="#614000">0.17.1</text>
</g>
<!-- n0&#45;&gt;out3 -->
<g id="edge14" class="edge">
<title>n0&#45;&gt;out3</title>
<path fill="none" stroke="#d19922" stroke-width="0.9" stroke-dasharray="5,2" d="M143.45,-347.33C155.86,-338.13 169.29,-329.93 183.22,-324.2 314.24,-270.32 483.39,-274.58 577.75,-282.74"/>
<polygon fill="#d19922" stroke="#d19922" stroke-width="0.9" points="577.41,-284.64 583.06,-283.21 577.75,-280.8 577.41,-284.64"/>
</g>
<!-- out4 -->
<g id="node11" class="node">
<title>out4</title>
<polygon fill="#fff8e8" stroke="#d19922" points="322.32,-629.4 212.1,-629.4 212.1,-575 328.32,-575 328.32,-623.4 322.32,-629.4"/>
<polyline fill="none" stroke="#d19922" points="322.32,-629.4 322.32,-623.4"/>
<polyline fill="none" stroke="#d19922" points="328.32,-623.4 322.32,-623.4"/>
<text xml:space="preserve" text-anchor="start" x="221.46" y="-613.7" font-family="Inter,Arial" font-size="10.00" fill="#614000">to trueos&#45;io&#45;v0.1.0.svg</text>
<text xml:space="preserve" text-anchor="start" x="249.58" y="-603.7" font-family="Inter,Arial" font-weight="bold" font-size="10.00" fill="#614000">trueos&#45;io</text>
<text xml:space="preserve" text-anchor="start" x="259.33" y="-593.7" font-family="Inter,Arial" font-size="10.00" fill="#614000">0.1.0</text>
<text xml:space="preserve" text-anchor="start" x="234.96" y="-583.7" font-family="Inter,Arial" font-size="10.00" fill="#614000">/crates/trueos&#45;io</text>
</g>
<!-- n0&#45;&gt;out4 -->
<g id="edge15" class="edge">
<title>n0&#45;&gt;out4</title>
<path fill="none" stroke="#d19922" stroke-width="0.9" stroke-dasharray="5,2" d="M122.56,-491.99C140.07,-514.29 160.97,-537.78 183.22,-556.2 190.21,-561.99 198.05,-567.37 206.07,-572.26"/>
<polygon fill="#d19922" stroke="#d19922" stroke-width="0.9" points="204.76,-573.72 210.47,-574.87 206.72,-570.41 204.76,-573.72"/>
</g>
<!-- n1&#45;&gt;n3 -->
<g id="edge1" class="edge">
<title>n1&#45;&gt;n3</title>
<path fill="none" stroke="#9aa8b8" stroke-width="0.9" d="M522.91,-459.83C553.25,-472.14 590.87,-487.4 617.18,-498.08"/>
<polygon fill="#9aa8b8" stroke="#9aa8b8" stroke-width="0.9" points="616.2,-499.76 622.02,-500.04 617.65,-496.19 616.2,-499.76"/>
</g>
<!-- n1&#45;&gt;out0 -->
<g id="edge8" class="edge">
<title>n1&#45;&gt;out0</title>
<path fill="none" stroke="#d19922" stroke-width="0.9" stroke-dasharray="5,2" d="M522.91,-421.15C543.88,-413.7 568.33,-405.02 590.12,-397.28"/>
<polygon fill="#d19922" stroke="#d19922" stroke-width="0.9" points="590.67,-399.13 595.21,-395.48 589.38,-395.51 590.67,-399.13"/>
</g>
<!-- n1&#45;&gt;out3 -->
<g id="edge13" class="edge">
<title>n1&#45;&gt;out3</title>
<path fill="none" stroke="#d19922" stroke-width="0.9" stroke-dasharray="5,2" d="M500.43,-413.77C523.03,-393.72 555.61,-365.22 584.91,-341.2 594.35,-333.46 604.74,-325.27 614.38,-317.81"/>
<polygon fill="#d19922" stroke="#d19922" stroke-width="0.9" points="615.39,-319.47 618.57,-314.59 613.04,-316.42 615.39,-319.47"/>
</g>
<!-- n2&#45;&gt;n1 -->
<g id="edge2" class="edge">
<title>n2&#45;&gt;n1</title>
<path fill="none" stroke="#9aa8b8" stroke-width="0.9" d="M335.76,-404.76C360.54,-411.11 388.62,-418.32 412.68,-424.49"/>
<polygon fill="#9aa8b8" stroke="#9aa8b8" stroke-width="0.9" points="411.9,-426.27 417.71,-425.77 412.86,-422.54 411.9,-426.27"/>
</g>
<!-- n2&#45;&gt;out0 -->
<g id="edge9" class="edge">
<title>n2&#45;&gt;out0</title>
<path fill="none" stroke="#d19922" stroke-width="0.9" stroke-dasharray="5,2" d="M335.81,-386.15C407.06,-383.89 520.75,-380.28 589.93,-378.09"/>
<polygon fill="#d19922" stroke="#d19922" stroke-width="0.9" points="589.68,-380.02 595.12,-377.93 589.56,-376.18 589.68,-380.02"/>
</g>
<!-- in5 -->
<g id="node12" class="node">
<title>in5</title>
<polygon fill="#eef6ff" stroke="#4b8fc5" points="124.85,-182.4 12.38,-182.4 12.38,-138 130.85,-138 130.85,-176.4 124.85,-182.4"/>
<polyline fill="none" stroke="#4b8fc5" points="124.85,-182.4 124.85,-176.4"/>
<polyline fill="none" stroke="#4b8fc5" points="130.85,-176.4 124.85,-176.4"/>
<text xml:space="preserve" text-anchor="start" x="21.74" y="-166.7" font-family="Inter,Arial" font-size="10.00" fill="#123d5c">from kurbo&#45;v0.11.3.svg</text>
<text xml:space="preserve" text-anchor="start" x="50.99" y="-156.7" font-family="Inter,Arial" font-weight="bold" font-size="10.00" fill="#123d5c">smallvec</text>
<text xml:space="preserve" text-anchor="start" x="58.11" y="-146.7" font-family="Inter,Arial" font-size="10.00" fill="#123d5c">1.15.1</text>
</g>
<!-- in5&#45;&gt;n4 -->
<g id="edge16" class="edge">
<title>in5&#45;&gt;n4</title>
<path fill="none" stroke="#4b8fc5" stroke-width="0.9" stroke-dasharray="5,2" d="M131.33,-139.59C161.83,-128.88 198.44,-116.04 226.27,-106.27"/>
<polygon fill="#4b8fc5" stroke="#4b8fc5" stroke-width="0.9" points="226.59,-108.2 231.14,-104.56 225.31,-104.56 226.59,-108.2"/>
</g>
<!-- in6 -->
<g id="node13" class="node">
<title>in6</title>
<polygon fill="#eef6ff" stroke="#4b8fc5" points="129.35,-113.4 7.88,-113.4 7.88,-69 135.35,-69 135.35,-107.4 129.35,-113.4"/>
<polyline fill="none" stroke="#4b8fc5" points="129.35,-113.4 129.35,-107.4"/>
<polyline fill="none" stroke="#4b8fc5" points="135.35,-107.4 129.35,-107.4"/>
<text xml:space="preserve" text-anchor="start" x="17.24" y="-97.7" font-family="Inter,Arial" font-size="10.00" fill="#123d5c">from parry2d&#45;v0.26.0.svg</text>
<text xml:space="preserve" text-anchor="start" x="50.99" y="-87.7" font-family="Inter,Arial" font-weight="bold" font-size="10.00" fill="#123d5c">smallvec</text>
<text xml:space="preserve" text-anchor="start" x="58.11" y="-77.7" font-family="Inter,Arial" font-size="10.00" fill="#123d5c">1.15.1</text>
</g>
<!-- in6&#45;&gt;n4 -->
<g id="edge17" class="edge">
<title>in6&#45;&gt;n4</title>
<path fill="none" stroke="#4b8fc5" stroke-width="0.9" stroke-dasharray="5,2" d="M135.63,-91.2C165.03,-91.2 199.29,-91.2 225.75,-91.2"/>
<polygon fill="#4b8fc5" stroke="#4b8fc5" stroke-width="0.9" points="225.44,-93.13 230.94,-91.2 225.44,-89.28 225.44,-93.13"/>
</g>
<!-- in7 -->
<g id="node14" class="node">
<title>in7</title>
<polygon fill="#eef6ff" stroke="#4b8fc5" points="119.97,-44.4 17.25,-44.4 17.25,0 125.97,0 125.97,-38.4 119.97,-44.4"/>
<polyline fill="none" stroke="#4b8fc5" points="119.97,-44.4 119.97,-38.4"/>
<polyline fill="none" stroke="#4b8fc5" points="125.97,-38.4 119.97,-38.4"/>
<text xml:space="preserve" text-anchor="start" x="26.61" y="-28.7" font-family="Inter,Arial" font-size="10.00" fill="#123d5c">from rsa&#45;v0.9.10.svg</text>
<text xml:space="preserve" text-anchor="start" x="50.99" y="-18.7" font-family="Inter,Arial" font-weight="bold" font-size="10.00" fill="#123d5c">smallvec</text>
<text xml:space="preserve" text-anchor="start" x="58.11" y="-8.7" font-family="Inter,Arial" font-size="10.00" fill="#123d5c">1.15.1</text>
</g>
<!-- in7&#45;&gt;n4 -->
<g id="edge18" class="edge">
<title>in7&#45;&gt;n4</title>
<path fill="none" stroke="#4b8fc5" stroke-width="0.9" stroke-dasharray="5,2" d="M126.33,-41.05C157.75,-52.08 196.87,-65.81 226.23,-76.12"/>
<polygon fill="#4b8fc5" stroke="#4b8fc5" stroke-width="0.9" points="225.23,-77.81 231.06,-77.81 226.5,-74.17 225.23,-77.81"/>
</g>
<!-- in8 -->
<g id="node15" class="node">
<title>in8</title>
<polygon fill="#eef6ff" stroke="#4b8fc5" points="538.91,-533.4 397.19,-533.4 397.19,-489 544.91,-489 544.91,-527.4 538.91,-533.4"/>
<polyline fill="none" stroke="#4b8fc5" points="538.91,-533.4 538.91,-527.4"/>
<polyline fill="none" stroke="#4b8fc5" points="544.91,-527.4 538.91,-527.4"/>
<text xml:space="preserve" text-anchor="start" x="406.55" y="-517.7" font-family="Inter,Arial" font-size="10.00" fill="#123d5c">from serde_json&#45;v1.0.149.svg</text>
<text xml:space="preserve" text-anchor="start" x="462.43" y="-507.7" font-family="Inter,Arial" font-weight="bold" font-size="10.00" fill="#123d5c">itoa</text>
<text xml:space="preserve" text-anchor="start" x="457.55" y="-497.7" font-family="Inter,Arial" font-size="10.00" fill="#123d5c">1.0.18</text>
</g>
<!-- in8&#45;&gt;n3 -->
<g id="edge19" class="edge">
<title>in8&#45;&gt;n3</title>
<path fill="none" stroke="#4b8fc5" stroke-width="0.9" stroke-dasharray="5,2" d="M545.26,-511.2C570.03,-511.2 596.46,-511.2 616.52,-511.2"/>
<polygon fill="#4b8fc5" stroke="#4b8fc5" stroke-width="0.9" points="616.47,-513.13 621.97,-511.2 616.47,-509.28 616.47,-513.13"/>
</g>
</g>
</svg>
