<?xml version="1.0" encoding="UTF-8" standalone="no"?>
<!DOCTYPE svg PUBLIC "-//W3C//DTD SVG 1.1//EN"
 "http://www.w3.org/Graphics/SVG/1.1/DTD/svg11.dtd">
<!-- Generated by graphviz version 14.1.2 (0)
 -->
<!-- Title: kurbo&#45;v0.11.3 Pages: 1 -->
<svg width="444pt" height="231pt"
 viewBox="0.00 0.00 444.00 231.00" xmlns="http://www.w3.org/2000/svg" xmlns:xlink="http://www.w3.org/1999/xlink">
<g id="graph0" class="graph" transform="scale(1 1) rotate(0) translate(4 227.2)">
<title>kurbo&#45;v0.11.3</title>
<polygon fill="white" stroke="none" points="-4,4 -4,-227.2 440.31,-227.2 440.31,4 -4,4"/>
<!-- n0 -->
<g id="node1" class="node">
<title>n0</title>
<path fill="#dff3ff" stroke="#1b78a6" d="M271.16,-99.2C271.16,-99.2 195.14,-99.2 195.14,-99.2 189.14,-99.2 183.14,-93.2 183.14,-87.2 183.14,-87.2 183.14,-74 183.14,-74 183.14,-68 189.14,-62 195.14,-62 195.14,-62 271.16,-62 271.16,-62 277.16,-62 283.16,-68 283.16,-74 283.16,-74 283.16,-87.2 283.16,-87.2 283.16,-93.2 277.16,-99.2 271.16,-99.2"/>
<text xml:space="preserve" text-anchor="start" x="219.65" y="-87.1" font-family="Inter,Arial" font-weight="bold" font-size="10.00" fill="#172033">kurbo</text>
<text xml:space="preserve" text-anchor="start" x="219.65" y="-77.1" font-family="Inter,Arial" font-size="10.00" fill="#172033">0.11.3</text>
<text xml:space="preserve" text-anchor="start" x="188.9" y="-67.1" font-family="Inter,Arial" font-size="10.00" fill="#172033">/vendor/kurbo&#45;0.11.3</text>
</g>
<!-- n1 -->
<g id="node2" class="node">
<title>n1</title>
<path fill="#f7f9fb" stroke="#8b9bb0" d="M403.55,-160.6C403.55,-160.6 373.55,-160.6 373.55,-160.6 367.55,-160.6 361.55,-154.6 361.55,-148.6 361.55,-148.6 361.55,-136.6 361.55,-136.6 361.55,-130.6 367.55,-124.6 373.55,-124.6 373.55,-124.6 403.55,-124.6 403.55,-124.6 409.55,-124.6 415.55,-130.6 415.55,-136.6 415.55,-136.6 415.55,-148.6 415.55,-148.6 415.55,-154.6 409.55,-160.6 403.55,-160.6"/>
<text xml:space="preserve" text-anchor="start" x="369.05" y="-144.1" font-family="Inter,Arial" font-weight="bold" font-size="10.00" fill="#172033">arrayvec</text>
<text xml:space="preserve" text-anchor="start" x="377.67" y="-134.1" font-family="Inter,Arial" font-size="10.00" fill="#172033">0.7.6</text>
</g>
<!-- n0&#45;&gt;n1 -->
<g id="edge1" class="edge">
<title>n0&#45;&gt;n1</title>
<path fill="none" stroke="#9aa8b8" stroke-width="0.9" d="M281.01,-99.54C305.07,-109.26 333.77,-120.86 355.31,-129.57"/>
<polygon fill="#9aa8b8" stroke="#9aa8b8" stroke-width="0.9" points="354.39,-131.27 360.21,-131.55 355.83,-127.7 354.39,-131.27"/>
</g>
<!-- out0 -->
<g id="node3" class="node">
<title>out0</title>
<polygon fill="#fff8e8" stroke="#d19922" points="430.31,-99.2 340.79,-99.2 340.79,-62 436.31,-62 436.31,-93.2 430.31,-99.2"/>
<polyline fill="none" stroke="#d19922" points="430.31,-99.2 430.31,-93.2"/>
<polyline fill="none" stroke="#d19922" points="436.31,-93.2 430.31,-93.2"/>
<text xml:space="preserve" text-anchor="start" x="346.55" y="-87.1" font-family="Inter,Arial" font-size="10.00" fill="#614000">to hyper&#45;v1.9.0.svg</text>
<text xml:space="preserve" text-anchor="start" x="367.92" y="-77.1" font-family="Inter,Arial" font-weight="bold" font-size="10.00" fill="#614000">smallvec</text>
<text xml:space="preserve" text-anchor="start" x="375.05" y="-67.1" font-family="Inter,Arial" font-size="10.00" fill="#614000">1.15.1</text>
</g>
<!-- n0&#45;&gt;out0 -->
<g id="edge2" class="edge">
<title>n0&#45;&gt;out0</title>
<path fill="none" stroke="#d19922" stroke-width="0.9" stroke-dasharray="5,2" d="M283.53,-80.6C299.62,-80.6 317.54,-80.6 333.92,-80.6"/>
<polygon fill="#d19922" stroke="#d19922" stroke-width="0.9" points="333.49,-82.53 338.99,-80.6 333.49,-78.68 333.49,-82.53"/>
</g>
<!-- out1 -->
<g id="node4" class="node">
<title>out1</title>
<polygon fill="#fff8e8" stroke="#d19922" points="429.93,-37.2 341.16,-37.2 341.16,0 435.93,0 435.93,-31.2 429.93,-37.2"/>
<polyline fill="none" stroke="#d19922" points="429.93,-37.2 429.93,-31.2"/>
<polyline fill="none" stroke="#d19922" points="435.93,-31.2 429.93,-31.2"/>
<text xml:space="preserve" text-anchor="start" x="346.92" y="-25.1" font-family="Inter,Arial" font-size="10.00" fill="#614000">to libm&#45;v0.2.16.svg</text>
<text xml:space="preserve" text-anchor="start" x="378.05" y="-15.1" font-family="Inter,Arial" font-weight="bold" font-size="10.00" fill="#614000">libm</text>
<text xml:space="preserve" text-anchor="start" x="375.05" y="-5.1" font-family="Inter,Arial" font-size="10.00" fill="#614000">0.2.16</text>
</g>
<!-- n0&#45;&gt;out1 -->
<g id="edge3" class="edge">
<title>n0&#45;&gt;out1</title>
<path fill="none" stroke="#d19922" stroke-width="0.9" stroke-dasharray="5,2" d="M281.01,-61.66C297.88,-54.84 317.04,-47.1 334.41,-40.08"/>
<polygon fill="#d19922" stroke="#d19922" stroke-width="0.9" points="335.08,-41.89 339.45,-38.04 333.63,-38.32 335.08,-41.89"/>
</g>
<!-- in2 -->
<g id="node5" class="node">
<title>in2</title>
<polygon fill="#eef6ff" stroke="#4b8fc5" points="294.79,-223.2 165.52,-223.2 165.52,-186 300.79,-186 300.79,-217.2 294.79,-223.2"/>
<polyline fill="none" stroke="#4b8fc5" points="294.79,-223.2 294.79,-217.2"/>
<polyline fill="none" stroke="#4b8fc5" points="300.79,-217.2 294.79,-217.2"/>
<text xml:space="preserve" text-anchor="start" x="171.28" y="-211.1" font-family="Inter,Arial" font-size="10.00" fill="#123d5c">from lyon_geom&#45;v1.0.19.svg</text>
<text xml:space="preserve" text-anchor="start" x="213.65" y="-201.1" font-family="Inter,Arial" font-weight="bold" font-size="10.00" fill="#123d5c">arrayvec</text>
<text xml:space="preserve" text-anchor="start" x="222.28" y="-191.1" font-family="Inter,Arial" font-size="10.00" fill="#123d5c">0.7.6</text>
</g>
<!-- in2&#45;&gt;n1 -->
<g id="edge4" class="edge">
<title>in2&#45;&gt;n1</title>
<path fill="none" stroke="#4b8fc5" stroke-width="0.9" stroke-dasharray="5,2" d="M281.01,-185.66C305.07,-175.94 333.77,-164.34 355.31,-155.63"/>
<polygon fill="#4b8fc5" stroke="#4b8fc5" stroke-width="0.9" points="355.83,-157.5 360.21,-153.65 354.39,-153.93 355.83,-157.5"/>
</g>
<!-- in3 -->
<g id="node6" class="node">
<title>in3</title>
<polygon fill="#eef6ff" stroke="#4b8fc5" points="287.29,-161.2 173.02,-161.2 173.02,-124 293.29,-124 293.29,-155.2 287.29,-161.2"/>
<polyline fill="none" stroke="#4b8fc5" points="287.29,-161.2 287.29,-155.2"/>
<polyline fill="none" stroke="#4b8fc5" points="293.29,-155.2 287.29,-155.2"/>
<text xml:space="preserve" text-anchor="start" x="178.78" y="-149.1" font-family="Inter,Arial" font-size="10.00" fill="#123d5c">from parry2d&#45;v0.26.0.svg</text>
<text xml:space="preserve" text-anchor="start" x="213.65" y="-139.1" font-family="Inter,Arial" font-weight="bold" font-size="10.00" fill="#123d5c">arrayvec</text>
<text xml:space="preserve" text-anchor="start" x="222.28" y="-129.1" font-family="Inter,Arial" font-size="10.00" fill="#123d5c">0.7.6</text>
</g>
<!-- in3&#45;&gt;n1 -->
<g id="edge5" class="edge">
<title>in3&#45;&gt;n1</title>
<path fill="none" stroke="#4b8fc5" stroke-width="0.9" stroke-dasharray="5,2" d="M293.46,-142.6C314.15,-142.6 336.63,-142.6 354.42,-142.6"/>
<polygon fill="#4b8fc5" stroke="#4b8fc5" stroke-width="0.9" points="354.38,-144.53 359.88,-142.6 354.38,-140.68 354.38,-144.53"/>
</g>
<!-- in4 -->
<g id="node7" class="node">
<title>in4</title>
<polygon fill="#eef6ff" stroke="#4b8fc5" points="119.52,-140.2 0,-140.2 0,-93 125.52,-93 125.52,-134.2 119.52,-140.2"/>
<polyline fill="none" stroke="#4b8fc5" points="119.52,-140.2 119.52,-134.2"/>
<polyline fill="none" stroke="#4b8fc5" points="125.52,-134.2 119.52,-134.2"/>
<text xml:space="preserve" text-anchor="start" x="5.76" y="-128.1" font-family="Inter,Arial" font-size="10.00" fill="#123d5c">from trueos&#45;qjs&#45;v0.1.0.svg</text>
<text xml:space="preserve" text-anchor="start" x="49.26" y="-118.1" font-family="Inter,Arial" font-weight="bold" font-size="10.00" fill="#123d5c">kurbo</text>
<text xml:space="preserve" text-anchor="start" x="49.26" y="-108.1" font-family="Inter,Arial" font-size="10.00" fill="#123d5c">0.11.3</text>
<text xml:space="preserve" text-anchor="start" x="18.51" y="-98.1" font-family="Inter,Arial" font-size="10.00" fill="#123d5c">/vendor/kurbo&#45;0.11.3</text>
</g>
<!-- in4&#45;&gt;n0 -->
<g id="edge6" class="edge">
<title>in4&#45;&gt;n0</title>
<path fill="none" stroke="#4b8fc5" stroke-width="0.9" stroke-dasharray="5,2" d="M125.99,-103.3C142.53,-99.76 160.29,-95.96 176.46,-92.51"/>
<polygon fill="#4b8fc5" stroke="#4b8fc5" stroke-width="0.9" points="176.5,-94.47 181.47,-91.44 175.69,-90.7 176.5,-94.47"/>
</g>
<!-- in5 -->
<g id="node8" class="node">
<title>in5</title>
<polygon fill="#eef6ff" stroke="#4b8fc5" points="111.27,-68.2 8.25,-68.2 8.25,-21 117.27,-21 117.27,-62.2 111.27,-68.2"/>
<polyline fill="none" stroke="#4b8fc5" points="111.27,-68.2 111.27,-62.2"/>
<polyline fill="none" stroke="#4b8fc5" points="117.27,-62.2 111.27,-62.2"/>
<text xml:space="preserve" text-anchor="start" x="14.01" y="-56.1" font-family="Inter,Arial" font-size="10.00" fill="#123d5c">from usvg&#45;v0.45.1.svg</text>
<text xml:space="preserve" text-anchor="start" x="49.26" y="-46.1" font-family="Inter,Arial" font-weight="bold" font-size="10.00" fill="#123d5c">kurbo</text>
<text xml:space="preserve" text-anchor="start" x="49.26" y="-36.1" font-family="Inter,Arial" font-size="10.00" fill="#123d5c">0.11.3</text>
<text xml:space="preserve" text-anchor="start" x="18.51" y="-26.1" font-family="Inter,Arial" font-size="10.00" fill="#123d5c">/vendor/kurbo&#45;0.11.3</text>
</g>
<!-- in5&#45;&gt;n0 -->
<g id="edge7" class="edge">
<title>in5&#45;&gt;n0</title>
<path fill="none" stroke="#4b8fc5" stroke-width="0.9" stroke-dasharray="5,2" d="M117.5,-56.09C136.36,-60.12 157.56,-64.65 176.56,-68.72"/>
<polygon fill="#4b8fc5" stroke="#4b8fc5" stroke-width="0.9" points="175.8,-70.52 181.58,-69.79 176.61,-66.76 175.8,-70.52"/>
</g>
</g>
</svg>
