<?xml version="1.0" encoding="UTF-8" standalone="no"?>
<!DOCTYPE svg PUBLIC "-//W3C//DTD SVG 1.1//EN"
 "http://www.w3.org/Graphics/SVG/1.1/DTD/svg11.dtd">
<!-- Generated by graphviz version 14.1.2 (0)
 -->
<!-- Title: kurbo&#45;v0.11.3 Pages: 1 -->
<svg width="466pt" height="259pt"
 viewBox="0.00 0.00 466.00 259.00" xmlns="http://www.w3.org/2000/svg" xmlns:xlink="http://www.w3.org/1999/xlink">
<g id="graph0" class="graph" transform="scale(1 1) rotate(0) translate(4 255.4)">
<title>kurbo&#45;v0.11.3</title>
<polygon fill="white" stroke="none" points="-4,4 -4,-255.4 461.91,-255.4 461.91,4 -4,4"/>
<!-- n0 -->
<g id="node1" class="node">
<title>n0</title>
<path fill="#dff3ff" stroke="#1b78a6" d="M290.81,-113.4C290.81,-113.4 197.09,-113.4 197.09,-113.4 191.09,-113.4 185.09,-107.4 185.09,-101.4 185.09,-101.4 185.09,-75 185.09,-75 185.09,-69 191.09,-63 197.09,-63 197.09,-63 290.81,-63 290.81,-63 296.81,-63 302.81,-69 302.81,-75 302.81,-75 302.81,-101.4 302.81,-101.4 302.81,-107.4 296.81,-113.4 290.81,-113.4"/>
<text xml:space="preserve" text-anchor="start" x="225.2" y="-94.85" font-family="Inter,Arial" font-weight="bold" font-size="13.00" fill="#172033">kurbo</text>
<text xml:space="preserve" text-anchor="start" x="228.2" y="-82.8" font-family="Inter,Arial" font-size="12.00" fill="#172033">0.11.3</text>
<text xml:space="preserve" text-anchor="start" x="194.45" y="-71.75" font-family="Inter,Arial" font-size="11.00" fill="#172033">/vendor/kurbo&#45;0.11.3</text>
</g>
<!-- n1 -->
<g id="node2" class="node">
<title>n1</title>
<path fill="#f7f9fb" stroke="#8b9bb0" d="M431.66,-179.9C431.66,-179.9 381.44,-179.9 381.44,-179.9 375.44,-179.9 369.44,-173.9 369.44,-167.9 369.44,-167.9 369.44,-152.5 369.44,-152.5 369.44,-146.5 375.44,-140.5 381.44,-140.5 381.44,-140.5 431.66,-140.5 431.66,-140.5 437.66,-140.5 443.66,-146.5 443.66,-152.5 443.66,-152.5 443.66,-167.9 443.66,-167.9 443.66,-173.9 437.66,-179.9 431.66,-179.9"/>
<text xml:space="preserve" text-anchor="start" x="378.8" y="-161.35" font-family="Inter,Arial" font-weight="bold" font-size="13.00" fill="#172033">arrayvec</text>
<text xml:space="preserve" text-anchor="start" x="393.42" y="-149.3" font-family="Inter,Arial" font-size="12.00" fill="#172033">0.7.7</text>
</g>
<!-- n0&#45;&gt;n1 -->
<g id="edge1" class="edge">
<title>n0&#45;&gt;n1</title>
<path fill="none" stroke="#9aa8b8" stroke-width="0.9" d="M302.03,-113.79C322.11,-122.79 344.32,-132.75 363,-141.13"/>
<polygon fill="#9aa8b8" stroke="#9aa8b8" stroke-width="0.9" points="362.15,-142.85 367.95,-143.34 363.72,-139.34 362.15,-142.85"/>
</g>
<!-- out0 -->
<g id="node3" class="node">
<title>out0</title>
<polygon fill="#fff8e8" stroke="#d19922" points="451.91,-113.4 355.19,-113.4 355.19,-69 457.91,-69 457.91,-107.4 451.91,-113.4"/>
<polyline fill="none" stroke="#d19922" points="451.91,-113.4 451.91,-107.4"/>
<polyline fill="none" stroke="#d19922" points="457.91,-107.4 451.91,-107.4"/>
<text xml:space="preserve" text-anchor="start" x="364.55" y="-97.7" font-family="Inter,Arial" font-size="10.00" fill="#614000">to hyper&#45;v1.9.0.svg</text>
<text xml:space="preserve" text-anchor="start" x="385.92" y="-87.7" font-family="Inter,Arial" font-weight="bold" font-size="10.00" fill="#614000">smallvec</text>
<text xml:space="preserve" text-anchor="start" x="393.05" y="-77.7" font-family="Inter,Arial" font-size="10.00" fill="#614000">1.15.2</text>
</g>
<!-- n0&#45;&gt;out0 -->
<g id="edge2" class="edge">
<title>n0&#45;&gt;out0</title>
<path fill="none" stroke="#d19922" stroke-width="0.9" stroke-dasharray="5,2" d="M302.93,-89.28C317.66,-89.56 333.47,-89.85 348.17,-90.13"/>
<polygon fill="#d19922" stroke="#d19922" stroke-width="0.9" points="347.94,-92.05 353.47,-90.23 348.01,-88.2 347.94,-92.05"/>
</g>
<!-- out1 -->
<g id="node4" class="node">
<title>out1</title>
<polygon fill="#fff8e8" stroke="#d19922" points="451.53,-44.4 355.56,-44.4 355.56,0 457.53,0 457.53,-38.4 451.53,-44.4"/>
<polyline fill="none" stroke="#d19922" points="451.53,-44.4 451.53,-38.4"/>
<polyline fill="none" stroke="#d19922" points="457.53,-38.4 451.53,-38.4"/>
<text xml:space="preserve" text-anchor="start" x="364.92" y="-28.7" font-family="Inter,Arial" font-size="10.00" fill="#614000">to libm&#45;v0.2.16.svg</text>
<text xml:space="preserve" text-anchor="start" x="396.05" y="-18.7" font-family="Inter,Arial" font-weight="bold" font-size="10.00" fill="#614000">libm</text>
<text xml:space="preserve" text-anchor="start" x="393.05" y="-8.7" font-family="Inter,Arial" font-size="10.00" fill="#614000">0.2.16</text>
</g>
<!-- n0&#45;&gt;out1 -->
<g id="edge3" class="edge">
<title>n0&#45;&gt;out1</title>
<path fill="none" stroke="#d19922" stroke-width="0.9" stroke-dasharray="5,2" d="M302.93,-64.37C317.87,-58.23 333.93,-51.64 348.8,-45.52"/>
<polygon fill="#d19922" stroke="#d19922" stroke-width="0.9" points="349.48,-47.32 353.83,-43.45 348.02,-43.76 349.48,-47.32"/>
</g>
<!-- in2 -->
<g id="node5" class="node">
<title>in2</title>
<polygon fill="#eef6ff" stroke="#4b8fc5" points="309.19,-251.4 172.72,-251.4 172.72,-207 315.19,-207 315.19,-245.4 309.19,-251.4"/>
<polyline fill="none" stroke="#4b8fc5" points="309.19,-251.4 309.19,-245.4"/>
<polyline fill="none" stroke="#4b8fc5" points="315.19,-245.4 309.19,-245.4"/>
<text xml:space="preserve" text-anchor="start" x="182.08" y="-235.7" font-family="Inter,Arial" font-size="10.00" fill="#123d5c">from lyon_geom&#45;v1.0.19.svg</text>
<text xml:space="preserve" text-anchor="start" x="224.45" y="-225.7" font-family="Inter,Arial" font-weight="bold" font-size="10.00" fill="#123d5c">arrayvec</text>
<text xml:space="preserve" text-anchor="start" x="233.08" y="-215.7" font-family="Inter,Arial" font-size="10.00" fill="#123d5c">0.7.7</text>
</g>
<!-- in2&#45;&gt;n1 -->
<g id="edge4" class="edge">
<title>in2&#45;&gt;n1</title>
<path fill="none" stroke="#4b8fc5" stroke-width="0.9" stroke-dasharray="5,2" d="M297.54,-206.61C318.76,-197.49 342.93,-187.11 363.01,-178.48"/>
<polygon fill="#4b8fc5" stroke="#4b8fc5" stroke-width="0.9" points="363.56,-180.33 367.86,-176.39 362.04,-176.8 363.56,-180.33"/>
</g>
<!-- in3 -->
<g id="node6" class="node">
<title>in3</title>
<polygon fill="#eef6ff" stroke="#4b8fc5" points="301.69,-182.4 180.22,-182.4 180.22,-138 307.69,-138 307.69,-176.4 301.69,-182.4"/>
<polyline fill="none" stroke="#4b8fc5" points="301.69,-182.4 301.69,-176.4"/>
<polyline fill="none" stroke="#4b8fc5" points="307.69,-176.4 301.69,-176.4"/>
<text xml:space="preserve" text-anchor="start" x="189.58" y="-166.7" font-family="Inter,Arial" font-size="10.00" fill="#123d5c">from parry2d&#45;v0.26.1.svg</text>
<text xml:space="preserve" text-anchor="start" x="224.45" y="-156.7" font-family="Inter,Arial" font-weight="bold" font-size="10.00" fill="#123d5c">arrayvec</text>
<text xml:space="preserve" text-anchor="start" x="233.08" y="-146.7" font-family="Inter,Arial" font-size="10.00" fill="#123d5c">0.7.7</text>
</g>
<!-- in3&#45;&gt;n1 -->
<g id="edge5" class="edge">
<title>in3&#45;&gt;n1</title>
<path fill="none" stroke="#4b8fc5" stroke-width="0.9" stroke-dasharray="5,2" d="M307.97,-160.2C326.27,-160.2 345.84,-160.2 362.61,-160.2"/>
<polygon fill="#4b8fc5" stroke="#4b8fc5" stroke-width="0.9" points="362.27,-162.13 367.77,-160.2 362.27,-158.28 362.27,-162.13"/>
</g>
<!-- in4 -->
<g id="node7" class="node">
<title>in4</title>
<polygon fill="#eef6ff" stroke="#4b8fc5" points="126.72,-155.4 0,-155.4 0,-101 132.72,-101 132.72,-149.4 126.72,-155.4"/>
<polyline fill="none" stroke="#4b8fc5" points="126.72,-155.4 126.72,-149.4"/>
<polyline fill="none" stroke="#4b8fc5" points="132.72,-149.4 126.72,-149.4"/>
<text xml:space="preserve" text-anchor="start" x="9.36" y="-139.7" font-family="Inter,Arial" font-size="10.00" fill="#123d5c">from trueos&#45;qjs&#45;v0.1.0.svg</text>
<text xml:space="preserve" text-anchor="start" x="52.86" y="-129.7" font-family="Inter,Arial" font-weight="bold" font-size="10.00" fill="#123d5c">kurbo</text>
<text xml:space="preserve" text-anchor="start" x="52.86" y="-119.7" font-family="Inter,Arial" font-size="10.00" fill="#123d5c">0.11.3</text>
<text xml:space="preserve" text-anchor="start" x="22.11" y="-109.7" font-family="Inter,Arial" font-size="10.00" fill="#123d5c">/vendor/kurbo&#45;0.11.3</text>
</g>
<!-- in4&#45;&gt;n0 -->
<g id="edge6" class="edge">
<title>in4&#45;&gt;n0</title>
<path fill="none" stroke="#4b8fc5" stroke-width="0.9" stroke-dasharray="5,2" d="M132.99,-113.25C147.69,-109.9 163.28,-106.35 177.95,-103.01"/>
<polygon fill="#4b8fc5" stroke="#4b8fc5" stroke-width="0.9" points="178.36,-104.89 183.29,-101.79 177.5,-101.14 178.36,-104.89"/>
</g>
<!-- in5 -->
<g id="node8" class="node">
<title>in5</title>
<polygon fill="#eef6ff" stroke="#4b8fc5" points="118.47,-76.4 8.25,-76.4 8.25,-22 124.47,-22 124.47,-70.4 118.47,-76.4"/>
<polyline fill="none" stroke="#4b8fc5" points="118.47,-76.4 118.47,-70.4"/>
<polyline fill="none" stroke="#4b8fc5" points="124.47,-70.4 118.47,-70.4"/>
<text xml:space="preserve" text-anchor="start" x="17.61" y="-60.7" font-family="Inter,Arial" font-size="10.00" fill="#123d5c">from usvg&#45;v0.45.1.svg</text>
<text xml:space="preserve" text-anchor="start" x="52.86" y="-50.7" font-family="Inter,Arial" font-weight="bold" font-size="10.00" fill="#123d5c">kurbo</text>
<text xml:space="preserve" text-anchor="start" x="52.86" y="-40.7" font-family="Inter,Arial" font-size="10.00" fill="#123d5c">0.11.3</text>
<text xml:space="preserve" text-anchor="start" x="22.11" y="-30.7" font-family="Inter,Arial" font-size="10.00" fill="#123d5c">/vendor/kurbo&#45;0.11.3</text>
</g>
<!-- in5&#45;&gt;n0 -->
<g id="edge7" class="edge">
<title>in5&#45;&gt;n0</title>
<path fill="none" stroke="#4b8fc5" stroke-width="0.9" stroke-dasharray="5,2" d="M124.86,-61.97C141.96,-65.77 160.81,-69.96 178.34,-73.85"/>
<polygon fill="#4b8fc5" stroke="#4b8fc5" stroke-width="0.9" points="177.61,-75.66 183.4,-74.97 178.45,-71.9 177.61,-75.66"/>
</g>
</g>
</svg>
