<?xml version="1.0" encoding="UTF-8" standalone="no"?>
<!DOCTYPE svg PUBLIC "-//W3C//DTD SVG 1.1//EN"
 "http://www.w3.org/Graphics/SVG/1.1/DTD/svg11.dtd">
<!-- Generated by graphviz version 14.1.2 (0)
 -->
<!-- Title: kurbo&#45;v0.11.3 Pages: 1 -->
<svg width="466pt" height="259pt"
 viewBox="0.00 0.00 466.00 259.00" xmlns="http://www.w3.org/2000/svg" xmlns:xlink="http://www.w3.org/1999/xlink">
<g id="graph0" class="graph" transform="scale(1 1) rotate(0) translate(4 255.4)">
<title>kurbo&#45;v0.11.3</title>
<polygon fill="white" stroke="none" points="-4,4 -4,-255.4 461.91,-255.4 461.91,4 -4,4"/>
<!-- n0 -->
<g id="node1" class="node">
<title>n0</title>
<path fill="#dff3ff" stroke="#1b78a6" d="M290.81,-113.4C290.81,-113.4 197.09,-113.4 197.09,-113.4 191.09,-113.4 185.09,-107.4 185.09,-101.4 185.09,-101.4 185.09,-75 185.09,-75 185.09,-69 191.09,-63 197.09,-63 197.09,-63 290.81,-63 290.81,-63 296.81,-63 302.81,-69 302.81,-75 302.81,-75 302.81,-101.4 302.81,-101.4 302.81,-107.4 296.81,-113.4 290.81,-113.4"/>
<text xml:space="preserve" text-anchor="start" x="225.2" y="-94.85" font-family="Inter,Arial" font-weight="bold" font-size="13.00" fill="#172033">kurbo</text>
<text xml:space="preserve" text-anchor="start" x="228.2" y="-82.8" font-family="Inter,Arial" font-size="12.00" fill="#172033">0.11.3</text>
<text xml:space="preserve" text-anchor="start" x="194.45" y="-71.75" font-family="Inter,Arial" font-size="11.00" fill="#172033">/vendor/kurbo&#45;0.11.3</text>
</g>
<!-- n1 -->
<g id="node2" class="node">
<title>n1</title>
<path fill="#f7f9fb" stroke="#8b9bb0" d="M431.66,-179.9C431.66,-179.9 381.44,-179.9 381.44,-179.9 375.44,-179.9 369.44,-173.9 369.44,-167.9 369.44,-167.9 369.44,-152.5 369.44,-152.5 369.44,-146.5 375.44,-140.5 381.44,-140.5 381.44,-140.5 431.66,-140.5 431.66,-140.5 437.66,-140.5 443.66,-146.5 443.66,-152.5 443.66,-152.5 443.66,-167.9 443.66,-167.9 443.66,-173.9 437.66,-179.9 431.66,-179.9"/>
<text xml:space="preserve" text-anchor="start" x="378.8" y="-161.35" font-family="Inter,Arial" font-weight="bold" font-size="13.00" fill="#172033">arrayvec</text>
<text xml:space="preserve" text-anchor="start" x="393.42" y="-149.3" font-family="Inter,Arial" font-size="12.00" fill="#172033">0.7.7</text>
</g>
<!-- n0&#45;&gt;n1 -->
<g id="edge1" class="edge">
<title>n0&#45;&gt;n1</title>
<path fill="none" stroke="#9aa8b8" stroke-width="7.2" d="M302.03,-113.79C320.37,-122.01 340.48,-131.03 358.06,-138.91"/>
<polygon fill="#9aa8b8" stroke="#9aa8b8" stroke-width="7.2" points="356.6,-142.05 363.03,-141.14 359.43,-135.73 356.6,-142.05"/>
</g>
<!-- out0 -->
<g id="node3" class="node">
<title>out0</title>
<polygon fill="#fff8e8" stroke="#d19922" points="451.91,-113.4 355.19,-113.4 355.19,-69 457.91,-69 457.91,-107.4 451.91,-113.4"/>
<polyline fill="none" stroke="#d19922" points="451.91,-113.4 451.91,-107.4"/>
<polyline fill="none" stroke="#d19922" points="457.91,-107.4 451.91,-107.4"/>
<text xml:space="preserve" text-anchor="start" x="364.55" y="-97.7" font-family="Inter,Arial" font-size="10.00" fill="#614000">to hyper&#45;v1.9.0.svg</text>
<text xml:space="preserve" text-anchor="start" x="385.92" y="-87.7" font-family="Inter,Arial" font-weight="bold" font-size="10.00" fill="#614000">smallvec</text>
<text xml:space="preserve" text-anchor="start" x="393.05" y="-77.7" font-family="Inter,Arial" font-size="10.00" fill="#614000">1.15.2</text>
</g>
<!-- n0&#45;&gt;out0 -->
<g id="edge2" class="edge">
<title>n0&#45;&gt;out0</title>
<path fill="none" stroke="#d19922" stroke-width="7.2" stroke-dasharray="5,2" d="M302.93,-89.28C315.93,-89.53 329.78,-89.78 342.96,-90.03"/>
<polygon fill="#d19922" stroke="#d19922" stroke-width="7.2" points="342.52,-93.49 348.08,-90.13 342.65,-86.56 342.52,-93.49"/>
</g>
<!-- out1 -->
<g id="node4" class="node">
<title>out1</title>
<polygon fill="#fff8e8" stroke="#d19922" points="451.53,-44.4 355.56,-44.4 355.56,0 457.53,0 457.53,-38.4 451.53,-44.4"/>
<polyline fill="none" stroke="#d19922" points="451.53,-44.4 451.53,-38.4"/>
<polyline fill="none" stroke="#d19922" points="457.53,-38.4 451.53,-38.4"/>
<text xml:space="preserve" text-anchor="start" x="364.92" y="-28.7" font-family="Inter,Arial" font-size="10.00" fill="#614000">to libm&#45;v0.2.16.svg</text>
<text xml:space="preserve" text-anchor="start" x="396.05" y="-18.7" font-family="Inter,Arial" font-weight="bold" font-size="10.00" fill="#614000">libm</text>
<text xml:space="preserve" text-anchor="start" x="393.05" y="-8.7" font-family="Inter,Arial" font-size="10.00" fill="#614000">0.2.16</text>
</g>
<!-- n0&#45;&gt;out1 -->
<g id="edge3" class="edge">
<title>n0&#45;&gt;out1</title>
<path fill="none" stroke="#d19922" stroke-width="7.2" stroke-dasharray="5,2" d="M302.93,-64.37C316.27,-58.89 330.5,-53.04 343.98,-47.5"/>
<polygon fill="#d19922" stroke="#d19922" stroke-width="7.2" points="345.08,-50.8 348.85,-45.5 342.44,-44.39 345.08,-50.8"/>
</g>
<!-- in2 -->
<g id="node5" class="node">
<title>in2</title>
<polygon fill="#eef6ff" stroke="#4b8fc5" points="309.19,-251.4 172.72,-251.4 172.72,-207 315.19,-207 315.19,-245.4 309.19,-251.4"/>
<polyline fill="none" stroke="#4b8fc5" points="309.19,-251.4 309.19,-245.4"/>
<polyline fill="none" stroke="#4b8fc5" points="315.19,-245.4 309.19,-245.4"/>
<text xml:space="preserve" text-anchor="start" x="182.08" y="-235.7" font-family="Inter,Arial" font-size="10.00" fill="#123d5c">from lyon_geom&#45;v1.0.19.svg</text>
<text xml:space="preserve" text-anchor="start" x="224.45" y="-225.7" font-family="Inter,Arial" font-weight="bold" font-size="10.00" fill="#123d5c">arrayvec</text>
<text xml:space="preserve" text-anchor="start" x="233.08" y="-215.7" font-family="Inter,Arial" font-size="10.00" fill="#123d5c">0.7.7</text>
</g>
<!-- in2&#45;&gt;n1 -->
<g id="edge4" class="edge">
<title>in2&#45;&gt;n1</title>
<path fill="none" stroke="#4b8fc5" stroke-width="7.2" stroke-dasharray="5,2" d="M297.54,-206.61C317.02,-198.24 338.99,-188.8 358,-180.63"/>
<polygon fill="#4b8fc5" stroke="#4b8fc5" stroke-width="7.2" points="359.22,-183.88 362.9,-178.52 356.48,-177.51 359.22,-183.88"/>
</g>
<!-- in3 -->
<g id="node6" class="node">
<title>in3</title>
<polygon fill="#eef6ff" stroke="#4b8fc5" points="301.69,-182.4 180.22,-182.4 180.22,-138 307.69,-138 307.69,-176.4 301.69,-182.4"/>
<polyline fill="none" stroke="#4b8fc5" points="301.69,-182.4 301.69,-176.4"/>
<polyline fill="none" stroke="#4b8fc5" points="307.69,-176.4 301.69,-176.4"/>
<text xml:space="preserve" text-anchor="start" x="189.58" y="-166.7" font-family="Inter,Arial" font-size="10.00" fill="#123d5c">from parry2d&#45;v0.26.1.svg</text>
<text xml:space="preserve" text-anchor="start" x="224.45" y="-156.7" font-family="Inter,Arial" font-weight="bold" font-size="10.00" fill="#123d5c">arrayvec</text>
<text xml:space="preserve" text-anchor="start" x="233.08" y="-146.7" font-family="Inter,Arial" font-size="10.00" fill="#123d5c">0.7.7</text>
</g>
<!-- in3&#45;&gt;n1 -->
<g id="edge5" class="edge">
<title>in3&#45;&gt;n1</title>
<path fill="none" stroke="#4b8fc5" stroke-width="7.2" stroke-dasharray="5,2" d="M307.97,-160.2C324.33,-160.2 341.7,-160.2 357.18,-160.2"/>
<polygon fill="#4b8fc5" stroke="#4b8fc5" stroke-width="7.2" points="356.88,-163.67 362.38,-160.2 356.88,-156.74 356.88,-163.67"/>
</g>
<!-- in4 -->
<g id="node7" class="node">
<title>in4</title>
<polygon fill="#eef6ff" stroke="#4b8fc5" points="126.72,-155.4 0,-155.4 0,-101 132.72,-101 132.72,-149.4 126.72,-155.4"/>
<polyline fill="none" stroke="#4b8fc5" points="126.72,-155.4 126.72,-149.4"/>
<polyline fill="none" stroke="#4b8fc5" points="132.72,-149.4 126.72,-149.4"/>
<text xml:space="preserve" text-anchor="start" x="9.36" y="-139.7" font-family="Inter,Arial" font-size="10.00" fill="#123d5c">from trueos&#45;qjs&#45;v0.1.0.svg</text>
<text xml:space="preserve" text-anchor="start" x="52.86" y="-129.7" font-family="Inter,Arial" font-weight="bold" font-size="10.00" fill="#123d5c">kurbo</text>
<text xml:space="preserve" text-anchor="start" x="52.86" y="-119.7" font-family="Inter,Arial" font-size="10.00" fill="#123d5c">0.11.3</text>
<text xml:space="preserve" text-anchor="start" x="22.11" y="-109.7" font-family="Inter,Arial" font-size="10.00" fill="#123d5c">/vendor/kurbo&#45;0.11.3</text>
</g>
<!-- in4&#45;&gt;n0 -->
<g id="edge6" class="edge">
<title>in4&#45;&gt;n0</title>
<path fill="none" stroke="#4b8fc5" stroke-width="7.2" stroke-dasharray="5,2" d="M132.99,-113.25C145.97,-110.29 159.64,-107.18 172.76,-104.19"/>
<polygon fill="#4b8fc5" stroke="#4b8fc5" stroke-width="7.2" points="173.44,-107.59 178.04,-102.99 171.91,-100.83 173.44,-107.59"/>
</g>
<!-- in5 -->
<g id="node8" class="node">
<title>in5</title>
<polygon fill="#eef6ff" stroke="#4b8fc5" points="118.47,-76.4 8.25,-76.4 8.25,-22 124.47,-22 124.47,-70.4 118.47,-76.4"/>
<polyline fill="none" stroke="#4b8fc5" points="118.47,-76.4 118.47,-70.4"/>
<polyline fill="none" stroke="#4b8fc5" points="124.47,-70.4 118.47,-70.4"/>
<text xml:space="preserve" text-anchor="start" x="17.61" y="-60.7" font-family="Inter,Arial" font-size="10.00" fill="#123d5c">from usvg&#45;v0.45.1.svg</text>
<text xml:space="preserve" text-anchor="start" x="52.86" y="-50.7" font-family="Inter,Arial" font-weight="bold" font-size="10.00" fill="#123d5c">kurbo</text>
<text xml:space="preserve" text-anchor="start" x="52.86" y="-40.7" font-family="Inter,Arial" font-size="10.00" fill="#123d5c">0.11.3</text>
<text xml:space="preserve" text-anchor="start" x="22.11" y="-30.7" font-family="Inter,Arial" font-size="10.00" fill="#123d5c">/vendor/kurbo&#45;0.11.3</text>
</g>
<!-- in5&#45;&gt;n0 -->
<g id="edge7" class="edge">
<title>in5&#45;&gt;n0</title>
<path fill="none" stroke="#4b8fc5" stroke-width="7.2" stroke-dasharray="5,2" d="M124.86,-61.97C140.31,-65.4 157.19,-69.15 173.23,-72.71"/>
<polygon fill="#4b8fc5" stroke="#4b8fc5" stroke-width="7.2" points="172.01,-75.99 178.14,-73.8 173.52,-69.23 172.01,-75.99"/>
</g>
</g>
</svg>
