<?xml version="1.0" encoding="UTF-8" standalone="no"?>
<!DOCTYPE svg PUBLIC "-//W3C//DTD SVG 1.1//EN"
 "http://www.w3.org/Graphics/SVG/1.1/DTD/svg11.dtd">
<!-- Generated by graphviz version 14.1.2 (0)
 -->
<!-- Title: libm&#45;v0.2.16 Pages: 1 -->
<svg width="287pt" height="673pt"
 viewBox="0.00 0.00 287.00 673.00" xmlns="http://www.w3.org/2000/svg" xmlns:xlink="http://www.w3.org/1999/xlink">
<g id="graph0" class="graph" transform="scale(1 1) rotate(0) translate(4 669.4)">
<title>libm&#45;v0.2.16</title>
<polygon fill="white" stroke="none" points="-4,4 -4,-669.4 283.22,-669.4 283.22,4 -4,4"/>
<!-- n0 -->
<g id="node1" class="node">
<title>n0</title>
<path fill="#dff3ff" stroke="#1b78a6" d="M267.22,-351.9C267.22,-351.9 237.22,-351.9 237.22,-351.9 231.22,-351.9 225.22,-345.9 225.22,-339.9 225.22,-339.9 225.22,-324.5 225.22,-324.5 225.22,-318.5 231.22,-312.5 237.22,-312.5 237.22,-312.5 267.22,-312.5 267.22,-312.5 273.22,-312.5 279.22,-318.5 279.22,-324.5 279.22,-324.5 279.22,-339.9 279.22,-339.9 279.22,-345.9 273.22,-351.9 267.22,-351.9"/>
<text xml:space="preserve" text-anchor="start" x="238.72" y="-333.35" font-family="Inter,Arial" font-weight="bold" font-size="13.00" fill="#172033">libm</text>
<text xml:space="preserve" text-anchor="start" x="235.72" y="-321.3" font-family="Inter,Arial" font-size="12.00" fill="#172033">0.2.16</text>
</g>
<!-- in0 -->
<g id="node2" class="node">
<title>in0</title>
<polygon fill="#eef6ff" stroke="#4b8fc5" points="150.34,-665.4 28.87,-665.4 28.87,-621 156.34,-621 156.34,-659.4 150.34,-665.4"/>
<polyline fill="none" stroke="#4b8fc5" points="150.34,-665.4 150.34,-659.4"/>
<polyline fill="none" stroke="#4b8fc5" points="156.34,-659.4 150.34,-659.4"/>
<text xml:space="preserve" text-anchor="start" x="38.23" y="-649.7" font-family="Inter,Arial" font-size="10.00" fill="#123d5c">from crab&#45;usb&#45;v0.9.1.svg</text>
<text xml:space="preserve" text-anchor="start" x="82.11" y="-639.7" font-family="Inter,Arial" font-weight="bold" font-size="10.00" fill="#123d5c">libm</text>
<text xml:space="preserve" text-anchor="start" x="79.11" y="-629.7" font-family="Inter,Arial" font-size="10.00" fill="#123d5c">0.2.16</text>
</g>
<!-- in0&#45;&gt;n0 -->
<g id="edge1" class="edge">
<title>in0&#45;&gt;n0</title>
<path fill="none" stroke="#4b8fc5" stroke-width="7.2" stroke-dasharray="5,2" d="M156.42,-629.31C167.23,-624.47 177.46,-617.96 185.22,-609.2 217.48,-572.76 239.15,-428.54 247.45,-363.87"/>
<polygon fill="#4b8fc5" stroke="#4b8fc5" stroke-width="7.2" points="250.84,-364.64 248.09,-358.75 243.97,-363.78 250.84,-364.64"/>
</g>
<!-- in1 -->
<g id="node3" class="node">
<title>in1</title>
<polygon fill="#eef6ff" stroke="#4b8fc5" points="145.84,-596.4 33.37,-596.4 33.37,-552 151.84,-552 151.84,-590.4 145.84,-596.4"/>
<polyline fill="none" stroke="#4b8fc5" points="145.84,-596.4 145.84,-590.4"/>
<polyline fill="none" stroke="#4b8fc5" points="151.84,-590.4 145.84,-590.4"/>
<text xml:space="preserve" text-anchor="start" x="42.73" y="-580.7" font-family="Inter,Arial" font-size="10.00" fill="#123d5c">from kurbo&#45;v0.11.3.svg</text>
<text xml:space="preserve" text-anchor="start" x="82.11" y="-570.7" font-family="Inter,Arial" font-weight="bold" font-size="10.00" fill="#123d5c">libm</text>
<text xml:space="preserve" text-anchor="start" x="79.11" y="-560.7" font-family="Inter,Arial" font-size="10.00" fill="#123d5c">0.2.16</text>
</g>
<!-- in1&#45;&gt;n0 -->
<g id="edge2" class="edge">
<title>in1&#45;&gt;n0</title>
<path fill="none" stroke="#4b8fc5" stroke-width="7.2" stroke-dasharray="5,2" d="M152.12,-561.45C164.33,-556.5 176.21,-549.66 185.22,-540.2 231.85,-491.27 245.54,-409.53 249.56,-364.47"/>
<polygon fill="#4b8fc5" stroke="#4b8fc5" stroke-width="7.2" points="253.01,-364.74 249.97,-359 246.1,-364.22 253.01,-364.74"/>
</g>
<!-- in2 -->
<g id="node4" class="node">
<title>in2</title>
<polygon fill="#eef6ff" stroke="#4b8fc5" points="150.34,-527.4 28.87,-527.4 28.87,-483 156.34,-483 156.34,-521.4 150.34,-527.4"/>
<polyline fill="none" stroke="#4b8fc5" points="150.34,-527.4 150.34,-521.4"/>
<polyline fill="none" stroke="#4b8fc5" points="156.34,-521.4 150.34,-521.4"/>
<text xml:space="preserve" text-anchor="start" x="38.23" y="-511.7" font-family="Inter,Arial" font-size="10.00" fill="#123d5c">from parry2d&#45;v0.26.1.svg</text>
<text xml:space="preserve" text-anchor="start" x="82.11" y="-501.7" font-family="Inter,Arial" font-weight="bold" font-size="10.00" fill="#123d5c">libm</text>
<text xml:space="preserve" text-anchor="start" x="79.11" y="-491.7" font-family="Inter,Arial" font-size="10.00" fill="#123d5c">0.2.16</text>
</g>
<!-- in2&#45;&gt;n0 -->
<g id="edge3" class="edge">
<title>in2&#45;&gt;n0</title>
<path fill="none" stroke="#4b8fc5" stroke-width="7.2" stroke-dasharray="5,2" d="M156.45,-489.31C166.87,-484.68 176.96,-478.76 185.22,-471.2 216.87,-442.21 234.79,-394.86 243.75,-363.61"/>
<polygon fill="#4b8fc5" stroke="#4b8fc5" stroke-width="7.2" points="247.01,-364.83 245.09,-358.62 240.32,-363.03 247.01,-364.83"/>
</g>
<!-- in3 -->
<g id="node5" class="node">
<title>in3</title>
<polygon fill="#eef6ff" stroke="#4b8fc5" points="156.72,-458.4 22.5,-458.4 22.5,-414 162.72,-414 162.72,-452.4 156.72,-458.4"/>
<polyline fill="none" stroke="#4b8fc5" points="156.72,-458.4 156.72,-452.4"/>
<polyline fill="none" stroke="#4b8fc5" points="162.72,-452.4 156.72,-452.4"/>
<text xml:space="preserve" text-anchor="start" x="31.86" y="-442.7" font-family="Inter,Arial" font-size="10.00" fill="#123d5c">from pure_vorbis&#45;v0.0.1.svg</text>
<text xml:space="preserve" text-anchor="start" x="82.11" y="-432.7" font-family="Inter,Arial" font-weight="bold" font-size="10.00" fill="#123d5c">libm</text>
<text xml:space="preserve" text-anchor="start" x="79.11" y="-422.7" font-family="Inter,Arial" font-size="10.00" fill="#123d5c">0.2.16</text>
</g>
<!-- in3&#45;&gt;n0 -->
<g id="edge4" class="edge">
<title>in3&#45;&gt;n0</title>
<path fill="none" stroke="#4b8fc5" stroke-width="7.2" stroke-dasharray="5,2" d="M162.84,-414.46C170.66,-410.87 178.29,-406.79 185.22,-402.2 201.85,-391.18 217.33,-375.21 229.11,-361.3"/>
<polygon fill="#4b8fc5" stroke="#4b8fc5" stroke-width="7.2" points="231.57,-363.77 232.37,-357.32 226.21,-359.38 231.57,-363.77"/>
</g>
<!-- in4 -->
<g id="node6" class="node">
<title>in4</title>
<polygon fill="#eef6ff" stroke="#4b8fc5" points="140.97,-389.4 38.25,-389.4 38.25,-345 146.97,-345 146.97,-383.4 140.97,-389.4"/>
<polyline fill="none" stroke="#4b8fc5" points="140.97,-389.4 140.97,-383.4"/>
<polyline fill="none" stroke="#4b8fc5" points="146.97,-383.4 140.97,-383.4"/>
<text xml:space="preserve" text-anchor="start" x="47.61" y="-373.7" font-family="Inter,Arial" font-size="10.00" fill="#123d5c">from rsa&#45;v0.9.10.svg</text>
<text xml:space="preserve" text-anchor="start" x="82.11" y="-363.7" font-family="Inter,Arial" font-weight="bold" font-size="10.00" fill="#123d5c">libm</text>
<text xml:space="preserve" text-anchor="start" x="79.11" y="-353.7" font-family="Inter,Arial" font-size="10.00" fill="#123d5c">0.2.16</text>
</g>
<!-- in4&#45;&gt;n0 -->
<g id="edge5" class="edge">
<title>in4&#45;&gt;n0</title>
<path fill="none" stroke="#4b8fc5" stroke-width="7.2" stroke-dasharray="5,2" d="M147.41,-355.25C169.02,-350.45 193.43,-345.03 213.14,-340.66"/>
<polygon fill="#4b8fc5" stroke="#4b8fc5" stroke-width="7.2" points="213.83,-344.05 218.45,-339.48 212.33,-337.29 213.83,-344.05"/>
</g>
<!-- in5 -->
<g id="node7" class="node">
<title>in5</title>
<polygon fill="#eef6ff" stroke="#4b8fc5" points="179.22,-320.4 0,-320.4 0,-276 185.22,-276 185.22,-314.4 179.22,-320.4"/>
<polyline fill="none" stroke="#4b8fc5" points="179.22,-320.4 179.22,-314.4"/>
<polyline fill="none" stroke="#4b8fc5" points="185.22,-314.4 179.22,-314.4"/>
<text xml:space="preserve" text-anchor="start" x="9.36" y="-304.7" font-family="Inter,Arial" font-size="10.00" fill="#123d5c">from symphonia&#45;codec&#45;aac&#45;v0.5.5.svg</text>
<text xml:space="preserve" text-anchor="start" x="82.11" y="-294.7" font-family="Inter,Arial" font-weight="bold" font-size="10.00" fill="#123d5c">libm</text>
<text xml:space="preserve" text-anchor="start" x="79.11" y="-284.7" font-family="Inter,Arial" font-size="10.00" fill="#123d5c">0.2.16</text>
</g>
<!-- in5&#45;&gt;n0 -->
<g id="edge6" class="edge">
<title>in5&#45;&gt;n0</title>
<path fill="none" stroke="#4b8fc5" stroke-width="7.2" stroke-dasharray="5,2" d="M185.29,-317.98C195.03,-320.08 204.5,-322.12 213.08,-323.97"/>
<polygon fill="#4b8fc5" stroke="#4b8fc5" stroke-width="7.2" points="212.24,-327.33 218.34,-325.11 213.7,-320.56 212.24,-327.33"/>
</g>
<!-- in6 -->
<g id="node8" class="node">
<title>in6</title>
<polygon fill="#eef6ff" stroke="#4b8fc5" points="166.09,-251.4 13.12,-251.4 13.12,-207 172.09,-207 172.09,-245.4 166.09,-251.4"/>
<polyline fill="none" stroke="#4b8fc5" points="166.09,-251.4 166.09,-245.4"/>
<polyline fill="none" stroke="#4b8fc5" points="172.09,-245.4 166.09,-245.4"/>
<text xml:space="preserve" text-anchor="start" x="22.48" y="-235.7" font-family="Inter,Arial" font-size="10.00" fill="#123d5c">from symphonia&#45;core&#45;v0.5.5.svg</text>
<text xml:space="preserve" text-anchor="start" x="82.11" y="-225.7" font-family="Inter,Arial" font-weight="bold" font-size="10.00" fill="#123d5c">libm</text>
<text xml:space="preserve" text-anchor="start" x="79.11" y="-215.7" font-family="Inter,Arial" font-size="10.00" fill="#123d5c">0.2.16</text>
</g>
<!-- in6&#45;&gt;n0 -->
<g id="edge7" class="edge">
<title>in6&#45;&gt;n0</title>
<path fill="none" stroke="#4b8fc5" stroke-width="7.2" stroke-dasharray="5,2" d="M164.72,-251.87C171.87,-255.24 178.84,-259.01 185.22,-263.2 201.65,-274 217.03,-289.61 228.8,-303.25"/>
<polygon fill="#4b8fc5" stroke="#4b8fc5" stroke-width="7.2" points="225.83,-305.1 232.01,-307.11 231.15,-300.66 225.83,-305.1"/>
</g>
<!-- in7 -->
<g id="node9" class="node">
<title>in7</title>
<polygon fill="#eef6ff" stroke="#4b8fc5" points="163.09,-182.4 16.12,-182.4 16.12,-138 169.09,-138 169.09,-176.4 163.09,-182.4"/>
<polyline fill="none" stroke="#4b8fc5" points="163.09,-182.4 163.09,-176.4"/>
<polyline fill="none" stroke="#4b8fc5" points="169.09,-176.4 163.09,-176.4"/>
<text xml:space="preserve" text-anchor="start" x="25.48" y="-166.7" font-family="Inter,Arial" font-size="10.00" fill="#123d5c">from tiny&#45;skia&#45;path&#45;v0.11.4.svg</text>
<text xml:space="preserve" text-anchor="start" x="82.11" y="-156.7" font-family="Inter,Arial" font-weight="bold" font-size="10.00" fill="#123d5c">libm</text>
<text xml:space="preserve" text-anchor="start" x="79.11" y="-146.7" font-family="Inter,Arial" font-size="10.00" fill="#123d5c">0.2.16</text>
</g>
<!-- in7&#45;&gt;n0 -->
<g id="edge8" class="edge">
<title>in7&#45;&gt;n0</title>
<path fill="none" stroke="#4b8fc5" stroke-width="7.2" stroke-dasharray="5,2" d="M169.41,-182.72C175.09,-186.05 180.46,-189.85 185.22,-194.2 216.73,-222.97 234.69,-269.99 243.69,-301.01"/>
<polygon fill="#4b8fc5" stroke="#4b8fc5" stroke-width="7.2" points="240.24,-301.54 245.03,-305.93 246.92,-299.71 240.24,-301.54"/>
</g>
<!-- in8 -->
<g id="node10" class="node">
<title>in8</title>
<polygon fill="#eef6ff" stroke="#4b8fc5" points="157.47,-113.4 21.75,-113.4 21.75,-69 163.47,-69 163.47,-107.4 157.47,-113.4"/>
<polyline fill="none" stroke="#4b8fc5" points="157.47,-113.4 157.47,-107.4"/>
<polyline fill="none" stroke="#4b8fc5" points="163.47,-107.4 157.47,-107.4"/>
<text xml:space="preserve" text-anchor="start" x="31.11" y="-97.7" font-family="Inter,Arial" font-size="10.00" fill="#123d5c">from trueos&#45;math&#45;v0.1.0.svg</text>
<text xml:space="preserve" text-anchor="start" x="82.11" y="-87.7" font-family="Inter,Arial" font-weight="bold" font-size="10.00" fill="#123d5c">libm</text>
<text xml:space="preserve" text-anchor="start" x="79.11" y="-77.7" font-family="Inter,Arial" font-size="10.00" fill="#123d5c">0.2.16</text>
</g>
<!-- in8&#45;&gt;n0 -->
<g id="edge9" class="edge">
<title>in8&#45;&gt;n0</title>
<path fill="none" stroke="#4b8fc5" stroke-width="7.2" stroke-dasharray="5,2" d="M163.81,-109.4C171.73,-113.63 179.13,-118.82 185.22,-125.2 231.68,-173.88 245.44,-255.23 249.51,-300.08"/>
<polygon fill="#4b8fc5" stroke="#4b8fc5" stroke-width="7.2" points="246.05,-300.28 249.93,-305.5 252.96,-299.75 246.05,-300.28"/>
</g>
<!-- in9 -->
<g id="node11" class="node">
<title>in9</title>
<polygon fill="#eef6ff" stroke="#4b8fc5" points="152.97,-44.4 26.25,-44.4 26.25,0 158.97,0 158.97,-38.4 152.97,-44.4"/>
<polyline fill="none" stroke="#4b8fc5" points="152.97,-44.4 152.97,-38.4"/>
<polyline fill="none" stroke="#4b8fc5" points="158.97,-38.4 152.97,-38.4"/>
<text xml:space="preserve" text-anchor="start" x="35.61" y="-28.7" font-family="Inter,Arial" font-size="10.00" fill="#123d5c">from trueos&#45;qjs&#45;v0.1.0.svg</text>
<text xml:space="preserve" text-anchor="start" x="82.11" y="-18.7" font-family="Inter,Arial" font-weight="bold" font-size="10.00" fill="#123d5c">libm</text>
<text xml:space="preserve" text-anchor="start" x="79.11" y="-8.7" font-family="Inter,Arial" font-size="10.00" fill="#123d5c">0.2.16</text>
</g>
<!-- in9&#45;&gt;n0 -->
<g id="edge10" class="edge">
<title>in9&#45;&gt;n0</title>
<path fill="none" stroke="#4b8fc5" stroke-width="7.2" stroke-dasharray="5,2" d="M159.22,-37.4C168.98,-42.08 178.13,-48.2 185.22,-56.2 217.31,-92.41 239.01,-235.52 247.37,-300.18"/>
<polygon fill="#4b8fc5" stroke="#4b8fc5" stroke-width="7.2" points="243.89,-300.29 248.02,-305.31 250.77,-299.42 243.89,-300.29"/>
</g>
</g>
</svg>
