<?xml version="1.0" encoding="UTF-8" standalone="no"?>
<!DOCTYPE svg PUBLIC "-//W3C//DTD SVG 1.1//EN"
 "http://www.w3.org/Graphics/SVG/1.1/DTD/svg11.dtd">
<!-- Generated by graphviz version 14.1.2 (0)
 -->
<!-- Title: libm&#45;v0.2.16 Pages: 1 -->
<svg width="280pt" height="603pt"
 viewBox="0.00 0.00 280.00 603.00" xmlns="http://www.w3.org/2000/svg" xmlns:xlink="http://www.w3.org/1999/xlink">
<g id="graph0" class="graph" transform="scale(1 1) rotate(0) translate(4 599.2)">
<title>libm&#45;v0.2.16</title>
<polygon fill="white" stroke="none" points="-4,4 -4,-599.2 276.02,-599.2 276.02,4 -4,4"/>
<!-- n0 -->
<g id="node1" class="node">
<title>n0</title>
<path fill="#dff3ff" stroke="#1b78a6" d="M260.02,-315.6C260.02,-315.6 230.02,-315.6 230.02,-315.6 224.02,-315.6 218.02,-309.6 218.02,-303.6 218.02,-303.6 218.02,-291.6 218.02,-291.6 218.02,-285.6 224.02,-279.6 230.02,-279.6 230.02,-279.6 260.02,-279.6 260.02,-279.6 266.02,-279.6 272.02,-285.6 272.02,-291.6 272.02,-291.6 272.02,-303.6 272.02,-303.6 272.02,-309.6 266.02,-315.6 260.02,-315.6"/>
<text xml:space="preserve" text-anchor="start" x="234.52" y="-299.1" font-family="Inter,Arial" font-weight="bold" font-size="10.00" fill="#172033">libm</text>
<text xml:space="preserve" text-anchor="start" x="231.52" y="-289.1" font-family="Inter,Arial" font-size="10.00" fill="#172033">0.2.16</text>
</g>
<!-- in0 -->
<g id="node2" class="node">
<title>in0</title>
<polygon fill="#eef6ff" stroke="#4b8fc5" points="143.14,-595.2 28.87,-595.2 28.87,-558 149.14,-558 149.14,-589.2 143.14,-595.2"/>
<polyline fill="none" stroke="#4b8fc5" points="143.14,-595.2 143.14,-589.2"/>
<polyline fill="none" stroke="#4b8fc5" points="149.14,-589.2 143.14,-589.2"/>
<text xml:space="preserve" text-anchor="start" x="34.63" y="-583.1" font-family="Inter,Arial" font-size="10.00" fill="#123d5c">from crab&#45;usb&#45;v0.9.1.svg</text>
<text xml:space="preserve" text-anchor="start" x="78.51" y="-573.1" font-family="Inter,Arial" font-weight="bold" font-size="10.00" fill="#123d5c">libm</text>
<text xml:space="preserve" text-anchor="start" x="75.51" y="-563.1" font-family="Inter,Arial" font-size="10.00" fill="#123d5c">0.2.16</text>
</g>
<!-- in0&#45;&gt;n0 -->
<g id="edge1" class="edge">
<title>in0&#45;&gt;n0</title>
<path fill="none" stroke="#4b8fc5" stroke-width="0.9" stroke-dasharray="5,2" d="M149.23,-564.66C159.97,-560.19 170.21,-554.05 178.02,-545.6 236.82,-481.98 244.38,-371.94 244.61,-322.69"/>
<polygon fill="#4b8fc5" stroke="#4b8fc5" stroke-width="0.9" points="246.53,-322.74 244.6,-317.24 242.68,-322.74 246.53,-322.74"/>
</g>
<!-- in1 -->
<g id="node3" class="node">
<title>in1</title>
<polygon fill="#eef6ff" stroke="#4b8fc5" points="138.64,-533.2 33.37,-533.2 33.37,-496 144.64,-496 144.64,-527.2 138.64,-533.2"/>
<polyline fill="none" stroke="#4b8fc5" points="138.64,-533.2 138.64,-527.2"/>
<polyline fill="none" stroke="#4b8fc5" points="144.64,-527.2 138.64,-527.2"/>
<text xml:space="preserve" text-anchor="start" x="39.13" y="-521.1" font-family="Inter,Arial" font-size="10.00" fill="#123d5c">from kurbo&#45;v0.11.3.svg</text>
<text xml:space="preserve" text-anchor="start" x="78.51" y="-511.1" font-family="Inter,Arial" font-weight="bold" font-size="10.00" fill="#123d5c">libm</text>
<text xml:space="preserve" text-anchor="start" x="75.51" y="-501.1" font-family="Inter,Arial" font-size="10.00" fill="#123d5c">0.2.16</text>
</g>
<!-- in1&#45;&gt;n0 -->
<g id="edge2" class="edge">
<title>in1&#45;&gt;n0</title>
<path fill="none" stroke="#4b8fc5" stroke-width="0.9" stroke-dasharray="5,2" d="M145.06,-503.6C157.11,-499.05 168.96,-492.64 178.02,-483.6 222.85,-438.88 237.35,-361.79 241.95,-322.38"/>
<polygon fill="#4b8fc5" stroke="#4b8fc5" stroke-width="0.9" points="243.82,-322.96 242.5,-317.28 239.99,-322.54 243.82,-322.96"/>
</g>
<!-- in2 -->
<g id="node4" class="node">
<title>in2</title>
<polygon fill="#eef6ff" stroke="#4b8fc5" points="143.14,-471.2 28.87,-471.2 28.87,-434 149.14,-434 149.14,-465.2 143.14,-471.2"/>
<polyline fill="none" stroke="#4b8fc5" points="143.14,-471.2 143.14,-465.2"/>
<polyline fill="none" stroke="#4b8fc5" points="149.14,-465.2 143.14,-465.2"/>
<text xml:space="preserve" text-anchor="start" x="34.63" y="-459.1" font-family="Inter,Arial" font-size="10.00" fill="#123d5c">from parry2d&#45;v0.26.0.svg</text>
<text xml:space="preserve" text-anchor="start" x="78.51" y="-449.1" font-family="Inter,Arial" font-weight="bold" font-size="10.00" fill="#123d5c">libm</text>
<text xml:space="preserve" text-anchor="start" x="75.51" y="-439.1" font-family="Inter,Arial" font-size="10.00" fill="#123d5c">0.2.16</text>
</g>
<!-- in2&#45;&gt;n0 -->
<g id="edge3" class="edge">
<title>in2&#45;&gt;n0</title>
<path fill="none" stroke="#4b8fc5" stroke-width="0.9" stroke-dasharray="5,2" d="M149.63,-438.43C159.84,-434.17 169.79,-428.68 178.02,-421.6 209.01,-394.96 227.71,-350.07 236.93,-322.23"/>
<polygon fill="#4b8fc5" stroke="#4b8fc5" stroke-width="0.9" points="238.7,-323 238.55,-317.18 235.03,-321.83 238.7,-323"/>
</g>
<!-- in3 -->
<g id="node5" class="node">
<title>in3</title>
<polygon fill="#eef6ff" stroke="#4b8fc5" points="149.52,-409.2 22.5,-409.2 22.5,-372 155.52,-372 155.52,-403.2 149.52,-409.2"/>
<polyline fill="none" stroke="#4b8fc5" points="149.52,-409.2 149.52,-403.2"/>
<polyline fill="none" stroke="#4b8fc5" points="155.52,-403.2 149.52,-403.2"/>
<text xml:space="preserve" text-anchor="start" x="28.26" y="-397.1" font-family="Inter,Arial" font-size="10.00" fill="#123d5c">from pure_vorbis&#45;v0.0.1.svg</text>
<text xml:space="preserve" text-anchor="start" x="78.51" y="-387.1" font-family="Inter,Arial" font-weight="bold" font-size="10.00" fill="#123d5c">libm</text>
<text xml:space="preserve" text-anchor="start" x="75.51" y="-377.1" font-family="Inter,Arial" font-size="10.00" fill="#123d5c">0.2.16</text>
</g>
<!-- in3&#45;&gt;n0 -->
<g id="edge4" class="edge">
<title>in3&#45;&gt;n0</title>
<path fill="none" stroke="#4b8fc5" stroke-width="0.9" stroke-dasharray="5,2" d="M153.96,-371.65C162.31,-368.15 170.55,-364.15 178.02,-359.6 195.1,-349.22 211.49,-333.86 223.66,-321.02"/>
<polygon fill="#4b8fc5" stroke="#4b8fc5" stroke-width="0.9" points="225.01,-322.4 227.35,-317.06 222.2,-319.77 225.01,-322.4"/>
</g>
<!-- in4 -->
<g id="node6" class="node">
<title>in4</title>
<polygon fill="#eef6ff" stroke="#4b8fc5" points="133.77,-347.2 38.25,-347.2 38.25,-310 139.77,-310 139.77,-341.2 133.77,-347.2"/>
<polyline fill="none" stroke="#4b8fc5" points="133.77,-347.2 133.77,-341.2"/>
<polyline fill="none" stroke="#4b8fc5" points="139.77,-341.2 133.77,-341.2"/>
<text xml:space="preserve" text-anchor="start" x="44.01" y="-335.1" font-family="Inter,Arial" font-size="10.00" fill="#123d5c">from rsa&#45;v0.9.10.svg</text>
<text xml:space="preserve" text-anchor="start" x="78.51" y="-325.1" font-family="Inter,Arial" font-weight="bold" font-size="10.00" fill="#123d5c">libm</text>
<text xml:space="preserve" text-anchor="start" x="75.51" y="-315.1" font-family="Inter,Arial" font-size="10.00" fill="#123d5c">0.2.16</text>
</g>
<!-- in4&#45;&gt;n0 -->
<g id="edge5" class="edge">
<title>in4&#45;&gt;n0</title>
<path fill="none" stroke="#4b8fc5" stroke-width="0.9" stroke-dasharray="5,2" d="M140.01,-318.54C163.31,-313.85 190.39,-308.39 211.08,-304.23"/>
<polygon fill="#4b8fc5" stroke="#4b8fc5" stroke-width="0.9" points="211.21,-306.17 216.22,-303.2 210.45,-302.39 211.21,-306.17"/>
</g>
<!-- in5 -->
<g id="node7" class="node">
<title>in5</title>
<polygon fill="#eef6ff" stroke="#4b8fc5" points="172.02,-285.2 0,-285.2 0,-248 178.02,-248 178.02,-279.2 172.02,-285.2"/>
<polyline fill="none" stroke="#4b8fc5" points="172.02,-285.2 172.02,-279.2"/>
<polyline fill="none" stroke="#4b8fc5" points="178.02,-279.2 172.02,-279.2"/>
<text xml:space="preserve" text-anchor="start" x="5.76" y="-273.1" font-family="Inter,Arial" font-size="10.00" fill="#123d5c">from symphonia&#45;codec&#45;aac&#45;v0.5.5.svg</text>
<text xml:space="preserve" text-anchor="start" x="78.51" y="-263.1" font-family="Inter,Arial" font-weight="bold" font-size="10.00" fill="#123d5c">libm</text>
<text xml:space="preserve" text-anchor="start" x="75.51" y="-253.1" font-family="Inter,Arial" font-size="10.00" fill="#123d5c">0.2.16</text>
</g>
<!-- in5&#45;&gt;n0 -->
<g id="edge6" class="edge">
<title>in5&#45;&gt;n0</title>
<path fill="none" stroke="#4b8fc5" stroke-width="0.9" stroke-dasharray="5,2" d="M178.26,-284.36C189.95,-286.72 201.28,-289 211.15,-290.98"/>
<polygon fill="#4b8fc5" stroke="#4b8fc5" stroke-width="0.9" points="210.63,-292.84 216.4,-292.04 211.39,-289.07 210.63,-292.84"/>
</g>
<!-- in6 -->
<g id="node8" class="node">
<title>in6</title>
<polygon fill="#eef6ff" stroke="#4b8fc5" points="158.89,-223.2 13.12,-223.2 13.12,-186 164.89,-186 164.89,-217.2 158.89,-223.2"/>
<polyline fill="none" stroke="#4b8fc5" points="158.89,-223.2 158.89,-217.2"/>
<polyline fill="none" stroke="#4b8fc5" points="164.89,-217.2 158.89,-217.2"/>
<text xml:space="preserve" text-anchor="start" x="18.88" y="-211.1" font-family="Inter,Arial" font-size="10.00" fill="#123d5c">from symphonia&#45;core&#45;v0.5.5.svg</text>
<text xml:space="preserve" text-anchor="start" x="78.51" y="-201.1" font-family="Inter,Arial" font-weight="bold" font-size="10.00" fill="#123d5c">libm</text>
<text xml:space="preserve" text-anchor="start" x="75.51" y="-191.1" font-family="Inter,Arial" font-size="10.00" fill="#123d5c">0.2.16</text>
</g>
<!-- in6&#45;&gt;n0 -->
<g id="edge7" class="edge">
<title>in6&#45;&gt;n0</title>
<path fill="none" stroke="#4b8fc5" stroke-width="0.9" stroke-dasharray="5,2" d="M153.96,-223.55C162.31,-227.05 170.55,-231.05 178.02,-235.6 195.1,-245.98 211.49,-261.34 223.66,-274.18"/>
<polygon fill="#4b8fc5" stroke="#4b8fc5" stroke-width="0.9" points="222.2,-275.43 227.35,-278.14 225.01,-272.8 222.2,-275.43"/>
</g>
<!-- in7 -->
<g id="node9" class="node">
<title>in7</title>
<polygon fill="#eef6ff" stroke="#4b8fc5" points="155.89,-161.2 16.12,-161.2 16.12,-124 161.89,-124 161.89,-155.2 155.89,-161.2"/>
<polyline fill="none" stroke="#4b8fc5" points="155.89,-161.2 155.89,-155.2"/>
<polyline fill="none" stroke="#4b8fc5" points="161.89,-155.2 155.89,-155.2"/>
<text xml:space="preserve" text-anchor="start" x="21.88" y="-149.1" font-family="Inter,Arial" font-size="10.00" fill="#123d5c">from tiny&#45;skia&#45;path&#45;v0.11.4.svg</text>
<text xml:space="preserve" text-anchor="start" x="78.51" y="-139.1" font-family="Inter,Arial" font-weight="bold" font-size="10.00" fill="#123d5c">libm</text>
<text xml:space="preserve" text-anchor="start" x="75.51" y="-129.1" font-family="Inter,Arial" font-size="10.00" fill="#123d5c">0.2.16</text>
</g>
<!-- in7&#45;&gt;n0 -->
<g id="edge8" class="edge">
<title>in7&#45;&gt;n0</title>
<path fill="none" stroke="#4b8fc5" stroke-width="0.9" stroke-dasharray="5,2" d="M159.99,-161.61C166.47,-164.99 172.62,-168.95 178.02,-173.6 209.01,-200.24 227.71,-245.13 236.93,-272.97"/>
<polygon fill="#4b8fc5" stroke="#4b8fc5" stroke-width="0.9" points="235.03,-273.37 238.55,-278.02 238.7,-272.2 235.03,-273.37"/>
</g>
<!-- in8 -->
<g id="node10" class="node">
<title>in8</title>
<polygon fill="#eef6ff" stroke="#4b8fc5" points="150.27,-99.2 21.75,-99.2 21.75,-62 156.27,-62 156.27,-93.2 150.27,-99.2"/>
<polyline fill="none" stroke="#4b8fc5" points="150.27,-99.2 150.27,-93.2"/>
<polyline fill="none" stroke="#4b8fc5" points="156.27,-93.2 150.27,-93.2"/>
<text xml:space="preserve" text-anchor="start" x="27.51" y="-87.1" font-family="Inter,Arial" font-size="10.00" fill="#123d5c">from trueos&#45;math&#45;v0.1.0.svg</text>
<text xml:space="preserve" text-anchor="start" x="78.51" y="-77.1" font-family="Inter,Arial" font-weight="bold" font-size="10.00" fill="#123d5c">libm</text>
<text xml:space="preserve" text-anchor="start" x="75.51" y="-67.1" font-family="Inter,Arial" font-size="10.00" fill="#123d5c">0.2.16</text>
</g>
<!-- in8&#45;&gt;n0 -->
<g id="edge9" class="edge">
<title>in8&#45;&gt;n0</title>
<path fill="none" stroke="#4b8fc5" stroke-width="0.9" stroke-dasharray="5,2" d="M156.36,-96.5C164.33,-100.47 171.83,-105.42 178.02,-111.6 222.85,-156.32 237.35,-233.41 241.95,-272.82"/>
<polygon fill="#4b8fc5" stroke="#4b8fc5" stroke-width="0.9" points="239.99,-272.66 242.5,-277.92 243.82,-272.24 239.99,-272.66"/>
</g>
<!-- in9 -->
<g id="node11" class="node">
<title>in9</title>
<polygon fill="#eef6ff" stroke="#4b8fc5" points="145.77,-37.2 26.25,-37.2 26.25,0 151.77,0 151.77,-31.2 145.77,-37.2"/>
<polyline fill="none" stroke="#4b8fc5" points="145.77,-37.2 145.77,-31.2"/>
<polyline fill="none" stroke="#4b8fc5" points="151.77,-31.2 145.77,-31.2"/>
<text xml:space="preserve" text-anchor="start" x="32.01" y="-25.1" font-family="Inter,Arial" font-size="10.00" fill="#123d5c">from trueos&#45;qjs&#45;v0.1.0.svg</text>
<text xml:space="preserve" text-anchor="start" x="78.51" y="-15.1" font-family="Inter,Arial" font-weight="bold" font-size="10.00" fill="#123d5c">libm</text>
<text xml:space="preserve" text-anchor="start" x="75.51" y="-5.1" font-family="Inter,Arial" font-size="10.00" fill="#123d5c">0.2.16</text>
</g>
<!-- in9&#45;&gt;n0 -->
<g id="edge10" class="edge">
<title>in9&#45;&gt;n0</title>
<path fill="none" stroke="#4b8fc5" stroke-width="0.9" stroke-dasharray="5,2" d="M151.94,-31.71C161.68,-36.06 170.87,-41.87 178.02,-49.6 236.82,-113.22 244.38,-223.26 244.61,-272.51"/>
<polygon fill="#4b8fc5" stroke="#4b8fc5" stroke-width="0.9" points="242.68,-272.46 244.6,-277.96 246.53,-272.46 242.68,-272.46"/>
</g>
</g>
</svg>
