<?xml version="1.0" encoding="UTF-8" standalone="no"?>
<!DOCTYPE svg PUBLIC "-//W3C//DTD SVG 1.1//EN"
 "http://www.w3.org/Graphics/SVG/1.1/DTD/svg11.dtd">
<!-- Generated by graphviz version 14.1.2 (0)
 -->
<!-- Title: libm&#45;v0.2.16 Pages: 1 -->
<svg width="289pt" height="604pt"
 viewBox="0.00 0.00 289.00 604.00" xmlns="http://www.w3.org/2000/svg" xmlns:xlink="http://www.w3.org/1999/xlink">
<g id="graph0" class="graph" transform="scale(1 1) rotate(0) translate(4 600.4)">
<title>libm&#45;v0.2.16</title>
<polygon fill="white" stroke="none" points="-4,4 -4,-600.4 284.72,-600.4 284.72,4 -4,4"/>
<!-- n0 -->
<g id="node1" class="node">
<title>n0</title>
<path fill="#dff3ff" stroke="#1b78a6" d="M268.72,-317.9C268.72,-317.9 238.72,-317.9 238.72,-317.9 232.72,-317.9 226.72,-311.9 226.72,-305.9 226.72,-305.9 226.72,-290.5 226.72,-290.5 226.72,-284.5 232.72,-278.5 238.72,-278.5 238.72,-278.5 268.72,-278.5 268.72,-278.5 274.72,-278.5 280.72,-284.5 280.72,-290.5 280.72,-290.5 280.72,-305.9 280.72,-305.9 280.72,-311.9 274.72,-317.9 268.72,-317.9"/>
<text xml:space="preserve" text-anchor="start" x="240.22" y="-299.35" font-family="Inter,Arial" font-weight="bold" font-size="13.00" fill="#172033">libm</text>
<text xml:space="preserve" text-anchor="start" x="237.22" y="-287.3" font-family="Inter,Arial" font-size="12.00" fill="#172033">0.2.16</text>
</g>
<!-- in0 -->
<g id="node2" class="node">
<title>in0</title>
<polygon fill="#eef6ff" stroke="#4b8fc5" points="151.1,-596.4 29.63,-596.4 29.63,-552 157.1,-552 157.1,-590.4 151.1,-596.4"/>
<polyline fill="none" stroke="#4b8fc5" points="151.1,-596.4 151.1,-590.4"/>
<polyline fill="none" stroke="#4b8fc5" points="157.1,-590.4 151.1,-590.4"/>
<text xml:space="preserve" text-anchor="start" x="38.99" y="-580.7" font-family="Inter,Arial" font-size="10.00" fill="#123d5c">from crab&#45;usb&#45;v0.9.1.svg</text>
<text xml:space="preserve" text-anchor="start" x="82.86" y="-570.7" font-family="Inter,Arial" font-weight="bold" font-size="10.00" fill="#123d5c">libm</text>
<text xml:space="preserve" text-anchor="start" x="79.86" y="-560.7" font-family="Inter,Arial" font-size="10.00" fill="#123d5c">0.2.16</text>
</g>
<!-- in0&#45;&gt;n0 -->
<g id="edge1" class="edge">
<title>in0&#45;&gt;n0</title>
<path fill="none" stroke="#4b8fc5" stroke-width="7.2" stroke-dasharray="5,2" d="M157.45,-560.19C168.37,-555.36 178.75,-548.89 186.72,-540.2 241.01,-481 251.33,-381.48 252.86,-330.48"/>
<polygon fill="#4b8fc5" stroke="#4b8fc5" stroke-width="7.2" points="256.32,-330.63 252.96,-325.07 249.39,-330.51 256.32,-330.63"/>
</g>
<!-- in1 -->
<g id="node3" class="node">
<title>in1</title>
<polygon fill="#eef6ff" stroke="#4b8fc5" points="146.6,-527.4 34.13,-527.4 34.13,-483 152.6,-483 152.6,-521.4 146.6,-527.4"/>
<polyline fill="none" stroke="#4b8fc5" points="146.6,-527.4 146.6,-521.4"/>
<polyline fill="none" stroke="#4b8fc5" points="152.6,-521.4 146.6,-521.4"/>
<text xml:space="preserve" text-anchor="start" x="43.49" y="-511.7" font-family="Inter,Arial" font-size="10.00" fill="#123d5c">from kurbo&#45;v0.11.3.svg</text>
<text xml:space="preserve" text-anchor="start" x="82.86" y="-501.7" font-family="Inter,Arial" font-weight="bold" font-size="10.00" fill="#123d5c">libm</text>
<text xml:space="preserve" text-anchor="start" x="79.86" y="-491.7" font-family="Inter,Arial" font-size="10.00" fill="#123d5c">0.2.16</text>
</g>
<!-- in1&#45;&gt;n0 -->
<g id="edge2" class="edge">
<title>in1&#45;&gt;n0</title>
<path fill="none" stroke="#4b8fc5" stroke-width="7.2" stroke-dasharray="5,2" d="M152.95,-492.14C165.28,-487.21 177.36,-480.45 186.72,-471.2 225.75,-432.63 242.07,-368.57 248.62,-330.17"/>
<polygon fill="#4b8fc5" stroke="#4b8fc5" stroke-width="7.2" points="252.02,-330.85 249.44,-324.88 245.17,-329.78 252.02,-330.85"/>
</g>
<!-- in2 -->
<g id="node4" class="node">
<title>in2</title>
<polygon fill="#eef6ff" stroke="#4b8fc5" points="151.1,-458.4 29.63,-458.4 29.63,-414 157.1,-414 157.1,-452.4 151.1,-458.4"/>
<polyline fill="none" stroke="#4b8fc5" points="151.1,-458.4 151.1,-452.4"/>
<polyline fill="none" stroke="#4b8fc5" points="157.1,-452.4 151.1,-452.4"/>
<text xml:space="preserve" text-anchor="start" x="38.99" y="-442.7" font-family="Inter,Arial" font-size="10.00" fill="#123d5c">from parry2d&#45;v0.26.1.svg</text>
<text xml:space="preserve" text-anchor="start" x="82.86" y="-432.7" font-family="Inter,Arial" font-weight="bold" font-size="10.00" fill="#123d5c">libm</text>
<text xml:space="preserve" text-anchor="start" x="79.86" y="-422.7" font-family="Inter,Arial" font-size="10.00" fill="#123d5c">0.2.16</text>
</g>
<!-- in2&#45;&gt;n0 -->
<g id="edge3" class="edge">
<title>in2&#45;&gt;n0</title>
<path fill="none" stroke="#4b8fc5" stroke-width="7.2" stroke-dasharray="5,2" d="M157.45,-419.31C167.87,-414.8 178.08,-409.18 186.72,-402.2 210.78,-382.78 228.71,-352.13 239.77,-329.12"/>
<polygon fill="#4b8fc5" stroke="#4b8fc5" stroke-width="7.2" points="242.81,-330.79 241.96,-324.34 236.52,-327.9 242.81,-330.79"/>
</g>
<!-- in3 -->
<g id="node5" class="node">
<title>in3</title>
<polygon fill="#eef6ff" stroke="#4b8fc5" points="180.72,-389.4 0,-389.4 0,-345 186.72,-345 186.72,-383.4 180.72,-389.4"/>
<polyline fill="none" stroke="#4b8fc5" points="180.72,-389.4 180.72,-383.4"/>
<polyline fill="none" stroke="#4b8fc5" points="186.72,-383.4 180.72,-383.4"/>
<text xml:space="preserve" text-anchor="start" x="9.36" y="-373.7" font-family="Inter,Arial" font-size="10.00" fill="#123d5c">from rustls&#45;rustcrypto&#45;v0.0.2&#45;alpha.svg</text>
<text xml:space="preserve" text-anchor="start" x="82.86" y="-363.7" font-family="Inter,Arial" font-weight="bold" font-size="10.00" fill="#123d5c">libm</text>
<text xml:space="preserve" text-anchor="start" x="79.86" y="-353.7" font-family="Inter,Arial" font-size="10.00" fill="#123d5c">0.2.16</text>
</g>
<!-- in3&#45;&gt;n0 -->
<g id="edge4" class="edge">
<title>in3&#45;&gt;n0</title>
<path fill="none" stroke="#4b8fc5" stroke-width="7.2" stroke-dasharray="5,2" d="M159.4,-344.52C168.65,-340.93 177.98,-337.1 186.72,-333.2 196.34,-328.9 206.5,-323.81 215.88,-318.86"/>
<polygon fill="#4b8fc5" stroke="#4b8fc5" stroke-width="7.2" points="217.32,-322.02 220.52,-316.36 214.04,-315.92 217.32,-322.02"/>
</g>
<!-- in4 -->
<g id="node6" class="node">
<title>in4</title>
<polygon fill="#eef6ff" stroke="#4b8fc5" points="179.97,-320.4 0.75,-320.4 0.75,-276 185.97,-276 185.97,-314.4 179.97,-320.4"/>
<polyline fill="none" stroke="#4b8fc5" points="179.97,-320.4 179.97,-314.4"/>
<polyline fill="none" stroke="#4b8fc5" points="185.97,-314.4 179.97,-314.4"/>
<text xml:space="preserve" text-anchor="start" x="10.11" y="-304.7" font-family="Inter,Arial" font-size="10.00" fill="#123d5c">from symphonia&#45;codec&#45;aac&#45;v0.5.5.svg</text>
<text xml:space="preserve" text-anchor="start" x="82.86" y="-294.7" font-family="Inter,Arial" font-weight="bold" font-size="10.00" fill="#123d5c">libm</text>
<text xml:space="preserve" text-anchor="start" x="79.86" y="-284.7" font-family="Inter,Arial" font-size="10.00" fill="#123d5c">0.2.16</text>
</g>
<!-- in4&#45;&gt;n0 -->
<g id="edge5" class="edge">
<title>in4&#45;&gt;n0</title>
<path fill="none" stroke="#4b8fc5" stroke-width="7.2" stroke-dasharray="5,2" d="M186.02,-298.2C195.95,-298.2 205.6,-298.2 214.35,-298.2"/>
<polygon fill="#4b8fc5" stroke="#4b8fc5" stroke-width="7.2" points="214.18,-301.67 219.68,-298.2 214.18,-294.74 214.18,-301.67"/>
</g>
<!-- in5 -->
<g id="node7" class="node">
<title>in5</title>
<polygon fill="#eef6ff" stroke="#4b8fc5" points="166.85,-251.4 13.88,-251.4 13.88,-207 172.85,-207 172.85,-245.4 166.85,-251.4"/>
<polyline fill="none" stroke="#4b8fc5" points="166.85,-251.4 166.85,-245.4"/>
<polyline fill="none" stroke="#4b8fc5" points="172.85,-245.4 166.85,-245.4"/>
<text xml:space="preserve" text-anchor="start" x="23.24" y="-235.7" font-family="Inter,Arial" font-size="10.00" fill="#123d5c">from symphonia&#45;core&#45;v0.5.5.svg</text>
<text xml:space="preserve" text-anchor="start" x="82.86" y="-225.7" font-family="Inter,Arial" font-weight="bold" font-size="10.00" fill="#123d5c">libm</text>
<text xml:space="preserve" text-anchor="start" x="79.86" y="-215.7" font-family="Inter,Arial" font-size="10.00" fill="#123d5c">0.2.16</text>
</g>
<!-- in5&#45;&gt;n0 -->
<g id="edge6" class="edge">
<title>in5&#45;&gt;n0</title>
<path fill="none" stroke="#4b8fc5" stroke-width="7.2" stroke-dasharray="5,2" d="M159.4,-251.88C168.65,-255.47 177.98,-259.3 186.72,-263.2 196.34,-267.5 206.5,-272.59 215.88,-277.54"/>
<polygon fill="#4b8fc5" stroke="#4b8fc5" stroke-width="7.2" points="214.04,-280.48 220.52,-280.04 217.32,-274.38 214.04,-280.48"/>
</g>
<!-- in6 -->
<g id="node8" class="node">
<title>in6</title>
<polygon fill="#eef6ff" stroke="#4b8fc5" points="163.85,-182.4 16.88,-182.4 16.88,-138 169.85,-138 169.85,-176.4 163.85,-182.4"/>
<polyline fill="none" stroke="#4b8fc5" points="163.85,-182.4 163.85,-176.4"/>
<polyline fill="none" stroke="#4b8fc5" points="169.85,-176.4 163.85,-176.4"/>
<text xml:space="preserve" text-anchor="start" x="26.24" y="-166.7" font-family="Inter,Arial" font-size="10.00" fill="#123d5c">from tiny&#45;skia&#45;path&#45;v0.11.4.svg</text>
<text xml:space="preserve" text-anchor="start" x="82.86" y="-156.7" font-family="Inter,Arial" font-weight="bold" font-size="10.00" fill="#123d5c">libm</text>
<text xml:space="preserve" text-anchor="start" x="79.86" y="-146.7" font-family="Inter,Arial" font-size="10.00" fill="#123d5c">0.2.16</text>
</g>
<!-- in6&#45;&gt;n0 -->
<g id="edge7" class="edge">
<title>in6&#45;&gt;n0</title>
<path fill="none" stroke="#4b8fc5" stroke-width="7.2" stroke-dasharray="5,2" d="M169.3,-182.8C175.49,-186.13 181.4,-189.91 186.72,-194.2 210.78,-213.62 228.71,-244.27 239.77,-267.28"/>
<polygon fill="#4b8fc5" stroke="#4b8fc5" stroke-width="7.2" points="236.52,-268.5 241.96,-272.06 242.81,-265.61 236.52,-268.5"/>
</g>
<!-- in7 -->
<g id="node9" class="node">
<title>in7</title>
<polygon fill="#eef6ff" stroke="#4b8fc5" points="158.22,-113.4 22.5,-113.4 22.5,-69 164.22,-69 164.22,-107.4 158.22,-113.4"/>
<polyline fill="none" stroke="#4b8fc5" points="158.22,-113.4 158.22,-107.4"/>
<polyline fill="none" stroke="#4b8fc5" points="164.22,-107.4 158.22,-107.4"/>
<text xml:space="preserve" text-anchor="start" x="31.86" y="-97.7" font-family="Inter,Arial" font-size="10.00" fill="#123d5c">from trueos&#45;math&#45;v0.1.0.svg</text>
<text xml:space="preserve" text-anchor="start" x="82.86" y="-87.7" font-family="Inter,Arial" font-weight="bold" font-size="10.00" fill="#123d5c">libm</text>
<text xml:space="preserve" text-anchor="start" x="79.86" y="-77.7" font-family="Inter,Arial" font-size="10.00" fill="#123d5c">0.2.16</text>
</g>
<!-- in7&#45;&gt;n0 -->
<g id="edge8" class="edge">
<title>in7&#45;&gt;n0</title>
<path fill="none" stroke="#4b8fc5" stroke-width="7.2" stroke-dasharray="5,2" d="M164.33,-109.42C172.55,-113.65 180.28,-118.83 186.72,-125.2 225.75,-163.77 242.07,-227.83 248.62,-266.23"/>
<polygon fill="#4b8fc5" stroke="#4b8fc5" stroke-width="7.2" points="245.17,-266.62 249.44,-271.52 252.02,-265.55 245.17,-266.62"/>
</g>
<!-- in8 -->
<g id="node10" class="node">
<title>in8</title>
<polygon fill="#eef6ff" stroke="#4b8fc5" points="153.72,-44.4 27,-44.4 27,0 159.72,0 159.72,-38.4 153.72,-44.4"/>
<polyline fill="none" stroke="#4b8fc5" points="153.72,-44.4 153.72,-38.4"/>
<polyline fill="none" stroke="#4b8fc5" points="159.72,-38.4 153.72,-38.4"/>
<text xml:space="preserve" text-anchor="start" x="36.36" y="-28.7" font-family="Inter,Arial" font-size="10.00" fill="#123d5c">from trueos&#45;qjs&#45;v0.1.0.svg</text>
<text xml:space="preserve" text-anchor="start" x="82.86" y="-18.7" font-family="Inter,Arial" font-weight="bold" font-size="10.00" fill="#123d5c">libm</text>
<text xml:space="preserve" text-anchor="start" x="79.86" y="-8.7" font-family="Inter,Arial" font-size="10.00" fill="#123d5c">0.2.16</text>
</g>
<!-- in8&#45;&gt;n0 -->
<g id="edge9" class="edge">
<title>in8&#45;&gt;n0</title>
<path fill="none" stroke="#4b8fc5" stroke-width="7.2" stroke-dasharray="5,2" d="M159.82,-37.29C169.86,-41.99 179.33,-48.14 186.72,-56.2 241.01,-115.4 251.33,-214.92 252.86,-265.92"/>
<polygon fill="#4b8fc5" stroke="#4b8fc5" stroke-width="7.2" points="249.39,-265.89 252.96,-271.33 256.32,-265.77 249.39,-265.89"/>
</g>
</g>
</svg>
