<?xml version="1.0" encoding="UTF-8" standalone="no"?>
<!DOCTYPE svg PUBLIC "-//W3C//DTD SVG 1.1//EN"
 "http://www.w3.org/Graphics/SVG/1.1/DTD/svg11.dtd">
<!-- Generated by graphviz version 14.1.2 (0)
 -->
<!-- Title: libm&#45;v0.2.16 Pages: 1 -->
<svg width="287pt" height="673pt"
 viewBox="0.00 0.00 287.00 673.00" xmlns="http://www.w3.org/2000/svg" xmlns:xlink="http://www.w3.org/1999/xlink">
<g id="graph0" class="graph" transform="scale(1 1) rotate(0) translate(4 669.4)">
<title>libm&#45;v0.2.16</title>
<polygon fill="white" stroke="none" points="-4,4 -4,-669.4 283.22,-669.4 283.22,4 -4,4"/>
<!-- n0 -->
<g id="node1" class="node">
<title>n0</title>
<path fill="#dff3ff" stroke="#1b78a6" d="M267.22,-351.9C267.22,-351.9 237.22,-351.9 237.22,-351.9 231.22,-351.9 225.22,-345.9 225.22,-339.9 225.22,-339.9 225.22,-324.5 225.22,-324.5 225.22,-318.5 231.22,-312.5 237.22,-312.5 237.22,-312.5 267.22,-312.5 267.22,-312.5 273.22,-312.5 279.22,-318.5 279.22,-324.5 279.22,-324.5 279.22,-339.9 279.22,-339.9 279.22,-345.9 273.22,-351.9 267.22,-351.9"/>
<text xml:space="preserve" text-anchor="start" x="238.72" y="-333.35" font-family="Inter,Arial" font-weight="bold" font-size="13.00" fill="#172033">libm</text>
<text xml:space="preserve" text-anchor="start" x="235.72" y="-321.3" font-family="Inter,Arial" font-size="12.00" fill="#172033">0.2.16</text>
</g>
<!-- in0 -->
<g id="node2" class="node">
<title>in0</title>
<polygon fill="#eef6ff" stroke="#4b8fc5" points="150.34,-665.4 28.87,-665.4 28.87,-621 156.34,-621 156.34,-659.4 150.34,-665.4"/>
<polyline fill="none" stroke="#4b8fc5" points="150.34,-665.4 150.34,-659.4"/>
<polyline fill="none" stroke="#4b8fc5" points="156.34,-659.4 150.34,-659.4"/>
<text xml:space="preserve" text-anchor="start" x="38.23" y="-649.7" font-family="Inter,Arial" font-size="10.00" fill="#123d5c">from crab&#45;usb&#45;v0.9.1.svg</text>
<text xml:space="preserve" text-anchor="start" x="82.11" y="-639.7" font-family="Inter,Arial" font-weight="bold" font-size="10.00" fill="#123d5c">libm</text>
<text xml:space="preserve" text-anchor="start" x="79.11" y="-629.7" font-family="Inter,Arial" font-size="10.00" fill="#123d5c">0.2.16</text>
</g>
<!-- in0&#45;&gt;n0 -->
<g id="edge1" class="edge">
<title>in0&#45;&gt;n0</title>
<path fill="none" stroke="#4b8fc5" stroke-width="0.9" stroke-dasharray="5,2" d="M156.42,-629.31C167.23,-624.47 177.46,-617.96 185.22,-609.2 218.35,-571.78 240.32,-420.65 248.09,-358.79"/>
<polygon fill="#4b8fc5" stroke="#4b8fc5" stroke-width="0.9" points="249.99,-359.1 248.76,-353.4 246.17,-358.63 249.99,-359.1"/>
</g>
<!-- in1 -->
<g id="node3" class="node">
<title>in1</title>
<polygon fill="#eef6ff" stroke="#4b8fc5" points="145.84,-596.4 33.37,-596.4 33.37,-552 151.84,-552 151.84,-590.4 145.84,-596.4"/>
<polyline fill="none" stroke="#4b8fc5" points="145.84,-596.4 145.84,-590.4"/>
<polyline fill="none" stroke="#4b8fc5" points="151.84,-590.4 145.84,-590.4"/>
<text xml:space="preserve" text-anchor="start" x="42.73" y="-580.7" font-family="Inter,Arial" font-size="10.00" fill="#123d5c">from kurbo&#45;v0.11.3.svg</text>
<text xml:space="preserve" text-anchor="start" x="82.11" y="-570.7" font-family="Inter,Arial" font-weight="bold" font-size="10.00" fill="#123d5c">libm</text>
<text xml:space="preserve" text-anchor="start" x="79.11" y="-560.7" font-family="Inter,Arial" font-size="10.00" fill="#123d5c">0.2.16</text>
</g>
<!-- in1&#45;&gt;n0 -->
<g id="edge2" class="edge">
<title>in1&#45;&gt;n0</title>
<path fill="none" stroke="#4b8fc5" stroke-width="0.9" stroke-dasharray="5,2" d="M152.12,-561.45C164.33,-556.5 176.21,-549.66 185.22,-540.2 233.85,-489.18 246.65,-402.46 250.02,-358.88"/>
<polygon fill="#4b8fc5" stroke="#4b8fc5" stroke-width="0.9" points="251.93,-359.24 250.39,-353.62 248.08,-358.97 251.93,-359.24"/>
</g>
<!-- in2 -->
<g id="node4" class="node">
<title>in2</title>
<polygon fill="#eef6ff" stroke="#4b8fc5" points="150.34,-527.4 28.87,-527.4 28.87,-483 156.34,-483 156.34,-521.4 150.34,-527.4"/>
<polyline fill="none" stroke="#4b8fc5" points="150.34,-527.4 150.34,-521.4"/>
<polyline fill="none" stroke="#4b8fc5" points="156.34,-521.4 150.34,-521.4"/>
<text xml:space="preserve" text-anchor="start" x="38.23" y="-511.7" font-family="Inter,Arial" font-size="10.00" fill="#123d5c">from parry2d&#45;v0.26.1.svg</text>
<text xml:space="preserve" text-anchor="start" x="82.11" y="-501.7" font-family="Inter,Arial" font-weight="bold" font-size="10.00" fill="#123d5c">libm</text>
<text xml:space="preserve" text-anchor="start" x="79.11" y="-491.7" font-family="Inter,Arial" font-size="10.00" fill="#123d5c">0.2.16</text>
</g>
<!-- in2&#45;&gt;n0 -->
<g id="edge3" class="edge">
<title>in2&#45;&gt;n0</title>
<path fill="none" stroke="#4b8fc5" stroke-width="0.9" stroke-dasharray="5,2" d="M156.45,-489.31C166.87,-484.68 176.96,-478.76 185.22,-471.2 218.7,-440.55 236.81,-389.35 245.21,-358.38"/>
<polygon fill="#4b8fc5" stroke="#4b8fc5" stroke-width="0.9" points="246.98,-359.22 246.51,-353.42 243.25,-358.25 246.98,-359.22"/>
</g>
<!-- in3 -->
<g id="node5" class="node">
<title>in3</title>
<polygon fill="#eef6ff" stroke="#4b8fc5" points="156.72,-458.4 22.5,-458.4 22.5,-414 162.72,-414 162.72,-452.4 156.72,-458.4"/>
<polyline fill="none" stroke="#4b8fc5" points="156.72,-458.4 156.72,-452.4"/>
<polyline fill="none" stroke="#4b8fc5" points="162.72,-452.4 156.72,-452.4"/>
<text xml:space="preserve" text-anchor="start" x="31.86" y="-442.7" font-family="Inter,Arial" font-size="10.00" fill="#123d5c">from pure_vorbis&#45;v0.0.1.svg</text>
<text xml:space="preserve" text-anchor="start" x="82.11" y="-432.7" font-family="Inter,Arial" font-weight="bold" font-size="10.00" fill="#123d5c">libm</text>
<text xml:space="preserve" text-anchor="start" x="79.11" y="-422.7" font-family="Inter,Arial" font-size="10.00" fill="#123d5c">0.2.16</text>
</g>
<!-- in3&#45;&gt;n0 -->
<g id="edge4" class="edge">
<title>in3&#45;&gt;n0</title>
<path fill="none" stroke="#4b8fc5" stroke-width="0.9" stroke-dasharray="5,2" d="M162.84,-414.46C170.66,-410.87 178.29,-406.79 185.22,-402.2 203.45,-390.12 220.3,-372.09 232.41,-357.35"/>
<polygon fill="#4b8fc5" stroke="#4b8fc5" stroke-width="0.9" points="233.84,-358.64 235.79,-353.15 230.84,-356.23 233.84,-358.64"/>
</g>
<!-- in4 -->
<g id="node6" class="node">
<title>in4</title>
<polygon fill="#eef6ff" stroke="#4b8fc5" points="140.97,-389.4 38.25,-389.4 38.25,-345 146.97,-345 146.97,-383.4 140.97,-389.4"/>
<polyline fill="none" stroke="#4b8fc5" points="140.97,-389.4 140.97,-383.4"/>
<polyline fill="none" stroke="#4b8fc5" points="146.97,-383.4 140.97,-383.4"/>
<text xml:space="preserve" text-anchor="start" x="47.61" y="-373.7" font-family="Inter,Arial" font-size="10.00" fill="#123d5c">from rsa&#45;v0.9.10.svg</text>
<text xml:space="preserve" text-anchor="start" x="82.11" y="-363.7" font-family="Inter,Arial" font-weight="bold" font-size="10.00" fill="#123d5c">libm</text>
<text xml:space="preserve" text-anchor="start" x="79.11" y="-353.7" font-family="Inter,Arial" font-size="10.00" fill="#123d5c">0.2.16</text>
</g>
<!-- in4&#45;&gt;n0 -->
<g id="edge5" class="edge">
<title>in4&#45;&gt;n0</title>
<path fill="none" stroke="#4b8fc5" stroke-width="0.9" stroke-dasharray="5,2" d="M147.41,-355.25C170.96,-350.02 197.85,-344.05 218.35,-339.5"/>
<polygon fill="#4b8fc5" stroke="#4b8fc5" stroke-width="0.9" points="218.76,-341.38 223.72,-338.31 217.93,-337.62 218.76,-341.38"/>
</g>
<!-- in5 -->
<g id="node7" class="node">
<title>in5</title>
<polygon fill="#eef6ff" stroke="#4b8fc5" points="179.22,-320.4 0,-320.4 0,-276 185.22,-276 185.22,-314.4 179.22,-320.4"/>
<polyline fill="none" stroke="#4b8fc5" points="179.22,-320.4 179.22,-314.4"/>
<polyline fill="none" stroke="#4b8fc5" points="185.22,-314.4 179.22,-314.4"/>
<text xml:space="preserve" text-anchor="start" x="9.36" y="-304.7" font-family="Inter,Arial" font-size="10.00" fill="#123d5c">from symphonia&#45;codec&#45;aac&#45;v0.5.5.svg</text>
<text xml:space="preserve" text-anchor="start" x="82.11" y="-294.7" font-family="Inter,Arial" font-weight="bold" font-size="10.00" fill="#123d5c">libm</text>
<text xml:space="preserve" text-anchor="start" x="79.11" y="-284.7" font-family="Inter,Arial" font-size="10.00" fill="#123d5c">0.2.16</text>
</g>
<!-- in5&#45;&gt;n0 -->
<g id="edge6" class="edge">
<title>in5&#45;&gt;n0</title>
<path fill="none" stroke="#4b8fc5" stroke-width="0.9" stroke-dasharray="5,2" d="M185.29,-317.98C197.07,-320.52 208.45,-322.97 218.34,-325.11"/>
<polygon fill="#4b8fc5" stroke="#4b8fc5" stroke-width="0.9" points="217.83,-326.97 223.61,-326.24 218.64,-323.2 217.83,-326.97"/>
</g>
<!-- in6 -->
<g id="node8" class="node">
<title>in6</title>
<polygon fill="#eef6ff" stroke="#4b8fc5" points="166.09,-251.4 13.12,-251.4 13.12,-207 172.09,-207 172.09,-245.4 166.09,-251.4"/>
<polyline fill="none" stroke="#4b8fc5" points="166.09,-251.4 166.09,-245.4"/>
<polyline fill="none" stroke="#4b8fc5" points="172.09,-245.4 166.09,-245.4"/>
<text xml:space="preserve" text-anchor="start" x="22.48" y="-235.7" font-family="Inter,Arial" font-size="10.00" fill="#123d5c">from symphonia&#45;core&#45;v0.5.5.svg</text>
<text xml:space="preserve" text-anchor="start" x="82.11" y="-225.7" font-family="Inter,Arial" font-weight="bold" font-size="10.00" fill="#123d5c">libm</text>
<text xml:space="preserve" text-anchor="start" x="79.11" y="-215.7" font-family="Inter,Arial" font-size="10.00" fill="#123d5c">0.2.16</text>
</g>
<!-- in6&#45;&gt;n0 -->
<g id="edge7" class="edge">
<title>in6&#45;&gt;n0</title>
<path fill="none" stroke="#4b8fc5" stroke-width="0.9" stroke-dasharray="5,2" d="M164.72,-251.87C171.87,-255.24 178.84,-259.01 185.22,-263.2 203.23,-275.04 219.97,-292.65 232.09,-307.12"/>
<polygon fill="#4b8fc5" stroke="#4b8fc5" stroke-width="0.9" points="230.49,-308.21 235.47,-311.24 233.47,-305.77 230.49,-308.21"/>
</g>
<!-- in7 -->
<g id="node9" class="node">
<title>in7</title>
<polygon fill="#eef6ff" stroke="#4b8fc5" points="163.09,-182.4 16.12,-182.4 16.12,-138 169.09,-138 169.09,-176.4 163.09,-182.4"/>
<polyline fill="none" stroke="#4b8fc5" points="163.09,-182.4 163.09,-176.4"/>
<polyline fill="none" stroke="#4b8fc5" points="169.09,-176.4 163.09,-176.4"/>
<text xml:space="preserve" text-anchor="start" x="25.48" y="-166.7" font-family="Inter,Arial" font-size="10.00" fill="#123d5c">from tiny&#45;skia&#45;path&#45;v0.11.4.svg</text>
<text xml:space="preserve" text-anchor="start" x="82.11" y="-156.7" font-family="Inter,Arial" font-weight="bold" font-size="10.00" fill="#123d5c">libm</text>
<text xml:space="preserve" text-anchor="start" x="79.11" y="-146.7" font-family="Inter,Arial" font-size="10.00" fill="#123d5c">0.2.16</text>
</g>
<!-- in7&#45;&gt;n0 -->
<g id="edge8" class="edge">
<title>in7&#45;&gt;n0</title>
<path fill="none" stroke="#4b8fc5" stroke-width="0.9" stroke-dasharray="5,2" d="M169.41,-182.72C175.09,-186.05 180.46,-189.85 185.22,-194.2 218.4,-224.5 236.55,-275.03 245.05,-305.82"/>
<polygon fill="#4b8fc5" stroke="#4b8fc5" stroke-width="0.9" points="243.19,-306.31 246.46,-311.13 246.91,-305.32 243.19,-306.31"/>
</g>
<!-- in8 -->
<g id="node10" class="node">
<title>in8</title>
<polygon fill="#eef6ff" stroke="#4b8fc5" points="157.47,-113.4 21.75,-113.4 21.75,-69 163.47,-69 163.47,-107.4 157.47,-113.4"/>
<polyline fill="none" stroke="#4b8fc5" points="157.47,-113.4 157.47,-107.4"/>
<polyline fill="none" stroke="#4b8fc5" points="163.47,-107.4 157.47,-107.4"/>
<text xml:space="preserve" text-anchor="start" x="31.11" y="-97.7" font-family="Inter,Arial" font-size="10.00" fill="#123d5c">from trueos&#45;math&#45;v0.1.0.svg</text>
<text xml:space="preserve" text-anchor="start" x="82.11" y="-87.7" font-family="Inter,Arial" font-weight="bold" font-size="10.00" fill="#123d5c">libm</text>
<text xml:space="preserve" text-anchor="start" x="79.11" y="-77.7" font-family="Inter,Arial" font-size="10.00" fill="#123d5c">0.2.16</text>
</g>
<!-- in8&#45;&gt;n0 -->
<g id="edge9" class="edge">
<title>in8&#45;&gt;n0</title>
<path fill="none" stroke="#4b8fc5" stroke-width="0.9" stroke-dasharray="5,2" d="M163.81,-109.4C171.73,-113.63 179.13,-118.82 185.22,-125.2 233.67,-175.97 246.56,-262.27 249.98,-305.65"/>
<polygon fill="#4b8fc5" stroke="#4b8fc5" stroke-width="0.9" points="248.04,-305.52 250.36,-310.87 251.88,-305.25 248.04,-305.52"/>
</g>
<!-- in9 -->
<g id="node11" class="node">
<title>in9</title>
<polygon fill="#eef6ff" stroke="#4b8fc5" points="152.97,-44.4 26.25,-44.4 26.25,0 158.97,0 158.97,-38.4 152.97,-44.4"/>
<polyline fill="none" stroke="#4b8fc5" points="152.97,-44.4 152.97,-38.4"/>
<polyline fill="none" stroke="#4b8fc5" points="158.97,-38.4 152.97,-38.4"/>
<text xml:space="preserve" text-anchor="start" x="35.61" y="-28.7" font-family="Inter,Arial" font-size="10.00" fill="#123d5c">from trueos&#45;qjs&#45;v0.1.0.svg</text>
<text xml:space="preserve" text-anchor="start" x="82.11" y="-18.7" font-family="Inter,Arial" font-weight="bold" font-size="10.00" fill="#123d5c">libm</text>
<text xml:space="preserve" text-anchor="start" x="79.11" y="-8.7" font-family="Inter,Arial" font-size="10.00" fill="#123d5c">0.2.16</text>
</g>
<!-- in9&#45;&gt;n0 -->
<g id="edge10" class="edge">
<title>in9&#45;&gt;n0</title>
<path fill="none" stroke="#4b8fc5" stroke-width="0.9" stroke-dasharray="5,2" d="M159.22,-37.4C168.98,-42.08 178.13,-48.2 185.22,-56.2 218.18,-93.39 240.18,-243.35 248.02,-305.26"/>
<polygon fill="#4b8fc5" stroke="#4b8fc5" stroke-width="0.9" points="246.1,-305.44 248.7,-310.66 249.93,-304.96 246.1,-305.44"/>
</g>
</g>
</svg>
