<?xml version="1.0" encoding="UTF-8" standalone="no"?>
<!DOCTYPE svg PUBLIC "-//W3C//DTD SVG 1.1//EN"
 "http://www.w3.org/Graphics/SVG/1.1/DTD/svg11.dtd">
<!-- Generated by graphviz version 14.1.2 (0)
 -->
<!-- Title: limine&#45;v0.6.3 Pages: 1 -->
<svg width="62pt" height="44pt"
 viewBox="0.00 0.00 62.00 44.00" xmlns="http://www.w3.org/2000/svg" xmlns:xlink="http://www.w3.org/1999/xlink">
<g id="graph0" class="graph" transform="scale(1 1) rotate(0) translate(4 40)">
<title>limine&#45;v0.6.3</title>
<polygon fill="white" stroke="none" points="-4,4 -4,-40 58,-40 58,4 -4,4"/>
<!-- n0 -->
<g id="node1" class="node">
<title>n0</title>
<path fill="#dff3ff" stroke="#1b78a6" d="M42,-36C42,-36 12,-36 12,-36 6,-36 0,-30 0,-24 0,-24 0,-12 0,-12 0,-6 6,0 12,0 12,0 42,0 42,0 48,0 54,-6 54,-12 54,-12 54,-24 54,-24 54,-30 48,-36 42,-36"/>
<text xml:space="preserve" text-anchor="start" x="12.38" y="-19.5" font-family="Inter,Arial" font-weight="bold" font-size="10.00" fill="#172033">limine</text>
<text xml:space="preserve" text-anchor="start" x="16.12" y="-9.5" font-family="Inter,Arial" font-size="10.00" fill="#172033">0.6.3</text>
</g>
</g>
</svg>
