<?xml version="1.0" encoding="UTF-8" standalone="no"?>
<!DOCTYPE svg PUBLIC "-//W3C//DTD SVG 1.1//EN"
 "http://www.w3.org/Graphics/SVG/1.1/DTD/svg11.dtd">
<!-- Generated by graphviz version 14.1.2 (0)
 -->
<!-- Title: log&#45;v0.4.29 Pages: 1 -->
<svg width="235pt" height="535pt"
 viewBox="0.00 0.00 235.00 535.00" xmlns="http://www.w3.org/2000/svg" xmlns:xlink="http://www.w3.org/1999/xlink">
<g id="graph0" class="graph" transform="scale(1 1) rotate(0) translate(4 531.4)">
<title>log&#45;v0.4.29</title>
<polygon fill="white" stroke="none" points="-4,4 -4,-531.4 230.72,-531.4 230.72,4 -4,4"/>
<!-- n0 -->
<g id="node1" class="node">
<title>n0</title>
<path fill="#dff3ff" stroke="#1b78a6" d="M214.72,-282.9C214.72,-282.9 184.72,-282.9 184.72,-282.9 178.72,-282.9 172.72,-276.9 172.72,-270.9 172.72,-270.9 172.72,-255.5 172.72,-255.5 172.72,-249.5 178.72,-243.5 184.72,-243.5 184.72,-243.5 214.72,-243.5 214.72,-243.5 220.72,-243.5 226.72,-249.5 226.72,-255.5 226.72,-255.5 226.72,-270.9 226.72,-270.9 226.72,-276.9 220.72,-282.9 214.72,-282.9"/>
<text xml:space="preserve" text-anchor="start" x="189.6" y="-264.35" font-family="Inter,Arial" font-weight="bold" font-size="13.00" fill="#172033">log</text>
<text xml:space="preserve" text-anchor="start" x="183.22" y="-252.3" font-family="Inter,Arial" font-size="12.00" fill="#172033">0.4.29</text>
</g>
<!-- in0 -->
<g id="node2" class="node">
<title>in0</title>
<polygon fill="#eef6ff" stroke="#4b8fc5" points="114.35,-527.4 12.38,-527.4 12.38,-483 120.35,-483 120.35,-521.4 114.35,-527.4"/>
<polyline fill="none" stroke="#4b8fc5" points="114.35,-527.4 114.35,-521.4"/>
<polyline fill="none" stroke="#4b8fc5" points="120.35,-521.4 114.35,-521.4"/>
<text xml:space="preserve" text-anchor="start" x="21.74" y="-511.7" font-family="Inter,Arial" font-size="10.00" fill="#123d5c">from acpi&#45;v6.1.1.svg</text>
<text xml:space="preserve" text-anchor="start" x="58.86" y="-501.7" font-family="Inter,Arial" font-weight="bold" font-size="10.00" fill="#123d5c">log</text>
<text xml:space="preserve" text-anchor="start" x="52.86" y="-491.7" font-family="Inter,Arial" font-size="10.00" fill="#123d5c">0.4.29</text>
</g>
<!-- in0&#45;&gt;n0 -->
<g id="edge1" class="edge">
<title>in0&#45;&gt;n0</title>
<path fill="none" stroke="#4b8fc5" stroke-width="0.9" stroke-dasharray="5,2" d="M120.14,-482.73C124.79,-479.34 129.1,-475.51 132.72,-471.2 177.76,-417.64 192.16,-333.08 196.69,-290.14"/>
<polygon fill="#4b8fc5" stroke="#4b8fc5" stroke-width="0.9" points="198.6,-290.39 197.23,-284.73 194.77,-290.01 198.6,-290.39"/>
</g>
<!-- in1 -->
<g id="node3" class="node">
<title>in1</title>
<polygon fill="#eef6ff" stroke="#4b8fc5" points="115.85,-458.4 10.88,-458.4 10.88,-414 121.85,-414 121.85,-452.4 115.85,-458.4"/>
<polyline fill="none" stroke="#4b8fc5" points="115.85,-458.4 115.85,-452.4"/>
<polyline fill="none" stroke="#4b8fc5" points="121.85,-452.4 115.85,-452.4"/>
<text xml:space="preserve" text-anchor="start" x="20.24" y="-442.7" font-family="Inter,Arial" font-size="10.00" fill="#123d5c">from aml&#45;v0.16.4.svg</text>
<text xml:space="preserve" text-anchor="start" x="58.86" y="-432.7" font-family="Inter,Arial" font-weight="bold" font-size="10.00" fill="#123d5c">log</text>
<text xml:space="preserve" text-anchor="start" x="52.86" y="-422.7" font-family="Inter,Arial" font-size="10.00" fill="#123d5c">0.4.29</text>
</g>
<!-- in1&#45;&gt;n0 -->
<g id="edge2" class="edge">
<title>in1&#45;&gt;n0</title>
<path fill="none" stroke="#4b8fc5" stroke-width="0.9" stroke-dasharray="5,2" d="M118.9,-413.65C123.91,-410.25 128.64,-406.44 132.72,-402.2 163.92,-369.84 182.62,-319.96 191.77,-289.58"/>
<polygon fill="#4b8fc5" stroke="#4b8fc5" stroke-width="0.9" points="193.61,-290.17 193.3,-284.35 189.91,-289.08 193.61,-290.17"/>
</g>
<!-- in2 -->
<g id="node4" class="node">
<title>in2</title>
<polygon fill="#eef6ff" stroke="#4b8fc5" points="124.1,-389.4 2.63,-389.4 2.63,-345 130.1,-345 130.1,-383.4 124.1,-389.4"/>
<polyline fill="none" stroke="#4b8fc5" points="124.1,-389.4 124.1,-383.4"/>
<polyline fill="none" stroke="#4b8fc5" points="130.1,-383.4 124.1,-383.4"/>
<text xml:space="preserve" text-anchor="start" x="11.99" y="-373.7" font-family="Inter,Arial" font-size="10.00" fill="#123d5c">from crab&#45;usb&#45;v0.9.1.svg</text>
<text xml:space="preserve" text-anchor="start" x="58.86" y="-363.7" font-family="Inter,Arial" font-weight="bold" font-size="10.00" fill="#123d5c">log</text>
<text xml:space="preserve" text-anchor="start" x="52.86" y="-353.7" font-family="Inter,Arial" font-size="10.00" fill="#123d5c">0.4.29</text>
</g>
<!-- in2&#45;&gt;n0 -->
<g id="edge3" class="edge">
<title>in2&#45;&gt;n0</title>
<path fill="none" stroke="#4b8fc5" stroke-width="0.9" stroke-dasharray="5,2" d="M115.27,-344.68C121.34,-341.14 127.31,-337.29 132.72,-333.2 149.81,-320.28 166.34,-302.74 178.58,-288.45"/>
<polygon fill="#4b8fc5" stroke="#4b8fc5" stroke-width="0.9" points="179.94,-289.83 182.01,-284.38 177,-287.34 179.94,-289.83"/>
</g>
<!-- in3 -->
<g id="node5" class="node">
<title>in3</title>
<polygon fill="#eef6ff" stroke="#4b8fc5" points="122.6,-320.4 4.13,-320.4 4.13,-276 128.6,-276 128.6,-314.4 122.6,-320.4"/>
<polyline fill="none" stroke="#4b8fc5" points="122.6,-320.4 122.6,-314.4"/>
<polyline fill="none" stroke="#4b8fc5" points="128.6,-314.4 122.6,-314.4"/>
<text xml:space="preserve" text-anchor="start" x="13.49" y="-304.7" font-family="Inter,Arial" font-size="10.00" fill="#123d5c">from dma&#45;api&#45;v0.7.3.svg</text>
<text xml:space="preserve" text-anchor="start" x="58.86" y="-294.7" font-family="Inter,Arial" font-weight="bold" font-size="10.00" fill="#123d5c">log</text>
<text xml:space="preserve" text-anchor="start" x="52.86" y="-284.7" font-family="Inter,Arial" font-size="10.00" fill="#123d5c">0.4.29</text>
</g>
<!-- in3&#45;&gt;n0 -->
<g id="edge4" class="edge">
<title>in3&#45;&gt;n0</title>
<path fill="none" stroke="#4b8fc5" stroke-width="0.9" stroke-dasharray="5,2" d="M128.81,-281.83C141.65,-278.41 154.7,-274.93 166,-271.92"/>
<polygon fill="#4b8fc5" stroke="#4b8fc5" stroke-width="0.9" points="166.3,-273.83 171.12,-270.55 165.31,-270.11 166.3,-273.83"/>
</g>
<!-- in4 -->
<g id="node6" class="node">
<title>in4</title>
<polygon fill="#eef6ff" stroke="#4b8fc5" points="124.1,-251.4 2.63,-251.4 2.63,-207 130.1,-207 130.1,-245.4 124.1,-251.4"/>
<polyline fill="none" stroke="#4b8fc5" points="124.1,-251.4 124.1,-245.4"/>
<polyline fill="none" stroke="#4b8fc5" points="130.1,-245.4 124.1,-245.4"/>
<text xml:space="preserve" text-anchor="start" x="11.99" y="-235.7" font-family="Inter,Arial" font-size="10.00" fill="#123d5c">from parry2d&#45;v0.26.0.svg</text>
<text xml:space="preserve" text-anchor="start" x="58.86" y="-225.7" font-family="Inter,Arial" font-weight="bold" font-size="10.00" fill="#123d5c">log</text>
<text xml:space="preserve" text-anchor="start" x="52.86" y="-215.7" font-family="Inter,Arial" font-size="10.00" fill="#123d5c">0.4.29</text>
</g>
<!-- in4&#45;&gt;n0 -->
<g id="edge5" class="edge">
<title>in4&#45;&gt;n0</title>
<path fill="none" stroke="#4b8fc5" stroke-width="0.9" stroke-dasharray="5,2" d="M130.35,-245.5C142.67,-248.69 155.12,-251.92 165.96,-254.72"/>
<polygon fill="#4b8fc5" stroke="#4b8fc5" stroke-width="0.9" points="165.36,-256.55 171.16,-256.07 166.32,-252.83 165.36,-256.55"/>
</g>
<!-- in5 -->
<g id="node7" class="node">
<title>in5</title>
<polygon fill="#eef6ff" stroke="#4b8fc5" points="115.85,-182.4 10.88,-182.4 10.88,-138 121.85,-138 121.85,-176.4 115.85,-182.4"/>
<polyline fill="none" stroke="#4b8fc5" points="115.85,-182.4 115.85,-176.4"/>
<polyline fill="none" stroke="#4b8fc5" points="121.85,-176.4 115.85,-176.4"/>
<text xml:space="preserve" text-anchor="start" x="20.24" y="-166.7" font-family="Inter,Arial" font-size="10.00" fill="#123d5c">from png&#45;v0.18.1.svg</text>
<text xml:space="preserve" text-anchor="start" x="58.86" y="-156.7" font-family="Inter,Arial" font-weight="bold" font-size="10.00" fill="#123d5c">log</text>
<text xml:space="preserve" text-anchor="start" x="52.86" y="-146.7" font-family="Inter,Arial" font-size="10.00" fill="#123d5c">0.4.29</text>
</g>
<!-- in5&#45;&gt;n0 -->
<g id="edge6" class="edge">
<title>in5&#45;&gt;n0</title>
<path fill="none" stroke="#4b8fc5" stroke-width="0.9" stroke-dasharray="5,2" d="M115.25,-182.76C121.32,-186.29 127.3,-190.13 132.72,-194.2 149.61,-206.87 166.03,-224.01 178.27,-238.04"/>
<polygon fill="#4b8fc5" stroke="#4b8fc5" stroke-width="0.9" points="176.64,-239.11 181.69,-242.02 179.56,-236.59 176.64,-239.11"/>
</g>
<!-- in6 -->
<g id="node8" class="node">
<title>in6</title>
<polygon fill="#eef6ff" stroke="#4b8fc5" points="126.72,-113.4 0,-113.4 0,-69 132.72,-69 132.72,-107.4 126.72,-113.4"/>
<polyline fill="none" stroke="#4b8fc5" points="126.72,-113.4 126.72,-107.4"/>
<polyline fill="none" stroke="#4b8fc5" points="132.72,-107.4 126.72,-107.4"/>
<text xml:space="preserve" text-anchor="start" x="9.36" y="-97.7" font-family="Inter,Arial" font-size="10.00" fill="#123d5c">from trueos&#45;qjs&#45;v0.1.0.svg</text>
<text xml:space="preserve" text-anchor="start" x="58.86" y="-87.7" font-family="Inter,Arial" font-weight="bold" font-size="10.00" fill="#123d5c">log</text>
<text xml:space="preserve" text-anchor="start" x="52.86" y="-77.7" font-family="Inter,Arial" font-size="10.00" fill="#123d5c">0.4.29</text>
</g>
<!-- in6&#45;&gt;n0 -->
<g id="edge7" class="edge">
<title>in6&#45;&gt;n0</title>
<path fill="none" stroke="#4b8fc5" stroke-width="0.9" stroke-dasharray="5,2" d="M118.89,-113.76C123.9,-117.16 128.63,-120.97 132.72,-125.2 163.61,-157.15 182.32,-206.3 191.57,-236.51"/>
<polygon fill="#4b8fc5" stroke="#4b8fc5" stroke-width="0.9" points="189.71,-236.99 193.12,-241.71 193.4,-235.89 189.71,-236.99"/>
</g>
<!-- in7 -->
<g id="node9" class="node">
<title>in7</title>
<polygon fill="#eef6ff" stroke="#4b8fc5" points="118.47,-44.4 8.25,-44.4 8.25,0 124.47,0 124.47,-38.4 118.47,-44.4"/>
<polyline fill="none" stroke="#4b8fc5" points="118.47,-44.4 118.47,-38.4"/>
<polyline fill="none" stroke="#4b8fc5" points="124.47,-38.4 118.47,-38.4"/>
<text xml:space="preserve" text-anchor="start" x="17.61" y="-28.7" font-family="Inter,Arial" font-size="10.00" fill="#123d5c">from usvg&#45;v0.45.1.svg</text>
<text xml:space="preserve" text-anchor="start" x="58.86" y="-18.7" font-family="Inter,Arial" font-weight="bold" font-size="10.00" fill="#123d5c">log</text>
<text xml:space="preserve" text-anchor="start" x="52.86" y="-8.7" font-family="Inter,Arial" font-size="10.00" fill="#123d5c">0.4.29</text>
</g>
<!-- in7&#45;&gt;n0 -->
<g id="edge8" class="edge">
<title>in7&#45;&gt;n0</title>
<path fill="none" stroke="#4b8fc5" stroke-width="0.9" stroke-dasharray="5,2" d="M120.13,-44.68C124.79,-48.07 129.09,-51.9 132.72,-56.2 177.6,-109.5 192.08,-193.65 196.66,-236.39"/>
<polygon fill="#4b8fc5" stroke="#4b8fc5" stroke-width="0.9" points="194.73,-236.49 197.2,-241.77 198.56,-236.11 194.73,-236.49"/>
</g>
</g>
</svg>
