<?xml version="1.0" encoding="UTF-8" standalone="no"?>
<!DOCTYPE svg PUBLIC "-//W3C//DTD SVG 1.1//EN"
 "http://www.w3.org/Graphics/SVG/1.1/DTD/svg11.dtd">
<!-- Generated by graphviz version 14.1.2 (0)
 -->
<!-- Title: log&#45;v0.4.29 Pages: 1 -->
<svg width="228pt" height="479pt"
 viewBox="0.00 0.00 228.00 479.00" xmlns="http://www.w3.org/2000/svg" xmlns:xlink="http://www.w3.org/1999/xlink">
<g id="graph0" class="graph" transform="scale(1 1) rotate(0) translate(4 475.2)">
<title>log&#45;v0.4.29</title>
<polygon fill="white" stroke="none" points="-4,4 -4,-475.2 223.52,-475.2 223.52,4 -4,4"/>
<!-- n0 -->
<g id="node1" class="node">
<title>n0</title>
<path fill="#dff3ff" stroke="#1b78a6" d="M207.52,-253.6C207.52,-253.6 177.52,-253.6 177.52,-253.6 171.52,-253.6 165.52,-247.6 165.52,-241.6 165.52,-241.6 165.52,-229.6 165.52,-229.6 165.52,-223.6 171.52,-217.6 177.52,-217.6 177.52,-217.6 207.52,-217.6 207.52,-217.6 213.52,-217.6 219.52,-223.6 219.52,-229.6 219.52,-229.6 219.52,-241.6 219.52,-241.6 219.52,-247.6 213.52,-253.6 207.52,-253.6"/>
<text xml:space="preserve" text-anchor="start" x="185.02" y="-237.1" font-family="Inter,Arial" font-weight="bold" font-size="10.00" fill="#172033">log</text>
<text xml:space="preserve" text-anchor="start" x="179.02" y="-227.1" font-family="Inter,Arial" font-size="10.00" fill="#172033">0.4.29</text>
</g>
<!-- in0 -->
<g id="node2" class="node">
<title>in0</title>
<polygon fill="#eef6ff" stroke="#4b8fc5" points="107.14,-471.2 12.37,-471.2 12.37,-434 113.14,-434 113.14,-465.2 107.14,-471.2"/>
<polyline fill="none" stroke="#4b8fc5" points="107.14,-471.2 107.14,-465.2"/>
<polyline fill="none" stroke="#4b8fc5" points="113.14,-465.2 107.14,-465.2"/>
<text xml:space="preserve" text-anchor="start" x="18.13" y="-459.1" font-family="Inter,Arial" font-size="10.00" fill="#123d5c">from acpi&#45;v6.1.1.svg</text>
<text xml:space="preserve" text-anchor="start" x="55.26" y="-449.1" font-family="Inter,Arial" font-weight="bold" font-size="10.00" fill="#123d5c">log</text>
<text xml:space="preserve" text-anchor="start" x="49.26" y="-439.1" font-family="Inter,Arial" font-size="10.00" fill="#123d5c">0.4.29</text>
</g>
<!-- in0&#45;&gt;n0 -->
<g id="edge1" class="edge">
<title>in0&#45;&gt;n0</title>
<path fill="none" stroke="#4b8fc5" stroke-width="0.9" stroke-dasharray="5,2" d="M111.35,-433.62C116.58,-430.18 121.47,-426.19 125.52,-421.6 167.22,-374.37 183.06,-299.04 188.68,-260.33"/>
<polygon fill="#4b8fc5" stroke="#4b8fc5" stroke-width="0.9" points="190.53,-261.06 189.37,-255.35 186.71,-260.53 190.53,-261.06"/>
</g>
<!-- in1 -->
<g id="node3" class="node">
<title>in1</title>
<polygon fill="#eef6ff" stroke="#4b8fc5" points="108.64,-409.2 10.87,-409.2 10.87,-372 114.64,-372 114.64,-403.2 108.64,-409.2"/>
<polyline fill="none" stroke="#4b8fc5" points="108.64,-409.2 108.64,-403.2"/>
<polyline fill="none" stroke="#4b8fc5" points="114.64,-403.2 108.64,-403.2"/>
<text xml:space="preserve" text-anchor="start" x="16.63" y="-397.1" font-family="Inter,Arial" font-size="10.00" fill="#123d5c">from aml&#45;v0.16.4.svg</text>
<text xml:space="preserve" text-anchor="start" x="55.26" y="-387.1" font-family="Inter,Arial" font-weight="bold" font-size="10.00" fill="#123d5c">log</text>
<text xml:space="preserve" text-anchor="start" x="49.26" y="-377.1" font-family="Inter,Arial" font-size="10.00" fill="#123d5c">0.4.29</text>
</g>
<!-- in1&#45;&gt;n0 -->
<g id="edge2" class="edge">
<title>in1&#45;&gt;n0</title>
<path fill="none" stroke="#4b8fc5" stroke-width="0.9" stroke-dasharray="5,2" d="M109.78,-371.61C115.46,-368.12 120.88,-364.13 125.52,-359.6 154.6,-331.21 173.79,-287.24 183.64,-260"/>
<polygon fill="#4b8fc5" stroke="#4b8fc5" stroke-width="0.9" points="185.36,-260.9 185.37,-255.07 181.73,-259.62 185.36,-260.9"/>
</g>
<!-- in2 -->
<g id="node4" class="node">
<title>in2</title>
<polygon fill="#eef6ff" stroke="#4b8fc5" points="116.89,-347.2 2.62,-347.2 2.62,-310 122.89,-310 122.89,-341.2 116.89,-347.2"/>
<polyline fill="none" stroke="#4b8fc5" points="116.89,-347.2 116.89,-341.2"/>
<polyline fill="none" stroke="#4b8fc5" points="122.89,-341.2 116.89,-341.2"/>
<text xml:space="preserve" text-anchor="start" x="8.38" y="-335.1" font-family="Inter,Arial" font-size="10.00" fill="#123d5c">from crab&#45;usb&#45;v0.9.1.svg</text>
<text xml:space="preserve" text-anchor="start" x="55.26" y="-325.1" font-family="Inter,Arial" font-weight="bold" font-size="10.00" fill="#123d5c">log</text>
<text xml:space="preserve" text-anchor="start" x="49.26" y="-315.1" font-family="Inter,Arial" font-size="10.00" fill="#123d5c">0.4.29</text>
</g>
<!-- in2&#45;&gt;n0 -->
<g id="edge3" class="edge">
<title>in2&#45;&gt;n0</title>
<path fill="none" stroke="#4b8fc5" stroke-width="0.9" stroke-dasharray="5,2" d="M105.9,-309.51C112.66,-305.87 119.42,-301.86 125.52,-297.6 141.68,-286.32 157.84,-271.22 170.12,-258.74"/>
<polygon fill="#4b8fc5" stroke="#4b8fc5" stroke-width="0.9" points="171.4,-260.19 173.85,-254.91 168.64,-257.51 171.4,-260.19"/>
</g>
<!-- in3 -->
<g id="node5" class="node">
<title>in3</title>
<polygon fill="#eef6ff" stroke="#4b8fc5" points="115.39,-285.2 4.12,-285.2 4.12,-248 121.39,-248 121.39,-279.2 115.39,-285.2"/>
<polyline fill="none" stroke="#4b8fc5" points="115.39,-285.2 115.39,-279.2"/>
<polyline fill="none" stroke="#4b8fc5" points="121.39,-279.2 115.39,-279.2"/>
<text xml:space="preserve" text-anchor="start" x="9.88" y="-273.1" font-family="Inter,Arial" font-size="10.00" fill="#123d5c">from dma&#45;api&#45;v0.7.3.svg</text>
<text xml:space="preserve" text-anchor="start" x="55.26" y="-263.1" font-family="Inter,Arial" font-weight="bold" font-size="10.00" fill="#123d5c">log</text>
<text xml:space="preserve" text-anchor="start" x="49.26" y="-253.1" font-family="Inter,Arial" font-size="10.00" fill="#123d5c">0.4.29</text>
</g>
<!-- in3&#45;&gt;n0 -->
<g id="edge4" class="edge">
<title>in3&#45;&gt;n0</title>
<path fill="none" stroke="#4b8fc5" stroke-width="0.9" stroke-dasharray="5,2" d="M121.66,-252.55C134.35,-249.47 147.36,-246.31 158.67,-243.57"/>
<polygon fill="#4b8fc5" stroke="#4b8fc5" stroke-width="0.9" points="158.89,-245.5 163.78,-242.33 157.98,-241.76 158.89,-245.5"/>
</g>
<!-- in4 -->
<g id="node6" class="node">
<title>in4</title>
<polygon fill="#eef6ff" stroke="#4b8fc5" points="116.89,-223.2 2.62,-223.2 2.62,-186 122.89,-186 122.89,-217.2 116.89,-223.2"/>
<polyline fill="none" stroke="#4b8fc5" points="116.89,-223.2 116.89,-217.2"/>
<polyline fill="none" stroke="#4b8fc5" points="122.89,-217.2 116.89,-217.2"/>
<text xml:space="preserve" text-anchor="start" x="8.38" y="-211.1" font-family="Inter,Arial" font-size="10.00" fill="#123d5c">from parry2d&#45;v0.26.0.svg</text>
<text xml:space="preserve" text-anchor="start" x="55.26" y="-201.1" font-family="Inter,Arial" font-weight="bold" font-size="10.00" fill="#123d5c">log</text>
<text xml:space="preserve" text-anchor="start" x="49.26" y="-191.1" font-family="Inter,Arial" font-size="10.00" fill="#123d5c">0.4.29</text>
</g>
<!-- in4&#45;&gt;n0 -->
<g id="edge5" class="edge">
<title>in4&#45;&gt;n0</title>
<path fill="none" stroke="#4b8fc5" stroke-width="0.9" stroke-dasharray="5,2" d="M123.15,-219.01C135.35,-221.97 147.76,-224.98 158.61,-227.61"/>
<polygon fill="#4b8fc5" stroke="#4b8fc5" stroke-width="0.9" points="158.02,-229.45 163.82,-228.88 158.93,-225.71 158.02,-229.45"/>
</g>
<!-- in5 -->
<g id="node7" class="node">
<title>in5</title>
<polygon fill="#eef6ff" stroke="#4b8fc5" points="108.64,-161.2 10.87,-161.2 10.87,-124 114.64,-124 114.64,-155.2 108.64,-161.2"/>
<polyline fill="none" stroke="#4b8fc5" points="108.64,-161.2 108.64,-155.2"/>
<polyline fill="none" stroke="#4b8fc5" points="114.64,-155.2 108.64,-155.2"/>
<text xml:space="preserve" text-anchor="start" x="16.63" y="-149.1" font-family="Inter,Arial" font-size="10.00" fill="#123d5c">from png&#45;v0.18.1.svg</text>
<text xml:space="preserve" text-anchor="start" x="55.26" y="-139.1" font-family="Inter,Arial" font-weight="bold" font-size="10.00" fill="#123d5c">log</text>
<text xml:space="preserve" text-anchor="start" x="49.26" y="-129.1" font-family="Inter,Arial" font-size="10.00" fill="#123d5c">0.4.29</text>
</g>
<!-- in5&#45;&gt;n0 -->
<g id="edge6" class="edge">
<title>in5&#45;&gt;n0</title>
<path fill="none" stroke="#4b8fc5" stroke-width="0.9" stroke-dasharray="5,2" d="M105.9,-161.69C112.66,-165.33 119.42,-169.34 125.52,-173.6 141.68,-184.88 157.84,-199.98 170.12,-212.46"/>
<polygon fill="#4b8fc5" stroke="#4b8fc5" stroke-width="0.9" points="168.64,-213.69 173.85,-216.29 171.4,-211.01 168.64,-213.69"/>
</g>
<!-- in6 -->
<g id="node8" class="node">
<title>in6</title>
<polygon fill="#eef6ff" stroke="#4b8fc5" points="119.52,-99.2 0,-99.2 0,-62 125.52,-62 125.52,-93.2 119.52,-99.2"/>
<polyline fill="none" stroke="#4b8fc5" points="119.52,-99.2 119.52,-93.2"/>
<polyline fill="none" stroke="#4b8fc5" points="125.52,-93.2 119.52,-93.2"/>
<text xml:space="preserve" text-anchor="start" x="5.76" y="-87.1" font-family="Inter,Arial" font-size="10.00" fill="#123d5c">from trueos&#45;qjs&#45;v0.1.0.svg</text>
<text xml:space="preserve" text-anchor="start" x="55.26" y="-77.1" font-family="Inter,Arial" font-weight="bold" font-size="10.00" fill="#123d5c">log</text>
<text xml:space="preserve" text-anchor="start" x="49.26" y="-67.1" font-family="Inter,Arial" font-size="10.00" fill="#123d5c">0.4.29</text>
</g>
<!-- in6&#45;&gt;n0 -->
<g id="edge7" class="edge">
<title>in6&#45;&gt;n0</title>
<path fill="none" stroke="#4b8fc5" stroke-width="0.9" stroke-dasharray="5,2" d="M109.78,-99.59C115.46,-103.08 120.88,-107.07 125.52,-111.6 154.6,-139.99 173.79,-183.96 183.64,-211.2"/>
<polygon fill="#4b8fc5" stroke="#4b8fc5" stroke-width="0.9" points="181.73,-211.58 185.37,-216.13 185.36,-210.3 181.73,-211.58"/>
</g>
<!-- in7 -->
<g id="node9" class="node">
<title>in7</title>
<polygon fill="#eef6ff" stroke="#4b8fc5" points="111.27,-37.2 8.25,-37.2 8.25,0 117.27,0 117.27,-31.2 111.27,-37.2"/>
<polyline fill="none" stroke="#4b8fc5" points="111.27,-37.2 111.27,-31.2"/>
<polyline fill="none" stroke="#4b8fc5" points="117.27,-31.2 111.27,-31.2"/>
<text xml:space="preserve" text-anchor="start" x="14.01" y="-25.1" font-family="Inter,Arial" font-size="10.00" fill="#123d5c">from usvg&#45;v0.45.1.svg</text>
<text xml:space="preserve" text-anchor="start" x="55.26" y="-15.1" font-family="Inter,Arial" font-weight="bold" font-size="10.00" fill="#123d5c">log</text>
<text xml:space="preserve" text-anchor="start" x="49.26" y="-5.1" font-family="Inter,Arial" font-size="10.00" fill="#123d5c">0.4.29</text>
</g>
<!-- in7&#45;&gt;n0 -->
<g id="edge8" class="edge">
<title>in7&#45;&gt;n0</title>
<path fill="none" stroke="#4b8fc5" stroke-width="0.9" stroke-dasharray="5,2" d="M111.35,-37.58C116.58,-41.02 121.47,-45.01 125.52,-49.6 167.22,-96.83 183.06,-172.16 188.68,-210.87"/>
<polygon fill="#4b8fc5" stroke="#4b8fc5" stroke-width="0.9" points="186.71,-210.67 189.37,-215.85 190.53,-210.14 186.71,-210.67"/>
</g>
</g>
</svg>
