<?xml version="1.0" encoding="UTF-8" standalone="no"?>
<!DOCTYPE svg PUBLIC "-//W3C//DTD SVG 1.1//EN"
 "http://www.w3.org/Graphics/SVG/1.1/DTD/svg11.dtd">
<!-- Generated by graphviz version 14.1.2 (0)
 -->
<!-- Title: lyon_geom&#45;v1.0.19 Pages: 1 -->
<svg width="473pt" height="200pt"
 viewBox="0.00 0.00 473.00 200.00" xmlns="http://www.w3.org/2000/svg" xmlns:xlink="http://www.w3.org/1999/xlink">
<g id="graph0" class="graph" transform="scale(1 1) rotate(0) translate(4 196.4)">
<title>lyon_geom&#45;v1.0.19</title>
<polygon fill="white" stroke="none" points="-4,4 -4,-196.4 468.66,-196.4 468.66,4 -4,4"/>
<!-- n0 -->
<g id="node1" class="node">
<title>n0</title>
<path fill="#dff3ff" stroke="#1b78a6" d="M285.19,-110.9C285.19,-110.9 219.97,-110.9 219.97,-110.9 213.97,-110.9 207.97,-104.9 207.97,-98.9 207.97,-98.9 207.97,-83.5 207.97,-83.5 207.97,-77.5 213.97,-71.5 219.97,-71.5 219.97,-71.5 285.19,-71.5 285.19,-71.5 291.19,-71.5 297.19,-77.5 297.19,-83.5 297.19,-83.5 297.19,-98.9 297.19,-98.9 297.19,-104.9 291.19,-110.9 285.19,-110.9"/>
<text xml:space="preserve" text-anchor="start" x="217.33" y="-92.35" font-family="Inter,Arial" font-weight="bold" font-size="13.00" fill="#172033">lyon_geom</text>
<text xml:space="preserve" text-anchor="start" x="236.08" y="-80.3" font-family="Inter,Arial" font-size="12.00" fill="#172033">1.0.19</text>
</g>
<!-- out0 -->
<g id="node2" class="node">
<title>out0</title>
<polygon fill="#fff8e8" stroke="#d19922" points="458.66,-192.4 337.19,-192.4 337.19,-138 464.66,-138 464.66,-186.4 458.66,-192.4"/>
<polyline fill="none" stroke="#d19922" points="458.66,-192.4 458.66,-186.4"/>
<polyline fill="none" stroke="#d19922" points="464.66,-186.4 458.66,-186.4"/>
<text xml:space="preserve" text-anchor="start" x="352.17" y="-176.7" font-family="Inter,Arial" font-size="10.00" fill="#614000">to crab&#45;usb&#45;v0.9.1.svg</text>
<text xml:space="preserve" text-anchor="start" x="377.3" y="-166.7" font-family="Inter,Arial" font-weight="bold" font-size="10.00" fill="#614000">num&#45;traits</text>
<text xml:space="preserve" text-anchor="start" x="387.42" y="-156.7" font-family="Inter,Arial" font-size="10.00" fill="#614000">0.2.19</text>
<text xml:space="preserve" text-anchor="start" x="346.55" y="-146.7" font-family="Inter,Arial" font-size="10.00" fill="#614000">/vendor/num&#45;traits&#45;0.2.19</text>
</g>
<!-- n0&#45;&gt;out0 -->
<g id="edge1" class="edge">
<title>n0&#45;&gt;out0</title>
<path fill="none" stroke="#d19922" stroke-width="0.9" stroke-dasharray="5,2" d="M293.18,-111.23C307.43,-118.43 323.85,-126.73 339.47,-134.63"/>
<polygon fill="#d19922" stroke="#d19922" stroke-width="0.9" points="338.19,-136.14 343.97,-136.9 339.93,-132.7 338.19,-136.14"/>
</g>
<!-- out1 -->
<g id="node3" class="node">
<title>out1</title>
<polygon fill="#fff8e8" stroke="#d19922" points="452.28,-113.4 343.56,-113.4 343.56,-69 458.28,-69 458.28,-107.4 452.28,-113.4"/>
<polyline fill="none" stroke="#d19922" points="452.28,-113.4 452.28,-107.4"/>
<polyline fill="none" stroke="#d19922" points="458.28,-107.4 452.28,-107.4"/>
<text xml:space="preserve" text-anchor="start" x="352.92" y="-97.7" font-family="Inter,Arial" font-size="10.00" fill="#614000">to euclid&#45;v0.22.13.svg</text>
<text xml:space="preserve" text-anchor="start" x="386.67" y="-87.7" font-family="Inter,Arial" font-weight="bold" font-size="10.00" fill="#614000">euclid</text>
<text xml:space="preserve" text-anchor="start" x="384.8" y="-77.7" font-family="Inter,Arial" font-size="10.00" fill="#614000">0.22.13</text>
</g>
<!-- n0&#45;&gt;out1 -->
<g id="edge2" class="edge">
<title>n0&#45;&gt;out1</title>
<path fill="none" stroke="#d19922" stroke-width="0.9" stroke-dasharray="5,2" d="M297.49,-91.2C309.75,-91.2 323.32,-91.2 336.47,-91.2"/>
<polygon fill="#d19922" stroke="#d19922" stroke-width="0.9" points="336.43,-93.13 341.93,-91.2 336.43,-89.28 336.43,-93.13"/>
</g>
<!-- out2 -->
<g id="node4" class="node">
<title>out2</title>
<polygon fill="#fff8e8" stroke="#d19922" points="448.53,-44.4 347.31,-44.4 347.31,0 454.53,0 454.53,-38.4 448.53,-44.4"/>
<polyline fill="none" stroke="#d19922" points="448.53,-44.4 448.53,-38.4"/>
<polyline fill="none" stroke="#d19922" points="454.53,-38.4 448.53,-38.4"/>
<text xml:space="preserve" text-anchor="start" x="356.67" y="-28.7" font-family="Inter,Arial" font-size="10.00" fill="#614000">to kurbo&#45;v0.11.3.svg</text>
<text xml:space="preserve" text-anchor="start" x="381.42" y="-18.7" font-family="Inter,Arial" font-weight="bold" font-size="10.00" fill="#614000">arrayvec</text>
<text xml:space="preserve" text-anchor="start" x="390.05" y="-8.7" font-family="Inter,Arial" font-size="10.00" fill="#614000">0.7.7</text>
</g>
<!-- n0&#45;&gt;out2 -->
<g id="edge3" class="edge">
<title>n0&#45;&gt;out2</title>
<path fill="none" stroke="#d19922" stroke-width="0.9" stroke-dasharray="5,2" d="M296.3,-71.06C311.86,-63.72 329.64,-55.34 346.04,-47.61"/>
<polygon fill="#d19922" stroke="#d19922" stroke-width="0.9" points="346.63,-49.46 350.78,-45.37 344.98,-45.98 346.63,-49.46"/>
</g>
<!-- in3 -->
<g id="node5" class="node">
<title>in3</title>
<polygon fill="#eef6ff" stroke="#4b8fc5" points="161.97,-113.4 0,-113.4 0,-69 167.97,-69 167.97,-107.4 161.97,-113.4"/>
<polyline fill="none" stroke="#4b8fc5" points="161.97,-113.4 161.97,-107.4"/>
<polyline fill="none" stroke="#4b8fc5" points="167.97,-107.4 161.97,-107.4"/>
<text xml:space="preserve" text-anchor="start" x="9.36" y="-97.7" font-family="Inter,Arial" font-size="10.00" fill="#123d5c">from lyon_tessellation&#45;v1.0.20.svg</text>
<text xml:space="preserve" text-anchor="start" x="58.11" y="-87.7" font-family="Inter,Arial" font-weight="bold" font-size="10.00" fill="#123d5c">lyon_geom</text>
<text xml:space="preserve" text-anchor="start" x="70.49" y="-77.7" font-family="Inter,Arial" font-size="10.00" fill="#123d5c">1.0.19</text>
</g>
<!-- in3&#45;&gt;n0 -->
<g id="edge4" class="edge">
<title>in3&#45;&gt;n0</title>
<path fill="none" stroke="#4b8fc5" stroke-width="0.9" stroke-dasharray="5,2" d="M168.28,-91.2C179.49,-91.2 190.7,-91.2 201.1,-91.2"/>
<polygon fill="#4b8fc5" stroke="#4b8fc5" stroke-width="0.9" points="200.95,-93.13 206.45,-91.2 200.95,-89.28 200.95,-93.13"/>
</g>
</g>
</svg>
