<?xml version="1.0" encoding="UTF-8" standalone="no"?>
<!DOCTYPE svg PUBLIC "-//W3C//DTD SVG 1.1//EN"
 "http://www.w3.org/Graphics/SVG/1.1/DTD/svg11.dtd">
<!-- Generated by graphviz version 14.1.2 (0)
 -->
<!-- Title: lyon_tessellation&#45;v1.0.20 Pages: 1 -->
<svg width="457pt" height="131pt"
 viewBox="0.00 0.00 457.00 131.00" xmlns="http://www.w3.org/2000/svg" xmlns:xlink="http://www.w3.org/1999/xlink">
<g id="graph0" class="graph" transform="scale(1 1) rotate(0) translate(4 127.4)">
<title>lyon_tessellation&#45;v1.0.20</title>
<polygon fill="white" stroke="none" points="-4,4 -4,-127.4 452.91,-127.4 452.91,4 -4,4"/>
<!-- n0 -->
<g id="node1" class="node">
<title>n0</title>
<path fill="#dff3ff" stroke="#1b78a6" d="M143.22,-110.78C143.22,-110.78 12,-110.78 12,-110.78 6,-110.78 0,-104.78 0,-98.78 0,-98.78 0,-35.62 0,-35.62 0,-29.62 6,-23.62 12,-23.62 12,-23.62 143.22,-23.62 143.22,-23.62 149.22,-23.62 155.22,-29.62 155.22,-35.62 155.22,-35.62 155.22,-98.78 155.22,-98.78 155.22,-104.78 149.22,-110.78 143.22,-110.78"/>
<text xml:space="preserve" text-anchor="start" x="22.86" y="-92.23" font-family="Inter,Arial" font-weight="bold" font-size="13.00" fill="#172033">lyon_tessellation</text>
<text xml:space="preserve" text-anchor="start" x="61.11" y="-77.17" font-family="Inter,Arial" font-size="12.00" fill="#172033">1.0.20</text>
<text xml:space="preserve" text-anchor="start" x="24.36" y="-49.88" font-family="Inter,Arial" font-weight="bold" font-size="11.00" fill="#172033">float_next_after</text>
<text xml:space="preserve" text-anchor="start" x="106.11" y="-49.88" font-family="Inter,Arial" font-size="10.00" fill="#172033"> </text>
<text xml:space="preserve" text-anchor="start" x="109.11" y="-49.88" font-family="Inter,Arial" font-size="10.00" fill="#172033">1.0.0</text>
<path fill="none" stroke="#9aa8b8" d="M25.86,-36.83C25.86,-36.83 129.36,-36.83 129.36,-36.83 134.61,-36.83 139.86,-42.08 139.86,-47.33 139.86,-47.33 139.86,-57.83 139.86,-57.83 139.86,-63.08 134.61,-68.33 129.36,-68.33 129.36,-68.33 25.86,-68.33 25.86,-68.33 20.61,-68.33 15.36,-63.08 15.36,-57.83 15.36,-57.83 15.36,-47.33 15.36,-47.33 15.36,-42.08 20.61,-36.83 25.86,-36.83"/>
</g>
<!-- n1 -->
<g id="node2" class="node">
<title>n1</title>
<path fill="#f7f9fb" stroke="#8b9bb0" d="M265.69,-57.9C265.69,-57.9 207.22,-57.9 207.22,-57.9 201.22,-57.9 195.22,-51.9 195.22,-45.9 195.22,-45.9 195.22,-30.5 195.22,-30.5 195.22,-24.5 201.22,-18.5 207.22,-18.5 207.22,-18.5 265.69,-18.5 265.69,-18.5 271.69,-18.5 277.69,-24.5 277.69,-30.5 277.69,-30.5 277.69,-45.9 277.69,-45.9 277.69,-51.9 271.69,-57.9 265.69,-57.9"/>
<text xml:space="preserve" text-anchor="start" x="204.58" y="-39.35" font-family="Inter,Arial" font-weight="bold" font-size="13.00" fill="#172033">lyon_path</text>
<text xml:space="preserve" text-anchor="start" x="219.95" y="-27.3" font-family="Inter,Arial" font-size="12.00" fill="#172033">1.0.19</text>
</g>
<!-- n0&#45;&gt;n1 -->
<g id="edge1" class="edge">
<title>n0&#45;&gt;n1</title>
<path fill="none" stroke="#9aa8b8" stroke-width="0.9" d="M155.65,-52.95C166.84,-50.89 178.06,-48.81 188.41,-46.9"/>
<polygon fill="#9aa8b8" stroke="#9aa8b8" stroke-width="0.9" points="188.68,-48.81 193.74,-45.91 187.98,-45.02 188.68,-48.81"/>
</g>
<!-- out0 -->
<g id="node3" class="node">
<title>out0</title>
<polygon fill="#fff8e8" stroke="#d19922" points="441.03,-123.4 319.56,-123.4 319.56,-69 447.03,-69 447.03,-117.4 441.03,-123.4"/>
<polyline fill="none" stroke="#d19922" points="441.03,-123.4 441.03,-117.4"/>
<polyline fill="none" stroke="#d19922" points="447.03,-117.4 441.03,-117.4"/>
<text xml:space="preserve" text-anchor="start" x="334.55" y="-107.7" font-family="Inter,Arial" font-size="10.00" fill="#614000">to crab&#45;usb&#45;v0.9.1.svg</text>
<text xml:space="preserve" text-anchor="start" x="359.67" y="-97.7" font-family="Inter,Arial" font-weight="bold" font-size="10.00" fill="#614000">num&#45;traits</text>
<text xml:space="preserve" text-anchor="start" x="369.8" y="-87.7" font-family="Inter,Arial" font-size="10.00" fill="#614000">0.2.19</text>
<text xml:space="preserve" text-anchor="start" x="328.92" y="-77.7" font-family="Inter,Arial" font-size="10.00" fill="#614000">/vendor/num&#45;traits&#45;0.2.19</text>
</g>
<!-- n0&#45;&gt;out0 -->
<g id="edge3" class="edge">
<title>n0&#45;&gt;out0</title>
<path fill="none" stroke="#d19922" stroke-width="0.9" stroke-dasharray="5,2" d="M155.64,-74.56C203.87,-79.16 265.54,-85.05 312.37,-89.52"/>
<polygon fill="#d19922" stroke="#d19922" stroke-width="0.9" points="312.15,-91.44 317.81,-90.04 312.52,-87.6 312.15,-91.44"/>
</g>
<!-- n1&#45;&gt;out0 -->
<g id="edge2" class="edge">
<title>n1&#45;&gt;out0</title>
<path fill="none" stroke="#d19922" stroke-width="0.9" stroke-dasharray="5,2" d="M278.19,-54.51C289.02,-58.85 301.03,-63.66 312.93,-68.42"/>
<polygon fill="#d19922" stroke="#d19922" stroke-width="0.9" points="312.04,-70.14 317.87,-70.4 313.48,-66.57 312.04,-70.14"/>
</g>
<!-- out1 -->
<g id="node4" class="node">
<title>out1</title>
<polygon fill="#fff8e8" stroke="#d19922" points="442.91,-44.4 317.69,-44.4 317.69,0 448.91,0 448.91,-38.4 442.91,-44.4"/>
<polyline fill="none" stroke="#d19922" points="442.91,-44.4 442.91,-38.4"/>
<polyline fill="none" stroke="#d19922" points="448.91,-38.4 442.91,-38.4"/>
<text xml:space="preserve" text-anchor="start" x="327.05" y="-28.7" font-family="Inter,Arial" font-size="10.00" fill="#614000">to lyon_geom&#45;v1.0.19.svg</text>
<text xml:space="preserve" text-anchor="start" x="357.42" y="-18.7" font-family="Inter,Arial" font-weight="bold" font-size="10.00" fill="#614000">lyon_geom</text>
<text xml:space="preserve" text-anchor="start" x="369.8" y="-8.7" font-family="Inter,Arial" font-size="10.00" fill="#614000">1.0.19</text>
</g>
<!-- n1&#45;&gt;out1 -->
<g id="edge4" class="edge">
<title>n1&#45;&gt;out1</title>
<path fill="none" stroke="#d19922" stroke-width="0.9" stroke-dasharray="5,2" d="M278.19,-33.7C288.33,-32.58 299.51,-31.35 310.66,-30.11"/>
<polygon fill="#d19922" stroke="#d19922" stroke-width="0.9" points="310.6,-32.06 315.86,-29.54 310.18,-28.23 310.6,-32.06"/>
</g>
</g>
</svg>
