<?xml version="1.0" encoding="UTF-8" standalone="no"?>
<!DOCTYPE svg PUBLIC "-//W3C//DTD SVG 1.1//EN"
 "http://www.w3.org/Graphics/SVG/1.1/DTD/svg11.dtd">
<!-- Generated by graphviz version 14.1.2 (0)
 -->
<!-- Title: lyon_geom&#45;v1.0.19 Pages: 1 -->
<svg width="432pt" height="179pt"
 viewBox="0.00 0.00 432.00 179.00" xmlns="http://www.w3.org/2000/svg" xmlns:xlink="http://www.w3.org/1999/xlink">
<g id="graph0" class="graph" transform="scale(1 1) rotate(0) translate(4 175.2)">
<title>lyon_geom&#45;v1.0.19</title>
<polygon fill="white" stroke="none" points="-4,4 -4,-175.2 428.31,-175.2 428.31,4 -4,4"/>
<!-- n0 -->
<g id="node1" class="node">
<title>n0</title>
<path fill="#dff3ff" stroke="#1b78a6" d="M252.04,-98.6C252.04,-98.6 212.77,-98.6 212.77,-98.6 206.77,-98.6 200.77,-92.6 200.77,-86.6 200.77,-86.6 200.77,-74.6 200.77,-74.6 200.77,-68.6 206.77,-62.6 212.77,-62.6 212.77,-62.6 252.04,-62.6 252.04,-62.6 258.04,-62.6 264.04,-68.6 264.04,-74.6 264.04,-74.6 264.04,-86.6 264.04,-86.6 264.04,-92.6 258.04,-98.6 252.04,-98.6"/>
<text xml:space="preserve" text-anchor="start" x="206.53" y="-82.1" font-family="Inter,Arial" font-weight="bold" font-size="10.00" fill="#172033">lyon_geom</text>
<text xml:space="preserve" text-anchor="start" x="218.9" y="-72.1" font-family="Inter,Arial" font-size="10.00" fill="#172033">1.0.19</text>
</g>
<!-- out0 -->
<g id="node2" class="node">
<title>out0</title>
<polygon fill="#fff8e8" stroke="#d19922" points="418.31,-171.2 304.04,-171.2 304.04,-124 424.31,-124 424.31,-165.2 418.31,-171.2"/>
<polyline fill="none" stroke="#d19922" points="418.31,-171.2 418.31,-165.2"/>
<polyline fill="none" stroke="#d19922" points="424.31,-165.2 418.31,-165.2"/>
<text xml:space="preserve" text-anchor="start" x="315.42" y="-159.1" font-family="Inter,Arial" font-size="10.00" fill="#614000">to crab&#45;usb&#45;v0.9.1.svg</text>
<text xml:space="preserve" text-anchor="start" x="340.55" y="-149.1" font-family="Inter,Arial" font-weight="bold" font-size="10.00" fill="#614000">num&#45;traits</text>
<text xml:space="preserve" text-anchor="start" x="350.67" y="-139.1" font-family="Inter,Arial" font-size="10.00" fill="#614000">0.2.19</text>
<text xml:space="preserve" text-anchor="start" x="309.8" y="-129.1" font-family="Inter,Arial" font-size="10.00" fill="#614000">/vendor/num&#45;traits&#45;0.2.19</text>
</g>
<!-- n0&#45;&gt;out0 -->
<g id="edge1" class="edge">
<title>n0&#45;&gt;out0</title>
<path fill="none" stroke="#d19922" stroke-width="0.9" stroke-dasharray="5,2" d="M264.49,-96.65C278.38,-103.82 295.14,-112.47 310.87,-120.59"/>
<polygon fill="#d19922" stroke="#d19922" stroke-width="0.9" points="309.63,-122.12 315.4,-122.93 311.4,-118.7 309.63,-122.12"/>
</g>
<!-- out1 -->
<g id="node3" class="node">
<title>out1</title>
<polygon fill="#fff8e8" stroke="#d19922" points="411.93,-99.2 310.41,-99.2 310.41,-62 417.93,-62 417.93,-93.2 411.93,-99.2"/>
<polyline fill="none" stroke="#d19922" points="411.93,-99.2 411.93,-93.2"/>
<polyline fill="none" stroke="#d19922" points="417.93,-93.2 411.93,-93.2"/>
<text xml:space="preserve" text-anchor="start" x="316.17" y="-87.1" font-family="Inter,Arial" font-size="10.00" fill="#614000">to euclid&#45;v0.22.13.svg</text>
<text xml:space="preserve" text-anchor="start" x="349.92" y="-77.1" font-family="Inter,Arial" font-weight="bold" font-size="10.00" fill="#614000">euclid</text>
<text xml:space="preserve" text-anchor="start" x="348.05" y="-67.1" font-family="Inter,Arial" font-size="10.00" fill="#614000">0.22.13</text>
</g>
<!-- n0&#45;&gt;out1 -->
<g id="edge2" class="edge">
<title>n0&#45;&gt;out1</title>
<path fill="none" stroke="#d19922" stroke-width="0.9" stroke-dasharray="5,2" d="M264.49,-80.6C276.22,-80.6 289.99,-80.6 303.46,-80.6"/>
<polygon fill="#d19922" stroke="#d19922" stroke-width="0.9" points="303.18,-82.53 308.68,-80.6 303.18,-78.68 303.18,-82.53"/>
</g>
<!-- out2 -->
<g id="node4" class="node">
<title>out2</title>
<polygon fill="#fff8e8" stroke="#d19922" points="408.18,-37.2 314.16,-37.2 314.16,0 414.18,0 414.18,-31.2 408.18,-37.2"/>
<polyline fill="none" stroke="#d19922" points="408.18,-37.2 408.18,-31.2"/>
<polyline fill="none" stroke="#d19922" points="414.18,-31.2 408.18,-31.2"/>
<text xml:space="preserve" text-anchor="start" x="319.92" y="-25.1" font-family="Inter,Arial" font-size="10.00" fill="#614000">to kurbo&#45;v0.11.3.svg</text>
<text xml:space="preserve" text-anchor="start" x="344.67" y="-15.1" font-family="Inter,Arial" font-weight="bold" font-size="10.00" fill="#614000">arrayvec</text>
<text xml:space="preserve" text-anchor="start" x="353.3" y="-5.1" font-family="Inter,Arial" font-size="10.00" fill="#614000">0.7.6</text>
</g>
<!-- n0&#45;&gt;out2 -->
<g id="edge3" class="edge">
<title>n0&#45;&gt;out2</title>
<path fill="none" stroke="#d19922" stroke-width="0.9" stroke-dasharray="5,2" d="M264.49,-65.75C280.39,-58.15 300.04,-48.76 317.62,-40.37"/>
<polygon fill="#d19922" stroke="#d19922" stroke-width="0.9" points="318.13,-42.26 322.26,-38.15 316.47,-38.78 318.13,-42.26"/>
</g>
<!-- in3 -->
<g id="node5" class="node">
<title>in3</title>
<polygon fill="#eef6ff" stroke="#4b8fc5" points="154.77,-99.2 0,-99.2 0,-62 160.77,-62 160.77,-93.2 154.77,-99.2"/>
<polyline fill="none" stroke="#4b8fc5" points="154.77,-99.2 154.77,-93.2"/>
<polyline fill="none" stroke="#4b8fc5" points="160.77,-93.2 154.77,-93.2"/>
<text xml:space="preserve" text-anchor="start" x="5.76" y="-87.1" font-family="Inter,Arial" font-size="10.00" fill="#123d5c">from lyon_tessellation&#45;v1.0.20.svg</text>
<text xml:space="preserve" text-anchor="start" x="54.51" y="-77.1" font-family="Inter,Arial" font-weight="bold" font-size="10.00" fill="#123d5c">lyon_geom</text>
<text xml:space="preserve" text-anchor="start" x="66.88" y="-67.1" font-family="Inter,Arial" font-size="10.00" fill="#123d5c">1.0.19</text>
</g>
<!-- in3&#45;&gt;n0 -->
<g id="edge4" class="edge">
<title>in3&#45;&gt;n0</title>
<path fill="none" stroke="#4b8fc5" stroke-width="0.9" stroke-dasharray="5,2" d="M161.23,-80.6C172.6,-80.6 183.82,-80.6 193.84,-80.6"/>
<polygon fill="#4b8fc5" stroke="#4b8fc5" stroke-width="0.9" points="193.71,-82.53 199.21,-80.6 193.71,-78.68 193.71,-82.53"/>
</g>
</g>
</svg>
