<?xml version="1.0" encoding="UTF-8" standalone="no"?>
<!DOCTYPE svg PUBLIC "-//W3C//DTD SVG 1.1//EN"
 "http://www.w3.org/Graphics/SVG/1.1/DTD/svg11.dtd">
<!-- Generated by graphviz version 14.1.2 (0)
 -->
<!-- Title: lyon_tessellation&#45;v1.0.20 Pages: 1 -->
<svg width="373pt" height="117pt"
 viewBox="0.00 0.00 373.00 117.00" xmlns="http://www.w3.org/2000/svg" xmlns:xlink="http://www.w3.org/1999/xlink">
<g id="graph0" class="graph" transform="scale(1 1) rotate(0) translate(4 113.2)">
<title>lyon_tessellation&#45;v1.0.20</title>
<polygon fill="white" stroke="none" points="-4,4 -4,-113.2 369.31,-113.2 369.31,4 -4,4"/>
<!-- n0 -->
<g id="node1" class="node">
<title>n0</title>
<path fill="#dff3ff" stroke="#1b78a6" d="M92.02,-83.08C92.02,-83.08 12,-83.08 12,-83.08 6,-83.08 0,-77.08 0,-71.08 0,-71.08 0,-44.12 0,-44.12 0,-38.12 6,-32.12 12,-32.12 12,-32.12 92.02,-32.12 92.02,-32.12 98.02,-32.12 104.02,-38.12 104.02,-44.12 104.02,-44.12 104.02,-71.08 104.02,-71.08 104.02,-77.08 98.02,-83.08 92.02,-83.08"/>
<text xml:space="preserve" text-anchor="start" x="12.63" y="-70.97" font-family="Inter,Arial" font-weight="bold" font-size="10.00" fill="#172033">lyon_tessellation</text>
<text xml:space="preserve" text-anchor="start" x="38.51" y="-57.97" font-family="Inter,Arial" font-size="10.00" fill="#172033">1.0.20</text>
<text xml:space="preserve" text-anchor="start" x="10.76" y="-43.88" font-family="Inter,Arial" font-weight="bold" font-size="8.00" fill="#172033">float_next_after</text>
<text xml:space="preserve" text-anchor="start" x="73.01" y="-43.88" font-family="Inter,Arial" font-size="8.00" fill="#172033"> 1.0.0</text>
<path fill="none" stroke="#9aa8b8" d="M12.34,-35.73C12.34,-35.73 91.68,-35.73 91.68,-35.73 94.97,-35.73 98.26,-39.02 98.26,-42.31 98.26,-42.31 98.26,-48.89 98.26,-48.89 98.26,-52.18 94.97,-55.48 91.68,-55.48 91.68,-55.48 12.34,-55.48 12.34,-55.48 9.05,-55.48 5.76,-52.18 5.76,-48.89 5.76,-48.89 5.76,-42.31 5.76,-42.31 5.76,-39.02 9.05,-35.73 12.34,-35.73"/>
</g>
<!-- n1 -->
<g id="node2" class="node">
<title>n1</title>
<path fill="#f7f9fb" stroke="#8b9bb0" d="M189.29,-47.6C189.29,-47.6 156.02,-47.6 156.02,-47.6 150.02,-47.6 144.02,-41.6 144.02,-35.6 144.02,-35.6 144.02,-23.6 144.02,-23.6 144.02,-17.6 150.02,-11.6 156.02,-11.6 156.02,-11.6 189.29,-11.6 189.29,-11.6 195.29,-11.6 201.29,-17.6 201.29,-23.6 201.29,-23.6 201.29,-35.6 201.29,-35.6 201.29,-41.6 195.29,-47.6 189.29,-47.6"/>
<text xml:space="preserve" text-anchor="start" x="149.78" y="-31.1" font-family="Inter,Arial" font-weight="bold" font-size="10.00" fill="#172033">lyon_path</text>
<text xml:space="preserve" text-anchor="start" x="159.15" y="-21.1" font-family="Inter,Arial" font-size="10.00" fill="#172033">1.0.19</text>
</g>
<!-- n0&#45;&gt;n1 -->
<g id="edge1" class="edge">
<title>n0&#45;&gt;n1</title>
<path fill="none" stroke="#9aa8b8" stroke-width="0.9" d="M104.36,-45.48C115.46,-42.86 126.93,-40.15 137.2,-37.73"/>
<polygon fill="#9aa8b8" stroke="#9aa8b8" stroke-width="0.9" points="137.51,-39.64 142.42,-36.5 136.63,-35.89 137.51,-39.64"/>
</g>
<!-- out0 -->
<g id="node3" class="node">
<title>out0</title>
<polygon fill="#fff8e8" stroke="#d19922" points="357.43,-109.2 243.16,-109.2 243.16,-62 363.43,-62 363.43,-103.2 357.43,-109.2"/>
<polyline fill="none" stroke="#d19922" points="357.43,-109.2 357.43,-103.2"/>
<polyline fill="none" stroke="#d19922" points="363.43,-103.2 357.43,-103.2"/>
<text xml:space="preserve" text-anchor="start" x="254.55" y="-97.1" font-family="Inter,Arial" font-size="10.00" fill="#614000">to crab&#45;usb&#45;v0.9.1.svg</text>
<text xml:space="preserve" text-anchor="start" x="279.67" y="-87.1" font-family="Inter,Arial" font-weight="bold" font-size="10.00" fill="#614000">num&#45;traits</text>
<text xml:space="preserve" text-anchor="start" x="289.8" y="-77.1" font-family="Inter,Arial" font-size="10.00" fill="#614000">0.2.19</text>
<text xml:space="preserve" text-anchor="start" x="248.92" y="-67.1" font-family="Inter,Arial" font-size="10.00" fill="#614000">/vendor/num&#45;traits&#45;0.2.19</text>
</g>
<!-- n0&#45;&gt;out0 -->
<g id="edge3" class="edge">
<title>n0&#45;&gt;out0</title>
<path fill="none" stroke="#d19922" stroke-width="0.9" stroke-dasharray="5,2" d="M104.36,-63.37C142.44,-67.64 194.66,-73.51 235.91,-78.14"/>
<polygon fill="#d19922" stroke="#d19922" stroke-width="0.9" points="235.65,-80.05 241.34,-78.75 236.08,-76.23 235.65,-80.05"/>
</g>
<!-- n1&#45;&gt;out0 -->
<g id="edge2" class="edge">
<title>n1&#45;&gt;out0</title>
<path fill="none" stroke="#d19922" stroke-width="0.9" stroke-dasharray="5,2" d="M201.57,-41.75C213.1,-46.77 226.97,-52.81 240.67,-58.77"/>
<polygon fill="#d19922" stroke="#d19922" stroke-width="0.9" points="239.88,-60.53 245.69,-60.96 241.42,-57 239.88,-60.53"/>
</g>
<!-- out1 -->
<g id="node4" class="node">
<title>out1</title>
<polygon fill="#fff8e8" stroke="#d19922" points="359.31,-37.2 241.29,-37.2 241.29,0 365.31,0 365.31,-31.2 359.31,-37.2"/>
<polyline fill="none" stroke="#d19922" points="359.31,-37.2 359.31,-31.2"/>
<polyline fill="none" stroke="#d19922" points="365.31,-31.2 359.31,-31.2"/>
<text xml:space="preserve" text-anchor="start" x="247.05" y="-25.1" font-family="Inter,Arial" font-size="10.00" fill="#614000">to lyon_geom&#45;v1.0.19.svg</text>
<text xml:space="preserve" text-anchor="start" x="277.42" y="-15.1" font-family="Inter,Arial" font-weight="bold" font-size="10.00" fill="#614000">lyon_geom</text>
<text xml:space="preserve" text-anchor="start" x="289.8" y="-5.1" font-family="Inter,Arial" font-size="10.00" fill="#614000">1.0.19</text>
</g>
<!-- n1&#45;&gt;out1 -->
<g id="edge4" class="edge">
<title>n1&#45;&gt;out1</title>
<path fill="none" stroke="#d19922" stroke-width="0.9" stroke-dasharray="5,2" d="M201.57,-27.21C211.27,-26.38 222.61,-25.41 234.12,-24.43"/>
<polygon fill="#d19922" stroke="#d19922" stroke-width="0.9" points="234.23,-26.35 239.55,-23.97 233.91,-22.52 234.23,-26.35"/>
</g>
</g>
</svg>
