<?xml version="1.0" encoding="UTF-8" standalone="no"?>
<!DOCTYPE svg PUBLIC "-//W3C//DTD SVG 1.1//EN"
 "http://www.w3.org/Graphics/SVG/1.1/DTD/svg11.dtd">
<!-- Generated by graphviz version 14.1.2 (0)
 -->
<!-- Title: lzma&#45;rust2&#45;v0.16.2 Pages: 1 -->
<svg width="68pt" height="44pt"
 viewBox="0.00 0.00 68.00 44.00" xmlns="http://www.w3.org/2000/svg" xmlns:xlink="http://www.w3.org/1999/xlink">
<g id="graph0" class="graph" transform="scale(1 1) rotate(0) translate(4 40)">
<title>lzma&#45;rust2&#45;v0.16.2</title>
<polygon fill="white" stroke="none" points="-4,4 -4,-40 64.27,-40 64.27,4 -4,4"/>
<!-- n0 -->
<g id="node1" class="node">
<title>n0</title>
<path fill="#dff3ff" stroke="#1b78a6" d="M48.27,-36C48.27,-36 12,-36 12,-36 6,-36 0,-30 0,-24 0,-24 0,-12 0,-12 0,-6 6,0 12,0 12,0 48.27,0 48.27,0 54.27,0 60.27,-6 60.27,-12 60.27,-12 60.27,-24 60.27,-24 60.27,-30 54.27,-36 48.27,-36"/>
<text xml:space="preserve" text-anchor="start" x="5.76" y="-19.5" font-family="Inter,Arial" font-weight="bold" font-size="10.00" fill="#172033">lzma&#45;rust2</text>
<text xml:space="preserve" text-anchor="start" x="16.63" y="-9.5" font-family="Inter,Arial" font-size="10.00" fill="#172033">0.16.2</text>
</g>
</g>
</svg>
