<?xml version="1.0" encoding="UTF-8" standalone="no"?>
<!DOCTYPE svg PUBLIC "-//W3C//DTD SVG 1.1//EN"
 "http://www.w3.org/Graphics/SVG/1.1/DTD/svg11.dtd">
<!-- Generated by graphviz version 14.1.2 (0)
 -->
<!-- Title: lzma&#45;rust2&#45;v0.16.4 Pages: 1 -->
<svg width="93pt" height="47pt"
 viewBox="0.00 0.00 93.00 47.00" xmlns="http://www.w3.org/2000/svg" xmlns:xlink="http://www.w3.org/1999/xlink">
<g id="graph0" class="graph" transform="scale(1 1) rotate(0) translate(4 43.4)">
<title>lzma&#45;rust2&#45;v0.16.4</title>
<polygon fill="white" stroke="none" points="-4,4 -4,-43.4 89.47,-43.4 89.47,4 -4,4"/>
<!-- n0 -->
<g id="node1" class="node">
<title>n0</title>
<path fill="#dff3ff" stroke="#1b78a6" d="M73.47,-39.4C73.47,-39.4 12,-39.4 12,-39.4 6,-39.4 0,-33.4 0,-27.4 0,-27.4 0,-12 0,-12 0,-6 6,0 12,0 12,0 73.47,0 73.47,0 79.47,0 85.47,-6 85.47,-12 85.47,-12 85.47,-27.4 85.47,-27.4 85.47,-33.4 79.47,-39.4 73.47,-39.4"/>
<text xml:space="preserve" text-anchor="start" x="9.36" y="-20.85" font-family="Inter,Arial" font-weight="bold" font-size="13.00" fill="#172033">lzma&#45;rust2</text>
<text xml:space="preserve" text-anchor="start" x="26.23" y="-8.8" font-family="Inter,Arial" font-size="12.00" fill="#172033">0.16.4</text>
</g>
</g>
</svg>
