<?xml version="1.0" encoding="UTF-8" standalone="no"?>
<!DOCTYPE svg PUBLIC "-//W3C//DTD SVG 1.1//EN"
 "http://www.w3.org/Graphics/SVG/1.1/DTD/svg11.dtd">
<!-- Generated by graphviz version 14.1.2 (0)
 -->
<!-- Title: memchr&#45;v2.8.0 Pages: 1 -->
<svg width="265pt" height="190pt"
 viewBox="0.00 0.00 265.00 190.00" xmlns="http://www.w3.org/2000/svg" xmlns:xlink="http://www.w3.org/1999/xlink">
<g id="graph0" class="graph" transform="scale(1 1) rotate(0) translate(4 186.4)">
<title>memchr&#45;v2.8.0</title>
<polygon fill="white" stroke="none" points="-4,4 -4,-186.4 261.44,-186.4 261.44,4 -4,4"/>
<!-- n0 -->
<g id="node1" class="node">
<title>n0</title>
<path fill="#dff3ff" stroke="#1b78a6" d="M245.44,-110.9C245.44,-110.9 199.72,-110.9 199.72,-110.9 193.72,-110.9 187.72,-104.9 187.72,-98.9 187.72,-98.9 187.72,-83.5 187.72,-83.5 187.72,-77.5 193.72,-71.5 199.72,-71.5 199.72,-71.5 245.44,-71.5 245.44,-71.5 251.44,-71.5 257.44,-77.5 257.44,-83.5 257.44,-83.5 257.44,-98.9 257.44,-98.9 257.44,-104.9 251.44,-110.9 245.44,-110.9"/>
<text xml:space="preserve" text-anchor="start" x="197.08" y="-92.35" font-family="Inter,Arial" font-weight="bold" font-size="13.00" fill="#172033">memchr</text>
<text xml:space="preserve" text-anchor="start" x="209.45" y="-80.3" font-family="Inter,Arial" font-size="12.00" fill="#172033">2.8.0</text>
</g>
<!-- in0 -->
<g id="node2" class="node">
<title>in0</title>
<polygon fill="#eef6ff" stroke="#4b8fc5" points="124.84,-182.4 16.88,-182.4 16.88,-138 130.84,-138 130.84,-176.4 124.84,-182.4"/>
<polyline fill="none" stroke="#4b8fc5" points="124.84,-182.4 124.84,-176.4"/>
<polyline fill="none" stroke="#4b8fc5" points="130.84,-176.4 124.84,-176.4"/>
<text xml:space="preserve" text-anchor="start" x="26.24" y="-166.7" font-family="Inter,Arial" font-size="10.00" fill="#123d5c">from core3&#45;v0.1.2.svg</text>
<text xml:space="preserve" text-anchor="start" x="54.74" y="-156.7" font-family="Inter,Arial" font-weight="bold" font-size="10.00" fill="#123d5c">memchr</text>
<text xml:space="preserve" text-anchor="start" x="62.99" y="-146.7" font-family="Inter,Arial" font-size="10.00" fill="#123d5c">2.8.0</text>
</g>
<!-- in0&#45;&gt;n0 -->
<g id="edge1" class="edge">
<title>in0&#45;&gt;n0</title>
<path fill="none" stroke="#4b8fc5" stroke-width="0.9" stroke-dasharray="5,2" d="M123.48,-137.56C131.58,-133.78 139.89,-129.88 147.72,-126.2 158.66,-121.05 170.5,-115.46 181.43,-110.28"/>
<polygon fill="#4b8fc5" stroke="#4b8fc5" stroke-width="0.9" points="182.03,-112.13 186.17,-108.03 180.38,-108.65 182.03,-112.13"/>
</g>
<!-- in1 -->
<g id="node3" class="node">
<title>in1</title>
<polygon fill="#eef6ff" stroke="#4b8fc5" points="141.72,-113.4 0,-113.4 0,-69 147.72,-69 147.72,-107.4 141.72,-113.4"/>
<polyline fill="none" stroke="#4b8fc5" points="141.72,-113.4 141.72,-107.4"/>
<polyline fill="none" stroke="#4b8fc5" points="147.72,-107.4 141.72,-107.4"/>
<text xml:space="preserve" text-anchor="start" x="9.36" y="-97.7" font-family="Inter,Arial" font-size="10.00" fill="#123d5c">from serde_json&#45;v1.0.149.svg</text>
<text xml:space="preserve" text-anchor="start" x="54.74" y="-87.7" font-family="Inter,Arial" font-weight="bold" font-size="10.00" fill="#123d5c">memchr</text>
<text xml:space="preserve" text-anchor="start" x="62.99" y="-77.7" font-family="Inter,Arial" font-size="10.00" fill="#123d5c">2.8.0</text>
</g>
<!-- in1&#45;&gt;n0 -->
<g id="edge2" class="edge">
<title>in1&#45;&gt;n0</title>
<path fill="none" stroke="#4b8fc5" stroke-width="0.9" stroke-dasharray="5,2" d="M148.22,-91.2C159.4,-91.2 170.57,-91.2 180.71,-91.2"/>
<polygon fill="#4b8fc5" stroke="#4b8fc5" stroke-width="0.9" points="180.69,-93.13 186.19,-91.2 180.69,-89.28 180.69,-93.13"/>
</g>
<!-- in2 -->
<g id="node4" class="node">
<title>in2</title>
<polygon fill="#eef6ff" stroke="#4b8fc5" points="129.72,-44.4 12,-44.4 12,0 135.72,0 135.72,-38.4 129.72,-44.4"/>
<polyline fill="none" stroke="#4b8fc5" points="129.72,-44.4 129.72,-38.4"/>
<polyline fill="none" stroke="#4b8fc5" points="135.72,-38.4 129.72,-38.4"/>
<text xml:space="preserve" text-anchor="start" x="21.36" y="-28.7" font-family="Inter,Arial" font-size="10.00" fill="#123d5c">from twoway&#45;v0.2.2.svg</text>
<text xml:space="preserve" text-anchor="start" x="54.74" y="-18.7" font-family="Inter,Arial" font-weight="bold" font-size="10.00" fill="#123d5c">memchr</text>
<text xml:space="preserve" text-anchor="start" x="62.99" y="-8.7" font-family="Inter,Arial" font-size="10.00" fill="#123d5c">2.8.0</text>
</g>
<!-- in2&#45;&gt;n0 -->
<g id="edge3" class="edge">
<title>in2&#45;&gt;n0</title>
<path fill="none" stroke="#4b8fc5" stroke-width="0.9" stroke-dasharray="5,2" d="M123.48,-44.84C131.58,-48.62 139.89,-52.52 147.72,-56.2 158.66,-61.35 170.5,-66.94 181.43,-72.12"/>
<polygon fill="#4b8fc5" stroke="#4b8fc5" stroke-width="0.9" points="180.38,-73.75 186.17,-74.37 182.03,-70.27 180.38,-73.75"/>
</g>
</g>
</svg>
