<?xml version="1.0" encoding="UTF-8" standalone="no"?>
<!DOCTYPE svg PUBLIC "-//W3C//DTD SVG 1.1//EN"
 "http://www.w3.org/Graphics/SVG/1.1/DTD/svg11.dtd">
<!-- Generated by graphviz version 14.1.2 (0)
 -->
<!-- Title: memchr&#45;v2.8.0 Pages: 1 -->
<svg width="243pt" height="169pt"
 viewBox="0.00 0.00 243.00 169.00" xmlns="http://www.w3.org/2000/svg" xmlns:xlink="http://www.w3.org/1999/xlink">
<g id="graph0" class="graph" transform="scale(1 1) rotate(0) translate(4 165.2)">
<title>memchr&#45;v2.8.0</title>
<polygon fill="white" stroke="none" points="-4,4 -4,-165.2 238.52,-165.2 238.52,4 -4,4"/>
<!-- n0 -->
<g id="node1" class="node">
<title>n0</title>
<path fill="#dff3ff" stroke="#1b78a6" d="M222.52,-98.6C222.52,-98.6 192.52,-98.6 192.52,-98.6 186.52,-98.6 180.52,-92.6 180.52,-86.6 180.52,-86.6 180.52,-74.6 180.52,-74.6 180.52,-68.6 186.52,-62.6 192.52,-62.6 192.52,-62.6 222.52,-62.6 222.52,-62.6 228.52,-62.6 234.52,-68.6 234.52,-74.6 234.52,-74.6 234.52,-86.6 234.52,-86.6 234.52,-92.6 228.52,-98.6 222.52,-98.6"/>
<text xml:space="preserve" text-anchor="start" x="188.39" y="-82.1" font-family="Inter,Arial" font-weight="bold" font-size="10.00" fill="#172033">memchr</text>
<text xml:space="preserve" text-anchor="start" x="196.64" y="-72.1" font-family="Inter,Arial" font-size="10.00" fill="#172033">2.8.0</text>
</g>
<!-- in0 -->
<g id="node2" class="node">
<title>in0</title>
<polygon fill="#eef6ff" stroke="#4b8fc5" points="117.64,-161.2 16.87,-161.2 16.87,-124 123.64,-124 123.64,-155.2 117.64,-161.2"/>
<polyline fill="none" stroke="#4b8fc5" points="117.64,-161.2 117.64,-155.2"/>
<polyline fill="none" stroke="#4b8fc5" points="123.64,-155.2 117.64,-155.2"/>
<text xml:space="preserve" text-anchor="start" x="22.63" y="-149.1" font-family="Inter,Arial" font-size="10.00" fill="#123d5c">from core3&#45;v0.1.2.svg</text>
<text xml:space="preserve" text-anchor="start" x="51.13" y="-139.1" font-family="Inter,Arial" font-weight="bold" font-size="10.00" fill="#123d5c">memchr</text>
<text xml:space="preserve" text-anchor="start" x="59.38" y="-129.1" font-family="Inter,Arial" font-size="10.00" fill="#123d5c">2.8.0</text>
</g>
<!-- in0&#45;&gt;n0 -->
<g id="edge1" class="edge">
<title>in0&#45;&gt;n0</title>
<path fill="none" stroke="#4b8fc5" stroke-width="0.9" stroke-dasharray="5,2" d="M114.17,-123.54C122.9,-119.62 132.02,-115.5 140.52,-111.6 151.49,-106.57 163.43,-100.99 174.11,-95.97"/>
<polygon fill="#4b8fc5" stroke="#4b8fc5" stroke-width="0.9" points="174.85,-97.75 179,-93.66 173.21,-94.26 174.85,-97.75"/>
</g>
<!-- in1 -->
<g id="node3" class="node">
<title>in1</title>
<polygon fill="#eef6ff" stroke="#4b8fc5" points="134.52,-99.2 0,-99.2 0,-62 140.52,-62 140.52,-93.2 134.52,-99.2"/>
<polyline fill="none" stroke="#4b8fc5" points="134.52,-99.2 134.52,-93.2"/>
<polyline fill="none" stroke="#4b8fc5" points="140.52,-93.2 134.52,-93.2"/>
<text xml:space="preserve" text-anchor="start" x="5.76" y="-87.1" font-family="Inter,Arial" font-size="10.00" fill="#123d5c">from serde_json&#45;v1.0.149.svg</text>
<text xml:space="preserve" text-anchor="start" x="51.13" y="-77.1" font-family="Inter,Arial" font-weight="bold" font-size="10.00" fill="#123d5c">memchr</text>
<text xml:space="preserve" text-anchor="start" x="59.38" y="-67.1" font-family="Inter,Arial" font-size="10.00" fill="#123d5c">2.8.0</text>
</g>
<!-- in1&#45;&gt;n0 -->
<g id="edge2" class="edge">
<title>in1&#45;&gt;n0</title>
<path fill="none" stroke="#4b8fc5" stroke-width="0.9" stroke-dasharray="5,2" d="M140.87,-80.6C152.23,-80.6 163.52,-80.6 173.44,-80.6"/>
<polygon fill="#4b8fc5" stroke="#4b8fc5" stroke-width="0.9" points="173.22,-82.53 178.72,-80.6 173.22,-78.68 173.22,-82.53"/>
</g>
<!-- in2 -->
<g id="node4" class="node">
<title>in2</title>
<polygon fill="#eef6ff" stroke="#4b8fc5" points="122.52,-37.2 12,-37.2 12,0 128.52,0 128.52,-31.2 122.52,-37.2"/>
<polyline fill="none" stroke="#4b8fc5" points="122.52,-37.2 122.52,-31.2"/>
<polyline fill="none" stroke="#4b8fc5" points="128.52,-31.2 122.52,-31.2"/>
<text xml:space="preserve" text-anchor="start" x="17.76" y="-25.1" font-family="Inter,Arial" font-size="10.00" fill="#123d5c">from twoway&#45;v0.2.2.svg</text>
<text xml:space="preserve" text-anchor="start" x="51.13" y="-15.1" font-family="Inter,Arial" font-weight="bold" font-size="10.00" fill="#123d5c">memchr</text>
<text xml:space="preserve" text-anchor="start" x="59.38" y="-5.1" font-family="Inter,Arial" font-size="10.00" fill="#123d5c">2.8.0</text>
</g>
<!-- in2&#45;&gt;n0 -->
<g id="edge3" class="edge">
<title>in2&#45;&gt;n0</title>
<path fill="none" stroke="#4b8fc5" stroke-width="0.9" stroke-dasharray="5,2" d="M114.17,-37.66C122.9,-41.58 132.02,-45.7 140.52,-49.6 151.49,-54.63 163.43,-60.21 174.11,-65.23"/>
<polygon fill="#4b8fc5" stroke="#4b8fc5" stroke-width="0.9" points="173.21,-66.94 179,-67.54 174.85,-63.45 173.21,-66.94"/>
</g>
</g>
</svg>
