<?xml version="1.0" encoding="UTF-8" standalone="no"?>
<!DOCTYPE svg PUBLIC "-//W3C//DTD SVG 1.1//EN"
 "http://www.w3.org/Graphics/SVG/1.1/DTD/svg11.dtd">
<!-- Generated by graphviz version 14.1.2 (0)
 -->
<!-- Title: memchr&#45;v2.8.2 Pages: 1 -->
<svg width="265pt" height="121pt"
 viewBox="0.00 0.00 265.00 121.00" xmlns="http://www.w3.org/2000/svg" xmlns:xlink="http://www.w3.org/1999/xlink">
<g id="graph0" class="graph" transform="scale(1 1) rotate(0) translate(4 117.4)">
<title>memchr&#45;v2.8.2</title>
<polygon fill="white" stroke="none" points="-4,4 -4,-117.4 261.44,-117.4 261.44,4 -4,4"/>
<!-- n0 -->
<g id="node1" class="node">
<title>n0</title>
<path fill="#dff3ff" stroke="#1b78a6" d="M245.44,-75.9C245.44,-75.9 199.72,-75.9 199.72,-75.9 193.72,-75.9 187.72,-69.9 187.72,-63.9 187.72,-63.9 187.72,-48.5 187.72,-48.5 187.72,-42.5 193.72,-36.5 199.72,-36.5 199.72,-36.5 245.44,-36.5 245.44,-36.5 251.44,-36.5 257.44,-42.5 257.44,-48.5 257.44,-48.5 257.44,-63.9 257.44,-63.9 257.44,-69.9 251.44,-75.9 245.44,-75.9"/>
<text xml:space="preserve" text-anchor="start" x="197.08" y="-57.35" font-family="Inter,Arial" font-weight="bold" font-size="13.00" fill="#172033">memchr</text>
<text xml:space="preserve" text-anchor="start" x="209.45" y="-45.3" font-family="Inter,Arial" font-size="12.00" fill="#172033">2.8.2</text>
</g>
<!-- in0 -->
<g id="node2" class="node">
<title>in0</title>
<polygon fill="#eef6ff" stroke="#4b8fc5" points="124.84,-113.4 16.88,-113.4 16.88,-69 130.84,-69 130.84,-107.4 124.84,-113.4"/>
<polyline fill="none" stroke="#4b8fc5" points="124.84,-113.4 124.84,-107.4"/>
<polyline fill="none" stroke="#4b8fc5" points="130.84,-107.4 124.84,-107.4"/>
<text xml:space="preserve" text-anchor="start" x="26.24" y="-97.7" font-family="Inter,Arial" font-size="10.00" fill="#123d5c">from core3&#45;v0.1.2.svg</text>
<text xml:space="preserve" text-anchor="start" x="54.74" y="-87.7" font-family="Inter,Arial" font-weight="bold" font-size="10.00" fill="#123d5c">memchr</text>
<text xml:space="preserve" text-anchor="start" x="62.99" y="-77.7" font-family="Inter,Arial" font-size="10.00" fill="#123d5c">2.8.2</text>
</g>
<!-- in0&#45;&gt;n0 -->
<g id="edge1" class="edge">
<title>in0&#45;&gt;n0</title>
<path fill="none" stroke="#4b8fc5" stroke-width="7.2" stroke-dasharray="5,2" d="M131.17,-77.77C145.79,-74.28 161.38,-70.56 175.41,-67.21"/>
<polygon fill="#4b8fc5" stroke="#4b8fc5" stroke-width="7.2" points="176.17,-70.59 180.72,-65.95 174.56,-63.85 176.17,-70.59"/>
</g>
<!-- in1 -->
<g id="node3" class="node">
<title>in1</title>
<polygon fill="#eef6ff" stroke="#4b8fc5" points="141.72,-44.4 0,-44.4 0,0 147.72,0 147.72,-38.4 141.72,-44.4"/>
<polyline fill="none" stroke="#4b8fc5" points="141.72,-44.4 141.72,-38.4"/>
<polyline fill="none" stroke="#4b8fc5" points="147.72,-38.4 141.72,-38.4"/>
<text xml:space="preserve" text-anchor="start" x="9.36" y="-28.7" font-family="Inter,Arial" font-size="10.00" fill="#123d5c">from serde_json&#45;v1.0.150.svg</text>
<text xml:space="preserve" text-anchor="start" x="54.74" y="-18.7" font-family="Inter,Arial" font-weight="bold" font-size="10.00" fill="#123d5c">memchr</text>
<text xml:space="preserve" text-anchor="start" x="62.99" y="-8.7" font-family="Inter,Arial" font-size="10.00" fill="#123d5c">2.8.2</text>
</g>
<!-- in1&#45;&gt;n0 -->
<g id="edge2" class="edge">
<title>in1&#45;&gt;n0</title>
<path fill="none" stroke="#4b8fc5" stroke-width="7.2" stroke-dasharray="5,2" d="M148.22,-39.2C157.57,-41.37 166.92,-43.53 175.66,-45.56"/>
<polygon fill="#4b8fc5" stroke="#4b8fc5" stroke-width="7.2" points="174.83,-48.92 180.97,-46.79 176.4,-42.17 174.83,-48.92"/>
</g>
</g>
</svg>
