<?xml version="1.0" encoding="UTF-8" standalone="no"?>
<!DOCTYPE svg PUBLIC "-//W3C//DTD SVG 1.1//EN"
 "http://www.w3.org/Graphics/SVG/1.1/DTD/svg11.dtd">
<!-- Generated by graphviz version 14.1.2 (0)
 -->
<!-- Title: miniz_oxide&#45;v0.9.1 Pages: 1 -->
<svg width="265pt" height="95pt"
 viewBox="0.00 0.00 265.00 95.00" xmlns="http://www.w3.org/2000/svg" xmlns:xlink="http://www.w3.org/1999/xlink">
<g id="graph0" class="graph" transform="scale(1 1) rotate(0) translate(4 91.15)">
<title>miniz_oxide&#45;v0.9.1</title>
<polygon fill="white" stroke="none" points="-4,4 -4,-91.15 260.69,-91.15 260.69,4 -4,4"/>
<!-- n0 -->
<g id="node1" class="node">
<title>n0</title>
<path fill="#dff3ff" stroke="#1b78a6" d="M244.69,-87.15C244.69,-87.15 162.97,-87.15 162.97,-87.15 156.97,-87.15 150.97,-81.15 150.97,-75.15 150.97,-75.15 150.97,-12 150.97,-12 150.97,-6 156.97,0 162.97,0 162.97,0 244.69,0 244.69,0 250.69,0 256.69,-6 256.69,-12 256.69,-12 256.69,-75.15 256.69,-75.15 256.69,-81.15 250.69,-87.15 244.69,-87.15"/>
<text xml:space="preserve" text-anchor="start" x="165.58" y="-68.6" font-family="Inter,Arial" font-weight="bold" font-size="13.00" fill="#172033">miniz_oxide</text>
<text xml:space="preserve" text-anchor="start" x="190.7" y="-53.55" font-family="Inter,Arial" font-size="12.00" fill="#172033">0.9.1</text>
<text xml:space="preserve" text-anchor="start" x="175.33" y="-26.25" font-family="Inter,Arial" font-weight="bold" font-size="11.00" fill="#172033">adler2</text>
<text xml:space="preserve" text-anchor="start" x="207.58" y="-26.25" font-family="Inter,Arial" font-size="10.00" fill="#172033"> </text>
<text xml:space="preserve" text-anchor="start" x="210.58" y="-26.25" font-family="Inter,Arial" font-size="10.00" fill="#172033">2.0.1</text>
<path fill="none" stroke="#9aa8b8" d="M176.83,-13.2C176.83,-13.2 230.83,-13.2 230.83,-13.2 236.08,-13.2 241.33,-18.45 241.33,-23.7 241.33,-23.7 241.33,-34.2 241.33,-34.2 241.33,-39.45 236.08,-44.7 230.83,-44.7 230.83,-44.7 176.83,-44.7 176.83,-44.7 171.58,-44.7 166.33,-39.45 166.33,-34.2 166.33,-34.2 166.33,-23.7 166.33,-23.7 166.33,-18.45 171.58,-13.2 176.83,-13.2"/>
</g>
<!-- in0 -->
<g id="node2" class="node">
<title>in0</title>
<polygon fill="#eef6ff" stroke="#4b8fc5" points="104.97,-65.78 0,-65.78 0,-21.38 110.97,-21.38 110.97,-59.78 104.97,-65.78"/>
<polyline fill="none" stroke="#4b8fc5" points="104.97,-65.78 104.97,-59.78"/>
<polyline fill="none" stroke="#4b8fc5" points="110.97,-59.78 104.97,-59.78"/>
<text xml:space="preserve" text-anchor="start" x="9.36" y="-50.08" font-family="Inter,Arial" font-size="10.00" fill="#123d5c">from png&#45;v0.18.1.svg</text>
<text xml:space="preserve" text-anchor="start" x="26.99" y="-40.08" font-family="Inter,Arial" font-weight="bold" font-size="10.00" fill="#123d5c">miniz_oxide</text>
<text xml:space="preserve" text-anchor="start" x="44.61" y="-30.08" font-family="Inter,Arial" font-size="10.00" fill="#123d5c">0.9.1</text>
</g>
<!-- in0&#45;&gt;n0 -->
<g id="edge1" class="edge">
<title>in0&#45;&gt;n0</title>
<path fill="none" stroke="#4b8fc5" stroke-width="0.9" stroke-dasharray="5,2" d="M111.39,-43.58C122.01,-43.58 133.17,-43.58 143.9,-43.58"/>
<polygon fill="#4b8fc5" stroke="#4b8fc5" stroke-width="0.9" points="143.66,-45.5 149.16,-43.58 143.66,-41.65 143.66,-45.5"/>
</g>
</g>
</svg>
