<?xml version="1.0" encoding="UTF-8" standalone="no"?>
<!DOCTYPE svg PUBLIC "-//W3C//DTD SVG 1.1//EN"
 "http://www.w3.org/Graphics/SVG/1.1/DTD/svg11.dtd">
<!-- Generated by graphviz version 14.1.2 (0)
 -->
<!-- Title: miniz_oxide&#45;v0.9.1 Pages: 1 -->
<svg width="220pt" height="59pt"
 viewBox="0.00 0.00 220.00 59.00" xmlns="http://www.w3.org/2000/svg" xmlns:xlink="http://www.w3.org/1999/xlink">
<g id="graph0" class="graph" transform="scale(1 1) rotate(0) translate(4 54.95)">
<title>miniz_oxide&#45;v0.9.1</title>
<polygon fill="white" stroke="none" points="-4,4 -4,-54.95 216.29,-54.95 216.29,4 -4,4"/>
<!-- n0 -->
<g id="node1" class="node">
<title>n0</title>
<path fill="#dff3ff" stroke="#1b78a6" d="M200.29,-50.95C200.29,-50.95 155.77,-50.95 155.77,-50.95 149.77,-50.95 143.77,-44.95 143.77,-38.95 143.77,-38.95 143.77,-12 143.77,-12 143.77,-6 149.77,0 155.77,0 155.77,0 200.29,0 200.29,0 206.29,0 212.29,-6 212.29,-12 212.29,-12 212.29,-38.95 212.29,-38.95 212.29,-44.95 206.29,-50.95 200.29,-50.95"/>
<text xml:space="preserve" text-anchor="start" x="149.53" y="-38.85" font-family="Inter,Arial" font-weight="bold" font-size="10.00" fill="#172033">miniz_oxide</text>
<text xml:space="preserve" text-anchor="start" x="167.16" y="-25.85" font-family="Inter,Arial" font-size="10.00" fill="#172033">0.9.1</text>
<text xml:space="preserve" text-anchor="start" x="155.91" y="-11.75" font-family="Inter,Arial" font-weight="bold" font-size="8.00" fill="#172033">adler2</text>
<text xml:space="preserve" text-anchor="start" x="179.91" y="-11.75" font-family="Inter,Arial" font-size="8.00" fill="#172033"> 2.0.1</text>
<path fill="none" stroke="#9aa8b8" d="M156.11,-3.6C156.11,-3.6 199.95,-3.6 199.95,-3.6 203.24,-3.6 206.53,-6.89 206.53,-10.18 206.53,-10.18 206.53,-16.77 206.53,-16.77 206.53,-20.06 203.24,-23.35 199.95,-23.35 199.95,-23.35 156.11,-23.35 156.11,-23.35 152.82,-23.35 149.53,-20.06 149.53,-16.77 149.53,-16.77 149.53,-10.18 149.53,-10.18 149.53,-6.89 152.82,-3.6 156.11,-3.6"/>
</g>
<!-- in0 -->
<g id="node2" class="node">
<title>in0</title>
<polygon fill="#eef6ff" stroke="#4b8fc5" points="97.77,-44.08 0,-44.08 0,-6.88 103.77,-6.88 103.77,-38.08 97.77,-44.08"/>
<polyline fill="none" stroke="#4b8fc5" points="97.77,-44.08 97.77,-38.08"/>
<polyline fill="none" stroke="#4b8fc5" points="103.77,-38.08 97.77,-38.08"/>
<text xml:space="preserve" text-anchor="start" x="5.76" y="-31.98" font-family="Inter,Arial" font-size="10.00" fill="#123d5c">from png&#45;v0.18.1.svg</text>
<text xml:space="preserve" text-anchor="start" x="23.38" y="-21.98" font-family="Inter,Arial" font-weight="bold" font-size="10.00" fill="#123d5c">miniz_oxide</text>
<text xml:space="preserve" text-anchor="start" x="41.01" y="-11.98" font-family="Inter,Arial" font-size="10.00" fill="#123d5c">0.9.1</text>
</g>
<!-- in0&#45;&gt;n0 -->
<g id="edge1" class="edge">
<title>in0&#45;&gt;n0</title>
<path fill="none" stroke="#4b8fc5" stroke-width="0.9" stroke-dasharray="5,2" d="M104.1,-25.48C114.94,-25.48 126.25,-25.48 136.63,-25.48"/>
<polygon fill="#4b8fc5" stroke="#4b8fc5" stroke-width="0.9" points="136.44,-27.4 141.94,-25.48 136.44,-23.55 136.44,-27.4"/>
</g>
</g>
</svg>
