<?xml version="1.0" encoding="UTF-8" standalone="no"?>
<!DOCTYPE svg PUBLIC "-//W3C//DTD SVG 1.1//EN"
 "http://www.w3.org/Graphics/SVG/1.1/DTD/svg11.dtd">
<!-- Generated by graphviz version 14.1.2 (0)
 -->
<!-- Title: mio&#45;v1.2.0 Pages: 1 -->
<svg width="267pt" height="200pt"
 viewBox="0.00 0.00 267.00 200.00" xmlns="http://www.w3.org/2000/svg" xmlns:xlink="http://www.w3.org/1999/xlink">
<g id="graph0" class="graph" transform="scale(1 1) rotate(0) translate(4 196.4)">
<title>mio&#45;v1.2.0</title>
<polygon fill="white" stroke="none" points="-4,4 -4,-196.4 262.94,-196.4 262.94,4 -4,4"/>
<!-- n0 -->
<g id="node1" class="node">
<title>n0</title>
<path fill="#dff3ff" stroke="#1b78a6" d="M90.72,-126.4C90.72,-126.4 12,-126.4 12,-126.4 6,-126.4 0,-120.4 0,-114.4 0,-114.4 0,-88 0,-88 0,-82 6,-76 12,-76 12,-76 90.72,-76 90.72,-76 96.72,-76 102.72,-82 102.72,-88 102.72,-88 102.72,-114.4 102.72,-114.4 102.72,-120.4 96.72,-126.4 90.72,-126.4"/>
<text xml:space="preserve" text-anchor="start" x="39.74" y="-107.85" font-family="Inter,Arial" font-weight="bold" font-size="13.00" fill="#172033">mio</text>
<text xml:space="preserve" text-anchor="start" x="38.24" y="-95.8" font-family="Inter,Arial" font-size="12.00" fill="#172033">1.2.0</text>
<text xml:space="preserve" text-anchor="start" x="9.36" y="-84.75" font-family="Inter,Arial" font-size="11.00" fill="#172033">/vendor/mio&#45;1.2.0</text>
</g>
<!-- out0 -->
<g id="node2" class="node">
<title>out0</title>
<polygon fill="#fff8e8" stroke="#d19922" points="246.19,-192.4 149.47,-192.4 149.47,-148 252.19,-148 252.19,-186.4 246.19,-192.4"/>
<polyline fill="none" stroke="#d19922" points="246.19,-192.4 246.19,-186.4"/>
<polyline fill="none" stroke="#d19922" points="252.19,-186.4 246.19,-186.4"/>
<text xml:space="preserve" text-anchor="start" x="158.83" y="-176.7" font-family="Inter,Arial" font-size="10.00" fill="#614000">to core3&#45;v0.1.2.svg</text>
<text xml:space="preserve" text-anchor="start" x="188.08" y="-166.7" font-family="Inter,Arial" font-weight="bold" font-size="10.00" fill="#614000">core3</text>
<text xml:space="preserve" text-anchor="start" x="189.95" y="-156.7" font-family="Inter,Arial" font-size="10.00" fill="#614000">0.1.2</text>
</g>
<!-- n0&#45;&gt;out0 -->
<g id="edge1" class="edge">
<title>n0&#45;&gt;out0</title>
<path fill="none" stroke="#d19922" stroke-width="7.2" stroke-dasharray="5,2" d="M103.11,-124.95C115.23,-130.61 128.26,-136.71 140.71,-142.54"/>
<polygon fill="#d19922" stroke="#d19922" stroke-width="7.2" points="138.91,-145.52 145.36,-144.71 141.84,-139.24 138.91,-145.52"/>
</g>
<!-- out1 -->
<g id="node3" class="node">
<title>out1</title>
<polygon fill="#fff8e8" stroke="#d19922" points="245.81,-123.4 149.84,-123.4 149.84,-79 251.81,-79 251.81,-117.4 245.81,-123.4"/>
<polyline fill="none" stroke="#d19922" points="245.81,-123.4 245.81,-117.4"/>
<polyline fill="none" stroke="#d19922" points="251.81,-117.4 245.81,-117.4"/>
<text xml:space="preserve" text-anchor="start" x="159.2" y="-107.7" font-family="Inter,Arial" font-size="10.00" fill="#614000">to spin&#45;v0.10.0.svg</text>
<text xml:space="preserve" text-anchor="start" x="190.7" y="-97.7" font-family="Inter,Arial" font-weight="bold" font-size="10.00" fill="#614000">spin</text>
<text xml:space="preserve" text-anchor="start" x="187.33" y="-87.7" font-family="Inter,Arial" font-size="10.00" fill="#614000">0.10.0</text>
</g>
<!-- n0&#45;&gt;out1 -->
<g id="edge2" class="edge">
<title>n0&#45;&gt;out1</title>
<path fill="none" stroke="#d19922" stroke-width="7.2" stroke-dasharray="5,2" d="M103.11,-101.2C114.12,-101.2 125.9,-101.2 137.3,-101.2"/>
<polygon fill="#d19922" stroke="#d19922" stroke-width="7.2" points="137.23,-104.67 142.73,-101.2 137.23,-97.74 137.23,-104.67"/>
</g>
<!-- out2 -->
<g id="node4" class="node">
<title>out2</title>
<polygon fill="#fff8e8" stroke="#d19922" points="252.94,-54.4 142.72,-54.4 142.72,0 258.94,0 258.94,-48.4 252.94,-54.4"/>
<polyline fill="none" stroke="#d19922" points="252.94,-54.4 252.94,-48.4"/>
<polyline fill="none" stroke="#d19922" points="258.94,-48.4 252.94,-48.4"/>
<text xml:space="preserve" text-anchor="start" x="152.08" y="-38.7" font-family="Inter,Arial" font-size="10.00" fill="#614000">to trueos&#45;io&#45;v0.1.0.svg</text>
<text xml:space="preserve" text-anchor="start" x="180.2" y="-28.7" font-family="Inter,Arial" font-weight="bold" font-size="10.00" fill="#614000">trueos&#45;io</text>
<text xml:space="preserve" text-anchor="start" x="189.95" y="-18.7" font-family="Inter,Arial" font-size="10.00" fill="#614000">0.1.0</text>
<text xml:space="preserve" text-anchor="start" x="165.58" y="-8.7" font-family="Inter,Arial" font-size="10.00" fill="#614000">/crates/trueos&#45;io</text>
</g>
<!-- n0&#45;&gt;out2 -->
<g id="edge3" class="edge">
<title>n0&#45;&gt;out2</title>
<path fill="none" stroke="#d19922" stroke-width="7.2" stroke-dasharray="5,2" d="M103.11,-75.73C113.07,-70.74 123.64,-65.43 134.01,-60.23"/>
<polygon fill="#d19922" stroke="#d19922" stroke-width="7.2" points="135.3,-63.46 138.66,-57.89 132.19,-57.26 135.3,-63.46"/>
</g>
</g>
</svg>
