<?xml version="1.0" encoding="UTF-8" standalone="no"?>
<!DOCTYPE svg PUBLIC "-//W3C//DTD SVG 1.1//EN"
 "http://www.w3.org/Graphics/SVG/1.1/DTD/svg11.dtd">
<!-- Generated by graphviz version 14.1.2 (0)
 -->
<!-- Title: mio&#45;v1.2.0 Pages: 1 -->
<svg width="244pt" height="179pt"
 viewBox="0.00 0.00 244.00 179.00" xmlns="http://www.w3.org/2000/svg" xmlns:xlink="http://www.w3.org/1999/xlink">
<g id="graph0" class="graph" transform="scale(1 1) rotate(0) translate(4 175.2)">
<title>mio&#45;v1.2.0</title>
<polygon fill="white" stroke="none" points="-4,4 -4,-175.2 240.29,-175.2 240.29,4 -4,4"/>
<!-- n0 -->
<g id="node1" class="node">
<title>n0</title>
<path fill="#dff3ff" stroke="#1b78a6" d="M75.27,-109.2C75.27,-109.2 12,-109.2 12,-109.2 6,-109.2 0,-103.2 0,-97.2 0,-97.2 0,-84 0,-84 0,-78 6,-72 12,-72 12,-72 75.27,-72 75.27,-72 81.27,-72 87.27,-78 87.27,-84 87.27,-84 87.27,-97.2 87.27,-97.2 87.27,-103.2 81.27,-109.2 75.27,-109.2"/>
<text xml:space="preserve" text-anchor="start" x="34.63" y="-97.1" font-family="Inter,Arial" font-weight="bold" font-size="10.00" fill="#172033">mio</text>
<text xml:space="preserve" text-anchor="start" x="32.76" y="-87.1" font-family="Inter,Arial" font-size="10.00" fill="#172033">1.2.0</text>
<text xml:space="preserve" text-anchor="start" x="5.76" y="-77.1" font-family="Inter,Arial" font-size="10.00" fill="#172033">/vendor/mio&#45;1.2.0</text>
</g>
<!-- out0 -->
<g id="node2" class="node">
<title>out0</title>
<polygon fill="#fff8e8" stroke="#d19922" points="223.54,-171.2 134.02,-171.2 134.02,-134 229.54,-134 229.54,-165.2 223.54,-171.2"/>
<polyline fill="none" stroke="#d19922" points="223.54,-171.2 223.54,-165.2"/>
<polyline fill="none" stroke="#d19922" points="229.54,-165.2 223.54,-165.2"/>
<text xml:space="preserve" text-anchor="start" x="139.78" y="-159.1" font-family="Inter,Arial" font-size="10.00" fill="#614000">to core3&#45;v0.1.2.svg</text>
<text xml:space="preserve" text-anchor="start" x="169.03" y="-149.1" font-family="Inter,Arial" font-weight="bold" font-size="10.00" fill="#614000">core3</text>
<text xml:space="preserve" text-anchor="start" x="170.9" y="-139.1" font-family="Inter,Arial" font-size="10.00" fill="#614000">0.1.2</text>
</g>
<!-- n0&#45;&gt;out0 -->
<g id="edge1" class="edge">
<title>n0&#45;&gt;out0</title>
<path fill="none" stroke="#d19922" stroke-width="0.9" stroke-dasharray="5,2" d="M86.22,-109.54C101,-116.27 117.74,-123.89 132.99,-130.84"/>
<polygon fill="#d19922" stroke="#d19922" stroke-width="0.9" points="131.93,-132.47 137.74,-133 133.53,-128.97 131.93,-132.47"/>
</g>
<!-- out1 -->
<g id="node3" class="node">
<title>out1</title>
<polygon fill="#fff8e8" stroke="#d19922" points="223.16,-109.2 134.39,-109.2 134.39,-72 229.16,-72 229.16,-103.2 223.16,-109.2"/>
<polyline fill="none" stroke="#d19922" points="223.16,-109.2 223.16,-103.2"/>
<polyline fill="none" stroke="#d19922" points="229.16,-103.2 223.16,-103.2"/>
<text xml:space="preserve" text-anchor="start" x="140.15" y="-97.1" font-family="Inter,Arial" font-size="10.00" fill="#614000">to spin&#45;v0.10.0.svg</text>
<text xml:space="preserve" text-anchor="start" x="171.65" y="-87.1" font-family="Inter,Arial" font-weight="bold" font-size="10.00" fill="#614000">spin</text>
<text xml:space="preserve" text-anchor="start" x="168.28" y="-77.1" font-family="Inter,Arial" font-size="10.00" fill="#614000">0.10.0</text>
</g>
<!-- n0&#45;&gt;out1 -->
<g id="edge2" class="edge">
<title>n0&#45;&gt;out1</title>
<path fill="none" stroke="#d19922" stroke-width="0.9" stroke-dasharray="5,2" d="M87.71,-90.6C100.32,-90.6 114.25,-90.6 127.41,-90.6"/>
<polygon fill="#d19922" stroke="#d19922" stroke-width="0.9" points="127.35,-92.53 132.85,-90.6 127.35,-88.68 127.35,-92.53"/>
</g>
<!-- out2 -->
<g id="node4" class="node">
<title>out2</title>
<polygon fill="#fff8e8" stroke="#d19922" points="230.29,-47.2 127.27,-47.2 127.27,0 236.29,0 236.29,-41.2 230.29,-47.2"/>
<polyline fill="none" stroke="#d19922" points="230.29,-47.2 230.29,-41.2"/>
<polyline fill="none" stroke="#d19922" points="236.29,-41.2 230.29,-41.2"/>
<text xml:space="preserve" text-anchor="start" x="133.03" y="-35.1" font-family="Inter,Arial" font-size="10.00" fill="#614000">to trueos&#45;io&#45;v0.1.0.svg</text>
<text xml:space="preserve" text-anchor="start" x="161.15" y="-25.1" font-family="Inter,Arial" font-weight="bold" font-size="10.00" fill="#614000">trueos&#45;io</text>
<text xml:space="preserve" text-anchor="start" x="170.9" y="-15.1" font-family="Inter,Arial" font-size="10.00" fill="#614000">0.1.0</text>
<text xml:space="preserve" text-anchor="start" x="146.53" y="-5.1" font-family="Inter,Arial" font-size="10.00" fill="#614000">/crates/trueos&#45;io</text>
</g>
<!-- n0&#45;&gt;out2 -->
<g id="edge3" class="edge">
<title>n0&#45;&gt;out2</title>
<path fill="none" stroke="#d19922" stroke-width="0.9" stroke-dasharray="5,2" d="M83.28,-71.58C96.49,-65.08 111.53,-57.68 125.77,-50.67"/>
<polygon fill="#d19922" stroke="#d19922" stroke-width="0.9" points="126.51,-52.45 130.6,-48.3 124.81,-49 126.51,-52.45"/>
</g>
</g>
</svg>
