<?xml version="1.0" encoding="UTF-8" standalone="no"?>
<!DOCTYPE svg PUBLIC "-//W3C//DTD SVG 1.1//EN"
 "http://www.w3.org/Graphics/SVG/1.1/DTD/svg11.dtd">
<!-- Generated by graphviz version 14.1.2 (0)
 -->
<!-- Title: parry2d&#45;v0.26.1 Pages: 1 -->
<svg width="944pt" height="644pt"
 viewBox="0.00 0.00 944.00 644.00" xmlns="http://www.w3.org/2000/svg" xmlns:xlink="http://www.w3.org/1999/xlink">
<g id="graph0" class="graph" transform="scale(1 1) rotate(0) translate(4 639.9)">
<title>parry2d&#45;v0.26.1</title>
<polygon fill="white" stroke="none" points="-4,4 -4,-639.9 940.32,-639.9 940.32,4 -4,4"/>
<!-- n0 -->
<g id="node1" class="node">
<title>n0</title>
<path fill="#dff3ff" stroke="#1b78a6" d="M298.69,-351.52C298.69,-351.52 184.72,-351.52 184.72,-351.52 178.72,-351.52 172.72,-345.52 172.72,-339.52 172.72,-339.52 172.72,-238.88 172.72,-238.88 172.72,-232.88 178.72,-226.88 184.72,-226.88 184.72,-226.88 298.69,-226.88 298.69,-226.88 304.69,-226.88 310.69,-232.88 310.69,-238.88 310.69,-238.88 310.69,-339.52 310.69,-339.52 310.69,-345.52 304.69,-351.52 298.69,-351.52"/>
<text xml:space="preserve" text-anchor="start" x="216.96" y="-332.97" font-family="Inter,Arial" font-weight="bold" font-size="13.00" fill="#172033">parry2d</text>
<text xml:space="preserve" text-anchor="start" x="225.21" y="-317.93" font-family="Inter,Arial" font-size="12.00" fill="#172033">0.26.1</text>
<text xml:space="preserve" text-anchor="start" x="197.08" y="-290.62" font-family="Inter,Arial" font-weight="bold" font-size="11.00" fill="#172033">downcast&#45;rs</text>
<text xml:space="preserve" text-anchor="start" x="261.58" y="-290.62" font-family="Inter,Arial" font-size="10.00" fill="#172033"> </text>
<text xml:space="preserve" text-anchor="start" x="264.58" y="-290.62" font-family="Inter,Arial" font-size="10.00" fill="#172033">2.0.2</text>
<path fill="none" stroke="#9aa8b8" d="M198.58,-277.57C198.58,-277.57 284.83,-277.57 284.83,-277.57 290.08,-277.57 295.33,-282.82 295.33,-288.07 295.33,-288.07 295.33,-298.57 295.33,-298.57 295.33,-303.82 290.08,-309.07 284.83,-309.07 284.83,-309.07 198.58,-309.07 198.58,-309.07 193.33,-309.07 188.08,-303.82 188.08,-298.57 188.08,-298.57 188.08,-288.07 188.08,-288.07 188.08,-282.82 193.33,-277.57 198.58,-277.57"/>
<text xml:space="preserve" text-anchor="start" x="211.71" y="-253.12" font-family="Inter,Arial" font-weight="bold" font-size="11.00" fill="#172033">either</text>
<text xml:space="preserve" text-anchor="start" x="241.71" y="-253.12" font-family="Inter,Arial" font-size="10.00" fill="#172033"> </text>
<text xml:space="preserve" text-anchor="start" x="244.71" y="-253.12" font-family="Inter,Arial" font-size="10.00" fill="#172033">1.16.0</text>
<path fill="none" stroke="#9aa8b8" d="M198.58,-240.07C198.58,-240.07 284.83,-240.07 284.83,-240.07 290.08,-240.07 295.33,-245.32 295.33,-250.57 295.33,-250.57 295.33,-261.07 295.33,-261.07 295.33,-266.32 290.08,-271.57 284.83,-271.57 284.83,-271.57 198.58,-271.57 198.58,-271.57 193.33,-271.57 188.08,-266.32 188.08,-261.07 188.08,-261.07 188.08,-250.57 188.08,-250.57 188.08,-245.32 193.33,-240.07 198.58,-240.07"/>
</g>
<!-- n1 -->
<g id="node2" class="node">
<title>n1</title>
<path fill="#f7f9fb" stroke="#8b9bb0" d="M736.23,-399.9C736.23,-399.9 696.5,-399.9 696.5,-399.9 690.5,-399.9 684.5,-393.9 684.5,-387.9 684.5,-387.9 684.5,-372.5 684.5,-372.5 684.5,-366.5 690.5,-360.5 696.5,-360.5 696.5,-360.5 736.23,-360.5 736.23,-360.5 742.23,-360.5 748.23,-366.5 748.23,-372.5 748.23,-372.5 748.23,-387.9 748.23,-387.9 748.23,-393.9 742.23,-399.9 736.23,-399.9"/>
<text xml:space="preserve" text-anchor="start" x="693.87" y="-381.35" font-family="Inter,Arial" font-weight="bold" font-size="13.00" fill="#172033">approx</text>
<text xml:space="preserve" text-anchor="start" x="703.24" y="-369.3" font-family="Inter,Arial" font-size="12.00" fill="#172033">0.5.1</text>
</g>
<!-- n0&#45;&gt;n1 -->
<g id="edge5" class="edge">
<title>n0&#45;&gt;n1</title>
<path fill="none" stroke="#9aa8b8" stroke-width="0.9" d="M311.18,-302.38C412.34,-321.86 598.3,-357.66 677.76,-372.96"/>
<polygon fill="#9aa8b8" stroke="#9aa8b8" stroke-width="0.9" points="677.1,-374.79 682.86,-373.94 677.83,-371.01 677.1,-374.79"/>
</g>
<!-- n3 -->
<g id="node4" class="node">
<title>n3</title>
<path fill="#f7f9fb" stroke="#8b9bb0" d="M432.79,-417.9C432.79,-417.9 399.82,-417.9 399.82,-417.9 393.82,-417.9 387.82,-411.9 387.82,-405.9 387.82,-405.9 387.82,-390.5 387.82,-390.5 387.82,-384.5 393.82,-378.5 399.82,-378.5 399.82,-378.5 432.79,-378.5 432.79,-378.5 438.79,-378.5 444.79,-384.5 444.79,-390.5 444.79,-390.5 444.79,-405.9 444.79,-405.9 444.79,-411.9 438.79,-417.9 432.79,-417.9"/>
<text xml:space="preserve" text-anchor="start" x="397.18" y="-399.35" font-family="Inter,Arial" font-weight="bold" font-size="13.00" fill="#172033">glamx</text>
<text xml:space="preserve" text-anchor="start" x="403.18" y="-387.3" font-family="Inter,Arial" font-size="12.00" fill="#172033">0.1.3</text>
</g>
<!-- n0&#45;&gt;n3 -->
<g id="edge6" class="edge">
<title>n0&#45;&gt;n3</title>
<path fill="none" stroke="#9aa8b8" stroke-width="0.9" d="M311.04,-333.97C324.15,-342.43 337.81,-351.14 350.69,-359.2 360.72,-365.47 371.71,-372.17 381.74,-378.22"/>
<polygon fill="#9aa8b8" stroke="#9aa8b8" stroke-width="0.9" points="380.64,-379.81 386.35,-380.99 382.62,-376.51 380.64,-379.81"/>
</g>
<!-- n5 -->
<g id="node6" class="node">
<title>n5</title>
<path fill="#f7f9fb" stroke="#8b9bb0" d="M611.88,-635.9C611.88,-635.9 533.91,-635.9 533.91,-635.9 527.91,-635.9 521.91,-629.9 521.91,-623.9 521.91,-623.9 521.91,-608.5 521.91,-608.5 521.91,-602.5 527.91,-596.5 533.91,-596.5 533.91,-596.5 611.88,-596.5 611.88,-596.5 617.88,-596.5 623.88,-602.5 623.88,-608.5 623.88,-608.5 623.88,-623.9 623.88,-623.9 623.88,-629.9 617.88,-635.9 611.88,-635.9"/>
<text xml:space="preserve" text-anchor="start" x="531.27" y="-617.35" font-family="Inter,Arial" font-weight="bold" font-size="13.00" fill="#172033">ordered&#45;float</text>
<text xml:space="preserve" text-anchor="start" x="559.77" y="-605.3" font-family="Inter,Arial" font-size="12.00" fill="#172033">5.3.0</text>
</g>
<!-- n0&#45;&gt;n5 -->
<g id="edge7" class="edge">
<title>n0&#45;&gt;n5</title>
<path fill="none" stroke="#9aa8b8" stroke-width="0.9" d="M248.34,-351.76C257.81,-418.15 283.13,-521.06 350.69,-577.2 396.38,-615.16 466.02,-621.76 514.93,-620.87"/>
<polygon fill="#9aa8b8" stroke="#9aa8b8" stroke-width="0.9" points="514.88,-622.8 520.33,-620.73 514.78,-618.95 514.88,-622.8"/>
</g>
<!-- n6 -->
<g id="node7" class="node">
<title>n6</title>
<path fill="#f7f9fb" stroke="#8b9bb0" d="M589.38,-301.9C589.38,-301.9 556.41,-301.9 556.41,-301.9 550.41,-301.9 544.41,-295.9 544.41,-289.9 544.41,-289.9 544.41,-274.5 544.41,-274.5 544.41,-268.5 550.41,-262.5 556.41,-262.5 556.41,-262.5 589.38,-262.5 589.38,-262.5 595.38,-262.5 601.38,-268.5 601.38,-274.5 601.38,-274.5 601.38,-289.9 601.38,-289.9 601.38,-295.9 595.38,-301.9 589.38,-301.9"/>
<text xml:space="preserve" text-anchor="start" x="553.77" y="-283.35" font-family="Inter,Arial" font-weight="bold" font-size="13.00" fill="#172033">simba</text>
<text xml:space="preserve" text-anchor="start" x="559.77" y="-271.3" font-family="Inter,Arial" font-size="12.00" fill="#172033">0.9.1</text>
</g>
<!-- n0&#45;&gt;n6 -->
<g id="edge8" class="edge">
<title>n0&#45;&gt;n6</title>
<path fill="none" stroke="#9aa8b8" stroke-width="0.9" d="M310.91,-287.75C380.08,-286.28 484.32,-284.06 537.71,-282.93"/>
<polygon fill="#9aa8b8" stroke="#9aa8b8" stroke-width="0.9" points="537.46,-284.86 542.92,-282.82 537.38,-281.01 537.46,-284.86"/>
</g>
<!-- out0 -->
<g id="node8" class="node">
<title>out0</title>
<polygon fill="#fff8e8" stroke="#d19922" points="458.66,-251.4 367.94,-251.4 367.94,-207 464.66,-207 464.66,-245.4 458.66,-251.4"/>
<polyline fill="none" stroke="#d19922" points="458.66,-251.4 458.66,-245.4"/>
<polyline fill="none" stroke="#d19922" points="464.66,-245.4 458.66,-245.4"/>
<text xml:space="preserve" text-anchor="start" x="377.3" y="-235.7" font-family="Inter,Arial" font-size="10.00" fill="#614000">to acpi&#45;v6.1.1.svg</text>
<text xml:space="preserve" text-anchor="start" x="399.05" y="-225.7" font-family="Inter,Arial" font-weight="bold" font-size="10.00" fill="#614000">bitflags</text>
<text xml:space="preserve" text-anchor="start" x="402.8" y="-215.7" font-family="Inter,Arial" font-size="10.00" fill="#614000">2.13.0</text>
</g>
<!-- n0&#45;&gt;out0 -->
<g id="edge11" class="edge">
<title>n0&#45;&gt;out0</title>
<path fill="none" stroke="#d19922" stroke-width="0.9" stroke-dasharray="5,2" d="M310.92,-265.49C327.64,-259.67 345.31,-253.53 361.26,-247.99"/>
<polygon fill="#d19922" stroke="#d19922" stroke-width="0.9" points="361.66,-249.88 366.23,-246.26 360.4,-246.25 361.66,-249.88"/>
</g>
<!-- out1 -->
<g id="node9" class="node">
<title>out1</title>
<polygon fill="#fff8e8" stroke="#d19922" points="930.32,-510.4 808.85,-510.4 808.85,-376 936.32,-376 936.32,-504.4 930.32,-510.4"/>
<polyline fill="none" stroke="#d19922" points="930.32,-510.4 930.32,-504.4"/>
<polyline fill="none" stroke="#d19922" points="936.32,-504.4 930.32,-504.4"/>
<text xml:space="preserve" text-anchor="start" x="823.84" y="-494.7" font-family="Inter,Arial" font-size="10.00" fill="#614000">to crab&#45;usb&#45;v0.9.1.svg</text>
<text xml:space="preserve" text-anchor="start" x="848.96" y="-484.7" font-family="Inter,Arial" font-weight="bold" font-size="10.00" fill="#614000">num&#45;traits</text>
<text xml:space="preserve" text-anchor="start" x="859.09" y="-474.7" font-family="Inter,Arial" font-size="10.00" fill="#614000">0.2.19</text>
<text xml:space="preserve" text-anchor="start" x="818.21" y="-464.7" font-family="Inter,Arial" font-size="10.00" fill="#614000">/vendor/num&#45;traits&#45;0.2.19</text>
<text xml:space="preserve" text-anchor="start" x="846.34" y="-454.7" font-family="Inter,Arial" font-weight="bold" font-size="10.00" fill="#614000">num&#45;derive</text>
<text xml:space="preserve" text-anchor="start" x="861.71" y="-444.7" font-family="Inter,Arial" font-size="10.00" fill="#614000">0.4.2</text>
<text xml:space="preserve" text-anchor="start" x="848.21" y="-434.7" font-family="Inter,Arial" font-size="10.00" fill="#614000">proc&#45;macro</text>
<text xml:space="preserve" text-anchor="start" x="852.71" y="-424.7" font-family="Inter,Arial" font-weight="bold" font-size="10.00" fill="#614000">thiserror</text>
<text xml:space="preserve" text-anchor="start" x="859.09" y="-414.7" font-family="Inter,Arial" font-size="10.00" fill="#614000">2.0.18</text>
<text xml:space="preserve" text-anchor="start" x="860.21" y="-404.7" font-family="Inter,Arial" font-weight="bold" font-size="10.00" fill="#614000">paste</text>
<text xml:space="preserve" text-anchor="start" x="859.09" y="-394.7" font-family="Inter,Arial" font-size="10.00" fill="#614000">1.0.15</text>
<text xml:space="preserve" text-anchor="start" x="848.21" y="-384.7" font-family="Inter,Arial" font-size="10.00" fill="#614000">proc&#45;macro</text>
</g>
<!-- n0&#45;&gt;out1 -->
<g id="edge16" class="edge">
<title>n0&#45;&gt;out1</title>
<path fill="none" stroke="#d19922" stroke-width="0.9" stroke-dasharray="5,2" d="M281.02,-351.89C299.59,-378.53 323.71,-408.4 350.69,-430.2 416.17,-483.1 439.77,-492.75 521.91,-511.2 542.76,-515.88 752.2,-515.21 768.85,-510.2 780.48,-506.7 792.03,-501.43 802.96,-495.35"/>
<polygon fill="#d19922" stroke="#d19922" stroke-width="0.9" points="803.62,-497.2 807.43,-492.79 801.71,-493.86 803.62,-497.2"/>
</g>
<!-- out2 -->
<g id="node10" class="node">
<title>out2</title>
<polygon fill="#fff8e8" stroke="#d19922" points="475.91,-182.4 350.69,-182.4 350.69,-138 481.91,-138 481.91,-176.4 475.91,-182.4"/>
<polyline fill="none" stroke="#d19922" points="475.91,-182.4 475.91,-176.4"/>
<polyline fill="none" stroke="#d19922" points="481.91,-176.4 475.91,-176.4"/>
<text xml:space="preserve" text-anchor="start" x="360.05" y="-166.7" font-family="Inter,Arial" font-size="10.00" fill="#614000">to hashbrown&#45;v0.17.1.svg</text>
<text xml:space="preserve" text-anchor="start" x="396.05" y="-156.7" font-family="Inter,Arial" font-weight="bold" font-size="10.00" fill="#614000">foldhash</text>
<text xml:space="preserve" text-anchor="start" x="405.43" y="-146.7" font-family="Inter,Arial" font-size="10.00" fill="#614000">0.2.0</text>
</g>
<!-- n0&#45;&gt;out2 -->
<g id="edge18" class="edge">
<title>n0&#45;&gt;out2</title>
<path fill="none" stroke="#d19922" stroke-width="0.9" stroke-dasharray="5,2" d="M308.96,-226.58C322.32,-215.21 336.6,-203.9 350.69,-194.2 354.64,-191.48 358.83,-188.83 363.11,-186.27"/>
<polygon fill="#d19922" stroke="#d19922" stroke-width="0.9" points="364.01,-187.97 367.8,-183.54 362.08,-184.64 364.01,-187.97"/>
</g>
<!-- out3 -->
<g id="node11" class="node">
<title>out3</title>
<polygon fill="#fff8e8" stroke="#d19922" points="461.66,-113.4 364.94,-113.4 364.94,-69 467.66,-69 467.66,-107.4 461.66,-113.4"/>
<polyline fill="none" stroke="#d19922" points="461.66,-113.4 461.66,-107.4"/>
<polyline fill="none" stroke="#d19922" points="467.66,-107.4 461.66,-107.4"/>
<text xml:space="preserve" text-anchor="start" x="374.3" y="-97.7" font-family="Inter,Arial" font-size="10.00" fill="#614000">to hyper&#45;v1.9.0.svg</text>
<text xml:space="preserve" text-anchor="start" x="395.68" y="-87.7" font-family="Inter,Arial" font-weight="bold" font-size="10.00" fill="#614000">smallvec</text>
<text xml:space="preserve" text-anchor="start" x="402.8" y="-77.7" font-family="Inter,Arial" font-size="10.00" fill="#614000">1.15.2</text>
</g>
<!-- n0&#45;&gt;out3 -->
<g id="edge19" class="edge">
<title>n0&#45;&gt;out3</title>
<path fill="none" stroke="#d19922" stroke-width="0.9" stroke-dasharray="5,2" d="M274.02,-226.4C292.85,-193.28 319.25,-153.71 350.69,-125.2 353.71,-122.46 356.99,-119.88 360.42,-117.45"/>
<polygon fill="#d19922" stroke="#d19922" stroke-width="0.9" points="361.29,-119.18 364.78,-114.52 359.14,-115.99 361.29,-119.18"/>
</g>
<!-- out4 -->
<g id="node12" class="node">
<title>out4</title>
<polygon fill="#fff8e8" stroke="#d19922" points="463.91,-44.4 362.69,-44.4 362.69,0 469.91,0 469.91,-38.4 463.91,-44.4"/>
<polyline fill="none" stroke="#d19922" points="463.91,-44.4 463.91,-38.4"/>
<polyline fill="none" stroke="#d19922" points="469.91,-38.4 463.91,-38.4"/>
<text xml:space="preserve" text-anchor="start" x="372.05" y="-28.7" font-family="Inter,Arial" font-size="10.00" fill="#614000">to kurbo&#45;v0.11.3.svg</text>
<text xml:space="preserve" text-anchor="start" x="396.8" y="-18.7" font-family="Inter,Arial" font-weight="bold" font-size="10.00" fill="#614000">arrayvec</text>
<text xml:space="preserve" text-anchor="start" x="405.43" y="-8.7" font-family="Inter,Arial" font-size="10.00" fill="#614000">0.7.7</text>
</g>
<!-- n0&#45;&gt;out4 -->
<g id="edge20" class="edge">
<title>n0&#45;&gt;out4</title>
<path fill="none" stroke="#d19922" stroke-width="0.9" stroke-dasharray="5,2" d="M259.46,-226.6C275.75,-175.61 304.84,-104.42 350.69,-56.2 353.2,-53.56 355.96,-51.08 358.89,-48.77"/>
<polygon fill="#d19922" stroke="#d19922" stroke-width="0.9" points="359.93,-50.39 363.21,-45.58 357.64,-47.29 359.93,-50.39"/>
</g>
<!-- n1&#45;&gt;out1 -->
<g id="edge12" class="edge">
<title>n1&#45;&gt;out1</title>
<path fill="none" stroke="#d19922" stroke-width="0.9" stroke-dasharray="5,2" d="M748.57,-392.95C764.07,-399.28 783.46,-407.2 802.23,-414.87"/>
<polygon fill="#d19922" stroke="#d19922" stroke-width="0.9" points="801.49,-416.64 807.3,-416.94 802.94,-413.08 801.49,-416.64"/>
</g>
<!-- n2 -->
<g id="node3" class="node">
<title>n2</title>
<path fill="#f7f9fb" stroke="#8b9bb0" d="M590.13,-468.9C590.13,-468.9 555.66,-468.9 555.66,-468.9 549.66,-468.9 543.66,-462.9 543.66,-456.9 543.66,-456.9 543.66,-441.5 543.66,-441.5 543.66,-435.5 549.66,-429.5 555.66,-429.5 555.66,-429.5 590.13,-429.5 590.13,-429.5 596.13,-429.5 602.13,-435.5 602.13,-441.5 602.13,-441.5 602.13,-456.9 602.13,-456.9 602.13,-462.9 596.13,-468.9 590.13,-468.9"/>
<text xml:space="preserve" text-anchor="start" x="557.52" y="-450.35" font-family="Inter,Arial" font-weight="bold" font-size="13.00" fill="#172033">glam</text>
<text xml:space="preserve" text-anchor="start" x="553.02" y="-438.3" font-family="Inter,Arial" font-size="12.00" fill="#172033">0.30.10</text>
</g>
<!-- n2&#45;&gt;n1 -->
<g id="edge1" class="edge">
<title>n2&#45;&gt;n1</title>
<path fill="none" stroke="#9aa8b8" stroke-width="0.9" d="M602.52,-435.24C624.41,-424.56 654.74,-409.77 678.45,-398.21"/>
<polygon fill="#9aa8b8" stroke="#9aa8b8" stroke-width="0.9" points="679,-400.08 683.1,-395.94 677.31,-396.62 679,-400.08"/>
</g>
<!-- out5 -->
<g id="node13" class="node">
<title>out5</title>
<polygon fill="#fff8e8" stroke="#d19922" points="761.35,-469.4 665.38,-469.4 665.38,-425 767.35,-425 767.35,-463.4 761.35,-469.4"/>
<polyline fill="none" stroke="#d19922" points="761.35,-469.4 761.35,-463.4"/>
<polyline fill="none" stroke="#d19922" points="767.35,-463.4 761.35,-463.4"/>
<text xml:space="preserve" text-anchor="start" x="674.74" y="-453.7" font-family="Inter,Arial" font-size="10.00" fill="#614000">to libm&#45;v0.2.16.svg</text>
<text xml:space="preserve" text-anchor="start" x="705.87" y="-443.7" font-family="Inter,Arial" font-weight="bold" font-size="10.00" fill="#614000">libm</text>
<text xml:space="preserve" text-anchor="start" x="702.87" y="-433.7" font-family="Inter,Arial" font-size="10.00" fill="#614000">0.2.16</text>
</g>
<!-- n2&#45;&gt;out5 -->
<g id="edge21" class="edge">
<title>n2&#45;&gt;out5</title>
<path fill="none" stroke="#d19922" stroke-width="0.9" stroke-dasharray="5,2" d="M602.52,-448.8C618.56,-448.57 639.13,-448.28 658.31,-448.01"/>
<polygon fill="#d19922" stroke="#d19922" stroke-width="0.9" points="658.19,-449.93 663.66,-447.93 658.13,-446.08 658.19,-449.93"/>
</g>
<!-- n3&#45;&gt;n1 -->
<g id="edge2" class="edge">
<title>n3&#45;&gt;n1</title>
<path fill="none" stroke="#9aa8b8" stroke-width="0.9" d="M445.07,-396.52C498.79,-393.28 616.95,-386.14 677.69,-382.48"/>
<polygon fill="#9aa8b8" stroke="#9aa8b8" stroke-width="0.9" points="677.72,-384.4 683.09,-382.15 677.48,-380.56 677.72,-384.4"/>
</g>
<!-- n3&#45;&gt;n2 -->
<g id="edge3" class="edge">
<title>n3&#45;&gt;n2</title>
<path fill="none" stroke="#9aa8b8" stroke-width="0.9" d="M444.94,-407.32C470.59,-415.78 508.89,-428.41 536.71,-437.59"/>
<polygon fill="#9aa8b8" stroke="#9aa8b8" stroke-width="0.9" points="536.07,-439.41 541.89,-439.3 537.27,-435.75 536.07,-439.41"/>
</g>
<!-- n3&#45;&gt;n6 -->
<g id="edge4" class="edge">
<title>n3&#45;&gt;n6</title>
<path fill="none" stroke="#9aa8b8" stroke-width="0.9" d="M443.88,-378.26C470.53,-358.26 511.6,-327.44 540,-306.13"/>
<polygon fill="#9aa8b8" stroke="#9aa8b8" stroke-width="0.9" points="540.82,-307.93 544.06,-303.09 538.5,-304.85 540.82,-307.93"/>
</g>
<!-- n3&#45;&gt;out1 -->
<g id="edge13" class="edge">
<title>n3&#45;&gt;out1</title>
<path fill="none" stroke="#d19922" stroke-width="0.9" stroke-dasharray="5,2" d="M434.58,-418.13C453.61,-438.42 486.27,-468.64 521.91,-481.2 625.42,-517.69 660.9,-502 768.85,-482.2 779.83,-480.19 791.16,-477.05 802.1,-473.42"/>
<polygon fill="#d19922" stroke="#d19922" stroke-width="0.9" points="802.63,-475.28 807.21,-471.67 801.38,-471.64 802.63,-475.28"/>
</g>
<!-- n4 -->
<g id="node5" class="node">
<title>n4</title>
<path fill="#f7f9fb" stroke="#8b9bb0" d="M756.85,-283.9C756.85,-283.9 675.88,-283.9 675.88,-283.9 669.88,-283.9 663.88,-277.9 663.88,-271.9 663.88,-271.9 663.88,-256.5 663.88,-256.5 663.88,-250.5 669.88,-244.5 675.88,-244.5 675.88,-244.5 756.85,-244.5 756.85,-244.5 762.85,-244.5 768.85,-250.5 768.85,-256.5 768.85,-256.5 768.85,-271.9 768.85,-271.9 768.85,-277.9 762.85,-283.9 756.85,-283.9"/>
<text xml:space="preserve" text-anchor="start" x="673.24" y="-265.35" font-family="Inter,Arial" font-weight="bold" font-size="13.00" fill="#172033">num&#45;complex</text>
<text xml:space="preserve" text-anchor="start" x="703.24" y="-253.3" font-family="Inter,Arial" font-size="12.00" fill="#172033">0.4.6</text>
</g>
<!-- n4&#45;&gt;out1 -->
<g id="edge14" class="edge">
<title>n4&#45;&gt;out1</title>
<path fill="none" stroke="#d19922" stroke-width="0.9" stroke-dasharray="5,2" d="M746.91,-284.27C754.43,-289.98 762.24,-296.49 768.85,-303.2 788.73,-323.38 807.86,-347.61 824.1,-370.2"/>
<polygon fill="#d19922" stroke="#d19922" stroke-width="0.9" points="822.4,-371.13 827.16,-374.49 825.54,-368.89 822.4,-371.13"/>
</g>
<!-- n5&#45;&gt;out1 -->
<g id="edge15" class="edge">
<title>n5&#45;&gt;out1</title>
<path fill="none" stroke="#d19922" stroke-width="0.9" stroke-dasharray="5,2" d="M624.3,-615.73C665.92,-613.2 725.05,-604.48 768.85,-577.2 793.15,-562.06 813.87,-538.97 830.19,-516.2"/>
<polygon fill="#d19922" stroke="#d19922" stroke-width="0.9" points="831.66,-517.45 833.25,-511.85 828.51,-515.24 831.66,-517.45"/>
</g>
<!-- n6&#45;&gt;n1 -->
<g id="edge9" class="edge">
<title>n6&#45;&gt;n1</title>
<path fill="none" stroke="#9aa8b8" stroke-width="0.9" d="M601.84,-301.56C624.6,-317.33 656.83,-339.65 681.13,-356.49"/>
<polygon fill="#9aa8b8" stroke="#9aa8b8" stroke-width="0.9" points="679.76,-357.88 685.38,-359.43 681.96,-354.72 679.76,-357.88"/>
</g>
<!-- n6&#45;&gt;n4 -->
<g id="edge10" class="edge">
<title>n6&#45;&gt;n4</title>
<path fill="none" stroke="#9aa8b8" stroke-width="0.9" d="M601.84,-278.64C617.62,-276.64 637.93,-274.05 657.01,-271.62"/>
<polygon fill="#9aa8b8" stroke="#9aa8b8" stroke-width="0.9" points="656.86,-273.58 662.07,-270.98 656.37,-269.77 656.86,-273.58"/>
</g>
<!-- n6&#45;&gt;out1 -->
<g id="edge17" class="edge">
<title>n6&#45;&gt;out1</title>
<path fill="none" stroke="#d19922" stroke-width="0.9" stroke-dasharray="5,2" d="M601.6,-287.72C640.87,-296.38 714.02,-315.61 768.85,-348.2 780.8,-355.31 792.54,-363.98 803.57,-373.17"/>
<polygon fill="#d19922" stroke="#d19922" stroke-width="0.9" points="802.11,-374.46 807.55,-376.55 804.6,-371.52 802.11,-374.46"/>
</g>
<!-- in6 -->
<g id="node14" class="node">
<title>in6</title>
<polygon fill="#eef6ff" stroke="#4b8fc5" points="126.72,-311.4 0,-311.4 0,-267 132.72,-267 132.72,-305.4 126.72,-311.4"/>
<polyline fill="none" stroke="#4b8fc5" points="126.72,-311.4 126.72,-305.4"/>
<polyline fill="none" stroke="#4b8fc5" points="132.72,-305.4 126.72,-305.4"/>
<text xml:space="preserve" text-anchor="start" x="9.36" y="-295.7" font-family="Inter,Arial" font-size="10.00" fill="#123d5c">from trueos&#45;qjs&#45;v0.1.0.svg</text>
<text xml:space="preserve" text-anchor="start" x="48.74" y="-285.7" font-family="Inter,Arial" font-weight="bold" font-size="10.00" fill="#123d5c">parry2d</text>
<text xml:space="preserve" text-anchor="start" x="52.86" y="-275.7" font-family="Inter,Arial" font-size="10.00" fill="#123d5c">0.26.1</text>
</g>
<!-- in6&#45;&gt;n0 -->
<g id="edge22" class="edge">
<title>in6&#45;&gt;n0</title>
<path fill="none" stroke="#4b8fc5" stroke-width="0.9" stroke-dasharray="5,2" d="M132.89,-289.2C143.61,-289.2 154.79,-289.2 165.72,-289.2"/>
<polygon fill="#4b8fc5" stroke="#4b8fc5" stroke-width="0.9" points="165.62,-291.13 171.12,-289.2 165.62,-287.28 165.62,-291.13"/>
</g>
</g>
</svg>
