<?xml version="1.0" encoding="UTF-8" standalone="no"?>
<!DOCTYPE svg PUBLIC "-//W3C//DTD SVG 1.1//EN"
 "http://www.w3.org/Graphics/SVG/1.1/DTD/svg11.dtd">
<!-- Generated by graphviz version 14.1.2 (0)
 -->
<!-- Title: parry2d&#45;v0.26.0 Pages: 1 -->
<svg width="944pt" height="713pt"
 viewBox="0.00 0.00 944.00 713.00" xmlns="http://www.w3.org/2000/svg" xmlns:xlink="http://www.w3.org/1999/xlink">
<g id="graph0" class="graph" transform="scale(1 1) rotate(0) translate(4 708.9)">
<title>parry2d&#45;v0.26.0</title>
<polygon fill="white" stroke="none" points="-4,4 -4,-708.9 940.32,-708.9 940.32,4 -4,4"/>
<!-- n0 -->
<g id="node1" class="node">
<title>n0</title>
<path fill="#dff3ff" stroke="#1b78a6" d="M298.69,-390.53C298.69,-390.53 184.72,-390.53 184.72,-390.53 178.72,-390.53 172.72,-384.53 172.72,-378.53 172.72,-378.53 172.72,-277.88 172.72,-277.88 172.72,-271.88 178.72,-265.88 184.72,-265.88 184.72,-265.88 298.69,-265.88 298.69,-265.88 304.69,-265.88 310.69,-271.88 310.69,-277.88 310.69,-277.88 310.69,-378.53 310.69,-378.53 310.69,-384.53 304.69,-390.53 298.69,-390.53"/>
<text xml:space="preserve" text-anchor="start" x="216.96" y="-371.98" font-family="Inter,Arial" font-weight="bold" font-size="13.00" fill="#172033">parry2d</text>
<text xml:space="preserve" text-anchor="start" x="225.21" y="-356.93" font-family="Inter,Arial" font-size="12.00" fill="#172033">0.26.0</text>
<text xml:space="preserve" text-anchor="start" x="197.08" y="-329.63" font-family="Inter,Arial" font-weight="bold" font-size="11.00" fill="#172033">downcast&#45;rs</text>
<text xml:space="preserve" text-anchor="start" x="261.58" y="-329.63" font-family="Inter,Arial" font-size="10.00" fill="#172033"> </text>
<text xml:space="preserve" text-anchor="start" x="264.58" y="-329.63" font-family="Inter,Arial" font-size="10.00" fill="#172033">2.0.2</text>
<path fill="none" stroke="#9aa8b8" d="M198.58,-316.58C198.58,-316.58 284.83,-316.58 284.83,-316.58 290.08,-316.58 295.33,-321.83 295.33,-327.08 295.33,-327.08 295.33,-337.58 295.33,-337.58 295.33,-342.83 290.08,-348.08 284.83,-348.08 284.83,-348.08 198.58,-348.08 198.58,-348.08 193.33,-348.08 188.08,-342.83 188.08,-337.58 188.08,-337.58 188.08,-327.08 188.08,-327.08 188.08,-321.83 193.33,-316.58 198.58,-316.58"/>
<text xml:space="preserve" text-anchor="start" x="211.71" y="-292.13" font-family="Inter,Arial" font-weight="bold" font-size="11.00" fill="#172033">either</text>
<text xml:space="preserve" text-anchor="start" x="241.71" y="-292.13" font-family="Inter,Arial" font-size="10.00" fill="#172033"> </text>
<text xml:space="preserve" text-anchor="start" x="244.71" y="-292.13" font-family="Inter,Arial" font-size="10.00" fill="#172033">1.15.0</text>
<path fill="none" stroke="#9aa8b8" d="M198.58,-279.08C198.58,-279.08 284.83,-279.08 284.83,-279.08 290.08,-279.08 295.33,-284.33 295.33,-289.58 295.33,-289.58 295.33,-300.08 295.33,-300.08 295.33,-305.33 290.08,-310.58 284.83,-310.58 284.83,-310.58 198.58,-310.58 198.58,-310.58 193.33,-310.58 188.08,-305.33 188.08,-300.08 188.08,-300.08 188.08,-289.58 188.08,-289.58 188.08,-284.33 193.33,-279.08 198.58,-279.08"/>
</g>
<!-- n1 -->
<g id="node2" class="node">
<title>n1</title>
<path fill="#f7f9fb" stroke="#8b9bb0" d="M736.23,-468.9C736.23,-468.9 696.5,-468.9 696.5,-468.9 690.5,-468.9 684.5,-462.9 684.5,-456.9 684.5,-456.9 684.5,-441.5 684.5,-441.5 684.5,-435.5 690.5,-429.5 696.5,-429.5 696.5,-429.5 736.23,-429.5 736.23,-429.5 742.23,-429.5 748.23,-435.5 748.23,-441.5 748.23,-441.5 748.23,-456.9 748.23,-456.9 748.23,-462.9 742.23,-468.9 736.23,-468.9"/>
<text xml:space="preserve" text-anchor="start" x="693.87" y="-450.35" font-family="Inter,Arial" font-weight="bold" font-size="13.00" fill="#172033">approx</text>
<text xml:space="preserve" text-anchor="start" x="703.24" y="-438.3" font-family="Inter,Arial" font-size="12.00" fill="#172033">0.5.1</text>
</g>
<!-- n0&#45;&gt;n1 -->
<g id="edge5" class="edge">
<title>n0&#45;&gt;n1</title>
<path fill="none" stroke="#9aa8b8" stroke-width="0.9" d="M311.15,-348.27C324.25,-351.99 337.88,-355.78 350.69,-359.2 469.47,-390.9 611.08,-424.72 677.47,-440.34"/>
<polygon fill="#9aa8b8" stroke="#9aa8b8" stroke-width="0.9" points="676.92,-442.19 682.72,-441.58 677.8,-438.44 676.92,-442.19"/>
</g>
<!-- n3 -->
<g id="node4" class="node">
<title>n3</title>
<path fill="#f7f9fb" stroke="#8b9bb0" d="M432.79,-486.9C432.79,-486.9 399.82,-486.9 399.82,-486.9 393.82,-486.9 387.82,-480.9 387.82,-474.9 387.82,-474.9 387.82,-459.5 387.82,-459.5 387.82,-453.5 393.82,-447.5 399.82,-447.5 399.82,-447.5 432.79,-447.5 432.79,-447.5 438.79,-447.5 444.79,-453.5 444.79,-459.5 444.79,-459.5 444.79,-474.9 444.79,-474.9 444.79,-480.9 438.79,-486.9 432.79,-486.9"/>
<text xml:space="preserve" text-anchor="start" x="397.18" y="-468.35" font-family="Inter,Arial" font-weight="bold" font-size="13.00" fill="#172033">glamx</text>
<text xml:space="preserve" text-anchor="start" x="403.18" y="-456.3" font-family="Inter,Arial" font-size="12.00" fill="#172033">0.1.3</text>
</g>
<!-- n0&#45;&gt;n3 -->
<g id="edge6" class="edge">
<title>n0&#45;&gt;n3</title>
<path fill="none" stroke="#9aa8b8" stroke-width="0.9" d="M306.22,-390.99C320.39,-403.86 335.68,-416.91 350.69,-428.2 360.32,-435.44 371.36,-442.52 381.57,-448.6"/>
<polygon fill="#9aa8b8" stroke="#9aa8b8" stroke-width="0.9" points="380.57,-450.25 386.29,-451.38 382.52,-446.93 380.57,-450.25"/>
</g>
<!-- n5 -->
<g id="node6" class="node">
<title>n5</title>
<path fill="#f7f9fb" stroke="#8b9bb0" d="M611.88,-704.9C611.88,-704.9 533.91,-704.9 533.91,-704.9 527.91,-704.9 521.91,-698.9 521.91,-692.9 521.91,-692.9 521.91,-677.5 521.91,-677.5 521.91,-671.5 527.91,-665.5 533.91,-665.5 533.91,-665.5 611.88,-665.5 611.88,-665.5 617.88,-665.5 623.88,-671.5 623.88,-677.5 623.88,-677.5 623.88,-692.9 623.88,-692.9 623.88,-698.9 617.88,-704.9 611.88,-704.9"/>
<text xml:space="preserve" text-anchor="start" x="531.27" y="-686.35" font-family="Inter,Arial" font-weight="bold" font-size="13.00" fill="#172033">ordered&#45;float</text>
<text xml:space="preserve" text-anchor="start" x="559.77" y="-674.3" font-family="Inter,Arial" font-size="12.00" fill="#172033">5.3.0</text>
</g>
<!-- n0&#45;&gt;n5 -->
<g id="edge7" class="edge">
<title>n0&#45;&gt;n5</title>
<path fill="none" stroke="#9aa8b8" stroke-width="0.9" d="M245.7,-390.87C252.73,-463.66 275.79,-581.95 350.69,-646.2 395.78,-684.88 465.53,-691.33 514.63,-690.22"/>
<polygon fill="#9aa8b8" stroke="#9aa8b8" stroke-width="0.9" points="514.62,-692.15 520.06,-690.06 514.5,-688.3 514.62,-692.15"/>
</g>
<!-- n6 -->
<g id="node7" class="node">
<title>n6</title>
<path fill="#f7f9fb" stroke="#8b9bb0" d="M589.38,-370.9C589.38,-370.9 556.41,-370.9 556.41,-370.9 550.41,-370.9 544.41,-364.9 544.41,-358.9 544.41,-358.9 544.41,-343.5 544.41,-343.5 544.41,-337.5 550.41,-331.5 556.41,-331.5 556.41,-331.5 589.38,-331.5 589.38,-331.5 595.38,-331.5 601.38,-337.5 601.38,-343.5 601.38,-343.5 601.38,-358.9 601.38,-358.9 601.38,-364.9 595.38,-370.9 589.38,-370.9"/>
<text xml:space="preserve" text-anchor="start" x="553.77" y="-352.35" font-family="Inter,Arial" font-weight="bold" font-size="13.00" fill="#172033">simba</text>
<text xml:space="preserve" text-anchor="start" x="559.77" y="-340.3" font-family="Inter,Arial" font-size="12.00" fill="#172033">0.9.1</text>
</g>
<!-- n0&#45;&gt;n6 -->
<g id="edge8" class="edge">
<title>n0&#45;&gt;n6</title>
<path fill="none" stroke="#9aa8b8" stroke-width="0.9" d="M310.91,-332.97C380.08,-337.8 484.32,-345.08 537.71,-348.81"/>
<polygon fill="#9aa8b8" stroke="#9aa8b8" stroke-width="0.9" points="537.3,-350.71 542.92,-349.18 537.57,-346.87 537.3,-350.71"/>
</g>
<!-- out0 -->
<g id="node8" class="node">
<title>out0</title>
<polygon fill="#fff8e8" stroke="#d19922" points="458.66,-320.4 367.94,-320.4 367.94,-276 464.66,-276 464.66,-314.4 458.66,-320.4"/>
<polyline fill="none" stroke="#d19922" points="458.66,-320.4 458.66,-314.4"/>
<polyline fill="none" stroke="#d19922" points="464.66,-314.4 458.66,-314.4"/>
<text xml:space="preserve" text-anchor="start" x="377.3" y="-304.7" font-family="Inter,Arial" font-size="10.00" fill="#614000">to acpi&#45;v6.1.1.svg</text>
<text xml:space="preserve" text-anchor="start" x="399.05" y="-294.7" font-family="Inter,Arial" font-weight="bold" font-size="10.00" fill="#614000">bitflags</text>
<text xml:space="preserve" text-anchor="start" x="402.8" y="-284.7" font-family="Inter,Arial" font-size="10.00" fill="#614000">2.11.1</text>
</g>
<!-- n0&#45;&gt;out0 -->
<g id="edge11" class="edge">
<title>n0&#45;&gt;out0</title>
<path fill="none" stroke="#d19922" stroke-width="0.9" stroke-dasharray="5,2" d="M310.92,-316.34C327.49,-313.46 344.99,-310.42 360.83,-307.67"/>
<polygon fill="#d19922" stroke="#d19922" stroke-width="0.9" points="361.08,-309.58 366.17,-306.74 360.42,-305.78 361.08,-309.58"/>
</g>
<!-- out1 -->
<g id="node9" class="node">
<title>out1</title>
<polygon fill="#fff8e8" stroke="#d19922" points="930.32,-579.4 808.85,-579.4 808.85,-445 936.32,-445 936.32,-573.4 930.32,-579.4"/>
<polyline fill="none" stroke="#d19922" points="930.32,-579.4 930.32,-573.4"/>
<polyline fill="none" stroke="#d19922" points="936.32,-573.4 930.32,-573.4"/>
<text xml:space="preserve" text-anchor="start" x="823.84" y="-563.7" font-family="Inter,Arial" font-size="10.00" fill="#614000">to crab&#45;usb&#45;v0.9.1.svg</text>
<text xml:space="preserve" text-anchor="start" x="848.96" y="-553.7" font-family="Inter,Arial" font-weight="bold" font-size="10.00" fill="#614000">num&#45;traits</text>
<text xml:space="preserve" text-anchor="start" x="859.09" y="-543.7" font-family="Inter,Arial" font-size="10.00" fill="#614000">0.2.19</text>
<text xml:space="preserve" text-anchor="start" x="818.21" y="-533.7" font-family="Inter,Arial" font-size="10.00" fill="#614000">/vendor/num&#45;traits&#45;0.2.19</text>
<text xml:space="preserve" text-anchor="start" x="846.34" y="-523.7" font-family="Inter,Arial" font-weight="bold" font-size="10.00" fill="#614000">num&#45;derive</text>
<text xml:space="preserve" text-anchor="start" x="861.71" y="-513.7" font-family="Inter,Arial" font-size="10.00" fill="#614000">0.4.2</text>
<text xml:space="preserve" text-anchor="start" x="848.21" y="-503.7" font-family="Inter,Arial" font-size="10.00" fill="#614000">proc&#45;macro</text>
<text xml:space="preserve" text-anchor="start" x="852.71" y="-493.7" font-family="Inter,Arial" font-weight="bold" font-size="10.00" fill="#614000">thiserror</text>
<text xml:space="preserve" text-anchor="start" x="859.09" y="-483.7" font-family="Inter,Arial" font-size="10.00" fill="#614000">2.0.18</text>
<text xml:space="preserve" text-anchor="start" x="860.21" y="-473.7" font-family="Inter,Arial" font-weight="bold" font-size="10.00" fill="#614000">paste</text>
<text xml:space="preserve" text-anchor="start" x="859.09" y="-463.7" font-family="Inter,Arial" font-size="10.00" fill="#614000">1.0.15</text>
<text xml:space="preserve" text-anchor="start" x="848.21" y="-453.7" font-family="Inter,Arial" font-size="10.00" fill="#614000">proc&#45;macro</text>
</g>
<!-- n0&#45;&gt;out1 -->
<g id="edge16" class="edge">
<title>n0&#45;&gt;out1</title>
<path fill="none" stroke="#d19922" stroke-width="0.9" stroke-dasharray="5,2" d="M271.24,-390.94C289.83,-426.32 316.91,-469.29 350.69,-499.2 413.72,-555.01 439.77,-561.75 521.91,-580.2 542.76,-584.88 752.2,-584.21 768.85,-579.2 780.48,-575.7 792.03,-570.43 802.96,-564.35"/>
<polygon fill="#d19922" stroke="#d19922" stroke-width="0.9" points="803.62,-566.2 807.43,-561.79 801.71,-562.86 803.62,-566.2"/>
</g>
<!-- out2 -->
<g id="node10" class="node">
<title>out2</title>
<polygon fill="#fff8e8" stroke="#d19922" points="475.91,-251.4 350.69,-251.4 350.69,-207 481.91,-207 481.91,-245.4 475.91,-251.4"/>
<polyline fill="none" stroke="#d19922" points="475.91,-251.4 475.91,-245.4"/>
<polyline fill="none" stroke="#d19922" points="481.91,-245.4 475.91,-245.4"/>
<text xml:space="preserve" text-anchor="start" x="360.05" y="-235.7" font-family="Inter,Arial" font-size="10.00" fill="#614000">to hashbrown&#45;v0.17.1.svg</text>
<text xml:space="preserve" text-anchor="start" x="396.05" y="-225.7" font-family="Inter,Arial" font-weight="bold" font-size="10.00" fill="#614000">foldhash</text>
<text xml:space="preserve" text-anchor="start" x="405.43" y="-215.7" font-family="Inter,Arial" font-size="10.00" fill="#614000">0.2.0</text>
</g>
<!-- n0&#45;&gt;out2 -->
<g id="edge18" class="edge">
<title>n0&#45;&gt;out2</title>
<path fill="none" stroke="#d19922" stroke-width="0.9" stroke-dasharray="5,2" d="M310.91,-286.34C324.03,-278.51 337.73,-270.5 350.69,-263.2 355.53,-260.47 360.61,-257.68 365.7,-254.93"/>
<polygon fill="#d19922" stroke="#d19922" stroke-width="0.9" points="366.54,-256.66 370.47,-252.37 364.72,-253.27 366.54,-256.66"/>
</g>
<!-- out3 -->
<g id="node11" class="node">
<title>out3</title>
<polygon fill="#fff8e8" stroke="#d19922" points="461.66,-182.4 364.94,-182.4 364.94,-138 467.66,-138 467.66,-176.4 461.66,-182.4"/>
<polyline fill="none" stroke="#d19922" points="461.66,-182.4 461.66,-176.4"/>
<polyline fill="none" stroke="#d19922" points="467.66,-176.4 461.66,-176.4"/>
<text xml:space="preserve" text-anchor="start" x="374.3" y="-166.7" font-family="Inter,Arial" font-size="10.00" fill="#614000">to hyper&#45;v1.9.0.svg</text>
<text xml:space="preserve" text-anchor="start" x="395.68" y="-156.7" font-family="Inter,Arial" font-weight="bold" font-size="10.00" fill="#614000">smallvec</text>
<text xml:space="preserve" text-anchor="start" x="402.8" y="-146.7" font-family="Inter,Arial" font-size="10.00" fill="#614000">1.15.1</text>
</g>
<!-- n0&#45;&gt;out3 -->
<g id="edge19" class="edge">
<title>n0&#45;&gt;out3</title>
<path fill="none" stroke="#d19922" stroke-width="0.9" stroke-dasharray="5,2" d="M284.78,-265.5C303.09,-241.25 326,-214.51 350.69,-194.2 354.04,-191.44 357.66,-188.81 361.4,-186.33"/>
<polygon fill="#d19922" stroke="#d19922" stroke-width="0.9" points="362.21,-188.09 365.81,-183.52 360.14,-184.85 362.21,-188.09"/>
</g>
<!-- out4 -->
<g id="node12" class="node">
<title>out4</title>
<polygon fill="#fff8e8" stroke="#d19922" points="463.91,-113.4 362.69,-113.4 362.69,-69 469.91,-69 469.91,-107.4 463.91,-113.4"/>
<polyline fill="none" stroke="#d19922" points="463.91,-113.4 463.91,-107.4"/>
<polyline fill="none" stroke="#d19922" points="469.91,-107.4 463.91,-107.4"/>
<text xml:space="preserve" text-anchor="start" x="372.05" y="-97.7" font-family="Inter,Arial" font-size="10.00" fill="#614000">to kurbo&#45;v0.11.3.svg</text>
<text xml:space="preserve" text-anchor="start" x="396.8" y="-87.7" font-family="Inter,Arial" font-weight="bold" font-size="10.00" fill="#614000">arrayvec</text>
<text xml:space="preserve" text-anchor="start" x="405.43" y="-77.7" font-family="Inter,Arial" font-size="10.00" fill="#614000">0.7.6</text>
</g>
<!-- n0&#45;&gt;out4 -->
<g id="edge20" class="edge">
<title>n0&#45;&gt;out4</title>
<path fill="none" stroke="#d19922" stroke-width="0.9" stroke-dasharray="5,2" d="M264.54,-265.69C282.3,-222.05 310.94,-164.77 350.69,-125.2 353.46,-122.44 356.5,-119.85 359.71,-117.44"/>
<polygon fill="#d19922" stroke="#d19922" stroke-width="0.9" points="360.38,-119.32 363.75,-114.57 358.15,-116.18 360.38,-119.32"/>
</g>
<!-- out6 -->
<g id="node14" class="node">
<title>out6</title>
<polygon fill="#fff8e8" stroke="#d19922" points="458.66,-44.4 367.94,-44.4 367.94,0 464.66,0 464.66,-38.4 458.66,-44.4"/>
<polyline fill="none" stroke="#d19922" points="458.66,-44.4 458.66,-38.4"/>
<polyline fill="none" stroke="#d19922" points="464.66,-38.4 458.66,-38.4"/>
<text xml:space="preserve" text-anchor="start" x="377.3" y="-28.7" font-family="Inter,Arial" font-size="10.00" fill="#614000">to log&#45;v0.4.29.svg</text>
<text xml:space="preserve" text-anchor="start" x="408.8" y="-18.7" font-family="Inter,Arial" font-weight="bold" font-size="10.00" fill="#614000">log</text>
<text xml:space="preserve" text-anchor="start" x="402.8" y="-8.7" font-family="Inter,Arial" font-size="10.00" fill="#614000">0.4.29</text>
</g>
<!-- n0&#45;&gt;out6 -->
<g id="edge22" class="edge">
<title>n0&#45;&gt;out6</title>
<path fill="none" stroke="#d19922" stroke-width="0.9" stroke-dasharray="5,2" d="M254.47,-265.39C268.47,-205.52 297.03,-115.9 350.69,-56.2 354.09,-52.42 358,-48.99 362.19,-45.9"/>
<polygon fill="#d19922" stroke="#d19922" stroke-width="0.9" points="363.07,-47.63 366.51,-42.93 360.88,-44.46 363.07,-47.63"/>
</g>
<!-- n1&#45;&gt;out1 -->
<g id="edge12" class="edge">
<title>n1&#45;&gt;out1</title>
<path fill="none" stroke="#d19922" stroke-width="0.9" stroke-dasharray="5,2" d="M748.57,-461.95C764.07,-468.28 783.46,-476.2 802.23,-483.87"/>
<polygon fill="#d19922" stroke="#d19922" stroke-width="0.9" points="801.49,-485.64 807.3,-485.94 802.94,-482.08 801.49,-485.64"/>
</g>
<!-- n2 -->
<g id="node3" class="node">
<title>n2</title>
<path fill="#f7f9fb" stroke="#8b9bb0" d="M590.13,-537.9C590.13,-537.9 555.66,-537.9 555.66,-537.9 549.66,-537.9 543.66,-531.9 543.66,-525.9 543.66,-525.9 543.66,-510.5 543.66,-510.5 543.66,-504.5 549.66,-498.5 555.66,-498.5 555.66,-498.5 590.13,-498.5 590.13,-498.5 596.13,-498.5 602.13,-504.5 602.13,-510.5 602.13,-510.5 602.13,-525.9 602.13,-525.9 602.13,-531.9 596.13,-537.9 590.13,-537.9"/>
<text xml:space="preserve" text-anchor="start" x="557.52" y="-519.35" font-family="Inter,Arial" font-weight="bold" font-size="13.00" fill="#172033">glam</text>
<text xml:space="preserve" text-anchor="start" x="553.02" y="-507.3" font-family="Inter,Arial" font-size="12.00" fill="#172033">0.30.10</text>
</g>
<!-- n2&#45;&gt;n1 -->
<g id="edge1" class="edge">
<title>n2&#45;&gt;n1</title>
<path fill="none" stroke="#9aa8b8" stroke-width="0.9" d="M602.52,-504.24C624.41,-493.56 654.74,-478.77 678.45,-467.21"/>
<polygon fill="#9aa8b8" stroke="#9aa8b8" stroke-width="0.9" points="679,-469.08 683.1,-464.94 677.31,-465.62 679,-469.08"/>
</g>
<!-- out5 -->
<g id="node13" class="node">
<title>out5</title>
<polygon fill="#fff8e8" stroke="#d19922" points="761.35,-538.4 665.38,-538.4 665.38,-494 767.35,-494 767.35,-532.4 761.35,-538.4"/>
<polyline fill="none" stroke="#d19922" points="761.35,-538.4 761.35,-532.4"/>
<polyline fill="none" stroke="#d19922" points="767.35,-532.4 761.35,-532.4"/>
<text xml:space="preserve" text-anchor="start" x="674.74" y="-522.7" font-family="Inter,Arial" font-size="10.00" fill="#614000">to libm&#45;v0.2.16.svg</text>
<text xml:space="preserve" text-anchor="start" x="705.87" y="-512.7" font-family="Inter,Arial" font-weight="bold" font-size="10.00" fill="#614000">libm</text>
<text xml:space="preserve" text-anchor="start" x="702.87" y="-502.7" font-family="Inter,Arial" font-size="10.00" fill="#614000">0.2.16</text>
</g>
<!-- n2&#45;&gt;out5 -->
<g id="edge21" class="edge">
<title>n2&#45;&gt;out5</title>
<path fill="none" stroke="#d19922" stroke-width="0.9" stroke-dasharray="5,2" d="M602.52,-517.8C618.56,-517.57 639.13,-517.28 658.31,-517.01"/>
<polygon fill="#d19922" stroke="#d19922" stroke-width="0.9" points="658.19,-518.93 663.66,-516.93 658.13,-515.08 658.19,-518.93"/>
</g>
<!-- n3&#45;&gt;n1 -->
<g id="edge2" class="edge">
<title>n3&#45;&gt;n1</title>
<path fill="none" stroke="#9aa8b8" stroke-width="0.9" d="M445.07,-465.52C498.79,-462.28 616.95,-455.14 677.69,-451.48"/>
<polygon fill="#9aa8b8" stroke="#9aa8b8" stroke-width="0.9" points="677.72,-453.4 683.09,-451.15 677.48,-449.56 677.72,-453.4"/>
</g>
<!-- n3&#45;&gt;n2 -->
<g id="edge3" class="edge">
<title>n3&#45;&gt;n2</title>
<path fill="none" stroke="#9aa8b8" stroke-width="0.9" d="M444.94,-476.32C470.59,-484.78 508.89,-497.41 536.71,-506.59"/>
<polygon fill="#9aa8b8" stroke="#9aa8b8" stroke-width="0.9" points="536.07,-508.41 541.89,-508.3 537.27,-504.75 536.07,-508.41"/>
</g>
<!-- n3&#45;&gt;n6 -->
<g id="edge4" class="edge">
<title>n3&#45;&gt;n6</title>
<path fill="none" stroke="#9aa8b8" stroke-width="0.9" d="M443.88,-447.26C470.53,-427.26 511.6,-396.44 540,-375.13"/>
<polygon fill="#9aa8b8" stroke="#9aa8b8" stroke-width="0.9" points="540.82,-376.93 544.06,-372.09 538.5,-373.85 540.82,-376.93"/>
</g>
<!-- n3&#45;&gt;out1 -->
<g id="edge13" class="edge">
<title>n3&#45;&gt;out1</title>
<path fill="none" stroke="#d19922" stroke-width="0.9" stroke-dasharray="5,2" d="M434.58,-487.13C453.61,-507.42 486.27,-537.64 521.91,-550.2 625.42,-586.69 660.9,-571 768.85,-551.2 779.83,-549.19 791.16,-546.05 802.1,-542.42"/>
<polygon fill="#d19922" stroke="#d19922" stroke-width="0.9" points="802.63,-544.28 807.21,-540.67 801.38,-540.64 802.63,-544.28"/>
</g>
<!-- n4 -->
<g id="node5" class="node">
<title>n4</title>
<path fill="#f7f9fb" stroke="#8b9bb0" d="M756.85,-352.9C756.85,-352.9 675.88,-352.9 675.88,-352.9 669.88,-352.9 663.88,-346.9 663.88,-340.9 663.88,-340.9 663.88,-325.5 663.88,-325.5 663.88,-319.5 669.88,-313.5 675.88,-313.5 675.88,-313.5 756.85,-313.5 756.85,-313.5 762.85,-313.5 768.85,-319.5 768.85,-325.5 768.85,-325.5 768.85,-340.9 768.85,-340.9 768.85,-346.9 762.85,-352.9 756.85,-352.9"/>
<text xml:space="preserve" text-anchor="start" x="673.24" y="-334.35" font-family="Inter,Arial" font-weight="bold" font-size="13.00" fill="#172033">num&#45;complex</text>
<text xml:space="preserve" text-anchor="start" x="703.24" y="-322.3" font-family="Inter,Arial" font-size="12.00" fill="#172033">0.4.6</text>
</g>
<!-- n4&#45;&gt;out1 -->
<g id="edge14" class="edge">
<title>n4&#45;&gt;out1</title>
<path fill="none" stroke="#d19922" stroke-width="0.9" stroke-dasharray="5,2" d="M746.91,-353.27C754.43,-358.98 762.24,-365.49 768.85,-372.2 788.73,-392.38 807.86,-416.61 824.1,-439.2"/>
<polygon fill="#d19922" stroke="#d19922" stroke-width="0.9" points="822.4,-440.13 827.16,-443.49 825.54,-437.89 822.4,-440.13"/>
</g>
<!-- n5&#45;&gt;out1 -->
<g id="edge15" class="edge">
<title>n5&#45;&gt;out1</title>
<path fill="none" stroke="#d19922" stroke-width="0.9" stroke-dasharray="5,2" d="M624.3,-684.73C665.92,-682.2 725.05,-673.48 768.85,-646.2 793.15,-631.06 813.87,-607.97 830.19,-585.2"/>
<polygon fill="#d19922" stroke="#d19922" stroke-width="0.9" points="831.66,-586.45 833.25,-580.85 828.51,-584.24 831.66,-586.45"/>
</g>
<!-- n6&#45;&gt;n1 -->
<g id="edge9" class="edge">
<title>n6&#45;&gt;n1</title>
<path fill="none" stroke="#9aa8b8" stroke-width="0.9" d="M601.84,-370.56C624.6,-386.33 656.83,-408.65 681.13,-425.49"/>
<polygon fill="#9aa8b8" stroke="#9aa8b8" stroke-width="0.9" points="679.76,-426.88 685.38,-428.43 681.96,-423.72 679.76,-426.88"/>
</g>
<!-- n6&#45;&gt;n4 -->
<g id="edge10" class="edge">
<title>n6&#45;&gt;n4</title>
<path fill="none" stroke="#9aa8b8" stroke-width="0.9" d="M601.84,-347.64C617.62,-345.64 637.93,-343.05 657.01,-340.62"/>
<polygon fill="#9aa8b8" stroke="#9aa8b8" stroke-width="0.9" points="656.86,-342.58 662.07,-339.98 656.37,-338.77 656.86,-342.58"/>
</g>
<!-- n6&#45;&gt;out1 -->
<g id="edge17" class="edge">
<title>n6&#45;&gt;out1</title>
<path fill="none" stroke="#d19922" stroke-width="0.9" stroke-dasharray="5,2" d="M601.6,-356.72C640.87,-365.38 714.02,-384.61 768.85,-417.2 780.8,-424.31 792.54,-432.98 803.57,-442.17"/>
<polygon fill="#d19922" stroke="#d19922" stroke-width="0.9" points="802.11,-443.46 807.55,-445.55 804.6,-440.52 802.11,-443.46"/>
</g>
<!-- in7 -->
<g id="node15" class="node">
<title>in7</title>
<polygon fill="#eef6ff" stroke="#4b8fc5" points="126.72,-350.4 0,-350.4 0,-306 132.72,-306 132.72,-344.4 126.72,-350.4"/>
<polyline fill="none" stroke="#4b8fc5" points="126.72,-350.4 126.72,-344.4"/>
<polyline fill="none" stroke="#4b8fc5" points="132.72,-344.4 126.72,-344.4"/>
<text xml:space="preserve" text-anchor="start" x="9.36" y="-334.7" font-family="Inter,Arial" font-size="10.00" fill="#123d5c">from trueos&#45;qjs&#45;v0.1.0.svg</text>
<text xml:space="preserve" text-anchor="start" x="48.74" y="-324.7" font-family="Inter,Arial" font-weight="bold" font-size="10.00" fill="#123d5c">parry2d</text>
<text xml:space="preserve" text-anchor="start" x="52.86" y="-314.7" font-family="Inter,Arial" font-size="10.00" fill="#123d5c">0.26.0</text>
</g>
<!-- in7&#45;&gt;n0 -->
<g id="edge23" class="edge">
<title>in7&#45;&gt;n0</title>
<path fill="none" stroke="#4b8fc5" stroke-width="0.9" stroke-dasharray="5,2" d="M132.89,-328.2C143.61,-328.2 154.79,-328.2 165.72,-328.2"/>
<polygon fill="#4b8fc5" stroke="#4b8fc5" stroke-width="0.9" points="165.62,-330.13 171.12,-328.2 165.62,-326.28 165.62,-330.13"/>
</g>
</g>
</svg>
