<?xml version="1.0" encoding="UTF-8" standalone="no"?>
<!DOCTYPE svg PUBLIC "-//W3C//DTD SVG 1.1//EN"
 "http://www.w3.org/Graphics/SVG/1.1/DTD/svg11.dtd">
<!-- Generated by graphviz version 14.1.2 (0)
 -->
<!-- Title: parry2d&#45;v0.26.0 Pages: 1 -->
<svg width="834pt" height="671pt"
 viewBox="0.00 0.00 834.00 671.00" xmlns="http://www.w3.org/2000/svg" xmlns:xlink="http://www.w3.org/1999/xlink">
<g id="graph0" class="graph" transform="scale(1 1) rotate(0) translate(4 666.6)">
<title>parry2d&#45;v0.26.0</title>
<polygon fill="white" stroke="none" points="-4,4 -4,-666.6 829.87,-666.6 829.87,4 -4,4"/>
<!-- n0 -->
<g id="node1" class="node">
<title>n0</title>
<path fill="#dff3ff" stroke="#1b78a6" d="M244.04,-329.95C244.04,-329.95 177.52,-329.95 177.52,-329.95 171.52,-329.95 165.52,-323.95 165.52,-317.95 165.52,-317.95 165.52,-271.25 165.52,-271.25 165.52,-265.25 171.52,-259.25 177.52,-259.25 177.52,-259.25 244.04,-259.25 244.04,-259.25 250.04,-259.25 256.04,-265.25 256.04,-271.25 256.04,-271.25 256.04,-317.95 256.04,-317.95 256.04,-323.95 250.04,-329.95 244.04,-329.95"/>
<text xml:space="preserve" text-anchor="start" x="193.15" y="-317.85" font-family="Inter,Arial" font-weight="bold" font-size="10.00" fill="#172033">parry2d</text>
<text xml:space="preserve" text-anchor="start" x="197.28" y="-304.85" font-family="Inter,Arial" font-size="10.00" fill="#172033">0.26.0</text>
<text xml:space="preserve" text-anchor="start" x="176.28" y="-290.75" font-family="Inter,Arial" font-weight="bold" font-size="8.00" fill="#172033">downcast&#45;rs</text>
<text xml:space="preserve" text-anchor="start" x="225.03" y="-290.75" font-family="Inter,Arial" font-size="8.00" fill="#172033"> 2.0.2</text>
<path fill="none" stroke="#9aa8b8" d="M177.86,-282.6C177.86,-282.6 243.7,-282.6 243.7,-282.6 246.99,-282.6 250.28,-285.89 250.28,-289.18 250.28,-289.18 250.28,-295.77 250.28,-295.77 250.28,-299.06 246.99,-302.35 243.7,-302.35 243.7,-302.35 177.86,-302.35 177.86,-302.35 174.57,-302.35 171.28,-299.06 171.28,-295.77 171.28,-295.77 171.28,-289.18 171.28,-289.18 171.28,-285.89 174.57,-282.6 177.86,-282.6"/>
<text xml:space="preserve" text-anchor="start" x="187.15" y="-271" font-family="Inter,Arial" font-weight="bold" font-size="8.00" fill="#172033">either</text>
<text xml:space="preserve" text-anchor="start" x="209.65" y="-271" font-family="Inter,Arial" font-size="8.00" fill="#172033"> 1.15.0</text>
<path fill="none" stroke="#9aa8b8" d="M177.86,-262.85C177.86,-262.85 243.7,-262.85 243.7,-262.85 246.99,-262.85 250.28,-266.14 250.28,-269.43 250.28,-269.43 250.28,-276.02 250.28,-276.02 250.28,-279.31 246.99,-282.6 243.7,-282.6 243.7,-282.6 177.86,-282.6 177.86,-282.6 174.57,-282.6 171.28,-279.31 171.28,-276.02 171.28,-276.02 171.28,-269.43 171.28,-269.43 171.28,-266.14 174.57,-262.85 177.86,-262.85"/>
</g>
<!-- n1 -->
<g id="node2" class="node">
<title>n1</title>
<path fill="#f7f9fb" stroke="#8b9bb0" d="M633.21,-436.6C633.21,-436.6 603.21,-436.6 603.21,-436.6 597.21,-436.6 591.21,-430.6 591.21,-424.6 591.21,-424.6 591.21,-412.6 591.21,-412.6 591.21,-406.6 597.21,-400.6 603.21,-400.6 603.21,-400.6 633.21,-400.6 633.21,-400.6 639.21,-400.6 645.21,-406.6 645.21,-412.6 645.21,-412.6 645.21,-424.6 645.21,-424.6 645.21,-430.6 639.21,-436.6 633.21,-436.6"/>
<text xml:space="preserve" text-anchor="start" x="602.09" y="-420.1" font-family="Inter,Arial" font-weight="bold" font-size="10.00" fill="#172033">approx</text>
<text xml:space="preserve" text-anchor="start" x="607.34" y="-410.1" font-family="Inter,Arial" font-size="10.00" fill="#172033">0.5.1</text>
</g>
<!-- n0&#45;&gt;n1 -->
<g id="edge5" class="edge">
<title>n0&#45;&gt;n1</title>
<path fill="none" stroke="#9aa8b8" stroke-width="0.9" d="M256.13,-312.24C268.93,-317.12 282.97,-322.26 296.04,-326.6 400.18,-361.22 525.83,-394.92 584.3,-410.15"/>
<polygon fill="#9aa8b8" stroke="#9aa8b8" stroke-width="0.9" points="583.63,-411.97 589.44,-411.49 584.6,-408.24 583.63,-411.97"/>
</g>
<!-- n3 -->
<g id="node4" class="node">
<title>n3</title>
<path fill="#f7f9fb" stroke="#8b9bb0" d="M373.05,-448.6C373.05,-448.6 343.05,-448.6 343.05,-448.6 337.05,-448.6 331.05,-442.6 331.05,-436.6 331.05,-436.6 331.05,-424.6 331.05,-424.6 331.05,-418.6 337.05,-412.6 343.05,-412.6 343.05,-412.6 373.05,-412.6 373.05,-412.6 379.05,-412.6 385.05,-418.6 385.05,-424.6 385.05,-424.6 385.05,-436.6 385.05,-436.6 385.05,-442.6 379.05,-448.6 373.05,-448.6"/>
<text xml:space="preserve" text-anchor="start" x="343.8" y="-432.1" font-family="Inter,Arial" font-weight="bold" font-size="10.00" fill="#172033">glamx</text>
<text xml:space="preserve" text-anchor="start" x="347.17" y="-422.1" font-family="Inter,Arial" font-size="10.00" fill="#172033">0.1.3</text>
</g>
<!-- n0&#45;&gt;n3 -->
<g id="edge6" class="edge">
<title>n0&#45;&gt;n3</title>
<path fill="none" stroke="#9aa8b8" stroke-width="0.9" d="M237.41,-330.05C252.98,-350.12 274.05,-374.87 296.04,-393.6 304.71,-400.98 315.02,-407.83 324.67,-413.58"/>
<polygon fill="#9aa8b8" stroke="#9aa8b8" stroke-width="0.9" points="323.68,-415.23 329.4,-416.33 325.61,-411.9 323.68,-415.23"/>
</g>
<!-- n5 -->
<g id="node6" class="node">
<title>n5</title>
<path fill="#f7f9fb" stroke="#8b9bb0" d="M518.83,-662.6C518.83,-662.6 472.06,-662.6 472.06,-662.6 466.06,-662.6 460.06,-656.6 460.06,-650.6 460.06,-650.6 460.06,-638.6 460.06,-638.6 460.06,-632.6 466.06,-626.6 472.06,-626.6 472.06,-626.6 518.83,-626.6 518.83,-626.6 524.83,-626.6 530.83,-632.6 530.83,-638.6 530.83,-638.6 530.83,-650.6 530.83,-650.6 530.83,-656.6 524.83,-662.6 518.83,-662.6"/>
<text xml:space="preserve" text-anchor="start" x="465.82" y="-646.1" font-family="Inter,Arial" font-weight="bold" font-size="10.00" fill="#172033">ordered&#45;float</text>
<text xml:space="preserve" text-anchor="start" x="484.57" y="-636.1" font-family="Inter,Arial" font-size="10.00" fill="#172033">5.3.0</text>
</g>
<!-- n0&#45;&gt;n5 -->
<g id="edge7" class="edge">
<title>n0&#45;&gt;n5</title>
<path fill="none" stroke="#9aa8b8" stroke-width="0.9" d="M216.58,-330.25C227.24,-404.07 255.23,-569.88 296.04,-607.6 338.5,-646.85 408.67,-650.87 453.17,-648.77"/>
<polygon fill="#9aa8b8" stroke="#9aa8b8" stroke-width="0.9" points="453.07,-650.71 458.46,-648.48 452.86,-646.86 453.07,-650.71"/>
</g>
<!-- n6 -->
<g id="node7" class="node">
<title>n6</title>
<path fill="#f7f9fb" stroke="#8b9bb0" d="M510.44,-336.6C510.44,-336.6 480.44,-336.6 480.44,-336.6 474.44,-336.6 468.44,-330.6 468.44,-324.6 468.44,-324.6 468.44,-312.6 468.44,-312.6 468.44,-306.6 474.44,-300.6 480.44,-300.6 480.44,-300.6 510.44,-300.6 510.44,-300.6 516.44,-300.6 522.44,-306.6 522.44,-312.6 522.44,-312.6 522.44,-324.6 522.44,-324.6 522.44,-330.6 516.44,-336.6 510.44,-336.6"/>
<text xml:space="preserve" text-anchor="start" x="481.19" y="-320.1" font-family="Inter,Arial" font-weight="bold" font-size="10.00" fill="#172033">simba</text>
<text xml:space="preserve" text-anchor="start" x="484.57" y="-310.1" font-family="Inter,Arial" font-size="10.00" fill="#172033">0.9.1</text>
</g>
<!-- n0&#45;&gt;n6 -->
<g id="edge8" class="edge">
<title>n0&#45;&gt;n6</title>
<path fill="none" stroke="#9aa8b8" stroke-width="0.9" d="M256.26,-298.38C313.25,-303.22 410.71,-311.49 461.49,-315.8"/>
<polygon fill="#9aa8b8" stroke="#9aa8b8" stroke-width="0.9" points="461.04,-317.7 466.69,-316.24 461.37,-313.86 461.04,-317.7"/>
</g>
<!-- out0 -->
<g id="node8" class="node">
<title>out0</title>
<polygon fill="#fff8e8" stroke="#d19922" points="396.81,-285.2 313.29,-285.2 313.29,-248 402.81,-248 402.81,-279.2 396.81,-285.2"/>
<polyline fill="none" stroke="#d19922" points="396.81,-285.2 396.81,-279.2"/>
<polyline fill="none" stroke="#d19922" points="402.81,-279.2 396.81,-279.2"/>
<text xml:space="preserve" text-anchor="start" x="319.05" y="-273.1" font-family="Inter,Arial" font-size="10.00" fill="#614000">to acpi&#45;v6.1.1.svg</text>
<text xml:space="preserve" text-anchor="start" x="340.8" y="-263.1" font-family="Inter,Arial" font-weight="bold" font-size="10.00" fill="#614000">bitflags</text>
<text xml:space="preserve" text-anchor="start" x="344.55" y="-253.1" font-family="Inter,Arial" font-size="10.00" fill="#614000">2.11.1</text>
</g>
<!-- n0&#45;&gt;out0 -->
<g id="edge11" class="edge">
<title>n0&#45;&gt;out0</title>
<path fill="none" stroke="#d19922" stroke-width="0.9" stroke-dasharray="5,2" d="M256.16,-286.05C272.07,-282.98 290.12,-279.5 306.51,-276.34"/>
<polygon fill="#d19922" stroke="#d19922" stroke-width="0.9" points="306.57,-278.29 311.61,-275.36 305.84,-274.51 306.57,-278.29"/>
</g>
<!-- out1 -->
<g id="node9" class="node">
<title>out1</title>
<polygon fill="#fff8e8" stroke="#d19922" points="819.87,-541.2 705.6,-541.2 705.6,-414 825.87,-414 825.87,-535.2 819.87,-541.2"/>
<polyline fill="none" stroke="#d19922" points="819.87,-541.2 819.87,-535.2"/>
<polyline fill="none" stroke="#d19922" points="825.87,-535.2 819.87,-535.2"/>
<text xml:space="preserve" text-anchor="start" x="716.98" y="-529.1" font-family="Inter,Arial" font-size="10.00" fill="#614000">to crab&#45;usb&#45;v0.9.1.svg</text>
<text xml:space="preserve" text-anchor="start" x="742.11" y="-519.1" font-family="Inter,Arial" font-weight="bold" font-size="10.00" fill="#614000">num&#45;traits</text>
<text xml:space="preserve" text-anchor="start" x="752.23" y="-509.1" font-family="Inter,Arial" font-size="10.00" fill="#614000">0.2.19</text>
<text xml:space="preserve" text-anchor="start" x="711.36" y="-499.1" font-family="Inter,Arial" font-size="10.00" fill="#614000">/vendor/num&#45;traits&#45;0.2.19</text>
<text xml:space="preserve" text-anchor="start" x="739.48" y="-489.1" font-family="Inter,Arial" font-weight="bold" font-size="10.00" fill="#614000">num&#45;derive</text>
<text xml:space="preserve" text-anchor="start" x="754.86" y="-479.1" font-family="Inter,Arial" font-size="10.00" fill="#614000">0.4.2</text>
<text xml:space="preserve" text-anchor="start" x="741.36" y="-469.1" font-family="Inter,Arial" font-size="10.00" fill="#614000">proc&#45;macro</text>
<text xml:space="preserve" text-anchor="start" x="745.86" y="-459.1" font-family="Inter,Arial" font-weight="bold" font-size="10.00" fill="#614000">thiserror</text>
<text xml:space="preserve" text-anchor="start" x="752.23" y="-449.1" font-family="Inter,Arial" font-size="10.00" fill="#614000">2.0.18</text>
<text xml:space="preserve" text-anchor="start" x="753.36" y="-439.1" font-family="Inter,Arial" font-weight="bold" font-size="10.00" fill="#614000">paste</text>
<text xml:space="preserve" text-anchor="start" x="752.23" y="-429.1" font-family="Inter,Arial" font-size="10.00" fill="#614000">1.0.15</text>
<text xml:space="preserve" text-anchor="start" x="741.36" y="-419.1" font-family="Inter,Arial" font-size="10.00" fill="#614000">proc&#45;macro</text>
</g>
<!-- n0&#45;&gt;out1 -->
<g id="edge16" class="edge">
<title>n0&#45;&gt;out1</title>
<path fill="none" stroke="#d19922" stroke-width="0.9" stroke-dasharray="5,2" d="M222.05,-330.38C234.28,-367.29 257.97,-424.42 296.04,-460.6 353.88,-515.57 382.01,-517.02 460.06,-533.6 549.42,-552.59 577.25,-556.83 665.6,-533.6 676.97,-530.61 688.41,-525.99 699.27,-520.65"/>
<polygon fill="#d19922" stroke="#d19922" stroke-width="0.9" points="700,-522.44 704.03,-518.23 698.25,-519.01 700,-522.44"/>
</g>
<!-- out2 -->
<g id="node10" class="node">
<title>out2</title>
<polygon fill="#fff8e8" stroke="#d19922" points="414.06,-223.2 296.04,-223.2 296.04,-186 420.06,-186 420.06,-217.2 414.06,-223.2"/>
<polyline fill="none" stroke="#d19922" points="414.06,-223.2 414.06,-217.2"/>
<polyline fill="none" stroke="#d19922" points="420.06,-217.2 414.06,-217.2"/>
<text xml:space="preserve" text-anchor="start" x="301.8" y="-211.1" font-family="Inter,Arial" font-size="10.00" fill="#614000">to hashbrown&#45;v0.17.1.svg</text>
<text xml:space="preserve" text-anchor="start" x="337.8" y="-201.1" font-family="Inter,Arial" font-weight="bold" font-size="10.00" fill="#614000">foldhash</text>
<text xml:space="preserve" text-anchor="start" x="347.17" y="-191.1" font-family="Inter,Arial" font-size="10.00" fill="#614000">0.2.0</text>
</g>
<!-- n0&#45;&gt;out2 -->
<g id="edge18" class="edge">
<title>n0&#45;&gt;out2</title>
<path fill="none" stroke="#d19922" stroke-width="0.9" stroke-dasharray="5,2" d="M256.48,-261.56C269.04,-252.75 282.87,-243.5 296.04,-235.6 301.05,-232.59 306.39,-229.6 311.75,-226.72"/>
<polygon fill="#d19922" stroke="#d19922" stroke-width="0.9" points="312.39,-228.56 316.35,-224.28 310.59,-225.15 312.39,-228.56"/>
</g>
<!-- out3 -->
<g id="node11" class="node">
<title>out3</title>
<polygon fill="#fff8e8" stroke="#d19922" points="399.81,-161.2 310.29,-161.2 310.29,-124 405.81,-124 405.81,-155.2 399.81,-161.2"/>
<polyline fill="none" stroke="#d19922" points="399.81,-161.2 399.81,-155.2"/>
<polyline fill="none" stroke="#d19922" points="405.81,-155.2 399.81,-155.2"/>
<text xml:space="preserve" text-anchor="start" x="316.05" y="-149.1" font-family="Inter,Arial" font-size="10.00" fill="#614000">to hyper&#45;v1.9.0.svg</text>
<text xml:space="preserve" text-anchor="start" x="337.42" y="-139.1" font-family="Inter,Arial" font-weight="bold" font-size="10.00" fill="#614000">smallvec</text>
<text xml:space="preserve" text-anchor="start" x="344.55" y="-129.1" font-family="Inter,Arial" font-size="10.00" fill="#614000">1.15.1</text>
</g>
<!-- n0&#45;&gt;out3 -->
<g id="edge19" class="edge">
<title>n0&#45;&gt;out3</title>
<path fill="none" stroke="#d19922" stroke-width="0.9" stroke-dasharray="5,2" d="M230.24,-259.01C245.21,-232.82 268.33,-197.72 296.04,-173.6 299.55,-170.54 303.42,-167.7 307.45,-165.06"/>
<polygon fill="#d19922" stroke="#d19922" stroke-width="0.9" points="308.2,-166.86 311.87,-162.33 306.18,-163.59 308.2,-166.86"/>
</g>
<!-- out4 -->
<g id="node12" class="node">
<title>out4</title>
<polygon fill="#fff8e8" stroke="#d19922" points="402.06,-99.2 308.04,-99.2 308.04,-62 408.06,-62 408.06,-93.2 402.06,-99.2"/>
<polyline fill="none" stroke="#d19922" points="402.06,-99.2 402.06,-93.2"/>
<polyline fill="none" stroke="#d19922" points="408.06,-93.2 402.06,-93.2"/>
<text xml:space="preserve" text-anchor="start" x="313.8" y="-87.1" font-family="Inter,Arial" font-size="10.00" fill="#614000">to kurbo&#45;v0.11.3.svg</text>
<text xml:space="preserve" text-anchor="start" x="338.55" y="-77.1" font-family="Inter,Arial" font-weight="bold" font-size="10.00" fill="#614000">arrayvec</text>
<text xml:space="preserve" text-anchor="start" x="347.17" y="-67.1" font-family="Inter,Arial" font-size="10.00" fill="#614000">0.7.6</text>
</g>
<!-- n0&#45;&gt;out4 -->
<g id="edge20" class="edge">
<title>n0&#45;&gt;out4</title>
<path fill="none" stroke="#d19922" stroke-width="0.9" stroke-dasharray="5,2" d="M220.57,-258.89C232.02,-218.74 255.54,-153.69 296.04,-111.6 298.91,-108.62 302.12,-105.88 305.53,-103.37"/>
<polygon fill="#d19922" stroke="#d19922" stroke-width="0.9" points="306.46,-105.07 309.91,-100.37 304.29,-101.89 306.46,-105.07"/>
</g>
<!-- out6 -->
<g id="node14" class="node">
<title>out6</title>
<polygon fill="#fff8e8" stroke="#d19922" points="396.81,-37.2 313.29,-37.2 313.29,0 402.81,0 402.81,-31.2 396.81,-37.2"/>
<polyline fill="none" stroke="#d19922" points="396.81,-37.2 396.81,-31.2"/>
<polyline fill="none" stroke="#d19922" points="402.81,-31.2 396.81,-31.2"/>
<text xml:space="preserve" text-anchor="start" x="319.05" y="-25.1" font-family="Inter,Arial" font-size="10.00" fill="#614000">to log&#45;v0.4.29.svg</text>
<text xml:space="preserve" text-anchor="start" x="350.55" y="-15.1" font-family="Inter,Arial" font-weight="bold" font-size="10.00" fill="#614000">log</text>
<text xml:space="preserve" text-anchor="start" x="344.55" y="-5.1" font-family="Inter,Arial" font-size="10.00" fill="#614000">0.4.29</text>
</g>
<!-- n0&#45;&gt;out6 -->
<g id="edge22" class="edge">
<title>n0&#45;&gt;out6</title>
<path fill="none" stroke="#d19922" stroke-width="0.9" stroke-dasharray="5,2" d="M215.6,-258.79C222.83,-206.99 242.9,-110.68 296.04,-49.6 299.38,-45.76 303.32,-42.33 307.56,-39.29"/>
<polygon fill="#d19922" stroke="#d19922" stroke-width="0.9" points="308.4,-41.04 311.93,-36.39 306.28,-37.83 308.4,-41.04"/>
</g>
<!-- n1&#45;&gt;out1 -->
<g id="edge12" class="edge">
<title>n1&#45;&gt;out1</title>
<path fill="none" stroke="#d19922" stroke-width="0.9" stroke-dasharray="5,2" d="M645.57,-429.28C660.71,-435.42 680.45,-443.43 699.5,-451.15"/>
<polygon fill="#d19922" stroke="#d19922" stroke-width="0.9" points="698.3,-452.74 704.12,-453.03 699.75,-449.17 698.3,-452.74"/>
</g>
<!-- n2 -->
<g id="node3" class="node">
<title>n2</title>
<path fill="#f7f9fb" stroke="#8b9bb0" d="M510.44,-499.6C510.44,-499.6 480.44,-499.6 480.44,-499.6 474.44,-499.6 468.44,-493.6 468.44,-487.6 468.44,-487.6 468.44,-475.6 468.44,-475.6 468.44,-469.6 474.44,-463.6 480.44,-463.6 480.44,-463.6 510.44,-463.6 510.44,-463.6 516.44,-463.6 522.44,-469.6 522.44,-475.6 522.44,-475.6 522.44,-487.6 522.44,-487.6 522.44,-493.6 516.44,-499.6 510.44,-499.6"/>
<text xml:space="preserve" text-anchor="start" x="483.82" y="-483.1" font-family="Inter,Arial" font-weight="bold" font-size="10.00" fill="#172033">glam</text>
<text xml:space="preserve" text-anchor="start" x="479.32" y="-473.1" font-family="Inter,Arial" font-size="10.00" fill="#172033">0.30.10</text>
</g>
<!-- n2&#45;&gt;n1 -->
<g id="edge1" class="edge">
<title>n2&#45;&gt;n1</title>
<path fill="none" stroke="#9aa8b8" stroke-width="0.9" d="M522.65,-467.93C541.01,-458.35 565.65,-445.5 585.18,-435.31"/>
<polygon fill="#9aa8b8" stroke="#9aa8b8" stroke-width="0.9" points="585.87,-437.12 589.85,-432.87 584.09,-433.71 585.87,-437.12"/>
</g>
<!-- out5 -->
<g id="node13" class="node">
<title>out5</title>
<polygon fill="#fff8e8" stroke="#d19922" points="659.6,-499.2 570.83,-499.2 570.83,-462 665.6,-462 665.6,-493.2 659.6,-499.2"/>
<polyline fill="none" stroke="#d19922" points="659.6,-499.2 659.6,-493.2"/>
<polyline fill="none" stroke="#d19922" points="665.6,-493.2 659.6,-493.2"/>
<text xml:space="preserve" text-anchor="start" x="576.59" y="-487.1" font-family="Inter,Arial" font-size="10.00" fill="#614000">to libm&#45;v0.2.16.svg</text>
<text xml:space="preserve" text-anchor="start" x="607.71" y="-477.1" font-family="Inter,Arial" font-weight="bold" font-size="10.00" fill="#614000">libm</text>
<text xml:space="preserve" text-anchor="start" x="604.71" y="-467.1" font-family="Inter,Arial" font-size="10.00" fill="#614000">0.2.16</text>
</g>
<!-- n2&#45;&gt;out5 -->
<g id="edge21" class="edge">
<title>n2&#45;&gt;out5</title>
<path fill="none" stroke="#d19922" stroke-width="0.9" stroke-dasharray="5,2" d="M522.65,-481.38C534.8,-481.28 549.71,-481.16 564.06,-481.04"/>
<polygon fill="#d19922" stroke="#d19922" stroke-width="0.9" points="563.76,-482.97 569.24,-481 563.73,-479.12 563.76,-482.97"/>
</g>
<!-- n3&#45;&gt;n1 -->
<g id="edge2" class="edge">
<title>n3&#45;&gt;n1</title>
<path fill="none" stroke="#9aa8b8" stroke-width="0.9" d="M385.22,-429.38C432.58,-427.18 532.37,-422.54 584.28,-420.13"/>
<polygon fill="#9aa8b8" stroke="#9aa8b8" stroke-width="0.9" points="584.21,-422.06 589.61,-419.88 584.03,-418.22 584.21,-422.06"/>
</g>
<!-- n3&#45;&gt;n2 -->
<g id="edge3" class="edge">
<title>n3&#45;&gt;n2</title>
<path fill="none" stroke="#9aa8b8" stroke-width="0.9" d="M385.48,-440.55C407.28,-448.77 438.33,-460.46 461.71,-469.27"/>
<polygon fill="#9aa8b8" stroke="#9aa8b8" stroke-width="0.9" points="460.98,-471.05 466.81,-471.19 462.34,-467.45 460.98,-471.05"/>
</g>
<!-- n3&#45;&gt;n6 -->
<g id="edge4" class="edge">
<title>n3&#45;&gt;n6</title>
<path fill="none" stroke="#9aa8b8" stroke-width="0.9" d="M381.41,-412.11C404.97,-392.62 442.09,-361.91 467.31,-341.05"/>
<polygon fill="#9aa8b8" stroke="#9aa8b8" stroke-width="0.9" points="468.44,-342.61 471.45,-337.62 465.99,-339.64 468.44,-342.61"/>
</g>
<!-- n3&#45;&gt;out1 -->
<g id="edge13" class="edge">
<title>n3&#45;&gt;out1</title>
<path fill="none" stroke="#d19922" stroke-width="0.9" stroke-dasharray="5,2" d="M374.3,-448.87C392.36,-468.93 424.51,-499.99 460.06,-512.6 475.71,-518.15 612.78,-520.61 665.6,-511.6 676.55,-509.73 687.91,-506.82 698.86,-503.48"/>
<polygon fill="#d19922" stroke="#d19922" stroke-width="0.9" points="699.29,-505.36 703.96,-501.87 698.13,-501.69 699.29,-505.36"/>
</g>
<!-- n4 -->
<g id="node5" class="node">
<title>n4</title>
<path fill="#f7f9fb" stroke="#8b9bb0" d="M643.85,-324.6C643.85,-324.6 592.58,-324.6 592.58,-324.6 586.58,-324.6 580.58,-318.6 580.58,-312.6 580.58,-312.6 580.58,-300.6 580.58,-300.6 580.58,-294.6 586.58,-288.6 592.58,-288.6 592.58,-288.6 643.85,-288.6 643.85,-288.6 649.85,-288.6 655.85,-294.6 655.85,-300.6 655.85,-300.6 655.85,-312.6 655.85,-312.6 655.85,-318.6 649.85,-324.6 643.85,-324.6"/>
<text xml:space="preserve" text-anchor="start" x="586.34" y="-308.1" font-family="Inter,Arial" font-weight="bold" font-size="10.00" fill="#172033">num&#45;complex</text>
<text xml:space="preserve" text-anchor="start" x="607.34" y="-298.1" font-family="Inter,Arial" font-size="10.00" fill="#172033">0.4.6</text>
</g>
<!-- n4&#45;&gt;out1 -->
<g id="edge14" class="edge">
<title>n4&#45;&gt;out1</title>
<path fill="none" stroke="#d19922" stroke-width="0.9" stroke-dasharray="5,2" d="M644.8,-325.06C651.86,-330.66 659.31,-337.07 665.6,-343.6 684.49,-363.19 702.88,-386.46 718.58,-408.08"/>
<polygon fill="#d19922" stroke="#d19922" stroke-width="0.9" points="716.94,-409.09 721.72,-412.43 720.06,-406.84 716.94,-409.09"/>
</g>
<!-- n5&#45;&gt;out1 -->
<g id="edge15" class="edge">
<title>n5&#45;&gt;out1</title>
<path fill="none" stroke="#d19922" stroke-width="0.9" stroke-dasharray="5,2" d="M531.17,-643.9C567.35,-641.68 624.4,-633.85 665.6,-607.6 689.42,-592.42 709.7,-569.4 725.6,-546.92"/>
<polygon fill="#d19922" stroke="#d19922" stroke-width="0.9" points="727.01,-548.27 728.56,-542.65 723.85,-546.07 727.01,-548.27"/>
</g>
<!-- n6&#45;&gt;n1 -->
<g id="edge9" class="edge">
<title>n6&#45;&gt;n1</title>
<path fill="none" stroke="#9aa8b8" stroke-width="0.9" d="M517.79,-336.96C532.58,-349.62 552.79,-366.77 570.83,-381.6 576.56,-386.31 582.73,-391.29 588.65,-396.03"/>
<polygon fill="#9aa8b8" stroke="#9aa8b8" stroke-width="0.9" points="587.42,-397.51 592.92,-399.44 589.82,-394.5 587.42,-397.51"/>
</g>
<!-- n6&#45;&gt;n4 -->
<g id="edge10" class="edge">
<title>n6&#45;&gt;n4</title>
<path fill="none" stroke="#9aa8b8" stroke-width="0.9" d="M522.65,-316C537.59,-314.51 556.7,-312.61 573.82,-310.91"/>
<polygon fill="#9aa8b8" stroke="#9aa8b8" stroke-width="0.9" points="573.89,-312.84 579.17,-310.38 573.51,-309.01 573.89,-312.84"/>
</g>
<!-- n6&#45;&gt;out1 -->
<g id="edge17" class="edge">
<title>n6&#45;&gt;out1</title>
<path fill="none" stroke="#d19922" stroke-width="0.9" stroke-dasharray="5,2" d="M522.72,-326.16C557.19,-336.76 618.77,-358.1 665.6,-387.6 677.45,-395.07 689.22,-404.01 700.28,-413.31"/>
<polygon fill="#d19922" stroke="#d19922" stroke-width="0.9" points="698.85,-414.62 704.28,-416.73 701.35,-411.69 698.85,-414.62"/>
</g>
<!-- in7 -->
<g id="node15" class="node">
<title>in7</title>
<polygon fill="#eef6ff" stroke="#4b8fc5" points="119.52,-313.2 0,-313.2 0,-276 125.52,-276 125.52,-307.2 119.52,-313.2"/>
<polyline fill="none" stroke="#4b8fc5" points="119.52,-313.2 119.52,-307.2"/>
<polyline fill="none" stroke="#4b8fc5" points="125.52,-307.2 119.52,-307.2"/>
<text xml:space="preserve" text-anchor="start" x="5.76" y="-301.1" font-family="Inter,Arial" font-size="10.00" fill="#123d5c">from trueos&#45;qjs&#45;v0.1.0.svg</text>
<text xml:space="preserve" text-anchor="start" x="45.13" y="-291.1" font-family="Inter,Arial" font-weight="bold" font-size="10.00" fill="#123d5c">parry2d</text>
<text xml:space="preserve" text-anchor="start" x="49.26" y="-281.1" font-family="Inter,Arial" font-size="10.00" fill="#123d5c">0.26.0</text>
</g>
<!-- in7&#45;&gt;n0 -->
<g id="edge23" class="edge">
<title>in7&#45;&gt;n0</title>
<path fill="none" stroke="#4b8fc5" stroke-width="0.9" stroke-dasharray="5,2" d="M125.69,-294.6C136.53,-294.6 147.7,-294.6 158.22,-294.6"/>
<polygon fill="#4b8fc5" stroke="#4b8fc5" stroke-width="0.9" points="158.17,-296.53 163.67,-294.6 158.17,-292.68 158.17,-296.53"/>
</g>
</g>
</svg>
