<?xml version="1.0" encoding="UTF-8" standalone="no"?>
<!DOCTYPE svg PUBLIC "-//W3C//DTD SVG 1.1//EN"
 "http://www.w3.org/Graphics/SVG/1.1/DTD/svg11.dtd">
<!-- Generated by graphviz version 14.1.2 (0)
 -->
<!-- Title: png&#45;v0.18.1 Pages: 1 -->
<svg width="316pt" height="402pt"
 viewBox="0.00 0.00 316.00 402.00" xmlns="http://www.w3.org/2000/svg" xmlns:xlink="http://www.w3.org/1999/xlink">
<g id="graph0" class="graph" transform="scale(1 1) rotate(0) translate(4 397.77)">
<title>png&#45;v0.18.1</title>
<polygon fill="white" stroke="none" points="-4,4 -4,-397.77 312.44,-397.77 312.44,4 -4,4"/>
<!-- n0 -->
<g id="node1" class="node">
<title>n0</title>
<path fill="#dff3ff" stroke="#1b78a6" d="M97.47,-195.4C97.47,-195.4 12,-195.4 12,-195.4 6,-195.4 0,-189.4 0,-183.4 0,-183.4 0,-157 0,-157 0,-151 6,-145 12,-145 12,-145 97.47,-145 97.47,-145 103.47,-145 109.47,-151 109.47,-157 109.47,-157 109.47,-183.4 109.47,-183.4 109.47,-189.4 103.47,-195.4 97.47,-195.4"/>
<text xml:space="preserve" text-anchor="start" x="42.36" y="-176.85" font-family="Inter,Arial" font-weight="bold" font-size="13.00" fill="#172033">png</text>
<text xml:space="preserve" text-anchor="start" x="38.24" y="-164.8" font-family="Inter,Arial" font-size="12.00" fill="#172033">0.18.1</text>
<text xml:space="preserve" text-anchor="start" x="9.36" y="-153.75" font-family="Inter,Arial" font-size="11.00" fill="#172033">/vendor/png&#45;0.18.1</text>
</g>
<!-- n1 -->
<g id="node2" class="node">
<title>n1</title>
<path fill="#fff0d5" stroke="#c47a1a" d="M296.44,-393.77C296.44,-393.77 161.47,-393.77 161.47,-393.77 155.47,-393.77 149.47,-387.77 149.47,-381.77 149.47,-381.77 149.47,-298.62 149.47,-298.62 149.47,-292.62 155.47,-286.62 161.47,-286.62 161.47,-286.62 296.44,-286.62 296.44,-286.62 302.44,-286.62 308.44,-292.62 308.44,-298.62 308.44,-298.62 308.44,-381.77 308.44,-381.77 308.44,-387.77 302.44,-393.77 296.44,-393.77"/>
<text xml:space="preserve" text-anchor="start" x="204.95" y="-375.22" font-family="Inter,Arial" font-weight="bold" font-size="13.00" fill="#172033">fdeflate</text>
<text xml:space="preserve" text-anchor="start" x="215.83" y="-360.18" font-family="Inter,Arial" font-size="12.00" fill="#172033">0.3.7</text>
<text xml:space="preserve" text-anchor="start" x="177.95" y="-346.88" font-family="Inter,Arial" font-size="11.00" fill="#172033">/vendor/fdeflate&#45;0.3.7</text>
<text xml:space="preserve" text-anchor="start" x="182.83" y="-319.38" font-family="Inter,Arial" font-weight="bold" font-size="11.00" fill="#172033">simd&#45;adler32</text>
<text xml:space="preserve" text-anchor="start" x="250.33" y="-319.38" font-family="Inter,Arial" font-size="10.00" fill="#172033"> </text>
<text xml:space="preserve" text-anchor="start" x="253.33" y="-319.38" font-family="Inter,Arial" font-size="10.00" fill="#172033">0.3.8</text>
<text xml:space="preserve" text-anchor="start" x="173.83" y="-310.27" font-family="Inter,Arial" font-size="9.00" fill="#172033">/vendor/simd&#45;adler32&#45;0.3.8</text>
<path fill="none" stroke="#9aa8b8" d="M176.83,-299.82C176.83,-299.82 281.08,-299.82 281.08,-299.82 287.08,-299.82 293.08,-305.82 293.08,-311.82 293.08,-311.82 293.08,-325.82 293.08,-325.82 293.08,-331.82 287.08,-337.82 281.08,-337.82 281.08,-337.82 176.83,-337.82 176.83,-337.82 170.83,-337.82 164.83,-331.82 164.83,-325.82 164.83,-325.82 164.83,-311.82 164.83,-311.82 164.83,-305.82 170.83,-299.82 176.83,-299.82"/>
</g>
<!-- n0&#45;&gt;n1 -->
<g id="edge1" class="edge">
<title>n0&#45;&gt;n1</title>
<path fill="none" stroke="#9aa8b8" stroke-width="0.9" d="M77.15,-195.89C95.58,-217.51 123.25,-248.86 149.47,-274.2 152.03,-276.67 154.67,-279.16 157.36,-281.65"/>
<polygon fill="#9aa8b8" stroke="#9aa8b8" stroke-width="0.9" points="155.89,-282.92 161.25,-285.21 158.49,-280.08 155.89,-282.92"/>
</g>
<!-- out0 -->
<g id="node3" class="node">
<title>out0</title>
<polygon fill="#fff8e8" stroke="#d19922" points="271.31,-261.4 180.59,-261.4 180.59,-217 277.31,-217 277.31,-255.4 271.31,-261.4"/>
<polyline fill="none" stroke="#d19922" points="271.31,-261.4 271.31,-255.4"/>
<polyline fill="none" stroke="#d19922" points="277.31,-255.4 271.31,-255.4"/>
<text xml:space="preserve" text-anchor="start" x="189.95" y="-245.7" font-family="Inter,Arial" font-size="10.00" fill="#614000">to acpi&#45;v6.1.1.svg</text>
<text xml:space="preserve" text-anchor="start" x="211.7" y="-235.7" font-family="Inter,Arial" font-weight="bold" font-size="10.00" fill="#614000">bitflags</text>
<text xml:space="preserve" text-anchor="start" x="215.45" y="-225.7" font-family="Inter,Arial" font-size="10.00" fill="#614000">2.13.0</text>
</g>
<!-- n0&#45;&gt;out0 -->
<g id="edge2" class="edge">
<title>n0&#45;&gt;out0</title>
<path fill="none" stroke="#d19922" stroke-width="0.9" stroke-dasharray="5,2" d="M109.75,-191.84C130.23,-200.04 153.52,-209.38 173.99,-217.58"/>
<polygon fill="#d19922" stroke="#d19922" stroke-width="0.9" points="173.16,-219.32 178.98,-219.58 174.59,-215.75 173.16,-219.32"/>
</g>
<!-- out1 -->
<g id="node4" class="node">
<title>out1</title>
<polygon fill="#fff8e8" stroke="#d19922" points="274.31,-192.4 177.59,-192.4 177.59,-148 280.31,-148 280.31,-186.4 274.31,-192.4"/>
<polyline fill="none" stroke="#d19922" points="274.31,-192.4 274.31,-186.4"/>
<polyline fill="none" stroke="#d19922" points="280.31,-186.4 274.31,-186.4"/>
<text xml:space="preserve" text-anchor="start" x="186.95" y="-176.7" font-family="Inter,Arial" font-size="10.00" fill="#614000">to core3&#45;v0.1.2.svg</text>
<text xml:space="preserve" text-anchor="start" x="216.2" y="-166.7" font-family="Inter,Arial" font-weight="bold" font-size="10.00" fill="#614000">core3</text>
<text xml:space="preserve" text-anchor="start" x="218.08" y="-156.7" font-family="Inter,Arial" font-size="10.00" fill="#614000">0.1.2</text>
</g>
<!-- n0&#45;&gt;out1 -->
<g id="edge3" class="edge">
<title>n0&#45;&gt;out1</title>
<path fill="none" stroke="#d19922" stroke-width="0.9" stroke-dasharray="5,2" d="M109.75,-170.2C129.08,-170.2 150.92,-170.2 170.52,-170.2"/>
<polygon fill="#d19922" stroke="#d19922" stroke-width="0.9" points="170.49,-172.13 175.99,-170.2 170.49,-168.28 170.49,-172.13"/>
</g>
<!-- out2 -->
<g id="node5" class="node">
<title>out2</title>
<polygon fill="#fff8e8" stroke="#d19922" points="282.56,-123.4 169.34,-123.4 169.34,-69 288.56,-69 288.56,-117.4 282.56,-123.4"/>
<polyline fill="none" stroke="#d19922" points="282.56,-123.4 282.56,-117.4"/>
<polyline fill="none" stroke="#d19922" points="288.56,-117.4 282.56,-117.4"/>
<text xml:space="preserve" text-anchor="start" x="178.7" y="-107.7" font-family="Inter,Arial" font-size="10.00" fill="#614000">to crc32fast&#45;v1.5.0.svg</text>
<text xml:space="preserve" text-anchor="start" x="208.33" y="-97.7" font-family="Inter,Arial" font-weight="bold" font-size="10.00" fill="#614000">crc32fast</text>
<text xml:space="preserve" text-anchor="start" x="218.08" y="-87.7" font-family="Inter,Arial" font-size="10.00" fill="#614000">1.5.0</text>
<text xml:space="preserve" text-anchor="start" x="178.7" y="-77.7" font-family="Inter,Arial" font-size="10.00" fill="#614000">/vendor/crc32fast&#45;1.5.0</text>
</g>
<!-- n0&#45;&gt;out2 -->
<g id="edge4" class="edge">
<title>n0&#45;&gt;out2</title>
<path fill="none" stroke="#d19922" stroke-width="0.9" stroke-dasharray="5,2" d="M109.75,-146.99C126.68,-139.72 145.54,-131.61 163.13,-124.05"/>
<polygon fill="#d19922" stroke="#d19922" stroke-width="0.9" points="163.5,-125.99 167.8,-122.05 161.98,-122.45 163.5,-125.99"/>
</g>
<!-- out3 -->
<g id="node6" class="node">
<title>out3</title>
<polygon fill="#fff8e8" stroke="#d19922" points="288.19,-44.4 163.72,-44.4 163.72,0 294.19,0 294.19,-38.4 288.19,-44.4"/>
<polyline fill="none" stroke="#d19922" points="288.19,-44.4 288.19,-38.4"/>
<polyline fill="none" stroke="#d19922" points="294.19,-38.4 288.19,-38.4"/>
<text xml:space="preserve" text-anchor="start" x="173.08" y="-28.7" font-family="Inter,Arial" font-size="10.00" fill="#614000">to miniz_oxide&#45;v0.9.1.svg</text>
<text xml:space="preserve" text-anchor="start" x="200.45" y="-18.7" font-family="Inter,Arial" font-weight="bold" font-size="10.00" fill="#614000">miniz_oxide</text>
<text xml:space="preserve" text-anchor="start" x="218.08" y="-8.7" font-family="Inter,Arial" font-size="10.00" fill="#614000">0.9.1</text>
</g>
<!-- n0&#45;&gt;out3 -->
<g id="edge5" class="edge">
<title>n0&#45;&gt;out3</title>
<path fill="none" stroke="#d19922" stroke-width="0.9" stroke-dasharray="5,2" d="M71.58,-144.54C88.3,-119.23 116.73,-80.87 149.47,-56.2 153.3,-53.31 157.42,-50.61 161.68,-48.1"/>
<polygon fill="#d19922" stroke="#d19922" stroke-width="0.9" points="162.54,-49.82 166.39,-45.45 160.66,-46.47 162.54,-49.82"/>
</g>
</g>
</svg>
