<?xml version="1.0" encoding="UTF-8" standalone="no"?>
<!DOCTYPE svg PUBLIC "-//W3C//DTD SVG 1.1//EN"
 "http://www.w3.org/Graphics/SVG/1.1/DTD/svg11.dtd">
<!-- Generated by graphviz version 14.1.2 (0)
 -->
<!-- Title: png&#45;v0.18.1 Pages: 1 -->
<svg width="316pt" height="471pt"
 viewBox="0.00 0.00 316.00 471.00" xmlns="http://www.w3.org/2000/svg" xmlns:xlink="http://www.w3.org/1999/xlink">
<g id="graph0" class="graph" transform="scale(1 1) rotate(0) translate(4 466.77)">
<title>png&#45;v0.18.1</title>
<polygon fill="white" stroke="none" points="-4,4 -4,-466.77 312.44,-466.77 312.44,4 -4,4"/>
<!-- n0 -->
<g id="node1" class="node">
<title>n0</title>
<path fill="#dff3ff" stroke="#1b78a6" d="M97.47,-227.4C97.47,-227.4 12,-227.4 12,-227.4 6,-227.4 0,-221.4 0,-215.4 0,-215.4 0,-189 0,-189 0,-183 6,-177 12,-177 12,-177 97.47,-177 97.47,-177 103.47,-177 109.47,-183 109.47,-189 109.47,-189 109.47,-215.4 109.47,-215.4 109.47,-221.4 103.47,-227.4 97.47,-227.4"/>
<text xml:space="preserve" text-anchor="start" x="42.36" y="-208.85" font-family="Inter,Arial" font-weight="bold" font-size="13.00" fill="#172033">png</text>
<text xml:space="preserve" text-anchor="start" x="38.24" y="-196.8" font-family="Inter,Arial" font-size="12.00" fill="#172033">0.18.1</text>
<text xml:space="preserve" text-anchor="start" x="9.36" y="-185.75" font-family="Inter,Arial" font-size="11.00" fill="#172033">/vendor/png&#45;0.18.1</text>
</g>
<!-- n1 -->
<g id="node2" class="node">
<title>n1</title>
<path fill="#fff0d5" stroke="#c47a1a" d="M296.44,-462.77C296.44,-462.77 161.47,-462.77 161.47,-462.77 155.47,-462.77 149.47,-456.77 149.47,-450.77 149.47,-450.77 149.47,-367.62 149.47,-367.62 149.47,-361.62 155.47,-355.62 161.47,-355.62 161.47,-355.62 296.44,-355.62 296.44,-355.62 302.44,-355.62 308.44,-361.62 308.44,-367.62 308.44,-367.62 308.44,-450.77 308.44,-450.77 308.44,-456.77 302.44,-462.77 296.44,-462.77"/>
<text xml:space="preserve" text-anchor="start" x="204.95" y="-444.22" font-family="Inter,Arial" font-weight="bold" font-size="13.00" fill="#172033">fdeflate</text>
<text xml:space="preserve" text-anchor="start" x="215.83" y="-429.18" font-family="Inter,Arial" font-size="12.00" fill="#172033">0.3.7</text>
<text xml:space="preserve" text-anchor="start" x="177.95" y="-415.88" font-family="Inter,Arial" font-size="11.00" fill="#172033">/vendor/fdeflate&#45;0.3.7</text>
<text xml:space="preserve" text-anchor="start" x="182.83" y="-388.38" font-family="Inter,Arial" font-weight="bold" font-size="11.00" fill="#172033">simd&#45;adler32</text>
<text xml:space="preserve" text-anchor="start" x="250.33" y="-388.38" font-family="Inter,Arial" font-size="10.00" fill="#172033"> </text>
<text xml:space="preserve" text-anchor="start" x="253.33" y="-388.38" font-family="Inter,Arial" font-size="10.00" fill="#172033">0.3.8</text>
<text xml:space="preserve" text-anchor="start" x="173.83" y="-379.27" font-family="Inter,Arial" font-size="9.00" fill="#172033">/vendor/simd&#45;adler32&#45;0.3.8</text>
<path fill="none" stroke="#9aa8b8" d="M176.83,-368.82C176.83,-368.82 281.08,-368.82 281.08,-368.82 287.08,-368.82 293.08,-374.82 293.08,-380.82 293.08,-380.82 293.08,-394.82 293.08,-394.82 293.08,-400.82 287.08,-406.82 281.08,-406.82 281.08,-406.82 176.83,-406.82 176.83,-406.82 170.83,-406.82 164.83,-400.82 164.83,-394.82 164.83,-394.82 164.83,-380.82 164.83,-380.82 164.83,-374.82 170.83,-368.82 176.83,-368.82"/>
</g>
<!-- n0&#45;&gt;n1 -->
<g id="edge1" class="edge">
<title>n0&#45;&gt;n1</title>
<path fill="none" stroke="#9aa8b8" stroke-width="0.9" d="M69.69,-227.67C86.48,-257.16 116.57,-306.37 149.47,-343.2 151.77,-345.77 154.17,-348.33 156.64,-350.87"/>
<polygon fill="#9aa8b8" stroke="#9aa8b8" stroke-width="0.9" points="154.96,-351.91 160.2,-354.44 157.68,-349.19 154.96,-351.91"/>
</g>
<!-- out0 -->
<g id="node3" class="node">
<title>out0</title>
<polygon fill="#fff8e8" stroke="#d19922" points="271.31,-330.4 180.59,-330.4 180.59,-286 277.31,-286 277.31,-324.4 271.31,-330.4"/>
<polyline fill="none" stroke="#d19922" points="271.31,-330.4 271.31,-324.4"/>
<polyline fill="none" stroke="#d19922" points="277.31,-324.4 271.31,-324.4"/>
<text xml:space="preserve" text-anchor="start" x="189.95" y="-314.7" font-family="Inter,Arial" font-size="10.00" fill="#614000">to acpi&#45;v6.1.1.svg</text>
<text xml:space="preserve" text-anchor="start" x="211.7" y="-304.7" font-family="Inter,Arial" font-weight="bold" font-size="10.00" fill="#614000">bitflags</text>
<text xml:space="preserve" text-anchor="start" x="215.45" y="-294.7" font-family="Inter,Arial" font-size="10.00" fill="#614000">2.11.1</text>
</g>
<!-- n0&#45;&gt;out0 -->
<g id="edge2" class="edge">
<title>n0&#45;&gt;out0</title>
<path fill="none" stroke="#d19922" stroke-width="0.9" stroke-dasharray="5,2" d="M85.21,-227.87C103.03,-242.6 126.66,-260.77 149.47,-274.2 157.27,-278.79 165.8,-283.12 174.28,-287.06"/>
<polygon fill="#d19922" stroke="#d19922" stroke-width="0.9" points="173.08,-288.63 178.89,-289.15 174.68,-285.12 173.08,-288.63"/>
</g>
<!-- out1 -->
<g id="node4" class="node">
<title>out1</title>
<polygon fill="#fff8e8" stroke="#d19922" points="274.31,-261.4 177.59,-261.4 177.59,-217 280.31,-217 280.31,-255.4 274.31,-261.4"/>
<polyline fill="none" stroke="#d19922" points="274.31,-261.4 274.31,-255.4"/>
<polyline fill="none" stroke="#d19922" points="280.31,-255.4 274.31,-255.4"/>
<text xml:space="preserve" text-anchor="start" x="186.95" y="-245.7" font-family="Inter,Arial" font-size="10.00" fill="#614000">to core3&#45;v0.1.2.svg</text>
<text xml:space="preserve" text-anchor="start" x="216.2" y="-235.7" font-family="Inter,Arial" font-weight="bold" font-size="10.00" fill="#614000">core3</text>
<text xml:space="preserve" text-anchor="start" x="218.08" y="-225.7" font-family="Inter,Arial" font-size="10.00" fill="#614000">0.1.2</text>
</g>
<!-- n0&#45;&gt;out1 -->
<g id="edge3" class="edge">
<title>n0&#45;&gt;out1</title>
<path fill="none" stroke="#d19922" stroke-width="0.9" stroke-dasharray="5,2" d="M109.75,-213.81C129.16,-217.98 151.11,-222.69 170.78,-226.92"/>
<polygon fill="#d19922" stroke="#d19922" stroke-width="0.9" points="170.24,-228.77 176.02,-228.04 171.05,-225.01 170.24,-228.77"/>
</g>
<!-- out2 -->
<g id="node5" class="node">
<title>out2</title>
<polygon fill="#fff8e8" stroke="#d19922" points="282.56,-192.4 169.34,-192.4 169.34,-138 288.56,-138 288.56,-186.4 282.56,-192.4"/>
<polyline fill="none" stroke="#d19922" points="282.56,-192.4 282.56,-186.4"/>
<polyline fill="none" stroke="#d19922" points="288.56,-186.4 282.56,-186.4"/>
<text xml:space="preserve" text-anchor="start" x="178.7" y="-176.7" font-family="Inter,Arial" font-size="10.00" fill="#614000">to crc32fast&#45;v1.5.0.svg</text>
<text xml:space="preserve" text-anchor="start" x="208.33" y="-166.7" font-family="Inter,Arial" font-weight="bold" font-size="10.00" fill="#614000">crc32fast</text>
<text xml:space="preserve" text-anchor="start" x="218.08" y="-156.7" font-family="Inter,Arial" font-size="10.00" fill="#614000">1.5.0</text>
<text xml:space="preserve" text-anchor="start" x="178.7" y="-146.7" font-family="Inter,Arial" font-size="10.00" fill="#614000">/vendor/crc32fast&#45;1.5.0</text>
</g>
<!-- n0&#45;&gt;out2 -->
<g id="edge4" class="edge">
<title>n0&#45;&gt;out2</title>
<path fill="none" stroke="#d19922" stroke-width="0.9" stroke-dasharray="5,2" d="M109.75,-190.59C126.53,-186.99 145.21,-182.98 162.67,-179.22"/>
<polygon fill="#d19922" stroke="#d19922" stroke-width="0.9" points="162.74,-181.18 167.72,-178.14 161.93,-177.42 162.74,-181.18"/>
</g>
<!-- out3 -->
<g id="node6" class="node">
<title>out3</title>
<polygon fill="#fff8e8" stroke="#d19922" points="271.31,-113.4 180.59,-113.4 180.59,-69 277.31,-69 277.31,-107.4 271.31,-113.4"/>
<polyline fill="none" stroke="#d19922" points="271.31,-113.4 271.31,-107.4"/>
<polyline fill="none" stroke="#d19922" points="277.31,-107.4 271.31,-107.4"/>
<text xml:space="preserve" text-anchor="start" x="189.95" y="-97.7" font-family="Inter,Arial" font-size="10.00" fill="#614000">to log&#45;v0.4.29.svg</text>
<text xml:space="preserve" text-anchor="start" x="221.45" y="-87.7" font-family="Inter,Arial" font-weight="bold" font-size="10.00" fill="#614000">log</text>
<text xml:space="preserve" text-anchor="start" x="215.45" y="-77.7" font-family="Inter,Arial" font-size="10.00" fill="#614000">0.4.29</text>
</g>
<!-- n0&#45;&gt;out3 -->
<g id="edge5" class="edge">
<title>n0&#45;&gt;out3</title>
<path fill="none" stroke="#d19922" stroke-width="0.9" stroke-dasharray="5,2" d="M82.5,-176.79C100.47,-160.62 125.21,-140.02 149.47,-125.2 157.3,-120.42 165.91,-115.97 174.48,-111.96"/>
<polygon fill="#d19922" stroke="#d19922" stroke-width="0.9" points="174.96,-113.87 179.16,-109.83 173.36,-110.36 174.96,-113.87"/>
</g>
<!-- out4 -->
<g id="node7" class="node">
<title>out4</title>
<polygon fill="#fff8e8" stroke="#d19922" points="288.19,-44.4 163.72,-44.4 163.72,0 294.19,0 294.19,-38.4 288.19,-44.4"/>
<polyline fill="none" stroke="#d19922" points="288.19,-44.4 288.19,-38.4"/>
<polyline fill="none" stroke="#d19922" points="294.19,-38.4 288.19,-38.4"/>
<text xml:space="preserve" text-anchor="start" x="173.08" y="-28.7" font-family="Inter,Arial" font-size="10.00" fill="#614000">to miniz_oxide&#45;v0.9.1.svg</text>
<text xml:space="preserve" text-anchor="start" x="200.45" y="-18.7" font-family="Inter,Arial" font-weight="bold" font-size="10.00" fill="#614000">miniz_oxide</text>
<text xml:space="preserve" text-anchor="start" x="218.08" y="-8.7" font-family="Inter,Arial" font-size="10.00" fill="#614000">0.9.1</text>
</g>
<!-- n0&#45;&gt;out4 -->
<g id="edge6" class="edge">
<title>n0&#45;&gt;out4</title>
<path fill="none" stroke="#d19922" stroke-width="0.9" stroke-dasharray="5,2" d="M66.38,-176.75C80.92,-144.76 109.76,-89.95 149.47,-56.2 152.82,-53.36 156.43,-50.72 160.22,-48.27"/>
<polygon fill="#d19922" stroke="#d19922" stroke-width="0.9" points="161.01,-50.04 164.71,-45.54 159.01,-46.75 161.01,-50.04"/>
</g>
</g>
</svg>
