<?xml version="1.0" encoding="UTF-8" standalone="no"?>
<!DOCTYPE svg PUBLIC "-//W3C//DTD SVG 1.1//EN"
 "http://www.w3.org/Graphics/SVG/1.1/DTD/svg11.dtd">
<!-- Generated by graphviz version 14.1.2 (0)
 -->
<!-- Title: png&#45;v0.18.1 Pages: 1 -->
<svg width="264pt" height="397pt"
 viewBox="0.00 0.00 264.00 397.00" xmlns="http://www.w3.org/2000/svg" xmlns:xlink="http://www.w3.org/1999/xlink">
<g id="graph0" class="graph" transform="scale(1 1) rotate(0) translate(4 393.2)">
<title>png&#45;v0.18.1</title>
<polygon fill="white" stroke="none" points="-4,4 -4,-393.2 259.79,-393.2 259.79,4 -4,4"/>
<!-- n0 -->
<g id="node1" class="node">
<title>n0</title>
<path fill="#dff3ff" stroke="#1b78a6" d="M80.52,-199.2C80.52,-199.2 12,-199.2 12,-199.2 6,-199.2 0,-193.2 0,-187.2 0,-187.2 0,-174 0,-174 0,-168 6,-162 12,-162 12,-162 80.52,-162 80.52,-162 86.52,-162 92.52,-168 92.52,-174 92.52,-174 92.52,-187.2 92.52,-187.2 92.52,-193.2 86.52,-199.2 80.52,-199.2"/>
<text xml:space="preserve" text-anchor="start" x="37.26" y="-187.1" font-family="Inter,Arial" font-weight="bold" font-size="10.00" fill="#172033">png</text>
<text xml:space="preserve" text-anchor="start" x="32.76" y="-177.1" font-family="Inter,Arial" font-size="10.00" fill="#172033">0.18.1</text>
<text xml:space="preserve" text-anchor="start" x="5.76" y="-167.1" font-family="Inter,Arial" font-size="10.00" fill="#172033">/vendor/png&#45;0.18.1</text>
</g>
<!-- n1 -->
<g id="node2" class="node">
<title>n1</title>
<path fill="#fff0d5" stroke="#c47a1a" d="M241.29,-389.2C241.29,-389.2 147.02,-389.2 147.02,-389.2 141.02,-389.2 135.02,-383.2 135.02,-377.2 135.02,-377.2 135.02,-332 135.02,-332 135.02,-326 141.02,-320 147.02,-320 147.02,-320 241.29,-320 241.29,-320 247.29,-320 253.29,-326 253.29,-332 253.29,-332 253.29,-377.2 253.29,-377.2 253.29,-383.2 247.29,-389.2 241.29,-389.2"/>
<text xml:space="preserve" text-anchor="start" x="177.28" y="-377.1" font-family="Inter,Arial" font-weight="bold" font-size="10.00" fill="#172033">fdeflate</text>
<text xml:space="preserve" text-anchor="start" x="183.28" y="-364.1" font-family="Inter,Arial" font-size="10.00" fill="#172033">0.3.7</text>
<text xml:space="preserve" text-anchor="start" x="148.03" y="-352.1" font-family="Inter,Arial" font-size="10.00" fill="#172033">/vendor/fdeflate&#45;0.3.7</text>
<text xml:space="preserve" text-anchor="start" x="158.9" y="-338" font-family="Inter,Arial" font-weight="bold" font-size="8.00" fill="#172033">simd&#45;adler32</text>
<text xml:space="preserve" text-anchor="start" x="209.15" y="-338" font-family="Inter,Arial" font-size="8.00" fill="#172033"> 0.3.8</text>
<text xml:space="preserve" text-anchor="start" x="145.78" y="-330" font-family="Inter,Arial" font-size="8.00" fill="#172033">/vendor/simd&#45;adler32&#45;0.3.8</text>
<path fill="none" stroke="#9aa8b8" d="M149.45,-323.6C149.45,-323.6 238.86,-323.6 238.86,-323.6 243.2,-323.6 247.53,-327.93 247.53,-332.27 247.53,-332.27 247.53,-340.93 247.53,-340.93 247.53,-345.27 243.2,-349.6 238.86,-349.6 238.86,-349.6 149.45,-349.6 149.45,-349.6 145.11,-349.6 140.78,-345.27 140.78,-340.93 140.78,-340.93 140.78,-332.27 140.78,-332.27 140.78,-327.93 145.11,-323.6 149.45,-323.6"/>
</g>
<!-- n0&#45;&gt;n1 -->
<g id="edge1" class="edge">
<title>n0&#45;&gt;n1</title>
<path fill="none" stroke="#9aa8b8" stroke-width="0.9" d="M57.44,-199.6C71.96,-225.69 100.43,-273.25 132.52,-307.6 134.91,-310.16 137.44,-312.68 140.07,-315.15"/>
<polygon fill="#9aa8b8" stroke="#9aa8b8" stroke-width="0.9" points="138.52,-316.35 143.88,-318.63 141.11,-313.5 138.52,-316.35"/>
</g>
<!-- out0 -->
<g id="node3" class="node">
<title>out0</title>
<polygon fill="#fff8e8" stroke="#d19922" points="232.91,-295.2 149.39,-295.2 149.39,-258 238.91,-258 238.91,-289.2 232.91,-295.2"/>
<polyline fill="none" stroke="#d19922" points="232.91,-295.2 232.91,-289.2"/>
<polyline fill="none" stroke="#d19922" points="238.91,-289.2 232.91,-289.2"/>
<text xml:space="preserve" text-anchor="start" x="155.15" y="-283.1" font-family="Inter,Arial" font-size="10.00" fill="#614000">to acpi&#45;v6.1.1.svg</text>
<text xml:space="preserve" text-anchor="start" x="176.9" y="-273.1" font-family="Inter,Arial" font-weight="bold" font-size="10.00" fill="#614000">bitflags</text>
<text xml:space="preserve" text-anchor="start" x="180.65" y="-263.1" font-family="Inter,Arial" font-size="10.00" fill="#614000">2.11.1</text>
</g>
<!-- n0&#45;&gt;out0 -->
<g id="edge2" class="edge">
<title>n0&#45;&gt;out0</title>
<path fill="none" stroke="#d19922" stroke-width="0.9" stroke-dasharray="5,2" d="M69.97,-199.7C86.7,-213.32 110.31,-231.62 132.52,-245.6 137.27,-248.59 142.33,-251.53 147.44,-254.35"/>
<polygon fill="#d19922" stroke="#d19922" stroke-width="0.9" points="146.49,-256.02 152.25,-256.94 148.32,-252.64 146.49,-256.02"/>
</g>
<!-- out1 -->
<g id="node4" class="node">
<title>out1</title>
<polygon fill="#fff8e8" stroke="#d19922" points="235.91,-233.2 146.39,-233.2 146.39,-196 241.91,-196 241.91,-227.2 235.91,-233.2"/>
<polyline fill="none" stroke="#d19922" points="235.91,-233.2 235.91,-227.2"/>
<polyline fill="none" stroke="#d19922" points="241.91,-227.2 235.91,-227.2"/>
<text xml:space="preserve" text-anchor="start" x="152.15" y="-221.1" font-family="Inter,Arial" font-size="10.00" fill="#614000">to core3&#45;v0.1.2.svg</text>
<text xml:space="preserve" text-anchor="start" x="181.4" y="-211.1" font-family="Inter,Arial" font-weight="bold" font-size="10.00" fill="#614000">core3</text>
<text xml:space="preserve" text-anchor="start" x="183.28" y="-201.1" font-family="Inter,Arial" font-size="10.00" fill="#614000">0.1.2</text>
</g>
<!-- n0&#45;&gt;out1 -->
<g id="edge3" class="edge">
<title>n0&#45;&gt;out1</title>
<path fill="none" stroke="#d19922" stroke-width="0.9" stroke-dasharray="5,2" d="M92.62,-191.17C107.48,-194.63 124.13,-198.51 139.54,-202.1"/>
<polygon fill="#d19922" stroke="#d19922" stroke-width="0.9" points="138.94,-203.94 144.73,-203.31 139.81,-200.19 138.94,-203.94"/>
</g>
<!-- out2 -->
<g id="node5" class="node">
<title>out2</title>
<polygon fill="#fff8e8" stroke="#d19922" points="244.16,-171.2 138.14,-171.2 138.14,-124 250.16,-124 250.16,-165.2 244.16,-171.2"/>
<polyline fill="none" stroke="#d19922" points="244.16,-171.2 244.16,-165.2"/>
<polyline fill="none" stroke="#d19922" points="250.16,-165.2 244.16,-165.2"/>
<text xml:space="preserve" text-anchor="start" x="143.9" y="-159.1" font-family="Inter,Arial" font-size="10.00" fill="#614000">to crc32fast&#45;v1.5.0.svg</text>
<text xml:space="preserve" text-anchor="start" x="173.53" y="-149.1" font-family="Inter,Arial" font-weight="bold" font-size="10.00" fill="#614000">crc32fast</text>
<text xml:space="preserve" text-anchor="start" x="183.28" y="-139.1" font-family="Inter,Arial" font-size="10.00" fill="#614000">1.5.0</text>
<text xml:space="preserve" text-anchor="start" x="143.9" y="-129.1" font-family="Inter,Arial" font-size="10.00" fill="#614000">/vendor/crc32fast&#45;1.5.0</text>
</g>
<!-- n0&#45;&gt;out2 -->
<g id="edge4" class="edge">
<title>n0&#45;&gt;out2</title>
<path fill="none" stroke="#d19922" stroke-width="0.9" stroke-dasharray="5,2" d="M92.62,-170.34C104.91,-167.56 118.43,-164.5 131.46,-161.55"/>
<polygon fill="#d19922" stroke="#d19922" stroke-width="0.9" points="131.54,-163.51 136.48,-160.42 130.69,-159.76 131.54,-163.51"/>
</g>
<!-- out3 -->
<g id="node6" class="node">
<title>out3</title>
<polygon fill="#fff8e8" stroke="#d19922" points="232.91,-99.2 149.39,-99.2 149.39,-62 238.91,-62 238.91,-93.2 232.91,-99.2"/>
<polyline fill="none" stroke="#d19922" points="232.91,-99.2 232.91,-93.2"/>
<polyline fill="none" stroke="#d19922" points="238.91,-93.2 232.91,-93.2"/>
<text xml:space="preserve" text-anchor="start" x="155.15" y="-87.1" font-family="Inter,Arial" font-size="10.00" fill="#614000">to log&#45;v0.4.29.svg</text>
<text xml:space="preserve" text-anchor="start" x="186.65" y="-77.1" font-family="Inter,Arial" font-weight="bold" font-size="10.00" fill="#614000">log</text>
<text xml:space="preserve" text-anchor="start" x="180.65" y="-67.1" font-family="Inter,Arial" font-size="10.00" fill="#614000">0.4.29</text>
</g>
<!-- n0&#45;&gt;out3 -->
<g id="edge5" class="edge">
<title>n0&#45;&gt;out3</title>
<path fill="none" stroke="#d19922" stroke-width="0.9" stroke-dasharray="5,2" d="M68.05,-161.72C84.76,-147.07 109.21,-126.75 132.52,-111.6 137.15,-108.59 142.11,-105.64 147.13,-102.84"/>
<polygon fill="#d19922" stroke="#d19922" stroke-width="0.9" points="147.92,-104.6 151.83,-100.28 146.08,-101.22 147.92,-104.6"/>
</g>
<!-- out4 -->
<g id="node7" class="node">
<title>out4</title>
<polygon fill="#fff8e8" stroke="#d19922" points="249.79,-37.2 132.52,-37.2 132.52,0 255.79,0 255.79,-31.2 249.79,-37.2"/>
<polyline fill="none" stroke="#d19922" points="249.79,-37.2 249.79,-31.2"/>
<polyline fill="none" stroke="#d19922" points="255.79,-31.2 249.79,-31.2"/>
<text xml:space="preserve" text-anchor="start" x="138.28" y="-25.1" font-family="Inter,Arial" font-size="10.00" fill="#614000">to miniz_oxide&#45;v0.9.1.svg</text>
<text xml:space="preserve" text-anchor="start" x="165.65" y="-15.1" font-family="Inter,Arial" font-weight="bold" font-size="10.00" fill="#614000">miniz_oxide</text>
<text xml:space="preserve" text-anchor="start" x="183.28" y="-5.1" font-family="Inter,Arial" font-size="10.00" fill="#614000">0.9.1</text>
</g>
<!-- n0&#45;&gt;out4 -->
<g id="edge6" class="edge">
<title>n0&#45;&gt;out4</title>
<path fill="none" stroke="#d19922" stroke-width="0.9" stroke-dasharray="5,2" d="M55.53,-161.92C68.52,-134.35 96.03,-82.47 132.52,-49.6 135.83,-46.62 139.47,-43.85 143.28,-41.29"/>
<polygon fill="#d19922" stroke="#d19922" stroke-width="0.9" points="144.2,-42.99 147.81,-38.41 142.14,-39.73 144.2,-42.99"/>
</g>
</g>
</svg>
