<?xml version="1.0" encoding="UTF-8" standalone="no"?>
<!DOCTYPE svg PUBLIC "-//W3C//DTD SVG 1.1//EN"
 "http://www.w3.org/Graphics/SVG/1.1/DTD/svg11.dtd">
<!-- Generated by graphviz version 14.1.2 (0)
 -->
<!-- Title: pure_vorbis&#45;v0.0.1 Pages: 1 -->
<svg width="292pt" height="58pt"
 viewBox="0.00 0.00 292.00 58.00" xmlns="http://www.w3.org/2000/svg" xmlns:xlink="http://www.w3.org/1999/xlink">
<g id="graph0" class="graph" transform="scale(1 1) rotate(0) translate(4 54.4)">
<title>pure_vorbis&#45;v0.0.1</title>
<polygon fill="white" stroke="none" points="-4,4 -4,-54.4 287.69,-54.4 287.69,4 -4,4"/>
<!-- n0 -->
<g id="node1" class="node">
<title>n0</title>
<path fill="#dff3ff" stroke="#1b78a6" d="M129.72,-50.4C129.72,-50.4 12,-50.4 12,-50.4 6,-50.4 0,-44.4 0,-38.4 0,-38.4 0,-12 0,-12 0,-6 6,0 12,0 12,0 129.72,0 129.72,0 135.72,0 141.72,-6 141.72,-12 141.72,-12 141.72,-38.4 141.72,-38.4 141.72,-44.4 135.72,-50.4 129.72,-50.4"/>
<text xml:space="preserve" text-anchor="start" x="32.24" y="-31.85" font-family="Inter,Arial" font-weight="bold" font-size="13.00" fill="#172033">pure_vorbis</text>
<text xml:space="preserve" text-anchor="start" x="57.74" y="-19.8" font-family="Inter,Arial" font-size="12.00" fill="#172033">0.0.1</text>
<text xml:space="preserve" text-anchor="start" x="9.36" y="-8.75" font-family="Inter,Arial" font-size="11.00" fill="#172033">/vendor/pure_vorbis&#45;0.0.1</text>
</g>
<!-- out0 -->
<g id="node2" class="node">
<title>out0</title>
<polygon fill="#fff8e8" stroke="#d19922" points="277.69,-47.4 181.72,-47.4 181.72,-3 283.69,-3 283.69,-41.4 277.69,-47.4"/>
<polyline fill="none" stroke="#d19922" points="277.69,-47.4 277.69,-41.4"/>
<polyline fill="none" stroke="#d19922" points="283.69,-41.4 277.69,-41.4"/>
<text xml:space="preserve" text-anchor="start" x="191.08" y="-31.7" font-family="Inter,Arial" font-size="10.00" fill="#614000">to libm&#45;v0.2.16.svg</text>
<text xml:space="preserve" text-anchor="start" x="222.2" y="-21.7" font-family="Inter,Arial" font-weight="bold" font-size="10.00" fill="#614000">libm</text>
<text xml:space="preserve" text-anchor="start" x="219.2" y="-11.7" font-family="Inter,Arial" font-size="10.00" fill="#614000">0.2.16</text>
</g>
<!-- n0&#45;&gt;out0 -->
<g id="edge1" class="edge">
<title>n0&#45;&gt;out0</title>
<path fill="none" stroke="#d19922" stroke-width="7.2" stroke-dasharray="5,2" d="M141.97,-25.2C151.08,-25.2 160.37,-25.2 169.34,-25.2"/>
<polygon fill="#d19922" stroke="#d19922" stroke-width="7.2" points="169.09,-28.67 174.59,-25.2 169.09,-21.74 169.09,-28.67"/>
</g>
</g>
</svg>
