<?xml version="1.0" encoding="UTF-8" standalone="no"?>
<!DOCTYPE svg PUBLIC "-//W3C//DTD SVG 1.1//EN"
 "http://www.w3.org/Graphics/SVG/1.1/DTD/svg11.dtd">
<!-- Generated by graphviz version 14.1.2 (0)
 -->
<!-- Title: pure_vorbis&#45;v0.0.1 Pages: 1 -->
<svg width="265pt" height="45pt"
 viewBox="0.00 0.00 265.00 45.00" xmlns="http://www.w3.org/2000/svg" xmlns:xlink="http://www.w3.org/1999/xlink">
<g id="graph0" class="graph" transform="scale(1 1) rotate(0) translate(4 41.2)">
<title>pure_vorbis&#45;v0.0.1</title>
<polygon fill="white" stroke="none" points="-4,4 -4,-41.2 260.54,-41.2 260.54,4 -4,4"/>
<!-- n0 -->
<g id="node1" class="node">
<title>n0</title>
<path fill="#dff3ff" stroke="#1b78a6" d="M109.77,-37.2C109.77,-37.2 12,-37.2 12,-37.2 6,-37.2 0,-31.2 0,-25.2 0,-25.2 0,-12 0,-12 0,-6 6,0 12,0 12,0 109.77,0 109.77,0 115.77,0 121.77,-6 121.77,-12 121.77,-12 121.77,-25.2 121.77,-25.2 121.77,-31.2 115.77,-37.2 109.77,-37.2"/>
<text xml:space="preserve" text-anchor="start" x="33.14" y="-25.1" font-family="Inter,Arial" font-weight="bold" font-size="10.00" fill="#172033">pure_vorbis</text>
<text xml:space="preserve" text-anchor="start" x="50.01" y="-15.1" font-family="Inter,Arial" font-size="10.00" fill="#172033">0.0.1</text>
<text xml:space="preserve" text-anchor="start" x="5.76" y="-5.1" font-family="Inter,Arial" font-size="10.00" fill="#172033">/vendor/pure_vorbis&#45;0.0.1</text>
</g>
<!-- out0 -->
<g id="node2" class="node">
<title>out0</title>
<polygon fill="#fff8e8" stroke="#d19922" points="250.54,-37.2 161.77,-37.2 161.77,0 256.54,0 256.54,-31.2 250.54,-37.2"/>
<polyline fill="none" stroke="#d19922" points="250.54,-37.2 250.54,-31.2"/>
<polyline fill="none" stroke="#d19922" points="256.54,-31.2 250.54,-31.2"/>
<text xml:space="preserve" text-anchor="start" x="167.53" y="-25.1" font-family="Inter,Arial" font-size="10.00" fill="#614000">to libm&#45;v0.2.16.svg</text>
<text xml:space="preserve" text-anchor="start" x="198.66" y="-15.1" font-family="Inter,Arial" font-weight="bold" font-size="10.00" fill="#614000">libm</text>
<text xml:space="preserve" text-anchor="start" x="195.66" y="-5.1" font-family="Inter,Arial" font-size="10.00" fill="#614000">0.2.16</text>
</g>
<!-- n0&#45;&gt;out0 -->
<g id="edge1" class="edge">
<title>n0&#45;&gt;out0</title>
<path fill="none" stroke="#d19922" stroke-width="0.9" stroke-dasharray="5,2" d="M122.22,-18.6C132.94,-18.6 144.03,-18.6 154.55,-18.6"/>
<polygon fill="#d19922" stroke="#d19922" stroke-width="0.9" points="154.5,-20.53 160,-18.6 154.5,-16.68 154.5,-20.53"/>
</g>
</g>
</svg>
