<?xml version="1.0" encoding="UTF-8" standalone="no"?>
<!DOCTYPE svg PUBLIC "-//W3C//DTD SVG 1.1//EN"
 "http://www.w3.org/Graphics/SVG/1.1/DTD/svg11.dtd">
<!-- Generated by graphviz version 14.1.2 (0)
 -->
<!-- Title: rand_chacha&#45;v0.3.1 Pages: 1 -->
<svg width="375pt" height="121pt"
 viewBox="0.00 0.00 375.00 121.00" xmlns="http://www.w3.org/2000/svg" xmlns:xlink="http://www.w3.org/1999/xlink">
<g id="graph0" class="graph" transform="scale(1 1) rotate(0) translate(4 117.08)">
<title>rand_chacha&#45;v0.3.1</title>
<polygon fill="white" stroke="none" points="-4,4 -4,-117.08 370.56,-117.08 370.56,4 -4,4"/>
<!-- n0 -->
<g id="node1" class="node">
<title>n0</title>
<path fill="#dff3ff" stroke="#1b78a6" d="M200.29,-70.6C200.29,-70.6 153.52,-70.6 153.52,-70.6 147.52,-70.6 141.52,-64.6 141.52,-58.6 141.52,-58.6 141.52,-46.6 141.52,-46.6 141.52,-40.6 147.52,-34.6 153.52,-34.6 153.52,-34.6 200.29,-34.6 200.29,-34.6 206.29,-34.6 212.29,-40.6 212.29,-46.6 212.29,-46.6 212.29,-58.6 212.29,-58.6 212.29,-64.6 206.29,-70.6 200.29,-70.6"/>
<text xml:space="preserve" text-anchor="start" x="147.28" y="-54.1" font-family="Inter,Arial" font-weight="bold" font-size="10.00" fill="#172033">rand_chacha</text>
<text xml:space="preserve" text-anchor="start" x="166.03" y="-44.1" font-family="Inter,Arial" font-size="10.00" fill="#172033">0.3.1</text>
</g>
<!-- n1 -->
<g id="node2" class="node">
<title>n1</title>
<path fill="#f7f9fb" stroke="#8b9bb0" d="M338.56,-113.07C338.56,-113.07 280.29,-113.07 280.29,-113.07 274.29,-113.07 268.29,-107.07 268.29,-101.07 268.29,-101.07 268.29,-74.12 268.29,-74.12 268.29,-68.12 274.29,-62.12 280.29,-62.12 280.29,-62.12 338.56,-62.12 338.56,-62.12 344.56,-62.12 350.56,-68.12 350.56,-74.12 350.56,-74.12 350.56,-101.07 350.56,-101.07 350.56,-107.07 344.56,-113.07 338.56,-113.07"/>
<text xml:space="preserve" text-anchor="start" x="286.92" y="-100.97" font-family="Inter,Arial" font-weight="bold" font-size="10.00" fill="#172033">ppv&#45;lite86</text>
<text xml:space="preserve" text-anchor="start" x="295.92" y="-87.97" font-family="Inter,Arial" font-size="10.00" fill="#172033">0.2.21</text>
<text xml:space="preserve" text-anchor="start" x="279.05" y="-73.88" font-family="Inter,Arial" font-weight="bold" font-size="8.00" fill="#172033">zerocopy</text>
<text xml:space="preserve" text-anchor="start" x="315.05" y="-73.88" font-family="Inter,Arial" font-size="8.00" fill="#172033"> 0.8.48</text>
<path fill="none" stroke="#9aa8b8" d="M280.63,-65.72C280.63,-65.72 338.22,-65.72 338.22,-65.72 341.51,-65.72 344.8,-69.02 344.8,-72.31 344.8,-72.31 344.8,-78.89 344.8,-78.89 344.8,-82.18 341.51,-85.47 338.22,-85.47 338.22,-85.47 280.63,-85.47 280.63,-85.47 277.34,-85.47 274.05,-82.18 274.05,-78.89 274.05,-78.89 274.05,-72.31 274.05,-72.31 274.05,-69.02 277.34,-65.72 280.63,-65.72"/>
</g>
<!-- n0&#45;&gt;n1 -->
<g id="edge1" class="edge">
<title>n0&#45;&gt;n1</title>
<path fill="none" stroke="#9aa8b8" stroke-width="0.9" d="M212.54,-61.89C227.61,-65.93 245.49,-70.72 261.71,-75.07"/>
<polygon fill="#9aa8b8" stroke="#9aa8b8" stroke-width="0.9" points="260.94,-76.86 266.75,-76.43 261.94,-73.14 260.94,-76.86"/>
</g>
<!-- out0 -->
<g id="node3" class="node">
<title>out0</title>
<polygon fill="#fff8e8" stroke="#d19922" points="360.56,-37.2 252.29,-37.2 252.29,0 366.56,0 366.56,-31.2 360.56,-37.2"/>
<polyline fill="none" stroke="#d19922" points="360.56,-37.2 360.56,-31.2"/>
<polyline fill="none" stroke="#d19922" points="366.56,-31.2 360.56,-31.2"/>
<text xml:space="preserve" text-anchor="start" x="258.05" y="-25.1" font-family="Inter,Arial" font-size="10.00" fill="#614000">to rand_core&#45;v0.6.4.svg</text>
<text xml:space="preserve" text-anchor="start" x="286.17" y="-15.1" font-family="Inter,Arial" font-weight="bold" font-size="10.00" fill="#614000">rand_core</text>
<text xml:space="preserve" text-anchor="start" x="298.55" y="-5.1" font-family="Inter,Arial" font-size="10.00" fill="#614000">0.6.4</text>
</g>
<!-- n0&#45;&gt;out0 -->
<g id="edge2" class="edge">
<title>n0&#45;&gt;out0</title>
<path fill="none" stroke="#d19922" stroke-width="0.9" stroke-dasharray="5,2" d="M212.54,-43.58C222.64,-40.95 234.01,-37.99 245.29,-35.05"/>
<polygon fill="#d19922" stroke="#d19922" stroke-width="0.9" points="245.76,-36.91 250.59,-33.66 244.79,-33.19 245.76,-36.91"/>
</g>
<!-- in1 -->
<g id="node4" class="node">
<title>in1</title>
<polygon fill="#eef6ff" stroke="#4b8fc5" points="95.52,-71.2 0,-71.2 0,-34 101.52,-34 101.52,-65.2 95.52,-71.2"/>
<polyline fill="none" stroke="#4b8fc5" points="95.52,-71.2 95.52,-65.2"/>
<polyline fill="none" stroke="#4b8fc5" points="101.52,-65.2 95.52,-65.2"/>
<text xml:space="preserve" text-anchor="start" x="5.76" y="-59.1" font-family="Inter,Arial" font-size="10.00" fill="#123d5c">from rsa&#45;v0.9.10.svg</text>
<text xml:space="preserve" text-anchor="start" x="21.13" y="-49.1" font-family="Inter,Arial" font-weight="bold" font-size="10.00" fill="#123d5c">rand_chacha</text>
<text xml:space="preserve" text-anchor="start" x="39.88" y="-39.1" font-family="Inter,Arial" font-size="10.00" fill="#123d5c">0.3.1</text>
</g>
<!-- in1&#45;&gt;n0 -->
<g id="edge3" class="edge">
<title>in1&#45;&gt;n0</title>
<path fill="none" stroke="#4b8fc5" stroke-width="0.9" stroke-dasharray="5,2" d="M101.9,-52.6C112.72,-52.6 124.04,-52.6 134.48,-52.6"/>
<polygon fill="#4b8fc5" stroke="#4b8fc5" stroke-width="0.9" points="134.34,-54.53 139.84,-52.6 134.34,-50.68 134.34,-54.53"/>
</g>
</g>
</svg>
