<?xml version="1.0" encoding="UTF-8" standalone="no"?>
<!DOCTYPE svg PUBLIC "-//W3C//DTD SVG 1.1//EN"
 "http://www.w3.org/Graphics/SVG/1.1/DTD/svg11.dtd">
<!-- Generated by graphviz version 14.1.2 (0)
 -->
<!-- Title: rand_core&#45;v0.6.4 Pages: 1 -->
<svg width="488pt" height="328pt"
 viewBox="0.00 0.00 488.00 328.00" xmlns="http://www.w3.org/2000/svg" xmlns:xlink="http://www.w3.org/1999/xlink">
<g id="graph0" class="graph" transform="scale(1 1) rotate(0) translate(4 324.4)">
<title>rand_core&#45;v0.6.4</title>
<polygon fill="white" stroke="none" points="-4,4 -4,-324.4 484.41,-324.4 484.41,4 -4,4"/>
<!-- n0 -->
<g id="node1" class="node">
<title>n0</title>
<path fill="#dff3ff" stroke="#1b78a6" d="M298.69,-179.9C298.69,-179.9 238.72,-179.9 238.72,-179.9 232.72,-179.9 226.72,-173.9 226.72,-167.9 226.72,-167.9 226.72,-152.5 226.72,-152.5 226.72,-146.5 232.72,-140.5 238.72,-140.5 238.72,-140.5 298.69,-140.5 298.69,-140.5 304.69,-140.5 310.69,-146.5 310.69,-152.5 310.69,-152.5 310.69,-167.9 310.69,-167.9 310.69,-173.9 304.69,-179.9 298.69,-179.9"/>
<text xml:space="preserve" text-anchor="start" x="236.08" y="-161.35" font-family="Inter,Arial" font-weight="bold" font-size="13.00" fill="#172033">rand_core</text>
<text xml:space="preserve" text-anchor="start" x="255.58" y="-149.3" font-family="Inter,Arial" font-size="12.00" fill="#172033">0.6.4</text>
</g>
<!-- out0 -->
<g id="node2" class="node">
<title>out0</title>
<polygon fill="#fff8e8" stroke="#d19922" points="474.41,-187.4 350.69,-187.4 350.69,-133 480.41,-133 480.41,-181.4 474.41,-187.4"/>
<polyline fill="none" stroke="#d19922" points="474.41,-187.4 474.41,-181.4"/>
<polyline fill="none" stroke="#d19922" points="480.41,-181.4 474.41,-181.4"/>
<text xml:space="preserve" text-anchor="start" x="360.05" y="-171.7" font-family="Inter,Arial" font-size="10.00" fill="#614000">to getrandom&#45;v0.2.17.svg</text>
<text xml:space="preserve" text-anchor="start" x="390.42" y="-161.7" font-family="Inter,Arial" font-weight="bold" font-size="10.00" fill="#614000">getrandom</text>
<text xml:space="preserve" text-anchor="start" x="402.05" y="-151.7" font-family="Inter,Arial" font-size="10.00" fill="#614000">0.2.17</text>
<text xml:space="preserve" text-anchor="start" x="360.05" y="-141.7" font-family="Inter,Arial" font-size="10.00" fill="#614000">/vendor/getrandom&#45;0.2.17</text>
</g>
<!-- n0&#45;&gt;out0 -->
<g id="edge1" class="edge">
<title>n0&#45;&gt;out0</title>
<path fill="none" stroke="#d19922" stroke-width="7.2" stroke-dasharray="5,2" d="M310.82,-160.2C319.47,-160.2 328.85,-160.2 338.32,-160.2"/>
<polygon fill="#d19922" stroke="#d19922" stroke-width="7.2" points="338.06,-163.67 343.56,-160.2 338.06,-156.74 338.06,-163.67"/>
</g>
<!-- in1 -->
<g id="node3" class="node">
<title>in1</title>
<polygon fill="#eef6ff" stroke="#4b8fc5" points="179.97,-320.4 0.75,-320.4 0.75,-276 185.97,-276 185.97,-314.4 179.97,-320.4"/>
<polyline fill="none" stroke="#4b8fc5" points="179.97,-320.4 179.97,-314.4"/>
<polyline fill="none" stroke="#4b8fc5" points="185.97,-314.4 179.97,-314.4"/>
<text xml:space="preserve" text-anchor="start" x="10.11" y="-304.7" font-family="Inter,Arial" font-size="10.00" fill="#123d5c">from embedded&#45;websocket&#45;v0.9.4.svg</text>
<text xml:space="preserve" text-anchor="start" x="70.11" y="-294.7" font-family="Inter,Arial" font-weight="bold" font-size="10.00" fill="#123d5c">rand_core</text>
<text xml:space="preserve" text-anchor="start" x="82.49" y="-284.7" font-family="Inter,Arial" font-size="10.00" fill="#123d5c">0.6.4</text>
</g>
<!-- in1&#45;&gt;n0 -->
<g id="edge2" class="edge">
<title>in1&#45;&gt;n0</title>
<path fill="none" stroke="#4b8fc5" stroke-width="7.2" stroke-dasharray="5,2" d="M167.93,-275.52C174.55,-272.19 180.93,-268.43 186.72,-264.2 213.68,-244.5 236.21,-213.48 250.61,-190.44"/>
<polygon fill="#4b8fc5" stroke="#4b8fc5" stroke-width="7.2" points="253.44,-192.44 253.33,-185.94 247.52,-188.86 253.44,-192.44"/>
</g>
<!-- in2 -->
<g id="node4" class="node">
<title>in2</title>
<polygon fill="#eef6ff" stroke="#4b8fc5" points="160.1,-251.4 20.63,-251.4 20.63,-207 166.1,-207 166.1,-245.4 160.1,-251.4"/>
<polyline fill="none" stroke="#4b8fc5" points="160.1,-251.4 160.1,-245.4"/>
<polyline fill="none" stroke="#4b8fc5" points="166.1,-245.4 160.1,-245.4"/>
<text xml:space="preserve" text-anchor="start" x="29.99" y="-235.7" font-family="Inter,Arial" font-size="10.00" fill="#123d5c">from rand_chacha&#45;v0.3.1.svg</text>
<text xml:space="preserve" text-anchor="start" x="70.11" y="-225.7" font-family="Inter,Arial" font-weight="bold" font-size="10.00" fill="#123d5c">rand_core</text>
<text xml:space="preserve" text-anchor="start" x="82.49" y="-215.7" font-family="Inter,Arial" font-size="10.00" fill="#123d5c">0.6.4</text>
</g>
<!-- in2&#45;&gt;n0 -->
<g id="edge3" class="edge">
<title>in2&#45;&gt;n0</title>
<path fill="none" stroke="#4b8fc5" stroke-width="7.2" stroke-dasharray="5,2" d="M157.14,-206.62C167.07,-202.9 177.2,-199.01 186.72,-195.2 195.92,-191.52 205.64,-187.47 215.04,-183.46"/>
<polygon fill="#4b8fc5" stroke="#4b8fc5" stroke-width="7.2" points="216.39,-186.65 220.07,-181.3 213.65,-180.29 216.39,-186.65"/>
</g>
<!-- in3 -->
<g id="node5" class="node">
<title>in3</title>
<polygon fill="#eef6ff" stroke="#4b8fc5" points="145.85,-182.4 34.88,-182.4 34.88,-138 151.85,-138 151.85,-176.4 145.85,-182.4"/>
<polyline fill="none" stroke="#4b8fc5" points="145.85,-182.4 145.85,-176.4"/>
<polyline fill="none" stroke="#4b8fc5" points="151.85,-176.4 145.85,-176.4"/>
<text xml:space="preserve" text-anchor="start" x="44.24" y="-166.7" font-family="Inter,Arial" font-size="10.00" fill="#123d5c">from rdrand&#45;v0.8.3.svg</text>
<text xml:space="preserve" text-anchor="start" x="70.11" y="-156.7" font-family="Inter,Arial" font-weight="bold" font-size="10.00" fill="#123d5c">rand_core</text>
<text xml:space="preserve" text-anchor="start" x="82.49" y="-146.7" font-family="Inter,Arial" font-size="10.00" fill="#123d5c">0.6.4</text>
</g>
<!-- in3&#45;&gt;n0 -->
<g id="edge4" class="edge">
<title>in3&#45;&gt;n0</title>
<path fill="none" stroke="#4b8fc5" stroke-width="7.2" stroke-dasharray="5,2" d="M152.08,-160.2C172.13,-160.2 194.52,-160.2 214.21,-160.2"/>
<polygon fill="#4b8fc5" stroke="#4b8fc5" stroke-width="7.2" points="214.14,-163.67 219.64,-160.2 214.14,-156.74 214.14,-163.67"/>
</g>
<!-- in4 -->
<g id="node6" class="node">
<title>in4</title>
<polygon fill="#eef6ff" stroke="#4b8fc5" points="141.72,-113.4 39,-113.4 39,-69 147.72,-69 147.72,-107.4 141.72,-113.4"/>
<polyline fill="none" stroke="#4b8fc5" points="141.72,-113.4 141.72,-107.4"/>
<polyline fill="none" stroke="#4b8fc5" points="147.72,-107.4 141.72,-107.4"/>
<text xml:space="preserve" text-anchor="start" x="48.36" y="-97.7" font-family="Inter,Arial" font-size="10.00" fill="#123d5c">from rsa&#45;v0.9.10.svg</text>
<text xml:space="preserve" text-anchor="start" x="70.11" y="-87.7" font-family="Inter,Arial" font-weight="bold" font-size="10.00" fill="#123d5c">rand_core</text>
<text xml:space="preserve" text-anchor="start" x="82.49" y="-77.7" font-family="Inter,Arial" font-size="10.00" fill="#123d5c">0.6.4</text>
</g>
<!-- in4&#45;&gt;n0 -->
<g id="edge5" class="edge">
<title>in4&#45;&gt;n0</title>
<path fill="none" stroke="#4b8fc5" stroke-width="7.2" stroke-dasharray="5,2" d="M147.79,-110.3C160.59,-115.03 174.19,-120.19 186.72,-125.2 195.92,-128.88 205.64,-132.93 215.04,-136.94"/>
<polygon fill="#4b8fc5" stroke="#4b8fc5" stroke-width="7.2" points="213.65,-140.11 220.07,-139.1 216.39,-133.75 213.65,-140.11"/>
</g>
<!-- in5 -->
<g id="node7" class="node">
<title>in5</title>
<polygon fill="#eef6ff" stroke="#4b8fc5" points="180.72,-44.4 0,-44.4 0,0 186.72,0 186.72,-38.4 180.72,-44.4"/>
<polyline fill="none" stroke="#4b8fc5" points="180.72,-44.4 180.72,-38.4"/>
<polyline fill="none" stroke="#4b8fc5" points="186.72,-38.4 180.72,-38.4"/>
<text xml:space="preserve" text-anchor="start" x="9.36" y="-28.7" font-family="Inter,Arial" font-size="10.00" fill="#123d5c">from rustls&#45;rustcrypto&#45;v0.0.2&#45;alpha.svg</text>
<text xml:space="preserve" text-anchor="start" x="70.11" y="-18.7" font-family="Inter,Arial" font-weight="bold" font-size="10.00" fill="#123d5c">rand_core</text>
<text xml:space="preserve" text-anchor="start" x="82.49" y="-8.7" font-family="Inter,Arial" font-size="10.00" fill="#123d5c">0.6.4</text>
</g>
<!-- in5&#45;&gt;n0 -->
<g id="edge6" class="edge">
<title>in5&#45;&gt;n0</title>
<path fill="none" stroke="#4b8fc5" stroke-width="7.2" stroke-dasharray="5,2" d="M167.93,-44.88C174.55,-48.21 180.93,-51.97 186.72,-56.2 213.68,-75.9 236.21,-106.92 250.61,-129.96"/>
<polygon fill="#4b8fc5" stroke="#4b8fc5" stroke-width="7.2" points="247.52,-131.54 253.33,-134.46 253.44,-127.96 247.52,-131.54"/>
</g>
</g>
</svg>
