<?xml version="1.0" encoding="UTF-8" standalone="no"?>
<!DOCTYPE svg PUBLIC "-//W3C//DTD SVG 1.1//EN"
 "http://www.w3.org/Graphics/SVG/1.1/DTD/svg11.dtd">
<!-- Generated by graphviz version 14.1.2 (0)
 -->
<!-- Title: rand_chacha&#45;v0.3.1 Pages: 1 -->
<svg width="503pt" height="165pt"
 viewBox="0.00 0.00 503.00 165.00" xmlns="http://www.w3.org/2000/svg" xmlns:xlink="http://www.w3.org/1999/xlink">
<g id="graph0" class="graph" transform="scale(1 1) rotate(0) translate(4 160.78)">
<title>rand_chacha&#45;v0.3.1</title>
<polygon fill="white" stroke="none" points="-4,4 -4,-160.78 499.41,-160.78 499.41,4 -4,4"/>
<!-- n0 -->
<g id="node1" class="node">
<title>n0</title>
<path fill="#dff3ff" stroke="#1b78a6" d="M316.69,-86.9C316.69,-86.9 238.72,-86.9 238.72,-86.9 232.72,-86.9 226.72,-80.9 226.72,-74.9 226.72,-74.9 226.72,-59.5 226.72,-59.5 226.72,-53.5 232.72,-47.5 238.72,-47.5 238.72,-47.5 316.69,-47.5 316.69,-47.5 322.69,-47.5 328.69,-53.5 328.69,-59.5 328.69,-59.5 328.69,-74.9 328.69,-74.9 328.69,-80.9 322.69,-86.9 316.69,-86.9"/>
<text xml:space="preserve" text-anchor="start" x="236.08" y="-68.35" font-family="Inter,Arial" font-weight="bold" font-size="13.00" fill="#172033">rand_chacha</text>
<text xml:space="preserve" text-anchor="start" x="264.58" y="-56.3" font-family="Inter,Arial" font-size="12.00" fill="#172033">0.3.1</text>
</g>
<!-- n1 -->
<g id="node2" class="node">
<title>n1</title>
<path fill="#f7f9fb" stroke="#8b9bb0" d="M483.41,-156.78C483.41,-156.78 380.69,-156.78 380.69,-156.78 374.69,-156.78 368.69,-150.78 368.69,-144.78 368.69,-144.78 368.69,-81.62 368.69,-81.62 368.69,-75.62 374.69,-69.62 380.69,-69.62 380.69,-69.62 483.41,-69.62 483.41,-69.62 489.41,-69.62 495.41,-75.62 495.41,-81.62 495.41,-81.62 495.41,-144.78 495.41,-144.78 495.41,-150.78 489.41,-156.78 483.41,-156.78"/>
<text xml:space="preserve" text-anchor="start" x="400.55" y="-138.22" font-family="Inter,Arial" font-weight="bold" font-size="13.00" fill="#172033">ppv&#45;lite86</text>
<text xml:space="preserve" text-anchor="start" x="415.55" y="-123.17" font-family="Inter,Arial" font-size="12.00" fill="#172033">0.2.21</text>
<text xml:space="preserve" text-anchor="start" x="393.05" y="-95.88" font-family="Inter,Arial" font-weight="bold" font-size="11.00" fill="#172033">zerocopy</text>
<text xml:space="preserve" text-anchor="start" x="441.05" y="-95.88" font-family="Inter,Arial" font-size="10.00" fill="#172033"> </text>
<text xml:space="preserve" text-anchor="start" x="444.05" y="-95.88" font-family="Inter,Arial" font-size="10.00" fill="#172033">0.8.52</text>
<path fill="none" stroke="#9aa8b8" d="M394.55,-82.83C394.55,-82.83 469.55,-82.83 469.55,-82.83 474.8,-82.83 480.05,-88.08 480.05,-93.33 480.05,-93.33 480.05,-103.83 480.05,-103.83 480.05,-109.08 474.8,-114.33 469.55,-114.33 469.55,-114.33 394.55,-114.33 394.55,-114.33 389.3,-114.33 384.05,-109.08 384.05,-103.83 384.05,-103.83 384.05,-93.33 384.05,-93.33 384.05,-88.08 389.3,-82.83 394.55,-82.83"/>
</g>
<!-- n0&#45;&gt;n1 -->
<g id="edge1" class="edge">
<title>n0&#45;&gt;n1</title>
<path fill="none" stroke="#9aa8b8" stroke-width="7.2" d="M329.01,-82.39C337.95,-85.09 347.42,-87.95 356.85,-90.8"/>
<polygon fill="#9aa8b8" stroke="#9aa8b8" stroke-width="7.2" points="355.57,-94.03 361.83,-92.3 357.57,-87.39 355.57,-94.03"/>
</g>
<!-- out0 -->
<g id="node3" class="node">
<title>out0</title>
<polygon fill="#fff8e8" stroke="#d19922" points="486.78,-44.4 371.31,-44.4 371.31,0 492.78,0 492.78,-38.4 486.78,-44.4"/>
<polyline fill="none" stroke="#d19922" points="486.78,-44.4 486.78,-38.4"/>
<polyline fill="none" stroke="#d19922" points="492.78,-38.4 486.78,-38.4"/>
<text xml:space="preserve" text-anchor="start" x="380.67" y="-28.7" font-family="Inter,Arial" font-size="10.00" fill="#614000">to rand_core&#45;v0.6.4.svg</text>
<text xml:space="preserve" text-anchor="start" x="408.8" y="-18.7" font-family="Inter,Arial" font-weight="bold" font-size="10.00" fill="#614000">rand_core</text>
<text xml:space="preserve" text-anchor="start" x="421.17" y="-8.7" font-family="Inter,Arial" font-size="10.00" fill="#614000">0.6.4</text>
</g>
<!-- n0&#45;&gt;out0 -->
<g id="edge2" class="edge">
<title>n0&#45;&gt;out0</title>
<path fill="none" stroke="#d19922" stroke-width="7.2" stroke-dasharray="5,2" d="M329.01,-52.34C338.77,-49.46 349.17,-46.38 359.47,-43.34"/>
<polygon fill="#d19922" stroke="#d19922" stroke-width="7.2" points="360.23,-46.73 364.52,-41.85 358.26,-40.09 360.23,-46.73"/>
</g>
<!-- in1 -->
<g id="node4" class="node">
<title>in1</title>
<polygon fill="#eef6ff" stroke="#4b8fc5" points="180.72,-89.4 0,-89.4 0,-45 186.72,-45 186.72,-83.4 180.72,-89.4"/>
<polyline fill="none" stroke="#4b8fc5" points="180.72,-89.4 180.72,-83.4"/>
<polyline fill="none" stroke="#4b8fc5" points="186.72,-83.4 180.72,-83.4"/>
<text xml:space="preserve" text-anchor="start" x="9.36" y="-73.7" font-family="Inter,Arial" font-size="10.00" fill="#123d5c">from rustls&#45;rustcrypto&#45;v0.0.2&#45;alpha.svg</text>
<text xml:space="preserve" text-anchor="start" x="63.74" y="-63.7" font-family="Inter,Arial" font-weight="bold" font-size="10.00" fill="#123d5c">rand_chacha</text>
<text xml:space="preserve" text-anchor="start" x="82.49" y="-53.7" font-family="Inter,Arial" font-size="10.00" fill="#123d5c">0.3.1</text>
</g>
<!-- in1&#45;&gt;n0 -->
<g id="edge3" class="edge">
<title>in1&#45;&gt;n0</title>
<path fill="none" stroke="#4b8fc5" stroke-width="7.2" stroke-dasharray="5,2" d="M187.14,-67.2C196.34,-67.2 205.53,-67.2 214.32,-67.2"/>
<polygon fill="#4b8fc5" stroke="#4b8fc5" stroke-width="7.2" points="214.19,-70.67 219.69,-67.2 214.19,-63.74 214.19,-70.67"/>
</g>
</g>
</svg>
