<?xml version="1.0" encoding="UTF-8" standalone="no"?>
<!DOCTYPE svg PUBLIC "-//W3C//DTD SVG 1.1//EN"
 "http://www.w3.org/Graphics/SVG/1.1/DTD/svg11.dtd">
<!-- Generated by graphviz version 14.1.2 (0)
 -->
<!-- Title: rand_chacha&#45;v0.3.1 Pages: 1 -->
<svg width="425pt" height="165pt"
 viewBox="0.00 0.00 425.00 165.00" xmlns="http://www.w3.org/2000/svg" xmlns:xlink="http://www.w3.org/1999/xlink">
<g id="graph0" class="graph" transform="scale(1 1) rotate(0) translate(4 160.78)">
<title>rand_chacha&#45;v0.3.1</title>
<polygon fill="white" stroke="none" points="-4,4 -4,-160.78 421.41,-160.78 421.41,4 -4,4"/>
<!-- n0 -->
<g id="node1" class="node">
<title>n0</title>
<path fill="#dff3ff" stroke="#1b78a6" d="M238.69,-86.9C238.69,-86.9 160.72,-86.9 160.72,-86.9 154.72,-86.9 148.72,-80.9 148.72,-74.9 148.72,-74.9 148.72,-59.5 148.72,-59.5 148.72,-53.5 154.72,-47.5 160.72,-47.5 160.72,-47.5 238.69,-47.5 238.69,-47.5 244.69,-47.5 250.69,-53.5 250.69,-59.5 250.69,-59.5 250.69,-74.9 250.69,-74.9 250.69,-80.9 244.69,-86.9 238.69,-86.9"/>
<text xml:space="preserve" text-anchor="start" x="158.08" y="-68.35" font-family="Inter,Arial" font-weight="bold" font-size="13.00" fill="#172033">rand_chacha</text>
<text xml:space="preserve" text-anchor="start" x="186.58" y="-56.3" font-family="Inter,Arial" font-size="12.00" fill="#172033">0.3.1</text>
</g>
<!-- n1 -->
<g id="node2" class="node">
<title>n1</title>
<path fill="#f7f9fb" stroke="#8b9bb0" d="M405.41,-156.78C405.41,-156.78 302.69,-156.78 302.69,-156.78 296.69,-156.78 290.69,-150.78 290.69,-144.78 290.69,-144.78 290.69,-81.62 290.69,-81.62 290.69,-75.62 296.69,-69.62 302.69,-69.62 302.69,-69.62 405.41,-69.62 405.41,-69.62 411.41,-69.62 417.41,-75.62 417.41,-81.62 417.41,-81.62 417.41,-144.78 417.41,-144.78 417.41,-150.78 411.41,-156.78 405.41,-156.78"/>
<text xml:space="preserve" text-anchor="start" x="322.55" y="-138.22" font-family="Inter,Arial" font-weight="bold" font-size="13.00" fill="#172033">ppv&#45;lite86</text>
<text xml:space="preserve" text-anchor="start" x="337.55" y="-123.17" font-family="Inter,Arial" font-size="12.00" fill="#172033">0.2.21</text>
<text xml:space="preserve" text-anchor="start" x="315.05" y="-95.88" font-family="Inter,Arial" font-weight="bold" font-size="11.00" fill="#172033">zerocopy</text>
<text xml:space="preserve" text-anchor="start" x="363.05" y="-95.88" font-family="Inter,Arial" font-size="10.00" fill="#172033"> </text>
<text xml:space="preserve" text-anchor="start" x="366.05" y="-95.88" font-family="Inter,Arial" font-size="10.00" fill="#172033">0.8.52</text>
<path fill="none" stroke="#9aa8b8" d="M316.55,-82.83C316.55,-82.83 391.55,-82.83 391.55,-82.83 396.8,-82.83 402.05,-88.08 402.05,-93.33 402.05,-93.33 402.05,-103.83 402.05,-103.83 402.05,-109.08 396.8,-114.33 391.55,-114.33 391.55,-114.33 316.55,-114.33 316.55,-114.33 311.3,-114.33 306.05,-109.08 306.05,-103.83 306.05,-103.83 306.05,-93.33 306.05,-93.33 306.05,-88.08 311.3,-82.83 316.55,-82.83"/>
</g>
<!-- n0&#45;&gt;n1 -->
<g id="edge1" class="edge">
<title>n0&#45;&gt;n1</title>
<path fill="none" stroke="#9aa8b8" stroke-width="7.2" d="M251.01,-82.39C259.95,-85.09 269.42,-87.95 278.85,-90.8"/>
<polygon fill="#9aa8b8" stroke="#9aa8b8" stroke-width="7.2" points="277.57,-94.03 283.83,-92.3 279.57,-87.39 277.57,-94.03"/>
</g>
<!-- out0 -->
<g id="node3" class="node">
<title>out0</title>
<polygon fill="#fff8e8" stroke="#d19922" points="408.78,-44.4 293.31,-44.4 293.31,0 414.78,0 414.78,-38.4 408.78,-44.4"/>
<polyline fill="none" stroke="#d19922" points="408.78,-44.4 408.78,-38.4"/>
<polyline fill="none" stroke="#d19922" points="414.78,-38.4 408.78,-38.4"/>
<text xml:space="preserve" text-anchor="start" x="302.67" y="-28.7" font-family="Inter,Arial" font-size="10.00" fill="#614000">to rand_core&#45;v0.6.4.svg</text>
<text xml:space="preserve" text-anchor="start" x="330.8" y="-18.7" font-family="Inter,Arial" font-weight="bold" font-size="10.00" fill="#614000">rand_core</text>
<text xml:space="preserve" text-anchor="start" x="343.17" y="-8.7" font-family="Inter,Arial" font-size="10.00" fill="#614000">0.6.4</text>
</g>
<!-- n0&#45;&gt;out0 -->
<g id="edge2" class="edge">
<title>n0&#45;&gt;out0</title>
<path fill="none" stroke="#d19922" stroke-width="7.2" stroke-dasharray="5,2" d="M251.01,-52.34C260.77,-49.46 271.17,-46.38 281.47,-43.34"/>
<polygon fill="#d19922" stroke="#d19922" stroke-width="7.2" points="282.23,-46.73 286.52,-41.85 280.26,-40.09 282.23,-46.73"/>
</g>
<!-- in1 -->
<g id="node4" class="node">
<title>in1</title>
<polygon fill="#eef6ff" stroke="#4b8fc5" points="102.72,-89.4 0,-89.4 0,-45 108.72,-45 108.72,-83.4 102.72,-89.4"/>
<polyline fill="none" stroke="#4b8fc5" points="102.72,-89.4 102.72,-83.4"/>
<polyline fill="none" stroke="#4b8fc5" points="108.72,-83.4 102.72,-83.4"/>
<text xml:space="preserve" text-anchor="start" x="9.36" y="-73.7" font-family="Inter,Arial" font-size="10.00" fill="#123d5c">from rsa&#45;v0.9.10.svg</text>
<text xml:space="preserve" text-anchor="start" x="24.74" y="-63.7" font-family="Inter,Arial" font-weight="bold" font-size="10.00" fill="#123d5c">rand_chacha</text>
<text xml:space="preserve" text-anchor="start" x="43.49" y="-53.7" font-family="Inter,Arial" font-size="10.00" fill="#123d5c">0.3.1</text>
</g>
<!-- in1&#45;&gt;n0 -->
<g id="edge3" class="edge">
<title>in1&#45;&gt;n0</title>
<path fill="none" stroke="#4b8fc5" stroke-width="7.2" stroke-dasharray="5,2" d="M109.14,-67.2C117.99,-67.2 127.23,-67.2 136.27,-67.2"/>
<polygon fill="#4b8fc5" stroke="#4b8fc5" stroke-width="7.2" points="136.16,-70.67 141.66,-67.2 136.16,-63.74 136.16,-70.67"/>
</g>
</g>
</svg>
