<?xml version="1.0" encoding="UTF-8" standalone="no"?>
<!DOCTYPE svg PUBLIC "-//W3C//DTD SVG 1.1//EN"
 "http://www.w3.org/Graphics/SVG/1.1/DTD/svg11.dtd">
<!-- Generated by graphviz version 14.1.2 (0)
 -->
<!-- Title: rand_core&#45;v0.6.4 Pages: 1 -->
<svg width="448pt" height="293pt"
 viewBox="0.00 0.00 448.00 293.00" xmlns="http://www.w3.org/2000/svg" xmlns:xlink="http://www.w3.org/1999/xlink">
<g id="graph0" class="graph" transform="scale(1 1) rotate(0) translate(4 289.2)">
<title>rand_core&#45;v0.6.4</title>
<polygon fill="white" stroke="none" points="-4,4 -4,-289.2 444.06,-289.2 444.06,4 -4,4"/>
<!-- n0 -->
<g id="node1" class="node">
<title>n0</title>
<path fill="#dff3ff" stroke="#1b78a6" d="M265.54,-160.6C265.54,-160.6 231.52,-160.6 231.52,-160.6 225.52,-160.6 219.52,-154.6 219.52,-148.6 219.52,-148.6 219.52,-136.6 219.52,-136.6 219.52,-130.6 225.52,-124.6 231.52,-124.6 231.52,-124.6 265.54,-124.6 265.54,-124.6 271.54,-124.6 277.54,-130.6 277.54,-136.6 277.54,-136.6 277.54,-148.6 277.54,-148.6 277.54,-154.6 271.54,-160.6 265.54,-160.6"/>
<text xml:space="preserve" text-anchor="start" x="225.28" y="-144.1" font-family="Inter,Arial" font-weight="bold" font-size="10.00" fill="#172033">rand_core</text>
<text xml:space="preserve" text-anchor="start" x="237.65" y="-134.1" font-family="Inter,Arial" font-size="10.00" fill="#172033">0.6.4</text>
</g>
<!-- out0 -->
<g id="node2" class="node">
<title>out0</title>
<polygon fill="#fff8e8" stroke="#d19922" points="434.06,-166.2 317.54,-166.2 317.54,-119 440.06,-119 440.06,-160.2 434.06,-166.2"/>
<polyline fill="none" stroke="#d19922" points="434.06,-166.2 434.06,-160.2"/>
<polyline fill="none" stroke="#d19922" points="440.06,-160.2 434.06,-160.2"/>
<text xml:space="preserve" text-anchor="start" x="323.3" y="-154.1" font-family="Inter,Arial" font-size="10.00" fill="#614000">to getrandom&#45;v0.2.17.svg</text>
<text xml:space="preserve" text-anchor="start" x="353.67" y="-144.1" font-family="Inter,Arial" font-weight="bold" font-size="10.00" fill="#614000">getrandom</text>
<text xml:space="preserve" text-anchor="start" x="365.3" y="-134.1" font-family="Inter,Arial" font-size="10.00" fill="#614000">0.2.17</text>
<text xml:space="preserve" text-anchor="start" x="323.3" y="-124.1" font-family="Inter,Arial" font-size="10.00" fill="#614000">/vendor/getrandom&#45;0.2.17</text>
</g>
<!-- n0&#45;&gt;out0 -->
<g id="edge1" class="edge">
<title>n0&#45;&gt;out0</title>
<path fill="none" stroke="#d19922" stroke-width="0.9" stroke-dasharray="5,2" d="M278,-142.6C287.68,-142.6 298.96,-142.6 310.38,-142.6"/>
<polygon fill="#d19922" stroke="#d19922" stroke-width="0.9" points="310.25,-144.53 315.75,-142.6 310.25,-140.68 310.25,-144.53"/>
</g>
<!-- in1 -->
<g id="node3" class="node">
<title>in1</title>
<polygon fill="#eef6ff" stroke="#4b8fc5" points="172.77,-285.2 0.75,-285.2 0.75,-248 178.77,-248 178.77,-279.2 172.77,-285.2"/>
<polyline fill="none" stroke="#4b8fc5" points="172.77,-285.2 172.77,-279.2"/>
<polyline fill="none" stroke="#4b8fc5" points="178.77,-279.2 172.77,-279.2"/>
<text xml:space="preserve" text-anchor="start" x="6.51" y="-273.1" font-family="Inter,Arial" font-size="10.00" fill="#123d5c">from embedded&#45;websocket&#45;v0.9.4.svg</text>
<text xml:space="preserve" text-anchor="start" x="66.51" y="-263.1" font-family="Inter,Arial" font-weight="bold" font-size="10.00" fill="#123d5c">rand_core</text>
<text xml:space="preserve" text-anchor="start" x="78.88" y="-253.1" font-family="Inter,Arial" font-size="10.00" fill="#123d5c">0.6.4</text>
</g>
<!-- in1&#45;&gt;n0 -->
<g id="edge2" class="edge">
<title>in1&#45;&gt;n0</title>
<path fill="none" stroke="#4b8fc5" stroke-width="0.9" stroke-dasharray="5,2" d="M158.86,-247.7C166.17,-244.27 173.22,-240.26 179.52,-235.6 204.09,-217.39 223.58,-187.76 235.28,-166.84"/>
<polygon fill="#4b8fc5" stroke="#4b8fc5" stroke-width="0.9" points="236.91,-167.87 237.86,-162.12 233.54,-166.02 236.91,-167.87"/>
</g>
<!-- in2 -->
<g id="node4" class="node">
<title>in2</title>
<polygon fill="#eef6ff" stroke="#4b8fc5" points="152.89,-223.2 20.62,-223.2 20.62,-186 158.89,-186 158.89,-217.2 152.89,-223.2"/>
<polyline fill="none" stroke="#4b8fc5" points="152.89,-223.2 152.89,-217.2"/>
<polyline fill="none" stroke="#4b8fc5" points="158.89,-217.2 152.89,-217.2"/>
<text xml:space="preserve" text-anchor="start" x="26.38" y="-211.1" font-family="Inter,Arial" font-size="10.00" fill="#123d5c">from rand_chacha&#45;v0.3.1.svg</text>
<text xml:space="preserve" text-anchor="start" x="66.51" y="-201.1" font-family="Inter,Arial" font-weight="bold" font-size="10.00" fill="#123d5c">rand_core</text>
<text xml:space="preserve" text-anchor="start" x="78.88" y="-191.1" font-family="Inter,Arial" font-size="10.00" fill="#123d5c">0.6.4</text>
</g>
<!-- in2&#45;&gt;n0 -->
<g id="edge3" class="edge">
<title>in2&#45;&gt;n0</title>
<path fill="none" stroke="#4b8fc5" stroke-width="0.9" stroke-dasharray="5,2" d="M147.87,-185.52C158.46,-181.74 169.37,-177.68 179.52,-173.6 190.59,-169.15 202.49,-163.9 213.18,-159"/>
<polygon fill="#4b8fc5" stroke="#4b8fc5" stroke-width="0.9" points="213.9,-160.78 218.09,-156.73 212.29,-157.29 213.9,-160.78"/>
</g>
<!-- in3 -->
<g id="node5" class="node">
<title>in3</title>
<polygon fill="#eef6ff" stroke="#4b8fc5" points="138.64,-161.2 34.87,-161.2 34.87,-124 144.64,-124 144.64,-155.2 138.64,-161.2"/>
<polyline fill="none" stroke="#4b8fc5" points="138.64,-161.2 138.64,-155.2"/>
<polyline fill="none" stroke="#4b8fc5" points="144.64,-155.2 138.64,-155.2"/>
<text xml:space="preserve" text-anchor="start" x="40.63" y="-149.1" font-family="Inter,Arial" font-size="10.00" fill="#123d5c">from rdrand&#45;v0.8.3.svg</text>
<text xml:space="preserve" text-anchor="start" x="66.51" y="-139.1" font-family="Inter,Arial" font-weight="bold" font-size="10.00" fill="#123d5c">rand_core</text>
<text xml:space="preserve" text-anchor="start" x="78.88" y="-129.1" font-family="Inter,Arial" font-size="10.00" fill="#123d5c">0.6.4</text>
</g>
<!-- in3&#45;&gt;n0 -->
<g id="edge4" class="edge">
<title>in3&#45;&gt;n0</title>
<path fill="none" stroke="#4b8fc5" stroke-width="0.9" stroke-dasharray="5,2" d="M144.71,-142.6C167.05,-142.6 192.34,-142.6 212.24,-142.6"/>
<polygon fill="#4b8fc5" stroke="#4b8fc5" stroke-width="0.9" points="212.18,-144.53 217.68,-142.6 212.18,-140.68 212.18,-144.53"/>
</g>
<!-- in4 -->
<g id="node6" class="node">
<title>in4</title>
<polygon fill="#eef6ff" stroke="#4b8fc5" points="134.52,-99.2 39,-99.2 39,-62 140.52,-62 140.52,-93.2 134.52,-99.2"/>
<polyline fill="none" stroke="#4b8fc5" points="134.52,-99.2 134.52,-93.2"/>
<polyline fill="none" stroke="#4b8fc5" points="140.52,-93.2 134.52,-93.2"/>
<text xml:space="preserve" text-anchor="start" x="44.76" y="-87.1" font-family="Inter,Arial" font-size="10.00" fill="#123d5c">from rsa&#45;v0.9.10.svg</text>
<text xml:space="preserve" text-anchor="start" x="66.51" y="-77.1" font-family="Inter,Arial" font-weight="bold" font-size="10.00" fill="#123d5c">rand_core</text>
<text xml:space="preserve" text-anchor="start" x="78.88" y="-67.1" font-family="Inter,Arial" font-size="10.00" fill="#123d5c">0.6.4</text>
</g>
<!-- in4&#45;&gt;n0 -->
<g id="edge5" class="edge">
<title>in4&#45;&gt;n0</title>
<path fill="none" stroke="#4b8fc5" stroke-width="0.9" stroke-dasharray="5,2" d="M140.82,-97.18C153.53,-101.64 167.1,-106.61 179.52,-111.6 190.59,-116.05 202.49,-121.3 213.18,-126.2"/>
<polygon fill="#4b8fc5" stroke="#4b8fc5" stroke-width="0.9" points="212.29,-127.91 218.09,-128.47 213.9,-124.42 212.29,-127.91"/>
</g>
<!-- in5 -->
<g id="node7" class="node">
<title>in5</title>
<polygon fill="#eef6ff" stroke="#4b8fc5" points="173.52,-37.2 0,-37.2 0,0 179.52,0 179.52,-31.2 173.52,-37.2"/>
<polyline fill="none" stroke="#4b8fc5" points="173.52,-37.2 173.52,-31.2"/>
<polyline fill="none" stroke="#4b8fc5" points="179.52,-31.2 173.52,-31.2"/>
<text xml:space="preserve" text-anchor="start" x="5.76" y="-25.1" font-family="Inter,Arial" font-size="10.00" fill="#123d5c">from rustls&#45;rustcrypto&#45;v0.0.2&#45;alpha.svg</text>
<text xml:space="preserve" text-anchor="start" x="66.51" y="-15.1" font-family="Inter,Arial" font-weight="bold" font-size="10.00" fill="#123d5c">rand_core</text>
<text xml:space="preserve" text-anchor="start" x="78.88" y="-5.1" font-family="Inter,Arial" font-size="10.00" fill="#123d5c">0.6.4</text>
</g>
<!-- in5&#45;&gt;n0 -->
<g id="edge6" class="edge">
<title>in5&#45;&gt;n0</title>
<path fill="none" stroke="#4b8fc5" stroke-width="0.9" stroke-dasharray="5,2" d="M158.86,-37.5C166.17,-40.93 173.22,-44.94 179.52,-49.6 204.09,-67.81 223.58,-97.44 235.28,-118.36"/>
<polygon fill="#4b8fc5" stroke="#4b8fc5" stroke-width="0.9" points="233.54,-119.18 237.86,-123.08 236.91,-117.33 233.54,-119.18"/>
</g>
</g>
</svg>
