<?xml version="1.0" encoding="UTF-8" standalone="no"?>
<!DOCTYPE svg PUBLIC "-//W3C//DTD SVG 1.1//EN"
 "http://www.w3.org/Graphics/SVG/1.1/DTD/svg11.dtd">
<!-- Generated by graphviz version 14.1.2 (0)
 -->
<!-- Title: rand_core&#45;v0.6.4 Pages: 1 -->
<svg width="488pt" height="259pt"
 viewBox="0.00 0.00 488.00 259.00" xmlns="http://www.w3.org/2000/svg" xmlns:xlink="http://www.w3.org/1999/xlink">
<g id="graph0" class="graph" transform="scale(1 1) rotate(0) translate(4 255.4)">
<title>rand_core&#45;v0.6.4</title>
<polygon fill="white" stroke="none" points="-4,4 -4,-255.4 484.41,-255.4 484.41,4 -4,4"/>
<!-- n0 -->
<g id="node1" class="node">
<title>n0</title>
<path fill="#dff3ff" stroke="#1b78a6" d="M298.69,-144.9C298.69,-144.9 238.72,-144.9 238.72,-144.9 232.72,-144.9 226.72,-138.9 226.72,-132.9 226.72,-132.9 226.72,-117.5 226.72,-117.5 226.72,-111.5 232.72,-105.5 238.72,-105.5 238.72,-105.5 298.69,-105.5 298.69,-105.5 304.69,-105.5 310.69,-111.5 310.69,-117.5 310.69,-117.5 310.69,-132.9 310.69,-132.9 310.69,-138.9 304.69,-144.9 298.69,-144.9"/>
<text xml:space="preserve" text-anchor="start" x="236.08" y="-126.35" font-family="Inter,Arial" font-weight="bold" font-size="13.00" fill="#172033">rand_core</text>
<text xml:space="preserve" text-anchor="start" x="255.58" y="-114.3" font-family="Inter,Arial" font-size="12.00" fill="#172033">0.6.4</text>
</g>
<!-- out0 -->
<g id="node2" class="node">
<title>out0</title>
<polygon fill="#fff8e8" stroke="#d19922" points="474.41,-152.4 350.69,-152.4 350.69,-98 480.41,-98 480.41,-146.4 474.41,-152.4"/>
<polyline fill="none" stroke="#d19922" points="474.41,-152.4 474.41,-146.4"/>
<polyline fill="none" stroke="#d19922" points="480.41,-146.4 474.41,-146.4"/>
<text xml:space="preserve" text-anchor="start" x="360.05" y="-136.7" font-family="Inter,Arial" font-size="10.00" fill="#614000">to getrandom&#45;v0.2.17.svg</text>
<text xml:space="preserve" text-anchor="start" x="390.42" y="-126.7" font-family="Inter,Arial" font-weight="bold" font-size="10.00" fill="#614000">getrandom</text>
<text xml:space="preserve" text-anchor="start" x="402.05" y="-116.7" font-family="Inter,Arial" font-size="10.00" fill="#614000">0.2.17</text>
<text xml:space="preserve" text-anchor="start" x="360.05" y="-106.7" font-family="Inter,Arial" font-size="10.00" fill="#614000">/vendor/getrandom&#45;0.2.17</text>
</g>
<!-- n0&#45;&gt;out0 -->
<g id="edge1" class="edge">
<title>n0&#45;&gt;out0</title>
<path fill="none" stroke="#d19922" stroke-width="7.2" stroke-dasharray="5,2" d="M310.82,-125.2C319.47,-125.2 328.85,-125.2 338.32,-125.2"/>
<polygon fill="#d19922" stroke="#d19922" stroke-width="7.2" points="338.06,-128.67 343.56,-125.2 338.06,-121.74 338.06,-128.67"/>
</g>
<!-- in1 -->
<g id="node3" class="node">
<title>in1</title>
<polygon fill="#eef6ff" stroke="#4b8fc5" points="179.97,-251.4 0.75,-251.4 0.75,-207 185.97,-207 185.97,-245.4 179.97,-251.4"/>
<polyline fill="none" stroke="#4b8fc5" points="179.97,-251.4 179.97,-245.4"/>
<polyline fill="none" stroke="#4b8fc5" points="185.97,-245.4 179.97,-245.4"/>
<text xml:space="preserve" text-anchor="start" x="10.11" y="-235.7" font-family="Inter,Arial" font-size="10.00" fill="#123d5c">from embedded&#45;websocket&#45;v0.9.4.svg</text>
<text xml:space="preserve" text-anchor="start" x="70.11" y="-225.7" font-family="Inter,Arial" font-weight="bold" font-size="10.00" fill="#123d5c">rand_core</text>
<text xml:space="preserve" text-anchor="start" x="82.49" y="-215.7" font-family="Inter,Arial" font-size="10.00" fill="#123d5c">0.6.4</text>
</g>
<!-- in1&#45;&gt;n0 -->
<g id="edge2" class="edge">
<title>in1&#45;&gt;n0</title>
<path fill="none" stroke="#4b8fc5" stroke-width="7.2" stroke-dasharray="5,2" d="M164.2,-206.59C171.99,-203.16 179.66,-199.37 186.72,-195.2 206.08,-183.79 225.21,-167.54 240.02,-153.57"/>
<polygon fill="#4b8fc5" stroke="#4b8fc5" stroke-width="7.2" points="242.24,-156.24 243.79,-149.93 237.43,-151.26 242.24,-156.24"/>
</g>
<!-- in2 -->
<g id="node4" class="node">
<title>in2</title>
<polygon fill="#eef6ff" stroke="#4b8fc5" points="160.1,-182.4 20.63,-182.4 20.63,-138 166.1,-138 166.1,-176.4 160.1,-182.4"/>
<polyline fill="none" stroke="#4b8fc5" points="160.1,-182.4 160.1,-176.4"/>
<polyline fill="none" stroke="#4b8fc5" points="166.1,-176.4 160.1,-176.4"/>
<text xml:space="preserve" text-anchor="start" x="29.99" y="-166.7" font-family="Inter,Arial" font-size="10.00" fill="#123d5c">from rand_chacha&#45;v0.3.1.svg</text>
<text xml:space="preserve" text-anchor="start" x="70.11" y="-156.7" font-family="Inter,Arial" font-weight="bold" font-size="10.00" fill="#123d5c">rand_core</text>
<text xml:space="preserve" text-anchor="start" x="82.49" y="-146.7" font-family="Inter,Arial" font-size="10.00" fill="#123d5c">0.6.4</text>
</g>
<!-- in2&#45;&gt;n0 -->
<g id="edge3" class="edge">
<title>in2&#45;&gt;n0</title>
<path fill="none" stroke="#4b8fc5" stroke-width="7.2" stroke-dasharray="5,2" d="M166.37,-145.66C182.52,-142.4 199.36,-139 214.58,-135.93"/>
<polygon fill="#4b8fc5" stroke="#4b8fc5" stroke-width="7.2" points="215.06,-139.36 219.77,-134.88 213.69,-132.57 215.06,-139.36"/>
</g>
<!-- in3 -->
<g id="node5" class="node">
<title>in3</title>
<polygon fill="#eef6ff" stroke="#4b8fc5" points="145.85,-113.4 34.88,-113.4 34.88,-69 151.85,-69 151.85,-107.4 145.85,-113.4"/>
<polyline fill="none" stroke="#4b8fc5" points="145.85,-113.4 145.85,-107.4"/>
<polyline fill="none" stroke="#4b8fc5" points="151.85,-107.4 145.85,-107.4"/>
<text xml:space="preserve" text-anchor="start" x="44.24" y="-97.7" font-family="Inter,Arial" font-size="10.00" fill="#123d5c">from rdrand&#45;v0.8.3.svg</text>
<text xml:space="preserve" text-anchor="start" x="70.11" y="-87.7" font-family="Inter,Arial" font-weight="bold" font-size="10.00" fill="#123d5c">rand_core</text>
<text xml:space="preserve" text-anchor="start" x="82.49" y="-77.7" font-family="Inter,Arial" font-size="10.00" fill="#123d5c">0.6.4</text>
</g>
<!-- in3&#45;&gt;n0 -->
<g id="edge4" class="edge">
<title>in3&#45;&gt;n0</title>
<path fill="none" stroke="#4b8fc5" stroke-width="7.2" stroke-dasharray="5,2" d="M152.08,-102.52C172.23,-106.47 194.73,-110.89 214.49,-114.76"/>
<polygon fill="#4b8fc5" stroke="#4b8fc5" stroke-width="7.2" points="213.7,-118.14 219.77,-115.8 215.04,-111.34 213.7,-118.14"/>
</g>
<!-- in4 -->
<g id="node6" class="node">
<title>in4</title>
<polygon fill="#eef6ff" stroke="#4b8fc5" points="180.72,-44.4 0,-44.4 0,0 186.72,0 186.72,-38.4 180.72,-44.4"/>
<polyline fill="none" stroke="#4b8fc5" points="180.72,-44.4 180.72,-38.4"/>
<polyline fill="none" stroke="#4b8fc5" points="186.72,-38.4 180.72,-38.4"/>
<text xml:space="preserve" text-anchor="start" x="9.36" y="-28.7" font-family="Inter,Arial" font-size="10.00" fill="#123d5c">from rustls&#45;rustcrypto&#45;v0.0.2&#45;alpha.svg</text>
<text xml:space="preserve" text-anchor="start" x="70.11" y="-18.7" font-family="Inter,Arial" font-weight="bold" font-size="10.00" fill="#123d5c">rand_core</text>
<text xml:space="preserve" text-anchor="start" x="82.49" y="-8.7" font-family="Inter,Arial" font-size="10.00" fill="#123d5c">0.6.4</text>
</g>
<!-- in4&#45;&gt;n0 -->
<g id="edge5" class="edge">
<title>in4&#45;&gt;n0</title>
<path fill="none" stroke="#4b8fc5" stroke-width="7.2" stroke-dasharray="5,2" d="M164.18,-44.86C171.97,-48.28 179.64,-52.06 186.72,-56.2 205.87,-67.4 224.87,-83.27 239.65,-96.97"/>
<polygon fill="#4b8fc5" stroke="#4b8fc5" stroke-width="7.2" points="237,-99.23 243.37,-100.51 241.77,-94.21 237,-99.23"/>
</g>
</g>
</svg>
