<?xml version="1.0" encoding="UTF-8" standalone="no"?>
<!DOCTYPE svg PUBLIC "-//W3C//DTD SVG 1.1//EN"
 "http://www.w3.org/Graphics/SVG/1.1/DTD/svg11.dtd">
<!-- Generated by graphviz version 14.1.2 (0)
 -->
<!-- Title: raw&#45;cpuid&#45;v11.6.0 Pages: 1 -->
<svg width="195pt" height="45pt"
 viewBox="0.00 0.00 195.00 45.00" xmlns="http://www.w3.org/2000/svg" xmlns:xlink="http://www.w3.org/1999/xlink">
<g id="graph0" class="graph" transform="scale(1 1) rotate(0) translate(4 41.2)">
<title>raw&#45;cpuid&#45;v11.6.0</title>
<polygon fill="white" stroke="none" points="-4,4 -4,-41.2 190.79,-41.2 190.79,4 -4,4"/>
<!-- n0 -->
<g id="node1" class="node">
<title>n0</title>
<path fill="#dff3ff" stroke="#1b78a6" d="M45.27,-36.6C45.27,-36.6 12,-36.6 12,-36.6 6,-36.6 0,-30.6 0,-24.6 0,-24.6 0,-12.6 0,-12.6 0,-6.6 6,-0.6 12,-0.6 12,-0.6 45.27,-0.6 45.27,-0.6 51.27,-0.6 57.27,-6.6 57.27,-12.6 57.27,-12.6 57.27,-24.6 57.27,-24.6 57.27,-30.6 51.27,-36.6 45.27,-36.6"/>
<text xml:space="preserve" text-anchor="start" x="5.76" y="-20.1" font-family="Inter,Arial" font-weight="bold" font-size="10.00" fill="#172033">raw&#45;cpuid</text>
<text xml:space="preserve" text-anchor="start" x="15.13" y="-10.1" font-family="Inter,Arial" font-size="10.00" fill="#172033">11.6.0</text>
</g>
<!-- out0 -->
<g id="node2" class="node">
<title>out0</title>
<polygon fill="#fff8e8" stroke="#d19922" points="180.79,-37.2 97.27,-37.2 97.27,0 186.79,0 186.79,-31.2 180.79,-37.2"/>
<polyline fill="none" stroke="#d19922" points="180.79,-37.2 180.79,-31.2"/>
<polyline fill="none" stroke="#d19922" points="186.79,-31.2 180.79,-31.2"/>
<text xml:space="preserve" text-anchor="start" x="103.03" y="-25.1" font-family="Inter,Arial" font-size="10.00" fill="#614000">to acpi&#45;v6.1.1.svg</text>
<text xml:space="preserve" text-anchor="start" x="124.78" y="-15.1" font-family="Inter,Arial" font-weight="bold" font-size="10.00" fill="#614000">bitflags</text>
<text xml:space="preserve" text-anchor="start" x="128.53" y="-5.1" font-family="Inter,Arial" font-size="10.00" fill="#614000">2.11.1</text>
</g>
<!-- n0&#45;&gt;out0 -->
<g id="edge1" class="edge">
<title>n0&#45;&gt;out0</title>
<path fill="none" stroke="#d19922" stroke-width="0.9" stroke-dasharray="5,2" d="M57.74,-18.6C67.66,-18.6 79.13,-18.6 90.33,-18.6"/>
<polygon fill="#d19922" stroke="#d19922" stroke-width="0.9" points="90.02,-20.53 95.52,-18.6 90.02,-16.68 90.02,-20.53"/>
</g>
</g>
</svg>
