<?xml version="1.0" encoding="UTF-8" standalone="no"?>
<!DOCTYPE svg PUBLIC "-//W3C//DTD SVG 1.1//EN"
 "http://www.w3.org/Graphics/SVG/1.1/DTD/svg11.dtd">
<!-- Generated by graphviz version 14.1.2 (0)
 -->
<!-- Title: raw&#45;cpuid&#45;v11.6.0 Pages: 1 -->
<svg width="226pt" height="52pt"
 viewBox="0.00 0.00 226.00 52.00" xmlns="http://www.w3.org/2000/svg" xmlns:xlink="http://www.w3.org/1999/xlink">
<g id="graph0" class="graph" transform="scale(1 1) rotate(0) translate(4 48.4)">
<title>raw&#45;cpuid&#45;v11.6.0</title>
<polygon fill="white" stroke="none" points="-4,4 -4,-48.4 222.44,-48.4 222.44,4 -4,4"/>
<!-- n0 -->
<g id="node1" class="node">
<title>n0</title>
<path fill="#dff3ff" stroke="#1b78a6" d="M69.72,-41.9C69.72,-41.9 12,-41.9 12,-41.9 6,-41.9 0,-35.9 0,-29.9 0,-29.9 0,-14.5 0,-14.5 0,-8.5 6,-2.5 12,-2.5 12,-2.5 69.72,-2.5 69.72,-2.5 75.72,-2.5 81.72,-8.5 81.72,-14.5 81.72,-14.5 81.72,-29.9 81.72,-29.9 81.72,-35.9 75.72,-41.9 69.72,-41.9"/>
<text xml:space="preserve" text-anchor="start" x="9.36" y="-23.35" font-family="Inter,Arial" font-weight="bold" font-size="13.00" fill="#172033">raw&#45;cpuid</text>
<text xml:space="preserve" text-anchor="start" x="25.11" y="-11.3" font-family="Inter,Arial" font-size="12.00" fill="#172033">11.6.0</text>
</g>
<!-- out0 -->
<g id="node2" class="node">
<title>out0</title>
<polygon fill="#fff8e8" stroke="#d19922" points="212.44,-44.4 121.72,-44.4 121.72,0 218.44,0 218.44,-38.4 212.44,-44.4"/>
<polyline fill="none" stroke="#d19922" points="212.44,-44.4 212.44,-38.4"/>
<polyline fill="none" stroke="#d19922" points="218.44,-38.4 212.44,-38.4"/>
<text xml:space="preserve" text-anchor="start" x="131.08" y="-28.7" font-family="Inter,Arial" font-size="10.00" fill="#614000">to acpi&#45;v6.1.1.svg</text>
<text xml:space="preserve" text-anchor="start" x="152.83" y="-18.7" font-family="Inter,Arial" font-weight="bold" font-size="10.00" fill="#614000">bitflags</text>
<text xml:space="preserve" text-anchor="start" x="156.58" y="-8.7" font-family="Inter,Arial" font-size="10.00" fill="#614000">2.11.1</text>
</g>
<!-- n0&#45;&gt;out0 -->
<g id="edge1" class="edge">
<title>n0&#45;&gt;out0</title>
<path fill="none" stroke="#d19922" stroke-width="0.9" stroke-dasharray="5,2" d="M82.11,-22.2C92.48,-22.2 103.81,-22.2 114.77,-22.2"/>
<polygon fill="#d19922" stroke="#d19922" stroke-width="0.9" points="114.66,-24.13 120.16,-22.2 114.66,-20.28 114.66,-24.13"/>
</g>
</g>
</svg>
