<?xml version="1.0" encoding="UTF-8" standalone="no"?>
<!DOCTYPE svg PUBLIC "-//W3C//DTD SVG 1.1//EN"
 "http://www.w3.org/Graphics/SVG/1.1/DTD/svg11.dtd">
<!-- Generated by graphviz version 14.1.2 (0)
 -->
<!-- Title: rdrand&#45;v0.8.3 Pages: 1 -->
<svg width="216pt" height="45pt"
 viewBox="0.00 0.00 216.00 45.00" xmlns="http://www.w3.org/2000/svg" xmlns:xlink="http://www.w3.org/1999/xlink">
<g id="graph0" class="graph" transform="scale(1 1) rotate(0) translate(4 41.2)">
<title>rdrand&#45;v0.8.3</title>
<polygon fill="white" stroke="none" points="-4,4 -4,-41.2 212.27,-41.2 212.27,4 -4,4"/>
<!-- n0 -->
<g id="node1" class="node">
<title>n0</title>
<path fill="#dff3ff" stroke="#1b78a6" d="M42,-36.6C42,-36.6 12,-36.6 12,-36.6 6,-36.6 0,-30.6 0,-24.6 0,-24.6 0,-12.6 0,-12.6 0,-6.6 6,-0.6 12,-0.6 12,-0.6 42,-0.6 42,-0.6 48,-0.6 54,-6.6 54,-12.6 54,-12.6 54,-24.6 54,-24.6 54,-30.6 48,-36.6 42,-36.6"/>
<text xml:space="preserve" text-anchor="start" x="11.62" y="-20.1" font-family="Inter,Arial" font-weight="bold" font-size="10.00" fill="#172033">rdrand</text>
<text xml:space="preserve" text-anchor="start" x="16.12" y="-10.1" font-family="Inter,Arial" font-size="10.00" fill="#172033">0.8.3</text>
</g>
<!-- out0 -->
<g id="node2" class="node">
<title>out0</title>
<polygon fill="#fff8e8" stroke="#d19922" points="202.27,-37.2 94,-37.2 94,0 208.27,0 208.27,-31.2 202.27,-37.2"/>
<polyline fill="none" stroke="#d19922" points="202.27,-37.2 202.27,-31.2"/>
<polyline fill="none" stroke="#d19922" points="208.27,-31.2 202.27,-31.2"/>
<text xml:space="preserve" text-anchor="start" x="99.76" y="-25.1" font-family="Inter,Arial" font-size="10.00" fill="#614000">to rand_core&#45;v0.6.4.svg</text>
<text xml:space="preserve" text-anchor="start" x="127.88" y="-15.1" font-family="Inter,Arial" font-weight="bold" font-size="10.00" fill="#614000">rand_core</text>
<text xml:space="preserve" text-anchor="start" x="140.26" y="-5.1" font-family="Inter,Arial" font-size="10.00" fill="#614000">0.6.4</text>
</g>
<!-- n0&#45;&gt;out0 -->
<g id="edge1" class="edge">
<title>n0&#45;&gt;out0</title>
<path fill="none" stroke="#d19922" stroke-width="0.9" stroke-dasharray="5,2" d="M54.2,-18.6C63.87,-18.6 75.29,-18.6 86.82,-18.6"/>
<polygon fill="#d19922" stroke="#d19922" stroke-width="0.9" points="86.74,-20.53 92.24,-18.6 86.74,-16.68 86.74,-20.53"/>
</g>
</g>
</svg>
