<?xml version="1.0" encoding="UTF-8" standalone="no"?>
<!DOCTYPE svg PUBLIC "-//W3C//DTD SVG 1.1//EN"
 "http://www.w3.org/Graphics/SVG/1.1/DTD/svg11.dtd">
<!-- Generated by graphviz version 14.1.2 (0)
 -->
<!-- Title: rdrand&#45;v0.8.3 Pages: 1 -->
<svg width="231pt" height="52pt"
 viewBox="0.00 0.00 231.00 52.00" xmlns="http://www.w3.org/2000/svg" xmlns:xlink="http://www.w3.org/1999/xlink">
<g id="graph0" class="graph" transform="scale(1 1) rotate(0) translate(4 48.4)">
<title>rdrand&#45;v0.8.3</title>
<polygon fill="white" stroke="none" points="-4,4 -4,-48.4 226.94,-48.4 226.94,4 -4,4"/>
<!-- n0 -->
<g id="node1" class="node">
<title>n0</title>
<path fill="#dff3ff" stroke="#1b78a6" d="M49.47,-41.9C49.47,-41.9 12,-41.9 12,-41.9 6,-41.9 0,-35.9 0,-29.9 0,-29.9 0,-14.5 0,-14.5 0,-8.5 6,-2.5 12,-2.5 12,-2.5 49.47,-2.5 49.47,-2.5 55.47,-2.5 61.47,-8.5 61.47,-14.5 61.47,-14.5 61.47,-29.9 61.47,-29.9 61.47,-35.9 55.47,-41.9 49.47,-41.9"/>
<text xml:space="preserve" text-anchor="start" x="9.36" y="-23.35" font-family="Inter,Arial" font-weight="bold" font-size="13.00" fill="#172033">rdrand</text>
<text xml:space="preserve" text-anchor="start" x="17.61" y="-11.3" font-family="Inter,Arial" font-size="12.00" fill="#172033">0.8.3</text>
</g>
<!-- out0 -->
<g id="node2" class="node">
<title>out0</title>
<polygon fill="#fff8e8" stroke="#d19922" points="216.94,-44.4 101.47,-44.4 101.47,0 222.94,0 222.94,-38.4 216.94,-44.4"/>
<polyline fill="none" stroke="#d19922" points="216.94,-44.4 216.94,-38.4"/>
<polyline fill="none" stroke="#d19922" points="222.94,-38.4 216.94,-38.4"/>
<text xml:space="preserve" text-anchor="start" x="110.83" y="-28.7" font-family="Inter,Arial" font-size="10.00" fill="#614000">to rand_core&#45;v0.6.4.svg</text>
<text xml:space="preserve" text-anchor="start" x="138.95" y="-18.7" font-family="Inter,Arial" font-weight="bold" font-size="10.00" fill="#614000">rand_core</text>
<text xml:space="preserve" text-anchor="start" x="151.33" y="-8.7" font-family="Inter,Arial" font-size="10.00" fill="#614000">0.6.4</text>
</g>
<!-- n0&#45;&gt;out0 -->
<g id="edge1" class="edge">
<title>n0&#45;&gt;out0</title>
<path fill="none" stroke="#d19922" stroke-width="7.2" stroke-dasharray="5,2" d="M61.76,-22.2C70.01,-22.2 79.32,-22.2 88.86,-22.2"/>
<polygon fill="#d19922" stroke="#d19922" stroke-width="7.2" points="88.74,-25.67 94.24,-22.2 88.74,-18.74 88.74,-25.67"/>
</g>
</g>
</svg>
