<?xml version="1.0" encoding="UTF-8" standalone="no"?>
<!DOCTYPE svg PUBLIC "-//W3C//DTD SVG 1.1//EN"
 "http://www.w3.org/Graphics/SVG/1.1/DTD/svg11.dtd">
<!-- Generated by graphviz version 14.1.2 (0)
 -->
<!-- Title: regex&#45;automata&#45;v0.4.14 Pages: 1 -->
<svg width="105pt" height="59pt"
 viewBox="0.00 0.00 105.00 59.00" xmlns="http://www.w3.org/2000/svg" xmlns:xlink="http://www.w3.org/1999/xlink">
<g id="graph0" class="graph" transform="scale(1 1) rotate(0) translate(4 54.95)">
<title>regex&#45;automata&#45;v0.4.14</title>
<polygon fill="white" stroke="none" points="-4,4 -4,-54.95 101.27,-54.95 101.27,4 -4,4"/>
<!-- n0 -->
<g id="node1" class="node">
<title>n0</title>
<path fill="#dff3ff" stroke="#1b78a6" d="M85.27,-50.95C85.27,-50.95 12,-50.95 12,-50.95 6,-50.95 0,-44.95 0,-38.95 0,-38.95 0,-12 0,-12 0,-6 6,0 12,0 12,0 85.27,0 85.27,0 91.27,0 97.27,-6 97.27,-12 97.27,-12 97.27,-38.95 97.27,-38.95 97.27,-44.95 91.27,-50.95 85.27,-50.95"/>
<text xml:space="preserve" text-anchor="start" x="13.01" y="-38.85" font-family="Inter,Arial" font-weight="bold" font-size="10.00" fill="#172033">regex&#45;automata</text>
<text xml:space="preserve" text-anchor="start" x="35.13" y="-25.85" font-family="Inter,Arial" font-size="10.00" fill="#172033">0.4.14</text>
<text xml:space="preserve" text-anchor="start" x="10.76" y="-11.75" font-family="Inter,Arial" font-weight="bold" font-size="8.00" fill="#172033">regex&#45;syntax</text>
<text xml:space="preserve" text-anchor="start" x="61.76" y="-11.75" font-family="Inter,Arial" font-size="8.00" fill="#172033"> 0.8.10</text>
<path fill="none" stroke="#9aa8b8" d="M12.34,-3.6C12.34,-3.6 84.93,-3.6 84.93,-3.6 88.22,-3.6 91.51,-6.89 91.51,-10.18 91.51,-10.18 91.51,-16.77 91.51,-16.77 91.51,-20.06 88.22,-23.35 84.93,-23.35 84.93,-23.35 12.34,-23.35 12.34,-23.35 9.05,-23.35 5.76,-20.06 5.76,-16.77 5.76,-16.77 5.76,-10.18 5.76,-10.18 5.76,-6.89 9.05,-3.6 12.34,-3.6"/>
</g>
</g>
</svg>
