<?xml version="1.0" encoding="UTF-8" standalone="no"?>
<!DOCTYPE svg PUBLIC "-//W3C//DTD SVG 1.1//EN"
 "http://www.w3.org/Graphics/SVG/1.1/DTD/svg11.dtd">
<!-- Generated by graphviz version 14.1.2 (0)
 -->
<!-- Title: regex&#45;automata&#45;v0.4.14 Pages: 1 -->
<svg width="154pt" height="95pt"
 viewBox="0.00 0.00 154.00 95.00" xmlns="http://www.w3.org/2000/svg" xmlns:xlink="http://www.w3.org/1999/xlink">
<g id="graph0" class="graph" transform="scale(1 1) rotate(0) translate(4 91.15)">
<title>regex&#45;automata&#45;v0.4.14</title>
<polygon fill="white" stroke="none" points="-4,4 -4,-91.15 150.22,-91.15 150.22,4 -4,4"/>
<!-- n0 -->
<g id="node1" class="node">
<title>n0</title>
<path fill="#dff3ff" stroke="#1b78a6" d="M134.22,-87.15C134.22,-87.15 12,-87.15 12,-87.15 6,-87.15 0,-81.15 0,-75.15 0,-75.15 0,-12 0,-12 0,-6 6,0 12,0 12,0 134.22,0 134.22,0 140.22,0 146.22,-6 146.22,-12 146.22,-12 146.22,-75.15 146.22,-75.15 146.22,-81.15 140.22,-87.15 134.22,-87.15"/>
<text xml:space="preserve" text-anchor="start" x="23.23" y="-68.6" font-family="Inter,Arial" font-weight="bold" font-size="13.00" fill="#172033">regex&#45;automata</text>
<text xml:space="preserve" text-anchor="start" x="56.61" y="-53.55" font-family="Inter,Arial" font-size="12.00" fill="#172033">0.4.14</text>
<text xml:space="preserve" text-anchor="start" x="24.36" y="-26.25" font-family="Inter,Arial" font-weight="bold" font-size="11.00" fill="#172033">regex&#45;syntax</text>
<text xml:space="preserve" text-anchor="start" x="91.86" y="-26.25" font-family="Inter,Arial" font-size="10.00" fill="#172033"> </text>
<text xml:space="preserve" text-anchor="start" x="94.86" y="-26.25" font-family="Inter,Arial" font-size="10.00" fill="#172033">0.8.11</text>
<path fill="none" stroke="#9aa8b8" d="M25.86,-13.2C25.86,-13.2 120.36,-13.2 120.36,-13.2 125.61,-13.2 130.86,-18.45 130.86,-23.7 130.86,-23.7 130.86,-34.2 130.86,-34.2 130.86,-39.45 125.61,-44.7 120.36,-44.7 120.36,-44.7 25.86,-44.7 25.86,-44.7 20.61,-44.7 15.36,-39.45 15.36,-34.2 15.36,-34.2 15.36,-23.7 15.36,-23.7 15.36,-18.45 20.61,-13.2 25.86,-13.2"/>
</g>
</g>
</svg>
