<?xml version="1.0" encoding="UTF-8" standalone="no"?>
<!DOCTYPE svg PUBLIC "-//W3C//DTD SVG 1.1//EN"
 "http://www.w3.org/Graphics/SVG/1.1/DTD/svg11.dtd">
<!-- Generated by graphviz version 14.1.2 (0)
 -->
<!-- Title: rsa&#45;v0.9.10 Pages: 1 -->
<svg width="1339pt" height="1389pt"
 viewBox="0.00 0.00 1339.00 1389.00" xmlns="http://www.w3.org/2000/svg" xmlns:xlink="http://www.w3.org/1999/xlink">
<g id="graph0" class="graph" transform="scale(1 1) rotate(0) translate(4 1385.2)">
<title>rsa&#45;v0.9.10</title>
<polygon fill="white" stroke="none" points="-4,4 -4,-1385.2 1334.57,-1385.2 1334.57,4 -4,4"/>
<!-- n0 -->
<g id="node1" class="node">
<title>n0</title>
<path fill="#dff3ff" stroke="#1b78a6" d="M268.72,-734.7C268.72,-734.7 238.72,-734.7 238.72,-734.7 232.72,-734.7 226.72,-728.7 226.72,-722.7 226.72,-722.7 226.72,-707.3 226.72,-707.3 226.72,-701.3 232.72,-695.3 238.72,-695.3 238.72,-695.3 268.72,-695.3 268.72,-695.3 274.72,-695.3 280.72,-701.3 280.72,-707.3 280.72,-707.3 280.72,-722.7 280.72,-722.7 280.72,-728.7 274.72,-734.7 268.72,-734.7"/>
<text xml:space="preserve" text-anchor="start" x="243.6" y="-716.15" font-family="Inter,Arial" font-weight="bold" font-size="13.00" fill="#172033">rsa</text>
<text xml:space="preserve" text-anchor="start" x="237.22" y="-704.1" font-family="Inter,Arial" font-size="12.00" fill="#172033">0.9.10</text>
</g>
<!-- n3 -->
<g id="node4" class="node">
<title>n3</title>
<path fill="#f7f9fb" stroke="#8b9bb0" d="M457.56,-701.7C457.56,-701.7 369.09,-701.7 369.09,-701.7 363.09,-701.7 357.09,-695.7 357.09,-689.7 357.09,-689.7 357.09,-674.3 357.09,-674.3 357.09,-668.3 363.09,-662.3 369.09,-662.3 369.09,-662.3 457.56,-662.3 457.56,-662.3 463.56,-662.3 469.56,-668.3 469.56,-674.3 469.56,-674.3 469.56,-689.7 469.56,-689.7 469.56,-695.7 463.56,-701.7 457.56,-701.7"/>
<text xml:space="preserve" text-anchor="start" x="366.45" y="-683.15" font-family="Inter,Arial" font-weight="bold" font-size="13.00" fill="#172033">num&#45;bigint&#45;dig</text>
<text xml:space="preserve" text-anchor="start" x="400.2" y="-671.1" font-family="Inter,Arial" font-size="12.00" fill="#172033">0.8.6</text>
</g>
<!-- n0&#45;&gt;n3 -->
<g id="edge15" class="edge">
<title>n0&#45;&gt;n3</title>
<path fill="none" stroke="#9aa8b8" stroke-width="0.9" d="M281.1,-709.48C299.92,-705.54 326.05,-700.06 350.04,-695.04"/>
<polygon fill="#9aa8b8" stroke="#9aa8b8" stroke-width="0.9" points="350.42,-696.93 355.41,-693.92 349.63,-693.16 350.42,-696.93"/>
</g>
<!-- n4 -->
<g id="node5" class="node">
<title>n4</title>
<path fill="#f7f9fb" stroke="#8b9bb0" d="M824,-797.7C824,-797.7 752.03,-797.7 752.03,-797.7 746.03,-797.7 740.03,-791.7 740.03,-785.7 740.03,-785.7 740.03,-770.3 740.03,-770.3 740.03,-764.3 746.03,-758.3 752.03,-758.3 752.03,-758.3 824,-758.3 824,-758.3 830,-758.3 836,-764.3 836,-770.3 836,-770.3 836,-785.7 836,-785.7 836,-791.7 830,-797.7 824,-797.7"/>
<text xml:space="preserve" text-anchor="start" x="749.39" y="-779.15" font-family="Inter,Arial" font-weight="bold" font-size="13.00" fill="#172033">num&#45;integer</text>
<text xml:space="preserve" text-anchor="start" x="771.52" y="-767.1" font-family="Inter,Arial" font-size="12.00" fill="#172033">0.1.46</text>
</g>
<!-- n0&#45;&gt;n4 -->
<g id="edge16" class="edge">
<title>n0&#45;&gt;n4</title>
<path fill="none" stroke="#9aa8b8" stroke-width="0.9" d="M267.1,-734.96C278.66,-751.55 297.59,-774 320.72,-784 459.18,-843.89 643.13,-813.42 732.98,-792.4"/>
<polygon fill="#9aa8b8" stroke="#9aa8b8" stroke-width="0.9" points="733.32,-794.3 738.23,-791.15 732.43,-790.55 733.32,-794.3"/>
</g>
<!-- n7 -->
<g id="node8" class="node">
<title>n7</title>
<path fill="#f7f9fb" stroke="#8b9bb0" d="M429.81,-441.7C429.81,-441.7 396.84,-441.7 396.84,-441.7 390.84,-441.7 384.84,-435.7 384.84,-429.7 384.84,-429.7 384.84,-414.3 384.84,-414.3 384.84,-408.3 390.84,-402.3 396.84,-402.3 396.84,-402.3 429.81,-402.3 429.81,-402.3 435.81,-402.3 441.81,-408.3 441.81,-414.3 441.81,-414.3 441.81,-429.7 441.81,-429.7 441.81,-435.7 435.81,-441.7 429.81,-441.7"/>
<text xml:space="preserve" text-anchor="start" x="394.2" y="-423.15" font-family="Inter,Arial" font-weight="bold" font-size="13.00" fill="#172033">pkcs1</text>
<text xml:space="preserve" text-anchor="start" x="400.2" y="-411.1" font-family="Inter,Arial" font-size="12.00" fill="#172033">0.7.5</text>
</g>
<!-- n0&#45;&gt;n7 -->
<g id="edge17" class="edge">
<title>n0&#45;&gt;n7</title>
<path fill="none" stroke="#9aa8b8" stroke-width="0.9" d="M265.55,-694.86C293.4,-643.09 367.46,-505.41 398.42,-447.86"/>
<polygon fill="#9aa8b8" stroke="#9aa8b8" stroke-width="0.9" points="400.07,-448.85 400.98,-443.09 396.68,-447.02 400.07,-448.85"/>
</g>
<!-- n9 -->
<g id="node10" class="node">
<title>n9</title>
<path fill="#f7f9fb" stroke="#8b9bb0" d="M629.91,-270.7C629.91,-270.7 596.94,-270.7 596.94,-270.7 590.94,-270.7 584.94,-264.7 584.94,-258.7 584.94,-258.7 584.94,-243.3 584.94,-243.3 584.94,-237.3 590.94,-231.3 596.94,-231.3 596.94,-231.3 629.91,-231.3 629.91,-231.3 635.91,-231.3 641.91,-237.3 641.91,-243.3 641.91,-243.3 641.91,-258.7 641.91,-258.7 641.91,-264.7 635.91,-270.7 629.91,-270.7"/>
<text xml:space="preserve" text-anchor="start" x="594.3" y="-252.15" font-family="Inter,Arial" font-weight="bold" font-size="13.00" fill="#172033">pkcs8</text>
<text xml:space="preserve" text-anchor="start" x="596.92" y="-240.1" font-family="Inter,Arial" font-size="12.00" fill="#172033">0.10.2</text>
</g>
<!-- n0&#45;&gt;n9 -->
<g id="edge18" class="edge">
<title>n0&#45;&gt;n9</title>
<path fill="none" stroke="#9aa8b8" stroke-width="0.9" d="M255.63,-695.09C259.18,-626.05 274.26,-398.21 320.72,-345 329.48,-334.97 502.95,-283.14 578.15,-261.02"/>
<polygon fill="#9aa8b8" stroke="#9aa8b8" stroke-width="0.9" points="578.64,-262.88 583.37,-259.48 577.55,-259.19 578.64,-262.88"/>
</g>
<!-- n11 -->
<g id="node12" class="node">
<title>n11</title>
<path fill="#f7f9fb" stroke="#8b9bb0" d="M441.06,-1134.7C441.06,-1134.7 385.59,-1134.7 385.59,-1134.7 379.59,-1134.7 373.59,-1128.7 373.59,-1122.7 373.59,-1122.7 373.59,-1107.3 373.59,-1107.3 373.59,-1101.3 379.59,-1095.3 385.59,-1095.3 385.59,-1095.3 441.06,-1095.3 441.06,-1095.3 447.06,-1095.3 453.06,-1101.3 453.06,-1107.3 453.06,-1107.3 453.06,-1122.7 453.06,-1122.7 453.06,-1128.7 447.06,-1134.7 441.06,-1134.7"/>
<text xml:space="preserve" text-anchor="start" x="382.95" y="-1116.15" font-family="Inter,Arial" font-weight="bold" font-size="13.00" fill="#172033">signature</text>
<text xml:space="preserve" text-anchor="start" x="400.2" y="-1104.1" font-family="Inter,Arial" font-size="12.00" fill="#172033">2.2.0</text>
</g>
<!-- n0&#45;&gt;n11 -->
<g id="edge19" class="edge">
<title>n0&#45;&gt;n11</title>
<path fill="none" stroke="#9aa8b8" stroke-width="0.9" d="M257.22,-734.71C266.42,-806.17 299.03,-1048.88 320.72,-1076 332.26,-1090.43 350.13,-1099.61 367.03,-1105.4"/>
<polygon fill="#9aa8b8" stroke="#9aa8b8" stroke-width="0.9" points="366.08,-1107.12 371.91,-1106.97 367.26,-1103.46 366.08,-1107.12"/>
</g>
<!-- n12 -->
<g id="node13" class="node">
<title>n12</title>
<path fill="#f7f9fb" stroke="#8b9bb0" d="M973.87,-288.7C973.87,-288.7 943.87,-288.7 943.87,-288.7 937.87,-288.7 931.87,-282.7 931.87,-276.7 931.87,-276.7 931.87,-261.3 931.87,-261.3 931.87,-255.3 937.87,-249.3 943.87,-249.3 943.87,-249.3 973.87,-249.3 973.87,-249.3 979.87,-249.3 985.87,-255.3 985.87,-261.3 985.87,-261.3 985.87,-276.7 985.87,-276.7 985.87,-282.7 979.87,-288.7 973.87,-288.7"/>
<text xml:space="preserve" text-anchor="start" x="945.37" y="-270.15" font-family="Inter,Arial" font-weight="bold" font-size="13.00" fill="#172033">spki</text>
<text xml:space="preserve" text-anchor="start" x="945.74" y="-258.1" font-family="Inter,Arial" font-size="12.00" fill="#172033">0.7.3</text>
</g>
<!-- n0&#45;&gt;n12 -->
<g id="edge20" class="edge">
<title>n0&#45;&gt;n12</title>
<path fill="none" stroke="#9aa8b8" stroke-width="0.9" d="M255.93,-695.12C260.22,-631.31 276.88,-433.28 320.72,-390 364.61,-346.67 800.11,-288.87 924.72,-273.11"/>
<polygon fill="#9aa8b8" stroke="#9aa8b8" stroke-width="0.9" points="924.88,-275.03 930.09,-272.44 924.4,-271.21 924.88,-275.03"/>
</g>
<!-- out0 -->
<g id="node14" class="node">
<title>out0</title>
<polygon fill="#fff8e8" stroke="#d19922" points="1016.6,-786.2 895.13,-786.2 895.13,-711.8 1022.6,-711.8 1022.6,-780.2 1016.6,-786.2"/>
<polyline fill="none" stroke="#d19922" points="1016.6,-786.2 1016.6,-780.2"/>
<polyline fill="none" stroke="#d19922" points="1022.6,-780.2 1016.6,-780.2"/>
<text xml:space="preserve" text-anchor="start" x="910.12" y="-770.5" font-family="Inter,Arial" font-size="10.00" fill="#614000">to crab&#45;usb&#45;v0.9.1.svg</text>
<text xml:space="preserve" text-anchor="start" x="935.24" y="-760.5" font-family="Inter,Arial" font-weight="bold" font-size="10.00" fill="#614000">num&#45;traits</text>
<text xml:space="preserve" text-anchor="start" x="945.37" y="-750.5" font-family="Inter,Arial" font-size="10.00" fill="#614000">0.2.19</text>
<text xml:space="preserve" text-anchor="start" x="904.49" y="-740.5" font-family="Inter,Arial" font-size="10.00" fill="#614000">/vendor/num&#45;traits&#45;0.2.19</text>
<text xml:space="preserve" text-anchor="start" x="941.62" y="-730.5" font-family="Inter,Arial" font-weight="bold" font-size="10.00" fill="#614000">autocfg</text>
<text xml:space="preserve" text-anchor="start" x="947.99" y="-720.5" font-family="Inter,Arial" font-size="10.00" fill="#614000">1.5.1</text>
</g>
<!-- n0&#45;&gt;out0 -->
<g id="edge25" class="edge">
<title>n0&#45;&gt;out0</title>
<path fill="none" stroke="#d19922" stroke-width="0.9" stroke-dasharray="5,2" d="M263.22,-735.12C273.8,-758.16 293.81,-795.82 320.72,-820 403.58,-894.45 437.4,-904.91 545.94,-930 679.88,-960.96 737.36,-991.92 855.13,-921 902.22,-892.64 930.33,-833.74 944.94,-792.82"/>
<polygon fill="#d19922" stroke="#d19922" stroke-width="0.9" points="946.73,-793.53 946.72,-787.7 943.09,-792.26 946.73,-793.53"/>
</g>
<!-- out1 -->
<g id="node15" class="node">
<title>out1</title>
<polygon fill="#fff8e8" stroke="#d19922" points="1324.57,-1108.2 1156.6,-1108.2 1156.6,-1023.8 1330.57,-1023.8 1330.57,-1102.2 1324.57,-1108.2"/>
<polyline fill="none" stroke="#d19922" points="1324.57,-1108.2 1324.57,-1102.2"/>
<polyline fill="none" stroke="#d19922" points="1330.57,-1102.2 1324.57,-1102.2"/>
<text xml:space="preserve" text-anchor="start" x="1165.96" y="-1092.5" font-family="Inter,Arial" font-size="10.00" fill="#614000">to embedded&#45;websocket&#45;v0.9.4.svg</text>
<text xml:space="preserve" text-anchor="start" x="1221.84" y="-1082.5" font-family="Inter,Arial" font-weight="bold" font-size="10.00" fill="#614000">const&#45;oid</text>
<text xml:space="preserve" text-anchor="start" x="1232.71" y="-1072.5" font-family="Inter,Arial" font-size="10.00" fill="#614000">0.9.6</text>
<text xml:space="preserve" text-anchor="start" x="1229.34" y="-1062.5" font-family="Inter,Arial" font-weight="bold" font-size="10.00" fill="#614000">digest</text>
<text xml:space="preserve" text-anchor="start" x="1230.09" y="-1052.5" font-family="Inter,Arial" font-size="10.00" fill="#614000">0.10.7</text>
<text xml:space="preserve" text-anchor="start" x="1229.34" y="-1042.5" font-family="Inter,Arial" font-weight="bold" font-size="10.00" fill="#614000">subtle</text>
<text xml:space="preserve" text-anchor="start" x="1232.71" y="-1032.5" font-family="Inter,Arial" font-size="10.00" fill="#614000">2.6.1</text>
</g>
<!-- n0&#45;&gt;out1 -->
<g id="edge27" class="edge">
<title>n0&#45;&gt;out1</title>
<path fill="none" stroke="#d19922" stroke-width="0.9" stroke-dasharray="5,2" d="M256.16,-735.1C260.95,-795.89 278.52,-975.93 320.72,-1013 441.66,-1119.22 940.14,-1091.41 1149.41,-1074.48"/>
<polygon fill="#d19922" stroke="#d19922" stroke-width="0.9" points="1149.44,-1076.41 1154.77,-1074.04 1149.13,-1072.57 1149.44,-1076.41"/>
</g>
<!-- out5 -->
<g id="node19" class="node">
<title>out5</title>
<polygon fill="#fff8e8" stroke="#d19922" points="842.75,-1028.2 727.28,-1028.2 727.28,-983.8 848.75,-983.8 848.75,-1022.2 842.75,-1028.2"/>
<polyline fill="none" stroke="#d19922" points="842.75,-1028.2 842.75,-1022.2"/>
<polyline fill="none" stroke="#d19922" points="848.75,-1022.2 842.75,-1022.2"/>
<text xml:space="preserve" text-anchor="start" x="736.64" y="-1012.5" font-family="Inter,Arial" font-size="10.00" fill="#614000">to rand_core&#45;v0.6.4.svg</text>
<text xml:space="preserve" text-anchor="start" x="764.77" y="-1002.5" font-family="Inter,Arial" font-weight="bold" font-size="10.00" fill="#614000">rand_core</text>
<text xml:space="preserve" text-anchor="start" x="777.14" y="-992.5" font-family="Inter,Arial" font-size="10.00" fill="#614000">0.6.4</text>
</g>
<!-- n0&#45;&gt;out5 -->
<g id="edge33" class="edge">
<title>n0&#45;&gt;out5</title>
<path fill="none" stroke="#d19922" stroke-width="0.9" stroke-dasharray="5,2" d="M256.81,-734.84C263.05,-789.97 283.47,-942.95 320.72,-974 379.69,-1023.16 606.26,-1017.13 720.44,-1010.64"/>
<polygon fill="#d19922" stroke="#d19922" stroke-width="0.9" points="720.39,-1012.57 725.77,-1010.33 720.16,-1008.73 720.39,-1012.57"/>
</g>
<!-- out6 -->
<g id="node20" class="node">
<title>out6</title>
<polygon fill="#fff8e8" stroke="#d19922" points="459.81,-771.2 360.84,-771.2 360.84,-726.8 465.81,-726.8 465.81,-765.2 459.81,-771.2"/>
<polyline fill="none" stroke="#d19922" points="459.81,-771.2 459.81,-765.2"/>
<polyline fill="none" stroke="#d19922" points="465.81,-765.2 459.81,-765.2"/>
<text xml:space="preserve" text-anchor="start" x="370.2" y="-755.5" font-family="Inter,Arial" font-size="10.00" fill="#614000">to sha2&#45;v0.10.9.svg</text>
<text xml:space="preserve" text-anchor="start" x="402.45" y="-745.5" font-family="Inter,Arial" font-weight="bold" font-size="10.00" fill="#614000">sha2</text>
<text xml:space="preserve" text-anchor="start" x="399.83" y="-735.5" font-family="Inter,Arial" font-size="10.00" fill="#614000">0.10.9</text>
</g>
<!-- n0&#45;&gt;out6 -->
<g id="edge35" class="edge">
<title>n0&#45;&gt;out6</title>
<path fill="none" stroke="#d19922" stroke-width="0.9" stroke-dasharray="5,2" d="M281.1,-720.69C300.97,-724.98 328.98,-731.02 354.02,-736.42"/>
<polygon fill="#d19922" stroke="#d19922" stroke-width="0.9" points="353.54,-738.29 359.32,-737.56 354.35,-734.52 353.54,-738.29"/>
</g>
<!-- out8 -->
<g id="node22" class="node">
<title>out8</title>
<polygon fill="#fff8e8" stroke="#d19922" points="1292.69,-291.2 1188.48,-291.2 1188.48,-246.8 1298.69,-246.8 1298.69,-285.2 1292.69,-291.2"/>
<polyline fill="none" stroke="#d19922" points="1292.69,-291.2 1292.69,-285.2"/>
<polyline fill="none" stroke="#d19922" points="1298.69,-285.2 1292.69,-285.2"/>
<text xml:space="preserve" text-anchor="start" x="1197.84" y="-275.5" font-family="Inter,Arial" font-size="10.00" fill="#614000">to zeroize&#45;v1.9.0.svg</text>
<text xml:space="preserve" text-anchor="start" x="1226.71" y="-265.5" font-family="Inter,Arial" font-weight="bold" font-size="10.00" fill="#614000">zeroize</text>
<text xml:space="preserve" text-anchor="start" x="1232.71" y="-255.5" font-family="Inter,Arial" font-size="10.00" fill="#614000">1.9.0</text>
</g>
<!-- n0&#45;&gt;out8 -->
<g id="edge39" class="edge">
<title>n0&#45;&gt;out8</title>
<path fill="none" stroke="#d19922" stroke-width="0.9" stroke-dasharray="5,2" d="M255.23,-694.99C257.54,-618.48 269.3,-345.45 320.72,-279 515.95,-26.73 722.49,-20.89 1022.6,-129 1095.77,-155.36 1169.8,-209.38 1210.58,-242.07"/>
<polygon fill="#d19922" stroke="#d19922" stroke-width="0.9" points="1209.32,-243.53 1214.81,-245.49 1211.74,-240.54 1209.32,-243.53"/>
</g>
<!-- n1 -->
<g id="node2" class="node">
<title>n1</title>
<path fill="#f7f9fb" stroke="#8b9bb0" d="M1104.6,-288.7C1104.6,-288.7 1074.6,-288.7 1074.6,-288.7 1068.6,-288.7 1062.6,-282.7 1062.6,-276.7 1062.6,-276.7 1062.6,-261.3 1062.6,-261.3 1062.6,-255.3 1068.6,-249.3 1074.6,-249.3 1074.6,-249.3 1104.6,-249.3 1104.6,-249.3 1110.6,-249.3 1116.6,-255.3 1116.6,-261.3 1116.6,-261.3 1116.6,-276.7 1116.6,-276.7 1116.6,-282.7 1110.6,-288.7 1104.6,-288.7"/>
<text xml:space="preserve" text-anchor="start" x="1079.1" y="-270.15" font-family="Inter,Arial" font-weight="bold" font-size="13.00" fill="#172033">der</text>
<text xml:space="preserve" text-anchor="start" x="1073.1" y="-258.1" font-family="Inter,Arial" font-size="12.00" fill="#172033">0.7.10</text>
</g>
<!-- n6 -->
<g id="node7" class="node">
<title>n6</title>
<path fill="#f7f9fb" stroke="#8b9bb0" d="M1291.57,-132.57C1291.57,-132.57 1195.6,-132.57 1195.6,-132.57 1189.6,-132.57 1183.6,-126.57 1183.6,-120.57 1183.6,-120.57 1183.6,-57.42 1183.6,-57.42 1183.6,-51.42 1189.6,-45.42 1195.6,-45.42 1195.6,-45.42 1291.57,-45.42 1291.57,-45.42 1297.57,-45.42 1303.57,-51.42 1303.57,-57.42 1303.57,-57.42 1303.57,-120.57 1303.57,-120.57 1303.57,-126.57 1297.57,-132.57 1291.57,-132.57"/>
<text xml:space="preserve" text-anchor="start" x="1204.21" y="-114.03" font-family="Inter,Arial" font-weight="bold" font-size="13.00" fill="#172033">pem&#45;rfc7468</text>
<text xml:space="preserve" text-anchor="start" x="1230.46" y="-98.97" font-family="Inter,Arial" font-size="12.00" fill="#172033">0.7.0</text>
<text xml:space="preserve" text-anchor="start" x="1207.96" y="-71.67" font-family="Inter,Arial" font-weight="bold" font-size="11.00" fill="#172033">base64ct</text>
<text xml:space="preserve" text-anchor="start" x="1254.46" y="-71.67" font-family="Inter,Arial" font-size="10.00" fill="#172033"> </text>
<text xml:space="preserve" text-anchor="start" x="1257.46" y="-71.67" font-family="Inter,Arial" font-size="10.00" fill="#172033">1.8.3</text>
<path fill="none" stroke="#9aa8b8" d="M1209.46,-58.62C1209.46,-58.62 1277.71,-58.62 1277.71,-58.62 1282.96,-58.62 1288.21,-63.88 1288.21,-69.12 1288.21,-69.12 1288.21,-79.62 1288.21,-79.62 1288.21,-84.88 1282.96,-90.12 1277.71,-90.12 1277.71,-90.12 1209.46,-90.12 1209.46,-90.12 1204.21,-90.12 1198.96,-84.88 1198.96,-79.62 1198.96,-79.62 1198.96,-69.12 1198.96,-69.12 1198.96,-63.88 1204.21,-58.62 1209.46,-58.62"/>
</g>
<!-- n1&#45;&gt;n6 -->
<g id="edge1" class="edge">
<title>n1&#45;&gt;n6</title>
<path fill="none" stroke="#9aa8b8" stroke-width="0.9" d="M1107.45,-249.05C1129.93,-222.42 1170.5,-174.37 1201.34,-137.85"/>
<polygon fill="#9aa8b8" stroke="#9aa8b8" stroke-width="0.9" points="1202.47,-139.49 1204.55,-134.04 1199.53,-137.01 1202.47,-139.49"/>
</g>
<!-- n1&#45;&gt;out1 -->
<g id="edge26" class="edge">
<title>n1&#45;&gt;out1</title>
<path fill="none" stroke="#d19922" stroke-width="0.9" stroke-dasharray="5,2" d="M1094.43,-289.1C1114.09,-392.16 1203.76,-862.42 1233.2,-1016.77"/>
<polygon fill="#d19922" stroke="#d19922" stroke-width="0.9" points="1231.29,-1017.06 1234.21,-1022.1 1235.07,-1016.34 1231.29,-1017.06"/>
</g>
<!-- n1&#45;&gt;out8 -->
<g id="edge37" class="edge">
<title>n1&#45;&gt;out8</title>
<path fill="none" stroke="#d19922" stroke-width="0.9" stroke-dasharray="5,2" d="M1117.07,-269C1134.88,-269 1159.1,-269 1181.52,-269"/>
<polygon fill="#d19922" stroke="#d19922" stroke-width="0.9" points="1181.24,-270.93 1186.74,-269 1181.24,-267.08 1181.24,-270.93"/>
</g>
<!-- n2 -->
<g id="node3" class="node">
<title>n2</title>
<path fill="#fff0d5" stroke="#c47a1a" d="M668.91,-1300.2C668.91,-1300.2 557.94,-1300.2 557.94,-1300.2 551.94,-1300.2 545.94,-1294.2 545.94,-1288.2 545.94,-1288.2 545.94,-1261.8 545.94,-1261.8 545.94,-1255.8 551.94,-1249.8 557.94,-1249.8 557.94,-1249.8 668.91,-1249.8 668.91,-1249.8 674.91,-1249.8 680.91,-1255.8 680.91,-1261.8 680.91,-1261.8 680.91,-1288.2 680.91,-1288.2 680.91,-1294.2 674.91,-1300.2 668.91,-1300.2"/>
<text xml:space="preserve" text-anchor="start" x="579.3" y="-1281.65" font-family="Inter,Arial" font-weight="bold" font-size="13.00" fill="#172033">lazy_static</text>
<text xml:space="preserve" text-anchor="start" x="600.3" y="-1269.6" font-family="Inter,Arial" font-size="12.00" fill="#172033">1.5.0</text>
<text xml:space="preserve" text-anchor="start" x="555.3" y="-1258.55" font-family="Inter,Arial" font-size="11.00" fill="#172033">/vendor/lazy_static&#45;1.5.0</text>
</g>
<!-- out7 -->
<g id="node21" class="node">
<title>out7</title>
<polygon fill="#fff8e8" stroke="#d19922" points="833,-1297.2 737.03,-1297.2 737.03,-1252.8 839,-1252.8 839,-1291.2 833,-1297.2"/>
<polyline fill="none" stroke="#d19922" points="833,-1297.2 833,-1291.2"/>
<polyline fill="none" stroke="#d19922" points="839,-1291.2 833,-1291.2"/>
<text xml:space="preserve" text-anchor="start" x="746.39" y="-1281.5" font-family="Inter,Arial" font-size="10.00" fill="#614000">to spin&#45;v0.10.0.svg</text>
<text xml:space="preserve" text-anchor="start" x="777.89" y="-1271.5" font-family="Inter,Arial" font-weight="bold" font-size="10.00" fill="#614000">spin</text>
<text xml:space="preserve" text-anchor="start" x="774.52" y="-1261.5" font-family="Inter,Arial" font-size="10.00" fill="#614000">0.10.0</text>
</g>
<!-- n2&#45;&gt;out7 -->
<g id="edge36" class="edge">
<title>n2&#45;&gt;out7</title>
<path fill="none" stroke="#d19922" stroke-width="0.9" stroke-dasharray="5,2" d="M681.15,-1275C697.34,-1275 714.5,-1275 730.18,-1275"/>
<polygon fill="#d19922" stroke="#d19922" stroke-width="0.9" points="729.94,-1276.93 735.44,-1275 729.94,-1273.08 729.94,-1276.93"/>
</g>
<!-- n3&#45;&gt;n2 -->
<g id="edge2" class="edge">
<title>n3&#45;&gt;n2</title>
<path fill="none" stroke="#9aa8b8" stroke-width="0.9" d="M469.87,-691.21C483.39,-695.95 496.62,-703.13 505.94,-714 569.5,-788.11 527.81,-834.07 545.94,-930 567.69,-1045.14 594.24,-1181.74 606.13,-1242.76"/>
<polygon fill="#9aa8b8" stroke="#9aa8b8" stroke-width="0.9" points="604.24,-1243.11 607.18,-1248.14 608.02,-1242.37 604.24,-1243.11"/>
</g>
<!-- n3&#45;&gt;n4 -->
<g id="edge3" class="edge">
<title>n3&#45;&gt;n4</title>
<path fill="none" stroke="#9aa8b8" stroke-width="0.9" d="M469.82,-697.15C482.17,-701.66 494.87,-707.24 505.94,-714 526.87,-726.77 523.69,-741.7 545.94,-752 605.72,-779.67 682.49,-783.23 733.14,-781.81"/>
<polygon fill="#9aa8b8" stroke="#9aa8b8" stroke-width="0.9" points="733.01,-783.75 738.44,-781.64 732.88,-779.9 733.01,-783.75"/>
</g>
<!-- n5 -->
<g id="node6" class="node">
<title>n5</title>
<path fill="#f7f9fb" stroke="#8b9bb0" d="M637.41,-739.7C637.41,-739.7 589.44,-739.7 589.44,-739.7 583.44,-739.7 577.44,-733.7 577.44,-727.7 577.44,-727.7 577.44,-712.3 577.44,-712.3 577.44,-706.3 583.44,-700.3 589.44,-700.3 589.44,-700.3 637.41,-700.3 637.41,-700.3 643.41,-700.3 649.41,-706.3 649.41,-712.3 649.41,-712.3 649.41,-727.7 649.41,-727.7 649.41,-733.7 643.41,-739.7 637.41,-739.7"/>
<text xml:space="preserve" text-anchor="start" x="586.8" y="-721.15" font-family="Inter,Arial" font-weight="bold" font-size="13.00" fill="#172033">num&#45;iter</text>
<text xml:space="preserve" text-anchor="start" x="596.92" y="-709.1" font-family="Inter,Arial" font-size="12.00" fill="#172033">0.1.45</text>
</g>
<!-- n3&#45;&gt;n5 -->
<g id="edge4" class="edge">
<title>n3&#45;&gt;n5</title>
<path fill="none" stroke="#9aa8b8" stroke-width="0.9" d="M470.04,-692.69C501.95,-698.81 541.35,-706.37 570.61,-711.98"/>
<polygon fill="#9aa8b8" stroke="#9aa8b8" stroke-width="0.9" points="569.96,-713.81 575.73,-712.96 570.69,-710.03 569.96,-713.81"/>
</g>
<!-- n10 -->
<g id="node11" class="node">
<title>n10</title>
<path fill="#fff0d5" stroke="#c47a1a" d="M655.03,-917.2C655.03,-917.2 571.81,-917.2 571.81,-917.2 565.81,-917.2 559.81,-911.2 559.81,-905.2 559.81,-905.2 559.81,-878.8 559.81,-878.8 559.81,-872.8 565.81,-866.8 571.81,-866.8 571.81,-866.8 655.03,-866.8 655.03,-866.8 661.03,-866.8 667.03,-872.8 667.03,-878.8 667.03,-878.8 667.03,-905.2 667.03,-905.2 667.03,-911.2 661.03,-917.2 655.03,-917.2"/>
<text xml:space="preserve" text-anchor="start" x="598.8" y="-898.65" font-family="Inter,Arial" font-weight="bold" font-size="13.00" fill="#172033">rand</text>
<text xml:space="preserve" text-anchor="start" x="600.3" y="-886.6" font-family="Inter,Arial" font-size="12.00" fill="#172033">0.8.6</text>
<text xml:space="preserve" text-anchor="start" x="569.17" y="-875.55" font-family="Inter,Arial" font-size="11.00" fill="#172033">/vendor/rand&#45;0.8.6</text>
</g>
<!-- n3&#45;&gt;n10 -->
<g id="edge5" class="edge">
<title>n3&#45;&gt;n10</title>
<path fill="none" stroke="#9aa8b8" stroke-width="0.9" d="M469.96,-693.67C482.85,-698.37 495.76,-704.91 505.94,-714 536.48,-741.27 525.24,-761.67 545.94,-797 558.94,-819.2 575.53,-842.9 588.88,-861.08"/>
<polygon fill="#9aa8b8" stroke="#9aa8b8" stroke-width="0.9" points="587.29,-862.16 592.1,-865.44 590.38,-859.88 587.29,-862.16"/>
</g>
<!-- n3&#45;&gt;out0 -->
<g id="edge22" class="edge">
<title>n3&#45;&gt;out0</title>
<path fill="none" stroke="#d19922" stroke-width="0.9" stroke-dasharray="5,2" d="M469.91,-680.42C523.97,-679.55 608.33,-679.96 680.91,-688 759.41,-696.7 778.11,-705.53 855.13,-723 865.85,-725.43 877.17,-728.15 888.22,-730.88"/>
<polygon fill="#d19922" stroke="#d19922" stroke-width="0.9" points="887.56,-732.7 893.36,-732.16 888.49,-728.96 887.56,-732.7"/>
</g>
<!-- out2 -->
<g id="node16" class="node">
<title>out2</title>
<polygon fill="#fff8e8" stroke="#d19922" points="658.78,-624.2 562.06,-624.2 562.06,-579.8 664.78,-579.8 664.78,-618.2 658.78,-624.2"/>
<polyline fill="none" stroke="#d19922" points="658.78,-624.2 658.78,-618.2"/>
<polyline fill="none" stroke="#d19922" points="664.78,-618.2 658.78,-618.2"/>
<text xml:space="preserve" text-anchor="start" x="571.42" y="-608.5" font-family="Inter,Arial" font-size="10.00" fill="#614000">to hyper&#45;v1.9.0.svg</text>
<text xml:space="preserve" text-anchor="start" x="592.8" y="-598.5" font-family="Inter,Arial" font-weight="bold" font-size="10.00" fill="#614000">smallvec</text>
<text xml:space="preserve" text-anchor="start" x="599.92" y="-588.5" font-family="Inter,Arial" font-size="10.00" fill="#614000">1.15.2</text>
</g>
<!-- n3&#45;&gt;out2 -->
<g id="edge29" class="edge">
<title>n3&#45;&gt;out2</title>
<path fill="none" stroke="#d19922" stroke-width="0.9" stroke-dasharray="5,2" d="M464.32,-661.81C492.14,-650.58 526.87,-636.55 555.71,-624.91"/>
<polygon fill="#d19922" stroke="#d19922" stroke-width="0.9" points="556.12,-626.81 560.5,-622.97 554.68,-623.24 556.12,-626.81"/>
</g>
<!-- out3 -->
<g id="node17" class="node">
<title>out3</title>
<polygon fill="#fff8e8" stroke="#d19922" points="658.41,-555.2 562.44,-555.2 562.44,-510.8 664.41,-510.8 664.41,-549.2 658.41,-555.2"/>
<polyline fill="none" stroke="#d19922" points="658.41,-555.2 658.41,-549.2"/>
<polyline fill="none" stroke="#d19922" points="664.41,-549.2 658.41,-549.2"/>
<text xml:space="preserve" text-anchor="start" x="571.8" y="-539.5" font-family="Inter,Arial" font-size="10.00" fill="#614000">to libm&#45;v0.2.16.svg</text>
<text xml:space="preserve" text-anchor="start" x="602.92" y="-529.5" font-family="Inter,Arial" font-weight="bold" font-size="10.00" fill="#614000">libm</text>
<text xml:space="preserve" text-anchor="start" x="599.92" y="-519.5" font-family="Inter,Arial" font-size="10.00" fill="#614000">0.2.16</text>
</g>
<!-- n3&#45;&gt;out3 -->
<g id="edge30" class="edge">
<title>n3&#45;&gt;out3</title>
<path fill="none" stroke="#d19922" stroke-width="0.9" stroke-dasharray="5,2" d="M434.02,-662.01C458.69,-637.64 502.98,-596.1 545.94,-567 550.09,-564.19 554.5,-561.45 559.01,-558.83"/>
<polygon fill="#d19922" stroke="#d19922" stroke-width="0.9" points="559.73,-560.63 563.56,-556.24 557.83,-557.28 559.73,-560.63"/>
</g>
<!-- n3&#45;&gt;out8 -->
<g id="edge38" class="edge">
<title>n3&#45;&gt;out8</title>
<path fill="none" stroke="#d19922" stroke-width="0.9" stroke-dasharray="5,2" d="M422.03,-661.89C438.24,-622.66 479.9,-536.39 545.94,-498 639.07,-443.86 679.3,-473 787.02,-473 787.02,-473 787.02,-473 959.86,-473 1078.66,-473 1181.47,-353.1 1222.99,-297.14"/>
<polygon fill="#d19922" stroke="#d19922" stroke-width="0.9" points="1224.54,-298.28 1226.24,-292.71 1221.44,-296 1224.54,-298.28"/>
</g>
<!-- n4&#45;&gt;out0 -->
<g id="edge23" class="edge">
<title>n4&#45;&gt;out0</title>
<path fill="none" stroke="#d19922" stroke-width="0.9" stroke-dasharray="5,2" d="M836.5,-769.84C852.57,-767.08 870.87,-763.94 888.29,-760.95"/>
<polygon fill="#d19922" stroke="#d19922" stroke-width="0.9" points="888.23,-762.91 893.33,-760.09 887.58,-759.12 888.23,-762.91"/>
</g>
<!-- n5&#45;&gt;n4 -->
<g id="edge6" class="edge">
<title>n5&#45;&gt;n4</title>
<path fill="none" stroke="#9aa8b8" stroke-width="0.9" d="M649.77,-731.88C673.78,-739.95 705.99,-750.77 733.18,-759.91"/>
<polygon fill="#9aa8b8" stroke="#9aa8b8" stroke-width="0.9" points="732.49,-761.71 738.32,-761.63 733.72,-758.06 732.49,-761.71"/>
</g>
<!-- n5&#45;&gt;out0 -->
<g id="edge24" class="edge">
<title>n5&#45;&gt;out0</title>
<path fill="none" stroke="#d19922" stroke-width="0.9" stroke-dasharray="5,2" d="M649.89,-722.99C705.95,-727.73 816.1,-737.03 888.33,-743.13"/>
<polygon fill="#d19922" stroke="#d19922" stroke-width="0.9" points="887.76,-745.01 893.41,-743.56 888.09,-741.18 887.76,-745.01"/>
</g>
<!-- n7&#45;&gt;n1 -->
<g id="edge7" class="edge">
<title>n7&#45;&gt;n1</title>
<path fill="none" stroke="#9aa8b8" stroke-width="0.9" d="M442.11,-422.39C512.74,-422.63 704.23,-418.66 855.13,-373 929.77,-350.41 1011.95,-309.83 1056.15,-286.6"/>
<polygon fill="#9aa8b8" stroke="#9aa8b8" stroke-width="0.9" points="1056.96,-288.35 1060.92,-284.08 1055.16,-284.94 1056.96,-288.35"/>
</g>
<!-- n7&#45;&gt;n9 -->
<g id="edge8" class="edge">
<title>n7&#45;&gt;n9</title>
<path fill="none" stroke="#9aa8b8" stroke-width="0.9" d="M437.44,-402.05C473.87,-370.6 544.56,-309.58 584.03,-275.51"/>
<polygon fill="#9aa8b8" stroke="#9aa8b8" stroke-width="0.9" points="585.22,-277.03 588.12,-271.98 582.7,-274.11 585.22,-277.03"/>
</g>
<!-- n7&#45;&gt;n12 -->
<g id="edge9" class="edge">
<title>n7&#45;&gt;n12</title>
<path fill="none" stroke="#9aa8b8" stroke-width="0.9" d="M442.28,-417.42C533.15,-402.44 816.54,-354.96 855.13,-339 882.29,-327.77 909.63,-308.67 929.27,-293.26"/>
<polygon fill="#9aa8b8" stroke="#9aa8b8" stroke-width="0.9" points="930.43,-294.8 933.53,-289.87 928.03,-291.79 930.43,-294.8"/>
</g>
<!-- n8 -->
<g id="node9" class="node">
<title>n8</title>
<path fill="#f7f9fb" stroke="#8b9bb0" d="M804.5,-179.7C804.5,-179.7 771.53,-179.7 771.53,-179.7 765.53,-179.7 759.53,-173.7 759.53,-167.7 759.53,-167.7 759.53,-152.3 759.53,-152.3 759.53,-146.3 765.53,-140.3 771.53,-140.3 771.53,-140.3 804.5,-140.3 804.5,-140.3 810.5,-140.3 816.5,-146.3 816.5,-152.3 816.5,-152.3 816.5,-167.7 816.5,-167.7 816.5,-173.7 810.5,-179.7 804.5,-179.7"/>
<text xml:space="preserve" text-anchor="start" x="768.89" y="-161.15" font-family="Inter,Arial" font-weight="bold" font-size="13.00" fill="#172033">pkcs5</text>
<text xml:space="preserve" text-anchor="start" x="774.89" y="-149.1" font-family="Inter,Arial" font-size="12.00" fill="#172033">0.7.1</text>
</g>
<!-- n8&#45;&gt;n1 -->
<g id="edge10" class="edge">
<title>n8&#45;&gt;n1</title>
<path fill="none" stroke="#9aa8b8" stroke-width="0.9" d="M816.78,-167.85C860.97,-180.63 949.78,-207.5 1022.6,-237 1033.75,-241.52 1045.66,-247.06 1056.24,-252.25"/>
<polygon fill="#9aa8b8" stroke="#9aa8b8" stroke-width="0.9" points="1055.31,-253.93 1061.09,-254.65 1057.02,-250.49 1055.31,-253.93"/>
</g>
<!-- n8&#45;&gt;n12 -->
<g id="edge11" class="edge">
<title>n8&#45;&gt;n12</title>
<path fill="none" stroke="#9aa8b8" stroke-width="0.9" d="M816.93,-175.92C828.81,-182.84 842.75,-191.14 855.13,-199 879.28,-214.33 905.96,-232.55 926.08,-246.56"/>
<polygon fill="#9aa8b8" stroke="#9aa8b8" stroke-width="0.9" points="924.84,-248.04 930.46,-249.61 927.05,-244.88 924.84,-248.04"/>
</g>
<!-- n9&#45;&gt;n1 -->
<g id="edge12" class="edge">
<title>n9&#45;&gt;n1</title>
<path fill="none" stroke="#9aa8b8" stroke-width="0.9" d="M624.52,-230.99C640.43,-201.94 674.41,-149.25 720.91,-128 775.17,-103.21 796.3,-118.1 855.13,-128 932.81,-141.07 958.32,-140.48 1022.6,-186 1043.98,-201.14 1061.98,-225.09 1073.75,-243.38"/>
<polygon fill="#9aa8b8" stroke="#9aa8b8" stroke-width="0.9" points="1071.92,-244.08 1076.48,-247.7 1075.18,-242.02 1071.92,-244.08"/>
</g>
<!-- n9&#45;&gt;n8 -->
<g id="edge13" class="edge">
<title>n9&#45;&gt;n8</title>
<path fill="none" stroke="#9aa8b8" stroke-width="0.9" d="M642.16,-236.38C672.39,-220.44 720.77,-194.93 753.21,-177.83"/>
<polygon fill="#9aa8b8" stroke="#9aa8b8" stroke-width="0.9" points="753.9,-179.64 757.87,-175.37 752.1,-176.23 753.9,-179.64"/>
</g>
<!-- n9&#45;&gt;n12 -->
<g id="edge14" class="edge">
<title>n9&#45;&gt;n12</title>
<path fill="none" stroke="#9aa8b8" stroke-width="0.9" d="M642.24,-252.46C705.08,-255.75 857.75,-263.75 925.06,-267.28"/>
<polygon fill="#9aa8b8" stroke="#9aa8b8" stroke-width="0.9" points="924.73,-269.19 930.33,-267.56 924.94,-265.35 924.73,-269.19"/>
</g>
<!-- out4 -->
<g id="node18" class="node">
<title>out4</title>
<polygon fill="#fff8e8" stroke="#d19922" points="849.13,-908.2 720.91,-908.2 720.91,-863.8 855.13,-863.8 855.13,-902.2 849.13,-908.2"/>
<polyline fill="none" stroke="#d19922" points="849.13,-908.2 849.13,-902.2"/>
<polyline fill="none" stroke="#d19922" points="855.13,-902.2 849.13,-902.2"/>
<text xml:space="preserve" text-anchor="start" x="730.27" y="-892.5" font-family="Inter,Arial" font-size="10.00" fill="#614000">to rand_chacha&#45;v0.3.1.svg</text>
<text xml:space="preserve" text-anchor="start" x="758.39" y="-882.5" font-family="Inter,Arial" font-weight="bold" font-size="10.00" fill="#614000">rand_chacha</text>
<text xml:space="preserve" text-anchor="start" x="777.14" y="-872.5" font-family="Inter,Arial" font-size="10.00" fill="#614000">0.3.1</text>
</g>
<!-- n10&#45;&gt;out4 -->
<g id="edge31" class="edge">
<title>n10&#45;&gt;out4</title>
<path fill="none" stroke="#d19922" stroke-width="0.9" stroke-dasharray="5,2" d="M667.15,-890.17C681.89,-889.65 698.19,-889.09 713.89,-888.54"/>
<polygon fill="#d19922" stroke="#d19922" stroke-width="0.9" points="713.78,-890.47 719.21,-888.36 713.65,-886.62 713.78,-890.47"/>
</g>
<!-- n10&#45;&gt;out5 -->
<g id="edge32" class="edge">
<title>n10&#45;&gt;out5</title>
<path fill="none" stroke="#d19922" stroke-width="0.9" stroke-dasharray="5,2" d="M653.16,-917.58C681.2,-936.11 719,-961.07 747.27,-979.75"/>
<polygon fill="#d19922" stroke="#d19922" stroke-width="0.9" points="746.01,-981.22 751.66,-982.65 748.13,-978.01 746.01,-981.22"/>
</g>
<!-- n11&#45;&gt;out1 -->
<g id="edge28" class="edge">
<title>n11&#45;&gt;out1</title>
<path fill="none" stroke="#d19922" stroke-width="0.9" stroke-dasharray="5,2" d="M453.32,-1122.66C520.95,-1135.27 664.53,-1159 787.02,-1159 787.02,-1159 787.02,-1159 959.86,-1159 1027.03,-1159 1098.88,-1135.02 1153.34,-1111.42"/>
<polygon fill="#d19922" stroke="#d19922" stroke-width="0.9" points="1154.05,-1113.21 1158.31,-1109.24 1152.5,-1109.68 1154.05,-1113.21"/>
</g>
<!-- n11&#45;&gt;out5 -->
<g id="edge34" class="edge">
<title>n11&#45;&gt;out5</title>
<path fill="none" stroke="#d19922" stroke-width="0.9" stroke-dasharray="5,2" d="M453.51,-1103.54C516.95,-1084.99 642.87,-1048.16 720.53,-1025.44"/>
<polygon fill="#d19922" stroke="#d19922" stroke-width="0.9" points="720.92,-1027.34 725.66,-1023.95 719.84,-1023.64 720.92,-1027.34"/>
</g>
<!-- n12&#45;&gt;n1 -->
<g id="edge21" class="edge">
<title>n12&#45;&gt;n1</title>
<path fill="none" stroke="#9aa8b8" stroke-width="0.9" d="M986.23,-269C1006.27,-269 1033.98,-269 1055.52,-269"/>
<polygon fill="#9aa8b8" stroke="#9aa8b8" stroke-width="0.9" points="1055.41,-270.93 1060.91,-269 1055.41,-267.08 1055.41,-270.93"/>
</g>
<!-- in9 -->
<g id="node23" class="node">
<title>in9</title>
<polygon fill="#eef6ff" stroke="#4b8fc5" points="180.72,-508.2 0,-508.2 0,-363.8 186.72,-363.8 186.72,-502.2 180.72,-508.2"/>
<polyline fill="none" stroke="#4b8fc5" points="180.72,-508.2 180.72,-502.2"/>
<polyline fill="none" stroke="#4b8fc5" points="186.72,-502.2 180.72,-502.2"/>
<text xml:space="preserve" text-anchor="start" x="9.36" y="-492.5" font-family="Inter,Arial" font-size="10.00" fill="#123d5c">from rustls&#45;rustcrypto&#45;v0.0.2&#45;alpha.svg</text>
<text xml:space="preserve" text-anchor="start" x="85.86" y="-482.5" font-family="Inter,Arial" font-weight="bold" font-size="10.00" fill="#123d5c">der</text>
<text xml:space="preserve" text-anchor="start" x="79.86" y="-472.5" font-family="Inter,Arial" font-size="10.00" fill="#123d5c">0.7.10</text>
<text xml:space="preserve" text-anchor="start" x="71.61" y="-462.5" font-family="Inter,Arial" font-weight="bold" font-size="10.00" fill="#123d5c">signature</text>
<text xml:space="preserve" text-anchor="start" x="82.48" y="-452.5" font-family="Inter,Arial" font-size="10.00" fill="#123d5c">2.2.0</text>
<text xml:space="preserve" text-anchor="start" x="83.61" y="-442.5" font-family="Inter,Arial" font-weight="bold" font-size="10.00" fill="#123d5c">spki</text>
<text xml:space="preserve" text-anchor="start" x="82.48" y="-432.5" font-family="Inter,Arial" font-size="10.00" fill="#123d5c">0.7.3</text>
<text xml:space="preserve" text-anchor="start" x="79.86" y="-422.5" font-family="Inter,Arial" font-weight="bold" font-size="10.00" fill="#123d5c">pkcs8</text>
<text xml:space="preserve" text-anchor="start" x="79.86" y="-412.5" font-family="Inter,Arial" font-size="10.00" fill="#123d5c">0.10.2</text>
<text xml:space="preserve" text-anchor="start" x="65.23" y="-402.5" font-family="Inter,Arial" font-weight="bold" font-size="10.00" fill="#123d5c">pem&#45;rfc7468</text>
<text xml:space="preserve" text-anchor="start" x="82.48" y="-392.5" font-family="Inter,Arial" font-size="10.00" fill="#123d5c">0.7.0</text>
<text xml:space="preserve" text-anchor="start" x="86.23" y="-382.5" font-family="Inter,Arial" font-weight="bold" font-size="10.00" fill="#123d5c">rsa</text>
<text xml:space="preserve" text-anchor="start" x="79.86" y="-372.5" font-family="Inter,Arial" font-size="10.00" fill="#123d5c">0.9.10</text>
</g>
<!-- in9&#45;&gt;n0 -->
<g id="edge43" class="edge">
<title>in9&#45;&gt;n0</title>
<path fill="none" stroke="#4b8fc5" stroke-width="0.9" stroke-dasharray="5,2" d="M135.55,-508.58C169.2,-567.86 214.84,-648.27 237.97,-689.02"/>
<polygon fill="#4b8fc5" stroke="#4b8fc5" stroke-width="0.9" points="236.29,-689.95 240.68,-693.79 239.64,-688.05 236.29,-689.95"/>
</g>
<!-- in9&#45;&gt;n1 -->
<g id="edge40" class="edge">
<title>in9&#45;&gt;n1</title>
<path fill="none" stroke="#4b8fc5" stroke-width="0.9" stroke-dasharray="5,2" d="M102.51,-508.66C116.87,-619.98 152.5,-837.7 226.72,-1008 275.43,-1119.77 290.41,-1210 412.33,-1210 412.33,-1210 412.33,-1210 789.02,-1210 999.13,-1210 956.44,-998.42 1022.6,-799 1084.1,-613.62 1089.08,-374.48 1088.91,-295.56"/>
<polygon fill="#4b8fc5" stroke="#4b8fc5" stroke-width="0.9" points="1090.84,-295.71 1088.89,-290.22 1086.99,-295.73 1090.84,-295.71"/>
</g>
<!-- in9&#45;&gt;n6 -->
<g id="edge41" class="edge">
<title>in9&#45;&gt;n6</title>
<path fill="none" stroke="#4b8fc5" stroke-width="0.9" stroke-dasharray="5,2" d="M111.51,-363.51C145.63,-239.54 234.56,0 412.33,0 412.33,0 412.33,0 959.86,0 1037.19,0 1121.16,-30.67 1177.32,-56"/>
<polygon fill="#4b8fc5" stroke="#4b8fc5" stroke-width="0.9" points="1176.3,-57.65 1182.11,-58.18 1177.9,-54.15 1176.3,-57.65"/>
</g>
<!-- in9&#45;&gt;n9 -->
<g id="edge42" class="edge">
<title>in9&#45;&gt;n9</title>
<path fill="none" stroke="#4b8fc5" stroke-width="0.9" stroke-dasharray="5,2" d="M175.42,-363.35C216.13,-331.17 267.95,-296.3 320.72,-277 409.05,-244.69 522.03,-245.5 577.92,-248.43"/>
<polygon fill="#4b8fc5" stroke="#4b8fc5" stroke-width="0.9" points="577.49,-250.34 583.09,-248.72 577.71,-246.49 577.49,-250.34"/>
</g>
<!-- in9&#45;&gt;n11 -->
<g id="edge44" class="edge">
<title>in9&#45;&gt;n11</title>
<path fill="none" stroke="#4b8fc5" stroke-width="0.9" stroke-dasharray="5,2" d="M101.11,-508.63C116.85,-638.59 167.2,-912.57 320.72,-1076 333.05,-1089.12 350.51,-1098.03 366.89,-1103.97"/>
<polygon fill="#4b8fc5" stroke="#4b8fc5" stroke-width="0.9" points="366.23,-1105.77 372.05,-1105.74 367.48,-1102.13 366.23,-1105.77"/>
</g>
<!-- in9&#45;&gt;n12 -->
<g id="edge45" class="edge">
<title>in9&#45;&gt;n12</title>
<path fill="none" stroke="#4b8fc5" stroke-width="0.9" stroke-dasharray="5,2" d="M151.91,-363.37C173.7,-338.59 199.79,-311.89 226.72,-291 264.11,-261.99 275.42,-254.67 320.72,-241 543.28,-173.83 829.35,-235.68 925.05,-260.09"/>
<polygon fill="#4b8fc5" stroke="#4b8fc5" stroke-width="0.9" points="924.48,-261.93 930.29,-261.44 925.44,-258.21 924.48,-261.93"/>
</g>
<!-- in10 -->
<g id="node24" class="node">
<title>in10</title>
<polygon fill="#eef6ff" stroke="#4b8fc5" points="499.94,-1302.2 320.72,-1302.2 320.72,-1247.8 505.94,-1247.8 505.94,-1296.2 499.94,-1302.2"/>
<polyline fill="none" stroke="#4b8fc5" points="499.94,-1302.2 499.94,-1296.2"/>
<polyline fill="none" stroke="#4b8fc5" points="505.94,-1296.2 499.94,-1296.2"/>
<text xml:space="preserve" text-anchor="start" x="330.08" y="-1286.5" font-family="Inter,Arial" font-size="10.00" fill="#123d5c">from symphonia&#45;codec&#45;aac&#45;v0.5.5.svg</text>
<text xml:space="preserve" text-anchor="start" x="388.95" y="-1276.5" font-family="Inter,Arial" font-weight="bold" font-size="10.00" fill="#123d5c">lazy_static</text>
<text xml:space="preserve" text-anchor="start" x="402.45" y="-1266.5" font-family="Inter,Arial" font-size="10.00" fill="#123d5c">1.5.0</text>
<text xml:space="preserve" text-anchor="start" x="359.7" y="-1256.5" font-family="Inter,Arial" font-size="10.00" fill="#123d5c">/vendor/lazy_static&#45;1.5.0</text>
</g>
<!-- in10&#45;&gt;n2 -->
<g id="edge46" class="edge">
<title>in10&#45;&gt;n2</title>
<path fill="none" stroke="#4b8fc5" stroke-width="0.9" stroke-dasharray="5,2" d="M506.42,-1275C517.38,-1275 528.45,-1275 539.1,-1275"/>
<polygon fill="#4b8fc5" stroke="#4b8fc5" stroke-width="0.9" points="538.81,-1276.93 544.31,-1275 538.81,-1273.08 538.81,-1276.93"/>
</g>
<!-- in11 -->
<g id="node25" class="node">
<title>in11</title>
<polygon fill="#eef6ff" stroke="#4b8fc5" points="486.81,-1381.2 333.84,-1381.2 333.84,-1326.8 492.81,-1326.8 492.81,-1375.2 486.81,-1381.2"/>
<polyline fill="none" stroke="#4b8fc5" points="486.81,-1381.2 486.81,-1375.2"/>
<polyline fill="none" stroke="#4b8fc5" points="492.81,-1375.2 486.81,-1375.2"/>
<text xml:space="preserve" text-anchor="start" x="343.2" y="-1365.5" font-family="Inter,Arial" font-size="10.00" fill="#123d5c">from symphonia&#45;core&#45;v0.5.5.svg</text>
<text xml:space="preserve" text-anchor="start" x="388.95" y="-1355.5" font-family="Inter,Arial" font-weight="bold" font-size="10.00" fill="#123d5c">lazy_static</text>
<text xml:space="preserve" text-anchor="start" x="402.45" y="-1345.5" font-family="Inter,Arial" font-size="10.00" fill="#123d5c">1.5.0</text>
<text xml:space="preserve" text-anchor="start" x="359.7" y="-1335.5" font-family="Inter,Arial" font-size="10.00" fill="#123d5c">/vendor/lazy_static&#45;1.5.0</text>
</g>
<!-- in11&#45;&gt;n2 -->
<g id="edge47" class="edge">
<title>in11&#45;&gt;n2</title>
<path fill="none" stroke="#4b8fc5" stroke-width="0.9" stroke-dasharray="5,2" d="M483.61,-1326.37C502.46,-1318.85 522.89,-1310.71 541.81,-1303.16"/>
<polygon fill="#4b8fc5" stroke="#4b8fc5" stroke-width="0.9" points="542.5,-1304.96 546.9,-1301.13 541.07,-1301.38 542.5,-1304.96"/>
</g>
</g>
</svg>
