<?xml version="1.0" encoding="UTF-8" standalone="no"?>
<!DOCTYPE svg PUBLIC "-//W3C//DTD SVG 1.1//EN"
 "http://www.w3.org/Graphics/SVG/1.1/DTD/svg11.dtd">
<!-- Generated by graphviz version 14.1.2 (0)
 -->
<!-- Title: rsa&#45;v0.9.10 Pages: 1 -->
<svg width="1339pt" height="1389pt"
 viewBox="0.00 0.00 1339.00 1389.00" xmlns="http://www.w3.org/2000/svg" xmlns:xlink="http://www.w3.org/1999/xlink">
<g id="graph0" class="graph" transform="scale(1 1) rotate(0) translate(4 1385.2)">
<title>rsa&#45;v0.9.10</title>
<polygon fill="white" stroke="none" points="-4,4 -4,-1385.2 1334.57,-1385.2 1334.57,4 -4,4"/>
<!-- n0 -->
<g id="node1" class="node">
<title>n0</title>
<path fill="#dff3ff" stroke="#1b78a6" d="M268.72,-734.7C268.72,-734.7 238.72,-734.7 238.72,-734.7 232.72,-734.7 226.72,-728.7 226.72,-722.7 226.72,-722.7 226.72,-707.3 226.72,-707.3 226.72,-701.3 232.72,-695.3 238.72,-695.3 238.72,-695.3 268.72,-695.3 268.72,-695.3 274.72,-695.3 280.72,-701.3 280.72,-707.3 280.72,-707.3 280.72,-722.7 280.72,-722.7 280.72,-728.7 274.72,-734.7 268.72,-734.7"/>
<text xml:space="preserve" text-anchor="start" x="243.6" y="-716.15" font-family="Inter,Arial" font-weight="bold" font-size="13.00" fill="#172033">rsa</text>
<text xml:space="preserve" text-anchor="start" x="237.22" y="-704.1" font-family="Inter,Arial" font-size="12.00" fill="#172033">0.9.10</text>
</g>
<!-- n3 -->
<g id="node4" class="node">
<title>n3</title>
<path fill="#f7f9fb" stroke="#8b9bb0" d="M457.56,-701.7C457.56,-701.7 369.09,-701.7 369.09,-701.7 363.09,-701.7 357.09,-695.7 357.09,-689.7 357.09,-689.7 357.09,-674.3 357.09,-674.3 357.09,-668.3 363.09,-662.3 369.09,-662.3 369.09,-662.3 457.56,-662.3 457.56,-662.3 463.56,-662.3 469.56,-668.3 469.56,-674.3 469.56,-674.3 469.56,-689.7 469.56,-689.7 469.56,-695.7 463.56,-701.7 457.56,-701.7"/>
<text xml:space="preserve" text-anchor="start" x="366.45" y="-683.15" font-family="Inter,Arial" font-weight="bold" font-size="13.00" fill="#172033">num&#45;bigint&#45;dig</text>
<text xml:space="preserve" text-anchor="start" x="400.2" y="-671.1" font-family="Inter,Arial" font-size="12.00" fill="#172033">0.8.6</text>
</g>
<!-- n0&#45;&gt;n3 -->
<g id="edge15" class="edge">
<title>n0&#45;&gt;n3</title>
<path fill="none" stroke="#9aa8b8" stroke-width="7.2" d="M281.1,-709.48C298.56,-705.82 322.29,-700.85 344.78,-696.14"/>
<polygon fill="#9aa8b8" stroke="#9aa8b8" stroke-width="7.2" points="345.46,-699.54 350.13,-695.02 344.04,-692.76 345.46,-699.54"/>
</g>
<!-- n4 -->
<g id="node5" class="node">
<title>n4</title>
<path fill="#f7f9fb" stroke="#8b9bb0" d="M824,-797.7C824,-797.7 752.03,-797.7 752.03,-797.7 746.03,-797.7 740.03,-791.7 740.03,-785.7 740.03,-785.7 740.03,-770.3 740.03,-770.3 740.03,-764.3 746.03,-758.3 752.03,-758.3 752.03,-758.3 824,-758.3 824,-758.3 830,-758.3 836,-764.3 836,-770.3 836,-770.3 836,-785.7 836,-785.7 836,-791.7 830,-797.7 824,-797.7"/>
<text xml:space="preserve" text-anchor="start" x="749.39" y="-779.15" font-family="Inter,Arial" font-weight="bold" font-size="13.00" fill="#172033">num&#45;integer</text>
<text xml:space="preserve" text-anchor="start" x="771.52" y="-767.1" font-family="Inter,Arial" font-size="12.00" fill="#172033">0.1.46</text>
</g>
<!-- n0&#45;&gt;n4 -->
<g id="edge16" class="edge">
<title>n0&#45;&gt;n4</title>
<path fill="none" stroke="#9aa8b8" stroke-width="7.2" d="M267.1,-734.96C278.66,-751.55 297.59,-774 320.72,-784 456.55,-842.75 636.15,-814.54 727.76,-793.61"/>
<polygon fill="#9aa8b8" stroke="#9aa8b8" stroke-width="7.2" points="728.41,-797.01 732.98,-792.38 726.83,-790.26 728.41,-797.01"/>
</g>
<!-- n7 -->
<g id="node8" class="node">
<title>n7</title>
<path fill="#f7f9fb" stroke="#8b9bb0" d="M429.81,-441.7C429.81,-441.7 396.84,-441.7 396.84,-441.7 390.84,-441.7 384.84,-435.7 384.84,-429.7 384.84,-429.7 384.84,-414.3 384.84,-414.3 384.84,-408.3 390.84,-402.3 396.84,-402.3 396.84,-402.3 429.81,-402.3 429.81,-402.3 435.81,-402.3 441.81,-408.3 441.81,-414.3 441.81,-414.3 441.81,-429.7 441.81,-429.7 441.81,-435.7 435.81,-441.7 429.81,-441.7"/>
<text xml:space="preserve" text-anchor="start" x="394.2" y="-423.15" font-family="Inter,Arial" font-weight="bold" font-size="13.00" fill="#172033">pkcs1</text>
<text xml:space="preserve" text-anchor="start" x="400.2" y="-411.1" font-family="Inter,Arial" font-size="12.00" fill="#172033">0.7.5</text>
</g>
<!-- n0&#45;&gt;n7 -->
<g id="edge17" class="edge">
<title>n0&#45;&gt;n7</title>
<path fill="none" stroke="#9aa8b8" stroke-width="7.2" d="M265.55,-694.86C292.67,-644.45 363.6,-512.6 395.89,-452.56"/>
<polygon fill="#9aa8b8" stroke="#9aa8b8" stroke-width="7.2" points="398.88,-454.33 398.43,-447.84 392.77,-451.04 398.88,-454.33"/>
</g>
<!-- n9 -->
<g id="node10" class="node">
<title>n9</title>
<path fill="#f7f9fb" stroke="#8b9bb0" d="M629.91,-270.7C629.91,-270.7 596.94,-270.7 596.94,-270.7 590.94,-270.7 584.94,-264.7 584.94,-258.7 584.94,-258.7 584.94,-243.3 584.94,-243.3 584.94,-237.3 590.94,-231.3 596.94,-231.3 596.94,-231.3 629.91,-231.3 629.91,-231.3 635.91,-231.3 641.91,-237.3 641.91,-243.3 641.91,-243.3 641.91,-258.7 641.91,-258.7 641.91,-264.7 635.91,-270.7 629.91,-270.7"/>
<text xml:space="preserve" text-anchor="start" x="594.3" y="-252.15" font-family="Inter,Arial" font-weight="bold" font-size="13.00" fill="#172033">pkcs8</text>
<text xml:space="preserve" text-anchor="start" x="596.92" y="-240.1" font-family="Inter,Arial" font-size="12.00" fill="#172033">0.10.2</text>
</g>
<!-- n0&#45;&gt;n9 -->
<g id="edge18" class="edge">
<title>n0&#45;&gt;n9</title>
<path fill="none" stroke="#9aa8b8" stroke-width="7.2" d="M255.63,-695.09C259.18,-626.05 274.26,-398.21 320.72,-345 329.28,-335.19 495.35,-285.41 573.01,-262.53"/>
<polygon fill="#9aa8b8" stroke="#9aa8b8" stroke-width="7.2" points="573.9,-265.88 578.2,-261 571.95,-259.23 573.9,-265.88"/>
</g>
<!-- n11 -->
<g id="node12" class="node">
<title>n11</title>
<path fill="#f7f9fb" stroke="#8b9bb0" d="M441.06,-1134.7C441.06,-1134.7 385.59,-1134.7 385.59,-1134.7 379.59,-1134.7 373.59,-1128.7 373.59,-1122.7 373.59,-1122.7 373.59,-1107.3 373.59,-1107.3 373.59,-1101.3 379.59,-1095.3 385.59,-1095.3 385.59,-1095.3 441.06,-1095.3 441.06,-1095.3 447.06,-1095.3 453.06,-1101.3 453.06,-1107.3 453.06,-1107.3 453.06,-1122.7 453.06,-1122.7 453.06,-1128.7 447.06,-1134.7 441.06,-1134.7"/>
<text xml:space="preserve" text-anchor="start" x="382.95" y="-1116.15" font-family="Inter,Arial" font-weight="bold" font-size="13.00" fill="#172033">signature</text>
<text xml:space="preserve" text-anchor="start" x="400.2" y="-1104.1" font-family="Inter,Arial" font-size="12.00" fill="#172033">2.2.0</text>
</g>
<!-- n0&#45;&gt;n11 -->
<g id="edge19" class="edge">
<title>n0&#45;&gt;n11</title>
<path fill="none" stroke="#9aa8b8" stroke-width="7.2" d="M257.22,-734.71C266.42,-806.17 299.03,-1048.88 320.72,-1076 331.04,-1088.91 346.44,-1097.62 361.67,-1103.46"/>
<polygon fill="#9aa8b8" stroke="#9aa8b8" stroke-width="7.2" points="360.49,-1106.72 366.81,-1105.21 362.73,-1100.16 360.49,-1106.72"/>
</g>
<!-- n12 -->
<g id="node13" class="node">
<title>n12</title>
<path fill="#f7f9fb" stroke="#8b9bb0" d="M973.87,-288.7C973.87,-288.7 943.87,-288.7 943.87,-288.7 937.87,-288.7 931.87,-282.7 931.87,-276.7 931.87,-276.7 931.87,-261.3 931.87,-261.3 931.87,-255.3 937.87,-249.3 943.87,-249.3 943.87,-249.3 973.87,-249.3 973.87,-249.3 979.87,-249.3 985.87,-255.3 985.87,-261.3 985.87,-261.3 985.87,-276.7 985.87,-276.7 985.87,-282.7 979.87,-288.7 973.87,-288.7"/>
<text xml:space="preserve" text-anchor="start" x="945.37" y="-270.15" font-family="Inter,Arial" font-weight="bold" font-size="13.00" fill="#172033">spki</text>
<text xml:space="preserve" text-anchor="start" x="945.74" y="-258.1" font-family="Inter,Arial" font-size="12.00" fill="#172033">0.7.3</text>
</g>
<!-- n0&#45;&gt;n12 -->
<g id="edge20" class="edge">
<title>n0&#45;&gt;n12</title>
<path fill="none" stroke="#9aa8b8" stroke-width="7.2" d="M255.93,-695.12C260.22,-631.31 276.88,-433.28 320.72,-390 363.99,-347.27 788.05,-290.48 919.33,-273.8"/>
<polygon fill="#9aa8b8" stroke="#9aa8b8" stroke-width="7.2" points="919.72,-277.24 924.75,-273.11 918.85,-270.37 919.72,-277.24"/>
</g>
<!-- out0 -->
<g id="node14" class="node">
<title>out0</title>
<polygon fill="#fff8e8" stroke="#d19922" points="1016.6,-786.2 895.13,-786.2 895.13,-711.8 1022.6,-711.8 1022.6,-780.2 1016.6,-786.2"/>
<polyline fill="none" stroke="#d19922" points="1016.6,-786.2 1016.6,-780.2"/>
<polyline fill="none" stroke="#d19922" points="1022.6,-780.2 1016.6,-780.2"/>
<text xml:space="preserve" text-anchor="start" x="910.12" y="-770.5" font-family="Inter,Arial" font-size="10.00" fill="#614000">to crab&#45;usb&#45;v0.9.1.svg</text>
<text xml:space="preserve" text-anchor="start" x="935.24" y="-760.5" font-family="Inter,Arial" font-weight="bold" font-size="10.00" fill="#614000">num&#45;traits</text>
<text xml:space="preserve" text-anchor="start" x="945.37" y="-750.5" font-family="Inter,Arial" font-size="10.00" fill="#614000">0.2.19</text>
<text xml:space="preserve" text-anchor="start" x="904.49" y="-740.5" font-family="Inter,Arial" font-size="10.00" fill="#614000">/vendor/num&#45;traits&#45;0.2.19</text>
<text xml:space="preserve" text-anchor="start" x="941.62" y="-730.5" font-family="Inter,Arial" font-weight="bold" font-size="10.00" fill="#614000">autocfg</text>
<text xml:space="preserve" text-anchor="start" x="947.99" y="-720.5" font-family="Inter,Arial" font-size="10.00" fill="#614000">1.5.1</text>
</g>
<!-- n0&#45;&gt;out0 -->
<g id="edge25" class="edge">
<title>n0&#45;&gt;out0</title>
<path fill="none" stroke="#d19922" stroke-width="7.2" stroke-dasharray="5,2" d="M263.22,-735.12C273.8,-758.16 293.81,-795.82 320.72,-820 403.58,-894.45 437.4,-904.91 545.94,-930 679.88,-960.96 737.36,-991.92 855.13,-921 900.29,-893.81 927.98,-838.54 943.06,-797.96"/>
<polygon fill="#d19922" stroke="#d19922" stroke-width="7.2" points="946.33,-799.12 944.9,-792.78 939.8,-796.8 946.33,-799.12"/>
</g>
<!-- out1 -->
<g id="node15" class="node">
<title>out1</title>
<polygon fill="#fff8e8" stroke="#d19922" points="1324.57,-1108.2 1156.6,-1108.2 1156.6,-1023.8 1330.57,-1023.8 1330.57,-1102.2 1324.57,-1108.2"/>
<polyline fill="none" stroke="#d19922" points="1324.57,-1108.2 1324.57,-1102.2"/>
<polyline fill="none" stroke="#d19922" points="1330.57,-1102.2 1324.57,-1102.2"/>
<text xml:space="preserve" text-anchor="start" x="1165.96" y="-1092.5" font-family="Inter,Arial" font-size="10.00" fill="#614000">to embedded&#45;websocket&#45;v0.9.4.svg</text>
<text xml:space="preserve" text-anchor="start" x="1221.84" y="-1082.5" font-family="Inter,Arial" font-weight="bold" font-size="10.00" fill="#614000">const&#45;oid</text>
<text xml:space="preserve" text-anchor="start" x="1232.71" y="-1072.5" font-family="Inter,Arial" font-size="10.00" fill="#614000">0.9.6</text>
<text xml:space="preserve" text-anchor="start" x="1229.34" y="-1062.5" font-family="Inter,Arial" font-weight="bold" font-size="10.00" fill="#614000">digest</text>
<text xml:space="preserve" text-anchor="start" x="1230.09" y="-1052.5" font-family="Inter,Arial" font-size="10.00" fill="#614000">0.10.7</text>
<text xml:space="preserve" text-anchor="start" x="1229.34" y="-1042.5" font-family="Inter,Arial" font-weight="bold" font-size="10.00" fill="#614000">subtle</text>
<text xml:space="preserve" text-anchor="start" x="1232.71" y="-1032.5" font-family="Inter,Arial" font-size="10.00" fill="#614000">2.6.1</text>
</g>
<!-- n0&#45;&gt;out1 -->
<g id="edge27" class="edge">
<title>n0&#45;&gt;out1</title>
<path fill="none" stroke="#d19922" stroke-width="7.2" stroke-dasharray="5,2" d="M256.16,-735.1C260.95,-795.89 278.52,-975.93 320.72,-1013 440.65,-1118.33 931.8,-1091.86 1144.08,-1074.91"/>
<polygon fill="#d19922" stroke="#d19922" stroke-width="7.2" points="1144.19,-1078.38 1149.4,-1074.48 1143.63,-1071.47 1144.19,-1078.38"/>
</g>
<!-- out5 -->
<g id="node19" class="node">
<title>out5</title>
<polygon fill="#fff8e8" stroke="#d19922" points="842.75,-1028.2 727.28,-1028.2 727.28,-983.8 848.75,-983.8 848.75,-1022.2 842.75,-1028.2"/>
<polyline fill="none" stroke="#d19922" points="842.75,-1028.2 842.75,-1022.2"/>
<polyline fill="none" stroke="#d19922" points="848.75,-1022.2 842.75,-1022.2"/>
<text xml:space="preserve" text-anchor="start" x="736.64" y="-1012.5" font-family="Inter,Arial" font-size="10.00" fill="#614000">to rand_core&#45;v0.6.4.svg</text>
<text xml:space="preserve" text-anchor="start" x="764.77" y="-1002.5" font-family="Inter,Arial" font-weight="bold" font-size="10.00" fill="#614000">rand_core</text>
<text xml:space="preserve" text-anchor="start" x="777.14" y="-992.5" font-family="Inter,Arial" font-size="10.00" fill="#614000">0.6.4</text>
</g>
<!-- n0&#45;&gt;out5 -->
<g id="edge33" class="edge">
<title>n0&#45;&gt;out5</title>
<path fill="none" stroke="#d19922" stroke-width="7.2" stroke-dasharray="5,2" d="M256.81,-734.84C263.05,-789.97 283.47,-942.95 320.72,-974 378.75,-1022.38 599.08,-1017.31 714.9,-1010.95"/>
<polygon fill="#d19922" stroke="#d19922" stroke-width="7.2" points="715.09,-1014.41 720.38,-1010.63 714.7,-1007.49 715.09,-1014.41"/>
</g>
<!-- out6 -->
<g id="node20" class="node">
<title>out6</title>
<polygon fill="#fff8e8" stroke="#d19922" points="459.81,-771.2 360.84,-771.2 360.84,-726.8 465.81,-726.8 465.81,-765.2 459.81,-771.2"/>
<polyline fill="none" stroke="#d19922" points="459.81,-771.2 459.81,-765.2"/>
<polyline fill="none" stroke="#d19922" points="465.81,-765.2 459.81,-765.2"/>
<text xml:space="preserve" text-anchor="start" x="370.2" y="-755.5" font-family="Inter,Arial" font-size="10.00" fill="#614000">to sha2&#45;v0.10.9.svg</text>
<text xml:space="preserve" text-anchor="start" x="402.45" y="-745.5" font-family="Inter,Arial" font-weight="bold" font-size="10.00" fill="#614000">sha2</text>
<text xml:space="preserve" text-anchor="start" x="399.83" y="-735.5" font-family="Inter,Arial" font-size="10.00" fill="#614000">0.10.9</text>
</g>
<!-- n0&#45;&gt;out6 -->
<g id="edge35" class="edge">
<title>n0&#45;&gt;out6</title>
<path fill="none" stroke="#d19922" stroke-width="7.2" stroke-dasharray="5,2" d="M281.1,-720.69C299.62,-724.69 325.2,-730.2 348.87,-735.31"/>
<polygon fill="#d19922" stroke="#d19922" stroke-width="7.2" points="347.94,-738.65 354.05,-736.43 349.4,-731.88 347.94,-738.65"/>
</g>
<!-- out8 -->
<g id="node22" class="node">
<title>out8</title>
<polygon fill="#fff8e8" stroke="#d19922" points="1292.69,-291.2 1188.48,-291.2 1188.48,-246.8 1298.69,-246.8 1298.69,-285.2 1292.69,-291.2"/>
<polyline fill="none" stroke="#d19922" points="1292.69,-291.2 1292.69,-285.2"/>
<polyline fill="none" stroke="#d19922" points="1298.69,-285.2 1292.69,-285.2"/>
<text xml:space="preserve" text-anchor="start" x="1197.84" y="-275.5" font-family="Inter,Arial" font-size="10.00" fill="#614000">to zeroize&#45;v1.9.0.svg</text>
<text xml:space="preserve" text-anchor="start" x="1226.71" y="-265.5" font-family="Inter,Arial" font-weight="bold" font-size="10.00" fill="#614000">zeroize</text>
<text xml:space="preserve" text-anchor="start" x="1232.71" y="-255.5" font-family="Inter,Arial" font-size="10.00" fill="#614000">1.9.0</text>
</g>
<!-- n0&#45;&gt;out8 -->
<g id="edge39" class="edge">
<title>n0&#45;&gt;out8</title>
<path fill="none" stroke="#d19922" stroke-width="7.2" stroke-dasharray="5,2" d="M255.23,-694.99C257.54,-618.48 269.3,-345.45 320.72,-279 515.95,-26.73 722.49,-20.89 1022.6,-129 1093.38,-154.5 1164.96,-205.88 1206.48,-238.81"/>
<polygon fill="#d19922" stroke="#d19922" stroke-width="7.2" points="1204.15,-241.37 1210.61,-242.12 1208.49,-235.97 1204.15,-241.37"/>
</g>
<!-- n1 -->
<g id="node2" class="node">
<title>n1</title>
<path fill="#f7f9fb" stroke="#8b9bb0" d="M1104.6,-288.7C1104.6,-288.7 1074.6,-288.7 1074.6,-288.7 1068.6,-288.7 1062.6,-282.7 1062.6,-276.7 1062.6,-276.7 1062.6,-261.3 1062.6,-261.3 1062.6,-255.3 1068.6,-249.3 1074.6,-249.3 1074.6,-249.3 1104.6,-249.3 1104.6,-249.3 1110.6,-249.3 1116.6,-255.3 1116.6,-261.3 1116.6,-261.3 1116.6,-276.7 1116.6,-276.7 1116.6,-282.7 1110.6,-288.7 1104.6,-288.7"/>
<text xml:space="preserve" text-anchor="start" x="1079.1" y="-270.15" font-family="Inter,Arial" font-weight="bold" font-size="13.00" fill="#172033">der</text>
<text xml:space="preserve" text-anchor="start" x="1073.1" y="-258.1" font-family="Inter,Arial" font-size="12.00" fill="#172033">0.7.10</text>
</g>
<!-- n6 -->
<g id="node7" class="node">
<title>n6</title>
<path fill="#f7f9fb" stroke="#8b9bb0" d="M1291.57,-132.57C1291.57,-132.57 1195.6,-132.57 1195.6,-132.57 1189.6,-132.57 1183.6,-126.57 1183.6,-120.57 1183.6,-120.57 1183.6,-57.42 1183.6,-57.42 1183.6,-51.42 1189.6,-45.42 1195.6,-45.42 1195.6,-45.42 1291.57,-45.42 1291.57,-45.42 1297.57,-45.42 1303.57,-51.42 1303.57,-57.42 1303.57,-57.42 1303.57,-120.57 1303.57,-120.57 1303.57,-126.57 1297.57,-132.57 1291.57,-132.57"/>
<text xml:space="preserve" text-anchor="start" x="1204.21" y="-114.03" font-family="Inter,Arial" font-weight="bold" font-size="13.00" fill="#172033">pem&#45;rfc7468</text>
<text xml:space="preserve" text-anchor="start" x="1230.46" y="-98.97" font-family="Inter,Arial" font-size="12.00" fill="#172033">0.7.0</text>
<text xml:space="preserve" text-anchor="start" x="1207.96" y="-71.67" font-family="Inter,Arial" font-weight="bold" font-size="11.00" fill="#172033">base64ct</text>
<text xml:space="preserve" text-anchor="start" x="1254.46" y="-71.67" font-family="Inter,Arial" font-size="10.00" fill="#172033"> </text>
<text xml:space="preserve" text-anchor="start" x="1257.46" y="-71.67" font-family="Inter,Arial" font-size="10.00" fill="#172033">1.8.3</text>
<path fill="none" stroke="#9aa8b8" d="M1209.46,-58.62C1209.46,-58.62 1277.71,-58.62 1277.71,-58.62 1282.96,-58.62 1288.21,-63.88 1288.21,-69.12 1288.21,-69.12 1288.21,-79.62 1288.21,-79.62 1288.21,-84.88 1282.96,-90.12 1277.71,-90.12 1277.71,-90.12 1209.46,-90.12 1209.46,-90.12 1204.21,-90.12 1198.96,-84.88 1198.96,-79.62 1198.96,-79.62 1198.96,-69.12 1198.96,-69.12 1198.96,-63.88 1204.21,-58.62 1209.46,-58.62"/>
</g>
<!-- n1&#45;&gt;n6 -->
<g id="edge1" class="edge">
<title>n1&#45;&gt;n6</title>
<path fill="none" stroke="#9aa8b8" stroke-width="7.2" d="M1107.45,-249.05C1129.11,-223.4 1167.54,-177.88 1197.9,-141.92"/>
<polygon fill="#9aa8b8" stroke="#9aa8b8" stroke-width="7.2" points="1200.17,-144.6 1201.07,-138.16 1194.88,-140.13 1200.17,-144.6"/>
</g>
<!-- n1&#45;&gt;out1 -->
<g id="edge26" class="edge">
<title>n1&#45;&gt;out1</title>
<path fill="none" stroke="#d19922" stroke-width="7.2" stroke-dasharray="5,2" d="M1094.43,-289.1C1113.87,-391.03 1201.82,-852.21 1232.21,-1011.61"/>
<polygon fill="#d19922" stroke="#d19922" stroke-width="7.2" points="1228.77,-1012.05 1233.2,-1016.81 1235.58,-1010.75 1228.77,-1012.05"/>
</g>
<!-- n1&#45;&gt;out8 -->
<g id="edge37" class="edge">
<title>n1&#45;&gt;out8</title>
<path fill="none" stroke="#d19922" stroke-width="7.2" stroke-dasharray="5,2" d="M1117.07,-269C1133.43,-269 1155.2,-269 1176.01,-269"/>
<polygon fill="#d19922" stroke="#d19922" stroke-width="7.2" points="1175.85,-272.47 1181.35,-269 1175.85,-265.54 1175.85,-272.47"/>
</g>
<!-- n2 -->
<g id="node3" class="node">
<title>n2</title>
<path fill="#fff0d5" stroke="#c47a1a" d="M668.91,-1300.2C668.91,-1300.2 557.94,-1300.2 557.94,-1300.2 551.94,-1300.2 545.94,-1294.2 545.94,-1288.2 545.94,-1288.2 545.94,-1261.8 545.94,-1261.8 545.94,-1255.8 551.94,-1249.8 557.94,-1249.8 557.94,-1249.8 668.91,-1249.8 668.91,-1249.8 674.91,-1249.8 680.91,-1255.8 680.91,-1261.8 680.91,-1261.8 680.91,-1288.2 680.91,-1288.2 680.91,-1294.2 674.91,-1300.2 668.91,-1300.2"/>
<text xml:space="preserve" text-anchor="start" x="579.3" y="-1281.65" font-family="Inter,Arial" font-weight="bold" font-size="13.00" fill="#172033">lazy_static</text>
<text xml:space="preserve" text-anchor="start" x="600.3" y="-1269.6" font-family="Inter,Arial" font-size="12.00" fill="#172033">1.5.0</text>
<text xml:space="preserve" text-anchor="start" x="555.3" y="-1258.55" font-family="Inter,Arial" font-size="11.00" fill="#172033">/vendor/lazy_static&#45;1.5.0</text>
</g>
<!-- out7 -->
<g id="node21" class="node">
<title>out7</title>
<polygon fill="#fff8e8" stroke="#d19922" points="833,-1297.2 737.03,-1297.2 737.03,-1252.8 839,-1252.8 839,-1291.2 833,-1297.2"/>
<polyline fill="none" stroke="#d19922" points="833,-1297.2 833,-1291.2"/>
<polyline fill="none" stroke="#d19922" points="839,-1291.2 833,-1291.2"/>
<text xml:space="preserve" text-anchor="start" x="746.39" y="-1281.5" font-family="Inter,Arial" font-size="10.00" fill="#614000">to spin&#45;v0.10.0.svg</text>
<text xml:space="preserve" text-anchor="start" x="777.89" y="-1271.5" font-family="Inter,Arial" font-weight="bold" font-size="10.00" fill="#614000">spin</text>
<text xml:space="preserve" text-anchor="start" x="774.52" y="-1261.5" font-family="Inter,Arial" font-size="10.00" fill="#614000">0.10.0</text>
</g>
<!-- n2&#45;&gt;out7 -->
<g id="edge36" class="edge">
<title>n2&#45;&gt;out7</title>
<path fill="none" stroke="#d19922" stroke-width="7.2" stroke-dasharray="5,2" d="M681.15,-1275C695.46,-1275 710.53,-1275 724.66,-1275"/>
<polygon fill="#d19922" stroke="#d19922" stroke-width="7.2" points="724.54,-1278.47 730.04,-1275 724.54,-1271.54 724.54,-1278.47"/>
</g>
<!-- n3&#45;&gt;n2 -->
<g id="edge2" class="edge">
<title>n3&#45;&gt;n2</title>
<path fill="none" stroke="#9aa8b8" stroke-width="7.2" d="M469.87,-691.21C483.39,-695.95 496.62,-703.13 505.94,-714 569.5,-788.11 527.81,-834.07 545.94,-930 567.12,-1042.1 592.84,-1174.55 605.16,-1237.78"/>
<polygon fill="#9aa8b8" stroke="#9aa8b8" stroke-width="7.2" points="601.69,-1238.11 606.15,-1242.85 608.5,-1236.79 601.69,-1238.11"/>
</g>
<!-- n3&#45;&gt;n4 -->
<g id="edge3" class="edge">
<title>n3&#45;&gt;n4</title>
<path fill="none" stroke="#9aa8b8" stroke-width="7.2" d="M469.82,-697.15C482.17,-701.66 494.87,-707.24 505.94,-714 526.87,-726.77 523.69,-741.7 545.94,-752 603.64,-778.71 677.18,-782.96 727.78,-781.94"/>
<polygon fill="#9aa8b8" stroke="#9aa8b8" stroke-width="7.2" points="727.66,-785.41 733.05,-781.79 727.46,-778.49 727.66,-785.41"/>
</g>
<!-- n5 -->
<g id="node6" class="node">
<title>n5</title>
<path fill="#f7f9fb" stroke="#8b9bb0" d="M637.41,-739.7C637.41,-739.7 589.44,-739.7 589.44,-739.7 583.44,-739.7 577.44,-733.7 577.44,-727.7 577.44,-727.7 577.44,-712.3 577.44,-712.3 577.44,-706.3 583.44,-700.3 589.44,-700.3 589.44,-700.3 637.41,-700.3 637.41,-700.3 643.41,-700.3 649.41,-706.3 649.41,-712.3 649.41,-712.3 649.41,-727.7 649.41,-727.7 649.41,-733.7 643.41,-739.7 637.41,-739.7"/>
<text xml:space="preserve" text-anchor="start" x="586.8" y="-721.15" font-family="Inter,Arial" font-weight="bold" font-size="13.00" fill="#172033">num&#45;iter</text>
<text xml:space="preserve" text-anchor="start" x="596.92" y="-709.1" font-family="Inter,Arial" font-size="12.00" fill="#172033">0.1.45</text>
</g>
<!-- n3&#45;&gt;n5 -->
<g id="edge4" class="edge">
<title>n3&#45;&gt;n5</title>
<path fill="none" stroke="#9aa8b8" stroke-width="7.2" d="M470.04,-692.69C500.08,-698.45 536.74,-705.48 565.34,-710.97"/>
<polygon fill="#9aa8b8" stroke="#9aa8b8" stroke-width="7.2" points="564.38,-714.31 570.43,-711.94 565.68,-707.51 564.38,-714.31"/>
</g>
<!-- n10 -->
<g id="node11" class="node">
<title>n10</title>
<path fill="#fff0d5" stroke="#c47a1a" d="M655.03,-917.2C655.03,-917.2 571.81,-917.2 571.81,-917.2 565.81,-917.2 559.81,-911.2 559.81,-905.2 559.81,-905.2 559.81,-878.8 559.81,-878.8 559.81,-872.8 565.81,-866.8 571.81,-866.8 571.81,-866.8 655.03,-866.8 655.03,-866.8 661.03,-866.8 667.03,-872.8 667.03,-878.8 667.03,-878.8 667.03,-905.2 667.03,-905.2 667.03,-911.2 661.03,-917.2 655.03,-917.2"/>
<text xml:space="preserve" text-anchor="start" x="598.8" y="-898.65" font-family="Inter,Arial" font-weight="bold" font-size="13.00" fill="#172033">rand</text>
<text xml:space="preserve" text-anchor="start" x="600.3" y="-886.6" font-family="Inter,Arial" font-size="12.00" fill="#172033">0.8.6</text>
<text xml:space="preserve" text-anchor="start" x="569.17" y="-875.55" font-family="Inter,Arial" font-size="11.00" fill="#172033">/vendor/rand&#45;0.8.6</text>
</g>
<!-- n3&#45;&gt;n10 -->
<g id="edge5" class="edge">
<title>n3&#45;&gt;n10</title>
<path fill="none" stroke="#9aa8b8" stroke-width="7.2" d="M469.96,-693.67C482.85,-698.37 495.76,-704.91 505.94,-714 536.48,-741.27 525.24,-761.67 545.94,-797 557.93,-817.47 572.98,-839.23 585.72,-856.75"/>
<polygon fill="#9aa8b8" stroke="#9aa8b8" stroke-width="7.2" points="582.86,-858.72 588.91,-861.1 588.45,-854.61 582.86,-858.72"/>
</g>
<!-- n3&#45;&gt;out0 -->
<g id="edge22" class="edge">
<title>n3&#45;&gt;out0</title>
<path fill="none" stroke="#d19922" stroke-width="7.2" stroke-dasharray="5,2" d="M469.91,-680.42C523.97,-679.55 608.33,-679.96 680.91,-688 759.41,-696.7 778.11,-705.53 855.13,-723 864.15,-725.05 873.59,-727.29 882.94,-729.58"/>
<polygon fill="#d19922" stroke="#d19922" stroke-width="7.2" points="881.96,-732.91 888.13,-730.86 883.62,-726.18 881.96,-732.91"/>
</g>
<!-- out2 -->
<g id="node16" class="node">
<title>out2</title>
<polygon fill="#fff8e8" stroke="#d19922" points="658.78,-624.2 562.06,-624.2 562.06,-579.8 664.78,-579.8 664.78,-618.2 658.78,-624.2"/>
<polyline fill="none" stroke="#d19922" points="658.78,-624.2 658.78,-618.2"/>
<polyline fill="none" stroke="#d19922" points="664.78,-618.2 658.78,-618.2"/>
<text xml:space="preserve" text-anchor="start" x="571.42" y="-608.5" font-family="Inter,Arial" font-size="10.00" fill="#614000">to hyper&#45;v1.9.0.svg</text>
<text xml:space="preserve" text-anchor="start" x="592.8" y="-598.5" font-family="Inter,Arial" font-weight="bold" font-size="10.00" fill="#614000">smallvec</text>
<text xml:space="preserve" text-anchor="start" x="599.92" y="-588.5" font-family="Inter,Arial" font-size="10.00" fill="#614000">1.15.2</text>
</g>
<!-- n3&#45;&gt;out2 -->
<g id="edge29" class="edge">
<title>n3&#45;&gt;out2</title>
<path fill="none" stroke="#d19922" stroke-width="7.2" stroke-dasharray="5,2" d="M464.32,-661.81C490.51,-651.24 522.82,-638.18 550.58,-626.98"/>
<polygon fill="#d19922" stroke="#d19922" stroke-width="7.2" points="551.7,-630.26 555.5,-624.99 549.1,-623.83 551.7,-630.26"/>
</g>
<!-- out3 -->
<g id="node17" class="node">
<title>out3</title>
<polygon fill="#fff8e8" stroke="#d19922" points="658.41,-555.2 562.44,-555.2 562.44,-510.8 664.41,-510.8 664.41,-549.2 658.41,-555.2"/>
<polyline fill="none" stroke="#d19922" points="658.41,-555.2 658.41,-549.2"/>
<polyline fill="none" stroke="#d19922" points="664.41,-549.2 658.41,-549.2"/>
<text xml:space="preserve" text-anchor="start" x="571.8" y="-539.5" font-family="Inter,Arial" font-size="10.00" fill="#614000">to libm&#45;v0.2.16.svg</text>
<text xml:space="preserve" text-anchor="start" x="602.92" y="-529.5" font-family="Inter,Arial" font-weight="bold" font-size="10.00" fill="#614000">libm</text>
<text xml:space="preserve" text-anchor="start" x="599.92" y="-519.5" font-family="Inter,Arial" font-size="10.00" fill="#614000">0.2.16</text>
</g>
<!-- n3&#45;&gt;out3 -->
<g id="edge30" class="edge">
<title>n3&#45;&gt;out3</title>
<path fill="none" stroke="#d19922" stroke-width="7.2" stroke-dasharray="5,2" d="M434.02,-662.01C458.69,-637.64 502.98,-596.1 545.94,-567 548.61,-565.19 551.4,-563.41 554.25,-561.67"/>
<polygon fill="#d19922" stroke="#d19922" stroke-width="7.2" points="555.89,-564.72 558.9,-558.96 552.41,-558.73 555.89,-564.72"/>
</g>
<!-- n3&#45;&gt;out8 -->
<g id="edge38" class="edge">
<title>n3&#45;&gt;out8</title>
<path fill="none" stroke="#d19922" stroke-width="7.2" stroke-dasharray="5,2" d="M422.03,-661.89C438.24,-622.66 479.9,-536.39 545.94,-498 639.07,-443.86 679.3,-473 787.02,-473 787.02,-473 787.02,-473 959.86,-473 1075.78,-473 1176.48,-358.84 1219.86,-301.32"/>
<polygon fill="#d19922" stroke="#d19922" stroke-width="7.2" points="1222.55,-303.52 1223.03,-297.04 1216.97,-299.4 1222.55,-303.52"/>
</g>
<!-- n4&#45;&gt;out0 -->
<g id="edge23" class="edge">
<title>n4&#45;&gt;out0</title>
<path fill="none" stroke="#d19922" stroke-width="7.2" stroke-dasharray="5,2" d="M836.5,-769.84C850.88,-767.37 867.04,-764.6 882.77,-761.9"/>
<polygon fill="#d19922" stroke="#d19922" stroke-width="7.2" points="883.18,-765.34 888.01,-761 882,-758.51 883.18,-765.34"/>
</g>
<!-- n5&#45;&gt;n4 -->
<g id="edge6" class="edge">
<title>n5&#45;&gt;n4</title>
<path fill="none" stroke="#9aa8b8" stroke-width="7.2" d="M649.77,-731.88C672.36,-739.47 702.22,-749.5 728.31,-758.27"/>
<polygon fill="#9aa8b8" stroke="#9aa8b8" stroke-width="7.2" points="726.89,-761.45 733.21,-759.92 729.1,-754.88 726.89,-761.45"/>
</g>
<!-- n5&#45;&gt;out0 -->
<g id="edge24" class="edge">
<title>n5&#45;&gt;out0</title>
<path fill="none" stroke="#d19922" stroke-width="7.2" stroke-dasharray="5,2" d="M649.89,-722.99C704.48,-727.6 810.37,-736.55 882.58,-742.64"/>
<polygon fill="#d19922" stroke="#d19922" stroke-width="7.2" points="882.26,-746.09 888.03,-743.1 882.84,-739.19 882.26,-746.09"/>
</g>
<!-- n7&#45;&gt;n1 -->
<g id="edge7" class="edge">
<title>n7&#45;&gt;n1</title>
<path fill="none" stroke="#9aa8b8" stroke-width="7.2" d="M442.11,-422.39C512.74,-422.63 704.23,-418.66 855.13,-373 927.17,-351.2 1006.25,-312.63 1051.4,-289.08"/>
<polygon fill="#9aa8b8" stroke="#9aa8b8" stroke-width="7.2" points="1052.9,-292.21 1056.15,-286.59 1049.67,-286.08 1052.9,-292.21"/>
</g>
<!-- n7&#45;&gt;n9 -->
<g id="edge8" class="edge">
<title>n7&#45;&gt;n9</title>
<path fill="none" stroke="#9aa8b8" stroke-width="7.2" d="M437.44,-402.05C472.69,-371.63 539.98,-313.53 580.07,-278.93"/>
<polygon fill="#9aa8b8" stroke="#9aa8b8" stroke-width="7.2" points="582.14,-281.72 584.04,-275.5 577.61,-276.47 582.14,-281.72"/>
</g>
<!-- n7&#45;&gt;n12 -->
<g id="edge9" class="edge">
<title>n7&#45;&gt;n12</title>
<path fill="none" stroke="#9aa8b8" stroke-width="7.2" d="M442.28,-417.42C533.15,-402.44 816.54,-354.96 855.13,-339 880.44,-328.54 905.89,-311.25 925.14,-296.47"/>
<polygon fill="#9aa8b8" stroke="#9aa8b8" stroke-width="7.2" points="927.11,-299.33 929.29,-293.2 922.83,-293.88 927.11,-299.33"/>
</g>
<!-- n8 -->
<g id="node9" class="node">
<title>n8</title>
<path fill="#f7f9fb" stroke="#8b9bb0" d="M804.5,-179.7C804.5,-179.7 771.53,-179.7 771.53,-179.7 765.53,-179.7 759.53,-173.7 759.53,-167.7 759.53,-167.7 759.53,-152.3 759.53,-152.3 759.53,-146.3 765.53,-140.3 771.53,-140.3 771.53,-140.3 804.5,-140.3 804.5,-140.3 810.5,-140.3 816.5,-146.3 816.5,-152.3 816.5,-152.3 816.5,-167.7 816.5,-167.7 816.5,-173.7 810.5,-179.7 804.5,-179.7"/>
<text xml:space="preserve" text-anchor="start" x="768.89" y="-161.15" font-family="Inter,Arial" font-weight="bold" font-size="13.00" fill="#172033">pkcs5</text>
<text xml:space="preserve" text-anchor="start" x="774.89" y="-149.1" font-family="Inter,Arial" font-size="12.00" fill="#172033">0.7.1</text>
</g>
<!-- n8&#45;&gt;n1 -->
<g id="edge10" class="edge">
<title>n8&#45;&gt;n1</title>
<path fill="none" stroke="#9aa8b8" stroke-width="7.2" d="M816.78,-167.85C860.97,-180.63 949.78,-207.5 1022.6,-237 1032.08,-240.84 1042.11,-245.42 1051.41,-249.9"/>
<polygon fill="#9aa8b8" stroke="#9aa8b8" stroke-width="7.2" points="1049.78,-252.96 1056.25,-252.28 1052.84,-246.74 1049.78,-252.96"/>
</g>
<!-- n8&#45;&gt;n12 -->
<g id="edge11" class="edge">
<title>n8&#45;&gt;n12</title>
<path fill="none" stroke="#9aa8b8" stroke-width="7.2" d="M816.93,-175.92C828.81,-182.84 842.75,-191.14 855.13,-199 877.53,-213.22 902.1,-229.92 921.6,-243.44"/>
<polygon fill="#9aa8b8" stroke="#9aa8b8" stroke-width="7.2" points="919.54,-246.23 926.03,-246.53 923.5,-240.54 919.54,-246.23"/>
</g>
<!-- n9&#45;&gt;n1 -->
<g id="edge12" class="edge">
<title>n9&#45;&gt;n1</title>
<path fill="none" stroke="#9aa8b8" stroke-width="7.2" d="M624.52,-230.99C640.43,-201.94 674.41,-149.25 720.91,-128 775.17,-103.21 796.3,-118.1 855.13,-128 932.81,-141.07 958.32,-140.48 1022.6,-186 1042.32,-199.96 1059.17,-221.42 1070.9,-239.03"/>
<polygon fill="#9aa8b8" stroke="#9aa8b8" stroke-width="7.2" points="1067.67,-240.41 1073.56,-243.17 1073.51,-236.67 1067.67,-240.41"/>
</g>
<!-- n9&#45;&gt;n8 -->
<g id="edge13" class="edge">
<title>n9&#45;&gt;n8</title>
<path fill="none" stroke="#9aa8b8" stroke-width="7.2" d="M642.16,-236.38C670.88,-221.23 716,-197.44 748.25,-180.44"/>
<polygon fill="#9aa8b8" stroke="#9aa8b8" stroke-width="7.2" points="749.85,-183.52 753.1,-177.89 746.62,-177.39 749.85,-183.52"/>
</g>
<!-- n9&#45;&gt;n12 -->
<g id="edge14" class="edge">
<title>n9&#45;&gt;n12</title>
<path fill="none" stroke="#9aa8b8" stroke-width="7.2" d="M642.24,-252.46C703.42,-255.66 849.79,-263.34 919.58,-266.99"/>
<polygon fill="#9aa8b8" stroke="#9aa8b8" stroke-width="7.2" points="919.27,-270.45 924.94,-267.27 919.63,-263.53 919.27,-270.45"/>
</g>
<!-- out4 -->
<g id="node18" class="node">
<title>out4</title>
<polygon fill="#fff8e8" stroke="#d19922" points="849.13,-908.2 720.91,-908.2 720.91,-863.8 855.13,-863.8 855.13,-902.2 849.13,-908.2"/>
<polyline fill="none" stroke="#d19922" points="849.13,-908.2 849.13,-902.2"/>
<polyline fill="none" stroke="#d19922" points="855.13,-902.2 849.13,-902.2"/>
<text xml:space="preserve" text-anchor="start" x="730.27" y="-892.5" font-family="Inter,Arial" font-size="10.00" fill="#614000">to rand_chacha&#45;v0.3.1.svg</text>
<text xml:space="preserve" text-anchor="start" x="758.39" y="-882.5" font-family="Inter,Arial" font-weight="bold" font-size="10.00" fill="#614000">rand_chacha</text>
<text xml:space="preserve" text-anchor="start" x="777.14" y="-872.5" font-family="Inter,Arial" font-size="10.00" fill="#614000">0.3.1</text>
</g>
<!-- n10&#45;&gt;out4 -->
<g id="edge31" class="edge">
<title>n10&#45;&gt;out4</title>
<path fill="none" stroke="#d19922" stroke-width="7.2" stroke-dasharray="5,2" d="M667.15,-890.17C680.18,-889.71 694.43,-889.22 708.4,-888.73"/>
<polygon fill="#d19922" stroke="#d19922" stroke-width="7.2" points="708.45,-892.2 713.83,-888.54 708.21,-885.27 708.45,-892.2"/>
</g>
<!-- n10&#45;&gt;out5 -->
<g id="edge32" class="edge">
<title>n10&#45;&gt;out5</title>
<path fill="none" stroke="#d19922" stroke-width="7.2" stroke-dasharray="5,2" d="M653.16,-917.58C679.69,-935.11 714.93,-958.39 742.6,-976.66"/>
<polygon fill="#d19922" stroke="#d19922" stroke-width="7.2" points="740.66,-979.53 747.16,-979.67 744.48,-973.75 740.66,-979.53"/>
</g>
<!-- n11&#45;&gt;out1 -->
<g id="edge28" class="edge">
<title>n11&#45;&gt;out1</title>
<path fill="none" stroke="#d19922" stroke-width="7.2" stroke-dasharray="5,2" d="M453.32,-1122.66C520.95,-1135.27 664.53,-1159 787.02,-1159 787.02,-1159 787.02,-1159 959.86,-1159 1024.99,-1159 1094.51,-1136.46 1148.32,-1113.57"/>
<polygon fill="#d19922" stroke="#d19922" stroke-width="7.2" points="1149.7,-1116.75 1153.37,-1111.38 1146.94,-1110.39 1149.7,-1116.75"/>
</g>
<!-- n11&#45;&gt;out5 -->
<g id="edge34" class="edge">
<title>n11&#45;&gt;out5</title>
<path fill="none" stroke="#d19922" stroke-width="7.2" stroke-dasharray="5,2" d="M453.51,-1103.54C515.55,-1085.4 637.34,-1049.78 715.32,-1026.97"/>
<polygon fill="#d19922" stroke="#d19922" stroke-width="7.2" points="716.18,-1030.33 720.49,-1025.46 714.23,-1023.68 716.18,-1030.33"/>
</g>
<!-- n12&#45;&gt;n1 -->
<g id="edge21" class="edge">
<title>n12&#45;&gt;n1</title>
<path fill="none" stroke="#9aa8b8" stroke-width="7.2" d="M986.23,-269C1004.62,-269 1029.47,-269 1050.08,-269"/>
<polygon fill="#9aa8b8" stroke="#9aa8b8" stroke-width="7.2" points="1050.02,-272.47 1055.52,-269 1050.02,-265.54 1050.02,-272.47"/>
</g>
<!-- in9 -->
<g id="node23" class="node">
<title>in9</title>
<polygon fill="#eef6ff" stroke="#4b8fc5" points="180.72,-508.2 0,-508.2 0,-363.8 186.72,-363.8 186.72,-502.2 180.72,-508.2"/>
<polyline fill="none" stroke="#4b8fc5" points="180.72,-508.2 180.72,-502.2"/>
<polyline fill="none" stroke="#4b8fc5" points="186.72,-502.2 180.72,-502.2"/>
<text xml:space="preserve" text-anchor="start" x="9.36" y="-492.5" font-family="Inter,Arial" font-size="10.00" fill="#123d5c">from rustls&#45;rustcrypto&#45;v0.0.2&#45;alpha.svg</text>
<text xml:space="preserve" text-anchor="start" x="85.86" y="-482.5" font-family="Inter,Arial" font-weight="bold" font-size="10.00" fill="#123d5c">der</text>
<text xml:space="preserve" text-anchor="start" x="79.86" y="-472.5" font-family="Inter,Arial" font-size="10.00" fill="#123d5c">0.7.10</text>
<text xml:space="preserve" text-anchor="start" x="71.61" y="-462.5" font-family="Inter,Arial" font-weight="bold" font-size="10.00" fill="#123d5c">signature</text>
<text xml:space="preserve" text-anchor="start" x="82.48" y="-452.5" font-family="Inter,Arial" font-size="10.00" fill="#123d5c">2.2.0</text>
<text xml:space="preserve" text-anchor="start" x="83.61" y="-442.5" font-family="Inter,Arial" font-weight="bold" font-size="10.00" fill="#123d5c">spki</text>
<text xml:space="preserve" text-anchor="start" x="82.48" y="-432.5" font-family="Inter,Arial" font-size="10.00" fill="#123d5c">0.7.3</text>
<text xml:space="preserve" text-anchor="start" x="79.86" y="-422.5" font-family="Inter,Arial" font-weight="bold" font-size="10.00" fill="#123d5c">pkcs8</text>
<text xml:space="preserve" text-anchor="start" x="79.86" y="-412.5" font-family="Inter,Arial" font-size="10.00" fill="#123d5c">0.10.2</text>
<text xml:space="preserve" text-anchor="start" x="65.23" y="-402.5" font-family="Inter,Arial" font-weight="bold" font-size="10.00" fill="#123d5c">pem&#45;rfc7468</text>
<text xml:space="preserve" text-anchor="start" x="82.48" y="-392.5" font-family="Inter,Arial" font-size="10.00" fill="#123d5c">0.7.0</text>
<text xml:space="preserve" text-anchor="start" x="86.23" y="-382.5" font-family="Inter,Arial" font-weight="bold" font-size="10.00" fill="#123d5c">rsa</text>
<text xml:space="preserve" text-anchor="start" x="79.86" y="-372.5" font-family="Inter,Arial" font-size="10.00" fill="#123d5c">0.9.10</text>
</g>
<!-- in9&#45;&gt;n0 -->
<g id="edge43" class="edge">
<title>in9&#45;&gt;n0</title>
<path fill="none" stroke="#4b8fc5" stroke-width="7.2" stroke-dasharray="5,2" d="M135.55,-508.58C167.96,-565.66 211.48,-642.35 235.32,-684.34"/>
<polygon fill="#4b8fc5" stroke="#4b8fc5" stroke-width="7.2" points="232.29,-686.03 238.02,-689.1 238.32,-682.6 232.29,-686.03"/>
</g>
<!-- in9&#45;&gt;n1 -->
<g id="edge40" class="edge">
<title>in9&#45;&gt;n1</title>
<path fill="none" stroke="#4b8fc5" stroke-width="7.2" stroke-dasharray="5,2" d="M102.51,-508.66C116.87,-619.98 152.5,-837.7 226.72,-1008 275.43,-1119.77 290.41,-1210 412.33,-1210 412.33,-1210 412.33,-1210 789.02,-1210 999.13,-1210 956.44,-998.42 1022.6,-799 1082.74,-617.72 1088.83,-385.04 1088.91,-301.03"/>
<polygon fill="#4b8fc5" stroke="#4b8fc5" stroke-width="7.2" points="1092.38,-301.1 1088.9,-295.61 1085.45,-301.12 1092.38,-301.1"/>
</g>
<!-- in9&#45;&gt;n6 -->
<g id="edge41" class="edge">
<title>in9&#45;&gt;n6</title>
<path fill="none" stroke="#4b8fc5" stroke-width="7.2" stroke-dasharray="5,2" d="M111.51,-363.51C145.63,-239.54 234.56,0 412.33,0 412.33,0 412.33,0 959.86,0 1035,0 1116.4,-28.95 1172.48,-53.83"/>
<polygon fill="#4b8fc5" stroke="#4b8fc5" stroke-width="7.2" points="1170.75,-56.86 1177.19,-55.96 1173.61,-50.54 1170.75,-56.86"/>
</g>
<!-- in9&#45;&gt;n9 -->
<g id="edge42" class="edge">
<title>in9&#45;&gt;n9</title>
<path fill="none" stroke="#4b8fc5" stroke-width="7.2" stroke-dasharray="5,2" d="M175.42,-363.35C216.13,-331.17 267.95,-296.3 320.72,-277 406.18,-245.75 514.71,-245.48 572.29,-248.16"/>
<polygon fill="#4b8fc5" stroke="#4b8fc5" stroke-width="7.2" points="572.03,-251.61 577.71,-248.44 572.4,-244.69 572.03,-251.61"/>
</g>
<!-- in9&#45;&gt;n11 -->
<g id="edge44" class="edge">
<title>in9&#45;&gt;n11</title>
<path fill="none" stroke="#4b8fc5" stroke-width="7.2" stroke-dasharray="5,2" d="M101.11,-508.63C116.85,-638.59 167.2,-912.57 320.72,-1076 331.85,-1087.85 347.16,-1096.25 362.08,-1102.15"/>
<polygon fill="#4b8fc5" stroke="#4b8fc5" stroke-width="7.2" points="360.64,-1105.31 366.98,-1103.9 362.98,-1098.79 360.64,-1105.31"/>
</g>
<!-- in9&#45;&gt;n12 -->
<g id="edge45" class="edge">
<title>in9&#45;&gt;n12</title>
<path fill="none" stroke="#4b8fc5" stroke-width="7.2" stroke-dasharray="5,2" d="M151.91,-363.37C173.7,-338.59 199.79,-311.89 226.72,-291 264.11,-261.99 275.42,-254.67 320.72,-241 539.49,-174.97 819.64,-233.61 920.01,-258.81"/>
<polygon fill="#4b8fc5" stroke="#4b8fc5" stroke-width="7.2" points="918.88,-262.1 925.07,-260.11 920.6,-255.39 918.88,-262.1"/>
</g>
<!-- in10 -->
<g id="node24" class="node">
<title>in10</title>
<polygon fill="#eef6ff" stroke="#4b8fc5" points="499.94,-1302.2 320.72,-1302.2 320.72,-1247.8 505.94,-1247.8 505.94,-1296.2 499.94,-1302.2"/>
<polyline fill="none" stroke="#4b8fc5" points="499.94,-1302.2 499.94,-1296.2"/>
<polyline fill="none" stroke="#4b8fc5" points="505.94,-1296.2 499.94,-1296.2"/>
<text xml:space="preserve" text-anchor="start" x="330.08" y="-1286.5" font-family="Inter,Arial" font-size="10.00" fill="#123d5c">from symphonia&#45;codec&#45;aac&#45;v0.5.5.svg</text>
<text xml:space="preserve" text-anchor="start" x="388.95" y="-1276.5" font-family="Inter,Arial" font-weight="bold" font-size="10.00" fill="#123d5c">lazy_static</text>
<text xml:space="preserve" text-anchor="start" x="402.45" y="-1266.5" font-family="Inter,Arial" font-size="10.00" fill="#123d5c">1.5.0</text>
<text xml:space="preserve" text-anchor="start" x="359.7" y="-1256.5" font-family="Inter,Arial" font-size="10.00" fill="#123d5c">/vendor/lazy_static&#45;1.5.0</text>
</g>
<!-- in10&#45;&gt;n2 -->
<g id="edge46" class="edge">
<title>in10&#45;&gt;n2</title>
<path fill="none" stroke="#4b8fc5" stroke-width="7.2" stroke-dasharray="5,2" d="M506.42,-1275C515.52,-1275 524.7,-1275 533.64,-1275"/>
<polygon fill="#4b8fc5" stroke="#4b8fc5" stroke-width="7.2" points="533.42,-1278.47 538.92,-1275 533.42,-1271.54 533.42,-1278.47"/>
</g>
<!-- in11 -->
<g id="node25" class="node">
<title>in11</title>
<polygon fill="#eef6ff" stroke="#4b8fc5" points="486.81,-1381.2 333.84,-1381.2 333.84,-1326.8 492.81,-1326.8 492.81,-1375.2 486.81,-1381.2"/>
<polyline fill="none" stroke="#4b8fc5" points="486.81,-1381.2 486.81,-1375.2"/>
<polyline fill="none" stroke="#4b8fc5" points="492.81,-1375.2 486.81,-1375.2"/>
<text xml:space="preserve" text-anchor="start" x="343.2" y="-1365.5" font-family="Inter,Arial" font-size="10.00" fill="#123d5c">from symphonia&#45;core&#45;v0.5.5.svg</text>
<text xml:space="preserve" text-anchor="start" x="388.95" y="-1355.5" font-family="Inter,Arial" font-weight="bold" font-size="10.00" fill="#123d5c">lazy_static</text>
<text xml:space="preserve" text-anchor="start" x="402.45" y="-1345.5" font-family="Inter,Arial" font-size="10.00" fill="#123d5c">1.5.0</text>
<text xml:space="preserve" text-anchor="start" x="359.7" y="-1335.5" font-family="Inter,Arial" font-size="10.00" fill="#123d5c">/vendor/lazy_static&#45;1.5.0</text>
</g>
<!-- in11&#45;&gt;n2 -->
<g id="edge47" class="edge">
<title>in11&#45;&gt;n2</title>
<path fill="none" stroke="#4b8fc5" stroke-width="7.2" stroke-dasharray="5,2" d="M483.61,-1326.37C500.82,-1319.51 519.35,-1312.12 536.84,-1305.14"/>
<polygon fill="#4b8fc5" stroke="#4b8fc5" stroke-width="7.2" points="538.06,-1308.39 541.89,-1303.13 535.49,-1301.95 538.06,-1308.39"/>
</g>
</g>
</svg>
