<?xml version="1.0" encoding="UTF-8" standalone="no"?>
<!DOCTYPE svg PUBLIC "-//W3C//DTD SVG 1.1//EN"
 "http://www.w3.org/Graphics/SVG/1.1/DTD/svg11.dtd">
<!-- Generated by graphviz version 14.1.2 (0)
 -->
<!-- Title: rsa&#45;v0.9.10 Pages: 1 -->
<svg width="1286pt" height="1343pt"
 viewBox="0.00 0.00 1286.00 1343.00" xmlns="http://www.w3.org/2000/svg" xmlns:xlink="http://www.w3.org/1999/xlink">
<g id="graph0" class="graph" transform="scale(1 1) rotate(0) translate(4 1338.6)">
<title>rsa&#45;v0.9.10</title>
<polygon fill="white" stroke="none" points="-4,4 -4,-1338.6 1282.37,-1338.6 1282.37,4 -4,4"/>
<!-- n0 -->
<g id="node1" class="node">
<title>n0</title>
<path fill="#dff3ff" stroke="#1b78a6" d="M261.52,-716C261.52,-716 231.52,-716 231.52,-716 225.52,-716 219.52,-710 219.52,-704 219.52,-704 219.52,-692 219.52,-692 219.52,-686 225.52,-680 231.52,-680 231.52,-680 261.52,-680 261.52,-680 267.52,-680 273.52,-686 273.52,-692 273.52,-692 273.52,-704 273.52,-704 273.52,-710 267.52,-716 261.52,-716"/>
<text xml:space="preserve" text-anchor="start" x="239.39" y="-699.5" font-family="Inter,Arial" font-weight="bold" font-size="10.00" fill="#172033">rsa</text>
<text xml:space="preserve" text-anchor="start" x="233.02" y="-689.5" font-family="Inter,Arial" font-size="10.00" fill="#172033">0.9.10</text>
</g>
<!-- n3 -->
<g id="node4" class="node">
<title>n3</title>
<path fill="#f7f9fb" stroke="#8b9bb0" d="M430.79,-685C430.79,-685 374.27,-685 374.27,-685 368.27,-685 362.27,-679 362.27,-673 362.27,-673 362.27,-661 362.27,-661 362.27,-655 368.27,-649 374.27,-649 374.27,-649 430.79,-649 430.79,-649 436.79,-649 442.79,-655 442.79,-661 442.79,-661 442.79,-673 442.79,-673 442.79,-679 436.79,-685 430.79,-685"/>
<text xml:space="preserve" text-anchor="start" x="368.03" y="-668.5" font-family="Inter,Arial" font-weight="bold" font-size="10.00" fill="#172033">num&#45;bigint&#45;dig</text>
<text xml:space="preserve" text-anchor="start" x="391.65" y="-658.5" font-family="Inter,Arial" font-size="10.00" fill="#172033">0.8.6</text>
</g>
<!-- n0&#45;&gt;n3 -->
<g id="edge15" class="edge">
<title>n0&#45;&gt;n3</title>
<path fill="none" stroke="#9aa8b8" stroke-width="0.9" d="M274,-692.67C296.27,-688.19 328.66,-681.67 355.21,-676.32"/>
<polygon fill="#9aa8b8" stroke="#9aa8b8" stroke-width="0.9" points="355.48,-678.23 360.5,-675.26 354.72,-674.46 355.48,-678.23"/>
</g>
<!-- n4 -->
<g id="node5" class="node">
<title>n4</title>
<path fill="#f7f9fb" stroke="#8b9bb0" d="M775.7,-775C775.7,-775 731.93,-775 731.93,-775 725.93,-775 719.93,-769 719.93,-763 719.93,-763 719.93,-751 719.93,-751 719.93,-745 725.93,-739 731.93,-739 731.93,-739 775.7,-739 775.7,-739 781.7,-739 787.7,-745 787.7,-751 787.7,-751 787.7,-763 787.7,-763 787.7,-769 781.7,-775 775.7,-775"/>
<text xml:space="preserve" text-anchor="start" x="725.69" y="-758.5" font-family="Inter,Arial" font-weight="bold" font-size="10.00" fill="#172033">num&#45;integer</text>
<text xml:space="preserve" text-anchor="start" x="740.32" y="-748.5" font-family="Inter,Arial" font-size="10.00" fill="#172033">0.1.46</text>
</g>
<!-- n0&#45;&gt;n4 -->
<g id="edge16" class="edge">
<title>n0&#45;&gt;n4</title>
<path fill="none" stroke="#9aa8b8" stroke-width="0.9" d="M260.62,-716.22C272.52,-731.09 291.53,-751.06 313.52,-760 451.13,-815.96 633.64,-785.03 713.07,-767.04"/>
<polygon fill="#9aa8b8" stroke="#9aa8b8" stroke-width="0.9" points="713.27,-768.97 718.19,-765.86 712.4,-765.21 713.27,-768.97"/>
</g>
<!-- n7 -->
<g id="node8" class="node">
<title>n7</title>
<path fill="#f7f9fb" stroke="#8b9bb0" d="M417.53,-436C417.53,-436 387.53,-436 387.53,-436 381.53,-436 375.53,-430 375.53,-424 375.53,-424 375.53,-412 375.53,-412 375.53,-406 381.53,-400 387.53,-400 387.53,-400 417.53,-400 417.53,-400 423.53,-400 429.53,-406 429.53,-412 429.53,-412 429.53,-424 429.53,-424 429.53,-430 423.53,-436 417.53,-436"/>
<text xml:space="preserve" text-anchor="start" x="389.03" y="-419.5" font-family="Inter,Arial" font-weight="bold" font-size="10.00" fill="#172033">pkcs1</text>
<text xml:space="preserve" text-anchor="start" x="391.65" y="-409.5" font-family="Inter,Arial" font-size="10.00" fill="#172033">0.7.5</text>
</g>
<!-- n0&#45;&gt;n7 -->
<g id="edge17" class="edge">
<title>n0&#45;&gt;n7</title>
<path fill="none" stroke="#9aa8b8" stroke-width="0.9" d="M257.63,-679.63C284.55,-630.68 358.02,-497.1 388.26,-442.13"/>
<polygon fill="#9aa8b8" stroke="#9aa8b8" stroke-width="0.9" points="389.77,-443.38 390.73,-437.63 386.39,-441.52 389.77,-443.38"/>
</g>
<!-- n9 -->
<g id="node10" class="node">
<title>n9</title>
<path fill="#f7f9fb" stroke="#8b9bb0" d="M605.92,-266C605.92,-266 575.92,-266 575.92,-266 569.92,-266 563.92,-260 563.92,-254 563.92,-254 563.92,-242 563.92,-242 563.92,-236 569.92,-230 575.92,-230 575.92,-230 605.92,-230 605.92,-230 611.92,-230 617.92,-236 617.92,-242 617.92,-242 617.92,-254 617.92,-254 617.92,-260 611.92,-266 605.92,-266"/>
<text xml:space="preserve" text-anchor="start" x="577.42" y="-249.5" font-family="Inter,Arial" font-weight="bold" font-size="10.00" fill="#172033">pkcs8</text>
<text xml:space="preserve" text-anchor="start" x="577.42" y="-239.5" font-family="Inter,Arial" font-size="10.00" fill="#172033">0.10.2</text>
</g>
<!-- n0&#45;&gt;n9 -->
<g id="edge18" class="edge">
<title>n0&#45;&gt;n9</title>
<path fill="none" stroke="#9aa8b8" stroke-width="0.9" d="M248.53,-679.83C252.49,-614.78 268.99,-394.62 313.52,-343 321.82,-333.37 486.59,-280.58 557.7,-258.12"/>
<polygon fill="#9aa8b8" stroke="#9aa8b8" stroke-width="0.9" points="557.91,-260.07 562.58,-256.58 556.76,-256.4 557.91,-260.07"/>
</g>
<!-- n11 -->
<g id="node12" class="node">
<title>n11</title>
<path fill="#f7f9fb" stroke="#8b9bb0" d="M418.04,-1098C418.04,-1098 387.02,-1098 387.02,-1098 381.02,-1098 375.02,-1092 375.02,-1086 375.02,-1086 375.02,-1074 375.02,-1074 375.02,-1068 381.02,-1062 387.02,-1062 387.02,-1062 418.04,-1062 418.04,-1062 424.04,-1062 430.04,-1068 430.04,-1074 430.04,-1074 430.04,-1086 430.04,-1086 430.04,-1092 424.04,-1098 418.04,-1098"/>
<text xml:space="preserve" text-anchor="start" x="380.78" y="-1081.5" font-family="Inter,Arial" font-weight="bold" font-size="10.00" fill="#172033">signature</text>
<text xml:space="preserve" text-anchor="start" x="391.65" y="-1071.5" font-family="Inter,Arial" font-size="10.00" fill="#172033">2.2.0</text>
</g>
<!-- n0&#45;&gt;n11 -->
<g id="edge19" class="edge">
<title>n0&#45;&gt;n11</title>
<path fill="none" stroke="#9aa8b8" stroke-width="0.9" d="M250.52,-716.25C262,-785.66 302.99,-1030 313.52,-1043 327.11,-1059.78 349.66,-1069.06 368.53,-1074.13"/>
<polygon fill="#9aa8b8" stroke="#9aa8b8" stroke-width="0.9" points="367.65,-1075.9 373.45,-1075.37 368.58,-1072.16 367.65,-1075.9"/>
</g>
<!-- n12 -->
<g id="node13" class="node">
<title>n12</title>
<path fill="#f7f9fb" stroke="#8b9bb0" d="M932.46,-283C932.46,-283 902.46,-283 902.46,-283 896.46,-283 890.46,-277 890.46,-271 890.46,-271 890.46,-259 890.46,-259 890.46,-253 896.46,-247 902.46,-247 902.46,-247 932.46,-247 932.46,-247 938.46,-247 944.46,-253 944.46,-259 944.46,-259 944.46,-271 944.46,-271 944.46,-277 938.46,-283 932.46,-283"/>
<text xml:space="preserve" text-anchor="start" x="907.71" y="-266.5" font-family="Inter,Arial" font-weight="bold" font-size="10.00" fill="#172033">spki</text>
<text xml:space="preserve" text-anchor="start" x="906.59" y="-256.5" font-family="Inter,Arial" font-size="10.00" fill="#172033">0.7.3</text>
</g>
<!-- n0&#45;&gt;n12 -->
<g id="edge20" class="edge">
<title>n0&#45;&gt;n12</title>
<path fill="none" stroke="#9aa8b8" stroke-width="0.9" d="M248.82,-679.9C253.51,-620 271.51,-429.65 313.52,-388 354.89,-346.98 763.5,-286.57 883.5,-269.59"/>
<polygon fill="#9aa8b8" stroke="#9aa8b8" stroke-width="0.9" points="883.46,-271.54 888.64,-268.86 882.92,-267.72 883.46,-271.54"/>
</g>
<!-- out0 -->
<g id="node14" class="node">
<title>out0</title>
<polygon fill="#fff8e8" stroke="#d19922" points="971.6,-762.6 857.33,-762.6 857.33,-695.4 977.6,-695.4 977.6,-756.6 971.6,-762.6"/>
<polyline fill="none" stroke="#d19922" points="971.6,-762.6 971.6,-756.6"/>
<polyline fill="none" stroke="#d19922" points="977.6,-756.6 971.6,-756.6"/>
<text xml:space="preserve" text-anchor="start" x="868.71" y="-750.5" font-family="Inter,Arial" font-size="10.00" fill="#614000">to crab&#45;usb&#45;v0.9.1.svg</text>
<text xml:space="preserve" text-anchor="start" x="893.84" y="-740.5" font-family="Inter,Arial" font-weight="bold" font-size="10.00" fill="#614000">num&#45;traits</text>
<text xml:space="preserve" text-anchor="start" x="903.96" y="-730.5" font-family="Inter,Arial" font-size="10.00" fill="#614000">0.2.19</text>
<text xml:space="preserve" text-anchor="start" x="863.09" y="-720.5" font-family="Inter,Arial" font-size="10.00" fill="#614000">/vendor/num&#45;traits&#45;0.2.19</text>
<text xml:space="preserve" text-anchor="start" x="900.21" y="-710.5" font-family="Inter,Arial" font-weight="bold" font-size="10.00" fill="#614000">autocfg</text>
<text xml:space="preserve" text-anchor="start" x="906.59" y="-700.5" font-family="Inter,Arial" font-size="10.00" fill="#614000">1.5.0</text>
</g>
<!-- n0&#45;&gt;out0 -->
<g id="edge25" class="edge">
<title>n0&#45;&gt;out0</title>
<path fill="none" stroke="#d19922" stroke-width="0.9" stroke-dasharray="5,2" d="M256.11,-716.28C266.92,-737.59 287.27,-772.73 313.52,-795 394.95,-864.09 427.25,-873.02 531.54,-896 567.06,-903.83 815.4,-891.12 817.33,-890 862.7,-863.58 890.07,-807.32 904.23,-768.83"/>
<polygon fill="#d19922" stroke="#d19922" stroke-width="0.9" points="905.88,-769.92 905.93,-764.09 902.26,-768.62 905.88,-769.92"/>
</g>
<!-- out1 -->
<g id="node15" class="node">
<title>out1</title>
<polygon fill="#fff8e8" stroke="#d19922" points="1272.37,-1068.6 1111.6,-1068.6 1111.6,-991.4 1278.37,-991.4 1278.37,-1062.6 1272.37,-1068.6"/>
<polyline fill="none" stroke="#d19922" points="1272.37,-1068.6 1272.37,-1062.6"/>
<polyline fill="none" stroke="#d19922" points="1278.37,-1062.6 1272.37,-1062.6"/>
<text xml:space="preserve" text-anchor="start" x="1117.36" y="-1056.5" font-family="Inter,Arial" font-size="10.00" fill="#614000">to embedded&#45;websocket&#45;v0.9.4.svg</text>
<text xml:space="preserve" text-anchor="start" x="1173.23" y="-1046.5" font-family="Inter,Arial" font-weight="bold" font-size="10.00" fill="#614000">const&#45;oid</text>
<text xml:space="preserve" text-anchor="start" x="1184.11" y="-1036.5" font-family="Inter,Arial" font-size="10.00" fill="#614000">0.9.6</text>
<text xml:space="preserve" text-anchor="start" x="1180.73" y="-1026.5" font-family="Inter,Arial" font-weight="bold" font-size="10.00" fill="#614000">digest</text>
<text xml:space="preserve" text-anchor="start" x="1181.48" y="-1016.5" font-family="Inter,Arial" font-size="10.00" fill="#614000">0.10.7</text>
<text xml:space="preserve" text-anchor="start" x="1180.73" y="-1006.5" font-family="Inter,Arial" font-weight="bold" font-size="10.00" fill="#614000">subtle</text>
<text xml:space="preserve" text-anchor="start" x="1184.11" y="-996.5" font-family="Inter,Arial" font-size="10.00" fill="#614000">2.6.1</text>
</g>
<!-- n0&#45;&gt;out1 -->
<g id="edge27" class="edge">
<title>n0&#45;&gt;out1</title>
<path fill="none" stroke="#d19922" stroke-width="0.9" stroke-dasharray="5,2" d="M249.07,-716.16C254.3,-772.71 273.25,-943.98 313.52,-979 429.4,-1079.78 904.28,-1053.93 1104.4,-1038.03"/>
<polygon fill="#d19922" stroke="#d19922" stroke-width="0.9" points="1104.43,-1039.96 1109.76,-1037.6 1104.12,-1036.12 1104.43,-1039.96"/>
</g>
<!-- out5 -->
<g id="node19" class="node">
<title>out5</title>
<polygon fill="#fff8e8" stroke="#d19922" points="804.95,-991.6 696.68,-991.6 696.68,-954.4 810.95,-954.4 810.95,-985.6 804.95,-991.6"/>
<polyline fill="none" stroke="#d19922" points="804.95,-991.6 804.95,-985.6"/>
<polyline fill="none" stroke="#d19922" points="810.95,-985.6 804.95,-985.6"/>
<text xml:space="preserve" text-anchor="start" x="702.44" y="-979.5" font-family="Inter,Arial" font-size="10.00" fill="#614000">to rand_core&#45;v0.6.4.svg</text>
<text xml:space="preserve" text-anchor="start" x="730.57" y="-969.5" font-family="Inter,Arial" font-weight="bold" font-size="10.00" fill="#614000">rand_core</text>
<text xml:space="preserve" text-anchor="start" x="742.94" y="-959.5" font-family="Inter,Arial" font-size="10.00" fill="#614000">0.6.4</text>
</g>
<!-- n0&#45;&gt;out5 -->
<g id="edge33" class="edge">
<title>n0&#45;&gt;out5</title>
<path fill="none" stroke="#d19922" stroke-width="0.9" stroke-dasharray="5,2" d="M249.76,-716.26C256.48,-767.68 278.18,-911.88 313.52,-941 369.3,-986.96 582.25,-982.49 689.83,-977.01"/>
<polygon fill="#d19922" stroke="#d19922" stroke-width="0.9" points="689.69,-978.95 695.09,-976.74 689.49,-975.1 689.69,-978.95"/>
</g>
<!-- out6 -->
<g id="node20" class="node">
<title>out6</title>
<polygon fill="#fff8e8" stroke="#d19922" points="445.41,-747.6 353.64,-747.6 353.64,-710.4 451.41,-710.4 451.41,-741.6 445.41,-747.6"/>
<polyline fill="none" stroke="#d19922" points="445.41,-747.6 445.41,-741.6"/>
<polyline fill="none" stroke="#d19922" points="451.41,-741.6 445.41,-741.6"/>
<text xml:space="preserve" text-anchor="start" x="359.4" y="-735.5" font-family="Inter,Arial" font-size="10.00" fill="#614000">to sha2&#45;v0.10.9.svg</text>
<text xml:space="preserve" text-anchor="start" x="391.65" y="-725.5" font-family="Inter,Arial" font-weight="bold" font-size="10.00" fill="#614000">sha2</text>
<text xml:space="preserve" text-anchor="start" x="389.03" y="-715.5" font-family="Inter,Arial" font-size="10.00" fill="#614000">0.10.9</text>
</g>
<!-- n0&#45;&gt;out6 -->
<g id="edge35" class="edge">
<title>n0&#45;&gt;out6</title>
<path fill="none" stroke="#d19922" stroke-width="0.9" stroke-dasharray="5,2" d="M274,-703.33C293.97,-707.35 322.06,-713 346.8,-717.98"/>
<polygon fill="#d19922" stroke="#d19922" stroke-width="0.9" points="346.24,-719.83 352.01,-719.03 347,-716.06 346.24,-719.83"/>
</g>
<!-- out8 -->
<g id="node22" class="node">
<title>out8</title>
<polygon fill="#fff8e8" stroke="#d19922" points="1240.49,-283.6 1143.47,-283.6 1143.47,-246.4 1246.49,-246.4 1246.49,-277.6 1240.49,-283.6"/>
<polyline fill="none" stroke="#d19922" points="1240.49,-283.6 1240.49,-277.6"/>
<polyline fill="none" stroke="#d19922" points="1246.49,-277.6 1240.49,-277.6"/>
<text xml:space="preserve" text-anchor="start" x="1149.23" y="-271.5" font-family="Inter,Arial" font-size="10.00" fill="#614000">to zeroize&#45;v1.8.2.svg</text>
<text xml:space="preserve" text-anchor="start" x="1178.11" y="-261.5" font-family="Inter,Arial" font-weight="bold" font-size="10.00" fill="#614000">zeroize</text>
<text xml:space="preserve" text-anchor="start" x="1184.11" y="-251.5" font-family="Inter,Arial" font-size="10.00" fill="#614000">1.8.2</text>
</g>
<!-- n0&#45;&gt;out8 -->
<g id="edge39" class="edge">
<title>n0&#45;&gt;out8</title>
<path fill="none" stroke="#d19922" stroke-width="0.9" stroke-dasharray="5,2" d="M248.11,-679.69C250.8,-607.3 263.93,-341.76 313.52,-277 497.29,-36.98 693.02,-28.04 977.6,-130 1051.4,-156.44 1126.62,-210.88 1166,-241.95"/>
<polygon fill="#d19922" stroke="#d19922" stroke-width="0.9" points="1164.51,-243.22 1170.01,-245.14 1166.9,-240.21 1164.51,-243.22"/>
</g>
<!-- n1 -->
<g id="node2" class="node">
<title>n1</title>
<path fill="#f7f9fb" stroke="#8b9bb0" d="M1059.6,-283C1059.6,-283 1029.6,-283 1029.6,-283 1023.6,-283 1017.6,-277 1017.6,-271 1017.6,-271 1017.6,-259 1017.6,-259 1017.6,-253 1023.6,-247 1029.6,-247 1029.6,-247 1059.6,-247 1059.6,-247 1065.6,-247 1071.6,-253 1071.6,-259 1071.6,-259 1071.6,-271 1071.6,-271 1071.6,-277 1065.6,-283 1059.6,-283"/>
<text xml:space="preserve" text-anchor="start" x="1037.1" y="-266.5" font-family="Inter,Arial" font-weight="bold" font-size="10.00" fill="#172033">der</text>
<text xml:space="preserve" text-anchor="start" x="1031.1" y="-256.5" font-family="Inter,Arial" font-size="10.00" fill="#172033">0.7.10</text>
</g>
<!-- n6 -->
<g id="node7" class="node">
<title>n6</title>
<path fill="#f7f9fb" stroke="#8b9bb0" d="M1221.49,-123.47C1221.49,-123.47 1168.47,-123.47 1168.47,-123.47 1162.47,-123.47 1156.47,-117.47 1156.47,-111.47 1156.47,-111.47 1156.47,-84.53 1156.47,-84.53 1156.47,-78.53 1162.47,-72.53 1168.47,-72.53 1168.47,-72.53 1221.49,-72.53 1221.49,-72.53 1227.49,-72.53 1233.49,-78.53 1233.49,-84.53 1233.49,-84.53 1233.49,-111.47 1233.49,-111.47 1233.49,-117.47 1227.49,-123.47 1221.49,-123.47"/>
<text xml:space="preserve" text-anchor="start" x="1166.86" y="-111.38" font-family="Inter,Arial" font-weight="bold" font-size="10.00" fill="#172033">pem&#45;rfc7468</text>
<text xml:space="preserve" text-anchor="start" x="1184.11" y="-98.38" font-family="Inter,Arial" font-size="10.00" fill="#172033">0.7.0</text>
<text xml:space="preserve" text-anchor="start" x="1167.23" y="-84.28" font-family="Inter,Arial" font-weight="bold" font-size="8.00" fill="#172033">base64ct</text>
<text xml:space="preserve" text-anchor="start" x="1202.48" y="-84.28" font-family="Inter,Arial" font-size="8.00" fill="#172033"> 1.8.3</text>
<path fill="none" stroke="#9aa8b8" d="M1168.82,-76.12C1168.82,-76.12 1221.15,-76.12 1221.15,-76.12 1224.44,-76.12 1227.73,-79.42 1227.73,-82.71 1227.73,-82.71 1227.73,-89.29 1227.73,-89.29 1227.73,-92.58 1224.44,-95.88 1221.15,-95.88 1221.15,-95.88 1168.82,-95.88 1168.82,-95.88 1165.53,-95.88 1162.23,-92.58 1162.23,-89.29 1162.23,-89.29 1162.23,-82.71 1162.23,-82.71 1162.23,-79.42 1165.53,-76.12 1168.82,-76.12"/>
</g>
<!-- n1&#45;&gt;n6 -->
<g id="edge1" class="edge">
<title>n1&#45;&gt;n6</title>
<path fill="none" stroke="#9aa8b8" stroke-width="0.9" d="M1061.76,-246.81C1086.96,-218.45 1135.91,-163.36 1166.66,-128.75"/>
<polygon fill="#9aa8b8" stroke="#9aa8b8" stroke-width="0.9" points="1167.95,-130.2 1170.16,-124.81 1165.07,-127.65 1167.95,-130.2"/>
</g>
<!-- n1&#45;&gt;out1 -->
<g id="edge26" class="edge">
<title>n1&#45;&gt;out1</title>
<path fill="none" stroke="#d19922" stroke-width="0.9" stroke-dasharray="5,2" d="M1049.12,-283.16C1067.93,-380.14 1156.77,-838.16 1185.21,-984.75"/>
<polygon fill="#d19922" stroke="#d19922" stroke-width="0.9" points="1183.24,-984.71 1186.18,-989.75 1187.02,-983.98 1183.24,-984.71"/>
</g>
<!-- n1&#45;&gt;out8 -->
<g id="edge37" class="edge">
<title>n1&#45;&gt;out8</title>
<path fill="none" stroke="#d19922" stroke-width="0.9" stroke-dasharray="5,2" d="M1071.79,-265C1089.66,-265 1114.04,-265 1136.32,-265"/>
<polygon fill="#d19922" stroke="#d19922" stroke-width="0.9" points="1136.3,-266.93 1141.8,-265 1136.3,-263.08 1136.3,-266.93"/>
</g>
<!-- n2 -->
<g id="node3" class="node">
<title>n2</title>
<path fill="#fff0d5" stroke="#c47a1a" d="M638.31,-1257.6C638.31,-1257.6 543.54,-1257.6 543.54,-1257.6 537.54,-1257.6 531.54,-1251.6 531.54,-1245.6 531.54,-1245.6 531.54,-1232.4 531.54,-1232.4 531.54,-1226.4 537.54,-1220.4 543.54,-1220.4 543.54,-1220.4 638.31,-1220.4 638.31,-1220.4 644.31,-1220.4 650.31,-1226.4 650.31,-1232.4 650.31,-1232.4 650.31,-1245.6 650.31,-1245.6 650.31,-1251.6 644.31,-1257.6 638.31,-1257.6"/>
<text xml:space="preserve" text-anchor="start" x="566.55" y="-1245.5" font-family="Inter,Arial" font-weight="bold" font-size="10.00" fill="#172033">lazy_static</text>
<text xml:space="preserve" text-anchor="start" x="580.05" y="-1235.5" font-family="Inter,Arial" font-size="10.00" fill="#172033">1.5.0</text>
<text xml:space="preserve" text-anchor="start" x="537.3" y="-1225.5" font-family="Inter,Arial" font-size="10.00" fill="#172033">/vendor/lazy_static&#45;1.5.0</text>
</g>
<!-- out7 -->
<g id="node21" class="node">
<title>out7</title>
<polygon fill="#fff8e8" stroke="#d19922" points="795.2,-1257.6 706.43,-1257.6 706.43,-1220.4 801.2,-1220.4 801.2,-1251.6 795.2,-1257.6"/>
<polyline fill="none" stroke="#d19922" points="795.2,-1257.6 795.2,-1251.6"/>
<polyline fill="none" stroke="#d19922" points="801.2,-1251.6 795.2,-1251.6"/>
<text xml:space="preserve" text-anchor="start" x="712.19" y="-1245.5" font-family="Inter,Arial" font-size="10.00" fill="#614000">to spin&#45;v0.10.0.svg</text>
<text xml:space="preserve" text-anchor="start" x="743.69" y="-1235.5" font-family="Inter,Arial" font-weight="bold" font-size="10.00" fill="#614000">spin</text>
<text xml:space="preserve" text-anchor="start" x="740.32" y="-1225.5" font-family="Inter,Arial" font-size="10.00" fill="#614000">0.10.0</text>
</g>
<!-- n2&#45;&gt;out7 -->
<g id="edge36" class="edge">
<title>n2&#45;&gt;out7</title>
<path fill="none" stroke="#d19922" stroke-width="0.9" stroke-dasharray="5,2" d="M650.47,-1239C666.51,-1239 683.8,-1239 699.53,-1239"/>
<polygon fill="#d19922" stroke="#d19922" stroke-width="0.9" points="699.3,-1240.93 704.8,-1239 699.3,-1237.08 699.3,-1240.93"/>
</g>
<!-- n3&#45;&gt;n2 -->
<g id="edge2" class="edge">
<title>n3&#45;&gt;n2</title>
<path fill="none" stroke="#9aa8b8" stroke-width="0.9" d="M443.22,-671.95C460.47,-676.13 479.45,-683.82 491.54,-698 500.14,-708.08 567.88,-1107.96 585.66,-1213.62"/>
<polygon fill="#9aa8b8" stroke="#9aa8b8" stroke-width="0.9" points="583.73,-1213.69 586.54,-1218.8 587.52,-1213.06 583.73,-1213.69"/>
</g>
<!-- n3&#45;&gt;n4 -->
<g id="edge3" class="edge">
<title>n3&#45;&gt;n4</title>
<path fill="none" stroke="#9aa8b8" stroke-width="0.9" d="M442.99,-677.5C458.67,-682.53 476.51,-689.36 491.54,-698 511.77,-709.63 510.13,-722.73 531.54,-732 590.94,-757.71 667.27,-760.48 713,-759.33"/>
<polygon fill="#9aa8b8" stroke="#9aa8b8" stroke-width="0.9" points="712.99,-761.25 718.43,-759.16 712.87,-757.41 712.99,-761.25"/>
</g>
<!-- n5 -->
<g id="node6" class="node">
<title>n5</title>
<path fill="#f7f9fb" stroke="#8b9bb0" d="M605.92,-719C605.92,-719 575.92,-719 575.92,-719 569.92,-719 563.92,-713 563.92,-707 563.92,-707 563.92,-695 563.92,-695 563.92,-689 569.92,-683 575.92,-683 575.92,-683 605.92,-683 605.92,-683 611.92,-683 617.92,-689 617.92,-695 617.92,-695 617.92,-707 617.92,-707 617.92,-713 611.92,-719 605.92,-719"/>
<text xml:space="preserve" text-anchor="start" x="571.42" y="-702.5" font-family="Inter,Arial" font-weight="bold" font-size="10.00" fill="#172033">num&#45;iter</text>
<text xml:space="preserve" text-anchor="start" x="577.42" y="-692.5" font-family="Inter,Arial" font-size="10.00" fill="#172033">0.1.45</text>
</g>
<!-- n3&#45;&gt;n5 -->
<g id="edge4" class="edge">
<title>n3&#45;&gt;n5</title>
<path fill="none" stroke="#9aa8b8" stroke-width="0.9" d="M443.06,-674.21C476.98,-680.4 525.29,-689.21 557.11,-695.01"/>
<polygon fill="#9aa8b8" stroke="#9aa8b8" stroke-width="0.9" points="556.54,-696.87 562.3,-695.96 557.23,-693.08 556.54,-696.87"/>
</g>
<!-- n10 -->
<g id="node11" class="node">
<title>n10</title>
<path fill="#fff0d5" stroke="#c47a1a" d="M624.06,-883.6C624.06,-883.6 557.79,-883.6 557.79,-883.6 551.79,-883.6 545.79,-877.6 545.79,-871.6 545.79,-871.6 545.79,-858.4 545.79,-858.4 545.79,-852.4 551.79,-846.4 557.79,-846.4 557.79,-846.4 624.06,-846.4 624.06,-846.4 630.06,-846.4 636.06,-852.4 636.06,-858.4 636.06,-858.4 636.06,-871.6 636.06,-871.6 636.06,-877.6 630.06,-883.6 624.06,-883.6"/>
<text xml:space="preserve" text-anchor="start" x="580.42" y="-871.5" font-family="Inter,Arial" font-weight="bold" font-size="10.00" fill="#172033">rand</text>
<text xml:space="preserve" text-anchor="start" x="580.05" y="-861.5" font-family="Inter,Arial" font-size="10.00" fill="#172033">0.8.6</text>
<text xml:space="preserve" text-anchor="start" x="551.55" y="-851.5" font-family="Inter,Arial" font-size="10.00" fill="#172033">/vendor/rand&#45;0.8.6</text>
</g>
<!-- n3&#45;&gt;n10 -->
<g id="edge5" class="edge">
<title>n3&#45;&gt;n10</title>
<path fill="none" stroke="#9aa8b8" stroke-width="0.9" d="M443.21,-674.19C459.65,-678.77 478,-686.17 491.54,-698 520.89,-723.62 511.94,-742.33 531.54,-776 544.6,-798.43 560.91,-823.04 572.96,-840.69"/>
<polygon fill="#9aa8b8" stroke="#9aa8b8" stroke-width="0.9" points="571.09,-841.36 575.79,-844.81 574.27,-839.18 571.09,-841.36"/>
</g>
<!-- n3&#45;&gt;out0 -->
<g id="edge22" class="edge">
<title>n3&#45;&gt;out0</title>
<path fill="none" stroke="#d19922" stroke-width="0.9" stroke-dasharray="5,2" d="M442.98,-665.47C491.81,-664.08 577.45,-663.27 650.31,-671 725.55,-678.98 743.5,-687.41 817.33,-704 828.12,-706.42 839.52,-709.15 850.6,-711.88"/>
<polygon fill="#d19922" stroke="#d19922" stroke-width="0.9" points="849.96,-713.71 855.76,-713.16 850.89,-709.97 849.96,-713.71"/>
</g>
<!-- out2 -->
<g id="node16" class="node">
<title>out2</title>
<polygon fill="#fff8e8" stroke="#d19922" points="632.68,-606.6 543.16,-606.6 543.16,-569.4 638.68,-569.4 638.68,-600.6 632.68,-606.6"/>
<polyline fill="none" stroke="#d19922" points="632.68,-606.6 632.68,-600.6"/>
<polyline fill="none" stroke="#d19922" points="638.68,-600.6 632.68,-600.6"/>
<text xml:space="preserve" text-anchor="start" x="548.92" y="-594.5" font-family="Inter,Arial" font-size="10.00" fill="#614000">to hyper&#45;v1.9.0.svg</text>
<text xml:space="preserve" text-anchor="start" x="570.3" y="-584.5" font-family="Inter,Arial" font-weight="bold" font-size="10.00" fill="#614000">smallvec</text>
<text xml:space="preserve" text-anchor="start" x="577.42" y="-574.5" font-family="Inter,Arial" font-size="10.00" fill="#614000">1.15.1</text>
</g>
<!-- n3&#45;&gt;out2 -->
<g id="edge29" class="edge">
<title>n3&#45;&gt;out2</title>
<path fill="none" stroke="#d19922" stroke-width="0.9" stroke-dasharray="5,2" d="M443.06,-650.25C470.89,-638.45 508.42,-622.54 538.57,-609.77"/>
<polygon fill="#d19922" stroke="#d19922" stroke-width="0.9" points="539.32,-611.54 543.63,-607.62 537.82,-607.99 539.32,-611.54"/>
</g>
<!-- out3 -->
<g id="node17" class="node">
<title>out3</title>
<polygon fill="#fff8e8" stroke="#d19922" points="632.31,-544.6 543.54,-544.6 543.54,-507.4 638.31,-507.4 638.31,-538.6 632.31,-544.6"/>
<polyline fill="none" stroke="#d19922" points="632.31,-544.6 632.31,-538.6"/>
<polyline fill="none" stroke="#d19922" points="638.31,-538.6 632.31,-538.6"/>
<text xml:space="preserve" text-anchor="start" x="549.3" y="-532.5" font-family="Inter,Arial" font-size="10.00" fill="#614000">to libm&#45;v0.2.16.svg</text>
<text xml:space="preserve" text-anchor="start" x="580.42" y="-522.5" font-family="Inter,Arial" font-weight="bold" font-size="10.00" fill="#614000">libm</text>
<text xml:space="preserve" text-anchor="start" x="577.42" y="-512.5" font-family="Inter,Arial" font-size="10.00" fill="#614000">0.2.16</text>
</g>
<!-- n3&#45;&gt;out3 -->
<g id="edge30" class="edge">
<title>n3&#45;&gt;out3</title>
<path fill="none" stroke="#d19922" stroke-width="0.9" stroke-dasharray="5,2" d="M421.97,-648.82C445.93,-625.77 489.67,-585.58 531.54,-557 535.97,-553.98 540.72,-551.03 545.54,-548.22"/>
<polygon fill="#d19922" stroke="#d19922" stroke-width="0.9" points="546.2,-550.06 550.03,-545.67 544.29,-546.71 546.2,-550.06"/>
</g>
<!-- n3&#45;&gt;out8 -->
<g id="edge38" class="edge">
<title>n3&#45;&gt;out8</title>
<path fill="none" stroke="#d19922" stroke-width="0.9" stroke-dasharray="5,2" d="M411.17,-648.54C427.32,-612.1 468.69,-531.32 531.54,-495 617.28,-445.46 653.8,-469 752.82,-469 752.82,-469 752.82,-469 918.46,-469 1038.15,-469 1139.81,-343.12 1177.92,-289.13"/>
<polygon fill="#d19922" stroke="#d19922" stroke-width="0.9" points="1179.27,-290.56 1180.84,-284.94 1176.11,-288.35 1179.27,-290.56"/>
</g>
<!-- n4&#45;&gt;out0 -->
<g id="edge23" class="edge">
<title>n4&#45;&gt;out0</title>
<path fill="none" stroke="#d19922" stroke-width="0.9" stroke-dasharray="5,2" d="M787.92,-751.27C805.92,-748.15 828.83,-744.18 850.32,-740.46"/>
<polygon fill="#d19922" stroke="#d19922" stroke-width="0.9" points="850.5,-742.38 855.59,-739.54 849.84,-738.59 850.5,-742.38"/>
</g>
<!-- n5&#45;&gt;n4 -->
<g id="edge6" class="edge">
<title>n5&#45;&gt;n4</title>
<path fill="none" stroke="#9aa8b8" stroke-width="0.9" d="M618.13,-710.12C643.99,-719.12 683.83,-732.99 713.49,-743.31"/>
<polygon fill="#9aa8b8" stroke="#9aa8b8" stroke-width="0.9" points="712.54,-745.02 718.36,-745.01 713.8,-741.38 712.54,-745.02"/>
</g>
<!-- n5&#45;&gt;out0 -->
<g id="edge24" class="edge">
<title>n5&#45;&gt;out0</title>
<path fill="none" stroke="#d19922" stroke-width="0.9" stroke-dasharray="5,2" d="M618.21,-703.27C668.28,-707.59 778.71,-717.11 850.24,-723.29"/>
<polygon fill="#d19922" stroke="#d19922" stroke-width="0.9" points="850.03,-725.2 855.68,-723.76 850.37,-721.36 850.03,-725.2"/>
</g>
<!-- n7&#45;&gt;n1 -->
<g id="edge7" class="edge">
<title>n7&#45;&gt;n1</title>
<path fill="none" stroke="#9aa8b8" stroke-width="0.9" d="M429.92,-418.4C496.57,-418.67 676.39,-414.84 817.33,-370 889.46,-347.05 968.57,-306.5 1011.5,-283.07"/>
<polygon fill="#9aa8b8" stroke="#9aa8b8" stroke-width="0.9" points="1012.23,-284.87 1016.12,-280.54 1010.38,-281.49 1012.23,-284.87"/>
</g>
<!-- n7&#45;&gt;n9 -->
<g id="edge8" class="edge">
<title>n7&#45;&gt;n9</title>
<path fill="none" stroke="#9aa8b8" stroke-width="0.9" d="M423.48,-399.81C457.72,-368.57 527.61,-304.83 565,-270.73"/>
<polygon fill="#9aa8b8" stroke="#9aa8b8" stroke-width="0.9" points="566.07,-272.37 568.83,-267.24 563.47,-269.52 566.07,-272.37"/>
</g>
<!-- n7&#45;&gt;n12 -->
<g id="edge9" class="edge">
<title>n7&#45;&gt;n12</title>
<path fill="none" stroke="#9aa8b8" stroke-width="0.9" d="M429.96,-414.17C509.58,-402.39 746.07,-365.66 817.33,-335 844.57,-323.28 871.83,-303.28 890.85,-287.66"/>
<polygon fill="#9aa8b8" stroke="#9aa8b8" stroke-width="0.9" points="891.95,-289.25 894.94,-284.25 889.48,-286.29 891.95,-289.25"/>
</g>
<!-- n8 -->
<g id="node9" class="node">
<title>n8</title>
<path fill="#f7f9fb" stroke="#8b9bb0" d="M768.82,-176C768.82,-176 738.82,-176 738.82,-176 732.82,-176 726.82,-170 726.82,-164 726.82,-164 726.82,-152 726.82,-152 726.82,-146 732.82,-140 738.82,-140 738.82,-140 768.82,-140 768.82,-140 774.82,-140 780.82,-146 780.82,-152 780.82,-152 780.82,-164 780.82,-164 780.82,-170 774.82,-176 768.82,-176"/>
<text xml:space="preserve" text-anchor="start" x="740.32" y="-159.5" font-family="Inter,Arial" font-weight="bold" font-size="10.00" fill="#172033">pkcs5</text>
<text xml:space="preserve" text-anchor="start" x="742.94" y="-149.5" font-family="Inter,Arial" font-size="10.00" fill="#172033">0.7.1</text>
</g>
<!-- n8&#45;&gt;n1 -->
<g id="edge10" class="edge">
<title>n8&#45;&gt;n1</title>
<path fill="none" stroke="#9aa8b8" stroke-width="0.9" d="M781.18,-166.22C823.17,-179.52 907.67,-207.09 977.6,-235 988.64,-239.41 1000.52,-244.65 1011.12,-249.5"/>
<polygon fill="#9aa8b8" stroke="#9aa8b8" stroke-width="0.9" points="1010.15,-251.18 1015.95,-251.74 1011.77,-247.68 1010.15,-251.18"/>
</g>
<!-- n8&#45;&gt;n12 -->
<g id="edge11" class="edge">
<title>n8&#45;&gt;n12</title>
<path fill="none" stroke="#9aa8b8" stroke-width="0.9" d="M781.26,-173.02C792.51,-179.57 805.69,-187.46 817.33,-195 840.93,-210.28 866.87,-228.65 886.29,-242.74"/>
<polygon fill="#9aa8b8" stroke="#9aa8b8" stroke-width="0.9" points="884.9,-244.12 890.48,-245.79 887.17,-241 884.9,-244.12"/>
</g>
<!-- n9&#45;&gt;n1 -->
<g id="edge12" class="edge">
<title>n9&#45;&gt;n1</title>
<path fill="none" stroke="#9aa8b8" stroke-width="0.9" d="M600.26,-229.89C614.28,-201.92 645.5,-149.2 690.31,-128 741.34,-103.85 761.75,-118.1 817.33,-128 892.06,-141.32 915.41,-143.48 977.6,-187 998.23,-201.44 1016.27,-223.85 1028.26,-240.95"/>
<polygon fill="#9aa8b8" stroke="#9aa8b8" stroke-width="0.9" points="1026.61,-241.96 1031.31,-245.4 1029.79,-239.78 1026.61,-241.96"/>
</g>
<!-- n9&#45;&gt;n8 -->
<g id="edge13" class="edge">
<title>n9&#45;&gt;n8</title>
<path fill="none" stroke="#9aa8b8" stroke-width="0.9" d="M618.13,-233.34C646.1,-217.7 690.43,-192.9 720.53,-176.06"/>
<polygon fill="#9aa8b8" stroke="#9aa8b8" stroke-width="0.9" points="721.31,-177.83 725.17,-173.47 719.43,-174.47 721.31,-177.83"/>
</g>
<!-- n9&#45;&gt;n12 -->
<g id="edge14" class="edge">
<title>n9&#45;&gt;n12</title>
<path fill="none" stroke="#9aa8b8" stroke-width="0.9" d="M618.21,-249.38C677.03,-252.46 819.16,-259.9 883.66,-263.28"/>
<polygon fill="#9aa8b8" stroke="#9aa8b8" stroke-width="0.9" points="883.44,-265.2 889.03,-263.56 883.64,-261.35 883.44,-265.2"/>
</g>
<!-- out4 -->
<g id="node18" class="node">
<title>out4</title>
<polygon fill="#fff8e8" stroke="#d19922" points="811.33,-877.6 690.31,-877.6 690.31,-840.4 817.33,-840.4 817.33,-871.6 811.33,-877.6"/>
<polyline fill="none" stroke="#d19922" points="811.33,-877.6 811.33,-871.6"/>
<polyline fill="none" stroke="#d19922" points="817.33,-871.6 811.33,-871.6"/>
<text xml:space="preserve" text-anchor="start" x="696.07" y="-865.5" font-family="Inter,Arial" font-size="10.00" fill="#614000">to rand_chacha&#45;v0.3.1.svg</text>
<text xml:space="preserve" text-anchor="start" x="724.19" y="-855.5" font-family="Inter,Arial" font-weight="bold" font-size="10.00" fill="#614000">rand_chacha</text>
<text xml:space="preserve" text-anchor="start" x="742.94" y="-845.5" font-family="Inter,Arial" font-size="10.00" fill="#614000">0.3.1</text>
</g>
<!-- n10&#45;&gt;out4 -->
<g id="edge31" class="edge">
<title>n10&#45;&gt;out4</title>
<path fill="none" stroke="#d19922" stroke-width="0.9" stroke-dasharray="5,2" d="M636.32,-863.34C650.8,-862.8 667.26,-862.19 683.14,-861.6"/>
<polygon fill="#d19922" stroke="#d19922" stroke-width="0.9" points="683.12,-863.53 688.55,-861.4 682.98,-859.68 683.12,-863.53"/>
</g>
<!-- n10&#45;&gt;out5 -->
<g id="edge32" class="edge">
<title>n10&#45;&gt;out5</title>
<path fill="none" stroke="#d19922" stroke-width="0.9" stroke-dasharray="5,2" d="M620.32,-884.06C647.81,-902.51 689.5,-930.5 718.76,-950.14"/>
<polygon fill="#d19922" stroke="#d19922" stroke-width="0.9" points="717.67,-951.72 723.31,-953.19 719.81,-948.53 717.67,-951.72"/>
</g>
<!-- n11&#45;&gt;out1 -->
<g id="edge28" class="edge">
<title>n11&#45;&gt;out1</title>
<path fill="none" stroke="#d19922" stroke-width="0.9" stroke-dasharray="5,2" d="M430.1,-1085.92C488.28,-1098.34 631.41,-1126 752.82,-1126 752.82,-1126 752.82,-1126 918.46,-1126 988.7,-1126 1063.68,-1097.84 1117.66,-1072.02"/>
<polygon fill="#d19922" stroke="#d19922" stroke-width="0.9" points="1118.47,-1073.77 1122.58,-1069.64 1116.79,-1070.3 1118.47,-1073.77"/>
</g>
<!-- n11&#45;&gt;out5 -->
<g id="edge34" class="edge">
<title>n11&#45;&gt;out5</title>
<path fill="none" stroke="#d19922" stroke-width="0.9" stroke-dasharray="5,2" d="M430.36,-1071.78C485.52,-1054.88 612.94,-1015.85 690.07,-992.22"/>
<polygon fill="#d19922" stroke="#d19922" stroke-width="0.9" points="690.45,-994.12 695.15,-990.67 689.33,-990.44 690.45,-994.12"/>
</g>
<!-- n12&#45;&gt;n1 -->
<g id="edge21" class="edge">
<title>n12&#45;&gt;n1</title>
<path fill="none" stroke="#9aa8b8" stroke-width="0.9" d="M944.7,-265C963.89,-265 990.05,-265 1010.65,-265"/>
<polygon fill="#9aa8b8" stroke="#9aa8b8" stroke-width="0.9" points="1010.54,-266.93 1016.04,-265 1010.54,-263.08 1010.54,-266.93"/>
</g>
<!-- in9 -->
<g id="node23" class="node">
<title>in9</title>
<polygon fill="#eef6ff" stroke="#4b8fc5" points="173.52,-495.6 0,-495.6 0,-358.4 179.52,-358.4 179.52,-489.6 173.52,-495.6"/>
<polyline fill="none" stroke="#4b8fc5" points="173.52,-495.6 173.52,-489.6"/>
<polyline fill="none" stroke="#4b8fc5" points="179.52,-489.6 173.52,-489.6"/>
<text xml:space="preserve" text-anchor="start" x="5.76" y="-483.5" font-family="Inter,Arial" font-size="10.00" fill="#123d5c">from rustls&#45;rustcrypto&#45;v0.0.2&#45;alpha.svg</text>
<text xml:space="preserve" text-anchor="start" x="82.26" y="-473.5" font-family="Inter,Arial" font-weight="bold" font-size="10.00" fill="#123d5c">der</text>
<text xml:space="preserve" text-anchor="start" x="76.26" y="-463.5" font-family="Inter,Arial" font-size="10.00" fill="#123d5c">0.7.10</text>
<text xml:space="preserve" text-anchor="start" x="68.01" y="-453.5" font-family="Inter,Arial" font-weight="bold" font-size="10.00" fill="#123d5c">signature</text>
<text xml:space="preserve" text-anchor="start" x="78.88" y="-443.5" font-family="Inter,Arial" font-size="10.00" fill="#123d5c">2.2.0</text>
<text xml:space="preserve" text-anchor="start" x="80.01" y="-433.5" font-family="Inter,Arial" font-weight="bold" font-size="10.00" fill="#123d5c">spki</text>
<text xml:space="preserve" text-anchor="start" x="78.88" y="-423.5" font-family="Inter,Arial" font-size="10.00" fill="#123d5c">0.7.3</text>
<text xml:space="preserve" text-anchor="start" x="76.26" y="-413.5" font-family="Inter,Arial" font-weight="bold" font-size="10.00" fill="#123d5c">pkcs8</text>
<text xml:space="preserve" text-anchor="start" x="76.26" y="-403.5" font-family="Inter,Arial" font-size="10.00" fill="#123d5c">0.10.2</text>
<text xml:space="preserve" text-anchor="start" x="61.63" y="-393.5" font-family="Inter,Arial" font-weight="bold" font-size="10.00" fill="#123d5c">pem&#45;rfc7468</text>
<text xml:space="preserve" text-anchor="start" x="78.88" y="-383.5" font-family="Inter,Arial" font-size="10.00" fill="#123d5c">0.7.0</text>
<text xml:space="preserve" text-anchor="start" x="82.63" y="-373.5" font-family="Inter,Arial" font-weight="bold" font-size="10.00" fill="#123d5c">rsa</text>
<text xml:space="preserve" text-anchor="start" x="76.26" y="-363.5" font-family="Inter,Arial" font-size="10.00" fill="#123d5c">0.9.10</text>
</g>
<!-- in9&#45;&gt;n0 -->
<g id="edge43" class="edge">
<title>in9&#45;&gt;n0</title>
<path fill="none" stroke="#4b8fc5" stroke-width="0.9" stroke-dasharray="5,2" d="M130.21,-496.09C163.59,-554.53 209.47,-634.87 231.97,-674.26"/>
<polygon fill="#4b8fc5" stroke="#4b8fc5" stroke-width="0.9" points="230.04,-674.77 234.44,-678.59 233.38,-672.86 230.04,-674.77"/>
</g>
<!-- in9&#45;&gt;n1 -->
<g id="edge40" class="edge">
<title>in9&#45;&gt;n1</title>
<path fill="none" stroke="#4b8fc5" stroke-width="0.9" stroke-dasharray="5,2" d="M99.12,-495.92C113.67,-601.51 149.07,-808.09 219.52,-970 268.4,-1082.33 279.02,-1177 401.53,-1177 401.53,-1177 401.53,-1177 754.82,-1177 959.09,-1177 913.85,-969.07 977.6,-775 1036.44,-595.87 1043.12,-365.21 1043.65,-289.94"/>
<polygon fill="#4b8fc5" stroke="#4b8fc5" stroke-width="0.9" points="1045.57,-290.02 1043.68,-284.51 1041.72,-290.01 1045.57,-290.02"/>
</g>
<!-- in9&#45;&gt;n6 -->
<g id="edge41" class="edge">
<title>in9&#45;&gt;n6</title>
<path fill="none" stroke="#4b8fc5" stroke-width="0.9" stroke-dasharray="5,2" d="M106.95,-357.92C139.84,-237.07 226.64,0 401.53,0 401.53,0 401.53,0 918.46,0 1004.5,0 1097.37,-42.95 1150.32,-71.98"/>
<polygon fill="#4b8fc5" stroke="#4b8fc5" stroke-width="0.9" points="1149.32,-73.63 1155.07,-74.61 1151.19,-70.26 1149.32,-73.63"/>
</g>
<!-- in9&#45;&gt;n9 -->
<g id="edge42" class="edge">
<title>in9&#45;&gt;n9</title>
<path fill="none" stroke="#4b8fc5" stroke-width="0.9" stroke-dasharray="5,2" d="M169.79,-358C210.08,-326.85 261.47,-292.87 313.52,-274 397,-243.73 503.47,-243.56 556.61,-245.85"/>
<polygon fill="#4b8fc5" stroke="#4b8fc5" stroke-width="0.9" points="556.5,-247.77 562.08,-246.1 556.68,-243.92 556.5,-247.77"/>
</g>
<!-- in9&#45;&gt;n11 -->
<g id="edge44" class="edge">
<title>in9&#45;&gt;n11</title>
<path fill="none" stroke="#4b8fc5" stroke-width="0.9" stroke-dasharray="5,2" d="M97.67,-496.01C113.67,-620.84 164.09,-885.75 313.52,-1043 328.06,-1058.3 349.92,-1067.54 368.21,-1072.95"/>
<polygon fill="#4b8fc5" stroke="#4b8fc5" stroke-width="0.9" points="367.64,-1074.79 373.46,-1074.41 368.67,-1071.08 367.64,-1074.79"/>
</g>
<!-- in9&#45;&gt;n12 -->
<g id="edge45" class="edge">
<title>in9&#45;&gt;n12</title>
<path fill="none" stroke="#4b8fc5" stroke-width="0.9" stroke-dasharray="5,2" d="M145.37,-358.09C166.81,-333.74 192.7,-307.38 219.52,-287 256.87,-258.62 268.49,-252.15 313.52,-239 523.25,-177.76 791.37,-233.54 883.59,-256.33"/>
<polygon fill="#4b8fc5" stroke="#4b8fc5" stroke-width="0.9" points="883.06,-258.18 888.86,-257.65 883.99,-254.45 883.06,-258.18"/>
</g>
<!-- in10 -->
<g id="node24" class="node">
<title>in10</title>
<polygon fill="#eef6ff" stroke="#4b8fc5" points="485.54,-1262.6 313.52,-1262.6 313.52,-1215.4 491.54,-1215.4 491.54,-1256.6 485.54,-1262.6"/>
<polyline fill="none" stroke="#4b8fc5" points="485.54,-1262.6 485.54,-1256.6"/>
<polyline fill="none" stroke="#4b8fc5" points="491.54,-1256.6 485.54,-1256.6"/>
<text xml:space="preserve" text-anchor="start" x="319.28" y="-1250.5" font-family="Inter,Arial" font-size="10.00" fill="#123d5c">from symphonia&#45;codec&#45;aac&#45;v0.5.5.svg</text>
<text xml:space="preserve" text-anchor="start" x="378.15" y="-1240.5" font-family="Inter,Arial" font-weight="bold" font-size="10.00" fill="#123d5c">lazy_static</text>
<text xml:space="preserve" text-anchor="start" x="391.65" y="-1230.5" font-family="Inter,Arial" font-size="10.00" fill="#123d5c">1.5.0</text>
<text xml:space="preserve" text-anchor="start" x="348.9" y="-1220.5" font-family="Inter,Arial" font-size="10.00" fill="#123d5c">/vendor/lazy_static&#45;1.5.0</text>
</g>
<!-- in10&#45;&gt;n2 -->
<g id="edge46" class="edge">
<title>in10&#45;&gt;n2</title>
<path fill="none" stroke="#4b8fc5" stroke-width="0.9" stroke-dasharray="5,2" d="M491.81,-1239C502.78,-1239 513.83,-1239 524.36,-1239"/>
<polygon fill="#4b8fc5" stroke="#4b8fc5" stroke-width="0.9" points="524.34,-1240.93 529.84,-1239 524.34,-1237.08 524.34,-1240.93"/>
</g>
<!-- in11 -->
<g id="node25" class="node">
<title>in11</title>
<polygon fill="#eef6ff" stroke="#4b8fc5" points="472.41,-1334.6 326.64,-1334.6 326.64,-1287.4 478.41,-1287.4 478.41,-1328.6 472.41,-1334.6"/>
<polyline fill="none" stroke="#4b8fc5" points="472.41,-1334.6 472.41,-1328.6"/>
<polyline fill="none" stroke="#4b8fc5" points="478.41,-1328.6 472.41,-1328.6"/>
<text xml:space="preserve" text-anchor="start" x="332.4" y="-1322.5" font-family="Inter,Arial" font-size="10.00" fill="#123d5c">from symphonia&#45;core&#45;v0.5.5.svg</text>
<text xml:space="preserve" text-anchor="start" x="378.15" y="-1312.5" font-family="Inter,Arial" font-weight="bold" font-size="10.00" fill="#123d5c">lazy_static</text>
<text xml:space="preserve" text-anchor="start" x="391.65" y="-1302.5" font-family="Inter,Arial" font-size="10.00" fill="#123d5c">1.5.0</text>
<text xml:space="preserve" text-anchor="start" x="348.9" y="-1292.5" font-family="Inter,Arial" font-size="10.00" fill="#123d5c">/vendor/lazy_static&#45;1.5.0</text>
</g>
<!-- in11&#45;&gt;n2 -->
<g id="edge47" class="edge">
<title>in11&#45;&gt;n2</title>
<path fill="none" stroke="#4b8fc5" stroke-width="0.9" stroke-dasharray="5,2" d="M465.86,-1286.92C488.01,-1278.37 512.79,-1268.8 534.34,-1260.47"/>
<polygon fill="#4b8fc5" stroke="#4b8fc5" stroke-width="0.9" points="534.92,-1262.31 539.35,-1258.53 533.53,-1258.72 534.92,-1262.31"/>
</g>
</g>
</svg>
