<?xml version="1.0" encoding="UTF-8" standalone="no"?>
<!DOCTYPE svg PUBLIC "-//W3C//DTD SVG 1.1//EN"
 "http://www.w3.org/Graphics/SVG/1.1/DTD/svg11.dtd">
<!-- Generated by graphviz version 14.1.2 (0)
 -->
<!-- Title: rustls&#45;v0.23.40 Pages: 1 -->
<svg width="754pt" height="384pt"
 viewBox="0.00 0.00 754.00 384.00" xmlns="http://www.w3.org/2000/svg" xmlns:xlink="http://www.w3.org/1999/xlink">
<g id="graph0" class="graph" transform="scale(1 1) rotate(0) translate(4 380.11)">
<title>rustls&#45;v0.23.40</title>
<polygon fill="white" stroke="none" points="-4,4 -4,-380.11 750.08,-380.11 750.08,4 -4,4"/>
<!-- n0 -->
<g id="node1" class="node">
<title>n0</title>
<path fill="#dff3ff" stroke="#1b78a6" d="M261.52,-247.6C261.52,-247.6 231.52,-247.6 231.52,-247.6 225.52,-247.6 219.52,-241.6 219.52,-235.6 219.52,-235.6 219.52,-223.6 219.52,-223.6 219.52,-217.6 225.52,-211.6 231.52,-211.6 231.52,-211.6 261.52,-211.6 261.52,-211.6 267.52,-211.6 273.52,-217.6 273.52,-223.6 273.52,-223.6 273.52,-235.6 273.52,-235.6 273.52,-241.6 267.52,-247.6 261.52,-247.6"/>
<text xml:space="preserve" text-anchor="start" x="233.39" y="-231.1" font-family="Inter,Arial" font-weight="bold" font-size="10.00" fill="#172033">rustls</text>
<text xml:space="preserve" text-anchor="start" x="230.39" y="-221.1" font-family="Inter,Arial" font-size="10.00" fill="#172033">0.23.40</text>
</g>
<!-- n1 -->
<g id="node2" class="node">
<title>n1</title>
<path fill="#f7f9fb" stroke="#8b9bb0" d="M591.06,-156.6C591.06,-156.6 532.29,-156.6 532.29,-156.6 526.29,-156.6 520.29,-150.6 520.29,-144.6 520.29,-144.6 520.29,-132.6 520.29,-132.6 520.29,-126.6 526.29,-120.6 532.29,-120.6 532.29,-120.6 591.06,-120.6 591.06,-120.6 597.06,-120.6 603.06,-126.6 603.06,-132.6 603.06,-132.6 603.06,-144.6 603.06,-144.6 603.06,-150.6 597.06,-156.6 591.06,-156.6"/>
<text xml:space="preserve" text-anchor="start" x="526.05" y="-140.1" font-family="Inter,Arial" font-weight="bold" font-size="10.00" fill="#172033">rustls&#45;pki&#45;types</text>
<text xml:space="preserve" text-anchor="start" x="548.17" y="-130.1" font-family="Inter,Arial" font-size="10.00" fill="#172033">1.14.1</text>
</g>
<!-- n0&#45;&gt;n1 -->
<g id="edge1" class="edge">
<title>n0&#45;&gt;n1</title>
<path fill="none" stroke="#9aa8b8" stroke-width="0.9" d="M273.87,-225.53C317.57,-218.35 407.43,-201.78 480.29,-176.6 493.58,-172.01 507.59,-165.87 520.13,-159.87"/>
<polygon fill="#9aa8b8" stroke="#9aa8b8" stroke-width="0.9" points="520.82,-161.68 524.93,-157.54 519.14,-158.21 520.82,-161.68"/>
</g>
<!-- n2 -->
<g id="node3" class="node">
<title>n2</title>
<path fill="#f7f9fb" stroke="#8b9bb0" d="M425.29,-164.07C425.29,-164.07 368.52,-164.07 368.52,-164.07 362.52,-164.07 356.52,-158.07 356.52,-152.07 356.52,-152.07 356.52,-125.12 356.52,-125.12 356.52,-119.12 362.52,-113.12 368.52,-113.12 368.52,-113.12 425.29,-113.12 425.29,-113.12 431.29,-113.12 437.29,-119.12 437.29,-125.12 437.29,-125.12 437.29,-152.07 437.29,-152.07 437.29,-158.07 431.29,-164.07 425.29,-164.07"/>
<text xml:space="preserve" text-anchor="start" x="365.78" y="-151.97" font-family="Inter,Arial" font-weight="bold" font-size="10.00" fill="#172033">rustls&#45;webpki</text>
<text xml:space="preserve" text-anchor="start" x="378.15" y="-138.97" font-family="Inter,Arial" font-size="10.00" fill="#172033">0.103.13</text>
<text xml:space="preserve" text-anchor="start" x="367.28" y="-124.88" font-family="Inter,Arial" font-weight="bold" font-size="8.00" fill="#172033">untrusted</text>
<text xml:space="preserve" text-anchor="start" x="406.28" y="-124.88" font-family="Inter,Arial" font-size="8.00" fill="#172033"> 0.9.0</text>
<path fill="none" stroke="#9aa8b8" d="M368.86,-116.72C368.86,-116.72 424.95,-116.72 424.95,-116.72 428.24,-116.72 431.53,-120.02 431.53,-123.31 431.53,-123.31 431.53,-129.89 431.53,-129.89 431.53,-133.18 428.24,-136.47 424.95,-136.47 424.95,-136.47 368.86,-136.47 368.86,-136.47 365.57,-136.47 362.28,-133.18 362.28,-129.89 362.28,-129.89 362.28,-123.31 362.28,-123.31 362.28,-120.02 365.57,-116.72 368.86,-116.72"/>
</g>
<!-- n0&#45;&gt;n2 -->
<g id="edge2" class="edge">
<title>n0&#45;&gt;n2</title>
<path fill="none" stroke="#9aa8b8" stroke-width="0.9" d="M271.77,-211.2C284.03,-202.19 299.29,-191.42 313.52,-182.6 325.25,-175.33 338.28,-168.04 350.45,-161.53"/>
<polygon fill="#9aa8b8" stroke="#9aa8b8" stroke-width="0.9" points="351.19,-163.32 355.15,-159.05 349.39,-159.92 351.19,-163.32"/>
</g>
<!-- out0 -->
<g id="node4" class="node">
<title>out0</title>
<polygon fill="#fff8e8" stroke="#d19922" points="445.41,-339.2 342.39,-339.2 342.39,-302 451.41,-302 451.41,-333.2 445.41,-339.2"/>
<polyline fill="none" stroke="#d19922" points="445.41,-339.2 445.41,-333.2"/>
<polyline fill="none" stroke="#d19922" points="451.41,-333.2 445.41,-333.2"/>
<text xml:space="preserve" text-anchor="start" x="348.15" y="-327.1" font-family="Inter,Arial" font-size="10.00" fill="#614000">to crab&#45;usb&#45;v0.9.1.svg</text>
<text xml:space="preserve" text-anchor="start" x="374.78" y="-317.1" font-family="Inter,Arial" font-weight="bold" font-size="10.00" fill="#614000">once_cell</text>
<text xml:space="preserve" text-anchor="start" x="383.4" y="-307.1" font-family="Inter,Arial" font-size="10.00" fill="#614000">1.21.4</text>
</g>
<!-- n0&#45;&gt;out0 -->
<g id="edge4" class="edge">
<title>n0&#45;&gt;out0</title>
<path fill="none" stroke="#d19922" stroke-width="0.9" stroke-dasharray="5,2" d="M263.97,-247.87C276.51,-260.92 294.76,-278.13 313.52,-289.6 320.58,-293.92 328.35,-297.8 336.2,-301.23"/>
<polygon fill="#d19922" stroke="#d19922" stroke-width="0.9" points="335.14,-302.88 340.96,-303.24 336.64,-299.33 335.14,-302.88"/>
</g>
<!-- out1 -->
<g id="node5" class="node">
<title>out1</title>
<polygon fill="#fff8e8" stroke="#d19922" points="474.29,-277.2 313.52,-277.2 313.52,-240 480.29,-240 480.29,-271.2 474.29,-277.2"/>
<polyline fill="none" stroke="#d19922" points="474.29,-277.2 474.29,-271.2"/>
<polyline fill="none" stroke="#d19922" points="480.29,-271.2 474.29,-271.2"/>
<text xml:space="preserve" text-anchor="start" x="319.28" y="-265.1" font-family="Inter,Arial" font-size="10.00" fill="#614000">to embedded&#45;websocket&#45;v0.9.4.svg</text>
<text xml:space="preserve" text-anchor="start" x="382.65" y="-255.1" font-family="Inter,Arial" font-weight="bold" font-size="10.00" fill="#614000">subtle</text>
<text xml:space="preserve" text-anchor="start" x="386.03" y="-245.1" font-family="Inter,Arial" font-size="10.00" fill="#614000">2.6.1</text>
</g>
<!-- n0&#45;&gt;out1 -->
<g id="edge5" class="edge">
<title>n0&#45;&gt;out1</title>
<path fill="none" stroke="#d19922" stroke-width="0.9" stroke-dasharray="5,2" d="M273.71,-234.72C283.25,-236.58 294.66,-238.81 306.61,-241.15"/>
<polygon fill="#d19922" stroke="#d19922" stroke-width="0.9" points="306.2,-243.03 311.96,-242.19 306.93,-239.25 306.2,-243.03"/>
</g>
<!-- out2 -->
<g id="node6" class="node">
<title>out2</title>
<polygon fill="#fff8e8" stroke="#d19922" points="740.08,-276.2 643.06,-276.2 643.06,-239 746.08,-239 746.08,-270.2 740.08,-276.2"/>
<polyline fill="none" stroke="#d19922" points="740.08,-276.2 740.08,-270.2"/>
<polyline fill="none" stroke="#d19922" points="746.08,-270.2 740.08,-270.2"/>
<text xml:space="preserve" text-anchor="start" x="648.82" y="-264.1" font-family="Inter,Arial" font-size="10.00" fill="#614000">to zeroize&#45;v1.8.2.svg</text>
<text xml:space="preserve" text-anchor="start" x="677.69" y="-254.1" font-family="Inter,Arial" font-weight="bold" font-size="10.00" fill="#614000">zeroize</text>
<text xml:space="preserve" text-anchor="start" x="683.69" y="-244.1" font-family="Inter,Arial" font-size="10.00" fill="#614000">1.8.2</text>
</g>
<!-- n0&#45;&gt;out2 -->
<g id="edge6" class="edge">
<title>n0&#45;&gt;out2</title>
<path fill="none" stroke="#d19922" stroke-width="0.9" stroke-dasharray="5,2" d="M251.21,-247.74C258.01,-275.81 275.46,-328.92 313.52,-351.6 429.37,-420.64 593.95,-326.19 662.12,-280.2"/>
<polygon fill="#d19922" stroke="#d19922" stroke-width="0.9" points="663.05,-281.9 666.52,-277.21 660.89,-278.72 663.05,-281.9"/>
</g>
<!-- n1&#45;&gt;out2 -->
<g id="edge7" class="edge">
<title>n1&#45;&gt;out2</title>
<path fill="none" stroke="#d19922" stroke-width="0.9" stroke-dasharray="5,2" d="M582.84,-156.93C605.7,-177.71 643.01,-211.64 667.92,-234.28"/>
<polygon fill="#d19922" stroke="#d19922" stroke-width="0.9" points="666.36,-235.46 671.72,-237.74 668.95,-232.62 666.36,-235.46"/>
</g>
<!-- n2&#45;&gt;n1 -->
<g id="edge3" class="edge">
<title>n2&#45;&gt;n1</title>
<path fill="none" stroke="#9aa8b8" stroke-width="0.9" d="M437.72,-138.6C460.52,-138.6 489.27,-138.6 513.23,-138.6"/>
<polygon fill="#9aa8b8" stroke="#9aa8b8" stroke-width="0.9" points="512.99,-140.53 518.49,-138.6 512.99,-136.68 512.99,-140.53"/>
</g>
<!-- in3 -->
<g id="node7" class="node">
<title>in3</title>
<polygon fill="#eef6ff" stroke="#4b8fc5" points="173.52,-177.2 0,-177.2 0,-100 179.52,-100 179.52,-171.2 173.52,-177.2"/>
<polyline fill="none" stroke="#4b8fc5" points="173.52,-177.2 173.52,-171.2"/>
<polyline fill="none" stroke="#4b8fc5" points="179.52,-171.2 173.52,-171.2"/>
<text xml:space="preserve" text-anchor="start" x="5.76" y="-165.1" font-family="Inter,Arial" font-size="10.00" fill="#123d5c">from rustls&#45;rustcrypto&#45;v0.0.2&#45;alpha.svg</text>
<text xml:space="preserve" text-anchor="start" x="76.63" y="-155.1" font-family="Inter,Arial" font-weight="bold" font-size="10.00" fill="#123d5c">rustls</text>
<text xml:space="preserve" text-anchor="start" x="73.63" y="-145.1" font-family="Inter,Arial" font-size="10.00" fill="#123d5c">0.23.40</text>
<text xml:space="preserve" text-anchor="start" x="54.13" y="-135.1" font-family="Inter,Arial" font-weight="bold" font-size="10.00" fill="#123d5c">rustls&#45;pki&#45;types</text>
<text xml:space="preserve" text-anchor="start" x="76.26" y="-125.1" font-family="Inter,Arial" font-size="10.00" fill="#123d5c">1.14.1</text>
<text xml:space="preserve" text-anchor="start" x="58.63" y="-115.1" font-family="Inter,Arial" font-weight="bold" font-size="10.00" fill="#123d5c">rustls&#45;webpki</text>
<text xml:space="preserve" text-anchor="start" x="71.01" y="-105.1" font-family="Inter,Arial" font-size="10.00" fill="#123d5c">0.103.13</text>
</g>
<!-- in3&#45;&gt;n0 -->
<g id="edge8" class="edge">
<title>in3&#45;&gt;n0</title>
<path fill="none" stroke="#4b8fc5" stroke-width="0.9" stroke-dasharray="5,2" d="M156.84,-177.46C176.45,-188.99 197.05,-201.1 213.45,-210.74"/>
<polygon fill="#4b8fc5" stroke="#4b8fc5" stroke-width="0.9" points="212.41,-212.36 218.12,-213.49 214.36,-209.04 212.41,-212.36"/>
</g>
<!-- in3&#45;&gt;n1 -->
<g id="edge9" class="edge">
<title>in3&#45;&gt;n1</title>
<path fill="none" stroke="#4b8fc5" stroke-width="0.9" stroke-dasharray="5,2" d="M179.93,-114.04C259.53,-95.85 378.85,-77.83 480.29,-100.6 495.31,-103.97 510.83,-110.48 524.17,-117.18"/>
<polygon fill="#4b8fc5" stroke="#4b8fc5" stroke-width="0.9" points="523.16,-118.82 528.93,-119.63 524.93,-115.4 523.16,-118.82"/>
</g>
<!-- in3&#45;&gt;n2 -->
<g id="edge10" class="edge">
<title>in3&#45;&gt;n2</title>
<path fill="none" stroke="#4b8fc5" stroke-width="0.9" stroke-dasharray="5,2" d="M179.84,-138.6C235.39,-138.6 304.61,-138.6 349.51,-138.6"/>
<polygon fill="#4b8fc5" stroke="#4b8fc5" stroke-width="0.9" points="349.36,-140.53 354.86,-138.6 349.36,-136.68 349.36,-140.53"/>
</g>
<!-- in4 -->
<g id="node8" class="node">
<title>in4</title>
<polygon fill="#eef6ff" stroke="#4b8fc5" points="460.04,-37.2 327.77,-37.2 327.77,0 466.04,0 466.04,-31.2 460.04,-37.2"/>
<polyline fill="none" stroke="#4b8fc5" points="460.04,-37.2 460.04,-31.2"/>
<polyline fill="none" stroke="#4b8fc5" points="466.04,-31.2 460.04,-31.2"/>
<text xml:space="preserve" text-anchor="start" x="333.53" y="-25.1" font-family="Inter,Arial" font-size="10.00" fill="#123d5c">from webpki&#45;roots&#45;v1.0.7.svg</text>
<text xml:space="preserve" text-anchor="start" x="361.28" y="-15.1" font-family="Inter,Arial" font-weight="bold" font-size="10.00" fill="#123d5c">rustls&#45;pki&#45;types</text>
<text xml:space="preserve" text-anchor="start" x="383.4" y="-5.1" font-family="Inter,Arial" font-size="10.00" fill="#123d5c">1.14.1</text>
</g>
<!-- in4&#45;&gt;n1 -->
<g id="edge11" class="edge">
<title>in4&#45;&gt;n1</title>
<path fill="none" stroke="#4b8fc5" stroke-width="0.9" stroke-dasharray="5,2" d="M447.01,-37.7C458.38,-43.07 470.12,-49.43 480.29,-56.6 504.12,-73.39 526.96,-97.76 542.16,-115.57"/>
<polygon fill="#4b8fc5" stroke="#4b8fc5" stroke-width="0.9" points="540.35,-116.4 545.36,-119.36 543.29,-113.92 540.35,-116.4"/>
</g>
</g>
</svg>
