<?xml version="1.0" encoding="UTF-8" standalone="no"?>
<!DOCTYPE svg PUBLIC "-//W3C//DTD SVG 1.1//EN"
 "http://www.w3.org/Graphics/SVG/1.1/DTD/svg11.dtd">
<!-- Generated by graphviz version 14.1.2 (0)
 -->
<!-- Title: rustls&#45;v0.23.41 Pages: 1 -->
<svg width="817pt" height="446pt"
 viewBox="0.00 0.00 817.00 446.00" xmlns="http://www.w3.org/2000/svg" xmlns:xlink="http://www.w3.org/1999/xlink">
<g id="graph0" class="graph" transform="scale(1 1) rotate(0) translate(4 442.18)">
<title>rustls&#45;v0.23.41</title>
<polygon fill="white" stroke="none" points="-4,4 -4,-442.18 812.6,-442.18 812.6,4 -4,4"/>
<!-- n0 -->
<g id="node1" class="node">
<title>n0</title>
<path fill="#dff3ff" stroke="#1b78a6" d="M273.19,-295.9C273.19,-295.9 238.72,-295.9 238.72,-295.9 232.72,-295.9 226.72,-289.9 226.72,-283.9 226.72,-283.9 226.72,-268.5 226.72,-268.5 226.72,-262.5 232.72,-256.5 238.72,-256.5 238.72,-256.5 273.19,-256.5 273.19,-256.5 279.19,-256.5 285.19,-262.5 285.19,-268.5 285.19,-268.5 285.19,-283.9 285.19,-283.9 285.19,-289.9 279.19,-295.9 273.19,-295.9"/>
<text xml:space="preserve" text-anchor="start" x="237.58" y="-277.35" font-family="Inter,Arial" font-weight="bold" font-size="13.00" fill="#172033">rustls</text>
<text xml:space="preserve" text-anchor="start" x="236.08" y="-265.3" font-family="Inter,Arial" font-size="12.00" fill="#172033">0.23.41</text>
</g>
<!-- n1 -->
<g id="node2" class="node">
<title>n1</title>
<path fill="#f7f9fb" stroke="#8b9bb0" d="M646.38,-183.9C646.38,-183.9 551.16,-183.9 551.16,-183.9 545.16,-183.9 539.16,-177.9 539.16,-171.9 539.16,-171.9 539.16,-156.5 539.16,-156.5 539.16,-150.5 545.16,-144.5 551.16,-144.5 551.16,-144.5 646.38,-144.5 646.38,-144.5 652.38,-144.5 658.38,-150.5 658.38,-156.5 658.38,-156.5 658.38,-171.9 658.38,-171.9 658.38,-177.9 652.38,-183.9 646.38,-183.9"/>
<text xml:space="preserve" text-anchor="start" x="548.52" y="-165.35" font-family="Inter,Arial" font-weight="bold" font-size="13.00" fill="#172033">rustls&#45;pki&#45;types</text>
<text xml:space="preserve" text-anchor="start" x="582.27" y="-153.3" font-family="Inter,Arial" font-size="12.00" fill="#172033">1.14.1</text>
</g>
<!-- n0&#45;&gt;n1 -->
<g id="edge1" class="edge">
<title>n0&#45;&gt;n1</title>
<path fill="none" stroke="#9aa8b8" stroke-width="7.2" d="M285.35,-272.36C331.41,-265.54 424.77,-249.21 499.16,-220.2 519.21,-212.38 540.12,-201.03 557.49,-190.59"/>
<polygon fill="#9aa8b8" stroke="#9aa8b8" stroke-width="7.2" points="559.19,-193.61 562.06,-187.78 555.56,-187.71 559.19,-193.61"/>
</g>
<!-- n2 -->
<g id="node3" class="node">
<title>n2</title>
<path fill="#f7f9fb" stroke="#8b9bb0" d="M462.41,-207.77C462.41,-207.77 361.94,-207.77 361.94,-207.77 355.94,-207.77 349.94,-201.77 349.94,-195.77 349.94,-195.77 349.94,-132.62 349.94,-132.62 349.94,-126.62 355.94,-120.62 361.94,-120.62 361.94,-120.62 462.41,-120.62 462.41,-120.62 468.41,-120.62 474.41,-126.62 474.41,-132.62 474.41,-132.62 474.41,-195.77 474.41,-195.77 474.41,-201.77 468.41,-207.77 462.41,-207.77"/>
<text xml:space="preserve" text-anchor="start" x="369.05" y="-189.22" font-family="Inter,Arial" font-weight="bold" font-size="13.00" fill="#172033">rustls&#45;webpki</text>
<text xml:space="preserve" text-anchor="start" x="388.93" y="-174.17" font-family="Inter,Arial" font-size="12.00" fill="#172033">0.103.13</text>
<text xml:space="preserve" text-anchor="start" x="374.3" y="-146.88" font-family="Inter,Arial" font-weight="bold" font-size="11.00" fill="#172033">untrusted</text>
<text xml:space="preserve" text-anchor="start" x="425.3" y="-146.88" font-family="Inter,Arial" font-size="10.00" fill="#172033"> </text>
<text xml:space="preserve" text-anchor="start" x="428.3" y="-146.88" font-family="Inter,Arial" font-size="10.00" fill="#172033">0.9.0</text>
<path fill="none" stroke="#9aa8b8" d="M375.8,-133.82C375.8,-133.82 448.55,-133.82 448.55,-133.82 453.8,-133.82 459.05,-139.07 459.05,-144.32 459.05,-144.32 459.05,-154.82 459.05,-154.82 459.05,-160.07 453.8,-165.32 448.55,-165.32 448.55,-165.32 375.8,-165.32 375.8,-165.32 370.55,-165.32 365.3,-160.07 365.3,-154.82 365.3,-154.82 365.3,-144.32 365.3,-144.32 365.3,-139.07 370.55,-133.82 375.8,-133.82"/>
</g>
<!-- n0&#45;&gt;n2 -->
<g id="edge2" class="edge">
<title>n0&#45;&gt;n2</title>
<path fill="none" stroke="#9aa8b8" stroke-width="7.2" d="M284.53,-256.18C300.31,-244.71 320.9,-229.76 340.87,-215.26"/>
<polygon fill="#9aa8b8" stroke="#9aa8b8" stroke-width="7.2" points="342.72,-218.19 345.14,-212.16 338.65,-212.59 342.72,-218.19"/>
</g>
<!-- out0 -->
<g id="node4" class="node">
<title>out0</title>
<polygon fill="#fff8e8" stroke="#d19922" points="464.29,-397.4 354.07,-397.4 354.07,-353 470.29,-353 470.29,-391.4 464.29,-397.4"/>
<polyline fill="none" stroke="#d19922" points="464.29,-397.4 464.29,-391.4"/>
<polyline fill="none" stroke="#d19922" points="470.29,-391.4 464.29,-391.4"/>
<text xml:space="preserve" text-anchor="start" x="363.43" y="-381.7" font-family="Inter,Arial" font-size="10.00" fill="#614000">to crab&#45;usb&#45;v0.9.1.svg</text>
<text xml:space="preserve" text-anchor="start" x="390.05" y="-371.7" font-family="Inter,Arial" font-weight="bold" font-size="10.00" fill="#614000">once_cell</text>
<text xml:space="preserve" text-anchor="start" x="398.68" y="-361.7" font-family="Inter,Arial" font-size="10.00" fill="#614000">1.21.4</text>
</g>
<!-- n0&#45;&gt;out0 -->
<g id="edge4" class="edge">
<title>n0&#45;&gt;out0</title>
<path fill="none" stroke="#d19922" stroke-width="7.2" stroke-dasharray="5,2" d="M274.13,-296.24C287.03,-310.32 305.75,-328.77 325.19,-341.2 330.68,-344.71 336.6,-347.97 342.67,-350.96"/>
<polygon fill="#d19922" stroke="#d19922" stroke-width="7.2" points="341.11,-354.05 347.56,-353.22 344.02,-347.76 341.11,-354.05"/>
</g>
<!-- out1 -->
<g id="node5" class="node">
<title>out1</title>
<polygon fill="#fff8e8" stroke="#d19922" points="493.16,-328.4 325.19,-328.4 325.19,-284 499.16,-284 499.16,-322.4 493.16,-328.4"/>
<polyline fill="none" stroke="#d19922" points="493.16,-328.4 493.16,-322.4"/>
<polyline fill="none" stroke="#d19922" points="499.16,-322.4 493.16,-322.4"/>
<text xml:space="preserve" text-anchor="start" x="334.55" y="-312.7" font-family="Inter,Arial" font-size="10.00" fill="#614000">to embedded&#45;websocket&#45;v0.9.4.svg</text>
<text xml:space="preserve" text-anchor="start" x="397.93" y="-302.7" font-family="Inter,Arial" font-weight="bold" font-size="10.00" fill="#614000">subtle</text>
<text xml:space="preserve" text-anchor="start" x="401.3" y="-292.7" font-family="Inter,Arial" font-size="10.00" fill="#614000">2.6.1</text>
</g>
<!-- n0&#45;&gt;out1 -->
<g id="edge5" class="edge">
<title>n0&#45;&gt;out1</title>
<path fill="none" stroke="#d19922" stroke-width="7.2" stroke-dasharray="5,2" d="M285.6,-281.77C293.8,-283.37 303.23,-285.2 313.17,-287.13"/>
<polygon fill="#d19922" stroke="#d19922" stroke-width="7.2" points="312.32,-290.5 318.38,-288.15 313.65,-283.7 312.32,-290.5"/>
</g>
<!-- out2 -->
<g id="node6" class="node">
<title>out2</title>
<polygon fill="#fff8e8" stroke="#d19922" points="802.6,-321.4 698.38,-321.4 698.38,-277 808.6,-277 808.6,-315.4 802.6,-321.4"/>
<polyline fill="none" stroke="#d19922" points="802.6,-321.4 802.6,-315.4"/>
<polyline fill="none" stroke="#d19922" points="808.6,-315.4 802.6,-315.4"/>
<text xml:space="preserve" text-anchor="start" x="707.74" y="-305.7" font-family="Inter,Arial" font-size="10.00" fill="#614000">to zeroize&#45;v1.9.0.svg</text>
<text xml:space="preserve" text-anchor="start" x="736.62" y="-295.7" font-family="Inter,Arial" font-weight="bold" font-size="10.00" fill="#614000">zeroize</text>
<text xml:space="preserve" text-anchor="start" x="742.62" y="-285.7" font-family="Inter,Arial" font-size="10.00" fill="#614000">1.9.0</text>
</g>
<!-- n0&#45;&gt;out2 -->
<g id="edge6" class="edge">
<title>n0&#45;&gt;out2</title>
<path fill="none" stroke="#d19922" stroke-width="7.2" stroke-dasharray="5,2" d="M260.45,-296.33C267,-327.17 284.35,-385.16 325.19,-410.2 452.56,-488.27 633.68,-383.11 712.87,-328.48"/>
<polygon fill="#d19922" stroke="#d19922" stroke-width="7.2" points="714.41,-331.63 716.92,-325.64 710.43,-325.96 714.41,-331.63"/>
</g>
<!-- n1&#45;&gt;out2 -->
<g id="edge7" class="edge">
<title>n1&#45;&gt;out2</title>
<path fill="none" stroke="#d19922" stroke-width="7.2" stroke-dasharray="5,2" d="M622.3,-184.12C647.54,-206.42 688.72,-242.83 718,-268.72"/>
<polygon fill="#d19922" stroke="#d19922" stroke-width="7.2" points="715.58,-271.2 722,-272.25 720.17,-266.01 715.58,-271.2"/>
</g>
<!-- n2&#45;&gt;n1 -->
<g id="edge3" class="edge">
<title>n2&#45;&gt;n1</title>
<path fill="none" stroke="#9aa8b8" stroke-width="7.2" d="M474.9,-164.2C491.51,-164.2 509.62,-164.2 526.7,-164.2"/>
<polygon fill="#9aa8b8" stroke="#9aa8b8" stroke-width="7.2" points="526.66,-167.67 532.16,-164.2 526.66,-160.74 526.66,-167.67"/>
</g>
<!-- in3 -->
<g id="node7" class="node">
<title>in3</title>
<polygon fill="#eef6ff" stroke="#4b8fc5" points="180.72,-206.4 0,-206.4 0,-122 186.72,-122 186.72,-200.4 180.72,-206.4"/>
<polyline fill="none" stroke="#4b8fc5" points="180.72,-206.4 180.72,-200.4"/>
<polyline fill="none" stroke="#4b8fc5" points="186.72,-200.4 180.72,-200.4"/>
<text xml:space="preserve" text-anchor="start" x="9.36" y="-190.7" font-family="Inter,Arial" font-size="10.00" fill="#123d5c">from rustls&#45;rustcrypto&#45;v0.0.2&#45;alpha.svg</text>
<text xml:space="preserve" text-anchor="start" x="80.24" y="-180.7" font-family="Inter,Arial" font-weight="bold" font-size="10.00" fill="#123d5c">rustls</text>
<text xml:space="preserve" text-anchor="start" x="77.24" y="-170.7" font-family="Inter,Arial" font-size="10.00" fill="#123d5c">0.23.41</text>
<text xml:space="preserve" text-anchor="start" x="57.74" y="-160.7" font-family="Inter,Arial" font-weight="bold" font-size="10.00" fill="#123d5c">rustls&#45;pki&#45;types</text>
<text xml:space="preserve" text-anchor="start" x="79.86" y="-150.7" font-family="Inter,Arial" font-size="10.00" fill="#123d5c">1.14.1</text>
<text xml:space="preserve" text-anchor="start" x="62.24" y="-140.7" font-family="Inter,Arial" font-weight="bold" font-size="10.00" fill="#123d5c">rustls&#45;webpki</text>
<text xml:space="preserve" text-anchor="start" x="74.61" y="-130.7" font-family="Inter,Arial" font-size="10.00" fill="#123d5c">0.103.13</text>
</g>
<!-- in3&#45;&gt;n0 -->
<g id="edge8" class="edge">
<title>in3&#45;&gt;n0</title>
<path fill="none" stroke="#4b8fc5" stroke-width="7.2" stroke-dasharray="5,2" d="M155.53,-206.86C175.93,-221.09 198.08,-236.53 216.28,-249.23"/>
<polygon fill="#4b8fc5" stroke="#4b8fc5" stroke-width="7.2" points="214.19,-251.99 220.68,-252.3 218.15,-246.31 214.19,-251.99"/>
</g>
<!-- in3&#45;&gt;n1 -->
<g id="edge9" class="edge">
<title>in3&#45;&gt;n1</title>
<path fill="none" stroke="#4b8fc5" stroke-width="7.2" stroke-dasharray="5,2" d="M186.84,-130.96C269.71,-105.98 394.04,-80.43 499.16,-108.2 521.17,-114.01 543.42,-126 561.2,-137.4"/>
<polygon fill="#4b8fc5" stroke="#4b8fc5" stroke-width="7.2" points="559.26,-140.28 565.76,-140.44 563.1,-134.51 559.26,-140.28"/>
</g>
<!-- in3&#45;&gt;n2 -->
<g id="edge10" class="edge">
<title>in3&#45;&gt;n2</title>
<path fill="none" stroke="#4b8fc5" stroke-width="7.2" stroke-dasharray="5,2" d="M186.85,-164.2C234.86,-164.2 292.71,-164.2 337.64,-164.2"/>
<polygon fill="#4b8fc5" stroke="#4b8fc5" stroke-width="7.2" points="337.4,-167.67 342.9,-164.2 337.4,-160.74 337.4,-167.67"/>
</g>
<!-- in4 -->
<g id="node8" class="node">
<title>in4</title>
<polygon fill="#eef6ff" stroke="#4b8fc5" points="478.91,-44.4 339.44,-44.4 339.44,0 484.91,0 484.91,-38.4 478.91,-44.4"/>
<polyline fill="none" stroke="#4b8fc5" points="478.91,-44.4 478.91,-38.4"/>
<polyline fill="none" stroke="#4b8fc5" points="484.91,-38.4 478.91,-38.4"/>
<text xml:space="preserve" text-anchor="start" x="348.8" y="-28.7" font-family="Inter,Arial" font-size="10.00" fill="#123d5c">from webpki&#45;roots&#45;v1.0.8.svg</text>
<text xml:space="preserve" text-anchor="start" x="376.55" y="-18.7" font-family="Inter,Arial" font-weight="bold" font-size="10.00" fill="#123d5c">rustls&#45;pki&#45;types</text>
<text xml:space="preserve" text-anchor="start" x="398.68" y="-8.7" font-family="Inter,Arial" font-size="10.00" fill="#123d5c">1.14.1</text>
</g>
<!-- in4&#45;&gt;n1 -->
<g id="edge11" class="edge">
<title>in4&#45;&gt;n1</title>
<path fill="none" stroke="#4b8fc5" stroke-width="7.2" stroke-dasharray="5,2" d="M468.03,-44.78C478.75,-50.17 489.61,-56.37 499.16,-63.2 527.98,-83.82 555.7,-113.37 574.37,-135.18"/>
<polygon fill="#4b8fc5" stroke="#4b8fc5" stroke-width="7.2" points="571.5,-137.16 577.7,-139.14 576.81,-132.7 571.5,-137.16"/>
</g>
</g>
</svg>
