<?xml version="1.0" encoding="UTF-8" standalone="no"?>
<!DOCTYPE svg PUBLIC "-//W3C//DTD SVG 1.1//EN"
 "http://www.w3.org/Graphics/SVG/1.1/DTD/svg11.dtd">
<!-- Generated by graphviz version 14.1.2 (0)
 -->
<!-- Title: rustls&#45;rustcrypto&#45;v0.0.2&#45;alpha Pages: 1 -->
<svg width="1109pt" height="2169pt"
 viewBox="0.00 0.00 1109.00 2169.00" xmlns="http://www.w3.org/2000/svg" xmlns:xlink="http://www.w3.org/1999/xlink">
<g id="graph0" class="graph" transform="scale(1 1) rotate(0) translate(4 2164.64)">
<title>rustls&#45;rustcrypto&#45;v0.0.2&#45;alpha</title>
<polygon fill="white" stroke="none" points="-4,4 -4,-2164.64 1104.64,-2164.64 1104.64,4 -4,4"/>
<!-- n0 -->
<g id="node1" class="node">
<title>n0</title>
<path fill="#dff3ff" stroke="#1b78a6" d="M156.27,-864.64C156.27,-864.64 12,-864.64 12,-864.64 6,-864.64 0,-858.64 0,-852.64 0,-852.64 0,-839.44 0,-839.44 0,-833.44 6,-827.44 12,-827.44 12,-827.44 156.27,-827.44 156.27,-827.44 162.27,-827.44 168.27,-833.44 168.27,-839.44 168.27,-839.44 168.27,-852.64 168.27,-852.64 168.27,-858.64 162.27,-864.64 156.27,-864.64"/>
<text xml:space="preserve" text-anchor="start" x="45.88" y="-852.54" font-family="Inter,Arial" font-weight="bold" font-size="10.00" fill="#172033">rustls&#45;rustcrypto</text>
<text xml:space="preserve" text-anchor="start" x="60.13" y="-842.54" font-family="Inter,Arial" font-size="10.00" fill="#172033">0.0.2&#45;alpha</text>
<text xml:space="preserve" text-anchor="start" x="5.76" y="-832.54" font-family="Inter,Arial" font-size="10.00" fill="#172033">/vendor/rustls&#45;rustcrypto&#45;0.0.2&#45;alpha</text>
</g>
<!-- n1 -->
<g id="node2" class="node">
<title>n1</title>
<path fill="#f7f9fb" stroke="#8b9bb0" d="M554.44,-1853.04C554.44,-1853.04 524.44,-1853.04 524.44,-1853.04 518.44,-1853.04 512.44,-1847.04 512.44,-1841.04 512.44,-1841.04 512.44,-1829.04 512.44,-1829.04 512.44,-1823.04 518.44,-1817.04 524.44,-1817.04 524.44,-1817.04 554.44,-1817.04 554.44,-1817.04 560.44,-1817.04 566.44,-1823.04 566.44,-1829.04 566.44,-1829.04 566.44,-1841.04 566.44,-1841.04 566.44,-1847.04 560.44,-1853.04 554.44,-1853.04"/>
<text xml:space="preserve" text-anchor="start" x="528.57" y="-1836.54" font-family="Inter,Arial" font-weight="bold" font-size="10.00" fill="#172033">aead</text>
<text xml:space="preserve" text-anchor="start" x="528.57" y="-1826.54" font-family="Inter,Arial" font-size="10.00" fill="#172033">0.5.2</text>
</g>
<!-- n0&#45;&gt;n1 -->
<g id="edge31" class="edge">
<title>n0&#45;&gt;n1</title>
<path fill="none" stroke="#9aa8b8" stroke-width="0.9" d="M85.61,-865.03C88.72,-975.87 109.27,-1538.94 208.27,-1674.04 282.43,-1775.25 437.61,-1815.99 505.48,-1829.43"/>
<polygon fill="#9aa8b8" stroke="#9aa8b8" stroke-width="0.9" points="505.06,-1831.31 510.82,-1830.46 505.79,-1827.53 505.06,-1831.31"/>
</g>
<!-- n2 -->
<g id="node3" class="node">
<title>n2</title>
<path fill="#f7f9fb" stroke="#8b9bb0" d="M276.28,-1950.04C276.28,-1950.04 246.28,-1950.04 246.28,-1950.04 240.28,-1950.04 234.28,-1944.04 234.28,-1938.04 234.28,-1938.04 234.28,-1926.04 234.28,-1926.04 234.28,-1920.04 240.28,-1914.04 246.28,-1914.04 246.28,-1914.04 276.28,-1914.04 276.28,-1914.04 282.28,-1914.04 288.28,-1920.04 288.28,-1926.04 288.28,-1926.04 288.28,-1938.04 288.28,-1938.04 288.28,-1944.04 282.28,-1950.04 276.28,-1950.04"/>
<text xml:space="preserve" text-anchor="start" x="241.78" y="-1933.54" font-family="Inter,Arial" font-weight="bold" font-size="10.00" fill="#172033">aes&#45;gcm</text>
<text xml:space="preserve" text-anchor="start" x="247.78" y="-1923.54" font-family="Inter,Arial" font-size="10.00" fill="#172033">0.10.3</text>
</g>
<!-- n0&#45;&gt;n2 -->
<g id="edge32" class="edge">
<title>n0&#45;&gt;n2</title>
<path fill="none" stroke="#9aa8b8" stroke-width="0.9" d="M86.08,-864.91C91.31,-962.93 119.7,-1423.42 208.27,-1788.04 218.77,-1831.27 237.77,-1879.52 249.66,-1907.75"/>
<polygon fill="#9aa8b8" stroke="#9aa8b8" stroke-width="0.9" points="247.78,-1908.24 251.7,-1912.55 251.32,-1906.73 247.78,-1908.24"/>
</g>
<!-- n5 -->
<g id="node6" class="node">
<title>n5</title>
<path fill="#f7f9fb" stroke="#8b9bb0" d="M438.56,-1717.04C438.56,-1717.04 366.29,-1717.04 366.29,-1717.04 360.29,-1717.04 354.29,-1711.04 354.29,-1705.04 354.29,-1705.04 354.29,-1693.04 354.29,-1693.04 354.29,-1687.04 360.29,-1681.04 366.29,-1681.04 366.29,-1681.04 438.56,-1681.04 438.56,-1681.04 444.56,-1681.04 450.56,-1687.04 450.56,-1693.04 450.56,-1693.04 450.56,-1705.04 450.56,-1705.04 450.56,-1711.04 444.56,-1717.04 438.56,-1717.04"/>
<text xml:space="preserve" text-anchor="start" x="360.05" y="-1700.54" font-family="Inter,Arial" font-weight="bold" font-size="10.00" fill="#172033">chacha20poly1305</text>
<text xml:space="preserve" text-anchor="start" x="388.92" y="-1690.54" font-family="Inter,Arial" font-size="10.00" fill="#172033">0.10.1</text>
</g>
<!-- n0&#45;&gt;n5 -->
<g id="edge33" class="edge">
<title>n0&#45;&gt;n5</title>
<path fill="none" stroke="#9aa8b8" stroke-width="0.9" d="M85.63,-865.08C88.79,-972.55 109.26,-1502.83 208.27,-1625.04 242.24,-1666.98 302.89,-1685.18 347.19,-1693.06"/>
<polygon fill="#9aa8b8" stroke="#9aa8b8" stroke-width="0.9" points="346.79,-1694.95 352.54,-1693.97 347.44,-1691.15 346.79,-1694.95"/>
</g>
<!-- n9 -->
<g id="node10" class="node">
<title>n9</title>
<path fill="#f7f9fb" stroke="#8b9bb0" d="M417.42,-1185.04C417.42,-1185.04 387.42,-1185.04 387.42,-1185.04 381.42,-1185.04 375.42,-1179.04 375.42,-1173.04 375.42,-1173.04 375.42,-1161.04 375.42,-1161.04 375.42,-1155.04 381.42,-1149.04 387.42,-1149.04 387.42,-1149.04 417.42,-1149.04 417.42,-1149.04 423.42,-1149.04 429.42,-1155.04 429.42,-1161.04 429.42,-1161.04 429.42,-1173.04 429.42,-1173.04 429.42,-1179.04 423.42,-1185.04 417.42,-1185.04"/>
<text xml:space="preserve" text-anchor="start" x="388.92" y="-1168.54" font-family="Inter,Arial" font-weight="bold" font-size="10.00" fill="#172033">ecdsa</text>
<text xml:space="preserve" text-anchor="start" x="388.92" y="-1158.54" font-family="Inter,Arial" font-size="10.00" fill="#172033">0.16.9</text>
</g>
<!-- n0&#45;&gt;n9 -->
<g id="edge34" class="edge">
<title>n0&#45;&gt;n9</title>
<path fill="none" stroke="#9aa8b8" stroke-width="0.9" d="M89.99,-865C102.32,-909.5 138.86,-1021.78 208.27,-1086.04 254.52,-1128.87 326.7,-1150.84 368.49,-1160.56"/>
<polygon fill="#9aa8b8" stroke="#9aa8b8" stroke-width="0.9" points="368.06,-1162.43 373.85,-1161.77 368.91,-1158.68 368.06,-1162.43"/>
</g>
<!-- n11 -->
<g id="node12" class="node">
<title>n11</title>
<path fill="#f7f9fb" stroke="#8b9bb0" d="M428.81,-546.04C428.81,-546.04 376.04,-546.04 376.04,-546.04 370.04,-546.04 364.04,-540.04 364.04,-534.04 364.04,-534.04 364.04,-522.04 364.04,-522.04 364.04,-516.04 370.04,-510.04 376.04,-510.04 376.04,-510.04 428.81,-510.04 428.81,-510.04 434.81,-510.04 440.81,-516.04 440.81,-522.04 440.81,-522.04 440.81,-534.04 440.81,-534.04 440.81,-540.04 434.81,-546.04 428.81,-546.04"/>
<text xml:space="preserve" text-anchor="start" x="369.8" y="-529.54" font-family="Inter,Arial" font-weight="bold" font-size="10.00" fill="#172033">ed25519&#45;dalek</text>
<text xml:space="preserve" text-anchor="start" x="391.55" y="-519.54" font-family="Inter,Arial" font-size="10.00" fill="#172033">2.2.0</text>
</g>
<!-- n0&#45;&gt;n11 -->
<g id="edge35" class="edge">
<title>n0&#45;&gt;n11</title>
<path fill="none" stroke="#9aa8b8" stroke-width="0.9" d="M103.97,-827.1C158.82,-771.96 318.3,-611.62 378.26,-551.33"/>
<polygon fill="#9aa8b8" stroke="#9aa8b8" stroke-width="0.9" points="379.61,-552.71 382.12,-547.45 376.88,-550 379.61,-552.71"/>
</g>
<!-- n18 -->
<g id="node19" class="node">
<title>n18</title>
<path fill="#f7f9fb" stroke="#8b9bb0" d="M276.28,-966.04C276.28,-966.04 246.28,-966.04 246.28,-966.04 240.28,-966.04 234.28,-960.04 234.28,-954.04 234.28,-954.04 234.28,-942.04 234.28,-942.04 234.28,-936.04 240.28,-930.04 246.28,-930.04 246.28,-930.04 276.28,-930.04 276.28,-930.04 282.28,-930.04 288.28,-936.04 288.28,-942.04 288.28,-942.04 288.28,-954.04 288.28,-954.04 288.28,-960.04 282.28,-966.04 276.28,-966.04"/>
<text xml:space="preserve" text-anchor="start" x="250.4" y="-949.54" font-family="Inter,Arial" font-weight="bold" font-size="10.00" fill="#172033">p256</text>
<text xml:space="preserve" text-anchor="start" x="247.78" y="-939.54" font-family="Inter,Arial" font-size="10.00" fill="#172033">0.13.2</text>
</g>
<!-- n0&#45;&gt;n18 -->
<g id="edge36" class="edge">
<title>n0&#45;&gt;n18</title>
<path fill="none" stroke="#9aa8b8" stroke-width="0.9" d="M117.67,-864.99C149.24,-883.38 196.86,-911.11 228.26,-929.4"/>
<polygon fill="#9aa8b8" stroke="#9aa8b8" stroke-width="0.9" points="227.02,-930.91 232.75,-932.01 228.96,-927.58 227.02,-930.91"/>
</g>
<!-- n19 -->
<g id="node20" class="node">
<title>n19</title>
<path fill="#f7f9fb" stroke="#8b9bb0" d="M276.28,-1073.04C276.28,-1073.04 246.28,-1073.04 246.28,-1073.04 240.28,-1073.04 234.28,-1067.04 234.28,-1061.04 234.28,-1061.04 234.28,-1049.04 234.28,-1049.04 234.28,-1043.04 240.28,-1037.04 246.28,-1037.04 246.28,-1037.04 276.28,-1037.04 276.28,-1037.04 282.28,-1037.04 288.28,-1043.04 288.28,-1049.04 288.28,-1049.04 288.28,-1061.04 288.28,-1061.04 288.28,-1067.04 282.28,-1073.04 276.28,-1073.04"/>
<text xml:space="preserve" text-anchor="start" x="250.4" y="-1056.54" font-family="Inter,Arial" font-weight="bold" font-size="10.00" fill="#172033">p384</text>
<text xml:space="preserve" text-anchor="start" x="247.78" y="-1046.54" font-family="Inter,Arial" font-size="10.00" fill="#172033">0.13.1</text>
</g>
<!-- n0&#45;&gt;n19 -->
<g id="edge37" class="edge">
<title>n0&#45;&gt;n19</title>
<path fill="none" stroke="#9aa8b8" stroke-width="0.9" d="M100.99,-864.96C133.05,-903.22 205.5,-989.68 240.55,-1031.51"/>
<polygon fill="#9aa8b8" stroke="#9aa8b8" stroke-width="0.9" points="238.96,-1032.6 243.97,-1035.58 241.91,-1030.13 238.96,-1032.6"/>
</g>
<!-- n24 -->
<g id="node25" class="node">
<title>n24</title>
<path fill="#f7f9fb" stroke="#8b9bb0" d="M554.44,-758.04C554.44,-758.04 524.44,-758.04 524.44,-758.04 518.44,-758.04 512.44,-752.04 512.44,-746.04 512.44,-746.04 512.44,-734.04 512.44,-734.04 512.44,-728.04 518.44,-722.04 524.44,-722.04 524.44,-722.04 554.44,-722.04 554.44,-722.04 560.44,-722.04 566.44,-728.04 566.44,-734.04 566.44,-734.04 566.44,-746.04 566.44,-746.04 566.44,-752.04 560.44,-758.04 554.44,-758.04"/>
<text xml:space="preserve" text-anchor="start" x="528.94" y="-741.54" font-family="Inter,Arial" font-weight="bold" font-size="10.00" fill="#172033">sec1</text>
<text xml:space="preserve" text-anchor="start" x="528.57" y="-731.54" font-family="Inter,Arial" font-size="10.00" fill="#172033">0.7.3</text>
</g>
<!-- n0&#45;&gt;n24 -->
<g id="edge38" class="edge">
<title>n0&#45;&gt;n24</title>
<path fill="none" stroke="#9aa8b8" stroke-width="0.9" d="M111.04,-827.11C135,-810.66 172.24,-787.7 208.27,-776.04 312.87,-742.22 444.8,-738.81 505.33,-739.27"/>
<polygon fill="#9aa8b8" stroke="#9aa8b8" stroke-width="0.9" points="505.13,-741.2 510.65,-739.33 505.17,-737.35 505.13,-741.2"/>
</g>
<!-- n26 -->
<g id="node27" class="node">
<title>n26</title>
<path fill="#f7f9fb" stroke="#8b9bb0" d="M425.81,-253.04C425.81,-253.04 379.04,-253.04 379.04,-253.04 373.04,-253.04 367.04,-247.04 367.04,-241.04 367.04,-241.04 367.04,-229.04 367.04,-229.04 367.04,-223.04 373.04,-217.04 379.04,-217.04 379.04,-217.04 425.81,-217.04 425.81,-217.04 431.81,-217.04 437.81,-223.04 437.81,-229.04 437.81,-229.04 437.81,-241.04 437.81,-241.04 437.81,-247.04 431.81,-253.04 425.81,-253.04"/>
<text xml:space="preserve" text-anchor="start" x="372.8" y="-236.54" font-family="Inter,Arial" font-weight="bold" font-size="10.00" fill="#172033">x25519&#45;dalek</text>
<text xml:space="preserve" text-anchor="start" x="391.55" y="-226.54" font-family="Inter,Arial" font-size="10.00" fill="#172033">2.0.1</text>
</g>
<!-- n0&#45;&gt;n26 -->
<g id="edge39" class="edge">
<title>n0&#45;&gt;n26</title>
<path fill="none" stroke="#9aa8b8" stroke-width="0.9" d="M87.44,-826.97C97.9,-743.07 143.23,-407.54 208.27,-327.04 246.79,-279.37 315.92,-254.93 360.18,-243.58"/>
<polygon fill="#9aa8b8" stroke="#9aa8b8" stroke-width="0.9" points="360.6,-245.46 365.47,-242.26 359.67,-241.72 360.6,-245.46"/>
</g>
<!-- out0 -->
<g id="node28" class="node">
<title>out0</title>
<polygon fill="#fff8e8" stroke="#d19922" points="879.99,-1750.64 798.72,-1750.64 798.72,-1563.44 885.99,-1563.44 885.99,-1744.64 879.99,-1750.64"/>
<polyline fill="none" stroke="#d19922" points="879.99,-1750.64 879.99,-1744.64"/>
<polyline fill="none" stroke="#d19922" points="885.99,-1744.64 879.99,-1744.64"/>
<text xml:space="preserve" text-anchor="start" x="804.48" y="-1738.54" font-family="Inter,Arial" font-size="10.00" fill="#614000">to aes&#45;v0.8.4.svg</text>
<text xml:space="preserve" text-anchor="start" x="805.61" y="-1728.54" font-family="Inter,Arial" font-weight="bold" font-size="10.00" fill="#614000">crypto&#45;common</text>
<text xml:space="preserve" text-anchor="start" x="831.48" y="-1718.54" font-family="Inter,Arial" font-size="10.00" fill="#614000">0.1.7</text>
<text xml:space="preserve" text-anchor="start" x="811.98" y="-1708.54" font-family="Inter,Arial" font-weight="bold" font-size="10.00" fill="#614000">generic&#45;array</text>
<text xml:space="preserve" text-anchor="start" x="828.86" y="-1698.54" font-family="Inter,Arial" font-size="10.00" fill="#614000">0.14.7</text>
<text xml:space="preserve" text-anchor="start" x="834.48" y="-1688.54" font-family="Inter,Arial" font-weight="bold" font-size="10.00" fill="#614000">aes</text>
<text xml:space="preserve" text-anchor="start" x="831.48" y="-1678.54" font-family="Inter,Arial" font-size="10.00" fill="#614000">0.8.4</text>
<text xml:space="preserve" text-anchor="start" x="827.73" y="-1668.54" font-family="Inter,Arial" font-weight="bold" font-size="10.00" fill="#614000">cipher</text>
<text xml:space="preserve" text-anchor="start" x="831.48" y="-1658.54" font-family="Inter,Arial" font-size="10.00" fill="#614000">0.4.4</text>
<text xml:space="preserve" text-anchor="start" x="830.73" y="-1648.54" font-family="Inter,Arial" font-weight="bold" font-size="10.00" fill="#614000">cfg&#45;if</text>
<text xml:space="preserve" text-anchor="start" x="831.48" y="-1638.54" font-family="Inter,Arial" font-size="10.00" fill="#614000">1.0.4</text>
<text xml:space="preserve" text-anchor="start" x="815.36" y="-1628.54" font-family="Inter,Arial" font-weight="bold" font-size="10.00" fill="#614000">cpufeatures</text>
<text xml:space="preserve" text-anchor="start" x="828.86" y="-1618.54" font-family="Inter,Arial" font-size="10.00" fill="#614000">0.2.17</text>
<text xml:space="preserve" text-anchor="start" x="813.11" y="-1608.54" font-family="Inter,Arial" font-weight="bold" font-size="10.00" fill="#614000">proc&#45;macro2</text>
<text xml:space="preserve" text-anchor="start" x="826.23" y="-1598.54" font-family="Inter,Arial" font-size="10.00" fill="#614000">1.0.106</text>
<text xml:space="preserve" text-anchor="start" x="829.23" y="-1588.54" font-family="Inter,Arial" font-weight="bold" font-size="10.00" fill="#614000">quote</text>
<text xml:space="preserve" text-anchor="start" x="828.86" y="-1578.54" font-family="Inter,Arial" font-size="10.00" fill="#614000">1.0.45</text>
<text xml:space="preserve" text-anchor="start" x="821.36" y="-1568.54" font-family="Inter,Arial" font-size="10.00" fill="#614000">... 1 more</text>
</g>
<!-- n0&#45;&gt;out0 -->
<g id="edge52" class="edge">
<title>n0&#45;&gt;out0</title>
<path fill="none" stroke="#d19922" stroke-width="0.9" stroke-dasharray="5,2" d="M86.35,-865.05C92.92,-962.59 126.96,-1406.6 208.27,-1513.04 266.11,-1588.76 306.15,-1606.04 401.42,-1606.04 401.42,-1606.04 401.42,-1606.04 540.44,-1606.04 630.17,-1606.04 732.85,-1628.36 792.09,-1643.47"/>
<polygon fill="#d19922" stroke="#d19922" stroke-width="0.9" points="791.27,-1645.24 797.08,-1644.75 792.23,-1641.51 791.27,-1645.24"/>
</g>
<!-- out1 -->
<g id="node29" class="node">
<title>out1</title>
<polygon fill="#fff8e8" stroke="#d19922" points="738.1,-333.64 635.08,-333.64 635.08,-266.44 744.1,-266.44 744.1,-327.64 738.1,-333.64"/>
<polyline fill="none" stroke="#d19922" points="738.1,-333.64 738.1,-327.64"/>
<polyline fill="none" stroke="#d19922" points="744.1,-327.64 738.1,-327.64"/>
<text xml:space="preserve" text-anchor="start" x="640.84" y="-321.54" font-family="Inter,Arial" font-size="10.00" fill="#614000">to crab&#45;usb&#45;v0.9.1.svg</text>
<text xml:space="preserve" text-anchor="start" x="658.09" y="-311.54" font-family="Inter,Arial" font-weight="bold" font-size="10.00" fill="#614000">rustc_version</text>
<text xml:space="preserve" text-anchor="start" x="678.71" y="-301.54" font-family="Inter,Arial" font-size="10.00" fill="#614000">0.4.1</text>
<text xml:space="preserve" text-anchor="start" x="677.21" y="-291.54" font-family="Inter,Arial" font-weight="bold" font-size="10.00" fill="#614000">paste</text>
<text xml:space="preserve" text-anchor="start" x="676.09" y="-281.54" font-family="Inter,Arial" font-size="10.00" fill="#614000">1.0.15</text>
<text xml:space="preserve" text-anchor="start" x="665.21" y="-271.54" font-family="Inter,Arial" font-size="10.00" fill="#614000">proc&#45;macro</text>
</g>
<!-- n0&#45;&gt;out1 -->
<g id="edge56" class="edge">
<title>n0&#45;&gt;out1</title>
<path fill="none" stroke="#d19922" stroke-width="0.9" stroke-dasharray="5,2" d="M92.33,-826.95C108.55,-785.5 151.09,-685.43 208.27,-616.04 311.01,-491.37 352.54,-471.01 490.56,-387.04 534.56,-360.28 588.26,-337.22 628.64,-321.58"/>
<polygon fill="#d19922" stroke="#d19922" stroke-width="0.9" points="629.28,-323.39 633.73,-319.62 627.9,-319.8 629.28,-323.39"/>
</g>
<!-- out3 -->
<g id="node31" class="node">
<title>out3</title>
<polygon fill="#fff8e8" stroke="#d19922" points="1094.64,-1143.64 933.87,-1143.64 933.87,-1086.44 1100.64,-1086.44 1100.64,-1137.64 1094.64,-1143.64"/>
<polyline fill="none" stroke="#d19922" points="1094.64,-1143.64 1094.64,-1137.64"/>
<polyline fill="none" stroke="#d19922" points="1100.64,-1137.64 1094.64,-1137.64"/>
<text xml:space="preserve" text-anchor="start" x="939.63" y="-1131.54" font-family="Inter,Arial" font-size="10.00" fill="#614000">to embedded&#45;websocket&#45;v0.9.4.svg</text>
<text xml:space="preserve" text-anchor="start" x="1003" y="-1121.54" font-family="Inter,Arial" font-weight="bold" font-size="10.00" fill="#614000">subtle</text>
<text xml:space="preserve" text-anchor="start" x="1006.38" y="-1111.54" font-family="Inter,Arial" font-size="10.00" fill="#614000">2.6.1</text>
<text xml:space="preserve" text-anchor="start" x="1003" y="-1101.54" font-family="Inter,Arial" font-weight="bold" font-size="10.00" fill="#614000">digest</text>
<text xml:space="preserve" text-anchor="start" x="1003.75" y="-1091.54" font-family="Inter,Arial" font-size="10.00" fill="#614000">0.10.7</text>
</g>
<!-- n0&#45;&gt;out3 -->
<g id="edge67" class="edge">
<title>n0&#45;&gt;out3</title>
<path fill="none" stroke="#d19922" stroke-width="0.9" stroke-dasharray="5,2" d="M86.56,-827.18C93.82,-736.03 129.4,-341.91 208.27,-253.04 368.46,-72.55 515.73,-177.65 750.85,-232.04 815.04,-246.9 852.32,-219.91 893.87,-271.04 940.48,-328.41 915.96,-863.34 933.87,-935.04 947.13,-988.16 975.79,-1044.86 995.54,-1080.13"/>
<polygon fill="#d19922" stroke="#d19922" stroke-width="0.9" points="993.82,-1081 998.21,-1084.84 997.18,-1079.1 993.82,-1081"/>
</g>
<!-- out4 -->
<g id="node32" class="node">
<title>out4</title>
<polygon fill="#fff8e8" stroke="#d19922" points="886.74,-1363.64 791.97,-1363.64 791.97,-1326.44 892.74,-1326.44 892.74,-1357.64 886.74,-1363.64"/>
<polyline fill="none" stroke="#d19922" points="886.74,-1363.64 886.74,-1357.64"/>
<polyline fill="none" stroke="#d19922" points="892.74,-1357.64 886.74,-1357.64"/>
<text xml:space="preserve" text-anchor="start" x="797.73" y="-1351.54" font-family="Inter,Arial" font-size="10.00" fill="#614000">to hmac&#45;v0.12.1.svg</text>
<text xml:space="preserve" text-anchor="start" x="829.61" y="-1341.54" font-family="Inter,Arial" font-weight="bold" font-size="10.00" fill="#614000">hmac</text>
<text xml:space="preserve" text-anchor="start" x="828.86" y="-1331.54" font-family="Inter,Arial" font-size="10.00" fill="#614000">0.12.1</text>
</g>
<!-- n0&#45;&gt;out4 -->
<g id="edge72" class="edge">
<title>n0&#45;&gt;out4</title>
<path fill="none" stroke="#d19922" stroke-width="0.9" stroke-dasharray="5,2" d="M84.69,-865.01C83.08,-977.76 90.08,-1555.04 401.42,-1555.04 401.42,-1555.04 401.42,-1555.04 540.44,-1555.04 668.86,-1555.04 781.62,-1424.84 823.75,-1369.48"/>
<polygon fill="#d19922" stroke="#d19922" stroke-width="0.9" points="825.25,-1370.69 827.02,-1365.14 822.18,-1368.38 825.25,-1370.69"/>
</g>
<!-- out5 -->
<g id="node33" class="node">
<title>out5</title>
<polygon fill="#fff8e8" stroke="#d19922" points="1068.39,-922.64 960.12,-922.64 960.12,-885.44 1074.39,-885.44 1074.39,-916.64 1068.39,-922.64"/>
<polyline fill="none" stroke="#d19922" points="1068.39,-922.64 1068.39,-916.64"/>
<polyline fill="none" stroke="#d19922" points="1074.39,-916.64 1068.39,-916.64"/>
<text xml:space="preserve" text-anchor="start" x="965.88" y="-910.54" font-family="Inter,Arial" font-size="10.00" fill="#614000">to rand_core&#45;v0.6.4.svg</text>
<text xml:space="preserve" text-anchor="start" x="994" y="-900.54" font-family="Inter,Arial" font-weight="bold" font-size="10.00" fill="#614000">rand_core</text>
<text xml:space="preserve" text-anchor="start" x="1006.38" y="-890.54" font-family="Inter,Arial" font-size="10.00" fill="#614000">0.6.4</text>
</g>
<!-- n0&#45;&gt;out5 -->
<g id="edge77" class="edge">
<title>n0&#45;&gt;out5</title>
<path fill="none" stroke="#d19922" stroke-width="0.9" stroke-dasharray="5,2" d="M85.08,-826.96C85.15,-715.61 91.37,-150.97 208.27,-36.04 270.04,24.68 314.8,-10.04 401.42,-10.04 401.42,-10.04 401.42,-10.04 690.59,-10.04 783.52,-10.04 831.27,9.64 893.87,-59.04 1007.05,-183.24 1015.75,-750.18 1016.26,-878.28"/>
<polygon fill="#d19922" stroke="#d19922" stroke-width="0.9" points="1014.33,-878.21 1016.28,-883.7 1018.18,-878.2 1014.33,-878.21"/>
</g>
<!-- out6 -->
<g id="node34" class="node">
<title>out6</title>
<polygon fill="#fff8e8" stroke="#d19922" points="728.72,-864.64 644.45,-864.64 644.45,-727.44 734.72,-727.44 734.72,-858.64 728.72,-864.64"/>
<polyline fill="none" stroke="#d19922" points="728.72,-864.64 728.72,-858.64"/>
<polyline fill="none" stroke="#d19922" points="734.72,-858.64 728.72,-858.64"/>
<text xml:space="preserve" text-anchor="start" x="650.21" y="-852.54" font-family="Inter,Arial" font-size="10.00" fill="#614000">to rsa&#45;v0.9.10.svg</text>
<text xml:space="preserve" text-anchor="start" x="682.09" y="-842.54" font-family="Inter,Arial" font-weight="bold" font-size="10.00" fill="#614000">der</text>
<text xml:space="preserve" text-anchor="start" x="676.09" y="-832.54" font-family="Inter,Arial" font-size="10.00" fill="#614000">0.7.10</text>
<text xml:space="preserve" text-anchor="start" x="667.84" y="-822.54" font-family="Inter,Arial" font-weight="bold" font-size="10.00" fill="#614000">signature</text>
<text xml:space="preserve" text-anchor="start" x="678.71" y="-812.54" font-family="Inter,Arial" font-size="10.00" fill="#614000">2.2.0</text>
<text xml:space="preserve" text-anchor="start" x="679.84" y="-802.54" font-family="Inter,Arial" font-weight="bold" font-size="10.00" fill="#614000">spki</text>
<text xml:space="preserve" text-anchor="start" x="678.71" y="-792.54" font-family="Inter,Arial" font-size="10.00" fill="#614000">0.7.3</text>
<text xml:space="preserve" text-anchor="start" x="676.09" y="-782.54" font-family="Inter,Arial" font-weight="bold" font-size="10.00" fill="#614000">pkcs8</text>
<text xml:space="preserve" text-anchor="start" x="676.09" y="-772.54" font-family="Inter,Arial" font-size="10.00" fill="#614000">0.10.2</text>
<text xml:space="preserve" text-anchor="start" x="661.46" y="-762.54" font-family="Inter,Arial" font-weight="bold" font-size="10.00" fill="#614000">pem&#45;rfc7468</text>
<text xml:space="preserve" text-anchor="start" x="678.71" y="-752.54" font-family="Inter,Arial" font-size="10.00" fill="#614000">0.7.0</text>
<text xml:space="preserve" text-anchor="start" x="682.46" y="-742.54" font-family="Inter,Arial" font-weight="bold" font-size="10.00" fill="#614000">rsa</text>
<text xml:space="preserve" text-anchor="start" x="676.09" y="-732.54" font-family="Inter,Arial" font-size="10.00" fill="#614000">0.9.10</text>
</g>
<!-- n0&#45;&gt;out6 -->
<g id="edge82" class="edge">
<title>n0&#45;&gt;out6</title>
<path fill="none" stroke="#d19922" stroke-width="0.9" stroke-dasharray="5,2" d="M168.73,-839.12C295.7,-828.6 533.39,-808.9 637.52,-800.28"/>
<polygon fill="#d19922" stroke="#d19922" stroke-width="0.9" points="637.5,-802.21 642.82,-799.84 637.18,-798.37 637.5,-802.21"/>
</g>
<!-- out7 -->
<g id="node35" class="node">
<title>out7</title>
<polygon fill="#fff8e8" stroke="#d19922" points="308.29,-125.64 208.27,-125.64 208.27,-48.44 314.29,-48.44 314.29,-119.64 308.29,-125.64"/>
<polyline fill="none" stroke="#d19922" points="308.29,-125.64 308.29,-119.64"/>
<polyline fill="none" stroke="#d19922" points="314.29,-119.64 308.29,-119.64"/>
<text xml:space="preserve" text-anchor="start" x="214.03" y="-113.54" font-family="Inter,Arial" font-size="10.00" fill="#614000">to rustls&#45;v0.23.40.svg</text>
<text xml:space="preserve" text-anchor="start" x="248.15" y="-103.54" font-family="Inter,Arial" font-weight="bold" font-size="10.00" fill="#614000">rustls</text>
<text xml:space="preserve" text-anchor="start" x="245.15" y="-93.54" font-family="Inter,Arial" font-size="10.00" fill="#614000">0.23.40</text>
<text xml:space="preserve" text-anchor="start" x="225.65" y="-83.54" font-family="Inter,Arial" font-weight="bold" font-size="10.00" fill="#614000">rustls&#45;pki&#45;types</text>
<text xml:space="preserve" text-anchor="start" x="247.78" y="-73.54" font-family="Inter,Arial" font-size="10.00" fill="#614000">1.14.1</text>
<text xml:space="preserve" text-anchor="start" x="230.15" y="-63.54" font-family="Inter,Arial" font-weight="bold" font-size="10.00" fill="#614000">rustls&#45;webpki</text>
<text xml:space="preserve" text-anchor="start" x="242.53" y="-53.54" font-family="Inter,Arial" font-size="10.00" fill="#614000">0.103.13</text>
</g>
<!-- n0&#45;&gt;out7 -->
<g id="edge84" class="edge">
<title>n0&#45;&gt;out7</title>
<path fill="none" stroke="#d19922" stroke-width="0.9" stroke-dasharray="5,2" d="M84.75,-827.03C83.76,-742.42 87.54,-393.42 208.27,-145.04 210.51,-140.43 213.24,-135.9 216.25,-131.55"/>
<polygon fill="#d19922" stroke="#d19922" stroke-width="0.9" points="217.71,-132.8 219.4,-127.22 214.6,-130.53 217.71,-132.8"/>
</g>
<!-- out8 -->
<g id="node36" class="node">
<title>out8</title>
<polygon fill="#fff8e8" stroke="#d19922" points="582.33,-871.64 490.56,-871.64 490.56,-834.44 588.33,-834.44 588.33,-865.64 582.33,-871.64"/>
<polyline fill="none" stroke="#d19922" points="582.33,-871.64 582.33,-865.64"/>
<polyline fill="none" stroke="#d19922" points="588.33,-865.64 582.33,-865.64"/>
<text xml:space="preserve" text-anchor="start" x="496.32" y="-859.54" font-family="Inter,Arial" font-size="10.00" fill="#614000">to sha2&#45;v0.10.9.svg</text>
<text xml:space="preserve" text-anchor="start" x="528.57" y="-849.54" font-family="Inter,Arial" font-weight="bold" font-size="10.00" fill="#614000">sha2</text>
<text xml:space="preserve" text-anchor="start" x="525.94" y="-839.54" font-family="Inter,Arial" font-size="10.00" fill="#614000">0.10.9</text>
</g>
<!-- n0&#45;&gt;out8 -->
<g id="edge88" class="edge">
<title>n0&#45;&gt;out8</title>
<path fill="none" stroke="#d19922" stroke-width="0.9" stroke-dasharray="5,2" d="M168.54,-847.33C260.32,-848.75 405.19,-850.99 483.63,-852.2"/>
<polygon fill="#d19922" stroke="#d19922" stroke-width="0.9" points="483.19,-854.12 488.72,-852.28 483.25,-850.27 483.19,-854.12"/>
</g>
<!-- n1&#45;&gt;out0 -->
<g id="edge42" class="edge">
<title>n1&#45;&gt;out0</title>
<path fill="none" stroke="#d19922" stroke-width="0.9" stroke-dasharray="5,2" d="M566.61,-1827.5C608.01,-1814.81 690.15,-1786.56 750.85,-1746.04 765.87,-1736.02 780.55,-1723.29 793.56,-1710.62"/>
<polygon fill="#d19922" stroke="#d19922" stroke-width="0.9" points="794.75,-1712.16 797.31,-1706.92 792.04,-1709.42 794.75,-1712.16"/>
</g>
<!-- n2&#45;&gt;n1 -->
<g id="edge1" class="edge">
<title>n2&#45;&gt;n1</title>
<path fill="none" stroke="#9aa8b8" stroke-width="0.9" d="M285.11,-1913.61C302.94,-1900.12 328.87,-1882.44 354.29,-1872.04 404.73,-1851.43 467.78,-1841.96 505.49,-1837.87"/>
<polygon fill="#9aa8b8" stroke="#9aa8b8" stroke-width="0.9" points="505.61,-1839.8 510.88,-1837.31 505.21,-1835.97 505.61,-1839.8"/>
</g>
<!-- n14 -->
<g id="node15" class="node">
<title>n14</title>
<path fill="#f7f9fb" stroke="#8b9bb0" d="M417.42,-1991.04C417.42,-1991.04 387.42,-1991.04 387.42,-1991.04 381.42,-1991.04 375.42,-1985.04 375.42,-1979.04 375.42,-1979.04 375.42,-1967.04 375.42,-1967.04 375.42,-1961.04 381.42,-1955.04 387.42,-1955.04 387.42,-1955.04 417.42,-1955.04 417.42,-1955.04 423.42,-1955.04 429.42,-1961.04 429.42,-1967.04 429.42,-1967.04 429.42,-1979.04 429.42,-1979.04 429.42,-1985.04 423.42,-1991.04 417.42,-1991.04"/>
<text xml:space="preserve" text-anchor="start" x="388.17" y="-1974.54" font-family="Inter,Arial" font-weight="bold" font-size="10.00" fill="#172033">ghash</text>
<text xml:space="preserve" text-anchor="start" x="391.55" y="-1964.54" font-family="Inter,Arial" font-size="10.00" fill="#172033">0.5.1</text>
</g>
<!-- n2&#45;&gt;n14 -->
<g id="edge2" class="edge">
<title>n2&#45;&gt;n14</title>
<path fill="none" stroke="#9aa8b8" stroke-width="0.9" d="M288.78,-1939.85C311.51,-1946.55 344.35,-1956.23 368.71,-1963.4"/>
<polygon fill="#9aa8b8" stroke="#9aa8b8" stroke-width="0.9" points="367.9,-1965.17 373.72,-1964.88 368.99,-1961.48 367.9,-1965.17"/>
</g>
<!-- n2&#45;&gt;out0 -->
<g id="edge43" class="edge">
<title>n2&#45;&gt;out0</title>
<path fill="none" stroke="#d19922" stroke-width="0.9" stroke-dasharray="5,2" d="M288.53,-1931.96C367.88,-1930.34 608.48,-1915.23 750.85,-1795.04 767.42,-1781.06 782.1,-1763.28 794.56,-1745.18"/>
<polygon fill="#d19922" stroke="#d19922" stroke-width="0.9" points="796.11,-1746.32 797.6,-1740.69 792.92,-1744.17 796.11,-1746.32"/>
</g>
<!-- out2 -->
<g id="node30" class="node">
<title>out2</title>
<polygon fill="#fff8e8" stroke="#d19922" points="437.81,-2160.64 361.04,-2160.64 361.04,-2123.44 443.81,-2123.44 443.81,-2154.64 437.81,-2160.64"/>
<polyline fill="none" stroke="#d19922" points="437.81,-2160.64 437.81,-2154.64"/>
<polyline fill="none" stroke="#d19922" points="443.81,-2154.64 437.81,-2154.64"/>
<text xml:space="preserve" text-anchor="start" x="366.8" y="-2148.54" font-family="Inter,Arial" font-size="10.00" fill="#614000">to ctr&#45;v0.9.2.svg</text>
<text xml:space="preserve" text-anchor="start" x="396.42" y="-2138.54" font-family="Inter,Arial" font-weight="bold" font-size="10.00" fill="#614000">ctr</text>
<text xml:space="preserve" text-anchor="start" x="391.55" y="-2128.54" font-family="Inter,Arial" font-size="10.00" fill="#614000">0.9.2</text>
</g>
<!-- n2&#45;&gt;out2 -->
<g id="edge57" class="edge">
<title>n2&#45;&gt;out2</title>
<path fill="none" stroke="#d19922" stroke-width="0.9" stroke-dasharray="5,2" d="M269.19,-1950.3C282.28,-1983.38 313.14,-2054.36 354.29,-2104.04 358.7,-2109.37 363.97,-2114.48 369.35,-2119.12"/>
<polygon fill="#d19922" stroke="#d19922" stroke-width="0.9" points="367.8,-2120.33 373.26,-2122.37 370.26,-2117.37 367.8,-2120.33"/>
</g>
<!-- n2&#45;&gt;out3 -->
<g id="edge58" class="edge">
<title>n2&#45;&gt;out3</title>
<path fill="none" stroke="#d19922" stroke-width="0.9" stroke-dasharray="5,2" d="M280.1,-1950.5C321.39,-1991.19 428.55,-2085.04 538.44,-2085.04 538.44,-2085.04 538.44,-2085.04 690.59,-2085.04 834.83,-2085.04 842.43,-1966.8 893.87,-1832.04 988.83,-1583.27 1010.39,-1257.85 1015.04,-1150.84"/>
<polygon fill="#d19922" stroke="#d19922" stroke-width="0.9" points="1016.96,-1151.05 1015.26,-1145.47 1013.11,-1150.89 1016.96,-1151.05"/>
</g>
<!-- n3 -->
<g id="node4" class="node">
<title>n3</title>
<path fill="#f7f9fb" stroke="#8b9bb0" d="M554.44,-933.04C554.44,-933.04 524.44,-933.04 524.44,-933.04 518.44,-933.04 512.44,-927.04 512.44,-921.04 512.44,-921.04 512.44,-909.04 512.44,-909.04 512.44,-903.04 518.44,-897.04 524.44,-897.04 524.44,-897.04 554.44,-897.04 554.44,-897.04 560.44,-897.04 566.44,-903.04 566.44,-909.04 566.44,-909.04 566.44,-921.04 566.44,-921.04 566.44,-927.04 560.44,-933.04 554.44,-933.04"/>
<text xml:space="preserve" text-anchor="start" x="519.19" y="-916.54" font-family="Inter,Arial" font-weight="bold" font-size="10.00" fill="#172033">base16ct</text>
<text xml:space="preserve" text-anchor="start" x="528.57" y="-906.54" font-family="Inter,Arial" font-size="10.00" fill="#172033">0.2.0</text>
</g>
<!-- n3&#45;&gt;n24 -->
<!-- n4 -->
<g id="node5" class="node">
<title>n4</title>
<path fill="#f7f9fb" stroke="#8b9bb0" d="M554.95,-1731.04C554.95,-1731.04 523.93,-1731.04 523.93,-1731.04 517.93,-1731.04 511.93,-1725.04 511.93,-1719.04 511.93,-1719.04 511.93,-1707.04 511.93,-1707.04 511.93,-1701.04 517.93,-1695.04 523.93,-1695.04 523.93,-1695.04 554.95,-1695.04 554.95,-1695.04 560.95,-1695.04 566.95,-1701.04 566.95,-1707.04 566.95,-1707.04 566.95,-1719.04 566.95,-1719.04 566.95,-1725.04 560.95,-1731.04 554.95,-1731.04"/>
<text xml:space="preserve" text-anchor="start" x="517.69" y="-1714.54" font-family="Inter,Arial" font-weight="bold" font-size="10.00" fill="#172033">chacha20</text>
<text xml:space="preserve" text-anchor="start" x="528.57" y="-1704.54" font-family="Inter,Arial" font-size="10.00" fill="#172033">0.9.1</text>
</g>
<!-- n4&#45;&gt;out0 -->
<g id="edge44" class="edge">
<title>n4&#45;&gt;out0</title>
<path fill="none" stroke="#d19922" stroke-width="0.9" stroke-dasharray="5,2" d="M567.4,-1708.6C607.48,-1701.92 685.12,-1688.72 750.85,-1676.04 764.26,-1673.46 778.76,-1670.49 792.13,-1667.69"/>
<polygon fill="#d19922" stroke="#d19922" stroke-width="0.9" points="792.28,-1669.62 797.27,-1666.6 791.49,-1665.85 792.28,-1669.62"/>
</g>
<!-- n5&#45;&gt;n1 -->
<g id="edge3" class="edge">
<title>n5&#45;&gt;n1</title>
<path fill="none" stroke="#9aa8b8" stroke-width="0.9" d="M421.43,-1717.46C430.45,-1726.96 441.38,-1738.86 450.56,-1750.04 469.74,-1773.41 468.46,-1784.42 490.56,-1805.04 495.4,-1809.56 501.02,-1813.78 506.67,-1817.55"/>
<polygon fill="#9aa8b8" stroke="#9aa8b8" stroke-width="0.9" points="505.48,-1819.08 511.15,-1820.42 507.56,-1815.84 505.48,-1819.08"/>
</g>
<!-- n5&#45;&gt;n4 -->
<g id="edge4" class="edge">
<title>n5&#45;&gt;n4</title>
<path fill="none" stroke="#9aa8b8" stroke-width="0.9" d="M451.03,-1703.98C468.83,-1705.83 488.67,-1707.88 504.93,-1709.57"/>
<polygon fill="#9aa8b8" stroke="#9aa8b8" stroke-width="0.9" points="504.65,-1711.48 510.32,-1710.13 505.04,-1707.65 504.65,-1711.48"/>
</g>
<!-- n20 -->
<g id="node21" class="node">
<title>n20</title>
<path fill="#f7f9fb" stroke="#8b9bb0" d="M554.44,-1792.04C554.44,-1792.04 524.44,-1792.04 524.44,-1792.04 518.44,-1792.04 512.44,-1786.04 512.44,-1780.04 512.44,-1780.04 512.44,-1768.04 512.44,-1768.04 512.44,-1762.04 518.44,-1756.04 524.44,-1756.04 524.44,-1756.04 554.44,-1756.04 554.44,-1756.04 560.44,-1756.04 566.44,-1762.04 566.44,-1768.04 566.44,-1768.04 566.44,-1780.04 566.44,-1780.04 566.44,-1786.04 560.44,-1792.04 554.44,-1792.04"/>
<text xml:space="preserve" text-anchor="start" x="518.82" y="-1775.54" font-family="Inter,Arial" font-weight="bold" font-size="10.00" fill="#172033">poly1305</text>
<text xml:space="preserve" text-anchor="start" x="528.57" y="-1765.54" font-family="Inter,Arial" font-size="10.00" fill="#172033">0.8.0</text>
</g>
<!-- n5&#45;&gt;n20 -->
<g id="edge5" class="edge">
<title>n5&#45;&gt;n20</title>
<path fill="none" stroke="#9aa8b8" stroke-width="0.9" d="M436.45,-1717.39C457.72,-1729.2 485.23,-1744.48 506.31,-1756.2"/>
<polygon fill="#9aa8b8" stroke="#9aa8b8" stroke-width="0.9" points="505.15,-1757.75 510.89,-1758.74 507.02,-1754.38 505.15,-1757.75"/>
</g>
<!-- n5&#45;&gt;out0 -->
<g id="edge45" class="edge">
<title>n5&#45;&gt;out0</title>
<path fill="none" stroke="#d19922" stroke-width="0.9" stroke-dasharray="5,2" d="M450.76,-1689.4C463.63,-1687.03 477.59,-1684.71 490.56,-1683.04 597.29,-1669.33 723.28,-1662.18 791.46,-1659.05"/>
<polygon fill="#d19922" stroke="#d19922" stroke-width="0.9" points="791.51,-1660.98 796.92,-1658.8 791.34,-1657.13 791.51,-1660.98"/>
</g>
<!-- out9 -->
<g id="node37" class="node">
<title>out9</title>
<polygon fill="#fff8e8" stroke="#d19922" points="887.87,-543.64 790.85,-543.64 790.85,-506.44 893.87,-506.44 893.87,-537.64 887.87,-543.64"/>
<polyline fill="none" stroke="#d19922" points="887.87,-543.64 887.87,-537.64"/>
<polyline fill="none" stroke="#d19922" points="893.87,-537.64 887.87,-537.64"/>
<text xml:space="preserve" text-anchor="start" x="796.61" y="-531.54" font-family="Inter,Arial" font-size="10.00" fill="#614000">to zeroize&#45;v1.8.2.svg</text>
<text xml:space="preserve" text-anchor="start" x="825.48" y="-521.54" font-family="Inter,Arial" font-weight="bold" font-size="10.00" fill="#614000">zeroize</text>
<text xml:space="preserve" text-anchor="start" x="831.48" y="-511.54" font-family="Inter,Arial" font-size="10.00" fill="#614000">1.8.2</text>
</g>
<!-- n5&#45;&gt;out9 -->
<g id="edge89" class="edge">
<title>n5&#45;&gt;out9</title>
<path fill="none" stroke="#d19922" stroke-width="0.9" stroke-dasharray="5,2" d="M409.66,-1680.6C431.87,-1616.75 512.03,-1401.03 628.33,-1255.04 672.48,-1199.63 716.27,-1214.89 750.85,-1153.04 758.39,-1139.55 822.33,-666.65 837.93,-550.57"/>
<polygon fill="#d19922" stroke="#d19922" stroke-width="0.9" points="839.8,-551.13 838.63,-545.42 835.99,-550.61 839.8,-551.13"/>
</g>
<!-- n6 -->
<g id="node7" class="node">
<title>n6</title>
<path fill="#f7f9fb" stroke="#8b9bb0" d="M712.97,-1140.04C712.97,-1140.04 666.2,-1140.04 666.2,-1140.04 660.2,-1140.04 654.2,-1134.04 654.2,-1128.04 654.2,-1128.04 654.2,-1116.04 654.2,-1116.04 654.2,-1110.04 660.2,-1104.04 666.2,-1104.04 666.2,-1104.04 712.97,-1104.04 712.97,-1104.04 718.97,-1104.04 724.97,-1110.04 724.97,-1116.04 724.97,-1116.04 724.97,-1128.04 724.97,-1128.04 724.97,-1134.04 718.97,-1140.04 712.97,-1140.04"/>
<text xml:space="preserve" text-anchor="start" x="659.96" y="-1123.54" font-family="Inter,Arial" font-weight="bold" font-size="10.00" fill="#172033">crypto&#45;bigint</text>
<text xml:space="preserve" text-anchor="start" x="678.71" y="-1113.54" font-family="Inter,Arial" font-size="10.00" fill="#172033">0.5.5</text>
</g>
<!-- n6&#45;&gt;out0 -->
<g id="edge46" class="edge">
<title>n6&#45;&gt;out0</title>
<path fill="none" stroke="#d19922" stroke-width="0.9" stroke-dasharray="5,2" d="M700.41,-1140.5C713.51,-1165.74 736.67,-1212.74 750.85,-1255.04 784.53,-1355.53 809.54,-1474.33 824.64,-1556.61"/>
<polygon fill="#d19922" stroke="#d19922" stroke-width="0.9" points="822.67,-1556.56 825.55,-1561.62 826.46,-1555.86 822.67,-1556.56"/>
</g>
<!-- n6&#45;&gt;out3 -->
<g id="edge59" class="edge">
<title>n6&#45;&gt;out3</title>
<path fill="none" stroke="#d19922" stroke-width="0.9" stroke-dasharray="5,2" d="M725.44,-1121.3C773.11,-1120.27 860.32,-1118.4 926.84,-1116.97"/>
<polygon fill="#d19922" stroke="#d19922" stroke-width="0.9" points="926.8,-1118.89 932.26,-1116.85 926.72,-1115.04 926.8,-1118.89"/>
</g>
<!-- n6&#45;&gt;out5 -->
<g id="edge73" class="edge">
<title>n6&#45;&gt;out5</title>
<path fill="none" stroke="#d19922" stroke-width="0.9" stroke-dasharray="5,2" d="M725.25,-1105.38C733.69,-1101.16 742.65,-1096.54 750.85,-1092.04 815.88,-1056.38 833.42,-1049.03 893.87,-1006.04 928.8,-981.21 966.29,-949.06 990.44,-927.56"/>
<polygon fill="#d19922" stroke="#d19922" stroke-width="0.9" points="991.55,-929.14 994.37,-924.04 988.99,-926.27 991.55,-929.14"/>
</g>
<!-- n6&#45;&gt;out9 -->
<g id="edge90" class="edge">
<title>n6&#45;&gt;out9</title>
<path fill="none" stroke="#d19922" stroke-width="0.9" stroke-dasharray="5,2" d="M725.26,-1111.55C734.91,-1107.02 744.48,-1100.71 750.85,-1092.04 767.25,-1069.71 823.45,-658.37 837.93,-550.68"/>
<polygon fill="#d19922" stroke="#d19922" stroke-width="0.9" points="839.82,-551.09 838.64,-545.38 836,-550.57 839.82,-551.09"/>
</g>
<!-- n7 -->
<g id="node8" class="node">
<title>n7</title>
<path fill="#f7f9fb" stroke="#8b9bb0" d="M572.95,-436.04C572.95,-436.04 505.93,-436.04 505.93,-436.04 499.93,-436.04 493.93,-430.04 493.93,-424.04 493.93,-424.04 493.93,-412.04 493.93,-412.04 493.93,-406.04 499.93,-400.04 505.93,-400.04 505.93,-400.04 572.95,-400.04 572.95,-400.04 578.95,-400.04 584.95,-406.04 584.95,-412.04 584.95,-412.04 584.95,-424.04 584.95,-424.04 584.95,-430.04 578.95,-436.04 572.95,-436.04"/>
<text xml:space="preserve" text-anchor="start" x="499.69" y="-419.54" font-family="Inter,Arial" font-weight="bold" font-size="10.00" fill="#172033">curve25519&#45;dalek</text>
<text xml:space="preserve" text-anchor="start" x="528.57" y="-409.54" font-family="Inter,Arial" font-size="10.00" fill="#172033">4.1.3</text>
</g>
<!-- n8 -->
<g id="node9" class="node">
<title>n8</title>
<path fill="#f7f9fb" stroke="#8b9bb0" d="M738.85,-702.64C738.85,-702.64 640.33,-702.64 640.33,-702.64 634.33,-702.64 628.33,-696.64 628.33,-690.64 628.33,-690.64 628.33,-677.44 628.33,-677.44 628.33,-671.44 634.33,-665.44 640.33,-665.44 640.33,-665.44 738.85,-665.44 738.85,-665.44 744.85,-665.44 750.85,-671.44 750.85,-677.44 750.85,-677.44 750.85,-690.64 750.85,-690.64 750.85,-696.64 744.85,-702.64 738.85,-702.64"/>
<text xml:space="preserve" text-anchor="start" x="634.09" y="-690.54" font-family="Inter,Arial" font-weight="bold" font-size="10.00" fill="#172033">curve25519&#45;dalek&#45;derive</text>
<text xml:space="preserve" text-anchor="start" x="678.71" y="-680.54" font-family="Inter,Arial" font-size="10.00" fill="#172033">0.1.1</text>
<text xml:space="preserve" text-anchor="start" x="665.21" y="-670.54" font-family="Inter,Arial" font-size="10.00" fill="#172033">proc&#45;macro</text>
</g>
<!-- n7&#45;&gt;n8 -->
<g id="edge6" class="edge">
<title>n7&#45;&gt;n8</title>
<path fill="none" stroke="#9aa8b8" stroke-width="0.9" d="M548.52,-436.3C563.16,-468.88 595.57,-538.88 628.33,-595.04 641.54,-617.69 658.39,-642.28 670.92,-659.86"/>
<polygon fill="#9aa8b8" stroke="#9aa8b8" stroke-width="0.9" points="669.1,-660.62 673.86,-663.98 672.23,-658.38 669.1,-660.62"/>
</g>
<!-- n7&#45;&gt;out0 -->
<g id="edge47" class="edge">
<title>n7&#45;&gt;out0</title>
<path fill="none" stroke="#d19922" stroke-width="0.9" stroke-dasharray="5,2" d="M565.41,-436.27C611.86,-471.85 710.5,-555.65 750.85,-653.04 812.44,-801.71 772.14,-1216.22 790.85,-1376.04 797.91,-1436.36 809.78,-1503.31 820.24,-1556.72"/>
<polygon fill="#d19922" stroke="#d19922" stroke-width="0.9" points="818.3,-1556.8 821.25,-1561.83 822.08,-1556.06 818.3,-1556.8"/>
</g>
<!-- n7&#45;&gt;out1 -->
<g id="edge55" class="edge">
<title>n7&#45;&gt;out1</title>
<path fill="none" stroke="#d19922" stroke-width="0.9" stroke-dasharray="5,2" d="M563.59,-399.61C584.19,-383.2 614.97,-358.68 640.84,-338.08"/>
<polygon fill="#d19922" stroke="#d19922" stroke-width="0.9" points="641.77,-339.8 644.87,-334.87 639.37,-336.79 641.77,-339.8"/>
</g>
<!-- n7&#45;&gt;out3 -->
<g id="edge60" class="edge">
<title>n7&#45;&gt;out3</title>
<path fill="none" stroke="#d19922" stroke-width="0.9" stroke-dasharray="5,2" d="M585.33,-410.83C664.74,-400.98 827.8,-394.59 893.87,-494.04 948.32,-576.01 908.59,-839.95 933.87,-935.04 947.94,-987.95 976.39,-1044.7 995.89,-1080.04"/>
<polygon fill="#d19922" stroke="#d19922" stroke-width="0.9" points="994.16,-1080.89 998.51,-1084.76 997.52,-1079.02 994.16,-1080.89"/>
</g>
<!-- n7&#45;&gt;out9 -->
<g id="edge91" class="edge">
<title>n7&#45;&gt;out9</title>
<path fill="none" stroke="#d19922" stroke-width="0.9" stroke-dasharray="5,2" d="M585.36,-419.72C629.24,-422.76 697.08,-431.28 750.85,-455.04 776.26,-466.28 800.92,-486.13 818.06,-501.83"/>
<polygon fill="#d19922" stroke="#d19922" stroke-width="0.9" points="816.36,-502.87 821.7,-505.21 818.98,-500.05 816.36,-502.87"/>
</g>
<!-- n8&#45;&gt;out0 -->
<g id="edge48" class="edge">
<title>n8&#45;&gt;out0</title>
<path fill="none" stroke="#d19922" stroke-width="0.9" stroke-dasharray="5,2" d="M739.46,-703.03C743.89,-706.44 747.83,-710.41 750.85,-715.04 791.05,-776.67 782.1,-1302.99 790.85,-1376.04 798.07,-1436.34 809.95,-1503.29 820.37,-1556.71"/>
<polygon fill="#d19922" stroke="#d19922" stroke-width="0.9" points="818.43,-1556.79 821.37,-1561.82 822.2,-1556.05 818.43,-1556.79"/>
</g>
<!-- n12 -->
<g id="node13" class="node">
<title>n12</title>
<path fill="#f7f9fb" stroke="#8b9bb0" d="M563.2,-1045.04C563.2,-1045.04 515.68,-1045.04 515.68,-1045.04 509.68,-1045.04 503.68,-1039.04 503.68,-1033.04 503.68,-1033.04 503.68,-1021.04 503.68,-1021.04 503.68,-1015.04 509.68,-1009.04 515.68,-1009.04 515.68,-1009.04 563.2,-1009.04 563.2,-1009.04 569.2,-1009.04 575.2,-1015.04 575.2,-1021.04 575.2,-1021.04 575.2,-1033.04 575.2,-1033.04 575.2,-1039.04 569.2,-1045.04 563.2,-1045.04"/>
<text xml:space="preserve" text-anchor="start" x="509.44" y="-1028.54" font-family="Inter,Arial" font-weight="bold" font-size="10.00" fill="#172033">elliptic&#45;curve</text>
<text xml:space="preserve" text-anchor="start" x="525.94" y="-1018.54" font-family="Inter,Arial" font-size="10.00" fill="#172033">0.13.8</text>
</g>
<!-- n9&#45;&gt;n12 -->
<g id="edge7" class="edge">
<title>n9&#45;&gt;n12</title>
<path fill="none" stroke="#9aa8b8" stroke-width="0.9" d="M428.66,-1148.73C435.97,-1143.03 443.81,-1136.53 450.56,-1130.04 476.82,-1104.83 503.48,-1072.43 520.43,-1050.76"/>
<polygon fill="#9aa8b8" stroke="#9aa8b8" stroke-width="0.9" points="521.84,-1052.09 523.69,-1046.57 518.8,-1049.73 521.84,-1052.09"/>
</g>
<!-- n23 -->
<g id="node24" class="node">
<title>n23</title>
<path fill="#f7f9fb" stroke="#8b9bb0" d="M704.59,-1303.04C704.59,-1303.04 674.59,-1303.04 674.59,-1303.04 668.59,-1303.04 662.59,-1297.04 662.59,-1291.04 662.59,-1291.04 662.59,-1279.04 662.59,-1279.04 662.59,-1273.04 668.59,-1267.04 674.59,-1267.04 674.59,-1267.04 704.59,-1267.04 704.59,-1267.04 710.59,-1267.04 716.59,-1273.04 716.59,-1279.04 716.59,-1279.04 716.59,-1291.04 716.59,-1291.04 716.59,-1297.04 710.59,-1303.04 704.59,-1303.04"/>
<text xml:space="preserve" text-anchor="start" x="673.09" y="-1286.54" font-family="Inter,Arial" font-weight="bold" font-size="10.00" fill="#172033">rfc6979</text>
<text xml:space="preserve" text-anchor="start" x="678.71" y="-1276.54" font-family="Inter,Arial" font-size="10.00" fill="#172033">0.4.0</text>
</g>
<!-- n9&#45;&gt;n23 -->
<g id="edge8" class="edge">
<title>n9&#45;&gt;n23</title>
<path fill="none" stroke="#9aa8b8" stroke-width="0.9" d="M429.74,-1177.93C482.05,-1199.58 598.96,-1247.96 656.01,-1271.57"/>
<polygon fill="#9aa8b8" stroke="#9aa8b8" stroke-width="0.9" points="655.26,-1273.34 661.08,-1273.66 656.73,-1269.78 655.26,-1273.34"/>
</g>
<!-- n9&#45;&gt;out3 -->
<g id="edge61" class="edge">
<title>n9&#45;&gt;out3</title>
<path fill="none" stroke="#d19922" stroke-width="0.9" stroke-dasharray="5,2" d="M415.6,-1185.53C445.54,-1229.06 527.69,-1337.36 628.33,-1377.04 640.22,-1381.73 888,-1379.81 893.87,-1376.04 972.8,-1325.49 1001.74,-1209.22 1011.6,-1150.44"/>
<polygon fill="#d19922" stroke="#d19922" stroke-width="0.9" points="1013.46,-1150.99 1012.43,-1145.25 1009.66,-1150.37 1013.46,-1150.99"/>
</g>
<!-- n9&#45;&gt;out6 -->
<g id="edge79" class="edge">
<title>n9&#45;&gt;out6</title>
<path fill="none" stroke="#d19922" stroke-width="0.9" stroke-dasharray="5,2" d="M414.85,-1148.69C424.76,-1132.47 439.26,-1108.04 450.56,-1086.04 470.38,-1047.47 460.8,-1028.59 490.56,-997.04 524.19,-961.39 552.12,-979.07 588.33,-946.04 612.56,-923.95 610.18,-911.35 628.33,-884.04 632.18,-878.26 636.19,-872.28 640.24,-866.29"/>
<polygon fill="#d19922" stroke="#d19922" stroke-width="0.9" points="641.71,-867.55 643.2,-861.91 638.52,-865.39 641.71,-867.55"/>
</g>
<!-- n10 -->
<g id="node11" class="node">
<title>n10</title>
<path fill="#f7f9fb" stroke="#8b9bb0" d="M554.44,-623.04C554.44,-623.04 524.44,-623.04 524.44,-623.04 518.44,-623.04 512.44,-617.04 512.44,-611.04 512.44,-611.04 512.44,-599.04 512.44,-599.04 512.44,-593.04 518.44,-587.04 524.44,-587.04 524.44,-587.04 554.44,-587.04 554.44,-587.04 560.44,-587.04 566.44,-593.04 566.44,-599.04 566.44,-599.04 566.44,-611.04 566.44,-611.04 566.44,-617.04 560.44,-623.04 554.44,-623.04"/>
<text xml:space="preserve" text-anchor="start" x="520.69" y="-606.54" font-family="Inter,Arial" font-weight="bold" font-size="10.00" fill="#172033">ed25519</text>
<text xml:space="preserve" text-anchor="start" x="528.57" y="-596.54" font-family="Inter,Arial" font-size="10.00" fill="#172033">2.2.3</text>
</g>
<!-- n10&#45;&gt;out6 -->
<g id="edge80" class="edge">
<title>n10&#45;&gt;out6</title>
<path fill="none" stroke="#d19922" stroke-width="0.9" stroke-dasharray="5,2" d="M554.65,-623.36C574.19,-648.56 610.35,-695.17 640.17,-733.62"/>
<polygon fill="#d19922" stroke="#d19922" stroke-width="0.9" points="638.42,-734.51 643.32,-737.67 641.47,-732.15 638.42,-734.51"/>
</g>
<!-- n11&#45;&gt;n7 -->
<g id="edge9" class="edge">
<title>n11&#45;&gt;n7</title>
<path fill="none" stroke="#9aa8b8" stroke-width="0.9" d="M424.71,-509.81C442.24,-494.89 467.81,-473.36 490.56,-455.04 496.57,-450.21 503.07,-445.1 509.29,-440.28"/>
<polygon fill="#9aa8b8" stroke="#9aa8b8" stroke-width="0.9" points="510.18,-442.02 513.35,-437.14 507.82,-438.98 510.18,-442.02"/>
</g>
<!-- n11&#45;&gt;n10 -->
<g id="edge10" class="edge">
<title>n11&#45;&gt;n10</title>
<path fill="none" stroke="#9aa8b8" stroke-width="0.9" d="M435.77,-546.49C457.16,-558.69 485.09,-574.62 506.42,-586.78"/>
<polygon fill="#9aa8b8" stroke="#9aa8b8" stroke-width="0.9" points="505.33,-588.38 511.07,-589.43 507.24,-585.03 505.33,-588.38"/>
</g>
<!-- n11&#45;&gt;out3 -->
<g id="edge62" class="edge">
<title>n11&#45;&gt;out3</title>
<path fill="none" stroke="#d19922" stroke-width="0.9" stroke-dasharray="5,2" d="M412.82,-509.73C427.52,-481.89 457.7,-427.83 490.56,-387.04 572.07,-285.89 632.43,-200.62 750.85,-254.04 1036.53,-382.92 855.4,-631.62 933.87,-935.04 947.58,-988.04 976.12,-1044.78 995.73,-1080.08"/>
<polygon fill="#d19922" stroke="#d19922" stroke-width="0.9" points="994.01,-1080.94 998.38,-1084.8 997.37,-1079.06 994.01,-1080.94"/>
</g>
<!-- n11&#45;&gt;out8 -->
<g id="edge85" class="edge">
<title>n11&#45;&gt;out8</title>
<path fill="none" stroke="#d19922" stroke-width="0.9" stroke-dasharray="5,2" d="M408.76,-546.49C420.96,-587.7 452.77,-690.01 490.56,-771.04 499.87,-791 512.5,-812.46 522.46,-828.42"/>
<polygon fill="#d19922" stroke="#d19922" stroke-width="0.9" points="520.71,-829.25 525.27,-832.88 523.97,-827.2 520.71,-829.25"/>
</g>
<!-- n11&#45;&gt;out9 -->
<g id="edge92" class="edge">
<title>n11&#45;&gt;out9</title>
<path fill="none" stroke="#d19922" stroke-width="0.9" stroke-dasharray="5,2" d="M441.14,-527.79C517.96,-527.26 692.95,-526.06 783.97,-525.44"/>
<polygon fill="#d19922" stroke="#d19922" stroke-width="0.9" points="783.79,-527.36 789.28,-525.4 783.77,-523.51 783.79,-527.36"/>
</g>
<!-- n12&#45;&gt;n3 -->
<g id="edge11" class="edge">
<title>n12&#45;&gt;n3</title>
<path fill="none" stroke="#9aa8b8" stroke-width="0.9" d="M550.51,-1008.76C561.74,-985.71 562.67,-962.65 553.31,-939.6"/>
<polygon fill="#9aa8b8" stroke="#9aa8b8" stroke-width="0.9" points="555.11,-938.9 551.11,-934.66 551.59,-940.47 555.11,-938.9"/>
</g>
<!-- n12&#45;&gt;n3 -->
<!-- n12&#45;&gt;n6 -->
<g id="edge12" class="edge">
<title>n12&#45;&gt;n6</title>
<path fill="none" stroke="#9aa8b8" stroke-width="0.9" d="M562.81,-1045.29C580.13,-1058.99 605.02,-1077.78 628.33,-1092.04 634.51,-1095.83 641.23,-1099.54 647.87,-1102.99"/>
<polygon fill="#9aa8b8" stroke="#9aa8b8" stroke-width="0.9" points="646.94,-1104.68 652.72,-1105.46 648.69,-1101.25 646.94,-1104.68"/>
</g>
<!-- n13 -->
<g id="node14" class="node">
<title>n13</title>
<path fill="#f7f9fb" stroke="#8b9bb0" d="M857.36,-950.04C857.36,-950.04 827.36,-950.04 827.36,-950.04 821.36,-950.04 815.36,-944.04 815.36,-938.04 815.36,-938.04 815.36,-926.04 815.36,-926.04 815.36,-920.04 821.36,-914.04 827.36,-914.04 827.36,-914.04 857.36,-914.04 857.36,-914.04 863.36,-914.04 869.36,-920.04 869.36,-926.04 869.36,-926.04 869.36,-938.04 869.36,-938.04 869.36,-944.04 863.36,-950.04 857.36,-950.04"/>
<text xml:space="preserve" text-anchor="start" x="839.36" y="-933.54" font-family="Inter,Arial" font-weight="bold" font-size="10.00" fill="#172033">ff</text>
<text xml:space="preserve" text-anchor="start" x="828.86" y="-923.54" font-family="Inter,Arial" font-size="10.00" fill="#172033">0.13.1</text>
</g>
<!-- n12&#45;&gt;n13 -->
<g id="edge13" class="edge">
<title>n12&#45;&gt;n13</title>
<path fill="none" stroke="#9aa8b8" stroke-width="0.9" d="M575.62,-1019.98C617.86,-1011.05 690.55,-994.26 750.85,-973.04 770.56,-966.11 791.88,-956.56 808.88,-948.42"/>
<polygon fill="#9aa8b8" stroke="#9aa8b8" stroke-width="0.9" points="809.59,-950.21 813.7,-946.09 807.91,-946.75 809.59,-950.21"/>
</g>
<!-- n15 -->
<g id="node16" class="node">
<title>n15</title>
<path fill="#f7f9fb" stroke="#8b9bb0" d="M704.59,-1079.04C704.59,-1079.04 674.59,-1079.04 674.59,-1079.04 668.59,-1079.04 662.59,-1073.04 662.59,-1067.04 662.59,-1067.04 662.59,-1055.04 662.59,-1055.04 662.59,-1049.04 668.59,-1043.04 674.59,-1043.04 674.59,-1043.04 704.59,-1043.04 704.59,-1043.04 710.59,-1043.04 716.59,-1049.04 716.59,-1055.04 716.59,-1055.04 716.59,-1067.04 716.59,-1067.04 716.59,-1073.04 710.59,-1079.04 704.59,-1079.04"/>
<text xml:space="preserve" text-anchor="start" x="675.71" y="-1062.54" font-family="Inter,Arial" font-weight="bold" font-size="10.00" fill="#172033">group</text>
<text xml:space="preserve" text-anchor="start" x="676.09" y="-1052.54" font-family="Inter,Arial" font-size="10.00" fill="#172033">0.13.0</text>
</g>
<!-- n12&#45;&gt;n15 -->
<g id="edge14" class="edge">
<title>n12&#45;&gt;n15</title>
<path fill="none" stroke="#9aa8b8" stroke-width="0.9" d="M575.55,-1035.1C599.95,-1040.7 632.24,-1048.11 656.06,-1053.58"/>
<polygon fill="#9aa8b8" stroke="#9aa8b8" stroke-width="0.9" points="655.42,-1055.41 661.21,-1054.76 656.28,-1051.66 655.42,-1055.41"/>
</g>
<!-- n16 -->
<g id="node17" class="node">
<title>n16</title>
<path fill="#f7f9fb" stroke="#8b9bb0" d="M704.59,-1364.04C704.59,-1364.04 674.59,-1364.04 674.59,-1364.04 668.59,-1364.04 662.59,-1358.04 662.59,-1352.04 662.59,-1352.04 662.59,-1340.04 662.59,-1340.04 662.59,-1334.04 668.59,-1328.04 674.59,-1328.04 674.59,-1328.04 704.59,-1328.04 704.59,-1328.04 710.59,-1328.04 716.59,-1334.04 716.59,-1340.04 716.59,-1340.04 716.59,-1352.04 716.59,-1352.04 716.59,-1358.04 710.59,-1364.04 704.59,-1364.04"/>
<text xml:space="preserve" text-anchor="start" x="679.46" y="-1347.54" font-family="Inter,Arial" font-weight="bold" font-size="10.00" fill="#172033">hkdf</text>
<text xml:space="preserve" text-anchor="start" x="676.09" y="-1337.54" font-family="Inter,Arial" font-size="10.00" fill="#172033">0.12.4</text>
</g>
<!-- n12&#45;&gt;n16 -->
<g id="edge15" class="edge">
<title>n12&#45;&gt;n16</title>
<path fill="none" stroke="#9aa8b8" stroke-width="0.9" d="M541.15,-1045.29C543.96,-1094.69 558.06,-1232.96 628.33,-1316.04 635.58,-1324.62 645.87,-1330.98 655.91,-1335.58"/>
<polygon fill="#9aa8b8" stroke="#9aa8b8" stroke-width="0.9" points="655.02,-1337.3 660.84,-1337.69 656.54,-1333.76 655.02,-1337.3"/>
</g>
<!-- n12&#45;&gt;n24 -->
<g id="edge16" class="edge">
<title>n12&#45;&gt;n24</title>
<path fill="none" stroke="#9aa8b8" stroke-width="0.9" d="M503.55,-1010.28C490.72,-1002.31 477.68,-991.44 470.56,-977.54 441.56,-920.99 450.87,-894.97 470.56,-834.54 479.53,-807.02 499.88,-780.84 516.15,-763.04"/>
<polygon fill="#9aa8b8" stroke="#9aa8b8" stroke-width="0.9" points="517.34,-764.58 519.69,-759.25 514.53,-761.96 517.34,-764.58"/>
</g>
<!-- n12&#45;&gt;out0 -->
<g id="edge49" class="edge">
<title>n12&#45;&gt;out0</title>
<path fill="none" stroke="#d19922" stroke-width="0.9" stroke-dasharray="5,2" d="M539.96,-1045.46C539.11,-1109.26 543.02,-1324.88 628.33,-1472.04 639.03,-1490.5 733.85,-1569.54 793.33,-1618.14"/>
<polygon fill="#d19922" stroke="#d19922" stroke-width="0.9" points="792.08,-1619.6 797.56,-1621.59 794.51,-1616.62 792.08,-1619.6"/>
</g>
<!-- n12&#45;&gt;out3 -->
<g id="edge63" class="edge">
<title>n12&#45;&gt;out3</title>
<path fill="none" stroke="#d19922" stroke-width="0.9" stroke-dasharray="5,2" d="M546.88,-1045.48C558.17,-1074.58 584.59,-1130.22 628.33,-1153.04 726.56,-1204.3 857.83,-1174.44 939.69,-1146.27"/>
<polygon fill="#d19922" stroke="#d19922" stroke-width="0.9" points="940.14,-1148.15 944.7,-1144.52 938.87,-1144.51 940.14,-1148.15"/>
</g>
<!-- n12&#45;&gt;out5 -->
<g id="edge74" class="edge">
<title>n12&#45;&gt;out5</title>
<path fill="none" stroke="#d19922" stroke-width="0.9" stroke-dasharray="5,2" d="M566.14,-1008.65C583.23,-996.94 606.48,-981.96 628.33,-971.04 680.36,-945.05 698.24,-949.85 750.85,-925.04 769.4,-916.3 771.04,-907.33 790.85,-902.04 844.19,-887.8 907.18,-889.86 953,-894.59"/>
<polygon fill="#d19922" stroke="#d19922" stroke-width="0.9" points="952.6,-896.48 958.28,-895.15 953.01,-892.65 952.6,-896.48"/>
</g>
<!-- n12&#45;&gt;out6 -->
<g id="edge81" class="edge">
<title>n12&#45;&gt;out6</title>
<path fill="none" stroke="#d19922" stroke-width="0.9" stroke-dasharray="5,2" d="M569.64,-1008.6C576.45,-1003.26 583.21,-996.97 588.33,-990.04 618.28,-949.56 605.05,-928.69 628.33,-884.04 632.08,-876.85 636.32,-869.54 640.76,-862.36"/>
<polygon fill="#d19922" stroke="#d19922" stroke-width="0.9" points="642.16,-863.74 643.46,-858.06 638.9,-861.69 642.16,-863.74"/>
</g>
<!-- n12&#45;&gt;out9 -->
<g id="edge93" class="edge">
<title>n12&#45;&gt;out9</title>
<path fill="none" stroke="#d19922" stroke-width="0.9" stroke-dasharray="5,2" d="M567.98,-1008.6C574.98,-1003.32 582.23,-997.3 588.33,-991.04 609.69,-969.15 604.86,-954.66 628.33,-935.04 674.55,-896.4 712.49,-923.5 750.85,-877.04 832.66,-777.95 841.59,-613.76 841.82,-550.75"/>
<polygon fill="#d19922" stroke="#d19922" stroke-width="0.9" points="843.74,-550.79 841.81,-545.29 839.89,-550.79 843.74,-550.79"/>
</g>
<!-- n13&#45;&gt;out3 -->
<g id="edge64" class="edge">
<title>n13&#45;&gt;out3</title>
<path fill="none" stroke="#d19922" stroke-width="0.9" stroke-dasharray="5,2" d="M860.57,-950.26C889.46,-980.84 948.13,-1042.94 984.62,-1081.56"/>
<polygon fill="#d19922" stroke="#d19922" stroke-width="0.9" points="982.84,-1082.48 988.02,-1085.16 985.64,-1079.84 982.84,-1082.48"/>
</g>
<!-- n13&#45;&gt;out5 -->
<g id="edge75" class="edge">
<title>n13&#45;&gt;out5</title>
<path fill="none" stroke="#d19922" stroke-width="0.9" stroke-dasharray="5,2" d="M869.62,-927.79C891.75,-924.21 924.33,-918.93 953.16,-914.26"/>
<polygon fill="#d19922" stroke="#d19922" stroke-width="0.9" points="953.17,-916.21 958.29,-913.43 952.55,-912.41 953.17,-916.21"/>
</g>
<!-- n17 -->
<g id="node18" class="node">
<title>n17</title>
<path fill="#f7f9fb" stroke="#8b9bb0" d="M716.72,-2047.04C716.72,-2047.04 662.45,-2047.04 662.45,-2047.04 656.45,-2047.04 650.45,-2041.04 650.45,-2035.04 650.45,-2035.04 650.45,-2023.04 650.45,-2023.04 650.45,-2017.04 656.45,-2011.04 662.45,-2011.04 662.45,-2011.04 716.72,-2011.04 716.72,-2011.04 722.72,-2011.04 728.72,-2017.04 728.72,-2023.04 728.72,-2023.04 728.72,-2035.04 728.72,-2035.04 728.72,-2041.04 722.72,-2047.04 716.72,-2047.04"/>
<text xml:space="preserve" text-anchor="start" x="656.21" y="-2030.54" font-family="Inter,Arial" font-weight="bold" font-size="10.00" fill="#172033">opaque&#45;debug</text>
<text xml:space="preserve" text-anchor="start" x="678.71" y="-2020.54" font-family="Inter,Arial" font-size="10.00" fill="#172033">0.3.1</text>
</g>
<!-- n14&#45;&gt;n17 -->
<g id="edge17" class="edge">
<title>n14&#45;&gt;n17</title>
<path fill="none" stroke="#9aa8b8" stroke-width="0.9" d="M429.67,-1984.06C446.74,-1990.8 469.63,-1999.06 490.56,-2004.04 542.19,-2016.33 602.91,-2022.87 643.37,-2026.13"/>
<polygon fill="#9aa8b8" stroke="#9aa8b8" stroke-width="0.9" points="643.2,-2028.05 648.83,-2026.56 643.5,-2024.21 643.2,-2028.05"/>
</g>
<!-- n21 -->
<g id="node22" class="node">
<title>n21</title>
<path fill="#f7f9fb" stroke="#8b9bb0" d="M554.44,-1991.04C554.44,-1991.04 524.44,-1991.04 524.44,-1991.04 518.44,-1991.04 512.44,-1985.04 512.44,-1979.04 512.44,-1979.04 512.44,-1967.04 512.44,-1967.04 512.44,-1961.04 518.44,-1955.04 524.44,-1955.04 524.44,-1955.04 554.44,-1955.04 554.44,-1955.04 560.44,-1955.04 566.44,-1961.04 566.44,-1967.04 566.44,-1967.04 566.44,-1979.04 566.44,-1979.04 566.44,-1985.04 560.44,-1991.04 554.44,-1991.04"/>
<text xml:space="preserve" text-anchor="start" x="522.57" y="-1974.54" font-family="Inter,Arial" font-weight="bold" font-size="10.00" fill="#172033">polyval</text>
<text xml:space="preserve" text-anchor="start" x="528.57" y="-1964.54" font-family="Inter,Arial" font-size="10.00" fill="#172033">0.6.2</text>
</g>
<!-- n14&#45;&gt;n21 -->
<g id="edge18" class="edge">
<title>n14&#45;&gt;n21</title>
<path fill="none" stroke="#9aa8b8" stroke-width="0.9" d="M429.78,-1973.04C451.43,-1973.04 482.22,-1973.04 505.5,-1973.04"/>
<polygon fill="#9aa8b8" stroke="#9aa8b8" stroke-width="0.9" points="505.3,-1974.97 510.8,-1973.04 505.3,-1971.12 505.3,-1974.97"/>
</g>
<!-- n15&#45;&gt;n13 -->
<g id="edge19" class="edge">
<title>n15&#45;&gt;n13</title>
<path fill="none" stroke="#9aa8b8" stroke-width="0.9" d="M717.06,-1047.79C728.19,-1041.48 740.85,-1033.3 750.85,-1024.04 773.04,-1003.52 769.51,-990.45 790.85,-969.04 796.48,-963.39 803.04,-957.94 809.53,-953.03"/>
<polygon fill="#9aa8b8" stroke="#9aa8b8" stroke-width="0.9" points="810.56,-954.67 813.85,-949.86 808.28,-951.56 810.56,-954.67"/>
</g>
<!-- n15&#45;&gt;out3 -->
<g id="edge65" class="edge">
<title>n15&#45;&gt;out3</title>
<path fill="none" stroke="#d19922" stroke-width="0.9" stroke-dasharray="5,2" d="M716.96,-1065.42C762.07,-1072.9 856,-1088.47 926.68,-1100.19"/>
<polygon fill="#d19922" stroke="#d19922" stroke-width="0.9" points="926.36,-1102.09 932.1,-1101.09 926.99,-1098.29 926.36,-1102.09"/>
</g>
<!-- n15&#45;&gt;out5 -->
<g id="edge76" class="edge">
<title>n15&#45;&gt;out5</title>
<path fill="none" stroke="#d19922" stroke-width="0.9" stroke-dasharray="5,2" d="M716.96,-1048.33C772.38,-1021.61 901.48,-959.38 970.62,-926.05"/>
<polygon fill="#d19922" stroke="#d19922" stroke-width="0.9" points="971.37,-927.82 975.48,-923.7 969.69,-924.35 971.37,-927.82"/>
</g>
<!-- n16&#45;&gt;out4 -->
<g id="edge70" class="edge">
<title>n16&#45;&gt;out4</title>
<path fill="none" stroke="#d19922" stroke-width="0.9" stroke-dasharray="5,2" d="M716.85,-1345.87C735.59,-1345.75 761.5,-1345.57 784.83,-1345.42"/>
<polygon fill="#d19922" stroke="#d19922" stroke-width="0.9" points="784.8,-1347.35 790.29,-1345.38 784.78,-1343.5 784.8,-1347.35"/>
</g>
<!-- n18&#45;&gt;n9 -->
<g id="edge20" class="edge">
<title>n18&#45;&gt;n9</title>
<path fill="none" stroke="#9aa8b8" stroke-width="0.9" d="M274.91,-966.25C285.58,-981.76 301.19,-1004.7 314.29,-1025.04 340.76,-1066.13 370.25,-1114.85 387.24,-1143.22"/>
<polygon fill="#9aa8b8" stroke="#9aa8b8" stroke-width="0.9" points="385.5,-1144.05 389.97,-1147.79 388.8,-1142.08 385.5,-1144.05"/>
</g>
<!-- n18&#45;&gt;n12 -->
<g id="edge21" class="edge">
<title>n18&#45;&gt;n12</title>
<path fill="none" stroke="#9aa8b8" stroke-width="0.9" d="M288.76,-955.62C336.99,-969.42 439.47,-998.73 497.01,-1015.19"/>
<polygon fill="#9aa8b8" stroke="#9aa8b8" stroke-width="0.9" points="496.33,-1017 502.15,-1016.66 497.39,-1013.3 496.33,-1017"/>
</g>
<!-- n22 -->
<g id="node23" class="node">
<title>n22</title>
<path fill="#f7f9fb" stroke="#8b9bb0" d="M422.06,-1073.04C422.06,-1073.04 382.79,-1073.04 382.79,-1073.04 376.79,-1073.04 370.79,-1067.04 370.79,-1061.04 370.79,-1061.04 370.79,-1049.04 370.79,-1049.04 370.79,-1043.04 376.79,-1037.04 382.79,-1037.04 382.79,-1037.04 422.06,-1037.04 422.06,-1037.04 428.06,-1037.04 434.06,-1043.04 434.06,-1049.04 434.06,-1049.04 434.06,-1061.04 434.06,-1061.04 434.06,-1067.04 428.06,-1073.04 422.06,-1073.04"/>
<text xml:space="preserve" text-anchor="start" x="376.55" y="-1056.54" font-family="Inter,Arial" font-weight="bold" font-size="10.00" fill="#172033">primeorder</text>
<text xml:space="preserve" text-anchor="start" x="388.92" y="-1046.54" font-family="Inter,Arial" font-size="10.00" fill="#172033">0.13.6</text>
</g>
<!-- n18&#45;&gt;n22 -->
<g id="edge22" class="edge">
<title>n18&#45;&gt;n22</title>
<path fill="none" stroke="#9aa8b8" stroke-width="0.9" d="M286.2,-966.44C310.14,-984.85 346.99,-1013.18 372.54,-1032.84"/>
<polygon fill="#9aa8b8" stroke="#9aa8b8" stroke-width="0.9" points="371.2,-1034.23 376.74,-1036.06 373.55,-1031.18 371.2,-1034.23"/>
</g>
<!-- n18&#45;&gt;out8 -->
<g id="edge86" class="edge">
<title>n18&#45;&gt;out8</title>
<path fill="none" stroke="#d19922" stroke-width="0.9" stroke-dasharray="5,2" d="M288.76,-938.94C333.5,-923.54 424.94,-892.09 483.88,-871.82"/>
<polygon fill="#d19922" stroke="#d19922" stroke-width="0.9" points="484.32,-873.7 488.9,-870.09 483.07,-870.06 484.32,-873.7"/>
</g>
<!-- n19&#45;&gt;n9 -->
<g id="edge23" class="edge">
<title>n19&#45;&gt;n9</title>
<path fill="none" stroke="#9aa8b8" stroke-width="0.9" d="M284.5,-1073.35C303.08,-1088.6 330.31,-1110.86 354.29,-1130.04 360.26,-1134.82 366.68,-1139.9 372.8,-1144.71"/>
<polygon fill="#9aa8b8" stroke="#9aa8b8" stroke-width="0.9" points="371.28,-1145.96 376.79,-1147.84 373.65,-1142.93 371.28,-1145.96"/>
</g>
<!-- n19&#45;&gt;n12 -->
<g id="edge24" class="edge">
<title>n19&#45;&gt;n12</title>
<path fill="none" stroke="#9aa8b8" stroke-width="0.9" d="M288.67,-1066.83C325.55,-1081.65 394.31,-1103.18 450.56,-1086.04 474.14,-1078.86 497.14,-1063.01 513.69,-1049.55"/>
<polygon fill="#9aa8b8" stroke="#9aa8b8" stroke-width="0.9" points="514.56,-1051.32 517.56,-1046.33 512.1,-1048.36 514.56,-1051.32"/>
</g>
<!-- n19&#45;&gt;n22 -->
<g id="edge25" class="edge">
<title>n19&#45;&gt;n22</title>
<path fill="none" stroke="#9aa8b8" stroke-width="0.9" d="M288.78,-1055.04C309.95,-1055.04 339.9,-1055.04 363.59,-1055.04"/>
<polygon fill="#9aa8b8" stroke="#9aa8b8" stroke-width="0.9" points="363.55,-1056.97 369.05,-1055.04 363.55,-1053.12 363.55,-1056.97"/>
</g>
<!-- n19&#45;&gt;out8 -->
<g id="edge87" class="edge">
<title>n19&#45;&gt;out8</title>
<path fill="none" stroke="#d19922" stroke-width="0.9" stroke-dasharray="5,2" d="M288.54,-1036.7C325.27,-1010.87 393.85,-962.01 450.56,-918.04 468.78,-903.92 472.07,-898.8 490.56,-885.04 494.68,-881.98 499.07,-878.86 503.46,-875.83"/>
<polygon fill="#d19922" stroke="#d19922" stroke-width="0.9" points="504.42,-877.51 507.87,-872.81 502.25,-874.33 504.42,-877.51"/>
</g>
<!-- n20&#45;&gt;n17 -->
<g id="edge26" class="edge">
<title>n20&#45;&gt;n17</title>
<path fill="none" stroke="#9aa8b8" stroke-width="0.9" d="M566.57,-1786.26C574.55,-1791.11 582.69,-1797.39 588.33,-1805.04 627.45,-1858.19 599.26,-1888.8 628.33,-1948.04 638.67,-1969.11 654.67,-1990.29 667.59,-2005.71"/>
<polygon fill="#9aa8b8" stroke="#9aa8b8" stroke-width="0.9" points="665.93,-2006.73 670.96,-2009.67 668.86,-2004.23 665.93,-2006.73"/>
</g>
<!-- n25 -->
<g id="node26" class="node">
<title>n25</title>
<path fill="#f7f9fb" stroke="#8b9bb0" d="M717.47,-1935.04C717.47,-1935.04 661.7,-1935.04 661.7,-1935.04 655.7,-1935.04 649.7,-1929.04 649.7,-1923.04 649.7,-1923.04 649.7,-1911.04 649.7,-1911.04 649.7,-1905.04 655.7,-1899.04 661.7,-1899.04 661.7,-1899.04 717.47,-1899.04 717.47,-1899.04 723.47,-1899.04 729.47,-1905.04 729.47,-1911.04 729.47,-1911.04 729.47,-1923.04 729.47,-1923.04 729.47,-1929.04 723.47,-1935.04 717.47,-1935.04"/>
<text xml:space="preserve" text-anchor="start" x="655.46" y="-1918.54" font-family="Inter,Arial" font-weight="bold" font-size="10.00" fill="#172033">universal&#45;hash</text>
<text xml:space="preserve" text-anchor="start" x="678.71" y="-1908.54" font-family="Inter,Arial" font-size="10.00" fill="#172033">0.5.1</text>
</g>
<!-- n20&#45;&gt;n25 -->
<g id="edge27" class="edge">
<title>n20&#45;&gt;n25</title>
<path fill="none" stroke="#9aa8b8" stroke-width="0.9" d="M566.69,-1789.25C573.98,-1793.95 581.71,-1799.38 588.33,-1805.04 620.23,-1832.33 651.62,-1869.54 670.55,-1893.43"/>
<polygon fill="#9aa8b8" stroke="#9aa8b8" stroke-width="0.9" points="668.87,-1894.41 673.78,-1897.54 671.9,-1892.03 668.87,-1894.41"/>
</g>
<!-- n20&#45;&gt;out0 -->
<g id="edge50" class="edge">
<title>n20&#45;&gt;out0</title>
<path fill="none" stroke="#d19922" stroke-width="0.9" stroke-dasharray="5,2" d="M566.92,-1767.17C607.37,-1756.31 686.62,-1733.54 750.85,-1706.04 764.67,-1700.13 779.18,-1692.81 792.43,-1685.65"/>
<polygon fill="#d19922" stroke="#d19922" stroke-width="0.9" points="793.33,-1687.36 797.23,-1683.03 791.48,-1683.98 793.33,-1687.36"/>
</g>
<!-- n21&#45;&gt;n17 -->
<g id="edge28" class="edge">
<title>n21&#45;&gt;n17</title>
<path fill="none" stroke="#9aa8b8" stroke-width="0.9" d="M566.93,-1983.06C588.26,-1991.12 618.72,-2002.63 643.82,-2012.12"/>
<polygon fill="#9aa8b8" stroke="#9aa8b8" stroke-width="0.9" points="642.98,-2013.86 648.81,-2014.01 644.34,-2010.26 642.98,-2013.86"/>
</g>
<!-- n21&#45;&gt;n25 -->
<g id="edge29" class="edge">
<title>n21&#45;&gt;n25</title>
<path fill="none" stroke="#9aa8b8" stroke-width="0.9" d="M566.93,-1963.03C588.03,-1955.06 618.06,-1943.71 643.01,-1934.28"/>
<polygon fill="#9aa8b8" stroke="#9aa8b8" stroke-width="0.9" points="643.49,-1936.15 647.96,-1932.4 642.13,-1932.55 643.49,-1936.15"/>
</g>
<!-- n21&#45;&gt;out0 -->
<g id="edge51" class="edge">
<title>n21&#45;&gt;out0</title>
<path fill="none" stroke="#d19922" stroke-width="0.9" stroke-dasharray="5,2" d="M566.88,-1978.22C610.54,-1985.13 698.1,-1991.91 750.85,-1948.04 806.5,-1901.76 828.52,-1821.85 836.96,-1757.46"/>
<polygon fill="#d19922" stroke="#d19922" stroke-width="0.9" points="838.84,-1757.93 837.61,-1752.23 835.02,-1757.45 838.84,-1757.93"/>
</g>
<!-- n22&#45;&gt;n12 -->
<g id="edge30" class="edge">
<title>n22&#45;&gt;n12</title>
<path fill="none" stroke="#9aa8b8" stroke-width="0.9" d="M434.4,-1048.62C452.87,-1044.79 476.55,-1039.88 496.66,-1035.71"/>
<polygon fill="#9aa8b8" stroke="#9aa8b8" stroke-width="0.9" points="497,-1037.61 501.99,-1034.6 496.22,-1033.84 497,-1037.61"/>
</g>
<!-- n23&#45;&gt;out3 -->
<g id="edge66" class="edge">
<title>n23&#45;&gt;out3</title>
<path fill="none" stroke="#d19922" stroke-width="0.9" stroke-dasharray="5,2" d="M717.08,-1278.3C757.01,-1267.51 834.28,-1244.15 893.87,-1211.04 925.03,-1193.73 956.6,-1168.74 979.87,-1148.6"/>
<polygon fill="#d19922" stroke="#d19922" stroke-width="0.9" points="981.1,-1150.08 983.98,-1145.02 978.57,-1147.18 981.1,-1150.08"/>
</g>
<!-- n23&#45;&gt;out4 -->
<g id="edge71" class="edge">
<title>n23&#45;&gt;out4</title>
<path fill="none" stroke="#d19922" stroke-width="0.9" stroke-dasharray="5,2" d="M716.85,-1295.5C736.21,-1303.2 763.23,-1313.95 787.16,-1323.47"/>
<polygon fill="#d19922" stroke="#d19922" stroke-width="0.9" points="786.4,-1325.24 792.22,-1325.49 787.82,-1321.67 786.4,-1325.24"/>
</g>
<!-- n24&#45;&gt;n3 -->
<g id="edge40" class="edge">
<title>n24&#45;&gt;n3</title>
<path fill="none" stroke="#9aa8b8" stroke-width="0.9" d="M512.23,-752.36C499.1,-759.87 484.62,-770.85 477.23,-785.38 468.13,-803.27 467.54,-858.13 477.23,-875.71 483.58,-887.24 494.9,-895.87 506.16,-902.05"/>
<polygon fill="#9aa8b8" stroke="#9aa8b8" stroke-width="0.9" points="505.03,-903.64 510.8,-904.44 506.79,-900.21 505.03,-903.64"/>
</g>
<!-- n24&#45;&gt;out0 -->
<g id="edge53" class="edge">
<title>n24&#45;&gt;out0</title>
<path fill="none" stroke="#d19922" stroke-width="0.9" stroke-dasharray="5,2" d="M554.51,-758.43C565.83,-774.33 581.02,-798.42 588.33,-822.04 624.9,-940.17 569.4,-1268.34 628.33,-1377.04 660.91,-1437.15 707.54,-1417.15 750.85,-1470.04 771.95,-1495.81 789.61,-1527.32 803.56,-1557.08"/>
<polygon fill="#d19922" stroke="#d19922" stroke-width="0.9" points="801.67,-1557.59 805.72,-1561.77 805.16,-1555.97 801.67,-1557.59"/>
</g>
<!-- n24&#45;&gt;out3 -->
<g id="edge68" class="edge">
<title>n24&#45;&gt;out3</title>
<path fill="none" stroke="#d19922" stroke-width="0.9" stroke-dasharray="5,2" d="M552.11,-721.89C566.9,-700.74 594.57,-666.93 628.33,-653.04 678.69,-632.33 703.72,-625.77 750.85,-653.04 793.19,-677.55 946.77,-977.01 998.85,-1080.29"/>
<polygon fill="#d19922" stroke="#d19922" stroke-width="0.9" points="997.03,-1080.96 1001.23,-1085.01 1000.47,-1079.23 997.03,-1080.96"/>
</g>
<!-- n24&#45;&gt;out6 -->
<g id="edge83" class="edge">
<title>n24&#45;&gt;out6</title>
<path fill="none" stroke="#d19922" stroke-width="0.9" stroke-dasharray="5,2" d="M566.93,-750.06C586.56,-757.48 613.94,-767.82 637.74,-776.82"/>
<polygon fill="#d19922" stroke="#d19922" stroke-width="0.9" points="636.93,-778.58 642.76,-778.72 638.3,-774.97 636.93,-778.58"/>
</g>
<!-- n24&#45;&gt;out9 -->
<g id="edge94" class="edge">
<title>n24&#45;&gt;out9</title>
<path fill="none" stroke="#d19922" stroke-width="0.9" stroke-dasharray="5,2" d="M548.23,-721.67C561.03,-693.51 589.07,-639.63 628.33,-608.04 674.02,-571.29 737.92,-549.31 783.8,-537.3"/>
<polygon fill="#d19922" stroke="#d19922" stroke-width="0.9" points="784.26,-539.17 789.11,-535.94 783.31,-535.44 784.26,-539.17"/>
</g>
<!-- n25&#45;&gt;out0 -->
<g id="edge54" class="edge">
<title>n25&#45;&gt;out0</title>
<path fill="none" stroke="#d19922" stroke-width="0.9" stroke-dasharray="5,2" d="M728.81,-1898.65C736.85,-1893.48 744.74,-1887.26 750.85,-1880.04 780.65,-1844.87 801.58,-1798.59 815.74,-1757.31"/>
<polygon fill="#d19922" stroke="#d19922" stroke-width="0.9" points="817.5,-1758.12 817.43,-1752.29 813.85,-1756.89 817.5,-1758.12"/>
</g>
<!-- n25&#45;&gt;out3 -->
<g id="edge69" class="edge">
<title>n25&#45;&gt;out3</title>
<path fill="none" stroke="#d19922" stroke-width="0.9" stroke-dasharray="5,2" d="M729.74,-1899.13C777.04,-1875.26 855.1,-1828.33 893.87,-1763.04 956.91,-1656.89 1000.6,-1269.68 1012.79,-1150.32"/>
<polygon fill="#d19922" stroke="#d19922" stroke-width="0.9" points="1014.67,-1150.86 1013.31,-1145.19 1010.84,-1150.47 1014.67,-1150.86"/>
</g>
<!-- n26&#45;&gt;n7 -->
<g id="edge41" class="edge">
<title>n26&#45;&gt;n7</title>
<path fill="none" stroke="#9aa8b8" stroke-width="0.9" d="M416.86,-253.26C441.47,-286.61 493.72,-357.43 521.02,-394.43"/>
<polygon fill="#9aa8b8" stroke="#9aa8b8" stroke-width="0.9" points="519.24,-395.25 524.05,-398.53 522.33,-392.97 519.24,-395.25"/>
</g>
<!-- n26&#45;&gt;out5 -->
<g id="edge78" class="edge">
<title>n26&#45;&gt;out5</title>
<path fill="none" stroke="#d19922" stroke-width="0.9" stroke-dasharray="5,2" d="M426.35,-216.56C502.53,-157.46 750.46,16.02 893.87,-107.04 1014.03,-210.16 1017.39,-753.41 1016.55,-878.39"/>
<polygon fill="#d19922" stroke="#d19922" stroke-width="0.9" points="1014.63,-878.15 1016.51,-883.66 1018.48,-878.18 1014.63,-878.15"/>
</g>
<!-- n26&#45;&gt;out9 -->
<g id="edge95" class="edge">
<title>n26&#45;&gt;out9</title>
<path fill="none" stroke="#d19922" stroke-width="0.9" stroke-dasharray="5,2" d="M438.29,-225.34C506.2,-208.71 657.67,-182.98 750.85,-254.04 829.34,-313.9 840.49,-444.44 841.57,-499.62"/>
<polygon fill="#d19922" stroke="#d19922" stroke-width="0.9" points="839.64,-499.43 841.64,-504.91 843.49,-499.38 839.64,-499.43"/>
</g>
</g>
</svg>
