<?xml version="1.0" encoding="UTF-8" standalone="no"?>
<!DOCTYPE svg PUBLIC "-//W3C//DTD SVG 1.1//EN"
 "http://www.w3.org/Graphics/SVG/1.1/DTD/svg11.dtd">
<!-- Generated by graphviz version 14.1.2 (0)
 -->
<!-- Title: serde&#45;v1.0.228 Pages: 1 -->
<svg width="515pt" height="127pt"
 viewBox="0.00 0.00 515.00 127.00" xmlns="http://www.w3.org/2000/svg" xmlns:xlink="http://www.w3.org/1999/xlink">
<g id="graph0" class="graph" transform="scale(1 1) rotate(0) translate(4 123.2)">
<title>serde&#45;v1.0.228</title>
<polygon fill="white" stroke="none" points="-4,4 -4,-123.2 510.58,-123.2 510.58,4 -4,4"/>
<!-- n0 -->
<g id="node1" class="node">
<title>n0</title>
<path fill="#dff3ff" stroke="#1b78a6" d="M213.28,-56.6C213.28,-56.6 183.28,-56.6 183.28,-56.6 177.28,-56.6 171.28,-50.6 171.28,-44.6 171.28,-44.6 171.28,-32.6 171.28,-32.6 171.28,-26.6 177.28,-20.6 183.28,-20.6 183.28,-20.6 213.28,-20.6 213.28,-20.6 219.28,-20.6 225.28,-26.6 225.28,-32.6 225.28,-32.6 225.28,-44.6 225.28,-44.6 225.28,-50.6 219.28,-56.6 213.28,-56.6"/>
<text xml:space="preserve" text-anchor="start" x="185.53" y="-40.1" font-family="Inter,Arial" font-weight="bold" font-size="10.00" fill="#172033">serde</text>
<text xml:space="preserve" text-anchor="start" x="182.15" y="-30.1" font-family="Inter,Arial" font-size="10.00" fill="#172033">1.0.228</text>
</g>
<!-- n1 -->
<g id="node2" class="node">
<title>n1</title>
<path fill="#f7f9fb" stroke="#8b9bb0" d="M363.18,-118.6C363.18,-118.6 324.66,-118.6 324.66,-118.6 318.66,-118.6 312.66,-112.6 312.66,-106.6 312.66,-106.6 312.66,-94.6 312.66,-94.6 312.66,-88.6 318.66,-82.6 324.66,-82.6 324.66,-82.6 363.18,-82.6 363.18,-82.6 369.18,-82.6 375.18,-88.6 375.18,-94.6 375.18,-94.6 375.18,-106.6 375.18,-106.6 375.18,-112.6 369.18,-118.6 363.18,-118.6"/>
<text xml:space="preserve" text-anchor="start" x="318.42" y="-102.1" font-family="Inter,Arial" font-weight="bold" font-size="10.00" fill="#172033">serde_core</text>
<text xml:space="preserve" text-anchor="start" x="327.8" y="-92.1" font-family="Inter,Arial" font-size="10.00" fill="#172033">1.0.228</text>
</g>
<!-- n0&#45;&gt;n1 -->
<g id="edge1" class="edge">
<title>n0&#45;&gt;n1</title>
<path fill="none" stroke="#9aa8b8" stroke-width="0.9" d="M225.63,-49.97C248.18,-59.7 280.88,-73.82 306.04,-84.68"/>
<polygon fill="#9aa8b8" stroke="#9aa8b8" stroke-width="0.9" points="305.19,-86.41 311.01,-86.82 306.72,-82.88 305.19,-86.41"/>
</g>
<!-- n2 -->
<g id="node3" class="node">
<title>n2</title>
<path fill="#f7f9fb" stroke="#8b9bb0" d="M367.31,-57.2C367.31,-57.2 320.54,-57.2 320.54,-57.2 314.54,-57.2 308.54,-51.2 308.54,-45.2 308.54,-45.2 308.54,-32 308.54,-32 308.54,-26 314.54,-20 320.54,-20 320.54,-20 367.31,-20 367.31,-20 373.31,-20 379.31,-26 379.31,-32 379.31,-32 379.31,-45.2 379.31,-45.2 379.31,-51.2 373.31,-57.2 367.31,-57.2"/>
<text xml:space="preserve" text-anchor="start" x="314.3" y="-45.1" font-family="Inter,Arial" font-weight="bold" font-size="10.00" fill="#172033">serde_derive</text>
<text xml:space="preserve" text-anchor="start" x="327.8" y="-35.1" font-family="Inter,Arial" font-size="10.00" fill="#172033">1.0.228</text>
<text xml:space="preserve" text-anchor="start" x="319.55" y="-25.1" font-family="Inter,Arial" font-size="10.00" fill="#172033">proc&#45;macro</text>
</g>
<!-- n0&#45;&gt;n2 -->
<g id="edge2" class="edge">
<title>n0&#45;&gt;n2</title>
<path fill="none" stroke="#9aa8b8" stroke-width="0.9" d="M225.63,-38.6C246.8,-38.6 276.93,-38.6 301.35,-38.6"/>
<polygon fill="#9aa8b8" stroke="#9aa8b8" stroke-width="0.9" points="301.22,-40.53 306.72,-38.6 301.22,-36.68 301.22,-40.53"/>
</g>
<!-- out0 -->
<g id="node4" class="node">
<title>out0</title>
<polygon fill="#fff8e8" stroke="#d19922" points="500.58,-77.2 419.31,-77.2 419.31,0 506.58,0 506.58,-71.2 500.58,-77.2"/>
<polyline fill="none" stroke="#d19922" points="500.58,-77.2 500.58,-71.2"/>
<polyline fill="none" stroke="#d19922" points="506.58,-71.2 500.58,-71.2"/>
<text xml:space="preserve" text-anchor="start" x="425.07" y="-65.1" font-family="Inter,Arial" font-size="10.00" fill="#614000">to aes&#45;v0.8.4.svg</text>
<text xml:space="preserve" text-anchor="start" x="433.69" y="-55.1" font-family="Inter,Arial" font-weight="bold" font-size="10.00" fill="#614000">proc&#45;macro2</text>
<text xml:space="preserve" text-anchor="start" x="446.82" y="-45.1" font-family="Inter,Arial" font-size="10.00" fill="#614000">1.0.106</text>
<text xml:space="preserve" text-anchor="start" x="449.82" y="-35.1" font-family="Inter,Arial" font-weight="bold" font-size="10.00" fill="#614000">quote</text>
<text xml:space="preserve" text-anchor="start" x="449.44" y="-25.1" font-family="Inter,Arial" font-size="10.00" fill="#614000">1.0.45</text>
<text xml:space="preserve" text-anchor="start" x="454.69" y="-15.1" font-family="Inter,Arial" font-weight="bold" font-size="10.00" fill="#614000">syn</text>
<text xml:space="preserve" text-anchor="start" x="446.82" y="-5.1" font-family="Inter,Arial" font-size="10.00" fill="#614000">2.0.117</text>
</g>
<!-- n2&#45;&gt;out0 -->
<g id="edge3" class="edge">
<title>n2&#45;&gt;out0</title>
<path fill="none" stroke="#d19922" stroke-width="0.9" stroke-dasharray="5,2" d="M379.72,-38.6C389.98,-38.6 401.42,-38.6 412.43,-38.6"/>
<polygon fill="#d19922" stroke="#d19922" stroke-width="0.9" points="412.34,-40.53 417.84,-38.6 412.34,-36.68 412.34,-40.53"/>
</g>
<!-- in1 -->
<g id="node5" class="node">
<title>in1</title>
<polygon fill="#eef6ff" stroke="#4b8fc5" points="262.54,-119.2 128.02,-119.2 128.02,-82 268.54,-82 268.54,-113.2 262.54,-119.2"/>
<polyline fill="none" stroke="#4b8fc5" points="262.54,-119.2 262.54,-113.2"/>
<polyline fill="none" stroke="#4b8fc5" points="268.54,-113.2 262.54,-113.2"/>
<text xml:space="preserve" text-anchor="start" x="133.78" y="-107.1" font-family="Inter,Arial" font-size="10.00" fill="#123d5c">from serde_json&#45;v1.0.149.svg</text>
<text xml:space="preserve" text-anchor="start" x="172.78" y="-97.1" font-family="Inter,Arial" font-weight="bold" font-size="10.00" fill="#123d5c">serde_core</text>
<text xml:space="preserve" text-anchor="start" x="182.15" y="-87.1" font-family="Inter,Arial" font-size="10.00" fill="#123d5c">1.0.228</text>
</g>
<!-- in1&#45;&gt;n1 -->
<g id="edge4" class="edge">
<title>in1&#45;&gt;n1</title>
<path fill="none" stroke="#4b8fc5" stroke-width="0.9" stroke-dasharray="5,2" d="M269,-100.6C281.67,-100.6 294.42,-100.6 305.69,-100.6"/>
<polygon fill="#4b8fc5" stroke="#4b8fc5" stroke-width="0.9" points="305.63,-102.53 311.13,-100.6 305.63,-98.68 305.63,-102.53"/>
</g>
<!-- in2 -->
<g id="node6" class="node">
<title>in2</title>
<polygon fill="#eef6ff" stroke="#4b8fc5" points="82.02,-57.2 0,-57.2 0,-20 88.02,-20 88.02,-51.2 82.02,-57.2"/>
<polyline fill="none" stroke="#4b8fc5" points="82.02,-57.2 82.02,-51.2"/>
<polyline fill="none" stroke="#4b8fc5" points="88.02,-51.2 82.02,-51.2"/>
<text xml:space="preserve" text-anchor="start" x="5.76" y="-45.1" font-family="Inter,Arial" font-size="10.00" fill="#123d5c">from v&#45;v0.1.0.svg</text>
<text xml:space="preserve" text-anchor="start" x="31.26" y="-35.1" font-family="Inter,Arial" font-weight="bold" font-size="10.00" fill="#123d5c">serde</text>
<text xml:space="preserve" text-anchor="start" x="27.88" y="-25.1" font-family="Inter,Arial" font-size="10.00" fill="#123d5c">1.0.228</text>
</g>
<!-- in2&#45;&gt;n0 -->
<g id="edge5" class="edge">
<title>in2&#45;&gt;n0</title>
<path fill="none" stroke="#4b8fc5" stroke-width="0.9" stroke-dasharray="5,2" d="M88.24,-38.6C112.46,-38.6 142.19,-38.6 164.48,-38.6"/>
<polygon fill="#4b8fc5" stroke="#4b8fc5" stroke-width="0.9" points="164.28,-40.53 169.78,-38.6 164.28,-36.68 164.28,-40.53"/>
</g>
</g>
</svg>
