<?xml version="1.0" encoding="UTF-8" standalone="no"?>
<!DOCTYPE svg PUBLIC "-//W3C//DTD SVG 1.1//EN"
 "http://www.w3.org/Graphics/SVG/1.1/DTD/svg11.dtd">
<!-- Generated by graphviz version 14.1.2 (0)
 -->
<!-- Title: serde_json&#45;v1.0.150 Pages: 1 -->
<svg width="397pt" height="190pt"
 viewBox="0.00 0.00 397.00 190.00" xmlns="http://www.w3.org/2000/svg" xmlns:xlink="http://www.w3.org/1999/xlink">
<g id="graph0" class="graph" transform="scale(1 1) rotate(0) translate(4 186.4)">
<title>serde_json&#45;v1.0.150</title>
<polygon fill="white" stroke="none" points="-4,4 -4,-186.4 392.91,-186.4 392.91,4 -4,4"/>
<!-- n0 -->
<g id="node1" class="node">
<title>n0</title>
<path fill="#dff3ff" stroke="#1b78a6" d="M222.94,-134.78C222.94,-134.78 147.22,-134.78 147.22,-134.78 141.22,-134.78 135.22,-128.78 135.22,-122.78 135.22,-122.78 135.22,-59.62 135.22,-59.62 135.22,-53.62 141.22,-47.62 147.22,-47.62 147.22,-47.62 222.94,-47.62 222.94,-47.62 228.94,-47.62 234.94,-53.62 234.94,-59.62 234.94,-59.62 234.94,-122.78 234.94,-122.78 234.94,-128.78 228.94,-134.78 222.94,-134.78"/>
<text xml:space="preserve" text-anchor="start" x="149.45" y="-116.23" font-family="Inter,Arial" font-weight="bold" font-size="13.00" fill="#172033">serde_json</text>
<text xml:space="preserve" text-anchor="start" x="165.2" y="-101.17" font-family="Inter,Arial" font-size="12.00" fill="#172033">1.0.150</text>
<text xml:space="preserve" text-anchor="start" x="159.58" y="-73.88" font-family="Inter,Arial" font-weight="bold" font-size="11.00" fill="#172033">zmij</text>
<text xml:space="preserve" text-anchor="start" x="180.58" y="-73.88" font-family="Inter,Arial" font-size="10.00" fill="#172033"> </text>
<text xml:space="preserve" text-anchor="start" x="183.58" y="-73.88" font-family="Inter,Arial" font-size="10.00" fill="#172033">1.0.21</text>
<path fill="none" stroke="#9aa8b8" d="M161.08,-60.83C161.08,-60.83 209.08,-60.83 209.08,-60.83 214.33,-60.83 219.58,-66.08 219.58,-71.33 219.58,-71.33 219.58,-81.83 219.58,-81.83 219.58,-87.08 214.33,-92.33 209.08,-92.33 209.08,-92.33 161.08,-92.33 161.08,-92.33 155.83,-92.33 150.58,-87.08 150.58,-81.83 150.58,-81.83 150.58,-71.33 150.58,-71.33 150.58,-66.08 155.83,-60.83 161.08,-60.83"/>
</g>
<!-- out0 -->
<g id="node2" class="node">
<title>out0</title>
<polygon fill="#fff8e8" stroke="#d19922" points="377.28,-182.4 280.56,-182.4 280.56,-138 383.28,-138 383.28,-176.4 377.28,-182.4"/>
<polyline fill="none" stroke="#d19922" points="377.28,-182.4 377.28,-176.4"/>
<polyline fill="none" stroke="#d19922" points="383.28,-176.4 377.28,-176.4"/>
<text xml:space="preserve" text-anchor="start" x="289.92" y="-166.7" font-family="Inter,Arial" font-size="10.00" fill="#614000">to hyper&#45;v1.9.0.svg</text>
<text xml:space="preserve" text-anchor="start" x="323.3" y="-156.7" font-family="Inter,Arial" font-weight="bold" font-size="10.00" fill="#614000">itoa</text>
<text xml:space="preserve" text-anchor="start" x="318.42" y="-146.7" font-family="Inter,Arial" font-size="10.00" fill="#614000">1.0.18</text>
</g>
<!-- n0&#45;&gt;out0 -->
<g id="edge1" class="edge">
<title>n0&#45;&gt;out0</title>
<path fill="none" stroke="#d19922" stroke-width="7.2" stroke-dasharray="5,2" d="M235.12,-114.56C247.18,-120.31 260.21,-126.51 272.66,-132.44"/>
<polygon fill="#d19922" stroke="#d19922" stroke-width="7.2" points="270.86,-135.42 277.31,-134.66 273.84,-129.17 270.86,-135.42"/>
</g>
<!-- out1 -->
<g id="node3" class="node">
<title>out1</title>
<polygon fill="#fff8e8" stroke="#d19922" points="382.91,-113.4 274.94,-113.4 274.94,-69 388.91,-69 388.91,-107.4 382.91,-113.4"/>
<polyline fill="none" stroke="#d19922" points="382.91,-113.4 382.91,-107.4"/>
<polyline fill="none" stroke="#d19922" points="388.91,-107.4 382.91,-107.4"/>
<text xml:space="preserve" text-anchor="start" x="284.3" y="-97.7" font-family="Inter,Arial" font-size="10.00" fill="#614000">to memchr&#45;v2.8.2.svg</text>
<text xml:space="preserve" text-anchor="start" x="312.8" y="-87.7" font-family="Inter,Arial" font-weight="bold" font-size="10.00" fill="#614000">memchr</text>
<text xml:space="preserve" text-anchor="start" x="321.05" y="-77.7" font-family="Inter,Arial" font-size="10.00" fill="#614000">2.8.2</text>
</g>
<!-- n0&#45;&gt;out1 -->
<g id="edge2" class="edge">
<title>n0&#45;&gt;out1</title>
<path fill="none" stroke="#d19922" stroke-width="7.2" stroke-dasharray="5,2" d="M235.12,-91.2C243.91,-91.2 253.21,-91.2 262.43,-91.2"/>
<polygon fill="#d19922" stroke="#d19922" stroke-width="7.2" points="262.19,-94.67 267.69,-91.2 262.19,-87.74 262.19,-94.67"/>
</g>
<!-- out2 -->
<g id="node4" class="node">
<title>out2</title>
<polygon fill="#fff8e8" stroke="#d19922" points="382.53,-44.4 275.31,-44.4 275.31,0 388.53,0 388.53,-38.4 382.53,-44.4"/>
<polyline fill="none" stroke="#d19922" points="382.53,-44.4 382.53,-38.4"/>
<polyline fill="none" stroke="#d19922" points="388.53,-38.4 382.53,-38.4"/>
<text xml:space="preserve" text-anchor="start" x="284.67" y="-28.7" font-family="Inter,Arial" font-size="10.00" fill="#614000">to serde&#45;v1.0.228.svg</text>
<text xml:space="preserve" text-anchor="start" x="306.42" y="-18.7" font-family="Inter,Arial" font-weight="bold" font-size="10.00" fill="#614000">serde_core</text>
<text xml:space="preserve" text-anchor="start" x="315.8" y="-8.7" font-family="Inter,Arial" font-size="10.00" fill="#614000">1.0.228</text>
</g>
<!-- n0&#45;&gt;out2 -->
<g id="edge3" class="edge">
<title>n0&#45;&gt;out2</title>
<path fill="none" stroke="#d19922" stroke-width="7.2" stroke-dasharray="5,2" d="M235.12,-67.84C247.18,-62.09 260.21,-55.89 272.66,-49.96"/>
<polygon fill="#d19922" stroke="#d19922" stroke-width="7.2" points="273.84,-53.23 277.31,-47.74 270.86,-46.98 273.84,-53.23"/>
</g>
<!-- in3 -->
<g id="node5" class="node">
<title>in3</title>
<polygon fill="#eef6ff" stroke="#4b8fc5" points="89.22,-113.4 0,-113.4 0,-69 95.22,-69 95.22,-107.4 89.22,-113.4"/>
<polyline fill="none" stroke="#4b8fc5" points="89.22,-113.4 89.22,-107.4"/>
<polyline fill="none" stroke="#4b8fc5" points="95.22,-107.4 89.22,-107.4"/>
<text xml:space="preserve" text-anchor="start" x="9.36" y="-97.7" font-family="Inter,Arial" font-size="10.00" fill="#123d5c">from v&#45;v0.1.0.svg</text>
<text xml:space="preserve" text-anchor="start" x="22.11" y="-87.7" font-family="Inter,Arial" font-weight="bold" font-size="10.00" fill="#123d5c">serde_json</text>
<text xml:space="preserve" text-anchor="start" x="31.49" y="-77.7" font-family="Inter,Arial" font-size="10.00" fill="#123d5c">1.0.150</text>
</g>
<!-- in3&#45;&gt;n0 -->
<g id="edge4" class="edge">
<title>in3&#45;&gt;n0</title>
<path fill="none" stroke="#4b8fc5" stroke-width="7.2" stroke-dasharray="5,2" d="M95.61,-91.2C104.33,-91.2 113.56,-91.2 122.64,-91.2"/>
<polygon fill="#4b8fc5" stroke="#4b8fc5" stroke-width="7.2" points="122.61,-94.67 128.11,-91.2 122.61,-87.74 122.61,-94.67"/>
</g>
</g>
</svg>
