<?xml version="1.0" encoding="UTF-8" standalone="no"?>
<!DOCTYPE svg PUBLIC "-//W3C//DTD SVG 1.1//EN"
 "http://www.w3.org/Graphics/SVG/1.1/DTD/svg11.dtd">
<!-- Generated by graphviz version 14.1.2 (0)
 -->
<!-- Title: serde&#45;v1.0.228 Pages: 1 -->
<svg width="567pt" height="142pt"
 viewBox="0.00 0.00 567.00 142.00" xmlns="http://www.w3.org/2000/svg" xmlns:xlink="http://www.w3.org/1999/xlink">
<g id="graph0" class="graph" transform="scale(1 1) rotate(0) translate(4 138.4)">
<title>serde&#45;v1.0.228</title>
<polygon fill="white" stroke="none" points="-4,4 -4,-138.4 563.38,-138.4 563.38,4 -4,4"/>
<!-- n0 -->
<g id="node1" class="node">
<title>n0</title>
<path fill="#dff3ff" stroke="#1b78a6" d="M226.32,-63.9C226.32,-63.9 191.85,-63.9 191.85,-63.9 185.85,-63.9 179.85,-57.9 179.85,-51.9 179.85,-51.9 179.85,-36.5 179.85,-36.5 179.85,-30.5 185.85,-24.5 191.85,-24.5 191.85,-24.5 226.32,-24.5 226.32,-24.5 232.32,-24.5 238.32,-30.5 238.32,-36.5 238.32,-36.5 238.32,-51.9 238.32,-51.9 238.32,-57.9 232.32,-63.9 226.32,-63.9"/>
<text xml:space="preserve" text-anchor="start" x="191.08" y="-45.35" font-family="Inter,Arial" font-weight="bold" font-size="13.00" fill="#172033">serde</text>
<text xml:space="preserve" text-anchor="start" x="189.21" y="-33.3" font-family="Inter,Arial" font-size="12.00" fill="#172033">1.0.228</text>
</g>
<!-- n1 -->
<g id="node2" class="node">
<title>n1</title>
<path fill="#f7f9fb" stroke="#8b9bb0" d="M407.29,-131.9C407.29,-131.9 340.56,-131.9 340.56,-131.9 334.56,-131.9 328.56,-125.9 328.56,-119.9 328.56,-119.9 328.56,-104.5 328.56,-104.5 328.56,-98.5 334.56,-92.5 340.56,-92.5 340.56,-92.5 407.29,-92.5 407.29,-92.5 413.29,-92.5 419.29,-98.5 419.29,-104.5 419.29,-104.5 419.29,-119.9 419.29,-119.9 419.29,-125.9 413.29,-131.9 407.29,-131.9"/>
<text xml:space="preserve" text-anchor="start" x="337.93" y="-113.35" font-family="Inter,Arial" font-weight="bold" font-size="13.00" fill="#172033">serde_core</text>
<text xml:space="preserve" text-anchor="start" x="354.05" y="-101.3" font-family="Inter,Arial" font-size="12.00" fill="#172033">1.0.228</text>
</g>
<!-- n0&#45;&gt;n1 -->
<g id="edge1" class="edge">
<title>n0&#45;&gt;n1</title>
<path fill="none" stroke="#9aa8b8" stroke-width="0.9" d="M238.45,-56.04C261.49,-65.67 294.57,-79.48 322.16,-91"/>
<polygon fill="#9aa8b8" stroke="#9aa8b8" stroke-width="0.9" points="321.25,-92.71 327.06,-93.05 322.73,-89.15 321.25,-92.71"/>
</g>
<!-- n2 -->
<g id="node3" class="node">
<title>n2</title>
<path fill="#f7f9fb" stroke="#8b9bb0" d="M412.91,-67.4C412.91,-67.4 334.94,-67.4 334.94,-67.4 328.94,-67.4 322.94,-61.4 322.94,-55.4 322.94,-55.4 322.94,-29 322.94,-29 322.94,-23 328.94,-17 334.94,-17 334.94,-17 412.91,-17 412.91,-17 418.91,-17 424.91,-23 424.91,-29 424.91,-29 424.91,-55.4 424.91,-55.4 424.91,-61.4 418.91,-67.4 412.91,-67.4"/>
<text xml:space="preserve" text-anchor="start" x="332.3" y="-48.85" font-family="Inter,Arial" font-weight="bold" font-size="13.00" fill="#172033">serde_derive</text>
<text xml:space="preserve" text-anchor="start" x="354.05" y="-36.8" font-family="Inter,Arial" font-size="12.00" fill="#172033">1.0.228</text>
<text xml:space="preserve" text-anchor="start" x="346.55" y="-25.75" font-family="Inter,Arial" font-size="11.00" fill="#172033">proc&#45;macro</text>
</g>
<!-- n0&#45;&gt;n2 -->
<g id="edge2" class="edge">
<title>n0&#45;&gt;n2</title>
<path fill="none" stroke="#9aa8b8" stroke-width="0.9" d="M238.45,-43.85C259.78,-43.59 289.73,-43.22 315.95,-42.9"/>
<polygon fill="#9aa8b8" stroke="#9aa8b8" stroke-width="0.9" points="315.69,-44.83 321.17,-42.84 315.64,-40.98 315.69,-44.83"/>
</g>
<!-- out0 -->
<g id="node4" class="node">
<title>out0</title>
<polygon fill="#fff8e8" stroke="#d19922" points="553.38,-84.4 464.91,-84.4 464.91,0 559.38,0 559.38,-78.4 553.38,-84.4"/>
<polyline fill="none" stroke="#d19922" points="553.38,-84.4 553.38,-78.4"/>
<polyline fill="none" stroke="#d19922" points="559.38,-78.4 553.38,-78.4"/>
<text xml:space="preserve" text-anchor="start" x="474.27" y="-68.7" font-family="Inter,Arial" font-size="10.00" fill="#614000">to aes&#45;v0.8.4.svg</text>
<text xml:space="preserve" text-anchor="start" x="482.89" y="-58.7" font-family="Inter,Arial" font-weight="bold" font-size="10.00" fill="#614000">proc&#45;macro2</text>
<text xml:space="preserve" text-anchor="start" x="496.02" y="-48.7" font-family="Inter,Arial" font-size="10.00" fill="#614000">1.0.106</text>
<text xml:space="preserve" text-anchor="start" x="499.02" y="-38.7" font-family="Inter,Arial" font-weight="bold" font-size="10.00" fill="#614000">quote</text>
<text xml:space="preserve" text-anchor="start" x="498.64" y="-28.7" font-family="Inter,Arial" font-size="10.00" fill="#614000">1.0.46</text>
<text xml:space="preserve" text-anchor="start" x="503.89" y="-18.7" font-family="Inter,Arial" font-weight="bold" font-size="10.00" fill="#614000">syn</text>
<text xml:space="preserve" text-anchor="start" x="496.02" y="-8.7" font-family="Inter,Arial" font-size="10.00" fill="#614000">2.0.118</text>
</g>
<!-- n2&#45;&gt;out0 -->
<g id="edge3" class="edge">
<title>n2&#45;&gt;out0</title>
<path fill="none" stroke="#d19922" stroke-width="0.9" stroke-dasharray="5,2" d="M425.26,-42.2C435.93,-42.2 447.23,-42.2 458,-42.2"/>
<polygon fill="#d19922" stroke="#d19922" stroke-width="0.9" points="457.76,-44.13 463.26,-42.2 457.76,-40.28 457.76,-44.13"/>
</g>
<!-- in1 -->
<g id="node5" class="node">
<title>in1</title>
<polygon fill="#eef6ff" stroke="#4b8fc5" points="276.94,-134.4 135.22,-134.4 135.22,-90 282.94,-90 282.94,-128.4 276.94,-134.4"/>
<polyline fill="none" stroke="#4b8fc5" points="276.94,-134.4 276.94,-128.4"/>
<polyline fill="none" stroke="#4b8fc5" points="282.94,-128.4 276.94,-128.4"/>
<text xml:space="preserve" text-anchor="start" x="144.58" y="-118.7" font-family="Inter,Arial" font-size="10.00" fill="#123d5c">from serde_json&#45;v1.0.150.svg</text>
<text xml:space="preserve" text-anchor="start" x="183.58" y="-108.7" font-family="Inter,Arial" font-weight="bold" font-size="10.00" fill="#123d5c">serde_core</text>
<text xml:space="preserve" text-anchor="start" x="192.96" y="-98.7" font-family="Inter,Arial" font-size="10.00" fill="#123d5c">1.0.228</text>
</g>
<!-- in1&#45;&gt;n1 -->
<g id="edge4" class="edge">
<title>in1&#45;&gt;n1</title>
<path fill="none" stroke="#4b8fc5" stroke-width="0.9" stroke-dasharray="5,2" d="M283.4,-112.2C296.37,-112.2 309.61,-112.2 321.79,-112.2"/>
<polygon fill="#4b8fc5" stroke="#4b8fc5" stroke-width="0.9" points="321.58,-114.13 327.08,-112.2 321.58,-110.28 321.58,-114.13"/>
</g>
<!-- in2 -->
<g id="node6" class="node">
<title>in2</title>
<polygon fill="#eef6ff" stroke="#4b8fc5" points="89.22,-66.4 0,-66.4 0,-22 95.22,-22 95.22,-60.4 89.22,-66.4"/>
<polyline fill="none" stroke="#4b8fc5" points="89.22,-66.4 89.22,-60.4"/>
<polyline fill="none" stroke="#4b8fc5" points="95.22,-60.4 89.22,-60.4"/>
<text xml:space="preserve" text-anchor="start" x="9.36" y="-50.7" font-family="Inter,Arial" font-size="10.00" fill="#123d5c">from v&#45;v0.1.0.svg</text>
<text xml:space="preserve" text-anchor="start" x="34.86" y="-40.7" font-family="Inter,Arial" font-weight="bold" font-size="10.00" fill="#123d5c">serde</text>
<text xml:space="preserve" text-anchor="start" x="31.49" y="-30.7" font-family="Inter,Arial" font-size="10.00" fill="#123d5c">1.0.228</text>
</g>
<!-- in2&#45;&gt;n0 -->
<g id="edge5" class="edge">
<title>in2&#45;&gt;n0</title>
<path fill="none" stroke="#4b8fc5" stroke-width="0.9" stroke-dasharray="5,2" d="M95.59,-44.2C120.24,-44.2 149.94,-44.2 172.63,-44.2"/>
<polygon fill="#4b8fc5" stroke="#4b8fc5" stroke-width="0.9" points="172.57,-46.13 178.07,-44.2 172.57,-42.28 172.57,-46.13"/>
</g>
</g>
</svg>
