<?xml version="1.0" encoding="UTF-8" standalone="no"?>
<!DOCTYPE svg PUBLIC "-//W3C//DTD SVG 1.1//EN"
 "http://www.w3.org/Graphics/SVG/1.1/DTD/svg11.dtd">
<!-- Generated by graphviz version 14.1.2 (0)
 -->
<!-- Title: serde_json&#45;v1.0.149 Pages: 1 -->
<svg width="345pt" height="169pt"
 viewBox="0.00 0.00 345.00 169.00" xmlns="http://www.w3.org/2000/svg" xmlns:xlink="http://www.w3.org/1999/xlink">
<g id="graph0" class="graph" transform="scale(1 1) rotate(0) translate(4 165.2)">
<title>serde_json&#45;v1.0.149</title>
<polygon fill="white" stroke="none" points="-4,4 -4,-165.2 341.31,-165.2 341.31,4 -4,4"/>
<!-- n0 -->
<g id="node1" class="node">
<title>n0</title>
<path fill="#dff3ff" stroke="#1b78a6" d="M178.54,-106.07C178.54,-106.07 140.02,-106.07 140.02,-106.07 134.02,-106.07 128.02,-100.07 128.02,-94.07 128.02,-94.07 128.02,-67.12 128.02,-67.12 128.02,-61.12 134.02,-55.12 140.02,-55.12 140.02,-55.12 178.54,-55.12 178.54,-55.12 184.54,-55.12 190.54,-61.12 190.54,-67.12 190.54,-67.12 190.54,-94.07 190.54,-94.07 190.54,-100.07 184.54,-106.07 178.54,-106.07"/>
<text xml:space="preserve" text-anchor="start" x="133.78" y="-93.97" font-family="Inter,Arial" font-weight="bold" font-size="10.00" fill="#172033">serde_json</text>
<text xml:space="preserve" text-anchor="start" x="143.16" y="-80.97" font-family="Inter,Arial" font-size="10.00" fill="#172033">1.0.149</text>
<text xml:space="preserve" text-anchor="start" x="139.41" y="-66.88" font-family="Inter,Arial" font-weight="bold" font-size="8.00" fill="#172033">zmij</text>
<text xml:space="preserve" text-anchor="start" x="154.41" y="-66.88" font-family="Inter,Arial" font-size="8.00" fill="#172033"> 1.0.21</text>
<path fill="none" stroke="#9aa8b8" d="M140.36,-58.72C140.36,-58.72 178.2,-58.72 178.2,-58.72 181.49,-58.72 184.78,-62.02 184.78,-65.31 184.78,-65.31 184.78,-71.89 184.78,-71.89 184.78,-75.18 181.49,-78.47 178.2,-78.47 178.2,-78.47 140.36,-78.47 140.36,-78.47 137.07,-78.47 133.78,-75.18 133.78,-71.89 133.78,-71.89 133.78,-65.31 133.78,-65.31 133.78,-62.02 137.07,-58.72 140.36,-58.72"/>
</g>
<!-- out0 -->
<g id="node2" class="node">
<title>out0</title>
<polygon fill="#fff8e8" stroke="#d19922" points="325.69,-161.2 236.17,-161.2 236.17,-124 331.69,-124 331.69,-155.2 325.69,-161.2"/>
<polyline fill="none" stroke="#d19922" points="325.69,-161.2 325.69,-155.2"/>
<polyline fill="none" stroke="#d19922" points="331.69,-155.2 325.69,-155.2"/>
<text xml:space="preserve" text-anchor="start" x="241.93" y="-149.1" font-family="Inter,Arial" font-size="10.00" fill="#614000">to hyper&#45;v1.9.0.svg</text>
<text xml:space="preserve" text-anchor="start" x="275.3" y="-139.1" font-family="Inter,Arial" font-weight="bold" font-size="10.00" fill="#614000">itoa</text>
<text xml:space="preserve" text-anchor="start" x="270.43" y="-129.1" font-family="Inter,Arial" font-size="10.00" fill="#614000">1.0.18</text>
</g>
<!-- n0&#45;&gt;out0 -->
<g id="edge1" class="edge">
<title>n0&#45;&gt;out0</title>
<path fill="none" stroke="#d19922" stroke-width="0.9" stroke-dasharray="5,2" d="M190.91,-96.09C205.57,-103.5 223.39,-112.5 239.42,-120.61"/>
<polygon fill="#d19922" stroke="#d19922" stroke-width="0.9" points="238.24,-122.17 244.02,-122.93 239.98,-118.73 238.24,-122.17"/>
</g>
<!-- out1 -->
<g id="node3" class="node">
<title>out1</title>
<polygon fill="#fff8e8" stroke="#d19922" points="331.31,-99.2 230.54,-99.2 230.54,-62 337.31,-62 337.31,-93.2 331.31,-99.2"/>
<polyline fill="none" stroke="#d19922" points="331.31,-99.2 331.31,-93.2"/>
<polyline fill="none" stroke="#d19922" points="337.31,-93.2 331.31,-93.2"/>
<text xml:space="preserve" text-anchor="start" x="236.3" y="-87.1" font-family="Inter,Arial" font-size="10.00" fill="#614000">to memchr&#45;v2.8.0.svg</text>
<text xml:space="preserve" text-anchor="start" x="264.8" y="-77.1" font-family="Inter,Arial" font-weight="bold" font-size="10.00" fill="#614000">memchr</text>
<text xml:space="preserve" text-anchor="start" x="273.05" y="-67.1" font-family="Inter,Arial" font-size="10.00" fill="#614000">2.8.0</text>
</g>
<!-- n0&#45;&gt;out1 -->
<g id="edge2" class="edge">
<title>n0&#45;&gt;out1</title>
<path fill="none" stroke="#d19922" stroke-width="0.9" stroke-dasharray="5,2" d="M190.91,-80.6C200.88,-80.6 212.3,-80.6 223.63,-80.6"/>
<polygon fill="#d19922" stroke="#d19922" stroke-width="0.9" points="223.41,-82.53 228.91,-80.6 223.41,-78.68 223.41,-82.53"/>
</g>
<!-- out2 -->
<g id="node4" class="node">
<title>out2</title>
<polygon fill="#fff8e8" stroke="#d19922" points="330.94,-37.2 230.92,-37.2 230.92,0 336.94,0 336.94,-31.2 330.94,-37.2"/>
<polyline fill="none" stroke="#d19922" points="330.94,-37.2 330.94,-31.2"/>
<polyline fill="none" stroke="#d19922" points="336.94,-31.2 330.94,-31.2"/>
<text xml:space="preserve" text-anchor="start" x="236.68" y="-25.1" font-family="Inter,Arial" font-size="10.00" fill="#614000">to serde&#45;v1.0.228.svg</text>
<text xml:space="preserve" text-anchor="start" x="258.43" y="-15.1" font-family="Inter,Arial" font-weight="bold" font-size="10.00" fill="#614000">serde_core</text>
<text xml:space="preserve" text-anchor="start" x="267.8" y="-5.1" font-family="Inter,Arial" font-size="10.00" fill="#614000">1.0.228</text>
</g>
<!-- n0&#45;&gt;out2 -->
<g id="edge3" class="edge">
<title>n0&#45;&gt;out2</title>
<path fill="none" stroke="#d19922" stroke-width="0.9" stroke-dasharray="5,2" d="M190.91,-65.11C205.57,-57.7 223.39,-48.7 239.42,-40.59"/>
<polygon fill="#d19922" stroke="#d19922" stroke-width="0.9" points="239.98,-42.47 244.02,-38.27 238.24,-39.03 239.98,-42.47"/>
</g>
<!-- in3 -->
<g id="node5" class="node">
<title>in3</title>
<polygon fill="#eef6ff" stroke="#4b8fc5" points="82.02,-99.2 0,-99.2 0,-62 88.02,-62 88.02,-93.2 82.02,-99.2"/>
<polyline fill="none" stroke="#4b8fc5" points="82.02,-99.2 82.02,-93.2"/>
<polyline fill="none" stroke="#4b8fc5" points="88.02,-93.2 82.02,-93.2"/>
<text xml:space="preserve" text-anchor="start" x="5.76" y="-87.1" font-family="Inter,Arial" font-size="10.00" fill="#123d5c">from v&#45;v0.1.0.svg</text>
<text xml:space="preserve" text-anchor="start" x="18.51" y="-77.1" font-family="Inter,Arial" font-weight="bold" font-size="10.00" fill="#123d5c">serde_json</text>
<text xml:space="preserve" text-anchor="start" x="27.88" y="-67.1" font-family="Inter,Arial" font-size="10.00" fill="#123d5c">1.0.149</text>
</g>
<!-- in3&#45;&gt;n0 -->
<g id="edge4" class="edge">
<title>in3&#45;&gt;n0</title>
<path fill="none" stroke="#4b8fc5" stroke-width="0.9" stroke-dasharray="5,2" d="M88.48,-80.6C99.23,-80.6 110.64,-80.6 121.06,-80.6"/>
<polygon fill="#4b8fc5" stroke="#4b8fc5" stroke-width="0.9" points="120.89,-82.53 126.39,-80.6 120.89,-78.68 120.89,-82.53"/>
</g>
</g>
</svg>
