<?xml version="1.0" encoding="UTF-8" standalone="no"?>
<!DOCTYPE svg PUBLIC "-//W3C//DTD SVG 1.1//EN"
 "http://www.w3.org/Graphics/SVG/1.1/DTD/svg11.dtd">
<!-- Generated by graphviz version 14.1.2 (0)
 -->
<!-- Title: serde&#45;v1.0.228 Pages: 1 -->
<svg width="589pt" height="142pt"
 viewBox="0.00 0.00 589.00 142.00" xmlns="http://www.w3.org/2000/svg" xmlns:xlink="http://www.w3.org/1999/xlink">
<g id="graph0" class="graph" transform="scale(1 1) rotate(0) translate(4 138.4)">
<title>serde&#45;v1.0.228</title>
<polygon fill="white" stroke="none" points="-4,4 -4,-138.4 585.13,-138.4 585.13,4 -4,4"/>
<!-- n0 -->
<g id="node1" class="node">
<title>n0</title>
<path fill="#dff3ff" stroke="#1b78a6" d="M226.32,-63.9C226.32,-63.9 191.85,-63.9 191.85,-63.9 185.85,-63.9 179.85,-57.9 179.85,-51.9 179.85,-51.9 179.85,-36.5 179.85,-36.5 179.85,-30.5 185.85,-24.5 191.85,-24.5 191.85,-24.5 226.32,-24.5 226.32,-24.5 232.32,-24.5 238.32,-30.5 238.32,-36.5 238.32,-36.5 238.32,-51.9 238.32,-51.9 238.32,-57.9 232.32,-63.9 226.32,-63.9"/>
<text xml:space="preserve" text-anchor="start" x="191.08" y="-45.35" font-family="Inter,Arial" font-weight="bold" font-size="13.00" fill="#172033">serde</text>
<text xml:space="preserve" text-anchor="start" x="189.21" y="-33.3" font-family="Inter,Arial" font-size="12.00" fill="#172033">1.0.228</text>
</g>
<!-- n1 -->
<g id="node2" class="node">
<title>n1</title>
<path fill="#f7f9fb" stroke="#8b9bb0" d="M407.29,-131.9C407.29,-131.9 340.56,-131.9 340.56,-131.9 334.56,-131.9 328.56,-125.9 328.56,-119.9 328.56,-119.9 328.56,-104.5 328.56,-104.5 328.56,-98.5 334.56,-92.5 340.56,-92.5 340.56,-92.5 407.29,-92.5 407.29,-92.5 413.29,-92.5 419.29,-98.5 419.29,-104.5 419.29,-104.5 419.29,-119.9 419.29,-119.9 419.29,-125.9 413.29,-131.9 407.29,-131.9"/>
<text xml:space="preserve" text-anchor="start" x="337.93" y="-113.35" font-family="Inter,Arial" font-weight="bold" font-size="13.00" fill="#172033">serde_core</text>
<text xml:space="preserve" text-anchor="start" x="354.05" y="-101.3" font-family="Inter,Arial" font-size="12.00" fill="#172033">1.0.228</text>
</g>
<!-- n0&#45;&gt;n1 -->
<g id="edge1" class="edge">
<title>n0&#45;&gt;n1</title>
<path fill="none" stroke="#9aa8b8" stroke-width="7.2" d="M238.45,-56.04C260.13,-65.1 290.72,-77.87 317.24,-88.95"/>
<polygon fill="#9aa8b8" stroke="#9aa8b8" stroke-width="7.2" points="315.68,-92.05 322.09,-90.97 318.35,-85.65 315.68,-92.05"/>
</g>
<!-- n2 -->
<g id="node3" class="node">
<title>n2</title>
<path fill="#f7f9fb" stroke="#8b9bb0" d="M412.91,-67.4C412.91,-67.4 334.94,-67.4 334.94,-67.4 328.94,-67.4 322.94,-61.4 322.94,-55.4 322.94,-55.4 322.94,-29 322.94,-29 322.94,-23 328.94,-17 334.94,-17 334.94,-17 412.91,-17 412.91,-17 418.91,-17 424.91,-23 424.91,-29 424.91,-29 424.91,-55.4 424.91,-55.4 424.91,-61.4 418.91,-67.4 412.91,-67.4"/>
<text xml:space="preserve" text-anchor="start" x="332.3" y="-48.85" font-family="Inter,Arial" font-weight="bold" font-size="13.00" fill="#172033">serde_derive</text>
<text xml:space="preserve" text-anchor="start" x="354.05" y="-36.8" font-family="Inter,Arial" font-size="12.00" fill="#172033">1.0.228</text>
<text xml:space="preserve" text-anchor="start" x="346.55" y="-25.75" font-family="Inter,Arial" font-size="11.00" fill="#172033">proc&#45;macro</text>
</g>
<!-- n0&#45;&gt;n2 -->
<g id="edge2" class="edge">
<title>n0&#45;&gt;n2</title>
<path fill="none" stroke="#9aa8b8" stroke-width="7.2" d="M238.45,-43.85C258.34,-43.61 285.71,-43.27 310.57,-42.97"/>
<polygon fill="#9aa8b8" stroke="#9aa8b8" stroke-width="7.2" points="310.32,-46.43 315.78,-42.9 310.23,-39.5 310.32,-46.43"/>
</g>
<!-- out0 -->
<g id="node4" class="node">
<title>out0</title>
<polygon fill="#fff8e8" stroke="#d19922" points="575.13,-84.4 464.91,-84.4 464.91,0 581.13,0 581.13,-78.4 575.13,-84.4"/>
<polyline fill="none" stroke="#d19922" points="575.13,-84.4 575.13,-78.4"/>
<polyline fill="none" stroke="#d19922" points="581.13,-78.4 575.13,-78.4"/>
<text xml:space="preserve" text-anchor="start" x="474.27" y="-68.7" font-family="Inter,Arial" font-size="10.00" fill="#614000">to crab&#45;usb&#45;v0.9.1.svg</text>
<text xml:space="preserve" text-anchor="start" x="493.77" y="-58.7" font-family="Inter,Arial" font-weight="bold" font-size="10.00" fill="#614000">proc&#45;macro2</text>
<text xml:space="preserve" text-anchor="start" x="506.89" y="-48.7" font-family="Inter,Arial" font-size="10.00" fill="#614000">1.0.106</text>
<text xml:space="preserve" text-anchor="start" x="509.89" y="-38.7" font-family="Inter,Arial" font-weight="bold" font-size="10.00" fill="#614000">quote</text>
<text xml:space="preserve" text-anchor="start" x="509.52" y="-28.7" font-family="Inter,Arial" font-size="10.00" fill="#614000">1.0.46</text>
<text xml:space="preserve" text-anchor="start" x="514.77" y="-18.7" font-family="Inter,Arial" font-weight="bold" font-size="10.00" fill="#614000">syn</text>
<text xml:space="preserve" text-anchor="start" x="506.89" y="-8.7" font-family="Inter,Arial" font-size="10.00" fill="#614000">2.0.118</text>
</g>
<!-- n2&#45;&gt;out0 -->
<g id="edge3" class="edge">
<title>n2&#45;&gt;out0</title>
<path fill="none" stroke="#d19922" stroke-width="7.2" stroke-dasharray="5,2" d="M425.14,-42.2C433.93,-42.2 443.22,-42.2 452.43,-42.2"/>
<polygon fill="#d19922" stroke="#d19922" stroke-width="7.2" points="452.19,-45.67 457.69,-42.2 452.19,-38.74 452.19,-45.67"/>
</g>
<!-- in1 -->
<g id="node5" class="node">
<title>in1</title>
<polygon fill="#eef6ff" stroke="#4b8fc5" points="276.94,-134.4 135.22,-134.4 135.22,-90 282.94,-90 282.94,-128.4 276.94,-134.4"/>
<polyline fill="none" stroke="#4b8fc5" points="276.94,-134.4 276.94,-128.4"/>
<polyline fill="none" stroke="#4b8fc5" points="282.94,-128.4 276.94,-128.4"/>
<text xml:space="preserve" text-anchor="start" x="144.58" y="-118.7" font-family="Inter,Arial" font-size="10.00" fill="#123d5c">from serde_json&#45;v1.0.150.svg</text>
<text xml:space="preserve" text-anchor="start" x="183.58" y="-108.7" font-family="Inter,Arial" font-weight="bold" font-size="10.00" fill="#123d5c">serde_core</text>
<text xml:space="preserve" text-anchor="start" x="192.96" y="-98.7" font-family="Inter,Arial" font-size="10.00" fill="#123d5c">1.0.228</text>
</g>
<!-- in1&#45;&gt;n1 -->
<g id="edge4" class="edge">
<title>in1&#45;&gt;n1</title>
<path fill="none" stroke="#4b8fc5" stroke-width="7.2" stroke-dasharray="5,2" d="M283.4,-112.2C294.45,-112.2 305.69,-112.2 316.31,-112.2"/>
<polygon fill="#4b8fc5" stroke="#4b8fc5" stroke-width="7.2" points="316.19,-115.67 321.69,-112.2 316.19,-108.74 316.19,-115.67"/>
</g>
<!-- in2 -->
<g id="node6" class="node">
<title>in2</title>
<polygon fill="#eef6ff" stroke="#4b8fc5" points="89.22,-66.4 0,-66.4 0,-22 95.22,-22 95.22,-60.4 89.22,-66.4"/>
<polyline fill="none" stroke="#4b8fc5" points="89.22,-66.4 89.22,-60.4"/>
<polyline fill="none" stroke="#4b8fc5" points="95.22,-60.4 89.22,-60.4"/>
<text xml:space="preserve" text-anchor="start" x="9.36" y="-50.7" font-family="Inter,Arial" font-size="10.00" fill="#123d5c">from v&#45;v0.1.0.svg</text>
<text xml:space="preserve" text-anchor="start" x="34.86" y="-40.7" font-family="Inter,Arial" font-weight="bold" font-size="10.00" fill="#123d5c">serde</text>
<text xml:space="preserve" text-anchor="start" x="31.49" y="-30.7" font-family="Inter,Arial" font-size="10.00" fill="#123d5c">1.0.228</text>
</g>
<!-- in2&#45;&gt;n0 -->
<g id="edge5" class="edge">
<title>in2&#45;&gt;n0</title>
<path fill="none" stroke="#4b8fc5" stroke-width="7.2" stroke-dasharray="5,2" d="M95.59,-44.2C118.33,-44.2 145.36,-44.2 167.23,-44.2"/>
<polygon fill="#4b8fc5" stroke="#4b8fc5" stroke-width="7.2" points="167.18,-47.67 172.68,-44.2 167.18,-40.74 167.18,-47.67"/>
</g>
</g>
</svg>
