<?xml version="1.0" encoding="UTF-8" standalone="no"?>
<!DOCTYPE svg PUBLIC "-//W3C//DTD SVG 1.1//EN"
 "http://www.w3.org/Graphics/SVG/1.1/DTD/svg11.dtd">
<!-- Generated by graphviz version 14.1.2 (0)
 -->
<!-- Title: sha1&#45;v0.10.6 Pages: 1 -->
<svg width="487pt" height="127pt"
 viewBox="0.00 0.00 487.00 127.00" xmlns="http://www.w3.org/2000/svg" xmlns:xlink="http://www.w3.org/1999/xlink">
<g id="graph0" class="graph" transform="scale(1 1) rotate(0) translate(4 123.2)">
<title>sha1&#45;v0.10.6</title>
<polygon fill="white" stroke="none" points="-4,4 -4,-123.2 482.79,-123.2 482.79,4 -4,4"/>
<!-- n0 -->
<g id="node1" class="node">
<title>n0</title>
<path fill="#dff3ff" stroke="#1b78a6" d="M260.02,-72.6C260.02,-72.6 230.02,-72.6 230.02,-72.6 224.02,-72.6 218.02,-66.6 218.02,-60.6 218.02,-60.6 218.02,-48.6 218.02,-48.6 218.02,-42.6 224.02,-36.6 230.02,-36.6 230.02,-36.6 260.02,-36.6 260.02,-36.6 266.02,-36.6 272.02,-42.6 272.02,-48.6 272.02,-48.6 272.02,-60.6 272.02,-60.6 272.02,-66.6 266.02,-72.6 260.02,-72.6"/>
<text xml:space="preserve" text-anchor="start" x="234.14" y="-56.1" font-family="Inter,Arial" font-weight="bold" font-size="10.00" fill="#172033">sha1</text>
<text xml:space="preserve" text-anchor="start" x="231.52" y="-46.1" font-family="Inter,Arial" font-size="10.00" fill="#172033">0.10.6</text>
</g>
<!-- out0 -->
<g id="node2" class="node">
<title>out0</title>
<polygon fill="#fff8e8" stroke="#d19922" points="433.04,-119.2 351.77,-119.2 351.77,-62 439.04,-62 439.04,-113.2 433.04,-119.2"/>
<polyline fill="none" stroke="#d19922" points="433.04,-119.2 433.04,-113.2"/>
<polyline fill="none" stroke="#d19922" points="439.04,-113.2 433.04,-113.2"/>
<text xml:space="preserve" text-anchor="start" x="357.53" y="-107.1" font-family="Inter,Arial" font-size="10.00" fill="#614000">to aes&#45;v0.8.4.svg</text>
<text xml:space="preserve" text-anchor="start" x="383.78" y="-97.1" font-family="Inter,Arial" font-weight="bold" font-size="10.00" fill="#614000">cfg&#45;if</text>
<text xml:space="preserve" text-anchor="start" x="384.53" y="-87.1" font-family="Inter,Arial" font-size="10.00" fill="#614000">1.0.4</text>
<text xml:space="preserve" text-anchor="start" x="368.4" y="-77.1" font-family="Inter,Arial" font-weight="bold" font-size="10.00" fill="#614000">cpufeatures</text>
<text xml:space="preserve" text-anchor="start" x="381.9" y="-67.1" font-family="Inter,Arial" font-size="10.00" fill="#614000">0.2.17</text>
</g>
<!-- n0&#45;&gt;out0 -->
<g id="edge1" class="edge">
<title>n0&#45;&gt;out0</title>
<path fill="none" stroke="#d19922" stroke-width="0.9" stroke-dasharray="5,2" d="M272.21,-60.95C292.29,-65.83 320.61,-72.7 344.92,-78.6"/>
<polygon fill="#d19922" stroke="#d19922" stroke-width="0.9" points="344.21,-80.4 350.01,-79.83 345.12,-76.66 344.21,-80.4"/>
</g>
<!-- out1 -->
<g id="node3" class="node">
<title>out1</title>
<polygon fill="#fff8e8" stroke="#d19922" points="472.79,-37.2 312.02,-37.2 312.02,0 478.79,0 478.79,-31.2 472.79,-37.2"/>
<polyline fill="none" stroke="#d19922" points="472.79,-37.2 472.79,-31.2"/>
<polyline fill="none" stroke="#d19922" points="478.79,-31.2 472.79,-31.2"/>
<text xml:space="preserve" text-anchor="start" x="317.78" y="-25.1" font-family="Inter,Arial" font-size="10.00" fill="#614000">to embedded&#45;websocket&#45;v0.9.4.svg</text>
<text xml:space="preserve" text-anchor="start" x="381.15" y="-15.1" font-family="Inter,Arial" font-weight="bold" font-size="10.00" fill="#614000">digest</text>
<text xml:space="preserve" text-anchor="start" x="381.9" y="-5.1" font-family="Inter,Arial" font-size="10.00" fill="#614000">0.10.7</text>
</g>
<!-- n0&#45;&gt;out1 -->
<g id="edge2" class="edge">
<title>n0&#45;&gt;out1</title>
<path fill="none" stroke="#d19922" stroke-width="0.9" stroke-dasharray="5,2" d="M272.21,-48.25C282.86,-45.66 295.83,-42.52 309.29,-39.25"/>
<polygon fill="#d19922" stroke="#d19922" stroke-width="0.9" points="309.71,-41.13 314.6,-37.96 308.8,-37.39 309.71,-41.13"/>
</g>
<!-- in2 -->
<g id="node4" class="node">
<title>in2</title>
<polygon fill="#eef6ff" stroke="#4b8fc5" points="172.02,-73.2 0,-73.2 0,-36 178.02,-36 178.02,-67.2 172.02,-73.2"/>
<polyline fill="none" stroke="#4b8fc5" points="172.02,-73.2 172.02,-67.2"/>
<polyline fill="none" stroke="#4b8fc5" points="178.02,-67.2 172.02,-67.2"/>
<text xml:space="preserve" text-anchor="start" x="5.76" y="-61.1" font-family="Inter,Arial" font-size="10.00" fill="#123d5c">from embedded&#45;websocket&#45;v0.9.4.svg</text>
<text xml:space="preserve" text-anchor="start" x="78.13" y="-51.1" font-family="Inter,Arial" font-weight="bold" font-size="10.00" fill="#123d5c">sha1</text>
<text xml:space="preserve" text-anchor="start" x="75.51" y="-41.1" font-family="Inter,Arial" font-size="10.00" fill="#123d5c">0.10.6</text>
</g>
<!-- in2&#45;&gt;n0 -->
<g id="edge3" class="edge">
<title>in2&#45;&gt;n0</title>
<path fill="none" stroke="#4b8fc5" stroke-width="0.9" stroke-dasharray="5,2" d="M178.26,-54.6C189.95,-54.6 201.28,-54.6 211.15,-54.6"/>
<polygon fill="#4b8fc5" stroke="#4b8fc5" stroke-width="0.9" points="210.88,-56.53 216.38,-54.6 210.88,-52.68 210.88,-56.53"/>
</g>
</g>
</svg>
