<?xml version="1.0" encoding="UTF-8" standalone="no"?>
<!DOCTYPE svg PUBLIC "-//W3C//DTD SVG 1.1//EN"
 "http://www.w3.org/Graphics/SVG/1.1/DTD/svg11.dtd">
<!-- Generated by graphviz version 14.1.2 (0)
 -->
<!-- Title: sha1&#45;v0.10.6 Pages: 1 -->
<svg width="501pt" height="141pt"
 viewBox="0.00 0.00 501.00 141.00" xmlns="http://www.w3.org/2000/svg" xmlns:xlink="http://www.w3.org/1999/xlink">
<g id="graph0" class="graph" transform="scale(1 1) rotate(0) translate(4 137.4)">
<title>sha1&#45;v0.10.6</title>
<polygon fill="white" stroke="none" points="-4,4 -4,-137.4 497.19,-137.4 497.19,4 -4,4"/>
<!-- n0 -->
<g id="node1" class="node">
<title>n0</title>
<path fill="#dff3ff" stroke="#1b78a6" d="M267.22,-80.9C267.22,-80.9 237.22,-80.9 237.22,-80.9 231.22,-80.9 225.22,-74.9 225.22,-68.9 225.22,-68.9 225.22,-53.5 225.22,-53.5 225.22,-47.5 231.22,-41.5 237.22,-41.5 237.22,-41.5 267.22,-41.5 267.22,-41.5 273.22,-41.5 279.22,-47.5 279.22,-53.5 279.22,-53.5 279.22,-68.9 279.22,-68.9 279.22,-74.9 273.22,-80.9 267.22,-80.9"/>
<text xml:space="preserve" text-anchor="start" x="236.84" y="-62.35" font-family="Inter,Arial" font-weight="bold" font-size="13.00" fill="#172033">sha1</text>
<text xml:space="preserve" text-anchor="start" x="235.72" y="-50.3" font-family="Inter,Arial" font-size="12.00" fill="#172033">0.10.6</text>
</g>
<!-- out0 -->
<g id="node2" class="node">
<title>out0</title>
<polygon fill="#fff8e8" stroke="#d19922" points="447.44,-133.4 358.97,-133.4 358.97,-69 453.44,-69 453.44,-127.4 447.44,-133.4"/>
<polyline fill="none" stroke="#d19922" points="447.44,-133.4 447.44,-127.4"/>
<polyline fill="none" stroke="#d19922" points="453.44,-127.4 447.44,-127.4"/>
<text xml:space="preserve" text-anchor="start" x="368.33" y="-117.7" font-family="Inter,Arial" font-size="10.00" fill="#614000">to aes&#45;v0.8.4.svg</text>
<text xml:space="preserve" text-anchor="start" x="394.58" y="-107.7" font-family="Inter,Arial" font-weight="bold" font-size="10.00" fill="#614000">cfg&#45;if</text>
<text xml:space="preserve" text-anchor="start" x="395.33" y="-97.7" font-family="Inter,Arial" font-size="10.00" fill="#614000">1.0.4</text>
<text xml:space="preserve" text-anchor="start" x="379.2" y="-87.7" font-family="Inter,Arial" font-weight="bold" font-size="10.00" fill="#614000">cpufeatures</text>
<text xml:space="preserve" text-anchor="start" x="392.7" y="-77.7" font-family="Inter,Arial" font-size="10.00" fill="#614000">0.2.17</text>
</g>
<!-- n0&#45;&gt;out0 -->
<g id="edge1" class="edge">
<title>n0&#45;&gt;out0</title>
<path fill="none" stroke="#d19922" stroke-width="7.2" stroke-dasharray="5,2" d="M279.69,-68.17C298.16,-73.03 323.54,-79.71 346.65,-85.79"/>
<polygon fill="#d19922" stroke="#d19922" stroke-width="7.2" points="345.74,-89.13 351.94,-87.18 347.51,-82.43 345.74,-89.13"/>
</g>
<!-- out1 -->
<g id="node3" class="node">
<title>out1</title>
<polygon fill="#fff8e8" stroke="#d19922" points="487.19,-44.4 319.22,-44.4 319.22,0 493.19,0 493.19,-38.4 487.19,-44.4"/>
<polyline fill="none" stroke="#d19922" points="487.19,-44.4 487.19,-38.4"/>
<polyline fill="none" stroke="#d19922" points="493.19,-38.4 487.19,-38.4"/>
<text xml:space="preserve" text-anchor="start" x="328.58" y="-28.7" font-family="Inter,Arial" font-size="10.00" fill="#614000">to embedded&#45;websocket&#45;v0.9.4.svg</text>
<text xml:space="preserve" text-anchor="start" x="391.95" y="-18.7" font-family="Inter,Arial" font-weight="bold" font-size="10.00" fill="#614000">digest</text>
<text xml:space="preserve" text-anchor="start" x="392.7" y="-8.7" font-family="Inter,Arial" font-size="10.00" fill="#614000">0.10.7</text>
</g>
<!-- n0&#45;&gt;out1 -->
<g id="edge2" class="edge">
<title>n0&#45;&gt;out1</title>
<path fill="none" stroke="#d19922" stroke-width="7.2" stroke-dasharray="5,2" d="M279.69,-54.41C287.85,-52.31 297.36,-49.87 307.42,-47.29"/>
<polygon fill="#d19922" stroke="#d19922" stroke-width="7.2" points="307.96,-50.73 312.43,-46.01 306.24,-44.02 307.96,-50.73"/>
</g>
<!-- in2 -->
<g id="node4" class="node">
<title>in2</title>
<polygon fill="#eef6ff" stroke="#4b8fc5" points="179.22,-83.4 0,-83.4 0,-39 185.22,-39 185.22,-77.4 179.22,-83.4"/>
<polyline fill="none" stroke="#4b8fc5" points="179.22,-83.4 179.22,-77.4"/>
<polyline fill="none" stroke="#4b8fc5" points="185.22,-77.4 179.22,-77.4"/>
<text xml:space="preserve" text-anchor="start" x="9.36" y="-67.7" font-family="Inter,Arial" font-size="10.00" fill="#123d5c">from embedded&#45;websocket&#45;v0.9.4.svg</text>
<text xml:space="preserve" text-anchor="start" x="81.74" y="-57.7" font-family="Inter,Arial" font-weight="bold" font-size="10.00" fill="#123d5c">sha1</text>
<text xml:space="preserve" text-anchor="start" x="79.11" y="-47.7" font-family="Inter,Arial" font-size="10.00" fill="#123d5c">0.10.6</text>
</g>
<!-- in2&#45;&gt;n0 -->
<g id="edge3" class="edge">
<title>in2&#45;&gt;n0</title>
<path fill="none" stroke="#4b8fc5" stroke-width="7.2" stroke-dasharray="5,2" d="M185.29,-61.2C194.92,-61.2 204.28,-61.2 212.78,-61.2"/>
<polygon fill="#4b8fc5" stroke="#4b8fc5" stroke-width="7.2" points="212.69,-64.67 218.19,-61.2 212.69,-57.74 212.69,-64.67"/>
</g>
</g>
</svg>
