<?xml version="1.0" encoding="UTF-8" standalone="no"?>
<!DOCTYPE svg PUBLIC "-//W3C//DTD SVG 1.1//EN"
 "http://www.w3.org/Graphics/SVG/1.1/DTD/svg11.dtd">
<!-- Generated by graphviz version 14.1.2 (0)
 -->
<!-- Title: sha2&#45;v0.10.9 Pages: 1 -->
<svg width="503pt" height="141pt"
 viewBox="0.00 0.00 503.00 141.00" xmlns="http://www.w3.org/2000/svg" xmlns:xlink="http://www.w3.org/1999/xlink">
<g id="graph0" class="graph" transform="scale(1 1) rotate(0) translate(4 137.4)">
<title>sha2&#45;v0.10.9</title>
<polygon fill="white" stroke="none" points="-4,4 -4,-137.4 498.69,-137.4 498.69,4 -4,4"/>
<!-- n0 -->
<g id="node1" class="node">
<title>n0</title>
<path fill="#dff3ff" stroke="#1b78a6" d="M268.72,-90.9C268.72,-90.9 238.72,-90.9 238.72,-90.9 232.72,-90.9 226.72,-84.9 226.72,-78.9 226.72,-78.9 226.72,-63.5 226.72,-63.5 226.72,-57.5 232.72,-51.5 238.72,-51.5 238.72,-51.5 268.72,-51.5 268.72,-51.5 274.72,-51.5 280.72,-57.5 280.72,-63.5 280.72,-63.5 280.72,-78.9 280.72,-78.9 280.72,-84.9 274.72,-90.9 268.72,-90.9"/>
<text xml:space="preserve" text-anchor="start" x="238.35" y="-72.35" font-family="Inter,Arial" font-weight="bold" font-size="13.00" fill="#172033">sha2</text>
<text xml:space="preserve" text-anchor="start" x="237.22" y="-60.3" font-family="Inter,Arial" font-size="12.00" fill="#172033">0.10.9</text>
</g>
<!-- out0 -->
<g id="node2" class="node">
<title>out0</title>
<polygon fill="#fff8e8" stroke="#d19922" points="452.32,-133.4 357.1,-133.4 357.1,-89 458.32,-89 458.32,-127.4 452.32,-133.4"/>
<polyline fill="none" stroke="#d19922" points="452.32,-133.4 452.32,-127.4"/>
<polyline fill="none" stroke="#d19922" points="458.32,-127.4 452.32,-127.4"/>
<text xml:space="preserve" text-anchor="start" x="366.46" y="-117.7" font-family="Inter,Arial" font-size="10.00" fill="#614000">to alsa&#45;v0.11.0.svg</text>
<text xml:space="preserve" text-anchor="start" x="396.08" y="-107.7" font-family="Inter,Arial" font-weight="bold" font-size="10.00" fill="#614000">cfg&#45;if</text>
<text xml:space="preserve" text-anchor="start" x="396.83" y="-97.7" font-family="Inter,Arial" font-size="10.00" fill="#614000">1.0.4</text>
</g>
<!-- n0&#45;&gt;out0 -->
<g id="edge1" class="edge">
<title>n0&#45;&gt;out0</title>
<path fill="none" stroke="#d19922" stroke-width="7.2" stroke-dasharray="5,2" d="M281.19,-78.17C298.78,-82.8 322.64,-89.08 344.84,-94.92"/>
<polygon fill="#d19922" stroke="#d19922" stroke-width="7.2" points="343.87,-98.24 350.07,-96.29 345.63,-91.54 343.87,-98.24"/>
</g>
<!-- out1 -->
<g id="node3" class="node">
<title>out1</title>
<polygon fill="#fff8e8" stroke="#d19922" points="488.69,-64.4 320.72,-64.4 320.72,0 494.69,0 494.69,-58.4 488.69,-64.4"/>
<polyline fill="none" stroke="#d19922" points="488.69,-64.4 488.69,-58.4"/>
<polyline fill="none" stroke="#d19922" points="494.69,-58.4 488.69,-58.4"/>
<text xml:space="preserve" text-anchor="start" x="330.08" y="-48.7" font-family="Inter,Arial" font-size="10.00" fill="#614000">to embedded&#45;websocket&#45;v0.9.4.svg</text>
<text xml:space="preserve" text-anchor="start" x="380.71" y="-38.7" font-family="Inter,Arial" font-weight="bold" font-size="10.00" fill="#614000">cpufeatures</text>
<text xml:space="preserve" text-anchor="start" x="394.21" y="-28.7" font-family="Inter,Arial" font-size="10.00" fill="#614000">0.2.17</text>
<text xml:space="preserve" text-anchor="start" x="393.46" y="-18.7" font-family="Inter,Arial" font-weight="bold" font-size="10.00" fill="#614000">digest</text>
<text xml:space="preserve" text-anchor="start" x="394.21" y="-8.7" font-family="Inter,Arial" font-size="10.00" fill="#614000">0.10.7</text>
</g>
<!-- n0&#45;&gt;out1 -->
<g id="edge2" class="edge">
<title>n0&#45;&gt;out1</title>
<path fill="none" stroke="#d19922" stroke-width="7.2" stroke-dasharray="5,2" d="M281.19,-64.41C289.35,-62.31 298.86,-59.87 308.92,-57.29"/>
<polygon fill="#d19922" stroke="#d19922" stroke-width="7.2" points="309.46,-60.73 313.93,-56.01 307.74,-54.02 309.46,-60.73"/>
</g>
<!-- in2 -->
<g id="node4" class="node">
<title>in2</title>
<polygon fill="#eef6ff" stroke="#4b8fc5" points="180.72,-93.4 0,-93.4 0,-49 186.72,-49 186.72,-87.4 180.72,-93.4"/>
<polyline fill="none" stroke="#4b8fc5" points="180.72,-93.4 180.72,-87.4"/>
<polyline fill="none" stroke="#4b8fc5" points="186.72,-87.4 180.72,-87.4"/>
<text xml:space="preserve" text-anchor="start" x="9.36" y="-77.7" font-family="Inter,Arial" font-size="10.00" fill="#123d5c">from rustls&#45;rustcrypto&#45;v0.0.2&#45;alpha.svg</text>
<text xml:space="preserve" text-anchor="start" x="82.49" y="-67.7" font-family="Inter,Arial" font-weight="bold" font-size="10.00" fill="#123d5c">sha2</text>
<text xml:space="preserve" text-anchor="start" x="79.86" y="-57.7" font-family="Inter,Arial" font-size="10.00" fill="#123d5c">0.10.9</text>
</g>
<!-- in2&#45;&gt;n0 -->
<g id="edge3" class="edge">
<title>in2&#45;&gt;n0</title>
<path fill="none" stroke="#4b8fc5" stroke-width="7.2" stroke-dasharray="5,2" d="M186.94,-71.2C196.56,-71.2 205.9,-71.2 214.39,-71.2"/>
<polygon fill="#4b8fc5" stroke="#4b8fc5" stroke-width="7.2" points="214.27,-74.67 219.77,-71.2 214.27,-67.74 214.27,-74.67"/>
</g>
</g>
</svg>
