<?xml version="1.0" encoding="UTF-8" standalone="no"?>
<!DOCTYPE svg PUBLIC "-//W3C//DTD SVG 1.1//EN"
 "http://www.w3.org/Graphics/SVG/1.1/DTD/svg11.dtd">
<!-- Generated by graphviz version 14.1.2 (0)
 -->
<!-- Title: sha2&#45;v0.10.9 Pages: 1 -->
<svg width="488pt" height="127pt"
 viewBox="0.00 0.00 488.00 127.00" xmlns="http://www.w3.org/2000/svg" xmlns:xlink="http://www.w3.org/1999/xlink">
<g id="graph0" class="graph" transform="scale(1 1) rotate(0) translate(4 123.2)">
<title>sha2&#45;v0.10.9</title>
<polygon fill="white" stroke="none" points="-4,4 -4,-123.2 484.29,-123.2 484.29,4 -4,4"/>
<!-- n0 -->
<g id="node1" class="node">
<title>n0</title>
<path fill="#dff3ff" stroke="#1b78a6" d="M261.52,-72.6C261.52,-72.6 231.52,-72.6 231.52,-72.6 225.52,-72.6 219.52,-66.6 219.52,-60.6 219.52,-60.6 219.52,-48.6 219.52,-48.6 219.52,-42.6 225.52,-36.6 231.52,-36.6 231.52,-36.6 261.52,-36.6 261.52,-36.6 267.52,-36.6 273.52,-42.6 273.52,-48.6 273.52,-48.6 273.52,-60.6 273.52,-60.6 273.52,-66.6 267.52,-72.6 261.52,-72.6"/>
<text xml:space="preserve" text-anchor="start" x="235.64" y="-56.1" font-family="Inter,Arial" font-weight="bold" font-size="10.00" fill="#172033">sha2</text>
<text xml:space="preserve" text-anchor="start" x="233.02" y="-46.1" font-family="Inter,Arial" font-size="10.00" fill="#172033">0.10.9</text>
</g>
<!-- out0 -->
<g id="node2" class="node">
<title>out0</title>
<polygon fill="#fff8e8" stroke="#d19922" points="434.54,-119.2 353.27,-119.2 353.27,-62 440.54,-62 440.54,-113.2 434.54,-119.2"/>
<polyline fill="none" stroke="#d19922" points="434.54,-119.2 434.54,-113.2"/>
<polyline fill="none" stroke="#d19922" points="440.54,-113.2 434.54,-113.2"/>
<text xml:space="preserve" text-anchor="start" x="359.03" y="-107.1" font-family="Inter,Arial" font-size="10.00" fill="#614000">to aes&#45;v0.8.4.svg</text>
<text xml:space="preserve" text-anchor="start" x="385.28" y="-97.1" font-family="Inter,Arial" font-weight="bold" font-size="10.00" fill="#614000">cfg&#45;if</text>
<text xml:space="preserve" text-anchor="start" x="386.03" y="-87.1" font-family="Inter,Arial" font-size="10.00" fill="#614000">1.0.4</text>
<text xml:space="preserve" text-anchor="start" x="369.9" y="-77.1" font-family="Inter,Arial" font-weight="bold" font-size="10.00" fill="#614000">cpufeatures</text>
<text xml:space="preserve" text-anchor="start" x="383.4" y="-67.1" font-family="Inter,Arial" font-size="10.00" fill="#614000">0.2.17</text>
</g>
<!-- n0&#45;&gt;out0 -->
<g id="edge1" class="edge">
<title>n0&#45;&gt;out0</title>
<path fill="none" stroke="#d19922" stroke-width="0.9" stroke-dasharray="5,2" d="M273.71,-60.95C293.79,-65.83 322.11,-72.7 346.42,-78.6"/>
<polygon fill="#d19922" stroke="#d19922" stroke-width="0.9" points="345.71,-80.4 351.51,-79.83 346.62,-76.66 345.71,-80.4"/>
</g>
<!-- out1 -->
<g id="node3" class="node">
<title>out1</title>
<polygon fill="#fff8e8" stroke="#d19922" points="474.29,-37.2 313.52,-37.2 313.52,0 480.29,0 480.29,-31.2 474.29,-37.2"/>
<polyline fill="none" stroke="#d19922" points="474.29,-37.2 474.29,-31.2"/>
<polyline fill="none" stroke="#d19922" points="480.29,-31.2 474.29,-31.2"/>
<text xml:space="preserve" text-anchor="start" x="319.28" y="-25.1" font-family="Inter,Arial" font-size="10.00" fill="#614000">to embedded&#45;websocket&#45;v0.9.4.svg</text>
<text xml:space="preserve" text-anchor="start" x="382.65" y="-15.1" font-family="Inter,Arial" font-weight="bold" font-size="10.00" fill="#614000">digest</text>
<text xml:space="preserve" text-anchor="start" x="383.4" y="-5.1" font-family="Inter,Arial" font-size="10.00" fill="#614000">0.10.7</text>
</g>
<!-- n0&#45;&gt;out1 -->
<g id="edge2" class="edge">
<title>n0&#45;&gt;out1</title>
<path fill="none" stroke="#d19922" stroke-width="0.9" stroke-dasharray="5,2" d="M273.71,-48.25C284.36,-45.66 297.33,-42.52 310.79,-39.25"/>
<polygon fill="#d19922" stroke="#d19922" stroke-width="0.9" points="311.21,-41.13 316.1,-37.96 310.3,-37.39 311.21,-41.13"/>
</g>
<!-- in2 -->
<g id="node4" class="node">
<title>in2</title>
<polygon fill="#eef6ff" stroke="#4b8fc5" points="134.52,-104.2 39,-104.2 39,-67 140.52,-67 140.52,-98.2 134.52,-104.2"/>
<polyline fill="none" stroke="#4b8fc5" points="134.52,-104.2 134.52,-98.2"/>
<polyline fill="none" stroke="#4b8fc5" points="140.52,-98.2 134.52,-98.2"/>
<text xml:space="preserve" text-anchor="start" x="44.76" y="-92.1" font-family="Inter,Arial" font-size="10.00" fill="#123d5c">from rsa&#45;v0.9.10.svg</text>
<text xml:space="preserve" text-anchor="start" x="78.88" y="-82.1" font-family="Inter,Arial" font-weight="bold" font-size="10.00" fill="#123d5c">sha2</text>
<text xml:space="preserve" text-anchor="start" x="76.26" y="-72.1" font-family="Inter,Arial" font-size="10.00" fill="#123d5c">0.10.9</text>
</g>
<!-- in2&#45;&gt;n0 -->
<g id="edge3" class="edge">
<title>in2&#45;&gt;n0</title>
<path fill="none" stroke="#4b8fc5" stroke-width="0.9" stroke-dasharray="5,2" d="M141.01,-75.54C164.58,-70.81 192,-65.32 212.84,-61.15"/>
<polygon fill="#4b8fc5" stroke="#4b8fc5" stroke-width="0.9" points="213.01,-63.08 218.02,-60.11 212.25,-59.3 213.01,-63.08"/>
</g>
<!-- in3 -->
<g id="node5" class="node">
<title>in3</title>
<polygon fill="#eef6ff" stroke="#4b8fc5" points="173.52,-42.2 0,-42.2 0,-5 179.52,-5 179.52,-36.2 173.52,-42.2"/>
<polyline fill="none" stroke="#4b8fc5" points="173.52,-42.2 173.52,-36.2"/>
<polyline fill="none" stroke="#4b8fc5" points="179.52,-36.2 173.52,-36.2"/>
<text xml:space="preserve" text-anchor="start" x="5.76" y="-30.1" font-family="Inter,Arial" font-size="10.00" fill="#123d5c">from rustls&#45;rustcrypto&#45;v0.0.2&#45;alpha.svg</text>
<text xml:space="preserve" text-anchor="start" x="78.88" y="-20.1" font-family="Inter,Arial" font-weight="bold" font-size="10.00" fill="#123d5c">sha2</text>
<text xml:space="preserve" text-anchor="start" x="76.26" y="-10.1" font-family="Inter,Arial" font-size="10.00" fill="#123d5c">0.10.9</text>
</g>
<!-- in3&#45;&gt;n0 -->
<g id="edge4" class="edge">
<title>in3&#45;&gt;n0</title>
<path fill="none" stroke="#4b8fc5" stroke-width="0.9" stroke-dasharray="5,2" d="M179.89,-41.45C191.57,-43.79 202.89,-46.06 212.74,-48.03"/>
<polygon fill="#4b8fc5" stroke="#4b8fc5" stroke-width="0.9" points="212.21,-49.89 217.98,-49.08 212.96,-46.12 212.21,-49.89"/>
</g>
</g>
</svg>
