<?xml version="1.0" encoding="UTF-8" standalone="no"?>
<!DOCTYPE svg PUBLIC "-//W3C//DTD SVG 1.1//EN"
 "http://www.w3.org/Graphics/SVG/1.1/DTD/svg11.dtd">
<!-- Generated by graphviz version 14.1.2 (0)
 -->
<!-- Title: sha2&#45;v0.10.9 Pages: 1 -->
<svg width="503pt" height="141pt"
 viewBox="0.00 0.00 503.00 141.00" xmlns="http://www.w3.org/2000/svg" xmlns:xlink="http://www.w3.org/1999/xlink">
<g id="graph0" class="graph" transform="scale(1 1) rotate(0) translate(4 137.4)">
<title>sha2&#45;v0.10.9</title>
<polygon fill="white" stroke="none" points="-4,4 -4,-137.4 498.69,-137.4 498.69,4 -4,4"/>
<!-- n0 -->
<g id="node1" class="node">
<title>n0</title>
<path fill="#dff3ff" stroke="#1b78a6" d="M268.72,-80.9C268.72,-80.9 238.72,-80.9 238.72,-80.9 232.72,-80.9 226.72,-74.9 226.72,-68.9 226.72,-68.9 226.72,-53.5 226.72,-53.5 226.72,-47.5 232.72,-41.5 238.72,-41.5 238.72,-41.5 268.72,-41.5 268.72,-41.5 274.72,-41.5 280.72,-47.5 280.72,-53.5 280.72,-53.5 280.72,-68.9 280.72,-68.9 280.72,-74.9 274.72,-80.9 268.72,-80.9"/>
<text xml:space="preserve" text-anchor="start" x="238.35" y="-62.35" font-family="Inter,Arial" font-weight="bold" font-size="13.00" fill="#172033">sha2</text>
<text xml:space="preserve" text-anchor="start" x="237.22" y="-50.3" font-family="Inter,Arial" font-size="12.00" fill="#172033">0.10.9</text>
</g>
<!-- out0 -->
<g id="node2" class="node">
<title>out0</title>
<polygon fill="#fff8e8" stroke="#d19922" points="448.94,-133.4 360.47,-133.4 360.47,-69 454.94,-69 454.94,-127.4 448.94,-133.4"/>
<polyline fill="none" stroke="#d19922" points="448.94,-133.4 448.94,-127.4"/>
<polyline fill="none" stroke="#d19922" points="454.94,-127.4 448.94,-127.4"/>
<text xml:space="preserve" text-anchor="start" x="369.83" y="-117.7" font-family="Inter,Arial" font-size="10.00" fill="#614000">to aes&#45;v0.8.4.svg</text>
<text xml:space="preserve" text-anchor="start" x="396.08" y="-107.7" font-family="Inter,Arial" font-weight="bold" font-size="10.00" fill="#614000">cfg&#45;if</text>
<text xml:space="preserve" text-anchor="start" x="396.83" y="-97.7" font-family="Inter,Arial" font-size="10.00" fill="#614000">1.0.4</text>
<text xml:space="preserve" text-anchor="start" x="380.71" y="-87.7" font-family="Inter,Arial" font-weight="bold" font-size="10.00" fill="#614000">cpufeatures</text>
<text xml:space="preserve" text-anchor="start" x="394.21" y="-77.7" font-family="Inter,Arial" font-size="10.00" fill="#614000">0.2.17</text>
</g>
<!-- n0&#45;&gt;out0 -->
<g id="edge1" class="edge">
<title>n0&#45;&gt;out0</title>
<path fill="none" stroke="#d19922" stroke-width="7.2" stroke-dasharray="5,2" d="M281.19,-68.17C299.66,-73.03 325.04,-79.71 348.15,-85.79"/>
<polygon fill="#d19922" stroke="#d19922" stroke-width="7.2" points="347.24,-89.13 353.44,-87.18 349.01,-82.43 347.24,-89.13"/>
</g>
<!-- out1 -->
<g id="node3" class="node">
<title>out1</title>
<polygon fill="#fff8e8" stroke="#d19922" points="488.69,-44.4 320.72,-44.4 320.72,0 494.69,0 494.69,-38.4 488.69,-44.4"/>
<polyline fill="none" stroke="#d19922" points="488.69,-44.4 488.69,-38.4"/>
<polyline fill="none" stroke="#d19922" points="494.69,-38.4 488.69,-38.4"/>
<text xml:space="preserve" text-anchor="start" x="330.08" y="-28.7" font-family="Inter,Arial" font-size="10.00" fill="#614000">to embedded&#45;websocket&#45;v0.9.4.svg</text>
<text xml:space="preserve" text-anchor="start" x="393.46" y="-18.7" font-family="Inter,Arial" font-weight="bold" font-size="10.00" fill="#614000">digest</text>
<text xml:space="preserve" text-anchor="start" x="394.21" y="-8.7" font-family="Inter,Arial" font-size="10.00" fill="#614000">0.10.7</text>
</g>
<!-- n0&#45;&gt;out1 -->
<g id="edge2" class="edge">
<title>n0&#45;&gt;out1</title>
<path fill="none" stroke="#d19922" stroke-width="7.2" stroke-dasharray="5,2" d="M281.19,-54.41C289.35,-52.31 298.86,-49.87 308.92,-47.29"/>
<polygon fill="#d19922" stroke="#d19922" stroke-width="7.2" points="309.46,-50.73 313.93,-46.01 307.74,-44.02 309.46,-50.73"/>
</g>
<!-- in2 -->
<g id="node4" class="node">
<title>in2</title>
<polygon fill="#eef6ff" stroke="#4b8fc5" points="141.72,-118.4 39,-118.4 39,-74 147.72,-74 147.72,-112.4 141.72,-118.4"/>
<polyline fill="none" stroke="#4b8fc5" points="141.72,-118.4 141.72,-112.4"/>
<polyline fill="none" stroke="#4b8fc5" points="147.72,-112.4 141.72,-112.4"/>
<text xml:space="preserve" text-anchor="start" x="48.36" y="-102.7" font-family="Inter,Arial" font-size="10.00" fill="#123d5c">from rsa&#45;v0.9.10.svg</text>
<text xml:space="preserve" text-anchor="start" x="82.49" y="-92.7" font-family="Inter,Arial" font-weight="bold" font-size="10.00" fill="#123d5c">sha2</text>
<text xml:space="preserve" text-anchor="start" x="79.86" y="-82.7" font-family="Inter,Arial" font-size="10.00" fill="#123d5c">0.10.9</text>
</g>
<!-- in2&#45;&gt;n0 -->
<g id="edge3" class="edge">
<title>in2&#45;&gt;n0</title>
<path fill="none" stroke="#4b8fc5" stroke-width="7.2" stroke-dasharray="5,2" d="M147.97,-84.35C169.82,-79.52 194.57,-74.05 214.53,-69.64"/>
<polygon fill="#4b8fc5" stroke="#4b8fc5" stroke-width="7.2" points="215.05,-73.07 219.68,-68.5 213.56,-66.31 215.05,-73.07"/>
</g>
<!-- in3 -->
<g id="node5" class="node">
<title>in3</title>
<polygon fill="#eef6ff" stroke="#4b8fc5" points="180.72,-49.4 0,-49.4 0,-5 186.72,-5 186.72,-43.4 180.72,-49.4"/>
<polyline fill="none" stroke="#4b8fc5" points="180.72,-49.4 180.72,-43.4"/>
<polyline fill="none" stroke="#4b8fc5" points="186.72,-43.4 180.72,-43.4"/>
<text xml:space="preserve" text-anchor="start" x="9.36" y="-33.7" font-family="Inter,Arial" font-size="10.00" fill="#123d5c">from rustls&#45;rustcrypto&#45;v0.0.2&#45;alpha.svg</text>
<text xml:space="preserve" text-anchor="start" x="82.49" y="-23.7" font-family="Inter,Arial" font-weight="bold" font-size="10.00" fill="#123d5c">sha2</text>
<text xml:space="preserve" text-anchor="start" x="79.86" y="-13.7" font-family="Inter,Arial" font-size="10.00" fill="#123d5c">0.10.9</text>
</g>
<!-- in3&#45;&gt;n0 -->
<g id="edge4" class="edge">
<title>in3&#45;&gt;n0</title>
<path fill="none" stroke="#4b8fc5" stroke-width="7.2" stroke-dasharray="5,2" d="M186.94,-47.08C196.67,-49.17 206.12,-51.2 214.69,-53.03"/>
<polygon fill="#4b8fc5" stroke="#4b8fc5" stroke-width="7.2" points="213.82,-56.39 219.92,-54.16 215.27,-49.62 213.82,-56.39"/>
</g>
</g>
</svg>
