<?xml version="1.0" encoding="UTF-8" standalone="no"?>
<!DOCTYPE svg PUBLIC "-//W3C//DTD SVG 1.1//EN"
 "http://www.w3.org/Graphics/SVG/1.1/DTD/svg11.dtd">
<!-- Generated by graphviz version 14.1.2 (0)
 -->
<!-- Title: smoltcp&#45;v0.13.1 Pages: 1 -->
<svg width="294pt" height="210pt"
 viewBox="0.00 0.00 294.00 210.00" xmlns="http://www.w3.org/2000/svg" xmlns:xlink="http://www.w3.org/1999/xlink">
<g id="graph0" class="graph" transform="scale(1 1) rotate(0) translate(4 206.4)">
<title>smoltcp&#45;v0.13.1</title>
<polygon fill="white" stroke="none" points="-4,4 -4,-206.4 289.94,-206.4 289.94,4 -4,4"/>
<!-- n0 -->
<g id="node1" class="node">
<title>n0</title>
<path fill="#dff3ff" stroke="#1b78a6" d="M116.22,-141.53C116.22,-141.53 12,-141.53 12,-141.53 6,-141.53 0,-135.53 0,-129.53 0,-129.53 0,-52.88 0,-52.88 0,-46.88 6,-40.88 12,-40.88 12,-40.88 116.22,-40.88 116.22,-40.88 122.22,-40.88 128.22,-46.88 128.22,-52.88 128.22,-52.88 128.22,-129.53 128.22,-129.53 128.22,-135.53 122.22,-141.53 116.22,-141.53"/>
<text xml:space="preserve" text-anchor="start" x="38.61" y="-122.97" font-family="Inter,Arial" font-weight="bold" font-size="13.00" fill="#172033">smoltcp</text>
<text xml:space="preserve" text-anchor="start" x="47.61" y="-107.92" font-family="Inter,Arial" font-size="12.00" fill="#172033">0.13.1</text>
<text xml:space="preserve" text-anchor="start" x="9.36" y="-94.62" font-family="Inter,Arial" font-size="11.00" fill="#172033">/vendor/smoltcp&#45;0.13.1</text>
<text xml:space="preserve" text-anchor="start" x="27.74" y="-67.12" font-family="Inter,Arial" font-weight="bold" font-size="11.00" fill="#172033">managed</text>
<text xml:space="preserve" text-anchor="start" x="75.74" y="-67.12" font-family="Inter,Arial" font-size="10.00" fill="#172033"> </text>
<text xml:space="preserve" text-anchor="start" x="78.74" y="-67.12" font-family="Inter,Arial" font-size="10.00" fill="#172033">0.8.0</text>
<path fill="none" stroke="#9aa8b8" d="M25.86,-54.08C25.86,-54.08 102.36,-54.08 102.36,-54.08 107.61,-54.08 112.86,-59.33 112.86,-64.58 112.86,-64.58 112.86,-75.08 112.86,-75.08 112.86,-80.33 107.61,-85.58 102.36,-85.58 102.36,-85.58 25.86,-85.58 25.86,-85.58 20.61,-85.58 15.36,-80.33 15.36,-75.08 15.36,-75.08 15.36,-64.58 15.36,-64.58 15.36,-59.33 20.61,-54.08 25.86,-54.08"/>
</g>
<!-- out0 -->
<g id="node2" class="node">
<title>out0</title>
<polygon fill="#fff8e8" stroke="#d19922" points="269.44,-202.4 178.72,-202.4 178.72,-138 275.44,-138 275.44,-196.4 269.44,-202.4"/>
<polyline fill="none" stroke="#d19922" points="269.44,-202.4 269.44,-196.4"/>
<polyline fill="none" stroke="#d19922" points="275.44,-196.4 269.44,-196.4"/>
<text xml:space="preserve" text-anchor="start" x="188.08" y="-186.7" font-family="Inter,Arial" font-size="10.00" fill="#614000">to acpi&#45;v6.1.1.svg</text>
<text xml:space="preserve" text-anchor="start" x="209.83" y="-176.7" font-family="Inter,Arial" font-weight="bold" font-size="10.00" fill="#614000">bitflags</text>
<text xml:space="preserve" text-anchor="start" x="213.58" y="-166.7" font-family="Inter,Arial" font-size="10.00" fill="#614000">2.13.0</text>
<text xml:space="preserve" text-anchor="start" x="204.95" y="-156.7" font-family="Inter,Arial" font-weight="bold" font-size="10.00" fill="#614000">byteorder</text>
<text xml:space="preserve" text-anchor="start" x="216.2" y="-146.7" font-family="Inter,Arial" font-size="10.00" fill="#614000">1.5.0</text>
</g>
<!-- n0&#45;&gt;out0 -->
<g id="edge1" class="edge">
<title>n0&#45;&gt;out0</title>
<path fill="none" stroke="#d19922" stroke-width="7.2" stroke-dasharray="5,2" d="M128.27,-122.2C141.21,-128.55 154.78,-135.21 167.55,-141.48"/>
<polygon fill="#d19922" stroke="#d19922" stroke-width="7.2" points="166.01,-144.58 172.47,-143.89 169.06,-138.36 166.01,-144.58"/>
</g>
<!-- out1 -->
<g id="node3" class="node">
<title>out1</title>
<polygon fill="#fff8e8" stroke="#d19922" points="268.31,-113.4 179.84,-113.4 179.84,-69 274.31,-69 274.31,-107.4 268.31,-113.4"/>
<polyline fill="none" stroke="#d19922" points="268.31,-113.4 268.31,-107.4"/>
<polyline fill="none" stroke="#d19922" points="274.31,-107.4 268.31,-107.4"/>
<text xml:space="preserve" text-anchor="start" x="189.2" y="-97.7" font-family="Inter,Arial" font-size="10.00" fill="#614000">to aes&#45;v0.8.4.svg</text>
<text xml:space="preserve" text-anchor="start" x="215.45" y="-87.7" font-family="Inter,Arial" font-weight="bold" font-size="10.00" fill="#614000">cfg&#45;if</text>
<text xml:space="preserve" text-anchor="start" x="216.2" y="-77.7" font-family="Inter,Arial" font-size="10.00" fill="#614000">1.0.4</text>
</g>
<!-- n0&#45;&gt;out1 -->
<g id="edge2" class="edge">
<title>n0&#45;&gt;out1</title>
<path fill="none" stroke="#d19922" stroke-width="7.2" stroke-dasharray="5,2" d="M128.27,-91.2C141.22,-91.2 154.79,-91.2 167.57,-91.2"/>
<polygon fill="#d19922" stroke="#d19922" stroke-width="7.2" points="167.28,-94.67 172.78,-91.2 167.28,-87.74 167.28,-94.67"/>
</g>
<!-- out2 -->
<g id="node4" class="node">
<title>out2</title>
<polygon fill="#fff8e8" stroke="#d19922" points="279.94,-44.4 168.22,-44.4 168.22,0 285.94,0 285.94,-38.4 279.94,-44.4"/>
<polyline fill="none" stroke="#d19922" points="279.94,-44.4 279.94,-38.4"/>
<polyline fill="none" stroke="#d19922" points="285.94,-38.4 279.94,-38.4"/>
<text xml:space="preserve" text-anchor="start" x="177.58" y="-28.7" font-family="Inter,Arial" font-size="10.00" fill="#614000">to heapless&#45;v0.9.3.svg</text>
<text xml:space="preserve" text-anchor="start" x="206.45" y="-18.7" font-family="Inter,Arial" font-weight="bold" font-size="10.00" fill="#614000">heapless</text>
<text xml:space="preserve" text-anchor="start" x="216.2" y="-8.7" font-family="Inter,Arial" font-size="10.00" fill="#614000">0.9.3</text>
</g>
<!-- n0&#45;&gt;out2 -->
<g id="edge3" class="edge">
<title>n0&#45;&gt;out2</title>
<path fill="none" stroke="#d19922" stroke-width="7.2" stroke-dasharray="5,2" d="M128.27,-64.13C139.43,-59.34 151.06,-54.36 162.25,-49.56"/>
<polygon fill="#d19922" stroke="#d19922" stroke-width="7.2" points="163.35,-52.86 167.04,-47.51 160.62,-46.49 163.35,-52.86"/>
</g>
</g>
</svg>
