<?xml version="1.0" encoding="UTF-8" standalone="no"?>
<!DOCTYPE svg PUBLIC "-//W3C//DTD SVG 1.1//EN"
 "http://www.w3.org/Graphics/SVG/1.1/DTD/svg11.dtd">
<!-- Generated by graphviz version 14.1.2 (0)
 -->
<!-- Title: smoltcp&#45;v0.13.1 Pages: 1 -->
<svg width="270pt" height="189pt"
 viewBox="0.00 0.00 270.00 189.00" xmlns="http://www.w3.org/2000/svg" xmlns:xlink="http://www.w3.org/1999/xlink">
<g id="graph0" class="graph" transform="scale(1 1) rotate(0) translate(4 185.2)">
<title>smoltcp&#45;v0.13.1</title>
<polygon fill="white" stroke="none" points="-4,4 -4,-185.2 265.79,-185.2 265.79,4 -4,4"/>
<!-- n0 -->
<g id="node1" class="node">
<title>n0</title>
<path fill="#dff3ff" stroke="#1b78a6" d="M99.27,-112.07C99.27,-112.07 12,-112.07 12,-112.07 6,-112.07 0,-106.07 0,-100.07 0,-100.07 0,-61.12 0,-61.12 0,-55.12 6,-49.12 12,-49.12 12,-49.12 99.27,-49.12 99.27,-49.12 105.27,-49.12 111.27,-55.12 111.27,-61.12 111.27,-61.12 111.27,-100.07 111.27,-100.07 111.27,-106.07 105.27,-112.07 99.27,-112.07"/>
<text xml:space="preserve" text-anchor="start" x="36.88" y="-99.97" font-family="Inter,Arial" font-weight="bold" font-size="10.00" fill="#172033">smoltcp</text>
<text xml:space="preserve" text-anchor="start" x="42.13" y="-86.97" font-family="Inter,Arial" font-size="10.00" fill="#172033">0.13.1</text>
<text xml:space="preserve" text-anchor="start" x="5.76" y="-74.97" font-family="Inter,Arial" font-size="10.00" fill="#172033">/vendor/smoltcp&#45;0.13.1</text>
<text xml:space="preserve" text-anchor="start" x="27.51" y="-60.87" font-family="Inter,Arial" font-weight="bold" font-size="8.00" fill="#172033">managed</text>
<text xml:space="preserve" text-anchor="start" x="63.51" y="-60.87" font-family="Inter,Arial" font-size="8.00" fill="#172033"> 0.8.0</text>
<path fill="none" stroke="#9aa8b8" d="M12.34,-52.72C12.34,-52.72 98.93,-52.72 98.93,-52.72 102.22,-52.72 105.51,-56.02 105.51,-59.31 105.51,-59.31 105.51,-65.89 105.51,-65.89 105.51,-69.18 102.22,-72.47 98.93,-72.47 98.93,-72.47 12.34,-72.47 12.34,-72.47 9.05,-72.47 5.76,-69.18 5.76,-65.89 5.76,-65.89 5.76,-59.31 5.76,-59.31 5.76,-56.02 9.05,-52.72 12.34,-52.72"/>
</g>
<!-- out0 -->
<g id="node2" class="node">
<title>out0</title>
<polygon fill="#fff8e8" stroke="#d19922" points="245.29,-181.2 161.77,-181.2 161.77,-124 251.29,-124 251.29,-175.2 245.29,-181.2"/>
<polyline fill="none" stroke="#d19922" points="245.29,-181.2 245.29,-175.2"/>
<polyline fill="none" stroke="#d19922" points="251.29,-175.2 245.29,-175.2"/>
<text xml:space="preserve" text-anchor="start" x="167.53" y="-169.1" font-family="Inter,Arial" font-size="10.00" fill="#614000">to acpi&#45;v6.1.1.svg</text>
<text xml:space="preserve" text-anchor="start" x="189.28" y="-159.1" font-family="Inter,Arial" font-weight="bold" font-size="10.00" fill="#614000">bitflags</text>
<text xml:space="preserve" text-anchor="start" x="193.03" y="-149.1" font-family="Inter,Arial" font-size="10.00" fill="#614000">2.11.1</text>
<text xml:space="preserve" text-anchor="start" x="184.4" y="-139.1" font-family="Inter,Arial" font-weight="bold" font-size="10.00" fill="#614000">byteorder</text>
<text xml:space="preserve" text-anchor="start" x="195.65" y="-129.1" font-family="Inter,Arial" font-size="10.00" fill="#614000">1.5.0</text>
</g>
<!-- n0&#45;&gt;out0 -->
<g id="edge1" class="edge">
<title>n0&#45;&gt;out0</title>
<path fill="none" stroke="#d19922" stroke-width="0.9" stroke-dasharray="5,2" d="M111.65,-107.21C126.01,-114.15 141.4,-121.59 155.47,-128.4"/>
<polygon fill="#d19922" stroke="#d19922" stroke-width="0.9" points="154.41,-130.02 160.2,-130.68 156.08,-126.55 154.41,-130.02"/>
</g>
<!-- out1 -->
<g id="node3" class="node">
<title>out1</title>
<polygon fill="#fff8e8" stroke="#d19922" points="244.16,-99.2 162.89,-99.2 162.89,-62 250.16,-62 250.16,-93.2 244.16,-99.2"/>
<polyline fill="none" stroke="#d19922" points="244.16,-99.2 244.16,-93.2"/>
<polyline fill="none" stroke="#d19922" points="250.16,-93.2 244.16,-93.2"/>
<text xml:space="preserve" text-anchor="start" x="168.65" y="-87.1" font-family="Inter,Arial" font-size="10.00" fill="#614000">to aes&#45;v0.8.4.svg</text>
<text xml:space="preserve" text-anchor="start" x="194.9" y="-77.1" font-family="Inter,Arial" font-weight="bold" font-size="10.00" fill="#614000">cfg&#45;if</text>
<text xml:space="preserve" text-anchor="start" x="195.65" y="-67.1" font-family="Inter,Arial" font-size="10.00" fill="#614000">1.0.4</text>
</g>
<!-- n0&#45;&gt;out1 -->
<g id="edge2" class="edge">
<title>n0&#45;&gt;out1</title>
<path fill="none" stroke="#d19922" stroke-width="0.9" stroke-dasharray="5,2" d="M111.65,-80.6C126.18,-80.6 141.76,-80.6 155.98,-80.6"/>
<polygon fill="#d19922" stroke="#d19922" stroke-width="0.9" points="155.97,-82.53 161.47,-80.6 155.97,-78.68 155.97,-82.53"/>
</g>
<!-- out2 -->
<g id="node4" class="node">
<title>out2</title>
<polygon fill="#fff8e8" stroke="#d19922" points="255.79,-37.2 151.27,-37.2 151.27,0 261.79,0 261.79,-31.2 255.79,-37.2"/>
<polyline fill="none" stroke="#d19922" points="255.79,-37.2 255.79,-31.2"/>
<polyline fill="none" stroke="#d19922" points="261.79,-31.2 255.79,-31.2"/>
<text xml:space="preserve" text-anchor="start" x="157.03" y="-25.1" font-family="Inter,Arial" font-size="10.00" fill="#614000">to heapless&#45;v0.9.3.svg</text>
<text xml:space="preserve" text-anchor="start" x="185.9" y="-15.1" font-family="Inter,Arial" font-weight="bold" font-size="10.00" fill="#614000">heapless</text>
<text xml:space="preserve" text-anchor="start" x="195.65" y="-5.1" font-family="Inter,Arial" font-size="10.00" fill="#614000">0.9.3</text>
</g>
<!-- n0&#45;&gt;out2 -->
<g id="edge3" class="edge">
<title>n0&#45;&gt;out2</title>
<path fill="none" stroke="#d19922" stroke-width="0.9" stroke-dasharray="5,2" d="M111.65,-57.69C125.45,-51.95 140.2,-45.8 153.82,-40.13"/>
<polygon fill="#d19922" stroke="#d19922" stroke-width="0.9" points="154.4,-41.98 158.74,-38.08 152.92,-38.42 154.4,-41.98"/>
</g>
</g>
</svg>
