<?xml version="1.0" encoding="UTF-8" standalone="no"?>
<!DOCTYPE svg PUBLIC "-//W3C//DTD SVG 1.1//EN"
 "http://www.w3.org/Graphics/SVG/1.1/DTD/svg11.dtd">
<!-- Generated by graphviz version 14.1.2 (0)
 -->
<!-- Title: socket2&#45;v0.6.3 Pages: 1 -->
<svg width="263pt" height="179pt"
 viewBox="0.00 0.00 263.00 179.00" xmlns="http://www.w3.org/2000/svg" xmlns:xlink="http://www.w3.org/1999/xlink">
<g id="graph0" class="graph" transform="scale(1 1) rotate(0) translate(4 175.2)">
<title>socket2&#45;v0.6.3</title>
<polygon fill="white" stroke="none" points="-4,4 -4,-175.2 259.04,-175.2 259.04,4 -4,4"/>
<!-- n0 -->
<g id="node1" class="node">
<title>n0</title>
<path fill="#dff3ff" stroke="#1b78a6" d="M94.02,-109.2C94.02,-109.2 12,-109.2 12,-109.2 6,-109.2 0,-103.2 0,-97.2 0,-97.2 0,-84 0,-84 0,-78 6,-72 12,-72 12,-72 94.02,-72 94.02,-72 100.02,-72 106.02,-78 106.02,-84 106.02,-84 106.02,-97.2 106.02,-97.2 106.02,-103.2 100.02,-109.2 94.02,-109.2"/>
<text xml:space="preserve" text-anchor="start" x="35.38" y="-97.1" font-family="Inter,Arial" font-weight="bold" font-size="10.00" fill="#172033">socket2</text>
<text xml:space="preserve" text-anchor="start" x="42.13" y="-87.1" font-family="Inter,Arial" font-size="10.00" fill="#172033">0.6.3</text>
<text xml:space="preserve" text-anchor="start" x="5.76" y="-77.1" font-family="Inter,Arial" font-size="10.00" fill="#172033">/vendor/socket2&#45;0.6.3</text>
</g>
<!-- out0 -->
<g id="node2" class="node">
<title>out0</title>
<polygon fill="#fff8e8" stroke="#d19922" points="242.29,-171.2 152.77,-171.2 152.77,-134 248.29,-134 248.29,-165.2 242.29,-171.2"/>
<polyline fill="none" stroke="#d19922" points="242.29,-171.2 242.29,-165.2"/>
<polyline fill="none" stroke="#d19922" points="248.29,-165.2 242.29,-165.2"/>
<text xml:space="preserve" text-anchor="start" x="158.53" y="-159.1" font-family="Inter,Arial" font-size="10.00" fill="#614000">to core3&#45;v0.1.2.svg</text>
<text xml:space="preserve" text-anchor="start" x="187.78" y="-149.1" font-family="Inter,Arial" font-weight="bold" font-size="10.00" fill="#614000">core3</text>
<text xml:space="preserve" text-anchor="start" x="189.66" y="-139.1" font-family="Inter,Arial" font-size="10.00" fill="#614000">0.1.2</text>
</g>
<!-- n0&#45;&gt;out0 -->
<g id="edge1" class="edge">
<title>n0&#45;&gt;out0</title>
<path fill="none" stroke="#d19922" stroke-width="0.9" stroke-dasharray="5,2" d="M98.46,-109.54C114.39,-116.33 132.47,-124.03 148.88,-131.02"/>
<polygon fill="#d19922" stroke="#d19922" stroke-width="0.9" points="147.78,-132.64 153.6,-133.03 149.29,-129.1 147.78,-132.64"/>
</g>
<!-- out1 -->
<g id="node3" class="node">
<title>out1</title>
<polygon fill="#fff8e8" stroke="#d19922" points="241.92,-109.2 153.15,-109.2 153.15,-72 247.92,-72 247.92,-103.2 241.92,-109.2"/>
<polyline fill="none" stroke="#d19922" points="241.92,-109.2 241.92,-103.2"/>
<polyline fill="none" stroke="#d19922" points="247.92,-103.2 241.92,-103.2"/>
<text xml:space="preserve" text-anchor="start" x="158.91" y="-97.1" font-family="Inter,Arial" font-size="10.00" fill="#614000">to spin&#45;v0.10.0.svg</text>
<text xml:space="preserve" text-anchor="start" x="190.41" y="-87.1" font-family="Inter,Arial" font-weight="bold" font-size="10.00" fill="#614000">spin</text>
<text xml:space="preserve" text-anchor="start" x="187.03" y="-77.1" font-family="Inter,Arial" font-size="10.00" fill="#614000">0.10.0</text>
</g>
<!-- n0&#45;&gt;out1 -->
<g id="edge2" class="edge">
<title>n0&#45;&gt;out1</title>
<path fill="none" stroke="#d19922" stroke-width="0.9" stroke-dasharray="5,2" d="M106.14,-90.6C119.19,-90.6 133.21,-90.6 146.32,-90.6"/>
<polygon fill="#d19922" stroke="#d19922" stroke-width="0.9" points="146.22,-92.53 151.72,-90.6 146.22,-88.68 146.22,-92.53"/>
</g>
<!-- out2 -->
<g id="node4" class="node">
<title>out2</title>
<polygon fill="#fff8e8" stroke="#d19922" points="249.04,-47.2 146.02,-47.2 146.02,0 255.04,0 255.04,-41.2 249.04,-47.2"/>
<polyline fill="none" stroke="#d19922" points="249.04,-47.2 249.04,-41.2"/>
<polyline fill="none" stroke="#d19922" points="255.04,-41.2 249.04,-41.2"/>
<text xml:space="preserve" text-anchor="start" x="151.78" y="-35.1" font-family="Inter,Arial" font-size="10.00" fill="#614000">to trueos&#45;io&#45;v0.1.0.svg</text>
<text xml:space="preserve" text-anchor="start" x="179.91" y="-25.1" font-family="Inter,Arial" font-weight="bold" font-size="10.00" fill="#614000">trueos&#45;io</text>
<text xml:space="preserve" text-anchor="start" x="189.66" y="-15.1" font-family="Inter,Arial" font-size="10.00" fill="#614000">0.1.0</text>
<text xml:space="preserve" text-anchor="start" x="165.28" y="-5.1" font-family="Inter,Arial" font-size="10.00" fill="#614000">/crates/trueos&#45;io</text>
</g>
<!-- n0&#45;&gt;out2 -->
<g id="edge3" class="edge">
<title>n0&#45;&gt;out2</title>
<path fill="none" stroke="#d19922" stroke-width="0.9" stroke-dasharray="5,2" d="M95.32,-71.58C109.56,-65.02 125.8,-57.55 141.14,-50.48"/>
<polygon fill="#d19922" stroke="#d19922" stroke-width="0.9" points="141.77,-52.31 145.96,-48.26 140.16,-48.82 141.77,-52.31"/>
</g>
</g>
</svg>
