<?xml version="1.0" encoding="UTF-8" standalone="no"?>
<!DOCTYPE svg PUBLIC "-//W3C//DTD SVG 1.1//EN"
 "http://www.w3.org/Graphics/SVG/1.1/DTD/svg11.dtd">
<!-- Generated by graphviz version 14.1.2 (0)
 -->
<!-- Title: socket2&#45;v0.6.3 Pages: 1 -->
<svg width="286pt" height="200pt"
 viewBox="0.00 0.00 286.00 200.00" xmlns="http://www.w3.org/2000/svg" xmlns:xlink="http://www.w3.org/1999/xlink">
<g id="graph0" class="graph" transform="scale(1 1) rotate(0) translate(4 196.4)">
<title>socket2&#45;v0.6.3</title>
<polygon fill="white" stroke="none" points="-4,4 -4,-196.4 282.44,-196.4 282.44,4 -4,4"/>
<!-- n0 -->
<g id="node1" class="node">
<title>n0</title>
<path fill="#dff3ff" stroke="#1b78a6" d="M110.22,-126.4C110.22,-126.4 12,-126.4 12,-126.4 6,-126.4 0,-120.4 0,-114.4 0,-114.4 0,-88 0,-88 0,-82 6,-76 12,-76 12,-76 110.22,-76 110.22,-76 116.22,-76 122.22,-82 122.22,-88 122.22,-88 122.22,-114.4 122.22,-114.4 122.22,-120.4 116.22,-126.4 110.22,-126.4"/>
<text xml:space="preserve" text-anchor="start" x="35.99" y="-107.85" font-family="Inter,Arial" font-weight="bold" font-size="13.00" fill="#172033">socket2</text>
<text xml:space="preserve" text-anchor="start" x="47.99" y="-95.8" font-family="Inter,Arial" font-size="12.00" fill="#172033">0.6.3</text>
<text xml:space="preserve" text-anchor="start" x="9.36" y="-84.75" font-family="Inter,Arial" font-size="11.00" fill="#172033">/vendor/socket2&#45;0.6.3</text>
</g>
<!-- out0 -->
<g id="node2" class="node">
<title>out0</title>
<polygon fill="#fff8e8" stroke="#d19922" points="265.69,-192.4 168.97,-192.4 168.97,-148 271.69,-148 271.69,-186.4 265.69,-192.4"/>
<polyline fill="none" stroke="#d19922" points="265.69,-192.4 265.69,-186.4"/>
<polyline fill="none" stroke="#d19922" points="271.69,-186.4 265.69,-186.4"/>
<text xml:space="preserve" text-anchor="start" x="178.33" y="-176.7" font-family="Inter,Arial" font-size="10.00" fill="#614000">to core3&#45;v0.1.2.svg</text>
<text xml:space="preserve" text-anchor="start" x="207.58" y="-166.7" font-family="Inter,Arial" font-weight="bold" font-size="10.00" fill="#614000">core3</text>
<text xml:space="preserve" text-anchor="start" x="209.45" y="-156.7" font-family="Inter,Arial" font-size="10.00" fill="#614000">0.1.2</text>
</g>
<!-- n0&#45;&gt;out0 -->
<g id="edge1" class="edge">
<title>n0&#45;&gt;out0</title>
<path fill="none" stroke="#d19922" stroke-width="7.2" stroke-dasharray="5,2" d="M120.65,-126.89C132.68,-132.17 145.39,-137.75 157.53,-143.08"/>
<polygon fill="#d19922" stroke="#d19922" stroke-width="7.2" points="155.88,-146.14 162.3,-145.17 158.66,-139.79 155.88,-146.14"/>
</g>
<!-- out1 -->
<g id="node3" class="node">
<title>out1</title>
<polygon fill="#fff8e8" stroke="#d19922" points="265.31,-123.4 169.34,-123.4 169.34,-79 271.31,-79 271.31,-117.4 265.31,-123.4"/>
<polyline fill="none" stroke="#d19922" points="265.31,-123.4 265.31,-117.4"/>
<polyline fill="none" stroke="#d19922" points="271.31,-117.4 265.31,-117.4"/>
<text xml:space="preserve" text-anchor="start" x="178.7" y="-107.7" font-family="Inter,Arial" font-size="10.00" fill="#614000">to spin&#45;v0.10.0.svg</text>
<text xml:space="preserve" text-anchor="start" x="210.2" y="-97.7" font-family="Inter,Arial" font-weight="bold" font-size="10.00" fill="#614000">spin</text>
<text xml:space="preserve" text-anchor="start" x="206.83" y="-87.7" font-family="Inter,Arial" font-size="10.00" fill="#614000">0.10.0</text>
</g>
<!-- n0&#45;&gt;out1 -->
<g id="edge2" class="edge">
<title>n0&#45;&gt;out1</title>
<path fill="none" stroke="#d19922" stroke-width="7.2" stroke-dasharray="5,2" d="M122.45,-101.2C133.77,-101.2 145.62,-101.2 157,-101.2"/>
<polygon fill="#d19922" stroke="#d19922" stroke-width="7.2" points="156.86,-104.67 162.36,-101.2 156.86,-97.74 156.86,-104.67"/>
</g>
<!-- out2 -->
<g id="node4" class="node">
<title>out2</title>
<polygon fill="#fff8e8" stroke="#d19922" points="272.44,-54.4 162.22,-54.4 162.22,0 278.44,0 278.44,-48.4 272.44,-54.4"/>
<polyline fill="none" stroke="#d19922" points="272.44,-54.4 272.44,-48.4"/>
<polyline fill="none" stroke="#d19922" points="278.44,-48.4 272.44,-48.4"/>
<text xml:space="preserve" text-anchor="start" x="171.58" y="-38.7" font-family="Inter,Arial" font-size="10.00" fill="#614000">to trueos&#45;io&#45;v0.1.0.svg</text>
<text xml:space="preserve" text-anchor="start" x="199.7" y="-28.7" font-family="Inter,Arial" font-weight="bold" font-size="10.00" fill="#614000">trueos&#45;io</text>
<text xml:space="preserve" text-anchor="start" x="209.45" y="-18.7" font-family="Inter,Arial" font-size="10.00" fill="#614000">0.1.0</text>
<text xml:space="preserve" text-anchor="start" x="185.08" y="-8.7" font-family="Inter,Arial" font-size="10.00" fill="#614000">/crates/trueos&#45;io</text>
</g>
<!-- n0&#45;&gt;out2 -->
<g id="edge3" class="edge">
<title>n0&#45;&gt;out2</title>
<path fill="none" stroke="#d19922" stroke-width="7.2" stroke-dasharray="5,2" d="M116.66,-75.53C127.75,-70.31 139.54,-64.75 151.04,-59.34"/>
<polygon fill="#d19922" stroke="#d19922" stroke-width="7.2" points="152.33,-62.57 155.83,-57.09 149.38,-56.3 152.33,-62.57"/>
</g>
</g>
</svg>
