<?xml version="1.0" encoding="UTF-8" standalone="no"?>
<!DOCTYPE svg PUBLIC "-//W3C//DTD SVG 1.1//EN"
 "http://www.w3.org/Graphics/SVG/1.1/DTD/svg11.dtd">
<!-- Generated by graphviz version 14.1.2 (0)
 -->
<!-- Title: spin&#45;v0.10.0 Pages: 1 -->
<svg width="357pt" height="417pt"
 viewBox="0.00 0.00 357.00 417.00" xmlns="http://www.w3.org/2000/svg" xmlns:xlink="http://www.w3.org/1999/xlink">
<g id="graph0" class="graph" transform="scale(1 1) rotate(0) translate(4 413.2)">
<title>spin&#45;v0.10.0</title>
<polygon fill="white" stroke="none" points="-4,4 -4,-413.2 353.04,-413.2 353.04,4 -4,4"/>
<!-- n0 -->
<g id="node1" class="node">
<title>n0</title>
<path fill="#dff3ff" stroke="#1b78a6" d="M207.52,-222.6C207.52,-222.6 177.52,-222.6 177.52,-222.6 171.52,-222.6 165.52,-216.6 165.52,-210.6 165.52,-210.6 165.52,-198.6 165.52,-198.6 165.52,-192.6 171.52,-186.6 177.52,-186.6 177.52,-186.6 207.52,-186.6 207.52,-186.6 213.52,-186.6 219.52,-192.6 219.52,-198.6 219.52,-198.6 219.52,-210.6 219.52,-210.6 219.52,-216.6 213.52,-222.6 207.52,-222.6"/>
<text xml:space="preserve" text-anchor="start" x="182.39" y="-206.1" font-family="Inter,Arial" font-weight="bold" font-size="10.00" fill="#172033">spin</text>
<text xml:space="preserve" text-anchor="start" x="179.02" y="-196.1" font-family="Inter,Arial" font-size="10.00" fill="#172033">0.10.0</text>
</g>
<!-- out0 -->
<g id="node2" class="node">
<title>out0</title>
<polygon fill="#fff8e8" stroke="#d19922" points="343.04,-223.2 259.52,-223.2 259.52,-186 349.04,-186 349.04,-217.2 343.04,-223.2"/>
<polyline fill="none" stroke="#d19922" points="343.04,-223.2 343.04,-217.2"/>
<polyline fill="none" stroke="#d19922" points="349.04,-217.2 343.04,-217.2"/>
<text xml:space="preserve" text-anchor="start" x="265.28" y="-211.1" font-family="Inter,Arial" font-size="10.00" fill="#614000">to acpi&#45;v6.1.1.svg</text>
<text xml:space="preserve" text-anchor="start" x="284.78" y="-201.1" font-family="Inter,Arial" font-weight="bold" font-size="10.00" fill="#614000">lock_api</text>
<text xml:space="preserve" text-anchor="start" x="290.78" y="-191.1" font-family="Inter,Arial" font-size="10.00" fill="#614000">0.4.14</text>
</g>
<!-- n0&#45;&gt;out0 -->
<g id="edge1" class="edge">
<title>n0&#45;&gt;out0</title>
<path fill="none" stroke="#d19922" stroke-width="0.9" stroke-dasharray="5,2" d="M219.81,-204.6C229.67,-204.6 241.24,-204.6 252.57,-204.6"/>
<polygon fill="#d19922" stroke="#d19922" stroke-width="0.9" points="252.34,-206.53 257.84,-204.6 252.34,-202.68 252.34,-206.53"/>
</g>
<!-- in1 -->
<g id="node3" class="node">
<title>in1</title>
<polygon fill="#eef6ff" stroke="#4b8fc5" points="116.89,-409.2 2.62,-409.2 2.62,-372 122.89,-372 122.89,-403.2 116.89,-409.2"/>
<polyline fill="none" stroke="#4b8fc5" points="116.89,-409.2 116.89,-403.2"/>
<polyline fill="none" stroke="#4b8fc5" points="122.89,-403.2 116.89,-403.2"/>
<text xml:space="preserve" text-anchor="start" x="8.38" y="-397.1" font-family="Inter,Arial" font-size="10.00" fill="#123d5c">from crab&#45;usb&#45;v0.9.1.svg</text>
<text xml:space="preserve" text-anchor="start" x="52.63" y="-387.1" font-family="Inter,Arial" font-weight="bold" font-size="10.00" fill="#123d5c">spin</text>
<text xml:space="preserve" text-anchor="start" x="49.26" y="-377.1" font-family="Inter,Arial" font-size="10.00" fill="#123d5c">0.10.0</text>
</g>
<!-- in1&#45;&gt;n0 -->
<g id="edge2" class="edge">
<title>in1&#45;&gt;n0</title>
<path fill="none" stroke="#4b8fc5" stroke-width="0.9" stroke-dasharray="5,2" d="M110.77,-371.58C116.16,-368.13 121.25,-364.15 125.52,-359.6 160.85,-321.98 178.83,-262.59 186.6,-229.3"/>
<polygon fill="#4b8fc5" stroke="#4b8fc5" stroke-width="0.9" points="188.47,-229.73 187.8,-223.94 184.72,-228.89 188.47,-229.73"/>
</g>
<!-- in2 -->
<g id="node4" class="node">
<title>in2</title>
<polygon fill="#eef6ff" stroke="#4b8fc5" points="115.39,-347.2 4.12,-347.2 4.12,-310 121.39,-310 121.39,-341.2 115.39,-347.2"/>
<polyline fill="none" stroke="#4b8fc5" points="115.39,-347.2 115.39,-341.2"/>
<polyline fill="none" stroke="#4b8fc5" points="121.39,-341.2 115.39,-341.2"/>
<text xml:space="preserve" text-anchor="start" x="9.88" y="-335.1" font-family="Inter,Arial" font-size="10.00" fill="#123d5c">from dma&#45;api&#45;v0.7.3.svg</text>
<text xml:space="preserve" text-anchor="start" x="52.63" y="-325.1" font-family="Inter,Arial" font-weight="bold" font-size="10.00" fill="#123d5c">spin</text>
<text xml:space="preserve" text-anchor="start" x="49.26" y="-315.1" font-family="Inter,Arial" font-size="10.00" fill="#123d5c">0.10.0</text>
</g>
<!-- in2&#45;&gt;n0 -->
<g id="edge3" class="edge">
<title>in2&#45;&gt;n0</title>
<path fill="none" stroke="#4b8fc5" stroke-width="0.9" stroke-dasharray="5,2" d="M108.29,-309.6C114.39,-306.06 120.33,-302.05 125.52,-297.6 148.22,-278.12 167.11,-249.24 178.79,-228.84"/>
<polygon fill="#4b8fc5" stroke="#4b8fc5" stroke-width="0.9" points="180.35,-229.99 181.36,-224.25 176.99,-228.1 180.35,-229.99"/>
</g>
<!-- in3 -->
<g id="node5" class="node">
<title>in3</title>
<polygon fill="#eef6ff" stroke="#4b8fc5" points="106.02,-285.2 13.5,-285.2 13.5,-248 112.02,-248 112.02,-279.2 106.02,-285.2"/>
<polyline fill="none" stroke="#4b8fc5" points="106.02,-285.2 106.02,-279.2"/>
<polyline fill="none" stroke="#4b8fc5" points="112.02,-279.2 106.02,-279.2"/>
<text xml:space="preserve" text-anchor="start" x="19.26" y="-273.1" font-family="Inter,Arial" font-size="10.00" fill="#123d5c">from mio&#45;v1.2.0.svg</text>
<text xml:space="preserve" text-anchor="start" x="52.63" y="-263.1" font-family="Inter,Arial" font-weight="bold" font-size="10.00" fill="#123d5c">spin</text>
<text xml:space="preserve" text-anchor="start" x="49.26" y="-253.1" font-family="Inter,Arial" font-size="10.00" fill="#123d5c">0.10.0</text>
</g>
<!-- in3&#45;&gt;n0 -->
<g id="edge4" class="edge">
<title>in3&#45;&gt;n0</title>
<path fill="none" stroke="#4b8fc5" stroke-width="0.9" stroke-dasharray="5,2" d="M102.79,-247.66C120.82,-238.91 142,-228.63 159.13,-220.32"/>
<polygon fill="#4b8fc5" stroke="#4b8fc5" stroke-width="0.9" points="159.92,-222.08 164.03,-217.94 158.24,-218.61 159.92,-222.08"/>
</g>
<!-- in4 -->
<g id="node6" class="node">
<title>in4</title>
<polygon fill="#eef6ff" stroke="#4b8fc5" points="107.52,-223.2 12,-223.2 12,-186 113.52,-186 113.52,-217.2 107.52,-223.2"/>
<polyline fill="none" stroke="#4b8fc5" points="107.52,-223.2 107.52,-217.2"/>
<polyline fill="none" stroke="#4b8fc5" points="113.52,-217.2 107.52,-217.2"/>
<text xml:space="preserve" text-anchor="start" x="17.76" y="-211.1" font-family="Inter,Arial" font-size="10.00" fill="#123d5c">from rsa&#45;v0.9.10.svg</text>
<text xml:space="preserve" text-anchor="start" x="52.63" y="-201.1" font-family="Inter,Arial" font-weight="bold" font-size="10.00" fill="#123d5c">spin</text>
<text xml:space="preserve" text-anchor="start" x="49.26" y="-191.1" font-family="Inter,Arial" font-size="10.00" fill="#123d5c">0.10.0</text>
</g>
<!-- in4&#45;&gt;n0 -->
<g id="edge5" class="edge">
<title>in4&#45;&gt;n0</title>
<path fill="none" stroke="#4b8fc5" stroke-width="0.9" stroke-dasharray="5,2" d="M113.89,-204.6C128.77,-204.6 144.7,-204.6 158.23,-204.6"/>
<polygon fill="#4b8fc5" stroke="#4b8fc5" stroke-width="0.9" points="158.21,-206.53 163.71,-204.6 158.21,-202.68 158.21,-206.53"/>
</g>
<!-- in5 -->
<g id="node7" class="node">
<title>in5</title>
<polygon fill="#eef6ff" stroke="#4b8fc5" points="115.39,-161.2 4.12,-161.2 4.12,-124 121.39,-124 121.39,-155.2 115.39,-161.2"/>
<polyline fill="none" stroke="#4b8fc5" points="115.39,-161.2 115.39,-155.2"/>
<polyline fill="none" stroke="#4b8fc5" points="121.39,-155.2 115.39,-155.2"/>
<text xml:space="preserve" text-anchor="start" x="9.88" y="-149.1" font-family="Inter,Arial" font-size="10.00" fill="#123d5c">from socket2&#45;v0.6.3.svg</text>
<text xml:space="preserve" text-anchor="start" x="52.63" y="-139.1" font-family="Inter,Arial" font-weight="bold" font-size="10.00" fill="#123d5c">spin</text>
<text xml:space="preserve" text-anchor="start" x="49.26" y="-129.1" font-family="Inter,Arial" font-size="10.00" fill="#123d5c">0.10.0</text>
</g>
<!-- in5&#45;&gt;n0 -->
<g id="edge6" class="edge">
<title>in5&#45;&gt;n0</title>
<path fill="none" stroke="#4b8fc5" stroke-width="0.9" stroke-dasharray="5,2" d="M102.79,-161.54C120.82,-170.29 142,-180.57 159.13,-188.88"/>
<polygon fill="#4b8fc5" stroke="#4b8fc5" stroke-width="0.9" points="158.24,-190.59 164.03,-191.26 159.92,-187.12 158.24,-190.59"/>
</g>
<!-- in6 -->
<g id="node8" class="node">
<title>in6</title>
<polygon fill="#eef6ff" stroke="#4b8fc5" points="119.52,-99.2 0,-99.2 0,-62 125.52,-62 125.52,-93.2 119.52,-99.2"/>
<polyline fill="none" stroke="#4b8fc5" points="119.52,-99.2 119.52,-93.2"/>
<polyline fill="none" stroke="#4b8fc5" points="125.52,-93.2 119.52,-93.2"/>
<text xml:space="preserve" text-anchor="start" x="5.76" y="-87.1" font-family="Inter,Arial" font-size="10.00" fill="#123d5c">from trueos&#45;qjs&#45;v0.1.0.svg</text>
<text xml:space="preserve" text-anchor="start" x="52.63" y="-77.1" font-family="Inter,Arial" font-weight="bold" font-size="10.00" fill="#123d5c">spin</text>
<text xml:space="preserve" text-anchor="start" x="49.26" y="-67.1" font-family="Inter,Arial" font-size="10.00" fill="#123d5c">0.10.0</text>
</g>
<!-- in6&#45;&gt;n0 -->
<g id="edge7" class="edge">
<title>in6&#45;&gt;n0</title>
<path fill="none" stroke="#4b8fc5" stroke-width="0.9" stroke-dasharray="5,2" d="M108.29,-99.6C114.39,-103.14 120.33,-107.15 125.52,-111.6 148.22,-131.08 167.11,-159.96 178.79,-180.36"/>
<polygon fill="#4b8fc5" stroke="#4b8fc5" stroke-width="0.9" points="176.99,-181.1 181.36,-184.95 180.35,-179.21 176.99,-181.1"/>
</g>
<!-- in7 -->
<g id="node9" class="node">
<title>in7</title>
<polygon fill="#eef6ff" stroke="#4b8fc5" points="100.77,-37.2 18.75,-37.2 18.75,0 106.77,0 106.77,-31.2 100.77,-37.2"/>
<polyline fill="none" stroke="#4b8fc5" points="100.77,-37.2 100.77,-31.2"/>
<polyline fill="none" stroke="#4b8fc5" points="106.77,-31.2 100.77,-31.2"/>
<text xml:space="preserve" text-anchor="start" x="24.51" y="-25.1" font-family="Inter,Arial" font-size="10.00" fill="#123d5c">from v&#45;v0.1.0.svg</text>
<text xml:space="preserve" text-anchor="start" x="52.63" y="-15.1" font-family="Inter,Arial" font-weight="bold" font-size="10.00" fill="#123d5c">spin</text>
<text xml:space="preserve" text-anchor="start" x="49.26" y="-5.1" font-family="Inter,Arial" font-size="10.00" fill="#123d5c">0.10.0</text>
</g>
<!-- in7&#45;&gt;n0 -->
<g id="edge8" class="edge">
<title>in7&#45;&gt;n0</title>
<path fill="none" stroke="#4b8fc5" stroke-width="0.9" stroke-dasharray="5,2" d="M107,-35.31C113.78,-39.27 120.26,-44 125.52,-49.6 160.85,-87.22 178.83,-146.61 186.6,-179.9"/>
<polygon fill="#4b8fc5" stroke="#4b8fc5" stroke-width="0.9" points="184.72,-180.31 187.8,-185.26 188.47,-179.47 184.72,-180.31"/>
</g>
</g>
</svg>
