<?xml version="1.0" encoding="UTF-8" standalone="no"?>
<!DOCTYPE svg PUBLIC "-//W3C//DTD SVG 1.1//EN"
 "http://www.w3.org/Graphics/SVG/1.1/DTD/svg11.dtd">
<!-- Generated by graphviz version 14.1.2 (0)
 -->
<!-- Title: spin&#45;v0.10.0 Pages: 1 -->
<svg width="371pt" height="466pt"
 viewBox="0.00 0.00 371.00 466.00" xmlns="http://www.w3.org/2000/svg" xmlns:xlink="http://www.w3.org/1999/xlink">
<g id="graph0" class="graph" transform="scale(1 1) rotate(0) translate(4 462.4)">
<title>spin&#45;v0.10.0</title>
<polygon fill="white" stroke="none" points="-4,4 -4,-462.4 367.44,-462.4 367.44,4 -4,4"/>
<!-- n0 -->
<g id="node1" class="node">
<title>n0</title>
<path fill="#dff3ff" stroke="#1b78a6" d="M214.72,-248.9C214.72,-248.9 184.72,-248.9 184.72,-248.9 178.72,-248.9 172.72,-242.9 172.72,-236.9 172.72,-236.9 172.72,-221.5 172.72,-221.5 172.72,-215.5 178.72,-209.5 184.72,-209.5 184.72,-209.5 214.72,-209.5 214.72,-209.5 220.72,-209.5 226.72,-215.5 226.72,-221.5 226.72,-221.5 226.72,-236.9 226.72,-236.9 226.72,-242.9 220.72,-248.9 214.72,-248.9"/>
<text xml:space="preserve" text-anchor="start" x="185.85" y="-230.35" font-family="Inter,Arial" font-weight="bold" font-size="13.00" fill="#172033">spin</text>
<text xml:space="preserve" text-anchor="start" x="183.22" y="-218.3" font-family="Inter,Arial" font-size="12.00" fill="#172033">0.10.0</text>
</g>
<!-- out0 -->
<g id="node2" class="node">
<title>out0</title>
<polygon fill="#fff8e8" stroke="#d19922" points="357.44,-251.4 266.72,-251.4 266.72,-207 363.44,-207 363.44,-245.4 357.44,-251.4"/>
<polyline fill="none" stroke="#d19922" points="357.44,-251.4 357.44,-245.4"/>
<polyline fill="none" stroke="#d19922" points="363.44,-245.4 357.44,-245.4"/>
<text xml:space="preserve" text-anchor="start" x="276.08" y="-235.7" font-family="Inter,Arial" font-size="10.00" fill="#614000">to acpi&#45;v6.1.1.svg</text>
<text xml:space="preserve" text-anchor="start" x="295.58" y="-225.7" font-family="Inter,Arial" font-weight="bold" font-size="10.00" fill="#614000">lock_api</text>
<text xml:space="preserve" text-anchor="start" x="301.58" y="-215.7" font-family="Inter,Arial" font-size="10.00" fill="#614000">0.4.14</text>
</g>
<!-- n0&#45;&gt;out0 -->
<g id="edge1" class="edge">
<title>n0&#45;&gt;out0</title>
<path fill="none" stroke="#d19922" stroke-width="0.9" stroke-dasharray="5,2" d="M227.01,-229.2C236.85,-229.2 248.43,-229.2 259.87,-229.2"/>
<polygon fill="#d19922" stroke="#d19922" stroke-width="0.9" points="259.72,-231.13 265.22,-229.2 259.72,-227.28 259.72,-231.13"/>
</g>
<!-- in1 -->
<g id="node3" class="node">
<title>in1</title>
<polygon fill="#eef6ff" stroke="#4b8fc5" points="124.1,-458.4 2.63,-458.4 2.63,-414 130.1,-414 130.1,-452.4 124.1,-458.4"/>
<polyline fill="none" stroke="#4b8fc5" points="124.1,-458.4 124.1,-452.4"/>
<polyline fill="none" stroke="#4b8fc5" points="130.1,-452.4 124.1,-452.4"/>
<text xml:space="preserve" text-anchor="start" x="11.99" y="-442.7" font-family="Inter,Arial" font-size="10.00" fill="#123d5c">from crab&#45;usb&#45;v0.9.1.svg</text>
<text xml:space="preserve" text-anchor="start" x="56.24" y="-432.7" font-family="Inter,Arial" font-weight="bold" font-size="10.00" fill="#123d5c">spin</text>
<text xml:space="preserve" text-anchor="start" x="52.86" y="-422.7" font-family="Inter,Arial" font-size="10.00" fill="#123d5c">0.10.0</text>
</g>
<!-- in1&#45;&gt;n0 -->
<g id="edge2" class="edge">
<title>in1&#45;&gt;n0</title>
<path fill="none" stroke="#4b8fc5" stroke-width="0.9" stroke-dasharray="5,2" d="M119.89,-413.51C124.59,-410.16 128.98,-406.4 132.72,-402.2 170.77,-359.49 187.81,-292.58 194.66,-255.74"/>
<polygon fill="#4b8fc5" stroke="#4b8fc5" stroke-width="0.9" points="196.52,-256.32 195.59,-250.57 192.73,-255.64 196.52,-256.32"/>
</g>
<!-- in2 -->
<g id="node4" class="node">
<title>in2</title>
<polygon fill="#eef6ff" stroke="#4b8fc5" points="122.6,-389.4 4.13,-389.4 4.13,-345 128.6,-345 128.6,-383.4 122.6,-389.4"/>
<polyline fill="none" stroke="#4b8fc5" points="122.6,-389.4 122.6,-383.4"/>
<polyline fill="none" stroke="#4b8fc5" points="128.6,-383.4 122.6,-383.4"/>
<text xml:space="preserve" text-anchor="start" x="13.49" y="-373.7" font-family="Inter,Arial" font-size="10.00" fill="#123d5c">from dma&#45;api&#45;v0.7.3.svg</text>
<text xml:space="preserve" text-anchor="start" x="56.24" y="-363.7" font-family="Inter,Arial" font-weight="bold" font-size="10.00" fill="#123d5c">spin</text>
<text xml:space="preserve" text-anchor="start" x="52.86" y="-353.7" font-family="Inter,Arial" font-size="10.00" fill="#123d5c">0.10.0</text>
</g>
<!-- in2&#45;&gt;n0 -->
<g id="edge3" class="edge">
<title>in2&#45;&gt;n0</title>
<path fill="none" stroke="#4b8fc5" stroke-width="0.9" stroke-dasharray="5,2" d="M117.73,-344.56C123.07,-341.14 128.2,-337.35 132.72,-333.2 156.91,-311 175.83,-278.01 187.1,-255.16"/>
<polygon fill="#4b8fc5" stroke="#4b8fc5" stroke-width="0.9" points="188.82,-256.02 189.48,-250.23 185.35,-254.35 188.82,-256.02"/>
</g>
<!-- in3 -->
<g id="node5" class="node">
<title>in3</title>
<polygon fill="#eef6ff" stroke="#4b8fc5" points="113.22,-320.4 13.5,-320.4 13.5,-276 119.22,-276 119.22,-314.4 113.22,-320.4"/>
<polyline fill="none" stroke="#4b8fc5" points="113.22,-320.4 113.22,-314.4"/>
<polyline fill="none" stroke="#4b8fc5" points="119.22,-314.4 113.22,-314.4"/>
<text xml:space="preserve" text-anchor="start" x="22.86" y="-304.7" font-family="Inter,Arial" font-size="10.00" fill="#123d5c">from mio&#45;v1.2.0.svg</text>
<text xml:space="preserve" text-anchor="start" x="56.24" y="-294.7" font-family="Inter,Arial" font-weight="bold" font-size="10.00" fill="#123d5c">spin</text>
<text xml:space="preserve" text-anchor="start" x="52.86" y="-284.7" font-family="Inter,Arial" font-size="10.00" fill="#123d5c">0.10.0</text>
</g>
<!-- in3&#45;&gt;n0 -->
<g id="edge4" class="edge">
<title>in3&#45;&gt;n0</title>
<path fill="none" stroke="#4b8fc5" stroke-width="0.9" stroke-dasharray="5,2" d="M110.98,-275.57C118.25,-271.78 125.7,-267.89 132.72,-264.2 143.76,-258.4 155.83,-252.02 166.58,-246.31"/>
<polygon fill="#4b8fc5" stroke="#4b8fc5" stroke-width="0.9" points="167.25,-248.13 171.21,-243.85 165.45,-244.73 167.25,-248.13"/>
</g>
<!-- in4 -->
<g id="node6" class="node">
<title>in4</title>
<polygon fill="#eef6ff" stroke="#4b8fc5" points="114.72,-251.4 12,-251.4 12,-207 120.72,-207 120.72,-245.4 114.72,-251.4"/>
<polyline fill="none" stroke="#4b8fc5" points="114.72,-251.4 114.72,-245.4"/>
<polyline fill="none" stroke="#4b8fc5" points="120.72,-245.4 114.72,-245.4"/>
<text xml:space="preserve" text-anchor="start" x="21.36" y="-235.7" font-family="Inter,Arial" font-size="10.00" fill="#123d5c">from rsa&#45;v0.9.10.svg</text>
<text xml:space="preserve" text-anchor="start" x="56.24" y="-225.7" font-family="Inter,Arial" font-weight="bold" font-size="10.00" fill="#123d5c">spin</text>
<text xml:space="preserve" text-anchor="start" x="52.86" y="-215.7" font-family="Inter,Arial" font-size="10.00" fill="#123d5c">0.10.0</text>
</g>
<!-- in4&#45;&gt;n0 -->
<g id="edge5" class="edge">
<title>in4&#45;&gt;n0</title>
<path fill="none" stroke="#4b8fc5" stroke-width="0.9" stroke-dasharray="5,2" d="M121.17,-229.2C136.25,-229.2 152.2,-229.2 165.69,-229.2"/>
<polygon fill="#4b8fc5" stroke="#4b8fc5" stroke-width="0.9" points="165.63,-231.13 171.13,-229.2 165.63,-227.28 165.63,-231.13"/>
</g>
<!-- in5 -->
<g id="node7" class="node">
<title>in5</title>
<polygon fill="#eef6ff" stroke="#4b8fc5" points="122.6,-182.4 4.13,-182.4 4.13,-138 128.6,-138 128.6,-176.4 122.6,-182.4"/>
<polyline fill="none" stroke="#4b8fc5" points="122.6,-182.4 122.6,-176.4"/>
<polyline fill="none" stroke="#4b8fc5" points="128.6,-176.4 122.6,-176.4"/>
<text xml:space="preserve" text-anchor="start" x="13.49" y="-166.7" font-family="Inter,Arial" font-size="10.00" fill="#123d5c">from socket2&#45;v0.6.3.svg</text>
<text xml:space="preserve" text-anchor="start" x="56.24" y="-156.7" font-family="Inter,Arial" font-weight="bold" font-size="10.00" fill="#123d5c">spin</text>
<text xml:space="preserve" text-anchor="start" x="52.86" y="-146.7" font-family="Inter,Arial" font-size="10.00" fill="#123d5c">0.10.0</text>
</g>
<!-- in5&#45;&gt;n0 -->
<g id="edge6" class="edge">
<title>in5&#45;&gt;n0</title>
<path fill="none" stroke="#4b8fc5" stroke-width="0.9" stroke-dasharray="5,2" d="M110.98,-182.83C118.25,-186.62 125.7,-190.51 132.72,-194.2 143.76,-200 155.83,-206.38 166.58,-212.09"/>
<polygon fill="#4b8fc5" stroke="#4b8fc5" stroke-width="0.9" points="165.45,-213.67 171.21,-214.55 167.25,-210.27 165.45,-213.67"/>
</g>
<!-- in6 -->
<g id="node8" class="node">
<title>in6</title>
<polygon fill="#eef6ff" stroke="#4b8fc5" points="126.72,-113.4 0,-113.4 0,-69 132.72,-69 132.72,-107.4 126.72,-113.4"/>
<polyline fill="none" stroke="#4b8fc5" points="126.72,-113.4 126.72,-107.4"/>
<polyline fill="none" stroke="#4b8fc5" points="132.72,-107.4 126.72,-107.4"/>
<text xml:space="preserve" text-anchor="start" x="9.36" y="-97.7" font-family="Inter,Arial" font-size="10.00" fill="#123d5c">from trueos&#45;qjs&#45;v0.1.0.svg</text>
<text xml:space="preserve" text-anchor="start" x="56.24" y="-87.7" font-family="Inter,Arial" font-weight="bold" font-size="10.00" fill="#123d5c">spin</text>
<text xml:space="preserve" text-anchor="start" x="52.86" y="-77.7" font-family="Inter,Arial" font-size="10.00" fill="#123d5c">0.10.0</text>
</g>
<!-- in6&#45;&gt;n0 -->
<g id="edge7" class="edge">
<title>in6&#45;&gt;n0</title>
<path fill="none" stroke="#4b8fc5" stroke-width="0.9" stroke-dasharray="5,2" d="M117.73,-113.84C123.07,-117.26 128.2,-121.05 132.72,-125.2 156.91,-147.4 175.83,-180.39 187.1,-203.24"/>
<polygon fill="#4b8fc5" stroke="#4b8fc5" stroke-width="0.9" points="185.35,-204.05 189.48,-208.17 188.82,-202.38 185.35,-204.05"/>
</g>
<!-- in7 -->
<g id="node9" class="node">
<title>in7</title>
<polygon fill="#eef6ff" stroke="#4b8fc5" points="107.97,-44.4 18.75,-44.4 18.75,0 113.97,0 113.97,-38.4 107.97,-44.4"/>
<polyline fill="none" stroke="#4b8fc5" points="107.97,-44.4 107.97,-38.4"/>
<polyline fill="none" stroke="#4b8fc5" points="113.97,-38.4 107.97,-38.4"/>
<text xml:space="preserve" text-anchor="start" x="28.11" y="-28.7" font-family="Inter,Arial" font-size="10.00" fill="#123d5c">from v&#45;v0.1.0.svg</text>
<text xml:space="preserve" text-anchor="start" x="56.24" y="-18.7" font-family="Inter,Arial" font-weight="bold" font-size="10.00" fill="#123d5c">spin</text>
<text xml:space="preserve" text-anchor="start" x="52.86" y="-8.7" font-family="Inter,Arial" font-size="10.00" fill="#123d5c">0.10.0</text>
</g>
<!-- in7&#45;&gt;n0 -->
<g id="edge8" class="edge">
<title>in7&#45;&gt;n0</title>
<path fill="none" stroke="#4b8fc5" stroke-width="0.9" stroke-dasharray="5,2" d="M114.32,-41.19C121.1,-45.39 127.53,-50.37 132.72,-56.2 170.77,-98.91 187.81,-165.82 194.66,-202.66"/>
<polygon fill="#4b8fc5" stroke="#4b8fc5" stroke-width="0.9" points="192.73,-202.76 195.59,-207.83 196.52,-202.08 192.73,-202.76"/>
</g>
</g>
</svg>
