<?xml version="1.0" encoding="UTF-8" standalone="no"?>
<!DOCTYPE svg PUBLIC "-//W3C//DTD SVG 1.1//EN"
 "http://www.w3.org/Graphics/SVG/1.1/DTD/svg11.dtd">
<!-- Generated by graphviz version 14.1.2 (0)
 -->
<!-- Title: spin&#45;v0.10.0 Pages: 1 -->
<svg width="425pt" height="466pt"
 viewBox="0.00 0.00 425.00 466.00" xmlns="http://www.w3.org/2000/svg" xmlns:xlink="http://www.w3.org/1999/xlink">
<g id="graph0" class="graph" transform="scale(1 1) rotate(0) translate(4 462.4)">
<title>spin&#45;v0.10.0</title>
<polygon fill="white" stroke="none" points="-4,4 -4,-462.4 421.44,-462.4 421.44,4 -4,4"/>
<!-- n0 -->
<g id="node1" class="node">
<title>n0</title>
<path fill="#dff3ff" stroke="#1b78a6" d="M268.72,-248.9C268.72,-248.9 238.72,-248.9 238.72,-248.9 232.72,-248.9 226.72,-242.9 226.72,-236.9 226.72,-236.9 226.72,-221.5 226.72,-221.5 226.72,-215.5 232.72,-209.5 238.72,-209.5 238.72,-209.5 268.72,-209.5 268.72,-209.5 274.72,-209.5 280.72,-215.5 280.72,-221.5 280.72,-221.5 280.72,-236.9 280.72,-236.9 280.72,-242.9 274.72,-248.9 268.72,-248.9"/>
<text xml:space="preserve" text-anchor="start" x="239.85" y="-230.35" font-family="Inter,Arial" font-weight="bold" font-size="13.00" fill="#172033">spin</text>
<text xml:space="preserve" text-anchor="start" x="237.22" y="-218.3" font-family="Inter,Arial" font-size="12.00" fill="#172033">0.10.0</text>
</g>
<!-- out0 -->
<g id="node2" class="node">
<title>out0</title>
<polygon fill="#fff8e8" stroke="#d19922" points="411.44,-251.4 320.72,-251.4 320.72,-207 417.44,-207 417.44,-245.4 411.44,-251.4"/>
<polyline fill="none" stroke="#d19922" points="411.44,-251.4 411.44,-245.4"/>
<polyline fill="none" stroke="#d19922" points="417.44,-245.4 411.44,-245.4"/>
<text xml:space="preserve" text-anchor="start" x="330.08" y="-235.7" font-family="Inter,Arial" font-size="10.00" fill="#614000">to acpi&#45;v6.1.1.svg</text>
<text xml:space="preserve" text-anchor="start" x="349.58" y="-225.7" font-family="Inter,Arial" font-weight="bold" font-size="10.00" fill="#614000">lock_api</text>
<text xml:space="preserve" text-anchor="start" x="355.58" y="-215.7" font-family="Inter,Arial" font-size="10.00" fill="#614000">0.4.14</text>
</g>
<!-- n0&#45;&gt;out0 -->
<g id="edge1" class="edge">
<title>n0&#45;&gt;out0</title>
<path fill="none" stroke="#d19922" stroke-width="7.2" stroke-dasharray="5,2" d="M281.01,-229.2C289.29,-229.2 298.8,-229.2 308.42,-229.2"/>
<polygon fill="#d19922" stroke="#d19922" stroke-width="7.2" points="308.33,-232.67 313.83,-229.2 308.33,-225.74 308.33,-232.67"/>
</g>
<!-- in1 -->
<g id="node3" class="node">
<title>in1</title>
<polygon fill="#eef6ff" stroke="#4b8fc5" points="151.1,-458.4 29.63,-458.4 29.63,-414 157.1,-414 157.1,-452.4 151.1,-458.4"/>
<polyline fill="none" stroke="#4b8fc5" points="151.1,-458.4 151.1,-452.4"/>
<polyline fill="none" stroke="#4b8fc5" points="157.1,-452.4 151.1,-452.4"/>
<text xml:space="preserve" text-anchor="start" x="38.99" y="-442.7" font-family="Inter,Arial" font-size="10.00" fill="#123d5c">from crab&#45;usb&#45;v0.9.1.svg</text>
<text xml:space="preserve" text-anchor="start" x="83.24" y="-432.7" font-family="Inter,Arial" font-weight="bold" font-size="10.00" fill="#123d5c">spin</text>
<text xml:space="preserve" text-anchor="start" x="79.86" y="-422.7" font-family="Inter,Arial" font-size="10.00" fill="#123d5c">0.10.0</text>
</g>
<!-- in1&#45;&gt;n0 -->
<g id="edge2" class="edge">
<title>in1&#45;&gt;n0</title>
<path fill="none" stroke="#4b8fc5" stroke-width="7.2" stroke-dasharray="5,2" d="M157.26,-421.34C168.07,-416.59 178.46,-410.37 186.72,-402.2 225.75,-363.63 242.07,-299.57 248.62,-261.17"/>
<polygon fill="#4b8fc5" stroke="#4b8fc5" stroke-width="7.2" points="252.02,-261.85 249.44,-255.88 245.17,-260.78 252.02,-261.85"/>
</g>
<!-- in2 -->
<g id="node4" class="node">
<title>in2</title>
<polygon fill="#eef6ff" stroke="#4b8fc5" points="149.6,-389.4 31.13,-389.4 31.13,-345 155.6,-345 155.6,-383.4 149.6,-389.4"/>
<polyline fill="none" stroke="#4b8fc5" points="149.6,-389.4 149.6,-383.4"/>
<polyline fill="none" stroke="#4b8fc5" points="155.6,-383.4 149.6,-383.4"/>
<text xml:space="preserve" text-anchor="start" x="40.49" y="-373.7" font-family="Inter,Arial" font-size="10.00" fill="#123d5c">from dma&#45;api&#45;v0.7.3.svg</text>
<text xml:space="preserve" text-anchor="start" x="83.24" y="-363.7" font-family="Inter,Arial" font-weight="bold" font-size="10.00" fill="#123d5c">spin</text>
<text xml:space="preserve" text-anchor="start" x="79.86" y="-353.7" font-family="Inter,Arial" font-size="10.00" fill="#123d5c">0.10.0</text>
</g>
<!-- in2&#45;&gt;n0 -->
<g id="edge3" class="edge">
<title>in2&#45;&gt;n0</title>
<path fill="none" stroke="#4b8fc5" stroke-width="7.2" stroke-dasharray="5,2" d="M156,-350.93C166.92,-346.32 177.68,-340.5 186.72,-333.2 210.78,-313.78 228.71,-283.13 239.77,-260.12"/>
<polygon fill="#4b8fc5" stroke="#4b8fc5" stroke-width="7.2" points="242.81,-261.79 241.96,-255.34 236.52,-258.9 242.81,-261.79"/>
</g>
<!-- in3 -->
<g id="node5" class="node">
<title>in3</title>
<polygon fill="#eef6ff" stroke="#4b8fc5" points="140.22,-320.4 40.5,-320.4 40.5,-276 146.22,-276 146.22,-314.4 140.22,-320.4"/>
<polyline fill="none" stroke="#4b8fc5" points="140.22,-320.4 140.22,-314.4"/>
<polyline fill="none" stroke="#4b8fc5" points="146.22,-314.4 140.22,-314.4"/>
<text xml:space="preserve" text-anchor="start" x="49.86" y="-304.7" font-family="Inter,Arial" font-size="10.00" fill="#123d5c">from mio&#45;v1.2.0.svg</text>
<text xml:space="preserve" text-anchor="start" x="83.24" y="-294.7" font-family="Inter,Arial" font-weight="bold" font-size="10.00" fill="#123d5c">spin</text>
<text xml:space="preserve" text-anchor="start" x="79.86" y="-284.7" font-family="Inter,Arial" font-size="10.00" fill="#123d5c">0.10.0</text>
</g>
<!-- in3&#45;&gt;n0 -->
<g id="edge4" class="edge">
<title>in3&#45;&gt;n0</title>
<path fill="none" stroke="#4b8fc5" stroke-width="7.2" stroke-dasharray="5,2" d="M146.63,-280.35C159.85,-275.46 173.93,-269.92 186.72,-264.2 196.34,-259.9 206.5,-254.81 215.88,-249.86"/>
<polygon fill="#4b8fc5" stroke="#4b8fc5" stroke-width="7.2" points="217.32,-253.02 220.52,-247.36 214.04,-246.92 217.32,-253.02"/>
</g>
<!-- in4 -->
<g id="node6" class="node">
<title>in4</title>
<polygon fill="#eef6ff" stroke="#4b8fc5" points="180.72,-251.4 0,-251.4 0,-207 186.72,-207 186.72,-245.4 180.72,-251.4"/>
<polyline fill="none" stroke="#4b8fc5" points="180.72,-251.4 180.72,-245.4"/>
<polyline fill="none" stroke="#4b8fc5" points="186.72,-245.4 180.72,-245.4"/>
<text xml:space="preserve" text-anchor="start" x="9.36" y="-235.7" font-family="Inter,Arial" font-size="10.00" fill="#123d5c">from rustls&#45;rustcrypto&#45;v0.0.2&#45;alpha.svg</text>
<text xml:space="preserve" text-anchor="start" x="83.24" y="-225.7" font-family="Inter,Arial" font-weight="bold" font-size="10.00" fill="#123d5c">spin</text>
<text xml:space="preserve" text-anchor="start" x="79.86" y="-215.7" font-family="Inter,Arial" font-size="10.00" fill="#123d5c">0.10.0</text>
</g>
<!-- in4&#45;&gt;n0 -->
<g id="edge5" class="edge">
<title>in4&#45;&gt;n0</title>
<path fill="none" stroke="#4b8fc5" stroke-width="7.2" stroke-dasharray="5,2" d="M186.94,-229.2C196.56,-229.2 205.9,-229.2 214.39,-229.2"/>
<polygon fill="#4b8fc5" stroke="#4b8fc5" stroke-width="7.2" points="214.27,-232.67 219.77,-229.2 214.27,-225.74 214.27,-232.67"/>
</g>
<!-- in5 -->
<g id="node7" class="node">
<title>in5</title>
<polygon fill="#eef6ff" stroke="#4b8fc5" points="149.6,-182.4 31.13,-182.4 31.13,-138 155.6,-138 155.6,-176.4 149.6,-182.4"/>
<polyline fill="none" stroke="#4b8fc5" points="149.6,-182.4 149.6,-176.4"/>
<polyline fill="none" stroke="#4b8fc5" points="155.6,-176.4 149.6,-176.4"/>
<text xml:space="preserve" text-anchor="start" x="40.49" y="-166.7" font-family="Inter,Arial" font-size="10.00" fill="#123d5c">from socket2&#45;v0.6.3.svg</text>
<text xml:space="preserve" text-anchor="start" x="83.24" y="-156.7" font-family="Inter,Arial" font-weight="bold" font-size="10.00" fill="#123d5c">spin</text>
<text xml:space="preserve" text-anchor="start" x="79.86" y="-146.7" font-family="Inter,Arial" font-size="10.00" fill="#123d5c">0.10.0</text>
</g>
<!-- in5&#45;&gt;n0 -->
<g id="edge6" class="edge">
<title>in5&#45;&gt;n0</title>
<path fill="none" stroke="#4b8fc5" stroke-width="7.2" stroke-dasharray="5,2" d="M155.93,-181.55C166.31,-185.52 176.89,-189.81 186.72,-194.2 196.34,-198.5 206.5,-203.59 215.88,-208.54"/>
<polygon fill="#4b8fc5" stroke="#4b8fc5" stroke-width="7.2" points="214.04,-211.48 220.52,-211.04 217.32,-205.38 214.04,-211.48"/>
</g>
<!-- in6 -->
<g id="node8" class="node">
<title>in6</title>
<polygon fill="#eef6ff" stroke="#4b8fc5" points="153.72,-113.4 27,-113.4 27,-69 159.72,-69 159.72,-107.4 153.72,-113.4"/>
<polyline fill="none" stroke="#4b8fc5" points="153.72,-113.4 153.72,-107.4"/>
<polyline fill="none" stroke="#4b8fc5" points="159.72,-107.4 153.72,-107.4"/>
<text xml:space="preserve" text-anchor="start" x="36.36" y="-97.7" font-family="Inter,Arial" font-size="10.00" fill="#123d5c">from trueos&#45;qjs&#45;v0.1.0.svg</text>
<text xml:space="preserve" text-anchor="start" x="83.24" y="-87.7" font-family="Inter,Arial" font-weight="bold" font-size="10.00" fill="#123d5c">spin</text>
<text xml:space="preserve" text-anchor="start" x="79.86" y="-77.7" font-family="Inter,Arial" font-size="10.00" fill="#123d5c">0.10.0</text>
</g>
<!-- in6&#45;&gt;n0 -->
<g id="edge7" class="edge">
<title>in6&#45;&gt;n0</title>
<path fill="none" stroke="#4b8fc5" stroke-width="7.2" stroke-dasharray="5,2" d="M159.85,-109.15C169.43,-113.47 178.74,-118.76 186.72,-125.2 210.78,-144.62 228.71,-175.27 239.77,-198.28"/>
<polygon fill="#4b8fc5" stroke="#4b8fc5" stroke-width="7.2" points="236.52,-199.5 241.96,-203.06 242.81,-196.61 236.52,-199.5"/>
</g>
<!-- in7 -->
<g id="node9" class="node">
<title>in7</title>
<polygon fill="#eef6ff" stroke="#4b8fc5" points="134.97,-44.4 45.75,-44.4 45.75,0 140.97,0 140.97,-38.4 134.97,-44.4"/>
<polyline fill="none" stroke="#4b8fc5" points="134.97,-44.4 134.97,-38.4"/>
<polyline fill="none" stroke="#4b8fc5" points="140.97,-38.4 134.97,-38.4"/>
<text xml:space="preserve" text-anchor="start" x="55.11" y="-28.7" font-family="Inter,Arial" font-size="10.00" fill="#123d5c">from v&#45;v0.1.0.svg</text>
<text xml:space="preserve" text-anchor="start" x="83.24" y="-18.7" font-family="Inter,Arial" font-weight="bold" font-size="10.00" fill="#123d5c">spin</text>
<text xml:space="preserve" text-anchor="start" x="79.86" y="-8.7" font-family="Inter,Arial" font-size="10.00" fill="#123d5c">0.10.0</text>
</g>
<!-- in7&#45;&gt;n0 -->
<g id="edge8" class="edge">
<title>in7&#45;&gt;n0</title>
<path fill="none" stroke="#4b8fc5" stroke-width="7.2" stroke-dasharray="5,2" d="M141.44,-31.16C157.48,-36.22 174.45,-44.07 186.72,-56.2 225.75,-94.77 242.07,-158.83 248.62,-197.23"/>
<polygon fill="#4b8fc5" stroke="#4b8fc5" stroke-width="7.2" points="245.17,-197.62 249.44,-202.52 252.02,-196.55 245.17,-197.62"/>
</g>
</g>
</svg>
