<?xml version="1.0" encoding="UTF-8" standalone="no"?>
<!DOCTYPE svg PUBLIC "-//W3C//DTD SVG 1.1//EN"
 "http://www.w3.org/Graphics/SVG/1.1/DTD/svg11.dtd">
<!-- Generated by graphviz version 14.1.2 (0)
 -->
<!-- Title: spin&#45;v0.10.0 Pages: 1 -->
<svg width="371pt" height="466pt"
 viewBox="0.00 0.00 371.00 466.00" xmlns="http://www.w3.org/2000/svg" xmlns:xlink="http://www.w3.org/1999/xlink">
<g id="graph0" class="graph" transform="scale(1 1) rotate(0) translate(4 462.4)">
<title>spin&#45;v0.10.0</title>
<polygon fill="white" stroke="none" points="-4,4 -4,-462.4 367.44,-462.4 367.44,4 -4,4"/>
<!-- n0 -->
<g id="node1" class="node">
<title>n0</title>
<path fill="#dff3ff" stroke="#1b78a6" d="M214.72,-248.9C214.72,-248.9 184.72,-248.9 184.72,-248.9 178.72,-248.9 172.72,-242.9 172.72,-236.9 172.72,-236.9 172.72,-221.5 172.72,-221.5 172.72,-215.5 178.72,-209.5 184.72,-209.5 184.72,-209.5 214.72,-209.5 214.72,-209.5 220.72,-209.5 226.72,-215.5 226.72,-221.5 226.72,-221.5 226.72,-236.9 226.72,-236.9 226.72,-242.9 220.72,-248.9 214.72,-248.9"/>
<text xml:space="preserve" text-anchor="start" x="185.85" y="-230.35" font-family="Inter,Arial" font-weight="bold" font-size="13.00" fill="#172033">spin</text>
<text xml:space="preserve" text-anchor="start" x="183.22" y="-218.3" font-family="Inter,Arial" font-size="12.00" fill="#172033">0.10.0</text>
</g>
<!-- out0 -->
<g id="node2" class="node">
<title>out0</title>
<polygon fill="#fff8e8" stroke="#d19922" points="357.44,-251.4 266.72,-251.4 266.72,-207 363.44,-207 363.44,-245.4 357.44,-251.4"/>
<polyline fill="none" stroke="#d19922" points="357.44,-251.4 357.44,-245.4"/>
<polyline fill="none" stroke="#d19922" points="363.44,-245.4 357.44,-245.4"/>
<text xml:space="preserve" text-anchor="start" x="276.08" y="-235.7" font-family="Inter,Arial" font-size="10.00" fill="#614000">to acpi&#45;v6.1.1.svg</text>
<text xml:space="preserve" text-anchor="start" x="295.58" y="-225.7" font-family="Inter,Arial" font-weight="bold" font-size="10.00" fill="#614000">lock_api</text>
<text xml:space="preserve" text-anchor="start" x="301.58" y="-215.7" font-family="Inter,Arial" font-size="10.00" fill="#614000">0.4.14</text>
</g>
<!-- n0&#45;&gt;out0 -->
<g id="edge1" class="edge">
<title>n0&#45;&gt;out0</title>
<path fill="none" stroke="#d19922" stroke-width="7.2" stroke-dasharray="5,2" d="M227.01,-229.2C235.29,-229.2 244.8,-229.2 254.42,-229.2"/>
<polygon fill="#d19922" stroke="#d19922" stroke-width="7.2" points="254.33,-232.67 259.83,-229.2 254.33,-225.74 254.33,-232.67"/>
</g>
<!-- in1 -->
<g id="node3" class="node">
<title>in1</title>
<polygon fill="#eef6ff" stroke="#4b8fc5" points="124.1,-458.4 2.63,-458.4 2.63,-414 130.1,-414 130.1,-452.4 124.1,-458.4"/>
<polyline fill="none" stroke="#4b8fc5" points="124.1,-458.4 124.1,-452.4"/>
<polyline fill="none" stroke="#4b8fc5" points="130.1,-452.4 124.1,-452.4"/>
<text xml:space="preserve" text-anchor="start" x="11.99" y="-442.7" font-family="Inter,Arial" font-size="10.00" fill="#123d5c">from crab&#45;usb&#45;v0.9.1.svg</text>
<text xml:space="preserve" text-anchor="start" x="56.24" y="-432.7" font-family="Inter,Arial" font-weight="bold" font-size="10.00" fill="#123d5c">spin</text>
<text xml:space="preserve" text-anchor="start" x="52.86" y="-422.7" font-family="Inter,Arial" font-size="10.00" fill="#123d5c">0.10.0</text>
</g>
<!-- in1&#45;&gt;n0 -->
<g id="edge2" class="edge">
<title>in1&#45;&gt;n0</title>
<path fill="none" stroke="#4b8fc5" stroke-width="7.2" stroke-dasharray="5,2" d="M119.89,-413.51C124.59,-410.16 128.98,-406.4 132.72,-402.2 169.03,-361.44 186.21,-298.64 193.66,-260.97"/>
<polygon fill="#4b8fc5" stroke="#4b8fc5" stroke-width="7.2" points="197.01,-261.9 194.6,-255.87 190.2,-260.65 197.01,-261.9"/>
</g>
<!-- in2 -->
<g id="node4" class="node">
<title>in2</title>
<polygon fill="#eef6ff" stroke="#4b8fc5" points="122.6,-389.4 4.13,-389.4 4.13,-345 128.6,-345 128.6,-383.4 122.6,-389.4"/>
<polyline fill="none" stroke="#4b8fc5" points="122.6,-389.4 122.6,-383.4"/>
<polyline fill="none" stroke="#4b8fc5" points="128.6,-383.4 122.6,-383.4"/>
<text xml:space="preserve" text-anchor="start" x="13.49" y="-373.7" font-family="Inter,Arial" font-size="10.00" fill="#123d5c">from dma&#45;api&#45;v0.7.3.svg</text>
<text xml:space="preserve" text-anchor="start" x="56.24" y="-363.7" font-family="Inter,Arial" font-weight="bold" font-size="10.00" fill="#123d5c">spin</text>
<text xml:space="preserve" text-anchor="start" x="52.86" y="-353.7" font-family="Inter,Arial" font-size="10.00" fill="#123d5c">0.10.0</text>
</g>
<!-- in2&#45;&gt;n0 -->
<g id="edge3" class="edge">
<title>in2&#45;&gt;n0</title>
<path fill="none" stroke="#4b8fc5" stroke-width="7.2" stroke-dasharray="5,2" d="M117.73,-344.56C123.07,-341.14 128.2,-337.35 132.72,-333.2 155.26,-312.52 173.22,-282.47 184.68,-259.99"/>
<polygon fill="#4b8fc5" stroke="#4b8fc5" stroke-width="7.2" points="187.78,-261.53 187.09,-255.07 181.56,-258.48 187.78,-261.53"/>
</g>
<!-- in3 -->
<g id="node5" class="node">
<title>in3</title>
<polygon fill="#eef6ff" stroke="#4b8fc5" points="113.22,-320.4 13.5,-320.4 13.5,-276 119.22,-276 119.22,-314.4 113.22,-320.4"/>
<polyline fill="none" stroke="#4b8fc5" points="113.22,-320.4 113.22,-314.4"/>
<polyline fill="none" stroke="#4b8fc5" points="119.22,-314.4 113.22,-314.4"/>
<text xml:space="preserve" text-anchor="start" x="22.86" y="-304.7" font-family="Inter,Arial" font-size="10.00" fill="#123d5c">from mio&#45;v1.2.0.svg</text>
<text xml:space="preserve" text-anchor="start" x="56.24" y="-294.7" font-family="Inter,Arial" font-weight="bold" font-size="10.00" fill="#123d5c">spin</text>
<text xml:space="preserve" text-anchor="start" x="52.86" y="-284.7" font-family="Inter,Arial" font-size="10.00" fill="#123d5c">0.10.0</text>
</g>
<!-- in3&#45;&gt;n0 -->
<g id="edge4" class="edge">
<title>in3&#45;&gt;n0</title>
<path fill="none" stroke="#4b8fc5" stroke-width="7.2" stroke-dasharray="5,2" d="M110.98,-275.57C118.25,-271.78 125.7,-267.89 132.72,-264.2 142.13,-259.26 152.28,-253.89 161.72,-248.89"/>
<polygon fill="#4b8fc5" stroke="#4b8fc5" stroke-width="7.2" points="163.21,-252.02 166.44,-246.38 159.96,-245.9 163.21,-252.02"/>
</g>
<!-- in4 -->
<g id="node6" class="node">
<title>in4</title>
<polygon fill="#eef6ff" stroke="#4b8fc5" points="114.72,-251.4 12,-251.4 12,-207 120.72,-207 120.72,-245.4 114.72,-251.4"/>
<polyline fill="none" stroke="#4b8fc5" points="114.72,-251.4 114.72,-245.4"/>
<polyline fill="none" stroke="#4b8fc5" points="120.72,-245.4 114.72,-245.4"/>
<text xml:space="preserve" text-anchor="start" x="21.36" y="-235.7" font-family="Inter,Arial" font-size="10.00" fill="#123d5c">from rsa&#45;v0.9.10.svg</text>
<text xml:space="preserve" text-anchor="start" x="56.24" y="-225.7" font-family="Inter,Arial" font-weight="bold" font-size="10.00" fill="#123d5c">spin</text>
<text xml:space="preserve" text-anchor="start" x="52.86" y="-215.7" font-family="Inter,Arial" font-size="10.00" fill="#123d5c">0.10.0</text>
</g>
<!-- in4&#45;&gt;n0 -->
<g id="edge5" class="edge">
<title>in4&#45;&gt;n0</title>
<path fill="none" stroke="#4b8fc5" stroke-width="7.2" stroke-dasharray="5,2" d="M121.17,-229.2C134.31,-229.2 148.12,-229.2 160.37,-229.2"/>
<polygon fill="#4b8fc5" stroke="#4b8fc5" stroke-width="7.2" points="160.24,-232.67 165.74,-229.2 160.24,-225.74 160.24,-232.67"/>
</g>
<!-- in5 -->
<g id="node7" class="node">
<title>in5</title>
<polygon fill="#eef6ff" stroke="#4b8fc5" points="122.6,-182.4 4.13,-182.4 4.13,-138 128.6,-138 128.6,-176.4 122.6,-182.4"/>
<polyline fill="none" stroke="#4b8fc5" points="122.6,-182.4 122.6,-176.4"/>
<polyline fill="none" stroke="#4b8fc5" points="128.6,-176.4 122.6,-176.4"/>
<text xml:space="preserve" text-anchor="start" x="13.49" y="-166.7" font-family="Inter,Arial" font-size="10.00" fill="#123d5c">from socket2&#45;v0.6.3.svg</text>
<text xml:space="preserve" text-anchor="start" x="56.24" y="-156.7" font-family="Inter,Arial" font-weight="bold" font-size="10.00" fill="#123d5c">spin</text>
<text xml:space="preserve" text-anchor="start" x="52.86" y="-146.7" font-family="Inter,Arial" font-size="10.00" fill="#123d5c">0.10.0</text>
</g>
<!-- in5&#45;&gt;n0 -->
<g id="edge6" class="edge">
<title>in5&#45;&gt;n0</title>
<path fill="none" stroke="#4b8fc5" stroke-width="7.2" stroke-dasharray="5,2" d="M110.98,-182.83C118.25,-186.62 125.7,-190.51 132.72,-194.2 142.13,-199.14 152.28,-204.51 161.72,-209.51"/>
<polygon fill="#4b8fc5" stroke="#4b8fc5" stroke-width="7.2" points="159.96,-212.5 166.44,-212.02 163.21,-206.38 159.96,-212.5"/>
</g>
<!-- in6 -->
<g id="node8" class="node">
<title>in6</title>
<polygon fill="#eef6ff" stroke="#4b8fc5" points="126.72,-113.4 0,-113.4 0,-69 132.72,-69 132.72,-107.4 126.72,-113.4"/>
<polyline fill="none" stroke="#4b8fc5" points="126.72,-113.4 126.72,-107.4"/>
<polyline fill="none" stroke="#4b8fc5" points="132.72,-107.4 126.72,-107.4"/>
<text xml:space="preserve" text-anchor="start" x="9.36" y="-97.7" font-family="Inter,Arial" font-size="10.00" fill="#123d5c">from trueos&#45;qjs&#45;v0.1.0.svg</text>
<text xml:space="preserve" text-anchor="start" x="56.24" y="-87.7" font-family="Inter,Arial" font-weight="bold" font-size="10.00" fill="#123d5c">spin</text>
<text xml:space="preserve" text-anchor="start" x="52.86" y="-77.7" font-family="Inter,Arial" font-size="10.00" fill="#123d5c">0.10.0</text>
</g>
<!-- in6&#45;&gt;n0 -->
<g id="edge7" class="edge">
<title>in6&#45;&gt;n0</title>
<path fill="none" stroke="#4b8fc5" stroke-width="7.2" stroke-dasharray="5,2" d="M117.73,-113.84C123.07,-117.26 128.2,-121.05 132.72,-125.2 155.26,-145.88 173.22,-175.93 184.68,-198.41"/>
<polygon fill="#4b8fc5" stroke="#4b8fc5" stroke-width="7.2" points="181.56,-199.92 187.09,-203.33 187.78,-196.87 181.56,-199.92"/>
</g>
<!-- in7 -->
<g id="node9" class="node">
<title>in7</title>
<polygon fill="#eef6ff" stroke="#4b8fc5" points="107.97,-44.4 18.75,-44.4 18.75,0 113.97,0 113.97,-38.4 107.97,-44.4"/>
<polyline fill="none" stroke="#4b8fc5" points="107.97,-44.4 107.97,-38.4"/>
<polyline fill="none" stroke="#4b8fc5" points="113.97,-38.4 107.97,-38.4"/>
<text xml:space="preserve" text-anchor="start" x="28.11" y="-28.7" font-family="Inter,Arial" font-size="10.00" fill="#123d5c">from v&#45;v0.1.0.svg</text>
<text xml:space="preserve" text-anchor="start" x="56.24" y="-18.7" font-family="Inter,Arial" font-weight="bold" font-size="10.00" fill="#123d5c">spin</text>
<text xml:space="preserve" text-anchor="start" x="52.86" y="-8.7" font-family="Inter,Arial" font-size="10.00" fill="#123d5c">0.10.0</text>
</g>
<!-- in7&#45;&gt;n0 -->
<g id="edge8" class="edge">
<title>in7&#45;&gt;n0</title>
<path fill="none" stroke="#4b8fc5" stroke-width="7.2" stroke-dasharray="5,2" d="M114.32,-41.19C121.1,-45.39 127.53,-50.37 132.72,-56.2 169.03,-96.96 186.21,-159.76 193.66,-197.43"/>
<polygon fill="#4b8fc5" stroke="#4b8fc5" stroke-width="7.2" points="190.2,-197.75 194.6,-202.53 197.01,-196.5 190.2,-197.75"/>
</g>
</g>
</svg>
