<?xml version="1.0" encoding="UTF-8" standalone="no"?>
<!DOCTYPE svg PUBLIC "-//W3C//DTD SVG 1.1//EN"
 "http://www.w3.org/Graphics/SVG/1.1/DTD/svg11.dtd">
<!-- Generated by graphviz version 14.1.2 (0)
 -->
<!-- Title: symphonia&#45;codec&#45;aac&#45;v0.5.5 Pages: 1 -->
<svg width="415pt" height="282pt"
 viewBox="0.00 0.00 415.00 282.00" xmlns="http://www.w3.org/2000/svg" xmlns:xlink="http://www.w3.org/1999/xlink">
<g id="graph0" class="graph" transform="scale(1 1) rotate(0) translate(4 278.2)">
<title>symphonia&#45;codec&#45;aac&#45;v0.5.5</title>
<polygon fill="white" stroke="none" points="-4,4 -4,-278.2 411.29,-278.2 411.29,4 -4,4"/>
<!-- n0 -->
<g id="node1" class="node">
<title>n0</title>
<path fill="#dff3ff" stroke="#1b78a6" d="M184.77,-114.2C184.77,-114.2 12,-114.2 12,-114.2 6,-114.2 0,-108.2 0,-102.2 0,-102.2 0,-89 0,-89 0,-83 6,-77 12,-77 12,-77 184.77,-77 184.77,-77 190.77,-77 196.77,-83 196.77,-89 196.77,-89 196.77,-102.2 196.77,-102.2 196.77,-108.2 190.77,-114.2 184.77,-114.2"/>
<text xml:space="preserve" text-anchor="start" x="47.76" y="-102.1" font-family="Inter,Arial" font-weight="bold" font-size="10.00" fill="#172033">symphonia&#45;codec&#45;aac</text>
<text xml:space="preserve" text-anchor="start" x="87.51" y="-92.1" font-family="Inter,Arial" font-size="10.00" fill="#172033">0.5.5</text>
<text xml:space="preserve" text-anchor="start" x="5.76" y="-82.1" font-family="Inter,Arial" font-size="10.00" fill="#172033">/vendor/symphonia&#45;codec&#45;aac&#45;0.5.5&#45;trueos</text>
</g>
<!-- out0 -->
<g id="node3" class="node">
<title>out0</title>
<polygon fill="#fff8e8" stroke="#d19922" points="363.42,-181.2 274.65,-181.2 274.65,-144 369.42,-144 369.42,-175.2 363.42,-181.2"/>
<polyline fill="none" stroke="#d19922" points="363.42,-181.2 363.42,-175.2"/>
<polyline fill="none" stroke="#d19922" points="369.42,-175.2 363.42,-175.2"/>
<text xml:space="preserve" text-anchor="start" x="280.41" y="-169.1" font-family="Inter,Arial" font-size="10.00" fill="#614000">to libm&#45;v0.2.16.svg</text>
<text xml:space="preserve" text-anchor="start" x="311.53" y="-159.1" font-family="Inter,Arial" font-weight="bold" font-size="10.00" fill="#614000">libm</text>
<text xml:space="preserve" text-anchor="start" x="308.53" y="-149.1" font-family="Inter,Arial" font-size="10.00" fill="#614000">0.2.16</text>
</g>
<!-- n0&#45;&gt;out0 -->
<g id="edge1" class="edge">
<title>n0&#45;&gt;out0</title>
<path fill="none" stroke="#d19922" stroke-width="0.9" stroke-dasharray="5,2" d="M162.31,-114.62C195.66,-124.7 236.19,-136.95 267.94,-146.55"/>
<polygon fill="#d19922" stroke="#d19922" stroke-width="0.9" points="267.04,-148.29 272.86,-148.04 268.16,-144.61 267.04,-148.29"/>
</g>
<!-- out1 -->
<g id="node4" class="node">
<title>out1</title>
<polygon fill="#fff8e8" stroke="#d19922" points="375.42,-119.2 262.65,-119.2 262.65,-72 381.42,-72 381.42,-113.2 375.42,-119.2"/>
<polyline fill="none" stroke="#d19922" points="375.42,-119.2 375.42,-113.2"/>
<polyline fill="none" stroke="#d19922" points="381.42,-113.2 375.42,-113.2"/>
<text xml:space="preserve" text-anchor="start" x="282.66" y="-107.1" font-family="Inter,Arial" font-size="10.00" fill="#614000">to rsa&#45;v0.9.10.svg</text>
<text xml:space="preserve" text-anchor="start" x="297.66" y="-97.1" font-family="Inter,Arial" font-weight="bold" font-size="10.00" fill="#614000">lazy_static</text>
<text xml:space="preserve" text-anchor="start" x="311.16" y="-87.1" font-family="Inter,Arial" font-size="10.00" fill="#614000">1.5.0</text>
<text xml:space="preserve" text-anchor="start" x="268.41" y="-77.1" font-family="Inter,Arial" font-size="10.00" fill="#614000">/vendor/lazy_static&#45;1.5.0</text>
</g>
<!-- n0&#45;&gt;out1 -->
<g id="edge2" class="edge">
<title>n0&#45;&gt;out1</title>
<path fill="none" stroke="#d19922" stroke-width="0.9" stroke-dasharray="5,2" d="M197.25,-95.6C216.97,-95.6 237.26,-95.6 255.55,-95.6"/>
<polygon fill="#d19922" stroke="#d19922" stroke-width="0.9" points="255.33,-97.53 260.83,-95.6 255.33,-93.68 255.33,-97.53"/>
</g>
<!-- out2 -->
<g id="node5" class="node">
<title>out2</title>
<polygon fill="#fff8e8" stroke="#d19922" points="401.29,-47.2 236.77,-47.2 236.77,0 407.29,0 407.29,-41.2 401.29,-47.2"/>
<polyline fill="none" stroke="#d19922" points="401.29,-47.2 401.29,-41.2"/>
<polyline fill="none" stroke="#d19922" points="407.29,-41.2 401.29,-41.2"/>
<text xml:space="preserve" text-anchor="start" x="257.53" y="-35.1" font-family="Inter,Arial" font-size="10.00" fill="#614000">to symphonia&#45;core&#45;v0.5.5.svg</text>
<text xml:space="preserve" text-anchor="start" x="284.53" y="-25.1" font-family="Inter,Arial" font-weight="bold" font-size="10.00" fill="#614000">symphonia&#45;core</text>
<text xml:space="preserve" text-anchor="start" x="311.16" y="-15.1" font-family="Inter,Arial" font-size="10.00" fill="#614000">0.5.5</text>
<text xml:space="preserve" text-anchor="start" x="242.53" y="-5.1" font-family="Inter,Arial" font-size="10.00" fill="#614000">/vendor/symphonia&#45;core&#45;0.5.5&#45;trueos</text>
</g>
<!-- n0&#45;&gt;out2 -->
<g id="edge3" class="edge">
<title>n0&#45;&gt;out2</title>
<path fill="none" stroke="#d19922" stroke-width="0.9" stroke-dasharray="5,2" d="M157.91,-76.59C183.2,-68.37 213.21,-58.63 240.54,-49.75"/>
<polygon fill="#d19922" stroke="#d19922" stroke-width="0.9" points="241.13,-51.58 245.77,-48.05 239.94,-47.92 241.13,-51.58"/>
</g>
<!-- n1 -->
<g id="node2" class="node">
<title>n1</title>
<path fill="#f7f9fb" stroke="#8b9bb0" d="M338.29,-242.6C338.29,-242.6 305.77,-242.6 305.77,-242.6 299.77,-242.6 293.77,-236.6 293.77,-230.6 293.77,-230.6 293.77,-218.6 293.77,-218.6 293.77,-212.6 299.77,-206.6 305.77,-206.6 305.77,-206.6 338.29,-206.6 338.29,-206.6 344.29,-206.6 350.29,-212.6 350.29,-218.6 350.29,-218.6 350.29,-230.6 350.29,-230.6 350.29,-236.6 344.29,-242.6 338.29,-242.6"/>
<text xml:space="preserve" text-anchor="start" x="299.53" y="-226.1" font-family="Inter,Arial" font-weight="bold" font-size="10.00" fill="#172033">bytemuck</text>
<text xml:space="preserve" text-anchor="start" x="308.53" y="-216.1" font-family="Inter,Arial" font-size="10.00" fill="#172033">1.25.0</text>
</g>
<!-- in3 -->
<g id="node6" class="node">
<title>in3</title>
<polygon fill="#eef6ff" stroke="#4b8fc5" points="168.27,-274.2 22.5,-274.2 22.5,-237 174.27,-237 174.27,-268.2 168.27,-274.2"/>
<polyline fill="none" stroke="#4b8fc5" points="168.27,-274.2 168.27,-268.2"/>
<polyline fill="none" stroke="#4b8fc5" points="174.27,-268.2 168.27,-268.2"/>
<text xml:space="preserve" text-anchor="start" x="28.26" y="-262.1" font-family="Inter,Arial" font-size="10.00" fill="#123d5c">from symphonia&#45;core&#45;v0.5.5.svg</text>
<text xml:space="preserve" text-anchor="start" x="75.88" y="-252.1" font-family="Inter,Arial" font-weight="bold" font-size="10.00" fill="#123d5c">bytemuck</text>
<text xml:space="preserve" text-anchor="start" x="84.88" y="-242.1" font-family="Inter,Arial" font-size="10.00" fill="#123d5c">1.25.0</text>
</g>
<!-- in3&#45;&gt;n1 -->
<g id="edge4" class="edge">
<title>in3&#45;&gt;n1</title>
<path fill="none" stroke="#4b8fc5" stroke-width="0.9" stroke-dasharray="5,2" d="M174.73,-245.06C212.77,-239.74 257.04,-233.55 286.83,-229.38"/>
<polygon fill="#4b8fc5" stroke="#4b8fc5" stroke-width="0.9" points="286.8,-231.33 291.99,-228.66 286.27,-227.52 286.8,-231.33"/>
</g>
<!-- in4 -->
<g id="node7" class="node">
<title>in4</title>
<polygon fill="#eef6ff" stroke="#4b8fc5" points="165.27,-212.2 25.5,-212.2 25.5,-175 171.27,-175 171.27,-206.2 165.27,-212.2"/>
<polyline fill="none" stroke="#4b8fc5" points="165.27,-212.2 165.27,-206.2"/>
<polyline fill="none" stroke="#4b8fc5" points="171.27,-206.2 165.27,-206.2"/>
<text xml:space="preserve" text-anchor="start" x="31.26" y="-200.1" font-family="Inter,Arial" font-size="10.00" fill="#123d5c">from tiny&#45;skia&#45;path&#45;v0.11.4.svg</text>
<text xml:space="preserve" text-anchor="start" x="75.88" y="-190.1" font-family="Inter,Arial" font-weight="bold" font-size="10.00" fill="#123d5c">bytemuck</text>
<text xml:space="preserve" text-anchor="start" x="84.88" y="-180.1" font-family="Inter,Arial" font-size="10.00" fill="#123d5c">1.25.0</text>
</g>
<!-- in4&#45;&gt;n1 -->
<g id="edge5" class="edge">
<title>in4&#45;&gt;n1</title>
<path fill="none" stroke="#4b8fc5" stroke-width="0.9" stroke-dasharray="5,2" d="M171.65,-203.71C210.29,-209.11 256.08,-215.52 286.68,-219.8"/>
<polygon fill="#4b8fc5" stroke="#4b8fc5" stroke-width="0.9" points="286.29,-221.68 292,-220.54 286.82,-217.87 286.29,-221.68"/>
</g>
</g>
</svg>
