<?xml version="1.0" encoding="UTF-8" standalone="no"?>
<!DOCTYPE svg PUBLIC "-//W3C//DTD SVG 1.1//EN"
 "http://www.w3.org/Graphics/SVG/1.1/DTD/svg11.dtd">
<!-- Generated by graphviz version 14.1.2 (0)
 -->
<!-- Title: symphonia&#45;core&#45;v0.5.5 Pages: 1 -->
<svg width="643pt" height="200pt"
 viewBox="0.00 0.00 643.00 200.00" xmlns="http://www.w3.org/2000/svg" xmlns:xlink="http://www.w3.org/1999/xlink">
<g id="graph0" class="graph" transform="scale(1 1) rotate(0) translate(4 196.4)">
<title>symphonia&#45;core&#45;v0.5.5</title>
<polygon fill="white" stroke="none" points="-4,4 -4,-196.4 638.91,-196.4 638.91,4 -4,4"/>
<!-- n0 -->
<g id="node1" class="node">
<title>n0</title>
<path fill="#dff3ff" stroke="#1b78a6" d="M408.94,-121.4C408.94,-121.4 237.22,-121.4 237.22,-121.4 231.22,-121.4 225.22,-115.4 225.22,-109.4 225.22,-109.4 225.22,-83 225.22,-83 225.22,-77 231.22,-71 237.22,-71 237.22,-71 408.94,-71 408.94,-71 414.94,-71 420.94,-77 420.94,-83 420.94,-83 420.94,-109.4 420.94,-109.4 420.94,-115.4 414.94,-121.4 408.94,-121.4"/>
<text xml:space="preserve" text-anchor="start" x="271.33" y="-102.85" font-family="Inter,Arial" font-weight="bold" font-size="13.00" fill="#172033">symphonia&#45;core</text>
<text xml:space="preserve" text-anchor="start" x="309.96" y="-90.8" font-family="Inter,Arial" font-size="12.00" fill="#172033">0.5.5</text>
<text xml:space="preserve" text-anchor="start" x="234.58" y="-79.75" font-family="Inter,Arial" font-size="11.00" fill="#172033">/vendor/symphonia&#45;core&#45;0.5.5&#45;trueos</text>
</g>
<!-- out0 -->
<g id="node2" class="node">
<title>out0</title>
<polygon fill="#fff8e8" stroke="#d19922" points="592.91,-192.4 496.94,-192.4 496.94,-148 598.91,-148 598.91,-186.4 592.91,-192.4"/>
<polyline fill="none" stroke="#d19922" points="592.91,-192.4 592.91,-186.4"/>
<polyline fill="none" stroke="#d19922" points="598.91,-186.4 592.91,-186.4"/>
<text xml:space="preserve" text-anchor="start" x="506.3" y="-176.7" font-family="Inter,Arial" font-size="10.00" fill="#614000">to libm&#45;v0.2.16.svg</text>
<text xml:space="preserve" text-anchor="start" x="537.42" y="-166.7" font-family="Inter,Arial" font-weight="bold" font-size="10.00" fill="#614000">libm</text>
<text xml:space="preserve" text-anchor="start" x="534.42" y="-156.7" font-family="Inter,Arial" font-size="10.00" fill="#614000">0.2.16</text>
</g>
<!-- n0&#45;&gt;out0 -->
<g id="edge1" class="edge">
<title>n0&#45;&gt;out0</title>
<path fill="none" stroke="#d19922" stroke-width="7.2" stroke-dasharray="5,2" d="M401.39,-121.87C428.76,-130.96 459.16,-141.05 485.07,-149.66"/>
<polygon fill="#d19922" stroke="#d19922" stroke-width="7.2" points="483.91,-152.92 490.22,-151.37 486.09,-146.35 483.91,-152.92"/>
</g>
<!-- out1 -->
<g id="node3" class="node">
<title>out1</title>
<polygon fill="#fff8e8" stroke="#d19922" points="604.91,-123.4 484.94,-123.4 484.94,-69 610.91,-69 610.91,-117.4 604.91,-123.4"/>
<polyline fill="none" stroke="#d19922" points="604.91,-123.4 604.91,-117.4"/>
<polyline fill="none" stroke="#d19922" points="610.91,-117.4 604.91,-117.4"/>
<text xml:space="preserve" text-anchor="start" x="508.55" y="-107.7" font-family="Inter,Arial" font-size="10.00" fill="#614000">to rsa&#45;v0.9.10.svg</text>
<text xml:space="preserve" text-anchor="start" x="523.55" y="-97.7" font-family="Inter,Arial" font-weight="bold" font-size="10.00" fill="#614000">lazy_static</text>
<text xml:space="preserve" text-anchor="start" x="537.05" y="-87.7" font-family="Inter,Arial" font-size="10.00" fill="#614000">1.5.0</text>
<text xml:space="preserve" text-anchor="start" x="494.3" y="-77.7" font-family="Inter,Arial" font-size="10.00" fill="#614000">/vendor/lazy_static&#45;1.5.0</text>
</g>
<!-- n0&#45;&gt;out1 -->
<g id="edge2" class="edge">
<title>n0&#45;&gt;out1</title>
<path fill="none" stroke="#d19922" stroke-width="7.2" stroke-dasharray="5,2" d="M421.17,-96.2C438.45,-96.2 456.19,-96.2 472.69,-96.2"/>
<polygon fill="#d19922" stroke="#d19922" stroke-width="7.2" points="472.22,-99.67 477.72,-96.2 472.22,-92.74 472.22,-99.67"/>
</g>
<!-- out2 -->
<g id="node4" class="node">
<title>out2</title>
<polygon fill="#fff8e8" stroke="#d19922" points="628.91,-44.4 460.94,-44.4 460.94,0 634.91,0 634.91,-38.4 628.91,-44.4"/>
<polyline fill="none" stroke="#d19922" points="628.91,-44.4 628.91,-38.4"/>
<polyline fill="none" stroke="#d19922" points="634.91,-38.4 628.91,-38.4"/>
<text xml:space="preserve" text-anchor="start" x="470.3" y="-28.7" font-family="Inter,Arial" font-size="10.00" fill="#614000">to symphonia&#45;codec&#45;aac&#45;v0.5.5.svg</text>
<text xml:space="preserve" text-anchor="start" x="525.42" y="-18.7" font-family="Inter,Arial" font-weight="bold" font-size="10.00" fill="#614000">bytemuck</text>
<text xml:space="preserve" text-anchor="start" x="534.42" y="-8.7" font-family="Inter,Arial" font-size="10.00" fill="#614000">1.25.0</text>
</g>
<!-- n0&#45;&gt;out2 -->
<g id="edge3" class="edge">
<title>n0&#45;&gt;out2</title>
<path fill="none" stroke="#d19922" stroke-width="7.2" stroke-dasharray="5,2" d="M401.39,-70.53C422.71,-63.45 445.86,-55.76 467.3,-48.64"/>
<polygon fill="#d19922" stroke="#d19922" stroke-width="7.2" points="468.14,-52.01 472.26,-46.99 465.95,-45.44 468.14,-52.01"/>
</g>
<!-- in3 -->
<g id="node5" class="node">
<title>in3</title>
<polygon fill="#eef6ff" stroke="#4b8fc5" points="179.22,-123.4 0,-123.4 0,-69 185.22,-69 185.22,-117.4 179.22,-123.4"/>
<polyline fill="none" stroke="#4b8fc5" points="179.22,-123.4 179.22,-117.4"/>
<polyline fill="none" stroke="#4b8fc5" points="185.22,-117.4 179.22,-117.4"/>
<text xml:space="preserve" text-anchor="start" x="9.36" y="-107.7" font-family="Inter,Arial" font-size="10.00" fill="#123d5c">from symphonia&#45;codec&#45;aac&#45;v0.5.5.svg</text>
<text xml:space="preserve" text-anchor="start" x="55.11" y="-97.7" font-family="Inter,Arial" font-weight="bold" font-size="10.00" fill="#123d5c">symphonia&#45;core</text>
<text xml:space="preserve" text-anchor="start" x="81.74" y="-87.7" font-family="Inter,Arial" font-size="10.00" fill="#123d5c">0.5.5</text>
<text xml:space="preserve" text-anchor="start" x="13.11" y="-77.7" font-family="Inter,Arial" font-size="10.00" fill="#123d5c">/vendor/symphonia&#45;core&#45;0.5.5&#45;trueos</text>
</g>
<!-- in3&#45;&gt;n0 -->
<g id="edge4" class="edge">
<title>in3&#45;&gt;n0</title>
<path fill="none" stroke="#4b8fc5" stroke-width="7.2" stroke-dasharray="5,2" d="M185.55,-96.2C194.42,-96.2 203.47,-96.2 212.48,-96.2"/>
<polygon fill="#4b8fc5" stroke="#4b8fc5" stroke-width="7.2" points="212.47,-99.67 217.97,-96.2 212.47,-92.74 212.47,-99.67"/>
</g>
</g>
</svg>
