<?xml version="1.0" encoding="UTF-8" standalone="no"?>
<!DOCTYPE svg PUBLIC "-//W3C//DTD SVG 1.1//EN"
 "http://www.w3.org/Graphics/SVG/1.1/DTD/svg11.dtd">
<!-- Generated by graphviz version 14.1.2 (0)
 -->
<!-- Title: symphonia&#45;codec&#45;aac&#45;v0.5.5 Pages: 1 -->
<svg width="450pt" height="311pt"
 viewBox="0.00 0.00 450.00 311.00" xmlns="http://www.w3.org/2000/svg" xmlns:xlink="http://www.w3.org/1999/xlink">
<g id="graph0" class="graph" transform="scale(1 1) rotate(0) translate(4 307.4)">
<title>symphonia&#45;codec&#45;aac&#45;v0.5.5</title>
<polygon fill="white" stroke="none" points="-4,4 -4,-307.4 445.94,-307.4 445.94,4 -4,4"/>
<!-- n0 -->
<g id="node1" class="node">
<title>n0</title>
<path fill="#dff3ff" stroke="#1b78a6" d="M212.22,-131.4C212.22,-131.4 12,-131.4 12,-131.4 6,-131.4 0,-125.4 0,-119.4 0,-119.4 0,-93 0,-93 0,-87 6,-81 12,-81 12,-81 212.22,-81 212.22,-81 218.22,-81 224.22,-87 224.22,-93 224.22,-93 224.22,-119.4 224.22,-119.4 224.22,-125.4 218.22,-131.4 212.22,-131.4"/>
<text xml:space="preserve" text-anchor="start" x="41.61" y="-112.85" font-family="Inter,Arial" font-weight="bold" font-size="13.00" fill="#172033">symphonia&#45;codec&#45;aac</text>
<text xml:space="preserve" text-anchor="start" x="98.99" y="-100.8" font-family="Inter,Arial" font-size="12.00" fill="#172033">0.5.5</text>
<text xml:space="preserve" text-anchor="start" x="9.36" y="-89.75" font-family="Inter,Arial" font-size="11.00" fill="#172033">/vendor/symphonia&#45;codec&#45;aac&#45;0.5.5&#45;trueos</text>
</g>
<!-- out0 -->
<g id="node3" class="node">
<title>out0</title>
<polygon fill="#fff8e8" stroke="#d19922" points="398.06,-202.4 302.09,-202.4 302.09,-158 404.06,-158 404.06,-196.4 398.06,-202.4"/>
<polyline fill="none" stroke="#d19922" points="398.06,-202.4 398.06,-196.4"/>
<polyline fill="none" stroke="#d19922" points="404.06,-196.4 398.06,-196.4"/>
<text xml:space="preserve" text-anchor="start" x="311.45" y="-186.7" font-family="Inter,Arial" font-size="10.00" fill="#614000">to libm&#45;v0.2.16.svg</text>
<text xml:space="preserve" text-anchor="start" x="342.58" y="-176.7" font-family="Inter,Arial" font-weight="bold" font-size="10.00" fill="#614000">libm</text>
<text xml:space="preserve" text-anchor="start" x="339.58" y="-166.7" font-family="Inter,Arial" font-size="10.00" fill="#614000">0.2.16</text>
</g>
<!-- n0&#45;&gt;out0 -->
<g id="edge1" class="edge">
<title>n0&#45;&gt;out0</title>
<path fill="none" stroke="#d19922" stroke-width="0.9" stroke-dasharray="5,2" d="M196.02,-131.87C228.87,-142.05 265.8,-153.48 295.48,-162.67"/>
<polygon fill="#d19922" stroke="#d19922" stroke-width="0.9" points="294.58,-164.41 300.4,-164.2 295.72,-160.73 294.58,-164.41"/>
</g>
<!-- out1 -->
<g id="node4" class="node">
<title>out1</title>
<polygon fill="#fff8e8" stroke="#d19922" points="410.06,-133.4 290.09,-133.4 290.09,-79 416.06,-79 416.06,-127.4 410.06,-133.4"/>
<polyline fill="none" stroke="#d19922" points="410.06,-133.4 410.06,-127.4"/>
<polyline fill="none" stroke="#d19922" points="416.06,-127.4 410.06,-127.4"/>
<text xml:space="preserve" text-anchor="start" x="313.7" y="-117.7" font-family="Inter,Arial" font-size="10.00" fill="#614000">to rsa&#45;v0.9.10.svg</text>
<text xml:space="preserve" text-anchor="start" x="328.7" y="-107.7" font-family="Inter,Arial" font-weight="bold" font-size="10.00" fill="#614000">lazy_static</text>
<text xml:space="preserve" text-anchor="start" x="342.2" y="-97.7" font-family="Inter,Arial" font-size="10.00" fill="#614000">1.5.0</text>
<text xml:space="preserve" text-anchor="start" x="299.45" y="-87.7" font-family="Inter,Arial" font-size="10.00" fill="#614000">/vendor/lazy_static&#45;1.5.0</text>
</g>
<!-- n0&#45;&gt;out1 -->
<g id="edge2" class="edge">
<title>n0&#45;&gt;out1</title>
<path fill="none" stroke="#d19922" stroke-width="0.9" stroke-dasharray="5,2" d="M224.55,-106.2C244.49,-106.2 264.73,-106.2 283.04,-106.2"/>
<polygon fill="#d19922" stroke="#d19922" stroke-width="0.9" points="282.83,-108.13 288.33,-106.2 282.83,-104.28 282.83,-108.13"/>
</g>
<!-- out2 -->
<g id="node5" class="node">
<title>out2</title>
<polygon fill="#fff8e8" stroke="#d19922" points="435.94,-54.4 264.22,-54.4 264.22,0 441.94,0 441.94,-48.4 435.94,-54.4"/>
<polyline fill="none" stroke="#d19922" points="435.94,-54.4 435.94,-48.4"/>
<polyline fill="none" stroke="#d19922" points="441.94,-48.4 435.94,-48.4"/>
<text xml:space="preserve" text-anchor="start" x="288.58" y="-38.7" font-family="Inter,Arial" font-size="10.00" fill="#614000">to symphonia&#45;core&#45;v0.5.5.svg</text>
<text xml:space="preserve" text-anchor="start" x="315.58" y="-28.7" font-family="Inter,Arial" font-weight="bold" font-size="10.00" fill="#614000">symphonia&#45;core</text>
<text xml:space="preserve" text-anchor="start" x="342.2" y="-18.7" font-family="Inter,Arial" font-size="10.00" fill="#614000">0.5.5</text>
<text xml:space="preserve" text-anchor="start" x="273.58" y="-8.7" font-family="Inter,Arial" font-size="10.00" fill="#614000">/vendor/symphonia&#45;core&#45;0.5.5&#45;trueos</text>
</g>
<!-- n0&#45;&gt;out2 -->
<g id="edge3" class="edge">
<title>n0&#45;&gt;out2</title>
<path fill="none" stroke="#d19922" stroke-width="0.9" stroke-dasharray="5,2" d="M190.7,-80.55C213.59,-72.98 238.83,-64.64 262.42,-56.84"/>
<polygon fill="#d19922" stroke="#d19922" stroke-width="0.9" points="262.79,-58.74 267.41,-55.19 261.58,-55.09 262.79,-58.74"/>
</g>
<!-- n1 -->
<g id="node2" class="node">
<title>n1</title>
<path fill="#f7f9fb" stroke="#8b9bb0" d="M381.56,-266.9C381.56,-266.9 324.59,-266.9 324.59,-266.9 318.59,-266.9 312.59,-260.9 312.59,-254.9 312.59,-254.9 312.59,-239.5 312.59,-239.5 312.59,-233.5 318.59,-227.5 324.59,-227.5 324.59,-227.5 381.56,-227.5 381.56,-227.5 387.56,-227.5 393.56,-233.5 393.56,-239.5 393.56,-239.5 393.56,-254.9 393.56,-254.9 393.56,-260.9 387.56,-266.9 381.56,-266.9"/>
<text xml:space="preserve" text-anchor="start" x="321.95" y="-248.35" font-family="Inter,Arial" font-weight="bold" font-size="13.00" fill="#172033">bytemuck</text>
<text xml:space="preserve" text-anchor="start" x="336.58" y="-236.3" font-family="Inter,Arial" font-size="12.00" fill="#172033">1.25.0</text>
</g>
<!-- in3 -->
<g id="node6" class="node">
<title>in3</title>
<polygon fill="#eef6ff" stroke="#4b8fc5" points="185.6,-303.4 32.63,-303.4 32.63,-259 191.6,-259 191.6,-297.4 185.6,-303.4"/>
<polyline fill="none" stroke="#4b8fc5" points="185.6,-303.4 185.6,-297.4"/>
<polyline fill="none" stroke="#4b8fc5" points="191.6,-297.4 185.6,-297.4"/>
<text xml:space="preserve" text-anchor="start" x="41.99" y="-287.7" font-family="Inter,Arial" font-size="10.00" fill="#123d5c">from symphonia&#45;core&#45;v0.5.5.svg</text>
<text xml:space="preserve" text-anchor="start" x="89.61" y="-277.7" font-family="Inter,Arial" font-weight="bold" font-size="10.00" fill="#123d5c">bytemuck</text>
<text xml:space="preserve" text-anchor="start" x="98.61" y="-267.7" font-family="Inter,Arial" font-size="10.00" fill="#123d5c">1.25.0</text>
</g>
<!-- in3&#45;&gt;n1 -->
<g id="edge4" class="edge">
<title>in3&#45;&gt;n1</title>
<path fill="none" stroke="#4b8fc5" stroke-width="0.9" stroke-dasharray="5,2" d="M192.02,-269.97C229.59,-264.63 273.23,-258.42 305.45,-253.83"/>
<polygon fill="#4b8fc5" stroke="#4b8fc5" stroke-width="0.9" points="305.62,-255.75 310.79,-253.07 305.08,-251.94 305.62,-255.75"/>
</g>
<!-- in4 -->
<g id="node7" class="node">
<title>in4</title>
<polygon fill="#eef6ff" stroke="#4b8fc5" points="182.6,-234.4 35.63,-234.4 35.63,-190 188.6,-190 188.6,-228.4 182.6,-234.4"/>
<polyline fill="none" stroke="#4b8fc5" points="182.6,-234.4 182.6,-228.4"/>
<polyline fill="none" stroke="#4b8fc5" points="188.6,-228.4 182.6,-228.4"/>
<text xml:space="preserve" text-anchor="start" x="44.99" y="-218.7" font-family="Inter,Arial" font-size="10.00" fill="#123d5c">from tiny&#45;skia&#45;path&#45;v0.11.4.svg</text>
<text xml:space="preserve" text-anchor="start" x="89.61" y="-208.7" font-family="Inter,Arial" font-weight="bold" font-size="10.00" fill="#123d5c">bytemuck</text>
<text xml:space="preserve" text-anchor="start" x="98.61" y="-198.7" font-family="Inter,Arial" font-size="10.00" fill="#123d5c">1.25.0</text>
</g>
<!-- in4&#45;&gt;n1 -->
<g id="edge5" class="edge">
<title>in4&#45;&gt;n1</title>
<path fill="none" stroke="#4b8fc5" stroke-width="0.9" stroke-dasharray="5,2" d="M189.05,-223.32C227.36,-228.93 272.59,-235.56 305.68,-240.4"/>
<polygon fill="#4b8fc5" stroke="#4b8fc5" stroke-width="0.9" points="305.06,-242.26 310.78,-241.15 305.62,-238.45 305.06,-242.26"/>
</g>
</g>
</svg>
