<?xml version="1.0" encoding="UTF-8" standalone="no"?>
<!DOCTYPE svg PUBLIC "-//W3C//DTD SVG 1.1//EN"
 "http://www.w3.org/Graphics/SVG/1.1/DTD/svg11.dtd">
<!-- Generated by graphviz version 14.1.2 (0)
 -->
<!-- Title: symphonia&#45;core&#45;v0.5.5 Pages: 1 -->
<svg width="603pt" height="179pt"
 viewBox="0.00 0.00 603.00 179.00" xmlns="http://www.w3.org/2000/svg" xmlns:xlink="http://www.w3.org/1999/xlink">
<g id="graph0" class="graph" transform="scale(1 1) rotate(0) translate(4 175.2)">
<title>symphonia&#45;core&#45;v0.5.5</title>
<polygon fill="white" stroke="none" points="-4,4 -4,-175.2 599.31,-175.2 599.31,4 -4,4"/>
<!-- n0 -->
<g id="node1" class="node">
<title>n0</title>
<path fill="#dff3ff" stroke="#1b78a6" d="M376.54,-104.2C376.54,-104.2 230.02,-104.2 230.02,-104.2 224.02,-104.2 218.02,-98.2 218.02,-92.2 218.02,-92.2 218.02,-79 218.02,-79 218.02,-73 224.02,-67 230.02,-67 230.02,-67 376.54,-67 376.54,-67 382.54,-67 388.54,-73 388.54,-79 388.54,-79 388.54,-92.2 388.54,-92.2 388.54,-98.2 382.54,-104.2 376.54,-104.2"/>
<text xml:space="preserve" text-anchor="start" x="265.78" y="-92.1" font-family="Inter,Arial" font-weight="bold" font-size="10.00" fill="#172033">symphonia&#45;core</text>
<text xml:space="preserve" text-anchor="start" x="292.41" y="-82.1" font-family="Inter,Arial" font-size="10.00" fill="#172033">0.5.5</text>
<text xml:space="preserve" text-anchor="start" x="223.78" y="-72.1" font-family="Inter,Arial" font-size="10.00" fill="#172033">/vendor/symphonia&#45;core&#45;0.5.5&#45;trueos</text>
</g>
<!-- out0 -->
<g id="node2" class="node">
<title>out0</title>
<polygon fill="#fff8e8" stroke="#d19922" points="553.31,-171.2 464.54,-171.2 464.54,-134 559.31,-134 559.31,-165.2 553.31,-171.2"/>
<polyline fill="none" stroke="#d19922" points="553.31,-171.2 553.31,-165.2"/>
<polyline fill="none" stroke="#d19922" points="559.31,-165.2 553.31,-165.2"/>
<text xml:space="preserve" text-anchor="start" x="470.3" y="-159.1" font-family="Inter,Arial" font-size="10.00" fill="#614000">to libm&#45;v0.2.16.svg</text>
<text xml:space="preserve" text-anchor="start" x="501.43" y="-149.1" font-family="Inter,Arial" font-weight="bold" font-size="10.00" fill="#614000">libm</text>
<text xml:space="preserve" text-anchor="start" x="498.43" y="-139.1" font-family="Inter,Arial" font-size="10.00" fill="#614000">0.2.16</text>
</g>
<!-- n0&#45;&gt;out0 -->
<g id="edge1" class="edge">
<title>n0&#45;&gt;out0</title>
<path fill="none" stroke="#d19922" stroke-width="0.9" stroke-dasharray="5,2" d="M362.94,-104.62C392.78,-114.3 428.78,-125.97 457.8,-135.37"/>
<polygon fill="#d19922" stroke="#d19922" stroke-width="0.9" points="457.13,-137.18 462.96,-137.05 458.32,-133.52 457.13,-137.18"/>
</g>
<!-- out1 -->
<g id="node3" class="node">
<title>out1</title>
<polygon fill="#fff8e8" stroke="#d19922" points="565.31,-109.2 452.54,-109.2 452.54,-62 571.31,-62 571.31,-103.2 565.31,-109.2"/>
<polyline fill="none" stroke="#d19922" points="565.31,-109.2 565.31,-103.2"/>
<polyline fill="none" stroke="#d19922" points="571.31,-103.2 565.31,-103.2"/>
<text xml:space="preserve" text-anchor="start" x="472.55" y="-97.1" font-family="Inter,Arial" font-size="10.00" fill="#614000">to rsa&#45;v0.9.10.svg</text>
<text xml:space="preserve" text-anchor="start" x="487.55" y="-87.1" font-family="Inter,Arial" font-weight="bold" font-size="10.00" fill="#614000">lazy_static</text>
<text xml:space="preserve" text-anchor="start" x="501.05" y="-77.1" font-family="Inter,Arial" font-size="10.00" fill="#614000">1.5.0</text>
<text xml:space="preserve" text-anchor="start" x="458.3" y="-67.1" font-family="Inter,Arial" font-size="10.00" fill="#614000">/vendor/lazy_static&#45;1.5.0</text>
</g>
<!-- n0&#45;&gt;out1 -->
<g id="edge2" class="edge">
<title>n0&#45;&gt;out1</title>
<path fill="none" stroke="#d19922" stroke-width="0.9" stroke-dasharray="5,2" d="M388.93,-85.6C407.89,-85.6 427.72,-85.6 445.74,-85.6"/>
<polygon fill="#d19922" stroke="#d19922" stroke-width="0.9" points="445.44,-87.53 450.93,-85.6 445.43,-83.68 445.44,-87.53"/>
</g>
<!-- out2 -->
<g id="node4" class="node">
<title>out2</title>
<polygon fill="#fff8e8" stroke="#d19922" points="589.31,-37.2 428.54,-37.2 428.54,0 595.31,0 595.31,-31.2 589.31,-37.2"/>
<polyline fill="none" stroke="#d19922" points="589.31,-37.2 589.31,-31.2"/>
<polyline fill="none" stroke="#d19922" points="595.31,-31.2 589.31,-31.2"/>
<text xml:space="preserve" text-anchor="start" x="434.3" y="-25.1" font-family="Inter,Arial" font-size="10.00" fill="#614000">to symphonia&#45;codec&#45;aac&#45;v0.5.5.svg</text>
<text xml:space="preserve" text-anchor="start" x="489.43" y="-15.1" font-family="Inter,Arial" font-weight="bold" font-size="10.00" fill="#614000">bytemuck</text>
<text xml:space="preserve" text-anchor="start" x="498.43" y="-5.1" font-family="Inter,Arial" font-size="10.00" fill="#614000">1.25.0</text>
</g>
<!-- n0&#45;&gt;out2 -->
<g id="edge3" class="edge">
<title>n0&#45;&gt;out2</title>
<path fill="none" stroke="#d19922" stroke-width="0.9" stroke-dasharray="5,2" d="M362.94,-66.58C388.79,-58.2 419.26,-48.32 445.81,-39.71"/>
<polygon fill="#d19922" stroke="#d19922" stroke-width="0.9" points="446.18,-41.62 450.82,-38.09 444.99,-37.95 446.18,-41.62"/>
</g>
<!-- in3 -->
<g id="node5" class="node">
<title>in3</title>
<polygon fill="#eef6ff" stroke="#4b8fc5" points="172.02,-109.2 0,-109.2 0,-62 178.02,-62 178.02,-103.2 172.02,-109.2"/>
<polyline fill="none" stroke="#4b8fc5" points="172.02,-109.2 172.02,-103.2"/>
<polyline fill="none" stroke="#4b8fc5" points="178.02,-103.2 172.02,-103.2"/>
<text xml:space="preserve" text-anchor="start" x="5.76" y="-97.1" font-family="Inter,Arial" font-size="10.00" fill="#123d5c">from symphonia&#45;codec&#45;aac&#45;v0.5.5.svg</text>
<text xml:space="preserve" text-anchor="start" x="51.51" y="-87.1" font-family="Inter,Arial" font-weight="bold" font-size="10.00" fill="#123d5c">symphonia&#45;core</text>
<text xml:space="preserve" text-anchor="start" x="78.13" y="-77.1" font-family="Inter,Arial" font-size="10.00" fill="#123d5c">0.5.5</text>
<text xml:space="preserve" text-anchor="start" x="9.51" y="-67.1" font-family="Inter,Arial" font-size="10.00" fill="#123d5c">/vendor/symphonia&#45;core&#45;0.5.5&#45;trueos</text>
</g>
<!-- in3&#45;&gt;n0 -->
<g id="edge4" class="edge">
<title>in3&#45;&gt;n0</title>
<path fill="none" stroke="#4b8fc5" stroke-width="0.9" stroke-dasharray="5,2" d="M178.49,-85.6C189.23,-85.6 200.22,-85.6 211,-85.6"/>
<polygon fill="#4b8fc5" stroke="#4b8fc5" stroke-width="0.9" points="210.82,-87.53 216.32,-85.6 210.82,-83.68 210.82,-87.53"/>
</g>
</g>
</svg>
