<?xml version="1.0" encoding="UTF-8" standalone="no"?>
<!DOCTYPE svg PUBLIC "-//W3C//DTD SVG 1.1//EN"
 "http://www.w3.org/Graphics/SVG/1.1/DTD/svg11.dtd">
<!-- Generated by graphviz version 14.1.2 (0)
 -->
<!-- Title: symphonia&#45;core&#45;v0.5.5 Pages: 1 -->
<svg width="644pt" height="200pt"
 viewBox="0.00 0.00 644.00 200.00" xmlns="http://www.w3.org/2000/svg" xmlns:xlink="http://www.w3.org/1999/xlink">
<g id="graph0" class="graph" transform="scale(1 1) rotate(0) translate(4 196.4)">
<title>symphonia&#45;core&#45;v0.5.5</title>
<polygon fill="white" stroke="none" points="-4,4 -4,-196.4 640.41,-196.4 640.41,4 -4,4"/>
<!-- n0 -->
<g id="node1" class="node">
<title>n0</title>
<path fill="#dff3ff" stroke="#1b78a6" d="M408.94,-121.4C408.94,-121.4 237.22,-121.4 237.22,-121.4 231.22,-121.4 225.22,-115.4 225.22,-109.4 225.22,-109.4 225.22,-83 225.22,-83 225.22,-77 231.22,-71 237.22,-71 237.22,-71 408.94,-71 408.94,-71 414.94,-71 420.94,-77 420.94,-83 420.94,-83 420.94,-109.4 420.94,-109.4 420.94,-115.4 414.94,-121.4 408.94,-121.4"/>
<text xml:space="preserve" text-anchor="start" x="271.33" y="-102.85" font-family="Inter,Arial" font-weight="bold" font-size="13.00" fill="#172033">symphonia&#45;core</text>
<text xml:space="preserve" text-anchor="start" x="309.95" y="-90.8" font-family="Inter,Arial" font-size="12.00" fill="#172033">0.5.5</text>
<text xml:space="preserve" text-anchor="start" x="234.58" y="-79.75" font-family="Inter,Arial" font-size="11.00" fill="#172033">/vendor/symphonia&#45;core&#45;0.5.5&#45;trueos</text>
</g>
<!-- out0 -->
<g id="node2" class="node">
<title>out0</title>
<polygon fill="#fff8e8" stroke="#d19922" points="593.66,-192.4 497.69,-192.4 497.69,-148 599.66,-148 599.66,-186.4 593.66,-192.4"/>
<polyline fill="none" stroke="#d19922" points="593.66,-192.4 593.66,-186.4"/>
<polyline fill="none" stroke="#d19922" points="599.66,-186.4 593.66,-186.4"/>
<text xml:space="preserve" text-anchor="start" x="507.05" y="-176.7" font-family="Inter,Arial" font-size="10.00" fill="#614000">to libm&#45;v0.2.16.svg</text>
<text xml:space="preserve" text-anchor="start" x="538.17" y="-166.7" font-family="Inter,Arial" font-weight="bold" font-size="10.00" fill="#614000">libm</text>
<text xml:space="preserve" text-anchor="start" x="535.17" y="-156.7" font-family="Inter,Arial" font-size="10.00" fill="#614000">0.2.16</text>
</g>
<!-- n0&#45;&gt;out0 -->
<g id="edge1" class="edge">
<title>n0&#45;&gt;out0</title>
<path fill="none" stroke="#d19922" stroke-width="7.2" stroke-dasharray="5,2" d="M401.66,-121.87C429.11,-130.96 459.61,-141.05 485.61,-149.66"/>
<polygon fill="#d19922" stroke="#d19922" stroke-width="7.2" points="484.49,-152.94 490.8,-151.38 486.66,-146.36 484.49,-152.94"/>
</g>
<!-- out1 -->
<g id="node3" class="node">
<title>out1</title>
<polygon fill="#fff8e8" stroke="#d19922" points="630.41,-123.4 460.94,-123.4 460.94,-69 636.41,-69 636.41,-117.4 630.41,-123.4"/>
<polyline fill="none" stroke="#d19922" points="630.41,-123.4 630.41,-117.4"/>
<polyline fill="none" stroke="#d19922" points="636.41,-117.4 630.41,-117.4"/>
<text xml:space="preserve" text-anchor="start" x="470.3" y="-107.7" font-family="Inter,Arial" font-size="10.00" fill="#614000">to rustls&#45;rustcrypto&#45;v0.0.2&#45;alpha.svg</text>
<text xml:space="preserve" text-anchor="start" x="524.3" y="-97.7" font-family="Inter,Arial" font-weight="bold" font-size="10.00" fill="#614000">lazy_static</text>
<text xml:space="preserve" text-anchor="start" x="537.8" y="-87.7" font-family="Inter,Arial" font-size="10.00" fill="#614000">1.5.0</text>
<text xml:space="preserve" text-anchor="start" x="495.05" y="-77.7" font-family="Inter,Arial" font-size="10.00" fill="#614000">/vendor/lazy_static&#45;1.5.0</text>
</g>
<!-- n0&#45;&gt;out1 -->
<g id="edge2" class="edge">
<title>n0&#45;&gt;out1</title>
<path fill="none" stroke="#d19922" stroke-width="7.2" stroke-dasharray="5,2" d="M421.18,-96.2C430.17,-96.2 439.29,-96.2 448.31,-96.2"/>
<polygon fill="#d19922" stroke="#d19922" stroke-width="7.2" points="448.26,-99.67 453.76,-96.2 448.26,-92.74 448.26,-99.67"/>
</g>
<!-- out2 -->
<g id="node4" class="node">
<title>out2</title>
<polygon fill="#fff8e8" stroke="#d19922" points="629.66,-44.4 461.69,-44.4 461.69,0 635.66,0 635.66,-38.4 629.66,-44.4"/>
<polyline fill="none" stroke="#d19922" points="629.66,-44.4 629.66,-38.4"/>
<polyline fill="none" stroke="#d19922" points="635.66,-38.4 629.66,-38.4"/>
<text xml:space="preserve" text-anchor="start" x="471.05" y="-28.7" font-family="Inter,Arial" font-size="10.00" fill="#614000">to symphonia&#45;codec&#45;aac&#45;v0.5.5.svg</text>
<text xml:space="preserve" text-anchor="start" x="526.17" y="-18.7" font-family="Inter,Arial" font-weight="bold" font-size="10.00" fill="#614000">bytemuck</text>
<text xml:space="preserve" text-anchor="start" x="535.17" y="-8.7" font-family="Inter,Arial" font-size="10.00" fill="#614000">1.25.0</text>
</g>
<!-- n0&#45;&gt;out2 -->
<g id="edge3" class="edge">
<title>n0&#45;&gt;out2</title>
<path fill="none" stroke="#d19922" stroke-width="7.2" stroke-dasharray="5,2" d="M401.66,-70.53C423.04,-63.45 446.27,-55.76 467.78,-48.64"/>
<polygon fill="#d19922" stroke="#d19922" stroke-width="7.2" points="468.65,-52 472.78,-46.99 466.47,-45.42 468.65,-52"/>
</g>
<!-- in3 -->
<g id="node5" class="node">
<title>in3</title>
<polygon fill="#eef6ff" stroke="#4b8fc5" points="179.22,-123.4 0,-123.4 0,-69 185.22,-69 185.22,-117.4 179.22,-123.4"/>
<polyline fill="none" stroke="#4b8fc5" points="179.22,-123.4 179.22,-117.4"/>
<polyline fill="none" stroke="#4b8fc5" points="185.22,-117.4 179.22,-117.4"/>
<text xml:space="preserve" text-anchor="start" x="9.36" y="-107.7" font-family="Inter,Arial" font-size="10.00" fill="#123d5c">from symphonia&#45;codec&#45;aac&#45;v0.5.5.svg</text>
<text xml:space="preserve" text-anchor="start" x="55.11" y="-97.7" font-family="Inter,Arial" font-weight="bold" font-size="10.00" fill="#123d5c">symphonia&#45;core</text>
<text xml:space="preserve" text-anchor="start" x="81.74" y="-87.7" font-family="Inter,Arial" font-size="10.00" fill="#123d5c">0.5.5</text>
<text xml:space="preserve" text-anchor="start" x="13.11" y="-77.7" font-family="Inter,Arial" font-size="10.00" fill="#123d5c">/vendor/symphonia&#45;core&#45;0.5.5&#45;trueos</text>
</g>
<!-- in3&#45;&gt;n0 -->
<g id="edge4" class="edge">
<title>in3&#45;&gt;n0</title>
<path fill="none" stroke="#4b8fc5" stroke-width="7.2" stroke-dasharray="5,2" d="M185.55,-96.2C194.42,-96.2 203.47,-96.2 212.48,-96.2"/>
<polygon fill="#4b8fc5" stroke="#4b8fc5" stroke-width="7.2" points="212.47,-99.67 217.97,-96.2 212.47,-92.74 212.47,-99.67"/>
</g>
</g>
</svg>
