<?xml version="1.0" encoding="UTF-8" standalone="no"?>
<!DOCTYPE svg PUBLIC "-//W3C//DTD SVG 1.1//EN"
 "http://www.w3.org/Graphics/SVG/1.1/DTD/svg11.dtd">
<!-- Generated by graphviz version 14.1.2 (0)
 -->
<!-- Title: tiny&#45;skia&#45;path&#45;v0.11.4 Pages: 1 -->
<svg width="438pt" height="169pt"
 viewBox="0.00 0.00 438.00 169.00" xmlns="http://www.w3.org/2000/svg" xmlns:xlink="http://www.w3.org/1999/xlink">
<g id="graph0" class="graph" transform="scale(1 1) rotate(0) translate(4 164.6)">
<title>tiny&#45;skia&#45;path&#45;v0.11.4</title>
<polygon fill="white" stroke="none" points="-4,4 -4,-164.6 433.56,-164.6 433.56,4 -4,4"/>
<!-- n0 -->
<g id="node1" class="node">
<title>n0</title>
<path fill="#dff3ff" stroke="#1b78a6" d="M210.79,-105.07C210.79,-105.07 161.02,-105.07 161.02,-105.07 155.02,-105.07 149.02,-99.07 149.02,-93.07 149.02,-93.07 149.02,-66.12 149.02,-66.12 149.02,-60.12 155.02,-54.12 161.02,-54.12 161.02,-54.12 210.79,-54.12 210.79,-54.12 216.79,-54.12 222.79,-60.12 222.79,-66.12 222.79,-66.12 222.79,-93.07 222.79,-93.07 222.79,-99.07 216.79,-105.07 210.79,-105.07"/>
<text xml:space="preserve" text-anchor="start" x="154.78" y="-92.97" font-family="Inter,Arial" font-weight="bold" font-size="10.00" fill="#172033">tiny&#45;skia&#45;path</text>
<text xml:space="preserve" text-anchor="start" x="172.4" y="-79.97" font-family="Inter,Arial" font-size="10.00" fill="#172033">0.11.4</text>
<text xml:space="preserve" text-anchor="start" x="160.78" y="-65.88" font-family="Inter,Arial" font-weight="bold" font-size="8.00" fill="#172033">arrayref</text>
<text xml:space="preserve" text-anchor="start" x="190.78" y="-65.88" font-family="Inter,Arial" font-size="8.00" fill="#172033"> 0.3.9</text>
<path fill="none" stroke="#9aa8b8" d="M161.36,-57.72C161.36,-57.72 210.45,-57.72 210.45,-57.72 213.74,-57.72 217.03,-61.02 217.03,-64.31 217.03,-64.31 217.03,-70.89 217.03,-70.89 217.03,-74.18 213.74,-77.47 210.45,-77.47 210.45,-77.47 161.36,-77.47 161.36,-77.47 158.07,-77.47 154.78,-74.18 154.78,-70.89 154.78,-70.89 154.78,-64.31 154.78,-64.31 154.78,-61.02 158.07,-57.72 161.36,-57.72"/>
</g>
<!-- n1 -->
<g id="node2" class="node">
<title>n1</title>
<path fill="#f7f9fb" stroke="#8b9bb0" d="M363.56,-160.6C363.56,-160.6 328.79,-160.6 328.79,-160.6 322.79,-160.6 316.79,-154.6 316.79,-148.6 316.79,-148.6 316.79,-136.6 316.79,-136.6 316.79,-130.6 322.79,-124.6 328.79,-124.6 328.79,-124.6 363.56,-124.6 363.56,-124.6 369.56,-124.6 375.56,-130.6 375.56,-136.6 375.56,-136.6 375.56,-148.6 375.56,-148.6 375.56,-154.6 369.56,-160.6 363.56,-160.6"/>
<text xml:space="preserve" text-anchor="start" x="322.55" y="-144.1" font-family="Inter,Arial" font-weight="bold" font-size="10.00" fill="#172033">strict&#45;num</text>
<text xml:space="preserve" text-anchor="start" x="335.3" y="-134.1" font-family="Inter,Arial" font-size="10.00" fill="#172033">0.1.1</text>
</g>
<!-- n0&#45;&gt;n1 -->
<g id="edge1" class="edge">
<title>n0&#45;&gt;n1</title>
<path fill="none" stroke="#9aa8b8" stroke-width="0.9" d="M223.07,-95.19C235.6,-100.5 249.77,-106.41 262.79,-111.6 278.32,-117.79 295.61,-124.35 310.33,-129.83"/>
<polygon fill="#9aa8b8" stroke="#9aa8b8" stroke-width="0.9" points="309.37,-131.53 315.2,-131.64 310.71,-127.92 309.37,-131.53"/>
</g>
<!-- out0 -->
<g id="node3" class="node">
<title>out0</title>
<polygon fill="#fff8e8" stroke="#d19922" points="387.56,-99.2 298.79,-99.2 298.79,-62 393.56,-62 393.56,-93.2 387.56,-99.2"/>
<polyline fill="none" stroke="#d19922" points="387.56,-99.2 387.56,-93.2"/>
<polyline fill="none" stroke="#d19922" points="393.56,-93.2 387.56,-93.2"/>
<text xml:space="preserve" text-anchor="start" x="304.55" y="-87.1" font-family="Inter,Arial" font-size="10.00" fill="#614000">to libm&#45;v0.2.16.svg</text>
<text xml:space="preserve" text-anchor="start" x="335.67" y="-77.1" font-family="Inter,Arial" font-weight="bold" font-size="10.00" fill="#614000">libm</text>
<text xml:space="preserve" text-anchor="start" x="332.67" y="-67.1" font-family="Inter,Arial" font-size="10.00" fill="#614000">0.2.16</text>
</g>
<!-- n0&#45;&gt;out0 -->
<g id="edge2" class="edge">
<title>n0&#45;&gt;out0</title>
<path fill="none" stroke="#d19922" stroke-width="0.9" stroke-dasharray="5,2" d="M223.22,-79.83C243.57,-79.96 269.32,-80.12 291.92,-80.26"/>
<polygon fill="#d19922" stroke="#d19922" stroke-width="0.9" points="291.63,-82.19 297.15,-80.3 291.66,-78.34 291.63,-82.19"/>
</g>
<!-- out1 -->
<g id="node4" class="node">
<title>out1</title>
<polygon fill="#fff8e8" stroke="#d19922" points="423.56,-37.2 262.79,-37.2 262.79,0 429.56,0 429.56,-31.2 423.56,-37.2"/>
<polyline fill="none" stroke="#d19922" points="423.56,-37.2 423.56,-31.2"/>
<polyline fill="none" stroke="#d19922" points="429.56,-31.2 423.56,-31.2"/>
<text xml:space="preserve" text-anchor="start" x="268.55" y="-25.1" font-family="Inter,Arial" font-size="10.00" fill="#614000">to symphonia&#45;codec&#45;aac&#45;v0.5.5.svg</text>
<text xml:space="preserve" text-anchor="start" x="323.67" y="-15.1" font-family="Inter,Arial" font-weight="bold" font-size="10.00" fill="#614000">bytemuck</text>
<text xml:space="preserve" text-anchor="start" x="332.67" y="-5.1" font-family="Inter,Arial" font-size="10.00" fill="#614000">1.25.0</text>
</g>
<!-- n0&#45;&gt;out1 -->
<g id="edge3" class="edge">
<title>n0&#45;&gt;out1</title>
<path fill="none" stroke="#d19922" stroke-width="0.9" stroke-dasharray="5,2" d="M223.14,-65.13C235.68,-60.16 249.84,-54.6 262.79,-49.6 270.86,-46.49 279.38,-43.24 287.77,-40.06"/>
<polygon fill="#d19922" stroke="#d19922" stroke-width="0.9" points="288.41,-41.88 292.87,-38.13 287.05,-38.28 288.41,-41.88"/>
</g>
<!-- in2 -->
<g id="node5" class="node">
<title>in2</title>
<polygon fill="#eef6ff" stroke="#4b8fc5" points="103.02,-139.2 0,-139.2 0,-82 109.02,-82 109.02,-133.2 103.02,-139.2"/>
<polyline fill="none" stroke="#4b8fc5" points="103.02,-139.2 103.02,-133.2"/>
<polyline fill="none" stroke="#4b8fc5" points="109.02,-133.2 103.02,-133.2"/>
<text xml:space="preserve" text-anchor="start" x="5.76" y="-127.1" font-family="Inter,Arial" font-size="10.00" fill="#123d5c">from usvg&#45;v0.45.1.svg</text>
<text xml:space="preserve" text-anchor="start" x="30.88" y="-117.1" font-family="Inter,Arial" font-weight="bold" font-size="10.00" fill="#123d5c">strict&#45;num</text>
<text xml:space="preserve" text-anchor="start" x="43.63" y="-107.1" font-family="Inter,Arial" font-size="10.00" fill="#123d5c">0.1.1</text>
<text xml:space="preserve" text-anchor="start" x="23.38" y="-97.1" font-family="Inter,Arial" font-weight="bold" font-size="10.00" fill="#123d5c">tiny&#45;skia&#45;path</text>
<text xml:space="preserve" text-anchor="start" x="41.01" y="-87.1" font-family="Inter,Arial" font-size="10.00" fill="#123d5c">0.11.4</text>
</g>
<!-- in2&#45;&gt;n0 -->
<g id="edge5" class="edge">
<title>in2&#45;&gt;n0</title>
<path fill="none" stroke="#4b8fc5" stroke-width="0.9" stroke-dasharray="5,2" d="M109.26,-97.72C120.3,-95.08 131.78,-92.33 142.36,-89.79"/>
<polygon fill="#4b8fc5" stroke="#4b8fc5" stroke-width="0.9" points="142.59,-91.72 147.49,-88.56 141.7,-87.97 142.59,-91.72"/>
</g>
<!-- in2&#45;&gt;n1 -->
<g id="edge4" class="edge">
<title>in2&#45;&gt;n1</title>
<path fill="none" stroke="#4b8fc5" stroke-width="0.9" stroke-dasharray="5,2" d="M109.31,-116.54C167.76,-123 259.45,-133.13 309.56,-138.67"/>
<polygon fill="#4b8fc5" stroke="#4b8fc5" stroke-width="0.9" points="309.31,-140.57 314.99,-139.27 309.73,-136.75 309.31,-140.57"/>
</g>
</g>
</svg>
