<?xml version="1.0" encoding="UTF-8" standalone="no"?>
<!DOCTYPE svg PUBLIC "-//W3C//DTD SVG 1.1//EN"
 "http://www.w3.org/Graphics/SVG/1.1/DTD/svg11.dtd">
<!-- Generated by graphviz version 14.1.2 (0)
 -->
<!-- Title: tiny&#45;skia&#45;path&#45;v0.11.4 Pages: 1 -->
<svg width="493pt" height="193pt"
 viewBox="0.00 0.00 493.00 193.00" xmlns="http://www.w3.org/2000/svg" xmlns:xlink="http://www.w3.org/1999/xlink">
<g id="graph0" class="graph" transform="scale(1 1) rotate(0) translate(4 188.9)">
<title>tiny&#45;skia&#45;path&#45;v0.11.4</title>
<polygon fill="white" stroke="none" points="-4,4 -4,-188.9 488.91,-188.9 488.91,4 -4,4"/>
<!-- n0 -->
<g id="node1" class="node">
<title>n0</title>
<path fill="#dff3ff" stroke="#1b78a6" d="M258.94,-130.78C258.94,-130.78 168.22,-130.78 168.22,-130.78 162.22,-130.78 156.22,-124.78 156.22,-118.78 156.22,-118.78 156.22,-55.62 156.22,-55.62 156.22,-49.62 162.22,-43.62 168.22,-43.62 168.22,-43.62 258.94,-43.62 258.94,-43.62 264.94,-43.62 270.94,-49.62 270.94,-55.62 270.94,-55.62 270.94,-118.78 270.94,-118.78 270.94,-124.78 264.94,-130.78 258.94,-130.78"/>
<text xml:space="preserve" text-anchor="start" x="169.71" y="-112.23" font-family="Inter,Arial" font-weight="bold" font-size="13.00" fill="#172033">tiny&#45;skia&#45;path</text>
<text xml:space="preserve" text-anchor="start" x="197.83" y="-97.17" font-family="Inter,Arial" font-size="12.00" fill="#172033">0.11.4</text>
<text xml:space="preserve" text-anchor="start" x="180.58" y="-69.88" font-family="Inter,Arial" font-weight="bold" font-size="11.00" fill="#172033">arrayref</text>
<text xml:space="preserve" text-anchor="start" x="221.83" y="-69.88" font-family="Inter,Arial" font-size="10.00" fill="#172033"> </text>
<text xml:space="preserve" text-anchor="start" x="224.83" y="-69.88" font-family="Inter,Arial" font-size="10.00" fill="#172033">0.3.9</text>
<path fill="none" stroke="#9aa8b8" d="M182.08,-56.83C182.08,-56.83 245.08,-56.83 245.08,-56.83 250.33,-56.83 255.58,-62.08 255.58,-67.33 255.58,-67.33 255.58,-77.83 255.58,-77.83 255.58,-83.08 250.33,-88.33 245.08,-88.33 245.08,-88.33 182.08,-88.33 182.08,-88.33 176.83,-88.33 171.58,-83.08 171.58,-77.83 171.58,-77.83 171.58,-67.33 171.58,-67.33 171.58,-62.08 176.83,-56.83 182.08,-56.83"/>
</g>
<!-- n1 -->
<g id="node2" class="node">
<title>n1</title>
<path fill="#f7f9fb" stroke="#8b9bb0" d="M427.91,-184.9C427.91,-184.9 367.94,-184.9 367.94,-184.9 361.94,-184.9 355.94,-178.9 355.94,-172.9 355.94,-172.9 355.94,-157.5 355.94,-157.5 355.94,-151.5 361.94,-145.5 367.94,-145.5 367.94,-145.5 427.91,-145.5 427.91,-145.5 433.91,-145.5 439.91,-151.5 439.91,-157.5 439.91,-157.5 439.91,-172.9 439.91,-172.9 439.91,-178.9 433.91,-184.9 427.91,-184.9"/>
<text xml:space="preserve" text-anchor="start" x="365.3" y="-166.35" font-family="Inter,Arial" font-weight="bold" font-size="13.00" fill="#172033">strict&#45;num</text>
<text xml:space="preserve" text-anchor="start" x="384.8" y="-154.3" font-family="Inter,Arial" font-size="12.00" fill="#172033">0.1.1</text>
</g>
<!-- n0&#45;&gt;n1 -->
<g id="edge1" class="edge">
<title>n0&#45;&gt;n1</title>
<path fill="none" stroke="#9aa8b8" stroke-width="7.2" d="M271.28,-111.45C294.62,-121.44 321.5,-132.94 344.39,-142.73"/>
<polygon fill="#9aa8b8" stroke="#9aa8b8" stroke-width="7.2" points="342.98,-145.9 349.4,-144.87 345.71,-139.52 342.98,-145.9"/>
</g>
<!-- out0 -->
<g id="node3" class="node">
<title>out0</title>
<polygon fill="#fff8e8" stroke="#d19922" points="442.91,-113.4 346.94,-113.4 346.94,-69 448.91,-69 448.91,-107.4 442.91,-113.4"/>
<polyline fill="none" stroke="#d19922" points="442.91,-113.4 442.91,-107.4"/>
<polyline fill="none" stroke="#d19922" points="448.91,-107.4 442.91,-107.4"/>
<text xml:space="preserve" text-anchor="start" x="356.3" y="-97.7" font-family="Inter,Arial" font-size="10.00" fill="#614000">to libm&#45;v0.2.16.svg</text>
<text xml:space="preserve" text-anchor="start" x="387.42" y="-87.7" font-family="Inter,Arial" font-weight="bold" font-size="10.00" fill="#614000">libm</text>
<text xml:space="preserve" text-anchor="start" x="384.42" y="-77.7" font-family="Inter,Arial" font-size="10.00" fill="#614000">0.2.16</text>
</g>
<!-- n0&#45;&gt;out0 -->
<g id="edge2" class="edge">
<title>n0&#45;&gt;out0</title>
<path fill="none" stroke="#d19922" stroke-width="7.2" stroke-dasharray="5,2" d="M271.28,-88.44C291.28,-88.88 313.89,-89.38 334.35,-89.83"/>
<polygon fill="#d19922" stroke="#d19922" stroke-width="7.2" points="334.12,-93.29 339.69,-89.94 334.27,-86.36 334.12,-93.29"/>
</g>
<!-- out1 -->
<g id="node4" class="node">
<title>out1</title>
<polygon fill="#fff8e8" stroke="#d19922" points="478.91,-44.4 310.94,-44.4 310.94,0 484.91,0 484.91,-38.4 478.91,-44.4"/>
<polyline fill="none" stroke="#d19922" points="478.91,-44.4 478.91,-38.4"/>
<polyline fill="none" stroke="#d19922" points="484.91,-38.4 478.91,-38.4"/>
<text xml:space="preserve" text-anchor="start" x="320.3" y="-28.7" font-family="Inter,Arial" font-size="10.00" fill="#614000">to symphonia&#45;codec&#45;aac&#45;v0.5.5.svg</text>
<text xml:space="preserve" text-anchor="start" x="375.42" y="-18.7" font-family="Inter,Arial" font-weight="bold" font-size="10.00" fill="#614000">bytemuck</text>
<text xml:space="preserve" text-anchor="start" x="384.42" y="-8.7" font-family="Inter,Arial" font-size="10.00" fill="#614000">1.25.0</text>
</g>
<!-- n0&#45;&gt;out1 -->
<g id="edge3" class="edge">
<title>n0&#45;&gt;out1</title>
<path fill="none" stroke="#d19922" stroke-width="7.2" stroke-dasharray="5,2" d="M271.28,-66.99C287.25,-61.3 304.87,-55.01 321.74,-49"/>
<polygon fill="#d19922" stroke="#d19922" stroke-width="7.2" points="322.89,-52.27 326.91,-47.16 320.56,-45.74 322.89,-52.27"/>
</g>
<!-- in2 -->
<g id="node5" class="node">
<title>in2</title>
<polygon fill="#eef6ff" stroke="#4b8fc5" points="110.22,-160.4 0,-160.4 0,-96 116.22,-96 116.22,-154.4 110.22,-160.4"/>
<polyline fill="none" stroke="#4b8fc5" points="110.22,-160.4 110.22,-154.4"/>
<polyline fill="none" stroke="#4b8fc5" points="116.22,-154.4 110.22,-154.4"/>
<text xml:space="preserve" text-anchor="start" x="9.36" y="-144.7" font-family="Inter,Arial" font-size="10.00" fill="#123d5c">from usvg&#45;v0.45.1.svg</text>
<text xml:space="preserve" text-anchor="start" x="34.49" y="-134.7" font-family="Inter,Arial" font-weight="bold" font-size="10.00" fill="#123d5c">strict&#45;num</text>
<text xml:space="preserve" text-anchor="start" x="47.24" y="-124.7" font-family="Inter,Arial" font-size="10.00" fill="#123d5c">0.1.1</text>
<text xml:space="preserve" text-anchor="start" x="26.99" y="-114.7" font-family="Inter,Arial" font-weight="bold" font-size="10.00" fill="#123d5c">tiny&#45;skia&#45;path</text>
<text xml:space="preserve" text-anchor="start" x="44.61" y="-104.7" font-family="Inter,Arial" font-size="10.00" fill="#123d5c">0.11.4</text>
</g>
<!-- in2&#45;&gt;n0 -->
<g id="edge5" class="edge">
<title>in2&#45;&gt;n0</title>
<path fill="none" stroke="#4b8fc5" stroke-width="7.2" stroke-dasharray="5,2" d="M116.69,-112.82C125.72,-110.4 135.13,-107.89 144.37,-105.42"/>
<polygon fill="#4b8fc5" stroke="#4b8fc5" stroke-width="7.2" points="145,-108.84 149.42,-104.07 143.22,-102.14 145,-108.84"/>
</g>
<!-- in2&#45;&gt;n1 -->
<g id="edge4" class="edge">
<title>in2&#45;&gt;n1</title>
<path fill="none" stroke="#4b8fc5" stroke-width="7.2" stroke-dasharray="5,2" d="M116.54,-137.67C129.57,-139.66 143.35,-141.62 156.22,-143.2 220.4,-151.08 294.52,-157.45 343.37,-161.26"/>
<polygon fill="#4b8fc5" stroke="#4b8fc5" stroke-width="7.2" points="343.04,-164.71 348.79,-161.68 343.58,-157.8 343.04,-164.71"/>
</g>
</g>
</svg>
