<?xml version="1.0" encoding="UTF-8" standalone="no"?>
<!DOCTYPE svg PUBLIC "-//W3C//DTD SVG 1.1//EN"
 "http://www.w3.org/Graphics/SVG/1.1/DTD/svg11.dtd">
<!-- Generated by graphviz version 14.1.2 (0)
 -->
<!-- Title: tower&#45;v0.5.3 Pages: 1 -->
<svg width="324pt" height="197pt"
 viewBox="0.00 0.00 324.00 197.00" xmlns="http://www.w3.org/2000/svg" xmlns:xlink="http://www.w3.org/1999/xlink">
<g id="graph0" class="graph" transform="scale(1 1) rotate(0) translate(4 192.65)">
<title>tower&#45;v0.5.3</title>
<polygon fill="white" stroke="none" points="-4,4 -4,-192.65 319.94,-192.65 319.94,4 -4,4"/>
<!-- n0 -->
<g id="node1" class="node">
<title>n0</title>
<path fill="#dff3ff" stroke="#1b78a6" d="M147.72,-188.65C147.72,-188.65 12,-188.65 12,-188.65 6,-188.65 0,-182.65 0,-176.65 0,-176.65 0,-12 0,-12 0,-6 6,0 12,0 12,0 147.72,0 147.72,0 153.72,0 159.72,-6 159.72,-12 159.72,-12 159.72,-176.65 159.72,-176.65 159.72,-182.65 153.72,-188.65 147.72,-188.65"/>
<text xml:space="preserve" text-anchor="start" x="62.24" y="-170.1" font-family="Inter,Arial" font-weight="bold" font-size="13.00" fill="#172033">tower</text>
<text xml:space="preserve" text-anchor="start" x="66.74" y="-155.05" font-family="Inter,Arial" font-size="12.00" fill="#172033">0.5.3</text>
<text xml:space="preserve" text-anchor="start" x="32.99" y="-141.75" font-family="Inter,Arial" font-size="11.00" fill="#172033">/vendor/tower&#45;0.5.3</text>
<text xml:space="preserve" text-anchor="start" x="30.74" y="-114.25" font-family="Inter,Arial" font-weight="bold" font-size="11.00" fill="#172033">sync_wrapper</text>
<text xml:space="preserve" text-anchor="start" x="104.24" y="-114.25" font-family="Inter,Arial" font-size="10.00" fill="#172033"> </text>
<text xml:space="preserve" text-anchor="start" x="107.24" y="-114.25" font-family="Inter,Arial" font-size="10.00" fill="#172033">1.0.2</text>
<path fill="none" stroke="#9aa8b8" d="M25.86,-101.2C25.86,-101.2 133.86,-101.2 133.86,-101.2 139.11,-101.2 144.36,-106.45 144.36,-111.7 144.36,-111.7 144.36,-122.2 144.36,-122.2 144.36,-127.45 139.11,-132.7 133.86,-132.7 133.86,-132.7 25.86,-132.7 25.86,-132.7 20.61,-132.7 15.36,-127.45 15.36,-122.2 15.36,-122.2 15.36,-111.7 15.36,-111.7 15.36,-106.45 20.61,-101.2 25.86,-101.2"/>
<text xml:space="preserve" text-anchor="start" x="38.24" y="-76.75" font-family="Inter,Arial" font-weight="bold" font-size="11.00" fill="#172033">tower&#45;layer</text>
<text xml:space="preserve" text-anchor="start" x="96.74" y="-76.75" font-family="Inter,Arial" font-size="10.00" fill="#172033"> </text>
<text xml:space="preserve" text-anchor="start" x="99.74" y="-76.75" font-family="Inter,Arial" font-size="10.00" fill="#172033">0.3.3</text>
<text xml:space="preserve" text-anchor="start" x="28.86" y="-67.65" font-family="Inter,Arial" font-size="9.00" fill="#172033">/vendor/tower&#45;layer&#45;0.3.3</text>
<path fill="none" stroke="#9aa8b8" d="M27.36,-57.2C27.36,-57.2 132.36,-57.2 132.36,-57.2 138.36,-57.2 144.36,-63.2 144.36,-69.2 144.36,-69.2 144.36,-83.2 144.36,-83.2 144.36,-89.2 138.36,-95.2 132.36,-95.2 132.36,-95.2 27.36,-95.2 27.36,-95.2 21.36,-95.2 15.36,-89.2 15.36,-83.2 15.36,-83.2 15.36,-69.2 15.36,-69.2 15.36,-63.2 21.36,-57.2 27.36,-57.2"/>
<text xml:space="preserve" text-anchor="start" x="32.24" y="-32.75" font-family="Inter,Arial" font-weight="bold" font-size="11.00" fill="#172033">tower&#45;service</text>
<text xml:space="preserve" text-anchor="start" x="102.74" y="-32.75" font-family="Inter,Arial" font-size="10.00" fill="#172033"> </text>
<text xml:space="preserve" text-anchor="start" x="105.74" y="-32.75" font-family="Inter,Arial" font-size="10.00" fill="#172033">0.3.3</text>
<text xml:space="preserve" text-anchor="start" x="24.36" y="-23.65" font-family="Inter,Arial" font-size="9.00" fill="#172033">/vendor/tower&#45;service&#45;0.3.3</text>
<path fill="none" stroke="#9aa8b8" d="M27.36,-13.2C27.36,-13.2 132.36,-13.2 132.36,-13.2 138.36,-13.2 144.36,-19.2 144.36,-25.2 144.36,-25.2 144.36,-39.2 144.36,-39.2 144.36,-45.2 138.36,-51.2 132.36,-51.2 132.36,-51.2 27.36,-51.2 27.36,-51.2 21.36,-51.2 15.36,-45.2 15.36,-39.2 15.36,-39.2 15.36,-25.2 15.36,-25.2 15.36,-19.2 21.36,-13.2 27.36,-13.2"/>
</g>
<!-- out0 -->
<g id="node2" class="node">
<title>out0</title>
<polygon fill="#fff8e8" stroke="#d19922" points="309.94,-136.53 199.72,-136.53 199.72,-52.12 315.94,-52.12 315.94,-130.53 309.94,-136.53"/>
<polyline fill="none" stroke="#d19922" points="309.94,-136.53 309.94,-130.53"/>
<polyline fill="none" stroke="#d19922" points="315.94,-130.53 309.94,-130.53"/>
<text xml:space="preserve" text-anchor="start" x="209.08" y="-120.82" font-family="Inter,Arial" font-size="10.00" fill="#614000">to crab&#45;usb&#45;v0.9.1.svg</text>
<text xml:space="preserve" text-anchor="start" x="230.08" y="-110.82" font-family="Inter,Arial" font-weight="bold" font-size="10.00" fill="#614000">futures&#45;core</text>
<text xml:space="preserve" text-anchor="start" x="244.33" y="-100.82" font-family="Inter,Arial" font-size="10.00" fill="#614000">0.3.32</text>
<text xml:space="preserve" text-anchor="start" x="232.7" y="-90.82" font-family="Inter,Arial" font-weight="bold" font-size="10.00" fill="#614000">futures&#45;util</text>
<text xml:space="preserve" text-anchor="start" x="244.33" y="-80.82" font-family="Inter,Arial" font-size="10.00" fill="#614000">0.3.32</text>
<text xml:space="preserve" text-anchor="start" x="224.08" y="-70.82" font-family="Inter,Arial" font-weight="bold" font-size="10.00" fill="#614000">pin&#45;project&#45;lite</text>
<text xml:space="preserve" text-anchor="start" x="244.33" y="-60.82" font-family="Inter,Arial" font-size="10.00" fill="#614000">0.2.17</text>
</g>
<!-- n0&#45;&gt;out0 -->
<g id="edge1" class="edge">
<title>n0&#45;&gt;out0</title>
<path fill="none" stroke="#d19922" stroke-width="0.9" stroke-dasharray="5,2" d="M160.09,-94.33C170.94,-94.33 181.97,-94.33 192.51,-94.33"/>
<polygon fill="#d19922" stroke="#d19922" stroke-width="0.9" points="192.5,-96.25 198,-94.33 192.5,-92.4 192.5,-96.25"/>
</g>
</g>
</svg>
