<?xml version="1.0" encoding="UTF-8" standalone="no"?>
<!DOCTYPE svg PUBLIC "-//W3C//DTD SVG 1.1//EN"
 "http://www.w3.org/Graphics/SVG/1.1/DTD/svg11.dtd">
<!-- Generated by graphviz version 14.1.2 (0)
 -->
<!-- Title: tower&#45;v0.5.3 Pages: 1 -->
<svg width="277pt" height="123pt"
 viewBox="0.00 0.00 277.00 123.00" xmlns="http://www.w3.org/2000/svg" xmlns:xlink="http://www.w3.org/1999/xlink">
<g id="graph0" class="graph" transform="scale(1 1) rotate(0) translate(4 118.95)">
<title>tower&#45;v0.5.3</title>
<polygon fill="white" stroke="none" points="-4,4 -4,-118.95 272.79,-118.95 272.79,4 -4,4"/>
<!-- n0 -->
<g id="node1" class="node">
<title>n0</title>
<path fill="#dff3ff" stroke="#1b78a6" d="M107.77,-114.95C107.77,-114.95 12,-114.95 12,-114.95 6,-114.95 0,-108.95 0,-102.95 0,-102.95 0,-12 0,-12 0,-6 6,0 12,0 12,0 107.77,0 107.77,0 113.77,0 119.77,-6 119.77,-12 119.77,-12 119.77,-102.95 119.77,-102.95 119.77,-108.95 113.77,-114.95 107.77,-114.95"/>
<text xml:space="preserve" text-anchor="start" x="47.13" y="-102.85" font-family="Inter,Arial" font-weight="bold" font-size="10.00" fill="#172033">tower</text>
<text xml:space="preserve" text-anchor="start" x="49.01" y="-89.85" font-family="Inter,Arial" font-size="10.00" fill="#172033">0.5.3</text>
<text xml:space="preserve" text-anchor="start" x="17.88" y="-77.85" font-family="Inter,Arial" font-size="10.00" fill="#172033">/vendor/tower&#45;0.5.3</text>
<text xml:space="preserve" text-anchor="start" x="22.38" y="-63.75" font-family="Inter,Arial" font-weight="bold" font-size="8.00" fill="#172033">sync_wrapper</text>
<text xml:space="preserve" text-anchor="start" x="77.13" y="-63.75" font-family="Inter,Arial" font-size="8.00" fill="#172033"> 1.0.2</text>
<path fill="none" stroke="#9aa8b8" d="M12.34,-55.6C12.34,-55.6 107.43,-55.6 107.43,-55.6 110.72,-55.6 114.01,-58.89 114.01,-62.18 114.01,-62.18 114.01,-68.77 114.01,-68.77 114.01,-72.06 110.72,-75.35 107.43,-75.35 107.43,-75.35 12.34,-75.35 12.34,-75.35 9.05,-75.35 5.76,-72.06 5.76,-68.77 5.76,-68.77 5.76,-62.18 5.76,-62.18 5.76,-58.89 9.05,-55.6 12.34,-55.6"/>
<text xml:space="preserve" text-anchor="start" x="28.01" y="-44" font-family="Inter,Arial" font-weight="bold" font-size="8.00" fill="#172033">tower&#45;layer</text>
<text xml:space="preserve" text-anchor="start" x="71.51" y="-44" font-family="Inter,Arial" font-size="8.00" fill="#172033"> 0.3.3</text>
<text xml:space="preserve" text-anchor="start" x="14.51" y="-36" font-family="Inter,Arial" font-size="8.00" fill="#172033">/vendor/tower&#45;layer&#45;0.3.3</text>
<path fill="none" stroke="#9aa8b8" d="M14.43,-29.6C14.43,-29.6 105.34,-29.6 105.34,-29.6 109.68,-29.6 114.01,-33.93 114.01,-38.27 114.01,-38.27 114.01,-46.93 114.01,-46.93 114.01,-51.27 109.68,-55.6 105.34,-55.6 105.34,-55.6 14.43,-55.6 14.43,-55.6 10.09,-55.6 5.76,-51.27 5.76,-46.93 5.76,-46.93 5.76,-38.27 5.76,-38.27 5.76,-33.93 10.09,-29.6 14.43,-29.6"/>
<text xml:space="preserve" text-anchor="start" x="23.51" y="-18" font-family="Inter,Arial" font-weight="bold" font-size="8.00" fill="#172033">tower&#45;service</text>
<text xml:space="preserve" text-anchor="start" x="76.01" y="-18" font-family="Inter,Arial" font-size="8.00" fill="#172033"> 0.3.3</text>
<text xml:space="preserve" text-anchor="start" x="10.76" y="-10" font-family="Inter,Arial" font-size="8.00" fill="#172033">/vendor/tower&#45;service&#45;0.3.3</text>
<path fill="none" stroke="#9aa8b8" d="M14.43,-3.6C14.43,-3.6 105.34,-3.6 105.34,-3.6 109.68,-3.6 114.01,-7.93 114.01,-12.27 114.01,-12.27 114.01,-20.93 114.01,-20.93 114.01,-25.27 109.68,-29.6 105.34,-29.6 105.34,-29.6 14.43,-29.6 14.43,-29.6 10.09,-29.6 5.76,-25.27 5.76,-20.93 5.76,-20.93 5.76,-12.27 5.76,-12.27 5.76,-7.93 10.09,-3.6 14.43,-3.6"/>
</g>
<!-- out0 -->
<g id="node2" class="node">
<title>out0</title>
<polygon fill="#fff8e8" stroke="#d19922" points="262.79,-96.08 159.77,-96.08 159.77,-18.88 268.79,-18.88 268.79,-90.08 262.79,-96.08"/>
<polyline fill="none" stroke="#d19922" points="262.79,-96.08 262.79,-90.08"/>
<polyline fill="none" stroke="#d19922" points="268.79,-90.08 262.79,-90.08"/>
<text xml:space="preserve" text-anchor="start" x="165.53" y="-83.97" font-family="Inter,Arial" font-size="10.00" fill="#614000">to crab&#45;usb&#45;v0.9.1.svg</text>
<text xml:space="preserve" text-anchor="start" x="186.53" y="-73.97" font-family="Inter,Arial" font-weight="bold" font-size="10.00" fill="#614000">futures&#45;core</text>
<text xml:space="preserve" text-anchor="start" x="200.78" y="-63.97" font-family="Inter,Arial" font-size="10.00" fill="#614000">0.3.32</text>
<text xml:space="preserve" text-anchor="start" x="189.16" y="-53.97" font-family="Inter,Arial" font-weight="bold" font-size="10.00" fill="#614000">futures&#45;util</text>
<text xml:space="preserve" text-anchor="start" x="200.78" y="-43.97" font-family="Inter,Arial" font-size="10.00" fill="#614000">0.3.32</text>
<text xml:space="preserve" text-anchor="start" x="180.53" y="-33.97" font-family="Inter,Arial" font-weight="bold" font-size="10.00" fill="#614000">pin&#45;project&#45;lite</text>
<text xml:space="preserve" text-anchor="start" x="200.78" y="-23.97" font-family="Inter,Arial" font-size="10.00" fill="#614000">0.2.17</text>
</g>
<!-- n0&#45;&gt;out0 -->
<g id="edge1" class="edge">
<title>n0&#45;&gt;out0</title>
<path fill="none" stroke="#d19922" stroke-width="0.9" stroke-dasharray="5,2" d="M120.24,-57.48C130.9,-57.48 142.02,-57.48 152.71,-57.48"/>
<polygon fill="#d19922" stroke="#d19922" stroke-width="0.9" points="152.44,-59.4 157.94,-57.48 152.44,-55.55 152.44,-59.4"/>
</g>
</g>
</svg>
