<?xml version="1.0" encoding="UTF-8" standalone="no"?>
<!DOCTYPE svg PUBLIC "-//W3C//DTD SVG 1.1//EN"
 "http://www.w3.org/Graphics/SVG/1.1/DTD/svg11.dtd">
<!-- Generated by graphviz version 14.1.2 (0)
 -->
<!-- Title: trueos&#45;math&#45;v0.1.0 Pages: 1 -->
<svg width="405pt" height="55pt"
 viewBox="0.00 0.00 405.00 55.00" xmlns="http://www.w3.org/2000/svg" xmlns:xlink="http://www.w3.org/1999/xlink">
<g id="graph0" class="graph" transform="scale(1 1) rotate(0) translate(4 51.2)">
<title>trueos&#45;math&#45;v0.1.0</title>
<polygon fill="white" stroke="none" points="-4,4 -4,-51.2 400.56,-51.2 400.56,4 -4,4"/>
<!-- n0 -->
<g id="node1" class="node">
<title>n0</title>
<path fill="#dff3ff" stroke="#1b78a6" d="M249.79,-42.2C249.79,-42.2 177.52,-42.2 177.52,-42.2 171.52,-42.2 165.52,-36.2 165.52,-30.2 165.52,-30.2 165.52,-17 165.52,-17 165.52,-11 171.52,-5 177.52,-5 177.52,-5 249.79,-5 249.79,-5 255.79,-5 261.79,-11 261.79,-17 261.79,-17 261.79,-30.2 261.79,-30.2 261.79,-36.2 255.79,-42.2 249.79,-42.2"/>
<text xml:space="preserve" text-anchor="start" x="185.9" y="-30.1" font-family="Inter,Arial" font-weight="bold" font-size="10.00" fill="#172033">trueos&#45;math</text>
<text xml:space="preserve" text-anchor="start" x="202.78" y="-20.1" font-family="Inter,Arial" font-size="10.00" fill="#172033">0.1.0</text>
<text xml:space="preserve" text-anchor="start" x="171.28" y="-10.1" font-family="Inter,Arial" font-size="10.00" fill="#172033">/crates/trueos&#45;math</text>
</g>
<!-- out0 -->
<g id="node2" class="node">
<title>out0</title>
<polygon fill="#fff8e8" stroke="#d19922" points="390.56,-42.2 301.79,-42.2 301.79,-5 396.56,-5 396.56,-36.2 390.56,-42.2"/>
<polyline fill="none" stroke="#d19922" points="390.56,-42.2 390.56,-36.2"/>
<polyline fill="none" stroke="#d19922" points="396.56,-36.2 390.56,-36.2"/>
<text xml:space="preserve" text-anchor="start" x="307.55" y="-30.1" font-family="Inter,Arial" font-size="10.00" fill="#614000">to libm&#45;v0.2.16.svg</text>
<text xml:space="preserve" text-anchor="start" x="338.67" y="-20.1" font-family="Inter,Arial" font-weight="bold" font-size="10.00" fill="#614000">libm</text>
<text xml:space="preserve" text-anchor="start" x="335.67" y="-10.1" font-family="Inter,Arial" font-size="10.00" fill="#614000">0.2.16</text>
</g>
<!-- n0&#45;&gt;out0 -->
<g id="edge1" class="edge">
<title>n0&#45;&gt;out0</title>
<path fill="none" stroke="#d19922" stroke-width="0.9" stroke-dasharray="5,2" d="M262.11,-23.6C272.66,-23.6 283.91,-23.6 294.69,-23.6"/>
<polygon fill="#d19922" stroke="#d19922" stroke-width="0.9" points="294.46,-25.53 299.96,-23.6 294.46,-21.68 294.46,-25.53"/>
</g>
<!-- in1 -->
<g id="node3" class="node">
<title>in1</title>
<polygon fill="#eef6ff" stroke="#4b8fc5" points="119.52,-47.2 0,-47.2 0,0 125.52,0 125.52,-41.2 119.52,-47.2"/>
<polyline fill="none" stroke="#4b8fc5" points="119.52,-47.2 119.52,-41.2"/>
<polyline fill="none" stroke="#4b8fc5" points="125.52,-41.2 119.52,-41.2"/>
<text xml:space="preserve" text-anchor="start" x="5.76" y="-35.1" font-family="Inter,Arial" font-size="10.00" fill="#123d5c">from trueos&#45;qjs&#45;v0.1.0.svg</text>
<text xml:space="preserve" text-anchor="start" x="35.01" y="-25.1" font-family="Inter,Arial" font-weight="bold" font-size="10.00" fill="#123d5c">trueos&#45;math</text>
<text xml:space="preserve" text-anchor="start" x="51.88" y="-15.1" font-family="Inter,Arial" font-size="10.00" fill="#123d5c">0.1.0</text>
<text xml:space="preserve" text-anchor="start" x="20.38" y="-5.1" font-family="Inter,Arial" font-size="10.00" fill="#123d5c">/crates/trueos&#45;math</text>
</g>
<!-- in1&#45;&gt;n0 -->
<g id="edge2" class="edge">
<title>in1&#45;&gt;n0</title>
<path fill="none" stroke="#4b8fc5" stroke-width="0.9" stroke-dasharray="5,2" d="M125.61,-23.6C136.6,-23.6 147.96,-23.6 158.7,-23.6"/>
<polygon fill="#4b8fc5" stroke="#4b8fc5" stroke-width="0.9" points="158.44,-25.53 163.94,-23.6 158.44,-21.68 158.44,-25.53"/>
</g>
</g>
</svg>
