<?xml version="1.0" encoding="UTF-8" standalone="no"?>
<!DOCTYPE svg PUBLIC "-//W3C//DTD SVG 1.1//EN"
 "http://www.w3.org/Graphics/SVG/1.1/DTD/svg11.dtd">
<!-- Generated by graphviz version 14.1.2 (0)
 -->
<!-- Title: trueos&#45;qjs&#45;v0.1.0 Pages: 1 -->
<svg width="494pt" height="1423pt"
 viewBox="0.00 0.00 494.00 1423.00" xmlns="http://www.w3.org/2000/svg" xmlns:xlink="http://www.w3.org/1999/xlink">
<g id="graph0" class="graph" transform="scale(1 1) rotate(0) translate(4 1418.9)">
<title>trueos&#45;qjs&#45;v0.1.0</title>
<polygon fill="white" stroke="none" points="-4,4 -4,-1418.9 489.66,-1418.9 489.66,4 -4,4"/>
<!-- n0 -->
<g id="node1" class="node">
<title>n0</title>
<path fill="#dff3ff" stroke="#1b78a6" d="M102.72,-467.4C102.72,-467.4 25.5,-467.4 25.5,-467.4 19.5,-467.4 13.5,-461.4 13.5,-455.4 13.5,-455.4 13.5,-429 13.5,-429 13.5,-423 19.5,-417 25.5,-417 25.5,-417 102.72,-417 102.72,-417 108.72,-417 114.72,-423 114.72,-429 114.72,-429 114.72,-455.4 114.72,-455.4 114.72,-461.4 108.72,-467.4 102.72,-467.4"/>
<text xml:space="preserve" text-anchor="start" x="31.49" y="-448.85" font-family="Inter,Arial" font-weight="bold" font-size="13.00" fill="#172033">trueos&#45;qjs</text>
<text xml:space="preserve" text-anchor="start" x="50.99" y="-436.8" font-family="Inter,Arial" font-size="12.00" fill="#172033">0.1.0</text>
<text xml:space="preserve" text-anchor="start" x="22.86" y="-425.75" font-family="Inter,Arial" font-size="11.00" fill="#172033">/crates/trueos&#45;qjs</text>
</g>
<!-- n1 -->
<g id="node2" class="node">
<title>n1</title>
<path fill="#f7f9fb" stroke="#8b9bb0" d="M318.94,-944.53C318.94,-944.53 187.72,-944.53 187.72,-944.53 181.72,-944.53 175.72,-938.53 175.72,-932.53 175.72,-932.53 175.72,-831.88 175.72,-831.88 175.72,-825.88 181.72,-819.88 187.72,-819.88 187.72,-819.88 318.94,-819.88 318.94,-819.88 324.94,-819.88 330.94,-825.88 330.94,-831.88 330.94,-831.88 330.94,-932.53 330.94,-932.53 330.94,-938.53 324.94,-944.53 318.94,-944.53"/>
<text xml:space="preserve" text-anchor="start" x="245.83" y="-925.98" font-family="Inter,Arial" font-weight="bold" font-size="13.00" fill="#172033">cc</text>
<text xml:space="preserve" text-anchor="start" x="236.83" y="-910.93" font-family="Inter,Arial" font-size="12.00" fill="#172033">1.2.62</text>
<text xml:space="preserve" text-anchor="start" x="200.08" y="-883.62" font-family="Inter,Arial" font-weight="bold" font-size="11.00" fill="#172033">find&#45;msvc&#45;tools</text>
<text xml:space="preserve" text-anchor="start" x="281.83" y="-883.62" font-family="Inter,Arial" font-size="10.00" fill="#172033"> </text>
<text xml:space="preserve" text-anchor="start" x="284.83" y="-883.62" font-family="Inter,Arial" font-size="10.00" fill="#172033">0.1.9</text>
<path fill="none" stroke="#9aa8b8" d="M201.58,-870.58C201.58,-870.58 305.08,-870.58 305.08,-870.58 310.33,-870.58 315.58,-875.83 315.58,-881.08 315.58,-881.08 315.58,-891.58 315.58,-891.58 315.58,-896.83 310.33,-902.08 305.08,-902.08 305.08,-902.08 201.58,-902.08 201.58,-902.08 196.33,-902.08 191.08,-896.83 191.08,-891.58 191.08,-891.58 191.08,-881.08 191.08,-881.08 191.08,-875.83 196.33,-870.58 201.58,-870.58"/>
<text xml:space="preserve" text-anchor="start" x="227.08" y="-846.12" font-family="Inter,Arial" font-weight="bold" font-size="11.00" fill="#172033">shlex</text>
<text xml:space="preserve" text-anchor="start" x="254.83" y="-846.12" font-family="Inter,Arial" font-size="10.00" fill="#172033"> </text>
<text xml:space="preserve" text-anchor="start" x="257.83" y="-846.12" font-family="Inter,Arial" font-size="10.00" fill="#172033">1.3.0</text>
<path fill="none" stroke="#9aa8b8" d="M201.58,-833.08C201.58,-833.08 305.08,-833.08 305.08,-833.08 310.33,-833.08 315.58,-838.33 315.58,-843.58 315.58,-843.58 315.58,-854.08 315.58,-854.08 315.58,-859.33 310.33,-864.58 305.08,-864.58 305.08,-864.58 201.58,-864.58 201.58,-864.58 196.33,-864.58 191.08,-859.33 191.08,-854.08 191.08,-854.08 191.08,-843.58 191.08,-843.58 191.08,-838.33 196.33,-833.08 201.58,-833.08"/>
</g>
<!-- n0&#45;&gt;n1 -->
<g id="edge2" class="edge">
<title>n0&#45;&gt;n1</title>
<path fill="none" stroke="#9aa8b8" stroke-width="0.9" d="M67.38,-467.62C73.92,-529.96 97.16,-693.59 168.22,-807.2 169.74,-809.63 171.36,-812.02 173.06,-814.38"/>
<polygon fill="#9aa8b8" stroke="#9aa8b8" stroke-width="0.9" points="171.5,-815.5 176.36,-818.72 174.57,-813.18 171.5,-815.5"/>
</g>
<!-- out1 -->
<g id="node11" class="node">
<title>out1</title>
<polygon fill="#fff8e8" stroke="#d19922" points="329.44,-794.4 171.22,-794.4 171.22,-740 335.44,-740 335.44,-788.4 329.44,-794.4"/>
<polyline fill="none" stroke="#d19922" points="329.44,-794.4 329.44,-788.4"/>
<polyline fill="none" stroke="#d19922" points="335.44,-788.4 329.44,-788.4"/>
<text xml:space="preserve" text-anchor="start" x="180.58" y="-778.7" font-family="Inter,Arial" font-size="10.00" fill="#614000">to embassy&#45;executor&#45;v0.10.0.svg</text>
<text xml:space="preserve" text-anchor="start" x="211.33" y="-768.7" font-family="Inter,Arial" font-weight="bold" font-size="10.00" fill="#614000">embassy&#45;executor</text>
<text xml:space="preserve" text-anchor="start" x="239.83" y="-758.7" font-family="Inter,Arial" font-size="10.00" fill="#614000">0.10.0</text>
<text xml:space="preserve" text-anchor="start" x="203.08" y="-748.7" font-family="Inter,Arial" font-size="10.00" fill="#614000">/crates/trueos&#45;executor</text>
</g>
<!-- n0&#45;&gt;out1 -->
<g id="edge4" class="edge">
<title>n0&#45;&gt;out1</title>
<path fill="none" stroke="#d19922" stroke-width="0.9" stroke-dasharray="5,2" d="M67.72,-467.72C74.56,-522.19 97.65,-651.12 168.22,-728.2 170.67,-730.87 173.33,-733.37 176.16,-735.72"/>
<polygon fill="#d19922" stroke="#d19922" stroke-width="0.9" points="174.8,-737.1 180.33,-738.93 177.15,-734.05 174.8,-737.1"/>
</g>
<!-- out2 -->
<g id="node12" class="node">
<title>out2</title>
<polygon fill="#fff8e8" stroke="#d19922" points="318.56,-715.4 182.09,-715.4 182.09,-671 324.56,-671 324.56,-709.4 318.56,-715.4"/>
<polyline fill="none" stroke="#d19922" points="318.56,-715.4 318.56,-709.4"/>
<polyline fill="none" stroke="#d19922" points="324.56,-709.4 318.56,-709.4"/>
<text xml:space="preserve" text-anchor="start" x="191.45" y="-699.7" font-family="Inter,Arial" font-size="10.00" fill="#614000">to embassy&#45;sync&#45;v0.8.0.svg</text>
<text xml:space="preserve" text-anchor="start" x="220.33" y="-689.7" font-family="Inter,Arial" font-weight="bold" font-size="10.00" fill="#614000">embassy&#45;sync</text>
<text xml:space="preserve" text-anchor="start" x="242.45" y="-679.7" font-family="Inter,Arial" font-size="10.00" fill="#614000">0.8.0</text>
</g>
<!-- n0&#45;&gt;out2 -->
<g id="edge5" class="edge">
<title>n0&#45;&gt;out2</title>
<path fill="none" stroke="#d19922" stroke-width="0.9" stroke-dasharray="5,2" d="M70.72,-467.55C81.83,-512.13 110.69,-604.99 168.22,-659.2 171.23,-662.04 174.51,-664.65 177.96,-667.05"/>
<polygon fill="#d19922" stroke="#d19922" stroke-width="0.9" points="176.73,-668.54 182.39,-669.92 178.82,-665.31 176.73,-668.54"/>
</g>
<!-- out3 -->
<g id="node13" class="node">
<title>out3</title>
<polygon fill="#fff8e8" stroke="#d19922" points="330.94,-646.4 169.72,-646.4 169.72,-602 336.94,-602 336.94,-640.4 330.94,-646.4"/>
<polyline fill="none" stroke="#d19922" points="330.94,-646.4 330.94,-640.4"/>
<polyline fill="none" stroke="#d19922" points="336.94,-640.4 330.94,-640.4"/>
<text xml:space="preserve" text-anchor="start" x="179.08" y="-630.7" font-family="Inter,Arial" font-size="10.00" fill="#614000">to embassy&#45;time&#45;driver&#45;v0.2.2.svg</text>
<text xml:space="preserve" text-anchor="start" x="206.08" y="-620.7" font-family="Inter,Arial" font-weight="bold" font-size="10.00" fill="#614000">embassy&#45;time&#45;driver</text>
<text xml:space="preserve" text-anchor="start" x="242.45" y="-610.7" font-family="Inter,Arial" font-size="10.00" fill="#614000">0.2.2</text>
</g>
<!-- n0&#45;&gt;out3 -->
<g id="edge6" class="edge">
<title>n0&#45;&gt;out3</title>
<path fill="none" stroke="#d19922" stroke-width="0.9" stroke-dasharray="5,2" d="M77.1,-467.85C93.48,-500.39 125.74,-556.32 168.22,-590.2 171.86,-593.1 175.78,-595.79 179.87,-598.27"/>
<polygon fill="#d19922" stroke="#d19922" stroke-width="0.9" points="178.63,-599.78 184.36,-600.85 180.55,-596.44 178.63,-599.78"/>
</g>
<!-- out4 -->
<g id="node14" class="node">
<title>out4</title>
<polygon fill="#fff8e8" stroke="#d19922" points="332.44,-577.4 168.22,-577.4 168.22,-523 338.44,-523 338.44,-571.4 332.44,-577.4"/>
<polyline fill="none" stroke="#d19922" points="332.44,-577.4 332.44,-571.4"/>
<polyline fill="none" stroke="#d19922" points="338.44,-571.4 332.44,-571.4"/>
<text xml:space="preserve" text-anchor="start" x="192.58" y="-561.7" font-family="Inter,Arial" font-size="10.00" fill="#614000">to embassy&#45;time&#45;v0.5.1.svg</text>
<text xml:space="preserve" text-anchor="start" x="221.08" y="-551.7" font-family="Inter,Arial" font-weight="bold" font-size="10.00" fill="#614000">embassy&#45;time</text>
<text xml:space="preserve" text-anchor="start" x="242.45" y="-541.7" font-family="Inter,Arial" font-size="10.00" fill="#614000">0.5.1</text>
<text xml:space="preserve" text-anchor="start" x="177.58" y="-531.7" font-family="Inter,Arial" font-size="10.00" fill="#614000">/vendor/embassy&#45;time&#45;0.5.1&#45;trueos</text>
</g>
<!-- n0&#45;&gt;out4 -->
<g id="edge7" class="edge">
<title>n0&#45;&gt;out4</title>
<path fill="none" stroke="#d19922" stroke-width="0.9" stroke-dasharray="5,2" d="M100.51,-467.88C120.02,-481.52 144.94,-498.12 168.22,-511.2 173.27,-514.04 178.56,-516.85 183.93,-519.58"/>
<polygon fill="#d19922" stroke="#d19922" stroke-width="0.9" points="182.78,-521.16 188.55,-521.91 184.5,-517.72 182.78,-521.16"/>
</g>
<!-- out6 -->
<g id="node16" class="node">
<title>out6</title>
<polygon fill="#fff8e8" stroke="#d19922" points="298.31,-498.4 202.34,-498.4 202.34,-454 304.31,-454 304.31,-492.4 298.31,-498.4"/>
<polyline fill="none" stroke="#d19922" points="298.31,-498.4 298.31,-492.4"/>
<polyline fill="none" stroke="#d19922" points="304.31,-492.4 298.31,-492.4"/>
<text xml:space="preserve" text-anchor="start" x="211.7" y="-482.7" font-family="Inter,Arial" font-size="10.00" fill="#614000">to libm&#45;v0.2.16.svg</text>
<text xml:space="preserve" text-anchor="start" x="242.83" y="-472.7" font-family="Inter,Arial" font-weight="bold" font-size="10.00" fill="#614000">libm</text>
<text xml:space="preserve" text-anchor="start" x="239.83" y="-462.7" font-family="Inter,Arial" font-size="10.00" fill="#614000">0.2.16</text>
</g>
<!-- n0&#45;&gt;out6 -->
<g id="edge9" class="edge">
<title>n0&#45;&gt;out6</title>
<path fill="none" stroke="#d19922" stroke-width="0.9" stroke-dasharray="5,2" d="M114.79,-451.22C139.66,-455.74 169.87,-461.23 195.64,-465.91"/>
<polygon fill="#d19922" stroke="#d19922" stroke-width="0.9" points="195,-467.74 200.75,-466.83 195.68,-463.96 195,-467.74"/>
</g>
<!-- out8 -->
<g id="node18" class="node">
<title>out8</title>
<polygon fill="#fff8e8" stroke="#d19922" points="305.44,-429.4 195.22,-429.4 195.22,-385 311.44,-385 311.44,-423.4 305.44,-429.4"/>
<polyline fill="none" stroke="#d19922" points="305.44,-429.4 305.44,-423.4"/>
<polyline fill="none" stroke="#d19922" points="311.44,-423.4 305.44,-423.4"/>
<text xml:space="preserve" text-anchor="start" x="204.58" y="-413.7" font-family="Inter,Arial" font-size="10.00" fill="#614000">to parry2d&#45;v0.26.0.svg</text>
<text xml:space="preserve" text-anchor="start" x="235.7" y="-403.7" font-family="Inter,Arial" font-weight="bold" font-size="10.00" fill="#614000">parry2d</text>
<text xml:space="preserve" text-anchor="start" x="239.83" y="-393.7" font-family="Inter,Arial" font-size="10.00" fill="#614000">0.26.0</text>
</g>
<!-- n0&#45;&gt;out8 -->
<g id="edge11" class="edge">
<title>n0&#45;&gt;out8</title>
<path fill="none" stroke="#d19922" stroke-width="0.9" stroke-dasharray="5,2" d="M114.79,-432.91C137.27,-428.71 164.12,-423.69 188.1,-419.21"/>
<polygon fill="#d19922" stroke="#d19922" stroke-width="0.9" points="188.39,-421.11 193.44,-418.21 187.68,-417.33 188.39,-421.11"/>
</g>
<!-- out9 -->
<g id="node19" class="node">
<title>out9</title>
<polygon fill="#fff8e8" stroke="#d19922" points="298.31,-360.4 202.34,-360.4 202.34,-316 304.31,-316 304.31,-354.4 298.31,-360.4"/>
<polyline fill="none" stroke="#d19922" points="298.31,-360.4 298.31,-354.4"/>
<polyline fill="none" stroke="#d19922" points="304.31,-354.4 298.31,-354.4"/>
<text xml:space="preserve" text-anchor="start" x="211.7" y="-344.7" font-family="Inter,Arial" font-size="10.00" fill="#614000">to spin&#45;v0.10.0.svg</text>
<text xml:space="preserve" text-anchor="start" x="243.2" y="-334.7" font-family="Inter,Arial" font-weight="bold" font-size="10.00" fill="#614000">spin</text>
<text xml:space="preserve" text-anchor="start" x="239.83" y="-324.7" font-family="Inter,Arial" font-size="10.00" fill="#614000">0.10.0</text>
</g>
<!-- n0&#45;&gt;out9 -->
<g id="edge12" class="edge">
<title>n0&#45;&gt;out9</title>
<path fill="none" stroke="#d19922" stroke-width="0.9" stroke-dasharray="5,2" d="M98.8,-416.65C118.41,-402.47 143.98,-385.14 168.22,-372.2 177,-367.52 186.56,-363.07 195.99,-359.04"/>
<polygon fill="#d19922" stroke="#d19922" stroke-width="0.9" points="196.58,-360.88 200.91,-356.97 195.09,-357.33 196.58,-360.88"/>
</g>
<!-- out10 -->
<g id="node20" class="node">
<title>out10</title>
<polygon fill="#fff8e8" stroke="#d19922" points="314.44,-291.4 186.22,-291.4 186.22,-237 320.44,-237 320.44,-285.4 314.44,-291.4"/>
<polyline fill="none" stroke="#d19922" points="314.44,-291.4 314.44,-285.4"/>
<polyline fill="none" stroke="#d19922" points="320.44,-285.4 314.44,-285.4"/>
<text xml:space="preserve" text-anchor="start" x="195.58" y="-275.7" font-family="Inter,Arial" font-size="10.00" fill="#614000">to trueos&#45;locale&#45;v0.1.0.svg</text>
<text xml:space="preserve" text-anchor="start" x="223.33" y="-265.7" font-family="Inter,Arial" font-weight="bold" font-size="10.00" fill="#614000">trueos&#45;locale</text>
<text xml:space="preserve" text-anchor="start" x="242.45" y="-255.7" font-family="Inter,Arial" font-size="10.00" fill="#614000">0.1.0</text>
<text xml:space="preserve" text-anchor="start" x="209.08" y="-245.7" font-family="Inter,Arial" font-size="10.00" fill="#614000">/crates/trueos&#45;locale</text>
</g>
<!-- n0&#45;&gt;out10 -->
<g id="edge13" class="edge">
<title>n0&#45;&gt;out10</title>
<path fill="none" stroke="#d19922" stroke-width="0.9" stroke-dasharray="5,2" d="M78.79,-416.6C96.14,-386.17 128.61,-335.45 168.22,-303.2 172,-300.13 176.05,-297.23 180.27,-294.52"/>
<polygon fill="#d19922" stroke="#d19922" stroke-width="0.9" points="181.27,-296.17 184.96,-291.65 179.26,-292.89 181.27,-296.17"/>
</g>
<!-- out11 -->
<g id="node21" class="node">
<title>out11</title>
<polygon fill="#fff8e8" stroke="#d19922" points="312.56,-212.4 188.09,-212.4 188.09,-158 318.56,-158 318.56,-206.4 312.56,-212.4"/>
<polyline fill="none" stroke="#d19922" points="312.56,-212.4 312.56,-206.4"/>
<polyline fill="none" stroke="#d19922" points="318.56,-206.4 312.56,-206.4"/>
<text xml:space="preserve" text-anchor="start" x="197.45" y="-196.7" font-family="Inter,Arial" font-size="10.00" fill="#614000">to trueos&#45;math&#45;v0.1.0.svg</text>
<text xml:space="preserve" text-anchor="start" x="225.58" y="-186.7" font-family="Inter,Arial" font-weight="bold" font-size="10.00" fill="#614000">trueos&#45;math</text>
<text xml:space="preserve" text-anchor="start" x="242.45" y="-176.7" font-family="Inter,Arial" font-size="10.00" fill="#614000">0.1.0</text>
<text xml:space="preserve" text-anchor="start" x="210.95" y="-166.7" font-family="Inter,Arial" font-size="10.00" fill="#614000">/crates/trueos&#45;math</text>
</g>
<!-- n0&#45;&gt;out11 -->
<g id="edge14" class="edge">
<title>n0&#45;&gt;out11</title>
<path fill="none" stroke="#d19922" stroke-width="0.9" stroke-dasharray="5,2" d="M71.06,-416.67C82.62,-372.2 112.05,-279.94 168.22,-224.2 172.42,-220.04 177.14,-216.27 182.15,-212.86"/>
<polygon fill="#d19922" stroke="#d19922" stroke-width="0.9" points="182.95,-214.63 186.54,-210.04 180.87,-211.39 182.95,-214.63"/>
</g>
<!-- out12 -->
<g id="node22" class="node">
<title>out12</title>
<polygon fill="#fff8e8" stroke="#d19922" points="299.81,-133.4 200.84,-133.4 200.84,-79 305.81,-79 305.81,-127.4 299.81,-133.4"/>
<polyline fill="none" stroke="#d19922" points="299.81,-133.4 299.81,-127.4"/>
<polyline fill="none" stroke="#d19922" points="305.81,-127.4 299.81,-127.4"/>
<text xml:space="preserve" text-anchor="start" x="210.2" y="-117.7" font-family="Inter,Arial" font-size="10.00" fill="#614000">to usvg&#45;v0.45.1.svg</text>
<text xml:space="preserve" text-anchor="start" x="242.08" y="-107.7" font-family="Inter,Arial" font-weight="bold" font-size="10.00" fill="#614000">usvg</text>
<text xml:space="preserve" text-anchor="start" x="239.83" y="-97.7" font-family="Inter,Arial" font-size="10.00" fill="#614000">0.45.1</text>
<text xml:space="preserve" text-anchor="start" x="210.2" y="-87.7" font-family="Inter,Arial" font-size="10.00" fill="#614000">/vendor/usvg&#45;0.45.1</text>
</g>
<!-- n0&#45;&gt;out12 -->
<g id="edge15" class="edge">
<title>n0&#45;&gt;out12</title>
<path fill="none" stroke="#d19922" stroke-width="0.9" stroke-dasharray="5,2" d="M67.33,-416.56C73.47,-360.53 95.35,-225.75 168.22,-145.2 175.46,-137.19 184.69,-130.71 194.35,-125.49"/>
<polygon fill="#d19922" stroke="#d19922" stroke-width="0.9" points="195.17,-127.23 199.2,-123.02 193.43,-123.8 195.17,-127.23"/>
</g>
<!-- out13 -->
<g id="node23" class="node">
<title>out13</title>
<polygon fill="#fff8e8" stroke="#d19922" points="290.81,-54.4 209.84,-54.4 209.84,0 296.81,0 296.81,-48.4 290.81,-54.4"/>
<polyline fill="none" stroke="#d19922" points="290.81,-54.4 290.81,-48.4"/>
<polyline fill="none" stroke="#d19922" points="296.81,-48.4 290.81,-48.4"/>
<text xml:space="preserve" text-anchor="start" x="220.7" y="-38.7" font-family="Inter,Arial" font-size="10.00" fill="#614000">to v&#45;v0.1.0.svg</text>
<text xml:space="preserve" text-anchor="start" x="250.7" y="-28.7" font-family="Inter,Arial" font-weight="bold" font-size="10.00" fill="#614000">v</text>
<text xml:space="preserve" text-anchor="start" x="242.45" y="-18.7" font-family="Inter,Arial" font-size="10.00" fill="#614000">0.1.0</text>
<text xml:space="preserve" text-anchor="start" x="219.2" y="-8.7" font-family="Inter,Arial" font-size="10.00" fill="#614000">/crates/trueos&#45;v</text>
</g>
<!-- n0&#45;&gt;out13 -->
<g id="edge16" class="edge">
<title>n0&#45;&gt;out13</title>
<path fill="none" stroke="#d19922" stroke-width="0.9" stroke-dasharray="5,2" d="M65.07,-416.96C66.28,-351.25 78.16,-172.65 168.22,-66.2 177.51,-55.22 190.55,-47.16 203.6,-41.31"/>
<polygon fill="#d19922" stroke="#d19922" stroke-width="0.9" points="204.02,-43.23 208.33,-39.31 202.52,-39.68 204.02,-43.23"/>
</g>
<!-- n2 -->
<g id="node3" class="node">
<title>n2</title>
<path fill="#f7f9fb" stroke="#8b9bb0" d="M275.44,-1414.9C275.44,-1414.9 231.22,-1414.9 231.22,-1414.9 225.22,-1414.9 219.22,-1408.9 219.22,-1402.9 219.22,-1402.9 219.22,-1387.5 219.22,-1387.5 219.22,-1381.5 225.22,-1375.5 231.22,-1375.5 231.22,-1375.5 275.44,-1375.5 275.44,-1375.5 281.44,-1375.5 287.44,-1381.5 287.44,-1387.5 287.44,-1387.5 287.44,-1402.9 287.44,-1402.9 287.44,-1408.9 281.44,-1414.9 275.44,-1414.9"/>
<text xml:space="preserve" text-anchor="start" x="228.58" y="-1396.35" font-family="Inter,Arial" font-weight="bold" font-size="13.00" fill="#172033">data&#45;url</text>
<text xml:space="preserve" text-anchor="start" x="240.2" y="-1384.3" font-family="Inter,Arial" font-size="12.00" fill="#172033">0.3.2</text>
</g>
<!-- n3 -->
<g id="node4" class="node">
<title>n3</title>
<path fill="#fff0d5" stroke="#c47a1a" d="M311.06,-1350.4C311.06,-1350.4 195.59,-1350.4 195.59,-1350.4 189.59,-1350.4 183.59,-1344.4 183.59,-1338.4 183.59,-1338.4 183.59,-1312 183.59,-1312 183.59,-1306 189.59,-1300 195.59,-1300 195.59,-1300 311.06,-1300 311.06,-1300 317.06,-1300 323.06,-1306 323.06,-1312 323.06,-1312 323.06,-1338.4 323.06,-1338.4 323.06,-1344.4 317.06,-1350.4 311.06,-1350.4"/>
<text xml:space="preserve" text-anchor="start" x="221.45" y="-1331.85" font-family="Inter,Arial" font-weight="bold" font-size="13.00" fill="#172033">imagesize</text>
<text xml:space="preserve" text-anchor="start" x="236.83" y="-1319.8" font-family="Inter,Arial" font-size="12.00" fill="#172033">0.13.0</text>
<text xml:space="preserve" text-anchor="start" x="192.95" y="-1308.75" font-family="Inter,Arial" font-size="11.00" fill="#172033">/vendor/imagesize&#45;0.13.0</text>
</g>
<!-- out0 -->
<g id="node10" class="node">
<title>out0</title>
<polygon fill="#fff8e8" stroke="#d19922" points="477.41,-1347.4 380.69,-1347.4 380.69,-1303 483.41,-1303 483.41,-1341.4 477.41,-1347.4"/>
<polyline fill="none" stroke="#d19922" points="477.41,-1347.4 477.41,-1341.4"/>
<polyline fill="none" stroke="#d19922" points="483.41,-1341.4 477.41,-1341.4"/>
<text xml:space="preserve" text-anchor="start" x="390.05" y="-1331.7" font-family="Inter,Arial" font-size="10.00" fill="#614000">to core3&#45;v0.1.2.svg</text>
<text xml:space="preserve" text-anchor="start" x="419.3" y="-1321.7" font-family="Inter,Arial" font-weight="bold" font-size="10.00" fill="#614000">core3</text>
<text xml:space="preserve" text-anchor="start" x="421.17" y="-1311.7" font-family="Inter,Arial" font-size="10.00" fill="#614000">0.1.2</text>
</g>
<!-- n3&#45;&gt;out0 -->
<g id="edge3" class="edge">
<title>n3&#45;&gt;out0</title>
<path fill="none" stroke="#d19922" stroke-width="0.9" stroke-dasharray="5,2" d="M323.41,-1325.2C340.02,-1325.2 357.57,-1325.2 373.58,-1325.2"/>
<polygon fill="#d19922" stroke="#d19922" stroke-width="0.9" points="373.48,-1327.13 378.98,-1325.2 373.48,-1323.28 373.48,-1327.13"/>
</g>
<!-- n4 -->
<g id="node5" class="node">
<title>n4</title>
<path fill="#f7f9fb" stroke="#8b9bb0" d="M281.06,-1274.9C281.06,-1274.9 225.59,-1274.9 225.59,-1274.9 219.59,-1274.9 213.59,-1268.9 213.59,-1262.9 213.59,-1262.9 213.59,-1247.5 213.59,-1247.5 213.59,-1241.5 219.59,-1235.5 225.59,-1235.5 225.59,-1235.5 281.06,-1235.5 281.06,-1235.5 287.06,-1235.5 293.06,-1241.5 293.06,-1247.5 293.06,-1247.5 293.06,-1262.9 293.06,-1262.9 293.06,-1268.9 287.06,-1274.9 281.06,-1274.9"/>
<text xml:space="preserve" text-anchor="start" x="222.95" y="-1256.35" font-family="Inter,Arial" font-weight="bold" font-size="13.00" fill="#172033">roxmltree</text>
<text xml:space="preserve" text-anchor="start" x="236.83" y="-1244.3" font-family="Inter,Arial" font-size="12.00" fill="#172033">0.20.0</text>
</g>
<!-- n5 -->
<g id="node6" class="node">
<title>n5</title>
<path fill="#f7f9fb" stroke="#8b9bb0" d="M282.94,-1210.9C282.94,-1210.9 223.72,-1210.9 223.72,-1210.9 217.72,-1210.9 211.72,-1204.9 211.72,-1198.9 211.72,-1198.9 211.72,-1183.5 211.72,-1183.5 211.72,-1177.5 217.72,-1171.5 223.72,-1171.5 223.72,-1171.5 282.94,-1171.5 282.94,-1171.5 288.94,-1171.5 294.94,-1177.5 294.94,-1183.5 294.94,-1183.5 294.94,-1198.9 294.94,-1198.9 294.94,-1204.9 288.94,-1210.9 282.94,-1210.9"/>
<text xml:space="preserve" text-anchor="start" x="221.08" y="-1192.35" font-family="Inter,Arial" font-weight="bold" font-size="13.00" fill="#172033">simplecss</text>
<text xml:space="preserve" text-anchor="start" x="240.2" y="-1180.3" font-family="Inter,Arial" font-size="12.00" fill="#172033">0.2.2</text>
</g>
<!-- out7 -->
<g id="node17" class="node">
<title>out7</title>
<polygon fill="#fff8e8" stroke="#d19922" points="474.41,-1217.4 383.69,-1217.4 383.69,-1173 480.41,-1173 480.41,-1211.4 474.41,-1217.4"/>
<polyline fill="none" stroke="#d19922" points="474.41,-1217.4 474.41,-1211.4"/>
<polyline fill="none" stroke="#d19922" points="480.41,-1211.4 474.41,-1211.4"/>
<text xml:space="preserve" text-anchor="start" x="393.05" y="-1201.7" font-family="Inter,Arial" font-size="10.00" fill="#614000">to log&#45;v0.4.29.svg</text>
<text xml:space="preserve" text-anchor="start" x="424.55" y="-1191.7" font-family="Inter,Arial" font-weight="bold" font-size="10.00" fill="#614000">log</text>
<text xml:space="preserve" text-anchor="start" x="418.55" y="-1181.7" font-family="Inter,Arial" font-size="10.00" fill="#614000">0.4.29</text>
</g>
<!-- n5&#45;&gt;out7 -->
<g id="edge10" class="edge">
<title>n5&#45;&gt;out7</title>
<path fill="none" stroke="#d19922" stroke-width="0.9" stroke-dasharray="5,2" d="M295.32,-1192.13C319.57,-1192.68 350.58,-1193.38 376.84,-1193.97"/>
<polygon fill="#d19922" stroke="#d19922" stroke-width="0.9" points="376.5,-1195.89 382.04,-1194.09 376.58,-1192.04 376.5,-1195.89"/>
</g>
<!-- n6 -->
<g id="node7" class="node">
<title>n6</title>
<path fill="#f7f9fb" stroke="#8b9bb0" d="M461.28,-1147.9C461.28,-1147.9 402.81,-1147.9 402.81,-1147.9 396.81,-1147.9 390.81,-1141.9 390.81,-1135.9 390.81,-1135.9 390.81,-1120.5 390.81,-1120.5 390.81,-1114.5 396.81,-1108.5 402.81,-1108.5 402.81,-1108.5 461.28,-1108.5 461.28,-1108.5 467.28,-1108.5 473.28,-1114.5 473.28,-1120.5 473.28,-1120.5 473.28,-1135.9 473.28,-1135.9 473.28,-1141.9 467.28,-1147.9 461.28,-1147.9"/>
<text xml:space="preserve" text-anchor="start" x="400.17" y="-1129.35" font-family="Inter,Arial" font-weight="bold" font-size="13.00" fill="#172033">siphasher</text>
<text xml:space="preserve" text-anchor="start" x="418.92" y="-1117.3" font-family="Inter,Arial" font-size="12.00" fill="#172033">1.0.3</text>
</g>
<!-- n7 -->
<g id="node8" class="node">
<title>n7</title>
<path fill="#fff0d5" stroke="#c47a1a" d="M308.06,-1095.4C308.06,-1095.4 198.59,-1095.4 198.59,-1095.4 192.59,-1095.4 186.59,-1089.4 186.59,-1083.4 186.59,-1083.4 186.59,-1057 186.59,-1057 186.59,-1051 192.59,-1045 198.59,-1045 198.59,-1045 308.06,-1045 308.06,-1045 314.06,-1045 320.06,-1051 320.06,-1057 320.06,-1057 320.06,-1083.4 320.06,-1083.4 320.06,-1089.4 314.06,-1095.4 308.06,-1095.4"/>
<text xml:space="preserve" text-anchor="start" x="224.08" y="-1076.85" font-family="Inter,Arial" font-weight="bold" font-size="13.00" fill="#172033">svgtypes</text>
<text xml:space="preserve" text-anchor="start" x="236.83" y="-1064.8" font-family="Inter,Arial" font-size="12.00" fill="#172033">0.15.3</text>
<text xml:space="preserve" text-anchor="start" x="195.95" y="-1053.75" font-family="Inter,Arial" font-size="11.00" fill="#172033">/vendor/svgtypes&#45;0.15.3</text>
</g>
<!-- n7&#45;&gt;n6 -->
<g id="edge1" class="edge">
<title>n7&#45;&gt;n6</title>
<path fill="none" stroke="#9aa8b8" stroke-width="0.9" d="M320.39,-1091.88C341.52,-1098.82 364.49,-1106.35 383.99,-1112.75"/>
<polygon fill="#9aa8b8" stroke="#9aa8b8" stroke-width="0.9" points="383.34,-1114.57 389.16,-1114.45 384.54,-1110.91 383.34,-1114.57"/>
</g>
<!-- out5 -->
<g id="node15" class="node">
<title>out5</title>
<polygon fill="#fff8e8" stroke="#d19922" points="479.66,-1083.4 378.44,-1083.4 378.44,-1029 485.66,-1029 485.66,-1077.4 479.66,-1083.4"/>
<polyline fill="none" stroke="#d19922" points="479.66,-1083.4 479.66,-1077.4"/>
<polyline fill="none" stroke="#d19922" points="485.66,-1077.4 479.66,-1077.4"/>
<text xml:space="preserve" text-anchor="start" x="387.8" y="-1067.7" font-family="Inter,Arial" font-size="10.00" fill="#614000">to kurbo&#45;v0.11.3.svg</text>
<text xml:space="preserve" text-anchor="start" x="418.55" y="-1057.7" font-family="Inter,Arial" font-weight="bold" font-size="10.00" fill="#614000">kurbo</text>
<text xml:space="preserve" text-anchor="start" x="418.55" y="-1047.7" font-family="Inter,Arial" font-size="10.00" fill="#614000">0.11.3</text>
<text xml:space="preserve" text-anchor="start" x="387.8" y="-1037.7" font-family="Inter,Arial" font-size="10.00" fill="#614000">/vendor/kurbo&#45;0.11.3</text>
</g>
<!-- n7&#45;&gt;out5 -->
<g id="edge8" class="edge">
<title>n7&#45;&gt;out5</title>
<path fill="none" stroke="#d19922" stroke-width="0.9" stroke-dasharray="5,2" d="M320.39,-1064.97C337.18,-1063.64 355.12,-1062.22 371.56,-1060.91"/>
<polygon fill="#d19922" stroke="#d19922" stroke-width="0.9" points="371.33,-1062.86 376.66,-1060.51 371.03,-1059.02 371.33,-1062.86"/>
</g>
<!-- n8 -->
<g id="node9" class="node">
<title>n8</title>
<path fill="#fff0d5" stroke="#c47a1a" d="M305.81,-1020.4C305.81,-1020.4 200.84,-1020.4 200.84,-1020.4 194.84,-1020.4 188.84,-1014.4 188.84,-1008.4 188.84,-1008.4 188.84,-982 188.84,-982 188.84,-976 194.84,-970 200.84,-970 200.84,-970 305.81,-970 305.81,-970 311.81,-970 317.81,-976 317.81,-982 317.81,-982 317.81,-1008.4 317.81,-1008.4 317.81,-1014.4 311.81,-1020.4 305.81,-1020.4"/>
<text xml:space="preserve" text-anchor="start" x="224.08" y="-1001.85" font-family="Inter,Arial" font-weight="bold" font-size="13.00" fill="#172033">xmlwriter</text>
<text xml:space="preserve" text-anchor="start" x="240.2" y="-989.8" font-family="Inter,Arial" font-size="12.00" fill="#172033">0.1.0</text>
<text xml:space="preserve" text-anchor="start" x="198.2" y="-978.75" font-family="Inter,Arial" font-size="11.00" fill="#172033">/vendor/xmlwriter&#45;0.1.0</text>
</g>
<!-- in14 -->
<g id="node24" class="node">
<title>in14</title>
<polygon fill="#eef6ff" stroke="#4b8fc5" points="122.22,-1288.4 0,-1288.4 0,-1094 128.22,-1094 128.22,-1282.4 122.22,-1288.4"/>
<polyline fill="none" stroke="#4b8fc5" points="122.22,-1288.4 122.22,-1282.4"/>
<polyline fill="none" stroke="#4b8fc5" points="128.22,-1282.4 122.22,-1282.4"/>
<text xml:space="preserve" text-anchor="start" x="15.36" y="-1272.7" font-family="Inter,Arial" font-size="10.00" fill="#123d5c">from usvg&#45;v0.45.1.svg</text>
<text xml:space="preserve" text-anchor="start" x="46.49" y="-1262.7" font-family="Inter,Arial" font-weight="bold" font-size="10.00" fill="#123d5c">data&#45;url</text>
<text xml:space="preserve" text-anchor="start" x="53.24" y="-1252.7" font-family="Inter,Arial" font-size="10.00" fill="#123d5c">0.3.2</text>
<text xml:space="preserve" text-anchor="start" x="40.49" y="-1242.7" font-family="Inter,Arial" font-weight="bold" font-size="10.00" fill="#123d5c">imagesize</text>
<text xml:space="preserve" text-anchor="start" x="50.61" y="-1232.7" font-family="Inter,Arial" font-size="10.00" fill="#123d5c">0.13.0</text>
<text xml:space="preserve" text-anchor="start" x="9.36" y="-1222.7" font-family="Inter,Arial" font-size="10.00" fill="#123d5c">/vendor/imagesize&#45;0.13.0</text>
<text xml:space="preserve" text-anchor="start" x="41.99" y="-1212.7" font-family="Inter,Arial" font-weight="bold" font-size="10.00" fill="#123d5c">roxmltree</text>
<text xml:space="preserve" text-anchor="start" x="50.61" y="-1202.7" font-family="Inter,Arial" font-size="10.00" fill="#123d5c">0.20.0</text>
<text xml:space="preserve" text-anchor="start" x="40.49" y="-1192.7" font-family="Inter,Arial" font-weight="bold" font-size="10.00" fill="#123d5c">simplecss</text>
<text xml:space="preserve" text-anchor="start" x="53.24" y="-1182.7" font-family="Inter,Arial" font-size="10.00" fill="#123d5c">0.2.2</text>
<text xml:space="preserve" text-anchor="start" x="41.24" y="-1172.7" font-family="Inter,Arial" font-weight="bold" font-size="10.00" fill="#123d5c">siphasher</text>
<text xml:space="preserve" text-anchor="start" x="53.24" y="-1162.7" font-family="Inter,Arial" font-size="10.00" fill="#123d5c">1.0.3</text>
<text xml:space="preserve" text-anchor="start" x="43.49" y="-1152.7" font-family="Inter,Arial" font-weight="bold" font-size="10.00" fill="#123d5c">svgtypes</text>
<text xml:space="preserve" text-anchor="start" x="50.61" y="-1142.7" font-family="Inter,Arial" font-size="10.00" fill="#123d5c">0.15.3</text>
<text xml:space="preserve" text-anchor="start" x="11.61" y="-1132.7" font-family="Inter,Arial" font-size="10.00" fill="#123d5c">/vendor/svgtypes&#45;0.15.3</text>
<text xml:space="preserve" text-anchor="start" x="42.36" y="-1122.7" font-family="Inter,Arial" font-weight="bold" font-size="10.00" fill="#123d5c">xmlwriter</text>
<text xml:space="preserve" text-anchor="start" x="53.24" y="-1112.7" font-family="Inter,Arial" font-size="10.00" fill="#123d5c">0.1.0</text>
<text xml:space="preserve" text-anchor="start" x="14.24" y="-1102.7" font-family="Inter,Arial" font-size="10.00" fill="#123d5c">/vendor/xmlwriter&#45;0.1.0</text>
</g>
<!-- in14&#45;&gt;n2 -->
<g id="edge17" class="edge">
<title>in14&#45;&gt;n2</title>
<path fill="none" stroke="#4b8fc5" stroke-width="0.9" stroke-dasharray="5,2" d="M108.38,-1288.55C124.1,-1315.55 144.06,-1342.97 168.22,-1363.2 180.9,-1373.82 197.48,-1381.13 212.56,-1386.05"/>
<polygon fill="#4b8fc5" stroke="#4b8fc5" stroke-width="0.9" points="211.8,-1387.83 217.62,-1387.61 212.93,-1384.15 211.8,-1387.83"/>
</g>
<!-- in14&#45;&gt;n3 -->
<g id="edge18" class="edge">
<title>in14&#45;&gt;n3</title>
<path fill="none" stroke="#4b8fc5" stroke-width="0.9" stroke-dasharray="5,2" d="M128.7,-1256.32C141.21,-1267.38 154.68,-1278.19 168.22,-1287.2 173.12,-1290.46 178.34,-1293.56 183.7,-1296.49"/>
<polygon fill="#4b8fc5" stroke="#4b8fc5" stroke-width="0.9" points="182.59,-1298.08 188.35,-1298.96 184.39,-1294.68 182.59,-1298.08"/>
</g>
<!-- in14&#45;&gt;n4 -->
<g id="edge19" class="edge">
<title>in14&#45;&gt;n4</title>
<path fill="none" stroke="#4b8fc5" stroke-width="0.9" stroke-dasharray="5,2" d="M128.49,-1212.87C154.19,-1221.65 183.29,-1231.6 206.82,-1239.64"/>
<polygon fill="#4b8fc5" stroke="#4b8fc5" stroke-width="0.9" points="206.19,-1241.46 212.01,-1241.42 207.43,-1237.82 206.19,-1241.46"/>
</g>
<!-- in14&#45;&gt;n5 -->
<g id="edge20" class="edge">
<title>in14&#45;&gt;n5</title>
<path fill="none" stroke="#4b8fc5" stroke-width="0.9" stroke-dasharray="5,2" d="M128.49,-1191.2C153.4,-1191.2 181.51,-1191.2 204.65,-1191.2"/>
<polygon fill="#4b8fc5" stroke="#4b8fc5" stroke-width="0.9" points="204.48,-1193.13 209.98,-1191.2 204.48,-1189.28 204.48,-1193.13"/>
</g>
<!-- in14&#45;&gt;n6 -->
<g id="edge21" class="edge">
<title>in14&#45;&gt;n6</title>
<path fill="none" stroke="#4b8fc5" stroke-width="0.9" stroke-dasharray="5,2" d="M128.71,-1169.47C141.67,-1165.6 155.29,-1161.94 168.22,-1159.2 242.79,-1143.37 331.09,-1135.04 384.01,-1131.13"/>
<polygon fill="#4b8fc5" stroke="#4b8fc5" stroke-width="0.9" points="383.9,-1133.07 389.24,-1130.76 383.62,-1129.23 383.9,-1133.07"/>
</g>
<!-- in14&#45;&gt;n7 -->
<g id="edge22" class="edge">
<title>in14&#45;&gt;n7</title>
<path fill="none" stroke="#4b8fc5" stroke-width="0.9" stroke-dasharray="5,2" d="M128.62,-1141.31C141.47,-1131.93 155.08,-1122.47 168.22,-1114.2 176.57,-1108.94 185.62,-1103.74 194.58,-1098.85"/>
<polygon fill="#4b8fc5" stroke="#4b8fc5" stroke-width="0.9" points="195.32,-1100.64 199.25,-1096.33 193.49,-1097.25 195.32,-1100.64"/>
</g>
<!-- in14&#45;&gt;n8 -->
<g id="edge23" class="edge">
<title>in14&#45;&gt;n8</title>
<path fill="none" stroke="#4b8fc5" stroke-width="0.9" stroke-dasharray="5,2" d="M115.6,-1093.68C130.37,-1071.45 148.05,-1049.36 168.22,-1032.2 172.68,-1028.4 177.59,-1024.94 182.74,-1021.78"/>
<polygon fill="#4b8fc5" stroke="#4b8fc5" stroke-width="0.9" points="183.44,-1023.6 187.22,-1019.16 181.5,-1020.27 183.44,-1023.6"/>
</g>
</g>
</svg>
