<?xml version="1.0" encoding="UTF-8" standalone="no"?>
<!DOCTYPE svg PUBLIC "-//W3C//DTD SVG 1.1//EN"
 "http://www.w3.org/Graphics/SVG/1.1/DTD/svg11.dtd">
<!-- Generated by graphviz version 14.1.2 (0)
 -->
<!-- Title: trueos&#45;qjs&#45;v0.1.0 Pages: 1 -->
<svg width="472pt" height="1243pt"
 viewBox="0.00 0.00 472.00 1243.00" xmlns="http://www.w3.org/2000/svg" xmlns:xlink="http://www.w3.org/1999/xlink">
<g id="graph0" class="graph" transform="scale(1 1) rotate(0) translate(4 1238.6)">
<title>trueos&#45;qjs&#45;v0.1.0</title>
<polygon fill="white" stroke="none" points="-4,4 -4,-1238.6 468.06,-1238.6 468.06,4 -4,4"/>
<!-- n0 -->
<g id="node1" class="node">
<title>n0</title>
<path fill="#dff3ff" stroke="#1b78a6" d="M92.14,-418.2C92.14,-418.2 28.88,-418.2 28.88,-418.2 22.88,-418.2 16.87,-412.2 16.87,-406.2 16.87,-406.2 16.87,-393 16.87,-393 16.87,-387 22.87,-381 28.87,-381 28.87,-381 92.14,-381 92.14,-381 98.14,-381 104.14,-387 104.14,-393 104.14,-393 104.14,-406.2 104.14,-406.2 104.14,-412.2 98.14,-418.2 92.14,-418.2"/>
<text xml:space="preserve" text-anchor="start" x="37.26" y="-406.1" font-family="Inter,Arial" font-weight="bold" font-size="10.00" fill="#172033">trueos&#45;qjs</text>
<text xml:space="preserve" text-anchor="start" x="49.63" y="-396.1" font-family="Inter,Arial" font-size="10.00" fill="#172033">0.1.0</text>
<text xml:space="preserve" text-anchor="start" x="22.63" y="-386.1" font-family="Inter,Arial" font-size="10.00" fill="#172033">/crates/trueos&#45;qjs</text>
</g>
<!-- n1 -->
<g id="node2" class="node">
<title>n1</title>
<path fill="#f7f9fb" stroke="#8b9bb0" d="M282.54,-812.95C282.54,-812.95 202.52,-812.95 202.52,-812.95 196.52,-812.95 190.52,-806.95 190.52,-800.95 190.52,-800.95 190.52,-754.25 190.52,-754.25 190.52,-748.25 196.52,-742.25 202.52,-742.25 202.52,-742.25 282.54,-742.25 282.54,-742.25 288.54,-742.25 294.54,-748.25 294.54,-754.25 294.54,-754.25 294.54,-800.95 294.54,-800.95 294.54,-806.95 288.54,-812.95 282.54,-812.95"/>
<text xml:space="preserve" text-anchor="start" x="237.28" y="-800.85" font-family="Inter,Arial" font-weight="bold" font-size="10.00" fill="#172033">cc</text>
<text xml:space="preserve" text-anchor="start" x="229.03" y="-787.85" font-family="Inter,Arial" font-size="10.00" fill="#172033">1.2.62</text>
<text xml:space="preserve" text-anchor="start" x="201.28" y="-773.75" font-family="Inter,Arial" font-weight="bold" font-size="8.00" fill="#172033">find&#45;msvc&#45;tools</text>
<text xml:space="preserve" text-anchor="start" x="263.53" y="-773.75" font-family="Inter,Arial" font-size="8.00" fill="#172033"> 0.1.9</text>
<path fill="none" stroke="#9aa8b8" d="M202.86,-765.6C202.86,-765.6 282.2,-765.6 282.2,-765.6 285.49,-765.6 288.78,-768.89 288.78,-772.18 288.78,-772.18 288.78,-778.77 288.78,-778.77 288.78,-782.06 285.49,-785.35 282.2,-785.35 282.2,-785.35 202.86,-785.35 202.86,-785.35 199.57,-785.35 196.28,-782.06 196.28,-778.77 196.28,-778.77 196.28,-772.18 196.28,-772.18 196.28,-768.89 199.57,-765.6 202.86,-765.6"/>
<text xml:space="preserve" text-anchor="start" x="221.9" y="-754" font-family="Inter,Arial" font-weight="bold" font-size="8.00" fill="#172033">shlex</text>
<text xml:space="preserve" text-anchor="start" x="242.9" y="-754" font-family="Inter,Arial" font-size="8.00" fill="#172033"> 1.3.0</text>
<path fill="none" stroke="#9aa8b8" d="M202.86,-745.85C202.86,-745.85 282.2,-745.85 282.2,-745.85 285.49,-745.85 288.78,-749.14 288.78,-752.43 288.78,-752.43 288.78,-759.02 288.78,-759.02 288.78,-762.31 285.49,-765.6 282.2,-765.6 282.2,-765.6 202.86,-765.6 202.86,-765.6 199.57,-765.6 196.28,-762.31 196.28,-759.02 196.28,-759.02 196.28,-752.43 196.28,-752.43 196.28,-749.14 199.57,-745.85 202.86,-745.85"/>
</g>
<!-- n0&#45;&gt;n1 -->
<g id="edge2" class="edge">
<title>n0&#45;&gt;n1</title>
<path fill="none" stroke="#9aa8b8" stroke-width="0.9" d="M62.53,-418.53C66.35,-472.7 83.86,-630.8 161.02,-729.6 167.49,-737.88 175.82,-745.04 184.66,-751.12"/>
<polygon fill="#9aa8b8" stroke="#9aa8b8" stroke-width="0.9" points="183.42,-752.61 189.08,-754.02 185.53,-749.39 183.42,-752.61"/>
</g>
<!-- out1 -->
<g id="node11" class="node">
<title>out1</title>
<polygon fill="#fff8e8" stroke="#d19922" points="315.04,-717.2 164.02,-717.2 164.02,-670 321.04,-670 321.04,-711.2 315.04,-717.2"/>
<polyline fill="none" stroke="#d19922" points="315.04,-717.2 315.04,-711.2"/>
<polyline fill="none" stroke="#d19922" points="321.04,-711.2 315.04,-711.2"/>
<text xml:space="preserve" text-anchor="start" x="169.78" y="-705.1" font-family="Inter,Arial" font-size="10.00" fill="#614000">to embassy&#45;executor&#45;v0.10.0.svg</text>
<text xml:space="preserve" text-anchor="start" x="200.53" y="-695.1" font-family="Inter,Arial" font-weight="bold" font-size="10.00" fill="#614000">embassy&#45;executor</text>
<text xml:space="preserve" text-anchor="start" x="229.03" y="-685.1" font-family="Inter,Arial" font-size="10.00" fill="#614000">0.10.0</text>
<text xml:space="preserve" text-anchor="start" x="192.28" y="-675.1" font-family="Inter,Arial" font-size="10.00" fill="#614000">/crates/trueos&#45;executor</text>
</g>
<!-- n0&#45;&gt;out1 -->
<g id="edge4" class="edge">
<title>n0&#45;&gt;out1</title>
<path fill="none" stroke="#d19922" stroke-width="0.9" stroke-dasharray="5,2" d="M63.81,-418.42C70.44,-464.91 93.61,-586.56 161.02,-657.6 163.86,-660.59 166.98,-663.35 170.31,-665.89"/>
<polygon fill="#d19922" stroke="#d19922" stroke-width="0.9" points="168.99,-667.31 174.59,-668.92 171.22,-664.17 168.99,-667.31"/>
</g>
<!-- out2 -->
<g id="node12" class="node">
<title>out2</title>
<polygon fill="#fff8e8" stroke="#d19922" points="304.16,-645.2 174.89,-645.2 174.89,-608 310.16,-608 310.16,-639.2 304.16,-645.2"/>
<polyline fill="none" stroke="#d19922" points="304.16,-645.2 304.16,-639.2"/>
<polyline fill="none" stroke="#d19922" points="310.16,-639.2 304.16,-639.2"/>
<text xml:space="preserve" text-anchor="start" x="180.65" y="-633.1" font-family="Inter,Arial" font-size="10.00" fill="#614000">to embassy&#45;sync&#45;v0.8.0.svg</text>
<text xml:space="preserve" text-anchor="start" x="209.53" y="-623.1" font-family="Inter,Arial" font-weight="bold" font-size="10.00" fill="#614000">embassy&#45;sync</text>
<text xml:space="preserve" text-anchor="start" x="231.65" y="-613.1" font-family="Inter,Arial" font-size="10.00" fill="#614000">0.8.0</text>
</g>
<!-- n0&#45;&gt;out2 -->
<g id="edge5" class="edge">
<title>n0&#45;&gt;out2</title>
<path fill="none" stroke="#d19922" stroke-width="0.9" stroke-dasharray="5,2" d="M66.2,-418.59C76.66,-457.22 105.5,-545.48 161.02,-595.6 164.54,-598.77 168.41,-601.64 172.51,-604.22"/>
<polygon fill="#d19922" stroke="#d19922" stroke-width="0.9" points="171.32,-605.75 177.03,-606.87 173.26,-602.43 171.32,-605.75"/>
</g>
<!-- out3 -->
<g id="node13" class="node">
<title>out3</title>
<polygon fill="#fff8e8" stroke="#d19922" points="316.54,-583.2 162.52,-583.2 162.52,-546 322.54,-546 322.54,-577.2 316.54,-583.2"/>
<polyline fill="none" stroke="#d19922" points="316.54,-583.2 316.54,-577.2"/>
<polyline fill="none" stroke="#d19922" points="322.54,-577.2 316.54,-577.2"/>
<text xml:space="preserve" text-anchor="start" x="168.28" y="-571.1" font-family="Inter,Arial" font-size="10.00" fill="#614000">to embassy&#45;time&#45;driver&#45;v0.2.2.svg</text>
<text xml:space="preserve" text-anchor="start" x="195.28" y="-561.1" font-family="Inter,Arial" font-weight="bold" font-size="10.00" fill="#614000">embassy&#45;time&#45;driver</text>
<text xml:space="preserve" text-anchor="start" x="231.65" y="-551.1" font-family="Inter,Arial" font-size="10.00" fill="#614000">0.2.2</text>
</g>
<!-- n0&#45;&gt;out3 -->
<g id="edge6" class="edge">
<title>n0&#45;&gt;out3</title>
<path fill="none" stroke="#d19922" stroke-width="0.9" stroke-dasharray="5,2" d="M70.87,-418.25C86.09,-446.83 118.8,-501.52 161.02,-533.6 165.39,-536.92 170.16,-539.93 175.13,-542.64"/>
<polygon fill="#d19922" stroke="#d19922" stroke-width="0.9" points="174.05,-544.25 179.82,-545.07 175.82,-540.83 174.05,-544.25"/>
</g>
<!-- out4 -->
<g id="node14" class="node">
<title>out4</title>
<polygon fill="#fff8e8" stroke="#d19922" points="318.04,-521.2 161.02,-521.2 161.02,-474 324.04,-474 324.04,-515.2 318.04,-521.2"/>
<polyline fill="none" stroke="#d19922" points="318.04,-521.2 318.04,-515.2"/>
<polyline fill="none" stroke="#d19922" points="324.04,-515.2 318.04,-515.2"/>
<text xml:space="preserve" text-anchor="start" x="181.78" y="-509.1" font-family="Inter,Arial" font-size="10.00" fill="#614000">to embassy&#45;time&#45;v0.5.1.svg</text>
<text xml:space="preserve" text-anchor="start" x="210.28" y="-499.1" font-family="Inter,Arial" font-weight="bold" font-size="10.00" fill="#614000">embassy&#45;time</text>
<text xml:space="preserve" text-anchor="start" x="231.65" y="-489.1" font-family="Inter,Arial" font-size="10.00" fill="#614000">0.5.1</text>
<text xml:space="preserve" text-anchor="start" x="166.78" y="-479.1" font-family="Inter,Arial" font-size="10.00" fill="#614000">/vendor/embassy&#45;time&#45;0.5.1&#45;trueos</text>
</g>
<!-- n0&#45;&gt;out4 -->
<g id="edge7" class="edge">
<title>n0&#45;&gt;out4</title>
<path fill="none" stroke="#d19922" stroke-width="0.9" stroke-dasharray="5,2" d="M89.64,-418.57C109.24,-431.42 136.22,-448.41 161.02,-461.6 166.8,-464.67 172.89,-467.72 179.04,-470.68"/>
<polygon fill="#d19922" stroke="#d19922" stroke-width="0.9" points="178.16,-472.39 183.95,-473.01 179.81,-468.91 178.16,-472.39"/>
</g>
<!-- out6 -->
<g id="node16" class="node">
<title>out6</title>
<polygon fill="#fff8e8" stroke="#d19922" points="283.91,-449.2 195.14,-449.2 195.14,-412 289.91,-412 289.91,-443.2 283.91,-449.2"/>
<polyline fill="none" stroke="#d19922" points="283.91,-449.2 283.91,-443.2"/>
<polyline fill="none" stroke="#d19922" points="289.91,-443.2 283.91,-443.2"/>
<text xml:space="preserve" text-anchor="start" x="200.9" y="-437.1" font-family="Inter,Arial" font-size="10.00" fill="#614000">to libm&#45;v0.2.16.svg</text>
<text xml:space="preserve" text-anchor="start" x="232.03" y="-427.1" font-family="Inter,Arial" font-weight="bold" font-size="10.00" fill="#614000">libm</text>
<text xml:space="preserve" text-anchor="start" x="229.03" y="-417.1" font-family="Inter,Arial" font-size="10.00" fill="#614000">0.2.16</text>
</g>
<!-- n0&#45;&gt;out6 -->
<g id="edge9" class="edge">
<title>n0&#45;&gt;out6</title>
<path fill="none" stroke="#d19922" stroke-width="0.9" stroke-dasharray="5,2" d="M104.63,-407.03C129.66,-411.34 161.4,-416.8 188.01,-421.38"/>
<polygon fill="#d19922" stroke="#d19922" stroke-width="0.9" points="187.57,-423.26 193.32,-422.3 188.22,-419.47 187.57,-423.26"/>
</g>
<!-- out8 -->
<g id="node18" class="node">
<title>out8</title>
<polygon fill="#fff8e8" stroke="#d19922" points="291.04,-387.2 188.02,-387.2 188.02,-350 297.04,-350 297.04,-381.2 291.04,-387.2"/>
<polyline fill="none" stroke="#d19922" points="291.04,-387.2 291.04,-381.2"/>
<polyline fill="none" stroke="#d19922" points="297.04,-381.2 291.04,-381.2"/>
<text xml:space="preserve" text-anchor="start" x="193.78" y="-375.1" font-family="Inter,Arial" font-size="10.00" fill="#614000">to parry2d&#45;v0.26.0.svg</text>
<text xml:space="preserve" text-anchor="start" x="224.9" y="-365.1" font-family="Inter,Arial" font-weight="bold" font-size="10.00" fill="#614000">parry2d</text>
<text xml:space="preserve" text-anchor="start" x="229.03" y="-355.1" font-family="Inter,Arial" font-size="10.00" fill="#614000">0.26.0</text>
</g>
<!-- n0&#45;&gt;out8 -->
<g id="edge11" class="edge">
<title>n0&#45;&gt;out8</title>
<path fill="none" stroke="#d19922" stroke-width="0.9" stroke-dasharray="5,2" d="M104.63,-392.17C127.55,-388.23 156.09,-383.31 181.17,-378.99"/>
<polygon fill="#d19922" stroke="#d19922" stroke-width="0.9" points="181.37,-380.91 186.47,-378.08 180.72,-377.12 181.37,-380.91"/>
</g>
<!-- out9 -->
<g id="node19" class="node">
<title>out9</title>
<polygon fill="#fff8e8" stroke="#d19922" points="283.91,-325.2 195.14,-325.2 195.14,-288 289.91,-288 289.91,-319.2 283.91,-325.2"/>
<polyline fill="none" stroke="#d19922" points="283.91,-325.2 283.91,-319.2"/>
<polyline fill="none" stroke="#d19922" points="289.91,-319.2 283.91,-319.2"/>
<text xml:space="preserve" text-anchor="start" x="200.9" y="-313.1" font-family="Inter,Arial" font-size="10.00" fill="#614000">to spin&#45;v0.10.0.svg</text>
<text xml:space="preserve" text-anchor="start" x="232.4" y="-303.1" font-family="Inter,Arial" font-weight="bold" font-size="10.00" fill="#614000">spin</text>
<text xml:space="preserve" text-anchor="start" x="229.03" y="-293.1" font-family="Inter,Arial" font-size="10.00" fill="#614000">0.10.0</text>
</g>
<!-- n0&#45;&gt;out9 -->
<g id="edge12" class="edge">
<title>n0&#45;&gt;out9</title>
<path fill="none" stroke="#d19922" stroke-width="0.9" stroke-dasharray="5,2" d="M88.58,-380.78C108.15,-367.66 135.52,-350.31 161.02,-337.6 169.82,-333.22 179.39,-329.04 188.77,-325.26"/>
<polygon fill="#d19922" stroke="#d19922" stroke-width="0.9" points="189.23,-327.15 193.63,-323.33 187.81,-323.57 189.23,-327.15"/>
</g>
<!-- out10 -->
<g id="node20" class="node">
<title>out10</title>
<polygon fill="#fff8e8" stroke="#d19922" points="300.04,-263.2 179.02,-263.2 179.02,-216 306.04,-216 306.04,-257.2 300.04,-263.2"/>
<polyline fill="none" stroke="#d19922" points="300.04,-263.2 300.04,-257.2"/>
<polyline fill="none" stroke="#d19922" points="306.04,-257.2 300.04,-257.2"/>
<text xml:space="preserve" text-anchor="start" x="184.78" y="-251.1" font-family="Inter,Arial" font-size="10.00" fill="#614000">to trueos&#45;locale&#45;v0.1.0.svg</text>
<text xml:space="preserve" text-anchor="start" x="212.53" y="-241.1" font-family="Inter,Arial" font-weight="bold" font-size="10.00" fill="#614000">trueos&#45;locale</text>
<text xml:space="preserve" text-anchor="start" x="231.65" y="-231.1" font-family="Inter,Arial" font-size="10.00" fill="#614000">0.1.0</text>
<text xml:space="preserve" text-anchor="start" x="198.28" y="-221.1" font-family="Inter,Arial" font-size="10.00" fill="#614000">/crates/trueos&#45;locale</text>
</g>
<!-- n0&#45;&gt;out10 -->
<g id="edge13" class="edge">
<title>n0&#45;&gt;out10</title>
<path fill="none" stroke="#d19922" stroke-width="0.9" stroke-dasharray="5,2" d="M72.49,-380.89C88.84,-354.39 121.91,-305.8 161.02,-275.6 165.02,-272.51 169.34,-269.61 173.81,-266.92"/>
<polygon fill="#d19922" stroke="#d19922" stroke-width="0.9" points="174.57,-268.7 178.37,-264.29 172.65,-265.37 174.57,-268.7"/>
</g>
<!-- out11 -->
<g id="node21" class="node">
<title>out11</title>
<polygon fill="#fff8e8" stroke="#d19922" points="298.16,-191.2 180.89,-191.2 180.89,-144 304.16,-144 304.16,-185.2 298.16,-191.2"/>
<polyline fill="none" stroke="#d19922" points="298.16,-191.2 298.16,-185.2"/>
<polyline fill="none" stroke="#d19922" points="304.16,-185.2 298.16,-185.2"/>
<text xml:space="preserve" text-anchor="start" x="186.65" y="-179.1" font-family="Inter,Arial" font-size="10.00" fill="#614000">to trueos&#45;math&#45;v0.1.0.svg</text>
<text xml:space="preserve" text-anchor="start" x="214.78" y="-169.1" font-family="Inter,Arial" font-weight="bold" font-size="10.00" fill="#614000">trueos&#45;math</text>
<text xml:space="preserve" text-anchor="start" x="231.65" y="-159.1" font-family="Inter,Arial" font-size="10.00" fill="#614000">0.1.0</text>
<text xml:space="preserve" text-anchor="start" x="200.15" y="-149.1" font-family="Inter,Arial" font-size="10.00" fill="#614000">/crates/trueos&#45;math</text>
</g>
<!-- n0&#45;&gt;out11 -->
<g id="edge14" class="edge">
<title>n0&#45;&gt;out11</title>
<path fill="none" stroke="#d19922" stroke-width="0.9" stroke-dasharray="5,2" d="M66.5,-380.55C77.44,-342.22 106.98,-255.04 161.02,-203.6 165.26,-199.57 170.02,-195.94 175.06,-192.68"/>
<polygon fill="#d19922" stroke="#d19922" stroke-width="0.9" points="175.76,-194.5 179.46,-190 173.76,-191.22 175.76,-194.5"/>
</g>
<!-- out12 -->
<g id="node22" class="node">
<title>out12</title>
<polygon fill="#fff8e8" stroke="#d19922" points="285.41,-119.2 193.64,-119.2 193.64,-72 291.41,-72 291.41,-113.2 285.41,-119.2"/>
<polyline fill="none" stroke="#d19922" points="285.41,-119.2 285.41,-113.2"/>
<polyline fill="none" stroke="#d19922" points="291.41,-113.2 285.41,-113.2"/>
<text xml:space="preserve" text-anchor="start" x="199.4" y="-107.1" font-family="Inter,Arial" font-size="10.00" fill="#614000">to usvg&#45;v0.45.1.svg</text>
<text xml:space="preserve" text-anchor="start" x="231.28" y="-97.1" font-family="Inter,Arial" font-weight="bold" font-size="10.00" fill="#614000">usvg</text>
<text xml:space="preserve" text-anchor="start" x="229.03" y="-87.1" font-family="Inter,Arial" font-size="10.00" fill="#614000">0.45.1</text>
<text xml:space="preserve" text-anchor="start" x="199.4" y="-77.1" font-family="Inter,Arial" font-size="10.00" fill="#614000">/vendor/usvg&#45;0.45.1</text>
</g>
<!-- n0&#45;&gt;out12 -->
<g id="edge15" class="edge">
<title>n0&#45;&gt;out12</title>
<path fill="none" stroke="#d19922" stroke-width="0.9" stroke-dasharray="5,2" d="M63.5,-380.77C69.49,-333.04 91.45,-205.84 161.02,-131.6 168.3,-123.83 177.57,-117.62 187.21,-112.7"/>
<polygon fill="#d19922" stroke="#d19922" stroke-width="0.9" points="187.89,-114.51 192.02,-110.4 186.23,-111.04 187.89,-114.51"/>
</g>
<!-- out13 -->
<g id="node23" class="node">
<title>out13</title>
<polygon fill="#fff8e8" stroke="#d19922" points="276.41,-47.2 202.64,-47.2 202.64,0 282.41,0 282.41,-41.2 276.41,-47.2"/>
<polyline fill="none" stroke="#d19922" points="276.41,-47.2 276.41,-41.2"/>
<polyline fill="none" stroke="#d19922" points="282.41,-41.2 276.41,-41.2"/>
<text xml:space="preserve" text-anchor="start" x="209.9" y="-35.1" font-family="Inter,Arial" font-size="10.00" fill="#614000">to v&#45;v0.1.0.svg</text>
<text xml:space="preserve" text-anchor="start" x="239.9" y="-25.1" font-family="Inter,Arial" font-weight="bold" font-size="10.00" fill="#614000">v</text>
<text xml:space="preserve" text-anchor="start" x="231.65" y="-15.1" font-family="Inter,Arial" font-size="10.00" fill="#614000">0.1.0</text>
<text xml:space="preserve" text-anchor="start" x="208.4" y="-5.1" font-family="Inter,Arial" font-size="10.00" fill="#614000">/crates/trueos&#45;v</text>
</g>
<!-- n0&#45;&gt;out13 -->
<g id="edge16" class="edge">
<title>n0&#45;&gt;out13</title>
<path fill="none" stroke="#d19922" stroke-width="0.9" stroke-dasharray="5,2" d="M61.74,-380.84C63.42,-324.95 75.69,-157.38 161.02,-59.6 170.28,-48.99 183.27,-41.36 196.12,-35.93"/>
<polygon fill="#d19922" stroke="#d19922" stroke-width="0.9" points="196.73,-37.76 201.14,-33.95 195.32,-34.18 196.73,-37.76"/>
</g>
<!-- n2 -->
<g id="node3" class="node">
<title>n2</title>
<path fill="#f7f9fb" stroke="#8b9bb0" d="M257.53,-1234.6C257.53,-1234.6 227.53,-1234.6 227.53,-1234.6 221.53,-1234.6 215.53,-1228.6 215.53,-1222.6 215.53,-1222.6 215.53,-1210.6 215.53,-1210.6 215.53,-1204.6 221.53,-1198.6 227.53,-1198.6 227.53,-1198.6 257.53,-1198.6 257.53,-1198.6 263.53,-1198.6 269.53,-1204.6 269.53,-1210.6 269.53,-1210.6 269.53,-1222.6 269.53,-1222.6 269.53,-1228.6 263.53,-1234.6 257.53,-1234.6"/>
<text xml:space="preserve" text-anchor="start" x="224.9" y="-1218.1" font-family="Inter,Arial" font-weight="bold" font-size="10.00" fill="#172033">data&#45;url</text>
<text xml:space="preserve" text-anchor="start" x="231.65" y="-1208.1" font-family="Inter,Arial" font-size="10.00" fill="#172033">0.3.2</text>
</g>
<!-- n3 -->
<g id="node4" class="node">
<title>n3</title>
<path fill="#fff0d5" stroke="#c47a1a" d="M291.04,-1173.2C291.04,-1173.2 194.02,-1173.2 194.02,-1173.2 188.02,-1173.2 182.02,-1167.2 182.02,-1161.2 182.02,-1161.2 182.02,-1148 182.02,-1148 182.02,-1142 188.02,-1136 194.02,-1136 194.02,-1136 291.04,-1136 291.04,-1136 297.04,-1136 303.04,-1142 303.04,-1148 303.04,-1148 303.04,-1161.2 303.04,-1161.2 303.04,-1167.2 297.04,-1173.2 291.04,-1173.2"/>
<text xml:space="preserve" text-anchor="start" x="218.9" y="-1161.1" font-family="Inter,Arial" font-weight="bold" font-size="10.00" fill="#172033">imagesize</text>
<text xml:space="preserve" text-anchor="start" x="229.03" y="-1151.1" font-family="Inter,Arial" font-size="10.00" fill="#172033">0.13.0</text>
<text xml:space="preserve" text-anchor="start" x="187.78" y="-1141.1" font-family="Inter,Arial" font-size="10.00" fill="#172033">/vendor/imagesize&#45;0.13.0</text>
</g>
<!-- out0 -->
<g id="node10" class="node">
<title>out0</title>
<polygon fill="#fff8e8" stroke="#d19922" points="455.81,-1173.2 366.29,-1173.2 366.29,-1136 461.81,-1136 461.81,-1167.2 455.81,-1173.2"/>
<polyline fill="none" stroke="#d19922" points="455.81,-1173.2 455.81,-1167.2"/>
<polyline fill="none" stroke="#d19922" points="461.81,-1167.2 455.81,-1167.2"/>
<text xml:space="preserve" text-anchor="start" x="372.05" y="-1161.1" font-family="Inter,Arial" font-size="10.00" fill="#614000">to core3&#45;v0.1.2.svg</text>
<text xml:space="preserve" text-anchor="start" x="401.3" y="-1151.1" font-family="Inter,Arial" font-weight="bold" font-size="10.00" fill="#614000">core3</text>
<text xml:space="preserve" text-anchor="start" x="403.17" y="-1141.1" font-family="Inter,Arial" font-size="10.00" fill="#614000">0.1.2</text>
</g>
<!-- n3&#45;&gt;out0 -->
<g id="edge3" class="edge">
<title>n3&#45;&gt;out0</title>
<path fill="none" stroke="#d19922" stroke-width="0.9" stroke-dasharray="5,2" d="M303.3,-1154.6C321.55,-1154.6 341.5,-1154.6 359.33,-1154.6"/>
<polygon fill="#d19922" stroke="#d19922" stroke-width="0.9" points="358.93,-1156.53 364.43,-1154.6 358.93,-1152.68 358.93,-1156.53"/>
</g>
<!-- n4 -->
<g id="node5" class="node">
<title>n4</title>
<path fill="#f7f9fb" stroke="#8b9bb0" d="M258.41,-1110.6C258.41,-1110.6 226.64,-1110.6 226.64,-1110.6 220.64,-1110.6 214.64,-1104.6 214.64,-1098.6 214.64,-1098.6 214.64,-1086.6 214.64,-1086.6 214.64,-1080.6 220.64,-1074.6 226.64,-1074.6 226.64,-1074.6 258.41,-1074.6 258.41,-1074.6 264.41,-1074.6 270.41,-1080.6 270.41,-1086.6 270.41,-1086.6 270.41,-1098.6 270.41,-1098.6 270.41,-1104.6 264.41,-1110.6 258.41,-1110.6"/>
<text xml:space="preserve" text-anchor="start" x="220.4" y="-1094.1" font-family="Inter,Arial" font-weight="bold" font-size="10.00" fill="#172033">roxmltree</text>
<text xml:space="preserve" text-anchor="start" x="229.03" y="-1084.1" font-family="Inter,Arial" font-size="10.00" fill="#172033">0.20.0</text>
</g>
<!-- n5 -->
<g id="node6" class="node">
<title>n5</title>
<path fill="#f7f9fb" stroke="#8b9bb0" d="M259.91,-1049.6C259.91,-1049.6 225.14,-1049.6 225.14,-1049.6 219.14,-1049.6 213.14,-1043.6 213.14,-1037.6 213.14,-1037.6 213.14,-1025.6 213.14,-1025.6 213.14,-1019.6 219.14,-1013.6 225.14,-1013.6 225.14,-1013.6 259.91,-1013.6 259.91,-1013.6 265.91,-1013.6 271.91,-1019.6 271.91,-1025.6 271.91,-1025.6 271.91,-1037.6 271.91,-1037.6 271.91,-1043.6 265.91,-1049.6 259.91,-1049.6"/>
<text xml:space="preserve" text-anchor="start" x="218.9" y="-1033.1" font-family="Inter,Arial" font-weight="bold" font-size="10.00" fill="#172033">simplecss</text>
<text xml:space="preserve" text-anchor="start" x="231.65" y="-1023.1" font-family="Inter,Arial" font-size="10.00" fill="#172033">0.2.2</text>
</g>
<!-- out7 -->
<g id="node17" class="node">
<title>out7</title>
<polygon fill="#fff8e8" stroke="#d19922" points="452.81,-1053.2 369.29,-1053.2 369.29,-1016 458.81,-1016 458.81,-1047.2 452.81,-1053.2"/>
<polyline fill="none" stroke="#d19922" points="452.81,-1053.2 452.81,-1047.2"/>
<polyline fill="none" stroke="#d19922" points="458.81,-1047.2 452.81,-1047.2"/>
<text xml:space="preserve" text-anchor="start" x="375.05" y="-1041.1" font-family="Inter,Arial" font-size="10.00" fill="#614000">to log&#45;v0.4.29.svg</text>
<text xml:space="preserve" text-anchor="start" x="406.55" y="-1031.1" font-family="Inter,Arial" font-weight="bold" font-size="10.00" fill="#614000">log</text>
<text xml:space="preserve" text-anchor="start" x="400.55" y="-1021.1" font-family="Inter,Arial" font-size="10.00" fill="#614000">0.4.29</text>
</g>
<!-- n5&#45;&gt;out7 -->
<g id="edge10" class="edge">
<title>n5&#45;&gt;out7</title>
<path fill="none" stroke="#d19922" stroke-width="0.9" stroke-dasharray="5,2" d="M272.29,-1032.11C296.88,-1032.54 332.85,-1033.18 362.27,-1033.7"/>
<polygon fill="#d19922" stroke="#d19922" stroke-width="0.9" points="361.93,-1035.62 367.47,-1033.79 362,-1031.77 361.93,-1035.62"/>
</g>
<!-- n6 -->
<g id="node7" class="node">
<title>n6</title>
<path fill="#f7f9fb" stroke="#8b9bb0" d="M430.68,-990.6C430.68,-990.6 397.41,-990.6 397.41,-990.6 391.41,-990.6 385.41,-984.6 385.41,-978.6 385.41,-978.6 385.41,-966.6 385.41,-966.6 385.41,-960.6 391.41,-954.6 397.41,-954.6 397.41,-954.6 430.68,-954.6 430.68,-954.6 436.68,-954.6 442.68,-960.6 442.68,-966.6 442.68,-966.6 442.68,-978.6 442.68,-978.6 442.68,-984.6 436.68,-990.6 430.68,-990.6"/>
<text xml:space="preserve" text-anchor="start" x="391.17" y="-974.1" font-family="Inter,Arial" font-weight="bold" font-size="10.00" fill="#172033">siphasher</text>
<text xml:space="preserve" text-anchor="start" x="403.17" y="-964.1" font-family="Inter,Arial" font-size="10.00" fill="#172033">1.0.3</text>
</g>
<!-- n7 -->
<g id="node8" class="node">
<title>n7</title>
<path fill="#fff0d5" stroke="#c47a1a" d="M288.79,-937.2C288.79,-937.2 196.27,-937.2 196.27,-937.2 190.27,-937.2 184.27,-931.2 184.27,-925.2 184.27,-925.2 184.27,-912 184.27,-912 184.27,-906 190.27,-900 196.27,-900 196.27,-900 288.79,-900 288.79,-900 294.79,-900 300.79,-906 300.79,-912 300.79,-912 300.79,-925.2 300.79,-925.2 300.79,-931.2 294.79,-937.2 288.79,-937.2"/>
<text xml:space="preserve" text-anchor="start" x="221.9" y="-925.1" font-family="Inter,Arial" font-weight="bold" font-size="10.00" fill="#172033">svgtypes</text>
<text xml:space="preserve" text-anchor="start" x="229.03" y="-915.1" font-family="Inter,Arial" font-size="10.00" fill="#172033">0.15.3</text>
<text xml:space="preserve" text-anchor="start" x="190.03" y="-905.1" font-family="Inter,Arial" font-size="10.00" fill="#172033">/vendor/svgtypes&#45;0.15.3</text>
</g>
<!-- n7&#45;&gt;n6 -->
<g id="edge1" class="edge">
<title>n7&#45;&gt;n6</title>
<path fill="none" stroke="#9aa8b8" stroke-width="0.9" d="M300.92,-936.88C326.8,-945.13 356.49,-954.58 378.81,-961.69"/>
<polygon fill="#9aa8b8" stroke="#9aa8b8" stroke-width="0.9" points="378.08,-963.48 383.9,-963.31 379.25,-959.81 378.08,-963.48"/>
</g>
<!-- out5 -->
<g id="node15" class="node">
<title>out5</title>
<polygon fill="#fff8e8" stroke="#d19922" points="458.06,-929.2 364.04,-929.2 364.04,-882 464.06,-882 464.06,-923.2 458.06,-929.2"/>
<polyline fill="none" stroke="#d19922" points="458.06,-929.2 458.06,-923.2"/>
<polyline fill="none" stroke="#d19922" points="464.06,-923.2 458.06,-923.2"/>
<text xml:space="preserve" text-anchor="start" x="369.8" y="-917.1" font-family="Inter,Arial" font-size="10.00" fill="#614000">to kurbo&#45;v0.11.3.svg</text>
<text xml:space="preserve" text-anchor="start" x="400.55" y="-907.1" font-family="Inter,Arial" font-weight="bold" font-size="10.00" fill="#614000">kurbo</text>
<text xml:space="preserve" text-anchor="start" x="400.55" y="-897.1" font-family="Inter,Arial" font-size="10.00" fill="#614000">0.11.3</text>
<text xml:space="preserve" text-anchor="start" x="369.8" y="-887.1" font-family="Inter,Arial" font-size="10.00" fill="#614000">/vendor/kurbo&#45;0.11.3</text>
</g>
<!-- n7&#45;&gt;out5 -->
<g id="edge8" class="edge">
<title>n7&#45;&gt;out5</title>
<path fill="none" stroke="#d19922" stroke-width="0.9" stroke-dasharray="5,2" d="M300.92,-914.2C319.06,-912.81 339.07,-911.27 357.1,-909.89"/>
<polygon fill="#d19922" stroke="#d19922" stroke-width="0.9" points="356.95,-911.83 362.29,-909.49 356.66,-907.99 356.95,-911.83"/>
</g>
<!-- n8 -->
<g id="node9" class="node">
<title>n8</title>
<path fill="#fff0d5" stroke="#c47a1a" d="M286.16,-875.2C286.16,-875.2 198.89,-875.2 198.89,-875.2 192.89,-875.2 186.89,-869.2 186.89,-863.2 186.89,-863.2 186.89,-850 186.89,-850 186.89,-844 192.89,-838 198.89,-838 198.89,-838 286.16,-838 286.16,-838 292.16,-838 298.16,-844 298.16,-850 298.16,-850 298.16,-863.2 298.16,-863.2 298.16,-869.2 292.16,-875.2 286.16,-875.2"/>
<text xml:space="preserve" text-anchor="start" x="220.78" y="-863.1" font-family="Inter,Arial" font-weight="bold" font-size="10.00" fill="#172033">xmlwriter</text>
<text xml:space="preserve" text-anchor="start" x="231.65" y="-853.1" font-family="Inter,Arial" font-size="10.00" fill="#172033">0.1.0</text>
<text xml:space="preserve" text-anchor="start" x="192.65" y="-843.1" font-family="Inter,Arial" font-size="10.00" fill="#172033">/vendor/xmlwriter&#45;0.1.0</text>
</g>
<!-- in14 -->
<g id="node24" class="node">
<title>in14</title>
<polygon fill="#eef6ff" stroke="#4b8fc5" points="115.02,-1125.2 0,-1125.2 0,-938 121.02,-938 121.02,-1119.2 115.02,-1125.2"/>
<polyline fill="none" stroke="#4b8fc5" points="115.02,-1125.2 115.02,-1119.2"/>
<polyline fill="none" stroke="#4b8fc5" points="121.02,-1119.2 115.02,-1119.2"/>
<text xml:space="preserve" text-anchor="start" x="11.76" y="-1113.1" font-family="Inter,Arial" font-size="10.00" fill="#123d5c">from usvg&#45;v0.45.1.svg</text>
<text xml:space="preserve" text-anchor="start" x="42.88" y="-1103.1" font-family="Inter,Arial" font-weight="bold" font-size="10.00" fill="#123d5c">data&#45;url</text>
<text xml:space="preserve" text-anchor="start" x="49.63" y="-1093.1" font-family="Inter,Arial" font-size="10.00" fill="#123d5c">0.3.2</text>
<text xml:space="preserve" text-anchor="start" x="36.88" y="-1083.1" font-family="Inter,Arial" font-weight="bold" font-size="10.00" fill="#123d5c">imagesize</text>
<text xml:space="preserve" text-anchor="start" x="47.01" y="-1073.1" font-family="Inter,Arial" font-size="10.00" fill="#123d5c">0.13.0</text>
<text xml:space="preserve" text-anchor="start" x="5.76" y="-1063.1" font-family="Inter,Arial" font-size="10.00" fill="#123d5c">/vendor/imagesize&#45;0.13.0</text>
<text xml:space="preserve" text-anchor="start" x="38.38" y="-1053.1" font-family="Inter,Arial" font-weight="bold" font-size="10.00" fill="#123d5c">roxmltree</text>
<text xml:space="preserve" text-anchor="start" x="47.01" y="-1043.1" font-family="Inter,Arial" font-size="10.00" fill="#123d5c">0.20.0</text>
<text xml:space="preserve" text-anchor="start" x="36.88" y="-1033.1" font-family="Inter,Arial" font-weight="bold" font-size="10.00" fill="#123d5c">simplecss</text>
<text xml:space="preserve" text-anchor="start" x="49.63" y="-1023.1" font-family="Inter,Arial" font-size="10.00" fill="#123d5c">0.2.2</text>
<text xml:space="preserve" text-anchor="start" x="37.63" y="-1013.1" font-family="Inter,Arial" font-weight="bold" font-size="10.00" fill="#123d5c">siphasher</text>
<text xml:space="preserve" text-anchor="start" x="49.63" y="-1003.1" font-family="Inter,Arial" font-size="10.00" fill="#123d5c">1.0.3</text>
<text xml:space="preserve" text-anchor="start" x="39.88" y="-993.1" font-family="Inter,Arial" font-weight="bold" font-size="10.00" fill="#123d5c">svgtypes</text>
<text xml:space="preserve" text-anchor="start" x="47.01" y="-983.1" font-family="Inter,Arial" font-size="10.00" fill="#123d5c">0.15.3</text>
<text xml:space="preserve" text-anchor="start" x="8.01" y="-973.1" font-family="Inter,Arial" font-size="10.00" fill="#123d5c">/vendor/svgtypes&#45;0.15.3</text>
<text xml:space="preserve" text-anchor="start" x="38.76" y="-963.1" font-family="Inter,Arial" font-weight="bold" font-size="10.00" fill="#123d5c">xmlwriter</text>
<text xml:space="preserve" text-anchor="start" x="49.63" y="-953.1" font-family="Inter,Arial" font-size="10.00" fill="#123d5c">0.1.0</text>
<text xml:space="preserve" text-anchor="start" x="10.63" y="-943.1" font-family="Inter,Arial" font-size="10.00" fill="#123d5c">/vendor/xmlwriter&#45;0.1.0</text>
</g>
<!-- in14&#45;&gt;n2 -->
<g id="edge17" class="edge">
<title>in14&#45;&gt;n2</title>
<path fill="none" stroke="#4b8fc5" stroke-width="0.9" stroke-dasharray="5,2" d="M108.86,-1125.51C123.27,-1147.42 140.76,-1169.14 161.02,-1185.6 174.75,-1196.76 192.95,-1204.22 208.57,-1209.02"/>
<polygon fill="#4b8fc5" stroke="#4b8fc5" stroke-width="0.9" points="207.96,-1210.85 213.78,-1210.54 209.04,-1207.15 207.96,-1210.85"/>
</g>
<!-- in14&#45;&gt;n3 -->
<g id="edge18" class="edge">
<title>in14&#45;&gt;n3</title>
<path fill="none" stroke="#4b8fc5" stroke-width="0.9" stroke-dasharray="5,2" d="M121.44,-1093.66C133.85,-1104.53 147.34,-1115.08 161.02,-1123.6 166.36,-1126.92 172.12,-1129.99 178.01,-1132.8"/>
<polygon fill="#4b8fc5" stroke="#4b8fc5" stroke-width="0.9" points="176.89,-1134.41 182.69,-1134.95 178.5,-1130.91 176.89,-1134.41"/>
</g>
<!-- in14&#45;&gt;n4 -->
<g id="edge19" class="edge">
<title>in14&#45;&gt;n4</title>
<path fill="none" stroke="#4b8fc5" stroke-width="0.9" stroke-dasharray="5,2" d="M121.45,-1051.91C150.37,-1061.71 183.97,-1073.1 208.26,-1081.33"/>
<polygon fill="#4b8fc5" stroke="#4b8fc5" stroke-width="0.9" points="207.42,-1083.07 213.25,-1083.02 208.66,-1079.43 207.42,-1083.07"/>
</g>
<!-- in14&#45;&gt;n5 -->
<g id="edge20" class="edge">
<title>in14&#45;&gt;n5</title>
<path fill="none" stroke="#4b8fc5" stroke-width="0.9" stroke-dasharray="5,2" d="M121.45,-1031.6C149.69,-1031.6 182.38,-1031.6 206.52,-1031.6"/>
<polygon fill="#4b8fc5" stroke="#4b8fc5" stroke-width="0.9" points="206.23,-1033.53 211.73,-1031.6 206.23,-1029.68 206.23,-1033.53"/>
</g>
<!-- in14&#45;&gt;n6 -->
<g id="edge21" class="edge">
<title>in14&#45;&gt;n6</title>
<path fill="none" stroke="#4b8fc5" stroke-width="0.9" stroke-dasharray="5,2" d="M121.32,-1011.69C134.3,-1007.9 148.03,-1004.28 161.02,-1001.6 237.85,-985.73 329.78,-977.91 378.6,-974.61"/>
<polygon fill="#4b8fc5" stroke="#4b8fc5" stroke-width="0.9" points="378.48,-976.55 383.84,-974.27 378.22,-972.71 378.48,-976.55"/>
</g>
<!-- in14&#45;&gt;n7 -->
<g id="edge22" class="edge">
<title>in14&#45;&gt;n7</title>
<path fill="none" stroke="#4b8fc5" stroke-width="0.9" stroke-dasharray="5,2" d="M121.44,-983.35C134.17,-973.98 147.78,-964.6 161.02,-956.6 170.53,-950.85 181.05,-945.34 191.26,-940.38"/>
<polygon fill="#4b8fc5" stroke="#4b8fc5" stroke-width="0.9" points="191.87,-942.22 196,-938.11 190.2,-938.75 191.87,-942.22"/>
</g>
<!-- in14&#45;&gt;n8 -->
<g id="edge23" class="edge">
<title>in14&#45;&gt;n8</title>
<path fill="none" stroke="#4b8fc5" stroke-width="0.9" stroke-dasharray="5,2" d="M114.09,-937.83C127.58,-919.41 143.35,-901.51 161.02,-887.6 167,-882.9 173.77,-878.84 180.79,-875.36"/>
<polygon fill="#4b8fc5" stroke="#4b8fc5" stroke-width="0.9" points="181.34,-877.22 185.5,-873.14 179.7,-873.74 181.34,-877.22"/>
</g>
</g>
</svg>
