<?xml version="1.0" encoding="UTF-8" standalone="no"?>
<!DOCTYPE svg PUBLIC "-//W3C//DTD SVG 1.1//EN"
 "http://www.w3.org/Graphics/SVG/1.1/DTD/svg11.dtd">
<!-- Generated by graphviz version 14.1.2 (0)
 -->
<!-- Title: trueos&#45;io&#45;v0.1.0 Pages: 1 -->
<svg width="419pt" height="299pt"
 viewBox="0.00 0.00 419.00 299.00" xmlns="http://www.w3.org/2000/svg" xmlns:xlink="http://www.w3.org/1999/xlink">
<g id="graph0" class="graph" transform="scale(1 1) rotate(0) translate(4 295.4)">
<title>trueos&#45;io&#45;v0.1.0</title>
<polygon fill="white" stroke="none" points="-4,4 -4,-295.4 415.41,-295.4 415.41,4 -4,4"/>
<!-- n0 -->
<g id="node1" class="node">
<title>n0</title>
<path fill="#dff3ff" stroke="#1b78a6" d="M256.69,-170.4C256.69,-170.4 184.72,-170.4 184.72,-170.4 178.72,-170.4 172.72,-164.4 172.72,-158.4 172.72,-158.4 172.72,-132 172.72,-132 172.72,-126 178.72,-120 184.72,-120 184.72,-120 256.69,-120 256.69,-120 262.69,-120 268.69,-126 268.69,-132 268.69,-132 268.69,-158.4 268.69,-158.4 268.69,-164.4 262.69,-170.4 256.69,-170.4"/>
<text xml:space="preserve" text-anchor="start" x="191.83" y="-151.85" font-family="Inter,Arial" font-weight="bold" font-size="13.00" fill="#172033">trueos&#45;io</text>
<text xml:space="preserve" text-anchor="start" x="207.58" y="-139.8" font-family="Inter,Arial" font-size="12.00" fill="#172033">0.1.0</text>
<text xml:space="preserve" text-anchor="start" x="182.08" y="-128.75" font-family="Inter,Arial" font-size="11.00" fill="#172033">/crates/trueos&#45;io</text>
</g>
<!-- out0 -->
<g id="node2" class="node">
<title>out0</title>
<polygon fill="#fff8e8" stroke="#d19922" points="405.41,-167.4 308.69,-167.4 308.69,-123 411.41,-123 411.41,-161.4 405.41,-167.4"/>
<polyline fill="none" stroke="#d19922" points="405.41,-167.4 405.41,-161.4"/>
<polyline fill="none" stroke="#d19922" points="411.41,-161.4 405.41,-161.4"/>
<text xml:space="preserve" text-anchor="start" x="318.05" y="-151.7" font-family="Inter,Arial" font-size="10.00" fill="#614000">to core3&#45;v0.1.2.svg</text>
<text xml:space="preserve" text-anchor="start" x="347.3" y="-141.7" font-family="Inter,Arial" font-weight="bold" font-size="10.00" fill="#614000">core3</text>
<text xml:space="preserve" text-anchor="start" x="349.17" y="-131.7" font-family="Inter,Arial" font-size="10.00" fill="#614000">0.1.2</text>
</g>
<!-- n0&#45;&gt;out0 -->
<g id="edge1" class="edge">
<title>n0&#45;&gt;out0</title>
<path fill="none" stroke="#d19922" stroke-width="7.2" stroke-dasharray="5,2" d="M268.97,-145.2C277.82,-145.2 287.19,-145.2 296.42,-145.2"/>
<polygon fill="#d19922" stroke="#d19922" stroke-width="7.2" points="296.16,-148.67 301.66,-145.2 296.16,-141.74 296.16,-148.67"/>
</g>
<!-- in1 -->
<g id="node3" class="node">
<title>in1</title>
<polygon fill="#eef6ff" stroke="#4b8fc5" points="117.34,-291.4 9.38,-291.4 9.38,-237 123.34,-237 123.34,-285.4 117.34,-291.4"/>
<polyline fill="none" stroke="#4b8fc5" points="117.34,-291.4 117.34,-285.4"/>
<polyline fill="none" stroke="#4b8fc5" points="123.34,-285.4 117.34,-285.4"/>
<text xml:space="preserve" text-anchor="start" x="18.74" y="-275.7" font-family="Inter,Arial" font-size="10.00" fill="#123d5c">from hyper&#45;v1.9.0.svg</text>
<text xml:space="preserve" text-anchor="start" x="45.74" y="-265.7" font-family="Inter,Arial" font-weight="bold" font-size="10.00" fill="#123d5c">trueos&#45;io</text>
<text xml:space="preserve" text-anchor="start" x="55.49" y="-255.7" font-family="Inter,Arial" font-size="10.00" fill="#123d5c">0.1.0</text>
<text xml:space="preserve" text-anchor="start" x="31.11" y="-245.7" font-family="Inter,Arial" font-size="10.00" fill="#123d5c">/crates/trueos&#45;io</text>
</g>
<!-- in1&#45;&gt;n0 -->
<g id="edge2" class="edge">
<title>in1&#45;&gt;n0</title>
<path fill="none" stroke="#4b8fc5" stroke-width="7.2" stroke-dasharray="5,2" d="M116.27,-236.53C121.93,-232.89 127.53,-229.07 132.72,-225.2 151.28,-211.36 170.38,-194.17 185.94,-179.28"/>
<polygon fill="#4b8fc5" stroke="#4b8fc5" stroke-width="7.2" points="188.28,-181.84 189.81,-175.53 183.45,-176.87 188.28,-181.84"/>
</g>
<!-- in2 -->
<g id="node4" class="node">
<title>in2</title>
<polygon fill="#eef6ff" stroke="#4b8fc5" points="113.22,-212.4 13.5,-212.4 13.5,-158 119.22,-158 119.22,-206.4 113.22,-212.4"/>
<polyline fill="none" stroke="#4b8fc5" points="113.22,-212.4 113.22,-206.4"/>
<polyline fill="none" stroke="#4b8fc5" points="119.22,-206.4 113.22,-206.4"/>
<text xml:space="preserve" text-anchor="start" x="22.86" y="-196.7" font-family="Inter,Arial" font-size="10.00" fill="#123d5c">from mio&#45;v1.2.0.svg</text>
<text xml:space="preserve" text-anchor="start" x="45.74" y="-186.7" font-family="Inter,Arial" font-weight="bold" font-size="10.00" fill="#123d5c">trueos&#45;io</text>
<text xml:space="preserve" text-anchor="start" x="55.49" y="-176.7" font-family="Inter,Arial" font-size="10.00" fill="#123d5c">0.1.0</text>
<text xml:space="preserve" text-anchor="start" x="31.11" y="-166.7" font-family="Inter,Arial" font-size="10.00" fill="#123d5c">/crates/trueos&#45;io</text>
</g>
<!-- in2&#45;&gt;n0 -->
<g id="edge3" class="edge">
<title>in2&#45;&gt;n0</title>
<path fill="none" stroke="#4b8fc5" stroke-width="7.2" stroke-dasharray="5,2" d="M119.36,-171.55C132.63,-168.06 146.99,-164.29 160.58,-160.72"/>
<polygon fill="#4b8fc5" stroke="#4b8fc5" stroke-width="7.2" points="161.31,-164.11 165.75,-159.37 159.55,-157.41 161.31,-164.11"/>
</g>
<!-- in3 -->
<g id="node5" class="node">
<title>in3</title>
<polygon fill="#eef6ff" stroke="#4b8fc5" points="122.6,-133.4 4.13,-133.4 4.13,-79 128.6,-79 128.6,-127.4 122.6,-133.4"/>
<polyline fill="none" stroke="#4b8fc5" points="122.6,-133.4 122.6,-127.4"/>
<polyline fill="none" stroke="#4b8fc5" points="128.6,-127.4 122.6,-127.4"/>
<text xml:space="preserve" text-anchor="start" x="13.49" y="-117.7" font-family="Inter,Arial" font-size="10.00" fill="#123d5c">from socket2&#45;v0.6.3.svg</text>
<text xml:space="preserve" text-anchor="start" x="45.74" y="-107.7" font-family="Inter,Arial" font-weight="bold" font-size="10.00" fill="#123d5c">trueos&#45;io</text>
<text xml:space="preserve" text-anchor="start" x="55.49" y="-97.7" font-family="Inter,Arial" font-size="10.00" fill="#123d5c">0.1.0</text>
<text xml:space="preserve" text-anchor="start" x="31.11" y="-87.7" font-family="Inter,Arial" font-size="10.00" fill="#123d5c">/crates/trueos&#45;io</text>
</g>
<!-- in3&#45;&gt;n0 -->
<g id="edge4" class="edge">
<title>in3&#45;&gt;n0</title>
<path fill="none" stroke="#4b8fc5" stroke-width="7.2" stroke-dasharray="5,2" d="M128.89,-121.95C139.45,-124.65 150.4,-127.46 160.88,-130.14"/>
<polygon fill="#4b8fc5" stroke="#4b8fc5" stroke-width="7.2" points="159.75,-133.43 165.94,-131.44 161.47,-126.71 159.75,-133.43"/>
</g>
<!-- in4 -->
<g id="node6" class="node">
<title>in4</title>
<polygon fill="#eef6ff" stroke="#4b8fc5" points="126.72,-54.4 0,-54.4 0,0 132.72,0 132.72,-48.4 126.72,-54.4"/>
<polyline fill="none" stroke="#4b8fc5" points="126.72,-54.4 126.72,-48.4"/>
<polyline fill="none" stroke="#4b8fc5" points="132.72,-48.4 126.72,-48.4"/>
<text xml:space="preserve" text-anchor="start" x="9.36" y="-38.7" font-family="Inter,Arial" font-size="10.00" fill="#123d5c">from trueos&#45;lsd&#45;v1.1.5.svg</text>
<text xml:space="preserve" text-anchor="start" x="45.74" y="-28.7" font-family="Inter,Arial" font-weight="bold" font-size="10.00" fill="#123d5c">trueos&#45;io</text>
<text xml:space="preserve" text-anchor="start" x="55.49" y="-18.7" font-family="Inter,Arial" font-size="10.00" fill="#123d5c">0.1.0</text>
<text xml:space="preserve" text-anchor="start" x="31.11" y="-8.7" font-family="Inter,Arial" font-size="10.00" fill="#123d5c">/crates/trueos&#45;io</text>
</g>
<!-- in4&#45;&gt;n0 -->
<g id="edge5" class="edge">
<title>in4&#45;&gt;n0</title>
<path fill="none" stroke="#4b8fc5" stroke-width="7.2" stroke-dasharray="5,2" d="M115.9,-54.68C121.68,-58.38 127.41,-62.27 132.72,-66.2 151.08,-79.8 170.03,-96.63 185.53,-111.25"/>
<polygon fill="#4b8fc5" stroke="#4b8fc5" stroke-width="7.2" points="182.98,-113.6 189.35,-114.9 187.77,-108.59 182.98,-113.6"/>
</g>
</g>
</svg>
