<?xml version="1.0" encoding="UTF-8" standalone="no"?>
<!DOCTYPE svg PUBLIC "-//W3C//DTD SVG 1.1//EN"
 "http://www.w3.org/Graphics/SVG/1.1/DTD/svg11.dtd">
<!-- Generated by graphviz version 14.1.2 (0)
 -->
<!-- Title: trueos&#45;lsd&#45;v1.1.5 Pages: 1 -->
<svg width="244pt" height="127pt"
 viewBox="0.00 0.00 244.00 127.00" xmlns="http://www.w3.org/2000/svg" xmlns:xlink="http://www.w3.org/1999/xlink">
<g id="graph0" class="graph" transform="scale(1 1) rotate(0) translate(4 123.2)">
<title>trueos&#45;lsd&#45;v1.1.5</title>
<polygon fill="white" stroke="none" points="-4,4 -4,-123.2 240.29,-123.2 240.29,4 -4,4"/>
<!-- n0 -->
<g id="node1" class="node">
<title>n0</title>
<path fill="#dff3ff" stroke="#1b78a6" d="M75.27,-78.2C75.27,-78.2 12,-78.2 12,-78.2 6,-78.2 0,-72.2 0,-66.2 0,-66.2 0,-53 0,-53 0,-47 6,-41 12,-41 12,-41 75.27,-41 75.27,-41 81.27,-41 87.27,-47 87.27,-53 87.27,-53 87.27,-66.2 87.27,-66.2 87.27,-72.2 81.27,-78.2 75.27,-78.2"/>
<text xml:space="preserve" text-anchor="start" x="20.38" y="-66.1" font-family="Inter,Arial" font-weight="bold" font-size="10.00" fill="#172033">trueos&#45;lsd</text>
<text xml:space="preserve" text-anchor="start" x="32.76" y="-56.1" font-family="Inter,Arial" font-size="10.00" fill="#172033">1.1.5</text>
<text xml:space="preserve" text-anchor="start" x="5.76" y="-46.1" font-family="Inter,Arial" font-size="10.00" fill="#172033">/crates/trueos&#45;lsd</text>
</g>
<!-- out0 -->
<g id="node2" class="node">
<title>out0</title>
<polygon fill="#fff8e8" stroke="#d19922" points="230.29,-119.2 127.27,-119.2 127.27,-72 236.29,-72 236.29,-113.2 230.29,-119.2"/>
<polyline fill="none" stroke="#d19922" points="230.29,-119.2 230.29,-113.2"/>
<polyline fill="none" stroke="#d19922" points="236.29,-113.2 230.29,-113.2"/>
<text xml:space="preserve" text-anchor="start" x="133.03" y="-107.1" font-family="Inter,Arial" font-size="10.00" fill="#614000">to trueos&#45;io&#45;v0.1.0.svg</text>
<text xml:space="preserve" text-anchor="start" x="161.15" y="-97.1" font-family="Inter,Arial" font-weight="bold" font-size="10.00" fill="#614000">trueos&#45;io</text>
<text xml:space="preserve" text-anchor="start" x="170.9" y="-87.1" font-family="Inter,Arial" font-size="10.00" fill="#614000">0.1.0</text>
<text xml:space="preserve" text-anchor="start" x="146.53" y="-77.1" font-family="Inter,Arial" font-size="10.00" fill="#614000">/crates/trueos&#45;io</text>
</g>
<!-- n0&#45;&gt;out0 -->
<g id="edge1" class="edge">
<title>n0&#45;&gt;out0</title>
<path fill="none" stroke="#d19922" stroke-width="0.9" stroke-dasharray="5,2" d="M87.71,-70.99C98.13,-73.75 109.46,-76.74 120.51,-79.66"/>
<polygon fill="#d19922" stroke="#d19922" stroke-width="0.9" points="119.85,-81.48 125.65,-81.02 120.83,-77.76 119.85,-81.48"/>
</g>
<!-- out1 -->
<g id="node3" class="node">
<title>out1</title>
<polygon fill="#fff8e8" stroke="#d19922" points="215.66,-47.2 141.89,-47.2 141.89,0 221.66,0 221.66,-41.2 215.66,-47.2"/>
<polyline fill="none" stroke="#d19922" points="215.66,-47.2 215.66,-41.2"/>
<polyline fill="none" stroke="#d19922" points="221.66,-41.2 215.66,-41.2"/>
<text xml:space="preserve" text-anchor="start" x="149.15" y="-35.1" font-family="Inter,Arial" font-size="10.00" fill="#614000">to v&#45;v0.1.0.svg</text>
<text xml:space="preserve" text-anchor="start" x="179.15" y="-25.1" font-family="Inter,Arial" font-weight="bold" font-size="10.00" fill="#614000">v</text>
<text xml:space="preserve" text-anchor="start" x="170.9" y="-15.1" font-family="Inter,Arial" font-size="10.00" fill="#614000">0.1.0</text>
<text xml:space="preserve" text-anchor="start" x="147.65" y="-5.1" font-family="Inter,Arial" font-size="10.00" fill="#614000">/crates/trueos&#45;v</text>
</g>
<!-- n0&#45;&gt;out1 -->
<g id="edge2" class="edge">
<title>n0&#45;&gt;out1</title>
<path fill="none" stroke="#d19922" stroke-width="0.9" stroke-dasharray="5,2" d="M87.71,-48.21C102.84,-44.21 119.89,-39.7 135.22,-35.65"/>
<polygon fill="#d19922" stroke="#d19922" stroke-width="0.9" points="135.53,-37.56 140.36,-34.29 134.55,-33.83 135.53,-37.56"/>
</g>
</g>
</svg>
