<?xml version="1.0" encoding="UTF-8" standalone="no"?>
<!DOCTYPE svg PUBLIC "-//W3C//DTD SVG 1.1//EN"
 "http://www.w3.org/Graphics/SVG/1.1/DTD/svg11.dtd">
<!-- Generated by graphviz version 14.1.2 (0)
 -->
<!-- Title: trueos&#45;lsd&#45;v1.1.5 Pages: 1 -->
<svg width="265pt" height="141pt"
 viewBox="0.00 0.00 265.00 141.00" xmlns="http://www.w3.org/2000/svg" xmlns:xlink="http://www.w3.org/1999/xlink">
<g id="graph0" class="graph" transform="scale(1 1) rotate(0) translate(4 137.4)">
<title>trueos&#45;lsd&#45;v1.1.5</title>
<polygon fill="white" stroke="none" points="-4,4 -4,-137.4 261.44,-137.4 261.44,4 -4,4"/>
<!-- n0 -->
<g id="node1" class="node">
<title>n0</title>
<path fill="#dff3ff" stroke="#1b78a6" d="M89.22,-91.4C89.22,-91.4 12,-91.4 12,-91.4 6,-91.4 0,-85.4 0,-79.4 0,-79.4 0,-53 0,-53 0,-47 6,-41 12,-41 12,-41 89.22,-41 89.22,-41 95.22,-41 101.22,-47 101.22,-53 101.22,-53 101.22,-79.4 101.22,-79.4 101.22,-85.4 95.22,-91.4 89.22,-91.4"/>
<text xml:space="preserve" text-anchor="start" x="17.99" y="-72.85" font-family="Inter,Arial" font-weight="bold" font-size="13.00" fill="#172033">trueos&#45;lsd</text>
<text xml:space="preserve" text-anchor="start" x="37.49" y="-60.8" font-family="Inter,Arial" font-size="12.00" fill="#172033">1.1.5</text>
<text xml:space="preserve" text-anchor="start" x="9.36" y="-49.75" font-family="Inter,Arial" font-size="11.00" fill="#172033">/crates/trueos&#45;lsd</text>
</g>
<!-- out0 -->
<g id="node2" class="node">
<title>out0</title>
<polygon fill="#fff8e8" stroke="#d19922" points="251.44,-133.4 141.22,-133.4 141.22,-79 257.44,-79 257.44,-127.4 251.44,-133.4"/>
<polyline fill="none" stroke="#d19922" points="251.44,-133.4 251.44,-127.4"/>
<polyline fill="none" stroke="#d19922" points="257.44,-127.4 251.44,-127.4"/>
<text xml:space="preserve" text-anchor="start" x="150.58" y="-117.7" font-family="Inter,Arial" font-size="10.00" fill="#614000">to trueos&#45;io&#45;v0.1.0.svg</text>
<text xml:space="preserve" text-anchor="start" x="178.7" y="-107.7" font-family="Inter,Arial" font-weight="bold" font-size="10.00" fill="#614000">trueos&#45;io</text>
<text xml:space="preserve" text-anchor="start" x="188.45" y="-97.7" font-family="Inter,Arial" font-size="10.00" fill="#614000">0.1.0</text>
<text xml:space="preserve" text-anchor="start" x="164.08" y="-87.7" font-family="Inter,Arial" font-size="10.00" fill="#614000">/crates/trueos&#45;io</text>
</g>
<!-- n0&#45;&gt;out0 -->
<g id="edge1" class="edge">
<title>n0&#45;&gt;out0</title>
<path fill="none" stroke="#d19922" stroke-width="7.2" stroke-dasharray="5,2" d="M101.69,-79.85C110.56,-82.27 119.94,-84.83 129.23,-87.36"/>
<polygon fill="#d19922" stroke="#d19922" stroke-width="7.2" points="128.17,-90.66 134.39,-88.77 129.99,-83.98 128.17,-90.66"/>
</g>
<!-- out1 -->
<g id="node3" class="node">
<title>out1</title>
<polygon fill="#fff8e8" stroke="#d19922" points="236.81,-54.4 155.84,-54.4 155.84,0 242.81,0 242.81,-48.4 236.81,-54.4"/>
<polyline fill="none" stroke="#d19922" points="236.81,-54.4 236.81,-48.4"/>
<polyline fill="none" stroke="#d19922" points="242.81,-48.4 236.81,-48.4"/>
<text xml:space="preserve" text-anchor="start" x="166.7" y="-38.7" font-family="Inter,Arial" font-size="10.00" fill="#614000">to v&#45;v0.1.0.svg</text>
<text xml:space="preserve" text-anchor="start" x="196.7" y="-28.7" font-family="Inter,Arial" font-weight="bold" font-size="10.00" fill="#614000">v</text>
<text xml:space="preserve" text-anchor="start" x="188.45" y="-18.7" font-family="Inter,Arial" font-size="10.00" fill="#614000">0.1.0</text>
<text xml:space="preserve" text-anchor="start" x="165.2" y="-8.7" font-family="Inter,Arial" font-size="10.00" fill="#614000">/crates/trueos&#45;v</text>
</g>
<!-- n0&#45;&gt;out1 -->
<g id="edge2" class="edge">
<title>n0&#45;&gt;out1</title>
<path fill="none" stroke="#d19922" stroke-width="7.2" stroke-dasharray="5,2" d="M101.69,-52.89C115.44,-49.23 130.41,-45.25 144.37,-41.54"/>
<polygon fill="#d19922" stroke="#d19922" stroke-width="7.2" points="144.85,-45 149.28,-40.24 143.07,-38.3 144.85,-45"/>
</g>
</g>
</svg>
