<?xml version="1.0" encoding="UTF-8" standalone="no"?>
<!DOCTYPE svg PUBLIC "-//W3C//DTD SVG 1.1//EN"
 "http://www.w3.org/Graphics/SVG/1.1/DTD/svg11.dtd">
<!-- Generated by graphviz version 14.1.2 (0)
 -->
<!-- Title: trueos&#45;esp&#45;v0.1.0 Pages: 1 -->
<svg width="323pt" height="210pt"
 viewBox="0.00 0.00 323.00 210.00" xmlns="http://www.w3.org/2000/svg" xmlns:xlink="http://www.w3.org/1999/xlink">
<g id="graph0" class="graph" transform="scale(1 1) rotate(0) translate(4 206.4)">
<title>trueos&#45;esp&#45;v0.1.0</title>
<polygon fill="white" stroke="none" points="-4,4 -4,-206.4 319.19,-206.4 319.19,4 -4,4"/>
<!-- n0 -->
<g id="node1" class="node">
<title>n0</title>
<path fill="#dff3ff" stroke="#1b78a6" d="M92.97,-126.4C92.97,-126.4 12,-126.4 12,-126.4 6,-126.4 0,-120.4 0,-114.4 0,-114.4 0,-88 0,-88 0,-82 6,-76 12,-76 12,-76 92.97,-76 92.97,-76 98.97,-76 104.97,-82 104.97,-88 104.97,-88 104.97,-114.4 104.97,-114.4 104.97,-120.4 98.97,-126.4 92.97,-126.4"/>
<text xml:space="preserve" text-anchor="start" x="17.99" y="-107.85" font-family="Inter,Arial" font-weight="bold" font-size="13.00" fill="#172033">trueos&#45;esp</text>
<text xml:space="preserve" text-anchor="start" x="39.36" y="-95.8" font-family="Inter,Arial" font-size="12.00" fill="#172033">0.1.0</text>
<text xml:space="preserve" text-anchor="start" x="9.36" y="-84.75" font-family="Inter,Arial" font-size="11.00" fill="#172033">/crates/trueos&#45;esp</text>
</g>
<!-- out0 -->
<g id="node2" class="node">
<title>out0</title>
<polygon fill="#fff8e8" stroke="#d19922" points="309.19,-202.4 144.97,-202.4 144.97,-148 315.19,-148 315.19,-196.4 309.19,-202.4"/>
<polyline fill="none" stroke="#d19922" points="309.19,-202.4 309.19,-196.4"/>
<polyline fill="none" stroke="#d19922" points="315.19,-196.4 309.19,-196.4"/>
<text xml:space="preserve" text-anchor="start" x="169.33" y="-186.7" font-family="Inter,Arial" font-size="10.00" fill="#614000">to embassy&#45;time&#45;v0.5.1.svg</text>
<text xml:space="preserve" text-anchor="start" x="197.83" y="-176.7" font-family="Inter,Arial" font-weight="bold" font-size="10.00" fill="#614000">embassy&#45;time</text>
<text xml:space="preserve" text-anchor="start" x="219.2" y="-166.7" font-family="Inter,Arial" font-size="10.00" fill="#614000">0.5.1</text>
<text xml:space="preserve" text-anchor="start" x="154.33" y="-156.7" font-family="Inter,Arial" font-size="10.00" fill="#614000">/vendor/embassy&#45;time&#45;0.5.1&#45;trueos</text>
</g>
<!-- n0&#45;&gt;out0 -->
<g id="edge1" class="edge">
<title>n0&#45;&gt;out0</title>
<path fill="none" stroke="#d19922" stroke-width="7.2" stroke-dasharray="5,2" d="M105.22,-123C120.01,-129.24 136.46,-136.17 152.41,-142.89"/>
<polygon fill="#d19922" stroke="#d19922" stroke-width="7.2" points="150.71,-145.93 157.13,-144.88 153.41,-139.55 150.71,-145.93"/>
</g>
<!-- out1 -->
<g id="node3" class="node">
<title>out1</title>
<polygon fill="#fff8e8" stroke="#d19922" points="282.94,-123.4 171.22,-123.4 171.22,-79 288.94,-79 288.94,-117.4 282.94,-123.4"/>
<polyline fill="none" stroke="#d19922" points="282.94,-123.4 282.94,-117.4"/>
<polyline fill="none" stroke="#d19922" points="288.94,-117.4 282.94,-117.4"/>
<text xml:space="preserve" text-anchor="start" x="180.58" y="-107.7" font-family="Inter,Arial" font-size="10.00" fill="#614000">to heapless&#45;v0.9.3.svg</text>
<text xml:space="preserve" text-anchor="start" x="209.45" y="-97.7" font-family="Inter,Arial" font-weight="bold" font-size="10.00" fill="#614000">heapless</text>
<text xml:space="preserve" text-anchor="start" x="219.2" y="-87.7" font-family="Inter,Arial" font-size="10.00" fill="#614000">0.9.3</text>
</g>
<!-- n0&#45;&gt;out1 -->
<g id="edge2" class="edge">
<title>n0&#45;&gt;out1</title>
<path fill="none" stroke="#d19922" stroke-width="7.2" stroke-dasharray="5,2" d="M105.22,-101.2C121.99,-101.2 140.88,-101.2 158.76,-101.2"/>
<polygon fill="#d19922" stroke="#d19922" stroke-width="7.2" points="158.69,-104.67 164.19,-101.2 158.69,-97.74 158.69,-104.67"/>
</g>
<!-- out2 -->
<g id="node4" class="node">
<title>out2</title>
<polygon fill="#fff8e8" stroke="#d19922" points="267.56,-54.4 186.59,-54.4 186.59,0 273.56,0 273.56,-48.4 267.56,-54.4"/>
<polyline fill="none" stroke="#d19922" points="267.56,-54.4 267.56,-48.4"/>
<polyline fill="none" stroke="#d19922" points="273.56,-48.4 267.56,-48.4"/>
<text xml:space="preserve" text-anchor="start" x="197.45" y="-38.7" font-family="Inter,Arial" font-size="10.00" fill="#614000">to v&#45;v0.1.0.svg</text>
<text xml:space="preserve" text-anchor="start" x="227.45" y="-28.7" font-family="Inter,Arial" font-weight="bold" font-size="10.00" fill="#614000">v</text>
<text xml:space="preserve" text-anchor="start" x="219.2" y="-18.7" font-family="Inter,Arial" font-size="10.00" fill="#614000">0.1.0</text>
<text xml:space="preserve" text-anchor="start" x="195.95" y="-8.7" font-family="Inter,Arial" font-size="10.00" fill="#614000">/crates/trueos&#45;v</text>
</g>
<!-- n0&#45;&gt;out2 -->
<g id="edge3" class="edge">
<title>n0&#45;&gt;out2</title>
<path fill="none" stroke="#d19922" stroke-width="7.2" stroke-dasharray="5,2" d="M105.22,-79.4C127.19,-70.14 152.8,-59.35 175.02,-49.98"/>
<polygon fill="#d19922" stroke="#d19922" stroke-width="7.2" points="176.34,-53.19 180.06,-47.86 173.65,-46.8 176.34,-53.19"/>
</g>
</g>
</svg>
