<?xml version="1.0" encoding="UTF-8" standalone="no"?>
<!DOCTYPE svg PUBLIC "-//W3C//DTD SVG 1.1//EN"
 "http://www.w3.org/Graphics/SVG/1.1/DTD/svg11.dtd">
<!-- Generated by graphviz version 14.1.2 (0)
 -->
<!-- Title: trueos&#45;esp&#45;v0.1.0 Pages: 1 -->
<svg width="301pt" height="189pt"
 viewBox="0.00 0.00 301.00 189.00" xmlns="http://www.w3.org/2000/svg" xmlns:xlink="http://www.w3.org/1999/xlink">
<g id="graph0" class="graph" transform="scale(1 1) rotate(0) translate(4 185.2)">
<title>trueos&#45;esp&#45;v0.1.0</title>
<polygon fill="white" stroke="none" points="-4,4 -4,-185.2 297.29,-185.2 297.29,4 -4,4"/>
<!-- n0 -->
<g id="node1" class="node">
<title>n0</title>
<path fill="#dff3ff" stroke="#1b78a6" d="M78.27,-109.2C78.27,-109.2 12,-109.2 12,-109.2 6,-109.2 0,-103.2 0,-97.2 0,-97.2 0,-84 0,-84 0,-78 6,-72 12,-72 12,-72 78.27,-72 78.27,-72 84.27,-72 90.27,-78 90.27,-84 90.27,-84 90.27,-97.2 90.27,-97.2 90.27,-103.2 84.27,-109.2 78.27,-109.2"/>
<text xml:space="preserve" text-anchor="start" x="20.76" y="-97.1" font-family="Inter,Arial" font-weight="bold" font-size="10.00" fill="#172033">trueos&#45;esp</text>
<text xml:space="preserve" text-anchor="start" x="34.26" y="-87.1" font-family="Inter,Arial" font-size="10.00" fill="#172033">0.1.0</text>
<text xml:space="preserve" text-anchor="start" x="5.76" y="-77.1" font-family="Inter,Arial" font-size="10.00" fill="#172033">/crates/trueos&#45;esp</text>
</g>
<!-- out0 -->
<g id="node2" class="node">
<title>out0</title>
<polygon fill="#fff8e8" stroke="#d19922" points="287.29,-181.2 130.27,-181.2 130.27,-134 293.29,-134 293.29,-175.2 287.29,-181.2"/>
<polyline fill="none" stroke="#d19922" points="287.29,-181.2 287.29,-175.2"/>
<polyline fill="none" stroke="#d19922" points="293.29,-175.2 287.29,-175.2"/>
<text xml:space="preserve" text-anchor="start" x="151.03" y="-169.1" font-family="Inter,Arial" font-size="10.00" fill="#614000">to embassy&#45;time&#45;v0.5.1.svg</text>
<text xml:space="preserve" text-anchor="start" x="179.53" y="-159.1" font-family="Inter,Arial" font-weight="bold" font-size="10.00" fill="#614000">embassy&#45;time</text>
<text xml:space="preserve" text-anchor="start" x="200.91" y="-149.1" font-family="Inter,Arial" font-size="10.00" fill="#614000">0.5.1</text>
<text xml:space="preserve" text-anchor="start" x="136.03" y="-139.1" font-family="Inter,Arial" font-size="10.00" fill="#614000">/vendor/embassy&#45;time&#45;0.5.1&#45;trueos</text>
</g>
<!-- n0&#45;&gt;out0 -->
<g id="edge1" class="edge">
<title>n0&#45;&gt;out0</title>
<path fill="none" stroke="#d19922" stroke-width="0.9" stroke-dasharray="5,2" d="M90.69,-108.73C107.55,-115.59 127.1,-123.55 145.47,-131.02"/>
<polygon fill="#d19922" stroke="#d19922" stroke-width="0.9" points="144.57,-132.73 150.39,-133.02 146.02,-129.17 144.57,-132.73"/>
</g>
<!-- out1 -->
<g id="node3" class="node">
<title>out1</title>
<polygon fill="#fff8e8" stroke="#d19922" points="261.04,-109.2 156.52,-109.2 156.52,-72 267.04,-72 267.04,-103.2 261.04,-109.2"/>
<polyline fill="none" stroke="#d19922" points="261.04,-109.2 261.04,-103.2"/>
<polyline fill="none" stroke="#d19922" points="267.04,-103.2 261.04,-103.2"/>
<text xml:space="preserve" text-anchor="start" x="162.28" y="-97.1" font-family="Inter,Arial" font-size="10.00" fill="#614000">to heapless&#45;v0.9.3.svg</text>
<text xml:space="preserve" text-anchor="start" x="191.16" y="-87.1" font-family="Inter,Arial" font-weight="bold" font-size="10.00" fill="#614000">heapless</text>
<text xml:space="preserve" text-anchor="start" x="200.91" y="-77.1" font-family="Inter,Arial" font-size="10.00" fill="#614000">0.9.3</text>
</g>
<!-- n0&#45;&gt;out1 -->
<g id="edge2" class="edge">
<title>n0&#45;&gt;out1</title>
<path fill="none" stroke="#d19922" stroke-width="0.9" stroke-dasharray="5,2" d="M90.69,-90.6C108.75,-90.6 129.91,-90.6 149.39,-90.6"/>
<polygon fill="#d19922" stroke="#d19922" stroke-width="0.9" points="149.34,-92.53 154.84,-90.6 149.34,-88.68 149.34,-92.53"/>
</g>
<!-- out2 -->
<g id="node4" class="node">
<title>out2</title>
<polygon fill="#fff8e8" stroke="#d19922" points="245.67,-47.2 171.9,-47.2 171.9,0 251.67,0 251.67,-41.2 245.67,-47.2"/>
<polyline fill="none" stroke="#d19922" points="245.67,-47.2 245.67,-41.2"/>
<polyline fill="none" stroke="#d19922" points="251.67,-41.2 245.67,-41.2"/>
<text xml:space="preserve" text-anchor="start" x="179.16" y="-35.1" font-family="Inter,Arial" font-size="10.00" fill="#614000">to v&#45;v0.1.0.svg</text>
<text xml:space="preserve" text-anchor="start" x="209.16" y="-25.1" font-family="Inter,Arial" font-weight="bold" font-size="10.00" fill="#614000">v</text>
<text xml:space="preserve" text-anchor="start" x="200.91" y="-15.1" font-family="Inter,Arial" font-size="10.00" fill="#614000">0.1.0</text>
<text xml:space="preserve" text-anchor="start" x="177.66" y="-5.1" font-family="Inter,Arial" font-size="10.00" fill="#614000">/crates/trueos&#45;v</text>
</g>
<!-- n0&#45;&gt;out2 -->
<g id="edge3" class="edge">
<title>n0&#45;&gt;out2</title>
<path fill="none" stroke="#d19922" stroke-width="0.9" stroke-dasharray="5,2" d="M90.69,-72.47C113.86,-63.04 142.12,-51.54 165.4,-42.06"/>
<polygon fill="#d19922" stroke="#d19922" stroke-width="0.9" points="165.89,-43.95 170.26,-40.09 164.44,-40.38 165.89,-43.95"/>
</g>
</g>
</svg>
