<?xml version="1.0" encoding="UTF-8" standalone="no"?>
<!DOCTYPE svg PUBLIC "-//W3C//DTD SVG 1.1//EN"
 "http://www.w3.org/Graphics/SVG/1.1/DTD/svg11.dtd">
<!-- Generated by graphviz version 14.1.2 (0)
 -->
<!-- Title: trueos&#45;locale&#45;v0.1.0 Pages: 1 -->
<svg width="296pt" height="62pt"
 viewBox="0.00 0.00 296.00 62.00" xmlns="http://www.w3.org/2000/svg" xmlns:xlink="http://www.w3.org/1999/xlink">
<g id="graph0" class="graph" transform="scale(1 1) rotate(0) translate(4 58.4)">
<title>trueos&#45;locale&#45;v0.1.0</title>
<polygon fill="white" stroke="none" points="-4,4 -4,-58.4 292.19,-58.4 292.19,4 -4,4"/>
<!-- n0 -->
<g id="node1" class="node">
<title>n0</title>
<path fill="#dff3ff" stroke="#1b78a6" d="M276.19,-52.4C276.19,-52.4 184.72,-52.4 184.72,-52.4 178.72,-52.4 172.72,-46.4 172.72,-40.4 172.72,-40.4 172.72,-14 172.72,-14 172.72,-8 178.72,-2 184.72,-2 184.72,-2 276.19,-2 276.19,-2 282.19,-2 288.19,-8 288.19,-14 288.19,-14 288.19,-40.4 288.19,-40.4 288.19,-46.4 282.19,-52.4 276.19,-52.4"/>
<text xml:space="preserve" text-anchor="start" x="188.45" y="-33.85" font-family="Inter,Arial" font-weight="bold" font-size="13.00" fill="#172033">trueos&#45;locale</text>
<text xml:space="preserve" text-anchor="start" x="217.33" y="-21.8" font-family="Inter,Arial" font-size="12.00" fill="#172033">0.1.0</text>
<text xml:space="preserve" text-anchor="start" x="182.08" y="-10.75" font-family="Inter,Arial" font-size="11.00" fill="#172033">/crates/trueos&#45;locale</text>
</g>
<!-- in0 -->
<g id="node2" class="node">
<title>in0</title>
<polygon fill="#eef6ff" stroke="#4b8fc5" points="126.72,-54.4 0,-54.4 0,0 132.72,0 132.72,-48.4 126.72,-54.4"/>
<polyline fill="none" stroke="#4b8fc5" points="126.72,-54.4 126.72,-48.4"/>
<polyline fill="none" stroke="#4b8fc5" points="132.72,-48.4 126.72,-48.4"/>
<text xml:space="preserve" text-anchor="start" x="9.36" y="-38.7" font-family="Inter,Arial" font-size="10.00" fill="#123d5c">from trueos&#45;qjs&#45;v0.1.0.svg</text>
<text xml:space="preserve" text-anchor="start" x="36.36" y="-28.7" font-family="Inter,Arial" font-weight="bold" font-size="10.00" fill="#123d5c">trueos&#45;locale</text>
<text xml:space="preserve" text-anchor="start" x="55.49" y="-18.7" font-family="Inter,Arial" font-size="10.00" fill="#123d5c">0.1.0</text>
<text xml:space="preserve" text-anchor="start" x="22.11" y="-8.7" font-family="Inter,Arial" font-size="10.00" fill="#123d5c">/crates/trueos&#45;locale</text>
</g>
<!-- in0&#45;&gt;n0 -->
<g id="edge1" class="edge">
<title>in0&#45;&gt;n0</title>
<path fill="none" stroke="#4b8fc5" stroke-width="0.9" stroke-dasharray="5,2" d="M132.82,-27.2C143.66,-27.2 154.89,-27.2 165.69,-27.2"/>
<polygon fill="#4b8fc5" stroke="#4b8fc5" stroke-width="0.9" points="165.49,-29.13 170.99,-27.2 165.49,-25.28 165.49,-29.13"/>
</g>
</g>
</svg>
