<?xml version="1.0" encoding="UTF-8" standalone="no"?>
<!DOCTYPE svg PUBLIC "-//W3C//DTD SVG 1.1//EN"
 "http://www.w3.org/Graphics/SVG/1.1/DTD/svg11.dtd">
<!-- Generated by graphviz version 14.1.2 (0)
 -->
<!-- Title: trueos&#45;silk&#45;v0.1.0 Pages: 1 -->
<svg width="98pt" height="45pt"
 viewBox="0.00 0.00 98.00 45.00" xmlns="http://www.w3.org/2000/svg" xmlns:xlink="http://www.w3.org/1999/xlink">
<g id="graph0" class="graph" transform="scale(1 1) rotate(0) translate(4 41.2)">
<title>trueos&#45;silk&#45;v0.1.0</title>
<polygon fill="white" stroke="none" points="-4,4 -4,-41.2 93.52,-41.2 93.52,4 -4,4"/>
<!-- n0 -->
<g id="node1" class="node">
<title>n0</title>
<path fill="#dff3ff" stroke="#1b78a6" d="M77.52,-37.2C77.52,-37.2 12,-37.2 12,-37.2 6,-37.2 0,-31.2 0,-25.2 0,-25.2 0,-12 0,-12 0,-6 6,0 12,0 12,0 77.52,0 77.52,0 83.52,0 89.52,-6 89.52,-12 89.52,-12 89.52,-25.2 89.52,-25.2 89.52,-31.2 83.52,-37.2 77.52,-37.2"/>
<text xml:space="preserve" text-anchor="start" x="20.38" y="-25.1" font-family="Inter,Arial" font-weight="bold" font-size="10.00" fill="#172033">trueos&#45;silk</text>
<text xml:space="preserve" text-anchor="start" x="33.88" y="-15.1" font-family="Inter,Arial" font-size="10.00" fill="#172033">0.1.0</text>
<text xml:space="preserve" text-anchor="start" x="5.76" y="-5.1" font-family="Inter,Arial" font-size="10.00" fill="#172033">/crates/trueos&#45;silk</text>
</g>
</g>
</svg>
