<?xml version="1.0" encoding="UTF-8" standalone="no"?>
<!DOCTYPE svg PUBLIC "-//W3C//DTD SVG 1.1//EN"
 "http://www.w3.org/Graphics/SVG/1.1/DTD/svg11.dtd">
<!-- Generated by graphviz version 14.1.2 (0)
 -->
<!-- Title: trueos&#45;locale&#45;v0.1.0 Pages: 1 -->
<svg width="274pt" height="55pt"
 viewBox="0.00 0.00 274.00 55.00" xmlns="http://www.w3.org/2000/svg" xmlns:xlink="http://www.w3.org/1999/xlink">
<g id="graph0" class="graph" transform="scale(1 1) rotate(0) translate(4 51.2)">
<title>trueos&#45;locale&#45;v0.1.0</title>
<polygon fill="white" stroke="none" points="-4,4 -4,-51.2 269.54,-51.2 269.54,4 -4,4"/>
<!-- n0 -->
<g id="node1" class="node">
<title>n0</title>
<path fill="#dff3ff" stroke="#1b78a6" d="M253.54,-42.2C253.54,-42.2 177.52,-42.2 177.52,-42.2 171.52,-42.2 165.52,-36.2 165.52,-30.2 165.52,-30.2 165.52,-17 165.52,-17 165.52,-11 171.52,-5 177.52,-5 177.52,-5 253.54,-5 253.54,-5 259.54,-5 265.54,-11 265.54,-17 265.54,-17 265.54,-30.2 265.54,-30.2 265.54,-36.2 259.54,-42.2 253.54,-42.2"/>
<text xml:space="preserve" text-anchor="start" x="185.53" y="-30.1" font-family="Inter,Arial" font-weight="bold" font-size="10.00" fill="#172033">trueos&#45;locale</text>
<text xml:space="preserve" text-anchor="start" x="204.65" y="-20.1" font-family="Inter,Arial" font-size="10.00" fill="#172033">0.1.0</text>
<text xml:space="preserve" text-anchor="start" x="171.28" y="-10.1" font-family="Inter,Arial" font-size="10.00" fill="#172033">/crates/trueos&#45;locale</text>
</g>
<!-- in0 -->
<g id="node2" class="node">
<title>in0</title>
<polygon fill="#eef6ff" stroke="#4b8fc5" points="119.52,-47.2 0,-47.2 0,0 125.52,0 125.52,-41.2 119.52,-47.2"/>
<polyline fill="none" stroke="#4b8fc5" points="119.52,-47.2 119.52,-41.2"/>
<polyline fill="none" stroke="#4b8fc5" points="125.52,-41.2 119.52,-41.2"/>
<text xml:space="preserve" text-anchor="start" x="5.76" y="-35.1" font-family="Inter,Arial" font-size="10.00" fill="#123d5c">from trueos&#45;qjs&#45;v0.1.0.svg</text>
<text xml:space="preserve" text-anchor="start" x="32.76" y="-25.1" font-family="Inter,Arial" font-weight="bold" font-size="10.00" fill="#123d5c">trueos&#45;locale</text>
<text xml:space="preserve" text-anchor="start" x="51.88" y="-15.1" font-family="Inter,Arial" font-size="10.00" fill="#123d5c">0.1.0</text>
<text xml:space="preserve" text-anchor="start" x="18.51" y="-5.1" font-family="Inter,Arial" font-size="10.00" fill="#123d5c">/crates/trueos&#45;locale</text>
</g>
<!-- in0&#45;&gt;n0 -->
<g id="edge1" class="edge">
<title>in0&#45;&gt;n0</title>
<path fill="none" stroke="#4b8fc5" stroke-width="0.9" stroke-dasharray="5,2" d="M125.95,-23.6C136.84,-23.6 148.1,-23.6 158.79,-23.6"/>
<polygon fill="#4b8fc5" stroke="#4b8fc5" stroke-width="0.9" points="158.51,-25.53 164.01,-23.6 158.51,-21.68 158.51,-25.53"/>
</g>
</g>
</svg>
