<?xml version="1.0" encoding="UTF-8" standalone="no"?>
<!DOCTYPE svg PUBLIC "-//W3C//DTD SVG 1.1//EN"
 "http://www.w3.org/Graphics/SVG/1.1/DTD/svg11.dtd">
<!-- Generated by graphviz version 14.1.2 (0)
 -->
<!-- Title: trueos&#45;vm&#45;v0.1.0 Pages: 1 -->
<svg width="237pt" height="62pt"
 viewBox="0.00 0.00 237.00 62.00" xmlns="http://www.w3.org/2000/svg" xmlns:xlink="http://www.w3.org/1999/xlink">
<g id="graph0" class="graph" transform="scale(1 1) rotate(0) translate(4 58.4)">
<title>trueos&#45;vm&#45;v0.1.0</title>
<polygon fill="white" stroke="none" points="-4,4 -4,-58.4 232.94,-58.4 232.94,4 -4,4"/>
<!-- n0 -->
<g id="node1" class="node">
<title>n0</title>
<path fill="#dff3ff" stroke="#1b78a6" d="M89.97,-52.4C89.97,-52.4 12,-52.4 12,-52.4 6,-52.4 0,-46.4 0,-40.4 0,-40.4 0,-14 0,-14 0,-8 6,-2 12,-2 12,-2 89.97,-2 89.97,-2 95.97,-2 101.97,-8 101.97,-14 101.97,-14 101.97,-40.4 101.97,-40.4 101.97,-46.4 95.97,-52.4 89.97,-52.4"/>
<text xml:space="preserve" text-anchor="start" x="18.74" y="-33.85" font-family="Inter,Arial" font-weight="bold" font-size="13.00" fill="#172033">trueos&#45;vm</text>
<text xml:space="preserve" text-anchor="start" x="37.86" y="-21.8" font-family="Inter,Arial" font-size="12.00" fill="#172033">0.1.0</text>
<text xml:space="preserve" text-anchor="start" x="9.36" y="-10.75" font-family="Inter,Arial" font-size="11.00" fill="#172033">/crates/trueos&#45;vm</text>
</g>
<!-- out0 -->
<g id="node2" class="node">
<title>out0</title>
<polygon fill="#fff8e8" stroke="#d19922" points="222.94,-54.4 141.97,-54.4 141.97,0 228.94,0 228.94,-48.4 222.94,-54.4"/>
<polyline fill="none" stroke="#d19922" points="222.94,-54.4 222.94,-48.4"/>
<polyline fill="none" stroke="#d19922" points="228.94,-48.4 222.94,-48.4"/>
<text xml:space="preserve" text-anchor="start" x="152.83" y="-38.7" font-family="Inter,Arial" font-size="10.00" fill="#614000">to v&#45;v0.1.0.svg</text>
<text xml:space="preserve" text-anchor="start" x="182.83" y="-28.7" font-family="Inter,Arial" font-weight="bold" font-size="10.00" fill="#614000">v</text>
<text xml:space="preserve" text-anchor="start" x="174.58" y="-18.7" font-family="Inter,Arial" font-size="10.00" fill="#614000">0.1.0</text>
<text xml:space="preserve" text-anchor="start" x="151.33" y="-8.7" font-family="Inter,Arial" font-size="10.00" fill="#614000">/crates/trueos&#45;v</text>
</g>
<!-- n0&#45;&gt;out0 -->
<g id="edge1" class="edge">
<title>n0&#45;&gt;out0</title>
<path fill="none" stroke="#d19922" stroke-width="7.2" stroke-dasharray="5,2" d="M102.44,-27.2C111.29,-27.2 120.54,-27.2 129.5,-27.2"/>
<polygon fill="#d19922" stroke="#d19922" stroke-width="7.2" points="129.23,-30.67 134.73,-27.2 129.23,-23.74 129.23,-30.67"/>
</g>
</g>
</svg>
