<?xml version="1.0" encoding="UTF-8" standalone="no"?>
<!DOCTYPE svg PUBLIC "-//W3C//DTD SVG 1.1//EN"
 "http://www.w3.org/Graphics/SVG/1.1/DTD/svg11.dtd">
<!-- Generated by graphviz version 14.1.2 (0)
 -->
<!-- Title: trueos&#45;fs&#45;v0.0.1 Pages: 1 -->
<svg width="91pt" height="45pt"
 viewBox="0.00 0.00 91.00 45.00" xmlns="http://www.w3.org/2000/svg" xmlns:xlink="http://www.w3.org/1999/xlink">
<g id="graph0" class="graph" transform="scale(1 1) rotate(0) translate(4 41.2)">
<title>trueos&#45;fs&#45;v0.0.1</title>
<polygon fill="white" stroke="none" points="-4,4 -4,-41.2 86.77,-41.2 86.77,4 -4,4"/>
<!-- n0 -->
<g id="node1" class="node">
<title>n0</title>
<path fill="#dff3ff" stroke="#1b78a6" d="M70.77,-37.2C70.77,-37.2 12,-37.2 12,-37.2 6,-37.2 0,-31.2 0,-25.2 0,-25.2 0,-12 0,-12 0,-6 6,0 12,0 12,0 70.77,0 70.77,0 76.77,0 82.77,-6 82.77,-12 82.77,-12 82.77,-25.2 82.77,-25.2 82.77,-31.2 76.77,-37.2 70.77,-37.2"/>
<text xml:space="preserve" text-anchor="start" x="21.13" y="-25.1" font-family="Inter,Arial" font-weight="bold" font-size="10.00" fill="#172033">trueos&#45;fs</text>
<text xml:space="preserve" text-anchor="start" x="30.51" y="-15.1" font-family="Inter,Arial" font-size="10.00" fill="#172033">0.0.1</text>
<text xml:space="preserve" text-anchor="start" x="5.76" y="-5.1" font-family="Inter,Arial" font-size="10.00" fill="#172033">/crates/trueos&#45;fs</text>
</g>
</g>
</svg>
