<?xml version="1.0" encoding="UTF-8" standalone="no"?>
<!DOCTYPE svg PUBLIC "-//W3C//DTD SVG 1.1//EN"
 "http://www.w3.org/Graphics/SVG/1.1/DTD/svg11.dtd">
<!-- Generated by graphviz version 14.1.2 (0)
 -->
<!-- Title: trueos&#45;vm&#45;v0.1.0 Pages: 1 -->
<svg width="216pt" height="55pt"
 viewBox="0.00 0.00 216.00 55.00" xmlns="http://www.w3.org/2000/svg" xmlns:xlink="http://www.w3.org/1999/xlink">
<g id="graph0" class="graph" transform="scale(1 1) rotate(0) translate(4 51.2)">
<title>trueos&#45;vm&#45;v0.1.0</title>
<polygon fill="white" stroke="none" points="-4,4 -4,-51.2 211.79,-51.2 211.79,4 -4,4"/>
<!-- n0 -->
<g id="node1" class="node">
<title>n0</title>
<path fill="#dff3ff" stroke="#1b78a6" d="M76.02,-42.2C76.02,-42.2 12,-42.2 12,-42.2 6,-42.2 0,-36.2 0,-30.2 0,-30.2 0,-17 0,-17 0,-11 6,-5 12,-5 12,-5 76.02,-5 76.02,-5 82.02,-5 88.02,-11 88.02,-17 88.02,-17 88.02,-30.2 88.02,-30.2 88.02,-36.2 82.02,-42.2 76.02,-42.2"/>
<text xml:space="preserve" text-anchor="start" x="20.76" y="-30.1" font-family="Inter,Arial" font-weight="bold" font-size="10.00" fill="#172033">trueos&#45;vm</text>
<text xml:space="preserve" text-anchor="start" x="33.13" y="-20.1" font-family="Inter,Arial" font-size="10.00" fill="#172033">0.1.0</text>
<text xml:space="preserve" text-anchor="start" x="5.76" y="-10.1" font-family="Inter,Arial" font-size="10.00" fill="#172033">/crates/trueos&#45;vm</text>
</g>
<!-- out0 -->
<g id="node2" class="node">
<title>out0</title>
<polygon fill="#fff8e8" stroke="#d19922" points="201.79,-47.2 128.02,-47.2 128.02,0 207.79,0 207.79,-41.2 201.79,-47.2"/>
<polyline fill="none" stroke="#d19922" points="201.79,-47.2 201.79,-41.2"/>
<polyline fill="none" stroke="#d19922" points="207.79,-41.2 201.79,-41.2"/>
<text xml:space="preserve" text-anchor="start" x="135.28" y="-35.1" font-family="Inter,Arial" font-size="10.00" fill="#614000">to v&#45;v0.1.0.svg</text>
<text xml:space="preserve" text-anchor="start" x="165.28" y="-25.1" font-family="Inter,Arial" font-weight="bold" font-size="10.00" fill="#614000">v</text>
<text xml:space="preserve" text-anchor="start" x="157.03" y="-15.1" font-family="Inter,Arial" font-size="10.00" fill="#614000">0.1.0</text>
<text xml:space="preserve" text-anchor="start" x="133.78" y="-5.1" font-family="Inter,Arial" font-size="10.00" fill="#614000">/crates/trueos&#45;v</text>
</g>
<!-- n0&#45;&gt;out0 -->
<g id="edge1" class="edge">
<title>n0&#45;&gt;out0</title>
<path fill="none" stroke="#d19922" stroke-width="0.9" stroke-dasharray="5,2" d="M88.33,-23.6C98.98,-23.6 110.42,-23.6 121.19,-23.6"/>
<polygon fill="#d19922" stroke="#d19922" stroke-width="0.9" points="120.92,-25.53 126.42,-23.6 120.92,-21.68 120.92,-25.53"/>
</g>
</g>
</svg>
