<?xml version="1.0" encoding="UTF-8" standalone="no"?>
<!DOCTYPE svg PUBLIC "-//W3C//DTD SVG 1.1//EN"
 "http://www.w3.org/Graphics/SVG/1.1/DTD/svg11.dtd">
<!-- Generated by graphviz version 14.1.2 (0)
 -->
<!-- Title: trueos&#45;fs&#45;v0.0.1 Pages: 1 -->
<svg width="104pt" height="58pt"
 viewBox="0.00 0.00 104.00 58.00" xmlns="http://www.w3.org/2000/svg" xmlns:xlink="http://www.w3.org/1999/xlink">
<g id="graph0" class="graph" transform="scale(1 1) rotate(0) translate(4 54.4)">
<title>trueos&#45;fs&#45;v0.0.1</title>
<polygon fill="white" stroke="none" points="-4,4 -4,-54.4 99.97,-54.4 99.97,4 -4,4"/>
<!-- n0 -->
<g id="node1" class="node">
<title>n0</title>
<path fill="#dff3ff" stroke="#1b78a6" d="M83.97,-50.4C83.97,-50.4 12,-50.4 12,-50.4 6,-50.4 0,-44.4 0,-38.4 0,-38.4 0,-12 0,-12 0,-6 6,0 12,0 12,0 83.97,0 83.97,0 89.97,0 95.97,-6 95.97,-12 95.97,-12 95.97,-38.4 95.97,-38.4 95.97,-44.4 89.97,-50.4 83.97,-50.4"/>
<text xml:space="preserve" text-anchor="start" x="19.11" y="-31.85" font-family="Inter,Arial" font-weight="bold" font-size="13.00" fill="#172033">trueos&#45;fs</text>
<text xml:space="preserve" text-anchor="start" x="34.86" y="-19.8" font-family="Inter,Arial" font-size="12.00" fill="#172033">0.0.1</text>
<text xml:space="preserve" text-anchor="start" x="9.36" y="-8.75" font-family="Inter,Arial" font-size="11.00" fill="#172033">/crates/trueos&#45;fs</text>
</g>
</g>
</svg>
