<?xml version="1.0" encoding="UTF-8" standalone="no"?>
<!DOCTYPE svg PUBLIC "-//W3C//DTD SVG 1.1//EN"
 "http://www.w3.org/Graphics/SVG/1.1/DTD/svg11.dtd">
<!-- Generated by graphviz version 14.1.2 (0)
 -->
<!-- Title: trueos&#45;math&#45;v0.1.0 Pages: 1 -->
<svg width="434pt" height="62pt"
 viewBox="0.00 0.00 434.00 62.00" xmlns="http://www.w3.org/2000/svg" xmlns:xlink="http://www.w3.org/1999/xlink">
<g id="graph0" class="graph" transform="scale(1 1) rotate(0) translate(4 58.4)">
<title>trueos&#45;math&#45;v0.1.0</title>
<polygon fill="white" stroke="none" points="-4,4 -4,-58.4 430.41,-58.4 430.41,4 -4,4"/>
<!-- n0 -->
<g id="node1" class="node">
<title>n0</title>
<path fill="#dff3ff" stroke="#1b78a6" d="M272.44,-52.4C272.44,-52.4 184.72,-52.4 184.72,-52.4 178.72,-52.4 172.72,-46.4 172.72,-40.4 172.72,-40.4 172.72,-14 172.72,-14 172.72,-8 178.72,-2 184.72,-2 184.72,-2 272.44,-2 272.44,-2 278.44,-2 284.44,-8 284.44,-14 284.44,-14 284.44,-40.4 284.44,-40.4 284.44,-46.4 278.44,-52.4 272.44,-52.4"/>
<text xml:space="preserve" text-anchor="start" x="189.95" y="-33.85" font-family="Inter,Arial" font-weight="bold" font-size="13.00" fill="#172033">trueos&#45;math</text>
<text xml:space="preserve" text-anchor="start" x="215.45" y="-21.8" font-family="Inter,Arial" font-size="12.00" fill="#172033">0.1.0</text>
<text xml:space="preserve" text-anchor="start" x="182.08" y="-10.75" font-family="Inter,Arial" font-size="11.00" fill="#172033">/crates/trueos&#45;math</text>
</g>
<!-- out0 -->
<g id="node2" class="node">
<title>out0</title>
<polygon fill="#fff8e8" stroke="#d19922" points="420.41,-49.4 324.44,-49.4 324.44,-5 426.41,-5 426.41,-43.4 420.41,-49.4"/>
<polyline fill="none" stroke="#d19922" points="420.41,-49.4 420.41,-43.4"/>
<polyline fill="none" stroke="#d19922" points="426.41,-43.4 420.41,-43.4"/>
<text xml:space="preserve" text-anchor="start" x="333.8" y="-33.7" font-family="Inter,Arial" font-size="10.00" fill="#614000">to libm&#45;v0.2.16.svg</text>
<text xml:space="preserve" text-anchor="start" x="364.92" y="-23.7" font-family="Inter,Arial" font-weight="bold" font-size="10.00" fill="#614000">libm</text>
<text xml:space="preserve" text-anchor="start" x="361.92" y="-13.7" font-family="Inter,Arial" font-size="10.00" fill="#614000">0.2.16</text>
</g>
<!-- n0&#45;&gt;out0 -->
<g id="edge1" class="edge">
<title>n0&#45;&gt;out0</title>
<path fill="none" stroke="#d19922" stroke-width="0.9" stroke-dasharray="5,2" d="M284.75,-27.2C295.48,-27.2 306.74,-27.2 317.52,-27.2"/>
<polygon fill="#d19922" stroke="#d19922" stroke-width="0.9" points="317.3,-29.13 322.8,-27.2 317.3,-25.28 317.3,-29.13"/>
</g>
<!-- in1 -->
<g id="node3" class="node">
<title>in1</title>
<polygon fill="#eef6ff" stroke="#4b8fc5" points="126.72,-54.4 0,-54.4 0,0 132.72,0 132.72,-48.4 126.72,-54.4"/>
<polyline fill="none" stroke="#4b8fc5" points="126.72,-54.4 126.72,-48.4"/>
<polyline fill="none" stroke="#4b8fc5" points="132.72,-48.4 126.72,-48.4"/>
<text xml:space="preserve" text-anchor="start" x="9.36" y="-38.7" font-family="Inter,Arial" font-size="10.00" fill="#123d5c">from trueos&#45;qjs&#45;v0.1.0.svg</text>
<text xml:space="preserve" text-anchor="start" x="38.61" y="-28.7" font-family="Inter,Arial" font-weight="bold" font-size="10.00" fill="#123d5c">trueos&#45;math</text>
<text xml:space="preserve" text-anchor="start" x="55.49" y="-18.7" font-family="Inter,Arial" font-size="10.00" fill="#123d5c">0.1.0</text>
<text xml:space="preserve" text-anchor="start" x="23.99" y="-8.7" font-family="Inter,Arial" font-size="10.00" fill="#123d5c">/crates/trueos&#45;math</text>
</g>
<!-- in1&#45;&gt;n0 -->
<g id="edge2" class="edge">
<title>in1&#45;&gt;n0</title>
<path fill="none" stroke="#4b8fc5" stroke-width="0.9" stroke-dasharray="5,2" d="M132.99,-27.2C143.8,-27.2 154.97,-27.2 165.68,-27.2"/>
<polygon fill="#4b8fc5" stroke="#4b8fc5" stroke-width="0.9" points="165.42,-29.13 170.92,-27.2 165.42,-25.28 165.42,-29.13"/>
</g>
</g>
</svg>
