<?xml version="1.0" encoding="UTF-8" standalone="no"?>
<!DOCTYPE svg PUBLIC "-//W3C//DTD SVG 1.1//EN"
 "http://www.w3.org/Graphics/SVG/1.1/DTD/svg11.dtd">
<!-- Generated by graphviz version 14.1.2 (0)
 -->
<!-- Title: twoway&#45;v0.2.2 Pages: 1 -->
<svg width="325pt" height="95pt"
 viewBox="0.00 0.00 325.00 95.00" xmlns="http://www.w3.org/2000/svg" xmlns:xlink="http://www.w3.org/1999/xlink">
<g id="graph0" class="graph" transform="scale(1 1) rotate(0) translate(4 91.15)">
<title>twoway&#45;v0.2.2</title>
<polygon fill="white" stroke="none" points="-4,4 -4,-91.15 320.69,-91.15 320.69,4 -4,4"/>
<!-- n0 -->
<g id="node1" class="node">
<title>n0</title>
<path fill="#dff3ff" stroke="#1b78a6" d="M150.72,-87.15C150.72,-87.15 12,-87.15 12,-87.15 6,-87.15 0,-81.15 0,-75.15 0,-75.15 0,-12 0,-12 0,-6 6,0 12,0 12,0 150.72,0 150.72,0 156.72,0 162.72,-6 162.72,-12 162.72,-12 162.72,-75.15 162.72,-75.15 162.72,-81.15 156.72,-87.15 150.72,-87.15"/>
<text xml:space="preserve" text-anchor="start" x="57.73" y="-68.6" font-family="Inter,Arial" font-weight="bold" font-size="13.00" fill="#172033">twoway</text>
<text xml:space="preserve" text-anchor="start" x="68.23" y="-53.55" font-family="Inter,Arial" font-size="12.00" fill="#172033">0.2.2</text>
<text xml:space="preserve" text-anchor="start" x="24.36" y="-26.25" font-family="Inter,Arial" font-weight="bold" font-size="11.00" fill="#172033">unchecked&#45;index</text>
<text xml:space="preserve" text-anchor="start" x="113.61" y="-26.25" font-family="Inter,Arial" font-size="10.00" fill="#172033"> </text>
<text xml:space="preserve" text-anchor="start" x="116.61" y="-26.25" font-family="Inter,Arial" font-size="10.00" fill="#172033">0.2.2</text>
<path fill="none" stroke="#9aa8b8" d="M25.86,-13.2C25.86,-13.2 136.86,-13.2 136.86,-13.2 142.11,-13.2 147.36,-18.45 147.36,-23.7 147.36,-23.7 147.36,-34.2 147.36,-34.2 147.36,-39.45 142.11,-44.7 136.86,-44.7 136.86,-44.7 25.86,-44.7 25.86,-44.7 20.61,-44.7 15.36,-39.45 15.36,-34.2 15.36,-34.2 15.36,-23.7 15.36,-23.7 15.36,-18.45 20.61,-13.2 25.86,-13.2"/>
</g>
<!-- out0 -->
<g id="node2" class="node">
<title>out0</title>
<polygon fill="#fff8e8" stroke="#d19922" points="310.69,-65.78 202.72,-65.78 202.72,-21.38 316.69,-21.38 316.69,-59.78 310.69,-65.78"/>
<polyline fill="none" stroke="#d19922" points="310.69,-65.78 310.69,-59.78"/>
<polyline fill="none" stroke="#d19922" points="316.69,-59.78 310.69,-59.78"/>
<text xml:space="preserve" text-anchor="start" x="212.08" y="-50.08" font-family="Inter,Arial" font-size="10.00" fill="#614000">to memchr&#45;v2.8.0.svg</text>
<text xml:space="preserve" text-anchor="start" x="240.58" y="-40.08" font-family="Inter,Arial" font-weight="bold" font-size="10.00" fill="#614000">memchr</text>
<text xml:space="preserve" text-anchor="start" x="248.83" y="-30.08" font-family="Inter,Arial" font-size="10.00" fill="#614000">2.8.0</text>
</g>
<!-- n0&#45;&gt;out0 -->
<g id="edge1" class="edge">
<title>n0&#45;&gt;out0</title>
<path fill="none" stroke="#d19922" stroke-width="0.9" stroke-dasharray="5,2" d="M163.05,-43.58C173.91,-43.58 184.93,-43.58 195.43,-43.58"/>
<polygon fill="#d19922" stroke="#d19922" stroke-width="0.9" points="195.38,-45.5 200.88,-43.58 195.38,-41.65 195.38,-45.5"/>
</g>
</g>
</svg>
