<?xml version="1.0" encoding="UTF-8" standalone="no"?>
<!DOCTYPE svg PUBLIC "-//W3C//DTD SVG 1.1//EN"
 "http://www.w3.org/Graphics/SVG/1.1/DTD/svg11.dtd">
<!-- Generated by graphviz version 14.1.2 (0)
 -->
<!-- Title: twoway&#45;v0.2.2 Pages: 1 -->
<svg width="265pt" height="59pt"
 viewBox="0.00 0.00 265.00 59.00" xmlns="http://www.w3.org/2000/svg" xmlns:xlink="http://www.w3.org/1999/xlink">
<g id="graph0" class="graph" transform="scale(1 1) rotate(0) translate(4 54.95)">
<title>twoway&#45;v0.2.2</title>
<polygon fill="white" stroke="none" points="-4,4 -4,-54.95 260.79,-54.95 260.79,4 -4,4"/>
<!-- n0 -->
<g id="node1" class="node">
<title>n0</title>
<path fill="#dff3ff" stroke="#1b78a6" d="M98.02,-50.95C98.02,-50.95 12,-50.95 12,-50.95 6,-50.95 0,-44.95 0,-38.95 0,-38.95 0,-12 0,-12 0,-6 6,0 12,0 12,0 98.02,0 98.02,0 104.02,0 110.02,-6 110.02,-12 110.02,-12 110.02,-38.95 110.02,-38.95 110.02,-44.95 104.02,-50.95 98.02,-50.95"/>
<text xml:space="preserve" text-anchor="start" x="37.76" y="-38.85" font-family="Inter,Arial" font-weight="bold" font-size="10.00" fill="#172033">twoway</text>
<text xml:space="preserve" text-anchor="start" x="44.13" y="-25.85" font-family="Inter,Arial" font-size="10.00" fill="#172033">0.2.2</text>
<text xml:space="preserve" text-anchor="start" x="10.76" y="-11.75" font-family="Inter,Arial" font-weight="bold" font-size="8.00" fill="#172033">unchecked&#45;index</text>
<text xml:space="preserve" text-anchor="start" x="79.01" y="-11.75" font-family="Inter,Arial" font-size="8.00" fill="#172033"> 0.2.2</text>
<path fill="none" stroke="#9aa8b8" d="M12.34,-3.6C12.34,-3.6 97.68,-3.6 97.68,-3.6 100.97,-3.6 104.26,-6.89 104.26,-10.18 104.26,-10.18 104.26,-16.77 104.26,-16.77 104.26,-20.06 100.97,-23.35 97.68,-23.35 97.68,-23.35 12.34,-23.35 12.34,-23.35 9.05,-23.35 5.76,-20.06 5.76,-16.77 5.76,-16.77 5.76,-10.18 5.76,-10.18 5.76,-6.89 9.05,-3.6 12.34,-3.6"/>
</g>
<!-- out0 -->
<g id="node2" class="node">
<title>out0</title>
<polygon fill="#fff8e8" stroke="#d19922" points="250.79,-44.08 150.02,-44.08 150.02,-6.88 256.79,-6.88 256.79,-38.08 250.79,-44.08"/>
<polyline fill="none" stroke="#d19922" points="250.79,-44.08 250.79,-38.08"/>
<polyline fill="none" stroke="#d19922" points="256.79,-38.08 250.79,-38.08"/>
<text xml:space="preserve" text-anchor="start" x="155.78" y="-31.98" font-family="Inter,Arial" font-size="10.00" fill="#614000">to memchr&#45;v2.8.0.svg</text>
<text xml:space="preserve" text-anchor="start" x="184.28" y="-21.98" font-family="Inter,Arial" font-weight="bold" font-size="10.00" fill="#614000">memchr</text>
<text xml:space="preserve" text-anchor="start" x="192.53" y="-11.98" font-family="Inter,Arial" font-size="10.00" fill="#614000">2.8.0</text>
</g>
<!-- n0&#45;&gt;out0 -->
<g id="edge1" class="edge">
<title>n0&#45;&gt;out0</title>
<path fill="none" stroke="#d19922" stroke-width="0.9" stroke-dasharray="5,2" d="M110.11,-25.48C120.9,-25.48 132.29,-25.48 143.24,-25.48"/>
<polygon fill="#d19922" stroke="#d19922" stroke-width="0.9" points="143.13,-27.4 148.63,-25.48 143.13,-23.55 143.13,-27.4"/>
</g>
</g>
</svg>
