<?xml version="1.0" encoding="UTF-8" standalone="no"?>
<!DOCTYPE svg PUBLIC "-//W3C//DTD SVG 1.1//EN"
 "http://www.w3.org/Graphics/SVG/1.1/DTD/svg11.dtd">
<!-- Generated by graphviz version 14.1.2 (0)
 -->
<!-- Title: unicode&#45;segmentation&#45;v1.13.2 Pages: 1 -->
<svg width="337pt" height="52pt"
 viewBox="0.00 0.00 337.00 52.00" xmlns="http://www.w3.org/2000/svg" xmlns:xlink="http://www.w3.org/1999/xlink">
<g id="graph0" class="graph" transform="scale(1 1) rotate(0) translate(4 48.4)">
<title>unicode&#45;segmentation&#45;v1.13.2</title>
<polygon fill="white" stroke="none" points="-4,4 -4,-48.4 333.44,-48.4 333.44,4 -4,4"/>
<!-- n0 -->
<g id="node1" class="node">
<title>n0</title>
<path fill="#dff3ff" stroke="#1b78a6" d="M317.44,-41.9C317.44,-41.9 179.47,-41.9 179.47,-41.9 173.47,-41.9 167.47,-35.9 167.47,-29.9 167.47,-29.9 167.47,-14.5 167.47,-14.5 167.47,-8.5 173.47,-2.5 179.47,-2.5 179.47,-2.5 317.44,-2.5 317.44,-2.5 323.44,-2.5 329.44,-8.5 329.44,-14.5 329.44,-14.5 329.44,-29.9 329.44,-29.9 329.44,-35.9 323.44,-41.9 317.44,-41.9"/>
<text xml:space="preserve" text-anchor="start" x="176.83" y="-23.35" font-family="Inter,Arial" font-weight="bold" font-size="13.00" fill="#172033">unicode&#45;segmentation</text>
<text xml:space="preserve" text-anchor="start" x="231.95" y="-11.3" font-family="Inter,Arial" font-size="12.00" fill="#172033">1.13.2</text>
</g>
<!-- in0 -->
<g id="node2" class="node">
<title>in0</title>
<polygon fill="#eef6ff" stroke="#4b8fc5" points="121.47,-44.4 0,-44.4 0,0 127.47,0 127.47,-38.4 121.47,-44.4"/>
<polyline fill="none" stroke="#4b8fc5" points="121.47,-44.4 121.47,-38.4"/>
<polyline fill="none" stroke="#4b8fc5" points="127.47,-38.4 121.47,-38.4"/>
<text xml:space="preserve" text-anchor="start" x="9.36" y="-28.7" font-family="Inter,Arial" font-size="10.00" fill="#123d5c">from crab&#45;usb&#45;v0.9.1.svg</text>
<text xml:space="preserve" text-anchor="start" x="11.99" y="-18.7" font-family="Inter,Arial" font-weight="bold" font-size="10.00" fill="#123d5c">unicode&#45;segmentation</text>
<text xml:space="preserve" text-anchor="start" x="50.24" y="-8.7" font-family="Inter,Arial" font-size="10.00" fill="#123d5c">1.13.2</text>
</g>
<!-- in0&#45;&gt;n0 -->
<g id="edge1" class="edge">
<title>in0&#45;&gt;n0</title>
<path fill="none" stroke="#4b8fc5" stroke-width="0.9" stroke-dasharray="5,2" d="M127.87,-22.2C138.38,-22.2 149.44,-22.2 160.42,-22.2"/>
<polygon fill="#4b8fc5" stroke="#4b8fc5" stroke-width="0.9" points="160.37,-24.13 165.87,-22.2 160.37,-20.28 160.37,-24.13"/>
</g>
</g>
</svg>
