<?xml version="1.0" encoding="UTF-8" standalone="no"?>
<!DOCTYPE svg PUBLIC "-//W3C//DTD SVG 1.1//EN"
 "http://www.w3.org/Graphics/SVG/1.1/DTD/svg11.dtd">
<!-- Generated by graphviz version 14.1.2 (0)
 -->
<!-- Title: unicode&#45;segmentation&#45;v1.13.2 Pages: 1 -->
<svg width="283pt" height="45pt"
 viewBox="0.00 0.00 283.00 45.00" xmlns="http://www.w3.org/2000/svg" xmlns:xlink="http://www.w3.org/1999/xlink">
<g id="graph0" class="graph" transform="scale(1 1) rotate(0) translate(4 41.2)">
<title>unicode&#45;segmentation&#45;v1.13.2</title>
<polygon fill="white" stroke="none" points="-4,4 -4,-41.2 279.29,-41.2 279.29,4 -4,4"/>
<!-- n0 -->
<g id="node1" class="node">
<title>n0</title>
<path fill="#dff3ff" stroke="#1b78a6" d="M263.29,-36.6C263.29,-36.6 172.27,-36.6 172.27,-36.6 166.27,-36.6 160.27,-30.6 160.27,-24.6 160.27,-24.6 160.27,-12.6 160.27,-12.6 160.27,-6.6 166.27,-0.6 172.27,-0.6 172.27,-0.6 263.29,-0.6 263.29,-0.6 269.29,-0.6 275.29,-6.6 275.29,-12.6 275.29,-12.6 275.29,-24.6 275.29,-24.6 275.29,-30.6 269.29,-36.6 263.29,-36.6"/>
<text xml:space="preserve" text-anchor="start" x="166.03" y="-20.1" font-family="Inter,Arial" font-weight="bold" font-size="10.00" fill="#172033">unicode&#45;segmentation</text>
<text xml:space="preserve" text-anchor="start" x="204.28" y="-10.1" font-family="Inter,Arial" font-size="10.00" fill="#172033">1.13.2</text>
</g>
<!-- in0 -->
<g id="node2" class="node">
<title>in0</title>
<polygon fill="#eef6ff" stroke="#4b8fc5" points="114.27,-37.2 0,-37.2 0,0 120.27,0 120.27,-31.2 114.27,-37.2"/>
<polyline fill="none" stroke="#4b8fc5" points="114.27,-37.2 114.27,-31.2"/>
<polyline fill="none" stroke="#4b8fc5" points="120.27,-31.2 114.27,-31.2"/>
<text xml:space="preserve" text-anchor="start" x="5.76" y="-25.1" font-family="Inter,Arial" font-size="10.00" fill="#123d5c">from crab&#45;usb&#45;v0.9.1.svg</text>
<text xml:space="preserve" text-anchor="start" x="8.38" y="-15.1" font-family="Inter,Arial" font-weight="bold" font-size="10.00" fill="#123d5c">unicode&#45;segmentation</text>
<text xml:space="preserve" text-anchor="start" x="46.63" y="-5.1" font-family="Inter,Arial" font-size="10.00" fill="#123d5c">1.13.2</text>
</g>
<!-- in0&#45;&gt;n0 -->
<g id="edge1" class="edge">
<title>in0&#45;&gt;n0</title>
<path fill="none" stroke="#4b8fc5" stroke-width="0.9" stroke-dasharray="5,2" d="M120.42,-18.6C131.16,-18.6 142.41,-18.6 153.27,-18.6"/>
<polygon fill="#4b8fc5" stroke="#4b8fc5" stroke-width="0.9" points="153.11,-20.53 158.61,-18.6 153.11,-16.68 153.11,-20.53"/>
</g>
</g>
</svg>
