<?xml version="1.0" encoding="UTF-8" standalone="no"?>
<!DOCTYPE svg PUBLIC "-//W3C//DTD SVG 1.1//EN"
 "http://www.w3.org/Graphics/SVG/1.1/DTD/svg11.dtd">
<!-- Generated by graphviz version 14.1.2 (0)
 -->
<!-- Title: usvg&#45;v0.45.1 Pages: 1 -->
<svg width="446pt" height="483pt"
 viewBox="0.00 0.00 446.00 483.00" xmlns="http://www.w3.org/2000/svg" xmlns:xlink="http://www.w3.org/1999/xlink">
<g id="graph0" class="graph" transform="scale(1 1) rotate(0) translate(4 479.2)">
<title>usvg&#45;v0.45.1</title>
<polygon fill="white" stroke="none" points="-4,4 -4,-479.2 441.81,-479.2 441.81,4 -4,4"/>
<!-- n0 -->
<g id="node1" class="node">
<title>n0</title>
<path fill="#dff3ff" stroke="#1b78a6" d="M251.29,-331.2C251.29,-331.2 177.52,-331.2 177.52,-331.2 171.52,-331.2 165.52,-325.2 165.52,-319.2 165.52,-319.2 165.52,-306 165.52,-306 165.52,-300 171.52,-294 177.52,-294 177.52,-294 251.29,-294 251.29,-294 257.29,-294 263.29,-300 263.29,-306 263.29,-306 263.29,-319.2 263.29,-319.2 263.29,-325.2 257.29,-331.2 251.29,-331.2"/>
<text xml:space="preserve" text-anchor="start" x="203.15" y="-319.1" font-family="Inter,Arial" font-weight="bold" font-size="10.00" fill="#172033">usvg</text>
<text xml:space="preserve" text-anchor="start" x="200.9" y="-309.1" font-family="Inter,Arial" font-size="10.00" fill="#172033">0.45.1</text>
<text xml:space="preserve" text-anchor="start" x="171.28" y="-299.1" font-family="Inter,Arial" font-size="10.00" fill="#172033">/vendor/usvg&#45;0.45.1</text>
</g>
<!-- out0 -->
<g id="node2" class="node">
<title>out0</title>
<polygon fill="#fff8e8" stroke="#d19922" points="418.69,-475.2 316.42,-475.2 316.42,-428 424.69,-428 424.69,-469.2 418.69,-475.2"/>
<polyline fill="none" stroke="#d19922" points="418.69,-475.2 418.69,-469.2"/>
<polyline fill="none" stroke="#d19922" points="424.69,-469.2 418.69,-469.2"/>
<text xml:space="preserve" text-anchor="start" x="322.18" y="-463.1" font-family="Inter,Arial" font-size="10.00" fill="#614000">to base64&#45;v0.22.1.svg</text>
<text xml:space="preserve" text-anchor="start" x="354.43" y="-453.1" font-family="Inter,Arial" font-weight="bold" font-size="10.00" fill="#614000">base64</text>
<text xml:space="preserve" text-anchor="start" x="357.05" y="-443.1" font-family="Inter,Arial" font-size="10.00" fill="#614000">0.22.1</text>
<text xml:space="preserve" text-anchor="start" x="322.18" y="-433.1" font-family="Inter,Arial" font-size="10.00" fill="#614000">/vendor/base64&#45;0.22.1</text>
</g>
<!-- n0&#45;&gt;out0 -->
<g id="edge1" class="edge">
<title>n0&#45;&gt;out0</title>
<path fill="none" stroke="#d19922" stroke-width="0.9" stroke-dasharray="5,2" d="M228.26,-331.54C244.01,-353.71 272.43,-390.59 303.29,-415.6 306.93,-418.55 310.84,-421.37 314.88,-424.05"/>
<polygon fill="#d19922" stroke="#d19922" stroke-width="0.9" points="313.64,-425.54 319.31,-426.88 315.71,-422.3 313.64,-425.54"/>
</g>
<!-- out1 -->
<g id="node3" class="node">
<title>out1</title>
<polygon fill="#fff8e8" stroke="#d19922" points="414.56,-403.2 320.54,-403.2 320.54,-356 420.56,-356 420.56,-397.2 414.56,-403.2"/>
<polyline fill="none" stroke="#d19922" points="414.56,-403.2 414.56,-397.2"/>
<polyline fill="none" stroke="#d19922" points="420.56,-397.2 414.56,-397.2"/>
<text xml:space="preserve" text-anchor="start" x="326.3" y="-391.1" font-family="Inter,Arial" font-size="10.00" fill="#614000">to kurbo&#45;v0.11.3.svg</text>
<text xml:space="preserve" text-anchor="start" x="357.05" y="-381.1" font-family="Inter,Arial" font-weight="bold" font-size="10.00" fill="#614000">kurbo</text>
<text xml:space="preserve" text-anchor="start" x="357.05" y="-371.1" font-family="Inter,Arial" font-size="10.00" fill="#614000">0.11.3</text>
<text xml:space="preserve" text-anchor="start" x="326.3" y="-361.1" font-family="Inter,Arial" font-size="10.00" fill="#614000">/vendor/kurbo&#45;0.11.3</text>
</g>
<!-- n0&#45;&gt;out1 -->
<g id="edge2" class="edge">
<title>n0&#45;&gt;out1</title>
<path fill="none" stroke="#d19922" stroke-width="0.9" stroke-dasharray="5,2" d="M259.16,-331.62C276.28,-339.06 296.1,-347.68 314.19,-355.54"/>
<polygon fill="#d19922" stroke="#d19922" stroke-width="0.9" points="313.19,-357.2 319.01,-357.63 314.73,-353.67 313.19,-357.2"/>
</g>
<!-- out2 -->
<g id="node4" class="node">
<title>out2</title>
<polygon fill="#fff8e8" stroke="#d19922" points="409.31,-331.2 325.79,-331.2 325.79,-294 415.31,-294 415.31,-325.2 409.31,-331.2"/>
<polyline fill="none" stroke="#d19922" points="409.31,-331.2 409.31,-325.2"/>
<polyline fill="none" stroke="#d19922" points="415.31,-325.2 409.31,-325.2"/>
<text xml:space="preserve" text-anchor="start" x="331.55" y="-319.1" font-family="Inter,Arial" font-size="10.00" fill="#614000">to log&#45;v0.4.29.svg</text>
<text xml:space="preserve" text-anchor="start" x="363.05" y="-309.1" font-family="Inter,Arial" font-weight="bold" font-size="10.00" fill="#614000">log</text>
<text xml:space="preserve" text-anchor="start" x="357.05" y="-299.1" font-family="Inter,Arial" font-size="10.00" fill="#614000">0.4.29</text>
</g>
<!-- n0&#45;&gt;out2 -->
<g id="edge3" class="edge">
<title>n0&#45;&gt;out2</title>
<path fill="none" stroke="#d19922" stroke-width="0.9" stroke-dasharray="5,2" d="M263.75,-312.6C281.29,-312.6 301.14,-312.6 318.87,-312.6"/>
<polygon fill="#d19922" stroke="#d19922" stroke-width="0.9" points="318.44,-314.53 323.94,-312.6 318.44,-310.68 318.44,-314.53"/>
</g>
<!-- out3 -->
<g id="node5" class="node">
<title>out3</title>
<polygon fill="#fff8e8" stroke="#d19922" points="431.81,-269.2 303.29,-269.2 303.29,-212 437.81,-212 437.81,-263.2 431.81,-269.2"/>
<polyline fill="none" stroke="#d19922" points="431.81,-269.2 431.81,-263.2"/>
<polyline fill="none" stroke="#d19922" points="437.81,-263.2 431.81,-263.2"/>
<text xml:space="preserve" text-anchor="start" x="309.05" y="-257.1" font-family="Inter,Arial" font-size="10.00" fill="#614000">to tiny&#45;skia&#45;path&#45;v0.11.4.svg</text>
<text xml:space="preserve" text-anchor="start" x="346.93" y="-247.1" font-family="Inter,Arial" font-weight="bold" font-size="10.00" fill="#614000">strict&#45;num</text>
<text xml:space="preserve" text-anchor="start" x="359.68" y="-237.1" font-family="Inter,Arial" font-size="10.00" fill="#614000">0.1.1</text>
<text xml:space="preserve" text-anchor="start" x="339.43" y="-227.1" font-family="Inter,Arial" font-weight="bold" font-size="10.00" fill="#614000">tiny&#45;skia&#45;path</text>
<text xml:space="preserve" text-anchor="start" x="357.05" y="-217.1" font-family="Inter,Arial" font-size="10.00" fill="#614000">0.11.4</text>
</g>
<!-- n0&#45;&gt;out3 -->
<g id="edge4" class="edge">
<title>n0&#45;&gt;out3</title>
<path fill="none" stroke="#d19922" stroke-width="0.9" stroke-dasharray="5,2" d="M255.9,-293.68C269.84,-287.17 285.86,-279.69 301.39,-272.44"/>
<polygon fill="#d19922" stroke="#d19922" stroke-width="0.9" points="302.13,-274.21 306.3,-270.14 300.5,-270.73 302.13,-274.21"/>
</g>
<!-- out4 -->
<g id="node6" class="node">
<title>out4</title>
<polygon fill="#fff8e8" stroke="#d19922" points="425.06,-187.2 310.04,-187.2 310.04,0 431.06,0 431.06,-181.2 425.06,-187.2"/>
<polyline fill="none" stroke="#d19922" points="425.06,-187.2 425.06,-181.2"/>
<polyline fill="none" stroke="#d19922" points="431.06,-181.2 425.06,-181.2"/>
<text xml:space="preserve" text-anchor="start" x="319.18" y="-175.1" font-family="Inter,Arial" font-size="10.00" fill="#614000">to trueos&#45;qjs&#45;v0.1.0.svg</text>
<text xml:space="preserve" text-anchor="start" x="352.93" y="-165.1" font-family="Inter,Arial" font-weight="bold" font-size="10.00" fill="#614000">data&#45;url</text>
<text xml:space="preserve" text-anchor="start" x="359.68" y="-155.1" font-family="Inter,Arial" font-size="10.00" fill="#614000">0.3.2</text>
<text xml:space="preserve" text-anchor="start" x="346.93" y="-145.1" font-family="Inter,Arial" font-weight="bold" font-size="10.00" fill="#614000">imagesize</text>
<text xml:space="preserve" text-anchor="start" x="357.05" y="-135.1" font-family="Inter,Arial" font-size="10.00" fill="#614000">0.13.0</text>
<text xml:space="preserve" text-anchor="start" x="315.8" y="-125.1" font-family="Inter,Arial" font-size="10.00" fill="#614000">/vendor/imagesize&#45;0.13.0</text>
<text xml:space="preserve" text-anchor="start" x="348.43" y="-115.1" font-family="Inter,Arial" font-weight="bold" font-size="10.00" fill="#614000">roxmltree</text>
<text xml:space="preserve" text-anchor="start" x="357.05" y="-105.1" font-family="Inter,Arial" font-size="10.00" fill="#614000">0.20.0</text>
<text xml:space="preserve" text-anchor="start" x="346.93" y="-95.1" font-family="Inter,Arial" font-weight="bold" font-size="10.00" fill="#614000">simplecss</text>
<text xml:space="preserve" text-anchor="start" x="359.68" y="-85.1" font-family="Inter,Arial" font-size="10.00" fill="#614000">0.2.2</text>
<text xml:space="preserve" text-anchor="start" x="347.68" y="-75.1" font-family="Inter,Arial" font-weight="bold" font-size="10.00" fill="#614000">siphasher</text>
<text xml:space="preserve" text-anchor="start" x="359.68" y="-65.1" font-family="Inter,Arial" font-size="10.00" fill="#614000">1.0.3</text>
<text xml:space="preserve" text-anchor="start" x="349.93" y="-55.1" font-family="Inter,Arial" font-weight="bold" font-size="10.00" fill="#614000">svgtypes</text>
<text xml:space="preserve" text-anchor="start" x="357.05" y="-45.1" font-family="Inter,Arial" font-size="10.00" fill="#614000">0.15.3</text>
<text xml:space="preserve" text-anchor="start" x="318.05" y="-35.1" font-family="Inter,Arial" font-size="10.00" fill="#614000">/vendor/svgtypes&#45;0.15.3</text>
<text xml:space="preserve" text-anchor="start" x="348.8" y="-25.1" font-family="Inter,Arial" font-weight="bold" font-size="10.00" fill="#614000">xmlwriter</text>
<text xml:space="preserve" text-anchor="start" x="359.68" y="-15.1" font-family="Inter,Arial" font-size="10.00" fill="#614000">0.1.0</text>
<text xml:space="preserve" text-anchor="start" x="320.68" y="-5.1" font-family="Inter,Arial" font-size="10.00" fill="#614000">/vendor/xmlwriter&#45;0.1.0</text>
</g>
<!-- n0&#45;&gt;out4 -->
<g id="edge5" class="edge">
<title>n0&#45;&gt;out4</title>
<path fill="none" stroke="#d19922" stroke-width="0.9" stroke-dasharray="5,2" d="M228.81,-293.55C246.06,-269.05 277.2,-224.8 305.81,-184.15"/>
<polygon fill="#d19922" stroke="#d19922" stroke-width="0.9" points="307.28,-185.42 308.87,-179.81 304.13,-183.2 307.28,-185.42"/>
</g>
<!-- in5 -->
<g id="node7" class="node">
<title>in5</title>
<polygon fill="#eef6ff" stroke="#4b8fc5" points="119.52,-336.2 0,-336.2 0,-289 125.52,-289 125.52,-330.2 119.52,-336.2"/>
<polyline fill="none" stroke="#4b8fc5" points="119.52,-336.2 119.52,-330.2"/>
<polyline fill="none" stroke="#4b8fc5" points="125.52,-330.2 119.52,-330.2"/>
<text xml:space="preserve" text-anchor="start" x="5.76" y="-324.1" font-family="Inter,Arial" font-size="10.00" fill="#123d5c">from trueos&#45;qjs&#45;v0.1.0.svg</text>
<text xml:space="preserve" text-anchor="start" x="51.51" y="-314.1" font-family="Inter,Arial" font-weight="bold" font-size="10.00" fill="#123d5c">usvg</text>
<text xml:space="preserve" text-anchor="start" x="49.26" y="-304.1" font-family="Inter,Arial" font-size="10.00" fill="#123d5c">0.45.1</text>
<text xml:space="preserve" text-anchor="start" x="19.63" y="-294.1" font-family="Inter,Arial" font-size="10.00" fill="#123d5c">/vendor/usvg&#45;0.45.1</text>
</g>
<!-- in5&#45;&gt;n0 -->
<g id="edge6" class="edge">
<title>in5&#45;&gt;n0</title>
<path fill="none" stroke="#4b8fc5" stroke-width="0.9" stroke-dasharray="5,2" d="M125.92,-312.6C136.83,-312.6 148.1,-312.6 158.79,-312.6"/>
<polygon fill="#4b8fc5" stroke="#4b8fc5" stroke-width="0.9" points="158.49,-314.53 163.99,-312.6 158.49,-310.68 158.49,-314.53"/>
</g>
</g>
</svg>
