<?xml version="1.0" encoding="UTF-8" standalone="no"?>
<!DOCTYPE svg PUBLIC "-//W3C//DTD SVG 1.1//EN"
 "http://www.w3.org/Graphics/SVG/1.1/DTD/svg11.dtd">
<!-- Generated by graphviz version 14.1.2 (0)
 -->
<!-- Title: usvg&#45;v0.45.1 Pages: 1 -->
<svg width="509pt" height="449pt"
 viewBox="0.00 0.00 509.00 449.00" xmlns="http://www.w3.org/2000/svg" xmlns:xlink="http://www.w3.org/1999/xlink">
<g id="graph0" class="graph" transform="scale(1 1) rotate(0) translate(4 445.4)">
<title>usvg&#45;v0.45.1</title>
<polygon fill="white" stroke="none" points="-4,4 -4,-445.4 504.66,-445.4 504.66,4 -4,4"/>
<!-- n0 -->
<g id="node1" class="node">
<title>n0</title>
<path fill="#dff3ff" stroke="#1b78a6" d="M274.69,-318.4C274.69,-318.4 184.72,-318.4 184.72,-318.4 178.72,-318.4 172.72,-312.4 172.72,-306.4 172.72,-306.4 172.72,-280 172.72,-280 172.72,-274 178.72,-268 184.72,-268 184.72,-268 274.69,-268 274.69,-268 280.69,-268 286.69,-274 286.69,-280 286.69,-280 286.69,-306.4 286.69,-306.4 286.69,-312.4 280.69,-318.4 274.69,-318.4"/>
<text xml:space="preserve" text-anchor="start" x="213.96" y="-299.85" font-family="Inter,Arial" font-weight="bold" font-size="13.00" fill="#172033">usvg</text>
<text xml:space="preserve" text-anchor="start" x="213.21" y="-287.8" font-family="Inter,Arial" font-size="12.00" fill="#172033">0.45.1</text>
<text xml:space="preserve" text-anchor="start" x="182.08" y="-276.75" font-family="Inter,Arial" font-size="11.00" fill="#172033">/vendor/usvg&#45;0.45.1</text>
</g>
<!-- out0 -->
<g id="node2" class="node">
<title>out0</title>
<polygon fill="#fff8e8" stroke="#d19922" points="494.66,-441.4 326.69,-441.4 326.69,-387 500.66,-387 500.66,-435.4 494.66,-441.4"/>
<polyline fill="none" stroke="#d19922" points="494.66,-441.4 494.66,-435.4"/>
<polyline fill="none" stroke="#d19922" points="500.66,-435.4 494.66,-435.4"/>
<text xml:space="preserve" text-anchor="start" x="336.05" y="-425.7" font-family="Inter,Arial" font-size="10.00" fill="#614000">to embedded&#45;websocket&#45;v0.9.4.svg</text>
<text xml:space="preserve" text-anchor="start" x="397.55" y="-415.7" font-family="Inter,Arial" font-weight="bold" font-size="10.00" fill="#614000">base64</text>
<text xml:space="preserve" text-anchor="start" x="400.17" y="-405.7" font-family="Inter,Arial" font-size="10.00" fill="#614000">0.22.1</text>
<text xml:space="preserve" text-anchor="start" x="365.3" y="-395.7" font-family="Inter,Arial" font-size="10.00" fill="#614000">/vendor/base64&#45;0.22.1</text>
</g>
<!-- n0&#45;&gt;out0 -->
<g id="edge1" class="edge">
<title>n0&#45;&gt;out0</title>
<path fill="none" stroke="#d19922" stroke-width="7.2" stroke-dasharray="5,2" d="M256.42,-318.68C274.89,-336.08 300.98,-358.85 326.69,-375.2 329.77,-377.16 332.97,-379.07 336.24,-380.94"/>
<polygon fill="#d19922" stroke="#d19922" stroke-width="7.2" points="334.44,-383.9 340.93,-383.48 337.74,-377.81 334.44,-383.9"/>
</g>
<!-- out1 -->
<g id="node3" class="node">
<title>out1</title>
<polygon fill="#fff8e8" stroke="#d19922" points="461.28,-362.4 360.06,-362.4 360.06,-308 467.28,-308 467.28,-356.4 461.28,-362.4"/>
<polyline fill="none" stroke="#d19922" points="461.28,-362.4 461.28,-356.4"/>
<polyline fill="none" stroke="#d19922" points="467.28,-356.4 461.28,-356.4"/>
<text xml:space="preserve" text-anchor="start" x="369.42" y="-346.7" font-family="Inter,Arial" font-size="10.00" fill="#614000">to kurbo&#45;v0.11.3.svg</text>
<text xml:space="preserve" text-anchor="start" x="400.17" y="-336.7" font-family="Inter,Arial" font-weight="bold" font-size="10.00" fill="#614000">kurbo</text>
<text xml:space="preserve" text-anchor="start" x="400.17" y="-326.7" font-family="Inter,Arial" font-size="10.00" fill="#614000">0.11.3</text>
<text xml:space="preserve" text-anchor="start" x="369.42" y="-316.7" font-family="Inter,Arial" font-size="10.00" fill="#614000">/vendor/kurbo&#45;0.11.3</text>
</g>
<!-- n0&#45;&gt;out1 -->
<g id="edge2" class="edge">
<title>n0&#45;&gt;out1</title>
<path fill="none" stroke="#d19922" stroke-width="7.2" stroke-dasharray="5,2" d="M286.79,-306.14C306.08,-310.6 327.83,-315.62 347.76,-320.22"/>
<polygon fill="#d19922" stroke="#d19922" stroke-width="7.2" points="346.86,-323.57 353,-321.43 348.42,-316.81 346.86,-323.57"/>
</g>
<!-- out2 -->
<g id="node4" class="node">
<title>out2</title>
<polygon fill="#fff8e8" stroke="#d19922" points="478.53,-283.4 342.81,-283.4 342.81,-219 484.53,-219 484.53,-277.4 478.53,-283.4"/>
<polyline fill="none" stroke="#d19922" points="478.53,-283.4 478.53,-277.4"/>
<polyline fill="none" stroke="#d19922" points="484.53,-277.4 478.53,-277.4"/>
<text xml:space="preserve" text-anchor="start" x="352.17" y="-267.7" font-family="Inter,Arial" font-size="10.00" fill="#614000">to tiny&#45;skia&#45;path&#45;v0.11.4.svg</text>
<text xml:space="preserve" text-anchor="start" x="390.05" y="-257.7" font-family="Inter,Arial" font-weight="bold" font-size="10.00" fill="#614000">strict&#45;num</text>
<text xml:space="preserve" text-anchor="start" x="402.8" y="-247.7" font-family="Inter,Arial" font-size="10.00" fill="#614000">0.1.1</text>
<text xml:space="preserve" text-anchor="start" x="382.55" y="-237.7" font-family="Inter,Arial" font-weight="bold" font-size="10.00" fill="#614000">tiny&#45;skia&#45;path</text>
<text xml:space="preserve" text-anchor="start" x="400.17" y="-227.7" font-family="Inter,Arial" font-size="10.00" fill="#614000">0.11.4</text>
</g>
<!-- n0&#45;&gt;out2 -->
<g id="edge3" class="edge">
<title>n0&#45;&gt;out2</title>
<path fill="none" stroke="#d19922" stroke-width="7.2" stroke-dasharray="5,2" d="M286.79,-280.26C300.71,-277.04 315.92,-273.53 330.81,-270.1"/>
<polygon fill="#d19922" stroke="#d19922" stroke-width="7.2" points="331.48,-273.5 336.06,-268.88 329.92,-266.74 331.48,-273.5"/>
</g>
<!-- out3 -->
<g id="node5" class="node">
<title>out3</title>
<polygon fill="#fff8e8" stroke="#d19922" points="471.78,-194.4 349.56,-194.4 349.56,0 477.78,0 477.78,-188.4 471.78,-194.4"/>
<polyline fill="none" stroke="#d19922" points="471.78,-194.4 471.78,-188.4"/>
<polyline fill="none" stroke="#d19922" points="477.78,-188.4 471.78,-188.4"/>
<text xml:space="preserve" text-anchor="start" x="362.3" y="-178.7" font-family="Inter,Arial" font-size="10.00" fill="#614000">to trueos&#45;qjs&#45;v0.1.0.svg</text>
<text xml:space="preserve" text-anchor="start" x="396.05" y="-168.7" font-family="Inter,Arial" font-weight="bold" font-size="10.00" fill="#614000">data&#45;url</text>
<text xml:space="preserve" text-anchor="start" x="402.8" y="-158.7" font-family="Inter,Arial" font-size="10.00" fill="#614000">0.3.2</text>
<text xml:space="preserve" text-anchor="start" x="390.05" y="-148.7" font-family="Inter,Arial" font-weight="bold" font-size="10.00" fill="#614000">imagesize</text>
<text xml:space="preserve" text-anchor="start" x="400.17" y="-138.7" font-family="Inter,Arial" font-size="10.00" fill="#614000">0.13.0</text>
<text xml:space="preserve" text-anchor="start" x="358.92" y="-128.7" font-family="Inter,Arial" font-size="10.00" fill="#614000">/vendor/imagesize&#45;0.13.0</text>
<text xml:space="preserve" text-anchor="start" x="391.55" y="-118.7" font-family="Inter,Arial" font-weight="bold" font-size="10.00" fill="#614000">roxmltree</text>
<text xml:space="preserve" text-anchor="start" x="400.17" y="-108.7" font-family="Inter,Arial" font-size="10.00" fill="#614000">0.20.0</text>
<text xml:space="preserve" text-anchor="start" x="390.05" y="-98.7" font-family="Inter,Arial" font-weight="bold" font-size="10.00" fill="#614000">simplecss</text>
<text xml:space="preserve" text-anchor="start" x="402.8" y="-88.7" font-family="Inter,Arial" font-size="10.00" fill="#614000">0.2.2</text>
<text xml:space="preserve" text-anchor="start" x="390.8" y="-78.7" font-family="Inter,Arial" font-weight="bold" font-size="10.00" fill="#614000">siphasher</text>
<text xml:space="preserve" text-anchor="start" x="402.8" y="-68.7" font-family="Inter,Arial" font-size="10.00" fill="#614000">1.0.3</text>
<text xml:space="preserve" text-anchor="start" x="393.05" y="-58.7" font-family="Inter,Arial" font-weight="bold" font-size="10.00" fill="#614000">svgtypes</text>
<text xml:space="preserve" text-anchor="start" x="400.17" y="-48.7" font-family="Inter,Arial" font-size="10.00" fill="#614000">0.15.3</text>
<text xml:space="preserve" text-anchor="start" x="361.17" y="-38.7" font-family="Inter,Arial" font-size="10.00" fill="#614000">/vendor/svgtypes&#45;0.15.3</text>
<text xml:space="preserve" text-anchor="start" x="391.92" y="-28.7" font-family="Inter,Arial" font-weight="bold" font-size="10.00" fill="#614000">xmlwriter</text>
<text xml:space="preserve" text-anchor="start" x="402.8" y="-18.7" font-family="Inter,Arial" font-size="10.00" fill="#614000">0.1.0</text>
<text xml:space="preserve" text-anchor="start" x="363.8" y="-8.7" font-family="Inter,Arial" font-size="10.00" fill="#614000">/vendor/xmlwriter&#45;0.1.0</text>
</g>
<!-- n0&#45;&gt;out3 -->
<g id="edge4" class="edge">
<title>n0&#45;&gt;out3</title>
<path fill="none" stroke="#d19922" stroke-width="7.2" stroke-dasharray="5,2" d="M254.49,-267.58C276.51,-243.86 310.4,-207.36 341.17,-174.22"/>
<polygon fill="#d19922" stroke="#d19922" stroke-width="7.2" points="343.53,-176.77 344.73,-170.38 338.45,-172.05 343.53,-176.77"/>
</g>
<!-- in4 -->
<g id="node6" class="node">
<title>in4</title>
<polygon fill="#eef6ff" stroke="#4b8fc5" points="126.72,-320.4 0,-320.4 0,-266 132.72,-266 132.72,-314.4 126.72,-320.4"/>
<polyline fill="none" stroke="#4b8fc5" points="126.72,-320.4 126.72,-314.4"/>
<polyline fill="none" stroke="#4b8fc5" points="132.72,-314.4 126.72,-314.4"/>
<text xml:space="preserve" text-anchor="start" x="9.36" y="-304.7" font-family="Inter,Arial" font-size="10.00" fill="#123d5c">from trueos&#45;qjs&#45;v0.1.0.svg</text>
<text xml:space="preserve" text-anchor="start" x="55.11" y="-294.7" font-family="Inter,Arial" font-weight="bold" font-size="10.00" fill="#123d5c">usvg</text>
<text xml:space="preserve" text-anchor="start" x="52.86" y="-284.7" font-family="Inter,Arial" font-size="10.00" fill="#123d5c">0.45.1</text>
<text xml:space="preserve" text-anchor="start" x="23.24" y="-274.7" font-family="Inter,Arial" font-size="10.00" fill="#123d5c">/vendor/usvg&#45;0.45.1</text>
</g>
<!-- in4&#45;&gt;n0 -->
<g id="edge5" class="edge">
<title>in4&#45;&gt;n0</title>
<path fill="none" stroke="#4b8fc5" stroke-width="7.2" stroke-dasharray="5,2" d="M132.99,-293.2C141.98,-293.2 151.24,-293.2 160.28,-293.2"/>
<polygon fill="#4b8fc5" stroke="#4b8fc5" stroke-width="7.2" points="160.19,-296.67 165.69,-293.2 160.19,-289.74 160.19,-296.67"/>
</g>
</g>
</svg>
