<?xml version="1.0" encoding="UTF-8" standalone="no"?>
<!DOCTYPE svg PUBLIC "-//W3C//DTD SVG 1.1//EN"
 "http://www.w3.org/Graphics/SVG/1.1/DTD/svg11.dtd">
<!-- Generated by graphviz version 14.1.2 (0)
 -->
<!-- Title: usvg&#45;v0.45.1 Pages: 1 -->
<svg width="476pt" height="518pt"
 viewBox="0.00 0.00 476.00 518.00" xmlns="http://www.w3.org/2000/svg" xmlns:xlink="http://www.w3.org/1999/xlink">
<g id="graph0" class="graph" transform="scale(1 1) rotate(0) translate(4 514.4)">
<title>usvg&#45;v0.45.1</title>
<polygon fill="white" stroke="none" points="-4,4 -4,-514.4 472.41,-514.4 472.41,4 -4,4"/>
<!-- n0 -->
<g id="node1" class="node">
<title>n0</title>
<path fill="#dff3ff" stroke="#1b78a6" d="M274.69,-355.4C274.69,-355.4 184.72,-355.4 184.72,-355.4 178.72,-355.4 172.72,-349.4 172.72,-343.4 172.72,-343.4 172.72,-317 172.72,-317 172.72,-311 178.72,-305 184.72,-305 184.72,-305 274.69,-305 274.69,-305 280.69,-305 286.69,-311 286.69,-317 286.69,-317 286.69,-343.4 286.69,-343.4 286.69,-349.4 280.69,-355.4 274.69,-355.4"/>
<text xml:space="preserve" text-anchor="start" x="213.95" y="-336.85" font-family="Inter,Arial" font-weight="bold" font-size="13.00" fill="#172033">usvg</text>
<text xml:space="preserve" text-anchor="start" x="213.2" y="-324.8" font-family="Inter,Arial" font-size="12.00" fill="#172033">0.45.1</text>
<text xml:space="preserve" text-anchor="start" x="182.08" y="-313.75" font-family="Inter,Arial" font-size="11.00" fill="#172033">/vendor/usvg&#45;0.45.1</text>
</g>
<!-- out0 -->
<g id="node2" class="node">
<title>out0</title>
<polygon fill="#fff8e8" stroke="#d19922" points="449.28,-510.4 339.81,-510.4 339.81,-456 455.28,-456 455.28,-504.4 449.28,-510.4"/>
<polyline fill="none" stroke="#d19922" points="449.28,-510.4 449.28,-504.4"/>
<polyline fill="none" stroke="#d19922" points="455.28,-504.4 449.28,-504.4"/>
<text xml:space="preserve" text-anchor="start" x="349.17" y="-494.7" font-family="Inter,Arial" font-size="10.00" fill="#614000">to base64&#45;v0.22.1.svg</text>
<text xml:space="preserve" text-anchor="start" x="381.42" y="-484.7" font-family="Inter,Arial" font-weight="bold" font-size="10.00" fill="#614000">base64</text>
<text xml:space="preserve" text-anchor="start" x="384.05" y="-474.7" font-family="Inter,Arial" font-size="10.00" fill="#614000">0.22.1</text>
<text xml:space="preserve" text-anchor="start" x="349.17" y="-464.7" font-family="Inter,Arial" font-size="10.00" fill="#614000">/vendor/base64&#45;0.22.1</text>
</g>
<!-- n0&#45;&gt;out0 -->
<g id="edge1" class="edge">
<title>n0&#45;&gt;out0</title>
<path fill="none" stroke="#d19922" stroke-width="0.9" stroke-dasharray="5,2" d="M247.94,-355.62C265.62,-380.38 294.96,-418.01 326.69,-444.2 329.85,-446.81 333.22,-449.34 336.69,-451.77"/>
<polygon fill="#d19922" stroke="#d19922" stroke-width="0.9" points="335.46,-453.26 341.1,-454.74 337.62,-450.07 335.46,-453.26"/>
</g>
<!-- out1 -->
<g id="node3" class="node">
<title>out1</title>
<polygon fill="#fff8e8" stroke="#d19922" points="445.16,-431.4 343.94,-431.4 343.94,-377 451.16,-377 451.16,-425.4 445.16,-431.4"/>
<polyline fill="none" stroke="#d19922" points="445.16,-431.4 445.16,-425.4"/>
<polyline fill="none" stroke="#d19922" points="451.16,-425.4 445.16,-425.4"/>
<text xml:space="preserve" text-anchor="start" x="353.3" y="-415.7" font-family="Inter,Arial" font-size="10.00" fill="#614000">to kurbo&#45;v0.11.3.svg</text>
<text xml:space="preserve" text-anchor="start" x="384.05" y="-405.7" font-family="Inter,Arial" font-weight="bold" font-size="10.00" fill="#614000">kurbo</text>
<text xml:space="preserve" text-anchor="start" x="384.05" y="-395.7" font-family="Inter,Arial" font-size="10.00" fill="#614000">0.11.3</text>
<text xml:space="preserve" text-anchor="start" x="353.3" y="-385.7" font-family="Inter,Arial" font-size="10.00" fill="#614000">/vendor/kurbo&#45;0.11.3</text>
</g>
<!-- n0&#45;&gt;out1 -->
<g id="edge2" class="edge">
<title>n0&#45;&gt;out1</title>
<path fill="none" stroke="#d19922" stroke-width="0.9" stroke-dasharray="5,2" d="M286.85,-355.25C303.17,-362.54 321.04,-370.51 337.53,-377.87"/>
<polygon fill="#d19922" stroke="#d19922" stroke-width="0.9" points="336.49,-379.51 342.3,-379.99 338.06,-375.99 336.49,-379.51"/>
</g>
<!-- out2 -->
<g id="node4" class="node">
<title>out2</title>
<polygon fill="#fff8e8" stroke="#d19922" points="439.91,-352.4 349.19,-352.4 349.19,-308 445.91,-308 445.91,-346.4 439.91,-352.4"/>
<polyline fill="none" stroke="#d19922" points="439.91,-352.4 439.91,-346.4"/>
<polyline fill="none" stroke="#d19922" points="445.91,-346.4 439.91,-346.4"/>
<text xml:space="preserve" text-anchor="start" x="358.55" y="-336.7" font-family="Inter,Arial" font-size="10.00" fill="#614000">to log&#45;v0.4.29.svg</text>
<text xml:space="preserve" text-anchor="start" x="390.05" y="-326.7" font-family="Inter,Arial" font-weight="bold" font-size="10.00" fill="#614000">log</text>
<text xml:space="preserve" text-anchor="start" x="384.05" y="-316.7" font-family="Inter,Arial" font-size="10.00" fill="#614000">0.4.29</text>
</g>
<!-- n0&#45;&gt;out2 -->
<g id="edge3" class="edge">
<title>n0&#45;&gt;out2</title>
<path fill="none" stroke="#d19922" stroke-width="0.9" stroke-dasharray="5,2" d="M286.85,-330.2C304.76,-330.2 324.54,-330.2 342.31,-330.2"/>
<polygon fill="#d19922" stroke="#d19922" stroke-width="0.9" points="341.9,-332.13 347.4,-330.2 341.9,-328.28 341.9,-332.13"/>
</g>
<!-- out3 -->
<g id="node5" class="node">
<title>out3</title>
<polygon fill="#fff8e8" stroke="#d19922" points="462.41,-283.4 326.69,-283.4 326.69,-219 468.41,-219 468.41,-277.4 462.41,-283.4"/>
<polyline fill="none" stroke="#d19922" points="462.41,-283.4 462.41,-277.4"/>
<polyline fill="none" stroke="#d19922" points="468.41,-277.4 462.41,-277.4"/>
<text xml:space="preserve" text-anchor="start" x="336.05" y="-267.7" font-family="Inter,Arial" font-size="10.00" fill="#614000">to tiny&#45;skia&#45;path&#45;v0.11.4.svg</text>
<text xml:space="preserve" text-anchor="start" x="373.92" y="-257.7" font-family="Inter,Arial" font-weight="bold" font-size="10.00" fill="#614000">strict&#45;num</text>
<text xml:space="preserve" text-anchor="start" x="386.67" y="-247.7" font-family="Inter,Arial" font-size="10.00" fill="#614000">0.1.1</text>
<text xml:space="preserve" text-anchor="start" x="366.42" y="-237.7" font-family="Inter,Arial" font-weight="bold" font-size="10.00" fill="#614000">tiny&#45;skia&#45;path</text>
<text xml:space="preserve" text-anchor="start" x="384.05" y="-227.7" font-family="Inter,Arial" font-size="10.00" fill="#614000">0.11.4</text>
</g>
<!-- n0&#45;&gt;out3 -->
<g id="edge4" class="edge">
<title>n0&#45;&gt;out3</title>
<path fill="none" stroke="#d19922" stroke-width="0.9" stroke-dasharray="5,2" d="M284.55,-304.55C296.5,-298.86 309.37,-292.73 321.98,-286.72"/>
<polygon fill="#d19922" stroke="#d19922" stroke-width="0.9" points="322.78,-288.47 326.91,-284.37 321.12,-285 322.78,-288.47"/>
</g>
<!-- out4 -->
<g id="node6" class="node">
<title>out4</title>
<polygon fill="#fff8e8" stroke="#d19922" points="455.66,-194.4 333.44,-194.4 333.44,0 461.66,0 461.66,-188.4 455.66,-194.4"/>
<polyline fill="none" stroke="#d19922" points="455.66,-194.4 455.66,-188.4"/>
<polyline fill="none" stroke="#d19922" points="461.66,-188.4 455.66,-188.4"/>
<text xml:space="preserve" text-anchor="start" x="346.17" y="-178.7" font-family="Inter,Arial" font-size="10.00" fill="#614000">to trueos&#45;qjs&#45;v0.1.0.svg</text>
<text xml:space="preserve" text-anchor="start" x="379.92" y="-168.7" font-family="Inter,Arial" font-weight="bold" font-size="10.00" fill="#614000">data&#45;url</text>
<text xml:space="preserve" text-anchor="start" x="386.67" y="-158.7" font-family="Inter,Arial" font-size="10.00" fill="#614000">0.3.2</text>
<text xml:space="preserve" text-anchor="start" x="373.92" y="-148.7" font-family="Inter,Arial" font-weight="bold" font-size="10.00" fill="#614000">imagesize</text>
<text xml:space="preserve" text-anchor="start" x="384.05" y="-138.7" font-family="Inter,Arial" font-size="10.00" fill="#614000">0.13.0</text>
<text xml:space="preserve" text-anchor="start" x="342.8" y="-128.7" font-family="Inter,Arial" font-size="10.00" fill="#614000">/vendor/imagesize&#45;0.13.0</text>
<text xml:space="preserve" text-anchor="start" x="375.42" y="-118.7" font-family="Inter,Arial" font-weight="bold" font-size="10.00" fill="#614000">roxmltree</text>
<text xml:space="preserve" text-anchor="start" x="384.05" y="-108.7" font-family="Inter,Arial" font-size="10.00" fill="#614000">0.20.0</text>
<text xml:space="preserve" text-anchor="start" x="373.92" y="-98.7" font-family="Inter,Arial" font-weight="bold" font-size="10.00" fill="#614000">simplecss</text>
<text xml:space="preserve" text-anchor="start" x="386.67" y="-88.7" font-family="Inter,Arial" font-size="10.00" fill="#614000">0.2.2</text>
<text xml:space="preserve" text-anchor="start" x="374.67" y="-78.7" font-family="Inter,Arial" font-weight="bold" font-size="10.00" fill="#614000">siphasher</text>
<text xml:space="preserve" text-anchor="start" x="386.67" y="-68.7" font-family="Inter,Arial" font-size="10.00" fill="#614000">1.0.3</text>
<text xml:space="preserve" text-anchor="start" x="376.92" y="-58.7" font-family="Inter,Arial" font-weight="bold" font-size="10.00" fill="#614000">svgtypes</text>
<text xml:space="preserve" text-anchor="start" x="384.05" y="-48.7" font-family="Inter,Arial" font-size="10.00" fill="#614000">0.15.3</text>
<text xml:space="preserve" text-anchor="start" x="345.05" y="-38.7" font-family="Inter,Arial" font-size="10.00" fill="#614000">/vendor/svgtypes&#45;0.15.3</text>
<text xml:space="preserve" text-anchor="start" x="375.8" y="-28.7" font-family="Inter,Arial" font-weight="bold" font-size="10.00" fill="#614000">xmlwriter</text>
<text xml:space="preserve" text-anchor="start" x="386.67" y="-18.7" font-family="Inter,Arial" font-size="10.00" fill="#614000">0.1.0</text>
<text xml:space="preserve" text-anchor="start" x="347.67" y="-8.7" font-family="Inter,Arial" font-size="10.00" fill="#614000">/vendor/xmlwriter&#45;0.1.0</text>
</g>
<!-- n0&#45;&gt;out4 -->
<g id="edge5" class="edge">
<title>n0&#45;&gt;out4</title>
<path fill="none" stroke="#d19922" stroke-width="0.9" stroke-dasharray="5,2" d="M248.77,-304.82C268.09,-277.67 299.91,-232.98 329.08,-191.99"/>
<polygon fill="#d19922" stroke="#d19922" stroke-width="0.9" points="330.58,-193.21 332.2,-187.61 327.44,-190.97 330.58,-193.21"/>
</g>
<!-- in5 -->
<g id="node7" class="node">
<title>in5</title>
<polygon fill="#eef6ff" stroke="#4b8fc5" points="126.72,-357.4 0,-357.4 0,-303 132.72,-303 132.72,-351.4 126.72,-357.4"/>
<polyline fill="none" stroke="#4b8fc5" points="126.72,-357.4 126.72,-351.4"/>
<polyline fill="none" stroke="#4b8fc5" points="132.72,-351.4 126.72,-351.4"/>
<text xml:space="preserve" text-anchor="start" x="9.36" y="-341.7" font-family="Inter,Arial" font-size="10.00" fill="#123d5c">from trueos&#45;qjs&#45;v0.1.0.svg</text>
<text xml:space="preserve" text-anchor="start" x="55.11" y="-331.7" font-family="Inter,Arial" font-weight="bold" font-size="10.00" fill="#123d5c">usvg</text>
<text xml:space="preserve" text-anchor="start" x="52.86" y="-321.7" font-family="Inter,Arial" font-size="10.00" fill="#123d5c">0.45.1</text>
<text xml:space="preserve" text-anchor="start" x="23.24" y="-311.7" font-family="Inter,Arial" font-size="10.00" fill="#123d5c">/vendor/usvg&#45;0.45.1</text>
</g>
<!-- in5&#45;&gt;n0 -->
<g id="edge6" class="edge">
<title>in5&#45;&gt;n0</title>
<path fill="none" stroke="#4b8fc5" stroke-width="0.9" stroke-dasharray="5,2" d="M132.99,-330.2C143.82,-330.2 155.04,-330.2 165.8,-330.2"/>
<polygon fill="#4b8fc5" stroke="#4b8fc5" stroke-width="0.9" points="165.58,-332.13 171.08,-330.2 165.58,-328.28 165.58,-332.13"/>
</g>
</g>
</svg>
