<?xml version="1.0" encoding="UTF-8" standalone="no"?>
<!DOCTYPE svg PUBLIC "-//W3C//DTD SVG 1.1//EN"
 "http://www.w3.org/Graphics/SVG/1.1/DTD/svg11.dtd">
<!-- Generated by graphviz version 14.1.2 (0)
 -->
<!-- Title: usvg&#45;v0.45.1 Pages: 1 -->
<svg width="476pt" height="449pt"
 viewBox="0.00 0.00 476.00 449.00" xmlns="http://www.w3.org/2000/svg" xmlns:xlink="http://www.w3.org/1999/xlink">
<g id="graph0" class="graph" transform="scale(1 1) rotate(0) translate(4 445.4)">
<title>usvg&#45;v0.45.1</title>
<polygon fill="white" stroke="none" points="-4,4 -4,-445.4 472.41,-445.4 472.41,4 -4,4"/>
<!-- n0 -->
<g id="node1" class="node">
<title>n0</title>
<path fill="#dff3ff" stroke="#1b78a6" d="M274.69,-318.4C274.69,-318.4 184.72,-318.4 184.72,-318.4 178.72,-318.4 172.72,-312.4 172.72,-306.4 172.72,-306.4 172.72,-280 172.72,-280 172.72,-274 178.72,-268 184.72,-268 184.72,-268 274.69,-268 274.69,-268 280.69,-268 286.69,-274 286.69,-280 286.69,-280 286.69,-306.4 286.69,-306.4 286.69,-312.4 280.69,-318.4 274.69,-318.4"/>
<text xml:space="preserve" text-anchor="start" x="213.95" y="-299.85" font-family="Inter,Arial" font-weight="bold" font-size="13.00" fill="#172033">usvg</text>
<text xml:space="preserve" text-anchor="start" x="213.2" y="-287.8" font-family="Inter,Arial" font-size="12.00" fill="#172033">0.45.1</text>
<text xml:space="preserve" text-anchor="start" x="182.08" y="-276.75" font-family="Inter,Arial" font-size="11.00" fill="#172033">/vendor/usvg&#45;0.45.1</text>
</g>
<!-- out0 -->
<g id="node2" class="node">
<title>out0</title>
<polygon fill="#fff8e8" stroke="#d19922" points="449.28,-441.4 339.81,-441.4 339.81,-387 455.28,-387 455.28,-435.4 449.28,-441.4"/>
<polyline fill="none" stroke="#d19922" points="449.28,-441.4 449.28,-435.4"/>
<polyline fill="none" stroke="#d19922" points="455.28,-435.4 449.28,-435.4"/>
<text xml:space="preserve" text-anchor="start" x="349.17" y="-425.7" font-family="Inter,Arial" font-size="10.00" fill="#614000">to base64&#45;v0.22.1.svg</text>
<text xml:space="preserve" text-anchor="start" x="381.42" y="-415.7" font-family="Inter,Arial" font-weight="bold" font-size="10.00" fill="#614000">base64</text>
<text xml:space="preserve" text-anchor="start" x="384.05" y="-405.7" font-family="Inter,Arial" font-size="10.00" fill="#614000">0.22.1</text>
<text xml:space="preserve" text-anchor="start" x="349.17" y="-395.7" font-family="Inter,Arial" font-size="10.00" fill="#614000">/vendor/base64&#45;0.22.1</text>
</g>
<!-- n0&#45;&gt;out0 -->
<g id="edge1" class="edge">
<title>n0&#45;&gt;out0</title>
<path fill="none" stroke="#d19922" stroke-width="0.9" stroke-dasharray="5,2" d="M257.67,-318.76C276.29,-335.77 302.05,-358.05 326.69,-375.2 330.53,-377.87 334.57,-380.52 338.69,-383.1"/>
<polygon fill="#d19922" stroke="#d19922" stroke-width="0.9" points="337.49,-384.62 343.18,-385.85 339.5,-381.34 337.49,-384.62"/>
</g>
<!-- out1 -->
<g id="node3" class="node">
<title>out1</title>
<polygon fill="#fff8e8" stroke="#d19922" points="445.16,-362.4 343.94,-362.4 343.94,-308 451.16,-308 451.16,-356.4 445.16,-362.4"/>
<polyline fill="none" stroke="#d19922" points="445.16,-362.4 445.16,-356.4"/>
<polyline fill="none" stroke="#d19922" points="451.16,-356.4 445.16,-356.4"/>
<text xml:space="preserve" text-anchor="start" x="353.3" y="-346.7" font-family="Inter,Arial" font-size="10.00" fill="#614000">to kurbo&#45;v0.11.3.svg</text>
<text xml:space="preserve" text-anchor="start" x="384.05" y="-336.7" font-family="Inter,Arial" font-weight="bold" font-size="10.00" fill="#614000">kurbo</text>
<text xml:space="preserve" text-anchor="start" x="384.05" y="-326.7" font-family="Inter,Arial" font-size="10.00" fill="#614000">0.11.3</text>
<text xml:space="preserve" text-anchor="start" x="353.3" y="-316.7" font-family="Inter,Arial" font-size="10.00" fill="#614000">/vendor/kurbo&#45;0.11.3</text>
</g>
<!-- n0&#45;&gt;out1 -->
<g id="edge2" class="edge">
<title>n0&#45;&gt;out1</title>
<path fill="none" stroke="#d19922" stroke-width="0.9" stroke-dasharray="5,2" d="M286.85,-307.42C303.03,-311.52 320.73,-316 337.1,-320.14"/>
<polygon fill="#d19922" stroke="#d19922" stroke-width="0.9" points="336.42,-321.96 342.22,-321.44 337.36,-318.22 336.42,-321.96"/>
</g>
<!-- out2 -->
<g id="node4" class="node">
<title>out2</title>
<polygon fill="#fff8e8" stroke="#d19922" points="462.41,-283.4 326.69,-283.4 326.69,-219 468.41,-219 468.41,-277.4 462.41,-283.4"/>
<polyline fill="none" stroke="#d19922" points="462.41,-283.4 462.41,-277.4"/>
<polyline fill="none" stroke="#d19922" points="468.41,-277.4 462.41,-277.4"/>
<text xml:space="preserve" text-anchor="start" x="336.05" y="-267.7" font-family="Inter,Arial" font-size="10.00" fill="#614000">to tiny&#45;skia&#45;path&#45;v0.11.4.svg</text>
<text xml:space="preserve" text-anchor="start" x="373.92" y="-257.7" font-family="Inter,Arial" font-weight="bold" font-size="10.00" fill="#614000">strict&#45;num</text>
<text xml:space="preserve" text-anchor="start" x="386.67" y="-247.7" font-family="Inter,Arial" font-size="10.00" fill="#614000">0.1.1</text>
<text xml:space="preserve" text-anchor="start" x="366.42" y="-237.7" font-family="Inter,Arial" font-weight="bold" font-size="10.00" fill="#614000">tiny&#45;skia&#45;path</text>
<text xml:space="preserve" text-anchor="start" x="384.05" y="-227.7" font-family="Inter,Arial" font-size="10.00" fill="#614000">0.11.4</text>
</g>
<!-- n0&#45;&gt;out2 -->
<g id="edge3" class="edge">
<title>n0&#45;&gt;out2</title>
<path fill="none" stroke="#d19922" stroke-width="0.9" stroke-dasharray="5,2" d="M286.85,-278.98C297.46,-276.3 308.72,-273.44 319.83,-270.63"/>
<polygon fill="#d19922" stroke="#d19922" stroke-width="0.9" points="320.16,-272.53 325.02,-269.31 319.22,-268.8 320.16,-272.53"/>
</g>
<!-- out3 -->
<g id="node5" class="node">
<title>out3</title>
<polygon fill="#fff8e8" stroke="#d19922" points="455.66,-194.4 333.44,-194.4 333.44,0 461.66,0 461.66,-188.4 455.66,-194.4"/>
<polyline fill="none" stroke="#d19922" points="455.66,-194.4 455.66,-188.4"/>
<polyline fill="none" stroke="#d19922" points="461.66,-188.4 455.66,-188.4"/>
<text xml:space="preserve" text-anchor="start" x="346.17" y="-178.7" font-family="Inter,Arial" font-size="10.00" fill="#614000">to trueos&#45;qjs&#45;v0.1.0.svg</text>
<text xml:space="preserve" text-anchor="start" x="379.92" y="-168.7" font-family="Inter,Arial" font-weight="bold" font-size="10.00" fill="#614000">data&#45;url</text>
<text xml:space="preserve" text-anchor="start" x="386.67" y="-158.7" font-family="Inter,Arial" font-size="10.00" fill="#614000">0.3.2</text>
<text xml:space="preserve" text-anchor="start" x="373.92" y="-148.7" font-family="Inter,Arial" font-weight="bold" font-size="10.00" fill="#614000">imagesize</text>
<text xml:space="preserve" text-anchor="start" x="384.05" y="-138.7" font-family="Inter,Arial" font-size="10.00" fill="#614000">0.13.0</text>
<text xml:space="preserve" text-anchor="start" x="342.8" y="-128.7" font-family="Inter,Arial" font-size="10.00" fill="#614000">/vendor/imagesize&#45;0.13.0</text>
<text xml:space="preserve" text-anchor="start" x="375.42" y="-118.7" font-family="Inter,Arial" font-weight="bold" font-size="10.00" fill="#614000">roxmltree</text>
<text xml:space="preserve" text-anchor="start" x="384.05" y="-108.7" font-family="Inter,Arial" font-size="10.00" fill="#614000">0.20.0</text>
<text xml:space="preserve" text-anchor="start" x="373.92" y="-98.7" font-family="Inter,Arial" font-weight="bold" font-size="10.00" fill="#614000">simplecss</text>
<text xml:space="preserve" text-anchor="start" x="386.67" y="-88.7" font-family="Inter,Arial" font-size="10.00" fill="#614000">0.2.2</text>
<text xml:space="preserve" text-anchor="start" x="374.67" y="-78.7" font-family="Inter,Arial" font-weight="bold" font-size="10.00" fill="#614000">siphasher</text>
<text xml:space="preserve" text-anchor="start" x="386.67" y="-68.7" font-family="Inter,Arial" font-size="10.00" fill="#614000">1.0.3</text>
<text xml:space="preserve" text-anchor="start" x="376.92" y="-58.7" font-family="Inter,Arial" font-weight="bold" font-size="10.00" fill="#614000">svgtypes</text>
<text xml:space="preserve" text-anchor="start" x="384.05" y="-48.7" font-family="Inter,Arial" font-size="10.00" fill="#614000">0.15.3</text>
<text xml:space="preserve" text-anchor="start" x="345.05" y="-38.7" font-family="Inter,Arial" font-size="10.00" fill="#614000">/vendor/svgtypes&#45;0.15.3</text>
<text xml:space="preserve" text-anchor="start" x="375.8" y="-28.7" font-family="Inter,Arial" font-weight="bold" font-size="10.00" fill="#614000">xmlwriter</text>
<text xml:space="preserve" text-anchor="start" x="386.67" y="-18.7" font-family="Inter,Arial" font-size="10.00" fill="#614000">0.1.0</text>
<text xml:space="preserve" text-anchor="start" x="347.67" y="-8.7" font-family="Inter,Arial" font-size="10.00" fill="#614000">/vendor/xmlwriter&#45;0.1.0</text>
</g>
<!-- n0&#45;&gt;out3 -->
<g id="edge4" class="edge">
<title>n0&#45;&gt;out3</title>
<path fill="none" stroke="#d19922" stroke-width="0.9" stroke-dasharray="5,2" d="M252.39,-267.58C271.81,-244.63 301.35,-209.71 328.64,-177.45"/>
<polygon fill="#d19922" stroke="#d19922" stroke-width="0.9" points="330.04,-178.78 332.12,-173.34 327.1,-176.3 330.04,-178.78"/>
</g>
<!-- in4 -->
<g id="node6" class="node">
<title>in4</title>
<polygon fill="#eef6ff" stroke="#4b8fc5" points="126.72,-320.4 0,-320.4 0,-266 132.72,-266 132.72,-314.4 126.72,-320.4"/>
<polyline fill="none" stroke="#4b8fc5" points="126.72,-320.4 126.72,-314.4"/>
<polyline fill="none" stroke="#4b8fc5" points="132.72,-314.4 126.72,-314.4"/>
<text xml:space="preserve" text-anchor="start" x="9.36" y="-304.7" font-family="Inter,Arial" font-size="10.00" fill="#123d5c">from trueos&#45;qjs&#45;v0.1.0.svg</text>
<text xml:space="preserve" text-anchor="start" x="55.11" y="-294.7" font-family="Inter,Arial" font-weight="bold" font-size="10.00" fill="#123d5c">usvg</text>
<text xml:space="preserve" text-anchor="start" x="52.86" y="-284.7" font-family="Inter,Arial" font-size="10.00" fill="#123d5c">0.45.1</text>
<text xml:space="preserve" text-anchor="start" x="23.24" y="-274.7" font-family="Inter,Arial" font-size="10.00" fill="#123d5c">/vendor/usvg&#45;0.45.1</text>
</g>
<!-- in4&#45;&gt;n0 -->
<g id="edge5" class="edge">
<title>in4&#45;&gt;n0</title>
<path fill="none" stroke="#4b8fc5" stroke-width="0.9" stroke-dasharray="5,2" d="M132.99,-293.2C143.82,-293.2 155.04,-293.2 165.8,-293.2"/>
<polygon fill="#4b8fc5" stroke="#4b8fc5" stroke-width="0.9" points="165.58,-295.13 171.08,-293.2 165.58,-291.28 165.58,-295.13"/>
</g>
</g>
</svg>
