<?xml version="1.0" encoding="UTF-8" standalone="no"?>
<!DOCTYPE svg PUBLIC "-//W3C//DTD SVG 1.1//EN"
 "http://www.w3.org/Graphics/SVG/1.1/DTD/svg11.dtd">
<!-- Generated by graphviz version 14.1.2 (0)
 -->
<!-- Title: v&#45;v0.1.0 Pages: 1 -->
<svg width="453pt" height="299pt"
 viewBox="0.00 0.00 453.00 299.00" xmlns="http://www.w3.org/2000/svg" xmlns:xlink="http://www.w3.org/1999/xlink">
<g id="graph0" class="graph" transform="scale(1 1) rotate(0) translate(4 295.4)">
<title>v&#45;v0.1.0</title>
<polygon fill="white" stroke="none" points="-4,4 -4,-295.4 449.16,-295.4 449.16,4 -4,4"/>
<!-- n0 -->
<g id="node1" class="node">
<title>n0</title>
<path fill="#dff3ff" stroke="#1b78a6" d="M256.69,-170.4C256.69,-170.4 187.72,-170.4 187.72,-170.4 181.72,-170.4 175.72,-164.4 175.72,-158.4 175.72,-158.4 175.72,-132 175.72,-132 175.72,-126 181.72,-120 187.72,-120 187.72,-120 256.69,-120 256.69,-120 262.69,-120 268.69,-126 268.69,-132 268.69,-132 268.69,-158.4 268.69,-158.4 268.69,-164.4 262.69,-170.4 256.69,-170.4"/>
<text xml:space="preserve" text-anchor="start" x="218.45" y="-151.85" font-family="Inter,Arial" font-weight="bold" font-size="13.00" fill="#172033">v</text>
<text xml:space="preserve" text-anchor="start" x="209.08" y="-139.8" font-family="Inter,Arial" font-size="12.00" fill="#172033">0.1.0</text>
<text xml:space="preserve" text-anchor="start" x="185.08" y="-128.75" font-family="Inter,Arial" font-size="11.00" fill="#172033">/crates/trueos&#45;v</text>
</g>
<!-- out0 -->
<g id="node2" class="node">
<title>out0</title>
<polygon fill="#fff8e8" stroke="#d19922" points="427.53,-236.4 320.31,-236.4 320.31,-192 433.53,-192 433.53,-230.4 427.53,-236.4"/>
<polyline fill="none" stroke="#d19922" points="427.53,-236.4 427.53,-230.4"/>
<polyline fill="none" stroke="#d19922" points="433.53,-230.4 427.53,-230.4"/>
<text xml:space="preserve" text-anchor="start" x="329.67" y="-220.7" font-family="Inter,Arial" font-size="10.00" fill="#614000">to serde&#45;v1.0.228.svg</text>
<text xml:space="preserve" text-anchor="start" x="364.17" y="-210.7" font-family="Inter,Arial" font-weight="bold" font-size="10.00" fill="#614000">serde</text>
<text xml:space="preserve" text-anchor="start" x="360.8" y="-200.7" font-family="Inter,Arial" font-size="10.00" fill="#614000">1.0.228</text>
</g>
<!-- n0&#45;&gt;out0 -->
<g id="edge1" class="edge">
<title>n0&#45;&gt;out0</title>
<path fill="none" stroke="#d19922" stroke-width="0.9" stroke-dasharray="5,2" d="M269.03,-165.9C284.99,-173.11 303.08,-181.29 319.79,-188.84"/>
<polygon fill="#d19922" stroke="#d19922" stroke-width="0.9" points="318.83,-190.51 324.63,-191.03 320.41,-187.01 318.83,-190.51"/>
</g>
<!-- out1 -->
<g id="node3" class="node">
<title>out1</title>
<polygon fill="#fff8e8" stroke="#d19922" points="439.16,-167.4 308.69,-167.4 308.69,-123 445.16,-123 445.16,-161.4 439.16,-167.4"/>
<polyline fill="none" stroke="#d19922" points="439.16,-167.4 439.16,-161.4"/>
<polyline fill="none" stroke="#d19922" points="445.16,-161.4 439.16,-161.4"/>
<text xml:space="preserve" text-anchor="start" x="318.05" y="-151.7" font-family="Inter,Arial" font-size="10.00" fill="#614000">to serde_json&#45;v1.0.149.svg</text>
<text xml:space="preserve" text-anchor="start" x="351.42" y="-141.7" font-family="Inter,Arial" font-weight="bold" font-size="10.00" fill="#614000">serde_json</text>
<text xml:space="preserve" text-anchor="start" x="360.8" y="-131.7" font-family="Inter,Arial" font-size="10.00" fill="#614000">1.0.149</text>
</g>
<!-- n0&#45;&gt;out1 -->
<g id="edge2" class="edge">
<title>n0&#45;&gt;out1</title>
<path fill="none" stroke="#d19922" stroke-width="0.9" stroke-dasharray="5,2" d="M269.03,-145.2C279.38,-145.2 290.64,-145.2 301.82,-145.2"/>
<polygon fill="#d19922" stroke="#d19922" stroke-width="0.9" points="301.53,-147.13 307.03,-145.2 301.53,-143.28 301.53,-147.13"/>
</g>
<!-- out2 -->
<g id="node4" class="node">
<title>out2</title>
<polygon fill="#fff8e8" stroke="#d19922" points="421.91,-98.4 325.94,-98.4 325.94,-54 427.91,-54 427.91,-92.4 421.91,-98.4"/>
<polyline fill="none" stroke="#d19922" points="421.91,-98.4 421.91,-92.4"/>
<polyline fill="none" stroke="#d19922" points="427.91,-92.4 421.91,-92.4"/>
<text xml:space="preserve" text-anchor="start" x="335.3" y="-82.7" font-family="Inter,Arial" font-size="10.00" fill="#614000">to spin&#45;v0.10.0.svg</text>
<text xml:space="preserve" text-anchor="start" x="366.8" y="-72.7" font-family="Inter,Arial" font-weight="bold" font-size="10.00" fill="#614000">spin</text>
<text xml:space="preserve" text-anchor="start" x="363.42" y="-62.7" font-family="Inter,Arial" font-size="10.00" fill="#614000">0.10.0</text>
</g>
<!-- n0&#45;&gt;out2 -->
<g id="edge3" class="edge">
<title>n0&#45;&gt;out2</title>
<path fill="none" stroke="#d19922" stroke-width="0.9" stroke-dasharray="5,2" d="M269.03,-124.5C284.99,-117.29 303.08,-109.11 319.79,-101.56"/>
<polygon fill="#d19922" stroke="#d19922" stroke-width="0.9" points="320.41,-103.39 324.63,-99.37 318.83,-99.89 320.41,-103.39"/>
</g>
<!-- in3 -->
<g id="node5" class="node">
<title>in3</title>
<polygon fill="#eef6ff" stroke="#4b8fc5" points="129.72,-291.4 0,-291.4 0,-237 135.72,-237 135.72,-285.4 129.72,-291.4"/>
<polyline fill="none" stroke="#4b8fc5" points="129.72,-291.4 129.72,-285.4"/>
<polyline fill="none" stroke="#4b8fc5" points="135.72,-285.4 129.72,-285.4"/>
<text xml:space="preserve" text-anchor="start" x="9.36" y="-275.7" font-family="Inter,Arial" font-size="10.00" fill="#123d5c">from trueos&#45;esp&#45;v0.1.0.svg</text>
<text xml:space="preserve" text-anchor="start" x="65.24" y="-265.7" font-family="Inter,Arial" font-weight="bold" font-size="10.00" fill="#123d5c">v</text>
<text xml:space="preserve" text-anchor="start" x="56.99" y="-255.7" font-family="Inter,Arial" font-size="10.00" fill="#123d5c">0.1.0</text>
<text xml:space="preserve" text-anchor="start" x="33.74" y="-245.7" font-family="Inter,Arial" font-size="10.00" fill="#123d5c">/crates/trueos&#45;v</text>
</g>
<!-- in3&#45;&gt;n0 -->
<g id="edge4" class="edge">
<title>in3&#45;&gt;n0</title>
<path fill="none" stroke="#4b8fc5" stroke-width="0.9" stroke-dasharray="5,2" d="M118.95,-236.65C124.73,-232.99 130.44,-229.13 135.72,-225.2 155.81,-210.24 176.37,-191.14 192.29,-175.35"/>
<polygon fill="#4b8fc5" stroke="#4b8fc5" stroke-width="0.9" points="193.59,-176.78 196.12,-171.53 190.86,-174.06 193.59,-176.78"/>
</g>
<!-- in4 -->
<g id="node6" class="node">
<title>in4</title>
<polygon fill="#eef6ff" stroke="#4b8fc5" points="128.22,-212.4 1.5,-212.4 1.5,-158 134.22,-158 134.22,-206.4 128.22,-212.4"/>
<polyline fill="none" stroke="#4b8fc5" points="128.22,-212.4 128.22,-206.4"/>
<polyline fill="none" stroke="#4b8fc5" points="134.22,-206.4 128.22,-206.4"/>
<text xml:space="preserve" text-anchor="start" x="10.86" y="-196.7" font-family="Inter,Arial" font-size="10.00" fill="#123d5c">from trueos&#45;lsd&#45;v1.1.5.svg</text>
<text xml:space="preserve" text-anchor="start" x="65.24" y="-186.7" font-family="Inter,Arial" font-weight="bold" font-size="10.00" fill="#123d5c">v</text>
<text xml:space="preserve" text-anchor="start" x="56.99" y="-176.7" font-family="Inter,Arial" font-size="10.00" fill="#123d5c">0.1.0</text>
<text xml:space="preserve" text-anchor="start" x="33.74" y="-166.7" font-family="Inter,Arial" font-size="10.00" fill="#123d5c">/crates/trueos&#45;v</text>
</g>
<!-- in4&#45;&gt;n0 -->
<g id="edge5" class="edge">
<title>in4&#45;&gt;n0</title>
<path fill="none" stroke="#4b8fc5" stroke-width="0.9" stroke-dasharray="5,2" d="M134.35,-168C145.95,-164.96 157.88,-161.83 169.05,-158.9"/>
<polygon fill="#4b8fc5" stroke="#4b8fc5" stroke-width="0.9" points="169.37,-160.8 174.2,-157.54 168.4,-157.08 169.37,-160.8"/>
</g>
<!-- in5 -->
<g id="node7" class="node">
<title>in5</title>
<polygon fill="#eef6ff" stroke="#4b8fc5" points="128.22,-133.4 1.5,-133.4 1.5,-79 134.22,-79 134.22,-127.4 128.22,-133.4"/>
<polyline fill="none" stroke="#4b8fc5" points="128.22,-133.4 128.22,-127.4"/>
<polyline fill="none" stroke="#4b8fc5" points="134.22,-127.4 128.22,-127.4"/>
<text xml:space="preserve" text-anchor="start" x="10.86" y="-117.7" font-family="Inter,Arial" font-size="10.00" fill="#123d5c">from trueos&#45;qjs&#45;v0.1.0.svg</text>
<text xml:space="preserve" text-anchor="start" x="65.24" y="-107.7" font-family="Inter,Arial" font-weight="bold" font-size="10.00" fill="#123d5c">v</text>
<text xml:space="preserve" text-anchor="start" x="56.99" y="-97.7" font-family="Inter,Arial" font-size="10.00" fill="#123d5c">0.1.0</text>
<text xml:space="preserve" text-anchor="start" x="33.74" y="-87.7" font-family="Inter,Arial" font-size="10.00" fill="#123d5c">/crates/trueos&#45;v</text>
</g>
<!-- in5&#45;&gt;n0 -->
<g id="edge6" class="edge">
<title>in5&#45;&gt;n0</title>
<path fill="none" stroke="#4b8fc5" stroke-width="0.9" stroke-dasharray="5,2" d="M134.35,-122.97C145.95,-125.93 157.88,-128.99 169.05,-131.85"/>
<polygon fill="#4b8fc5" stroke="#4b8fc5" stroke-width="0.9" points="168.4,-133.67 174.2,-133.17 169.35,-129.94 168.4,-133.67"/>
</g>
<!-- in6 -->
<g id="node8" class="node">
<title>in6</title>
<polygon fill="#eef6ff" stroke="#4b8fc5" points="128.6,-54.4 1.13,-54.4 1.13,0 134.6,0 134.6,-48.4 128.6,-54.4"/>
<polyline fill="none" stroke="#4b8fc5" points="128.6,-54.4 128.6,-48.4"/>
<polyline fill="none" stroke="#4b8fc5" points="134.6,-48.4 128.6,-48.4"/>
<text xml:space="preserve" text-anchor="start" x="10.49" y="-38.7" font-family="Inter,Arial" font-size="10.00" fill="#123d5c">from trueos&#45;vm&#45;v0.1.0.svg</text>
<text xml:space="preserve" text-anchor="start" x="65.24" y="-28.7" font-family="Inter,Arial" font-weight="bold" font-size="10.00" fill="#123d5c">v</text>
<text xml:space="preserve" text-anchor="start" x="56.99" y="-18.7" font-family="Inter,Arial" font-size="10.00" fill="#123d5c">0.1.0</text>
<text xml:space="preserve" text-anchor="start" x="33.74" y="-8.7" font-family="Inter,Arial" font-size="10.00" fill="#123d5c">/crates/trueos&#45;v</text>
</g>
<!-- in6&#45;&gt;n0 -->
<g id="edge7" class="edge">
<title>in6&#45;&gt;n0</title>
<path fill="none" stroke="#4b8fc5" stroke-width="0.9" stroke-dasharray="5,2" d="M118.93,-54.78C124.71,-58.44 130.43,-62.28 135.72,-66.2 155.59,-80.91 176,-99.6 191.88,-115.11"/>
<polygon fill="#4b8fc5" stroke="#4b8fc5" stroke-width="0.9" points="190.42,-116.37 195.69,-118.86 193.12,-113.63 190.42,-116.37"/>
</g>
</g>
</svg>
