<?xml version="1.0" encoding="UTF-8" standalone="no"?>
<!DOCTYPE svg PUBLIC "-//W3C//DTD SVG 1.1//EN"
 "http://www.w3.org/Graphics/SVG/1.1/DTD/svg11.dtd">
<!-- Generated by graphviz version 14.1.2 (0)
 -->
<!-- Title: v&#45;v0.1.0 Pages: 1 -->
<svg width="426pt" height="271pt"
 viewBox="0.00 0.00 426.00 271.00" xmlns="http://www.w3.org/2000/svg" xmlns:xlink="http://www.w3.org/1999/xlink">
<g id="graph0" class="graph" transform="scale(1 1) rotate(0) translate(4 267.2)">
<title>v&#45;v0.1.0</title>
<polygon fill="white" stroke="none" points="-4,4 -4,-267.2 421.56,-267.2 421.56,4 -4,4"/>
<!-- n0 -->
<g id="node1" class="node">
<title>n0</title>
<path fill="#dff3ff" stroke="#1b78a6" d="M236.29,-150.2C236.29,-150.2 180.52,-150.2 180.52,-150.2 174.52,-150.2 168.52,-144.2 168.52,-138.2 168.52,-138.2 168.52,-125 168.52,-125 168.52,-119 174.52,-113 180.52,-113 180.52,-113 236.29,-113 236.29,-113 242.29,-113 248.29,-119 248.29,-125 248.29,-125 248.29,-138.2 248.29,-138.2 248.29,-144.2 242.29,-150.2 236.29,-150.2"/>
<text xml:space="preserve" text-anchor="start" x="205.78" y="-138.1" font-family="Inter,Arial" font-weight="bold" font-size="10.00" fill="#172033">v</text>
<text xml:space="preserve" text-anchor="start" x="197.53" y="-128.1" font-family="Inter,Arial" font-size="10.00" fill="#172033">0.1.0</text>
<text xml:space="preserve" text-anchor="start" x="174.28" y="-118.1" font-family="Inter,Arial" font-size="10.00" fill="#172033">/crates/trueos&#45;v</text>
</g>
<!-- out0 -->
<g id="node2" class="node">
<title>out0</title>
<polygon fill="#fff8e8" stroke="#d19922" points="399.94,-212.2 299.92,-212.2 299.92,-175 405.94,-175 405.94,-206.2 399.94,-212.2"/>
<polyline fill="none" stroke="#d19922" points="399.94,-212.2 399.94,-206.2"/>
<polyline fill="none" stroke="#d19922" points="405.94,-206.2 399.94,-206.2"/>
<text xml:space="preserve" text-anchor="start" x="305.68" y="-200.1" font-family="Inter,Arial" font-size="10.00" fill="#614000">to serde&#45;v1.0.228.svg</text>
<text xml:space="preserve" text-anchor="start" x="340.18" y="-190.1" font-family="Inter,Arial" font-weight="bold" font-size="10.00" fill="#614000">serde</text>
<text xml:space="preserve" text-anchor="start" x="336.8" y="-180.1" font-family="Inter,Arial" font-size="10.00" fill="#614000">1.0.228</text>
</g>
<!-- n0&#45;&gt;out0 -->
<g id="edge1" class="edge">
<title>n0&#45;&gt;out0</title>
<path fill="none" stroke="#d19922" stroke-width="0.9" stroke-dasharray="5,2" d="M248.73,-148.71C265.31,-155.92 284.8,-164.4 302.35,-172.03"/>
<polygon fill="#d19922" stroke="#d19922" stroke-width="0.9" points="301.16,-173.61 306.97,-174.04 302.7,-170.08 301.16,-173.61"/>
</g>
<!-- out1 -->
<g id="node3" class="node">
<title>out1</title>
<polygon fill="#fff8e8" stroke="#d19922" points="411.56,-150.2 288.29,-150.2 288.29,-113 417.56,-113 417.56,-144.2 411.56,-150.2"/>
<polyline fill="none" stroke="#d19922" points="411.56,-150.2 411.56,-144.2"/>
<polyline fill="none" stroke="#d19922" points="417.56,-144.2 411.56,-144.2"/>
<text xml:space="preserve" text-anchor="start" x="294.05" y="-138.1" font-family="Inter,Arial" font-size="10.00" fill="#614000">to serde_json&#45;v1.0.149.svg</text>
<text xml:space="preserve" text-anchor="start" x="327.43" y="-128.1" font-family="Inter,Arial" font-weight="bold" font-size="10.00" fill="#614000">serde_json</text>
<text xml:space="preserve" text-anchor="start" x="336.8" y="-118.1" font-family="Inter,Arial" font-size="10.00" fill="#614000">1.0.149</text>
</g>
<!-- n0&#45;&gt;out1 -->
<g id="edge2" class="edge">
<title>n0&#45;&gt;out1</title>
<path fill="none" stroke="#d19922" stroke-width="0.9" stroke-dasharray="5,2" d="M248.73,-131.6C258.85,-131.6 270.06,-131.6 281.25,-131.6"/>
<polygon fill="#d19922" stroke="#d19922" stroke-width="0.9" points="280.97,-133.53 286.47,-131.6 280.97,-129.68 280.97,-133.53"/>
</g>
<!-- out2 -->
<g id="node4" class="node">
<title>out2</title>
<polygon fill="#fff8e8" stroke="#d19922" points="394.31,-88.2 305.54,-88.2 305.54,-51 400.31,-51 400.31,-82.2 394.31,-88.2"/>
<polyline fill="none" stroke="#d19922" points="394.31,-88.2 394.31,-82.2"/>
<polyline fill="none" stroke="#d19922" points="400.31,-82.2 394.31,-82.2"/>
<text xml:space="preserve" text-anchor="start" x="311.3" y="-76.1" font-family="Inter,Arial" font-size="10.00" fill="#614000">to spin&#45;v0.10.0.svg</text>
<text xml:space="preserve" text-anchor="start" x="342.8" y="-66.1" font-family="Inter,Arial" font-weight="bold" font-size="10.00" fill="#614000">spin</text>
<text xml:space="preserve" text-anchor="start" x="339.43" y="-56.1" font-family="Inter,Arial" font-size="10.00" fill="#614000">0.10.0</text>
</g>
<!-- n0&#45;&gt;out2 -->
<g id="edge3" class="edge">
<title>n0&#45;&gt;out2</title>
<path fill="none" stroke="#d19922" stroke-width="0.9" stroke-dasharray="5,2" d="M248.73,-114.49C265.31,-107.28 284.8,-98.8 302.35,-91.17"/>
<polygon fill="#d19922" stroke="#d19922" stroke-width="0.9" points="302.7,-93.12 306.97,-89.16 301.16,-89.59 302.7,-93.12"/>
</g>
<!-- in3 -->
<g id="node5" class="node">
<title>in3</title>
<polygon fill="#eef6ff" stroke="#4b8fc5" points="122.52,-263.2 0,-263.2 0,-216 128.52,-216 128.52,-257.2 122.52,-263.2"/>
<polyline fill="none" stroke="#4b8fc5" points="122.52,-263.2 122.52,-257.2"/>
<polyline fill="none" stroke="#4b8fc5" points="128.52,-257.2 122.52,-257.2"/>
<text xml:space="preserve" text-anchor="start" x="5.76" y="-251.1" font-family="Inter,Arial" font-size="10.00" fill="#123d5c">from trueos&#45;esp&#45;v0.1.0.svg</text>
<text xml:space="preserve" text-anchor="start" x="61.63" y="-241.1" font-family="Inter,Arial" font-weight="bold" font-size="10.00" fill="#123d5c">v</text>
<text xml:space="preserve" text-anchor="start" x="53.38" y="-231.1" font-family="Inter,Arial" font-size="10.00" fill="#123d5c">0.1.0</text>
<text xml:space="preserve" text-anchor="start" x="30.13" y="-221.1" font-family="Inter,Arial" font-size="10.00" fill="#123d5c">/crates/trueos&#45;v</text>
</g>
<!-- in3&#45;&gt;n0 -->
<g id="edge4" class="edge">
<title>in3&#45;&gt;n0</title>
<path fill="none" stroke="#4b8fc5" stroke-width="0.9" stroke-dasharray="5,2" d="M110.28,-215.63C116.55,-211.82 122.8,-207.76 128.52,-203.6 148.64,-188.98 169.33,-169.91 184.47,-155.07"/>
<polygon fill="#4b8fc5" stroke="#4b8fc5" stroke-width="0.9" points="185.45,-156.81 188.01,-151.57 182.75,-154.07 185.45,-156.81"/>
</g>
<!-- in4 -->
<g id="node6" class="node">
<title>in4</title>
<polygon fill="#eef6ff" stroke="#4b8fc5" points="121.02,-191.2 1.5,-191.2 1.5,-144 127.02,-144 127.02,-185.2 121.02,-191.2"/>
<polyline fill="none" stroke="#4b8fc5" points="121.02,-191.2 121.02,-185.2"/>
<polyline fill="none" stroke="#4b8fc5" points="127.02,-185.2 121.02,-185.2"/>
<text xml:space="preserve" text-anchor="start" x="7.26" y="-179.1" font-family="Inter,Arial" font-size="10.00" fill="#123d5c">from trueos&#45;lsd&#45;v1.1.5.svg</text>
<text xml:space="preserve" text-anchor="start" x="61.63" y="-169.1" font-family="Inter,Arial" font-weight="bold" font-size="10.00" fill="#123d5c">v</text>
<text xml:space="preserve" text-anchor="start" x="53.38" y="-159.1" font-family="Inter,Arial" font-size="10.00" fill="#123d5c">0.1.0</text>
<text xml:space="preserve" text-anchor="start" x="30.13" y="-149.1" font-family="Inter,Arial" font-size="10.00" fill="#123d5c">/crates/trueos&#45;v</text>
</g>
<!-- in4&#45;&gt;n0 -->
<g id="edge5" class="edge">
<title>in4&#45;&gt;n0</title>
<path fill="none" stroke="#4b8fc5" stroke-width="0.9" stroke-dasharray="5,2" d="M127.19,-151.91C138.83,-148.97 150.79,-145.94 161.81,-143.15"/>
<polygon fill="#4b8fc5" stroke="#4b8fc5" stroke-width="0.9" points="162,-145.08 166.86,-141.87 161.06,-141.35 162,-145.08"/>
</g>
<!-- in5 -->
<g id="node7" class="node">
<title>in5</title>
<polygon fill="#eef6ff" stroke="#4b8fc5" points="121.02,-119.2 1.5,-119.2 1.5,-72 127.02,-72 127.02,-113.2 121.02,-119.2"/>
<polyline fill="none" stroke="#4b8fc5" points="121.02,-119.2 121.02,-113.2"/>
<polyline fill="none" stroke="#4b8fc5" points="127.02,-113.2 121.02,-113.2"/>
<text xml:space="preserve" text-anchor="start" x="7.26" y="-107.1" font-family="Inter,Arial" font-size="10.00" fill="#123d5c">from trueos&#45;qjs&#45;v0.1.0.svg</text>
<text xml:space="preserve" text-anchor="start" x="61.63" y="-97.1" font-family="Inter,Arial" font-weight="bold" font-size="10.00" fill="#123d5c">v</text>
<text xml:space="preserve" text-anchor="start" x="53.38" y="-87.1" font-family="Inter,Arial" font-size="10.00" fill="#123d5c">0.1.0</text>
<text xml:space="preserve" text-anchor="start" x="30.13" y="-77.1" font-family="Inter,Arial" font-size="10.00" fill="#123d5c">/crates/trueos&#45;v</text>
</g>
<!-- in5&#45;&gt;n0 -->
<g id="edge6" class="edge">
<title>in5&#45;&gt;n0</title>
<path fill="none" stroke="#4b8fc5" stroke-width="0.9" stroke-dasharray="5,2" d="M127.19,-111.29C138.83,-114.23 150.79,-117.26 161.81,-120.05"/>
<polygon fill="#4b8fc5" stroke="#4b8fc5" stroke-width="0.9" points="161.06,-121.85 166.86,-121.33 162,-118.12 161.06,-121.85"/>
</g>
<!-- in6 -->
<g id="node8" class="node">
<title>in6</title>
<polygon fill="#eef6ff" stroke="#4b8fc5" points="121.39,-47.2 1.12,-47.2 1.12,0 127.39,0 127.39,-41.2 121.39,-47.2"/>
<polyline fill="none" stroke="#4b8fc5" points="121.39,-47.2 121.39,-41.2"/>
<polyline fill="none" stroke="#4b8fc5" points="127.39,-41.2 121.39,-41.2"/>
<text xml:space="preserve" text-anchor="start" x="6.88" y="-35.1" font-family="Inter,Arial" font-size="10.00" fill="#123d5c">from trueos&#45;vm&#45;v0.1.0.svg</text>
<text xml:space="preserve" text-anchor="start" x="61.63" y="-25.1" font-family="Inter,Arial" font-weight="bold" font-size="10.00" fill="#123d5c">v</text>
<text xml:space="preserve" text-anchor="start" x="53.38" y="-15.1" font-family="Inter,Arial" font-size="10.00" fill="#123d5c">0.1.0</text>
<text xml:space="preserve" text-anchor="start" x="30.13" y="-5.1" font-family="Inter,Arial" font-size="10.00" fill="#123d5c">/crates/trueos&#45;v</text>
</g>
<!-- in6&#45;&gt;n0 -->
<g id="edge7" class="edge">
<title>in6&#45;&gt;n0</title>
<path fill="none" stroke="#4b8fc5" stroke-width="0.9" stroke-dasharray="5,2" d="M110.28,-47.57C116.55,-51.38 122.8,-55.44 128.52,-59.6 148.64,-74.22 169.33,-93.29 184.47,-108.13"/>
<polygon fill="#4b8fc5" stroke="#4b8fc5" stroke-width="0.9" points="182.75,-109.13 188.01,-111.63 185.45,-106.39 182.75,-109.13"/>
</g>
</g>
</svg>
