<?xml version="1.0" encoding="UTF-8" standalone="no"?>
<!DOCTYPE svg PUBLIC "-//W3C//DTD SVG 1.1//EN"
 "http://www.w3.org/Graphics/SVG/1.1/DTD/svg11.dtd">
<!-- Generated by graphviz version 14.1.2 (0)
 -->
<!-- Title: webpki&#45;roots&#45;v1.0.8 Pages: 1 -->
<svg width="263pt" height="52pt"
 viewBox="0.00 0.00 263.00 52.00" xmlns="http://www.w3.org/2000/svg" xmlns:xlink="http://www.w3.org/1999/xlink">
<g id="graph0" class="graph" transform="scale(1 1) rotate(0) translate(4 48.4)">
<title>webpki&#45;roots&#45;v1.0.8</title>
<polygon fill="white" stroke="none" points="-4,4 -4,-48.4 259.19,-48.4 259.19,4 -4,4"/>
<!-- n0 -->
<g id="node1" class="node">
<title>n0</title>
<path fill="#dff3ff" stroke="#1b78a6" d="M89.97,-41.9C89.97,-41.9 12,-41.9 12,-41.9 6,-41.9 0,-35.9 0,-29.9 0,-29.9 0,-14.5 0,-14.5 0,-8.5 6,-2.5 12,-2.5 12,-2.5 89.97,-2.5 89.97,-2.5 95.97,-2.5 101.97,-8.5 101.97,-14.5 101.97,-14.5 101.97,-29.9 101.97,-29.9 101.97,-35.9 95.97,-41.9 89.97,-41.9"/>
<text xml:space="preserve" text-anchor="start" x="9.36" y="-23.35" font-family="Inter,Arial" font-weight="bold" font-size="13.00" fill="#172033">webpki&#45;roots</text>
<text xml:space="preserve" text-anchor="start" x="37.86" y="-11.3" font-family="Inter,Arial" font-size="12.00" fill="#172033">1.0.8</text>
</g>
<!-- out0 -->
<g id="node2" class="node">
<title>out0</title>
<polygon fill="#fff8e8" stroke="#d19922" points="249.19,-44.4 141.97,-44.4 141.97,0 255.19,0 255.19,-38.4 249.19,-44.4"/>
<polyline fill="none" stroke="#d19922" points="249.19,-44.4 249.19,-38.4"/>
<polyline fill="none" stroke="#d19922" points="255.19,-38.4 249.19,-38.4"/>
<text xml:space="preserve" text-anchor="start" x="151.33" y="-28.7" font-family="Inter,Arial" font-size="10.00" fill="#614000">to rustls&#45;v0.23.41.svg</text>
<text xml:space="preserve" text-anchor="start" x="162.95" y="-18.7" font-family="Inter,Arial" font-weight="bold" font-size="10.00" fill="#614000">rustls&#45;pki&#45;types</text>
<text xml:space="preserve" text-anchor="start" x="185.08" y="-8.7" font-family="Inter,Arial" font-size="10.00" fill="#614000">1.14.1</text>
</g>
<!-- n0&#45;&gt;out0 -->
<g id="edge1" class="edge">
<title>n0&#45;&gt;out0</title>
<path fill="none" stroke="#d19922" stroke-width="7.2" stroke-dasharray="5,2" d="M102.09,-22.2C110.96,-22.2 120.32,-22.2 129.58,-22.2"/>
<polygon fill="#d19922" stroke="#d19922" stroke-width="7.2" points="129.39,-25.67 134.89,-22.2 129.39,-18.74 129.39,-25.67"/>
</g>
</g>
</svg>
