<?xml version="1.0" encoding="UTF-8" standalone="no"?>
<!DOCTYPE svg PUBLIC "-//W3C//DTD SVG 1.1//EN"
 "http://www.w3.org/Graphics/SVG/1.1/DTD/svg11.dtd">
<!-- Generated by graphviz version 14.1.2 (0)
 -->
<!-- Title: webpki&#45;roots&#45;v1.0.7 Pages: 1 -->
<svg width="226pt" height="45pt"
 viewBox="0.00 0.00 226.00 45.00" xmlns="http://www.w3.org/2000/svg" xmlns:xlink="http://www.w3.org/1999/xlink">
<g id="graph0" class="graph" transform="scale(1 1) rotate(0) translate(4 41.2)">
<title>webpki&#45;roots&#45;v1.0.7</title>
<polygon fill="white" stroke="none" points="-4,4 -4,-41.2 221.54,-41.2 221.54,4 -4,4"/>
<!-- n0 -->
<g id="node1" class="node">
<title>n0</title>
<path fill="#dff3ff" stroke="#1b78a6" d="M59.52,-36.6C59.52,-36.6 12,-36.6 12,-36.6 6,-36.6 0,-30.6 0,-24.6 0,-24.6 0,-12.6 0,-12.6 0,-6.6 6,-0.6 12,-0.6 12,-0.6 59.52,-0.6 59.52,-0.6 65.52,-0.6 71.52,-6.6 71.52,-12.6 71.52,-12.6 71.52,-24.6 71.52,-24.6 71.52,-30.6 65.52,-36.6 59.52,-36.6"/>
<text xml:space="preserve" text-anchor="start" x="5.76" y="-20.1" font-family="Inter,Arial" font-weight="bold" font-size="10.00" fill="#172033">webpki&#45;roots</text>
<text xml:space="preserve" text-anchor="start" x="24.88" y="-10.1" font-family="Inter,Arial" font-size="10.00" fill="#172033">1.0.7</text>
</g>
<!-- out0 -->
<g id="node2" class="node">
<title>out0</title>
<polygon fill="#fff8e8" stroke="#d19922" points="211.54,-37.2 111.52,-37.2 111.52,0 217.54,0 217.54,-31.2 211.54,-37.2"/>
<polyline fill="none" stroke="#d19922" points="211.54,-37.2 211.54,-31.2"/>
<polyline fill="none" stroke="#d19922" points="217.54,-31.2 211.54,-31.2"/>
<text xml:space="preserve" text-anchor="start" x="117.28" y="-25.1" font-family="Inter,Arial" font-size="10.00" fill="#614000">to rustls&#45;v0.23.40.svg</text>
<text xml:space="preserve" text-anchor="start" x="128.9" y="-15.1" font-family="Inter,Arial" font-weight="bold" font-size="10.00" fill="#614000">rustls&#45;pki&#45;types</text>
<text xml:space="preserve" text-anchor="start" x="151.03" y="-5.1" font-family="Inter,Arial" font-size="10.00" fill="#614000">1.14.1</text>
</g>
<!-- n0&#45;&gt;out0 -->
<g id="edge1" class="edge">
<title>n0&#45;&gt;out0</title>
<path fill="none" stroke="#d19922" stroke-width="0.9" stroke-dasharray="5,2" d="M71.74,-18.6C81.91,-18.6 93.31,-18.6 104.52,-18.6"/>
<polygon fill="#d19922" stroke="#d19922" stroke-width="0.9" points="104.23,-20.53 109.73,-18.6 104.23,-16.68 104.23,-20.53"/>
</g>
</g>
</svg>
