<?xml version="1.0" encoding="UTF-8" standalone="no"?>
<!DOCTYPE svg PUBLIC "-//W3C//DTD SVG 1.1//EN"
 "http://www.w3.org/Graphics/SVG/1.1/DTD/svg11.dtd">
<!-- Generated by graphviz version 14.1.2 (0)
 -->
<!-- Title: x86_64&#45;v0.15.4 Pages: 1 -->
<svg width="239pt" height="137pt"
 viewBox="0.00 0.00 239.00 137.00" xmlns="http://www.w3.org/2000/svg" xmlns:xlink="http://www.w3.org/1999/xlink">
<g id="graph0" class="graph" transform="scale(1 1) rotate(0) translate(4 133.2)">
<title>x86_64&#45;v0.15.4</title>
<polygon fill="white" stroke="none" points="-4,4 -4,-133.2 234.54,-133.2 234.54,4 -4,4"/>
<!-- n0 -->
<g id="node1" class="node">
<title>n0</title>
<path fill="#dff3ff" stroke="#1b78a6" d="M69.52,-100.08C69.52,-100.08 12,-100.08 12,-100.08 6,-100.08 0,-94.08 0,-88.08 0,-88.08 0,-35.12 0,-35.12 0,-29.12 6,-23.12 12,-23.12 12,-23.12 69.52,-23.12 69.52,-23.12 75.52,-23.12 81.52,-29.12 81.52,-35.12 81.52,-35.12 81.52,-88.08 81.52,-88.08 81.52,-94.08 75.52,-100.08 69.52,-100.08"/>
<text xml:space="preserve" text-anchor="start" x="25.01" y="-87.97" font-family="Inter,Arial" font-weight="bold" font-size="10.00" fill="#172033">x86_64</text>
<text xml:space="preserve" text-anchor="start" x="27.26" y="-74.97" font-family="Inter,Arial" font-size="10.00" fill="#172033">0.15.4</text>
<text xml:space="preserve" text-anchor="start" x="10.76" y="-60.87" font-family="Inter,Arial" font-weight="bold" font-size="8.00" fill="#172033">const_fn</text>
<text xml:space="preserve" text-anchor="start" x="46.01" y="-60.87" font-family="Inter,Arial" font-size="8.00" fill="#172033"> 0.4.12</text>
<text xml:space="preserve" text-anchor="start" x="20.13" y="-52.87" font-family="Inter,Arial" font-size="8.00" fill="#172033">proc&#45;macro</text>
<path fill="none" stroke="#9aa8b8" d="M14.43,-46.48C14.43,-46.48 67.09,-46.48 67.09,-46.48 71.43,-46.48 75.76,-50.81 75.76,-55.14 75.76,-55.14 75.76,-63.81 75.76,-63.81 75.76,-68.14 71.43,-72.47 67.09,-72.47 67.09,-72.47 14.43,-72.47 14.43,-72.47 10.09,-72.47 5.76,-68.14 5.76,-63.81 5.76,-63.81 5.76,-55.14 5.76,-55.14 5.76,-50.81 10.09,-46.48 14.43,-46.48"/>
<text xml:space="preserve" text-anchor="start" x="16.38" y="-34.88" font-family="Inter,Arial" font-weight="bold" font-size="8.00" fill="#172033">volatile</text>
<text xml:space="preserve" text-anchor="start" x="44.88" y="-34.88" font-family="Inter,Arial" font-size="8.00" fill="#172033"> 0.4.6</text>
<path fill="none" stroke="#9aa8b8" d="M12.34,-26.73C12.34,-26.73 69.18,-26.73 69.18,-26.73 72.47,-26.73 75.76,-30.02 75.76,-33.31 75.76,-33.31 75.76,-39.89 75.76,-39.89 75.76,-43.18 72.47,-46.48 69.18,-46.48 69.18,-46.48 12.34,-46.48 12.34,-46.48 9.05,-46.48 5.76,-43.18 5.76,-39.89 5.76,-39.89 5.76,-33.31 5.76,-33.31 5.76,-30.02 9.05,-26.73 12.34,-26.73"/>
</g>
<!-- out0 -->
<g id="node2" class="node">
<title>out0</title>
<polygon fill="#fff8e8" stroke="#d19922" points="214.79,-129.2 131.27,-129.2 131.27,-72 220.79,-72 220.79,-123.2 214.79,-129.2"/>
<polyline fill="none" stroke="#d19922" points="214.79,-129.2 214.79,-123.2"/>
<polyline fill="none" stroke="#d19922" points="220.79,-123.2 214.79,-123.2"/>
<text xml:space="preserve" text-anchor="start" x="137.03" y="-117.1" font-family="Inter,Arial" font-size="10.00" fill="#614000">to acpi&#45;v6.1.1.svg</text>
<text xml:space="preserve" text-anchor="start" x="157.28" y="-107.1" font-family="Inter,Arial" font-weight="bold" font-size="10.00" fill="#614000">bit_field</text>
<text xml:space="preserve" text-anchor="start" x="162.53" y="-97.1" font-family="Inter,Arial" font-size="10.00" fill="#614000">0.10.3</text>
<text xml:space="preserve" text-anchor="start" x="158.78" y="-87.1" font-family="Inter,Arial" font-weight="bold" font-size="10.00" fill="#614000">bitflags</text>
<text xml:space="preserve" text-anchor="start" x="162.53" y="-77.1" font-family="Inter,Arial" font-size="10.00" fill="#614000">2.11.1</text>
</g>
<!-- n0&#45;&gt;out0 -->
<g id="edge1" class="edge">
<title>n0&#45;&gt;out0</title>
<path fill="none" stroke="#d19922" stroke-width="0.9" stroke-dasharray="5,2" d="M81.75,-73.3C95.18,-77.23 110.34,-81.67 124.47,-85.8"/>
<polygon fill="#d19922" stroke="#d19922" stroke-width="0.9" points="123.75,-87.6 129.57,-87.3 124.84,-83.91 123.75,-87.6"/>
</g>
<!-- out1 -->
<g id="node3" class="node">
<title>out1</title>
<polygon fill="#fff8e8" stroke="#d19922" points="224.54,-47.2 121.52,-47.2 121.52,0 230.54,0 230.54,-41.2 224.54,-47.2"/>
<polyline fill="none" stroke="#d19922" points="224.54,-47.2 224.54,-41.2"/>
<polyline fill="none" stroke="#d19922" points="230.54,-41.2 224.54,-41.2"/>
<text xml:space="preserve" text-anchor="start" x="127.28" y="-35.1" font-family="Inter,Arial" font-size="10.00" fill="#614000">to crab&#45;usb&#45;v0.9.1.svg</text>
<text xml:space="preserve" text-anchor="start" x="149.78" y="-25.1" font-family="Inter,Arial" font-weight="bold" font-size="10.00" fill="#614000">rustversion</text>
<text xml:space="preserve" text-anchor="start" x="162.53" y="-15.1" font-family="Inter,Arial" font-size="10.00" fill="#614000">1.0.22</text>
<text xml:space="preserve" text-anchor="start" x="151.66" y="-5.1" font-family="Inter,Arial" font-size="10.00" fill="#614000">proc&#45;macro</text>
</g>
<!-- n0&#45;&gt;out1 -->
<g id="edge2" class="edge">
<title>n0&#45;&gt;out1</title>
<path fill="none" stroke="#d19922" stroke-width="0.9" stroke-dasharray="5,2" d="M81.75,-50.2C92.13,-47.24 103.54,-43.98 114.72,-40.8"/>
<polygon fill="#d19922" stroke="#d19922" stroke-width="0.9" points="115.19,-42.66 119.96,-39.3 114.14,-38.96 115.19,-42.66"/>
</g>
</g>
</svg>
