<?xml version="1.0" encoding="UTF-8" standalone="no"?>
<!DOCTYPE svg PUBLIC "-//W3C//DTD SVG 1.1//EN"
 "http://www.w3.org/Graphics/SVG/1.1/DTD/svg11.dtd">
<!-- Generated by graphviz version 14.1.2 (0)
 -->
<!-- Title: x86_64&#45;v0.15.4 Pages: 1 -->
<svg width="289pt" height="151pt"
 viewBox="0.00 0.00 289.00 151.00" xmlns="http://www.w3.org/2000/svg" xmlns:xlink="http://www.w3.org/1999/xlink">
<g id="graph0" class="graph" transform="scale(1 1) rotate(0) translate(4 147.4)">
<title>x86_64&#45;v0.15.4</title>
<polygon fill="white" stroke="none" points="-4,4 -4,-147.4 284.69,-147.4 284.69,4 -4,4"/>
<!-- n0 -->
<g id="node1" class="node">
<title>n0</title>
<path fill="#dff3ff" stroke="#1b78a6" d="M112.47,-134.78C112.47,-134.78 12,-134.78 12,-134.78 6,-134.78 0,-128.78 0,-122.78 0,-122.78 0,-15.62 0,-15.62 0,-9.62 6,-3.62 12,-3.62 12,-3.62 112.47,-3.62 112.47,-3.62 118.47,-3.62 124.47,-9.62 124.47,-15.63 124.47,-15.63 124.47,-122.78 124.47,-122.78 124.47,-128.78 118.47,-134.78 112.47,-134.78"/>
<text xml:space="preserve" text-anchor="start" x="39.74" y="-116.23" font-family="Inter,Arial" font-weight="bold" font-size="13.00" fill="#172033">x86_64</text>
<text xml:space="preserve" text-anchor="start" x="45.74" y="-101.17" font-family="Inter,Arial" font-size="12.00" fill="#172033">0.15.4</text>
<text xml:space="preserve" text-anchor="start" x="24.36" y="-73.88" font-family="Inter,Arial" font-weight="bold" font-size="11.00" fill="#172033">const_fn</text>
<text xml:space="preserve" text-anchor="start" x="70.11" y="-73.88" font-family="Inter,Arial" font-size="10.00" fill="#172033"> </text>
<text xml:space="preserve" text-anchor="start" x="73.11" y="-73.88" font-family="Inter,Arial" font-size="10.00" fill="#172033">0.4.12</text>
<text xml:space="preserve" text-anchor="start" x="38.99" y="-64.78" font-family="Inter,Arial" font-size="9.00" fill="#172033">proc&#45;macro</text>
<path fill="none" stroke="#9aa8b8" d="M27.36,-54.33C27.36,-54.33 97.11,-54.33 97.11,-54.33 103.11,-54.33 109.11,-60.33 109.11,-66.33 109.11,-66.33 109.11,-80.33 109.11,-80.33 109.11,-86.33 103.11,-92.33 97.11,-92.33 97.11,-92.33 27.36,-92.33 27.36,-92.33 21.36,-92.33 15.36,-86.33 15.36,-80.33 15.36,-80.33 15.36,-66.33 15.36,-66.33 15.36,-60.33 21.36,-54.33 27.36,-54.33"/>
<text xml:space="preserve" text-anchor="start" x="31.11" y="-29.88" font-family="Inter,Arial" font-weight="bold" font-size="11.00" fill="#172033">volatile</text>
<text xml:space="preserve" text-anchor="start" x="68.61" y="-29.88" font-family="Inter,Arial" font-size="10.00" fill="#172033"> </text>
<text xml:space="preserve" text-anchor="start" x="71.61" y="-29.88" font-family="Inter,Arial" font-size="10.00" fill="#172033">0.4.6</text>
<path fill="none" stroke="#9aa8b8" d="M25.86,-16.83C25.86,-16.83 98.61,-16.83 98.61,-16.83 103.86,-16.83 109.11,-22.08 109.11,-27.33 109.11,-27.33 109.11,-37.83 109.11,-37.83 109.11,-43.08 103.86,-48.33 98.61,-48.33 98.61,-48.33 25.86,-48.33 25.86,-48.33 20.61,-48.33 15.36,-43.08 15.36,-37.83 15.36,-37.83 15.36,-27.32 15.36,-27.32 15.36,-22.08 20.61,-16.83 25.86,-16.83"/>
</g>
<!-- out0 -->
<g id="node2" class="node">
<title>out0</title>
<polygon fill="#fff8e8" stroke="#d19922" points="264.94,-143.4 174.22,-143.4 174.22,-79 270.94,-79 270.94,-137.4 264.94,-143.4"/>
<polyline fill="none" stroke="#d19922" points="264.94,-143.4 264.94,-137.4"/>
<polyline fill="none" stroke="#d19922" points="270.94,-137.4 264.94,-137.4"/>
<text xml:space="preserve" text-anchor="start" x="183.58" y="-127.7" font-family="Inter,Arial" font-size="10.00" fill="#614000">to acpi&#45;v6.1.1.svg</text>
<text xml:space="preserve" text-anchor="start" x="203.83" y="-117.7" font-family="Inter,Arial" font-weight="bold" font-size="10.00" fill="#614000">bit_field</text>
<text xml:space="preserve" text-anchor="start" x="209.08" y="-107.7" font-family="Inter,Arial" font-size="10.00" fill="#614000">0.10.3</text>
<text xml:space="preserve" text-anchor="start" x="205.33" y="-97.7" font-family="Inter,Arial" font-weight="bold" font-size="10.00" fill="#614000">bitflags</text>
<text xml:space="preserve" text-anchor="start" x="209.08" y="-87.7" font-family="Inter,Arial" font-size="10.00" fill="#614000">2.13.0</text>
</g>
<!-- n0&#45;&gt;out0 -->
<g id="edge1" class="edge">
<title>n0&#45;&gt;out0</title>
<path fill="none" stroke="#d19922" stroke-width="7.2" stroke-dasharray="5,2" d="M124.91,-85.56C137.28,-88.84 150.25,-92.28 162.53,-95.54"/>
<polygon fill="#d19922" stroke="#d19922" stroke-width="7.2" points="161.32,-98.8 167.52,-96.86 163.1,-92.1 161.32,-98.8"/>
</g>
<!-- out1 -->
<g id="node3" class="node">
<title>out1</title>
<polygon fill="#fff8e8" stroke="#d19922" points="274.69,-54.4 164.47,-54.4 164.47,0 280.69,0 280.69,-48.4 274.69,-54.4"/>
<polyline fill="none" stroke="#d19922" points="274.69,-54.4 274.69,-48.4"/>
<polyline fill="none" stroke="#d19922" points="280.69,-48.4 274.69,-48.4"/>
<text xml:space="preserve" text-anchor="start" x="173.83" y="-38.7" font-family="Inter,Arial" font-size="10.00" fill="#614000">to crab&#45;usb&#45;v0.9.1.svg</text>
<text xml:space="preserve" text-anchor="start" x="196.33" y="-28.7" font-family="Inter,Arial" font-weight="bold" font-size="10.00" fill="#614000">rustversion</text>
<text xml:space="preserve" text-anchor="start" x="209.08" y="-18.7" font-family="Inter,Arial" font-size="10.00" fill="#614000">1.0.22</text>
<text xml:space="preserve" text-anchor="start" x="198.2" y="-8.7" font-family="Inter,Arial" font-size="10.00" fill="#614000">proc&#45;macro</text>
</g>
<!-- n0&#45;&gt;out1 -->
<g id="edge2" class="edge">
<title>n0&#45;&gt;out1</title>
<path fill="none" stroke="#d19922" stroke-width="7.2" stroke-dasharray="5,2" d="M124.91,-52.84C134.01,-50.43 143.43,-47.93 152.66,-45.48"/>
<polygon fill="#d19922" stroke="#d19922" stroke-width="7.2" points="153.26,-48.91 157.69,-44.15 151.48,-42.21 153.26,-48.91"/>
</g>
</g>
</svg>
