<?xml version="1.0" encoding="UTF-8" standalone="no"?>
<!DOCTYPE svg PUBLIC "-//W3C//DTD SVG 1.1//EN"
 "http://www.w3.org/Graphics/SVG/1.1/DTD/svg11.dtd">
<!-- Generated by graphviz version 14.1.2 (0)
 -->
<!-- Title: zeroize&#45;v1.9.0 Pages: 1 -->
<svg width="513pt" height="190pt"
 viewBox="0.00 0.00 513.00 190.00" xmlns="http://www.w3.org/2000/svg" xmlns:xlink="http://www.w3.org/1999/xlink">
<g id="graph0" class="graph" transform="scale(1 1) rotate(0) translate(4 186.4)">
<title>zeroize&#45;v1.9.0</title>
<polygon fill="white" stroke="none" points="-4,4 -4,-186.4 509.16,-186.4 509.16,4 -4,4"/>
<!-- n0 -->
<g id="node1" class="node">
<title>n0</title>
<path fill="#dff3ff" stroke="#1b78a6" d="M279.19,-110.9C279.19,-110.9 238.72,-110.9 238.72,-110.9 232.72,-110.9 226.72,-104.9 226.72,-98.9 226.72,-98.9 226.72,-83.5 226.72,-83.5 226.72,-77.5 232.72,-71.5 238.72,-71.5 238.72,-71.5 279.19,-71.5 279.19,-71.5 285.19,-71.5 291.19,-77.5 291.19,-83.5 291.19,-83.5 291.19,-98.9 291.19,-98.9 291.19,-104.9 285.19,-110.9 279.19,-110.9"/>
<text xml:space="preserve" text-anchor="start" x="236.08" y="-92.35" font-family="Inter,Arial" font-weight="bold" font-size="13.00" fill="#172033">zeroize</text>
<text xml:space="preserve" text-anchor="start" x="245.83" y="-80.3" font-family="Inter,Arial" font-size="12.00" fill="#172033">1.9.0</text>
</g>
<!-- out0 -->
<g id="node2" class="node">
<title>out0</title>
<polygon fill="#fff8e8" stroke="#d19922" points="499.16,-118.4 331.19,-118.4 331.19,-64 505.16,-64 505.16,-112.4 499.16,-118.4"/>
<polyline fill="none" stroke="#d19922" points="499.16,-118.4 499.16,-112.4"/>
<polyline fill="none" stroke="#d19922" points="505.16,-112.4 499.16,-112.4"/>
<text xml:space="preserve" text-anchor="start" x="340.55" y="-102.7" font-family="Inter,Arial" font-size="10.00" fill="#614000">to embedded&#45;websocket&#45;v0.9.4.svg</text>
<text xml:space="preserve" text-anchor="start" x="384.42" y="-92.7" font-family="Inter,Arial" font-weight="bold" font-size="10.00" fill="#614000">zeroize_derive</text>
<text xml:space="preserve" text-anchor="start" x="407.3" y="-82.7" font-family="Inter,Arial" font-size="10.00" fill="#614000">1.5.0</text>
<text xml:space="preserve" text-anchor="start" x="393.8" y="-72.7" font-family="Inter,Arial" font-size="10.00" fill="#614000">proc&#45;macro</text>
</g>
<!-- n0&#45;&gt;out0 -->
<g id="edge1" class="edge">
<title>n0&#45;&gt;out0</title>
<path fill="none" stroke="#d19922" stroke-width="7.2" stroke-dasharray="5,2" d="M291.39,-91.2C299.61,-91.2 308.92,-91.2 318.67,-91.2"/>
<polygon fill="#d19922" stroke="#d19922" stroke-width="7.2" points="318.48,-94.67 323.98,-91.2 318.48,-87.74 318.48,-94.67"/>
</g>
<!-- in1 -->
<g id="node3" class="node">
<title>in1</title>
<polygon fill="#eef6ff" stroke="#4b8fc5" points="179.97,-182.4 0.75,-182.4 0.75,-138 185.97,-138 185.97,-176.4 179.97,-182.4"/>
<polyline fill="none" stroke="#4b8fc5" points="179.97,-182.4 179.97,-176.4"/>
<polyline fill="none" stroke="#4b8fc5" points="185.97,-176.4 179.97,-176.4"/>
<text xml:space="preserve" text-anchor="start" x="10.11" y="-166.7" font-family="Inter,Arial" font-size="10.00" fill="#123d5c">from embedded&#45;websocket&#45;v0.9.4.svg</text>
<text xml:space="preserve" text-anchor="start" x="76.49" y="-156.7" font-family="Inter,Arial" font-weight="bold" font-size="10.00" fill="#123d5c">zeroize</text>
<text xml:space="preserve" text-anchor="start" x="82.49" y="-146.7" font-family="Inter,Arial" font-size="10.00" fill="#123d5c">1.9.0</text>
</g>
<!-- in1&#45;&gt;n0 -->
<g id="edge2" class="edge">
<title>in1&#45;&gt;n0</title>
<path fill="none" stroke="#4b8fc5" stroke-width="7.2" stroke-dasharray="5,2" d="M158.3,-137.65C167.89,-133.98 177.61,-130.1 186.72,-126.2 196.19,-122.14 206.2,-117.47 215.63,-112.89"/>
<polygon fill="#4b8fc5" stroke="#4b8fc5" stroke-width="7.2" points="216.91,-116.12 220.31,-110.58 213.85,-109.91 216.91,-116.12"/>
</g>
<!-- in2 -->
<g id="node4" class="node">
<title>in2</title>
<polygon fill="#eef6ff" stroke="#4b8fc5" points="180.72,-113.4 0,-113.4 0,-69 186.72,-69 186.72,-107.4 180.72,-113.4"/>
<polyline fill="none" stroke="#4b8fc5" points="180.72,-113.4 180.72,-107.4"/>
<polyline fill="none" stroke="#4b8fc5" points="186.72,-107.4 180.72,-107.4"/>
<text xml:space="preserve" text-anchor="start" x="9.36" y="-97.7" font-family="Inter,Arial" font-size="10.00" fill="#123d5c">from rustls&#45;rustcrypto&#45;v0.0.2&#45;alpha.svg</text>
<text xml:space="preserve" text-anchor="start" x="76.49" y="-87.7" font-family="Inter,Arial" font-weight="bold" font-size="10.00" fill="#123d5c">zeroize</text>
<text xml:space="preserve" text-anchor="start" x="82.49" y="-77.7" font-family="Inter,Arial" font-size="10.00" fill="#123d5c">1.9.0</text>
</g>
<!-- in2&#45;&gt;n0 -->
<g id="edge3" class="edge">
<title>in2&#45;&gt;n0</title>
<path fill="none" stroke="#4b8fc5" stroke-width="7.2" stroke-dasharray="5,2" d="M187.15,-91.2C196.65,-91.2 205.94,-91.2 214.51,-91.2"/>
<polygon fill="#4b8fc5" stroke="#4b8fc5" stroke-width="7.2" points="214.23,-94.67 219.73,-91.2 214.23,-87.74 214.23,-94.67"/>
</g>
<!-- in3 -->
<g id="node5" class="node">
<title>in3</title>
<polygon fill="#eef6ff" stroke="#4b8fc5" points="149.6,-44.4 31.13,-44.4 31.13,0 155.6,0 155.6,-38.4 149.6,-44.4"/>
<polyline fill="none" stroke="#4b8fc5" points="149.6,-44.4 149.6,-38.4"/>
<polyline fill="none" stroke="#4b8fc5" points="155.6,-38.4 149.6,-38.4"/>
<text xml:space="preserve" text-anchor="start" x="40.49" y="-28.7" font-family="Inter,Arial" font-size="10.00" fill="#123d5c">from rustls&#45;v0.23.41.svg</text>
<text xml:space="preserve" text-anchor="start" x="76.49" y="-18.7" font-family="Inter,Arial" font-weight="bold" font-size="10.00" fill="#123d5c">zeroize</text>
<text xml:space="preserve" text-anchor="start" x="82.49" y="-8.7" font-family="Inter,Arial" font-size="10.00" fill="#123d5c">1.9.0</text>
</g>
<!-- in3&#45;&gt;n0 -->
<g id="edge4" class="edge">
<title>in3&#45;&gt;n0</title>
<path fill="none" stroke="#4b8fc5" stroke-width="7.2" stroke-dasharray="5,2" d="M155.82,-43.81C166.21,-47.75 176.82,-51.96 186.72,-56.2 196.19,-60.26 206.2,-64.93 215.63,-69.51"/>
<polygon fill="#4b8fc5" stroke="#4b8fc5" stroke-width="7.2" points="213.85,-72.49 220.31,-71.82 216.91,-66.28 213.85,-72.49"/>
</g>
</g>
</svg>
