<?xml version="1.0" encoding="UTF-8" standalone="no"?>
<!DOCTYPE svg PUBLIC "-//W3C//DTD SVG 1.1//EN"
 "http://www.w3.org/Graphics/SVG/1.1/DTD/svg11.dtd">
<!-- Generated by graphviz version 14.1.2 (0)
 -->
<!-- Title: zeroize&#45;v1.9.0 Pages: 1 -->
<svg width="434pt" height="259pt"
 viewBox="0.00 0.00 434.00 259.00" xmlns="http://www.w3.org/2000/svg" xmlns:xlink="http://www.w3.org/1999/xlink">
<g id="graph0" class="graph" transform="scale(1 1) rotate(0) translate(4 255.4)">
<title>zeroize&#45;v1.9.0</title>
<polygon fill="white" stroke="none" points="-4,4 -4,-255.4 429.66,-255.4 429.66,4 -4,4"/>
<!-- n0 -->
<g id="node1" class="node">
<title>n0</title>
<path fill="#dff3ff" stroke="#1b78a6" d="M279.19,-144.9C279.19,-144.9 238.72,-144.9 238.72,-144.9 232.72,-144.9 226.72,-138.9 226.72,-132.9 226.72,-132.9 226.72,-117.5 226.72,-117.5 226.72,-111.5 232.72,-105.5 238.72,-105.5 238.72,-105.5 279.19,-105.5 279.19,-105.5 285.19,-105.5 291.19,-111.5 291.19,-117.5 291.19,-117.5 291.19,-132.9 291.19,-132.9 291.19,-138.9 285.19,-144.9 279.19,-144.9"/>
<text xml:space="preserve" text-anchor="start" x="236.08" y="-126.35" font-family="Inter,Arial" font-weight="bold" font-size="13.00" fill="#172033">zeroize</text>
<text xml:space="preserve" text-anchor="start" x="245.83" y="-114.3" font-family="Inter,Arial" font-size="12.00" fill="#172033">1.9.0</text>
</g>
<!-- out0 -->
<g id="node2" class="node">
<title>out0</title>
<polygon fill="#fff8e8" stroke="#d19922" points="419.66,-152.4 331.19,-152.4 331.19,-98 425.66,-98 425.66,-146.4 419.66,-152.4"/>
<polyline fill="none" stroke="#d19922" points="419.66,-152.4 419.66,-146.4"/>
<polyline fill="none" stroke="#d19922" points="425.66,-146.4 419.66,-146.4"/>
<text xml:space="preserve" text-anchor="start" x="340.55" y="-136.7" font-family="Inter,Arial" font-size="10.00" fill="#614000">to aes&#45;v0.8.4.svg</text>
<text xml:space="preserve" text-anchor="start" x="344.67" y="-126.7" font-family="Inter,Arial" font-weight="bold" font-size="10.00" fill="#614000">zeroize_derive</text>
<text xml:space="preserve" text-anchor="start" x="367.55" y="-116.7" font-family="Inter,Arial" font-size="10.00" fill="#614000">1.5.0</text>
<text xml:space="preserve" text-anchor="start" x="354.05" y="-106.7" font-family="Inter,Arial" font-size="10.00" fill="#614000">proc&#45;macro</text>
</g>
<!-- n0&#45;&gt;out0 -->
<g id="edge1" class="edge">
<title>n0&#45;&gt;out0</title>
<path fill="none" stroke="#d19922" stroke-width="7.2" stroke-dasharray="5,2" d="M291.43,-125.2C299.85,-125.2 309.22,-125.2 318.59,-125.2"/>
<polygon fill="#d19922" stroke="#d19922" stroke-width="7.2" points="318.58,-128.67 324.08,-125.2 318.58,-121.74 318.58,-128.67"/>
</g>
<!-- in1 -->
<g id="node3" class="node">
<title>in1</title>
<polygon fill="#eef6ff" stroke="#4b8fc5" points="140.22,-251.4 40.5,-251.4 40.5,-207 146.22,-207 146.22,-245.4 140.22,-251.4"/>
<polyline fill="none" stroke="#4b8fc5" points="140.22,-251.4 140.22,-245.4"/>
<polyline fill="none" stroke="#4b8fc5" points="146.22,-245.4 140.22,-245.4"/>
<text xml:space="preserve" text-anchor="start" x="49.86" y="-235.7" font-family="Inter,Arial" font-size="10.00" fill="#123d5c">from aes&#45;v0.8.4.svg</text>
<text xml:space="preserve" text-anchor="start" x="76.49" y="-225.7" font-family="Inter,Arial" font-weight="bold" font-size="10.00" fill="#123d5c">zeroize</text>
<text xml:space="preserve" text-anchor="start" x="82.49" y="-215.7" font-family="Inter,Arial" font-size="10.00" fill="#123d5c">1.9.0</text>
</g>
<!-- in1&#45;&gt;n0 -->
<g id="edge2" class="edge">
<title>in1&#45;&gt;n0</title>
<path fill="none" stroke="#4b8fc5" stroke-width="7.2" stroke-dasharray="5,2" d="M146.51,-214.36C160.15,-209.33 174.45,-202.97 186.72,-195.2 204.26,-184.09 220.98,-168.05 233.81,-154.13"/>
<polygon fill="#4b8fc5" stroke="#4b8fc5" stroke-width="7.2" points="236.06,-156.81 237.15,-150.4 230.9,-152.19 236.06,-156.81"/>
</g>
<!-- in2 -->
<g id="node4" class="node">
<title>in2</title>
<polygon fill="#eef6ff" stroke="#4b8fc5" points="141.72,-182.4 39,-182.4 39,-138 147.72,-138 147.72,-176.4 141.72,-182.4"/>
<polyline fill="none" stroke="#4b8fc5" points="141.72,-182.4 141.72,-176.4"/>
<polyline fill="none" stroke="#4b8fc5" points="147.72,-176.4 141.72,-176.4"/>
<text xml:space="preserve" text-anchor="start" x="48.36" y="-166.7" font-family="Inter,Arial" font-size="10.00" fill="#123d5c">from rsa&#45;v0.9.10.svg</text>
<text xml:space="preserve" text-anchor="start" x="76.49" y="-156.7" font-family="Inter,Arial" font-weight="bold" font-size="10.00" fill="#123d5c">zeroize</text>
<text xml:space="preserve" text-anchor="start" x="82.49" y="-146.7" font-family="Inter,Arial" font-size="10.00" fill="#123d5c">1.9.0</text>
</g>
<!-- in2&#45;&gt;n0 -->
<g id="edge3" class="edge">
<title>in2&#45;&gt;n0</title>
<path fill="none" stroke="#4b8fc5" stroke-width="7.2" stroke-dasharray="5,2" d="M147.93,-148.74C169.48,-144.13 194.02,-138.88 214.44,-134.51"/>
<polygon fill="#4b8fc5" stroke="#4b8fc5" stroke-width="7.2" points="214.99,-137.94 219.64,-133.4 213.54,-131.16 214.99,-137.94"/>
</g>
<!-- in3 -->
<g id="node5" class="node">
<title>in3</title>
<polygon fill="#eef6ff" stroke="#4b8fc5" points="180.72,-113.4 0,-113.4 0,-69 186.72,-69 186.72,-107.4 180.72,-113.4"/>
<polyline fill="none" stroke="#4b8fc5" points="180.72,-113.4 180.72,-107.4"/>
<polyline fill="none" stroke="#4b8fc5" points="186.72,-107.4 180.72,-107.4"/>
<text xml:space="preserve" text-anchor="start" x="9.36" y="-97.7" font-family="Inter,Arial" font-size="10.00" fill="#123d5c">from rustls&#45;rustcrypto&#45;v0.0.2&#45;alpha.svg</text>
<text xml:space="preserve" text-anchor="start" x="76.49" y="-87.7" font-family="Inter,Arial" font-weight="bold" font-size="10.00" fill="#123d5c">zeroize</text>
<text xml:space="preserve" text-anchor="start" x="82.49" y="-77.7" font-family="Inter,Arial" font-size="10.00" fill="#123d5c">1.9.0</text>
</g>
<!-- in3&#45;&gt;n0 -->
<g id="edge4" class="edge">
<title>in3&#45;&gt;n0</title>
<path fill="none" stroke="#4b8fc5" stroke-width="7.2" stroke-dasharray="5,2" d="M187.15,-110.48C196.65,-112.46 205.94,-114.39 214.51,-116.17"/>
<polygon fill="#4b8fc5" stroke="#4b8fc5" stroke-width="7.2" points="213.79,-119.56 219.88,-117.29 215.2,-112.77 213.79,-119.56"/>
</g>
<!-- in4 -->
<g id="node6" class="node">
<title>in4</title>
<polygon fill="#eef6ff" stroke="#4b8fc5" points="149.6,-44.4 31.13,-44.4 31.13,0 155.6,0 155.6,-38.4 149.6,-44.4"/>
<polyline fill="none" stroke="#4b8fc5" points="149.6,-44.4 149.6,-38.4"/>
<polyline fill="none" stroke="#4b8fc5" points="155.6,-38.4 149.6,-38.4"/>
<text xml:space="preserve" text-anchor="start" x="40.49" y="-28.7" font-family="Inter,Arial" font-size="10.00" fill="#123d5c">from rustls&#45;v0.23.41.svg</text>
<text xml:space="preserve" text-anchor="start" x="76.49" y="-18.7" font-family="Inter,Arial" font-weight="bold" font-size="10.00" fill="#123d5c">zeroize</text>
<text xml:space="preserve" text-anchor="start" x="82.49" y="-8.7" font-family="Inter,Arial" font-size="10.00" fill="#123d5c">1.9.0</text>
</g>
<!-- in4&#45;&gt;n0 -->
<g id="edge5" class="edge">
<title>in4&#45;&gt;n0</title>
<path fill="none" stroke="#4b8fc5" stroke-width="7.2" stroke-dasharray="5,2" d="M155.69,-40.67C166.41,-45.03 177.17,-50.2 186.72,-56.2 203.89,-66.99 220.35,-82.47 233.11,-96.03"/>
<polygon fill="#4b8fc5" stroke="#4b8fc5" stroke-width="7.2" points="230.5,-98.31 236.76,-100.03 235.62,-93.64 230.5,-98.31"/>
</g>
</g>
</svg>
