<?xml version="1.0" encoding="UTF-8" standalone="no"?>
<!DOCTYPE svg PUBLIC "-//W3C//DTD SVG 1.1//EN"
 "http://www.w3.org/Graphics/SVG/1.1/DTD/svg11.dtd">
<!-- Generated by graphviz version 14.1.2 (0)
 -->
<!-- Title: zeroize&#45;v1.8.2 Pages: 1 -->
<svg width="409pt" height="231pt"
 viewBox="0.00 0.00 409.00 231.00" xmlns="http://www.w3.org/2000/svg" xmlns:xlink="http://www.w3.org/1999/xlink">
<g id="graph0" class="graph" transform="scale(1 1) rotate(0) translate(4 227.2)">
<title>zeroize&#45;v1.8.2</title>
<polygon fill="white" stroke="none" points="-4,4 -4,-227.2 404.79,-227.2 404.79,4 -4,4"/>
<!-- n0 -->
<g id="node1" class="node">
<title>n0</title>
<path fill="#dff3ff" stroke="#1b78a6" d="M261.52,-129.6C261.52,-129.6 231.52,-129.6 231.52,-129.6 225.52,-129.6 219.52,-123.6 219.52,-117.6 219.52,-117.6 219.52,-105.6 219.52,-105.6 219.52,-99.6 225.52,-93.6 231.52,-93.6 231.52,-93.6 261.52,-93.6 261.52,-93.6 267.52,-93.6 273.52,-99.6 273.52,-105.6 273.52,-105.6 273.52,-117.6 273.52,-117.6 273.52,-123.6 267.52,-129.6 261.52,-129.6"/>
<text xml:space="preserve" text-anchor="start" x="229.64" y="-113.1" font-family="Inter,Arial" font-weight="bold" font-size="10.00" fill="#172033">zeroize</text>
<text xml:space="preserve" text-anchor="start" x="235.64" y="-103.1" font-family="Inter,Arial" font-size="10.00" fill="#172033">1.8.2</text>
</g>
<!-- out0 -->
<g id="node2" class="node">
<title>out0</title>
<polygon fill="#fff8e8" stroke="#d19922" points="394.79,-135.2 313.52,-135.2 313.52,-88 400.79,-88 400.79,-129.2 394.79,-135.2"/>
<polyline fill="none" stroke="#d19922" points="394.79,-135.2 394.79,-129.2"/>
<polyline fill="none" stroke="#d19922" points="400.79,-129.2 394.79,-129.2"/>
<text xml:space="preserve" text-anchor="start" x="319.28" y="-123.1" font-family="Inter,Arial" font-size="10.00" fill="#614000">to aes&#45;v0.8.4.svg</text>
<text xml:space="preserve" text-anchor="start" x="323.4" y="-113.1" font-family="Inter,Arial" font-weight="bold" font-size="10.00" fill="#614000">zeroize_derive</text>
<text xml:space="preserve" text-anchor="start" x="346.28" y="-103.1" font-family="Inter,Arial" font-size="10.00" fill="#614000">1.4.3</text>
<text xml:space="preserve" text-anchor="start" x="332.78" y="-93.1" font-family="Inter,Arial" font-size="10.00" fill="#614000">proc&#45;macro</text>
</g>
<!-- n0&#45;&gt;out0 -->
<g id="edge1" class="edge">
<title>n0&#45;&gt;out0</title>
<path fill="none" stroke="#d19922" stroke-width="0.9" stroke-dasharray="5,2" d="M273.82,-111.6C283.69,-111.6 295.25,-111.6 306.55,-111.6"/>
<polygon fill="#d19922" stroke="#d19922" stroke-width="0.9" points="306.29,-113.53 311.79,-111.6 306.29,-109.68 306.29,-113.53"/>
</g>
<!-- in1 -->
<g id="node3" class="node">
<title>in1</title>
<polygon fill="#eef6ff" stroke="#4b8fc5" points="133.02,-223.2 40.5,-223.2 40.5,-186 139.02,-186 139.02,-217.2 133.02,-223.2"/>
<polyline fill="none" stroke="#4b8fc5" points="133.02,-223.2 133.02,-217.2"/>
<polyline fill="none" stroke="#4b8fc5" points="139.02,-217.2 133.02,-217.2"/>
<text xml:space="preserve" text-anchor="start" x="46.26" y="-211.1" font-family="Inter,Arial" font-size="10.00" fill="#123d5c">from aes&#45;v0.8.4.svg</text>
<text xml:space="preserve" text-anchor="start" x="72.88" y="-201.1" font-family="Inter,Arial" font-weight="bold" font-size="10.00" fill="#123d5c">zeroize</text>
<text xml:space="preserve" text-anchor="start" x="78.88" y="-191.1" font-family="Inter,Arial" font-size="10.00" fill="#123d5c">1.8.2</text>
</g>
<!-- in1&#45;&gt;n0 -->
<g id="edge2" class="edge">
<title>in1&#45;&gt;n0</title>
<path fill="none" stroke="#4b8fc5" stroke-width="0.9" stroke-dasharray="5,2" d="M139.4,-191.69C152.91,-187.04 167.24,-181.05 179.52,-173.6 196.61,-163.24 213,-147.88 225.17,-135.04"/>
<polygon fill="#4b8fc5" stroke="#4b8fc5" stroke-width="0.9" points="226.53,-136.41 228.86,-131.07 223.71,-133.79 226.53,-136.41"/>
</g>
<!-- in2 -->
<g id="node4" class="node">
<title>in2</title>
<polygon fill="#eef6ff" stroke="#4b8fc5" points="134.52,-161.2 39,-161.2 39,-124 140.52,-124 140.52,-155.2 134.52,-161.2"/>
<polyline fill="none" stroke="#4b8fc5" points="134.52,-161.2 134.52,-155.2"/>
<polyline fill="none" stroke="#4b8fc5" points="140.52,-155.2 134.52,-155.2"/>
<text xml:space="preserve" text-anchor="start" x="44.76" y="-149.1" font-family="Inter,Arial" font-size="10.00" fill="#123d5c">from rsa&#45;v0.9.10.svg</text>
<text xml:space="preserve" text-anchor="start" x="72.88" y="-139.1" font-family="Inter,Arial" font-weight="bold" font-size="10.00" fill="#123d5c">zeroize</text>
<text xml:space="preserve" text-anchor="start" x="78.88" y="-129.1" font-family="Inter,Arial" font-size="10.00" fill="#123d5c">1.8.2</text>
</g>
<!-- in2&#45;&gt;n0 -->
<g id="edge3" class="edge">
<title>in2&#45;&gt;n0</title>
<path fill="none" stroke="#4b8fc5" stroke-width="0.9" stroke-dasharray="5,2" d="M141.01,-132.54C164.58,-127.81 192,-122.32 212.84,-118.15"/>
<polygon fill="#4b8fc5" stroke="#4b8fc5" stroke-width="0.9" points="213.01,-120.08 218.02,-117.11 212.25,-116.3 213.01,-120.08"/>
</g>
<!-- in3 -->
<g id="node5" class="node">
<title>in3</title>
<polygon fill="#eef6ff" stroke="#4b8fc5" points="173.52,-99.2 0,-99.2 0,-62 179.52,-62 179.52,-93.2 173.52,-99.2"/>
<polyline fill="none" stroke="#4b8fc5" points="173.52,-99.2 173.52,-93.2"/>
<polyline fill="none" stroke="#4b8fc5" points="179.52,-93.2 173.52,-93.2"/>
<text xml:space="preserve" text-anchor="start" x="5.76" y="-87.1" font-family="Inter,Arial" font-size="10.00" fill="#123d5c">from rustls&#45;rustcrypto&#45;v0.0.2&#45;alpha.svg</text>
<text xml:space="preserve" text-anchor="start" x="72.88" y="-77.1" font-family="Inter,Arial" font-weight="bold" font-size="10.00" fill="#123d5c">zeroize</text>
<text xml:space="preserve" text-anchor="start" x="78.88" y="-67.1" font-family="Inter,Arial" font-size="10.00" fill="#123d5c">1.8.2</text>
</g>
<!-- in3&#45;&gt;n0 -->
<g id="edge4" class="edge">
<title>in3&#45;&gt;n0</title>
<path fill="none" stroke="#4b8fc5" stroke-width="0.9" stroke-dasharray="5,2" d="M179.89,-98.45C191.57,-100.79 202.89,-103.06 212.74,-105.03"/>
<polygon fill="#4b8fc5" stroke="#4b8fc5" stroke-width="0.9" points="212.21,-106.89 217.98,-106.08 212.96,-103.12 212.21,-106.89"/>
</g>
<!-- in4 -->
<g id="node6" class="node">
<title>in4</title>
<polygon fill="#eef6ff" stroke="#4b8fc5" points="142.39,-37.2 31.12,-37.2 31.12,0 148.39,0 148.39,-31.2 142.39,-37.2"/>
<polyline fill="none" stroke="#4b8fc5" points="142.39,-37.2 142.39,-31.2"/>
<polyline fill="none" stroke="#4b8fc5" points="148.39,-31.2 142.39,-31.2"/>
<text xml:space="preserve" text-anchor="start" x="36.88" y="-25.1" font-family="Inter,Arial" font-size="10.00" fill="#123d5c">from rustls&#45;v0.23.40.svg</text>
<text xml:space="preserve" text-anchor="start" x="72.88" y="-15.1" font-family="Inter,Arial" font-weight="bold" font-size="10.00" fill="#123d5c">zeroize</text>
<text xml:space="preserve" text-anchor="start" x="78.88" y="-5.1" font-family="Inter,Arial" font-size="10.00" fill="#123d5c">1.8.2</text>
</g>
<!-- in4&#45;&gt;n0 -->
<g id="edge5" class="edge">
<title>in4&#45;&gt;n0</title>
<path fill="none" stroke="#4b8fc5" stroke-width="0.9" stroke-dasharray="5,2" d="M148.7,-34.89C159.32,-38.96 170.03,-43.85 179.52,-49.6 196.61,-59.96 213,-75.32 225.17,-88.16"/>
<polygon fill="#4b8fc5" stroke="#4b8fc5" stroke-width="0.9" points="223.71,-89.41 228.86,-92.13 226.53,-86.79 223.71,-89.41"/>
</g>
</g>
</svg>
