<?xml version="1.0" encoding="UTF-8" standalone="no"?>
<!DOCTYPE svg PUBLIC "-//W3C//DTD SVG 1.1//EN"
 "http://www.w3.org/Graphics/SVG/1.1/DTD/svg11.dtd">
<!-- Generated by graphviz version 14.1.2 (0)
 -->
<!-- Title: zune&#45;jpeg&#45;v0.5.15 Pages: 1 -->
<svg width="308pt" height="62pt"
 viewBox="0.00 0.00 308.00 62.00" xmlns="http://www.w3.org/2000/svg" xmlns:xlink="http://www.w3.org/1999/xlink">
<g id="graph0" class="graph" transform="scale(1 1) rotate(0) translate(4 58.4)">
<title>zune&#45;jpeg&#45;v0.5.15</title>
<polygon fill="white" stroke="none" points="-4,4 -4,-58.4 304.19,-58.4 304.19,4 -4,4"/>
<!-- n0 -->
<g id="node1" class="node">
<title>n0</title>
<path fill="#dff3ff" stroke="#1b78a6" d="M126.72,-52.4C126.72,-52.4 12,-52.4 12,-52.4 6,-52.4 0,-46.4 0,-40.4 0,-40.4 0,-14 0,-14 0,-8 6,-2 12,-2 12,-2 126.72,-2 126.72,-2 132.72,-2 138.72,-8 138.72,-14 138.72,-14 138.72,-40.4 138.72,-40.4 138.72,-46.4 132.72,-52.4 126.72,-52.4"/>
<text xml:space="preserve" text-anchor="start" x="37.86" y="-33.85" font-family="Inter,Arial" font-weight="bold" font-size="13.00" fill="#172033">zune&#45;jpeg</text>
<text xml:space="preserve" text-anchor="start" x="52.86" y="-21.8" font-family="Inter,Arial" font-size="12.00" fill="#172033">0.5.15</text>
<text xml:space="preserve" text-anchor="start" x="9.36" y="-10.75" font-family="Inter,Arial" font-size="11.00" fill="#172033">/vendor/zune&#45;jpeg&#45;0.5.15</text>
</g>
<!-- out0 -->
<g id="node2" class="node">
<title>out0</title>
<polygon fill="#fff8e8" stroke="#d19922" points="294.19,-54.4 178.72,-54.4 178.72,0 300.19,0 300.19,-48.4 294.19,-54.4"/>
<polyline fill="none" stroke="#d19922" points="294.19,-54.4 294.19,-48.4"/>
<polyline fill="none" stroke="#d19922" points="300.19,-48.4 294.19,-48.4"/>
<text xml:space="preserve" text-anchor="start" x="188.08" y="-38.7" font-family="Inter,Arial" font-size="10.00" fill="#614000">to zune&#45;core&#45;v0.5.1.svg</text>
<text xml:space="preserve" text-anchor="start" x="216.58" y="-28.7" font-family="Inter,Arial" font-weight="bold" font-size="10.00" fill="#614000">zune&#45;core</text>
<text xml:space="preserve" text-anchor="start" x="228.58" y="-18.7" font-family="Inter,Arial" font-size="10.00" fill="#614000">0.5.1</text>
<text xml:space="preserve" text-anchor="start" x="188.08" y="-8.7" font-family="Inter,Arial" font-size="10.00" fill="#614000">/vendor/zune&#45;core&#45;0.5.1</text>
</g>
<!-- n0&#45;&gt;out0 -->
<g id="edge1" class="edge">
<title>n0&#45;&gt;out0</title>
<path fill="none" stroke="#d19922" stroke-width="0.9" stroke-dasharray="5,2" d="M139.22,-27.2C149.95,-27.2 161.03,-27.2 171.72,-27.2"/>
<polygon fill="#d19922" stroke="#d19922" stroke-width="0.9" points="171.46,-29.13 176.96,-27.2 171.46,-25.28 171.46,-29.13"/>
</g>
</g>
</svg>
