<?xml version="1.0" encoding="UTF-8" standalone="no"?>
<!DOCTYPE svg PUBLIC "-//W3C//DTD SVG 1.1//EN"
 "http://www.w3.org/Graphics/SVG/1.1/DTD/svg11.dtd">
<!-- Generated by graphviz version 14.1.2 (0)
 -->
<!-- Title: zune&#45;core&#45;v0.5.1 Pages: 1 -->
<svg width="292pt" height="55pt"
 viewBox="0.00 0.00 292.00 55.00" xmlns="http://www.w3.org/2000/svg" xmlns:xlink="http://www.w3.org/1999/xlink">
<g id="graph0" class="graph" transform="scale(1 1) rotate(0) translate(4 51.2)">
<title>zune&#45;core&#45;v0.5.1</title>
<polygon fill="white" stroke="none" points="-4,4 -4,-51.2 288.29,-51.2 288.29,4 -4,4"/>
<!-- n0 -->
<g id="node1" class="node">
<title>n0</title>
<path fill="#dff3ff" stroke="#1b78a6" d="M272.29,-42.2C272.29,-42.2 182.02,-42.2 182.02,-42.2 176.02,-42.2 170.02,-36.2 170.02,-30.2 170.02,-30.2 170.02,-17 170.02,-17 170.02,-11 176.02,-5 182.02,-5 182.02,-5 272.29,-5 272.29,-5 278.29,-5 284.29,-11 284.29,-17 284.29,-17 284.29,-30.2 284.29,-30.2 284.29,-36.2 278.29,-42.2 272.29,-42.2"/>
<text xml:space="preserve" text-anchor="start" x="204.28" y="-30.1" font-family="Inter,Arial" font-weight="bold" font-size="10.00" fill="#172033">zune&#45;core</text>
<text xml:space="preserve" text-anchor="start" x="216.28" y="-20.1" font-family="Inter,Arial" font-size="10.00" fill="#172033">0.5.1</text>
<text xml:space="preserve" text-anchor="start" x="175.78" y="-10.1" font-family="Inter,Arial" font-size="10.00" fill="#172033">/vendor/zune&#45;core&#45;0.5.1</text>
</g>
<!-- in0 -->
<g id="node2" class="node">
<title>in0</title>
<polygon fill="#eef6ff" stroke="#4b8fc5" points="124.02,-47.2 0,-47.2 0,0 130.02,0 130.02,-41.2 124.02,-47.2"/>
<polyline fill="none" stroke="#4b8fc5" points="124.02,-47.2 124.02,-41.2"/>
<polyline fill="none" stroke="#4b8fc5" points="130.02,-41.2 124.02,-41.2"/>
<text xml:space="preserve" text-anchor="start" x="5.76" y="-35.1" font-family="Inter,Arial" font-size="10.00" fill="#123d5c">from zune&#45;jpeg&#45;v0.5.15.svg</text>
<text xml:space="preserve" text-anchor="start" x="42.13" y="-25.1" font-family="Inter,Arial" font-weight="bold" font-size="10.00" fill="#123d5c">zune&#45;core</text>
<text xml:space="preserve" text-anchor="start" x="54.13" y="-15.1" font-family="Inter,Arial" font-size="10.00" fill="#123d5c">0.5.1</text>
<text xml:space="preserve" text-anchor="start" x="13.63" y="-5.1" font-family="Inter,Arial" font-size="10.00" fill="#123d5c">/vendor/zune&#45;core&#45;0.5.1</text>
</g>
<!-- in0&#45;&gt;n0 -->
<g id="edge1" class="edge">
<title>in0&#45;&gt;n0</title>
<path fill="none" stroke="#4b8fc5" stroke-width="0.9" stroke-dasharray="5,2" d="M130.22,-23.6C141.03,-23.6 152.24,-23.6 163.03,-23.6"/>
<polygon fill="#4b8fc5" stroke="#4b8fc5" stroke-width="0.9" points="162.81,-25.53 168.31,-23.6 162.81,-21.68 162.81,-25.53"/>
</g>
</g>
</svg>
