<?xml version="1.0" encoding="UTF-8" standalone="no"?>
<!DOCTYPE svg PUBLIC "-//W3C//DTD SVG 1.1//EN"
 "http://www.w3.org/Graphics/SVG/1.1/DTD/svg11.dtd">
<!-- Generated by graphviz version 14.1.2 (0)
 -->
<!-- Title: zune&#45;jpeg&#45;v0.5.15 Pages: 1 -->
<svg width="281pt" height="55pt"
 viewBox="0.00 0.00 281.00 55.00" xmlns="http://www.w3.org/2000/svg" xmlns:xlink="http://www.w3.org/1999/xlink">
<g id="graph0" class="graph" transform="scale(1 1) rotate(0) translate(4 51.2)">
<title>zune&#45;jpeg&#45;v0.5.15</title>
<polygon fill="white" stroke="none" points="-4,4 -4,-51.2 277.04,-51.2 277.04,4 -4,4"/>
<!-- n0 -->
<g id="node1" class="node">
<title>n0</title>
<path fill="#dff3ff" stroke="#1b78a6" d="M106.77,-42.2C106.77,-42.2 12,-42.2 12,-42.2 6,-42.2 0,-36.2 0,-30.2 0,-30.2 0,-17 0,-17 0,-11 6,-5 12,-5 12,-5 106.77,-5 106.77,-5 112.77,-5 118.77,-11 118.77,-17 118.77,-17 118.77,-30.2 118.77,-30.2 118.77,-36.2 112.77,-42.2 106.77,-42.2"/>
<text xml:space="preserve" text-anchor="start" x="36.51" y="-30.1" font-family="Inter,Arial" font-weight="bold" font-size="10.00" fill="#172033">zune&#45;jpeg</text>
<text xml:space="preserve" text-anchor="start" x="45.88" y="-20.1" font-family="Inter,Arial" font-size="10.00" fill="#172033">0.5.15</text>
<text xml:space="preserve" text-anchor="start" x="5.76" y="-10.1" font-family="Inter,Arial" font-size="10.00" fill="#172033">/vendor/zune&#45;jpeg&#45;0.5.15</text>
</g>
<!-- out0 -->
<g id="node2" class="node">
<title>out0</title>
<polygon fill="#fff8e8" stroke="#d19922" points="267.04,-47.2 158.77,-47.2 158.77,0 273.04,0 273.04,-41.2 267.04,-47.2"/>
<polyline fill="none" stroke="#d19922" points="267.04,-47.2 267.04,-41.2"/>
<polyline fill="none" stroke="#d19922" points="273.04,-41.2 267.04,-41.2"/>
<text xml:space="preserve" text-anchor="start" x="164.53" y="-35.1" font-family="Inter,Arial" font-size="10.00" fill="#614000">to zune&#45;core&#45;v0.5.1.svg</text>
<text xml:space="preserve" text-anchor="start" x="193.03" y="-25.1" font-family="Inter,Arial" font-weight="bold" font-size="10.00" fill="#614000">zune&#45;core</text>
<text xml:space="preserve" text-anchor="start" x="205.03" y="-15.1" font-family="Inter,Arial" font-size="10.00" fill="#614000">0.5.1</text>
<text xml:space="preserve" text-anchor="start" x="164.53" y="-5.1" font-family="Inter,Arial" font-size="10.00" fill="#614000">/vendor/zune&#45;core&#45;0.5.1</text>
</g>
<!-- n0&#45;&gt;out0 -->
<g id="edge1" class="edge">
<title>n0&#45;&gt;out0</title>
<path fill="none" stroke="#d19922" stroke-width="0.9" stroke-dasharray="5,2" d="M119.24,-23.6C129.91,-23.6 141.07,-23.6 151.85,-23.6"/>
<polygon fill="#d19922" stroke="#d19922" stroke-width="0.9" points="151.64,-25.53 157.14,-23.6 151.64,-21.68 151.64,-25.53"/>
</g>
</g>
</svg>
