<?xml version="1.0" encoding="UTF-8" standalone="no"?>
<!DOCTYPE svg PUBLIC "-//W3C//DTD SVG 1.1//EN"
 "http://www.w3.org/Graphics/SVG/1.1/DTD/svg11.dtd">
<!-- Generated by graphviz version 14.1.2 (0)
 -->
<!-- Title: zune&#45;core&#45;v0.5.1 Pages: 1 -->
<svg width="319pt" height="62pt"
 viewBox="0.00 0.00 319.00 62.00" xmlns="http://www.w3.org/2000/svg" xmlns:xlink="http://www.w3.org/1999/xlink">
<g id="graph0" class="graph" transform="scale(1 1) rotate(0) translate(4 58.4)">
<title>zune&#45;core&#45;v0.5.1</title>
<polygon fill="white" stroke="none" points="-4,4 -4,-58.4 314.69,-58.4 314.69,4 -4,4"/>
<!-- n0 -->
<g id="node1" class="node">
<title>n0</title>
<path fill="#dff3ff" stroke="#1b78a6" d="M298.69,-52.4C298.69,-52.4 189.22,-52.4 189.22,-52.4 183.22,-52.4 177.22,-46.4 177.22,-40.4 177.22,-40.4 177.22,-14 177.22,-14 177.22,-8 183.22,-2 189.22,-2 189.22,-2 298.69,-2 298.69,-2 304.69,-2 310.69,-8 310.69,-14 310.69,-14 310.69,-40.4 310.69,-40.4 310.69,-46.4 304.69,-52.4 298.69,-52.4"/>
<text xml:space="preserve" text-anchor="start" x="212.08" y="-33.85" font-family="Inter,Arial" font-weight="bold" font-size="13.00" fill="#172033">zune&#45;core</text>
<text xml:space="preserve" text-anchor="start" x="230.83" y="-21.8" font-family="Inter,Arial" font-size="12.00" fill="#172033">0.5.1</text>
<text xml:space="preserve" text-anchor="start" x="186.58" y="-10.75" font-family="Inter,Arial" font-size="11.00" fill="#172033">/vendor/zune&#45;core&#45;0.5.1</text>
</g>
<!-- in0 -->
<g id="node2" class="node">
<title>in0</title>
<polygon fill="#eef6ff" stroke="#4b8fc5" points="131.22,-54.4 0,-54.4 0,0 137.22,0 137.22,-48.4 131.22,-54.4"/>
<polyline fill="none" stroke="#4b8fc5" points="131.22,-54.4 131.22,-48.4"/>
<polyline fill="none" stroke="#4b8fc5" points="137.22,-48.4 131.22,-48.4"/>
<text xml:space="preserve" text-anchor="start" x="9.36" y="-38.7" font-family="Inter,Arial" font-size="10.00" fill="#123d5c">from zune&#45;jpeg&#45;v0.5.15.svg</text>
<text xml:space="preserve" text-anchor="start" x="45.74" y="-28.7" font-family="Inter,Arial" font-weight="bold" font-size="10.00" fill="#123d5c">zune&#45;core</text>
<text xml:space="preserve" text-anchor="start" x="57.74" y="-18.7" font-family="Inter,Arial" font-size="10.00" fill="#123d5c">0.5.1</text>
<text xml:space="preserve" text-anchor="start" x="17.24" y="-8.7" font-family="Inter,Arial" font-size="10.00" fill="#123d5c">/vendor/zune&#45;core&#45;0.5.1</text>
</g>
<!-- in0&#45;&gt;n0 -->
<g id="edge1" class="edge">
<title>in0&#45;&gt;n0</title>
<path fill="none" stroke="#4b8fc5" stroke-width="0.9" stroke-dasharray="5,2" d="M137.62,-27.2C148.31,-27.2 159.39,-27.2 170.17,-27.2"/>
<polygon fill="#4b8fc5" stroke="#4b8fc5" stroke-width="0.9" points="169.98,-29.13 175.48,-27.2 169.98,-25.28 169.98,-29.13"/>
</g>
</g>
</svg>
