<svg xmlns="http://www.w3.org/2000/svg" viewBox="0 0 1 1" preserveAspectRatio="xMidYMid meet">
  <path d="M0.490 0.756V0.203H0.525V0.811H0.490L0.127 0.307V0.811H0.092V0.203ZM0.553 0.523H0.908V0.556H0.553ZM0.729 0.203Q0.790 0.203 0.812 0.265Q0.817 0.280 0.817 0.295V0.303Q0.817 0.347 0.783 0.378Q0.760 0.395 0.734 0.395H0.725Q0.685 0.395 0.658 0.358Q0.642 0.332 0.642 0.299V0.298Q0.642 0.243 0.685 0.214Q0.705 0.203 0.729 0.203ZM0.661 0.298Q0.664 0.355 0.705 0.371Q0.715 0.375 0.729 0.375Q0.774 0.375 0.792 0.328Q0.796 0.313 0.796 0.299Q0.796 0.255 0.765 0.232Q0.748 0.221 0.729 0.221Q0.684 0.221 0.666 0.269Q0.661 0.287 0.661 0.298Z" fill="black"/>
</svg>
