<svg xmlns="http://www.w3.org/2000/svg" viewBox="0 0 1 1" preserveAspectRatio="xMidYMid meet">
  <path d="M0.675 0.286Q0.680 0.294 0.684 0.303Q0.688 0.326 0.688 0.342Q0.688 0.351 0.687 0.359H0.658Q0.658 0.314 0.636 0.286Q0.606 0.246 0.535 0.237V0.482Q0.548 0.482 0.563 0.483Q0.618 0.496 0.650 0.527Q0.691 0.571 0.691 0.639Q0.691 0.750 0.578 0.797Q0.558 0.806 0.535 0.809V0.862H0.501V0.811H0.499Q0.493 0.811 0.487 0.811V0.859H0.453V0.806Q0.373 0.791 0.334 0.728Q0.330 0.722 0.326 0.714Q0.322 0.706 0.318 0.697Q0.309 0.668 0.309 0.638H0.337Q0.336 0.640 0.336 0.643Q0.336 0.663 0.362 0.714Q0.363 0.715 0.363 0.716Q0.387 0.762 0.453 0.774V0.505Q0.423 0.499 0.410 0.491Q0.309 0.450 0.309 0.359V0.355Q0.320 0.217 0.453 0.202V0.137H0.487V0.201Q0.494 0.201 0.501 0.201V0.139H0.535V0.203Q0.631 0.205 0.675 0.286ZM0.453 0.240Q0.375 0.253 0.353 0.300Q0.340 0.331 0.340 0.361Q0.340 0.440 0.453 0.469ZM0.535 0.775Q0.619 0.761 0.654 0.679Q0.658 0.656 0.658 0.647V0.627Q0.658 0.543 0.561 0.519Q0.547 0.518 0.535 0.517ZM0.487 0.477Q0.493 0.478 0.501 0.479V0.236Q0.494 0.236 0.487 0.237ZM0.487 0.777Q0.494 0.778 0.501 0.778V0.513Q0.494 0.512 0.487 0.511Z" fill="black"/>
</svg>
