<svg xmlns="http://www.w3.org/2000/svg" viewBox="0 0 1 1" preserveAspectRatio="xMidYMid meet">
  <path d="M0.285 0.811 0.687 0.204H0.725L0.323 0.811ZM0.291 0.502Q0.229 0.502 0.186 0.458Q0.142 0.414 0.142 0.352Q0.142 0.290 0.186 0.246Q0.229 0.202 0.291 0.202Q0.353 0.202 0.397 0.246Q0.441 0.290 0.441 0.352Q0.441 0.414 0.397 0.458Q0.353 0.502 0.291 0.502ZM0.415 0.352Q0.415 0.301 0.379 0.264Q0.343 0.228 0.291 0.228Q0.240 0.228 0.204 0.264Q0.168 0.301 0.168 0.352Q0.168 0.403 0.204 0.440Q0.240 0.476 0.291 0.476Q0.343 0.476 0.379 0.440Q0.415 0.403 0.415 0.352ZM0.709 0.811Q0.647 0.811 0.603 0.767Q0.559 0.723 0.559 0.662Q0.559 0.600 0.603 0.556Q0.647 0.512 0.709 0.512Q0.771 0.512 0.814 0.556Q0.858 0.600 0.858 0.662Q0.858 0.723 0.814 0.767Q0.771 0.811 0.709 0.811ZM0.832 0.662Q0.832 0.610 0.796 0.574Q0.760 0.538 0.709 0.538Q0.657 0.538 0.621 0.574Q0.585 0.610 0.585 0.662Q0.585 0.713 0.621 0.749Q0.657 0.785 0.709 0.785Q0.760 0.785 0.796 0.749Q0.832 0.713 0.832 0.662Z" fill="black"/>
</svg>
