<svg xmlns="http://www.w3.org/2000/svg" viewBox="0 0 1 1" preserveAspectRatio="xMidYMid meet">
  <path d="M0.717 0.821Q0.621 0.735 0.614 0.728Q0.539 0.813 0.432 0.813H0.430Q0.322 0.813 0.273 0.743Q0.249 0.707 0.249 0.660Q0.249 0.579 0.318 0.513Q0.354 0.482 0.377 0.474V0.473Q0.311 0.371 0.311 0.302Q0.311 0.235 0.375 0.211Q0.400 0.203 0.437 0.203Q0.444 0.202 0.452 0.202Q0.530 0.202 0.561 0.251Q0.574 0.275 0.574 0.298Q0.574 0.369 0.505 0.432Q0.460 0.470 0.415 0.485Q0.437 0.520 0.509 0.596Q0.535 0.621 0.611 0.691Q0.633 0.661 0.653 0.619Q0.669 0.579 0.682 0.527Q0.690 0.491 0.692 0.480H0.717Q0.716 0.498 0.697 0.569Q0.682 0.616 0.661 0.658Q0.646 0.686 0.630 0.709V0.709Q0.745 0.815 0.751 0.820L0.750 0.821ZM0.340 0.300Q0.340 0.358 0.403 0.454Q0.439 0.441 0.470 0.420Q0.524 0.381 0.542 0.322Q0.546 0.309 0.546 0.299V0.294Q0.546 0.250 0.495 0.230Q0.479 0.225 0.459 0.225Q0.448 0.225 0.436 0.227Q0.340 0.227 0.340 0.300ZM0.278 0.660Q0.278 0.717 0.322 0.752Q0.363 0.783 0.429 0.783H0.431Q0.526 0.783 0.589 0.709Q0.588 0.709 0.567 0.688L0.497 0.624Q0.422 0.545 0.398 0.507Q0.397 0.507 0.392 0.500Q0.376 0.506 0.353 0.522Q0.343 0.527 0.316 0.557Q0.278 0.608 0.278 0.660Z" fill="black"/>
</svg>
