<svg xmlns="http://www.w3.org/2000/svg" viewBox="0 0 1 1" preserveAspectRatio="xMidYMid meet">
  <path d="M0.500 0.203Q0.605 0.203 0.625 0.471V0.510Q0.622 0.748 0.531 0.806Q0.516 0.811 0.504 0.811H0.492Q0.427 0.811 0.391 0.663Q0.375 0.586 0.375 0.506Q0.380 0.273 0.462 0.214Q0.481 0.203 0.500 0.203ZM0.410 0.491V0.527Q0.410 0.688 0.471 0.767Q0.488 0.779 0.500 0.779H0.502Q0.565 0.779 0.588 0.579Q0.592 0.522 0.592 0.508Q0.592 0.321 0.527 0.247Q0.519 0.239 0.500 0.235Q0.436 0.235 0.412 0.439Q0.410 0.462 0.410 0.491Z" fill="black"/>
</svg>
