<svg xmlns="http://www.w3.org/2000/svg" viewBox="0 0 1 1" preserveAspectRatio="xMidYMid meet">
  <path d="M0.352 0.203H0.535Q0.611 0.203 0.639 0.268Q0.648 0.286 0.648 0.316V0.322Q0.648 0.422 0.583 0.464Q0.654 0.521 0.654 0.614V0.633Q0.654 0.706 0.597 0.773Q0.549 0.811 0.495 0.811H0.472Q0.399 0.811 0.372 0.756Q0.346 0.706 0.346 0.680Q0.346 0.677 0.347 0.675H0.378Q0.398 0.779 0.477 0.779H0.484Q0.602 0.779 0.619 0.658Q0.621 0.629 0.621 0.619Q0.621 0.514 0.539 0.481Q0.518 0.477 0.491 0.477H0.402V0.445H0.535Q0.603 0.445 0.615 0.318Q0.615 0.249 0.550 0.237Q0.532 0.235 0.514 0.235H0.352Z" fill="black"/>
</svg>
