<svg xmlns="http://www.w3.org/2000/svg" viewBox="0 0 1 1" preserveAspectRatio="xMidYMid meet">
  <path d="M0.343 0.203H0.640V0.235H0.373V0.414Q0.425 0.408 0.458 0.406Q0.607 0.406 0.652 0.514Q0.661 0.552 0.661 0.579Q0.661 0.734 0.479 0.792Q0.405 0.811 0.354 0.811H0.344Q0.341 0.811 0.341 0.807V0.783Q0.341 0.779 0.344 0.779Q0.475 0.779 0.569 0.710Q0.627 0.659 0.627 0.589V0.571Q0.627 0.477 0.533 0.450Q0.502 0.441 0.460 0.441Q0.401 0.441 0.341 0.456L0.339 0.452V0.206Q0.339 0.203 0.343 0.203Z" fill="black"/>
</svg>
