<svg xmlns="http://www.w3.org/2000/svg" viewBox="0 0 1 1" preserveAspectRatio="xMidYMid meet">
  <path d="M0.587 0.222 0.437 0.498H0.439Q0.470 0.486 0.505 0.486Q0.595 0.486 0.649 0.582Q0.663 0.615 0.663 0.644V0.660Q0.663 0.727 0.594 0.782Q0.553 0.811 0.506 0.811H0.489Q0.405 0.811 0.351 0.716Q0.337 0.682 0.337 0.652V0.648Q0.337 0.597 0.388 0.516L0.559 0.205ZM0.371 0.650Q0.371 0.739 0.472 0.776Q0.491 0.778 0.501 0.778Q0.590 0.778 0.626 0.681Q0.629 0.662 0.629 0.648Q0.629 0.558 0.530 0.523L0.501 0.519Q0.413 0.519 0.376 0.613Q0.373 0.626 0.371 0.650Z" fill="black"/>
</svg>
