<svg xmlns="http://www.w3.org/2000/svg" viewBox="0 0 1 1" preserveAspectRatio="xMidYMid meet">
  <path d="M0.413 0.794 0.563 0.518H0.561Q0.530 0.530 0.495 0.530Q0.404 0.530 0.351 0.434Q0.337 0.401 0.337 0.372V0.356Q0.337 0.289 0.406 0.234Q0.447 0.205 0.493 0.205H0.511Q0.594 0.205 0.649 0.300Q0.663 0.334 0.663 0.364V0.368Q0.663 0.419 0.612 0.500L0.441 0.811ZM0.629 0.366Q0.629 0.277 0.528 0.240Q0.509 0.238 0.499 0.238Q0.410 0.238 0.374 0.335Q0.371 0.354 0.371 0.368Q0.371 0.458 0.470 0.493L0.499 0.496Q0.586 0.496 0.624 0.403Q0.627 0.389 0.629 0.366Z" fill="black"/>
</svg>
