<svg xmlns="http://www.w3.org/2000/svg" viewBox="0 0 1 1" preserveAspectRatio="xMidYMid meet">
  <path d="M0.500 0.811Q0.489 0.811 0.482 0.804Q0.474 0.796 0.474 0.785Q0.474 0.774 0.482 0.767Q0.489 0.759 0.500 0.759Q0.511 0.759 0.518 0.767Q0.526 0.774 0.526 0.785Q0.526 0.796 0.518 0.804Q0.511 0.811 0.500 0.811ZM0.500 0.432Q0.489 0.432 0.482 0.424Q0.474 0.416 0.474 0.405Q0.474 0.395 0.482 0.387Q0.489 0.379 0.500 0.379Q0.511 0.379 0.518 0.387Q0.526 0.395 0.526 0.405Q0.526 0.416 0.518 0.424Q0.511 0.432 0.500 0.432Z" fill="black"/>
</svg>
