<svg xmlns="http://www.w3.org/2000/svg" viewBox="0 0 1 1" preserveAspectRatio="xMidYMid meet">
  <path d="M0.439 0.509Q0.453 0.509 0.466 0.509Q0.560 0.509 0.615 0.473Q0.663 0.442 0.663 0.380Q0.663 0.361 0.659 0.340Q0.641 0.249 0.499 0.241H0.485Q0.356 0.241 0.339 0.377H0.300Q0.319 0.203 0.496 0.203H0.499Q0.543 0.203 0.580 0.217Q0.700 0.265 0.700 0.375Q0.700 0.443 0.651 0.491Q0.603 0.539 0.476 0.539H0.474V0.691H0.439ZM0.461 0.811Q0.450 0.811 0.442 0.804Q0.434 0.796 0.434 0.785Q0.434 0.774 0.442 0.767Q0.450 0.759 0.461 0.759Q0.471 0.759 0.479 0.767Q0.487 0.774 0.487 0.785Q0.487 0.796 0.479 0.804Q0.471 0.811 0.461 0.811Z" fill="black"/>
</svg>
