<svg xmlns="http://www.w3.org/2000/svg" viewBox="0 0 1 1" preserveAspectRatio="xMidYMid meet">
  <path d="M0.657 0.764Q0.587 0.811 0.510 0.811H0.490Q0.377 0.811 0.282 0.709Q0.278 0.703 0.262 0.682Q0.211 0.599 0.211 0.519V0.499Q0.211 0.395 0.286 0.302Q0.377 0.203 0.500 0.203Q0.643 0.203 0.738 0.334Q0.789 0.417 0.789 0.508V0.522Q0.789 0.613 0.714 0.640Q0.701 0.642 0.693 0.642H0.683Q0.629 0.642 0.596 0.580V0.578Q0.552 0.643 0.493 0.643H0.479Q0.424 0.643 0.380 0.583Q0.360 0.547 0.360 0.510V0.509Q0.360 0.420 0.443 0.379Q0.465 0.372 0.479 0.372H0.493Q0.546 0.372 0.589 0.426V0.379H0.613V0.521Q0.613 0.579 0.643 0.600Q0.663 0.616 0.690 0.616Q0.733 0.616 0.758 0.567Q0.765 0.544 0.765 0.518Q0.765 0.355 0.630 0.266Q0.568 0.230 0.499 0.230Q0.409 0.230 0.332 0.293Q0.235 0.382 0.235 0.510Q0.235 0.633 0.332 0.722Q0.407 0.785 0.501 0.785Q0.583 0.785 0.657 0.730ZM0.384 0.508Q0.384 0.571 0.444 0.608Q0.462 0.616 0.488 0.618Q0.537 0.618 0.572 0.567Q0.589 0.541 0.589 0.506Q0.589 0.446 0.530 0.409Q0.512 0.400 0.488 0.398Q0.431 0.398 0.395 0.459Q0.384 0.490 0.384 0.508Z" fill="black"/>
</svg>
