<svg xmlns="http://www.w3.org/2000/svg" viewBox="0 0 1 1" preserveAspectRatio="xMidYMid meet">
  <path d="M0.359 0.178H0.361Q0.361 0.187 0.370 0.187V0.189Q0.363 0.189 0.363 0.200Q0.362 0.200 0.357 0.194H0.352Q0.354 0.191 0.354 0.189Q0.350 0.189 0.350 0.185Q0.359 0.185 0.359 0.178ZM0.291 0.191H0.299V0.193L0.287 0.200L0.285 0.196Q0.285 0.193 0.291 0.191ZM0.289 0.202H0.323V0.204Q0.323 0.210 0.316 0.218V0.222Q0.320 0.231 0.329 0.231V0.232H0.316V0.254Q0.317 0.258 0.319 0.258Q0.323 0.258 0.323 0.249H0.325L0.327 0.256H0.331L0.334 0.254V0.258H0.331V0.260L0.332 0.269L0.327 0.265H0.323V0.271H0.321Q0.318 0.271 0.318 0.267Q0.321 0.267 0.321 0.265Q0.319 0.262 0.319 0.260H0.316V0.281Q0.307 0.277 0.303 0.265Q0.303 0.264 0.308 0.251Q0.307 0.251 0.307 0.249Q0.299 0.250 0.299 0.253L0.296 0.251Q0.285 0.253 0.285 0.256L0.287 0.260H0.285L0.274 0.258Q0.271 0.259 0.271 0.262L0.274 0.267Q0.272 0.270 0.272 0.274Q0.276 0.278 0.283 0.278L0.280 0.283V0.285L0.283 0.290L0.280 0.296Q0.280 0.305 0.305 0.311V0.313Q0.291 0.313 0.291 0.320L0.287 0.318H0.285L0.271 0.331L0.269 0.323Q0.267 0.323 0.267 0.325L0.263 0.323L0.256 0.327Q0.256 0.325 0.247 0.320L0.249 0.316Q0.247 0.313 0.247 0.309Q0.249 0.309 0.249 0.307L0.233 0.294Q0.233 0.289 0.238 0.280Q0.233 0.280 0.233 0.273H0.236L0.240 0.274Q0.240 0.272 0.241 0.269Q0.240 0.269 0.240 0.267Q0.245 0.267 0.245 0.260L0.249 0.262V0.260Q0.247 0.260 0.247 0.258Q0.252 0.258 0.252 0.254L0.249 0.249Q0.243 0.251 0.243 0.253Q0.240 0.251 0.238 0.251L0.240 0.247V0.245L0.238 0.241Q0.241 0.241 0.245 0.234Q0.243 0.234 0.243 0.232L0.247 0.231Q0.249 0.238 0.252 0.238Q0.254 0.238 0.254 0.236Q0.260 0.240 0.265 0.240V0.241H0.258Q0.256 0.241 0.256 0.240Q0.252 0.241 0.250 0.241V0.247H0.254L0.252 0.251L0.258 0.254L0.259 0.251Q0.256 0.251 0.256 0.247Q0.263 0.249 0.269 0.249L0.267 0.253L0.272 0.256H0.274L0.278 0.254Q0.278 0.256 0.280 0.256L0.282 0.253L0.280 0.249Q0.289 0.248 0.289 0.243Q0.289 0.240 0.283 0.240V0.238Q0.292 0.238 0.292 0.234Q0.292 0.230 0.283 0.229V0.227Q0.283 0.225 0.285 0.225L0.283 0.222V0.218Q0.291 0.218 0.294 0.216Q0.294 0.224 0.298 0.224H0.299Q0.303 0.224 0.303 0.220Q0.303 0.217 0.296 0.215Q0.296 0.216 0.294 0.216ZM0.329 0.202H0.334V0.204Q0.334 0.207 0.331 0.207H0.329ZM0.340 0.202 0.343 0.204H0.356L0.368 0.205V0.207Q0.363 0.207 0.363 0.211Q0.364 0.215 0.367 0.215Q0.369 0.215 0.376 0.205Q0.382 0.207 0.394 0.207L0.389 0.215Q0.390 0.215 0.390 0.216Q0.389 0.216 0.389 0.218L0.399 0.229Q0.399 0.227 0.401 0.227Q0.401 0.225 0.392 0.215L0.399 0.209Q0.424 0.213 0.425 0.213L0.423 0.216Q0.440 0.222 0.440 0.232V0.238Q0.440 0.249 0.432 0.249Q0.408 0.249 0.405 0.234Q0.405 0.231 0.401 0.231Q0.401 0.234 0.398 0.234Q0.393 0.226 0.383 0.218Q0.383 0.220 0.381 0.220Q0.383 0.231 0.385 0.231Q0.383 0.234 0.383 0.238L0.374 0.236H0.367L0.368 0.240H0.367Q0.363 0.238 0.361 0.238H0.356Q0.356 0.236 0.340 0.225Q0.340 0.221 0.332 0.220L0.338 0.211Q0.336 0.211 0.336 0.209Q0.340 0.209 0.340 0.202ZM0.374 0.211 0.372 0.215 0.380 0.218 0.381 0.215ZM0.321 0.218H0.325V0.222H0.321ZM0.440 0.218H0.441Q0.463 0.223 0.463 0.231Q0.463 0.242 0.492 0.258L0.497 0.269Q0.494 0.271 0.492 0.271Q0.468 0.262 0.440 0.253Q0.445 0.246 0.445 0.240V0.232Q0.445 0.227 0.440 0.218ZM0.468 0.227 0.521 0.249V0.251Q0.514 0.251 0.499 0.262Q0.497 0.252 0.470 0.238Q0.470 0.237 0.468 0.227ZM0.271 0.229H0.276V0.231H0.271ZM0.389 0.234H0.390Q0.394 0.235 0.394 0.238V0.240H0.389ZM0.222 0.247H0.225V0.249H0.222ZM0.272 0.247H0.280V0.249H0.272ZM0.233 0.249Q0.236 0.251 0.238 0.251V0.253L0.231 0.254H0.229V0.253Q0.233 0.253 0.233 0.249ZM0.216 0.253V0.256H0.212Q0.213 0.253 0.216 0.253ZM0.227 0.254H0.229Q0.229 0.257 0.223 0.260H0.222Q0.222 0.257 0.227 0.254ZM0.252 0.260Q0.256 0.262 0.259 0.262V0.264Q0.250 0.264 0.250 0.267Q0.257 0.271 0.261 0.271V0.273Q0.252 0.273 0.252 0.276Q0.257 0.280 0.259 0.280V0.281Q0.254 0.281 0.254 0.285Q0.254 0.289 0.259 0.289V0.290Q0.254 0.290 0.254 0.294Q0.254 0.297 0.265 0.301L0.267 0.298L0.265 0.294Q0.271 0.294 0.271 0.290V0.289L0.267 0.283Q0.269 0.280 0.269 0.278Q0.264 0.274 0.261 0.274V0.273Q0.267 0.273 0.267 0.269Q0.267 0.267 0.261 0.264Q0.263 0.260 0.263 0.258L0.259 0.256H0.256Q0.252 0.257 0.252 0.260ZM0.354 0.254H0.359Q0.370 0.255 0.370 0.260Q0.362 0.260 0.357 0.265Q0.357 0.256 0.354 0.256ZM0.528 0.254Q0.587 0.282 0.633 0.345Q0.638 0.345 0.641 0.347L0.645 0.345Q0.668 0.345 0.690 0.373Q0.695 0.383 0.699 0.396H0.697L0.699 0.399V0.409H0.693V0.407Q0.693 0.373 0.657 0.358Q0.645 0.354 0.641 0.354H0.639Q0.665 0.401 0.666 0.422Q0.657 0.423 0.637 0.438Q0.637 0.422 0.619 0.385Q0.630 0.379 0.630 0.367Q0.630 0.346 0.597 0.338L0.586 0.327Q0.583 0.327 0.583 0.332H0.581Q0.548 0.304 0.548 0.301L0.547 0.294Q0.547 0.291 0.550 0.281Q0.541 0.281 0.510 0.267H0.503Q0.503 0.262 0.528 0.254ZM0.212 0.256V0.258Q0.212 0.262 0.209 0.262V0.260Q0.210 0.256 0.212 0.256ZM0.222 0.260V0.264H0.218Q0.218 0.260 0.222 0.260ZM0.205 0.264H0.207V0.267H0.205ZM0.218 0.264V0.267H0.214Q0.215 0.264 0.218 0.264ZM0.203 0.267H0.205V0.271H0.203ZM0.201 0.271H0.203V0.274H0.201ZM0.211 0.271H0.212V0.274Q0.211 0.278 0.211 0.280H0.209V0.276Q0.211 0.273 0.211 0.271ZM0.499 0.273H0.508Q0.511 0.273 0.537 0.285H0.543Q0.541 0.292 0.541 0.298ZM0.323 0.274Q0.327 0.274 0.327 0.280H0.332L0.331 0.276H0.336V0.278L0.332 0.283L0.336 0.290H0.334Q0.331 0.289 0.329 0.289Q0.329 0.290 0.327 0.290Q0.327 0.289 0.318 0.281Q0.323 0.281 0.323 0.276ZM0.199 0.276H0.201V0.280H0.199ZM0.298 0.278H0.303V0.280H0.298ZM0.347 0.278H0.352V0.285H0.347ZM0.207 0.280H0.209V0.303H0.207ZM0.243 0.285 0.241 0.289 0.245 0.290 0.247 0.287ZM0.363 0.283Q0.367 0.284 0.367 0.287H0.363ZM0.198 0.285H0.199Q0.199 0.312 0.212 0.327V0.329L0.205 0.323Q0.203 0.327 0.203 0.329Q0.200 0.327 0.198 0.327ZM0.294 0.289H0.298V0.290H0.294ZM0.259 0.290H0.263V0.292H0.259ZM0.298 0.290H0.299Q0.313 0.294 0.316 0.294V0.300Q0.307 0.295 0.298 0.292ZM0.365 0.292H0.370Q0.370 0.294 0.368 0.294L0.370 0.298V0.301L0.365 0.298L0.359 0.301V0.298Q0.359 0.295 0.365 0.292ZM0.225 0.296H0.229V0.298H0.225ZM0.291 0.300H0.294V0.301H0.291ZM0.294 0.301H0.298V0.303H0.294ZM0.408 0.301Q0.416 0.304 0.416 0.307V0.313Q0.416 0.315 0.410 0.318H0.406L0.405 0.309V0.305Q0.405 0.301 0.408 0.301ZM0.299 0.303H0.303V0.305H0.299ZM0.209 0.305H0.211V0.309H0.209ZM0.211 0.309Q0.213 0.309 0.218 0.322H0.214ZM0.314 0.309Q0.341 0.317 0.341 0.322V0.323Q0.340 0.323 0.340 0.322L0.336 0.323H0.331L0.329 0.316L0.319 0.318Q0.319 0.314 0.314 0.314ZM0.824 0.309H0.829Q0.828 0.313 0.828 0.314Q0.824 0.314 0.824 0.311ZM0.819 0.313Q0.822 0.316 0.822 0.323Q0.805 0.336 0.801 0.336Q0.804 0.320 0.817 0.313ZM0.298 0.318H0.299Q0.304 0.318 0.329 0.331Q0.334 0.331 0.334 0.334Q0.332 0.337 0.332 0.341Q0.330 0.341 0.318 0.329V0.332Q0.298 0.319 0.298 0.318ZM0.249 0.323 0.250 0.327Q0.247 0.327 0.247 0.331V0.332H0.250V0.334L0.245 0.341V0.343H0.249V0.345H0.245Q0.242 0.343 0.240 0.343Q0.240 0.341 0.241 0.341L0.240 0.338V0.336L0.245 0.329Q0.243 0.329 0.243 0.327ZM0.285 0.323V0.325L0.289 0.323Q0.291 0.323 0.291 0.325L0.294 0.323Q0.301 0.329 0.307 0.329Q0.307 0.331 0.305 0.331L0.307 0.334V0.347Q0.307 0.349 0.296 0.358V0.356Q0.287 0.358 0.287 0.361Q0.299 0.367 0.299 0.378Q0.299 0.396 0.283 0.396Q0.280 0.394 0.278 0.394L0.283 0.387V0.380L0.280 0.374H0.283V0.363Q0.271 0.378 0.267 0.380H0.265Q0.265 0.371 0.261 0.367Q0.265 0.367 0.265 0.363V0.360Q0.261 0.360 0.258 0.352Q0.261 0.352 0.261 0.349L0.265 0.350L0.271 0.347Q0.271 0.349 0.276 0.352H0.278Q0.278 0.349 0.283 0.345L0.282 0.336L0.276 0.339H0.274V0.336Q0.283 0.335 0.283 0.331Q0.282 0.327 0.282 0.325ZM0.352 0.323H0.356Q0.356 0.327 0.365 0.334L0.361 0.336H0.359L0.350 0.334Q0.352 0.331 0.352 0.323ZM0.203 0.329H0.205V0.332H0.203ZM0.267 0.331H0.271Q0.271 0.334 0.267 0.334ZM0.198 0.336H0.199V0.339H0.198ZM0.584 0.336H0.586Q0.591 0.340 0.621 0.354Q0.621 0.358 0.624 0.367Q0.621 0.380 0.617 0.380H0.615Q0.615 0.374 0.605 0.363L0.592 0.373Q0.592 0.367 0.588 0.367Q0.586 0.367 0.579 0.381L0.570 0.383Q0.570 0.379 0.599 0.354ZM0.312 0.338Q0.316 0.338 0.316 0.341V0.349Q0.312 0.349 0.312 0.345ZM0.271 0.339H0.274V0.341H0.271ZM0.368 0.339Q0.368 0.341 0.370 0.341L0.368 0.345Q0.370 0.349 0.370 0.350Q0.356 0.358 0.356 0.360V0.365H0.359V0.367H0.356L0.357 0.376Q0.351 0.381 0.348 0.381V0.385Q0.354 0.385 0.354 0.389Q0.353 0.392 0.345 0.396Q0.334 0.395 0.334 0.392Q0.338 0.386 0.338 0.381V0.380Q0.330 0.370 0.329 0.365H0.331Q0.338 0.373 0.340 0.373Q0.342 0.373 0.350 0.361V0.360Q0.345 0.360 0.338 0.350V0.347Q0.338 0.344 0.368 0.339ZM0.199 0.341H0.201V0.345H0.199ZM0.263 0.341H0.267V0.343H0.263ZM0.272 0.343H0.274V0.347H0.272ZM0.201 0.345H0.203V0.349H0.201ZM0.327 0.345Q0.327 0.349 0.332 0.349L0.329 0.358Q0.320 0.354 0.319 0.350ZM0.234 0.352H0.236V0.367H0.234ZM0.308 0.354H0.310Q0.325 0.362 0.325 0.365Q0.320 0.365 0.319 0.373Q0.303 0.359 0.303 0.358ZM0.223 0.367H0.227V0.376Q0.227 0.380 0.223 0.380H0.222Q0.218 0.380 0.218 0.376Q0.222 0.376 0.223 0.367ZM0.303 0.369Q0.311 0.372 0.316 0.380V0.392Q0.303 0.383 0.303 0.369ZM0.234 0.374H0.236V0.380H0.234ZM0.249 0.374H0.254Q0.254 0.378 0.250 0.378ZM0.782 0.374V0.376Q0.782 0.380 0.778 0.380V0.378Q0.779 0.374 0.782 0.374ZM0.778 0.380V0.383Q0.778 0.386 0.762 0.403H0.757ZM0.198 0.381H0.199V0.387H0.198ZM0.256 0.381H0.258Q0.267 0.398 0.291 0.423L0.292 0.420Q0.292 0.418 0.282 0.403V0.401Q0.290 0.401 0.292 0.399Q0.292 0.402 0.305 0.412L0.307 0.409L0.298 0.398Q0.303 0.389 0.305 0.389Q0.305 0.391 0.316 0.399Q0.319 0.399 0.319 0.396Q0.318 0.396 0.318 0.394L0.323 0.390L0.329 0.398Q0.323 0.398 0.323 0.401V0.403H0.325L0.329 0.401Q0.329 0.410 0.340 0.416H0.341Q0.343 0.407 0.350 0.407V0.405L0.347 0.399Q0.351 0.399 0.356 0.396Q0.356 0.401 0.359 0.407H0.352V0.416H0.350V0.418Q0.350 0.420 0.352 0.420Q0.352 0.422 0.350 0.422L0.352 0.430Q0.340 0.459 0.332 0.459V0.458Q0.325 0.460 0.325 0.463L0.318 0.459L0.316 0.463V0.496H0.319L0.316 0.501V0.506H0.348V0.508Q0.345 0.508 0.345 0.516H0.329L0.316 0.519V0.534Q0.319 0.532 0.321 0.532V0.530L0.318 0.525Q0.336 0.521 0.341 0.521L0.352 0.523Q0.380 0.520 0.380 0.518Q0.385 0.521 0.389 0.521Q0.389 0.523 0.378 0.536V0.538Q0.380 0.538 0.380 0.539H0.372L0.374 0.536V0.530Q0.374 0.528 0.367 0.523H0.363Q0.360 0.523 0.356 0.530L0.357 0.539Q0.354 0.538 0.352 0.538L0.354 0.534V0.530Q0.351 0.523 0.341 0.523Q0.341 0.524 0.336 0.529L0.338 0.532Q0.336 0.536 0.336 0.538Q0.340 0.541 0.345 0.541L0.338 0.554H0.323L0.321 0.563V0.568L0.329 0.570V0.572H0.327Q0.324 0.572 0.316 0.568V0.587Q0.316 0.588 0.318 0.588L0.316 0.592V0.617Q0.311 0.617 0.283 0.628Q0.283 0.606 0.276 0.597Q0.278 0.594 0.278 0.592H0.280L0.282 0.604H0.283V0.583Q0.283 0.581 0.282 0.581L0.283 0.578V0.574Q0.283 0.572 0.282 0.572L0.283 0.568V0.566L0.280 0.568Q0.280 0.566 0.278 0.563H0.280L0.283 0.565V0.557Q0.283 0.554 0.280 0.554H0.278Q0.274 0.554 0.249 0.566H0.238Q0.238 0.574 0.234 0.574H0.233L0.236 0.568V0.566Q0.234 0.566 0.231 0.565Q0.231 0.568 0.227 0.568Q0.227 0.563 0.218 0.563L0.220 0.559H0.216V0.557L0.225 0.555L0.223 0.559V0.561H0.225Q0.234 0.556 0.234 0.554V0.552Q0.234 0.548 0.231 0.548H0.227Q0.222 0.548 0.212 0.554V0.550Q0.211 0.550 0.201 0.552L0.192 0.548Q0.192 0.550 0.191 0.554Q0.192 0.554 0.192 0.555H0.189L0.183 0.552Q0.182 0.552 0.173 0.554H0.171V0.552Q0.179 0.552 0.185 0.541L0.189 0.539L0.192 0.545Q0.191 0.545 0.191 0.546H0.194Q0.198 0.546 0.198 0.538H0.196V0.536H0.205V0.532H0.192V0.530H0.211Q0.211 0.526 0.220 0.525V0.523L0.218 0.519H0.220L0.225 0.523Q0.238 0.519 0.252 0.519Q0.264 0.523 0.271 0.523L0.283 0.519V0.516H0.278V0.514Q0.283 0.514 0.283 0.510V0.505Q0.283 0.503 0.282 0.503L0.283 0.499V0.494Q0.283 0.492 0.282 0.492L0.283 0.488V0.485Q0.283 0.483 0.282 0.483L0.283 0.480V0.423Q0.283 0.421 0.274 0.414Q0.274 0.418 0.271 0.418Q0.264 0.399 0.254 0.389Q0.256 0.386 0.256 0.381ZM0.212 0.383V0.389Q0.212 0.392 0.209 0.392V0.387Q0.210 0.383 0.212 0.383ZM0.243 0.383H0.245V0.387H0.243ZM0.205 0.389V0.396Q0.203 0.396 0.199 0.398V0.390Q0.202 0.390 0.205 0.389ZM0.234 0.389H0.236V0.398H0.234ZM0.568 0.389H0.575L0.570 0.403H0.572L0.568 0.412H0.570L0.568 0.416V0.425L0.570 0.429H0.568Q0.560 0.420 0.557 0.420L0.561 0.407H0.559L0.564 0.396H0.563Q0.565 0.389 0.568 0.389ZM0.748 0.390H0.750L0.746 0.398Q0.748 0.398 0.748 0.399Q0.739 0.403 0.733 0.403Q0.733 0.400 0.748 0.390ZM0.329 0.398H0.332V0.401H0.329ZM0.203 0.401H0.205V0.409H0.203ZM0.755 0.407V0.410Q0.737 0.421 0.737 0.429H0.720V0.427Q0.720 0.409 0.729 0.409Q0.745 0.407 0.755 0.407ZM0.212 0.410V0.416H0.209V0.414Q0.210 0.410 0.212 0.410ZM0.318 0.414 0.316 0.418V0.445Q0.316 0.448 0.321 0.448Q0.332 0.448 0.338 0.436H0.340V0.425H0.336V0.434H0.334Q0.334 0.427 0.318 0.414ZM0.205 0.414V0.418Q0.205 0.422 0.201 0.422H0.199V0.416Q0.202 0.416 0.205 0.414ZM0.695 0.414H0.699Q0.699 0.418 0.695 0.418ZM0.359 0.420H0.361V0.423H0.359ZM0.212 0.422V0.443H0.211L0.209 0.425Q0.210 0.422 0.212 0.422ZM0.263 0.422V0.425H0.259Q0.260 0.422 0.263 0.422ZM0.361 0.425H0.365V0.429Q0.361 0.429 0.361 0.425ZM0.668 0.425Q0.670 0.431 0.670 0.445Q0.661 0.448 0.643 0.463Q0.641 0.459 0.639 0.443Q0.650 0.434 0.668 0.425ZM0.559 0.427H0.561Q0.564 0.438 0.564 0.439Q0.560 0.454 0.547 0.454H0.545L0.539 0.450V0.452Q0.532 0.450 0.528 0.443Q0.536 0.439 0.539 0.439Q0.543 0.439 0.552 0.443Q0.552 0.441 0.554 0.441Q0.554 0.445 0.557 0.445H0.561L0.559 0.441H0.561L0.559 0.438ZM0.198 0.429H0.201Q0.202 0.439 0.207 0.448L0.205 0.458V0.485Q0.211 0.485 0.223 0.499H0.222L0.214 0.494L0.211 0.496Q0.211 0.493 0.205 0.490V0.492Q0.205 0.494 0.207 0.494L0.205 0.497V0.501L0.207 0.505L0.199 0.506Q0.199 0.506 0.189 0.496H0.191L0.198 0.499V0.480Q0.198 0.478 0.196 0.478Q0.199 0.469 0.199 0.445V0.432ZM0.329 0.429V0.430Q0.329 0.433 0.323 0.436H0.321Q0.321 0.433 0.329 0.429ZM0.719 0.434H0.735V0.448Q0.735 0.463 0.748 0.472Q0.753 0.471 0.761 0.458L0.759 0.454V0.447H0.761Q0.761 0.449 0.764 0.467Q0.762 0.467 0.762 0.469H0.764Q0.755 0.485 0.719 0.521V0.518L0.720 0.508H0.719Q0.707 0.513 0.673 0.543L0.671 0.561Q0.675 0.570 0.682 0.570Q0.701 0.558 0.701 0.548H0.703V0.552Q0.696 0.569 0.679 0.579Q0.664 0.583 0.664 0.587L0.661 0.596Q0.665 0.596 0.668 0.597Q0.685 0.597 0.703 0.570V0.574Q0.694 0.594 0.657 0.617Q0.652 0.623 0.617 0.677Q0.584 0.713 0.577 0.713Q0.579 0.719 0.588 0.719Q0.592 0.717 0.594 0.717Q0.587 0.729 0.550 0.737Q0.543 0.737 0.487 0.768Q0.389 0.802 0.359 0.802V0.811Q0.364 0.811 0.370 0.808V0.810L0.363 0.817L0.368 0.824L0.365 0.826H0.363Q0.363 0.820 0.359 0.820H0.356Q0.356 0.826 0.352 0.826H0.350V0.824L0.354 0.819V0.815Q0.345 0.815 0.345 0.811V0.810L0.354 0.811H0.356V0.802Q0.355 0.804 0.312 0.808V0.811L0.307 0.808Q0.306 0.808 0.283 0.810V0.781L0.280 0.783V0.779H0.283V0.745H0.285Q0.303 0.745 0.316 0.741V0.775Q0.321 0.775 0.321 0.773L0.329 0.775L0.354 0.771V0.766H0.350Q0.351 0.762 0.354 0.762H0.357L0.356 0.771Q0.375 0.768 0.380 0.764Q0.381 0.764 0.381 0.766Q0.467 0.743 0.514 0.719V0.717L0.508 0.706Q0.510 0.706 0.510 0.704Q0.508 0.704 0.508 0.703H0.510L0.508 0.699Q0.510 0.688 0.512 0.688Q0.510 0.677 0.508 0.677L0.514 0.650Q0.512 0.650 0.512 0.648Q0.515 0.648 0.523 0.625Q0.530 0.617 0.539 0.590L0.537 0.587V0.578L0.539 0.574Q0.537 0.574 0.537 0.572Q0.541 0.572 0.541 0.568H0.539L0.541 0.565Q0.541 0.550 0.524 0.532V0.530Q0.528 0.526 0.528 0.521Q0.538 0.528 0.547 0.543Q0.545 0.543 0.545 0.545L0.550 0.548Q0.550 0.545 0.568 0.523Q0.568 0.521 0.570 0.518H0.568Q0.572 0.509 0.572 0.496Q0.572 0.477 0.557 0.461H0.555V0.459Q0.568 0.450 0.568 0.441H0.570Q0.570 0.445 0.579 0.478H0.577L0.579 0.481Q0.579 0.483 0.577 0.483L0.579 0.492V0.494L0.577 0.503H0.581L0.575 0.510V0.516L0.579 0.521Q0.575 0.521 0.568 0.541H0.570L0.559 0.568Q0.561 0.568 0.561 0.570Q0.558 0.570 0.547 0.599Q0.550 0.605 0.550 0.608L0.559 0.606H0.561Q0.580 0.606 0.586 0.628V0.632H0.584L0.586 0.636Q0.584 0.639 0.584 0.641H0.579Q0.576 0.617 0.559 0.617Q0.544 0.617 0.524 0.643Q0.516 0.656 0.515 0.677V0.703Q0.515 0.704 0.517 0.704L0.515 0.708V0.711L0.517 0.715Q0.565 0.692 0.603 0.643L0.601 0.639Q0.611 0.639 0.626 0.597Q0.635 0.584 0.635 0.565V0.563L0.633 0.559Q0.635 0.559 0.635 0.557Q0.633 0.557 0.633 0.555Q0.635 0.555 0.635 0.554H0.633Q0.636 0.532 0.641 0.525Q0.624 0.521 0.624 0.514H0.621V0.521H0.619Q0.619 0.515 0.613 0.508L0.615 0.505L0.633 0.516V0.514L0.643 0.518V0.501L0.639 0.503L0.635 0.501V0.508Q0.641 0.508 0.641 0.512H0.637Q0.617 0.503 0.617 0.499L0.621 0.497L0.630 0.499L0.628 0.496Q0.632 0.494 0.633 0.494L0.643 0.499V0.470Q0.658 0.455 0.673 0.450V0.452Q0.676 0.496 0.679 0.496Q0.675 0.509 0.675 0.530H0.681Q0.717 0.508 0.717 0.480Q0.719 0.480 0.719 0.478H0.717L0.719 0.474ZM0.523 0.447Q0.525 0.447 0.530 0.454Q0.524 0.454 0.514 0.470Q0.510 0.472 0.508 0.472L0.514 0.459H0.512Q0.512 0.455 0.523 0.447ZM0.252 0.452H0.256V0.454Q0.256 0.456 0.254 0.456L0.256 0.459V0.474H0.252ZM0.233 0.456H0.234Q0.240 0.470 0.240 0.474Q0.238 0.478 0.238 0.480H0.236Q0.236 0.472 0.233 0.458ZM0.274 0.456H0.276V0.458Q0.272 0.472 0.272 0.481H0.271Q0.271 0.480 0.269 0.470Q0.274 0.460 0.274 0.456ZM0.214 0.465H0.216V0.469H0.214ZM0.216 0.469Q0.218 0.469 0.225 0.480Q0.223 0.483 0.223 0.485H0.222Q0.222 0.482 0.216 0.469ZM0.354 0.478H0.356V0.481H0.354ZM0.608 0.478H0.610L0.606 0.487Q0.608 0.487 0.612 0.488Q0.612 0.485 0.624 0.481Q0.624 0.483 0.613 0.494Q0.612 0.492 0.599 0.492Q0.605 0.478 0.608 0.478ZM0.241 0.480H0.243V0.483H0.241ZM0.252 0.480H0.256V0.481H0.252ZM0.250 0.481H0.252V0.496H0.250ZM0.256 0.481H0.258V0.497H0.256ZM0.628 0.483H0.633V0.485Q0.633 0.488 0.626 0.492L0.624 0.488Q0.628 0.488 0.628 0.483ZM0.238 0.485H0.240V0.492H0.238ZM0.243 0.485H0.245V0.488H0.243ZM0.269 0.485H0.271V0.492H0.269ZM0.456 0.487H0.461V0.488H0.456ZM0.245 0.488H0.247V0.494H0.245ZM0.412 0.488H0.423V0.490Q0.414 0.490 0.406 0.492Q0.406 0.488 0.412 0.488ZM0.225 0.490H0.227V0.494H0.225ZM0.261 0.490H0.263V0.494H0.261ZM0.387 0.492H0.390Q0.390 0.496 0.387 0.496ZM0.430 0.492H0.434V0.494H0.430ZM0.681 0.492H0.684V0.494H0.681ZM0.185 0.494H0.189V0.496H0.185ZM0.280 0.494H0.282V0.497H0.280ZM0.319 0.494H0.323V0.496H0.319ZM0.590 0.494H0.592Q0.590 0.497 0.590 0.499H0.584Q0.584 0.497 0.590 0.494ZM0.240 0.496H0.241V0.505Q0.238 0.505 0.238 0.501Q0.240 0.498 0.240 0.496ZM0.247 0.496H0.250V0.505H0.249ZM0.261 0.496V0.497Q0.259 0.501 0.259 0.505H0.258V0.497ZM0.267 0.496H0.269L0.271 0.503L0.267 0.505ZM0.385 0.497 0.389 0.499Q0.398 0.497 0.399 0.497H0.401V0.499Q0.396 0.499 0.389 0.503V0.501Q0.370 0.516 0.361 0.516Q0.361 0.508 0.357 0.508Q0.366 0.501 0.385 0.497ZM0.597 0.497H0.601V0.499H0.597ZM0.214 0.499H0.218V0.503Q0.214 0.503 0.214 0.499ZM0.231 0.501H0.233L0.234 0.510L0.229 0.506Q0.231 0.503 0.231 0.501ZM0.605 0.501Q0.608 0.503 0.610 0.503V0.505H0.597V0.503Q0.601 0.503 0.605 0.501ZM0.276 0.503Q0.280 0.504 0.280 0.506L0.274 0.510V0.508Q0.276 0.505 0.276 0.503ZM0.207 0.505H0.211V0.506H0.207ZM0.406 0.505H0.410V0.506H0.406ZM0.481 0.505Q0.505 0.505 0.505 0.510Q0.497 0.511 0.497 0.516Q0.483 0.515 0.483 0.512Q0.455 0.512 0.432 0.536Q0.424 0.544 0.416 0.566L0.412 0.568Q0.418 0.537 0.441 0.519Q0.462 0.505 0.481 0.505ZM0.211 0.506H0.214V0.508H0.211ZM0.425 0.506Q0.428 0.508 0.432 0.508V0.510H0.423ZM0.214 0.508H0.218V0.510H0.214ZM0.605 0.508H0.606V0.514L0.603 0.512L0.590 0.514Q0.591 0.508 0.605 0.508ZM0.225 0.510 0.229 0.516H0.227Q0.223 0.514 0.222 0.514Q0.222 0.510 0.225 0.510ZM0.512 0.510V0.512Q0.512 0.515 0.506 0.518H0.503Q0.503 0.515 0.512 0.510ZM0.176 0.512H0.180Q0.194 0.516 0.201 0.516V0.518Q0.198 0.518 0.198 0.521L0.176 0.514ZM0.209 0.512H0.212V0.514H0.209ZM0.408 0.514 0.406 0.518Q0.408 0.521 0.408 0.525Q0.406 0.525 0.403 0.527L0.396 0.518ZM0.519 0.514Q0.523 0.515 0.523 0.518V0.519Q0.515 0.520 0.515 0.525Q0.512 0.523 0.510 0.523Q0.510 0.520 0.519 0.514ZM0.610 0.514H0.612Q0.614 0.514 0.619 0.523V0.529L0.612 0.530L0.613 0.527V0.521L0.610 0.516ZM0.583 0.516V0.519H0.579Q0.580 0.516 0.583 0.516ZM0.201 0.518H0.207V0.519H0.201ZM0.209 0.519H0.214V0.521H0.209ZM0.198 0.521H0.201V0.523H0.198ZM0.207 0.525H0.211V0.527H0.207ZM0.171 0.530Q0.192 0.531 0.192 0.536H0.191Q0.175 0.534 0.171 0.534ZM0.316 0.536V0.541H0.323Q0.332 0.541 0.334 0.536V0.534ZM0.559 0.538Q0.559 0.540 0.550 0.552V0.559L0.552 0.563Q0.550 0.563 0.550 0.565L0.554 0.566H0.555Q0.555 0.565 0.557 0.561H0.555L0.561 0.548H0.559Q0.563 0.542 0.563 0.538ZM0.357 0.539H0.361V0.541H0.357ZM0.365 0.541H0.370V0.543H0.365ZM0.376 0.543H0.383V0.545H0.376ZM0.703 0.545H0.704V0.548H0.703ZM0.359 0.548Q0.363 0.549 0.363 0.552L0.359 0.554H0.357Q0.359 0.550 0.359 0.548ZM0.338 0.554H0.348V0.557L0.340 0.559Q0.340 0.557 0.338 0.554ZM0.385 0.554V0.557H0.380V0.555Q0.381 0.555 0.385 0.554ZM0.205 0.555H0.209V0.557H0.205ZM0.212 0.559H0.216Q0.216 0.563 0.212 0.563ZM0.207 0.561H0.211V0.563H0.207ZM0.194 0.563Q0.198 0.565 0.199 0.565V0.566L0.182 0.572H0.180V0.570Q0.184 0.570 0.194 0.563ZM0.201 0.563H0.205V0.565H0.201ZM0.271 0.566H0.272Q0.272 0.572 0.276 0.572Q0.274 0.576 0.274 0.578H0.272L0.271 0.568ZM0.703 0.566H0.704V0.570H0.703ZM0.216 0.570H0.220V0.572H0.216ZM0.247 0.570V0.585H0.245Q0.245 0.578 0.241 0.578Q0.244 0.570 0.247 0.570ZM0.261 0.570Q0.264 0.570 0.267 0.578H0.263ZM0.252 0.574H0.256V0.579H0.252ZM0.203 0.576Q0.207 0.578 0.209 0.578V0.579Q0.205 0.579 0.196 0.587H0.194ZM0.234 0.576H0.236V0.579H0.234ZM0.220 0.578H0.222V0.581H0.220ZM0.233 0.581H0.234V0.585H0.233ZM0.256 0.581H0.258V0.587H0.256ZM0.274 0.581H0.276V0.585H0.274ZM0.250 0.583H0.252V0.587H0.250ZM0.214 0.587H0.216Q0.216 0.589 0.218 0.592Q0.217 0.592 0.207 0.603V0.601Q0.214 0.590 0.214 0.587ZM0.231 0.587H0.233V0.590H0.231ZM0.236 0.587H0.238V0.590H0.236ZM0.276 0.587H0.278V0.590H0.276ZM0.234 0.590H0.236V0.594H0.234ZM0.249 0.590H0.250V0.596H0.249ZM0.258 0.590H0.259V0.596H0.258ZM0.263 0.592H0.265V0.621H0.263Q0.263 0.612 0.259 0.599L0.263 0.601ZM0.229 0.594 0.233 0.596Q0.233 0.594 0.234 0.594V0.596Q0.227 0.609 0.227 0.612H0.225V0.608Q0.229 0.597 0.229 0.594ZM0.243 0.597H0.245V0.601L0.249 0.599Q0.245 0.614 0.245 0.621H0.243ZM0.223 0.612H0.225V0.615H0.223ZM0.316 0.623V0.625Q0.316 0.628 0.283 0.639V0.634Q0.284 0.634 0.316 0.623ZM0.316 0.634V0.639L0.283 0.650V0.645ZM0.316 0.645V0.648Q0.293 0.663 0.278 0.663Q0.278 0.656 0.316 0.645ZM0.274 0.648Q0.277 0.650 0.282 0.650V0.652H0.272ZM0.336 0.653Q0.336 0.657 0.340 0.657V0.659Q0.323 0.666 0.321 0.666L0.319 0.663Q0.323 0.663 0.336 0.653ZM0.310 0.657H0.314V0.659H0.310ZM0.249 0.659V0.663H0.245Q0.246 0.659 0.249 0.659ZM0.233 0.661H0.236Q0.240 0.662 0.240 0.664L0.236 0.666ZM0.301 0.661H0.305V0.663H0.301ZM0.298 0.663H0.301V0.664H0.298ZM0.316 0.663V0.670L0.310 0.677Q0.314 0.679 0.316 0.679V0.685Q0.296 0.690 0.283 0.690Q0.283 0.685 0.282 0.685Q0.282 0.675 0.310 0.666Q0.310 0.664 0.316 0.663ZM0.292 0.664H0.298V0.666H0.292ZM0.289 0.666H0.292V0.668H0.289ZM0.247 0.668Q0.247 0.672 0.254 0.672Q0.254 0.675 0.250 0.675Q0.247 0.674 0.243 0.674Q0.243 0.679 0.240 0.679Q0.240 0.674 0.238 0.674L0.231 0.677V0.675Q0.231 0.672 0.247 0.668ZM0.283 0.668H0.289V0.670H0.283ZM0.639 0.668V0.672Q0.627 0.694 0.617 0.697V0.695Q0.630 0.668 0.639 0.668ZM0.368 0.674Q0.368 0.681 0.372 0.681Q0.378 0.677 0.381 0.677V0.679L0.376 0.687Q0.376 0.690 0.381 0.690V0.694H0.380Q0.377 0.692 0.370 0.692Q0.370 0.699 0.367 0.699H0.365L0.367 0.690V0.688H0.357V0.685H0.367L0.365 0.675ZM0.321 0.681H0.325V0.683H0.321ZM0.323 0.688H0.329V0.690H0.323ZM0.256 0.690H0.259V0.692H0.256ZM0.318 0.690 0.316 0.694V0.723H0.283V0.695H0.285Q0.297 0.695 0.318 0.690ZM0.321 0.692H0.323V0.695H0.321ZM0.212 0.695H0.216V0.704H0.223V0.708H0.218Q0.218 0.713 0.222 0.719H0.216L0.214 0.711H0.212Q0.209 0.711 0.209 0.717H0.203L0.209 0.710L0.199 0.703L0.203 0.701Q0.206 0.703 0.212 0.703ZM0.254 0.697H0.259V0.699H0.254ZM0.265 0.697H0.271V0.699H0.265ZM0.261 0.699H0.263V0.704H0.261ZM0.343 0.701H0.345V0.704L0.350 0.701H0.352Q0.345 0.710 0.345 0.713H0.343Q0.343 0.708 0.338 0.708V0.706Q0.343 0.706 0.343 0.701ZM0.272 0.711H0.276V0.713H0.272ZM0.236 0.717H0.240V0.719H0.236ZM0.241 0.717Q0.245 0.719 0.249 0.719V0.721H0.240ZM0.392 0.717H0.394L0.392 0.721V0.726H0.399L0.403 0.724V0.730H0.394Q0.394 0.735 0.398 0.741H0.396L0.389 0.734H0.387Q0.387 0.735 0.383 0.741Q0.380 0.741 0.380 0.737Q0.380 0.734 0.385 0.734V0.728L0.378 0.726V0.723Q0.382 0.723 0.389 0.726Q0.389 0.717 0.392 0.717ZM0.259 0.728H0.263V0.730H0.259ZM0.283 0.728H0.316V0.734Q0.316 0.739 0.283 0.739V0.737Q0.283 0.735 0.285 0.735L0.283 0.732ZM0.352 0.732H0.354L0.363 0.734Q0.363 0.732 0.365 0.732V0.735Q0.359 0.735 0.352 0.741V0.739L0.356 0.734H0.352ZM0.214 0.745H0.216V0.746Q0.210 0.757 0.199 0.757H0.196V0.755Q0.201 0.755 0.214 0.745ZM0.258 0.746H0.261V0.750H0.258ZM0.241 0.750 0.243 0.753H0.241L0.231 0.752V0.750ZM0.236 0.753H0.238V0.759H0.236ZM0.334 0.755H0.336V0.759H0.334ZM0.211 0.757H0.214Q0.218 0.758 0.218 0.761V0.762H0.216Q0.213 0.762 0.211 0.757ZM0.517 0.761Q0.524 0.761 0.524 0.773Q0.521 0.775 0.519 0.775V0.773L0.521 0.770Q0.517 0.770 0.517 0.766ZM0.201 0.764H0.205V0.766H0.201ZM0.347 0.766H0.350V0.768H0.347ZM0.357 0.766H0.363V0.768H0.357ZM0.250 0.771H0.252V0.775H0.250ZM0.250 0.775Q0.250 0.779 0.258 0.779V0.781L0.245 0.783Q0.248 0.775 0.250 0.775ZM0.241 0.783H0.245V0.784H0.241ZM0.227 0.786H0.229L0.227 0.795V0.797H0.236V0.801H0.227V0.806L0.229 0.810L0.225 0.811L0.223 0.802H0.222L0.212 0.808L0.211 0.804Q0.215 0.801 0.218 0.801V0.799L0.212 0.792V0.790H0.214L0.220 0.794H0.223Q0.223 0.786 0.227 0.786ZM0.276 0.795H0.280V0.797H0.276ZM0.265 0.797H0.271V0.799H0.265ZM0.274 0.797H0.276V0.802L0.272 0.801V0.804H0.271V0.799ZM0.276 0.802H0.280V0.804H0.276ZM0.254 0.815H0.259V0.819H0.258Q0.254 0.819 0.254 0.815ZM0.269 0.820Q0.272 0.821 0.272 0.824Q0.270 0.824 0.265 0.828L0.263 0.824ZM0.321 0.822Q0.321 0.824 0.323 0.824Q0.319 0.830 0.319 0.835H0.329V0.839H0.327L0.318 0.837L0.319 0.846V0.848H0.316L0.314 0.839H0.312L0.307 0.843Q0.303 0.843 0.303 0.839L0.310 0.837V0.833Q0.310 0.830 0.305 0.830V0.828Q0.306 0.824 0.308 0.824Q0.308 0.827 0.314 0.830ZM0.247 0.824Q0.256 0.827 0.256 0.830H0.252Q0.249 0.828 0.247 0.828ZM0.256 0.830H0.258Q0.258 0.833 0.259 0.833Q0.257 0.841 0.254 0.841H0.252V0.839Q0.256 0.833 0.256 0.830Z" fill="black"/>
</svg>
