<svg xmlns="http://www.w3.org/2000/svg" viewBox="0 0 1 1" preserveAspectRatio="xMidYMid meet">
  <path d="M0.562 0.189H0.571Q0.571 0.193 0.572 0.193L0.571 0.196L0.572 0.207L0.587 0.200Q0.587 0.202 0.589 0.202V0.198H0.593Q0.593 0.203 0.596 0.207Q0.582 0.213 0.582 0.216Q0.647 0.205 0.722 0.205H0.729V0.238Q0.647 0.238 0.571 0.253Q0.571 0.250 0.560 0.241Q0.552 0.258 0.518 0.265Q0.500 0.271 0.476 0.280L0.482 0.272V0.271L0.462 0.249Q0.464 0.249 0.496 0.236Q0.496 0.239 0.507 0.247Q0.530 0.221 0.553 0.221L0.560 0.220Q0.560 0.216 0.556 0.216Q0.556 0.218 0.555 0.218Q0.555 0.216 0.553 0.216V0.218Q0.547 0.214 0.542 0.214L0.544 0.205H0.546Q0.547 0.205 0.547 0.207L0.551 0.205H0.553L0.558 0.209V0.207L0.562 0.209H0.564V0.198L0.562 0.194H0.564L0.562 0.191ZM0.513 0.225Q0.513 0.230 0.516 0.230Q0.516 0.233 0.505 0.241L0.500 0.234Q0.505 0.234 0.513 0.225ZM0.560 0.249Q0.564 0.249 0.564 0.253V0.254L0.553 0.256Q0.553 0.253 0.560 0.249ZM0.458 0.253 0.476 0.272Q0.456 0.292 0.449 0.292L0.431 0.272V0.271Q0.445 0.253 0.458 0.253ZM0.424 0.269H0.426L0.424 0.272Q0.426 0.272 0.445 0.294Q0.422 0.313 0.416 0.313Q0.416 0.310 0.400 0.296Q0.398 0.296 0.371 0.325L0.385 0.341L0.364 0.367Q0.364 0.364 0.345 0.349Q0.345 0.351 0.333 0.361V0.360Q0.361 0.307 0.424 0.269ZM0.484 0.298H0.486V0.307Q0.488 0.309 0.493 0.309V0.311H0.486Q0.486 0.309 0.484 0.309Q0.484 0.320 0.480 0.320Q0.480 0.311 0.476 0.311V0.303L0.480 0.305H0.482ZM0.449 0.300H0.453V0.301H0.449ZM0.527 0.300Q0.531 0.301 0.533 0.301Q0.527 0.309 0.527 0.313L0.531 0.314H0.540V0.316Q0.540 0.320 0.536 0.320H0.533Q0.530 0.320 0.522 0.309Q0.525 0.300 0.527 0.300ZM0.595 0.300Q0.595 0.303 0.600 0.303Q0.593 0.308 0.593 0.311H0.589Q0.591 0.300 0.595 0.300ZM0.400 0.301 0.413 0.316Q0.413 0.318 0.391 0.336H0.389Q0.386 0.336 0.377 0.323ZM0.454 0.301 0.456 0.305H0.451Q0.452 0.301 0.454 0.301ZM0.571 0.303Q0.580 0.314 0.582 0.314Q0.576 0.321 0.576 0.323H0.574V0.318L0.571 0.320Q0.571 0.316 0.564 0.309V0.307Q0.566 0.307 0.571 0.303ZM0.475 0.309 0.476 0.313H0.471Q0.472 0.309 0.475 0.309ZM0.514 0.311Q0.527 0.319 0.527 0.329L0.524 0.331H0.522L0.520 0.318L0.507 0.325L0.505 0.322V0.320Q0.514 0.320 0.514 0.311ZM0.596 0.322 0.607 0.325Q0.607 0.323 0.609 0.323Q0.609 0.325 0.611 0.325Q0.611 0.323 0.613 0.323V0.336L0.609 0.334V0.336L0.602 0.332Q0.602 0.334 0.600 0.334Q0.600 0.332 0.598 0.332Q0.598 0.334 0.596 0.334V0.332Q0.593 0.334 0.591 0.334Q0.591 0.337 0.595 0.350Q0.590 0.350 0.587 0.352Q0.583 0.340 0.582 0.340Q0.584 0.332 0.596 0.322ZM0.442 0.325H0.445V0.327H0.442ZM0.567 0.329Q0.567 0.331 0.569 0.331L0.567 0.341L0.564 0.340Q0.564 0.341 0.562 0.341Q0.562 0.337 0.558 0.332Q0.561 0.332 0.567 0.329ZM0.460 0.334H0.464Q0.464 0.341 0.467 0.341H0.469V0.347Q0.464 0.347 0.464 0.352H0.460L0.462 0.349V0.345Q0.462 0.343 0.460 0.343L0.462 0.340Q0.460 0.336 0.460 0.334ZM0.424 0.338V0.340Q0.424 0.343 0.420 0.343V0.341Q0.421 0.338 0.424 0.338ZM0.469 0.347H0.471V0.350H0.469ZM0.236 0.349Q0.240 0.350 0.242 0.350L0.240 0.354V0.356L0.249 0.367V0.369Q0.248 0.373 0.235 0.380Q0.223 0.380 0.220 0.363Q0.220 0.352 0.236 0.349ZM0.489 0.354H0.496L0.498 0.365H0.500L0.509 0.360L0.511 0.363Q0.504 0.366 0.504 0.369V0.374Q0.512 0.378 0.513 0.378Q0.513 0.380 0.507 0.383Q0.507 0.378 0.496 0.378Q0.495 0.381 0.495 0.385H0.487Q0.487 0.380 0.493 0.380Q0.493 0.378 0.491 0.378L0.493 0.374V0.373Q0.488 0.373 0.486 0.371Q0.486 0.373 0.484 0.373Q0.484 0.371 0.482 0.371Q0.482 0.373 0.480 0.373V0.367H0.489Q0.493 0.367 0.493 0.363Q0.489 0.357 0.489 0.354ZM0.345 0.356Q0.348 0.356 0.362 0.373Q0.351 0.384 0.347 0.399H0.345Q0.343 0.399 0.324 0.378Q0.324 0.375 0.345 0.356ZM0.436 0.356V0.360Q0.435 0.371 0.431 0.371L0.429 0.367Q0.433 0.356 0.436 0.356ZM0.426 0.360 0.428 0.363 0.424 0.365 0.422 0.361ZM0.387 0.361H0.389V0.365H0.387ZM0.400 0.365V0.369Q0.394 0.369 0.394 0.382H0.391Q0.391 0.374 0.389 0.374Q0.392 0.365 0.400 0.365ZM0.384 0.373H0.387V0.374H0.384ZM0.435 0.373Q0.438 0.373 0.438 0.376L0.435 0.378ZM0.400 0.374H0.404V0.378Q0.400 0.378 0.400 0.374ZM0.318 0.382Q0.343 0.403 0.343 0.409L0.342 0.412V0.414H0.343Q0.343 0.405 0.356 0.405Q0.366 0.405 0.371 0.414Q0.369 0.414 0.369 0.416H0.371L0.382 0.409Q0.378 0.403 0.378 0.399L0.382 0.398Q0.387 0.405 0.387 0.409H0.389L0.394 0.399H0.398Q0.402 0.400 0.402 0.403Q0.399 0.403 0.375 0.427V0.423L0.378 0.416H0.375Q0.371 0.416 0.366 0.429Q0.358 0.433 0.358 0.434Q0.342 0.434 0.342 0.416H0.340Q0.340 0.421 0.333 0.451Q0.338 0.451 0.338 0.465L0.333 0.469V0.461H0.331Q0.331 0.477 0.317 0.485V0.487Q0.317 0.489 0.345 0.516Q0.354 0.507 0.373 0.507V0.502L0.369 0.503V0.494L0.377 0.485Q0.374 0.485 0.366 0.474Q0.369 0.474 0.369 0.469Q0.366 0.463 0.366 0.458H0.364V0.461H0.362V0.456Q0.362 0.453 0.371 0.451Q0.378 0.465 0.378 0.467L0.393 0.456L0.398 0.463Q0.389 0.470 0.389 0.476Q0.399 0.483 0.404 0.483Q0.401 0.491 0.398 0.491L0.400 0.500L0.398 0.507Q0.424 0.512 0.424 0.516Q0.411 0.512 0.402 0.512V0.514Q0.414 0.551 0.422 0.551Q0.426 0.558 0.428 0.558Q0.426 0.563 0.424 0.563L0.416 0.560V0.567H0.420L0.424 0.565V0.567Q0.435 0.565 0.435 0.563L0.438 0.565Q0.440 0.565 0.440 0.563Q0.443 0.565 0.445 0.565Q0.447 0.565 0.451 0.563L0.458 0.565Q0.480 0.560 0.489 0.560H0.491V0.561Q0.491 0.564 0.465 0.570Q0.465 0.569 0.464 0.569Q0.464 0.570 0.462 0.570V0.569Q0.444 0.578 0.433 0.578Q0.456 0.594 0.458 0.603Q0.464 0.603 0.464 0.607V0.611H0.460L0.453 0.605Q0.447 0.616 0.447 0.620H0.449Q0.447 0.623 0.447 0.625H0.444V0.621H0.438Q0.438 0.626 0.420 0.632V0.636Q0.420 0.645 0.416 0.658H0.424Q0.424 0.662 0.411 0.665Q0.411 0.670 0.407 0.674Q0.415 0.676 0.415 0.683H0.413L0.405 0.681L0.407 0.678L0.404 0.676Q0.404 0.678 0.402 0.678V0.676L0.398 0.678Q0.396 0.678 0.373 0.662V0.663Q0.412 0.726 0.544 0.763Q0.548 0.774 0.551 0.774Q0.555 0.768 0.555 0.765Q0.569 0.769 0.576 0.769Q0.572 0.784 0.572 0.794H0.571Q0.571 0.789 0.564 0.785H0.562Q0.558 0.785 0.558 0.789V0.800Q0.498 0.794 0.407 0.740Q0.407 0.738 0.380 0.718V0.723H0.375Q0.375 0.708 0.355 0.690L0.343 0.683Q0.343 0.672 0.329 0.656H0.325L0.322 0.658V0.656Q0.320 0.656 0.320 0.658L0.311 0.656H0.300V0.658L0.313 0.676H0.311Q0.291 0.651 0.285 0.651V0.647H0.291Q0.283 0.626 0.280 0.611Q0.282 0.611 0.282 0.609L0.278 0.607V0.609L0.274 0.607Q0.271 0.609 0.267 0.609V0.607L0.264 0.609H0.260Q0.258 0.609 0.258 0.607L0.242 0.613V0.611L0.231 0.614V0.613L0.227 0.614H0.220V0.609Q0.260 0.604 0.266 0.598Q0.266 0.600 0.267 0.600V0.596Q0.254 0.576 0.246 0.576V0.574L0.247 0.570Q0.256 0.571 0.262 0.581H0.264Q0.264 0.576 0.260 0.567H0.264Q0.264 0.569 0.274 0.589H0.278V0.576Q0.278 0.574 0.276 0.574Q0.278 0.573 0.278 0.558Q0.284 0.558 0.285 0.585Q0.283 0.585 0.283 0.587Q0.290 0.590 0.298 0.590Q0.306 0.588 0.306 0.585Q0.298 0.571 0.296 0.569V0.567L0.322 0.540Q0.300 0.516 0.298 0.516Q0.298 0.497 0.300 0.458Q0.298 0.458 0.298 0.456Q0.301 0.456 0.322 0.433L0.296 0.405V0.403L0.304 0.401L0.313 0.403Q0.318 0.391 0.318 0.387Q0.315 0.387 0.315 0.383ZM0.540 0.383Q0.544 0.385 0.546 0.385Q0.546 0.387 0.544 0.387L0.547 0.394Q0.546 0.394 0.546 0.396Q0.549 0.396 0.549 0.401Q0.551 0.401 0.567 0.392L0.571 0.399Q0.558 0.408 0.558 0.410V0.414Q0.560 0.414 0.571 0.423Q0.567 0.429 0.567 0.433H0.564V0.429L0.560 0.431Q0.560 0.424 0.549 0.420Q0.544 0.428 0.544 0.436Q0.535 0.436 0.533 0.429Q0.536 0.429 0.540 0.414H0.538L0.535 0.416Q0.535 0.414 0.533 0.414V0.416L0.522 0.412Q0.522 0.414 0.520 0.414V0.403L0.524 0.405H0.536Q0.540 0.405 0.540 0.401Q0.535 0.391 0.535 0.387Q0.540 0.385 0.540 0.383ZM0.449 0.389 0.453 0.391Q0.453 0.389 0.454 0.389V0.391L0.453 0.399L0.447 0.396Q0.449 0.393 0.449 0.389ZM0.433 0.394Q0.454 0.402 0.454 0.420Q0.456 0.420 0.456 0.422L0.453 0.423Q0.447 0.415 0.447 0.410L0.436 0.418L0.435 0.414V0.412Q0.436 0.412 0.442 0.409V0.405Q0.442 0.401 0.433 0.399ZM0.462 0.401 0.464 0.405V0.407H0.456Q0.456 0.404 0.462 0.401ZM0.216 0.403H0.222Q0.224 0.403 0.231 0.412H0.229L0.231 0.416L0.229 0.420H0.231Q0.226 0.431 0.216 0.431H0.213Q0.210 0.431 0.202 0.418Q0.202 0.403 0.216 0.403ZM0.293 0.410Q0.295 0.410 0.315 0.433Q0.315 0.435 0.304 0.443Q0.304 0.442 0.302 0.442Q0.302 0.451 0.296 0.451H0.295L0.291 0.449V0.452H0.289Q0.286 0.452 0.280 0.442Q0.274 0.442 0.269 0.433Q0.269 0.430 0.283 0.418Q0.285 0.422 0.285 0.423H0.287Q0.287 0.411 0.293 0.410ZM0.278 0.414Q0.278 0.416 0.262 0.434Q0.264 0.434 0.271 0.443H0.269Q0.266 0.443 0.258 0.433Q0.258 0.414 0.278 0.414ZM0.396 0.414Q0.400 0.416 0.404 0.416Q0.404 0.442 0.387 0.442H0.384Q0.384 0.440 0.377 0.433ZM0.298 0.429V0.433H0.300Q0.304 0.433 0.304 0.429H0.302Q0.302 0.431 0.300 0.431Q0.300 0.429 0.298 0.429ZM0.475 0.438 0.482 0.442Q0.482 0.440 0.484 0.440V0.442Q0.478 0.454 0.478 0.461L0.482 0.459Q0.482 0.461 0.484 0.461Q0.484 0.459 0.486 0.459V0.461L0.489 0.459H0.491L0.495 0.461Q0.495 0.459 0.496 0.459Q0.496 0.461 0.498 0.461L0.496 0.465L0.498 0.469Q0.480 0.469 0.480 0.470L0.486 0.489Q0.480 0.491 0.480 0.493Q0.475 0.493 0.469 0.474H0.465Q0.465 0.481 0.451 0.483L0.447 0.478Q0.462 0.470 0.462 0.467L0.445 0.452Q0.451 0.452 0.451 0.447L0.465 0.456H0.469L0.467 0.452Q0.470 0.452 0.475 0.438ZM0.280 0.451 0.285 0.458V0.463Q0.294 0.463 0.295 0.480L0.283 0.491L0.280 0.489Q0.278 0.489 0.278 0.491Q0.268 0.487 0.266 0.480H0.267L0.266 0.476V0.472Q0.271 0.463 0.274 0.463V0.461L0.271 0.456ZM0.618 0.452H0.623Q0.623 0.456 0.620 0.456ZM0.613 0.456Q0.616 0.458 0.620 0.458V0.461Q0.617 0.459 0.613 0.459ZM0.345 0.470 0.349 0.472Q0.349 0.470 0.351 0.470Q0.351 0.472 0.353 0.472Q0.353 0.470 0.355 0.470Q0.366 0.482 0.366 0.483V0.489Q0.356 0.502 0.347 0.502V0.509H0.345Q0.334 0.502 0.334 0.496L0.336 0.487L0.329 0.493Q0.327 0.493 0.324 0.487Q0.324 0.484 0.338 0.472Q0.342 0.474 0.345 0.474ZM0.698 0.472Q0.702 0.473 0.702 0.476V0.480L0.698 0.478V0.482H0.696L0.694 0.474ZM0.625 0.474H0.627Q0.627 0.482 0.634 0.482V0.485H0.631V0.489H0.638V0.483L0.636 0.480H0.640Q0.640 0.485 0.649 0.485H0.657Q0.657 0.476 0.660 0.476Q0.660 0.482 0.666 0.482L0.664 0.485V0.487Q0.673 0.487 0.673 0.494Q0.676 0.494 0.676 0.493L0.689 0.494H0.729Q0.738 0.494 0.756 0.496V0.498Q0.745 0.498 0.745 0.503V0.510Q0.745 0.516 0.765 0.516Q0.779 0.516 0.787 0.494H0.789V0.503H0.793L0.798 0.500V0.502Q0.791 0.525 0.775 0.525Q0.745 0.530 0.745 0.532V0.540Q0.745 0.544 0.749 0.551Q0.745 0.551 0.745 0.554V0.578Q0.751 0.578 0.751 0.585Q0.747 0.585 0.745 0.594Q0.749 0.603 0.751 0.603Q0.745 0.618 0.731 0.618Q0.719 0.613 0.715 0.613V0.600L0.702 0.602H0.696Q0.696 0.607 0.694 0.607Q0.689 0.607 0.689 0.602H0.687L0.678 0.603Q0.701 0.575 0.734 0.567V0.565Q0.734 0.562 0.727 0.558H0.720Q0.709 0.567 0.705 0.567V0.565Q0.705 0.554 0.693 0.554Q0.693 0.556 0.691 0.560L0.694 0.561Q0.687 0.576 0.683 0.576Q0.658 0.595 0.658 0.598L0.651 0.589H0.638Q0.638 0.583 0.634 0.583H0.631L0.627 0.585Q0.627 0.583 0.618 0.576Q0.618 0.574 0.609 0.563Q0.606 0.565 0.604 0.565Q0.606 0.563 0.606 0.556Q0.600 0.556 0.596 0.549H0.595V0.547H0.602V0.545L0.600 0.542Q0.606 0.542 0.613 0.540Q0.611 0.534 0.602 0.534Q0.604 0.530 0.604 0.529L0.607 0.530L0.609 0.527L0.606 0.525H0.525V0.494H0.600V0.493L0.595 0.485Q0.602 0.485 0.602 0.482H0.604Q0.604 0.487 0.607 0.487Q0.608 0.483 0.611 0.483V0.487L0.607 0.493V0.494H0.611Q0.616 0.494 0.616 0.487H0.618Q0.618 0.491 0.623 0.491L0.622 0.494H0.633L0.620 0.480Q0.625 0.480 0.625 0.474ZM0.683 0.480H0.685V0.483H0.683ZM0.796 0.482V0.483Q0.796 0.487 0.793 0.487V0.485Q0.793 0.482 0.796 0.482ZM0.244 0.487H0.246V0.491H0.244ZM0.367 0.512 0.366 0.516 0.398 0.534H0.400V0.532L0.398 0.529H0.400Q0.393 0.514 0.393 0.512L0.389 0.514Q0.379 0.512 0.375 0.512Q0.371 0.514 0.369 0.514Q0.369 0.512 0.367 0.512ZM0.329 0.521V0.532Q0.329 0.542 0.338 0.543V0.534Q0.338 0.525 0.333 0.525L0.334 0.521ZM0.433 0.519Q0.436 0.520 0.436 0.523H0.433ZM0.298 0.523Q0.301 0.523 0.315 0.540Q0.315 0.542 0.293 0.561H0.291L0.289 0.553Q0.290 0.547 0.296 0.545L0.298 0.549Q0.296 0.549 0.296 0.551L0.300 0.553V0.545Q0.295 0.545 0.295 0.542L0.298 0.536V0.532Q0.292 0.538 0.285 0.538V0.547Q0.285 0.549 0.283 0.549L0.285 0.553V0.556Q0.280 0.556 0.280 0.545H0.278L0.274 0.547V0.542Q0.279 0.542 0.289 0.525V0.530L0.293 0.529Q0.293 0.530 0.295 0.530Q0.298 0.526 0.298 0.523ZM0.696 0.529V0.530H0.707V0.529Q0.707 0.525 0.704 0.525H0.700Q0.696 0.526 0.696 0.529ZM0.420 0.525Q0.424 0.527 0.426 0.527V0.532Q0.426 0.536 0.422 0.536H0.420Q0.417 0.536 0.415 0.529ZM0.371 0.530V0.534Q0.373 0.534 0.391 0.553Q0.394 0.553 0.405 0.563V0.560Q0.405 0.546 0.394 0.543Q0.373 0.530 0.371 0.530ZM0.578 0.532H0.580Q0.584 0.532 0.593 0.538H0.595V0.540Q0.585 0.540 0.585 0.543V0.545H0.584Q0.584 0.542 0.582 0.542Q0.578 0.543 0.576 0.543L0.580 0.538Q0.578 0.534 0.578 0.532ZM0.604 0.536H0.607V0.538H0.604ZM0.700 0.538Q0.700 0.542 0.698 0.542L0.700 0.545Q0.698 0.549 0.698 0.551Q0.710 0.556 0.715 0.556V0.547L0.702 0.543V0.542H0.705V0.538ZM0.355 0.540V0.545Q0.355 0.547 0.367 0.553H0.369V0.551Q0.369 0.549 0.356 0.540ZM0.549 0.538H0.553Q0.553 0.542 0.560 0.542Q0.560 0.545 0.555 0.545L0.556 0.554Q0.545 0.548 0.542 0.542Q0.549 0.542 0.549 0.538ZM0.546 0.551H0.547V0.554H0.546ZM0.331 0.554Q0.333 0.560 0.336 0.581L0.340 0.579Q0.340 0.581 0.342 0.581L0.343 0.578Q0.343 0.554 0.333 0.554ZM0.598 0.556H0.600Q0.598 0.559 0.598 0.561Q0.595 0.561 0.595 0.558ZM0.707 0.558V0.561H0.711V0.558ZM0.591 0.560H0.595Q0.595 0.567 0.602 0.567L0.600 0.570L0.596 0.569H0.591V0.574H0.589Q0.589 0.568 0.584 0.563Q0.586 0.563 0.591 0.560ZM0.756 0.560H0.764V0.561H0.756ZM0.358 0.563V0.567L0.360 0.576H0.364L0.367 0.574V0.576Q0.380 0.574 0.380 0.570Q0.359 0.563 0.358 0.563ZM0.720 0.563H0.726V0.565H0.720ZM0.753 0.563H0.754Q0.754 0.569 0.758 0.569V0.572H0.756Q0.753 0.572 0.753 0.567ZM0.771 0.572Q0.771 0.580 0.773 0.583Q0.765 0.589 0.762 0.589V0.587Q0.769 0.572 0.771 0.572ZM0.694 0.578H0.696Q0.696 0.581 0.693 0.581H0.691Q0.692 0.578 0.694 0.578ZM0.576 0.581H0.578Q0.578 0.587 0.585 0.587L0.582 0.592L0.584 0.596Q0.578 0.596 0.574 0.598Q0.574 0.593 0.571 0.589Q0.576 0.589 0.576 0.581ZM0.600 0.581H0.602V0.585H0.600ZM0.378 0.589 0.382 0.594V0.602L0.373 0.603L0.371 0.600V0.590L0.362 0.592V0.594L0.364 0.598H0.362Q0.363 0.605 0.366 0.605Q0.366 0.607 0.364 0.607Q0.366 0.630 0.375 0.630L0.389 0.634L0.407 0.627Q0.407 0.629 0.409 0.629L0.411 0.625V0.621H0.405Q0.392 0.621 0.391 0.611Q0.392 0.596 0.405 0.596V0.594Q0.401 0.585 0.398 0.585Q0.379 0.589 0.378 0.589ZM0.625 0.587H0.627V0.592H0.625ZM0.678 0.587H0.682V0.589H0.678ZM0.678 0.589Q0.678 0.590 0.680 0.594Q0.678 0.594 0.671 0.603L0.673 0.607Q0.673 0.611 0.671 0.614Q0.673 0.617 0.673 0.621Q0.669 0.621 0.669 0.618V0.607H0.667Q0.662 0.607 0.653 0.629H0.651V0.625Q0.651 0.608 0.678 0.589ZM0.342 0.594Q0.342 0.596 0.340 0.596Q0.345 0.616 0.349 0.616H0.351Q0.349 0.594 0.342 0.594ZM0.435 0.594V0.596Q0.444 0.609 0.445 0.609Q0.449 0.607 0.451 0.607V0.603Q0.451 0.599 0.435 0.594ZM0.649 0.598H0.653V0.600H0.649ZM0.758 0.598H0.762Q0.773 0.602 0.773 0.605Q0.771 0.609 0.771 0.611H0.767Q0.765 0.600 0.758 0.600ZM0.424 0.602Q0.431 0.616 0.433 0.616L0.436 0.614Q0.433 0.606 0.426 0.602ZM0.683 0.614Q0.687 0.614 0.687 0.618V0.620Q0.683 0.620 0.683 0.616ZM0.375 0.616H0.380V0.623Q0.377 0.625 0.373 0.625H0.371V0.620Q0.371 0.616 0.375 0.616ZM0.754 0.616H0.758V0.618H0.754ZM0.767 0.616H0.769V0.621H0.767ZM0.289 0.620Q0.289 0.622 0.295 0.638H0.293Q0.297 0.649 0.300 0.649H0.304Q0.306 0.649 0.306 0.647L0.309 0.649H0.313L0.317 0.647Q0.317 0.649 0.318 0.649L0.320 0.645Q0.316 0.645 0.293 0.621V0.620ZM0.306 0.620Q0.306 0.622 0.317 0.630H0.318Q0.315 0.620 0.306 0.620ZM0.715 0.618Q0.731 0.623 0.734 0.623Q0.742 0.620 0.745 0.620V0.629Q0.745 0.634 0.749 0.639Q0.746 0.639 0.743 0.649Q0.734 0.643 0.729 0.643Q0.705 0.652 0.704 0.652V0.651Q0.715 0.638 0.715 0.632ZM0.753 0.618H0.754V0.623H0.753ZM0.636 0.620H0.638V0.623H0.636ZM0.705 0.620H0.707Q0.711 0.620 0.713 0.629L0.707 0.632H0.700V0.630H0.705ZM0.687 0.621V0.625H0.683Q0.684 0.621 0.687 0.621ZM0.756 0.625H0.764V0.627H0.756ZM0.649 0.630H0.651V0.634H0.649ZM0.693 0.639H0.696V0.641H0.693ZM0.393 0.647Q0.393 0.649 0.405 0.654H0.409V0.651L0.407 0.647L0.404 0.649H0.402ZM0.627 0.647H0.629V0.651H0.627ZM0.596 0.649H0.598Q0.598 0.662 0.607 0.663L0.615 0.660V0.662Q0.606 0.678 0.606 0.681Q0.593 0.678 0.593 0.672Q0.593 0.667 0.596 0.649ZM0.731 0.649Q0.737 0.652 0.742 0.652Q0.742 0.657 0.707 0.662V0.660Q0.707 0.655 0.731 0.649ZM0.625 0.651H0.627V0.654H0.625ZM0.623 0.654H0.625V0.658Q0.614 0.686 0.606 0.692H0.604Q0.593 0.692 0.593 0.681Q0.602 0.687 0.607 0.687Q0.623 0.657 0.623 0.654ZM0.389 0.658V0.660Q0.389 0.663 0.402 0.672H0.405Q0.405 0.666 0.407 0.663Q0.404 0.663 0.389 0.658ZM0.745 0.660V0.676L0.749 0.681H0.745V0.705H0.747V0.699H0.749Q0.749 0.703 0.756 0.703V0.705Q0.745 0.706 0.745 0.711V0.729Q0.745 0.731 0.747 0.731L0.745 0.734V0.782L0.747 0.785H0.745Q0.742 0.783 0.740 0.783Q0.731 0.801 0.731 0.807L0.734 0.808L0.745 0.807V0.814Q0.734 0.814 0.734 0.816L0.717 0.814H0.704Q0.686 0.814 0.660 0.812Q0.657 0.814 0.653 0.814Q0.650 0.812 0.644 0.812L0.645 0.816H0.644Q0.641 0.814 0.634 0.814Q0.629 0.816 0.629 0.819H0.620Q0.620 0.817 0.631 0.810H0.694Q0.697 0.810 0.709 0.782H0.715V0.774Q0.715 0.772 0.713 0.772L0.715 0.769V0.765L0.711 0.767V0.763L0.702 0.765V0.759Q0.706 0.759 0.707 0.750Q0.715 0.750 0.715 0.738Q0.720 0.741 0.726 0.741Q0.729 0.737 0.743 0.705L0.740 0.703Q0.732 0.708 0.717 0.720H0.715Q0.715 0.711 0.713 0.711L0.715 0.707V0.678H0.713L0.709 0.680Q0.709 0.678 0.707 0.674Q0.709 0.674 0.709 0.672L0.713 0.674H0.715Q0.715 0.665 0.724 0.665ZM0.698 0.662H0.700V0.665H0.698ZM0.673 0.663H0.675V0.667H0.673ZM0.754 0.663H0.758V0.665H0.754ZM0.777 0.680H0.778V0.683Q0.776 0.683 0.773 0.685V0.683Q0.773 0.680 0.777 0.680ZM0.320 0.683H0.324V0.685H0.320ZM0.705 0.683H0.707V0.689Q0.707 0.698 0.704 0.698Q0.707 0.706 0.711 0.707Q0.708 0.718 0.704 0.718Q0.704 0.711 0.689 0.711Q0.691 0.707 0.691 0.705L0.694 0.707Q0.701 0.707 0.705 0.683ZM0.749 0.687Q0.753 0.690 0.762 0.690V0.694L0.749 0.698V0.694Q0.749 0.692 0.751 0.692L0.749 0.689ZM0.764 0.689H0.767Q0.767 0.692 0.771 0.692V0.694H0.765Q0.765 0.692 0.764 0.689ZM0.764 0.705H0.765Q0.768 0.705 0.773 0.712L0.769 0.714Q0.769 0.711 0.764 0.705ZM0.651 0.707H0.655V0.709H0.651ZM0.655 0.709H0.658Q0.660 0.709 0.671 0.720L0.682 0.714L0.683 0.718V0.720L0.675 0.722Q0.678 0.735 0.678 0.740H0.676L0.678 0.743V0.745L0.675 0.743Q0.672 0.756 0.667 0.756L0.669 0.743V0.738Q0.669 0.723 0.655 0.709ZM0.673 0.709H0.678Q0.678 0.712 0.675 0.712ZM0.784 0.709H0.787V0.711H0.784ZM0.638 0.712Q0.655 0.718 0.655 0.722L0.642 0.720H0.640Q0.634 0.720 0.625 0.725V0.722Q0.625 0.715 0.638 0.712ZM0.733 0.714V0.716Q0.724 0.733 0.724 0.736Q0.713 0.732 0.713 0.729ZM0.777 0.718H0.778V0.722H0.777ZM0.683 0.720H0.685V0.723H0.683ZM0.778 0.723H0.780V0.729H0.778ZM0.698 0.725H0.700Q0.700 0.729 0.702 0.732Q0.698 0.743 0.687 0.743Q0.687 0.756 0.683 0.756Q0.683 0.754 0.682 0.754L0.683 0.750L0.682 0.747H0.685V0.743L0.683 0.734L0.691 0.729V0.734H0.687V0.740H0.693Q0.698 0.740 0.698 0.725ZM0.640 0.727H0.653Q0.655 0.732 0.657 0.732Q0.653 0.756 0.649 0.756H0.647Q0.651 0.752 0.653 0.732Q0.648 0.729 0.640 0.729ZM0.754 0.727H0.756V0.731H0.754ZM0.622 0.729H0.623V0.731Q0.618 0.740 0.618 0.743H0.616V0.734Q0.616 0.732 0.622 0.729ZM0.623 0.743H0.625Q0.625 0.749 0.627 0.752L0.623 0.754Q0.622 0.751 0.622 0.749Q0.623 0.745 0.623 0.743ZM0.702 0.743H0.709Q0.709 0.747 0.705 0.747Q0.702 0.747 0.702 0.743ZM0.747 0.743H0.751Q0.751 0.747 0.747 0.747ZM0.660 0.749H0.662V0.750Q0.662 0.771 0.631 0.771Q0.623 0.768 0.623 0.765L0.633 0.767H0.636Q0.653 0.761 0.657 0.758Q0.660 0.752 0.660 0.749ZM0.760 0.749H0.764V0.750H0.760ZM0.696 0.752H0.698V0.756H0.696ZM0.609 0.756Q0.613 0.757 0.613 0.759V0.765Q0.609 0.765 0.609 0.761ZM0.713 0.758V0.763H0.715V0.758ZM0.749 0.758H0.753V0.759H0.749ZM0.680 0.759H0.682Q0.682 0.770 0.669 0.778V0.767ZM0.751 0.761H0.754V0.765Q0.751 0.765 0.751 0.761ZM0.615 0.769Q0.622 0.778 0.642 0.778V0.780Q0.635 0.780 0.606 0.808Q0.596 0.806 0.596 0.796V0.794Q0.598 0.776 0.618 0.776V0.774H0.615ZM0.582 0.771 0.593 0.772Q0.587 0.795 0.587 0.805H0.585L0.576 0.803ZM0.702 0.771Q0.705 0.771 0.705 0.774V0.776Q0.693 0.801 0.693 0.805H0.618Q0.625 0.795 0.638 0.787Q0.646 0.794 0.653 0.794Q0.669 0.791 0.669 0.782H0.698Q0.698 0.771 0.702 0.771ZM0.747 0.771H0.749V0.783H0.747ZM0.600 0.774H0.602Q0.602 0.777 0.596 0.780V0.778Q0.597 0.774 0.600 0.774ZM0.647 0.778Q0.657 0.780 0.662 0.780Q0.662 0.778 0.664 0.778V0.782Q0.664 0.784 0.657 0.789H0.655Q0.645 0.789 0.642 0.780Q0.644 0.780 0.647 0.778ZM0.742 0.791H0.745V0.801H0.738V0.800Q0.742 0.794 0.742 0.791ZM0.564 0.792Q0.566 0.792 0.572 0.803H0.571Q0.568 0.801 0.564 0.801ZM0.683 0.816H0.685Q0.685 0.818 0.675 0.831Q0.671 0.829 0.669 0.829Q0.662 0.831 0.662 0.834L0.653 0.832H0.649Q0.647 0.832 0.647 0.834Q0.633 0.827 0.629 0.827V0.819H0.636V0.821Q0.634 0.825 0.634 0.827L0.644 0.821H0.645L0.644 0.825V0.827H0.645L0.657 0.819H0.658V0.821L0.655 0.829Q0.657 0.829 0.669 0.818H0.673L0.671 0.821V0.823H0.675ZM0.689 0.836V0.838Q0.686 0.848 0.678 0.856V0.854Q0.685 0.836 0.689 0.836ZM0.676 0.856H0.678V0.859H0.676ZM0.666 0.867H0.669V0.868Q0.669 0.872 0.666 0.872Z" fill="black"/>
</svg>
