<svg xmlns="http://www.w3.org/2000/svg" viewBox="0 0 1 1" preserveAspectRatio="xMidYMid meet">
  <path d="M0.855 0.180H0.857V0.196H0.855ZM0.613 0.193H0.620V0.200H0.613ZM0.636 0.193H0.644V0.200H0.635Q0.636 0.197 0.636 0.193ZM0.288 0.204H0.322V0.249Q0.324 0.249 0.324 0.247Q0.333 0.249 0.333 0.253V0.258Q0.330 0.265 0.322 0.265V0.292Q0.327 0.292 0.327 0.301L0.322 0.308V0.310Q0.329 0.311 0.329 0.315V0.321Q0.329 0.326 0.322 0.326V0.341Q0.325 0.345 0.325 0.348H0.329Q0.330 0.341 0.335 0.341H0.340Q0.344 0.341 0.345 0.350Q0.345 0.354 0.327 0.362L0.322 0.359V0.366Q0.327 0.371 0.327 0.377H0.329Q0.338 0.373 0.338 0.372Q0.341 0.373 0.345 0.373V0.384Q0.345 0.388 0.324 0.391Q0.324 0.390 0.322 0.390V0.397H0.320Q0.312 0.372 0.295 0.372Q0.288 0.369 0.288 0.366V0.315L0.284 0.310V0.306L0.286 0.303H0.284L0.275 0.305Q0.271 0.303 0.269 0.303V0.294Q0.269 0.291 0.275 0.289L0.288 0.290ZM0.678 0.204H0.716V0.408Q0.676 0.386 0.676 0.377L0.678 0.364L0.676 0.352L0.678 0.341Q0.678 0.336 0.676 0.336L0.678 0.314ZM0.851 0.204H0.853V0.207H0.851ZM0.850 0.209H0.851V0.215Q0.850 0.218 0.850 0.220H0.848V0.215Q0.850 0.211 0.850 0.209ZM0.613 0.215H0.620V0.222H0.613ZM0.635 0.215H0.644V0.222H0.635ZM0.851 0.216H0.855V0.218H0.851ZM0.855 0.218H0.857V0.222H0.855ZM0.369 0.236Q0.374 0.238 0.374 0.247Q0.360 0.260 0.360 0.261Q0.340 0.254 0.340 0.251V0.241L0.349 0.240L0.356 0.245H0.358Q0.358 0.236 0.369 0.236ZM0.367 0.238 0.365 0.241 0.369 0.243 0.371 0.240ZM0.613 0.236Q0.614 0.236 0.614 0.238L0.618 0.236H0.620V0.245L0.616 0.243L0.613 0.245ZM0.640 0.236H0.644V0.243Q0.639 0.243 0.636 0.245V0.240Q0.637 0.236 0.640 0.236ZM0.660 0.236H0.662L0.665 0.238Q0.665 0.236 0.667 0.236V0.245Q0.665 0.245 0.665 0.243L0.662 0.245H0.660ZM0.864 0.236H0.866V0.240H0.864ZM0.844 0.247H0.846V0.249Q0.841 0.258 0.839 0.258V0.256Q0.841 0.247 0.844 0.247ZM0.252 0.251H0.257Q0.261 0.251 0.268 0.268Q0.260 0.284 0.257 0.285H0.250Q0.246 0.285 0.246 0.281V0.274Q0.246 0.270 0.253 0.270V0.268Q0.246 0.263 0.246 0.258Q0.249 0.251 0.252 0.251ZM0.635 0.258Q0.638 0.260 0.644 0.260V0.267H0.635ZM0.613 0.260H0.620V0.267H0.613ZM0.660 0.260H0.667V0.267H0.660ZM0.732 0.260H0.735V0.267H0.728V0.263Q0.729 0.260 0.732 0.260ZM0.360 0.274H0.363Q0.368 0.274 0.371 0.287L0.378 0.283Q0.385 0.286 0.385 0.289V0.298L0.376 0.299H0.361Q0.361 0.295 0.354 0.287V0.279Q0.354 0.277 0.360 0.274ZM0.820 0.274H0.822V0.277H0.820ZM0.219 0.279Q0.221 0.279 0.228 0.287L0.226 0.290V0.292H0.230L0.228 0.296L0.235 0.301Q0.235 0.299 0.237 0.299L0.241 0.305H0.235L0.231 0.303Q0.231 0.305 0.230 0.305Q0.215 0.293 0.215 0.281ZM0.613 0.281H0.616V0.283Q0.616 0.287 0.613 0.287ZM0.635 0.281H0.644V0.290H0.642Q0.642 0.287 0.635 0.287L0.636 0.283Q0.635 0.283 0.635 0.281ZM0.658 0.281H0.667V0.290H0.665L0.662 0.289Q0.662 0.290 0.660 0.290ZM0.728 0.281H0.735V0.290H0.728ZM0.835 0.281H0.837V0.285H0.835ZM0.237 0.289Q0.244 0.290 0.244 0.298H0.242L0.239 0.296Q0.239 0.298 0.237 0.298L0.230 0.290Q0.234 0.290 0.237 0.289ZM0.812 0.290Q0.815 0.292 0.817 0.292V0.294Q0.814 0.294 0.810 0.298H0.808ZM0.658 0.303Q0.662 0.303 0.662 0.306L0.658 0.308ZM0.728 0.303 0.732 0.305 0.735 0.303V0.312H0.728ZM0.644 0.308V0.312H0.638V0.310Q0.640 0.310 0.644 0.308ZM0.358 0.317Q0.367 0.320 0.367 0.326H0.371Q0.371 0.321 0.374 0.321H0.380Q0.382 0.321 0.385 0.326Q0.385 0.337 0.367 0.341Q0.367 0.343 0.365 0.343L0.351 0.328V0.323Q0.351 0.318 0.358 0.317ZM0.799 0.319H0.801Q0.801 0.321 0.803 0.325Q0.801 0.325 0.801 0.326H0.805Q0.796 0.336 0.794 0.346Q0.795 0.346 0.795 0.348Q0.785 0.346 0.779 0.346Q0.779 0.343 0.786 0.339Q0.789 0.341 0.794 0.341Q0.794 0.333 0.799 0.319ZM0.808 0.319Q0.812 0.320 0.812 0.323H0.808ZM0.812 0.319H0.815V0.323Q0.812 0.323 0.812 0.319ZM0.850 0.319Q0.853 0.321 0.857 0.321Q0.843 0.337 0.843 0.337V0.332L0.844 0.323L0.848 0.325H0.850ZM0.830 0.323H0.833V0.325H0.830ZM0.633 0.326H0.638V0.328H0.633ZM0.723 0.326H0.730V0.336H0.727Q0.723 0.336 0.723 0.332ZM0.745 0.326H0.754V0.336L0.745 0.334ZM0.662 0.328V0.336H0.658L0.660 0.332Q0.658 0.332 0.658 0.330ZM0.394 0.330H0.401Q0.405 0.331 0.405 0.334V0.341Q0.398 0.350 0.398 0.355H0.394Q0.392 0.355 0.392 0.353L0.389 0.355H0.383L0.374 0.353V0.345Q0.376 0.339 0.385 0.339Q0.386 0.343 0.389 0.343H0.391V0.334Q0.391 0.330 0.394 0.330ZM0.813 0.330H0.817V0.332H0.813ZM0.831 0.330H0.833V0.334H0.831ZM0.268 0.332H0.273Q0.275 0.332 0.278 0.339L0.273 0.348V0.350Q0.286 0.350 0.286 0.361Q0.278 0.364 0.278 0.366Q0.275 0.366 0.262 0.355H0.259Q0.261 0.351 0.264 0.334ZM0.833 0.334H0.835V0.337H0.833ZM0.219 0.336Q0.222 0.336 0.222 0.339H0.215Q0.216 0.336 0.219 0.336ZM0.226 0.337Q0.229 0.339 0.237 0.339L0.235 0.343Q0.232 0.341 0.224 0.341ZM0.830 0.337Q0.833 0.339 0.835 0.339V0.341H0.830ZM0.810 0.339Q0.813 0.341 0.815 0.341Q0.815 0.345 0.812 0.345H0.808V0.343ZM0.237 0.341H0.242Q0.242 0.345 0.239 0.345ZM0.850 0.341H0.853V0.343H0.850ZM0.860 0.341H0.864V0.343H0.860ZM0.219 0.345H0.221V0.350H0.219ZM0.228 0.346H0.230V0.352H0.228ZM0.633 0.348H0.638V0.352H0.636Q0.633 0.352 0.633 0.348ZM0.658 0.348H0.662V0.357H0.652Q0.655 0.348 0.658 0.348ZM0.723 0.348 0.727 0.350 0.730 0.348V0.357H0.723ZM0.745 0.348H0.747Q0.748 0.348 0.748 0.350L0.752 0.348H0.754Q0.754 0.354 0.756 0.357H0.745ZM0.844 0.353H0.848Q0.848 0.357 0.844 0.357ZM0.354 0.357H0.358Q0.363 0.357 0.363 0.372L0.367 0.370H0.374Q0.380 0.370 0.380 0.377Q0.378 0.384 0.373 0.384Q0.351 0.384 0.351 0.372Q0.349 0.372 0.349 0.370V0.362Q0.349 0.360 0.354 0.357ZM0.810 0.361H0.815Q0.818 0.361 0.820 0.366L0.819 0.375H0.817Q0.817 0.368 0.806 0.364Q0.807 0.361 0.810 0.361ZM0.212 0.362Q0.215 0.363 0.215 0.366V0.373L0.214 0.377L0.217 0.379Q0.221 0.379 0.222 0.364H0.228Q0.228 0.384 0.212 0.384V0.383Q0.212 0.379 0.206 0.379V0.377Q0.212 0.369 0.212 0.362ZM0.259 0.364H0.260Q0.263 0.364 0.266 0.370V0.372Q0.262 0.372 0.252 0.377V0.373Q0.256 0.364 0.259 0.364ZM0.199 0.366H0.203V0.368H0.199ZM0.662 0.370V0.373Q0.658 0.373 0.654 0.375V0.372Q0.659 0.372 0.662 0.370ZM0.781 0.370H0.784V0.372H0.781ZM0.844 0.370 0.846 0.373V0.375H0.841V0.373Q0.841 0.370 0.844 0.370ZM0.231 0.372H0.233V0.375H0.231ZM0.629 0.372H0.631Q0.631 0.377 0.638 0.377V0.379H0.629ZM0.723 0.372H0.730V0.379H0.721Q0.723 0.375 0.723 0.372ZM0.745 0.372H0.754Q0.754 0.375 0.756 0.379H0.745ZM0.779 0.372H0.781V0.375H0.779ZM0.784 0.372H0.788V0.373H0.784ZM0.795 0.372H0.797V0.377H0.794Q0.795 0.373 0.795 0.372ZM0.288 0.375H0.291Q0.316 0.384 0.316 0.404Q0.301 0.395 0.299 0.395Q0.295 0.422 0.288 0.422ZM0.260 0.379Q0.260 0.384 0.264 0.384Q0.264 0.383 0.266 0.383V0.390Q0.262 0.390 0.259 0.391Q0.259 0.388 0.255 0.388L0.246 0.395H0.244Q0.241 0.395 0.241 0.391V0.386Q0.241 0.383 0.244 0.383Q0.247 0.384 0.252 0.384Q0.252 0.381 0.260 0.379ZM0.786 0.383Q0.790 0.393 0.799 0.393V0.404H0.797V0.400H0.794Q0.794 0.406 0.790 0.406H0.786L0.792 0.398V0.397Q0.783 0.397 0.781 0.395Q0.781 0.397 0.779 0.397V0.393H0.774Q0.774 0.398 0.770 0.398H0.763L0.761 0.390Q0.761 0.388 0.768 0.384L0.777 0.391H0.781V0.384Q0.783 0.384 0.786 0.383ZM0.830 0.383H0.833V0.388H0.830ZM0.855 0.384H0.858V0.388H0.855ZM0.680 0.391Q0.710 0.415 0.716 0.415V0.431Q0.703 0.416 0.676 0.402V0.395Q0.676 0.391 0.680 0.391ZM0.629 0.393H0.638V0.400L0.629 0.402ZM0.723 0.393H0.730V0.402L0.727 0.400L0.723 0.402ZM0.745 0.393H0.754V0.400Q0.750 0.400 0.747 0.402L0.748 0.406V0.411L0.747 0.415Q0.750 0.417 0.754 0.417V0.422H0.750Q0.743 0.415 0.735 0.413V0.406Q0.745 0.399 0.745 0.397ZM0.828 0.395H0.831V0.397H0.828ZM0.335 0.397Q0.342 0.398 0.342 0.404H0.345Q0.345 0.397 0.354 0.397Q0.358 0.398 0.360 0.398V0.410Q0.360 0.411 0.344 0.421Q0.325 0.410 0.325 0.406V0.404Q0.327 0.397 0.335 0.397ZM0.654 0.397H0.656Q0.660 0.398 0.662 0.398V0.402Q0.660 0.402 0.660 0.400L0.656 0.402H0.654ZM0.302 0.402Q0.312 0.410 0.322 0.410V0.437Q0.322 0.439 0.309 0.449Q0.306 0.438 0.289 0.428Q0.302 0.421 0.302 0.402ZM0.231 0.404H0.239V0.406H0.235V0.410L0.239 0.415H0.237Q0.233 0.415 0.231 0.404ZM0.266 0.406H0.271L0.273 0.410V0.411Q0.269 0.408 0.266 0.408ZM0.244 0.410H0.252Q0.255 0.410 0.255 0.415H0.259V0.410H0.260Q0.265 0.413 0.268 0.413V0.415Q0.257 0.423 0.257 0.428Q0.241 0.424 0.241 0.421V0.413Q0.241 0.410 0.244 0.410ZM0.678 0.411Q0.698 0.421 0.714 0.438H0.716V0.453Q0.716 0.456 0.692 0.464Q0.689 0.462 0.687 0.462Q0.683 0.469 0.683 0.475H0.678Q0.678 0.469 0.674 0.469V0.460L0.678 0.462V0.460Q0.678 0.451 0.676 0.444Q0.678 0.434 0.678 0.429L0.676 0.417Q0.678 0.413 0.678 0.411ZM0.801 0.411Q0.801 0.413 0.803 0.413Q0.803 0.411 0.805 0.411V0.415Q0.794 0.415 0.794 0.421H0.792Q0.792 0.419 0.790 0.415Q0.791 0.415 0.801 0.411ZM0.226 0.413H0.228V0.417H0.226ZM0.629 0.415H0.631Q0.633 0.415 0.633 0.417L0.636 0.415H0.638V0.424H0.629ZM0.662 0.415V0.424H0.654V0.417Q0.655 0.417 0.662 0.415ZM0.721 0.419H0.723Q0.734 0.420 0.734 0.424V0.428Q0.732 0.428 0.728 0.429Q0.721 0.427 0.721 0.424ZM0.777 0.422H0.781Q0.783 0.422 0.786 0.428V0.431Q0.784 0.431 0.784 0.429Q0.779 0.433 0.774 0.433H0.772Q0.773 0.422 0.777 0.422ZM0.288 0.435Q0.295 0.435 0.309 0.458Q0.309 0.456 0.322 0.446V0.457H0.325V0.458Q0.316 0.458 0.304 0.468Q0.294 0.466 0.288 0.466ZM0.759 0.435 0.772 0.440Q0.770 0.447 0.763 0.447Q0.763 0.445 0.756 0.440H0.754Q0.754 0.447 0.748 0.447Q0.748 0.446 0.747 0.446Q0.747 0.447 0.745 0.447V0.438H0.756Q0.759 0.438 0.759 0.435ZM0.629 0.438H0.638V0.444L0.636 0.447Q0.633 0.446 0.629 0.446ZM0.654 0.438H0.662V0.447H0.654ZM0.727 0.438H0.730V0.440H0.727ZM0.230 0.440H0.233Q0.233 0.446 0.239 0.446H0.241V0.447Q0.235 0.447 0.231 0.455L0.228 0.453Q0.224 0.455 0.222 0.455L0.226 0.449L0.222 0.444Q0.230 0.444 0.230 0.440ZM0.340 0.447Q0.342 0.457 0.347 0.457L0.345 0.460V0.462L0.347 0.466H0.338Q0.338 0.461 0.337 0.458Q0.338 0.458 0.338 0.457L0.335 0.455H0.329L0.325 0.457V0.453H0.337Q0.337 0.447 0.340 0.447ZM0.752 0.449Q0.756 0.451 0.758 0.451V0.458Q0.750 0.464 0.750 0.469H0.743V0.462L0.747 0.457V0.455L0.745 0.451Q0.749 0.451 0.752 0.449ZM0.278 0.451H0.280Q0.284 0.453 0.286 0.453V0.455Q0.282 0.455 0.278 0.457ZM0.233 0.457H0.235V0.460H0.233ZM0.233 0.460Q0.233 0.469 0.241 0.469V0.471Q0.231 0.471 0.231 0.475V0.480H0.230Q0.230 0.473 0.226 0.473Q0.223 0.475 0.221 0.475L0.224 0.469V0.468L0.221 0.462H0.222Q0.226 0.464 0.230 0.464Q0.230 0.460 0.233 0.460ZM0.660 0.460V0.469H0.652V0.462Q0.657 0.462 0.660 0.460ZM0.728 0.460V0.469H0.721V0.462Q0.725 0.462 0.728 0.460ZM0.360 0.462H0.363V0.464H0.360ZM0.627 0.462H0.635Q0.635 0.466 0.636 0.469H0.627ZM0.264 0.464H0.266Q0.266 0.473 0.273 0.473V0.475Q0.268 0.475 0.262 0.480L0.255 0.471Q0.264 0.471 0.264 0.464ZM0.716 0.464V0.480Q0.714 0.480 0.714 0.478Q0.703 0.480 0.703 0.482L0.699 0.480H0.698Q0.695 0.480 0.692 0.485Q0.692 0.494 0.701 0.502H0.703L0.714 0.494H0.716V0.509L0.712 0.514V0.516L0.716 0.521V0.547H0.714Q0.708 0.531 0.696 0.521Q0.696 0.524 0.689 0.529L0.687 0.520Q0.694 0.513 0.694 0.509L0.690 0.502H0.692Q0.688 0.485 0.685 0.485Q0.678 0.491 0.674 0.491V0.483Q0.683 0.483 0.698 0.469Q0.711 0.464 0.716 0.464ZM0.318 0.466Q0.318 0.478 0.333 0.489Q0.324 0.489 0.314 0.507Q0.302 0.498 0.291 0.498Q0.295 0.486 0.295 0.482Q0.295 0.479 0.291 0.471Q0.301 0.473 0.306 0.473ZM0.347 0.466H0.352V0.468H0.347ZM0.325 0.468H0.327Q0.339 0.471 0.344 0.482Q0.342 0.482 0.342 0.483Q0.346 0.487 0.352 0.487L0.351 0.491H0.371Q0.373 0.491 0.373 0.489L0.383 0.494L0.389 0.491H0.627Q0.627 0.489 0.629 0.485Q0.627 0.485 0.627 0.483H0.635Q0.635 0.491 0.638 0.491H0.652V0.483H0.660Q0.660 0.498 0.678 0.498Q0.681 0.496 0.683 0.496Q0.683 0.498 0.685 0.502H0.683L0.687 0.511Q0.680 0.513 0.680 0.516V0.525Q0.680 0.527 0.682 0.527Q0.680 0.530 0.680 0.532Q0.682 0.540 0.685 0.540H0.687L0.696 0.530L0.716 0.558V0.572Q0.712 0.599 0.709 0.599Q0.709 0.596 0.705 0.596H0.699Q0.696 0.596 0.696 0.599V0.601Q0.696 0.607 0.701 0.614Q0.699 0.614 0.699 0.615Q0.707 0.623 0.712 0.623L0.711 0.626L0.714 0.636Q0.696 0.642 0.696 0.651Q0.699 0.659 0.705 0.663Q0.713 0.663 0.720 0.659Q0.720 0.661 0.721 0.661Q0.720 0.668 0.716 0.668V0.677Q0.725 0.679 0.727 0.679V0.686Q0.720 0.686 0.716 0.693V0.809H0.678V0.798H0.676L0.673 0.800V0.791H0.678V0.776H0.673V0.767H0.678V0.710H0.673V0.700L0.676 0.702H0.678V0.686H0.676L0.673 0.688Q0.673 0.686 0.669 0.674V0.672Q0.669 0.668 0.678 0.668V0.663Q0.676 0.663 0.676 0.664Q0.674 0.664 0.667 0.657Q0.667 0.652 0.676 0.648Q0.676 0.650 0.678 0.650V0.636Q0.673 0.628 0.673 0.625Q0.675 0.625 0.678 0.619V0.581H0.674V0.572H0.678V0.558L0.674 0.559V0.551H0.678V0.536H0.674V0.527L0.678 0.529V0.523H0.385V0.679Q0.385 0.681 0.387 0.681L0.385 0.684V0.702L0.394 0.700Q0.394 0.703 0.383 0.710Q0.380 0.708 0.378 0.708V0.695Q0.373 0.695 0.373 0.702H0.371Q0.371 0.699 0.367 0.699Q0.367 0.698 0.378 0.688V0.657H0.376L0.373 0.659Q0.373 0.655 0.371 0.655L0.373 0.651V0.542H0.369Q0.382 0.526 0.382 0.523H0.373Q0.373 0.531 0.365 0.534V0.532L0.371 0.525V0.523H0.340Q0.337 0.524 0.337 0.527L0.338 0.530L0.329 0.538Q0.326 0.536 0.322 0.536V0.545H0.329V0.547H0.322V0.559Q0.322 0.563 0.329 0.563V0.565Q0.322 0.565 0.322 0.576L0.331 0.583L0.344 0.581H0.347V0.583Q0.333 0.583 0.329 0.594L0.331 0.598Q0.329 0.606 0.322 0.606V0.614Q0.322 0.615 0.324 0.615L0.322 0.619V0.684L0.324 0.695Q0.322 0.698 0.322 0.704V0.726H0.329Q0.329 0.722 0.331 0.722Q0.337 0.722 0.361 0.726Q0.362 0.722 0.365 0.722H0.367L0.365 0.726Q0.365 0.728 0.374 0.731V0.733H0.387V0.735H0.380V0.738H0.385L0.383 0.742L0.389 0.749V0.753H0.378Q0.374 0.753 0.371 0.755Q0.361 0.749 0.356 0.749Q0.353 0.751 0.351 0.751V0.755Q0.351 0.758 0.358 0.762H0.361V0.759H0.365V0.764Q0.358 0.764 0.358 0.769L0.354 0.767H0.349V0.771H0.347V0.767H0.342Q0.326 0.764 0.322 0.764L0.324 0.780H0.322L0.324 0.783Q0.322 0.794 0.322 0.798Q0.325 0.799 0.325 0.802Q0.324 0.809 0.324 0.814H0.322V0.809H0.304V0.812H0.302V0.809H0.288Q0.288 0.802 0.286 0.802L0.288 0.798V0.780H0.286L0.273 0.789H0.271L0.282 0.776L0.286 0.778H0.288V0.776Q0.288 0.774 0.286 0.774L0.288 0.771V0.764H0.286Q0.279 0.768 0.266 0.771L0.268 0.767Q0.268 0.766 0.266 0.766L0.268 0.762Q0.265 0.755 0.262 0.755H0.255L0.252 0.757Q0.252 0.752 0.246 0.747V0.744Q0.253 0.744 0.253 0.738V0.736Q0.253 0.735 0.252 0.735L0.253 0.731Q0.252 0.726 0.242 0.726V0.724H0.250Q0.266 0.728 0.269 0.728L0.266 0.733V0.735Q0.273 0.735 0.273 0.738L0.264 0.736H0.255V0.738Q0.256 0.744 0.269 0.744H0.273L0.282 0.742V0.740H0.278V0.738H0.286V0.735H0.275V0.733H0.286V0.731Q0.286 0.725 0.257 0.719H0.246Q0.246 0.716 0.242 0.711H0.278V0.710L0.269 0.700H0.271Q0.282 0.705 0.282 0.708Q0.280 0.708 0.280 0.710L0.288 0.713V0.711Q0.288 0.710 0.286 0.710L0.288 0.706V0.697L0.282 0.688H0.284L0.288 0.690V0.663H0.284V0.666L0.278 0.663Q0.277 0.666 0.277 0.668L0.273 0.666H0.268Q0.266 0.666 0.266 0.668Q0.242 0.661 0.242 0.650Q0.242 0.646 0.237 0.646L0.239 0.643Q0.237 0.643 0.237 0.641H0.239Q0.239 0.636 0.233 0.636V0.634H0.239V0.626L0.235 0.621Q0.239 0.621 0.239 0.615H0.241L0.250 0.623Q0.260 0.616 0.260 0.610L0.264 0.612H0.266V0.610Q0.266 0.606 0.262 0.606H0.260V0.610Q0.258 0.610 0.255 0.605Q0.264 0.605 0.264 0.599L0.269 0.603Q0.277 0.596 0.280 0.596V0.592Q0.269 0.581 0.269 0.578Q0.268 0.578 0.268 0.579Q0.262 0.576 0.259 0.576L0.260 0.572Q0.260 0.570 0.252 0.563L0.248 0.565Q0.248 0.563 0.246 0.563Q0.246 0.567 0.239 0.572Q0.239 0.575 0.250 0.583L0.259 0.576V0.581Q0.254 0.581 0.252 0.589V0.590L0.253 0.603Q0.239 0.606 0.239 0.615L0.235 0.614Q0.232 0.615 0.230 0.615L0.235 0.606Q0.233 0.603 0.233 0.599Q0.236 0.599 0.241 0.592Q0.241 0.588 0.233 0.587V0.567Q0.224 0.567 0.221 0.559V0.554L0.222 0.551Q0.221 0.551 0.221 0.549Q0.229 0.544 0.237 0.534V0.543H0.241L0.244 0.542V0.545H0.241V0.554H0.246L0.255 0.542L0.259 0.543Q0.259 0.542 0.260 0.542V0.543L0.268 0.540Q0.268 0.527 0.262 0.527V0.525H0.266L0.264 0.521Q0.272 0.519 0.278 0.514Q0.277 0.507 0.271 0.507L0.273 0.504V0.498H0.269L0.264 0.506V0.507H0.262Q0.262 0.504 0.253 0.504L0.257 0.498V0.494H0.253V0.491H0.255L0.260 0.494H0.262L0.264 0.487H0.266V0.496H0.275L0.273 0.493Q0.277 0.493 0.277 0.489Q0.275 0.489 0.275 0.487Q0.278 0.487 0.282 0.475Q0.280 0.475 0.280 0.473L0.284 0.471Q0.289 0.479 0.289 0.485Q0.284 0.497 0.284 0.502Q0.301 0.502 0.316 0.516Q0.319 0.516 0.325 0.498Q0.337 0.493 0.340 0.487Q0.325 0.477 0.325 0.475ZM0.352 0.468H0.356V0.469H0.352ZM0.360 0.473H0.363V0.475H0.360ZM0.363 0.475Q0.367 0.475 0.367 0.478H0.363ZM0.367 0.478Q0.371 0.479 0.371 0.482V0.483Q0.367 0.483 0.367 0.480ZM0.743 0.483H0.752Q0.750 0.492 0.743 0.493ZM0.728 0.485V0.491H0.721V0.489Q0.724 0.489 0.728 0.485ZM0.711 0.487Q0.711 0.492 0.701 0.493V0.489ZM0.237 0.493H0.242V0.498H0.241Q0.237 0.498 0.237 0.494ZM0.224 0.496H0.226Q0.226 0.502 0.237 0.502V0.504Q0.230 0.504 0.230 0.513H0.228Q0.226 0.513 0.226 0.511L0.222 0.513H0.221Q0.221 0.504 0.214 0.504V0.502H0.224ZM0.743 0.506H0.750V0.511Q0.750 0.514 0.747 0.514H0.743ZM0.179 0.514H0.186V0.527Q0.186 0.530 0.183 0.530H0.179L0.176 0.518Q0.176 0.514 0.179 0.514ZM0.275 0.525V0.527Q0.280 0.527 0.280 0.530H0.278Q0.275 0.529 0.273 0.529L0.269 0.534V0.536Q0.279 0.540 0.280 0.540Q0.281 0.536 0.284 0.536Q0.285 0.540 0.288 0.540V0.534L0.280 0.532V0.530Q0.286 0.530 0.286 0.527Q0.286 0.524 0.280 0.521H0.278Q0.275 0.522 0.275 0.525ZM0.253 0.521H0.255Q0.255 0.527 0.260 0.527Q0.257 0.533 0.257 0.536L0.248 0.534Q0.253 0.523 0.253 0.521ZM0.660 0.527V0.536H0.652V0.529Q0.653 0.529 0.660 0.527ZM0.728 0.527V0.536H0.721V0.529Q0.725 0.529 0.728 0.527ZM0.743 0.527Q0.746 0.529 0.752 0.529Q0.750 0.532 0.750 0.536H0.743ZM0.627 0.529H0.635V0.536H0.627V0.534L0.629 0.530Q0.627 0.530 0.627 0.529ZM0.361 0.534H0.365Q0.365 0.538 0.361 0.538ZM0.335 0.536H0.338L0.344 0.540L0.347 0.538Q0.347 0.543 0.352 0.543V0.545Q0.351 0.545 0.345 0.549V0.551L0.347 0.554Q0.346 0.554 0.337 0.556H0.325V0.554H0.340V0.552L0.337 0.547L0.333 0.549H0.331V0.545Q0.332 0.545 0.338 0.543V0.542ZM0.374 0.538V0.614Q0.374 0.615 0.376 0.615L0.374 0.619V0.646Q0.375 0.650 0.378 0.650V0.581Q0.378 0.579 0.380 0.579Q0.380 0.578 0.378 0.578L0.380 0.556V0.549L0.378 0.545H0.380Q0.378 0.542 0.378 0.538ZM0.358 0.538H0.361V0.540H0.358ZM0.268 0.542 0.264 0.547Q0.266 0.547 0.266 0.549Q0.262 0.549 0.262 0.552V0.558Q0.268 0.558 0.268 0.563L0.277 0.558V0.568Q0.284 0.563 0.288 0.563V0.559H0.278L0.280 0.556Q0.278 0.542 0.268 0.542ZM0.356 0.540H0.358Q0.358 0.543 0.354 0.543H0.352Q0.353 0.540 0.356 0.540ZM0.367 0.543V0.585Q0.367 0.589 0.363 0.589H0.361Q0.358 0.589 0.358 0.581H0.351V0.612H0.349V0.581H0.347L0.349 0.578V0.558Q0.349 0.556 0.347 0.556Q0.349 0.553 0.349 0.549Q0.352 0.551 0.354 0.551ZM0.351 0.556V0.579H0.358V0.552H0.354Q0.351 0.553 0.351 0.556ZM0.627 0.551H0.635V0.558H0.627ZM0.652 0.551H0.660V0.558H0.652ZM0.721 0.551H0.728V0.558H0.727Q0.724 0.558 0.721 0.551ZM0.743 0.551H0.748V0.558Q0.747 0.558 0.743 0.559ZM0.280 0.572Q0.280 0.575 0.288 0.579V0.565Q0.285 0.565 0.280 0.572ZM0.627 0.572H0.635V0.581H0.627L0.629 0.578V0.576ZM0.652 0.572H0.654Q0.664 0.572 0.667 0.579Q0.667 0.589 0.658 0.590L0.652 0.583ZM0.723 0.572H0.728V0.581H0.721Q0.723 0.578 0.723 0.572ZM0.743 0.572H0.752Q0.750 0.575 0.750 0.581H0.743ZM0.333 0.592H0.335Q0.337 0.594 0.342 0.594V0.596H0.335ZM0.280 0.612V0.615Q0.283 0.615 0.288 0.621V0.605Q0.285 0.605 0.280 0.612ZM0.705 0.605Q0.716 0.605 0.716 0.612V0.615L0.720 0.614Q0.722 0.614 0.725 0.619V0.623Q0.725 0.626 0.720 0.628Q0.720 0.614 0.707 0.614ZM0.255 0.639H0.253V0.632H0.248V0.634Q0.253 0.655 0.268 0.655H0.269Q0.281 0.651 0.284 0.644V0.641L0.277 0.639L0.280 0.634V0.632Q0.280 0.629 0.271 0.623H0.269Q0.255 0.634 0.255 0.639ZM0.224 0.632H0.228Q0.228 0.636 0.224 0.636ZM0.260 0.636Q0.263 0.636 0.268 0.643H0.266Q0.263 0.643 0.260 0.637ZM0.721 0.639H0.723V0.646Q0.723 0.651 0.705 0.655V0.650Q0.709 0.643 0.716 0.643Q0.716 0.646 0.720 0.646Q0.721 0.643 0.721 0.639ZM0.280 0.653Q0.280 0.656 0.288 0.661V0.646Q0.285 0.646 0.280 0.653ZM0.331 0.659H0.333V0.679L0.329 0.681Q0.331 0.668 0.331 0.659ZM0.349 0.666H0.351V0.670L0.349 0.682Q0.345 0.682 0.345 0.679ZM0.367 0.672H0.369V0.675H0.367ZM0.365 0.675H0.367V0.679H0.365ZM0.365 0.679V0.682Q0.363 0.686 0.363 0.688L0.360 0.686Q0.362 0.679 0.365 0.679ZM0.626 0.679H0.633V0.686L0.626 0.688ZM0.651 0.679H0.658V0.688L0.654 0.686L0.651 0.688ZM0.741 0.679H0.748V0.686H0.741ZM0.333 0.684H0.335V0.690H0.333ZM0.327 0.690H0.329V0.702H0.327ZM0.134 0.691H0.138V0.693H0.134ZM0.170 0.693H0.183V0.695H0.170ZM0.345 0.693H0.347V0.697H0.345ZM0.358 0.693H0.360V0.697H0.358ZM0.201 0.697H0.205V0.699H0.201ZM0.266 0.699H0.269V0.700H0.266ZM0.335 0.700H0.338V0.702Q0.337 0.706 0.337 0.708H0.335ZM0.626 0.700H0.633V0.710H0.626ZM0.651 0.700Q0.652 0.700 0.652 0.702L0.656 0.700H0.658V0.710H0.649Q0.651 0.707 0.651 0.700ZM0.720 0.700 0.723 0.702 0.727 0.700V0.710H0.720ZM0.741 0.700Q0.744 0.702 0.748 0.702V0.706Q0.748 0.710 0.745 0.710H0.741ZM0.190 0.702H0.195L0.203 0.704Q0.205 0.704 0.205 0.702Q0.207 0.702 0.231 0.710H0.233V0.711Q0.228 0.711 0.228 0.719Q0.216 0.718 0.208 0.708Q0.205 0.706 0.190 0.704ZM0.325 0.702H0.327V0.706H0.325ZM0.344 0.702 0.347 0.704Q0.345 0.708 0.345 0.710H0.344ZM0.352 0.706Q0.356 0.707 0.356 0.710L0.352 0.711ZM0.159 0.711H0.169V0.713H0.159ZM0.361 0.713 0.363 0.717Q0.361 0.717 0.358 0.719V0.717Q0.359 0.713 0.361 0.713ZM0.403 0.715H0.407V0.717H0.403ZM0.399 0.717H0.403V0.719Q0.400 0.719 0.387 0.724V0.719ZM0.188 0.720H0.192Q0.195 0.721 0.195 0.724H0.192Q0.188 0.724 0.188 0.720ZM0.378 0.720H0.383V0.722H0.378ZM0.210 0.722Q0.218 0.722 0.239 0.728L0.235 0.733V0.736L0.237 0.740H0.233Q0.233 0.726 0.224 0.726Q0.216 0.729 0.215 0.733V0.736L0.217 0.740H0.214Q0.214 0.731 0.210 0.722ZM0.373 0.722H0.376V0.724H0.373ZM0.727 0.722V0.731H0.720V0.724Q0.723 0.724 0.727 0.722ZM0.383 0.724H0.387V0.726H0.383ZM0.626 0.724H0.633V0.731H0.626ZM0.651 0.724H0.658Q0.658 0.726 0.656 0.726L0.658 0.729V0.731H0.651ZM0.747 0.724H0.748V0.731H0.745V0.729Q0.747 0.726 0.747 0.724ZM0.239 0.726H0.242V0.728H0.239ZM0.410 0.733V0.736H0.399L0.391 0.738Q0.391 0.735 0.410 0.733ZM0.396 0.742Q0.404 0.753 0.409 0.753V0.755Q0.402 0.755 0.392 0.757Q0.392 0.751 0.391 0.751Q0.393 0.742 0.396 0.742ZM0.626 0.746H0.633V0.755L0.629 0.753L0.626 0.755ZM0.651 0.746H0.658V0.747Q0.658 0.749 0.656 0.749L0.658 0.753V0.755Q0.655 0.753 0.651 0.753ZM0.720 0.746H0.727V0.753H0.720ZM0.741 0.746H0.745V0.747H0.741ZM0.228 0.751H0.230V0.755H0.228ZM0.239 0.757H0.250V0.762Q0.244 0.759 0.239 0.759ZM0.358 0.757H0.361V0.759H0.358ZM0.371 0.762H0.376V0.764H0.371ZM0.387 0.764Q0.398 0.768 0.398 0.771H0.396Q0.389 0.767 0.383 0.767V0.766Q0.387 0.766 0.387 0.764ZM0.629 0.767H0.633V0.776H0.626V0.771Q0.626 0.767 0.629 0.767ZM0.651 0.767H0.658V0.776H0.651ZM0.720 0.767 0.723 0.769 0.727 0.767V0.776H0.720ZM0.741 0.767Q0.744 0.769 0.748 0.769V0.776H0.741L0.743 0.773Q0.741 0.769 0.741 0.767ZM0.262 0.771H0.266V0.773H0.262ZM0.331 0.771H0.333V0.780H0.329Q0.331 0.777 0.331 0.771ZM0.349 0.771Q0.352 0.771 0.352 0.774H0.349ZM0.398 0.771H0.401V0.773H0.398ZM0.340 0.773H0.342Q0.342 0.775 0.344 0.778H0.340ZM0.380 0.776 0.385 0.783H0.383Q0.379 0.780 0.376 0.780Q0.377 0.776 0.380 0.776ZM0.327 0.785H0.329V0.789H0.327ZM0.389 0.787H0.392V0.789H0.389ZM0.335 0.789H0.337V0.793H0.335ZM0.340 0.789H0.342V0.816H0.340L0.338 0.805Q0.340 0.795 0.340 0.789ZM0.365 0.789H0.371Q0.371 0.792 0.374 0.796V0.798Q0.372 0.798 0.365 0.789ZM0.626 0.791H0.633V0.798Q0.631 0.798 0.627 0.800L0.626 0.796ZM0.651 0.791H0.658V0.800Q0.655 0.798 0.651 0.798ZM0.720 0.791H0.727V0.800L0.723 0.798L0.720 0.800ZM0.741 0.791H0.748V0.798Q0.744 0.798 0.741 0.800V0.796L0.743 0.793Q0.741 0.793 0.741 0.791ZM0.356 0.795 0.358 0.805V0.807H0.356L0.352 0.796ZM0.358 0.807H0.360V0.811H0.358Z" fill="black"/>
</svg>
