<svg xmlns="http://www.w3.org/2000/svg" viewBox="0 0 1 1" preserveAspectRatio="xMidYMid meet">
  <path d="M0.603 0.189H0.614V0.191H0.603ZM0.592 0.191H0.603V0.193H0.592ZM0.615 0.191H0.625V0.193H0.615ZM0.588 0.193H0.590V0.194L0.583 0.196Q0.583 0.193 0.588 0.193ZM0.625 0.193H0.628V0.194H0.625ZM0.579 0.196H0.583V0.198H0.579ZM0.339 0.198H0.349V0.207H0.339ZM0.363 0.198H0.372V0.207H0.363ZM0.386 0.198H0.394V0.204H0.410V0.198H0.419L0.417 0.202L0.421 0.204H0.434V0.202L0.432 0.198H0.443V0.204H0.458V0.198H0.465V0.204H0.570L0.576 0.200H0.578L0.576 0.204H0.583Q0.600 0.198 0.605 0.198H0.615V0.200Q0.608 0.200 0.596 0.202V0.204H0.621V0.202H0.615V0.200H0.623Q0.632 0.205 0.645 0.207Q0.645 0.203 0.638 0.202V0.198H0.639Q0.652 0.212 0.670 0.217L0.701 0.240L0.705 0.238H0.708Q0.708 0.245 0.714 0.251H0.708V0.253Q0.727 0.279 0.737 0.316L0.741 0.318L0.739 0.322Q0.743 0.353 0.743 0.365Q0.743 0.480 0.656 0.520Q0.653 0.522 0.645 0.522Q0.645 0.506 0.603 0.506Q0.577 0.506 0.554 0.527H0.508Q0.515 0.538 0.518 0.538Q0.518 0.536 0.519 0.536Q0.519 0.541 0.532 0.544V0.545L0.528 0.551Q0.531 0.551 0.539 0.562Q0.537 0.574 0.537 0.582Q0.499 0.548 0.467 0.536Q0.464 0.527 0.443 0.527H0.439V0.531Q0.427 0.527 0.423 0.527Q0.377 0.540 0.375 0.540V0.424Q0.373 0.425 0.366 0.425V0.427H0.370V0.436H0.361V0.427H0.349Q0.345 0.427 0.345 0.424Q0.345 0.420 0.375 0.416V0.391L0.372 0.393Q0.365 0.390 0.365 0.387V0.382Q0.365 0.378 0.375 0.378V0.367Q0.366 0.367 0.366 0.364V0.358Q0.366 0.353 0.375 0.353V0.349Q0.368 0.349 0.368 0.342Q0.370 0.335 0.375 0.335V0.325Q0.374 0.325 0.374 0.327Q0.368 0.324 0.363 0.324V0.316Q0.365 0.316 0.374 0.311Q0.374 0.313 0.375 0.313V0.204H0.386ZM0.699 0.211Q0.703 0.213 0.705 0.213V0.218H0.703Q0.699 0.217 0.698 0.217Q0.699 0.213 0.699 0.211ZM0.339 0.222H0.349V0.229H0.339ZM0.363 0.222H0.372V0.229H0.363ZM0.408 0.236V0.324H0.410V0.316H0.419Q0.419 0.318 0.417 0.318Q0.423 0.326 0.423 0.329Q0.420 0.337 0.417 0.337L0.408 0.335V0.344L0.412 0.342H0.419Q0.423 0.342 0.423 0.346V0.351Q0.423 0.354 0.417 0.356H0.414L0.408 0.353V0.371Q0.417 0.372 0.417 0.376V0.380Q0.417 0.386 0.408 0.386V0.407Q0.438 0.396 0.474 0.367H0.476Q0.443 0.400 0.408 0.413V0.427H0.416V0.433Q0.416 0.436 0.408 0.436V0.451H0.416V0.460H0.408V0.475H0.416V0.484H0.408V0.494H0.617Q0.677 0.494 0.703 0.418Q0.710 0.393 0.710 0.362Q0.708 0.337 0.703 0.316Q0.681 0.325 0.681 0.360Q0.679 0.360 0.679 0.373Q0.646 0.349 0.639 0.349Q0.603 0.353 0.599 0.353Q0.606 0.323 0.606 0.314V0.313H0.610V0.309Q0.607 0.309 0.603 0.302V0.307H0.601Q0.601 0.298 0.594 0.298V0.320Q0.594 0.322 0.596 0.322L0.594 0.325V0.358Q0.594 0.362 0.590 0.362V0.307Q0.590 0.305 0.588 0.305L0.590 0.302V0.296H0.588Q0.585 0.297 0.585 0.300V0.302L0.587 0.311H0.583V0.314Q0.583 0.316 0.585 0.316L0.583 0.320L0.585 0.327Q0.582 0.337 0.579 0.337Q0.575 0.337 0.572 0.324H0.568V0.374L0.574 0.382Q0.568 0.388 0.568 0.395V0.409Q0.568 0.413 0.565 0.413V0.393Q0.565 0.389 0.561 0.389V0.462Q0.561 0.466 0.557 0.466Q0.554 0.466 0.554 0.462V0.349L0.550 0.351Q0.547 0.349 0.543 0.349L0.545 0.346L0.543 0.342Q0.548 0.342 0.548 0.340L0.552 0.342H0.554V0.337H0.552L0.548 0.338V0.333L0.550 0.324L0.554 0.325V0.318Q0.554 0.311 0.552 0.311L0.554 0.298V0.256H0.552Q0.549 0.256 0.525 0.289V0.295L0.527 0.298Q0.525 0.298 0.516 0.309L0.510 0.305Q0.480 0.344 0.445 0.344Q0.435 0.344 0.432 0.337V0.335Q0.440 0.340 0.445 0.340Q0.472 0.340 0.505 0.300V0.296H0.494V0.295H0.505V0.293L0.503 0.289Q0.522 0.289 0.539 0.262Q0.542 0.262 0.555 0.245H0.561V0.242L0.559 0.238H0.563V0.236H0.555V0.242H0.552L0.554 0.238V0.236ZM0.565 0.236V0.240H0.566Q0.570 0.238 0.572 0.238V0.236ZM0.638 0.240V0.247H0.641V0.240ZM0.643 0.242V0.245Q0.648 0.245 0.648 0.247Q0.645 0.253 0.645 0.256Q0.649 0.253 0.652 0.253V0.244ZM0.566 0.244V0.247Q0.570 0.247 0.570 0.244ZM0.339 0.245H0.349V0.253H0.339ZM0.363 0.245H0.372V0.253H0.363ZM0.432 0.245H0.443V0.253H0.434Q0.434 0.249 0.432 0.245ZM0.458 0.245H0.465V0.253H0.458ZM0.557 0.249 0.555 0.258Q0.557 0.262 0.557 0.264H0.559Q0.561 0.264 0.565 0.258L0.561 0.251Q0.563 0.251 0.563 0.249ZM0.565 0.253V0.254H0.568V0.253ZM0.568 0.264V0.265H0.572V0.264ZM0.675 0.264Q0.680 0.284 0.690 0.284Q0.686 0.272 0.675 0.264ZM0.561 0.269V0.273H0.565L0.563 0.277L0.587 0.293Q0.596 0.296 0.599 0.296V0.293Q0.596 0.293 0.590 0.289Q0.590 0.291 0.588 0.291L0.579 0.282Q0.579 0.284 0.578 0.284Q0.578 0.281 0.568 0.273Q0.570 0.273 0.570 0.271ZM0.339 0.269H0.349V0.277Q0.342 0.277 0.339 0.278ZM0.363 0.269H0.372V0.278L0.368 0.277V0.278Q0.365 0.277 0.363 0.277ZM0.434 0.269H0.443V0.277H0.434ZM0.458 0.269H0.465V0.278L0.461 0.277L0.458 0.278ZM0.732 0.269 0.739 0.273Q0.742 0.271 0.748 0.271Q0.748 0.278 0.754 0.284Q0.743 0.284 0.743 0.293Q0.736 0.286 0.728 0.286L0.734 0.278ZM0.568 0.288V0.293H0.570Q0.574 0.293 0.574 0.289V0.288ZM0.339 0.293H0.349V0.300H0.339ZM0.363 0.293H0.372V0.302H0.370Q0.367 0.300 0.365 0.300Q0.365 0.302 0.363 0.302ZM0.410 0.293H0.417V0.302H0.416Q0.412 0.300 0.410 0.300ZM0.432 0.293H0.443V0.302H0.432L0.434 0.298V0.296ZM0.458 0.293H0.465Q0.465 0.300 0.468 0.300V0.302Q0.462 0.302 0.459 0.304L0.458 0.300ZM0.472 0.298H0.476V0.300H0.472ZM0.541 0.314H0.543V0.316Q0.538 0.353 0.532 0.353H0.530V0.351Q0.530 0.348 0.541 0.314ZM0.339 0.316H0.349V0.324H0.339ZM0.432 0.316H0.443V0.324H0.434Q0.434 0.320 0.432 0.316ZM0.458 0.316H0.465V0.324H0.458ZM0.532 0.316H0.534V0.320H0.532ZM0.561 0.322V0.374H0.565V0.322ZM0.430 0.327H0.432V0.335H0.430ZM0.527 0.329H0.528V0.333H0.527ZM0.525 0.333H0.527V0.335Q0.509 0.380 0.503 0.380H0.501V0.378ZM0.512 0.337H0.514V0.340H0.512ZM0.505 0.351V0.353Q0.505 0.356 0.501 0.356V0.355Q0.502 0.351 0.505 0.351ZM0.501 0.356V0.358Q0.468 0.409 0.448 0.409H0.446ZM0.610 0.374 0.614 0.380H0.606L0.605 0.376Q0.607 0.376 0.610 0.374ZM0.668 0.382H0.670Q0.670 0.386 0.674 0.386Q0.672 0.389 0.672 0.391H0.666Q0.666 0.389 0.664 0.386Q0.668 0.386 0.668 0.382ZM0.638 0.395Q0.638 0.398 0.639 0.402Q0.638 0.405 0.638 0.407L0.628 0.406Q0.630 0.398 0.638 0.395ZM0.432 0.418Q0.439 0.420 0.439 0.429V0.434Q0.435 0.434 0.432 0.436Q0.423 0.430 0.423 0.425Q0.425 0.418 0.432 0.418ZM0.337 0.427H0.347L0.345 0.431Q0.347 0.434 0.347 0.436H0.337ZM0.454 0.427H0.463V0.434L0.454 0.436V0.433L0.456 0.429Q0.454 0.429 0.454 0.427ZM0.337 0.451H0.347L0.345 0.455Q0.347 0.458 0.347 0.460H0.337ZM0.361 0.451H0.370V0.460H0.361ZM0.432 0.451H0.439V0.460H0.430Q0.432 0.457 0.432 0.451ZM0.458 0.451H0.463Q0.463 0.457 0.465 0.460H0.454V0.455Q0.454 0.451 0.458 0.451ZM0.337 0.475H0.347Q0.347 0.476 0.345 0.476L0.347 0.480V0.484H0.337ZM0.361 0.475H0.370V0.484H0.361ZM0.430 0.475H0.441L0.439 0.478Q0.441 0.482 0.441 0.484H0.430L0.432 0.480V0.478ZM0.454 0.475H0.463V0.484H0.454ZM0.337 0.498H0.347Q0.347 0.500 0.345 0.500L0.347 0.504V0.506H0.337ZM0.361 0.498H0.370V0.506H0.361ZM0.605 0.511Q0.639 0.515 0.639 0.520Q0.638 0.527 0.628 0.527H0.563Q0.580 0.511 0.605 0.511ZM0.337 0.522H0.347Q0.347 0.524 0.345 0.524L0.347 0.527V0.529H0.337ZM0.361 0.522H0.370V0.529H0.361ZM0.408 0.538Q0.408 0.545 0.412 0.545H0.416V0.554Q0.408 0.554 0.408 0.558Q0.405 0.562 0.375 0.571V0.545Q0.406 0.538 0.408 0.538ZM0.337 0.545H0.347Q0.347 0.547 0.345 0.547L0.347 0.551V0.553Q0.347 0.555 0.334 0.562H0.332V0.554Q0.337 0.550 0.337 0.545ZM0.432 0.545H0.439V0.554H0.435Q0.432 0.554 0.432 0.551ZM0.454 0.545H0.463V0.554H0.454ZM0.370 0.549V0.554H0.361Q0.361 0.551 0.370 0.549ZM0.483 0.551H0.485Q0.504 0.558 0.539 0.591Q0.543 0.591 0.545 0.567Q0.570 0.590 0.570 0.604Q0.583 0.648 0.628 0.678Q0.673 0.690 0.683 0.713H0.681Q0.678 0.713 0.670 0.709L0.645 0.720L0.643 0.716V0.715Q0.649 0.715 0.654 0.707V0.706Q0.654 0.702 0.632 0.697Q0.629 0.698 0.625 0.698L0.623 0.695Q0.625 0.695 0.625 0.693L0.608 0.682Q0.608 0.684 0.606 0.684Q0.606 0.676 0.570 0.644Q0.570 0.640 0.499 0.569ZM0.408 0.566Q0.408 0.569 0.414 0.569V0.577H0.408V0.593H0.414V0.600H0.408V0.616H0.414V0.626L0.410 0.624H0.408V0.640H0.414V0.649H0.408V0.663H0.414V0.671H0.408V0.687H0.414V0.695H0.408V0.702Q0.408 0.708 0.410 0.711L0.408 0.722V0.735Q0.408 0.736 0.410 0.736L0.408 0.740V0.780Q0.408 0.782 0.410 0.782L0.408 0.785V0.813H0.375V0.577ZM0.670 0.567H0.674V0.571H0.670ZM0.319 0.569H0.323Q0.323 0.573 0.319 0.573ZM0.336 0.569H0.345Q0.343 0.572 0.343 0.577H0.332Q0.332 0.584 0.326 0.584H0.323Q0.319 0.584 0.319 0.580Q0.326 0.573 0.330 0.573H0.336ZM0.359 0.569H0.368L0.366 0.573Q0.368 0.573 0.368 0.575L0.365 0.577H0.359ZM0.428 0.569H0.437V0.577H0.430Q0.430 0.572 0.428 0.569ZM0.452 0.569 0.461 0.571V0.577H0.452ZM0.312 0.578V0.580Q0.312 0.582 0.303 0.589V0.584Q0.303 0.579 0.312 0.578ZM0.317 0.584V0.589Q0.317 0.592 0.312 0.595H0.306Q0.306 0.592 0.317 0.584ZM0.359 0.587H0.363Q0.365 0.587 0.368 0.593V0.598Q0.368 0.602 0.365 0.602H0.357Q0.354 0.602 0.354 0.598V0.593Q0.354 0.590 0.359 0.587ZM0.670 0.591H0.674V0.593H0.670ZM0.688 0.591Q0.692 0.593 0.694 0.593V0.600Q0.690 0.600 0.687 0.602Q0.687 0.599 0.683 0.595Q0.686 0.595 0.688 0.591ZM0.430 0.593H0.437V0.600H0.430ZM0.452 0.593H0.461V0.600H0.452ZM0.341 0.596H0.343Q0.343 0.602 0.354 0.604L0.356 0.611Q0.350 0.616 0.343 0.616V0.622L0.345 0.626H0.343Q0.339 0.624 0.337 0.624Q0.337 0.626 0.336 0.626V0.614L0.339 0.616H0.341Q0.341 0.612 0.339 0.609L0.343 0.602Q0.339 0.600 0.337 0.600Q0.338 0.596 0.341 0.596ZM0.283 0.600 0.287 0.602Q0.289 0.600 0.294 0.600Q0.290 0.604 0.290 0.607H0.285ZM0.576 0.600Q0.624 0.649 0.654 0.682H0.652Q0.609 0.667 0.583 0.624Q0.576 0.604 0.576 0.600ZM0.296 0.605H0.297Q0.297 0.613 0.301 0.613H0.303V0.614Q0.297 0.614 0.297 0.618V0.622L0.301 0.620H0.303Q0.306 0.621 0.306 0.624Q0.300 0.635 0.297 0.635H0.294V0.626H0.292L0.289 0.627V0.618Q0.296 0.614 0.296 0.609ZM0.510 0.605 0.518 0.609 0.516 0.613 0.518 0.616Q0.511 0.616 0.508 0.618V0.609Q0.510 0.609 0.510 0.605ZM0.250 0.611H0.254V0.613H0.250ZM0.274 0.614H0.276V0.620H0.274ZM0.437 0.614V0.626Q0.434 0.624 0.430 0.624V0.616Q0.434 0.616 0.437 0.614ZM0.452 0.614Q0.455 0.616 0.461 0.616V0.626Q0.458 0.624 0.452 0.624ZM0.245 0.616H0.246V0.618L0.245 0.627H0.243L0.241 0.618ZM0.359 0.616H0.368V0.626L0.365 0.624L0.361 0.626L0.359 0.622ZM0.319 0.618H0.325Q0.328 0.618 0.330 0.631L0.321 0.633H0.319Q0.316 0.633 0.312 0.626ZM0.670 0.618H0.675V0.620H0.670ZM0.724 0.618Q0.724 0.622 0.726 0.622Q0.724 0.626 0.724 0.627Q0.721 0.626 0.719 0.626V0.620Q0.721 0.620 0.724 0.618ZM0.257 0.620H0.263V0.622H0.257ZM0.229 0.631H0.230L0.239 0.633V0.635H0.229ZM0.257 0.631H0.259V0.637H0.254V0.635Q0.254 0.631 0.257 0.631ZM0.227 0.635H0.229Q0.229 0.637 0.223 0.640V0.638Q0.223 0.635 0.227 0.635ZM0.703 0.635Q0.703 0.639 0.710 0.646Q0.707 0.650 0.707 0.658Q0.692 0.652 0.692 0.649H0.694L0.690 0.642Q0.693 0.642 0.703 0.635ZM0.336 0.638Q0.338 0.640 0.345 0.640Q0.343 0.643 0.343 0.649Q0.340 0.647 0.336 0.647ZM0.361 0.638Q0.364 0.640 0.368 0.640V0.649L0.359 0.647V0.642ZM0.452 0.638 0.461 0.640V0.647Q0.455 0.642 0.452 0.642ZM0.221 0.640H0.223V0.644H0.221ZM0.430 0.640H0.437V0.649Q0.434 0.647 0.430 0.647ZM0.494 0.640Q0.499 0.646 0.506 0.646L0.505 0.655L0.506 0.658Q0.498 0.658 0.494 0.662Q0.494 0.659 0.486 0.651Q0.494 0.649 0.494 0.640ZM0.290 0.642H0.296Q0.293 0.649 0.290 0.649ZM0.241 0.644H0.248V0.646Q0.248 0.649 0.245 0.649Q0.241 0.649 0.241 0.646ZM0.274 0.644Q0.283 0.645 0.283 0.655Q0.283 0.660 0.276 0.660Q0.270 0.658 0.270 0.656ZM0.308 0.644H0.310V0.647H0.308ZM0.232 0.647H0.234V0.651H0.232ZM0.303 0.647H0.308V0.649H0.303ZM0.227 0.651H0.230V0.653H0.227ZM0.552 0.651H0.555V0.653H0.552ZM0.546 0.655H0.550V0.656H0.546ZM0.303 0.660Q0.303 0.669 0.310 0.671V0.667H0.312V0.673Q0.305 0.682 0.296 0.684Q0.290 0.697 0.290 0.700Q0.287 0.698 0.285 0.698L0.287 0.695L0.285 0.691Q0.294 0.682 0.294 0.675H0.292Q0.299 0.660 0.303 0.660ZM0.310 0.662H0.312V0.665H0.310ZM0.225 0.663H0.232V0.665H0.225ZM0.239 0.663H0.245V0.667Q0.241 0.665 0.239 0.665ZM0.336 0.663H0.343V0.671H0.336ZM0.359 0.663H0.368V0.671H0.359ZM0.430 0.663H0.437V0.667Q0.437 0.671 0.434 0.671H0.430ZM0.234 0.667H0.237V0.669H0.234ZM0.452 0.667Q0.456 0.669 0.458 0.669V0.671H0.452ZM0.277 0.675H0.279V0.682H0.277Q0.274 0.682 0.274 0.678Q0.274 0.675 0.277 0.675ZM0.532 0.676H0.534Q0.536 0.676 0.539 0.684Q0.535 0.684 0.532 0.686Q0.532 0.684 0.530 0.680H0.534ZM0.223 0.678H0.239V0.680Q0.235 0.680 0.221 0.695V0.693Q0.223 0.689 0.223 0.687Q0.221 0.687 0.221 0.686Q0.227 0.686 0.227 0.682V0.680H0.223ZM0.245 0.686V0.700H0.243V0.697H0.241Q0.237 0.697 0.237 0.702L0.234 0.700Q0.230 0.702 0.229 0.702Q0.229 0.699 0.245 0.686ZM0.254 0.686H0.255V0.689H0.254ZM0.601 0.686H0.603V0.697L0.599 0.698V0.695ZM0.336 0.687H0.343Q0.343 0.691 0.345 0.695H0.336ZM0.359 0.687H0.368V0.695H0.359ZM0.430 0.687H0.432V0.693H0.430ZM0.272 0.689H0.276V0.691H0.272ZM0.594 0.689V0.700H0.587L0.585 0.697Q0.589 0.697 0.594 0.689ZM0.703 0.689H0.707Q0.710 0.690 0.710 0.693Q0.706 0.697 0.701 0.697V0.698Q0.701 0.700 0.703 0.700L0.701 0.704V0.707H0.705V0.709H0.698Q0.698 0.700 0.694 0.697V0.695Q0.703 0.695 0.703 0.689ZM0.452 0.693H0.456V0.695H0.452ZM0.458 0.693H0.461V0.695H0.458ZM0.712 0.695H0.716V0.697H0.712ZM0.279 0.698V0.702H0.274V0.700Q0.276 0.700 0.279 0.698ZM0.599 0.704H0.601V0.711H0.599ZM0.592 0.706H0.594L0.592 0.715Q0.594 0.715 0.594 0.716L0.590 0.718Q0.590 0.717 0.588 0.707ZM0.643 0.706H0.647V0.707H0.643ZM0.714 0.706V0.711H0.712Q0.709 0.709 0.707 0.709V0.707Q0.711 0.707 0.714 0.706ZM0.354 0.709H0.361V0.716Q0.361 0.720 0.357 0.720Q0.357 0.718 0.356 0.718Q0.356 0.720 0.354 0.720ZM0.446 0.709H0.456V0.711Q0.453 0.711 0.448 0.715Q0.448 0.713 0.446 0.709ZM0.536 0.713 0.537 0.722H0.534Q0.534 0.716 0.530 0.716V0.715Q0.532 0.715 0.536 0.713ZM0.541 0.713H0.543V0.716H0.541ZM0.432 0.715V0.720Q0.428 0.720 0.428 0.716ZM0.668 0.715Q0.693 0.719 0.712 0.740Q0.743 0.774 0.779 0.813H0.737Q0.699 0.777 0.650 0.723Q0.655 0.723 0.668 0.715ZM0.277 0.725H0.279V0.727Q0.277 0.731 0.277 0.733H0.276Q0.276 0.731 0.274 0.727ZM0.647 0.727V0.733L0.639 0.735V0.733Q0.639 0.730 0.647 0.727ZM0.354 0.735H0.361V0.742H0.354ZM0.425 0.735H0.432V0.742H0.423Q0.425 0.739 0.425 0.735ZM0.446 0.735H0.452Q0.452 0.738 0.456 0.738V0.742H0.448Q0.448 0.738 0.446 0.735ZM0.477 0.735H0.479V0.742H0.474Q0.477 0.737 0.477 0.735ZM0.268 0.744H0.270V0.747H0.268ZM0.261 0.757H0.263V0.760H0.261ZM0.354 0.758H0.361V0.762Q0.361 0.766 0.357 0.766H0.354ZM0.425 0.758H0.432V0.766H0.425ZM0.448 0.758H0.456V0.766H0.446Q0.448 0.762 0.448 0.758ZM0.470 0.758H0.479V0.766H0.470ZM0.232 0.762H0.234V0.766H0.232ZM0.252 0.764V0.766Q0.246 0.776 0.246 0.780H0.245L0.243 0.773Q0.244 0.773 0.252 0.764ZM0.425 0.780Q0.426 0.780 0.426 0.782L0.430 0.780H0.432V0.789H0.423Q0.425 0.786 0.425 0.780ZM0.456 0.780V0.789H0.446Q0.448 0.780 0.456 0.780ZM0.470 0.780H0.479V0.789H0.470ZM0.243 0.782H0.245V0.785H0.243ZM0.221 0.783H0.223V0.791H0.221ZM0.229 0.804H0.232V0.807Q0.229 0.807 0.229 0.804ZM0.456 0.804V0.813H0.448Q0.448 0.809 0.446 0.806Q0.453 0.806 0.456 0.804ZM0.479 0.804V0.813H0.470V0.806Q0.476 0.806 0.479 0.804ZM0.232 0.807Q0.236 0.808 0.236 0.811H0.232ZM0.236 0.811H0.239V0.813Q0.237 0.816 0.237 0.818H0.236ZM0.448 0.829H0.456V0.836L0.446 0.834Q0.448 0.831 0.448 0.829ZM0.470 0.829H0.479V0.836H0.470ZM0.234 0.831V0.834L0.232 0.847H0.230V0.834Q0.231 0.831 0.234 0.831Z" fill="black"/>
</svg>
