<svg xmlns="http://www.w3.org/2000/svg" viewBox="0 0 1 1" preserveAspectRatio="xMidYMid meet">
  <path d="M0.480 0.113Q0.480 0.123 0.482 0.142H0.476V0.117Q0.477 0.113 0.480 0.113ZM0.506 0.118H0.509Q0.507 0.120 0.506 0.144H0.498Q0.506 0.123 0.506 0.118ZM0.449 0.122Q0.453 0.122 0.460 0.140V0.147Q0.456 0.147 0.456 0.149Q0.456 0.153 0.460 0.169V0.175H0.458ZM0.413 0.129V0.157Q0.440 0.179 0.442 0.184V0.186L0.424 0.171H0.422V0.175Q0.426 0.175 0.431 0.184V0.186H0.427L0.416 0.168H0.413V0.169Q0.413 0.171 0.415 0.171L0.413 0.175V0.182L0.420 0.189H0.418Q0.412 0.186 0.409 0.186V0.188L0.411 0.191H0.407V0.184Q0.407 0.180 0.402 0.162V0.135Q0.402 0.131 0.413 0.129ZM0.422 0.129H0.426Q0.426 0.133 0.440 0.153V0.155Q0.436 0.155 0.436 0.158H0.435Q0.435 0.156 0.422 0.129ZM0.535 0.129V0.131Q0.524 0.155 0.524 0.158H0.522V0.155H0.520L0.516 0.157V0.155Q0.533 0.129 0.535 0.129ZM0.559 0.145V0.147Q0.543 0.169 0.538 0.171V0.168H0.536L0.531 0.171V0.166Q0.536 0.166 0.559 0.145ZM0.460 0.147H0.462V0.153H0.460ZM0.475 0.147H0.476Q0.476 0.153 0.480 0.153V0.155H0.476V0.169L0.475 0.179H0.473Q0.469 0.179 0.469 0.175H0.473Q0.473 0.166 0.475 0.147ZM0.480 0.147H0.482V0.153H0.480ZM0.504 0.149Q0.502 0.157 0.502 0.164H0.500V0.151ZM0.495 0.151H0.497V0.157H0.495ZM0.462 0.153H0.464V0.158H0.462ZM0.440 0.155Q0.449 0.163 0.449 0.169Q0.440 0.161 0.440 0.155ZM0.484 0.155Q0.484 0.160 0.486 0.160L0.484 0.164V0.175H0.488Q0.489 0.162 0.493 0.162V0.164L0.486 0.188H0.484Q0.480 0.158 0.480 0.157ZM0.493 0.157H0.495V0.162H0.493ZM0.516 0.157V0.158Q0.516 0.162 0.513 0.162V0.160Q0.513 0.157 0.516 0.157ZM0.464 0.158H0.465Q0.469 0.170 0.469 0.173V0.175H0.467Q0.467 0.172 0.464 0.160ZM0.520 0.158H0.522V0.162H0.520ZM0.513 0.162V0.164Q0.510 0.171 0.507 0.171V0.169Q0.510 0.162 0.513 0.162ZM0.518 0.162H0.520V0.166H0.518ZM0.708 0.162Q0.711 0.163 0.711 0.166L0.702 0.168Q0.699 0.166 0.697 0.166Q0.689 0.169 0.686 0.169Q0.686 0.162 0.708 0.162ZM0.753 0.162H0.762V0.164Q0.759 0.164 0.759 0.166Q0.755 0.164 0.753 0.164ZM0.438 0.164H0.440V0.168H0.438ZM0.498 0.164H0.500V0.175H0.498ZM0.516 0.166H0.518V0.169Q0.516 0.173 0.516 0.175H0.514V0.171Q0.516 0.168 0.516 0.166ZM0.380 0.168Q0.396 0.177 0.402 0.177V0.186Q0.384 0.171 0.380 0.171ZM0.440 0.168H0.442Q0.442 0.171 0.447 0.180H0.444L0.440 0.169ZM0.576 0.168V0.169L0.555 0.188V0.189H0.608L0.602 0.197V0.202H0.673Q0.675 0.202 0.675 0.204Q0.687 0.198 0.691 0.198L0.688 0.204Q0.688 0.207 0.691 0.207Q0.690 0.216 0.682 0.217Q0.682 0.209 0.677 0.209H0.675V0.235H0.637V0.239H0.631V0.237H0.635V0.235H0.631Q0.628 0.235 0.628 0.237L0.615 0.235H0.598V0.237H0.602Q0.600 0.240 0.600 0.246H0.596V0.244Q0.596 0.224 0.591 0.224Q0.588 0.224 0.576 0.250L0.553 0.246V0.244Q0.564 0.231 0.564 0.224V0.218Q0.564 0.204 0.544 0.198Q0.532 0.198 0.522 0.209V0.195Q0.542 0.186 0.544 0.186V0.189H0.548Q0.550 0.189 0.553 0.184H0.548V0.182Q0.552 0.182 0.576 0.168ZM0.449 0.169Q0.453 0.170 0.453 0.173V0.175Q0.449 0.175 0.449 0.171ZM0.660 0.169H0.666Q0.666 0.173 0.662 0.173H0.660ZM0.720 0.169H0.722Q0.726 0.170 0.726 0.173H0.724Q0.720 0.173 0.720 0.169ZM0.507 0.171V0.173Q0.507 0.177 0.504 0.177V0.175Q0.504 0.171 0.507 0.171ZM0.529 0.171H0.531Q0.531 0.173 0.516 0.186H0.514Q0.514 0.183 0.529 0.171ZM0.538 0.171V0.173Q0.538 0.176 0.533 0.179V0.177Q0.533 0.174 0.538 0.171ZM0.658 0.173H0.660Q0.660 0.175 0.662 0.179L0.675 0.177H0.681V0.179Q0.647 0.185 0.647 0.195Q0.636 0.200 0.626 0.200V0.198Q0.626 0.189 0.619 0.189V0.188Q0.635 0.188 0.640 0.177L0.644 0.179H0.655Q0.658 0.179 0.658 0.173ZM0.497 0.175H0.498V0.179H0.500L0.504 0.177V0.179Q0.504 0.182 0.500 0.182H0.497ZM0.513 0.175H0.514V0.179H0.513ZM0.511 0.179H0.513V0.182H0.511ZM0.456 0.180H0.462Q0.462 0.186 0.464 0.189H0.460Q0.460 0.186 0.456 0.182ZM0.531 0.180V0.182Q0.531 0.185 0.525 0.188V0.186Q0.525 0.183 0.531 0.180ZM0.544 0.184H0.548V0.186H0.544ZM0.431 0.186Q0.440 0.191 0.440 0.200H0.438Q0.427 0.196 0.427 0.193H0.429Q0.432 0.195 0.436 0.195L0.431 0.188ZM0.447 0.186Q0.452 0.186 0.453 0.195Q0.450 0.195 0.447 0.189ZM0.690 0.186H0.693V0.188H0.690ZM0.509 0.188 0.511 0.191 0.506 0.195H0.504Q0.506 0.188 0.509 0.188ZM0.686 0.188H0.690V0.189H0.686ZM0.731 0.188H0.735V0.189H0.731ZM0.420 0.189H0.424V0.191H0.420ZM0.713 0.189H0.724V0.193Q0.720 0.193 0.717 0.195Q0.714 0.193 0.709 0.193Q0.710 0.189 0.713 0.189ZM0.411 0.191H0.413Q0.416 0.191 0.418 0.197H0.416Q0.414 0.197 0.411 0.191ZM0.424 0.191H0.427V0.193H0.424ZM0.380 0.197H0.383V0.198H0.380ZM0.418 0.197H0.420L0.427 0.202H0.440Q0.440 0.212 0.469 0.229Q0.472 0.239 0.475 0.239H0.476L0.486 0.231H0.488V0.244Q0.488 0.251 0.497 0.260Q0.493 0.260 0.476 0.269Q0.469 0.255 0.456 0.255Q0.453 0.255 0.440 0.262V0.259H0.436V0.262H0.431Q0.435 0.255 0.440 0.255Q0.440 0.222 0.422 0.222H0.415Q0.407 0.222 0.396 0.233Q0.396 0.225 0.380 0.222H0.373Q0.364 0.222 0.355 0.235H0.300V0.222Q0.296 0.204 0.282 0.204H0.276Q0.261 0.204 0.256 0.226V0.235H0.238V0.202H0.362Q0.372 0.202 0.387 0.204L0.398 0.200L0.409 0.202H0.422ZM0.513 0.198H0.516V0.200Q0.516 0.221 0.488 0.224Q0.486 0.224 0.476 0.231H0.475Q0.472 0.221 0.447 0.207Q0.447 0.205 0.445 0.202H0.500Q0.504 0.202 0.507 0.200H0.513ZM0.713 0.198H0.717V0.200H0.713ZM0.542 0.204Q0.559 0.206 0.559 0.220V0.222Q0.559 0.226 0.544 0.251Q0.542 0.255 0.542 0.257L0.531 0.255Q0.521 0.257 0.516 0.257Q0.516 0.253 0.513 0.253Q0.503 0.255 0.498 0.255Q0.493 0.248 0.493 0.242V0.235Q0.500 0.224 0.509 0.224Q0.517 0.227 0.524 0.231L0.527 0.229L0.525 0.226V0.220Q0.528 0.204 0.542 0.204ZM0.278 0.209H0.285Q0.295 0.214 0.295 0.224V0.231Q0.295 0.235 0.291 0.235H0.261V0.229Q0.261 0.209 0.278 0.209ZM0.520 0.209H0.522V0.213H0.520ZM0.520 0.215V0.222Q0.517 0.220 0.514 0.220Q0.514 0.217 0.520 0.215ZM0.711 0.218H0.715V0.220H0.711ZM0.684 0.224 0.686 0.228H0.681Q0.681 0.224 0.684 0.224ZM0.374 0.228H0.380Q0.389 0.228 0.394 0.239L0.392 0.242V0.244H0.396Q0.407 0.228 0.416 0.228H0.420Q0.433 0.228 0.433 0.241V0.246Q0.433 0.251 0.422 0.251V0.250L0.411 0.251Q0.401 0.250 0.396 0.250L0.398 0.246H0.394L0.392 0.255Q0.394 0.255 0.394 0.257H0.389L0.382 0.251Q0.372 0.253 0.367 0.253H0.364V0.251Q0.376 0.251 0.383 0.235H0.364V0.233Q0.365 0.228 0.374 0.228ZM0.564 0.235V0.237H0.576V0.235ZM0.589 0.235H0.591Q0.591 0.239 0.593 0.255Q0.582 0.253 0.582 0.251Q0.589 0.238 0.589 0.235ZM0.644 0.239H0.655V0.241H0.644ZM0.624 0.246Q0.628 0.246 0.628 0.250Q0.628 0.253 0.624 0.253H0.620Q0.624 0.249 0.624 0.246ZM0.418 0.253H0.422V0.255H0.418ZM0.548 0.253H0.549Q0.551 0.253 0.566 0.269V0.273H0.564Q0.546 0.267 0.544 0.267L0.548 0.262ZM0.559 0.253H0.564L0.573 0.255L0.571 0.266Q0.568 0.266 0.559 0.253ZM0.617 0.253H0.620V0.255H0.617ZM0.658 0.253V0.259L0.647 0.260Q0.647 0.255 0.658 0.253ZM0.690 0.253H0.695V0.255H0.690ZM0.418 0.255Q0.418 0.259 0.405 0.262Q0.405 0.259 0.418 0.255ZM0.686 0.255H0.690V0.257H0.686ZM0.595 0.257Q0.598 0.259 0.604 0.259V0.260L0.595 0.262ZM0.456 0.260Q0.473 0.264 0.473 0.278L0.471 0.288Q0.475 0.289 0.476 0.289L0.475 0.312V0.315H0.473L0.460 0.313Q0.457 0.315 0.453 0.315Q0.453 0.304 0.440 0.282V0.275L0.444 0.267Q0.442 0.267 0.442 0.266Q0.456 0.262 0.456 0.260ZM0.529 0.260H0.533V0.262H0.529ZM0.402 0.262H0.405V0.264H0.402ZM0.535 0.262H0.540V0.264H0.535ZM0.402 0.264 0.400 0.267 0.402 0.271Q0.395 0.273 0.394 0.273L0.392 0.269Q0.392 0.265 0.402 0.264ZM0.509 0.264H0.511Q0.520 0.269 0.520 0.271Q0.516 0.271 0.516 0.275H0.514Q0.514 0.272 0.509 0.264ZM0.525 0.264H0.527Q0.530 0.264 0.546 0.282H0.544Q0.541 0.282 0.525 0.264ZM0.540 0.264H0.544V0.266H0.540ZM0.409 0.266H0.413V0.267H0.409ZM0.427 0.267H0.429Q0.429 0.270 0.418 0.278H0.416Q0.416 0.276 0.427 0.267ZM0.385 0.271H0.387Q0.391 0.272 0.391 0.275L0.387 0.277L0.385 0.273ZM0.500 0.271H0.502Q0.529 0.302 0.531 0.302V0.299Q0.535 0.299 0.548 0.326L0.506 0.280V0.288H0.504Q0.504 0.283 0.500 0.271ZM0.520 0.271H0.522Q0.525 0.272 0.525 0.275H0.524Q0.520 0.275 0.520 0.271ZM0.573 0.273Q0.584 0.277 0.584 0.280H0.580Q0.574 0.277 0.569 0.277Q0.570 0.273 0.573 0.273ZM0.489 0.275Q0.493 0.276 0.493 0.278V0.280H0.489ZM0.516 0.275Q0.520 0.276 0.520 0.278V0.280Q0.516 0.280 0.516 0.277ZM0.525 0.275H0.527Q0.530 0.275 0.533 0.280H0.531Q0.528 0.280 0.525 0.275ZM0.478 0.277H0.480V0.282H0.478ZM0.520 0.280Q0.524 0.280 0.525 0.289Q0.522 0.289 0.520 0.280ZM0.533 0.280H0.535Q0.538 0.281 0.538 0.284H0.536Q0.533 0.284 0.533 0.280ZM0.420 0.282V0.286H0.416Q0.417 0.282 0.420 0.282ZM0.546 0.282Q0.548 0.282 0.555 0.291V0.295H0.553L0.544 0.289Q0.546 0.286 0.546 0.282ZM0.411 0.284Q0.411 0.288 0.415 0.288V0.289Q0.412 0.289 0.407 0.293Q0.407 0.291 0.405 0.291Q0.398 0.301 0.389 0.306V0.304Q0.389 0.302 0.411 0.284ZM0.538 0.284H0.540Q0.544 0.285 0.544 0.288H0.542Q0.538 0.288 0.538 0.284ZM0.435 0.286V0.289H0.431Q0.431 0.286 0.435 0.286ZM0.489 0.286H0.491L0.493 0.299V0.319H0.488V0.317H0.491V0.308Q0.491 0.300 0.489 0.288ZM0.480 0.288H0.482Q0.486 0.301 0.486 0.304V0.308H0.484L0.480 0.289ZM0.497 0.288H0.498V0.291H0.497ZM0.525 0.289Q0.529 0.290 0.529 0.293V0.295Q0.525 0.295 0.525 0.291ZM0.498 0.291H0.500V0.295H0.498ZM0.427 0.293H0.429V0.297H0.427ZM0.500 0.295H0.502V0.299H0.500ZM0.529 0.295H0.531V0.299H0.529ZM0.426 0.297H0.427V0.302L0.435 0.297V0.299Q0.413 0.323 0.413 0.326H0.411V0.320Q0.426 0.302 0.426 0.297ZM0.509 0.297H0.511V0.304H0.509ZM0.562 0.297Q0.569 0.305 0.569 0.306H0.567Q0.561 0.301 0.559 0.301Q0.559 0.297 0.562 0.297ZM0.502 0.299H0.504V0.302H0.502ZM0.444 0.302H0.445L0.447 0.315V0.319Q0.442 0.335 0.442 0.337L0.438 0.335V0.338H0.436V0.337Q0.444 0.305 0.444 0.302ZM0.511 0.304H0.513V0.310H0.511ZM0.486 0.308H0.488V0.317H0.486ZM0.514 0.310Q0.514 0.315 0.522 0.337Q0.518 0.337 0.511 0.319Q0.509 0.319 0.509 0.312Q0.511 0.312 0.514 0.310ZM0.374 0.315H0.376Q0.398 0.326 0.400 0.331H0.398Q0.374 0.317 0.374 0.315ZM0.464 0.319 0.465 0.322Q0.457 0.338 0.454 0.338H0.451V0.337Q0.451 0.319 0.464 0.319ZM0.475 0.322V0.333Q0.475 0.343 0.467 0.346L0.464 0.340Q0.472 0.322 0.475 0.322ZM0.489 0.324H0.493Q0.493 0.329 0.495 0.338L0.491 0.340L0.489 0.328ZM0.405 0.335Q0.409 0.336 0.409 0.338H0.405ZM0.444 0.340H0.445Q0.450 0.344 0.462 0.346L0.467 0.355L0.465 0.359Q0.467 0.359 0.467 0.361Q0.465 0.361 0.465 0.362Q0.467 0.362 0.467 0.364L0.471 0.362H0.475V0.366Q0.468 0.368 0.467 0.368Q0.467 0.366 0.465 0.366Q0.465 0.370 0.451 0.381Q0.453 0.381 0.453 0.382L0.456 0.381H0.458Q0.462 0.393 0.467 0.400Q0.467 0.404 0.464 0.404Q0.464 0.398 0.449 0.390L0.445 0.391Q0.442 0.390 0.440 0.390Q0.440 0.388 0.442 0.388Q0.439 0.373 0.413 0.344V0.342Q0.438 0.366 0.438 0.372H0.440V0.346Q0.445 0.346 0.445 0.342Q0.444 0.342 0.444 0.340ZM0.473 0.353H0.475V0.357H0.473ZM0.444 0.381 0.442 0.384 0.445 0.386 0.447 0.382ZM0.473 0.379H0.475V0.384Q0.475 0.387 0.467 0.391V0.390Q0.473 0.381 0.473 0.379ZM0.442 0.413H0.444V0.417H0.442ZM0.453 0.417V0.419Q0.453 0.422 0.449 0.422V0.421Q0.450 0.417 0.453 0.417ZM0.445 0.426V0.428Q0.445 0.431 0.440 0.434V0.432Q0.440 0.429 0.445 0.426ZM0.453 0.432Q0.453 0.434 0.454 0.437Q0.461 0.434 0.464 0.434Q0.464 0.435 0.454 0.446Q0.456 0.446 0.456 0.448L0.460 0.446H0.462Q0.454 0.454 0.454 0.455L0.458 0.457Q0.465 0.452 0.469 0.452Q0.458 0.461 0.458 0.462Q0.462 0.464 0.464 0.464L0.462 0.468L0.464 0.471Q0.467 0.470 0.469 0.470H0.471V0.471Q0.465 0.471 0.465 0.475L0.467 0.479Q0.471 0.477 0.473 0.477H0.475V0.479Q0.467 0.480 0.467 0.484Q0.471 0.486 0.473 0.486L0.469 0.492Q0.473 0.494 0.475 0.494L0.471 0.499Q0.475 0.499 0.475 0.503V0.512Q0.475 0.514 0.473 0.514L0.475 0.517L0.471 0.522Q0.475 0.523 0.475 0.526V0.531L0.471 0.537L0.473 0.541Q0.467 0.541 0.467 0.544L0.469 0.548Q0.464 0.548 0.464 0.552L0.476 0.559L0.475 0.572V0.583Q0.488 0.567 0.493 0.552H0.495Q0.495 0.556 0.497 0.559Q0.493 0.560 0.493 0.563Q0.493 0.568 0.495 0.568Q0.493 0.575 0.493 0.584H0.491V0.574H0.489Q0.475 0.589 0.475 0.593L0.471 0.592H0.469Q0.465 0.592 0.465 0.597L0.462 0.595H0.458Q0.447 0.600 0.447 0.602Q0.453 0.615 0.462 0.615Q0.464 0.612 0.464 0.610Q0.470 0.614 0.473 0.614Q0.473 0.610 0.476 0.610Q0.476 0.618 0.478 0.621Q0.484 0.617 0.488 0.617V0.599H0.478Q0.478 0.597 0.489 0.593V0.584H0.491Q0.491 0.595 0.495 0.599V0.602L0.491 0.601Q0.491 0.605 0.489 0.615Q0.502 0.619 0.502 0.630H0.506Q0.506 0.623 0.511 0.623L0.522 0.625H0.525Q0.525 0.631 0.531 0.637Q0.520 0.637 0.509 0.652V0.655Q0.514 0.655 0.514 0.659Q0.522 0.655 0.527 0.655Q0.535 0.659 0.538 0.659V0.639H0.540Q0.544 0.672 0.544 0.683H0.542L0.538 0.681Q0.538 0.683 0.536 0.683L0.538 0.674V0.663Q0.537 0.663 0.527 0.661Q0.516 0.665 0.516 0.674H0.518L0.524 0.670Q0.526 0.670 0.531 0.677L0.525 0.681H0.524L0.518 0.677V0.681L0.525 0.688Q0.521 0.692 0.516 0.692L0.518 0.696Q0.516 0.696 0.509 0.705L0.513 0.707L0.520 0.698L0.529 0.699Q0.533 0.699 0.533 0.696V0.692H0.531Q0.527 0.694 0.525 0.694Q0.525 0.691 0.533 0.687Q0.533 0.689 0.538 0.692L0.540 0.688Q0.538 0.688 0.538 0.687L0.542 0.685Q0.542 0.688 0.548 0.694Q0.545 0.694 0.542 0.699V0.701Q0.565 0.696 0.569 0.674V0.666Q0.557 0.657 0.557 0.655Q0.559 0.652 0.559 0.650L0.557 0.646Q0.560 0.640 0.560 0.637L0.557 0.636L0.544 0.637Q0.551 0.623 0.553 0.623H0.555Q0.560 0.628 0.566 0.628L0.564 0.637V0.639Q0.568 0.661 0.585 0.661Q0.609 0.658 0.609 0.637H0.611Q0.611 0.641 0.613 0.641Q0.613 0.661 0.584 0.666H0.580Q0.584 0.683 0.584 0.690V0.692Q0.580 0.699 0.578 0.699L0.580 0.708V0.712L0.578 0.716H0.584Q0.569 0.732 0.569 0.748H0.566Q0.566 0.739 0.562 0.739Q0.546 0.752 0.531 0.752Q0.531 0.743 0.516 0.732Q0.512 0.717 0.509 0.717Q0.492 0.723 0.488 0.723Q0.482 0.714 0.475 0.714V0.719L0.478 0.724L0.475 0.730V0.743L0.486 0.737L0.506 0.759Q0.484 0.759 0.475 0.781Q0.475 0.789 0.486 0.803L0.482 0.805Q0.482 0.803 0.480 0.803Q0.480 0.816 0.475 0.816V0.819L0.473 0.838H0.471L0.469 0.825V0.821L0.473 0.816V0.812H0.456Q0.454 0.812 0.454 0.810L0.451 0.812H0.440V0.763Q0.435 0.763 0.431 0.756L0.438 0.750Q0.438 0.752 0.440 0.752V0.732L0.433 0.723Q0.440 0.720 0.440 0.703Q0.444 0.703 0.444 0.707H0.442Q0.444 0.714 0.447 0.714L0.451 0.708Q0.447 0.708 0.447 0.705Q0.449 0.705 0.449 0.703Q0.445 0.703 0.445 0.699Q0.447 0.699 0.447 0.698L0.444 0.696Q0.444 0.698 0.442 0.698L0.440 0.694H0.442L0.438 0.687Q0.438 0.682 0.451 0.679Q0.454 0.689 0.464 0.694L0.465 0.690V0.688Q0.465 0.687 0.464 0.687L0.465 0.683V0.677Q0.465 0.675 0.460 0.672H0.456Q0.447 0.672 0.447 0.675Q0.444 0.674 0.440 0.674V0.663L0.435 0.655Q0.437 0.655 0.440 0.650V0.608L0.444 0.610L0.445 0.606L0.442 0.604Q0.442 0.606 0.440 0.606V0.595Q0.430 0.607 0.420 0.612V0.610Q0.440 0.574 0.440 0.568V0.437L0.444 0.439Q0.444 0.436 0.453 0.432ZM0.475 0.439 0.476 0.446V0.448H0.475Q0.475 0.443 0.469 0.443Q0.465 0.444 0.464 0.444Q0.464 0.439 0.475 0.439ZM0.469 0.450H0.473V0.452H0.469ZM0.471 0.459H0.475V0.461H0.471ZM0.467 0.461H0.471V0.462H0.467ZM0.464 0.462H0.467V0.464H0.464ZM0.471 0.468H0.475V0.470H0.471ZM0.484 0.473V0.477H0.480Q0.481 0.473 0.484 0.473ZM0.484 0.481V0.484H0.480Q0.481 0.481 0.484 0.481ZM0.480 0.492H0.486V0.494H0.480ZM0.502 0.499H0.504V0.505Q0.504 0.513 0.500 0.533H0.498V0.531Q0.498 0.524 0.502 0.499ZM0.480 0.501H0.486V0.519H0.480L0.484 0.514Q0.480 0.514 0.480 0.510ZM0.480 0.524Q0.484 0.525 0.484 0.528H0.480ZM0.478 0.533H0.484V0.535H0.478ZM0.500 0.535V0.539H0.497Q0.497 0.535 0.500 0.535ZM0.478 0.542H0.482V0.544H0.478ZM0.495 0.546H0.498V0.548Q0.498 0.552 0.495 0.552ZM0.469 0.548H0.475V0.550H0.469ZM0.475 0.550H0.478V0.552H0.475ZM0.454 0.568 0.453 0.572 0.458 0.579H0.456L0.451 0.575Q0.447 0.576 0.447 0.579L0.456 0.586Q0.460 0.586 0.460 0.583L0.458 0.579H0.460Q0.464 0.581 0.465 0.581L0.467 0.577ZM0.518 0.566Q0.531 0.585 0.531 0.599H0.542V0.602L0.540 0.606L0.536 0.604H0.533L0.529 0.606Q0.529 0.598 0.518 0.566ZM0.442 0.584 0.453 0.593 0.454 0.590Q0.454 0.588 0.445 0.581Q0.442 0.581 0.442 0.584ZM0.504 0.581H0.506V0.586H0.502Q0.504 0.583 0.504 0.581ZM0.584 0.602H0.587Q0.608 0.602 0.615 0.634Q0.602 0.622 0.585 0.612Q0.589 0.612 0.589 0.608Q0.587 0.608 0.584 0.602ZM0.500 0.604H0.502Q0.514 0.612 0.514 0.615V0.619Q0.504 0.608 0.500 0.608ZM0.573 0.604H0.576Q0.580 0.605 0.580 0.608L0.578 0.612V0.617Q0.577 0.617 0.567 0.625V0.623Q0.569 0.619 0.569 0.617L0.567 0.614Q0.570 0.604 0.573 0.604ZM0.564 0.606V0.610Q0.562 0.614 0.562 0.615Q0.559 0.614 0.557 0.614Q0.557 0.611 0.564 0.606ZM0.538 0.612H0.542V0.614H0.538ZM0.482 0.623Q0.482 0.625 0.480 0.625L0.482 0.628V0.630L0.478 0.628L0.471 0.636Q0.475 0.636 0.475 0.639V0.641L0.471 0.639L0.469 0.643L0.476 0.648Q0.476 0.645 0.488 0.645V0.643Q0.488 0.641 0.486 0.641Q0.488 0.638 0.488 0.636L0.491 0.637H0.498V0.626Q0.498 0.623 0.495 0.623H0.489V0.628H0.488Q0.488 0.623 0.482 0.623ZM0.531 0.626 0.540 0.628V0.630L0.538 0.634Q0.531 0.631 0.531 0.628ZM0.478 0.634H0.480V0.637H0.478ZM0.465 0.643Q0.465 0.646 0.462 0.646Q0.462 0.645 0.460 0.645L0.458 0.648L0.462 0.650Q0.463 0.646 0.465 0.646V0.648L0.462 0.654L0.465 0.655Q0.465 0.653 0.471 0.650Q0.468 0.643 0.465 0.643ZM0.484 0.646 0.478 0.654Q0.481 0.654 0.484 0.659L0.488 0.657L0.491 0.659L0.493 0.655Q0.489 0.655 0.489 0.652L0.486 0.654H0.484L0.488 0.648ZM0.471 0.652 0.465 0.659 0.469 0.661 0.475 0.654ZM0.502 0.654Q0.502 0.656 0.495 0.661V0.659L0.488 0.663L0.489 0.666Q0.489 0.669 0.484 0.672Q0.484 0.670 0.482 0.666Q0.475 0.669 0.475 0.672L0.478 0.674Q0.478 0.672 0.480 0.672Q0.480 0.675 0.486 0.677L0.506 0.655ZM0.454 0.664 0.464 0.670Q0.465 0.666 0.465 0.664Q0.463 0.657 0.460 0.657Q0.457 0.657 0.454 0.664ZM0.475 0.657 0.469 0.664Q0.473 0.665 0.473 0.668L0.480 0.664Q0.477 0.657 0.475 0.657ZM0.506 0.664Q0.506 0.666 0.504 0.670L0.507 0.672L0.509 0.668V0.664ZM0.424 0.666Q0.427 0.666 0.431 0.674L0.422 0.679Q0.422 0.676 0.418 0.672Q0.418 0.669 0.424 0.666ZM0.596 0.675H0.600V0.683H0.593V0.679Q0.594 0.675 0.596 0.675ZM0.456 0.677H0.460V0.681H0.456ZM0.407 0.683Q0.408 0.687 0.411 0.687Q0.408 0.696 0.405 0.696L0.400 0.688ZM0.535 0.698V0.701H0.540V0.698ZM0.389 0.699 0.394 0.703Q0.392 0.710 0.389 0.710Q0.386 0.710 0.383 0.705Q0.383 0.702 0.389 0.699ZM0.424 0.699Q0.424 0.705 0.429 0.705Q0.429 0.708 0.422 0.712L0.416 0.705ZM0.560 0.703 0.535 0.730 0.538 0.732 0.564 0.705ZM0.407 0.716Q0.407 0.718 0.411 0.723Q0.411 0.725 0.405 0.728Q0.403 0.728 0.398 0.721ZM0.591 0.717H0.596Q0.608 0.725 0.608 0.734V0.745H0.606Q0.606 0.721 0.587 0.721Q0.588 0.717 0.591 0.717ZM0.507 0.723Q0.507 0.731 0.514 0.735L0.513 0.739V0.741Q0.513 0.744 0.525 0.747V0.752Q0.525 0.772 0.520 0.772Q0.517 0.765 0.509 0.763Q0.509 0.759 0.522 0.754L0.524 0.750Q0.524 0.747 0.520 0.747H0.518L0.509 0.754L0.498 0.743Q0.500 0.739 0.500 0.737Q0.495 0.737 0.493 0.728ZM0.488 0.730H0.489V0.735H0.488ZM0.422 0.734Q0.425 0.734 0.427 0.739Q0.427 0.742 0.420 0.747Q0.420 0.744 0.416 0.739Q0.416 0.736 0.422 0.734ZM0.584 0.734 0.589 0.737Q0.589 0.735 0.591 0.735Q0.598 0.744 0.598 0.745L0.593 0.748Q0.582 0.748 0.582 0.739Q0.584 0.735 0.584 0.734ZM0.573 0.750 0.582 0.756H0.589L0.598 0.754Q0.597 0.759 0.584 0.759Q0.581 0.759 0.569 0.754V0.752Q0.573 0.752 0.573 0.750ZM0.531 0.758H0.533Q0.533 0.763 0.538 0.763L0.535 0.768Q0.535 0.772 0.540 0.772L0.538 0.776Q0.538 0.777 0.540 0.777L0.538 0.781V0.785Q0.544 0.785 0.544 0.788Q0.536 0.788 0.536 0.799Q0.538 0.799 0.538 0.801Q0.535 0.801 0.535 0.808L0.531 0.807H0.529Q0.529 0.814 0.522 0.816Q0.513 0.817 0.513 0.823L0.509 0.821Q0.509 0.823 0.507 0.823V0.821L0.509 0.818Q0.509 0.814 0.506 0.807Q0.519 0.807 0.525 0.774Q0.530 0.774 0.531 0.758ZM0.489 0.768 0.491 0.772Q0.491 0.775 0.484 0.779L0.482 0.776Q0.482 0.773 0.489 0.768ZM0.498 0.774 0.500 0.777Q0.497 0.778 0.497 0.781Q0.504 0.783 0.507 0.790L0.504 0.792H0.497Q0.492 0.792 0.489 0.779ZM0.506 0.777Q0.509 0.778 0.509 0.781V0.783Q0.506 0.783 0.506 0.779ZM0.535 0.785 0.509 0.812 0.513 0.814 0.538 0.786ZM0.491 0.818H0.495V0.819H0.491ZM0.493 0.823H0.495V0.827H0.493ZM0.507 0.834Q0.514 0.837 0.516 0.845Q0.507 0.845 0.507 0.848H0.506Q0.502 0.848 0.502 0.845Q0.505 0.845 0.507 0.838H0.504Q0.504 0.834 0.507 0.834ZM0.473 0.839Q0.476 0.840 0.476 0.843V0.845Q0.473 0.845 0.473 0.841ZM0.491 0.841H0.495Q0.495 0.845 0.491 0.845ZM0.478 0.847H0.480L0.486 0.850H0.488L0.491 0.848V0.852L0.495 0.850H0.497V0.854H0.484Q0.481 0.854 0.478 0.848ZM0.520 0.850V0.874Q0.517 0.874 0.513 0.854ZM0.502 0.856 0.511 0.870Q0.507 0.871 0.507 0.874Q0.509 0.874 0.509 0.876H0.506Q0.506 0.870 0.493 0.861H0.491V0.867H0.489V0.859ZM0.491 0.868H0.493V0.872H0.491ZM0.516 0.881H0.518V0.907H0.516ZM0.502 0.885H0.506V0.887H0.502Z" fill="black"/>
</svg>
