<svg xmlns="http://www.w3.org/2000/svg" viewBox="0 0 1 1" preserveAspectRatio="xMidYMid meet">
  <path d="M0.251 0.168Q0.251 0.171 0.264 0.179Q0.262 0.184 0.260 0.184L0.262 0.193V0.197L0.253 0.195Q0.251 0.195 0.238 0.199V0.186Q0.232 0.186 0.229 0.179Q0.233 0.179 0.251 0.168ZM0.344 0.182Q0.348 0.183 0.348 0.186H0.344ZM0.404 0.193H0.408Q0.408 0.197 0.404 0.197ZM0.402 0.197H0.404V0.201H0.402ZM0.289 0.203H0.318Q0.321 0.204 0.349 0.279Q0.342 0.282 0.342 0.285L0.348 0.313H0.340Q0.324 0.313 0.324 0.296Q0.322 0.296 0.314 0.274Q0.316 0.274 0.316 0.272Q0.313 0.272 0.307 0.256Q0.313 0.256 0.316 0.248Q0.310 0.236 0.307 0.236H0.303L0.300 0.238Q0.300 0.227 0.291 0.227V0.223H0.293L0.296 0.225Q0.289 0.207 0.289 0.203ZM0.709 0.203H0.713V0.205Q0.711 0.207 0.711 0.214H0.717L0.715 0.217Q0.717 0.220 0.717 0.227Q0.712 0.227 0.708 0.230H0.706Q0.706 0.228 0.700 0.223Q0.706 0.203 0.709 0.203ZM0.448 0.206H0.452V0.210H0.448ZM0.729 0.206H0.733V0.208H0.729ZM0.733 0.210H0.737V0.212H0.733ZM0.722 0.214H0.726V0.216H0.722ZM0.726 0.216Q0.729 0.217 0.731 0.217Q0.731 0.221 0.728 0.221L0.726 0.217ZM0.699 0.225H0.700V0.234Q0.697 0.234 0.697 0.230Q0.699 0.227 0.699 0.225ZM0.287 0.229H0.289Q0.293 0.229 0.293 0.232H0.291Q0.287 0.232 0.287 0.229ZM0.728 0.230 0.729 0.234 0.726 0.236 0.724 0.232ZM0.293 0.232H0.294Q0.298 0.232 0.298 0.236H0.296Q0.293 0.236 0.293 0.232ZM0.695 0.234H0.697V0.238H0.695ZM0.717 0.234Q0.724 0.241 0.724 0.248Q0.721 0.248 0.713 0.236ZM0.790 0.234 0.792 0.247V0.248H0.790Q0.790 0.243 0.786 0.236ZM0.470 0.236 0.479 0.241 0.477 0.245V0.247L0.479 0.250Q0.471 0.250 0.468 0.252Q0.467 0.245 0.463 0.245V0.241Q0.466 0.241 0.470 0.236ZM0.276 0.238Q0.282 0.241 0.285 0.241V0.243H0.282Q0.278 0.241 0.276 0.241ZM0.446 0.238H0.450V0.239H0.446ZM0.293 0.239H0.296V0.241H0.293ZM0.693 0.239 0.708 0.258Q0.708 0.256 0.709 0.256Q0.709 0.258 0.711 0.258V0.252Q0.704 0.242 0.704 0.239H0.706Q0.715 0.247 0.715 0.252H0.717L0.722 0.248V0.252Q0.722 0.257 0.713 0.261Q0.713 0.259 0.711 0.259Q0.711 0.265 0.704 0.270Q0.704 0.272 0.711 0.281L0.640 0.473Q0.675 0.467 0.728 0.426H0.729Q0.725 0.435 0.686 0.460Q0.684 0.460 0.652 0.475Q0.652 0.473 0.651 0.473V0.479Q0.661 0.477 0.662 0.477H0.665V0.479Q0.633 0.485 0.633 0.492V0.497H0.634Q0.667 0.494 0.709 0.468Q0.728 0.455 0.737 0.442L0.749 0.431V0.433Q0.723 0.475 0.665 0.495H0.663V0.501H0.667Q0.682 0.501 0.702 0.494Q0.702 0.495 0.704 0.495Q0.704 0.492 0.722 0.484Q0.721 0.488 0.693 0.506Q0.693 0.503 0.689 0.503L0.686 0.504V0.503Q0.676 0.506 0.671 0.506Q0.640 0.506 0.633 0.499H0.631Q0.622 0.523 0.622 0.526H0.627Q0.634 0.512 0.643 0.512Q0.629 0.524 0.629 0.533L0.633 0.535H0.634Q0.634 0.529 0.656 0.517H0.658V0.512H0.649V0.510H0.660Q0.682 0.519 0.682 0.530H0.684L0.682 0.533Q0.684 0.543 0.684 0.544Q0.676 0.557 0.676 0.563Q0.679 0.563 0.689 0.574Q0.691 0.570 0.691 0.568H0.695L0.689 0.578Q0.693 0.587 0.695 0.587Q0.700 0.583 0.717 0.579Q0.717 0.581 0.719 0.581Q0.719 0.579 0.720 0.579V0.581L0.724 0.579Q0.749 0.589 0.749 0.614V0.616Q0.749 0.639 0.719 0.645H0.709Q0.706 0.645 0.691 0.638Q0.691 0.649 0.662 0.669H0.660V0.674Q0.671 0.676 0.671 0.694Q0.669 0.698 0.669 0.700H0.667Q0.666 0.676 0.647 0.676Q0.631 0.681 0.631 0.691H0.633L0.631 0.694V0.696Q0.633 0.711 0.642 0.711V0.712H0.636Q0.625 0.702 0.625 0.691V0.685L0.629 0.680V0.678Q0.629 0.674 0.625 0.674V0.676L0.622 0.674H0.620Q0.618 0.674 0.618 0.676Q0.589 0.668 0.589 0.651Q0.582 0.638 0.579 0.638L0.576 0.639V0.638L0.567 0.643Q0.567 0.641 0.565 0.641Q0.565 0.643 0.545 0.652H0.543L0.545 0.643Q0.539 0.645 0.539 0.647L0.536 0.645H0.530V0.649H0.534V0.651Q0.529 0.656 0.527 0.671H0.525V0.667H0.523L0.516 0.673H0.514V0.669Q0.514 0.668 0.521 0.660V0.656L0.519 0.647H0.523V0.643H0.519Q0.519 0.642 0.527 0.634V0.632H0.519Q0.519 0.630 0.521 0.630L0.519 0.627V0.623H0.529Q0.529 0.632 0.534 0.632Q0.545 0.624 0.545 0.619L0.550 0.623Q0.550 0.621 0.552 0.621Q0.552 0.623 0.554 0.623V0.621Q0.552 0.618 0.552 0.616Q0.563 0.608 0.568 0.608Q0.568 0.602 0.561 0.590V0.587Q0.568 0.587 0.568 0.581V0.578L0.567 0.574Q0.574 0.574 0.574 0.559H0.568V0.550H0.578V0.554H0.579Q0.579 0.550 0.684 0.267L0.687 0.268Q0.691 0.268 0.691 0.265Q0.687 0.257 0.687 0.254H0.689Q0.693 0.254 0.695 0.263H0.700V0.256Q0.693 0.246 0.693 0.239ZM0.305 0.241 0.309 0.247V0.250H0.305Q0.305 0.247 0.302 0.243ZM0.278 0.247H0.282Q0.285 0.248 0.287 0.248V0.250H0.282Q0.278 0.250 0.278 0.247ZM0.296 0.247H0.300V0.248H0.296ZM0.792 0.248H0.794V0.252H0.792ZM0.289 0.250H0.294V0.252H0.289ZM0.294 0.252H0.298V0.254H0.294ZM0.282 0.254 0.293 0.256V0.258H0.282ZM0.238 0.256Q0.238 0.259 0.247 0.259L0.243 0.265V0.267L0.245 0.270L0.234 0.272Q0.234 0.269 0.229 0.263ZM0.794 0.258H0.795L0.797 0.279V0.292Q0.797 0.333 0.781 0.378H0.779V0.374Q0.781 0.371 0.781 0.369L0.777 0.367V0.369Q0.779 0.369 0.779 0.371Q0.775 0.371 0.766 0.391Q0.754 0.411 0.740 0.426Q0.740 0.419 0.737 0.419Q0.778 0.375 0.790 0.327Q0.794 0.313 0.794 0.309Q0.794 0.307 0.792 0.307Q0.795 0.300 0.795 0.287V0.285Q0.795 0.273 0.794 0.261ZM0.282 0.261H0.289V0.263H0.282ZM0.445 0.272H0.454V0.276H0.448Q0.445 0.276 0.445 0.272ZM0.518 0.272Q0.518 0.275 0.521 0.279Q0.518 0.279 0.518 0.285Q0.513 0.281 0.510 0.281V0.274Q0.514 0.274 0.518 0.272ZM0.448 0.279H0.452V0.281H0.448ZM0.351 0.285 0.373 0.345 0.369 0.343Q0.366 0.343 0.357 0.369H0.355Q0.346 0.367 0.346 0.354Q0.353 0.340 0.353 0.336L0.349 0.334H0.337Q0.331 0.317 0.331 0.316L0.335 0.318H0.349Q0.353 0.318 0.353 0.314Q0.353 0.309 0.348 0.287ZM0.488 0.294Q0.494 0.307 0.503 0.307Q0.494 0.312 0.494 0.325Q0.473 0.319 0.473 0.305Q0.472 0.305 0.472 0.303Q0.480 0.303 0.488 0.294ZM0.210 0.311Q0.212 0.311 0.212 0.313L0.225 0.311H0.230V0.313Q0.230 0.320 0.208 0.322Q0.208 0.318 0.203 0.318Q0.203 0.316 0.210 0.311ZM0.296 0.313H0.300V0.314H0.296ZM0.294 0.314H0.296Q0.296 0.317 0.285 0.324L0.284 0.320Q0.288 0.320 0.294 0.314ZM0.298 0.320H0.300Q0.300 0.323 0.293 0.327H0.289Q0.289 0.325 0.298 0.320ZM0.230 0.324V0.327H0.217V0.325Q0.223 0.325 0.230 0.324ZM0.302 0.325V0.327Q0.302 0.330 0.296 0.333L0.294 0.329Q0.297 0.329 0.302 0.325ZM0.212 0.329H0.214V0.333H0.212ZM0.340 0.340H0.346V0.342Q0.344 0.345 0.344 0.347Q0.340 0.347 0.340 0.343ZM0.265 0.349Q0.268 0.351 0.273 0.351V0.358Q0.266 0.360 0.265 0.360L0.262 0.354Q0.265 0.354 0.265 0.349ZM0.369 0.351H0.371Q0.378 0.351 0.404 0.431Q0.408 0.436 0.497 0.678H0.499Q0.501 0.675 0.501 0.673H0.506V0.674L0.501 0.684V0.685L0.508 0.709L0.494 0.716V0.714Q0.486 0.716 0.486 0.723H0.488Q0.495 0.723 0.503 0.718Q0.503 0.720 0.505 0.720Q0.505 0.717 0.512 0.714L0.514 0.723H0.518V0.718H0.514V0.716Q0.514 0.712 0.529 0.709Q0.527 0.699 0.527 0.694Q0.529 0.692 0.529 0.685H0.527V0.684Q0.536 0.684 0.536 0.669Q0.541 0.656 0.543 0.656L0.558 0.694H0.561L0.567 0.691Q0.567 0.693 0.568 0.693Q0.568 0.690 0.583 0.684Q0.583 0.685 0.585 0.685Q0.586 0.682 0.589 0.682Q0.589 0.684 0.590 0.687Q0.586 0.687 0.583 0.693Q0.581 0.698 0.570 0.700Q0.568 0.703 0.568 0.705L0.565 0.703Q0.561 0.703 0.561 0.709L0.556 0.705Q0.544 0.738 0.539 0.738Q0.535 0.738 0.527 0.744Q0.527 0.742 0.525 0.742Q0.525 0.745 0.501 0.753V0.755Q0.518 0.794 0.521 0.797Q0.518 0.811 0.514 0.811Q0.497 0.761 0.492 0.755H0.494Q0.494 0.747 0.482 0.746V0.744Q0.488 0.744 0.488 0.742L0.362 0.400Q0.361 0.400 0.351 0.408L0.353 0.398V0.374H0.355L0.359 0.376Q0.365 0.367 0.369 0.351ZM0.495 0.362Q0.495 0.365 0.499 0.371L0.488 0.374V0.389H0.490Q0.492 0.389 0.492 0.387L0.499 0.391Q0.501 0.387 0.501 0.386H0.503V0.395L0.490 0.391L0.481 0.395V0.391L0.482 0.382Q0.480 0.382 0.475 0.373Q0.485 0.373 0.495 0.362ZM0.344 0.371H0.346V0.382Q0.346 0.388 0.344 0.398L0.349 0.409L0.346 0.411H0.342L0.335 0.376ZM0.501 0.373 0.510 0.374Q0.508 0.378 0.508 0.380Q0.501 0.377 0.501 0.374ZM0.466 0.378H0.470V0.380H0.466ZM0.777 0.380H0.779V0.384Q0.775 0.390 0.775 0.393H0.773V0.389Q0.777 0.383 0.777 0.380ZM0.355 0.386V0.398H0.360L0.357 0.386ZM0.269 0.391Q0.275 0.397 0.280 0.397Q0.280 0.400 0.276 0.400H0.264V0.398Q0.269 0.398 0.269 0.391ZM0.771 0.398V0.400Q0.771 0.404 0.768 0.404V0.402Q0.768 0.398 0.771 0.398ZM0.267 0.406H0.278V0.408L0.267 0.409ZM0.764 0.408H0.766V0.411H0.764ZM0.410 0.411Q0.410 0.415 0.417 0.415Q0.415 0.426 0.406 0.426Q0.406 0.420 0.402 0.420V0.417Q0.405 0.417 0.410 0.411ZM0.454 0.413H0.457V0.415L0.455 0.419Q0.457 0.419 0.457 0.420H0.454ZM0.322 0.415H0.325V0.417H0.322ZM0.760 0.417V0.419Q0.760 0.421 0.755 0.424V0.422Q0.755 0.420 0.760 0.417ZM0.731 0.420H0.735V0.422Q0.735 0.426 0.731 0.426H0.729Q0.731 0.422 0.731 0.420ZM0.755 0.424V0.426Q0.755 0.428 0.749 0.431V0.429Q0.749 0.427 0.755 0.424ZM0.728 0.438V0.440Q0.728 0.444 0.724 0.444H0.722Q0.722 0.441 0.728 0.438ZM0.719 0.446H0.720Q0.720 0.448 0.715 0.451H0.713Q0.713 0.449 0.719 0.446ZM0.706 0.455H0.709V0.457H0.706ZM0.753 0.455V0.457Q0.750 0.464 0.747 0.464H0.746Q0.751 0.455 0.753 0.455ZM0.704 0.457H0.706Q0.705 0.460 0.697 0.464V0.460Q0.699 0.460 0.704 0.457ZM0.695 0.464Q0.695 0.469 0.673 0.475Q0.673 0.471 0.695 0.464ZM0.744 0.464H0.746Q0.745 0.470 0.735 0.475H0.733Q0.733 0.472 0.744 0.464ZM0.665 0.475H0.671V0.477H0.665ZM0.731 0.475H0.733Q0.733 0.478 0.726 0.482V0.481Q0.726 0.478 0.731 0.475ZM0.722 0.482H0.726V0.484H0.722ZM0.724 0.504Q0.722 0.513 0.719 0.513Q0.719 0.510 0.715 0.510Q0.715 0.506 0.724 0.504ZM0.691 0.506H0.693Q0.693 0.510 0.689 0.510H0.687Q0.688 0.506 0.691 0.506ZM0.715 0.510Q0.715 0.512 0.702 0.519H0.699Q0.699 0.513 0.715 0.510ZM0.649 0.526V0.532Q0.665 0.532 0.665 0.542H0.667Q0.670 0.542 0.675 0.535V0.533Q0.675 0.523 0.665 0.515Q0.651 0.526 0.649 0.526ZM0.682 0.513H0.684Q0.684 0.516 0.678 0.519V0.517Q0.679 0.513 0.682 0.513ZM0.717 0.515H0.720Q0.711 0.538 0.711 0.542H0.708ZM0.695 0.521H0.697V0.524L0.686 0.530H0.684V0.528Q0.686 0.528 0.695 0.521ZM0.521 0.526H0.530V0.535H0.519Q0.521 0.532 0.521 0.526ZM0.545 0.526H0.554V0.535H0.552Q0.550 0.535 0.550 0.533L0.547 0.535H0.545ZM0.568 0.526H0.578V0.535H0.568ZM0.669 0.526V0.528Q0.669 0.530 0.663 0.533H0.662Q0.662 0.530 0.669 0.526ZM0.614 0.546Q0.617 0.544 0.624 0.544V0.539Q0.624 0.535 0.620 0.535Q0.614 0.537 0.614 0.546ZM0.631 0.542Q0.636 0.552 0.642 0.554Q0.640 0.548 0.638 0.548Q0.642 0.541 0.642 0.535H0.638Q0.635 0.535 0.631 0.542ZM0.649 0.537Q0.649 0.541 0.643 0.541V0.548H0.647Q0.647 0.542 0.652 0.542L0.651 0.552V0.557L0.662 0.548Q0.661 0.541 0.658 0.541H0.652Q0.652 0.537 0.649 0.537ZM0.662 0.552V0.555H0.665Q0.668 0.555 0.673 0.548V0.542Q0.662 0.550 0.662 0.552ZM0.706 0.542H0.708V0.548Q0.706 0.552 0.706 0.554Q0.708 0.554 0.711 0.559V0.566Q0.706 0.566 0.706 0.570Q0.698 0.566 0.695 0.566V0.561Q0.706 0.549 0.706 0.542ZM0.519 0.550H0.530V0.559H0.519ZM0.543 0.550H0.554V0.559H0.543L0.545 0.555V0.554ZM0.649 0.576V0.585Q0.657 0.585 0.669 0.601Q0.670 0.598 0.673 0.598V0.599Q0.659 0.621 0.654 0.621Q0.652 0.621 0.645 0.632H0.642V0.636Q0.656 0.641 0.663 0.641Q0.663 0.639 0.665 0.639V0.641Q0.668 0.641 0.686 0.630L0.684 0.612V0.608Q0.684 0.604 0.689 0.592Q0.689 0.589 0.682 0.585Q0.682 0.579 0.663 0.574H0.658ZM0.519 0.574H0.521L0.525 0.576Q0.525 0.574 0.527 0.574L0.529 0.578V0.583Q0.527 0.583 0.523 0.585ZM0.545 0.574Q0.549 0.574 0.550 0.583H0.545ZM0.634 0.587V0.589H0.642V0.583H0.638Q0.634 0.583 0.634 0.587ZM0.678 0.587H0.682V0.589Q0.682 0.591 0.675 0.596V0.594Q0.678 0.590 0.678 0.587ZM0.642 0.594V0.599H0.651V0.608Q0.649 0.608 0.649 0.607L0.645 0.608H0.642Q0.642 0.601 0.638 0.601H0.636V0.603Q0.636 0.617 0.649 0.617Q0.660 0.612 0.663 0.605Q0.663 0.599 0.651 0.592ZM0.695 0.612V0.617Q0.695 0.643 0.722 0.643Q0.742 0.635 0.742 0.617Q0.742 0.609 0.724 0.596H0.719L0.715 0.598V0.596Q0.704 0.596 0.695 0.612ZM0.558 0.596V0.598Q0.558 0.608 0.548 0.608Q0.548 0.607 0.547 0.607V0.610H0.545Q0.545 0.607 0.543 0.607Q0.546 0.596 0.558 0.596ZM0.519 0.598 0.530 0.599V0.608H0.519ZM0.627 0.610V0.612Q0.631 0.619 0.631 0.625H0.636Q0.640 0.625 0.640 0.621Q0.638 0.621 0.627 0.610ZM0.636 0.627V0.632H0.640V0.630Q0.640 0.627 0.636 0.627ZM0.579 0.645Q0.579 0.652 0.590 0.673V0.676Q0.589 0.676 0.589 0.674L0.579 0.680Q0.579 0.678 0.578 0.678Q0.578 0.682 0.574 0.682H0.570Q0.573 0.679 0.576 0.667Q0.574 0.664 0.574 0.658H0.572Q0.563 0.683 0.563 0.685H0.559Q0.559 0.680 0.548 0.658Q0.553 0.658 0.565 0.651Q0.565 0.652 0.567 0.652Q0.567 0.650 0.579 0.645ZM0.697 0.654H0.700V0.658Q0.700 0.662 0.697 0.662H0.693V0.658Q0.693 0.654 0.697 0.654ZM0.521 0.685H0.523V0.689H0.521ZM0.652 0.689 0.658 0.696V0.702Q0.655 0.702 0.651 0.705H0.647Q0.645 0.705 0.642 0.700V0.694Q0.643 0.689 0.652 0.689ZM0.514 0.694H0.516V0.698H0.514ZM0.665 0.700H0.667V0.705L0.663 0.707V0.705Q0.665 0.702 0.665 0.700ZM0.654 0.711H0.658V0.712H0.654ZM0.643 0.712H0.652V0.714H0.643ZM0.550 0.720H0.552V0.723H0.550ZM0.539 0.746V0.749Q0.527 0.780 0.527 0.786L0.523 0.784Q0.523 0.786 0.521 0.786Q0.510 0.764 0.510 0.759L0.525 0.751Q0.525 0.753 0.527 0.753Q0.527 0.750 0.539 0.746Z" fill="black"/>
</svg>
