<svg xmlns="http://www.w3.org/2000/svg" viewBox="0 0 1 1" preserveAspectRatio="xMidYMid meet">
  <path d="M0.737 0.114H0.744Q0.747 0.114 0.753 0.123V0.136Q0.733 0.120 0.733 0.118Q0.734 0.114 0.737 0.114ZM0.687 0.120H0.691Q0.694 0.120 0.697 0.125V0.138L0.706 0.140V0.144Q0.699 0.142 0.693 0.142V0.129Q0.693 0.125 0.689 0.125H0.687V0.134H0.684L0.682 0.125Q0.682 0.123 0.687 0.120ZM0.728 0.131 0.742 0.142Q0.741 0.145 0.741 0.149H0.739Q0.739 0.145 0.730 0.138Q0.728 0.135 0.728 0.131ZM0.771 0.133H0.781Q0.785 0.136 0.788 0.136V0.145Q0.788 0.149 0.784 0.149H0.779V0.145H0.784V0.142H0.760V0.138Q0.762 0.133 0.771 0.133ZM0.671 0.136H0.675V0.138Q0.671 0.144 0.671 0.147Q0.667 0.147 0.667 0.144V0.140Q0.668 0.136 0.671 0.136ZM0.627 0.140H0.635Q0.635 0.144 0.631 0.144Q0.627 0.144 0.627 0.140ZM0.748 0.140H0.751V0.142H0.748ZM0.614 0.144H0.616Q0.620 0.144 0.620 0.147Q0.617 0.147 0.611 0.153H0.609V0.149Q0.609 0.146 0.614 0.144ZM0.678 0.144Q0.682 0.144 0.682 0.147V0.149H0.671V0.147Q0.674 0.147 0.678 0.144ZM0.700 0.147H0.706Q0.706 0.152 0.691 0.153V0.149ZM0.737 0.149H0.739V0.151Q0.714 0.162 0.711 0.162Q0.711 0.165 0.704 0.169H0.702V0.166Q0.722 0.149 0.737 0.149ZM0.766 0.149Q0.772 0.153 0.777 0.153V0.155Q0.775 0.155 0.771 0.157Q0.768 0.155 0.766 0.155Q0.766 0.157 0.764 0.157L0.760 0.151Q0.764 0.149 0.766 0.149ZM0.750 0.153H0.753Q0.770 0.163 0.770 0.175Q0.766 0.181 0.766 0.184H0.759Q0.751 0.177 0.744 0.177Q0.744 0.179 0.742 0.179L0.739 0.173V0.157H0.742Q0.751 0.161 0.757 0.179H0.759V0.173Q0.759 0.162 0.750 0.153ZM0.687 0.157H0.689V0.160H0.687ZM0.686 0.164H0.687V0.186H0.691Q0.695 0.171 0.699 0.171L0.700 0.175Q0.692 0.181 0.691 0.195H0.689Q0.689 0.190 0.684 0.186L0.686 0.182ZM0.622 0.166H0.627V0.171Q0.625 0.171 0.622 0.166ZM0.638 0.171 0.640 0.175H0.635Q0.635 0.171 0.638 0.171ZM0.148 0.175H0.153Q0.153 0.179 0.164 0.184Q0.174 0.197 0.175 0.197L0.173 0.200V0.204Q0.173 0.206 0.175 0.206Q0.173 0.209 0.173 0.215H0.172Q0.172 0.208 0.159 0.202Q0.154 0.197 0.152 0.179Q0.148 0.179 0.148 0.175ZM0.600 0.177H0.603V0.179H0.600ZM0.629 0.182 0.633 0.184H0.635L0.638 0.182Q0.638 0.184 0.640 0.184Q0.640 0.182 0.642 0.182L0.644 0.186Q0.640 0.195 0.633 0.195L0.627 0.184Q0.629 0.184 0.629 0.182ZM0.676 0.184H0.678L0.689 0.226Q0.675 0.216 0.675 0.200Q0.676 0.193 0.676 0.184ZM0.708 0.186 0.713 0.195Q0.700 0.201 0.700 0.209H0.699V0.206L0.708 0.191V0.189H0.704Q0.702 0.189 0.693 0.200Q0.693 0.198 0.691 0.195Q0.703 0.184 0.708 0.184ZM0.715 0.186Q0.718 0.186 0.721 0.193H0.717ZM0.579 0.188 0.594 0.209Q0.598 0.209 0.598 0.206Q0.605 0.208 0.605 0.211Q0.598 0.217 0.594 0.217Q0.576 0.213 0.576 0.199V0.191Q0.577 0.188 0.579 0.188ZM0.179 0.202H0.208Q0.219 0.247 0.221 0.252Q0.212 0.275 0.205 0.306H0.203Q0.179 0.265 0.179 0.250V0.248Q0.182 0.248 0.188 0.272L0.197 0.285V0.283Q0.179 0.207 0.179 0.202ZM0.687 0.202Q0.692 0.202 0.693 0.211H0.689ZM0.757 0.202H0.766Q0.776 0.207 0.781 0.222Q0.786 0.222 0.786 0.226Q0.777 0.238 0.777 0.242H0.773Q0.773 0.236 0.757 0.202ZM0.775 0.202H0.783V0.209Q0.780 0.209 0.775 0.202ZM0.620 0.204H0.627Q0.631 0.205 0.631 0.208H0.624Q0.620 0.208 0.620 0.204ZM0.750 0.204Q0.758 0.212 0.771 0.252Q0.766 0.268 0.766 0.277Q0.784 0.283 0.784 0.288H0.783Q0.770 0.288 0.770 0.281H0.764V0.283Q0.764 0.290 0.781 0.294V0.292Q0.787 0.292 0.790 0.310Q0.786 0.315 0.786 0.325H0.781Q0.776 0.319 0.771 0.319L0.775 0.314V0.312H0.771L0.768 0.314Q0.764 0.295 0.741 0.235Q0.745 0.235 0.750 0.204ZM0.631 0.208Q0.633 0.208 0.636 0.213V0.215Q0.633 0.213 0.629 0.213Q0.631 0.210 0.631 0.208ZM0.660 0.208H0.665L0.667 0.217V0.218Q0.659 0.213 0.654 0.213Q0.654 0.211 0.660 0.208ZM0.717 0.209H0.719Q0.722 0.210 0.722 0.213Q0.717 0.214 0.708 0.222H0.706L0.704 0.215Q0.711 0.209 0.717 0.209ZM0.823 0.211H0.828V0.215Q0.825 0.215 0.825 0.218H0.823ZM0.636 0.215H0.638V0.220H0.636ZM0.732 0.215Q0.735 0.216 0.735 0.218H0.732ZM0.626 0.217H0.629V0.218H0.626ZM0.788 0.217H0.790V0.220H0.788ZM0.667 0.218H0.671V0.222Q0.667 0.222 0.667 0.218ZM0.722 0.218H0.726V0.220H0.722ZM0.741 0.218H0.744V0.224H0.741ZM0.699 0.220Q0.704 0.222 0.704 0.231H0.700Q0.700 0.230 0.699 0.220ZM0.719 0.220H0.722Q0.722 0.222 0.711 0.231V0.228Q0.711 0.225 0.719 0.220ZM0.792 0.220H0.794Q0.794 0.225 0.801 0.226V0.229H0.810Q0.810 0.237 0.814 0.237Q0.814 0.235 0.816 0.235Q0.816 0.244 0.825 0.244H0.827Q0.825 0.247 0.825 0.253H0.828V0.255H0.825V0.263H0.827Q0.836 0.261 0.838 0.261H0.839V0.263Q0.825 0.263 0.825 0.279Q0.832 0.282 0.832 0.285H0.830Q0.821 0.285 0.810 0.253Q0.792 0.227 0.792 0.222ZM0.680 0.228H0.682V0.231H0.680ZM0.790 0.229 0.797 0.246Q0.784 0.241 0.783 0.241Q0.786 0.229 0.790 0.229ZM0.682 0.231Q0.686 0.231 0.689 0.244Q0.686 0.244 0.682 0.231ZM0.730 0.237H0.732L0.737 0.244Q0.739 0.244 0.739 0.246Q0.737 0.250 0.737 0.252V0.253H0.739V0.250H0.741Q0.760 0.302 0.760 0.310Q0.759 0.313 0.759 0.315H0.762V0.317Q0.756 0.319 0.755 0.319V0.325H0.759Q0.756 0.332 0.753 0.332Q0.750 0.332 0.739 0.288Q0.737 0.288 0.732 0.274Q0.737 0.263 0.737 0.259Q0.733 0.259 0.733 0.252H0.730L0.726 0.253Q0.728 0.257 0.728 0.259V0.261H0.726Q0.726 0.248 0.721 0.248V0.246Q0.723 0.246 0.730 0.237ZM0.710 0.241H0.711V0.244H0.710ZM0.726 0.246V0.250H0.730Q0.732 0.250 0.735 0.242H0.730Q0.726 0.243 0.726 0.246ZM0.711 0.244H0.713V0.248H0.711ZM0.699 0.246Q0.702 0.248 0.704 0.248V0.250H0.699ZM0.713 0.248H0.715V0.252H0.713ZM0.689 0.252H0.693Q0.697 0.252 0.697 0.255H0.693Q0.689 0.255 0.689 0.252ZM0.717 0.252V0.255H0.713Q0.714 0.252 0.717 0.252ZM0.832 0.252H0.838V0.253H0.832ZM0.682 0.253H0.686V0.255H0.682ZM0.781 0.255Q0.792 0.259 0.792 0.263V0.266L0.790 0.276H0.788Q0.783 0.276 0.781 0.255ZM0.704 0.257H0.706Q0.710 0.259 0.711 0.259V0.263H0.710Q0.706 0.261 0.704 0.261ZM0.775 0.259Q0.779 0.271 0.779 0.277Q0.771 0.275 0.771 0.272V0.263Q0.772 0.259 0.775 0.259ZM0.847 0.259H0.852V0.261H0.847ZM0.327 0.261V0.263L0.331 0.261H0.344L0.347 0.263V0.261Q0.361 0.265 0.365 0.268V0.266Q0.383 0.273 0.400 0.290Q0.414 0.303 0.421 0.332H0.419L0.421 0.336V0.345L0.419 0.358Q0.411 0.354 0.408 0.354V0.352L0.410 0.343H0.408L0.410 0.339Q0.410 0.304 0.367 0.277Q0.367 0.279 0.365 0.279Q0.365 0.275 0.342 0.270V0.272L0.338 0.270H0.329L0.325 0.272V0.270Q0.294 0.277 0.283 0.292Q0.274 0.301 0.274 0.306H0.272V0.295Q0.282 0.274 0.313 0.265Q0.313 0.262 0.327 0.261ZM0.728 0.261H0.730V0.265H0.728ZM0.711 0.263H0.715Q0.719 0.263 0.719 0.266Q0.717 0.266 0.713 0.268Q0.713 0.266 0.711 0.263ZM0.225 0.265Q0.227 0.277 0.227 0.279Q0.210 0.342 0.210 0.374H0.206Q0.206 0.369 0.197 0.369V0.363Q0.204 0.362 0.212 0.341V0.339Q0.212 0.337 0.206 0.319Q0.210 0.301 0.223 0.265ZM0.808 0.265H0.810Q0.818 0.286 0.821 0.288Q0.821 0.294 0.816 0.294V0.297Q0.828 0.300 0.828 0.310H0.827Q0.817 0.301 0.810 0.301H0.808V0.305H0.812V0.306Q0.801 0.306 0.801 0.310Q0.793 0.310 0.790 0.285V0.279H0.792Q0.792 0.288 0.795 0.288Q0.808 0.281 0.808 0.265ZM0.719 0.266H0.721Q0.724 0.267 0.724 0.270H0.722Q0.719 0.270 0.719 0.266ZM0.711 0.270H0.713V0.276H0.711ZM0.830 0.272H0.838V0.274H0.830ZM0.635 0.276Q0.655 0.283 0.665 0.283Q0.665 0.287 0.656 0.290Q0.646 0.288 0.642 0.288Q0.638 0.290 0.636 0.290V0.294L0.640 0.299L0.653 0.297H0.656Q0.665 0.297 0.667 0.305Q0.634 0.306 0.624 0.306Q0.624 0.304 0.618 0.301Q0.618 0.277 0.629 0.277Q0.631 0.277 0.635 0.276ZM0.839 0.279H0.843V0.281H0.839ZM0.730 0.285H0.732Q0.748 0.337 0.748 0.345L0.742 0.367H0.741Q0.737 0.346 0.724 0.305Q0.726 0.305 0.726 0.303Q0.721 0.303 0.719 0.292H0.728Q0.730 0.289 0.730 0.285ZM0.605 0.288H0.613V0.290L0.605 0.292ZM0.704 0.288 0.713 0.290V0.295Q0.704 0.293 0.704 0.290ZM0.229 0.290H0.230Q0.233 0.305 0.236 0.305Q0.232 0.322 0.225 0.382H0.223Q0.218 0.378 0.216 0.378Q0.216 0.353 0.229 0.290ZM0.664 0.290H0.671V0.294H0.667Q0.664 0.294 0.664 0.290ZM0.598 0.295H0.600Q0.600 0.297 0.605 0.317Q0.590 0.311 0.590 0.308V0.306Q0.596 0.310 0.600 0.310V0.308Q0.598 0.305 0.598 0.301ZM0.684 0.295 0.687 0.297Q0.686 0.299 0.686 0.312H0.684Q0.684 0.309 0.680 0.297ZM0.713 0.295H0.715V0.299H0.713ZM0.717 0.301V0.305H0.713Q0.714 0.301 0.717 0.301ZM0.581 0.305 0.583 0.308Q0.550 0.312 0.550 0.339Q0.548 0.339 0.548 0.341Q0.552 0.352 0.552 0.356V0.358H0.550Q0.547 0.344 0.547 0.341Q0.552 0.305 0.581 0.305ZM0.704 0.305V0.308Q0.695 0.308 0.695 0.312Q0.691 0.312 0.691 0.308V0.306ZM0.710 0.305H0.713Q0.713 0.308 0.710 0.308ZM0.270 0.308H0.272V0.312H0.270ZM0.676 0.308H0.678V0.312H0.676ZM0.704 0.308H0.706Q0.710 0.326 0.710 0.328V0.363H0.711Q0.713 0.351 0.713 0.339H0.715L0.732 0.412Q0.722 0.443 0.722 0.451H0.721Q0.721 0.439 0.704 0.369V0.314H0.695V0.312Q0.704 0.312 0.704 0.308ZM0.711 0.308Q0.714 0.310 0.721 0.310Q0.717 0.318 0.713 0.319Q0.713 0.318 0.711 0.308ZM0.263 0.312H0.265V0.323Q0.261 0.323 0.261 0.319Q0.263 0.316 0.263 0.312ZM0.686 0.312Q0.692 0.317 0.695 0.317V0.319H0.687ZM0.721 0.315H0.722Q0.735 0.362 0.739 0.382Q0.735 0.395 0.735 0.398H0.733Q0.718 0.323 0.715 0.323V0.319Q0.721 0.319 0.721 0.315ZM0.669 0.317H0.673V0.319H0.669ZM0.660 0.319H0.669V0.321H0.660ZM0.238 0.321H0.240Q0.240 0.326 0.250 0.369L0.236 0.376Q0.236 0.374 0.234 0.374Q0.234 0.376 0.232 0.376V0.374ZM0.616 0.321H0.622V0.323H0.616ZM0.654 0.321H0.660V0.323L0.638 0.325H0.622V0.323Q0.641 0.323 0.654 0.321ZM0.759 0.323H0.764V0.325H0.759ZM0.182 0.341V0.343Q0.181 0.347 0.181 0.349H0.177V0.347Q0.177 0.344 0.182 0.341ZM0.589 0.354Q0.592 0.360 0.592 0.365Q0.590 0.365 0.585 0.373V0.374H0.602Q0.605 0.382 0.605 0.385Q0.599 0.389 0.594 0.389Q0.593 0.389 0.585 0.380H0.583V0.383L0.585 0.392L0.581 0.394H0.570L0.568 0.382Q0.581 0.378 0.581 0.373L0.576 0.363V0.358ZM0.181 0.356Q0.181 0.358 0.182 0.358Q0.179 0.363 0.179 0.367Q0.186 0.373 0.190 0.373Q0.186 0.390 0.186 0.392H0.184Q0.184 0.387 0.175 0.374Q0.173 0.366 0.173 0.358Q0.174 0.358 0.181 0.356ZM0.554 0.360Q0.557 0.360 0.561 0.367H0.559Q0.557 0.367 0.554 0.361ZM0.410 0.361Q0.413 0.363 0.415 0.363V0.369Q0.412 0.369 0.393 0.387V0.385Q0.403 0.366 0.410 0.361ZM0.565 0.369H0.568V0.371H0.565ZM0.568 0.371H0.574V0.373H0.568ZM0.193 0.376H0.195Q0.200 0.376 0.208 0.382Q0.206 0.413 0.206 0.420L0.203 0.422H0.201Q0.201 0.417 0.193 0.405Q0.192 0.402 0.192 0.398ZM0.250 0.376Q0.267 0.418 0.267 0.457L0.263 0.455Q0.256 0.457 0.256 0.464Q0.250 0.464 0.250 0.425V0.407Q0.250 0.403 0.247 0.403H0.245Q0.237 0.403 0.234 0.433L0.236 0.436V0.440Q0.227 0.434 0.227 0.427H0.229L0.234 0.431V0.429Q0.229 0.408 0.229 0.405Q0.230 0.383 0.234 0.383Q0.234 0.385 0.236 0.385Q0.236 0.383 0.250 0.376ZM0.419 0.383V0.385L0.422 0.383Q0.424 0.383 0.424 0.385L0.428 0.383Q0.457 0.392 0.457 0.412Q0.455 0.412 0.455 0.414H0.457L0.455 0.418V0.422L0.457 0.425H0.455L0.452 0.423Q0.452 0.425 0.450 0.425Q0.450 0.406 0.428 0.396L0.424 0.398Q0.422 0.398 0.422 0.396Q0.398 0.396 0.378 0.433Q0.374 0.444 0.373 0.464Q0.384 0.485 0.384 0.489V0.491Q0.380 0.491 0.376 0.482L0.373 0.480V0.484Q0.373 0.486 0.374 0.486Q0.373 0.489 0.373 0.495L0.369 0.493L0.367 0.502H0.365V0.469Q0.365 0.460 0.353 0.451L0.351 0.447H0.353L0.364 0.457Q0.367 0.457 0.367 0.453H0.365L0.367 0.449V0.446L0.364 0.440V0.438L0.367 0.440L0.374 0.420Q0.373 0.420 0.373 0.418Q0.405 0.383 0.419 0.383ZM0.214 0.385Q0.217 0.385 0.221 0.392Q0.221 0.394 0.219 0.394Q0.219 0.398 0.223 0.407Q0.221 0.410 0.221 0.412L0.217 0.411Q0.216 0.414 0.216 0.416Q0.212 0.416 0.212 0.412Q0.214 0.389 0.214 0.385ZM0.702 0.392H0.704Q0.717 0.451 0.717 0.466Q0.715 0.479 0.715 0.480Q0.713 0.480 0.689 0.451ZM0.344 0.403H0.346V0.407H0.344ZM0.314 0.407 0.318 0.409Q0.318 0.407 0.320 0.407V0.412Q0.320 0.416 0.316 0.416L0.311 0.409ZM0.327 0.409H0.331Q0.331 0.412 0.335 0.412Q0.335 0.414 0.325 0.422Q0.327 0.414 0.327 0.409ZM0.243 0.411H0.245V0.425Q0.245 0.438 0.247 0.466H0.243L0.241 0.457V0.423ZM0.346 0.412H0.351Q0.351 0.420 0.358 0.427L0.355 0.429H0.351Q0.351 0.425 0.338 0.422V0.420Q0.342 0.420 0.346 0.414ZM0.268 0.418 0.279 0.427H0.281V0.423H0.283Q0.283 0.427 0.289 0.433L0.287 0.436L0.292 0.440Q0.292 0.438 0.294 0.438Q0.294 0.440 0.296 0.440V0.438L0.300 0.440Q0.303 0.438 0.305 0.438V0.440Q0.325 0.433 0.336 0.433L0.344 0.434V0.436Q0.324 0.436 0.318 0.446L0.316 0.449V0.451Q0.324 0.444 0.335 0.438L0.342 0.442Q0.342 0.440 0.344 0.440V0.446L0.340 0.444Q0.322 0.444 0.322 0.460H0.320L0.313 0.455Q0.314 0.447 0.318 0.442H0.314Q0.305 0.447 0.296 0.447H0.292V0.457Q0.292 0.469 0.283 0.497Q0.283 0.515 0.303 0.541Q0.314 0.568 0.314 0.575H0.316V0.572H0.318Q0.318 0.577 0.320 0.577L0.318 0.581V0.585Q0.318 0.594 0.336 0.603Q0.338 0.605 0.338 0.615L0.347 0.612Q0.348 0.615 0.351 0.615H0.353V0.610Q0.353 0.607 0.358 0.595L0.362 0.597Q0.362 0.591 0.373 0.574L0.376 0.575Q0.376 0.573 0.378 0.570L0.367 0.552H0.371V0.548L0.369 0.539H0.371L0.369 0.535V0.533H0.373Q0.373 0.536 0.386 0.561V0.568H0.387Q0.391 0.566 0.393 0.566L0.395 0.570Q0.392 0.570 0.389 0.575Q0.389 0.590 0.395 0.606H0.398L0.402 0.590H0.404V0.595Q0.400 0.607 0.397 0.612L0.400 0.619L0.395 0.623Q0.395 0.621 0.393 0.621V0.623L0.389 0.621Q0.387 0.621 0.387 0.623Q0.375 0.617 0.373 0.617V0.615Q0.382 0.615 0.382 0.614Q0.378 0.581 0.371 0.581Q0.367 0.588 0.367 0.595V0.603Q0.367 0.608 0.371 0.614H0.367Q0.367 0.611 0.364 0.608Q0.358 0.608 0.358 0.615L0.355 0.614Q0.355 0.617 0.342 0.630V0.632L0.338 0.630Q0.338 0.636 0.329 0.641L0.318 0.632V0.634Q0.346 0.662 0.346 0.683H0.342Q0.327 0.683 0.292 0.561Q0.278 0.506 0.270 0.440H0.274Q0.268 0.423 0.268 0.418ZM0.296 0.418 0.300 0.420Q0.310 0.418 0.314 0.418L0.316 0.422V0.423H0.311V0.425H0.318V0.427Q0.318 0.431 0.296 0.436Q0.292 0.434 0.290 0.434V0.431L0.294 0.433H0.298Q0.301 0.433 0.303 0.427V0.425Q0.296 0.425 0.296 0.418ZM0.333 0.425H0.335Q0.338 0.426 0.338 0.429H0.336Q0.333 0.429 0.333 0.425ZM0.342 0.429H0.346V0.431H0.342ZM0.219 0.433H0.221V0.455H0.219L0.217 0.446V0.442ZM0.360 0.434H0.364V0.438H0.360ZM0.344 0.436H0.347V0.438H0.344ZM0.686 0.458H0.687Q0.687 0.461 0.704 0.479L0.711 0.489L0.710 0.498H0.706Q0.706 0.497 0.693 0.484Q0.684 0.475 0.684 0.471ZM0.214 0.460Q0.216 0.460 0.223 0.469V0.482L0.219 0.480Q0.219 0.484 0.216 0.484Q0.216 0.476 0.214 0.460ZM0.452 0.464Q0.453 0.464 0.453 0.466L0.457 0.464H0.461L0.464 0.466Q0.464 0.464 0.466 0.464Q0.466 0.466 0.468 0.466V0.464Q0.502 0.473 0.512 0.488Q0.519 0.488 0.532 0.520L0.530 0.524L0.534 0.533Q0.532 0.537 0.532 0.539Q0.534 0.539 0.534 0.541H0.532L0.534 0.544Q0.532 0.547 0.532 0.552H0.530Q0.527 0.552 0.527 0.548V0.541Q0.527 0.520 0.514 0.498Q0.497 0.482 0.477 0.477V0.475Q0.475 0.475 0.475 0.477Q0.463 0.475 0.459 0.473V0.475Q0.457 0.475 0.457 0.473Q0.434 0.477 0.413 0.486L0.406 0.482L0.402 0.488Q0.404 0.491 0.404 0.495L0.397 0.500H0.395Q0.395 0.496 0.389 0.491Q0.419 0.464 0.452 0.464ZM0.263 0.466 0.265 0.477Q0.256 0.484 0.254 0.484V0.473Q0.254 0.470 0.263 0.466ZM0.245 0.473H0.249V0.479L0.250 0.491L0.247 0.489Q0.247 0.495 0.243 0.495V0.486ZM0.268 0.480H0.270Q0.278 0.531 0.287 0.561Q0.278 0.588 0.278 0.590Q0.278 0.592 0.289 0.601H0.290Q0.294 0.601 0.294 0.597Q0.294 0.595 0.292 0.595Q0.294 0.592 0.294 0.590H0.296Q0.305 0.628 0.325 0.672Q0.320 0.688 0.320 0.691Q0.322 0.694 0.322 0.698Q0.327 0.694 0.333 0.694Q0.335 0.694 0.342 0.707Q0.338 0.713 0.338 0.718L0.340 0.725L0.349 0.723V0.727L0.347 0.731H0.349Q0.349 0.729 0.351 0.729Q0.355 0.735 0.355 0.740L0.342 0.746Q0.342 0.744 0.340 0.744V0.746L0.336 0.744Q0.335 0.744 0.335 0.746Q0.331 0.744 0.329 0.744Q0.331 0.740 0.331 0.738Q0.322 0.720 0.303 0.676Q0.305 0.673 0.305 0.669Q0.305 0.665 0.301 0.665Q0.301 0.667 0.300 0.667Q0.279 0.610 0.265 0.548Q0.268 0.548 0.274 0.524Q0.272 0.520 0.272 0.518Q0.263 0.521 0.263 0.526H0.261L0.256 0.493Q0.268 0.487 0.268 0.480ZM0.680 0.482 0.708 0.507 0.631 0.811H0.629Q0.613 0.788 0.609 0.780L0.611 0.777Q0.601 0.744 0.585 0.744Q0.532 0.675 0.532 0.658Q0.510 0.642 0.482 0.594H0.481L0.457 0.623Q0.445 0.617 0.441 0.617H0.437L0.424 0.619V0.617Q0.477 0.537 0.479 0.537Q0.597 0.712 0.616 0.736Q0.653 0.595 0.680 0.482ZM0.223 0.489Q0.225 0.506 0.225 0.509H0.223Q0.218 0.506 0.216 0.506V0.502Q0.221 0.502 0.221 0.497Q0.219 0.493 0.219 0.491ZM0.229 0.489H0.232Q0.235 0.489 0.238 0.495V0.500Q0.235 0.500 0.229 0.491ZM0.386 0.500H0.389V0.511Q0.389 0.515 0.386 0.515H0.384Q0.382 0.515 0.382 0.513L0.378 0.515H0.376V0.513Q0.381 0.501 0.386 0.500ZM0.252 0.511H0.254L0.256 0.530L0.249 0.535Q0.247 0.519 0.247 0.515ZM0.216 0.515H0.219V0.518Q0.216 0.518 0.216 0.515ZM0.232 0.515H0.236L0.240 0.517Q0.240 0.515 0.241 0.515Q0.241 0.527 0.245 0.542Q0.243 0.542 0.240 0.544Q0.240 0.537 0.232 0.528ZM0.367 0.515Q0.371 0.516 0.371 0.518H0.367ZM0.225 0.520H0.227V0.524H0.225ZM0.371 0.520 0.380 0.522H0.386L0.389 0.520V0.526L0.387 0.530H0.389Q0.386 0.541 0.382 0.541Q0.377 0.524 0.371 0.524ZM0.214 0.524H0.216Q0.216 0.528 0.217 0.528L0.225 0.524L0.227 0.528V0.530Q0.227 0.539 0.229 0.557Q0.226 0.557 0.221 0.565Q0.228 0.575 0.234 0.575V0.583H0.230Q0.230 0.579 0.216 0.566Q0.216 0.560 0.214 0.550Q0.217 0.550 0.221 0.542L0.214 0.533ZM0.294 0.541V0.542Q0.305 0.585 0.305 0.590H0.311V0.586Q0.306 0.578 0.296 0.541ZM0.347 0.550V0.552Q0.346 0.555 0.346 0.557H0.347L0.346 0.561L0.347 0.565Q0.336 0.565 0.331 0.570H0.329V0.568Q0.331 0.565 0.331 0.563H0.329Q0.331 0.550 0.347 0.550ZM0.252 0.554H0.256V0.555H0.252ZM0.356 0.554H0.360Q0.360 0.557 0.369 0.568H0.371V0.570Q0.369 0.570 0.365 0.572Q0.360 0.572 0.360 0.566Q0.358 0.566 0.358 0.568Q0.355 0.566 0.353 0.566L0.355 0.557Q0.353 0.557 0.353 0.555ZM0.243 0.555Q0.248 0.555 0.250 0.570V0.572H0.249Q0.243 0.558 0.243 0.555ZM0.261 0.563H0.263L0.270 0.595Q0.266 0.592 0.263 0.592L0.267 0.586V0.585Q0.257 0.585 0.256 0.566L0.259 0.568Q0.261 0.565 0.261 0.563ZM0.402 0.574Q0.406 0.574 0.406 0.579V0.590H0.404Q0.404 0.580 0.402 0.574ZM0.219 0.579H0.221Q0.221 0.584 0.241 0.601Q0.232 0.620 0.232 0.625H0.229L0.219 0.581ZM0.234 0.583H0.236V0.586H0.234ZM0.214 0.588H0.216V0.594H0.214ZM0.216 0.597H0.217V0.603H0.216ZM0.247 0.597Q0.253 0.600 0.263 0.625Q0.260 0.632 0.258 0.632Q0.250 0.621 0.247 0.606L0.249 0.603Q0.247 0.599 0.247 0.597ZM0.311 0.606V0.610Q0.311 0.613 0.322 0.621Q0.325 0.621 0.335 0.608Q0.325 0.599 0.324 0.599H0.322Q0.314 0.606 0.311 0.606ZM0.217 0.604H0.219V0.612H0.217ZM0.219 0.612H0.221V0.617H0.219ZM0.241 0.617H0.245Q0.247 0.627 0.247 0.628Q0.243 0.629 0.243 0.632Q0.254 0.644 0.254 0.649Q0.249 0.658 0.249 0.663Q0.246 0.663 0.241 0.656H0.245V0.652Q0.236 0.652 0.234 0.638Q0.241 0.624 0.241 0.617ZM0.365 0.617Q0.365 0.624 0.387 0.630Q0.387 0.628 0.389 0.628V0.630L0.393 0.628H0.402V0.638Q0.402 0.639 0.404 0.639Q0.402 0.640 0.402 0.658H0.400Q0.400 0.650 0.389 0.639V0.636L0.386 0.638H0.384Q0.380 0.638 0.380 0.634L0.382 0.630Q0.375 0.634 0.364 0.636V0.634L0.353 0.639Q0.353 0.638 0.351 0.638Q0.351 0.640 0.344 0.649Q0.340 0.647 0.338 0.647V0.645ZM0.221 0.619H0.223V0.623H0.221ZM0.279 0.626H0.281V0.630H0.279ZM0.439 0.628V0.630L0.442 0.628Q0.448 0.632 0.452 0.632V0.634Q0.426 0.672 0.424 0.672H0.421Q0.413 0.661 0.413 0.656V0.654Q0.417 0.628 0.439 0.628ZM0.267 0.634Q0.272 0.635 0.272 0.649Q0.268 0.652 0.265 0.652V0.654Q0.265 0.657 0.270 0.660Q0.268 0.663 0.268 0.667Q0.264 0.667 0.261 0.649Q0.267 0.638 0.267 0.634ZM0.276 0.638H0.278Q0.281 0.638 0.281 0.641V0.645Q0.278 0.645 0.276 0.638ZM0.367 0.641Q0.367 0.643 0.369 0.643V0.641L0.373 0.643Q0.374 0.643 0.374 0.641Q0.384 0.644 0.384 0.647Q0.383 0.654 0.380 0.654L0.382 0.658V0.660L0.380 0.663H0.382Q0.387 0.654 0.387 0.649Q0.394 0.652 0.397 0.660H0.395L0.397 0.663V0.665Q0.397 0.685 0.376 0.694Q0.376 0.692 0.374 0.692V0.700L0.391 0.718V0.722Q0.391 0.724 0.386 0.727Q0.386 0.721 0.367 0.707L0.364 0.712V0.716Q0.364 0.718 0.365 0.718Q0.364 0.721 0.362 0.735Q0.357 0.735 0.355 0.720Q0.357 0.720 0.369 0.700V0.692H0.367V0.696H0.356L0.362 0.687V0.685H0.351V0.680L0.360 0.681H0.362Q0.365 0.681 0.365 0.678Q0.349 0.678 0.349 0.665Q0.349 0.662 0.356 0.658H0.364L0.371 0.663L0.373 0.660Q0.366 0.654 0.360 0.654H0.355Q0.347 0.658 0.347 0.663H0.344V0.662Q0.355 0.648 0.355 0.645L0.358 0.647Q0.358 0.642 0.367 0.641ZM0.290 0.660H0.292Q0.292 0.664 0.296 0.671Q0.294 0.671 0.294 0.672Q0.287 0.671 0.287 0.662L0.290 0.663ZM0.256 0.662H0.259L0.261 0.671Q0.259 0.671 0.256 0.665ZM0.404 0.667H0.406Q0.410 0.681 0.419 0.681Q0.403 0.705 0.398 0.712Q0.394 0.712 0.384 0.698Q0.394 0.698 0.402 0.680ZM0.276 0.669Q0.278 0.669 0.278 0.671L0.281 0.669H0.283L0.285 0.676H0.279Q0.276 0.676 0.276 0.672ZM0.300 0.685Q0.304 0.685 0.305 0.698L0.298 0.691Q0.300 0.687 0.300 0.685ZM0.356 0.700 0.358 0.703H0.353Q0.353 0.700 0.356 0.700ZM0.307 0.705H0.311V0.709Q0.307 0.709 0.307 0.705ZM0.311 0.709H0.313V0.712H0.311ZM0.353 0.711H0.358V0.712Q0.355 0.712 0.355 0.716H0.353ZM0.303 0.714H0.305L0.324 0.738H0.322L0.313 0.733Q0.313 0.735 0.311 0.735Q0.307 0.727 0.303 0.714ZM0.300 0.718H0.303V0.722H0.300ZM0.371 0.722H0.373Q0.377 0.727 0.380 0.727L0.376 0.740H0.378Q0.376 0.753 0.369 0.753Q0.369 0.747 0.364 0.744Q0.373 0.729 0.373 0.723Q0.371 0.723 0.371 0.722ZM0.344 0.731V0.735H0.347Q0.347 0.731 0.344 0.731ZM0.305 0.740H0.307L0.311 0.742Q0.311 0.740 0.313 0.740Q0.324 0.751 0.335 0.753V0.751L0.338 0.753H0.342L0.346 0.751V0.753Q0.347 0.753 0.360 0.746Q0.365 0.755 0.365 0.758Q0.361 0.768 0.342 0.793L0.331 0.769Q0.311 0.753 0.305 0.740ZM0.320 0.773Q0.322 0.773 0.329 0.784V0.791L0.327 0.800H0.325ZM0.336 0.795Q0.340 0.795 0.340 0.798Q0.336 0.798 0.336 0.804H0.335V0.800Q0.336 0.797 0.336 0.795Z" fill="black"/>
</svg>
