<svg xmlns="http://www.w3.org/2000/svg" viewBox="0 0 1 1" preserveAspectRatio="xMidYMid meet">
  <path d="M0.578 0.127Q0.582 0.127 0.602 0.185H0.661L0.633 0.209Q0.629 0.207 0.627 0.207V0.205Q0.628 0.205 0.647 0.193V0.189H0.602Q0.598 0.189 0.582 0.144H0.578Q0.563 0.189 0.560 0.189H0.512V0.193Q0.516 0.193 0.525 0.202H0.547L0.545 0.198H0.571L0.578 0.174Q0.582 0.174 0.589 0.198H0.616Q0.596 0.214 0.596 0.218Q0.596 0.221 0.605 0.243H0.603L0.610 0.258Q0.603 0.259 0.603 0.263V0.269Q0.603 0.272 0.618 0.276L0.627 0.309Q0.603 0.311 0.603 0.316V0.321Q0.603 0.323 0.609 0.327L0.618 0.325H0.629V0.327Q0.629 0.331 0.631 0.354Q0.631 0.357 0.616 0.369V0.374Q0.616 0.378 0.629 0.378Q0.623 0.422 0.589 0.472Q0.567 0.494 0.563 0.494V0.497Q0.596 0.497 0.647 0.570Q0.663 0.612 0.663 0.625L0.634 0.651Q0.634 0.610 0.614 0.579H0.612L0.614 0.576Q0.610 0.576 0.610 0.572H0.607V0.576H0.605Q0.605 0.570 0.602 0.570L0.603 0.566H0.594V0.565H0.603Q0.581 0.533 0.529 0.519H0.524Q0.471 0.520 0.471 0.523L0.460 0.521H0.437Q0.435 0.521 0.435 0.523L0.431 0.521Q0.427 0.521 0.424 0.523Q0.421 0.521 0.416 0.521H0.415V0.525H0.413V0.523L0.422 0.490H0.445V0.488H0.440V0.486H0.445Q0.453 0.490 0.458 0.490Q0.554 0.490 0.585 0.418Q0.598 0.374 0.598 0.347Q0.598 0.301 0.572 0.253H0.571L0.525 0.281V0.280L0.540 0.232H0.367Q0.367 0.245 0.358 0.249H0.351Q0.342 0.245 0.342 0.232H0.338V0.399L0.340 0.409Q0.314 0.382 0.306 0.381V0.294L0.297 0.298Q0.293 0.296 0.291 0.296Q0.291 0.295 0.293 0.272H0.295Q0.300 0.272 0.306 0.276V0.238Q0.297 0.238 0.297 0.227Q0.298 0.216 0.302 0.216H0.306Q0.307 0.225 0.311 0.225Q0.313 0.222 0.313 0.220Q0.306 0.207 0.306 0.202H0.319Q0.323 0.214 0.328 0.214L0.330 0.211L0.324 0.202H0.340L0.344 0.204Q0.344 0.201 0.353 0.194H0.362Q0.367 0.194 0.367 0.202H0.516V0.200L0.496 0.187V0.185H0.558ZM0.289 0.140H0.293Q0.293 0.143 0.304 0.156Q0.304 0.160 0.300 0.160H0.298Q0.298 0.158 0.289 0.140ZM0.281 0.147H0.282Q0.282 0.149 0.291 0.164H0.289Q0.281 0.160 0.281 0.149ZM0.358 0.156H0.362Q0.370 0.160 0.371 0.164V0.171Q0.370 0.171 0.358 0.156ZM0.349 0.160H0.351Q0.354 0.160 0.367 0.176Q0.367 0.180 0.364 0.180H0.355Q0.352 0.180 0.347 0.171V0.169ZM0.309 0.174H0.313Q0.316 0.174 0.320 0.181V0.191H0.317ZM0.249 0.178H0.251Q0.257 0.195 0.257 0.202H0.251L0.246 0.180ZM0.300 0.178Q0.304 0.178 0.313 0.196Q0.311 0.196 0.307 0.198Q0.298 0.198 0.297 0.180ZM0.239 0.193H0.240V0.196H0.239ZM0.230 0.209Q0.240 0.209 0.249 0.222Q0.247 0.224 0.247 0.230L0.260 0.236V0.243Q0.260 0.254 0.249 0.254H0.244Q0.241 0.254 0.237 0.247V0.240L0.240 0.234V0.232Q0.228 0.232 0.226 0.225V0.223H0.231V0.216Q0.226 0.216 0.226 0.213Q0.230 0.213 0.230 0.209ZM0.270 0.209H0.275Q0.278 0.209 0.282 0.216V0.225Q0.282 0.228 0.277 0.230ZM0.260 0.213H0.264Q0.268 0.224 0.268 0.227Q0.259 0.223 0.259 0.218Q0.260 0.215 0.260 0.213ZM0.616 0.216H0.618L0.612 0.223Q0.623 0.253 0.623 0.258H0.620Q0.610 0.226 0.610 0.220ZM0.545 0.234Q0.540 0.250 0.536 0.269H0.538Q0.569 0.249 0.569 0.247L0.560 0.240Q0.560 0.243 0.556 0.243V0.241L0.558 0.238Q0.551 0.234 0.545 0.234ZM0.281 0.240H0.284Q0.293 0.242 0.293 0.253V0.254Q0.292 0.254 0.281 0.240ZM0.275 0.241Q0.288 0.254 0.288 0.262V0.263L0.281 0.265Q0.273 0.263 0.270 0.256V0.253Q0.271 0.241 0.275 0.241ZM0.208 0.256Q0.226 0.259 0.226 0.263V0.271Q0.223 0.277 0.215 0.280Q0.202 0.280 0.202 0.265ZM0.353 0.260H0.362Q0.365 0.260 0.369 0.267V0.276Q0.369 0.279 0.362 0.283H0.353Q0.350 0.283 0.346 0.276V0.267Q0.346 0.264 0.353 0.260ZM0.609 0.263Q0.620 0.265 0.620 0.269H0.618L0.609 0.267ZM0.623 0.263Q0.626 0.263 0.629 0.271H0.621Q0.623 0.267 0.623 0.263ZM0.240 0.267H0.244Q0.239 0.274 0.237 0.285H0.235V0.278Q0.236 0.267 0.240 0.267ZM0.253 0.267 0.259 0.274V0.278Q0.259 0.290 0.244 0.290H0.242Q0.246 0.267 0.253 0.267ZM0.623 0.276H0.627Q0.631 0.277 0.631 0.280V0.281Q0.623 0.279 0.623 0.276ZM0.286 0.278H0.288V0.283Q0.286 0.287 0.286 0.289H0.284V0.283Q0.286 0.280 0.286 0.278ZM0.262 0.290H0.273Q0.276 0.290 0.279 0.296V0.303Q0.279 0.314 0.268 0.314H0.264Q0.258 0.311 0.255 0.303Q0.258 0.290 0.262 0.290ZM0.627 0.314Q0.627 0.316 0.629 0.320Q0.615 0.320 0.609 0.321V0.318Q0.624 0.314 0.627 0.314ZM0.629 0.367V0.369Q0.629 0.372 0.625 0.372H0.621V0.369Q0.622 0.369 0.629 0.367ZM0.375 0.370H0.377L0.379 0.388V0.398H0.375Q0.373 0.430 0.371 0.437H0.369V0.427H0.371Q0.371 0.421 0.375 0.370ZM0.349 0.374H0.351Q0.356 0.392 0.356 0.401Q0.355 0.401 0.355 0.405H0.353Q0.353 0.399 0.349 0.376ZM0.402 0.374H0.404V0.376Q0.398 0.403 0.398 0.410H0.396V0.401L0.393 0.403V0.401ZM0.428 0.385V0.387Q0.418 0.406 0.418 0.409H0.411Q0.424 0.386 0.428 0.385ZM0.306 0.387Q0.327 0.398 0.340 0.418Q0.340 0.421 0.337 0.421L0.306 0.394ZM0.379 0.399H0.380V0.421H0.379ZM0.449 0.399V0.401Q0.434 0.422 0.431 0.423Q0.431 0.420 0.428 0.420Q0.428 0.418 0.449 0.399ZM0.358 0.401H0.360V0.405H0.358ZM0.306 0.403Q0.323 0.412 0.340 0.432L0.338 0.436V0.443L0.344 0.450V0.452L0.340 0.450H0.338V0.488Q0.332 0.483 0.313 0.483H0.311L0.307 0.485Q0.307 0.478 0.300 0.478V0.476H0.306V0.472H0.297V0.474H0.300V0.476H0.297Q0.293 0.476 0.270 0.472V0.470H0.306V0.452H0.300V0.456L0.275 0.446V0.445H0.277Q0.299 0.450 0.306 0.450V0.437Q0.291 0.423 0.286 0.423V0.421H0.289L0.306 0.430ZM0.391 0.403H0.393V0.409H0.391ZM0.355 0.405H0.356V0.416H0.355ZM0.360 0.405H0.362V0.410H0.360ZM0.389 0.409H0.391V0.414H0.389ZM0.409 0.409H0.411V0.412H0.409ZM0.362 0.410H0.364V0.416H0.362ZM0.395 0.410H0.396V0.421H0.395ZM0.409 0.412V0.414Q0.409 0.418 0.405 0.418V0.416Q0.406 0.412 0.409 0.412ZM0.388 0.414H0.389V0.420H0.388ZM0.356 0.416H0.358V0.427H0.356ZM0.364 0.416H0.366V0.421H0.364ZM0.405 0.418V0.420Q0.405 0.423 0.402 0.423V0.421Q0.403 0.418 0.405 0.418ZM0.340 0.420H0.342V0.423H0.340ZM0.386 0.420H0.388V0.425H0.386ZM0.366 0.421H0.367V0.427H0.366ZM0.380 0.421H0.382V0.427L0.386 0.425V0.427Q0.384 0.437 0.380 0.437ZM0.393 0.421H0.395V0.430L0.398 0.428V0.430Q0.393 0.439 0.391 0.439V0.437Q0.393 0.428 0.393 0.421ZM0.465 0.421Q0.465 0.423 0.445 0.437H0.444Q0.444 0.434 0.440 0.434V0.432Q0.464 0.421 0.465 0.421ZM0.342 0.423H0.344V0.427H0.342ZM0.402 0.423V0.425Q0.402 0.428 0.398 0.428V0.427Q0.399 0.423 0.402 0.423ZM0.429 0.425V0.427Q0.429 0.430 0.426 0.430V0.428Q0.426 0.425 0.429 0.425ZM0.358 0.427H0.360V0.432H0.358ZM0.404 0.434Q0.407 0.436 0.409 0.436Q0.409 0.438 0.400 0.445V0.443Q0.404 0.437 0.404 0.434ZM0.422 0.434V0.436Q0.422 0.439 0.418 0.439V0.437Q0.419 0.434 0.422 0.434ZM0.438 0.434H0.440Q0.440 0.437 0.437 0.437H0.435Q0.435 0.434 0.438 0.434ZM0.342 0.436H0.346Q0.348 0.436 0.351 0.441V0.443H0.349Q0.346 0.443 0.342 0.436ZM0.431 0.437H0.435V0.439H0.431ZM0.428 0.439H0.431V0.441H0.428ZM0.440 0.439H0.442Q0.442 0.443 0.438 0.443H0.437Q0.437 0.439 0.440 0.439ZM0.416 0.441Q0.416 0.445 0.420 0.445V0.446Q0.416 0.446 0.409 0.452H0.407Q0.414 0.441 0.416 0.441ZM0.424 0.441H0.428V0.443H0.424ZM0.420 0.443H0.424V0.445H0.420ZM0.433 0.445H0.435Q0.435 0.448 0.431 0.448H0.429Q0.430 0.445 0.433 0.445ZM0.476 0.445H0.478V0.446Q0.476 0.446 0.451 0.456L0.453 0.452H0.447V0.450Q0.452 0.450 0.476 0.445ZM0.424 0.450H0.428V0.452H0.424ZM0.424 0.452Q0.424 0.456 0.431 0.456V0.458Q0.427 0.458 0.413 0.461Q0.413 0.458 0.424 0.452ZM0.444 0.452H0.447V0.454L0.435 0.456H0.431V0.454ZM0.300 0.456H0.304V0.458H0.300ZM0.447 0.456H0.451V0.458H0.447ZM0.445 0.458H0.447V0.459Q0.441 0.461 0.440 0.461H0.438V0.459Q0.439 0.459 0.445 0.458ZM0.435 0.461H0.438V0.463H0.435ZM0.429 0.463H0.435V0.465H0.429ZM0.428 0.465H0.429L0.428 0.469Q0.429 0.469 0.429 0.470H0.428Q0.424 0.470 0.424 0.467ZM0.416 0.469H0.420V0.470H0.416ZM0.431 0.469H0.433Q0.446 0.470 0.484 0.470V0.472Q0.458 0.476 0.454 0.476H0.453V0.474H0.456V0.472Q0.440 0.472 0.431 0.470ZM0.438 0.476H0.451V0.478H0.438ZM0.429 0.478H0.438V0.479H0.429V0.483Q0.430 0.483 0.440 0.485V0.486H0.435Q0.427 0.483 0.424 0.483V0.481Q0.424 0.478 0.429 0.478ZM0.317 0.488H0.319V0.490L0.306 0.494V0.490Q0.307 0.490 0.317 0.488ZM0.298 0.490 0.297 0.494H0.306V0.495Q0.294 0.495 0.284 0.497V0.494ZM0.353 0.490H0.375Q0.375 0.518 0.330 0.525H0.306V0.514Q0.303 0.516 0.297 0.516Q0.297 0.513 0.306 0.506Q0.306 0.490 0.353 0.490ZM0.380 0.490H0.416Q0.410 0.521 0.404 0.521L0.405 0.525H0.404L0.400 0.523V0.527H0.398V0.521H0.389V0.528H0.388L0.389 0.537H0.386V0.521H0.377L0.379 0.525V0.530Q0.375 0.530 0.375 0.535H0.373V0.530L0.375 0.521H0.366V0.548H0.364Q0.364 0.528 0.362 0.528H0.360L0.364 0.521Q0.362 0.521 0.362 0.519Q0.380 0.510 0.380 0.490ZM0.271 0.495H0.277V0.497Q0.275 0.497 0.271 0.499ZM0.291 0.516V0.518Q0.289 0.523 0.281 0.523Q0.281 0.520 0.291 0.516ZM0.426 0.523H0.428Q0.431 0.523 0.431 0.527H0.429Q0.426 0.527 0.426 0.523ZM0.351 0.525H0.353V0.530H0.351ZM0.416 0.527H0.418V0.530H0.416ZM0.438 0.527Q0.440 0.527 0.456 0.543V0.544Q0.455 0.544 0.437 0.532Q0.438 0.529 0.438 0.527ZM0.338 0.528V0.532L0.342 0.530V0.532L0.338 0.537V0.557Q0.319 0.561 0.306 0.568V0.539H0.304L0.298 0.543H0.297Q0.306 0.533 0.306 0.530H0.330ZM0.391 0.528H0.393V0.532H0.391ZM0.407 0.528H0.411V0.532Q0.407 0.532 0.407 0.528ZM0.433 0.528H0.437V0.530H0.433ZM0.349 0.530H0.351V0.535H0.349ZM0.358 0.530H0.360V0.534H0.358ZM0.418 0.530H0.420V0.534H0.418ZM0.379 0.532H0.380V0.539H0.379ZM0.393 0.532H0.395V0.535H0.393ZM0.356 0.534H0.358V0.537H0.356ZM0.402 0.534H0.404V0.539H0.402ZM0.347 0.535H0.349V0.541H0.347ZM0.371 0.535H0.373V0.543H0.371ZM0.415 0.535Q0.423 0.543 0.424 0.543V0.539Q0.428 0.539 0.428 0.544L0.431 0.543H0.438L0.442 0.544Q0.442 0.543 0.444 0.543Q0.444 0.549 0.454 0.550Q0.453 0.557 0.444 0.561Q0.444 0.566 0.435 0.566Q0.423 0.566 0.422 0.544Q0.419 0.544 0.415 0.537ZM0.422 0.535H0.424V0.539H0.422ZM0.355 0.537H0.356V0.541H0.355ZM0.396 0.539H0.398V0.543H0.396ZM0.404 0.539H0.405V0.544H0.404ZM0.547 0.539H0.551V0.541Q0.551 0.544 0.547 0.544Q0.544 0.544 0.544 0.541ZM0.346 0.541H0.347V0.546H0.346ZM0.353 0.541H0.355V0.544H0.353ZM0.398 0.543H0.400V0.546H0.398ZM0.351 0.544H0.353V0.548H0.351ZM0.388 0.544H0.389Q0.389 0.573 0.391 0.585Q0.388 0.585 0.382 0.552V0.548H0.384Q0.384 0.557 0.388 0.557ZM0.405 0.544H0.407V0.548H0.405ZM0.400 0.546H0.402V0.550H0.400ZM0.478 0.546H0.487Q0.490 0.546 0.495 0.554V0.557Q0.495 0.570 0.480 0.570Q0.471 0.567 0.471 0.557V0.554Q0.471 0.551 0.478 0.546ZM0.344 0.548H0.346Q0.346 0.552 0.349 0.552V0.554H0.344ZM0.349 0.548H0.351V0.552H0.349ZM0.402 0.550 0.405 0.552 0.409 0.550Q0.409 0.555 0.416 0.577Q0.413 0.577 0.402 0.550ZM0.364 0.554H0.366V0.557H0.367V0.554H0.369V0.557Q0.364 0.578 0.364 0.585H0.362V0.563ZM0.798 0.554V0.555Q0.798 0.564 0.770 0.592H0.768L0.794 0.555ZM0.340 0.561H0.346Q0.338 0.574 0.338 0.579V0.635H0.344V0.632H0.340V0.630H0.344Q0.352 0.635 0.364 0.637V0.639H0.358V0.642Q0.362 0.642 0.380 0.668H0.382V0.664Q0.382 0.655 0.379 0.642Q0.382 0.642 0.386 0.657H0.389V0.653L0.388 0.644Q0.390 0.644 0.393 0.642Q0.395 0.642 0.395 0.644L0.404 0.642H0.407Q0.416 0.648 0.416 0.655L0.413 0.663H0.416L0.431 0.655L0.433 0.659V0.661Q0.416 0.668 0.415 0.668V0.672Q0.420 0.672 0.420 0.681Q0.420 0.688 0.413 0.692H0.404Q0.398 0.690 0.395 0.679Q0.388 0.682 0.388 0.684Q0.395 0.697 0.395 0.702L0.404 0.700Q0.416 0.700 0.416 0.713Q0.416 0.724 0.402 0.724V0.726L0.400 0.748H0.398V0.728H0.396Q0.372 0.743 0.366 0.759H0.360L0.362 0.749Q0.358 0.751 0.356 0.751Q0.364 0.773 0.364 0.777H0.538L0.549 0.786H0.551Q0.564 0.771 0.584 0.768L0.585 0.764V0.757Q0.585 0.744 0.576 0.739Q0.574 0.739 0.561 0.723L0.565 0.721Q0.565 0.723 0.567 0.723Q0.569 0.719 0.569 0.717H0.571Q0.572 0.717 0.572 0.719Q0.578 0.719 0.578 0.710L0.603 0.733H0.605Q0.607 0.733 0.634 0.702Q0.631 0.702 0.629 0.690H0.633V0.684Q0.623 0.684 0.623 0.679V0.677Q0.624 0.674 0.627 0.674Q0.627 0.675 0.629 0.675L0.631 0.672V0.670L0.629 0.666L0.625 0.668Q0.623 0.668 0.616 0.657H0.614L0.612 0.661V0.663Q0.616 0.672 0.620 0.672Q0.620 0.674 0.618 0.674L0.620 0.677L0.618 0.686Q0.617 0.686 0.605 0.675H0.603L0.572 0.704Q0.572 0.700 0.569 0.700Q0.565 0.702 0.563 0.702V0.699Q0.563 0.697 0.560 0.679Q0.560 0.666 0.578 0.655V0.657Q0.585 0.656 0.585 0.653L0.596 0.657L0.598 0.653V0.651H0.594V0.648Q0.600 0.650 0.602 0.655Q0.600 0.655 0.600 0.657L0.603 0.659V0.655L0.607 0.657H0.610L0.614 0.655L0.612 0.651V0.650L0.629 0.659Q0.629 0.657 0.631 0.657V0.661H0.634V0.657L0.663 0.684Q0.663 0.683 0.665 0.683V0.686Q0.665 0.730 0.629 0.755V0.759L0.638 0.770Q0.636 0.770 0.636 0.771L0.633 0.770H0.629Q0.629 0.774 0.610 0.788Q0.610 0.785 0.605 0.783H0.603Q0.580 0.809 0.554 0.809H0.527Q0.512 0.794 0.496 0.783L0.467 0.809H0.386Q0.380 0.809 0.377 0.811L0.366 0.809H0.306V0.775L0.302 0.770L0.289 0.771H0.282V0.779Q0.273 0.768 0.264 0.768L0.266 0.771L0.260 0.775H0.259V0.771Q0.259 0.768 0.262 0.768L0.260 0.760Q0.269 0.728 0.281 0.728Q0.296 0.711 0.304 0.681Q0.306 0.681 0.306 0.679V0.677Q0.306 0.674 0.302 0.674Q0.306 0.648 0.313 0.623L0.309 0.621L0.306 0.623V0.576Q0.306 0.571 0.338 0.563V0.566H0.340ZM0.464 0.585V0.588H0.460Q0.461 0.585 0.464 0.585ZM0.509 0.586V0.590H0.505Q0.506 0.586 0.509 0.586ZM0.705 0.588H0.707V0.592H0.705ZM0.438 0.592Q0.445 0.592 0.449 0.599V0.608Q0.449 0.611 0.442 0.615H0.433Q0.426 0.613 0.426 0.602Q0.426 0.592 0.438 0.592ZM0.765 0.592H0.768V0.595H0.765ZM0.705 0.595H0.707V0.599H0.705ZM0.759 0.597H0.763V0.599H0.759ZM0.277 0.599Q0.290 0.627 0.295 0.634L0.293 0.642H0.289Q0.289 0.636 0.273 0.601ZM0.545 0.599H0.547V0.604H0.545ZM0.705 0.599V0.601Q0.705 0.604 0.701 0.604V0.602Q0.702 0.599 0.705 0.599ZM0.758 0.599H0.759V0.602H0.758ZM0.754 0.602H0.758V0.604H0.754ZM0.560 0.604H0.561V0.608H0.560ZM0.752 0.604H0.754Q0.754 0.608 0.751 0.608H0.749Q0.749 0.604 0.752 0.604ZM0.547 0.606H0.549Q0.551 0.616 0.551 0.617H0.553Q0.557 0.617 0.558 0.608H0.560V0.614Q0.558 0.617 0.558 0.619L0.571 0.615Q0.561 0.623 0.561 0.625V0.626H0.563Q0.579 0.628 0.582 0.628V0.630H0.561V0.632L0.569 0.641H0.567Q0.560 0.635 0.556 0.635V0.637Q0.558 0.647 0.558 0.648V0.651H0.556Q0.556 0.649 0.553 0.637H0.551Q0.547 0.637 0.545 0.646H0.544V0.644L0.545 0.634H0.544Q0.537 0.637 0.535 0.637Q0.535 0.633 0.542 0.632V0.628Q0.535 0.626 0.529 0.626V0.625Q0.534 0.625 0.544 0.623L0.535 0.612H0.536L0.547 0.619H0.549L0.547 0.610ZM0.396 0.608H0.400Q0.413 0.608 0.413 0.621V0.623Q0.413 0.625 0.404 0.632H0.402Q0.392 0.632 0.389 0.625V0.615Q0.389 0.613 0.396 0.608ZM0.743 0.610H0.747V0.612H0.743ZM0.691 0.612H0.694V0.614Q0.683 0.624 0.667 0.630L0.665 0.626Q0.690 0.618 0.691 0.612ZM0.571 0.614H0.574V0.615H0.571ZM0.451 0.615H0.460Q0.469 0.620 0.469 0.632L0.460 0.637V0.639Q0.460 0.642 0.469 0.642V0.644Q0.462 0.644 0.462 0.651L0.458 0.650V0.655H0.456Q0.456 0.650 0.453 0.650Q0.453 0.648 0.454 0.648L0.453 0.644V0.639Q0.444 0.637 0.444 0.626V0.623Q0.444 0.620 0.451 0.615ZM0.734 0.615H0.738V0.617H0.734ZM0.610 0.621H0.612V0.625H0.610ZM0.747 0.623Q0.751 0.623 0.751 0.626H0.747ZM0.745 0.625 0.747 0.628 0.734 0.635V0.634L0.727 0.637L0.725 0.634Q0.729 0.634 0.745 0.625ZM0.306 0.628V0.630Q0.299 0.653 0.293 0.699Q0.271 0.737 0.249 0.737Q0.251 0.733 0.271 0.723V0.717H0.268Q0.268 0.723 0.264 0.723Q0.260 0.723 0.260 0.717Q0.264 0.705 0.264 0.702Q0.259 0.689 0.259 0.681L0.270 0.690V0.688L0.273 0.690H0.279Q0.273 0.700 0.273 0.704Q0.277 0.710 0.277 0.713H0.281Q0.288 0.666 0.304 0.628ZM0.663 0.632Q0.667 0.639 0.667 0.651V0.661H0.672V0.663H0.667V0.672Q0.667 0.674 0.661 0.677L0.640 0.653ZM0.725 0.635Q0.725 0.639 0.721 0.639H0.716V0.637ZM0.338 0.641V0.644Q0.346 0.644 0.346 0.648H0.347Q0.349 0.648 0.349 0.646Q0.358 0.646 0.358 0.677V0.683H0.360Q0.372 0.678 0.375 0.672Q0.363 0.652 0.349 0.639H0.347ZM0.531 0.637H0.535V0.639H0.531ZM0.633 0.637Q0.633 0.641 0.627 0.641H0.623V0.639ZM0.569 0.641H0.572V0.644Q0.569 0.644 0.569 0.641ZM0.616 0.641H0.620V0.642H0.616ZM0.703 0.641H0.707V0.642H0.703ZM0.610 0.642H0.614V0.644H0.610ZM0.605 0.644Q0.605 0.646 0.607 0.646Q0.607 0.644 0.609 0.644V0.650Q0.606 0.648 0.602 0.648Q0.602 0.644 0.605 0.644ZM0.445 0.646H0.449V0.648H0.445ZM0.542 0.646H0.544V0.650H0.542ZM0.338 0.657V0.692Q0.344 0.688 0.347 0.688V0.650H0.346Q0.343 0.650 0.338 0.657ZM0.289 0.650V0.651Q0.281 0.680 0.275 0.683H0.273L0.284 0.661H0.281Q0.262 0.671 0.262 0.674Q0.264 0.677 0.264 0.679Q0.260 0.679 0.257 0.668Q0.259 0.664 0.259 0.663L0.264 0.666Q0.266 0.662 0.289 0.650ZM0.561 0.651H0.565V0.653H0.561ZM0.691 0.651H0.694V0.653H0.691ZM0.696 0.651H0.712V0.653Q0.700 0.653 0.698 0.655ZM0.678 0.653H0.685V0.655H0.678ZM0.465 0.657Q0.476 0.661 0.476 0.672Q0.474 0.681 0.464 0.681Q0.453 0.681 0.453 0.670V0.664Q0.456 0.657 0.465 0.657ZM0.393 0.661 0.391 0.664V0.670L0.400 0.668Q0.400 0.670 0.402 0.670V0.668Q0.402 0.665 0.393 0.661ZM0.605 0.663V0.664L0.609 0.666H0.610V0.663L0.607 0.664Q0.607 0.663 0.605 0.663ZM0.676 0.672V0.674L0.672 0.683Q0.669 0.681 0.667 0.681Q0.667 0.679 0.676 0.672ZM0.253 0.675H0.255V0.679Q0.252 0.679 0.247 0.683V0.681Q0.247 0.678 0.253 0.675ZM0.545 0.679H0.547V0.683H0.545ZM0.605 0.681Q0.624 0.702 0.627 0.702Q0.620 0.713 0.603 0.728L0.582 0.704Q0.582 0.702 0.605 0.681ZM0.674 0.681Q0.683 0.683 0.683 0.686H0.681Q0.678 0.684 0.674 0.684ZM0.246 0.683H0.247V0.686H0.246ZM0.545 0.684 0.551 0.688Q0.551 0.686 0.553 0.686V0.690Q0.549 0.690 0.549 0.695H0.547Q0.547 0.693 0.545 0.690H0.547L0.545 0.686ZM0.687 0.684V0.688H0.683Q0.684 0.684 0.687 0.684ZM0.460 0.686H0.464Q0.476 0.686 0.476 0.699Q0.476 0.710 0.464 0.710Q0.456 0.710 0.453 0.702V0.693Q0.453 0.690 0.460 0.686ZM0.689 0.686Q0.698 0.692 0.701 0.692Q0.701 0.694 0.693 0.700L0.689 0.695H0.693V0.693Q0.693 0.690 0.687 0.690ZM0.356 0.710H0.360Q0.360 0.705 0.366 0.695H0.362Q0.358 0.695 0.356 0.710ZM0.709 0.695Q0.727 0.703 0.727 0.706H0.725L0.707 0.699ZM0.304 0.699Q0.304 0.702 0.300 0.706V0.708H0.302Q0.306 0.708 0.306 0.704V0.699ZM0.386 0.699Q0.386 0.705 0.379 0.730H0.382Q0.391 0.723 0.395 0.723L0.389 0.699ZM0.549 0.697Q0.553 0.698 0.553 0.700H0.549ZM0.338 0.708V0.711Q0.340 0.723 0.344 0.723H0.346V0.702Q0.338 0.705 0.338 0.708ZM0.373 0.706Q0.362 0.728 0.356 0.742Q0.371 0.742 0.377 0.706ZM0.730 0.704V0.708H0.727Q0.728 0.704 0.730 0.704ZM0.554 0.706H0.558V0.708H0.554ZM0.576 0.706 0.578 0.710 0.574 0.711Q0.571 0.711 0.571 0.708Q0.572 0.708 0.576 0.706ZM0.732 0.706Q0.736 0.708 0.738 0.708V0.711H0.736Q0.732 0.710 0.730 0.710ZM0.547 0.708 0.551 0.713Q0.548 0.713 0.544 0.717V0.711Q0.544 0.708 0.547 0.708ZM0.747 0.711Q0.755 0.715 0.756 0.719H0.752Q0.746 0.715 0.741 0.715Q0.741 0.711 0.747 0.711ZM0.242 0.717H0.247Q0.251 0.718 0.251 0.721V0.723Q0.251 0.726 0.247 0.726H0.246Q0.242 0.726 0.242 0.723ZM0.293 0.728V0.737Q0.293 0.746 0.306 0.759V0.733Q0.304 0.733 0.304 0.735Q0.300 0.733 0.298 0.733V0.730Q0.299 0.726 0.302 0.726L0.306 0.728V0.721Q0.293 0.725 0.293 0.728ZM0.676 0.726Q0.680 0.727 0.680 0.730H0.676ZM0.246 0.737H0.249V0.739H0.246ZM0.386 0.744H0.391V0.748Q0.391 0.751 0.388 0.751H0.386Q0.382 0.751 0.382 0.748Q0.382 0.744 0.386 0.744ZM0.549 0.746H0.551L0.554 0.748Q0.554 0.746 0.556 0.746L0.558 0.749Q0.556 0.749 0.556 0.751Q0.560 0.752 0.560 0.755Q0.555 0.755 0.551 0.759Q0.551 0.756 0.545 0.751Q0.549 0.751 0.549 0.746ZM0.647 0.746V0.748L0.645 0.751Q0.647 0.751 0.647 0.753H0.645Q0.647 0.757 0.649 0.771Q0.646 0.771 0.634 0.757Q0.646 0.746 0.647 0.746ZM0.228 0.749H0.233V0.751H0.228ZM0.266 0.766H0.271Q0.275 0.766 0.275 0.762V0.751H0.273Q0.269 0.751 0.266 0.766ZM0.282 0.751Q0.282 0.757 0.281 0.764H0.288L0.286 0.760V0.751ZM0.687 0.749 0.689 0.753Q0.689 0.757 0.685 0.757L0.683 0.753Q0.684 0.749 0.687 0.749ZM0.223 0.751H0.228V0.753L0.219 0.755Q0.219 0.751 0.223 0.751ZM0.347 0.768 0.346 0.777H0.355Q0.351 0.771 0.351 0.768ZM0.547 0.777H0.553Q0.553 0.781 0.549 0.781ZM0.496 0.788Q0.499 0.788 0.518 0.809H0.475Q0.475 0.807 0.496 0.788ZM0.605 0.788 0.607 0.791Q0.604 0.791 0.600 0.795H0.598Q0.598 0.792 0.605 0.788ZM0.616 0.791H0.620V0.795Q0.616 0.795 0.616 0.791Z" fill="black"/>
</svg>
