<svg xmlns="http://www.w3.org/2000/svg" viewBox="0 0 1 1" preserveAspectRatio="xMidYMid meet">
  <path d="M0.724 0.203V0.224L0.721 0.222L0.715 0.230L0.719 0.231Q0.719 0.229 0.724 0.226V0.233Q0.647 0.233 0.560 0.266V0.264Q0.560 0.262 0.551 0.259Q0.541 0.263 0.536 0.268L0.532 0.266Q0.529 0.266 0.529 0.270L0.531 0.273Q0.519 0.288 0.513 0.288L0.543 0.242Q0.542 0.242 0.542 0.241Q0.581 0.224 0.619 0.217L0.600 0.239L0.603 0.241Q0.627 0.210 0.647 0.210L0.685 0.205V0.206Q0.688 0.205 0.690 0.205Q0.696 0.205 0.724 0.203ZM0.668 0.221 0.665 0.219 0.658 0.222Q0.658 0.221 0.656 0.221L0.651 0.228L0.652 0.231Q0.666 0.231 0.683 0.217Q0.679 0.217 0.679 0.214Q0.668 0.217 0.668 0.221ZM0.643 0.226 0.641 0.230 0.647 0.233 0.649 0.230ZM0.538 0.242Q0.538 0.245 0.520 0.261Q0.517 0.261 0.513 0.253V0.252ZM0.708 0.244H0.710V0.248H0.708ZM0.471 0.248Q0.475 0.248 0.475 0.252L0.471 0.253Q0.468 0.253 0.468 0.250ZM0.507 0.255Q0.507 0.258 0.520 0.268Q0.497 0.301 0.451 0.348Q0.451 0.338 0.430 0.333L0.417 0.318Q0.417 0.317 0.431 0.306Q0.426 0.306 0.426 0.302Q0.446 0.302 0.446 0.301Q0.446 0.303 0.468 0.322L0.496 0.291Q0.494 0.291 0.477 0.271ZM0.460 0.257Q0.464 0.257 0.464 0.261V0.262H0.460Q0.457 0.262 0.457 0.259ZM0.482 0.257 0.484 0.261Q0.484 0.264 0.480 0.264L0.478 0.261Q0.479 0.257 0.482 0.257ZM0.549 0.264Q0.552 0.266 0.556 0.266Q0.556 0.270 0.542 0.273V0.275L0.553 0.284H0.551L0.547 0.282V0.286H0.545Q0.537 0.278 0.532 0.278Q0.532 0.275 0.549 0.264ZM0.449 0.268Q0.453 0.268 0.453 0.271L0.449 0.273Q0.446 0.273 0.446 0.270ZM0.473 0.275 0.489 0.293 0.466 0.315 0.453 0.301 0.458 0.297 0.457 0.293 0.458 0.289Q0.455 0.289 0.455 0.286Q0.458 0.286 0.458 0.282Q0.457 0.282 0.457 0.280L0.460 0.278Q0.464 0.280 0.466 0.280Q0.466 0.277 0.473 0.275ZM0.440 0.277 0.442 0.280Q0.442 0.284 0.438 0.284L0.437 0.280Q0.437 0.277 0.440 0.277ZM0.677 0.278H0.679Q0.679 0.282 0.675 0.282H0.674Q0.675 0.278 0.677 0.278ZM0.674 0.282Q0.666 0.291 0.659 0.291Q0.659 0.287 0.674 0.282ZM0.531 0.284Q0.549 0.296 0.549 0.299H0.547Q0.543 0.297 0.542 0.297V0.299L0.547 0.306H0.545Q0.531 0.293 0.531 0.284ZM0.558 0.284Q0.573 0.291 0.580 0.291V0.293H0.574Q0.562 0.288 0.556 0.288ZM0.447 0.288Q0.455 0.290 0.455 0.293L0.451 0.299Q0.448 0.297 0.444 0.297L0.447 0.291Q0.446 0.291 0.446 0.289Q0.447 0.289 0.447 0.288ZM0.511 0.288H0.513Q0.513 0.289 0.515 0.293L0.509 0.297V0.293Q0.511 0.289 0.511 0.288ZM0.424 0.289H0.431Q0.430 0.297 0.428 0.297H0.421V0.295H0.428V0.291H0.424ZM0.654 0.291H0.656L0.652 0.297L0.641 0.295V0.293ZM0.520 0.293H0.527V0.295H0.520ZM0.560 0.293H0.564V0.295H0.560ZM0.580 0.293H0.587V0.295H0.580ZM0.564 0.295H0.569V0.297H0.564ZM0.587 0.295H0.596V0.297H0.587ZM0.569 0.297H0.574V0.299H0.569ZM0.605 0.297H0.609V0.299H0.605ZM0.627 0.297H0.628Q0.628 0.301 0.625 0.301H0.623Q0.624 0.297 0.627 0.297ZM0.504 0.299H0.507Q0.507 0.301 0.491 0.315V0.313Q0.501 0.299 0.504 0.299ZM0.576 0.299H0.581V0.301H0.576ZM0.641 0.299H0.645V0.301H0.641ZM0.513 0.301H0.518Q0.531 0.302 0.532 0.302V0.304H0.524V0.308Q0.524 0.311 0.527 0.311H0.536V0.306H0.532Q0.534 0.302 0.534 0.301H0.536Q0.538 0.311 0.540 0.311L0.536 0.318Q0.538 0.318 0.538 0.320Q0.535 0.320 0.529 0.325Q0.529 0.320 0.524 0.320V0.318H0.534Q0.534 0.316 0.536 0.313H0.527Q0.524 0.313 0.524 0.318H0.522V0.313H0.517Q0.513 0.313 0.513 0.317V0.318H0.517Q0.509 0.326 0.509 0.327L0.502 0.324Q0.500 0.326 0.500 0.337H0.498Q0.498 0.329 0.493 0.329H0.489V0.333H0.493Q0.493 0.337 0.489 0.337L0.485 0.335L0.487 0.331L0.485 0.327L0.491 0.324Q0.494 0.325 0.496 0.325V0.322H0.491V0.320Q0.494 0.320 0.507 0.308V0.311H0.511V0.308H0.513V0.311H0.520V0.308H0.513V0.306H0.517V0.302H0.513ZM0.587 0.301H0.594V0.302H0.587ZM0.562 0.302 0.585 0.308V0.309H0.581Q0.562 0.307 0.562 0.302ZM0.402 0.304H0.419V0.306Q0.415 0.306 0.410 0.309Q0.410 0.306 0.402 0.306ZM0.547 0.306H0.549Q0.553 0.306 0.553 0.309H0.551Q0.547 0.309 0.547 0.306ZM0.618 0.306H0.621V0.308H0.618ZM0.379 0.308H0.381V0.317H0.379ZM0.594 0.308H0.603V0.309H0.594ZM0.605 0.308H0.611V0.309H0.605ZM0.553 0.309H0.554Q0.561 0.315 0.567 0.315V0.317H0.565Q0.555 0.315 0.545 0.315V0.313Q0.553 0.313 0.553 0.309ZM0.373 0.318 0.375 0.322H0.370Q0.370 0.318 0.373 0.318ZM0.580 0.318H0.592V0.320H0.580ZM0.538 0.320H0.547V0.322H0.538ZM0.549 0.322H0.554V0.324H0.549ZM0.388 0.324V0.327H0.384Q0.385 0.324 0.388 0.324ZM0.415 0.324Q0.428 0.342 0.440 0.342Q0.416 0.369 0.411 0.369Q0.411 0.367 0.393 0.351L0.404 0.335Q0.402 0.331 0.402 0.329H0.408L0.411 0.331L0.413 0.327Q0.411 0.327 0.411 0.325ZM0.482 0.324V0.325Q0.482 0.329 0.478 0.329H0.477Q0.477 0.327 0.482 0.324ZM0.520 0.324Q0.524 0.325 0.524 0.327Q0.520 0.328 0.520 0.331V0.340L0.536 0.338V0.346H0.531L0.525 0.342H0.518V0.349Q0.530 0.353 0.531 0.358Q0.531 0.361 0.525 0.364Q0.504 0.355 0.504 0.351Q0.513 0.351 0.515 0.344H0.504V0.342H0.515V0.340L0.511 0.331ZM0.556 0.324H0.560V0.325H0.556ZM0.560 0.325H0.565V0.327Q0.563 0.327 0.560 0.329ZM0.357 0.329H0.361V0.331H0.357ZM0.554 0.329H0.558V0.331H0.554ZM0.551 0.331H0.554V0.333H0.551ZM0.482 0.333Q0.482 0.342 0.485 0.342Q0.491 0.342 0.491 0.346H0.485L0.482 0.344Q0.482 0.348 0.478 0.348L0.475 0.346Q0.475 0.340 0.480 0.340V0.338L0.478 0.335ZM0.545 0.333H0.551V0.335H0.545ZM0.542 0.335H0.545V0.337H0.542ZM0.402 0.346 0.406 0.348Q0.410 0.348 0.410 0.344L0.406 0.342Q0.402 0.343 0.402 0.346ZM0.413 0.348 0.417 0.349Q0.421 0.349 0.421 0.346L0.417 0.344Q0.413 0.344 0.413 0.348ZM0.473 0.342Q0.475 0.362 0.491 0.362H0.494Q0.498 0.362 0.498 0.357H0.500Q0.504 0.357 0.504 0.360Q0.498 0.365 0.498 0.378H0.496L0.494 0.369L0.478 0.371Q0.465 0.367 0.464 0.367V0.373Q0.456 0.362 0.449 0.362Q0.449 0.360 0.473 0.342ZM0.428 0.346 0.426 0.349 0.430 0.351 0.431 0.348ZM0.444 0.344H0.446V0.348H0.444ZM0.391 0.355 0.413 0.374 0.419 0.371V0.373Q0.415 0.377 0.415 0.380L0.386 0.362Q0.389 0.355 0.391 0.355ZM0.532 0.364H0.534V0.367Q0.533 0.389 0.515 0.389H0.509V0.387Q0.527 0.387 0.529 0.365ZM0.382 0.365Q0.409 0.384 0.411 0.384Q0.410 0.387 0.410 0.389Q0.380 0.380 0.379 0.374Q0.382 0.369 0.382 0.365ZM0.438 0.365H0.440V0.369H0.438ZM0.447 0.371H0.453V0.376Q0.453 0.380 0.449 0.380Q0.447 0.380 0.444 0.374Q0.445 0.371 0.447 0.371ZM0.487 0.376H0.489V0.380H0.484Q0.484 0.376 0.487 0.376ZM0.498 0.378H0.500V0.382H0.498ZM0.375 0.382H0.377Q0.404 0.395 0.406 0.395Q0.402 0.400 0.402 0.409H0.377Q0.368 0.404 0.368 0.398Q0.370 0.391 0.377 0.387L0.375 0.384ZM0.502 0.384H0.506V0.386H0.502ZM0.506 0.386H0.509V0.387H0.506ZM0.444 0.398H0.449L0.451 0.405V0.407H0.449Q0.449 0.404 0.444 0.398ZM0.438 0.400 0.440 0.404V0.409H0.435V0.404Q0.435 0.400 0.438 0.400ZM0.364 0.407H0.366Q0.374 0.414 0.375 0.414H0.402L0.393 0.425V0.427Q0.410 0.427 0.422 0.440V0.442H0.421Q0.408 0.434 0.402 0.434H0.397Q0.397 0.429 0.393 0.429L0.391 0.433Q0.391 0.434 0.393 0.434L0.391 0.438Q0.393 0.442 0.393 0.444H0.391L0.393 0.447V0.451Q0.393 0.454 0.390 0.454Q0.390 0.452 0.377 0.442L0.379 0.438Q0.379 0.434 0.375 0.434H0.361Q0.347 0.434 0.341 0.423V0.418Q0.341 0.415 0.348 0.411Q0.349 0.414 0.351 0.414Q0.353 0.411 0.353 0.409H0.355L0.364 0.411ZM0.462 0.412 0.466 0.418V0.423Q0.466 0.425 0.460 0.429Q0.453 0.427 0.447 0.427Q0.447 0.424 0.455 0.422L0.462 0.425V0.422L0.455 0.414ZM0.440 0.414V0.418Q0.428 0.418 0.428 0.425H0.426V0.418Q0.437 0.414 0.440 0.414ZM0.506 0.416Q0.522 0.416 0.532 0.434L0.527 0.438Q0.520 0.422 0.504 0.422Q0.494 0.422 0.477 0.434H0.469Q0.469 0.427 0.506 0.416ZM0.346 0.420V0.423L0.359 0.425H0.361V0.420ZM0.428 0.425H0.433Q0.443 0.425 0.446 0.433V0.434Q0.438 0.429 0.428 0.429ZM0.384 0.436 0.382 0.440 0.388 0.444 0.390 0.440ZM0.355 0.440H0.372Q0.372 0.445 0.386 0.456Q0.382 0.476 0.382 0.498V0.505Q0.382 0.506 0.384 0.506L0.382 0.510V0.518Q0.392 0.516 0.393 0.516H0.398V0.518H0.391L0.395 0.523L0.391 0.525V0.521H0.384V0.525Q0.390 0.525 0.390 0.529Q0.387 0.529 0.372 0.546V0.548Q0.390 0.567 0.395 0.576L0.398 0.578Q0.428 0.574 0.428 0.568V0.566H0.430V0.585Q0.430 0.588 0.435 0.588L0.426 0.599L0.422 0.597H0.421V0.604H0.422L0.426 0.602L0.428 0.606V0.625L0.433 0.632Q0.428 0.635 0.428 0.651L0.422 0.648L0.424 0.644V0.641Q0.424 0.638 0.419 0.635V0.639Q0.421 0.642 0.421 0.644L0.398 0.625Q0.398 0.626 0.382 0.641Q0.375 0.633 0.368 0.608Q0.370 0.608 0.377 0.599Q0.374 0.599 0.353 0.576Q0.357 0.576 0.357 0.572V0.568Q0.341 0.571 0.341 0.576Q0.341 0.578 0.326 0.590H0.317V0.588H0.321V0.585H0.313L0.299 0.595V0.592Q0.303 0.581 0.312 0.581V0.576Q0.308 0.576 0.306 0.566H0.304Q0.304 0.564 0.321 0.550Q0.321 0.561 0.332 0.572Q0.339 0.568 0.344 0.568V0.559Q0.337 0.559 0.337 0.548Q0.337 0.541 0.350 0.536V0.539H0.351V0.534H0.350L0.351 0.530L0.350 0.521Q0.352 0.521 0.377 0.492Q0.358 0.479 0.353 0.458ZM0.466 0.440H0.469V0.442Q0.458 0.454 0.458 0.467Q0.453 0.465 0.453 0.463Q0.458 0.443 0.466 0.440ZM0.430 0.442Q0.442 0.457 0.442 0.465Q0.446 0.465 0.446 0.449H0.447Q0.447 0.459 0.449 0.469L0.442 0.474Q0.442 0.464 0.426 0.445Q0.426 0.442 0.430 0.442ZM0.513 0.444H0.515Q0.506 0.453 0.506 0.461Q0.503 0.461 0.496 0.452Q0.506 0.444 0.513 0.444ZM0.532 0.444Q0.538 0.445 0.538 0.454Q0.538 0.461 0.531 0.465H0.527Q0.532 0.459 0.532 0.444ZM0.493 0.456Q0.495 0.456 0.511 0.474H0.498Q0.491 0.471 0.491 0.461Q0.493 0.458 0.493 0.456ZM0.515 0.461Q0.515 0.465 0.518 0.472H0.517Q0.514 0.472 0.507 0.463Q0.511 0.463 0.515 0.461ZM0.424 0.463Q0.432 0.463 0.440 0.474H0.442Q0.442 0.477 0.437 0.480Q0.437 0.474 0.428 0.469H0.424V0.470Q0.431 0.479 0.431 0.483Q0.420 0.472 0.411 0.472Q0.414 0.463 0.424 0.463ZM0.553 0.467H0.560L0.562 0.476V0.478Q0.562 0.489 0.549 0.496H0.536Q0.529 0.493 0.529 0.483V0.476H0.531Q0.531 0.482 0.534 0.482H0.536Q0.553 0.476 0.553 0.469ZM0.351 0.470H0.353Q0.353 0.481 0.370 0.492Q0.370 0.497 0.348 0.516Q0.339 0.502 0.339 0.498L0.343 0.496Q0.343 0.503 0.346 0.503H0.350V0.501Q0.350 0.495 0.351 0.470ZM0.455 0.470 0.458 0.476V0.482L0.457 0.494H0.458Q0.465 0.489 0.471 0.489Q0.474 0.489 0.477 0.494L0.466 0.499Q0.466 0.496 0.464 0.496Q0.458 0.496 0.444 0.506V0.505Q0.447 0.497 0.453 0.470ZM0.518 0.472H0.524Q0.524 0.476 0.520 0.476ZM0.446 0.480Q0.442 0.493 0.442 0.496H0.440Q0.440 0.488 0.438 0.485ZM0.517 0.480Q0.520 0.482 0.522 0.482Q0.519 0.505 0.502 0.505Q0.502 0.499 0.515 0.496L0.517 0.492V0.491Q0.517 0.487 0.513 0.487Q0.498 0.494 0.498 0.501H0.496V0.494Q0.510 0.480 0.517 0.480ZM0.413 0.489Q0.422 0.489 0.433 0.505L0.431 0.514H0.430Q0.430 0.499 0.406 0.494Q0.403 0.496 0.398 0.496Q0.398 0.491 0.413 0.489ZM0.433 0.491H0.435V0.498H0.433ZM0.301 0.492H0.304V0.496Q0.301 0.496 0.301 0.492ZM0.397 0.496H0.398V0.499H0.397ZM0.390 0.499Q0.390 0.501 0.391 0.505L0.388 0.506L0.386 0.503Q0.386 0.499 0.390 0.499ZM0.404 0.499H0.410Q0.424 0.506 0.424 0.518L0.419 0.536Q0.416 0.536 0.413 0.530Q0.421 0.530 0.421 0.518Q0.417 0.501 0.404 0.501ZM0.464 0.499H0.466Q0.458 0.516 0.453 0.518L0.447 0.510ZM0.335 0.501H0.337V0.506H0.335ZM0.328 0.506Q0.330 0.506 0.344 0.523Q0.328 0.523 0.321 0.545H0.319L0.303 0.527Q0.306 0.527 0.306 0.523L0.310 0.525Q0.319 0.515 0.319 0.508L0.323 0.510H0.328ZM0.444 0.516Q0.447 0.516 0.451 0.523Q0.438 0.527 0.438 0.530V0.532Q0.444 0.532 0.451 0.534V0.538H0.440Q0.437 0.538 0.424 0.543V0.539L0.433 0.536V0.532L0.431 0.529Q0.433 0.529 0.444 0.516ZM0.398 0.527Q0.398 0.530 0.402 0.530V0.532Q0.398 0.532 0.393 0.546Q0.391 0.550 0.388 0.550V0.554Q0.396 0.557 0.397 0.557V0.566Q0.395 0.566 0.377 0.546Q0.389 0.536 0.390 0.536Q0.390 0.538 0.391 0.538Q0.395 0.527 0.398 0.527ZM0.408 0.530Q0.408 0.536 0.413 0.536V0.541Q0.409 0.541 0.402 0.546H0.400Q0.404 0.541 0.404 0.536L0.402 0.532Q0.404 0.532 0.408 0.530ZM0.294 0.534H0.297V0.536H0.294ZM0.301 0.536H0.306L0.315 0.546Q0.315 0.549 0.303 0.559H0.301L0.303 0.550Q0.294 0.545 0.288 0.545V0.543H0.294L0.303 0.545L0.304 0.541V0.538H0.301ZM0.276 0.541H0.287V0.543H0.276ZM0.421 0.543V0.545Q0.419 0.548 0.419 0.550Q0.415 0.548 0.413 0.548Q0.413 0.546 0.421 0.543ZM0.408 0.550H0.411V0.552H0.408ZM0.397 0.552Q0.400 0.554 0.404 0.554V0.555Q0.398 0.557 0.397 0.557ZM0.404 0.552H0.408V0.554H0.404ZM0.279 0.554H0.297V0.557Q0.297 0.555 0.279 0.555ZM0.346 0.561V0.565H0.351Q0.355 0.565 0.355 0.561V0.559ZM0.421 0.559H0.422V0.570H0.421ZM0.496 0.559H0.502L0.515 0.561V0.563Q0.515 0.566 0.507 0.570Q0.505 0.570 0.496 0.559ZM0.491 0.561Q0.491 0.564 0.507 0.578Q0.507 0.575 0.517 0.568V0.570Q0.517 0.572 0.515 0.572L0.517 0.581V0.585Q0.517 0.589 0.502 0.592L0.480 0.588H0.478V0.590Q0.482 0.590 0.485 0.597L0.484 0.606H0.511Q0.534 0.601 0.534 0.583Q0.532 0.574 0.522 0.574V0.572H0.529Q0.537 0.576 0.538 0.579V0.583Q0.538 0.610 0.504 0.610Q0.494 0.608 0.487 0.608H0.484L0.475 0.610L0.484 0.599Q0.482 0.599 0.469 0.585Q0.470 0.581 0.473 0.581H0.494Q0.498 0.581 0.498 0.578V0.576Q0.498 0.572 0.494 0.572H0.475Q0.472 0.572 0.469 0.566V0.565Q0.479 0.565 0.491 0.561ZM0.337 0.563H0.339V0.566H0.337ZM0.464 0.572Q0.467 0.574 0.469 0.574V0.576Q0.467 0.576 0.464 0.578L0.462 0.574Q0.464 0.574 0.464 0.572ZM0.419 0.583H0.417V0.579H0.413V0.585L0.421 0.586L0.426 0.579V0.578H0.422Q0.419 0.578 0.419 0.583ZM0.348 0.578 0.370 0.601Q0.370 0.604 0.366 0.604Q0.364 0.595 0.355 0.595V0.599L0.357 0.602Q0.355 0.602 0.348 0.610H0.346Q0.343 0.610 0.341 0.595L0.334 0.593V0.592Q0.334 0.590 0.348 0.578ZM0.391 0.581Q0.391 0.588 0.408 0.599H0.400V0.595H0.397V0.599H0.400L0.398 0.602Q0.400 0.602 0.400 0.604L0.404 0.602L0.408 0.604V0.599L0.415 0.604H0.417V0.602L0.411 0.593H0.419V0.592Q0.419 0.588 0.415 0.588L0.411 0.590Q0.411 0.585 0.402 0.585V0.583H0.406V0.579Q0.396 0.581 0.391 0.581ZM0.451 0.579Q0.456 0.580 0.458 0.588Q0.455 0.601 0.447 0.601V0.602Q0.447 0.605 0.460 0.610L0.462 0.617L0.453 0.625L0.440 0.610L0.446 0.602H0.440Q0.447 0.596 0.449 0.581Q0.451 0.581 0.451 0.579ZM0.558 0.588Q0.571 0.588 0.583 0.602L0.580 0.604Q0.580 0.599 0.560 0.592Q0.557 0.592 0.543 0.595Q0.543 0.590 0.558 0.588ZM0.442 0.590V0.592Q0.442 0.595 0.438 0.595V0.593Q0.439 0.590 0.442 0.590ZM0.408 0.592H0.411V0.593H0.408ZM0.466 0.592H0.468Q0.470 0.592 0.477 0.601Q0.477 0.603 0.469 0.608Q0.469 0.604 0.462 0.604V0.602H0.466L0.464 0.599Q0.466 0.596 0.466 0.592ZM0.435 0.595H0.438V0.597H0.435ZM0.357 0.602H0.361V0.604H0.357ZM0.361 0.604H0.364V0.606H0.361ZM0.587 0.606 0.590 0.623V0.635H0.589Q0.589 0.614 0.583 0.608ZM0.419 0.614V0.628H0.422L0.424 0.619V0.610H0.422Q0.419 0.611 0.419 0.614ZM0.411 0.612V0.621Q0.411 0.634 0.417 0.635V0.621L0.415 0.612ZM0.513 0.619H0.520Q0.527 0.623 0.527 0.630Q0.524 0.637 0.522 0.637Q0.519 0.637 0.507 0.623ZM0.468 0.625Q0.470 0.625 0.477 0.633Q0.474 0.633 0.468 0.641L0.460 0.632Q0.460 0.629 0.468 0.625ZM0.400 0.632Q0.403 0.632 0.424 0.655L0.404 0.673Q0.402 0.673 0.386 0.648V0.646Q0.386 0.644 0.400 0.632ZM0.506 0.632H0.507Q0.510 0.632 0.515 0.639H0.513Q0.510 0.639 0.506 0.632ZM0.587 0.635H0.589V0.641H0.587ZM0.502 0.637Q0.505 0.637 0.509 0.646Q0.509 0.656 0.491 0.659Q0.491 0.661 0.489 0.661L0.484 0.653ZM0.551 0.641Q0.562 0.642 0.562 0.646V0.648Q0.556 0.654 0.556 0.661Q0.556 0.662 0.569 0.670L0.567 0.680Q0.565 0.680 0.562 0.679L0.553 0.680V0.677L0.554 0.668L0.551 0.666Q0.545 0.672 0.545 0.675H0.542L0.529 0.672Q0.533 0.662 0.538 0.657Q0.545 0.661 0.551 0.661V0.655Q0.543 0.655 0.543 0.648Q0.545 0.641 0.551 0.641ZM0.587 0.641V0.642Q0.587 0.646 0.583 0.646V0.644Q0.584 0.641 0.587 0.641ZM0.362 0.644Q0.370 0.652 0.370 0.653L0.361 0.661Q0.358 0.661 0.353 0.653Q0.353 0.651 0.362 0.644ZM0.447 0.644Q0.455 0.652 0.455 0.653Q0.455 0.656 0.447 0.661H0.446Q0.443 0.661 0.438 0.653Q0.438 0.651 0.447 0.644ZM0.583 0.646V0.648Q0.583 0.651 0.580 0.651H0.578Q0.578 0.649 0.583 0.646ZM0.572 0.653H0.576V0.655H0.572ZM0.430 0.655 0.451 0.680 0.435 0.695Q0.411 0.685 0.411 0.682Q0.409 0.682 0.406 0.677ZM0.567 0.655H0.572V0.657H0.567ZM0.564 0.657H0.567V0.659H0.564ZM0.341 0.666Q0.348 0.674 0.348 0.675L0.339 0.682Q0.339 0.681 0.330 0.673Q0.334 0.673 0.341 0.666ZM0.382 0.666 0.390 0.675Q0.390 0.678 0.382 0.682Q0.380 0.682 0.373 0.673Q0.381 0.666 0.382 0.666ZM0.469 0.666Q0.477 0.674 0.477 0.675L0.468 0.682Q0.465 0.682 0.460 0.675Q0.460 0.673 0.469 0.666ZM0.511 0.666Q0.515 0.667 0.515 0.670Q0.515 0.673 0.507 0.677Q0.504 0.677 0.504 0.673Q0.504 0.671 0.511 0.666ZM0.455 0.684 0.477 0.708Q0.477 0.710 0.457 0.728Q0.433 0.709 0.433 0.706Q0.433 0.703 0.455 0.684ZM0.319 0.688Q0.322 0.688 0.326 0.695Q0.326 0.698 0.317 0.704L0.310 0.695ZM0.359 0.688H0.361Q0.363 0.688 0.370 0.697L0.366 0.699Q0.366 0.695 0.359 0.688ZM0.489 0.688Q0.492 0.688 0.498 0.697L0.489 0.704Q0.487 0.704 0.480 0.695ZM0.532 0.688Q0.535 0.688 0.542 0.697Q0.539 0.697 0.532 0.704Q0.530 0.704 0.524 0.695ZM0.355 0.693Q0.358 0.693 0.364 0.702L0.361 0.704Q0.358 0.704 0.351 0.695ZM0.417 0.697H0.419V0.704H0.417ZM0.422 0.699Q0.426 0.700 0.428 0.700V0.702L0.424 0.708L0.428 0.713V0.729L0.430 0.742L0.422 0.744ZM0.341 0.708 0.348 0.717Q0.348 0.720 0.341 0.724Q0.338 0.724 0.332 0.715ZM0.485 0.708Q0.497 0.717 0.504 0.717Q0.504 0.714 0.511 0.710Q0.513 0.710 0.520 0.719Q0.518 0.719 0.515 0.724V0.726Q0.593 0.762 0.618 0.762V0.764Q0.611 0.776 0.609 0.776Q0.609 0.768 0.581 0.762Q0.571 0.762 0.551 0.776Q0.531 0.769 0.531 0.766Q0.533 0.766 0.536 0.760L0.506 0.731L0.491 0.747Q0.466 0.732 0.462 0.731Q0.462 0.729 0.485 0.708ZM0.379 0.713V0.720Q0.375 0.719 0.373 0.719Q0.373 0.716 0.379 0.713ZM0.388 0.717H0.391Q0.391 0.720 0.388 0.720ZM0.362 0.729Q0.370 0.737 0.370 0.738Q0.370 0.741 0.361 0.747L0.353 0.738Q0.353 0.736 0.362 0.729ZM0.404 0.729Q0.411 0.737 0.411 0.738V0.740H0.410Q0.407 0.740 0.400 0.731ZM0.446 0.731Q0.452 0.736 0.455 0.736V0.738Q0.455 0.741 0.446 0.747Q0.442 0.743 0.442 0.740Q0.446 0.735 0.446 0.731ZM0.398 0.738H0.400Q0.403 0.738 0.406 0.744Q0.406 0.747 0.402 0.747Q0.402 0.745 0.398 0.740ZM0.507 0.738Q0.510 0.738 0.531 0.762L0.525 0.766Q0.496 0.752 0.496 0.749Q0.496 0.747 0.507 0.738ZM0.466 0.751H0.468Q0.471 0.752 0.471 0.755Q0.468 0.755 0.460 0.762L0.458 0.759Q0.466 0.755 0.466 0.751ZM0.386 0.753 0.391 0.760 0.382 0.767 0.377 0.760ZM0.428 0.753Q0.428 0.759 0.435 0.759Q0.435 0.761 0.430 0.764Q0.430 0.760 0.424 0.755ZM0.421 0.757 0.424 0.762 0.421 0.764 0.417 0.759ZM0.625 0.764Q0.677 0.776 0.719 0.776H0.724V0.780Q0.712 0.796 0.712 0.802H0.710V0.791L0.712 0.787Q0.708 0.787 0.708 0.783Q0.692 0.786 0.692 0.800V0.802L0.687 0.798Q0.679 0.806 0.675 0.806Q0.669 0.806 0.638 0.802V0.796Q0.638 0.790 0.636 0.780Q0.638 0.777 0.638 0.771L0.634 0.769Q0.619 0.776 0.619 0.787V0.789L0.621 0.798Q0.611 0.797 0.611 0.787ZM0.404 0.773Q0.408 0.773 0.408 0.776Q0.408 0.779 0.400 0.783Q0.397 0.783 0.397 0.780Q0.397 0.777 0.404 0.773ZM0.446 0.773Q0.448 0.773 0.453 0.780Q0.449 0.788 0.446 0.789Q0.446 0.788 0.438 0.780Q0.438 0.777 0.446 0.773ZM0.578 0.773H0.585Q0.607 0.777 0.607 0.795Q0.566 0.782 0.564 0.782V0.778Q0.575 0.773 0.578 0.773ZM0.630 0.778Q0.632 0.795 0.632 0.798H0.630Q0.625 0.796 0.625 0.787Q0.626 0.778 0.630 0.778ZM0.723 0.789H0.724V0.809H0.715Q0.715 0.806 0.723 0.789ZM0.705 0.791V0.795L0.703 0.807H0.699V0.793Q0.701 0.793 0.705 0.791ZM0.421 0.798Q0.431 0.802 0.431 0.806L0.424 0.811L0.417 0.802Q0.417 0.798 0.421 0.798ZM0.692 0.802H0.694V0.807H0.692ZM0.708 0.802H0.710V0.807H0.708Z" fill="black"/>
</svg>
