<svg xmlns="http://www.w3.org/2000/svg" viewBox="0 0 1 1" preserveAspectRatio="xMidYMid meet">
  <path d="M0.321 0.074Q0.324 0.076 0.326 0.076Q0.326 0.094 0.335 0.122Q0.327 0.122 0.321 0.080ZM0.337 0.123Q0.337 0.129 0.350 0.149V0.151Q0.346 0.151 0.333 0.125ZM0.384 0.142H0.386Q0.386 0.174 0.419 0.194H0.425Q0.425 0.202 0.428 0.202H0.481L0.485 0.233Q0.478 0.233 0.476 0.235L0.464 0.233H0.457V0.236H0.464V0.238H0.461V0.240Q0.480 0.254 0.481 0.260Q0.481 0.262 0.479 0.262L0.481 0.265V0.271Q0.481 0.277 0.468 0.295L0.464 0.293H0.461Q0.457 0.293 0.457 0.296H0.463V0.298Q0.459 0.298 0.455 0.300H0.450Q0.450 0.305 0.459 0.305V0.307H0.455V0.311Q0.461 0.311 0.461 0.314V0.316Q0.432 0.325 0.432 0.329V0.364L0.434 0.367L0.437 0.365H0.439L0.437 0.374Q0.439 0.374 0.439 0.376Q0.432 0.376 0.432 0.380V0.480Q0.441 0.487 0.441 0.491H0.444L0.446 0.482H0.448Q0.452 0.495 0.452 0.498H0.463Q0.466 0.498 0.466 0.495Q0.453 0.495 0.453 0.489V0.480Q0.453 0.477 0.463 0.475Q0.471 0.478 0.472 0.482V0.484Q0.468 0.497 0.468 0.498H0.474V0.502Q0.474 0.504 0.472 0.504Q0.472 0.517 0.485 0.531Q0.482 0.531 0.477 0.535Q0.474 0.533 0.470 0.533V0.531H0.477V0.530H0.466Q0.466 0.535 0.476 0.535V0.537H0.472V0.547L0.463 0.549H0.459L0.455 0.547Q0.455 0.549 0.453 0.549Q0.453 0.540 0.450 0.540Q0.450 0.538 0.459 0.530H0.450L0.459 0.518L0.441 0.498H0.446Q0.444 0.495 0.444 0.493Q0.441 0.493 0.441 0.498L0.430 0.489H0.428Q0.426 0.489 0.399 0.518Q0.428 0.549 0.435 0.549Q0.439 0.549 0.448 0.560Q0.452 0.556 0.452 0.553L0.455 0.555Q0.459 0.553 0.461 0.553Q0.461 0.556 0.453 0.556V0.558L0.459 0.566Q0.456 0.566 0.453 0.571L0.455 0.575Q0.453 0.583 0.434 0.600Q0.434 0.597 0.430 0.597H0.428L0.399 0.624V0.604Q0.399 0.602 0.397 0.602L0.399 0.599V0.590Q0.399 0.588 0.397 0.588Q0.399 0.579 0.404 0.573V0.571L0.399 0.564V0.537Q0.399 0.534 0.388 0.528Q0.388 0.515 0.399 0.515V0.504L0.388 0.509Q0.388 0.507 0.386 0.507Q0.386 0.509 0.384 0.509L0.377 0.496V0.495L0.381 0.496Q0.384 0.488 0.388 0.487H0.397V0.491H0.399V0.337Q0.399 0.328 0.363 0.325V0.324L0.381 0.296Q0.377 0.276 0.377 0.265H0.379Q0.382 0.265 0.399 0.271V0.264Q0.399 0.260 0.395 0.260H0.370V0.258H0.399V0.253Q0.390 0.253 0.390 0.249Q0.390 0.245 0.399 0.245V0.243Q0.399 0.242 0.397 0.242L0.399 0.238V0.235L0.395 0.236H0.370L0.361 0.235L0.359 0.238H0.365V0.240Q0.355 0.240 0.355 0.247H0.354Q0.354 0.242 0.344 0.242V0.240H0.348V0.236H0.339Q0.337 0.236 0.337 0.235L0.333 0.236H0.295Q0.292 0.236 0.292 0.233V0.231H0.379V0.224H0.384V0.231H0.390Q0.390 0.227 0.399 0.227V0.224Q0.399 0.222 0.397 0.222L0.399 0.218V0.202H0.408Q0.412 0.202 0.412 0.198Q0.384 0.172 0.384 0.153ZM0.333 0.151H0.335V0.155H0.333ZM0.354 0.157Q0.357 0.157 0.357 0.160H0.354ZM0.365 0.183H0.366Q0.370 0.184 0.370 0.187H0.368Q0.365 0.187 0.365 0.183ZM0.419 0.185H0.421V0.191H0.419ZM0.355 0.191H0.357L0.386 0.205V0.207H0.383Q0.356 0.196 0.355 0.191ZM0.487 0.202H0.492V0.204Q0.492 0.213 0.497 0.233H0.494Q0.489 0.233 0.487 0.202ZM0.497 0.202H0.521V0.207Q0.519 0.233 0.513 0.233H0.503Q0.497 0.212 0.497 0.202ZM0.526 0.202H0.548Q0.554 0.202 0.554 0.231L0.550 0.233H0.523Q0.526 0.217 0.526 0.209ZM0.557 0.202H0.563Q0.568 0.202 0.573 0.233H0.557L0.559 0.229Q0.559 0.220 0.557 0.202ZM0.572 0.202H0.590Q0.596 0.202 0.607 0.233H0.579Q0.579 0.229 0.572 0.202ZM0.599 0.202H0.694Q0.689 0.233 0.669 0.233H0.612Q0.606 0.213 0.599 0.204ZM0.699 0.202H0.708V0.233H0.685V0.231Q0.695 0.231 0.699 0.202ZM0.386 0.207H0.390V0.209H0.386ZM0.390 0.209H0.393V0.211H0.390ZM0.377 0.213H0.379Q0.396 0.218 0.397 0.218V0.220H0.392Q0.389 0.220 0.377 0.217ZM0.444 0.233V0.235Q0.450 0.239 0.450 0.242H0.453L0.455 0.233ZM0.432 0.243V0.245H0.435Q0.435 0.243 0.441 0.238V0.236H0.439Q0.436 0.236 0.432 0.243ZM0.479 0.236H0.483V0.238H0.479ZM0.466 0.238H0.472V0.240H0.466ZM0.333 0.240H0.337V0.242H0.333ZM0.443 0.242V0.245H0.444V0.242ZM0.487 0.251H0.488V0.254H0.487ZM0.492 0.262H0.494V0.280H0.492ZM0.355 0.271H0.359V0.275H0.355ZM0.477 0.284H0.481Q0.479 0.287 0.479 0.289H0.477ZM0.483 0.286 0.487 0.287 0.490 0.286V0.287Q0.487 0.295 0.485 0.295Q0.485 0.291 0.481 0.291Q0.483 0.288 0.483 0.286ZM0.337 0.287 0.341 0.289Q0.341 0.287 0.343 0.287V0.293Q0.343 0.296 0.339 0.296Q0.339 0.293 0.335 0.293Q0.337 0.289 0.337 0.287ZM0.481 0.296H0.483V0.300H0.477Q0.478 0.296 0.481 0.296ZM0.474 0.300V0.304H0.470Q0.471 0.300 0.474 0.300ZM0.464 0.304H0.470V0.305H0.464ZM0.481 0.304H0.485V0.305H0.481ZM0.481 0.305Q0.481 0.312 0.483 0.314Q0.479 0.314 0.479 0.316Q0.476 0.314 0.474 0.314Q0.476 0.306 0.481 0.305ZM0.352 0.314 0.354 0.318 0.350 0.320H0.348V0.318Q0.349 0.314 0.352 0.314ZM0.453 0.335Q0.458 0.338 0.464 0.338Q0.463 0.348 0.453 0.351Q0.453 0.344 0.448 0.344V0.342Q0.453 0.342 0.453 0.335ZM0.483 0.340V0.342Q0.483 0.346 0.479 0.346V0.344Q0.480 0.340 0.483 0.340ZM0.384 0.351Q0.388 0.351 0.388 0.355Q0.386 0.355 0.386 0.356Q0.383 0.355 0.381 0.355Q0.381 0.351 0.384 0.351ZM0.521 0.391H0.523Q0.523 0.400 0.530 0.400V0.402Q0.525 0.402 0.521 0.406H0.515Q0.515 0.401 0.513 0.398Q0.521 0.398 0.521 0.391ZM0.588 0.415H0.590V0.418H0.588ZM0.550 0.434H0.552V0.438H0.550ZM0.495 0.438V0.446Q0.492 0.446 0.492 0.442Q0.492 0.438 0.495 0.438ZM0.561 0.438V0.442L0.559 0.446L0.565 0.451H0.573V0.453H0.563V0.455L0.565 0.458H0.559Q0.561 0.462 0.561 0.464V0.466H0.559Q0.559 0.460 0.556 0.460Q0.554 0.464 0.554 0.466H0.552Q0.552 0.458 0.548 0.458L0.550 0.455Q0.547 0.455 0.547 0.451H0.550L0.547 0.446H0.548Q0.552 0.447 0.554 0.447Q0.552 0.444 0.552 0.442V0.440H0.554Q0.554 0.446 0.557 0.446Q0.557 0.438 0.561 0.438ZM0.466 0.444Q0.474 0.446 0.474 0.449V0.458Q0.472 0.464 0.463 0.464H0.461Q0.458 0.464 0.455 0.458V0.455Q0.455 0.444 0.466 0.444ZM0.566 0.444H0.568Q0.568 0.447 0.565 0.447H0.563Q0.563 0.444 0.566 0.444ZM0.565 0.458H0.566Q0.570 0.459 0.570 0.462H0.568Q0.565 0.462 0.565 0.458ZM0.370 0.464H0.379Q0.383 0.464 0.384 0.477L0.377 0.482H0.370Q0.367 0.482 0.365 0.477V0.469Q0.365 0.467 0.370 0.464ZM0.492 0.486H0.495Q0.497 0.493 0.497 0.498H0.524V0.522Q0.524 0.528 0.504 0.530Q0.483 0.524 0.483 0.507V0.502Q0.487 0.486 0.492 0.486ZM0.365 0.487Q0.372 0.490 0.372 0.493V0.496L0.370 0.506Q0.383 0.506 0.384 0.522Q0.381 0.522 0.381 0.526Q0.379 0.526 0.379 0.524L0.375 0.526H0.374Q0.363 0.526 0.363 0.515Q0.365 0.511 0.365 0.509Q0.354 0.505 0.354 0.502V0.500H0.357V0.493H0.354Q0.355 0.487 0.365 0.487ZM0.430 0.495 0.452 0.518Q0.452 0.521 0.428 0.542Q0.406 0.518 0.406 0.517ZM0.530 0.498H0.532Q0.534 0.498 0.534 0.500L0.537 0.498H0.626L0.612 0.511L0.617 0.530H0.614L0.597 0.509Q0.599 0.509 0.599 0.507L0.592 0.504Q0.592 0.507 0.588 0.507Q0.588 0.506 0.586 0.506L0.584 0.509L0.581 0.507H0.579L0.575 0.509Q0.575 0.506 0.572 0.506Q0.572 0.509 0.568 0.509V0.507Q0.561 0.510 0.561 0.513Q0.565 0.514 0.565 0.517Q0.566 0.517 0.575 0.509Q0.576 0.513 0.579 0.513H0.581L0.586 0.509Q0.586 0.512 0.597 0.518Q0.597 0.517 0.599 0.517L0.603 0.522H0.601L0.605 0.530H0.563Q0.561 0.530 0.561 0.531Q0.558 0.530 0.552 0.530V0.528Q0.557 0.528 0.557 0.524L0.552 0.520L0.548 0.528Q0.550 0.528 0.550 0.530H0.530L0.532 0.526Q0.530 0.526 0.530 0.524H0.532L0.530 0.520V0.518L0.536 0.522Q0.537 0.517 0.539 0.517Q0.536 0.509 0.534 0.509L0.532 0.513Q0.534 0.513 0.534 0.515L0.530 0.517ZM0.537 0.500 0.536 0.504V0.506Q0.536 0.509 0.539 0.509L0.541 0.506V0.504Q0.541 0.500 0.537 0.500ZM0.635 0.498V0.530H0.623Q0.619 0.518 0.619 0.513Q0.619 0.512 0.635 0.498ZM0.607 0.507 0.605 0.511 0.608 0.513 0.610 0.509ZM0.386 0.509H0.388V0.513H0.386ZM0.559 0.515 0.557 0.518 0.561 0.520 0.563 0.517ZM0.354 0.524H0.359Q0.367 0.530 0.374 0.530V0.531L0.365 0.533Q0.365 0.530 0.354 0.526ZM0.337 0.528 0.346 0.530H0.352L0.354 0.542H0.359L0.370 0.533Q0.379 0.538 0.381 0.538L0.379 0.542Q0.383 0.542 0.383 0.546H0.381L0.375 0.542Q0.375 0.544 0.365 0.553Q0.360 0.546 0.355 0.546L0.352 0.544L0.341 0.546Q0.333 0.544 0.333 0.535ZM0.374 0.531H0.377V0.533H0.374ZM0.388 0.533Q0.391 0.533 0.393 0.538H0.392Q0.388 0.538 0.388 0.535ZM0.383 0.535H0.386V0.537H0.383ZM0.439 0.540H0.441V0.547H0.439ZM0.384 0.542Q0.388 0.542 0.388 0.546V0.547H0.384ZM0.487 0.544H0.495V0.546Q0.491 0.546 0.488 0.547ZM0.375 0.549H0.377V0.551Q0.377 0.554 0.372 0.556L0.370 0.553ZM0.375 0.555H0.379V0.556H0.375ZM0.381 0.555Q0.383 0.555 0.397 0.571Q0.393 0.574 0.383 0.577Q0.383 0.571 0.377 0.567Q0.381 0.560 0.381 0.555ZM0.392 0.556H0.395V0.560Q0.392 0.560 0.392 0.556ZM0.461 0.556H0.466V0.558H0.461ZM0.344 0.558H0.359Q0.359 0.562 0.355 0.562H0.354Q0.352 0.562 0.352 0.560L0.348 0.562Q0.344 0.562 0.344 0.558ZM0.472 0.558H0.476V0.560H0.472ZM0.477 0.558H0.481V0.560H0.477ZM0.365 0.560H0.370V0.562H0.365ZM0.372 0.560H0.375V0.562H0.372ZM0.485 0.560 0.497 0.562V0.564H0.479Q0.479 0.560 0.485 0.560ZM0.439 0.567Q0.439 0.570 0.444 0.573V0.571Q0.443 0.568 0.443 0.564Q0.439 0.565 0.439 0.567ZM0.472 0.562H0.476V0.564H0.472ZM0.368 0.569H0.372V0.571H0.368ZM0.363 0.573 0.365 0.577H0.357V0.575Q0.359 0.575 0.363 0.573ZM0.372 0.573H0.375V0.575H0.372ZM0.474 0.573H0.477V0.575H0.474ZM0.464 0.575H0.468V0.577H0.464ZM0.481 0.575 0.495 0.584H0.494Q0.483 0.578 0.472 0.578V0.577ZM0.346 0.578H0.350V0.580H0.346ZM0.388 0.578H0.392V0.580H0.388ZM0.381 0.582H0.384V0.584H0.381ZM0.452 0.586H0.453V0.590H0.452ZM0.370 0.588H0.374V0.590H0.370ZM0.463 0.588H0.466V0.590H0.463ZM0.466 0.590H0.472L0.474 0.593H0.472Q0.468 0.591 0.466 0.591ZM0.361 0.591H0.365V0.593H0.361ZM0.388 0.591H0.392V0.593H0.388ZM0.461 0.599H0.463Q0.463 0.602 0.468 0.608V0.609Q0.462 0.604 0.459 0.604Q0.461 0.601 0.461 0.599ZM0.375 0.600H0.381Q0.381 0.604 0.377 0.604H0.375ZM0.430 0.602Q0.434 0.611 0.434 0.615H0.435V0.611H0.437Q0.437 0.623 0.439 0.629V0.631H0.437Q0.434 0.617 0.434 0.616H0.432V0.646Q0.432 0.650 0.428 0.650L0.406 0.626Q0.406 0.623 0.430 0.602ZM0.390 0.606H0.392Q0.392 0.608 0.393 0.611Q0.386 0.620 0.384 0.620V0.618Q0.390 0.607 0.390 0.606ZM0.444 0.606H0.446V0.609H0.444ZM0.446 0.609H0.448Q0.452 0.609 0.453 0.618Q0.450 0.618 0.446 0.609ZM0.470 0.611Q0.474 0.612 0.474 0.615V0.616Q0.470 0.616 0.470 0.613ZM0.399 0.626Q0.427 0.655 0.428 0.655L0.439 0.653V0.655Q0.446 0.653 0.446 0.646Q0.444 0.646 0.444 0.644L0.448 0.642Q0.452 0.654 0.452 0.655Q0.450 0.658 0.450 0.660H0.452Q0.447 0.672 0.432 0.686V0.704Q0.426 0.704 0.399 0.731V0.687L0.404 0.680V0.678Q0.399 0.674 0.397 0.657L0.399 0.653ZM0.443 0.629H0.444V0.633H0.443ZM0.395 0.660H0.397V0.668H0.395ZM0.430 0.710 0.432 0.713V0.753Q0.432 0.757 0.428 0.757L0.406 0.733Q0.406 0.731 0.430 0.710ZM0.390 0.731Q0.390 0.737 0.392 0.737Q0.390 0.739 0.390 0.749Q0.386 0.749 0.386 0.746V0.738L0.388 0.735Q0.386 0.735 0.386 0.733ZM0.399 0.733Q0.425 0.762 0.432 0.762V0.811H0.399V0.795L0.404 0.788V0.786L0.399 0.779Z" fill="black"/>
</svg>
