<svg xmlns="http://www.w3.org/2000/svg" viewBox="0 0 1 1" preserveAspectRatio="xMidYMid meet">
  <path d="M0.533 0.203H0.605L0.585 0.224Q0.587 0.224 0.613 0.252V0.278Q0.613 0.294 0.615 0.299Q0.613 0.314 0.613 0.325V0.377L0.615 0.387Q0.613 0.390 0.613 0.394Q0.617 0.394 0.620 0.382H0.622Q0.622 0.387 0.629 0.391Q0.629 0.393 0.633 0.393H0.638Q0.636 0.396 0.636 0.398Q0.640 0.398 0.649 0.409H0.656Q0.652 0.413 0.652 0.415L0.654 0.419Q0.652 0.422 0.652 0.426Q0.656 0.426 0.656 0.428L0.665 0.426H0.668V0.428Q0.656 0.431 0.654 0.431V0.433Q0.654 0.435 0.656 0.435L0.654 0.438Q0.654 0.440 0.656 0.440L0.654 0.444L0.661 0.451L0.652 0.449H0.647V0.454H0.650Q0.650 0.459 0.645 0.459V0.465L0.652 0.466Q0.652 0.469 0.647 0.471Q0.647 0.468 0.638 0.466L0.636 0.470V0.471H0.640V0.473H0.629Q0.629 0.477 0.628 0.477L0.624 0.475Q0.613 0.479 0.613 0.489V0.505L0.585 0.535Q0.587 0.535 0.613 0.563V0.600H0.626Q0.626 0.604 0.633 0.605Q0.636 0.600 0.636 0.597H0.647L0.650 0.598Q0.647 0.604 0.647 0.607Q0.640 0.607 0.617 0.613Q0.617 0.609 0.613 0.609V0.632H0.617Q0.617 0.626 0.647 0.618L0.656 0.621Q0.656 0.619 0.657 0.619Q0.669 0.630 0.669 0.632V0.637Q0.669 0.659 0.640 0.681Q0.608 0.698 0.607 0.700Q0.604 0.713 0.592 0.734L0.601 0.732H0.608Q0.610 0.732 0.610 0.734L0.613 0.732Q0.629 0.737 0.668 0.757V0.760Q0.626 0.741 0.617 0.741Q0.614 0.743 0.612 0.743V0.741Q0.594 0.743 0.594 0.755V0.759Q0.596 0.759 0.599 0.760Q0.599 0.755 0.626 0.749Q0.642 0.753 0.642 0.759V0.765H0.640Q0.640 0.760 0.633 0.757Q0.610 0.762 0.603 0.772Q0.601 0.772 0.601 0.771Q0.593 0.776 0.571 0.783Q0.555 0.780 0.548 0.780Q0.511 0.811 0.455 0.811Q0.382 0.811 0.331 0.737Q0.331 0.735 0.321 0.728L0.323 0.725Q0.304 0.683 0.304 0.637H0.331Q0.348 0.783 0.464 0.783L0.482 0.781V0.780H0.475Q0.475 0.778 0.476 0.778Q0.476 0.776 0.469 0.767V0.765Q0.478 0.765 0.478 0.753H0.480Q0.483 0.754 0.483 0.757L0.487 0.755H0.490Q0.487 0.762 0.485 0.762Q0.488 0.776 0.498 0.776Q0.510 0.776 0.515 0.762L0.524 0.764Q0.531 0.756 0.531 0.749V0.744H0.534Q0.533 0.747 0.533 0.749Q0.534 0.753 0.534 0.755H0.538V0.749L0.536 0.746Q0.545 0.739 0.550 0.739Q0.550 0.741 0.552 0.741L0.554 0.737Q0.548 0.737 0.548 0.734Q0.563 0.718 0.566 0.718L0.564 0.714Q0.571 0.714 0.571 0.704H0.555Q0.555 0.693 0.539 0.693V0.691Q0.547 0.691 0.547 0.683H0.548Q0.548 0.695 0.571 0.700L0.576 0.686Q0.573 0.686 0.573 0.683V0.679H0.575Q0.578 0.681 0.580 0.681V0.679Q0.584 0.651 0.584 0.633Q0.582 0.633 0.570 0.649Q0.570 0.647 0.555 0.639Q0.548 0.649 0.548 0.653Q0.559 0.660 0.562 0.660Q0.563 0.656 0.566 0.656V0.658Q0.566 0.660 0.564 0.660Q0.568 0.671 0.568 0.674L0.564 0.672H0.562L0.559 0.674V0.672L0.555 0.674H0.554Q0.554 0.670 0.541 0.663H0.538Q0.538 0.669 0.536 0.669L0.533 0.667L0.525 0.670V0.669Q0.525 0.663 0.531 0.656V0.654H0.527Q0.528 0.650 0.541 0.640Q0.541 0.635 0.547 0.635Q0.547 0.633 0.545 0.633Q0.547 0.630 0.547 0.628L0.550 0.630Q0.551 0.623 0.584 0.609V0.498L0.580 0.500H0.578V0.498L0.591 0.484V0.482Q0.568 0.456 0.559 0.452Q0.560 0.436 0.570 0.436V0.433L0.560 0.430L0.562 0.426Q0.558 0.415 0.554 0.415V0.414Q0.559 0.414 0.559 0.410V0.407H0.555Q0.552 0.407 0.552 0.410V0.414Q0.552 0.415 0.554 0.415Q0.552 0.419 0.552 0.421Q0.555 0.426 0.555 0.430Q0.541 0.424 0.534 0.409V0.398Q0.534 0.388 0.541 0.386L0.543 0.389Q0.540 0.389 0.538 0.394V0.403Q0.538 0.411 0.548 0.419H0.550V0.412H0.547Q0.553 0.401 0.555 0.401H0.557Q0.557 0.405 0.564 0.409V0.410Q0.570 0.407 0.573 0.407V0.403H0.568L0.570 0.399L0.573 0.401Q0.576 0.401 0.580 0.394Q0.584 0.394 0.585 0.384Q0.588 0.384 0.591 0.378L0.584 0.370V0.345Q0.573 0.345 0.564 0.333V0.317Q0.582 0.321 0.582 0.338H0.584V0.327Q0.584 0.321 0.576 0.313Q0.580 0.312 0.584 0.312V0.304H0.575V0.296L0.573 0.292L0.580 0.287V0.301H0.584V0.284L0.591 0.275Q0.584 0.267 0.584 0.266V0.234H0.533V0.231L0.539 0.222Q0.537 0.222 0.533 0.215ZM0.613 0.203H0.615Q0.618 0.203 0.636 0.224Q0.636 0.226 0.626 0.234H0.613V0.243Q0.611 0.243 0.592 0.222ZM0.624 0.203H0.666V0.234H0.633L0.644 0.222Q0.641 0.222 0.624 0.203ZM0.566 0.271Q0.577 0.275 0.578 0.280V0.282Q0.578 0.285 0.571 0.289Q0.571 0.286 0.566 0.284H0.564L0.566 0.296L0.562 0.298L0.554 0.287Q0.554 0.278 0.566 0.271ZM0.517 0.278 0.522 0.285 0.520 0.298Q0.531 0.299 0.531 0.303V0.304Q0.525 0.301 0.517 0.301V0.287Q0.517 0.284 0.513 0.284H0.512V0.296Q0.506 0.294 0.506 0.285V0.284Q0.508 0.278 0.517 0.278ZM0.492 0.296H0.502L0.496 0.303V0.306H0.498Q0.501 0.304 0.502 0.304Q0.502 0.307 0.498 0.310Q0.490 0.308 0.490 0.301Q0.492 0.298 0.492 0.296ZM0.448 0.299H0.453Q0.457 0.300 0.457 0.303L0.466 0.301Q0.488 0.313 0.490 0.319L0.487 0.320Q0.467 0.304 0.455 0.304H0.450Q0.440 0.304 0.429 0.319Q0.425 0.319 0.425 0.315Q0.435 0.299 0.448 0.299ZM0.568 0.299V0.303Q0.566 0.306 0.566 0.308H0.564Q0.564 0.306 0.562 0.303ZM0.522 0.306H0.524Q0.527 0.308 0.529 0.308Q0.529 0.312 0.525 0.312Q0.522 0.312 0.522 0.308ZM0.510 0.310 0.513 0.312Q0.517 0.310 0.518 0.310V0.313Q0.513 0.313 0.513 0.322H0.512Q0.512 0.317 0.510 0.310ZM0.560 0.310H0.562V0.312L0.536 0.324L0.534 0.320V0.319Q0.553 0.310 0.560 0.310ZM0.560 0.315H0.564V0.317H0.560ZM0.422 0.320H0.424Q0.427 0.321 0.427 0.324Q0.423 0.336 0.420 0.336V0.333ZM0.494 0.322Q0.502 0.336 0.502 0.340Q0.496 0.336 0.490 0.325Q0.491 0.322 0.494 0.322ZM0.531 0.322 0.533 0.325Q0.519 0.343 0.517 0.343V0.341Q0.520 0.330 0.531 0.322ZM0.443 0.325H0.446Q0.466 0.329 0.466 0.345L0.464 0.354L0.459 0.350L0.450 0.357L0.440 0.356H0.438V0.357L0.445 0.364L0.438 0.370Q0.436 0.356 0.432 0.356L0.429 0.357V0.354H0.438Q0.443 0.352 0.443 0.343L0.446 0.345H0.452V0.338ZM0.510 0.329H0.512Q0.512 0.342 0.513 0.349H0.512L0.508 0.347Q0.510 0.346 0.510 0.329ZM0.425 0.338Q0.425 0.339 0.432 0.349Q0.425 0.349 0.425 0.352V0.354H0.424L0.420 0.341ZM0.499 0.345 0.508 0.352Q0.506 0.355 0.506 0.357Q0.506 0.367 0.513 0.389Q0.501 0.378 0.492 0.378V0.382Q0.499 0.382 0.527 0.414H0.524L0.510 0.401Q0.510 0.405 0.506 0.405L0.482 0.372L0.485 0.370Q0.490 0.370 0.499 0.377H0.501L0.499 0.364ZM0.534 0.345Q0.541 0.345 0.545 0.352Q0.525 0.363 0.525 0.370Q0.524 0.372 0.524 0.384H0.522V0.373Q0.522 0.366 0.533 0.354V0.350Q0.517 0.354 0.517 0.378H0.515L0.510 0.356L0.515 0.352V0.356H0.517Q0.527 0.345 0.534 0.345ZM0.401 0.349Q0.401 0.351 0.413 0.361L0.416 0.359H0.418Q0.418 0.364 0.422 0.364Q0.427 0.364 0.427 0.357H0.429V0.366Q0.429 0.378 0.416 0.378H0.413Q0.398 0.378 0.395 0.357Q0.398 0.349 0.401 0.349ZM0.450 0.366Q0.461 0.373 0.461 0.378V0.380H0.459Q0.459 0.375 0.446 0.372V0.370Q0.447 0.366 0.450 0.366ZM0.548 0.372Q0.559 0.375 0.560 0.382H0.557Q0.557 0.377 0.543 0.377Q0.543 0.374 0.548 0.372ZM0.538 0.373 0.534 0.378Q0.536 0.382 0.536 0.384Q0.534 0.384 0.525 0.396Q0.525 0.395 0.524 0.386Q0.533 0.373 0.538 0.373ZM0.654 0.373Q0.657 0.373 0.657 0.377V0.378Q0.654 0.378 0.650 0.380V0.377Q0.651 0.373 0.654 0.373ZM0.440 0.375H0.443Q0.443 0.379 0.455 0.384Q0.455 0.386 0.457 0.389H0.455Q0.440 0.383 0.440 0.375ZM0.476 0.375H0.480V0.377H0.476ZM0.461 0.380H0.462V0.384H0.461ZM0.615 0.380H0.617V0.384H0.615ZM0.545 0.382H0.552V0.384Q0.550 0.384 0.547 0.386ZM0.566 0.382H0.570V0.389Q0.566 0.389 0.566 0.386Q0.568 0.386 0.568 0.384Q0.566 0.384 0.566 0.382ZM0.560 0.398H0.564V0.399H0.560ZM0.613 0.401 0.585 0.431 0.615 0.459Q0.615 0.457 0.631 0.449Q0.631 0.443 0.644 0.430Q0.620 0.406 0.613 0.401ZM0.562 0.412V0.415Q0.563 0.419 0.566 0.419H0.570V0.417Q0.570 0.415 0.564 0.412ZM0.613 0.410Q0.613 0.425 0.620 0.431Q0.613 0.445 0.613 0.451Q0.611 0.451 0.592 0.430ZM0.510 0.415H0.518Q0.521 0.415 0.525 0.422H0.524Q0.518 0.419 0.513 0.419L0.504 0.421Q0.504 0.418 0.510 0.415ZM0.663 0.415H0.666V0.417H0.663ZM0.657 0.417H0.661V0.419H0.657ZM0.533 0.422H0.536V0.426Q0.533 0.426 0.533 0.422ZM0.673 0.424H0.677V0.426H0.673ZM0.538 0.428H0.539Q0.543 0.428 0.543 0.431H0.541Q0.538 0.431 0.538 0.428ZM0.634 0.428H0.636V0.431H0.634ZM0.538 0.431H0.539V0.435H0.538ZM0.543 0.431H0.547V0.433H0.543ZM0.547 0.433H0.548L0.559 0.438V0.435H0.560V0.440Q0.551 0.440 0.547 0.433ZM0.536 0.435H0.538V0.440H0.536ZM0.659 0.436H0.668V0.438Q0.662 0.438 0.659 0.440ZM0.673 0.436H0.677V0.438H0.673ZM0.453 0.442H0.457Q0.486 0.449 0.488 0.449Q0.488 0.452 0.480 0.456L0.462 0.454L0.459 0.459Q0.459 0.462 0.464 0.465Q0.466 0.465 0.482 0.463Q0.489 0.466 0.490 0.470V0.471H0.488Q0.483 0.471 0.452 0.473Q0.441 0.471 0.441 0.468V0.466L0.443 0.456Q0.441 0.453 0.441 0.447Q0.448 0.442 0.453 0.442ZM0.534 0.444H0.536V0.451H0.534ZM0.617 0.444H0.619V0.449H0.617ZM0.527 0.449H0.529Q0.529 0.459 0.555 0.459Q0.544 0.473 0.538 0.473Q0.538 0.478 0.534 0.482V0.487Q0.542 0.487 0.545 0.494Q0.539 0.494 0.539 0.502V0.590H0.538V0.494L0.534 0.493V0.633H0.529V0.482L0.518 0.481V0.479H0.529V0.475H0.518V0.479Q0.515 0.479 0.515 0.475V0.473L0.527 0.471ZM0.432 0.454H0.436V0.456Q0.429 0.456 0.424 0.465V0.468Q0.424 0.483 0.446 0.489H0.461Q0.475 0.489 0.492 0.486H0.496V0.487L0.455 0.493Q0.443 0.493 0.408 0.477Q0.405 0.475 0.399 0.475Q0.378 0.475 0.369 0.510Q0.369 0.520 0.376 0.530V0.531Q0.370 0.531 0.367 0.512V0.507Q0.367 0.476 0.404 0.471L0.420 0.477V0.461Q0.423 0.454 0.432 0.454ZM0.488 0.456H0.496V0.459H0.488ZM0.531 0.459V0.461Q0.532 0.470 0.536 0.470H0.539Q0.539 0.466 0.545 0.466V0.465Q0.545 0.461 0.541 0.461H0.539V0.465H0.538Q0.538 0.459 0.531 0.459ZM0.564 0.459V0.463H0.560Q0.561 0.459 0.564 0.459ZM0.504 0.463H0.512L0.510 0.471V0.477Q0.517 0.485 0.517 0.486H0.515Q0.499 0.483 0.499 0.470V0.468Q0.499 0.466 0.504 0.463ZM0.575 0.473Q0.571 0.479 0.571 0.482H0.573L0.580 0.477L0.585 0.484L0.573 0.494H0.568L0.570 0.491V0.489Q0.570 0.486 0.560 0.486V0.484H0.568V0.477H0.564Q0.555 0.477 0.555 0.482H0.550V0.479Q0.565 0.471 0.575 0.471ZM0.656 0.471 0.657 0.475V0.479Q0.655 0.479 0.652 0.473ZM0.557 0.482H0.560V0.484H0.557ZM0.545 0.484H0.548Q0.548 0.487 0.554 0.491L0.550 0.493L0.545 0.486ZM0.559 0.491H0.562Q0.560 0.494 0.560 0.502H0.559ZM0.545 0.494Q0.548 0.494 0.552 0.502V0.521Q0.552 0.524 0.548 0.524Q0.545 0.524 0.545 0.521ZM0.559 0.508H0.560V0.545H0.559ZM0.582 0.512V0.516H0.578Q0.579 0.512 0.582 0.512ZM0.613 0.514V0.556Q0.611 0.556 0.592 0.535Q0.592 0.532 0.613 0.514ZM0.566 0.521H0.570V0.523H0.566ZM0.411 0.524Q0.415 0.530 0.415 0.533Q0.412 0.533 0.406 0.542V0.544L0.422 0.542Q0.427 0.551 0.427 0.556Q0.424 0.556 0.416 0.560Q0.409 0.558 0.409 0.551H0.404L0.406 0.563L0.403 0.565H0.392L0.390 0.553Q0.403 0.545 0.403 0.542Q0.397 0.533 0.397 0.528V0.526Q0.405 0.524 0.411 0.524ZM0.380 0.535H0.381Q0.385 0.535 0.385 0.539H0.383Q0.380 0.539 0.380 0.535ZM0.385 0.539H0.390V0.540H0.385ZM0.390 0.540H0.393V0.542H0.390ZM0.747 0.570H0.751V0.572H0.747ZM0.747 0.572Q0.747 0.578 0.710 0.591V0.586Q0.710 0.584 0.747 0.572ZM0.696 0.586H0.705V0.593L0.684 0.598Q0.684 0.596 0.696 0.586ZM0.679 0.590V0.591L0.682 0.590H0.685Q0.679 0.602 0.665 0.602H0.661Q0.658 0.602 0.654 0.595L0.657 0.593H0.659Q0.665 0.593 0.673 0.598Q0.674 0.590 0.679 0.590ZM0.350 0.609H0.351V0.613H0.350ZM0.372 0.609H0.374V0.613H0.372ZM0.351 0.614H0.353V0.618H0.351ZM0.371 0.614H0.372V0.618H0.371ZM0.631 0.625 0.633 0.628Q0.628 0.628 0.628 0.637Q0.634 0.639 0.634 0.642Q0.627 0.651 0.626 0.651L0.620 0.648H0.619Q0.615 0.648 0.615 0.651Q0.617 0.651 0.617 0.653H0.613V0.660Q0.613 0.663 0.619 0.663V0.667Q0.615 0.671 0.615 0.677L0.612 0.675Q0.612 0.680 0.610 0.690V0.691H0.612V0.686H0.613L0.617 0.688V0.686Q0.615 0.686 0.615 0.685Q0.622 0.685 0.640 0.674Q0.640 0.675 0.642 0.675V0.674Q0.640 0.674 0.640 0.672Q0.663 0.663 0.663 0.639Q0.657 0.633 0.642 0.628Q0.642 0.627 0.636 0.623Q0.633 0.625 0.631 0.625ZM0.358 0.630H0.360V0.633H0.358ZM0.364 0.630H0.366V0.633H0.364ZM0.397 0.640H0.403V0.642H0.397ZM0.399 0.649H0.406V0.651H0.399ZM0.568 0.649H0.570V0.653H0.568ZM0.401 0.660H0.406V0.662H0.401ZM0.397 0.669H0.401V0.670H0.397ZM0.531 0.672H0.533Q0.533 0.677 0.543 0.685Q0.539 0.685 0.539 0.690Q0.538 0.690 0.538 0.688L0.534 0.690H0.527Q0.527 0.681 0.524 0.681Q0.527 0.673 0.531 0.672ZM0.390 0.674Q0.393 0.675 0.393 0.677H0.390ZM0.550 0.675H0.552V0.679H0.550ZM0.548 0.679H0.550V0.683H0.548ZM0.385 0.683H0.387V0.686H0.385ZM0.356 0.688H0.358V0.691H0.356ZM0.366 0.688H0.367V0.691H0.366ZM0.376 0.688H0.378V0.691H0.376ZM0.253 0.690 0.255 0.693V0.695H0.253Q0.249 0.695 0.249 0.691ZM0.355 0.693H0.356V0.697H0.355ZM0.533 0.693H0.538V0.695H0.533ZM0.506 0.699 0.510 0.700Q0.513 0.699 0.517 0.699L0.518 0.702V0.709L0.517 0.712Q0.518 0.712 0.518 0.714L0.506 0.716H0.504Q0.504 0.713 0.501 0.707Q0.502 0.707 0.502 0.706Q0.501 0.706 0.501 0.704Q0.506 0.704 0.506 0.699ZM0.520 0.700H0.524Q0.531 0.700 0.531 0.712Q0.520 0.716 0.520 0.727Q0.520 0.732 0.525 0.732Q0.525 0.736 0.512 0.739H0.502Q0.500 0.739 0.498 0.732H0.510V0.728Q0.510 0.727 0.508 0.727Q0.508 0.721 0.520 0.718Q0.520 0.715 0.524 0.709ZM0.498 0.702V0.711Q0.501 0.718 0.506 0.718V0.720H0.499Q0.492 0.707 0.485 0.707V0.706ZM0.281 0.714 0.283 0.718V0.722Q0.283 0.725 0.279 0.725Q0.273 0.722 0.271 0.722V0.720Q0.274 0.720 0.281 0.714ZM0.473 0.714Q0.473 0.730 0.485 0.730V0.732Q0.473 0.732 0.473 0.744Q0.466 0.741 0.466 0.739Q0.467 0.734 0.469 0.734L0.464 0.723Q0.468 0.715 0.473 0.714ZM0.506 0.720H0.510V0.722H0.506ZM0.462 0.725Q0.462 0.727 0.464 0.727Q0.463 0.741 0.453 0.741V0.739Q0.458 0.725 0.462 0.725ZM0.452 0.744H0.455V0.746H0.452ZM0.462 0.744Q0.473 0.746 0.473 0.749V0.757Q0.470 0.764 0.461 0.764L0.455 0.757V0.753Q0.460 0.744 0.462 0.744ZM0.496 0.749H0.499V0.751H0.496ZM0.501 0.749H0.502Q0.506 0.750 0.506 0.753H0.504Q0.501 0.753 0.501 0.749ZM0.576 0.753Q0.576 0.757 0.562 0.771Q0.564 0.771 0.564 0.769L0.573 0.771Q0.586 0.771 0.587 0.765V0.762Q0.580 0.762 0.580 0.753ZM0.504 0.755Q0.510 0.762 0.510 0.767Q0.502 0.774 0.499 0.774L0.490 0.769Q0.492 0.755 0.504 0.755ZM0.673 0.759Q0.677 0.760 0.679 0.760V0.762H0.673ZM0.680 0.762H0.685V0.764H0.680ZM0.457 0.765H0.461V0.767H0.457ZM0.638 0.765H0.640V0.769H0.638ZM0.607 0.771H0.615V0.774L0.607 0.772ZM0.617 0.772H0.629V0.774H0.617Z" fill="black"/>
</svg>
