<svg xmlns="http://www.w3.org/2000/svg" viewBox="0 0 1 1" preserveAspectRatio="xMidYMid meet">
  <path d="M0.546 0.180H0.549Q0.559 0.184 0.559 0.198V0.204Q0.548 0.215 0.548 0.217H0.546Q0.546 0.213 0.544 0.209Q0.548 0.194 0.548 0.191H0.546Q0.542 0.191 0.542 0.196Q0.539 0.196 0.535 0.184Q0.541 0.180 0.546 0.180ZM0.599 0.185H0.602Q0.604 0.185 0.609 0.193Q0.607 0.202 0.604 0.202Q0.604 0.196 0.602 0.196L0.604 0.193V0.191H0.602Q0.599 0.191 0.597 0.198L0.599 0.209H0.593Q0.584 0.209 0.584 0.215H0.582V0.209Q0.588 0.205 0.593 0.205V0.202Q0.593 0.198 0.591 0.194Q0.595 0.186 0.599 0.185ZM0.531 0.191H0.533Q0.533 0.193 0.538 0.213Q0.500 0.213 0.500 0.200L0.513 0.198Q0.517 0.198 0.529 0.209H0.531ZM0.617 0.202Q0.624 0.205 0.624 0.207V0.213Q0.624 0.216 0.617 0.218L0.606 0.217Q0.606 0.215 0.611 0.211Q0.618 0.215 0.620 0.215V0.213Q0.617 0.205 0.611 0.205V0.204Q0.617 0.204 0.617 0.202ZM0.339 0.204H0.343Q0.343 0.207 0.339 0.207ZM0.350 0.204H0.372V0.217Q0.356 0.239 0.339 0.250V0.215Q0.339 0.214 0.350 0.204ZM0.495 0.204H0.496Q0.500 0.219 0.500 0.220Q0.495 0.218 0.495 0.209ZM0.637 0.204H0.675L0.674 0.207Q0.699 0.218 0.699 0.242H0.697Q0.697 0.244 0.699 0.244L0.695 0.262H0.693Q0.693 0.257 0.690 0.257L0.686 0.259V0.257Q0.693 0.249 0.693 0.242V0.241Q0.685 0.213 0.668 0.213Q0.615 0.264 0.615 0.271Q0.615 0.281 0.613 0.288H0.615Q0.623 0.280 0.630 0.280H0.633Q0.636 0.280 0.639 0.286Q0.634 0.286 0.626 0.291H0.624V0.288Q0.616 0.288 0.600 0.301V0.299Q0.606 0.286 0.608 0.275Q0.600 0.278 0.600 0.286L0.597 0.284Q0.590 0.291 0.588 0.308H0.586Q0.586 0.301 0.582 0.301Q0.582 0.304 0.579 0.304Q0.580 0.308 0.580 0.310Q0.580 0.332 0.557 0.341Q0.560 0.335 0.560 0.330V0.328H0.557L0.549 0.337L0.551 0.341V0.343Q0.548 0.343 0.536 0.306L0.538 0.302Q0.536 0.302 0.536 0.301Q0.542 0.301 0.542 0.295V0.293H0.544L0.548 0.295Q0.548 0.293 0.573 0.266V0.264H0.568Q0.568 0.256 0.588 0.253L0.591 0.248Q0.585 0.233 0.553 0.222L0.548 0.217Q0.593 0.229 0.593 0.244H0.595Q0.598 0.244 0.602 0.237V0.231Q0.602 0.218 0.584 0.218Q0.584 0.215 0.589 0.215Q0.592 0.215 0.604 0.220V0.235ZM0.505 0.215H0.507Q0.527 0.220 0.535 0.220V0.222Q0.525 0.232 0.525 0.244V0.248H0.529Q0.529 0.238 0.540 0.228H0.542V0.248Q0.542 0.253 0.524 0.255H0.518L0.514 0.244Q0.514 0.238 0.520 0.229V0.224H0.507ZM0.372 0.226V0.334Q0.341 0.354 0.341 0.359H0.339V0.259ZM0.670 0.235H0.674Q0.674 0.237 0.665 0.248V0.251Q0.665 0.255 0.668 0.255H0.670L0.674 0.253L0.679 0.264L0.670 0.266H0.657Q0.654 0.266 0.650 0.255Q0.655 0.235 0.670 0.235ZM0.548 0.237H0.549V0.241H0.548ZM0.717 0.259H0.719Q0.723 0.259 0.723 0.262V0.271Q0.723 0.286 0.703 0.289Q0.690 0.289 0.690 0.277V0.269L0.695 0.273H0.697Q0.714 0.267 0.714 0.264Q0.714 0.259 0.717 0.259ZM0.679 0.264H0.690V0.268L0.686 0.266Q0.684 0.266 0.677 0.291Q0.666 0.299 0.661 0.299Q0.661 0.295 0.675 0.286V0.280H0.672Q0.657 0.288 0.657 0.295H0.655V0.289Q0.661 0.276 0.681 0.269V0.268ZM0.451 0.284H0.454Q0.458 0.285 0.458 0.288V0.289L0.454 0.288L0.451 0.289ZM0.493 0.289H0.495Q0.495 0.297 0.502 0.297Q0.507 0.297 0.514 0.291Q0.514 0.301 0.524 0.301Q0.530 0.304 0.544 0.343L0.542 0.346Q0.546 0.349 0.549 0.375Q0.548 0.375 0.544 0.377Q0.544 0.359 0.527 0.321H0.525Q0.519 0.321 0.509 0.370V0.396L0.511 0.399Q0.509 0.399 0.502 0.407H0.500Q0.497 0.407 0.495 0.394Q0.484 0.394 0.484 0.366Q0.482 0.366 0.482 0.359Q0.490 0.359 0.493 0.335Q0.502 0.333 0.502 0.328H0.504V0.334H0.507Q0.510 0.334 0.518 0.323Q0.511 0.317 0.505 0.317L0.507 0.313Q0.502 0.313 0.493 0.291ZM0.624 0.291V0.293Q0.613 0.314 0.595 0.325V0.326Q0.609 0.326 0.609 0.332Q0.592 0.332 0.577 0.339L0.591 0.326V0.325H0.588Q0.615 0.291 0.624 0.291ZM0.487 0.293Q0.491 0.294 0.491 0.297H0.487ZM0.525 0.295H0.529V0.297H0.525ZM0.294 0.297Q0.299 0.308 0.316 0.308L0.308 0.319V0.321L0.310 0.334L0.301 0.332H0.299Q0.294 0.332 0.284 0.337Q0.284 0.319 0.273 0.313Q0.287 0.313 0.292 0.297ZM0.476 0.302Q0.478 0.302 0.478 0.304L0.482 0.302H0.487Q0.482 0.322 0.475 0.339Q0.475 0.341 0.473 0.345Q0.478 0.377 0.486 0.401V0.405Q0.471 0.393 0.462 0.346V0.330Q0.462 0.314 0.476 0.302ZM0.495 0.302Q0.499 0.315 0.504 0.315V0.317Q0.491 0.317 0.489 0.319V0.317Q0.491 0.302 0.495 0.302ZM0.564 0.321H0.566Q0.564 0.323 0.564 0.330Q0.577 0.324 0.577 0.312V0.308Q0.574 0.308 0.564 0.321ZM0.451 0.319H0.456V0.323Q0.452 0.321 0.451 0.321ZM0.445 0.328H0.449V0.330H0.445ZM0.452 0.330H0.456V0.332H0.452ZM0.524 0.334H0.527Q0.538 0.366 0.538 0.375Q0.536 0.375 0.533 0.381V0.383H0.538L0.536 0.386L0.533 0.385H0.529V0.386L0.535 0.394Q0.532 0.401 0.529 0.401H0.527Q0.525 0.401 0.522 0.396H0.525V0.394Q0.525 0.390 0.516 0.390V0.392H0.514V0.373Q0.514 0.363 0.524 0.334ZM0.425 0.335H0.438V0.337H0.425ZM0.438 0.337H0.443L0.454 0.339Q0.454 0.337 0.456 0.337Q0.456 0.349 0.458 0.361L0.447 0.363L0.454 0.355Q0.454 0.354 0.452 0.354L0.454 0.350L0.452 0.346Q0.454 0.346 0.454 0.345Q0.444 0.339 0.438 0.339ZM0.571 0.339H0.577Q0.575 0.342 0.575 0.345Q0.571 0.345 0.571 0.341ZM0.372 0.341V0.469H0.374Q0.445 0.396 0.447 0.396L0.467 0.421Q0.381 0.506 0.381 0.511Q0.381 0.513 0.394 0.523H0.396L0.398 0.514V0.509Q0.398 0.507 0.396 0.507Q0.398 0.504 0.398 0.502H0.400Q0.400 0.505 0.401 0.505L0.400 0.509V0.529Q0.407 0.536 0.407 0.540H0.409Q0.409 0.526 0.412 0.494H0.414Q0.414 0.517 0.416 0.527Q0.412 0.533 0.412 0.538V0.543Q0.564 0.701 0.589 0.724Q0.589 0.719 0.606 0.713Q0.617 0.714 0.632 0.728H0.628Q0.630 0.737 0.633 0.737V0.732H0.635Q0.635 0.734 0.637 0.737Q0.635 0.741 0.635 0.743Q0.639 0.741 0.641 0.741V0.730H0.643V0.737H0.645L0.650 0.734H0.652Q0.659 0.767 0.675 0.767Q0.684 0.772 0.684 0.774Q0.684 0.775 0.663 0.794V0.801L0.675 0.816H0.659V0.821Q0.655 0.817 0.632 0.814Q0.628 0.807 0.622 0.807Q0.620 0.807 0.604 0.808L0.609 0.788Q0.608 0.788 0.600 0.781V0.814H0.599V0.777L0.593 0.774V0.776Q0.593 0.777 0.595 0.777L0.593 0.781V0.796H0.588Q0.588 0.786 0.577 0.786V0.788Q0.579 0.801 0.579 0.808V0.814L0.577 0.823L0.580 0.825V0.819H0.582Q0.582 0.823 0.586 0.829Q0.584 0.832 0.584 0.836L0.580 0.834H0.577L0.579 0.838Q0.579 0.843 0.577 0.843L0.579 0.852V0.885H0.577Q0.573 0.885 0.573 0.881V0.816L0.575 0.807H0.568V0.801H0.571L0.575 0.803V0.797H0.570V0.794Q0.570 0.790 0.575 0.790Q0.575 0.777 0.571 0.777L0.573 0.774V0.754Q0.573 0.751 0.568 0.748Q0.553 0.760 0.553 0.770Q0.555 0.770 0.555 0.772Q0.549 0.772 0.549 0.779L0.546 0.777H0.544Q0.518 0.803 0.500 0.803Q0.497 0.801 0.493 0.801V0.799Q0.525 0.799 0.540 0.770V0.768L0.538 0.765Q0.553 0.765 0.566 0.745Q0.563 0.744 0.420 0.599H0.414L0.416 0.595Q0.416 0.591 0.412 0.591L0.409 0.593V0.591L0.411 0.588L0.400 0.578V0.582L0.401 0.591Q0.399 0.591 0.391 0.580V0.578H0.396Q0.392 0.567 0.374 0.553H0.372V0.608H0.374V0.604H0.376V0.609Q0.372 0.610 0.372 0.613V0.626Q0.372 0.641 0.378 0.648Q0.376 0.651 0.376 0.655H0.374V0.650H0.372V0.655H0.374L0.372 0.659V0.710L0.378 0.706Q0.380 0.706 0.383 0.711V0.717Q0.387 0.717 0.389 0.726H0.391Q0.394 0.726 0.394 0.723Q0.400 0.724 0.401 0.730L0.394 0.735Q0.394 0.733 0.389 0.730L0.383 0.734H0.378L0.372 0.730V0.743L0.378 0.739H0.383Q0.386 0.739 0.389 0.745Q0.389 0.756 0.378 0.756L0.372 0.752V0.816H0.339V0.758L0.337 0.747Q0.339 0.743 0.339 0.737V0.719Q0.339 0.715 0.337 0.711Q0.339 0.709 0.339 0.704V0.683Q0.339 0.677 0.337 0.677L0.339 0.668V0.575Q0.339 0.568 0.337 0.566L0.339 0.554V0.496Q0.339 0.494 0.337 0.494L0.339 0.491V0.469L0.335 0.470Q0.332 0.470 0.332 0.467Q0.333 0.467 0.339 0.465V0.409Q0.339 0.405 0.334 0.405V0.403H0.339V0.399Q0.339 0.398 0.337 0.398L0.339 0.394Q0.339 0.392 0.337 0.392Q0.345 0.350 0.361 0.350Q0.361 0.347 0.372 0.341ZM0.568 0.343H0.571V0.345H0.568ZM0.564 0.345H0.568V0.346H0.564ZM0.564 0.346Q0.564 0.350 0.555 0.352H0.553V0.350ZM0.575 0.346H0.577V0.350H0.575ZM0.436 0.348H0.445V0.350H0.436ZM0.447 0.348H0.451Q0.451 0.352 0.447 0.352ZM0.551 0.352H0.553V0.355H0.551ZM0.577 0.352H0.579V0.368H0.580Q0.584 0.368 0.584 0.363H0.586V0.385Q0.596 0.386 0.600 0.386Q0.599 0.390 0.599 0.392H0.595V0.388H0.586V0.392H0.595V0.394Q0.586 0.394 0.586 0.398V0.543L0.584 0.553H0.580Q0.580 0.551 0.579 0.547Q0.580 0.473 0.580 0.436V0.407H0.577L0.575 0.414V0.505H0.573V0.414Q0.571 0.410 0.571 0.409H0.568V0.421Q0.568 0.425 0.570 0.429Q0.567 0.439 0.564 0.439Q0.560 0.439 0.560 0.436V0.405H0.555V0.403Q0.564 0.403 0.564 0.396L0.571 0.401H0.573V0.399L0.568 0.390H0.577V0.385H0.571L0.568 0.386Q0.568 0.381 0.557 0.381V0.379H0.560V0.375H0.555V0.372H0.557Q0.577 0.371 0.577 0.368ZM0.663 0.354Q0.670 0.354 0.677 0.361Q0.675 0.364 0.675 0.366Q0.677 0.379 0.677 0.381Q0.671 0.386 0.668 0.386Q0.626 0.385 0.624 0.385Q0.627 0.375 0.637 0.375Q0.646 0.377 0.655 0.377L0.657 0.373V0.368Q0.655 0.368 0.652 0.366L0.635 0.368Q0.628 0.365 0.628 0.363V0.361ZM0.434 0.357H0.438V0.359H0.434ZM0.683 0.366H0.688Q0.696 0.369 0.699 0.375V0.385Q0.693 0.392 0.693 0.396L0.690 0.394Q0.695 0.385 0.695 0.379Q0.691 0.368 0.683 0.368ZM0.460 0.368H0.462V0.372H0.460ZM0.620 0.368H0.624Q0.628 0.369 0.628 0.372H0.620ZM0.575 0.379H0.573V0.373Q0.570 0.374 0.570 0.377V0.381L0.573 0.379V0.383H0.580Q0.580 0.380 0.584 0.372H0.582Q0.575 0.373 0.575 0.379ZM0.332 0.373H0.335V0.377Q0.332 0.377 0.332 0.373ZM0.604 0.375H0.609Q0.612 0.375 0.615 0.381V0.385Q0.615 0.399 0.600 0.399H0.597V0.398Q0.604 0.398 0.604 0.386ZM0.325 0.377 0.334 0.379V0.383Q0.324 0.381 0.319 0.381V0.379Q0.321 0.379 0.325 0.377ZM0.464 0.377Q0.478 0.406 0.478 0.410L0.471 0.416Q0.468 0.415 0.451 0.392Q0.452 0.377 0.464 0.377ZM0.548 0.381H0.549V0.385H0.548ZM0.546 0.385 0.548 0.388Q0.544 0.393 0.544 0.396V0.401Q0.539 0.414 0.529 0.414L0.527 0.410Q0.540 0.400 0.544 0.385ZM0.721 0.385Q0.746 0.385 0.754 0.421V0.429L0.750 0.441H0.749V0.439Q0.749 0.436 0.752 0.425Q0.744 0.388 0.717 0.388Q0.714 0.388 0.701 0.394V0.388Q0.716 0.385 0.721 0.385ZM0.326 0.386H0.332V0.390H0.330Q0.326 0.390 0.326 0.386ZM0.568 0.386V0.390H0.564Q0.564 0.386 0.568 0.386ZM0.553 0.388Q0.559 0.392 0.562 0.392V0.396H0.557Q0.557 0.392 0.553 0.392ZM0.577 0.394V0.401H0.580V0.394ZM0.553 0.396H0.557V0.398H0.553ZM0.619 0.398Q0.622 0.399 0.628 0.399V0.401H0.619ZM0.286 0.399Q0.289 0.401 0.294 0.401Q0.290 0.406 0.290 0.409Q0.292 0.412 0.292 0.414H0.283L0.279 0.416Q0.279 0.411 0.275 0.407ZM0.628 0.401H0.630Q0.640 0.403 0.679 0.403V0.405Q0.669 0.405 0.663 0.407L0.628 0.403ZM0.551 0.405H0.555Q0.555 0.409 0.551 0.409ZM0.551 0.416H0.553V0.461H0.551ZM0.529 0.427Q0.533 0.427 0.533 0.430H0.529ZM0.544 0.434H0.546V0.438H0.544ZM0.708 0.438Q0.720 0.441 0.723 0.441V0.443Q0.717 0.459 0.717 0.461Q0.730 0.466 0.730 0.469V0.472Q0.730 0.476 0.727 0.476Q0.715 0.461 0.710 0.461L0.712 0.458V0.456Q0.705 0.449 0.705 0.443Q0.708 0.443 0.708 0.438ZM0.749 0.441V0.443Q0.749 0.446 0.740 0.452H0.738Q0.738 0.450 0.749 0.441ZM0.257 0.447Q0.266 0.454 0.277 0.454L0.273 0.463L0.277 0.474Q0.261 0.474 0.257 0.480Q0.257 0.472 0.246 0.461Q0.257 0.461 0.257 0.447ZM0.734 0.452H0.738V0.454H0.734ZM0.730 0.454H0.734V0.456H0.730ZM0.699 0.456H0.701Q0.701 0.459 0.708 0.469V0.470Q0.708 0.474 0.705 0.474Q0.697 0.474 0.690 0.470Q0.696 0.456 0.699 0.456ZM0.725 0.456H0.729V0.458H0.725ZM0.292 0.459Q0.294 0.459 0.301 0.469L0.297 0.470Q0.297 0.468 0.292 0.461ZM0.301 0.472H0.303V0.476H0.301ZM0.307 0.482Q0.308 0.482 0.312 0.487H0.326V0.489Q0.314 0.489 0.314 0.491V0.493Q0.310 0.491 0.307 0.491L0.308 0.487Q0.307 0.483 0.307 0.482ZM0.420 0.487H0.421V0.509H0.420ZM0.301 0.489H0.303V0.493H0.301ZM0.328 0.489H0.334V0.491H0.328ZM0.334 0.491H0.337V0.493H0.334ZM0.400 0.494H0.401V0.498H0.400ZM0.314 0.498 0.319 0.502Q0.319 0.500 0.321 0.500Q0.321 0.504 0.323 0.504Q0.321 0.509 0.316 0.511Q0.310 0.509 0.308 0.504Q0.314 0.504 0.314 0.498ZM0.330 0.507H0.332V0.511H0.330ZM0.325 0.509H0.326V0.513H0.325ZM0.418 0.509H0.420V0.514H0.418ZM0.326 0.513H0.328V0.516H0.326ZM0.328 0.516H0.330V0.520H0.328ZM0.335 0.518 0.337 0.536V0.538H0.335Q0.332 0.525 0.332 0.520ZM0.325 0.523H0.326V0.527H0.325ZM0.326 0.529H0.328V0.532H0.326ZM0.328 0.534H0.330V0.538H0.328ZM0.330 0.538H0.332V0.543H0.330ZM0.332 0.543H0.334V0.549H0.332ZM0.317 0.545H0.321V0.549H0.323L0.326 0.547L0.328 0.556H0.326L0.328 0.560V0.564L0.319 0.562Q0.319 0.566 0.316 0.566Q0.315 0.556 0.310 0.556V0.553Q0.317 0.553 0.317 0.545ZM0.334 0.549H0.335V0.554H0.334ZM0.335 0.554H0.337V0.562H0.335ZM0.380 0.589H0.381V0.593H0.380ZM0.385 0.595H0.392Q0.396 0.595 0.396 0.599H0.394L0.385 0.597ZM0.392 0.600Q0.396 0.601 0.396 0.604V0.606H0.392ZM0.420 0.600V0.606H0.418Q0.414 0.606 0.414 0.602Q0.416 0.602 0.420 0.600ZM0.381 0.617Q0.385 0.617 0.385 0.620L0.380 0.624L0.378 0.620Q0.378 0.617 0.381 0.617ZM0.427 0.617H0.432V0.620Q0.432 0.624 0.429 0.624L0.427 0.620ZM0.440 0.624H0.443V0.626H0.440ZM0.277 0.629 0.283 0.637 0.275 0.642 0.270 0.635ZM0.400 0.631H0.405Q0.408 0.631 0.411 0.639H0.409L0.411 0.642Q0.409 0.648 0.400 0.648Q0.397 0.648 0.394 0.642V0.637Q0.394 0.634 0.400 0.631ZM0.430 0.633 0.432 0.637V0.642H0.427V0.637Q0.428 0.633 0.430 0.633ZM0.441 0.633H0.445V0.635H0.441ZM0.381 0.635 0.385 0.637Q0.383 0.640 0.383 0.642H0.381Q0.378 0.642 0.378 0.639Q0.378 0.635 0.381 0.635ZM0.445 0.635H0.449Q0.452 0.636 0.452 0.639V0.648H0.451Q0.451 0.644 0.445 0.635ZM0.295 0.646Q0.295 0.649 0.301 0.655L0.294 0.661L0.288 0.653Q0.288 0.651 0.295 0.646ZM0.436 0.648H0.440V0.650H0.436ZM0.434 0.650H0.436V0.653H0.434ZM0.449 0.650H0.451V0.653H0.449ZM0.326 0.651 0.332 0.659 0.325 0.664Q0.322 0.664 0.319 0.659Q0.319 0.656 0.326 0.651ZM0.392 0.651Q0.397 0.657 0.401 0.657V0.659L0.391 0.663H0.389V0.661Q0.392 0.661 0.392 0.651ZM0.418 0.651 0.421 0.663H0.414Q0.414 0.659 0.412 0.659Q0.415 0.651 0.418 0.651ZM0.383 0.663H0.389V0.664H0.383ZM0.421 0.663H0.429V0.664H0.421ZM0.409 0.664H0.411V0.668H0.409ZM0.429 0.664H0.430V0.670H0.429ZM0.380 0.666Q0.383 0.667 0.383 0.670V0.672Q0.380 0.672 0.380 0.668ZM0.401 0.666Q0.401 0.669 0.407 0.672H0.411V0.668Q0.413 0.668 0.420 0.677V0.679H0.416V0.683Q0.416 0.686 0.420 0.686L0.429 0.681H0.430Q0.434 0.681 0.434 0.684Q0.430 0.684 0.427 0.697Q0.420 0.697 0.420 0.688H0.412V0.692H0.411V0.679Q0.400 0.685 0.400 0.690L0.396 0.688H0.394V0.697Q0.394 0.699 0.389 0.702H0.385Q0.382 0.702 0.380 0.697V0.690Q0.380 0.687 0.387 0.684Q0.390 0.686 0.394 0.686V0.681H0.391Q0.391 0.670 0.401 0.666ZM0.308 0.670Q0.311 0.670 0.314 0.675Q0.314 0.678 0.307 0.683L0.301 0.675ZM0.326 0.686Q0.326 0.689 0.332 0.695L0.325 0.701L0.319 0.693Q0.319 0.690 0.326 0.686ZM0.400 0.690H0.401V0.693H0.400ZM0.602 0.697H0.608V0.699H0.602ZM0.604 0.702H0.615V0.704H0.604ZM0.308 0.704 0.314 0.711Q0.314 0.714 0.307 0.719L0.301 0.711Q0.301 0.709 0.308 0.704ZM0.599 0.704H0.602V0.706H0.599ZM0.619 0.704H0.622V0.706H0.619ZM0.423 0.706H0.429Q0.434 0.708 0.434 0.717L0.427 0.723H0.423Q0.421 0.723 0.418 0.717V0.711Q0.418 0.709 0.423 0.706ZM0.622 0.706H0.624Q0.632 0.709 0.632 0.711H0.624Q0.624 0.710 0.622 0.706ZM0.372 0.713V0.721Q0.376 0.721 0.376 0.717Q0.376 0.713 0.372 0.713ZM0.675 0.711 0.677 0.715 0.674 0.717 0.672 0.713ZM0.646 0.713Q0.650 0.715 0.652 0.715Q0.650 0.719 0.650 0.721Q0.643 0.718 0.643 0.715Q0.646 0.715 0.646 0.713ZM0.620 0.715H0.624V0.717H0.620ZM0.637 0.719H0.639V0.723H0.637ZM0.290 0.723 0.295 0.730Q0.295 0.733 0.290 0.735Q0.287 0.735 0.283 0.728ZM0.326 0.723 0.332 0.730 0.325 0.735Q0.322 0.735 0.319 0.730Q0.319 0.727 0.326 0.723ZM0.421 0.724Q0.430 0.727 0.430 0.737Q0.425 0.743 0.421 0.743Q0.418 0.741 0.416 0.741V0.743L0.420 0.748L0.412 0.754H0.411Q0.411 0.751 0.407 0.747Q0.407 0.742 0.414 0.741V0.730Q0.414 0.727 0.421 0.724ZM0.672 0.730 0.675 0.732 0.679 0.730Q0.679 0.735 0.683 0.739Q0.678 0.739 0.674 0.743Q0.674 0.739 0.668 0.739Q0.672 0.735 0.672 0.730ZM0.427 0.750H0.430Q0.432 0.764 0.436 0.768L0.429 0.774L0.416 0.759Q0.417 0.750 0.427 0.750ZM0.706 0.754Q0.706 0.758 0.708 0.761Q0.703 0.761 0.703 0.767Q0.698 0.763 0.693 0.763Q0.695 0.754 0.706 0.754ZM0.394 0.758Q0.397 0.758 0.401 0.765Q0.401 0.768 0.394 0.772L0.389 0.765Q0.394 0.765 0.394 0.758ZM0.582 0.765V0.768H0.586V0.765ZM0.535 0.768H0.538V0.770H0.535ZM0.412 0.777 0.418 0.785Q0.418 0.788 0.411 0.792L0.405 0.785Q0.405 0.782 0.412 0.777ZM0.564 0.785H0.566V0.788H0.564ZM0.697 0.785H0.701V0.786H0.697ZM0.562 0.790H0.564V0.796Q0.560 0.807 0.560 0.808H0.557Q0.562 0.793 0.562 0.790ZM0.580 0.790H0.582V0.794H0.580ZM0.686 0.797V0.805Q0.684 0.805 0.681 0.799Q0.683 0.799 0.686 0.797ZM0.551 0.799H0.553V0.803H0.551ZM0.551 0.803V0.805Q0.549 0.808 0.549 0.810H0.546Q0.548 0.803 0.551 0.803ZM0.544 0.812 0.548 0.814Q0.543 0.826 0.538 0.827V0.825Q0.544 0.814 0.544 0.812ZM0.533 0.814H0.535V0.818H0.533ZM0.529 0.821V0.823Q0.512 0.847 0.502 0.847V0.845Q0.513 0.833 0.529 0.821ZM0.509 0.825H0.513V0.827H0.509ZM0.609 0.825H0.613V0.829H0.609ZM0.504 0.831H0.505Q0.505 0.834 0.502 0.834H0.500Q0.500 0.831 0.504 0.831ZM0.652 0.831H0.654V0.834H0.652ZM0.500 0.834Q0.464 0.860 0.434 0.860Q0.430 0.860 0.430 0.856Q0.454 0.856 0.500 0.834ZM0.626 0.840H0.628Q0.632 0.840 0.632 0.843L0.628 0.845H0.626ZM0.580 0.843H0.582V0.849H0.580Z" fill="black"/>
</svg>
