<svg xmlns="http://www.w3.org/2000/svg" viewBox="0 0 1 1" preserveAspectRatio="xMidYMid meet">
  <path d="M0.452 0.179H0.454Q0.454 0.182 0.457 0.182Q0.445 0.196 0.445 0.201Q0.442 0.201 0.436 0.192Q0.439 0.192 0.452 0.179ZM0.334 0.186Q0.338 0.186 0.346 0.205Q0.338 0.223 0.330 0.223Q0.323 0.220 0.323 0.217V0.212Q0.323 0.207 0.332 0.206V0.203Q0.325 0.203 0.325 0.197V0.188ZM0.461 0.188Q0.464 0.188 0.466 0.193Q0.466 0.196 0.452 0.208H0.448Q0.448 0.198 0.461 0.188ZM0.399 0.203H0.425V0.205Q0.419 0.221 0.419 0.231V0.233Q0.419 0.260 0.428 0.293Q0.445 0.293 0.445 0.304Q0.443 0.308 0.443 0.310L0.446 0.308H0.448Q0.452 0.332 0.455 0.332Q0.459 0.332 0.459 0.325Q0.462 0.325 0.466 0.332Q0.466 0.334 0.450 0.348Q0.437 0.335 0.437 0.330Q0.440 0.330 0.445 0.323V0.321H0.434V0.313H0.432V0.335Q0.441 0.337 0.441 0.341V0.346L0.432 0.355V0.413L0.421 0.471Q0.419 0.477 0.419 0.497V0.508Q0.419 0.510 0.410 0.517Q0.410 0.497 0.406 0.497Q0.401 0.511 0.401 0.515H0.399V0.434L0.395 0.435H0.394Q0.382 0.435 0.376 0.422V0.421Q0.407 0.428 0.412 0.428L0.414 0.424Q0.380 0.410 0.379 0.406Q0.382 0.406 0.397 0.399Q0.397 0.401 0.399 0.401Q0.399 0.396 0.416 0.392V0.390L0.412 0.388H0.408L0.399 0.390V0.326L0.392 0.317V0.310Q0.392 0.306 0.399 0.306V0.295Q0.391 0.295 0.388 0.286Q0.390 0.279 0.397 0.277Q0.397 0.279 0.399 0.279V0.263L0.383 0.277H0.381Q0.378 0.277 0.368 0.263Q0.368 0.260 0.383 0.248H0.385Q0.385 0.253 0.390 0.253V0.252L0.385 0.248Q0.391 0.228 0.399 0.228ZM0.430 0.205H0.432V0.259L0.430 0.272H0.428Q0.425 0.246 0.425 0.235V0.233Q0.425 0.224 0.430 0.205ZM0.487 0.214 0.501 0.230 0.492 0.237H0.481Q0.478 0.237 0.472 0.228Q0.472 0.226 0.487 0.214ZM0.354 0.224Q0.367 0.226 0.367 0.228L0.370 0.226H0.372Q0.379 0.246 0.379 0.248L0.372 0.253H0.368Q0.366 0.253 0.363 0.248V0.239L0.354 0.241H0.352Q0.349 0.241 0.346 0.235V0.231Q0.346 0.229 0.354 0.224ZM0.454 0.248Q0.454 0.252 0.459 0.255H0.461Q0.457 0.262 0.457 0.275Q0.454 0.275 0.450 0.279V0.252Q0.451 0.248 0.454 0.248ZM0.437 0.255H0.445V0.277L0.436 0.272L0.437 0.259ZM0.464 0.261H0.466V0.266Q0.464 0.270 0.464 0.272H0.463V0.270ZM0.481 0.266Q0.484 0.266 0.487 0.272V0.274L0.479 0.293L0.476 0.291H0.474L0.461 0.293L0.463 0.281V0.277H0.470Q0.470 0.266 0.481 0.266ZM0.457 0.279V0.284Q0.457 0.288 0.454 0.288V0.282Q0.454 0.279 0.457 0.279ZM0.348 0.282 0.363 0.299 0.348 0.312Q0.346 0.312 0.334 0.297Q0.334 0.295 0.348 0.282ZM0.454 0.308H0.455V0.312H0.454ZM0.383 0.310Q0.385 0.310 0.390 0.325Q0.393 0.325 0.397 0.332Q0.387 0.346 0.381 0.348L0.365 0.330Q0.367 0.330 0.376 0.310ZM0.314 0.317 0.328 0.332Q0.328 0.334 0.312 0.348Q0.301 0.333 0.297 0.333Q0.297 0.331 0.314 0.317ZM0.348 0.351Q0.348 0.354 0.354 0.357Q0.352 0.361 0.350 0.381H0.348Q0.346 0.381 0.334 0.366Q0.334 0.364 0.348 0.351ZM0.487 0.353Q0.489 0.353 0.496 0.362V0.372Q0.496 0.374 0.487 0.381L0.477 0.373Q0.487 0.357 0.487 0.353ZM0.476 0.362V0.364Q0.476 0.368 0.472 0.368H0.470Q0.470 0.365 0.476 0.362ZM0.383 0.386 0.386 0.392 0.383 0.393H0.376Q0.376 0.390 0.383 0.386ZM0.452 0.386 0.466 0.402 0.450 0.417Q0.450 0.414 0.441 0.408Q0.446 0.386 0.452 0.386ZM0.379 0.399H0.381V0.401L0.368 0.404L0.367 0.401Q0.372 0.401 0.379 0.399ZM0.376 0.413H0.379V0.415H0.376ZM0.327 0.421H0.335V0.424Q0.329 0.435 0.327 0.435Q0.327 0.432 0.325 0.432L0.327 0.428Q0.327 0.426 0.325 0.426Q0.327 0.422 0.327 0.421ZM0.430 0.446H0.432V0.517Q0.429 0.517 0.425 0.508V0.497Q0.425 0.472 0.430 0.446ZM0.350 0.471H0.352V0.475H0.350ZM0.352 0.477H0.354Q0.354 0.480 0.357 0.486H0.355L0.359 0.495H0.357L0.359 0.499V0.515L0.361 0.519H0.359Q0.367 0.541 0.386 0.541Q0.378 0.550 0.378 0.553Q0.358 0.546 0.343 0.526V0.502Q0.348 0.502 0.348 0.510H0.350Q0.355 0.508 0.355 0.499V0.497L0.354 0.494H0.355Q0.352 0.482 0.352 0.479ZM0.425 0.515Q0.425 0.518 0.428 0.522L0.416 0.524Q0.416 0.522 0.425 0.515ZM0.404 0.522Q0.408 0.529 0.408 0.533Q0.406 0.535 0.399 0.535Q0.399 0.530 0.395 0.526ZM0.432 0.530V0.542Q0.417 0.534 0.417 0.531Q0.419 0.531 0.432 0.530ZM0.414 0.541Q0.422 0.545 0.432 0.548V0.610L0.437 0.621H0.436L0.437 0.624Q0.437 0.627 0.432 0.646V0.655Q0.441 0.655 0.448 0.637Q0.448 0.634 0.443 0.613Q0.446 0.613 0.450 0.624H0.448Q0.452 0.632 0.452 0.648V0.655Q0.452 0.657 0.450 0.657L0.452 0.661L0.450 0.664Q0.452 0.667 0.452 0.672V0.673H0.450Q0.450 0.667 0.441 0.663H0.437V0.666L0.441 0.672Q0.439 0.672 0.439 0.673Q0.441 0.673 0.441 0.675Q0.432 0.675 0.432 0.680V0.708H0.436Q0.439 0.708 0.439 0.704L0.437 0.700L0.441 0.699V0.721H0.439V0.726L0.443 0.724Q0.448 0.724 0.452 0.733Q0.449 0.740 0.446 0.740H0.439L0.432 0.735Q0.432 0.737 0.430 0.737L0.427 0.731Q0.430 0.731 0.430 0.728Q0.430 0.724 0.416 0.723L0.410 0.713Q0.410 0.712 0.421 0.700L0.417 0.699Q0.406 0.706 0.401 0.706L0.399 0.702V0.680Q0.395 0.680 0.392 0.679Q0.389 0.680 0.385 0.680Q0.385 0.675 0.376 0.666V0.661Q0.376 0.658 0.383 0.653Q0.389 0.654 0.394 0.666Q0.397 0.664 0.399 0.664V0.655Q0.376 0.641 0.376 0.621Q0.376 0.619 0.374 0.619Q0.378 0.614 0.378 0.593L0.381 0.595Q0.379 0.599 0.379 0.601Q0.381 0.604 0.381 0.606H0.379L0.383 0.615H0.381Q0.388 0.628 0.390 0.628Q0.390 0.626 0.392 0.626V0.628L0.390 0.631L0.394 0.633L0.397 0.631Q0.398 0.635 0.401 0.635Q0.404 0.635 0.404 0.629L0.410 0.633L0.412 0.629L0.410 0.626Q0.416 0.626 0.416 0.622Q0.412 0.621 0.410 0.621V0.619Q0.416 0.619 0.416 0.615Q0.413 0.615 0.406 0.606Q0.406 0.610 0.403 0.610Q0.403 0.607 0.399 0.602V0.582Q0.399 0.568 0.379 0.557Q0.390 0.546 0.395 0.544Q0.395 0.562 0.399 0.562Q0.404 0.549 0.404 0.546Q0.415 0.561 0.417 0.561L0.419 0.557Q0.414 0.545 0.414 0.541ZM0.378 0.588H0.379V0.591H0.378ZM0.452 0.673H0.454V0.677H0.452ZM0.454 0.679H0.455V0.686H0.454ZM0.439 0.680H0.443V0.688H0.441Q0.441 0.684 0.439 0.680ZM0.455 0.689H0.457V0.693H0.455ZM0.437 0.693H0.439V0.697H0.437ZM0.476 0.697H0.477Q0.485 0.717 0.487 0.719Q0.485 0.722 0.485 0.730H0.483Q0.483 0.728 0.481 0.724Q0.483 0.724 0.483 0.723Q0.479 0.723 0.474 0.708Q0.476 0.705 0.476 0.697ZM0.455 0.704H0.457Q0.457 0.707 0.461 0.713H0.459L0.463 0.733H0.461Q0.463 0.737 0.463 0.739V0.740H0.461Q0.455 0.724 0.455 0.719ZM0.394 0.708Q0.400 0.708 0.432 0.746V0.748L0.428 0.753L0.432 0.759V0.764H0.430Q0.410 0.728 0.401 0.728L0.403 0.724Q0.403 0.720 0.395 0.719V0.717L0.397 0.713Q0.394 0.713 0.394 0.710ZM0.385 0.715H0.386Q0.386 0.720 0.390 0.724V0.726H0.386L0.378 0.724V0.717L0.383 0.721Q0.385 0.717 0.385 0.715ZM0.399 0.733H0.404Q0.404 0.736 0.408 0.740H0.406Q0.404 0.740 0.399 0.733ZM0.665 0.733 0.666 0.737 0.657 0.744H0.656V0.742Q0.656 0.737 0.665 0.733ZM0.370 0.735H0.374V0.737H0.370ZM0.454 0.737H0.455Q0.455 0.740 0.466 0.771Q0.464 0.771 0.452 0.757V0.749Q0.452 0.748 0.454 0.748L0.452 0.744Q0.454 0.741 0.454 0.737ZM0.670 0.740H0.672Q0.668 0.760 0.659 0.760V0.759Q0.653 0.762 0.648 0.762H0.646V0.760Q0.646 0.759 0.670 0.740ZM0.394 0.744Q0.397 0.745 0.397 0.748V0.753Q0.394 0.753 0.394 0.749ZM0.381 0.746H0.383Q0.383 0.747 0.386 0.757L0.379 0.753Q0.381 0.750 0.381 0.746ZM0.648 0.746Q0.648 0.748 0.650 0.748Q0.650 0.746 0.652 0.746V0.748Q0.652 0.750 0.641 0.757Q0.641 0.755 0.639 0.751ZM0.399 0.748H0.401Q0.425 0.759 0.425 0.764Q0.437 0.784 0.443 0.790V0.791Q0.402 0.766 0.399 0.766ZM0.487 0.755V0.760Q0.483 0.760 0.483 0.757ZM0.470 0.764H0.472Q0.475 0.764 0.487 0.797L0.481 0.800L0.452 0.770V0.766L0.476 0.788L0.477 0.784Q0.477 0.781 0.470 0.764ZM0.626 0.764H0.632V0.766Q0.630 0.766 0.626 0.768ZM0.481 0.766H0.483V0.770H0.481ZM0.623 0.768H0.626Q0.626 0.771 0.623 0.771ZM0.639 0.768Q0.633 0.775 0.586 0.811H0.584V0.809Q0.595 0.787 0.603 0.779H0.605L0.597 0.793L0.601 0.795Q0.635 0.768 0.639 0.768ZM0.483 0.770H0.485V0.773H0.483ZM0.399 0.771Q0.452 0.804 0.455 0.804Q0.455 0.802 0.457 0.802Q0.448 0.786 0.441 0.779H0.445Q0.453 0.786 0.468 0.811H0.463Q0.458 0.811 0.403 0.779L0.401 0.782L0.434 0.811H0.428Q0.403 0.788 0.399 0.788ZM0.614 0.771H0.615Q0.619 0.772 0.619 0.775L0.612 0.781H0.610Q0.614 0.774 0.614 0.771ZM0.674 0.771Q0.684 0.771 0.684 0.781H0.682Q0.634 0.802 0.632 0.802Q0.643 0.786 0.654 0.779H0.668Q0.669 0.771 0.674 0.771ZM0.695 0.771 0.697 0.775Q0.691 0.777 0.690 0.777V0.773Q0.692 0.773 0.695 0.771ZM0.487 0.779H0.490L0.492 0.788H0.488ZM0.505 0.779H0.506V0.784L0.503 0.782L0.501 0.786L0.505 0.788Q0.505 0.786 0.506 0.786Q0.506 0.792 0.508 0.795Q0.506 0.795 0.506 0.797H0.508Q0.508 0.799 0.506 0.799L0.508 0.807V0.811H0.481L0.497 0.788Q0.497 0.781 0.505 0.779ZM0.512 0.779H0.513Q0.517 0.779 0.521 0.795L0.524 0.797H0.530Q0.536 0.795 0.536 0.782V0.779H0.541V0.793Q0.541 0.796 0.547 0.799H0.550Q0.554 0.799 0.561 0.779H0.564V0.781Q0.561 0.796 0.561 0.802L0.564 0.804H0.570L0.594 0.779V0.781Q0.579 0.806 0.579 0.811H0.513V0.806Q0.513 0.802 0.512 0.799L0.513 0.795L0.512 0.784ZM0.523 0.779H0.530V0.782L0.528 0.791H0.524ZM0.547 0.779H0.556Q0.550 0.789 0.550 0.793H0.547ZM0.573 0.779H0.575Q0.577 0.779 0.577 0.781L0.581 0.779H0.584Q0.577 0.793 0.568 0.799H0.566Q0.570 0.779 0.573 0.779ZM0.641 0.779H0.645Q0.628 0.799 0.615 0.811H0.612Q0.612 0.808 0.641 0.779ZM0.703 0.779V0.784Q0.703 0.785 0.663 0.811H0.659Q0.674 0.800 0.674 0.799L0.672 0.795Q0.638 0.811 0.632 0.811H0.628V0.809ZM0.457 0.784 0.479 0.804Q0.476 0.811 0.474 0.811Q0.474 0.807 0.457 0.786ZM0.399 0.793Q0.419 0.808 0.419 0.811H0.412L0.399 0.809ZM0.701 0.793V0.811H0.674V0.809Q0.678 0.808 0.701 0.793ZM0.614 0.797H0.615Q0.609 0.807 0.603 0.811H0.597Q0.597 0.808 0.614 0.797ZM0.437 0.806H0.439Q0.443 0.809 0.446 0.809V0.811H0.441Z" fill="black"/>
</svg>
