<svg xmlns="http://www.w3.org/2000/svg" viewBox="0 0 1 1" preserveAspectRatio="xMidYMid meet">
  <path d="M0.585 0.178H0.589Q0.589 0.181 0.585 0.181ZM0.600 0.178Q0.603 0.180 0.605 0.180L0.589 0.194V0.200L0.585 0.198Q0.572 0.210 0.572 0.218H0.571V0.205Q0.576 0.192 0.600 0.178ZM0.578 0.185V0.191Q0.574 0.191 0.574 0.187ZM0.603 0.187H0.605V0.192H0.603ZM0.673 0.189H0.675V0.192H0.673ZM0.684 0.191H0.686V0.196H0.684ZM0.151 0.200Q0.153 0.200 0.259 0.328Q0.254 0.337 0.254 0.346Q0.254 0.362 0.276 0.364H0.278L0.291 0.362Q0.292 0.367 0.323 0.405Q0.312 0.405 0.309 0.421V0.423L0.311 0.432L0.185 0.278V0.293Q0.163 0.296 0.163 0.311V0.317Q0.163 0.327 0.175 0.337Q0.164 0.343 0.164 0.355Q0.168 0.377 0.185 0.377V0.385Q0.178 0.379 0.172 0.379H0.166Q0.160 0.379 0.151 0.386V0.256Q0.145 0.256 0.144 0.245Q0.151 0.242 0.151 0.240ZM0.765 0.202V0.209Q0.761 0.209 0.761 0.205Q0.761 0.202 0.765 0.202ZM0.204 0.203 0.212 0.211Q0.212 0.214 0.204 0.231Q0.181 0.224 0.181 0.220L0.188 0.216Q0.188 0.218 0.190 0.218V0.216L0.194 0.218H0.195Q0.195 0.205 0.204 0.203ZM0.539 0.207 0.543 0.212Q0.541 0.212 0.541 0.214Q0.544 0.214 0.548 0.221Q0.544 0.221 0.539 0.225H0.536Q0.532 0.225 0.528 0.223Q0.525 0.225 0.521 0.225V0.229Q0.535 0.229 0.537 0.243L0.541 0.245H0.547Q0.549 0.245 0.554 0.236Q0.557 0.238 0.563 0.238Q0.563 0.241 0.558 0.243L0.561 0.251L0.556 0.254L0.560 0.262Q0.557 0.262 0.554 0.267Q0.563 0.271 0.563 0.284H0.567Q0.567 0.273 0.576 0.269L0.574 0.265V0.264L0.578 0.265L0.582 0.264L0.580 0.260V0.256L0.585 0.260L0.587 0.256Q0.585 0.253 0.585 0.251L0.593 0.256Q0.593 0.254 0.594 0.254L0.591 0.247H0.593Q0.596 0.247 0.600 0.269Q0.600 0.289 0.558 0.297Q0.547 0.295 0.547 0.284Q0.548 0.280 0.548 0.278Q0.545 0.278 0.545 0.275Q0.545 0.273 0.554 0.249L0.545 0.247H0.530Q0.530 0.245 0.528 0.241L0.524 0.243Q0.512 0.236 0.512 0.221V0.220Q0.519 0.207 0.539 0.207ZM0.547 0.207V0.212Q0.543 0.212 0.543 0.209ZM0.673 0.209Q0.677 0.209 0.677 0.212V0.216L0.675 0.220Q0.677 0.220 0.677 0.221L0.673 0.223L0.669 0.221L0.673 0.214H0.671Q0.673 0.211 0.673 0.209ZM0.684 0.209Q0.688 0.209 0.688 0.212Q0.688 0.214 0.686 0.214L0.688 0.218V0.220Q0.684 0.220 0.684 0.216ZM0.755 0.209Q0.758 0.209 0.768 0.225L0.772 0.223H0.774Q0.771 0.231 0.765 0.231V0.269L0.759 0.265Q0.751 0.269 0.744 0.278Q0.746 0.278 0.746 0.280L0.753 0.277L0.755 0.280Q0.746 0.285 0.746 0.288Q0.748 0.288 0.748 0.289L0.757 0.284H0.761Q0.744 0.296 0.744 0.299Q0.746 0.299 0.746 0.300Q0.750 0.299 0.752 0.299H0.753V0.300Q0.741 0.303 0.741 0.308Q0.742 0.308 0.742 0.309Q0.743 0.309 0.750 0.308H0.753V0.309Q0.744 0.310 0.744 0.315Q0.746 0.315 0.746 0.317Q0.760 0.315 0.765 0.311V0.326Q0.765 0.328 0.763 0.328L0.765 0.331V0.342H0.755Q0.752 0.343 0.752 0.346L0.757 0.349H0.765Q0.776 0.332 0.779 0.331L0.787 0.326L0.792 0.329Q0.792 0.327 0.799 0.324L0.797 0.320V0.318Q0.810 0.318 0.810 0.308H0.816Q0.826 0.324 0.830 0.324L0.839 0.317H0.841Q0.843 0.317 0.843 0.318Q0.860 0.313 0.860 0.300L0.863 0.299Q0.873 0.301 0.873 0.311V0.322Q0.873 0.345 0.837 0.349Q0.817 0.349 0.817 0.313H0.814Q0.809 0.313 0.806 0.331Q0.801 0.331 0.801 0.335Q0.805 0.336 0.805 0.338V0.342Q0.797 0.350 0.797 0.351Q0.799 0.351 0.799 0.353Q0.797 0.353 0.787 0.361Q0.787 0.358 0.781 0.355L0.779 0.359Q0.783 0.360 0.783 0.362L0.774 0.364Q0.778 0.350 0.783 0.349H0.787L0.792 0.353L0.794 0.349Q0.792 0.349 0.792 0.348Q0.794 0.348 0.797 0.342V0.338Q0.797 0.335 0.794 0.335H0.790Q0.784 0.342 0.770 0.348Q0.770 0.357 0.765 0.357V0.445L0.761 0.443L0.759 0.446Q0.771 0.458 0.772 0.458L0.774 0.454Q0.774 0.450 0.768 0.450V0.448H0.774V0.450Q0.776 0.450 0.776 0.448Q0.787 0.449 0.794 0.456Q0.794 0.454 0.796 0.454Q0.796 0.456 0.797 0.459Q0.794 0.459 0.790 0.467L0.794 0.469Q0.794 0.466 0.799 0.463V0.465L0.797 0.474L0.801 0.489Q0.794 0.503 0.776 0.503Q0.774 0.489 0.761 0.489L0.757 0.491Q0.757 0.489 0.755 0.489Q0.755 0.491 0.753 0.491L0.755 0.494V0.498H0.753L0.744 0.493Q0.741 0.493 0.741 0.496V0.500L0.742 0.503L0.739 0.505H0.737Q0.733 0.505 0.733 0.498H0.717Q0.717 0.488 0.733 0.483V0.476H0.735L0.741 0.480Q0.741 0.478 0.742 0.478Q0.743 0.482 0.746 0.482L0.744 0.485L0.746 0.489Q0.761 0.484 0.761 0.480Q0.759 0.476 0.759 0.474L0.761 0.470Q0.756 0.456 0.752 0.456H0.750Q0.746 0.457 0.746 0.459L0.742 0.458H0.733V0.441H0.735L0.742 0.445Q0.742 0.443 0.750 0.434L0.746 0.426Q0.752 0.426 0.752 0.423Q0.746 0.410 0.737 0.410Q0.735 0.413 0.735 0.417H0.733V0.346H0.731Q0.715 0.351 0.699 0.386Q0.673 0.401 0.673 0.403V0.406H0.679Q0.693 0.406 0.695 0.414V0.417L0.691 0.415H0.675Q0.668 0.415 0.645 0.428Q0.642 0.430 0.640 0.430V0.432Q0.645 0.451 0.645 0.459L0.644 0.472Q0.655 0.472 0.655 0.459V0.456H0.657Q0.657 0.464 0.658 0.467L0.657 0.474Q0.658 0.487 0.658 0.494V0.496H0.657Q0.651 0.484 0.651 0.480Q0.629 0.482 0.629 0.489L0.620 0.494V0.493L0.622 0.480L0.625 0.482Q0.625 0.477 0.642 0.472V0.458Q0.641 0.434 0.634 0.434Q0.631 0.435 0.629 0.435L0.627 0.432Q0.633 0.432 0.633 0.428L0.629 0.421L0.614 0.430Q0.611 0.428 0.609 0.428Q0.607 0.432 0.607 0.434H0.605V0.428Q0.607 0.428 0.607 0.426L0.603 0.425L0.600 0.426Q0.600 0.421 0.596 0.421Q0.589 0.432 0.587 0.432V0.430L0.593 0.421Q0.593 0.417 0.589 0.417Q0.589 0.420 0.582 0.425V0.423L0.583 0.419L0.580 0.417Q0.576 0.424 0.569 0.426V0.425L0.572 0.417Q0.569 0.415 0.567 0.415L0.574 0.405L0.571 0.403L0.563 0.408H0.561L0.571 0.397L0.567 0.396L0.561 0.399H0.560L0.565 0.392L0.561 0.390Q0.555 0.394 0.552 0.394L0.558 0.386Q0.554 0.385 0.550 0.385V0.383Q0.558 0.383 0.558 0.377L0.554 0.375Q0.550 0.377 0.548 0.377H0.547V0.375Q0.556 0.374 0.556 0.370Q0.553 0.368 0.548 0.368Q0.549 0.364 0.552 0.364H0.561Q0.561 0.370 0.569 0.373L0.572 0.372H0.574Q0.574 0.385 0.585 0.385Q0.585 0.383 0.587 0.383Q0.587 0.385 0.589 0.385V0.383Q0.587 0.383 0.587 0.381L0.600 0.379H0.602Q0.607 0.379 0.612 0.383L0.629 0.361Q0.620 0.355 0.611 0.355V0.353H0.622Q0.627 0.353 0.634 0.357L0.638 0.349Q0.627 0.346 0.620 0.346Q0.608 0.346 0.607 0.353H0.603V0.351Q0.612 0.335 0.631 0.335H0.633Q0.638 0.335 0.647 0.340Q0.657 0.329 0.657 0.328Q0.644 0.309 0.627 0.309V0.308Q0.629 0.301 0.645 0.293Q0.661 0.296 0.673 0.308L0.677 0.306Q0.650 0.247 0.605 0.247Q0.605 0.245 0.607 0.245Q0.605 0.242 0.605 0.240V0.238H0.607Q0.608 0.245 0.612 0.245L0.614 0.241L0.612 0.238H0.616Q0.677 0.263 0.677 0.297H0.679Q0.682 0.297 0.684 0.277Q0.684 0.240 0.664 0.240Q0.653 0.240 0.653 0.234L0.662 0.232H0.666Q0.672 0.232 0.682 0.240Q0.683 0.240 0.691 0.231L0.695 0.232L0.697 0.229Q0.695 0.229 0.695 0.227H0.699L0.702 0.229Q0.702 0.235 0.688 0.238L0.686 0.247V0.254Q0.686 0.266 0.688 0.291Q0.694 0.285 0.711 0.260Q0.712 0.264 0.715 0.264L0.719 0.262V0.264L0.717 0.267L0.720 0.269L0.735 0.256H0.737L0.731 0.265L0.735 0.267Q0.755 0.251 0.755 0.249Q0.752 0.249 0.746 0.232V0.229H0.752Q0.752 0.234 0.755 0.234H0.757Q0.761 0.234 0.761 0.231V0.229L0.755 0.221H0.757L0.753 0.214Q0.755 0.211 0.755 0.209ZM0.560 0.218Q0.566 0.221 0.569 0.229L0.558 0.227Q0.560 0.224 0.560 0.218ZM0.607 0.218H0.609V0.221H0.607ZM0.666 0.218 0.668 0.221 0.662 0.225H0.660Q0.663 0.218 0.666 0.218ZM0.750 0.220V0.223H0.746Q0.747 0.220 0.750 0.220ZM0.781 0.220H0.787Q0.788 0.220 0.796 0.229Q0.796 0.227 0.797 0.227L0.796 0.223V0.221Q0.819 0.231 0.819 0.236H0.803Q0.794 0.229 0.776 0.229L0.783 0.221Q0.781 0.221 0.781 0.220ZM0.655 0.221Q0.658 0.222 0.658 0.225Q0.658 0.228 0.651 0.232V0.231Q0.655 0.225 0.655 0.221ZM0.600 0.225H0.602V0.229H0.600ZM0.186 0.231H0.190V0.232H0.186ZM0.706 0.232H0.708V0.236H0.706ZM0.530 0.236 0.528 0.240 0.532 0.241 0.534 0.238ZM0.217 0.241Q0.224 0.243 0.224 0.251Q0.226 0.251 0.234 0.241Q0.243 0.243 0.243 0.253V0.254Q0.243 0.259 0.234 0.260V0.258L0.224 0.265Q0.224 0.263 0.217 0.258V0.256L0.214 0.258L0.208 0.249V0.245H0.210Q0.213 0.247 0.215 0.247Q0.217 0.243 0.217 0.241ZM0.825 0.243Q0.825 0.246 0.828 0.251Q0.823 0.254 0.817 0.254L0.816 0.251Q0.816 0.248 0.825 0.243ZM0.565 0.254H0.567V0.258H0.565ZM0.832 0.258V0.262Q0.832 0.265 0.825 0.269L0.823 0.262Q0.829 0.258 0.832 0.258ZM0.792 0.262H0.796V0.265Q0.792 0.265 0.792 0.262ZM0.741 0.267 0.739 0.271 0.742 0.273 0.744 0.269ZM0.788 0.265V0.269H0.783V0.267Q0.785 0.267 0.788 0.265ZM0.774 0.267H0.777Q0.777 0.274 0.781 0.278Q0.777 0.279 0.777 0.282L0.779 0.291Q0.776 0.291 0.776 0.297Q0.777 0.300 0.777 0.302Q0.775 0.302 0.772 0.308L0.776 0.313H0.774Q0.764 0.313 0.761 0.306Q0.764 0.306 0.768 0.299Q0.765 0.299 0.765 0.295L0.770 0.288Q0.770 0.284 0.766 0.284Q0.768 0.280 0.768 0.278Q0.766 0.275 0.766 0.273ZM0.765 0.271V0.275H0.761Q0.761 0.271 0.765 0.271ZM0.830 0.271 0.834 0.277V0.288H0.832Q0.832 0.282 0.828 0.282Q0.828 0.284 0.826 0.284L0.828 0.288V0.289L0.823 0.286Q0.827 0.271 0.830 0.271ZM0.704 0.313V0.322L0.702 0.344H0.704Q0.715 0.335 0.722 0.335H0.733V0.278Q0.727 0.282 0.704 0.313ZM0.558 0.284 0.556 0.288 0.560 0.289 0.561 0.286ZM0.794 0.289H0.796Q0.796 0.295 0.797 0.295Q0.794 0.301 0.794 0.304Q0.796 0.307 0.796 0.309L0.790 0.313H0.785V0.309Q0.792 0.309 0.792 0.302Q0.790 0.299 0.790 0.297Q0.794 0.297 0.794 0.289ZM0.821 0.289 0.826 0.293Q0.827 0.289 0.830 0.289Q0.830 0.291 0.832 0.291Q0.832 0.289 0.834 0.289L0.828 0.309Q0.824 0.300 0.816 0.300H0.814Q0.819 0.289 0.821 0.289ZM0.759 0.295H0.763V0.297H0.759ZM0.753 0.297H0.759V0.299H0.753ZM0.185 0.299V0.331Q0.168 0.331 0.168 0.315V0.313Q0.168 0.299 0.185 0.299ZM0.649 0.304V0.308Q0.660 0.322 0.662 0.322H0.664Q0.664 0.319 0.668 0.315Q0.657 0.304 0.649 0.304ZM0.755 0.306H0.759V0.308H0.755ZM0.752 0.320Q0.752 0.324 0.755 0.324L0.759 0.318L0.755 0.317Q0.752 0.317 0.752 0.320ZM0.746 0.318 0.744 0.322 0.748 0.324 0.750 0.320ZM0.657 0.379V0.373Q0.650 0.373 0.644 0.403Q0.642 0.403 0.638 0.410Q0.644 0.416 0.644 0.419Q0.654 0.419 0.664 0.406H0.655Q0.686 0.371 0.715 0.349V0.348Q0.698 0.350 0.679 0.368V0.364Q0.684 0.356 0.690 0.331L0.664 0.362Q0.664 0.375 0.657 0.379ZM0.265 0.333 0.283 0.357V0.359H0.278Q0.259 0.359 0.259 0.342Q0.262 0.333 0.265 0.333ZM0.759 0.335 0.757 0.338 0.761 0.340 0.763 0.337ZM0.185 0.337V0.372Q0.170 0.369 0.170 0.353Q0.170 0.344 0.185 0.337ZM0.448 0.340H0.452Q0.454 0.340 0.459 0.348Q0.455 0.348 0.455 0.353H0.452L0.453 0.349V0.348L0.444 0.349V0.344Q0.445 0.340 0.448 0.340ZM0.515 0.348V0.357H0.510V0.353Q0.510 0.350 0.515 0.348ZM0.755 0.355 0.759 0.357H0.761Q0.765 0.357 0.765 0.353L0.761 0.351H0.759Q0.755 0.352 0.755 0.355ZM0.541 0.351H0.545V0.353H0.541ZM0.591 0.353 0.594 0.355 0.593 0.359V0.361H0.596Q0.596 0.364 0.593 0.364H0.591Q0.587 0.364 0.587 0.361V0.357Q0.587 0.353 0.591 0.353ZM0.563 0.357H0.565Q0.569 0.358 0.569 0.361V0.362H0.567Q0.563 0.362 0.563 0.359ZM0.505 0.359Q0.505 0.361 0.506 0.361Q0.506 0.359 0.508 0.359Q0.513 0.377 0.519 0.377L0.517 0.381Q0.517 0.383 0.524 0.392Q0.492 0.392 0.483 0.425Q0.479 0.425 0.477 0.410Q0.476 0.410 0.476 0.408V0.406L0.479 0.408Q0.479 0.405 0.496 0.392L0.485 0.386Q0.485 0.388 0.483 0.388Q0.483 0.379 0.477 0.377Q0.479 0.374 0.479 0.368L0.483 0.370H0.488Q0.492 0.370 0.494 0.361L0.497 0.362H0.499ZM0.537 0.361H0.545V0.362H0.537ZM0.528 0.362H0.536V0.364H0.528ZM0.742 0.364 0.741 0.368Q0.741 0.372 0.744 0.372H0.746Q0.750 0.372 0.750 0.368ZM0.523 0.364H0.526V0.366H0.523ZM0.576 0.364H0.580Q0.582 0.364 0.585 0.370L0.576 0.372H0.574Q0.576 0.368 0.576 0.364ZM0.770 0.364H0.774V0.366H0.770ZM0.543 0.368H0.548V0.370H0.543ZM0.537 0.370H0.543V0.372H0.537ZM0.532 0.372H0.536V0.373H0.532ZM0.526 0.373H0.530V0.375H0.526ZM0.543 0.377H0.547V0.379H0.543ZM0.539 0.379H0.543V0.381H0.539ZM0.598 0.381V0.386Q0.601 0.386 0.607 0.390L0.609 0.386ZM0.476 0.381Q0.476 0.383 0.477 0.386L0.468 0.388V0.383Q0.472 0.383 0.476 0.381ZM0.534 0.381H0.537V0.383H0.534ZM0.746 0.385 0.744 0.388 0.752 0.392Q0.752 0.390 0.753 0.390Q0.753 0.396 0.757 0.396L0.759 0.392Q0.759 0.388 0.755 0.388Q0.755 0.390 0.753 0.390Q0.753 0.387 0.746 0.385ZM0.168 0.385H0.170Q0.184 0.386 0.185 0.392V0.439Q0.180 0.448 0.170 0.456H0.164L0.151 0.454V0.426Q0.166 0.423 0.166 0.419Q0.153 0.411 0.153 0.401Q0.153 0.385 0.168 0.385ZM0.585 0.388V0.394Q0.590 0.394 0.594 0.397H0.596V0.396Q0.593 0.388 0.591 0.388ZM0.541 0.388H0.543V0.390Q0.540 0.390 0.534 0.394L0.532 0.390ZM0.638 0.394 0.633 0.401V0.403Q0.636 0.402 0.640 0.394ZM0.744 0.394 0.742 0.397 0.750 0.401 0.752 0.397ZM0.440 0.394H0.450Q0.453 0.394 0.453 0.397Q0.452 0.397 0.448 0.399Q0.448 0.396 0.440 0.396ZM0.483 0.394Q0.483 0.401 0.453 0.410Q0.453 0.406 0.452 0.403Q0.479 0.394 0.483 0.394ZM0.548 0.394H0.552V0.396H0.548ZM0.543 0.397H0.547V0.399H0.543ZM0.558 0.399H0.560Q0.560 0.403 0.556 0.403H0.554Q0.555 0.399 0.558 0.399ZM0.742 0.403 0.741 0.406 0.744 0.408 0.746 0.405ZM0.627 0.406 0.625 0.410H0.627L0.629 0.406ZM0.327 0.408Q0.327 0.410 0.360 0.446Q0.352 0.478 0.345 0.478Q0.345 0.475 0.325 0.450Q0.333 0.447 0.334 0.443Q0.314 0.438 0.314 0.423V0.419Q0.319 0.408 0.327 0.408ZM0.523 0.412Q0.525 0.412 0.536 0.426H0.539Q0.539 0.430 0.536 0.430Q0.528 0.425 0.515 0.421V0.417Q0.523 0.417 0.523 0.412ZM0.631 0.419Q0.634 0.423 0.634 0.426H0.638L0.644 0.423Q0.640 0.414 0.636 0.414Q0.634 0.414 0.631 0.419ZM0.151 0.414Q0.154 0.414 0.157 0.419Q0.155 0.419 0.151 0.421ZM0.472 0.414H0.474V0.417Q0.474 0.420 0.457 0.428Q0.453 0.428 0.453 0.425Q0.455 0.414 0.472 0.414ZM0.404 0.421H0.417Q0.431 0.422 0.431 0.425L0.435 0.423H0.440V0.426H0.444L0.448 0.425L0.450 0.434V0.435H0.448Q0.428 0.423 0.404 0.423ZM0.477 0.426 0.481 0.432 0.461 0.445Q0.457 0.445 0.457 0.441V0.437Q0.457 0.434 0.477 0.426ZM0.580 0.426V0.428Q0.578 0.432 0.578 0.435Q0.584 0.437 0.585 0.443Q0.583 0.443 0.583 0.445L0.593 0.450H0.594L0.600 0.446H0.602Q0.605 0.447 0.605 0.450Q0.603 0.454 0.603 0.456Q0.605 0.459 0.605 0.461L0.600 0.458L0.594 0.465Q0.594 0.468 0.600 0.470Q0.600 0.469 0.602 0.469V0.470L0.600 0.474Q0.602 0.476 0.602 0.483Q0.600 0.483 0.596 0.485Q0.596 0.478 0.591 0.478H0.589L0.585 0.480Q0.585 0.476 0.582 0.476Q0.582 0.478 0.565 0.493Q0.569 0.480 0.569 0.470Q0.558 0.461 0.554 0.461Q0.554 0.463 0.552 0.463L0.548 0.458Q0.556 0.458 0.561 0.452Q0.562 0.456 0.565 0.456Q0.572 0.453 0.572 0.450V0.445L0.569 0.439Q0.577 0.426 0.580 0.426ZM0.598 0.426H0.600V0.430H0.598ZM0.649 0.428H0.651L0.653 0.435V0.437H0.651L0.649 0.430ZM0.258 0.430H0.259Q0.259 0.437 0.267 0.437V0.439Q0.261 0.439 0.261 0.445V0.446Q0.258 0.445 0.252 0.445L0.254 0.441V0.437H0.250V0.435Q0.258 0.435 0.258 0.430ZM0.526 0.430Q0.526 0.433 0.510 0.445H0.508V0.439ZM0.596 0.430H0.598V0.434H0.596ZM0.585 0.432H0.587V0.435H0.585ZM0.594 0.434H0.596V0.437H0.594ZM0.603 0.434H0.605V0.437H0.603ZM0.360 0.437H0.366V0.439Q0.366 0.442 0.360 0.445ZM0.373 0.437H0.375Q0.379 0.449 0.379 0.450H0.366V0.448Q0.373 0.441 0.373 0.437ZM0.452 0.437 0.453 0.450Q0.453 0.460 0.442 0.465H0.437Q0.442 0.456 0.450 0.456V0.450Q0.444 0.450 0.444 0.446Q0.450 0.446 0.450 0.443V0.441H0.444V0.446L0.431 0.445H0.422V0.441H0.435L0.439 0.443Q0.439 0.439 0.452 0.437ZM0.620 0.437H0.622V0.441H0.620ZM0.195 0.439H0.201Q0.198 0.446 0.190 0.448L0.188 0.445ZM0.532 0.439H0.534Q0.534 0.442 0.519 0.454L0.517 0.450ZM0.653 0.439H0.655V0.443H0.653ZM0.400 0.441H0.411V0.443H0.400ZM0.483 0.441V0.450L0.461 0.465L0.457 0.459Q0.457 0.451 0.483 0.441ZM0.611 0.441H0.612V0.446H0.609Q0.611 0.443 0.611 0.441ZM0.605 0.446H0.609V0.448H0.605ZM0.185 0.450V0.469Q0.185 0.470 0.186 0.470L0.185 0.474Q0.185 0.478 0.186 0.482Q0.185 0.484 0.185 0.489V0.494Q0.196 0.498 0.199 0.498L0.197 0.502H0.199Q0.199 0.500 0.201 0.500Q0.201 0.504 0.208 0.505Q0.215 0.523 0.215 0.527H0.221Q0.224 0.527 0.224 0.522H0.228Q0.228 0.524 0.235 0.534H0.228V0.536H0.224Q0.224 0.535 0.221 0.529H0.219Q0.215 0.530 0.215 0.532V0.534L0.217 0.538Q0.214 0.538 0.214 0.547Q0.217 0.549 0.221 0.549Q0.221 0.547 0.223 0.547Q0.223 0.556 0.228 0.556L0.235 0.553L0.241 0.566L0.237 0.564H0.232Q0.230 0.560 0.230 0.558H0.223V0.569L0.224 0.573H0.223Q0.221 0.573 0.221 0.571Q0.210 0.580 0.208 0.580V0.582L0.210 0.586Q0.208 0.586 0.208 0.588Q0.210 0.588 0.210 0.590Q0.190 0.593 0.190 0.600Q0.187 0.602 0.185 0.602V0.613H0.186L0.188 0.606H0.194Q0.195 0.613 0.199 0.613Q0.201 0.613 0.210 0.602Q0.210 0.599 0.204 0.599V0.595H0.206L0.212 0.599H0.214V0.590Q0.216 0.591 0.223 0.591Q0.223 0.588 0.228 0.588V0.584L0.224 0.578V0.573Q0.233 0.573 0.235 0.571Q0.235 0.578 0.243 0.580Q0.243 0.586 0.247 0.586L0.248 0.582V0.577H0.243Q0.244 0.573 0.247 0.573H0.252V0.566H0.256L0.254 0.569Q0.265 0.574 0.269 0.582L0.267 0.586Q0.269 0.589 0.269 0.591Q0.262 0.597 0.256 0.597V0.613Q0.248 0.621 0.248 0.622Q0.256 0.630 0.256 0.631Q0.254 0.635 0.254 0.639Q0.258 0.639 0.258 0.642V0.644H0.250Q0.250 0.639 0.239 0.631L0.235 0.633V0.631Q0.239 0.625 0.239 0.617Q0.232 0.615 0.232 0.608L0.239 0.613Q0.242 0.613 0.250 0.602Q0.245 0.593 0.235 0.593Q0.228 0.601 0.228 0.602L0.230 0.606Q0.222 0.607 0.210 0.620H0.208V0.622Q0.208 0.625 0.219 0.633L0.224 0.629Q0.224 0.633 0.235 0.633Q0.235 0.636 0.230 0.639V0.635H0.228Q0.226 0.635 0.223 0.640V0.642H0.224L0.228 0.640Q0.228 0.646 0.239 0.653L0.250 0.644Q0.250 0.647 0.254 0.651Q0.250 0.652 0.250 0.655L0.252 0.666Q0.251 0.675 0.247 0.675V0.679L0.248 0.683L0.241 0.688Q0.235 0.696 0.217 0.696H0.215L0.210 0.692L0.206 0.694L0.204 0.690L0.210 0.683Q0.210 0.680 0.199 0.672Q0.196 0.674 0.194 0.674L0.197 0.668V0.664H0.194L0.190 0.666Q0.190 0.657 0.185 0.657V0.723Q0.185 0.725 0.186 0.725L0.185 0.728V0.745L0.188 0.743Q0.190 0.743 0.190 0.745L0.203 0.737Q0.203 0.741 0.204 0.741Q0.208 0.739 0.210 0.739V0.741L0.214 0.739H0.247Q0.245 0.743 0.245 0.747H0.239Q0.215 0.747 0.203 0.761H0.204L0.203 0.765V0.767Q0.208 0.767 0.208 0.772H0.224L0.234 0.771V0.765H0.219V0.763H0.223V0.761L0.221 0.758Q0.227 0.754 0.247 0.752L0.248 0.756Q0.243 0.756 0.235 0.758V0.767Q0.235 0.772 0.243 0.772V0.776Q0.237 0.781 0.237 0.783H0.226Q0.222 0.783 0.221 0.798Q0.196 0.789 0.192 0.789Q0.192 0.791 0.190 0.791Q0.190 0.788 0.185 0.785V0.793Q0.185 0.794 0.186 0.794L0.185 0.798V0.809H0.175Q0.174 0.809 0.174 0.811L0.170 0.809H0.151Q0.151 0.805 0.148 0.805Q0.151 0.799 0.151 0.794L0.142 0.798V0.794H0.140L0.131 0.796Q0.131 0.793 0.126 0.793L0.127 0.789H0.124V0.787H0.129Q0.129 0.791 0.131 0.791Q0.139 0.787 0.140 0.783V0.782Q0.140 0.778 0.137 0.778H0.135Q0.129 0.778 0.120 0.783V0.780L0.111 0.782H0.104V0.778L0.109 0.771L0.107 0.767Q0.115 0.767 0.118 0.758Q0.120 0.758 0.120 0.759Q0.126 0.758 0.126 0.756Q0.124 0.752 0.124 0.750Q0.130 0.754 0.133 0.754L0.151 0.752V0.725Q0.151 0.723 0.150 0.723L0.151 0.719V0.626Q0.151 0.624 0.150 0.624L0.151 0.620V0.613H0.146V0.611H0.151V0.586Q0.147 0.586 0.144 0.578Q0.141 0.575 0.139 0.575V0.573Q0.141 0.573 0.144 0.569H0.150Q0.151 0.566 0.151 0.562V0.553Q0.148 0.548 0.148 0.545L0.144 0.547H0.142Q0.142 0.545 0.140 0.542Q0.142 0.542 0.142 0.540Q0.139 0.540 0.139 0.536V0.534Q0.142 0.531 0.142 0.523Q0.140 0.523 0.139 0.518Q0.150 0.518 0.150 0.512Q0.148 0.512 0.148 0.511Q0.151 0.511 0.151 0.507V0.496H0.150L0.146 0.498Q0.146 0.496 0.144 0.496Q0.147 0.486 0.151 0.480V0.459L0.161 0.461H0.166Q0.173 0.461 0.185 0.450ZM0.428 0.454H0.431V0.456L0.422 0.458H0.420V0.456Q0.421 0.456 0.428 0.454ZM0.369 0.456H0.380L0.375 0.467L0.386 0.476Q0.389 0.474 0.393 0.474Q0.389 0.492 0.389 0.494V0.505Q0.377 0.511 0.373 0.511L0.356 0.489H0.360L0.364 0.491L0.366 0.487Q0.358 0.476 0.358 0.470Q0.358 0.463 0.369 0.456ZM0.488 0.458 0.492 0.463Q0.489 0.463 0.470 0.482L0.472 0.485Q0.484 0.479 0.496 0.467L0.499 0.469L0.508 0.467L0.481 0.496L0.485 0.498Q0.506 0.481 0.510 0.474Q0.513 0.476 0.519 0.476L0.494 0.509L0.497 0.511L0.501 0.509V0.511Q0.497 0.538 0.492 0.538Q0.489 0.540 0.483 0.540H0.481Q0.492 0.527 0.492 0.525H0.490Q0.484 0.529 0.481 0.529Q0.466 0.518 0.466 0.511Q0.466 0.508 0.472 0.505H0.477Q0.483 0.505 0.483 0.514H0.486Q0.486 0.509 0.492 0.509V0.503Q0.486 0.502 0.470 0.502V0.500Q0.479 0.498 0.479 0.494Q0.479 0.491 0.474 0.491Q0.466 0.493 0.437 0.518H0.435V0.516L0.437 0.512Q0.431 0.512 0.420 0.498Q0.428 0.478 0.431 0.478H0.437Q0.440 0.478 0.442 0.483V0.489L0.435 0.496L0.446 0.502Q0.446 0.490 0.466 0.485V0.480Q0.457 0.480 0.457 0.470Q0.459 0.470 0.459 0.469L0.463 0.470Q0.485 0.456 0.488 0.456ZM0.508 0.458H0.510V0.467H0.508ZM0.534 0.458Q0.523 0.471 0.523 0.474Q0.520 0.472 0.514 0.472Q0.528 0.458 0.534 0.458ZM0.409 0.459H0.413V0.461H0.409ZM0.720 0.459H0.724V0.461H0.720ZM0.545 0.461 0.547 0.465 0.543 0.467 0.541 0.463ZM0.741 0.463H0.744Q0.744 0.467 0.755 0.478V0.480Q0.753 0.480 0.750 0.482Q0.750 0.477 0.741 0.465ZM0.543 0.467V0.469Q0.515 0.510 0.508 0.516Q0.508 0.507 0.503 0.507V0.505Q0.529 0.476 0.532 0.476Q0.535 0.476 0.543 0.467ZM0.556 0.469H0.558Q0.523 0.527 0.523 0.531Q0.526 0.531 0.526 0.534Q0.523 0.534 0.519 0.536Q0.512 0.523 0.512 0.520Q0.513 0.520 0.556 0.469ZM0.808 0.469H0.810Q0.825 0.469 0.832 0.480Q0.832 0.482 0.826 0.485H0.825Q0.825 0.475 0.808 0.474ZM0.765 0.472V0.485Q0.768 0.485 0.768 0.482V0.476Q0.768 0.472 0.765 0.472ZM0.256 0.472H0.258Q0.262 0.476 0.265 0.476Q0.263 0.480 0.263 0.482L0.250 0.480Q0.256 0.475 0.256 0.472ZM0.713 0.472H0.715L0.724 0.474Q0.722 0.480 0.713 0.480L0.709 0.474ZM0.400 0.476Q0.402 0.476 0.402 0.478L0.406 0.476H0.408Q0.415 0.496 0.415 0.498Q0.412 0.498 0.408 0.505Q0.409 0.505 0.422 0.522Q0.405 0.529 0.402 0.529L0.388 0.512V0.511H0.397L0.400 0.509Q0.395 0.498 0.395 0.491L0.399 0.493L0.397 0.483V0.480Q0.397 0.476 0.400 0.476ZM0.355 0.478Q0.355 0.480 0.356 0.483H0.351V0.482Q0.352 0.478 0.355 0.478ZM0.614 0.480H0.616V0.483H0.614ZM0.560 0.482H0.561V0.487Q0.554 0.504 0.554 0.505L0.550 0.503H0.548Q0.548 0.505 0.547 0.509Q0.550 0.509 0.550 0.512Q0.547 0.512 0.547 0.514Q0.543 0.512 0.541 0.512V0.511Q0.560 0.484 0.560 0.482ZM0.204 0.483H0.212V0.487Q0.209 0.485 0.204 0.485ZM0.589 0.483H0.591V0.487H0.589ZM0.697 0.485Q0.702 0.485 0.704 0.502L0.700 0.503Q0.700 0.499 0.697 0.485ZM0.834 0.485 0.836 0.489Q0.834 0.499 0.834 0.505H0.836Q0.852 0.498 0.861 0.498H0.865Q0.863 0.504 0.821 0.520Q0.821 0.529 0.766 0.532Q0.766 0.531 0.765 0.531V0.560H0.763Q0.763 0.552 0.748 0.542Q0.744 0.543 0.742 0.543L0.741 0.540V0.536Q0.741 0.533 0.750 0.531L0.753 0.532Q0.758 0.532 0.766 0.527H0.772Q0.810 0.527 0.828 0.502L0.826 0.498V0.493Q0.826 0.490 0.834 0.485ZM0.686 0.487H0.688Q0.695 0.512 0.695 0.516L0.691 0.518H0.690V0.516Q0.690 0.512 0.686 0.491ZM0.256 0.491H0.258Q0.258 0.496 0.261 0.496Q0.265 0.494 0.267 0.494L0.265 0.498V0.500L0.269 0.505H0.267Q0.263 0.503 0.261 0.503Q0.259 0.506 0.259 0.511H0.258Q0.258 0.502 0.254 0.502H0.250V0.500Q0.256 0.500 0.256 0.494ZM0.636 0.491H0.638V0.500H0.636ZM0.574 0.493V0.494Q0.574 0.498 0.571 0.498H0.569Q0.569 0.495 0.574 0.493ZM0.598 0.493H0.600V0.498H0.598ZM0.649 0.493H0.651L0.653 0.514V0.520Q0.648 0.520 0.647 0.512Q0.649 0.496 0.649 0.493ZM0.761 0.494H0.765Q0.767 0.494 0.770 0.502L0.766 0.503H0.765Q0.765 0.500 0.761 0.496ZM0.124 0.496H0.127V0.498H0.124ZM0.140 0.496H0.144V0.500Q0.140 0.500 0.140 0.496ZM0.585 0.496H0.587V0.498Q0.585 0.509 0.582 0.509Q0.582 0.507 0.580 0.503Q0.583 0.496 0.585 0.496ZM0.135 0.498H0.139V0.500H0.135ZM0.224 0.498Q0.228 0.498 0.228 0.503L0.232 0.502H0.234L0.230 0.507V0.509L0.232 0.512H0.224Q0.224 0.516 0.221 0.516V0.514L0.223 0.511Q0.223 0.505 0.217 0.505V0.502L0.221 0.503Q0.224 0.503 0.224 0.498ZM0.867 0.498H0.869Q0.902 0.498 0.920 0.545Q0.916 0.546 0.916 0.549L0.920 0.554Q0.918 0.554 0.914 0.556Q0.914 0.521 0.873 0.505H0.865L0.869 0.500Q0.867 0.500 0.867 0.498ZM0.120 0.500H0.124V0.502H0.120ZM0.565 0.500Q0.571 0.502 0.571 0.503Q0.564 0.520 0.561 0.520Q0.558 0.518 0.556 0.518V0.514Q0.563 0.514 0.563 0.502Q0.565 0.502 0.565 0.500ZM0.598 0.500 0.600 0.503Q0.600 0.507 0.596 0.507H0.594V0.503Q0.595 0.500 0.598 0.500ZM0.675 0.500Q0.679 0.500 0.679 0.503V0.505Q0.679 0.509 0.675 0.509ZM0.748 0.502Q0.759 0.504 0.759 0.507Q0.759 0.510 0.753 0.512H0.752ZM0.117 0.503H0.120V0.505H0.117ZM0.127 0.503H0.131V0.505H0.127ZM0.622 0.503H0.625V0.505Q0.625 0.509 0.622 0.509ZM0.607 0.505H0.612V0.511Q0.609 0.509 0.607 0.509ZM0.634 0.505H0.638V0.511H0.634ZM0.124 0.507H0.127Q0.127 0.511 0.124 0.511ZM0.576 0.509Q0.579 0.509 0.582 0.514Q0.578 0.526 0.578 0.531H0.576Q0.575 0.518 0.572 0.518Q0.576 0.512 0.576 0.509ZM0.620 0.509H0.622Q0.622 0.513 0.623 0.516H0.620ZM0.662 0.509H0.666V0.511Q0.666 0.514 0.662 0.514ZM0.591 0.511H0.593Q0.593 0.518 0.596 0.518V0.520Q0.589 0.525 0.589 0.532H0.593V0.534Q0.586 0.534 0.583 0.536V0.534Q0.591 0.514 0.591 0.511ZM0.739 0.511H0.744Q0.744 0.513 0.752 0.525L0.742 0.527H0.741Q0.741 0.525 0.735 0.512ZM0.541 0.512V0.520Q0.545 0.520 0.545 0.523V0.525Q0.541 0.522 0.534 0.522Q0.539 0.513 0.541 0.512ZM0.763 0.512H0.765V0.523Q0.762 0.523 0.759 0.518V0.516Q0.760 0.512 0.763 0.512ZM0.605 0.514H0.611V0.518H0.605ZM0.680 0.514H0.682V0.522Q0.680 0.522 0.677 0.523V0.518Q0.677 0.514 0.680 0.514ZM0.118 0.516H0.120V0.520H0.118ZM0.627 0.516H0.629Q0.630 0.523 0.636 0.523V0.522L0.634 0.518Q0.636 0.518 0.636 0.516L0.640 0.518L0.644 0.516V0.523L0.647 0.522V0.525Q0.644 0.530 0.644 0.532Q0.642 0.532 0.642 0.531L0.631 0.534Q0.631 0.532 0.629 0.532Q0.629 0.534 0.627 0.534L0.625 0.525ZM0.709 0.518Q0.712 0.518 0.715 0.523H0.709Q0.706 0.523 0.706 0.520ZM0.117 0.520H0.118V0.525H0.117ZM0.232 0.522H0.235V0.525H0.232ZM0.388 0.522 0.404 0.536Q0.421 0.527 0.424 0.527Q0.415 0.543 0.415 0.549Q0.424 0.553 0.431 0.564Q0.411 0.564 0.395 0.536Q0.393 0.536 0.388 0.527ZM0.505 0.522H0.506Q0.512 0.542 0.519 0.542Q0.499 0.569 0.496 0.569V0.567L0.497 0.558Q0.483 0.547 0.477 0.547V0.545Q0.501 0.545 0.501 0.538ZM0.722 0.522H0.724L0.733 0.523V0.527H0.726Q0.722 0.527 0.722 0.523ZM0.247 0.523H0.252Q0.250 0.527 0.250 0.529H0.247ZM0.618 0.523H0.620L0.623 0.540V0.542Q0.623 0.557 0.620 0.566Q0.626 0.569 0.631 0.569L0.629 0.573V0.582Q0.623 0.582 0.623 0.584Q0.616 0.581 0.616 0.578V0.532ZM0.115 0.525H0.117V0.529H0.115ZM0.530 0.525H0.532V0.529H0.530ZM0.552 0.525Q0.560 0.528 0.560 0.531H0.558L0.548 0.529Q0.549 0.525 0.552 0.525ZM0.263 0.527H0.265Q0.265 0.532 0.271 0.532H0.274V0.534Q0.267 0.535 0.267 0.538Q0.269 0.542 0.269 0.543L0.265 0.542H0.263L0.259 0.543Q0.259 0.534 0.252 0.534V0.532Q0.263 0.532 0.263 0.527ZM0.431 0.527Q0.440 0.529 0.440 0.534H0.442L0.452 0.527Q0.461 0.530 0.461 0.532V0.534Q0.461 0.547 0.446 0.547V0.549Q0.450 0.558 0.463 0.564Q0.464 0.547 0.468 0.547Q0.489 0.559 0.490 0.560Q0.490 0.589 0.459 0.615H0.457Q0.457 0.610 0.442 0.599Q0.442 0.593 0.424 0.573V0.571Q0.421 0.571 0.417 0.578V0.580Q0.418 0.580 0.418 0.578Q0.426 0.581 0.426 0.584V0.591Q0.426 0.593 0.418 0.597Q0.414 0.596 0.402 0.580Q0.409 0.568 0.409 0.566Q0.430 0.569 0.440 0.569L0.442 0.566Q0.420 0.548 0.420 0.545ZM0.569 0.527H0.571L0.572 0.543H0.569V0.540L0.565 0.542L0.563 0.532V0.531Q0.569 0.531 0.569 0.527ZM0.733 0.527H0.735Q0.735 0.531 0.737 0.531L0.735 0.534V0.542Q0.735 0.544 0.746 0.553Q0.747 0.549 0.750 0.549L0.765 0.571V0.809H0.733V0.692Q0.733 0.690 0.737 0.677Q0.733 0.671 0.733 0.666ZM0.607 0.529V0.531Q0.605 0.533 0.605 0.543H0.603Q0.603 0.532 0.602 0.532H0.600V0.531Q0.601 0.531 0.607 0.529ZM0.647 0.532H0.649V0.551Q0.649 0.554 0.645 0.554V0.545ZM0.655 0.534H0.657V0.593H0.655V0.573Q0.649 0.569 0.645 0.569V0.560Q0.649 0.560 0.655 0.556ZM0.636 0.538H0.640V0.556H0.636V0.542H0.633Q0.633 0.538 0.636 0.538ZM0.106 0.540H0.107V0.547H0.106ZM0.301 0.545H0.311Q0.311 0.549 0.312 0.549Q0.310 0.560 0.307 0.560H0.305Q0.301 0.560 0.301 0.556ZM0.107 0.549H0.109Q0.109 0.558 0.122 0.571H0.118V0.670L0.120 0.688H0.118Q0.115 0.687 0.113 0.687V0.719Q0.116 0.719 0.122 0.725Q0.120 0.728 0.120 0.730H0.118Q0.118 0.725 0.115 0.725H0.113V0.730L0.111 0.739Q0.100 0.733 0.100 0.730H0.102Q0.105 0.732 0.107 0.732V0.717Q0.107 0.712 0.106 0.712L0.107 0.703ZM0.206 0.556 0.203 0.554Q0.204 0.557 0.204 0.564Q0.199 0.567 0.195 0.567Q0.197 0.571 0.197 0.573H0.203Q0.203 0.571 0.204 0.567L0.214 0.569H0.215Q0.219 0.569 0.219 0.566V0.564Q0.219 0.560 0.215 0.560L0.212 0.562L0.210 0.558Q0.214 0.558 0.214 0.554Q0.214 0.551 0.210 0.551Q0.206 0.551 0.206 0.556ZM0.605 0.551V0.553Q0.605 0.558 0.603 0.558L0.605 0.567V0.608Q0.605 0.610 0.607 0.610Q0.605 0.613 0.605 0.619H0.603L0.602 0.610V0.554Q0.602 0.551 0.605 0.551ZM0.118 0.553H0.120V0.556H0.118ZM0.120 0.556Q0.123 0.556 0.126 0.564H0.122ZM0.640 0.562H0.642V0.567H0.640Q0.636 0.567 0.636 0.564ZM0.188 0.566Q0.188 0.569 0.185 0.569V0.575H0.188Q0.188 0.569 0.194 0.569V0.566ZM0.567 0.564H0.571Q0.574 0.564 0.574 0.567L0.571 0.569H0.567L0.569 0.566Q0.567 0.566 0.567 0.564ZM0.113 0.567V0.679H0.117V0.567ZM0.914 0.569 0.920 0.573Q0.905 0.611 0.876 0.611H0.874Q0.874 0.610 0.896 0.600Q0.914 0.585 0.914 0.569ZM0.135 0.571H0.139V0.573H0.135ZM0.636 0.573H0.642V0.685Q0.642 0.688 0.638 0.688L0.636 0.685ZM0.126 0.575Q0.131 0.580 0.140 0.580V0.584L0.137 0.582H0.133V0.610H0.140V0.584H0.144L0.142 0.588V0.608Q0.142 0.610 0.144 0.610L0.142 0.613V0.640H0.140V0.611H0.133Q0.133 0.619 0.129 0.619Q0.125 0.619 0.124 0.606Q0.126 0.590 0.126 0.582H0.124Q0.126 0.579 0.126 0.575ZM0.593 0.575 0.594 0.578Q0.594 0.582 0.591 0.582L0.589 0.578Q0.589 0.575 0.593 0.575ZM0.645 0.575Q0.649 0.575 0.649 0.578V0.602Q0.650 0.606 0.653 0.606Q0.653 0.602 0.657 0.602V0.750Q0.657 0.759 0.649 0.761L0.645 0.756ZM0.739 0.582Q0.742 0.590 0.746 0.591Q0.753 0.589 0.757 0.582Q0.757 0.579 0.752 0.577H0.744Q0.743 0.577 0.739 0.582ZM0.185 0.578V0.590H0.186Q0.186 0.586 0.190 0.586V0.580Q0.188 0.580 0.185 0.578ZM0.850 0.580Q0.873 0.585 0.873 0.590V0.595Q0.863 0.609 0.863 0.613Q0.863 0.618 0.884 0.626Q0.882 0.649 0.882 0.650H0.861Q0.859 0.650 0.856 0.644Q0.856 0.640 0.860 0.626H0.852Q0.848 0.639 0.843 0.639H0.837Q0.821 0.636 0.821 0.631Q0.826 0.610 0.836 0.610L0.854 0.615V0.610Q0.843 0.600 0.843 0.593Q0.847 0.580 0.850 0.580ZM0.746 0.582H0.750Q0.750 0.586 0.746 0.586ZM0.185 0.617V0.628Q0.187 0.628 0.190 0.622Q0.190 0.620 0.185 0.617ZM0.197 0.631Q0.197 0.634 0.188 0.642V0.644Q0.197 0.646 0.197 0.653H0.199Q0.201 0.653 0.210 0.642Q0.210 0.640 0.199 0.631ZM0.208 0.663 0.212 0.668Q0.206 0.668 0.206 0.672V0.674Q0.213 0.685 0.224 0.685Q0.237 0.679 0.237 0.672Q0.241 0.672 0.241 0.668V0.661H0.239Q0.235 0.661 0.235 0.666L0.219 0.651Q0.217 0.651 0.208 0.663ZM0.254 0.663H0.258V0.664H0.254ZM0.228 0.666V0.668Q0.228 0.672 0.224 0.672H0.223Q0.223 0.669 0.228 0.666ZM0.140 0.696H0.142Q0.146 0.709 0.146 0.710H0.142Q0.142 0.709 0.140 0.699ZM0.194 0.703H0.195V0.707H0.194ZM0.126 0.707H0.127V0.710H0.126ZM0.194 0.707V0.708Q0.191 0.716 0.188 0.716H0.186Q0.191 0.707 0.194 0.707ZM0.127 0.710Q0.131 0.711 0.131 0.714V0.716H0.127ZM0.206 0.717V0.719Q0.206 0.722 0.201 0.725V0.723Q0.201 0.720 0.206 0.717ZM0.309 0.721H0.318V0.723H0.309ZM0.303 0.723H0.307V0.725H0.303ZM0.093 0.726H0.097V0.728H0.093ZM0.097 0.728H0.100V0.730H0.097ZM0.219 0.730Q0.219 0.733 0.210 0.737L0.208 0.734ZM0.282 0.730Q0.284 0.732 0.292 0.732V0.734Q0.283 0.734 0.269 0.745H0.261L0.258 0.739Q0.271 0.736 0.271 0.732L0.274 0.734H0.278Q0.282 0.734 0.282 0.730ZM0.292 0.730H0.298V0.732H0.292ZM0.144 0.732H0.146V0.735H0.144ZM0.137 0.735H0.139V0.739H0.137ZM0.321 0.741H0.325V0.743H0.321ZM0.127 0.743H0.131V0.745H0.127ZM0.089 0.745H0.093V0.747H0.089ZM0.185 0.747V0.752Q0.188 0.752 0.188 0.748V0.747ZM0.093 0.747H0.100L0.109 0.748V0.750Q0.107 0.750 0.104 0.752Q0.098 0.748 0.093 0.748ZM0.303 0.747Q0.303 0.751 0.305 0.754L0.301 0.756Q0.295 0.752 0.292 0.752V0.750Q0.297 0.750 0.303 0.747ZM0.278 0.750Q0.281 0.752 0.287 0.752L0.272 0.771H0.271L0.272 0.767V0.758L0.263 0.756L0.256 0.758V0.769H0.252Q0.254 0.765 0.254 0.763L0.250 0.756Q0.269 0.754 0.278 0.750ZM0.080 0.763H0.100V0.767Q0.100 0.765 0.080 0.765ZM0.093 0.772H0.100L0.098 0.776Q0.100 0.780 0.100 0.782Q0.098 0.782 0.098 0.783Q0.100 0.783 0.100 0.785H0.095Q0.095 0.782 0.093 0.782L0.084 0.783Q0.093 0.777 0.093 0.772ZM0.261 0.780V0.783H0.258Q0.258 0.780 0.261 0.780ZM0.239 0.785H0.248V0.787L0.239 0.789ZM0.278 0.785H0.283V0.787H0.278ZM0.106 0.793 0.107 0.796Q0.106 0.796 0.097 0.798Q0.097 0.794 0.106 0.793ZM0.093 0.798H0.097V0.800H0.093ZM0.140 0.800H0.142V0.804H0.140ZM0.113 0.805V0.807Q0.113 0.810 0.107 0.813H0.106Q0.106 0.810 0.113 0.805ZM0.208 0.805Q0.208 0.806 0.215 0.814H0.214Q0.205 0.809 0.204 0.807ZM0.150 0.811H0.151V0.822H0.150ZM0.197 0.816Q0.197 0.819 0.201 0.823V0.825Q0.198 0.825 0.194 0.818ZM0.120 0.818H0.124V0.820Q0.124 0.822 0.118 0.825V0.823Q0.120 0.820 0.120 0.818ZM0.135 0.823 0.139 0.825Q0.137 0.829 0.137 0.831H0.135ZM0.181 0.825Q0.185 0.825 0.185 0.831V0.833H0.183ZM0.150 0.827 0.153 0.829Q0.151 0.836 0.151 0.842H0.150ZM0.166 0.829H0.168V0.836H0.166ZM0.133 0.831H0.135V0.834H0.133ZM0.185 0.833H0.186V0.836H0.185ZM0.131 0.834H0.133V0.838H0.131ZM0.186 0.836H0.188V0.840H0.186ZM0.168 0.840H0.170V0.847H0.168Z" fill="black"/>
</svg>
