<svg xmlns="http://www.w3.org/2000/svg" viewBox="0 0 1 1" preserveAspectRatio="xMidYMid meet">
  <path d="M0.368 0.159H0.372V0.165L0.370 0.168Q0.376 0.168 0.376 0.203V0.210H0.374Q0.374 0.199 0.370 0.199H0.368V0.206Q0.365 0.206 0.365 0.203L0.367 0.192L0.370 0.193L0.372 0.190L0.367 0.186L0.368 0.168ZM0.590 0.163H0.592V0.167Q0.590 0.170 0.590 0.172H0.588V0.168Q0.590 0.165 0.590 0.163ZM0.332 0.170H0.336Q0.343 0.191 0.343 0.195Q0.334 0.192 0.334 0.190Q0.332 0.174 0.332 0.170ZM0.595 0.170Q0.600 0.170 0.602 0.184Q0.602 0.187 0.593 0.192H0.592L0.588 0.181Q0.592 0.181 0.595 0.170ZM0.409 0.172 0.410 0.181Q0.408 0.181 0.405 0.174ZM0.298 0.181H0.300Q0.300 0.183 0.301 0.186H0.298ZM0.443 0.181H0.445Q0.445 0.184 0.446 0.184Q0.445 0.188 0.445 0.190H0.443ZM0.405 0.183 0.407 0.190Q0.404 0.190 0.401 0.184ZM0.439 0.190Q0.439 0.192 0.441 0.192Q0.441 0.190 0.443 0.190V0.193Q0.441 0.197 0.441 0.199Q0.438 0.199 0.435 0.193Q0.436 0.190 0.439 0.190ZM0.401 0.192 0.407 0.199V0.203Q0.400 0.197 0.398 0.197V0.195Q0.398 0.192 0.401 0.192ZM0.300 0.193H0.301Q0.312 0.200 0.312 0.203V0.205Q0.309 0.205 0.305 0.208Q0.305 0.204 0.300 0.193ZM0.601 0.193V0.195Q0.601 0.199 0.597 0.199V0.197Q0.598 0.193 0.601 0.193ZM0.336 0.199H0.337Q0.341 0.201 0.343 0.201Q0.341 0.203 0.341 0.214Q0.337 0.214 0.336 0.199ZM0.434 0.199Q0.437 0.205 0.437 0.208L0.434 0.210Q0.430 0.204 0.430 0.201ZM0.479 0.201 0.481 0.205 0.441 0.252V0.250Q0.444 0.242 0.452 0.234V0.232H0.450L0.445 0.235V0.232Q0.477 0.201 0.479 0.201ZM0.263 0.203H0.265Q0.276 0.214 0.279 0.214V0.216Q0.277 0.216 0.272 0.219Q0.263 0.205 0.263 0.203ZM0.343 0.203H0.347V0.208Q0.343 0.208 0.343 0.205ZM0.625 0.203H0.657V0.206Q0.657 0.209 0.625 0.219ZM0.225 0.205Q0.232 0.211 0.251 0.239Q0.248 0.239 0.227 0.263H0.225V0.242L0.232 0.234Q0.232 0.232 0.225 0.225ZM0.401 0.206Q0.405 0.207 0.405 0.210V0.212Q0.401 0.212 0.401 0.208ZM0.396 0.208V0.214Q0.392 0.214 0.392 0.210ZM0.425 0.208H0.428Q0.432 0.218 0.432 0.219L0.428 0.221H0.426L0.428 0.217V0.214L0.423 0.217L0.421 0.214Q0.425 0.214 0.425 0.208ZM0.312 0.210Q0.312 0.212 0.314 0.212L0.312 0.216Q0.319 0.228 0.319 0.232H0.316Q0.309 0.213 0.309 0.212ZM0.368 0.210V0.216H0.365V0.214Q0.365 0.210 0.368 0.210ZM0.374 0.214Q0.377 0.214 0.377 0.217V0.221Q0.374 0.221 0.374 0.217ZM0.349 0.216H0.352V0.221Q0.349 0.221 0.349 0.217ZM0.399 0.216Q0.403 0.216 0.403 0.219V0.221H0.399ZM0.657 0.216V0.225Q0.654 0.225 0.625 0.239V0.237Q0.637 0.228 0.637 0.226L0.634 0.225L0.625 0.228V0.226Q0.625 0.222 0.657 0.216ZM0.283 0.219Q0.286 0.219 0.289 0.225L0.285 0.226H0.281Q0.277 0.226 0.277 0.223ZM0.339 0.219Q0.343 0.219 0.347 0.237H0.345Q0.340 0.237 0.339 0.219ZM0.418 0.219Q0.421 0.219 0.421 0.223L0.416 0.226V0.225Q0.418 0.221 0.418 0.219ZM0.321 0.221Q0.332 0.228 0.332 0.235Q0.329 0.235 0.321 0.223ZM0.388 0.223H0.392V0.226H0.388ZM0.363 0.225H0.367V0.230Q0.363 0.230 0.363 0.226ZM0.425 0.225H0.426V0.230Q0.426 0.234 0.423 0.234L0.421 0.230Q0.425 0.230 0.425 0.225ZM0.398 0.226H0.401V0.232Q0.398 0.232 0.398 0.228ZM0.290 0.228H0.294Q0.294 0.232 0.290 0.232ZM0.352 0.228H0.356Q0.356 0.233 0.359 0.239H0.358Q0.354 0.239 0.352 0.228ZM0.410 0.230H0.414V0.232Q0.414 0.235 0.410 0.235H0.409Q0.410 0.232 0.410 0.230ZM0.657 0.230V0.253L0.635 0.255H0.625V0.244ZM0.285 0.232H0.287Q0.290 0.232 0.294 0.241H0.292Q0.289 0.241 0.285 0.234ZM0.296 0.232H0.298Q0.317 0.248 0.317 0.250H0.316L0.312 0.248Q0.312 0.250 0.310 0.250L0.296 0.234ZM0.376 0.232Q0.379 0.232 0.379 0.235V0.237H0.376ZM0.505 0.232V0.234L0.441 0.284V0.286Q0.503 0.272 0.521 0.266L0.523 0.270Q0.453 0.301 0.448 0.301V0.304Q0.497 0.306 0.525 0.306H0.530V0.310H0.528Q0.456 0.321 0.448 0.321V0.325L0.505 0.339V0.341Q0.486 0.341 0.476 0.344Q0.456 0.341 0.446 0.341V0.337Q0.477 0.341 0.486 0.341Q0.486 0.337 0.446 0.328V0.317H0.448Q0.481 0.313 0.488 0.313V0.310H0.486Q0.483 0.310 0.446 0.308V0.297Q0.483 0.285 0.483 0.281V0.279Q0.476 0.283 0.439 0.290H0.437V0.288Q0.437 0.277 0.468 0.259L0.470 0.255V0.253H0.468L0.439 0.270V0.265ZM0.319 0.235H0.323L0.328 0.252H0.326Q0.323 0.252 0.319 0.235ZM0.363 0.235H0.367V0.241H0.363ZM0.396 0.235H0.399V0.241Q0.396 0.241 0.396 0.237ZM0.383 0.237Q0.386 0.238 0.386 0.241V0.242Q0.383 0.242 0.383 0.239ZM0.407 0.239 0.409 0.242 0.405 0.244H0.403V0.242Q0.403 0.239 0.407 0.239ZM0.437 0.239V0.244Q0.435 0.244 0.407 0.270L0.405 0.266Q0.416 0.261 0.416 0.244H0.419V0.246Q0.416 0.252 0.416 0.255H0.418ZM0.334 0.241H0.336Q0.339 0.241 0.339 0.244H0.334ZM0.259 0.242 0.312 0.270V0.268L0.309 0.263H0.312Q0.314 0.263 0.323 0.276H0.317Q0.311 0.276 0.274 0.253H0.270L0.298 0.277H0.294Q0.292 0.277 0.261 0.253V0.255Q0.264 0.255 0.276 0.274V0.276L0.256 0.257L0.227 0.288L0.258 0.317Q0.258 0.313 0.265 0.313L0.263 0.310L0.281 0.293Q0.291 0.293 0.310 0.306V0.308H0.301Q0.305 0.314 0.305 0.317Q0.293 0.331 0.259 0.337V0.341H0.272V0.342Q0.265 0.344 0.259 0.344V0.366Q0.253 0.362 0.249 0.362L0.251 0.359L0.247 0.357H0.245Q0.242 0.357 0.240 0.362Q0.236 0.361 0.234 0.361V0.359Q0.240 0.359 0.240 0.355L0.238 0.351Q0.230 0.355 0.225 0.355V0.350Q0.225 0.349 0.232 0.341L0.225 0.332V0.312Q0.218 0.310 0.212 0.310V0.306H0.225V0.284ZM0.343 0.242H0.347V0.246H0.343ZM0.358 0.244 0.367 0.246V0.250L0.358 0.248ZM0.394 0.244Q0.401 0.247 0.401 0.250V0.252Q0.401 0.255 0.398 0.255Q0.394 0.255 0.394 0.252ZM0.247 0.248H0.249Q0.249 0.251 0.241 0.255V0.253Q0.241 0.251 0.247 0.248ZM0.376 0.248H0.383V0.252H0.379Q0.376 0.252 0.376 0.248ZM0.595 0.250H0.597V0.253H0.595ZM0.341 0.253H0.343Q0.347 0.255 0.349 0.255V0.259H0.347Q0.344 0.259 0.341 0.253ZM0.319 0.255H0.321Q0.336 0.260 0.336 0.265V0.268H0.334Q0.324 0.262 0.319 0.255ZM0.435 0.255V0.259L0.430 0.266V0.268H0.434V0.274Q0.421 0.279 0.418 0.279V0.277Q0.426 0.265 0.435 0.255ZM0.657 0.259V0.270Q0.629 0.276 0.625 0.277V0.274Q0.646 0.270 0.646 0.266L0.643 0.265H0.625V0.261H0.635ZM0.597 0.263H0.601Q0.601 0.266 0.597 0.266ZM0.232 0.265V0.266Q0.232 0.269 0.225 0.274V0.272Q0.225 0.269 0.232 0.265ZM0.258 0.265 0.270 0.279 0.265 0.283 0.267 0.286 0.265 0.290 0.270 0.293 0.272 0.290Q0.268 0.290 0.268 0.286L0.272 0.281Q0.279 0.282 0.279 0.284Q0.283 0.283 0.285 0.283Q0.288 0.283 0.301 0.286Q0.301 0.281 0.305 0.281Q0.316 0.290 0.316 0.292H0.314Q0.296 0.290 0.287 0.286Q0.279 0.286 0.256 0.310L0.234 0.286ZM0.657 0.276V0.297Q0.626 0.290 0.619 0.290V0.283Q0.626 0.283 0.657 0.276ZM0.601 0.279H0.604V0.281H0.601ZM0.432 0.286V0.290Q0.432 0.293 0.428 0.293H0.426V0.292Q0.426 0.289 0.432 0.286ZM0.711 0.286H0.726Q0.734 0.286 0.741 0.290V0.288Q0.780 0.302 0.794 0.330Q0.801 0.337 0.806 0.370Q0.806 0.393 0.781 0.422H0.779V0.428Q0.781 0.428 0.784 0.430Q0.784 0.428 0.786 0.428Q0.786 0.430 0.788 0.430V0.428Q0.795 0.430 0.801 0.434V0.432Q0.810 0.432 0.819 0.453Q0.817 0.453 0.817 0.455Q0.819 0.455 0.819 0.457H0.817Q0.819 0.460 0.819 0.462Q0.815 0.474 0.815 0.477Q0.812 0.475 0.810 0.475V0.471L0.811 0.468H0.810Q0.810 0.466 0.811 0.466Q0.805 0.439 0.784 0.439Q0.784 0.441 0.783 0.441Q0.783 0.439 0.781 0.439Q0.781 0.441 0.779 0.441V0.439L0.771 0.443V0.441L0.759 0.448Q0.759 0.446 0.757 0.446V0.450L0.753 0.448Q0.753 0.452 0.743 0.459Q0.724 0.487 0.724 0.501L0.730 0.513H0.728L0.732 0.524Q0.730 0.524 0.730 0.526Q0.732 0.526 0.735 0.528Q0.735 0.524 0.743 0.520Q0.743 0.522 0.744 0.522V0.518L0.748 0.520Q0.748 0.518 0.755 0.515V0.517L0.762 0.513Q0.762 0.515 0.764 0.515Q0.764 0.513 0.766 0.513V0.515Q0.773 0.511 0.781 0.511H0.783Q0.787 0.511 0.794 0.515Q0.794 0.513 0.795 0.513Q0.795 0.515 0.797 0.515V0.513Q0.835 0.524 0.850 0.546L0.859 0.562H0.857Q0.860 0.567 0.862 0.586Q0.860 0.603 0.859 0.606H0.860L0.857 0.613H0.859Q0.857 0.616 0.857 0.618Q0.854 0.617 0.852 0.617Q0.857 0.608 0.857 0.593V0.586Q0.857 0.570 0.850 0.559Q0.852 0.559 0.852 0.557Q0.849 0.557 0.831 0.537L0.810 0.524V0.526L0.802 0.522V0.524L0.795 0.520Q0.795 0.522 0.794 0.522Q0.794 0.520 0.792 0.520Q0.792 0.522 0.790 0.522Q0.790 0.520 0.788 0.520Q0.788 0.522 0.786 0.522Q0.786 0.520 0.784 0.520Q0.784 0.522 0.783 0.522Q0.783 0.520 0.781 0.520Q0.781 0.522 0.779 0.522V0.520L0.768 0.524V0.522L0.760 0.526Q0.760 0.524 0.759 0.524Q0.759 0.528 0.755 0.528V0.526Q0.726 0.537 0.726 0.555L0.713 0.577V0.588H0.717V0.593Q0.711 0.593 0.711 0.595Q0.710 0.611 0.710 0.613H0.711Q0.708 0.637 0.702 0.648H0.704Q0.694 0.667 0.685 0.676Q0.680 0.699 0.664 0.699Q0.701 0.654 0.701 0.622Q0.699 0.622 0.699 0.620H0.701Q0.698 0.610 0.695 0.604Q0.697 0.604 0.697 0.602Q0.691 0.596 0.683 0.584L0.679 0.586V0.582Q0.677 0.582 0.677 0.584L0.670 0.580Q0.670 0.582 0.668 0.582Q0.668 0.580 0.666 0.580Q0.666 0.582 0.664 0.582V0.580Q0.657 0.583 0.657 0.586V0.706L0.664 0.699V0.708Q0.661 0.712 0.661 0.715L0.657 0.713V0.811H0.626V0.806Q0.626 0.778 0.590 0.764L0.561 0.722Q0.576 0.721 0.576 0.691Q0.623 0.755 0.625 0.755V0.746Q0.625 0.744 0.623 0.744L0.625 0.740V0.702Q0.601 0.684 0.592 0.668Q0.595 0.668 0.602 0.664Q0.602 0.666 0.604 0.666Q0.604 0.664 0.606 0.664Q0.607 0.669 0.621 0.669Q0.643 0.664 0.643 0.650V0.642Q0.643 0.631 0.625 0.620V0.584H0.621V0.580L0.625 0.582V0.577Q0.625 0.555 0.621 0.555L0.623 0.551V0.550Q0.620 0.550 0.615 0.546L0.617 0.542V0.541H0.615Q0.589 0.537 0.588 0.537V0.535H0.599V0.533L0.597 0.520Q0.592 0.520 0.588 0.530H0.590Q0.588 0.533 0.588 0.535H0.586Q0.586 0.516 0.568 0.504Q0.565 0.497 0.565 0.493H0.568Q0.568 0.504 0.590 0.511Q0.617 0.510 0.617 0.484V0.477Q0.617 0.470 0.606 0.450L0.610 0.448Q0.614 0.456 0.623 0.459Q0.630 0.456 0.630 0.453V0.450Q0.625 0.446 0.623 0.417Q0.619 0.415 0.615 0.415V0.413Q0.620 0.413 0.626 0.401Q0.657 0.418 0.657 0.421V0.441Q0.658 0.444 0.661 0.444H0.666Q0.670 0.444 0.670 0.441V0.439L0.668 0.435L0.672 0.434Q0.672 0.435 0.674 0.435Q0.674 0.434 0.675 0.434Q0.675 0.435 0.677 0.435Q0.677 0.434 0.679 0.434L0.681 0.437H0.677V0.443L0.690 0.444L0.688 0.448L0.685 0.446H0.657V0.450Q0.658 0.453 0.661 0.453Q0.661 0.451 0.663 0.451Q0.663 0.453 0.664 0.453V0.451L0.668 0.453H0.695V0.455Q0.689 0.455 0.679 0.459Q0.679 0.455 0.675 0.455Q0.675 0.457 0.674 0.457V0.455L0.666 0.459Q0.666 0.457 0.664 0.457Q0.664 0.459 0.663 0.459Q0.663 0.457 0.661 0.457Q0.661 0.459 0.659 0.459Q0.659 0.457 0.657 0.457V0.520H0.659Q0.663 0.518 0.664 0.518Q0.657 0.527 0.657 0.528V0.539Q0.671 0.542 0.683 0.542V0.544H0.657V0.559L0.663 0.566H0.661L0.657 0.564V0.573Q0.666 0.569 0.672 0.569Q0.672 0.571 0.674 0.571V0.569Q0.684 0.572 0.695 0.582Q0.704 0.576 0.704 0.564Q0.710 0.531 0.719 0.490Q0.717 0.486 0.717 0.484L0.721 0.486Q0.726 0.478 0.726 0.471Q0.724 0.471 0.724 0.470Q0.731 0.470 0.734 0.460Q0.726 0.457 0.721 0.457Q0.723 0.460 0.723 0.462L0.719 0.464Q0.719 0.457 0.713 0.457Q0.710 0.469 0.710 0.473H0.706Q0.710 0.461 0.710 0.457V0.455Q0.704 0.459 0.701 0.459L0.699 0.455Q0.706 0.455 0.706 0.451V0.450H0.692Q0.692 0.446 0.706 0.446V0.444Q0.702 0.444 0.693 0.439Q0.693 0.441 0.692 0.441Q0.692 0.437 0.683 0.426V0.424L0.690 0.428V0.426Q0.693 0.426 0.708 0.441Q0.708 0.439 0.710 0.439L0.708 0.430V0.428H0.710V0.432H0.711L0.715 0.430V0.437H0.717L0.719 0.430H0.721V0.441L0.730 0.435H0.732Q0.724 0.443 0.724 0.444V0.446H0.741V0.448Q0.734 0.448 0.724 0.450V0.453Q0.727 0.453 0.734 0.459Q0.747 0.441 0.781 0.410Q0.792 0.391 0.797 0.372Q0.797 0.342 0.766 0.310Q0.756 0.302 0.734 0.293V0.295L0.715 0.292Q0.715 0.293 0.713 0.293V0.292L0.706 0.295Q0.706 0.293 0.704 0.293Q0.704 0.297 0.701 0.297V0.295Q0.688 0.302 0.683 0.302H0.679Q0.685 0.298 0.685 0.295L0.688 0.297Q0.688 0.293 0.699 0.290V0.292L0.706 0.288Q0.706 0.290 0.708 0.290Q0.709 0.286 0.711 0.286ZM0.604 0.292 0.657 0.302V0.313Q0.633 0.312 0.621 0.312H0.612V0.308H0.626L0.644 0.310L0.646 0.306Q0.644 0.302 0.604 0.295ZM0.674 0.306H0.679Q0.679 0.309 0.672 0.313H0.666V0.312Q0.669 0.312 0.674 0.306ZM0.259 0.317V0.334Q0.276 0.330 0.276 0.326Q0.275 0.326 0.267 0.317ZM0.612 0.317H0.621Q0.633 0.317 0.657 0.319V0.326H0.659L0.661 0.319H0.668V0.321Q0.663 0.321 0.663 0.330L0.659 0.328H0.657V0.342H0.655Q0.613 0.323 0.612 0.319ZM0.439 0.319H0.441V0.326H0.439ZM0.309 0.325V0.326L0.312 0.325H0.314Q0.314 0.327 0.319 0.335Q0.316 0.336 0.316 0.339L0.319 0.341L0.323 0.339L0.328 0.348Q0.326 0.348 0.312 0.364Q0.307 0.364 0.287 0.341H0.277V0.339Q0.283 0.339 0.303 0.326Q0.303 0.328 0.305 0.328Q0.305 0.325 0.309 0.325ZM0.610 0.326Q0.656 0.348 0.657 0.351V0.359Q0.625 0.349 0.625 0.346V0.344Q0.632 0.348 0.635 0.348L0.637 0.344Q0.613 0.330 0.608 0.330ZM0.570 0.332V0.337Q0.566 0.337 0.566 0.334ZM0.309 0.337 0.307 0.341 0.310 0.342 0.312 0.339ZM0.298 0.339 0.296 0.342 0.300 0.344 0.301 0.341ZM0.437 0.337H0.441V0.341Q0.437 0.341 0.437 0.337ZM0.561 0.339H0.563Q0.565 0.339 0.572 0.348V0.350H0.570Q0.561 0.345 0.561 0.342ZM0.601 0.339H0.604Q0.616 0.342 0.617 0.342V0.346Q0.601 0.342 0.601 0.339ZM0.217 0.344H0.221Q0.221 0.347 0.216 0.350L0.214 0.346ZM0.445 0.344H0.446L0.514 0.383V0.386Q0.437 0.361 0.437 0.357Q0.439 0.357 0.439 0.355Q0.477 0.370 0.479 0.370V0.366Q0.453 0.354 0.445 0.346ZM0.595 0.346H0.597Q0.609 0.350 0.614 0.350Q0.610 0.356 0.610 0.359H0.608Q0.605 0.359 0.595 0.346ZM0.289 0.350V0.353Q0.285 0.353 0.274 0.361V0.355ZM0.332 0.350Q0.332 0.353 0.336 0.357Q0.328 0.361 0.310 0.373L0.303 0.368Q0.303 0.371 0.283 0.388H0.279Q0.301 0.366 0.301 0.362Q0.309 0.370 0.310 0.370ZM0.592 0.350 0.604 0.364V0.366H0.602Q0.586 0.353 0.586 0.351Q0.588 0.351 0.592 0.350ZM0.432 0.353Q0.432 0.360 0.452 0.375L0.494 0.419V0.421H0.492Q0.488 0.419 0.486 0.419Q0.486 0.421 0.484 0.421Q0.483 0.406 0.477 0.406Q0.474 0.408 0.472 0.408Q0.471 0.406 0.425 0.373H0.423V0.375Q0.447 0.417 0.452 0.419Q0.448 0.426 0.448 0.430Q0.434 0.416 0.412 0.388V0.384Q0.414 0.384 0.439 0.413H0.441V0.411L0.418 0.373L0.419 0.370Q0.419 0.366 0.416 0.366Q0.416 0.368 0.414 0.368L0.412 0.364L0.416 0.362L0.459 0.393H0.463L0.425 0.353ZM0.561 0.351H0.563Q0.593 0.369 0.599 0.375V0.377Q0.566 0.357 0.561 0.357ZM0.577 0.353H0.581V0.355H0.577ZM0.625 0.355Q0.629 0.355 0.657 0.364V0.401Q0.630 0.380 0.625 0.372ZM0.298 0.357 0.300 0.361 0.287 0.364H0.281V0.362Q0.286 0.362 0.298 0.357ZM0.339 0.361 0.345 0.370V0.372Q0.341 0.372 0.314 0.384Q0.314 0.380 0.312 0.377Q0.315 0.377 0.339 0.361ZM0.225 0.364H0.229Q0.229 0.368 0.225 0.368ZM0.281 0.364Q0.281 0.370 0.267 0.372Q0.267 0.367 0.281 0.364ZM0.563 0.364Q0.596 0.408 0.597 0.415H0.595L0.601 0.428L0.597 0.430Q0.597 0.418 0.565 0.370Q0.563 0.366 0.563 0.364ZM0.240 0.366 0.241 0.373 0.236 0.377V0.370Q0.236 0.366 0.240 0.366ZM0.576 0.370 0.597 0.383Q0.595 0.384 0.595 0.399Q0.594 0.399 0.576 0.372ZM0.230 0.372V0.375L0.229 0.379Q0.238 0.381 0.238 0.384L0.229 0.395L0.232 0.397Q0.233 0.394 0.258 0.372L0.259 0.375V0.404Q0.262 0.404 0.276 0.392Q0.279 0.392 0.279 0.395Q0.254 0.418 0.254 0.421L0.258 0.422Q0.258 0.421 0.259 0.421V0.453H0.258L0.256 0.444H0.258Q0.258 0.432 0.234 0.415Q0.231 0.413 0.227 0.413Q0.227 0.415 0.225 0.415V0.377Q0.225 0.374 0.230 0.372ZM0.403 0.373H0.405V0.377H0.399Q0.400 0.373 0.403 0.373ZM0.350 0.377Q0.350 0.379 0.352 0.379Q0.356 0.377 0.358 0.377V0.383L0.359 0.392Q0.343 0.405 0.343 0.410L0.339 0.408H0.328V0.406L0.330 0.402L0.323 0.395Q0.315 0.408 0.312 0.408H0.309L0.321 0.392L0.319 0.388Q0.340 0.377 0.350 0.377ZM0.407 0.381H0.409Q0.405 0.386 0.405 0.390H0.403V0.384Q0.403 0.381 0.407 0.381ZM0.625 0.381Q0.651 0.401 0.657 0.410V0.411H0.655Q0.630 0.398 0.625 0.392ZM0.368 0.384H0.374V0.386Q0.369 0.395 0.367 0.395V0.393ZM0.388 0.384H0.392Q0.392 0.387 0.385 0.392V0.388Q0.386 0.384 0.388 0.384ZM0.292 0.386V0.392H0.287Q0.287 0.389 0.292 0.386ZM0.310 0.392H0.312V0.393Q0.305 0.406 0.303 0.406H0.301V0.404Q0.307 0.392 0.310 0.392ZM0.392 0.392H0.396Q0.396 0.395 0.399 0.401L0.396 0.402ZM0.363 0.395Q0.366 0.397 0.368 0.397V0.406Q0.346 0.422 0.343 0.422L0.341 0.419Q0.348 0.408 0.363 0.395ZM0.374 0.395H0.376V0.399H0.374ZM0.388 0.395 0.390 0.408V0.411L0.388 0.421H0.386Q0.386 0.409 0.385 0.397ZM0.407 0.395H0.410Q0.410 0.400 0.432 0.466H0.426Q0.426 0.461 0.405 0.421Q0.405 0.417 0.409 0.417Q0.412 0.427 0.412 0.428H0.416ZM0.572 0.397Q0.575 0.397 0.579 0.404L0.576 0.406L0.572 0.401ZM0.377 0.404Q0.379 0.416 0.385 0.426L0.370 0.455H0.368Q0.365 0.455 0.361 0.444H0.359L0.352 0.477Q0.349 0.477 0.349 0.473Q0.349 0.464 0.352 0.464L0.350 0.460V0.435L0.349 0.426Q0.358 0.420 0.377 0.404ZM0.403 0.406V0.411Q0.399 0.411 0.399 0.408ZM0.296 0.411H0.300V0.413H0.296ZM0.328 0.415H0.330Q0.325 0.430 0.323 0.430V0.426Q0.325 0.415 0.328 0.415ZM0.229 0.419Q0.239 0.419 0.251 0.441H0.232Q0.229 0.441 0.225 0.434V0.430Q0.225 0.425 0.229 0.419ZM0.300 0.419H0.303Q0.303 0.421 0.294 0.428Q0.290 0.428 0.290 0.424V0.421ZM0.483 0.421H0.484V0.435H0.481V0.430ZM0.492 0.422H0.495V0.424H0.492ZM0.706 0.422H0.708V0.426H0.706ZM0.470 0.424H0.474V0.432H0.470Q0.470 0.430 0.472 0.430L0.470 0.426ZM0.721 0.424H0.723V0.428H0.721ZM0.330 0.428H0.332V0.432H0.330ZM0.456 0.428Q0.465 0.442 0.465 0.446Q0.452 0.438 0.452 0.435V0.432Q0.453 0.428 0.456 0.428ZM0.285 0.430Q0.288 0.432 0.292 0.432Q0.279 0.448 0.277 0.448Q0.277 0.446 0.276 0.446Q0.285 0.432 0.285 0.430ZM0.321 0.430H0.323Q0.323 0.434 0.326 0.439V0.443Q0.322 0.439 0.319 0.439ZM0.388 0.430H0.390Q0.390 0.433 0.394 0.439Q0.380 0.461 0.374 0.464Q0.374 0.462 0.372 0.462ZM0.599 0.430H0.602V0.432H0.599ZM0.664 0.434H0.668V0.435H0.664ZM0.325 0.443V0.444Q0.320 0.458 0.314 0.462L0.312 0.459Q0.315 0.446 0.325 0.443ZM0.225 0.444 0.234 0.446Q0.231 0.450 0.229 0.466L0.225 0.468ZM0.396 0.444H0.398Q0.403 0.446 0.403 0.455V0.502Q0.400 0.502 0.379 0.471V0.468Q0.396 0.447 0.396 0.444ZM0.621 0.446 0.625 0.451V0.453Q0.617 0.451 0.617 0.448ZM0.236 0.451H0.252Q0.252 0.455 0.254 0.455Q0.254 0.474 0.240 0.486H0.225V0.477Q0.225 0.475 0.236 0.466ZM0.258 0.459H0.259V0.515Q0.259 0.524 0.251 0.528Q0.251 0.525 0.245 0.522Q0.238 0.525 0.238 0.535L0.234 0.533H0.232L0.227 0.537H0.225V0.502L0.229 0.497Q0.225 0.497 0.225 0.493V0.492H0.236Q0.258 0.487 0.258 0.459ZM0.409 0.459Q0.432 0.487 0.432 0.495V0.515Q0.432 0.518 0.445 0.526L0.446 0.522Q0.443 0.522 0.443 0.518H0.445L0.443 0.515V0.506H0.445Q0.445 0.509 0.454 0.520H0.452L0.483 0.560L0.486 0.562V0.560Q0.484 0.554 0.484 0.553V0.551H0.486Q0.487 0.559 0.492 0.559Q0.494 0.552 0.494 0.546H0.495Q0.495 0.558 0.499 0.578L0.494 0.575V0.577Q0.495 0.577 0.495 0.578Q0.490 0.578 0.490 0.608L0.499 0.613Q0.500 0.610 0.503 0.610Q0.501 0.607 0.499 0.584L0.503 0.582V0.584L0.501 0.588Q0.505 0.588 0.505 0.591L0.503 0.595Q0.505 0.595 0.505 0.597H0.503L0.505 0.601V0.615L0.501 0.613L0.499 0.617Q0.503 0.617 0.503 0.620H0.501L0.503 0.624L0.499 0.637H0.497Q0.495 0.631 0.465 0.590V0.588L0.468 0.590L0.470 0.586Q0.465 0.584 0.465 0.582L0.461 0.584H0.459Q0.459 0.581 0.456 0.577L0.458 0.573L0.454 0.571Q0.454 0.573 0.452 0.573Q0.445 0.564 0.443 0.550L0.439 0.551H0.435Q0.416 0.520 0.409 0.511ZM0.699 0.459H0.701L0.699 0.462Q0.701 0.462 0.701 0.464H0.699Q0.695 0.464 0.695 0.460ZM0.685 0.462H0.688V0.464H0.685ZM0.724 0.462V0.464Q0.723 0.468 0.723 0.470H0.721V0.464ZM0.674 0.464Q0.676 0.464 0.679 0.470Q0.677 0.473 0.677 0.477H0.675L0.674 0.468ZM0.683 0.464H0.685Q0.685 0.468 0.681 0.468H0.679Q0.679 0.464 0.683 0.464ZM0.702 0.466H0.706V0.468H0.702ZM0.561 0.471H0.563Q0.563 0.479 0.565 0.479Q0.563 0.482 0.563 0.486H0.561ZM0.602 0.473Q0.602 0.475 0.604 0.479Q0.602 0.479 0.602 0.481H0.604Q0.601 0.495 0.592 0.495Q0.587 0.495 0.583 0.486Q0.585 0.483 0.585 0.477H0.586L0.592 0.481Q0.592 0.479 0.593 0.479Q0.593 0.481 0.595 0.481Q0.596 0.473 0.602 0.473ZM0.495 0.477H0.501V0.479Q0.501 0.482 0.497 0.482H0.495ZM0.713 0.479H0.715V0.482H0.713ZM0.437 0.499H0.439V0.502H0.437ZM0.719 0.513H0.721L0.715 0.531H0.721V0.535H0.719L0.715 0.533Q0.715 0.535 0.713 0.539Q0.715 0.542 0.715 0.544Q0.721 0.544 0.728 0.528L0.726 0.509H0.723Q0.719 0.510 0.719 0.513ZM0.621 0.511Q0.621 0.514 0.615 0.522Q0.618 0.524 0.625 0.524L0.623 0.511ZM0.419 0.515 0.418 0.518 0.421 0.520 0.423 0.517ZM0.574 0.515H0.576V0.518H0.574ZM0.664 0.517H0.668V0.518H0.664ZM0.576 0.518Q0.579 0.519 0.579 0.522V0.524Q0.576 0.524 0.576 0.520ZM0.446 0.526 0.445 0.530 0.448 0.531 0.450 0.528ZM0.612 0.528V0.533H0.617V0.531Q0.617 0.528 0.614 0.528ZM0.247 0.530Q0.247 0.532 0.256 0.539L0.258 0.535V0.533L0.256 0.530H0.259V0.648H0.268V0.644H0.265V0.642H0.270Q0.270 0.647 0.289 0.650V0.651H0.281V0.655Q0.291 0.658 0.303 0.682H0.307V0.678Q0.307 0.671 0.305 0.659V0.657H0.307Q0.307 0.660 0.310 0.664H0.309Q0.310 0.667 0.310 0.671H0.314V0.662L0.312 0.659Q0.317 0.659 0.317 0.655L0.321 0.657L0.332 0.655Q0.340 0.658 0.341 0.662V0.668L0.339 0.676H0.341Q0.355 0.669 0.359 0.669V0.675L0.341 0.680V0.686Q0.347 0.686 0.347 0.695Q0.347 0.702 0.339 0.706H0.334Q0.324 0.706 0.321 0.693Q0.315 0.697 0.312 0.697Q0.317 0.707 0.321 0.718Q0.328 0.717 0.328 0.715Q0.343 0.717 0.343 0.729Q0.343 0.736 0.326 0.742V0.760H0.325V0.744H0.323Q0.292 0.762 0.292 0.775L0.285 0.777V0.775L0.287 0.768H0.283Q0.279 0.768 0.279 0.771Q0.287 0.785 0.289 0.791H0.287Q0.290 0.803 0.303 0.831H0.298Q0.298 0.826 0.276 0.787V0.785H0.274Q0.272 0.785 0.263 0.809Q0.257 0.809 0.256 0.820H0.254L0.252 0.817V0.813H0.256V0.811H0.225V0.787L0.207 0.789H0.203V0.795H0.201Q0.194 0.785 0.185 0.785V0.787Q0.185 0.793 0.181 0.793H0.180V0.789L0.183 0.784Q0.183 0.782 0.181 0.778Q0.183 0.766 0.191 0.755V0.753H0.189Q0.140 0.773 0.138 0.773V0.768Q0.147 0.768 0.187 0.742L0.194 0.738Q0.192 0.735 0.192 0.733H0.189Q0.189 0.738 0.185 0.738Q0.181 0.738 0.181 0.733Q0.185 0.722 0.185 0.718Q0.179 0.691 0.176 0.691L0.169 0.697V0.695Q0.169 0.695 0.181 0.676V0.680Q0.214 0.663 0.214 0.659Q0.214 0.655 0.194 0.611H0.200Q0.214 0.648 0.219 0.648Q0.222 0.648 0.225 0.642V0.610Q0.225 0.570 0.229 0.551H0.227Q0.229 0.541 0.232 0.541L0.234 0.544L0.230 0.550V0.562Q0.234 0.577 0.238 0.582Q0.236 0.582 0.236 0.584L0.240 0.586H0.241Q0.245 0.586 0.245 0.580Q0.236 0.549 0.236 0.548L0.245 0.553H0.247Q0.251 0.553 0.251 0.550L0.243 0.531ZM0.238 0.535H0.240V0.541H0.238ZM0.240 0.541H0.241V0.544H0.240ZM0.461 0.551Q0.463 0.551 0.463 0.553Q0.470 0.551 0.470 0.548Q0.468 0.548 0.468 0.546Q0.461 0.549 0.461 0.551ZM0.601 0.544H0.602Q0.614 0.548 0.614 0.551L0.610 0.557Q0.615 0.568 0.615 0.573H0.614Q0.610 0.573 0.604 0.559L0.595 0.560Q0.595 0.558 0.602 0.555L0.601 0.546ZM0.585 0.550H0.586V0.555H0.585ZM0.358 0.551H0.361Q0.371 0.551 0.374 0.559V0.568Q0.374 0.571 0.363 0.577Q0.351 0.573 0.350 0.568V0.559Q0.350 0.556 0.358 0.551ZM0.405 0.555H0.416Q0.419 0.555 0.423 0.562V0.571Q0.423 0.574 0.416 0.578H0.407Q0.404 0.578 0.399 0.571Q0.404 0.571 0.405 0.555ZM0.454 0.559 0.452 0.562 0.456 0.564 0.458 0.560ZM0.592 0.560H0.595V0.562H0.592ZM0.503 0.562H0.510V0.564Q0.506 0.564 0.503 0.566ZM0.506 0.573H0.510V0.575H0.506ZM0.592 0.573H0.593L0.595 0.580Q0.592 0.580 0.592 0.575ZM0.617 0.577H0.621V0.580Q0.617 0.580 0.617 0.577ZM0.479 0.584 0.477 0.588 0.481 0.590 0.483 0.586ZM0.595 0.586H0.599L0.617 0.622H0.606Q0.595 0.590 0.595 0.586ZM0.568 0.590H0.572Q0.572 0.592 0.577 0.601Q0.576 0.601 0.576 0.602H0.577L0.576 0.606V0.611Q0.576 0.613 0.577 0.613L0.576 0.617V0.620L0.577 0.624H0.574Q0.574 0.620 0.568 0.613V0.604Q0.568 0.602 0.570 0.602L0.568 0.599ZM0.479 0.606 0.483 0.608H0.484Q0.488 0.608 0.488 0.604L0.484 0.602H0.483Q0.479 0.603 0.479 0.606ZM0.367 0.602Q0.377 0.606 0.377 0.617Q0.374 0.617 0.374 0.620Q0.376 0.620 0.376 0.622L0.372 0.624Q0.372 0.619 0.354 0.613V0.610Q0.357 0.602 0.367 0.602ZM0.510 0.604Q0.515 0.604 0.523 0.617Q0.519 0.627 0.516 0.627Q0.512 0.626 0.508 0.626ZM0.325 0.618Q0.339 0.620 0.339 0.633Q0.336 0.644 0.325 0.644Q0.317 0.641 0.314 0.635V0.627Q0.317 0.621 0.325 0.618ZM0.354 0.620H0.356Q0.361 0.624 0.367 0.624V0.627H0.361Q0.358 0.627 0.354 0.620ZM0.525 0.624H0.526Q0.548 0.647 0.548 0.657L0.535 0.660H0.534Q0.518 0.660 0.516 0.637Q0.525 0.629 0.525 0.624ZM0.576 0.626H0.577V0.629H0.576ZM0.388 0.627 0.396 0.635Q0.391 0.651 0.386 0.651H0.385ZM0.619 0.627H0.623V0.631H0.625V0.627Q0.633 0.631 0.637 0.639V0.648Q0.637 0.664 0.617 0.664H0.614Q0.615 0.654 0.615 0.650Q0.615 0.639 0.610 0.629ZM0.383 0.631Q0.379 0.647 0.379 0.650H0.377Q0.375 0.650 0.372 0.644Q0.381 0.631 0.383 0.631ZM0.512 0.633Q0.516 0.634 0.516 0.637H0.512ZM0.505 0.635H0.506V0.639H0.505ZM0.510 0.644H0.512V0.651H0.508V0.650Q0.510 0.646 0.510 0.644ZM0.259 0.653V0.657Q0.281 0.660 0.281 0.666V0.697H0.283Q0.294 0.697 0.300 0.686Q0.288 0.663 0.272 0.651ZM0.516 0.657Q0.528 0.666 0.528 0.668L0.523 0.671Q0.523 0.670 0.516 0.660ZM0.552 0.659Q0.554 0.659 0.570 0.682V0.684Q0.560 0.676 0.554 0.676H0.552Q0.545 0.676 0.535 0.684H0.534V0.682L0.539 0.675V0.673L0.534 0.666Q0.545 0.666 0.552 0.659ZM0.586 0.659H0.588Q0.591 0.660 0.593 0.660V0.662H0.588ZM0.267 0.662Q0.267 0.666 0.259 0.673Q0.259 0.679 0.261 0.682L0.259 0.693V0.708Q0.272 0.708 0.272 0.686V0.662ZM0.183 0.684Q0.186 0.706 0.191 0.706Q0.199 0.684 0.207 0.675V0.673H0.205Q0.186 0.684 0.183 0.684ZM0.392 0.671H0.396Q0.399 0.672 0.399 0.675Q0.398 0.678 0.398 0.680H0.392Q0.386 0.680 0.379 0.686V0.682Q0.382 0.671 0.392 0.671ZM0.317 0.675 0.316 0.684H0.317Q0.327 0.682 0.328 0.682V0.678Q0.324 0.678 0.319 0.675ZM0.405 0.680V0.686Q0.401 0.686 0.401 0.682ZM0.555 0.682Q0.570 0.687 0.570 0.699V0.702Q0.570 0.713 0.557 0.718L0.537 0.689Q0.545 0.682 0.555 0.682ZM0.223 0.686Q0.219 0.700 0.219 0.704Q0.225 0.702 0.225 0.693V0.686ZM0.207 0.687 0.194 0.718Q0.198 0.724 0.198 0.729H0.201Q0.210 0.692 0.210 0.687ZM0.394 0.686H0.398L0.401 0.687Q0.401 0.686 0.403 0.686V0.689Q0.401 0.695 0.392 0.695H0.386Q0.384 0.695 0.381 0.689ZM0.574 0.687H0.576V0.691H0.574ZM0.388 0.700H0.396Q0.405 0.705 0.405 0.715Q0.403 0.722 0.394 0.722Q0.383 0.722 0.379 0.713Q0.383 0.702 0.388 0.700ZM0.281 0.711V0.726H0.285Q0.285 0.723 0.290 0.710H0.289Q0.282 0.711 0.281 0.711ZM0.310 0.713Q0.309 0.731 0.303 0.747H0.305Q0.321 0.738 0.321 0.736Q0.314 0.715 0.314 0.713ZM0.221 0.722V0.724H0.225V0.718Q0.221 0.719 0.221 0.722ZM0.259 0.726Q0.265 0.740 0.268 0.740L0.270 0.718Q0.259 0.718 0.259 0.726ZM0.279 0.760Q0.293 0.760 0.300 0.733L0.301 0.720Q0.293 0.725 0.279 0.760ZM0.165 0.733H0.169Q0.172 0.734 0.172 0.736V0.738Q0.172 0.742 0.169 0.742H0.165Q0.161 0.742 0.161 0.738V0.736Q0.162 0.733 0.165 0.733ZM0.216 0.740V0.760Q0.223 0.769 0.223 0.773H0.225V0.753L0.219 0.746Q0.222 0.746 0.225 0.740V0.738ZM0.259 0.757V0.760H0.261V0.757ZM0.309 0.760H0.312Q0.316 0.761 0.316 0.764V0.766Q0.316 0.769 0.312 0.769Q0.309 0.769 0.309 0.766ZM0.192 0.768Q0.187 0.781 0.187 0.784H0.196V0.768ZM0.203 0.768V0.782H0.209V0.780L0.207 0.768ZM0.321 0.773H0.323V0.777H0.321ZM0.597 0.773H0.599Q0.614 0.780 0.621 0.802V0.806H0.619Q0.619 0.802 0.597 0.773ZM0.259 0.791V0.798H0.261V0.791Z" fill="black"/>
</svg>
