<svg xmlns="http://www.w3.org/2000/svg" viewBox="0 0 1 1" preserveAspectRatio="xMidYMid meet">
  <path d="M0.368 0.146H0.370Q0.370 0.154 0.372 0.154Q0.370 0.159 0.368 0.159Q0.370 0.162 0.370 0.169H0.372Q0.375 0.169 0.379 0.154L0.385 0.150V0.152L0.383 0.156Q0.388 0.156 0.401 0.163Q0.401 0.159 0.415 0.154V0.152Q0.414 0.152 0.414 0.150H0.415Q0.421 0.152 0.421 0.154L0.424 0.152H0.430V0.154L0.421 0.156V0.157Q0.426 0.169 0.428 0.169Q0.430 0.167 0.430 0.154Q0.433 0.154 0.435 0.163L0.434 0.167V0.176H0.435Q0.451 0.163 0.465 0.148H0.468Q0.457 0.159 0.439 0.185H0.437V0.192H0.443V0.190L0.441 0.186H0.446Q0.446 0.194 0.448 0.197H0.446Q0.448 0.201 0.448 0.203H0.557Q0.546 0.233 0.546 0.236H0.458Q0.446 0.248 0.443 0.248V0.252Q0.446 0.252 0.458 0.266Q0.468 0.277 0.472 0.277V0.281Q0.446 0.259 0.437 0.259H0.428V0.257H0.432Q0.432 0.248 0.426 0.248V0.246L0.434 0.239Q0.434 0.236 0.421 0.234Q0.409 0.236 0.401 0.236H0.390V0.239H0.388Q0.388 0.234 0.381 0.230H0.377Q0.369 0.237 0.361 0.237Q0.352 0.217 0.347 0.212L0.352 0.208Q0.354 0.214 0.363 0.214Q0.371 0.210 0.372 0.206Q0.368 0.202 0.368 0.197L0.365 0.199L0.361 0.194Q0.365 0.194 0.365 0.190Q0.364 0.188 0.330 0.152H0.332L0.363 0.178H0.366V0.176L0.365 0.172H0.366L0.365 0.169V0.165Q0.368 0.152 0.368 0.146ZM0.428 0.146H0.432Q0.432 0.150 0.428 0.150ZM0.383 0.159Q0.379 0.167 0.379 0.172H0.383Q0.386 0.162 0.386 0.161ZM0.412 0.163 0.419 0.170H0.421Q0.421 0.161 0.415 0.159Q0.412 0.160 0.412 0.163ZM0.398 0.169V0.172L0.401 0.178V0.183L0.394 0.190L0.385 0.185L0.381 0.194L0.388 0.199L0.383 0.214Q0.389 0.217 0.394 0.217Q0.394 0.215 0.403 0.208Q0.403 0.206 0.396 0.197H0.401Q0.401 0.203 0.405 0.203H0.408Q0.411 0.203 0.419 0.192Q0.419 0.179 0.403 0.170V0.169L0.399 0.170Q0.399 0.169 0.398 0.169ZM0.458 0.178 0.461 0.183H0.454L0.452 0.179Q0.454 0.179 0.458 0.178ZM0.356 0.188H0.359V0.192Q0.359 0.195 0.356 0.195Q0.356 0.194 0.354 0.194Q0.356 0.190 0.356 0.188ZM0.408 0.188H0.412Q0.415 0.189 0.415 0.192L0.412 0.194H0.408ZM0.434 0.197V0.199Q0.434 0.203 0.437 0.203H0.443Q0.443 0.199 0.434 0.197ZM0.339 0.201H0.343Q0.347 0.202 0.347 0.205L0.343 0.206H0.341Q0.341 0.205 0.339 0.201ZM0.361 0.201 0.365 0.206 0.361 0.208Q0.357 0.208 0.357 0.205Q0.358 0.201 0.361 0.201ZM0.392 0.203Q0.396 0.204 0.396 0.206Q0.396 0.209 0.390 0.212V0.208Q0.392 0.205 0.392 0.203ZM0.565 0.203H0.577V0.208Q0.572 0.214 0.568 0.236H0.554Q0.565 0.205 0.565 0.205ZM0.584 0.203H0.615Q0.701 0.203 0.737 0.326Q0.741 0.356 0.741 0.368Q0.741 0.461 0.679 0.506Q0.655 0.488 0.651 0.488Q0.706 0.443 0.706 0.366Q0.706 0.329 0.683 0.279Q0.656 0.246 0.648 0.246Q0.653 0.229 0.653 0.225L0.650 0.223Q0.639 0.238 0.639 0.241Q0.621 0.236 0.597 0.236H0.576ZM0.343 0.219H0.347V0.225Q0.343 0.225 0.343 0.221ZM0.336 0.228H0.341Q0.348 0.231 0.348 0.241L0.343 0.245H0.337Q0.334 0.244 0.330 0.236Q0.332 0.236 0.332 0.234Q0.330 0.234 0.330 0.232ZM0.446 0.236V0.239Q0.450 0.239 0.450 0.236ZM0.383 0.237Q0.386 0.244 0.388 0.268L0.386 0.279V0.287Q0.374 0.283 0.365 0.283H0.363L0.350 0.285L0.348 0.281Q0.359 0.281 0.359 0.277V0.257H0.361Q0.361 0.261 0.365 0.268L0.363 0.272Q0.365 0.279 0.368 0.279H0.372Q0.383 0.271 0.383 0.265Q0.379 0.263 0.377 0.263Q0.377 0.262 0.385 0.253Q0.385 0.250 0.381 0.250L0.377 0.252V0.248Q0.379 0.237 0.383 0.237ZM0.390 0.239H0.392V0.243H0.390ZM0.417 0.239H0.423V0.243Q0.421 0.243 0.408 0.257V0.253Q0.408 0.253 0.415 0.245L0.414 0.241ZM0.356 0.241H0.357Q0.357 0.246 0.361 0.246Q0.359 0.250 0.359 0.253H0.357L0.356 0.243ZM0.372 0.245V0.246L0.368 0.261H0.366L0.365 0.248ZM0.348 0.252H0.352L0.354 0.261V0.276H0.348Q0.348 0.273 0.350 0.257Q0.348 0.254 0.348 0.252ZM0.341 0.253Q0.345 0.253 0.345 0.259V0.263H0.343ZM0.296 0.255H0.301V0.257H0.296ZM0.398 0.255H0.399Q0.397 0.263 0.394 0.263V0.259Q0.394 0.255 0.398 0.255ZM0.407 0.259Q0.409 0.259 0.412 0.265Q0.408 0.265 0.405 0.266V0.265Q0.407 0.261 0.407 0.259ZM0.308 0.261 0.310 0.265Q0.301 0.265 0.294 0.266H0.292V0.265Q0.306 0.261 0.308 0.261ZM0.373 0.261Q0.377 0.262 0.377 0.265L0.373 0.266ZM0.399 0.265H0.401V0.268H0.399ZM0.299 0.270H0.306L0.305 0.274Q0.301 0.272 0.299 0.272ZM0.414 0.270V0.274H0.410V0.277H0.414V0.279H0.408V0.272Q0.410 0.272 0.414 0.270ZM0.310 0.277Q0.317 0.280 0.317 0.283V0.285Q0.317 0.296 0.306 0.296Q0.310 0.288 0.310 0.285ZM0.301 0.279H0.303L0.305 0.288L0.301 0.290H0.299V0.288ZM0.361 0.288H0.368Q0.385 0.292 0.386 0.292V0.301L0.385 0.310H0.383Q0.374 0.290 0.361 0.290ZM0.352 0.294H0.357Q0.374 0.294 0.381 0.323V0.325H0.379Q0.379 0.315 0.372 0.312Q0.372 0.313 0.370 0.313Q0.370 0.303 0.352 0.296ZM0.352 0.301Q0.363 0.301 0.368 0.332H0.363Q0.363 0.323 0.357 0.323H0.350Q0.345 0.323 0.339 0.326V0.325Q0.340 0.321 0.348 0.317Q0.348 0.319 0.350 0.319Q0.352 0.313 0.354 0.313L0.352 0.304ZM0.330 0.306H0.332Q0.332 0.309 0.319 0.315V0.312Q0.321 0.306 0.330 0.306ZM0.337 0.312V0.313Q0.337 0.316 0.330 0.321Q0.330 0.319 0.328 0.315Q0.331 0.315 0.337 0.312ZM0.372 0.325H0.375V0.332H0.370Q0.372 0.329 0.372 0.325ZM0.352 0.328H0.357V0.337L0.350 0.332L0.345 0.336Q0.341 0.336 0.341 0.332Q0.347 0.328 0.352 0.328ZM0.368 0.337H0.375Q0.386 0.338 0.386 0.343V0.352L0.383 0.357L0.386 0.363V0.366Q0.380 0.363 0.375 0.363Q0.373 0.363 0.370 0.368V0.370Q0.373 0.377 0.383 0.377Q0.383 0.374 0.390 0.370H0.398Q0.390 0.379 0.386 0.379V0.422Q0.376 0.412 0.373 0.412Q0.370 0.412 0.370 0.415L0.381 0.428Q0.385 0.429 0.385 0.432Q0.372 0.432 0.372 0.439H0.370Q0.370 0.410 0.352 0.410V0.405H0.366Q0.370 0.405 0.370 0.401V0.399Q0.359 0.383 0.352 0.383V0.375L0.359 0.368V0.366Q0.359 0.365 0.352 0.357V0.346Q0.356 0.346 0.356 0.345L0.359 0.346Q0.369 0.346 0.370 0.341ZM0.459 0.359H0.461Q0.461 0.366 0.470 0.366V0.370Q0.464 0.372 0.463 0.372L0.465 0.381L0.458 0.375Q0.454 0.377 0.452 0.377V0.375Q0.454 0.372 0.454 0.368Q0.448 0.368 0.448 0.364Q0.459 0.364 0.459 0.359ZM0.328 0.366Q0.336 0.369 0.336 0.372H0.332Q0.328 0.370 0.326 0.370ZM0.375 0.368H0.379V0.370H0.375ZM0.319 0.372H0.321Q0.330 0.377 0.337 0.377V0.383Q0.336 0.383 0.332 0.385Q0.324 0.382 0.319 0.373ZM0.375 0.383 0.372 0.388 0.375 0.390 0.379 0.385ZM0.352 0.388H0.356Q0.356 0.392 0.363 0.399H0.352ZM0.458 0.406H0.459Q0.463 0.410 0.470 0.410Q0.470 0.414 0.466 0.414Q0.460 0.410 0.458 0.410ZM0.337 0.415H0.341L0.348 0.421H0.352V0.415H0.359Q0.365 0.435 0.365 0.445Q0.354 0.434 0.343 0.434V0.432Q0.345 0.432 0.348 0.430Q0.348 0.432 0.350 0.432L0.352 0.428V0.426L0.350 0.422L0.347 0.424L0.337 0.422V0.421L0.339 0.417Q0.337 0.417 0.337 0.415ZM0.456 0.415Q0.470 0.419 0.470 0.422L0.461 0.421Q0.458 0.421 0.458 0.428H0.456ZM0.407 0.417 0.408 0.421V0.424H0.405Q0.405 0.421 0.401 0.421V0.419Q0.403 0.419 0.407 0.417ZM0.458 0.428Q0.459 0.428 0.472 0.445H0.470Q0.467 0.443 0.463 0.443L0.461 0.450H0.459Q0.459 0.441 0.456 0.441Q0.452 0.439 0.450 0.439V0.437Q0.458 0.437 0.458 0.428ZM0.332 0.432H0.339V0.434H0.332ZM0.421 0.432H0.423Q0.423 0.439 0.434 0.439Q0.434 0.443 0.430 0.443H0.421ZM0.310 0.435V0.439H0.306Q0.307 0.435 0.310 0.435ZM0.385 0.437H0.390L0.399 0.439V0.441H0.388Q0.385 0.441 0.385 0.437ZM0.345 0.439Q0.361 0.439 0.368 0.475L0.372 0.477H0.379L0.386 0.472H0.388Q0.388 0.479 0.410 0.484L0.408 0.488V0.490L0.417 0.492Q0.417 0.490 0.419 0.490Q0.423 0.496 0.423 0.499H0.426L0.430 0.497Q0.465 0.530 0.465 0.539V0.544Q0.458 0.544 0.458 0.550H0.456Q0.429 0.535 0.419 0.514Q0.419 0.511 0.407 0.501Q0.403 0.501 0.403 0.505Q0.405 0.505 0.405 0.506H0.401L0.392 0.505Q0.392 0.508 0.388 0.508L0.386 0.505V0.503Q0.398 0.503 0.398 0.499Q0.398 0.495 0.385 0.494Q0.385 0.497 0.381 0.497Q0.381 0.495 0.379 0.495L0.370 0.506Q0.377 0.511 0.377 0.515Q0.380 0.518 0.396 0.519Q0.396 0.515 0.408 0.510L0.414 0.519V0.521H0.412L0.408 0.519L0.407 0.523Q0.407 0.526 0.412 0.526V0.532H0.405V0.533L0.407 0.537H0.403Q0.387 0.532 0.366 0.528Q0.359 0.530 0.359 0.535H0.357Q0.352 0.527 0.352 0.524H0.350Q0.348 0.524 0.348 0.526L0.345 0.524Q0.336 0.533 0.328 0.533Q0.328 0.530 0.325 0.530L0.330 0.523V0.521H0.326V0.519H0.330V0.517L0.326 0.512H0.328Q0.334 0.515 0.337 0.515L0.341 0.510Q0.345 0.512 0.347 0.512V0.514H0.343V0.519Q0.346 0.519 0.352 0.523V0.514Q0.348 0.514 0.341 0.505Q0.343 0.505 0.343 0.503L0.361 0.505H0.365Q0.373 0.500 0.377 0.492Q0.377 0.488 0.363 0.486Q0.344 0.495 0.339 0.495Q0.340 0.492 0.343 0.492Q0.341 0.483 0.330 0.472V0.468L0.332 0.464Q0.330 0.464 0.330 0.463H0.332Q0.341 0.464 0.352 0.479Q0.356 0.479 0.357 0.464Q0.357 0.448 0.337 0.448V0.446Q0.345 0.446 0.345 0.439ZM0.375 0.441H0.377Q0.381 0.460 0.381 0.466V0.468Q0.381 0.472 0.377 0.472H0.372Q0.372 0.462 0.368 0.454Q0.372 0.454 0.375 0.441ZM0.388 0.446H0.396Q0.407 0.447 0.407 0.452Q0.399 0.452 0.396 0.456ZM0.419 0.448H0.428Q0.432 0.449 0.432 0.452V0.454Q0.426 0.450 0.421 0.450Q0.421 0.452 0.419 0.452ZM0.296 0.452H0.297V0.456H0.296ZM0.337 0.454H0.345Q0.352 0.457 0.352 0.466V0.468H0.350L0.334 0.456ZM0.294 0.456H0.296V0.459H0.294ZM0.326 0.457H0.330V0.459H0.326ZM0.390 0.457H0.392V0.463H0.390ZM0.412 0.457Q0.412 0.461 0.403 0.463V0.459ZM0.292 0.461H0.294V0.464H0.292ZM0.430 0.461H0.435V0.463L0.432 0.468V0.472L0.434 0.475H0.428L0.426 0.464H0.432ZM0.446 0.463H0.450L0.454 0.464Q0.451 0.472 0.448 0.472L0.446 0.468ZM0.399 0.466Q0.403 0.467 0.403 0.470L0.399 0.472ZM0.421 0.468 0.423 0.472V0.475Q0.417 0.472 0.414 0.472Q0.414 0.473 0.412 0.473V0.470Q0.418 0.470 0.421 0.468ZM0.408 0.475Q0.411 0.475 0.414 0.481H0.412Q0.408 0.481 0.408 0.477ZM0.434 0.475H0.437V0.477H0.434ZM0.325 0.477H0.326Q0.330 0.478 0.330 0.481H0.328Q0.325 0.481 0.325 0.477ZM0.470 0.481 0.472 0.484V0.488Q0.467 0.484 0.463 0.484V0.482Q0.464 0.482 0.470 0.481ZM0.290 0.482H0.292V0.488H0.290ZM0.332 0.482Q0.336 0.483 0.336 0.486L0.332 0.492Q0.328 0.490 0.326 0.490V0.488Q0.332 0.488 0.332 0.482ZM0.459 0.484H0.463Q0.463 0.488 0.459 0.488ZM0.510 0.488H0.519V0.490L0.516 0.495L0.521 0.499H0.539L0.544 0.503Q0.545 0.499 0.548 0.499H0.555Q0.557 0.499 0.557 0.501L0.561 0.499H0.584Q0.610 0.499 0.630 0.495Q0.630 0.499 0.634 0.499L0.635 0.495Q0.634 0.495 0.634 0.494L0.646 0.490Q0.656 0.494 0.674 0.510Q0.666 0.515 0.663 0.515Q0.650 0.501 0.639 0.495Q0.639 0.498 0.617 0.532H0.597Q0.595 0.532 0.595 0.530L0.592 0.532H0.559L0.561 0.528Q0.555 0.528 0.546 0.505H0.544Q0.537 0.518 0.523 0.532H0.494Q0.492 0.532 0.492 0.530L0.488 0.532H0.481V0.530Q0.489 0.499 0.499 0.499Q0.508 0.499 0.508 0.495Q0.506 0.492 0.506 0.490ZM0.301 0.490H0.303V0.494H0.301ZM0.294 0.492Q0.294 0.496 0.299 0.505V0.506L0.296 0.505Q0.296 0.507 0.290 0.510V0.495Q0.291 0.492 0.294 0.492ZM0.361 0.492 0.370 0.494Q0.370 0.496 0.365 0.499H0.350V0.497Q0.354 0.497 0.361 0.492ZM0.403 0.499H0.410Q0.410 0.495 0.407 0.495Q0.403 0.496 0.403 0.499ZM0.303 0.495Q0.305 0.495 0.312 0.508V0.510Q0.303 0.505 0.303 0.495ZM0.439 0.499H0.488Q0.480 0.512 0.474 0.532H0.468Q0.468 0.529 0.439 0.499ZM0.586 0.501 0.584 0.505 0.592 0.512Q0.592 0.510 0.593 0.510Q0.590 0.502 0.586 0.501ZM0.563 0.503 0.561 0.506Q0.563 0.506 0.570 0.515V0.517L0.557 0.510L0.555 0.514L0.566 0.519Q0.566 0.517 0.568 0.517Q0.569 0.521 0.572 0.521Q0.572 0.519 0.574 0.519Q0.574 0.521 0.576 0.521Q0.576 0.519 0.577 0.519Q0.577 0.515 0.563 0.503ZM0.641 0.503Q0.650 0.507 0.659 0.519Q0.636 0.530 0.623 0.530Q0.641 0.509 0.641 0.503ZM0.503 0.506 0.499 0.512 0.503 0.514 0.506 0.508ZM0.299 0.506H0.301Q0.301 0.510 0.308 0.517Q0.305 0.517 0.305 0.521H0.303Q0.303 0.517 0.299 0.508ZM0.593 0.512Q0.593 0.514 0.592 0.514L0.593 0.517L0.590 0.523Q0.592 0.523 0.592 0.524Q0.588 0.525 0.588 0.528L0.592 0.530L0.593 0.526Q0.592 0.526 0.592 0.524L0.599 0.519Q0.596 0.512 0.593 0.512ZM0.497 0.514 0.492 0.524 0.495 0.526 0.501 0.515ZM0.317 0.514H0.319Q0.324 0.517 0.326 0.517V0.519H0.321ZM0.296 0.515V0.521Q0.292 0.521 0.292 0.517ZM0.544 0.515H0.546V0.517Q0.546 0.521 0.542 0.521H0.541V0.519Q0.542 0.515 0.544 0.515ZM0.310 0.519Q0.319 0.526 0.323 0.526Q0.318 0.542 0.310 0.542V0.526Q0.310 0.524 0.312 0.524L0.310 0.521ZM0.296 0.523H0.297V0.554Q0.297 0.556 0.290 0.561V0.537Q0.296 0.530 0.296 0.523ZM0.305 0.523V0.546Q0.305 0.550 0.301 0.550V0.526Q0.301 0.523 0.305 0.523ZM0.330 0.526V0.530H0.334V0.526ZM0.546 0.524Q0.546 0.529 0.548 0.532H0.537Q0.537 0.529 0.546 0.524ZM0.421 0.526 0.423 0.530V0.532H0.417V0.530Q0.418 0.526 0.421 0.526ZM0.365 0.533Q0.366 0.533 0.394 0.539L0.390 0.544L0.386 0.542H0.372Q0.359 0.542 0.352 0.546Q0.352 0.541 0.347 0.541H0.345V0.539Q0.351 0.539 0.354 0.537Q0.354 0.542 0.357 0.542Q0.361 0.542 0.365 0.533ZM0.426 0.533Q0.434 0.542 0.434 0.542Q0.426 0.551 0.426 0.552V0.554Q0.454 0.571 0.454 0.597Q0.452 0.601 0.452 0.602Q0.456 0.603 0.456 0.606V0.608Q0.448 0.608 0.448 0.612Q0.449 0.619 0.454 0.619L0.452 0.628V0.630L0.454 0.633Q0.448 0.633 0.446 0.641L0.443 0.642Q0.446 0.630 0.446 0.621V0.619L0.445 0.601Q0.448 0.599 0.450 0.599V0.593Q0.440 0.593 0.437 0.566Q0.430 0.555 0.417 0.555L0.415 0.552Q0.421 0.552 0.421 0.548V0.535Q0.423 0.535 0.426 0.533ZM0.412 0.535Q0.412 0.539 0.415 0.539V0.544Q0.413 0.544 0.408 0.537ZM0.328 0.539H0.330V0.555H0.328ZM0.399 0.542H0.401Q0.415 0.549 0.415 0.552H0.414Q0.405 0.546 0.399 0.546ZM0.321 0.544V0.557Q0.316 0.557 0.310 0.561V0.552Q0.314 0.544 0.321 0.544ZM0.363 0.548H0.386V0.555H0.385L0.363 0.550ZM0.336 0.550H0.339V0.552H0.336ZM0.405 0.554H0.407Q0.417 0.560 0.417 0.563Q0.414 0.563 0.407 0.570Q0.403 0.563 0.398 0.563V0.561Q0.398 0.558 0.405 0.554ZM0.450 0.554H0.452Q0.456 0.554 0.459 0.565H0.456Q0.445 0.559 0.445 0.557ZM0.305 0.555V0.565Q0.301 0.565 0.301 0.561V0.559Q0.301 0.555 0.305 0.555ZM0.352 0.555Q0.407 0.561 0.407 0.579V0.581H0.405Q0.405 0.566 0.352 0.563ZM0.297 0.561V0.568Q0.297 0.569 0.292 0.588H0.290V0.570Q0.295 0.561 0.297 0.561ZM0.328 0.561H0.336V0.563Q0.330 0.563 0.330 0.566H0.328ZM0.319 0.563V0.565Q0.319 0.567 0.314 0.570L0.312 0.566V0.565Q0.316 0.565 0.319 0.563ZM0.341 0.565H0.345V0.566H0.341ZM0.345 0.566H0.348Q0.390 0.573 0.398 0.577Q0.403 0.587 0.403 0.591Q0.395 0.581 0.361 0.581Q0.355 0.577 0.350 0.577Q0.350 0.575 0.352 0.575Q0.350 0.568 0.345 0.568ZM0.303 0.572H0.305V0.639Q0.305 0.641 0.306 0.641Q0.305 0.646 0.303 0.646Q0.290 0.642 0.290 0.625V0.606Q0.290 0.603 0.296 0.590H0.297V0.635H0.303V0.621Q0.303 0.607 0.301 0.595Q0.303 0.587 0.303 0.572ZM0.328 0.574H0.330Q0.330 0.584 0.332 0.584Q0.330 0.588 0.330 0.590L0.326 0.588Q0.328 0.586 0.328 0.574ZM0.348 0.574Q0.348 0.577 0.343 0.577H0.337V0.575ZM0.423 0.581Q0.423 0.586 0.426 0.586H0.434V0.582H0.435V0.588L0.428 0.593H0.426L0.428 0.590V0.588H0.426L0.419 0.593Q0.419 0.588 0.417 0.584ZM0.352 0.582Q0.364 0.588 0.372 0.588H0.388Q0.386 0.591 0.386 0.595Q0.360 0.591 0.359 0.591L0.352 0.595ZM0.407 0.582Q0.415 0.587 0.415 0.601V0.606L0.405 0.619L0.408 0.625Q0.401 0.626 0.401 0.632H0.396V0.630Q0.401 0.621 0.401 0.615L0.399 0.602L0.403 0.601L0.407 0.602L0.408 0.599V0.595ZM0.426 0.593Q0.426 0.597 0.441 0.612V0.619Q0.441 0.650 0.421 0.657L0.419 0.653Q0.431 0.636 0.435 0.635Q0.435 0.625 0.421 0.608V0.595Q0.423 0.595 0.426 0.593ZM0.365 0.597Q0.396 0.601 0.396 0.614V0.619L0.383 0.606Q0.373 0.606 0.352 0.608V0.604Q0.355 0.597 0.365 0.597ZM0.383 0.612Q0.386 0.619 0.388 0.619L0.386 0.623V0.628L0.390 0.626Q0.394 0.626 0.394 0.630L0.390 0.632L0.386 0.630V0.641L0.373 0.642H0.366V0.641Q0.381 0.641 0.381 0.626V0.625Q0.381 0.622 0.373 0.617H0.352V0.614Q0.373 0.612 0.383 0.612ZM0.435 0.617V0.630Q0.439 0.630 0.439 0.626V0.617ZM0.458 0.617H0.466V0.621L0.458 0.619ZM0.370 0.623H0.372Q0.375 0.623 0.375 0.626V0.630Q0.375 0.632 0.370 0.635H0.368L0.372 0.630V0.626ZM0.352 0.628H0.366Q0.359 0.636 0.359 0.637Q0.362 0.639 0.365 0.639V0.641H0.363Q0.352 0.639 0.352 0.635ZM0.403 0.635H0.407V0.639Q0.403 0.639 0.403 0.635ZM0.412 0.641H0.421V0.642Q0.415 0.655 0.412 0.655L0.408 0.653Q0.412 0.648 0.412 0.641ZM0.405 0.642H0.407V0.644Q0.405 0.648 0.405 0.650H0.398Q0.398 0.647 0.405 0.642ZM0.290 0.644Q0.296 0.650 0.299 0.650V0.679Q0.299 0.680 0.317 0.697H0.315L0.306 0.690V0.693L0.299 0.688H0.297L0.299 0.692L0.296 0.704Q0.281 0.697 0.279 0.692H0.281Q0.287 0.695 0.290 0.695V0.679Q0.290 0.675 0.289 0.672Q0.290 0.668 0.290 0.664ZM0.348 0.646H0.350V0.653H0.348ZM0.361 0.646 0.370 0.648H0.377L0.386 0.646V0.663Q0.376 0.663 0.361 0.646ZM0.352 0.648 0.377 0.666 0.388 0.668 0.385 0.684Q0.386 0.692 0.388 0.692L0.386 0.695V0.697Q0.386 0.699 0.388 0.699L0.386 0.702V0.706H0.388L0.399 0.700V0.704H0.403Q0.405 0.704 0.405 0.702Q0.405 0.704 0.424 0.704Q0.396 0.731 0.396 0.735V0.737Q0.421 0.761 0.421 0.762L0.419 0.766Q0.419 0.770 0.424 0.770V0.771H0.421Q0.390 0.759 0.386 0.759V0.760Q0.386 0.762 0.388 0.762Q0.386 0.765 0.386 0.775Q0.379 0.770 0.370 0.762Q0.370 0.765 0.350 0.783Q0.350 0.781 0.348 0.781Q0.348 0.783 0.347 0.783V0.781L0.348 0.771H0.350V0.777H0.352V0.764L0.343 0.766H0.332L0.330 0.779H0.328Q0.328 0.775 0.326 0.771Q0.330 0.771 0.330 0.768V0.766H0.325Q0.321 0.766 0.321 0.771H0.319Q0.319 0.762 0.312 0.762L0.314 0.759H0.310V0.757Q0.311 0.757 0.317 0.755H0.319V0.757H0.315V0.760H0.317Q0.328 0.756 0.328 0.753V0.751Q0.328 0.748 0.325 0.748H0.319Q0.314 0.748 0.305 0.753Q0.305 0.750 0.303 0.750Q0.301 0.750 0.297 0.751Q0.284 0.748 0.283 0.748V0.751L0.285 0.755H0.277V0.751H0.274L0.263 0.753H0.261V0.751Q0.276 0.749 0.276 0.739H0.279Q0.283 0.739 0.283 0.746H0.285Q0.288 0.746 0.296 0.734Q0.297 0.734 0.297 0.732Q0.296 0.732 0.296 0.730Q0.306 0.724 0.312 0.724L0.310 0.715L0.319 0.721Q0.333 0.717 0.345 0.717H0.352V0.683Q0.375 0.680 0.375 0.674L0.352 0.653ZM0.326 0.650H0.328L0.334 0.668Q0.329 0.668 0.326 0.651ZM0.308 0.661H0.310Q0.310 0.663 0.319 0.677H0.314L0.308 0.663ZM0.347 0.661H0.348Q0.366 0.670 0.366 0.674V0.675Q0.365 0.675 0.352 0.677Q0.350 0.674 0.350 0.670H0.348V0.675H0.347ZM0.458 0.674V0.677H0.454Q0.454 0.674 0.458 0.674ZM0.405 0.675H0.407Q0.407 0.679 0.403 0.679H0.401Q0.401 0.675 0.405 0.675ZM0.332 0.681H0.334V0.688H0.332ZM0.337 0.681H0.339V0.684H0.337ZM0.345 0.681H0.347V0.700Q0.342 0.700 0.341 0.692L0.345 0.693ZM0.323 0.683H0.325V0.686H0.323ZM0.561 0.683H0.566V0.684H0.561ZM0.339 0.684H0.341V0.690H0.339ZM0.394 0.684H0.399Q0.398 0.688 0.398 0.690H0.396Q0.396 0.688 0.394 0.684ZM0.516 0.684H0.528V0.686Q0.517 0.686 0.510 0.688Q0.510 0.684 0.516 0.684ZM0.274 0.688H0.276Q0.279 0.688 0.279 0.692H0.277Q0.274 0.692 0.274 0.688ZM0.319 0.688H0.321V0.692H0.319ZM0.533 0.688H0.537V0.690H0.533ZM0.334 0.690H0.336V0.702H0.334Q0.334 0.699 0.330 0.695Q0.334 0.695 0.334 0.690ZM0.419 0.690H0.423V0.692H0.419ZM0.488 0.690H0.492V0.692H0.488ZM0.419 0.692Q0.419 0.694 0.414 0.697H0.408V0.695ZM0.306 0.693Q0.310 0.694 0.310 0.697V0.699Q0.306 0.699 0.306 0.695ZM0.486 0.693 0.490 0.695H0.494L0.503 0.693V0.697Q0.484 0.697 0.477 0.708Q0.471 0.711 0.466 0.711H0.463Q0.463 0.709 0.458 0.702Q0.470 0.702 0.474 0.695L0.477 0.697H0.482Q0.486 0.697 0.486 0.693ZM0.326 0.699Q0.326 0.702 0.330 0.708H0.328Q0.325 0.708 0.321 0.700Q0.323 0.700 0.326 0.699ZM0.301 0.702H0.305V0.704H0.301ZM0.305 0.704H0.308V0.706H0.305ZM0.426 0.704H0.437Q0.441 0.705 0.441 0.708Q0.439 0.711 0.439 0.713H0.435Q0.433 0.713 0.426 0.704ZM0.528 0.704H0.532V0.708Q0.528 0.708 0.528 0.704ZM0.297 0.706H0.301V0.708H0.297ZM0.308 0.706H0.312V0.708H0.308ZM0.317 0.706 0.323 0.713H0.321Q0.315 0.710 0.312 0.710V0.708Q0.314 0.708 0.317 0.706ZM0.265 0.708H0.268V0.710H0.265ZM0.268 0.710H0.270L0.294 0.713V0.715H0.289L0.290 0.719H0.287Q0.274 0.711 0.268 0.711ZM0.508 0.711H0.512V0.713H0.508ZM0.294 0.715H0.301V0.717H0.294ZM0.482 0.715Q0.489 0.719 0.492 0.719Q0.479 0.734 0.479 0.735Q0.481 0.735 0.481 0.737L0.472 0.739L0.475 0.734V0.728Q0.472 0.721 0.463 0.721L0.458 0.728V0.737H0.454V0.728Q0.454 0.727 0.445 0.719Q0.446 0.719 0.450 0.721Q0.477 0.719 0.482 0.715ZM0.503 0.715H0.505V0.721Q0.501 0.719 0.499 0.719Q0.500 0.715 0.503 0.715ZM0.301 0.717H0.306V0.719H0.301ZM0.510 0.717H0.512V0.723H0.510ZM0.290 0.719H0.294V0.721H0.290ZM0.434 0.719Q0.434 0.723 0.437 0.723L0.435 0.726V0.730H0.439V0.732H0.435V0.735L0.443 0.743Q0.443 0.745 0.432 0.753H0.428L0.424 0.751Q0.424 0.755 0.421 0.755Q0.421 0.753 0.405 0.739H0.407L0.423 0.741Q0.434 0.736 0.434 0.734Q0.432 0.734 0.432 0.732L0.423 0.734H0.417Q0.414 0.734 0.414 0.730H0.421V0.726H0.417V0.723Q0.420 0.723 0.434 0.719ZM0.294 0.721H0.297V0.723H0.294ZM0.259 0.730H0.285Q0.285 0.734 0.281 0.734L0.259 0.732ZM0.505 0.732H0.508V0.734H0.505ZM0.283 0.734H0.292V0.735H0.283ZM0.407 0.734H0.415V0.735H0.407ZM0.401 0.735H0.405V0.739Q0.401 0.739 0.401 0.735ZM0.459 0.739H0.463V0.741H0.459ZM0.470 0.739H0.472V0.743H0.470ZM0.479 0.743H0.484V0.744H0.479ZM0.463 0.748V0.750Q0.463 0.753 0.459 0.753H0.458Q0.458 0.751 0.463 0.748ZM0.301 0.753H0.305V0.755H0.301ZM0.439 0.753H0.446Q0.450 0.754 0.450 0.757Q0.445 0.757 0.439 0.760ZM0.488 0.753V0.757H0.481V0.755Q0.482 0.755 0.488 0.753ZM0.297 0.755H0.301V0.757H0.297ZM0.308 0.759Q0.308 0.762 0.303 0.762H0.299V0.760ZM0.289 0.760H0.292V0.762H0.289ZM0.287 0.762Q0.289 0.764 0.294 0.764V0.766L0.274 0.771Q0.274 0.770 0.287 0.762ZM0.296 0.762H0.299V0.764H0.296ZM0.339 0.770H0.341V0.792H0.339V0.779H0.336Q0.339 0.773 0.339 0.770ZM0.370 0.770Q0.373 0.770 0.388 0.784L0.386 0.788Q0.387 0.792 0.390 0.792Q0.390 0.790 0.392 0.790L0.394 0.797H0.392L0.386 0.793Q0.386 0.811 0.377 0.811H0.366Q0.364 0.811 0.352 0.797V0.790ZM0.270 0.771H0.274V0.773H0.270ZM0.424 0.771H0.428V0.773H0.424ZM0.392 0.775H0.396V0.777H0.392ZM0.296 0.777Q0.299 0.779 0.301 0.779V0.781Q0.297 0.781 0.289 0.788H0.287ZM0.314 0.777H0.315V0.781H0.314ZM0.403 0.777Q0.403 0.778 0.412 0.788H0.410Q0.401 0.781 0.398 0.781V0.779Q0.399 0.779 0.403 0.777ZM0.326 0.781H0.328V0.784H0.326ZM0.285 0.788H0.287Q0.287 0.792 0.283 0.792H0.281Q0.282 0.788 0.285 0.788ZM0.325 0.788H0.326V0.792H0.325ZM0.306 0.790Q0.310 0.790 0.310 0.793Q0.310 0.796 0.301 0.802V0.801Q0.306 0.792 0.306 0.790ZM0.328 0.792H0.330V0.795H0.328ZM0.323 0.793H0.325Q0.325 0.797 0.326 0.801Q0.319 0.814 0.319 0.817H0.317V0.815ZM0.343 0.797H0.345V0.801H0.343ZM0.396 0.799H0.398V0.802H0.396ZM0.341 0.802H0.343Q0.339 0.821 0.339 0.824H0.337V0.806Q0.338 0.802 0.341 0.802ZM0.297 0.804H0.299V0.808H0.297ZM0.399 0.804H0.401V0.808H0.399ZM0.352 0.806Q0.354 0.806 0.357 0.811H0.352ZM0.357 0.811Q0.361 0.811 0.361 0.817V0.824H0.359Z" fill="black"/>
</svg>
