<svg xmlns="http://www.w3.org/2000/svg" viewBox="0 0 1 1" preserveAspectRatio="xMidYMid meet">
  <path d="M0.591 0.144Q0.598 0.144 0.601 0.158Q0.593 0.167 0.593 0.169H0.591V0.164L0.593 0.151H0.591Q0.586 0.151 0.586 0.166Q0.567 0.164 0.558 0.164V0.168H0.556V0.160L0.566 0.158H0.571L0.578 0.164H0.582V0.151Q0.583 0.147 0.591 0.144ZM0.628 0.149H0.633V0.158H0.632V0.151H0.630Q0.626 0.152 0.626 0.155V0.164H0.621V0.162H0.624V0.153Q0.625 0.149 0.628 0.149ZM0.639 0.160H0.641Q0.644 0.160 0.644 0.166V0.168H0.642Q0.642 0.165 0.639 0.160ZM0.670 0.164H0.675Q0.692 0.164 0.696 0.186V0.195L0.694 0.199Q0.690 0.197 0.688 0.197L0.694 0.190V0.188Q0.689 0.166 0.674 0.166H0.672Q0.651 0.166 0.639 0.197V0.203H0.657V0.266Q0.661 0.266 0.670 0.263Q0.681 0.264 0.681 0.270L0.679 0.274Q0.681 0.277 0.681 0.281V0.283L0.672 0.285H0.657V0.294Q0.657 0.296 0.659 0.296L0.657 0.300V0.455Q0.674 0.453 0.677 0.453Q0.677 0.456 0.687 0.458L0.698 0.453Q0.735 0.453 0.737 0.475Q0.740 0.479 0.743 0.479Q0.732 0.485 0.725 0.495Q0.723 0.489 0.712 0.489L0.719 0.477Q0.715 0.458 0.701 0.458Q0.687 0.462 0.687 0.477L0.681 0.473H0.670Q0.661 0.478 0.661 0.488V0.493H0.657V0.528H0.659Q0.664 0.528 0.666 0.513Q0.664 0.510 0.664 0.506L0.674 0.504H0.683Q0.696 0.504 0.698 0.515H0.696L0.683 0.513L0.681 0.522V0.524L0.683 0.528L0.674 0.526Q0.659 0.526 0.657 0.554Q0.657 0.558 0.648 0.577V0.581H0.653L0.657 0.579V0.612H0.653Q0.653 0.608 0.651 0.608L0.653 0.604V0.602Q0.653 0.601 0.651 0.601L0.653 0.597L0.650 0.592H0.653Q0.653 0.590 0.651 0.590L0.653 0.586Q0.653 0.583 0.650 0.583Q0.650 0.585 0.644 0.588Q0.644 0.584 0.635 0.581Q0.626 0.575 0.626 0.570Q0.626 0.567 0.621 0.564L0.623 0.561V0.559Q0.623 0.546 0.602 0.539H0.601Q0.598 0.539 0.588 0.552V0.554H0.591V0.561H0.588V0.557H0.586Q0.570 0.566 0.564 0.575V0.577L0.566 0.581Q0.555 0.589 0.555 0.590L0.551 0.588Q0.519 0.617 0.506 0.617V0.614Q0.509 0.614 0.509 0.610L0.513 0.612Q0.513 0.606 0.533 0.592V0.588L0.531 0.584Q0.537 0.579 0.540 0.579V0.577L0.531 0.566Q0.539 0.554 0.542 0.554Q0.542 0.559 0.553 0.564Q0.553 0.563 0.564 0.552V0.550Q0.564 0.547 0.553 0.539H0.551Q0.548 0.542 0.511 0.550Q0.472 0.569 0.472 0.586V0.590Q0.476 0.599 0.489 0.599L0.487 0.602Q0.495 0.610 0.496 0.610Q0.494 0.617 0.487 0.617Q0.462 0.611 0.462 0.588Q0.462 0.567 0.506 0.544Q0.528 0.535 0.535 0.535V0.533H0.412Q0.321 0.533 0.283 0.451Q0.269 0.419 0.268 0.393L0.264 0.394V0.389H0.268L0.266 0.376Q0.266 0.270 0.337 0.219Q0.365 0.203 0.392 0.203H0.604Q0.613 0.196 0.613 0.195Q0.623 0.197 0.623 0.201H0.621Q0.617 0.199 0.615 0.199V0.203H0.621Q0.623 0.203 0.623 0.201L0.626 0.203H0.628V0.197H0.637Q0.637 0.174 0.670 0.164ZM0.558 0.168Q0.563 0.168 0.582 0.173Q0.577 0.182 0.577 0.192H0.580Q0.585 0.177 0.590 0.177H0.591L0.593 0.186Q0.593 0.192 0.577 0.195H0.575Q0.571 0.195 0.571 0.192V0.188Q0.573 0.180 0.573 0.175Q0.568 0.175 0.558 0.171ZM0.633 0.168H0.642V0.169H0.633ZM0.619 0.169H0.626V0.171H0.619ZM0.597 0.171H0.599Q0.613 0.175 0.613 0.179H0.612Q0.606 0.175 0.597 0.175ZM0.626 0.171H0.630V0.173H0.626ZM0.630 0.173H0.632V0.179H0.630ZM0.613 0.179H0.615Q0.617 0.179 0.624 0.188V0.190Q0.622 0.190 0.613 0.179ZM0.679 0.182Q0.672 0.191 0.672 0.192Q0.674 0.195 0.674 0.197H0.675L0.679 0.195L0.683 0.203H0.668Q0.664 0.203 0.664 0.199V0.192Q0.669 0.182 0.679 0.182ZM0.624 0.190H0.626V0.193H0.624ZM0.632 0.201V0.203H0.635V0.201ZM0.708 0.199H0.712V0.206Q0.712 0.219 0.698 0.219Q0.694 0.217 0.692 0.217V0.208L0.696 0.210Q0.696 0.207 0.708 0.203ZM0.685 0.206V0.208L0.683 0.219H0.681V0.212H0.679Q0.672 0.217 0.668 0.217Q0.668 0.213 0.685 0.206ZM0.666 0.219H0.668V0.223H0.666ZM0.677 0.221H0.679V0.223Q0.673 0.224 0.672 0.224Q0.672 0.221 0.677 0.221ZM0.301 0.367Q0.301 0.457 0.367 0.493Q0.386 0.500 0.423 0.500H0.577Q0.579 0.500 0.584 0.493V0.491Q0.549 0.491 0.496 0.442Q0.491 0.442 0.485 0.434H0.487Q0.546 0.475 0.556 0.475H0.571Q0.584 0.475 0.584 0.462V0.457Q0.565 0.462 0.555 0.462H0.553Q0.528 0.459 0.528 0.442V0.440Q0.528 0.435 0.535 0.434H0.537V0.436Q0.531 0.436 0.531 0.446Q0.538 0.451 0.546 0.451Q0.554 0.451 0.573 0.444V0.440Q0.571 0.440 0.558 0.436V0.434H0.564Q0.578 0.440 0.578 0.442Q0.593 0.434 0.613 0.434L0.623 0.436V0.287H0.619L0.617 0.300V0.374L0.619 0.396L0.615 0.398V0.300H0.612V0.303L0.608 0.301H0.606V0.321H0.602V0.300L0.601 0.296Q0.604 0.296 0.604 0.292H0.606V0.296H0.610V0.289H0.613V0.285Q0.602 0.285 0.602 0.277H0.593Q0.591 0.277 0.591 0.279L0.588 0.277H0.586Q0.581 0.283 0.578 0.283V0.285Q0.584 0.289 0.584 0.292H0.588V0.289L0.586 0.285H0.593Q0.589 0.290 0.586 0.303H0.582L0.578 0.301L0.580 0.298Q0.580 0.294 0.577 0.294L0.578 0.290V0.289H0.571V0.290L0.567 0.289H0.566V0.290L0.567 0.294Q0.564 0.294 0.564 0.298H0.558Q0.558 0.285 0.542 0.285V0.281H0.537L0.529 0.287H0.528V0.285Q0.528 0.280 0.537 0.279V0.276Q0.533 0.276 0.529 0.265V0.255H0.526V0.253Q0.531 0.253 0.531 0.250Q0.531 0.248 0.529 0.248L0.531 0.244L0.529 0.241L0.537 0.239V0.235H0.410Q0.336 0.235 0.313 0.305Q0.306 0.318 0.301 0.367ZM0.542 0.250V0.263Q0.544 0.270 0.555 0.274V0.276H0.562Q0.567 0.276 0.577 0.268V0.265H0.573V0.263L0.580 0.261V0.255Q0.580 0.244 0.562 0.235Q0.546 0.240 0.542 0.250ZM0.586 0.239H0.593Q0.593 0.237 0.599 0.237V0.235H0.593V0.237L0.590 0.235Q0.586 0.236 0.586 0.239ZM0.601 0.235 0.602 0.239H0.595Q0.596 0.243 0.599 0.243Q0.593 0.255 0.590 0.255V0.261Q0.595 0.261 0.595 0.265V0.266L0.593 0.276H0.612V0.277H0.606V0.281L0.615 0.283L0.617 0.279V0.276H0.612V0.274Q0.615 0.274 0.619 0.272V0.285H0.623V0.250Q0.623 0.248 0.621 0.248L0.623 0.244Q0.623 0.243 0.621 0.243L0.623 0.239V0.235H0.617Q0.615 0.235 0.615 0.237L0.612 0.235ZM0.612 0.239H0.613V0.243H0.612ZM0.590 0.243V0.248H0.591Q0.595 0.248 0.595 0.244V0.243ZM0.612 0.243V0.246H0.608Q0.608 0.243 0.612 0.243ZM0.602 0.246H0.608V0.250Q0.605 0.250 0.601 0.253V0.252Q0.602 0.248 0.602 0.246ZM0.560 0.248Q0.567 0.251 0.567 0.253V0.259Q0.567 0.261 0.562 0.265Q0.557 0.264 0.553 0.257Q0.553 0.255 0.560 0.248ZM0.617 0.248H0.621V0.250H0.617ZM0.613 0.250H0.617Q0.617 0.253 0.613 0.253ZM0.520 0.252H0.524V0.253H0.520ZM0.569 0.265H0.573V0.266H0.569ZM0.526 0.266H0.529V0.268H0.526ZM0.569 0.266V0.270L0.556 0.272H0.555V0.270Q0.556 0.270 0.569 0.266ZM0.657 0.272V0.279H0.668V0.272ZM0.687 0.272H0.690V0.274H0.687ZM0.690 0.274H0.692Q0.696 0.274 0.696 0.277V0.289H0.699V0.290L0.688 0.294Q0.694 0.287 0.694 0.281V0.279ZM0.582 0.283H0.586V0.285H0.582ZM0.705 0.285H0.716V0.287H0.705ZM0.593 0.287H0.597V0.289H0.593ZM0.699 0.287H0.705V0.289H0.699ZM0.717 0.287H0.719Q0.723 0.287 0.723 0.290H0.721Q0.717 0.290 0.717 0.287ZM0.612 0.290V0.296H0.615V0.290ZM0.685 0.294H0.688V0.296H0.685ZM0.679 0.296H0.685V0.298H0.679ZM0.728 0.296H0.730V0.300H0.728ZM0.732 0.305H0.734V0.318H0.732ZM0.707 0.321Q0.710 0.323 0.712 0.323L0.708 0.336Q0.714 0.339 0.717 0.339L0.716 0.349H0.707L0.708 0.339H0.703Q0.703 0.345 0.698 0.345Q0.694 0.343 0.692 0.343L0.694 0.334L0.707 0.336V0.334L0.701 0.327V0.325Q0.701 0.321 0.707 0.321ZM0.248 0.420 0.250 0.423Q0.248 0.427 0.248 0.429H0.246Q0.242 0.429 0.242 0.425Q0.244 0.425 0.244 0.423H0.241V0.422ZM0.472 0.429H0.476V0.431H0.472ZM0.478 0.431H0.482V0.433H0.478ZM0.482 0.433H0.485V0.434H0.482ZM0.537 0.433H0.544V0.434H0.537ZM0.551 0.433H0.558V0.434H0.551ZM0.595 0.451V0.453Q0.601 0.458 0.606 0.475Q0.610 0.475 0.617 0.460H0.623V0.451Q0.609 0.449 0.608 0.449ZM0.703 0.464H0.707Q0.710 0.464 0.714 0.471V0.475Q0.714 0.488 0.701 0.488Q0.690 0.484 0.690 0.473Q0.693 0.464 0.703 0.464ZM0.372 0.482H0.376V0.484H0.372ZM0.750 0.482H0.754V0.484H0.750ZM0.690 0.486Q0.694 0.486 0.694 0.489H0.690ZM0.739 0.486H0.743Q0.752 0.486 0.756 0.497Q0.756 0.506 0.743 0.509Q0.732 0.506 0.732 0.497V0.493Q0.732 0.490 0.739 0.486ZM0.295 0.489H0.299V0.491H0.295ZM0.694 0.489H0.698V0.491H0.694ZM0.707 0.489H0.710V0.491H0.707ZM0.698 0.491H0.707L0.705 0.495Q0.701 0.493 0.698 0.493ZM0.759 0.504V0.506Q0.758 0.509 0.758 0.513Q0.754 0.511 0.752 0.511V0.509Q0.755 0.509 0.759 0.504ZM0.732 0.507Q0.732 0.512 0.741 0.513V0.515Q0.734 0.515 0.734 0.526V0.531L0.737 0.537Q0.735 0.537 0.723 0.544L0.725 0.535Q0.725 0.522 0.716 0.522V0.520Q0.722 0.520 0.732 0.507ZM0.752 0.515H0.754V0.518Q0.743 0.533 0.739 0.533Q0.737 0.527 0.737 0.526Q0.741 0.515 0.752 0.515ZM0.571 0.533Q0.571 0.536 0.577 0.539Q0.579 0.539 0.582 0.533ZM0.615 0.533V0.535Q0.621 0.535 0.621 0.544H0.623V0.533ZM0.675 0.531Q0.687 0.531 0.687 0.542V0.546Q0.687 0.549 0.679 0.554Q0.665 0.554 0.664 0.548V0.542Q0.664 0.531 0.675 0.531ZM0.688 0.531H0.696V0.541L0.703 0.550V0.552H0.699L0.688 0.554H0.687V0.552Q0.691 0.552 0.692 0.542Q0.688 0.535 0.688 0.531ZM0.632 0.568Q0.632 0.572 0.635 0.572Q0.635 0.570 0.637 0.570Q0.637 0.572 0.639 0.572V0.564H0.635Q0.632 0.565 0.632 0.568ZM0.597 0.570Q0.600 0.572 0.604 0.572V0.573H0.597ZM0.615 0.572Q0.613 0.575 0.613 0.577Q0.610 0.575 0.606 0.575V0.573ZM0.612 0.579H0.617V0.581H0.612ZM0.518 0.583Q0.521 0.583 0.524 0.588Q0.518 0.588 0.515 0.597H0.513Q0.510 0.597 0.507 0.592V0.590Q0.511 0.590 0.518 0.583ZM0.597 0.583H0.604V0.584Q0.604 0.586 0.591 0.595V0.593Q0.597 0.585 0.597 0.583ZM0.621 0.588H0.623V0.592H0.621ZM0.637 0.590 0.639 0.593V0.599Q0.639 0.602 0.635 0.602L0.632 0.597V0.595Q0.632 0.593 0.637 0.590ZM0.586 0.604H0.590L0.601 0.614H0.602Q0.605 0.614 0.612 0.604Q0.622 0.606 0.624 0.612H0.626L0.624 0.615V0.617L0.626 0.621L0.633 0.617Q0.633 0.619 0.635 0.619Q0.640 0.610 0.642 0.610Q0.642 0.612 0.644 0.612Q0.646 0.608 0.646 0.606H0.648Q0.648 0.611 0.650 0.614V0.619H0.657V0.645L0.653 0.643Q0.651 0.649 0.650 0.649L0.642 0.645Q0.642 0.647 0.641 0.647Q0.641 0.645 0.639 0.645Q0.639 0.647 0.637 0.647V0.645Q0.631 0.650 0.623 0.650Q0.626 0.644 0.626 0.641Q0.623 0.641 0.623 0.638V0.617Q0.606 0.634 0.599 0.634Q0.599 0.632 0.597 0.632Q0.597 0.634 0.595 0.634Q0.595 0.630 0.591 0.630V0.632L0.573 0.628V0.630L0.569 0.628L0.566 0.630Q0.566 0.628 0.564 0.628Q0.564 0.630 0.562 0.630V0.628L0.551 0.632Q0.551 0.630 0.549 0.630V0.634L0.546 0.632Q0.537 0.639 0.537 0.649H0.528L0.529 0.645Q0.529 0.643 0.528 0.643Q0.538 0.621 0.555 0.621Q0.580 0.604 0.586 0.604ZM0.628 0.608Q0.632 0.609 0.632 0.612H0.628ZM0.628 0.625V0.628Q0.630 0.628 0.630 0.626L0.633 0.628L0.637 0.626V0.630Q0.632 0.630 0.632 0.634Q0.632 0.637 0.637 0.639H0.642V0.636L0.641 0.632H0.646V0.625Q0.644 0.625 0.641 0.623Q0.641 0.625 0.639 0.625Q0.639 0.621 0.635 0.621H0.632Q0.628 0.622 0.628 0.625ZM0.513 0.630H0.517Q0.520 0.631 0.520 0.634V0.636Q0.520 0.639 0.518 0.643Q0.520 0.647 0.520 0.649H0.513Q0.510 0.649 0.504 0.639Q0.504 0.637 0.513 0.630ZM0.469 0.632 0.471 0.636 0.458 0.645Q0.458 0.642 0.451 0.638L0.444 0.645H0.407Q0.375 0.645 0.347 0.652H0.345V0.650Q0.375 0.634 0.414 0.634H0.465ZM0.489 0.632H0.496V0.634Q0.477 0.647 0.474 0.647H0.472V0.645Q0.477 0.645 0.480 0.638ZM0.562 0.638V0.639L0.566 0.638H0.586V0.639Q0.562 0.647 0.546 0.647Q0.546 0.641 0.562 0.638ZM0.651 0.649H0.653V0.652H0.651ZM0.341 0.652H0.345V0.654H0.341ZM0.653 0.652H0.657V0.656Q0.653 0.656 0.653 0.652ZM0.644 0.654 0.657 0.668V0.681Q0.636 0.679 0.624 0.672Q0.624 0.674 0.623 0.674V0.665Q0.623 0.660 0.644 0.654ZM0.623 0.681H0.626V0.683H0.623ZM0.626 0.683H0.632V0.687Q0.633 0.687 0.633 0.685Q0.657 0.688 0.657 0.692V0.701L0.637 0.688H0.632V0.692Q0.632 0.697 0.635 0.709Q0.633 0.709 0.633 0.711Q0.635 0.711 0.635 0.712H0.632Q0.632 0.714 0.633 0.714Q0.630 0.725 0.624 0.725L0.626 0.729L0.623 0.731V0.698Q0.630 0.691 0.630 0.687Q0.626 0.687 0.626 0.683ZM0.642 0.701 0.650 0.707 0.646 0.714Q0.648 0.717 0.648 0.722V0.723L0.641 0.720L0.642 0.716Q0.642 0.714 0.641 0.714Q0.642 0.707 0.644 0.707L0.642 0.703ZM0.648 0.723H0.650V0.729H0.648ZM0.639 0.729H0.641Q0.641 0.731 0.642 0.734H0.641Q0.644 0.742 0.644 0.747L0.641 0.745Q0.639 0.755 0.639 0.756L0.635 0.754Q0.635 0.756 0.633 0.760Q0.635 0.760 0.635 0.762Q0.632 0.762 0.632 0.765V0.772Q0.635 0.772 0.635 0.774Q0.644 0.774 0.655 0.754H0.659V0.756L0.653 0.769H0.655L0.653 0.772Q0.655 0.776 0.655 0.778H0.653L0.655 0.782V0.783Q0.646 0.783 0.642 0.804L0.646 0.806H0.650Q0.655 0.806 0.655 0.795H0.657Q0.657 0.802 0.659 0.809H0.661L0.674 0.807Q0.674 0.811 0.679 0.811V0.813Q0.648 0.813 0.648 0.819Q0.644 0.837 0.641 0.837Q0.638 0.837 0.630 0.815Q0.628 0.815 0.615 0.813V0.811H0.619V0.809L0.617 0.800Q0.623 0.800 0.623 0.793L0.617 0.769H0.619L0.623 0.771V0.762Q0.605 0.746 0.595 0.742Q0.595 0.747 0.591 0.747Q0.591 0.745 0.590 0.745Q0.593 0.738 0.593 0.734L0.623 0.754Q0.623 0.738 0.633 0.738Q0.639 0.734 0.639 0.729ZM0.692 0.729V0.731Q0.687 0.735 0.685 0.754Q0.681 0.754 0.681 0.751V0.742H0.679L0.674 0.745H0.672V0.743Q0.672 0.741 0.692 0.729ZM0.650 0.734H0.651V0.738H0.650ZM0.651 0.740Q0.655 0.740 0.655 0.743L0.651 0.745ZM0.663 0.749V0.751Q0.663 0.754 0.659 0.754V0.753Q0.660 0.749 0.663 0.749ZM0.591 0.754H0.595Q0.595 0.758 0.591 0.758ZM0.675 0.763H0.681Q0.680 0.778 0.675 0.778Q0.675 0.776 0.674 0.776L0.677 0.765Q0.675 0.765 0.675 0.763ZM0.602 0.774H0.604V0.783H0.602ZM0.604 0.783H0.606V0.791H0.604ZM0.674 0.795H0.675Q0.697 0.809 0.699 0.809V0.811Q0.699 0.815 0.696 0.815L0.674 0.796ZM0.577 0.806H0.580V0.809H0.577ZM0.571 0.813 0.573 0.817V0.819Q0.567 0.819 0.567 0.822V0.824H0.588L0.593 0.828V0.826Q0.596 0.828 0.604 0.828V0.829H0.586L0.582 0.828V0.829L0.578 0.828H0.558L0.555 0.826Q0.555 0.828 0.553 0.828L0.551 0.824Q0.568 0.813 0.571 0.813ZM0.710 0.820H0.714Q0.714 0.823 0.719 0.829V0.831Q0.717 0.831 0.710 0.822ZM0.694 0.826 0.692 0.829Q0.694 0.829 0.694 0.831H0.677V0.828ZM0.661 0.828V0.831H0.657Q0.658 0.828 0.661 0.828ZM0.701 0.828H0.703Q0.707 0.828 0.707 0.831H0.705Q0.701 0.831 0.701 0.828ZM0.659 0.833V0.835Q0.657 0.844 0.653 0.844V0.838Q0.653 0.836 0.659 0.833ZM0.623 0.840H0.626Q0.626 0.844 0.623 0.844ZM0.651 0.846H0.653V0.849H0.651ZM0.633 0.869 0.637 0.871Q0.637 0.869 0.639 0.869Q0.639 0.877 0.642 0.877V0.873H0.644V0.880L0.641 0.879H0.639L0.635 0.880Q0.633 0.875 0.632 0.875Q0.633 0.871 0.633 0.869Z" fill="black"/>
</svg>
