<svg xmlns="http://www.w3.org/2000/svg" viewBox="0 0 1 1" preserveAspectRatio="xMidYMid meet">
  <path d="M0.600 0.179H0.611V0.181H0.600ZM0.591 0.181H0.596V0.183H0.591ZM0.631 0.183H0.636L0.638 0.186H0.636Q0.633 0.184 0.631 0.184ZM0.609 0.186Q0.612 0.188 0.616 0.188V0.190Q0.601 0.190 0.600 0.192V0.190Q0.594 0.193 0.591 0.193H0.589V0.192Q0.609 0.187 0.609 0.186ZM0.638 0.186H0.642V0.188H0.638ZM0.642 0.188H0.644Q0.649 0.193 0.653 0.193V0.197H0.651Q0.645 0.192 0.642 0.192ZM0.282 0.190H0.283V0.197H0.282ZM0.571 0.192H0.576V0.193Q0.574 0.193 0.571 0.195ZM0.567 0.195H0.571Q0.571 0.199 0.567 0.199ZM0.563 0.199H0.567V0.203H0.563ZM0.578 0.201V0.203Q0.578 0.206 0.574 0.206H0.572V0.203Q0.574 0.203 0.578 0.201ZM0.707 0.201Q0.711 0.203 0.713 0.203V0.208Q0.709 0.208 0.687 0.237Q0.687 0.228 0.683 0.228L0.685 0.225V0.223Q0.678 0.223 0.678 0.214L0.674 0.216L0.667 0.206L0.670 0.205Q0.671 0.208 0.674 0.208H0.676Q0.676 0.203 0.680 0.203H0.705Q0.707 0.203 0.707 0.201ZM0.236 0.203H0.244Q0.253 0.203 0.253 0.206Q0.259 0.203 0.264 0.203H0.273Q0.289 0.229 0.295 0.235Q0.302 0.245 0.302 0.248V0.255Q0.306 0.255 0.309 0.257Q0.309 0.255 0.311 0.255L0.325 0.277Q0.325 0.281 0.322 0.281Q0.322 0.279 0.320 0.279Q0.320 0.281 0.318 0.281Q0.318 0.279 0.317 0.279V0.281L0.309 0.277Q0.309 0.279 0.307 0.279Q0.307 0.277 0.298 0.272Q0.298 0.274 0.296 0.274Q0.296 0.272 0.295 0.272L0.291 0.277L0.293 0.281H0.289Q0.284 0.268 0.280 0.268V0.272H0.278V0.266Q0.280 0.266 0.280 0.265Q0.276 0.265 0.247 0.217Q0.244 0.217 0.236 0.203ZM0.561 0.203H0.563V0.206H0.561ZM0.598 0.205V0.206L0.602 0.205Q0.616 0.205 0.631 0.214V0.217Q0.622 0.217 0.620 0.237V0.250Q0.629 0.264 0.629 0.266L0.633 0.265Q0.633 0.272 0.658 0.276Q0.658 0.274 0.660 0.274Q0.660 0.276 0.662 0.276Q0.662 0.273 0.681 0.263L0.680 0.259H0.683Q0.683 0.276 0.713 0.286Q0.727 0.295 0.727 0.297Q0.692 0.322 0.691 0.334Q0.691 0.359 0.674 0.359V0.357Q0.671 0.359 0.669 0.359Q0.652 0.348 0.649 0.348V0.344H0.654Q0.664 0.344 0.687 0.326V0.321Q0.683 0.321 0.680 0.319Q0.680 0.321 0.678 0.321Q0.678 0.319 0.676 0.319V0.321L0.672 0.319H0.651L0.647 0.317Q0.647 0.319 0.645 0.319Q0.645 0.317 0.644 0.317V0.319L0.640 0.317H0.638Q0.636 0.317 0.636 0.319L0.633 0.317Q0.612 0.321 0.612 0.326H0.611L0.607 0.325Q0.607 0.328 0.589 0.334V0.337Q0.589 0.340 0.595 0.343Q0.595 0.341 0.596 0.341Q0.596 0.343 0.598 0.343Q0.598 0.341 0.600 0.341Q0.600 0.343 0.602 0.343V0.341L0.614 0.344Q0.614 0.343 0.616 0.343Q0.616 0.344 0.618 0.344Q0.618 0.343 0.620 0.343Q0.620 0.344 0.621 0.344Q0.621 0.343 0.623 0.343Q0.623 0.344 0.625 0.344Q0.625 0.343 0.627 0.343Q0.627 0.344 0.629 0.344Q0.629 0.343 0.631 0.343Q0.631 0.344 0.633 0.344Q0.633 0.343 0.634 0.343Q0.634 0.344 0.636 0.344Q0.636 0.343 0.638 0.343L0.640 0.346Q0.596 0.346 0.596 0.362Q0.576 0.388 0.572 0.388Q0.572 0.385 0.569 0.385V0.386Q0.562 0.385 0.556 0.381Q0.556 0.364 0.572 0.352Q0.571 0.349 0.571 0.344Q0.572 0.344 0.582 0.332Q0.572 0.332 0.572 0.319H0.569V0.343H0.565V0.321Q0.565 0.317 0.561 0.317H0.560L0.561 0.326V0.339Q0.561 0.343 0.544 0.346H0.542L0.544 0.343V0.341L0.542 0.337H0.545L0.554 0.339V0.332H0.551L0.547 0.334V0.330L0.549 0.317H0.551V0.321H0.554V0.313Q0.554 0.304 0.551 0.304L0.553 0.292V0.250H0.547Q0.547 0.257 0.542 0.257Q0.542 0.255 0.540 0.252Q0.546 0.246 0.556 0.239L0.558 0.242V0.244H0.554L0.556 0.255H0.561L0.563 0.248L0.561 0.239L0.565 0.241V0.237Q0.567 0.237 0.567 0.239Q0.591 0.228 0.591 0.206Q0.592 0.206 0.598 0.205ZM0.627 0.205H0.631Q0.631 0.208 0.634 0.208V0.210H0.625Q0.627 0.206 0.627 0.205ZM0.282 0.206H0.283V0.216H0.282ZM0.558 0.206H0.561V0.210Q0.558 0.210 0.558 0.206ZM0.662 0.206H0.665V0.208H0.662ZM0.556 0.210H0.560V0.212Q0.558 0.215 0.558 0.217H0.556ZM0.567 0.212H0.569V0.216H0.567ZM0.653 0.214Q0.656 0.214 0.656 0.217V0.221H0.654L0.651 0.219Q0.653 0.216 0.653 0.214ZM0.565 0.216Q0.569 0.216 0.569 0.219Q0.565 0.219 0.565 0.226L0.561 0.225Q0.565 0.218 0.565 0.216ZM0.553 0.219H0.556V0.225H0.554Q0.554 0.223 0.553 0.219ZM0.667 0.219Q0.674 0.219 0.678 0.235H0.680L0.678 0.239Q0.678 0.241 0.680 0.241Q0.676 0.259 0.662 0.265Q0.660 0.265 0.656 0.266V0.265L0.653 0.266H0.651L0.647 0.265Q0.647 0.266 0.645 0.266Q0.630 0.256 0.627 0.242L0.629 0.239L0.627 0.235H0.631V0.234Q0.631 0.232 0.629 0.232Q0.629 0.229 0.638 0.221Q0.645 0.224 0.645 0.226V0.228H0.644L0.640 0.226Q0.642 0.233 0.642 0.239H0.645V0.228H0.647V0.237H0.654Q0.656 0.230 0.656 0.223H0.658V0.228Q0.660 0.228 0.667 0.219ZM0.704 0.228 0.713 0.230Q0.716 0.228 0.718 0.228L0.716 0.232V0.235L0.721 0.242Q0.715 0.242 0.709 0.250Q0.709 0.242 0.698 0.242Q0.704 0.238 0.704 0.228ZM0.565 0.244V0.248H0.569V0.244ZM0.569 0.255V0.259H0.572V0.255ZM0.561 0.265Q0.563 0.268 0.563 0.270L0.567 0.268Q0.567 0.276 0.591 0.288L0.595 0.286Q0.595 0.290 0.598 0.290H0.600V0.288Q0.600 0.284 0.585 0.281Q0.585 0.276 0.580 0.276Q0.580 0.277 0.578 0.277Q0.578 0.275 0.569 0.266Q0.571 0.266 0.571 0.265H0.565L0.567 0.261H0.565Q0.561 0.261 0.561 0.265ZM0.741 0.263 0.745 0.265H0.749L0.758 0.263Q0.758 0.272 0.764 0.277Q0.753 0.279 0.753 0.286Q0.745 0.279 0.738 0.279L0.743 0.270Q0.741 0.267 0.741 0.263ZM0.531 0.265 0.533 0.268Q0.531 0.268 0.531 0.270Q0.533 0.270 0.533 0.272Q0.530 0.272 0.522 0.284L0.524 0.288L0.511 0.293V0.292L0.507 0.293H0.505Q0.501 0.290 0.494 0.290V0.288H0.502V0.286L0.500 0.283Q0.517 0.283 0.531 0.265ZM0.280 0.272H0.282V0.276H0.280ZM0.282 0.277H0.285V0.281Q0.282 0.281 0.282 0.277ZM0.569 0.281 0.567 0.288H0.569Q0.572 0.288 0.574 0.281ZM0.285 0.281H0.287V0.284H0.285ZM0.300 0.283H0.302Q0.306 0.286 0.318 0.288V0.286Q0.325 0.288 0.325 0.290L0.329 0.288Q0.352 0.310 0.404 0.386Q0.412 0.399 0.416 0.399Q0.439 0.389 0.467 0.366H0.469Q0.451 0.386 0.418 0.406L0.422 0.408Q0.422 0.406 0.424 0.406Q0.424 0.417 0.438 0.434V0.435H0.440Q0.440 0.432 0.443 0.430L0.447 0.432L0.451 0.430V0.441H0.449L0.445 0.439L0.443 0.443L0.471 0.477L0.502 0.439L0.511 0.443Q0.511 0.441 0.512 0.441V0.443L0.516 0.441H0.518Q0.520 0.441 0.520 0.443L0.531 0.439V0.441L0.535 0.439H0.538Q0.491 0.501 0.491 0.508Q0.502 0.521 0.645 0.717Q0.641 0.717 0.629 0.731V0.735H0.627Q0.621 0.717 0.616 0.717L0.609 0.721Q0.522 0.606 0.520 0.601H0.518V0.606L0.520 0.610L0.511 0.608Q0.508 0.610 0.502 0.610Q0.502 0.602 0.496 0.597V0.595Q0.507 0.595 0.507 0.584Q0.504 0.583 0.469 0.535H0.467Q0.407 0.626 0.402 0.626Q0.384 0.640 0.384 0.644L0.382 0.655H0.384L0.371 0.677Q0.371 0.686 0.367 0.686Q0.367 0.682 0.364 0.682Q0.358 0.692 0.358 0.693H0.351L0.355 0.686L0.351 0.679Q0.355 0.679 0.355 0.673Q0.353 0.670 0.353 0.668Q0.360 0.665 0.360 0.663V0.661Q0.358 0.661 0.355 0.659V0.663H0.351Q0.351 0.655 0.347 0.655H0.345V0.653Q0.346 0.650 0.349 0.650Q0.346 0.642 0.342 0.635H0.343Q0.351 0.638 0.351 0.640Q0.357 0.639 0.362 0.630Q0.360 0.630 0.360 0.628Q0.371 0.619 0.447 0.508V0.506Q0.447 0.504 0.416 0.462Q0.404 0.439 0.396 0.439Q0.396 0.441 0.394 0.441Q0.391 0.436 0.391 0.434H0.387Q0.387 0.439 0.385 0.439L0.382 0.437Q0.379 0.439 0.373 0.439V0.441L0.378 0.448L0.375 0.450H0.371Q0.371 0.445 0.366 0.445V0.450H0.364L0.362 0.441Q0.364 0.437 0.364 0.435L0.367 0.437L0.369 0.428Q0.367 0.428 0.367 0.426Q0.368 0.426 0.375 0.424V0.422H0.373Q0.355 0.425 0.355 0.430V0.435H0.351Q0.342 0.426 0.333 0.426V0.424Q0.333 0.422 0.347 0.417L0.351 0.419Q0.355 0.419 0.364 0.415L0.362 0.411Q0.362 0.408 0.366 0.408L0.369 0.413Q0.371 0.413 0.371 0.411L0.380 0.413H0.382V0.410Q0.378 0.410 0.356 0.373L0.327 0.335L0.324 0.337Q0.324 0.335 0.322 0.332H0.324L0.327 0.334V0.332Q0.323 0.332 0.315 0.313H0.313V0.317H0.311Q0.311 0.308 0.300 0.293V0.288L0.302 0.284Q0.300 0.284 0.300 0.283ZM0.287 0.284H0.291V0.288Q0.287 0.288 0.287 0.284ZM0.587 0.290Q0.585 0.300 0.585 0.301Q0.589 0.301 0.589 0.304H0.585V0.326H0.587Q0.587 0.323 0.593 0.317V0.301H0.589L0.591 0.297V0.290ZM0.596 0.293Q0.595 0.297 0.595 0.301V0.313Q0.605 0.299 0.607 0.299V0.295Q0.601 0.293 0.596 0.293ZM0.464 0.293H0.467V0.295H0.464ZM0.494 0.302Q0.498 0.304 0.503 0.304Q0.473 0.341 0.438 0.341Q0.424 0.338 0.424 0.328V0.323H0.426Q0.426 0.335 0.436 0.335Q0.466 0.335 0.494 0.302ZM0.540 0.310H0.542V0.312Q0.537 0.350 0.531 0.350H0.529V0.348Q0.529 0.343 0.540 0.310ZM0.745 0.312H0.747Q0.751 0.312 0.751 0.315L0.747 0.317H0.745ZM0.529 0.315H0.531V0.319H0.529ZM0.313 0.319H0.315V0.323H0.313ZM0.527 0.319H0.529V0.323H0.527ZM0.525 0.323H0.527V0.326H0.525ZM0.633 0.325Q0.633 0.326 0.634 0.326Q0.634 0.325 0.636 0.325Q0.636 0.326 0.638 0.326V0.325L0.642 0.326H0.669Q0.663 0.331 0.663 0.334Q0.662 0.334 0.662 0.332L0.653 0.337H0.649L0.645 0.335Q0.645 0.337 0.644 0.337Q0.644 0.335 0.642 0.335Q0.642 0.337 0.640 0.337Q0.640 0.335 0.638 0.335Q0.638 0.337 0.636 0.337Q0.636 0.335 0.634 0.335V0.337L0.631 0.335H0.629L0.625 0.337Q0.625 0.334 0.621 0.334Q0.621 0.335 0.620 0.335Q0.620 0.334 0.618 0.334Q0.618 0.335 0.616 0.335V0.334Q0.617 0.330 0.620 0.330V0.332ZM0.524 0.326H0.525V0.328Q0.520 0.352 0.512 0.353V0.355Q0.512 0.357 0.514 0.357Q0.500 0.386 0.489 0.386Q0.489 0.380 0.487 0.377L0.491 0.375Q0.493 0.375 0.493 0.377Q0.499 0.377 0.524 0.326ZM0.727 0.332Q0.727 0.335 0.730 0.339Q0.727 0.339 0.727 0.344Q0.724 0.343 0.720 0.343V0.335Q0.723 0.335 0.727 0.332ZM0.609 0.334H0.614V0.335H0.609ZM0.505 0.339H0.507V0.343H0.505ZM0.502 0.344H0.503V0.348H0.502ZM0.500 0.350V0.352Q0.500 0.355 0.496 0.355V0.353Q0.497 0.350 0.500 0.350ZM0.558 0.350H0.561V0.352H0.558ZM0.554 0.352H0.558Q0.558 0.355 0.554 0.355ZM0.300 0.355 0.302 0.359V0.364Q0.294 0.361 0.293 0.357Q0.297 0.357 0.300 0.355ZM0.496 0.355V0.357Q0.473 0.395 0.449 0.408Q0.449 0.412 0.447 0.415L0.443 0.413Q0.440 0.415 0.438 0.415V0.406Q0.464 0.392 0.464 0.377H0.465Q0.467 0.377 0.467 0.379Q0.475 0.379 0.496 0.355ZM0.320 0.357H0.325V0.364H0.324Q0.324 0.359 0.320 0.359ZM0.478 0.357V0.359Q0.478 0.362 0.475 0.362H0.473Q0.473 0.360 0.478 0.357ZM0.336 0.359H0.338V0.362H0.336ZM0.283 0.364Q0.287 0.365 0.287 0.368V0.372Q0.287 0.375 0.283 0.375V0.373L0.285 0.370Q0.283 0.366 0.283 0.364ZM0.681 0.364H0.685V0.366H0.681ZM0.287 0.373H0.291V0.375H0.287ZM0.324 0.373Q0.327 0.374 0.327 0.377L0.324 0.379H0.322Q0.324 0.375 0.324 0.373ZM0.343 0.373Q0.347 0.375 0.349 0.375V0.377Q0.349 0.381 0.345 0.381L0.342 0.379Q0.343 0.375 0.343 0.373ZM0.609 0.373H0.612V0.375H0.609ZM0.318 0.375H0.320V0.379H0.318ZM0.547 0.375H0.549V0.379H0.547ZM0.289 0.377H0.291L0.295 0.379V0.377Q0.297 0.379 0.304 0.379L0.302 0.383L0.298 0.381Q0.295 0.383 0.293 0.383Q0.293 0.381 0.291 0.381Q0.291 0.383 0.289 0.383ZM0.547 0.379Q0.550 0.394 0.567 0.394Q0.567 0.395 0.569 0.395Q0.569 0.394 0.571 0.394Q0.569 0.411 0.565 0.411V0.404Q0.561 0.405 0.561 0.408V0.422H0.554V0.419Q0.546 0.430 0.538 0.430Q0.538 0.428 0.536 0.428Q0.536 0.431 0.529 0.434Q0.529 0.432 0.527 0.432Q0.527 0.434 0.525 0.434V0.432L0.522 0.434H0.518L0.514 0.432Q0.514 0.434 0.512 0.434Q0.512 0.432 0.511 0.432Q0.511 0.434 0.509 0.434L0.507 0.430Q0.545 0.379 0.547 0.379ZM0.676 0.381Q0.677 0.385 0.680 0.385Q0.678 0.388 0.678 0.390H0.672Q0.672 0.388 0.670 0.385ZM0.356 0.388Q0.358 0.388 0.358 0.390L0.362 0.388H0.364V0.390Q0.364 0.394 0.360 0.394Q0.356 0.394 0.356 0.390ZM0.304 0.390V0.394H0.298V0.392Q0.300 0.392 0.304 0.390ZM0.291 0.394V0.397H0.287Q0.288 0.394 0.291 0.394ZM0.306 0.395H0.311V0.397H0.306ZM0.640 0.395 0.645 0.402Q0.643 0.402 0.638 0.406Q0.633 0.404 0.633 0.402Q0.634 0.397 0.640 0.395ZM0.342 0.399H0.343L0.347 0.401V0.399Q0.355 0.402 0.355 0.404V0.408L0.353 0.411Q0.355 0.411 0.355 0.413Q0.353 0.413 0.349 0.415Q0.349 0.413 0.347 0.413V0.417H0.345Q0.338 0.414 0.338 0.404V0.402Q0.342 0.402 0.342 0.399ZM0.498 0.401H0.500Q0.500 0.407 0.502 0.410H0.494Q0.496 0.406 0.496 0.404Q0.494 0.404 0.494 0.402ZM0.469 0.402V0.404L0.473 0.402H0.475V0.410L0.473 0.413L0.469 0.411Q0.465 0.413 0.464 0.413V0.404Q0.465 0.404 0.469 0.402ZM0.295 0.410H0.298V0.411H0.295ZM0.315 0.411 0.317 0.415 0.309 0.419V0.413Q0.311 0.413 0.315 0.411ZM0.287 0.413H0.289Q0.289 0.423 0.295 0.428H0.289L0.287 0.421ZM0.376 0.421Q0.377 0.424 0.380 0.424Q0.380 0.422 0.382 0.422L0.385 0.428Q0.384 0.428 0.384 0.430L0.387 0.432H0.391Q0.391 0.430 0.392 0.426L0.385 0.419ZM0.329 0.424 0.331 0.428V0.430Q0.327 0.430 0.324 0.432V0.426Q0.326 0.426 0.329 0.424ZM0.295 0.428 0.298 0.430V0.428L0.302 0.430L0.306 0.428V0.432L0.296 0.434L0.295 0.430ZM0.476 0.428V0.439H0.465V0.430H0.467Q0.469 0.430 0.469 0.432ZM0.493 0.432H0.494Q0.494 0.434 0.496 0.437H0.493ZM0.560 0.432 0.561 0.435V0.464Q0.561 0.468 0.558 0.468H0.554Q0.554 0.467 0.553 0.457Q0.553 0.434 0.556 0.434ZM0.315 0.437Q0.315 0.443 0.322 0.452H0.318Q0.314 0.446 0.311 0.446V0.441Q0.311 0.437 0.315 0.437ZM0.329 0.441H0.333V0.443H0.329ZM0.334 0.445H0.336V0.448H0.334ZM0.347 0.446Q0.351 0.448 0.353 0.448V0.450H0.347ZM0.322 0.452H0.325V0.453H0.322ZM0.478 0.453V0.464H0.476Q0.475 0.464 0.475 0.462L0.467 0.466V0.455H0.469Q0.471 0.455 0.471 0.457ZM0.362 0.455H0.373Q0.376 0.456 0.376 0.459Q0.374 0.466 0.371 0.466L0.367 0.461L0.364 0.462L0.360 0.461Q0.360 0.462 0.358 0.462V0.459Q0.359 0.455 0.362 0.455ZM0.389 0.468Q0.389 0.470 0.391 0.470Q0.391 0.468 0.392 0.468Q0.392 0.470 0.398 0.473Q0.395 0.484 0.387 0.484Q0.387 0.482 0.385 0.482Q0.385 0.484 0.384 0.484L0.380 0.479Q0.380 0.468 0.389 0.468ZM0.409 0.479 0.416 0.484Q0.414 0.494 0.409 0.494V0.497H0.411L0.416 0.494V0.501Q0.420 0.499 0.422 0.499V0.494Q0.417 0.494 0.416 0.486L0.420 0.484H0.427V0.494H0.424V0.495Q0.424 0.496 0.433 0.504L0.431 0.513L0.433 0.520Q0.431 0.520 0.431 0.519L0.427 0.520L0.424 0.519Q0.424 0.520 0.422 0.520Q0.422 0.512 0.418 0.512Q0.418 0.513 0.416 0.513V0.508L0.413 0.510Q0.413 0.504 0.405 0.504L0.407 0.501V0.499L0.398 0.490V0.484Q0.400 0.479 0.409 0.479ZM0.435 0.504H0.438V0.506H0.435ZM0.360 0.552H0.364Q0.362 0.555 0.362 0.557H0.360ZM0.342 0.557H0.345V0.559H0.342ZM0.356 0.559H0.358V0.563H0.356ZM0.331 0.563 0.338 0.568 0.345 0.564V0.566L0.342 0.571V0.573L0.343 0.577Q0.342 0.577 0.342 0.579Q0.339 0.577 0.324 0.575Q0.331 0.570 0.331 0.563ZM0.302 0.573H0.306V0.575H0.302ZM0.362 0.588Q0.366 0.589 0.366 0.591H0.362ZM0.325 0.597H0.327V0.601H0.325ZM0.580 0.597H0.582V0.601H0.580ZM0.327 0.601H0.329V0.604H0.327ZM0.320 0.612H0.322L0.331 0.613V0.615H0.325Q0.325 0.613 0.324 0.613Q0.324 0.615 0.322 0.615ZM0.658 0.615Q0.662 0.615 0.662 0.619H0.658ZM0.322 0.621Q0.327 0.628 0.329 0.628Q0.329 0.631 0.325 0.631Q0.322 0.624 0.322 0.621ZM0.355 0.626H0.360V0.628H0.355ZM0.327 0.631Q0.331 0.632 0.331 0.635H0.327ZM0.527 0.640H0.533V0.642H0.527ZM0.533 0.642H0.536V0.644H0.533ZM0.678 0.642H0.680V0.646H0.678ZM0.396 0.648H0.400V0.650H0.396ZM0.533 0.648H0.538V0.650H0.533ZM0.540 0.650H0.544V0.651H0.540ZM0.404 0.651H0.409L0.411 0.655V0.657Q0.406 0.653 0.404 0.653ZM0.535 0.653H0.540V0.655H0.535ZM0.500 0.655Q0.503 0.657 0.507 0.657Q0.505 0.665 0.498 0.666Q0.498 0.661 0.494 0.661V0.659Q0.500 0.659 0.500 0.655ZM0.415 0.657H0.418V0.659H0.415ZM0.422 0.659Q0.426 0.659 0.426 0.663H0.422ZM0.427 0.663Q0.432 0.666 0.435 0.666Q0.435 0.669 0.424 0.672V0.670Q0.405 0.673 0.405 0.675Q0.402 0.673 0.400 0.673Q0.400 0.671 0.426 0.664Q0.426 0.663 0.427 0.663ZM0.656 0.666H0.663V0.668H0.656ZM0.362 0.670V0.673L0.364 0.677Q0.367 0.675 0.369 0.675Q0.367 0.672 0.367 0.670ZM0.318 0.672H0.320V0.673L0.311 0.684V0.686H0.315L0.318 0.684Q0.318 0.686 0.320 0.686Q0.320 0.684 0.322 0.684V0.686Q0.322 0.689 0.318 0.689V0.688L0.315 0.689H0.313Q0.309 0.689 0.309 0.686Q0.309 0.676 0.318 0.672ZM0.658 0.672H0.662V0.673H0.658ZM0.387 0.673Q0.385 0.688 0.380 0.688V0.684Q0.380 0.675 0.387 0.673ZM0.687 0.682Q0.689 0.682 0.698 0.695Q0.693 0.695 0.693 0.706Q0.681 0.700 0.676 0.689Q0.687 0.689 0.687 0.682ZM0.338 0.686 0.340 0.689 0.334 0.693V0.689Q0.335 0.686 0.338 0.686ZM0.484 0.689Q0.487 0.691 0.489 0.691V0.693Q0.485 0.693 0.482 0.695V0.693ZM0.378 0.691H0.380Q0.380 0.695 0.382 0.695Q0.378 0.711 0.378 0.713H0.375Q0.376 0.710 0.378 0.691ZM0.493 0.693H0.496V0.695H0.493ZM0.347 0.695H0.351Q0.351 0.697 0.353 0.700L0.349 0.702ZM0.317 0.697H0.320Q0.324 0.698 0.324 0.700L0.327 0.699H0.329Q0.333 0.704 0.336 0.704V0.706H0.333L0.334 0.710L0.331 0.711Q0.331 0.710 0.329 0.710V0.711L0.333 0.719Q0.325 0.719 0.325 0.723L0.322 0.721Q0.322 0.728 0.315 0.728Q0.315 0.726 0.313 0.726V0.728Q0.305 0.728 0.300 0.717Q0.304 0.717 0.304 0.711Q0.307 0.712 0.307 0.715L0.315 0.711Q0.315 0.715 0.318 0.715L0.320 0.711V0.708Q0.320 0.704 0.317 0.704L0.318 0.700ZM0.356 0.697H0.358Q0.361 0.697 0.364 0.702Q0.362 0.702 0.362 0.704Q0.366 0.705 0.366 0.708L0.362 0.710Q0.356 0.699 0.356 0.697ZM0.538 0.700H0.542V0.702H0.538ZM0.311 0.702Q0.314 0.704 0.317 0.704Q0.317 0.708 0.313 0.708Q0.309 0.708 0.309 0.704Q0.311 0.704 0.311 0.702ZM0.544 0.702H0.547V0.704H0.544ZM0.343 0.704H0.349Q0.344 0.714 0.334 0.719V0.717Q0.337 0.710 0.343 0.706ZM0.485 0.704 0.487 0.708 0.484 0.710 0.482 0.706ZM0.375 0.715Q0.376 0.719 0.376 0.721L0.375 0.730H0.373Q0.373 0.726 0.369 0.726L0.371 0.723Q0.369 0.723 0.369 0.721H0.373L0.371 0.717ZM0.522 0.724Q0.525 0.726 0.527 0.726V0.731H0.524Q0.520 0.731 0.520 0.728ZM0.612 0.724H0.618L0.620 0.733Q0.616 0.733 0.612 0.724ZM0.644 0.726H0.651Q0.672 0.751 0.672 0.757H0.670Q0.668 0.755 0.653 0.753Q0.649 0.761 0.649 0.770H0.647Q0.637 0.761 0.634 0.748L0.638 0.739H0.636Q0.644 0.730 0.644 0.726ZM0.295 0.728V0.731Q0.293 0.735 0.293 0.737H0.295Q0.289 0.746 0.289 0.749H0.285Q0.282 0.749 0.282 0.746Q0.292 0.728 0.295 0.728ZM0.331 0.728V0.731H0.327Q0.328 0.728 0.331 0.728ZM0.302 0.733 0.307 0.737H0.311V0.733L0.317 0.737L0.318 0.733Q0.322 0.735 0.324 0.735V0.740Q0.315 0.752 0.315 0.755H0.313Q0.307 0.740 0.307 0.739L0.304 0.740H0.302ZM0.620 0.733H0.621V0.737H0.620ZM0.694 0.733V0.742H0.689V0.739Q0.689 0.736 0.694 0.733ZM0.591 0.735Q0.591 0.739 0.593 0.739Q0.590 0.751 0.587 0.751V0.739Q0.588 0.735 0.591 0.735ZM0.580 0.737H0.582V0.749L0.578 0.748Q0.578 0.749 0.576 0.749L0.574 0.746Q0.580 0.740 0.580 0.737ZM0.300 0.740H0.302V0.744H0.300ZM0.680 0.742H0.683V0.746Q0.680 0.746 0.680 0.742ZM0.702 0.742H0.705Q0.705 0.746 0.702 0.746ZM0.298 0.749H0.300V0.753H0.298ZM0.683 0.751H0.685V0.755H0.683ZM0.280 0.755Q0.282 0.755 0.289 0.760Q0.287 0.766 0.285 0.766Q0.285 0.768 0.287 0.768L0.285 0.777V0.795Q0.274 0.811 0.273 0.811H0.264Q0.270 0.799 0.273 0.799Q0.278 0.792 0.278 0.784L0.276 0.781Q0.282 0.781 0.282 0.775Q0.280 0.772 0.280 0.768L0.282 0.764Q0.280 0.761 0.280 0.757ZM0.298 0.757H0.300L0.298 0.760V0.770L0.300 0.773L0.295 0.777H0.293L0.296 0.760Q0.295 0.760 0.295 0.759ZM0.524 0.757 0.533 0.759Q0.531 0.762 0.531 0.768H0.525Q0.523 0.768 0.520 0.762V0.760Q0.524 0.760 0.524 0.757ZM0.578 0.757H0.580Q0.580 0.761 0.582 0.764L0.578 0.766ZM0.271 0.759H0.273V0.775Q0.273 0.780 0.267 0.797Q0.269 0.797 0.269 0.799Q0.257 0.800 0.257 0.807V0.809L0.253 0.807V0.811H0.244Q0.241 0.811 0.238 0.806Q0.259 0.782 0.271 0.759ZM0.309 0.759V0.762H0.306Q0.306 0.759 0.309 0.759ZM0.656 0.759Q0.672 0.762 0.676 0.762Q0.676 0.760 0.678 0.760L0.680 0.764Q0.670 0.771 0.669 0.771Q0.655 0.768 0.654 0.768ZM0.587 0.760H0.591V0.762Q0.591 0.766 0.587 0.766ZM0.627 0.771H0.629Q0.633 0.773 0.634 0.773Q0.633 0.777 0.633 0.779H0.631Q0.627 0.779 0.627 0.775ZM0.687 0.773Q0.687 0.774 0.700 0.791H0.698Q0.696 0.791 0.685 0.779H0.683Q0.679 0.779 0.678 0.788H0.667Q0.677 0.773 0.687 0.773ZM0.654 0.781H0.658L0.662 0.782Q0.662 0.781 0.663 0.781V0.786H0.662Q0.654 0.783 0.654 0.781ZM0.683 0.786H0.685Q0.689 0.786 0.689 0.790H0.683ZM0.704 0.795 0.714 0.811H0.693Q0.693 0.807 0.691 0.807Q0.693 0.797 0.694 0.797Q0.698 0.799 0.700 0.799Q0.700 0.795 0.704 0.795ZM0.680 0.797H0.681Q0.685 0.797 0.685 0.800L0.683 0.809Q0.685 0.809 0.685 0.811H0.676Q0.676 0.809 0.669 0.799H0.670Q0.674 0.800 0.676 0.800Q0.677 0.797 0.680 0.797Z" fill="black"/>
</svg>
