<svg xmlns="http://www.w3.org/2000/svg" viewBox="0 0 1 1" preserveAspectRatio="xMidYMid meet">
  <path d="M0.295 0.202H0.330Q0.331 0.202 0.348 0.226V0.228Q0.341 0.228 0.341 0.231Q0.347 0.233 0.359 0.257L0.357 0.266Q0.332 0.266 0.316 0.228Q0.311 0.228 0.295 0.202ZM0.737 0.202H0.766Q0.730 0.228 0.730 0.248L0.732 0.259V0.260L0.607 0.437Q0.616 0.437 0.616 0.442V0.444L0.594 0.440V0.410Q0.594 0.408 0.592 0.408Q0.592 0.402 0.635 0.342Q0.640 0.342 0.656 0.315Q0.657 0.315 0.661 0.310Q0.657 0.303 0.657 0.301Q0.659 0.301 0.659 0.299Q0.657 0.299 0.657 0.297Q0.663 0.293 0.668 0.293L0.672 0.295Q0.686 0.274 0.737 0.204ZM0.765 0.211H0.766Q0.756 0.229 0.741 0.242L0.739 0.251L0.736 0.250Q0.736 0.229 0.765 0.211ZM0.334 0.237 0.330 0.242V0.248Q0.330 0.251 0.337 0.255Q0.340 0.255 0.344 0.248V0.242Q0.343 0.237 0.334 0.237ZM0.335 0.242H0.339V0.248H0.335ZM0.365 0.259Q0.376 0.259 0.401 0.301Q0.385 0.301 0.370 0.311Q0.369 0.307 0.341 0.268Q0.356 0.271 0.359 0.271Q0.365 0.263 0.365 0.259ZM0.404 0.304Q0.412 0.312 0.412 0.317Q0.398 0.331 0.386 0.335Q0.386 0.331 0.374 0.315Q0.393 0.304 0.404 0.304ZM0.455 0.306Q0.474 0.306 0.474 0.333H0.472Q0.474 0.337 0.474 0.338H0.479Q0.479 0.331 0.492 0.328Q0.514 0.328 0.514 0.342Q0.504 0.355 0.496 0.355H0.485V0.361Q0.490 0.367 0.490 0.377Q0.490 0.389 0.481 0.389Q0.468 0.386 0.463 0.382H0.461L0.494 0.428Q0.476 0.428 0.476 0.440Q0.526 0.451 0.526 0.458L0.536 0.460Q0.536 0.458 0.543 0.453Q0.550 0.454 0.550 0.458Q0.566 0.456 0.566 0.451L0.561 0.444Q0.576 0.444 0.581 0.428V0.422L0.579 0.419Q0.580 0.419 0.588 0.410V0.439L0.586 0.442Q0.591 0.446 0.614 0.449V0.451Q0.608 0.453 0.607 0.453L0.599 0.451Q0.586 0.453 0.586 0.457Q0.588 0.460 0.588 0.464Q0.585 0.464 0.579 0.475H0.586V0.477Q0.576 0.477 0.570 0.486V0.490H0.581V0.491Q0.561 0.491 0.561 0.500L0.563 0.504H0.556Q0.556 0.497 0.552 0.497L0.548 0.518Q0.548 0.520 0.550 0.520L0.548 0.539V0.557Q0.548 0.560 0.545 0.560H0.537Q0.533 0.560 0.532 0.551Q0.532 0.543 0.534 0.511Q0.534 0.486 0.526 0.486V0.484Q0.541 0.480 0.541 0.475V0.473Q0.541 0.470 0.536 0.468L0.532 0.470Q0.525 0.460 0.517 0.457Q0.515 0.457 0.515 0.458L0.506 0.457H0.503Q0.499 0.458 0.499 0.460V0.470Q0.500 0.473 0.503 0.473Q0.509 0.473 0.523 0.468L0.524 0.471Q0.501 0.477 0.494 0.484L0.479 0.468Q0.476 0.480 0.476 0.484V0.488Q0.476 0.491 0.488 0.495Q0.488 0.499 0.481 0.499V0.500L0.483 0.504Q0.472 0.507 0.468 0.507Q0.468 0.502 0.464 0.502L0.457 0.509V0.513L0.461 0.518Q0.459 0.518 0.459 0.520L0.452 0.517Q0.454 0.511 0.454 0.495L0.457 0.497L0.459 0.493Q0.455 0.493 0.455 0.490Q0.461 0.490 0.461 0.484L0.464 0.486L0.466 0.482L0.463 0.481Q0.463 0.483 0.457 0.486Q0.457 0.482 0.452 0.482V0.479H0.454L0.457 0.481L0.459 0.477Q0.452 0.474 0.448 0.468L0.457 0.470H0.461V0.468Q0.461 0.463 0.446 0.455V0.453L0.455 0.451V0.447H0.450V0.446H0.455Q0.471 0.451 0.485 0.468Q0.488 0.468 0.488 0.464Q0.488 0.454 0.472 0.444H0.468L0.464 0.446Q0.464 0.445 0.439 0.408V0.406L0.443 0.400L0.439 0.398H0.437Q0.436 0.398 0.436 0.400L0.432 0.398Q0.426 0.398 0.419 0.404H0.414Q0.414 0.403 0.421 0.395H0.414Q0.412 0.395 0.401 0.411Q0.401 0.408 0.397 0.408Q0.397 0.410 0.395 0.410V0.400Q0.396 0.397 0.399 0.397V0.400H0.401Q0.407 0.394 0.439 0.382Q0.463 0.371 0.463 0.361V0.359Q0.476 0.370 0.476 0.380H0.479V0.373Q0.479 0.365 0.468 0.351Q0.492 0.348 0.508 0.342V0.338H0.506Q0.499 0.338 0.466 0.342V0.335Q0.466 0.325 0.455 0.319H0.454V0.320Q0.455 0.324 0.455 0.326L0.448 0.320L0.445 0.322V0.319Q0.448 0.310 0.455 0.306ZM0.703 0.313Q0.710 0.315 0.710 0.322Q0.708 0.322 0.708 0.324L0.712 0.326Q0.717 0.322 0.719 0.322Q0.727 0.325 0.727 0.328V0.331Q0.723 0.336 0.723 0.338H0.719L0.708 0.337Q0.705 0.338 0.703 0.338L0.693 0.324V0.320Q0.697 0.313 0.703 0.313ZM0.416 0.320H0.417Q0.410 0.328 0.410 0.333Q0.417 0.337 0.421 0.337Q0.422 0.333 0.425 0.333H0.427L0.425 0.342Q0.429 0.342 0.432 0.359Q0.432 0.373 0.421 0.379H0.417Q0.417 0.373 0.414 0.373Q0.410 0.373 0.403 0.389H0.401V0.384L0.410 0.368Q0.404 0.354 0.399 0.353Q0.397 0.356 0.397 0.362H0.395Q0.395 0.357 0.394 0.349L0.397 0.351V0.349L0.392 0.340ZM0.421 0.326V0.329H0.417Q0.418 0.326 0.421 0.326ZM0.450 0.326Q0.457 0.340 0.457 0.346Q0.443 0.336 0.443 0.329ZM0.379 0.331Q0.383 0.333 0.385 0.333L0.377 0.342Q0.379 0.346 0.379 0.348H0.377Q0.374 0.348 0.374 0.344V0.337Q0.374 0.334 0.379 0.331ZM0.325 0.337H0.332Q0.335 0.337 0.350 0.340Q0.348 0.344 0.348 0.346Q0.336 0.342 0.332 0.342H0.326Q0.312 0.342 0.305 0.359H0.303Q0.299 0.359 0.299 0.355Q0.309 0.337 0.325 0.337ZM0.386 0.342Q0.394 0.345 0.394 0.348V0.349Q0.391 0.348 0.385 0.348Q0.386 0.344 0.386 0.342ZM0.354 0.344Q0.381 0.360 0.381 0.377V0.380H0.379Q0.365 0.351 0.354 0.351ZM0.436 0.348H0.437V0.351H0.436ZM0.454 0.348Q0.452 0.355 0.443 0.355V0.357L0.452 0.370L0.439 0.368H0.436L0.437 0.359V0.351Q0.451 0.348 0.454 0.348ZM0.686 0.349H0.690L0.699 0.351V0.353Q0.697 0.361 0.697 0.366Q0.706 0.366 0.706 0.377L0.701 0.380H0.693Q0.684 0.371 0.681 0.371Q0.681 0.369 0.686 0.349ZM0.454 0.355H0.455L0.459 0.357Q0.457 0.360 0.457 0.362H0.455Q0.455 0.358 0.454 0.355ZM0.294 0.366H0.299Q0.295 0.371 0.295 0.375H0.294ZM0.319 0.366H0.323Q0.344 0.371 0.344 0.388Q0.344 0.400 0.332 0.400H0.319Q0.319 0.395 0.316 0.395Q0.319 0.389 0.319 0.386L0.323 0.388H0.326Q0.330 0.388 0.330 0.382ZM0.394 0.371H0.395V0.380H0.394ZM0.436 0.373H0.445V0.375Q0.438 0.377 0.437 0.377ZM0.432 0.377V0.380H0.428Q0.429 0.377 0.432 0.377ZM0.665 0.379 0.670 0.386V0.395Q0.672 0.395 0.676 0.406H0.674L0.665 0.404Q0.661 0.406 0.657 0.406Q0.657 0.404 0.654 0.386Q0.657 0.379 0.665 0.379ZM0.294 0.380H0.295Q0.299 0.381 0.299 0.384L0.297 0.388Q0.299 0.388 0.299 0.389L0.303 0.388Q0.307 0.388 0.307 0.391Q0.300 0.391 0.295 0.397ZM0.395 0.386V0.393H0.392V0.389Q0.392 0.386 0.395 0.386ZM0.432 0.395 0.436 0.397H0.437Q0.454 0.394 0.454 0.389Q0.452 0.389 0.452 0.388Q0.432 0.391 0.432 0.395ZM0.577 0.386H0.581V0.398Q0.581 0.402 0.577 0.402H0.575L0.577 0.389ZM0.385 0.388H0.386Q0.386 0.399 0.397 0.435H0.395Q0.381 0.424 0.374 0.424V0.426Q0.392 0.439 0.414 0.464H0.408Q0.408 0.465 0.421 0.477H0.417Q0.408 0.471 0.392 0.468V0.466H0.404V0.464Q0.385 0.449 0.381 0.444Q0.374 0.422 0.357 0.422Q0.358 0.419 0.367 0.415Q0.372 0.415 0.381 0.422H0.385Q0.383 0.419 0.383 0.417Q0.383 0.414 0.385 0.388ZM0.568 0.393H0.572L0.570 0.402V0.406Q0.570 0.410 0.575 0.410L0.583 0.406V0.410L0.577 0.419L0.566 0.413L0.568 0.404ZM0.677 0.395H0.681L0.683 0.404Q0.679 0.404 0.677 0.395ZM0.266 0.397H0.270L0.268 0.406H0.266ZM0.307 0.397H0.308Q0.308 0.400 0.305 0.400H0.303Q0.303 0.397 0.307 0.397ZM0.301 0.402H0.303V0.406H0.301ZM0.281 0.404H0.283Q0.295 0.408 0.297 0.408L0.301 0.406V0.413H0.299L0.294 0.410Q0.292 0.410 0.281 0.421H0.277V0.419Q0.281 0.407 0.281 0.404ZM0.317 0.406Q0.330 0.410 0.337 0.422V0.424Q0.322 0.419 0.316 0.408Q0.317 0.408 0.317 0.406ZM0.637 0.408Q0.641 0.410 0.643 0.410V0.421Q0.642 0.421 0.632 0.419Q0.628 0.421 0.626 0.421Q0.629 0.408 0.637 0.408ZM0.665 0.411H0.670Q0.674 0.412 0.674 0.415V0.419H0.665Q0.661 0.419 0.661 0.415Q0.662 0.411 0.665 0.411ZM0.685 0.413H0.688Q0.691 0.413 0.693 0.421Q0.672 0.426 0.672 0.431Q0.664 0.426 0.661 0.426V0.424Q0.681 0.424 0.686 0.415Q0.685 0.415 0.685 0.413ZM0.292 0.417H0.297Q0.294 0.425 0.290 0.426H0.286V0.422Q0.286 0.420 0.292 0.417ZM0.399 0.417H0.401V0.424H0.399ZM0.408 0.417H0.410V0.422H0.408ZM0.430 0.417H0.434Q0.447 0.419 0.448 0.424V0.426Q0.441 0.422 0.436 0.422Q0.414 0.431 0.414 0.446H0.412Q0.412 0.444 0.408 0.428V0.426H0.410V0.431H0.414Q0.414 0.420 0.430 0.417ZM0.556 0.419Q0.559 0.419 0.559 0.422V0.424H0.552V0.422Q0.552 0.419 0.556 0.419ZM0.337 0.424H0.339V0.431H0.337ZM0.512 0.424H0.514V0.428H0.512ZM0.634 0.424Q0.648 0.428 0.648 0.437Q0.645 0.437 0.645 0.442H0.637Q0.635 0.442 0.626 0.431V0.426Q0.631 0.426 0.634 0.424ZM0.326 0.426Q0.330 0.426 0.330 0.435Q0.324 0.431 0.321 0.431Q0.321 0.429 0.326 0.426ZM0.539 0.426H0.541V0.430H0.539ZM0.443 0.428H0.445V0.430Q0.425 0.433 0.425 0.447V0.449L0.427 0.462H0.423L0.421 0.449Q0.422 0.428 0.443 0.428ZM0.572 0.431V0.433Q0.572 0.437 0.568 0.437V0.435Q0.569 0.431 0.572 0.431ZM0.483 0.433H0.496Q0.496 0.436 0.499 0.440L0.483 0.437ZM0.501 0.433H0.503Q0.505 0.433 0.508 0.439V0.442Q0.506 0.442 0.501 0.433ZM0.515 0.435H0.517Q0.517 0.442 0.541 0.447V0.449Q0.534 0.449 0.534 0.455Q0.521 0.450 0.515 0.440ZM0.448 0.447H0.450V0.449Q0.446 0.449 0.446 0.453H0.441Q0.441 0.448 0.448 0.447ZM0.455 0.457V0.458H0.457Q0.464 0.456 0.464 0.453V0.451H0.461Q0.458 0.451 0.455 0.457ZM0.537 0.464Q0.537 0.467 0.550 0.473Q0.550 0.476 0.557 0.481L0.559 0.477V0.475Q0.552 0.469 0.552 0.462L0.545 0.457Q0.542 0.457 0.537 0.464ZM0.439 0.460H0.441V0.466H0.439ZM0.505 0.462 0.514 0.464V0.466L0.505 0.468ZM0.570 0.466 0.568 0.470V0.477Q0.569 0.481 0.572 0.481L0.574 0.477V0.470Q0.574 0.466 0.570 0.466ZM0.528 0.475V0.479Q0.509 0.486 0.499 0.488Q0.502 0.483 0.528 0.475ZM0.521 0.488 0.517 0.493V0.610H0.515L0.514 0.597V0.560Q0.514 0.539 0.515 0.493Q0.512 0.493 0.512 0.490ZM0.526 0.491Q0.526 0.495 0.528 0.511Q0.526 0.543 0.526 0.551Q0.526 0.561 0.536 0.566H0.548V0.597L0.552 0.595H0.556V0.615H0.552L0.548 0.613V0.651Q0.556 0.651 0.556 0.655V0.668L0.552 0.673V0.675H0.556V0.695H0.554Q0.550 0.693 0.548 0.693V0.747Q0.552 0.759 0.554 0.759Q0.553 0.766 0.548 0.766V0.811H0.514V0.773L0.508 0.766V0.755Q0.514 0.755 0.514 0.751V0.737L0.508 0.730V0.726Q0.508 0.717 0.514 0.717V0.664Q0.510 0.664 0.497 0.679Q0.474 0.674 0.474 0.671Q0.471 0.671 0.470 0.662V0.661Q0.474 0.653 0.481 0.653Q0.481 0.656 0.499 0.668Q0.501 0.664 0.501 0.662Q0.497 0.651 0.497 0.648L0.501 0.646H0.508L0.514 0.650V0.627Q0.514 0.624 0.515 0.620Q0.514 0.617 0.514 0.615L0.517 0.617L0.523 0.610V0.495Q0.524 0.491 0.526 0.491ZM0.330 0.495H0.341L0.346 0.499Q0.344 0.502 0.344 0.504Q0.346 0.507 0.346 0.509Q0.343 0.509 0.330 0.499L0.317 0.507V0.502Q0.320 0.495 0.330 0.495ZM0.459 0.499 0.457 0.502 0.461 0.504 0.463 0.500ZM0.506 0.497H0.510V0.509Q0.497 0.506 0.492 0.506V0.500Q0.496 0.500 0.496 0.499Q0.501 0.502 0.505 0.502L0.503 0.499ZM0.574 0.499H0.577V0.500H0.574ZM0.354 0.500H0.361V0.502Q0.358 0.502 0.352 0.506L0.350 0.502ZM0.414 0.504H0.416Q0.416 0.509 0.425 0.509V0.513Q0.423 0.513 0.414 0.515ZM0.307 0.509H0.310V0.511H0.307ZM0.368 0.511H0.374V0.513H0.368ZM0.481 0.511Q0.485 0.513 0.487 0.513V0.515Q0.473 0.520 0.470 0.520Q0.466 0.520 0.466 0.517V0.513Q0.476 0.511 0.481 0.511ZM0.436 0.513H0.443Q0.446 0.514 0.446 0.517V0.518H0.441V0.522H0.445V0.524Q0.434 0.524 0.434 0.530L0.430 0.528H0.428L0.419 0.533L0.408 0.531H0.403L0.404 0.535H0.401V0.530Q0.413 0.530 0.416 0.522L0.419 0.520Q0.419 0.526 0.423 0.526H0.428Q0.428 0.522 0.434 0.522L0.432 0.518V0.517Q0.432 0.513 0.436 0.513ZM0.501 0.513H0.510L0.508 0.531V0.551H0.506Q0.499 0.544 0.494 0.544L0.497 0.539V0.535H0.496L0.490 0.539H0.487Q0.492 0.522 0.501 0.513ZM0.297 0.517V0.520L0.295 0.524Q0.304 0.548 0.325 0.548H0.341Q0.341 0.551 0.337 0.551Q0.314 0.551 0.283 0.535Q0.280 0.533 0.274 0.533H0.261Q0.235 0.548 0.235 0.571L0.237 0.584V0.586H0.235L0.234 0.573V0.567Q0.242 0.528 0.272 0.528Q0.274 0.528 0.294 0.533L0.292 0.520ZM0.392 0.517V0.520Q0.392 0.524 0.388 0.524H0.383Q0.383 0.519 0.392 0.517ZM0.348 0.520H0.350V0.522L0.343 0.524H0.341V0.522Q0.342 0.522 0.348 0.520ZM0.488 0.520V0.522L0.479 0.537V0.539L0.481 0.542L0.477 0.544Q0.477 0.541 0.474 0.541L0.472 0.544L0.464 0.541L0.463 0.544L0.470 0.548Q0.471 0.544 0.474 0.544Q0.474 0.550 0.479 0.550H0.483V0.551Q0.470 0.551 0.470 0.557H0.468Q0.464 0.553 0.459 0.553V0.551H0.463Q0.463 0.544 0.448 0.542V0.541H0.450L0.459 0.542V0.541L0.457 0.528L0.468 0.526L0.470 0.530Q0.463 0.530 0.463 0.535Q0.464 0.535 0.464 0.537Q0.463 0.537 0.463 0.539H0.466L0.472 0.535Q0.472 0.537 0.474 0.537L0.476 0.533H0.474L0.476 0.530V0.528H0.472V0.526Q0.475 0.526 0.488 0.520ZM0.337 0.524H0.341V0.526H0.337ZM0.390 0.531H0.394Q0.394 0.533 0.395 0.537Q0.392 0.537 0.388 0.539Q0.388 0.537 0.386 0.533ZM0.425 0.537H0.432L0.427 0.544Q0.430 0.544 0.430 0.548V0.550H0.425L0.416 0.551V0.541Q0.417 0.541 0.421 0.539V0.546H0.425ZM0.445 0.539H0.448V0.541H0.445ZM0.376 0.542H0.379V0.544H0.376ZM0.394 0.542H0.403V0.544H0.394ZM0.372 0.544H0.376V0.546H0.372ZM0.354 0.548H0.357V0.550H0.354ZM0.483 0.548H0.487V0.550H0.483ZM0.437 0.553H0.441V0.567H0.434V0.557Q0.434 0.553 0.437 0.553ZM0.427 0.555H0.430V0.557H0.427ZM0.419 0.557H0.421V0.567H0.416V0.560Q0.416 0.557 0.419 0.557ZM0.425 0.557H0.427V0.567H0.425ZM0.434 0.573H0.441V0.586H0.434ZM0.472 0.573H0.474V0.577H0.472ZM0.416 0.575H0.421V0.586H0.416ZM0.425 0.575H0.427V0.586H0.425ZM0.474 0.584H0.485Q0.487 0.584 0.490 0.590V0.599Q0.492 0.599 0.505 0.595Q0.508 0.595 0.512 0.613Q0.506 0.617 0.501 0.617H0.499Q0.495 0.617 0.492 0.615H0.487Q0.479 0.591 0.476 0.591Q0.472 0.596 0.472 0.599H0.470V0.591Q0.474 0.587 0.474 0.584ZM0.237 0.586H0.239V0.590H0.237ZM0.283 0.588Q0.286 0.593 0.286 0.597Q0.284 0.597 0.277 0.606Q0.278 0.610 0.281 0.610Q0.287 0.606 0.292 0.606H0.295L0.301 0.620Q0.290 0.624 0.290 0.626Q0.281 0.623 0.281 0.615H0.277L0.274 0.617L0.275 0.620V0.631H0.261V0.615Q0.269 0.611 0.272 0.611V0.608Q0.272 0.602 0.266 0.593Q0.266 0.588 0.283 0.588ZM0.243 0.593Q0.247 0.594 0.247 0.597H0.243ZM0.416 0.593H0.421V0.602H0.416ZM0.425 0.593H0.427V0.604H0.425ZM0.561 0.595Q0.564 0.597 0.566 0.597V0.613Q0.564 0.613 0.561 0.615ZM0.574 0.597H0.577Q0.577 0.598 0.586 0.620Q0.586 0.631 0.574 0.631ZM0.608 0.599H0.617Q0.621 0.599 0.621 0.602V0.613Q0.621 0.619 0.614 0.619V0.620Q0.625 0.627 0.625 0.629V0.639Q0.623 0.644 0.614 0.644Q0.606 0.644 0.597 0.626Q0.594 0.626 0.594 0.624L0.605 0.601ZM0.250 0.601H0.254V0.602H0.250ZM0.254 0.602H0.257V0.604H0.254ZM0.259 0.604H0.263V0.606H0.259ZM0.416 0.610H0.421V0.620H0.416ZM0.565 0.617H0.566V0.624H0.565ZM0.417 0.627H0.421V0.639H0.417V0.637L0.419 0.633Q0.417 0.629 0.417 0.627ZM0.416 0.644Q0.419 0.646 0.421 0.646V0.657H0.419Q0.416 0.657 0.416 0.653ZM0.425 0.650H0.427V0.653H0.425ZM0.416 0.662Q0.419 0.664 0.421 0.664V0.677Q0.417 0.675 0.416 0.675ZM0.561 0.675Q0.563 0.675 0.566 0.680V0.689Q0.566 0.693 0.563 0.693H0.561ZM0.416 0.682H0.421V0.697H0.419Q0.416 0.697 0.416 0.693ZM0.461 0.687H0.468Q0.471 0.687 0.479 0.700Q0.480 0.693 0.485 0.693H0.494Q0.496 0.693 0.499 0.699V0.702Q0.499 0.715 0.474 0.719Q0.474 0.721 0.472 0.721Q0.472 0.716 0.455 0.704Q0.454 0.701 0.454 0.697Q0.457 0.688 0.461 0.687ZM0.416 0.702H0.417Q0.421 0.703 0.421 0.706V0.708H0.416Z" fill="black"/>
</svg>
