<svg xmlns="http://www.w3.org/2000/svg" viewBox="0 0 1 1" preserveAspectRatio="xMidYMid meet">
  <path d="M0.772 0.000H0.774V0.009H0.772ZM0.772 0.018H0.774V0.022H0.772ZM0.755 0.029H0.757V0.035H0.755ZM0.765 0.029H0.766V0.035H0.765ZM0.765 0.035V0.040Q0.761 0.040 0.761 0.036ZM0.777 0.061H0.779V0.069H0.777ZM0.752 0.071H0.754V0.074H0.752ZM0.750 0.076H0.755V0.078Q0.755 0.080 0.746 0.087V0.085Q0.750 0.079 0.750 0.076ZM0.741 0.078H0.743V0.082H0.741ZM0.739 0.082H0.741V0.085H0.739ZM0.729 0.100H0.730V0.103H0.729ZM0.729 0.103V0.105Q0.729 0.108 0.725 0.108V0.107Q0.725 0.103 0.729 0.103ZM0.723 0.108H0.725V0.112H0.723ZM0.719 0.114H0.721V0.118H0.719ZM0.743 0.118H0.745V0.123H0.743ZM0.714 0.123Q0.717 0.125 0.719 0.125Q0.719 0.129 0.716 0.129H0.714ZM0.734 0.136V0.140H0.730Q0.731 0.136 0.734 0.136ZM0.705 0.145H0.706V0.149H0.705ZM0.698 0.156H0.699V0.159H0.698ZM0.755 0.157H0.757Q0.757 0.161 0.763 0.161Q0.748 0.173 0.748 0.178H0.746V0.170L0.748 0.161H0.750V0.165H0.752Q0.755 0.165 0.755 0.157ZM0.717 0.161H0.719V0.167H0.717ZM0.732 0.161H0.736V0.163H0.732ZM0.696 0.169H0.699V0.176L0.696 0.174L0.692 0.183H0.694Q0.688 0.199 0.681 0.199Q0.681 0.190 0.674 0.187Q0.674 0.189 0.672 0.189V0.187Q0.678 0.178 0.683 0.178Q0.687 0.180 0.689 0.180Q0.692 0.169 0.696 0.169ZM0.768 0.174 0.770 0.178Q0.766 0.178 0.766 0.181L0.768 0.185Q0.763 0.185 0.763 0.187Q0.760 0.185 0.754 0.185V0.183Q0.756 0.183 0.768 0.174ZM0.560 0.180 0.563 0.181Q0.567 0.180 0.569 0.180V0.185Q0.569 0.188 0.561 0.190L0.560 0.187ZM0.708 0.180H0.714V0.185H0.708ZM0.730 0.180Q0.734 0.180 0.734 0.183H0.730ZM0.736 0.180H0.738V0.183H0.736ZM0.585 0.181 0.589 0.183Q0.592 0.181 0.594 0.181V0.192L0.591 0.190L0.587 0.192L0.585 0.189ZM0.670 0.189H0.672V0.194H0.670ZM0.694 0.192 0.698 0.194Q0.698 0.192 0.699 0.192V0.197H0.694ZM0.754 0.196H0.757V0.197H0.754ZM0.746 0.197Q0.750 0.198 0.750 0.201H0.746ZM0.766 0.197H0.768V0.201H0.766ZM0.263 0.203H0.698Q0.703 0.219 0.705 0.219Q0.696 0.236 0.692 0.236L0.694 0.239V0.250L0.690 0.248Q0.687 0.248 0.687 0.253H0.685Q0.672 0.216 0.667 0.216Q0.661 0.216 0.654 0.221Q0.654 0.219 0.652 0.219Q0.652 0.221 0.629 0.232V0.234H0.614L0.616 0.237V0.245H0.614Q0.611 0.243 0.609 0.243Q0.609 0.245 0.607 0.245V0.234H0.591V0.243H0.582V0.234H0.565V0.241H0.560Q0.556 0.241 0.556 0.234H0.263ZM0.717 0.203Q0.717 0.205 0.716 0.205L0.719 0.212Q0.717 0.219 0.714 0.219Q0.709 0.219 0.706 0.205Q0.716 0.203 0.717 0.203ZM0.757 0.216H0.759V0.221H0.757ZM0.741 0.217H0.746V0.221H0.741ZM0.667 0.223Q0.667 0.229 0.678 0.252Q0.673 0.252 0.661 0.259Q0.661 0.257 0.659 0.257Q0.658 0.263 0.649 0.263H0.647L0.645 0.253Q0.645 0.252 0.652 0.243L0.649 0.237L0.650 0.234H0.643V0.232Q0.648 0.232 0.652 0.229Q0.652 0.230 0.654 0.230Q0.654 0.227 0.667 0.223ZM0.766 0.229V0.230Q0.766 0.234 0.763 0.234V0.232Q0.764 0.229 0.766 0.229ZM0.609 0.234V0.236H0.612V0.234ZM0.703 0.232H0.710V0.234Q0.710 0.237 0.703 0.241ZM0.748 0.232H0.752V0.234H0.748ZM0.752 0.234H0.761V0.237L0.752 0.236ZM0.638 0.237H0.643V0.243Q0.643 0.246 0.640 0.246ZM0.741 0.237H0.743L0.745 0.250L0.738 0.255H0.736Q0.741 0.250 0.741 0.237ZM0.634 0.243Q0.638 0.254 0.638 0.255Q0.634 0.256 0.634 0.259V0.265L0.642 0.259L0.645 0.272H0.649L0.654 0.268Q0.654 0.270 0.656 0.270Q0.656 0.267 0.670 0.261L0.672 0.265L0.667 0.272V0.274Q0.669 0.274 0.669 0.272Q0.676 0.275 0.676 0.277V0.283Q0.676 0.285 0.670 0.288Q0.670 0.286 0.669 0.286V0.288L0.659 0.283Q0.656 0.283 0.656 0.286Q0.659 0.287 0.659 0.290V0.292Q0.659 0.295 0.652 0.299V0.297Q0.645 0.299 0.642 0.306Q0.642 0.308 0.643 0.308Q0.641 0.317 0.638 0.317Q0.638 0.315 0.636 0.315Q0.636 0.319 0.625 0.328Q0.598 0.364 0.593 0.373Q0.594 0.373 0.594 0.375Q0.602 0.372 0.605 0.372V0.375Q0.580 0.386 0.580 0.400H0.582L0.580 0.404Q0.580 0.413 0.585 0.424H0.589Q0.590 0.424 0.598 0.417H0.600Q0.600 0.429 0.567 0.453Q0.565 0.453 0.565 0.457H0.563V0.451Q0.565 0.451 0.565 0.449Q0.563 0.449 0.563 0.447Q0.561 0.447 0.551 0.455H0.549Q0.571 0.427 0.571 0.404H0.569L0.527 0.460H0.536L0.542 0.457V0.458Q0.515 0.475 0.509 0.486Q0.507 0.495 0.507 0.496Q0.507 0.502 0.522 0.511Q0.529 0.507 0.533 0.507Q0.533 0.509 0.525 0.515Q0.520 0.511 0.514 0.511H0.513V0.520L0.505 0.526V0.524Q0.507 0.517 0.509 0.517Q0.507 0.513 0.507 0.511H0.504Q0.490 0.533 0.475 0.533H0.473Q0.440 0.509 0.433 0.509Q0.433 0.507 0.424 0.500L0.429 0.491H0.426V0.487H0.429V0.482Q0.429 0.478 0.431 0.475Q0.429 0.464 0.422 0.464V0.462L0.431 0.460Q0.419 0.426 0.395 0.426L0.392 0.424Q0.392 0.426 0.390 0.426V0.424L0.386 0.426Q0.384 0.426 0.384 0.424Q0.370 0.427 0.368 0.431Q0.364 0.431 0.364 0.435H0.359V0.431Q0.376 0.420 0.390 0.419Q0.390 0.421 0.392 0.421Q0.392 0.419 0.393 0.419Q0.393 0.421 0.395 0.421V0.419Q0.433 0.431 0.433 0.446Q0.439 0.450 0.439 0.458H0.440L0.444 0.457V0.458Q0.440 0.463 0.440 0.466L0.442 0.470L0.440 0.473V0.475H0.442L0.453 0.453H0.449L0.444 0.457V0.455Q0.461 0.441 0.462 0.424Q0.460 0.424 0.460 0.422Q0.462 0.422 0.462 0.421H0.460L0.462 0.417Q0.459 0.386 0.437 0.386H0.435L0.420 0.398V0.395Q0.427 0.381 0.433 0.379Q0.433 0.381 0.435 0.381Q0.435 0.377 0.439 0.377Q0.439 0.379 0.440 0.379Q0.440 0.377 0.442 0.377Q0.442 0.379 0.444 0.379V0.377L0.457 0.384H0.458V0.377Q0.458 0.332 0.502 0.319Q0.508 0.319 0.511 0.317Q0.511 0.319 0.513 0.319Q0.513 0.317 0.514 0.317Q0.514 0.319 0.516 0.319V0.317Q0.550 0.317 0.560 0.362L0.558 0.366V0.368Q0.560 0.367 0.631 0.272V0.261Q0.623 0.261 0.620 0.253V0.252Q0.620 0.249 0.627 0.245V0.246ZM0.723 0.245H0.727V0.246H0.723ZM0.708 0.246H0.710V0.250H0.708ZM0.721 0.246H0.723V0.253H0.721ZM0.690 0.250H0.692V0.253H0.690ZM0.708 0.250V0.253H0.705Q0.705 0.250 0.708 0.250ZM0.683 0.255Q0.698 0.261 0.698 0.263V0.266L0.694 0.265V0.266L0.690 0.265L0.683 0.270Q0.681 0.266 0.681 0.265ZM0.732 0.255H0.736V0.257H0.732ZM0.558 0.257 0.561 0.259Q0.561 0.257 0.563 0.257V0.266H0.554V0.261Q0.555 0.257 0.558 0.257ZM0.580 0.257 0.585 0.261 0.589 0.259V0.268H0.587Q0.585 0.268 0.585 0.266L0.582 0.268H0.580ZM0.605 0.259Q0.607 0.259 0.607 0.261L0.610 0.259H0.614Q0.616 0.259 0.621 0.266Q0.618 0.275 0.614 0.276Q0.611 0.274 0.609 0.274Q0.609 0.276 0.607 0.276Q0.607 0.273 0.603 0.268ZM0.603 0.286H0.605Q0.608 0.288 0.610 0.288Q0.610 0.286 0.612 0.286V0.295H0.610Q0.609 0.295 0.609 0.293L0.605 0.295H0.603ZM0.652 0.312V0.313L0.656 0.312H0.659Q0.655 0.324 0.638 0.330V0.326Q0.638 0.321 0.652 0.312ZM0.464 0.373H0.465Q0.465 0.375 0.464 0.375L0.465 0.388V0.390Q0.465 0.391 0.464 0.391Q0.465 0.397 0.467 0.397Q0.467 0.398 0.465 0.398Q0.465 0.400 0.467 0.410Q0.466 0.424 0.464 0.424L0.465 0.428Q0.464 0.429 0.464 0.440H0.465V0.442Q0.458 0.442 0.446 0.477Q0.444 0.477 0.444 0.479L0.446 0.482Q0.443 0.482 0.440 0.487L0.446 0.494H0.442L0.439 0.493L0.435 0.498V0.502Q0.435 0.506 0.439 0.506Q0.439 0.504 0.440 0.504Q0.440 0.506 0.442 0.506Q0.442 0.504 0.444 0.504Q0.444 0.506 0.446 0.506Q0.446 0.504 0.448 0.504Q0.448 0.506 0.455 0.509L0.500 0.446L0.493 0.440Q0.493 0.442 0.491 0.442Q0.491 0.439 0.488 0.435V0.433Q0.500 0.442 0.504 0.444V0.440Q0.496 0.431 0.491 0.431V0.430H0.497Q0.497 0.433 0.500 0.433H0.502V0.428L0.511 0.433L0.556 0.372V0.362L0.554 0.359H0.556Q0.544 0.328 0.533 0.328Q0.533 0.326 0.514 0.323Q0.464 0.334 0.464 0.373ZM0.616 0.359H0.620Q0.620 0.362 0.616 0.362ZM0.612 0.364H0.614Q0.614 0.368 0.610 0.368H0.609Q0.609 0.364 0.612 0.364ZM0.605 0.370H0.609V0.372H0.605ZM0.435 0.406Q0.435 0.413 0.444 0.413Q0.437 0.418 0.437 0.426L0.431 0.422L0.424 0.426V0.424L0.428 0.419V0.415Q0.422 0.415 0.422 0.411Q0.430 0.411 0.435 0.406ZM0.486 0.410H0.489V0.413Q0.486 0.413 0.486 0.410ZM0.484 0.413H0.488Q0.488 0.421 0.489 0.421Q0.499 0.419 0.500 0.419Q0.503 0.421 0.505 0.421Q0.505 0.424 0.493 0.426L0.486 0.422Q0.486 0.424 0.484 0.424V0.422Q0.476 0.426 0.473 0.426V0.422Q0.484 0.421 0.484 0.413ZM0.362 0.417H0.366L0.359 0.424Q0.360 0.424 0.360 0.426H0.352L0.350 0.422Q0.356 0.417 0.362 0.417ZM0.488 0.428H0.491V0.430H0.488ZM0.482 0.431H0.488V0.433H0.482ZM0.505 0.435V0.438Q0.509 0.438 0.509 0.435ZM0.476 0.435H0.480V0.437H0.476ZM0.471 0.437H0.475V0.438H0.471ZM0.482 0.437H0.484Q0.487 0.437 0.489 0.442V0.444Q0.487 0.444 0.482 0.437ZM0.465 0.438H0.471V0.440H0.465ZM0.350 0.440H0.355Q0.352 0.447 0.350 0.447Q0.350 0.446 0.348 0.446Q0.350 0.442 0.350 0.440ZM0.488 0.446H0.493V0.451H0.489Q0.489 0.449 0.488 0.446ZM0.339 0.451H0.343Q0.346 0.451 0.348 0.468H0.346L0.341 0.464L0.337 0.466L0.335 0.462V0.460Q0.339 0.456 0.339 0.451ZM0.544 0.455H0.549V0.457Q0.547 0.457 0.544 0.458ZM0.304 0.466Q0.307 0.466 0.310 0.473Q0.308 0.476 0.308 0.479H0.310Q0.308 0.482 0.308 0.486L0.304 0.484Q0.291 0.489 0.288 0.489Q0.288 0.484 0.301 0.482V0.473Q0.304 0.473 0.304 0.466ZM0.377 0.468V0.473Q0.373 0.471 0.371 0.471V0.470Q0.373 0.470 0.377 0.468ZM0.317 0.470 0.320 0.471Q0.320 0.470 0.322 0.470V0.471Q0.322 0.475 0.319 0.475L0.317 0.471ZM0.322 0.473H0.328V0.475H0.322ZM0.328 0.475H0.331V0.477H0.328ZM0.333 0.477H0.335Q0.341 0.477 0.344 0.494Q0.344 0.509 0.333 0.511Q0.333 0.509 0.331 0.509Q0.331 0.511 0.330 0.511Q0.330 0.509 0.328 0.509Q0.328 0.513 0.324 0.513V0.511Q0.315 0.513 0.315 0.515L0.301 0.507V0.506Q0.313 0.487 0.319 0.487V0.486L0.317 0.482H0.326Q0.328 0.482 0.328 0.484Q0.331 0.482 0.337 0.482ZM0.545 0.477H0.547V0.480H0.545ZM0.525 0.480Q0.525 0.488 0.531 0.491Q0.537 0.487 0.540 0.487Q0.540 0.491 0.525 0.498V0.496L0.522 0.498Q0.518 0.498 0.518 0.494V0.493L0.520 0.489H0.518Q0.522 0.481 0.525 0.480ZM0.544 0.480H0.545V0.484H0.544ZM0.348 0.482 0.352 0.484Q0.352 0.482 0.353 0.482Q0.354 0.486 0.357 0.486L0.360 0.484L0.369 0.496Q0.369 0.521 0.344 0.533V0.531Q0.331 0.533 0.331 0.535L0.328 0.533Q0.326 0.533 0.326 0.535Q0.315 0.531 0.312 0.531V0.533Q0.303 0.528 0.294 0.526Q0.295 0.523 0.295 0.517Q0.292 0.517 0.292 0.509H0.295Q0.295 0.516 0.315 0.522Q0.315 0.520 0.317 0.520V0.522L0.333 0.517V0.518Q0.343 0.518 0.353 0.500L0.352 0.491V0.486H0.348ZM0.273 0.484H0.279V0.486Q0.277 0.486 0.273 0.487ZM0.395 0.484Q0.395 0.491 0.404 0.491L0.401 0.496V0.498L0.404 0.504H0.393Q0.393 0.507 0.390 0.507Q0.390 0.496 0.384 0.496V0.491L0.388 0.493Q0.391 0.491 0.393 0.491V0.489L0.392 0.486ZM0.283 0.489H0.288V0.491H0.283ZM0.270 0.491V0.494Q0.268 0.494 0.264 0.496V0.493Q0.266 0.493 0.270 0.491ZM0.283 0.491V0.494H0.279Q0.280 0.491 0.283 0.491ZM0.279 0.494V0.498H0.275Q0.276 0.494 0.279 0.494ZM0.263 0.496H0.264V0.500H0.263ZM0.275 0.498V0.500Q0.271 0.509 0.268 0.509V0.507Q0.271 0.499 0.275 0.498ZM0.497 0.500Q0.497 0.503 0.476 0.529Q0.489 0.526 0.498 0.506H0.497L0.498 0.502V0.500ZM0.540 0.500H0.542Q0.542 0.503 0.535 0.507V0.506Q0.535 0.503 0.540 0.500ZM0.375 0.504H0.379Q0.379 0.506 0.384 0.522Q0.393 0.522 0.393 0.513V0.511H0.395Q0.395 0.514 0.399 0.520L0.390 0.527H0.388V0.524H0.384V0.531H0.386V0.535Q0.379 0.535 0.379 0.543Q0.381 0.545 0.390 0.545V0.543H0.393Q0.392 0.547 0.392 0.549Q0.393 0.556 0.401 0.556Q0.401 0.554 0.399 0.554Q0.399 0.553 0.404 0.540Q0.402 0.540 0.402 0.538L0.406 0.536H0.408V0.538Q0.404 0.544 0.404 0.549Q0.411 0.556 0.411 0.562H0.413Q0.424 0.553 0.424 0.547L0.451 0.566V0.567Q0.442 0.580 0.440 0.580Q0.420 0.564 0.402 0.564Q0.401 0.560 0.401 0.558H0.392V0.562H0.390L0.380 0.560V0.562Q0.377 0.560 0.375 0.560V0.558Q0.380 0.558 0.380 0.554V0.551L0.373 0.549L0.375 0.553Q0.369 0.553 0.369 0.556V0.560H0.373V0.562Q0.371 0.562 0.368 0.564Q0.368 0.562 0.366 0.562Q0.366 0.566 0.362 0.566Q0.362 0.564 0.360 0.564Q0.360 0.566 0.359 0.566V0.564L0.337 0.571L0.326 0.566Q0.324 0.567 0.315 0.567V0.566L0.312 0.567Q0.312 0.562 0.308 0.562L0.312 0.554L0.304 0.553L0.306 0.549Q0.303 0.547 0.301 0.547L0.303 0.543H0.299L0.295 0.545Q0.295 0.539 0.292 0.535V0.533Q0.295 0.533 0.312 0.540V0.538L0.320 0.542V0.540L0.324 0.542Q0.326 0.542 0.326 0.540L0.330 0.542L0.333 0.540V0.542Q0.369 0.534 0.369 0.522Q0.375 0.519 0.375 0.504ZM0.418 0.507H0.422Q0.422 0.513 0.429 0.513V0.515Q0.427 0.515 0.422 0.520Q0.420 0.520 0.420 0.518L0.416 0.520H0.413V0.518Q0.418 0.510 0.418 0.507ZM0.266 0.509H0.268V0.513H0.266ZM0.264 0.513H0.266V0.518H0.264ZM0.404 0.515Q0.408 0.515 0.408 0.518H0.401Q0.401 0.515 0.404 0.515ZM0.439 0.520H0.440V0.524H0.439ZM0.263 0.522H0.264V0.536H0.263ZM0.444 0.524H0.449V0.527Q0.446 0.526 0.444 0.526ZM0.404 0.527H0.413Q0.413 0.531 0.409 0.531Q0.406 0.529 0.404 0.529ZM0.428 0.527H0.429Q0.443 0.531 0.464 0.545L0.455 0.558H0.457Q0.467 0.553 0.467 0.551Q0.471 0.553 0.473 0.553Q0.473 0.557 0.457 0.564Q0.457 0.562 0.429 0.540Q0.432 0.540 0.435 0.535ZM0.449 0.527H0.453V0.529H0.449ZM0.453 0.529H0.457V0.531H0.453ZM0.457 0.531Q0.460 0.533 0.462 0.533V0.535H0.457ZM0.393 0.533H0.395V0.536H0.393ZM0.462 0.535H0.464Q0.466 0.535 0.469 0.540H0.467Q0.465 0.540 0.462 0.535ZM0.254 0.540H0.256Q0.256 0.555 0.272 0.573H0.268V0.585H0.266V0.569H0.261V0.585Q0.259 0.585 0.256 0.587L0.254 0.583ZM0.392 0.540H0.395V0.542H0.392ZM0.486 0.542H0.493Q0.497 0.542 0.497 0.545V0.551Q0.488 0.543 0.486 0.543ZM0.264 0.545H0.266V0.549H0.264ZM0.476 0.547H0.480V0.549H0.476ZM0.484 0.551Q0.493 0.555 0.493 0.562Q0.484 0.559 0.484 0.551ZM0.268 0.553H0.270V0.556H0.268ZM0.270 0.556Q0.272 0.556 0.279 0.567H0.275ZM0.482 0.564H0.484Q0.484 0.567 0.486 0.567Q0.483 0.576 0.475 0.576Q0.482 0.567 0.482 0.564ZM0.310 0.566 0.312 0.569Q0.308 0.569 0.308 0.573V0.576H0.312V0.578Q0.310 0.578 0.306 0.580Q0.306 0.578 0.304 0.578Q0.304 0.582 0.301 0.582V0.580L0.297 0.582H0.295Q0.295 0.579 0.290 0.575H0.292L0.295 0.576Q0.295 0.571 0.297 0.571Q0.301 0.573 0.303 0.573Q0.303 0.570 0.310 0.566ZM0.294 0.567H0.295V0.571H0.294ZM0.281 0.569H0.284V0.573H0.281ZM0.371 0.569Q0.371 0.571 0.373 0.571V0.569L0.377 0.571L0.380 0.569V0.571L0.384 0.569Q0.386 0.569 0.386 0.571L0.390 0.569H0.392Q0.392 0.575 0.397 0.575V0.571H0.402V0.575L0.406 0.573H0.409Q0.424 0.573 0.448 0.594Q0.439 0.603 0.429 0.603V0.613H0.433L0.429 0.618V0.622H0.433Q0.433 0.623 0.422 0.632V0.634Q0.422 0.637 0.431 0.643L0.429 0.647V0.649Q0.429 0.654 0.433 0.660H0.431L0.428 0.658L0.426 0.662V0.665L0.428 0.669Q0.424 0.669 0.424 0.672Q0.424 0.674 0.426 0.674Q0.413 0.701 0.413 0.703V0.705Q0.415 0.705 0.415 0.707Q0.412 0.707 0.409 0.716Q0.395 0.718 0.395 0.721L0.386 0.720H0.384L0.380 0.721V0.718H0.375L0.371 0.720Q0.371 0.717 0.368 0.712Q0.374 0.707 0.377 0.707V0.705Q0.377 0.702 0.364 0.692L0.359 0.696Q0.359 0.692 0.355 0.692Q0.338 0.720 0.322 0.734L0.313 0.730V0.732Q0.292 0.728 0.292 0.727L0.294 0.723Q0.292 0.720 0.292 0.718V0.714H0.294Q0.294 0.721 0.297 0.721Q0.331 0.673 0.331 0.669V0.667Q0.331 0.663 0.326 0.663L0.328 0.656Q0.317 0.644 0.317 0.636H0.319Q0.316 0.623 0.303 0.623V0.622H0.308L0.312 0.623Q0.319 0.623 0.328 0.611V0.609Q0.324 0.602 0.319 0.602V0.600Q0.323 0.600 0.331 0.594V0.592Q0.337 0.592 0.337 0.598H0.343L0.348 0.591Q0.348 0.589 0.352 0.589V0.585Q0.352 0.582 0.343 0.582V0.578Q0.355 0.573 0.359 0.573L0.366 0.575Q0.366 0.569 0.371 0.569ZM0.375 0.583V0.591L0.377 0.594Q0.370 0.594 0.353 0.602L0.355 0.605Q0.343 0.610 0.343 0.622Q0.334 0.622 0.328 0.632V0.634Q0.328 0.637 0.341 0.647Q0.348 0.636 0.353 0.636V0.634Q0.344 0.624 0.344 0.623Q0.350 0.623 0.350 0.618Q0.348 0.618 0.348 0.616Q0.352 0.616 0.352 0.613L0.362 0.622H0.364Q0.367 0.622 0.377 0.609Q0.374 0.609 0.368 0.600H0.371L0.379 0.605H0.380V0.598L0.379 0.594H0.380L0.388 0.598L0.397 0.585L0.392 0.582L0.393 0.578Q0.393 0.576 0.388 0.573Q0.378 0.583 0.375 0.583ZM0.286 0.573H0.290V0.575H0.286ZM0.275 0.576Q0.284 0.581 0.284 0.583L0.281 0.585V0.583L0.277 0.585H0.275ZM0.337 0.580Q0.341 0.582 0.343 0.582V0.585Q0.339 0.583 0.337 0.583ZM0.333 0.583H0.337V0.585H0.333ZM0.328 0.585H0.333V0.589Q0.330 0.587 0.328 0.587ZM0.301 0.587H0.304V0.589H0.301ZM0.337 0.589H0.339V0.592H0.337ZM0.284 0.591V0.605Q0.284 0.612 0.286 0.622Q0.283 0.629 0.281 0.629H0.279Q0.276 0.629 0.273 0.620H0.275Q0.273 0.616 0.273 0.614Q0.273 0.611 0.275 0.592Q0.282 0.592 0.284 0.591ZM0.294 0.591H0.295V0.620H0.303V0.622H0.295V0.643Q0.295 0.645 0.297 0.645Q0.295 0.648 0.295 0.656H0.294ZM0.254 0.592 0.257 0.594Q0.257 0.592 0.259 0.592L0.261 0.596V0.699H0.266V0.665Q0.266 0.663 0.264 0.663L0.266 0.660V0.592H0.268V0.703Q0.268 0.705 0.270 0.705Q0.268 0.708 0.268 0.712L0.264 0.711H0.261V0.725Q0.259 0.725 0.259 0.723L0.256 0.725H0.254V0.663Q0.254 0.651 0.256 0.641Q0.254 0.632 0.254 0.620ZM0.418 0.605Q0.418 0.608 0.409 0.620V0.622H0.411Q0.421 0.613 0.424 0.613V0.607Q0.422 0.607 0.418 0.605ZM0.404 0.625Q0.404 0.630 0.393 0.639Q0.396 0.647 0.399 0.647H0.406Q0.406 0.642 0.409 0.638V0.629Q0.409 0.625 0.406 0.625ZM0.312 0.634H0.313Q0.313 0.638 0.310 0.638H0.308Q0.308 0.634 0.312 0.634ZM0.408 0.645 0.402 0.654H0.399V0.649Q0.392 0.651 0.392 0.658L0.399 0.654Q0.399 0.662 0.409 0.669H0.411Q0.421 0.660 0.424 0.660V0.658Q0.424 0.655 0.411 0.645ZM0.375 0.681 0.379 0.687Q0.371 0.689 0.371 0.692V0.694Q0.380 0.707 0.390 0.707Q0.409 0.704 0.409 0.692H0.411V0.683L0.413 0.679H0.408V0.688H0.406Q0.406 0.683 0.388 0.669Q0.382 0.671 0.375 0.681ZM0.322 0.678H0.326V0.679H0.322ZM0.440 0.679V0.683H0.437Q0.437 0.679 0.440 0.679ZM0.357 0.690Q0.360 0.688 0.362 0.688V0.685Q0.360 0.685 0.357 0.690ZM0.399 0.685V0.687Q0.399 0.689 0.393 0.692H0.392Q0.392 0.689 0.399 0.685ZM0.337 0.720H0.339V0.721Q0.337 0.731 0.337 0.736Q0.333 0.736 0.333 0.732ZM0.359 0.728V0.730Q0.355 0.736 0.355 0.739H0.352Q0.355 0.728 0.359 0.728ZM0.256 0.730Q0.259 0.732 0.261 0.732V0.745Q0.261 0.747 0.270 0.754L0.273 0.752Q0.282 0.761 0.299 0.767V0.768L0.295 0.774Q0.275 0.765 0.259 0.750Q0.253 0.747 0.252 0.739Q0.250 0.739 0.250 0.737V0.736Q0.256 0.736 0.256 0.730ZM0.275 0.732 0.283 0.739Q0.283 0.737 0.290 0.734Q0.295 0.736 0.295 0.737L0.299 0.736Q0.304 0.737 0.304 0.739L0.308 0.737Q0.311 0.739 0.313 0.739V0.737Q0.317 0.739 0.319 0.739V0.747L0.315 0.745L0.313 0.754Q0.307 0.750 0.304 0.750V0.752Q0.293 0.748 0.290 0.748V0.750Q0.284 0.748 0.284 0.747L0.281 0.748L0.277 0.747L0.279 0.743Q0.275 0.737 0.275 0.732ZM0.428 0.739H0.429V0.743H0.428ZM0.328 0.743H0.330V0.747H0.328ZM0.333 0.743H0.335V0.747H0.333ZM0.319 0.748H0.320V0.754H0.319ZM0.366 0.750H0.369Q0.368 0.754 0.368 0.756Q0.364 0.754 0.362 0.754Q0.363 0.750 0.366 0.750ZM0.495 0.750H0.505Q0.505 0.754 0.502 0.754H0.498Q0.495 0.754 0.495 0.750ZM0.542 0.750H0.545V0.752H0.542ZM0.489 0.752H0.495V0.754H0.489ZM0.346 0.754H0.348V0.758H0.346ZM0.359 0.754H0.362Q0.362 0.758 0.359 0.758ZM0.235 0.756H0.239V0.758H0.235ZM0.254 0.756Q0.261 0.758 0.261 0.767L0.264 0.765Q0.283 0.777 0.288 0.777Q0.280 0.788 0.275 0.788V0.792Q0.277 0.792 0.281 0.794Q0.290 0.791 0.290 0.784Q0.292 0.784 0.292 0.786Q0.299 0.786 0.299 0.777H0.350V0.774H0.352Q0.352 0.777 0.353 0.777L0.368 0.770V0.774H0.371L0.377 0.770V0.774H0.418L0.416 0.777H0.437L0.433 0.772Q0.442 0.772 0.448 0.763L0.451 0.765H0.458Q0.460 0.765 0.460 0.763Q0.464 0.765 0.465 0.765V0.767Q0.458 0.767 0.453 0.777H0.473Q0.476 0.777 0.507 0.794Q0.527 0.799 0.527 0.801L0.531 0.799Q0.536 0.801 0.536 0.803L0.540 0.801Q0.542 0.801 0.542 0.803L0.545 0.801L0.549 0.803Q0.549 0.801 0.551 0.801V0.803L0.554 0.801Q0.556 0.801 0.556 0.803L0.567 0.799Q0.567 0.801 0.569 0.801V0.799L0.572 0.801Q0.580 0.798 0.602 0.794V0.795L0.618 0.790Q0.618 0.792 0.620 0.792Q0.620 0.790 0.621 0.790Q0.621 0.792 0.623 0.792Q0.624 0.788 0.627 0.788Q0.627 0.790 0.629 0.790Q0.629 0.786 0.633 0.786Q0.633 0.788 0.634 0.788Q0.635 0.784 0.638 0.784V0.786Q0.669 0.777 0.674 0.777H0.689V0.786Q0.684 0.786 0.681 0.788Q0.681 0.786 0.680 0.786Q0.672 0.793 0.672 0.797L0.669 0.795L0.665 0.801L0.667 0.810H0.659V0.801L0.656 0.795Q0.668 0.790 0.672 0.790Q0.670 0.786 0.670 0.784Q0.669 0.784 0.669 0.786L0.665 0.784Q0.658 0.785 0.654 0.795L0.650 0.797Q0.650 0.795 0.649 0.795Q0.649 0.798 0.634 0.803Q0.634 0.801 0.633 0.801Q0.633 0.803 0.631 0.803V0.801Q0.618 0.804 0.618 0.810H0.607L0.609 0.807V0.803H0.607Q0.602 0.803 0.589 0.810V0.808L0.585 0.810H0.498Q0.497 0.810 0.497 0.808L0.493 0.810L0.471 0.801V0.803Q0.453 0.797 0.451 0.794L0.448 0.795Q0.435 0.790 0.433 0.790V0.792Q0.422 0.788 0.422 0.786L0.418 0.788Q0.412 0.784 0.401 0.783V0.784L0.393 0.781Q0.393 0.784 0.390 0.784V0.783L0.369 0.788V0.786Q0.355 0.788 0.355 0.790L0.337 0.786Q0.337 0.788 0.335 0.788V0.786L0.331 0.788L0.328 0.786Q0.328 0.788 0.313 0.795Q0.313 0.794 0.312 0.794Q0.310 0.797 0.310 0.799L0.306 0.797V0.805H0.312Q0.329 0.794 0.333 0.794V0.795Q0.335 0.795 0.335 0.794Q0.339 0.794 0.350 0.797V0.795L0.353 0.797L0.357 0.795V0.797Q0.377 0.795 0.382 0.792V0.794Q0.389 0.790 0.397 0.790V0.792Q0.399 0.792 0.399 0.790Q0.410 0.792 0.418 0.795V0.794Q0.429 0.796 0.429 0.799L0.433 0.797Q0.445 0.803 0.448 0.803V0.801Q0.462 0.808 0.467 0.808V0.810Q0.446 0.810 0.446 0.812L0.437 0.810H0.413L0.415 0.814V0.816Q0.409 0.821 0.409 0.824H0.395Q0.392 0.824 0.390 0.841H0.393V0.843H0.390Q0.358 0.830 0.353 0.830Q0.353 0.832 0.352 0.832Q0.352 0.829 0.344 0.824H0.343Q0.339 0.824 0.308 0.839H0.297L0.295 0.848Q0.292 0.848 0.292 0.844Q0.295 0.844 0.295 0.841V0.839L0.288 0.837Q0.286 0.841 0.286 0.843H0.284Q0.284 0.839 0.275 0.828H0.281V0.833H0.283Q0.294 0.827 0.294 0.824V0.819L0.284 0.817Q0.276 0.820 0.270 0.824H0.268V0.821Q0.267 0.821 0.257 0.823Q0.255 0.821 0.247 0.821L0.245 0.824Q0.247 0.824 0.247 0.826H0.239V0.823Q0.237 0.823 0.224 0.824H0.223V0.823Q0.233 0.823 0.237 0.810H0.230L0.234 0.805V0.803L0.221 0.801V0.799Q0.245 0.799 0.245 0.788Q0.247 0.788 0.247 0.786Q0.240 0.783 0.237 0.783V0.781Q0.257 0.781 0.257 0.772Q0.239 0.759 0.239 0.758H0.241L0.250 0.763H0.254ZM0.295 0.756Q0.299 0.758 0.301 0.758V0.759H0.295ZM0.513 0.756H0.516V0.758H0.513ZM0.304 0.758H0.306V0.761H0.301Q0.301 0.758 0.304 0.758ZM0.390 0.758H0.393V0.759H0.390ZM0.308 0.759Q0.312 0.760 0.312 0.763V0.765Q0.308 0.765 0.308 0.761ZM0.390 0.759Q0.390 0.762 0.379 0.768H0.377V0.765Q0.387 0.759 0.390 0.759ZM0.319 0.761H0.322V0.763H0.319ZM0.473 0.763H0.476V0.765H0.473ZM0.333 0.765V0.767Q0.333 0.770 0.330 0.770V0.768Q0.330 0.765 0.333 0.765ZM0.341 0.767H0.343Q0.343 0.769 0.344 0.772L0.339 0.776V0.774Q0.341 0.771 0.341 0.767ZM0.507 0.774H0.514V0.776H0.507ZM0.228 0.777H0.232V0.779H0.228ZM0.493 0.777H0.582V0.781Q0.579 0.781 0.572 0.792Q0.570 0.794 0.565 0.794Q0.563 0.794 0.563 0.792Q0.554 0.794 0.554 0.795L0.551 0.794Q0.549 0.794 0.549 0.795Q0.511 0.790 0.493 0.779ZM0.607 0.777H0.614L0.623 0.779V0.783Q0.621 0.783 0.618 0.784Q0.618 0.783 0.616 0.783Q0.616 0.784 0.614 0.784Q0.614 0.783 0.612 0.783Q0.612 0.786 0.609 0.786V0.784L0.593 0.790L0.591 0.786Q0.598 0.777 0.607 0.777ZM0.234 0.779H0.237V0.781H0.234ZM0.685 0.794H0.689V0.810H0.687L0.674 0.807Q0.682 0.794 0.685 0.794ZM0.610 0.807V0.808H0.614V0.803Q0.610 0.803 0.610 0.807ZM0.649 0.805V0.807L0.652 0.805H0.654V0.810H0.645V0.808Q0.645 0.805 0.649 0.805ZM0.243 0.810V0.812H0.247L0.245 0.816V0.817H0.248Q0.251 0.817 0.254 0.810ZM0.382 0.810V0.812H0.397V0.810ZM0.469 0.808H0.473V0.810H0.469ZM0.435 0.819H0.437V0.824H0.433Q0.435 0.821 0.435 0.819ZM0.409 0.824H0.413L0.416 0.826V0.824Q0.420 0.826 0.422 0.826V0.828Q0.416 0.830 0.411 0.830Q0.411 0.828 0.409 0.824ZM0.281 0.826H0.284V0.828H0.281ZM0.457 0.826H0.462V0.828H0.457ZM0.268 0.832H0.272V0.833H0.268ZM0.248 0.835Q0.251 0.837 0.256 0.837V0.839Q0.249 0.839 0.232 0.846Q0.232 0.844 0.248 0.835ZM0.343 0.835H0.344Q0.348 0.836 0.348 0.839L0.344 0.841Q0.344 0.839 0.343 0.835ZM0.333 0.839Q0.336 0.839 0.339 0.844Q0.339 0.848 0.335 0.848ZM0.346 0.841H0.348V0.844H0.346ZM0.324 0.843H0.326V0.846H0.324ZM0.393 0.843H0.397V0.844H0.393ZM0.304 0.844H0.306V0.852H0.303V0.850Q0.304 0.846 0.304 0.844ZM0.315 0.844H0.317V0.854H0.313ZM0.397 0.844H0.401V0.846H0.397ZM0.326 0.846H0.328Q0.328 0.848 0.330 0.852H0.326ZM0.371 0.850Q0.374 0.850 0.384 0.863H0.382Q0.373 0.855 0.369 0.855Q0.371 0.852 0.371 0.850ZM0.259 0.852 0.261 0.855Q0.258 0.855 0.252 0.861H0.250Q0.250 0.858 0.259 0.852ZM0.261 0.852H0.264V0.854H0.261ZM0.304 0.855H0.306Q0.306 0.874 0.308 0.884L0.306 0.895H0.304ZM0.324 0.855H0.326V0.861H0.324ZM0.312 0.857H0.313V0.861H0.312ZM0.272 0.861H0.273Q0.273 0.863 0.275 0.866L0.264 0.877V0.875Q0.272 0.865 0.272 0.861ZM0.319 0.861H0.320V0.865H0.319ZM0.245 0.863H0.248V0.865H0.245ZM0.360 0.863Q0.360 0.867 0.369 0.879V0.880Q0.367 0.880 0.355 0.865Q0.357 0.865 0.360 0.863ZM0.310 0.865H0.312V0.868H0.310ZM0.320 0.870H0.322V0.873H0.320ZM0.343 0.870H0.344Q0.344 0.872 0.348 0.886V0.888H0.346Q0.346 0.884 0.341 0.875Q0.343 0.872 0.343 0.870ZM0.292 0.872V0.873Q0.284 0.887 0.284 0.890H0.283V0.888Q0.287 0.872 0.292 0.872ZM0.322 0.877H0.326L0.328 0.886V0.901H0.326Q0.326 0.889 0.322 0.877ZM0.348 0.888H0.350V0.892H0.348ZM0.281 0.890H0.283V0.893H0.281ZM0.303 0.897H0.304V0.901H0.303Z" fill="black"/>
</svg>
