<svg xmlns="http://www.w3.org/2000/svg" viewBox="0 0 1 1" preserveAspectRatio="xMidYMid meet">
  <path d="M0.561 0.506Q0.547 0.505 0.534 0.505Q0.440 0.505 0.385 0.541Q0.337 0.573 0.337 0.635Q0.337 0.653 0.341 0.674Q0.359 0.766 0.501 0.773Q0.508 0.773 0.515 0.773Q0.644 0.773 0.661 0.638H0.700Q0.681 0.811 0.504 0.811H0.501Q0.457 0.811 0.420 0.797Q0.300 0.750 0.300 0.639Q0.300 0.571 0.349 0.523Q0.397 0.475 0.524 0.475H0.526V0.323H0.561ZM0.539 0.203Q0.550 0.203 0.558 0.211Q0.566 0.218 0.566 0.229Q0.566 0.240 0.558 0.248Q0.550 0.255 0.539 0.255Q0.529 0.255 0.521 0.248Q0.513 0.240 0.513 0.229Q0.513 0.218 0.521 0.211Q0.529 0.203 0.539 0.203Z" fill="black"/>
</svg>
