<svg xmlns="http://www.w3.org/2000/svg" viewBox="0 0 1 1" preserveAspectRatio="xMidYMid meet">
  <path d="M0.640 0.091 0.579 0.171H0.544L0.605 0.091ZM0.568 0.203V0.223Q0.568 0.240 0.540 0.253V0.251Q0.540 0.245 0.568 0.203ZM0.573 0.223H0.575V0.236L0.564 0.251Q0.567 0.253 0.572 0.253V0.254Q0.563 0.254 0.551 0.271Q0.551 0.260 0.544 0.260H0.542V0.258Q0.573 0.242 0.573 0.223ZM0.579 0.238H0.581L0.583 0.247H0.573Q0.579 0.241 0.579 0.238ZM0.581 0.258H0.588Q0.588 0.260 0.590 0.264Q0.585 0.264 0.564 0.271Q0.564 0.267 0.562 0.264Q0.574 0.258 0.581 0.258ZM0.534 0.262H0.538Q0.531 0.277 0.531 0.290Q0.533 0.309 0.536 0.316Q0.527 0.316 0.527 0.325Q0.527 0.327 0.520 0.331V0.319Q0.520 0.315 0.521 0.312Q0.520 0.309 0.520 0.304L0.527 0.310Q0.531 0.310 0.531 0.306V0.304Q0.527 0.297 0.521 0.297Q0.534 0.266 0.534 0.262ZM0.542 0.265H0.546V0.286L0.548 0.290Q0.542 0.291 0.542 0.301V0.303Q0.542 0.306 0.548 0.306Q0.545 0.316 0.542 0.316Q0.536 0.300 0.536 0.288Q0.536 0.282 0.542 0.265ZM0.592 0.269 0.594 0.273Q0.588 0.273 0.568 0.282V0.277Q0.585 0.269 0.592 0.269ZM0.557 0.273H0.559V0.277H0.557ZM0.588 0.280H0.590Q0.584 0.303 0.579 0.303H0.575V0.301L0.584 0.290Q0.584 0.286 0.575 0.286V0.284ZM0.596 0.282H0.597Q0.597 0.301 0.605 0.301V0.303Q0.587 0.331 0.584 0.331V0.329Q0.597 0.308 0.597 0.293Q0.594 0.293 0.594 0.290Q0.596 0.287 0.596 0.282ZM0.618 0.291H0.627V0.293H0.618ZM0.549 0.293H0.551V0.297H0.549ZM0.607 0.293H0.610V0.295H0.607ZM0.618 0.301Q0.633 0.301 0.649 0.312H0.651V0.310Q0.649 0.307 0.649 0.304Q0.652 0.304 0.655 0.310V0.314H0.651V0.319L0.657 0.316Q0.657 0.321 0.662 0.321Q0.666 0.319 0.668 0.319Q0.668 0.321 0.683 0.342Q0.681 0.342 0.681 0.344Q0.684 0.345 0.688 0.345Q0.688 0.347 0.686 0.347Q0.690 0.359 0.694 0.359V0.357Q0.701 0.359 0.701 0.362V0.364Q0.697 0.364 0.697 0.370Q0.696 0.370 0.686 0.359L0.684 0.362Q0.686 0.362 0.686 0.364H0.681V0.366L0.683 0.375Q0.681 0.375 0.681 0.377Q0.677 0.377 0.670 0.364Q0.671 0.364 0.671 0.362Q0.669 0.362 0.660 0.353L0.657 0.355V0.353Q0.662 0.342 0.664 0.342Q0.665 0.345 0.668 0.345H0.671V0.344Q0.671 0.342 0.664 0.334L0.666 0.325L0.662 0.323Q0.658 0.333 0.658 0.338Q0.660 0.338 0.660 0.340Q0.657 0.340 0.657 0.344Q0.658 0.344 0.658 0.345Q0.651 0.345 0.649 0.357L0.651 0.360Q0.649 0.363 0.649 0.368Q0.649 0.370 0.651 0.370L0.649 0.373V0.377L0.653 0.375Q0.670 0.396 0.675 0.396Q0.675 0.398 0.670 0.401Q0.670 0.399 0.668 0.399Q0.668 0.402 0.660 0.405Q0.660 0.403 0.658 0.403Q0.658 0.406 0.645 0.412Q0.720 0.606 0.720 0.611Q0.705 0.611 0.692 0.626Q0.656 0.535 0.655 0.525H0.467Q0.467 0.547 0.443 0.553Q0.428 0.567 0.428 0.581V0.583Q0.428 0.597 0.438 0.605Q0.434 0.613 0.434 0.618H0.436Q0.439 0.616 0.443 0.616Q0.445 0.622 0.454 0.622Q0.461 0.622 0.471 0.616Q0.503 0.623 0.508 0.629Q0.505 0.635 0.503 0.646Q0.505 0.649 0.505 0.653L0.501 0.666Q0.492 0.659 0.484 0.659Q0.484 0.661 0.482 0.661L0.480 0.657Q0.486 0.657 0.490 0.650V0.637Q0.486 0.629 0.479 0.626H0.471Q0.456 0.626 0.454 0.644Q0.449 0.640 0.443 0.640H0.438Q0.427 0.646 0.427 0.655V0.663H0.419L0.421 0.659V0.651H0.419L0.417 0.661Q0.407 0.653 0.401 0.653H0.395Q0.364 0.659 0.364 0.685V0.688L0.366 0.698Q0.363 0.698 0.360 0.703V0.707Q0.366 0.703 0.369 0.703Q0.379 0.718 0.393 0.718V0.720Q0.393 0.722 0.375 0.731Q0.364 0.742 0.364 0.755V0.763Q0.364 0.770 0.371 0.780Q0.367 0.785 0.367 0.791H0.364Q0.330 0.796 0.330 0.822V0.826H0.312Q0.287 0.826 0.267 0.837Q0.257 0.836 0.247 0.826L0.235 0.835H0.202L0.191 0.826L0.182 0.833H0.139Q0.101 0.833 0.065 0.844Q0.081 0.819 0.211 0.819Q0.211 0.821 0.219 0.826L0.228 0.819H0.247L0.265 0.817Q0.265 0.819 0.275 0.826Q0.286 0.812 0.321 0.798Q0.334 0.798 0.353 0.737Q0.355 0.737 0.362 0.714L0.358 0.712L0.345 0.727Q0.351 0.736 0.351 0.742Q0.350 0.742 0.342 0.735H0.340Q0.340 0.742 0.334 0.742L0.330 0.740L0.317 0.755Q0.319 0.759 0.319 0.761Q0.318 0.761 0.308 0.772Q0.305 0.770 0.301 0.770L0.289 0.783L0.291 0.787Q0.266 0.804 0.239 0.804Q0.202 0.798 0.202 0.776V0.772Q0.202 0.728 0.310 0.701Q0.317 0.687 0.340 0.663V0.661H0.336Q0.302 0.661 0.239 0.605Q0.222 0.594 0.217 0.594V0.592H0.223Q0.243 0.602 0.284 0.631Q0.303 0.642 0.321 0.642Q0.334 0.642 0.340 0.633V0.624H0.338L0.306 0.629Q0.288 0.629 0.276 0.613V0.603Q0.281 0.594 0.295 0.594Q0.310 0.594 0.338 0.603Q0.350 0.598 0.369 0.596Q0.388 0.599 0.404 0.607L0.484 0.392Q0.505 0.399 0.507 0.399Q0.521 0.383 0.521 0.364Q0.521 0.359 0.512 0.344Q0.518 0.344 0.523 0.336H0.525L0.529 0.359Q0.488 0.469 0.480 0.494H0.559L0.549 0.482Q0.570 0.478 0.570 0.462Q0.583 0.477 0.597 0.477Q0.590 0.491 0.590 0.494H0.642Q0.620 0.418 0.603 0.418V0.420L0.586 0.416V0.418Q0.575 0.415 0.575 0.412Q0.588 0.388 0.588 0.385Q0.588 0.376 0.584 0.370H0.586Q0.583 0.361 0.583 0.351V0.349H0.584V0.353H0.592V0.351L0.590 0.347Q0.592 0.347 0.592 0.345H0.588L0.590 0.342L0.588 0.338Q0.600 0.314 0.618 0.303ZM0.657 0.306H0.662V0.310H0.660Q0.657 0.310 0.657 0.306ZM0.579 0.308H0.583V0.310H0.579ZM0.664 0.308H0.668V0.310H0.664ZM0.662 0.310H0.664V0.314H0.662ZM0.670 0.310H0.673V0.312H0.670ZM0.677 0.312H0.681V0.314H0.677ZM0.683 0.312Q0.686 0.314 0.688 0.314L0.686 0.318Q0.683 0.316 0.681 0.316ZM0.709 0.314H0.712V0.319Q0.709 0.319 0.709 0.316ZM0.581 0.316H0.584V0.319H0.581ZM0.688 0.316H0.694Q0.696 0.316 0.696 0.318L0.699 0.316Q0.709 0.325 0.712 0.325V0.331H0.709Q0.709 0.326 0.701 0.325Q0.701 0.319 0.688 0.318ZM0.776 0.318H0.777V0.321H0.776ZM0.512 0.319H0.514V0.327Q0.514 0.331 0.510 0.331V0.329ZM0.653 0.323V0.325Q0.654 0.329 0.657 0.329L0.658 0.325V0.323ZM0.772 0.321H0.776V0.323H0.772ZM0.533 0.323Q0.538 0.325 0.538 0.334Q0.534 0.334 0.533 0.323ZM0.722 0.323H0.727V0.325H0.722ZM0.731 0.325H0.735V0.327H0.731ZM0.755 0.325Q0.755 0.327 0.757 0.327Q0.757 0.325 0.759 0.325L0.761 0.329H0.752Q0.752 0.325 0.755 0.325ZM0.874 0.331Q0.874 0.332 0.875 0.332Q0.875 0.331 0.877 0.331V0.336Q0.875 0.336 0.866 0.342Q0.866 0.340 0.864 0.340Q0.864 0.342 0.851 0.347Q0.851 0.345 0.849 0.345Q0.849 0.349 0.846 0.349V0.347Q0.840 0.350 0.829 0.353V0.351Q0.827 0.353 0.805 0.355H0.800V0.353Q0.833 0.353 0.862 0.336Q0.862 0.338 0.864 0.338Q0.864 0.336 0.874 0.331ZM0.572 0.332H0.577V0.334H0.572ZM0.501 0.349Q0.505 0.349 0.505 0.353V0.355H0.501ZM0.544 0.349Q0.548 0.349 0.548 0.353H0.544ZM0.766 0.351H0.770V0.353H0.766ZM0.703 0.353H0.707V0.355H0.703ZM0.787 0.353H0.798V0.355H0.787ZM0.707 0.355H0.711Q0.712 0.362 0.720 0.362V0.366H0.718Q0.707 0.359 0.707 0.357ZM0.508 0.357 0.512 0.372Q0.497 0.362 0.497 0.360Q0.504 0.360 0.508 0.357ZM0.724 0.357H0.727V0.359H0.724ZM0.657 0.359H0.660V0.362Q0.657 0.362 0.657 0.359ZM0.727 0.359H0.729Q0.733 0.360 0.735 0.360V0.362H0.729ZM0.752 0.359H0.755V0.360H0.752ZM0.759 0.360H0.763V0.362H0.759ZM0.765 0.360Q0.768 0.362 0.770 0.362V0.364H0.763ZM0.774 0.362H0.777L0.781 0.364V0.362L0.792 0.366V0.364Q0.796 0.366 0.798 0.366Q0.798 0.370 0.794 0.370V0.368L0.790 0.370H0.787L0.783 0.368V0.370L0.776 0.366V0.368Q0.772 0.366 0.770 0.366Q0.770 0.362 0.774 0.362ZM0.559 0.364Q0.568 0.369 0.568 0.372Q0.564 0.372 0.564 0.379Q0.553 0.377 0.553 0.370Q0.559 0.370 0.559 0.364ZM0.737 0.364H0.740V0.366H0.737ZM0.707 0.366H0.709Q0.709 0.368 0.711 0.372Q0.707 0.373 0.705 0.373Q0.705 0.379 0.735 0.423V0.425H0.731Q0.731 0.422 0.720 0.405H0.716Q0.716 0.409 0.714 0.409Q0.707 0.406 0.707 0.403V0.401L0.711 0.396V0.392Q0.697 0.375 0.697 0.370H0.699L0.703 0.372Q0.703 0.366 0.707 0.366ZM0.740 0.366H0.744V0.368H0.740ZM0.744 0.368H0.748V0.370H0.744ZM0.748 0.370H0.752V0.372H0.748ZM0.497 0.373H0.499L0.508 0.375Q0.508 0.373 0.510 0.373V0.377Q0.507 0.383 0.507 0.386H0.503Q0.497 0.375 0.497 0.373ZM0.666 0.373H0.670V0.377Q0.666 0.377 0.666 0.373ZM0.492 0.379H0.493Q0.493 0.381 0.499 0.390H0.495Q0.491 0.386 0.488 0.386Q0.492 0.382 0.492 0.379ZM0.548 0.405Q0.552 0.409 0.557 0.409Q0.553 0.415 0.553 0.420L0.546 0.416Q0.546 0.418 0.544 0.418Q0.544 0.416 0.542 0.416L0.544 0.412L0.542 0.409ZM0.679 0.418H0.683V0.420H0.679ZM0.735 0.425Q0.755 0.447 0.755 0.455Q0.749 0.455 0.735 0.425ZM0.570 0.434V0.438H0.566Q0.566 0.434 0.570 0.434ZM0.590 0.440H0.596Q0.594 0.444 0.594 0.446H0.592Q0.592 0.444 0.590 0.440ZM0.671 0.442Q0.674 0.442 0.677 0.447Q0.675 0.447 0.671 0.449Q0.671 0.447 0.670 0.447Q0.671 0.444 0.671 0.442ZM0.699 0.482Q0.702 0.482 0.705 0.488V0.492H0.699Q0.699 0.488 0.697 0.488Q0.699 0.484 0.699 0.482ZM0.779 0.501H0.785Q0.781 0.512 0.777 0.512V0.510ZM0.838 0.516Q0.842 0.517 0.842 0.520V0.525Q0.840 0.525 0.840 0.523L0.837 0.525H0.835Q0.835 0.523 0.837 0.523L0.835 0.520Q0.836 0.516 0.838 0.516ZM0.722 0.520H0.724V0.523H0.722ZM0.631 0.540H0.633Q0.635 0.540 0.644 0.551H0.642Q0.635 0.546 0.631 0.546ZM0.789 0.544H0.792V0.546H0.789ZM0.627 0.548Q0.645 0.558 0.645 0.561H0.644Q0.632 0.553 0.627 0.553ZM0.625 0.555Q0.625 0.559 0.645 0.566V0.568H0.642Q0.632 0.563 0.618 0.559V0.557Q0.619 0.557 0.625 0.555ZM0.649 0.555H0.653V0.557H0.649ZM0.868 0.557Q0.868 0.561 0.879 0.564L0.877 0.568V0.577Q0.868 0.577 0.862 0.581Q0.862 0.571 0.855 0.566Q0.861 0.566 0.868 0.557ZM0.456 0.559Q0.443 0.587 0.443 0.594Q0.439 0.594 0.438 0.581Q0.443 0.559 0.456 0.559ZM0.840 0.559 0.842 0.563 0.838 0.564H0.837V0.563Q0.837 0.559 0.840 0.559ZM0.614 0.561Q0.632 0.570 0.634 0.570V0.572H0.631L0.607 0.564Q0.607 0.566 0.605 0.566V0.563ZM0.610 0.570H0.612Q0.619 0.574 0.634 0.577V0.579H0.629Q0.615 0.579 0.610 0.570ZM0.634 0.572H0.640V0.574H0.634ZM0.642 0.574H0.645V0.576H0.642ZM0.634 0.579H0.638V0.581H0.634ZM0.560 0.583Q0.560 0.590 0.572 0.590L0.568 0.598Q0.570 0.601 0.570 0.605H0.564L0.555 0.607Q0.555 0.596 0.548 0.596Q0.558 0.589 0.559 0.583ZM0.618 0.583H0.620Q0.624 0.583 0.638 0.587V0.589H0.636L0.618 0.587ZM0.640 0.589H0.644V0.590H0.640ZM0.211 0.590H0.217V0.592H0.211ZM0.618 0.590Q0.620 0.592 0.633 0.592V0.594Q0.629 0.594 0.629 0.596Q0.626 0.594 0.618 0.594ZM0.282 0.603V0.609Q0.284 0.614 0.293 0.614H0.301Q0.325 0.609 0.327 0.609V0.603L0.299 0.596Q0.282 0.599 0.282 0.603ZM0.848 0.605Q0.846 0.609 0.846 0.611H0.837Q0.833 0.611 0.833 0.607Q0.846 0.605 0.848 0.605ZM0.929 0.605Q0.929 0.613 0.935 0.613V0.616Q0.929 0.616 0.929 0.624Q0.925 0.620 0.918 0.620L0.920 0.616V0.613L0.918 0.609Q0.925 0.609 0.929 0.605ZM0.353 0.616V0.618Q0.362 0.628 0.364 0.642Q0.368 0.642 0.375 0.627Q0.379 0.626 0.380 0.626Q0.391 0.627 0.395 0.627L0.397 0.624V0.622Q0.378 0.614 0.371 0.614H0.366ZM0.835 0.614H0.844Q0.842 0.618 0.842 0.620H0.837Q0.837 0.618 0.835 0.614ZM0.451 0.616H0.458V0.618H0.451ZM0.718 0.616H0.724L0.740 0.664Q0.731 0.672 0.718 0.672Q0.703 0.672 0.696 0.631Q0.696 0.623 0.718 0.616ZM0.473 0.629Q0.486 0.629 0.486 0.642Q0.486 0.655 0.473 0.655Q0.460 0.652 0.460 0.648V0.642Q0.460 0.629 0.473 0.629ZM0.888 0.635H0.890Q0.898 0.647 0.903 0.651Q0.898 0.651 0.892 0.674Q0.872 0.667 0.872 0.653Q0.870 0.653 0.868 0.646Q0.888 0.645 0.888 0.635ZM0.514 0.644Q0.518 0.648 0.521 0.648V0.650H0.514ZM0.529 0.644 0.540 0.653H0.553V0.655Q0.548 0.672 0.546 0.672H0.536Q0.522 0.672 0.514 0.653H0.518L0.527 0.655V0.651H0.523V0.650Q0.529 0.650 0.529 0.644ZM0.907 0.651H0.911Q0.911 0.655 0.907 0.655ZM0.397 0.659Q0.411 0.659 0.414 0.666Q0.412 0.675 0.395 0.714Q0.373 0.714 0.369 0.683Q0.369 0.663 0.397 0.659ZM0.458 0.659H0.464Q0.475 0.661 0.475 0.664H0.473Q0.466 0.661 0.458 0.661ZM0.640 0.659H0.644V0.661H0.640ZM0.640 0.661Q0.640 0.663 0.623 0.675L0.620 0.670Q0.638 0.661 0.640 0.661ZM0.505 0.663H0.508Q0.512 0.674 0.523 0.677V0.681H0.520Q0.505 0.681 0.505 0.664ZM0.644 0.668Q0.644 0.671 0.633 0.679H0.629V0.677Q0.637 0.668 0.644 0.668ZM0.744 0.672Q0.789 0.793 0.792 0.794H0.798Q0.788 0.811 0.785 0.811H0.765Q0.761 0.811 0.750 0.778Q0.761 0.771 0.761 0.755V0.752Q0.761 0.726 0.725 0.718Q0.722 0.704 0.722 0.701H0.720V0.722H0.716V0.714Q0.716 0.707 0.718 0.694Q0.712 0.682 0.712 0.677H0.720Q0.727 0.677 0.744 0.670ZM0.440 0.674H0.447Q0.467 0.674 0.467 0.688H0.451Q0.449 0.692 0.449 0.696V0.698L0.451 0.701H0.438Q0.434 0.689 0.434 0.685Q0.436 0.674 0.440 0.674ZM0.896 0.674H0.898V0.677H0.896ZM0.428 0.675H0.430V0.679H0.428ZM0.503 0.675H0.505Q0.505 0.683 0.516 0.685Q0.508 0.693 0.508 0.699V0.701Q0.508 0.707 0.512 0.712H0.507Q0.496 0.712 0.493 0.698Q0.493 0.693 0.501 0.683Q0.503 0.680 0.503 0.675ZM0.644 0.677 0.645 0.681 0.640 0.685H0.636V0.683Q0.636 0.680 0.644 0.677ZM0.527 0.681H0.534V0.685Q0.533 0.685 0.533 0.683L0.529 0.685H0.527ZM0.330 0.685 0.317 0.699Q0.317 0.702 0.330 0.712H0.332Q0.335 0.712 0.345 0.699Q0.345 0.698 0.330 0.685ZM0.527 0.687H0.529L0.533 0.688Q0.525 0.703 0.514 0.709L0.512 0.699Q0.512 0.688 0.527 0.687ZM0.697 0.688H0.699V0.694H0.697ZM0.712 0.688H0.714V0.698H0.712ZM0.484 0.692H0.490V0.694H0.484ZM0.428 0.696H0.430L0.432 0.703Q0.428 0.703 0.425 0.718V0.722L0.427 0.726H0.425Q0.414 0.719 0.414 0.716Q0.428 0.702 0.428 0.696ZM0.410 0.703H0.417Q0.417 0.707 0.414 0.707Q0.410 0.707 0.410 0.703ZM0.452 0.703H0.466V0.714H0.462Q0.460 0.714 0.452 0.703ZM0.441 0.705H0.447Q0.450 0.705 0.454 0.712H0.451Q0.442 0.708 0.441 0.705ZM0.432 0.707H0.434Q0.446 0.718 0.454 0.718V0.724Q0.454 0.727 0.447 0.731Q0.433 0.731 0.428 0.722V0.720ZM0.596 0.707H0.597Q0.602 0.711 0.607 0.711V0.714L0.594 0.718L0.592 0.714Q0.596 0.714 0.596 0.707ZM0.303 0.712Q0.303 0.719 0.258 0.727Q0.215 0.747 0.215 0.768Q0.215 0.781 0.234 0.781L0.232 0.785V0.787Q0.235 0.787 0.247 0.798Q0.249 0.798 0.262 0.783V0.781Q0.256 0.781 0.252 0.774V0.772Q0.256 0.772 0.267 0.761Q0.267 0.763 0.276 0.770L0.289 0.755L0.280 0.744Q0.289 0.733 0.289 0.729Q0.301 0.740 0.303 0.740H0.304Q0.307 0.740 0.317 0.727Q0.317 0.725 0.303 0.712ZM0.460 0.720H0.469V0.722Q0.464 0.731 0.454 0.731Q0.460 0.724 0.460 0.720ZM0.900 0.724Q0.900 0.737 0.920 0.742V0.744Q0.920 0.747 0.915 0.750L0.903 0.739H0.898Q0.884 0.748 0.879 0.748L0.877 0.744V0.742Q0.892 0.733 0.900 0.724ZM0.731 0.726H0.733Q0.755 0.734 0.755 0.750V0.757Q0.755 0.767 0.748 0.772Q0.731 0.732 0.731 0.726ZM0.718 0.727H0.720L0.722 0.740Q0.714 0.763 0.714 0.772H0.716L0.729 0.770H0.731V0.772Q0.727 0.772 0.718 0.780Q0.714 0.778 0.712 0.778V0.733Q0.712 0.730 0.718 0.727ZM0.392 0.733Q0.379 0.752 0.379 0.763Q0.387 0.770 0.388 0.770Q0.393 0.770 0.393 0.763L0.397 0.765H0.408L0.414 0.761H0.417Q0.406 0.783 0.397 0.783Q0.377 0.783 0.373 0.755Q0.379 0.733 0.392 0.733ZM0.397 0.735H0.408Q0.416 0.738 0.416 0.748Q0.416 0.761 0.403 0.761H0.397V0.759H0.401V0.755Q0.401 0.754 0.390 0.742Q0.390 0.739 0.397 0.735ZM0.696 0.742V0.759Q0.703 0.785 0.709 0.785Q0.708 0.789 0.699 0.793L0.697 0.789H0.699Q0.692 0.765 0.688 0.746Q0.691 0.746 0.696 0.742ZM0.701 0.742H0.703V0.763H0.701ZM0.862 0.746H0.866V0.750H0.862ZM0.892 0.750V0.752Q0.887 0.768 0.881 0.768V0.767Q0.881 0.750 0.892 0.750ZM0.911 0.753V0.770Q0.902 0.765 0.894 0.765V0.763Q0.895 0.759 0.898 0.759H0.900L0.905 0.763Q0.908 0.753 0.911 0.753ZM0.601 0.763Q0.608 0.770 0.618 0.770Q0.618 0.773 0.612 0.776L0.599 0.772ZM0.592 0.776H0.596Q0.607 0.781 0.614 0.781V0.787L0.605 0.785Q0.605 0.789 0.601 0.789H0.597Q0.597 0.780 0.592 0.776ZM0.711 0.781H0.712V0.785H0.711ZM0.377 0.783Q0.377 0.791 0.399 0.793Q0.399 0.795 0.392 0.800Q0.388 0.798 0.386 0.798Q0.386 0.800 0.384 0.800Q0.382 0.794 0.367 0.793Q0.367 0.790 0.377 0.783ZM0.671 0.794H0.675V0.802H0.673ZM0.362 0.796 0.380 0.802V0.804Q0.372 0.816 0.349 0.826Q0.343 0.826 0.336 0.830V0.824Q0.340 0.796 0.362 0.796ZM0.848 0.800H0.849V0.804H0.848ZM0.675 0.802H0.677V0.806H0.675ZM0.746 0.806H0.748V0.809H0.746ZM0.794 0.807H0.796V0.811H0.794ZM0.314 0.831H0.323V0.833L0.286 0.837H0.284V0.835Q0.303 0.831 0.314 0.831Z" fill="black"/>
</svg>
