<svg xmlns="http://www.w3.org/2000/svg" viewBox="0 0 1 1" preserveAspectRatio="xMidYMid meet">
  <path d="M0.500 0.091 0.561 0.171H0.527L0.466 0.091ZM0.481 0.203H0.505Q0.505 0.213 0.518 0.230H0.494Q0.494 0.216 0.481 0.203ZM0.516 0.203H0.565Q0.565 0.216 0.546 0.226Q0.522 0.226 0.516 0.205ZM0.578 0.203H0.606Q0.597 0.213 0.597 0.230H0.563Q0.578 0.212 0.578 0.203ZM0.468 0.205Q0.488 0.213 0.488 0.228L0.484 0.230H0.468ZM0.521 0.232Q0.532 0.233 0.532 0.237Q0.523 0.241 0.523 0.252H0.521ZM0.554 0.235V0.286H0.543Q0.526 0.276 0.526 0.259Q0.533 0.235 0.554 0.235ZM0.392 0.272H0.394V0.285H0.392ZM0.521 0.274Q0.530 0.288 0.543 0.294H0.554V0.354H0.548Q0.523 0.360 0.523 0.377H0.521Q0.521 0.366 0.519 0.366L0.521 0.348ZM0.603 0.283H0.608V0.288H0.603ZM0.588 0.285V0.288H0.585Q0.585 0.285 0.588 0.285ZM0.397 0.299H0.399V0.303H0.397ZM0.581 0.301H0.588V0.308Q0.585 0.306 0.581 0.306ZM0.603 0.301H0.608V0.308Q0.605 0.306 0.603 0.306ZM0.392 0.304H0.394V0.308H0.392ZM0.561 0.321H0.568L0.566 0.325Q0.568 0.325 0.568 0.326H0.561ZM0.581 0.321H0.588V0.326H0.581ZM0.603 0.321H0.608V0.326H0.603ZM0.403 0.332H0.406V0.336Q0.403 0.336 0.403 0.332ZM0.503 0.339 0.506 0.345V0.347H0.499V0.343Q0.500 0.339 0.503 0.339ZM0.561 0.339Q0.567 0.341 0.568 0.347H0.561ZM0.581 0.339H0.583Q0.586 0.341 0.588 0.341V0.347H0.581ZM0.499 0.359Q0.503 0.360 0.503 0.363Q0.503 0.366 0.499 0.366ZM0.581 0.359H0.583V0.366H0.581ZM0.605 0.359H0.608V0.363Q0.605 0.363 0.605 0.359ZM0.554 0.361V0.414H0.548Q0.535 0.410 0.526 0.394Q0.526 0.392 0.528 0.392L0.526 0.383V0.381Q0.532 0.366 0.546 0.361ZM0.561 0.361Q0.566 0.364 0.568 0.364V0.366H0.561ZM0.434 0.368V0.372H0.430Q0.431 0.368 0.434 0.368ZM0.565 0.379H0.568V0.383Q0.565 0.383 0.565 0.379ZM0.435 0.392 0.437 0.396H0.432Q0.433 0.392 0.435 0.392ZM0.397 0.394V0.398H0.401L0.404 0.396V0.407Q0.402 0.407 0.394 0.396ZM0.441 0.396H0.445Q0.445 0.410 0.456 0.410Q0.457 0.410 0.459 0.416H0.456Q0.447 0.416 0.439 0.401Q0.441 0.398 0.441 0.396ZM0.482 0.399H0.490V0.405H0.482ZM0.505 0.399H0.510V0.403H0.505ZM0.521 0.399H0.523Q0.533 0.419 0.546 0.419Q0.546 0.421 0.554 0.421V0.552H0.555V0.548H0.561Q0.554 0.559 0.554 0.565V0.581Q0.554 0.583 0.555 0.583L0.554 0.587V0.658Q0.523 0.638 0.521 0.638V0.596H0.539Q0.545 0.596 0.546 0.578Q0.540 0.572 0.521 0.572Q0.528 0.563 0.528 0.548Q0.526 0.541 0.521 0.541V0.467Q0.532 0.456 0.535 0.441L0.534 0.437Q0.535 0.434 0.535 0.432Q0.532 0.421 0.521 0.408ZM0.385 0.401Q0.394 0.410 0.397 0.410V0.412H0.385V0.410H0.388V0.407H0.385ZM0.566 0.401H0.568V0.405H0.566ZM0.412 0.410H0.417V0.412H0.412ZM0.430 0.410H0.432Q0.435 0.410 0.435 0.414H0.430ZM0.395 0.419H0.399V0.421H0.395ZM0.482 0.419H0.484Q0.487 0.419 0.490 0.425H0.486Q0.482 0.425 0.482 0.421ZM0.505 0.419H0.510Q0.510 0.421 0.512 0.425H0.505ZM0.566 0.419H0.572Q0.572 0.421 0.574 0.425H0.566ZM0.450 0.423H0.454V0.426Q0.450 0.426 0.450 0.423ZM0.430 0.428H0.432Q0.435 0.430 0.437 0.430V0.434Q0.430 0.431 0.430 0.428ZM0.521 0.428H0.523Q0.523 0.432 0.525 0.432Q0.523 0.434 0.523 0.446H0.521ZM0.426 0.435Q0.434 0.438 0.434 0.441H0.426ZM0.403 0.437H0.406V0.441H0.403ZM0.445 0.437Q0.447 0.437 0.450 0.443H0.445ZM0.482 0.437H0.490V0.445H0.482L0.484 0.441ZM0.505 0.437H0.512L0.510 0.441L0.512 0.445H0.505ZM0.566 0.437H0.572V0.445H0.566ZM0.594 0.439V0.445H0.587V0.443Q0.590 0.443 0.594 0.439ZM0.386 0.446H0.390V0.448H0.386ZM0.413 0.446Q0.417 0.447 0.417 0.450L0.413 0.452ZM0.390 0.448H0.392Q0.395 0.449 0.395 0.452H0.390ZM0.454 0.448H0.456Q0.459 0.450 0.461 0.450Q0.461 0.454 0.457 0.454ZM0.430 0.450H0.435V0.458H0.434Q0.434 0.455 0.430 0.450ZM0.470 0.450Q0.472 0.450 0.477 0.459V0.461Q0.472 0.461 0.472 0.463Q0.465 0.458 0.461 0.458V0.456Q0.464 0.456 0.470 0.450ZM0.443 0.456 0.446 0.458Q0.450 0.456 0.452 0.456L0.454 0.459Q0.450 0.459 0.448 0.465Q0.445 0.463 0.443 0.463ZM0.505 0.458H0.512V0.459Q0.508 0.459 0.505 0.461ZM0.566 0.458H0.574Q0.572 0.460 0.572 0.465H0.566ZM0.587 0.458H0.594V0.465H0.592L0.588 0.463Q0.588 0.465 0.587 0.465ZM0.450 0.465H0.454V0.467H0.450ZM0.441 0.472H0.446Q0.450 0.472 0.450 0.476V0.479Q0.445 0.476 0.437 0.476Q0.438 0.472 0.441 0.472ZM0.492 0.476Q0.490 0.479 0.490 0.483H0.484Q0.484 0.481 0.482 0.478ZM0.503 0.478 0.505 0.481V0.486H0.501L0.499 0.479ZM0.566 0.478H0.572V0.483H0.566ZM0.587 0.478H0.594V0.481L0.592 0.485Q0.589 0.483 0.587 0.483ZM0.459 0.483H0.463Q0.466 0.483 0.466 0.486V0.490Q0.466 0.494 0.463 0.494H0.459Q0.456 0.494 0.456 0.490V0.486Q0.456 0.483 0.459 0.483ZM0.470 0.492H0.475V0.494Q0.475 0.497 0.472 0.497H0.470ZM0.566 0.495Q0.570 0.497 0.572 0.497V0.503H0.566ZM0.587 0.495H0.588L0.592 0.497Q0.592 0.495 0.594 0.495V0.503H0.587ZM0.484 0.497H0.488Q0.488 0.501 0.484 0.501ZM0.505 0.497Q0.508 0.498 0.508 0.501V0.503H0.505ZM0.474 0.499 0.475 0.503H0.470Q0.470 0.499 0.474 0.499ZM0.341 0.508Q0.352 0.520 0.361 0.523Q0.361 0.527 0.366 0.527Q0.362 0.540 0.362 0.541L0.364 0.554H0.362Q0.355 0.554 0.344 0.548Q0.339 0.557 0.337 0.557H0.335Q0.332 0.557 0.330 0.539Q0.327 0.539 0.321 0.530V0.529Q0.341 0.527 0.341 0.508ZM0.490 0.514H0.492V0.523H0.488ZM0.568 0.516H0.574V0.523H0.568ZM0.588 0.516H0.596V0.523H0.588ZM0.475 0.532V0.538Q0.472 0.538 0.472 0.534ZM0.484 0.536H0.492V0.538Q0.490 0.541 0.490 0.543H0.488Q0.484 0.543 0.484 0.539Q0.486 0.539 0.486 0.538Q0.484 0.538 0.484 0.536ZM0.506 0.536H0.512Q0.512 0.540 0.514 0.543H0.512L0.508 0.541Q0.508 0.543 0.506 0.543ZM0.568 0.536H0.574V0.543Q0.570 0.541 0.568 0.541ZM0.588 0.536H0.596V0.543L0.592 0.541L0.588 0.543ZM0.506 0.556H0.510Q0.510 0.559 0.506 0.559ZM0.568 0.556H0.574V0.561H0.568ZM0.588 0.556H0.596V0.561H0.588ZM0.615 0.563Q0.619 0.564 0.619 0.566V0.572H0.612Q0.612 0.570 0.610 0.566ZM0.495 0.566H0.497V0.570H0.495ZM0.506 0.574Q0.510 0.575 0.510 0.578L0.506 0.579ZM0.568 0.574Q0.572 0.576 0.574 0.576V0.581H0.568ZM0.588 0.574H0.590Q0.594 0.576 0.596 0.576V0.581H0.588ZM0.525 0.579H0.526Q0.539 0.580 0.539 0.583Q0.537 0.587 0.537 0.589H0.521V0.583Q0.521 0.579 0.525 0.579ZM0.406 0.590Q0.414 0.593 0.417 0.600V0.601Q0.409 0.594 0.404 0.594ZM0.484 0.594H0.486L0.490 0.596Q0.490 0.594 0.492 0.594V0.601H0.484L0.486 0.598ZM0.506 0.594H0.508V0.598H0.506ZM0.568 0.594H0.574V0.601H0.568ZM0.588 0.594H0.596V0.601H0.588ZM0.399 0.596H0.401Q0.421 0.608 0.421 0.610H0.419Q0.405 0.601 0.399 0.601ZM0.395 0.603Q0.408 0.610 0.410 0.610V0.612H0.406Q0.391 0.607 0.390 0.607V0.605Q0.392 0.605 0.395 0.603ZM0.422 0.603H0.426V0.605H0.422ZM0.643 0.603Q0.652 0.612 0.657 0.612Q0.654 0.616 0.654 0.619V0.625Q0.647 0.625 0.641 0.628Q0.641 0.621 0.632 0.614Q0.643 0.614 0.643 0.603ZM0.615 0.607Q0.619 0.607 0.619 0.610L0.615 0.612Q0.612 0.612 0.612 0.609ZM0.386 0.609Q0.413 0.621 0.415 0.621V0.623H0.413L0.379 0.612Q0.379 0.614 0.377 0.614V0.610ZM0.410 0.612H0.413V0.614H0.410ZM0.413 0.614H0.417V0.616H0.413ZM0.506 0.614H0.514Q0.512 0.617 0.512 0.619H0.506ZM0.572 0.614H0.574V0.617Q0.574 0.627 0.568 0.628H0.566Q0.564 0.628 0.561 0.623V0.619Q0.563 0.614 0.572 0.614ZM0.588 0.614H0.596V0.619H0.588ZM0.417 0.616H0.421V0.617H0.417ZM0.484 0.616H0.486Q0.490 0.616 0.490 0.619H0.484ZM0.385 0.619H0.390V0.621H0.385ZM0.399 0.625H0.404Q0.408 0.626 0.410 0.626V0.628H0.404Q0.401 0.626 0.399 0.626ZM0.410 0.628H0.415V0.630H0.410ZM0.390 0.630H0.392L0.401 0.632V0.634H0.390ZM0.328 0.634 0.337 0.636V0.639H0.326Q0.328 0.636 0.328 0.634ZM0.401 0.634H0.408V0.636H0.401ZM0.412 0.636H0.415V0.638H0.412ZM0.392 0.639H0.394L0.403 0.641V0.643H0.392ZM0.339 0.645 0.341 0.649V0.654H0.335L0.326 0.656L0.325 0.647L0.328 0.649Q0.333 0.649 0.339 0.645ZM0.521 0.645Q0.551 0.665 0.554 0.665V0.676H0.552Q0.518 0.655 0.518 0.652Q0.521 0.652 0.521 0.645ZM0.623 0.654V0.660H0.610V0.656ZM0.709 0.654Q0.709 0.661 0.714 0.661V0.665Q0.709 0.665 0.709 0.672Q0.702 0.669 0.698 0.669V0.658Q0.704 0.658 0.709 0.654ZM0.510 0.658H0.512Q0.515 0.658 0.518 0.663H0.516Q0.513 0.663 0.510 0.658ZM0.612 0.663H0.621Q0.619 0.667 0.619 0.669H0.614Q0.614 0.667 0.612 0.663ZM0.521 0.665H0.523Q0.552 0.685 0.557 0.685Q0.557 0.683 0.559 0.683V0.690Q0.554 0.690 0.554 0.694V0.698Q0.559 0.698 0.559 0.701V0.705Q0.554 0.711 0.554 0.723Q0.554 0.727 0.555 0.727L0.554 0.739V0.785H0.606V0.812H0.492Q0.488 0.813 0.488 0.816V0.823H0.490Q0.492 0.823 0.505 0.821H0.506V0.823Q0.503 0.823 0.486 0.836H0.484L0.486 0.827V0.812H0.477Q0.475 0.822 0.475 0.823Q0.475 0.836 0.484 0.836Q0.484 0.838 0.474 0.845L0.461 0.794H0.463Q0.468 0.794 0.470 0.785H0.472V0.771Q0.472 0.767 0.475 0.752H0.477V0.759Q0.477 0.770 0.474 0.782Q0.477 0.782 0.477 0.785H0.484Q0.488 0.785 0.490 0.772L0.486 0.765Q0.492 0.765 0.492 0.761V0.752Q0.486 0.752 0.486 0.745V0.739H0.488V0.747H0.492V0.741H0.494V0.783L0.503 0.785H0.521V0.714L0.518 0.716H0.516Q0.511 0.712 0.508 0.712V0.707L0.518 0.705L0.521 0.707V0.698L0.514 0.696V0.687H0.521V0.681Q0.513 0.681 0.510 0.678Q0.510 0.673 0.521 0.669ZM0.670 0.683Q0.673 0.701 0.688 0.701Q0.677 0.711 0.677 0.716L0.675 0.727Q0.666 0.722 0.650 0.714Q0.652 0.711 0.652 0.709L0.645 0.696Q0.659 0.696 0.670 0.683ZM0.299 0.694Q0.308 0.703 0.325 0.703Q0.319 0.715 0.319 0.718Q0.321 0.718 0.321 0.720Q0.312 0.720 0.312 0.723V0.729Q0.301 0.729 0.301 0.736H0.297Q0.297 0.734 0.299 0.734Q0.297 0.718 0.286 0.718Q0.299 0.706 0.299 0.694ZM0.417 0.707V0.711Q0.414 0.711 0.395 0.725L0.392 0.720Q0.395 0.720 0.417 0.707ZM0.488 0.707H0.494V0.714Q0.490 0.712 0.488 0.712ZM0.570 0.707H0.576V0.714Q0.572 0.712 0.570 0.712ZM0.590 0.707H0.597V0.714H0.596L0.592 0.712Q0.592 0.714 0.590 0.714ZM0.417 0.716V0.718Q0.417 0.721 0.404 0.731Q0.401 0.729 0.399 0.729V0.727Q0.403 0.727 0.417 0.716ZM0.488 0.725Q0.492 0.727 0.494 0.727V0.732H0.488ZM0.415 0.727H0.417V0.731Q0.417 0.733 0.412 0.736Q0.408 0.736 0.408 0.732Q0.411 0.732 0.415 0.727ZM0.508 0.727H0.514Q0.514 0.729 0.516 0.732H0.508ZM0.570 0.727H0.576V0.732H0.568Q0.570 0.729 0.570 0.727ZM0.590 0.727H0.597V0.732H0.590ZM0.472 0.739H0.474V0.743H0.472ZM0.508 0.745 0.512 0.747Q0.512 0.745 0.514 0.745V0.752H0.508ZM0.570 0.745H0.576V0.752H0.570ZM0.590 0.745H0.597V0.752H0.590ZM0.499 0.748H0.501Q0.501 0.763 0.503 0.763Q0.501 0.766 0.501 0.772H0.499ZM0.368 0.758H0.370Q0.374 0.761 0.379 0.761V0.772L0.368 0.774Q0.368 0.771 0.362 0.765Q0.368 0.765 0.368 0.758ZM0.508 0.765H0.514V0.772L0.510 0.771Q0.510 0.772 0.508 0.772ZM0.570 0.765H0.576V0.772L0.572 0.771Q0.572 0.772 0.570 0.772ZM0.590 0.765H0.597V0.772Q0.596 0.772 0.596 0.771L0.592 0.772H0.590ZM0.497 0.774 0.501 0.776Q0.499 0.779 0.499 0.783H0.497ZM0.677 0.774Q0.677 0.777 0.685 0.789Q0.681 0.789 0.668 0.796L0.670 0.803Q0.668 0.807 0.668 0.810H0.677L0.683 0.814Q0.685 0.811 0.685 0.807H0.688V0.821Q0.678 0.816 0.674 0.816Q0.671 0.816 0.659 0.819V0.816L0.661 0.803Q0.660 0.803 0.650 0.791Q0.667 0.791 0.677 0.774ZM0.685 0.789Q0.699 0.792 0.699 0.796L0.692 0.801Q0.692 0.796 0.685 0.796ZM0.639 0.798H0.641Q0.645 0.798 0.645 0.801H0.643Q0.639 0.801 0.639 0.798ZM0.373 0.814H0.375Q0.375 0.821 0.390 0.821Q0.387 0.829 0.385 0.829L0.386 0.838V0.840L0.383 0.838H0.381Q0.376 0.838 0.370 0.842Q0.370 0.829 0.362 0.829V0.827Q0.372 0.827 0.373 0.814ZM0.559 0.842Q0.565 0.847 0.572 0.847L0.570 0.856L0.572 0.860Q0.563 0.860 0.557 0.863Q0.557 0.856 0.552 0.851Q0.559 0.851 0.559 0.842ZM0.621 0.845H0.625L0.628 0.847Q0.626 0.850 0.626 0.856L0.623 0.854Q0.619 0.856 0.617 0.856V0.853Q0.621 0.853 0.621 0.845ZM0.446 0.847H0.448V0.851H0.446ZM0.521 0.856H0.523V0.862H0.521Z" fill="black"/>
</svg>
