<svg xmlns="http://www.w3.org/2000/svg" viewBox="0 0 1 1" preserveAspectRatio="xMidYMid meet">
  <path d="M0.648 0.091 0.587 0.171H0.553L0.614 0.091ZM0.355 0.120Q0.402 0.158 0.406 0.158L0.457 0.129H0.458Q0.434 0.179 0.433 0.187L0.436 0.189V0.185H0.438Q0.438 0.191 0.453 0.201V0.203Q0.457 0.203 0.457 0.201L0.469 0.203H0.525V0.205L0.500 0.247H0.498L0.493 0.243Q0.488 0.243 0.487 0.256L0.483 0.254H0.480V0.258H0.483V0.260H0.480V0.261L0.482 0.265L0.471 0.270H0.462V0.268L0.471 0.258V0.252Q0.471 0.243 0.465 0.241Q0.465 0.249 0.433 0.251Q0.436 0.243 0.436 0.238Q0.433 0.227 0.429 0.227Q0.388 0.245 0.387 0.254Q0.387 0.258 0.384 0.258H0.382Q0.374 0.242 0.369 0.221Q0.363 0.221 0.360 0.219V0.223H0.369V0.225Q0.362 0.225 0.362 0.234L0.356 0.230H0.355V0.234H0.351L0.353 0.225Q0.349 0.225 0.349 0.221H0.356V0.219Q0.330 0.216 0.327 0.216Q0.327 0.219 0.335 0.219V0.221Q0.327 0.221 0.327 0.230Q0.323 0.225 0.316 0.225L0.318 0.221L0.322 0.223H0.325V0.216H0.318Q0.318 0.214 0.309 0.214V0.212Q0.313 0.212 0.363 0.183ZM0.362 0.133V0.134Q0.367 0.174 0.371 0.183Q0.332 0.203 0.327 0.210Q0.355 0.214 0.358 0.216V0.214Q0.373 0.217 0.378 0.223H0.380Q0.384 0.221 0.386 0.221L0.384 0.217H0.387V0.216L0.386 0.212Q0.387 0.212 0.387 0.210Q0.384 0.210 0.384 0.207Q0.386 0.207 0.386 0.205L0.382 0.207L0.376 0.203H0.374V0.207H0.371Q0.371 0.200 0.362 0.200V0.198Q0.376 0.193 0.376 0.187L0.380 0.189L0.382 0.185L0.378 0.161H0.380Q0.383 0.161 0.386 0.167L0.389 0.165Q0.392 0.167 0.397 0.167V0.170H0.395L0.391 0.169V0.170Q0.397 0.176 0.400 0.176Q0.420 0.165 0.422 0.165V0.167Q0.414 0.186 0.414 0.189Q0.422 0.196 0.433 0.196V0.192L0.429 0.187Q0.429 0.184 0.447 0.140H0.446Q0.406 0.163 0.402 0.163Q0.401 0.161 0.363 0.133ZM0.395 0.161H0.398V0.163H0.395ZM0.478 0.181Q0.482 0.183 0.483 0.183V0.189H0.476L0.474 0.185Q0.478 0.185 0.478 0.181ZM0.589 0.185H0.591Q0.578 0.201 0.578 0.203H0.593V0.207Q0.593 0.234 0.582 0.234Q0.572 0.234 0.531 0.241V0.240Q0.543 0.204 0.543 0.203H0.573ZM0.453 0.189H0.455V0.192H0.453ZM0.464 0.189H0.465V0.192H0.464ZM0.406 0.205V0.207L0.411 0.210V0.207Q0.409 0.207 0.406 0.205ZM0.531 0.203H0.538Q0.521 0.255 0.509 0.261V0.263H0.507V0.258Q0.504 0.258 0.498 0.272Q0.496 0.272 0.496 0.274Q0.496 0.294 0.509 0.294V0.292Q0.517 0.285 0.517 0.279Q0.512 0.279 0.511 0.270L0.515 0.268Q0.515 0.271 0.520 0.279Q0.520 0.298 0.498 0.312V0.314L0.494 0.312H0.493L0.489 0.314Q0.489 0.302 0.483 0.301Q0.478 0.305 0.473 0.305H0.464Q0.460 0.305 0.460 0.301L0.469 0.303H0.473V0.301Q0.471 0.296 0.469 0.296Q0.471 0.292 0.471 0.290H0.478V0.296H0.480Q0.485 0.296 0.491 0.274Q0.489 0.274 0.489 0.272Q0.493 0.272 0.498 0.265V0.263H0.494L0.496 0.260Q0.493 0.260 0.493 0.256V0.252L0.500 0.258H0.502Q0.502 0.253 0.531 0.207ZM0.598 0.203H0.618Q0.603 0.231 0.603 0.234H0.594Q0.598 0.213 0.598 0.205ZM0.624 0.203H0.627Q0.629 0.203 0.640 0.230H0.642Q0.645 0.230 0.651 0.203H0.709Q0.700 0.218 0.700 0.221L0.703 0.223Q0.703 0.222 0.722 0.203H0.725V0.234H0.609Q0.624 0.206 0.624 0.203ZM0.636 0.203H0.644L0.642 0.219H0.640ZM0.480 0.234 0.478 0.241H0.487Q0.487 0.236 0.493 0.236H0.494V0.234ZM0.496 0.238V0.240H0.502Q0.502 0.238 0.504 0.234H0.500Q0.496 0.235 0.496 0.238ZM0.429 0.234Q0.429 0.236 0.431 0.240Q0.431 0.247 0.411 0.265Q0.411 0.269 0.386 0.276V0.277Q0.380 0.277 0.378 0.270Q0.380 0.270 0.404 0.243Q0.412 0.243 0.429 0.234ZM0.349 0.243Q0.356 0.247 0.356 0.254H0.347L0.351 0.249Q0.349 0.245 0.349 0.243ZM0.320 0.247H0.322Q0.322 0.254 0.329 0.254L0.325 0.260V0.261L0.327 0.265H0.325Q0.322 0.265 0.322 0.261L0.318 0.263H0.316Q0.316 0.259 0.313 0.254Q0.320 0.254 0.320 0.247ZM0.360 0.247 0.369 0.249V0.251H0.360ZM0.384 0.249V0.252H0.386V0.249ZM0.482 0.249V0.252H0.485V0.249ZM0.465 0.251V0.252Q0.465 0.260 0.455 0.267V0.268Q0.455 0.275 0.474 0.277V0.279L0.462 0.281H0.442Q0.405 0.281 0.393 0.287V0.283Q0.415 0.274 0.440 0.268V0.267Q0.438 0.265 0.425 0.265Q0.425 0.254 0.464 0.252Q0.464 0.251 0.465 0.251ZM0.367 0.258H0.374Q0.378 0.258 0.378 0.261V0.265Q0.378 0.268 0.374 0.268H0.373Q0.373 0.266 0.371 0.263Q0.373 0.263 0.373 0.261Q0.369 0.260 0.367 0.260ZM0.529 0.258H0.533V0.265Q0.525 0.265 0.525 0.270Q0.522 0.270 0.522 0.267V0.265L0.531 0.263V0.261ZM0.487 0.265Q0.491 0.267 0.493 0.267V0.268Q0.489 0.268 0.489 0.272Q0.485 0.272 0.485 0.268ZM0.504 0.265H0.507V0.268Q0.504 0.268 0.504 0.265ZM0.360 0.267Q0.364 0.270 0.367 0.270Q0.371 0.268 0.373 0.268V0.272Q0.369 0.272 0.369 0.274Q0.369 0.279 0.374 0.279Q0.374 0.283 0.371 0.283Q0.371 0.279 0.367 0.279Q0.367 0.282 0.362 0.285Q0.362 0.277 0.358 0.277Q0.360 0.275 0.360 0.267ZM0.543 0.272H0.551V0.274Q0.542 0.274 0.538 0.277V0.276Q0.538 0.272 0.543 0.272ZM0.376 0.276H0.380V0.277H0.376ZM0.554 0.279Q0.558 0.279 0.560 0.296Q0.551 0.301 0.545 0.301Q0.554 0.294 0.554 0.279ZM0.531 0.290 0.536 0.294Q0.534 0.298 0.534 0.300H0.531Q0.527 0.300 0.527 0.296V0.294Q0.528 0.290 0.531 0.290ZM0.413 0.292H0.462V0.296H0.458V0.298L0.460 0.301L0.457 0.303L0.438 0.301L0.436 0.305Q0.449 0.316 0.449 0.328Q0.449 0.337 0.438 0.341Q0.438 0.326 0.423 0.319V0.312H0.425L0.440 0.319L0.442 0.316Q0.429 0.303 0.409 0.296H0.407L0.402 0.300Q0.402 0.298 0.400 0.294ZM0.351 0.300H0.358Q0.355 0.304 0.355 0.309H0.349ZM0.340 0.301H0.346V0.303H0.340ZM0.540 0.301H0.545V0.303H0.540ZM0.447 0.307Q0.454 0.311 0.467 0.311H0.474L0.483 0.309V0.314Q0.478 0.314 0.478 0.319V0.321H0.471Q0.471 0.316 0.467 0.316H0.457V0.339L0.465 0.337V0.334L0.462 0.328H0.465Q0.469 0.328 0.469 0.334Q0.468 0.341 0.457 0.341V0.383Q0.457 0.385 0.458 0.385L0.457 0.388V0.394Q0.457 0.396 0.458 0.396L0.457 0.399V0.412Q0.457 0.414 0.458 0.414L0.457 0.418V0.423Q0.464 0.430 0.464 0.436H0.469V0.438Q0.465 0.438 0.465 0.443H0.464Q0.464 0.436 0.460 0.436Q0.457 0.436 0.457 0.439V0.445Q0.457 0.449 0.458 0.452Q0.457 0.456 0.457 0.459V0.467L0.458 0.470Q0.457 0.470 0.457 0.472H0.462V0.469L0.460 0.465H0.464V0.459L0.462 0.450Q0.471 0.450 0.471 0.441H0.473V0.448Q0.473 0.452 0.467 0.452V0.456Q0.471 0.456 0.471 0.458Q0.480 0.458 0.480 0.443H0.482Q0.482 0.448 0.483 0.448Q0.483 0.458 0.467 0.461V0.465Q0.469 0.469 0.469 0.470Q0.468 0.470 0.457 0.490V0.492H0.480Q0.480 0.476 0.494 0.463V0.461H0.491V0.459H0.494V0.452L0.493 0.439Q0.497 0.443 0.500 0.443Q0.496 0.449 0.496 0.454V0.461H0.498Q0.503 0.458 0.506 0.458L0.504 0.450V0.445H0.506Q0.506 0.457 0.511 0.458L0.518 0.452Q0.518 0.461 0.522 0.461L0.520 0.470H0.529V0.472Q0.522 0.472 0.522 0.481H0.525V0.483H0.520V0.489H0.524L0.522 0.492H0.525V0.489H0.527V0.492H0.531Q0.533 0.492 0.533 0.490L0.536 0.492H0.564Q0.555 0.523 0.551 0.523H0.480Q0.462 0.518 0.453 0.518Q0.434 0.518 0.411 0.532Q0.409 0.532 0.409 0.536H0.402L0.404 0.532L0.402 0.529Q0.408 0.529 0.411 0.521Q0.418 0.519 0.423 0.519V0.505L0.414 0.506H0.407Q0.397 0.506 0.393 0.494Q0.389 0.494 0.387 0.483V0.481H0.389Q0.389 0.493 0.411 0.498H0.423V0.487Q0.418 0.490 0.413 0.490Q0.403 0.490 0.398 0.483V0.481L0.404 0.485Q0.423 0.485 0.423 0.480V0.445H0.416V0.443H0.423V0.436H0.422Q0.401 0.436 0.393 0.461H0.391V0.452L0.407 0.430H0.420L0.423 0.432V0.325Q0.428 0.325 0.436 0.347H0.440Q0.455 0.339 0.455 0.327Q0.455 0.318 0.447 0.309ZM0.402 0.311H0.404V0.314H0.402ZM0.542 0.311H0.547L0.560 0.318Q0.556 0.339 0.551 0.339H0.549L0.554 0.332V0.328Q0.551 0.312 0.542 0.312ZM0.527 0.314H0.533L0.536 0.316Q0.534 0.319 0.534 0.321H0.527ZM0.418 0.328V0.330Q0.396 0.387 0.384 0.407L0.374 0.409H0.373Q0.369 0.391 0.365 0.383L0.371 0.361H0.373Q0.373 0.378 0.382 0.378Q0.391 0.378 0.407 0.341ZM0.498 0.328H0.500V0.334H0.498ZM0.540 0.328H0.543Q0.540 0.333 0.540 0.337Q0.536 0.337 0.536 0.334V0.332Q0.537 0.328 0.540 0.328ZM0.489 0.334H0.491Q0.493 0.344 0.493 0.345Q0.474 0.349 0.474 0.352V0.354H0.478V0.356H0.473V0.350Q0.473 0.347 0.487 0.343V0.339L0.485 0.336ZM0.517 0.334Q0.520 0.335 0.520 0.337Q0.518 0.341 0.518 0.343Q0.533 0.347 0.533 0.350V0.356H0.527V0.354H0.531V0.352Q0.531 0.349 0.513 0.345L0.509 0.339Q0.512 0.339 0.517 0.334ZM0.540 0.337H0.542Q0.545 0.339 0.549 0.339V0.341H0.542ZM0.382 0.349H0.384V0.352H0.382ZM0.498 0.350V0.356L0.496 0.365H0.498L0.496 0.369V0.371Q0.496 0.374 0.504 0.374V0.376H0.498V0.381H0.502V0.383H0.493L0.494 0.379Q0.494 0.376 0.487 0.376V0.371H0.491V0.367H0.487L0.483 0.369V0.367Q0.483 0.362 0.498 0.350ZM0.507 0.350Q0.522 0.361 0.522 0.369Q0.514 0.369 0.507 0.356ZM0.531 0.365H0.533V0.369H0.531ZM0.476 0.369H0.478V0.372H0.476ZM0.507 0.371H0.509Q0.512 0.371 0.515 0.376Q0.511 0.376 0.511 0.383H0.507L0.509 0.374ZM0.547 0.376Q0.550 0.376 0.553 0.381H0.551Q0.547 0.381 0.547 0.378ZM0.536 0.379H0.545V0.381Q0.538 0.381 0.538 0.385H0.536ZM0.515 0.381V0.385H0.511Q0.511 0.381 0.515 0.381ZM0.489 0.387Q0.495 0.390 0.500 0.390V0.392Q0.497 0.392 0.489 0.396ZM0.538 0.387H0.540V0.390H0.538ZM0.551 0.387H0.553V0.396L0.549 0.394Q0.551 0.391 0.551 0.387ZM0.506 0.388H0.509V0.390H0.506ZM0.518 0.388H0.524V0.390H0.518ZM0.540 0.390H0.542V0.394H0.540ZM0.560 0.394Q0.563 0.396 0.567 0.396V0.398L0.560 0.399ZM0.464 0.396H0.465V0.401H0.464ZM0.487 0.398H0.489V0.403Q0.485 0.416 0.485 0.418L0.493 0.423Q0.491 0.426 0.491 0.434L0.487 0.432V0.438H0.485Q0.485 0.427 0.471 0.427V0.423Q0.483 0.423 0.483 0.407Q0.487 0.407 0.487 0.398ZM0.567 0.398Q0.571 0.398 0.571 0.401H0.567ZM0.518 0.399H0.522Q0.522 0.403 0.518 0.403ZM0.506 0.401H0.509V0.403H0.506ZM0.534 0.405H0.538Q0.538 0.408 0.542 0.412L0.534 0.414V0.420H0.538Q0.534 0.427 0.527 0.427H0.525V0.425Q0.534 0.425 0.534 0.405ZM0.549 0.405H0.554Q0.554 0.409 0.558 0.409V0.410H0.551L0.553 0.407H0.549ZM0.494 0.407H0.496Q0.500 0.407 0.500 0.410Q0.498 0.410 0.494 0.412ZM0.460 0.409H0.464V0.410H0.460ZM0.469 0.409H0.473V0.410H0.469ZM0.515 0.410V0.412Q0.515 0.416 0.506 0.418Q0.506 0.415 0.515 0.410ZM0.522 0.410H0.524Q0.524 0.414 0.525 0.418L0.522 0.420H0.520Q0.522 0.416 0.522 0.410ZM0.460 0.418H0.464V0.420H0.460ZM0.464 0.420H0.467V0.422H0.464ZM0.517 0.420H0.520V0.422H0.517ZM0.540 0.420H0.545V0.422H0.540ZM0.509 0.422H0.515V0.423H0.509ZM0.576 0.423V0.427H0.573Q0.573 0.423 0.576 0.423ZM0.564 0.425H0.571V0.427H0.564ZM0.496 0.427H0.500V0.430Q0.496 0.430 0.496 0.427ZM0.524 0.427H0.525Q0.524 0.438 0.515 0.438V0.434Q0.519 0.434 0.524 0.427ZM0.540 0.427H0.542V0.430H0.540ZM0.504 0.429Q0.507 0.429 0.507 0.432H0.504ZM0.507 0.432H0.509V0.436H0.507ZM0.531 0.432H0.533V0.436H0.531ZM0.549 0.432H0.551V0.441H0.549ZM0.562 0.432H0.564V0.436H0.562ZM0.540 0.434H0.543V0.436H0.540ZM0.564 0.436H0.566V0.441H0.564ZM0.469 0.438H0.471V0.441H0.469ZM0.556 0.439H0.558V0.443H0.556ZM0.566 0.441H0.567V0.447H0.566ZM0.538 0.443H0.545V0.445Q0.542 0.445 0.542 0.448H0.540Q0.540 0.446 0.538 0.443ZM0.517 0.445V0.450Q0.513 0.450 0.513 0.447ZM0.542 0.450H0.543V0.456H0.542ZM0.524 0.452H0.525V0.456H0.524ZM0.418 0.454H0.420Q0.420 0.456 0.422 0.459Q0.420 0.462 0.420 0.469H0.418ZM0.543 0.458H0.551V0.459H0.543ZM0.400 0.459H0.402Q0.402 0.471 0.406 0.476H0.404Q0.401 0.476 0.397 0.469V0.467Q0.400 0.462 0.400 0.459ZM0.507 0.461V0.465L0.504 0.463H0.502V0.467L0.511 0.469Q0.511 0.467 0.513 0.467V0.470Q0.517 0.470 0.517 0.467Q0.514 0.467 0.509 0.461ZM0.536 0.459V0.463Q0.534 0.463 0.531 0.465V0.461Q0.533 0.461 0.536 0.459ZM0.482 0.461H0.491Q0.491 0.464 0.485 0.467Q0.485 0.463 0.482 0.463ZM0.542 0.465Q0.543 0.465 0.553 0.467L0.560 0.465H0.562V0.467Q0.554 0.467 0.554 0.470L0.551 0.469L0.542 0.470ZM0.386 0.470H0.387V0.476H0.386ZM0.413 0.470H0.416V0.472H0.413ZM0.478 0.470H0.480V0.474H0.478ZM0.493 0.487Q0.493 0.481 0.489 0.481V0.492H0.491L0.506 0.481V0.483Q0.509 0.481 0.511 0.481V0.476L0.507 0.478V0.472Q0.494 0.472 0.494 0.487ZM0.457 0.476V0.480Q0.460 0.480 0.460 0.476ZM0.534 0.476H0.536V0.480H0.534ZM0.551 0.476H0.554V0.478H0.551ZM0.476 0.478H0.478Q0.478 0.481 0.474 0.481H0.473Q0.473 0.478 0.476 0.478ZM0.471 0.480V0.483H0.465V0.481Q0.468 0.481 0.471 0.480ZM0.556 0.480H0.560V0.483Q0.556 0.483 0.556 0.480ZM0.496 0.490V0.492H0.507V0.490ZM0.569 0.492H0.587Q0.576 0.523 0.571 0.523H0.560Q0.569 0.495 0.569 0.492ZM0.593 0.492H0.611V0.494Q0.606 0.518 0.600 0.523H0.580Q0.593 0.500 0.593 0.492ZM0.620 0.492H0.622L0.614 0.523H0.609V0.521Q0.617 0.492 0.620 0.492ZM0.627 0.492H0.654V0.523H0.620V0.521Q0.627 0.495 0.627 0.492ZM0.455 0.523H0.460Q0.464 0.524 0.464 0.527Q0.464 0.530 0.457 0.530V0.541L0.464 0.536H0.465Q0.465 0.547 0.433 0.554Q0.433 0.556 0.423 0.561Q0.423 0.554 0.416 0.552Q0.416 0.549 0.404 0.547Q0.404 0.542 0.413 0.541L0.411 0.545V0.547H0.413Q0.419 0.541 0.423 0.541V0.530Q0.442 0.523 0.455 0.523ZM0.473 0.527H0.474V0.532H0.473ZM0.506 0.532H0.511L0.518 0.534V0.536H0.513L0.506 0.534ZM0.418 0.534H0.422V0.536H0.418ZM0.422 0.543V0.547H0.423V0.543ZM0.240 0.547H0.242Q0.242 0.551 0.247 0.570V0.572H0.245Q0.240 0.554 0.240 0.550ZM0.455 0.554H0.457V0.574Q0.459 0.574 0.462 0.568V0.559Q0.467 0.559 0.467 0.554Q0.471 0.554 0.471 0.557L0.457 0.581V0.677Q0.499 0.670 0.506 0.670Q0.483 0.688 0.457 0.688V0.698H0.458Q0.469 0.698 0.498 0.688H0.500Q0.495 0.702 0.455 0.718Q0.455 0.707 0.418 0.699V0.698H0.420L0.423 0.699V0.690H0.414V0.688H0.423V0.685Q0.423 0.681 0.420 0.681H0.409V0.677L0.422 0.679H0.423V0.570Q0.438 0.554 0.455 0.554ZM0.247 0.572H0.249V0.578H0.247ZM0.249 0.578H0.251V0.581H0.249ZM0.251 0.581H0.253V0.585H0.251ZM0.253 0.585H0.254V0.589H0.253ZM0.254 0.589Q0.259 0.589 0.260 0.598Q0.256 0.598 0.254 0.589ZM0.260 0.598Q0.299 0.651 0.371 0.672Q0.378 0.672 0.378 0.676Q0.375 0.676 0.373 0.679Q0.365 0.679 0.316 0.654V0.658Q0.281 0.633 0.260 0.600ZM0.318 0.660H0.320Q0.324 0.660 0.324 0.663H0.322Q0.318 0.663 0.318 0.660ZM0.324 0.663H0.327V0.665H0.324ZM0.603 0.663 0.605 0.667V0.670H0.598L0.594 0.665ZM0.331 0.668H0.335V0.670H0.331ZM0.584 0.672Q0.584 0.675 0.587 0.679L0.580 0.683L0.576 0.677Q0.576 0.675 0.584 0.672ZM0.340 0.674H0.344V0.676H0.340ZM0.344 0.676H0.347V0.677H0.344ZM0.386 0.676H0.393L0.402 0.677V0.679H0.397L0.386 0.677ZM0.347 0.677H0.351V0.679H0.347ZM0.462 0.681H0.457V0.687Q0.474 0.686 0.474 0.681V0.679ZM0.351 0.679H0.355V0.681H0.351ZM0.374 0.679H0.378V0.681H0.374ZM0.614 0.679 0.618 0.685V0.687H0.609L0.607 0.683Q0.610 0.683 0.614 0.679ZM0.355 0.681H0.358Q0.387 0.692 0.387 0.694V0.696L0.355 0.683ZM0.378 0.681H0.382V0.683H0.378ZM0.391 0.685H0.400V0.687H0.391ZM0.560 0.685H0.562V0.694H0.560Q0.560 0.691 0.556 0.687ZM0.402 0.687H0.406V0.688H0.402ZM0.596 0.690Q0.596 0.693 0.600 0.698L0.593 0.701L0.589 0.696Q0.589 0.693 0.596 0.690ZM0.545 0.692Q0.545 0.695 0.549 0.699L0.543 0.703Q0.541 0.703 0.538 0.698V0.696Q0.541 0.696 0.545 0.692ZM0.395 0.694Q0.396 0.694 0.413 0.698V0.701H0.411Q0.408 0.701 0.395 0.698ZM0.627 0.698 0.631 0.705 0.624 0.709Q0.624 0.707 0.622 0.707Q0.624 0.698 0.627 0.698ZM0.462 0.703H0.457V0.712H0.458Q0.474 0.706 0.474 0.703V0.701ZM0.576 0.701 0.578 0.705H0.573Q0.573 0.701 0.576 0.701ZM0.502 0.703H0.509L0.507 0.707L0.504 0.705Q0.499 0.705 0.487 0.709V0.714Q0.489 0.714 0.489 0.712Q0.490 0.714 0.506 0.714Q0.504 0.717 0.504 0.721Q0.496 0.716 0.482 0.716L0.480 0.719V0.721Q0.480 0.725 0.496 0.727Q0.497 0.723 0.500 0.723H0.502Q0.498 0.736 0.498 0.741L0.494 0.739H0.491V0.743Q0.496 0.743 0.496 0.747V0.752H0.494Q0.488 0.751 0.474 0.736Q0.473 0.736 0.460 0.734V0.732H0.465L0.476 0.734V0.725H0.473V0.723Q0.476 0.723 0.485 0.707Q0.497 0.703 0.502 0.703ZM0.527 0.703Q0.527 0.706 0.531 0.711H0.527V0.716L0.529 0.719Q0.533 0.718 0.558 0.712Q0.558 0.715 0.584 0.721Q0.587 0.719 0.589 0.719Q0.589 0.725 0.603 0.725Q0.603 0.727 0.589 0.739Q0.589 0.755 0.553 0.778Q0.552 0.769 0.547 0.769H0.545V0.772L0.547 0.776L0.543 0.778H0.542Q0.539 0.778 0.536 0.772V0.770H0.542V0.769L0.540 0.765Q0.529 0.769 0.527 0.774V0.779H0.547V0.781Q0.536 0.781 0.536 0.805Q0.529 0.818 0.515 0.818V0.812H0.504L0.494 0.805L0.493 0.808Q0.496 0.809 0.496 0.812H0.494Q0.493 0.812 0.493 0.810L0.489 0.812H0.482Q0.478 0.812 0.478 0.808L0.474 0.810Q0.459 0.794 0.455 0.794Q0.452 0.794 0.447 0.788Q0.438 0.788 0.436 0.812H0.429Q0.429 0.805 0.433 0.794Q0.429 0.794 0.429 0.790Q0.446 0.780 0.446 0.778L0.423 0.747V0.719L0.457 0.765V0.778H0.455L0.451 0.776L0.449 0.779Q0.452 0.779 0.460 0.788Q0.460 0.787 0.462 0.787L0.458 0.779H0.467Q0.487 0.801 0.489 0.801L0.491 0.797Q0.488 0.797 0.483 0.790Q0.483 0.780 0.494 0.778Q0.494 0.769 0.498 0.769Q0.502 0.774 0.502 0.779Q0.508 0.779 0.511 0.778L0.522 0.779H0.524V0.769L0.529 0.761Q0.525 0.757 0.525 0.754Q0.516 0.754 0.504 0.769H0.502V0.758L0.504 0.739L0.513 0.741H0.515V0.739L0.511 0.734V0.732H0.517V0.728L0.507 0.727L0.509 0.716H0.517L0.520 0.718V0.716L0.513 0.707Q0.515 0.707 0.515 0.705Q0.518 0.707 0.520 0.707ZM0.382 0.709H0.387V0.711H0.382ZM0.609 0.711Q0.611 0.714 0.611 0.716L0.605 0.719L0.600 0.712Q0.602 0.711 0.609 0.711ZM0.389 0.711H0.397V0.712H0.389ZM0.427 0.712H0.429Q0.447 0.712 0.451 0.736L0.449 0.745H0.447Q0.446 0.741 0.427 0.712ZM0.404 0.714H0.418V0.716H0.404ZM0.418 0.716H0.423V0.718H0.418ZM0.640 0.716 0.644 0.723 0.636 0.727 0.631 0.719Q0.634 0.719 0.640 0.716ZM0.513 0.719V0.721Q0.520 0.729 0.520 0.734H0.524V0.721Q0.522 0.721 0.513 0.719ZM0.460 0.721H0.473V0.723H0.460ZM0.480 0.727V0.728Q0.480 0.736 0.496 0.737Q0.496 0.727 0.482 0.727ZM0.622 0.728 0.626 0.734 0.622 0.736Q0.622 0.734 0.620 0.734V0.736L0.624 0.748H0.626Q0.629 0.748 0.629 0.743Q0.633 0.747 0.636 0.747L0.640 0.745Q0.643 0.747 0.645 0.747L0.647 0.743L0.644 0.737Q0.646 0.737 0.651 0.734H0.652Q0.652 0.737 0.656 0.741Q0.651 0.741 0.651 0.745V0.747Q0.660 0.747 0.660 0.754H0.662L0.665 0.752Q0.665 0.765 0.689 0.765Q0.691 0.765 0.691 0.763Q0.697 0.767 0.700 0.767Q0.698 0.770 0.698 0.772Q0.685 0.767 0.684 0.767V0.770L0.675 0.769H0.671V0.772H0.667Q0.667 0.765 0.654 0.761L0.656 0.758V0.756H0.651V0.759H0.645Q0.630 0.759 0.627 0.776Q0.627 0.779 0.635 0.779V0.781Q0.630 0.781 0.620 0.792Q0.620 0.773 0.589 0.767Q0.584 0.767 0.573 0.770Q0.587 0.752 0.593 0.752Q0.599 0.756 0.603 0.756Q0.616 0.756 0.616 0.743Q0.612 0.732 0.605 0.732Q0.606 0.728 0.609 0.728H0.611Q0.613 0.728 0.613 0.730Q0.615 0.728 0.622 0.728ZM0.506 0.730H0.511V0.732H0.506ZM0.624 0.736H0.626V0.739H0.624ZM0.600 0.737Q0.602 0.737 0.605 0.743V0.745L0.596 0.747V0.745Q0.600 0.740 0.600 0.737ZM0.457 0.750H0.458L0.487 0.767H0.489V0.769Q0.482 0.769 0.478 0.772H0.473Q0.470 0.772 0.467 0.767Q0.469 0.763 0.469 0.759Q0.457 0.755 0.457 0.750ZM0.536 0.754V0.759H0.538Q0.542 0.759 0.542 0.756V0.754ZM0.494 0.758H0.496V0.763H0.494ZM0.423 0.759H0.427V0.761H0.423ZM0.645 0.763Q0.645 0.765 0.656 0.778H0.640L0.642 0.774V0.772L0.638 0.767V0.765ZM0.423 0.770H0.433Q0.435 0.770 0.438 0.776V0.779Q0.434 0.779 0.423 0.790ZM0.703 0.770H0.707V0.772H0.703ZM0.591 0.772Q0.612 0.772 0.616 0.803L0.614 0.812H0.603Q0.593 0.819 0.593 0.821V0.823H0.596Q0.596 0.827 0.593 0.827H0.591Q0.562 0.827 0.562 0.795Q0.562 0.776 0.591 0.772ZM0.504 0.774Q0.507 0.776 0.509 0.776V0.778H0.504ZM0.709 0.776H0.711L0.716 0.779H0.725V0.790Q0.725 0.792 0.727 0.792L0.725 0.795V0.801Q0.732 0.812 0.740 0.812V0.814H0.733Q0.727 0.812 0.727 0.810Q0.724 0.812 0.716 0.812V0.814Q0.733 0.819 0.738 0.819V0.821H0.735Q0.695 0.812 0.695 0.808V0.797Q0.697 0.779 0.711 0.779ZM0.511 0.779 0.509 0.783 0.520 0.788 0.522 0.785ZM0.474 0.779H0.480V0.785Q0.477 0.785 0.474 0.779ZM0.560 0.779H0.562V0.781Q0.556 0.791 0.556 0.799Q0.556 0.820 0.576 0.829V0.830Q0.569 0.831 0.569 0.843L0.571 0.850H0.569Q0.564 0.848 0.564 0.839Q0.564 0.838 0.566 0.829H0.560Q0.527 0.826 0.527 0.819Q0.539 0.819 0.543 0.792V0.787Q0.550 0.787 0.560 0.779ZM0.662 0.779H0.696Q0.689 0.789 0.689 0.795V0.808Q0.686 0.808 0.682 0.812H0.680V0.808Q0.680 0.793 0.662 0.779ZM0.645 0.783H0.647Q0.675 0.785 0.675 0.810V0.812Q0.671 0.812 0.671 0.814Q0.667 0.812 0.665 0.812Q0.662 0.812 0.654 0.816Q0.651 0.814 0.647 0.814L0.640 0.816V0.812H0.638Q0.636 0.812 0.636 0.814L0.620 0.810Q0.626 0.783 0.645 0.783ZM0.447 0.795Q0.447 0.799 0.460 0.801Q0.460 0.805 0.469 0.814Q0.466 0.814 0.462 0.818H0.460V0.812H0.442Q0.444 0.795 0.447 0.795ZM0.742 0.807H0.744V0.810H0.742ZM0.471 0.818Q0.471 0.830 0.493 0.836Q0.503 0.836 0.511 0.829L0.513 0.832Q0.501 0.839 0.489 0.839Q0.476 0.839 0.464 0.823ZM0.747 0.823H0.755V0.825H0.747ZM0.756 0.825H0.760V0.827H0.756ZM0.598 0.830H0.603L0.605 0.839V0.845H0.603Q0.603 0.834 0.598 0.834ZM0.525 0.832H0.533V0.836Q0.533 0.839 0.529 0.839L0.525 0.834ZM0.585 0.838Q0.594 0.840 0.594 0.843Q0.587 0.843 0.580 0.845V0.843Q0.580 0.840 0.585 0.838ZM0.596 0.854H0.600V0.855H0.596ZM0.580 0.857H0.593V0.859H0.580Z" fill="black"/>
</svg>
