<svg xmlns="http://www.w3.org/2000/svg" viewBox="0 0 1 1" preserveAspectRatio="xMidYMid meet">
  <path d="M0.445 0.091 0.506 0.171H0.471L0.410 0.091ZM0.785 0.182Q0.789 0.182 0.796 0.208Q0.798 0.208 0.802 0.229H0.798Q0.798 0.221 0.785 0.182ZM0.470 0.203H0.476Q0.554 0.203 0.608 0.250Q0.599 0.268 0.599 0.286Q0.593 0.286 0.581 0.244L0.570 0.235H0.561Q0.557 0.236 0.557 0.239Q0.556 0.239 0.546 0.237Q0.543 0.237 0.524 0.241Q0.494 0.233 0.474 0.233L0.427 0.239Q0.427 0.226 0.419 0.210Q0.446 0.203 0.470 0.203ZM0.416 0.213 0.423 0.242Q0.418 0.242 0.392 0.253V0.251L0.381 0.224H0.383Q0.401 0.213 0.416 0.213ZM0.376 0.228Q0.385 0.239 0.385 0.259Q0.372 0.266 0.350 0.288V0.264Q0.350 0.260 0.347 0.260Q0.339 0.266 0.334 0.309Q0.331 0.309 0.323 0.325Q0.329 0.325 0.329 0.335Q0.329 0.341 0.323 0.348V0.349H0.334L0.339 0.367Q0.334 0.371 0.329 0.371Q0.321 0.353 0.318 0.353Q0.316 0.356 0.316 0.358Q0.322 0.367 0.322 0.371L0.307 0.358H0.305Q0.305 0.361 0.300 0.367L0.313 0.389Q0.311 0.399 0.311 0.404H0.309Q0.302 0.390 0.285 0.374L0.283 0.378L0.305 0.409Q0.302 0.409 0.296 0.413L0.271 0.386Q0.267 0.386 0.267 0.389Q0.289 0.414 0.289 0.416Q0.285 0.416 0.285 0.423Q0.280 0.423 0.256 0.397L0.258 0.393H0.256Q0.242 0.395 0.236 0.400H0.234Q0.234 0.396 0.217 0.382L0.215 0.373Q0.218 0.364 0.222 0.364H0.231Q0.233 0.364 0.241 0.376H0.243Q0.244 0.369 0.249 0.369H0.253L0.265 0.371Q0.265 0.367 0.276 0.342H0.274Q0.270 0.342 0.265 0.355Q0.233 0.350 0.233 0.340V0.337Q0.233 0.325 0.245 0.325Q0.254 0.328 0.254 0.333H0.258Q0.258 0.316 0.273 0.316Q0.281 0.320 0.281 0.329Q0.300 0.301 0.322 0.273Q0.359 0.235 0.376 0.228ZM0.798 0.235H0.802V0.237H0.798ZM0.563 0.241H0.568Q0.575 0.241 0.584 0.271Q0.545 0.246 0.537 0.246V0.244L0.546 0.242L0.559 0.244Q0.559 0.241 0.563 0.241ZM0.800 0.242H0.802V0.250H0.800ZM0.612 0.253Q0.614 0.253 0.622 0.264V0.266Q0.606 0.277 0.606 0.289H0.604V0.284Q0.604 0.276 0.612 0.253ZM0.802 0.255H0.804V0.260H0.800Q0.802 0.257 0.802 0.255ZM0.800 0.266H0.802V0.269H0.800ZM0.628 0.267Q0.659 0.309 0.671 0.337Q0.657 0.338 0.657 0.351Q0.657 0.355 0.675 0.371H0.670Q0.646 0.371 0.646 0.355L0.631 0.329L0.640 0.318V0.313Q0.637 0.295 0.622 0.295L0.612 0.300L0.608 0.299Q0.615 0.272 0.628 0.267ZM0.343 0.282H0.345Q0.347 0.292 0.347 0.293L0.341 0.297Q0.343 0.289 0.343 0.282ZM0.798 0.282H0.802V0.284H0.798ZM0.800 0.289H0.802V0.291Q0.802 0.294 0.796 0.297V0.293Q0.797 0.289 0.800 0.289ZM0.622 0.300Q0.634 0.304 0.635 0.309V0.316Q0.635 0.319 0.628 0.324L0.615 0.304ZM0.802 0.300V0.302Q0.800 0.305 0.800 0.309H0.793V0.308Q0.794 0.302 0.802 0.300ZM0.791 0.320H0.796Q0.796 0.325 0.793 0.337Q0.791 0.337 0.785 0.329Q0.788 0.320 0.791 0.320ZM0.673 0.342Q0.682 0.358 0.684 0.376H0.687V0.378H0.657V0.376H0.678L0.680 0.373V0.369Q0.662 0.351 0.662 0.349Q0.664 0.342 0.673 0.342ZM0.785 0.355H0.787V0.360H0.783Q0.785 0.357 0.785 0.355ZM0.773 0.362H0.776V0.364Q0.773 0.370 0.773 0.373H0.766Q0.770 0.362 0.773 0.362ZM0.783 0.365V0.367Q0.782 0.371 0.782 0.373H0.780V0.367ZM0.778 0.373H0.780V0.376H0.778ZM0.760 0.378H0.762V0.382H0.760ZM0.760 0.382V0.384Q0.757 0.391 0.757 0.395H0.753V0.393Q0.757 0.382 0.760 0.382ZM0.657 0.384H0.689Q0.689 0.386 0.691 0.389H0.689Q0.674 0.387 0.666 0.387L0.659 0.389Q0.659 0.387 0.657 0.384ZM0.662 0.393H0.673Q0.686 0.395 0.693 0.395V0.397Q0.682 0.397 0.682 0.400V0.405Q0.700 0.415 0.700 0.449Q0.702 0.449 0.706 0.456V0.463H0.704Q0.689 0.448 0.689 0.431Q0.668 0.431 0.668 0.422L0.666 0.414Q0.673 0.414 0.680 0.404V0.398Q0.680 0.395 0.662 0.395ZM0.653 0.395H0.662V0.397H0.653ZM0.769 0.395H0.773Q0.757 0.420 0.757 0.423H0.755Q0.751 0.423 0.751 0.420Q0.769 0.400 0.769 0.395ZM0.746 0.398Q0.748 0.400 0.755 0.400Q0.742 0.421 0.736 0.423V0.422Q0.738 0.419 0.738 0.414L0.727 0.423L0.726 0.420V0.418Q0.732 0.418 0.746 0.398ZM0.673 0.400H0.675V0.402Q0.659 0.413 0.659 0.418H0.653V0.411Q0.653 0.407 0.659 0.407L0.655 0.402ZM0.207 0.402H0.209Q0.214 0.405 0.217 0.405V0.407Q0.213 0.407 0.213 0.409Q0.217 0.415 0.217 0.418V0.420H0.215Q0.215 0.417 0.207 0.402ZM0.687 0.402H0.695L0.697 0.411Q0.694 0.411 0.687 0.402ZM0.254 0.404 0.281 0.433Q0.279 0.440 0.276 0.440Q0.251 0.419 0.251 0.413Q0.254 0.413 0.254 0.404ZM0.648 0.405H0.651L0.650 0.409H0.651Q0.650 0.416 0.648 0.416L0.650 0.420V0.422Q0.639 0.425 0.633 0.425L0.629 0.420Q0.630 0.416 0.639 0.413Q0.639 0.414 0.640 0.414V0.407Q0.644 0.405 0.648 0.405ZM0.217 0.407H0.218Q0.222 0.408 0.222 0.411H0.220Q0.217 0.411 0.217 0.407ZM0.222 0.411H0.225V0.413H0.222ZM0.225 0.413H0.227Q0.231 0.413 0.231 0.416H0.229Q0.225 0.416 0.225 0.413ZM0.247 0.414H0.251V0.416H0.247ZM0.231 0.416H0.234V0.418H0.231ZM0.234 0.418H0.238V0.420H0.234ZM0.217 0.420H0.218V0.423H0.217ZM0.722 0.423 0.724 0.427V0.429Q0.721 0.429 0.706 0.442Q0.706 0.440 0.704 0.436Q0.707 0.436 0.722 0.423ZM0.736 0.423V0.425Q0.736 0.429 0.733 0.429V0.427Q0.734 0.423 0.736 0.423ZM0.218 0.425H0.220V0.431H0.218ZM0.231 0.425Q0.234 0.426 0.234 0.429H0.231ZM0.746 0.425Q0.749 0.426 0.749 0.429V0.434H0.742Q0.746 0.430 0.746 0.425ZM0.251 0.427Q0.275 0.444 0.281 0.458Q0.280 0.458 0.280 0.460Q0.236 0.433 0.234 0.429H0.236Q0.241 0.431 0.241 0.433ZM0.313 0.429H0.316Q0.322 0.429 0.325 0.444Q0.324 0.444 0.313 0.429ZM0.662 0.431Q0.663 0.434 0.666 0.434H0.686Q0.686 0.470 0.715 0.470L0.708 0.478V0.496Q0.714 0.495 0.747 0.463V0.467Q0.733 0.487 0.708 0.500V0.521L0.713 0.518H0.719Q0.704 0.558 0.704 0.574H0.702L0.671 0.561Q0.671 0.552 0.682 0.551L0.684 0.547Q0.682 0.547 0.682 0.545L0.673 0.547H0.671Q0.675 0.534 0.680 0.529Q0.677 0.527 0.673 0.527Q0.687 0.511 0.687 0.502V0.491Q0.687 0.482 0.673 0.469V0.465Q0.655 0.465 0.644 0.478Q0.629 0.485 0.624 0.485V0.482Q0.624 0.479 0.650 0.470V0.469Q0.650 0.467 0.648 0.467Q0.648 0.462 0.659 0.458Q0.659 0.451 0.662 0.447Q0.670 0.450 0.670 0.453V0.456L0.668 0.460Q0.673 0.458 0.673 0.456L0.671 0.444H0.661Q0.658 0.444 0.655 0.438V0.433ZM0.729 0.431V0.433Q0.727 0.438 0.722 0.440V0.438Q0.722 0.435 0.729 0.431ZM0.289 0.434Q0.291 0.434 0.307 0.451V0.453Q0.296 0.453 0.296 0.460H0.294Q0.283 0.454 0.281 0.447Q0.285 0.434 0.289 0.434ZM0.220 0.436H0.224V0.438H0.220ZM0.642 0.436H0.646Q0.646 0.446 0.650 0.446L0.648 0.449V0.453L0.650 0.456Q0.643 0.456 0.640 0.458L0.639 0.446L0.644 0.442L0.642 0.438ZM0.234 0.438H0.236Q0.275 0.469 0.278 0.469V0.476Q0.246 0.461 0.238 0.449H0.227V0.447Q0.234 0.442 0.234 0.438ZM0.740 0.438 0.742 0.442Q0.729 0.460 0.726 0.460V0.453Q0.726 0.450 0.740 0.438ZM0.215 0.444V0.447H0.211Q0.211 0.444 0.215 0.444ZM0.311 0.444Q0.313 0.444 0.318 0.451V0.453H0.316Q0.313 0.453 0.311 0.447ZM0.205 0.449H0.209Q0.209 0.453 0.205 0.453ZM0.633 0.451 0.635 0.460V0.462H0.633Q0.629 0.462 0.629 0.458V0.454Q0.630 0.451 0.633 0.451ZM0.204 0.453H0.205Q0.205 0.456 0.202 0.456H0.200Q0.201 0.453 0.204 0.453ZM0.196 0.458H0.202Q0.202 0.462 0.198 0.462ZM0.225 0.458H0.227V0.462H0.225ZM0.229 0.458H0.231V0.462H0.229ZM0.233 0.458H0.234L0.236 0.465Q0.233 0.465 0.233 0.460ZM0.202 0.460H0.211V0.462H0.202ZM0.213 0.460H0.224V0.462H0.213ZM0.719 0.460V0.463Q0.712 0.465 0.711 0.465Q0.711 0.462 0.719 0.460ZM0.236 0.465H0.238V0.469H0.236ZM0.245 0.467H0.247Q0.273 0.485 0.276 0.485V0.491H0.274Q0.254 0.480 0.245 0.478ZM0.238 0.469H0.240Q0.240 0.471 0.241 0.474H0.238ZM0.671 0.474 0.673 0.478Q0.668 0.478 0.651 0.493Q0.651 0.491 0.650 0.487Q0.651 0.476 0.655 0.476V0.482ZM0.675 0.478Q0.680 0.478 0.682 0.493V0.498Q0.680 0.518 0.671 0.518V0.516Q0.663 0.519 0.637 0.519Q0.628 0.519 0.612 0.512Q0.612 0.514 0.610 0.514L0.608 0.510Q0.614 0.507 0.619 0.507H0.622Q0.635 0.518 0.648 0.518Q0.677 0.518 0.677 0.498Q0.675 0.485 0.675 0.478ZM0.619 0.483Q0.619 0.489 0.621 0.493Q0.606 0.497 0.606 0.498Q0.590 0.496 0.590 0.493Q0.611 0.483 0.619 0.483ZM0.243 0.485Q0.274 0.502 0.276 0.502V0.505L0.243 0.494ZM0.644 0.485V0.491H0.635V0.489Q0.638 0.489 0.644 0.485ZM0.664 0.487H0.668Q0.668 0.491 0.664 0.491ZM0.631 0.491H0.635V0.493H0.631ZM0.671 0.493V0.500Q0.663 0.500 0.646 0.512Q0.635 0.510 0.635 0.507Q0.644 0.507 0.671 0.493ZM0.243 0.503H0.245Q0.273 0.516 0.276 0.516V0.519L0.243 0.510ZM0.354 0.507H0.360V0.509Q0.358 0.509 0.354 0.510ZM0.322 0.509H0.325V0.510H0.322ZM0.325 0.510H0.327Q0.329 0.510 0.332 0.516H0.330Q0.328 0.516 0.325 0.510ZM0.314 0.516H0.316Q0.322 0.519 0.327 0.519Q0.327 0.518 0.329 0.518L0.330 0.529Q0.324 0.523 0.316 0.519ZM0.243 0.519H0.245Q0.272 0.530 0.276 0.530V0.532H0.273Q0.248 0.527 0.243 0.527ZM0.708 0.527V0.536H0.710L0.713 0.523H0.711Q0.708 0.524 0.708 0.527ZM0.631 0.525H0.639V0.529Q0.635 0.529 0.631 0.527Q0.622 0.527 0.608 0.543H0.606L0.608 0.540Q0.606 0.540 0.606 0.538Q0.619 0.525 0.631 0.525ZM0.642 0.527H0.648V0.529H0.642ZM0.245 0.536Q0.271 0.543 0.276 0.543V0.545H0.273L0.245 0.542ZM0.633 0.536Q0.637 0.537 0.637 0.540L0.631 0.547V0.552Q0.637 0.552 0.644 0.554V0.551H0.648L0.646 0.559Q0.650 0.559 0.650 0.565L0.657 0.559Q0.671 0.564 0.671 0.568Q0.670 0.568 0.670 0.570Q0.673 0.568 0.675 0.568Q0.696 0.579 0.704 0.579V0.583Q0.670 0.583 0.670 0.572H0.668V0.576L0.655 0.574L0.659 0.568V0.565L0.651 0.570H0.650L0.640 0.561Q0.640 0.565 0.637 0.565Q0.637 0.562 0.619 0.552L0.617 0.549ZM0.659 0.536H0.664Q0.664 0.542 0.668 0.547H0.661V0.542L0.651 0.549V0.547Q0.656 0.536 0.659 0.536ZM0.329 0.538H0.332V0.540H0.329ZM0.338 0.545H0.341V0.547H0.338ZM0.533 0.545H0.535Q0.539 0.547 0.541 0.547Q0.541 0.545 0.542 0.545L0.544 0.549V0.556Q0.536 0.556 0.533 0.558ZM0.573 0.545V0.556Q0.572 0.556 0.563 0.558V0.547Q0.572 0.545 0.573 0.545ZM0.591 0.545H0.597L0.595 0.549V0.552L0.597 0.556H0.591ZM0.476 0.547H0.488Q0.488 0.558 0.477 0.558H0.476ZM0.505 0.547H0.516Q0.516 0.555 0.517 0.558H0.505ZM0.601 0.549H0.608Q0.608 0.552 0.604 0.552H0.601ZM0.247 0.552H0.249Q0.274 0.556 0.276 0.556V0.558H0.251Q0.247 0.558 0.247 0.554ZM0.670 0.552V0.559H0.668Q0.663 0.556 0.661 0.556V0.554Q0.666 0.554 0.670 0.552ZM0.599 0.558H0.614Q0.614 0.560 0.601 0.565V0.567Q0.605 0.570 0.610 0.570L0.608 0.574L0.637 0.596L0.646 0.600V0.601Q0.642 0.601 0.642 0.603Q0.635 0.600 0.629 0.600L0.631 0.596Q0.614 0.583 0.610 0.583L0.612 0.579Q0.610 0.579 0.601 0.572Q0.597 0.573 0.597 0.576Q0.599 0.576 0.599 0.578H0.591L0.593 0.574L0.590 0.572Q0.587 0.572 0.584 0.578V0.579L0.586 0.583Q0.582 0.584 0.582 0.587V0.590Q0.582 0.598 0.612 0.598V0.600Q0.604 0.600 0.591 0.601Q0.588 0.600 0.586 0.600L0.584 0.603Q0.584 0.608 0.591 0.608L0.590 0.612L0.591 0.615L0.586 0.619H0.582Q0.581 0.619 0.581 0.617Q0.572 0.619 0.572 0.625L0.573 0.628Q0.572 0.632 0.572 0.636Q0.582 0.645 0.593 0.645H0.595Q0.602 0.645 0.612 0.643Q0.615 0.645 0.617 0.645V0.647Q0.597 0.647 0.597 0.650L0.584 0.648H0.575Q0.572 0.648 0.572 0.654L0.568 0.652H0.566Q0.563 0.652 0.563 0.656V0.659L0.568 0.666Q0.566 0.670 0.566 0.672L0.559 0.666H0.557Q0.554 0.667 0.554 0.670L0.550 0.668H0.548L0.535 0.683Q0.535 0.687 0.561 0.708V0.712Q0.553 0.712 0.535 0.690Q0.531 0.687 0.519 0.685Q0.519 0.687 0.517 0.687Q0.517 0.685 0.516 0.685V0.687L0.512 0.685L0.499 0.690V0.687Q0.496 0.688 0.488 0.688V0.694H0.495Q0.489 0.702 0.486 0.719H0.484V0.715H0.483Q0.474 0.723 0.472 0.723V0.712Q0.479 0.712 0.479 0.701V0.694H0.476V0.692Q0.483 0.692 0.483 0.687H0.476V0.683L0.479 0.685Q0.484 0.678 0.484 0.672H0.481L0.477 0.674V0.663Q0.487 0.661 0.488 0.661V0.672Q0.508 0.668 0.508 0.657H0.510V0.663L0.514 0.661V0.663Q0.517 0.661 0.519 0.661Q0.519 0.652 0.514 0.652Q0.514 0.650 0.516 0.650Q0.514 0.647 0.514 0.643Q0.508 0.643 0.508 0.648H0.506Q0.506 0.643 0.505 0.643L0.506 0.639V0.638L0.505 0.634Q0.506 0.634 0.506 0.632Q0.510 0.634 0.512 0.634Q0.515 0.634 0.528 0.617Q0.532 0.614 0.535 0.614V0.612L0.533 0.603Q0.545 0.603 0.550 0.592Q0.559 0.586 0.565 0.576Q0.595 0.567 0.601 0.563L0.599 0.559ZM0.621 0.559Q0.624 0.561 0.626 0.561V0.565H0.621ZM0.249 0.567 0.278 0.568V0.570H0.249ZM0.488 0.574V0.585L0.477 0.587V0.576Q0.485 0.576 0.488 0.574ZM0.533 0.574H0.541L0.544 0.576Q0.544 0.574 0.546 0.574V0.585H0.533L0.535 0.576Q0.533 0.576 0.533 0.574ZM0.621 0.574H0.631V0.581L0.621 0.579ZM0.642 0.574H0.646V0.581H0.635Q0.635 0.578 0.642 0.574ZM0.506 0.576H0.517V0.587H0.508Q0.505 0.587 0.505 0.583Q0.506 0.580 0.506 0.576ZM0.651 0.578Q0.659 0.581 0.662 0.581V0.583H0.657L0.650 0.581ZM0.251 0.581H0.280V0.583Q0.269 0.583 0.251 0.585ZM0.280 0.587H0.285V0.589H0.280ZM0.686 0.587 0.702 0.589Q0.697 0.606 0.697 0.610H0.699L0.704 0.607H0.711Q0.749 0.615 0.749 0.638Q0.681 0.610 0.678 0.610L0.682 0.605Q0.644 0.597 0.639 0.589Q0.660 0.590 0.670 0.590H0.680ZM0.588 0.589H0.612Q0.616 0.592 0.619 0.592V0.594H0.617Q0.596 0.590 0.588 0.590ZM0.253 0.594H0.276V0.596Q0.263 0.596 0.254 0.600L0.253 0.596ZM0.617 0.600H0.624L0.622 0.603Q0.625 0.605 0.633 0.605L0.631 0.608L0.633 0.612Q0.611 0.607 0.604 0.607V0.605Q0.619 0.605 0.619 0.601Q0.617 0.601 0.617 0.600ZM0.488 0.603Q0.488 0.605 0.486 0.605L0.488 0.608V0.614L0.477 0.615Q0.477 0.607 0.476 0.605ZM0.505 0.603Q0.517 0.605 0.517 0.608V0.615H0.506ZM0.278 0.605H0.283V0.607H0.278ZM0.271 0.607H0.276V0.608Q0.273 0.608 0.256 0.612V0.608Q0.269 0.607 0.271 0.607ZM0.662 0.608Q0.699 0.625 0.704 0.625V0.626Q0.693 0.636 0.693 0.638L0.661 0.615Q0.662 0.613 0.662 0.608ZM0.599 0.615H0.601Q0.650 0.620 0.650 0.630L0.651 0.634H0.646Q0.646 0.628 0.639 0.625H0.631Q0.627 0.625 0.624 0.626Q0.599 0.619 0.599 0.615ZM0.274 0.619H0.276V0.621Q0.265 0.625 0.260 0.625V0.621Q0.265 0.621 0.274 0.619ZM0.521 0.643Q0.524 0.659 0.539 0.659Q0.553 0.659 0.555 0.641Q0.553 0.625 0.539 0.625H0.533Q0.526 0.625 0.521 0.643ZM0.582 0.625H0.588V0.626H0.582ZM0.657 0.625Q0.672 0.625 0.687 0.643Q0.686 0.646 0.686 0.648Q0.687 0.648 0.687 0.650Q0.675 0.650 0.675 0.654V0.661Q0.675 0.665 0.689 0.668Q0.689 0.678 0.706 0.681H0.715Q0.729 0.681 0.736 0.668Q0.740 0.670 0.742 0.670V0.672Q0.739 0.680 0.719 0.687V0.685Q0.717 0.685 0.717 0.687Q0.704 0.687 0.682 0.677L0.677 0.687Q0.678 0.687 0.678 0.688L0.646 0.719Q0.652 0.726 0.659 0.739V0.741Q0.659 0.757 0.646 0.764H0.644Q0.653 0.755 0.653 0.748V0.739Q0.646 0.726 0.642 0.726H0.639Q0.639 0.730 0.631 0.737V0.739Q0.642 0.739 0.642 0.750V0.752Q0.642 0.755 0.635 0.759Q0.622 0.759 0.622 0.748H0.621V0.752H0.619Q0.617 0.752 0.617 0.750Q0.608 0.755 0.604 0.755Q0.590 0.739 0.590 0.737Q0.590 0.735 0.597 0.730Q0.597 0.732 0.617 0.748L0.619 0.745Q0.602 0.724 0.554 0.681L0.552 0.677H0.554L0.628 0.732Q0.631 0.732 0.631 0.728L0.573 0.679V0.675L0.640 0.717L0.642 0.713Q0.638 0.707 0.572 0.663V0.661H0.573L0.651 0.701L0.653 0.697Q0.653 0.694 0.584 0.656V0.654H0.590Q0.610 0.661 0.610 0.664Q0.612 0.664 0.612 0.663Q0.615 0.664 0.617 0.664V0.666L0.615 0.670L0.619 0.672L0.622 0.670Q0.622 0.679 0.633 0.679L0.637 0.674Q0.657 0.683 0.661 0.683L0.662 0.679Q0.641 0.668 0.640 0.666Q0.644 0.661 0.644 0.657Q0.663 0.664 0.668 0.664L0.670 0.661Q0.659 0.656 0.655 0.656V0.654Q0.664 0.654 0.664 0.650Q0.644 0.646 0.644 0.643L0.648 0.641L0.673 0.647L0.675 0.643Q0.661 0.636 0.651 0.636V0.634Q0.657 0.634 0.657 0.625ZM0.588 0.626H0.591Q0.614 0.632 0.619 0.634Q0.617 0.638 0.617 0.639Q0.591 0.628 0.588 0.628ZM0.281 0.630H0.283V0.632Q0.279 0.632 0.265 0.639L0.264 0.636Q0.279 0.630 0.281 0.630ZM0.488 0.632V0.643Q0.487 0.643 0.477 0.645V0.634Q0.479 0.634 0.488 0.632ZM0.533 0.632H0.546L0.544 0.641Q0.546 0.641 0.546 0.643H0.535Q0.535 0.639 0.533 0.636Q0.535 0.636 0.535 0.634Q0.533 0.634 0.533 0.632ZM0.622 0.634Q0.626 0.636 0.631 0.636V0.643H0.629Q0.621 0.643 0.621 0.639Q0.622 0.636 0.622 0.634ZM0.736 0.639H0.740Q0.746 0.643 0.751 0.643V0.652Q0.751 0.660 0.746 0.666Q0.742 0.664 0.740 0.664L0.742 0.647Q0.737 0.647 0.736 0.639ZM0.300 0.641Q0.307 0.657 0.307 0.663L0.303 0.664Q0.303 0.659 0.294 0.659L0.300 0.652Q0.294 0.648 0.289 0.648L0.285 0.650L0.283 0.647Q0.297 0.641 0.300 0.641ZM0.273 0.647 0.274 0.650 0.271 0.652 0.269 0.648ZM0.614 0.652H0.615L0.640 0.656Q0.640 0.658 0.631 0.663Q0.616 0.654 0.614 0.654ZM0.290 0.654H0.292V0.656Q0.289 0.656 0.276 0.664H0.274V0.663Q0.274 0.659 0.290 0.654ZM0.680 0.656H0.686V0.661H0.680ZM0.296 0.664V0.666Q0.290 0.674 0.280 0.677V0.675Q0.280 0.673 0.296 0.664ZM0.311 0.664V0.668Q0.311 0.671 0.292 0.687L0.294 0.690V0.692Q0.292 0.692 0.289 0.694Q0.283 0.685 0.283 0.681Q0.292 0.675 0.296 0.675Q0.296 0.677 0.298 0.677Q0.298 0.675 0.311 0.664ZM0.622 0.668H0.626V0.670H0.622ZM0.316 0.683Q0.321 0.683 0.349 0.726H0.347Q0.344 0.724 0.339 0.724Q0.339 0.726 0.338 0.726Q0.338 0.723 0.332 0.721H0.330Q0.320 0.730 0.320 0.735Q0.316 0.735 0.314 0.715Q0.311 0.715 0.300 0.712V0.708Q0.300 0.705 0.303 0.705Q0.307 0.706 0.309 0.706Q0.309 0.703 0.313 0.703Q0.313 0.705 0.314 0.705L0.316 0.701L0.313 0.699V0.701Q0.309 0.699 0.307 0.699V0.692ZM0.506 0.690H0.514L0.519 0.696L0.517 0.699Q0.528 0.711 0.528 0.715H0.526Q0.509 0.701 0.506 0.701Q0.506 0.699 0.508 0.699L0.506 0.696ZM0.300 0.694H0.301V0.697Q0.301 0.700 0.296 0.703Q0.296 0.701 0.294 0.697ZM0.552 0.694H0.555V0.696H0.552ZM0.684 0.696H0.689L0.695 0.699Q0.693 0.703 0.693 0.705H0.684ZM0.566 0.705Q0.569 0.705 0.572 0.710H0.566ZM0.439 0.715H0.443V0.721H0.439ZM0.552 0.715H0.557Q0.559 0.715 0.566 0.726L0.563 0.728H0.561Q0.558 0.728 0.552 0.717ZM0.514 0.719H0.516V0.723H0.514ZM0.418 0.721H0.421V0.723Q0.421 0.726 0.418 0.726ZM0.459 0.721H0.465V0.724Q0.461 0.723 0.459 0.723ZM0.542 0.721H0.544V0.724H0.542ZM0.349 0.726H0.352V0.730Q0.349 0.730 0.349 0.726ZM0.381 0.726V0.728Q0.379 0.732 0.379 0.734H0.378V0.728ZM0.454 0.726V0.734H0.452Q0.452 0.732 0.450 0.728ZM0.546 0.726 0.559 0.739Q0.557 0.743 0.557 0.745Q0.550 0.743 0.550 0.741L0.552 0.737L0.546 0.728ZM0.566 0.726H0.570V0.728H0.566ZM0.343 0.730Q0.343 0.732 0.345 0.732Q0.336 0.748 0.336 0.752Q0.333 0.752 0.330 0.746Q0.340 0.730 0.343 0.730ZM0.398 0.730H0.399V0.737H0.398ZM0.423 0.732H0.425V0.735H0.423ZM0.325 0.734H0.327V0.737H0.325ZM0.376 0.734H0.378V0.739H0.376ZM0.386 0.734H0.392Q0.392 0.741 0.396 0.746L0.392 0.748H0.386ZM0.356 0.735H0.358L0.349 0.762H0.345Q0.341 0.762 0.341 0.759V0.757Q0.351 0.738 0.356 0.735ZM0.325 0.737V0.741H0.322Q0.322 0.737 0.325 0.737ZM0.530 0.737Q0.550 0.745 0.550 0.748Q0.524 0.748 0.524 0.759Q0.524 0.761 0.517 0.761L0.512 0.752Q0.505 0.755 0.499 0.755V0.753L0.495 0.755H0.494V0.753Q0.494 0.751 0.508 0.741L0.516 0.743Q0.521 0.743 0.530 0.737ZM0.584 0.741 0.599 0.757V0.759L0.590 0.761L0.577 0.746ZM0.443 0.748H0.446V0.752Q0.447 0.764 0.450 0.764L0.454 0.762Q0.461 0.765 0.461 0.768V0.777Q0.467 0.777 0.467 0.788L0.463 0.786Q0.463 0.788 0.461 0.788Q0.461 0.780 0.448 0.777Q0.448 0.780 0.435 0.786H0.434V0.784Q0.439 0.769 0.439 0.768Q0.434 0.762 0.430 0.762V0.759Q0.431 0.755 0.434 0.755H0.443ZM0.372 0.752 0.376 0.753H0.378Q0.382 0.753 0.385 0.752Q0.410 0.763 0.412 0.773Q0.414 0.773 0.414 0.775V0.783Q0.403 0.773 0.398 0.773Q0.398 0.775 0.396 0.775Q0.396 0.773 0.394 0.773Q0.394 0.776 0.379 0.788Q0.379 0.784 0.378 0.781Q0.381 0.781 0.383 0.766Q0.365 0.757 0.363 0.757V0.755Q0.372 0.755 0.372 0.752ZM0.570 0.752Q0.570 0.762 0.572 0.771Q0.563 0.766 0.563 0.755ZM0.575 0.753 0.591 0.768Q0.604 0.761 0.608 0.761Q0.599 0.771 0.573 0.786Q0.566 0.784 0.559 0.784V0.783Q0.577 0.776 0.577 0.771ZM0.323 0.755H0.332V0.757Q0.330 0.764 0.327 0.764H0.325Q0.322 0.764 0.322 0.761Q0.323 0.757 0.323 0.755ZM0.296 0.761Q0.301 0.772 0.314 0.775Q0.320 0.775 0.320 0.777Q0.320 0.785 0.296 0.786Q0.287 0.770 0.287 0.766Q0.287 0.761 0.296 0.761ZM0.459 0.759H0.461Q0.461 0.762 0.458 0.762H0.456Q0.456 0.759 0.459 0.759ZM0.360 0.761Q0.363 0.761 0.363 0.764V0.768Q0.363 0.771 0.360 0.771H0.352Q0.357 0.761 0.360 0.761ZM0.555 0.761 0.565 0.775 0.552 0.779Q0.546 0.766 0.546 0.762ZM0.615 0.761Q0.619 0.761 0.619 0.764H0.615ZM0.479 0.764H0.481Q0.481 0.766 0.483 0.770Q0.481 0.773 0.481 0.777H0.479ZM0.644 0.764Q0.644 0.768 0.639 0.768H0.633V0.766ZM0.372 0.766Q0.376 0.768 0.378 0.768Q0.376 0.771 0.376 0.777Q0.373 0.777 0.371 0.771V0.770ZM0.539 0.766Q0.539 0.772 0.548 0.781L0.546 0.784Q0.555 0.793 0.555 0.795L0.542 0.799H0.541L0.530 0.770Q0.533 0.770 0.539 0.766ZM0.622 0.766H0.631V0.768H0.622ZM0.418 0.768Q0.421 0.770 0.425 0.770V0.786H0.423Q0.418 0.773 0.418 0.770ZM0.514 0.773H0.516Q0.523 0.783 0.524 0.783Q0.524 0.781 0.526 0.781L0.537 0.802H0.523Q0.514 0.779 0.514 0.773ZM0.501 0.775H0.503Q0.516 0.792 0.516 0.806Q0.512 0.808 0.508 0.808H0.505Q0.497 0.781 0.497 0.777ZM0.470 0.777H0.472V0.781H0.470ZM0.481 0.777H0.488Q0.488 0.780 0.499 0.810H0.486Q0.481 0.786 0.481 0.777ZM0.350 0.779H0.360Q0.360 0.782 0.354 0.784H0.350Q0.347 0.784 0.347 0.781ZM0.378 0.779 0.371 0.795 0.367 0.797Q0.361 0.795 0.361 0.794Q0.365 0.779 0.378 0.779ZM0.401 0.781Q0.409 0.783 0.409 0.786V0.790Q0.409 0.806 0.396 0.806V0.804Q0.399 0.781 0.401 0.781ZM0.392 0.783 0.390 0.792V0.799H0.386Q0.386 0.796 0.383 0.792Q0.383 0.789 0.392 0.783ZM0.472 0.783H0.474V0.786H0.472ZM0.448 0.784H0.452Q0.458 0.784 0.461 0.810Q0.451 0.819 0.450 0.819V0.817L0.456 0.810L0.448 0.808ZM0.418 0.788Q0.421 0.790 0.423 0.790Q0.423 0.788 0.425 0.788Q0.425 0.792 0.427 0.792Q0.425 0.804 0.423 0.804Q0.414 0.804 0.414 0.801Q0.414 0.788 0.418 0.788ZM0.439 0.790H0.441V0.792Q0.443 0.807 0.443 0.810L0.439 0.808L0.435 0.810L0.432 0.804V0.794Q0.435 0.794 0.439 0.790ZM0.474 0.790H0.476V0.794H0.474ZM0.559 0.790H0.565V0.792Q0.563 0.792 0.559 0.794ZM0.467 0.797H0.468L0.472 0.799H0.477Q0.477 0.800 0.479 0.810H0.467ZM0.445 0.820V0.822Q0.445 0.826 0.441 0.826V0.824Q0.442 0.820 0.445 0.820ZM0.441 0.826V0.828Q0.441 0.830 0.427 0.843V0.841Q0.427 0.838 0.441 0.826Z" fill="black"/>
</svg>
