<svg xmlns="http://www.w3.org/2000/svg" viewBox="0 0 1 1" preserveAspectRatio="xMidYMid meet">
  <path d="M0.428 0.091 0.489 0.171H0.454L0.393 0.091ZM0.213 0.123H0.215V0.127H0.213ZM0.209 0.127H0.213L0.211 0.131V0.132Q0.215 0.150 0.215 0.152Q0.209 0.163 0.205 0.174H0.202Q0.197 0.162 0.197 0.152Q0.198 0.152 0.198 0.150Q0.197 0.150 0.197 0.148Q0.209 0.128 0.209 0.127ZM0.224 0.203H0.256V0.304Q0.274 0.317 0.274 0.333V0.360L0.271 0.365Q0.273 0.365 0.273 0.367Q0.271 0.367 0.271 0.369H0.273L0.271 0.373V0.378L0.269 0.399H0.267Q0.267 0.397 0.262 0.387H0.258L0.256 0.396V0.468Q0.257 0.472 0.260 0.472H0.264Q0.272 0.472 0.276 0.448Q0.274 0.448 0.274 0.446H0.276L0.273 0.439Q0.274 0.439 0.274 0.437Q0.273 0.437 0.273 0.435L0.276 0.434L0.281 0.456Q0.275 0.490 0.264 0.490V0.492L0.256 0.488V0.506Q0.264 0.506 0.264 0.508Q0.290 0.500 0.290 0.481L0.292 0.473H0.290L0.292 0.470Q0.292 0.468 0.290 0.452V0.450H0.292Q0.292 0.453 0.296 0.459H0.294Q0.298 0.467 0.298 0.470Q0.296 0.488 0.292 0.497H0.294Q0.290 0.512 0.283 0.524V0.546H0.281Q0.281 0.532 0.269 0.520H0.265L0.267 0.524V0.541Q0.267 0.554 0.262 0.566H0.264Q0.258 0.574 0.258 0.577Q0.258 0.588 0.264 0.618H0.265Q0.265 0.611 0.269 0.607H0.267L0.273 0.595H0.271Q0.278 0.586 0.281 0.551H0.283V0.558Q0.283 0.569 0.280 0.578H0.281Q0.280 0.596 0.276 0.611H0.278Q0.271 0.636 0.271 0.643Q0.273 0.657 0.283 0.672Q0.298 0.669 0.298 0.660Q0.301 0.660 0.301 0.663Q0.301 0.668 0.290 0.687Q0.318 0.741 0.401 0.768L0.417 0.771V0.773Q0.410 0.773 0.410 0.777Q0.415 0.799 0.419 0.799Q0.434 0.793 0.444 0.793L0.446 0.804V0.807Q0.334 0.807 0.271 0.714Q0.262 0.717 0.254 0.717Q0.242 0.717 0.242 0.687Q0.245 0.687 0.245 0.683H0.243L0.245 0.679V0.672Q0.224 0.614 0.224 0.555V0.503Q0.197 0.475 0.193 0.461H0.195L0.193 0.458V0.439L0.205 0.416H0.204L0.209 0.403H0.207Q0.209 0.400 0.209 0.392Q0.213 0.392 0.213 0.398L0.207 0.423H0.209Q0.205 0.434 0.205 0.437Q0.207 0.445 0.217 0.445Q0.217 0.445 0.224 0.443V0.349Q0.186 0.309 0.186 0.297Q0.188 0.297 0.188 0.295H0.186L0.191 0.273Q0.190 0.273 0.190 0.271Q0.193 0.271 0.193 0.268Q0.191 0.268 0.191 0.266L0.197 0.262L0.202 0.275Q0.209 0.275 0.215 0.257H0.213L0.215 0.253V0.217H0.217Q0.217 0.221 0.218 0.224H0.217L0.220 0.231Q0.218 0.235 0.218 0.237Q0.220 0.237 0.220 0.239H0.218Q0.220 0.242 0.220 0.244Q0.220 0.265 0.211 0.295Q0.211 0.301 0.222 0.318H0.224ZM0.668 0.203H0.700V0.239L0.704 0.237H0.706Q0.706 0.241 0.719 0.246Q0.726 0.253 0.726 0.255H0.728L0.735 0.250H0.738Q0.738 0.257 0.746 0.257Q0.746 0.255 0.747 0.255V0.262Q0.759 0.266 0.759 0.268L0.757 0.271V0.277Q0.751 0.277 0.751 0.280H0.757L0.753 0.286Q0.755 0.286 0.755 0.288H0.747V0.291H0.757L0.760 0.289V0.293H0.757V0.297H0.760Q0.760 0.299 0.759 0.299L0.760 0.302V0.306L0.757 0.304H0.753V0.307L0.755 0.311Q0.747 0.311 0.738 0.325H0.735Q0.735 0.327 0.736 0.327Q0.735 0.330 0.735 0.337H0.733V0.329H0.724V0.335H0.722L0.719 0.333V0.338H0.717V0.333H0.711Q0.708 0.333 0.706 0.344H0.704Q0.704 0.337 0.700 0.337V0.344Q0.711 0.358 0.711 0.367V0.369H0.710Q0.705 0.354 0.700 0.354V0.441Q0.706 0.437 0.710 0.437Q0.700 0.445 0.700 0.446V0.456Q0.700 0.465 0.702 0.472Q0.700 0.481 0.700 0.490V0.499Q0.700 0.501 0.702 0.501L0.700 0.504V0.515H0.706Q0.708 0.515 0.708 0.513Q0.732 0.524 0.733 0.528Q0.733 0.530 0.738 0.535L0.735 0.537H0.731Q0.731 0.536 0.728 0.530H0.719V0.528H0.715L0.710 0.531H0.704L0.708 0.526V0.524H0.706Q0.703 0.524 0.700 0.530V0.539Q0.700 0.541 0.706 0.544V0.541L0.704 0.537H0.708L0.715 0.542H0.717V0.541L0.715 0.537H0.717L0.724 0.542H0.726V0.541L0.724 0.537H0.731V0.541Q0.731 0.543 0.722 0.546V0.548H0.711L0.702 0.549Q0.702 0.548 0.700 0.548V0.582Q0.700 0.633 0.670 0.694Q0.672 0.694 0.672 0.696Q0.666 0.696 0.652 0.721Q0.650 0.721 0.641 0.734H0.652V0.735H0.636L0.621 0.717V0.716Q0.628 0.716 0.646 0.705Q0.638 0.685 0.636 0.685Q0.646 0.667 0.646 0.663Q0.645 0.663 0.645 0.662Q0.657 0.662 0.668 0.567V0.504H0.666Q0.666 0.514 0.659 0.517V0.515Q0.663 0.509 0.663 0.504V0.501L0.657 0.504Q0.657 0.501 0.655 0.501Q0.659 0.492 0.659 0.486H0.655V0.490H0.652Q0.652 0.477 0.641 0.477V0.479L0.643 0.482H0.638Q0.650 0.492 0.650 0.494H0.641V0.497Q0.650 0.497 0.652 0.504H0.645V0.508Q0.655 0.509 0.655 0.513V0.515L0.653 0.519Q0.640 0.515 0.636 0.511L0.638 0.508Q0.638 0.506 0.630 0.497V0.492L0.632 0.488H0.625V0.486H0.628V0.482L0.625 0.477Q0.632 0.477 0.632 0.463H0.634L0.639 0.466Q0.643 0.466 0.643 0.456H0.645Q0.645 0.466 0.648 0.470H0.645V0.473Q0.649 0.470 0.652 0.470V0.463L0.650 0.454L0.653 0.452V0.468H0.659V0.470H0.653V0.473Q0.658 0.473 0.661 0.479Q0.661 0.482 0.664 0.482V0.488L0.666 0.497H0.668V0.486Q0.668 0.482 0.666 0.479Q0.668 0.476 0.668 0.472V0.468Q0.664 0.461 0.663 0.461Q0.664 0.458 0.664 0.454H0.666V0.463H0.668V0.452H0.666L0.668 0.448V0.439Q0.663 0.439 0.663 0.445H0.657Q0.657 0.439 0.653 0.439V0.437Q0.658 0.437 0.661 0.430L0.657 0.418H0.661Q0.661 0.422 0.666 0.435H0.668V0.421Q0.668 0.420 0.666 0.420L0.668 0.416V0.399H0.664V0.396L0.668 0.398V0.373H0.659L0.661 0.369L0.664 0.371H0.668Q0.668 0.366 0.677 0.365V0.363Q0.675 0.353 0.670 0.340Q0.666 0.340 0.657 0.344Q0.654 0.342 0.652 0.342Q0.652 0.344 0.650 0.344L0.641 0.335V0.329Q0.652 0.322 0.652 0.309V0.307H0.648Q0.649 0.304 0.652 0.304V0.306L0.664 0.300V0.302Q0.661 0.313 0.657 0.313Q0.657 0.318 0.664 0.329Q0.668 0.329 0.668 0.325H0.666Q0.668 0.325 0.668 0.307Q0.676 0.314 0.681 0.314Q0.688 0.302 0.691 0.302H0.693Q0.693 0.306 0.700 0.314Q0.712 0.310 0.715 0.304Q0.710 0.297 0.710 0.289Q0.724 0.286 0.724 0.280Q0.724 0.275 0.721 0.266L0.702 0.271Q0.702 0.252 0.699 0.252Q0.688 0.252 0.686 0.250Q0.683 0.255 0.683 0.261V0.269Q0.668 0.266 0.668 0.262V0.244L0.666 0.235L0.663 0.237V0.231H0.668ZM0.742 0.210H0.746V0.212H0.742ZM0.742 0.217H0.747V0.219H0.742ZM0.733 0.231H0.735V0.235H0.733ZM0.755 0.235H0.757Q0.757 0.242 0.760 0.242H0.764V0.244Q0.762 0.244 0.759 0.246L0.760 0.250V0.252L0.749 0.246Q0.755 0.241 0.755 0.235ZM0.728 0.237H0.729V0.241H0.728ZM0.736 0.237H0.738V0.241H0.736ZM0.749 0.239H0.751V0.242H0.749ZM0.614 0.252H0.623Q0.630 0.252 0.646 0.280H0.652L0.650 0.271H0.657V0.273H0.653V0.277Q0.659 0.277 0.663 0.284L0.675 0.288Q0.668 0.299 0.666 0.299L0.664 0.295Q0.666 0.295 0.666 0.293H0.663Q0.661 0.293 0.661 0.295L0.657 0.293Q0.656 0.293 0.648 0.302H0.646L0.648 0.299Q0.646 0.299 0.646 0.297H0.650V0.293H0.646Q0.646 0.298 0.639 0.299Q0.630 0.278 0.603 0.278Q0.578 0.276 0.578 0.268Q0.584 0.268 0.585 0.255H0.587Q0.587 0.266 0.607 0.269Q0.625 0.266 0.625 0.261Q0.622 0.253 0.614 0.253ZM0.572 0.255Q0.576 0.257 0.578 0.257V0.262Q0.575 0.262 0.572 0.257ZM0.688 0.257H0.697V0.273Q0.697 0.277 0.702 0.277Q0.708 0.275 0.717 0.275Q0.719 0.278 0.719 0.280Q0.700 0.285 0.700 0.289L0.710 0.304L0.702 0.307Q0.694 0.293 0.691 0.293Q0.681 0.302 0.681 0.307H0.677Q0.675 0.307 0.672 0.302L0.683 0.286Q0.666 0.278 0.666 0.277Q0.668 0.273 0.668 0.271L0.686 0.277L0.688 0.273ZM0.664 0.262H0.666V0.266H0.661Q0.662 0.262 0.664 0.262ZM0.764 0.266H0.771Q0.778 0.268 0.778 0.275L0.774 0.273H0.773L0.769 0.275Q0.769 0.268 0.766 0.268H0.764ZM0.643 0.282 0.645 0.291H0.648Q0.652 0.291 0.652 0.288V0.286Q0.649 0.286 0.645 0.282ZM0.771 0.280H0.773Q0.773 0.284 0.780 0.284L0.778 0.288L0.782 0.293H0.780Q0.777 0.291 0.773 0.291Q0.773 0.293 0.771 0.293Q0.771 0.289 0.764 0.289V0.288Q0.771 0.288 0.771 0.280ZM0.755 0.284H0.759V0.286H0.755ZM0.661 0.288V0.291H0.664V0.288ZM0.804 0.288Q0.807 0.291 0.814 0.291V0.293Q0.809 0.293 0.809 0.300L0.796 0.293V0.291Q0.804 0.291 0.804 0.288ZM0.619 0.295H0.623Q0.621 0.298 0.621 0.300H0.619ZM0.641 0.299H0.643V0.302H0.641ZM0.621 0.300H0.625V0.302H0.621ZM0.625 0.302H0.628L0.643 0.307V0.309Q0.634 0.309 0.634 0.316Q0.629 0.316 0.628 0.307L0.632 0.309H0.636V0.306H0.628V0.307H0.626Q0.626 0.305 0.625 0.302ZM0.655 0.306V0.309H0.659V0.306ZM0.767 0.304H0.771Q0.771 0.307 0.767 0.307ZM0.605 0.307H0.612V0.309H0.605ZM0.603 0.309H0.605L0.601 0.314V0.324Q0.608 0.332 0.608 0.333H0.605L0.596 0.327Q0.599 0.309 0.603 0.309ZM0.256 0.313V0.333H0.260Q0.260 0.325 0.262 0.322Q0.258 0.316 0.258 0.313ZM0.614 0.311H0.615V0.316L0.612 0.318H0.610Q0.614 0.314 0.614 0.311ZM0.764 0.311 0.766 0.314Q0.759 0.316 0.759 0.316Q0.759 0.314 0.764 0.311ZM0.771 0.311H0.776V0.313H0.771ZM0.634 0.322H0.638V0.327Q0.634 0.327 0.634 0.324ZM0.621 0.324Q0.625 0.324 0.625 0.327V0.331H0.621ZM0.782 0.327Q0.782 0.333 0.785 0.333V0.335Q0.782 0.335 0.782 0.337Q0.783 0.340 0.783 0.342Q0.776 0.340 0.776 0.331ZM0.608 0.340H0.612V0.342H0.608ZM0.605 0.342H0.608V0.344H0.605ZM0.619 0.344H0.625V0.347Q0.625 0.351 0.621 0.351H0.619ZM0.598 0.347H0.603Q0.601 0.349 0.601 0.361H0.600L0.598 0.352ZM0.717 0.349H0.719V0.352H0.717ZM0.668 0.354H0.670V0.361H0.668ZM0.610 0.356H0.614V0.358H0.610ZM0.721 0.356H0.722V0.360H0.721ZM0.614 0.358H0.615V0.363H0.614ZM0.632 0.360H0.636Q0.636 0.362 0.639 0.367Q0.633 0.373 0.630 0.373H0.623V0.371Q0.632 0.371 0.632 0.361ZM0.659 0.360 0.661 0.363V0.365H0.653Q0.653 0.362 0.659 0.360ZM0.722 0.360Q0.731 0.367 0.738 0.385L0.733 0.389ZM0.608 0.365H0.612V0.367H0.608ZM0.711 0.371H0.713V0.374H0.711ZM0.619 0.374H0.621V0.378H0.619ZM0.650 0.374H0.652L0.663 0.389V0.390Q0.650 0.384 0.650 0.376ZM0.641 0.376H0.643L0.641 0.380V0.399H0.639Q0.637 0.389 0.632 0.389V0.385Q0.632 0.383 0.641 0.376ZM0.760 0.385H0.762V0.389H0.760ZM0.652 0.390H0.653Q0.653 0.392 0.655 0.396L0.650 0.399L0.646 0.394Q0.652 0.394 0.652 0.390ZM0.738 0.390H0.740Q0.748 0.398 0.755 0.398H0.757V0.394H0.759Q0.766 0.408 0.766 0.412V0.418Q0.766 0.421 0.759 0.425H0.755L0.749 0.421L0.751 0.418ZM0.628 0.407H0.632V0.409H0.628ZM0.657 0.407 0.659 0.410 0.655 0.412Q0.652 0.410 0.650 0.410V0.409Q0.651 0.409 0.657 0.407ZM0.601 0.409Q0.605 0.409 0.605 0.412H0.601ZM0.623 0.410H0.625Q0.621 0.415 0.621 0.418Q0.617 0.416 0.615 0.416V0.414Q0.618 0.414 0.623 0.410ZM0.596 0.412Q0.596 0.414 0.598 0.418H0.596Q0.592 0.416 0.590 0.416V0.414Q0.592 0.414 0.596 0.412ZM0.630 0.418H0.632V0.421H0.630ZM0.605 0.421H0.607V0.423L0.600 0.425H0.598V0.423Q0.599 0.423 0.605 0.421ZM0.617 0.423 0.619 0.430Q0.607 0.426 0.607 0.423ZM0.628 0.423H0.630Q0.630 0.431 0.632 0.434H0.630Q0.626 0.434 0.626 0.430Q0.628 0.427 0.628 0.423ZM0.273 0.427H0.274V0.430H0.273ZM0.636 0.427H0.638Q0.641 0.427 0.641 0.430H0.639Q0.636 0.430 0.636 0.427ZM0.641 0.430H0.645V0.432H0.641ZM0.621 0.432V0.437L0.612 0.435V0.434Q0.618 0.434 0.621 0.432ZM0.607 0.434V0.437Q0.603 0.437 0.598 0.443H0.596V0.441Q0.596 0.438 0.607 0.434ZM0.632 0.434H0.636V0.435H0.632ZM0.579 0.437H0.583V0.439H0.579ZM0.587 0.437H0.594V0.439H0.587ZM0.607 0.437H0.610V0.439H0.607ZM0.621 0.437H0.625V0.439H0.621ZM0.625 0.439H0.628V0.441H0.625ZM0.648 0.439H0.652Q0.652 0.443 0.648 0.443ZM0.628 0.441H0.632L0.630 0.445V0.446H0.636V0.448H0.626Q0.628 0.445 0.628 0.441ZM0.289 0.443H0.290V0.446H0.289ZM0.719 0.443Q0.719 0.446 0.722 0.446H0.724L0.733 0.445Q0.744 0.463 0.744 0.466V0.468L0.728 0.448H0.717L0.708 0.450V0.446Q0.713 0.446 0.719 0.443ZM0.592 0.445H0.594V0.448H0.592ZM0.603 0.446H0.605V0.450H0.603ZM0.619 0.446H0.621V0.450H0.619ZM0.590 0.448H0.592V0.454H0.590ZM0.612 0.454H0.615Q0.615 0.458 0.612 0.458ZM0.715 0.454H0.722V0.456H0.715ZM0.589 0.456H0.590V0.461H0.589ZM0.711 0.456H0.713Q0.713 0.459 0.710 0.459Q0.711 0.475 0.713 0.479H0.710Q0.710 0.474 0.706 0.459ZM0.610 0.459H0.612V0.463H0.610ZM0.719 0.463H0.721Q0.721 0.475 0.722 0.477H0.719Q0.719 0.468 0.717 0.468Q0.719 0.465 0.719 0.463ZM0.605 0.466H0.610V0.468H0.605ZM0.615 0.468H0.617Q0.621 0.469 0.621 0.472H0.619Q0.615 0.472 0.615 0.468ZM0.638 0.470Q0.638 0.473 0.634 0.473L0.636 0.477Q0.639 0.475 0.643 0.475V0.470ZM0.659 0.470H0.661V0.473H0.659ZM0.726 0.470H0.729V0.472H0.726ZM0.735 0.470Q0.738 0.470 0.738 0.473V0.475Q0.738 0.478 0.733 0.481H0.731Q0.735 0.475 0.735 0.470ZM0.598 0.472H0.600V0.475H0.598ZM0.603 0.472 0.607 0.473 0.610 0.472 0.612 0.475Q0.610 0.475 0.610 0.477Q0.607 0.475 0.601 0.475ZM0.702 0.477Q0.713 0.490 0.731 0.490Q0.735 0.488 0.736 0.488Q0.735 0.494 0.726 0.494Q0.709 0.494 0.702 0.481ZM0.747 0.479Q0.751 0.479 0.751 0.484Q0.749 0.492 0.733 0.508H0.719Q0.710 0.503 0.710 0.501V0.499L0.719 0.501H0.726Q0.747 0.496 0.747 0.479ZM0.615 0.482H0.619Q0.619 0.486 0.615 0.486ZM0.650 0.494H0.653V0.495H0.650ZM0.619 0.501H0.621V0.506H0.619ZM0.639 0.530H0.645V0.531L0.634 0.533H0.632V0.531ZM0.713 0.549H0.715Q0.715 0.557 0.721 0.557V0.558H0.717L0.719 0.562Q0.717 0.562 0.713 0.564Q0.713 0.562 0.711 0.562V0.567H0.710Q0.710 0.563 0.706 0.558L0.708 0.555H0.704V0.553Q0.708 0.553 0.711 0.551Q0.711 0.553 0.713 0.553ZM0.305 0.580H0.309Q0.309 0.586 0.311 0.589H0.309Q0.312 0.597 0.312 0.614Q0.309 0.631 0.305 0.631Q0.305 0.629 0.303 0.625Q0.305 0.625 0.305 0.624Q0.303 0.624 0.303 0.622H0.305L0.301 0.613H0.303L0.300 0.598Q0.305 0.587 0.305 0.580ZM0.755 0.596H0.757V0.600H0.755ZM0.744 0.598H0.746V0.603H0.744ZM0.747 0.603Q0.747 0.609 0.751 0.609Q0.751 0.603 0.755 0.603V0.611H0.759L0.757 0.614Q0.759 0.616 0.767 0.616V0.618H0.757V0.622H0.760V0.625L0.757 0.624H0.753V0.627L0.747 0.624L0.746 0.631H0.744V0.622L0.740 0.624H0.738L0.742 0.618H0.736V0.614H0.742L0.735 0.605H0.736L0.742 0.609H0.746L0.744 0.605ZM0.759 0.607H0.762Q0.762 0.611 0.759 0.611ZM0.724 0.614H0.729V0.616H0.724ZM0.731 0.614H0.735V0.616H0.731ZM0.769 0.616H0.776V0.618H0.769ZM0.760 0.625H0.764V0.627H0.760ZM0.753 0.631H0.755V0.634H0.753ZM0.587 0.636H0.589Q0.589 0.649 0.592 0.658Q0.589 0.658 0.589 0.662H0.587ZM0.608 0.638H0.610V0.645L0.608 0.649H0.610Q0.607 0.662 0.603 0.662Q0.608 0.641 0.608 0.638ZM0.708 0.641H0.710V0.645H0.708ZM0.567 0.643H0.569L0.574 0.662H0.572Q0.569 0.662 0.569 0.658H0.570Q0.567 0.651 0.567 0.645ZM0.547 0.651H0.549V0.654H0.547ZM0.549 0.654H0.551V0.658H0.549ZM0.551 0.658H0.554Q0.554 0.662 0.562 0.669V0.671L0.558 0.669Q0.558 0.671 0.556 0.671Q0.551 0.662 0.551 0.658ZM0.623 0.660V0.665H0.619V0.663Q0.620 0.660 0.623 0.660ZM0.574 0.662H0.576V0.665H0.574ZM0.529 0.663Q0.543 0.676 0.547 0.676Q0.545 0.679 0.545 0.681Q0.543 0.681 0.529 0.665ZM0.576 0.665H0.578V0.669H0.576ZM0.643 0.665V0.667Q0.640 0.674 0.638 0.674H0.632V0.672Q0.636 0.672 0.643 0.665ZM0.572 0.669H0.574V0.674H0.572ZM0.600 0.671H0.601V0.674H0.600ZM0.558 0.672H0.560V0.676H0.558ZM0.563 0.672Q0.567 0.673 0.567 0.676V0.678Q0.563 0.678 0.563 0.674ZM0.592 0.674H0.594V0.678H0.592ZM0.612 0.674H0.614V0.678H0.612ZM0.567 0.678Q0.570 0.678 0.570 0.681H0.567ZM0.598 0.678H0.600V0.681H0.598ZM0.596 0.679 0.598 0.683V0.687Q0.598 0.690 0.594 0.690Q0.594 0.684 0.592 0.681ZM0.697 0.679H0.700V0.681H0.697ZM0.545 0.681Q0.548 0.681 0.551 0.687V0.688Q0.548 0.688 0.545 0.683ZM0.563 0.681H0.565V0.687H0.563ZM0.570 0.681H0.572V0.685H0.570ZM0.615 0.681H0.617V0.685H0.615ZM0.520 0.683H0.522Q0.534 0.687 0.534 0.690V0.694Q0.521 0.687 0.520 0.683ZM0.553 0.683H0.554Q0.557 0.683 0.560 0.688H0.558Q0.555 0.688 0.553 0.683ZM0.576 0.683 0.578 0.687V0.692Q0.575 0.692 0.572 0.685ZM0.585 0.683Q0.589 0.684 0.589 0.687L0.585 0.688ZM0.551 0.688H0.554V0.692Q0.551 0.692 0.551 0.688ZM0.560 0.688H0.562L0.567 0.692V0.688H0.569Q0.569 0.693 0.570 0.696H0.569Q0.560 0.692 0.560 0.688ZM0.740 0.688Q0.744 0.690 0.747 0.690V0.696Q0.747 0.699 0.742 0.701L0.738 0.694Q0.740 0.690 0.740 0.688ZM0.634 0.690Q0.634 0.694 0.639 0.703Q0.619 0.712 0.617 0.712Q0.631 0.691 0.634 0.690ZM0.540 0.692H0.543V0.694H0.540ZM0.549 0.696H0.553V0.699Q0.549 0.699 0.549 0.696ZM0.625 0.696H0.626V0.698Q0.624 0.698 0.619 0.701V0.699Q0.619 0.696 0.625 0.696ZM0.735 0.696H0.738V0.698H0.735ZM0.540 0.698H0.543V0.699H0.540ZM0.558 0.699H0.560Q0.563 0.700 0.563 0.703H0.562Q0.558 0.703 0.558 0.699ZM0.507 0.701H0.509Q0.511 0.701 0.511 0.703Q0.513 0.703 0.513 0.701Q0.525 0.705 0.534 0.705V0.707Q0.529 0.707 0.529 0.710Q0.507 0.704 0.507 0.701ZM0.545 0.701H0.547Q0.551 0.702 0.551 0.705H0.549Q0.545 0.705 0.545 0.701ZM0.536 0.707H0.542V0.709H0.536ZM0.543 0.709H0.547V0.710H0.543ZM0.556 0.709H0.560Q0.560 0.712 0.556 0.712ZM0.531 0.710H0.536V0.712H0.531ZM0.536 0.712H0.540L0.549 0.714V0.717Q0.540 0.714 0.536 0.714ZM0.661 0.714H0.681V0.716Q0.676 0.716 0.674 0.717V0.716Q0.670 0.717 0.655 0.719Q0.655 0.717 0.661 0.714ZM0.614 0.716Q0.614 0.718 0.634 0.741L0.623 0.750Q0.603 0.730 0.600 0.730Q0.600 0.728 0.614 0.716ZM0.549 0.717Q0.552 0.719 0.554 0.719V0.721H0.543V0.719Q0.549 0.719 0.549 0.717ZM0.513 0.721Q0.515 0.721 0.515 0.723L0.524 0.721H0.531V0.723H0.527V0.724H0.532V0.726H0.525L0.522 0.724V0.726L0.518 0.724Q0.516 0.724 0.516 0.726Q0.514 0.724 0.504 0.724V0.723Q0.513 0.723 0.513 0.721ZM0.534 0.724H0.536Q0.539 0.726 0.543 0.726V0.728H0.536ZM0.545 0.726H0.549V0.728H0.545ZM0.553 0.726Q0.556 0.728 0.558 0.728V0.730L0.549 0.732ZM0.646 0.728H0.650V0.730H0.646ZM0.652 0.730H0.657V0.732H0.652ZM0.543 0.732H0.547V0.734H0.543ZM0.598 0.732V0.734Q0.588 0.752 0.583 0.755Q0.572 0.751 0.572 0.748Q0.576 0.748 0.598 0.732ZM0.659 0.732 0.681 0.735V0.737H0.674V0.735L0.670 0.737Q0.666 0.735 0.664 0.735Q0.664 0.737 0.663 0.737Q0.663 0.735 0.661 0.735Q0.661 0.737 0.659 0.737ZM0.653 0.734H0.657V0.735H0.653ZM0.560 0.735V0.739Q0.557 0.739 0.553 0.743H0.551L0.553 0.739H0.549V0.737Q0.557 0.737 0.560 0.735ZM0.531 0.737 0.529 0.741Q0.531 0.741 0.531 0.743Q0.520 0.743 0.509 0.747V0.743Q0.516 0.743 0.522 0.739V0.741Q0.528 0.737 0.531 0.737ZM0.603 0.737 0.619 0.755Q0.615 0.761 0.615 0.766H0.614V0.762Q0.600 0.770 0.600 0.775Q0.598 0.775 0.598 0.773Q0.587 0.777 0.587 0.783L0.583 0.781Q0.572 0.781 0.567 0.807H0.563L0.569 0.788H0.567Q0.545 0.796 0.545 0.799L0.542 0.797Q0.511 0.807 0.473 0.807V0.792H0.475L0.500 0.799Q0.504 0.792 0.509 0.773Q0.507 0.773 0.507 0.771Q0.525 0.771 0.567 0.752Q0.567 0.755 0.587 0.762Q0.601 0.737 0.603 0.737ZM0.536 0.739H0.543V0.741H0.536ZM0.641 0.741H0.645V0.743H0.641ZM0.547 0.743H0.551Q0.551 0.747 0.547 0.747ZM0.645 0.743H0.648V0.745H0.645ZM0.636 0.745H0.638Q0.641 0.747 0.643 0.747V0.748H0.638ZM0.556 0.747H0.562V0.748Q0.562 0.751 0.556 0.754V0.752L0.558 0.748Q0.556 0.748 0.556 0.747ZM0.652 0.747H0.653Q0.672 0.755 0.672 0.757H0.670Q0.652 0.754 0.652 0.750Q0.653 0.750 0.653 0.748Q0.652 0.748 0.652 0.747ZM0.540 0.748H0.543V0.750H0.540ZM0.645 0.748H0.650V0.750H0.645ZM0.632 0.750H0.634Q0.638 0.750 0.638 0.754H0.636Q0.632 0.754 0.632 0.750ZM0.534 0.752H0.538V0.754H0.534ZM0.543 0.752H0.547V0.754H0.543ZM0.532 0.754H0.534V0.759Q0.519 0.764 0.518 0.764Q0.518 0.763 0.532 0.754ZM0.540 0.754H0.543V0.755H0.540ZM0.628 0.755H0.632V0.757H0.628ZM0.623 0.757H0.626V0.761Q0.623 0.761 0.623 0.757ZM0.632 0.757H0.636V0.759H0.632ZM0.645 0.761H0.646Q0.664 0.774 0.664 0.777H0.663Q0.646 0.769 0.645 0.764Q0.646 0.764 0.646 0.762Q0.645 0.762 0.645 0.761ZM0.515 0.764H0.518V0.766H0.515ZM0.628 0.764Q0.632 0.765 0.632 0.768H0.628ZM0.610 0.770H0.612V0.773H0.610ZM0.617 0.771H0.619V0.775H0.617ZM0.634 0.771H0.636Q0.636 0.774 0.646 0.790V0.792L0.632 0.779Q0.634 0.776 0.634 0.771ZM0.430 0.773Q0.457 0.775 0.468 0.775Q0.490 0.773 0.491 0.773Q0.502 0.776 0.502 0.779Q0.498 0.790 0.498 0.792Q0.493 0.792 0.470 0.784L0.468 0.788V0.807H0.451V0.806Q0.450 0.784 0.446 0.784Q0.443 0.784 0.421 0.793Q0.421 0.789 0.415 0.779ZM0.605 0.777H0.607V0.781H0.605ZM0.614 0.777H0.615V0.781H0.614ZM0.619 0.777H0.621V0.781H0.619ZM0.590 0.779H0.592V0.784H0.590ZM0.600 0.779H0.601V0.783H0.600ZM0.585 0.784H0.587Q0.587 0.792 0.590 0.792L0.589 0.802H0.585Q0.585 0.800 0.587 0.800L0.585 0.797ZM0.623 0.784Q0.623 0.787 0.626 0.793L0.623 0.795Q0.623 0.792 0.619 0.788Q0.620 0.784 0.623 0.784ZM0.603 0.790H0.607Q0.607 0.793 0.608 0.793Q0.607 0.796 0.607 0.802H0.605ZM0.625 0.795H0.626V0.799H0.625ZM0.607 0.802H0.608V0.811H0.607Z" fill="black"/>
</svg>
