<svg xmlns="http://www.w3.org/2000/svg" viewBox="0 0 1 1" preserveAspectRatio="xMidYMid meet">
  <path d="M0.436 0.148H0.440Q0.440 0.152 0.436 0.152ZM0.447 0.154Q0.447 0.156 0.436 0.161V0.159Q0.438 0.154 0.447 0.154ZM0.349 0.170Q0.349 0.173 0.353 0.173Q0.351 0.177 0.351 0.181Q0.347 0.177 0.342 0.177Q0.343 0.171 0.349 0.170ZM0.393 0.173H0.395L0.397 0.184H0.409L0.416 0.179H0.420L0.416 0.184V0.188L0.420 0.186V0.190Q0.423 0.188 0.425 0.188V0.182H0.422V0.181Q0.422 0.177 0.425 0.177V0.181Q0.429 0.181 0.429 0.175H0.431V0.179H0.433L0.436 0.177V0.179L0.422 0.197V0.199H0.424L0.431 0.193L0.434 0.195Q0.434 0.190 0.440 0.188V0.186H0.442Q0.442 0.190 0.446 0.190L0.438 0.197Q0.440 0.201 0.440 0.203H0.442Q0.444 0.203 0.444 0.201Q0.446 0.201 0.446 0.203L0.457 0.201Q0.585 0.201 0.609 0.222Q0.617 0.222 0.651 0.259V0.263Q0.645 0.263 0.627 0.279Q0.579 0.235 0.518 0.235H0.489Q0.485 0.236 0.485 0.239V0.241L0.489 0.246H0.485L0.482 0.244Q0.480 0.248 0.480 0.250H0.478Q0.478 0.242 0.467 0.242V0.241L0.476 0.237V0.235H0.475Q0.465 0.237 0.458 0.237Q0.458 0.241 0.457 0.241L0.447 0.239V0.244H0.462V0.246H0.458V0.250H0.467V0.252Q0.462 0.252 0.462 0.261L0.453 0.259V0.268Q0.450 0.268 0.442 0.279Q0.438 0.286 0.433 0.286L0.431 0.295H0.429Q0.429 0.289 0.425 0.289H0.422Q0.418 0.289 0.418 0.297L0.409 0.295H0.400V0.302Q0.397 0.302 0.384 0.297L0.382 0.301Q0.404 0.323 0.404 0.340V0.342H0.402Q0.402 0.330 0.384 0.315H0.380Q0.380 0.317 0.382 0.321L0.380 0.330H0.378Q0.378 0.310 0.365 0.310H0.358Q0.358 0.315 0.355 0.315H0.349V0.310H0.344Q0.340 0.310 0.337 0.330H0.340V0.340L0.351 0.342V0.344H0.346Q0.342 0.344 0.335 0.340L0.333 0.351Q0.342 0.357 0.342 0.364H0.340L0.337 0.362V0.368H0.340Q0.340 0.373 0.335 0.373V0.375Q0.335 0.403 0.367 0.432Q0.367 0.427 0.373 0.422L0.376 0.424H0.378V0.421H0.386V0.430H0.387Q0.394 0.424 0.400 0.424Q0.385 0.437 0.384 0.444L0.397 0.451Q0.400 0.444 0.406 0.444H0.416V0.446Q0.402 0.446 0.402 0.450V0.455L0.411 0.457Q0.411 0.455 0.413 0.455Q0.413 0.462 0.431 0.462V0.460H0.433Q0.434 0.476 0.562 0.484Q0.554 0.514 0.554 0.518Q0.480 0.512 0.480 0.506Q0.480 0.504 0.475 0.501H0.469L0.466 0.502Q0.466 0.493 0.451 0.482H0.444L0.440 0.484Q0.444 0.491 0.444 0.504L0.440 0.502H0.438L0.431 0.508H0.429Q0.429 0.501 0.433 0.484L0.429 0.482H0.427Q0.413 0.484 0.413 0.493Q0.408 0.493 0.378 0.479Q0.378 0.481 0.376 0.481Q0.374 0.477 0.374 0.475H0.369V0.479Q0.390 0.493 0.391 0.501H0.384Q0.365 0.488 0.358 0.468Q0.360 0.468 0.360 0.466Q0.356 0.466 0.333 0.444Q0.331 0.447 0.331 0.453H0.329L0.327 0.444L0.331 0.442Q0.324 0.432 0.324 0.430L0.320 0.432H0.318Q0.320 0.428 0.320 0.426Q0.315 0.414 0.309 0.411L0.311 0.408Q0.311 0.399 0.305 0.399Q0.305 0.397 0.307 0.397Q0.305 0.381 0.302 0.381Q0.302 0.379 0.304 0.379L0.302 0.357Q0.302 0.355 0.304 0.342Q0.293 0.345 0.293 0.348L0.295 0.351H0.293Q0.289 0.351 0.289 0.348Q0.289 0.344 0.304 0.339Q0.310 0.305 0.314 0.299Q0.309 0.290 0.302 0.266H0.311V0.263Q0.310 0.263 0.300 0.261Q0.300 0.263 0.298 0.263Q0.298 0.260 0.289 0.255Q0.291 0.252 0.291 0.250H0.293Q0.293 0.259 0.309 0.259L0.314 0.266Q0.312 0.266 0.307 0.273V0.275Q0.314 0.284 0.314 0.286H0.316Q0.327 0.275 0.327 0.264Q0.325 0.264 0.324 0.255Q0.325 0.255 0.325 0.253L0.320 0.250H0.318V0.255Q0.315 0.255 0.297 0.231Q0.235 0.231 0.235 0.205Q0.233 0.205 0.233 0.201H0.235Q0.238 0.203 0.242 0.203V0.199Q0.242 0.192 0.235 0.182V0.181Q0.239 0.181 0.256 0.213Q0.270 0.217 0.275 0.217Q0.295 0.217 0.295 0.206Q0.295 0.198 0.284 0.197V0.195H0.295Q0.306 0.202 0.320 0.224Q0.320 0.226 0.324 0.226L0.322 0.230H0.329Q0.329 0.227 0.325 0.219Q0.333 0.221 0.338 0.221V0.222H0.331V0.224L0.342 0.233H0.349V0.228H0.346V0.224H0.349V0.217Q0.349 0.213 0.342 0.213Q0.342 0.210 0.348 0.210H0.353V0.208L0.356 0.210H0.360Q0.360 0.208 0.358 0.208L0.362 0.199L0.365 0.201H0.367V0.199Q0.367 0.197 0.365 0.197Q0.367 0.193 0.367 0.192H0.376Q0.376 0.188 0.386 0.184Q0.386 0.180 0.393 0.179ZM0.457 0.177H0.458Q0.458 0.184 0.467 0.184Q0.467 0.188 0.462 0.188V0.192L0.464 0.195H0.462Q0.458 0.193 0.455 0.193Q0.455 0.195 0.453 0.195Q0.453 0.186 0.447 0.186Q0.449 0.182 0.449 0.181H0.453L0.451 0.184H0.457ZM0.509 0.193H0.511V0.201H0.509ZM0.340 0.222H0.346V0.224H0.340ZM0.318 0.233Q0.320 0.244 0.324 0.244H0.325Q0.329 0.244 0.329 0.241V0.237Q0.325 0.237 0.325 0.233ZM0.340 0.241V0.244H0.346V0.241ZM0.517 0.241Q0.521 0.246 0.527 0.246V0.248Q0.522 0.248 0.522 0.252Q0.524 0.255 0.524 0.257L0.518 0.253L0.513 0.257V0.255Q0.515 0.252 0.515 0.248H0.509V0.246Q0.517 0.246 0.517 0.241ZM0.324 0.246V0.250H0.327V0.246ZM0.327 0.259 0.331 0.261H0.335Q0.335 0.259 0.344 0.246H0.342L0.338 0.248V0.246Q0.327 0.250 0.327 0.259ZM0.476 0.259V0.261Q0.475 0.264 0.475 0.266Q0.478 0.268 0.480 0.268Q0.473 0.274 0.473 0.281H0.471Q0.471 0.273 0.466 0.273Q0.462 0.275 0.460 0.275Q0.460 0.272 0.466 0.272V0.266L0.464 0.263H0.466Q0.469 0.264 0.473 0.264Q0.473 0.259 0.476 0.259ZM0.273 0.264H0.280V0.266H0.273ZM0.656 0.264V0.272Q0.653 0.272 0.633 0.289Q0.631 0.283 0.631 0.282Q0.640 0.273 0.656 0.264ZM0.280 0.266H0.284V0.268H0.280ZM0.269 0.268 0.267 0.277V0.279Q0.267 0.286 0.277 0.295H0.275Q0.270 0.295 0.262 0.289Q0.264 0.268 0.269 0.268ZM0.284 0.268H0.286V0.275Q0.282 0.277 0.280 0.277H0.278V0.275Q0.284 0.275 0.284 0.268ZM0.663 0.277Q0.671 0.288 0.671 0.291Q0.653 0.328 0.653 0.335Q0.651 0.335 0.642 0.302Q0.640 0.302 0.636 0.293Q0.652 0.277 0.663 0.277ZM0.356 0.284Q0.356 0.282 0.355 0.282Q0.358 0.289 0.358 0.291Q0.355 0.292 0.355 0.295V0.299H0.356Q0.357 0.299 0.364 0.297Q0.367 0.299 0.371 0.299V0.295H0.367V0.293H0.371V0.288Q0.367 0.288 0.367 0.281Q0.364 0.281 0.356 0.284ZM0.291 0.284H0.293Q0.297 0.285 0.297 0.288V0.289Q0.293 0.294 0.293 0.297H0.291Q0.291 0.294 0.288 0.289V0.288Q0.288 0.284 0.291 0.284ZM0.460 0.288H0.462V0.291H0.460ZM0.485 0.289H0.489Q0.489 0.295 0.494 0.295H0.496V0.297Q0.491 0.297 0.491 0.302V0.306Q0.482 0.302 0.478 0.293Q0.485 0.293 0.485 0.289ZM0.277 0.295H0.280V0.297H0.277ZM0.673 0.299H0.676L0.658 0.355Q0.660 0.355 0.660 0.357H0.653V0.355Q0.653 0.344 0.673 0.299ZM0.278 0.304H0.280V0.306Q0.271 0.306 0.267 0.323V0.328Q0.267 0.333 0.275 0.333V0.335H0.269Q0.264 0.329 0.262 0.312Q0.272 0.304 0.278 0.304ZM0.291 0.304H0.293Q0.293 0.307 0.297 0.312V0.315H0.291Q0.288 0.315 0.288 0.312Q0.291 0.307 0.291 0.304ZM0.676 0.313H0.680V0.315Q0.677 0.323 0.675 0.323V0.321Q0.676 0.317 0.676 0.313ZM0.278 0.324H0.286V0.332H0.284Q0.284 0.326 0.278 0.326ZM0.362 0.324H0.365Q0.362 0.329 0.362 0.333H0.360Q0.360 0.329 0.358 0.326ZM0.415 0.324H0.416V0.328H0.415ZM0.682 0.326V0.332Q0.673 0.356 0.673 0.357H0.662Q0.679 0.327 0.682 0.326ZM0.416 0.328Q0.429 0.342 0.444 0.372L0.457 0.375Q0.464 0.367 0.464 0.361H0.466L0.471 0.391Q0.468 0.408 0.458 0.408Q0.444 0.408 0.416 0.328ZM0.278 0.333H0.282V0.335H0.278ZM0.362 0.333H0.365V0.335H0.362ZM0.371 0.333H0.374V0.335H0.371ZM0.434 0.335H0.436V0.339H0.434ZM0.351 0.344H0.355Q0.355 0.346 0.356 0.349Q0.353 0.351 0.351 0.351H0.349V0.349H0.353V0.348ZM0.451 0.344H0.453V0.348H0.451ZM0.678 0.353H0.680V0.357H0.678ZM0.275 0.373V0.377H0.271Q0.272 0.373 0.275 0.373ZM0.346 0.373Q0.349 0.374 0.349 0.377H0.346ZM0.267 0.377H0.271V0.379H0.267ZM0.277 0.377H0.280V0.379H0.277ZM0.282 0.377H0.286V0.379H0.282ZM0.300 0.386H0.304V0.388H0.300ZM0.269 0.390H0.273Q0.273 0.393 0.269 0.393ZM0.291 0.390Q0.295 0.390 0.295 0.393L0.289 0.397V0.395Q0.291 0.392 0.291 0.390ZM0.258 0.393H0.260Q0.260 0.395 0.262 0.399H0.260Q0.256 0.397 0.254 0.397Q0.255 0.393 0.258 0.393ZM0.249 0.397H0.253V0.399H0.249ZM0.302 0.399H0.305V0.400H0.302ZM0.267 0.402H0.269V0.408H0.262V0.406Q0.267 0.406 0.267 0.402ZM0.289 0.402 0.288 0.406Q0.289 0.409 0.289 0.413H0.288Q0.273 0.409 0.273 0.404Q0.282 0.404 0.289 0.402ZM0.760 0.404V0.406Q0.751 0.417 0.751 0.421H0.749Q0.749 0.417 0.747 0.413Q0.750 0.413 0.760 0.404ZM0.356 0.408H0.365V0.410H0.356ZM0.300 0.410H0.302V0.417H0.298Q0.300 0.414 0.300 0.410ZM0.289 0.415H0.291Q0.291 0.424 0.298 0.424V0.426H0.295Q0.287 0.421 0.282 0.421V0.419Q0.289 0.419 0.289 0.415ZM0.302 0.417H0.305V0.419H0.302ZM0.273 0.419V0.421Q0.273 0.423 0.264 0.430H0.260Q0.265 0.422 0.273 0.419ZM0.313 0.421H0.316V0.422H0.313ZM0.242 0.422H0.246V0.426Q0.242 0.426 0.242 0.422ZM0.400 0.422H0.404V0.424H0.400ZM0.747 0.422V0.424Q0.740 0.439 0.738 0.439L0.729 0.437V0.439Q0.726 0.437 0.720 0.437V0.435H0.731V0.432H0.733V0.435H0.738Q0.743 0.422 0.747 0.422ZM0.249 0.424H0.256V0.426H0.249ZM0.376 0.426Q0.376 0.430 0.371 0.430V0.434L0.380 0.435L0.384 0.430V0.428Q0.380 0.428 0.376 0.426ZM0.298 0.426H0.300Q0.305 0.434 0.307 0.434V0.435H0.300Q0.300 0.429 0.298 0.426ZM0.282 0.430H0.284V0.434H0.282ZM0.416 0.430Q0.431 0.430 0.434 0.444Q0.438 0.444 0.444 0.455Q0.442 0.458 0.442 0.460H0.440Q0.431 0.435 0.411 0.435L0.398 0.439V0.435ZM0.262 0.435H0.264V0.441H0.262ZM0.254 0.437H0.256V0.441H0.254ZM0.271 0.437H0.273V0.441H0.271ZM0.714 0.437H0.720V0.439H0.714ZM0.749 0.437V0.441H0.746Q0.746 0.437 0.749 0.437ZM0.711 0.439H0.714V0.441H0.711ZM0.273 0.441Q0.277 0.442 0.278 0.442V0.444H0.273ZM0.280 0.444H0.284Q0.282 0.448 0.282 0.450H0.280ZM0.307 0.444Q0.310 0.444 0.313 0.450H0.311Q0.307 0.450 0.307 0.446ZM0.722 0.444H0.723V0.448H0.722ZM0.253 0.446H0.254V0.451H0.253ZM0.320 0.446H0.322V0.451Q0.320 0.455 0.320 0.459Q0.323 0.459 0.327 0.462H0.331V0.459Q0.335 0.460 0.337 0.460V0.462H0.333V0.468Q0.342 0.468 0.349 0.502Q0.345 0.518 0.340 0.518V0.517Q0.344 0.510 0.344 0.502V0.501H0.342L0.337 0.504Q0.337 0.502 0.335 0.499Q0.338 0.492 0.338 0.484H0.333V0.490H0.331Q0.330 0.471 0.316 0.471V0.475L0.318 0.479H0.316L0.313 0.477V0.482Q0.322 0.482 0.327 0.492H0.316V0.493Q0.329 0.501 0.329 0.504H0.320V0.510Q0.337 0.510 0.337 0.520H0.331Q0.320 0.520 0.309 0.513Q0.311 0.510 0.311 0.508Q0.311 0.507 0.302 0.493Q0.304 0.491 0.304 0.484Q0.302 0.484 0.300 0.479H0.302Q0.302 0.473 0.295 0.473V0.471H0.304V0.462Q0.307 0.462 0.307 0.453Q0.311 0.453 0.311 0.459H0.316ZM0.702 0.448H0.704V0.451H0.702ZM0.278 0.451H0.280V0.457H0.278ZM0.298 0.451H0.300V0.457H0.298ZM0.700 0.451H0.702V0.455H0.700ZM0.698 0.455H0.700V0.460H0.698ZM0.716 0.455H0.718V0.459H0.716ZM0.271 0.459H0.278V0.460H0.271ZM0.286 0.459Q0.289 0.459 0.293 0.466H0.291Q0.289 0.466 0.286 0.460ZM0.307 0.468Q0.308 0.471 0.311 0.471Q0.314 0.470 0.318 0.470V0.462H0.314Q0.310 0.468 0.307 0.468ZM0.320 0.466V0.468H0.324V0.462Q0.320 0.463 0.320 0.466ZM0.696 0.460H0.698V0.479H0.695ZM0.714 0.460H0.716V0.464H0.714ZM0.337 0.462H0.344Q0.344 0.466 0.340 0.466Q0.337 0.466 0.337 0.462ZM0.280 0.464V0.468Q0.280 0.471 0.277 0.471Q0.277 0.470 0.275 0.466Q0.277 0.466 0.280 0.464ZM0.725 0.464H0.727V0.468H0.725ZM0.712 0.466H0.714V0.470L0.720 0.466V0.468Q0.712 0.481 0.712 0.488H0.711V0.481Q0.712 0.468 0.712 0.466ZM0.267 0.468H0.275V0.470H0.267ZM0.723 0.468H0.725V0.471H0.723ZM0.731 0.470H0.733V0.473H0.731ZM0.348 0.471H0.349V0.477H0.348ZM0.722 0.473H0.723V0.477H0.722ZM0.729 0.475H0.731V0.479H0.729ZM0.267 0.477H0.271V0.479H0.267ZM0.720 0.479H0.722V0.482H0.720ZM0.727 0.481H0.729V0.484H0.727ZM0.282 0.482H0.286Q0.286 0.486 0.282 0.486ZM0.718 0.482H0.720V0.488H0.718ZM0.567 0.486Q0.571 0.488 0.573 0.488L0.571 0.510V0.522L0.560 0.520Q0.564 0.497 0.567 0.486ZM0.693 0.486H0.695Q0.695 0.499 0.696 0.499H0.698V0.501Q0.695 0.501 0.695 0.502V0.515H0.693Q0.693 0.504 0.691 0.504Q0.693 0.504 0.693 0.486ZM0.725 0.486H0.727V0.490H0.725ZM0.425 0.488V0.495L0.424 0.499Q0.421 0.497 0.416 0.497Q0.416 0.492 0.425 0.488ZM0.447 0.488H0.449Q0.458 0.493 0.462 0.506H0.451ZM0.716 0.488H0.718V0.493H0.716ZM0.297 0.490H0.300Q0.298 0.493 0.298 0.495H0.297ZM0.578 0.490Q0.585 0.493 0.591 0.493V0.530Q0.577 0.526 0.577 0.522V0.508ZM0.327 0.492H0.331V0.493H0.327ZM0.723 0.492H0.725V0.495H0.723ZM0.289 0.493H0.291V0.504H0.289ZM0.714 0.493H0.716V0.499Q0.711 0.511 0.704 0.544H0.702V0.528Q0.707 0.528 0.714 0.493ZM0.596 0.497H0.598Q0.603 0.497 0.603 0.535V0.537Q0.596 0.534 0.596 0.531ZM0.722 0.497H0.723V0.501H0.722ZM0.400 0.499H0.404V0.501H0.400ZM0.424 0.501V0.508L0.415 0.510L0.411 0.508Q0.411 0.503 0.424 0.501ZM0.607 0.502H0.609V0.513H0.607ZM0.698 0.502H0.700V0.510H0.698ZM0.720 0.504H0.722V0.508H0.720ZM0.469 0.506H0.475L0.476 0.510H0.475Q0.471 0.508 0.469 0.508ZM0.614 0.506Q0.620 0.508 0.620 0.510Q0.620 0.530 0.626 0.530Q0.629 0.530 0.633 0.515H0.635Q0.635 0.519 0.638 0.522Q0.638 0.529 0.629 0.559H0.627Q0.622 0.550 0.618 0.550Q0.618 0.540 0.614 0.506ZM0.686 0.508H0.687V0.511H0.686ZM0.356 0.510H0.358V0.513H0.356ZM0.684 0.511H0.686V0.518H0.684ZM0.609 0.513H0.611Q0.611 0.532 0.613 0.542H0.609ZM0.626 0.513H0.627V0.517H0.626ZM0.355 0.515H0.356V0.518H0.355ZM0.384 0.517Q0.395 0.520 0.395 0.522H0.393L0.389 0.520Q0.387 0.520 0.376 0.531Q0.373 0.533 0.369 0.533H0.364V0.531Q0.370 0.517 0.384 0.517ZM0.398 0.517H0.400Q0.412 0.524 0.422 0.524V0.535Q0.412 0.539 0.411 0.539H0.409V0.537H0.413V0.533H0.407L0.402 0.537H0.397L0.404 0.528ZM0.700 0.517H0.702V0.528H0.700ZM0.645 0.518Q0.653 0.520 0.653 0.522L0.649 0.530H0.654V0.531L0.651 0.537Q0.653 0.537 0.658 0.546Q0.662 0.544 0.663 0.544V0.542L0.662 0.539H0.665V0.546Q0.663 0.546 0.660 0.548L0.676 0.578H0.675Q0.676 0.582 0.676 0.584H0.678V0.578L0.676 0.575Q0.681 0.575 0.682 0.566H0.686V0.559H0.682V0.553L0.686 0.555V0.548H0.687V0.564H0.691V0.559H0.693V0.564Q0.687 0.578 0.682 0.584L0.689 0.591L0.686 0.608H0.684V0.602H0.682V0.608Q0.684 0.608 0.684 0.610H0.682L0.684 0.613V0.619Q0.684 0.640 0.693 0.648Q0.689 0.652 0.689 0.655H0.687L0.684 0.653Q0.684 0.663 0.680 0.682L0.687 0.677L0.695 0.686L0.687 0.691L0.680 0.686H0.678Q0.675 0.701 0.675 0.702Q0.676 0.702 0.676 0.704Q0.673 0.706 0.653 0.739Q0.616 0.779 0.580 0.793Q0.577 0.795 0.573 0.795Q0.573 0.789 0.560 0.775Q0.568 0.773 0.580 0.759Q0.598 0.751 0.622 0.724H0.620Q0.620 0.727 0.614 0.730Q0.612 0.730 0.607 0.722Q0.611 0.722 0.613 0.708L0.616 0.706H0.622Q0.627 0.708 0.627 0.717H0.629L0.631 0.710Q0.626 0.704 0.624 0.704Q0.624 0.700 0.629 0.700V0.697Q0.625 0.697 0.622 0.699Q0.613 0.696 0.613 0.688Q0.614 0.680 0.624 0.680Q0.631 0.682 0.631 0.689Q0.629 0.693 0.629 0.695L0.638 0.702Q0.644 0.689 0.644 0.686Q0.642 0.686 0.642 0.684Q0.651 0.684 0.651 0.655L0.649 0.648Q0.651 0.645 0.651 0.640H0.647L0.645 0.648H0.644Q0.644 0.637 0.635 0.633V0.648H0.633Q0.631 0.641 0.631 0.640L0.618 0.651H0.614Q0.614 0.642 0.609 0.637V0.635Q0.610 0.635 0.616 0.633Q0.616 0.636 0.624 0.640H0.627V0.633H0.624V0.631Q0.633 0.622 0.633 0.619H0.635V0.626H0.638Q0.638 0.620 0.645 0.620L0.653 0.624V0.622Q0.653 0.620 0.645 0.610L0.651 0.606Q0.649 0.603 0.649 0.599L0.645 0.601H0.644Q0.637 0.601 0.633 0.595Q0.635 0.582 0.644 0.582Q0.638 0.568 0.633 0.568ZM0.682 0.518H0.684V0.528H0.682ZM0.337 0.520H0.338V0.524H0.337ZM0.695 0.520H0.696V0.544Q0.695 0.554 0.695 0.559H0.693V0.557Q0.695 0.544 0.695 0.520ZM0.353 0.522H0.355V0.535H0.353ZM0.387 0.526Q0.395 0.529 0.395 0.531L0.387 0.535ZM0.305 0.537H0.322V0.539Q0.307 0.539 0.305 0.541ZM0.429 0.537H0.431Q0.435 0.541 0.438 0.541V0.542L0.429 0.544ZM0.680 0.537H0.682Q0.682 0.553 0.680 0.553H0.673V0.552H0.680ZM0.364 0.541H0.365Q0.376 0.550 0.378 0.550V0.546L0.376 0.542H0.382Q0.384 0.542 0.397 0.557Q0.395 0.557 0.395 0.559Q0.397 0.559 0.397 0.561H0.395L0.380 0.552Q0.377 0.553 0.373 0.553L0.364 0.542ZM0.395 0.544H0.397Q0.398 0.544 0.407 0.552H0.411V0.550L0.409 0.546H0.411Q0.417 0.552 0.422 0.552V0.553H0.415L0.416 0.557L0.406 0.559L0.395 0.546ZM0.418 0.544H0.424V0.552H0.422Q0.422 0.549 0.418 0.544ZM0.598 0.552H0.603V0.553H0.598ZM0.669 0.555H0.671Q0.671 0.558 0.675 0.562H0.673Q0.669 0.562 0.669 0.557ZM0.360 0.562Q0.365 0.562 0.369 0.578Q0.372 0.578 0.376 0.586H0.374Q0.360 0.576 0.360 0.562ZM0.611 0.568H0.613L0.614 0.577V0.578H0.613L0.611 0.571ZM0.589 0.569H0.591V0.573H0.589ZM0.596 0.573Q0.600 0.575 0.602 0.575V0.577H0.596ZM0.613 0.584H0.614Q0.614 0.587 0.618 0.591Q0.618 0.595 0.614 0.595Q0.611 0.595 0.611 0.590Q0.613 0.586 0.613 0.584ZM0.594 0.586H0.602V0.588Q0.596 0.588 0.596 0.593H0.594ZM0.376 0.591H0.378Q0.389 0.595 0.389 0.599L0.386 0.601Q0.383 0.601 0.376 0.591ZM0.593 0.602H0.594V0.608H0.593ZM0.607 0.602H0.609V0.608H0.607ZM0.627 0.604Q0.627 0.607 0.633 0.610Q0.633 0.616 0.614 0.619V0.620L0.616 0.624H0.613V0.619Q0.613 0.616 0.624 0.613Q0.624 0.612 0.626 0.612L0.624 0.608Q0.624 0.604 0.627 0.604ZM0.594 0.608H0.598V0.610H0.594ZM0.635 0.615H0.636V0.619H0.635ZM0.651 0.635V0.639H0.653V0.635ZM0.302 0.637H0.305Q0.306 0.653 0.337 0.675H0.333Q0.304 0.675 0.304 0.657Q0.302 0.644 0.302 0.637ZM0.311 0.637H0.329V0.640Q0.329 0.648 0.333 0.664H0.331Q0.323 0.664 0.311 0.637ZM0.705 0.659 0.712 0.668Q0.707 0.668 0.707 0.673H0.705Q0.702 0.673 0.698 0.666Q0.698 0.663 0.705 0.659ZM0.740 0.659Q0.742 0.659 0.749 0.668L0.742 0.673Q0.739 0.673 0.735 0.666Q0.740 0.662 0.740 0.659ZM0.620 0.661H0.622Q0.625 0.661 0.627 0.666V0.671Q0.627 0.674 0.618 0.679Q0.609 0.675 0.609 0.668Q0.611 0.661 0.620 0.661ZM0.307 0.675Q0.337 0.681 0.342 0.684V0.686L0.311 0.691Q0.307 0.685 0.307 0.677ZM0.723 0.679Q0.726 0.679 0.731 0.686L0.723 0.691Q0.721 0.691 0.716 0.684ZM0.760 0.679Q0.763 0.679 0.767 0.686L0.760 0.691Q0.757 0.691 0.753 0.684ZM0.340 0.691H0.346V0.693H0.340ZM0.337 0.693H0.340V0.695Q0.334 0.695 0.316 0.708Q0.314 0.702 0.314 0.697Q0.329 0.693 0.337 0.693ZM0.704 0.697H0.705Q0.708 0.697 0.712 0.704L0.704 0.711L0.698 0.704V0.702Q0.698 0.699 0.704 0.697ZM0.742 0.697Q0.745 0.697 0.749 0.704L0.742 0.710Q0.739 0.710 0.735 0.702ZM0.346 0.699Q0.349 0.699 0.349 0.702Q0.346 0.710 0.346 0.713Q0.353 0.731 0.367 0.731Q0.367 0.738 0.389 0.753L0.387 0.762V0.768Q0.374 0.768 0.371 0.773Q0.355 0.760 0.353 0.760L0.355 0.757V0.749Q0.355 0.735 0.329 0.731Q0.320 0.714 0.320 0.711Q0.338 0.699 0.346 0.699ZM0.351 0.710Q0.355 0.710 0.358 0.722Q0.353 0.722 0.351 0.710ZM0.687 0.715Q0.687 0.721 0.695 0.721Q0.695 0.723 0.686 0.730L0.680 0.722Q0.680 0.720 0.687 0.715ZM0.723 0.715Q0.726 0.715 0.731 0.722L0.722 0.730Q0.722 0.726 0.716 0.721ZM0.705 0.733Q0.705 0.739 0.712 0.739Q0.712 0.741 0.704 0.747L0.698 0.740Q0.698 0.737 0.705 0.733ZM0.338 0.740Q0.349 0.742 0.349 0.746V0.753Q0.347 0.753 0.338 0.742ZM0.395 0.757Q0.396 0.757 0.420 0.770H0.429Q0.427 0.795 0.427 0.800H0.425L0.418 0.798V0.797Q0.427 0.787 0.427 0.775Q0.427 0.771 0.424 0.771H0.418Q0.406 0.788 0.391 0.788Q0.391 0.783 0.382 0.782V0.781Q0.393 0.781 0.393 0.775L0.391 0.771L0.395 0.770L0.393 0.760ZM0.558 0.768H0.562V0.770H0.558ZM0.551 0.770H0.556V0.771H0.551ZM0.434 0.771Q0.438 0.773 0.440 0.773V0.788L0.442 0.797Q0.439 0.797 0.433 0.800V0.798Q0.434 0.776 0.434 0.771ZM0.545 0.771H0.551Q0.551 0.775 0.547 0.775H0.545ZM0.446 0.775H0.447Q0.447 0.802 0.467 0.802L0.475 0.809H0.473Q0.455 0.807 0.440 0.804V0.802Q0.443 0.802 0.447 0.798Q0.447 0.797 0.446 0.784ZM0.418 0.777H0.422V0.779Q0.420 0.782 0.420 0.784L0.416 0.782Q0.418 0.779 0.418 0.777ZM0.462 0.777H0.464Q0.515 0.782 0.515 0.793Q0.517 0.796 0.517 0.802Q0.514 0.809 0.511 0.809H0.506Q0.502 0.809 0.502 0.806L0.507 0.798V0.797Q0.507 0.790 0.471 0.786Q0.462 0.779 0.462 0.777ZM0.542 0.779Q0.564 0.783 0.564 0.800Q0.536 0.807 0.520 0.809L0.522 0.800Q0.522 0.799 0.520 0.786Q0.530 0.779 0.542 0.779ZM0.409 0.788H0.411L0.413 0.795H0.411L0.404 0.793Q0.404 0.791 0.409 0.788ZM0.476 0.793H0.489V0.795H0.476ZM0.496 0.802Q0.496 0.808 0.498 0.811H0.489Q0.480 0.811 0.478 0.806V0.804H0.493Z" fill="black"/>
</svg>
