<svg xmlns="http://www.w3.org/2000/svg" viewBox="0 0 1 1" preserveAspectRatio="xMidYMid meet">
  <path d="M0.817 1.074H0.183V-0.148H0.817ZM0.546 0.207Q0.541 0.208 0.543 0.213Q0.545 0.219 0.539 0.219Q0.537 0.219 0.523 0.219Q0.508 0.219 0.490 0.220Q0.471 0.221 0.454 0.224Q0.436 0.226 0.425 0.232Q0.414 0.237 0.394 0.248Q0.372 0.259 0.352 0.290Q0.332 0.321 0.320 0.377Q0.307 0.433 0.319 0.526Q0.325 0.588 0.347 0.624Q0.369 0.660 0.399 0.677Q0.427 0.694 0.460 0.697Q0.492 0.700 0.521 0.695Q0.549 0.690 0.567 0.683Q0.585 0.677 0.587 0.675L0.589 0.666Q0.610 0.641 0.625 0.613Q0.639 0.588 0.651 0.558Q0.662 0.528 0.663 0.497Q0.664 0.465 0.657 0.429Q0.649 0.393 0.639 0.358Q0.628 0.324 0.616 0.298Q0.604 0.272 0.597 0.259Q0.583 0.234 0.568 0.218Q0.552 0.203 0.546 0.207ZM0.625 0.463Q0.626 0.511 0.616 0.544Q0.606 0.577 0.589 0.599Q0.573 0.621 0.553 0.631Q0.533 0.641 0.515 0.648Q0.497 0.655 0.480 0.653Q0.464 0.651 0.452 0.644Q0.440 0.637 0.432 0.630Q0.424 0.624 0.424 0.622Q0.421 0.615 0.406 0.610Q0.403 0.607 0.394 0.597Q0.385 0.587 0.373 0.568Q0.361 0.548 0.352 0.519Q0.343 0.490 0.340 0.453Q0.339 0.415 0.352 0.384Q0.366 0.352 0.386 0.331Q0.405 0.310 0.422 0.298Q0.440 0.286 0.445 0.282Q0.455 0.275 0.469 0.269Q0.484 0.263 0.510 0.272Q0.526 0.276 0.545 0.287Q0.565 0.298 0.582 0.320Q0.600 0.342 0.612 0.377Q0.625 0.411 0.625 0.463ZM0.381 0.437Q0.372 0.481 0.384 0.513Q0.395 0.546 0.413 0.568Q0.433 0.592 0.464 0.610Q0.444 0.603 0.427 0.583Q0.413 0.568 0.402 0.538Q0.391 0.509 0.390 0.463Q0.388 0.416 0.397 0.385Q0.406 0.354 0.419 0.336Q0.431 0.317 0.442 0.308Q0.452 0.299 0.452 0.298Q0.451 0.297 0.442 0.301Q0.433 0.305 0.423 0.320Q0.413 0.335 0.402 0.364Q0.390 0.393 0.381 0.437ZM0.516 0.179Q0.576 0.207 0.618 0.246Q0.652 0.282 0.679 0.335Q0.706 0.388 0.695 0.458Q0.683 0.527 0.675 0.565Q0.667 0.603 0.661 0.620Q0.654 0.637 0.648 0.642Q0.641 0.648 0.635 0.655Q0.626 0.664 0.611 0.674Q0.595 0.685 0.577 0.696Q0.557 0.708 0.533 0.723Q0.577 0.719 0.612 0.689Q0.641 0.664 0.669 0.608Q0.698 0.552 0.705 0.448Q0.710 0.344 0.680 0.288Q0.651 0.233 0.617 0.208Q0.573 0.180 0.516 0.179Z" fill="black"/>
</svg>
