<svg xmlns="http://www.w3.org/2000/svg" viewBox="0 0 1 1" preserveAspectRatio="xMidYMid meet">
  <path d="M0.816 1.074H0.184V-0.148H0.816ZM0.510 0.483Q0.510 0.500 0.508 0.527Q0.506 0.555 0.503 0.582Q0.500 0.609 0.499 0.631Q0.498 0.653 0.498 0.659Q0.499 0.671 0.503 0.685Q0.508 0.699 0.533 0.698Q0.545 0.698 0.548 0.686Q0.552 0.675 0.550 0.660Q0.548 0.645 0.544 0.630Q0.541 0.616 0.541 0.611Q0.541 0.605 0.541 0.572Q0.541 0.539 0.541 0.501Q0.541 0.464 0.542 0.431Q0.543 0.399 0.543 0.393Q0.543 0.388 0.544 0.367Q0.545 0.347 0.546 0.323Q0.547 0.299 0.547 0.278Q0.548 0.257 0.548 0.250Q0.548 0.243 0.546 0.235Q0.545 0.227 0.543 0.223Q0.540 0.215 0.538 0.211Q0.540 0.208 0.543 0.206Q0.547 0.205 0.549 0.203Q0.551 0.201 0.553 0.201Q0.558 0.200 0.567 0.207Q0.575 0.215 0.570 0.202Q0.564 0.193 0.551 0.182Q0.543 0.176 0.536 0.172L0.548 0.181V0.187Q0.548 0.193 0.545 0.200Q0.540 0.206 0.535 0.207Q0.530 0.208 0.522 0.208Q0.517 0.208 0.505 0.220Q0.494 0.231 0.483 0.246Q0.472 0.262 0.461 0.277Q0.450 0.291 0.449 0.296Q0.444 0.302 0.438 0.311Q0.432 0.321 0.425 0.329Q0.419 0.340 0.408 0.352Q0.413 0.354 0.420 0.354Q0.431 0.358 0.439 0.354Q0.446 0.351 0.455 0.336Q0.464 0.320 0.468 0.314Q0.479 0.299 0.494 0.303Q0.496 0.303 0.498 0.325Q0.500 0.347 0.503 0.377Q0.506 0.406 0.508 0.435Q0.510 0.465 0.510 0.483ZM0.581 0.656Q0.581 0.656 0.581 0.624Q0.581 0.592 0.582 0.546Q0.582 0.500 0.582 0.448Q0.582 0.395 0.582 0.347Q0.582 0.299 0.582 0.268Q0.581 0.236 0.581 0.235Q0.578 0.230 0.578 0.223Q0.578 0.220 0.577 0.219Z" fill="black"/>
</svg>
