<svg xmlns="http://www.w3.org/2000/svg" viewBox="0 0 1 1" preserveAspectRatio="xMidYMid meet">
  <path d="M0.818 1.074H0.182V-0.148H0.818ZM0.387 0.378Q0.396 0.373 0.399 0.363Q0.402 0.353 0.405 0.343Q0.405 0.334 0.396 0.337Q0.393 0.338 0.389 0.343Q0.389 0.341 0.390 0.337Q0.390 0.336 0.394 0.325Q0.397 0.318 0.422 0.297Q0.449 0.276 0.495 0.274Q0.540 0.272 0.561 0.293Q0.582 0.314 0.596 0.349Q0.604 0.367 0.589 0.385Q0.575 0.403 0.551 0.418Q0.528 0.434 0.504 0.446Q0.479 0.458 0.468 0.465Q0.442 0.480 0.419 0.501Q0.397 0.522 0.376 0.552Q0.365 0.566 0.361 0.589Q0.356 0.612 0.356 0.632Q0.356 0.653 0.358 0.669Q0.359 0.686 0.363 0.686Q0.374 0.691 0.401 0.695Q0.407 0.695 0.438 0.698Q0.469 0.700 0.504 0.702Q0.539 0.704 0.570 0.705Q0.600 0.706 0.605 0.706Q0.614 0.706 0.623 0.711Q0.632 0.716 0.641 0.716Q0.649 0.716 0.666 0.705Q0.683 0.693 0.690 0.683Q0.693 0.674 0.685 0.656Q0.677 0.638 0.660 0.631Q0.644 0.625 0.625 0.635Q0.605 0.646 0.596 0.651Q0.590 0.652 0.574 0.652Q0.557 0.652 0.537 0.650Q0.516 0.649 0.498 0.647Q0.480 0.646 0.476 0.646Q0.465 0.646 0.457 0.643Q0.449 0.641 0.439 0.644Q0.431 0.645 0.422 0.648Q0.412 0.651 0.405 0.649Q0.396 0.646 0.396 0.640Q0.397 0.634 0.401 0.619Q0.402 0.612 0.412 0.596Q0.423 0.580 0.439 0.561Q0.454 0.543 0.467 0.527Q0.480 0.512 0.490 0.505Q0.497 0.498 0.518 0.485Q0.538 0.473 0.561 0.460Q0.584 0.446 0.603 0.434Q0.623 0.422 0.628 0.413Q0.632 0.405 0.636 0.388Q0.640 0.371 0.641 0.351Q0.641 0.332 0.639 0.314Q0.637 0.295 0.634 0.287Q0.630 0.277 0.616 0.265Q0.601 0.253 0.586 0.240Q0.566 0.227 0.543 0.212L0.547 0.228Q0.532 0.225 0.519 0.221Q0.506 0.217 0.495 0.215Q0.483 0.214 0.479 0.214Q0.474 0.214 0.462 0.215Q0.450 0.217 0.433 0.223Q0.416 0.228 0.399 0.239Q0.382 0.251 0.367 0.270Q0.352 0.292 0.348 0.311Q0.344 0.330 0.344 0.346Q0.344 0.362 0.348 0.371Q0.351 0.381 0.355 0.383Q0.367 0.386 0.387 0.378ZM0.471 0.300Q0.461 0.300 0.453 0.302Q0.431 0.306 0.426 0.318Q0.422 0.332 0.418 0.348Q0.416 0.355 0.416 0.363L0.418 0.362L0.416 0.363Q0.416 0.366 0.415 0.366Q0.414 0.366 0.414 0.367Q0.411 0.374 0.406 0.382Q0.402 0.390 0.400 0.392Q0.396 0.392 0.391 0.393Q0.387 0.393 0.383 0.397Q0.378 0.401 0.374 0.405L0.370 0.413Q0.382 0.409 0.389 0.404Q0.396 0.401 0.402 0.397Q0.407 0.392 0.411 0.385Q0.419 0.374 0.421 0.355Q0.422 0.337 0.438 0.319Q0.453 0.306 0.462 0.302Q0.468 0.300 0.471 0.300ZM0.670 0.362Q0.666 0.386 0.659 0.405Q0.653 0.423 0.647 0.440Q0.641 0.456 0.632 0.460Q0.625 0.465 0.610 0.474Q0.596 0.483 0.581 0.491Q0.566 0.499 0.552 0.505Q0.539 0.512 0.534 0.516Q0.528 0.518 0.513 0.527Q0.498 0.537 0.481 0.549Q0.465 0.562 0.450 0.574Q0.435 0.586 0.431 0.595Q0.425 0.608 0.429 0.608Q0.430 0.608 0.431 0.607Q0.435 0.604 0.442 0.603Q0.453 0.599 0.462 0.599Q0.466 0.601 0.472 0.601Q0.479 0.601 0.485 0.601H0.498L0.450 0.591Q0.454 0.585 0.461 0.578Q0.469 0.570 0.483 0.559Q0.489 0.555 0.506 0.543Q0.523 0.532 0.544 0.519Q0.565 0.506 0.583 0.494Q0.601 0.483 0.608 0.480Q0.623 0.471 0.635 0.458Q0.647 0.445 0.653 0.434Q0.658 0.428 0.659 0.416Q0.660 0.404 0.664 0.392Q0.667 0.378 0.670 0.362ZM0.691 0.710Q0.686 0.710 0.683 0.712L0.670 0.719Q0.659 0.725 0.655 0.725Q0.652 0.728 0.648 0.725Q0.660 0.725 0.670 0.724Q0.690 0.721 0.691 0.710Z" fill="black"/>
</svg>
