<svg xmlns="http://www.w3.org/2000/svg" viewBox="0 0 1 1" preserveAspectRatio="xMidYMid meet">
  <path d="M0.817 1.074H0.183V-0.148H0.817ZM0.395 0.328Q0.398 0.319 0.413 0.305Q0.428 0.291 0.458 0.276Q0.472 0.269 0.497 0.272Q0.523 0.275 0.548 0.284Q0.573 0.294 0.590 0.311Q0.607 0.328 0.607 0.347Q0.607 0.387 0.581 0.407Q0.555 0.428 0.538 0.428Q0.528 0.430 0.521 0.425Q0.515 0.421 0.508 0.417Q0.500 0.412 0.493 0.406Q0.490 0.406 0.487 0.409Q0.486 0.409 0.479 0.421Q0.477 0.424 0.477 0.432Q0.477 0.440 0.478 0.449Q0.479 0.458 0.482 0.464Q0.485 0.470 0.486 0.472Q0.491 0.475 0.512 0.480Q0.534 0.485 0.553 0.487Q0.573 0.491 0.587 0.503Q0.600 0.515 0.607 0.527Q0.610 0.532 0.616 0.552Q0.622 0.573 0.617 0.595Q0.612 0.616 0.591 0.634Q0.569 0.652 0.517 0.652Q0.467 0.652 0.441 0.643Q0.414 0.635 0.403 0.625Q0.392 0.616 0.392 0.606Q0.392 0.595 0.392 0.589Q0.392 0.580 0.392 0.577Q0.391 0.573 0.381 0.563Q0.373 0.555 0.367 0.547Q0.361 0.539 0.347 0.539Q0.339 0.539 0.338 0.548Q0.337 0.558 0.338 0.573Q0.338 0.587 0.341 0.601Q0.343 0.615 0.349 0.625Q0.352 0.635 0.365 0.650Q0.379 0.665 0.400 0.679Q0.421 0.693 0.448 0.702Q0.475 0.710 0.508 0.710Q0.539 0.710 0.567 0.700Q0.595 0.690 0.616 0.672Q0.637 0.655 0.650 0.631Q0.664 0.607 0.664 0.577Q0.664 0.550 0.654 0.527Q0.645 0.505 0.634 0.491Q0.623 0.478 0.614 0.470Q0.604 0.463 0.604 0.462Q0.604 0.458 0.615 0.443Q0.625 0.428 0.634 0.416Q0.642 0.404 0.647 0.377Q0.652 0.349 0.650 0.339Q0.650 0.333 0.641 0.312Q0.633 0.292 0.616 0.271Q0.599 0.250 0.573 0.233Q0.546 0.215 0.509 0.215Q0.474 0.215 0.446 0.227Q0.417 0.239 0.398 0.257Q0.379 0.275 0.367 0.294Q0.356 0.314 0.352 0.326Q0.345 0.352 0.352 0.360Q0.360 0.368 0.368 0.367Q0.381 0.364 0.387 0.350Q0.392 0.337 0.395 0.328ZM0.482 0.306Q0.472 0.306 0.462 0.309Q0.438 0.311 0.429 0.326Q0.419 0.340 0.417 0.352Q0.415 0.364 0.403 0.374Q0.391 0.382 0.382 0.385Q0.372 0.387 0.372 0.393Q0.369 0.397 0.388 0.391Q0.407 0.385 0.419 0.364Q0.425 0.353 0.429 0.344Q0.433 0.334 0.439 0.327Q0.445 0.319 0.455 0.314Q0.464 0.309 0.482 0.306ZM0.650 0.445Q0.653 0.436 0.659 0.430Q0.663 0.423 0.667 0.417Q0.671 0.411 0.675 0.404Q0.678 0.398 0.679 0.392Q0.680 0.385 0.682 0.377Q0.683 0.370 0.684 0.362Q0.672 0.381 0.665 0.398Q0.659 0.412 0.653 0.426Q0.648 0.440 0.650 0.445ZM0.434 0.587Q0.432 0.580 0.426 0.581Q0.421 0.581 0.417 0.574Q0.414 0.568 0.409 0.553Q0.405 0.538 0.398 0.532Q0.392 0.528 0.385 0.525Q0.381 0.523 0.379 0.523Q0.381 0.528 0.387 0.534Q0.391 0.538 0.395 0.542Q0.398 0.546 0.402 0.550Q0.405 0.558 0.411 0.573Q0.417 0.587 0.426 0.593Q0.434 0.600 0.439 0.605Q0.444 0.610 0.444 0.604L0.438 0.593ZM0.689 0.589Q0.683 0.615 0.676 0.634Q0.670 0.652 0.659 0.667Q0.648 0.683 0.633 0.693Q0.615 0.701 0.605 0.706Q0.595 0.710 0.588 0.713Q0.581 0.717 0.577 0.718Q0.589 0.718 0.606 0.713Q0.618 0.710 0.634 0.702Q0.650 0.693 0.664 0.672Q0.678 0.655 0.683 0.639Q0.689 0.623 0.690 0.612Q0.693 0.600 0.689 0.589Z" fill="black"/>
</svg>
