<svg xmlns="http://www.w3.org/2000/svg" viewBox="0 0 1 1" preserveAspectRatio="xMidYMid meet">
  <path d="M0.817 1.074H0.183V-0.148H0.817ZM0.602 0.233Q0.597 0.221 0.590 0.217Q0.582 0.213 0.579 0.207Q0.575 0.206 0.575 0.198V0.194Q0.574 0.197 0.574 0.201Q0.572 0.203 0.572 0.206Q0.572 0.209 0.570 0.210Q0.567 0.214 0.552 0.223Q0.538 0.231 0.534 0.239Q0.533 0.244 0.529 0.254Q0.525 0.263 0.518 0.276Q0.511 0.289 0.506 0.299Q0.502 0.309 0.499 0.315Q0.498 0.320 0.476 0.346Q0.454 0.373 0.428 0.404Q0.403 0.435 0.380 0.463Q0.357 0.491 0.354 0.498Q0.347 0.514 0.343 0.526Q0.338 0.538 0.334 0.546Q0.331 0.555 0.328 0.575Q0.324 0.595 0.320 0.599L0.315 0.604H0.404Q0.439 0.604 0.469 0.604Q0.499 0.604 0.503 0.603Q0.511 0.600 0.522 0.591Q0.533 0.581 0.538 0.585Q0.551 0.593 0.551 0.603Q0.551 0.604 0.549 0.620Q0.547 0.635 0.547 0.653Q0.547 0.672 0.549 0.688Q0.551 0.704 0.557 0.706Q0.572 0.711 0.576 0.711Q0.579 0.711 0.587 0.704Q0.597 0.695 0.601 0.690Q0.605 0.684 0.602 0.669Q0.598 0.652 0.592 0.626Q0.586 0.600 0.593 0.597Q0.600 0.595 0.614 0.601Q0.627 0.607 0.635 0.611Q0.654 0.616 0.670 0.604Q0.689 0.592 0.689 0.569Q0.689 0.555 0.673 0.537Q0.658 0.520 0.651 0.521Q0.642 0.525 0.639 0.527Q0.636 0.529 0.624 0.538Q0.612 0.544 0.605 0.553Q0.597 0.562 0.594 0.555Q0.593 0.551 0.593 0.535Q0.593 0.520 0.593 0.500Q0.593 0.481 0.593 0.463Q0.593 0.444 0.591 0.433Q0.589 0.422 0.589 0.399Q0.589 0.376 0.589 0.351Q0.589 0.326 0.590 0.304Q0.591 0.283 0.594 0.278Q0.598 0.273 0.598 0.266Q0.598 0.258 0.600 0.251Q0.600 0.244 0.602 0.233ZM0.552 0.562Q0.551 0.570 0.544 0.570Q0.537 0.569 0.528 0.565Q0.519 0.562 0.512 0.558Q0.505 0.555 0.494 0.555Q0.484 0.552 0.459 0.552Q0.434 0.552 0.407 0.557Q0.392 0.558 0.387 0.558Q0.381 0.558 0.380 0.556Q0.378 0.555 0.379 0.552Q0.380 0.550 0.378 0.547Q0.374 0.542 0.389 0.520Q0.403 0.498 0.415 0.485Q0.420 0.478 0.432 0.465Q0.445 0.452 0.457 0.437Q0.468 0.422 0.479 0.407Q0.490 0.393 0.492 0.388Q0.496 0.384 0.503 0.373Q0.511 0.362 0.519 0.351Q0.528 0.340 0.534 0.334Q0.541 0.327 0.545 0.328Q0.551 0.334 0.553 0.369Q0.555 0.404 0.555 0.445Q0.555 0.486 0.553 0.521Q0.552 0.557 0.552 0.562ZM0.480 0.463Q0.464 0.475 0.452 0.487Q0.442 0.498 0.432 0.507Q0.422 0.516 0.422 0.520Q0.420 0.525 0.437 0.519Q0.454 0.514 0.463 0.514H0.480Q0.486 0.514 0.490 0.512Q0.473 0.514 0.461 0.514Q0.450 0.514 0.444 0.513Q0.437 0.512 0.439 0.508Q0.444 0.504 0.450 0.495Q0.456 0.487 0.463 0.479Q0.469 0.470 0.480 0.463Z" fill="black"/>
</svg>
