<svg xmlns="http://www.w3.org/2000/svg" viewBox="0 0 1 1" preserveAspectRatio="xMidYMid meet">
  <path d="M0.817 1.074H0.183V-0.148H0.817ZM0.616 0.231Q0.616 0.216 0.605 0.200Q0.594 0.183 0.581 0.183Q0.567 0.183 0.561 0.189Q0.555 0.194 0.540 0.197Q0.533 0.198 0.518 0.200Q0.503 0.201 0.485 0.202Q0.468 0.202 0.453 0.203Q0.438 0.203 0.431 0.203Q0.419 0.203 0.402 0.203Q0.385 0.202 0.377 0.202Q0.369 0.202 0.368 0.205Q0.368 0.209 0.368 0.226Q0.368 0.236 0.368 0.263Q0.369 0.290 0.369 0.320Q0.369 0.350 0.370 0.374Q0.372 0.399 0.372 0.404Q0.372 0.414 0.368 0.421Q0.365 0.429 0.368 0.435Q0.372 0.444 0.400 0.439Q0.427 0.434 0.446 0.431Q0.456 0.429 0.479 0.429Q0.503 0.429 0.529 0.439Q0.555 0.448 0.573 0.469Q0.591 0.491 0.591 0.533Q0.591 0.576 0.572 0.600Q0.552 0.623 0.528 0.634Q0.505 0.646 0.483 0.648Q0.461 0.650 0.454 0.650Q0.449 0.650 0.435 0.645Q0.422 0.641 0.409 0.635Q0.396 0.630 0.385 0.625Q0.374 0.620 0.373 0.616Q0.369 0.607 0.364 0.596Q0.359 0.585 0.350 0.574Q0.343 0.565 0.334 0.561Q0.325 0.558 0.319 0.563Q0.313 0.567 0.315 0.577Q0.317 0.586 0.321 0.597Q0.325 0.603 0.334 0.619Q0.343 0.634 0.360 0.652Q0.377 0.671 0.403 0.685Q0.429 0.699 0.468 0.699Q0.507 0.699 0.538 0.681Q0.570 0.664 0.593 0.638Q0.616 0.612 0.628 0.584Q0.640 0.555 0.640 0.529Q0.640 0.485 0.616 0.443Q0.591 0.400 0.555 0.381Q0.517 0.362 0.495 0.359Q0.473 0.357 0.454 0.362Q0.445 0.366 0.436 0.372Q0.427 0.378 0.421 0.383Q0.415 0.388 0.409 0.390Q0.404 0.392 0.401 0.387Q0.397 0.381 0.397 0.367Q0.396 0.353 0.396 0.337Q0.396 0.320 0.397 0.305Q0.397 0.290 0.397 0.283Q0.397 0.269 0.395 0.269Q0.392 0.269 0.397 0.266Q0.399 0.263 0.416 0.263Q0.434 0.262 0.455 0.262Q0.475 0.262 0.494 0.263Q0.514 0.263 0.522 0.263Q0.537 0.263 0.564 0.267Q0.591 0.271 0.600 0.267Q0.605 0.266 0.612 0.248ZM0.433 0.292Q0.431 0.304 0.431 0.313Q0.429 0.321 0.429 0.329Q0.429 0.336 0.431 0.336Q0.433 0.338 0.445 0.335Q0.456 0.332 0.471 0.332Q0.487 0.331 0.506 0.331Q0.526 0.331 0.541 0.338Q0.557 0.345 0.576 0.357Q0.594 0.370 0.611 0.387Q0.628 0.403 0.640 0.420Q0.652 0.438 0.658 0.453L0.669 0.497Q0.667 0.464 0.654 0.435Q0.644 0.411 0.623 0.384Q0.602 0.357 0.563 0.338Q0.525 0.319 0.500 0.314Q0.475 0.309 0.461 0.308Q0.446 0.308 0.440 0.306Q0.434 0.305 0.433 0.292ZM0.446 0.586Q0.450 0.585 0.447 0.585Q0.444 0.585 0.438 0.584Q0.431 0.582 0.423 0.580Q0.415 0.577 0.410 0.573Q0.399 0.559 0.381 0.546Q0.362 0.533 0.366 0.538Q0.368 0.539 0.374 0.548Q0.381 0.557 0.392 0.567Q0.403 0.577 0.417 0.583Q0.431 0.589 0.446 0.586ZM0.410 0.472Q0.412 0.472 0.421 0.469Q0.431 0.467 0.442 0.465Q0.452 0.463 0.458 0.460Q0.464 0.457 0.463 0.456Q0.461 0.456 0.453 0.459Q0.444 0.461 0.433 0.464Q0.422 0.467 0.414 0.469Q0.407 0.472 0.410 0.472ZM0.671 0.517Q0.674 0.540 0.669 0.559Q0.665 0.577 0.656 0.597Q0.647 0.616 0.633 0.633Q0.620 0.650 0.601 0.663Q0.582 0.676 0.567 0.687Q0.547 0.699 0.529 0.707Q0.564 0.700 0.597 0.680Q0.621 0.660 0.645 0.623Q0.669 0.585 0.671 0.517Z" fill="black"/>
</svg>
