<svg xmlns="http://www.w3.org/2000/svg" viewBox="0 0 1 1" preserveAspectRatio="xMidYMid meet">
  <path d="M0.817 1.074H0.183V-0.148H0.817ZM0.487 0.298H0.514Q0.503 0.292 0.496 0.293Q0.491 0.296 0.487 0.298ZM0.444 0.316Q0.438 0.316 0.431 0.324Q0.425 0.332 0.419 0.342Q0.414 0.351 0.410 0.360Q0.407 0.369 0.404 0.374Q0.399 0.392 0.404 0.392Q0.407 0.392 0.411 0.387Q0.416 0.381 0.425 0.376L0.442 0.362L0.439 0.369Q0.461 0.364 0.480 0.361Q0.498 0.357 0.519 0.357Q0.540 0.358 0.559 0.366Q0.579 0.374 0.595 0.381Q0.610 0.388 0.621 0.397Q0.633 0.406 0.644 0.415Q0.627 0.397 0.606 0.384Q0.591 0.370 0.573 0.360Q0.555 0.351 0.540 0.350Q0.526 0.349 0.506 0.349Q0.487 0.350 0.470 0.351Q0.454 0.353 0.443 0.353Q0.431 0.353 0.431 0.350Q0.433 0.349 0.436 0.343Q0.439 0.336 0.443 0.330Q0.446 0.323 0.448 0.320Q0.449 0.316 0.444 0.316ZM0.431 0.509Q0.419 0.517 0.415 0.522Q0.412 0.527 0.412 0.529Q0.412 0.533 0.415 0.535Q0.415 0.538 0.414 0.540Q0.410 0.547 0.410 0.552Q0.408 0.557 0.419 0.564Q0.431 0.570 0.445 0.580Q0.461 0.588 0.480 0.599Q0.469 0.588 0.461 0.581Q0.452 0.574 0.445 0.568Q0.438 0.562 0.437 0.558Q0.431 0.555 0.429 0.553Q0.427 0.551 0.429 0.542Q0.429 0.538 0.437 0.529Q0.445 0.520 0.455 0.510Q0.464 0.500 0.471 0.493Q0.479 0.487 0.476 0.487Q0.468 0.490 0.461 0.490Q0.454 0.491 0.431 0.509ZM0.689 0.618Q0.705 0.585 0.705 0.555Q0.705 0.525 0.697 0.504Q0.688 0.479 0.671 0.459Q0.676 0.467 0.680 0.474Q0.686 0.491 0.693 0.505Q0.701 0.521 0.699 0.547Q0.697 0.573 0.681 0.622Q0.671 0.646 0.650 0.663Q0.629 0.681 0.606 0.695Q0.581 0.711 0.551 0.722Q0.576 0.717 0.604 0.704Q0.627 0.694 0.649 0.673Q0.671 0.653 0.689 0.618ZM0.564 0.178Q0.567 0.178 0.572 0.179Q0.575 0.180 0.581 0.183Q0.587 0.186 0.597 0.190Q0.605 0.194 0.619 0.203Q0.632 0.213 0.642 0.223Q0.652 0.232 0.659 0.238Q0.667 0.244 0.665 0.241Q0.647 0.216 0.629 0.205Q0.612 0.194 0.598 0.186Q0.581 0.179 0.564 0.178ZM0.663 0.338Q0.676 0.332 0.676 0.311Q0.677 0.290 0.671 0.283Q0.669 0.279 0.656 0.267Q0.644 0.254 0.624 0.239Q0.604 0.225 0.578 0.213Q0.551 0.202 0.519 0.202Q0.457 0.202 0.409 0.247Q0.362 0.292 0.344 0.351Q0.336 0.381 0.334 0.428Q0.331 0.475 0.339 0.525Q0.347 0.576 0.369 0.619Q0.392 0.662 0.433 0.683Q0.473 0.704 0.510 0.704Q0.547 0.704 0.576 0.692Q0.605 0.680 0.625 0.659Q0.646 0.639 0.652 0.618Q0.659 0.597 0.663 0.572Q0.667 0.546 0.663 0.520Q0.659 0.494 0.647 0.472Q0.636 0.450 0.614 0.434Q0.568 0.404 0.550 0.401Q0.532 0.397 0.522 0.400Q0.515 0.404 0.495 0.405Q0.475 0.406 0.461 0.406Q0.446 0.404 0.442 0.402Q0.437 0.400 0.433 0.404Q0.431 0.406 0.423 0.414Q0.416 0.422 0.407 0.431Q0.399 0.440 0.390 0.446Q0.381 0.452 0.377 0.452Q0.366 0.450 0.360 0.434Q0.354 0.418 0.359 0.408Q0.366 0.397 0.369 0.406Q0.372 0.414 0.374 0.411Q0.377 0.411 0.379 0.398Q0.381 0.384 0.388 0.366Q0.395 0.349 0.404 0.332Q0.412 0.315 0.427 0.305Q0.457 0.289 0.488 0.275Q0.519 0.260 0.549 0.271Q0.576 0.279 0.591 0.302Q0.605 0.326 0.620 0.334Q0.642 0.349 0.663 0.338ZM0.415 0.494Q0.442 0.453 0.526 0.459Q0.570 0.463 0.597 0.485Q0.623 0.508 0.627 0.547Q0.628 0.569 0.617 0.587Q0.606 0.605 0.591 0.620Q0.575 0.634 0.556 0.642Q0.537 0.650 0.519 0.647Q0.484 0.645 0.467 0.632Q0.450 0.620 0.426 0.604Q0.401 0.589 0.395 0.572Q0.389 0.555 0.387 0.540Q0.389 0.535 0.395 0.528Q0.397 0.523 0.402 0.514Q0.407 0.505 0.415 0.494Z" fill="black"/>
</svg>
