<svg xmlns="http://www.w3.org/2000/svg" viewBox="0 0 1 1" preserveAspectRatio="xMidYMid meet">
  <path d="M0.817 1.074H0.183V-0.148H0.817ZM0.357 0.177Q0.350 0.184 0.347 0.186Q0.345 0.189 0.345 0.196Q0.345 0.203 0.347 0.207Q0.349 0.211 0.349 0.220Q0.349 0.227 0.345 0.233Q0.342 0.239 0.345 0.243Q0.345 0.245 0.371 0.245Q0.398 0.245 0.430 0.244Q0.463 0.243 0.492 0.241Q0.522 0.239 0.528 0.239Q0.543 0.238 0.548 0.234Q0.554 0.229 0.564 0.227Q0.576 0.227 0.590 0.233Q0.603 0.239 0.602 0.258Q0.602 0.268 0.591 0.282Q0.579 0.296 0.562 0.314Q0.546 0.332 0.528 0.353Q0.511 0.375 0.501 0.401Q0.489 0.428 0.480 0.456Q0.472 0.483 0.466 0.508Q0.460 0.534 0.456 0.552Q0.452 0.570 0.452 0.575Q0.451 0.583 0.448 0.587Q0.445 0.590 0.451 0.590Q0.460 0.590 0.460 0.601Q0.457 0.605 0.448 0.623Q0.438 0.640 0.445 0.654Q0.455 0.669 0.459 0.670Q0.463 0.672 0.476 0.669Q0.490 0.663 0.494 0.658Q0.498 0.654 0.497 0.642Q0.497 0.636 0.495 0.615Q0.493 0.594 0.494 0.568Q0.496 0.541 0.498 0.514Q0.501 0.487 0.509 0.469Q0.516 0.453 0.530 0.428Q0.545 0.404 0.560 0.379Q0.576 0.353 0.595 0.332Q0.614 0.310 0.629 0.298Q0.663 0.273 0.667 0.269Q0.671 0.264 0.671 0.256Q0.671 0.252 0.671 0.241Q0.671 0.231 0.670 0.219Q0.670 0.207 0.668 0.196Q0.667 0.185 0.663 0.180Q0.653 0.172 0.648 0.167Q0.644 0.161 0.636 0.163Q0.632 0.167 0.621 0.172Q0.610 0.177 0.603 0.180Q0.599 0.181 0.580 0.181Q0.561 0.181 0.538 0.181Q0.515 0.181 0.493 0.180Q0.472 0.180 0.463 0.180Q0.455 0.180 0.437 0.180Q0.419 0.180 0.402 0.178Q0.381 0.178 0.357 0.177ZM0.699 0.233 0.697 0.250Q0.694 0.257 0.694 0.265Q0.693 0.272 0.691 0.275Q0.689 0.279 0.675 0.292Q0.661 0.306 0.643 0.326Q0.626 0.345 0.609 0.367Q0.591 0.389 0.580 0.406Q0.569 0.427 0.560 0.448Q0.551 0.469 0.546 0.487Q0.541 0.506 0.537 0.517Q0.534 0.529 0.534 0.526Q0.534 0.524 0.542 0.500Q0.550 0.476 0.567 0.441Q0.584 0.406 0.613 0.365Q0.641 0.324 0.683 0.287Q0.693 0.279 0.696 0.270Q0.698 0.261 0.699 0.252Q0.701 0.243 0.699 0.233Z" fill="black"/>
</svg>
