<svg xmlns="http://www.w3.org/2000/svg" viewBox="0 0 1 1" preserveAspectRatio="xMidYMid meet">
  <path d="M0.817 1.074H0.183V-0.148H0.817ZM0.507 0.203Q0.486 0.203 0.464 0.209Q0.442 0.215 0.420 0.231Q0.398 0.246 0.384 0.271Q0.369 0.296 0.367 0.333Q0.366 0.369 0.373 0.387Q0.381 0.405 0.391 0.413Q0.401 0.422 0.410 0.427Q0.419 0.432 0.419 0.440Q0.419 0.448 0.408 0.452Q0.398 0.456 0.388 0.467Q0.377 0.477 0.368 0.500Q0.359 0.523 0.359 0.566Q0.360 0.611 0.379 0.637Q0.398 0.663 0.426 0.677Q0.455 0.691 0.487 0.696Q0.519 0.700 0.545 0.700Q0.569 0.700 0.595 0.691Q0.621 0.681 0.641 0.663Q0.661 0.646 0.673 0.621Q0.686 0.596 0.686 0.566Q0.686 0.535 0.676 0.514Q0.667 0.494 0.656 0.479Q0.645 0.464 0.635 0.456Q0.626 0.447 0.626 0.440Q0.626 0.433 0.633 0.424Q0.640 0.416 0.648 0.402Q0.656 0.388 0.662 0.367Q0.669 0.346 0.669 0.317Q0.669 0.286 0.651 0.265Q0.633 0.244 0.607 0.230Q0.580 0.215 0.552 0.209Q0.524 0.203 0.507 0.203ZM0.592 0.409Q0.572 0.417 0.539 0.415Q0.507 0.414 0.486 0.409Q0.478 0.406 0.464 0.402Q0.450 0.397 0.438 0.388Q0.425 0.379 0.416 0.365Q0.408 0.352 0.408 0.334Q0.408 0.317 0.423 0.304Q0.438 0.292 0.457 0.284Q0.476 0.276 0.497 0.273Q0.519 0.269 0.528 0.269Q0.541 0.269 0.558 0.274Q0.575 0.279 0.590 0.288Q0.604 0.298 0.616 0.312Q0.627 0.326 0.627 0.345Q0.627 0.364 0.622 0.376Q0.617 0.388 0.610 0.397Q0.603 0.403 0.592 0.409ZM0.641 0.561Q0.641 0.571 0.636 0.586Q0.631 0.600 0.620 0.613Q0.608 0.626 0.588 0.636Q0.568 0.646 0.538 0.646Q0.478 0.649 0.440 0.619Q0.402 0.588 0.398 0.542Q0.397 0.519 0.403 0.505Q0.409 0.491 0.418 0.483Q0.428 0.475 0.436 0.472Q0.444 0.470 0.449 0.470Q0.455 0.468 0.468 0.468Q0.480 0.468 0.491 0.470Q0.503 0.471 0.522 0.471Q0.541 0.471 0.551 0.468Q0.562 0.464 0.568 0.463Q0.573 0.462 0.580 0.464Q0.584 0.466 0.594 0.474Q0.603 0.482 0.613 0.495Q0.623 0.509 0.632 0.524Q0.641 0.539 0.641 0.554ZM0.691 0.640Q0.676 0.670 0.653 0.685Q0.631 0.701 0.608 0.711Q0.581 0.719 0.551 0.723Q0.568 0.720 0.584 0.718Q0.598 0.714 0.612 0.711Q0.626 0.708 0.640 0.701Q0.667 0.689 0.686 0.660Q0.706 0.631 0.715 0.570Q0.718 0.540 0.714 0.514Q0.709 0.489 0.699 0.470Q0.688 0.448 0.673 0.429Q0.676 0.422 0.682 0.416Q0.692 0.401 0.698 0.391Q0.700 0.386 0.700 0.377Q0.699 0.367 0.699 0.356Q0.698 0.345 0.698 0.332Q0.698 0.344 0.696 0.352Q0.694 0.361 0.693 0.370Q0.692 0.379 0.691 0.386Q0.686 0.401 0.673 0.417Q0.667 0.424 0.661 0.433Q0.682 0.445 0.694 0.469Q0.706 0.493 0.709 0.522Q0.711 0.551 0.707 0.582Q0.703 0.612 0.691 0.640ZM0.444 0.338Q0.443 0.332 0.451 0.323Q0.459 0.314 0.469 0.306Q0.481 0.299 0.497 0.291Q0.478 0.298 0.463 0.304Q0.451 0.311 0.441 0.320Q0.431 0.329 0.431 0.340Q0.431 0.351 0.443 0.359Q0.455 0.368 0.470 0.373Q0.486 0.379 0.500 0.381Q0.514 0.382 0.511 0.379Q0.508 0.375 0.498 0.371Q0.489 0.368 0.477 0.362Q0.466 0.357 0.456 0.351Q0.446 0.345 0.444 0.338ZM0.455 0.586Q0.454 0.582 0.450 0.578Q0.443 0.571 0.442 0.561Q0.439 0.554 0.441 0.543Q0.442 0.533 0.443 0.523Q0.444 0.510 0.444 0.498Q0.427 0.516 0.426 0.531Q0.425 0.546 0.432 0.558Q0.439 0.571 0.455 0.586ZM0.492 0.617Q0.492 0.616 0.491 0.612Q0.489 0.608 0.484 0.604Q0.480 0.600 0.476 0.600Q0.473 0.600 0.469 0.598Q0.463 0.598 0.462 0.596Q0.467 0.604 0.474 0.608Q0.489 0.619 0.492 0.617Z" fill="black"/>
</svg>
