<svg xmlns="http://www.w3.org/2000/svg" viewBox="0 0 1 1" preserveAspectRatio="xMidYMid meet">
  <path d="M0.817 1.074H0.183V-0.148H0.817ZM0.426 0.595Q0.422 0.585 0.428 0.583Q0.433 0.580 0.419 0.570Q0.405 0.562 0.402 0.564Q0.400 0.565 0.400 0.560Q0.400 0.556 0.398 0.545Q0.397 0.535 0.393 0.539Q0.390 0.542 0.390 0.546V0.551Q0.379 0.557 0.372 0.564Q0.365 0.569 0.360 0.578Q0.354 0.587 0.354 0.598Q0.354 0.607 0.366 0.626Q0.378 0.646 0.397 0.664Q0.415 0.682 0.442 0.694Q0.468 0.705 0.492 0.701Q0.519 0.698 0.545 0.694Q0.571 0.689 0.593 0.674Q0.615 0.660 0.633 0.633Q0.651 0.607 0.663 0.562Q0.676 0.516 0.678 0.469Q0.680 0.422 0.674 0.380Q0.667 0.338 0.653 0.305Q0.639 0.273 0.621 0.256Q0.580 0.225 0.559 0.213Q0.538 0.202 0.534 0.203Q0.528 0.207 0.528 0.207Q0.526 0.209 0.528 0.209Q0.503 0.207 0.479 0.212Q0.458 0.216 0.435 0.225Q0.412 0.233 0.396 0.247Q0.379 0.263 0.368 0.285Q0.357 0.307 0.353 0.331Q0.349 0.354 0.350 0.376Q0.350 0.397 0.359 0.410Q0.366 0.422 0.379 0.440Q0.392 0.457 0.410 0.471Q0.429 0.486 0.457 0.497Q0.484 0.509 0.521 0.508Q0.557 0.505 0.572 0.504Q0.587 0.503 0.589 0.498Q0.592 0.494 0.587 0.491Q0.583 0.488 0.583 0.485Q0.583 0.476 0.579 0.478Q0.576 0.480 0.577 0.470Q0.582 0.463 0.590 0.456Q0.598 0.448 0.601 0.445Q0.605 0.441 0.593 0.450Q0.582 0.459 0.571 0.459Q0.565 0.459 0.547 0.457Q0.529 0.454 0.510 0.452Q0.490 0.449 0.473 0.447Q0.457 0.445 0.453 0.441Q0.445 0.433 0.444 0.430Q0.443 0.427 0.439 0.423Q0.434 0.419 0.434 0.420Q0.434 0.422 0.426 0.412Q0.420 0.410 0.412 0.401Q0.405 0.392 0.399 0.381Q0.393 0.369 0.392 0.354Q0.392 0.340 0.400 0.327Q0.408 0.315 0.429 0.303Q0.450 0.292 0.472 0.283Q0.494 0.275 0.516 0.274Q0.538 0.273 0.549 0.277Q0.575 0.286 0.599 0.305Q0.624 0.324 0.632 0.370Q0.636 0.393 0.638 0.421Q0.640 0.449 0.640 0.474Q0.640 0.500 0.638 0.521Q0.635 0.542 0.628 0.553Q0.624 0.564 0.612 0.581Q0.601 0.598 0.584 0.614Q0.568 0.629 0.546 0.640Q0.525 0.652 0.499 0.651Q0.473 0.648 0.460 0.638Q0.446 0.629 0.438 0.621Q0.427 0.610 0.426 0.595ZM0.381 0.522Q0.390 0.527 0.397 0.532Q0.404 0.535 0.409 0.540Q0.415 0.546 0.419 0.551Q0.425 0.562 0.435 0.583Q0.446 0.604 0.457 0.610Q0.462 0.613 0.466 0.615Q0.469 0.617 0.473 0.618Q0.476 0.621 0.479 0.621Q0.468 0.611 0.458 0.603Q0.450 0.594 0.444 0.585Q0.438 0.576 0.439 0.568Q0.440 0.558 0.443 0.555Q0.447 0.553 0.451 0.550Q0.457 0.547 0.461 0.546Q0.455 0.546 0.450 0.545Q0.446 0.542 0.440 0.541Q0.433 0.541 0.427 0.538Q0.422 0.535 0.415 0.532Q0.407 0.530 0.398 0.527Q0.390 0.523 0.381 0.522ZM0.434 0.357Q0.431 0.340 0.441 0.330Q0.450 0.320 0.462 0.312Q0.475 0.305 0.492 0.302Q0.472 0.302 0.453 0.309Q0.438 0.315 0.424 0.325Q0.410 0.334 0.410 0.351Q0.408 0.370 0.424 0.384Q0.440 0.397 0.461 0.406Q0.480 0.416 0.509 0.423Q0.490 0.416 0.473 0.406Q0.461 0.397 0.450 0.385Q0.439 0.372 0.434 0.357ZM0.670 0.645Q0.676 0.634 0.689 0.602Q0.701 0.570 0.710 0.526Q0.720 0.482 0.721 0.432Q0.723 0.383 0.706 0.334Q0.689 0.282 0.664 0.254Q0.639 0.226 0.617 0.210Q0.588 0.193 0.559 0.186Q0.575 0.195 0.587 0.202Q0.598 0.209 0.610 0.215Q0.622 0.222 0.633 0.232Q0.644 0.240 0.651 0.245Q0.657 0.251 0.662 0.261Q0.667 0.270 0.674 0.287Q0.681 0.304 0.696 0.335Q0.708 0.368 0.712 0.405Q0.716 0.442 0.712 0.479Q0.708 0.516 0.697 0.554Q0.686 0.592 0.674 0.623Q0.659 0.655 0.635 0.675Q0.611 0.695 0.587 0.708Q0.556 0.722 0.525 0.729Q0.538 0.732 0.562 0.724Q0.586 0.716 0.607 0.702Q0.628 0.687 0.647 0.671Q0.665 0.655 0.670 0.645Z" fill="black"/>
</svg>
