<svg xmlns="http://www.w3.org/2000/svg" viewBox="0 0 1 1" preserveAspectRatio="xMidYMid meet">
  <path d="M0.816 1.074H0.184V-0.148H0.816ZM0.338 0.723Q0.344 0.725 0.351 0.730Q0.358 0.735 0.366 0.721Q0.374 0.709 0.380 0.691Q0.386 0.672 0.387 0.664Q0.390 0.654 0.387 0.646Q0.385 0.639 0.393 0.637Q0.402 0.635 0.406 0.644Q0.410 0.653 0.422 0.653Q0.433 0.653 0.448 0.647Q0.462 0.642 0.493 0.642Q0.526 0.642 0.541 0.645Q0.555 0.648 0.568 0.641Q0.580 0.635 0.591 0.627Q0.603 0.619 0.608 0.623Q0.609 0.624 0.614 0.632Q0.620 0.641 0.624 0.649Q0.628 0.658 0.633 0.668Q0.637 0.678 0.637 0.683Q0.640 0.693 0.646 0.709Q0.652 0.725 0.671 0.727Q0.692 0.731 0.698 0.725Q0.705 0.719 0.707 0.703Q0.712 0.690 0.699 0.678Q0.685 0.667 0.680 0.654Q0.677 0.648 0.668 0.624Q0.658 0.600 0.646 0.572Q0.634 0.543 0.624 0.514Q0.614 0.486 0.608 0.471Q0.603 0.454 0.592 0.428Q0.582 0.403 0.571 0.379Q0.560 0.354 0.552 0.334Q0.543 0.313 0.541 0.307Q0.538 0.302 0.537 0.290Q0.536 0.278 0.533 0.265Q0.530 0.252 0.527 0.240Q0.523 0.228 0.517 0.222Q0.511 0.217 0.504 0.222Q0.497 0.227 0.491 0.234Q0.485 0.242 0.481 0.251Q0.476 0.259 0.474 0.265Q0.473 0.277 0.477 0.286Q0.481 0.295 0.481 0.302Q0.481 0.308 0.475 0.317Q0.469 0.325 0.466 0.336Q0.462 0.345 0.460 0.353Q0.459 0.362 0.459 0.369Q0.459 0.377 0.441 0.412Q0.422 0.447 0.409 0.485Q0.398 0.520 0.397 0.533Q0.396 0.546 0.393 0.556Q0.392 0.564 0.386 0.581Q0.381 0.598 0.371 0.612Q0.367 0.622 0.358 0.638Q0.348 0.654 0.341 0.672Q0.333 0.691 0.331 0.706Q0.329 0.721 0.338 0.723ZM0.587 0.515Q0.596 0.532 0.598 0.549Q0.601 0.567 0.597 0.581Q0.596 0.587 0.589 0.588Q0.582 0.589 0.571 0.587Q0.560 0.585 0.549 0.582Q0.537 0.579 0.530 0.579Q0.500 0.579 0.489 0.574Q0.485 0.570 0.476 0.575Q0.468 0.579 0.449 0.585Q0.428 0.592 0.421 0.591Q0.414 0.589 0.407 0.586Q0.404 0.585 0.406 0.578Q0.409 0.570 0.415 0.561Q0.421 0.552 0.427 0.541Q0.433 0.531 0.435 0.522Q0.438 0.513 0.445 0.492Q0.453 0.472 0.461 0.451Q0.469 0.429 0.475 0.412Q0.481 0.396 0.481 0.395Q0.481 0.391 0.476 0.388Q0.470 0.384 0.466 0.381Q0.463 0.380 0.469 0.373Q0.476 0.366 0.482 0.358Q0.489 0.348 0.491 0.342Q0.493 0.336 0.502 0.339Q0.506 0.341 0.518 0.365Q0.530 0.389 0.545 0.420Q0.559 0.451 0.572 0.479Q0.584 0.508 0.587 0.515ZM0.464 0.528 0.470 0.512Q0.474 0.504 0.477 0.497Q0.480 0.490 0.481 0.486Q0.487 0.478 0.488 0.466Q0.489 0.458 0.492 0.448Q0.487 0.452 0.482 0.466Q0.476 0.479 0.473 0.494Q0.468 0.512 0.464 0.528ZM0.514 0.564Q0.512 0.557 0.508 0.549Q0.504 0.541 0.497 0.543Q0.492 0.545 0.485 0.545H0.477ZM0.421 0.672 0.560 0.667Q0.548 0.664 0.526 0.664Q0.504 0.665 0.480 0.667Q0.452 0.668 0.421 0.672ZM0.414 0.680Q0.410 0.690 0.408 0.697Q0.402 0.714 0.397 0.720Q0.393 0.723 0.390 0.726Q0.387 0.728 0.386 0.732Q0.383 0.735 0.383 0.738Q0.396 0.727 0.402 0.719Q0.416 0.698 0.414 0.680ZM0.712 0.624Q0.715 0.628 0.710 0.614Q0.705 0.600 0.695 0.576Q0.685 0.552 0.672 0.517Q0.658 0.483 0.644 0.447Q0.611 0.362 0.565 0.254Q0.604 0.356 0.634 0.436Q0.649 0.472 0.662 0.505Q0.675 0.538 0.685 0.564Q0.696 0.589 0.702 0.606Q0.708 0.623 0.712 0.624Z" fill="black"/>
</svg>
