<svg xmlns="http://www.w3.org/2000/svg" viewBox="0 0 1 1" preserveAspectRatio="xMidYMid meet">
  <path d="M0.817 1.074H0.183V-0.148H0.817ZM0.379 0.327Q0.379 0.322 0.373 0.319Q0.368 0.316 0.366 0.322Q0.362 0.327 0.361 0.334Q0.361 0.341 0.360 0.349Q0.354 0.362 0.354 0.379Q0.354 0.386 0.359 0.396Q0.365 0.406 0.368 0.410Q0.372 0.414 0.374 0.421Q0.377 0.428 0.381 0.424Q0.390 0.421 0.388 0.413Q0.386 0.405 0.381 0.392Q0.380 0.381 0.374 0.365Q0.368 0.349 0.372 0.345Q0.373 0.343 0.374 0.341Q0.375 0.338 0.377 0.334Q0.379 0.331 0.379 0.327ZM0.395 0.339Q0.395 0.341 0.395 0.351Q0.395 0.362 0.396 0.373Q0.396 0.384 0.397 0.390Q0.398 0.396 0.398 0.391Q0.398 0.380 0.401 0.356Q0.403 0.333 0.407 0.333Q0.409 0.333 0.417 0.332Q0.426 0.331 0.439 0.328Q0.451 0.327 0.468 0.326Q0.449 0.323 0.433 0.326Q0.420 0.327 0.408 0.330Q0.396 0.333 0.395 0.339ZM0.593 0.466Q0.605 0.451 0.609 0.441Q0.611 0.439 0.612 0.426Q0.613 0.414 0.616 0.410Q0.621 0.406 0.626 0.384Q0.632 0.361 0.631 0.343Q0.627 0.323 0.619 0.306Q0.611 0.290 0.608 0.284Q0.604 0.275 0.599 0.262Q0.593 0.248 0.591 0.255Q0.590 0.262 0.594 0.268Q0.597 0.274 0.586 0.273Q0.578 0.271 0.566 0.267Q0.553 0.262 0.543 0.256Q0.537 0.255 0.520 0.255Q0.503 0.254 0.487 0.251Q0.467 0.250 0.443 0.250Q0.426 0.250 0.414 0.251Q0.387 0.255 0.373 0.260Q0.360 0.267 0.342 0.274Q0.324 0.280 0.320 0.285Q0.318 0.290 0.320 0.293Q0.322 0.297 0.324 0.303Q0.326 0.308 0.326 0.329Q0.326 0.350 0.326 0.364Q0.326 0.371 0.325 0.409Q0.324 0.448 0.324 0.495Q0.324 0.542 0.325 0.582Q0.326 0.622 0.330 0.630Q0.337 0.648 0.338 0.654Q0.339 0.661 0.339 0.670Q0.339 0.676 0.344 0.695Q0.349 0.714 0.375 0.720Q0.402 0.725 0.441 0.727Q0.479 0.729 0.502 0.725Q0.528 0.721 0.547 0.721Q0.566 0.721 0.575 0.720Q0.586 0.717 0.590 0.719Q0.593 0.720 0.596 0.717Q0.597 0.714 0.606 0.705Q0.615 0.695 0.625 0.682Q0.634 0.670 0.642 0.653Q0.651 0.637 0.651 0.622Q0.651 0.591 0.647 0.571Q0.643 0.551 0.635 0.535Q0.627 0.521 0.624 0.506Q0.620 0.492 0.615 0.487Q0.609 0.483 0.605 0.487L0.602 0.492Q0.598 0.486 0.597 0.481Q0.591 0.471 0.593 0.466ZM0.502 0.489Q0.524 0.489 0.554 0.511Q0.585 0.534 0.604 0.558Q0.613 0.570 0.611 0.587Q0.609 0.604 0.601 0.621Q0.593 0.637 0.582 0.651Q0.571 0.666 0.557 0.672Q0.545 0.679 0.523 0.681Q0.502 0.683 0.481 0.682Q0.460 0.682 0.443 0.679Q0.426 0.676 0.425 0.674Q0.421 0.672 0.403 0.679Q0.395 0.683 0.385 0.680Q0.375 0.678 0.366 0.672Q0.361 0.670 0.359 0.659Q0.357 0.649 0.357 0.637V0.607Q0.356 0.613 0.357 0.619Q0.357 0.630 0.365 0.641Q0.369 0.649 0.373 0.649Q0.377 0.649 0.381 0.649Q0.387 0.648 0.386 0.631Q0.384 0.614 0.380 0.606Q0.377 0.596 0.376 0.579Q0.375 0.561 0.375 0.553Q0.375 0.547 0.379 0.534L0.381 0.523L0.375 0.527Q0.366 0.531 0.366 0.535Q0.365 0.539 0.363 0.551Q0.361 0.564 0.357 0.577Q0.354 0.595 0.350 0.614L0.354 0.521H0.356Q0.357 0.521 0.361 0.516Q0.365 0.512 0.375 0.498L0.386 0.483Q0.390 0.486 0.395 0.487Q0.398 0.489 0.403 0.491Q0.407 0.493 0.413 0.494Q0.429 0.494 0.447 0.493Q0.462 0.492 0.477 0.490Q0.492 0.489 0.502 0.489ZM0.489 0.299Q0.503 0.297 0.520 0.300Q0.537 0.304 0.560 0.319Q0.583 0.333 0.583 0.356Q0.583 0.380 0.579 0.406Q0.575 0.421 0.571 0.430Q0.566 0.440 0.562 0.447Q0.555 0.453 0.551 0.459L0.575 0.448Q0.571 0.459 0.567 0.466Q0.563 0.474 0.560 0.478Q0.557 0.483 0.555 0.483Q0.549 0.483 0.544 0.473Q0.540 0.464 0.537 0.462Q0.532 0.458 0.521 0.453Q0.510 0.447 0.497 0.447Q0.491 0.447 0.473 0.447Q0.456 0.447 0.436 0.447Q0.417 0.447 0.402 0.448Q0.386 0.448 0.381 0.448Q0.373 0.452 0.375 0.463Q0.377 0.474 0.380 0.483Q0.384 0.494 0.369 0.498Q0.362 0.501 0.356 0.501V0.477Q0.356 0.466 0.355 0.457Q0.354 0.447 0.354 0.441Q0.354 0.436 0.354 0.414Q0.354 0.392 0.354 0.368Q0.354 0.345 0.355 0.325Q0.356 0.305 0.357 0.304Q0.361 0.301 0.378 0.298Q0.395 0.296 0.399 0.297Q0.405 0.299 0.409 0.307Q0.413 0.315 0.415 0.308Q0.415 0.308 0.424 0.306Q0.433 0.304 0.446 0.302Q0.458 0.301 0.470 0.300Q0.482 0.299 0.489 0.299ZM0.545 0.207Q0.575 0.225 0.598 0.244Q0.619 0.262 0.634 0.283Q0.650 0.304 0.651 0.326Q0.651 0.369 0.647 0.408Q0.643 0.448 0.638 0.456Q0.623 0.466 0.625 0.470Q0.625 0.471 0.634 0.482Q0.643 0.493 0.652 0.508Q0.662 0.524 0.669 0.542Q0.676 0.561 0.674 0.579Q0.670 0.614 0.660 0.646Q0.651 0.679 0.632 0.706Q0.613 0.731 0.596 0.744Q0.586 0.751 0.579 0.757Q0.604 0.743 0.623 0.721Q0.640 0.702 0.657 0.673Q0.674 0.644 0.680 0.604Q0.685 0.564 0.677 0.538Q0.670 0.513 0.660 0.500Q0.651 0.487 0.642 0.480Q0.634 0.474 0.635 0.466Q0.638 0.459 0.643 0.444Q0.649 0.429 0.653 0.408Q0.658 0.388 0.661 0.366Q0.664 0.345 0.658 0.323Q0.653 0.304 0.638 0.283Q0.623 0.262 0.607 0.245Q0.590 0.228 0.573 0.217Q0.556 0.207 0.545 0.207ZM0.425 0.398 0.507 0.403Q0.502 0.399 0.488 0.399Q0.475 0.398 0.462 0.398ZM0.402 0.626 0.451 0.638 0.409 0.626V0.614Q0.409 0.608 0.409 0.604Q0.410 0.599 0.410 0.595Q0.410 0.591 0.409 0.582Q0.409 0.572 0.409 0.561V0.535Q0.405 0.536 0.405 0.550Q0.405 0.565 0.403 0.583Q0.402 0.602 0.402 0.626Z" fill="black"/>
</svg>
