<svg xmlns="http://www.w3.org/2000/svg" viewBox="0 0 1 1" preserveAspectRatio="xMidYMid meet">
  <path d="M0.817 1.074H0.183V-0.148H0.817ZM0.621 0.398Q0.629 0.411 0.640 0.411Q0.651 0.412 0.653 0.409Q0.657 0.405 0.664 0.385Q0.671 0.364 0.663 0.344Q0.657 0.333 0.641 0.316Q0.626 0.298 0.607 0.281Q0.588 0.263 0.573 0.250Q0.558 0.237 0.555 0.234Q0.546 0.231 0.545 0.228Q0.545 0.224 0.538 0.227Q0.531 0.231 0.516 0.234Q0.501 0.237 0.493 0.237Q0.487 0.237 0.471 0.240Q0.455 0.243 0.434 0.254Q0.413 0.264 0.391 0.284Q0.368 0.305 0.355 0.339Q0.331 0.405 0.329 0.478Q0.327 0.551 0.365 0.617Q0.402 0.684 0.458 0.711Q0.513 0.737 0.579 0.718Q0.610 0.707 0.629 0.684Q0.649 0.661 0.659 0.634Q0.670 0.608 0.673 0.586Q0.676 0.564 0.679 0.556Q0.680 0.541 0.674 0.526Q0.668 0.511 0.661 0.511Q0.652 0.511 0.643 0.514Q0.634 0.518 0.632 0.528Q0.629 0.530 0.627 0.541Q0.626 0.552 0.624 0.565Q0.621 0.577 0.618 0.589Q0.615 0.600 0.614 0.605Q0.610 0.611 0.601 0.624Q0.591 0.636 0.576 0.647Q0.561 0.659 0.540 0.667Q0.520 0.676 0.499 0.672Q0.455 0.665 0.412 0.612Q0.369 0.559 0.366 0.476Q0.365 0.435 0.377 0.405Q0.389 0.375 0.406 0.354Q0.422 0.333 0.439 0.321Q0.456 0.309 0.464 0.305Q0.472 0.302 0.490 0.302Q0.508 0.303 0.528 0.306Q0.549 0.310 0.565 0.316Q0.581 0.321 0.585 0.322Q0.592 0.329 0.598 0.339Q0.604 0.349 0.606 0.358Q0.610 0.364 0.613 0.379Q0.615 0.393 0.621 0.398ZM0.663 0.421Q0.668 0.423 0.675 0.423Q0.687 0.423 0.689 0.415Q0.693 0.405 0.693 0.374Q0.693 0.344 0.674 0.309Q0.653 0.273 0.626 0.248Q0.599 0.224 0.581 0.215Q0.573 0.211 0.564 0.207Q0.555 0.204 0.549 0.201Q0.541 0.197 0.532 0.197Q0.558 0.208 0.584 0.222Q0.604 0.234 0.625 0.253Q0.646 0.272 0.659 0.294Q0.683 0.341 0.687 0.366Q0.691 0.392 0.686 0.401Q0.675 0.415 0.671 0.417Q0.667 0.421 0.663 0.421ZM0.407 0.417Q0.396 0.449 0.399 0.479Q0.402 0.509 0.408 0.530Q0.415 0.552 0.422 0.567Q0.429 0.582 0.429 0.583Q0.429 0.587 0.416 0.552Q0.404 0.517 0.408 0.447Q0.410 0.412 0.423 0.388Q0.437 0.364 0.452 0.351Q0.472 0.333 0.493 0.324Q0.491 0.322 0.481 0.324Q0.472 0.326 0.458 0.337Q0.444 0.347 0.429 0.366Q0.415 0.386 0.407 0.417ZM0.697 0.533Q0.697 0.560 0.691 0.589Q0.687 0.613 0.677 0.641Q0.667 0.669 0.646 0.688Q0.627 0.708 0.608 0.721Q0.588 0.733 0.573 0.742Q0.554 0.750 0.538 0.754Q0.566 0.746 0.592 0.733Q0.615 0.723 0.636 0.706Q0.657 0.688 0.671 0.659Q0.686 0.634 0.690 0.611Q0.694 0.587 0.697 0.570Q0.698 0.551 0.697 0.533Z" fill="black"/>
</svg>
