<svg xmlns="http://www.w3.org/2000/svg" viewBox="0 0 1 1" preserveAspectRatio="xMidYMid meet">
  <path d="M0.817 1.074H0.183V-0.148H0.817ZM0.343 0.293Q0.343 0.308 0.343 0.320Q0.342 0.331 0.332 0.364Q0.330 0.380 0.331 0.416Q0.331 0.452 0.334 0.490Q0.337 0.528 0.340 0.558Q0.342 0.588 0.342 0.593Q0.342 0.602 0.344 0.627Q0.345 0.652 0.345 0.664Q0.345 0.671 0.347 0.679Q0.350 0.688 0.361 0.696Q0.373 0.703 0.398 0.710Q0.422 0.717 0.467 0.717Q0.551 0.717 0.592 0.673Q0.632 0.630 0.657 0.565Q0.669 0.534 0.667 0.489Q0.666 0.444 0.656 0.401Q0.646 0.357 0.632 0.322Q0.619 0.286 0.605 0.271Q0.591 0.255 0.572 0.245Q0.553 0.236 0.533 0.231Q0.513 0.226 0.497 0.226Q0.482 0.225 0.475 0.226Q0.463 0.231 0.434 0.230Q0.405 0.228 0.391 0.228Q0.377 0.228 0.363 0.234Q0.350 0.241 0.347 0.255Q0.345 0.262 0.345 0.269Q0.343 0.274 0.343 0.281Q0.343 0.289 0.343 0.293ZM0.379 0.278Q0.395 0.285 0.409 0.289Q0.437 0.297 0.451 0.292Q0.456 0.290 0.471 0.287Q0.487 0.284 0.505 0.284Q0.523 0.284 0.540 0.290Q0.557 0.296 0.571 0.309Q0.581 0.323 0.596 0.353Q0.610 0.384 0.619 0.420Q0.628 0.457 0.626 0.499Q0.625 0.542 0.605 0.581Q0.585 0.619 0.565 0.637Q0.545 0.655 0.529 0.660Q0.513 0.665 0.500 0.662Q0.488 0.660 0.482 0.659Q0.475 0.659 0.466 0.657Q0.456 0.656 0.447 0.656Q0.437 0.656 0.425 0.655Q0.425 0.659 0.421 0.661Q0.414 0.669 0.407 0.664Q0.398 0.659 0.394 0.655Q0.390 0.652 0.395 0.642Q0.398 0.634 0.400 0.632Q0.402 0.631 0.399 0.619Q0.398 0.608 0.393 0.587Q0.387 0.566 0.387 0.554Q0.387 0.549 0.386 0.515Q0.385 0.482 0.383 0.443Q0.381 0.403 0.381 0.370Q0.380 0.337 0.380 0.327Q0.380 0.319 0.380 0.311Q0.379 0.304 0.379 0.296ZM0.410 0.319Q0.410 0.399 0.413 0.463Q0.414 0.517 0.414 0.562Q0.415 0.607 0.417 0.607Q0.419 0.608 0.420 0.578Q0.422 0.547 0.423 0.507Q0.425 0.468 0.425 0.432Q0.426 0.396 0.426 0.387Q0.426 0.379 0.426 0.367Q0.426 0.356 0.428 0.345Q0.428 0.332 0.429 0.320L0.475 0.315Q0.458 0.313 0.444 0.313Q0.432 0.313 0.422 0.314Q0.413 0.315 0.410 0.319ZM0.692 0.392Q0.697 0.441 0.696 0.487Q0.693 0.528 0.684 0.570Q0.676 0.612 0.653 0.641Q0.608 0.697 0.573 0.714Q0.537 0.731 0.521 0.733Q0.506 0.739 0.486 0.739H0.463Q0.491 0.744 0.523 0.739Q0.549 0.736 0.579 0.722Q0.609 0.708 0.635 0.676Q0.687 0.612 0.697 0.537Q0.706 0.463 0.692 0.392Z" fill="black"/>
</svg>
