<svg xmlns="http://www.w3.org/2000/svg" viewBox="0 0 1 1" preserveAspectRatio="xMidYMid meet">
  <path d="M0.817 1.074H0.183V-0.148H0.817ZM0.566 0.301Q0.578 0.301 0.598 0.304Q0.617 0.307 0.632 0.304Q0.649 0.303 0.655 0.292Q0.662 0.282 0.664 0.272Q0.666 0.261 0.657 0.244Q0.649 0.227 0.639 0.223Q0.632 0.219 0.618 0.222Q0.604 0.224 0.596 0.229Q0.590 0.232 0.578 0.234Q0.566 0.236 0.553 0.238Q0.540 0.240 0.526 0.241Q0.513 0.242 0.506 0.242Q0.499 0.242 0.477 0.241Q0.456 0.240 0.431 0.239Q0.406 0.238 0.385 0.239Q0.364 0.240 0.357 0.243Q0.350 0.248 0.345 0.265Q0.341 0.282 0.339 0.303Q0.336 0.325 0.335 0.344Q0.334 0.364 0.334 0.375Q0.334 0.386 0.336 0.404Q0.338 0.421 0.340 0.437Q0.341 0.453 0.342 0.467Q0.343 0.481 0.341 0.486Q0.339 0.494 0.335 0.514Q0.331 0.535 0.331 0.553Q0.331 0.561 0.333 0.584Q0.334 0.607 0.337 0.631Q0.339 0.656 0.341 0.676Q0.343 0.697 0.343 0.698Q0.343 0.703 0.350 0.716Q0.357 0.729 0.368 0.732Q0.373 0.732 0.402 0.733Q0.430 0.733 0.465 0.733Q0.499 0.733 0.528 0.733Q0.558 0.733 0.562 0.733Q0.567 0.733 0.580 0.736Q0.592 0.739 0.606 0.742Q0.619 0.744 0.629 0.746Q0.639 0.747 0.645 0.747Q0.654 0.747 0.669 0.737Q0.685 0.726 0.687 0.714Q0.687 0.702 0.683 0.682Q0.680 0.663 0.666 0.660Q0.654 0.656 0.625 0.667Q0.596 0.678 0.579 0.680Q0.571 0.683 0.549 0.681Q0.528 0.679 0.504 0.676Q0.480 0.673 0.460 0.671Q0.440 0.669 0.434 0.669Q0.426 0.669 0.409 0.673Q0.393 0.678 0.387 0.673Q0.380 0.669 0.384 0.656Q0.388 0.644 0.388 0.640Q0.388 0.637 0.388 0.627Q0.387 0.618 0.383 0.608Q0.381 0.606 0.381 0.590Q0.380 0.573 0.382 0.556Q0.383 0.540 0.385 0.526Q0.387 0.512 0.391 0.511Q0.396 0.506 0.407 0.509Q0.418 0.512 0.426 0.508Q0.429 0.508 0.444 0.507Q0.459 0.506 0.476 0.506Q0.493 0.506 0.507 0.506Q0.522 0.506 0.528 0.508Q0.536 0.512 0.542 0.514Q0.548 0.517 0.567 0.513Q0.588 0.511 0.592 0.499Q0.596 0.487 0.597 0.468Q0.600 0.448 0.587 0.444Q0.574 0.439 0.565 0.434Q0.554 0.432 0.537 0.439Q0.520 0.445 0.510 0.447Q0.505 0.447 0.493 0.447Q0.482 0.447 0.470 0.446Q0.459 0.444 0.449 0.443Q0.438 0.441 0.433 0.441Q0.427 0.444 0.418 0.444Q0.410 0.444 0.400 0.445Q0.392 0.447 0.381 0.447V0.382Q0.381 0.357 0.381 0.336Q0.381 0.314 0.383 0.308Q0.429 0.307 0.468 0.304Q0.501 0.303 0.530 0.302Q0.559 0.301 0.566 0.301ZM0.501 0.327H0.406Q0.404 0.342 0.404 0.354V0.388Q0.404 0.402 0.403 0.406Q0.400 0.411 0.399 0.415Q0.426 0.415 0.446 0.414Q0.465 0.411 0.479 0.411Q0.494 0.411 0.498 0.410Q0.499 0.410 0.490 0.410Q0.482 0.410 0.470 0.408Q0.459 0.406 0.448 0.404Q0.436 0.402 0.434 0.392Q0.429 0.376 0.428 0.360Q0.427 0.345 0.433 0.342Q0.436 0.339 0.447 0.338Q0.457 0.337 0.469 0.333Q0.483 0.330 0.501 0.327ZM0.554 0.409 0.582 0.428Q0.574 0.418 0.566 0.414Q0.559 0.410 0.554 0.409ZM0.429 0.542Q0.430 0.542 0.442 0.541Q0.453 0.540 0.467 0.538Q0.480 0.536 0.489 0.535Q0.499 0.535 0.498 0.535Q0.493 0.531 0.480 0.532Q0.468 0.534 0.455 0.536Q0.442 0.538 0.434 0.540Q0.427 0.543 0.429 0.542ZM0.404 0.530Q0.404 0.535 0.405 0.550Q0.406 0.566 0.408 0.585Q0.410 0.607 0.411 0.631L0.433 0.627Q0.429 0.633 0.427 0.633Q0.423 0.633 0.422 0.628Q0.422 0.623 0.421 0.606Q0.418 0.588 0.416 0.575Q0.415 0.561 0.411 0.550Q0.408 0.540 0.404 0.530Z" fill="black"/>
</svg>
