<svg xmlns="http://www.w3.org/2000/svg" viewBox="0 0 1 1" preserveAspectRatio="xMidYMid meet">
  <path d="M0.817 1.074H0.183V-0.148H0.817ZM0.354 0.250Q0.350 0.254 0.356 0.267Q0.362 0.279 0.362 0.284Q0.362 0.286 0.359 0.306Q0.356 0.327 0.356 0.345Q0.356 0.353 0.356 0.372Q0.356 0.391 0.356 0.410Q0.357 0.429 0.357 0.446Q0.357 0.462 0.357 0.464Q0.357 0.470 0.357 0.498Q0.357 0.527 0.356 0.560Q0.356 0.593 0.356 0.623Q0.356 0.652 0.356 0.659Q0.356 0.686 0.369 0.690Q0.375 0.691 0.393 0.693Q0.410 0.694 0.415 0.691Q0.421 0.688 0.427 0.682Q0.434 0.676 0.422 0.667Q0.410 0.659 0.404 0.654Q0.398 0.649 0.396 0.641Q0.395 0.637 0.395 0.630Q0.395 0.623 0.395 0.618Q0.395 0.611 0.392 0.606Q0.395 0.608 0.396 0.608Q0.398 0.608 0.399 0.591Q0.399 0.582 0.401 0.570Q0.403 0.558 0.407 0.547Q0.410 0.535 0.413 0.524Q0.407 0.528 0.403 0.531Q0.395 0.540 0.395 0.549Q0.395 0.554 0.394 0.557Q0.392 0.561 0.392 0.565V0.570L0.381 0.479Q0.390 0.479 0.396 0.481Q0.402 0.482 0.408 0.482Q0.414 0.483 0.419 0.486Q0.422 0.486 0.436 0.487Q0.451 0.489 0.468 0.489Q0.485 0.489 0.499 0.489Q0.513 0.489 0.518 0.486Q0.528 0.482 0.544 0.484Q0.560 0.487 0.568 0.486Q0.578 0.482 0.585 0.473Q0.591 0.464 0.593 0.456Q0.595 0.447 0.583 0.440Q0.571 0.433 0.557 0.436Q0.544 0.440 0.523 0.444Q0.503 0.448 0.496 0.448Q0.490 0.448 0.481 0.448Q0.472 0.447 0.461 0.447Q0.449 0.447 0.439 0.447Q0.429 0.447 0.426 0.448Q0.417 0.452 0.409 0.455Q0.402 0.457 0.398 0.462Q0.396 0.463 0.393 0.460Q0.390 0.456 0.387 0.452Q0.384 0.448 0.382 0.444Q0.380 0.440 0.380 0.438Q0.380 0.434 0.381 0.424Q0.381 0.414 0.384 0.409Q0.384 0.406 0.384 0.391Q0.384 0.375 0.384 0.356Q0.384 0.338 0.384 0.321Q0.384 0.304 0.384 0.298Q0.390 0.279 0.409 0.279Q0.414 0.279 0.426 0.279Q0.438 0.279 0.453 0.280Q0.467 0.281 0.478 0.281Q0.490 0.281 0.496 0.281Q0.500 0.281 0.518 0.280Q0.537 0.279 0.558 0.279Q0.579 0.279 0.597 0.279Q0.615 0.279 0.616 0.281Q0.620 0.285 0.636 0.287Q0.653 0.290 0.668 0.281Q0.674 0.275 0.677 0.267Q0.681 0.258 0.681 0.247Q0.681 0.237 0.678 0.228Q0.676 0.218 0.673 0.214Q0.663 0.206 0.655 0.207Q0.648 0.209 0.627 0.218Q0.605 0.226 0.579 0.234Q0.553 0.243 0.532 0.243Q0.521 0.243 0.492 0.243Q0.464 0.244 0.433 0.244Q0.403 0.245 0.380 0.246Q0.356 0.248 0.354 0.250ZM0.405 0.422Q0.407 0.423 0.408 0.416Q0.409 0.410 0.409 0.401Q0.409 0.392 0.408 0.384Q0.407 0.375 0.405 0.370Q0.405 0.368 0.409 0.359Q0.413 0.350 0.415 0.341Q0.417 0.331 0.418 0.323Q0.419 0.315 0.414 0.313Q0.399 0.309 0.396 0.325Q0.392 0.341 0.394 0.362Q0.395 0.384 0.399 0.403Q0.402 0.421 0.405 0.422ZM0.434 0.322Q0.433 0.320 0.432 0.333Q0.432 0.345 0.430 0.359Q0.429 0.373 0.429 0.386Q0.429 0.399 0.432 0.399Q0.433 0.400 0.435 0.390Q0.438 0.380 0.442 0.366Q0.445 0.353 0.450 0.342Q0.455 0.331 0.460 0.331Q0.463 0.331 0.486 0.330Q0.509 0.328 0.533 0.328H0.601Q0.555 0.331 0.519 0.328Q0.490 0.328 0.464 0.327Q0.438 0.326 0.434 0.322ZM0.510 0.535H0.462Q0.474 0.539 0.485 0.539Q0.503 0.542 0.510 0.535ZM0.433 0.622Q0.433 0.652 0.432 0.665Q0.432 0.679 0.428 0.686Q0.425 0.694 0.422 0.694H0.426Q0.429 0.694 0.433 0.691Q0.434 0.690 0.436 0.677Q0.438 0.664 0.439 0.646Q0.440 0.629 0.440 0.609Q0.440 0.589 0.440 0.576Q0.440 0.561 0.437 0.550Q0.434 0.540 0.432 0.534Q0.426 0.527 0.422 0.521Q0.426 0.528 0.428 0.542Q0.429 0.566 0.433 0.622Z" fill="black"/>
</svg>
