<svg xmlns="http://www.w3.org/2000/svg" viewBox="0 0 1 1" preserveAspectRatio="xMidYMid meet">
  <path d="M0.817 1.074H0.183V-0.148H0.817ZM0.627 0.424Q0.636 0.421 0.646 0.406Q0.657 0.391 0.655 0.373Q0.655 0.364 0.648 0.351Q0.642 0.338 0.632 0.324Q0.622 0.310 0.611 0.297Q0.600 0.285 0.592 0.277Q0.574 0.259 0.543 0.248Q0.513 0.238 0.472 0.243Q0.453 0.247 0.425 0.261Q0.398 0.274 0.372 0.305Q0.346 0.337 0.328 0.385Q0.309 0.433 0.309 0.505Q0.309 0.577 0.331 0.625Q0.353 0.672 0.383 0.699Q0.412 0.726 0.445 0.738Q0.478 0.749 0.499 0.749Q0.520 0.749 0.543 0.739Q0.567 0.728 0.588 0.713Q0.609 0.698 0.624 0.685Q0.638 0.672 0.642 0.667Q0.645 0.661 0.646 0.646Q0.647 0.631 0.647 0.616Q0.647 0.600 0.646 0.585Q0.645 0.570 0.645 0.563Q0.645 0.548 0.647 0.538Q0.650 0.528 0.651 0.516Q0.654 0.505 0.645 0.495Q0.636 0.486 0.630 0.478Q0.626 0.475 0.625 0.472Q0.624 0.470 0.622 0.466Q0.620 0.463 0.620 0.462Q0.613 0.474 0.607 0.481Q0.600 0.487 0.589 0.492Q0.578 0.498 0.564 0.498Q0.535 0.498 0.518 0.497Q0.502 0.496 0.495 0.516Q0.488 0.535 0.500 0.550Q0.513 0.565 0.522 0.567Q0.531 0.572 0.540 0.569Q0.550 0.565 0.558 0.561Q0.566 0.558 0.567 0.554Q0.567 0.550 0.574 0.558Q0.582 0.565 0.592 0.578Q0.601 0.591 0.594 0.620Q0.585 0.653 0.564 0.672Q0.543 0.691 0.499 0.687Q0.478 0.686 0.456 0.671Q0.433 0.657 0.413 0.636Q0.393 0.615 0.381 0.589Q0.368 0.563 0.366 0.534Q0.364 0.505 0.366 0.474Q0.368 0.444 0.374 0.416Q0.380 0.388 0.390 0.366Q0.400 0.345 0.417 0.334Q0.450 0.312 0.477 0.311Q0.505 0.310 0.525 0.316Q0.547 0.324 0.560 0.344Q0.574 0.364 0.583 0.373Q0.592 0.384 0.589 0.400Q0.585 0.415 0.604 0.426Q0.613 0.432 0.620 0.428ZM0.501 0.213Q0.501 0.217 0.526 0.221Q0.552 0.224 0.571 0.236Q0.592 0.248 0.614 0.267Q0.636 0.285 0.647 0.300Q0.657 0.314 0.660 0.330Q0.664 0.345 0.668 0.350Q0.668 0.354 0.668 0.355Q0.669 0.357 0.669 0.358V0.362Q0.666 0.339 0.660 0.319Q0.651 0.300 0.637 0.280Q0.624 0.259 0.600 0.243Q0.574 0.227 0.555 0.221Q0.537 0.214 0.525 0.213Q0.512 0.212 0.501 0.213ZM0.392 0.508Q0.393 0.554 0.406 0.582Q0.418 0.610 0.432 0.627Q0.446 0.645 0.458 0.651Q0.469 0.657 0.472 0.657Q0.476 0.657 0.488 0.645Q0.494 0.638 0.501 0.631Q0.494 0.630 0.487 0.627Q0.480 0.626 0.472 0.623Q0.464 0.620 0.457 0.614Q0.441 0.603 0.426 0.581Q0.411 0.558 0.408 0.494Q0.406 0.463 0.411 0.436Q0.417 0.410 0.423 0.391Q0.430 0.369 0.441 0.350Q0.426 0.364 0.415 0.386Q0.406 0.405 0.397 0.434Q0.388 0.463 0.392 0.508ZM0.552 0.452H0.612Q0.600 0.452 0.588 0.451Q0.577 0.451 0.566 0.450Q0.555 0.448 0.552 0.452ZM0.632 0.459 0.647 0.476Q0.651 0.483 0.656 0.491Q0.662 0.500 0.666 0.505Q0.669 0.510 0.670 0.525Q0.672 0.540 0.672 0.558Q0.672 0.576 0.670 0.592Q0.669 0.608 0.669 0.619Q0.669 0.638 0.667 0.653Q0.666 0.668 0.661 0.675Q0.657 0.679 0.647 0.689Q0.638 0.698 0.627 0.709L0.600 0.737Q0.617 0.725 0.632 0.710Q0.647 0.698 0.659 0.682Q0.672 0.667 0.677 0.648Q0.681 0.630 0.681 0.605Q0.681 0.580 0.680 0.557Q0.679 0.535 0.675 0.518Q0.672 0.501 0.669 0.498Q0.668 0.494 0.662 0.486Q0.657 0.478 0.651 0.470Q0.645 0.463 0.639 0.458Q0.634 0.453 0.632 0.459Z" fill="black"/>
</svg>
