<svg xmlns="http://www.w3.org/2000/svg" viewBox="0 0 1 1" preserveAspectRatio="xMidYMid meet">
  <path d="M0.817 1.074H0.183V-0.148H0.817ZM0.690 0.243Q0.672 0.253 0.655 0.260Q0.642 0.266 0.631 0.273Q0.620 0.280 0.618 0.285Q0.615 0.288 0.613 0.302Q0.612 0.316 0.613 0.331Q0.615 0.345 0.616 0.359Q0.617 0.373 0.617 0.379Q0.617 0.389 0.617 0.404Q0.617 0.419 0.616 0.434Q0.615 0.449 0.613 0.462Q0.611 0.475 0.609 0.477Q0.606 0.487 0.602 0.490Q0.598 0.494 0.591 0.489Q0.583 0.487 0.576 0.479Q0.569 0.471 0.561 0.464Q0.554 0.459 0.526 0.465Q0.498 0.471 0.476 0.471Q0.450 0.471 0.438 0.468Q0.426 0.464 0.422 0.450Q0.418 0.443 0.417 0.438Q0.416 0.432 0.414 0.426Q0.413 0.420 0.413 0.416L0.410 0.431Q0.409 0.436 0.406 0.442Q0.404 0.447 0.400 0.449Q0.386 0.454 0.383 0.435Q0.381 0.416 0.381 0.400Q0.381 0.385 0.380 0.371Q0.380 0.358 0.383 0.345Q0.390 0.321 0.390 0.310Q0.390 0.304 0.386 0.289Q0.384 0.286 0.383 0.284Q0.386 0.284 0.391 0.283Q0.403 0.279 0.404 0.279Q0.405 0.279 0.407 0.297Q0.409 0.316 0.410 0.335Q0.411 0.364 0.411 0.393L0.413 0.283V0.274Q0.413 0.265 0.409 0.265Q0.405 0.265 0.395 0.265Q0.386 0.265 0.372 0.267Q0.358 0.269 0.347 0.277Q0.336 0.284 0.329 0.298Q0.323 0.311 0.323 0.344Q0.323 0.378 0.323 0.414Q0.324 0.450 0.329 0.480Q0.334 0.511 0.334 0.517Q0.334 0.525 0.334 0.553Q0.334 0.581 0.331 0.616Q0.329 0.650 0.329 0.678Q0.329 0.706 0.329 0.708Q0.329 0.710 0.331 0.717Q0.334 0.724 0.337 0.730Q0.340 0.736 0.344 0.742Q0.347 0.747 0.356 0.746Q0.370 0.743 0.385 0.733Q0.400 0.722 0.400 0.713Q0.400 0.709 0.397 0.703Q0.394 0.697 0.390 0.692Q0.386 0.685 0.383 0.679L0.386 0.616Q0.388 0.593 0.389 0.573Q0.390 0.552 0.390 0.548Q0.390 0.542 0.380 0.531Q0.370 0.520 0.381 0.512Q0.390 0.507 0.399 0.509Q0.407 0.511 0.411 0.511Q0.414 0.511 0.429 0.511Q0.445 0.512 0.462 0.514Q0.479 0.516 0.500 0.516Q0.521 0.517 0.534 0.517Q0.560 0.517 0.567 0.516Q0.573 0.516 0.578 0.512Q0.583 0.511 0.587 0.504Q0.592 0.501 0.593 0.499L0.604 0.504Q0.607 0.507 0.612 0.510Q0.617 0.513 0.618 0.516Q0.619 0.520 0.619 0.539Q0.620 0.558 0.624 0.583Q0.627 0.607 0.628 0.629Q0.628 0.651 0.628 0.660Q0.628 0.664 0.628 0.678Q0.627 0.692 0.624 0.706Q0.621 0.719 0.624 0.731Q0.627 0.742 0.629 0.743Q0.637 0.746 0.652 0.739Q0.666 0.732 0.676 0.724Q0.677 0.718 0.677 0.709Q0.676 0.700 0.671 0.688Q0.666 0.675 0.665 0.664Q0.663 0.654 0.663 0.646Q0.663 0.639 0.664 0.617Q0.664 0.595 0.665 0.565Q0.665 0.535 0.665 0.499Q0.665 0.464 0.665 0.434Q0.665 0.404 0.665 0.384Q0.665 0.363 0.665 0.356Q0.665 0.343 0.671 0.324Q0.677 0.305 0.677 0.298Q0.677 0.288 0.666 0.280L0.662 0.274Q0.663 0.272 0.665 0.269Q0.667 0.267 0.672 0.266Q0.676 0.265 0.678 0.265Q0.684 0.265 0.691 0.259Q0.697 0.252 0.690 0.243ZM0.537 0.409 0.431 0.407Q0.436 0.415 0.453 0.415Q0.469 0.416 0.488 0.415ZM0.414 0.557Q0.411 0.556 0.411 0.567Q0.411 0.578 0.411 0.596Q0.411 0.614 0.413 0.630Q0.414 0.646 0.414 0.650Q0.416 0.662 0.416 0.681Q0.416 0.701 0.413 0.712Q0.411 0.717 0.411 0.720Q0.410 0.722 0.410 0.725V0.730Q0.411 0.715 0.414 0.697Q0.418 0.684 0.420 0.665Q0.422 0.647 0.422 0.627Q0.422 0.593 0.422 0.577Q0.422 0.561 0.414 0.557ZM0.697 0.402Q0.697 0.404 0.696 0.422Q0.695 0.441 0.695 0.459Q0.695 0.477 0.695 0.494Q0.695 0.512 0.695 0.513Q0.695 0.517 0.695 0.528Q0.695 0.540 0.695 0.552Q0.695 0.565 0.696 0.578Q0.697 0.591 0.698 0.594Q0.699 0.602 0.699 0.616Q0.699 0.630 0.699 0.650V0.693Q0.700 0.685 0.700 0.676Q0.700 0.662 0.701 0.659V0.606Q0.701 0.590 0.700 0.563Q0.700 0.556 0.701 0.548Q0.701 0.542 0.703 0.534Q0.705 0.527 0.705 0.522Q0.705 0.516 0.703 0.485Q0.701 0.454 0.700 0.416Q0.699 0.373 0.699 0.320Q0.698 0.339 0.698 0.358Q0.698 0.373 0.697 0.386Q0.697 0.398 0.697 0.402Z" fill="black"/>
</svg>
