<svg xmlns="http://www.w3.org/2000/svg" viewBox="0 0 1 1" preserveAspectRatio="xMidYMid meet">
  <path d="M0.817 1.074H0.183V-0.148H0.817ZM0.578 0.225 0.581 0.227Q0.584 0.230 0.591 0.227Q0.599 0.225 0.599 0.222Q0.599 0.218 0.589 0.215Q0.580 0.212 0.573 0.218Q0.567 0.225 0.560 0.227Q0.554 0.231 0.548 0.239Q0.542 0.248 0.515 0.253Q0.489 0.256 0.474 0.255Q0.460 0.254 0.446 0.253Q0.440 0.253 0.428 0.252Q0.417 0.250 0.408 0.252Q0.400 0.253 0.392 0.259Q0.384 0.265 0.383 0.278Q0.380 0.291 0.388 0.296Q0.397 0.301 0.409 0.301Q0.421 0.302 0.432 0.302Q0.444 0.302 0.448 0.305Q0.465 0.327 0.465 0.380Q0.465 0.393 0.466 0.434Q0.467 0.475 0.468 0.522Q0.469 0.569 0.469 0.608Q0.469 0.647 0.469 0.652Q0.467 0.664 0.463 0.674Q0.460 0.685 0.449 0.689Q0.440 0.692 0.433 0.689Q0.426 0.685 0.417 0.686Q0.413 0.686 0.407 0.694Q0.402 0.701 0.397 0.709Q0.392 0.716 0.388 0.724Q0.384 0.732 0.388 0.734Q0.393 0.739 0.420 0.737Q0.449 0.734 0.467 0.734Q0.482 0.734 0.501 0.736Q0.520 0.737 0.535 0.739Q0.549 0.743 0.567 0.743Q0.585 0.742 0.593 0.728Q0.601 0.716 0.604 0.701Q0.608 0.686 0.601 0.679Q0.591 0.669 0.574 0.673Q0.569 0.674 0.559 0.667Q0.550 0.660 0.545 0.660Q0.538 0.660 0.528 0.669Q0.517 0.678 0.512 0.677Q0.508 0.677 0.508 0.666Q0.507 0.655 0.506 0.642Q0.505 0.630 0.505 0.618Q0.505 0.605 0.505 0.599V0.343Q0.505 0.328 0.505 0.321Q0.505 0.314 0.511 0.310Q0.524 0.305 0.537 0.310Q0.542 0.313 0.559 0.317Q0.576 0.320 0.585 0.310Q0.593 0.303 0.601 0.293Q0.610 0.284 0.606 0.274Q0.601 0.254 0.584 0.248Q0.576 0.245 0.571 0.241Q0.567 0.238 0.572 0.235Q0.574 0.231 0.592 0.231Q0.611 0.230 0.615 0.245Q0.616 0.254 0.616 0.261Q0.616 0.268 0.616 0.274V0.286Q0.619 0.272 0.619 0.261Q0.619 0.253 0.617 0.244Q0.615 0.235 0.611 0.231Q0.608 0.227 0.602 0.227Q0.596 0.227 0.591 0.226Q0.584 0.226 0.578 0.225ZM0.444 0.211 0.589 0.215Q0.553 0.212 0.523 0.211Q0.498 0.208 0.475 0.207Q0.452 0.207 0.444 0.211ZM0.541 0.359 0.545 0.637 0.553 0.635Q0.550 0.632 0.550 0.630Q0.550 0.629 0.550 0.627Q0.549 0.625 0.549 0.622Q0.547 0.617 0.546 0.575Q0.545 0.533 0.543 0.485ZM0.556 0.643Q0.556 0.647 0.561 0.648Q0.567 0.650 0.575 0.650Q0.584 0.650 0.590 0.651Q0.597 0.652 0.599 0.652Q0.603 0.655 0.611 0.664Q0.619 0.673 0.619 0.679Q0.619 0.686 0.620 0.695Q0.622 0.703 0.620 0.698Q0.619 0.696 0.619 0.675Q0.620 0.655 0.603 0.647Q0.586 0.637 0.573 0.633Q0.560 0.630 0.556 0.643Z" fill="black"/>
</svg>
