<svg xmlns="http://www.w3.org/2000/svg" viewBox="0 0 1 1" preserveAspectRatio="xMidYMid meet">
  <path d="M0.817 1.074H0.183V-0.148H0.817ZM0.628 0.284Q0.626 0.278 0.625 0.266Q0.623 0.254 0.616 0.254Q0.610 0.254 0.600 0.269Q0.591 0.284 0.586 0.295Q0.586 0.298 0.586 0.322Q0.586 0.346 0.587 0.381Q0.589 0.415 0.589 0.454Q0.589 0.492 0.587 0.528Q0.586 0.564 0.585 0.591Q0.585 0.618 0.581 0.626Q0.573 0.655 0.572 0.666Q0.572 0.678 0.547 0.685Q0.537 0.689 0.528 0.690Q0.519 0.690 0.512 0.692Q0.505 0.694 0.500 0.694L0.512 0.684Q0.503 0.682 0.496 0.679Q0.482 0.677 0.470 0.671Q0.461 0.666 0.445 0.656Q0.428 0.647 0.421 0.620Q0.416 0.594 0.417 0.577Q0.417 0.560 0.421 0.553Q0.422 0.549 0.430 0.546Q0.435 0.545 0.441 0.545L0.433 0.529L0.422 0.535Q0.418 0.539 0.414 0.542Q0.410 0.545 0.409 0.548Q0.406 0.552 0.400 0.555Q0.393 0.558 0.387 0.568Q0.381 0.577 0.379 0.594Q0.377 0.611 0.387 0.637Q0.402 0.692 0.438 0.716Q0.473 0.739 0.507 0.739Q0.541 0.739 0.576 0.711Q0.611 0.682 0.620 0.635Q0.623 0.611 0.624 0.554Q0.625 0.497 0.626 0.437Q0.628 0.367 0.628 0.284ZM0.449 0.587Q0.449 0.583 0.450 0.601Q0.452 0.618 0.457 0.626Q0.461 0.636 0.469 0.643Q0.478 0.650 0.484 0.650Q0.488 0.650 0.494 0.647Q0.498 0.644 0.500 0.641Q0.496 0.641 0.490 0.639Q0.481 0.636 0.477 0.630Q0.470 0.624 0.460 0.613Q0.449 0.601 0.449 0.587ZM0.656 0.320Q0.655 0.399 0.655 0.460V0.606Q0.655 0.611 0.653 0.624Q0.651 0.636 0.648 0.641Q0.643 0.650 0.643 0.652V0.656Q0.645 0.648 0.649 0.641Q0.656 0.625 0.658 0.605Q0.660 0.594 0.659 0.547Q0.658 0.500 0.658 0.452Q0.656 0.392 0.656 0.320ZM0.656 0.265Q0.656 0.261 0.656 0.261Q0.655 0.260 0.655 0.257L0.652 0.256Q0.652 0.260 0.655 0.263Q0.655 0.267 0.656 0.268Q0.656 0.268 0.656 0.265ZM0.648 0.233Q0.649 0.227 0.641 0.230Q0.633 0.233 0.630 0.238Q0.626 0.244 0.636 0.240Q0.645 0.237 0.648 0.233Z" fill="black"/>
</svg>
