<svg xmlns="http://www.w3.org/2000/svg" viewBox="0 0 1 1" preserveAspectRatio="xMidYMid meet">
  <path d="M0.817 1.074H0.183V-0.148H0.817ZM0.686 0.241Q0.685 0.237 0.673 0.234Q0.660 0.231 0.656 0.231Q0.655 0.233 0.648 0.237Q0.644 0.238 0.643 0.242L0.634 0.245Q0.632 0.248 0.622 0.254Q0.614 0.260 0.599 0.281Q0.585 0.302 0.576 0.310Q0.572 0.316 0.558 0.330Q0.545 0.343 0.531 0.356Q0.517 0.370 0.504 0.384Q0.490 0.397 0.486 0.404Q0.473 0.418 0.464 0.435Q0.455 0.452 0.452 0.454Q0.449 0.457 0.436 0.466Q0.424 0.475 0.411 0.487Q0.399 0.500 0.386 0.511Q0.373 0.522 0.371 0.522Q0.369 0.522 0.364 0.492Q0.362 0.475 0.362 0.458Q0.362 0.441 0.367 0.442Q0.369 0.445 0.376 0.452Q0.383 0.458 0.387 0.457Q0.389 0.454 0.388 0.447Q0.388 0.439 0.388 0.430Q0.388 0.427 0.388 0.415Q0.388 0.404 0.388 0.392Q0.389 0.380 0.389 0.369Q0.389 0.359 0.389 0.356Q0.389 0.351 0.386 0.342Q0.384 0.333 0.384 0.331Q0.384 0.327 0.390 0.309Q0.397 0.291 0.397 0.283Q0.397 0.279 0.395 0.274Q0.393 0.268 0.392 0.263Q0.388 0.257 0.387 0.253Q0.387 0.250 0.388 0.249Q0.392 0.245 0.397 0.245Q0.409 0.245 0.413 0.250Q0.418 0.254 0.418 0.261Q0.418 0.268 0.421 0.295Q0.424 0.322 0.421 0.358Q0.418 0.377 0.417 0.395Q0.418 0.392 0.421 0.385Q0.422 0.381 0.423 0.376Q0.424 0.370 0.426 0.367Q0.426 0.363 0.427 0.345Q0.428 0.328 0.428 0.309Q0.428 0.290 0.427 0.273Q0.426 0.256 0.426 0.253Q0.424 0.249 0.418 0.239Q0.411 0.230 0.409 0.227Q0.406 0.227 0.397 0.235Q0.392 0.238 0.387 0.244H0.381Q0.377 0.244 0.375 0.246Q0.373 0.248 0.369 0.249Q0.361 0.253 0.350 0.263Q0.340 0.272 0.338 0.279Q0.332 0.286 0.335 0.294Q0.338 0.302 0.338 0.308Q0.338 0.310 0.338 0.319Q0.339 0.328 0.340 0.339Q0.342 0.350 0.343 0.359Q0.344 0.369 0.344 0.374Q0.344 0.380 0.344 0.395Q0.345 0.409 0.346 0.425Q0.346 0.441 0.348 0.453Q0.350 0.465 0.350 0.467Q0.350 0.473 0.351 0.492Q0.352 0.511 0.353 0.524Q0.356 0.539 0.353 0.549Q0.349 0.560 0.349 0.571Q0.349 0.576 0.349 0.600Q0.349 0.624 0.349 0.651Q0.349 0.678 0.350 0.701Q0.350 0.724 0.350 0.727Q0.357 0.743 0.377 0.737Q0.388 0.732 0.397 0.724Q0.406 0.716 0.406 0.709Q0.406 0.703 0.403 0.696Q0.400 0.689 0.400 0.685Q0.399 0.679 0.399 0.667Q0.399 0.656 0.397 0.648Q0.397 0.643 0.396 0.632Q0.395 0.622 0.394 0.611Q0.393 0.599 0.393 0.589Q0.393 0.579 0.393 0.577Q0.393 0.575 0.391 0.573Q0.389 0.571 0.395 0.563Q0.400 0.553 0.405 0.546Q0.409 0.539 0.416 0.534Q0.418 0.530 0.426 0.522Q0.433 0.515 0.442 0.505Q0.449 0.495 0.460 0.482L0.464 0.485Q0.465 0.486 0.468 0.488Q0.471 0.490 0.475 0.493Q0.478 0.497 0.488 0.509Q0.498 0.522 0.509 0.537Q0.519 0.553 0.530 0.569Q0.541 0.584 0.545 0.592Q0.550 0.601 0.561 0.614Q0.572 0.626 0.581 0.641Q0.591 0.656 0.597 0.669Q0.604 0.682 0.608 0.686Q0.614 0.697 0.620 0.712Q0.625 0.726 0.633 0.734Q0.644 0.749 0.668 0.734Q0.682 0.726 0.684 0.710Q0.686 0.694 0.685 0.685Q0.685 0.678 0.679 0.676Q0.673 0.674 0.664 0.669Q0.662 0.667 0.655 0.657Q0.648 0.648 0.639 0.636Q0.630 0.624 0.623 0.613Q0.615 0.601 0.611 0.594Q0.606 0.587 0.589 0.563Q0.572 0.539 0.550 0.515Q0.528 0.485 0.501 0.452V0.449Q0.501 0.446 0.507 0.441Q0.512 0.435 0.536 0.408Q0.560 0.382 0.580 0.365Q0.591 0.356 0.605 0.344Q0.620 0.331 0.632 0.318Q0.645 0.305 0.655 0.294Q0.664 0.284 0.667 0.280Q0.668 0.278 0.666 0.272Q0.663 0.265 0.660 0.260Q0.655 0.253 0.651 0.245L0.656 0.242Q0.660 0.238 0.662 0.241Q0.664 0.245 0.670 0.248Q0.674 0.249 0.681 0.249H0.685L0.688 0.260Q0.691 0.267 0.691 0.274Q0.691 0.278 0.688 0.278Q0.693 0.271 0.692 0.258Q0.691 0.244 0.686 0.241ZM0.446 0.542Q0.440 0.552 0.433 0.558Q0.421 0.575 0.421 0.579Q0.421 0.582 0.422 0.594Q0.422 0.605 0.424 0.618Q0.426 0.630 0.427 0.642Q0.428 0.654 0.428 0.655Q0.428 0.660 0.429 0.678Q0.430 0.697 0.429 0.703L0.424 0.713Q0.422 0.716 0.421 0.719Q0.426 0.715 0.429 0.707Q0.433 0.697 0.435 0.685Q0.436 0.673 0.435 0.652Q0.433 0.611 0.432 0.593Q0.430 0.575 0.435 0.567Q0.436 0.564 0.439 0.559Q0.441 0.554 0.442 0.552Q0.444 0.546 0.446 0.542ZM0.549 0.446Q0.569 0.475 0.586 0.503Q0.601 0.524 0.615 0.546Q0.628 0.569 0.634 0.577Q0.643 0.587 0.653 0.601Q0.663 0.614 0.673 0.629Q0.682 0.644 0.691 0.655Q0.699 0.666 0.699 0.667Q0.699 0.671 0.701 0.680Q0.703 0.689 0.703 0.697Q0.703 0.701 0.702 0.705Q0.701 0.709 0.701 0.713Q0.699 0.719 0.699 0.720Q0.703 0.712 0.705 0.703Q0.709 0.686 0.705 0.669Q0.703 0.662 0.679 0.628Q0.655 0.594 0.628 0.554Q0.601 0.515 0.576 0.483Q0.550 0.452 0.549 0.446Z" fill="black"/>
</svg>
