<svg xmlns="http://www.w3.org/2000/svg" viewBox="0 0 1 1" preserveAspectRatio="xMidYMid meet">
  <path d="M0.816 1.074H0.184V-0.148H0.816ZM0.391 0.217Q0.377 0.212 0.365 0.222Q0.354 0.231 0.351 0.238Q0.347 0.247 0.352 0.258Q0.358 0.269 0.358 0.273Q0.358 0.274 0.357 0.301Q0.357 0.329 0.355 0.362Q0.354 0.396 0.354 0.427Q0.354 0.459 0.354 0.470Q0.354 0.480 0.356 0.516Q0.358 0.552 0.361 0.591Q0.364 0.630 0.366 0.662Q0.369 0.694 0.370 0.699Q0.373 0.707 0.388 0.713Q0.403 0.718 0.407 0.718Q0.409 0.718 0.442 0.719Q0.475 0.720 0.515 0.721Q0.555 0.721 0.588 0.723Q0.621 0.724 0.624 0.724Q0.631 0.724 0.637 0.727Q0.643 0.730 0.653 0.730Q0.661 0.730 0.674 0.724Q0.688 0.717 0.691 0.700Q0.695 0.683 0.686 0.667Q0.677 0.651 0.664 0.651Q0.651 0.651 0.624 0.658Q0.597 0.665 0.586 0.665H0.436Q0.430 0.665 0.418 0.665Q0.407 0.666 0.407 0.661Q0.407 0.657 0.405 0.630Q0.402 0.604 0.402 0.593Q0.402 0.592 0.402 0.577Q0.402 0.562 0.401 0.538Q0.400 0.515 0.400 0.488Q0.400 0.461 0.400 0.434V0.281Q0.411 0.274 0.408 0.249Q0.406 0.224 0.391 0.217ZM0.433 0.247Q0.432 0.349 0.432 0.430Q0.432 0.465 0.432 0.497Q0.432 0.530 0.432 0.556Q0.433 0.582 0.434 0.599Q0.436 0.615 0.437 0.615L0.443 0.617ZM0.631 0.751 0.488 0.749Q0.495 0.754 0.518 0.754Q0.541 0.754 0.567 0.754Q0.597 0.754 0.631 0.751ZM0.710 0.696Q0.707 0.707 0.702 0.714Q0.698 0.721 0.694 0.727Q0.689 0.733 0.684 0.736Q0.677 0.739 0.665 0.739Q0.659 0.739 0.655 0.737Q0.670 0.744 0.681 0.743Q0.689 0.741 0.698 0.733Q0.707 0.724 0.710 0.696Z" fill="black"/>
</svg>
