<svg xmlns="http://www.w3.org/2000/svg" viewBox="0 0 1 1" preserveAspectRatio="xMidYMid meet">
  <path d="M0.816 1.074H0.184V-0.148H0.816ZM0.671 0.261Q0.661 0.263 0.649 0.276Q0.638 0.288 0.626 0.306Q0.615 0.324 0.604 0.344Q0.593 0.365 0.582 0.378Q0.572 0.393 0.559 0.417Q0.547 0.441 0.534 0.465Q0.521 0.488 0.506 0.509Q0.492 0.530 0.479 0.538Q0.465 0.548 0.457 0.539Q0.449 0.530 0.444 0.516Q0.439 0.502 0.436 0.487Q0.434 0.473 0.433 0.470Q0.429 0.464 0.418 0.445Q0.407 0.426 0.386 0.407Q0.376 0.396 0.359 0.373Q0.342 0.351 0.325 0.328Q0.308 0.305 0.293 0.289Q0.279 0.273 0.274 0.279Q0.268 0.284 0.270 0.294Q0.272 0.305 0.277 0.317Q0.282 0.328 0.287 0.338Q0.293 0.348 0.293 0.352Q0.293 0.356 0.292 0.367Q0.291 0.378 0.289 0.393Q0.287 0.407 0.286 0.421Q0.285 0.435 0.282 0.442Q0.280 0.449 0.279 0.486Q0.278 0.523 0.277 0.566Q0.275 0.608 0.275 0.644Q0.274 0.680 0.274 0.685Q0.272 0.695 0.274 0.700Q0.275 0.705 0.298 0.712Q0.309 0.716 0.319 0.710Q0.328 0.703 0.334 0.692Q0.340 0.681 0.345 0.671Q0.350 0.661 0.351 0.655Q0.351 0.651 0.351 0.621Q0.352 0.590 0.351 0.555Q0.351 0.521 0.349 0.493Q0.347 0.465 0.344 0.465Q0.335 0.466 0.329 0.484Q0.323 0.502 0.316 0.515Q0.312 0.523 0.313 0.548Q0.314 0.574 0.314 0.603Q0.314 0.632 0.314 0.656Q0.314 0.680 0.310 0.681Q0.308 0.682 0.306 0.649Q0.304 0.617 0.301 0.577Q0.299 0.537 0.298 0.501Q0.298 0.465 0.297 0.456Q0.293 0.441 0.293 0.415Q0.293 0.389 0.295 0.378Q0.298 0.369 0.307 0.367Q0.316 0.365 0.325 0.369Q0.329 0.370 0.340 0.384Q0.350 0.398 0.361 0.416Q0.373 0.435 0.385 0.456Q0.397 0.476 0.407 0.489Q0.427 0.518 0.446 0.552Q0.464 0.587 0.476 0.597Q0.488 0.604 0.502 0.595Q0.517 0.585 0.523 0.586Q0.528 0.587 0.525 0.601Q0.523 0.614 0.528 0.614Q0.533 0.614 0.535 0.609Q0.538 0.604 0.543 0.595Q0.546 0.591 0.552 0.583Q0.558 0.574 0.565 0.566L0.582 0.544L0.558 0.574L0.600 0.494L0.540 0.583L0.597 0.476L0.588 0.470V0.438Q0.588 0.430 0.591 0.417Q0.593 0.405 0.596 0.401Q0.600 0.398 0.613 0.381Q0.626 0.363 0.631 0.363Q0.637 0.360 0.639 0.367Q0.642 0.375 0.648 0.389Q0.653 0.404 0.656 0.444Q0.660 0.483 0.656 0.533Q0.656 0.560 0.654 0.589Q0.653 0.617 0.653 0.643Q0.653 0.669 0.653 0.687Q0.653 0.705 0.656 0.712Q0.657 0.720 0.664 0.723Q0.672 0.725 0.678 0.725Q0.684 0.725 0.691 0.725Q0.697 0.725 0.698 0.727Q0.702 0.733 0.702 0.736Q0.702 0.739 0.707 0.735Q0.709 0.735 0.720 0.722Q0.722 0.715 0.728 0.710Q0.726 0.711 0.725 0.715Q0.721 0.722 0.720 0.723Q0.716 0.725 0.710 0.725H0.707V0.718Q0.707 0.715 0.710 0.697Q0.714 0.685 0.705 0.662Q0.695 0.639 0.695 0.620Q0.695 0.610 0.696 0.562Q0.697 0.515 0.698 0.460Q0.698 0.405 0.700 0.357Q0.701 0.310 0.701 0.301Q0.701 0.286 0.713 0.276Q0.718 0.271 0.725 0.268Q0.732 0.263 0.727 0.260Q0.722 0.257 0.713 0.257Q0.703 0.257 0.691 0.258Q0.679 0.259 0.671 0.261ZM0.476 0.456Q0.479 0.458 0.475 0.453Q0.472 0.447 0.469 0.441Q0.464 0.434 0.457 0.423Q0.457 0.431 0.460 0.438Q0.464 0.456 0.476 0.456ZM0.475 0.420Q0.453 0.386 0.434 0.356Q0.418 0.331 0.405 0.308Q0.392 0.286 0.388 0.279Q0.386 0.273 0.397 0.297Q0.407 0.321 0.423 0.351Q0.439 0.381 0.454 0.405Q0.469 0.428 0.475 0.420ZM0.733 0.261Q0.730 0.374 0.728 0.465Q0.728 0.503 0.728 0.541Q0.728 0.579 0.729 0.610Q0.730 0.640 0.731 0.660Q0.732 0.681 0.735 0.686Q0.737 0.691 0.738 0.673Q0.739 0.655 0.739 0.626Q0.739 0.597 0.738 0.558Q0.737 0.519 0.737 0.479Q0.735 0.384 0.733 0.261Z" fill="black"/>
</svg>
