<svg xmlns="http://www.w3.org/2000/svg" viewBox="0 0 1 1" preserveAspectRatio="xMidYMid meet">
  <path d="M0.817 1.074H0.183V-0.148H0.817ZM0.385 0.687Q0.387 0.679 0.379 0.667Q0.371 0.655 0.369 0.647Q0.369 0.642 0.368 0.619Q0.368 0.596 0.367 0.567Q0.366 0.537 0.366 0.509Q0.366 0.482 0.366 0.465Q0.368 0.436 0.370 0.419Q0.373 0.402 0.371 0.394Q0.369 0.391 0.362 0.404Q0.358 0.411 0.353 0.417Q0.352 0.402 0.350 0.387Q0.349 0.375 0.349 0.363Q0.350 0.352 0.353 0.349Q0.362 0.343 0.367 0.338Q0.373 0.332 0.380 0.337Q0.381 0.338 0.394 0.358Q0.406 0.379 0.423 0.407Q0.441 0.436 0.461 0.469Q0.481 0.503 0.498 0.533Q0.515 0.563 0.527 0.583Q0.540 0.602 0.542 0.607L0.577 0.654Q0.578 0.655 0.581 0.664Q0.583 0.674 0.586 0.685Q0.588 0.696 0.592 0.707Q0.595 0.717 0.600 0.719Q0.604 0.722 0.615 0.724Q0.625 0.725 0.635 0.724Q0.645 0.722 0.654 0.718Q0.663 0.714 0.664 0.704Q0.668 0.685 0.660 0.657Q0.652 0.630 0.652 0.564Q0.652 0.533 0.653 0.493Q0.655 0.453 0.655 0.414Q0.655 0.375 0.655 0.344Q0.656 0.314 0.657 0.302Q0.660 0.277 0.664 0.263Q0.669 0.249 0.667 0.242Q0.664 0.238 0.663 0.232Q0.663 0.226 0.660 0.219Q0.656 0.212 0.655 0.205Q0.649 0.213 0.644 0.220Q0.633 0.237 0.627 0.241Q0.621 0.243 0.613 0.248Q0.604 0.253 0.603 0.261Q0.603 0.271 0.611 0.296Q0.618 0.321 0.615 0.343Q0.615 0.352 0.615 0.385Q0.614 0.417 0.612 0.454Q0.610 0.491 0.609 0.523Q0.608 0.555 0.608 0.563Q0.604 0.577 0.602 0.595Q0.600 0.613 0.591 0.619Q0.584 0.626 0.575 0.625Q0.565 0.623 0.558 0.609Q0.550 0.596 0.545 0.587Q0.540 0.577 0.538 0.566Q0.535 0.555 0.533 0.546Q0.532 0.537 0.538 0.535Q0.542 0.533 0.543 0.533Q0.544 0.533 0.549 0.530Q0.553 0.530 0.554 0.529Q0.540 0.513 0.528 0.498Q0.502 0.468 0.494 0.453Q0.489 0.446 0.477 0.422Q0.466 0.398 0.454 0.371Q0.441 0.344 0.429 0.320Q0.418 0.296 0.415 0.291Q0.406 0.280 0.397 0.256Q0.387 0.232 0.381 0.227Q0.376 0.223 0.376 0.215Q0.376 0.208 0.376 0.205Q0.376 0.201 0.374 0.206Q0.373 0.212 0.368 0.218Q0.362 0.223 0.344 0.232Q0.326 0.241 0.323 0.250Q0.323 0.256 0.326 0.266Q0.328 0.275 0.333 0.285Q0.337 0.295 0.340 0.304Q0.343 0.313 0.343 0.315Q0.345 0.325 0.340 0.346Q0.334 0.367 0.334 0.379Q0.334 0.393 0.330 0.408Q0.326 0.424 0.326 0.435Q0.326 0.440 0.325 0.475Q0.323 0.511 0.323 0.554Q0.323 0.597 0.323 0.635Q0.323 0.673 0.326 0.683Q0.338 0.721 0.356 0.719Q0.364 0.715 0.373 0.704Q0.383 0.692 0.385 0.687ZM0.375 0.725Q0.373 0.727 0.374 0.734Q0.375 0.740 0.376 0.737Q0.376 0.734 0.381 0.730Q0.385 0.725 0.388 0.719Q0.394 0.713 0.400 0.704L0.391 0.713Q0.380 0.719 0.375 0.725ZM0.404 0.689V0.607Q0.404 0.575 0.404 0.548Q0.404 0.521 0.406 0.517Q0.406 0.513 0.403 0.500Q0.400 0.487 0.398 0.473Q0.392 0.458 0.388 0.440Q0.392 0.506 0.396 0.560Q0.398 0.583 0.399 0.607Q0.399 0.630 0.401 0.647Q0.403 0.665 0.404 0.676Q0.404 0.687 0.404 0.689ZM0.554 0.477Q0.542 0.453 0.530 0.428Q0.519 0.406 0.507 0.384Q0.496 0.362 0.487 0.347Q0.478 0.332 0.468 0.311Q0.457 0.291 0.447 0.272Q0.436 0.253 0.427 0.238Q0.418 0.223 0.411 0.219Q0.404 0.215 0.399 0.211Q0.394 0.208 0.388 0.205Q0.381 0.201 0.376 0.200Q0.396 0.223 0.415 0.250Q0.433 0.275 0.454 0.309Q0.475 0.343 0.496 0.381Q0.517 0.421 0.528 0.440Q0.540 0.459 0.544 0.468Q0.553 0.477 0.554 0.477ZM0.684 0.674V0.696Q0.686 0.695 0.686 0.689Q0.686 0.685 0.686 0.682Q0.686 0.679 0.684 0.674ZM0.618 0.751H0.625Q0.627 0.751 0.638 0.747Q0.642 0.747 0.646 0.745Q0.650 0.742 0.656 0.738Q0.663 0.734 0.668 0.729ZM0.418 0.549 0.428 0.541 0.426 0.533ZM0.680 0.654V0.650Q0.680 0.649 0.681 0.646Q0.682 0.643 0.682 0.639Q0.682 0.636 0.686 0.631Q0.690 0.626 0.690 0.620V0.434Q0.690 0.352 0.691 0.250Q0.687 0.256 0.685 0.276Q0.684 0.295 0.682 0.324Q0.680 0.352 0.680 0.388Q0.680 0.424 0.680 0.462Z" fill="black"/>
</svg>
