<svg xmlns="http://www.w3.org/2000/svg" viewBox="0 0 1 1" preserveAspectRatio="xMidYMid meet">
  <path d="M0.816 1.074H0.184V-0.148H0.816ZM0.499 0.284Q0.527 0.287 0.548 0.305Q0.570 0.324 0.585 0.350Q0.600 0.377 0.608 0.409Q0.616 0.441 0.616 0.472Q0.616 0.503 0.608 0.537Q0.599 0.572 0.583 0.600Q0.567 0.627 0.546 0.645Q0.525 0.663 0.502 0.663Q0.478 0.663 0.450 0.652Q0.421 0.642 0.397 0.618Q0.372 0.593 0.356 0.553Q0.340 0.514 0.344 0.456Q0.346 0.398 0.368 0.363Q0.391 0.329 0.417 0.310Q0.444 0.292 0.469 0.287Q0.493 0.282 0.499 0.284ZM0.571 0.253Q0.547 0.230 0.530 0.221Q0.513 0.211 0.521 0.227Q0.521 0.230 0.499 0.230Q0.478 0.230 0.447 0.236Q0.415 0.242 0.383 0.258Q0.351 0.273 0.334 0.307Q0.314 0.341 0.302 0.392Q0.291 0.442 0.292 0.495Q0.294 0.548 0.311 0.596Q0.328 0.644 0.366 0.676Q0.406 0.707 0.445 0.718Q0.484 0.729 0.517 0.724Q0.550 0.718 0.575 0.698Q0.600 0.678 0.614 0.653Q0.626 0.627 0.637 0.594Q0.648 0.560 0.654 0.525Q0.660 0.491 0.659 0.459Q0.658 0.426 0.652 0.400Q0.622 0.302 0.571 0.253ZM0.730 0.551Q0.726 0.555 0.726 0.557Q0.726 0.562 0.727 0.565Q0.728 0.568 0.733 0.570ZM0.597 0.224Q0.574 0.211 0.556 0.202Q0.539 0.193 0.525 0.189Q0.509 0.184 0.495 0.184L0.532 0.196Q0.535 0.197 0.552 0.207Q0.570 0.218 0.591 0.233Q0.611 0.248 0.629 0.267Q0.648 0.286 0.656 0.307Q0.664 0.328 0.670 0.355Q0.677 0.383 0.681 0.413Q0.686 0.443 0.688 0.471Q0.690 0.500 0.686 0.522Q0.679 0.568 0.666 0.605Q0.654 0.642 0.614 0.683Q0.593 0.703 0.572 0.717Q0.550 0.730 0.532 0.738Q0.510 0.748 0.491 0.753Q0.525 0.744 0.556 0.730Q0.582 0.718 0.610 0.698Q0.637 0.677 0.654 0.647Q0.671 0.617 0.679 0.581Q0.688 0.544 0.692 0.510Q0.696 0.476 0.696 0.449Q0.695 0.422 0.694 0.408Q0.691 0.398 0.684 0.373Q0.677 0.349 0.665 0.321Q0.653 0.292 0.635 0.266Q0.618 0.239 0.597 0.224ZM0.450 0.321Q0.435 0.329 0.421 0.341Q0.408 0.352 0.396 0.369Q0.384 0.386 0.377 0.408Q0.363 0.454 0.370 0.505Q0.377 0.557 0.391 0.587Q0.399 0.602 0.411 0.613Q0.423 0.624 0.435 0.630Q0.448 0.636 0.458 0.639Q0.468 0.642 0.471 0.640Q0.474 0.635 0.464 0.625Q0.453 0.616 0.441 0.605Q0.435 0.600 0.426 0.593Q0.418 0.586 0.409 0.573Q0.401 0.560 0.395 0.537Q0.388 0.515 0.387 0.477Q0.382 0.441 0.392 0.411Q0.401 0.381 0.415 0.362Q0.431 0.339 0.450 0.321Z" fill="black"/>
</svg>
