<svg xmlns="http://www.w3.org/2000/svg" viewBox="0 0 1 1" preserveAspectRatio="xMidYMid meet">
  <path d="M0.817 1.074H0.183V-0.148H0.817ZM0.435 0.512Q0.444 0.516 0.449 0.516Q0.455 0.516 0.467 0.512Q0.471 0.511 0.506 0.513Q0.541 0.515 0.579 0.506Q0.616 0.497 0.647 0.471Q0.678 0.445 0.678 0.386Q0.678 0.327 0.659 0.294Q0.640 0.261 0.616 0.245Q0.592 0.230 0.569 0.227Q0.545 0.223 0.535 0.223Q0.526 0.223 0.504 0.223Q0.481 0.223 0.456 0.223Q0.429 0.223 0.409 0.223Q0.389 0.223 0.384 0.225Q0.376 0.227 0.370 0.236Q0.364 0.245 0.364 0.254Q0.364 0.257 0.363 0.271Q0.361 0.284 0.360 0.302Q0.358 0.320 0.358 0.338Q0.357 0.356 0.357 0.373Q0.357 0.388 0.358 0.410Q0.358 0.433 0.360 0.453Q0.362 0.473 0.365 0.490Q0.367 0.507 0.367 0.512Q0.367 0.520 0.365 0.537Q0.362 0.554 0.360 0.575Q0.357 0.596 0.355 0.616Q0.352 0.636 0.350 0.644Q0.346 0.662 0.352 0.680Q0.358 0.698 0.384 0.712Q0.406 0.726 0.412 0.714Q0.418 0.701 0.421 0.692Q0.421 0.684 0.417 0.673Q0.413 0.662 0.410 0.656Q0.406 0.652 0.403 0.636Q0.400 0.620 0.400 0.605Q0.400 0.595 0.400 0.580Q0.400 0.564 0.402 0.546Q0.402 0.527 0.404 0.504Q0.406 0.505 0.413 0.507Q0.417 0.509 0.423 0.510Q0.429 0.512 0.435 0.512ZM0.413 0.385Q0.413 0.380 0.412 0.365Q0.411 0.350 0.411 0.335Q0.410 0.320 0.410 0.306Q0.409 0.293 0.410 0.290Q0.413 0.283 0.416 0.284Q0.418 0.286 0.422 0.286Q0.428 0.286 0.440 0.288Q0.452 0.291 0.460 0.291H0.511Q0.515 0.291 0.526 0.290Q0.537 0.290 0.549 0.290Q0.560 0.290 0.573 0.290Q0.585 0.291 0.592 0.295Q0.606 0.303 0.617 0.318Q0.628 0.333 0.628 0.373Q0.628 0.392 0.619 0.406Q0.610 0.419 0.598 0.430Q0.586 0.441 0.574 0.447Q0.561 0.452 0.556 0.452Q0.550 0.452 0.535 0.452Q0.519 0.452 0.503 0.449Q0.484 0.449 0.464 0.448Q0.460 0.448 0.455 0.449Q0.452 0.452 0.446 0.453Q0.441 0.453 0.436 0.454Q0.417 0.460 0.409 0.448Q0.409 0.434 0.410 0.422Q0.411 0.411 0.412 0.402Q0.413 0.392 0.413 0.385ZM0.429 0.308Q0.426 0.309 0.430 0.324Q0.433 0.339 0.433 0.347Q0.433 0.356 0.435 0.366Q0.436 0.377 0.433 0.385Q0.429 0.395 0.428 0.399Q0.426 0.403 0.426 0.405Q0.430 0.404 0.436 0.397Q0.441 0.393 0.445 0.385Q0.449 0.377 0.452 0.369Q0.453 0.350 0.446 0.327Q0.440 0.303 0.429 0.308ZM0.520 0.317H0.503Q0.496 0.317 0.492 0.319Q0.488 0.320 0.490 0.321Q0.500 0.327 0.512 0.322Q0.517 0.321 0.520 0.317ZM0.524 0.427 0.493 0.419Q0.498 0.424 0.505 0.427Q0.515 0.433 0.524 0.427ZM0.428 0.527 0.435 0.545Q0.440 0.552 0.442 0.558Q0.444 0.565 0.444 0.569Q0.444 0.572 0.445 0.587Q0.446 0.601 0.446 0.617V0.659L0.449 0.552L0.515 0.542Q0.496 0.545 0.478 0.542Q0.465 0.541 0.450 0.538Q0.435 0.535 0.428 0.527ZM0.699 0.433Q0.712 0.404 0.711 0.364Q0.710 0.325 0.699 0.293Q0.693 0.278 0.684 0.266Q0.675 0.254 0.667 0.245Q0.658 0.237 0.645 0.230Q0.649 0.231 0.652 0.235Q0.656 0.238 0.660 0.243Q0.663 0.248 0.670 0.253Q0.685 0.267 0.696 0.297Q0.706 0.327 0.706 0.355Q0.709 0.382 0.697 0.418Q0.685 0.454 0.670 0.473Q0.662 0.481 0.651 0.490Q0.639 0.499 0.626 0.505Q0.614 0.512 0.599 0.522Q0.628 0.518 0.658 0.489Q0.688 0.460 0.699 0.433Z" fill="black"/>
</svg>
