<svg xmlns="http://www.w3.org/2000/svg" viewBox="0 0 1 1" preserveAspectRatio="xMidYMid meet">
  <path d="M0.816 1.074H0.184V-0.148H0.816ZM0.544 0.214V0.219Q0.544 0.223 0.538 0.223Q0.534 0.223 0.521 0.223Q0.508 0.223 0.491 0.224Q0.475 0.224 0.460 0.227Q0.444 0.229 0.437 0.232Q0.430 0.236 0.411 0.248Q0.392 0.261 0.372 0.284Q0.353 0.307 0.335 0.344Q0.317 0.381 0.312 0.435Q0.306 0.489 0.318 0.535Q0.330 0.581 0.350 0.616Q0.370 0.651 0.393 0.673Q0.415 0.696 0.434 0.703Q0.455 0.713 0.474 0.715Q0.493 0.717 0.511 0.715Q0.529 0.713 0.542 0.710Q0.556 0.707 0.560 0.706Q0.571 0.702 0.575 0.698Q0.578 0.694 0.589 0.695Q0.599 0.696 0.603 0.696Q0.606 0.696 0.614 0.706Q0.624 0.713 0.625 0.715Q0.625 0.717 0.631 0.717Q0.636 0.717 0.645 0.714Q0.655 0.711 0.659 0.706Q0.673 0.691 0.668 0.681Q0.665 0.676 0.652 0.667Q0.640 0.658 0.640 0.646Q0.640 0.639 0.646 0.625Q0.653 0.612 0.659 0.597Q0.665 0.581 0.669 0.566Q0.674 0.551 0.674 0.543Q0.674 0.533 0.675 0.505Q0.677 0.477 0.674 0.441Q0.672 0.405 0.663 0.368Q0.655 0.332 0.638 0.304Q0.619 0.280 0.603 0.262Q0.586 0.244 0.571 0.235Q0.556 0.223 0.544 0.214ZM0.576 0.568Q0.571 0.555 0.570 0.547Q0.568 0.540 0.563 0.540Q0.557 0.540 0.558 0.546Q0.559 0.552 0.556 0.556Q0.553 0.560 0.547 0.561Q0.541 0.562 0.535 0.564Q0.529 0.570 0.548 0.585Q0.557 0.593 0.556 0.599Q0.556 0.605 0.559 0.619Q0.560 0.635 0.556 0.640Q0.552 0.646 0.544 0.654Q0.534 0.665 0.527 0.663Q0.520 0.661 0.503 0.661Q0.493 0.661 0.478 0.654Q0.464 0.647 0.449 0.637Q0.434 0.628 0.421 0.618Q0.409 0.607 0.403 0.598Q0.396 0.590 0.388 0.567Q0.379 0.543 0.374 0.511Q0.370 0.480 0.373 0.444Q0.376 0.408 0.391 0.375Q0.407 0.341 0.426 0.322Q0.445 0.303 0.465 0.294Q0.484 0.285 0.501 0.284Q0.518 0.284 0.529 0.285Q0.552 0.289 0.571 0.305Q0.590 0.322 0.614 0.363Q0.625 0.383 0.628 0.411Q0.632 0.440 0.631 0.468Q0.631 0.496 0.627 0.520Q0.624 0.545 0.620 0.558Q0.613 0.582 0.602 0.593Q0.590 0.604 0.583 0.602Q0.582 0.598 0.582 0.593Q0.580 0.590 0.580 0.584Q0.580 0.577 0.576 0.568ZM0.395 0.443Q0.385 0.485 0.396 0.516Q0.407 0.548 0.422 0.568Q0.443 0.593 0.467 0.609L0.462 0.604Q0.456 0.598 0.452 0.592Q0.451 0.590 0.445 0.583Q0.438 0.575 0.430 0.561Q0.422 0.548 0.416 0.525Q0.410 0.502 0.409 0.465Q0.404 0.430 0.415 0.402Q0.426 0.374 0.438 0.353Q0.452 0.333 0.472 0.315Q0.470 0.314 0.461 0.318Q0.451 0.322 0.439 0.337Q0.426 0.352 0.414 0.378Q0.402 0.404 0.395 0.443ZM0.586 0.741V0.737Q0.586 0.737 0.580 0.733Q0.571 0.733 0.545 0.741Q0.520 0.748 0.511 0.748H0.480Q0.508 0.749 0.529 0.748Q0.548 0.748 0.565 0.746Q0.582 0.744 0.586 0.741ZM0.677 0.726Q0.680 0.724 0.684 0.713Q0.689 0.702 0.692 0.694Q0.695 0.690 0.693 0.678Q0.691 0.666 0.689 0.654Q0.685 0.641 0.684 0.627L0.696 0.612Q0.702 0.607 0.706 0.591Q0.710 0.574 0.713 0.555Q0.715 0.537 0.717 0.521Q0.719 0.506 0.719 0.498Q0.719 0.491 0.720 0.472Q0.721 0.454 0.719 0.427Q0.717 0.401 0.708 0.369Q0.699 0.338 0.682 0.304Q0.662 0.272 0.638 0.249Q0.614 0.227 0.593 0.213Q0.565 0.197 0.540 0.189Q0.563 0.197 0.586 0.212Q0.605 0.224 0.626 0.243Q0.648 0.262 0.668 0.289Q0.703 0.344 0.707 0.397Q0.710 0.449 0.714 0.491Q0.715 0.513 0.710 0.535Q0.704 0.558 0.698 0.578Q0.691 0.597 0.684 0.610Q0.677 0.623 0.677 0.627Q0.674 0.632 0.678 0.643Q0.682 0.654 0.685 0.670Q0.689 0.687 0.688 0.692Q0.687 0.696 0.682 0.703Q0.678 0.711 0.675 0.710Q0.673 0.709 0.666 0.713Q0.659 0.714 0.660 0.716Q0.661 0.718 0.665 0.726Q0.666 0.729 0.668 0.729Q0.674 0.729 0.677 0.726Z" fill="black"/>
</svg>
