<svg xmlns="http://www.w3.org/2000/svg" viewBox="0 0 1 1" preserveAspectRatio="xMidYMid meet">
  <path d="M0.816 1.074H0.184V-0.148H0.816ZM0.346 0.223Q0.338 0.228 0.335 0.249Q0.332 0.270 0.332 0.285Q0.332 0.292 0.332 0.332Q0.332 0.371 0.333 0.416Q0.334 0.461 0.334 0.499Q0.334 0.538 0.334 0.544Q0.334 0.549 0.333 0.570Q0.332 0.591 0.332 0.615Q0.332 0.639 0.333 0.661Q0.334 0.683 0.338 0.691Q0.345 0.704 0.345 0.705Q0.345 0.706 0.357 0.710Q0.369 0.713 0.381 0.704Q0.392 0.694 0.394 0.681Q0.395 0.669 0.388 0.652Q0.380 0.635 0.380 0.627Q0.380 0.621 0.382 0.609Q0.383 0.597 0.384 0.584Q0.385 0.570 0.386 0.559Q0.387 0.548 0.387 0.543Q0.385 0.533 0.384 0.518Q0.383 0.503 0.389 0.498Q0.395 0.495 0.421 0.495Q0.448 0.495 0.460 0.491Q0.475 0.489 0.487 0.483Q0.500 0.477 0.515 0.484Q0.522 0.488 0.531 0.505Q0.540 0.523 0.549 0.545Q0.559 0.567 0.568 0.588Q0.577 0.609 0.582 0.621Q0.587 0.634 0.594 0.651Q0.601 0.669 0.610 0.684Q0.619 0.699 0.628 0.709Q0.638 0.718 0.647 0.713Q0.666 0.704 0.669 0.695Q0.672 0.685 0.668 0.670Q0.666 0.665 0.657 0.652Q0.649 0.640 0.638 0.625Q0.627 0.609 0.617 0.594Q0.606 0.578 0.601 0.563Q0.581 0.508 0.581 0.500Q0.581 0.494 0.580 0.492Q0.578 0.491 0.582 0.488Q0.583 0.485 0.598 0.474Q0.612 0.464 0.627 0.445Q0.643 0.425 0.655 0.404Q0.668 0.382 0.666 0.360Q0.665 0.318 0.648 0.290Q0.632 0.262 0.615 0.249Q0.600 0.234 0.589 0.228Q0.577 0.221 0.567 0.220Q0.559 0.216 0.561 0.214Q0.563 0.213 0.555 0.216Q0.552 0.219 0.532 0.220Q0.513 0.220 0.491 0.220Q0.470 0.220 0.448 0.221Q0.425 0.221 0.417 0.221Q0.399 0.221 0.374 0.221Q0.350 0.221 0.346 0.223ZM0.543 0.279Q0.563 0.279 0.585 0.292Q0.597 0.299 0.604 0.315Q0.611 0.330 0.613 0.348Q0.617 0.366 0.607 0.385Q0.597 0.404 0.583 0.416Q0.570 0.428 0.549 0.431Q0.529 0.435 0.506 0.434Q0.496 0.434 0.481 0.431Q0.467 0.428 0.454 0.426Q0.441 0.424 0.431 0.422Q0.422 0.420 0.419 0.420Q0.417 0.420 0.401 0.427Q0.385 0.434 0.381 0.428Q0.377 0.424 0.381 0.411Q0.385 0.398 0.388 0.393Q0.392 0.387 0.391 0.384Q0.389 0.381 0.388 0.371Q0.388 0.366 0.387 0.355Q0.385 0.345 0.384 0.334Q0.383 0.322 0.382 0.313Q0.381 0.304 0.381 0.303Q0.381 0.292 0.383 0.287Q0.388 0.281 0.404 0.287Q0.411 0.291 0.414 0.289Q0.418 0.288 0.428 0.288Q0.436 0.288 0.446 0.286Q0.455 0.285 0.464 0.285Q0.472 0.285 0.493 0.286Q0.515 0.288 0.522 0.285Q0.525 0.281 0.529 0.281Q0.533 0.280 0.543 0.279ZM0.404 0.317Q0.400 0.321 0.406 0.329Q0.411 0.336 0.411 0.341Q0.411 0.345 0.417 0.351L0.419 0.353Q0.415 0.347 0.413 0.340Q0.406 0.328 0.413 0.323Q0.419 0.321 0.433 0.321H0.447L0.425 0.317Q0.417 0.315 0.410 0.315Q0.404 0.315 0.404 0.317ZM0.411 0.371Q0.411 0.377 0.407 0.383Q0.406 0.387 0.406 0.389L0.419 0.398L0.472 0.401Q0.459 0.400 0.448 0.396Q0.440 0.393 0.431 0.390Q0.422 0.387 0.419 0.383Q0.413 0.374 0.413 0.374ZM0.575 0.191Q0.601 0.206 0.623 0.221Q0.642 0.236 0.658 0.255Q0.675 0.273 0.680 0.296Q0.689 0.341 0.683 0.389Q0.677 0.436 0.657 0.453Q0.638 0.468 0.625 0.481Q0.611 0.494 0.611 0.498Q0.611 0.502 0.619 0.520Q0.627 0.538 0.640 0.560Q0.653 0.585 0.670 0.616Q0.657 0.586 0.649 0.562Q0.640 0.540 0.635 0.521Q0.630 0.503 0.631 0.498Q0.632 0.495 0.643 0.482Q0.654 0.470 0.666 0.452Q0.679 0.434 0.688 0.410Q0.696 0.387 0.695 0.363Q0.692 0.338 0.691 0.317Q0.689 0.296 0.678 0.276Q0.668 0.255 0.644 0.235Q0.620 0.215 0.575 0.191ZM0.662 0.725Q0.660 0.730 0.670 0.727Q0.680 0.723 0.689 0.707Q0.696 0.694 0.696 0.681Q0.696 0.674 0.695 0.669L0.691 0.691Q0.689 0.699 0.686 0.706Q0.684 0.713 0.679 0.717Q0.670 0.722 0.667 0.722Q0.665 0.722 0.662 0.725ZM0.400 0.533Q0.400 0.536 0.402 0.553Q0.403 0.570 0.405 0.592Q0.406 0.613 0.408 0.632Q0.410 0.651 0.410 0.658Q0.411 0.673 0.410 0.680Q0.410 0.687 0.403 0.695Q0.395 0.704 0.395 0.705Q0.395 0.706 0.389 0.706Q0.383 0.706 0.373 0.703Q0.365 0.700 0.362 0.698Q0.370 0.706 0.377 0.713Q0.394 0.725 0.400 0.717Q0.404 0.711 0.408 0.696Q0.413 0.681 0.416 0.662Q0.419 0.643 0.422 0.624Q0.425 0.605 0.425 0.591Q0.423 0.578 0.424 0.568Q0.425 0.557 0.425 0.549Q0.425 0.540 0.428 0.533L0.437 0.538Q0.452 0.545 0.460 0.544Q0.470 0.543 0.463 0.534Q0.455 0.525 0.447 0.525Q0.436 0.525 0.426 0.519Q0.417 0.514 0.407 0.510Q0.399 0.507 0.400 0.517Q0.400 0.528 0.400 0.533Z" fill="black"/>
</svg>
