<svg xmlns="http://www.w3.org/2000/svg" viewBox="0 0 1 1" preserveAspectRatio="xMidYMid meet">
  <path d="M0.817 1.074H0.183V-0.148H0.817ZM0.626 0.367Q0.637 0.363 0.645 0.345Q0.652 0.328 0.645 0.309Q0.643 0.301 0.633 0.286Q0.623 0.271 0.608 0.256Q0.593 0.241 0.575 0.228Q0.556 0.215 0.532 0.211Q0.511 0.207 0.476 0.211Q0.441 0.215 0.408 0.230Q0.376 0.244 0.352 0.271Q0.329 0.297 0.329 0.335Q0.329 0.376 0.340 0.400Q0.350 0.424 0.365 0.439Q0.381 0.453 0.399 0.458Q0.416 0.463 0.430 0.467Q0.446 0.470 0.468 0.473Q0.490 0.477 0.514 0.481Q0.537 0.486 0.556 0.491Q0.576 0.497 0.585 0.504Q0.601 0.518 0.608 0.546Q0.615 0.575 0.606 0.592Q0.599 0.609 0.571 0.632Q0.542 0.655 0.493 0.655Q0.469 0.655 0.455 0.652Q0.440 0.650 0.430 0.645Q0.421 0.641 0.415 0.633Q0.409 0.626 0.402 0.618Q0.388 0.601 0.382 0.595Q0.377 0.588 0.377 0.579Q0.377 0.571 0.382 0.566Q0.388 0.560 0.384 0.552Q0.380 0.542 0.374 0.541Q0.369 0.541 0.367 0.537Q0.362 0.534 0.359 0.529Q0.356 0.524 0.357 0.516Q0.357 0.509 0.361 0.503Q0.362 0.499 0.362 0.497Q0.358 0.499 0.353 0.500Q0.344 0.504 0.344 0.511Q0.342 0.516 0.345 0.520Q0.346 0.522 0.346 0.523Q0.338 0.520 0.329 0.523Q0.323 0.527 0.316 0.534Q0.309 0.541 0.309 0.557Q0.309 0.572 0.317 0.593Q0.324 0.613 0.338 0.633Q0.352 0.654 0.370 0.670Q0.389 0.686 0.411 0.696Q0.433 0.707 0.462 0.710Q0.489 0.712 0.516 0.710Q0.542 0.707 0.566 0.699Q0.589 0.690 0.603 0.679Q0.628 0.656 0.648 0.622Q0.667 0.588 0.663 0.552Q0.660 0.515 0.641 0.489Q0.623 0.463 0.611 0.449Q0.597 0.435 0.587 0.428Q0.578 0.422 0.574 0.424Q0.573 0.427 0.573 0.433Q0.573 0.434 0.574 0.435Q0.562 0.437 0.554 0.435Q0.537 0.435 0.519 0.429Q0.505 0.424 0.479 0.420Q0.453 0.416 0.435 0.407Q0.417 0.399 0.419 0.399Q0.421 0.399 0.411 0.397Q0.406 0.395 0.389 0.380Q0.371 0.365 0.371 0.344Q0.371 0.333 0.382 0.324Q0.392 0.314 0.405 0.305Q0.417 0.297 0.431 0.290Q0.446 0.284 0.455 0.283Q0.471 0.279 0.501 0.277Q0.530 0.275 0.542 0.284Q0.556 0.291 0.570 0.306Q0.584 0.321 0.589 0.331Q0.593 0.339 0.592 0.347Q0.591 0.355 0.601 0.363Q0.608 0.370 0.619 0.370Q0.623 0.370 0.626 0.367ZM0.543 0.389 0.530 0.382Q0.519 0.377 0.508 0.374Q0.505 0.374 0.493 0.371Q0.481 0.369 0.467 0.366Q0.453 0.363 0.441 0.357Q0.429 0.352 0.426 0.347Q0.417 0.333 0.430 0.324Q0.444 0.314 0.459 0.314H0.498Q0.488 0.313 0.477 0.310Q0.469 0.309 0.459 0.308Q0.448 0.308 0.441 0.308Q0.424 0.309 0.408 0.324Q0.393 0.339 0.400 0.358Q0.404 0.369 0.414 0.374Q0.424 0.380 0.436 0.383Q0.449 0.385 0.460 0.386Q0.471 0.386 0.477 0.386Q0.481 0.388 0.492 0.388Q0.503 0.388 0.515 0.388Q0.530 0.388 0.543 0.389ZM0.633 0.381Q0.633 0.388 0.639 0.393Q0.645 0.397 0.649 0.393Q0.652 0.389 0.664 0.377Q0.675 0.365 0.675 0.351Q0.675 0.346 0.675 0.337Q0.674 0.327 0.673 0.317Q0.670 0.308 0.668 0.297Q0.670 0.297 0.673 0.295Q0.678 0.290 0.678 0.290Q0.678 0.287 0.670 0.284L0.663 0.280Q0.662 0.279 0.660 0.275Q0.656 0.271 0.658 0.267Q0.660 0.263 0.643 0.241Q0.626 0.220 0.614 0.212Q0.599 0.203 0.569 0.191Q0.538 0.178 0.530 0.178H0.513Q0.508 0.178 0.507 0.177Q0.538 0.188 0.566 0.197Q0.589 0.207 0.609 0.219Q0.628 0.231 0.637 0.242Q0.644 0.254 0.648 0.261Q0.651 0.268 0.655 0.274Q0.658 0.280 0.658 0.283L0.660 0.293L0.664 0.301Q0.668 0.316 0.670 0.328Q0.673 0.339 0.671 0.350Q0.668 0.362 0.662 0.367Q0.652 0.374 0.648 0.376Q0.643 0.377 0.639 0.380ZM0.628 0.427Q0.623 0.429 0.633 0.435L0.644 0.442Q0.660 0.463 0.670 0.485Q0.679 0.504 0.685 0.530Q0.691 0.557 0.685 0.584Q0.673 0.641 0.651 0.663Q0.628 0.685 0.603 0.701Q0.576 0.716 0.545 0.727Q0.515 0.737 0.496 0.737Q0.477 0.737 0.457 0.736Q0.436 0.734 0.441 0.737Q0.442 0.737 0.462 0.740Q0.481 0.742 0.508 0.740Q0.535 0.738 0.567 0.730Q0.599 0.722 0.625 0.703Q0.651 0.684 0.666 0.657Q0.681 0.630 0.688 0.603Q0.695 0.576 0.696 0.553Q0.698 0.530 0.695 0.518Q0.693 0.507 0.683 0.490Q0.674 0.473 0.663 0.459Q0.652 0.445 0.643 0.434Q0.633 0.424 0.628 0.427ZM0.416 0.505Q0.406 0.504 0.387 0.497Q0.367 0.490 0.362 0.490Q0.358 0.490 0.365 0.495Q0.371 0.500 0.377 0.507Q0.384 0.515 0.395 0.545Q0.406 0.575 0.418 0.588Q0.426 0.595 0.438 0.597Q0.449 0.599 0.461 0.599H0.490Q0.481 0.596 0.473 0.596Q0.467 0.596 0.460 0.596Q0.453 0.596 0.449 0.595Q0.442 0.594 0.433 0.591Q0.424 0.587 0.418 0.583Q0.413 0.579 0.407 0.562Q0.402 0.545 0.399 0.535Q0.395 0.527 0.389 0.518Q0.387 0.512 0.384 0.511Q0.388 0.512 0.395 0.515Q0.399 0.516 0.404 0.516Q0.409 0.516 0.411 0.516Q0.416 0.516 0.422 0.517Q0.428 0.518 0.436 0.518H0.457Q0.448 0.516 0.441 0.512Q0.433 0.511 0.426 0.509Q0.418 0.507 0.416 0.505Z" fill="black"/>
</svg>
