<svg xmlns="http://www.w3.org/2000/svg" viewBox="0 0 1 1" preserveAspectRatio="xMidYMid meet">
  <path d="M0.817 1.074H0.183V-0.148H0.817ZM0.511 0.215Q0.501 0.215 0.474 0.214Q0.448 0.214 0.417 0.212Q0.388 0.211 0.363 0.209Q0.339 0.208 0.334 0.208Q0.323 0.208 0.320 0.213Q0.317 0.219 0.316 0.230Q0.316 0.242 0.331 0.257Q0.345 0.272 0.350 0.275Q0.353 0.278 0.363 0.279Q0.373 0.279 0.385 0.280Q0.397 0.280 0.406 0.280Q0.416 0.280 0.418 0.279Q0.426 0.275 0.430 0.270Q0.433 0.265 0.452 0.265Q0.459 0.265 0.463 0.273Q0.467 0.280 0.469 0.291Q0.471 0.303 0.472 0.316Q0.473 0.328 0.475 0.337Q0.477 0.346 0.476 0.384Q0.475 0.422 0.473 0.467Q0.471 0.511 0.469 0.556Q0.467 0.601 0.465 0.622Q0.460 0.666 0.469 0.685Q0.478 0.704 0.486 0.707Q0.494 0.709 0.507 0.703Q0.519 0.696 0.524 0.690Q0.528 0.686 0.526 0.677Q0.524 0.669 0.520 0.659L0.513 0.630V0.280H0.519Q0.523 0.280 0.526 0.280Q0.528 0.279 0.532 0.279Q0.542 0.280 0.546 0.283Q0.550 0.286 0.562 0.286Q0.576 0.286 0.577 0.285Q0.578 0.284 0.586 0.280Q0.596 0.279 0.609 0.277Q0.622 0.275 0.630 0.283Q0.639 0.290 0.644 0.288Q0.648 0.286 0.664 0.284Q0.682 0.280 0.689 0.265Q0.695 0.250 0.682 0.215Q0.678 0.200 0.667 0.196Q0.656 0.191 0.645 0.193Q0.633 0.195 0.624 0.201Q0.615 0.206 0.610 0.207Q0.601 0.211 0.585 0.211Q0.569 0.211 0.558 0.211Q0.550 0.212 0.543 0.214Q0.537 0.215 0.528 0.215Q0.519 0.215 0.511 0.215ZM0.545 0.301Q0.545 0.400 0.547 0.477Q0.547 0.512 0.548 0.544Q0.549 0.577 0.550 0.604Q0.550 0.630 0.550 0.648Q0.550 0.666 0.550 0.667Q0.550 0.677 0.547 0.686Q0.545 0.692 0.543 0.694Q0.549 0.694 0.553 0.686Q0.556 0.682 0.558 0.669Q0.560 0.656 0.558 0.632Q0.558 0.607 0.557 0.555Q0.556 0.504 0.556 0.452Q0.556 0.400 0.556 0.360Q0.556 0.320 0.556 0.317Q0.556 0.309 0.566 0.309Q0.569 0.309 0.584 0.309Q0.599 0.309 0.616 0.307Q0.633 0.305 0.648 0.304Q0.663 0.303 0.668 0.301Q0.679 0.293 0.686 0.286Q0.693 0.280 0.695 0.275Q0.691 0.283 0.682 0.287Q0.667 0.301 0.649 0.301Q0.639 0.301 0.623 0.299Q0.606 0.298 0.589 0.298Q0.573 0.298 0.560 0.298Q0.547 0.298 0.545 0.301Z" fill="black"/>
</svg>
