<svg xmlns="http://www.w3.org/2000/svg" viewBox="0 0 1 1" preserveAspectRatio="xMidYMid meet">
  <path d="M0.817 1.074H0.183V-0.148H0.817ZM0.656 0.193Q0.649 0.193 0.638 0.201Q0.626 0.209 0.619 0.223Q0.615 0.230 0.614 0.264Q0.613 0.297 0.614 0.339Q0.616 0.381 0.617 0.422Q0.619 0.463 0.616 0.482Q0.616 0.504 0.615 0.530Q0.615 0.556 0.609 0.579Q0.603 0.602 0.587 0.620Q0.571 0.637 0.538 0.643Q0.506 0.648 0.490 0.649Q0.474 0.650 0.467 0.647Q0.459 0.644 0.457 0.640Q0.456 0.636 0.451 0.632Q0.442 0.625 0.442 0.623Q0.442 0.620 0.436 0.621Q0.430 0.624 0.422 0.615Q0.413 0.606 0.404 0.597Q0.396 0.588 0.395 0.582Q0.395 0.576 0.395 0.572Q0.396 0.569 0.399 0.565Q0.402 0.561 0.397 0.548Q0.395 0.535 0.391 0.518Q0.387 0.501 0.387 0.480Q0.387 0.469 0.386 0.436Q0.385 0.404 0.385 0.368Q0.385 0.333 0.385 0.305Q0.385 0.277 0.387 0.273Q0.389 0.268 0.395 0.251Q0.402 0.234 0.396 0.223Q0.384 0.194 0.365 0.197Q0.357 0.199 0.344 0.207Q0.331 0.216 0.325 0.227Q0.320 0.237 0.327 0.262Q0.335 0.286 0.335 0.313Q0.335 0.321 0.335 0.347Q0.335 0.373 0.335 0.405Q0.335 0.437 0.335 0.473Q0.336 0.509 0.339 0.542Q0.342 0.576 0.347 0.601Q0.352 0.625 0.358 0.632Q0.369 0.643 0.389 0.658Q0.407 0.673 0.433 0.684Q0.459 0.695 0.488 0.698Q0.517 0.700 0.549 0.688Q0.613 0.663 0.641 0.641Q0.670 0.620 0.672 0.601Q0.672 0.582 0.668 0.564Q0.664 0.546 0.663 0.541Q0.663 0.539 0.663 0.508Q0.663 0.477 0.663 0.440Q0.663 0.403 0.663 0.369Q0.663 0.336 0.663 0.328Q0.667 0.313 0.671 0.285Q0.675 0.258 0.679 0.248Q0.680 0.237 0.672 0.215Q0.663 0.194 0.656 0.193ZM0.416 0.501Q0.411 0.539 0.418 0.554Q0.421 0.564 0.425 0.567Q0.425 0.534 0.426 0.504Q0.426 0.480 0.427 0.454Q0.428 0.428 0.428 0.415Q0.428 0.400 0.427 0.368Q0.426 0.337 0.424 0.302Q0.420 0.261 0.416 0.216Q0.416 0.218 0.417 0.256Q0.418 0.294 0.419 0.343Q0.420 0.392 0.419 0.437Q0.418 0.482 0.416 0.501ZM0.701 0.252V0.405Q0.701 0.435 0.701 0.464Q0.701 0.492 0.700 0.514Q0.699 0.537 0.698 0.553Q0.698 0.569 0.698 0.571Q0.695 0.578 0.693 0.594Q0.691 0.609 0.683 0.627Q0.675 0.646 0.662 0.664Q0.648 0.682 0.625 0.695Q0.601 0.709 0.578 0.717Q0.555 0.724 0.538 0.730Q0.519 0.737 0.500 0.741Q0.542 0.737 0.579 0.723Q0.611 0.711 0.642 0.689Q0.674 0.667 0.692 0.626Q0.701 0.595 0.703 0.532Q0.705 0.470 0.705 0.409Q0.705 0.336 0.701 0.252Z" fill="black"/>
</svg>
