<svg xmlns="http://www.w3.org/2000/svg" viewBox="0 0 1 1" preserveAspectRatio="xMidYMid meet">
  <path d="M0.817 1.074H0.183V-0.148H0.817ZM0.304 0.200Q0.297 0.199 0.285 0.214Q0.273 0.229 0.269 0.243Q0.267 0.248 0.270 0.272Q0.273 0.296 0.277 0.330Q0.280 0.364 0.285 0.404Q0.290 0.444 0.294 0.480Q0.299 0.516 0.303 0.542Q0.307 0.568 0.308 0.577Q0.311 0.602 0.313 0.625Q0.315 0.648 0.315 0.653Q0.315 0.657 0.315 0.671Q0.315 0.686 0.327 0.693Q0.341 0.699 0.354 0.695Q0.368 0.690 0.380 0.665Q0.386 0.653 0.393 0.634Q0.399 0.615 0.407 0.596Q0.416 0.577 0.423 0.561Q0.430 0.546 0.440 0.536Q0.454 0.521 0.462 0.512Q0.469 0.504 0.469 0.491Q0.470 0.481 0.465 0.477Q0.459 0.474 0.456 0.464Q0.452 0.457 0.455 0.445Q0.458 0.433 0.466 0.432Q0.473 0.429 0.483 0.443Q0.494 0.456 0.500 0.463Q0.504 0.466 0.516 0.483Q0.529 0.501 0.543 0.524Q0.557 0.547 0.570 0.566Q0.582 0.585 0.583 0.591Q0.584 0.596 0.590 0.614Q0.595 0.631 0.604 0.649Q0.612 0.668 0.621 0.680Q0.629 0.693 0.638 0.690Q0.648 0.686 0.651 0.674Q0.655 0.663 0.655 0.647Q0.655 0.631 0.655 0.616Q0.655 0.600 0.657 0.588Q0.659 0.576 0.662 0.533Q0.666 0.491 0.669 0.444Q0.673 0.396 0.677 0.354Q0.681 0.313 0.686 0.304Q0.696 0.285 0.704 0.263Q0.711 0.241 0.708 0.230Q0.704 0.219 0.695 0.209Q0.686 0.199 0.680 0.199Q0.673 0.199 0.658 0.222Q0.644 0.244 0.644 0.267Q0.644 0.278 0.641 0.317Q0.638 0.355 0.633 0.400Q0.629 0.445 0.624 0.484Q0.618 0.523 0.617 0.534Q0.612 0.555 0.613 0.567Q0.613 0.578 0.601 0.570Q0.587 0.564 0.577 0.557Q0.567 0.550 0.565 0.538Q0.561 0.525 0.558 0.513Q0.555 0.501 0.564 0.501Q0.572 0.501 0.576 0.500Q0.579 0.500 0.579 0.491Q0.579 0.483 0.570 0.468Q0.561 0.452 0.553 0.441Q0.546 0.429 0.535 0.416Q0.525 0.403 0.523 0.391Q0.522 0.376 0.518 0.357Q0.514 0.338 0.511 0.332Q0.510 0.327 0.507 0.320Q0.504 0.312 0.500 0.313Q0.498 0.316 0.493 0.321Q0.489 0.326 0.486 0.327Q0.482 0.331 0.468 0.344Q0.454 0.358 0.454 0.372Q0.452 0.381 0.450 0.396Q0.447 0.410 0.443 0.421Q0.440 0.432 0.442 0.436Q0.443 0.441 0.440 0.451Q0.435 0.459 0.422 0.467Q0.410 0.474 0.406 0.483Q0.405 0.489 0.400 0.500Q0.394 0.512 0.388 0.523Q0.382 0.535 0.376 0.545Q0.369 0.555 0.367 0.561Q0.358 0.570 0.360 0.573Q0.362 0.576 0.357 0.572Q0.353 0.570 0.351 0.558Q0.349 0.546 0.345 0.529Q0.341 0.513 0.340 0.497Q0.338 0.482 0.338 0.474Q0.338 0.464 0.336 0.441Q0.333 0.417 0.330 0.390Q0.327 0.362 0.325 0.339Q0.323 0.316 0.323 0.309Q0.326 0.296 0.327 0.270Q0.328 0.244 0.328 0.234Q0.328 0.224 0.318 0.213Q0.308 0.202 0.304 0.200ZM0.358 0.229Q0.362 0.262 0.367 0.292Q0.369 0.316 0.371 0.340Q0.373 0.364 0.371 0.373Q0.369 0.381 0.369 0.392Q0.369 0.402 0.369 0.410V0.428Q0.371 0.415 0.375 0.404Q0.379 0.396 0.381 0.388Q0.382 0.380 0.382 0.376Q0.382 0.373 0.378 0.349Q0.373 0.326 0.369 0.300ZM0.518 0.315Q0.529 0.334 0.537 0.350Q0.546 0.364 0.552 0.376Q0.559 0.388 0.561 0.392Q0.564 0.396 0.568 0.405Q0.572 0.414 0.577 0.423Q0.582 0.433 0.585 0.440Q0.587 0.447 0.587 0.445Q0.587 0.444 0.579 0.424Q0.570 0.404 0.558 0.381Q0.546 0.357 0.534 0.337Q0.523 0.316 0.518 0.315ZM0.729 0.256Q0.726 0.304 0.720 0.343Q0.716 0.376 0.713 0.406Q0.710 0.436 0.710 0.444Q0.710 0.451 0.707 0.482Q0.703 0.513 0.700 0.550Q0.696 0.588 0.693 0.618Q0.689 0.648 0.689 0.653Q0.689 0.661 0.686 0.676Q0.684 0.691 0.677 0.697Q0.666 0.708 0.654 0.704Q0.650 0.702 0.647 0.698Q0.644 0.697 0.644 0.695L0.651 0.705Q0.659 0.716 0.667 0.714Q0.691 0.710 0.693 0.667Q0.693 0.656 0.697 0.624Q0.701 0.591 0.705 0.554Q0.708 0.517 0.712 0.485Q0.715 0.453 0.716 0.445Q0.716 0.436 0.718 0.406Q0.720 0.376 0.723 0.343Q0.727 0.304 0.729 0.256ZM0.388 0.697Q0.375 0.714 0.371 0.714Q0.367 0.713 0.362 0.717Q0.361 0.723 0.368 0.722Q0.375 0.721 0.391 0.705Q0.398 0.697 0.409 0.676Q0.421 0.655 0.431 0.631Q0.441 0.608 0.450 0.590Q0.459 0.572 0.460 0.568Q0.464 0.565 0.467 0.557Q0.469 0.549 0.471 0.540Q0.475 0.530 0.478 0.517Q0.459 0.561 0.440 0.597Q0.424 0.630 0.409 0.658Q0.394 0.687 0.388 0.697Z" fill="black"/>
</svg>
