<svg xmlns="http://www.w3.org/2000/svg" viewBox="0 0 1 1" preserveAspectRatio="xMidYMid meet">
  <path d="M0.817 1.074H0.183V-0.148H0.817ZM0.676 0.243Q0.680 0.228 0.669 0.216Q0.659 0.205 0.656 0.199Q0.651 0.194 0.651 0.191V0.186L0.644 0.188Q0.637 0.192 0.637 0.197Q0.633 0.199 0.622 0.211Q0.610 0.224 0.604 0.233Q0.601 0.239 0.592 0.255Q0.582 0.271 0.570 0.291Q0.558 0.312 0.546 0.331Q0.535 0.350 0.529 0.360Q0.517 0.379 0.506 0.394Q0.495 0.409 0.493 0.417L0.487 0.428Q0.487 0.427 0.486 0.424Q0.483 0.423 0.480 0.416Q0.475 0.412 0.467 0.403Q0.458 0.393 0.463 0.390Q0.467 0.386 0.470 0.388Q0.473 0.390 0.475 0.382Q0.476 0.375 0.471 0.367Q0.467 0.360 0.458 0.352Q0.453 0.345 0.440 0.332Q0.426 0.319 0.415 0.300Q0.407 0.282 0.396 0.258Q0.384 0.233 0.379 0.222Q0.377 0.212 0.374 0.209Q0.371 0.206 0.366 0.201Q0.360 0.197 0.360 0.199V0.203Q0.347 0.209 0.337 0.216Q0.318 0.231 0.322 0.251Q0.324 0.261 0.336 0.279Q0.347 0.296 0.362 0.315Q0.377 0.333 0.390 0.350Q0.403 0.368 0.411 0.379Q0.427 0.399 0.448 0.421Q0.468 0.444 0.471 0.449L0.476 0.457Q0.475 0.461 0.471 0.468Q0.467 0.477 0.461 0.483Q0.457 0.487 0.447 0.500Q0.437 0.513 0.431 0.518Q0.427 0.520 0.417 0.532Q0.408 0.544 0.396 0.559Q0.384 0.574 0.373 0.589Q0.362 0.604 0.356 0.612Q0.347 0.627 0.336 0.641Q0.325 0.656 0.328 0.670Q0.329 0.683 0.345 0.694Q0.362 0.704 0.377 0.689Q0.390 0.674 0.396 0.654Q0.401 0.634 0.422 0.607Q0.445 0.578 0.460 0.559Q0.475 0.540 0.479 0.532Q0.480 0.524 0.481 0.523Q0.482 0.522 0.473 0.518Q0.457 0.516 0.463 0.507Q0.467 0.505 0.471 0.496Q0.475 0.488 0.480 0.487Q0.483 0.487 0.485 0.484Q0.488 0.482 0.493 0.477Q0.495 0.475 0.501 0.471V0.486Q0.501 0.502 0.505 0.507Q0.506 0.512 0.515 0.526Q0.524 0.540 0.535 0.556Q0.546 0.573 0.556 0.589Q0.566 0.604 0.572 0.612Q0.584 0.627 0.594 0.644Q0.604 0.661 0.610 0.670Q0.615 0.679 0.621 0.687Q0.626 0.695 0.633 0.699Q0.640 0.704 0.650 0.704Q0.661 0.704 0.670 0.695Q0.689 0.683 0.686 0.663Q0.682 0.653 0.660 0.634Q0.638 0.616 0.625 0.597Q0.618 0.589 0.605 0.571Q0.591 0.552 0.577 0.534Q0.562 0.516 0.551 0.499Q0.540 0.483 0.537 0.480L0.531 0.471Q0.533 0.469 0.535 0.465Q0.536 0.464 0.536 0.463Q0.537 0.461 0.542 0.459Q0.543 0.458 0.545 0.458Q0.547 0.457 0.548 0.454Q0.550 0.453 0.552 0.453Q0.550 0.451 0.547 0.449Q0.540 0.446 0.536 0.449Q0.533 0.453 0.525 0.457Q0.522 0.458 0.521 0.458L0.513 0.449Q0.517 0.447 0.522 0.442Q0.525 0.439 0.530 0.434Q0.536 0.429 0.542 0.424Q0.547 0.420 0.556 0.407Q0.565 0.394 0.574 0.379Q0.582 0.364 0.590 0.351Q0.597 0.338 0.603 0.331Q0.612 0.318 0.633 0.297Q0.655 0.277 0.661 0.270Q0.674 0.255 0.676 0.243ZM0.680 0.276Q0.649 0.318 0.626 0.350Q0.604 0.380 0.588 0.407Q0.572 0.434 0.567 0.436Q0.562 0.446 0.566 0.455Q0.570 0.463 0.573 0.469Q0.576 0.473 0.589 0.490Q0.601 0.507 0.616 0.527Q0.630 0.547 0.640 0.562Q0.651 0.577 0.649 0.571Q0.645 0.566 0.636 0.553Q0.627 0.540 0.618 0.526Q0.608 0.512 0.600 0.499Q0.592 0.487 0.592 0.483Q0.589 0.476 0.587 0.469Q0.585 0.461 0.582 0.458L0.576 0.451Q0.573 0.449 0.572 0.449ZM0.476 0.338Q0.476 0.342 0.479 0.331Q0.483 0.319 0.480 0.315Q0.479 0.314 0.470 0.299Q0.461 0.284 0.450 0.266Q0.438 0.247 0.420 0.222Q0.438 0.247 0.450 0.267Q0.461 0.288 0.470 0.307Q0.479 0.326 0.476 0.338ZM0.476 0.573Q0.457 0.607 0.439 0.633Q0.426 0.656 0.411 0.675Q0.396 0.695 0.392 0.699Q0.384 0.706 0.377 0.706Q0.373 0.706 0.370 0.705L0.356 0.725Q0.362 0.724 0.370 0.723Q0.382 0.719 0.386 0.713Q0.389 0.712 0.404 0.692Q0.419 0.671 0.435 0.648Q0.452 0.625 0.466 0.603Q0.479 0.580 0.476 0.573ZM0.676 0.713Q0.676 0.712 0.675 0.712Q0.674 0.712 0.672 0.716L0.668 0.723Q0.670 0.724 0.672 0.724Q0.674 0.724 0.676 0.713Z" fill="black"/>
</svg>
