<svg xmlns="http://www.w3.org/2000/svg" viewBox="0 0 1 1" preserveAspectRatio="xMidYMid meet">
  <path d="M0.816 1.074H0.184V-0.148H0.816ZM0.499 0.422Q0.492 0.424 0.489 0.424Q0.486 0.424 0.485 0.414Q0.481 0.407 0.481 0.402Q0.481 0.397 0.478 0.387Q0.475 0.382 0.466 0.370Q0.457 0.358 0.445 0.345Q0.433 0.333 0.424 0.321Q0.414 0.309 0.411 0.304Q0.407 0.299 0.404 0.286Q0.400 0.274 0.395 0.259Q0.391 0.244 0.384 0.232Q0.378 0.220 0.372 0.216Q0.361 0.207 0.345 0.209Q0.329 0.211 0.325 0.228Q0.324 0.237 0.333 0.258Q0.343 0.278 0.357 0.301Q0.372 0.324 0.388 0.347Q0.404 0.371 0.414 0.384Q0.436 0.413 0.455 0.437Q0.473 0.461 0.474 0.464Q0.474 0.467 0.475 0.490Q0.475 0.513 0.477 0.541Q0.478 0.569 0.478 0.595Q0.478 0.621 0.478 0.627Q0.478 0.634 0.476 0.648Q0.474 0.663 0.475 0.676Q0.475 0.689 0.483 0.700Q0.490 0.710 0.508 0.710Q0.526 0.710 0.531 0.700Q0.535 0.689 0.535 0.676Q0.534 0.663 0.531 0.648Q0.527 0.634 0.526 0.627Q0.523 0.621 0.522 0.601Q0.520 0.580 0.519 0.555Q0.518 0.531 0.519 0.509Q0.520 0.487 0.523 0.476Q0.527 0.467 0.543 0.444Q0.558 0.420 0.579 0.392Q0.600 0.364 0.618 0.340Q0.636 0.316 0.643 0.308Q0.656 0.292 0.674 0.271Q0.693 0.250 0.693 0.239Q0.693 0.228 0.681 0.218Q0.669 0.209 0.665 0.203Q0.659 0.198 0.648 0.206Q0.636 0.214 0.625 0.231Q0.621 0.239 0.610 0.257Q0.600 0.274 0.589 0.292Q0.578 0.311 0.569 0.327Q0.560 0.342 0.557 0.350Q0.553 0.354 0.544 0.366Q0.535 0.379 0.526 0.391Q0.516 0.402 0.508 0.412Q0.500 0.422 0.499 0.422ZM0.424 0.240 0.492 0.346Q0.490 0.342 0.481 0.326Q0.471 0.309 0.457 0.290Q0.442 0.269 0.424 0.240ZM0.700 0.273Q0.661 0.327 0.629 0.372Q0.603 0.412 0.581 0.442Q0.558 0.472 0.558 0.476Q0.558 0.479 0.558 0.511Q0.558 0.543 0.560 0.581Q0.560 0.627 0.564 0.682Q0.558 0.689 0.556 0.694Q0.550 0.705 0.546 0.708L0.535 0.719Q0.542 0.716 0.550 0.708Q0.556 0.701 0.561 0.691Q0.566 0.681 0.566 0.660Q0.566 0.644 0.567 0.613Q0.569 0.581 0.569 0.550V0.472Q0.603 0.422 0.632 0.378Q0.656 0.341 0.678 0.308Q0.700 0.275 0.700 0.273Z" fill="black"/>
</svg>
