<svg xmlns="http://www.w3.org/2000/svg" viewBox="0 0 1 1" preserveAspectRatio="xMidYMid meet">
  <path d="M0.818 1.074H0.182V-0.148H0.818ZM0.356 0.191Q0.351 0.191 0.346 0.189Q0.342 0.187 0.340 0.191Q0.336 0.195 0.339 0.205Q0.342 0.216 0.342 0.223V0.258H0.412Q0.442 0.258 0.466 0.258Q0.490 0.258 0.497 0.257Q0.509 0.253 0.514 0.255Q0.519 0.257 0.527 0.253Q0.535 0.250 0.552 0.247Q0.569 0.244 0.577 0.257Q0.586 0.270 0.582 0.281Q0.578 0.292 0.575 0.295Q0.574 0.296 0.550 0.326Q0.527 0.355 0.499 0.391Q0.471 0.427 0.446 0.459Q0.419 0.490 0.412 0.499Q0.405 0.507 0.393 0.527Q0.382 0.547 0.370 0.566Q0.359 0.585 0.353 0.601Q0.346 0.616 0.346 0.619Q0.346 0.625 0.341 0.646Q0.336 0.668 0.341 0.679Q0.346 0.689 0.364 0.690Q0.382 0.691 0.393 0.691Q0.397 0.691 0.425 0.692Q0.454 0.693 0.486 0.694Q0.519 0.695 0.548 0.697Q0.577 0.698 0.584 0.698Q0.600 0.698 0.610 0.702Q0.620 0.706 0.636 0.704Q0.652 0.700 0.665 0.683Q0.678 0.667 0.678 0.646Q0.678 0.626 0.657 0.621Q0.636 0.615 0.620 0.625Q0.612 0.629 0.593 0.633Q0.574 0.637 0.553 0.639Q0.532 0.641 0.514 0.642Q0.495 0.644 0.490 0.641Q0.478 0.640 0.466 0.633Q0.453 0.626 0.445 0.629Q0.438 0.633 0.430 0.636Q0.423 0.640 0.414 0.640Q0.406 0.640 0.392 0.635Q0.378 0.631 0.378 0.626Q0.378 0.625 0.394 0.602Q0.410 0.578 0.430 0.551Q0.450 0.524 0.469 0.499Q0.489 0.475 0.497 0.465Q0.504 0.457 0.527 0.426Q0.550 0.396 0.575 0.362Q0.599 0.329 0.618 0.301Q0.637 0.274 0.641 0.270Q0.647 0.264 0.653 0.246Q0.659 0.228 0.659 0.217Q0.659 0.208 0.645 0.193Q0.630 0.178 0.623 0.179Q0.614 0.180 0.607 0.188Q0.600 0.195 0.590 0.195Q0.588 0.195 0.561 0.196Q0.534 0.197 0.503 0.197Q0.471 0.197 0.444 0.198Q0.416 0.198 0.412 0.198Q0.407 0.198 0.398 0.198Q0.389 0.197 0.381 0.195Q0.369 0.193 0.356 0.191ZM0.679 0.232Q0.678 0.244 0.677 0.254Q0.673 0.264 0.670 0.274Q0.667 0.283 0.662 0.289Q0.659 0.294 0.644 0.315Q0.628 0.336 0.606 0.364Q0.584 0.393 0.559 0.425Q0.534 0.458 0.513 0.487Q0.491 0.516 0.476 0.535Q0.462 0.555 0.461 0.559Q0.457 0.565 0.455 0.569Q0.453 0.573 0.449 0.577Q0.445 0.582 0.443 0.585L0.490 0.578Q0.483 0.582 0.478 0.582Q0.468 0.582 0.471 0.570Q0.472 0.562 0.496 0.528Q0.520 0.495 0.548 0.457Q0.577 0.419 0.601 0.385Q0.625 0.351 0.629 0.344Q0.634 0.337 0.645 0.323Q0.655 0.308 0.665 0.292Q0.674 0.277 0.680 0.261Q0.685 0.244 0.679 0.232Z" fill="black"/>
</svg>
