<svg xmlns="http://www.w3.org/2000/svg" viewBox="0 0 1 1" preserveAspectRatio="xMidYMid meet">
  <path d="M0.287 0.787V0.696Q0.391 0.738 0.451 0.738Q0.522 0.738 0.565 0.697Q0.609 0.657 0.609 0.592Q0.609 0.437 0.393 0.437H0.354V0.372L0.389 0.371Q0.591 0.371 0.591 0.228Q0.591 0.116 0.457 0.116Q0.385 0.116 0.297 0.157V0.072Q0.383 0.043 0.463 0.043Q0.572 0.043 0.631 0.087Q0.689 0.130 0.689 0.213Q0.689 0.342 0.536 0.396Q0.713 0.437 0.713 0.590Q0.713 0.694 0.645 0.752Q0.577 0.811 0.458 0.811Q0.390 0.811 0.287 0.787Z" fill="black"/>
</svg>
