<svg xmlns="http://www.w3.org/2000/svg" viewBox="0 0 1 1" preserveAspectRatio="xMidYMid meet">
  <path d="M0.356 0.414Q0.426 0.323 0.532 0.323Q0.628 0.323 0.689 0.387Q0.750 0.450 0.750 0.550Q0.750 0.664 0.681 0.738Q0.613 0.811 0.507 0.811Q0.387 0.811 0.318 0.714Q0.250 0.616 0.250 0.443Q0.250 0.211 0.369 0.102Q0.434 0.043 0.548 0.043Q0.614 0.043 0.712 0.070V0.155Q0.609 0.116 0.542 0.116Q0.356 0.116 0.356 0.414ZM0.652 0.569Q0.652 0.488 0.614 0.441Q0.577 0.393 0.512 0.393Q0.449 0.393 0.405 0.435Q0.360 0.477 0.360 0.535Q0.360 0.627 0.403 0.682Q0.445 0.738 0.515 0.738Q0.578 0.738 0.615 0.693Q0.652 0.647 0.652 0.569Z" fill="black"/>
</svg>
