<svg xmlns="http://www.w3.org/2000/svg" viewBox="0 0 1 1" preserveAspectRatio="xMidYMid meet">
  <path d="M0.401 0.394Q0.340 0.352 0.317 0.316Q0.293 0.280 0.293 0.229Q0.293 0.146 0.354 0.094Q0.415 0.043 0.513 0.043Q0.603 0.043 0.659 0.087Q0.716 0.130 0.716 0.201Q0.716 0.307 0.579 0.394Q0.745 0.476 0.745 0.604Q0.745 0.695 0.675 0.753Q0.606 0.811 0.498 0.811Q0.389 0.811 0.322 0.757Q0.255 0.702 0.255 0.613Q0.255 0.481 0.401 0.394ZM0.525 0.364Q0.627 0.297 0.627 0.214Q0.627 0.170 0.593 0.143Q0.558 0.116 0.503 0.116Q0.449 0.116 0.415 0.143Q0.382 0.169 0.382 0.211Q0.382 0.252 0.412 0.285Q0.443 0.317 0.525 0.364ZM0.454 0.434Q0.395 0.479 0.374 0.513Q0.353 0.547 0.353 0.598Q0.353 0.660 0.393 0.699Q0.434 0.738 0.500 0.738Q0.564 0.738 0.604 0.705Q0.644 0.672 0.644 0.619Q0.644 0.576 0.619 0.547Q0.594 0.518 0.523 0.475Z" fill="black"/>
</svg>
