<svg xmlns="http://www.w3.org/2000/svg" viewBox="0 0 1 1" preserveAspectRatio="xMidYMid meet">
  <path d="M0.289 0.788V0.706Q0.382 0.738 0.448 0.738Q0.539 0.738 0.590 0.661Q0.641 0.583 0.641 0.445Q0.567 0.537 0.472 0.537Q0.380 0.537 0.316 0.469Q0.251 0.401 0.251 0.303Q0.251 0.191 0.320 0.117Q0.388 0.043 0.492 0.043Q0.611 0.043 0.680 0.139Q0.749 0.234 0.749 0.400Q0.749 0.506 0.716 0.599Q0.682 0.693 0.627 0.744Q0.555 0.811 0.438 0.811Q0.381 0.811 0.289 0.788ZM0.349 0.286Q0.349 0.370 0.387 0.418Q0.425 0.467 0.490 0.467Q0.552 0.467 0.596 0.425Q0.639 0.383 0.639 0.323Q0.639 0.230 0.597 0.173Q0.555 0.116 0.486 0.116Q0.422 0.116 0.385 0.161Q0.349 0.207 0.349 0.286Z" fill="black"/>
</svg>
