<svg xmlns="http://www.w3.org/2000/svg" viewBox="0 0 1 1" preserveAspectRatio="xMidYMid meet">
  <path d="M0.582 0.725Q0.494 0.805 0.413 0.805Q0.346 0.805 0.302 0.763Q0.258 0.722 0.258 0.658Q0.258 0.570 0.332 0.523Q0.406 0.476 0.544 0.476H0.567V0.411Q0.567 0.317 0.470 0.317Q0.394 0.317 0.305 0.365V0.284Q0.403 0.244 0.490 0.244Q0.580 0.244 0.622 0.285Q0.665 0.326 0.665 0.411V0.654Q0.665 0.738 0.716 0.738Q0.722 0.738 0.735 0.736L0.742 0.789Q0.709 0.805 0.669 0.805Q0.600 0.805 0.582 0.725ZM0.567 0.672V0.533L0.536 0.532Q0.455 0.532 0.405 0.562Q0.356 0.592 0.356 0.642Q0.356 0.677 0.380 0.701Q0.405 0.726 0.441 0.726Q0.501 0.726 0.567 0.672Z" fill="black"/>
</svg>
