<svg xmlns="http://www.w3.org/2000/svg" viewBox="0 0 1 1" preserveAspectRatio="xMidYMid meet">
  <path d="M0.277 0.793V0.061H0.467Q0.577 0.061 0.635 0.103Q0.694 0.144 0.694 0.222Q0.694 0.286 0.655 0.335Q0.616 0.385 0.543 0.412Q0.723 0.467 0.723 0.610Q0.723 0.674 0.683 0.724Q0.653 0.762 0.611 0.778Q0.568 0.793 0.493 0.793ZM0.380 0.715H0.401Q0.515 0.715 0.549 0.701Q0.613 0.674 0.613 0.600Q0.613 0.535 0.555 0.492Q0.497 0.448 0.409 0.448H0.380ZM0.380 0.383H0.413Q0.497 0.383 0.542 0.347Q0.587 0.311 0.587 0.246Q0.587 0.139 0.420 0.139H0.380Z" fill="black"/>
</svg>
