<svg xmlns="http://www.w3.org/2000/svg" viewBox="0 0 1 1" preserveAspectRatio="xMidYMid meet">
  <path d="M0.302 0.971 0.313 0.887Q0.398 0.927 0.480 0.927Q0.645 0.927 0.645 0.752V0.668Q0.619 0.721 0.573 0.751Q0.526 0.781 0.469 0.781Q0.371 0.781 0.314 0.711Q0.258 0.641 0.258 0.521Q0.258 0.398 0.322 0.321Q0.387 0.244 0.490 0.244Q0.580 0.244 0.645 0.317V0.256H0.742V0.647Q0.742 0.773 0.729 0.833Q0.716 0.894 0.680 0.932Q0.616 1.000 0.481 1.000Q0.388 1.000 0.302 0.971ZM0.645 0.607V0.384Q0.580 0.317 0.505 0.317Q0.437 0.317 0.399 0.371Q0.361 0.425 0.361 0.521Q0.361 0.696 0.485 0.696Q0.570 0.696 0.645 0.607Z" fill="black"/>
</svg>
