<svg xmlns="http://www.w3.org/2000/svg" viewBox="0 0 1 1" preserveAspectRatio="xMidYMid meet">
  <path d="M0.500 0.805Q0.382 0.805 0.313 0.730Q0.244 0.654 0.244 0.524Q0.244 0.395 0.313 0.320Q0.382 0.244 0.500 0.244Q0.618 0.244 0.687 0.320Q0.756 0.395 0.756 0.524Q0.756 0.654 0.687 0.730Q0.618 0.805 0.500 0.805ZM0.500 0.732Q0.573 0.732 0.613 0.678Q0.653 0.623 0.653 0.524Q0.653 0.426 0.613 0.371Q0.573 0.317 0.500 0.317Q0.427 0.317 0.388 0.371Q0.348 0.426 0.348 0.524Q0.348 0.623 0.388 0.678Q0.427 0.732 0.500 0.732Z" fill="black"/>
</svg>
