<svg xmlns="http://www.w3.org/2000/svg" viewBox="0 0 1 1" preserveAspectRatio="xMidYMid meet">
  <path d="M0.500 0.811Q0.344 0.811 0.251 0.707Q0.158 0.602 0.158 0.427Q0.158 0.252 0.251 0.148Q0.344 0.043 0.500 0.043Q0.656 0.043 0.749 0.148Q0.842 0.252 0.842 0.427Q0.842 0.602 0.749 0.707Q0.656 0.811 0.500 0.811ZM0.500 0.734Q0.609 0.734 0.671 0.652Q0.732 0.571 0.732 0.426Q0.732 0.282 0.671 0.201Q0.609 0.121 0.500 0.121Q0.391 0.121 0.329 0.201Q0.268 0.282 0.268 0.426Q0.268 0.571 0.329 0.652Q0.391 0.734 0.500 0.734Z" fill="black"/>
</svg>
