<svg xmlns="http://www.w3.org/2000/svg" viewBox="0 0 1 1" preserveAspectRatio="xMidYMid meet">
  <path d="M0.813 0.939Q0.641 0.883 0.524 0.806Q0.478 0.811 0.453 0.811Q0.305 0.811 0.213 0.704Q0.121 0.598 0.121 0.427Q0.121 0.252 0.214 0.148Q0.307 0.043 0.463 0.043Q0.619 0.043 0.712 0.148Q0.805 0.253 0.805 0.429Q0.805 0.681 0.618 0.778Q0.744 0.833 0.879 0.857ZM0.463 0.734Q0.572 0.734 0.633 0.652Q0.695 0.571 0.695 0.427Q0.695 0.282 0.633 0.201Q0.572 0.121 0.463 0.121Q0.354 0.121 0.292 0.201Q0.231 0.282 0.231 0.426Q0.231 0.571 0.292 0.652Q0.354 0.734 0.463 0.734Z" fill="black"/>
</svg>
