<svg xmlns="http://www.w3.org/2000/svg" viewBox="0 0 1 1" preserveAspectRatio="xMidYMid meet">
  <path d="M0.320 0.774V0.685Q0.415 0.732 0.486 0.732Q0.528 0.732 0.555 0.709Q0.583 0.687 0.583 0.652Q0.583 0.603 0.505 0.570L0.449 0.546Q0.323 0.493 0.323 0.395Q0.323 0.325 0.372 0.284Q0.422 0.244 0.508 0.244Q0.553 0.244 0.620 0.257L0.640 0.261V0.342Q0.558 0.317 0.510 0.317Q0.467 0.317 0.442 0.336Q0.416 0.354 0.416 0.386Q0.416 0.430 0.488 0.460L0.535 0.479Q0.614 0.513 0.647 0.550Q0.680 0.588 0.680 0.644Q0.680 0.714 0.625 0.760Q0.569 0.805 0.482 0.805Q0.415 0.805 0.320 0.774Z" fill="black"/>
</svg>
