<svg xmlns="http://www.w3.org/2000/svg" viewBox="0 0 1 1" preserveAspectRatio="xMidYMid meet">
  <path d="M0.277 0.779V0.676Q0.401 0.734 0.481 0.734Q0.542 0.734 0.579 0.701Q0.616 0.669 0.616 0.617Q0.616 0.574 0.592 0.544Q0.567 0.514 0.502 0.477L0.451 0.447Q0.358 0.394 0.320 0.347Q0.281 0.300 0.281 0.237Q0.281 0.152 0.343 0.098Q0.404 0.043 0.499 0.043Q0.583 0.043 0.677 0.071V0.166Q0.562 0.121 0.505 0.121Q0.451 0.121 0.416 0.149Q0.381 0.178 0.381 0.221Q0.381 0.258 0.406 0.286Q0.432 0.314 0.500 0.353L0.553 0.383Q0.648 0.437 0.685 0.485Q0.723 0.533 0.723 0.600Q0.723 0.696 0.652 0.753Q0.582 0.811 0.466 0.811Q0.392 0.811 0.277 0.779Z" fill="black"/>
</svg>
