<svg xmlns="http://www.w3.org/2000/svg" viewBox="0 0 1 1" preserveAspectRatio="xMidYMid meet">
  <path d="M0.500 0.038Q0.663 0.038 0.693 0.454V0.513Q0.689 0.882 0.548 0.971Q0.525 0.980 0.506 0.980H0.488Q0.387 0.980 0.331 0.751Q0.307 0.632 0.307 0.507Q0.315 0.146 0.441 0.056Q0.471 0.038 0.500 0.038ZM0.360 0.484V0.540Q0.360 0.789 0.455 0.912Q0.482 0.929 0.500 0.929H0.503Q0.600 0.929 0.637 0.620Q0.643 0.532 0.643 0.510Q0.643 0.221 0.542 0.106Q0.530 0.094 0.500 0.088Q0.400 0.088 0.363 0.403Q0.360 0.439 0.360 0.484Z" fill="black"/>
</svg>
