<svg xmlns="http://www.w3.org/2000/svg" viewBox="0 0 1 1" preserveAspectRatio="xMidYMid meet">
  <path d="M0.272 0.038H0.554Q0.671 0.038 0.714 0.139Q0.729 0.166 0.729 0.213V0.222Q0.729 0.377 0.628 0.442Q0.738 0.531 0.738 0.674V0.704Q0.738 0.816 0.650 0.921Q0.576 0.980 0.493 0.980H0.457Q0.344 0.980 0.301 0.895Q0.262 0.817 0.262 0.777Q0.262 0.773 0.263 0.769H0.312Q0.343 0.929 0.464 0.929H0.475Q0.659 0.929 0.685 0.742Q0.688 0.698 0.688 0.683Q0.688 0.520 0.560 0.469Q0.527 0.463 0.486 0.463H0.349V0.412H0.554Q0.659 0.412 0.679 0.216Q0.679 0.110 0.578 0.091Q0.549 0.088 0.521 0.088H0.272Z" fill="black"/>
</svg>
