<svg xmlns="http://www.w3.org/2000/svg" viewBox="0 0 1 1" preserveAspectRatio="xMidYMid meet">
  <path d="M0.256 0.038H0.717V0.088H0.304V0.365Q0.383 0.356 0.435 0.353Q0.666 0.353 0.735 0.519Q0.750 0.578 0.750 0.620Q0.750 0.860 0.467 0.950Q0.354 0.980 0.274 0.980H0.259Q0.253 0.980 0.253 0.974V0.935Q0.254 0.929 0.259 0.929Q0.461 0.929 0.607 0.822Q0.696 0.744 0.696 0.635V0.608Q0.696 0.463 0.551 0.421Q0.503 0.406 0.438 0.406Q0.347 0.406 0.253 0.430L0.250 0.424V0.044Q0.251 0.038 0.256 0.038Z" fill="black"/>
</svg>
