<svg xmlns="http://www.w3.org/2000/svg" viewBox="0 0 1 1" preserveAspectRatio="xMidYMid meet">
  <path d="M0.634 0.068 0.402 0.496H0.405Q0.453 0.477 0.507 0.477Q0.647 0.477 0.730 0.625Q0.751 0.676 0.751 0.721V0.745Q0.751 0.850 0.646 0.935Q0.581 0.980 0.510 0.980H0.483Q0.353 0.980 0.269 0.832Q0.249 0.779 0.249 0.733V0.727Q0.249 0.648 0.327 0.522L0.592 0.041ZM0.300 0.730Q0.300 0.868 0.457 0.926Q0.486 0.929 0.501 0.929Q0.640 0.929 0.694 0.779Q0.700 0.748 0.700 0.727Q0.700 0.588 0.546 0.534L0.501 0.528Q0.366 0.528 0.309 0.673Q0.303 0.694 0.300 0.730Z" fill="black"/>
</svg>
