<svg xmlns="http://www.w3.org/2000/svg" viewBox="0 0 1 1" preserveAspectRatio="xMidYMid meet">
  <path d="M0.501 0.041Q0.647 0.041 0.721 0.198Q0.733 0.253 0.733 0.273Q0.733 0.401 0.611 0.475V0.478Q0.696 0.514 0.739 0.603Q0.763 0.652 0.763 0.692V0.742Q0.763 0.853 0.638 0.944Q0.572 0.980 0.513 0.980H0.490Q0.334 0.980 0.252 0.808Q0.237 0.760 0.237 0.721V0.712Q0.237 0.561 0.389 0.478H0.392V0.475Q0.270 0.406 0.270 0.273Q0.270 0.116 0.439 0.050Q0.470 0.044 0.501 0.041ZM0.323 0.258V0.285Q0.323 0.396 0.457 0.448L0.501 0.454Q0.622 0.454 0.674 0.323Q0.680 0.301 0.680 0.282V0.267Q0.680 0.150 0.549 0.100Q0.527 0.094 0.507 0.094H0.496Q0.372 0.094 0.326 0.234Q0.323 0.245 0.323 0.258ZM0.288 0.718Q0.288 0.854 0.436 0.921Q0.474 0.929 0.507 0.929Q0.635 0.929 0.701 0.790Q0.712 0.759 0.712 0.721V0.712Q0.712 0.577 0.570 0.516Q0.539 0.504 0.501 0.504Q0.373 0.504 0.308 0.629Q0.293 0.655 0.288 0.718Z" fill="black"/>
</svg>
