<svg xmlns="http://www.w3.org/2000/svg" viewBox="0 0 1 1" preserveAspectRatio="xMidYMid meet">
  <path d="M0.366 0.953 0.598 0.525H0.595Q0.546 0.544 0.492 0.544Q0.352 0.544 0.269 0.396Q0.249 0.345 0.249 0.299V0.276Q0.249 0.171 0.354 0.086Q0.419 0.041 0.489 0.041H0.517Q0.646 0.041 0.730 0.189Q0.751 0.241 0.751 0.288V0.293Q0.751 0.373 0.673 0.499L0.408 0.980ZM0.700 0.290Q0.700 0.152 0.543 0.095Q0.514 0.092 0.498 0.092Q0.360 0.092 0.306 0.242Q0.300 0.273 0.300 0.293Q0.300 0.432 0.453 0.487L0.498 0.493Q0.633 0.493 0.691 0.348Q0.697 0.327 0.700 0.290Z" fill="black"/>
</svg>
