<svg xmlns="http://www.w3.org/2000/svg" viewBox="0 0 1 1" preserveAspectRatio="xMidYMid meet">
  <path d="M0.605 0.038V0.069Q0.605 0.095 0.562 0.115V0.112Q0.562 0.104 0.605 0.038ZM0.614 0.069H0.616V0.090L0.599 0.112Q0.604 0.115 0.611 0.115V0.118Q0.597 0.118 0.579 0.144Q0.579 0.127 0.568 0.127H0.565V0.124Q0.614 0.100 0.614 0.069ZM0.622 0.092H0.625L0.628 0.107H0.614Q0.622 0.097 0.622 0.092ZM0.625 0.124H0.637Q0.637 0.127 0.639 0.132Q0.632 0.132 0.599 0.144Q0.599 0.137 0.596 0.132Q0.614 0.124 0.625 0.124ZM0.553 0.130H0.559Q0.548 0.153 0.548 0.173Q0.551 0.203 0.556 0.213Q0.542 0.213 0.542 0.227Q0.542 0.230 0.530 0.236V0.218Q0.530 0.212 0.533 0.207Q0.530 0.202 0.530 0.195L0.542 0.204Q0.548 0.204 0.548 0.198V0.195Q0.542 0.184 0.533 0.184Q0.553 0.136 0.553 0.130ZM0.565 0.135H0.571V0.167L0.574 0.173Q0.565 0.175 0.565 0.190V0.193Q0.565 0.198 0.574 0.198Q0.570 0.213 0.565 0.213Q0.556 0.188 0.556 0.170Q0.556 0.161 0.565 0.135ZM0.642 0.141 0.645 0.147Q0.637 0.147 0.605 0.161V0.153Q0.632 0.141 0.642 0.141ZM0.588 0.147H0.591V0.153H0.588ZM0.637 0.158H0.639Q0.631 0.193 0.622 0.193H0.616V0.190L0.631 0.173Q0.631 0.167 0.616 0.167V0.164ZM0.648 0.161H0.651Q0.651 0.190 0.662 0.190V0.193Q0.635 0.236 0.631 0.236V0.233Q0.651 0.201 0.651 0.178Q0.645 0.178 0.645 0.173Q0.648 0.168 0.648 0.161ZM0.682 0.175H0.697V0.178H0.682ZM0.576 0.178H0.579V0.184H0.576ZM0.665 0.178H0.671V0.181H0.665ZM0.682 0.190Q0.706 0.190 0.731 0.207H0.734V0.204Q0.731 0.199 0.731 0.195Q0.736 0.195 0.740 0.204V0.210H0.734V0.218L0.742 0.213Q0.742 0.221 0.751 0.221Q0.757 0.218 0.760 0.218Q0.760 0.221 0.783 0.253Q0.780 0.253 0.780 0.256Q0.785 0.259 0.791 0.259Q0.791 0.262 0.788 0.262Q0.794 0.279 0.800 0.279V0.276Q0.811 0.280 0.811 0.285V0.288Q0.805 0.288 0.805 0.296Q0.804 0.296 0.788 0.279L0.785 0.285Q0.788 0.285 0.788 0.288H0.780V0.290L0.783 0.305Q0.780 0.305 0.780 0.308Q0.773 0.308 0.763 0.288Q0.765 0.288 0.765 0.285Q0.761 0.285 0.748 0.270L0.742 0.273V0.270Q0.750 0.253 0.754 0.253Q0.755 0.259 0.760 0.259H0.765V0.256Q0.765 0.254 0.754 0.241L0.757 0.227L0.751 0.224Q0.745 0.239 0.745 0.247Q0.748 0.247 0.748 0.250Q0.742 0.251 0.742 0.256Q0.745 0.256 0.745 0.259Q0.734 0.259 0.731 0.276L0.734 0.282Q0.731 0.287 0.731 0.293Q0.731 0.296 0.734 0.296L0.731 0.302V0.308L0.737 0.305Q0.763 0.337 0.771 0.337Q0.771 0.340 0.763 0.345Q0.763 0.342 0.760 0.342Q0.760 0.346 0.748 0.351Q0.748 0.348 0.745 0.348Q0.745 0.352 0.725 0.363Q0.840 0.663 0.840 0.669Q0.816 0.669 0.797 0.692Q0.741 0.552 0.740 0.537H0.449Q0.449 0.571 0.412 0.580Q0.389 0.602 0.389 0.623V0.626Q0.389 0.649 0.404 0.660Q0.398 0.672 0.398 0.681H0.401Q0.406 0.678 0.412 0.678Q0.415 0.686 0.429 0.686Q0.439 0.686 0.455 0.678Q0.505 0.688 0.513 0.698Q0.508 0.707 0.504 0.724Q0.507 0.729 0.507 0.736L0.501 0.756Q0.488 0.744 0.475 0.744Q0.475 0.747 0.473 0.747L0.470 0.741Q0.478 0.741 0.484 0.730V0.710Q0.478 0.698 0.467 0.692H0.455Q0.432 0.692 0.429 0.721Q0.421 0.715 0.412 0.715H0.404Q0.386 0.724 0.386 0.738V0.750H0.375L0.378 0.744V0.733H0.375L0.372 0.747Q0.357 0.736 0.346 0.736H0.338Q0.289 0.744 0.289 0.785V0.790L0.292 0.805Q0.288 0.805 0.283 0.813V0.819Q0.293 0.813 0.298 0.813Q0.312 0.836 0.335 0.836V0.839Q0.335 0.842 0.306 0.856Q0.289 0.873 0.289 0.893V0.905Q0.289 0.915 0.300 0.931Q0.295 0.940 0.295 0.948H0.289Q0.237 0.956 0.237 0.996V1.002H0.209Q0.171 1.002 0.140 1.019Q0.123 1.018 0.108 1.002L0.091 1.016H0.039L0.022 1.002L0.007 1.014H-0.058Q-0.118 1.014 -0.173 1.031Q-0.149 0.991 0.053 0.991Q0.053 0.996 0.065 1.002L0.079 0.991H0.108L0.137 0.988Q0.137 0.992 0.152 1.002Q0.169 0.981 0.223 0.959Q0.244 0.959 0.272 0.865Q0.276 0.865 0.286 0.830L0.280 0.827L0.260 0.850Q0.269 0.863 0.269 0.873Q0.267 0.873 0.255 0.862H0.252Q0.252 0.873 0.243 0.873L0.237 0.870L0.217 0.893Q0.220 0.899 0.220 0.902Q0.218 0.902 0.203 0.919Q0.198 0.916 0.192 0.916L0.174 0.936L0.177 0.942Q0.137 0.968 0.097 0.968Q0.039 0.959 0.039 0.925V0.919Q0.039 0.851 0.206 0.810Q0.217 0.788 0.252 0.750V0.747H0.246Q0.193 0.747 0.097 0.660Q0.069 0.643 0.062 0.643V0.640H0.071Q0.103 0.655 0.166 0.701Q0.195 0.718 0.223 0.718Q0.243 0.718 0.252 0.704V0.689H0.249L0.200 0.698Q0.172 0.698 0.154 0.672V0.658Q0.160 0.643 0.183 0.643Q0.207 0.643 0.249 0.658Q0.268 0.649 0.298 0.646Q0.327 0.651 0.352 0.663L0.475 0.331Q0.507 0.342 0.510 0.342Q0.533 0.316 0.533 0.288Q0.533 0.279 0.519 0.256Q0.527 0.256 0.536 0.244H0.539L0.545 0.279Q0.481 0.449 0.470 0.489H0.591L0.576 0.471Q0.608 0.464 0.608 0.440Q0.628 0.463 0.651 0.463Q0.639 0.484 0.639 0.489H0.720Q0.686 0.371 0.659 0.371V0.374L0.634 0.368V0.371Q0.616 0.367 0.616 0.363Q0.637 0.325 0.637 0.319Q0.637 0.307 0.631 0.296H0.634Q0.628 0.283 0.628 0.267V0.264H0.631V0.270H0.642V0.267L0.639 0.262Q0.642 0.262 0.642 0.259H0.637L0.639 0.253L0.637 0.247Q0.655 0.211 0.682 0.193ZM0.742 0.198H0.751V0.204H0.748Q0.742 0.204 0.742 0.198ZM0.622 0.201H0.628V0.204H0.622ZM0.754 0.201H0.760V0.204H0.754ZM0.751 0.204H0.754V0.210H0.751ZM0.763 0.204H0.768V0.207H0.763ZM0.774 0.207H0.780V0.210H0.774ZM0.783 0.207Q0.788 0.210 0.791 0.210L0.788 0.216Q0.783 0.213 0.780 0.213ZM0.823 0.210H0.828V0.218Q0.823 0.218 0.823 0.213ZM0.625 0.213H0.631V0.218H0.625ZM0.791 0.213H0.800Q0.803 0.213 0.803 0.216L0.808 0.213Q0.823 0.227 0.828 0.227V0.236H0.823Q0.823 0.230 0.811 0.227Q0.811 0.218 0.791 0.216ZM0.926 0.216H0.929V0.221H0.926ZM0.519 0.218H0.522V0.230Q0.522 0.236 0.516 0.236V0.233ZM0.737 0.224V0.227Q0.738 0.233 0.742 0.233L0.745 0.227V0.224ZM0.921 0.221H0.926V0.224H0.921ZM0.551 0.224Q0.559 0.227 0.559 0.241Q0.553 0.241 0.551 0.224ZM0.843 0.224H0.851V0.227H0.843ZM0.857 0.227H0.863V0.230H0.857ZM0.895 0.227Q0.895 0.230 0.897 0.230Q0.897 0.227 0.900 0.227L0.903 0.233H0.889Q0.890 0.227 0.895 0.227ZM1.079 0.236Q1.079 0.238 1.081 0.238Q1.081 0.236 1.084 0.236V0.244Q1.080 0.244 1.067 0.253Q1.067 0.250 1.064 0.250Q1.064 0.254 1.044 0.262Q1.044 0.259 1.041 0.259Q1.041 0.264 1.036 0.264V0.262Q1.026 0.267 1.010 0.270V0.267Q1.007 0.270 0.973 0.273H0.964V0.270Q1.015 0.270 1.061 0.244Q1.061 0.247 1.064 0.247Q1.064 0.244 1.079 0.236ZM0.611 0.238H0.619V0.241H0.611ZM0.501 0.264Q0.507 0.265 0.507 0.270V0.273H0.501ZM0.568 0.264Q0.574 0.265 0.574 0.270H0.568ZM0.912 0.267H0.918V0.270H0.912ZM0.814 0.270H0.820V0.273H0.814ZM0.944 0.270H0.961V0.273H0.944ZM0.820 0.273H0.826Q0.828 0.285 0.840 0.285V0.290H0.837Q0.820 0.280 0.820 0.276ZM0.513 0.276 0.519 0.299Q0.496 0.285 0.496 0.282Q0.507 0.282 0.513 0.276ZM0.846 0.276H0.851V0.279H0.846ZM0.742 0.279H0.748V0.285Q0.742 0.285 0.742 0.279ZM0.851 0.279H0.854Q0.860 0.282 0.863 0.282V0.285H0.854ZM0.889 0.279H0.895V0.282H0.889ZM0.900 0.282H0.906V0.285H0.900ZM0.909 0.282Q0.915 0.285 0.918 0.285V0.288H0.906ZM0.923 0.285H0.929L0.935 0.288V0.285L0.952 0.290V0.288Q0.958 0.290 0.961 0.290Q0.961 0.296 0.955 0.296V0.293L0.949 0.296H0.944L0.938 0.293V0.296L0.926 0.290V0.293Q0.921 0.290 0.918 0.290Q0.918 0.285 0.923 0.285ZM0.591 0.288Q0.605 0.295 0.605 0.299Q0.599 0.299 0.599 0.311Q0.582 0.308 0.582 0.296Q0.591 0.296 0.591 0.288ZM0.866 0.288H0.871V0.290H0.866ZM0.820 0.290H0.823Q0.823 0.293 0.826 0.299Q0.820 0.302 0.817 0.302Q0.817 0.311 0.863 0.380V0.383H0.857Q0.857 0.378 0.840 0.351H0.834Q0.834 0.357 0.831 0.357Q0.820 0.352 0.820 0.348V0.345L0.826 0.337V0.331Q0.805 0.305 0.805 0.296H0.808L0.814 0.299Q0.814 0.290 0.820 0.290ZM0.871 0.290H0.877V0.293H0.871ZM0.877 0.293H0.883V0.296H0.877ZM0.883 0.296H0.889V0.299H0.883ZM0.496 0.302H0.499L0.513 0.305Q0.513 0.302 0.516 0.302V0.308Q0.510 0.317 0.510 0.322H0.504Q0.496 0.305 0.496 0.302ZM0.757 0.302H0.763V0.308Q0.757 0.308 0.757 0.302ZM0.487 0.311H0.490Q0.490 0.314 0.499 0.328H0.493Q0.486 0.322 0.481 0.322Q0.487 0.315 0.487 0.311ZM0.574 0.351Q0.580 0.357 0.588 0.357Q0.582 0.366 0.582 0.374L0.571 0.368Q0.571 0.371 0.568 0.371Q0.568 0.368 0.565 0.368L0.568 0.363L0.565 0.357ZM0.777 0.371H0.783V0.374H0.777ZM0.863 0.383Q0.895 0.416 0.895 0.428Q0.886 0.428 0.863 0.383ZM0.608 0.397V0.403H0.602Q0.603 0.397 0.608 0.397ZM0.639 0.406H0.648Q0.645 0.411 0.645 0.414H0.642Q0.642 0.411 0.639 0.406ZM0.765 0.408Q0.770 0.408 0.774 0.417Q0.771 0.417 0.765 0.420Q0.765 0.417 0.763 0.417Q0.765 0.412 0.765 0.408ZM0.808 0.471Q0.813 0.471 0.817 0.480V0.486H0.808Q0.808 0.480 0.805 0.480Q0.808 0.474 0.808 0.471ZM0.932 0.500H0.941Q0.935 0.517 0.929 0.517V0.514ZM1.024 0.523Q1.030 0.524 1.030 0.529V0.537Q1.027 0.537 1.027 0.534L1.021 0.537H1.018Q1.018 0.534 1.021 0.534L1.018 0.529Q1.019 0.523 1.024 0.523ZM0.843 0.529H0.846V0.534H0.843ZM0.702 0.560H0.705Q0.710 0.560 0.722 0.577H0.720Q0.709 0.569 0.702 0.569ZM0.947 0.566H0.952V0.569H0.947ZM0.697 0.572Q0.725 0.588 0.725 0.592H0.722Q0.704 0.580 0.697 0.580ZM0.694 0.583Q0.694 0.589 0.725 0.600V0.603H0.720Q0.704 0.595 0.682 0.589V0.586Q0.684 0.586 0.694 0.583ZM0.731 0.583H0.737V0.586H0.731ZM1.070 0.586Q1.070 0.592 1.087 0.597L1.084 0.603V0.617Q1.070 0.617 1.061 0.623Q1.061 0.608 1.050 0.600Q1.058 0.600 1.070 0.586ZM0.432 0.589Q0.412 0.633 0.412 0.643Q0.406 0.643 0.404 0.623Q0.412 0.589 0.432 0.589ZM1.027 0.589 1.030 0.595 1.024 0.597H1.021V0.595Q1.022 0.589 1.027 0.589ZM0.677 0.592Q0.704 0.606 0.708 0.606V0.609H0.702L0.665 0.597Q0.665 0.600 0.662 0.600V0.595ZM0.671 0.606H0.674Q0.684 0.613 0.708 0.617V0.620H0.700Q0.678 0.620 0.671 0.606ZM0.708 0.609H0.717V0.612H0.708ZM0.720 0.612H0.725V0.615H0.720ZM0.708 0.620H0.714V0.623H0.708ZM0.594 0.626Q0.594 0.637 0.611 0.637L0.605 0.649Q0.608 0.655 0.608 0.660H0.599L0.585 0.663Q0.585 0.646 0.574 0.646Q0.589 0.636 0.591 0.626ZM0.682 0.626H0.685Q0.692 0.626 0.714 0.632V0.635H0.711L0.682 0.632ZM0.717 0.635H0.722V0.637H0.717ZM0.053 0.637H0.062V0.640H0.053ZM0.682 0.637Q0.685 0.640 0.705 0.640V0.643Q0.700 0.643 0.700 0.646Q0.695 0.643 0.682 0.643ZM0.163 0.658V0.666Q0.166 0.675 0.180 0.675H0.192Q0.229 0.666 0.232 0.666V0.658L0.189 0.646Q0.163 0.651 0.163 0.658ZM1.038 0.660Q1.036 0.666 1.036 0.669H1.021Q1.016 0.669 1.016 0.663Q1.036 0.660 1.038 0.660ZM1.164 0.660Q1.164 0.672 1.173 0.672V0.678Q1.164 0.678 1.164 0.689Q1.158 0.684 1.147 0.684L1.150 0.678V0.672L1.147 0.666Q1.158 0.666 1.164 0.660ZM0.272 0.678V0.681Q0.287 0.697 0.289 0.718Q0.296 0.718 0.306 0.695Q0.312 0.692 0.315 0.692Q0.331 0.695 0.338 0.695L0.341 0.689V0.686Q0.311 0.675 0.300 0.675H0.292ZM1.018 0.675H1.033Q1.030 0.681 1.030 0.684H1.021Q1.021 0.681 1.018 0.675ZM0.424 0.678H0.435V0.681H0.424ZM0.837 0.678H0.846L0.871 0.753Q0.858 0.764 0.837 0.764Q0.814 0.764 0.803 0.701Q0.803 0.689 0.837 0.678ZM0.458 0.698Q0.478 0.698 0.478 0.718Q0.478 0.738 0.458 0.738Q0.438 0.734 0.438 0.727V0.718Q0.438 0.698 0.458 0.698ZM1.101 0.707H1.104Q1.117 0.726 1.124 0.733Q1.117 0.733 1.107 0.767Q1.076 0.756 1.076 0.736Q1.072 0.736 1.070 0.724Q1.101 0.723 1.101 0.707ZM0.522 0.721Q0.528 0.727 0.533 0.727V0.730H0.522ZM0.545 0.721 0.562 0.736H0.582V0.738Q0.574 0.764 0.571 0.764H0.556Q0.534 0.764 0.522 0.736H0.527L0.542 0.738V0.733H0.536V0.730Q0.545 0.730 0.545 0.721ZM1.130 0.733H1.136Q1.136 0.738 1.130 0.738ZM0.341 0.744Q0.363 0.744 0.366 0.756Q0.363 0.768 0.338 0.830Q0.304 0.830 0.298 0.782Q0.298 0.750 0.341 0.744ZM0.435 0.744H0.444Q0.461 0.747 0.461 0.753H0.458Q0.448 0.747 0.435 0.747ZM0.717 0.744H0.722V0.747H0.717ZM0.717 0.747Q0.717 0.751 0.691 0.770L0.685 0.762Q0.714 0.747 0.717 0.747ZM0.507 0.750H0.513Q0.519 0.767 0.536 0.773V0.779H0.530Q0.507 0.779 0.507 0.753ZM0.722 0.759Q0.722 0.762 0.705 0.776H0.700V0.773Q0.712 0.759 0.722 0.759ZM0.877 0.764Q0.947 0.952 0.952 0.953H0.961Q0.946 0.979 0.941 0.979H0.909Q0.903 0.979 0.886 0.928Q0.903 0.918 0.903 0.893V0.888Q0.903 0.848 0.848 0.836Q0.843 0.814 0.843 0.810H0.840V0.842H0.834V0.830Q0.834 0.818 0.837 0.799Q0.828 0.779 0.828 0.773H0.840Q0.851 0.773 0.877 0.762ZM0.406 0.767H0.418Q0.449 0.767 0.449 0.790H0.424Q0.421 0.795 0.421 0.802V0.805L0.424 0.810H0.404Q0.398 0.791 0.398 0.785Q0.401 0.767 0.406 0.767ZM1.113 0.767H1.116V0.773H1.113ZM0.389 0.770H0.392V0.776H0.389ZM0.504 0.770H0.507Q0.507 0.781 0.525 0.785Q0.513 0.796 0.513 0.807V0.810Q0.513 0.818 0.519 0.827H0.510Q0.494 0.827 0.490 0.805Q0.490 0.797 0.501 0.782Q0.504 0.776 0.504 0.770ZM0.722 0.773 0.725 0.779 0.717 0.785H0.711V0.782Q0.711 0.777 0.722 0.773ZM0.542 0.779H0.553V0.785Q0.551 0.785 0.551 0.782L0.545 0.785H0.542ZM0.237 0.785 0.217 0.807Q0.217 0.811 0.237 0.827H0.240Q0.244 0.827 0.260 0.807Q0.260 0.804 0.237 0.785ZM0.542 0.787H0.545L0.551 0.790Q0.539 0.813 0.522 0.822L0.519 0.807Q0.519 0.789 0.542 0.787ZM0.805 0.790H0.808V0.799H0.805ZM0.828 0.790H0.831V0.805H0.828ZM0.475 0.796H0.484V0.799H0.475ZM0.389 0.802H0.392L0.395 0.813Q0.388 0.813 0.384 0.836V0.842L0.386 0.848H0.384Q0.366 0.837 0.366 0.833Q0.389 0.811 0.389 0.802ZM0.361 0.813H0.372Q0.372 0.819 0.366 0.819Q0.361 0.819 0.361 0.813ZM0.426 0.813H0.447V0.830H0.441Q0.438 0.830 0.426 0.813ZM0.409 0.816H0.418Q0.423 0.816 0.429 0.827H0.424Q0.410 0.819 0.409 0.816ZM0.395 0.819H0.398Q0.417 0.836 0.429 0.836V0.845Q0.429 0.849 0.418 0.856Q0.396 0.856 0.389 0.842V0.839ZM0.648 0.819H0.651Q0.658 0.825 0.665 0.825V0.830L0.645 0.836L0.642 0.830Q0.648 0.830 0.648 0.819ZM0.195 0.827Q0.195 0.837 0.126 0.850Q0.059 0.880 0.059 0.913Q0.059 0.933 0.088 0.933L0.085 0.939V0.942Q0.091 0.942 0.108 0.959Q0.112 0.959 0.132 0.936V0.933Q0.123 0.933 0.117 0.922V0.919Q0.123 0.919 0.140 0.902Q0.140 0.906 0.154 0.916L0.174 0.893L0.160 0.876Q0.174 0.859 0.174 0.853Q0.192 0.870 0.195 0.870H0.197Q0.201 0.870 0.217 0.850Q0.217 0.846 0.195 0.827ZM0.438 0.839H0.452V0.842Q0.445 0.856 0.429 0.856Q0.438 0.845 0.438 0.839ZM1.119 0.845Q1.119 0.866 1.150 0.873V0.876Q1.150 0.880 1.142 0.885L1.124 0.868H1.116Q1.094 0.882 1.087 0.882L1.084 0.876V0.873Q1.106 0.858 1.119 0.845ZM0.857 0.848H0.860Q0.895 0.860 0.895 0.885V0.896Q0.895 0.912 0.883 0.919Q0.857 0.857 0.857 0.848ZM0.837 0.850H0.840L0.843 0.870Q0.831 0.905 0.831 0.919H0.834L0.854 0.916H0.857V0.919Q0.851 0.919 0.837 0.931Q0.831 0.928 0.828 0.928V0.859Q0.828 0.854 0.837 0.850ZM0.332 0.859Q0.312 0.889 0.312 0.905Q0.325 0.916 0.326 0.916Q0.335 0.916 0.335 0.905L0.341 0.908H0.358L0.366 0.902H0.372Q0.354 0.936 0.341 0.936Q0.309 0.936 0.303 0.893Q0.312 0.859 0.332 0.859ZM0.341 0.862H0.358Q0.369 0.866 0.369 0.882Q0.369 0.902 0.349 0.902H0.341V0.899H0.346V0.893Q0.346 0.892 0.329 0.873Q0.329 0.868 0.341 0.862ZM0.803 0.873V0.899Q0.814 0.939 0.823 0.939Q0.822 0.945 0.808 0.951L0.805 0.945H0.808Q0.797 0.908 0.791 0.879Q0.796 0.879 0.803 0.873ZM0.811 0.873H0.814V0.905H0.811ZM1.061 0.879H1.067V0.885H1.061ZM1.107 0.885V0.888Q1.099 0.913 1.090 0.913V0.911Q1.090 0.885 1.107 0.885ZM1.136 0.890V0.916Q1.122 0.908 1.110 0.908V0.905Q1.111 0.899 1.116 0.899H1.119L1.127 0.905Q1.131 0.890 1.136 0.890ZM0.657 0.905Q0.666 0.916 0.682 0.916Q0.682 0.921 0.674 0.925L0.654 0.919ZM0.642 0.925H0.648Q0.665 0.933 0.677 0.933V0.942L0.662 0.939Q0.662 0.945 0.657 0.945H0.651Q0.651 0.932 0.642 0.925ZM0.826 0.933H0.828V0.939H0.826ZM0.309 0.936Q0.309 0.948 0.343 0.951Q0.343 0.955 0.332 0.962Q0.326 0.959 0.323 0.959Q0.323 0.962 0.321 0.962Q0.318 0.952 0.295 0.951Q0.295 0.947 0.309 0.936ZM0.765 0.953H0.771V0.965H0.768ZM0.286 0.956 0.315 0.965V0.968Q0.302 0.987 0.266 1.002Q0.258 1.002 0.246 1.008V0.999Q0.252 0.956 0.286 0.956ZM1.038 0.962H1.041V0.968H1.038ZM0.771 0.965H0.774V0.971H0.771ZM0.880 0.971H0.883V0.976H0.880ZM0.955 0.974H0.958V0.979H0.955ZM0.212 1.011H0.226V1.014L0.169 1.019H0.166V1.016Q0.195 1.011 0.212 1.011Z" fill="black"/>
</svg>
