<svg xmlns="http://www.w3.org/2000/svg" viewBox="0 0 1 1" preserveAspectRatio="xMidYMid meet">
  <path d="M0.620 -0.079Q0.627 -0.079 0.658 0.011H0.750L0.705 0.048Q0.699 0.045 0.696 0.045V0.042Q0.698 0.042 0.727 0.022V0.017H0.658Q0.652 0.017 0.626 -0.053H0.620Q0.597 0.017 0.593 0.017H0.519V0.022Q0.525 0.022 0.539 0.036H0.573L0.570 0.030H0.609L0.620 -0.006Q0.627 -0.006 0.637 0.030H0.680Q0.649 0.056 0.649 0.062Q0.649 0.066 0.663 0.101H0.660L0.671 0.123Q0.660 0.125 0.660 0.132V0.140Q0.660 0.145 0.683 0.152L0.696 0.202Q0.660 0.206 0.660 0.213V0.221Q0.660 0.224 0.669 0.230L0.683 0.227H0.699V0.230Q0.699 0.237 0.702 0.272Q0.702 0.277 0.680 0.295V0.303Q0.680 0.309 0.699 0.309Q0.691 0.377 0.637 0.455Q0.603 0.489 0.598 0.489V0.494Q0.649 0.494 0.727 0.606Q0.753 0.671 0.753 0.691L0.708 0.733Q0.708 0.668 0.677 0.620H0.674L0.677 0.615Q0.671 0.615 0.671 0.609H0.666V0.615H0.663Q0.663 0.606 0.658 0.606L0.660 0.601H0.646V0.598H0.660Q0.626 0.549 0.545 0.527H0.536Q0.455 0.530 0.455 0.533L0.438 0.530H0.402Q0.399 0.530 0.399 0.533L0.393 0.530Q0.387 0.530 0.382 0.533Q0.377 0.530 0.371 0.530H0.368V0.536H0.365V0.533L0.379 0.483H0.415V0.480H0.407V0.477H0.415Q0.427 0.483 0.435 0.483Q0.584 0.483 0.632 0.371Q0.652 0.303 0.652 0.261Q0.652 0.190 0.612 0.115H0.609L0.539 0.160V0.158L0.562 0.084H0.295Q0.295 0.103 0.281 0.109H0.270Q0.256 0.104 0.256 0.084H0.250V0.342L0.253 0.357Q0.212 0.316 0.199 0.314V0.180L0.186 0.185Q0.180 0.183 0.177 0.183Q0.177 0.181 0.180 0.146H0.183Q0.190 0.146 0.199 0.152V0.093Q0.186 0.093 0.186 0.076Q0.188 0.059 0.194 0.059H0.199Q0.201 0.073 0.208 0.073Q0.211 0.068 0.211 0.065Q0.199 0.045 0.199 0.036H0.219Q0.227 0.056 0.233 0.056L0.236 0.051L0.227 0.036H0.253L0.259 0.039Q0.259 0.036 0.273 0.025H0.287Q0.295 0.025 0.295 0.036H0.525V0.033L0.494 0.014V0.011H0.590ZM0.174 -0.059H0.180Q0.180 -0.055 0.197 -0.034Q0.197 -0.028 0.191 -0.028H0.188Q0.188 -0.031 0.174 -0.059ZM0.160 -0.048H0.163Q0.163 -0.045 0.177 -0.022H0.174Q0.160 -0.027 0.160 -0.045ZM0.281 -0.034H0.287Q0.299 -0.028 0.301 -0.022V-0.011Q0.299 -0.011 0.281 -0.034ZM0.267 -0.028H0.270Q0.273 -0.028 0.295 -0.003Q0.295 0.003 0.289 0.003H0.276Q0.271 0.002 0.264 -0.011V-0.014ZM0.205 -0.006H0.211Q0.215 -0.006 0.222 0.005V0.019H0.216ZM0.112 0.000H0.115Q0.123 0.026 0.123 0.036H0.115L0.107 0.003ZM0.191 0.000Q0.196 0.000 0.211 0.028Q0.208 0.028 0.202 0.030Q0.187 0.030 0.186 0.003ZM0.096 0.022H0.098V0.028H0.096ZM0.082 0.048Q0.097 0.048 0.112 0.068Q0.109 0.071 0.109 0.081L0.129 0.090V0.101Q0.129 0.118 0.112 0.118H0.104Q0.100 0.118 0.093 0.106V0.095L0.098 0.087V0.084Q0.079 0.084 0.076 0.073V0.070H0.084V0.059Q0.076 0.059 0.076 0.053Q0.082 0.053 0.082 0.048ZM0.143 0.048H0.152Q0.156 0.048 0.163 0.059V0.073Q0.163 0.077 0.155 0.081ZM0.129 0.053H0.135Q0.140 0.071 0.140 0.076Q0.126 0.069 0.126 0.062Q0.129 0.056 0.129 0.053ZM0.680 0.059H0.683L0.674 0.070Q0.691 0.115 0.691 0.123H0.685Q0.671 0.074 0.671 0.065ZM0.570 0.087Q0.562 0.111 0.556 0.140H0.559Q0.607 0.109 0.607 0.106L0.593 0.095Q0.593 0.101 0.587 0.101V0.098L0.590 0.093Q0.579 0.087 0.570 0.087ZM0.160 0.095H0.166Q0.180 0.100 0.180 0.115V0.118Q0.178 0.118 0.160 0.095ZM0.152 0.098Q0.172 0.117 0.172 0.129V0.132L0.160 0.134Q0.149 0.131 0.143 0.120V0.115Q0.145 0.098 0.152 0.098ZM0.048 0.120Q0.076 0.126 0.076 0.132V0.143Q0.071 0.153 0.059 0.158Q0.039 0.158 0.039 0.134ZM0.273 0.126H0.287Q0.291 0.126 0.298 0.137V0.152Q0.298 0.156 0.287 0.163H0.273Q0.268 0.163 0.262 0.152V0.137Q0.262 0.133 0.273 0.126ZM0.669 0.132Q0.685 0.134 0.685 0.140H0.683L0.669 0.137ZM0.691 0.132Q0.695 0.132 0.699 0.143H0.688Q0.691 0.138 0.691 0.132ZM0.098 0.137H0.104Q0.096 0.148 0.093 0.166H0.090V0.155Q0.091 0.137 0.098 0.137ZM0.118 0.137 0.126 0.149V0.155Q0.126 0.174 0.104 0.174H0.101Q0.106 0.137 0.118 0.137ZM0.691 0.152H0.696Q0.702 0.152 0.702 0.158V0.160Q0.691 0.156 0.691 0.152ZM0.169 0.155H0.172V0.163Q0.169 0.168 0.169 0.171H0.166V0.163Q0.169 0.158 0.169 0.155ZM0.132 0.174H0.149Q0.153 0.174 0.158 0.183V0.194Q0.158 0.210 0.140 0.210H0.135Q0.125 0.205 0.121 0.194Q0.125 0.174 0.132 0.174ZM0.696 0.210Q0.696 0.213 0.699 0.219Q0.678 0.219 0.669 0.221V0.216Q0.692 0.210 0.696 0.210ZM0.699 0.292V0.295Q0.699 0.300 0.694 0.300H0.688V0.295Q0.689 0.295 0.699 0.292ZM0.306 0.297H0.309L0.312 0.325V0.340H0.306Q0.303 0.390 0.301 0.401H0.298V0.385H0.301Q0.301 0.376 0.306 0.297ZM0.267 0.303H0.270Q0.278 0.331 0.278 0.345Q0.276 0.345 0.276 0.351H0.273Q0.273 0.342 0.267 0.306ZM0.348 0.303H0.351V0.306Q0.342 0.348 0.342 0.360H0.340V0.345L0.334 0.348V0.345ZM0.388 0.320V0.323Q0.374 0.352 0.374 0.357H0.363Q0.382 0.322 0.388 0.320ZM0.199 0.323Q0.233 0.341 0.253 0.371Q0.253 0.376 0.247 0.376L0.199 0.334ZM0.312 0.342H0.314V0.376H0.312ZM0.421 0.342V0.345Q0.397 0.378 0.393 0.379Q0.393 0.374 0.388 0.374Q0.388 0.371 0.421 0.342ZM0.281 0.345H0.284V0.351H0.281ZM0.199 0.348Q0.227 0.363 0.253 0.393L0.250 0.399V0.410L0.259 0.421V0.424L0.253 0.421H0.250V0.480Q0.240 0.472 0.211 0.472H0.208L0.202 0.475Q0.202 0.464 0.191 0.464V0.461H0.199V0.455H0.186V0.458H0.191V0.461H0.186Q0.179 0.461 0.143 0.455V0.452H0.199V0.424H0.191V0.429L0.152 0.415V0.412H0.155Q0.189 0.421 0.199 0.421V0.401Q0.176 0.379 0.169 0.379V0.376H0.174L0.199 0.390ZM0.331 0.348H0.334V0.357H0.331ZM0.276 0.351H0.278V0.368H0.276ZM0.284 0.351H0.287V0.360H0.284ZM0.328 0.357H0.331V0.365H0.328ZM0.360 0.357H0.363V0.362H0.360ZM0.287 0.360H0.289V0.368H0.287ZM0.337 0.360H0.340V0.376H0.337ZM0.360 0.362V0.365Q0.360 0.371 0.354 0.371V0.368Q0.355 0.362 0.360 0.362ZM0.326 0.365H0.328V0.374H0.326ZM0.278 0.368H0.281V0.385H0.278ZM0.289 0.368H0.292V0.376H0.289ZM0.354 0.371V0.374Q0.354 0.379 0.348 0.379V0.376Q0.349 0.371 0.354 0.371ZM0.253 0.374H0.256V0.379H0.253ZM0.323 0.374H0.326V0.382H0.323ZM0.292 0.376H0.295V0.385H0.292ZM0.314 0.376H0.317V0.385L0.323 0.382V0.385Q0.320 0.401 0.314 0.401ZM0.334 0.376H0.337V0.390L0.342 0.387V0.390Q0.335 0.404 0.331 0.404V0.401Q0.334 0.386 0.334 0.376ZM0.447 0.376Q0.447 0.380 0.415 0.401H0.413Q0.413 0.396 0.407 0.396V0.393Q0.444 0.376 0.447 0.376ZM0.256 0.379H0.259V0.385H0.256ZM0.348 0.379V0.382Q0.348 0.387 0.342 0.387V0.385Q0.343 0.379 0.348 0.379ZM0.390 0.382V0.385Q0.390 0.390 0.385 0.390V0.387Q0.386 0.382 0.390 0.382ZM0.281 0.385H0.284V0.393H0.281ZM0.351 0.396Q0.357 0.399 0.360 0.399Q0.360 0.403 0.345 0.412V0.410Q0.351 0.400 0.351 0.396ZM0.379 0.396V0.399Q0.379 0.404 0.374 0.404V0.401Q0.374 0.396 0.379 0.396ZM0.404 0.396H0.407Q0.407 0.401 0.402 0.401H0.399Q0.400 0.396 0.404 0.396ZM0.256 0.399H0.262Q0.265 0.399 0.270 0.407V0.410H0.267Q0.262 0.410 0.256 0.399ZM0.393 0.401H0.399V0.404H0.393ZM0.388 0.404H0.393V0.407H0.388ZM0.407 0.404H0.410Q0.410 0.410 0.404 0.410H0.402Q0.403 0.404 0.407 0.404ZM0.371 0.407Q0.371 0.412 0.377 0.412V0.415Q0.370 0.415 0.360 0.424H0.357Q0.366 0.407 0.371 0.407ZM0.382 0.407H0.388V0.410H0.382ZM0.377 0.410H0.382V0.412H0.377ZM0.396 0.412H0.399Q0.399 0.418 0.393 0.418H0.390Q0.392 0.412 0.396 0.412ZM0.464 0.412H0.467V0.415Q0.464 0.415 0.424 0.429L0.427 0.424H0.418V0.421Q0.425 0.421 0.464 0.412ZM0.382 0.421H0.388V0.424H0.382ZM0.382 0.424Q0.382 0.429 0.393 0.429V0.432Q0.386 0.432 0.365 0.438Q0.365 0.434 0.382 0.424ZM0.413 0.424H0.418V0.426L0.399 0.429H0.393V0.426ZM0.191 0.429H0.197V0.432H0.191ZM0.418 0.429H0.424V0.432H0.418ZM0.415 0.432H0.418V0.435Q0.409 0.438 0.407 0.438H0.404V0.435Q0.406 0.435 0.415 0.432ZM0.399 0.438H0.404V0.441H0.399ZM0.390 0.441H0.399V0.444H0.390ZM0.388 0.444H0.390L0.388 0.449Q0.390 0.449 0.390 0.452H0.388Q0.382 0.452 0.382 0.447ZM0.371 0.449H0.377V0.452H0.371ZM0.393 0.449H0.396Q0.417 0.452 0.475 0.452V0.455Q0.435 0.461 0.429 0.461H0.427V0.458H0.432V0.455Q0.406 0.455 0.393 0.452ZM0.404 0.461H0.424V0.464H0.404ZM0.390 0.464H0.404V0.466H0.390V0.472Q0.392 0.472 0.407 0.475V0.477H0.399Q0.387 0.472 0.382 0.472V0.469Q0.382 0.464 0.390 0.464ZM0.216 0.480H0.219V0.483L0.199 0.489V0.483Q0.201 0.483 0.216 0.480ZM0.188 0.483 0.186 0.489H0.199V0.491Q0.181 0.491 0.166 0.494V0.489ZM0.273 0.483H0.306Q0.306 0.525 0.236 0.536H0.199V0.519Q0.195 0.522 0.186 0.522Q0.186 0.518 0.199 0.508Q0.199 0.483 0.273 0.483ZM0.314 0.483H0.371Q0.360 0.530 0.351 0.530L0.354 0.536H0.351L0.345 0.533V0.539H0.342V0.530H0.328V0.542H0.326L0.328 0.556H0.323V0.530H0.309L0.312 0.536V0.545Q0.306 0.545 0.306 0.553H0.303V0.545L0.306 0.530H0.292V0.573H0.289Q0.289 0.542 0.287 0.542H0.284L0.289 0.530Q0.287 0.530 0.287 0.527Q0.314 0.513 0.314 0.483ZM0.146 0.491H0.155V0.494Q0.152 0.494 0.146 0.497ZM0.177 0.522V0.525Q0.174 0.533 0.160 0.533Q0.160 0.529 0.177 0.522ZM0.385 0.533H0.388Q0.393 0.534 0.393 0.539H0.390Q0.385 0.539 0.385 0.533ZM0.270 0.536H0.273V0.545H0.270ZM0.371 0.539H0.374V0.545H0.371ZM0.404 0.539Q0.407 0.539 0.432 0.565V0.567Q0.431 0.567 0.402 0.548Q0.404 0.542 0.404 0.539ZM0.250 0.542V0.548L0.256 0.545V0.548L0.250 0.556V0.587Q0.220 0.592 0.199 0.604V0.559H0.197L0.188 0.565H0.186Q0.199 0.550 0.199 0.545H0.236ZM0.331 0.542H0.334V0.548H0.331ZM0.357 0.542H0.363V0.548Q0.357 0.548 0.357 0.542ZM0.396 0.542H0.402V0.545H0.396ZM0.267 0.545H0.270V0.553H0.267ZM0.281 0.545H0.284V0.551H0.281ZM0.374 0.545H0.377V0.551H0.374ZM0.312 0.548H0.314V0.559H0.312ZM0.334 0.548H0.337V0.553H0.334ZM0.278 0.551H0.281V0.556H0.278ZM0.348 0.551H0.351V0.559H0.348ZM0.264 0.553H0.267V0.562H0.264ZM0.301 0.553H0.303V0.565H0.301ZM0.368 0.553Q0.380 0.565 0.382 0.565V0.559Q0.388 0.559 0.388 0.567L0.393 0.565H0.404L0.410 0.567Q0.410 0.565 0.413 0.565Q0.413 0.574 0.429 0.576Q0.428 0.586 0.413 0.592Q0.413 0.601 0.399 0.601Q0.380 0.601 0.379 0.567Q0.374 0.567 0.368 0.556ZM0.379 0.553H0.382V0.559H0.379ZM0.276 0.556H0.278V0.562H0.276ZM0.340 0.559H0.342V0.565H0.340ZM0.351 0.559H0.354V0.567H0.351ZM0.573 0.559H0.579V0.562Q0.579 0.567 0.573 0.567Q0.568 0.567 0.568 0.562ZM0.262 0.562H0.264V0.570H0.262ZM0.273 0.562H0.276V0.567H0.273ZM0.342 0.565H0.345V0.570H0.342ZM0.270 0.567H0.273V0.573H0.270ZM0.326 0.567H0.328Q0.328 0.611 0.331 0.629Q0.326 0.629 0.317 0.578V0.573H0.320Q0.320 0.587 0.326 0.587ZM0.354 0.567H0.357V0.573H0.354ZM0.345 0.570H0.348V0.576H0.345ZM0.467 0.570H0.480Q0.484 0.570 0.492 0.581V0.587Q0.492 0.606 0.469 0.606Q0.455 0.603 0.455 0.587V0.581Q0.455 0.577 0.467 0.570ZM0.259 0.573H0.262Q0.262 0.578 0.267 0.578V0.581H0.259ZM0.267 0.573H0.270V0.578H0.267ZM0.348 0.576 0.354 0.578 0.360 0.576Q0.360 0.583 0.371 0.617Q0.365 0.617 0.348 0.576ZM0.289 0.581H0.292V0.587H0.295V0.581H0.298V0.587Q0.289 0.620 0.289 0.629H0.287V0.595ZM0.961 0.581V0.584Q0.961 0.597 0.918 0.640H0.915L0.955 0.584ZM0.253 0.592H0.262Q0.250 0.612 0.250 0.620V0.707H0.259V0.702H0.253V0.699H0.259Q0.270 0.707 0.289 0.710V0.713H0.281V0.718Q0.287 0.718 0.314 0.758H0.317V0.753Q0.317 0.738 0.312 0.718Q0.318 0.718 0.323 0.741H0.328V0.736L0.326 0.721Q0.329 0.721 0.334 0.718Q0.337 0.718 0.337 0.721L0.351 0.718H0.357Q0.371 0.727 0.371 0.738L0.365 0.750H0.371L0.393 0.738L0.396 0.744V0.747Q0.370 0.758 0.368 0.758V0.764Q0.377 0.764 0.377 0.778Q0.377 0.789 0.365 0.795H0.351Q0.342 0.793 0.337 0.775Q0.326 0.779 0.326 0.783Q0.337 0.803 0.337 0.811L0.351 0.808Q0.371 0.808 0.371 0.828Q0.371 0.845 0.348 0.845V0.848L0.345 0.882H0.342V0.851H0.340Q0.302 0.874 0.292 0.898H0.284L0.287 0.884Q0.281 0.887 0.278 0.887Q0.289 0.921 0.289 0.926H0.559L0.576 0.941H0.579Q0.600 0.918 0.629 0.912L0.632 0.907V0.896Q0.632 0.875 0.618 0.868Q0.614 0.868 0.595 0.842L0.601 0.840Q0.601 0.842 0.604 0.842Q0.607 0.837 0.607 0.834H0.609Q0.612 0.834 0.612 0.837Q0.620 0.837 0.620 0.822L0.660 0.859H0.663Q0.666 0.859 0.708 0.811Q0.703 0.811 0.699 0.792H0.705V0.783Q0.691 0.783 0.691 0.775V0.772Q0.692 0.767 0.696 0.767Q0.696 0.770 0.699 0.770L0.702 0.764V0.761L0.699 0.756L0.694 0.758Q0.690 0.758 0.680 0.741H0.677L0.674 0.747V0.750Q0.680 0.764 0.685 0.764Q0.685 0.767 0.683 0.767L0.685 0.772L0.683 0.786Q0.681 0.786 0.663 0.770H0.660L0.612 0.814Q0.612 0.808 0.607 0.808Q0.601 0.811 0.598 0.811V0.806Q0.598 0.802 0.593 0.775Q0.593 0.755 0.620 0.738V0.741Q0.632 0.739 0.632 0.736L0.649 0.741L0.652 0.736V0.733H0.646V0.727Q0.655 0.730 0.658 0.738Q0.655 0.738 0.655 0.741L0.660 0.744V0.738L0.666 0.741H0.671L0.677 0.738L0.674 0.733V0.730L0.699 0.744Q0.699 0.741 0.702 0.741V0.747H0.708V0.741L0.753 0.783Q0.753 0.781 0.756 0.781V0.786Q0.756 0.854 0.699 0.893V0.898L0.713 0.915Q0.710 0.915 0.710 0.918L0.705 0.915H0.699Q0.699 0.922 0.671 0.944Q0.671 0.939 0.663 0.935H0.660Q0.624 0.977 0.584 0.977H0.542Q0.518 0.953 0.494 0.935L0.449 0.977H0.323Q0.314 0.977 0.309 0.980L0.292 0.977H0.199V0.923L0.194 0.915L0.174 0.918H0.163V0.929Q0.149 0.912 0.135 0.912L0.137 0.918L0.129 0.923H0.126V0.918Q0.127 0.912 0.132 0.912L0.129 0.901Q0.142 0.851 0.160 0.851Q0.184 0.825 0.197 0.778Q0.199 0.778 0.199 0.775V0.772Q0.199 0.767 0.194 0.767Q0.199 0.727 0.211 0.688L0.205 0.685L0.199 0.688V0.615Q0.199 0.608 0.250 0.595V0.601H0.253ZM0.444 0.629V0.634H0.438Q0.439 0.629 0.444 0.629ZM0.514 0.632V0.637H0.508Q0.509 0.632 0.514 0.632ZM0.817 0.634H0.820V0.640H0.817ZM0.404 0.640Q0.415 0.640 0.421 0.652V0.666Q0.421 0.670 0.410 0.677H0.396Q0.385 0.672 0.385 0.657Q0.385 0.640 0.404 0.640ZM0.910 0.640H0.915V0.646H0.910ZM0.817 0.646H0.820V0.652H0.817ZM0.901 0.649H0.907V0.652H0.901ZM0.155 0.652Q0.175 0.695 0.183 0.705L0.180 0.718H0.174Q0.174 0.708 0.149 0.655ZM0.570 0.652H0.573V0.660H0.570ZM0.817 0.652V0.655Q0.817 0.660 0.811 0.660V0.657Q0.813 0.652 0.817 0.652ZM0.899 0.652H0.901V0.657H0.899ZM0.893 0.657H0.899V0.660H0.893ZM0.593 0.660H0.595V0.666H0.593ZM0.890 0.660H0.893Q0.893 0.666 0.888 0.666H0.885Q0.886 0.660 0.890 0.660ZM0.573 0.663H0.576Q0.579 0.678 0.579 0.680H0.582Q0.588 0.680 0.590 0.666H0.593V0.674Q0.590 0.679 0.590 0.682L0.609 0.677Q0.595 0.688 0.595 0.691V0.693H0.598Q0.623 0.696 0.626 0.696V0.699H0.595V0.702L0.607 0.716H0.604Q0.593 0.707 0.587 0.707V0.710Q0.590 0.725 0.590 0.727V0.733H0.587Q0.587 0.728 0.582 0.710H0.579Q0.572 0.710 0.570 0.724H0.568V0.721L0.570 0.705H0.568Q0.558 0.710 0.553 0.710Q0.553 0.704 0.565 0.702V0.696Q0.553 0.693 0.545 0.693V0.691Q0.552 0.691 0.568 0.688L0.553 0.671H0.556L0.573 0.682H0.576L0.573 0.668ZM0.340 0.666H0.345Q0.365 0.666 0.365 0.685V0.688Q0.365 0.692 0.351 0.702H0.348Q0.333 0.702 0.328 0.691V0.677Q0.328 0.672 0.340 0.666ZM0.876 0.668H0.882V0.671H0.876ZM0.795 0.671H0.800V0.674Q0.784 0.689 0.759 0.699L0.756 0.693Q0.793 0.681 0.795 0.671ZM0.609 0.674H0.615V0.677H0.609ZM0.424 0.677H0.438Q0.452 0.684 0.452 0.702L0.438 0.710V0.713Q0.438 0.718 0.452 0.718V0.721Q0.441 0.721 0.441 0.733L0.435 0.730V0.738H0.432Q0.432 0.730 0.427 0.730Q0.427 0.727 0.429 0.727L0.427 0.721V0.713Q0.413 0.710 0.413 0.693V0.688Q0.413 0.684 0.424 0.677ZM0.862 0.677H0.868V0.680H0.862ZM0.671 0.685H0.674V0.691H0.671ZM0.882 0.688Q0.888 0.689 0.888 0.693H0.882ZM0.879 0.691 0.882 0.696 0.862 0.707V0.705L0.851 0.710L0.848 0.705Q0.854 0.705 0.879 0.691ZM0.199 0.696V0.699Q0.189 0.736 0.180 0.806Q0.146 0.865 0.112 0.865Q0.115 0.858 0.146 0.842V0.834H0.140Q0.140 0.842 0.135 0.842Q0.129 0.842 0.129 0.834Q0.135 0.816 0.135 0.811Q0.126 0.791 0.126 0.778L0.143 0.792V0.789L0.149 0.792H0.158Q0.149 0.808 0.149 0.814Q0.155 0.823 0.155 0.828H0.160Q0.172 0.756 0.197 0.696ZM0.753 0.702Q0.759 0.713 0.759 0.733V0.747H0.767V0.750H0.759V0.764Q0.759 0.767 0.750 0.772L0.716 0.736ZM0.848 0.707Q0.848 0.713 0.842 0.713H0.834V0.710ZM0.250 0.716V0.721Q0.262 0.721 0.262 0.727H0.264Q0.267 0.727 0.267 0.724Q0.281 0.724 0.281 0.772V0.781H0.284Q0.302 0.774 0.306 0.764Q0.288 0.733 0.267 0.713H0.264ZM0.548 0.710H0.553V0.713H0.548ZM0.705 0.710Q0.705 0.716 0.696 0.716H0.691V0.713ZM0.607 0.716H0.612V0.721Q0.607 0.721 0.607 0.716ZM0.680 0.716H0.685V0.718H0.680ZM0.814 0.716H0.820V0.718H0.814ZM0.671 0.718H0.677V0.721H0.671ZM0.663 0.721Q0.663 0.724 0.666 0.724Q0.666 0.721 0.669 0.721V0.730Q0.663 0.727 0.658 0.727Q0.658 0.721 0.663 0.721ZM0.415 0.724H0.421V0.727H0.415ZM0.565 0.724H0.568V0.730H0.565ZM0.250 0.741V0.795Q0.259 0.789 0.264 0.789V0.730H0.262Q0.257 0.730 0.250 0.741ZM0.174 0.730V0.733Q0.160 0.776 0.152 0.781H0.149L0.166 0.747H0.160Q0.132 0.762 0.132 0.767Q0.135 0.772 0.135 0.775Q0.129 0.775 0.123 0.758Q0.126 0.753 0.126 0.750L0.135 0.756Q0.137 0.748 0.174 0.730ZM0.595 0.733H0.601V0.736H0.595ZM0.795 0.733H0.800V0.736H0.795ZM0.803 0.733H0.828V0.736Q0.809 0.736 0.806 0.738ZM0.775 0.736H0.786V0.738H0.775ZM0.447 0.741Q0.464 0.747 0.464 0.764Q0.459 0.778 0.444 0.778Q0.427 0.778 0.427 0.761V0.753Q0.432 0.741 0.447 0.741ZM0.334 0.747 0.331 0.753V0.761L0.345 0.758Q0.345 0.761 0.348 0.761V0.758Q0.348 0.754 0.334 0.747ZM0.663 0.750V0.753L0.669 0.756H0.671V0.750L0.666 0.753Q0.666 0.750 0.663 0.750ZM0.773 0.764V0.767L0.767 0.781Q0.762 0.778 0.759 0.778Q0.759 0.775 0.773 0.764ZM0.118 0.770H0.121V0.775Q0.117 0.775 0.109 0.781V0.778Q0.109 0.773 0.118 0.770ZM0.570 0.775H0.573V0.781H0.570ZM0.663 0.778Q0.692 0.811 0.696 0.811Q0.686 0.828 0.660 0.851L0.626 0.814Q0.626 0.811 0.663 0.778ZM0.770 0.778Q0.784 0.782 0.784 0.786H0.781Q0.776 0.783 0.770 0.783ZM0.107 0.781H0.109V0.786H0.107ZM0.570 0.783 0.579 0.789Q0.579 0.786 0.582 0.786V0.792Q0.576 0.792 0.576 0.800H0.573Q0.573 0.797 0.570 0.792H0.573L0.570 0.786ZM0.789 0.783V0.789H0.784Q0.785 0.783 0.789 0.783ZM0.438 0.786H0.444Q0.464 0.786 0.464 0.806Q0.464 0.822 0.444 0.822Q0.432 0.822 0.427 0.811V0.797Q0.427 0.793 0.438 0.786ZM0.792 0.786Q0.806 0.795 0.811 0.795Q0.811 0.799 0.798 0.808L0.792 0.800H0.798V0.797Q0.798 0.792 0.789 0.792ZM0.278 0.822H0.284Q0.284 0.816 0.292 0.800H0.287Q0.280 0.800 0.278 0.822ZM0.823 0.800Q0.851 0.813 0.851 0.817H0.848L0.820 0.806ZM0.197 0.806Q0.197 0.811 0.191 0.817V0.820H0.194Q0.199 0.820 0.199 0.814V0.806ZM0.323 0.806Q0.323 0.815 0.312 0.854H0.317Q0.331 0.842 0.337 0.842L0.328 0.806ZM0.576 0.803Q0.582 0.804 0.582 0.808H0.576ZM0.250 0.820V0.825Q0.252 0.842 0.259 0.842H0.262V0.811Q0.250 0.816 0.250 0.820ZM0.303 0.817Q0.287 0.851 0.278 0.873Q0.300 0.873 0.309 0.817ZM0.857 0.814V0.820H0.851Q0.852 0.814 0.857 0.814ZM0.584 0.817H0.590V0.820H0.584ZM0.618 0.817 0.620 0.822 0.615 0.825Q0.609 0.825 0.609 0.820Q0.612 0.820 0.618 0.817ZM0.860 0.817Q0.865 0.820 0.868 0.820V0.825H0.865Q0.860 0.822 0.857 0.822ZM0.573 0.820 0.579 0.828Q0.574 0.828 0.568 0.834V0.825Q0.568 0.820 0.573 0.820ZM0.882 0.825Q0.895 0.831 0.896 0.837H0.890Q0.881 0.831 0.874 0.831Q0.874 0.825 0.882 0.825ZM0.101 0.834H0.109Q0.115 0.835 0.115 0.840V0.842Q0.115 0.848 0.109 0.848H0.107Q0.101 0.848 0.101 0.842ZM0.180 0.851V0.865Q0.180 0.878 0.199 0.898V0.859Q0.197 0.859 0.197 0.862Q0.191 0.859 0.188 0.859V0.854Q0.189 0.848 0.194 0.848L0.199 0.851V0.840Q0.180 0.846 0.180 0.851ZM0.773 0.848Q0.778 0.849 0.778 0.854H0.773ZM0.107 0.865H0.112V0.868H0.107ZM0.323 0.876H0.331V0.882Q0.331 0.887 0.326 0.887H0.323Q0.317 0.887 0.317 0.882Q0.318 0.876 0.323 0.876ZM0.576 0.879H0.579L0.584 0.882Q0.584 0.879 0.587 0.879L0.590 0.884Q0.587 0.884 0.587 0.887Q0.593 0.888 0.593 0.893Q0.585 0.893 0.579 0.898Q0.579 0.895 0.570 0.887Q0.576 0.887 0.576 0.879ZM0.727 0.879V0.882L0.724 0.887Q0.727 0.887 0.727 0.890H0.724Q0.727 0.895 0.730 0.918Q0.727 0.918 0.708 0.896Q0.726 0.879 0.727 0.879ZM0.079 0.884H0.087V0.887H0.079ZM0.137 0.910H0.146Q0.152 0.910 0.152 0.904V0.887H0.149Q0.142 0.887 0.137 0.910ZM0.163 0.887Q0.163 0.896 0.160 0.907H0.172L0.169 0.901V0.887ZM0.789 0.884 0.792 0.890Q0.792 0.896 0.786 0.896L0.784 0.890Q0.785 0.884 0.789 0.884ZM0.071 0.887H0.079V0.890L0.065 0.893Q0.065 0.887 0.071 0.887ZM0.264 0.912 0.262 0.926H0.276Q0.270 0.918 0.270 0.912ZM0.573 0.926H0.582Q0.582 0.932 0.576 0.932ZM0.494 0.944Q0.499 0.944 0.528 0.977H0.461Q0.461 0.973 0.494 0.944ZM0.663 0.944 0.666 0.949Q0.661 0.949 0.655 0.955H0.652Q0.652 0.950 0.663 0.944ZM0.680 0.949H0.685V0.955Q0.680 0.955 0.680 0.949Z" fill="black"/>
</svg>
