<svg xmlns="http://www.w3.org/2000/svg" viewBox="0 0 1 1" preserveAspectRatio="xMidYMid meet">
  <path d="M0.847 0.038V0.071L0.842 0.068L0.833 0.080L0.839 0.082Q0.839 0.079 0.847 0.074V0.085Q0.727 0.085 0.592 0.136V0.133Q0.592 0.129 0.578 0.125Q0.563 0.132 0.556 0.139L0.550 0.136Q0.545 0.137 0.545 0.142L0.548 0.147Q0.530 0.169 0.520 0.169L0.567 0.100Q0.564 0.100 0.564 0.097Q0.625 0.071 0.685 0.060L0.654 0.094L0.660 0.097Q0.697 0.049 0.727 0.049L0.786 0.041V0.044Q0.792 0.041 0.795 0.041Q0.803 0.041 0.847 0.038ZM0.760 0.066 0.755 0.063 0.744 0.068Q0.744 0.066 0.741 0.066L0.733 0.077L0.735 0.082Q0.757 0.082 0.783 0.060Q0.777 0.060 0.777 0.055Q0.760 0.060 0.760 0.066ZM0.721 0.074 0.719 0.080 0.727 0.085 0.730 0.080ZM0.559 0.100Q0.559 0.103 0.531 0.128Q0.526 0.128 0.520 0.117V0.114ZM0.822 0.103H0.825V0.108H0.822ZM0.455 0.108Q0.461 0.108 0.461 0.114L0.455 0.117Q0.450 0.117 0.450 0.111ZM0.512 0.119Q0.512 0.123 0.531 0.139Q0.496 0.191 0.425 0.262Q0.425 0.247 0.391 0.239L0.371 0.217Q0.371 0.215 0.393 0.198Q0.385 0.198 0.385 0.192Q0.416 0.192 0.416 0.189Q0.416 0.193 0.450 0.223L0.494 0.175Q0.491 0.175 0.464 0.144ZM0.439 0.122Q0.444 0.123 0.444 0.128V0.130H0.439Q0.433 0.130 0.433 0.125ZM0.472 0.122 0.475 0.128Q0.475 0.133 0.469 0.133L0.466 0.128Q0.468 0.122 0.472 0.122ZM0.575 0.133Q0.581 0.136 0.587 0.136Q0.587 0.142 0.564 0.147V0.150L0.581 0.164H0.578L0.573 0.161V0.166H0.570Q0.558 0.155 0.550 0.155Q0.550 0.150 0.575 0.133ZM0.422 0.139Q0.428 0.140 0.428 0.144L0.422 0.147Q0.416 0.147 0.416 0.142ZM0.458 0.150 0.483 0.178 0.447 0.212 0.428 0.189 0.436 0.184 0.433 0.178 0.436 0.172Q0.430 0.172 0.430 0.166Q0.436 0.166 0.436 0.161Q0.433 0.161 0.433 0.158L0.439 0.155Q0.444 0.158 0.447 0.158Q0.447 0.154 0.458 0.150ZM0.408 0.153 0.410 0.158Q0.410 0.164 0.405 0.164L0.402 0.158Q0.403 0.153 0.408 0.153ZM0.775 0.155H0.777Q0.777 0.161 0.772 0.161H0.769Q0.770 0.155 0.775 0.155ZM0.769 0.161Q0.757 0.175 0.746 0.175Q0.746 0.168 0.769 0.161ZM0.548 0.164Q0.575 0.183 0.575 0.186H0.573Q0.567 0.184 0.564 0.184V0.186L0.573 0.198H0.570Q0.548 0.178 0.548 0.164ZM0.590 0.164Q0.613 0.175 0.624 0.175V0.178H0.615Q0.595 0.169 0.587 0.169ZM0.419 0.169Q0.430 0.174 0.430 0.178L0.425 0.186Q0.419 0.184 0.413 0.184L0.419 0.175Q0.416 0.175 0.416 0.172Q0.419 0.172 0.419 0.169ZM0.517 0.169H0.520Q0.520 0.172 0.523 0.178L0.514 0.184V0.178Q0.517 0.172 0.517 0.169ZM0.382 0.172H0.393Q0.391 0.184 0.388 0.184H0.377V0.181H0.388V0.175H0.382ZM0.738 0.175H0.741L0.735 0.184L0.719 0.181V0.178ZM0.531 0.178H0.542V0.181H0.531ZM0.592 0.178H0.598V0.181H0.592ZM0.624 0.178H0.635V0.181H0.624ZM0.598 0.181H0.607V0.184H0.598ZM0.635 0.181H0.648V0.184H0.635ZM0.607 0.184H0.615V0.186H0.607ZM0.662 0.184H0.668V0.186H0.662ZM0.697 0.184H0.699Q0.699 0.189 0.694 0.189H0.691Q0.691 0.184 0.697 0.184ZM0.506 0.186H0.512Q0.512 0.190 0.486 0.212V0.209Q0.502 0.186 0.506 0.186ZM0.618 0.186H0.626V0.189H0.618ZM0.719 0.186H0.724V0.189H0.719ZM0.520 0.189H0.528Q0.548 0.192 0.550 0.192V0.195H0.537V0.201Q0.538 0.206 0.542 0.206H0.556V0.198H0.550Q0.553 0.192 0.553 0.189H0.556Q0.558 0.206 0.562 0.206L0.556 0.217Q0.559 0.217 0.559 0.220Q0.554 0.220 0.545 0.228Q0.545 0.220 0.537 0.220V0.217H0.553Q0.553 0.214 0.556 0.209H0.542Q0.537 0.209 0.537 0.217H0.534V0.209H0.526Q0.520 0.210 0.520 0.215V0.217H0.526Q0.514 0.230 0.514 0.231L0.503 0.226Q0.500 0.229 0.500 0.245H0.497Q0.497 0.234 0.489 0.234H0.483V0.239H0.489Q0.489 0.245 0.483 0.245L0.477 0.242L0.480 0.237L0.477 0.231L0.486 0.226Q0.491 0.228 0.494 0.228V0.223H0.486V0.220Q0.491 0.220 0.512 0.201V0.206H0.517V0.201H0.520V0.206H0.531V0.201H0.520V0.198H0.526V0.192H0.520ZM0.635 0.189H0.646V0.192H0.635ZM0.595 0.192 0.632 0.201V0.203H0.626Q0.595 0.199 0.595 0.192ZM0.349 0.195H0.374V0.198Q0.369 0.198 0.360 0.203Q0.360 0.198 0.349 0.198ZM0.573 0.198H0.575Q0.581 0.198 0.581 0.203H0.578Q0.573 0.203 0.573 0.198ZM0.682 0.198H0.688V0.201H0.682ZM0.312 0.201H0.315V0.215H0.312ZM0.646 0.201H0.660V0.203H0.646ZM0.662 0.201H0.671V0.203H0.662ZM0.581 0.203H0.584Q0.594 0.212 0.604 0.212V0.215H0.601Q0.586 0.212 0.570 0.212V0.209Q0.581 0.209 0.581 0.203ZM0.304 0.217 0.306 0.223H0.298Q0.299 0.217 0.304 0.217ZM0.624 0.217H0.643V0.220H0.624ZM0.559 0.220H0.573V0.223H0.559ZM0.575 0.223H0.584V0.226H0.575ZM0.327 0.226V0.231H0.321Q0.321 0.226 0.327 0.226ZM0.368 0.226Q0.389 0.253 0.408 0.253Q0.370 0.296 0.363 0.296Q0.363 0.292 0.335 0.267L0.352 0.242Q0.349 0.237 0.349 0.234H0.357L0.363 0.237L0.366 0.231Q0.363 0.231 0.363 0.228ZM0.472 0.226V0.228Q0.472 0.234 0.466 0.234H0.464Q0.464 0.230 0.472 0.226ZM0.531 0.226Q0.537 0.227 0.537 0.231Q0.531 0.232 0.531 0.237V0.251L0.556 0.248V0.259H0.548L0.539 0.253H0.528V0.264Q0.546 0.270 0.548 0.279Q0.548 0.283 0.539 0.288Q0.506 0.273 0.506 0.267Q0.520 0.267 0.523 0.256H0.506V0.253H0.523V0.251L0.517 0.237ZM0.587 0.226H0.592V0.228H0.587ZM0.592 0.228H0.601V0.231Q0.598 0.231 0.592 0.234ZM0.279 0.234H0.284V0.237H0.279ZM0.584 0.234H0.590V0.237H0.584ZM0.578 0.237H0.584V0.239H0.578ZM0.472 0.239Q0.472 0.253 0.477 0.253Q0.486 0.253 0.486 0.259H0.477L0.472 0.256Q0.472 0.262 0.466 0.262L0.461 0.259Q0.461 0.251 0.469 0.251V0.248L0.466 0.242ZM0.570 0.239H0.578V0.242H0.570ZM0.564 0.242H0.570V0.245H0.564ZM0.349 0.259 0.355 0.262Q0.360 0.262 0.360 0.256L0.355 0.253Q0.349 0.255 0.349 0.259ZM0.366 0.262 0.371 0.264Q0.377 0.264 0.377 0.259L0.371 0.256Q0.366 0.257 0.366 0.262ZM0.458 0.253Q0.462 0.285 0.486 0.285H0.491Q0.497 0.285 0.497 0.276H0.500Q0.506 0.277 0.506 0.282Q0.497 0.290 0.497 0.310H0.494L0.491 0.296L0.466 0.299Q0.445 0.293 0.444 0.293V0.301Q0.432 0.285 0.422 0.285Q0.422 0.282 0.458 0.253ZM0.388 0.259 0.385 0.264 0.391 0.267 0.393 0.262ZM0.413 0.256H0.416V0.262H0.413ZM0.332 0.273 0.366 0.304 0.374 0.299V0.301Q0.368 0.308 0.368 0.313L0.324 0.285Q0.328 0.273 0.332 0.273ZM0.550 0.288H0.553V0.293Q0.552 0.326 0.523 0.326H0.514V0.324Q0.541 0.324 0.545 0.290ZM0.318 0.290Q0.358 0.318 0.363 0.318Q0.360 0.323 0.360 0.326Q0.315 0.312 0.312 0.304Q0.318 0.295 0.318 0.290ZM0.405 0.290H0.408V0.296H0.405ZM0.419 0.299H0.428V0.307Q0.428 0.313 0.422 0.313Q0.418 0.313 0.413 0.304Q0.414 0.299 0.419 0.299ZM0.480 0.307H0.483V0.313H0.475Q0.476 0.307 0.480 0.307ZM0.497 0.310H0.500V0.315H0.497ZM0.306 0.315H0.309Q0.351 0.335 0.355 0.335Q0.349 0.343 0.349 0.357H0.309Q0.295 0.349 0.295 0.340Q0.299 0.329 0.309 0.324L0.306 0.318ZM0.503 0.318H0.509V0.321H0.503ZM0.509 0.321H0.514V0.324H0.509ZM0.413 0.340H0.422L0.425 0.351V0.354H0.422Q0.422 0.350 0.413 0.340ZM0.405 0.343 0.408 0.349V0.357H0.399V0.349Q0.400 0.343 0.405 0.343ZM0.290 0.354H0.293Q0.305 0.366 0.306 0.366H0.349L0.335 0.383V0.386Q0.361 0.386 0.379 0.405V0.408H0.377Q0.357 0.397 0.349 0.397H0.341Q0.341 0.388 0.335 0.388L0.332 0.394Q0.332 0.397 0.335 0.397L0.332 0.402Q0.335 0.408 0.335 0.411H0.332L0.335 0.416V0.422Q0.335 0.427 0.329 0.427Q0.329 0.423 0.309 0.408L0.312 0.402Q0.312 0.397 0.306 0.397H0.284Q0.263 0.397 0.254 0.380V0.371Q0.254 0.367 0.265 0.360Q0.266 0.366 0.270 0.366Q0.273 0.360 0.273 0.357H0.276L0.290 0.360ZM0.441 0.363 0.447 0.371V0.380Q0.447 0.382 0.439 0.388Q0.428 0.386 0.419 0.386Q0.419 0.381 0.430 0.377L0.441 0.383V0.377L0.430 0.366ZM0.408 0.366V0.371Q0.388 0.371 0.388 0.383H0.385V0.371Q0.403 0.366 0.408 0.366ZM0.509 0.368Q0.535 0.368 0.550 0.397L0.542 0.402Q0.531 0.377 0.506 0.377Q0.490 0.377 0.464 0.397H0.452Q0.452 0.385 0.509 0.368ZM0.262 0.374V0.380L0.281 0.383H0.284V0.374ZM0.388 0.383H0.396Q0.411 0.383 0.416 0.394V0.397Q0.405 0.388 0.388 0.388ZM0.321 0.399 0.318 0.405 0.327 0.411 0.329 0.405ZM0.276 0.405H0.301Q0.301 0.413 0.324 0.430Q0.318 0.461 0.318 0.495V0.506Q0.318 0.508 0.321 0.508L0.318 0.514V0.525Q0.332 0.522 0.335 0.522H0.343V0.525H0.332L0.338 0.533L0.332 0.536V0.531H0.321V0.536Q0.329 0.536 0.329 0.542Q0.326 0.542 0.301 0.570V0.573Q0.330 0.603 0.338 0.615L0.343 0.618Q0.388 0.612 0.388 0.604V0.601H0.391V0.629Q0.391 0.634 0.399 0.634L0.385 0.652L0.379 0.649H0.377V0.660H0.379L0.385 0.657L0.388 0.663V0.691L0.396 0.702Q0.388 0.707 0.388 0.733L0.379 0.727L0.382 0.721V0.716Q0.382 0.712 0.374 0.707V0.713Q0.377 0.718 0.377 0.721L0.343 0.691Q0.343 0.694 0.318 0.716Q0.306 0.704 0.295 0.666Q0.299 0.666 0.309 0.652Q0.306 0.652 0.273 0.615Q0.279 0.615 0.279 0.609V0.604Q0.254 0.608 0.254 0.615Q0.254 0.619 0.231 0.637H0.217V0.634H0.223V0.629H0.211L0.189 0.646V0.640Q0.196 0.623 0.208 0.623V0.615Q0.202 0.615 0.200 0.601H0.197Q0.197 0.597 0.223 0.576Q0.223 0.592 0.240 0.609Q0.251 0.604 0.259 0.604V0.590Q0.248 0.590 0.248 0.573Q0.248 0.561 0.268 0.553V0.559H0.270V0.551H0.268L0.270 0.545L0.268 0.531Q0.271 0.531 0.309 0.486Q0.280 0.466 0.273 0.433ZM0.447 0.405H0.452V0.408Q0.436 0.426 0.436 0.447Q0.428 0.444 0.428 0.441Q0.435 0.409 0.447 0.405ZM0.391 0.408Q0.410 0.432 0.410 0.444Q0.416 0.444 0.416 0.419H0.419Q0.419 0.435 0.422 0.449L0.410 0.458Q0.410 0.442 0.385 0.413Q0.386 0.408 0.391 0.408ZM0.520 0.411H0.523Q0.509 0.426 0.509 0.438Q0.505 0.438 0.494 0.424Q0.509 0.411 0.520 0.411ZM0.550 0.411Q0.559 0.413 0.559 0.427Q0.559 0.438 0.548 0.444H0.542Q0.550 0.435 0.550 0.411ZM0.489 0.430Q0.493 0.430 0.517 0.458H0.497Q0.486 0.453 0.486 0.438Q0.489 0.433 0.489 0.430ZM0.523 0.438Q0.523 0.444 0.528 0.455H0.526Q0.521 0.455 0.512 0.441Q0.517 0.441 0.523 0.438ZM0.382 0.441Q0.394 0.441 0.408 0.458H0.410Q0.410 0.462 0.402 0.467Q0.402 0.458 0.388 0.449H0.382V0.452Q0.393 0.465 0.393 0.472Q0.376 0.455 0.363 0.455Q0.367 0.441 0.382 0.441ZM0.581 0.447H0.592L0.595 0.461V0.464Q0.595 0.481 0.575 0.492H0.556Q0.545 0.487 0.545 0.472V0.461H0.548Q0.548 0.470 0.553 0.470H0.556Q0.581 0.461 0.581 0.449ZM0.270 0.452H0.273Q0.273 0.469 0.298 0.486Q0.298 0.493 0.265 0.522Q0.251 0.501 0.251 0.495L0.257 0.492Q0.257 0.503 0.262 0.503H0.268V0.500Q0.268 0.491 0.270 0.452ZM0.430 0.452 0.436 0.461V0.470L0.433 0.489H0.436Q0.446 0.481 0.455 0.481Q0.460 0.481 0.464 0.489L0.447 0.497Q0.447 0.492 0.444 0.492Q0.434 0.492 0.413 0.508V0.506Q0.419 0.493 0.428 0.452ZM0.528 0.455H0.537Q0.537 0.461 0.531 0.461ZM0.416 0.467Q0.410 0.487 0.410 0.492H0.408Q0.408 0.479 0.405 0.475ZM0.526 0.467Q0.531 0.470 0.534 0.470Q0.530 0.506 0.503 0.506Q0.503 0.496 0.523 0.492L0.526 0.486V0.484Q0.526 0.478 0.520 0.478Q0.497 0.490 0.497 0.500H0.494V0.489Q0.515 0.467 0.526 0.467ZM0.366 0.481Q0.379 0.481 0.396 0.506L0.393 0.520H0.391Q0.391 0.497 0.355 0.489Q0.350 0.492 0.343 0.492Q0.343 0.484 0.366 0.481ZM0.396 0.484H0.399V0.495H0.396ZM0.192 0.486H0.197V0.492Q0.192 0.492 0.192 0.486ZM0.341 0.492H0.343V0.497H0.341ZM0.329 0.497Q0.329 0.500 0.332 0.506L0.327 0.508L0.324 0.503Q0.324 0.497 0.329 0.497ZM0.352 0.497H0.360Q0.382 0.508 0.382 0.525L0.374 0.553Q0.370 0.553 0.366 0.545Q0.377 0.545 0.377 0.525Q0.371 0.500 0.352 0.500ZM0.444 0.497H0.447Q0.435 0.522 0.428 0.525L0.419 0.514ZM0.245 0.500H0.248V0.508H0.245ZM0.234 0.508Q0.237 0.508 0.259 0.533Q0.234 0.533 0.223 0.568H0.220L0.195 0.539Q0.200 0.539 0.200 0.533L0.206 0.536Q0.220 0.522 0.220 0.511L0.225 0.514H0.234ZM0.413 0.522Q0.418 0.522 0.425 0.533Q0.405 0.539 0.405 0.545V0.548Q0.413 0.548 0.425 0.551V0.556H0.408Q0.402 0.556 0.382 0.565V0.559L0.396 0.553V0.548L0.393 0.542Q0.396 0.542 0.413 0.522ZM0.343 0.539Q0.343 0.545 0.349 0.545V0.548Q0.343 0.548 0.335 0.570Q0.331 0.576 0.327 0.576V0.582Q0.338 0.587 0.341 0.587V0.601Q0.337 0.601 0.309 0.570Q0.328 0.553 0.329 0.553Q0.329 0.556 0.332 0.556Q0.338 0.539 0.343 0.539ZM0.357 0.545Q0.357 0.553 0.366 0.553V0.562Q0.359 0.562 0.349 0.570H0.346Q0.352 0.561 0.352 0.553L0.349 0.548Q0.352 0.548 0.357 0.545ZM0.181 0.551H0.186V0.553H0.181ZM0.192 0.553H0.200L0.214 0.570Q0.214 0.574 0.195 0.590H0.192L0.195 0.576Q0.181 0.568 0.172 0.568V0.565H0.181L0.195 0.568L0.197 0.562V0.556H0.192ZM0.153 0.562H0.170V0.565H0.153ZM0.377 0.565V0.568Q0.374 0.573 0.374 0.576Q0.369 0.573 0.366 0.573Q0.366 0.569 0.377 0.565ZM0.357 0.576H0.363V0.579H0.357ZM0.341 0.579Q0.345 0.582 0.352 0.582V0.584Q0.342 0.587 0.341 0.587ZM0.352 0.579H0.357V0.582H0.352ZM0.159 0.582H0.186V0.587Q0.185 0.584 0.159 0.584ZM0.262 0.593V0.598H0.270Q0.276 0.598 0.276 0.593V0.590ZM0.377 0.590H0.379V0.606H0.377ZM0.494 0.590H0.503L0.523 0.593V0.595Q0.523 0.600 0.512 0.606Q0.507 0.606 0.494 0.590ZM0.486 0.593Q0.486 0.597 0.512 0.618Q0.512 0.614 0.526 0.604V0.606Q0.526 0.609 0.523 0.609L0.526 0.623V0.629Q0.526 0.635 0.503 0.640L0.469 0.634H0.466V0.637Q0.473 0.637 0.477 0.649L0.475 0.663H0.517Q0.553 0.654 0.553 0.626Q0.549 0.612 0.534 0.612V0.609H0.545Q0.558 0.615 0.559 0.620V0.626Q0.559 0.668 0.506 0.668Q0.491 0.666 0.480 0.666H0.475L0.461 0.668L0.475 0.652Q0.471 0.652 0.452 0.629Q0.454 0.623 0.458 0.623H0.491Q0.497 0.623 0.497 0.618V0.615Q0.497 0.609 0.491 0.609H0.461Q0.457 0.609 0.452 0.601V0.598Q0.467 0.598 0.486 0.593ZM0.248 0.595H0.251V0.601H0.248ZM0.444 0.609Q0.449 0.612 0.452 0.612V0.615Q0.449 0.615 0.444 0.618L0.441 0.612Q0.444 0.612 0.444 0.609ZM0.374 0.626H0.371V0.620H0.366V0.629L0.377 0.632L0.385 0.620V0.618H0.379Q0.374 0.618 0.374 0.626ZM0.265 0.618 0.298 0.655Q0.298 0.660 0.293 0.660Q0.290 0.646 0.276 0.646V0.652L0.279 0.657Q0.275 0.657 0.265 0.668H0.262Q0.257 0.668 0.254 0.646L0.243 0.643V0.640Q0.243 0.637 0.265 0.618ZM0.332 0.623Q0.332 0.634 0.357 0.652H0.346V0.646H0.341V0.652H0.346L0.343 0.657Q0.346 0.657 0.346 0.660L0.352 0.657L0.357 0.660V0.652L0.368 0.660H0.371V0.657L0.363 0.643H0.374V0.640Q0.374 0.634 0.368 0.634L0.363 0.637Q0.363 0.630 0.349 0.629V0.626H0.355V0.620Q0.339 0.623 0.332 0.623ZM0.425 0.620Q0.432 0.622 0.436 0.634Q0.430 0.655 0.419 0.655V0.657Q0.419 0.660 0.439 0.668L0.441 0.680L0.428 0.691L0.408 0.668L0.416 0.657H0.408Q0.419 0.647 0.422 0.623Q0.425 0.623 0.425 0.620ZM0.590 0.634Q0.610 0.634 0.629 0.657L0.624 0.660Q0.624 0.651 0.592 0.640Q0.588 0.640 0.567 0.646Q0.567 0.637 0.590 0.634ZM0.410 0.637V0.640Q0.410 0.646 0.405 0.646V0.643Q0.406 0.637 0.410 0.637ZM0.357 0.640H0.363V0.643H0.357ZM0.447 0.640H0.450Q0.454 0.640 0.464 0.655Q0.464 0.658 0.452 0.666Q0.452 0.660 0.441 0.660V0.657H0.447L0.444 0.652Q0.447 0.646 0.447 0.640ZM0.399 0.646H0.405V0.649H0.399ZM0.279 0.657H0.284V0.660H0.279ZM0.284 0.660H0.290V0.663H0.284ZM0.635 0.663 0.640 0.688V0.707H0.637Q0.637 0.675 0.629 0.666ZM0.374 0.674V0.696H0.379L0.382 0.682V0.668H0.379Q0.374 0.669 0.374 0.674ZM0.363 0.671V0.685Q0.363 0.706 0.371 0.707V0.685L0.368 0.671ZM0.520 0.682H0.531Q0.542 0.688 0.542 0.699Q0.538 0.710 0.534 0.710Q0.530 0.710 0.512 0.688ZM0.450 0.691Q0.454 0.691 0.464 0.704Q0.460 0.704 0.450 0.716L0.439 0.702Q0.439 0.698 0.450 0.691ZM0.346 0.702Q0.350 0.702 0.382 0.738L0.352 0.766Q0.348 0.766 0.324 0.727V0.724Q0.324 0.721 0.346 0.702ZM0.509 0.702H0.512Q0.516 0.702 0.523 0.713H0.520Q0.515 0.713 0.509 0.702ZM0.635 0.707H0.637V0.716H0.635ZM0.503 0.710Q0.507 0.710 0.514 0.724Q0.514 0.740 0.486 0.744Q0.486 0.747 0.483 0.747L0.475 0.736ZM0.578 0.716Q0.595 0.718 0.595 0.724V0.727Q0.587 0.737 0.587 0.747Q0.587 0.749 0.607 0.761L0.604 0.777Q0.601 0.777 0.595 0.775L0.581 0.777V0.772L0.584 0.758L0.578 0.755Q0.570 0.764 0.570 0.769H0.564L0.545 0.764Q0.552 0.748 0.559 0.741Q0.570 0.747 0.578 0.747V0.738Q0.567 0.738 0.567 0.727Q0.570 0.716 0.578 0.716ZM0.635 0.716V0.718Q0.635 0.724 0.629 0.724V0.721Q0.630 0.716 0.635 0.716ZM0.287 0.721Q0.298 0.734 0.298 0.736L0.284 0.747Q0.280 0.747 0.273 0.736Q0.273 0.732 0.287 0.721ZM0.419 0.721Q0.430 0.734 0.430 0.736Q0.430 0.740 0.419 0.747H0.416Q0.412 0.747 0.405 0.736Q0.405 0.732 0.419 0.721ZM0.629 0.724V0.727Q0.629 0.733 0.624 0.733H0.621Q0.621 0.729 0.629 0.724ZM0.612 0.736H0.618V0.738H0.612ZM0.391 0.738 0.425 0.777 0.399 0.800Q0.363 0.784 0.363 0.780Q0.358 0.780 0.355 0.772ZM0.604 0.738H0.612V0.741H0.604ZM0.598 0.741H0.604V0.744H0.598ZM0.254 0.755Q0.265 0.767 0.265 0.769L0.251 0.780Q0.251 0.779 0.237 0.766Q0.243 0.766 0.254 0.755ZM0.318 0.755 0.329 0.769Q0.329 0.773 0.318 0.780Q0.314 0.780 0.304 0.766Q0.316 0.755 0.318 0.755ZM0.452 0.755Q0.464 0.767 0.464 0.769L0.450 0.780Q0.445 0.780 0.439 0.769Q0.439 0.765 0.452 0.755ZM0.517 0.755Q0.523 0.756 0.523 0.761Q0.523 0.765 0.512 0.772Q0.506 0.772 0.506 0.766Q0.506 0.762 0.517 0.755ZM0.430 0.783 0.464 0.819Q0.464 0.823 0.433 0.851Q0.396 0.821 0.396 0.816Q0.396 0.813 0.430 0.783ZM0.220 0.789Q0.224 0.789 0.231 0.800Q0.231 0.804 0.217 0.814L0.206 0.800ZM0.281 0.789H0.284Q0.288 0.789 0.298 0.802L0.293 0.805Q0.293 0.800 0.281 0.789ZM0.483 0.789Q0.487 0.789 0.497 0.802L0.483 0.814Q0.480 0.814 0.469 0.800ZM0.550 0.789Q0.555 0.789 0.564 0.802Q0.561 0.802 0.550 0.814Q0.546 0.814 0.537 0.800ZM0.276 0.797Q0.280 0.797 0.290 0.811L0.284 0.814Q0.280 0.814 0.270 0.800ZM0.371 0.802H0.374V0.814H0.371ZM0.379 0.805Q0.385 0.808 0.388 0.808V0.811L0.382 0.819L0.388 0.828V0.853L0.391 0.873L0.379 0.875ZM0.254 0.819 0.265 0.834Q0.265 0.838 0.254 0.845Q0.250 0.845 0.240 0.831ZM0.477 0.819Q0.496 0.834 0.506 0.834Q0.506 0.829 0.517 0.822Q0.520 0.822 0.531 0.837Q0.527 0.837 0.523 0.845V0.848Q0.645 0.903 0.682 0.903V0.906Q0.671 0.926 0.668 0.926Q0.668 0.913 0.626 0.903Q0.610 0.903 0.578 0.926Q0.548 0.914 0.548 0.909Q0.552 0.909 0.556 0.900L0.509 0.856L0.486 0.881Q0.448 0.857 0.441 0.856Q0.441 0.852 0.477 0.819ZM0.312 0.828V0.839Q0.307 0.837 0.304 0.837Q0.304 0.832 0.312 0.828ZM0.327 0.834H0.332Q0.332 0.839 0.327 0.839ZM0.287 0.853Q0.298 0.866 0.298 0.867Q0.298 0.871 0.284 0.881L0.273 0.867Q0.273 0.863 0.287 0.853ZM0.352 0.853Q0.363 0.866 0.363 0.867V0.870H0.360Q0.356 0.870 0.346 0.856ZM0.416 0.856Q0.425 0.864 0.430 0.864V0.867Q0.430 0.871 0.416 0.881Q0.410 0.874 0.410 0.870Q0.416 0.861 0.416 0.856ZM0.343 0.867H0.346Q0.350 0.867 0.355 0.875Q0.355 0.881 0.349 0.881Q0.349 0.877 0.343 0.870ZM0.512 0.867Q0.515 0.867 0.548 0.903L0.539 0.909Q0.494 0.889 0.494 0.884Q0.494 0.880 0.512 0.867ZM0.447 0.887H0.450Q0.455 0.888 0.455 0.892Q0.450 0.892 0.439 0.903L0.436 0.898Q0.447 0.893 0.447 0.887ZM0.324 0.889 0.332 0.900 0.318 0.912 0.309 0.900ZM0.388 0.889Q0.388 0.898 0.399 0.898Q0.399 0.902 0.391 0.906Q0.391 0.901 0.382 0.892ZM0.377 0.895 0.382 0.903 0.377 0.906 0.371 0.898ZM0.694 0.906Q0.774 0.926 0.839 0.926H0.847V0.932Q0.828 0.956 0.828 0.965H0.825V0.949L0.828 0.943Q0.822 0.943 0.822 0.937Q0.797 0.941 0.797 0.962V0.965L0.789 0.960Q0.777 0.971 0.772 0.971Q0.761 0.971 0.713 0.965V0.957Q0.713 0.947 0.710 0.932Q0.713 0.927 0.713 0.918L0.708 0.915Q0.685 0.926 0.685 0.943V0.946L0.688 0.960Q0.671 0.958 0.671 0.943ZM0.352 0.921Q0.357 0.921 0.357 0.926Q0.357 0.930 0.346 0.937Q0.341 0.937 0.341 0.932Q0.341 0.927 0.352 0.921ZM0.416 0.921Q0.420 0.921 0.428 0.932Q0.422 0.944 0.416 0.946Q0.416 0.944 0.405 0.932Q0.405 0.927 0.416 0.921ZM0.621 0.921H0.632Q0.665 0.927 0.665 0.954Q0.602 0.935 0.598 0.935V0.929Q0.616 0.921 0.621 0.921ZM0.702 0.929Q0.705 0.954 0.705 0.960H0.702Q0.694 0.957 0.694 0.943Q0.695 0.929 0.702 0.929ZM0.844 0.946H0.847V0.976H0.833Q0.833 0.972 0.844 0.946ZM0.817 0.949V0.954L0.814 0.973H0.808V0.951Q0.811 0.951 0.817 0.949ZM0.377 0.960Q0.393 0.966 0.393 0.971L0.382 0.979L0.371 0.965Q0.372 0.960 0.377 0.960ZM0.797 0.965H0.800V0.973H0.797ZM0.822 0.965H0.825V0.973H0.822Z" fill="black"/>
</svg>
