<svg xmlns="http://www.w3.org/2000/svg" viewBox="0 0 1 1" preserveAspectRatio="xMidYMid meet">
  <path d="M0.282 0.000H0.285Q0.285 0.014 0.299 0.014V0.017Q0.288 0.017 0.288 0.033Q0.286 0.033 0.279 0.025H0.271Q0.274 0.020 0.274 0.017Q0.268 0.017 0.268 0.011Q0.282 0.011 0.282 0.000ZM0.176 0.019H0.189V0.022L0.170 0.033L0.167 0.028Q0.167 0.024 0.176 0.019ZM0.173 0.036H0.227V0.039Q0.227 0.050 0.215 0.062V0.068Q0.222 0.082 0.235 0.082V0.084H0.215V0.118Q0.216 0.123 0.221 0.123Q0.227 0.123 0.227 0.109H0.229L0.232 0.121H0.238L0.243 0.118V0.123H0.238V0.126L0.240 0.140L0.232 0.134H0.227V0.143H0.224Q0.218 0.143 0.218 0.137Q0.224 0.137 0.224 0.134Q0.221 0.129 0.221 0.126H0.215V0.160Q0.201 0.154 0.195 0.134Q0.195 0.132 0.204 0.112Q0.201 0.112 0.201 0.109Q0.189 0.111 0.189 0.115L0.184 0.112Q0.167 0.115 0.167 0.121L0.170 0.126H0.167L0.150 0.123Q0.145 0.125 0.145 0.129L0.150 0.137Q0.148 0.143 0.148 0.149Q0.154 0.155 0.164 0.155L0.159 0.163V0.166L0.164 0.174L0.159 0.183Q0.159 0.197 0.198 0.205V0.208Q0.176 0.208 0.176 0.219L0.170 0.216H0.167L0.145 0.236L0.142 0.224Q0.139 0.224 0.139 0.227L0.134 0.224L0.123 0.230Q0.122 0.227 0.108 0.219L0.111 0.213Q0.108 0.209 0.108 0.202Q0.111 0.202 0.111 0.199L0.086 0.180Q0.086 0.172 0.094 0.158Q0.086 0.158 0.086 0.146H0.091L0.097 0.149Q0.097 0.146 0.100 0.140Q0.097 0.140 0.097 0.137Q0.105 0.137 0.105 0.126L0.111 0.129V0.126Q0.108 0.126 0.108 0.123Q0.117 0.123 0.117 0.118L0.111 0.109Q0.103 0.112 0.103 0.115Q0.097 0.112 0.094 0.112L0.097 0.107V0.104L0.094 0.098Q0.099 0.098 0.105 0.087Q0.103 0.087 0.103 0.084L0.108 0.082Q0.112 0.093 0.117 0.093Q0.120 0.093 0.120 0.090Q0.129 0.096 0.137 0.096V0.098H0.125Q0.123 0.098 0.123 0.096Q0.117 0.098 0.114 0.098V0.107H0.120L0.117 0.112L0.125 0.118L0.128 0.112Q0.123 0.112 0.123 0.107Q0.134 0.109 0.142 0.109L0.139 0.115L0.148 0.121H0.150L0.156 0.118Q0.156 0.121 0.159 0.121L0.162 0.115L0.159 0.109Q0.173 0.108 0.173 0.101Q0.173 0.096 0.164 0.096V0.093Q0.178 0.093 0.178 0.087Q0.178 0.081 0.164 0.079V0.076Q0.164 0.073 0.167 0.073L0.164 0.068V0.062Q0.177 0.062 0.181 0.059Q0.181 0.071 0.187 0.071H0.189Q0.195 0.071 0.195 0.065Q0.195 0.060 0.184 0.056Q0.184 0.059 0.181 0.059ZM0.235 0.036H0.243V0.039Q0.243 0.045 0.238 0.045H0.235ZM0.252 0.036 0.257 0.039H0.277L0.296 0.042V0.045Q0.288 0.045 0.288 0.051Q0.289 0.056 0.293 0.056Q0.297 0.056 0.308 0.042Q0.317 0.045 0.336 0.045L0.328 0.056Q0.330 0.056 0.330 0.059Q0.328 0.059 0.328 0.062L0.344 0.079Q0.344 0.076 0.347 0.076Q0.347 0.073 0.333 0.056L0.344 0.048Q0.382 0.053 0.383 0.053L0.380 0.059Q0.406 0.068 0.406 0.084V0.093Q0.406 0.109 0.395 0.109Q0.358 0.109 0.353 0.087Q0.353 0.082 0.347 0.082Q0.347 0.087 0.342 0.087Q0.335 0.074 0.319 0.062Q0.319 0.065 0.316 0.065Q0.319 0.082 0.322 0.082Q0.319 0.086 0.319 0.093L0.305 0.090H0.293L0.296 0.096H0.293Q0.288 0.093 0.285 0.093H0.277Q0.277 0.089 0.252 0.073Q0.252 0.066 0.240 0.065L0.249 0.051Q0.246 0.051 0.246 0.048Q0.252 0.048 0.252 0.036ZM0.305 0.051 0.302 0.056 0.314 0.062 0.316 0.056ZM0.224 0.062H0.229V0.068H0.224ZM0.406 0.062H0.409Q0.443 0.070 0.443 0.082Q0.443 0.100 0.487 0.123L0.496 0.140Q0.490 0.143 0.487 0.143Q0.450 0.129 0.406 0.115Q0.415 0.105 0.415 0.096V0.084Q0.415 0.076 0.406 0.062ZM0.451 0.076 0.533 0.109V0.112Q0.522 0.112 0.499 0.129Q0.495 0.114 0.454 0.093Q0.454 0.091 0.451 0.076ZM0.145 0.079H0.153V0.082H0.145ZM0.328 0.087H0.330Q0.336 0.088 0.336 0.093V0.096H0.328ZM0.069 0.107H0.074V0.109H0.069ZM0.148 0.107H0.159V0.109H0.148ZM0.086 0.109Q0.091 0.112 0.094 0.112V0.115L0.083 0.118H0.080V0.115Q0.086 0.115 0.086 0.109ZM0.061 0.115V0.121H0.055Q0.056 0.115 0.061 0.115ZM0.077 0.118H0.080Q0.080 0.122 0.072 0.126H0.069Q0.069 0.123 0.077 0.118ZM0.117 0.126Q0.122 0.129 0.128 0.129V0.132Q0.114 0.132 0.114 0.137Q0.123 0.143 0.131 0.143V0.146Q0.117 0.146 0.117 0.152Q0.123 0.158 0.128 0.158V0.160Q0.120 0.160 0.120 0.166Q0.120 0.172 0.128 0.172V0.174Q0.120 0.174 0.120 0.180Q0.120 0.184 0.137 0.191L0.139 0.186L0.137 0.180Q0.145 0.180 0.145 0.174V0.172L0.139 0.163Q0.142 0.158 0.142 0.155Q0.135 0.149 0.131 0.149V0.146Q0.139 0.146 0.139 0.140Q0.139 0.138 0.131 0.132Q0.134 0.126 0.134 0.123L0.128 0.121H0.123Q0.117 0.122 0.117 0.126ZM0.274 0.118H0.282Q0.299 0.120 0.299 0.126Q0.286 0.126 0.279 0.134Q0.279 0.121 0.274 0.121ZM0.544 0.118Q0.634 0.161 0.707 0.259Q0.713 0.259 0.718 0.262L0.724 0.259Q0.760 0.259 0.793 0.301Q0.802 0.317 0.808 0.337H0.805L0.808 0.342V0.357H0.799V0.354Q0.799 0.301 0.743 0.278Q0.725 0.273 0.718 0.273H0.715Q0.755 0.345 0.757 0.377Q0.743 0.379 0.712 0.402Q0.712 0.378 0.684 0.320Q0.701 0.311 0.701 0.292Q0.701 0.259 0.650 0.247L0.634 0.230Q0.628 0.230 0.628 0.238H0.625Q0.574 0.195 0.574 0.191L0.572 0.180Q0.572 0.175 0.577 0.160Q0.564 0.160 0.516 0.137H0.504Q0.504 0.129 0.544 0.118ZM0.055 0.121V0.123Q0.055 0.129 0.049 0.129V0.126Q0.051 0.121 0.055 0.121ZM0.069 0.126V0.132H0.063Q0.064 0.126 0.069 0.126ZM0.044 0.132H0.047V0.137H0.044ZM0.063 0.132V0.137H0.058Q0.059 0.132 0.063 0.132ZM0.041 0.137H0.044V0.143H0.041ZM0.038 0.143H0.041V0.149H0.038ZM0.052 0.143H0.055V0.149Q0.052 0.155 0.052 0.158H0.049V0.152Q0.052 0.146 0.052 0.143ZM0.499 0.146H0.513Q0.517 0.146 0.558 0.166H0.566Q0.563 0.177 0.563 0.186ZM0.227 0.149Q0.232 0.149 0.232 0.158H0.240L0.238 0.152H0.246V0.155L0.240 0.163L0.246 0.174H0.243Q0.238 0.172 0.235 0.172Q0.235 0.174 0.232 0.174Q0.232 0.172 0.218 0.160Q0.227 0.160 0.227 0.152ZM0.035 0.152H0.038V0.158H0.035ZM0.187 0.155H0.195V0.158H0.187ZM0.263 0.155H0.271V0.166H0.263ZM0.047 0.158H0.049V0.194H0.047ZM0.103 0.166 0.100 0.172 0.105 0.174 0.108 0.169ZM0.288 0.163Q0.293 0.163 0.293 0.169H0.288ZM0.033 0.166H0.035Q0.035 0.207 0.055 0.230V0.233L0.044 0.224Q0.041 0.230 0.041 0.233Q0.036 0.230 0.033 0.230ZM0.181 0.172H0.187V0.174H0.181ZM0.128 0.174H0.134V0.177H0.128ZM0.187 0.174H0.189Q0.211 0.180 0.215 0.180V0.188Q0.202 0.181 0.187 0.177ZM0.291 0.177H0.299Q0.299 0.180 0.296 0.180L0.299 0.186V0.191L0.291 0.186L0.282 0.191V0.186Q0.282 0.181 0.291 0.177ZM0.074 0.183H0.080V0.186H0.074ZM0.176 0.188H0.181V0.191H0.176ZM0.181 0.191H0.187V0.194H0.181ZM0.358 0.191Q0.369 0.195 0.369 0.199V0.208Q0.369 0.212 0.361 0.216H0.355L0.353 0.202V0.197Q0.354 0.191 0.358 0.191ZM0.189 0.194H0.195V0.197H0.189ZM0.049 0.197H0.052V0.202H0.049ZM0.052 0.202Q0.056 0.202 0.063 0.222H0.058ZM0.212 0.202Q0.254 0.215 0.254 0.222V0.224Q0.252 0.224 0.252 0.222L0.246 0.224H0.238L0.235 0.213L0.221 0.216Q0.221 0.211 0.212 0.211ZM1.001 0.202H1.010Q1.007 0.208 1.007 0.211Q1.001 0.211 1.001 0.205ZM0.993 0.208Q0.999 0.213 0.999 0.224Q0.973 0.244 0.965 0.244Q0.970 0.219 0.990 0.208ZM0.187 0.216H0.189Q0.197 0.216 0.235 0.236Q0.243 0.236 0.243 0.241Q0.240 0.247 0.240 0.253Q0.236 0.253 0.218 0.233V0.238Q0.187 0.218 0.187 0.216ZM0.111 0.224 0.114 0.230Q0.108 0.231 0.108 0.236V0.238H0.114V0.241L0.105 0.253V0.256H0.111V0.259H0.105Q0.100 0.256 0.097 0.256Q0.097 0.253 0.100 0.253L0.097 0.247V0.244L0.105 0.233Q0.103 0.233 0.103 0.230ZM0.167 0.224V0.227L0.173 0.224Q0.176 0.224 0.176 0.227L0.181 0.224Q0.192 0.233 0.201 0.233Q0.201 0.236 0.198 0.236L0.201 0.241V0.262Q0.201 0.265 0.184 0.278V0.275Q0.170 0.279 0.170 0.284Q0.189 0.293 0.189 0.309Q0.189 0.337 0.164 0.337Q0.159 0.334 0.156 0.334L0.164 0.323V0.312L0.159 0.303H0.164V0.287Q0.146 0.309 0.139 0.312H0.137Q0.137 0.299 0.131 0.292Q0.137 0.292 0.137 0.287V0.281Q0.130 0.281 0.125 0.270Q0.131 0.270 0.131 0.264L0.137 0.267L0.145 0.262Q0.145 0.265 0.153 0.270H0.156Q0.156 0.265 0.164 0.259L0.162 0.244L0.153 0.250H0.150V0.244Q0.164 0.242 0.164 0.236Q0.162 0.230 0.162 0.227ZM0.271 0.224H0.277Q0.277 0.231 0.291 0.241L0.285 0.244H0.282L0.268 0.241Q0.271 0.237 0.271 0.224ZM0.041 0.233H0.044V0.238H0.041ZM0.139 0.236H0.145Q0.145 0.241 0.139 0.241ZM0.033 0.244H0.035V0.250H0.033ZM0.631 0.244H0.634Q0.640 0.251 0.687 0.273Q0.687 0.278 0.692 0.292Q0.688 0.312 0.681 0.312H0.678Q0.678 0.304 0.662 0.287L0.642 0.301Q0.642 0.292 0.637 0.292Q0.633 0.292 0.623 0.314L0.608 0.317Q0.608 0.311 0.653 0.273ZM0.210 0.247Q0.215 0.248 0.215 0.253V0.264Q0.210 0.264 0.210 0.259ZM0.145 0.250H0.150V0.253H0.145ZM0.296 0.250Q0.296 0.253 0.299 0.253L0.296 0.259Q0.299 0.264 0.299 0.267Q0.277 0.278 0.277 0.281V0.289H0.282V0.292H0.277L0.279 0.306Q0.269 0.314 0.265 0.314V0.320Q0.274 0.320 0.274 0.326Q0.273 0.331 0.260 0.337Q0.243 0.335 0.243 0.331Q0.249 0.322 0.249 0.314V0.312Q0.236 0.297 0.235 0.289H0.238Q0.250 0.301 0.252 0.301Q0.256 0.301 0.268 0.284V0.281Q0.261 0.281 0.249 0.267V0.262Q0.249 0.256 0.296 0.250ZM0.035 0.253H0.038V0.259H0.035ZM0.134 0.253H0.139V0.256H0.134ZM0.148 0.256H0.150V0.262H0.148ZM0.038 0.259H0.041V0.264H0.038ZM0.232 0.259Q0.232 0.264 0.240 0.264L0.235 0.278Q0.222 0.273 0.221 0.267ZM0.088 0.270H0.091V0.292H0.088ZM0.204 0.273H0.207Q0.229 0.285 0.229 0.289Q0.222 0.289 0.221 0.301Q0.195 0.280 0.195 0.278ZM0.072 0.292H0.077V0.306Q0.077 0.312 0.072 0.312H0.069Q0.063 0.312 0.063 0.306Q0.070 0.306 0.072 0.292ZM0.195 0.295Q0.208 0.299 0.215 0.312V0.331Q0.195 0.317 0.195 0.295ZM0.088 0.303H0.091V0.312H0.088ZM0.111 0.303H0.120Q0.120 0.309 0.114 0.309ZM0.937 0.303V0.306Q0.937 0.312 0.931 0.312V0.309Q0.932 0.303 0.937 0.303ZM0.931 0.312V0.317Q0.931 0.321 0.906 0.348H0.897ZM0.033 0.314H0.035V0.323H0.033ZM0.123 0.314H0.125Q0.139 0.340 0.176 0.379L0.178 0.374Q0.178 0.371 0.162 0.348V0.345Q0.175 0.345 0.178 0.342Q0.178 0.347 0.198 0.363L0.201 0.357L0.187 0.340Q0.195 0.326 0.198 0.326Q0.198 0.330 0.215 0.342Q0.221 0.342 0.221 0.337Q0.218 0.337 0.218 0.334L0.227 0.328L0.235 0.340Q0.227 0.340 0.227 0.345V0.348H0.229L0.235 0.345Q0.235 0.358 0.252 0.368H0.254Q0.256 0.354 0.268 0.354V0.351L0.263 0.342Q0.270 0.342 0.277 0.337Q0.277 0.345 0.282 0.354H0.271V0.368H0.268V0.371Q0.268 0.374 0.271 0.374Q0.271 0.377 0.268 0.377L0.271 0.390Q0.252 0.435 0.240 0.435V0.432Q0.229 0.437 0.229 0.441L0.218 0.435L0.215 0.441V0.492H0.221L0.215 0.500V0.508H0.265V0.511Q0.260 0.511 0.260 0.522H0.235L0.215 0.528V0.551Q0.221 0.548 0.224 0.548V0.545L0.218 0.536Q0.246 0.531 0.254 0.531L0.271 0.533Q0.314 0.530 0.314 0.525Q0.322 0.531 0.328 0.531Q0.328 0.534 0.311 0.553V0.556Q0.314 0.556 0.314 0.559H0.302L0.305 0.553V0.545Q0.305 0.541 0.293 0.533H0.288Q0.284 0.533 0.277 0.545L0.279 0.559Q0.274 0.556 0.271 0.556L0.274 0.551V0.545Q0.270 0.533 0.254 0.533Q0.254 0.536 0.246 0.542L0.249 0.548Q0.246 0.553 0.246 0.556Q0.253 0.562 0.260 0.562L0.249 0.582H0.227L0.224 0.595V0.604L0.235 0.607V0.609H0.232Q0.227 0.609 0.215 0.604V0.632Q0.215 0.634 0.218 0.634L0.215 0.640V0.680Q0.208 0.680 0.164 0.697Q0.164 0.663 0.153 0.649Q0.156 0.643 0.156 0.640H0.159L0.162 0.660H0.164V0.626Q0.164 0.623 0.162 0.623L0.164 0.618V0.612Q0.164 0.609 0.162 0.609L0.164 0.604V0.601L0.159 0.604Q0.159 0.601 0.156 0.595H0.159L0.164 0.598V0.587Q0.164 0.582 0.159 0.582H0.156Q0.151 0.582 0.111 0.601H0.094Q0.094 0.612 0.088 0.612H0.086L0.091 0.604V0.601Q0.088 0.601 0.083 0.598Q0.083 0.604 0.077 0.604Q0.077 0.595 0.063 0.595L0.066 0.590H0.061V0.587L0.074 0.584L0.072 0.590V0.593H0.074Q0.088 0.585 0.088 0.582V0.579Q0.088 0.573 0.083 0.573H0.077Q0.069 0.573 0.055 0.582V0.576Q0.053 0.576 0.038 0.579L0.024 0.573Q0.024 0.576 0.022 0.582Q0.024 0.582 0.024 0.584H0.019L0.010 0.579Q0.008 0.579 -0.007 0.582H-0.010V0.579Q0.004 0.579 0.013 0.562L0.019 0.559L0.024 0.568Q0.022 0.568 0.022 0.570H0.027Q0.033 0.570 0.033 0.556H0.030V0.553H0.044V0.548H0.024V0.545H0.052Q0.052 0.538 0.066 0.536V0.533L0.063 0.528H0.066L0.074 0.533Q0.095 0.528 0.117 0.528Q0.134 0.533 0.145 0.533L0.164 0.528V0.522H0.156V0.519Q0.164 0.519 0.164 0.514V0.505Q0.164 0.503 0.162 0.503L0.164 0.497V0.489Q0.164 0.486 0.162 0.486L0.164 0.480V0.475Q0.164 0.472 0.162 0.472L0.164 0.467V0.379Q0.164 0.375 0.150 0.365Q0.150 0.371 0.145 0.371Q0.134 0.342 0.120 0.326Q0.123 0.321 0.123 0.314ZM0.055 0.317V0.326Q0.055 0.331 0.049 0.331V0.323Q0.051 0.317 0.055 0.317ZM0.103 0.317H0.105V0.323H0.103ZM0.044 0.326V0.337Q0.041 0.337 0.035 0.340V0.328Q0.039 0.328 0.044 0.326ZM0.088 0.326H0.091V0.340H0.088ZM0.605 0.326H0.617L0.608 0.348H0.611L0.605 0.363H0.608L0.605 0.368V0.382L0.608 0.388H0.605Q0.593 0.374 0.588 0.374L0.594 0.354H0.591L0.600 0.337H0.597Q0.601 0.326 0.605 0.326ZM0.883 0.328H0.886L0.880 0.340Q0.883 0.340 0.883 0.342Q0.869 0.348 0.861 0.348Q0.861 0.344 0.883 0.328ZM0.235 0.340H0.240V0.345H0.235ZM0.041 0.345H0.044V0.357H0.041ZM0.895 0.354V0.360Q0.867 0.375 0.867 0.388H0.841V0.385Q0.841 0.357 0.855 0.357Q0.880 0.354 0.895 0.354ZM0.055 0.360V0.368H0.049V0.365Q0.051 0.360 0.055 0.360ZM0.218 0.365 0.215 0.371V0.413Q0.215 0.418 0.224 0.418Q0.240 0.418 0.249 0.399H0.252V0.382H0.246V0.396H0.243Q0.243 0.385 0.218 0.365ZM0.044 0.365V0.371Q0.044 0.377 0.038 0.377H0.035V0.368Q0.039 0.368 0.044 0.365ZM0.802 0.365H0.808Q0.808 0.371 0.802 0.371ZM0.282 0.374H0.285V0.379H0.282ZM0.055 0.377V0.410H0.052L0.049 0.382Q0.051 0.377 0.055 0.377ZM0.134 0.377V0.382H0.128Q0.129 0.377 0.134 0.377ZM0.285 0.382H0.291V0.388Q0.285 0.388 0.285 0.382ZM0.760 0.382Q0.763 0.391 0.763 0.413Q0.750 0.418 0.721 0.441Q0.718 0.435 0.715 0.410Q0.733 0.396 0.760 0.382ZM0.591 0.385H0.594Q0.600 0.403 0.600 0.404Q0.593 0.427 0.572 0.427H0.569L0.560 0.421V0.424Q0.549 0.421 0.544 0.410Q0.555 0.404 0.560 0.404Q0.566 0.404 0.580 0.410Q0.580 0.407 0.583 0.407Q0.584 0.413 0.588 0.413H0.594L0.591 0.407H0.594L0.591 0.402ZM0.033 0.388H0.038Q0.039 0.403 0.047 0.418L0.044 0.432V0.475Q0.052 0.475 0.072 0.497H0.069L0.058 0.489L0.052 0.492Q0.052 0.487 0.044 0.483V0.486Q0.044 0.489 0.047 0.489L0.044 0.494V0.500L0.047 0.505L0.035 0.508Q0.035 0.507 0.019 0.492H0.022L0.033 0.497V0.467Q0.033 0.464 0.030 0.464Q0.035 0.449 0.035 0.413V0.393ZM0.235 0.388V0.390Q0.235 0.395 0.227 0.399H0.224Q0.224 0.395 0.235 0.388ZM0.839 0.396H0.864V0.418Q0.864 0.441 0.883 0.455Q0.892 0.454 0.903 0.432L0.900 0.427V0.416H0.903Q0.903 0.420 0.909 0.447Q0.906 0.447 0.906 0.449H0.909Q0.895 0.475 0.839 0.531V0.525L0.841 0.511H0.839Q0.820 0.519 0.768 0.565L0.765 0.593Q0.771 0.607 0.782 0.607Q0.811 0.588 0.811 0.573H0.814V0.579Q0.804 0.605 0.777 0.620Q0.754 0.627 0.754 0.632L0.749 0.646Q0.755 0.646 0.760 0.649Q0.787 0.649 0.814 0.607V0.612Q0.800 0.643 0.743 0.680Q0.735 0.688 0.681 0.773Q0.630 0.828 0.620 0.828Q0.623 0.837 0.637 0.837Q0.642 0.834 0.645 0.834Q0.634 0.852 0.577 0.865Q0.567 0.865 0.479 0.913Q0.328 0.966 0.282 0.966V0.980Q0.290 0.980 0.299 0.975V0.978L0.288 0.989L0.296 1.000L0.291 1.003H0.288Q0.288 0.994 0.282 0.994H0.277Q0.277 1.003 0.271 1.003H0.268V1.000L0.274 0.992V0.986Q0.260 0.986 0.260 0.980V0.978L0.274 0.980H0.277V0.966Q0.275 0.969 0.210 0.975V0.980L0.201 0.975Q0.199 0.975 0.164 0.978V0.932L0.159 0.935V0.929H0.164V0.877H0.167Q0.195 0.877 0.215 0.871V0.924Q0.224 0.924 0.224 0.921L0.235 0.924L0.274 0.918V0.910H0.268Q0.269 0.904 0.274 0.904H0.279L0.277 0.918Q0.307 0.912 0.314 0.907Q0.316 0.907 0.316 0.910Q0.449 0.874 0.522 0.837V0.834L0.513 0.817Q0.516 0.817 0.516 0.814Q0.513 0.814 0.513 0.812H0.516L0.513 0.806Q0.515 0.789 0.519 0.789Q0.516 0.773 0.513 0.773L0.522 0.730Q0.519 0.730 0.519 0.727Q0.523 0.727 0.535 0.691Q0.546 0.679 0.560 0.637L0.558 0.632V0.618L0.560 0.612Q0.558 0.612 0.558 0.609Q0.563 0.609 0.563 0.604H0.560L0.563 0.598Q0.563 0.576 0.538 0.548V0.545Q0.544 0.538 0.544 0.531Q0.559 0.542 0.572 0.565Q0.569 0.565 0.569 0.568L0.577 0.573Q0.577 0.568 0.605 0.533Q0.605 0.530 0.608 0.525H0.605Q0.611 0.512 0.611 0.492Q0.611 0.463 0.588 0.438H0.585V0.435Q0.605 0.421 0.605 0.407H0.608Q0.608 0.413 0.623 0.464H0.620L0.623 0.469Q0.623 0.472 0.620 0.472L0.623 0.486V0.489L0.620 0.503H0.625L0.617 0.514V0.522L0.623 0.531Q0.616 0.531 0.605 0.562H0.608L0.591 0.604Q0.594 0.604 0.594 0.607Q0.590 0.607 0.572 0.652Q0.577 0.660 0.577 0.666L0.591 0.663H0.594Q0.623 0.663 0.634 0.697V0.702H0.631L0.634 0.708Q0.631 0.713 0.631 0.716H0.623Q0.617 0.680 0.591 0.680Q0.568 0.680 0.538 0.719Q0.525 0.739 0.524 0.773V0.812Q0.524 0.814 0.527 0.814L0.524 0.820V0.825L0.527 0.831Q0.600 0.796 0.659 0.719L0.656 0.713Q0.672 0.713 0.695 0.649Q0.710 0.629 0.710 0.598V0.595L0.707 0.590Q0.710 0.590 0.710 0.587Q0.707 0.587 0.707 0.584Q0.710 0.584 0.710 0.582H0.707Q0.710 0.548 0.718 0.536Q0.692 0.530 0.692 0.519H0.687V0.531H0.684Q0.684 0.522 0.675 0.511L0.678 0.505L0.707 0.522V0.519L0.721 0.525V0.500L0.715 0.503L0.710 0.500V0.511Q0.718 0.511 0.718 0.517H0.712Q0.681 0.502 0.681 0.497L0.687 0.494L0.701 0.497L0.698 0.492Q0.704 0.489 0.707 0.489L0.721 0.497V0.452Q0.745 0.428 0.768 0.421V0.424Q0.773 0.492 0.777 0.492Q0.771 0.513 0.771 0.545H0.779Q0.836 0.510 0.836 0.467Q0.839 0.467 0.839 0.464H0.836L0.839 0.458ZM0.535 0.416Q0.539 0.416 0.547 0.427Q0.537 0.427 0.522 0.452Q0.516 0.455 0.513 0.455L0.522 0.435H0.519Q0.519 0.429 0.535 0.416ZM0.117 0.424H0.123V0.427Q0.123 0.429 0.120 0.429L0.123 0.435V0.458H0.117ZM0.086 0.429H0.088Q0.097 0.452 0.097 0.458Q0.094 0.464 0.094 0.467H0.091Q0.091 0.455 0.086 0.432ZM0.150 0.429H0.153V0.432Q0.148 0.455 0.148 0.469H0.145Q0.145 0.467 0.142 0.452Q0.150 0.436 0.150 0.429ZM0.058 0.444H0.061V0.449H0.058ZM0.061 0.449Q0.064 0.449 0.074 0.467Q0.072 0.472 0.072 0.475H0.069Q0.069 0.470 0.061 0.449ZM0.274 0.464H0.277V0.469H0.274ZM0.667 0.464H0.670L0.664 0.478Q0.667 0.478 0.673 0.480Q0.673 0.475 0.692 0.469Q0.692 0.472 0.675 0.489Q0.673 0.486 0.653 0.486Q0.663 0.464 0.667 0.464ZM0.100 0.467H0.103V0.472H0.100ZM0.117 0.467H0.123V0.469H0.117ZM0.114 0.469H0.117V0.492H0.114ZM0.123 0.469H0.125V0.494H0.123ZM0.698 0.472H0.707V0.475Q0.707 0.479 0.695 0.486L0.692 0.480Q0.698 0.480 0.698 0.472ZM0.094 0.475H0.097V0.486H0.094ZM0.103 0.475H0.105V0.480H0.103ZM0.142 0.475H0.145V0.486H0.142ZM0.432 0.478H0.440V0.480H0.432ZM0.105 0.480H0.108V0.489H0.105ZM0.364 0.480H0.380V0.483Q0.366 0.483 0.355 0.486Q0.355 0.480 0.364 0.480ZM0.074 0.483H0.077V0.489H0.074ZM0.131 0.483H0.134V0.489H0.131ZM0.325 0.486H0.330Q0.330 0.492 0.325 0.492ZM0.392 0.486H0.397V0.489H0.392ZM0.779 0.486H0.785V0.489H0.779ZM0.013 0.489H0.019V0.492H0.013ZM0.159 0.489H0.162V0.494H0.159ZM0.221 0.489H0.227V0.492H0.221ZM0.639 0.489H0.642Q0.639 0.494 0.639 0.497H0.631Q0.631 0.493 0.639 0.489ZM0.097 0.492H0.100V0.505Q0.094 0.505 0.094 0.500Q0.097 0.495 0.097 0.492ZM0.108 0.492H0.114V0.505H0.111ZM0.131 0.492V0.494Q0.128 0.499 0.128 0.505H0.125V0.494ZM0.139 0.492H0.142L0.145 0.503L0.139 0.505ZM0.322 0.494 0.328 0.497Q0.342 0.494 0.344 0.494H0.347V0.497Q0.339 0.497 0.328 0.503V0.500Q0.299 0.522 0.285 0.522Q0.285 0.511 0.279 0.511Q0.293 0.499 0.322 0.494ZM0.650 0.494H0.656V0.497H0.650ZM0.058 0.497H0.063V0.503Q0.058 0.503 0.058 0.497ZM0.083 0.500H0.086L0.088 0.514L0.080 0.508Q0.083 0.503 0.083 0.500ZM0.662 0.500Q0.667 0.503 0.670 0.503V0.505H0.650V0.503Q0.657 0.503 0.662 0.500ZM0.153 0.503Q0.159 0.504 0.159 0.508L0.150 0.514V0.511Q0.153 0.506 0.153 0.503ZM0.047 0.505H0.052V0.508H0.047ZM0.355 0.505H0.361V0.508H0.355ZM0.470 0.505Q0.507 0.505 0.507 0.514Q0.496 0.516 0.496 0.522Q0.473 0.521 0.473 0.517Q0.431 0.517 0.395 0.553Q0.382 0.566 0.369 0.601L0.364 0.604Q0.373 0.556 0.409 0.528Q0.441 0.505 0.470 0.505ZM0.052 0.508H0.058V0.511H0.052ZM0.383 0.508Q0.389 0.511 0.395 0.511V0.514H0.380ZM0.058 0.511H0.063V0.514H0.058ZM0.662 0.511H0.664V0.519L0.659 0.517L0.639 0.519Q0.641 0.511 0.662 0.511ZM0.074 0.514 0.080 0.522H0.077Q0.072 0.519 0.069 0.519Q0.070 0.514 0.074 0.514ZM0.519 0.514V0.517Q0.519 0.521 0.510 0.525H0.504Q0.504 0.522 0.519 0.514ZM-0.001 0.517H0.004Q0.027 0.522 0.038 0.522V0.525Q0.033 0.525 0.033 0.531L-0.001 0.519ZM0.049 0.517H0.055V0.519H0.049ZM0.358 0.519 0.355 0.525Q0.358 0.530 0.358 0.536Q0.355 0.536 0.350 0.539L0.339 0.525ZM0.530 0.519Q0.535 0.521 0.535 0.525V0.528Q0.524 0.530 0.524 0.536Q0.519 0.533 0.516 0.533Q0.516 0.530 0.530 0.519ZM0.670 0.519H0.673Q0.677 0.520 0.684 0.533V0.542L0.673 0.545L0.675 0.539V0.531L0.670 0.522ZM0.628 0.522V0.528H0.623Q0.623 0.522 0.628 0.522ZM0.038 0.525H0.047V0.528H0.038ZM0.049 0.528H0.058V0.531H0.049ZM0.033 0.531H0.038V0.533H0.033ZM0.047 0.536H0.052V0.539H0.047ZM-0.010 0.545Q0.024 0.547 0.024 0.553H0.022Q-0.004 0.551 -0.010 0.551ZM0.215 0.553V0.562H0.227Q0.241 0.562 0.243 0.553V0.551ZM0.591 0.556Q0.591 0.560 0.577 0.579V0.590L0.580 0.595Q0.577 0.595 0.577 0.598L0.583 0.601H0.585Q0.585 0.598 0.588 0.593H0.585L0.594 0.573H0.591Q0.597 0.564 0.597 0.556ZM0.279 0.559H0.285V0.562H0.279ZM0.291 0.562H0.299V0.565H0.291ZM0.308 0.565H0.319V0.568H0.308ZM0.814 0.568H0.816V0.573H0.814ZM0.282 0.573Q0.288 0.574 0.288 0.579L0.282 0.582H0.279Q0.282 0.576 0.282 0.573ZM0.249 0.582H0.265V0.587L0.252 0.590Q0.252 0.587 0.249 0.582ZM0.322 0.582V0.587H0.314V0.584Q0.316 0.584 0.322 0.582ZM0.044 0.584H0.049V0.587H0.044ZM0.055 0.590H0.061Q0.061 0.595 0.055 0.595ZM0.047 0.593H0.052V0.595H0.047ZM0.027 0.595Q0.032 0.598 0.035 0.598V0.601L0.007 0.609H0.004V0.607Q0.011 0.607 0.027 0.595ZM0.038 0.595H0.044V0.598H0.038ZM0.145 0.601H0.148Q0.148 0.609 0.153 0.609Q0.150 0.615 0.150 0.618H0.148L0.145 0.604ZM0.814 0.601H0.816V0.607H0.814ZM0.061 0.607H0.066V0.609H0.061ZM0.108 0.607V0.629H0.105Q0.105 0.618 0.100 0.618Q0.104 0.607 0.108 0.607ZM0.131 0.607Q0.135 0.607 0.139 0.618H0.134ZM0.117 0.612H0.123V0.620H0.117ZM0.041 0.615Q0.046 0.618 0.049 0.618V0.620Q0.044 0.620 0.030 0.632H0.027ZM0.088 0.615H0.091V0.620H0.088ZM0.066 0.618H0.069V0.623H0.066ZM0.086 0.623H0.088V0.629H0.086ZM0.123 0.623H0.125V0.632H0.123ZM0.150 0.623H0.153V0.629H0.150ZM0.114 0.626H0.117V0.632H0.114ZM0.058 0.632H0.061Q0.061 0.635 0.063 0.640Q0.062 0.640 0.047 0.658V0.655Q0.058 0.637 0.058 0.632ZM0.083 0.632H0.086V0.637H0.083ZM0.091 0.632H0.094V0.637H0.091ZM0.153 0.632H0.156V0.637H0.153ZM0.088 0.637H0.091V0.643H0.088ZM0.111 0.637H0.114V0.646H0.111ZM0.125 0.637H0.128V0.646H0.125ZM0.134 0.640H0.137V0.685H0.134Q0.134 0.671 0.128 0.652L0.134 0.655ZM0.080 0.643 0.086 0.646Q0.086 0.643 0.088 0.643V0.646Q0.077 0.666 0.077 0.672H0.074V0.666Q0.080 0.648 0.080 0.643ZM0.103 0.649H0.105V0.655L0.111 0.652Q0.105 0.674 0.105 0.685H0.103ZM0.072 0.672H0.074V0.677H0.072ZM0.215 0.688V0.691Q0.215 0.697 0.164 0.713V0.705Q0.166 0.705 0.215 0.688ZM0.215 0.705V0.713L0.164 0.730V0.722ZM0.215 0.722V0.727Q0.180 0.750 0.156 0.750Q0.156 0.739 0.215 0.722ZM0.150 0.727Q0.155 0.730 0.162 0.730V0.733H0.148ZM0.246 0.736Q0.246 0.741 0.252 0.741V0.744Q0.227 0.756 0.224 0.756L0.221 0.750Q0.226 0.750 0.246 0.736ZM0.207 0.741H0.212V0.744H0.207ZM0.111 0.744V0.750H0.105Q0.106 0.744 0.111 0.744ZM0.086 0.747H0.091Q0.097 0.748 0.097 0.753L0.091 0.756ZM0.192 0.747H0.198V0.750H0.192ZM0.187 0.750H0.192V0.753H0.187ZM0.215 0.750V0.762L0.207 0.773Q0.212 0.775 0.215 0.775V0.784Q0.185 0.792 0.164 0.792Q0.164 0.784 0.162 0.784Q0.162 0.768 0.207 0.756Q0.207 0.753 0.215 0.750ZM0.178 0.753H0.187V0.756H0.178ZM0.173 0.756H0.178V0.759H0.173ZM0.108 0.759Q0.108 0.764 0.120 0.764Q0.120 0.770 0.114 0.770Q0.109 0.767 0.103 0.767Q0.103 0.775 0.097 0.775Q0.097 0.767 0.094 0.767L0.083 0.773V0.770Q0.083 0.764 0.108 0.759ZM0.164 0.759H0.173V0.762H0.164ZM0.715 0.759V0.764Q0.697 0.798 0.681 0.803V0.800Q0.701 0.759 0.715 0.759ZM0.296 0.767Q0.296 0.778 0.302 0.778Q0.311 0.773 0.316 0.773V0.775L0.308 0.787Q0.308 0.792 0.316 0.792V0.798H0.314Q0.310 0.795 0.299 0.795Q0.299 0.806 0.293 0.806H0.291L0.293 0.792V0.789H0.279V0.784H0.293L0.291 0.770ZM0.224 0.778H0.229V0.781H0.224ZM0.227 0.789H0.235V0.792H0.227ZM0.123 0.792H0.128V0.795H0.123ZM0.218 0.792 0.215 0.798V0.842H0.164V0.800H0.167Q0.186 0.800 0.218 0.792ZM0.224 0.795H0.227V0.800H0.224ZM0.055 0.800H0.061V0.814H0.072V0.820H0.063Q0.063 0.828 0.069 0.837H0.061L0.058 0.825H0.055Q0.049 0.825 0.049 0.834H0.041L0.049 0.823L0.035 0.812L0.041 0.809Q0.045 0.812 0.055 0.812ZM0.120 0.803H0.128V0.806H0.120ZM0.137 0.803H0.145V0.806H0.137ZM0.131 0.806H0.134V0.814H0.131ZM0.257 0.809H0.260V0.814L0.268 0.809H0.271Q0.260 0.822 0.260 0.828H0.257Q0.257 0.820 0.249 0.820V0.817Q0.257 0.817 0.257 0.809ZM0.148 0.825H0.153V0.828H0.148ZM0.091 0.834H0.097V0.837H0.091ZM0.100 0.834Q0.105 0.837 0.111 0.837V0.840H0.097ZM0.333 0.834H0.336L0.333 0.840V0.848H0.344L0.350 0.845V0.854H0.336Q0.336 0.862 0.342 0.871H0.339L0.328 0.860H0.325Q0.325 0.861 0.319 0.871Q0.314 0.871 0.314 0.865Q0.314 0.860 0.322 0.860V0.851L0.311 0.848V0.842Q0.318 0.842 0.328 0.848Q0.328 0.834 0.333 0.834ZM0.128 0.851H0.134V0.854H0.128ZM0.164 0.851H0.215V0.860Q0.215 0.868 0.164 0.868V0.865Q0.164 0.863 0.167 0.863L0.164 0.857ZM0.271 0.857H0.274L0.288 0.860Q0.288 0.857 0.291 0.857V0.863Q0.282 0.863 0.271 0.871V0.868L0.277 0.860H0.271ZM0.058 0.877H0.061V0.879Q0.051 0.896 0.035 0.896H0.030V0.893Q0.037 0.893 0.058 0.877ZM0.125 0.879H0.131V0.885H0.125ZM0.100 0.885 0.103 0.890H0.100L0.083 0.888V0.885ZM0.091 0.890H0.094V0.899H0.091ZM0.243 0.893H0.246V0.899H0.243ZM0.052 0.896H0.058Q0.063 0.897 0.063 0.902V0.904H0.061Q0.056 0.904 0.052 0.896ZM0.527 0.902Q0.538 0.902 0.538 0.921Q0.533 0.924 0.530 0.924V0.921L0.533 0.915Q0.527 0.915 0.527 0.910ZM0.038 0.907H0.044V0.910H0.038ZM0.263 0.910H0.268V0.913H0.263ZM0.279 0.910H0.288V0.913H0.279ZM0.114 0.918H0.117V0.924H0.114ZM0.114 0.924Q0.114 0.929 0.125 0.929V0.932L0.105 0.935Q0.110 0.924 0.114 0.924ZM0.100 0.935H0.105V0.938H0.100ZM0.077 0.941H0.080L0.077 0.955V0.958H0.091V0.964H0.077V0.972L0.080 0.978L0.074 0.980L0.072 0.966H0.069L0.055 0.975L0.052 0.969Q0.059 0.964 0.063 0.964V0.961L0.055 0.949V0.947H0.058L0.066 0.952H0.072Q0.072 0.941 0.077 0.941ZM0.153 0.955H0.159V0.958H0.153ZM0.137 0.958H0.145V0.961H0.137ZM0.150 0.958H0.153V0.966L0.148 0.964V0.969H0.145V0.961ZM0.153 0.966H0.159V0.969H0.153ZM0.120 0.986H0.128V0.992H0.125Q0.120 0.992 0.120 0.986ZM0.142 0.994Q0.148 0.995 0.148 1.000Q0.143 1.000 0.137 1.005L0.134 1.000ZM0.224 0.997Q0.224 1.000 0.227 1.000Q0.221 1.009 0.221 1.017H0.235V1.022H0.232L0.218 1.019L0.221 1.033V1.036H0.215L0.212 1.022H0.210L0.201 1.028Q0.195 1.028 0.195 1.022L0.207 1.019V1.014Q0.207 1.008 0.198 1.008V1.005Q0.199 1.000 0.204 1.000Q0.204 1.004 0.212 1.008ZM0.108 1.000Q0.123 1.004 0.123 1.008H0.117Q0.111 1.005 0.108 1.005ZM0.123 1.008H0.125Q0.125 1.014 0.128 1.014Q0.124 1.025 0.120 1.025H0.117V1.022Q0.123 1.013 0.123 1.008Z" fill="black"/>
</svg>
