<svg xmlns="http://www.w3.org/2000/svg" viewBox="0 0 1 1" preserveAspectRatio="xMidYMid meet">
  <path d="M0.275 -0.091Q0.348 -0.031 0.354 -0.031L0.433 -0.077H0.435Q0.399 0.001 0.396 0.013L0.402 0.016V0.010H0.405Q0.405 0.020 0.427 0.036V0.039Q0.433 0.039 0.433 0.036L0.452 0.039H0.539V0.042L0.500 0.106H0.497L0.488 0.100Q0.482 0.100 0.480 0.120L0.474 0.117H0.469V0.123H0.474V0.126H0.469V0.129L0.472 0.134L0.455 0.143H0.441V0.140L0.455 0.123V0.114Q0.455 0.100 0.446 0.098Q0.446 0.109 0.396 0.112Q0.402 0.100 0.402 0.092Q0.396 0.075 0.390 0.075Q0.327 0.103 0.326 0.117Q0.326 0.123 0.320 0.123H0.317Q0.306 0.099 0.298 0.067Q0.288 0.067 0.283 0.064V0.070H0.298V0.073Q0.286 0.073 0.286 0.087L0.277 0.081H0.275V0.087H0.269L0.272 0.073Q0.266 0.073 0.266 0.067H0.277V0.064Q0.237 0.059 0.233 0.059Q0.233 0.064 0.244 0.064V0.067Q0.233 0.067 0.233 0.081Q0.225 0.073 0.216 0.073L0.219 0.067L0.224 0.070H0.230V0.059H0.219Q0.219 0.056 0.205 0.056V0.053Q0.210 0.053 0.289 0.008ZM0.286 -0.071V-0.068Q0.295 -0.006 0.301 0.008Q0.240 0.039 0.233 0.050Q0.276 0.056 0.280 0.059V0.056Q0.303 0.060 0.312 0.070H0.315Q0.320 0.067 0.323 0.067L0.320 0.061H0.326V0.059L0.323 0.053Q0.326 0.053 0.326 0.050Q0.320 0.050 0.320 0.045Q0.323 0.045 0.323 0.042L0.317 0.045L0.309 0.039H0.306V0.045H0.301Q0.301 0.033 0.286 0.033V0.030Q0.309 0.023 0.309 0.013L0.315 0.016L0.317 0.010L0.312 -0.026H0.315Q0.318 -0.026 0.323 -0.018L0.328 -0.020Q0.333 -0.018 0.340 -0.018V-0.012H0.337L0.331 -0.015V-0.012Q0.341 -0.004 0.345 -0.004Q0.376 -0.020 0.379 -0.020V-0.018Q0.367 0.013 0.367 0.016Q0.379 0.027 0.396 0.027V0.022L0.390 0.013Q0.390 0.010 0.419 -0.059H0.416Q0.355 -0.023 0.348 -0.023Q0.347 -0.027 0.289 -0.071ZM0.337 -0.026H0.342V-0.023H0.337ZM0.466 0.005Q0.471 0.008 0.474 0.008V0.016H0.463L0.460 0.010Q0.466 0.010 0.466 0.005ZM0.638 0.010H0.641Q0.621 0.036 0.621 0.039H0.644V0.045Q0.644 0.087 0.627 0.087Q0.611 0.087 0.548 0.098V0.095Q0.567 0.040 0.567 0.039H0.613ZM0.427 0.016H0.430V0.022H0.427ZM0.444 0.016H0.446V0.022H0.444ZM0.354 0.042V0.045L0.362 0.050V0.045Q0.359 0.045 0.354 0.042ZM0.548 0.039H0.559Q0.532 0.119 0.514 0.129V0.132H0.512V0.123Q0.506 0.123 0.497 0.146Q0.494 0.146 0.494 0.149Q0.494 0.179 0.514 0.179V0.177Q0.526 0.166 0.526 0.157Q0.519 0.157 0.517 0.143L0.523 0.140Q0.523 0.144 0.531 0.157Q0.531 0.185 0.497 0.207V0.210L0.491 0.207H0.488L0.483 0.210Q0.483 0.192 0.474 0.191Q0.465 0.196 0.458 0.196H0.444Q0.438 0.196 0.438 0.191L0.452 0.193H0.458V0.191Q0.455 0.182 0.452 0.182Q0.455 0.177 0.455 0.174H0.466V0.182H0.469Q0.477 0.182 0.486 0.149Q0.483 0.149 0.483 0.146Q0.489 0.146 0.497 0.134V0.132H0.491L0.494 0.126Q0.488 0.126 0.488 0.120V0.114L0.500 0.123H0.503Q0.503 0.117 0.548 0.045ZM0.652 0.039H0.683Q0.660 0.082 0.660 0.087H0.646Q0.652 0.054 0.652 0.042ZM0.691 0.039H0.697Q0.700 0.039 0.717 0.081H0.720Q0.724 0.081 0.734 0.039H0.824Q0.809 0.062 0.809 0.067L0.815 0.070Q0.815 0.068 0.843 0.039H0.849V0.087H0.669Q0.691 0.044 0.691 0.039ZM0.711 0.039H0.723L0.720 0.064H0.717ZM0.469 0.087 0.466 0.098H0.480Q0.480 0.089 0.488 0.089H0.491V0.087ZM0.494 0.092V0.095H0.503Q0.503 0.092 0.506 0.087H0.500Q0.494 0.088 0.494 0.092ZM0.390 0.087Q0.390 0.090 0.393 0.095Q0.393 0.107 0.362 0.134Q0.362 0.141 0.323 0.152V0.154Q0.315 0.152 0.312 0.143Q0.315 0.143 0.351 0.100Q0.364 0.100 0.390 0.087ZM0.266 0.100Q0.277 0.106 0.277 0.117H0.263L0.269 0.109Q0.266 0.103 0.266 0.100ZM0.222 0.106H0.224Q0.224 0.117 0.236 0.117L0.230 0.126V0.129L0.233 0.134H0.230Q0.224 0.134 0.224 0.129L0.219 0.132H0.216Q0.216 0.125 0.210 0.117Q0.222 0.117 0.222 0.106ZM0.283 0.106 0.298 0.109V0.112H0.283ZM0.320 0.109V0.114H0.323V0.109ZM0.472 0.109V0.114H0.477V0.109ZM0.446 0.112V0.114Q0.446 0.126 0.430 0.137V0.140Q0.430 0.150 0.460 0.154V0.157L0.441 0.160H0.410Q0.353 0.160 0.334 0.168V0.163Q0.369 0.149 0.407 0.140V0.137Q0.405 0.134 0.384 0.134Q0.384 0.117 0.444 0.114Q0.444 0.112 0.446 0.112ZM0.295 0.123H0.306Q0.312 0.124 0.312 0.129V0.134Q0.312 0.140 0.306 0.140H0.303Q0.303 0.137 0.301 0.132Q0.303 0.132 0.303 0.129Q0.298 0.126 0.295 0.126ZM0.545 0.123H0.551V0.134Q0.539 0.134 0.539 0.143Q0.534 0.143 0.534 0.137V0.134L0.548 0.132V0.129ZM0.480 0.134Q0.486 0.137 0.488 0.137V0.140Q0.483 0.140 0.483 0.146Q0.477 0.146 0.477 0.140ZM0.506 0.134H0.512V0.140Q0.506 0.140 0.506 0.134ZM0.283 0.137Q0.290 0.143 0.295 0.143Q0.300 0.140 0.303 0.140V0.146Q0.298 0.146 0.298 0.149Q0.298 0.157 0.306 0.157Q0.306 0.163 0.301 0.163Q0.301 0.157 0.295 0.157Q0.295 0.161 0.286 0.166Q0.286 0.154 0.280 0.154Q0.283 0.150 0.283 0.137ZM0.567 0.146H0.578V0.149Q0.566 0.149 0.559 0.154V0.152Q0.559 0.146 0.567 0.146ZM0.309 0.152H0.315V0.154H0.309ZM0.584 0.157Q0.590 0.157 0.592 0.182Q0.578 0.191 0.570 0.191Q0.584 0.179 0.584 0.157ZM0.548 0.174 0.556 0.179Q0.553 0.185 0.553 0.188H0.548Q0.542 0.188 0.542 0.182V0.179Q0.543 0.174 0.548 0.174ZM0.365 0.177H0.441V0.182H0.435V0.185L0.438 0.191L0.433 0.193L0.405 0.191L0.402 0.196Q0.421 0.213 0.421 0.233Q0.421 0.245 0.405 0.253Q0.405 0.230 0.382 0.218V0.207H0.384L0.407 0.218L0.410 0.213Q0.390 0.194 0.359 0.182H0.356L0.348 0.188Q0.348 0.185 0.345 0.179ZM0.269 0.188H0.280Q0.275 0.195 0.275 0.202H0.266ZM0.252 0.191H0.261V0.193H0.252ZM0.562 0.191H0.570V0.193H0.562ZM0.419 0.199Q0.429 0.205 0.449 0.205H0.460L0.474 0.202V0.210Q0.466 0.210 0.466 0.218V0.221H0.455Q0.455 0.213 0.449 0.213H0.433V0.250L0.446 0.247V0.241L0.441 0.233H0.446Q0.452 0.233 0.452 0.241Q0.451 0.253 0.433 0.253V0.317Q0.433 0.320 0.435 0.320L0.433 0.325V0.334Q0.433 0.337 0.435 0.337L0.433 0.342V0.363Q0.433 0.365 0.435 0.365L0.433 0.371V0.379Q0.444 0.390 0.444 0.399H0.452V0.402Q0.446 0.402 0.446 0.410H0.444Q0.444 0.399 0.438 0.399Q0.433 0.400 0.433 0.404V0.413Q0.433 0.419 0.435 0.424Q0.433 0.429 0.433 0.435V0.447L0.435 0.452Q0.433 0.452 0.433 0.455H0.441V0.449L0.438 0.444H0.444V0.435L0.441 0.421Q0.455 0.421 0.455 0.407H0.458V0.418Q0.458 0.424 0.449 0.424V0.429Q0.455 0.429 0.455 0.432Q0.469 0.432 0.469 0.410H0.472Q0.472 0.418 0.474 0.418Q0.474 0.433 0.449 0.438V0.444Q0.452 0.449 0.452 0.452Q0.450 0.452 0.433 0.483V0.486H0.469Q0.469 0.461 0.491 0.441V0.438H0.486V0.435H0.491V0.424L0.488 0.404Q0.496 0.410 0.500 0.410Q0.494 0.419 0.494 0.427V0.438H0.497Q0.504 0.432 0.509 0.432L0.506 0.421V0.413H0.509Q0.509 0.431 0.517 0.432L0.528 0.424Q0.528 0.438 0.534 0.438L0.531 0.452H0.545V0.455Q0.534 0.455 0.534 0.469H0.539V0.472H0.531V0.481H0.537L0.534 0.486H0.539V0.481H0.542V0.486H0.548Q0.551 0.486 0.551 0.483L0.556 0.486H0.598Q0.586 0.534 0.578 0.534H0.469Q0.442 0.525 0.427 0.525Q0.397 0.525 0.362 0.548Q0.359 0.548 0.359 0.553H0.348L0.351 0.548L0.348 0.542Q0.357 0.542 0.362 0.531Q0.373 0.528 0.382 0.528V0.506L0.367 0.508H0.356Q0.341 0.508 0.334 0.489Q0.328 0.489 0.326 0.472V0.469H0.328Q0.328 0.487 0.362 0.495H0.382V0.478Q0.373 0.483 0.365 0.483Q0.350 0.483 0.342 0.472V0.469L0.351 0.475Q0.382 0.475 0.382 0.467V0.413H0.370V0.410H0.382V0.399H0.379Q0.347 0.399 0.334 0.438H0.331V0.424L0.356 0.390H0.376L0.382 0.393V0.227Q0.388 0.227 0.402 0.261H0.407Q0.430 0.250 0.430 0.230Q0.430 0.217 0.419 0.202ZM0.348 0.205H0.351V0.210H0.348ZM0.565 0.205H0.573L0.592 0.216Q0.587 0.250 0.578 0.250H0.576L0.584 0.238V0.233Q0.579 0.207 0.565 0.207ZM0.542 0.210H0.551L0.556 0.213Q0.553 0.218 0.553 0.221H0.542ZM0.373 0.233V0.236Q0.339 0.323 0.320 0.354L0.306 0.357H0.303Q0.298 0.330 0.292 0.317L0.301 0.284H0.303Q0.303 0.309 0.317 0.309Q0.331 0.309 0.356 0.253ZM0.497 0.233H0.500V0.241H0.497ZM0.562 0.233H0.567Q0.562 0.240 0.562 0.247Q0.556 0.247 0.556 0.241V0.238Q0.557 0.233 0.562 0.233ZM0.483 0.241H0.486Q0.488 0.256 0.488 0.258Q0.460 0.264 0.460 0.270V0.272H0.466V0.275H0.458V0.267Q0.458 0.261 0.480 0.256V0.250L0.477 0.244ZM0.526 0.241Q0.531 0.242 0.531 0.247Q0.528 0.253 0.528 0.256Q0.551 0.261 0.551 0.267V0.275H0.542V0.272H0.548V0.270Q0.548 0.264 0.520 0.258L0.514 0.250Q0.518 0.250 0.526 0.241ZM0.562 0.247H0.565Q0.569 0.250 0.576 0.250V0.253H0.565ZM0.317 0.264H0.320V0.270H0.317ZM0.497 0.267V0.275L0.494 0.289H0.497L0.494 0.295V0.298Q0.494 0.303 0.506 0.303V0.306H0.497V0.314H0.503V0.317H0.488L0.491 0.311Q0.491 0.306 0.480 0.306V0.298H0.486V0.292H0.480L0.474 0.295V0.292Q0.474 0.285 0.497 0.267ZM0.512 0.267Q0.534 0.284 0.534 0.295Q0.522 0.295 0.512 0.275ZM0.548 0.289H0.551V0.295H0.548ZM0.463 0.295H0.466V0.300H0.463ZM0.512 0.298H0.514Q0.518 0.298 0.523 0.306Q0.517 0.306 0.517 0.317H0.512L0.514 0.303ZM0.573 0.306Q0.577 0.306 0.581 0.314H0.578Q0.573 0.314 0.573 0.309ZM0.556 0.311H0.570V0.314Q0.559 0.314 0.559 0.320H0.556ZM0.523 0.314V0.320H0.517Q0.517 0.314 0.523 0.314ZM0.483 0.323Q0.492 0.328 0.500 0.328V0.331Q0.495 0.331 0.483 0.337ZM0.559 0.323H0.562V0.328H0.559ZM0.578 0.323H0.581V0.337L0.576 0.334Q0.578 0.329 0.578 0.323ZM0.509 0.325H0.514V0.328H0.509ZM0.528 0.325H0.537V0.328H0.528ZM0.562 0.328H0.565V0.334H0.562ZM0.592 0.334Q0.598 0.337 0.604 0.337V0.340L0.592 0.342ZM0.444 0.337H0.446V0.345H0.444ZM0.480 0.340H0.483V0.348Q0.477 0.368 0.477 0.371L0.488 0.379Q0.486 0.383 0.486 0.396L0.480 0.393V0.402H0.477Q0.477 0.385 0.455 0.385V0.379Q0.474 0.379 0.474 0.354Q0.480 0.354 0.480 0.340ZM0.604 0.340Q0.610 0.340 0.610 0.345H0.604ZM0.528 0.342H0.534Q0.534 0.348 0.528 0.348ZM0.509 0.345H0.514V0.348H0.509ZM0.553 0.351H0.559Q0.559 0.355 0.565 0.363L0.553 0.365V0.374H0.559Q0.553 0.385 0.542 0.385H0.539V0.382Q0.552 0.382 0.553 0.351ZM0.576 0.351H0.584Q0.584 0.357 0.590 0.357V0.360H0.578L0.581 0.354H0.576ZM0.491 0.354H0.494Q0.500 0.354 0.500 0.360Q0.497 0.360 0.491 0.363ZM0.438 0.357H0.444V0.360H0.438ZM0.452 0.357H0.458V0.360H0.452ZM0.523 0.360V0.363Q0.523 0.368 0.509 0.371Q0.509 0.367 0.523 0.360ZM0.534 0.360H0.537Q0.537 0.366 0.539 0.371L0.534 0.374H0.531Q0.534 0.368 0.534 0.360ZM0.438 0.371H0.444V0.374H0.438ZM0.444 0.374H0.449V0.377H0.444ZM0.526 0.374H0.531V0.377H0.526ZM0.562 0.374H0.570V0.377H0.562ZM0.514 0.377H0.523V0.379H0.514ZM0.618 0.379V0.385H0.613Q0.613 0.379 0.618 0.379ZM0.598 0.382H0.610V0.385H0.598ZM0.494 0.385H0.500V0.390Q0.494 0.390 0.494 0.385ZM0.537 0.385H0.539Q0.538 0.402 0.523 0.402V0.396Q0.529 0.396 0.537 0.385ZM0.562 0.385H0.565V0.390H0.562ZM0.506 0.388Q0.512 0.389 0.512 0.393H0.506ZM0.512 0.393H0.514V0.399H0.512ZM0.548 0.393H0.551V0.399H0.548ZM0.576 0.393H0.578V0.407H0.576ZM0.595 0.393H0.598V0.399H0.595ZM0.562 0.396H0.567V0.399H0.562ZM0.598 0.399H0.601V0.407H0.598ZM0.452 0.402H0.455V0.407H0.452ZM0.587 0.404H0.590V0.410H0.587ZM0.601 0.407H0.604V0.416H0.601ZM0.559 0.410H0.570V0.413Q0.565 0.413 0.565 0.418H0.562Q0.562 0.415 0.559 0.410ZM0.526 0.413V0.421Q0.520 0.421 0.520 0.416ZM0.565 0.421H0.567V0.429H0.565ZM0.537 0.424H0.539V0.429H0.537ZM0.373 0.427H0.376Q0.376 0.430 0.379 0.435Q0.376 0.440 0.376 0.449H0.373ZM0.567 0.432H0.578V0.435H0.567ZM0.345 0.435H0.348Q0.348 0.453 0.354 0.461H0.351Q0.347 0.461 0.340 0.449V0.447Q0.345 0.440 0.345 0.435ZM0.512 0.438V0.444L0.506 0.441H0.503V0.447L0.517 0.449Q0.517 0.447 0.520 0.447V0.452Q0.526 0.452 0.526 0.447Q0.521 0.447 0.514 0.438ZM0.556 0.435V0.441Q0.553 0.441 0.548 0.444V0.438Q0.551 0.438 0.556 0.435ZM0.472 0.438H0.486Q0.486 0.442 0.477 0.447Q0.477 0.441 0.472 0.441ZM0.565 0.444Q0.566 0.444 0.581 0.447L0.592 0.444H0.595V0.447Q0.584 0.447 0.584 0.452L0.578 0.449L0.565 0.452ZM0.323 0.452H0.326V0.461H0.323ZM0.365 0.452H0.370V0.455H0.365ZM0.466 0.452H0.469V0.458H0.466ZM0.488 0.478Q0.488 0.469 0.483 0.469V0.486H0.486L0.509 0.469V0.472Q0.514 0.469 0.517 0.469V0.461L0.512 0.464V0.455Q0.491 0.455 0.491 0.478ZM0.433 0.461V0.467Q0.438 0.467 0.438 0.461ZM0.553 0.461H0.556V0.467H0.553ZM0.578 0.461H0.584V0.464H0.578ZM0.463 0.464H0.466Q0.466 0.469 0.460 0.469H0.458Q0.459 0.464 0.463 0.464ZM0.455 0.467V0.472H0.446V0.469Q0.450 0.469 0.455 0.467ZM0.587 0.467H0.592V0.472Q0.587 0.472 0.587 0.467ZM0.494 0.483V0.486H0.512V0.483ZM0.607 0.486H0.635Q0.618 0.534 0.610 0.534H0.592Q0.607 0.491 0.607 0.486ZM0.644 0.486H0.671V0.489Q0.665 0.526 0.655 0.534H0.624Q0.644 0.498 0.644 0.486ZM0.685 0.486H0.688L0.677 0.534H0.669V0.531Q0.681 0.486 0.685 0.486ZM0.697 0.486H0.739V0.534H0.685V0.531Q0.697 0.491 0.697 0.486ZM0.430 0.534H0.438Q0.444 0.535 0.444 0.539Q0.444 0.545 0.433 0.545V0.562L0.444 0.553H0.446Q0.446 0.571 0.396 0.582Q0.396 0.585 0.382 0.593Q0.382 0.581 0.370 0.579Q0.370 0.574 0.351 0.571Q0.351 0.564 0.365 0.562L0.362 0.568V0.571H0.365Q0.374 0.562 0.382 0.562V0.545Q0.410 0.534 0.430 0.534ZM0.458 0.539H0.460V0.548H0.458ZM0.509 0.548H0.517L0.528 0.551V0.553H0.520L0.509 0.551ZM0.373 0.551H0.379V0.553H0.373ZM0.379 0.565V0.571H0.382V0.565ZM0.098 0.571H0.101Q0.101 0.577 0.109 0.607V0.610H0.106Q0.098 0.582 0.098 0.576ZM0.430 0.582H0.433V0.613Q0.436 0.613 0.441 0.604V0.590Q0.449 0.590 0.449 0.582Q0.455 0.582 0.455 0.587L0.433 0.624V0.773Q0.499 0.762 0.509 0.762Q0.474 0.790 0.433 0.790V0.804H0.435Q0.451 0.804 0.497 0.790H0.500Q0.493 0.811 0.430 0.835Q0.430 0.818 0.373 0.807V0.804H0.376L0.382 0.807V0.793H0.367V0.790H0.382V0.785Q0.382 0.779 0.376 0.779H0.359V0.773L0.379 0.776H0.382V0.607Q0.404 0.582 0.430 0.582ZM0.109 0.610H0.112V0.618H0.109ZM0.112 0.618H0.115V0.624H0.112ZM0.115 0.624H0.118V0.629H0.115ZM0.118 0.629H0.120V0.635H0.118ZM0.120 0.635Q0.127 0.635 0.129 0.649Q0.122 0.649 0.120 0.635ZM0.129 0.649Q0.189 0.732 0.301 0.764Q0.312 0.764 0.312 0.770Q0.307 0.770 0.303 0.776Q0.292 0.776 0.216 0.736V0.742Q0.162 0.704 0.129 0.652ZM0.219 0.745H0.222Q0.227 0.746 0.227 0.750H0.224Q0.219 0.750 0.219 0.745ZM0.227 0.750H0.233V0.753H0.227ZM0.660 0.750 0.663 0.756V0.762H0.652L0.646 0.753ZM0.238 0.759H0.244V0.762H0.238ZM0.630 0.764Q0.630 0.769 0.635 0.776L0.624 0.782L0.618 0.773Q0.618 0.769 0.630 0.764ZM0.252 0.767H0.258V0.770H0.252ZM0.258 0.770H0.263V0.773H0.258ZM0.323 0.770H0.334L0.348 0.773V0.776H0.340L0.323 0.773ZM0.263 0.773H0.269V0.776H0.263ZM0.441 0.779H0.433V0.787Q0.460 0.785 0.460 0.779V0.776ZM0.269 0.776H0.275V0.779H0.269ZM0.306 0.776H0.312V0.779H0.306ZM0.677 0.776 0.683 0.785V0.787H0.669L0.666 0.782Q0.671 0.782 0.677 0.776ZM0.275 0.779H0.280Q0.326 0.795 0.326 0.798V0.801L0.275 0.782ZM0.312 0.779H0.317V0.782H0.312ZM0.331 0.785H0.345V0.787H0.331ZM0.592 0.785H0.595V0.798H0.592Q0.592 0.794 0.587 0.787ZM0.348 0.787H0.354V0.790H0.348ZM0.649 0.793Q0.649 0.797 0.655 0.804L0.644 0.810L0.638 0.801Q0.638 0.797 0.649 0.793ZM0.570 0.796Q0.570 0.800 0.576 0.807L0.567 0.812Q0.564 0.812 0.559 0.804V0.801Q0.564 0.801 0.570 0.796ZM0.337 0.798Q0.339 0.798 0.365 0.804V0.810H0.362Q0.358 0.810 0.337 0.804ZM0.697 0.804 0.702 0.815 0.691 0.821Q0.691 0.818 0.688 0.818Q0.692 0.804 0.697 0.804ZM0.441 0.812H0.433V0.826H0.435Q0.460 0.817 0.460 0.812V0.810ZM0.618 0.810 0.621 0.815H0.613Q0.613 0.810 0.618 0.810ZM0.503 0.812H0.514L0.512 0.818L0.506 0.815Q0.499 0.815 0.480 0.821V0.829Q0.483 0.829 0.483 0.826Q0.485 0.829 0.509 0.829Q0.506 0.834 0.506 0.840Q0.494 0.832 0.472 0.832L0.469 0.837V0.840Q0.469 0.847 0.494 0.849Q0.495 0.843 0.500 0.843H0.503Q0.497 0.864 0.497 0.871L0.491 0.868H0.486V0.874Q0.494 0.874 0.494 0.880V0.889H0.491Q0.481 0.886 0.460 0.863Q0.458 0.863 0.438 0.860V0.857H0.446L0.463 0.860V0.846H0.458V0.843Q0.462 0.843 0.477 0.818Q0.496 0.812 0.503 0.812ZM0.542 0.812Q0.542 0.816 0.548 0.824H0.542V0.832L0.545 0.837Q0.551 0.835 0.590 0.826Q0.590 0.831 0.630 0.840Q0.635 0.837 0.638 0.837Q0.638 0.846 0.660 0.846Q0.660 0.850 0.638 0.868Q0.638 0.892 0.581 0.928Q0.580 0.914 0.573 0.914H0.570V0.919L0.573 0.925L0.567 0.928H0.565Q0.561 0.928 0.556 0.919V0.916H0.565V0.914L0.562 0.908Q0.544 0.914 0.542 0.922V0.930H0.573V0.933Q0.556 0.933 0.556 0.970Q0.544 0.990 0.523 0.990V0.981H0.506L0.491 0.970L0.488 0.975Q0.494 0.976 0.494 0.981H0.491Q0.488 0.981 0.488 0.978L0.483 0.981H0.472Q0.466 0.981 0.466 0.975L0.460 0.978Q0.437 0.953 0.430 0.953Q0.425 0.953 0.419 0.944Q0.405 0.944 0.402 0.981H0.390Q0.390 0.970 0.396 0.953Q0.390 0.953 0.390 0.947Q0.416 0.932 0.416 0.928L0.382 0.880V0.837L0.433 0.908V0.928H0.430L0.424 0.925L0.421 0.930Q0.425 0.930 0.438 0.944Q0.438 0.942 0.441 0.942L0.435 0.930H0.449Q0.480 0.964 0.483 0.964L0.486 0.958Q0.482 0.958 0.474 0.947Q0.474 0.932 0.491 0.928Q0.491 0.914 0.497 0.914Q0.503 0.923 0.503 0.930Q0.512 0.930 0.517 0.928L0.534 0.930H0.537V0.914L0.545 0.903Q0.539 0.895 0.539 0.891Q0.524 0.891 0.506 0.914H0.503V0.897L0.506 0.868L0.520 0.871H0.523V0.868L0.517 0.860V0.857H0.526V0.851L0.512 0.849L0.514 0.832H0.526L0.531 0.835V0.832L0.520 0.818Q0.523 0.818 0.523 0.815Q0.528 0.818 0.531 0.818ZM0.317 0.821H0.326V0.824H0.317ZM0.669 0.824Q0.671 0.829 0.671 0.832L0.663 0.837L0.655 0.826Q0.659 0.824 0.669 0.824ZM0.328 0.824H0.340V0.826H0.328ZM0.387 0.826H0.390Q0.419 0.826 0.424 0.863L0.421 0.877H0.419Q0.416 0.871 0.387 0.826ZM0.351 0.829H0.373V0.832H0.351ZM0.373 0.832H0.382V0.835H0.373ZM0.717 0.832 0.723 0.843 0.711 0.849 0.702 0.837Q0.708 0.837 0.717 0.832ZM0.520 0.837V0.840Q0.531 0.853 0.531 0.860H0.537V0.840Q0.535 0.840 0.520 0.837ZM0.438 0.840H0.458V0.843H0.438ZM0.469 0.849V0.851Q0.469 0.863 0.494 0.866Q0.494 0.849 0.472 0.849ZM0.688 0.851 0.694 0.860 0.688 0.863Q0.688 0.860 0.685 0.860V0.863L0.691 0.883H0.694Q0.699 0.883 0.699 0.874Q0.706 0.880 0.711 0.880L0.717 0.877Q0.722 0.880 0.725 0.880L0.728 0.874L0.723 0.866Q0.726 0.866 0.734 0.860H0.736Q0.736 0.865 0.742 0.871Q0.734 0.871 0.734 0.877V0.880Q0.748 0.880 0.748 0.891H0.750L0.756 0.889Q0.756 0.908 0.792 0.908Q0.795 0.908 0.795 0.905Q0.804 0.911 0.809 0.911Q0.806 0.916 0.806 0.919Q0.786 0.911 0.784 0.911V0.916L0.770 0.914H0.764V0.919H0.759Q0.759 0.908 0.739 0.903L0.742 0.897V0.894H0.734V0.900H0.725Q0.702 0.900 0.697 0.925Q0.697 0.930 0.708 0.930V0.933Q0.701 0.933 0.685 0.950Q0.685 0.921 0.638 0.911Q0.630 0.911 0.613 0.916Q0.635 0.889 0.644 0.889Q0.653 0.894 0.660 0.894Q0.680 0.894 0.680 0.874Q0.673 0.857 0.663 0.857Q0.664 0.851 0.669 0.851H0.671Q0.674 0.851 0.674 0.854Q0.678 0.851 0.688 0.851ZM0.509 0.854H0.517V0.857H0.509ZM0.691 0.863H0.694V0.868H0.691ZM0.655 0.866Q0.659 0.866 0.663 0.874V0.877L0.649 0.880V0.877Q0.655 0.870 0.655 0.866ZM0.433 0.886H0.435L0.480 0.911H0.483V0.914Q0.473 0.914 0.466 0.919H0.458Q0.454 0.919 0.449 0.911Q0.452 0.906 0.452 0.900Q0.433 0.892 0.433 0.886ZM0.556 0.891V0.900H0.559Q0.565 0.900 0.565 0.894V0.891ZM0.491 0.897H0.494V0.905H0.491ZM0.382 0.900H0.387V0.903H0.382ZM0.725 0.905Q0.725 0.909 0.742 0.928H0.717L0.720 0.922V0.919L0.714 0.911V0.908ZM0.382 0.916H0.396Q0.400 0.916 0.405 0.925V0.930Q0.399 0.930 0.382 0.947ZM0.815 0.916H0.821V0.919H0.815ZM0.641 0.919Q0.673 0.919 0.680 0.967L0.677 0.981H0.660Q0.644 0.992 0.644 0.995V0.998H0.649Q0.649 1.004 0.644 1.004H0.641Q0.595 1.004 0.595 0.955Q0.595 0.925 0.641 0.919ZM0.506 0.922Q0.511 0.925 0.514 0.925V0.928H0.506ZM0.824 0.925H0.827L0.835 0.930H0.849V0.947Q0.849 0.950 0.852 0.950L0.849 0.955V0.964Q0.859 0.981 0.871 0.981V0.984H0.860Q0.852 0.981 0.852 0.978Q0.847 0.981 0.835 0.981V0.984Q0.860 0.993 0.868 0.993V0.995H0.863Q0.801 0.981 0.801 0.975V0.958Q0.804 0.930 0.827 0.930ZM0.517 0.930 0.514 0.936 0.531 0.944 0.534 0.939ZM0.460 0.930H0.469V0.939Q0.465 0.939 0.460 0.930ZM0.592 0.930H0.595V0.933Q0.587 0.948 0.587 0.961Q0.587 0.994 0.618 1.007V1.009Q0.607 1.010 0.607 1.029L0.610 1.040H0.607Q0.598 1.037 0.598 1.023Q0.598 1.022 0.601 1.007H0.592Q0.542 1.002 0.542 0.993Q0.560 0.993 0.567 0.950V0.942Q0.578 0.942 0.592 0.930ZM0.750 0.930H0.803Q0.792 0.946 0.792 0.955V0.975Q0.788 0.975 0.781 0.981H0.778V0.975Q0.778 0.951 0.750 0.930ZM0.725 0.936H0.728Q0.770 0.940 0.770 0.978V0.981Q0.764 0.981 0.764 0.984Q0.759 0.981 0.756 0.981Q0.751 0.981 0.739 0.987Q0.734 0.984 0.728 0.984L0.717 0.987V0.981H0.714Q0.711 0.981 0.711 0.984L0.685 0.978Q0.694 0.936 0.725 0.936ZM0.419 0.955Q0.419 0.961 0.438 0.964Q0.438 0.970 0.452 0.984Q0.448 0.984 0.441 0.990H0.438V0.981H0.410Q0.413 0.955 0.419 0.955ZM0.874 0.973H0.877V0.978H0.874ZM0.455 0.990Q0.455 1.009 0.488 1.018Q0.505 1.018 0.517 1.007L0.520 1.012Q0.501 1.023 0.483 1.023Q0.463 1.023 0.444 0.998ZM0.882 0.998H0.894V1.001H0.882ZM0.896 1.001H0.902V1.004H0.896ZM0.652 1.009H0.660L0.663 1.023V1.032H0.660Q0.660 1.015 0.652 1.015ZM0.539 1.012H0.551V1.018Q0.551 1.023 0.545 1.023L0.539 1.015ZM0.632 1.021Q0.646 1.024 0.646 1.029Q0.635 1.029 0.624 1.032V1.029Q0.624 1.025 0.632 1.021ZM0.649 1.046H0.655V1.048H0.649ZM0.624 1.051H0.644V1.054H0.624Z" fill="black"/>
</svg>
