<svg xmlns="http://www.w3.org/2000/svg" viewBox="0 0 1 1" preserveAspectRatio="xMidYMid meet">
  <path d="M0.223 -0.160Q0.228 -0.158 0.231 -0.158Q0.231 -0.131 0.245 -0.087Q0.232 -0.087 0.223 -0.152ZM0.248 -0.085Q0.248 -0.077 0.267 -0.045V-0.042Q0.262 -0.042 0.242 -0.082ZM0.321 -0.056H0.324Q0.324 -0.006 0.374 0.025H0.383Q0.383 0.036 0.389 0.036H0.470L0.476 0.085Q0.467 0.085 0.462 0.088L0.445 0.085H0.434V0.090H0.445V0.093H0.439V0.096Q0.469 0.118 0.470 0.127Q0.470 0.129 0.467 0.129L0.470 0.135V0.143Q0.470 0.154 0.451 0.181L0.445 0.178H0.439Q0.434 0.178 0.434 0.183H0.442V0.186Q0.436 0.186 0.431 0.189H0.423Q0.423 0.197 0.437 0.197V0.200H0.431V0.206Q0.439 0.206 0.439 0.211V0.214Q0.395 0.227 0.395 0.234V0.288L0.397 0.293L0.403 0.290H0.406L0.403 0.304Q0.406 0.304 0.406 0.307Q0.395 0.307 0.395 0.313V0.467Q0.409 0.478 0.409 0.484H0.414L0.417 0.470H0.420Q0.426 0.491 0.426 0.496H0.442Q0.448 0.496 0.448 0.490Q0.428 0.490 0.428 0.481V0.467Q0.428 0.463 0.442 0.459Q0.455 0.464 0.456 0.470V0.473Q0.451 0.493 0.451 0.496H0.459V0.501Q0.459 0.504 0.456 0.504Q0.456 0.525 0.476 0.546Q0.472 0.546 0.465 0.552Q0.460 0.549 0.453 0.549V0.546H0.465V0.544H0.448Q0.448 0.552 0.462 0.552V0.555H0.456V0.571L0.442 0.574H0.437L0.431 0.571Q0.431 0.574 0.428 0.574Q0.428 0.560 0.423 0.560Q0.423 0.556 0.437 0.544H0.423L0.437 0.527L0.409 0.496H0.417Q0.414 0.490 0.414 0.487Q0.409 0.487 0.409 0.496L0.392 0.481H0.389Q0.385 0.481 0.344 0.527Q0.388 0.574 0.400 0.574Q0.406 0.574 0.420 0.591Q0.426 0.585 0.426 0.580L0.431 0.583Q0.436 0.580 0.439 0.580Q0.439 0.585 0.428 0.585V0.588L0.437 0.600Q0.432 0.600 0.428 0.608L0.431 0.614Q0.427 0.627 0.397 0.653Q0.397 0.648 0.392 0.648H0.389L0.344 0.690V0.659Q0.344 0.656 0.341 0.656L0.344 0.651V0.637Q0.344 0.634 0.341 0.634Q0.344 0.620 0.352 0.611V0.608L0.344 0.597V0.555Q0.344 0.551 0.327 0.541Q0.327 0.521 0.344 0.521V0.504L0.327 0.513Q0.327 0.510 0.324 0.510Q0.324 0.513 0.321 0.513L0.310 0.493V0.490L0.316 0.493Q0.321 0.480 0.327 0.478H0.341V0.484H0.344V0.245Q0.344 0.232 0.288 0.228V0.225L0.316 0.183Q0.310 0.151 0.310 0.135H0.313Q0.317 0.135 0.344 0.143V0.132Q0.344 0.127 0.338 0.127H0.299V0.124H0.344V0.115Q0.330 0.115 0.330 0.110Q0.330 0.104 0.344 0.104V0.101Q0.344 0.099 0.341 0.099L0.344 0.093V0.088L0.338 0.090H0.299L0.285 0.088L0.282 0.093H0.290V0.096Q0.276 0.096 0.276 0.107H0.273Q0.273 0.099 0.259 0.099V0.096H0.264V0.090H0.251Q0.248 0.090 0.248 0.088L0.242 0.090H0.184Q0.178 0.090 0.178 0.085V0.082H0.313V0.071H0.321V0.082H0.330Q0.330 0.076 0.344 0.076V0.071Q0.344 0.068 0.341 0.068L0.344 0.062V0.036H0.358Q0.363 0.036 0.363 0.031Q0.321 -0.009 0.321 -0.039ZM0.242 -0.042H0.245V-0.036H0.242ZM0.273 -0.033Q0.279 -0.033 0.279 -0.028H0.273ZM0.290 0.008H0.293Q0.299 0.010 0.299 0.014H0.296Q0.290 0.014 0.290 0.008ZM0.374 0.011H0.377V0.020H0.374ZM0.276 0.020H0.279L0.324 0.042V0.045H0.319Q0.277 0.027 0.276 0.020ZM0.479 0.036H0.487V0.039Q0.487 0.054 0.496 0.085H0.490Q0.483 0.085 0.479 0.036ZM0.496 0.036H0.533V0.045Q0.530 0.085 0.521 0.085H0.504Q0.496 0.053 0.496 0.036ZM0.541 0.036H0.574Q0.583 0.036 0.583 0.082L0.577 0.085H0.535Q0.541 0.059 0.541 0.048ZM0.588 0.036H0.597Q0.605 0.036 0.614 0.085H0.588L0.591 0.079Q0.591 0.065 0.588 0.036ZM0.611 0.036H0.640Q0.648 0.036 0.665 0.085H0.623Q0.623 0.079 0.611 0.036ZM0.654 0.036H0.800Q0.793 0.085 0.761 0.085H0.673Q0.664 0.054 0.654 0.039ZM0.808 0.036H0.822V0.085H0.786V0.082Q0.802 0.082 0.808 0.036ZM0.324 0.045H0.330V0.048H0.324ZM0.330 0.048H0.335V0.051H0.330ZM0.310 0.053H0.313Q0.340 0.062 0.341 0.062V0.065H0.332Q0.328 0.065 0.310 0.059ZM0.414 0.085V0.088Q0.423 0.094 0.423 0.099H0.428L0.431 0.085ZM0.395 0.101V0.104H0.400Q0.400 0.100 0.409 0.093V0.090H0.406Q0.401 0.090 0.395 0.101ZM0.467 0.090H0.473V0.093H0.467ZM0.448 0.093H0.456V0.096H0.448ZM0.242 0.096H0.248V0.099H0.242ZM0.412 0.099V0.104H0.414V0.099ZM0.479 0.113H0.481V0.118H0.479ZM0.487 0.129H0.490V0.158H0.487ZM0.276 0.143H0.282V0.149H0.276ZM0.465 0.163H0.470Q0.467 0.169 0.467 0.172H0.465ZM0.473 0.166 0.479 0.169 0.484 0.166V0.169Q0.480 0.181 0.476 0.181Q0.476 0.175 0.470 0.175Q0.473 0.169 0.473 0.166ZM0.248 0.169 0.253 0.172Q0.253 0.169 0.256 0.169V0.178Q0.256 0.183 0.251 0.183Q0.251 0.178 0.245 0.178Q0.248 0.172 0.248 0.169ZM0.470 0.183H0.473V0.189H0.465Q0.466 0.183 0.470 0.183ZM0.459 0.189V0.195H0.453Q0.455 0.189 0.459 0.189ZM0.445 0.195H0.453V0.197H0.445ZM0.470 0.195H0.476V0.197H0.470ZM0.470 0.197Q0.470 0.207 0.473 0.211Q0.467 0.211 0.467 0.214Q0.462 0.211 0.459 0.211Q0.463 0.198 0.470 0.197ZM0.270 0.211 0.273 0.217 0.267 0.220H0.264V0.217Q0.266 0.211 0.270 0.211ZM0.428 0.242Q0.435 0.248 0.445 0.248Q0.443 0.262 0.428 0.267Q0.428 0.256 0.420 0.256V0.253Q0.428 0.253 0.428 0.242ZM0.473 0.250V0.253Q0.473 0.259 0.467 0.259V0.256Q0.469 0.250 0.473 0.250ZM0.321 0.267Q0.327 0.268 0.327 0.273Q0.324 0.273 0.324 0.276Q0.319 0.273 0.316 0.273Q0.316 0.267 0.321 0.267ZM0.533 0.329H0.535Q0.535 0.343 0.547 0.343V0.346Q0.539 0.346 0.533 0.352H0.524Q0.524 0.345 0.521 0.341Q0.533 0.341 0.533 0.329ZM0.637 0.366H0.640V0.371H0.637ZM0.577 0.397H0.580V0.403H0.577ZM0.493 0.403V0.414Q0.487 0.414 0.487 0.409Q0.488 0.403 0.493 0.403ZM0.594 0.403V0.409L0.591 0.414L0.600 0.423H0.614V0.425H0.597V0.428L0.600 0.434H0.591Q0.594 0.439 0.594 0.442V0.445H0.591Q0.591 0.437 0.586 0.437Q0.583 0.442 0.583 0.445H0.580Q0.580 0.434 0.574 0.434L0.577 0.428Q0.572 0.428 0.572 0.423H0.577L0.572 0.414H0.574Q0.580 0.417 0.583 0.417Q0.580 0.412 0.580 0.409V0.406H0.583Q0.583 0.414 0.588 0.414Q0.588 0.403 0.594 0.403ZM0.448 0.411Q0.459 0.415 0.459 0.420V0.434Q0.456 0.442 0.442 0.442H0.439Q0.435 0.442 0.431 0.434V0.428Q0.431 0.411 0.448 0.411ZM0.603 0.411H0.605Q0.605 0.417 0.600 0.417H0.597Q0.598 0.411 0.603 0.411ZM0.600 0.434H0.603Q0.608 0.435 0.608 0.439H0.605Q0.600 0.439 0.600 0.434ZM0.299 0.442H0.313Q0.319 0.442 0.321 0.462L0.310 0.470H0.299Q0.295 0.470 0.290 0.462V0.450Q0.290 0.447 0.299 0.442ZM0.487 0.476H0.493Q0.496 0.487 0.496 0.496H0.538V0.532Q0.538 0.542 0.507 0.544Q0.473 0.535 0.473 0.510V0.501Q0.479 0.476 0.487 0.476ZM0.290 0.478Q0.302 0.483 0.302 0.487V0.493L0.299 0.507Q0.319 0.507 0.321 0.532Q0.316 0.532 0.316 0.538Q0.313 0.538 0.313 0.535L0.307 0.538H0.305Q0.288 0.538 0.288 0.521Q0.290 0.516 0.290 0.513Q0.273 0.506 0.273 0.501V0.499H0.279V0.487H0.273Q0.276 0.478 0.290 0.478ZM0.392 0.490 0.426 0.527Q0.426 0.530 0.389 0.563Q0.355 0.527 0.355 0.524ZM0.547 0.496H0.549Q0.552 0.496 0.552 0.499L0.558 0.496H0.695L0.673 0.516L0.681 0.544H0.676L0.651 0.513Q0.654 0.513 0.654 0.510L0.642 0.504Q0.642 0.510 0.637 0.510Q0.637 0.507 0.634 0.507L0.631 0.513L0.626 0.510H0.623L0.617 0.513Q0.617 0.507 0.611 0.507Q0.611 0.513 0.605 0.513V0.510Q0.594 0.514 0.594 0.518Q0.600 0.519 0.600 0.524Q0.603 0.524 0.617 0.513Q0.617 0.518 0.623 0.518H0.626L0.634 0.513Q0.634 0.517 0.651 0.527Q0.651 0.524 0.654 0.524L0.659 0.532H0.656L0.662 0.544H0.597Q0.594 0.544 0.594 0.546Q0.590 0.544 0.580 0.544V0.541Q0.588 0.541 0.588 0.535L0.580 0.530L0.574 0.541Q0.577 0.541 0.577 0.544H0.547L0.549 0.538Q0.547 0.538 0.547 0.535H0.549L0.547 0.530V0.527L0.555 0.532Q0.558 0.524 0.560 0.524Q0.556 0.513 0.552 0.513L0.549 0.518Q0.552 0.518 0.552 0.521L0.547 0.524ZM0.558 0.499 0.555 0.504V0.507Q0.556 0.513 0.560 0.513L0.563 0.507V0.504Q0.563 0.499 0.558 0.499ZM0.710 0.496V0.544H0.690Q0.684 0.525 0.684 0.518Q0.684 0.516 0.710 0.496ZM0.665 0.510 0.662 0.516 0.667 0.518 0.670 0.513ZM0.324 0.513H0.327V0.518H0.324ZM0.591 0.521 0.588 0.527 0.594 0.530 0.597 0.524ZM0.273 0.535H0.282Q0.293 0.544 0.305 0.544V0.546L0.290 0.549Q0.290 0.544 0.273 0.538ZM0.248 0.541 0.262 0.544H0.270L0.273 0.563H0.282L0.299 0.549Q0.312 0.557 0.316 0.557L0.313 0.563Q0.319 0.564 0.319 0.569H0.316L0.307 0.563Q0.307 0.567 0.290 0.580Q0.283 0.569 0.276 0.569L0.270 0.566L0.253 0.569Q0.242 0.566 0.242 0.552ZM0.305 0.546H0.310V0.549H0.305ZM0.327 0.549Q0.331 0.549 0.335 0.557H0.332Q0.327 0.557 0.327 0.552ZM0.319 0.552H0.324V0.555H0.319ZM0.406 0.560H0.409V0.571H0.406ZM0.321 0.563Q0.327 0.564 0.327 0.569V0.571H0.321ZM0.479 0.566H0.493V0.569Q0.487 0.569 0.481 0.571ZM0.307 0.574H0.310V0.577Q0.310 0.581 0.302 0.585L0.299 0.580ZM0.307 0.583H0.313V0.585H0.307ZM0.316 0.583Q0.319 0.583 0.341 0.608Q0.334 0.613 0.319 0.617Q0.319 0.608 0.310 0.603Q0.316 0.591 0.316 0.583ZM0.332 0.585H0.338V0.591Q0.332 0.591 0.332 0.585ZM0.439 0.585H0.448V0.588H0.439ZM0.259 0.588H0.282Q0.282 0.594 0.276 0.594H0.273Q0.270 0.594 0.270 0.591L0.264 0.594Q0.259 0.594 0.259 0.588ZM0.456 0.588H0.462V0.591H0.456ZM0.465 0.588H0.470V0.591H0.465ZM0.290 0.591H0.299V0.594H0.290ZM0.302 0.591H0.307V0.594H0.302ZM0.476 0.591 0.496 0.594V0.597H0.467Q0.467 0.591 0.476 0.591ZM0.406 0.603Q0.406 0.607 0.414 0.611V0.608Q0.412 0.603 0.412 0.597Q0.406 0.598 0.406 0.603ZM0.456 0.594H0.462V0.597H0.456ZM0.296 0.605H0.302V0.608H0.296ZM0.288 0.611 0.290 0.617H0.279V0.614Q0.282 0.614 0.288 0.611ZM0.302 0.611H0.307V0.614H0.302ZM0.459 0.611H0.465V0.614H0.459ZM0.445 0.614H0.451V0.617H0.445ZM0.470 0.614 0.493 0.628H0.490Q0.474 0.620 0.456 0.620V0.617ZM0.262 0.620H0.267V0.623H0.262ZM0.327 0.620H0.332V0.623H0.327ZM0.316 0.625H0.321V0.628H0.316ZM0.426 0.631H0.428V0.637H0.426ZM0.299 0.634H0.305V0.637H0.299ZM0.442 0.634H0.448V0.637H0.442ZM0.448 0.637H0.456L0.459 0.642H0.456Q0.451 0.639 0.448 0.639ZM0.285 0.639H0.290V0.642H0.285ZM0.327 0.639H0.332V0.642H0.327ZM0.439 0.651H0.442Q0.442 0.655 0.451 0.665V0.667Q0.441 0.659 0.437 0.659Q0.439 0.654 0.439 0.651ZM0.307 0.653H0.316Q0.316 0.659 0.310 0.659H0.307ZM0.392 0.656Q0.397 0.670 0.397 0.676H0.400V0.670H0.403Q0.403 0.689 0.406 0.698V0.701H0.403Q0.397 0.680 0.397 0.678H0.395V0.724Q0.395 0.730 0.389 0.730L0.355 0.692Q0.355 0.689 0.392 0.656ZM0.330 0.662H0.332Q0.332 0.665 0.335 0.670Q0.323 0.684 0.321 0.684V0.681Q0.330 0.664 0.330 0.662ZM0.414 0.662H0.417V0.667H0.414ZM0.417 0.667H0.420Q0.426 0.667 0.428 0.681Q0.423 0.681 0.417 0.667ZM0.453 0.670Q0.459 0.671 0.459 0.676V0.678Q0.453 0.678 0.453 0.673ZM0.344 0.692Q0.386 0.738 0.389 0.738L0.406 0.735V0.738Q0.417 0.735 0.417 0.724Q0.414 0.724 0.414 0.721L0.420 0.718Q0.426 0.736 0.426 0.738Q0.423 0.743 0.423 0.746H0.426Q0.418 0.764 0.395 0.785V0.814Q0.385 0.814 0.344 0.856V0.788L0.352 0.777V0.774Q0.344 0.767 0.341 0.741L0.344 0.735ZM0.412 0.698H0.414V0.704H0.412ZM0.338 0.746H0.341V0.758H0.338ZM0.392 0.822 0.395 0.828V0.890Q0.395 0.895 0.389 0.895L0.355 0.859Q0.355 0.855 0.392 0.822ZM0.330 0.856Q0.330 0.865 0.332 0.865Q0.330 0.868 0.330 0.884Q0.324 0.884 0.324 0.879V0.867L0.327 0.862Q0.324 0.862 0.324 0.859ZM0.344 0.859Q0.383 0.904 0.395 0.904V0.980H0.344V0.955L0.352 0.944V0.941L0.344 0.929Z" fill="black"/>
</svg>
