<svg xmlns="http://www.w3.org/2000/svg" viewBox="0 0 1 1" preserveAspectRatio="xMidYMid meet">
  <path d="M0.596 0.016H0.610Q0.610 0.022 0.612 0.022L0.610 0.027L0.612 0.045L0.635 0.033Q0.635 0.036 0.638 0.036V0.030H0.643Q0.643 0.038 0.649 0.045Q0.626 0.054 0.626 0.059Q0.727 0.042 0.843 0.042H0.854V0.092Q0.727 0.092 0.610 0.115Q0.610 0.111 0.593 0.098Q0.580 0.123 0.528 0.134Q0.501 0.143 0.464 0.158L0.472 0.146V0.143L0.441 0.109Q0.444 0.109 0.494 0.090Q0.494 0.094 0.511 0.106Q0.547 0.067 0.582 0.067L0.593 0.065Q0.593 0.059 0.587 0.059Q0.587 0.062 0.585 0.062Q0.585 0.059 0.582 0.059V0.062Q0.572 0.056 0.565 0.056L0.568 0.042H0.571Q0.573 0.042 0.573 0.045L0.579 0.042H0.582L0.590 0.048V0.045L0.596 0.048H0.599V0.030L0.596 0.025H0.599L0.596 0.019ZM0.520 0.073Q0.520 0.081 0.525 0.081Q0.525 0.085 0.508 0.098L0.500 0.087Q0.508 0.087 0.520 0.073ZM0.593 0.109Q0.599 0.110 0.599 0.115V0.118L0.582 0.120Q0.582 0.116 0.593 0.109ZM0.435 0.115 0.464 0.146Q0.432 0.177 0.421 0.177L0.393 0.146V0.143Q0.415 0.115 0.435 0.115ZM0.382 0.140H0.385L0.382 0.146Q0.386 0.146 0.415 0.180Q0.379 0.208 0.371 0.208Q0.371 0.204 0.345 0.183Q0.342 0.183 0.300 0.227L0.322 0.253L0.289 0.292Q0.289 0.288 0.261 0.264Q0.261 0.268 0.241 0.284V0.281Q0.285 0.200 0.382 0.140ZM0.475 0.185H0.478V0.199Q0.482 0.202 0.489 0.202V0.205H0.478Q0.478 0.202 0.475 0.202Q0.475 0.219 0.469 0.219Q0.469 0.205 0.464 0.205V0.194L0.469 0.197H0.472ZM0.421 0.188H0.427V0.191H0.421ZM0.542 0.188Q0.548 0.191 0.551 0.191Q0.542 0.202 0.542 0.208L0.548 0.211H0.562V0.213Q0.562 0.219 0.556 0.219H0.551Q0.547 0.219 0.533 0.202Q0.539 0.188 0.542 0.188ZM0.646 0.188Q0.646 0.194 0.655 0.194Q0.643 0.201 0.643 0.205H0.638Q0.640 0.188 0.646 0.188ZM0.345 0.191 0.365 0.213Q0.365 0.216 0.331 0.244H0.328Q0.324 0.244 0.309 0.224ZM0.429 0.191 0.432 0.197H0.424Q0.425 0.191 0.429 0.191ZM0.610 0.194Q0.624 0.211 0.626 0.211Q0.618 0.221 0.618 0.224H0.615V0.216L0.610 0.219Q0.610 0.213 0.599 0.202V0.199Q0.603 0.199 0.610 0.194ZM0.461 0.202 0.464 0.208H0.455Q0.456 0.202 0.461 0.202ZM0.522 0.205Q0.542 0.218 0.542 0.233L0.536 0.236H0.533L0.531 0.216L0.511 0.227L0.508 0.222V0.219Q0.522 0.219 0.522 0.205ZM0.649 0.222 0.666 0.227Q0.666 0.224 0.669 0.224Q0.669 0.227 0.672 0.227Q0.672 0.224 0.675 0.224V0.244L0.669 0.241V0.244L0.658 0.238Q0.658 0.241 0.655 0.241Q0.655 0.238 0.652 0.238Q0.652 0.241 0.649 0.241V0.238Q0.643 0.241 0.640 0.241Q0.640 0.246 0.646 0.267Q0.640 0.267 0.635 0.270Q0.629 0.250 0.626 0.250Q0.629 0.238 0.649 0.222ZM0.410 0.227H0.415V0.230H0.410ZM0.604 0.233Q0.604 0.236 0.607 0.236L0.604 0.253L0.599 0.250Q0.599 0.253 0.596 0.253Q0.596 0.246 0.590 0.238Q0.595 0.238 0.604 0.233ZM0.438 0.241H0.444Q0.444 0.253 0.449 0.253H0.452V0.262Q0.444 0.262 0.444 0.270H0.438L0.441 0.264V0.259Q0.441 0.256 0.438 0.256L0.441 0.250Q0.438 0.244 0.438 0.241ZM0.382 0.247V0.250Q0.382 0.256 0.376 0.256V0.253Q0.377 0.247 0.382 0.247ZM0.452 0.262H0.455V0.267H0.452ZM0.092 0.264Q0.097 0.267 0.100 0.267L0.098 0.273V0.276L0.111 0.292V0.295Q0.111 0.302 0.089 0.312Q0.071 0.312 0.067 0.287Q0.067 0.269 0.092 0.264ZM0.483 0.273H0.494L0.497 0.290H0.500L0.514 0.281L0.517 0.287Q0.506 0.290 0.506 0.295V0.303Q0.518 0.309 0.520 0.309Q0.520 0.313 0.511 0.317Q0.511 0.309 0.494 0.309Q0.492 0.314 0.492 0.320H0.480Q0.480 0.312 0.489 0.312Q0.489 0.309 0.486 0.309L0.489 0.303V0.301Q0.482 0.301 0.478 0.298Q0.478 0.301 0.475 0.301Q0.475 0.298 0.472 0.298Q0.472 0.301 0.469 0.301V0.292H0.483Q0.489 0.292 0.489 0.287Q0.483 0.277 0.483 0.273ZM0.261 0.276Q0.264 0.276 0.286 0.301Q0.269 0.319 0.264 0.342H0.261Q0.257 0.342 0.227 0.309Q0.227 0.305 0.261 0.276ZM0.401 0.276V0.281Q0.399 0.298 0.393 0.298L0.390 0.292Q0.396 0.276 0.401 0.276ZM0.385 0.281 0.388 0.287 0.382 0.290 0.379 0.284ZM0.325 0.284H0.328V0.290H0.325ZM0.345 0.290V0.295Q0.337 0.295 0.337 0.315H0.331Q0.331 0.303 0.328 0.303Q0.333 0.290 0.345 0.290ZM0.320 0.301H0.325V0.303H0.320ZM0.399 0.301Q0.404 0.302 0.404 0.306L0.399 0.309ZM0.345 0.303H0.351V0.309Q0.345 0.309 0.345 0.303ZM0.218 0.315Q0.258 0.348 0.258 0.357L0.256 0.363V0.366H0.258Q0.258 0.351 0.278 0.351Q0.293 0.351 0.300 0.366Q0.297 0.366 0.297 0.368H0.300L0.317 0.357Q0.311 0.348 0.311 0.342L0.317 0.340Q0.325 0.351 0.325 0.357H0.328L0.337 0.342H0.342Q0.348 0.344 0.348 0.348Q0.343 0.348 0.306 0.385V0.380L0.311 0.368H0.306Q0.301 0.368 0.292 0.388Q0.281 0.394 0.281 0.396Q0.256 0.396 0.256 0.368H0.253Q0.253 0.375 0.241 0.422Q0.250 0.422 0.250 0.444L0.241 0.449V0.438H0.238Q0.238 0.462 0.216 0.475V0.478Q0.216 0.481 0.261 0.523Q0.273 0.509 0.303 0.509V0.501L0.297 0.503V0.489L0.309 0.475Q0.305 0.475 0.292 0.458Q0.297 0.458 0.297 0.449Q0.292 0.441 0.292 0.433H0.289V0.438H0.286V0.430Q0.286 0.425 0.300 0.422Q0.311 0.444 0.311 0.447L0.334 0.430L0.342 0.441Q0.328 0.452 0.328 0.461Q0.344 0.473 0.351 0.473Q0.347 0.484 0.342 0.484L0.345 0.498L0.342 0.509Q0.382 0.517 0.382 0.523Q0.363 0.517 0.348 0.517V0.520Q0.367 0.577 0.379 0.577Q0.385 0.588 0.388 0.588Q0.385 0.596 0.382 0.596L0.371 0.591V0.602H0.376L0.382 0.599V0.602Q0.399 0.599 0.399 0.596L0.404 0.599Q0.407 0.599 0.407 0.596Q0.412 0.599 0.415 0.599Q0.418 0.599 0.424 0.596L0.435 0.599Q0.469 0.591 0.483 0.591H0.486V0.593Q0.486 0.597 0.447 0.607Q0.447 0.605 0.444 0.605Q0.444 0.607 0.441 0.607V0.605Q0.414 0.619 0.396 0.619Q0.432 0.644 0.435 0.658Q0.444 0.658 0.444 0.663V0.669H0.438L0.427 0.660Q0.418 0.678 0.418 0.684H0.421Q0.418 0.689 0.418 0.692H0.413V0.686H0.404Q0.404 0.693 0.376 0.703V0.709Q0.376 0.723 0.371 0.742H0.382Q0.382 0.749 0.362 0.753Q0.362 0.761 0.357 0.767Q0.368 0.770 0.368 0.782H0.365L0.354 0.779L0.357 0.773L0.351 0.770Q0.351 0.773 0.348 0.773V0.770L0.342 0.773Q0.339 0.773 0.303 0.748V0.751Q0.364 0.848 0.568 0.906Q0.575 0.923 0.579 0.923Q0.585 0.913 0.585 0.909Q0.607 0.914 0.618 0.914Q0.612 0.938 0.612 0.953H0.610Q0.610 0.945 0.599 0.939H0.596Q0.590 0.940 0.590 0.945V0.962Q0.496 0.952 0.357 0.869Q0.357 0.866 0.314 0.835V0.843H0.306Q0.306 0.819 0.275 0.793L0.258 0.782Q0.258 0.764 0.236 0.739H0.230L0.224 0.742V0.739Q0.221 0.739 0.221 0.742L0.207 0.739H0.190V0.742L0.210 0.770H0.207Q0.176 0.731 0.168 0.731V0.725H0.177Q0.165 0.692 0.160 0.669Q0.163 0.669 0.163 0.666L0.157 0.663V0.666L0.151 0.663Q0.146 0.666 0.140 0.666V0.663L0.134 0.666H0.129Q0.126 0.666 0.126 0.663L0.100 0.672V0.669L0.084 0.675V0.672L0.078 0.675H0.067V0.666Q0.129 0.659 0.137 0.649Q0.137 0.652 0.140 0.652V0.646Q0.120 0.616 0.106 0.616V0.613L0.109 0.607Q0.123 0.608 0.132 0.624H0.134Q0.134 0.616 0.129 0.602H0.134Q0.134 0.605 0.151 0.635H0.157V0.616Q0.157 0.613 0.154 0.613Q0.157 0.611 0.157 0.588Q0.166 0.588 0.168 0.630Q0.165 0.630 0.165 0.633Q0.175 0.638 0.188 0.638Q0.199 0.634 0.199 0.630Q0.188 0.608 0.185 0.605V0.602L0.224 0.559Q0.190 0.523 0.188 0.523Q0.188 0.493 0.190 0.433Q0.188 0.433 0.188 0.430Q0.192 0.430 0.224 0.394L0.185 0.351V0.348L0.196 0.345L0.210 0.348Q0.218 0.330 0.218 0.323Q0.213 0.323 0.213 0.317ZM0.562 0.317Q0.568 0.320 0.571 0.320Q0.571 0.323 0.568 0.323L0.573 0.334Q0.571 0.334 0.571 0.337Q0.576 0.337 0.576 0.345Q0.579 0.345 0.604 0.331L0.610 0.342Q0.590 0.356 0.590 0.360V0.366Q0.594 0.366 0.610 0.380Q0.604 0.389 0.604 0.394H0.599V0.388L0.593 0.391Q0.593 0.380 0.576 0.374Q0.568 0.387 0.568 0.399Q0.553 0.399 0.551 0.388Q0.556 0.388 0.562 0.366H0.559L0.553 0.368Q0.553 0.366 0.551 0.366V0.368L0.533 0.363Q0.533 0.366 0.531 0.366V0.348L0.536 0.351H0.556Q0.562 0.351 0.562 0.345Q0.553 0.330 0.553 0.323Q0.562 0.320 0.562 0.317ZM0.421 0.326 0.427 0.329Q0.427 0.326 0.429 0.326V0.329L0.427 0.342L0.418 0.337Q0.421 0.332 0.421 0.326ZM0.396 0.334Q0.429 0.347 0.429 0.374Q0.432 0.374 0.432 0.377L0.427 0.380Q0.418 0.367 0.418 0.360L0.401 0.371L0.399 0.366V0.363Q0.400 0.363 0.410 0.357V0.351Q0.410 0.345 0.396 0.342ZM0.441 0.345 0.444 0.351V0.354H0.432Q0.432 0.350 0.441 0.345ZM0.061 0.348H0.070Q0.074 0.348 0.084 0.363H0.081L0.084 0.368L0.081 0.374H0.084Q0.076 0.391 0.061 0.391H0.056Q0.051 0.391 0.039 0.371Q0.039 0.348 0.061 0.348ZM0.179 0.360Q0.184 0.360 0.213 0.394Q0.213 0.397 0.196 0.410Q0.196 0.408 0.193 0.408Q0.193 0.422 0.185 0.422H0.182L0.177 0.419V0.424H0.174Q0.169 0.424 0.160 0.408Q0.151 0.408 0.143 0.394Q0.143 0.390 0.165 0.371Q0.168 0.377 0.168 0.380H0.171Q0.171 0.361 0.179 0.360ZM0.157 0.366Q0.157 0.368 0.132 0.396Q0.135 0.396 0.146 0.410H0.143Q0.138 0.410 0.126 0.394Q0.126 0.366 0.157 0.366ZM0.340 0.366Q0.345 0.368 0.351 0.368Q0.351 0.408 0.325 0.408H0.320Q0.320 0.406 0.309 0.394ZM0.188 0.388V0.394H0.190Q0.196 0.394 0.196 0.388H0.193Q0.193 0.391 0.190 0.391Q0.190 0.388 0.188 0.388ZM0.461 0.402 0.472 0.408Q0.472 0.405 0.475 0.405V0.408Q0.467 0.426 0.467 0.438L0.472 0.435Q0.472 0.438 0.475 0.438Q0.475 0.435 0.478 0.435V0.438L0.483 0.435H0.486L0.492 0.438Q0.492 0.435 0.494 0.435Q0.494 0.438 0.497 0.438L0.494 0.444L0.497 0.449Q0.470 0.449 0.469 0.452L0.478 0.481Q0.469 0.484 0.469 0.487Q0.461 0.487 0.452 0.458H0.447Q0.447 0.469 0.424 0.473L0.418 0.464Q0.441 0.451 0.441 0.447L0.415 0.424Q0.424 0.424 0.424 0.416L0.447 0.430H0.452L0.449 0.424Q0.454 0.424 0.461 0.402ZM0.160 0.422 0.168 0.433V0.441Q0.181 0.441 0.182 0.467L0.165 0.484L0.160 0.481Q0.157 0.481 0.157 0.484Q0.141 0.478 0.137 0.467H0.140L0.137 0.461V0.455Q0.145 0.441 0.151 0.441V0.438L0.146 0.430ZM0.683 0.424H0.691Q0.691 0.430 0.686 0.430ZM0.675 0.430Q0.679 0.433 0.686 0.433V0.438Q0.681 0.435 0.675 0.435ZM0.261 0.452 0.267 0.455Q0.267 0.452 0.270 0.452Q0.270 0.455 0.272 0.455Q0.272 0.452 0.275 0.452Q0.292 0.471 0.292 0.473V0.481Q0.278 0.501 0.264 0.501V0.512H0.261Q0.244 0.501 0.244 0.492L0.247 0.478L0.236 0.487Q0.232 0.487 0.227 0.478Q0.227 0.474 0.250 0.455Q0.255 0.458 0.261 0.458ZM0.807 0.455Q0.812 0.456 0.812 0.461V0.467L0.807 0.464V0.470H0.804L0.801 0.458ZM0.694 0.458H0.697Q0.697 0.470 0.708 0.470V0.475H0.703V0.481H0.714V0.473L0.711 0.467H0.717Q0.717 0.475 0.731 0.475H0.742Q0.742 0.461 0.747 0.461Q0.747 0.470 0.756 0.470L0.753 0.475V0.478Q0.767 0.478 0.767 0.489Q0.773 0.489 0.773 0.487L0.793 0.489H0.854Q0.868 0.489 0.897 0.492V0.495Q0.880 0.495 0.880 0.503V0.514Q0.880 0.523 0.911 0.523Q0.932 0.523 0.944 0.489H0.947V0.503H0.953L0.961 0.498V0.501Q0.950 0.537 0.925 0.537Q0.880 0.544 0.880 0.548V0.559Q0.880 0.567 0.886 0.577Q0.880 0.577 0.880 0.582V0.619Q0.889 0.619 0.889 0.630Q0.882 0.630 0.880 0.644Q0.886 0.658 0.889 0.658Q0.879 0.681 0.857 0.681Q0.839 0.672 0.832 0.672V0.652L0.812 0.655H0.804Q0.804 0.663 0.801 0.663Q0.793 0.663 0.793 0.655H0.790L0.776 0.658Q0.811 0.614 0.863 0.602V0.599Q0.863 0.594 0.851 0.588H0.840Q0.824 0.602 0.818 0.602V0.599Q0.818 0.582 0.798 0.582Q0.798 0.585 0.796 0.591L0.801 0.593Q0.789 0.616 0.784 0.616Q0.744 0.645 0.744 0.649L0.733 0.635H0.714Q0.714 0.627 0.708 0.627H0.703L0.697 0.630Q0.697 0.626 0.683 0.616Q0.683 0.612 0.669 0.596Q0.663 0.599 0.660 0.599Q0.663 0.595 0.663 0.585Q0.655 0.585 0.649 0.574H0.646V0.571H0.658V0.568L0.655 0.562Q0.663 0.562 0.675 0.559Q0.672 0.551 0.658 0.551Q0.660 0.545 0.660 0.542L0.666 0.545L0.669 0.540L0.663 0.537H0.539V0.489H0.655V0.487L0.646 0.475Q0.658 0.475 0.658 0.470H0.660Q0.660 0.478 0.666 0.478Q0.667 0.473 0.672 0.473V0.478L0.666 0.487V0.489H0.672Q0.680 0.489 0.680 0.478H0.683Q0.683 0.484 0.691 0.484L0.689 0.489H0.705L0.686 0.467Q0.694 0.467 0.694 0.458ZM0.784 0.467H0.787V0.473H0.784ZM0.958 0.470V0.473Q0.958 0.478 0.953 0.478V0.475Q0.954 0.470 0.958 0.470ZM0.103 0.478H0.106V0.484H0.103ZM0.295 0.517 0.292 0.523 0.342 0.551H0.345V0.548L0.342 0.542H0.345Q0.334 0.519 0.334 0.517L0.328 0.520Q0.313 0.517 0.306 0.517Q0.300 0.520 0.297 0.520Q0.297 0.517 0.295 0.517ZM0.236 0.531V0.548Q0.236 0.563 0.250 0.565V0.551Q0.250 0.537 0.241 0.537L0.244 0.531ZM0.396 0.528Q0.401 0.530 0.401 0.534H0.396ZM0.188 0.534Q0.192 0.534 0.213 0.559Q0.213 0.563 0.179 0.593H0.177L0.174 0.579Q0.175 0.571 0.185 0.568L0.188 0.574Q0.185 0.574 0.185 0.577L0.190 0.579V0.568Q0.182 0.568 0.182 0.562L0.188 0.553V0.548Q0.178 0.556 0.168 0.556V0.571Q0.168 0.574 0.165 0.574L0.168 0.579V0.585Q0.160 0.585 0.160 0.568H0.157L0.151 0.571V0.562Q0.158 0.562 0.174 0.537V0.545L0.179 0.542Q0.179 0.545 0.182 0.545Q0.188 0.539 0.188 0.534ZM0.804 0.542V0.545H0.821V0.542Q0.821 0.537 0.815 0.537H0.810Q0.804 0.538 0.804 0.542ZM0.376 0.537Q0.382 0.540 0.385 0.540V0.548Q0.385 0.553 0.379 0.553H0.376Q0.372 0.553 0.368 0.542ZM0.300 0.545V0.551Q0.304 0.551 0.331 0.579Q0.337 0.579 0.354 0.596V0.591Q0.354 0.570 0.337 0.565Q0.304 0.545 0.300 0.545ZM0.621 0.548H0.624Q0.630 0.548 0.643 0.556H0.646V0.559Q0.632 0.559 0.632 0.565V0.568H0.629Q0.629 0.562 0.626 0.562Q0.621 0.565 0.618 0.565L0.624 0.556Q0.621 0.551 0.621 0.548ZM0.660 0.553H0.666V0.556H0.660ZM0.810 0.556Q0.810 0.562 0.807 0.562L0.810 0.568Q0.807 0.574 0.807 0.577Q0.825 0.585 0.832 0.585V0.571L0.812 0.565V0.562H0.818V0.556ZM0.275 0.559V0.568Q0.275 0.571 0.295 0.579H0.297V0.577Q0.297 0.574 0.278 0.559ZM0.576 0.556H0.582Q0.582 0.562 0.593 0.562Q0.593 0.568 0.585 0.568L0.587 0.582Q0.570 0.573 0.565 0.562Q0.576 0.562 0.576 0.556ZM0.571 0.577H0.573V0.582H0.571ZM0.238 0.582Q0.241 0.591 0.247 0.624L0.253 0.621Q0.253 0.624 0.256 0.624L0.258 0.619Q0.258 0.582 0.241 0.582ZM0.652 0.585H0.655Q0.652 0.590 0.652 0.593Q0.646 0.593 0.646 0.588ZM0.821 0.588V0.593H0.826V0.588ZM0.640 0.591H0.646Q0.646 0.602 0.658 0.602L0.655 0.607L0.649 0.605H0.640V0.613H0.638Q0.638 0.603 0.629 0.596Q0.634 0.596 0.640 0.591ZM0.897 0.591H0.908V0.593H0.897ZM0.281 0.596V0.602L0.283 0.616H0.289L0.295 0.613V0.616Q0.314 0.612 0.314 0.607Q0.282 0.596 0.281 0.596ZM0.840 0.596H0.849V0.599H0.840ZM0.891 0.596H0.894Q0.894 0.605 0.900 0.605V0.610H0.897Q0.891 0.610 0.891 0.602ZM0.919 0.610Q0.919 0.623 0.922 0.627Q0.911 0.635 0.905 0.635V0.633Q0.916 0.610 0.919 0.610ZM0.801 0.619H0.804Q0.804 0.624 0.798 0.624H0.796Q0.796 0.619 0.801 0.619ZM0.618 0.624H0.621Q0.621 0.633 0.632 0.633L0.626 0.641L0.629 0.646Q0.620 0.646 0.615 0.649Q0.615 0.643 0.610 0.635Q0.618 0.635 0.618 0.624ZM0.655 0.624H0.658V0.630H0.655ZM0.311 0.635 0.317 0.644V0.655L0.303 0.658L0.300 0.652V0.638L0.286 0.641V0.644L0.289 0.649H0.286Q0.288 0.660 0.292 0.660Q0.292 0.663 0.289 0.663Q0.292 0.700 0.306 0.700L0.328 0.706L0.357 0.695Q0.357 0.698 0.360 0.698L0.362 0.692V0.686H0.354Q0.334 0.686 0.331 0.669Q0.334 0.646 0.354 0.646V0.644Q0.346 0.630 0.342 0.630Q0.313 0.635 0.311 0.635ZM0.694 0.633H0.697V0.641H0.694ZM0.776 0.633H0.782V0.635H0.776ZM0.776 0.635Q0.776 0.638 0.779 0.644Q0.776 0.644 0.764 0.658L0.767 0.663Q0.767 0.670 0.764 0.675Q0.767 0.680 0.767 0.686Q0.762 0.686 0.762 0.681V0.663H0.759Q0.750 0.663 0.736 0.698H0.733V0.692Q0.733 0.666 0.776 0.635ZM0.256 0.644Q0.256 0.646 0.253 0.646Q0.260 0.678 0.267 0.678H0.270Q0.267 0.644 0.256 0.644ZM0.399 0.644V0.646Q0.413 0.666 0.415 0.666Q0.421 0.663 0.424 0.663V0.658Q0.424 0.651 0.399 0.644ZM0.731 0.649H0.736V0.652H0.731ZM0.900 0.649H0.905Q0.922 0.656 0.922 0.660Q0.919 0.666 0.919 0.669H0.914Q0.911 0.652 0.900 0.652ZM0.382 0.655Q0.393 0.678 0.396 0.678L0.401 0.675Q0.397 0.662 0.385 0.655ZM0.784 0.675Q0.790 0.675 0.790 0.681V0.684Q0.784 0.684 0.784 0.678ZM0.306 0.678H0.314V0.689Q0.309 0.692 0.303 0.692H0.300V0.684Q0.301 0.678 0.306 0.678ZM0.894 0.678H0.900V0.681H0.894ZM0.914 0.678H0.916V0.686H0.914ZM0.174 0.684Q0.174 0.687 0.182 0.712H0.179Q0.186 0.728 0.190 0.728H0.196Q0.199 0.728 0.199 0.725L0.204 0.728H0.210L0.216 0.725Q0.216 0.728 0.218 0.728L0.221 0.723Q0.215 0.723 0.179 0.686V0.684ZM0.199 0.684Q0.199 0.687 0.216 0.700H0.218Q0.214 0.684 0.199 0.684ZM0.832 0.681Q0.858 0.689 0.863 0.689Q0.874 0.684 0.880 0.684V0.698Q0.880 0.705 0.886 0.714Q0.881 0.714 0.877 0.728Q0.863 0.720 0.854 0.720Q0.817 0.734 0.815 0.734V0.731Q0.832 0.712 0.832 0.703ZM0.891 0.681H0.894V0.689H0.891ZM0.711 0.684H0.714V0.689H0.711ZM0.818 0.684H0.821Q0.827 0.684 0.829 0.698L0.821 0.703H0.810V0.700H0.818ZM0.790 0.686V0.692H0.784Q0.785 0.686 0.790 0.686ZM0.897 0.692H0.908V0.695H0.897ZM0.731 0.700H0.733V0.706H0.731ZM0.798 0.714H0.804V0.717H0.798ZM0.334 0.725Q0.334 0.729 0.354 0.737H0.360V0.731L0.357 0.725L0.351 0.728H0.348ZM0.697 0.725H0.700V0.731H0.697ZM0.649 0.728H0.652Q0.652 0.749 0.666 0.751L0.678 0.745V0.748Q0.663 0.774 0.663 0.779Q0.643 0.773 0.643 0.764Q0.643 0.756 0.649 0.728ZM0.857 0.728Q0.866 0.734 0.874 0.734Q0.874 0.741 0.821 0.748V0.745Q0.821 0.738 0.857 0.728ZM0.694 0.731H0.697V0.737H0.694ZM0.691 0.737H0.694V0.742Q0.677 0.786 0.663 0.796H0.660Q0.643 0.796 0.643 0.779Q0.658 0.788 0.666 0.788Q0.691 0.741 0.691 0.737ZM0.328 0.742V0.745Q0.328 0.750 0.348 0.764H0.354Q0.354 0.756 0.357 0.751Q0.351 0.751 0.328 0.742ZM0.880 0.745V0.770L0.886 0.779H0.880V0.816H0.883V0.807H0.886Q0.886 0.813 0.897 0.813V0.816Q0.880 0.817 0.880 0.824V0.852Q0.880 0.855 0.883 0.855L0.880 0.860V0.934L0.883 0.939H0.880Q0.874 0.936 0.871 0.936Q0.857 0.964 0.857 0.973L0.863 0.975L0.880 0.973V0.984Q0.863 0.984 0.863 0.987L0.835 0.984H0.815Q0.788 0.984 0.747 0.981Q0.743 0.984 0.736 0.984Q0.732 0.981 0.722 0.981L0.725 0.987H0.722Q0.718 0.984 0.708 0.984Q0.700 0.987 0.700 0.993H0.686Q0.686 0.989 0.703 0.978H0.801Q0.805 0.978 0.823 0.934H0.832V0.923Q0.832 0.920 0.829 0.920L0.832 0.914V0.909L0.826 0.911V0.906L0.812 0.909V0.900Q0.819 0.900 0.821 0.886Q0.832 0.886 0.832 0.866Q0.841 0.871 0.849 0.871Q0.854 0.866 0.877 0.816L0.871 0.813Q0.859 0.819 0.835 0.838H0.832Q0.832 0.824 0.829 0.824L0.832 0.818V0.773H0.829L0.823 0.776Q0.823 0.773 0.821 0.767Q0.823 0.767 0.823 0.764L0.829 0.767H0.832Q0.832 0.753 0.846 0.753ZM0.807 0.748H0.810V0.753H0.807ZM0.767 0.751H0.770V0.756H0.767ZM0.894 0.751H0.900V0.753H0.894ZM0.928 0.776H0.930V0.782Q0.927 0.782 0.922 0.785V0.782Q0.923 0.776 0.928 0.776ZM0.221 0.782H0.227V0.785H0.221ZM0.818 0.782H0.821V0.790Q0.821 0.804 0.815 0.804Q0.820 0.817 0.826 0.818Q0.822 0.835 0.815 0.835Q0.815 0.824 0.793 0.824Q0.796 0.819 0.796 0.816L0.801 0.818Q0.811 0.818 0.818 0.782ZM0.886 0.788Q0.892 0.793 0.905 0.793V0.799L0.886 0.804V0.799Q0.886 0.796 0.889 0.796L0.886 0.790ZM0.908 0.790H0.914Q0.914 0.796 0.919 0.796V0.799H0.911Q0.911 0.796 0.908 0.790ZM0.908 0.816H0.911Q0.915 0.816 0.922 0.827L0.916 0.830Q0.916 0.825 0.908 0.816ZM0.733 0.818H0.739V0.821H0.733ZM0.739 0.821H0.744Q0.747 0.821 0.764 0.838L0.782 0.830L0.784 0.835V0.838L0.770 0.841Q0.776 0.862 0.776 0.869H0.773L0.776 0.874V0.877L0.770 0.874Q0.766 0.895 0.759 0.895L0.762 0.874V0.866Q0.762 0.844 0.739 0.821ZM0.767 0.821H0.776Q0.776 0.827 0.770 0.827ZM0.939 0.821H0.944V0.824H0.939ZM0.714 0.827Q0.739 0.835 0.739 0.841L0.719 0.838H0.717Q0.708 0.838 0.694 0.846V0.841Q0.694 0.831 0.714 0.827ZM0.860 0.830V0.832Q0.846 0.858 0.846 0.863Q0.829 0.857 0.829 0.852ZM0.928 0.835H0.930V0.841H0.928ZM0.784 0.838H0.787V0.843H0.784ZM0.930 0.843H0.933V0.852H0.930ZM0.807 0.846H0.810Q0.810 0.853 0.812 0.857Q0.806 0.874 0.790 0.874Q0.790 0.895 0.784 0.895Q0.784 0.892 0.782 0.892L0.784 0.886L0.782 0.880H0.787V0.874L0.784 0.860L0.796 0.852V0.860H0.790V0.869H0.798Q0.807 0.869 0.807 0.846ZM0.717 0.849H0.736Q0.739 0.857 0.742 0.857Q0.736 0.895 0.731 0.895H0.728Q0.733 0.889 0.736 0.857Q0.730 0.852 0.717 0.852ZM0.894 0.849H0.897V0.855H0.894ZM0.689 0.852H0.691V0.855Q0.683 0.869 0.683 0.874H0.680V0.860Q0.680 0.857 0.689 0.852ZM0.691 0.874H0.694Q0.694 0.884 0.697 0.889L0.691 0.892Q0.689 0.886 0.689 0.883Q0.691 0.877 0.691 0.874ZM0.812 0.874H0.823Q0.823 0.880 0.818 0.880Q0.812 0.880 0.812 0.874ZM0.883 0.874H0.889Q0.889 0.880 0.883 0.880ZM0.747 0.883H0.750V0.886Q0.750 0.917 0.703 0.917Q0.691 0.912 0.691 0.909L0.705 0.911H0.711Q0.737 0.902 0.742 0.897Q0.747 0.888 0.747 0.883ZM0.902 0.883H0.908V0.886H0.902ZM0.804 0.889H0.807V0.895H0.804ZM0.669 0.895Q0.675 0.895 0.675 0.900V0.909Q0.669 0.909 0.669 0.903ZM0.829 0.897V0.906H0.832V0.897ZM0.886 0.897H0.891V0.900H0.886ZM0.779 0.900H0.782Q0.782 0.915 0.762 0.928V0.911ZM0.889 0.903H0.894V0.909Q0.889 0.909 0.889 0.903ZM0.678 0.914Q0.689 0.928 0.719 0.928V0.931Q0.709 0.931 0.663 0.975Q0.649 0.972 0.649 0.956V0.953Q0.652 0.925 0.683 0.925V0.923H0.678ZM0.626 0.917 0.643 0.920Q0.635 0.955 0.635 0.970H0.632L0.618 0.967ZM0.812 0.917Q0.818 0.918 0.818 0.923V0.925Q0.798 0.964 0.798 0.970H0.683Q0.693 0.955 0.714 0.942Q0.726 0.953 0.736 0.953Q0.762 0.948 0.762 0.934H0.807Q0.807 0.917 0.812 0.917ZM0.883 0.917H0.886V0.936H0.883ZM0.655 0.923H0.658Q0.658 0.926 0.649 0.931V0.928Q0.650 0.923 0.655 0.923ZM0.728 0.928Q0.744 0.931 0.750 0.931Q0.750 0.928 0.753 0.928V0.934Q0.753 0.938 0.742 0.945H0.739Q0.724 0.945 0.719 0.931Q0.722 0.931 0.728 0.928ZM0.874 0.948H0.880V0.964H0.868V0.962Q0.874 0.952 0.874 0.948ZM0.599 0.950Q0.602 0.950 0.612 0.967H0.610Q0.605 0.964 0.599 0.964ZM0.784 0.987H0.787Q0.787 0.990 0.770 1.010Q0.764 1.007 0.762 1.007Q0.750 1.011 0.750 1.015L0.736 1.013H0.731Q0.728 1.013 0.728 1.015Q0.707 1.004 0.700 1.004V0.993H0.711V0.996Q0.708 1.001 0.708 1.004L0.722 0.996H0.725L0.722 1.001V1.004H0.725L0.742 0.993H0.744V0.996L0.739 1.007Q0.744 1.007 0.762 0.990H0.767L0.764 0.996V0.999H0.770ZM0.793 1.018V1.021Q0.788 1.037 0.776 1.049V1.046Q0.786 1.018 0.793 1.018ZM0.773 1.049H0.776V1.054H0.773ZM0.756 1.066H0.762V1.068Q0.762 1.074 0.756 1.074Z" fill="black"/>
</svg>
