<svg xmlns="http://www.w3.org/2000/svg" viewBox="0 0 1 1" preserveAspectRatio="xMidYMid meet">
  <path d="M1.049 0.003H1.052V0.028H1.049ZM0.675 0.022H0.686V0.033H0.675ZM0.711 0.022H0.723V0.033H0.708Q0.711 0.029 0.711 0.022ZM0.171 0.039H0.224V0.109Q0.227 0.109 0.227 0.106Q0.241 0.110 0.241 0.115V0.123Q0.237 0.134 0.224 0.134V0.176Q0.233 0.176 0.233 0.190L0.224 0.201V0.204Q0.236 0.206 0.236 0.212V0.221Q0.236 0.230 0.224 0.230V0.252Q0.230 0.259 0.230 0.263H0.236Q0.237 0.252 0.244 0.252H0.252Q0.259 0.252 0.260 0.266Q0.260 0.272 0.233 0.285L0.224 0.280V0.291Q0.233 0.299 0.233 0.308H0.236Q0.249 0.302 0.249 0.299Q0.254 0.302 0.260 0.302V0.319Q0.260 0.325 0.227 0.330Q0.227 0.328 0.224 0.328V0.339H0.222Q0.208 0.299 0.182 0.299Q0.171 0.295 0.171 0.291V0.212L0.165 0.204V0.198L0.168 0.193H0.165L0.152 0.196Q0.146 0.193 0.143 0.193V0.179Q0.143 0.175 0.152 0.171L0.171 0.174ZM0.775 0.039H0.834V0.355Q0.772 0.321 0.772 0.308L0.775 0.288L0.772 0.269L0.775 0.252Q0.775 0.244 0.772 0.244L0.775 0.210ZM1.043 0.039H1.046V0.045H1.043ZM1.041 0.048H1.043V0.056Q1.041 0.062 1.041 0.065H1.038V0.056Q1.041 0.051 1.041 0.048ZM0.675 0.056H0.686V0.068H0.675ZM0.708 0.056H0.723V0.068H0.708ZM1.043 0.059H1.049V0.062H1.043ZM1.049 0.062H1.052V0.068H1.049ZM0.297 0.090Q0.306 0.092 0.306 0.106Q0.283 0.126 0.283 0.129Q0.252 0.118 0.252 0.112V0.098L0.266 0.095L0.277 0.104H0.280Q0.280 0.090 0.297 0.090ZM0.295 0.092 0.292 0.098 0.297 0.101 0.300 0.095ZM0.675 0.090Q0.677 0.090 0.677 0.092L0.683 0.090H0.686V0.104L0.680 0.101L0.675 0.104ZM0.717 0.090H0.723V0.101Q0.716 0.101 0.711 0.104V0.095Q0.712 0.090 0.717 0.090ZM0.747 0.090H0.750L0.756 0.092Q0.756 0.090 0.758 0.090V0.104Q0.756 0.104 0.756 0.101L0.750 0.104H0.747ZM1.064 0.090H1.066V0.095H1.064ZM1.032 0.106H1.035V0.109Q1.028 0.123 1.024 0.123V0.120Q1.028 0.106 1.032 0.106ZM0.116 0.112H0.124Q0.130 0.112 0.141 0.140Q0.129 0.164 0.124 0.165H0.113Q0.107 0.165 0.107 0.160V0.149Q0.107 0.143 0.118 0.143V0.140Q0.107 0.131 0.107 0.123Q0.111 0.112 0.116 0.112ZM0.708 0.123Q0.713 0.126 0.723 0.126V0.137H0.708ZM0.675 0.126H0.686V0.137H0.675ZM0.747 0.126H0.758V0.137H0.747ZM0.859 0.126H0.864V0.137H0.853V0.132Q0.855 0.126 0.859 0.126ZM0.283 0.149H0.289Q0.295 0.149 0.300 0.168L0.311 0.163Q0.322 0.166 0.322 0.171V0.185L0.308 0.187H0.286Q0.286 0.181 0.275 0.168V0.157Q0.275 0.153 0.283 0.149ZM0.996 0.149H0.999V0.154H0.996ZM0.065 0.157Q0.069 0.157 0.079 0.168L0.076 0.174V0.176H0.082L0.079 0.182L0.090 0.190Q0.090 0.187 0.093 0.187L0.098 0.196H0.090L0.084 0.193Q0.084 0.196 0.082 0.196Q0.059 0.178 0.059 0.160ZM0.675 0.160H0.680V0.163Q0.680 0.168 0.675 0.168ZM0.708 0.160H0.723V0.174H0.720Q0.720 0.168 0.708 0.168L0.711 0.163Q0.708 0.163 0.708 0.160ZM0.745 0.160H0.758V0.174H0.756L0.750 0.171Q0.750 0.174 0.747 0.174ZM0.853 0.160H0.864V0.174H0.853ZM1.019 0.160H1.021V0.165H1.019ZM0.093 0.171Q0.104 0.174 0.104 0.185H0.101L0.095 0.182Q0.095 0.185 0.093 0.185L0.082 0.174Q0.088 0.174 0.093 0.171ZM0.983 0.174Q0.988 0.176 0.991 0.176V0.179Q0.986 0.179 0.980 0.185H0.977ZM0.745 0.193Q0.750 0.194 0.750 0.198L0.745 0.201ZM0.853 0.193 0.859 0.196 0.864 0.193V0.207H0.853ZM0.723 0.201V0.207H0.714V0.204Q0.717 0.204 0.723 0.201ZM0.280 0.215Q0.295 0.220 0.295 0.230H0.300Q0.300 0.221 0.306 0.221H0.314Q0.318 0.221 0.322 0.230Q0.322 0.247 0.295 0.252Q0.295 0.255 0.292 0.255L0.269 0.233V0.224Q0.269 0.217 0.280 0.215ZM0.962 0.218H0.965Q0.965 0.221 0.968 0.227Q0.965 0.227 0.965 0.230H0.971Q0.959 0.244 0.954 0.260Q0.957 0.260 0.957 0.263Q0.942 0.260 0.932 0.260Q0.932 0.256 0.943 0.249Q0.948 0.252 0.954 0.252Q0.954 0.239 0.962 0.218ZM0.977 0.218Q0.983 0.219 0.983 0.224H0.977ZM0.983 0.218H0.988V0.224Q0.983 0.224 0.983 0.218ZM1.041 0.218Q1.046 0.221 1.052 0.221Q1.032 0.246 1.030 0.246V0.238L1.032 0.224L1.038 0.227H1.041ZM1.010 0.224H1.016V0.227H1.010ZM0.705 0.230H0.714V0.233H0.705ZM0.845 0.230H0.856V0.244H0.851Q0.845 0.244 0.845 0.238ZM0.879 0.230H0.893V0.244L0.879 0.241ZM0.750 0.233V0.244H0.745L0.747 0.238Q0.745 0.238 0.745 0.235ZM0.336 0.235H0.347Q0.353 0.236 0.353 0.241V0.252Q0.342 0.266 0.342 0.274H0.336Q0.333 0.274 0.333 0.271L0.328 0.274H0.319L0.306 0.271V0.258Q0.308 0.249 0.322 0.249Q0.323 0.255 0.328 0.255H0.331V0.241Q0.332 0.235 0.336 0.235ZM0.985 0.235H0.991V0.238H0.985ZM1.013 0.235H1.016V0.241H1.013ZM0.141 0.238H0.149Q0.152 0.238 0.157 0.249L0.149 0.263V0.266Q0.168 0.266 0.168 0.282Q0.157 0.288 0.157 0.291Q0.151 0.291 0.132 0.274H0.127Q0.130 0.268 0.135 0.241ZM1.016 0.241H1.019V0.246H1.016ZM0.065 0.244Q0.070 0.244 0.070 0.249H0.059Q0.061 0.244 0.065 0.244ZM0.076 0.246Q0.081 0.249 0.093 0.249L0.090 0.255Q0.086 0.252 0.073 0.252ZM1.010 0.246Q1.016 0.249 1.019 0.249V0.252H1.010ZM0.980 0.249Q0.985 0.252 0.988 0.252Q0.988 0.258 0.983 0.258H0.977V0.255ZM0.093 0.252H0.101Q0.101 0.258 0.095 0.258ZM1.041 0.252H1.046V0.255H1.041ZM1.058 0.252H1.064V0.255H1.058ZM0.065 0.258H0.068V0.266H0.065ZM0.079 0.260H0.082V0.269H0.079ZM0.705 0.263H0.714V0.269H0.711Q0.705 0.269 0.705 0.263ZM0.745 0.263H0.750V0.277H0.736Q0.740 0.263 0.745 0.263ZM0.845 0.263 0.851 0.266 0.856 0.263V0.277H0.845ZM0.879 0.263H0.882Q0.884 0.263 0.884 0.266L0.890 0.263H0.893Q0.893 0.273 0.896 0.277H0.879ZM1.032 0.271H1.038Q1.038 0.277 1.032 0.277ZM0.275 0.277H0.280Q0.289 0.277 0.289 0.299L0.295 0.296H0.306Q0.314 0.296 0.314 0.308Q0.311 0.319 0.303 0.319Q0.269 0.319 0.269 0.299Q0.266 0.299 0.266 0.296V0.285Q0.266 0.282 0.275 0.277ZM0.980 0.282H0.988Q0.992 0.282 0.996 0.291L0.994 0.305H0.991Q0.991 0.293 0.974 0.288Q0.974 0.282 0.980 0.282ZM0.054 0.285Q0.059 0.286 0.059 0.291V0.302L0.057 0.308L0.062 0.311Q0.069 0.311 0.070 0.288H0.079Q0.079 0.319 0.054 0.319V0.316Q0.054 0.311 0.046 0.311V0.308Q0.054 0.296 0.054 0.285ZM0.127 0.288H0.129Q0.133 0.288 0.138 0.296V0.299Q0.131 0.299 0.116 0.308V0.302Q0.123 0.288 0.127 0.288ZM0.035 0.291H0.040V0.293H0.035ZM0.750 0.296V0.302Q0.744 0.302 0.739 0.305V0.299Q0.746 0.299 0.750 0.296ZM0.935 0.296H0.940V0.299H0.935ZM1.032 0.296 1.035 0.302V0.305H1.027V0.302Q1.028 0.296 1.032 0.296ZM0.084 0.299H0.087V0.305H0.084ZM0.699 0.299H0.702Q0.702 0.308 0.714 0.308V0.311H0.699ZM0.845 0.299H0.856V0.311H0.842Q0.845 0.305 0.845 0.299ZM0.879 0.299H0.893Q0.893 0.305 0.896 0.311H0.879ZM0.932 0.299H0.935V0.305H0.932ZM0.940 0.299H0.946V0.302H0.940ZM0.957 0.299H0.960V0.308H0.954Q0.957 0.302 0.957 0.299ZM0.171 0.305H0.176Q0.216 0.319 0.216 0.350Q0.192 0.336 0.188 0.336Q0.182 0.377 0.171 0.377ZM0.129 0.311Q0.129 0.319 0.135 0.319Q0.135 0.316 0.138 0.316V0.328Q0.131 0.328 0.127 0.330Q0.127 0.325 0.121 0.325L0.107 0.336H0.104Q0.098 0.336 0.098 0.330V0.322Q0.099 0.316 0.104 0.316Q0.109 0.319 0.116 0.319Q0.116 0.314 0.129 0.311ZM0.943 0.316Q0.949 0.333 0.962 0.333V0.350H0.960V0.344H0.954Q0.954 0.353 0.948 0.353H0.943L0.951 0.341V0.339Q0.939 0.339 0.935 0.336Q0.935 0.339 0.932 0.339V0.333H0.924Q0.924 0.341 0.918 0.341H0.907L0.904 0.328Q0.904 0.325 0.915 0.319L0.929 0.330H0.935V0.319Q0.938 0.319 0.943 0.316ZM1.010 0.316H1.016V0.325H1.010ZM1.049 0.319H1.055V0.325H1.049ZM0.778 0.330Q0.825 0.366 0.834 0.366V0.392Q0.815 0.368 0.772 0.347V0.336Q0.773 0.330 0.778 0.330ZM0.699 0.333H0.714V0.344L0.699 0.347ZM0.845 0.333H0.856V0.347L0.851 0.344L0.845 0.347ZM0.879 0.333H0.893V0.344Q0.887 0.344 0.882 0.347L0.884 0.353V0.361L0.882 0.366Q0.887 0.369 0.893 0.369V0.377H0.887Q0.876 0.366 0.864 0.364V0.353Q0.879 0.342 0.879 0.339ZM1.007 0.336H1.013V0.339H1.007ZM0.244 0.339Q0.255 0.341 0.255 0.350H0.260Q0.260 0.339 0.275 0.339Q0.280 0.341 0.283 0.341V0.358Q0.283 0.361 0.258 0.375Q0.230 0.360 0.230 0.353V0.350Q0.233 0.339 0.244 0.339ZM0.739 0.339H0.742Q0.747 0.341 0.750 0.341V0.347Q0.747 0.347 0.747 0.344L0.742 0.347H0.739ZM0.194 0.347Q0.209 0.358 0.224 0.358V0.400Q0.224 0.404 0.205 0.420Q0.200 0.402 0.174 0.386Q0.194 0.376 0.194 0.347ZM0.084 0.350H0.095V0.353H0.090V0.358L0.095 0.366H0.093Q0.087 0.366 0.084 0.350ZM0.138 0.353H0.146L0.149 0.358V0.361Q0.142 0.355 0.138 0.355ZM0.104 0.358H0.116Q0.121 0.358 0.121 0.366H0.127V0.358H0.129Q0.136 0.364 0.141 0.364V0.366Q0.124 0.380 0.124 0.386Q0.098 0.381 0.098 0.375V0.364Q0.099 0.358 0.104 0.358ZM0.775 0.361Q0.806 0.375 0.831 0.403H0.834V0.425Q0.834 0.430 0.798 0.442Q0.792 0.439 0.789 0.439Q0.783 0.450 0.783 0.459H0.775Q0.775 0.450 0.769 0.450V0.436L0.775 0.439V0.436Q0.775 0.422 0.772 0.412Q0.775 0.396 0.775 0.389L0.772 0.369Q0.775 0.364 0.775 0.361ZM0.965 0.361Q0.965 0.364 0.968 0.364Q0.968 0.361 0.971 0.361V0.366Q0.954 0.366 0.954 0.375H0.951Q0.951 0.372 0.948 0.366Q0.951 0.366 0.965 0.361ZM0.076 0.364H0.079V0.369H0.076ZM0.699 0.366H0.702Q0.705 0.366 0.705 0.369L0.711 0.366H0.714V0.380H0.699ZM0.750 0.366V0.380H0.739V0.369Q0.740 0.369 0.750 0.366ZM0.842 0.372H0.845Q0.862 0.374 0.862 0.380V0.386Q0.859 0.386 0.853 0.389Q0.842 0.385 0.842 0.380ZM0.929 0.377H0.935Q0.939 0.377 0.943 0.386V0.392Q0.940 0.392 0.940 0.389Q0.931 0.395 0.924 0.395H0.921Q0.922 0.377 0.929 0.377ZM0.171 0.397Q0.183 0.397 0.205 0.434Q0.205 0.429 0.224 0.414V0.431H0.230V0.434Q0.216 0.434 0.197 0.448Q0.181 0.445 0.171 0.445ZM0.901 0.397 0.921 0.406Q0.918 0.417 0.907 0.417Q0.907 0.412 0.896 0.406H0.893Q0.893 0.417 0.884 0.417Q0.884 0.414 0.882 0.414Q0.882 0.417 0.879 0.417V0.403H0.896Q0.901 0.403 0.901 0.397ZM0.699 0.403H0.714V0.412L0.711 0.417Q0.706 0.414 0.699 0.414ZM0.739 0.403H0.750V0.417H0.739ZM0.851 0.403H0.856V0.406H0.851ZM0.082 0.406H0.087Q0.087 0.414 0.095 0.414H0.098V0.417Q0.090 0.417 0.084 0.428L0.079 0.425Q0.073 0.428 0.070 0.428L0.076 0.420L0.070 0.412Q0.082 0.412 0.082 0.406ZM0.252 0.417Q0.255 0.431 0.263 0.431L0.260 0.436V0.439L0.263 0.445H0.249Q0.249 0.438 0.247 0.434Q0.249 0.434 0.249 0.431L0.244 0.428H0.236L0.230 0.431V0.425H0.247Q0.247 0.417 0.252 0.417ZM0.890 0.420Q0.896 0.423 0.899 0.423V0.434Q0.887 0.442 0.887 0.450H0.876V0.439L0.882 0.431V0.428L0.879 0.423Q0.885 0.423 0.890 0.420ZM0.157 0.423H0.160Q0.165 0.425 0.168 0.425V0.428Q0.162 0.428 0.157 0.431ZM0.087 0.431H0.090V0.436H0.087ZM0.087 0.436Q0.087 0.450 0.098 0.450V0.453Q0.084 0.453 0.084 0.459V0.467H0.082Q0.082 0.456 0.076 0.456Q0.071 0.459 0.068 0.459L0.073 0.450V0.448L0.068 0.439H0.070Q0.075 0.442 0.082 0.442Q0.083 0.436 0.087 0.436ZM0.747 0.436V0.450H0.736V0.439Q0.743 0.439 0.747 0.436ZM0.853 0.436V0.450H0.842V0.439Q0.849 0.439 0.853 0.436ZM0.283 0.439H0.289V0.442H0.283ZM0.697 0.439H0.708Q0.708 0.446 0.711 0.450H0.697ZM0.135 0.442H0.138Q0.138 0.456 0.149 0.456V0.459Q0.142 0.459 0.132 0.467L0.121 0.453Q0.135 0.453 0.135 0.442ZM0.834 0.442V0.467Q0.831 0.467 0.831 0.464Q0.815 0.467 0.815 0.470L0.809 0.467H0.806Q0.802 0.467 0.798 0.475Q0.798 0.489 0.812 0.501H0.815L0.831 0.490H0.834V0.512L0.829 0.520V0.523L0.834 0.531V0.571H0.831Q0.821 0.547 0.803 0.531Q0.803 0.536 0.792 0.542L0.789 0.529Q0.801 0.518 0.801 0.512L0.795 0.501H0.798Q0.791 0.475 0.786 0.475Q0.775 0.484 0.769 0.484V0.473Q0.783 0.473 0.806 0.450Q0.826 0.442 0.834 0.442ZM0.219 0.445Q0.219 0.464 0.241 0.481Q0.227 0.481 0.213 0.509Q0.194 0.495 0.176 0.495Q0.182 0.477 0.182 0.470Q0.182 0.465 0.176 0.453Q0.192 0.456 0.199 0.456ZM0.263 0.445H0.272V0.448H0.263ZM0.230 0.448H0.233Q0.251 0.454 0.258 0.470Q0.255 0.470 0.255 0.473Q0.261 0.478 0.272 0.478L0.269 0.484H0.300Q0.303 0.484 0.303 0.481L0.319 0.490L0.328 0.484H0.697Q0.697 0.481 0.699 0.475Q0.697 0.475 0.697 0.473H0.708Q0.708 0.484 0.714 0.484H0.736V0.473H0.747Q0.747 0.495 0.775 0.495Q0.780 0.493 0.783 0.493Q0.783 0.496 0.786 0.501H0.783L0.789 0.515Q0.778 0.519 0.778 0.523V0.537Q0.778 0.540 0.781 0.540Q0.778 0.545 0.778 0.548Q0.782 0.559 0.786 0.559H0.789L0.803 0.545L0.834 0.588V0.610Q0.829 0.652 0.823 0.652Q0.823 0.646 0.817 0.646H0.809Q0.803 0.647 0.803 0.652V0.655Q0.803 0.664 0.812 0.674Q0.809 0.674 0.809 0.677Q0.820 0.688 0.829 0.688L0.826 0.694L0.831 0.708Q0.803 0.718 0.803 0.733Q0.807 0.744 0.817 0.750Q0.829 0.750 0.840 0.744Q0.840 0.747 0.842 0.747Q0.841 0.758 0.834 0.758V0.772Q0.849 0.775 0.851 0.775V0.786Q0.841 0.786 0.834 0.797V0.976H0.775V0.959H0.772L0.767 0.962V0.948H0.775V0.926H0.767V0.912H0.775V0.822H0.767V0.808L0.772 0.811H0.775V0.786H0.772L0.767 0.789Q0.767 0.786 0.761 0.767V0.764Q0.761 0.758 0.775 0.758V0.750Q0.772 0.750 0.772 0.753Q0.769 0.753 0.758 0.741Q0.758 0.734 0.772 0.727Q0.772 0.730 0.775 0.730V0.708Q0.767 0.697 0.767 0.691Q0.771 0.691 0.775 0.683V0.624H0.769V0.610H0.775V0.588L0.769 0.590V0.577H0.775V0.554H0.769V0.540L0.775 0.542V0.534H0.322V0.775Q0.322 0.778 0.325 0.778L0.322 0.783V0.811L0.336 0.808Q0.336 0.812 0.319 0.822Q0.314 0.819 0.311 0.819V0.800Q0.304 0.800 0.303 0.811H0.300Q0.300 0.805 0.295 0.805Q0.295 0.804 0.311 0.789V0.741H0.308L0.303 0.744Q0.303 0.738 0.300 0.738L0.303 0.733V0.562H0.297Q0.317 0.539 0.317 0.534H0.303Q0.303 0.547 0.292 0.551V0.548L0.300 0.537V0.534H0.252Q0.247 0.535 0.247 0.540L0.249 0.545L0.236 0.556Q0.231 0.554 0.224 0.554V0.568H0.236V0.571H0.224V0.590Q0.224 0.596 0.236 0.596V0.599Q0.224 0.599 0.224 0.615L0.238 0.626L0.258 0.624H0.263V0.626Q0.242 0.626 0.236 0.643L0.238 0.649Q0.236 0.663 0.224 0.663V0.674Q0.224 0.677 0.227 0.677L0.224 0.683V0.783L0.227 0.800Q0.224 0.805 0.224 0.814V0.848H0.236Q0.236 0.842 0.238 0.842Q0.248 0.842 0.286 0.848Q0.286 0.842 0.292 0.842H0.295L0.292 0.848Q0.292 0.851 0.306 0.856V0.859H0.325V0.862H0.314V0.867H0.322L0.319 0.873L0.328 0.884V0.889H0.311Q0.305 0.889 0.300 0.892Q0.286 0.884 0.277 0.884Q0.272 0.886 0.269 0.886V0.892Q0.269 0.897 0.280 0.903H0.286V0.898H0.292V0.906Q0.280 0.906 0.280 0.915L0.275 0.912H0.266V0.918H0.263V0.912H0.255Q0.231 0.906 0.224 0.906L0.227 0.932H0.224L0.227 0.937Q0.224 0.952 0.224 0.959Q0.230 0.961 0.230 0.965Q0.227 0.976 0.227 0.984H0.224V0.976H0.197V0.981H0.194V0.976H0.171Q0.171 0.965 0.168 0.965L0.171 0.959V0.932H0.168L0.149 0.946H0.146L0.163 0.926L0.168 0.929H0.171V0.926Q0.171 0.923 0.168 0.923L0.171 0.918V0.906H0.168Q0.158 0.912 0.138 0.918L0.141 0.912Q0.141 0.909 0.138 0.909L0.141 0.903Q0.136 0.892 0.132 0.892H0.121L0.116 0.895Q0.116 0.889 0.107 0.881V0.875Q0.118 0.875 0.118 0.867V0.864Q0.118 0.862 0.116 0.862L0.118 0.856Q0.116 0.848 0.101 0.848V0.845H0.113Q0.138 0.851 0.143 0.851L0.138 0.859V0.862Q0.149 0.862 0.149 0.867L0.135 0.864H0.121V0.867Q0.123 0.875 0.143 0.875H0.149L0.163 0.873V0.870H0.157V0.867H0.168V0.862H0.152V0.859H0.168V0.856Q0.168 0.846 0.124 0.837H0.107Q0.107 0.832 0.101 0.825H0.157V0.822L0.143 0.808H0.146Q0.163 0.815 0.163 0.819Q0.160 0.819 0.160 0.822L0.171 0.828V0.825Q0.171 0.822 0.168 0.822L0.171 0.816V0.803L0.163 0.789H0.165L0.171 0.792V0.750H0.165V0.756L0.157 0.750Q0.154 0.755 0.154 0.758L0.149 0.756H0.141Q0.138 0.756 0.138 0.758Q0.101 0.747 0.101 0.730Q0.101 0.724 0.093 0.724L0.095 0.719Q0.093 0.719 0.093 0.716H0.095Q0.095 0.708 0.087 0.708V0.705H0.095V0.694L0.090 0.685Q0.095 0.685 0.095 0.677H0.098L0.113 0.688Q0.129 0.678 0.129 0.669L0.135 0.672H0.138V0.669Q0.138 0.663 0.132 0.663H0.129V0.669Q0.125 0.669 0.121 0.660Q0.135 0.660 0.135 0.652L0.143 0.658Q0.154 0.646 0.160 0.646V0.640Q0.143 0.624 0.143 0.618Q0.141 0.618 0.141 0.621Q0.131 0.615 0.127 0.615L0.129 0.610Q0.129 0.606 0.116 0.596L0.110 0.599Q0.110 0.596 0.107 0.596Q0.107 0.602 0.095 0.610Q0.095 0.614 0.113 0.626L0.127 0.615V0.624Q0.120 0.624 0.116 0.635V0.637L0.118 0.658Q0.096 0.662 0.095 0.677L0.090 0.674Q0.085 0.677 0.082 0.677L0.090 0.663Q0.087 0.658 0.087 0.652Q0.092 0.652 0.098 0.640Q0.098 0.634 0.087 0.632V0.602Q0.072 0.602 0.068 0.590V0.582L0.070 0.577Q0.068 0.577 0.068 0.574Q0.080 0.566 0.093 0.551V0.565H0.098L0.104 0.562V0.568H0.098V0.582H0.107L0.121 0.562L0.127 0.565Q0.127 0.562 0.129 0.562V0.565L0.141 0.559Q0.141 0.540 0.132 0.540V0.537H0.138L0.135 0.531Q0.147 0.527 0.157 0.520Q0.154 0.509 0.146 0.509L0.149 0.504V0.495H0.143L0.135 0.507V0.509H0.132Q0.132 0.504 0.118 0.504L0.124 0.495V0.490H0.118V0.484H0.121L0.129 0.490H0.132L0.135 0.478H0.138V0.493H0.152L0.149 0.487Q0.154 0.487 0.154 0.481Q0.152 0.481 0.152 0.478Q0.156 0.478 0.163 0.459Q0.160 0.459 0.160 0.456L0.165 0.453Q0.174 0.465 0.174 0.475Q0.165 0.494 0.165 0.501Q0.192 0.501 0.216 0.523Q0.220 0.523 0.230 0.495Q0.249 0.487 0.252 0.478Q0.230 0.462 0.230 0.459ZM0.272 0.448H0.277V0.450H0.272ZM0.283 0.456H0.289V0.459H0.283ZM0.289 0.459Q0.295 0.460 0.295 0.464H0.289ZM0.295 0.464Q0.300 0.465 0.300 0.470V0.473Q0.295 0.473 0.295 0.467ZM0.876 0.473H0.890Q0.887 0.485 0.876 0.487ZM0.853 0.475V0.484H0.842V0.481Q0.847 0.481 0.853 0.475ZM0.826 0.478Q0.826 0.485 0.812 0.487V0.481ZM0.093 0.487H0.101V0.495H0.098Q0.093 0.495 0.093 0.490ZM0.073 0.493H0.076Q0.076 0.501 0.093 0.501V0.504Q0.082 0.504 0.082 0.518H0.079Q0.076 0.518 0.076 0.515L0.070 0.518H0.068Q0.068 0.504 0.057 0.504V0.501H0.073ZM0.876 0.507H0.887V0.515Q0.887 0.520 0.882 0.520H0.876ZM0.003 0.520H0.014V0.540Q0.014 0.545 0.009 0.545H0.003L-0.002 0.526Q-0.001 0.520 0.003 0.520ZM0.152 0.537V0.540Q0.160 0.540 0.160 0.545H0.157Q0.152 0.542 0.149 0.542L0.143 0.551V0.554Q0.159 0.559 0.160 0.559Q0.161 0.554 0.165 0.554Q0.167 0.559 0.171 0.559V0.551L0.160 0.548V0.545Q0.168 0.545 0.168 0.540Q0.168 0.536 0.160 0.531H0.157Q0.152 0.533 0.152 0.537ZM0.118 0.531H0.121Q0.121 0.540 0.129 0.540Q0.124 0.549 0.124 0.554L0.110 0.551Q0.118 0.534 0.118 0.531ZM0.747 0.540V0.554H0.736V0.542Q0.737 0.542 0.747 0.540ZM0.853 0.540V0.554H0.842V0.542Q0.849 0.542 0.853 0.540ZM0.876 0.540Q0.881 0.542 0.890 0.542Q0.887 0.548 0.887 0.554H0.876ZM0.697 0.542H0.708V0.554H0.697V0.551L0.699 0.545Q0.697 0.545 0.697 0.542ZM0.286 0.551H0.292Q0.292 0.556 0.286 0.556ZM0.244 0.554H0.249L0.258 0.559L0.263 0.556Q0.263 0.565 0.272 0.565V0.568Q0.270 0.568 0.260 0.574V0.577L0.263 0.582Q0.261 0.582 0.247 0.585H0.230V0.582H0.252V0.579L0.247 0.571L0.241 0.574H0.238V0.568Q0.240 0.568 0.249 0.565V0.562ZM0.306 0.556V0.674Q0.306 0.677 0.308 0.677L0.306 0.683V0.724Q0.306 0.730 0.311 0.730V0.624Q0.311 0.621 0.314 0.621Q0.314 0.618 0.311 0.618L0.314 0.585V0.574L0.311 0.568H0.314Q0.311 0.563 0.311 0.556ZM0.280 0.556H0.286V0.559H0.280ZM0.141 0.562 0.135 0.571Q0.138 0.571 0.138 0.574Q0.132 0.574 0.132 0.579V0.588Q0.141 0.588 0.141 0.596L0.154 0.588V0.604Q0.165 0.596 0.171 0.596V0.590H0.157L0.160 0.585Q0.156 0.562 0.141 0.562ZM0.277 0.559H0.280Q0.280 0.565 0.275 0.565H0.272Q0.273 0.559 0.277 0.559ZM0.295 0.565V0.629Q0.295 0.635 0.289 0.635H0.286Q0.280 0.635 0.280 0.624H0.269V0.672H0.266V0.624H0.263L0.266 0.618V0.588Q0.266 0.585 0.263 0.585Q0.266 0.579 0.266 0.574Q0.272 0.577 0.275 0.577ZM0.269 0.585V0.621H0.280V0.579H0.275Q0.269 0.580 0.269 0.585ZM0.697 0.577H0.708V0.588H0.697ZM0.736 0.577H0.747V0.588H0.736ZM0.842 0.577H0.853V0.588H0.851Q0.847 0.588 0.842 0.577ZM0.876 0.577H0.884V0.588Q0.882 0.588 0.876 0.590ZM0.160 0.610Q0.160 0.614 0.171 0.621V0.599Q0.167 0.599 0.160 0.610ZM0.697 0.610H0.708V0.624H0.697L0.699 0.618V0.615ZM0.736 0.610H0.739Q0.754 0.610 0.758 0.621Q0.758 0.636 0.745 0.637L0.736 0.626ZM0.845 0.610H0.853V0.624H0.842Q0.845 0.619 0.845 0.610ZM0.876 0.610H0.890Q0.887 0.614 0.887 0.624H0.876ZM0.241 0.640H0.244Q0.249 0.643 0.255 0.643V0.646H0.244ZM0.160 0.672V0.677Q0.165 0.677 0.171 0.685V0.660Q0.167 0.660 0.160 0.672ZM0.817 0.660Q0.834 0.660 0.834 0.672V0.677L0.840 0.674Q0.844 0.674 0.848 0.683V0.688Q0.848 0.692 0.840 0.697Q0.840 0.674 0.820 0.674ZM0.121 0.713H0.118V0.702H0.110V0.705Q0.118 0.738 0.141 0.738H0.143Q0.162 0.731 0.165 0.721V0.716L0.154 0.713L0.160 0.705V0.702Q0.160 0.698 0.146 0.688H0.143Q0.121 0.705 0.121 0.713ZM0.073 0.702H0.079Q0.079 0.708 0.073 0.708ZM0.129 0.708Q0.133 0.708 0.141 0.719H0.138Q0.133 0.719 0.129 0.710ZM0.842 0.713H0.845V0.724Q0.845 0.733 0.817 0.738V0.730Q0.823 0.719 0.834 0.719Q0.835 0.724 0.840 0.724Q0.842 0.720 0.842 0.713ZM0.160 0.736Q0.160 0.740 0.171 0.747V0.724Q0.167 0.724 0.160 0.736ZM0.238 0.744H0.241V0.775L0.236 0.778Q0.238 0.758 0.238 0.744ZM0.266 0.756H0.269V0.761L0.266 0.780Q0.260 0.780 0.260 0.775ZM0.295 0.764H0.297V0.769H0.295ZM0.292 0.769H0.295V0.775H0.292ZM0.292 0.775V0.780Q0.289 0.786 0.289 0.789L0.283 0.786Q0.287 0.775 0.292 0.775ZM0.694 0.775H0.705V0.786L0.694 0.789ZM0.734 0.775H0.745V0.789L0.739 0.786L0.734 0.789ZM0.873 0.775H0.884V0.786H0.873ZM0.241 0.783H0.244V0.792H0.241ZM0.233 0.792H0.236V0.811H0.233ZM-0.066 0.794H-0.061V0.797H-0.066ZM-0.011 0.797H0.009V0.800H-0.011ZM0.260 0.797H0.263V0.803H0.260ZM0.280 0.797H0.283V0.803H0.280ZM0.037 0.803H0.043V0.805H0.037ZM0.138 0.805H0.143V0.808H0.138ZM0.244 0.808H0.249V0.811Q0.247 0.816 0.247 0.819H0.244ZM0.694 0.808H0.705V0.822H0.694ZM0.734 0.808Q0.736 0.808 0.736 0.811L0.742 0.808H0.745V0.822H0.731Q0.734 0.818 0.734 0.808ZM0.840 0.808 0.845 0.811 0.851 0.808V0.822H0.840ZM0.873 0.808Q0.878 0.811 0.884 0.811V0.816Q0.884 0.822 0.879 0.822H0.873ZM0.020 0.811H0.029L0.040 0.814Q0.043 0.814 0.043 0.811Q0.047 0.811 0.084 0.822H0.087V0.825Q0.079 0.825 0.079 0.837Q0.061 0.836 0.048 0.819Q0.043 0.816 0.020 0.814ZM0.230 0.811H0.233V0.816H0.230ZM0.258 0.811 0.263 0.814Q0.260 0.819 0.260 0.822H0.258ZM0.272 0.816Q0.277 0.818 0.277 0.822L0.272 0.825ZM-0.027 0.825H-0.013V0.828H-0.027ZM0.286 0.828 0.289 0.834Q0.286 0.834 0.280 0.837V0.834Q0.281 0.828 0.286 0.828ZM0.350 0.831H0.355V0.834H0.350ZM0.344 0.834H0.350V0.837Q0.345 0.837 0.325 0.845V0.837ZM0.017 0.839H0.023Q0.029 0.840 0.029 0.845H0.023Q0.017 0.845 0.017 0.839ZM0.311 0.839H0.319V0.842H0.311ZM0.051 0.842Q0.064 0.842 0.095 0.851L0.090 0.859V0.864L0.093 0.870H0.087Q0.087 0.848 0.073 0.848Q0.061 0.853 0.059 0.859V0.864L0.062 0.870H0.057Q0.057 0.855 0.051 0.842ZM0.303 0.842H0.308V0.845H0.303ZM0.851 0.842V0.856H0.840V0.845Q0.846 0.845 0.851 0.842ZM0.319 0.845H0.325V0.848H0.319ZM0.694 0.845H0.705V0.856H0.694ZM0.734 0.845H0.745Q0.745 0.848 0.742 0.848L0.745 0.853V0.856H0.734ZM0.882 0.845H0.884V0.856H0.879V0.853Q0.882 0.848 0.882 0.845ZM0.095 0.848H0.101V0.851H0.095ZM0.361 0.859V0.864H0.344L0.331 0.867Q0.331 0.861 0.361 0.859ZM0.339 0.873Q0.352 0.889 0.358 0.889V0.892Q0.349 0.892 0.333 0.895Q0.333 0.886 0.331 0.886Q0.334 0.873 0.339 0.873ZM0.694 0.878H0.705V0.892L0.699 0.889L0.694 0.892ZM0.734 0.878H0.745V0.881Q0.745 0.884 0.742 0.884L0.745 0.889V0.892Q0.740 0.889 0.734 0.889ZM0.840 0.878H0.851V0.889H0.840ZM0.873 0.878H0.879V0.881H0.873ZM0.079 0.886H0.082V0.892H0.079ZM0.095 0.895H0.113V0.903Q0.104 0.898 0.095 0.898ZM0.280 0.895H0.286V0.898H0.280ZM0.300 0.903H0.308V0.906H0.300ZM0.325 0.906Q0.342 0.913 0.342 0.918H0.339Q0.328 0.912 0.319 0.912V0.909Q0.325 0.909 0.325 0.906ZM0.699 0.912H0.705V0.926H0.694V0.918Q0.695 0.912 0.699 0.912ZM0.734 0.912H0.745V0.926H0.734ZM0.840 0.912 0.845 0.915 0.851 0.912V0.926H0.840ZM0.873 0.912Q0.878 0.915 0.884 0.915V0.926H0.873L0.876 0.921Q0.873 0.915 0.873 0.912ZM0.132 0.918H0.138V0.921H0.132ZM0.238 0.918H0.241V0.932H0.236Q0.238 0.926 0.238 0.918ZM0.266 0.918Q0.272 0.918 0.272 0.923H0.266ZM0.342 0.918H0.347V0.921H0.342ZM0.252 0.921H0.255Q0.255 0.923 0.258 0.929H0.252ZM0.314 0.926 0.322 0.937H0.319Q0.312 0.932 0.308 0.932Q0.309 0.926 0.314 0.926ZM0.233 0.940H0.236V0.946H0.233ZM0.328 0.943H0.333V0.946H0.328ZM0.244 0.946H0.247V0.951H0.244ZM0.252 0.946H0.255V0.987H0.252L0.249 0.970Q0.252 0.955 0.252 0.946ZM0.292 0.946H0.300Q0.300 0.949 0.306 0.957V0.959Q0.302 0.959 0.292 0.946ZM0.694 0.948H0.705V0.959Q0.702 0.959 0.697 0.962L0.694 0.957ZM0.734 0.948H0.745V0.962Q0.740 0.959 0.734 0.959ZM0.840 0.948H0.851V0.962L0.845 0.959L0.840 0.962ZM0.873 0.948H0.884V0.959Q0.878 0.959 0.873 0.962V0.957L0.876 0.951Q0.873 0.951 0.873 0.948ZM0.277 0.954 0.280 0.970V0.973H0.277L0.272 0.957ZM0.280 0.973H0.283V0.979H0.280Z" fill="black"/>
</svg>
