<svg xmlns="http://www.w3.org/2000/svg" viewBox="0 0 1 1" preserveAspectRatio="xMidYMid meet">
  <path d="M0.471 0.038H0.507Q0.507 0.054 0.527 0.080H0.490Q0.490 0.058 0.471 0.038ZM0.524 0.038H0.600Q0.600 0.058 0.572 0.074Q0.534 0.074 0.524 0.041ZM0.620 0.038H0.665Q0.650 0.053 0.650 0.080H0.597Q0.620 0.052 0.620 0.038ZM0.451 0.041Q0.482 0.054 0.482 0.077L0.476 0.080H0.451ZM0.532 0.083Q0.549 0.085 0.549 0.091Q0.535 0.098 0.535 0.114H0.532ZM0.583 0.088V0.167H0.566Q0.540 0.151 0.540 0.126Q0.552 0.088 0.583 0.088ZM0.332 0.145H0.335V0.165H0.332ZM0.532 0.148Q0.547 0.169 0.566 0.179H0.583V0.272H0.575Q0.535 0.282 0.535 0.308H0.532Q0.532 0.291 0.529 0.291L0.532 0.263ZM0.659 0.162H0.668V0.170H0.659ZM0.636 0.165V0.170H0.631Q0.632 0.165 0.636 0.165ZM0.341 0.187H0.344V0.193H0.341ZM0.625 0.190H0.636V0.201Q0.632 0.198 0.625 0.198ZM0.659 0.190H0.668V0.201Q0.662 0.198 0.659 0.198ZM0.332 0.195H0.335V0.201H0.332ZM0.595 0.221H0.606L0.603 0.227Q0.606 0.227 0.606 0.230H0.595ZM0.625 0.221H0.636V0.230H0.625ZM0.659 0.221H0.668V0.230H0.659ZM0.350 0.238H0.355V0.244Q0.350 0.244 0.350 0.238ZM0.504 0.249 0.510 0.258V0.261H0.499V0.255Q0.500 0.249 0.504 0.249ZM0.595 0.249Q0.604 0.252 0.606 0.261H0.595ZM0.625 0.249H0.628Q0.633 0.252 0.636 0.252V0.261H0.625ZM0.499 0.280Q0.504 0.281 0.504 0.286Q0.504 0.291 0.499 0.291ZM0.625 0.280H0.628V0.291H0.625ZM0.662 0.280H0.668V0.286Q0.662 0.286 0.662 0.280ZM0.583 0.283V0.365H0.575Q0.555 0.358 0.540 0.334Q0.540 0.331 0.543 0.331L0.540 0.316V0.314Q0.549 0.291 0.572 0.283ZM0.595 0.283Q0.601 0.288 0.606 0.288V0.291H0.595ZM0.397 0.294V0.300H0.392Q0.393 0.294 0.397 0.294ZM0.600 0.311H0.606V0.316Q0.600 0.316 0.600 0.311ZM0.400 0.331 0.403 0.337H0.394Q0.396 0.331 0.400 0.331ZM0.341 0.334V0.340H0.347L0.352 0.337V0.354Q0.348 0.354 0.335 0.337ZM0.408 0.337H0.414Q0.414 0.359 0.431 0.359Q0.434 0.359 0.436 0.368H0.431Q0.419 0.368 0.405 0.345Q0.408 0.340 0.408 0.337ZM0.473 0.342H0.485V0.351H0.473ZM0.507 0.342H0.515V0.348H0.507ZM0.532 0.342H0.535Q0.551 0.373 0.572 0.373Q0.572 0.376 0.583 0.376V0.579H0.586V0.573H0.595Q0.583 0.590 0.583 0.599V0.624Q0.583 0.626 0.586 0.626L0.583 0.632V0.742Q0.536 0.711 0.532 0.711V0.646H0.561Q0.569 0.646 0.572 0.618Q0.561 0.610 0.532 0.610Q0.543 0.595 0.543 0.573Q0.540 0.562 0.532 0.562V0.447Q0.549 0.429 0.555 0.407L0.552 0.401Q0.555 0.396 0.555 0.393Q0.549 0.376 0.532 0.356ZM0.321 0.345Q0.335 0.359 0.341 0.359V0.362H0.321V0.359H0.327V0.354H0.321ZM0.603 0.345H0.606V0.351H0.603ZM0.364 0.359H0.372V0.362H0.364ZM0.392 0.359H0.394Q0.400 0.360 0.400 0.365H0.392ZM0.338 0.373H0.344V0.376H0.338ZM0.473 0.373H0.476Q0.480 0.373 0.485 0.382H0.479Q0.473 0.382 0.473 0.376ZM0.507 0.373H0.515Q0.515 0.376 0.518 0.382H0.507ZM0.603 0.373H0.611Q0.611 0.376 0.614 0.382H0.603ZM0.422 0.379H0.428V0.384Q0.422 0.384 0.422 0.379ZM0.392 0.387H0.394Q0.400 0.390 0.403 0.390V0.396Q0.392 0.392 0.392 0.387ZM0.532 0.387H0.535Q0.535 0.393 0.538 0.393Q0.535 0.396 0.535 0.415H0.532ZM0.386 0.398Q0.397 0.403 0.397 0.407H0.386ZM0.350 0.401H0.355V0.407H0.350ZM0.414 0.401Q0.418 0.401 0.422 0.409H0.414ZM0.473 0.401H0.485V0.412H0.473L0.476 0.407ZM0.507 0.401H0.518L0.515 0.407L0.518 0.412H0.507ZM0.603 0.401H0.611V0.412H0.603ZM0.645 0.404V0.412H0.634V0.409Q0.639 0.409 0.645 0.404ZM0.324 0.415H0.329V0.418H0.324ZM0.366 0.415Q0.372 0.416 0.372 0.421L0.366 0.423ZM0.329 0.418H0.332Q0.338 0.419 0.338 0.423H0.329ZM0.428 0.418H0.431Q0.436 0.421 0.439 0.421Q0.439 0.426 0.434 0.426ZM0.392 0.421H0.400V0.432H0.397Q0.397 0.428 0.392 0.421ZM0.454 0.421Q0.457 0.421 0.465 0.435V0.438Q0.457 0.438 0.457 0.441Q0.445 0.432 0.439 0.432V0.429Q0.444 0.429 0.454 0.421ZM0.411 0.429 0.417 0.432Q0.422 0.429 0.425 0.429L0.428 0.435Q0.423 0.435 0.419 0.444Q0.414 0.441 0.411 0.441ZM0.507 0.432H0.518V0.435Q0.512 0.435 0.507 0.438ZM0.603 0.432H0.614Q0.611 0.437 0.611 0.444H0.603ZM0.634 0.432H0.645V0.444H0.642L0.636 0.441Q0.636 0.444 0.634 0.444ZM0.422 0.444H0.428V0.447H0.422ZM0.408 0.455H0.417Q0.422 0.455 0.422 0.461V0.466Q0.414 0.461 0.403 0.461Q0.404 0.455 0.408 0.455ZM0.487 0.461Q0.485 0.465 0.485 0.472H0.476Q0.476 0.469 0.473 0.464ZM0.504 0.464 0.507 0.469V0.477H0.501L0.499 0.466ZM0.603 0.464H0.611V0.472H0.603ZM0.634 0.464H0.645V0.469L0.642 0.475Q0.637 0.472 0.634 0.472ZM0.436 0.472H0.442Q0.448 0.473 0.448 0.477V0.483Q0.448 0.489 0.442 0.489H0.436Q0.431 0.489 0.431 0.483V0.477Q0.432 0.472 0.436 0.472ZM0.454 0.486H0.462V0.489Q0.462 0.494 0.457 0.494H0.454ZM0.603 0.491Q0.608 0.494 0.611 0.494V0.503H0.603ZM0.634 0.491H0.636L0.642 0.494Q0.642 0.491 0.645 0.491V0.503H0.634ZM0.476 0.494H0.482Q0.482 0.500 0.476 0.500ZM0.507 0.494Q0.513 0.495 0.513 0.500V0.503H0.507ZM0.460 0.497 0.462 0.503H0.454Q0.454 0.497 0.460 0.497ZM0.254 0.511Q0.272 0.529 0.284 0.533Q0.284 0.539 0.293 0.539Q0.287 0.559 0.287 0.562L0.290 0.582H0.287Q0.275 0.582 0.259 0.573Q0.251 0.587 0.248 0.587H0.245Q0.240 0.587 0.237 0.559Q0.233 0.559 0.223 0.545V0.542Q0.254 0.539 0.254 0.511ZM0.485 0.519H0.487V0.533H0.482ZM0.606 0.522H0.614V0.533H0.606ZM0.636 0.522H0.648V0.533H0.636ZM0.462 0.548V0.556Q0.457 0.556 0.457 0.551ZM0.476 0.553H0.487V0.556Q0.485 0.562 0.485 0.565H0.482Q0.476 0.565 0.476 0.559Q0.479 0.559 0.479 0.556Q0.476 0.556 0.476 0.553ZM0.510 0.553H0.518Q0.518 0.559 0.521 0.565H0.518L0.513 0.562Q0.513 0.565 0.510 0.565ZM0.606 0.553H0.614V0.565Q0.609 0.562 0.606 0.562ZM0.636 0.553H0.648V0.565L0.642 0.562L0.636 0.565ZM0.510 0.585H0.515Q0.515 0.590 0.510 0.590ZM0.606 0.585H0.614V0.593H0.606ZM0.636 0.585H0.648V0.593H0.636ZM0.679 0.596Q0.685 0.597 0.685 0.601V0.610H0.673Q0.673 0.607 0.671 0.601ZM0.493 0.601H0.496V0.607H0.493ZM0.510 0.612Q0.515 0.614 0.515 0.618L0.510 0.621ZM0.606 0.612Q0.611 0.615 0.614 0.615V0.624H0.606ZM0.636 0.612H0.639Q0.645 0.615 0.648 0.615V0.624H0.636ZM0.538 0.621H0.540Q0.561 0.622 0.561 0.626Q0.558 0.632 0.558 0.635H0.532V0.626Q0.533 0.621 0.538 0.621ZM0.355 0.638Q0.367 0.642 0.372 0.652V0.655Q0.359 0.643 0.352 0.643ZM0.476 0.643H0.479L0.485 0.646Q0.485 0.643 0.487 0.643V0.655H0.476L0.479 0.649ZM0.510 0.643H0.513V0.649H0.510ZM0.606 0.643H0.614V0.655H0.606ZM0.636 0.643H0.648V0.655H0.636ZM0.344 0.646H0.347Q0.378 0.666 0.378 0.669H0.375Q0.353 0.655 0.344 0.655ZM0.338 0.658Q0.357 0.669 0.361 0.669V0.672H0.355Q0.331 0.663 0.329 0.663V0.660Q0.332 0.660 0.338 0.658ZM0.380 0.658H0.386V0.660H0.380ZM0.721 0.658Q0.735 0.672 0.743 0.672Q0.738 0.678 0.738 0.683V0.692Q0.727 0.692 0.718 0.697Q0.718 0.686 0.704 0.675Q0.721 0.675 0.721 0.658ZM0.679 0.663Q0.685 0.664 0.685 0.669L0.679 0.672Q0.673 0.672 0.673 0.666ZM0.324 0.666Q0.365 0.686 0.369 0.686V0.689H0.366L0.312 0.672Q0.312 0.675 0.310 0.675V0.669ZM0.361 0.672H0.366V0.675H0.361ZM0.366 0.675H0.372V0.678H0.366ZM0.510 0.675H0.521Q0.518 0.680 0.518 0.683H0.510ZM0.611 0.675H0.614V0.680Q0.614 0.695 0.606 0.697H0.603Q0.598 0.697 0.595 0.689V0.683Q0.597 0.675 0.611 0.675ZM0.636 0.675H0.648V0.683H0.636ZM0.372 0.678H0.378V0.680H0.372ZM0.476 0.678H0.479Q0.485 0.678 0.485 0.683H0.476ZM0.321 0.683H0.329V0.686H0.321ZM0.344 0.692H0.352Q0.358 0.694 0.361 0.694V0.697H0.352Q0.347 0.694 0.344 0.694ZM0.361 0.697H0.369V0.700H0.361ZM0.329 0.700H0.332L0.347 0.703V0.706H0.329ZM0.234 0.706 0.248 0.708V0.714H0.231Q0.234 0.709 0.234 0.706ZM0.347 0.706H0.358V0.708H0.347ZM0.364 0.708H0.369V0.711H0.364ZM0.332 0.714H0.335L0.350 0.717V0.720H0.332ZM0.251 0.722 0.254 0.728V0.736H0.245L0.231 0.739L0.228 0.725L0.234 0.728Q0.242 0.728 0.251 0.722ZM0.532 0.722Q0.578 0.753 0.583 0.753V0.770H0.581Q0.527 0.738 0.527 0.733Q0.532 0.733 0.532 0.722ZM0.690 0.736V0.745H0.671V0.739ZM0.823 0.736Q0.823 0.747 0.831 0.747V0.753Q0.823 0.753 0.823 0.764Q0.813 0.759 0.806 0.759V0.742Q0.816 0.742 0.823 0.736ZM0.515 0.742H0.518Q0.523 0.742 0.527 0.750H0.524Q0.520 0.750 0.515 0.742ZM0.673 0.750H0.688Q0.685 0.756 0.685 0.759H0.676Q0.676 0.756 0.673 0.750ZM0.532 0.753H0.535Q0.580 0.785 0.589 0.785Q0.589 0.782 0.592 0.782V0.793Q0.583 0.793 0.583 0.799V0.804Q0.592 0.804 0.592 0.810V0.815Q0.583 0.825 0.583 0.843Q0.583 0.849 0.586 0.849L0.583 0.868V0.939H0.665V0.981H0.487Q0.482 0.982 0.482 0.987V0.999H0.485Q0.487 0.999 0.507 0.996H0.510V0.999Q0.504 0.999 0.479 1.018H0.476L0.479 1.004V0.981H0.465Q0.462 0.996 0.462 0.999Q0.462 1.018 0.476 1.018Q0.476 1.022 0.460 1.032L0.439 0.953H0.442Q0.451 0.953 0.454 0.939H0.457V0.917Q0.457 0.911 0.462 0.889H0.465V0.900Q0.465 0.916 0.460 0.934Q0.465 0.934 0.465 0.939H0.476Q0.481 0.939 0.485 0.920L0.479 0.909Q0.487 0.909 0.487 0.903V0.889Q0.479 0.889 0.479 0.877V0.868H0.482V0.880H0.487V0.871H0.490V0.936L0.504 0.939H0.532V0.829L0.527 0.832H0.524Q0.517 0.827 0.513 0.827V0.818L0.527 0.815L0.532 0.818V0.804L0.521 0.801V0.788H0.532V0.779Q0.520 0.779 0.515 0.773Q0.516 0.765 0.532 0.759ZM0.763 0.782Q0.767 0.810 0.792 0.810Q0.775 0.825 0.775 0.832L0.772 0.849Q0.757 0.841 0.732 0.829Q0.735 0.824 0.735 0.821L0.724 0.801Q0.746 0.801 0.763 0.782ZM0.189 0.799Q0.203 0.813 0.228 0.813Q0.220 0.831 0.220 0.835Q0.223 0.835 0.223 0.838Q0.208 0.838 0.208 0.843V0.852Q0.191 0.853 0.191 0.863H0.186Q0.186 0.860 0.189 0.860Q0.185 0.835 0.169 0.835Q0.189 0.816 0.189 0.799ZM0.372 0.818V0.824Q0.367 0.824 0.338 0.846L0.332 0.838Q0.338 0.838 0.372 0.818ZM0.482 0.818H0.490V0.829Q0.485 0.827 0.482 0.827ZM0.608 0.818H0.617V0.829Q0.612 0.827 0.608 0.827ZM0.639 0.818H0.650V0.829H0.648L0.642 0.827Q0.642 0.829 0.639 0.829ZM0.372 0.832V0.835Q0.372 0.840 0.352 0.855Q0.347 0.852 0.344 0.852V0.849Q0.350 0.849 0.372 0.832ZM0.482 0.846Q0.487 0.849 0.490 0.849V0.857H0.482ZM0.369 0.849H0.372V0.855Q0.372 0.859 0.364 0.863Q0.358 0.863 0.358 0.857Q0.362 0.857 0.369 0.849ZM0.513 0.849H0.521Q0.521 0.852 0.524 0.857H0.513ZM0.608 0.849H0.617V0.857H0.606Q0.608 0.852 0.608 0.849ZM0.639 0.849H0.650V0.857H0.639ZM0.457 0.868H0.460V0.874H0.457ZM0.513 0.877 0.518 0.880Q0.518 0.877 0.521 0.877V0.889H0.513ZM0.608 0.877H0.617V0.889H0.608ZM0.639 0.877H0.650V0.889H0.639ZM0.499 0.883H0.501Q0.501 0.906 0.504 0.906Q0.501 0.910 0.501 0.920H0.499ZM0.296 0.897H0.298Q0.306 0.903 0.312 0.903V0.920L0.296 0.923Q0.296 0.918 0.287 0.909Q0.296 0.909 0.296 0.897ZM0.513 0.909H0.521V0.920L0.515 0.917Q0.515 0.920 0.513 0.920ZM0.608 0.909H0.617V0.920L0.611 0.917Q0.611 0.920 0.608 0.920ZM0.639 0.909H0.650V0.920Q0.648 0.920 0.648 0.917L0.642 0.920H0.639ZM0.496 0.923 0.501 0.925Q0.499 0.930 0.499 0.936H0.496ZM0.775 0.923Q0.775 0.927 0.786 0.945Q0.780 0.945 0.760 0.956L0.763 0.967Q0.760 0.973 0.760 0.978H0.775L0.783 0.984Q0.786 0.979 0.786 0.973H0.792V0.996Q0.776 0.987 0.769 0.987Q0.764 0.987 0.746 0.993V0.987L0.749 0.967Q0.747 0.967 0.732 0.948Q0.758 0.948 0.775 0.923ZM0.786 0.945Q0.809 0.950 0.809 0.956L0.798 0.964Q0.798 0.956 0.786 0.956ZM0.716 0.959H0.718Q0.724 0.960 0.724 0.964H0.721Q0.716 0.964 0.716 0.959ZM0.304 0.984H0.307Q0.307 0.996 0.329 0.996Q0.325 1.007 0.321 1.007L0.324 1.021V1.024L0.318 1.021H0.315Q0.308 1.021 0.298 1.027Q0.298 1.007 0.287 1.007V1.004Q0.302 1.004 0.304 0.984ZM0.592 1.027Q0.600 1.035 0.611 1.035L0.608 1.049L0.611 1.055Q0.597 1.055 0.589 1.060Q0.589 1.049 0.581 1.041Q0.592 1.041 0.592 1.027ZM0.688 1.032H0.693L0.699 1.035Q0.696 1.039 0.696 1.049L0.690 1.046Q0.685 1.049 0.682 1.049V1.044Q0.688 1.044 0.688 1.032ZM0.417 1.035H0.419V1.041H0.417ZM0.532 1.049H0.535V1.058H0.532Z" fill="black"/>
</svg>
