<svg xmlns="http://www.w3.org/2000/svg" viewBox="0 0 1 1" preserveAspectRatio="xMidYMid meet">
  <path d="M0.551 0.038H0.662L0.632 0.071Q0.635 0.071 0.675 0.114V0.155Q0.675 0.179 0.678 0.187Q0.675 0.211 0.675 0.228V0.308L0.678 0.324Q0.675 0.328 0.675 0.334Q0.681 0.334 0.686 0.316H0.689Q0.689 0.324 0.700 0.329Q0.700 0.332 0.706 0.332H0.714Q0.711 0.337 0.711 0.340Q0.717 0.340 0.730 0.357H0.741Q0.736 0.363 0.736 0.367L0.738 0.373Q0.736 0.377 0.736 0.383Q0.741 0.383 0.741 0.386L0.755 0.383H0.760V0.386Q0.741 0.392 0.738 0.392V0.395Q0.738 0.397 0.741 0.397L0.738 0.403Q0.738 0.406 0.741 0.406L0.738 0.411L0.749 0.422L0.736 0.419H0.727V0.427H0.733Q0.733 0.435 0.724 0.435V0.444L0.736 0.446Q0.736 0.450 0.727 0.454Q0.727 0.448 0.714 0.446L0.711 0.452V0.454H0.716V0.457H0.700Q0.700 0.462 0.698 0.462L0.692 0.460Q0.675 0.465 0.675 0.481V0.506L0.632 0.552Q0.635 0.552 0.675 0.596V0.653H0.695Q0.695 0.660 0.706 0.661Q0.711 0.652 0.711 0.648H0.727L0.733 0.650Q0.727 0.659 0.727 0.664Q0.716 0.664 0.681 0.672Q0.681 0.666 0.675 0.666V0.702H0.681Q0.681 0.692 0.727 0.681L0.741 0.686Q0.741 0.683 0.744 0.683Q0.762 0.699 0.762 0.702V0.710Q0.762 0.744 0.716 0.778Q0.668 0.804 0.665 0.808Q0.660 0.828 0.643 0.860L0.657 0.857H0.667Q0.670 0.857 0.670 0.860L0.675 0.857Q0.700 0.866 0.760 0.895V0.900Q0.695 0.871 0.681 0.871Q0.676 0.874 0.673 0.874V0.871Q0.646 0.874 0.646 0.892V0.898Q0.649 0.898 0.654 0.900Q0.654 0.893 0.695 0.884Q0.719 0.890 0.719 0.898V0.909H0.716Q0.716 0.900 0.706 0.895Q0.671 0.903 0.659 0.920Q0.657 0.920 0.657 0.917Q0.643 0.926 0.610 0.936Q0.585 0.931 0.575 0.931Q0.517 0.979 0.431 0.979Q0.317 0.979 0.238 0.866Q0.238 0.861 0.224 0.851L0.227 0.846Q0.197 0.781 0.197 0.710H0.238Q0.264 0.936 0.444 0.936L0.472 0.933V0.931H0.461Q0.461 0.928 0.464 0.928Q0.464 0.925 0.452 0.912V0.909Q0.466 0.909 0.466 0.890H0.469Q0.474 0.891 0.474 0.895L0.480 0.892H0.485Q0.480 0.903 0.477 0.903Q0.482 0.925 0.496 0.925Q0.515 0.925 0.523 0.903L0.536 0.906Q0.548 0.895 0.548 0.884V0.876H0.553Q0.551 0.881 0.551 0.884Q0.553 0.889 0.553 0.892H0.559V0.884L0.556 0.879Q0.569 0.868 0.577 0.868Q0.577 0.871 0.580 0.871L0.583 0.866Q0.575 0.866 0.575 0.860Q0.598 0.835 0.602 0.835L0.600 0.830Q0.610 0.830 0.610 0.814H0.585Q0.585 0.797 0.561 0.797V0.794Q0.572 0.794 0.572 0.781H0.575Q0.575 0.800 0.610 0.808L0.618 0.786Q0.613 0.786 0.613 0.781V0.776H0.616Q0.621 0.778 0.624 0.778V0.776Q0.629 0.731 0.629 0.704Q0.626 0.704 0.608 0.729Q0.608 0.726 0.585 0.712Q0.575 0.728 0.575 0.735Q0.591 0.745 0.597 0.745Q0.597 0.740 0.602 0.740V0.743Q0.602 0.745 0.600 0.745Q0.605 0.762 0.605 0.767L0.600 0.764H0.597L0.591 0.767V0.764L0.585 0.767H0.583Q0.583 0.761 0.564 0.751H0.559Q0.559 0.759 0.556 0.759L0.551 0.756L0.539 0.762V0.759Q0.539 0.750 0.548 0.740V0.737H0.542Q0.543 0.730 0.564 0.715Q0.564 0.707 0.572 0.707Q0.572 0.704 0.569 0.704Q0.572 0.699 0.572 0.696L0.577 0.699Q0.579 0.689 0.629 0.666V0.495L0.624 0.498H0.621V0.495L0.640 0.473V0.470Q0.605 0.429 0.591 0.424Q0.593 0.400 0.608 0.400V0.395L0.594 0.389L0.597 0.383Q0.590 0.367 0.583 0.367V0.365Q0.591 0.365 0.591 0.359V0.354H0.585Q0.580 0.354 0.580 0.359V0.365Q0.580 0.367 0.583 0.367Q0.580 0.372 0.580 0.375Q0.585 0.384 0.585 0.389Q0.563 0.381 0.553 0.357V0.340Q0.553 0.325 0.564 0.321L0.567 0.326Q0.562 0.326 0.559 0.334V0.348Q0.559 0.361 0.575 0.373H0.577V0.362H0.572Q0.582 0.345 0.585 0.345H0.588Q0.588 0.351 0.600 0.357V0.359Q0.608 0.354 0.613 0.354V0.348H0.605L0.608 0.342L0.613 0.345Q0.617 0.345 0.624 0.334Q0.630 0.334 0.632 0.318Q0.636 0.318 0.640 0.310L0.629 0.296V0.259Q0.613 0.259 0.600 0.239V0.215Q0.626 0.221 0.626 0.247H0.629V0.231Q0.629 0.221 0.618 0.210Q0.623 0.207 0.629 0.207V0.195H0.616V0.182L0.613 0.177L0.624 0.169V0.190H0.629V0.163L0.640 0.149Q0.629 0.137 0.629 0.136V0.087H0.551V0.082L0.561 0.068Q0.557 0.068 0.551 0.057ZM0.675 0.038H0.678Q0.682 0.038 0.711 0.071Q0.711 0.074 0.695 0.087H0.675V0.100Q0.672 0.100 0.643 0.068ZM0.692 0.038H0.757V0.087H0.706L0.722 0.068Q0.718 0.068 0.692 0.038ZM0.602 0.144Q0.619 0.149 0.621 0.158V0.160Q0.621 0.165 0.610 0.171Q0.610 0.167 0.602 0.163H0.600L0.602 0.182L0.597 0.185L0.583 0.169Q0.583 0.155 0.602 0.144ZM0.526 0.155 0.534 0.166 0.531 0.185Q0.548 0.186 0.548 0.193V0.195Q0.539 0.190 0.526 0.190V0.169Q0.526 0.163 0.520 0.163H0.518V0.182Q0.510 0.179 0.510 0.166V0.163Q0.512 0.155 0.526 0.155ZM0.488 0.182H0.504L0.493 0.193V0.198H0.496Q0.501 0.195 0.504 0.195Q0.504 0.200 0.496 0.204Q0.485 0.201 0.485 0.190Q0.488 0.185 0.488 0.182ZM0.420 0.187H0.428Q0.433 0.189 0.433 0.193L0.447 0.190Q0.482 0.209 0.485 0.218L0.480 0.220Q0.449 0.195 0.431 0.195H0.423Q0.407 0.195 0.390 0.218Q0.384 0.218 0.384 0.212Q0.399 0.187 0.420 0.187ZM0.605 0.187V0.193Q0.602 0.198 0.602 0.201H0.600Q0.600 0.198 0.597 0.193ZM0.534 0.198H0.536Q0.542 0.201 0.545 0.201Q0.545 0.207 0.539 0.207Q0.534 0.207 0.534 0.201ZM0.515 0.204 0.520 0.207Q0.526 0.204 0.528 0.204V0.210Q0.520 0.210 0.520 0.223H0.518Q0.518 0.215 0.515 0.204ZM0.594 0.204H0.597V0.207L0.556 0.226L0.553 0.220V0.218Q0.582 0.204 0.594 0.204ZM0.594 0.212H0.600V0.215H0.594ZM0.379 0.220H0.382Q0.387 0.221 0.387 0.226Q0.380 0.244 0.376 0.244V0.239ZM0.490 0.223Q0.504 0.244 0.504 0.250Q0.494 0.244 0.485 0.228Q0.486 0.223 0.490 0.223ZM0.548 0.223 0.551 0.228Q0.530 0.255 0.526 0.256V0.253Q0.530 0.235 0.548 0.223ZM0.412 0.228H0.417Q0.447 0.234 0.447 0.259L0.444 0.272L0.436 0.267L0.423 0.277L0.406 0.275H0.403V0.277L0.415 0.288L0.403 0.296Q0.400 0.275 0.395 0.275L0.390 0.277V0.272H0.403Q0.412 0.269 0.412 0.256L0.417 0.259H0.425V0.247ZM0.515 0.234H0.518Q0.518 0.254 0.520 0.264H0.518L0.512 0.261Q0.515 0.260 0.515 0.234ZM0.384 0.247Q0.384 0.250 0.395 0.264Q0.384 0.264 0.384 0.269V0.272H0.382L0.376 0.253ZM0.499 0.259 0.512 0.269Q0.510 0.274 0.510 0.277Q0.510 0.293 0.520 0.326Q0.501 0.310 0.488 0.310V0.316Q0.499 0.316 0.542 0.365H0.536L0.515 0.345Q0.515 0.351 0.510 0.351L0.472 0.299L0.477 0.296Q0.485 0.296 0.499 0.308H0.501L0.499 0.288ZM0.553 0.259Q0.564 0.259 0.569 0.269Q0.539 0.287 0.539 0.296Q0.536 0.299 0.536 0.318H0.534V0.302Q0.534 0.290 0.551 0.272V0.267Q0.526 0.273 0.526 0.310H0.523L0.515 0.275L0.523 0.269V0.275H0.526Q0.542 0.259 0.553 0.259ZM0.346 0.264Q0.346 0.267 0.366 0.283L0.371 0.280H0.374Q0.374 0.288 0.379 0.288Q0.387 0.288 0.387 0.277H0.390V0.291Q0.390 0.310 0.371 0.310H0.366Q0.342 0.310 0.338 0.277Q0.342 0.264 0.346 0.264ZM0.423 0.291Q0.439 0.302 0.439 0.310V0.313H0.436Q0.436 0.305 0.417 0.299V0.296Q0.418 0.291 0.423 0.291ZM0.575 0.299Q0.591 0.305 0.594 0.316H0.588Q0.588 0.308 0.567 0.308Q0.567 0.303 0.575 0.299ZM0.559 0.302 0.553 0.310Q0.556 0.315 0.556 0.318Q0.553 0.318 0.539 0.337Q0.539 0.335 0.536 0.321Q0.551 0.302 0.559 0.302ZM0.738 0.302Q0.744 0.302 0.744 0.308V0.310Q0.738 0.310 0.733 0.313V0.308Q0.733 0.302 0.738 0.302ZM0.406 0.305H0.412Q0.412 0.311 0.431 0.318Q0.431 0.321 0.433 0.326H0.431Q0.406 0.316 0.406 0.305ZM0.464 0.305H0.469V0.308H0.464ZM0.439 0.313H0.441V0.318H0.439ZM0.678 0.313H0.681V0.318H0.678ZM0.569 0.316H0.580V0.318Q0.577 0.318 0.572 0.321ZM0.602 0.316H0.608V0.326Q0.602 0.326 0.602 0.321Q0.605 0.321 0.605 0.318Q0.602 0.318 0.602 0.316ZM0.594 0.340H0.600V0.342H0.594ZM0.675 0.345 0.632 0.392 0.678 0.435Q0.678 0.432 0.703 0.419Q0.703 0.410 0.722 0.389Q0.685 0.352 0.675 0.345ZM0.597 0.362V0.367Q0.597 0.373 0.602 0.373H0.608V0.370Q0.608 0.366 0.600 0.362ZM0.675 0.359Q0.675 0.382 0.686 0.392Q0.675 0.412 0.675 0.422Q0.672 0.422 0.643 0.389ZM0.515 0.367H0.528Q0.533 0.367 0.539 0.378H0.536Q0.527 0.373 0.520 0.373L0.507 0.375Q0.507 0.371 0.515 0.367ZM0.752 0.367H0.757V0.370H0.752ZM0.744 0.370H0.749V0.373H0.744ZM0.551 0.378H0.556V0.383Q0.551 0.383 0.551 0.378ZM0.768 0.381H0.773V0.383H0.768ZM0.559 0.386H0.561Q0.567 0.387 0.567 0.392H0.564Q0.559 0.392 0.559 0.386ZM0.708 0.386H0.711V0.392H0.708ZM0.559 0.392H0.561V0.397H0.559ZM0.567 0.392H0.572V0.395H0.567ZM0.572 0.395H0.575L0.591 0.403V0.397H0.594V0.406Q0.579 0.406 0.572 0.395ZM0.556 0.397H0.559V0.406H0.556ZM0.747 0.400H0.760V0.403Q0.751 0.403 0.747 0.406ZM0.768 0.400H0.773V0.403H0.768ZM0.428 0.408H0.433Q0.478 0.419 0.482 0.419Q0.481 0.424 0.469 0.429L0.441 0.427L0.436 0.435Q0.436 0.439 0.444 0.444Q0.447 0.444 0.472 0.441Q0.484 0.446 0.485 0.452V0.454H0.482Q0.473 0.454 0.425 0.457Q0.409 0.454 0.409 0.449V0.446L0.412 0.429Q0.409 0.425 0.409 0.416Q0.419 0.408 0.428 0.408ZM0.553 0.411H0.556V0.422H0.553ZM0.681 0.411H0.684V0.419H0.681ZM0.542 0.419H0.545Q0.545 0.435 0.585 0.435Q0.568 0.457 0.559 0.457Q0.559 0.464 0.553 0.470V0.478Q0.565 0.478 0.569 0.490Q0.561 0.490 0.561 0.501V0.637H0.559V0.490L0.553 0.487V0.704H0.545V0.470L0.528 0.468V0.465H0.545V0.460H0.528V0.465Q0.523 0.465 0.523 0.460V0.457L0.542 0.454ZM0.395 0.427H0.400V0.429Q0.390 0.429 0.382 0.444V0.449Q0.382 0.473 0.417 0.481H0.439Q0.461 0.481 0.488 0.476H0.493V0.478L0.431 0.487Q0.412 0.487 0.357 0.462Q0.353 0.460 0.343 0.460Q0.311 0.460 0.297 0.514Q0.297 0.530 0.308 0.544V0.547Q0.299 0.547 0.294 0.517V0.509Q0.294 0.461 0.351 0.454L0.376 0.462V0.438Q0.380 0.427 0.395 0.427ZM0.482 0.429H0.493V0.435H0.482ZM0.548 0.435V0.438Q0.550 0.452 0.556 0.452H0.561Q0.561 0.446 0.569 0.446V0.444Q0.569 0.438 0.564 0.438H0.561V0.444H0.559Q0.559 0.435 0.548 0.435ZM0.600 0.435V0.441H0.594Q0.595 0.435 0.600 0.435ZM0.507 0.441H0.518L0.515 0.454V0.462Q0.526 0.475 0.526 0.476H0.523Q0.499 0.473 0.499 0.452V0.449Q0.499 0.445 0.507 0.441ZM0.616 0.457Q0.610 0.466 0.610 0.470H0.613L0.624 0.462L0.632 0.473L0.613 0.490H0.605L0.608 0.484V0.481Q0.608 0.476 0.594 0.476V0.473H0.605V0.462H0.600Q0.585 0.462 0.585 0.470H0.577V0.465Q0.600 0.454 0.616 0.454ZM0.741 0.454 0.744 0.460V0.465Q0.740 0.465 0.736 0.457ZM0.588 0.470H0.594V0.473H0.588ZM0.569 0.473H0.575Q0.575 0.478 0.583 0.484L0.577 0.487L0.569 0.476ZM0.591 0.484H0.597Q0.594 0.488 0.594 0.501H0.591ZM0.569 0.490Q0.574 0.490 0.580 0.501V0.530Q0.580 0.536 0.575 0.536Q0.569 0.536 0.569 0.530ZM0.591 0.511H0.594V0.568H0.591ZM0.626 0.517V0.522H0.621Q0.622 0.517 0.626 0.517ZM0.675 0.519V0.585Q0.672 0.585 0.643 0.552Q0.643 0.548 0.675 0.519ZM0.602 0.530H0.608V0.533H0.602ZM0.363 0.536Q0.368 0.545 0.368 0.550Q0.364 0.550 0.354 0.563V0.566L0.379 0.563Q0.387 0.577 0.387 0.585Q0.383 0.585 0.371 0.591Q0.360 0.588 0.360 0.577H0.351L0.354 0.596L0.349 0.599H0.333L0.330 0.579Q0.349 0.568 0.349 0.563Q0.341 0.550 0.341 0.542V0.539Q0.353 0.536 0.363 0.536ZM0.314 0.552H0.316Q0.322 0.553 0.322 0.558H0.319Q0.314 0.558 0.314 0.552ZM0.322 0.558H0.330V0.560H0.322ZM0.330 0.560H0.335V0.563H0.330ZM0.883 0.607H0.888V0.609H0.883ZM0.883 0.609Q0.883 0.620 0.825 0.640V0.632Q0.825 0.628 0.883 0.609ZM0.803 0.632H0.817V0.642L0.785 0.650Q0.785 0.646 0.803 0.632ZM0.776 0.637V0.640L0.782 0.637H0.787Q0.776 0.656 0.755 0.656H0.749Q0.744 0.656 0.738 0.645L0.744 0.642H0.747Q0.755 0.642 0.768 0.650Q0.770 0.637 0.776 0.637ZM0.267 0.666H0.270V0.672H0.267ZM0.302 0.666H0.305V0.672H0.302ZM0.270 0.675H0.273V0.681H0.270ZM0.300 0.675H0.302V0.681H0.300ZM0.703 0.691 0.706 0.696Q0.698 0.696 0.698 0.710Q0.708 0.714 0.708 0.718Q0.696 0.732 0.695 0.732L0.686 0.727H0.684Q0.678 0.727 0.678 0.732Q0.681 0.732 0.681 0.735H0.675V0.745Q0.675 0.751 0.684 0.751V0.756Q0.678 0.762 0.678 0.773L0.673 0.770Q0.673 0.777 0.670 0.792V0.794H0.673V0.786H0.675L0.681 0.789V0.786Q0.678 0.786 0.678 0.784Q0.689 0.784 0.716 0.767Q0.716 0.770 0.719 0.770V0.767Q0.716 0.767 0.716 0.764Q0.752 0.750 0.752 0.712Q0.744 0.704 0.719 0.696Q0.719 0.695 0.711 0.688Q0.706 0.691 0.703 0.691ZM0.281 0.699H0.284V0.704H0.281ZM0.289 0.699H0.292V0.704H0.289ZM0.341 0.715H0.349V0.718H0.341ZM0.343 0.729H0.354V0.732H0.343ZM0.605 0.729H0.608V0.735H0.605ZM0.346 0.745H0.354V0.748H0.346ZM0.341 0.759H0.346V0.762H0.341ZM0.548 0.764H0.551Q0.551 0.772 0.567 0.784Q0.561 0.784 0.561 0.792Q0.559 0.792 0.559 0.789L0.553 0.792H0.542Q0.542 0.778 0.536 0.778Q0.542 0.766 0.548 0.764ZM0.330 0.767Q0.335 0.768 0.335 0.773H0.330ZM0.577 0.770H0.580V0.776H0.577ZM0.575 0.776H0.577V0.781H0.575ZM0.322 0.781H0.325V0.786H0.322ZM0.278 0.789H0.281V0.794H0.278ZM0.292 0.789H0.294V0.794H0.292ZM0.308 0.789H0.311V0.794H0.308ZM0.117 0.792 0.120 0.797V0.800H0.117Q0.112 0.800 0.112 0.794ZM0.276 0.797H0.278V0.802H0.276ZM0.551 0.797H0.559V0.800H0.551ZM0.510 0.805 0.515 0.808Q0.520 0.805 0.526 0.805L0.528 0.811V0.822L0.526 0.827Q0.528 0.827 0.528 0.830L0.510 0.833H0.507Q0.507 0.828 0.501 0.819Q0.504 0.819 0.504 0.816Q0.501 0.816 0.501 0.814Q0.510 0.814 0.510 0.805ZM0.531 0.808H0.536Q0.548 0.808 0.548 0.827Q0.531 0.833 0.531 0.849Q0.531 0.857 0.539 0.857Q0.539 0.864 0.518 0.868H0.504Q0.500 0.868 0.496 0.857H0.515V0.851Q0.515 0.849 0.512 0.849Q0.512 0.840 0.531 0.835Q0.531 0.831 0.536 0.822ZM0.496 0.811V0.825Q0.501 0.835 0.510 0.835V0.838H0.499Q0.488 0.819 0.477 0.819V0.816ZM0.161 0.830 0.164 0.835V0.841Q0.164 0.846 0.158 0.846Q0.149 0.841 0.145 0.841V0.838Q0.151 0.838 0.161 0.830ZM0.458 0.830Q0.458 0.854 0.477 0.854V0.857Q0.458 0.857 0.458 0.876Q0.447 0.871 0.447 0.868Q0.449 0.860 0.452 0.860L0.444 0.843Q0.450 0.831 0.458 0.830ZM0.510 0.838H0.515V0.841H0.510ZM0.441 0.846Q0.441 0.849 0.444 0.849Q0.442 0.871 0.428 0.871V0.868Q0.435 0.846 0.441 0.846ZM0.425 0.876H0.431V0.879H0.425ZM0.441 0.876Q0.458 0.878 0.458 0.884V0.895Q0.453 0.906 0.439 0.906L0.431 0.895V0.890Q0.438 0.876 0.441 0.876ZM0.493 0.884H0.499V0.887H0.493ZM0.501 0.884H0.504Q0.510 0.885 0.510 0.890H0.507Q0.501 0.890 0.501 0.884ZM0.618 0.890Q0.618 0.895 0.597 0.917Q0.600 0.917 0.600 0.915L0.613 0.917Q0.633 0.917 0.634 0.909V0.903Q0.624 0.903 0.624 0.890ZM0.507 0.892Q0.515 0.904 0.515 0.912Q0.503 0.923 0.499 0.923L0.485 0.915Q0.487 0.892 0.507 0.892ZM0.768 0.898Q0.773 0.900 0.776 0.900V0.903H0.768ZM0.779 0.903H0.787V0.906H0.779ZM0.433 0.909H0.439V0.912H0.433ZM0.714 0.909H0.716V0.915H0.714ZM0.665 0.917H0.678V0.923L0.665 0.920ZM0.681 0.920H0.700V0.923H0.681Z" fill="black"/>
</svg>
