<svg xmlns="http://www.w3.org/2000/svg" viewBox="0 0 1 1" preserveAspectRatio="xMidYMid meet">
  <path d="M0.571 0.003H0.577Q0.591 0.010 0.591 0.031V0.039Q0.574 0.056 0.574 0.059H0.571Q0.571 0.053 0.568 0.048Q0.574 0.025 0.574 0.020H0.571Q0.565 0.020 0.565 0.028Q0.560 0.028 0.553 0.009Q0.563 0.003 0.571 0.003ZM0.653 0.011H0.658Q0.661 0.011 0.669 0.023Q0.666 0.037 0.661 0.037Q0.661 0.028 0.658 0.028L0.661 0.023V0.020H0.658Q0.654 0.020 0.650 0.031L0.653 0.048H0.644Q0.630 0.048 0.630 0.056H0.627V0.048Q0.637 0.042 0.644 0.042V0.037Q0.644 0.030 0.641 0.025Q0.647 0.013 0.653 0.011ZM0.548 0.020H0.551Q0.551 0.023 0.559 0.054Q0.500 0.054 0.500 0.034L0.520 0.031Q0.526 0.031 0.545 0.048H0.548ZM0.681 0.037Q0.692 0.041 0.692 0.045V0.054Q0.692 0.058 0.681 0.062L0.664 0.059Q0.664 0.057 0.672 0.051Q0.682 0.056 0.686 0.056V0.054Q0.681 0.042 0.672 0.042V0.039Q0.681 0.039 0.681 0.037ZM0.251 0.039H0.257Q0.257 0.045 0.251 0.045ZM0.268 0.039H0.302V0.059Q0.277 0.094 0.251 0.111V0.056Q0.251 0.055 0.268 0.039ZM0.492 0.039H0.494Q0.500 0.063 0.500 0.065Q0.492 0.062 0.492 0.048ZM0.712 0.039H0.771L0.769 0.045Q0.808 0.062 0.808 0.099H0.805Q0.805 0.102 0.808 0.102L0.802 0.130H0.799Q0.799 0.122 0.794 0.122L0.788 0.125V0.122Q0.799 0.110 0.799 0.099V0.097Q0.786 0.054 0.760 0.054Q0.678 0.132 0.678 0.144Q0.678 0.159 0.675 0.170H0.678Q0.690 0.158 0.701 0.158H0.707Q0.710 0.158 0.715 0.167Q0.707 0.167 0.695 0.175H0.692V0.170Q0.679 0.170 0.655 0.189V0.186Q0.664 0.166 0.667 0.150Q0.655 0.155 0.655 0.167L0.650 0.164Q0.640 0.175 0.636 0.201H0.633Q0.633 0.189 0.627 0.189Q0.627 0.195 0.622 0.195Q0.624 0.201 0.624 0.204Q0.624 0.238 0.588 0.252Q0.594 0.242 0.594 0.235V0.232H0.588L0.577 0.246L0.579 0.252V0.255Q0.574 0.255 0.556 0.198L0.559 0.192Q0.556 0.192 0.556 0.189Q0.565 0.189 0.565 0.181V0.178H0.568L0.574 0.181Q0.574 0.178 0.613 0.136V0.133H0.605Q0.605 0.120 0.636 0.116L0.641 0.108Q0.632 0.085 0.582 0.068L0.574 0.059Q0.644 0.078 0.644 0.102H0.647Q0.652 0.102 0.658 0.091V0.082Q0.658 0.062 0.630 0.062Q0.630 0.056 0.638 0.056Q0.642 0.056 0.661 0.065V0.088ZM0.508 0.056H0.511Q0.542 0.065 0.553 0.065V0.068Q0.539 0.084 0.539 0.102V0.108H0.545Q0.545 0.093 0.562 0.077H0.565V0.108Q0.565 0.115 0.536 0.119H0.528L0.522 0.102Q0.522 0.092 0.531 0.079V0.071H0.511ZM0.302 0.074V0.241Q0.254 0.273 0.254 0.280H0.251V0.125ZM0.763 0.088H0.769Q0.769 0.091 0.755 0.108V0.113Q0.756 0.119 0.760 0.119H0.763L0.769 0.116L0.777 0.133L0.763 0.136H0.743Q0.738 0.136 0.732 0.119Q0.740 0.088 0.763 0.088ZM0.574 0.091H0.577V0.097H0.574ZM0.837 0.125H0.840Q0.845 0.126 0.845 0.130V0.144Q0.845 0.167 0.814 0.172Q0.794 0.172 0.794 0.153V0.141L0.802 0.147H0.805Q0.831 0.138 0.831 0.133Q0.831 0.125 0.837 0.125ZM0.777 0.133H0.794V0.139L0.788 0.136Q0.785 0.136 0.774 0.175Q0.756 0.186 0.749 0.186Q0.749 0.181 0.771 0.167V0.158H0.766Q0.743 0.169 0.743 0.181H0.740V0.172Q0.750 0.151 0.780 0.141V0.139ZM0.423 0.164H0.429Q0.435 0.165 0.435 0.170V0.172L0.429 0.170L0.423 0.172ZM0.489 0.172H0.492Q0.493 0.184 0.503 0.184Q0.510 0.184 0.522 0.175Q0.522 0.189 0.536 0.189Q0.547 0.195 0.568 0.255L0.565 0.260Q0.571 0.265 0.577 0.305Q0.574 0.305 0.568 0.308Q0.568 0.279 0.542 0.221H0.539Q0.530 0.221 0.514 0.297V0.337L0.517 0.342Q0.513 0.342 0.503 0.354H0.500Q0.496 0.354 0.492 0.334Q0.475 0.334 0.475 0.291Q0.472 0.291 0.472 0.280Q0.484 0.280 0.489 0.243Q0.503 0.239 0.503 0.232H0.506V0.241H0.511Q0.516 0.241 0.528 0.224Q0.516 0.215 0.508 0.215L0.511 0.210Q0.503 0.210 0.489 0.175ZM0.692 0.175V0.178Q0.675 0.210 0.647 0.227V0.229Q0.669 0.229 0.669 0.238Q0.642 0.238 0.619 0.249L0.641 0.229V0.227H0.636Q0.678 0.175 0.692 0.175ZM0.480 0.178Q0.486 0.179 0.486 0.184H0.480ZM0.539 0.181H0.545V0.184H0.539ZM0.181 0.184Q0.189 0.201 0.215 0.201L0.203 0.218V0.221L0.206 0.241L0.192 0.238H0.189Q0.181 0.238 0.166 0.246Q0.166 0.218 0.149 0.210Q0.171 0.210 0.178 0.184ZM0.464 0.192Q0.466 0.192 0.466 0.195L0.472 0.192H0.480Q0.473 0.222 0.461 0.249Q0.461 0.252 0.458 0.258Q0.466 0.308 0.478 0.345V0.351Q0.455 0.332 0.441 0.260V0.235Q0.441 0.211 0.464 0.192ZM0.492 0.192Q0.498 0.212 0.506 0.212V0.215Q0.486 0.215 0.483 0.218V0.215Q0.486 0.192 0.492 0.192ZM0.599 0.221H0.602Q0.599 0.224 0.599 0.235Q0.619 0.225 0.619 0.207V0.201Q0.614 0.201 0.599 0.221ZM0.423 0.218H0.432V0.224Q0.426 0.221 0.423 0.221ZM0.415 0.232H0.421V0.235H0.415ZM0.426 0.235H0.432V0.238H0.426ZM0.536 0.241H0.542Q0.559 0.291 0.559 0.305Q0.555 0.305 0.551 0.314V0.316H0.559L0.556 0.322L0.551 0.319H0.545V0.322L0.553 0.334Q0.550 0.345 0.545 0.345H0.542Q0.539 0.345 0.534 0.337H0.539V0.334Q0.539 0.328 0.525 0.328V0.331H0.522V0.302Q0.522 0.286 0.536 0.241ZM0.384 0.243H0.404V0.246H0.384ZM0.404 0.246H0.412L0.429 0.249Q0.429 0.246 0.432 0.246Q0.432 0.264 0.435 0.283L0.418 0.286L0.429 0.274Q0.429 0.272 0.426 0.272L0.429 0.266L0.426 0.260Q0.429 0.260 0.429 0.258Q0.414 0.249 0.404 0.249ZM0.610 0.249H0.619Q0.616 0.254 0.616 0.258Q0.610 0.258 0.610 0.252ZM0.302 0.252V0.449H0.305Q0.415 0.337 0.418 0.337L0.449 0.376Q0.316 0.507 0.316 0.515Q0.316 0.519 0.336 0.534H0.339L0.342 0.520V0.512Q0.342 0.509 0.339 0.509Q0.342 0.504 0.342 0.501H0.345Q0.345 0.506 0.347 0.506L0.345 0.512V0.543Q0.356 0.554 0.356 0.560H0.359Q0.359 0.538 0.364 0.490H0.367Q0.367 0.525 0.370 0.540Q0.364 0.550 0.364 0.557V0.565Q0.600 0.809 0.638 0.845Q0.638 0.837 0.664 0.828Q0.681 0.829 0.704 0.851H0.698Q0.701 0.866 0.707 0.866V0.857H0.710Q0.710 0.860 0.712 0.866Q0.710 0.871 0.710 0.874Q0.715 0.871 0.718 0.871V0.854H0.721V0.866H0.724L0.732 0.860H0.735Q0.746 0.911 0.771 0.911Q0.785 0.919 0.785 0.922Q0.785 0.923 0.752 0.953V0.964L0.771 0.987H0.746V0.996Q0.739 0.988 0.704 0.984Q0.698 0.973 0.689 0.973Q0.686 0.973 0.661 0.975L0.669 0.944Q0.668 0.944 0.655 0.933V0.984H0.653V0.927L0.644 0.922V0.925Q0.644 0.927 0.647 0.927L0.644 0.933V0.956H0.636Q0.636 0.941 0.619 0.941V0.944Q0.622 0.964 0.622 0.975V0.984L0.619 0.999L0.624 1.001V0.993H0.627Q0.627 0.998 0.633 1.007Q0.630 1.012 0.630 1.018L0.624 1.015H0.619L0.622 1.021Q0.622 1.029 0.619 1.029L0.622 1.043V1.094H0.619Q0.613 1.094 0.613 1.088V0.987L0.616 0.973H0.605V0.964H0.610L0.616 0.967V0.958H0.608V0.953Q0.608 0.947 0.616 0.947Q0.616 0.927 0.610 0.927L0.613 0.922V0.891Q0.613 0.887 0.605 0.883Q0.582 0.901 0.582 0.916Q0.585 0.916 0.585 0.919Q0.577 0.919 0.577 0.930L0.571 0.927H0.568Q0.527 0.967 0.500 0.967Q0.495 0.964 0.489 0.964V0.961Q0.539 0.961 0.562 0.916V0.913L0.559 0.908Q0.582 0.908 0.602 0.877Q0.597 0.875 0.376 0.651H0.367L0.370 0.645Q0.370 0.639 0.364 0.639L0.359 0.642V0.639L0.362 0.634L0.345 0.620V0.625L0.347 0.639Q0.343 0.639 0.331 0.622V0.620H0.339Q0.333 0.603 0.305 0.579H0.302V0.665H0.305V0.659H0.308V0.667Q0.302 0.669 0.302 0.673V0.693Q0.302 0.717 0.311 0.727Q0.308 0.732 0.308 0.738H0.305V0.730H0.302V0.738H0.305L0.302 0.744V0.823L0.311 0.817Q0.314 0.817 0.319 0.825V0.834Q0.325 0.834 0.328 0.848H0.331Q0.336 0.848 0.336 0.842Q0.345 0.845 0.347 0.854L0.336 0.863Q0.336 0.858 0.328 0.854L0.319 0.860H0.311L0.302 0.854V0.874L0.311 0.868H0.319Q0.323 0.868 0.328 0.877Q0.328 0.894 0.311 0.894L0.302 0.888V0.987H0.251V0.897L0.248 0.880Q0.251 0.874 0.251 0.866V0.837Q0.251 0.831 0.248 0.825Q0.251 0.821 0.251 0.814V0.781Q0.251 0.772 0.248 0.772L0.251 0.758V0.614Q0.251 0.604 0.248 0.600L0.251 0.582V0.492Q0.251 0.490 0.248 0.490L0.251 0.484V0.449L0.245 0.452Q0.240 0.452 0.240 0.447Q0.241 0.447 0.251 0.444V0.357Q0.251 0.351 0.243 0.351V0.348H0.251V0.342Q0.251 0.340 0.248 0.340L0.251 0.334Q0.251 0.331 0.248 0.331Q0.260 0.266 0.285 0.266Q0.285 0.262 0.302 0.252ZM0.605 0.255H0.610V0.258H0.605ZM0.599 0.258H0.605V0.260H0.599ZM0.599 0.260Q0.599 0.267 0.585 0.269H0.582V0.266ZM0.616 0.260H0.619V0.266H0.616ZM0.401 0.263H0.415V0.266H0.401ZM0.418 0.263H0.423Q0.423 0.269 0.418 0.269ZM0.579 0.269H0.582V0.274H0.579ZM0.619 0.269H0.622V0.294H0.624Q0.630 0.294 0.630 0.286H0.633V0.319Q0.649 0.322 0.655 0.322Q0.653 0.328 0.653 0.331H0.647V0.325H0.633V0.331H0.647V0.334Q0.633 0.334 0.633 0.340V0.565L0.630 0.579H0.624Q0.624 0.577 0.622 0.571Q0.624 0.456 0.624 0.399V0.354H0.619L0.616 0.365V0.506H0.613V0.365Q0.610 0.360 0.610 0.357H0.605V0.376Q0.605 0.383 0.608 0.388Q0.604 0.404 0.599 0.404Q0.594 0.404 0.594 0.399V0.351H0.585V0.348Q0.599 0.348 0.599 0.337L0.610 0.345H0.613V0.342L0.605 0.328H0.619V0.319H0.610L0.605 0.322Q0.605 0.314 0.588 0.314V0.311H0.594V0.305H0.585V0.300H0.588Q0.619 0.298 0.619 0.294ZM0.752 0.272Q0.764 0.272 0.774 0.283Q0.771 0.288 0.771 0.291Q0.774 0.311 0.774 0.314Q0.765 0.322 0.760 0.322Q0.695 0.319 0.692 0.319Q0.697 0.305 0.712 0.305Q0.727 0.308 0.740 0.308L0.743 0.302V0.294Q0.740 0.294 0.735 0.291L0.710 0.294Q0.698 0.290 0.698 0.286V0.283ZM0.398 0.277H0.404V0.280H0.398ZM0.783 0.291H0.791Q0.803 0.295 0.808 0.305V0.319Q0.799 0.331 0.799 0.337L0.794 0.334Q0.802 0.319 0.802 0.311Q0.796 0.294 0.783 0.294ZM0.438 0.294H0.441V0.300H0.438ZM0.686 0.294H0.692Q0.698 0.295 0.698 0.300H0.686ZM0.616 0.311H0.613V0.302Q0.608 0.304 0.608 0.308V0.314L0.613 0.311V0.316H0.624Q0.624 0.312 0.630 0.300H0.627Q0.616 0.302 0.616 0.311ZM0.240 0.302H0.245V0.308Q0.240 0.308 0.240 0.302ZM0.661 0.305H0.669Q0.674 0.305 0.678 0.314V0.319Q0.678 0.342 0.655 0.342H0.650V0.340Q0.661 0.340 0.661 0.322ZM0.229 0.308 0.243 0.311V0.316Q0.227 0.314 0.220 0.314V0.311Q0.223 0.311 0.229 0.308ZM0.444 0.308Q0.466 0.353 0.466 0.360L0.455 0.368Q0.450 0.367 0.423 0.331Q0.426 0.308 0.444 0.308ZM0.574 0.314H0.577V0.319H0.574ZM0.571 0.319 0.574 0.325Q0.568 0.332 0.568 0.337V0.345Q0.561 0.365 0.545 0.365L0.542 0.360Q0.562 0.344 0.568 0.319ZM0.842 0.319Q0.880 0.319 0.893 0.376V0.388L0.887 0.407H0.885V0.404Q0.885 0.399 0.890 0.382Q0.878 0.325 0.837 0.325Q0.831 0.325 0.811 0.334V0.325Q0.834 0.319 0.842 0.319ZM0.231 0.322H0.240V0.328H0.237Q0.231 0.328 0.231 0.322ZM0.605 0.322V0.328H0.599Q0.600 0.322 0.605 0.322ZM0.582 0.325Q0.591 0.331 0.596 0.331V0.337H0.588Q0.588 0.331 0.582 0.331ZM0.619 0.334V0.345H0.624V0.334ZM0.582 0.337H0.588V0.340H0.582ZM0.684 0.340Q0.689 0.342 0.698 0.342V0.345H0.684ZM0.169 0.342Q0.174 0.345 0.181 0.345Q0.175 0.352 0.175 0.357Q0.178 0.362 0.178 0.365H0.163L0.158 0.368Q0.158 0.360 0.152 0.354ZM0.698 0.345H0.701Q0.717 0.348 0.777 0.348V0.351Q0.762 0.351 0.752 0.354L0.698 0.348ZM0.579 0.351H0.585Q0.585 0.357 0.579 0.357ZM0.579 0.368H0.582V0.438H0.579ZM0.545 0.385Q0.551 0.386 0.551 0.390H0.545ZM0.568 0.396H0.571V0.402H0.568ZM0.822 0.402Q0.840 0.407 0.845 0.407V0.410Q0.837 0.435 0.837 0.438Q0.857 0.445 0.857 0.449V0.455Q0.857 0.461 0.851 0.461Q0.832 0.438 0.825 0.438L0.828 0.432V0.430Q0.816 0.420 0.816 0.410Q0.822 0.410 0.822 0.402ZM0.885 0.407V0.410Q0.885 0.414 0.871 0.424H0.868Q0.868 0.421 0.885 0.407ZM0.124 0.416Q0.137 0.427 0.155 0.427L0.149 0.441L0.155 0.458Q0.130 0.458 0.124 0.467Q0.124 0.455 0.107 0.438Q0.124 0.438 0.124 0.416ZM0.862 0.424H0.868V0.427H0.862ZM0.857 0.427H0.862V0.430H0.857ZM0.808 0.430H0.811Q0.811 0.435 0.822 0.449V0.452Q0.822 0.458 0.816 0.458Q0.805 0.458 0.794 0.452Q0.804 0.430 0.808 0.430ZM0.848 0.430H0.854V0.432H0.848ZM0.178 0.435Q0.181 0.435 0.192 0.449L0.186 0.452Q0.186 0.448 0.178 0.438ZM0.192 0.455H0.195V0.461H0.192ZM0.201 0.470Q0.203 0.470 0.209 0.478H0.231V0.481Q0.212 0.481 0.212 0.484V0.487Q0.207 0.484 0.201 0.484L0.203 0.478Q0.201 0.473 0.201 0.470ZM0.376 0.478H0.378V0.512H0.376ZM0.192 0.481H0.195V0.487H0.192ZM0.234 0.481H0.243V0.484H0.234ZM0.243 0.484H0.248V0.487H0.243ZM0.345 0.490H0.347V0.495H0.345ZM0.212 0.495 0.220 0.501Q0.220 0.498 0.223 0.498Q0.223 0.504 0.226 0.504Q0.223 0.513 0.215 0.515Q0.206 0.513 0.203 0.504Q0.212 0.504 0.212 0.495ZM0.237 0.509H0.240V0.515H0.237ZM0.229 0.512H0.231V0.518H0.229ZM0.373 0.512H0.376V0.520H0.373ZM0.231 0.518H0.234V0.523H0.231ZM0.234 0.523H0.237V0.529H0.234ZM0.245 0.526 0.248 0.554V0.557H0.245Q0.240 0.536 0.240 0.529ZM0.229 0.534H0.231V0.540H0.229ZM0.231 0.543H0.234V0.548H0.231ZM0.234 0.551H0.237V0.557H0.234ZM0.237 0.557H0.240V0.565H0.237ZM0.240 0.565H0.243V0.574H0.240ZM0.217 0.568H0.223V0.574H0.226L0.231 0.571L0.234 0.585H0.231L0.234 0.591V0.597L0.220 0.594Q0.220 0.600 0.215 0.600Q0.213 0.585 0.206 0.585V0.579Q0.217 0.579 0.217 0.568ZM0.243 0.574H0.245V0.582H0.243ZM0.245 0.582H0.248V0.594H0.245ZM0.314 0.636H0.316V0.642H0.314ZM0.322 0.645H0.333Q0.339 0.646 0.339 0.651H0.336L0.322 0.648ZM0.333 0.653Q0.339 0.655 0.339 0.659V0.662H0.333ZM0.376 0.653V0.662H0.373Q0.367 0.662 0.367 0.656Q0.370 0.656 0.376 0.653ZM0.316 0.679Q0.322 0.680 0.322 0.684L0.314 0.690L0.311 0.684Q0.311 0.679 0.316 0.679ZM0.387 0.679H0.395V0.684Q0.395 0.690 0.390 0.690L0.387 0.684ZM0.406 0.690H0.412V0.693H0.406ZM0.155 0.698 0.163 0.710 0.152 0.718 0.143 0.707ZM0.345 0.701H0.353Q0.357 0.701 0.362 0.712H0.359L0.362 0.718Q0.359 0.727 0.345 0.727Q0.340 0.727 0.336 0.718V0.710Q0.336 0.706 0.345 0.701ZM0.392 0.704 0.395 0.710V0.718H0.387V0.710Q0.388 0.704 0.392 0.704ZM0.409 0.704H0.415V0.707H0.409ZM0.316 0.707 0.322 0.710Q0.319 0.715 0.319 0.718H0.316Q0.311 0.718 0.311 0.712Q0.311 0.707 0.316 0.707ZM0.415 0.707H0.421Q0.426 0.708 0.426 0.712V0.727H0.423Q0.423 0.721 0.415 0.707ZM0.184 0.724Q0.184 0.729 0.192 0.738L0.181 0.747L0.172 0.736Q0.172 0.731 0.184 0.724ZM0.401 0.727H0.406V0.730H0.401ZM0.398 0.730H0.401V0.736H0.398ZM0.421 0.730H0.423V0.736H0.421ZM0.231 0.733 0.240 0.744 0.229 0.753Q0.224 0.753 0.220 0.744Q0.220 0.739 0.231 0.733ZM0.333 0.733Q0.340 0.741 0.347 0.741V0.744L0.331 0.750H0.328V0.747Q0.333 0.747 0.333 0.733ZM0.373 0.733 0.378 0.750H0.367Q0.367 0.744 0.364 0.744Q0.368 0.733 0.373 0.733ZM0.319 0.750H0.328V0.753H0.319ZM0.378 0.750H0.390V0.753H0.378ZM0.359 0.753H0.362V0.758H0.359ZM0.390 0.753H0.392V0.761H0.390ZM0.314 0.755Q0.319 0.756 0.319 0.761V0.764Q0.314 0.764 0.314 0.758ZM0.347 0.755Q0.347 0.759 0.356 0.764H0.362V0.758Q0.366 0.758 0.376 0.772V0.775H0.370V0.781Q0.371 0.786 0.376 0.786L0.390 0.778H0.392Q0.398 0.779 0.398 0.783Q0.392 0.783 0.387 0.803Q0.376 0.803 0.376 0.789H0.364V0.795H0.362V0.775Q0.345 0.785 0.345 0.792L0.339 0.789H0.336V0.803Q0.336 0.807 0.328 0.811H0.322Q0.318 0.811 0.314 0.803V0.792Q0.314 0.788 0.325 0.783Q0.330 0.786 0.336 0.786V0.778H0.331Q0.331 0.761 0.347 0.755ZM0.203 0.761Q0.207 0.761 0.212 0.769Q0.212 0.773 0.201 0.781L0.192 0.769ZM0.231 0.786Q0.231 0.791 0.240 0.800L0.229 0.809L0.220 0.797Q0.220 0.793 0.231 0.786ZM0.345 0.792H0.347V0.797H0.345ZM0.658 0.803H0.667V0.806H0.658ZM0.661 0.811H0.678V0.814H0.661ZM0.203 0.814 0.212 0.825Q0.212 0.830 0.201 0.837L0.192 0.825Q0.192 0.822 0.203 0.814ZM0.653 0.814H0.658V0.817H0.653ZM0.684 0.814H0.689V0.817H0.684ZM0.381 0.817H0.390Q0.398 0.820 0.398 0.834L0.387 0.842H0.381Q0.377 0.842 0.373 0.834V0.825Q0.373 0.822 0.381 0.817ZM0.689 0.817H0.692Q0.704 0.822 0.704 0.825H0.692Q0.692 0.822 0.689 0.817ZM0.302 0.828V0.840Q0.308 0.840 0.308 0.834Q0.308 0.828 0.302 0.828ZM0.771 0.825 0.774 0.831 0.769 0.834 0.766 0.828ZM0.726 0.828Q0.732 0.831 0.735 0.831Q0.732 0.837 0.732 0.840Q0.721 0.836 0.721 0.831Q0.726 0.831 0.726 0.828ZM0.686 0.831H0.692V0.834H0.686ZM0.712 0.837H0.715V0.842H0.712ZM0.175 0.842 0.184 0.854Q0.184 0.858 0.175 0.863Q0.170 0.863 0.163 0.851ZM0.231 0.842 0.240 0.854 0.229 0.863Q0.224 0.863 0.220 0.854Q0.220 0.850 0.231 0.842ZM0.378 0.845Q0.392 0.849 0.392 0.866Q0.383 0.874 0.378 0.874Q0.373 0.871 0.370 0.871V0.874L0.376 0.883L0.364 0.891H0.362Q0.362 0.886 0.356 0.880Q0.356 0.872 0.367 0.871V0.854Q0.367 0.850 0.378 0.845ZM0.766 0.854 0.771 0.857 0.777 0.854Q0.777 0.861 0.783 0.868Q0.776 0.868 0.769 0.874Q0.769 0.868 0.760 0.868Q0.766 0.861 0.766 0.854ZM0.387 0.885H0.392Q0.395 0.906 0.401 0.913L0.390 0.922L0.370 0.899Q0.371 0.885 0.387 0.885ZM0.819 0.891Q0.819 0.897 0.822 0.902Q0.814 0.902 0.814 0.911Q0.807 0.905 0.799 0.905Q0.802 0.891 0.819 0.891ZM0.336 0.897Q0.340 0.897 0.347 0.908Q0.347 0.912 0.336 0.919L0.328 0.908Q0.336 0.908 0.336 0.897ZM0.627 0.908V0.913H0.633V0.908ZM0.553 0.913H0.559V0.916H0.553ZM0.364 0.927 0.373 0.939Q0.373 0.944 0.362 0.950L0.353 0.939Q0.353 0.935 0.364 0.927ZM0.599 0.939H0.602V0.944H0.599ZM0.805 0.939H0.811V0.941H0.805ZM0.596 0.947H0.599V0.956Q0.594 0.974 0.594 0.975H0.588Q0.596 0.951 0.596 0.947ZM0.624 0.947H0.627V0.953H0.624ZM0.788 0.958V0.970Q0.785 0.970 0.780 0.961Q0.783 0.961 0.788 0.958ZM0.579 0.961H0.582V0.967H0.579ZM0.579 0.967V0.970Q0.577 0.975 0.577 0.978H0.571Q0.575 0.967 0.579 0.967ZM0.568 0.981 0.574 0.984Q0.566 1.002 0.559 1.004V1.001Q0.568 0.984 0.568 0.981ZM0.551 0.984H0.553V0.990H0.551ZM0.545 0.996V0.999Q0.519 1.035 0.503 1.035V1.032Q0.521 1.014 0.545 0.996ZM0.514 1.001H0.520V1.004H0.514ZM0.669 1.001H0.675V1.007H0.669ZM0.506 1.010H0.508Q0.508 1.015 0.503 1.015H0.500Q0.501 1.010 0.506 1.010ZM0.735 1.010H0.738V1.015H0.735ZM0.500 1.015Q0.445 1.055 0.398 1.055Q0.392 1.055 0.392 1.049Q0.429 1.049 0.500 1.015ZM0.695 1.024H0.698Q0.704 1.025 0.704 1.029L0.698 1.032H0.695ZM0.624 1.029H0.627V1.038H0.624Z" fill="black"/>
</svg>
