<svg xmlns="http://www.w3.org/2000/svg" viewBox="0 0 1 1" preserveAspectRatio="xMidYMid meet">
  <path d="M0.426 0.001H0.429Q0.429 0.007 0.434 0.007Q0.415 0.028 0.415 0.035Q0.411 0.035 0.400 0.021Q0.406 0.021 0.426 0.001ZM0.243 0.013Q0.249 0.013 0.262 0.041Q0.250 0.069 0.237 0.069Q0.226 0.065 0.226 0.060V0.052Q0.226 0.045 0.240 0.043V0.038Q0.229 0.038 0.229 0.030V0.016ZM0.440 0.016Q0.444 0.016 0.448 0.024Q0.448 0.027 0.426 0.046H0.420Q0.420 0.030 0.440 0.016ZM0.344 0.038H0.383V0.041Q0.375 0.066 0.375 0.082V0.085Q0.375 0.126 0.389 0.178Q0.415 0.178 0.415 0.195Q0.412 0.201 0.412 0.204L0.417 0.201H0.420Q0.425 0.238 0.431 0.238Q0.437 0.238 0.437 0.227Q0.441 0.227 0.448 0.238Q0.448 0.241 0.423 0.263Q0.403 0.243 0.403 0.235Q0.407 0.235 0.415 0.224V0.221H0.397V0.210H0.395V0.243Q0.409 0.245 0.409 0.252V0.260L0.395 0.274V0.364L0.377 0.454Q0.375 0.463 0.375 0.493V0.510Q0.375 0.514 0.361 0.525Q0.361 0.493 0.355 0.493Q0.347 0.516 0.347 0.522H0.344V0.395L0.338 0.397H0.336Q0.317 0.397 0.308 0.378V0.375Q0.356 0.386 0.363 0.386L0.366 0.381Q0.314 0.358 0.313 0.353Q0.318 0.353 0.341 0.342Q0.341 0.345 0.344 0.345Q0.344 0.337 0.369 0.331V0.328L0.363 0.325H0.358L0.344 0.328V0.229L0.333 0.215V0.204Q0.333 0.198 0.344 0.198V0.181Q0.331 0.181 0.327 0.167Q0.329 0.156 0.341 0.153Q0.341 0.156 0.344 0.156V0.131L0.319 0.153H0.316Q0.311 0.153 0.296 0.131Q0.296 0.127 0.319 0.108H0.322Q0.322 0.117 0.330 0.117V0.114L0.322 0.108Q0.331 0.077 0.344 0.077ZM0.392 0.041H0.395V0.125L0.392 0.145H0.389Q0.383 0.105 0.383 0.088V0.085Q0.383 0.071 0.392 0.041ZM0.479 0.055 0.501 0.080 0.487 0.091H0.470Q0.467 0.091 0.456 0.077Q0.456 0.074 0.479 0.055ZM0.273 0.071Q0.293 0.074 0.293 0.077L0.299 0.074H0.302Q0.313 0.105 0.313 0.108L0.302 0.117H0.296Q0.292 0.117 0.288 0.108V0.094L0.273 0.097H0.271Q0.267 0.097 0.262 0.088V0.082Q0.262 0.079 0.273 0.071ZM0.429 0.108Q0.429 0.114 0.437 0.120H0.440Q0.434 0.130 0.434 0.150Q0.429 0.150 0.423 0.156V0.114Q0.423 0.108 0.429 0.108ZM0.403 0.120H0.415V0.153L0.400 0.145L0.403 0.125ZM0.445 0.128H0.448V0.136Q0.445 0.142 0.445 0.145H0.442V0.142ZM0.470 0.136Q0.475 0.136 0.479 0.145V0.148L0.468 0.178L0.462 0.175H0.459L0.440 0.178L0.442 0.159V0.153H0.454Q0.454 0.136 0.470 0.136ZM0.434 0.156V0.164Q0.434 0.170 0.429 0.170V0.161Q0.429 0.156 0.434 0.156ZM0.265 0.161 0.288 0.187 0.265 0.207Q0.262 0.207 0.243 0.184Q0.243 0.181 0.265 0.161ZM0.429 0.201H0.431V0.207H0.429ZM0.319 0.204Q0.322 0.204 0.330 0.227Q0.334 0.227 0.341 0.238Q0.325 0.260 0.316 0.263L0.290 0.235Q0.293 0.235 0.308 0.204ZM0.212 0.215 0.234 0.238Q0.234 0.241 0.209 0.263Q0.192 0.240 0.186 0.240Q0.186 0.237 0.212 0.215ZM0.265 0.268Q0.265 0.273 0.273 0.277Q0.271 0.283 0.268 0.314H0.265Q0.262 0.314 0.243 0.291Q0.243 0.288 0.265 0.268ZM0.479 0.271Q0.483 0.271 0.493 0.285V0.299Q0.493 0.303 0.479 0.314L0.465 0.302Q0.479 0.276 0.479 0.271ZM0.462 0.285V0.288Q0.462 0.293 0.456 0.293H0.454Q0.454 0.290 0.462 0.285ZM0.319 0.322 0.324 0.331 0.319 0.333H0.308Q0.308 0.328 0.319 0.322ZM0.426 0.322 0.448 0.347 0.423 0.370Q0.423 0.366 0.409 0.356Q0.417 0.322 0.426 0.322ZM0.313 0.342H0.316V0.345L0.296 0.350L0.293 0.345Q0.302 0.345 0.313 0.342ZM0.308 0.364H0.313V0.367H0.308ZM0.232 0.375H0.245V0.381Q0.236 0.397 0.232 0.397Q0.232 0.392 0.229 0.392L0.232 0.386Q0.232 0.384 0.229 0.384Q0.232 0.378 0.232 0.375ZM0.392 0.415H0.395V0.525Q0.391 0.525 0.383 0.510V0.493Q0.383 0.455 0.392 0.415ZM0.268 0.454H0.271V0.460H0.268ZM0.271 0.463H0.273Q0.273 0.467 0.279 0.476H0.276L0.282 0.490H0.279L0.282 0.496V0.522L0.285 0.527H0.282Q0.295 0.561 0.324 0.561Q0.311 0.576 0.311 0.580Q0.281 0.569 0.257 0.539V0.501Q0.265 0.501 0.265 0.513H0.268Q0.276 0.510 0.276 0.496V0.493L0.273 0.488H0.276Q0.271 0.470 0.271 0.465ZM0.383 0.522Q0.383 0.526 0.389 0.533L0.369 0.536Q0.369 0.532 0.383 0.522ZM0.352 0.533Q0.358 0.542 0.358 0.550Q0.354 0.553 0.344 0.553Q0.344 0.545 0.338 0.539ZM0.395 0.544V0.564Q0.372 0.551 0.372 0.547Q0.374 0.547 0.395 0.544ZM0.366 0.561Q0.380 0.568 0.395 0.572V0.668L0.403 0.685H0.400L0.403 0.690Q0.403 0.695 0.395 0.724V0.738Q0.409 0.738 0.420 0.710Q0.420 0.705 0.412 0.673Q0.416 0.673 0.423 0.690H0.420Q0.426 0.703 0.426 0.727V0.738Q0.426 0.741 0.423 0.741L0.426 0.747L0.423 0.752Q0.426 0.757 0.426 0.764V0.766H0.423Q0.423 0.757 0.409 0.750H0.403V0.755L0.409 0.764Q0.406 0.764 0.406 0.766Q0.409 0.766 0.409 0.769Q0.395 0.770 0.395 0.777V0.819H0.400Q0.406 0.819 0.406 0.814L0.403 0.808L0.409 0.805V0.840H0.406V0.848L0.412 0.845Q0.419 0.845 0.426 0.859Q0.421 0.870 0.417 0.870H0.406L0.395 0.862Q0.395 0.865 0.392 0.865L0.386 0.856Q0.392 0.856 0.392 0.851Q0.392 0.845 0.369 0.842L0.361 0.828Q0.361 0.827 0.377 0.808L0.372 0.805Q0.355 0.816 0.347 0.816L0.344 0.811V0.777Q0.337 0.777 0.333 0.775Q0.328 0.777 0.322 0.777Q0.322 0.770 0.308 0.755V0.747Q0.308 0.742 0.319 0.736Q0.328 0.736 0.336 0.755Q0.341 0.752 0.344 0.752V0.738Q0.308 0.717 0.308 0.685Q0.308 0.682 0.305 0.682Q0.311 0.675 0.311 0.643L0.316 0.646Q0.313 0.651 0.313 0.654Q0.316 0.659 0.316 0.662H0.313L0.319 0.676H0.316Q0.327 0.696 0.330 0.696Q0.330 0.693 0.333 0.693V0.696L0.330 0.701L0.336 0.704L0.341 0.701Q0.342 0.707 0.347 0.707Q0.352 0.707 0.352 0.698L0.361 0.704L0.363 0.698L0.361 0.693Q0.369 0.693 0.369 0.687Q0.364 0.685 0.361 0.685V0.682Q0.369 0.682 0.369 0.676Q0.366 0.676 0.355 0.662Q0.355 0.668 0.350 0.668Q0.350 0.663 0.344 0.657V0.626Q0.344 0.603 0.313 0.586Q0.330 0.569 0.338 0.567Q0.338 0.594 0.344 0.594Q0.352 0.574 0.352 0.569Q0.368 0.592 0.372 0.592L0.375 0.586Q0.366 0.568 0.366 0.561ZM0.311 0.634H0.313V0.640H0.311ZM0.426 0.766H0.429V0.772H0.426ZM0.429 0.775H0.431V0.786H0.429ZM0.406 0.777H0.412V0.789H0.409Q0.409 0.782 0.406 0.777ZM0.431 0.791H0.434V0.797H0.431ZM0.403 0.797H0.406V0.803H0.403ZM0.462 0.803H0.465Q0.476 0.834 0.479 0.837Q0.476 0.841 0.476 0.854H0.473Q0.473 0.851 0.470 0.845Q0.473 0.845 0.473 0.842Q0.468 0.842 0.459 0.819Q0.462 0.816 0.462 0.803ZM0.431 0.814H0.434Q0.434 0.819 0.440 0.828H0.437L0.442 0.859H0.440Q0.442 0.865 0.442 0.868V0.870H0.440Q0.431 0.845 0.431 0.837ZM0.336 0.819Q0.345 0.819 0.395 0.879V0.882L0.389 0.890L0.395 0.898V0.907H0.392Q0.361 0.851 0.347 0.851L0.350 0.845Q0.350 0.838 0.338 0.837V0.834L0.341 0.828Q0.336 0.828 0.336 0.822ZM0.322 0.831H0.324Q0.324 0.838 0.330 0.845V0.848H0.324L0.311 0.845V0.834L0.319 0.840Q0.322 0.834 0.322 0.831ZM0.344 0.859H0.352Q0.352 0.863 0.358 0.870H0.355Q0.351 0.870 0.344 0.859ZM0.755 0.859 0.757 0.865 0.743 0.876H0.741V0.873Q0.741 0.866 0.755 0.859ZM0.299 0.862H0.305V0.865H0.299ZM0.429 0.865H0.431Q0.431 0.870 0.448 0.918Q0.444 0.918 0.426 0.895V0.884Q0.426 0.882 0.429 0.882L0.426 0.876Q0.429 0.871 0.429 0.865ZM0.763 0.870H0.766Q0.759 0.901 0.746 0.901V0.898Q0.737 0.904 0.730 0.904H0.727V0.901Q0.727 0.898 0.763 0.870ZM0.336 0.876Q0.341 0.877 0.341 0.882V0.890Q0.336 0.890 0.336 0.884ZM0.316 0.879H0.319Q0.319 0.880 0.324 0.895L0.313 0.890Q0.316 0.885 0.316 0.879ZM0.730 0.879Q0.730 0.882 0.732 0.882Q0.732 0.879 0.735 0.879V0.882Q0.735 0.885 0.718 0.895Q0.718 0.892 0.715 0.887ZM0.344 0.882H0.347Q0.383 0.900 0.383 0.907Q0.402 0.938 0.412 0.947V0.949Q0.348 0.909 0.344 0.909ZM0.479 0.893V0.901Q0.473 0.901 0.473 0.895ZM0.454 0.907H0.456Q0.461 0.907 0.479 0.958L0.470 0.963L0.426 0.915V0.909L0.462 0.944L0.465 0.938Q0.465 0.933 0.454 0.907ZM0.695 0.907H0.704V0.909Q0.701 0.909 0.695 0.912ZM0.470 0.909H0.473V0.915H0.470ZM0.690 0.912H0.695Q0.695 0.918 0.690 0.918ZM0.715 0.912Q0.707 0.924 0.634 0.980H0.631V0.977Q0.646 0.942 0.659 0.929H0.662L0.651 0.952L0.656 0.955Q0.709 0.912 0.715 0.912ZM0.473 0.915H0.476V0.921H0.473ZM0.344 0.918Q0.426 0.969 0.431 0.969Q0.431 0.966 0.434 0.966Q0.420 0.941 0.409 0.929H0.415Q0.427 0.941 0.451 0.980H0.442Q0.435 0.980 0.350 0.929L0.347 0.935L0.397 0.980H0.389Q0.349 0.944 0.344 0.944ZM0.676 0.918H0.678Q0.684 0.919 0.684 0.923L0.673 0.932H0.670Q0.676 0.923 0.676 0.918ZM0.769 0.918Q0.785 0.918 0.785 0.932H0.782Q0.708 0.966 0.704 0.966Q0.721 0.941 0.738 0.929H0.760Q0.762 0.918 0.769 0.918ZM0.802 0.918 0.805 0.923Q0.796 0.926 0.794 0.926V0.921Q0.797 0.921 0.802 0.918ZM0.479 0.929H0.484L0.487 0.944H0.481ZM0.507 0.929H0.510V0.938L0.504 0.935L0.501 0.941L0.507 0.944Q0.507 0.941 0.510 0.941Q0.510 0.950 0.513 0.955Q0.510 0.955 0.510 0.958H0.513Q0.513 0.961 0.510 0.961L0.513 0.974V0.980H0.470L0.496 0.944Q0.496 0.933 0.507 0.929ZM0.519 0.929H0.521Q0.526 0.929 0.533 0.955L0.538 0.958H0.547Q0.555 0.955 0.555 0.935V0.929H0.563V0.952Q0.563 0.956 0.572 0.961H0.577Q0.583 0.961 0.594 0.929H0.600V0.932Q0.594 0.957 0.594 0.966L0.600 0.969H0.608L0.645 0.929V0.932Q0.623 0.971 0.623 0.980H0.521V0.972Q0.521 0.965 0.519 0.961L0.521 0.955L0.519 0.938ZM0.535 0.929H0.547V0.935L0.544 0.949H0.538ZM0.572 0.929H0.586Q0.577 0.945 0.577 0.952H0.572ZM0.614 0.929H0.617Q0.620 0.929 0.620 0.932L0.626 0.929H0.631Q0.619 0.951 0.605 0.961H0.603Q0.608 0.929 0.614 0.929ZM0.718 0.929H0.724Q0.698 0.961 0.678 0.980H0.673Q0.673 0.975 0.718 0.929ZM0.814 0.929V0.938Q0.814 0.940 0.752 0.980H0.746Q0.769 0.962 0.769 0.961L0.766 0.955Q0.713 0.980 0.704 0.980H0.698V0.977ZM0.434 0.938 0.468 0.969Q0.464 0.980 0.459 0.980Q0.459 0.974 0.434 0.941ZM0.344 0.952Q0.374 0.975 0.375 0.980H0.363L0.344 0.977ZM0.811 0.952V0.980H0.769V0.977Q0.776 0.975 0.811 0.952ZM0.676 0.958H0.678Q0.669 0.973 0.659 0.980H0.651Q0.651 0.975 0.676 0.958ZM0.403 0.972H0.406Q0.412 0.977 0.417 0.977V0.980H0.409Z" fill="black"/>
</svg>
