<svg xmlns="http://www.w3.org/2000/svg" viewBox="0 0 1 1" preserveAspectRatio="xMidYMid meet">
  <path d="M0.632 -0.001H0.637Q0.637 0.005 0.632 0.005ZM0.655 -0.001Q0.660 0.002 0.663 0.002L0.637 0.025V0.033L0.632 0.030Q0.612 0.050 0.612 0.062H0.609V0.042Q0.618 0.022 0.655 -0.001ZM0.620 0.010V0.019Q0.614 0.019 0.614 0.013ZM0.660 0.013H0.663V0.022H0.660ZM0.767 0.016H0.770V0.022H0.767ZM0.785 0.019H0.788V0.027H0.785ZM-0.039 0.033Q-0.036 0.033 0.128 0.232Q0.119 0.246 0.119 0.260Q0.119 0.285 0.153 0.288H0.156L0.176 0.285Q0.178 0.292 0.227 0.351Q0.209 0.351 0.204 0.376V0.379L0.207 0.393L0.012 0.155V0.178Q-0.022 0.182 -0.022 0.206V0.215Q-0.022 0.230 -0.002 0.246Q-0.019 0.256 -0.019 0.274Q-0.014 0.308 0.012 0.308V0.319Q0.001 0.311 -0.008 0.311H-0.017Q-0.027 0.311 -0.039 0.322V0.121Q-0.049 0.121 -0.051 0.104Q-0.039 0.100 -0.039 0.096ZM0.909 0.036V0.048Q0.903 0.048 0.903 0.042Q0.904 0.036 0.909 0.036ZM0.042 0.039 0.054 0.051Q0.054 0.055 0.042 0.082Q0.006 0.071 0.006 0.065L0.017 0.059Q0.017 0.062 0.020 0.062V0.059L0.026 0.062H0.028Q0.028 0.042 0.042 0.039ZM0.561 0.045 0.567 0.053Q0.564 0.053 0.564 0.056Q0.568 0.056 0.575 0.067Q0.568 0.067 0.561 0.073H0.555Q0.549 0.073 0.544 0.070Q0.539 0.073 0.533 0.073V0.079Q0.553 0.079 0.558 0.101L0.564 0.104H0.572Q0.576 0.104 0.583 0.090Q0.588 0.093 0.598 0.093Q0.598 0.097 0.589 0.101L0.595 0.112L0.586 0.118L0.592 0.129Q0.588 0.129 0.583 0.138Q0.598 0.143 0.598 0.163H0.603Q0.603 0.146 0.617 0.141L0.614 0.135V0.132L0.620 0.135L0.626 0.132L0.623 0.127V0.121L0.632 0.127L0.634 0.121Q0.632 0.116 0.632 0.112L0.643 0.121Q0.643 0.118 0.646 0.118L0.640 0.107H0.643Q0.649 0.107 0.655 0.141Q0.655 0.172 0.589 0.184Q0.572 0.181 0.572 0.163Q0.575 0.158 0.575 0.155Q0.569 0.155 0.569 0.149Q0.569 0.146 0.583 0.110L0.569 0.107H0.547Q0.547 0.104 0.544 0.098L0.538 0.101Q0.519 0.090 0.519 0.067V0.065Q0.529 0.045 0.561 0.045ZM0.572 0.045V0.053Q0.567 0.053 0.567 0.048ZM0.767 0.048Q0.773 0.048 0.773 0.053V0.059L0.770 0.065Q0.773 0.065 0.773 0.067L0.767 0.070L0.762 0.067L0.767 0.056H0.764Q0.767 0.051 0.767 0.048ZM0.785 0.048Q0.790 0.048 0.790 0.053Q0.790 0.056 0.788 0.056L0.790 0.062V0.065Q0.785 0.065 0.785 0.059ZM0.895 0.048Q0.900 0.048 0.915 0.073L0.921 0.070H0.923Q0.920 0.082 0.909 0.082V0.141L0.900 0.135Q0.888 0.140 0.878 0.155Q0.881 0.155 0.881 0.158L0.892 0.152L0.895 0.158Q0.881 0.165 0.881 0.169Q0.883 0.169 0.883 0.172L0.898 0.163H0.903Q0.878 0.183 0.878 0.186Q0.881 0.186 0.881 0.189Q0.886 0.186 0.889 0.186H0.892V0.189Q0.872 0.193 0.872 0.201Q0.875 0.201 0.875 0.203Q0.877 0.203 0.886 0.201H0.892V0.203Q0.878 0.204 0.878 0.212Q0.881 0.212 0.881 0.215Q0.903 0.212 0.909 0.206V0.229Q0.909 0.232 0.906 0.232L0.909 0.237V0.254H0.895Q0.889 0.255 0.889 0.260L0.898 0.265H0.909Q0.926 0.238 0.932 0.237L0.944 0.229L0.952 0.234Q0.952 0.230 0.963 0.226L0.960 0.220V0.217Q0.980 0.217 0.980 0.201H0.989Q1.005 0.226 1.011 0.226L1.025 0.215H1.028Q1.031 0.215 1.031 0.217Q1.056 0.208 1.056 0.189L1.062 0.186Q1.077 0.190 1.077 0.206V0.223Q1.077 0.259 1.022 0.265Q0.991 0.265 0.991 0.209H0.986Q0.978 0.209 0.974 0.237Q0.966 0.237 0.966 0.243Q0.972 0.244 0.972 0.248V0.254Q0.960 0.267 0.960 0.268Q0.963 0.268 0.963 0.271Q0.959 0.271 0.944 0.282Q0.944 0.279 0.935 0.274L0.932 0.279Q0.938 0.281 0.938 0.285L0.923 0.288Q0.931 0.267 0.938 0.265H0.944L0.952 0.271L0.955 0.265Q0.952 0.265 0.952 0.262Q0.955 0.262 0.960 0.254V0.248Q0.960 0.243 0.955 0.243H0.949Q0.940 0.254 0.918 0.262Q0.918 0.277 0.909 0.277V0.412L0.903 0.410L0.900 0.415Q0.919 0.432 0.921 0.432L0.923 0.427Q0.923 0.421 0.915 0.421V0.418H0.923V0.421Q0.926 0.421 0.926 0.418Q0.944 0.420 0.955 0.429Q0.955 0.427 0.958 0.427Q0.958 0.430 0.960 0.435Q0.955 0.435 0.949 0.447L0.955 0.449Q0.955 0.446 0.963 0.441V0.444L0.960 0.458L0.966 0.481Q0.955 0.503 0.926 0.503Q0.924 0.481 0.903 0.481L0.898 0.484Q0.898 0.481 0.895 0.481Q0.895 0.484 0.892 0.484L0.895 0.489V0.495H0.892L0.878 0.487Q0.872 0.487 0.872 0.492V0.498L0.875 0.503L0.869 0.506H0.867Q0.861 0.506 0.861 0.495H0.836Q0.836 0.480 0.861 0.473V0.461H0.864L0.872 0.467Q0.872 0.464 0.875 0.464Q0.876 0.470 0.881 0.470L0.878 0.475L0.881 0.481Q0.903 0.473 0.903 0.467Q0.900 0.461 0.900 0.458L0.903 0.452Q0.896 0.429 0.889 0.429H0.886Q0.881 0.431 0.881 0.435L0.875 0.432H0.861V0.407H0.864L0.875 0.412Q0.875 0.410 0.886 0.396L0.881 0.384Q0.889 0.384 0.889 0.379Q0.880 0.359 0.867 0.359Q0.864 0.364 0.864 0.370H0.861V0.260H0.858Q0.833 0.267 0.808 0.322Q0.768 0.345 0.767 0.348V0.353H0.776Q0.798 0.353 0.802 0.365V0.370L0.796 0.367H0.770Q0.760 0.367 0.725 0.387Q0.720 0.390 0.717 0.390V0.393Q0.725 0.422 0.725 0.435L0.722 0.455Q0.739 0.455 0.739 0.435V0.429H0.742Q0.742 0.442 0.745 0.447L0.742 0.458Q0.745 0.478 0.745 0.489V0.492H0.742Q0.733 0.473 0.733 0.467Q0.700 0.471 0.700 0.481L0.686 0.489V0.487L0.689 0.467L0.694 0.470Q0.694 0.463 0.719 0.455V0.432Q0.718 0.396 0.708 0.396Q0.703 0.398 0.700 0.398L0.697 0.393Q0.705 0.393 0.705 0.387L0.700 0.376L0.677 0.390Q0.672 0.387 0.669 0.387Q0.666 0.393 0.666 0.396H0.663V0.387Q0.666 0.387 0.666 0.384L0.660 0.382L0.655 0.384Q0.655 0.376 0.649 0.376Q0.638 0.393 0.634 0.393V0.390L0.643 0.376Q0.643 0.370 0.637 0.370Q0.637 0.374 0.626 0.382V0.379L0.629 0.373L0.623 0.370Q0.618 0.380 0.606 0.384V0.382L0.612 0.370Q0.606 0.367 0.603 0.367L0.614 0.351L0.609 0.348L0.598 0.356H0.595L0.609 0.339L0.603 0.337L0.595 0.342H0.592L0.600 0.331L0.595 0.328Q0.585 0.334 0.581 0.334L0.589 0.322Q0.584 0.319 0.578 0.319V0.316Q0.589 0.316 0.589 0.308L0.583 0.305Q0.578 0.308 0.575 0.308H0.572V0.305Q0.586 0.303 0.586 0.296Q0.582 0.293 0.575 0.293Q0.576 0.288 0.581 0.288H0.595Q0.595 0.296 0.606 0.302L0.612 0.299H0.614Q0.614 0.319 0.632 0.319Q0.632 0.316 0.634 0.316Q0.634 0.319 0.637 0.319V0.316Q0.634 0.316 0.634 0.314L0.655 0.311H0.658Q0.665 0.311 0.674 0.316L0.700 0.282Q0.685 0.274 0.672 0.274V0.271H0.689Q0.697 0.271 0.708 0.277L0.714 0.265Q0.696 0.260 0.686 0.260Q0.666 0.260 0.666 0.271H0.660V0.268Q0.674 0.243 0.703 0.243H0.705Q0.714 0.243 0.728 0.251Q0.742 0.234 0.742 0.232Q0.723 0.203 0.697 0.203V0.201Q0.700 0.190 0.725 0.178Q0.749 0.182 0.767 0.201L0.773 0.198Q0.732 0.107 0.663 0.107Q0.663 0.104 0.666 0.104Q0.663 0.099 0.663 0.096V0.093H0.666Q0.667 0.104 0.674 0.104L0.677 0.098L0.674 0.093H0.680Q0.773 0.132 0.773 0.184H0.776Q0.782 0.184 0.785 0.152Q0.785 0.096 0.753 0.096Q0.736 0.096 0.736 0.087L0.750 0.084H0.756Q0.767 0.084 0.782 0.096Q0.784 0.096 0.796 0.082L0.802 0.084L0.805 0.079Q0.802 0.079 0.802 0.076H0.808L0.813 0.079Q0.813 0.088 0.790 0.093L0.788 0.107V0.118Q0.788 0.137 0.790 0.175Q0.801 0.165 0.827 0.127Q0.828 0.132 0.833 0.132L0.839 0.129V0.132L0.836 0.138L0.841 0.141L0.864 0.121H0.867L0.858 0.135L0.864 0.138Q0.895 0.113 0.895 0.110Q0.890 0.110 0.881 0.084V0.079H0.889Q0.889 0.087 0.895 0.087H0.898Q0.903 0.087 0.903 0.082V0.079L0.895 0.067H0.898L0.892 0.056Q0.895 0.051 0.895 0.048ZM0.592 0.062Q0.603 0.067 0.606 0.079L0.589 0.076Q0.592 0.071 0.592 0.062ZM0.666 0.062H0.669V0.067H0.666ZM0.756 0.062 0.759 0.067 0.750 0.073H0.748Q0.752 0.062 0.756 0.062ZM0.886 0.065V0.070H0.881Q0.882 0.065 0.886 0.065ZM0.935 0.065H0.944Q0.945 0.065 0.958 0.079Q0.958 0.076 0.960 0.076L0.958 0.070V0.067Q0.994 0.082 0.994 0.090H0.969Q0.955 0.079 0.926 0.079L0.938 0.067Q0.935 0.067 0.935 0.065ZM0.739 0.067Q0.745 0.068 0.745 0.073Q0.745 0.077 0.733 0.084V0.082Q0.739 0.072 0.739 0.067ZM0.655 0.073H0.658V0.079H0.655ZM0.014 0.082H0.020V0.084H0.014ZM0.819 0.084H0.822V0.090H0.819ZM0.547 0.090 0.544 0.096 0.550 0.098 0.553 0.093ZM0.062 0.098Q0.074 0.101 0.074 0.112Q0.077 0.112 0.088 0.098Q0.103 0.100 0.103 0.115V0.118Q0.103 0.125 0.088 0.127V0.124L0.074 0.135Q0.074 0.131 0.062 0.124V0.121L0.057 0.124L0.048 0.110V0.104H0.051Q0.056 0.107 0.059 0.107Q0.062 0.101 0.062 0.098ZM1.003 0.101Q1.003 0.105 1.008 0.112Q0.999 0.118 0.991 0.118L0.989 0.112Q0.989 0.108 1.003 0.101ZM0.600 0.118H0.603V0.124H0.600ZM1.014 0.124V0.129Q1.014 0.134 1.003 0.141L1.000 0.129Q1.009 0.124 1.014 0.124ZM0.952 0.129H0.958V0.135Q0.952 0.135 0.952 0.129ZM0.872 0.138 0.869 0.143 0.875 0.146 0.878 0.141ZM0.946 0.135V0.141H0.938V0.138Q0.941 0.138 0.946 0.135ZM0.923 0.138H0.929Q0.929 0.149 0.935 0.155Q0.929 0.156 0.929 0.160L0.932 0.175Q0.926 0.175 0.926 0.184Q0.929 0.189 0.929 0.192Q0.925 0.192 0.921 0.201L0.926 0.209H0.923Q0.908 0.209 0.903 0.198Q0.908 0.198 0.915 0.186Q0.909 0.186 0.909 0.181L0.918 0.169Q0.918 0.163 0.912 0.163Q0.915 0.158 0.915 0.155Q0.912 0.149 0.912 0.146ZM0.909 0.143V0.149H0.903Q0.904 0.143 0.909 0.143ZM1.011 0.143 1.017 0.152V0.169H1.014Q1.014 0.160 1.008 0.160Q1.008 0.163 1.005 0.163L1.008 0.169V0.172L1.000 0.166Q1.007 0.143 1.011 0.143ZM0.816 0.209V0.223L0.813 0.257H0.816Q0.832 0.243 0.844 0.243H0.861V0.155Q0.851 0.161 0.816 0.209ZM0.589 0.163 0.586 0.169 0.592 0.172 0.595 0.166ZM0.955 0.172H0.958Q0.958 0.181 0.960 0.181Q0.955 0.189 0.955 0.195Q0.958 0.200 0.958 0.203L0.949 0.209H0.941V0.203Q0.952 0.203 0.952 0.192Q0.949 0.186 0.949 0.184Q0.955 0.184 0.955 0.172ZM0.997 0.172 1.005 0.178Q1.007 0.172 1.011 0.172Q1.011 0.175 1.014 0.175Q1.014 0.172 1.017 0.172L1.008 0.203Q1.001 0.189 0.989 0.189H0.986Q0.993 0.172 0.997 0.172ZM0.900 0.181H0.906V0.184H0.900ZM0.892 0.184H0.900V0.186H0.892ZM0.012 0.186V0.237Q-0.014 0.237 -0.014 0.212V0.209Q-0.014 0.186 0.012 0.186ZM0.731 0.195V0.201Q0.748 0.223 0.750 0.223H0.753Q0.753 0.218 0.759 0.212Q0.744 0.195 0.731 0.195ZM0.895 0.198H0.900V0.201H0.895ZM0.889 0.220Q0.890 0.226 0.895 0.226L0.900 0.217L0.895 0.215Q0.889 0.215 0.889 0.220ZM0.881 0.217 0.878 0.223 0.883 0.226 0.886 0.220ZM0.742 0.311V0.302Q0.732 0.302 0.722 0.348Q0.719 0.348 0.714 0.359Q0.722 0.368 0.722 0.373Q0.738 0.373 0.753 0.353H0.739Q0.788 0.298 0.833 0.265V0.262Q0.807 0.267 0.776 0.293V0.288Q0.785 0.275 0.793 0.237L0.753 0.285Q0.753 0.305 0.742 0.311ZM0.136 0.240 0.164 0.277V0.279H0.156Q0.128 0.279 0.128 0.254Q0.132 0.240 0.136 0.240ZM0.900 0.243 0.898 0.248 0.903 0.251 0.906 0.246ZM0.012 0.246V0.299Q-0.011 0.296 -0.011 0.271Q-0.011 0.256 0.012 0.246ZM0.419 0.251H0.425Q0.429 0.251 0.436 0.262Q0.431 0.262 0.431 0.271H0.425L0.428 0.265V0.262L0.414 0.265V0.257Q0.415 0.251 0.419 0.251ZM0.524 0.262V0.277H0.516V0.271Q0.516 0.267 0.524 0.262ZM0.895 0.274 0.900 0.277H0.903Q0.909 0.277 0.909 0.271L0.903 0.268H0.900Q0.895 0.269 0.895 0.274ZM0.564 0.268H0.569V0.271H0.564ZM0.640 0.271 0.646 0.274 0.643 0.279V0.282H0.649Q0.649 0.288 0.643 0.288H0.640Q0.634 0.288 0.634 0.282V0.277Q0.635 0.271 0.640 0.271ZM0.598 0.277H0.600Q0.606 0.278 0.606 0.282V0.285H0.603Q0.598 0.285 0.598 0.279ZM0.507 0.279Q0.507 0.282 0.510 0.282Q0.510 0.279 0.513 0.279Q0.520 0.308 0.530 0.308L0.527 0.314Q0.527 0.316 0.538 0.331Q0.487 0.331 0.473 0.382Q0.467 0.382 0.464 0.359Q0.462 0.359 0.462 0.356V0.353L0.467 0.356Q0.467 0.351 0.493 0.331L0.476 0.322Q0.476 0.325 0.473 0.325Q0.473 0.311 0.464 0.308Q0.467 0.303 0.467 0.293L0.473 0.296H0.481Q0.488 0.296 0.490 0.282L0.496 0.285H0.499ZM0.558 0.282H0.569V0.285H0.558ZM0.544 0.285H0.555V0.288H0.544ZM0.875 0.288 0.872 0.293Q0.873 0.299 0.878 0.299H0.881Q0.886 0.299 0.886 0.293ZM0.536 0.288H0.541V0.291H0.536ZM0.617 0.288H0.623Q0.627 0.288 0.632 0.296L0.617 0.299H0.614Q0.617 0.294 0.617 0.288ZM0.918 0.288H0.923V0.291H0.918ZM0.567 0.293H0.575V0.296H0.567ZM0.558 0.296H0.567V0.299H0.558ZM0.550 0.299H0.555V0.302H0.550ZM0.541 0.302H0.547V0.305H0.541ZM0.567 0.308H0.572V0.311H0.567ZM0.561 0.311H0.567V0.314H0.561ZM0.652 0.314V0.322Q0.657 0.322 0.666 0.328L0.669 0.322ZM0.462 0.314Q0.462 0.316 0.464 0.322L0.450 0.325V0.316Q0.457 0.316 0.462 0.314ZM0.553 0.314H0.558V0.316H0.553ZM0.881 0.319 0.878 0.325 0.889 0.331Q0.889 0.328 0.892 0.328Q0.892 0.337 0.898 0.337L0.900 0.331Q0.900 0.325 0.895 0.325Q0.895 0.328 0.892 0.328Q0.892 0.323 0.881 0.319ZM-0.014 0.319H-0.011Q0.010 0.322 0.012 0.331V0.404Q0.005 0.418 -0.011 0.429H-0.019L-0.039 0.427V0.384Q-0.017 0.379 -0.017 0.373Q-0.036 0.361 -0.036 0.345Q-0.036 0.319 -0.014 0.319ZM0.632 0.325V0.334Q0.639 0.334 0.646 0.339H0.649V0.337Q0.644 0.325 0.640 0.325ZM0.564 0.325H0.567V0.328Q0.562 0.328 0.553 0.334L0.550 0.328ZM0.714 0.334 0.705 0.345V0.348Q0.711 0.346 0.717 0.334ZM0.878 0.334 0.875 0.339 0.886 0.345 0.889 0.339ZM0.408 0.334H0.422Q0.428 0.334 0.428 0.339Q0.425 0.339 0.419 0.342Q0.419 0.337 0.408 0.337ZM0.473 0.334Q0.473 0.345 0.428 0.359Q0.428 0.352 0.425 0.348Q0.468 0.334 0.473 0.334ZM0.575 0.334H0.581V0.337H0.575ZM0.567 0.339H0.572V0.342H0.567ZM0.589 0.342H0.592Q0.592 0.348 0.586 0.348H0.583Q0.585 0.342 0.589 0.342ZM0.875 0.348 0.872 0.353 0.878 0.356 0.881 0.351ZM0.697 0.353 0.694 0.359H0.697L0.700 0.353ZM0.233 0.356Q0.233 0.358 0.283 0.415Q0.270 0.464 0.261 0.464Q0.261 0.459 0.230 0.421Q0.242 0.416 0.244 0.410Q0.212 0.403 0.212 0.379V0.373Q0.219 0.356 0.233 0.356ZM0.536 0.362Q0.539 0.362 0.555 0.384H0.561Q0.561 0.390 0.555 0.390Q0.543 0.382 0.524 0.376V0.370Q0.536 0.370 0.536 0.362ZM0.703 0.373Q0.708 0.380 0.708 0.384H0.714L0.722 0.379Q0.717 0.366 0.711 0.365Q0.707 0.365 0.703 0.373ZM-0.039 0.365Q-0.036 0.365 -0.031 0.373Q-0.034 0.373 -0.039 0.376ZM0.456 0.365H0.459V0.370Q0.459 0.374 0.433 0.387Q0.428 0.387 0.428 0.382Q0.431 0.365 0.456 0.365ZM0.351 0.376H0.371Q0.394 0.377 0.394 0.382L0.400 0.379H0.408V0.384H0.414L0.419 0.382L0.422 0.396V0.398H0.419Q0.389 0.379 0.351 0.379ZM0.464 0.384 0.470 0.393 0.439 0.412Q0.433 0.412 0.433 0.407V0.401Q0.433 0.396 0.464 0.384ZM0.623 0.384V0.387Q0.620 0.392 0.620 0.398Q0.630 0.401 0.632 0.410Q0.629 0.410 0.629 0.412L0.643 0.421H0.646L0.655 0.415H0.658Q0.663 0.416 0.663 0.421Q0.660 0.426 0.660 0.429Q0.663 0.435 0.663 0.438L0.655 0.432L0.646 0.444Q0.646 0.448 0.655 0.452Q0.655 0.449 0.658 0.449V0.452L0.655 0.458Q0.658 0.461 0.658 0.473Q0.655 0.473 0.649 0.475Q0.649 0.464 0.640 0.464H0.637L0.632 0.467Q0.632 0.461 0.626 0.461Q0.626 0.464 0.600 0.487Q0.606 0.467 0.606 0.452Q0.590 0.438 0.583 0.438Q0.583 0.441 0.581 0.441L0.575 0.432Q0.586 0.432 0.595 0.424Q0.596 0.429 0.600 0.429Q0.612 0.426 0.612 0.421V0.412L0.606 0.404Q0.620 0.384 0.623 0.384ZM0.652 0.384H0.655V0.390H0.652ZM0.731 0.387H0.733L0.736 0.398V0.401H0.733L0.731 0.390ZM0.125 0.390H0.128Q0.128 0.401 0.139 0.401V0.404Q0.131 0.404 0.131 0.412V0.415Q0.126 0.412 0.117 0.412L0.119 0.407V0.401H0.114V0.398Q0.125 0.398 0.125 0.390ZM0.541 0.390Q0.541 0.395 0.516 0.412H0.513V0.404ZM0.649 0.390H0.652V0.396H0.649ZM0.632 0.393H0.634V0.398H0.632ZM0.646 0.396H0.649V0.401H0.646ZM0.660 0.396H0.663V0.401H0.660ZM0.283 0.401H0.292V0.404Q0.292 0.409 0.283 0.412ZM0.303 0.401H0.306Q0.312 0.420 0.312 0.421H0.292V0.418Q0.303 0.407 0.303 0.401ZM0.425 0.401 0.428 0.421Q0.428 0.437 0.411 0.444H0.403Q0.411 0.429 0.422 0.429V0.421Q0.414 0.421 0.414 0.415Q0.422 0.415 0.422 0.410V0.407H0.414V0.415L0.394 0.412H0.380V0.407H0.400L0.405 0.410Q0.405 0.404 0.425 0.401ZM0.686 0.401H0.689V0.407H0.686ZM0.028 0.404H0.037Q0.032 0.415 0.020 0.418L0.017 0.412ZM0.550 0.404H0.553Q0.553 0.408 0.530 0.427L0.527 0.421ZM0.736 0.404H0.739V0.410H0.736ZM0.345 0.407H0.363V0.410H0.345ZM0.473 0.407V0.421L0.439 0.444L0.433 0.435Q0.433 0.422 0.473 0.407ZM0.672 0.407H0.674V0.415H0.669Q0.672 0.410 0.672 0.407ZM0.663 0.415H0.669V0.418H0.663ZM0.012 0.421V0.449Q0.012 0.452 0.014 0.452L0.012 0.458Q0.012 0.464 0.014 0.470Q0.012 0.474 0.012 0.481V0.489Q0.030 0.495 0.034 0.495L0.031 0.501H0.034Q0.034 0.498 0.037 0.498Q0.037 0.504 0.048 0.506Q0.059 0.534 0.059 0.540H0.068Q0.074 0.540 0.074 0.532H0.079Q0.079 0.535 0.091 0.551H0.079V0.554H0.074Q0.074 0.552 0.068 0.543H0.065Q0.059 0.544 0.059 0.548V0.551L0.062 0.557Q0.057 0.557 0.057 0.571Q0.062 0.574 0.068 0.574Q0.068 0.571 0.071 0.571Q0.071 0.585 0.079 0.585L0.091 0.579L0.100 0.600L0.094 0.597H0.085Q0.082 0.591 0.082 0.588H0.071V0.605L0.074 0.611H0.071Q0.068 0.611 0.068 0.608Q0.051 0.623 0.048 0.623V0.625L0.051 0.631Q0.048 0.631 0.048 0.634Q0.051 0.634 0.051 0.637Q0.020 0.643 0.020 0.653Q0.015 0.656 0.012 0.656V0.673H0.014L0.017 0.662H0.026Q0.027 0.673 0.034 0.673Q0.038 0.673 0.051 0.656Q0.051 0.651 0.042 0.651V0.645H0.045L0.054 0.651H0.057V0.637Q0.061 0.639 0.071 0.639Q0.071 0.634 0.079 0.634V0.628L0.074 0.620V0.611Q0.087 0.611 0.091 0.608Q0.091 0.618 0.103 0.623Q0.103 0.631 0.108 0.631L0.111 0.625V0.617H0.103Q0.103 0.611 0.108 0.611H0.117V0.600H0.122L0.119 0.605Q0.136 0.613 0.142 0.625L0.139 0.631Q0.142 0.636 0.142 0.639Q0.132 0.648 0.122 0.648V0.673Q0.111 0.686 0.111 0.687Q0.122 0.700 0.122 0.701Q0.119 0.707 0.119 0.712Q0.125 0.714 0.125 0.718V0.721H0.114Q0.114 0.712 0.097 0.701L0.091 0.704V0.701Q0.097 0.691 0.097 0.679Q0.085 0.676 0.085 0.665L0.097 0.673Q0.100 0.673 0.114 0.656Q0.105 0.642 0.091 0.642Q0.079 0.655 0.079 0.656L0.082 0.662Q0.069 0.664 0.051 0.684H0.048V0.687Q0.048 0.692 0.065 0.704L0.074 0.698Q0.074 0.704 0.091 0.704Q0.091 0.709 0.082 0.712V0.707H0.079Q0.076 0.707 0.071 0.715V0.718H0.074L0.079 0.715Q0.079 0.724 0.097 0.736L0.114 0.721Q0.114 0.726 0.119 0.733Q0.114 0.733 0.114 0.738L0.117 0.756Q0.115 0.770 0.108 0.770V0.775L0.111 0.781L0.100 0.789Q0.091 0.801 0.062 0.801H0.059L0.051 0.795L0.045 0.798L0.042 0.792L0.051 0.781Q0.051 0.777 0.034 0.764Q0.029 0.767 0.026 0.767L0.031 0.758V0.753H0.026L0.020 0.756Q0.020 0.741 0.012 0.741V0.843Q0.012 0.846 0.014 0.846L0.012 0.851V0.877L0.017 0.874Q0.020 0.874 0.020 0.877L0.040 0.866Q0.040 0.871 0.042 0.871Q0.048 0.868 0.051 0.868V0.871L0.057 0.868H0.108Q0.105 0.874 0.105 0.880H0.097Q0.059 0.880 0.040 0.903H0.042L0.040 0.908V0.911Q0.048 0.911 0.048 0.920H0.074L0.088 0.917V0.908H0.065V0.906H0.071V0.903L0.068 0.897Q0.078 0.892 0.108 0.889L0.111 0.894Q0.102 0.894 0.091 0.897V0.911Q0.091 0.920 0.103 0.920V0.925Q0.094 0.932 0.094 0.937H0.077Q0.070 0.937 0.068 0.959Q0.030 0.945 0.023 0.945Q0.023 0.948 0.020 0.948Q0.020 0.944 0.012 0.939V0.951Q0.012 0.953 0.014 0.953L0.012 0.959V0.976H-0.002Q-0.005 0.976 -0.005 0.979L-0.011 0.976H-0.039Q-0.039 0.970 -0.045 0.970Q-0.039 0.961 -0.039 0.953L-0.053 0.959V0.953H-0.056L-0.071 0.956Q-0.071 0.951 -0.079 0.951L-0.077 0.945H-0.082V0.942H-0.074Q-0.074 0.948 -0.071 0.948Q-0.058 0.942 -0.056 0.937V0.934Q-0.056 0.928 -0.062 0.928H-0.065Q-0.074 0.928 -0.088 0.937V0.931L-0.102 0.934H-0.113V0.928L-0.105 0.917L-0.108 0.911Q-0.096 0.911 -0.091 0.897Q-0.088 0.897 -0.088 0.900Q-0.079 0.897 -0.079 0.894Q-0.082 0.889 -0.082 0.886Q-0.073 0.892 -0.068 0.892L-0.039 0.889V0.846Q-0.039 0.843 -0.042 0.843L-0.039 0.837V0.693Q-0.039 0.690 -0.042 0.690L-0.039 0.684V0.673H-0.048V0.670H-0.039V0.631Q-0.047 0.631 -0.051 0.620Q-0.055 0.614 -0.059 0.614V0.611Q-0.055 0.611 -0.051 0.605H-0.042Q-0.039 0.600 -0.039 0.594V0.579Q-0.045 0.573 -0.045 0.568L-0.051 0.571H-0.053Q-0.053 0.568 -0.056 0.562Q-0.053 0.562 -0.053 0.560Q-0.059 0.560 -0.059 0.554V0.551Q-0.053 0.546 -0.053 0.534Q-0.056 0.534 -0.059 0.526Q-0.042 0.526 -0.042 0.517Q-0.045 0.517 -0.045 0.515Q-0.039 0.515 -0.039 0.509V0.492H-0.042L-0.048 0.495Q-0.048 0.492 -0.051 0.492Q-0.047 0.476 -0.039 0.467V0.435L-0.025 0.438H-0.017Q-0.006 0.438 0.012 0.421ZM0.388 0.427H0.394V0.429L0.380 0.432H0.377V0.429Q0.378 0.429 0.388 0.427ZM0.298 0.429H0.314L0.306 0.447L0.323 0.461Q0.328 0.458 0.334 0.458Q0.328 0.485 0.328 0.489V0.506Q0.310 0.515 0.303 0.515L0.278 0.481H0.283L0.289 0.484L0.292 0.478Q0.281 0.461 0.281 0.452Q0.281 0.441 0.298 0.429ZM0.481 0.432 0.487 0.441Q0.483 0.441 0.453 0.470L0.456 0.475Q0.475 0.465 0.493 0.447L0.499 0.449L0.513 0.447L0.470 0.492L0.476 0.495Q0.509 0.469 0.516 0.458Q0.520 0.461 0.530 0.461L0.490 0.512L0.496 0.515L0.501 0.512V0.515Q0.496 0.557 0.487 0.557Q0.483 0.560 0.473 0.560H0.470Q0.487 0.540 0.487 0.537H0.484Q0.475 0.543 0.470 0.543Q0.448 0.526 0.448 0.515Q0.448 0.510 0.456 0.506H0.464Q0.473 0.506 0.473 0.520H0.478Q0.478 0.512 0.487 0.512V0.503Q0.478 0.501 0.453 0.501V0.498Q0.467 0.496 0.467 0.489Q0.467 0.484 0.459 0.484Q0.447 0.487 0.403 0.526H0.400V0.523L0.403 0.517Q0.393 0.517 0.377 0.495Q0.389 0.464 0.394 0.464H0.403Q0.406 0.464 0.411 0.473V0.481L0.400 0.492L0.417 0.501Q0.417 0.482 0.448 0.475V0.467Q0.433 0.467 0.433 0.452Q0.436 0.452 0.436 0.449L0.442 0.452Q0.476 0.429 0.481 0.429ZM0.513 0.432H0.516V0.447H0.513ZM0.553 0.432Q0.536 0.454 0.536 0.458Q0.530 0.455 0.522 0.455Q0.543 0.432 0.553 0.432ZM0.360 0.435H0.366V0.438H0.360ZM0.841 0.435H0.847V0.438H0.841ZM0.569 0.438 0.572 0.444 0.567 0.447 0.564 0.441ZM0.872 0.441H0.878Q0.878 0.447 0.895 0.464V0.467Q0.892 0.467 0.886 0.470Q0.886 0.463 0.872 0.444ZM0.567 0.447V0.449Q0.523 0.513 0.513 0.523Q0.513 0.509 0.504 0.509V0.506Q0.545 0.461 0.550 0.461Q0.553 0.461 0.567 0.447ZM0.586 0.449H0.589Q0.536 0.540 0.536 0.546Q0.541 0.547 0.541 0.551Q0.535 0.551 0.530 0.554Q0.519 0.534 0.519 0.529Q0.520 0.529 0.586 0.449ZM0.977 0.449H0.980Q1.004 0.449 1.014 0.467Q1.014 0.470 1.005 0.475H1.003Q1.003 0.460 0.977 0.458ZM0.909 0.455V0.475Q0.915 0.475 0.915 0.470V0.461Q0.915 0.455 0.909 0.455ZM0.122 0.455H0.125Q0.132 0.461 0.136 0.461Q0.133 0.467 0.133 0.470L0.114 0.467Q0.122 0.459 0.122 0.455ZM0.830 0.455H0.833L0.847 0.458Q0.844 0.467 0.830 0.467L0.824 0.458ZM0.345 0.461Q0.348 0.461 0.348 0.464L0.354 0.461H0.357Q0.368 0.492 0.368 0.495Q0.364 0.495 0.357 0.506Q0.360 0.506 0.380 0.532Q0.354 0.543 0.348 0.543L0.326 0.517V0.515H0.340L0.345 0.512Q0.337 0.496 0.337 0.484L0.343 0.487L0.340 0.473V0.467Q0.341 0.461 0.345 0.461ZM0.275 0.464Q0.275 0.467 0.278 0.473H0.269V0.470Q0.270 0.464 0.275 0.464ZM0.677 0.467H0.680V0.473H0.677ZM0.592 0.470H0.595V0.478Q0.583 0.504 0.583 0.506L0.578 0.503H0.575Q0.575 0.506 0.572 0.512Q0.578 0.513 0.578 0.517Q0.572 0.517 0.572 0.520Q0.567 0.517 0.564 0.517V0.515Q0.592 0.474 0.592 0.470ZM0.042 0.473H0.054V0.478Q0.049 0.475 0.042 0.475ZM0.637 0.473H0.640V0.478H0.637ZM0.805 0.475Q0.812 0.475 0.816 0.501L0.810 0.503Q0.810 0.496 0.805 0.475ZM1.017 0.475 1.019 0.481Q1.017 0.496 1.017 0.506H1.019Q1.045 0.495 1.059 0.495H1.065Q1.062 0.504 0.997 0.529Q0.997 0.542 0.912 0.548Q0.912 0.546 0.909 0.546V0.591H0.906Q0.906 0.578 0.883 0.562Q0.878 0.565 0.875 0.565L0.872 0.560V0.554Q0.872 0.549 0.886 0.546L0.892 0.548Q0.900 0.548 0.912 0.540H0.921Q0.979 0.540 1.008 0.501L1.005 0.495V0.487Q1.005 0.482 1.017 0.475ZM0.788 0.478H0.790Q0.802 0.517 0.802 0.523L0.796 0.526H0.793V0.523Q0.793 0.517 0.788 0.484ZM0.122 0.484H0.125Q0.125 0.492 0.131 0.492Q0.136 0.489 0.139 0.489L0.136 0.495V0.498L0.142 0.506H0.139Q0.134 0.503 0.131 0.503Q0.128 0.508 0.128 0.515H0.125Q0.125 0.501 0.119 0.501H0.114V0.498Q0.122 0.498 0.122 0.489ZM0.711 0.484H0.714V0.498H0.711ZM0.614 0.487V0.489Q0.614 0.495 0.609 0.495H0.606Q0.606 0.491 0.614 0.487ZM0.652 0.487H0.655V0.495H0.652ZM0.731 0.487H0.733L0.736 0.520V0.529Q0.730 0.529 0.728 0.517Q0.731 0.493 0.731 0.487ZM0.903 0.489H0.909Q0.914 0.489 0.918 0.501L0.912 0.503H0.909Q0.909 0.499 0.903 0.492ZM-0.082 0.492H-0.077V0.495H-0.082ZM-0.056 0.492H-0.051V0.498Q-0.056 0.498 -0.056 0.492ZM0.632 0.492H0.634V0.495Q0.632 0.512 0.626 0.512Q0.626 0.509 0.623 0.503Q0.628 0.492 0.632 0.492ZM-0.065 0.495H-0.059V0.498H-0.065ZM0.074 0.495Q0.079 0.495 0.079 0.503L0.085 0.501H0.088L0.082 0.509V0.512L0.085 0.517H0.074Q0.074 0.523 0.068 0.523V0.520L0.071 0.515Q0.071 0.506 0.062 0.506V0.501L0.068 0.503Q0.074 0.503 0.074 0.495ZM1.068 0.495H1.071Q1.123 0.495 1.150 0.568Q1.144 0.569 1.144 0.574L1.150 0.582Q1.147 0.582 1.141 0.585Q1.141 0.531 1.077 0.506H1.065L1.071 0.498Q1.068 0.498 1.068 0.495ZM-0.088 0.498H-0.082V0.501H-0.088ZM0.600 0.498Q0.609 0.501 0.609 0.503Q0.600 0.529 0.595 0.529Q0.589 0.526 0.586 0.526V0.520Q0.598 0.520 0.598 0.501Q0.600 0.501 0.600 0.498ZM0.652 0.498 0.655 0.503Q0.655 0.509 0.649 0.509H0.646V0.503Q0.647 0.498 0.652 0.498ZM0.770 0.498Q0.776 0.499 0.776 0.503V0.506Q0.776 0.512 0.770 0.512ZM0.883 0.501Q0.900 0.504 0.900 0.509Q0.900 0.513 0.892 0.517H0.889ZM-0.093 0.503H-0.088V0.506H-0.093ZM-0.077 0.503H-0.071V0.506H-0.077ZM0.689 0.503H0.694V0.506Q0.694 0.512 0.689 0.512ZM0.666 0.506H0.674V0.515Q0.669 0.512 0.666 0.512ZM0.708 0.506H0.714V0.515H0.708ZM-0.082 0.509H-0.077Q-0.077 0.515 -0.082 0.515ZM0.617 0.512Q0.622 0.512 0.626 0.520Q0.620 0.539 0.620 0.546H0.617Q0.616 0.526 0.612 0.526Q0.617 0.517 0.617 0.512ZM0.686 0.512H0.689Q0.689 0.518 0.691 0.523H0.686ZM0.750 0.512H0.756V0.515Q0.756 0.520 0.750 0.520ZM0.640 0.515H0.643Q0.643 0.526 0.649 0.526V0.529Q0.637 0.536 0.637 0.548H0.643V0.551Q0.634 0.551 0.629 0.554V0.551Q0.640 0.520 0.640 0.515ZM0.869 0.515H0.878Q0.878 0.518 0.889 0.537L0.875 0.540H0.872Q0.872 0.536 0.864 0.517ZM0.564 0.517V0.529Q0.569 0.530 0.569 0.534V0.537Q0.563 0.532 0.553 0.532Q0.560 0.518 0.564 0.517ZM0.906 0.517H0.909V0.534Q0.905 0.534 0.900 0.526V0.523Q0.902 0.517 0.906 0.517ZM0.663 0.520H0.672V0.526H0.663ZM0.779 0.520H0.782V0.532Q0.779 0.532 0.773 0.534V0.526Q0.774 0.520 0.779 0.520ZM-0.091 0.523H-0.088V0.529H-0.091ZM0.697 0.523H0.700Q0.701 0.534 0.711 0.534V0.532L0.708 0.526Q0.711 0.526 0.711 0.523L0.717 0.526L0.722 0.523V0.534L0.728 0.532V0.537Q0.722 0.544 0.722 0.548Q0.719 0.548 0.719 0.546L0.703 0.551Q0.703 0.548 0.700 0.548Q0.700 0.551 0.697 0.551L0.694 0.537ZM0.824 0.526Q0.828 0.526 0.833 0.534H0.824Q0.819 0.534 0.819 0.529ZM-0.093 0.529H-0.091V0.537H-0.093ZM0.085 0.532H0.091V0.537H0.085ZM0.326 0.532 0.351 0.554Q0.377 0.540 0.383 0.540Q0.368 0.565 0.368 0.574Q0.382 0.580 0.394 0.597Q0.363 0.597 0.337 0.554Q0.335 0.554 0.326 0.540ZM0.507 0.532H0.510Q0.519 0.562 0.530 0.562Q0.498 0.605 0.493 0.605V0.603L0.496 0.588Q0.474 0.571 0.464 0.571V0.568Q0.501 0.568 0.501 0.557ZM0.844 0.532H0.847L0.861 0.534V0.540H0.850Q0.844 0.540 0.844 0.534ZM0.108 0.534H0.117Q0.114 0.540 0.114 0.543H0.108ZM0.683 0.534H0.686L0.691 0.560V0.562Q0.691 0.587 0.686 0.600Q0.695 0.605 0.703 0.605L0.700 0.611V0.625Q0.691 0.625 0.691 0.628Q0.680 0.623 0.680 0.620V0.548ZM-0.096 0.537H-0.093V0.543H-0.096ZM0.547 0.537H0.550V0.543H0.547ZM0.581 0.537Q0.592 0.542 0.592 0.546H0.589L0.575 0.543Q0.576 0.537 0.581 0.537ZM0.133 0.540H0.136Q0.136 0.548 0.145 0.548H0.150V0.551Q0.139 0.552 0.139 0.557Q0.142 0.562 0.142 0.565L0.136 0.562H0.133L0.128 0.565Q0.128 0.551 0.117 0.551V0.548Q0.133 0.548 0.133 0.540ZM0.394 0.540Q0.408 0.543 0.408 0.551H0.411L0.425 0.540Q0.439 0.544 0.439 0.548V0.551Q0.439 0.571 0.417 0.571V0.574Q0.423 0.588 0.442 0.597Q0.445 0.571 0.450 0.571Q0.484 0.589 0.484 0.591Q0.484 0.635 0.436 0.676H0.433Q0.433 0.669 0.411 0.651Q0.411 0.643 0.383 0.611V0.608Q0.378 0.608 0.371 0.620V0.623Q0.374 0.623 0.374 0.620Q0.386 0.623 0.386 0.628V0.639Q0.386 0.642 0.374 0.648Q0.366 0.646 0.348 0.623Q0.360 0.603 0.360 0.600Q0.392 0.605 0.408 0.605L0.411 0.600Q0.377 0.572 0.377 0.568ZM0.606 0.540H0.609L0.612 0.565H0.606V0.560L0.600 0.562L0.598 0.548V0.546Q0.606 0.546 0.606 0.540ZM0.861 0.540H0.864Q0.864 0.546 0.867 0.546L0.864 0.551V0.562Q0.864 0.567 0.881 0.579Q0.882 0.574 0.886 0.574L0.909 0.608V0.976H0.861V0.795Q0.861 0.792 0.867 0.773Q0.861 0.763 0.861 0.756ZM0.666 0.543V0.546Q0.663 0.549 0.663 0.565H0.660Q0.660 0.548 0.658 0.548H0.655V0.546Q0.656 0.546 0.666 0.543ZM0.728 0.548H0.731V0.577Q0.731 0.582 0.725 0.582V0.568ZM0.739 0.551H0.742V0.642H0.739V0.611Q0.730 0.605 0.725 0.605V0.591Q0.730 0.591 0.739 0.585ZM0.711 0.557H0.717V0.585H0.711V0.562H0.705Q0.707 0.557 0.711 0.557ZM-0.110 0.560H-0.108V0.571H-0.110ZM0.192 0.568H0.207Q0.207 0.574 0.210 0.574Q0.206 0.591 0.201 0.591H0.198Q0.192 0.591 0.192 0.585ZM-0.108 0.574H-0.105Q-0.105 0.588 -0.085 0.608H-0.091V0.761L-0.088 0.789H-0.091Q-0.096 0.787 -0.099 0.787V0.837Q-0.094 0.837 -0.085 0.846Q-0.088 0.851 -0.088 0.854H-0.091Q-0.091 0.846 -0.096 0.846H-0.099V0.854L-0.102 0.868Q-0.119 0.859 -0.119 0.854H-0.116Q-0.111 0.857 -0.108 0.857V0.834Q-0.108 0.826 -0.110 0.826L-0.108 0.812ZM0.045 0.585 0.040 0.582Q0.042 0.586 0.042 0.597Q0.033 0.603 0.028 0.603Q0.031 0.608 0.031 0.611H0.040Q0.040 0.608 0.042 0.603L0.057 0.605H0.059Q0.065 0.605 0.065 0.600V0.597Q0.065 0.591 0.059 0.591L0.054 0.594L0.051 0.588Q0.057 0.588 0.057 0.582Q0.057 0.577 0.051 0.577Q0.045 0.577 0.045 0.585ZM0.663 0.577V0.579Q0.663 0.588 0.660 0.588L0.663 0.603V0.665Q0.663 0.668 0.666 0.668Q0.663 0.672 0.663 0.682H0.660L0.658 0.668V0.582Q0.658 0.577 0.663 0.577ZM-0.091 0.579H-0.088V0.585H-0.091ZM-0.088 0.585Q-0.083 0.585 -0.079 0.597H-0.085ZM0.717 0.594H0.719V0.603H0.717Q0.711 0.603 0.711 0.597ZM0.017 0.600Q0.017 0.605 0.012 0.605V0.614H0.017Q0.017 0.605 0.026 0.605V0.600ZM0.603 0.597H0.609Q0.614 0.597 0.614 0.603L0.609 0.605H0.603L0.606 0.600Q0.603 0.600 0.603 0.597ZM-0.099 0.603V0.775H-0.093V0.603ZM1.141 0.605 1.150 0.611Q1.127 0.670 1.082 0.670H1.079Q1.079 0.668 1.113 0.653Q1.141 0.629 1.141 0.605ZM-0.065 0.608H-0.059V0.611H-0.065ZM0.711 0.611H0.719V0.784Q0.719 0.789 0.714 0.789L0.711 0.784ZM-0.079 0.614Q-0.071 0.623 -0.056 0.623V0.628L-0.062 0.625H-0.068V0.668H-0.056V0.628H-0.051L-0.053 0.634V0.665Q-0.053 0.668 -0.051 0.668L-0.053 0.673V0.715H-0.056V0.670H-0.068Q-0.068 0.682 -0.074 0.682Q-0.080 0.682 -0.082 0.662Q-0.079 0.637 -0.079 0.625H-0.082Q-0.079 0.620 -0.079 0.614ZM0.643 0.614 0.646 0.620Q0.646 0.625 0.640 0.625L0.637 0.620Q0.638 0.614 0.643 0.614ZM0.725 0.614Q0.731 0.614 0.731 0.620V0.656Q0.732 0.662 0.736 0.662Q0.737 0.656 0.742 0.656V0.886Q0.742 0.900 0.731 0.903L0.725 0.894ZM0.869 0.625Q0.875 0.638 0.881 0.639Q0.892 0.635 0.898 0.625Q0.898 0.621 0.889 0.617H0.878Q0.876 0.617 0.869 0.625ZM0.012 0.620V0.637H0.014Q0.014 0.631 0.020 0.631V0.623Q0.017 0.623 0.012 0.620ZM1.042 0.623Q1.077 0.629 1.077 0.637V0.645Q1.062 0.666 1.062 0.673Q1.062 0.681 1.094 0.693Q1.091 0.728 1.091 0.730H1.059Q1.055 0.730 1.051 0.721Q1.051 0.715 1.056 0.693H1.045Q1.038 0.712 1.031 0.712H1.022Q0.997 0.708 0.997 0.701Q1.005 0.668 1.019 0.668L1.048 0.676V0.668Q1.031 0.653 1.031 0.642Q1.036 0.623 1.042 0.623ZM0.881 0.625H0.886Q0.886 0.631 0.881 0.631ZM0.012 0.679V0.696Q0.016 0.696 0.020 0.687Q0.020 0.684 0.012 0.679ZM0.031 0.701Q0.031 0.706 0.017 0.718V0.721Q0.031 0.724 0.031 0.736H0.034Q0.038 0.736 0.051 0.718Q0.051 0.715 0.034 0.701ZM0.048 0.750 0.054 0.758Q0.045 0.758 0.045 0.764V0.767Q0.056 0.784 0.074 0.784Q0.094 0.776 0.094 0.764Q0.100 0.764 0.100 0.758V0.747H0.097Q0.091 0.747 0.091 0.756L0.065 0.733Q0.062 0.733 0.048 0.750ZM0.119 0.750H0.125V0.753H0.119ZM0.079 0.756V0.758Q0.079 0.764 0.074 0.764H0.071Q0.071 0.760 0.079 0.756ZM-0.056 0.801H-0.053Q-0.048 0.821 -0.048 0.823H-0.053Q-0.053 0.821 -0.056 0.806ZM0.026 0.812H0.028V0.818H0.026ZM-0.079 0.818H-0.077V0.823H-0.079ZM0.026 0.818V0.820Q0.022 0.832 0.017 0.832H0.014Q0.022 0.818 0.026 0.818ZM-0.077 0.823Q-0.071 0.824 -0.071 0.829V0.832H-0.077ZM0.045 0.834V0.837Q0.045 0.842 0.037 0.846V0.843Q0.037 0.839 0.045 0.834ZM0.204 0.840H0.218V0.843H0.204ZM0.195 0.843H0.201V0.846H0.195ZM-0.130 0.848H-0.124V0.851H-0.130ZM-0.124 0.851H-0.119V0.854H-0.124ZM0.065 0.854Q0.065 0.858 0.051 0.866L0.048 0.860ZM0.162 0.854Q0.166 0.857 0.178 0.857V0.860Q0.164 0.860 0.142 0.877H0.131L0.125 0.868Q0.145 0.863 0.145 0.857L0.150 0.860H0.156Q0.162 0.860 0.162 0.854ZM0.178 0.854H0.187V0.857H0.178ZM-0.051 0.857H-0.048V0.863H-0.051ZM-0.062 0.863H-0.059V0.868H-0.062ZM0.224 0.871H0.230V0.874H0.224ZM-0.077 0.874H-0.071V0.877H-0.077ZM-0.136 0.877H-0.130V0.880H-0.136ZM0.012 0.880V0.889Q0.017 0.889 0.017 0.883V0.880ZM-0.130 0.880H-0.119L-0.105 0.883V0.886Q-0.108 0.886 -0.113 0.889Q-0.123 0.883 -0.130 0.883ZM0.195 0.880Q0.195 0.886 0.198 0.892L0.192 0.894Q0.184 0.889 0.178 0.889V0.886Q0.186 0.886 0.195 0.880ZM0.156 0.886Q0.160 0.889 0.170 0.889L0.148 0.917H0.145L0.148 0.911V0.897L0.133 0.894L0.122 0.897V0.914H0.117Q0.119 0.909 0.119 0.906L0.114 0.894Q0.142 0.892 0.156 0.886ZM-0.150 0.906H-0.119V0.911Q-0.119 0.908 -0.150 0.908ZM-0.130 0.920H-0.119L-0.122 0.925Q-0.119 0.931 -0.119 0.934Q-0.122 0.934 -0.122 0.937Q-0.119 0.937 -0.119 0.939H-0.127Q-0.127 0.934 -0.130 0.934L-0.144 0.937Q-0.130 0.926 -0.130 0.920ZM0.131 0.931V0.937H0.125Q0.126 0.931 0.131 0.931ZM0.097 0.939H0.111V0.942L0.097 0.945ZM0.156 0.939H0.164V0.942H0.156ZM-0.110 0.951 -0.108 0.956Q-0.109 0.956 -0.124 0.959Q-0.124 0.952 -0.110 0.951ZM-0.130 0.959H-0.124V0.962H-0.130ZM-0.056 0.962H-0.053V0.968H-0.056ZM-0.099 0.970V0.973Q-0.099 0.978 -0.108 0.982H-0.110Q-0.110 0.978 -0.099 0.970ZM0.048 0.970Q0.048 0.972 0.059 0.984H0.057Q0.043 0.977 0.042 0.973ZM-0.042 0.979H-0.039V0.996H-0.042ZM0.031 0.987Q0.031 0.992 0.037 0.999V1.001Q0.033 1.001 0.026 0.990ZM-0.088 0.990H-0.082V0.993Q-0.082 0.997 -0.091 1.001V0.999Q-0.088 0.993 -0.088 0.990ZM-0.065 0.999 -0.059 1.001Q-0.062 1.007 -0.062 1.010H-0.065ZM0.006 1.001Q0.012 1.001 0.012 1.010V1.013H0.009ZM-0.042 1.004 -0.036 1.007Q-0.039 1.019 -0.039 1.027H-0.042ZM-0.017 1.007H-0.014V1.019H-0.017ZM-0.068 1.010H-0.065V1.016H-0.068ZM0.012 1.013H0.014V1.019H0.012ZM-0.071 1.016H-0.068V1.022H-0.071ZM0.014 1.019H0.017V1.025H0.014ZM-0.014 1.025H-0.011V1.036H-0.014Z" fill="black"/>
</svg>
