<svg xmlns="http://www.w3.org/2000/svg" viewBox="0 0 1 1" preserveAspectRatio="xMidYMid meet">
  <path d="M0.296 -0.030H0.302V-0.021L0.299 -0.016Q0.308 -0.016 0.308 0.038V0.049H0.305Q0.305 0.033 0.299 0.033H0.296V0.044Q0.291 0.044 0.291 0.038L0.294 0.022L0.299 0.024L0.302 0.019L0.294 0.013L0.296 -0.016ZM0.639 -0.024H0.642V-0.018Q0.639 -0.013 0.639 -0.010H0.636V-0.016Q0.639 -0.021 0.639 -0.024ZM0.240 -0.013H0.246Q0.257 0.019 0.257 0.027Q0.243 0.022 0.243 0.019Q0.240 -0.007 0.240 -0.013ZM0.647 -0.013Q0.655 -0.013 0.659 0.010Q0.659 0.014 0.645 0.022H0.642L0.636 0.004Q0.642 0.004 0.647 -0.013ZM0.358 -0.010 0.361 0.004Q0.357 0.004 0.353 -0.007ZM0.187 0.004H0.190Q0.190 0.007 0.192 0.013H0.187ZM0.411 0.004H0.414Q0.414 0.010 0.417 0.010Q0.414 0.016 0.414 0.019H0.411ZM0.353 0.007 0.355 0.019Q0.351 0.019 0.347 0.010ZM0.406 0.019Q0.406 0.022 0.409 0.022Q0.409 0.019 0.411 0.019V0.024Q0.409 0.030 0.409 0.033Q0.405 0.033 0.400 0.024Q0.402 0.019 0.406 0.019ZM0.347 0.022 0.355 0.033V0.038Q0.346 0.030 0.341 0.030V0.027Q0.342 0.022 0.347 0.022ZM0.190 0.024H0.192Q0.209 0.034 0.209 0.038V0.041Q0.205 0.041 0.198 0.047Q0.198 0.040 0.190 0.024ZM0.656 0.024V0.027Q0.656 0.033 0.650 0.033V0.030Q0.651 0.024 0.656 0.024ZM0.246 0.033H0.249Q0.254 0.035 0.257 0.035Q0.254 0.039 0.254 0.055Q0.249 0.055 0.246 0.033ZM0.398 0.033Q0.403 0.042 0.403 0.047L0.398 0.049Q0.392 0.040 0.392 0.035ZM0.468 0.035 0.471 0.041 0.409 0.114V0.111Q0.413 0.099 0.425 0.086V0.083H0.423L0.414 0.088V0.083Q0.464 0.035 0.468 0.035ZM0.133 0.038H0.136Q0.153 0.055 0.159 0.055V0.058Q0.154 0.058 0.147 0.063Q0.133 0.042 0.133 0.038ZM0.257 0.038H0.263V0.047Q0.257 0.047 0.257 0.041ZM0.693 0.038H0.743V0.044Q0.743 0.048 0.693 0.063ZM0.075 0.041Q0.085 0.051 0.114 0.094Q0.110 0.094 0.077 0.131H0.075V0.100L0.086 0.086Q0.086 0.084 0.075 0.072ZM0.347 0.044Q0.353 0.045 0.353 0.049V0.052Q0.347 0.052 0.347 0.047ZM0.338 0.047V0.055Q0.333 0.055 0.333 0.049ZM0.384 0.047H0.389Q0.395 0.062 0.395 0.063L0.389 0.066H0.386L0.389 0.060V0.055L0.381 0.060L0.378 0.055Q0.384 0.055 0.384 0.047ZM0.209 0.049Q0.209 0.052 0.212 0.052L0.209 0.058Q0.220 0.077 0.220 0.083H0.215Q0.204 0.054 0.204 0.052ZM0.296 0.049V0.058H0.291V0.055Q0.292 0.049 0.296 0.049ZM0.305 0.055Q0.310 0.056 0.310 0.060V0.066Q0.305 0.066 0.305 0.060ZM0.266 0.058H0.271V0.066Q0.266 0.066 0.266 0.060ZM0.344 0.058Q0.350 0.059 0.350 0.063V0.066H0.344ZM0.743 0.058V0.072Q0.739 0.072 0.693 0.094V0.091Q0.712 0.077 0.712 0.074L0.707 0.072L0.693 0.077V0.074Q0.693 0.068 0.743 0.058ZM0.165 0.063Q0.168 0.063 0.173 0.072L0.167 0.074H0.162Q0.156 0.074 0.156 0.069ZM0.251 0.063Q0.257 0.063 0.263 0.091H0.260Q0.253 0.091 0.251 0.063ZM0.373 0.063Q0.378 0.064 0.378 0.069L0.370 0.074V0.072Q0.373 0.066 0.373 0.063ZM0.223 0.066Q0.240 0.077 0.240 0.088Q0.235 0.088 0.223 0.069ZM0.327 0.069H0.333V0.074H0.327ZM0.288 0.072H0.294V0.080Q0.288 0.080 0.288 0.074ZM0.384 0.072H0.386V0.080Q0.386 0.086 0.381 0.086L0.378 0.080Q0.384 0.080 0.384 0.072ZM0.341 0.074H0.347V0.083Q0.341 0.083 0.341 0.077ZM0.176 0.077H0.181Q0.181 0.083 0.176 0.083ZM0.271 0.077H0.277Q0.277 0.085 0.282 0.094H0.280Q0.274 0.094 0.271 0.077ZM0.361 0.080H0.367V0.083Q0.367 0.088 0.361 0.088H0.358Q0.361 0.083 0.361 0.080ZM0.743 0.080V0.117L0.709 0.120H0.693V0.103ZM0.167 0.083H0.170Q0.176 0.084 0.181 0.097H0.179Q0.174 0.097 0.167 0.086ZM0.184 0.083H0.187Q0.217 0.108 0.217 0.111H0.215L0.209 0.108Q0.209 0.111 0.206 0.111L0.184 0.086ZM0.308 0.083Q0.313 0.084 0.313 0.088V0.091H0.308ZM0.507 0.083V0.086L0.409 0.164V0.167Q0.504 0.145 0.532 0.137L0.535 0.142Q0.427 0.189 0.420 0.189V0.195Q0.495 0.198 0.538 0.198H0.546V0.204H0.543Q0.432 0.221 0.420 0.221V0.227L0.507 0.249V0.252Q0.478 0.252 0.462 0.257Q0.431 0.252 0.417 0.252V0.246Q0.464 0.252 0.479 0.252Q0.479 0.245 0.417 0.232V0.215H0.420Q0.470 0.210 0.482 0.210V0.204H0.479Q0.474 0.204 0.417 0.201V0.184Q0.474 0.166 0.474 0.159V0.156Q0.462 0.162 0.406 0.173H0.403V0.170Q0.403 0.153 0.451 0.125L0.454 0.120V0.117H0.451L0.406 0.142V0.134ZM0.220 0.088H0.226L0.234 0.114H0.231Q0.226 0.114 0.220 0.088ZM0.288 0.088H0.294V0.097H0.288ZM0.338 0.088H0.344V0.097Q0.338 0.097 0.338 0.091ZM0.319 0.091Q0.324 0.092 0.324 0.097V0.100Q0.319 0.100 0.319 0.094ZM0.355 0.094 0.358 0.100 0.353 0.103H0.350V0.100Q0.350 0.094 0.355 0.094ZM0.403 0.094V0.103Q0.400 0.103 0.355 0.142L0.353 0.137Q0.370 0.128 0.370 0.103H0.375V0.105Q0.370 0.114 0.370 0.120H0.373ZM0.243 0.097H0.246Q0.251 0.098 0.251 0.103H0.243ZM0.127 0.100 0.209 0.142V0.139L0.204 0.131H0.209Q0.212 0.131 0.226 0.151H0.217Q0.207 0.151 0.150 0.117H0.145L0.187 0.153H0.181Q0.179 0.153 0.130 0.117V0.120Q0.134 0.120 0.153 0.148V0.151L0.122 0.123L0.077 0.170L0.125 0.215Q0.125 0.210 0.136 0.210L0.133 0.204L0.162 0.178Q0.176 0.178 0.206 0.198V0.201H0.192Q0.198 0.210 0.198 0.215Q0.179 0.237 0.127 0.246V0.252H0.147V0.254Q0.136 0.257 0.127 0.257V0.291Q0.118 0.285 0.111 0.285L0.114 0.280L0.108 0.277H0.105Q0.101 0.277 0.097 0.285Q0.091 0.282 0.088 0.282V0.280Q0.097 0.280 0.097 0.274L0.094 0.268Q0.083 0.274 0.075 0.274V0.266Q0.075 0.264 0.086 0.252L0.075 0.238V0.207Q0.064 0.204 0.055 0.204V0.198H0.075V0.164ZM0.257 0.100H0.263V0.105H0.257ZM0.280 0.103 0.294 0.105V0.111L0.280 0.108ZM0.335 0.103Q0.347 0.107 0.347 0.111V0.114Q0.347 0.120 0.341 0.120Q0.335 0.120 0.335 0.114ZM0.108 0.108H0.111Q0.111 0.113 0.100 0.120V0.117Q0.100 0.113 0.108 0.108ZM0.308 0.108H0.319V0.114H0.313Q0.308 0.114 0.308 0.108ZM0.647 0.111H0.650V0.117H0.647ZM0.254 0.117H0.257Q0.263 0.120 0.266 0.120V0.125H0.263Q0.259 0.125 0.254 0.117ZM0.220 0.120H0.223Q0.246 0.127 0.246 0.134V0.139H0.243Q0.227 0.130 0.220 0.120ZM0.400 0.120V0.125L0.392 0.137V0.139H0.398V0.148Q0.377 0.156 0.373 0.156V0.153Q0.386 0.134 0.400 0.120ZM0.743 0.125V0.142Q0.699 0.151 0.693 0.153V0.148Q0.726 0.143 0.726 0.137L0.721 0.134H0.693V0.128H0.709ZM0.650 0.131H0.656Q0.656 0.137 0.650 0.137ZM0.086 0.134V0.137Q0.086 0.141 0.075 0.148V0.145Q0.075 0.140 0.086 0.134ZM0.125 0.134 0.145 0.156 0.136 0.162 0.139 0.167 0.136 0.173 0.145 0.178 0.147 0.173Q0.142 0.173 0.142 0.167L0.147 0.159Q0.159 0.161 0.159 0.164Q0.164 0.162 0.167 0.162Q0.171 0.162 0.192 0.167Q0.192 0.159 0.198 0.159Q0.215 0.173 0.215 0.176H0.212Q0.184 0.173 0.170 0.167Q0.159 0.167 0.122 0.204L0.088 0.167ZM0.743 0.151V0.184Q0.696 0.173 0.684 0.173V0.162Q0.696 0.162 0.743 0.151ZM0.656 0.156H0.662V0.159H0.656ZM0.395 0.167V0.173Q0.395 0.178 0.389 0.178H0.386V0.176Q0.386 0.172 0.395 0.167ZM0.827 0.167H0.850Q0.862 0.167 0.873 0.173V0.170Q0.933 0.192 0.954 0.235Q0.966 0.247 0.974 0.296Q0.974 0.333 0.934 0.378H0.931V0.386Q0.934 0.386 0.940 0.389Q0.940 0.386 0.942 0.386Q0.942 0.389 0.945 0.389V0.386Q0.957 0.389 0.965 0.395V0.392Q0.980 0.392 0.993 0.426Q0.991 0.426 0.991 0.429Q0.993 0.429 0.993 0.432H0.991Q0.993 0.437 0.993 0.440Q0.988 0.458 0.988 0.462Q0.983 0.460 0.980 0.460V0.454L0.982 0.448H0.980Q0.980 0.446 0.982 0.446Q0.972 0.403 0.940 0.403Q0.940 0.406 0.937 0.406Q0.937 0.403 0.934 0.403Q0.934 0.406 0.931 0.406V0.403L0.920 0.409V0.406L0.901 0.418Q0.901 0.415 0.898 0.415V0.421L0.892 0.418Q0.892 0.424 0.876 0.435Q0.847 0.478 0.847 0.499L0.855 0.519H0.853L0.858 0.536Q0.855 0.536 0.855 0.539Q0.858 0.539 0.864 0.541Q0.864 0.535 0.876 0.530Q0.876 0.533 0.878 0.533V0.527L0.884 0.530Q0.884 0.526 0.895 0.522V0.525L0.906 0.519Q0.906 0.522 0.909 0.522Q0.909 0.519 0.912 0.519V0.522Q0.922 0.516 0.934 0.516H0.937Q0.945 0.516 0.954 0.522Q0.954 0.519 0.957 0.519Q0.957 0.522 0.960 0.522V0.519Q1.019 0.535 1.041 0.569L1.055 0.594H1.052Q1.058 0.603 1.061 0.631Q1.058 0.658 1.055 0.662H1.058L1.052 0.673H1.055Q1.052 0.678 1.052 0.681Q1.047 0.679 1.044 0.679Q1.052 0.665 1.052 0.642V0.631Q1.052 0.607 1.041 0.589Q1.044 0.589 1.044 0.586Q1.040 0.586 1.013 0.555L0.980 0.536V0.539L0.968 0.533V0.536L0.957 0.530Q0.957 0.533 0.954 0.533Q0.954 0.530 0.951 0.530Q0.951 0.533 0.948 0.533Q0.948 0.530 0.945 0.530Q0.945 0.533 0.942 0.533Q0.942 0.530 0.940 0.530Q0.940 0.533 0.937 0.533Q0.937 0.530 0.934 0.530Q0.934 0.533 0.931 0.533V0.530L0.915 0.536V0.533L0.903 0.539Q0.903 0.536 0.901 0.536Q0.901 0.541 0.895 0.541V0.539Q0.850 0.556 0.850 0.583L0.830 0.617V0.634H0.836V0.642Q0.827 0.642 0.827 0.645Q0.825 0.669 0.825 0.673H0.827Q0.822 0.710 0.813 0.727H0.816Q0.800 0.757 0.786 0.771Q0.778 0.805 0.754 0.805Q0.811 0.737 0.811 0.687Q0.808 0.687 0.808 0.684H0.811Q0.806 0.668 0.802 0.659Q0.805 0.659 0.805 0.656Q0.796 0.647 0.783 0.629L0.777 0.631V0.626Q0.774 0.626 0.774 0.629L0.763 0.623Q0.763 0.626 0.760 0.626Q0.760 0.623 0.757 0.623Q0.757 0.626 0.754 0.626V0.623Q0.743 0.627 0.743 0.631V0.816L0.754 0.805V0.819Q0.749 0.826 0.749 0.831L0.743 0.828V0.979H0.696V0.971Q0.696 0.928 0.639 0.906L0.594 0.842Q0.617 0.840 0.617 0.794Q0.690 0.892 0.693 0.892V0.878Q0.693 0.875 0.690 0.875L0.693 0.870V0.811Q0.656 0.783 0.642 0.758Q0.647 0.758 0.659 0.752Q0.659 0.755 0.662 0.755Q0.662 0.752 0.665 0.752Q0.666 0.760 0.687 0.760Q0.721 0.753 0.721 0.730V0.718Q0.721 0.701 0.693 0.684V0.629H0.687V0.623L0.693 0.626V0.617Q0.693 0.583 0.687 0.583L0.690 0.577V0.575Q0.685 0.575 0.679 0.569L0.682 0.564V0.561H0.679Q0.638 0.555 0.636 0.555V0.552H0.653V0.550L0.650 0.530Q0.643 0.530 0.636 0.544H0.639Q0.636 0.549 0.636 0.552H0.633Q0.633 0.523 0.605 0.504Q0.600 0.493 0.600 0.487H0.605Q0.605 0.504 0.639 0.516Q0.682 0.513 0.682 0.474V0.462Q0.682 0.451 0.665 0.421L0.670 0.418Q0.677 0.429 0.690 0.435Q0.701 0.430 0.701 0.426V0.421Q0.693 0.414 0.690 0.370Q0.685 0.367 0.679 0.367V0.364Q0.686 0.364 0.696 0.345Q0.743 0.371 0.743 0.375V0.406Q0.744 0.412 0.749 0.412H0.757Q0.763 0.412 0.763 0.406V0.403L0.760 0.397L0.766 0.395Q0.766 0.397 0.769 0.397Q0.769 0.395 0.772 0.395Q0.772 0.397 0.774 0.397Q0.774 0.395 0.777 0.395L0.780 0.400H0.774V0.409L0.794 0.412L0.791 0.418L0.786 0.415H0.743V0.421Q0.744 0.426 0.749 0.426Q0.749 0.423 0.751 0.423Q0.751 0.426 0.754 0.426V0.423L0.760 0.426H0.802V0.429Q0.792 0.429 0.777 0.435Q0.777 0.429 0.772 0.429Q0.772 0.432 0.769 0.432V0.429L0.757 0.435Q0.757 0.432 0.754 0.432Q0.754 0.435 0.751 0.435Q0.751 0.432 0.749 0.432Q0.749 0.435 0.746 0.435Q0.746 0.432 0.743 0.432V0.530H0.746Q0.751 0.527 0.754 0.527Q0.743 0.539 0.743 0.541V0.558Q0.764 0.564 0.783 0.564V0.566H0.743V0.589L0.751 0.600H0.749L0.743 0.597V0.611Q0.757 0.605 0.766 0.605Q0.766 0.608 0.769 0.608V0.605Q0.785 0.609 0.802 0.626Q0.816 0.616 0.816 0.597Q0.825 0.546 0.838 0.482Q0.836 0.477 0.836 0.474L0.841 0.476Q0.850 0.464 0.850 0.454Q0.847 0.454 0.847 0.451Q0.858 0.451 0.861 0.437Q0.850 0.432 0.841 0.432Q0.844 0.437 0.844 0.440L0.838 0.443Q0.838 0.432 0.830 0.432Q0.825 0.449 0.825 0.457H0.819Q0.825 0.438 0.825 0.432V0.429Q0.815 0.435 0.811 0.435L0.808 0.429Q0.819 0.429 0.819 0.423V0.421H0.797Q0.797 0.415 0.819 0.415V0.412Q0.813 0.412 0.799 0.403Q0.799 0.406 0.797 0.406Q0.797 0.401 0.783 0.383V0.381L0.794 0.386V0.383Q0.798 0.383 0.822 0.406Q0.822 0.403 0.825 0.403L0.822 0.389V0.386H0.825V0.392H0.827L0.833 0.389V0.400H0.836L0.838 0.389H0.841V0.406L0.855 0.397H0.858Q0.847 0.410 0.847 0.412V0.415H0.873V0.418Q0.862 0.418 0.847 0.421V0.426Q0.852 0.426 0.861 0.435Q0.883 0.407 0.934 0.358Q0.952 0.330 0.960 0.299Q0.960 0.254 0.912 0.204Q0.896 0.192 0.861 0.178V0.181L0.833 0.176Q0.833 0.178 0.830 0.178V0.176L0.819 0.181Q0.819 0.178 0.816 0.178Q0.816 0.184 0.811 0.184V0.181Q0.791 0.192 0.783 0.192H0.777Q0.786 0.186 0.786 0.181L0.791 0.184Q0.791 0.178 0.808 0.173V0.176L0.819 0.170Q0.819 0.173 0.822 0.173Q0.823 0.167 0.827 0.167ZM0.662 0.176 0.743 0.192V0.210Q0.705 0.207 0.687 0.207H0.673V0.201H0.696L0.723 0.204L0.726 0.198Q0.723 0.192 0.662 0.181ZM0.769 0.198H0.777Q0.777 0.203 0.766 0.210H0.757V0.207Q0.761 0.207 0.769 0.198ZM0.127 0.215V0.241Q0.153 0.235 0.153 0.229Q0.151 0.229 0.139 0.215ZM0.673 0.215H0.687Q0.705 0.215 0.743 0.218V0.229H0.746L0.749 0.218H0.760V0.221Q0.751 0.221 0.751 0.235L0.746 0.232H0.743V0.254H0.740Q0.675 0.224 0.673 0.218ZM0.406 0.218H0.409V0.229H0.406ZM0.204 0.227V0.229L0.209 0.227H0.212Q0.212 0.230 0.220 0.243Q0.215 0.244 0.215 0.249L0.220 0.252L0.226 0.249L0.234 0.263Q0.231 0.263 0.209 0.288Q0.202 0.288 0.170 0.252H0.156V0.249Q0.165 0.249 0.195 0.229Q0.195 0.232 0.198 0.232Q0.199 0.227 0.204 0.227ZM0.670 0.229Q0.741 0.263 0.743 0.268V0.280Q0.693 0.265 0.693 0.260V0.257Q0.704 0.263 0.709 0.263L0.712 0.257Q0.675 0.235 0.668 0.235ZM0.608 0.238V0.246Q0.603 0.246 0.603 0.241ZM0.204 0.246 0.201 0.252 0.206 0.254 0.209 0.249ZM0.187 0.249 0.184 0.254 0.190 0.257 0.192 0.252ZM0.403 0.246H0.409V0.252Q0.403 0.252 0.403 0.246ZM0.594 0.249H0.597Q0.601 0.249 0.611 0.263V0.266H0.608Q0.595 0.259 0.594 0.254ZM0.656 0.249H0.662Q0.679 0.254 0.682 0.254V0.260Q0.656 0.254 0.656 0.249ZM0.063 0.257H0.069Q0.069 0.262 0.061 0.266L0.058 0.260ZM0.414 0.257H0.417L0.521 0.316V0.322Q0.403 0.282 0.403 0.277Q0.406 0.277 0.406 0.274Q0.464 0.296 0.468 0.296V0.291Q0.427 0.273 0.414 0.260ZM0.647 0.260H0.650Q0.669 0.266 0.676 0.266Q0.670 0.275 0.670 0.280H0.668Q0.663 0.280 0.647 0.260ZM0.173 0.266V0.271Q0.168 0.271 0.150 0.282V0.274ZM0.240 0.266Q0.240 0.270 0.246 0.277Q0.234 0.283 0.206 0.302L0.195 0.293Q0.195 0.298 0.165 0.325H0.159Q0.192 0.290 0.192 0.285Q0.205 0.296 0.206 0.296ZM0.642 0.266 0.662 0.288V0.291H0.659Q0.633 0.270 0.633 0.268Q0.636 0.268 0.642 0.266ZM0.395 0.271Q0.395 0.282 0.425 0.305L0.490 0.372V0.375H0.488Q0.482 0.372 0.479 0.372Q0.479 0.375 0.476 0.375Q0.474 0.353 0.465 0.353Q0.460 0.356 0.457 0.356Q0.456 0.352 0.384 0.302H0.381V0.305Q0.418 0.370 0.425 0.372Q0.420 0.384 0.420 0.389Q0.399 0.368 0.364 0.325V0.319Q0.367 0.319 0.406 0.364H0.409V0.361L0.373 0.302L0.375 0.296Q0.375 0.291 0.370 0.291Q0.370 0.293 0.367 0.293L0.364 0.288L0.370 0.285L0.437 0.333H0.442L0.384 0.271ZM0.594 0.268H0.597Q0.645 0.295 0.653 0.305V0.308Q0.601 0.277 0.594 0.277ZM0.619 0.271H0.625V0.274H0.619ZM0.693 0.274Q0.699 0.274 0.743 0.288V0.345Q0.702 0.313 0.693 0.299ZM0.187 0.277 0.190 0.282 0.170 0.288H0.162V0.285Q0.168 0.285 0.187 0.277ZM0.251 0.282 0.260 0.296V0.299Q0.254 0.299 0.212 0.319Q0.212 0.313 0.209 0.308Q0.214 0.308 0.251 0.282ZM0.075 0.288H0.080Q0.080 0.293 0.075 0.293ZM0.162 0.288Q0.162 0.296 0.139 0.299Q0.139 0.292 0.162 0.288ZM0.597 0.288Q0.649 0.356 0.650 0.367H0.647L0.656 0.386L0.650 0.389Q0.650 0.371 0.600 0.296Q0.597 0.291 0.597 0.288ZM0.097 0.291 0.100 0.302 0.091 0.308V0.296Q0.092 0.291 0.097 0.291ZM0.617 0.296 0.650 0.316Q0.647 0.318 0.647 0.342Q0.645 0.342 0.617 0.299ZM0.083 0.299V0.305L0.080 0.311Q0.094 0.314 0.094 0.319L0.080 0.336L0.086 0.339Q0.087 0.334 0.125 0.299L0.127 0.305V0.350Q0.132 0.350 0.153 0.331Q0.159 0.331 0.159 0.336Q0.119 0.371 0.119 0.375L0.125 0.378Q0.125 0.375 0.127 0.375V0.426H0.125L0.122 0.412H0.125Q0.125 0.392 0.088 0.367Q0.084 0.364 0.077 0.364Q0.077 0.367 0.075 0.367V0.308Q0.075 0.304 0.083 0.299ZM0.350 0.302H0.353V0.308H0.344Q0.345 0.302 0.350 0.302ZM0.269 0.308Q0.269 0.311 0.271 0.311Q0.277 0.308 0.280 0.308V0.316L0.282 0.331Q0.257 0.351 0.257 0.358L0.251 0.356H0.234V0.353L0.237 0.347L0.226 0.336Q0.214 0.356 0.209 0.356H0.204L0.223 0.331L0.220 0.325Q0.253 0.308 0.269 0.308ZM0.355 0.314H0.358Q0.353 0.322 0.353 0.328H0.350V0.319Q0.350 0.314 0.355 0.314ZM0.693 0.314Q0.734 0.345 0.743 0.358V0.361H0.740Q0.702 0.340 0.693 0.331ZM0.296 0.319H0.305V0.322Q0.298 0.336 0.294 0.336V0.333ZM0.327 0.319H0.333Q0.333 0.323 0.321 0.331V0.325Q0.323 0.319 0.327 0.319ZM0.179 0.322V0.331H0.170Q0.170 0.326 0.179 0.322ZM0.206 0.331H0.209V0.333Q0.199 0.353 0.195 0.353H0.192V0.350Q0.202 0.331 0.206 0.331ZM0.333 0.331H0.338Q0.338 0.335 0.344 0.345L0.338 0.347ZM0.288 0.336Q0.293 0.339 0.296 0.339V0.353Q0.262 0.378 0.257 0.378L0.254 0.372Q0.264 0.356 0.288 0.336ZM0.305 0.336H0.308V0.342H0.305ZM0.327 0.336 0.330 0.356V0.361L0.327 0.375H0.324Q0.324 0.357 0.321 0.339ZM0.355 0.336H0.361Q0.361 0.344 0.395 0.446H0.386Q0.386 0.438 0.353 0.375Q0.353 0.370 0.358 0.370Q0.364 0.385 0.364 0.386H0.370ZM0.611 0.339Q0.616 0.339 0.622 0.350L0.617 0.353L0.611 0.345ZM0.310 0.350Q0.313 0.368 0.321 0.383L0.299 0.429H0.296Q0.291 0.429 0.285 0.412H0.282L0.271 0.462Q0.266 0.462 0.266 0.457Q0.266 0.443 0.271 0.443L0.269 0.437V0.397L0.266 0.383Q0.280 0.374 0.310 0.350ZM0.350 0.353V0.361Q0.344 0.361 0.344 0.356ZM0.184 0.361H0.190V0.364H0.184ZM0.234 0.367H0.237Q0.230 0.389 0.226 0.389V0.383Q0.229 0.367 0.234 0.367ZM0.080 0.372Q0.095 0.372 0.114 0.406H0.086Q0.081 0.406 0.075 0.395V0.389Q0.075 0.382 0.080 0.372ZM0.190 0.372H0.195Q0.195 0.376 0.181 0.386Q0.176 0.386 0.176 0.381V0.375ZM0.474 0.375H0.476V0.397H0.471V0.389ZM0.488 0.378H0.493V0.381H0.488ZM0.819 0.378H0.822V0.383H0.819ZM0.454 0.381H0.460V0.392H0.454Q0.454 0.389 0.457 0.389L0.454 0.383ZM0.841 0.381H0.844V0.386H0.841ZM0.237 0.386H0.240V0.392H0.237ZM0.431 0.386Q0.445 0.409 0.445 0.415Q0.425 0.403 0.425 0.397V0.392Q0.427 0.386 0.431 0.386ZM0.167 0.389Q0.172 0.392 0.179 0.392Q0.159 0.418 0.156 0.418Q0.156 0.415 0.153 0.415Q0.167 0.393 0.167 0.389ZM0.223 0.389H0.226Q0.226 0.397 0.231 0.403V0.409Q0.225 0.403 0.220 0.403ZM0.327 0.389H0.330Q0.330 0.395 0.335 0.403Q0.315 0.438 0.305 0.443Q0.305 0.440 0.302 0.440ZM0.653 0.389H0.659V0.392H0.653ZM0.754 0.395H0.760V0.397H0.754ZM0.229 0.409V0.412Q0.221 0.434 0.212 0.440L0.209 0.435Q0.214 0.415 0.229 0.409ZM0.075 0.412 0.088 0.415Q0.084 0.421 0.080 0.446L0.075 0.448ZM0.338 0.412H0.341Q0.350 0.415 0.350 0.429V0.501Q0.346 0.501 0.313 0.454V0.448Q0.338 0.417 0.338 0.412ZM0.687 0.415 0.693 0.423V0.426Q0.682 0.422 0.682 0.418ZM0.091 0.423H0.116Q0.116 0.429 0.119 0.429Q0.119 0.458 0.097 0.476H0.075V0.462Q0.075 0.460 0.091 0.446ZM0.125 0.435H0.127V0.522Q0.127 0.536 0.114 0.541Q0.114 0.537 0.105 0.533Q0.094 0.537 0.094 0.552L0.088 0.550H0.086L0.077 0.555H0.075V0.501L0.080 0.493Q0.075 0.493 0.075 0.487V0.485H0.091Q0.125 0.478 0.125 0.435ZM0.358 0.435Q0.395 0.478 0.395 0.490V0.522Q0.395 0.525 0.414 0.539L0.417 0.533Q0.411 0.533 0.411 0.527H0.414L0.411 0.522V0.507H0.414Q0.414 0.513 0.428 0.530H0.425L0.474 0.591L0.479 0.594V0.591Q0.476 0.582 0.476 0.580V0.577H0.479Q0.480 0.589 0.488 0.589Q0.490 0.578 0.490 0.569H0.493Q0.493 0.588 0.499 0.620L0.490 0.614V0.617Q0.493 0.617 0.493 0.620Q0.485 0.620 0.485 0.665L0.499 0.673Q0.500 0.668 0.504 0.668Q0.502 0.664 0.499 0.629L0.504 0.626V0.629L0.502 0.634Q0.507 0.634 0.507 0.640L0.504 0.645Q0.507 0.645 0.507 0.648H0.504L0.507 0.654V0.676L0.502 0.673L0.499 0.679Q0.504 0.680 0.504 0.684H0.502L0.504 0.690L0.499 0.710H0.496Q0.493 0.701 0.445 0.637V0.634L0.451 0.637L0.454 0.631Q0.445 0.629 0.445 0.626L0.439 0.629H0.437Q0.437 0.624 0.431 0.617L0.434 0.611L0.428 0.608Q0.428 0.611 0.425 0.611Q0.414 0.597 0.411 0.575L0.406 0.577H0.400Q0.370 0.529 0.358 0.516ZM0.808 0.435H0.811L0.808 0.440Q0.811 0.440 0.811 0.443H0.808Q0.802 0.443 0.802 0.437ZM0.786 0.440H0.791V0.443H0.786ZM0.847 0.440V0.443Q0.844 0.448 0.844 0.451H0.841V0.443ZM0.769 0.443Q0.772 0.443 0.777 0.451Q0.774 0.456 0.774 0.462H0.772L0.769 0.448ZM0.783 0.443H0.786Q0.786 0.448 0.780 0.448H0.777Q0.777 0.443 0.783 0.443ZM0.813 0.446H0.819V0.448H0.813ZM0.594 0.454H0.597Q0.597 0.465 0.600 0.465Q0.597 0.470 0.597 0.476H0.594ZM0.659 0.457Q0.659 0.460 0.662 0.465Q0.659 0.465 0.659 0.468H0.662Q0.656 0.490 0.642 0.490Q0.635 0.490 0.628 0.476Q0.631 0.472 0.631 0.462H0.633L0.642 0.468Q0.642 0.465 0.645 0.465Q0.645 0.468 0.647 0.468Q0.648 0.457 0.659 0.457ZM0.493 0.462H0.502V0.465Q0.502 0.471 0.496 0.471H0.493ZM0.830 0.465H0.833V0.471H0.830ZM0.403 0.496H0.406V0.501H0.403ZM0.838 0.519H0.841L0.833 0.547H0.841V0.552H0.838L0.833 0.550Q0.833 0.553 0.830 0.558Q0.833 0.563 0.833 0.566Q0.841 0.566 0.853 0.541L0.850 0.513H0.844Q0.838 0.514 0.838 0.519ZM0.687 0.516Q0.687 0.519 0.679 0.533Q0.682 0.536 0.693 0.536L0.690 0.516ZM0.375 0.522 0.373 0.527 0.378 0.530 0.381 0.525ZM0.614 0.522H0.617V0.527H0.614ZM0.754 0.525H0.760V0.527H0.754ZM0.617 0.527Q0.622 0.528 0.622 0.533V0.536Q0.617 0.536 0.617 0.530ZM0.417 0.539 0.414 0.544 0.420 0.547 0.423 0.541ZM0.673 0.541V0.550H0.682V0.547Q0.682 0.541 0.676 0.541ZM0.108 0.544Q0.108 0.548 0.122 0.558L0.125 0.552V0.550L0.122 0.544H0.127V0.727H0.142V0.721H0.136V0.718H0.145Q0.145 0.726 0.173 0.730V0.733H0.162V0.738Q0.177 0.743 0.195 0.780H0.201V0.774Q0.201 0.763 0.198 0.744V0.741H0.201Q0.201 0.745 0.206 0.752H0.204Q0.206 0.757 0.206 0.763H0.212V0.749L0.209 0.744Q0.217 0.744 0.217 0.738L0.223 0.741L0.240 0.738Q0.253 0.743 0.254 0.749V0.758L0.251 0.771H0.254Q0.275 0.760 0.282 0.760V0.769L0.254 0.777V0.785Q0.263 0.785 0.263 0.799Q0.263 0.811 0.251 0.816H0.243Q0.227 0.816 0.223 0.797Q0.214 0.802 0.209 0.802Q0.217 0.819 0.223 0.836Q0.234 0.834 0.234 0.831Q0.257 0.834 0.257 0.853Q0.257 0.864 0.231 0.873V0.900H0.229V0.875H0.226Q0.179 0.904 0.179 0.923L0.167 0.926V0.923L0.170 0.912H0.165Q0.159 0.913 0.159 0.918Q0.170 0.940 0.173 0.949H0.170Q0.176 0.967 0.195 1.010H0.187Q0.187 1.002 0.153 0.943V0.940H0.150Q0.147 0.940 0.133 0.977Q0.124 0.977 0.122 0.993H0.119L0.116 0.988V0.982H0.122V0.979H0.075V0.943L0.046 0.946H0.040V0.954H0.038Q0.026 0.940 0.012 0.940V0.943Q0.012 0.952 0.007 0.952H0.004V0.946L0.010 0.938Q0.010 0.935 0.007 0.929Q0.010 0.910 0.021 0.892V0.889H0.018Q-0.057 0.921 -0.061 0.921V0.912Q-0.046 0.912 0.015 0.873L0.026 0.867Q0.023 0.862 0.023 0.859H0.018Q0.018 0.867 0.012 0.867Q0.007 0.867 0.007 0.859Q0.012 0.841 0.012 0.836Q0.003 0.794 -0.002 0.794L-0.013 0.802V0.799Q-0.012 0.799 0.007 0.771V0.777Q0.058 0.750 0.058 0.744Q0.058 0.738 0.026 0.670H0.035Q0.057 0.727 0.066 0.727Q0.070 0.727 0.075 0.718V0.668Q0.075 0.606 0.080 0.577H0.077Q0.081 0.561 0.086 0.561L0.088 0.566L0.083 0.575V0.594Q0.088 0.617 0.094 0.626Q0.091 0.626 0.091 0.629L0.097 0.631H0.100Q0.105 0.631 0.105 0.623Q0.091 0.574 0.091 0.572L0.105 0.580H0.108Q0.114 0.580 0.114 0.575L0.102 0.547ZM0.094 0.552H0.097V0.561H0.094ZM0.097 0.561H0.100V0.566H0.097ZM0.439 0.577Q0.442 0.577 0.442 0.580Q0.454 0.577 0.454 0.572Q0.451 0.572 0.451 0.569Q0.439 0.574 0.439 0.577ZM0.656 0.566H0.659Q0.676 0.573 0.676 0.577L0.670 0.586Q0.679 0.603 0.679 0.611H0.676Q0.671 0.611 0.662 0.589L0.647 0.591Q0.647 0.588 0.659 0.583L0.656 0.569ZM0.631 0.575H0.633V0.583H0.631ZM0.280 0.577H0.285Q0.301 0.577 0.305 0.589V0.603Q0.305 0.608 0.288 0.617Q0.270 0.611 0.269 0.603V0.589Q0.269 0.585 0.280 0.577ZM0.353 0.583H0.370Q0.374 0.583 0.381 0.594V0.608Q0.381 0.613 0.370 0.620H0.355Q0.351 0.620 0.344 0.608Q0.351 0.608 0.353 0.583ZM0.428 0.589 0.425 0.594 0.431 0.597 0.434 0.591ZM0.642 0.591H0.647V0.594H0.642ZM0.504 0.594H0.515V0.597Q0.509 0.597 0.504 0.600ZM0.510 0.611H0.515V0.614H0.510ZM0.642 0.611H0.645L0.647 0.623Q0.642 0.623 0.642 0.614ZM0.682 0.617H0.687V0.623Q0.682 0.623 0.682 0.617ZM0.468 0.629 0.465 0.634 0.471 0.637 0.474 0.631ZM0.647 0.631H0.653L0.682 0.687H0.665Q0.647 0.638 0.647 0.631ZM0.605 0.637H0.611Q0.611 0.640 0.619 0.654Q0.617 0.654 0.617 0.656H0.619L0.617 0.662V0.670Q0.617 0.673 0.619 0.673L0.617 0.679V0.684L0.619 0.690H0.614Q0.614 0.684 0.605 0.673V0.659Q0.605 0.656 0.608 0.656L0.605 0.651ZM0.468 0.662 0.474 0.665H0.476Q0.482 0.665 0.482 0.659L0.476 0.656H0.474Q0.468 0.658 0.468 0.662ZM0.294 0.656Q0.310 0.662 0.310 0.679Q0.305 0.680 0.305 0.684Q0.308 0.684 0.308 0.687L0.302 0.690Q0.302 0.682 0.274 0.673V0.668Q0.278 0.656 0.294 0.656ZM0.515 0.659Q0.523 0.659 0.535 0.679Q0.529 0.695 0.524 0.695Q0.519 0.693 0.513 0.693ZM0.229 0.681Q0.251 0.684 0.251 0.704Q0.246 0.721 0.229 0.721Q0.217 0.717 0.212 0.707V0.695Q0.217 0.686 0.229 0.681ZM0.274 0.684H0.277Q0.286 0.690 0.294 0.690V0.695H0.285Q0.280 0.695 0.274 0.684ZM0.538 0.690H0.540Q0.575 0.725 0.575 0.741L0.555 0.746H0.552Q0.529 0.746 0.524 0.710Q0.538 0.698 0.538 0.690ZM0.617 0.693H0.619V0.698H0.617ZM0.327 0.695 0.338 0.707Q0.332 0.733 0.324 0.733H0.321ZM0.684 0.695H0.690V0.701H0.693V0.695Q0.705 0.701 0.712 0.712V0.727Q0.712 0.752 0.682 0.752H0.676Q0.679 0.736 0.679 0.730Q0.679 0.714 0.670 0.698ZM0.319 0.701Q0.313 0.725 0.313 0.730H0.310Q0.306 0.730 0.302 0.721Q0.316 0.701 0.319 0.701ZM0.518 0.704Q0.524 0.705 0.524 0.710H0.518ZM0.507 0.707H0.510V0.712H0.507ZM0.515 0.721H0.518V0.733H0.513V0.730Q0.515 0.724 0.515 0.721ZM0.127 0.735V0.741Q0.162 0.746 0.162 0.755V0.802H0.165Q0.181 0.802 0.190 0.785Q0.172 0.751 0.147 0.733ZM0.524 0.741Q0.543 0.755 0.543 0.758L0.535 0.763Q0.535 0.761 0.524 0.746ZM0.580 0.744Q0.584 0.744 0.608 0.780V0.783Q0.593 0.771 0.583 0.771H0.580Q0.570 0.771 0.555 0.783H0.552V0.780L0.561 0.769V0.766L0.552 0.755Q0.569 0.755 0.580 0.744ZM0.633 0.744H0.636Q0.642 0.746 0.645 0.746V0.749H0.636ZM0.139 0.749Q0.139 0.755 0.127 0.766Q0.127 0.776 0.130 0.780L0.127 0.797V0.819Q0.147 0.819 0.147 0.785V0.749ZM0.010 0.783Q0.014 0.816 0.021 0.816Q0.035 0.783 0.046 0.769V0.766H0.043Q0.014 0.783 0.010 0.783ZM0.333 0.763H0.338Q0.344 0.764 0.344 0.769Q0.341 0.774 0.341 0.777H0.333Q0.324 0.777 0.313 0.785V0.780Q0.318 0.763 0.333 0.763ZM0.217 0.769 0.215 0.783H0.217Q0.232 0.780 0.234 0.780V0.774Q0.228 0.774 0.220 0.769ZM0.353 0.777V0.785Q0.347 0.785 0.347 0.780ZM0.586 0.780Q0.608 0.788 0.608 0.805V0.811Q0.608 0.828 0.589 0.836L0.558 0.791Q0.569 0.780 0.586 0.780ZM0.072 0.785Q0.066 0.808 0.066 0.814Q0.075 0.811 0.075 0.797V0.785ZM0.046 0.788 0.026 0.836Q0.032 0.845 0.032 0.853H0.038Q0.052 0.795 0.052 0.788ZM0.335 0.785H0.341L0.347 0.788Q0.347 0.785 0.350 0.785V0.791Q0.347 0.799 0.333 0.799H0.324Q0.321 0.799 0.316 0.791ZM0.614 0.788H0.617V0.794H0.614ZM0.327 0.808H0.338Q0.353 0.815 0.353 0.831Q0.350 0.842 0.335 0.842Q0.318 0.842 0.313 0.828Q0.319 0.811 0.327 0.808ZM0.162 0.825V0.848H0.167Q0.167 0.842 0.176 0.822H0.173Q0.163 0.825 0.162 0.825ZM0.206 0.828Q0.204 0.855 0.195 0.881H0.198Q0.223 0.866 0.223 0.864Q0.212 0.831 0.212 0.828ZM0.069 0.842V0.845H0.075V0.836Q0.069 0.837 0.069 0.842ZM0.127 0.848Q0.137 0.870 0.142 0.870L0.145 0.836Q0.127 0.836 0.127 0.848ZM0.159 0.900Q0.180 0.900 0.190 0.859L0.192 0.839Q0.180 0.847 0.159 0.900ZM-0.018 0.859H-0.013Q-0.007 0.860 -0.007 0.864V0.867Q-0.007 0.873 -0.013 0.873H-0.018Q-0.024 0.873 -0.024 0.867V0.864Q-0.023 0.859 -0.018 0.859ZM0.061 0.870V0.900Q0.072 0.915 0.072 0.921H0.075V0.889L0.066 0.878Q0.070 0.878 0.075 0.870V0.867ZM0.127 0.895V0.900H0.130V0.895ZM0.204 0.900H0.209Q0.215 0.902 0.215 0.906V0.909Q0.215 0.915 0.209 0.915Q0.204 0.915 0.204 0.909ZM0.023 0.912Q0.015 0.932 0.015 0.938H0.029V0.912ZM0.040 0.912V0.935H0.049V0.932L0.046 0.912ZM0.223 0.921H0.226V0.926H0.223ZM0.650 0.921H0.653Q0.676 0.932 0.687 0.965V0.971H0.684Q0.684 0.966 0.650 0.921ZM0.127 0.949V0.960H0.130V0.949Z" fill="black"/>
</svg>
