<svg xmlns="http://www.w3.org/2000/svg" viewBox="0 0 1 1" preserveAspectRatio="xMidYMid meet">
  <path d="M0.942 0.007Q0.948 0.007 0.959 0.046Q0.962 0.046 0.967 0.079H0.962Q0.962 0.067 0.942 0.007ZM0.454 0.038H0.462Q0.583 0.038 0.667 0.111Q0.653 0.139 0.653 0.166Q0.645 0.166 0.625 0.102L0.608 0.088H0.594Q0.588 0.089 0.588 0.094Q0.587 0.094 0.572 0.091Q0.566 0.091 0.538 0.097Q0.491 0.085 0.460 0.085L0.387 0.094Q0.387 0.074 0.375 0.049Q0.416 0.038 0.454 0.038ZM0.370 0.054 0.381 0.100Q0.373 0.100 0.333 0.116V0.113L0.316 0.071H0.319Q0.347 0.054 0.370 0.054ZM0.308 0.077Q0.322 0.094 0.322 0.125Q0.302 0.137 0.269 0.169V0.133Q0.269 0.127 0.263 0.127Q0.251 0.137 0.243 0.203Q0.238 0.203 0.226 0.228Q0.235 0.228 0.235 0.242Q0.235 0.252 0.226 0.262V0.264H0.243L0.251 0.293Q0.243 0.299 0.235 0.299Q0.223 0.270 0.218 0.270Q0.215 0.276 0.215 0.279Q0.224 0.293 0.224 0.299L0.201 0.279H0.199Q0.199 0.284 0.190 0.293L0.210 0.326Q0.207 0.342 0.207 0.349H0.204Q0.194 0.328 0.168 0.304L0.165 0.310L0.199 0.357Q0.194 0.357 0.185 0.363L0.145 0.321Q0.139 0.322 0.139 0.326Q0.173 0.365 0.173 0.368Q0.168 0.368 0.168 0.380Q0.160 0.380 0.123 0.338L0.125 0.332H0.123Q0.101 0.335 0.092 0.343H0.089Q0.089 0.337 0.061 0.315L0.058 0.301Q0.064 0.288 0.069 0.288H0.084Q0.087 0.288 0.100 0.307H0.103Q0.104 0.296 0.112 0.296H0.117L0.136 0.299Q0.136 0.292 0.153 0.253H0.150Q0.144 0.253 0.136 0.273Q0.087 0.267 0.087 0.251V0.245Q0.087 0.228 0.106 0.228Q0.120 0.233 0.120 0.239H0.125Q0.125 0.214 0.148 0.214Q0.162 0.220 0.162 0.234Q0.190 0.189 0.224 0.147Q0.282 0.088 0.308 0.077ZM0.962 0.088H0.967V0.091H0.962ZM0.597 0.097H0.605Q0.616 0.097 0.630 0.144Q0.570 0.105 0.558 0.105V0.102L0.572 0.100L0.591 0.102Q0.592 0.097 0.597 0.097ZM0.964 0.100H0.967V0.111H0.964ZM0.673 0.116Q0.676 0.116 0.689 0.133V0.136Q0.664 0.154 0.664 0.172H0.662V0.163Q0.662 0.151 0.673 0.116ZM0.967 0.119H0.970V0.127H0.964Q0.967 0.122 0.967 0.119ZM0.964 0.136H0.967V0.141H0.964ZM0.698 0.138Q0.746 0.203 0.765 0.245Q0.743 0.248 0.743 0.267Q0.743 0.273 0.771 0.299H0.763Q0.725 0.299 0.725 0.273L0.703 0.234L0.717 0.217V0.209Q0.712 0.181 0.689 0.181L0.673 0.189L0.667 0.186Q0.679 0.146 0.698 0.138ZM0.257 0.161H0.260Q0.263 0.176 0.263 0.178L0.254 0.184Q0.257 0.172 0.257 0.161ZM0.962 0.161H0.967V0.163H0.962ZM0.964 0.172H0.967V0.175Q0.967 0.179 0.959 0.184V0.178Q0.960 0.172 0.964 0.172ZM0.689 0.189Q0.707 0.195 0.709 0.203V0.214Q0.709 0.218 0.698 0.226L0.678 0.195ZM0.967 0.189V0.192Q0.964 0.197 0.964 0.203H0.953V0.201Q0.954 0.192 0.967 0.189ZM0.951 0.220H0.959Q0.959 0.227 0.953 0.245Q0.951 0.245 0.942 0.234Q0.945 0.220 0.951 0.220ZM0.768 0.253Q0.781 0.278 0.785 0.307H0.790V0.310H0.743V0.307H0.776L0.779 0.301V0.296Q0.751 0.268 0.751 0.264Q0.754 0.253 0.768 0.253ZM0.942 0.273H0.945V0.282H0.939Q0.942 0.276 0.942 0.273ZM0.922 0.285H0.928V0.288Q0.922 0.296 0.922 0.301H0.911Q0.918 0.285 0.922 0.285ZM0.939 0.290V0.293Q0.936 0.298 0.936 0.301H0.934V0.293ZM0.931 0.301H0.934V0.307H0.931ZM0.902 0.310H0.905V0.315H0.902ZM0.902 0.315V0.318Q0.897 0.330 0.897 0.335H0.891V0.332Q0.898 0.315 0.902 0.315ZM0.743 0.318H0.793Q0.793 0.321 0.796 0.326H0.793Q0.769 0.324 0.757 0.324L0.746 0.326Q0.746 0.323 0.743 0.318ZM0.751 0.332H0.768Q0.787 0.335 0.799 0.335V0.338Q0.782 0.338 0.782 0.343V0.351Q0.810 0.367 0.810 0.419Q0.813 0.419 0.818 0.430V0.441H0.815Q0.793 0.418 0.793 0.391Q0.760 0.391 0.760 0.377L0.757 0.366Q0.767 0.366 0.779 0.349V0.340Q0.779 0.335 0.751 0.335ZM0.737 0.335H0.751V0.338H0.737ZM0.916 0.335H0.922Q0.897 0.374 0.897 0.380H0.894Q0.888 0.380 0.888 0.374Q0.916 0.344 0.916 0.335ZM0.880 0.340Q0.884 0.343 0.894 0.343Q0.875 0.375 0.866 0.380V0.377Q0.869 0.372 0.869 0.366L0.852 0.380L0.850 0.374V0.371Q0.859 0.371 0.880 0.340ZM0.768 0.343H0.771V0.346Q0.746 0.364 0.746 0.371H0.737V0.360Q0.737 0.354 0.746 0.354L0.740 0.346ZM0.047 0.346H0.049Q0.057 0.351 0.061 0.351V0.354Q0.055 0.354 0.055 0.357Q0.061 0.366 0.061 0.371V0.374H0.058Q0.058 0.369 0.047 0.346ZM0.790 0.346H0.801L0.804 0.360Q0.801 0.360 0.790 0.346ZM0.120 0.349 0.162 0.394Q0.158 0.405 0.153 0.405Q0.114 0.372 0.114 0.363Q0.120 0.363 0.120 0.349ZM0.728 0.351H0.734L0.731 0.357H0.734Q0.732 0.368 0.728 0.368L0.731 0.374V0.377Q0.716 0.383 0.706 0.383L0.700 0.374Q0.702 0.368 0.714 0.363Q0.714 0.366 0.717 0.366V0.354Q0.723 0.351 0.728 0.351ZM0.061 0.354H0.064Q0.069 0.355 0.069 0.360H0.066Q0.061 0.360 0.061 0.354ZM0.069 0.360H0.075V0.363H0.069ZM0.075 0.363H0.078Q0.084 0.364 0.084 0.368H0.081Q0.075 0.368 0.075 0.363ZM0.109 0.366H0.114V0.368H0.109ZM0.084 0.368H0.089V0.371H0.084ZM0.089 0.371H0.095V0.374H0.089ZM0.061 0.374H0.064V0.380H0.061ZM0.844 0.380 0.847 0.386V0.389Q0.841 0.389 0.818 0.408Q0.818 0.405 0.815 0.400Q0.820 0.400 0.844 0.380ZM0.866 0.380V0.383Q0.866 0.389 0.861 0.389V0.386Q0.861 0.380 0.866 0.380ZM0.064 0.383H0.066V0.391H0.064ZM0.084 0.383Q0.089 0.383 0.089 0.389H0.084ZM0.880 0.383Q0.886 0.383 0.886 0.389V0.397H0.875Q0.880 0.389 0.880 0.383ZM0.114 0.386Q0.151 0.412 0.162 0.433Q0.159 0.433 0.159 0.436Q0.092 0.394 0.089 0.389H0.092Q0.100 0.391 0.100 0.394ZM0.210 0.389H0.215Q0.224 0.389 0.229 0.411Q0.227 0.411 0.210 0.389ZM0.751 0.391Q0.752 0.397 0.757 0.397H0.788Q0.788 0.452 0.832 0.452L0.821 0.464V0.492Q0.832 0.490 0.883 0.441V0.447Q0.860 0.478 0.821 0.498V0.531L0.829 0.526H0.838Q0.815 0.588 0.815 0.613H0.813L0.765 0.593Q0.765 0.578 0.782 0.577L0.785 0.571Q0.782 0.571 0.782 0.568L0.768 0.571H0.765Q0.771 0.551 0.779 0.542Q0.775 0.539 0.768 0.539Q0.790 0.516 0.790 0.501V0.484Q0.790 0.470 0.768 0.450V0.444Q0.740 0.444 0.723 0.464Q0.699 0.475 0.692 0.475V0.470Q0.692 0.465 0.731 0.452V0.450Q0.731 0.447 0.728 0.447Q0.729 0.439 0.746 0.433Q0.746 0.423 0.751 0.416Q0.763 0.421 0.763 0.425V0.430L0.760 0.436Q0.768 0.433 0.768 0.430L0.765 0.411H0.749Q0.744 0.411 0.740 0.402V0.394ZM0.855 0.391V0.394Q0.852 0.403 0.844 0.405V0.402Q0.844 0.398 0.855 0.391ZM0.173 0.397Q0.177 0.397 0.201 0.422V0.425Q0.185 0.425 0.185 0.436H0.182Q0.165 0.427 0.162 0.416Q0.167 0.397 0.173 0.397ZM0.066 0.400H0.072V0.402H0.066ZM0.720 0.400H0.725Q0.725 0.414 0.731 0.414L0.728 0.419V0.425L0.731 0.430Q0.722 0.430 0.717 0.433L0.714 0.414L0.723 0.408L0.720 0.402ZM0.089 0.402H0.092Q0.152 0.450 0.156 0.450V0.461Q0.107 0.438 0.095 0.419H0.078V0.416Q0.089 0.408 0.089 0.402ZM0.872 0.402 0.875 0.408Q0.854 0.436 0.850 0.436V0.425Q0.850 0.421 0.872 0.402ZM0.058 0.411V0.416H0.052Q0.053 0.411 0.058 0.411ZM0.207 0.411Q0.211 0.411 0.218 0.422V0.425H0.215Q0.211 0.425 0.207 0.416ZM0.044 0.419H0.049Q0.049 0.425 0.044 0.425ZM0.706 0.422 0.709 0.436V0.439H0.706Q0.700 0.439 0.700 0.433V0.427Q0.702 0.422 0.706 0.422ZM0.041 0.425H0.044Q0.044 0.430 0.038 0.430H0.036Q0.037 0.425 0.041 0.425ZM0.030 0.433H0.038Q0.038 0.439 0.033 0.439ZM0.075 0.433H0.078V0.439H0.075ZM0.081 0.433H0.084V0.439H0.081ZM0.087 0.433H0.089L0.092 0.444Q0.087 0.444 0.087 0.436ZM0.038 0.436H0.052V0.439H0.038ZM0.055 0.436H0.072V0.439H0.055ZM0.838 0.436V0.441Q0.828 0.444 0.827 0.444Q0.827 0.440 0.838 0.436ZM0.092 0.444H0.095V0.450H0.092ZM0.106 0.447H0.109Q0.149 0.475 0.153 0.475V0.484H0.150Q0.120 0.467 0.106 0.464ZM0.095 0.450H0.098Q0.098 0.453 0.100 0.458H0.095ZM0.765 0.458 0.768 0.464Q0.760 0.464 0.734 0.487Q0.734 0.484 0.731 0.478Q0.734 0.461 0.740 0.461V0.470ZM0.771 0.464Q0.778 0.464 0.782 0.487V0.495Q0.778 0.526 0.765 0.526V0.523Q0.752 0.528 0.712 0.528Q0.698 0.528 0.673 0.517Q0.673 0.520 0.670 0.520L0.667 0.514Q0.676 0.509 0.684 0.509H0.689Q0.709 0.526 0.728 0.526Q0.774 0.526 0.774 0.495Q0.771 0.475 0.771 0.464ZM0.684 0.473Q0.684 0.481 0.687 0.487Q0.664 0.493 0.664 0.495Q0.639 0.492 0.639 0.487Q0.672 0.473 0.684 0.473ZM0.103 0.475Q0.150 0.501 0.153 0.501V0.506L0.103 0.489ZM0.723 0.475V0.484H0.709V0.481Q0.714 0.481 0.723 0.475ZM0.754 0.478H0.760Q0.760 0.484 0.754 0.484ZM0.703 0.484H0.709V0.487H0.703ZM0.765 0.487V0.498Q0.752 0.498 0.725 0.517Q0.709 0.514 0.709 0.509Q0.723 0.509 0.765 0.487ZM0.103 0.503H0.106Q0.148 0.523 0.153 0.523V0.528L0.103 0.514ZM0.275 0.509H0.283V0.512Q0.280 0.512 0.275 0.514ZM0.224 0.512H0.229V0.514H0.224ZM0.229 0.514H0.232Q0.236 0.514 0.240 0.523H0.237Q0.234 0.523 0.229 0.514ZM0.212 0.523H0.215Q0.225 0.528 0.232 0.528Q0.232 0.526 0.235 0.526L0.237 0.542Q0.228 0.533 0.215 0.528ZM0.103 0.528H0.106Q0.147 0.545 0.153 0.545V0.548H0.148Q0.110 0.539 0.103 0.539ZM0.821 0.539V0.553H0.824L0.829 0.534H0.827Q0.821 0.535 0.821 0.539ZM0.703 0.537H0.714V0.542Q0.708 0.542 0.703 0.539Q0.688 0.539 0.667 0.565H0.664L0.667 0.559Q0.664 0.559 0.664 0.556Q0.685 0.537 0.703 0.537ZM0.720 0.539H0.728V0.542H0.720ZM0.106 0.553Q0.145 0.565 0.153 0.565V0.568H0.148L0.106 0.562ZM0.706 0.553Q0.712 0.555 0.712 0.559L0.703 0.571V0.579Q0.712 0.579 0.723 0.582V0.577H0.728L0.725 0.590Q0.731 0.590 0.731 0.599L0.743 0.590Q0.764 0.597 0.765 0.604Q0.763 0.604 0.763 0.607Q0.768 0.604 0.771 0.604Q0.803 0.621 0.815 0.621V0.627Q0.763 0.627 0.763 0.610H0.760V0.615L0.740 0.613L0.746 0.604V0.599L0.734 0.607H0.731L0.717 0.593Q0.717 0.599 0.712 0.599Q0.712 0.594 0.684 0.579L0.681 0.574ZM0.746 0.553H0.754Q0.754 0.564 0.760 0.571H0.749V0.562L0.734 0.574V0.571Q0.742 0.553 0.746 0.553ZM0.235 0.556H0.240V0.559H0.235ZM0.249 0.568H0.254V0.571H0.249ZM0.552 0.568H0.555Q0.560 0.571 0.563 0.571Q0.563 0.568 0.566 0.568L0.569 0.574V0.585Q0.556 0.585 0.552 0.588ZM0.613 0.568V0.585Q0.612 0.585 0.597 0.588V0.571Q0.612 0.568 0.613 0.568ZM0.642 0.568H0.650L0.647 0.574V0.579L0.650 0.585H0.642ZM0.462 0.571H0.482Q0.482 0.588 0.465 0.588H0.462ZM0.507 0.571H0.524Q0.524 0.583 0.526 0.588H0.507ZM0.656 0.574H0.667Q0.667 0.579 0.662 0.579H0.656ZM0.109 0.579H0.112Q0.150 0.585 0.153 0.585V0.588H0.114Q0.109 0.588 0.109 0.582ZM0.763 0.579V0.590H0.760Q0.753 0.585 0.749 0.585V0.582Q0.757 0.582 0.763 0.579ZM0.653 0.588H0.676Q0.676 0.591 0.656 0.599V0.602Q0.663 0.607 0.670 0.607L0.667 0.613L0.712 0.646L0.725 0.652V0.655Q0.720 0.655 0.720 0.658Q0.709 0.652 0.700 0.652L0.703 0.646Q0.676 0.627 0.670 0.627L0.673 0.621Q0.670 0.621 0.656 0.610Q0.650 0.611 0.650 0.615Q0.653 0.615 0.653 0.618H0.642L0.645 0.613L0.639 0.610Q0.635 0.610 0.630 0.618V0.621L0.633 0.627Q0.627 0.628 0.627 0.632V0.638Q0.627 0.649 0.673 0.649V0.652Q0.661 0.652 0.642 0.655Q0.636 0.652 0.633 0.652L0.630 0.658Q0.630 0.666 0.642 0.666L0.639 0.672L0.642 0.677L0.633 0.683H0.627Q0.625 0.683 0.625 0.680Q0.611 0.683 0.611 0.691L0.613 0.697Q0.611 0.702 0.611 0.708Q0.627 0.722 0.645 0.722H0.647Q0.657 0.722 0.673 0.719Q0.678 0.722 0.681 0.722V0.725Q0.650 0.725 0.650 0.730L0.630 0.727H0.616Q0.611 0.727 0.611 0.736L0.605 0.733H0.602Q0.597 0.734 0.597 0.739V0.744L0.605 0.756Q0.602 0.762 0.602 0.764L0.591 0.756H0.588Q0.583 0.756 0.583 0.762L0.577 0.759H0.575L0.555 0.781Q0.555 0.788 0.594 0.820V0.826Q0.582 0.826 0.555 0.792Q0.549 0.788 0.529 0.784Q0.529 0.787 0.526 0.787Q0.526 0.784 0.524 0.784V0.787L0.518 0.784L0.499 0.792V0.787Q0.494 0.790 0.482 0.790V0.798H0.493Q0.483 0.811 0.479 0.837H0.476V0.831H0.474Q0.460 0.842 0.457 0.842V0.826Q0.468 0.826 0.468 0.809V0.798H0.462V0.795Q0.474 0.795 0.474 0.787H0.462V0.781L0.468 0.784Q0.476 0.773 0.476 0.764H0.471L0.465 0.767V0.750Q0.480 0.747 0.482 0.747V0.764Q0.512 0.759 0.512 0.741H0.515V0.750L0.521 0.747V0.750Q0.526 0.747 0.529 0.747Q0.529 0.733 0.521 0.733Q0.521 0.730 0.524 0.730Q0.521 0.726 0.521 0.719Q0.512 0.719 0.512 0.727H0.510Q0.510 0.719 0.507 0.719L0.510 0.714V0.711L0.507 0.705Q0.510 0.705 0.510 0.702Q0.515 0.705 0.518 0.705Q0.523 0.705 0.543 0.680Q0.550 0.675 0.555 0.675V0.672L0.552 0.658Q0.570 0.658 0.577 0.640Q0.592 0.632 0.600 0.615Q0.647 0.602 0.656 0.596L0.653 0.590ZM0.687 0.590Q0.692 0.593 0.695 0.593V0.599H0.687ZM0.112 0.602 0.156 0.604V0.607H0.112ZM0.482 0.613V0.629L0.465 0.632V0.615Q0.477 0.615 0.482 0.613ZM0.552 0.613H0.563L0.569 0.615Q0.569 0.613 0.572 0.613V0.629H0.552L0.555 0.615Q0.552 0.615 0.552 0.613ZM0.687 0.613H0.703V0.624L0.687 0.621ZM0.720 0.613H0.725V0.624H0.709Q0.709 0.620 0.720 0.613ZM0.510 0.615H0.526V0.632H0.512Q0.507 0.632 0.507 0.627Q0.510 0.622 0.510 0.615ZM0.734 0.618Q0.746 0.624 0.751 0.624V0.627H0.743L0.731 0.624ZM0.114 0.624H0.159V0.627Q0.143 0.627 0.114 0.629ZM0.159 0.632H0.168V0.635H0.159ZM0.788 0.632 0.813 0.635Q0.804 0.663 0.804 0.669H0.807L0.815 0.663H0.827Q0.886 0.676 0.886 0.711Q0.780 0.669 0.776 0.669L0.782 0.660Q0.723 0.649 0.714 0.635Q0.748 0.638 0.763 0.638H0.779ZM0.636 0.635H0.673Q0.679 0.640 0.684 0.640V0.643H0.681Q0.649 0.638 0.636 0.638ZM0.117 0.643H0.153V0.646Q0.133 0.646 0.120 0.652L0.117 0.646ZM0.681 0.652H0.692L0.689 0.658Q0.694 0.660 0.706 0.660L0.703 0.666L0.706 0.672Q0.671 0.663 0.662 0.663V0.660Q0.684 0.660 0.684 0.655Q0.681 0.655 0.681 0.652ZM0.482 0.658Q0.482 0.660 0.479 0.660L0.482 0.666V0.675L0.465 0.677Q0.465 0.664 0.462 0.660ZM0.507 0.658Q0.526 0.661 0.526 0.666V0.677H0.510ZM0.156 0.660H0.165V0.663H0.156ZM0.145 0.663H0.153V0.666Q0.148 0.666 0.123 0.672V0.666Q0.143 0.663 0.145 0.663ZM0.751 0.666Q0.807 0.691 0.815 0.691V0.694Q0.799 0.708 0.799 0.711L0.749 0.677Q0.751 0.672 0.751 0.666ZM0.653 0.677H0.656Q0.731 0.684 0.731 0.700L0.734 0.705H0.725Q0.725 0.697 0.714 0.691H0.703Q0.697 0.691 0.692 0.694Q0.653 0.682 0.653 0.677ZM0.150 0.683H0.153V0.686Q0.136 0.691 0.128 0.691V0.686Q0.136 0.686 0.150 0.683ZM0.532 0.719Q0.537 0.744 0.561 0.744Q0.581 0.744 0.586 0.716Q0.582 0.691 0.561 0.691H0.552Q0.540 0.691 0.532 0.719ZM0.627 0.691H0.636V0.694H0.627ZM0.743 0.691Q0.766 0.691 0.790 0.719Q0.788 0.724 0.788 0.727Q0.790 0.727 0.790 0.730Q0.771 0.730 0.771 0.736V0.747Q0.771 0.754 0.793 0.759Q0.793 0.773 0.818 0.778H0.832Q0.855 0.778 0.866 0.759Q0.872 0.762 0.875 0.762V0.764Q0.870 0.777 0.838 0.787V0.784Q0.835 0.784 0.835 0.787Q0.815 0.787 0.782 0.773L0.774 0.787Q0.776 0.787 0.776 0.790L0.725 0.837Q0.735 0.848 0.746 0.868V0.871Q0.746 0.895 0.725 0.907H0.723Q0.737 0.893 0.737 0.882V0.868Q0.725 0.848 0.720 0.848H0.714Q0.714 0.854 0.703 0.865V0.868Q0.720 0.868 0.720 0.885V0.888Q0.720 0.892 0.709 0.899Q0.689 0.899 0.689 0.882H0.687V0.888H0.684Q0.681 0.888 0.681 0.885Q0.667 0.893 0.662 0.893Q0.639 0.868 0.639 0.865Q0.639 0.861 0.650 0.854Q0.650 0.857 0.681 0.882L0.684 0.877Q0.658 0.845 0.583 0.778L0.580 0.773H0.583L0.698 0.857Q0.703 0.857 0.703 0.851L0.613 0.776V0.770L0.717 0.834L0.720 0.828Q0.713 0.819 0.611 0.750V0.747H0.613L0.734 0.809L0.737 0.803Q0.737 0.799 0.630 0.739V0.736H0.639Q0.670 0.747 0.670 0.753Q0.673 0.753 0.673 0.750Q0.678 0.753 0.681 0.753V0.756L0.678 0.762L0.684 0.764L0.689 0.762Q0.689 0.776 0.706 0.776L0.712 0.767Q0.743 0.781 0.749 0.781L0.751 0.776Q0.718 0.758 0.717 0.756Q0.723 0.747 0.723 0.741Q0.752 0.753 0.760 0.753L0.763 0.747Q0.746 0.739 0.740 0.739V0.736Q0.754 0.736 0.754 0.730Q0.723 0.724 0.723 0.719L0.728 0.716L0.768 0.725L0.771 0.719Q0.749 0.708 0.734 0.708V0.705Q0.743 0.705 0.743 0.691ZM0.636 0.694H0.642Q0.677 0.702 0.684 0.705Q0.681 0.711 0.681 0.714Q0.641 0.697 0.636 0.697ZM0.162 0.700H0.165V0.702Q0.158 0.702 0.136 0.714L0.134 0.708Q0.158 0.700 0.162 0.700ZM0.482 0.702V0.719Q0.480 0.719 0.465 0.722V0.705Q0.467 0.705 0.482 0.702ZM0.552 0.702H0.572L0.569 0.716Q0.572 0.716 0.572 0.719H0.555Q0.555 0.713 0.552 0.708Q0.555 0.708 0.555 0.705Q0.552 0.705 0.552 0.702ZM0.689 0.705Q0.694 0.708 0.703 0.708V0.719H0.700Q0.687 0.719 0.687 0.714Q0.689 0.708 0.689 0.705ZM0.866 0.714H0.872Q0.881 0.719 0.888 0.719V0.733Q0.888 0.745 0.880 0.756Q0.875 0.753 0.872 0.753L0.875 0.725Q0.867 0.725 0.866 0.714ZM0.190 0.716Q0.201 0.741 0.201 0.750L0.196 0.753Q0.196 0.744 0.182 0.744L0.190 0.733Q0.181 0.727 0.173 0.727L0.168 0.730L0.165 0.725Q0.185 0.716 0.190 0.716ZM0.148 0.725 0.150 0.730 0.145 0.733 0.142 0.727ZM0.676 0.733H0.678L0.717 0.739Q0.717 0.742 0.703 0.750Q0.679 0.736 0.676 0.736ZM0.176 0.736H0.179V0.739Q0.173 0.739 0.153 0.753H0.150V0.750Q0.150 0.744 0.176 0.736ZM0.779 0.739H0.788V0.747H0.779ZM0.185 0.753V0.756Q0.175 0.767 0.159 0.773V0.770Q0.159 0.766 0.185 0.753ZM0.207 0.753V0.759Q0.207 0.762 0.179 0.787L0.182 0.792V0.795Q0.179 0.795 0.173 0.798Q0.165 0.784 0.165 0.778Q0.179 0.770 0.185 0.770Q0.185 0.773 0.187 0.773Q0.187 0.768 0.207 0.753ZM0.689 0.759H0.695V0.762H0.689ZM0.215 0.781Q0.223 0.781 0.266 0.848H0.263Q0.258 0.845 0.251 0.845Q0.251 0.848 0.249 0.848Q0.249 0.844 0.240 0.840H0.237Q0.221 0.854 0.221 0.863Q0.215 0.863 0.212 0.831Q0.208 0.831 0.190 0.826V0.820Q0.191 0.815 0.196 0.815Q0.201 0.817 0.204 0.817Q0.205 0.812 0.210 0.812Q0.210 0.815 0.212 0.815L0.215 0.809L0.210 0.806V0.809Q0.204 0.806 0.201 0.806V0.795ZM0.510 0.792H0.521L0.529 0.801L0.526 0.806Q0.543 0.824 0.543 0.831H0.540Q0.514 0.809 0.510 0.809Q0.510 0.806 0.512 0.806L0.510 0.801ZM0.190 0.798H0.193V0.803Q0.193 0.808 0.185 0.812Q0.185 0.809 0.182 0.803ZM0.580 0.798H0.586V0.801H0.580ZM0.785 0.801H0.793L0.801 0.806Q0.799 0.812 0.799 0.815H0.785ZM0.602 0.815Q0.607 0.815 0.611 0.823H0.602ZM0.406 0.831H0.412V0.840H0.406ZM0.580 0.831H0.588Q0.592 0.831 0.602 0.848L0.597 0.851H0.594Q0.590 0.851 0.580 0.834ZM0.521 0.837H0.524V0.842H0.521ZM0.373 0.840H0.378V0.842Q0.378 0.848 0.373 0.848ZM0.437 0.840H0.445V0.845Q0.440 0.842 0.437 0.842ZM0.566 0.840H0.569V0.845H0.566ZM0.266 0.848H0.272V0.854Q0.266 0.854 0.266 0.848ZM0.316 0.848V0.851Q0.313 0.857 0.313 0.860H0.311V0.851ZM0.428 0.848V0.860H0.425Q0.425 0.857 0.423 0.851ZM0.572 0.848 0.591 0.868Q0.588 0.874 0.588 0.877Q0.577 0.874 0.577 0.871L0.580 0.865L0.572 0.851ZM0.602 0.848H0.608V0.851H0.602ZM0.257 0.854Q0.257 0.857 0.260 0.857Q0.246 0.883 0.246 0.888Q0.242 0.888 0.237 0.879Q0.253 0.854 0.257 0.854ZM0.341 0.854H0.344V0.865H0.341ZM0.381 0.857H0.384V0.863H0.381ZM0.229 0.860H0.232V0.865H0.229ZM0.308 0.860H0.311V0.868H0.308ZM0.324 0.860H0.333Q0.333 0.871 0.338 0.879L0.333 0.882H0.324ZM0.277 0.863H0.280L0.266 0.904H0.260Q0.254 0.904 0.254 0.899V0.896Q0.270 0.867 0.277 0.863ZM0.229 0.865V0.871H0.224Q0.225 0.865 0.229 0.865ZM0.546 0.865Q0.577 0.877 0.577 0.882Q0.538 0.882 0.538 0.899Q0.538 0.902 0.526 0.902L0.518 0.888Q0.507 0.893 0.499 0.893V0.890L0.493 0.893H0.490V0.890Q0.490 0.886 0.512 0.871L0.524 0.874Q0.533 0.874 0.546 0.865ZM0.630 0.871 0.653 0.896V0.899L0.639 0.902L0.619 0.879ZM0.412 0.882H0.417V0.888Q0.418 0.907 0.423 0.907L0.428 0.904Q0.439 0.909 0.439 0.913V0.927Q0.448 0.927 0.448 0.944L0.442 0.941Q0.442 0.944 0.439 0.944Q0.439 0.932 0.420 0.927Q0.420 0.932 0.400 0.941H0.398V0.938Q0.406 0.915 0.406 0.913Q0.397 0.904 0.392 0.904V0.899Q0.393 0.893 0.398 0.893H0.412ZM0.302 0.888 0.308 0.890H0.311Q0.317 0.890 0.322 0.888Q0.360 0.906 0.364 0.921Q0.367 0.921 0.367 0.924V0.935Q0.350 0.921 0.341 0.921Q0.341 0.924 0.338 0.924Q0.338 0.921 0.336 0.921Q0.336 0.925 0.313 0.944Q0.313 0.938 0.311 0.932Q0.316 0.932 0.319 0.910Q0.292 0.896 0.288 0.896V0.893Q0.302 0.893 0.302 0.888ZM0.608 0.888Q0.608 0.903 0.611 0.918Q0.597 0.910 0.597 0.893ZM0.616 0.890 0.642 0.913Q0.662 0.902 0.667 0.902Q0.653 0.917 0.613 0.941Q0.603 0.938 0.591 0.938V0.935Q0.619 0.925 0.619 0.918ZM0.226 0.893H0.240V0.896Q0.237 0.907 0.232 0.907H0.229Q0.224 0.907 0.224 0.902Q0.226 0.896 0.226 0.893ZM0.185 0.902Q0.192 0.919 0.212 0.924Q0.221 0.924 0.221 0.927Q0.221 0.939 0.185 0.941Q0.171 0.915 0.171 0.910Q0.171 0.902 0.185 0.902ZM0.437 0.899H0.439Q0.439 0.904 0.434 0.904H0.431Q0.432 0.899 0.437 0.899ZM0.283 0.902Q0.288 0.903 0.288 0.907V0.913Q0.288 0.918 0.283 0.918H0.272Q0.278 0.902 0.283 0.902ZM0.586 0.902 0.600 0.924 0.580 0.929Q0.572 0.909 0.572 0.904ZM0.678 0.902Q0.684 0.903 0.684 0.907H0.678ZM0.468 0.907H0.471Q0.471 0.910 0.474 0.915Q0.471 0.921 0.471 0.927H0.468ZM0.723 0.907Q0.723 0.913 0.714 0.913H0.706V0.910ZM0.302 0.910Q0.308 0.913 0.311 0.913Q0.308 0.918 0.308 0.927Q0.303 0.927 0.300 0.918V0.915ZM0.561 0.910Q0.561 0.920 0.575 0.932L0.572 0.938Q0.586 0.951 0.586 0.955L0.566 0.961H0.563L0.546 0.915Q0.551 0.915 0.561 0.910ZM0.689 0.910H0.703V0.913H0.689ZM0.373 0.913Q0.377 0.915 0.384 0.915V0.941H0.381Q0.373 0.921 0.373 0.915ZM0.521 0.921H0.524Q0.535 0.935 0.538 0.935Q0.538 0.932 0.540 0.932L0.558 0.966H0.535Q0.521 0.929 0.521 0.921ZM0.501 0.924H0.504Q0.524 0.950 0.524 0.972Q0.519 0.975 0.512 0.975H0.507Q0.496 0.933 0.496 0.927ZM0.454 0.927H0.457V0.932H0.454ZM0.471 0.927H0.482Q0.482 0.932 0.499 0.978H0.479Q0.471 0.941 0.471 0.927ZM0.269 0.929H0.283Q0.283 0.934 0.275 0.938H0.269Q0.263 0.938 0.263 0.932ZM0.311 0.929 0.300 0.955 0.294 0.958Q0.286 0.955 0.286 0.952Q0.291 0.929 0.311 0.929ZM0.347 0.932Q0.358 0.937 0.358 0.941V0.947Q0.358 0.972 0.338 0.972V0.969Q0.344 0.932 0.347 0.932ZM0.333 0.935 0.330 0.949V0.961H0.324Q0.324 0.956 0.319 0.949Q0.319 0.946 0.333 0.935ZM0.457 0.935H0.460V0.941H0.457ZM0.420 0.938H0.425Q0.436 0.938 0.439 0.978Q0.425 0.991 0.423 0.991V0.989L0.431 0.978L0.420 0.975ZM0.373 0.944Q0.378 0.947 0.381 0.947Q0.381 0.944 0.384 0.944Q0.384 0.949 0.387 0.949Q0.384 0.969 0.381 0.969Q0.367 0.969 0.367 0.964Q0.367 0.944 0.373 0.944ZM0.406 0.947H0.409V0.949Q0.412 0.974 0.412 0.978L0.406 0.975L0.400 0.978L0.395 0.969V0.952Q0.399 0.952 0.406 0.947ZM0.460 0.947H0.462V0.952H0.460ZM0.591 0.947H0.600V0.949Q0.597 0.949 0.591 0.952ZM0.448 0.958H0.451L0.457 0.961H0.465Q0.465 0.963 0.468 0.978H0.448ZM0.414 0.994V0.997Q0.414 1.003 0.409 1.003V1.000Q0.410 0.994 0.414 0.994ZM0.409 1.003V1.005Q0.409 1.009 0.387 1.028V1.025Q0.387 1.022 0.409 1.003Z" fill="black"/>
</svg>
