<svg xmlns="http://www.w3.org/2000/svg" viewBox="0 0 1 1" preserveAspectRatio="xMidYMid meet">
  <path d="M0.296 -0.049H0.299Q0.299 -0.038 0.302 -0.038Q0.299 -0.029 0.296 -0.029Q0.299 -0.025 0.299 -0.015H0.302Q0.306 -0.015 0.313 -0.038L0.321 -0.043V-0.040L0.318 -0.035Q0.327 -0.035 0.347 -0.024Q0.347 -0.030 0.369 -0.038V-0.040Q0.367 -0.040 0.367 -0.043H0.369Q0.378 -0.040 0.378 -0.038L0.383 -0.040H0.392V-0.038L0.378 -0.035V-0.032Q0.385 -0.015 0.389 -0.015Q0.392 -0.018 0.392 -0.038Q0.396 -0.038 0.400 -0.024L0.397 -0.018V-0.004H0.400Q0.424 -0.023 0.445 -0.046H0.451Q0.434 -0.029 0.406 0.010H0.403V0.022H0.411V0.019L0.408 0.013H0.417Q0.417 0.025 0.420 0.030H0.417Q0.420 0.035 0.420 0.039H0.589Q0.572 0.085 0.572 0.089H0.434Q0.416 0.108 0.411 0.108V0.114Q0.417 0.114 0.434 0.137Q0.451 0.154 0.457 0.154V0.159Q0.417 0.126 0.403 0.126H0.389V0.123H0.395Q0.395 0.108 0.386 0.108V0.105L0.397 0.094Q0.397 0.090 0.378 0.086Q0.358 0.089 0.347 0.089H0.329V0.094H0.327Q0.327 0.086 0.316 0.080H0.310Q0.298 0.091 0.285 0.091Q0.271 0.061 0.263 0.052L0.271 0.047Q0.274 0.055 0.288 0.055Q0.301 0.050 0.302 0.044Q0.296 0.037 0.296 0.030L0.291 0.033L0.285 0.025Q0.291 0.025 0.291 0.019Q0.289 0.015 0.237 -0.040H0.240L0.288 -0.001H0.293V-0.004L0.291 -0.010H0.293L0.291 -0.015V-0.021Q0.296 -0.041 0.296 -0.049ZM0.389 -0.049H0.395Q0.395 -0.043 0.389 -0.043ZM0.318 -0.029Q0.313 -0.018 0.313 -0.010H0.318Q0.324 -0.025 0.324 -0.027ZM0.364 -0.024 0.375 -0.013H0.378Q0.378 -0.027 0.369 -0.029Q0.364 -0.028 0.364 -0.024ZM0.341 -0.015V-0.010L0.347 -0.001V0.007L0.335 0.019L0.321 0.010L0.316 0.025L0.327 0.033L0.318 0.055Q0.328 0.061 0.335 0.061Q0.335 0.057 0.350 0.047Q0.350 0.044 0.338 0.030H0.347Q0.347 0.039 0.353 0.039H0.358Q0.362 0.039 0.375 0.022Q0.375 0.001 0.350 -0.013V-0.015L0.344 -0.013Q0.344 -0.015 0.341 -0.015ZM0.434 -0.001 0.439 0.007H0.428L0.425 0.001Q0.428 0.001 0.434 -0.001ZM0.277 0.016H0.282V0.022Q0.282 0.027 0.277 0.027Q0.277 0.025 0.274 0.025Q0.277 0.019 0.277 0.016ZM0.358 0.016H0.364Q0.369 0.016 0.369 0.022L0.364 0.025H0.358ZM0.397 0.030V0.033Q0.398 0.039 0.403 0.039H0.411Q0.411 0.032 0.397 0.030ZM0.251 0.036H0.257Q0.263 0.036 0.263 0.041L0.257 0.044H0.254Q0.254 0.041 0.251 0.036ZM0.285 0.036 0.291 0.044 0.285 0.047Q0.279 0.047 0.279 0.041Q0.280 0.036 0.285 0.036ZM0.332 0.039Q0.338 0.039 0.338 0.044Q0.338 0.048 0.329 0.052V0.047Q0.332 0.042 0.332 0.039ZM0.600 0.039H0.619V0.047Q0.612 0.055 0.605 0.089H0.583Q0.600 0.042 0.600 0.041ZM0.630 0.039H0.679Q0.812 0.039 0.867 0.230Q0.873 0.276 0.873 0.294Q0.873 0.438 0.777 0.508Q0.740 0.480 0.734 0.480Q0.819 0.409 0.819 0.291Q0.819 0.233 0.783 0.156Q0.742 0.105 0.729 0.105Q0.737 0.079 0.737 0.072L0.732 0.069Q0.715 0.092 0.715 0.097Q0.687 0.089 0.650 0.089H0.617ZM0.257 0.064H0.263V0.072Q0.257 0.072 0.257 0.066ZM0.246 0.077H0.254Q0.265 0.082 0.265 0.097L0.257 0.103H0.249Q0.243 0.102 0.237 0.089Q0.240 0.089 0.240 0.086Q0.237 0.086 0.237 0.083ZM0.417 0.089V0.094Q0.422 0.094 0.422 0.089ZM0.318 0.091Q0.324 0.102 0.327 0.140L0.324 0.156V0.168Q0.305 0.162 0.291 0.162H0.288L0.268 0.165L0.265 0.159Q0.282 0.159 0.282 0.154V0.123H0.285Q0.285 0.128 0.291 0.140L0.288 0.145Q0.292 0.156 0.296 0.156H0.302Q0.318 0.144 0.318 0.134Q0.313 0.131 0.310 0.131Q0.310 0.129 0.321 0.117Q0.321 0.111 0.316 0.111L0.310 0.114V0.108Q0.313 0.091 0.318 0.091ZM0.329 0.094H0.332V0.100H0.329ZM0.372 0.094H0.381V0.100Q0.377 0.100 0.358 0.123V0.117Q0.358 0.115 0.369 0.103L0.367 0.097ZM0.277 0.097H0.279Q0.279 0.105 0.285 0.105Q0.282 0.111 0.282 0.117H0.279L0.277 0.100ZM0.302 0.103V0.105L0.296 0.129H0.293L0.291 0.108ZM0.265 0.114H0.271L0.274 0.129V0.151H0.265Q0.265 0.147 0.268 0.123Q0.265 0.117 0.265 0.114ZM0.254 0.117Q0.260 0.117 0.260 0.126V0.131H0.257ZM0.184 0.120H0.192V0.123H0.184ZM0.341 0.120H0.344Q0.340 0.131 0.335 0.131V0.126Q0.336 0.120 0.341 0.120ZM0.355 0.126Q0.359 0.126 0.364 0.134Q0.357 0.134 0.353 0.137V0.134Q0.355 0.129 0.355 0.126ZM0.203 0.129 0.206 0.134Q0.191 0.134 0.181 0.137H0.178V0.134Q0.199 0.129 0.203 0.129ZM0.304 0.129Q0.310 0.129 0.310 0.134L0.304 0.137ZM0.344 0.134H0.347V0.140H0.344ZM0.189 0.143H0.200L0.198 0.148Q0.192 0.145 0.189 0.145ZM0.367 0.143V0.148H0.361V0.154H0.367V0.156H0.358V0.145Q0.361 0.145 0.367 0.143ZM0.206 0.154Q0.217 0.158 0.217 0.162V0.165Q0.217 0.182 0.200 0.182Q0.206 0.170 0.206 0.165ZM0.192 0.156H0.195L0.198 0.170L0.192 0.173H0.189V0.170ZM0.285 0.170H0.296Q0.321 0.176 0.324 0.176V0.190L0.321 0.204H0.318Q0.305 0.173 0.285 0.173ZM0.271 0.179H0.279Q0.306 0.179 0.316 0.224V0.227H0.313Q0.313 0.212 0.302 0.207Q0.302 0.210 0.299 0.210Q0.299 0.193 0.271 0.182ZM0.271 0.190Q0.289 0.190 0.296 0.238H0.288Q0.288 0.224 0.279 0.224H0.268Q0.260 0.224 0.251 0.230V0.227Q0.252 0.221 0.265 0.215Q0.265 0.218 0.268 0.218Q0.271 0.210 0.274 0.210L0.271 0.195ZM0.237 0.198H0.240Q0.240 0.203 0.220 0.212V0.207Q0.223 0.198 0.237 0.198ZM0.249 0.207V0.210Q0.249 0.214 0.237 0.221Q0.237 0.218 0.234 0.212Q0.239 0.212 0.249 0.207ZM0.302 0.227H0.307V0.238H0.299Q0.302 0.233 0.302 0.227ZM0.271 0.233H0.279V0.247L0.268 0.238L0.260 0.244Q0.254 0.244 0.254 0.238Q0.263 0.233 0.271 0.233ZM0.296 0.247H0.307Q0.324 0.248 0.324 0.255V0.269L0.318 0.277L0.324 0.286V0.291Q0.315 0.286 0.307 0.286Q0.303 0.286 0.299 0.294V0.297Q0.303 0.308 0.318 0.308Q0.318 0.304 0.329 0.297H0.341Q0.329 0.311 0.324 0.311V0.378Q0.308 0.362 0.304 0.362Q0.299 0.363 0.299 0.367L0.316 0.387Q0.321 0.388 0.321 0.392Q0.302 0.392 0.302 0.403H0.299Q0.299 0.359 0.271 0.359V0.351H0.293Q0.299 0.351 0.299 0.345V0.342Q0.281 0.316 0.271 0.316V0.305L0.282 0.294V0.291Q0.282 0.290 0.271 0.277V0.260Q0.277 0.260 0.277 0.258L0.282 0.260Q0.297 0.260 0.299 0.252ZM0.436 0.280H0.439Q0.439 0.291 0.454 0.291V0.297Q0.444 0.299 0.442 0.299L0.445 0.314L0.434 0.305Q0.428 0.308 0.425 0.308V0.305Q0.428 0.300 0.428 0.294Q0.420 0.294 0.420 0.288Q0.436 0.288 0.436 0.280ZM0.234 0.291Q0.246 0.296 0.246 0.299H0.240Q0.234 0.297 0.231 0.297ZM0.307 0.294H0.313V0.297H0.307ZM0.220 0.299H0.223Q0.237 0.308 0.249 0.308V0.316Q0.246 0.316 0.240 0.319Q0.227 0.315 0.220 0.302ZM0.307 0.316 0.302 0.325 0.307 0.328 0.313 0.319ZM0.271 0.325H0.277Q0.277 0.331 0.288 0.342H0.271ZM0.434 0.353H0.436Q0.443 0.359 0.454 0.359Q0.454 0.365 0.448 0.365Q0.439 0.359 0.434 0.359ZM0.249 0.367H0.254L0.265 0.376H0.271V0.367H0.282Q0.291 0.398 0.291 0.412Q0.275 0.395 0.257 0.395V0.392Q0.260 0.392 0.265 0.390Q0.265 0.392 0.268 0.392L0.271 0.387V0.384L0.268 0.378L0.263 0.381L0.249 0.378V0.376L0.251 0.370Q0.249 0.370 0.249 0.367ZM0.431 0.367Q0.454 0.372 0.454 0.378L0.439 0.376Q0.434 0.376 0.434 0.387H0.431ZM0.355 0.370 0.358 0.376V0.381H0.353Q0.353 0.376 0.347 0.376V0.373Q0.350 0.373 0.355 0.370ZM0.434 0.387Q0.436 0.387 0.457 0.412H0.454Q0.448 0.409 0.442 0.409L0.439 0.421H0.436Q0.436 0.406 0.431 0.406Q0.425 0.403 0.422 0.403V0.401Q0.434 0.401 0.434 0.387ZM0.240 0.392H0.251V0.395H0.240ZM0.378 0.392H0.381Q0.381 0.403 0.397 0.403Q0.397 0.409 0.392 0.409H0.378ZM0.206 0.398V0.403H0.200Q0.202 0.398 0.206 0.398ZM0.321 0.401H0.329L0.344 0.403V0.406H0.327Q0.321 0.406 0.321 0.401ZM0.260 0.403Q0.286 0.403 0.296 0.460L0.302 0.463H0.313L0.324 0.455H0.327Q0.327 0.466 0.361 0.474L0.358 0.480V0.482L0.372 0.485Q0.372 0.482 0.375 0.482Q0.381 0.492 0.381 0.496H0.386L0.392 0.494Q0.445 0.545 0.445 0.559V0.567Q0.434 0.567 0.434 0.575H0.431Q0.390 0.553 0.375 0.519Q0.375 0.515 0.355 0.499Q0.350 0.500 0.350 0.505Q0.353 0.505 0.353 0.508H0.347L0.332 0.505Q0.332 0.510 0.327 0.510L0.324 0.505V0.502Q0.341 0.502 0.341 0.496Q0.341 0.490 0.321 0.488Q0.321 0.494 0.316 0.494Q0.316 0.491 0.313 0.491L0.299 0.508Q0.310 0.515 0.310 0.522Q0.315 0.525 0.338 0.527Q0.338 0.522 0.358 0.513L0.367 0.527V0.530H0.364L0.358 0.527L0.355 0.533Q0.355 0.539 0.364 0.539V0.548H0.353V0.550L0.355 0.556H0.350Q0.325 0.548 0.293 0.542Q0.282 0.545 0.282 0.553H0.279Q0.271 0.540 0.271 0.536H0.268Q0.265 0.536 0.265 0.539L0.260 0.536Q0.246 0.550 0.234 0.550Q0.234 0.545 0.228 0.545L0.237 0.533V0.530H0.231V0.527H0.237V0.525L0.231 0.516H0.234Q0.243 0.522 0.249 0.522L0.254 0.513Q0.260 0.516 0.263 0.516V0.519H0.257V0.527Q0.262 0.527 0.271 0.533V0.519Q0.264 0.519 0.254 0.505Q0.257 0.505 0.257 0.502L0.285 0.505H0.291Q0.303 0.499 0.310 0.485Q0.310 0.480 0.288 0.477Q0.258 0.491 0.251 0.491Q0.252 0.485 0.257 0.485Q0.254 0.472 0.237 0.455V0.449L0.240 0.443Q0.237 0.443 0.237 0.441H0.240Q0.254 0.442 0.271 0.466Q0.277 0.466 0.279 0.443Q0.279 0.418 0.249 0.418V0.415Q0.260 0.415 0.260 0.403ZM0.307 0.406H0.310Q0.316 0.437 0.316 0.446V0.449Q0.316 0.455 0.310 0.455H0.302Q0.302 0.439 0.296 0.426Q0.302 0.426 0.307 0.406ZM0.327 0.415H0.338Q0.355 0.417 0.355 0.423Q0.344 0.423 0.338 0.429ZM0.375 0.418H0.389Q0.395 0.419 0.395 0.423V0.426Q0.385 0.421 0.378 0.421Q0.378 0.423 0.375 0.423ZM0.184 0.423H0.186V0.429H0.184ZM0.249 0.426H0.260Q0.271 0.431 0.271 0.446V0.449H0.268L0.243 0.429ZM0.181 0.429H0.184V0.435H0.181ZM0.231 0.432H0.237V0.435H0.231ZM0.329 0.432H0.332V0.441H0.329ZM0.364 0.432Q0.364 0.438 0.350 0.441V0.435ZM0.178 0.438H0.181V0.443H0.178ZM0.392 0.438H0.400V0.441L0.395 0.449V0.455L0.397 0.460H0.389L0.386 0.443H0.395ZM0.417 0.441H0.422L0.428 0.443Q0.424 0.455 0.420 0.455L0.417 0.449ZM0.344 0.446Q0.350 0.447 0.350 0.452L0.344 0.455ZM0.378 0.449 0.381 0.455V0.460Q0.371 0.455 0.367 0.455Q0.367 0.457 0.364 0.457V0.452Q0.373 0.452 0.378 0.449ZM0.358 0.460Q0.362 0.460 0.367 0.469H0.364Q0.358 0.469 0.358 0.463ZM0.397 0.460H0.403V0.463H0.397ZM0.228 0.463H0.231Q0.237 0.464 0.237 0.469H0.234Q0.228 0.469 0.228 0.463ZM0.454 0.469 0.457 0.474V0.480Q0.449 0.474 0.442 0.474V0.471Q0.444 0.471 0.454 0.469ZM0.175 0.471H0.178V0.480H0.175ZM0.240 0.471Q0.246 0.473 0.246 0.477L0.240 0.485Q0.234 0.482 0.231 0.482V0.480Q0.240 0.480 0.240 0.471ZM0.436 0.474H0.442Q0.442 0.480 0.436 0.480ZM0.515 0.480H0.529V0.482L0.524 0.491L0.532 0.496H0.561L0.569 0.502Q0.569 0.496 0.575 0.496H0.586Q0.589 0.496 0.589 0.499L0.594 0.496H0.630Q0.671 0.496 0.701 0.491Q0.702 0.496 0.707 0.496L0.709 0.491Q0.707 0.491 0.707 0.488L0.726 0.482Q0.742 0.490 0.769 0.513Q0.757 0.522 0.751 0.522Q0.732 0.499 0.715 0.491Q0.715 0.496 0.682 0.548H0.650Q0.647 0.548 0.647 0.545L0.642 0.548H0.591L0.594 0.542Q0.586 0.542 0.572 0.505H0.569Q0.558 0.525 0.535 0.548H0.490Q0.487 0.548 0.487 0.545L0.482 0.548H0.471V0.545Q0.483 0.496 0.499 0.496Q0.512 0.496 0.512 0.491Q0.510 0.485 0.510 0.482ZM0.192 0.482H0.195V0.488H0.192ZM0.181 0.485Q0.181 0.493 0.189 0.505V0.508L0.184 0.505Q0.184 0.509 0.175 0.513V0.491Q0.176 0.485 0.181 0.485ZM0.285 0.485 0.299 0.488Q0.299 0.492 0.291 0.496H0.268V0.494Q0.275 0.494 0.285 0.485ZM0.350 0.496H0.361Q0.361 0.491 0.355 0.491Q0.350 0.492 0.350 0.496ZM0.195 0.491Q0.198 0.491 0.209 0.510V0.513Q0.195 0.506 0.195 0.491ZM0.406 0.496H0.482Q0.468 0.517 0.460 0.548H0.451Q0.451 0.542 0.406 0.496ZM0.633 0.499 0.630 0.505 0.642 0.516Q0.642 0.513 0.645 0.513Q0.639 0.501 0.633 0.499ZM0.597 0.502 0.594 0.508Q0.598 0.508 0.608 0.522V0.525L0.589 0.513L0.586 0.519L0.603 0.527Q0.603 0.525 0.605 0.525Q0.607 0.530 0.611 0.530Q0.611 0.527 0.614 0.527Q0.614 0.530 0.617 0.530Q0.617 0.527 0.619 0.527Q0.619 0.521 0.597 0.502ZM0.718 0.502Q0.731 0.509 0.746 0.527Q0.711 0.545 0.690 0.545Q0.718 0.512 0.718 0.502ZM0.504 0.508 0.499 0.516 0.504 0.519 0.510 0.510ZM0.189 0.508H0.192Q0.192 0.513 0.203 0.525Q0.198 0.525 0.198 0.530H0.195Q0.195 0.524 0.189 0.510ZM0.645 0.516Q0.645 0.519 0.642 0.519L0.645 0.525L0.639 0.533Q0.642 0.533 0.642 0.536Q0.636 0.537 0.636 0.542L0.642 0.545L0.645 0.539Q0.642 0.539 0.642 0.536L0.653 0.527Q0.649 0.516 0.645 0.516ZM0.496 0.519 0.487 0.536 0.493 0.539 0.501 0.522ZM0.217 0.519H0.220Q0.227 0.525 0.231 0.525V0.527H0.223ZM0.184 0.522V0.530Q0.178 0.530 0.178 0.525ZM0.569 0.522H0.572V0.525Q0.572 0.530 0.566 0.530H0.564V0.527Q0.564 0.522 0.569 0.522ZM0.206 0.527Q0.220 0.539 0.225 0.539Q0.219 0.564 0.206 0.564V0.539Q0.206 0.536 0.209 0.536L0.206 0.530ZM0.184 0.533H0.186V0.581Q0.186 0.585 0.175 0.592V0.556Q0.184 0.544 0.184 0.533ZM0.198 0.533V0.570Q0.198 0.575 0.192 0.575V0.539Q0.193 0.533 0.198 0.533ZM0.237 0.539V0.545H0.243V0.539ZM0.572 0.536Q0.572 0.542 0.575 0.548H0.558Q0.558 0.543 0.572 0.536ZM0.378 0.539 0.381 0.545V0.548H0.372V0.545Q0.373 0.539 0.378 0.539ZM0.291 0.550Q0.293 0.550 0.335 0.559L0.329 0.567L0.324 0.564H0.302Q0.282 0.564 0.271 0.570Q0.271 0.561 0.263 0.561H0.260V0.559Q0.269 0.559 0.274 0.556Q0.274 0.564 0.279 0.564Q0.285 0.563 0.291 0.550ZM0.386 0.550Q0.397 0.562 0.397 0.564Q0.386 0.577 0.386 0.578V0.581Q0.428 0.608 0.428 0.649Q0.425 0.654 0.425 0.657Q0.431 0.658 0.431 0.663V0.665Q0.420 0.665 0.420 0.671Q0.421 0.682 0.428 0.682L0.425 0.696V0.699L0.428 0.704Q0.419 0.704 0.417 0.716L0.411 0.718Q0.417 0.699 0.417 0.685V0.682L0.414 0.654Q0.419 0.652 0.422 0.652V0.643Q0.408 0.643 0.403 0.600Q0.392 0.584 0.372 0.584L0.369 0.578Q0.378 0.578 0.378 0.573V0.553Q0.381 0.553 0.386 0.550ZM0.364 0.553Q0.364 0.559 0.369 0.559V0.567Q0.365 0.567 0.358 0.556ZM0.234 0.559H0.237V0.584H0.234ZM0.344 0.564H0.347Q0.369 0.574 0.369 0.578H0.367Q0.353 0.570 0.344 0.570ZM0.223 0.567V0.586Q0.215 0.586 0.206 0.592V0.578Q0.212 0.567 0.223 0.567ZM0.288 0.573H0.324V0.584H0.321L0.288 0.575ZM0.246 0.575H0.251V0.578H0.246ZM0.353 0.581H0.355Q0.372 0.591 0.372 0.595Q0.367 0.595 0.355 0.606Q0.350 0.595 0.341 0.595V0.592Q0.341 0.588 0.353 0.581ZM0.422 0.581H0.425Q0.431 0.581 0.436 0.598H0.431Q0.414 0.590 0.414 0.586ZM0.198 0.584V0.598Q0.192 0.598 0.192 0.592V0.589Q0.193 0.584 0.198 0.584ZM0.271 0.584Q0.355 0.593 0.355 0.620V0.623H0.353Q0.353 0.600 0.271 0.595ZM0.186 0.592V0.603Q0.186 0.605 0.178 0.634H0.175V0.606Q0.182 0.592 0.186 0.592ZM0.234 0.592H0.246V0.595Q0.237 0.595 0.237 0.600H0.234ZM0.220 0.595V0.598Q0.220 0.602 0.212 0.606L0.209 0.600V0.598Q0.215 0.598 0.220 0.595ZM0.254 0.598H0.260V0.600H0.254ZM0.260 0.600H0.265Q0.329 0.611 0.341 0.617Q0.350 0.633 0.350 0.640Q0.338 0.623 0.285 0.623Q0.276 0.617 0.268 0.617Q0.268 0.614 0.271 0.614Q0.268 0.603 0.260 0.603ZM0.195 0.609H0.198V0.713Q0.198 0.716 0.200 0.716Q0.198 0.724 0.195 0.724Q0.175 0.718 0.175 0.691V0.663Q0.175 0.658 0.184 0.637H0.186V0.707H0.195V0.685Q0.195 0.663 0.192 0.646Q0.195 0.632 0.195 0.609ZM0.234 0.612H0.237Q0.237 0.629 0.240 0.629Q0.237 0.634 0.237 0.637L0.231 0.634Q0.234 0.632 0.234 0.612ZM0.265 0.612Q0.265 0.617 0.257 0.617H0.249V0.614ZM0.381 0.623Q0.381 0.632 0.386 0.632H0.397V0.626H0.400V0.634L0.389 0.643H0.386L0.389 0.637V0.634H0.386L0.375 0.643Q0.375 0.634 0.372 0.629ZM0.271 0.626Q0.290 0.634 0.302 0.634H0.327Q0.324 0.639 0.324 0.646Q0.283 0.640 0.282 0.640L0.271 0.646ZM0.355 0.626Q0.369 0.632 0.369 0.654V0.663L0.353 0.682L0.358 0.691Q0.347 0.693 0.347 0.702H0.338V0.699Q0.347 0.685 0.347 0.677L0.344 0.657L0.350 0.654L0.355 0.657L0.358 0.652V0.646ZM0.386 0.643Q0.386 0.649 0.408 0.671V0.682Q0.408 0.730 0.378 0.741L0.375 0.736Q0.393 0.708 0.400 0.707Q0.400 0.692 0.378 0.665V0.646Q0.381 0.646 0.386 0.643ZM0.291 0.649Q0.338 0.655 0.338 0.674V0.682L0.318 0.663Q0.303 0.663 0.271 0.665V0.660Q0.275 0.649 0.291 0.649ZM0.318 0.671Q0.324 0.682 0.327 0.682L0.324 0.688V0.696L0.329 0.693Q0.335 0.694 0.335 0.699L0.329 0.702L0.324 0.699V0.716L0.304 0.718H0.293V0.716Q0.316 0.716 0.316 0.693V0.691Q0.316 0.686 0.304 0.679H0.271V0.674Q0.303 0.671 0.318 0.671ZM0.400 0.679V0.699Q0.406 0.699 0.406 0.693V0.679ZM0.434 0.679H0.448V0.685L0.434 0.682ZM0.299 0.688H0.302Q0.307 0.689 0.307 0.693V0.699Q0.307 0.703 0.299 0.707H0.296L0.302 0.699V0.693ZM0.271 0.696H0.293Q0.282 0.709 0.282 0.710Q0.287 0.713 0.291 0.713V0.716H0.288Q0.271 0.713 0.271 0.707ZM0.350 0.707H0.355V0.713Q0.350 0.713 0.350 0.707ZM0.364 0.716H0.378V0.718Q0.368 0.738 0.364 0.738L0.358 0.736Q0.364 0.727 0.364 0.716ZM0.353 0.718H0.355V0.721Q0.353 0.727 0.353 0.730H0.341Q0.341 0.726 0.353 0.718ZM0.175 0.721Q0.185 0.730 0.189 0.730V0.775Q0.189 0.777 0.217 0.803H0.214L0.200 0.792V0.797L0.189 0.789H0.186L0.189 0.795L0.184 0.814Q0.162 0.802 0.159 0.795H0.161Q0.171 0.800 0.175 0.800V0.775Q0.175 0.769 0.173 0.764Q0.175 0.759 0.175 0.753ZM0.265 0.724H0.268V0.736H0.265ZM0.285 0.724 0.299 0.727H0.310L0.324 0.724V0.750Q0.309 0.750 0.285 0.724ZM0.271 0.727 0.310 0.756 0.327 0.758 0.321 0.783Q0.324 0.795 0.327 0.795L0.324 0.800V0.803Q0.324 0.806 0.327 0.806L0.324 0.811V0.817H0.327L0.344 0.808V0.814H0.350Q0.353 0.814 0.353 0.811Q0.353 0.814 0.383 0.814Q0.338 0.855 0.338 0.862V0.865Q0.378 0.903 0.378 0.904L0.375 0.910Q0.375 0.915 0.383 0.915V0.918H0.378Q0.329 0.899 0.324 0.899V0.901Q0.324 0.904 0.327 0.904Q0.324 0.908 0.324 0.924Q0.312 0.916 0.299 0.904Q0.299 0.908 0.268 0.935Q0.268 0.932 0.265 0.932Q0.265 0.935 0.263 0.935V0.932L0.265 0.918H0.268V0.926H0.271V0.907L0.257 0.910H0.240L0.237 0.929H0.234Q0.234 0.923 0.231 0.918Q0.237 0.918 0.237 0.912V0.910H0.228Q0.223 0.910 0.223 0.918H0.220Q0.220 0.904 0.209 0.904L0.212 0.899H0.206V0.896Q0.208 0.896 0.217 0.893H0.220V0.896H0.214V0.901H0.217Q0.234 0.895 0.234 0.890V0.887Q0.234 0.882 0.228 0.882H0.220Q0.212 0.882 0.198 0.890Q0.198 0.885 0.195 0.885Q0.192 0.885 0.186 0.887Q0.165 0.882 0.164 0.882V0.887L0.167 0.893H0.156V0.887H0.150L0.133 0.890H0.130V0.887Q0.153 0.883 0.153 0.868H0.159Q0.164 0.868 0.164 0.879H0.167Q0.171 0.878 0.184 0.860Q0.186 0.860 0.186 0.857Q0.184 0.857 0.184 0.854Q0.200 0.845 0.209 0.845L0.206 0.831L0.220 0.840Q0.241 0.834 0.260 0.834H0.271V0.781Q0.307 0.777 0.307 0.767L0.271 0.736ZM0.231 0.730H0.234L0.243 0.758Q0.235 0.758 0.231 0.733ZM0.203 0.747H0.206Q0.206 0.750 0.220 0.772H0.212L0.203 0.750ZM0.263 0.747H0.265Q0.293 0.761 0.293 0.767V0.769Q0.291 0.769 0.271 0.772Q0.268 0.767 0.268 0.761H0.265V0.769H0.263ZM0.434 0.767V0.772H0.428Q0.429 0.767 0.434 0.767ZM0.353 0.769H0.355Q0.355 0.775 0.350 0.775H0.347Q0.347 0.769 0.353 0.769ZM0.240 0.778H0.243V0.789H0.240ZM0.249 0.778H0.251V0.783H0.249ZM0.260 0.778H0.263V0.808Q0.256 0.808 0.254 0.795L0.260 0.797ZM0.225 0.781H0.228V0.786H0.225ZM0.594 0.781H0.603V0.783H0.594ZM0.251 0.783H0.254V0.792H0.251ZM0.335 0.783H0.344Q0.341 0.789 0.341 0.792H0.338Q0.338 0.789 0.335 0.783ZM0.524 0.783H0.543V0.786Q0.526 0.786 0.515 0.789Q0.515 0.783 0.524 0.783ZM0.150 0.789H0.153Q0.159 0.790 0.159 0.795H0.156Q0.150 0.795 0.150 0.789ZM0.220 0.789H0.223V0.795H0.220ZM0.552 0.789H0.558V0.792H0.552ZM0.243 0.792H0.246V0.811H0.243Q0.243 0.807 0.237 0.800Q0.243 0.800 0.243 0.792ZM0.375 0.792H0.381V0.795H0.375ZM0.482 0.792H0.487V0.795H0.482ZM0.375 0.795Q0.375 0.799 0.367 0.803H0.358V0.800ZM0.200 0.797Q0.206 0.799 0.206 0.803V0.806Q0.200 0.806 0.200 0.800ZM0.479 0.797 0.485 0.800H0.490L0.504 0.797V0.803Q0.475 0.803 0.465 0.820Q0.456 0.825 0.448 0.825H0.442Q0.442 0.821 0.434 0.811Q0.454 0.811 0.460 0.800L0.465 0.803H0.473Q0.479 0.803 0.479 0.797ZM0.231 0.806Q0.231 0.811 0.237 0.820H0.234Q0.230 0.820 0.223 0.808Q0.226 0.808 0.231 0.806ZM0.192 0.811H0.198V0.814H0.192ZM0.198 0.814H0.203V0.817H0.198ZM0.386 0.814H0.403Q0.408 0.815 0.408 0.820Q0.406 0.825 0.406 0.828H0.400Q0.396 0.828 0.386 0.814ZM0.543 0.814H0.549V0.820Q0.543 0.820 0.543 0.814ZM0.186 0.817H0.192V0.820H0.186ZM0.203 0.817H0.209V0.820H0.203ZM0.217 0.817 0.225 0.828H0.223Q0.214 0.822 0.209 0.822V0.820Q0.212 0.820 0.217 0.817ZM0.136 0.820H0.142V0.822H0.136ZM0.142 0.822H0.145L0.181 0.828V0.831H0.173L0.175 0.837H0.170Q0.150 0.825 0.142 0.825ZM0.512 0.825H0.518V0.828H0.512ZM0.181 0.831H0.192V0.834H0.181ZM0.473 0.831Q0.483 0.837 0.487 0.837Q0.468 0.860 0.468 0.862Q0.471 0.862 0.471 0.865L0.457 0.868L0.462 0.860V0.851Q0.457 0.840 0.442 0.840L0.434 0.851V0.865H0.428V0.851Q0.428 0.849 0.414 0.837Q0.417 0.837 0.422 0.840Q0.464 0.837 0.473 0.831ZM0.504 0.831H0.507V0.840Q0.502 0.837 0.499 0.837Q0.500 0.831 0.504 0.831ZM0.192 0.834H0.200V0.837H0.192ZM0.515 0.834H0.518V0.842H0.515ZM0.175 0.837H0.181V0.840H0.175ZM0.397 0.837Q0.398 0.842 0.403 0.842L0.400 0.848V0.854H0.406V0.857H0.400V0.862L0.411 0.874Q0.411 0.877 0.395 0.890H0.389L0.383 0.887Q0.383 0.893 0.378 0.893Q0.378 0.890 0.353 0.868H0.355L0.381 0.871Q0.397 0.864 0.397 0.860Q0.395 0.860 0.395 0.857L0.381 0.860H0.372Q0.367 0.860 0.367 0.854H0.378V0.848H0.372V0.842Q0.376 0.842 0.397 0.837ZM0.181 0.840H0.186V0.842H0.181ZM0.127 0.854H0.167Q0.167 0.860 0.161 0.860L0.127 0.857ZM0.507 0.857H0.512V0.860H0.507ZM0.164 0.860H0.178V0.862H0.164ZM0.355 0.860H0.369V0.862H0.355ZM0.347 0.862H0.353V0.868Q0.347 0.868 0.347 0.862ZM0.436 0.868H0.442V0.871H0.436ZM0.454 0.868H0.457V0.874H0.454ZM0.468 0.874H0.476V0.876H0.468ZM0.442 0.882V0.885Q0.442 0.890 0.436 0.890H0.434Q0.434 0.886 0.442 0.882ZM0.192 0.890H0.198V0.893H0.192ZM0.406 0.890H0.417Q0.422 0.891 0.422 0.896Q0.415 0.896 0.406 0.901ZM0.482 0.890V0.896H0.471V0.893Q0.472 0.893 0.482 0.890ZM0.186 0.893H0.192V0.896H0.186ZM0.203 0.899Q0.203 0.904 0.195 0.904H0.189V0.901ZM0.173 0.901H0.178V0.904H0.173ZM0.170 0.904Q0.174 0.907 0.181 0.907V0.910L0.150 0.918Q0.150 0.915 0.170 0.904ZM0.184 0.904H0.189V0.907H0.184ZM0.251 0.915H0.254V0.949H0.251V0.929H0.246Q0.251 0.921 0.251 0.915ZM0.299 0.915Q0.303 0.915 0.327 0.938L0.324 0.944Q0.325 0.949 0.329 0.949Q0.329 0.947 0.332 0.947L0.335 0.958H0.332L0.324 0.952Q0.324 0.980 0.310 0.980H0.293Q0.289 0.980 0.271 0.958V0.947ZM0.145 0.918H0.150V0.921H0.145ZM0.383 0.918H0.389V0.921H0.383ZM0.332 0.924H0.338V0.926H0.332ZM0.184 0.926Q0.189 0.929 0.192 0.929V0.932Q0.186 0.932 0.173 0.944H0.170ZM0.212 0.926H0.214V0.932H0.212ZM0.350 0.926Q0.350 0.928 0.364 0.944H0.361Q0.347 0.932 0.341 0.932V0.929Q0.344 0.929 0.350 0.926ZM0.231 0.932H0.234V0.938H0.231ZM0.167 0.944H0.170Q0.170 0.949 0.164 0.949H0.161Q0.162 0.944 0.167 0.944ZM0.228 0.944H0.231V0.949H0.228ZM0.200 0.947Q0.206 0.947 0.206 0.952Q0.206 0.956 0.192 0.966V0.964Q0.200 0.950 0.200 0.947ZM0.234 0.949H0.237V0.955H0.234ZM0.225 0.952H0.228Q0.228 0.958 0.231 0.964Q0.220 0.984 0.220 0.989H0.217V0.986ZM0.257 0.958H0.260V0.964H0.257ZM0.338 0.961H0.341V0.966H0.338ZM0.254 0.966H0.257Q0.251 0.995 0.251 1.000H0.249V0.972Q0.249 0.966 0.254 0.966ZM0.186 0.969H0.189V0.975H0.186ZM0.344 0.969H0.347V0.975H0.344ZM0.271 0.972Q0.275 0.972 0.279 0.980H0.271ZM0.279 0.980Q0.285 0.980 0.285 0.989V1.000H0.282Z" fill="black"/>
</svg>
