<svg xmlns="http://www.w3.org/2000/svg" viewBox="0 0 1 1" preserveAspectRatio="xMidYMid meet">
  <path d="M0.642 -0.053Q0.651 -0.053 0.656 -0.030Q0.645 -0.017 0.645 -0.013H0.642V-0.022L0.645 -0.042H0.642Q0.633 -0.042 0.633 -0.019Q0.604 -0.022 0.590 -0.022V-0.016H0.587V-0.027L0.602 -0.030H0.610L0.621 -0.022H0.627V-0.042Q0.628 -0.048 0.642 -0.053ZM0.698 -0.045H0.706V-0.030H0.704V-0.042H0.701Q0.695 -0.041 0.695 -0.036V-0.022H0.687V-0.025H0.692V-0.039Q0.694 -0.045 0.698 -0.045ZM0.715 -0.027H0.718Q0.723 -0.027 0.723 -0.019V-0.016H0.720Q0.720 -0.020 0.715 -0.027ZM0.763 -0.022H0.772Q0.798 -0.022 0.803 0.013V0.027L0.800 0.032Q0.795 0.029 0.792 0.029L0.800 0.018V0.015Q0.792 -0.019 0.769 -0.019H0.766Q0.733 -0.019 0.715 0.029V0.038H0.743V0.137Q0.749 0.137 0.763 0.131Q0.780 0.133 0.780 0.143L0.777 0.148Q0.780 0.153 0.780 0.159V0.162L0.766 0.165H0.743V0.179Q0.743 0.182 0.746 0.182L0.743 0.188V0.428Q0.769 0.425 0.775 0.425Q0.775 0.429 0.789 0.434L0.806 0.425Q0.864 0.425 0.867 0.459Q0.872 0.465 0.876 0.465Q0.858 0.475 0.848 0.490Q0.846 0.481 0.828 0.481L0.839 0.462Q0.832 0.434 0.811 0.434Q0.789 0.440 0.789 0.462L0.780 0.456H0.763Q0.749 0.464 0.749 0.479V0.487H0.743V0.541H0.746Q0.754 0.541 0.757 0.519Q0.754 0.513 0.754 0.507L0.769 0.504H0.783Q0.803 0.504 0.806 0.522H0.803L0.783 0.519L0.780 0.533V0.536L0.783 0.541L0.769 0.539Q0.746 0.539 0.743 0.581Q0.743 0.588 0.729 0.617V0.623H0.737L0.743 0.620V0.671H0.737Q0.737 0.666 0.734 0.666L0.737 0.660V0.657Q0.737 0.655 0.734 0.655L0.737 0.649L0.732 0.640H0.737Q0.737 0.637 0.734 0.637L0.737 0.632Q0.737 0.626 0.732 0.626Q0.732 0.630 0.723 0.634Q0.723 0.628 0.709 0.623Q0.695 0.614 0.695 0.606Q0.695 0.602 0.687 0.597L0.690 0.592V0.589Q0.690 0.570 0.659 0.558H0.656Q0.651 0.558 0.636 0.578V0.581H0.642V0.592H0.636V0.586H0.633Q0.609 0.600 0.599 0.614V0.617L0.602 0.623Q0.585 0.635 0.585 0.637L0.579 0.634Q0.530 0.680 0.509 0.680V0.674Q0.514 0.674 0.514 0.669L0.520 0.671Q0.520 0.663 0.551 0.640V0.634L0.548 0.629Q0.558 0.620 0.562 0.620V0.617L0.548 0.600Q0.560 0.581 0.565 0.581Q0.565 0.589 0.582 0.597Q0.582 0.596 0.599 0.578V0.575Q0.599 0.571 0.582 0.558H0.579Q0.575 0.564 0.517 0.575Q0.457 0.605 0.457 0.632V0.637Q0.463 0.652 0.483 0.652L0.480 0.657Q0.493 0.669 0.494 0.669Q0.491 0.680 0.480 0.680Q0.441 0.670 0.441 0.634Q0.441 0.602 0.509 0.567Q0.543 0.553 0.554 0.553V0.550H0.364Q0.223 0.550 0.164 0.422Q0.142 0.373 0.141 0.332L0.135 0.334V0.326H0.141L0.138 0.306Q0.138 0.142 0.249 0.063Q0.292 0.038 0.333 0.038H0.661Q0.675 0.028 0.675 0.027Q0.690 0.030 0.690 0.035H0.687Q0.681 0.032 0.678 0.032V0.038H0.687Q0.690 0.038 0.690 0.035L0.695 0.038H0.698V0.029H0.712Q0.712 -0.006 0.763 -0.022ZM0.590 -0.016Q0.597 -0.016 0.627 -0.007Q0.618 0.007 0.618 0.021H0.624Q0.631 -0.001 0.639 -0.001H0.642L0.645 0.013Q0.645 0.021 0.618 0.027H0.616Q0.610 0.027 0.610 0.021V0.015Q0.613 0.003 0.613 -0.004Q0.606 -0.004 0.590 -0.010ZM0.706 -0.016H0.720V-0.013H0.706ZM0.684 -0.013H0.695V-0.010H0.684ZM0.650 -0.010H0.653Q0.675 -0.005 0.675 0.001H0.673Q0.664 -0.004 0.650 -0.004ZM0.695 -0.010H0.701V-0.007H0.695ZM0.701 -0.007H0.704V0.001H0.701ZM0.675 0.001H0.678Q0.682 0.001 0.692 0.015V0.018Q0.688 0.018 0.675 0.001ZM0.777 0.007Q0.766 0.019 0.766 0.021Q0.769 0.026 0.769 0.029H0.772L0.777 0.027L0.783 0.038H0.760Q0.754 0.038 0.754 0.032V0.021Q0.762 0.007 0.777 0.007ZM0.692 0.018H0.695V0.024H0.692ZM0.704 0.035V0.038H0.709V0.035ZM0.822 0.032H0.828V0.043Q0.828 0.063 0.806 0.063Q0.800 0.060 0.797 0.060V0.046L0.803 0.049Q0.803 0.045 0.822 0.038ZM0.786 0.043V0.046L0.783 0.063H0.780V0.052H0.777Q0.766 0.060 0.760 0.060Q0.760 0.053 0.786 0.043ZM0.757 0.063H0.760V0.069H0.757ZM0.775 0.066H0.777V0.069Q0.767 0.071 0.766 0.071Q0.766 0.066 0.775 0.066ZM0.192 0.292Q0.192 0.431 0.294 0.487Q0.324 0.499 0.382 0.499H0.618Q0.623 0.499 0.630 0.487V0.484Q0.575 0.484 0.494 0.408Q0.486 0.408 0.477 0.397H0.480Q0.571 0.459 0.587 0.459H0.610Q0.630 0.459 0.630 0.439V0.431Q0.600 0.439 0.585 0.439H0.582Q0.543 0.435 0.543 0.408V0.406Q0.543 0.398 0.554 0.397H0.557V0.400Q0.548 0.400 0.548 0.414Q0.558 0.422 0.571 0.422Q0.584 0.422 0.613 0.411V0.406Q0.610 0.406 0.590 0.400V0.397H0.599Q0.620 0.405 0.621 0.408Q0.645 0.397 0.675 0.397L0.690 0.400V0.168H0.684L0.681 0.188V0.304L0.684 0.337L0.678 0.340V0.188H0.673V0.193L0.667 0.190H0.664V0.221H0.659V0.188L0.656 0.182Q0.661 0.182 0.661 0.176H0.664V0.182H0.670V0.171H0.675V0.165Q0.659 0.165 0.659 0.154H0.645Q0.642 0.154 0.642 0.157L0.636 0.154H0.633Q0.626 0.162 0.621 0.162V0.165Q0.630 0.172 0.630 0.176H0.636V0.171L0.633 0.165H0.645Q0.638 0.174 0.633 0.193H0.627L0.621 0.190L0.624 0.185Q0.624 0.179 0.618 0.179L0.621 0.174V0.171H0.610V0.174L0.604 0.171H0.602V0.174L0.604 0.179Q0.599 0.179 0.599 0.185H0.590Q0.590 0.165 0.565 0.165V0.159H0.557L0.545 0.168H0.543V0.165Q0.543 0.158 0.557 0.157V0.151Q0.551 0.151 0.545 0.134V0.120H0.540V0.117Q0.548 0.117 0.548 0.111Q0.548 0.108 0.545 0.108L0.548 0.103L0.545 0.097L0.557 0.094V0.088H0.361Q0.246 0.088 0.211 0.196Q0.200 0.217 0.192 0.292ZM0.565 0.111V0.131Q0.569 0.142 0.585 0.148V0.151H0.596Q0.604 0.151 0.618 0.140V0.134H0.613V0.131L0.624 0.129V0.120Q0.624 0.103 0.596 0.088Q0.572 0.095 0.565 0.111ZM0.633 0.094H0.645Q0.645 0.091 0.653 0.091V0.088H0.645V0.091L0.639 0.088Q0.633 0.090 0.633 0.094ZM0.656 0.088 0.659 0.094H0.647Q0.648 0.100 0.653 0.100Q0.645 0.120 0.639 0.120V0.129Q0.647 0.129 0.647 0.134V0.137L0.645 0.151H0.673V0.154H0.664V0.159L0.678 0.162L0.681 0.157V0.151H0.673V0.148Q0.679 0.148 0.684 0.145V0.165H0.690V0.111Q0.690 0.108 0.687 0.108L0.690 0.103Q0.690 0.100 0.687 0.100L0.690 0.094V0.088H0.681Q0.678 0.088 0.678 0.091L0.673 0.088ZM0.673 0.094H0.675V0.100H0.673ZM0.639 0.100V0.108H0.642Q0.647 0.108 0.647 0.103V0.100ZM0.673 0.100V0.105H0.667Q0.668 0.100 0.673 0.100ZM0.659 0.105H0.667V0.111Q0.662 0.111 0.656 0.117V0.114Q0.659 0.108 0.659 0.105ZM0.593 0.108Q0.604 0.113 0.604 0.117V0.126Q0.604 0.128 0.596 0.134Q0.588 0.133 0.582 0.123Q0.582 0.119 0.593 0.108ZM0.681 0.108H0.687V0.111H0.681ZM0.675 0.111H0.681Q0.681 0.117 0.675 0.117ZM0.531 0.114H0.537V0.117H0.531ZM0.607 0.134H0.613V0.137H0.607ZM0.540 0.137H0.545V0.140H0.540ZM0.607 0.137V0.143L0.587 0.145H0.585V0.143Q0.587 0.143 0.607 0.137ZM0.743 0.145V0.157H0.760V0.145ZM0.789 0.145H0.794V0.148H0.789ZM0.794 0.148H0.797Q0.803 0.149 0.803 0.154V0.171H0.808V0.174L0.792 0.179Q0.800 0.169 0.800 0.159V0.157ZM0.627 0.162H0.633V0.165H0.627ZM0.817 0.165H0.834V0.168H0.817ZM0.645 0.168H0.650V0.171H0.645ZM0.808 0.168H0.817V0.171H0.808ZM0.836 0.168H0.839Q0.845 0.169 0.845 0.174H0.842Q0.836 0.174 0.836 0.168ZM0.673 0.174V0.182H0.678V0.174ZM0.786 0.179H0.792V0.182H0.786ZM0.777 0.182H0.786V0.185H0.777ZM0.853 0.182H0.856V0.188H0.853ZM0.859 0.196H0.862V0.216H0.859ZM0.820 0.221Q0.825 0.224 0.828 0.224L0.822 0.244Q0.832 0.250 0.836 0.250L0.834 0.264H0.820L0.822 0.250H0.814Q0.814 0.259 0.806 0.259Q0.800 0.256 0.797 0.256L0.800 0.241L0.820 0.244V0.241L0.811 0.230V0.227Q0.811 0.221 0.820 0.221ZM0.110 0.374 0.113 0.380Q0.110 0.386 0.110 0.389H0.107Q0.101 0.389 0.101 0.383Q0.104 0.383 0.104 0.380H0.098V0.377ZM0.457 0.389H0.463V0.392H0.457ZM0.466 0.392H0.471V0.394H0.466ZM0.471 0.394H0.477V0.397H0.471ZM0.557 0.394H0.568V0.397H0.557ZM0.579 0.394H0.590V0.397H0.579ZM0.647 0.422V0.425Q0.656 0.434 0.664 0.459Q0.670 0.459 0.681 0.436H0.690V0.422Q0.669 0.420 0.667 0.420ZM0.814 0.442H0.820Q0.824 0.442 0.831 0.453V0.459Q0.831 0.479 0.811 0.479Q0.794 0.473 0.794 0.456Q0.798 0.442 0.814 0.442ZM0.302 0.470H0.308V0.473H0.302ZM0.887 0.470H0.893V0.473H0.887ZM0.794 0.476Q0.800 0.477 0.800 0.481H0.794ZM0.870 0.476H0.876Q0.890 0.476 0.896 0.493Q0.896 0.507 0.876 0.513Q0.859 0.508 0.859 0.493V0.487Q0.859 0.483 0.870 0.476ZM0.183 0.481H0.189V0.484H0.183ZM0.800 0.481H0.806V0.484H0.800ZM0.820 0.481H0.825V0.484H0.820ZM0.806 0.484H0.820L0.817 0.490Q0.812 0.487 0.806 0.487ZM0.902 0.504V0.507Q0.899 0.512 0.899 0.519Q0.893 0.516 0.890 0.516V0.513Q0.894 0.513 0.902 0.504ZM0.859 0.510Q0.859 0.516 0.873 0.519V0.522Q0.862 0.522 0.862 0.539V0.547L0.867 0.555Q0.864 0.555 0.845 0.567L0.848 0.553Q0.848 0.533 0.834 0.533V0.530Q0.844 0.530 0.859 0.510ZM0.890 0.522H0.893V0.527Q0.876 0.549 0.870 0.550Q0.867 0.539 0.867 0.539Q0.873 0.522 0.890 0.522ZM0.610 0.550Q0.610 0.553 0.618 0.558Q0.623 0.558 0.627 0.550ZM0.678 0.550V0.553Q0.687 0.553 0.687 0.567H0.690V0.550ZM0.772 0.547Q0.789 0.547 0.789 0.564V0.569Q0.789 0.574 0.777 0.581Q0.756 0.581 0.754 0.572V0.564Q0.754 0.547 0.772 0.547ZM0.792 0.547H0.803V0.561L0.814 0.575V0.578H0.808L0.792 0.581H0.789V0.578Q0.796 0.578 0.797 0.564Q0.792 0.552 0.792 0.547ZM0.704 0.603Q0.705 0.609 0.709 0.609Q0.709 0.606 0.712 0.606Q0.712 0.609 0.715 0.609V0.597H0.709Q0.704 0.599 0.704 0.603ZM0.650 0.606Q0.655 0.609 0.661 0.609V0.611H0.650ZM0.678 0.609Q0.675 0.614 0.675 0.617Q0.671 0.614 0.664 0.614V0.611ZM0.673 0.620H0.681V0.623H0.673ZM0.529 0.626Q0.532 0.626 0.537 0.634Q0.527 0.634 0.523 0.649H0.520Q0.516 0.649 0.512 0.640V0.637Q0.517 0.637 0.529 0.626ZM0.650 0.626H0.661V0.629Q0.661 0.632 0.642 0.646V0.643Q0.650 0.630 0.650 0.626ZM0.687 0.634H0.690V0.640H0.687ZM0.712 0.637 0.715 0.643V0.652Q0.715 0.657 0.709 0.657L0.704 0.649V0.646Q0.704 0.642 0.712 0.637ZM0.633 0.660H0.639L0.656 0.674H0.659Q0.662 0.674 0.673 0.660Q0.688 0.663 0.692 0.671H0.695L0.692 0.677V0.680L0.695 0.685L0.706 0.680Q0.706 0.683 0.709 0.683Q0.717 0.669 0.720 0.669Q0.720 0.671 0.723 0.671Q0.726 0.666 0.726 0.663H0.729Q0.729 0.669 0.732 0.674V0.683H0.743V0.722L0.737 0.719Q0.734 0.728 0.732 0.728L0.720 0.722Q0.720 0.725 0.718 0.725Q0.718 0.722 0.715 0.722Q0.715 0.725 0.712 0.725V0.722Q0.702 0.730 0.690 0.730Q0.695 0.721 0.695 0.716Q0.690 0.716 0.690 0.711V0.680Q0.664 0.705 0.653 0.705Q0.653 0.702 0.650 0.702Q0.650 0.705 0.647 0.705Q0.647 0.699 0.642 0.699V0.702L0.613 0.697V0.699L0.607 0.697L0.602 0.699Q0.602 0.697 0.599 0.697Q0.599 0.699 0.596 0.699V0.697L0.579 0.702Q0.579 0.699 0.576 0.699V0.705L0.571 0.702Q0.557 0.712 0.557 0.728H0.543L0.545 0.722Q0.545 0.719 0.543 0.719Q0.558 0.685 0.585 0.685Q0.624 0.660 0.633 0.660ZM0.698 0.666Q0.704 0.666 0.704 0.671H0.698ZM0.698 0.691V0.697Q0.701 0.697 0.701 0.694L0.706 0.697L0.712 0.694V0.699Q0.704 0.699 0.704 0.705Q0.704 0.710 0.712 0.714H0.720V0.708L0.718 0.702H0.726V0.691Q0.723 0.691 0.718 0.688Q0.718 0.691 0.715 0.691Q0.715 0.685 0.709 0.685H0.704Q0.698 0.686 0.698 0.691ZM0.520 0.699H0.526Q0.531 0.701 0.531 0.705V0.708Q0.531 0.714 0.529 0.719Q0.531 0.725 0.531 0.728H0.520Q0.516 0.728 0.506 0.714Q0.506 0.710 0.520 0.699ZM0.452 0.702 0.455 0.708 0.435 0.722Q0.435 0.718 0.424 0.711L0.413 0.722H0.355Q0.306 0.722 0.263 0.733H0.260V0.730Q0.306 0.705 0.367 0.705H0.446ZM0.483 0.702H0.494V0.705Q0.465 0.725 0.460 0.725H0.457V0.722Q0.465 0.722 0.469 0.711ZM0.596 0.711V0.714L0.602 0.711H0.633V0.714Q0.595 0.725 0.571 0.725Q0.571 0.716 0.596 0.711ZM0.734 0.728H0.737V0.733H0.734ZM0.254 0.733H0.260V0.736H0.254ZM0.737 0.733H0.743V0.739Q0.737 0.739 0.737 0.733ZM0.723 0.736 0.743 0.759V0.779Q0.710 0.775 0.692 0.764Q0.692 0.767 0.690 0.767V0.753Q0.690 0.746 0.723 0.736ZM0.690 0.779H0.695V0.782H0.690ZM0.695 0.782H0.704V0.787Q0.706 0.787 0.706 0.785Q0.743 0.789 0.743 0.796V0.810L0.712 0.790H0.704V0.796Q0.704 0.802 0.709 0.821Q0.706 0.821 0.706 0.824Q0.709 0.824 0.709 0.827H0.704Q0.704 0.830 0.706 0.830Q0.701 0.846 0.692 0.846L0.695 0.852L0.690 0.855V0.804Q0.701 0.794 0.701 0.787Q0.695 0.787 0.695 0.782ZM0.720 0.810 0.732 0.818 0.726 0.830Q0.729 0.834 0.729 0.841V0.844L0.718 0.838L0.720 0.832Q0.720 0.830 0.718 0.830Q0.720 0.818 0.723 0.818L0.720 0.813ZM0.729 0.844H0.732V0.852H0.729ZM0.715 0.852H0.718Q0.718 0.855 0.720 0.860H0.718Q0.723 0.872 0.723 0.880L0.718 0.877Q0.715 0.892 0.715 0.895L0.709 0.892Q0.709 0.895 0.706 0.900Q0.709 0.900 0.709 0.903Q0.704 0.904 0.704 0.909V0.920Q0.709 0.920 0.709 0.923Q0.723 0.923 0.740 0.892H0.746V0.895L0.737 0.915H0.740L0.737 0.920Q0.740 0.926 0.740 0.929H0.737L0.740 0.934V0.937Q0.725 0.937 0.720 0.968L0.726 0.971H0.732Q0.740 0.971 0.740 0.954H0.743Q0.743 0.966 0.746 0.977H0.749L0.769 0.974Q0.769 0.979 0.777 0.979V0.982Q0.729 0.982 0.729 0.991Q0.723 1.019 0.718 1.019Q0.713 1.019 0.701 0.985Q0.698 0.985 0.678 0.982V0.979H0.684V0.977L0.681 0.962Q0.690 0.962 0.690 0.951L0.681 0.915H0.684L0.690 0.918V0.903Q0.663 0.879 0.647 0.872Q0.647 0.880 0.642 0.880Q0.642 0.877 0.639 0.877Q0.645 0.866 0.645 0.860L0.690 0.892Q0.690 0.866 0.706 0.866Q0.715 0.860 0.715 0.852ZM0.797 0.852V0.855Q0.790 0.862 0.786 0.892Q0.780 0.892 0.780 0.886V0.872H0.777L0.769 0.877H0.766V0.874Q0.766 0.871 0.797 0.852ZM0.732 0.860H0.734V0.866H0.732ZM0.734 0.869Q0.740 0.870 0.740 0.874L0.734 0.877ZM0.751 0.883V0.886Q0.751 0.892 0.746 0.892V0.889Q0.747 0.883 0.751 0.883ZM0.642 0.892H0.647Q0.647 0.897 0.642 0.897ZM0.772 0.906H0.780Q0.778 0.929 0.772 0.929Q0.772 0.926 0.769 0.926L0.775 0.909Q0.772 0.909 0.772 0.906ZM0.659 0.923H0.661V0.937H0.659ZM0.661 0.937H0.664V0.948H0.661ZM0.769 0.954H0.772Q0.804 0.977 0.808 0.977V0.979Q0.808 0.985 0.803 0.985L0.769 0.957ZM0.618 0.971H0.624V0.977H0.618ZM0.610 0.982 0.613 0.988V0.991Q0.604 0.991 0.604 0.996V0.999H0.636L0.645 1.005V1.002Q0.648 1.005 0.661 1.005V1.007H0.633L0.627 1.005V1.007L0.621 1.005H0.590L0.585 1.002Q0.585 1.005 0.582 1.005L0.579 0.999Q0.605 0.982 0.610 0.982ZM0.825 0.993H0.831Q0.831 0.999 0.839 1.007V1.010Q0.835 1.010 0.825 0.996ZM0.800 1.002 0.797 1.007Q0.800 1.007 0.800 1.010H0.775V1.005ZM0.749 1.005V1.010H0.743Q0.744 1.005 0.749 1.005ZM0.811 1.005H0.814Q0.820 1.006 0.820 1.010H0.817Q0.811 1.010 0.811 1.005ZM0.746 1.013V1.016Q0.743 1.030 0.737 1.030V1.022Q0.737 1.018 0.746 1.013ZM0.690 1.025H0.695Q0.695 1.030 0.690 1.030ZM0.734 1.033H0.737V1.039H0.734ZM0.706 1.070 0.712 1.073Q0.712 1.070 0.715 1.070Q0.715 1.081 0.720 1.081V1.076H0.723V1.087L0.718 1.084H0.715L0.709 1.087Q0.706 1.079 0.704 1.079Q0.706 1.073 0.706 1.070Z" fill="black"/>
</svg>
