<svg xmlns="http://www.w3.org/2000/svg" viewBox="0 0 1 1" preserveAspectRatio="xMidYMid meet">
  <path d="M0.659 0.017H0.676V0.020H0.659ZM0.642 0.020H0.659V0.023H0.642ZM0.679 0.020H0.693V0.023H0.679ZM0.636 0.023H0.639V0.025L0.628 0.028Q0.628 0.023 0.636 0.023ZM0.693 0.023H0.699V0.025H0.693ZM0.622 0.028H0.628V0.031H0.622ZM0.251 0.031H0.266V0.045H0.251ZM0.288 0.031H0.302V0.045H0.288ZM0.324 0.031H0.335V0.039H0.361V0.031H0.375L0.372 0.037L0.378 0.039H0.398V0.037L0.395 0.031H0.411V0.039H0.434V0.031H0.445V0.039H0.609L0.617 0.034H0.620L0.617 0.039H0.628Q0.655 0.031 0.662 0.031H0.679V0.034Q0.667 0.034 0.648 0.037V0.039H0.688V0.037H0.679V0.034H0.690Q0.704 0.042 0.724 0.045Q0.724 0.038 0.713 0.037V0.031H0.715Q0.736 0.052 0.763 0.059L0.811 0.096L0.817 0.093H0.822Q0.822 0.104 0.831 0.113H0.822V0.116Q0.851 0.157 0.867 0.214L0.873 0.217L0.870 0.222Q0.876 0.271 0.876 0.290Q0.876 0.467 0.741 0.529Q0.737 0.532 0.724 0.532Q0.724 0.507 0.659 0.507Q0.618 0.507 0.583 0.540H0.513Q0.523 0.557 0.527 0.557Q0.527 0.554 0.530 0.554Q0.530 0.562 0.549 0.566V0.568L0.543 0.577Q0.548 0.577 0.561 0.594Q0.558 0.613 0.558 0.625Q0.498 0.572 0.448 0.554Q0.444 0.540 0.411 0.540H0.406V0.546Q0.387 0.540 0.381 0.540Q0.310 0.560 0.307 0.560V0.380Q0.303 0.383 0.293 0.383V0.386H0.299V0.400H0.285V0.386H0.266Q0.260 0.386 0.260 0.380Q0.260 0.374 0.307 0.368V0.329L0.302 0.332Q0.291 0.328 0.291 0.324V0.315Q0.291 0.310 0.307 0.310V0.293Q0.293 0.293 0.293 0.288V0.279Q0.293 0.271 0.307 0.270V0.264Q0.296 0.264 0.296 0.253Q0.299 0.242 0.307 0.242V0.228Q0.305 0.228 0.305 0.231Q0.295 0.225 0.288 0.225V0.214Q0.292 0.214 0.305 0.206Q0.305 0.209 0.307 0.209V0.039H0.324ZM0.808 0.051Q0.814 0.053 0.817 0.053V0.062H0.814Q0.809 0.059 0.806 0.059Q0.808 0.053 0.808 0.051ZM0.251 0.068H0.266V0.079H0.251ZM0.288 0.068H0.302V0.079H0.288ZM0.358 0.090V0.225H0.361V0.214H0.375Q0.375 0.217 0.372 0.217Q0.381 0.230 0.381 0.234Q0.376 0.245 0.372 0.245L0.358 0.242V0.256L0.364 0.253H0.375Q0.381 0.254 0.381 0.259V0.267Q0.381 0.272 0.372 0.276H0.367L0.358 0.270V0.299Q0.372 0.299 0.372 0.307V0.313Q0.372 0.321 0.358 0.321V0.354Q0.405 0.337 0.460 0.293H0.462Q0.411 0.344 0.358 0.363V0.386H0.370V0.394Q0.370 0.400 0.358 0.400V0.422H0.370V0.436H0.358V0.459H0.370V0.473H0.358V0.490H0.682Q0.775 0.490 0.814 0.371Q0.825 0.332 0.825 0.285Q0.822 0.247 0.814 0.214Q0.780 0.227 0.780 0.282Q0.777 0.282 0.777 0.302Q0.725 0.264 0.715 0.264Q0.659 0.270 0.653 0.270Q0.665 0.224 0.665 0.211V0.209H0.671V0.203Q0.666 0.203 0.659 0.192V0.200H0.656Q0.656 0.186 0.645 0.186V0.220Q0.645 0.222 0.648 0.222L0.645 0.228V0.279Q0.645 0.285 0.639 0.285V0.200Q0.639 0.197 0.636 0.197L0.639 0.192V0.183H0.636Q0.631 0.184 0.631 0.189V0.192L0.634 0.206H0.628V0.211Q0.628 0.214 0.631 0.214L0.628 0.220L0.631 0.231Q0.627 0.245 0.622 0.245Q0.616 0.245 0.611 0.225H0.606V0.304L0.614 0.315Q0.606 0.325 0.606 0.335V0.357Q0.606 0.363 0.600 0.363V0.332Q0.600 0.327 0.595 0.327V0.439Q0.595 0.445 0.589 0.445Q0.583 0.445 0.583 0.439V0.264L0.578 0.267Q0.572 0.264 0.566 0.264L0.569 0.259L0.566 0.253Q0.575 0.253 0.575 0.250L0.581 0.253H0.583V0.245H0.581L0.575 0.248V0.239L0.578 0.225L0.583 0.228V0.217Q0.583 0.206 0.581 0.206L0.583 0.186V0.121H0.581Q0.576 0.121 0.538 0.172V0.181L0.541 0.186Q0.539 0.186 0.524 0.203L0.516 0.197Q0.469 0.256 0.414 0.256Q0.399 0.256 0.395 0.245V0.242Q0.407 0.250 0.414 0.250Q0.457 0.250 0.507 0.189V0.183H0.490V0.181H0.507V0.178L0.504 0.172Q0.534 0.172 0.561 0.129Q0.564 0.129 0.586 0.104H0.595V0.099L0.592 0.093H0.597V0.090H0.586V0.099H0.581L0.583 0.093V0.090ZM0.600 0.090V0.096H0.603Q0.608 0.093 0.611 0.093V0.090ZM0.713 0.096V0.107H0.718V0.096ZM0.721 0.099V0.104Q0.729 0.104 0.729 0.107Q0.724 0.117 0.724 0.121Q0.731 0.116 0.735 0.116V0.102ZM0.603 0.102V0.107Q0.609 0.107 0.609 0.102ZM0.251 0.104H0.266V0.116H0.251ZM0.288 0.104H0.302V0.116H0.288ZM0.395 0.104H0.411V0.116H0.398Q0.398 0.109 0.395 0.104ZM0.434 0.104H0.445V0.116H0.434ZM0.589 0.110 0.586 0.124Q0.589 0.129 0.589 0.132H0.592Q0.594 0.132 0.600 0.124L0.595 0.113Q0.597 0.113 0.597 0.110ZM0.600 0.116V0.118H0.606V0.116ZM0.606 0.132V0.135H0.611V0.132ZM0.772 0.132Q0.779 0.163 0.795 0.163Q0.787 0.145 0.772 0.132ZM0.595 0.141V0.146H0.600L0.597 0.152L0.634 0.178Q0.648 0.183 0.653 0.183V0.178Q0.649 0.178 0.639 0.172Q0.639 0.175 0.636 0.175L0.622 0.160Q0.622 0.163 0.620 0.163Q0.620 0.159 0.606 0.146Q0.609 0.146 0.609 0.143ZM0.251 0.141H0.266V0.152Q0.256 0.152 0.251 0.155ZM0.288 0.141H0.302V0.155L0.296 0.152V0.155Q0.291 0.152 0.288 0.152ZM0.398 0.141H0.411V0.152H0.398ZM0.434 0.141H0.445V0.155L0.439 0.152L0.434 0.155ZM0.859 0.141 0.870 0.146Q0.874 0.143 0.884 0.143Q0.884 0.155 0.893 0.163Q0.876 0.163 0.876 0.178Q0.865 0.166 0.853 0.166L0.861 0.155ZM0.606 0.169V0.178H0.609Q0.614 0.178 0.614 0.172V0.169ZM0.251 0.178H0.266V0.189H0.251ZM0.288 0.178H0.302V0.192H0.299Q0.294 0.189 0.291 0.189Q0.291 0.192 0.288 0.192ZM0.361 0.178H0.372V0.192H0.370Q0.364 0.189 0.361 0.189ZM0.395 0.178H0.411V0.192H0.395L0.398 0.186V0.183ZM0.434 0.178H0.445Q0.445 0.189 0.451 0.189V0.192Q0.442 0.192 0.437 0.195L0.434 0.189ZM0.457 0.186H0.462V0.189H0.457ZM0.564 0.211H0.566V0.214Q0.559 0.270 0.549 0.270H0.546V0.267Q0.546 0.263 0.564 0.211ZM0.251 0.214H0.266V0.225H0.251ZM0.395 0.214H0.411V0.225H0.398Q0.398 0.219 0.395 0.214ZM0.434 0.214H0.445V0.225H0.434ZM0.549 0.214H0.552V0.220H0.549ZM0.595 0.222V0.304H0.600V0.222ZM0.392 0.231H0.395V0.242H0.392ZM0.541 0.234H0.543V0.239H0.541ZM0.538 0.239H0.541V0.242Q0.514 0.313 0.504 0.313H0.502V0.310ZM0.518 0.245H0.521V0.250H0.518ZM0.507 0.267V0.270Q0.507 0.276 0.502 0.276V0.273Q0.503 0.267 0.507 0.267ZM0.502 0.276V0.279Q0.450 0.357 0.420 0.357H0.417ZM0.671 0.304 0.676 0.313H0.665L0.662 0.307Q0.665 0.307 0.671 0.304ZM0.760 0.315H0.763Q0.763 0.321 0.769 0.321Q0.766 0.326 0.766 0.329H0.757Q0.757 0.326 0.754 0.321Q0.760 0.321 0.760 0.315ZM0.713 0.335Q0.713 0.341 0.715 0.346Q0.713 0.351 0.713 0.354L0.699 0.352Q0.702 0.340 0.713 0.335ZM0.395 0.371Q0.406 0.374 0.406 0.389V0.397Q0.399 0.397 0.395 0.400Q0.381 0.389 0.381 0.383Q0.384 0.371 0.395 0.371ZM0.249 0.386H0.263L0.260 0.392Q0.263 0.397 0.263 0.400H0.249ZM0.428 0.386H0.442V0.397L0.428 0.400V0.394L0.431 0.389Q0.428 0.389 0.428 0.386ZM0.249 0.422H0.263L0.260 0.428Q0.263 0.433 0.263 0.436H0.249ZM0.285 0.422H0.299V0.436H0.285ZM0.395 0.422H0.406V0.436H0.392Q0.395 0.432 0.395 0.422ZM0.434 0.422H0.442Q0.442 0.432 0.445 0.436H0.428V0.428Q0.429 0.422 0.434 0.422ZM0.249 0.459H0.263Q0.263 0.461 0.260 0.461L0.263 0.467V0.473H0.249ZM0.285 0.459H0.299V0.473H0.285ZM0.392 0.459H0.409L0.406 0.464Q0.409 0.470 0.409 0.473H0.392L0.395 0.467V0.464ZM0.428 0.459H0.442V0.473H0.428ZM0.249 0.496H0.263Q0.263 0.499 0.260 0.499L0.263 0.504V0.507H0.249ZM0.285 0.496H0.299V0.507H0.285ZM0.662 0.515Q0.715 0.521 0.715 0.529Q0.713 0.540 0.699 0.540H0.597Q0.624 0.515 0.662 0.515ZM0.249 0.532H0.263Q0.263 0.535 0.260 0.535L0.263 0.540V0.543H0.249ZM0.285 0.532H0.299V0.543H0.285ZM0.358 0.557Q0.358 0.568 0.364 0.568H0.370V0.582Q0.358 0.582 0.358 0.588Q0.353 0.594 0.307 0.608V0.568Q0.354 0.557 0.358 0.557ZM0.249 0.568H0.263Q0.263 0.571 0.260 0.571L0.263 0.577V0.579Q0.263 0.583 0.243 0.594H0.240V0.582Q0.249 0.576 0.249 0.568ZM0.395 0.568H0.406V0.582H0.400Q0.395 0.582 0.395 0.577ZM0.428 0.568H0.442V0.582H0.428ZM0.299 0.574V0.582H0.285Q0.285 0.577 0.299 0.574ZM0.474 0.577H0.477Q0.506 0.588 0.561 0.639Q0.566 0.639 0.569 0.603Q0.609 0.637 0.609 0.659Q0.629 0.727 0.699 0.774Q0.767 0.793 0.783 0.828H0.780Q0.775 0.828 0.763 0.822L0.724 0.839L0.721 0.833V0.831Q0.730 0.831 0.738 0.819V0.816Q0.738 0.811 0.704 0.802Q0.699 0.805 0.693 0.805L0.690 0.799Q0.693 0.799 0.693 0.796L0.668 0.779Q0.668 0.782 0.665 0.782Q0.665 0.770 0.609 0.721Q0.609 0.715 0.499 0.605ZM0.358 0.600Q0.358 0.605 0.367 0.605V0.617H0.358V0.642H0.367V0.653H0.358V0.678H0.367V0.692L0.361 0.689H0.358V0.715H0.367V0.729H0.358V0.751H0.367V0.763H0.358V0.788H0.367V0.799H0.358V0.811Q0.358 0.820 0.361 0.825L0.358 0.842V0.861Q0.358 0.864 0.361 0.864L0.358 0.870V0.932Q0.358 0.935 0.361 0.935L0.358 0.940V0.982H0.307V0.617ZM0.763 0.603H0.769V0.608H0.763ZM0.220 0.605H0.225Q0.225 0.611 0.220 0.611ZM0.246 0.605H0.260Q0.257 0.610 0.257 0.617H0.240Q0.240 0.628 0.231 0.628H0.225Q0.220 0.628 0.220 0.622Q0.231 0.611 0.237 0.611H0.246ZM0.282 0.605H0.296L0.293 0.611Q0.296 0.611 0.296 0.614L0.291 0.617H0.282ZM0.389 0.605H0.403V0.617H0.392Q0.392 0.610 0.389 0.605ZM0.425 0.605 0.439 0.608V0.617H0.425ZM0.209 0.619V0.622Q0.209 0.626 0.195 0.636V0.628Q0.195 0.621 0.209 0.619ZM0.217 0.628V0.636Q0.217 0.640 0.209 0.645H0.200Q0.200 0.640 0.217 0.628ZM0.282 0.633H0.288Q0.292 0.633 0.296 0.642V0.650Q0.296 0.656 0.291 0.656H0.279Q0.274 0.656 0.274 0.650V0.642Q0.274 0.637 0.282 0.633ZM0.763 0.639H0.769V0.642H0.763ZM0.792 0.639Q0.797 0.642 0.800 0.642V0.653Q0.794 0.653 0.789 0.656Q0.789 0.652 0.783 0.645Q0.788 0.645 0.792 0.639ZM0.392 0.642H0.403V0.653H0.392ZM0.425 0.642H0.439V0.653H0.425ZM0.254 0.647H0.257Q0.257 0.657 0.274 0.659L0.277 0.670Q0.268 0.678 0.257 0.678V0.686L0.260 0.692H0.257Q0.251 0.689 0.249 0.689Q0.249 0.692 0.246 0.692V0.675L0.251 0.678H0.254Q0.254 0.672 0.251 0.667L0.257 0.656Q0.251 0.653 0.249 0.653Q0.249 0.647 0.254 0.647ZM0.164 0.653 0.170 0.656Q0.174 0.653 0.181 0.653Q0.175 0.660 0.175 0.664H0.167ZM0.617 0.653Q0.692 0.728 0.738 0.779H0.735Q0.668 0.756 0.628 0.689Q0.617 0.660 0.617 0.653ZM0.184 0.661H0.186Q0.186 0.672 0.192 0.672H0.195V0.675Q0.186 0.675 0.186 0.681V0.686L0.192 0.684H0.195Q0.200 0.685 0.200 0.689Q0.191 0.707 0.186 0.707H0.181V0.692H0.178L0.173 0.695V0.681Q0.184 0.674 0.184 0.667ZM0.516 0.661 0.527 0.667 0.524 0.672 0.527 0.678Q0.517 0.678 0.513 0.681V0.667Q0.516 0.667 0.516 0.661ZM0.113 0.670H0.119V0.672H0.113ZM0.150 0.675H0.153V0.684H0.150ZM0.403 0.675V0.692Q0.398 0.689 0.392 0.689V0.678Q0.398 0.678 0.403 0.675ZM0.425 0.675Q0.431 0.678 0.439 0.678V0.692Q0.435 0.689 0.425 0.689ZM0.105 0.678H0.107V0.681L0.105 0.695H0.102L0.099 0.681ZM0.282 0.678H0.296V0.692L0.291 0.689L0.285 0.692L0.282 0.686ZM0.220 0.681H0.228Q0.234 0.681 0.237 0.701L0.223 0.704H0.220Q0.216 0.704 0.209 0.692ZM0.763 0.681H0.772V0.684H0.763ZM0.847 0.681Q0.847 0.686 0.850 0.686Q0.847 0.692 0.847 0.695Q0.842 0.692 0.839 0.692V0.684Q0.842 0.684 0.847 0.681ZM0.124 0.684H0.133V0.686H0.124ZM0.080 0.701H0.082L0.096 0.704V0.707H0.080ZM0.124 0.701H0.127V0.710H0.119V0.707Q0.120 0.701 0.124 0.701ZM0.077 0.707H0.080Q0.080 0.710 0.071 0.715V0.712Q0.072 0.707 0.077 0.707ZM0.814 0.707Q0.814 0.714 0.825 0.724Q0.820 0.730 0.820 0.743Q0.797 0.733 0.797 0.729H0.800L0.795 0.718Q0.798 0.718 0.814 0.707ZM0.246 0.712Q0.250 0.715 0.260 0.715Q0.257 0.720 0.257 0.729Q0.252 0.726 0.246 0.726ZM0.285 0.712Q0.290 0.715 0.296 0.715V0.729L0.282 0.726V0.718ZM0.425 0.712 0.439 0.715V0.726Q0.431 0.718 0.425 0.718ZM0.068 0.715H0.071V0.721H0.068ZM0.392 0.715H0.403V0.729Q0.398 0.726 0.392 0.726ZM0.490 0.715Q0.499 0.724 0.510 0.724L0.507 0.738L0.510 0.743Q0.497 0.743 0.490 0.749Q0.490 0.744 0.479 0.732Q0.490 0.729 0.490 0.715ZM0.175 0.718H0.184Q0.179 0.729 0.175 0.729ZM0.099 0.721H0.110V0.724Q0.110 0.729 0.105 0.729Q0.099 0.729 0.099 0.724ZM0.150 0.721Q0.164 0.722 0.164 0.738Q0.164 0.746 0.153 0.746Q0.145 0.743 0.145 0.740ZM0.203 0.721H0.206V0.726H0.203ZM0.085 0.726H0.088V0.732H0.085ZM0.195 0.726H0.203V0.729H0.195ZM0.077 0.732H0.082V0.735H0.077ZM0.581 0.732H0.586V0.735H0.581ZM0.572 0.738H0.578V0.740H0.572ZM0.195 0.746Q0.195 0.759 0.206 0.763V0.757H0.209V0.765Q0.199 0.779 0.184 0.782Q0.175 0.803 0.175 0.808Q0.170 0.805 0.167 0.805L0.170 0.799L0.167 0.793Q0.181 0.780 0.181 0.768H0.178Q0.188 0.746 0.195 0.746ZM0.206 0.749H0.209V0.754H0.206ZM0.074 0.751H0.085V0.754H0.074ZM0.096 0.751H0.105V0.757Q0.099 0.754 0.096 0.754ZM0.246 0.751H0.257V0.763H0.246ZM0.282 0.751H0.296V0.763H0.282ZM0.392 0.751H0.403V0.757Q0.403 0.763 0.398 0.763H0.392ZM0.088 0.757H0.093V0.760H0.088ZM0.425 0.757Q0.431 0.760 0.434 0.760V0.763H0.425ZM0.156 0.768H0.159V0.779H0.156Q0.150 0.779 0.150 0.774Q0.150 0.768 0.156 0.768ZM0.549 0.771H0.552Q0.556 0.771 0.561 0.782Q0.555 0.782 0.549 0.785Q0.549 0.782 0.546 0.777H0.552ZM0.071 0.774H0.096V0.777Q0.090 0.777 0.068 0.799V0.796Q0.071 0.791 0.071 0.788Q0.068 0.788 0.068 0.785Q0.077 0.785 0.077 0.779V0.777H0.071ZM0.105 0.785V0.808H0.102V0.802H0.099Q0.093 0.802 0.093 0.811L0.088 0.808Q0.083 0.811 0.080 0.811Q0.080 0.807 0.105 0.785ZM0.119 0.785H0.121V0.791H0.119ZM0.656 0.785H0.659V0.802L0.653 0.805V0.799ZM0.246 0.788H0.257Q0.257 0.794 0.260 0.799H0.246ZM0.282 0.788H0.296V0.799H0.282ZM0.392 0.788H0.395V0.796H0.392ZM0.147 0.791H0.153V0.793H0.147ZM0.645 0.791V0.808H0.634L0.631 0.802Q0.638 0.802 0.645 0.791ZM0.814 0.791H0.820Q0.825 0.792 0.825 0.796Q0.818 0.802 0.811 0.802V0.805Q0.811 0.808 0.814 0.808L0.811 0.814V0.819H0.817V0.822H0.806Q0.806 0.808 0.800 0.802V0.799Q0.814 0.799 0.814 0.791ZM0.425 0.796H0.431V0.799H0.425ZM0.434 0.796H0.439V0.799H0.434ZM0.828 0.799H0.834V0.802H0.828ZM0.159 0.805V0.811H0.150V0.808Q0.153 0.808 0.159 0.805ZM0.653 0.814H0.656V0.825H0.653ZM0.642 0.816H0.645L0.642 0.831Q0.645 0.831 0.645 0.833L0.639 0.836Q0.639 0.834 0.636 0.819ZM0.721 0.816H0.727V0.819H0.721ZM0.831 0.816V0.825H0.828Q0.823 0.822 0.820 0.822V0.819Q0.826 0.819 0.831 0.816ZM0.274 0.822H0.285V0.833Q0.285 0.839 0.279 0.839Q0.279 0.836 0.277 0.836Q0.277 0.839 0.274 0.839ZM0.417 0.822H0.431V0.825Q0.427 0.825 0.420 0.831Q0.420 0.828 0.417 0.822ZM0.555 0.828 0.558 0.842H0.552Q0.552 0.833 0.546 0.833V0.831Q0.549 0.831 0.555 0.828ZM0.564 0.828H0.566V0.833H0.564ZM0.395 0.831V0.839Q0.389 0.839 0.389 0.833ZM0.760 0.831Q0.798 0.837 0.828 0.870Q0.876 0.923 0.932 0.982H0.867Q0.809 0.927 0.732 0.844Q0.740 0.844 0.760 0.831ZM0.156 0.847H0.159V0.850Q0.156 0.855 0.156 0.858H0.153Q0.153 0.855 0.150 0.850ZM0.727 0.850V0.858L0.715 0.861V0.858Q0.715 0.854 0.727 0.850ZM0.274 0.861H0.285V0.872H0.274ZM0.384 0.861H0.395V0.872H0.381Q0.384 0.868 0.384 0.861ZM0.417 0.861H0.425Q0.425 0.867 0.431 0.867V0.872H0.420Q0.420 0.866 0.417 0.861ZM0.465 0.861H0.468V0.872H0.460Q0.465 0.866 0.465 0.861ZM0.142 0.875H0.145V0.881H0.142ZM0.130 0.895H0.133V0.900H0.130ZM0.274 0.897H0.285V0.903Q0.285 0.909 0.279 0.909H0.274ZM0.384 0.897H0.395V0.909H0.384ZM0.420 0.897H0.431V0.909H0.417Q0.420 0.904 0.420 0.897ZM0.454 0.897H0.468V0.909H0.454ZM0.085 0.903H0.088V0.909H0.085ZM0.116 0.906V0.909Q0.107 0.925 0.107 0.932H0.105L0.102 0.921Q0.104 0.921 0.116 0.906ZM0.384 0.932Q0.386 0.932 0.386 0.935L0.392 0.932H0.395V0.946H0.381Q0.384 0.941 0.384 0.932ZM0.431 0.932V0.946H0.417Q0.420 0.932 0.431 0.932ZM0.454 0.932H0.468V0.946H0.454ZM0.102 0.935H0.105V0.940H0.102ZM0.068 0.937H0.071V0.949H0.068ZM0.080 0.968H0.085V0.974Q0.080 0.974 0.080 0.968ZM0.431 0.968V0.982H0.420Q0.420 0.976 0.417 0.971Q0.427 0.971 0.431 0.968ZM0.468 0.968V0.982H0.454V0.971Q0.463 0.971 0.468 0.968ZM0.085 0.974Q0.091 0.975 0.091 0.979H0.085ZM0.091 0.979H0.096V0.982Q0.093 0.987 0.093 0.990H0.091ZM0.420 1.007H0.431V1.019L0.417 1.016Q0.420 1.010 0.420 1.007ZM0.454 1.007H0.468V1.019H0.454ZM0.088 1.010V1.016L0.085 1.036H0.082V1.016Q0.084 1.010 0.088 1.010Z" fill="black"/>
</svg>
