<svg xmlns="http://www.w3.org/2000/svg" viewBox="0 0 1 1" preserveAspectRatio="xMidYMid meet">
  <path d="M0.402 -0.047H0.408Q0.408 -0.041 0.402 -0.041ZM0.419 -0.038Q0.419 -0.034 0.402 -0.027V-0.030Q0.405 -0.038 0.419 -0.038ZM0.266 -0.013Q0.267 -0.007 0.272 -0.007Q0.269 -0.002 0.269 0.004Q0.263 -0.001 0.255 -0.001Q0.257 -0.010 0.266 -0.013ZM0.334 -0.007H0.337L0.340 0.010H0.359L0.370 0.001H0.376L0.370 0.010V0.015L0.376 0.013V0.018Q0.382 0.015 0.384 0.015V0.007H0.379V0.004Q0.380 -0.001 0.384 -0.001V0.004Q0.390 0.004 0.390 -0.004H0.393V0.001H0.396L0.402 -0.001V0.001L0.379 0.029V0.032H0.382L0.393 0.024L0.399 0.027Q0.399 0.019 0.408 0.015V0.013H0.410Q0.410 0.018 0.416 0.018L0.405 0.029Q0.408 0.035 0.408 0.038H0.410Q0.413 0.038 0.413 0.035Q0.416 0.035 0.416 0.038L0.433 0.035Q0.632 0.035 0.669 0.068Q0.682 0.068 0.734 0.125V0.131Q0.724 0.131 0.697 0.156Q0.622 0.088 0.528 0.088H0.483Q0.477 0.089 0.477 0.094V0.097L0.483 0.105H0.477L0.472 0.103Q0.469 0.108 0.469 0.111H0.466Q0.466 0.100 0.449 0.100V0.097L0.463 0.091V0.088H0.461Q0.445 0.091 0.435 0.091Q0.435 0.097 0.433 0.097L0.419 0.094V0.103H0.441V0.105H0.435V0.111H0.449V0.114Q0.441 0.114 0.441 0.128L0.427 0.125V0.139Q0.423 0.139 0.410 0.156Q0.405 0.167 0.396 0.167L0.393 0.181H0.390Q0.390 0.172 0.384 0.172H0.379Q0.373 0.172 0.373 0.184L0.359 0.181H0.345V0.192Q0.341 0.192 0.320 0.184L0.317 0.189Q0.351 0.224 0.351 0.251V0.254H0.348Q0.348 0.236 0.320 0.212H0.315Q0.315 0.215 0.317 0.221L0.315 0.235H0.312Q0.312 0.204 0.292 0.204H0.280Q0.280 0.212 0.275 0.212H0.266V0.204H0.258Q0.252 0.204 0.247 0.235H0.252V0.251L0.269 0.254V0.257H0.261Q0.256 0.257 0.244 0.251L0.241 0.268Q0.255 0.277 0.255 0.288H0.252L0.247 0.285V0.293H0.252Q0.252 0.302 0.244 0.302V0.305Q0.244 0.348 0.295 0.392Q0.295 0.386 0.303 0.378L0.309 0.381H0.312V0.375H0.323V0.389H0.326Q0.336 0.381 0.345 0.381Q0.322 0.400 0.320 0.412L0.340 0.423Q0.346 0.412 0.354 0.412H0.370V0.415Q0.348 0.415 0.348 0.421V0.429L0.362 0.432Q0.362 0.429 0.365 0.429Q0.365 0.440 0.393 0.440V0.437H0.396Q0.398 0.461 0.595 0.474Q0.584 0.520 0.584 0.527Q0.469 0.517 0.469 0.507Q0.469 0.504 0.461 0.499H0.452L0.447 0.501Q0.447 0.487 0.424 0.471H0.413L0.408 0.474Q0.413 0.484 0.413 0.504L0.408 0.501H0.405L0.393 0.510H0.390Q0.390 0.499 0.396 0.474L0.390 0.471H0.387Q0.365 0.474 0.365 0.487Q0.357 0.487 0.312 0.465Q0.312 0.468 0.309 0.468Q0.306 0.463 0.306 0.460H0.298V0.465Q0.329 0.487 0.331 0.499H0.320Q0.292 0.479 0.280 0.448Q0.283 0.448 0.283 0.446Q0.277 0.446 0.241 0.412Q0.238 0.417 0.238 0.426H0.236L0.233 0.412L0.238 0.409Q0.227 0.393 0.227 0.389L0.222 0.392H0.219Q0.222 0.386 0.222 0.383Q0.214 0.365 0.205 0.361L0.208 0.356Q0.208 0.342 0.199 0.342Q0.199 0.339 0.202 0.339Q0.199 0.314 0.194 0.314Q0.194 0.311 0.197 0.311L0.194 0.277Q0.194 0.274 0.197 0.254Q0.179 0.258 0.179 0.263L0.182 0.268H0.179Q0.173 0.268 0.173 0.263Q0.173 0.257 0.197 0.249Q0.206 0.197 0.213 0.186Q0.205 0.174 0.194 0.136H0.208V0.131Q0.205 0.131 0.191 0.128Q0.191 0.131 0.188 0.131Q0.188 0.126 0.173 0.120Q0.176 0.114 0.176 0.111H0.179Q0.179 0.125 0.205 0.125L0.213 0.136Q0.208 0.136 0.202 0.147V0.150Q0.213 0.163 0.213 0.167H0.216Q0.233 0.149 0.233 0.133Q0.230 0.133 0.227 0.120Q0.230 0.120 0.230 0.117L0.222 0.111H0.219V0.120Q0.214 0.120 0.185 0.082Q0.090 0.082 0.090 0.041Q0.087 0.041 0.087 0.035H0.090Q0.094 0.038 0.101 0.038V0.032Q0.101 0.022 0.090 0.007V0.004Q0.095 0.004 0.123 0.054Q0.144 0.060 0.151 0.060Q0.182 0.060 0.182 0.043Q0.182 0.031 0.165 0.029V0.027H0.182Q0.199 0.037 0.222 0.071Q0.222 0.074 0.227 0.074L0.225 0.080H0.236Q0.236 0.075 0.230 0.063Q0.241 0.066 0.250 0.066V0.068H0.238V0.071L0.255 0.085H0.266V0.077H0.261V0.071H0.266V0.060Q0.266 0.054 0.255 0.054Q0.255 0.049 0.264 0.049H0.272V0.046L0.277 0.049H0.283Q0.283 0.046 0.280 0.046L0.286 0.032L0.292 0.035H0.295V0.032Q0.295 0.029 0.292 0.029Q0.295 0.024 0.295 0.021H0.309Q0.309 0.015 0.323 0.010Q0.323 0.003 0.334 0.001ZM0.433 -0.001H0.435Q0.435 0.010 0.449 0.010Q0.449 0.015 0.441 0.015V0.021L0.444 0.027H0.441Q0.436 0.024 0.430 0.024Q0.430 0.027 0.427 0.027Q0.427 0.013 0.419 0.013Q0.422 0.007 0.422 0.004H0.427L0.424 0.010H0.433ZM0.514 0.024H0.517V0.035H0.514ZM0.252 0.068H0.261V0.071H0.252ZM0.219 0.085Q0.222 0.103 0.227 0.103H0.230Q0.236 0.103 0.236 0.097V0.091Q0.230 0.091 0.230 0.085ZM0.252 0.097V0.103H0.261V0.097ZM0.526 0.097Q0.533 0.105 0.542 0.105V0.108Q0.534 0.108 0.534 0.114Q0.537 0.119 0.537 0.122L0.528 0.117L0.520 0.122V0.120Q0.523 0.114 0.523 0.108H0.514V0.105Q0.526 0.105 0.526 0.097ZM0.227 0.105V0.111H0.233V0.105ZM0.233 0.125 0.238 0.128H0.244Q0.244 0.125 0.258 0.105H0.255L0.250 0.108V0.105Q0.233 0.111 0.233 0.125ZM0.463 0.125V0.128Q0.461 0.133 0.461 0.136Q0.466 0.139 0.469 0.139Q0.458 0.149 0.458 0.159H0.455Q0.455 0.147 0.447 0.147Q0.441 0.150 0.438 0.150Q0.438 0.145 0.447 0.145V0.136L0.444 0.131H0.447Q0.451 0.133 0.458 0.133Q0.458 0.125 0.463 0.125ZM0.148 0.133H0.159V0.136H0.148ZM0.742 0.133V0.145Q0.737 0.145 0.705 0.172Q0.702 0.163 0.702 0.161Q0.717 0.147 0.742 0.133ZM0.159 0.136H0.165V0.139H0.159ZM0.143 0.139 0.140 0.153V0.156Q0.140 0.166 0.154 0.181H0.151Q0.144 0.181 0.132 0.172Q0.135 0.139 0.143 0.139ZM0.165 0.139H0.168V0.150Q0.162 0.153 0.159 0.153H0.157V0.150Q0.165 0.150 0.165 0.139ZM0.753 0.153Q0.764 0.170 0.764 0.175Q0.737 0.232 0.737 0.243Q0.733 0.243 0.720 0.192Q0.717 0.192 0.711 0.178Q0.736 0.153 0.753 0.153ZM0.277 0.164Q0.277 0.161 0.275 0.161Q0.280 0.171 0.280 0.175Q0.275 0.176 0.275 0.181V0.186H0.277Q0.279 0.186 0.289 0.184Q0.294 0.186 0.301 0.186V0.181H0.295V0.178H0.301V0.170Q0.295 0.170 0.295 0.159Q0.290 0.159 0.277 0.164ZM0.176 0.164H0.179Q0.185 0.165 0.185 0.170V0.172Q0.179 0.180 0.179 0.184H0.176Q0.176 0.180 0.171 0.172V0.170Q0.172 0.164 0.176 0.164ZM0.438 0.170H0.441V0.175H0.438ZM0.477 0.172H0.483Q0.483 0.181 0.491 0.181H0.494V0.184Q0.486 0.184 0.486 0.192V0.198Q0.472 0.192 0.466 0.178Q0.477 0.178 0.477 0.172ZM0.154 0.181H0.159V0.184H0.154ZM0.767 0.186H0.773L0.745 0.274Q0.748 0.274 0.748 0.277H0.737V0.274Q0.737 0.256 0.767 0.186ZM0.157 0.195H0.159V0.198Q0.145 0.198 0.140 0.224V0.232Q0.140 0.240 0.151 0.240V0.243H0.143Q0.134 0.234 0.132 0.207Q0.147 0.195 0.157 0.195ZM0.176 0.195H0.179Q0.179 0.200 0.185 0.207V0.212H0.176Q0.171 0.212 0.171 0.207Q0.176 0.200 0.176 0.195ZM0.773 0.210H0.778V0.212Q0.775 0.224 0.770 0.224V0.221Q0.773 0.215 0.773 0.210ZM0.157 0.226H0.168V0.238H0.165Q0.165 0.229 0.157 0.229ZM0.286 0.226H0.292Q0.286 0.233 0.286 0.240H0.283Q0.283 0.234 0.280 0.229ZM0.368 0.226H0.370V0.232H0.368ZM0.781 0.229V0.238Q0.767 0.275 0.767 0.277H0.750Q0.777 0.230 0.781 0.229ZM0.370 0.232Q0.390 0.253 0.413 0.299L0.433 0.305Q0.444 0.293 0.444 0.282H0.447L0.455 0.330Q0.451 0.356 0.435 0.356Q0.413 0.356 0.370 0.232ZM0.157 0.240H0.162V0.243H0.157ZM0.286 0.240H0.292V0.243H0.286ZM0.301 0.240H0.306V0.243H0.301ZM0.399 0.243H0.402V0.249H0.399ZM0.269 0.257H0.275Q0.275 0.260 0.277 0.265Q0.272 0.268 0.269 0.268H0.266V0.265H0.272V0.263ZM0.424 0.257H0.427V0.263H0.424ZM0.776 0.271H0.778V0.277H0.776ZM0.151 0.302V0.308H0.146Q0.147 0.302 0.151 0.302ZM0.261 0.302Q0.266 0.303 0.266 0.308H0.261ZM0.140 0.308H0.146V0.311H0.140ZM0.154 0.308H0.159V0.311H0.154ZM0.162 0.308H0.168V0.311H0.162ZM0.191 0.322H0.197V0.325H0.191ZM0.143 0.328H0.148Q0.148 0.333 0.143 0.333ZM0.176 0.328Q0.182 0.328 0.182 0.333L0.173 0.339V0.336Q0.176 0.331 0.176 0.328ZM0.126 0.333H0.129Q0.129 0.336 0.132 0.342H0.129Q0.123 0.339 0.120 0.339Q0.121 0.333 0.126 0.333ZM0.112 0.339H0.118V0.342H0.112ZM0.194 0.342H0.199V0.344H0.194ZM0.140 0.347H0.143V0.356H0.132V0.353Q0.140 0.353 0.140 0.347ZM0.173 0.347 0.171 0.353Q0.173 0.357 0.173 0.364H0.171Q0.148 0.357 0.148 0.350Q0.163 0.350 0.173 0.347ZM0.902 0.350V0.353Q0.888 0.369 0.888 0.375H0.885Q0.885 0.369 0.882 0.364Q0.887 0.364 0.902 0.350ZM0.277 0.356H0.292V0.358H0.277ZM0.191 0.358H0.194V0.369H0.188Q0.191 0.365 0.191 0.358ZM0.173 0.367H0.176Q0.176 0.381 0.188 0.381V0.383H0.182Q0.170 0.375 0.162 0.375V0.372Q0.173 0.372 0.173 0.367ZM0.194 0.369H0.199V0.372H0.194ZM0.148 0.372V0.375Q0.148 0.379 0.134 0.389H0.129Q0.136 0.377 0.148 0.372ZM0.211 0.375H0.216V0.378H0.211ZM0.101 0.378H0.107V0.383Q0.101 0.383 0.101 0.378ZM0.345 0.378H0.351V0.381H0.345ZM0.882 0.378V0.381Q0.872 0.403 0.868 0.403L0.855 0.400V0.403Q0.850 0.400 0.841 0.400V0.397H0.857V0.392H0.860V0.397H0.868Q0.876 0.378 0.882 0.378ZM0.112 0.381H0.123V0.383H0.112ZM0.309 0.383Q0.309 0.389 0.301 0.389V0.395L0.315 0.397L0.320 0.389V0.386Q0.314 0.386 0.309 0.383ZM0.188 0.383H0.191Q0.198 0.395 0.202 0.395V0.397H0.191Q0.191 0.389 0.188 0.383ZM0.162 0.389H0.165V0.395H0.162ZM0.370 0.389Q0.393 0.389 0.399 0.412Q0.404 0.412 0.413 0.429Q0.410 0.434 0.410 0.437H0.408Q0.393 0.397 0.362 0.397L0.343 0.403V0.397ZM0.132 0.397H0.134V0.406H0.132ZM0.120 0.400H0.123V0.406H0.120ZM0.146 0.400H0.148V0.406H0.146ZM0.832 0.400H0.841V0.403H0.832ZM0.885 0.400V0.406H0.880Q0.881 0.400 0.885 0.400ZM0.827 0.403H0.832V0.406H0.827ZM0.148 0.406Q0.154 0.409 0.157 0.409V0.412H0.148ZM0.159 0.412H0.165Q0.162 0.418 0.162 0.421H0.159ZM0.202 0.412Q0.206 0.412 0.211 0.421H0.208Q0.202 0.421 0.202 0.415ZM0.843 0.412H0.846V0.418H0.843ZM0.118 0.415H0.120V0.423H0.118ZM0.222 0.415H0.225V0.423Q0.222 0.428 0.222 0.435Q0.226 0.435 0.233 0.440H0.238V0.435Q0.244 0.437 0.247 0.437V0.440H0.241V0.448Q0.255 0.448 0.266 0.501Q0.260 0.527 0.252 0.527V0.525Q0.258 0.514 0.258 0.501V0.499H0.255L0.247 0.504Q0.247 0.501 0.244 0.496Q0.250 0.486 0.250 0.474H0.241V0.482H0.238Q0.237 0.454 0.216 0.454V0.460L0.219 0.465H0.216L0.211 0.462V0.471Q0.225 0.471 0.233 0.485H0.216V0.487Q0.236 0.500 0.236 0.504H0.222V0.513Q0.247 0.513 0.247 0.530H0.238Q0.222 0.530 0.205 0.519Q0.208 0.513 0.208 0.510Q0.208 0.509 0.194 0.487Q0.197 0.484 0.197 0.474Q0.194 0.474 0.191 0.465H0.194Q0.194 0.457 0.182 0.457V0.454H0.197V0.440Q0.202 0.440 0.202 0.426Q0.208 0.426 0.208 0.435H0.216ZM0.812 0.418H0.815V0.423H0.812ZM0.157 0.423H0.159V0.432H0.157ZM0.188 0.423H0.191V0.432H0.188ZM0.809 0.423H0.812V0.429H0.809ZM0.806 0.429H0.809V0.437H0.806ZM0.835 0.429H0.838V0.435H0.835ZM0.146 0.435H0.157V0.437H0.146ZM0.168 0.435Q0.173 0.435 0.179 0.446H0.176Q0.173 0.446 0.168 0.437ZM0.202 0.448Q0.202 0.454 0.208 0.454Q0.212 0.451 0.219 0.451V0.440H0.213Q0.206 0.448 0.202 0.448ZM0.222 0.446V0.448H0.227V0.440Q0.222 0.441 0.222 0.446ZM0.803 0.437H0.806V0.465H0.801ZM0.832 0.437H0.835V0.443H0.832ZM0.247 0.440H0.258Q0.258 0.446 0.252 0.446Q0.247 0.446 0.247 0.440ZM0.159 0.443V0.448Q0.159 0.454 0.154 0.454Q0.154 0.451 0.151 0.446Q0.154 0.446 0.159 0.443ZM0.849 0.443H0.852V0.448H0.849ZM0.829 0.446H0.832V0.451L0.841 0.446V0.448Q0.829 0.469 0.829 0.479H0.827V0.468Q0.829 0.448 0.829 0.446ZM0.140 0.448H0.151V0.451H0.140ZM0.846 0.448H0.849V0.454H0.846ZM0.857 0.451H0.860V0.457H0.857ZM0.264 0.454H0.266V0.462H0.264ZM0.843 0.457H0.846V0.462H0.843ZM0.855 0.460H0.857V0.465H0.855ZM0.140 0.462H0.146V0.465H0.140ZM0.841 0.465H0.843V0.471H0.841ZM0.852 0.468H0.855V0.474H0.852ZM0.162 0.471H0.168Q0.168 0.476 0.162 0.476ZM0.838 0.471H0.841V0.479H0.838ZM0.604 0.476Q0.610 0.479 0.613 0.479L0.610 0.513V0.533L0.592 0.530Q0.598 0.494 0.604 0.476ZM0.798 0.476H0.801Q0.801 0.496 0.803 0.496H0.806V0.499Q0.801 0.499 0.801 0.501V0.522H0.798Q0.798 0.504 0.795 0.504Q0.798 0.504 0.798 0.476ZM0.849 0.476H0.852V0.482H0.849ZM0.384 0.479V0.490L0.382 0.496Q0.377 0.493 0.370 0.493Q0.370 0.486 0.384 0.479ZM0.419 0.479H0.422Q0.435 0.487 0.441 0.507H0.424ZM0.835 0.479H0.838V0.487H0.835ZM0.185 0.482H0.191Q0.188 0.487 0.188 0.490H0.185ZM0.621 0.482Q0.632 0.487 0.641 0.487V0.544Q0.618 0.539 0.618 0.533V0.510ZM0.233 0.485H0.238V0.487H0.233ZM0.846 0.485H0.849V0.490H0.846ZM0.173 0.487H0.176V0.504H0.173ZM0.832 0.487H0.835V0.496Q0.827 0.516 0.815 0.566H0.812V0.541Q0.821 0.541 0.832 0.487ZM0.649 0.493H0.652Q0.660 0.493 0.660 0.553V0.555Q0.649 0.551 0.649 0.547ZM0.843 0.493H0.846V0.499H0.843ZM0.345 0.496H0.351V0.499H0.345ZM0.382 0.499V0.510L0.368 0.513L0.362 0.510Q0.362 0.503 0.382 0.499ZM0.666 0.501H0.669V0.519H0.666ZM0.806 0.501H0.809V0.513H0.806ZM0.841 0.504H0.843V0.510H0.841ZM0.452 0.507H0.461L0.463 0.513H0.461Q0.455 0.510 0.452 0.510ZM0.677 0.507Q0.685 0.510 0.685 0.513Q0.685 0.544 0.694 0.544Q0.700 0.544 0.705 0.522H0.708Q0.708 0.528 0.714 0.533Q0.714 0.543 0.699 0.589H0.697Q0.688 0.575 0.683 0.575Q0.683 0.559 0.677 0.507ZM0.787 0.510H0.789V0.516H0.787ZM0.277 0.513H0.280V0.519H0.277ZM0.784 0.516H0.787V0.527H0.784ZM0.669 0.519H0.671Q0.671 0.548 0.674 0.564H0.669ZM0.694 0.519H0.697V0.525H0.694ZM0.275 0.522H0.277V0.527H0.275ZM0.320 0.525Q0.337 0.529 0.337 0.533H0.334L0.329 0.530Q0.325 0.530 0.309 0.547Q0.303 0.550 0.298 0.550H0.289V0.547Q0.299 0.525 0.320 0.525ZM0.343 0.525H0.345Q0.364 0.536 0.379 0.536V0.553Q0.364 0.558 0.362 0.558H0.359V0.555H0.365V0.550H0.356L0.348 0.555H0.340L0.351 0.541ZM0.809 0.525H0.812V0.541H0.809ZM0.725 0.527Q0.737 0.529 0.737 0.533L0.731 0.544H0.739V0.547L0.734 0.555Q0.737 0.556 0.745 0.569Q0.750 0.566 0.753 0.566V0.564L0.750 0.558H0.756V0.569Q0.753 0.569 0.748 0.572L0.773 0.620H0.770Q0.773 0.626 0.773 0.629H0.776V0.620L0.773 0.614Q0.780 0.614 0.781 0.600H0.787V0.589H0.781V0.580L0.787 0.583V0.572H0.789V0.597H0.795V0.589H0.798V0.597Q0.789 0.618 0.781 0.629L0.792 0.640L0.787 0.665H0.784V0.657H0.781V0.665Q0.784 0.665 0.784 0.668H0.781L0.784 0.673V0.682Q0.784 0.715 0.798 0.727Q0.792 0.734 0.792 0.738H0.789L0.784 0.736Q0.784 0.751 0.778 0.780L0.789 0.772L0.801 0.786L0.789 0.794L0.778 0.786H0.776Q0.770 0.809 0.770 0.811Q0.773 0.811 0.773 0.814Q0.767 0.817 0.737 0.868Q0.680 0.929 0.624 0.952Q0.618 0.955 0.613 0.955Q0.613 0.945 0.592 0.923Q0.606 0.921 0.624 0.898Q0.652 0.886 0.688 0.845H0.685Q0.685 0.849 0.677 0.854Q0.673 0.854 0.666 0.842Q0.671 0.842 0.674 0.819L0.680 0.816H0.688Q0.697 0.819 0.697 0.834H0.699L0.702 0.822Q0.696 0.814 0.691 0.814Q0.691 0.808 0.699 0.808V0.802Q0.694 0.802 0.688 0.805Q0.674 0.801 0.674 0.789Q0.677 0.777 0.691 0.777Q0.702 0.780 0.702 0.791Q0.699 0.797 0.699 0.800L0.714 0.811Q0.723 0.791 0.723 0.786Q0.720 0.786 0.720 0.783Q0.734 0.783 0.734 0.738L0.731 0.727Q0.734 0.722 0.734 0.715H0.728L0.725 0.727H0.723Q0.723 0.710 0.708 0.704V0.727H0.705Q0.702 0.717 0.702 0.715L0.683 0.733H0.677Q0.677 0.718 0.669 0.710V0.707Q0.671 0.707 0.680 0.704Q0.680 0.709 0.691 0.715H0.697V0.704H0.691V0.701Q0.705 0.687 0.705 0.682H0.708V0.693H0.714Q0.714 0.684 0.725 0.684L0.737 0.690V0.687Q0.737 0.684 0.725 0.668L0.734 0.662Q0.731 0.658 0.731 0.651L0.725 0.654H0.723Q0.712 0.654 0.705 0.645Q0.708 0.626 0.723 0.626Q0.714 0.603 0.705 0.603ZM0.781 0.527H0.784V0.541H0.781ZM0.247 0.530H0.250V0.536H0.247ZM0.801 0.530H0.803V0.566Q0.801 0.582 0.801 0.589H0.798V0.586Q0.801 0.566 0.801 0.530ZM0.272 0.533H0.275V0.553H0.272ZM0.326 0.539Q0.337 0.542 0.337 0.547L0.326 0.553ZM0.199 0.555H0.225V0.558Q0.201 0.558 0.199 0.561ZM0.390 0.555H0.393Q0.400 0.561 0.405 0.561V0.564L0.390 0.566ZM0.778 0.555H0.781Q0.781 0.580 0.778 0.580H0.767V0.578H0.778ZM0.289 0.561H0.292Q0.309 0.575 0.312 0.575V0.569L0.309 0.564H0.317Q0.321 0.564 0.340 0.586Q0.337 0.586 0.337 0.589Q0.340 0.589 0.340 0.592H0.337L0.315 0.578Q0.309 0.580 0.303 0.580L0.289 0.564ZM0.337 0.566H0.340Q0.342 0.566 0.356 0.578H0.362V0.575L0.359 0.569H0.362Q0.372 0.578 0.379 0.578V0.580H0.368L0.370 0.586L0.354 0.589L0.337 0.569ZM0.373 0.566H0.382V0.578H0.379Q0.379 0.574 0.373 0.566ZM0.652 0.578H0.660V0.580H0.652ZM0.762 0.583H0.764Q0.764 0.588 0.770 0.594H0.767Q0.762 0.594 0.762 0.586ZM0.283 0.594Q0.291 0.594 0.298 0.620Q0.302 0.620 0.309 0.632H0.306Q0.283 0.616 0.283 0.594ZM0.671 0.603H0.674L0.677 0.617V0.620H0.674L0.671 0.608ZM0.638 0.605H0.641V0.611H0.638ZM0.649 0.611Q0.654 0.614 0.658 0.614V0.617H0.649ZM0.674 0.629H0.677Q0.677 0.633 0.683 0.640Q0.683 0.645 0.677 0.645Q0.671 0.645 0.671 0.637Q0.674 0.632 0.674 0.629ZM0.646 0.632H0.658V0.634Q0.649 0.634 0.649 0.643H0.646ZM0.309 0.640H0.312Q0.329 0.646 0.329 0.651L0.323 0.654Q0.319 0.654 0.309 0.640ZM0.644 0.657H0.646V0.665H0.644ZM0.666 0.657H0.669V0.665H0.666ZM0.697 0.659Q0.697 0.663 0.705 0.668Q0.705 0.678 0.677 0.682V0.684L0.680 0.690H0.674V0.682Q0.674 0.678 0.691 0.673Q0.691 0.671 0.694 0.671L0.691 0.665Q0.692 0.659 0.697 0.659ZM0.646 0.665H0.652V0.668H0.646ZM0.708 0.676H0.711V0.682H0.708ZM0.734 0.707V0.712H0.737V0.707ZM0.194 0.710H0.199Q0.199 0.736 0.247 0.769H0.241Q0.197 0.769 0.197 0.741Q0.194 0.721 0.194 0.710ZM0.208 0.710H0.236V0.715Q0.236 0.727 0.241 0.752H0.238Q0.225 0.752 0.208 0.710ZM0.818 0.744 0.829 0.758Q0.821 0.758 0.821 0.766H0.818Q0.813 0.766 0.806 0.755Q0.806 0.750 0.818 0.744ZM0.871 0.744Q0.875 0.744 0.885 0.758L0.874 0.766Q0.870 0.766 0.863 0.755Q0.871 0.748 0.871 0.744ZM0.685 0.747H0.688Q0.693 0.747 0.697 0.755V0.763Q0.697 0.767 0.683 0.775Q0.669 0.770 0.669 0.758Q0.671 0.747 0.685 0.747ZM0.202 0.769Q0.248 0.779 0.255 0.783V0.786L0.208 0.794Q0.202 0.784 0.202 0.772ZM0.846 0.775Q0.850 0.775 0.857 0.786L0.846 0.794Q0.841 0.794 0.835 0.783ZM0.902 0.775Q0.907 0.775 0.913 0.786L0.902 0.794Q0.898 0.794 0.891 0.783ZM0.252 0.794H0.261V0.797H0.252ZM0.247 0.797H0.252V0.800Q0.243 0.800 0.216 0.819Q0.213 0.811 0.213 0.802Q0.235 0.797 0.247 0.797ZM0.815 0.802H0.818Q0.822 0.802 0.829 0.814L0.815 0.825L0.806 0.814V0.811Q0.806 0.807 0.815 0.802ZM0.874 0.802Q0.879 0.802 0.885 0.814L0.874 0.822Q0.870 0.822 0.863 0.811ZM0.261 0.805Q0.266 0.806 0.266 0.811Q0.261 0.822 0.261 0.828Q0.272 0.856 0.295 0.856Q0.295 0.866 0.329 0.890L0.326 0.904V0.912Q0.305 0.912 0.301 0.921Q0.275 0.901 0.272 0.901L0.275 0.895V0.884Q0.275 0.861 0.236 0.856Q0.222 0.829 0.222 0.825Q0.250 0.805 0.261 0.805ZM0.269 0.822Q0.275 0.822 0.280 0.842Q0.273 0.842 0.269 0.822ZM0.789 0.831Q0.789 0.840 0.801 0.840Q0.801 0.843 0.787 0.854L0.778 0.842Q0.778 0.838 0.789 0.831ZM0.846 0.831Q0.850 0.831 0.857 0.842L0.843 0.854Q0.843 0.848 0.835 0.840ZM0.818 0.859Q0.818 0.868 0.829 0.868Q0.829 0.871 0.815 0.881L0.806 0.870Q0.806 0.866 0.818 0.859ZM0.250 0.870Q0.266 0.872 0.266 0.879V0.890Q0.263 0.890 0.250 0.873ZM0.337 0.895Q0.339 0.895 0.376 0.915H0.390Q0.387 0.954 0.387 0.963H0.384L0.373 0.960V0.958Q0.387 0.942 0.387 0.923Q0.387 0.918 0.382 0.918H0.373Q0.355 0.944 0.331 0.944Q0.331 0.937 0.317 0.935V0.932Q0.334 0.932 0.334 0.923L0.331 0.918L0.337 0.915L0.334 0.901ZM0.590 0.912H0.595V0.915H0.590ZM0.579 0.915H0.587V0.918H0.579ZM0.399 0.918Q0.405 0.921 0.408 0.921V0.944L0.410 0.958Q0.405 0.958 0.396 0.963V0.960Q0.399 0.925 0.399 0.918ZM0.570 0.918H0.579Q0.579 0.923 0.573 0.923H0.570ZM0.416 0.923H0.419Q0.419 0.966 0.449 0.966L0.461 0.977H0.458Q0.431 0.974 0.408 0.969V0.966Q0.411 0.966 0.419 0.960Q0.419 0.958 0.416 0.938ZM0.373 0.926H0.379V0.929Q0.376 0.935 0.376 0.938L0.370 0.935Q0.373 0.929 0.373 0.926ZM0.441 0.926H0.444Q0.523 0.934 0.523 0.952Q0.526 0.956 0.526 0.966Q0.521 0.977 0.517 0.977H0.509Q0.503 0.977 0.503 0.972L0.512 0.960V0.958Q0.512 0.947 0.455 0.941Q0.441 0.929 0.441 0.926ZM0.565 0.929Q0.598 0.937 0.598 0.963Q0.556 0.974 0.531 0.977L0.534 0.963Q0.534 0.961 0.531 0.941Q0.546 0.929 0.565 0.929ZM0.359 0.944H0.362L0.365 0.955H0.362L0.351 0.952Q0.351 0.948 0.359 0.944ZM0.463 0.952H0.483V0.955H0.463ZM0.494 0.966Q0.494 0.975 0.497 0.980H0.483Q0.468 0.980 0.466 0.972V0.969H0.488Z" fill="black"/>
</svg>
