<svg xmlns="http://www.w3.org/2000/svg" viewBox="0 0 1 1" preserveAspectRatio="xMidYMid meet">
  <path d="M0.469 -0.101Q0.469 -0.085 0.472 -0.056H0.464V-0.095Q0.464 -0.101 0.469 -0.101ZM0.509 -0.093H0.514Q0.511 -0.089 0.509 -0.053H0.497Q0.509 -0.085 0.509 -0.093ZM0.421 -0.087Q0.427 -0.086 0.438 -0.059V-0.048Q0.432 -0.048 0.432 -0.045Q0.432 -0.039 0.438 -0.013V-0.005H0.435ZM0.365 -0.076V-0.033Q0.406 0.001 0.410 0.009V0.012L0.382 -0.011H0.379V-0.005Q0.386 -0.005 0.393 0.009V0.012H0.387L0.371 -0.016H0.365V-0.013Q0.365 -0.011 0.368 -0.011L0.365 -0.005V0.006L0.376 0.017H0.373Q0.364 0.012 0.360 0.012V0.015L0.362 0.020H0.357V0.009Q0.357 0.002 0.348 -0.025V-0.067Q0.348 -0.073 0.365 -0.076ZM0.379 -0.076H0.385Q0.385 -0.071 0.407 -0.039V-0.036Q0.401 -0.036 0.401 -0.030H0.399Q0.399 -0.034 0.379 -0.076ZM0.553 -0.076V-0.073Q0.536 -0.036 0.536 -0.030H0.534V-0.036H0.531L0.525 -0.033V-0.036Q0.551 -0.076 0.553 -0.076ZM0.591 -0.051V-0.048Q0.566 -0.013 0.559 -0.011V-0.016H0.556L0.548 -0.011V-0.019Q0.556 -0.019 0.591 -0.051ZM0.438 -0.048H0.441V-0.039H0.438ZM0.461 -0.048H0.464Q0.464 -0.039 0.469 -0.039V-0.036H0.464V-0.013L0.461 0.001H0.458Q0.452 0.001 0.452 -0.005H0.458Q0.458 -0.019 0.461 -0.048ZM0.469 -0.048H0.472V-0.039H0.469ZM0.506 -0.045Q0.503 -0.033 0.503 -0.022H0.500V-0.042ZM0.492 -0.042H0.495V-0.033H0.492ZM0.441 -0.039H0.444V-0.030H0.441ZM0.407 -0.036Q0.421 -0.024 0.421 -0.013Q0.407 -0.026 0.407 -0.036ZM0.475 -0.036Q0.475 -0.027 0.478 -0.027L0.475 -0.022V-0.005H0.481Q0.483 -0.025 0.489 -0.025V-0.022L0.478 0.015H0.475Q0.469 -0.030 0.469 -0.033ZM0.489 -0.033H0.492V-0.025H0.489ZM0.525 -0.033V-0.030Q0.525 -0.025 0.520 -0.025V-0.027Q0.521 -0.033 0.525 -0.033ZM0.444 -0.030H0.447Q0.452 -0.013 0.452 -0.008V-0.005H0.449Q0.449 -0.010 0.444 -0.027ZM0.531 -0.030H0.534V-0.025H0.531ZM0.520 -0.025V-0.022Q0.516 -0.011 0.511 -0.011V-0.013Q0.516 -0.025 0.520 -0.025ZM0.528 -0.025H0.531V-0.019H0.528ZM0.822 -0.025Q0.827 -0.024 0.827 -0.019L0.813 -0.016Q0.808 -0.019 0.805 -0.019Q0.793 -0.013 0.788 -0.013Q0.788 -0.025 0.822 -0.025ZM0.892 -0.025H0.906V-0.022Q0.900 -0.022 0.900 -0.019Q0.895 -0.022 0.892 -0.022ZM0.404 -0.022H0.407V-0.016H0.404ZM0.497 -0.022H0.500V-0.005H0.497ZM0.525 -0.019H0.528V-0.013Q0.525 -0.008 0.525 -0.005H0.522V-0.011Q0.525 -0.016 0.525 -0.019ZM0.314 -0.016Q0.340 -0.002 0.348 -0.002V0.012Q0.320 -0.011 0.314 -0.011ZM0.407 -0.016H0.410Q0.410 -0.011 0.418 0.003H0.413L0.407 -0.013ZM0.618 -0.016V-0.013L0.585 0.015V0.017H0.666L0.658 0.029V0.037H0.767Q0.770 0.037 0.770 0.040Q0.789 0.031 0.796 0.031L0.790 0.040Q0.791 0.045 0.796 0.045Q0.793 0.058 0.782 0.059Q0.782 0.048 0.773 0.048H0.770V0.088H0.712V0.094H0.703V0.091H0.709V0.088H0.703Q0.698 0.088 0.698 0.091L0.678 0.088H0.652V0.091H0.658Q0.655 0.095 0.655 0.105H0.649V0.102Q0.649 0.071 0.641 0.071Q0.637 0.071 0.618 0.111L0.582 0.105V0.102Q0.599 0.082 0.599 0.071V0.062Q0.599 0.039 0.568 0.031Q0.550 0.031 0.534 0.048V0.026Q0.565 0.012 0.568 0.012V0.017H0.574Q0.577 0.017 0.582 0.009H0.574V0.006Q0.580 0.006 0.618 -0.016ZM0.421 -0.013Q0.427 -0.013 0.427 -0.008V-0.005Q0.421 -0.005 0.421 -0.011ZM0.748 -0.013H0.756Q0.756 -0.008 0.751 -0.008H0.748ZM0.841 -0.013H0.844Q0.849 -0.013 0.849 -0.008H0.847Q0.841 -0.008 0.841 -0.013ZM0.511 -0.011V-0.008Q0.511 -0.002 0.506 -0.002V-0.005Q0.507 -0.011 0.511 -0.011ZM0.545 -0.011H0.548Q0.548 -0.007 0.525 0.012H0.522Q0.522 0.008 0.545 -0.011ZM0.559 -0.011V-0.008Q0.559 -0.004 0.551 0.001V-0.002Q0.551 -0.007 0.559 -0.011ZM0.745 -0.008H0.748Q0.748 -0.005 0.751 0.001L0.770 -0.002H0.779V0.001Q0.728 0.010 0.728 0.026Q0.710 0.034 0.695 0.034V0.031Q0.695 0.017 0.684 0.017V0.015Q0.710 0.015 0.717 -0.002L0.723 0.001H0.740Q0.745 0.001 0.745 -0.008ZM0.495 -0.005H0.497V0.001H0.500L0.506 -0.002V0.001Q0.506 0.006 0.500 0.006H0.495ZM0.520 -0.005H0.522V0.001H0.520ZM0.517 0.001H0.520V0.006H0.517ZM0.432 0.003H0.441Q0.441 0.013 0.444 0.017H0.438Q0.438 0.013 0.432 0.006ZM0.548 0.003V0.006Q0.548 0.010 0.539 0.015V0.012Q0.539 0.007 0.548 0.003ZM0.568 0.009H0.574V0.012H0.568ZM0.393 0.012Q0.407 0.019 0.407 0.034H0.404Q0.387 0.027 0.387 0.023H0.390Q0.395 0.026 0.401 0.026L0.393 0.015ZM0.418 0.012Q0.425 0.012 0.427 0.026Q0.423 0.026 0.418 0.017ZM0.793 0.012H0.799V0.015H0.793ZM0.514 0.015 0.517 0.020 0.509 0.026H0.506Q0.510 0.015 0.514 0.015ZM0.788 0.015H0.793V0.017H0.788ZM0.858 0.015H0.863V0.017H0.858ZM0.376 0.017H0.382V0.020H0.376ZM0.830 0.017H0.847V0.023Q0.840 0.023 0.835 0.026Q0.831 0.023 0.824 0.023Q0.825 0.017 0.830 0.017ZM0.362 0.020H0.365Q0.369 0.020 0.373 0.029H0.371Q0.366 0.029 0.362 0.020ZM0.382 0.020H0.387V0.023H0.382ZM0.314 0.029H0.319V0.031H0.314ZM0.373 0.029H0.376L0.387 0.037H0.407Q0.407 0.052 0.452 0.079Q0.456 0.094 0.461 0.094H0.464L0.478 0.082H0.481V0.102Q0.481 0.113 0.495 0.127Q0.490 0.127 0.464 0.141Q0.452 0.119 0.432 0.119Q0.428 0.119 0.407 0.130V0.125H0.401V0.130H0.393Q0.399 0.119 0.407 0.119Q0.407 0.068 0.379 0.068H0.368Q0.357 0.068 0.340 0.085Q0.340 0.072 0.314 0.068H0.303Q0.290 0.068 0.275 0.088H0.190V0.068Q0.184 0.040 0.162 0.040H0.154Q0.130 0.040 0.123 0.074V0.088H0.094V0.037H0.286Q0.302 0.037 0.325 0.040L0.342 0.034L0.360 0.037H0.379ZM0.520 0.031H0.525V0.034Q0.525 0.066 0.481 0.071Q0.478 0.071 0.464 0.082H0.461Q0.456 0.067 0.418 0.045Q0.418 0.042 0.415 0.037H0.500Q0.507 0.037 0.511 0.034H0.520ZM0.830 0.031H0.835V0.034H0.830ZM0.565 0.040Q0.591 0.044 0.591 0.065V0.068Q0.591 0.074 0.568 0.113Q0.565 0.119 0.565 0.122L0.548 0.119Q0.533 0.122 0.525 0.122Q0.525 0.116 0.520 0.116Q0.504 0.119 0.497 0.119Q0.489 0.108 0.489 0.099V0.088Q0.499 0.071 0.514 0.071Q0.527 0.075 0.536 0.082L0.542 0.079L0.539 0.074V0.065Q0.543 0.040 0.565 0.040ZM0.156 0.048H0.168Q0.182 0.056 0.182 0.071V0.082Q0.182 0.088 0.176 0.088H0.131V0.079Q0.131 0.048 0.156 0.048ZM0.531 0.048H0.534V0.054H0.531ZM0.531 0.057V0.068Q0.526 0.065 0.522 0.065Q0.522 0.061 0.531 0.057ZM0.827 0.062H0.833V0.065H0.827ZM0.785 0.071 0.788 0.077H0.779Q0.780 0.071 0.785 0.071ZM0.305 0.077H0.314Q0.328 0.077 0.337 0.094L0.334 0.099V0.102H0.340Q0.357 0.077 0.371 0.077H0.376Q0.396 0.077 0.396 0.097V0.105Q0.396 0.113 0.379 0.113V0.111L0.362 0.113Q0.346 0.111 0.340 0.111L0.342 0.105H0.337L0.334 0.119Q0.337 0.119 0.337 0.122H0.328L0.317 0.113Q0.302 0.116 0.294 0.116H0.289V0.113Q0.308 0.113 0.319 0.088H0.289V0.085Q0.291 0.077 0.305 0.077ZM0.599 0.088V0.091H0.618V0.088ZM0.638 0.088H0.641Q0.641 0.094 0.644 0.119Q0.627 0.116 0.627 0.113Q0.638 0.093 0.638 0.088ZM0.723 0.094H0.740V0.097H0.723ZM0.692 0.105Q0.698 0.105 0.698 0.111Q0.698 0.116 0.692 0.116H0.686Q0.692 0.109 0.692 0.105ZM0.373 0.116H0.379V0.119H0.373ZM0.574 0.116H0.577Q0.579 0.116 0.602 0.141V0.147H0.599Q0.571 0.138 0.568 0.138L0.574 0.130ZM0.591 0.116H0.599L0.613 0.119L0.610 0.136Q0.605 0.136 0.591 0.116ZM0.681 0.116H0.686V0.119H0.681ZM0.745 0.116V0.125L0.728 0.127Q0.728 0.120 0.745 0.116ZM0.793 0.116H0.802V0.119H0.793ZM0.373 0.119Q0.373 0.125 0.354 0.130Q0.354 0.125 0.373 0.119ZM0.788 0.119H0.793V0.122H0.788ZM0.646 0.122Q0.652 0.125 0.660 0.125V0.127L0.646 0.130ZM0.432 0.127Q0.458 0.133 0.458 0.155L0.455 0.169Q0.461 0.172 0.464 0.172L0.461 0.207V0.212H0.458L0.438 0.209Q0.433 0.212 0.427 0.212Q0.427 0.195 0.407 0.161V0.150L0.413 0.138Q0.410 0.138 0.410 0.136Q0.432 0.130 0.432 0.127ZM0.545 0.127H0.551V0.130H0.545ZM0.348 0.130H0.354V0.133H0.348ZM0.553 0.130H0.562V0.133H0.553ZM0.348 0.133 0.345 0.138 0.348 0.144Q0.338 0.147 0.337 0.147L0.334 0.141Q0.334 0.135 0.348 0.133ZM0.514 0.133H0.517Q0.531 0.140 0.531 0.144Q0.525 0.144 0.525 0.150H0.522Q0.522 0.146 0.514 0.133ZM0.539 0.133H0.542Q0.546 0.133 0.571 0.161H0.568Q0.564 0.161 0.539 0.133ZM0.562 0.133H0.568V0.136H0.562ZM0.360 0.136H0.365V0.138H0.360ZM0.387 0.138H0.390Q0.390 0.143 0.373 0.155H0.371Q0.371 0.152 0.387 0.138ZM0.322 0.144H0.325Q0.331 0.145 0.331 0.150L0.325 0.152L0.322 0.147ZM0.500 0.144H0.503Q0.545 0.192 0.548 0.192V0.186Q0.553 0.186 0.574 0.229L0.509 0.158V0.169H0.506Q0.506 0.163 0.500 0.144ZM0.531 0.144H0.534Q0.539 0.145 0.539 0.150H0.536Q0.531 0.150 0.531 0.144ZM0.613 0.147Q0.630 0.154 0.630 0.158H0.624Q0.615 0.152 0.607 0.152Q0.608 0.147 0.613 0.147ZM0.483 0.150Q0.489 0.151 0.489 0.155V0.158H0.483ZM0.525 0.150Q0.531 0.151 0.531 0.155V0.158Q0.525 0.158 0.525 0.152ZM0.539 0.150H0.542Q0.546 0.150 0.551 0.158H0.548Q0.544 0.158 0.539 0.150ZM0.467 0.152H0.469V0.161H0.467ZM0.531 0.158Q0.538 0.158 0.539 0.172Q0.533 0.172 0.531 0.158ZM0.551 0.158H0.553Q0.559 0.159 0.559 0.164H0.556Q0.551 0.164 0.551 0.158ZM0.376 0.161V0.166H0.371Q0.371 0.161 0.376 0.161ZM0.571 0.161Q0.574 0.161 0.585 0.175V0.181H0.582L0.568 0.172Q0.571 0.167 0.571 0.161ZM0.362 0.164Q0.362 0.169 0.368 0.169V0.172Q0.363 0.172 0.357 0.178Q0.357 0.175 0.354 0.175Q0.342 0.191 0.328 0.198V0.195Q0.328 0.192 0.362 0.164ZM0.559 0.164H0.562Q0.568 0.165 0.568 0.169H0.565Q0.559 0.169 0.559 0.164ZM0.399 0.166V0.172H0.393Q0.394 0.166 0.399 0.166ZM0.483 0.166H0.486L0.489 0.186V0.218H0.481V0.215H0.486V0.201Q0.486 0.189 0.483 0.169ZM0.469 0.169H0.472Q0.478 0.191 0.478 0.195V0.201H0.475L0.469 0.172ZM0.495 0.169H0.497V0.175H0.495ZM0.539 0.172Q0.545 0.173 0.545 0.178V0.181Q0.539 0.181 0.539 0.175ZM0.497 0.175H0.500V0.181H0.497ZM0.387 0.178H0.390V0.184H0.387ZM0.500 0.181H0.503V0.186H0.500ZM0.545 0.181H0.548V0.186H0.545ZM0.385 0.184H0.387V0.192L0.399 0.184V0.186Q0.365 0.224 0.365 0.229H0.362V0.220Q0.385 0.192 0.385 0.184ZM0.514 0.184H0.517V0.195H0.514ZM0.596 0.184Q0.607 0.196 0.607 0.198H0.604Q0.595 0.189 0.591 0.189Q0.591 0.184 0.596 0.184ZM0.503 0.186H0.506V0.192H0.503ZM0.413 0.192H0.415L0.418 0.212V0.218Q0.410 0.242 0.410 0.246L0.404 0.243V0.248H0.401V0.246Q0.413 0.196 0.413 0.192ZM0.517 0.195H0.520V0.204H0.517ZM0.478 0.201H0.481V0.215H0.478ZM0.522 0.204Q0.522 0.212 0.534 0.246Q0.527 0.245 0.517 0.218Q0.514 0.218 0.514 0.207Q0.517 0.207 0.522 0.204ZM0.305 0.212H0.308Q0.342 0.230 0.345 0.237H0.342Q0.305 0.215 0.305 0.212ZM0.444 0.218 0.447 0.223Q0.433 0.248 0.429 0.248H0.424V0.246Q0.424 0.218 0.444 0.218ZM0.461 0.223V0.240Q0.461 0.255 0.449 0.260L0.444 0.251Q0.456 0.223 0.461 0.223ZM0.483 0.226H0.489Q0.489 0.233 0.492 0.248L0.486 0.251L0.483 0.232ZM0.354 0.243Q0.360 0.244 0.360 0.248H0.354ZM0.413 0.251H0.415Q0.422 0.256 0.441 0.260L0.449 0.274L0.447 0.279Q0.449 0.279 0.449 0.282Q0.447 0.282 0.447 0.285Q0.449 0.285 0.449 0.288L0.455 0.285H0.461V0.290Q0.451 0.293 0.449 0.293Q0.449 0.290 0.447 0.290Q0.447 0.297 0.424 0.314Q0.427 0.314 0.427 0.316L0.432 0.314H0.435Q0.441 0.332 0.449 0.344Q0.449 0.350 0.444 0.350Q0.444 0.341 0.421 0.328L0.415 0.330Q0.410 0.328 0.407 0.328Q0.407 0.325 0.410 0.325Q0.406 0.302 0.365 0.257V0.254Q0.404 0.291 0.404 0.299H0.407V0.260Q0.415 0.260 0.415 0.254Q0.413 0.254 0.413 0.251ZM0.458 0.271H0.461V0.276H0.458ZM0.413 0.314 0.410 0.319 0.415 0.322 0.418 0.316ZM0.458 0.311H0.461V0.319Q0.461 0.323 0.449 0.330V0.328Q0.458 0.314 0.458 0.311ZM0.410 0.364H0.413V0.369H0.410ZM0.427 0.369V0.372Q0.427 0.378 0.421 0.378V0.375Q0.422 0.369 0.427 0.369ZM0.415 0.383V0.386Q0.415 0.391 0.407 0.395V0.392Q0.407 0.388 0.415 0.383ZM0.427 0.392Q0.427 0.395 0.429 0.400Q0.439 0.395 0.444 0.395Q0.444 0.397 0.429 0.415Q0.432 0.415 0.432 0.418L0.438 0.415H0.441Q0.429 0.427 0.429 0.429L0.435 0.432Q0.447 0.423 0.452 0.423Q0.435 0.438 0.435 0.440Q0.441 0.443 0.444 0.443L0.441 0.449L0.444 0.454Q0.449 0.451 0.452 0.451H0.455V0.454Q0.447 0.454 0.447 0.460L0.449 0.465Q0.455 0.463 0.458 0.463H0.461V0.465Q0.449 0.467 0.449 0.474Q0.455 0.477 0.458 0.477L0.452 0.485Q0.458 0.488 0.461 0.488L0.455 0.496Q0.461 0.497 0.461 0.502V0.516Q0.461 0.519 0.458 0.519L0.461 0.525L0.455 0.533Q0.461 0.534 0.461 0.539V0.547L0.455 0.556L0.458 0.561Q0.449 0.561 0.449 0.567L0.452 0.573Q0.444 0.573 0.444 0.578L0.464 0.589L0.461 0.609V0.626Q0.482 0.602 0.489 0.578H0.492Q0.492 0.585 0.495 0.589Q0.489 0.591 0.489 0.595Q0.489 0.603 0.492 0.603Q0.489 0.614 0.489 0.629H0.486V0.612H0.483Q0.461 0.635 0.461 0.643L0.455 0.640H0.452Q0.447 0.640 0.447 0.649L0.441 0.646H0.435Q0.418 0.653 0.418 0.657Q0.427 0.677 0.441 0.677Q0.444 0.672 0.444 0.669Q0.453 0.674 0.458 0.674Q0.458 0.669 0.464 0.669Q0.464 0.681 0.467 0.685Q0.475 0.680 0.481 0.680V0.652H0.467Q0.467 0.648 0.483 0.643V0.629H0.486Q0.486 0.646 0.492 0.652V0.657L0.486 0.655Q0.486 0.661 0.483 0.677Q0.503 0.683 0.503 0.699H0.509Q0.509 0.688 0.517 0.688L0.534 0.691H0.539Q0.539 0.701 0.548 0.710Q0.531 0.710 0.514 0.733V0.738Q0.522 0.738 0.522 0.744Q0.534 0.738 0.542 0.738Q0.554 0.744 0.559 0.744V0.713H0.562Q0.568 0.764 0.568 0.781H0.565L0.559 0.778Q0.559 0.781 0.556 0.781L0.559 0.767V0.750Q0.557 0.750 0.542 0.747Q0.525 0.754 0.525 0.767H0.528L0.536 0.762Q0.541 0.762 0.548 0.773L0.539 0.778H0.536L0.528 0.773V0.778L0.539 0.790Q0.533 0.795 0.525 0.795L0.528 0.801Q0.525 0.801 0.514 0.815L0.520 0.818L0.531 0.804L0.545 0.806Q0.551 0.806 0.551 0.801V0.795H0.548Q0.542 0.798 0.539 0.798Q0.539 0.793 0.551 0.787Q0.551 0.790 0.559 0.795L0.562 0.790Q0.559 0.790 0.559 0.787L0.565 0.784Q0.565 0.789 0.574 0.798Q0.569 0.798 0.565 0.806V0.809Q0.601 0.801 0.607 0.767V0.756Q0.588 0.741 0.588 0.738Q0.591 0.733 0.591 0.730L0.588 0.724Q0.593 0.715 0.593 0.710L0.588 0.708L0.568 0.710Q0.579 0.688 0.582 0.688H0.585Q0.594 0.696 0.602 0.696L0.599 0.710V0.713Q0.605 0.747 0.632 0.747Q0.669 0.743 0.669 0.710H0.672Q0.672 0.716 0.675 0.716Q0.675 0.747 0.630 0.756H0.624Q0.630 0.781 0.630 0.792V0.795Q0.624 0.806 0.621 0.806L0.624 0.820V0.826L0.621 0.832H0.630Q0.607 0.857 0.607 0.883H0.602Q0.602 0.868 0.596 0.868Q0.571 0.888 0.548 0.888Q0.548 0.874 0.525 0.857Q0.519 0.834 0.514 0.834Q0.487 0.843 0.481 0.843Q0.472 0.829 0.461 0.829V0.837L0.467 0.845L0.461 0.854V0.874L0.478 0.866L0.509 0.900Q0.475 0.900 0.461 0.933Q0.461 0.945 0.478 0.967L0.472 0.970Q0.472 0.967 0.469 0.967Q0.469 0.987 0.461 0.987V0.993L0.458 1.021H0.455L0.452 1.001V0.995L0.458 0.987V0.981H0.432Q0.429 0.981 0.429 0.978L0.424 0.981H0.407V0.905Q0.399 0.905 0.393 0.894L0.404 0.886Q0.404 0.888 0.407 0.888V0.857L0.396 0.843Q0.407 0.838 0.407 0.812Q0.413 0.813 0.413 0.818H0.410Q0.414 0.829 0.418 0.829L0.424 0.820Q0.418 0.820 0.418 0.815Q0.421 0.815 0.421 0.812Q0.415 0.812 0.415 0.806Q0.418 0.806 0.418 0.804L0.413 0.801Q0.413 0.804 0.410 0.804L0.407 0.798H0.410L0.404 0.787Q0.404 0.779 0.424 0.776Q0.429 0.791 0.444 0.798L0.447 0.792V0.790Q0.447 0.787 0.444 0.787L0.447 0.781V0.773Q0.447 0.768 0.438 0.764H0.432Q0.418 0.764 0.418 0.770Q0.414 0.767 0.407 0.767V0.750L0.399 0.738Q0.403 0.738 0.407 0.730V0.666L0.413 0.669L0.415 0.663L0.410 0.660Q0.410 0.663 0.407 0.663V0.646Q0.392 0.663 0.376 0.671V0.669Q0.407 0.613 0.407 0.603V0.400L0.413 0.403Q0.413 0.400 0.427 0.392ZM0.461 0.403 0.464 0.415V0.418H0.461Q0.461 0.409 0.452 0.409Q0.447 0.412 0.444 0.412Q0.444 0.403 0.461 0.403ZM0.452 0.421H0.458V0.423H0.452ZM0.455 0.435H0.461V0.438H0.455ZM0.449 0.438H0.455V0.440H0.449ZM0.444 0.440H0.449V0.443H0.444ZM0.455 0.449H0.461V0.451H0.455ZM0.475 0.457V0.463H0.469Q0.470 0.457 0.475 0.457ZM0.475 0.468V0.474H0.469Q0.470 0.468 0.475 0.468ZM0.469 0.485H0.478V0.488H0.469ZM0.503 0.496H0.506V0.505Q0.506 0.519 0.500 0.550H0.497V0.547Q0.497 0.536 0.503 0.496ZM0.469 0.499H0.478V0.527H0.469L0.475 0.519Q0.469 0.519 0.469 0.513ZM0.469 0.536Q0.475 0.536 0.475 0.542H0.469ZM0.467 0.550H0.475V0.553H0.467ZM0.500 0.553V0.559H0.495Q0.496 0.553 0.500 0.553ZM0.467 0.564H0.472V0.567H0.467ZM0.492 0.570H0.497V0.573Q0.497 0.578 0.492 0.578ZM0.452 0.573H0.461V0.575H0.452ZM0.461 0.575H0.467V0.578H0.461ZM0.429 0.603 0.427 0.609 0.435 0.620H0.432L0.424 0.614Q0.418 0.616 0.418 0.620L0.432 0.632Q0.438 0.632 0.438 0.626L0.435 0.620H0.438Q0.444 0.623 0.447 0.623L0.449 0.617ZM0.528 0.600Q0.548 0.629 0.548 0.652H0.565V0.657L0.562 0.663L0.556 0.660H0.551L0.545 0.663Q0.545 0.649 0.528 0.600ZM0.410 0.629 0.427 0.643 0.429 0.637Q0.429 0.634 0.415 0.623Q0.410 0.624 0.410 0.629ZM0.506 0.623H0.509V0.632H0.503Q0.506 0.626 0.506 0.623ZM0.630 0.657H0.635Q0.666 0.657 0.678 0.705Q0.658 0.686 0.632 0.671Q0.638 0.671 0.638 0.666Q0.634 0.666 0.630 0.657ZM0.500 0.660H0.503Q0.522 0.672 0.522 0.677V0.682Q0.506 0.666 0.500 0.666ZM0.613 0.660H0.618Q0.624 0.660 0.624 0.666L0.621 0.671V0.680Q0.619 0.680 0.604 0.691V0.688Q0.607 0.683 0.607 0.680L0.604 0.674Q0.608 0.660 0.613 0.660ZM0.599 0.663V0.669Q0.596 0.674 0.596 0.677Q0.591 0.674 0.588 0.674Q0.588 0.669 0.599 0.663ZM0.559 0.671H0.565V0.674H0.559ZM0.472 0.688Q0.472 0.691 0.469 0.691L0.472 0.696V0.699L0.467 0.696L0.455 0.708Q0.461 0.709 0.461 0.713V0.716L0.455 0.713L0.452 0.719L0.464 0.727Q0.464 0.722 0.481 0.722V0.719Q0.481 0.716 0.478 0.716Q0.481 0.711 0.481 0.708L0.486 0.710H0.497V0.694Q0.497 0.688 0.492 0.688H0.483V0.696H0.481Q0.481 0.688 0.472 0.688ZM0.548 0.694 0.562 0.696V0.699L0.559 0.705Q0.548 0.701 0.548 0.696ZM0.467 0.705H0.469V0.710H0.467ZM0.447 0.719Q0.447 0.724 0.441 0.724Q0.441 0.722 0.438 0.722L0.435 0.727L0.441 0.730Q0.442 0.724 0.447 0.724V0.727L0.441 0.736L0.447 0.738Q0.447 0.735 0.455 0.730Q0.451 0.719 0.447 0.719ZM0.475 0.724 0.467 0.736Q0.470 0.736 0.475 0.744L0.481 0.741L0.486 0.744L0.489 0.738Q0.483 0.738 0.483 0.733L0.478 0.736H0.475L0.481 0.727ZM0.455 0.733 0.447 0.744 0.452 0.747 0.461 0.736ZM0.503 0.736Q0.503 0.740 0.492 0.747V0.744L0.481 0.750L0.483 0.756Q0.483 0.760 0.475 0.764Q0.475 0.761 0.472 0.756Q0.461 0.760 0.461 0.764L0.467 0.767Q0.467 0.764 0.469 0.764Q0.469 0.768 0.478 0.773L0.509 0.738ZM0.429 0.753 0.444 0.762Q0.447 0.756 0.447 0.753Q0.442 0.741 0.438 0.741Q0.434 0.741 0.429 0.753ZM0.461 0.741 0.452 0.753Q0.458 0.753 0.458 0.759L0.469 0.753Q0.465 0.741 0.461 0.741ZM0.509 0.753Q0.509 0.756 0.506 0.762L0.511 0.764L0.514 0.759V0.753ZM0.382 0.756Q0.386 0.756 0.393 0.767L0.379 0.776Q0.379 0.771 0.373 0.764Q0.373 0.760 0.382 0.756ZM0.649 0.770H0.655V0.781H0.644V0.776Q0.645 0.770 0.649 0.770ZM0.432 0.773H0.438V0.778H0.432ZM0.357 0.781Q0.357 0.787 0.362 0.787Q0.358 0.801 0.354 0.801L0.345 0.790ZM0.553 0.804V0.809H0.562V0.804ZM0.328 0.806 0.337 0.812Q0.332 0.823 0.328 0.823Q0.324 0.823 0.319 0.815Q0.319 0.811 0.328 0.806ZM0.382 0.806Q0.382 0.815 0.390 0.815Q0.390 0.819 0.379 0.826L0.371 0.815ZM0.593 0.812 0.553 0.854 0.559 0.857 0.599 0.815ZM0.357 0.832Q0.357 0.836 0.362 0.843Q0.362 0.847 0.354 0.851Q0.349 0.851 0.342 0.840ZM0.641 0.834H0.649Q0.666 0.846 0.666 0.860V0.877H0.663Q0.663 0.840 0.635 0.840Q0.636 0.834 0.641 0.834ZM0.511 0.843Q0.511 0.856 0.522 0.863L0.520 0.868V0.871Q0.520 0.876 0.539 0.880V0.888Q0.539 0.919 0.531 0.919Q0.526 0.909 0.514 0.905Q0.514 0.900 0.534 0.891L0.536 0.886Q0.536 0.880 0.531 0.880H0.528L0.514 0.891L0.497 0.874Q0.500 0.868 0.500 0.866Q0.493 0.865 0.489 0.851ZM0.481 0.854H0.483V0.863H0.481ZM0.379 0.860Q0.383 0.860 0.387 0.868Q0.387 0.873 0.376 0.880Q0.376 0.875 0.371 0.868Q0.371 0.864 0.379 0.860ZM0.630 0.860 0.638 0.866Q0.638 0.863 0.641 0.863Q0.652 0.875 0.652 0.877L0.644 0.883Q0.627 0.883 0.627 0.868Q0.630 0.863 0.630 0.860ZM0.613 0.886 0.627 0.894H0.638L0.652 0.891Q0.651 0.900 0.630 0.900Q0.625 0.900 0.607 0.891V0.888Q0.613 0.888 0.613 0.886ZM0.548 0.897H0.551Q0.551 0.905 0.559 0.905L0.553 0.913Q0.553 0.919 0.562 0.919L0.559 0.925Q0.559 0.927 0.562 0.927L0.559 0.933V0.939Q0.568 0.939 0.568 0.944Q0.556 0.944 0.556 0.961Q0.559 0.961 0.559 0.964Q0.553 0.964 0.553 0.975L0.548 0.973H0.545Q0.545 0.984 0.534 0.987Q0.520 0.989 0.520 0.998L0.514 0.995Q0.514 0.998 0.511 0.998V0.995L0.514 0.990Q0.514 0.984 0.509 0.973Q0.530 0.973 0.539 0.922Q0.546 0.922 0.548 0.897ZM0.483 0.913 0.486 0.919Q0.486 0.923 0.475 0.930L0.472 0.925Q0.472 0.921 0.483 0.913ZM0.497 0.922 0.500 0.927Q0.495 0.929 0.495 0.933Q0.506 0.937 0.511 0.947L0.506 0.950H0.495Q0.488 0.950 0.483 0.930ZM0.509 0.927Q0.514 0.929 0.514 0.933V0.936Q0.509 0.936 0.509 0.930ZM0.553 0.939 0.514 0.981 0.520 0.984 0.559 0.941ZM0.486 0.990H0.492V0.993H0.486ZM0.489 0.998H0.492V1.004H0.489ZM0.511 1.015Q0.522 1.020 0.525 1.032Q0.511 1.032 0.511 1.037H0.509Q0.503 1.037 0.503 1.032Q0.507 1.032 0.511 1.021H0.506Q0.507 1.015 0.511 1.015ZM0.458 1.023Q0.464 1.025 0.464 1.029V1.032Q0.458 1.032 0.458 1.026ZM0.486 1.026H0.492Q0.492 1.032 0.486 1.032ZM0.467 1.035H0.469L0.478 1.040H0.481L0.486 1.037V1.043L0.492 1.040H0.495V1.046H0.475Q0.471 1.046 0.467 1.037ZM0.531 1.040V1.077Q0.527 1.077 0.520 1.046ZM0.503 1.049 0.517 1.071Q0.511 1.072 0.511 1.077Q0.514 1.077 0.514 1.079H0.509Q0.509 1.071 0.489 1.057H0.486V1.065H0.483V1.054ZM0.486 1.068H0.489V1.074H0.486ZM0.525 1.088H0.528V1.128H0.525ZM0.503 1.094H0.509V1.097H0.503Z" fill="black"/>
</svg>
