<svg xmlns="http://www.w3.org/2000/svg" viewBox="0 0 1 1" preserveAspectRatio="xMidYMid meet">
  <path d="M0.055 -0.085H0.058V-0.079H0.055ZM0.050 -0.079H0.055L0.053 -0.074V-0.071Q0.058 -0.044 0.058 -0.040Q0.050 -0.024 0.044 -0.007H0.039Q0.031 -0.025 0.031 -0.040Q0.033 -0.040 0.033 -0.043Q0.031 -0.043 0.031 -0.046Q0.050 -0.077 0.050 -0.079ZM0.072 0.038H0.123V0.195Q0.150 0.215 0.150 0.239V0.281L0.145 0.290Q0.148 0.290 0.148 0.292Q0.145 0.292 0.145 0.295H0.148L0.145 0.301V0.309L0.142 0.342H0.139Q0.139 0.338 0.131 0.323H0.125L0.123 0.337V0.449Q0.124 0.455 0.128 0.455H0.134Q0.147 0.455 0.153 0.418Q0.150 0.418 0.150 0.415H0.153L0.148 0.404Q0.150 0.404 0.150 0.401Q0.148 0.401 0.148 0.398L0.153 0.396L0.162 0.429Q0.151 0.482 0.134 0.482V0.485L0.123 0.480V0.507Q0.134 0.507 0.134 0.510Q0.176 0.499 0.176 0.469L0.179 0.457H0.176L0.179 0.452Q0.179 0.448 0.176 0.423V0.421H0.179Q0.179 0.426 0.184 0.435H0.182Q0.187 0.447 0.187 0.452Q0.184 0.480 0.179 0.493H0.182Q0.175 0.517 0.165 0.536V0.569H0.162Q0.162 0.548 0.142 0.530H0.137L0.139 0.536V0.561Q0.139 0.582 0.131 0.600H0.134Q0.125 0.613 0.125 0.617Q0.125 0.634 0.134 0.681H0.137Q0.137 0.670 0.142 0.664H0.139L0.148 0.645H0.145Q0.157 0.632 0.162 0.577H0.165V0.588Q0.165 0.605 0.159 0.620H0.162Q0.159 0.646 0.153 0.669H0.156Q0.145 0.708 0.145 0.720Q0.149 0.741 0.165 0.764Q0.187 0.760 0.187 0.745Q0.193 0.746 0.193 0.750Q0.193 0.759 0.176 0.787Q0.219 0.871 0.347 0.913L0.372 0.918V0.921Q0.361 0.921 0.361 0.927Q0.369 0.961 0.374 0.961Q0.398 0.952 0.413 0.952L0.416 0.969V0.974Q0.243 0.974 0.145 0.829Q0.132 0.834 0.120 0.834Q0.101 0.834 0.101 0.787Q0.106 0.787 0.106 0.782H0.103L0.106 0.776V0.764Q0.072 0.674 0.072 0.583V0.502Q0.031 0.460 0.025 0.438H0.028L0.025 0.432V0.404L0.044 0.368H0.042L0.050 0.348H0.047Q0.050 0.344 0.050 0.331Q0.055 0.331 0.055 0.340L0.047 0.379H0.050Q0.044 0.396 0.044 0.401Q0.047 0.412 0.061 0.412Q0.063 0.412 0.072 0.410V0.264Q0.014 0.202 0.014 0.184Q0.017 0.184 0.017 0.181H0.014L0.022 0.147Q0.020 0.147 0.020 0.144Q0.025 0.144 0.025 0.139Q0.022 0.139 0.022 0.136L0.031 0.130L0.039 0.150Q0.049 0.150 0.058 0.122H0.055L0.058 0.116V0.060H0.061Q0.061 0.067 0.064 0.071H0.061L0.066 0.082Q0.064 0.088 0.064 0.091Q0.066 0.091 0.066 0.094H0.064Q0.066 0.100 0.066 0.103Q0.066 0.134 0.053 0.181Q0.053 0.189 0.069 0.217H0.072ZM0.760 0.038H0.810V0.094L0.816 0.091H0.819Q0.819 0.098 0.838 0.105Q0.850 0.115 0.850 0.119H0.853L0.864 0.111H0.869Q0.869 0.122 0.880 0.122Q0.880 0.119 0.883 0.119V0.130Q0.900 0.136 0.900 0.139L0.897 0.144V0.152Q0.889 0.152 0.889 0.158H0.897L0.891 0.166Q0.894 0.166 0.894 0.169H0.883V0.175H0.897L0.902 0.172V0.178H0.897V0.184H0.902Q0.902 0.186 0.900 0.186L0.902 0.192V0.198L0.897 0.195H0.891V0.200L0.894 0.206Q0.883 0.206 0.869 0.228H0.864Q0.864 0.231 0.866 0.231Q0.864 0.236 0.864 0.245H0.861V0.233H0.847V0.242H0.844L0.838 0.239V0.247H0.835V0.239H0.827Q0.821 0.239 0.819 0.256H0.816Q0.816 0.245 0.810 0.245V0.256Q0.827 0.278 0.827 0.292V0.295H0.824Q0.818 0.273 0.810 0.273V0.407Q0.819 0.401 0.824 0.401Q0.810 0.413 0.810 0.415V0.429Q0.810 0.444 0.813 0.455Q0.810 0.469 0.810 0.482V0.496Q0.810 0.499 0.813 0.499L0.810 0.504V0.522H0.819Q0.821 0.522 0.821 0.519Q0.859 0.535 0.861 0.541Q0.861 0.545 0.869 0.552L0.864 0.555H0.858Q0.858 0.553 0.853 0.544H0.838V0.541H0.832L0.824 0.547H0.816L0.821 0.539V0.536H0.819Q0.815 0.536 0.810 0.544V0.558Q0.810 0.562 0.819 0.566V0.561L0.816 0.555H0.821L0.832 0.563H0.835V0.561L0.832 0.555H0.835L0.847 0.563H0.850V0.561L0.847 0.555H0.858V0.561Q0.858 0.565 0.844 0.569V0.572H0.827L0.813 0.574Q0.813 0.572 0.810 0.572V0.625Q0.810 0.704 0.763 0.798Q0.766 0.798 0.766 0.801Q0.757 0.801 0.735 0.840Q0.731 0.840 0.718 0.860H0.735V0.863H0.710L0.688 0.834V0.832Q0.699 0.832 0.726 0.815Q0.713 0.785 0.710 0.785Q0.726 0.757 0.726 0.750Q0.724 0.750 0.724 0.748Q0.743 0.748 0.760 0.603V0.504H0.757Q0.757 0.520 0.746 0.525V0.522Q0.751 0.513 0.751 0.504V0.499L0.743 0.504Q0.743 0.499 0.740 0.499Q0.746 0.485 0.746 0.477H0.740V0.482H0.735Q0.735 0.463 0.718 0.463V0.466L0.721 0.471H0.713Q0.732 0.485 0.732 0.488H0.718V0.493Q0.732 0.493 0.735 0.504H0.724V0.510Q0.740 0.512 0.740 0.519V0.522L0.737 0.527Q0.717 0.522 0.710 0.516L0.713 0.510Q0.713 0.507 0.702 0.493V0.485L0.704 0.480H0.693V0.477H0.699V0.471L0.693 0.463Q0.704 0.463 0.704 0.441H0.707L0.715 0.446Q0.721 0.446 0.721 0.429H0.724Q0.724 0.446 0.729 0.452H0.724V0.457Q0.731 0.452 0.735 0.452V0.441L0.732 0.426L0.737 0.423V0.449H0.746V0.452H0.737V0.457Q0.744 0.457 0.749 0.466Q0.749 0.471 0.754 0.471V0.480L0.757 0.493H0.760V0.477Q0.760 0.470 0.757 0.466Q0.760 0.461 0.760 0.455V0.449Q0.754 0.438 0.751 0.438Q0.754 0.433 0.754 0.426H0.757V0.441H0.760V0.423H0.757L0.760 0.418V0.404Q0.751 0.404 0.751 0.412H0.743Q0.743 0.404 0.737 0.404V0.401Q0.744 0.401 0.749 0.390L0.743 0.371H0.749Q0.749 0.377 0.757 0.398H0.760V0.376Q0.760 0.374 0.757 0.374L0.760 0.368V0.342H0.754V0.337L0.760 0.340V0.301H0.746L0.749 0.295L0.754 0.298H0.760Q0.760 0.290 0.774 0.290V0.287Q0.772 0.270 0.763 0.250Q0.757 0.250 0.743 0.256Q0.738 0.253 0.735 0.253Q0.735 0.256 0.732 0.256L0.718 0.242V0.233Q0.735 0.222 0.735 0.203V0.200H0.729Q0.730 0.195 0.735 0.195V0.198L0.754 0.189V0.192Q0.749 0.209 0.743 0.209Q0.743 0.216 0.754 0.233Q0.760 0.233 0.760 0.228H0.757Q0.760 0.227 0.760 0.200Q0.772 0.211 0.780 0.211Q0.792 0.192 0.796 0.192H0.799Q0.799 0.198 0.810 0.211Q0.829 0.204 0.832 0.195Q0.824 0.184 0.824 0.172Q0.847 0.167 0.847 0.158Q0.847 0.150 0.841 0.136L0.813 0.144Q0.813 0.114 0.807 0.114Q0.792 0.114 0.788 0.111Q0.783 0.120 0.783 0.128V0.141Q0.760 0.137 0.760 0.130V0.103L0.757 0.088L0.751 0.091V0.082H0.760ZM0.875 0.049H0.880V0.052H0.875ZM0.875 0.060H0.883V0.063H0.875ZM0.861 0.082H0.864V0.088H0.861ZM0.894 0.088H0.897Q0.897 0.100 0.902 0.100H0.908V0.103Q0.905 0.103 0.900 0.105L0.902 0.111V0.114L0.886 0.105Q0.894 0.098 0.894 0.088ZM0.853 0.091H0.855V0.097H0.853ZM0.866 0.091H0.869V0.097H0.866ZM0.886 0.094H0.889V0.100H0.886ZM0.676 0.114H0.690Q0.702 0.114 0.726 0.158H0.735L0.732 0.144H0.743V0.147H0.737V0.152Q0.746 0.152 0.751 0.163L0.772 0.169Q0.760 0.186 0.757 0.186L0.754 0.181Q0.757 0.181 0.757 0.178H0.751Q0.749 0.178 0.749 0.181L0.743 0.178Q0.741 0.178 0.729 0.192H0.726L0.729 0.186Q0.726 0.186 0.726 0.184H0.732V0.178H0.726Q0.726 0.185 0.715 0.186Q0.701 0.155 0.659 0.155Q0.620 0.151 0.620 0.139Q0.630 0.139 0.631 0.119H0.634Q0.634 0.137 0.665 0.141Q0.693 0.137 0.693 0.128Q0.688 0.116 0.676 0.116ZM0.612 0.119Q0.617 0.122 0.620 0.122V0.130Q0.616 0.130 0.612 0.122ZM0.791 0.122H0.805V0.147Q0.805 0.152 0.813 0.152Q0.822 0.150 0.835 0.150Q0.838 0.155 0.838 0.158Q0.810 0.165 0.810 0.172L0.824 0.195L0.813 0.200Q0.800 0.178 0.796 0.178Q0.780 0.192 0.780 0.200H0.774Q0.770 0.200 0.766 0.192L0.783 0.166Q0.757 0.155 0.757 0.152Q0.760 0.147 0.760 0.144L0.788 0.152L0.791 0.147ZM0.754 0.130H0.757V0.136H0.749Q0.750 0.130 0.754 0.130ZM0.908 0.136H0.919Q0.931 0.139 0.931 0.150L0.925 0.147H0.922L0.916 0.150Q0.916 0.139 0.911 0.139H0.908ZM0.721 0.161 0.724 0.175H0.729Q0.735 0.175 0.735 0.169V0.166Q0.731 0.166 0.724 0.161ZM0.919 0.158H0.922Q0.922 0.163 0.934 0.163L0.931 0.169L0.936 0.178H0.934Q0.928 0.175 0.922 0.175Q0.922 0.178 0.919 0.178Q0.919 0.172 0.908 0.172V0.169Q0.919 0.169 0.919 0.158ZM0.894 0.163H0.900V0.166H0.894ZM0.749 0.169V0.175H0.754V0.169ZM0.970 0.169Q0.976 0.175 0.986 0.175V0.178Q0.978 0.178 0.978 0.189L0.959 0.178V0.175Q0.970 0.175 0.970 0.169ZM0.685 0.181H0.690Q0.688 0.186 0.688 0.189H0.685ZM0.718 0.186H0.721V0.192H0.718ZM0.688 0.189H0.693V0.192H0.688ZM0.693 0.192H0.699L0.721 0.200V0.203Q0.707 0.203 0.707 0.214Q0.700 0.214 0.699 0.200L0.704 0.203H0.710V0.198H0.699V0.200H0.696Q0.696 0.197 0.693 0.192ZM0.740 0.198V0.203H0.746V0.198ZM0.913 0.195H0.919Q0.919 0.200 0.913 0.200ZM0.662 0.200H0.673V0.203H0.662ZM0.659 0.203H0.662L0.656 0.211V0.225Q0.668 0.238 0.668 0.239H0.662L0.648 0.231Q0.653 0.203 0.659 0.203ZM0.123 0.209V0.239H0.128Q0.128 0.227 0.131 0.222Q0.125 0.213 0.125 0.209ZM0.676 0.206H0.679V0.214L0.673 0.217H0.671Q0.676 0.210 0.676 0.206ZM0.908 0.206 0.911 0.211Q0.902 0.214 0.900 0.214Q0.900 0.210 0.908 0.206ZM0.919 0.206H0.928V0.209H0.919ZM0.707 0.222H0.713V0.231Q0.707 0.231 0.707 0.225ZM0.688 0.225Q0.693 0.226 0.693 0.231V0.236H0.688ZM0.936 0.231Q0.936 0.239 0.942 0.239V0.242Q0.936 0.242 0.936 0.245Q0.939 0.250 0.939 0.253Q0.928 0.250 0.928 0.236ZM0.668 0.250H0.673V0.253H0.668ZM0.662 0.253H0.668V0.256H0.662ZM0.685 0.256H0.693V0.262Q0.693 0.267 0.688 0.267H0.685ZM0.651 0.262H0.659Q0.656 0.264 0.656 0.284H0.654L0.651 0.270ZM0.835 0.264H0.838V0.270H0.835ZM0.760 0.273H0.763V0.284H0.760ZM0.671 0.276H0.676V0.279H0.671ZM0.841 0.276H0.844V0.281H0.841ZM0.676 0.279H0.679V0.287H0.676ZM0.704 0.281H0.710Q0.710 0.285 0.715 0.292Q0.706 0.301 0.702 0.301H0.690V0.298Q0.704 0.298 0.704 0.284ZM0.746 0.281 0.749 0.287V0.290H0.737Q0.737 0.285 0.746 0.281ZM0.844 0.281Q0.857 0.292 0.869 0.320L0.861 0.326ZM0.668 0.290H0.673V0.292H0.668ZM0.827 0.298H0.830V0.304H0.827ZM0.685 0.304H0.688V0.309H0.685ZM0.732 0.304H0.735L0.751 0.326V0.328Q0.732 0.318 0.732 0.306ZM0.718 0.306H0.721L0.718 0.312V0.342H0.715Q0.711 0.326 0.704 0.326V0.320Q0.704 0.316 0.718 0.306ZM0.902 0.320H0.905V0.326H0.902ZM0.735 0.328H0.737Q0.737 0.331 0.740 0.337L0.732 0.342L0.726 0.334Q0.735 0.334 0.735 0.328ZM0.869 0.328H0.872Q0.884 0.340 0.894 0.340H0.897V0.334H0.900Q0.911 0.356 0.911 0.363V0.371Q0.911 0.375 0.900 0.382H0.894L0.886 0.376L0.889 0.371ZM0.699 0.354H0.704V0.357H0.699ZM0.743 0.354 0.746 0.360 0.740 0.363Q0.735 0.360 0.732 0.360V0.357Q0.734 0.357 0.743 0.354ZM0.656 0.357Q0.662 0.357 0.662 0.363H0.656ZM0.690 0.360H0.693Q0.688 0.366 0.688 0.371Q0.682 0.368 0.679 0.368V0.365Q0.683 0.365 0.690 0.360ZM0.648 0.363Q0.648 0.366 0.651 0.371H0.648Q0.643 0.368 0.640 0.368V0.365Q0.643 0.365 0.648 0.363ZM0.702 0.371H0.704V0.376H0.702ZM0.662 0.376H0.665V0.379L0.654 0.382H0.651V0.379Q0.653 0.379 0.662 0.376ZM0.682 0.379 0.685 0.390Q0.665 0.383 0.665 0.379ZM0.699 0.379H0.702Q0.702 0.392 0.704 0.396H0.702Q0.696 0.396 0.696 0.390Q0.699 0.386 0.699 0.379ZM0.148 0.385H0.150V0.390H0.148ZM0.710 0.385H0.713Q0.718 0.386 0.718 0.390H0.715Q0.710 0.390 0.710 0.385ZM0.718 0.390H0.724V0.393H0.718ZM0.688 0.393V0.401L0.673 0.398V0.396Q0.682 0.396 0.688 0.393ZM0.665 0.396V0.401Q0.660 0.401 0.651 0.410H0.648V0.407Q0.648 0.403 0.665 0.396ZM0.704 0.396H0.710V0.398H0.704ZM0.623 0.401H0.629V0.404H0.623ZM0.634 0.401H0.645V0.404H0.634ZM0.665 0.401H0.671V0.404H0.665ZM0.688 0.401H0.693V0.404H0.688ZM0.693 0.404H0.699V0.407H0.693ZM0.729 0.404H0.735Q0.735 0.410 0.729 0.410ZM0.699 0.407H0.704L0.702 0.412V0.415H0.710V0.418H0.696Q0.699 0.413 0.699 0.407ZM0.173 0.410H0.176V0.415H0.173ZM0.838 0.410Q0.839 0.415 0.844 0.415H0.847L0.861 0.412Q0.878 0.441 0.878 0.446V0.449L0.853 0.418H0.835L0.821 0.421V0.415Q0.829 0.415 0.838 0.410ZM0.643 0.412H0.645V0.418H0.643ZM0.659 0.415H0.662V0.421H0.659ZM0.685 0.415H0.688V0.421H0.685ZM0.640 0.418H0.643V0.426H0.640ZM0.673 0.426H0.679Q0.679 0.432 0.673 0.432ZM0.832 0.426H0.844V0.429H0.832ZM0.637 0.429H0.640V0.438H0.637ZM0.827 0.429H0.830Q0.830 0.435 0.824 0.435Q0.827 0.460 0.830 0.466H0.824Q0.824 0.458 0.819 0.435ZM0.671 0.435H0.673V0.441H0.671ZM0.838 0.441H0.841Q0.841 0.460 0.844 0.463H0.838Q0.838 0.449 0.835 0.449Q0.838 0.444 0.838 0.441ZM0.662 0.446H0.671V0.449H0.662ZM0.679 0.449H0.682Q0.688 0.449 0.688 0.455H0.685Q0.679 0.455 0.679 0.449ZM0.713 0.452Q0.713 0.457 0.707 0.457L0.710 0.463Q0.714 0.460 0.721 0.460V0.452ZM0.746 0.452H0.749V0.457H0.746ZM0.850 0.452H0.855V0.455H0.850ZM0.864 0.452Q0.869 0.452 0.869 0.457V0.460Q0.869 0.464 0.861 0.469H0.858Q0.864 0.459 0.864 0.452ZM0.651 0.455H0.654V0.460H0.651ZM0.659 0.455 0.665 0.457 0.671 0.455 0.673 0.460Q0.671 0.460 0.671 0.463Q0.666 0.460 0.656 0.460ZM0.813 0.463Q0.829 0.482 0.858 0.482Q0.863 0.480 0.866 0.480Q0.864 0.488 0.850 0.488Q0.824 0.488 0.813 0.469ZM0.883 0.466Q0.889 0.466 0.889 0.474Q0.885 0.486 0.861 0.510H0.838Q0.824 0.503 0.824 0.499V0.496L0.838 0.499H0.850Q0.883 0.493 0.883 0.466ZM0.679 0.471H0.685Q0.685 0.477 0.679 0.477ZM0.732 0.488H0.737V0.491H0.732ZM0.685 0.499H0.688V0.507H0.685ZM0.715 0.544H0.724V0.547L0.707 0.550H0.704V0.547ZM0.830 0.574H0.832Q0.832 0.586 0.841 0.586V0.588H0.835L0.838 0.594Q0.835 0.594 0.830 0.597Q0.830 0.594 0.827 0.594V0.603H0.824Q0.824 0.596 0.819 0.588L0.821 0.583H0.816V0.580Q0.822 0.580 0.827 0.577Q0.827 0.580 0.830 0.580ZM0.198 0.622H0.204Q0.204 0.632 0.207 0.636H0.204Q0.209 0.649 0.209 0.675Q0.204 0.701 0.198 0.701Q0.198 0.698 0.196 0.692Q0.198 0.692 0.198 0.689Q0.196 0.689 0.196 0.686H0.198L0.193 0.672H0.196L0.190 0.650Q0.198 0.633 0.198 0.622ZM0.894 0.647H0.897V0.653H0.894ZM0.878 0.650H0.880V0.658H0.878ZM0.883 0.658Q0.883 0.667 0.889 0.667Q0.889 0.658 0.894 0.658V0.669H0.900L0.897 0.675Q0.902 0.678 0.913 0.678V0.681H0.897V0.686H0.902V0.692L0.897 0.689H0.891V0.695L0.883 0.689L0.880 0.701H0.878V0.686L0.872 0.689H0.869L0.875 0.681H0.866V0.675H0.875L0.864 0.661H0.866L0.875 0.667H0.880L0.878 0.661ZM0.900 0.664H0.905Q0.905 0.669 0.900 0.669ZM0.847 0.675H0.855V0.678H0.847ZM0.858 0.675H0.864V0.678H0.858ZM0.916 0.678H0.928V0.681H0.916ZM0.902 0.692H0.908V0.695H0.902ZM0.891 0.701H0.894V0.706H0.891ZM0.634 0.709H0.637Q0.637 0.729 0.643 0.742Q0.637 0.742 0.637 0.748H0.634ZM0.668 0.712H0.671V0.723L0.668 0.728H0.671Q0.666 0.748 0.659 0.748Q0.668 0.716 0.668 0.712ZM0.821 0.717H0.824V0.723H0.821ZM0.604 0.720H0.607L0.615 0.748H0.612Q0.607 0.748 0.607 0.742H0.609Q0.604 0.731 0.604 0.723ZM0.572 0.731H0.575V0.737H0.572ZM0.575 0.737H0.578V0.742H0.575ZM0.578 0.742H0.584Q0.584 0.748 0.595 0.759V0.762L0.590 0.759Q0.590 0.762 0.587 0.762Q0.578 0.748 0.578 0.742ZM0.690 0.745V0.753H0.685V0.750Q0.685 0.745 0.690 0.745ZM0.615 0.748H0.618V0.753H0.615ZM0.545 0.750Q0.567 0.770 0.572 0.770Q0.570 0.776 0.570 0.779Q0.566 0.779 0.545 0.753ZM0.618 0.753H0.620V0.759H0.618ZM0.721 0.753V0.756Q0.717 0.767 0.713 0.767H0.704V0.764Q0.710 0.764 0.721 0.753ZM0.612 0.759H0.615V0.767H0.612ZM0.654 0.762H0.656V0.767H0.654ZM0.590 0.764H0.592V0.770H0.590ZM0.598 0.764Q0.604 0.765 0.604 0.770V0.773Q0.598 0.773 0.598 0.767ZM0.643 0.767H0.645V0.773H0.643ZM0.673 0.767H0.676V0.773H0.673ZM0.604 0.773Q0.609 0.774 0.609 0.779H0.604ZM0.651 0.773H0.654V0.779H0.651ZM0.648 0.776 0.651 0.782V0.787Q0.651 0.793 0.645 0.793Q0.645 0.783 0.643 0.779ZM0.805 0.776H0.810V0.779H0.805ZM0.570 0.779Q0.574 0.779 0.578 0.787V0.790Q0.575 0.790 0.570 0.782ZM0.598 0.779H0.601V0.787H0.598ZM0.609 0.779H0.612V0.785H0.609ZM0.679 0.779H0.682V0.785H0.679ZM0.531 0.782H0.534Q0.553 0.788 0.553 0.793V0.798Q0.532 0.788 0.531 0.782ZM0.581 0.782H0.584Q0.588 0.782 0.592 0.790H0.590Q0.586 0.790 0.581 0.782ZM0.618 0.782 0.620 0.787V0.796Q0.616 0.796 0.612 0.785ZM0.631 0.782Q0.637 0.782 0.637 0.787L0.631 0.790ZM0.578 0.790H0.584V0.796Q0.578 0.796 0.578 0.790ZM0.592 0.790H0.595L0.604 0.796V0.790H0.607Q0.607 0.796 0.609 0.801H0.607Q0.593 0.796 0.592 0.790ZM0.872 0.790Q0.877 0.793 0.883 0.793V0.801Q0.883 0.805 0.875 0.810L0.869 0.798Q0.872 0.793 0.872 0.790ZM0.707 0.793Q0.707 0.798 0.715 0.812Q0.684 0.826 0.682 0.826Q0.702 0.793 0.707 0.793ZM0.561 0.796H0.567V0.798H0.561ZM0.575 0.801H0.581V0.807Q0.575 0.807 0.575 0.801ZM0.693 0.801H0.696V0.804Q0.691 0.804 0.685 0.810V0.807Q0.685 0.801 0.693 0.801ZM0.864 0.801H0.869V0.804H0.864ZM0.561 0.804H0.567V0.807H0.561ZM0.590 0.807H0.592Q0.598 0.808 0.598 0.812H0.595Q0.590 0.812 0.590 0.807ZM0.512 0.810H0.514Q0.517 0.810 0.517 0.812Q0.520 0.812 0.520 0.810Q0.539 0.815 0.553 0.815V0.818Q0.545 0.818 0.545 0.823Q0.512 0.814 0.512 0.810ZM0.570 0.810H0.572Q0.578 0.811 0.578 0.815H0.575Q0.570 0.815 0.570 0.810ZM0.556 0.818H0.564V0.821H0.556ZM0.567 0.821H0.572V0.823H0.567ZM0.587 0.821H0.592Q0.592 0.826 0.587 0.826ZM0.548 0.823H0.556V0.826H0.548ZM0.556 0.826H0.561L0.575 0.829V0.834Q0.561 0.829 0.556 0.829ZM0.749 0.829H0.780V0.832Q0.773 0.832 0.769 0.834V0.832Q0.763 0.834 0.740 0.837Q0.740 0.834 0.749 0.829ZM0.676 0.832Q0.676 0.835 0.707 0.871L0.690 0.885Q0.659 0.854 0.654 0.854Q0.654 0.851 0.676 0.832ZM0.575 0.834Q0.581 0.837 0.584 0.837V0.840H0.567V0.837Q0.575 0.837 0.575 0.834ZM0.520 0.840Q0.523 0.840 0.523 0.843L0.537 0.840H0.548V0.843H0.542V0.845H0.550V0.848H0.539L0.534 0.845V0.848L0.528 0.845Q0.525 0.845 0.525 0.848Q0.522 0.845 0.506 0.845V0.843Q0.520 0.843 0.520 0.840ZM0.553 0.845H0.556Q0.561 0.848 0.567 0.848V0.851H0.556ZM0.570 0.848H0.575V0.851H0.570ZM0.581 0.848Q0.587 0.851 0.590 0.851V0.854L0.575 0.857ZM0.726 0.851H0.732V0.854H0.726ZM0.735 0.854H0.743V0.857H0.735ZM0.567 0.857H0.572V0.860H0.567ZM0.651 0.857V0.860Q0.636 0.889 0.629 0.893Q0.612 0.887 0.612 0.882Q0.618 0.882 0.651 0.857ZM0.746 0.857 0.780 0.863V0.866H0.769V0.863L0.763 0.866Q0.757 0.863 0.754 0.863Q0.754 0.866 0.751 0.866Q0.751 0.863 0.749 0.863Q0.749 0.866 0.746 0.866ZM0.737 0.860H0.743V0.863H0.737ZM0.592 0.863V0.868Q0.588 0.868 0.581 0.874H0.578L0.581 0.868H0.575V0.866Q0.588 0.866 0.592 0.863ZM0.548 0.866 0.545 0.871Q0.548 0.871 0.548 0.874Q0.532 0.874 0.514 0.880V0.874Q0.525 0.874 0.534 0.868V0.871Q0.543 0.866 0.548 0.866ZM0.659 0.866 0.685 0.893Q0.679 0.903 0.679 0.910H0.676V0.904Q0.654 0.915 0.654 0.924Q0.651 0.924 0.651 0.921Q0.634 0.927 0.634 0.935L0.629 0.932Q0.611 0.932 0.604 0.974H0.598L0.607 0.944H0.604Q0.570 0.956 0.570 0.961L0.564 0.958Q0.517 0.974 0.458 0.974V0.949H0.461L0.500 0.961Q0.506 0.949 0.514 0.921Q0.512 0.921 0.512 0.918Q0.538 0.918 0.604 0.888Q0.604 0.893 0.634 0.904Q0.656 0.866 0.659 0.866ZM0.556 0.868H0.567V0.871H0.556ZM0.718 0.871H0.724V0.874H0.718ZM0.572 0.874H0.578Q0.578 0.880 0.572 0.880ZM0.724 0.874H0.729V0.877H0.724ZM0.710 0.877H0.713Q0.718 0.880 0.721 0.880V0.882H0.713ZM0.587 0.880H0.595V0.882Q0.595 0.886 0.587 0.891V0.888L0.590 0.882Q0.587 0.882 0.587 0.880ZM0.735 0.880H0.737Q0.766 0.892 0.766 0.896H0.763Q0.735 0.891 0.735 0.885Q0.737 0.885 0.737 0.882Q0.735 0.882 0.735 0.880ZM0.561 0.882H0.567V0.885H0.561ZM0.724 0.882H0.732V0.885H0.724ZM0.704 0.885H0.707Q0.713 0.886 0.713 0.891H0.710Q0.704 0.891 0.704 0.885ZM0.553 0.888H0.559V0.891H0.553ZM0.567 0.888H0.572V0.891H0.567ZM0.550 0.891H0.553V0.899Q0.529 0.907 0.528 0.907Q0.528 0.905 0.550 0.891ZM0.561 0.891H0.567V0.893H0.561ZM0.699 0.893H0.704V0.896H0.699ZM0.690 0.896H0.696V0.902Q0.690 0.902 0.690 0.896ZM0.704 0.896H0.710V0.899H0.704ZM0.724 0.902H0.726Q0.754 0.923 0.754 0.927H0.751Q0.725 0.914 0.724 0.907Q0.726 0.907 0.726 0.904Q0.724 0.904 0.724 0.902ZM0.523 0.907H0.528V0.910H0.523ZM0.699 0.907Q0.704 0.908 0.704 0.913H0.699ZM0.671 0.915H0.673V0.921H0.671ZM0.682 0.918H0.685V0.924H0.682ZM0.707 0.918H0.710Q0.710 0.922 0.726 0.947V0.949L0.704 0.929Q0.707 0.925 0.707 0.918ZM0.391 0.921Q0.434 0.924 0.450 0.924Q0.485 0.921 0.486 0.921Q0.503 0.925 0.503 0.929Q0.497 0.947 0.497 0.949Q0.489 0.949 0.453 0.938L0.450 0.944V0.974H0.425V0.972Q0.423 0.938 0.416 0.938Q0.412 0.938 0.377 0.952Q0.377 0.945 0.369 0.929ZM0.662 0.927H0.665V0.932H0.662ZM0.676 0.927H0.679V0.932H0.676ZM0.685 0.927H0.688V0.932H0.685ZM0.640 0.929H0.643V0.938H0.640ZM0.654 0.929H0.656V0.935H0.654ZM0.631 0.938H0.634Q0.634 0.949 0.640 0.949L0.637 0.966H0.631Q0.631 0.963 0.634 0.963L0.631 0.958ZM0.690 0.938Q0.690 0.943 0.696 0.952L0.690 0.955Q0.690 0.950 0.685 0.944Q0.685 0.938 0.690 0.938ZM0.659 0.947H0.665Q0.665 0.952 0.668 0.952Q0.665 0.957 0.665 0.966H0.662ZM0.693 0.955H0.696V0.961H0.693ZM0.665 0.966H0.668V0.980H0.665Z" fill="black"/>
</svg>
