<svg xmlns="http://www.w3.org/2000/svg" viewBox="0 0 1 1" preserveAspectRatio="xMidYMid meet">
  <path d="M0.114 -0.016Q0.114 -0.010 0.134 0.001Q0.131 0.010 0.128 0.010L0.131 0.024V0.030L0.117 0.027Q0.114 0.027 0.094 0.033V0.013Q0.086 0.013 0.080 0.001Q0.087 0.001 0.114 -0.016ZM0.258 0.007Q0.264 0.008 0.264 0.013H0.258ZM0.352 0.024H0.357Q0.357 0.030 0.352 0.030ZM0.349 0.030H0.352V0.036H0.349ZM0.173 0.038H0.219Q0.223 0.039 0.267 0.157Q0.255 0.161 0.255 0.166L0.264 0.208H0.253Q0.227 0.208 0.227 0.182Q0.224 0.182 0.213 0.149Q0.216 0.149 0.216 0.146Q0.211 0.146 0.202 0.120Q0.210 0.120 0.216 0.108Q0.205 0.089 0.202 0.089H0.196L0.191 0.092Q0.191 0.075 0.176 0.075V0.069H0.179L0.185 0.072Q0.173 0.045 0.173 0.038ZM0.824 0.038H0.829V0.041Q0.827 0.045 0.827 0.055H0.835L0.832 0.061Q0.835 0.065 0.835 0.075Q0.828 0.075 0.821 0.080H0.818Q0.818 0.077 0.809 0.069Q0.818 0.038 0.824 0.038ZM0.419 0.044H0.425V0.050H0.419ZM0.855 0.044H0.861V0.047H0.855ZM0.861 0.050H0.867V0.052H0.861ZM0.844 0.055H0.850V0.058H0.844ZM0.850 0.058Q0.855 0.061 0.858 0.061Q0.858 0.066 0.853 0.066L0.850 0.061ZM0.807 0.072H0.809V0.086Q0.804 0.086 0.804 0.080Q0.807 0.075 0.807 0.072ZM0.171 0.078H0.173Q0.179 0.079 0.179 0.083H0.176Q0.171 0.083 0.171 0.078ZM0.853 0.080 0.855 0.086 0.850 0.089 0.847 0.083ZM0.179 0.083H0.182Q0.188 0.084 0.188 0.089H0.185Q0.179 0.089 0.179 0.083ZM0.801 0.086H0.804V0.092H0.801ZM0.835 0.086Q0.847 0.098 0.847 0.108Q0.841 0.108 0.829 0.089ZM0.948 0.086 0.951 0.106V0.108H0.948Q0.948 0.100 0.942 0.089ZM0.454 0.089 0.468 0.097 0.465 0.103V0.106L0.468 0.111Q0.455 0.111 0.451 0.114Q0.449 0.103 0.442 0.103V0.097Q0.448 0.097 0.454 0.089ZM0.153 0.092Q0.163 0.097 0.168 0.097V0.100H0.162Q0.156 0.097 0.153 0.097ZM0.416 0.092H0.422V0.094H0.416ZM0.179 0.094H0.185V0.097H0.179ZM0.798 0.094 0.821 0.123Q0.821 0.120 0.824 0.120Q0.824 0.123 0.827 0.123V0.114Q0.815 0.099 0.815 0.094H0.818Q0.832 0.107 0.832 0.114H0.835L0.844 0.108V0.114Q0.844 0.122 0.829 0.129Q0.829 0.126 0.827 0.126Q0.827 0.134 0.815 0.143Q0.815 0.146 0.827 0.160L0.717 0.457Q0.771 0.447 0.853 0.383H0.855Q0.848 0.397 0.787 0.437Q0.784 0.437 0.736 0.460Q0.736 0.457 0.734 0.457V0.465Q0.749 0.462 0.751 0.462H0.756V0.465Q0.705 0.475 0.705 0.485V0.493H0.708Q0.759 0.488 0.824 0.448Q0.853 0.428 0.867 0.409L0.886 0.392V0.395Q0.844 0.460 0.756 0.490H0.753V0.499H0.759Q0.781 0.499 0.812 0.488Q0.812 0.490 0.815 0.490Q0.815 0.485 0.844 0.474Q0.841 0.479 0.798 0.507Q0.798 0.502 0.793 0.502L0.787 0.504V0.502Q0.772 0.507 0.765 0.507Q0.717 0.507 0.705 0.496H0.702Q0.688 0.534 0.688 0.539H0.697Q0.707 0.516 0.722 0.516Q0.699 0.535 0.699 0.550L0.705 0.553H0.708Q0.708 0.542 0.742 0.525H0.745V0.516H0.731V0.513H0.748Q0.781 0.527 0.781 0.545H0.784L0.781 0.550Q0.784 0.565 0.784 0.567Q0.773 0.587 0.773 0.595Q0.777 0.595 0.793 0.612Q0.795 0.607 0.795 0.604H0.801L0.793 0.618Q0.798 0.632 0.801 0.632Q0.810 0.626 0.835 0.621Q0.835 0.623 0.838 0.623Q0.838 0.621 0.841 0.621V0.623L0.847 0.621Q0.886 0.635 0.886 0.675V0.678Q0.886 0.713 0.838 0.723H0.824Q0.819 0.723 0.795 0.711Q0.795 0.728 0.751 0.759H0.748V0.767Q0.765 0.770 0.765 0.799Q0.762 0.805 0.762 0.808H0.759Q0.757 0.770 0.728 0.770Q0.702 0.778 0.702 0.793H0.705L0.702 0.799V0.802Q0.705 0.825 0.720 0.825V0.827H0.711Q0.694 0.811 0.694 0.793V0.785L0.699 0.776V0.773Q0.699 0.767 0.694 0.767V0.770L0.688 0.767H0.685Q0.682 0.767 0.682 0.770Q0.637 0.758 0.637 0.731Q0.627 0.711 0.623 0.711L0.618 0.714V0.711L0.604 0.720Q0.604 0.717 0.601 0.717Q0.601 0.720 0.569 0.734H0.566L0.569 0.720Q0.561 0.723 0.561 0.725L0.555 0.723H0.546V0.728H0.552V0.731Q0.545 0.740 0.541 0.762H0.538V0.756H0.535L0.524 0.765H0.521V0.759Q0.521 0.758 0.532 0.745V0.739L0.530 0.725H0.535V0.720H0.530Q0.530 0.718 0.541 0.706V0.703H0.530Q0.530 0.700 0.532 0.700L0.530 0.695V0.689H0.544Q0.544 0.703 0.552 0.703Q0.569 0.690 0.569 0.683L0.578 0.689Q0.578 0.686 0.581 0.686Q0.581 0.689 0.584 0.689V0.686Q0.581 0.681 0.581 0.678Q0.597 0.666 0.606 0.666Q0.606 0.655 0.595 0.637V0.632Q0.606 0.632 0.606 0.623V0.618L0.604 0.612Q0.615 0.612 0.615 0.590H0.606V0.576H0.620V0.581H0.623Q0.623 0.575 0.784 0.137L0.790 0.140Q0.795 0.140 0.795 0.134Q0.790 0.123 0.790 0.117H0.793Q0.799 0.117 0.801 0.132H0.809V0.120Q0.798 0.105 0.798 0.094ZM0.199 0.097 0.205 0.106V0.111H0.199Q0.199 0.107 0.194 0.100ZM0.156 0.106H0.162Q0.168 0.108 0.171 0.108V0.111H0.162Q0.156 0.111 0.156 0.106ZM0.185 0.106H0.191V0.108H0.185ZM0.951 0.108H0.954V0.114H0.951ZM0.173 0.111H0.182V0.114H0.173ZM0.182 0.114H0.188V0.117H0.182ZM0.162 0.117 0.179 0.120V0.123H0.162ZM0.094 0.120Q0.094 0.126 0.108 0.126L0.103 0.134V0.137L0.106 0.143L0.089 0.146Q0.089 0.140 0.080 0.132ZM0.954 0.123H0.957L0.960 0.157V0.177Q0.960 0.240 0.934 0.310H0.931V0.304Q0.934 0.299 0.934 0.296L0.928 0.293V0.296Q0.931 0.296 0.931 0.299Q0.925 0.299 0.912 0.329Q0.893 0.360 0.872 0.383Q0.872 0.372 0.867 0.372Q0.930 0.305 0.948 0.230Q0.954 0.208 0.954 0.202Q0.954 0.199 0.951 0.199Q0.957 0.188 0.957 0.168V0.166Q0.957 0.147 0.954 0.129ZM0.162 0.129H0.173V0.132H0.162ZM0.414 0.146H0.428V0.152H0.419Q0.414 0.152 0.414 0.146ZM0.527 0.146Q0.527 0.150 0.532 0.157Q0.527 0.157 0.527 0.166Q0.520 0.160 0.516 0.160V0.149Q0.522 0.149 0.527 0.146ZM0.419 0.157H0.425V0.160H0.419ZM0.269 0.166 0.303 0.259 0.298 0.256Q0.293 0.256 0.278 0.296H0.275Q0.261 0.292 0.261 0.273Q0.272 0.251 0.272 0.244L0.267 0.241H0.247Q0.238 0.215 0.238 0.213L0.244 0.216H0.267Q0.272 0.216 0.272 0.211Q0.272 0.202 0.264 0.168ZM0.482 0.180Q0.490 0.199 0.504 0.199Q0.490 0.207 0.490 0.227Q0.459 0.218 0.459 0.197Q0.457 0.197 0.457 0.194Q0.468 0.194 0.482 0.180ZM0.052 0.205Q0.055 0.205 0.055 0.208L0.075 0.205H0.083V0.208Q0.083 0.220 0.049 0.222Q0.049 0.216 0.040 0.216Q0.040 0.213 0.052 0.205ZM0.185 0.208H0.191V0.211H0.185ZM0.182 0.211H0.185Q0.185 0.215 0.168 0.225L0.165 0.219Q0.171 0.219 0.182 0.211ZM0.188 0.219H0.191Q0.191 0.224 0.179 0.230H0.173Q0.173 0.227 0.188 0.219ZM0.083 0.225V0.230H0.063V0.227Q0.072 0.227 0.083 0.225ZM0.194 0.227V0.230Q0.194 0.235 0.185 0.239L0.182 0.233Q0.186 0.233 0.194 0.227ZM0.055 0.233H0.058V0.239H0.055ZM0.253 0.250H0.261V0.253Q0.258 0.259 0.258 0.262Q0.253 0.262 0.253 0.256ZM0.136 0.264Q0.142 0.267 0.148 0.267V0.279Q0.138 0.282 0.136 0.282L0.131 0.273Q0.136 0.273 0.136 0.264ZM0.298 0.267H0.301Q0.312 0.267 0.352 0.392Q0.357 0.400 0.496 0.773H0.499Q0.502 0.768 0.502 0.765H0.510V0.767L0.502 0.782V0.785L0.513 0.822L0.490 0.833V0.830Q0.479 0.833 0.479 0.844H0.482Q0.492 0.844 0.504 0.836Q0.504 0.839 0.507 0.839Q0.507 0.834 0.518 0.830L0.521 0.844H0.527V0.836H0.521V0.833Q0.521 0.827 0.544 0.822Q0.541 0.806 0.541 0.799Q0.544 0.795 0.544 0.785H0.541V0.782Q0.555 0.782 0.555 0.759Q0.563 0.739 0.566 0.739L0.590 0.799H0.595L0.604 0.793Q0.604 0.796 0.606 0.796Q0.606 0.792 0.629 0.782Q0.629 0.785 0.632 0.785Q0.633 0.779 0.637 0.779Q0.637 0.782 0.640 0.788Q0.633 0.788 0.629 0.796Q0.625 0.805 0.609 0.808Q0.606 0.813 0.606 0.816L0.601 0.813Q0.595 0.813 0.595 0.822L0.587 0.816Q0.569 0.867 0.561 0.867Q0.554 0.867 0.541 0.875Q0.541 0.872 0.538 0.872Q0.538 0.877 0.502 0.889V0.892Q0.527 0.952 0.532 0.958Q0.527 0.980 0.521 0.980Q0.496 0.902 0.487 0.892H0.490Q0.490 0.881 0.473 0.878V0.875Q0.482 0.875 0.482 0.872L0.286 0.343Q0.284 0.343 0.269 0.355L0.272 0.341V0.304H0.275L0.281 0.307Q0.291 0.293 0.298 0.267ZM0.493 0.285Q0.493 0.289 0.499 0.299L0.482 0.304V0.327H0.485Q0.487 0.327 0.487 0.324L0.499 0.329Q0.502 0.324 0.502 0.321H0.504V0.335L0.485 0.329L0.471 0.335V0.329L0.473 0.315Q0.469 0.315 0.462 0.301Q0.477 0.301 0.493 0.285ZM0.258 0.299H0.261V0.315Q0.261 0.325 0.258 0.341L0.267 0.357L0.261 0.360H0.255L0.244 0.307ZM0.502 0.301 0.516 0.304Q0.513 0.310 0.513 0.313Q0.502 0.308 0.502 0.304ZM0.448 0.310H0.454V0.313H0.448ZM0.928 0.313H0.931V0.318Q0.926 0.328 0.926 0.332H0.923V0.327Q0.928 0.317 0.928 0.313ZM0.275 0.321V0.341H0.283L0.278 0.321ZM0.142 0.329Q0.152 0.338 0.159 0.338Q0.159 0.343 0.153 0.343H0.134V0.341Q0.142 0.341 0.142 0.329ZM0.920 0.341V0.343Q0.920 0.349 0.914 0.349V0.346Q0.915 0.341 0.920 0.341ZM0.139 0.352H0.156V0.355L0.139 0.357ZM0.909 0.355H0.912V0.360H0.909ZM0.360 0.360Q0.360 0.366 0.371 0.366Q0.369 0.383 0.355 0.383Q0.355 0.374 0.349 0.374V0.369Q0.353 0.369 0.360 0.360ZM0.428 0.363H0.434V0.366L0.431 0.372Q0.434 0.372 0.434 0.374H0.428ZM0.224 0.366H0.230V0.369H0.224ZM0.903 0.369V0.372Q0.903 0.376 0.895 0.380V0.377Q0.895 0.374 0.903 0.369ZM0.858 0.374H0.864V0.377Q0.864 0.383 0.858 0.383H0.855Q0.858 0.377 0.858 0.374ZM0.895 0.380V0.383Q0.895 0.387 0.886 0.392V0.389Q0.886 0.385 0.895 0.380ZM0.853 0.403V0.406Q0.853 0.412 0.847 0.412H0.844Q0.844 0.407 0.853 0.403ZM0.838 0.415H0.841Q0.841 0.418 0.832 0.423H0.829Q0.829 0.419 0.838 0.415ZM0.818 0.429H0.824V0.431H0.818ZM0.892 0.429V0.431Q0.887 0.443 0.883 0.443H0.881Q0.888 0.429 0.892 0.429ZM0.815 0.431H0.818Q0.817 0.437 0.804 0.443V0.437Q0.809 0.437 0.815 0.431ZM0.801 0.443Q0.801 0.450 0.767 0.460Q0.767 0.453 0.801 0.443ZM0.878 0.443H0.881Q0.879 0.452 0.864 0.460H0.861Q0.861 0.455 0.878 0.443ZM0.756 0.460H0.765V0.462H0.756ZM0.858 0.460H0.861Q0.861 0.464 0.850 0.471V0.468Q0.850 0.464 0.858 0.460ZM0.844 0.471H0.850V0.474H0.844ZM0.847 0.504Q0.843 0.519 0.838 0.519Q0.838 0.513 0.832 0.513Q0.832 0.507 0.847 0.504ZM0.795 0.507H0.798Q0.798 0.513 0.793 0.513H0.790Q0.791 0.507 0.795 0.507ZM0.832 0.513Q0.832 0.516 0.812 0.527H0.807Q0.807 0.519 0.832 0.513ZM0.731 0.539V0.548Q0.756 0.548 0.756 0.564H0.759Q0.763 0.564 0.770 0.553V0.550Q0.770 0.534 0.756 0.522Q0.734 0.539 0.731 0.539ZM0.781 0.519H0.784Q0.784 0.523 0.776 0.527V0.525Q0.777 0.519 0.781 0.519ZM0.835 0.522H0.841Q0.827 0.556 0.827 0.564H0.821ZM0.801 0.530H0.804V0.536L0.787 0.545H0.784V0.542Q0.788 0.542 0.801 0.530ZM0.532 0.539H0.546V0.553H0.530Q0.532 0.548 0.532 0.539ZM0.569 0.539H0.584V0.553H0.581Q0.578 0.553 0.578 0.550L0.572 0.553H0.569ZM0.606 0.539H0.620V0.553H0.606ZM0.762 0.539V0.542Q0.762 0.545 0.753 0.550H0.751Q0.751 0.545 0.762 0.539ZM0.677 0.570Q0.682 0.567 0.691 0.567V0.559Q0.691 0.553 0.685 0.553Q0.677 0.556 0.677 0.570ZM0.702 0.564Q0.710 0.579 0.720 0.581Q0.717 0.573 0.714 0.573Q0.720 0.562 0.720 0.553H0.714Q0.709 0.553 0.702 0.564ZM0.731 0.556Q0.731 0.562 0.722 0.562V0.573H0.728Q0.728 0.564 0.736 0.564L0.734 0.578V0.587L0.751 0.573Q0.749 0.562 0.745 0.562H0.736Q0.736 0.556 0.731 0.556ZM0.751 0.578V0.584H0.756Q0.760 0.584 0.767 0.573V0.564Q0.751 0.575 0.751 0.578ZM0.818 0.564H0.821V0.573Q0.818 0.578 0.818 0.581Q0.822 0.581 0.827 0.590V0.601Q0.818 0.601 0.818 0.606Q0.806 0.601 0.801 0.601V0.592Q0.818 0.574 0.818 0.564ZM0.530 0.576H0.546V0.590H0.530ZM0.566 0.576H0.584V0.590H0.566L0.569 0.584V0.581ZM0.731 0.615V0.629Q0.743 0.629 0.762 0.655Q0.763 0.649 0.767 0.649V0.652Q0.746 0.686 0.739 0.686Q0.735 0.686 0.725 0.703H0.720V0.709Q0.742 0.717 0.753 0.717Q0.753 0.714 0.756 0.714V0.717Q0.760 0.717 0.787 0.700L0.784 0.672V0.666Q0.784 0.659 0.793 0.640Q0.793 0.636 0.781 0.629Q0.781 0.621 0.753 0.612H0.745ZM0.530 0.612H0.532L0.538 0.615Q0.538 0.612 0.541 0.612L0.544 0.618V0.626Q0.541 0.626 0.535 0.629ZM0.569 0.612Q0.576 0.612 0.578 0.626H0.569ZM0.708 0.632V0.635H0.720V0.626H0.714Q0.708 0.627 0.708 0.632ZM0.776 0.632H0.781V0.635Q0.781 0.640 0.770 0.646V0.643Q0.776 0.637 0.776 0.632ZM0.720 0.643V0.652H0.734V0.666Q0.731 0.666 0.731 0.663L0.725 0.666H0.720Q0.720 0.655 0.714 0.655H0.711V0.658Q0.711 0.680 0.731 0.680Q0.747 0.671 0.753 0.660Q0.753 0.652 0.734 0.640ZM0.801 0.672V0.680Q0.801 0.720 0.844 0.720Q0.875 0.707 0.875 0.680Q0.875 0.666 0.847 0.646H0.838L0.832 0.649V0.646Q0.816 0.646 0.801 0.672ZM0.590 0.646V0.649Q0.590 0.666 0.575 0.666Q0.575 0.663 0.572 0.663V0.669H0.569Q0.569 0.663 0.566 0.663Q0.571 0.646 0.590 0.646ZM0.530 0.649 0.546 0.652V0.666H0.530ZM0.697 0.669V0.672Q0.702 0.683 0.702 0.692H0.711Q0.717 0.692 0.717 0.686Q0.713 0.686 0.697 0.669ZM0.711 0.695V0.703H0.717V0.700Q0.717 0.695 0.711 0.695ZM0.623 0.723Q0.623 0.733 0.640 0.765V0.770Q0.637 0.770 0.637 0.767L0.623 0.776Q0.623 0.773 0.620 0.773Q0.620 0.779 0.615 0.779H0.609Q0.613 0.775 0.618 0.756Q0.615 0.752 0.615 0.742H0.612Q0.598 0.782 0.598 0.785H0.592Q0.592 0.776 0.575 0.742Q0.582 0.742 0.601 0.731Q0.601 0.734 0.604 0.734Q0.604 0.730 0.623 0.723ZM0.804 0.737H0.809V0.742Q0.809 0.748 0.804 0.748H0.798V0.742Q0.799 0.737 0.804 0.737ZM0.532 0.785H0.535V0.790H0.532ZM0.736 0.790 0.745 0.802V0.811Q0.740 0.811 0.734 0.816H0.728Q0.724 0.816 0.720 0.808V0.799Q0.722 0.790 0.736 0.790ZM0.521 0.799H0.524V0.805H0.521ZM0.756 0.808H0.759V0.816L0.753 0.819V0.816Q0.756 0.811 0.756 0.808ZM0.739 0.825H0.745V0.827H0.739ZM0.722 0.827H0.736V0.830H0.722ZM0.578 0.839H0.581V0.844H0.578ZM0.561 0.878V0.884Q0.541 0.932 0.541 0.941L0.535 0.938Q0.535 0.941 0.532 0.941Q0.516 0.906 0.516 0.898L0.538 0.886Q0.538 0.889 0.541 0.889Q0.541 0.885 0.561 0.878Z" fill="black"/>
</svg>
