<svg xmlns="http://www.w3.org/2000/svg" viewBox="0 0 1 1" preserveAspectRatio="xMidYMid meet">
  <path d="M0.867 -0.099H0.878Q0.882 -0.099 0.892 -0.085V-0.065Q0.861 -0.091 0.861 -0.093Q0.862 -0.099 0.867 -0.099ZM0.790 -0.090H0.796Q0.800 -0.090 0.804 -0.082V-0.062L0.818 -0.059V-0.053Q0.807 -0.056 0.798 -0.056V-0.076Q0.798 -0.082 0.793 -0.082H0.790V-0.068H0.784L0.782 -0.082Q0.782 -0.085 0.790 -0.090ZM0.853 -0.073 0.875 -0.056Q0.873 -0.051 0.873 -0.045H0.870Q0.870 -0.051 0.855 -0.062Q0.853 -0.067 0.853 -0.073ZM0.920 -0.071H0.934Q0.942 -0.065 0.946 -0.065V-0.051Q0.946 -0.045 0.940 -0.045H0.932V-0.051H0.940V-0.056H0.903V-0.062Q0.906 -0.071 0.920 -0.071ZM0.765 -0.065H0.770V-0.062Q0.765 -0.053 0.765 -0.048Q0.759 -0.048 0.759 -0.053V-0.059Q0.760 -0.065 0.765 -0.065ZM0.697 -0.059H0.708Q0.708 -0.053 0.702 -0.053Q0.697 -0.053 0.697 -0.059ZM0.884 -0.059H0.889V-0.056H0.884ZM0.677 -0.053H0.679Q0.685 -0.053 0.685 -0.048Q0.681 -0.048 0.671 -0.039H0.668V-0.045Q0.668 -0.049 0.677 -0.053ZM0.776 -0.053Q0.782 -0.053 0.782 -0.048V-0.045H0.765V-0.048Q0.769 -0.048 0.776 -0.053ZM0.810 -0.048H0.818Q0.818 -0.041 0.796 -0.039V-0.045ZM0.867 -0.045H0.870V-0.042Q0.832 -0.025 0.827 -0.025Q0.827 -0.021 0.815 -0.013H0.813V-0.019Q0.843 -0.045 0.867 -0.045ZM0.912 -0.045Q0.921 -0.039 0.929 -0.039V-0.036Q0.926 -0.036 0.920 -0.033Q0.915 -0.036 0.912 -0.036Q0.912 -0.033 0.909 -0.033L0.903 -0.042Q0.909 -0.045 0.912 -0.045ZM0.887 -0.039H0.892Q0.918 -0.024 0.918 -0.005Q0.912 0.004 0.912 0.009H0.901Q0.889 -0.002 0.878 -0.002Q0.878 0.001 0.875 0.001L0.870 -0.008V-0.033H0.875Q0.889 -0.027 0.898 0.001H0.901V-0.008Q0.901 -0.025 0.887 -0.039ZM0.790 -0.033H0.793V-0.027H0.790ZM0.787 -0.022H0.790V0.012H0.796Q0.801 -0.011 0.807 -0.011L0.810 -0.005Q0.798 0.004 0.796 0.026H0.793Q0.793 0.018 0.784 0.012L0.787 0.006ZM0.688 -0.019H0.697V-0.011Q0.693 -0.011 0.688 -0.019ZM0.714 -0.011 0.717 -0.005H0.708Q0.709 -0.011 0.714 -0.011ZM-0.045 -0.005H-0.037Q-0.037 0.001 -0.020 0.009Q-0.005 0.029 -0.003 0.029L-0.006 0.034V0.040Q-0.006 0.043 -0.003 0.043Q-0.006 0.048 -0.006 0.057H-0.008Q-0.008 0.047 -0.028 0.037Q-0.035 0.030 -0.039 0.001Q-0.045 0.001 -0.045 -0.005ZM0.654 -0.002H0.660V0.001H0.654ZM0.699 0.006 0.705 0.009H0.708L0.714 0.006Q0.714 0.009 0.717 0.009Q0.717 0.006 0.720 0.006L0.723 0.012Q0.717 0.026 0.705 0.026L0.697 0.009Q0.699 0.009 0.699 0.006ZM0.773 0.009H0.776L0.793 0.074Q0.770 0.058 0.770 0.034Q0.773 0.024 0.773 0.009ZM0.821 0.012 0.829 0.026Q0.810 0.035 0.810 0.048H0.807V0.043L0.821 0.020V0.017H0.815Q0.813 0.017 0.798 0.034Q0.798 0.031 0.796 0.026Q0.814 0.009 0.821 0.009ZM0.832 0.012Q0.837 0.012 0.841 0.023H0.835ZM0.623 0.015 0.646 0.048Q0.651 0.048 0.651 0.043Q0.663 0.047 0.663 0.051Q0.652 0.060 0.646 0.060Q0.618 0.053 0.618 0.032V0.020Q0.618 0.015 0.623 0.015ZM0.003 0.037H0.049Q0.066 0.107 0.068 0.114Q0.054 0.149 0.043 0.198H0.040Q0.003 0.135 0.003 0.111V0.108Q0.008 0.108 0.017 0.145L0.032 0.165V0.162Q0.003 0.045 0.003 0.037ZM0.790 0.037Q0.797 0.037 0.798 0.051H0.793ZM0.898 0.037H0.912Q0.927 0.045 0.934 0.068Q0.943 0.068 0.943 0.074Q0.929 0.093 0.929 0.100H0.923Q0.923 0.090 0.898 0.037ZM0.926 0.037H0.937V0.048Q0.933 0.048 0.926 0.037ZM0.685 0.040H0.697Q0.702 0.041 0.702 0.046H0.691Q0.685 0.046 0.685 0.040ZM0.887 0.040Q0.899 0.053 0.920 0.114Q0.912 0.140 0.912 0.153Q0.940 0.162 0.940 0.170H0.937Q0.918 0.170 0.918 0.159H0.909V0.162Q0.909 0.173 0.934 0.179V0.176Q0.945 0.176 0.948 0.204Q0.943 0.212 0.943 0.227H0.934Q0.928 0.218 0.920 0.218L0.926 0.210V0.207H0.920L0.915 0.210Q0.909 0.181 0.873 0.088Q0.879 0.088 0.887 0.040ZM0.702 0.046Q0.706 0.046 0.711 0.054V0.057Q0.706 0.054 0.699 0.054Q0.702 0.049 0.702 0.046ZM0.748 0.046H0.756L0.759 0.060V0.062Q0.746 0.054 0.739 0.054Q0.739 0.051 0.748 0.046ZM0.835 0.048H0.838Q0.844 0.050 0.844 0.054Q0.835 0.056 0.821 0.068H0.818L0.815 0.057Q0.826 0.048 0.835 0.048ZM1.000 0.051H1.008V0.057Q1.003 0.057 1.003 0.062H1.000ZM0.711 0.057H0.714V0.065H0.711ZM0.858 0.057Q0.864 0.058 0.864 0.062H0.858ZM0.694 0.060H0.699V0.062H0.694ZM0.946 0.060H0.948V0.065H0.946ZM0.759 0.062H0.765V0.068Q0.759 0.068 0.759 0.062ZM0.844 0.062H0.850V0.065H0.844ZM0.873 0.062H0.878V0.071H0.873ZM0.807 0.065Q0.815 0.068 0.815 0.082H0.810Q0.810 0.080 0.807 0.065ZM0.838 0.065H0.844Q0.844 0.068 0.827 0.082V0.077Q0.827 0.073 0.838 0.065ZM0.951 0.065H0.954Q0.954 0.072 0.965 0.074V0.079H0.980Q0.980 0.091 0.986 0.091Q0.986 0.088 0.988 0.088Q0.988 0.103 1.003 0.103H1.006Q1.003 0.106 1.003 0.117H1.008V0.120H1.003V0.131H1.006Q1.020 0.128 1.023 0.128H1.025V0.131Q1.003 0.131 1.003 0.156Q1.014 0.160 1.014 0.165H1.011Q0.997 0.165 0.980 0.117Q0.951 0.075 0.951 0.068ZM0.779 0.077H0.782V0.082H0.779ZM0.948 0.079 0.960 0.105Q0.940 0.097 0.937 0.097Q0.943 0.079 0.948 0.079ZM0.782 0.082Q0.787 0.082 0.793 0.103Q0.787 0.103 0.782 0.082ZM0.855 0.091H0.858L0.867 0.103Q0.870 0.103 0.870 0.105Q0.867 0.111 0.867 0.114V0.117H0.870V0.111H0.873Q0.903 0.192 0.903 0.204Q0.901 0.210 0.901 0.212H0.906V0.215Q0.896 0.218 0.895 0.218V0.227H0.901Q0.896 0.238 0.892 0.238Q0.887 0.238 0.870 0.170Q0.867 0.170 0.858 0.148Q0.867 0.132 0.867 0.125Q0.861 0.125 0.861 0.114H0.855L0.850 0.117Q0.853 0.122 0.853 0.125V0.128H0.850Q0.850 0.108 0.841 0.108V0.105Q0.846 0.105 0.855 0.091ZM0.824 0.097H0.827V0.103H0.824ZM0.850 0.105V0.111H0.855Q0.859 0.111 0.864 0.100H0.855Q0.850 0.100 0.850 0.105ZM0.827 0.103H0.829V0.108H0.827ZM0.807 0.105Q0.812 0.108 0.815 0.108V0.111H0.807ZM0.829 0.108H0.832V0.114H0.829ZM0.793 0.114H0.798Q0.804 0.114 0.804 0.120H0.798Q0.793 0.120 0.793 0.114ZM0.835 0.114V0.120H0.829Q0.831 0.114 0.835 0.114ZM1.014 0.114H1.023V0.117H1.014ZM0.782 0.117H0.787V0.120H0.782ZM0.934 0.120Q0.951 0.125 0.951 0.131V0.137L0.948 0.151H0.946Q0.939 0.151 0.934 0.120ZM0.815 0.122H0.818Q0.824 0.125 0.827 0.125V0.131H0.824Q0.818 0.128 0.815 0.128ZM0.926 0.125Q0.932 0.143 0.932 0.153Q0.920 0.149 0.920 0.145V0.131Q0.922 0.125 0.926 0.125ZM1.037 0.125H1.045V0.128H1.037ZM0.232 0.128V0.131L0.238 0.128H0.258L0.263 0.131V0.128Q0.284 0.134 0.292 0.139V0.137Q0.319 0.146 0.346 0.173Q0.367 0.194 0.377 0.238H0.374L0.377 0.244V0.258L0.374 0.278Q0.362 0.272 0.357 0.272V0.270L0.360 0.256H0.357L0.360 0.250Q0.360 0.195 0.295 0.153Q0.295 0.156 0.292 0.156Q0.292 0.149 0.255 0.142V0.145L0.249 0.142H0.235L0.230 0.145V0.142Q0.181 0.153 0.165 0.176Q0.150 0.191 0.150 0.198H0.147V0.181Q0.163 0.149 0.210 0.134Q0.210 0.130 0.232 0.128ZM0.853 0.128H0.855V0.134H0.853ZM0.827 0.131H0.832Q0.838 0.132 0.838 0.137Q0.835 0.137 0.829 0.139Q0.829 0.136 0.827 0.131ZM0.074 0.134Q0.077 0.154 0.077 0.156Q0.052 0.254 0.052 0.303H0.046Q0.046 0.295 0.032 0.295V0.286Q0.041 0.285 0.054 0.253V0.250Q0.054 0.245 0.046 0.218Q0.052 0.190 0.071 0.134ZM0.977 0.134H0.980Q0.992 0.167 0.997 0.170Q0.997 0.179 0.988 0.179V0.184Q1.008 0.189 1.008 0.204H1.006Q0.991 0.190 0.980 0.190H0.977V0.196H0.983V0.198Q0.965 0.198 0.965 0.204Q0.954 0.204 0.948 0.165V0.156H0.951Q0.951 0.170 0.957 0.170Q0.977 0.160 0.977 0.134ZM0.838 0.137H0.841Q0.847 0.137 0.847 0.142H0.844Q0.838 0.142 0.838 0.137ZM0.827 0.142H0.829V0.151H0.827ZM1.011 0.145H1.023V0.148H1.011ZM0.708 0.151Q0.740 0.162 0.756 0.162Q0.755 0.168 0.742 0.173Q0.726 0.170 0.720 0.170Q0.714 0.173 0.711 0.173V0.179L0.717 0.187L0.737 0.184H0.742Q0.756 0.184 0.759 0.196Q0.708 0.198 0.691 0.198Q0.691 0.195 0.682 0.190Q0.682 0.153 0.699 0.153Q0.702 0.153 0.708 0.151ZM1.025 0.156H1.031V0.159H1.025ZM0.855 0.165H0.858Q0.884 0.247 0.884 0.258L0.875 0.292H0.873Q0.867 0.259 0.847 0.196Q0.850 0.196 0.850 0.193Q0.842 0.193 0.838 0.176H0.853Q0.855 0.171 0.855 0.165ZM0.663 0.170H0.674V0.173L0.663 0.176ZM0.815 0.170 0.829 0.173V0.181Q0.815 0.178 0.815 0.173ZM0.080 0.173H0.082Q0.087 0.196 0.091 0.196Q0.085 0.223 0.074 0.315H0.071Q0.064 0.309 0.060 0.309Q0.060 0.270 0.080 0.173ZM0.754 0.173H0.765V0.179H0.759Q0.754 0.179 0.754 0.173ZM0.651 0.181H0.654Q0.654 0.184 0.663 0.215Q0.640 0.206 0.640 0.201V0.198Q0.649 0.204 0.654 0.204V0.201Q0.651 0.196 0.651 0.190ZM0.784 0.181 0.790 0.184Q0.787 0.187 0.787 0.207H0.784Q0.784 0.203 0.779 0.184ZM0.829 0.181H0.832V0.187H0.829ZM0.835 0.190V0.196H0.829Q0.831 0.190 0.835 0.190ZM0.626 0.196 0.629 0.201Q0.578 0.207 0.578 0.250Q0.575 0.250 0.575 0.253Q0.581 0.270 0.581 0.275V0.278H0.578Q0.572 0.256 0.572 0.253Q0.581 0.196 0.626 0.196ZM0.815 0.196V0.201Q0.801 0.201 0.801 0.207Q0.796 0.207 0.796 0.201V0.198ZM0.824 0.196H0.829Q0.829 0.201 0.824 0.201ZM0.145 0.201H0.147V0.207H0.145ZM0.773 0.201H0.776V0.207H0.773ZM0.815 0.201H0.818Q0.824 0.229 0.824 0.233V0.286H0.827Q0.829 0.267 0.829 0.250H0.832L0.858 0.363Q0.844 0.410 0.844 0.422H0.841Q0.841 0.403 0.815 0.295V0.210H0.801V0.207Q0.815 0.207 0.815 0.201ZM0.827 0.201Q0.832 0.204 0.841 0.204Q0.835 0.217 0.829 0.218Q0.829 0.216 0.827 0.201ZM0.133 0.207H0.136V0.224Q0.130 0.224 0.130 0.218Q0.133 0.213 0.133 0.207ZM0.787 0.207Q0.797 0.215 0.801 0.215V0.218H0.790ZM0.841 0.212H0.844Q0.864 0.285 0.870 0.315Q0.864 0.336 0.864 0.340H0.861Q0.838 0.224 0.832 0.224V0.218Q0.841 0.218 0.841 0.212ZM0.762 0.215H0.768V0.218H0.762ZM0.748 0.218H0.762V0.221H0.748ZM0.094 0.221H0.097Q0.097 0.230 0.113 0.295L0.091 0.306Q0.091 0.303 0.088 0.303Q0.088 0.306 0.085 0.306V0.303ZM0.679 0.221H0.688V0.224H0.679ZM0.739 0.221H0.748V0.224L0.714 0.227H0.688V0.224Q0.719 0.224 0.739 0.221ZM0.901 0.224H0.909V0.227H0.901ZM0.009 0.253V0.256Q0.006 0.261 0.006 0.264H0.000V0.261Q0.000 0.257 0.009 0.253ZM0.637 0.272Q0.643 0.282 0.643 0.289Q0.639 0.289 0.632 0.301V0.303H0.657Q0.663 0.315 0.663 0.320Q0.653 0.326 0.646 0.326Q0.644 0.326 0.632 0.312H0.629V0.317L0.632 0.331L0.626 0.334H0.609L0.606 0.315Q0.626 0.310 0.626 0.301L0.618 0.286V0.278ZM0.006 0.275Q0.006 0.278 0.009 0.278Q0.003 0.287 0.003 0.292Q0.014 0.301 0.020 0.301Q0.014 0.328 0.014 0.331H0.012Q0.012 0.323 -0.003 0.303Q-0.006 0.291 -0.006 0.278Q-0.004 0.278 0.006 0.275ZM0.584 0.281Q0.588 0.281 0.595 0.292H0.592Q0.588 0.292 0.584 0.284ZM0.360 0.284Q0.365 0.286 0.368 0.286V0.295Q0.364 0.295 0.335 0.323V0.320Q0.350 0.291 0.360 0.284ZM0.601 0.295H0.606V0.298H0.601ZM0.606 0.298H0.615V0.301H0.606ZM0.026 0.306H0.029Q0.035 0.306 0.049 0.315Q0.046 0.364 0.046 0.374L0.040 0.377H0.038Q0.038 0.370 0.026 0.351Q0.023 0.346 0.023 0.340ZM0.113 0.306Q0.139 0.371 0.139 0.431L0.133 0.428Q0.122 0.431 0.122 0.442Q0.113 0.442 0.113 0.383V0.354Q0.113 0.348 0.108 0.348H0.105Q0.092 0.348 0.088 0.394L0.091 0.400V0.405Q0.077 0.395 0.077 0.386H0.080L0.088 0.391V0.389Q0.080 0.356 0.080 0.351Q0.082 0.317 0.088 0.317Q0.088 0.320 0.091 0.320Q0.091 0.316 0.113 0.306ZM0.374 0.317V0.320L0.380 0.317Q0.382 0.317 0.382 0.320L0.388 0.317Q0.434 0.331 0.434 0.363Q0.431 0.363 0.431 0.366H0.434L0.431 0.371V0.377L0.434 0.383H0.431L0.425 0.380Q0.425 0.383 0.422 0.383Q0.422 0.353 0.388 0.337L0.382 0.340Q0.380 0.340 0.380 0.337Q0.343 0.337 0.312 0.394Q0.306 0.411 0.303 0.442Q0.321 0.475 0.321 0.481V0.484Q0.315 0.484 0.309 0.470L0.303 0.467V0.473Q0.303 0.476 0.306 0.476Q0.303 0.481 0.303 0.490L0.298 0.487L0.295 0.501H0.292V0.450Q0.292 0.436 0.272 0.422L0.269 0.417H0.272L0.289 0.431Q0.295 0.431 0.295 0.425H0.292L0.295 0.420V0.414L0.289 0.405V0.403L0.295 0.405L0.306 0.374Q0.303 0.374 0.303 0.371Q0.353 0.317 0.374 0.317ZM0.057 0.320Q0.061 0.320 0.068 0.331Q0.068 0.334 0.066 0.334Q0.066 0.340 0.071 0.354Q0.068 0.360 0.068 0.363L0.063 0.360Q0.060 0.366 0.060 0.368Q0.054 0.368 0.054 0.363Q0.057 0.327 0.057 0.320ZM0.813 0.331H0.815Q0.835 0.422 0.835 0.445Q0.832 0.465 0.832 0.467Q0.830 0.467 0.793 0.422ZM0.258 0.348H0.261V0.354H0.258ZM0.213 0.354 0.218 0.357Q0.218 0.354 0.221 0.354V0.363Q0.221 0.368 0.216 0.368L0.207 0.357ZM0.232 0.357H0.238Q0.238 0.363 0.244 0.363Q0.244 0.366 0.230 0.377Q0.232 0.366 0.232 0.357ZM0.102 0.360H0.105V0.383Q0.105 0.403 0.108 0.445H0.102L0.099 0.431V0.380ZM0.261 0.363H0.269Q0.269 0.374 0.280 0.386L0.275 0.389H0.269Q0.269 0.382 0.249 0.377V0.374Q0.256 0.374 0.261 0.366ZM0.142 0.371 0.159 0.386H0.162V0.380H0.165Q0.165 0.385 0.173 0.394L0.171 0.400L0.179 0.405Q0.179 0.403 0.182 0.403Q0.182 0.405 0.185 0.405V0.403L0.190 0.405Q0.196 0.403 0.199 0.403V0.405Q0.228 0.394 0.246 0.394L0.258 0.397V0.400Q0.227 0.400 0.218 0.414L0.216 0.420V0.422Q0.227 0.411 0.244 0.403L0.255 0.408Q0.255 0.405 0.258 0.405V0.414L0.252 0.411Q0.224 0.411 0.224 0.436H0.221L0.210 0.428Q0.213 0.417 0.218 0.408H0.213Q0.198 0.417 0.185 0.417H0.179V0.431Q0.179 0.450 0.165 0.493Q0.165 0.522 0.196 0.561Q0.213 0.603 0.213 0.614H0.216V0.609H0.218Q0.218 0.617 0.221 0.617L0.218 0.623V0.629Q0.218 0.643 0.246 0.658Q0.249 0.660 0.249 0.677L0.263 0.672Q0.265 0.677 0.269 0.677H0.272V0.669Q0.272 0.663 0.280 0.646L0.286 0.649Q0.286 0.640 0.303 0.612L0.309 0.614Q0.309 0.611 0.312 0.606L0.295 0.578H0.301V0.572L0.298 0.558H0.301L0.298 0.553V0.550H0.303Q0.303 0.554 0.323 0.592V0.603H0.326Q0.332 0.600 0.335 0.600L0.337 0.606Q0.333 0.606 0.329 0.614Q0.329 0.637 0.337 0.663H0.343L0.349 0.637H0.351V0.646Q0.346 0.663 0.340 0.672L0.346 0.683L0.337 0.689Q0.337 0.686 0.335 0.686V0.689L0.329 0.686Q0.326 0.686 0.326 0.689Q0.306 0.680 0.303 0.680V0.677Q0.318 0.677 0.318 0.674Q0.311 0.623 0.301 0.623Q0.295 0.634 0.295 0.646V0.658Q0.295 0.665 0.301 0.674H0.295Q0.295 0.669 0.289 0.666Q0.280 0.666 0.280 0.677L0.275 0.674Q0.275 0.680 0.255 0.700V0.703L0.249 0.700Q0.249 0.709 0.235 0.717L0.218 0.703V0.705Q0.261 0.748 0.261 0.782H0.255Q0.233 0.782 0.179 0.592Q0.156 0.507 0.145 0.405H0.150Q0.142 0.380 0.142 0.371ZM0.185 0.371 0.190 0.374Q0.205 0.371 0.213 0.371L0.216 0.377V0.380H0.207V0.383H0.218V0.386Q0.218 0.391 0.185 0.400Q0.179 0.397 0.176 0.397V0.391L0.182 0.394H0.187Q0.191 0.394 0.196 0.386V0.383Q0.185 0.383 0.185 0.371ZM0.241 0.383H0.244Q0.249 0.383 0.249 0.389H0.246Q0.241 0.389 0.241 0.383ZM0.255 0.389H0.261V0.391H0.255ZM0.066 0.394H0.068V0.428H0.066L0.063 0.414V0.408ZM0.283 0.397H0.289V0.403H0.283ZM0.258 0.400H0.263V0.403H0.258ZM0.787 0.434H0.790Q0.790 0.438 0.815 0.465L0.827 0.481L0.824 0.496H0.818Q0.818 0.493 0.798 0.473Q0.784 0.460 0.784 0.453ZM0.057 0.436Q0.061 0.436 0.071 0.450V0.470L0.066 0.467Q0.066 0.473 0.060 0.473Q0.060 0.461 0.057 0.436ZM0.425 0.442Q0.428 0.442 0.428 0.445L0.434 0.442H0.439L0.445 0.445Q0.445 0.442 0.448 0.442Q0.448 0.445 0.451 0.445V0.442Q0.503 0.456 0.518 0.479Q0.529 0.480 0.549 0.530L0.546 0.536L0.552 0.550Q0.549 0.555 0.549 0.558Q0.552 0.558 0.552 0.561H0.549L0.552 0.567Q0.549 0.571 0.549 0.578H0.546Q0.541 0.578 0.541 0.572V0.561Q0.541 0.530 0.521 0.496Q0.496 0.471 0.465 0.462V0.459Q0.462 0.459 0.462 0.462Q0.442 0.459 0.436 0.456V0.459Q0.434 0.459 0.434 0.456Q0.399 0.462 0.366 0.476L0.354 0.470L0.349 0.479Q0.351 0.484 0.351 0.490L0.340 0.499H0.337Q0.337 0.492 0.329 0.484Q0.374 0.442 0.425 0.442ZM0.133 0.445 0.136 0.462Q0.122 0.473 0.119 0.473V0.456Q0.119 0.452 0.133 0.445ZM0.105 0.456H0.111V0.465L0.113 0.484L0.108 0.481Q0.108 0.490 0.102 0.490V0.476ZM0.142 0.467H0.145Q0.156 0.547 0.171 0.592Q0.156 0.634 0.156 0.637Q0.156 0.641 0.173 0.655H0.176Q0.182 0.655 0.182 0.649Q0.182 0.646 0.179 0.646Q0.182 0.640 0.182 0.637H0.185Q0.199 0.697 0.230 0.764Q0.221 0.789 0.221 0.793Q0.224 0.798 0.224 0.805Q0.233 0.799 0.241 0.799Q0.244 0.799 0.255 0.819Q0.249 0.828 0.249 0.836L0.252 0.847L0.266 0.844V0.850L0.263 0.855H0.266Q0.266 0.853 0.269 0.853Q0.275 0.862 0.275 0.869L0.255 0.878Q0.255 0.875 0.252 0.875V0.878L0.246 0.875Q0.244 0.875 0.244 0.878Q0.238 0.875 0.235 0.875Q0.238 0.870 0.238 0.867Q0.224 0.839 0.196 0.770Q0.199 0.765 0.199 0.759Q0.199 0.753 0.193 0.753Q0.193 0.756 0.190 0.756Q0.159 0.669 0.136 0.572Q0.141 0.572 0.150 0.536Q0.147 0.530 0.147 0.527Q0.133 0.531 0.133 0.539H0.130L0.122 0.487Q0.142 0.478 0.142 0.467ZM0.779 0.470 0.821 0.510 0.702 0.980H0.699Q0.675 0.944 0.668 0.932L0.671 0.926Q0.656 0.875 0.632 0.875Q0.549 0.768 0.549 0.742Q0.515 0.718 0.473 0.643H0.470L0.434 0.689Q0.415 0.680 0.408 0.680H0.402L0.382 0.683V0.680Q0.464 0.556 0.468 0.555Q0.650 0.826 0.679 0.864Q0.737 0.646 0.779 0.470ZM0.071 0.481Q0.074 0.507 0.074 0.513H0.071Q0.064 0.507 0.060 0.507V0.501Q0.068 0.501 0.068 0.493Q0.066 0.487 0.066 0.484ZM0.080 0.481H0.085Q0.090 0.481 0.094 0.490V0.499Q0.090 0.499 0.080 0.484ZM0.323 0.499H0.329V0.516Q0.329 0.522 0.323 0.522H0.321Q0.318 0.522 0.318 0.519L0.312 0.522H0.309V0.519Q0.316 0.500 0.323 0.499ZM0.116 0.516H0.119L0.122 0.544L0.111 0.553Q0.108 0.527 0.108 0.522ZM0.060 0.522H0.066V0.527Q0.060 0.527 0.060 0.522ZM0.085 0.522H0.091L0.097 0.525Q0.097 0.522 0.099 0.522Q0.099 0.539 0.105 0.564Q0.102 0.564 0.097 0.567Q0.097 0.555 0.085 0.541ZM0.295 0.522Q0.301 0.522 0.301 0.527H0.295ZM0.074 0.530H0.077V0.536H0.074ZM0.301 0.530 0.315 0.533H0.323L0.329 0.530V0.539L0.326 0.544H0.329Q0.323 0.561 0.318 0.561Q0.309 0.536 0.301 0.536ZM0.057 0.536H0.060Q0.060 0.541 0.063 0.541L0.074 0.536L0.077 0.541V0.544Q0.077 0.558 0.080 0.586Q0.075 0.586 0.068 0.598Q0.079 0.614 0.088 0.614V0.626H0.082Q0.082 0.621 0.060 0.600Q0.060 0.591 0.057 0.575Q0.061 0.575 0.068 0.564L0.057 0.550ZM0.182 0.561V0.564Q0.199 0.629 0.199 0.637H0.207V0.632Q0.199 0.618 0.185 0.561ZM0.263 0.575V0.578Q0.261 0.583 0.261 0.586H0.263L0.261 0.592L0.263 0.598Q0.246 0.598 0.238 0.606H0.235V0.603Q0.238 0.598 0.238 0.595H0.235Q0.238 0.575 0.263 0.575ZM0.116 0.581H0.122V0.584H0.116ZM0.277 0.581H0.283Q0.283 0.586 0.298 0.603H0.301V0.606Q0.298 0.606 0.292 0.609Q0.283 0.609 0.283 0.600Q0.280 0.600 0.280 0.603Q0.275 0.600 0.272 0.600L0.275 0.586Q0.272 0.586 0.272 0.584ZM0.102 0.584Q0.110 0.584 0.113 0.606V0.609H0.111Q0.102 0.588 0.102 0.584ZM0.130 0.595H0.133L0.145 0.646Q0.138 0.640 0.133 0.640L0.139 0.632V0.629Q0.124 0.629 0.122 0.600L0.127 0.603Q0.130 0.598 0.130 0.595ZM0.349 0.612Q0.354 0.612 0.354 0.620V0.637H0.351Q0.351 0.623 0.349 0.612ZM0.066 0.620H0.068Q0.068 0.629 0.099 0.655Q0.085 0.684 0.085 0.691H0.080L0.066 0.623ZM0.088 0.626H0.091V0.632H0.088ZM0.057 0.634H0.060V0.643H0.057ZM0.060 0.649H0.063V0.658H0.060ZM0.108 0.649Q0.118 0.652 0.133 0.691Q0.129 0.703 0.125 0.703Q0.113 0.686 0.108 0.663L0.111 0.658Q0.108 0.652 0.108 0.649ZM0.207 0.663V0.669Q0.207 0.672 0.224 0.686Q0.228 0.686 0.244 0.666Q0.228 0.652 0.227 0.652H0.224Q0.213 0.663 0.207 0.663ZM0.063 0.660H0.066V0.672H0.063ZM0.066 0.672H0.068V0.680H0.066ZM0.099 0.680H0.105Q0.108 0.695 0.108 0.697Q0.102 0.698 0.102 0.703Q0.119 0.721 0.119 0.728Q0.111 0.742 0.111 0.750Q0.107 0.750 0.099 0.739H0.105V0.733Q0.092 0.733 0.088 0.711Q0.099 0.690 0.099 0.680ZM0.292 0.680Q0.292 0.690 0.326 0.700Q0.326 0.697 0.329 0.697V0.700L0.335 0.697H0.349V0.711Q0.349 0.714 0.351 0.714Q0.349 0.715 0.349 0.742H0.346Q0.346 0.730 0.329 0.714V0.708L0.323 0.711H0.321Q0.315 0.711 0.315 0.705L0.318 0.700Q0.307 0.705 0.289 0.708V0.705L0.272 0.714Q0.272 0.711 0.269 0.711Q0.269 0.715 0.258 0.728Q0.252 0.725 0.249 0.725V0.722ZM0.068 0.683H0.071V0.689H0.068ZM0.159 0.694H0.162V0.700H0.159ZM0.405 0.697V0.700L0.410 0.697Q0.420 0.703 0.425 0.703V0.705Q0.385 0.764 0.382 0.764H0.377Q0.366 0.747 0.366 0.739V0.736Q0.372 0.697 0.405 0.697ZM0.139 0.705Q0.147 0.707 0.147 0.728Q0.141 0.733 0.136 0.733V0.736Q0.136 0.741 0.145 0.745Q0.142 0.750 0.142 0.756Q0.134 0.756 0.130 0.728Q0.139 0.712 0.139 0.705ZM0.153 0.711H0.156Q0.162 0.712 0.162 0.717V0.722Q0.157 0.722 0.153 0.711ZM0.295 0.717Q0.295 0.719 0.298 0.719V0.717L0.303 0.719Q0.306 0.719 0.306 0.717Q0.321 0.721 0.321 0.725Q0.318 0.736 0.315 0.736L0.318 0.742V0.745L0.315 0.750H0.318Q0.326 0.736 0.326 0.728Q0.336 0.733 0.340 0.745H0.337L0.340 0.750V0.753Q0.340 0.784 0.309 0.799Q0.309 0.796 0.306 0.796V0.808L0.332 0.836V0.841Q0.332 0.845 0.323 0.850Q0.323 0.840 0.295 0.819L0.289 0.827V0.833Q0.289 0.836 0.292 0.836Q0.289 0.840 0.286 0.861Q0.279 0.861 0.275 0.838Q0.278 0.838 0.298 0.808V0.796H0.295V0.802H0.277L0.286 0.788V0.785H0.269V0.776L0.283 0.779H0.286Q0.292 0.779 0.292 0.773Q0.266 0.773 0.266 0.753Q0.266 0.749 0.277 0.742H0.289L0.301 0.750L0.303 0.745Q0.293 0.736 0.283 0.736H0.275Q0.263 0.742 0.263 0.750H0.258V0.748Q0.275 0.727 0.275 0.722L0.280 0.725Q0.280 0.718 0.295 0.717ZM0.176 0.745H0.179Q0.179 0.753 0.185 0.762Q0.182 0.762 0.182 0.764Q0.171 0.762 0.171 0.748L0.176 0.750ZM0.122 0.748H0.127L0.130 0.762Q0.127 0.762 0.122 0.753ZM0.351 0.756H0.354Q0.361 0.779 0.374 0.779Q0.350 0.815 0.343 0.827Q0.336 0.826 0.321 0.805Q0.336 0.805 0.349 0.776ZM0.153 0.759Q0.156 0.759 0.156 0.762L0.162 0.759H0.165L0.168 0.770H0.159Q0.153 0.770 0.153 0.764ZM0.190 0.785Q0.197 0.785 0.199 0.805L0.187 0.793Q0.190 0.788 0.190 0.785ZM0.277 0.808 0.280 0.813H0.272Q0.273 0.808 0.277 0.808ZM0.202 0.816H0.207V0.822Q0.202 0.822 0.202 0.816ZM0.207 0.822H0.210V0.827H0.207ZM0.272 0.824H0.280V0.827Q0.275 0.827 0.275 0.833H0.272ZM0.196 0.830H0.199L0.227 0.867H0.224L0.210 0.858Q0.210 0.861 0.207 0.861Q0.202 0.850 0.196 0.830ZM0.190 0.836H0.196V0.841H0.190ZM0.301 0.841H0.303Q0.310 0.850 0.315 0.850L0.309 0.869H0.312Q0.309 0.889 0.298 0.889Q0.298 0.881 0.289 0.875Q0.303 0.852 0.303 0.844Q0.301 0.844 0.301 0.841ZM0.258 0.855V0.861H0.263Q0.263 0.855 0.258 0.855ZM0.199 0.869H0.202L0.207 0.872Q0.207 0.869 0.210 0.869Q0.227 0.887 0.244 0.889V0.886L0.249 0.889H0.255L0.261 0.886V0.889Q0.263 0.889 0.283 0.878Q0.292 0.892 0.292 0.897Q0.286 0.913 0.255 0.952L0.238 0.915Q0.207 0.890 0.199 0.869ZM0.221 0.921Q0.225 0.921 0.235 0.938V0.949L0.232 0.963H0.230ZM0.246 0.955Q0.252 0.955 0.252 0.960Q0.246 0.960 0.246 0.969H0.244V0.963Q0.246 0.958 0.246 0.955Z" fill="black"/>
</svg>
