<svg xmlns="http://www.w3.org/2000/svg" viewBox="0 0 1 1" preserveAspectRatio="xMidYMid meet">
  <path d="M0.655 0.001H0.672V0.004H0.655ZM0.640 0.004H0.649V0.007H0.640ZM0.702 0.007H0.711L0.713 0.013H0.711Q0.705 0.010 0.702 0.010ZM0.669 0.013Q0.673 0.016 0.680 0.016V0.019Q0.656 0.019 0.655 0.021V0.019Q0.646 0.024 0.640 0.024H0.637V0.021Q0.669 0.014 0.669 0.013ZM0.713 0.013H0.719V0.016H0.713ZM0.719 0.016H0.722Q0.731 0.024 0.736 0.024V0.030H0.733Q0.724 0.021 0.719 0.021ZM0.163 0.019H0.165V0.030H0.163ZM0.609 0.021H0.618V0.024Q0.615 0.024 0.609 0.027ZM0.604 0.027H0.609Q0.609 0.033 0.604 0.033ZM0.598 0.033H0.604V0.038H0.598ZM0.620 0.035V0.038Q0.620 0.044 0.615 0.044H0.612V0.038Q0.615 0.038 0.620 0.035ZM0.820 0.035Q0.826 0.038 0.829 0.038V0.047Q0.824 0.047 0.790 0.091Q0.790 0.077 0.784 0.077L0.787 0.072V0.069Q0.776 0.069 0.776 0.055L0.770 0.058L0.759 0.044L0.764 0.041Q0.765 0.047 0.770 0.047H0.773Q0.773 0.038 0.778 0.038H0.817Q0.820 0.038 0.820 0.035ZM0.092 0.038H0.103Q0.117 0.039 0.117 0.044Q0.126 0.038 0.134 0.038H0.149Q0.173 0.078 0.182 0.088Q0.193 0.103 0.193 0.108V0.120Q0.200 0.120 0.204 0.123Q0.204 0.120 0.207 0.120L0.230 0.153Q0.230 0.159 0.224 0.159Q0.224 0.156 0.221 0.156Q0.221 0.159 0.218 0.159Q0.218 0.156 0.216 0.156V0.159L0.204 0.153Q0.204 0.156 0.202 0.156Q0.201 0.152 0.188 0.145Q0.188 0.148 0.185 0.148Q0.185 0.145 0.182 0.145L0.177 0.153L0.179 0.159H0.174Q0.166 0.139 0.160 0.139V0.145H0.157V0.137Q0.160 0.137 0.160 0.134Q0.154 0.134 0.109 0.060Q0.104 0.059 0.092 0.038ZM0.595 0.038H0.598V0.044H0.595ZM0.652 0.041V0.044L0.658 0.041Q0.680 0.041 0.702 0.055V0.060Q0.689 0.060 0.686 0.091V0.111Q0.699 0.133 0.699 0.137L0.705 0.134Q0.705 0.145 0.744 0.151Q0.744 0.148 0.747 0.148Q0.747 0.151 0.750 0.151Q0.750 0.147 0.781 0.131L0.778 0.126H0.784Q0.784 0.152 0.829 0.167Q0.851 0.181 0.851 0.184Q0.796 0.222 0.795 0.241Q0.795 0.280 0.770 0.280V0.277Q0.764 0.280 0.762 0.280Q0.735 0.263 0.730 0.263V0.257H0.738Q0.754 0.257 0.790 0.230V0.221Q0.783 0.221 0.778 0.218Q0.778 0.221 0.776 0.221Q0.776 0.218 0.773 0.218V0.221L0.767 0.218H0.733L0.727 0.215Q0.727 0.218 0.725 0.218Q0.725 0.215 0.722 0.215V0.218L0.716 0.215H0.713Q0.711 0.215 0.711 0.218L0.705 0.215Q0.674 0.221 0.674 0.230H0.672L0.666 0.227Q0.666 0.233 0.637 0.241V0.246Q0.637 0.250 0.646 0.255Q0.646 0.252 0.649 0.252Q0.649 0.255 0.652 0.255Q0.652 0.252 0.655 0.252Q0.655 0.255 0.658 0.255V0.252L0.677 0.257Q0.677 0.255 0.680 0.255Q0.680 0.257 0.683 0.257Q0.683 0.255 0.686 0.255Q0.686 0.257 0.688 0.257Q0.688 0.255 0.691 0.255Q0.691 0.257 0.694 0.257Q0.694 0.255 0.697 0.255Q0.697 0.257 0.699 0.257Q0.699 0.255 0.702 0.255Q0.702 0.257 0.705 0.257Q0.705 0.255 0.708 0.255Q0.708 0.257 0.711 0.257Q0.711 0.255 0.713 0.255L0.716 0.260Q0.649 0.260 0.649 0.285Q0.618 0.325 0.612 0.325Q0.612 0.319 0.607 0.319V0.322Q0.596 0.319 0.587 0.314Q0.587 0.288 0.612 0.269Q0.609 0.264 0.609 0.257Q0.612 0.257 0.626 0.238Q0.612 0.238 0.612 0.218H0.607V0.255H0.601V0.221Q0.601 0.215 0.595 0.215H0.593L0.595 0.230V0.249Q0.595 0.255 0.568 0.260H0.565L0.568 0.255V0.252L0.565 0.246H0.570L0.584 0.249V0.238H0.579L0.573 0.241V0.235L0.576 0.215H0.579V0.221H0.584V0.210Q0.584 0.195 0.579 0.195L0.582 0.176V0.111H0.573Q0.573 0.123 0.565 0.123Q0.565 0.120 0.562 0.114Q0.571 0.105 0.587 0.094L0.590 0.100V0.103H0.584L0.587 0.120H0.595L0.598 0.108L0.595 0.094L0.601 0.097V0.091Q0.604 0.091 0.604 0.094Q0.640 0.077 0.640 0.044Q0.642 0.044 0.652 0.041ZM0.697 0.041H0.702Q0.702 0.047 0.708 0.047V0.049H0.694Q0.697 0.044 0.697 0.041ZM0.163 0.044H0.165V0.058H0.163ZM0.590 0.044H0.595V0.049Q0.590 0.049 0.590 0.044ZM0.750 0.044H0.756V0.047H0.750ZM0.587 0.049H0.593V0.052Q0.590 0.057 0.590 0.060H0.587ZM0.604 0.052H0.607V0.058H0.604ZM0.736 0.055Q0.741 0.056 0.741 0.060V0.066H0.738L0.733 0.063Q0.736 0.058 0.736 0.055ZM0.601 0.058Q0.607 0.059 0.607 0.063Q0.601 0.063 0.601 0.074L0.595 0.072Q0.601 0.062 0.601 0.058ZM0.582 0.063H0.587V0.072H0.584Q0.584 0.069 0.582 0.063ZM0.759 0.063Q0.770 0.063 0.776 0.088H0.778L0.776 0.094Q0.776 0.097 0.778 0.097Q0.772 0.125 0.750 0.134Q0.747 0.134 0.741 0.137V0.134L0.736 0.137H0.733L0.727 0.134Q0.727 0.137 0.725 0.137Q0.701 0.121 0.697 0.100L0.699 0.094L0.697 0.088H0.702V0.086Q0.702 0.083 0.699 0.083Q0.699 0.079 0.713 0.066Q0.725 0.071 0.725 0.074V0.077H0.722L0.716 0.074Q0.719 0.085 0.719 0.094H0.725V0.077H0.727V0.091H0.738Q0.741 0.080 0.741 0.069H0.744V0.077Q0.747 0.077 0.759 0.063ZM0.815 0.077 0.829 0.080Q0.834 0.077 0.837 0.077L0.834 0.083V0.088L0.842 0.100Q0.833 0.100 0.823 0.111Q0.823 0.100 0.806 0.100Q0.815 0.093 0.815 0.077ZM0.601 0.103V0.108H0.607V0.103ZM0.607 0.120V0.126H0.612V0.120ZM0.595 0.134Q0.598 0.139 0.598 0.142L0.604 0.139Q0.604 0.151 0.640 0.170L0.646 0.167Q0.647 0.173 0.652 0.173H0.655V0.170Q0.655 0.164 0.632 0.159Q0.632 0.151 0.623 0.151Q0.623 0.153 0.620 0.153Q0.620 0.149 0.607 0.137Q0.609 0.137 0.609 0.134H0.601L0.604 0.128H0.601Q0.595 0.129 0.595 0.134ZM0.874 0.131 0.880 0.134H0.885L0.899 0.131Q0.899 0.146 0.908 0.153Q0.891 0.156 0.891 0.167Q0.880 0.156 0.868 0.156L0.877 0.142Q0.874 0.137 0.874 0.131ZM0.548 0.134 0.551 0.139Q0.548 0.139 0.548 0.142Q0.551 0.142 0.551 0.145Q0.547 0.145 0.533 0.164L0.536 0.170L0.516 0.178V0.176L0.511 0.178H0.508Q0.501 0.173 0.491 0.173V0.170H0.503V0.167L0.500 0.162Q0.526 0.162 0.548 0.134ZM0.160 0.145H0.163V0.151H0.160ZM0.163 0.153H0.168V0.159Q0.163 0.159 0.163 0.153ZM0.607 0.159 0.604 0.170H0.607Q0.611 0.170 0.615 0.159ZM0.168 0.159H0.171V0.164H0.168ZM0.190 0.162H0.193Q0.200 0.167 0.218 0.170V0.167Q0.230 0.169 0.230 0.173L0.236 0.170Q0.270 0.204 0.351 0.322Q0.363 0.342 0.371 0.342Q0.406 0.326 0.449 0.291H0.452Q0.424 0.321 0.373 0.353L0.379 0.356Q0.379 0.353 0.382 0.353Q0.382 0.369 0.404 0.395V0.398H0.407Q0.407 0.393 0.412 0.389L0.418 0.392L0.424 0.389V0.406H0.421L0.415 0.403L0.412 0.409L0.455 0.463L0.503 0.403L0.516 0.409Q0.516 0.406 0.519 0.406V0.409L0.525 0.406H0.528Q0.530 0.406 0.530 0.409L0.548 0.403V0.406L0.553 0.403H0.559Q0.486 0.500 0.486 0.510Q0.503 0.530 0.725 0.834Q0.718 0.834 0.699 0.856V0.862H0.697Q0.687 0.834 0.680 0.834L0.669 0.840Q0.533 0.662 0.530 0.654H0.528V0.662L0.530 0.668L0.516 0.665Q0.513 0.668 0.503 0.668Q0.503 0.657 0.494 0.648V0.646Q0.511 0.646 0.511 0.629Q0.507 0.627 0.452 0.553H0.449Q0.357 0.693 0.348 0.693Q0.320 0.715 0.320 0.721L0.317 0.738H0.320L0.300 0.772Q0.300 0.786 0.294 0.786Q0.294 0.780 0.289 0.780Q0.281 0.795 0.281 0.797H0.269L0.275 0.786L0.269 0.775Q0.275 0.775 0.275 0.766Q0.272 0.761 0.272 0.758Q0.283 0.753 0.283 0.750V0.747Q0.280 0.747 0.275 0.744V0.750H0.269Q0.269 0.738 0.264 0.738H0.261V0.736Q0.262 0.730 0.267 0.730Q0.262 0.718 0.256 0.707H0.258Q0.269 0.712 0.269 0.715Q0.279 0.713 0.286 0.699Q0.283 0.699 0.283 0.696Q0.300 0.683 0.418 0.510V0.507Q0.418 0.504 0.371 0.440Q0.351 0.404 0.340 0.403Q0.340 0.406 0.337 0.406Q0.331 0.400 0.331 0.395H0.325Q0.325 0.403 0.322 0.403L0.317 0.400Q0.312 0.403 0.303 0.403V0.406L0.311 0.418L0.306 0.421H0.300Q0.300 0.412 0.292 0.412V0.421H0.289L0.286 0.406Q0.289 0.401 0.289 0.398L0.294 0.400L0.297 0.386Q0.294 0.386 0.294 0.384Q0.296 0.384 0.306 0.381V0.378H0.303Q0.275 0.383 0.275 0.389V0.398H0.269Q0.256 0.384 0.241 0.384V0.381Q0.241 0.377 0.264 0.370L0.269 0.373Q0.275 0.373 0.289 0.367L0.286 0.361Q0.287 0.356 0.292 0.356L0.297 0.364Q0.300 0.364 0.300 0.361L0.314 0.364H0.317V0.359Q0.311 0.359 0.278 0.302L0.233 0.243L0.227 0.246Q0.227 0.243 0.224 0.238H0.227L0.233 0.241V0.238Q0.227 0.238 0.213 0.210H0.210V0.215H0.207Q0.207 0.201 0.190 0.178V0.170L0.193 0.164Q0.190 0.164 0.190 0.162ZM0.171 0.164H0.177V0.170Q0.171 0.170 0.171 0.164ZM0.634 0.173Q0.632 0.188 0.632 0.190Q0.637 0.191 0.637 0.195H0.632V0.230H0.634Q0.634 0.224 0.643 0.215V0.190H0.637L0.640 0.184V0.173ZM0.649 0.178Q0.646 0.184 0.646 0.190V0.210Q0.663 0.187 0.666 0.187V0.181Q0.657 0.178 0.649 0.178ZM0.444 0.178H0.449V0.181H0.444ZM0.491 0.192Q0.496 0.195 0.505 0.195Q0.458 0.252 0.404 0.252Q0.382 0.247 0.382 0.232V0.224H0.385Q0.385 0.243 0.401 0.243Q0.447 0.243 0.491 0.192ZM0.562 0.204H0.565V0.207Q0.558 0.266 0.548 0.266H0.545V0.263Q0.545 0.255 0.562 0.204ZM0.880 0.207H0.882Q0.888 0.207 0.888 0.212L0.882 0.215H0.880ZM0.545 0.212H0.548V0.218H0.545ZM0.210 0.218H0.213V0.224H0.210ZM0.542 0.218H0.545V0.224H0.542ZM0.539 0.224H0.542V0.230H0.539ZM0.705 0.227Q0.705 0.230 0.708 0.230Q0.708 0.227 0.711 0.227Q0.711 0.230 0.713 0.230V0.227L0.719 0.230H0.762Q0.753 0.236 0.753 0.241Q0.750 0.241 0.750 0.238L0.736 0.246H0.730L0.725 0.243Q0.725 0.246 0.722 0.246Q0.722 0.243 0.719 0.243Q0.719 0.246 0.716 0.246Q0.716 0.243 0.713 0.243Q0.713 0.246 0.711 0.246Q0.711 0.243 0.708 0.243V0.246L0.702 0.243H0.699L0.694 0.246Q0.694 0.241 0.688 0.241Q0.688 0.243 0.686 0.243Q0.686 0.241 0.683 0.241Q0.683 0.243 0.680 0.243V0.241Q0.681 0.235 0.686 0.235V0.238ZM0.536 0.230H0.539V0.232Q0.530 0.269 0.519 0.271V0.274Q0.519 0.277 0.522 0.277Q0.500 0.322 0.483 0.322Q0.483 0.313 0.480 0.308L0.486 0.305Q0.489 0.305 0.489 0.308Q0.499 0.308 0.536 0.230ZM0.851 0.238Q0.851 0.242 0.857 0.249Q0.851 0.249 0.851 0.257Q0.846 0.255 0.840 0.255V0.243Q0.845 0.243 0.851 0.238ZM0.669 0.241H0.677V0.243H0.669ZM0.508 0.249H0.511V0.255H0.508ZM0.503 0.257H0.505V0.263H0.503ZM0.500 0.266V0.269Q0.500 0.274 0.494 0.274V0.271Q0.495 0.266 0.500 0.266ZM0.590 0.266H0.595V0.269H0.590ZM0.584 0.269H0.590Q0.590 0.274 0.584 0.274ZM0.190 0.274 0.193 0.280V0.288Q0.181 0.283 0.179 0.277Q0.186 0.277 0.190 0.274ZM0.494 0.274V0.277Q0.458 0.335 0.421 0.356Q0.421 0.362 0.418 0.367L0.412 0.364Q0.407 0.367 0.404 0.367V0.353Q0.444 0.331 0.444 0.308H0.447Q0.449 0.308 0.449 0.311Q0.461 0.311 0.494 0.274ZM0.221 0.277H0.230V0.288H0.227Q0.227 0.280 0.221 0.280ZM0.466 0.277V0.280Q0.466 0.285 0.461 0.285H0.458Q0.458 0.282 0.466 0.277ZM0.247 0.280H0.250V0.285H0.247ZM0.165 0.288Q0.171 0.289 0.171 0.294V0.299Q0.171 0.305 0.165 0.305V0.302L0.168 0.296Q0.165 0.291 0.165 0.288ZM0.781 0.288H0.787V0.291H0.781ZM0.171 0.302H0.177V0.305H0.171ZM0.227 0.302Q0.233 0.303 0.233 0.308L0.227 0.311H0.224Q0.227 0.305 0.227 0.302ZM0.258 0.302Q0.264 0.305 0.267 0.305V0.308Q0.267 0.314 0.261 0.314L0.256 0.311Q0.258 0.305 0.258 0.302ZM0.669 0.302H0.674V0.305H0.669ZM0.218 0.305H0.221V0.311H0.218ZM0.573 0.305H0.576V0.311H0.573ZM0.174 0.308H0.177L0.182 0.311V0.308Q0.186 0.311 0.196 0.311L0.193 0.316L0.188 0.314Q0.182 0.316 0.179 0.316Q0.179 0.314 0.177 0.314Q0.177 0.316 0.174 0.316ZM0.573 0.311Q0.578 0.334 0.604 0.334Q0.604 0.336 0.607 0.336Q0.607 0.334 0.609 0.334Q0.607 0.361 0.601 0.361V0.350Q0.595 0.351 0.595 0.356V0.378H0.584V0.373Q0.571 0.389 0.559 0.389Q0.559 0.386 0.556 0.386Q0.556 0.391 0.545 0.395Q0.545 0.392 0.542 0.392Q0.542 0.395 0.539 0.395V0.392L0.533 0.395H0.528L0.522 0.392Q0.522 0.395 0.519 0.395Q0.519 0.392 0.516 0.392Q0.516 0.395 0.514 0.395L0.511 0.389Q0.570 0.311 0.573 0.311ZM0.773 0.314Q0.773 0.319 0.778 0.319Q0.776 0.325 0.776 0.328H0.767Q0.767 0.325 0.764 0.319ZM0.278 0.325Q0.281 0.325 0.281 0.328L0.286 0.325H0.289V0.328Q0.289 0.334 0.283 0.334Q0.278 0.334 0.278 0.328ZM0.196 0.328V0.334H0.188V0.331Q0.191 0.331 0.196 0.328ZM0.177 0.334V0.339H0.171Q0.172 0.334 0.177 0.334ZM0.199 0.336H0.207V0.339H0.199ZM0.716 0.336 0.725 0.347Q0.721 0.347 0.713 0.353Q0.705 0.350 0.705 0.347Q0.707 0.339 0.716 0.336ZM0.256 0.342H0.258L0.264 0.345V0.342Q0.275 0.346 0.275 0.350V0.356L0.272 0.361Q0.275 0.361 0.275 0.364Q0.272 0.364 0.267 0.367Q0.267 0.364 0.264 0.364V0.370H0.261Q0.250 0.366 0.250 0.350V0.347Q0.256 0.347 0.256 0.342ZM0.497 0.345H0.500Q0.500 0.354 0.503 0.359H0.491Q0.494 0.353 0.494 0.350Q0.491 0.350 0.491 0.347ZM0.452 0.347V0.350L0.458 0.347H0.461V0.359L0.458 0.364L0.452 0.361Q0.447 0.364 0.444 0.364V0.350Q0.447 0.350 0.452 0.347ZM0.182 0.359H0.188V0.361H0.182ZM0.213 0.361 0.216 0.367 0.204 0.373V0.364Q0.207 0.364 0.213 0.361ZM0.171 0.364H0.174Q0.174 0.380 0.182 0.386H0.174L0.171 0.375ZM0.308 0.375Q0.310 0.381 0.314 0.381Q0.314 0.378 0.317 0.378L0.322 0.386Q0.320 0.386 0.320 0.389L0.325 0.392H0.331Q0.331 0.389 0.334 0.384L0.322 0.373ZM0.236 0.381 0.238 0.386V0.389Q0.232 0.389 0.227 0.392V0.384Q0.230 0.384 0.236 0.381ZM0.182 0.386 0.188 0.389V0.386L0.193 0.389L0.199 0.386V0.392L0.185 0.395L0.182 0.389ZM0.464 0.386V0.403H0.447V0.389H0.449Q0.452 0.389 0.452 0.392ZM0.489 0.392H0.491Q0.491 0.395 0.494 0.400H0.489ZM0.593 0.392 0.595 0.398V0.443Q0.595 0.449 0.590 0.449H0.584Q0.584 0.447 0.582 0.432Q0.582 0.395 0.587 0.395ZM0.213 0.400Q0.213 0.409 0.224 0.423H0.218Q0.212 0.415 0.207 0.415V0.406Q0.208 0.400 0.213 0.400ZM0.236 0.406H0.241V0.409H0.236ZM0.244 0.412H0.247V0.418H0.244ZM0.264 0.415Q0.269 0.418 0.272 0.418V0.421H0.264ZM0.224 0.423H0.230V0.426H0.224ZM0.466 0.426V0.443H0.464Q0.461 0.443 0.461 0.440L0.449 0.446V0.429H0.452Q0.455 0.429 0.455 0.432ZM0.286 0.429H0.303Q0.308 0.429 0.308 0.435Q0.305 0.446 0.300 0.446L0.294 0.438L0.289 0.440L0.283 0.438Q0.283 0.440 0.281 0.440V0.435Q0.282 0.429 0.286 0.429ZM0.328 0.449Q0.328 0.452 0.331 0.452Q0.331 0.449 0.334 0.449Q0.334 0.452 0.342 0.457Q0.338 0.474 0.325 0.474Q0.325 0.471 0.322 0.471Q0.322 0.474 0.320 0.474L0.314 0.465Q0.314 0.449 0.328 0.449ZM0.360 0.465 0.371 0.474Q0.366 0.488 0.360 0.488V0.493H0.362L0.371 0.488V0.499Q0.376 0.496 0.379 0.496V0.488Q0.372 0.488 0.371 0.477L0.376 0.474H0.387V0.488H0.382V0.490Q0.382 0.493 0.396 0.504L0.393 0.519L0.396 0.530Q0.393 0.530 0.393 0.527L0.387 0.530L0.382 0.527Q0.382 0.530 0.379 0.530Q0.379 0.516 0.373 0.516Q0.373 0.519 0.371 0.519V0.510L0.365 0.513Q0.365 0.504 0.354 0.504L0.357 0.499V0.496L0.342 0.482V0.474Q0.345 0.465 0.360 0.465ZM0.399 0.504H0.404V0.507H0.399ZM0.283 0.578H0.289Q0.286 0.583 0.286 0.586H0.283ZM0.256 0.586H0.261V0.589H0.256ZM0.278 0.589H0.281V0.595H0.278ZM0.238 0.595 0.250 0.603 0.261 0.597V0.600L0.256 0.608V0.611L0.258 0.617Q0.256 0.617 0.256 0.620Q0.250 0.617 0.227 0.614Q0.238 0.607 0.238 0.595ZM0.193 0.611H0.199V0.614H0.193ZM0.286 0.634Q0.292 0.635 0.292 0.640H0.286ZM0.230 0.648H0.233V0.654H0.230ZM0.623 0.648H0.626V0.654H0.623ZM0.233 0.654H0.236V0.660H0.233ZM0.221 0.671H0.224L0.238 0.673V0.676H0.230Q0.230 0.673 0.227 0.673Q0.227 0.676 0.224 0.676ZM0.744 0.676Q0.750 0.677 0.750 0.682H0.744ZM0.224 0.685Q0.232 0.696 0.236 0.696Q0.236 0.701 0.230 0.701Q0.224 0.690 0.224 0.685ZM0.275 0.693H0.283V0.696H0.275ZM0.233 0.701Q0.238 0.703 0.238 0.707H0.233ZM0.542 0.715H0.551V0.718H0.542ZM0.551 0.718H0.556V0.721H0.551ZM0.776 0.718H0.778V0.724H0.776ZM0.340 0.727H0.345V0.730H0.340ZM0.551 0.727H0.559V0.730H0.551ZM0.562 0.730H0.568V0.733H0.562ZM0.351 0.733H0.360L0.362 0.738V0.741Q0.355 0.736 0.351 0.736ZM0.553 0.736H0.562V0.738H0.553ZM0.500 0.738Q0.504 0.741 0.511 0.741Q0.508 0.753 0.497 0.755Q0.497 0.747 0.491 0.747V0.744Q0.500 0.744 0.500 0.738ZM0.368 0.741H0.373V0.744H0.368ZM0.379 0.744Q0.385 0.744 0.385 0.750H0.379ZM0.387 0.750Q0.395 0.755 0.399 0.755Q0.399 0.760 0.382 0.764V0.761Q0.354 0.766 0.354 0.769Q0.348 0.766 0.345 0.766Q0.345 0.763 0.385 0.752Q0.385 0.750 0.387 0.750ZM0.741 0.755H0.753V0.758H0.741ZM0.286 0.761V0.766L0.289 0.772Q0.294 0.769 0.297 0.769Q0.294 0.764 0.294 0.761ZM0.218 0.764H0.221V0.766L0.207 0.783V0.786H0.213L0.218 0.783Q0.218 0.786 0.221 0.786Q0.221 0.783 0.224 0.783V0.786Q0.224 0.791 0.218 0.791V0.789L0.213 0.791H0.210Q0.204 0.791 0.204 0.786Q0.204 0.770 0.218 0.764ZM0.744 0.764H0.750V0.766H0.744ZM0.325 0.766Q0.322 0.789 0.314 0.789V0.783Q0.314 0.769 0.325 0.766ZM0.790 0.780Q0.792 0.780 0.806 0.800Q0.798 0.800 0.798 0.816Q0.779 0.808 0.773 0.791Q0.790 0.791 0.790 0.780ZM0.250 0.786 0.253 0.791 0.244 0.797V0.791Q0.245 0.786 0.250 0.786ZM0.475 0.791Q0.480 0.794 0.483 0.794V0.797Q0.477 0.797 0.472 0.800V0.797ZM0.311 0.794H0.314Q0.314 0.800 0.317 0.800Q0.311 0.824 0.311 0.828H0.306Q0.308 0.823 0.311 0.794ZM0.489 0.797H0.494V0.800H0.489ZM0.264 0.800H0.269Q0.269 0.803 0.272 0.808L0.267 0.811ZM0.216 0.803H0.221Q0.227 0.804 0.227 0.808L0.233 0.805H0.236Q0.242 0.814 0.247 0.814V0.816H0.241L0.244 0.822L0.238 0.825Q0.238 0.822 0.236 0.822V0.825L0.241 0.837Q0.230 0.837 0.230 0.842L0.224 0.840Q0.224 0.851 0.213 0.851Q0.213 0.848 0.210 0.848V0.851Q0.198 0.851 0.190 0.834Q0.196 0.834 0.196 0.825Q0.202 0.826 0.202 0.831L0.213 0.825Q0.214 0.831 0.218 0.831L0.221 0.825V0.819Q0.221 0.814 0.216 0.814L0.218 0.808ZM0.278 0.803H0.281Q0.285 0.803 0.289 0.811Q0.286 0.811 0.286 0.814Q0.292 0.815 0.292 0.819L0.286 0.822Q0.278 0.806 0.278 0.803ZM0.559 0.808H0.565V0.811H0.559ZM0.207 0.811Q0.212 0.814 0.216 0.814Q0.216 0.819 0.210 0.819Q0.204 0.819 0.204 0.814Q0.207 0.814 0.207 0.811ZM0.568 0.811H0.573V0.814H0.568ZM0.258 0.814H0.267Q0.259 0.829 0.244 0.837V0.834Q0.247 0.823 0.258 0.816ZM0.477 0.814 0.480 0.819 0.475 0.822 0.472 0.816ZM0.306 0.831Q0.308 0.837 0.308 0.840L0.306 0.854H0.303Q0.303 0.848 0.297 0.848L0.300 0.842Q0.297 0.842 0.297 0.840H0.303L0.300 0.834ZM0.533 0.845Q0.539 0.848 0.542 0.848V0.856H0.536Q0.530 0.856 0.530 0.851ZM0.674 0.845H0.683L0.686 0.859Q0.680 0.858 0.674 0.845ZM0.722 0.848H0.733Q0.767 0.886 0.767 0.895H0.764Q0.759 0.892 0.736 0.890Q0.730 0.903 0.730 0.915H0.727Q0.712 0.902 0.708 0.882L0.713 0.868H0.711Q0.722 0.854 0.722 0.848ZM0.182 0.851V0.856Q0.179 0.862 0.179 0.865H0.182Q0.174 0.879 0.174 0.884H0.168Q0.163 0.884 0.163 0.879Q0.178 0.851 0.182 0.851ZM0.238 0.851V0.856H0.233Q0.233 0.851 0.238 0.851ZM0.193 0.859 0.202 0.865H0.207V0.859L0.216 0.865L0.218 0.859Q0.224 0.862 0.227 0.862V0.870Q0.213 0.889 0.213 0.893H0.210Q0.202 0.869 0.202 0.868L0.196 0.870H0.193ZM0.686 0.859H0.688V0.865H0.686ZM0.801 0.859V0.873H0.792V0.868Q0.792 0.863 0.801 0.859ZM0.640 0.862Q0.640 0.868 0.643 0.868Q0.640 0.887 0.634 0.887V0.868Q0.636 0.862 0.640 0.862ZM0.623 0.865H0.626V0.884L0.620 0.882Q0.620 0.884 0.618 0.884L0.615 0.879Q0.623 0.869 0.623 0.865ZM0.190 0.870H0.193V0.876H0.190ZM0.778 0.873H0.784V0.879Q0.778 0.879 0.778 0.873ZM0.812 0.873H0.817Q0.817 0.879 0.812 0.879ZM0.188 0.884H0.190V0.890H0.188ZM0.784 0.887H0.787V0.893H0.784ZM0.160 0.893Q0.163 0.893 0.174 0.901Q0.171 0.909 0.168 0.909Q0.168 0.912 0.171 0.912L0.168 0.926V0.955Q0.151 0.980 0.149 0.980H0.134Q0.143 0.961 0.149 0.961Q0.157 0.949 0.157 0.938L0.154 0.932Q0.163 0.932 0.163 0.923Q0.160 0.919 0.160 0.912L0.163 0.907Q0.160 0.902 0.160 0.895ZM0.188 0.895H0.190L0.188 0.901V0.915L0.190 0.921L0.182 0.926H0.179L0.185 0.901Q0.182 0.901 0.182 0.898ZM0.536 0.895 0.551 0.898Q0.548 0.903 0.548 0.912H0.539Q0.535 0.912 0.530 0.904V0.901Q0.536 0.901 0.536 0.895ZM0.620 0.895H0.623Q0.623 0.902 0.626 0.907L0.620 0.909ZM0.146 0.898H0.149V0.923Q0.149 0.931 0.140 0.958Q0.143 0.958 0.143 0.961Q0.123 0.963 0.123 0.974V0.977L0.117 0.974V0.980H0.103Q0.100 0.980 0.095 0.972Q0.127 0.934 0.146 0.898ZM0.204 0.898V0.904H0.199Q0.200 0.898 0.204 0.898ZM0.741 0.898Q0.766 0.904 0.773 0.904Q0.773 0.901 0.776 0.901L0.778 0.907Q0.764 0.918 0.762 0.918Q0.740 0.912 0.738 0.912ZM0.634 0.901H0.640V0.904Q0.640 0.909 0.634 0.909ZM0.697 0.918H0.699Q0.705 0.921 0.708 0.921Q0.705 0.926 0.705 0.929H0.702Q0.697 0.929 0.697 0.923ZM0.790 0.921Q0.790 0.923 0.809 0.949H0.806Q0.803 0.949 0.787 0.929H0.784Q0.777 0.929 0.776 0.944H0.759Q0.774 0.921 0.790 0.921ZM0.738 0.932H0.744L0.750 0.935Q0.750 0.932 0.753 0.932V0.941H0.750Q0.738 0.936 0.738 0.932ZM0.784 0.941H0.787Q0.792 0.941 0.792 0.947H0.784ZM0.815 0.955 0.831 0.980H0.798Q0.798 0.974 0.795 0.974Q0.798 0.958 0.801 0.958Q0.806 0.961 0.809 0.961Q0.810 0.955 0.815 0.955ZM0.778 0.958H0.781Q0.787 0.958 0.787 0.963L0.784 0.977Q0.787 0.977 0.787 0.980H0.773Q0.773 0.976 0.762 0.961H0.764Q0.770 0.963 0.773 0.963Q0.773 0.958 0.778 0.958Z" fill="black"/>
</svg>
