<svg xmlns="http://www.w3.org/2000/svg" viewBox="0 0 1 1" preserveAspectRatio="xMidYMid meet">
  <path d="M0.184 0.037H0.237Q0.239 0.037 0.265 0.074V0.077Q0.254 0.077 0.254 0.082Q0.263 0.085 0.282 0.122L0.279 0.136Q0.241 0.136 0.215 0.077Q0.208 0.077 0.184 0.037ZM0.867 0.037H0.912Q0.856 0.077 0.856 0.108L0.859 0.125V0.127L0.665 0.400Q0.679 0.401 0.679 0.409V0.412L0.645 0.406V0.358Q0.645 0.355 0.642 0.355Q0.642 0.346 0.710 0.254Q0.717 0.254 0.741 0.212Q0.743 0.212 0.749 0.204Q0.744 0.194 0.744 0.189Q0.747 0.189 0.747 0.186Q0.744 0.186 0.744 0.184Q0.753 0.178 0.760 0.178L0.766 0.181Q0.788 0.148 0.867 0.040ZM0.909 0.051H0.912Q0.896 0.079 0.873 0.100L0.870 0.113L0.865 0.111Q0.865 0.079 0.909 0.051ZM0.243 0.091 0.237 0.100V0.108Q0.237 0.112 0.248 0.119Q0.253 0.119 0.259 0.108V0.100Q0.257 0.091 0.243 0.091ZM0.245 0.100H0.251V0.108H0.245ZM0.290 0.125Q0.308 0.125 0.347 0.189Q0.322 0.189 0.299 0.206Q0.297 0.200 0.254 0.139Q0.278 0.144 0.282 0.144Q0.290 0.132 0.290 0.125ZM0.352 0.195Q0.363 0.207 0.363 0.215Q0.342 0.236 0.324 0.243Q0.324 0.237 0.305 0.212Q0.335 0.195 0.352 0.195ZM0.431 0.198Q0.459 0.198 0.459 0.240H0.456Q0.459 0.245 0.459 0.248H0.468Q0.468 0.236 0.487 0.232Q0.522 0.232 0.522 0.254Q0.507 0.273 0.493 0.273H0.476V0.282Q0.484 0.293 0.484 0.308Q0.484 0.327 0.470 0.327Q0.450 0.322 0.442 0.316H0.440L0.490 0.386Q0.462 0.386 0.462 0.406Q0.541 0.423 0.541 0.434L0.555 0.437Q0.555 0.432 0.566 0.426Q0.577 0.427 0.577 0.434Q0.603 0.430 0.603 0.423L0.594 0.412Q0.617 0.412 0.626 0.386V0.377L0.623 0.372Q0.624 0.372 0.637 0.358V0.403L0.634 0.409Q0.640 0.415 0.676 0.420V0.423Q0.666 0.426 0.665 0.426L0.654 0.423Q0.634 0.426 0.634 0.431Q0.637 0.436 0.637 0.443Q0.632 0.443 0.623 0.459H0.634V0.462Q0.617 0.462 0.608 0.476V0.482H0.626V0.484Q0.594 0.484 0.594 0.499L0.597 0.504H0.586Q0.586 0.493 0.580 0.493L0.574 0.527Q0.574 0.530 0.577 0.530L0.574 0.558V0.586Q0.574 0.591 0.569 0.591H0.558Q0.551 0.591 0.549 0.577Q0.549 0.565 0.552 0.516Q0.552 0.476 0.541 0.476V0.473Q0.563 0.467 0.563 0.459V0.457Q0.563 0.452 0.555 0.448L0.549 0.451Q0.539 0.436 0.527 0.431Q0.524 0.431 0.524 0.434L0.510 0.431H0.504Q0.499 0.432 0.499 0.437V0.451Q0.499 0.457 0.504 0.457Q0.513 0.457 0.535 0.448L0.538 0.454Q0.502 0.462 0.490 0.473L0.468 0.448Q0.462 0.467 0.462 0.473V0.479Q0.462 0.484 0.482 0.490Q0.482 0.496 0.470 0.496V0.499L0.473 0.504Q0.456 0.510 0.451 0.510Q0.451 0.501 0.445 0.501L0.434 0.513V0.519L0.440 0.527Q0.437 0.527 0.437 0.530L0.426 0.524Q0.429 0.516 0.429 0.490L0.434 0.493L0.437 0.487Q0.431 0.487 0.431 0.482Q0.440 0.482 0.440 0.473L0.445 0.476L0.448 0.470L0.442 0.468Q0.442 0.472 0.434 0.476Q0.434 0.470 0.426 0.470V0.465H0.429L0.434 0.468L0.437 0.462Q0.425 0.458 0.420 0.448L0.434 0.451H0.440V0.448Q0.440 0.441 0.417 0.429V0.426L0.431 0.423V0.417H0.423V0.415H0.431Q0.455 0.422 0.476 0.448Q0.482 0.448 0.482 0.443Q0.482 0.426 0.456 0.412H0.451L0.445 0.415Q0.445 0.412 0.406 0.355V0.352L0.412 0.344L0.406 0.341H0.403Q0.400 0.341 0.400 0.344L0.395 0.341Q0.385 0.341 0.375 0.350H0.366Q0.366 0.348 0.377 0.336H0.366Q0.363 0.336 0.347 0.361Q0.347 0.355 0.341 0.355Q0.341 0.358 0.338 0.358V0.344Q0.340 0.338 0.344 0.338V0.344H0.347Q0.356 0.334 0.406 0.316Q0.442 0.299 0.442 0.282V0.279Q0.462 0.297 0.462 0.313H0.468V0.302Q0.468 0.289 0.451 0.268Q0.488 0.262 0.513 0.254V0.248H0.510Q0.499 0.248 0.448 0.254V0.243Q0.448 0.227 0.431 0.218H0.429V0.220Q0.431 0.226 0.431 0.229L0.420 0.220L0.415 0.223V0.218Q0.419 0.204 0.431 0.198ZM0.814 0.209Q0.825 0.212 0.825 0.223Q0.822 0.223 0.822 0.226L0.828 0.229Q0.835 0.223 0.840 0.223Q0.851 0.227 0.851 0.232V0.237Q0.845 0.244 0.845 0.248H0.840L0.822 0.245Q0.816 0.248 0.814 0.248L0.799 0.226V0.220Q0.805 0.209 0.814 0.209ZM0.369 0.220H0.372Q0.361 0.233 0.361 0.240Q0.372 0.245 0.377 0.245Q0.379 0.240 0.383 0.240H0.386L0.383 0.254Q0.391 0.254 0.395 0.279Q0.395 0.302 0.377 0.311H0.372Q0.372 0.302 0.366 0.302Q0.361 0.302 0.349 0.327H0.347V0.319L0.361 0.293Q0.351 0.273 0.344 0.271Q0.341 0.276 0.341 0.285H0.338Q0.338 0.276 0.336 0.265L0.341 0.268V0.265L0.333 0.251ZM0.377 0.229V0.234H0.372Q0.373 0.229 0.377 0.229ZM0.423 0.229Q0.434 0.251 0.434 0.259Q0.412 0.244 0.412 0.234ZM0.313 0.237Q0.319 0.240 0.322 0.240L0.310 0.254Q0.313 0.259 0.313 0.262H0.310Q0.305 0.262 0.305 0.257V0.245Q0.305 0.241 0.313 0.237ZM0.229 0.245H0.240Q0.245 0.245 0.268 0.251Q0.265 0.256 0.265 0.259Q0.247 0.254 0.240 0.254H0.231Q0.210 0.254 0.198 0.279H0.195Q0.189 0.279 0.189 0.273Q0.205 0.245 0.229 0.245ZM0.324 0.254Q0.336 0.258 0.336 0.262V0.265Q0.331 0.262 0.322 0.262Q0.324 0.257 0.324 0.254ZM0.273 0.257Q0.316 0.281 0.316 0.308V0.313H0.313Q0.291 0.268 0.273 0.268ZM0.400 0.262H0.403V0.268H0.400ZM0.429 0.262Q0.425 0.273 0.412 0.273V0.276L0.426 0.296L0.406 0.293H0.400L0.403 0.279V0.268Q0.424 0.262 0.429 0.262ZM0.788 0.265H0.794L0.808 0.268V0.271Q0.805 0.283 0.805 0.290Q0.819 0.290 0.819 0.308L0.811 0.313H0.799Q0.785 0.299 0.780 0.299Q0.780 0.295 0.788 0.265ZM0.429 0.273H0.431L0.437 0.276Q0.434 0.282 0.434 0.285H0.431Q0.431 0.279 0.429 0.273ZM0.181 0.290H0.189Q0.184 0.298 0.184 0.305H0.181ZM0.220 0.290H0.226Q0.259 0.299 0.259 0.325Q0.259 0.344 0.240 0.344H0.220Q0.220 0.336 0.215 0.336Q0.220 0.326 0.220 0.322L0.226 0.325H0.231Q0.237 0.325 0.237 0.316ZM0.336 0.299H0.338V0.313H0.336ZM0.400 0.302H0.415V0.305Q0.404 0.308 0.403 0.308ZM0.395 0.308V0.313H0.389Q0.390 0.308 0.395 0.308ZM0.755 0.311 0.763 0.322V0.336Q0.766 0.336 0.772 0.352H0.769L0.755 0.350Q0.750 0.352 0.744 0.352Q0.744 0.349 0.738 0.322Q0.744 0.311 0.755 0.311ZM0.181 0.313H0.184Q0.189 0.314 0.189 0.319L0.186 0.325Q0.189 0.325 0.189 0.327L0.195 0.325Q0.201 0.325 0.201 0.330Q0.191 0.330 0.184 0.338ZM0.338 0.322V0.333H0.333V0.327Q0.334 0.322 0.338 0.322ZM0.395 0.336 0.400 0.338H0.403Q0.429 0.334 0.429 0.327Q0.426 0.327 0.426 0.325Q0.395 0.329 0.395 0.336ZM0.620 0.322H0.626V0.341Q0.626 0.347 0.620 0.347H0.617L0.620 0.327ZM0.322 0.325H0.324Q0.324 0.342 0.341 0.397H0.338Q0.316 0.380 0.305 0.380V0.383Q0.332 0.403 0.366 0.443H0.358Q0.358 0.444 0.377 0.462H0.372Q0.358 0.454 0.333 0.448V0.445H0.352V0.443Q0.322 0.420 0.316 0.412Q0.305 0.377 0.279 0.377Q0.280 0.372 0.293 0.366Q0.302 0.366 0.316 0.377H0.322Q0.319 0.372 0.319 0.369Q0.319 0.365 0.322 0.325ZM0.605 0.333H0.611L0.608 0.347V0.352Q0.608 0.358 0.617 0.358L0.628 0.352V0.358L0.620 0.372L0.603 0.364L0.605 0.350ZM0.774 0.336H0.780L0.783 0.350Q0.776 0.350 0.774 0.336ZM0.138 0.338H0.144L0.141 0.352H0.138ZM0.201 0.338H0.204Q0.204 0.344 0.198 0.344H0.195Q0.195 0.338 0.201 0.338ZM0.192 0.347H0.195V0.352H0.192ZM0.161 0.350H0.164Q0.184 0.355 0.186 0.355L0.192 0.352V0.364H0.189L0.181 0.358Q0.178 0.358 0.161 0.375H0.155V0.372Q0.161 0.354 0.161 0.350ZM0.217 0.352Q0.236 0.360 0.248 0.377V0.380Q0.224 0.372 0.215 0.355Q0.217 0.355 0.217 0.352ZM0.712 0.355Q0.718 0.358 0.721 0.358V0.375Q0.719 0.375 0.704 0.372Q0.698 0.375 0.695 0.375Q0.699 0.355 0.712 0.355ZM0.755 0.361H0.763Q0.769 0.362 0.769 0.366V0.372H0.755Q0.749 0.372 0.749 0.366Q0.750 0.361 0.755 0.361ZM0.786 0.364H0.791Q0.796 0.364 0.799 0.375Q0.766 0.384 0.766 0.392Q0.753 0.383 0.749 0.383V0.380Q0.779 0.380 0.788 0.366Q0.786 0.366 0.786 0.364ZM0.178 0.369H0.186Q0.181 0.382 0.175 0.383H0.169V0.377Q0.169 0.374 0.178 0.369ZM0.344 0.369H0.347V0.380H0.344ZM0.358 0.369H0.361V0.377H0.358ZM0.392 0.369H0.397Q0.418 0.373 0.420 0.380V0.383Q0.409 0.377 0.400 0.377Q0.366 0.392 0.366 0.415H0.363Q0.363 0.412 0.358 0.386V0.383H0.361V0.392H0.366Q0.366 0.374 0.392 0.369ZM0.586 0.372Q0.591 0.373 0.591 0.377V0.380H0.580V0.377Q0.581 0.372 0.586 0.372ZM0.248 0.380H0.251V0.392H0.248ZM0.519 0.380H0.522V0.386H0.519ZM0.707 0.380Q0.730 0.386 0.730 0.400Q0.724 0.400 0.724 0.409H0.712Q0.709 0.409 0.695 0.392V0.383Q0.702 0.383 0.707 0.380ZM0.231 0.383Q0.237 0.383 0.237 0.397Q0.228 0.392 0.223 0.392Q0.223 0.388 0.231 0.383ZM0.561 0.383H0.563V0.389H0.561ZM0.412 0.386H0.415V0.389Q0.383 0.395 0.383 0.417V0.420L0.386 0.440H0.380L0.377 0.420Q0.380 0.386 0.412 0.386ZM0.611 0.392V0.395Q0.611 0.400 0.605 0.400V0.397Q0.606 0.392 0.611 0.392ZM0.473 0.395H0.493Q0.493 0.399 0.499 0.406L0.473 0.400ZM0.501 0.395H0.504Q0.508 0.395 0.513 0.403V0.409Q0.509 0.409 0.501 0.395ZM0.524 0.397H0.527Q0.527 0.409 0.563 0.417V0.420Q0.552 0.420 0.552 0.429Q0.532 0.421 0.524 0.406ZM0.420 0.417H0.423V0.420Q0.417 0.420 0.417 0.426H0.409Q0.409 0.418 0.420 0.417ZM0.431 0.431V0.434H0.434Q0.445 0.430 0.445 0.426V0.423H0.440Q0.435 0.423 0.431 0.431ZM0.558 0.443Q0.558 0.447 0.577 0.457Q0.577 0.461 0.588 0.468L0.591 0.462V0.459Q0.580 0.450 0.580 0.440L0.569 0.431Q0.565 0.431 0.558 0.443ZM0.406 0.437H0.409V0.445H0.406ZM0.507 0.440 0.522 0.443V0.445L0.507 0.448ZM0.608 0.445 0.605 0.451V0.462Q0.606 0.468 0.611 0.468L0.614 0.462V0.451Q0.614 0.445 0.608 0.445ZM0.544 0.459V0.465Q0.513 0.476 0.499 0.479Q0.504 0.472 0.544 0.459ZM0.533 0.479 0.527 0.487V0.668H0.524L0.522 0.648V0.591Q0.522 0.559 0.524 0.487Q0.519 0.487 0.519 0.482ZM0.541 0.484Q0.541 0.491 0.544 0.516Q0.541 0.565 0.541 0.577Q0.541 0.592 0.555 0.600H0.574V0.648L0.580 0.645H0.586V0.676H0.580L0.574 0.673V0.733Q0.586 0.733 0.586 0.738V0.758L0.580 0.766V0.769H0.586V0.800H0.583Q0.578 0.797 0.574 0.797V0.881Q0.581 0.898 0.583 0.898Q0.582 0.909 0.574 0.909V0.980H0.522V0.921L0.513 0.909V0.893Q0.522 0.893 0.522 0.887V0.865L0.513 0.854V0.848Q0.513 0.834 0.522 0.834V0.752Q0.516 0.752 0.496 0.775Q0.459 0.767 0.459 0.763Q0.455 0.763 0.454 0.749V0.747Q0.459 0.735 0.470 0.735Q0.470 0.739 0.499 0.758Q0.501 0.752 0.501 0.749Q0.496 0.731 0.496 0.727L0.501 0.724H0.513L0.522 0.730V0.695Q0.522 0.689 0.524 0.684Q0.522 0.679 0.522 0.676L0.527 0.679L0.535 0.668V0.490Q0.536 0.484 0.541 0.484ZM0.237 0.490H0.254L0.262 0.496Q0.259 0.501 0.259 0.504Q0.262 0.510 0.262 0.513Q0.256 0.513 0.237 0.496L0.217 0.510V0.501Q0.222 0.490 0.237 0.490ZM0.437 0.496 0.434 0.501 0.440 0.504 0.442 0.499ZM0.510 0.493H0.516V0.513Q0.495 0.507 0.487 0.507V0.499Q0.493 0.499 0.493 0.496Q0.502 0.501 0.507 0.501L0.504 0.496ZM0.614 0.496H0.620V0.499H0.614ZM0.273 0.499H0.285V0.501Q0.280 0.501 0.270 0.507L0.268 0.501ZM0.366 0.504H0.369Q0.369 0.513 0.383 0.513V0.519Q0.381 0.519 0.366 0.522ZM0.201 0.513H0.206V0.516H0.201ZM0.296 0.516H0.305V0.519H0.296ZM0.470 0.516Q0.476 0.519 0.479 0.519V0.522Q0.458 0.530 0.454 0.530Q0.448 0.530 0.448 0.524V0.519Q0.464 0.516 0.470 0.516ZM0.400 0.519H0.412Q0.417 0.519 0.417 0.524V0.527H0.409V0.533H0.415V0.536Q0.397 0.536 0.397 0.544L0.392 0.541H0.389L0.375 0.550L0.358 0.547H0.349L0.352 0.552H0.347V0.544Q0.365 0.544 0.369 0.533L0.375 0.530Q0.375 0.538 0.380 0.538H0.389Q0.389 0.533 0.397 0.533L0.395 0.527V0.524Q0.395 0.519 0.400 0.519ZM0.501 0.519H0.516L0.513 0.547V0.577H0.510Q0.499 0.566 0.490 0.566L0.496 0.558V0.552H0.493L0.484 0.558H0.479Q0.488 0.532 0.501 0.519ZM0.186 0.524V0.530L0.184 0.536Q0.196 0.572 0.229 0.572H0.254Q0.254 0.577 0.248 0.577Q0.212 0.577 0.164 0.552Q0.159 0.550 0.150 0.550H0.130Q0.091 0.573 0.091 0.608L0.094 0.629V0.631H0.091L0.088 0.611V0.603Q0.100 0.541 0.147 0.541Q0.151 0.541 0.181 0.550L0.178 0.530ZM0.333 0.524V0.530Q0.333 0.536 0.327 0.536H0.319Q0.319 0.527 0.333 0.524ZM0.265 0.530H0.268V0.533L0.257 0.536H0.254V0.533Q0.256 0.533 0.265 0.530ZM0.482 0.530V0.533L0.468 0.555V0.558L0.470 0.563L0.465 0.566Q0.465 0.561 0.459 0.561L0.456 0.566L0.445 0.561L0.442 0.566L0.454 0.572Q0.455 0.566 0.459 0.566Q0.459 0.575 0.468 0.575H0.473V0.577Q0.454 0.577 0.454 0.586H0.451Q0.444 0.580 0.437 0.580V0.577H0.442Q0.442 0.566 0.420 0.563V0.561H0.423L0.437 0.563V0.561L0.434 0.541L0.451 0.538L0.454 0.544Q0.442 0.545 0.442 0.552Q0.445 0.552 0.445 0.555Q0.442 0.555 0.442 0.558H0.448L0.456 0.552Q0.456 0.555 0.459 0.555L0.462 0.550H0.459L0.462 0.544V0.541H0.456V0.538Q0.461 0.538 0.482 0.530ZM0.248 0.536H0.254V0.538H0.248ZM0.330 0.547H0.336Q0.336 0.550 0.338 0.555Q0.332 0.555 0.327 0.558Q0.327 0.555 0.324 0.550ZM0.383 0.555H0.395L0.386 0.566Q0.392 0.567 0.392 0.572V0.575H0.383L0.369 0.577V0.561Q0.372 0.561 0.377 0.558V0.569H0.383ZM0.415 0.558H0.420V0.561H0.415ZM0.308 0.563H0.313V0.566H0.308ZM0.336 0.563H0.349V0.566H0.336ZM0.302 0.566H0.308V0.569H0.302ZM0.273 0.572H0.279V0.575H0.273ZM0.473 0.572H0.479V0.575H0.473ZM0.403 0.580H0.409V0.603H0.397V0.586Q0.398 0.580 0.403 0.580ZM0.386 0.583H0.392V0.586H0.386ZM0.375 0.586H0.377V0.603H0.369V0.591Q0.370 0.586 0.375 0.586ZM0.383 0.586H0.386V0.603H0.383ZM0.397 0.611H0.409V0.631H0.397ZM0.456 0.611H0.459V0.617H0.456ZM0.369 0.614H0.377V0.631H0.369ZM0.383 0.614H0.386V0.631H0.383ZM0.459 0.629H0.476Q0.480 0.629 0.484 0.637V0.651Q0.487 0.651 0.507 0.645Q0.512 0.645 0.519 0.673Q0.509 0.679 0.501 0.679H0.499Q0.493 0.679 0.487 0.676H0.479Q0.468 0.640 0.462 0.640Q0.456 0.646 0.456 0.651H0.454V0.640Q0.459 0.632 0.459 0.629ZM0.094 0.631H0.097V0.637H0.094ZM0.164 0.634Q0.169 0.643 0.169 0.648Q0.166 0.648 0.155 0.662Q0.156 0.668 0.161 0.668Q0.170 0.662 0.178 0.662H0.184L0.192 0.684Q0.175 0.690 0.175 0.693Q0.161 0.689 0.161 0.676H0.155L0.150 0.679L0.152 0.684V0.701H0.130V0.676Q0.142 0.670 0.147 0.670V0.665Q0.147 0.656 0.138 0.642Q0.138 0.634 0.164 0.634ZM0.102 0.642Q0.108 0.643 0.108 0.648H0.102ZM0.369 0.642H0.377V0.656H0.369ZM0.383 0.642H0.386V0.659H0.383ZM0.594 0.645Q0.600 0.648 0.603 0.648V0.673Q0.600 0.673 0.594 0.676ZM0.614 0.648H0.620Q0.620 0.649 0.634 0.684Q0.634 0.701 0.614 0.701ZM0.667 0.651H0.681Q0.687 0.652 0.687 0.656V0.673Q0.687 0.682 0.676 0.682V0.684Q0.693 0.695 0.693 0.698V0.712Q0.690 0.721 0.676 0.721Q0.663 0.721 0.651 0.693Q0.645 0.693 0.645 0.690L0.662 0.654ZM0.113 0.654H0.119V0.656H0.113ZM0.119 0.656H0.124V0.659H0.119ZM0.127 0.659H0.133V0.662H0.127ZM0.369 0.668H0.377V0.684H0.369ZM0.600 0.679H0.603V0.690H0.600ZM0.372 0.695H0.377V0.712H0.372V0.710L0.375 0.704Q0.372 0.698 0.372 0.695ZM0.369 0.721Q0.374 0.724 0.377 0.724V0.741H0.375Q0.369 0.741 0.369 0.735ZM0.383 0.730H0.386V0.735H0.383ZM0.369 0.749Q0.374 0.752 0.377 0.752V0.772Q0.372 0.769 0.369 0.769ZM0.594 0.769Q0.598 0.769 0.603 0.777V0.791Q0.603 0.797 0.597 0.797H0.594ZM0.369 0.780H0.377V0.802H0.375Q0.369 0.802 0.369 0.797ZM0.440 0.788H0.451Q0.455 0.788 0.468 0.808Q0.469 0.797 0.476 0.797H0.490Q0.494 0.797 0.499 0.805V0.811Q0.499 0.831 0.459 0.837Q0.459 0.840 0.456 0.840Q0.456 0.833 0.431 0.814Q0.429 0.809 0.429 0.802Q0.434 0.790 0.440 0.788ZM0.369 0.811H0.372Q0.377 0.812 0.377 0.816V0.819H0.369Z" fill="black"/>
</svg>
