<svg xmlns="http://www.w3.org/2000/svg" viewBox="0 0 1 1" preserveAspectRatio="xMidYMid meet">
  <path d="M0.921 -0.276H0.923V-0.262H0.921ZM0.921 -0.247H0.923V-0.242H0.921ZM0.895 -0.231H0.898V-0.222H0.895ZM0.909 -0.231H0.912V-0.222H0.909ZM0.909 -0.222V-0.214Q0.904 -0.214 0.904 -0.220ZM0.929 -0.181H0.932V-0.169H0.929ZM0.890 -0.166H0.893V-0.160H0.890ZM0.887 -0.158H0.895V-0.155Q0.895 -0.152 0.881 -0.141V-0.144Q0.887 -0.153 0.887 -0.158ZM0.873 -0.155H0.876V-0.149H0.873ZM0.870 -0.149H0.873V-0.144H0.870ZM0.854 -0.121H0.857V-0.116H0.854ZM0.854 -0.116V-0.113Q0.854 -0.108 0.848 -0.108V-0.110Q0.848 -0.116 0.854 -0.116ZM0.845 -0.108H0.848V-0.102H0.845ZM0.840 -0.099H0.842V-0.094H0.840ZM0.876 -0.094H0.879V-0.085H0.876ZM0.831 -0.085Q0.837 -0.082 0.840 -0.082Q0.840 -0.077 0.834 -0.077H0.831ZM0.862 -0.065V-0.059H0.857Q0.857 -0.065 0.862 -0.065ZM0.817 -0.051H0.819V-0.045H0.817ZM0.806 -0.034H0.808V-0.029H0.806ZM0.895 -0.032H0.898Q0.898 -0.026 0.906 -0.026Q0.884 -0.007 0.884 -0.001H0.881V-0.012L0.884 -0.026H0.887V-0.021H0.890Q0.895 -0.021 0.895 -0.032ZM0.837 -0.026H0.840V-0.018H0.837ZM0.859 -0.026H0.865V-0.023H0.859ZM0.803 -0.015H0.808V-0.004L0.803 -0.007L0.797 0.007H0.800Q0.790 0.033 0.781 0.033Q0.781 0.019 0.769 0.013Q0.769 0.016 0.767 0.016V0.013Q0.775 -0.001 0.783 -0.001Q0.789 0.002 0.792 0.002Q0.797 -0.015 0.803 -0.015ZM0.915 -0.007 0.918 -0.001Q0.912 0.000 0.912 0.004L0.915 0.010Q0.906 0.010 0.906 0.013Q0.902 0.010 0.893 0.010V0.007Q0.897 0.007 0.915 -0.007ZM0.593 0.002 0.598 0.004Q0.604 0.002 0.607 0.002V0.010Q0.607 0.015 0.595 0.019L0.593 0.013ZM0.822 0.002H0.831V0.010H0.822ZM0.857 0.002Q0.862 0.003 0.862 0.007H0.857ZM0.865 0.002H0.868V0.007H0.865ZM0.632 0.004 0.637 0.007Q0.643 0.004 0.646 0.004V0.022L0.640 0.019L0.634 0.022L0.632 0.016ZM0.764 0.016H0.767V0.025H0.764ZM0.800 0.022 0.806 0.025Q0.806 0.022 0.808 0.022V0.030H0.800ZM0.893 0.027H0.898V0.030H0.893ZM0.881 0.030Q0.887 0.031 0.887 0.036H0.881ZM0.912 0.030H0.915V0.036H0.912ZM0.133 0.039H0.806Q0.814 0.064 0.817 0.064Q0.804 0.089 0.797 0.089L0.800 0.094V0.111L0.794 0.108Q0.789 0.108 0.789 0.117H0.786Q0.766 0.058 0.758 0.058Q0.749 0.058 0.738 0.067Q0.738 0.064 0.736 0.064Q0.736 0.067 0.699 0.083V0.086H0.677L0.680 0.091V0.103H0.677Q0.672 0.100 0.669 0.100Q0.669 0.103 0.666 0.103V0.086H0.640V0.100H0.626V0.086H0.601V0.097H0.593Q0.587 0.097 0.587 0.086H0.133ZM0.837 0.039Q0.837 0.042 0.834 0.042L0.840 0.053Q0.835 0.064 0.831 0.064Q0.824 0.064 0.819 0.042Q0.834 0.039 0.837 0.039ZM0.898 0.058H0.901V0.067H0.898ZM0.873 0.061H0.881V0.067H0.873ZM0.758 0.069Q0.758 0.078 0.775 0.114Q0.768 0.114 0.750 0.126Q0.750 0.123 0.747 0.123Q0.744 0.131 0.730 0.131H0.727L0.724 0.117Q0.724 0.114 0.736 0.100L0.730 0.091L0.733 0.086H0.721V0.083Q0.729 0.083 0.736 0.078Q0.736 0.080 0.738 0.080Q0.738 0.076 0.758 0.069ZM0.912 0.078V0.080Q0.912 0.086 0.906 0.086V0.083Q0.908 0.078 0.912 0.078ZM0.669 0.086V0.089H0.674V0.086ZM0.814 0.083H0.825V0.086Q0.825 0.091 0.814 0.097ZM0.884 0.083H0.890V0.086H0.884ZM0.890 0.086H0.904V0.091L0.890 0.089ZM0.713 0.091H0.721V0.100Q0.721 0.105 0.716 0.105ZM0.873 0.091H0.876L0.879 0.111L0.868 0.120H0.865Q0.873 0.111 0.873 0.091ZM0.707 0.100Q0.713 0.118 0.713 0.120Q0.707 0.120 0.707 0.126V0.134L0.719 0.126L0.724 0.145H0.730L0.738 0.140Q0.738 0.142 0.741 0.142Q0.741 0.138 0.764 0.129L0.767 0.134L0.758 0.145V0.148Q0.761 0.148 0.761 0.145Q0.772 0.149 0.772 0.154V0.162Q0.772 0.166 0.764 0.170Q0.764 0.167 0.761 0.167V0.170L0.747 0.162Q0.741 0.163 0.741 0.167Q0.747 0.169 0.747 0.173V0.176Q0.747 0.181 0.736 0.187V0.184Q0.724 0.187 0.719 0.198Q0.719 0.201 0.721 0.201Q0.718 0.215 0.713 0.215Q0.713 0.212 0.710 0.212Q0.710 0.218 0.694 0.232Q0.652 0.288 0.643 0.302Q0.646 0.302 0.646 0.305Q0.658 0.299 0.663 0.299V0.305Q0.623 0.322 0.623 0.344H0.626L0.623 0.350Q0.623 0.364 0.632 0.380H0.637Q0.639 0.380 0.652 0.369H0.655Q0.655 0.389 0.604 0.426Q0.601 0.426 0.601 0.431H0.598V0.423Q0.601 0.423 0.601 0.420Q0.598 0.420 0.598 0.417Q0.594 0.417 0.579 0.428H0.576Q0.609 0.385 0.609 0.350H0.607L0.542 0.437H0.556L0.565 0.431V0.434Q0.523 0.460 0.514 0.476Q0.511 0.490 0.511 0.493Q0.511 0.501 0.533 0.515Q0.545 0.510 0.551 0.510Q0.551 0.513 0.539 0.521Q0.530 0.515 0.522 0.515H0.520V0.529L0.508 0.538V0.535Q0.510 0.524 0.514 0.524Q0.511 0.518 0.511 0.515H0.506Q0.484 0.549 0.461 0.549H0.458Q0.406 0.513 0.396 0.513Q0.396 0.509 0.383 0.499L0.391 0.484H0.385V0.478H0.391V0.470Q0.391 0.464 0.394 0.459Q0.391 0.442 0.380 0.442V0.440L0.394 0.437Q0.375 0.383 0.337 0.383L0.332 0.380Q0.332 0.383 0.329 0.383V0.380L0.323 0.383Q0.321 0.383 0.321 0.380Q0.299 0.386 0.296 0.392Q0.290 0.392 0.290 0.397H0.282V0.392Q0.308 0.374 0.329 0.372Q0.329 0.375 0.332 0.375Q0.332 0.372 0.334 0.372Q0.334 0.375 0.337 0.375V0.372Q0.396 0.391 0.396 0.415Q0.405 0.421 0.405 0.434H0.408L0.413 0.431V0.434Q0.408 0.441 0.408 0.445L0.410 0.451L0.408 0.456V0.459H0.410L0.427 0.426H0.421L0.413 0.431V0.428Q0.439 0.406 0.441 0.380Q0.438 0.380 0.438 0.377Q0.441 0.377 0.441 0.375H0.438L0.441 0.369Q0.437 0.322 0.402 0.322H0.399L0.377 0.341V0.336Q0.387 0.314 0.396 0.311Q0.396 0.314 0.399 0.314Q0.400 0.308 0.405 0.308Q0.405 0.311 0.408 0.311Q0.408 0.308 0.410 0.308Q0.410 0.311 0.413 0.311V0.308L0.433 0.319H0.435V0.308Q0.435 0.238 0.503 0.218Q0.513 0.218 0.517 0.215Q0.517 0.218 0.520 0.218Q0.520 0.215 0.522 0.215Q0.522 0.218 0.525 0.218V0.215Q0.578 0.215 0.593 0.285L0.590 0.290V0.293Q0.594 0.293 0.702 0.145V0.129Q0.691 0.129 0.685 0.117V0.114Q0.685 0.110 0.696 0.103V0.105ZM0.845 0.103H0.851V0.105H0.845ZM0.822 0.105H0.825V0.111H0.822ZM0.842 0.105H0.845V0.117H0.842ZM0.794 0.111H0.797V0.117H0.794ZM0.822 0.111V0.117H0.817Q0.818 0.111 0.822 0.111ZM0.783 0.120Q0.806 0.128 0.806 0.131V0.137L0.800 0.134V0.137L0.794 0.134L0.783 0.142Q0.781 0.137 0.781 0.134ZM0.859 0.120H0.865V0.123H0.859ZM0.590 0.123 0.595 0.126Q0.595 0.123 0.598 0.123V0.137H0.584V0.129Q0.585 0.123 0.590 0.123ZM0.623 0.123 0.632 0.129 0.637 0.126V0.140H0.634Q0.632 0.140 0.632 0.137L0.626 0.140H0.623ZM0.663 0.126Q0.666 0.126 0.666 0.129L0.671 0.126H0.677Q0.680 0.126 0.688 0.137Q0.683 0.149 0.677 0.151Q0.672 0.148 0.669 0.148Q0.669 0.151 0.666 0.151Q0.666 0.146 0.660 0.140ZM0.660 0.167H0.663Q0.668 0.170 0.671 0.170Q0.671 0.167 0.674 0.167V0.181H0.671Q0.669 0.181 0.669 0.178L0.663 0.181H0.660ZM0.736 0.207V0.210L0.741 0.207H0.747Q0.739 0.225 0.713 0.235V0.229Q0.713 0.221 0.736 0.207ZM0.444 0.302H0.447Q0.447 0.305 0.444 0.305L0.447 0.325V0.328Q0.447 0.330 0.444 0.330Q0.447 0.339 0.449 0.339Q0.449 0.341 0.447 0.341Q0.447 0.343 0.449 0.358Q0.448 0.380 0.444 0.380L0.447 0.386Q0.444 0.388 0.444 0.406H0.447V0.409Q0.435 0.409 0.416 0.462Q0.413 0.462 0.413 0.465L0.416 0.470Q0.412 0.470 0.408 0.478L0.416 0.490H0.410L0.405 0.487L0.399 0.496V0.501Q0.400 0.507 0.405 0.507Q0.405 0.504 0.408 0.504Q0.408 0.507 0.410 0.507Q0.410 0.504 0.413 0.504Q0.413 0.507 0.416 0.507Q0.416 0.504 0.419 0.504Q0.419 0.508 0.430 0.513L0.500 0.415L0.489 0.406Q0.489 0.409 0.486 0.409Q0.486 0.404 0.481 0.397V0.395Q0.501 0.409 0.506 0.412V0.406Q0.493 0.392 0.486 0.392V0.389H0.495Q0.496 0.395 0.500 0.395H0.503V0.386L0.517 0.395L0.587 0.299V0.285L0.584 0.279H0.587Q0.568 0.232 0.551 0.232Q0.551 0.229 0.522 0.224Q0.444 0.241 0.444 0.302ZM0.680 0.279H0.685Q0.685 0.285 0.680 0.285ZM0.674 0.288H0.677Q0.677 0.293 0.671 0.293H0.669Q0.669 0.288 0.674 0.288ZM0.663 0.296H0.669V0.299H0.663ZM0.399 0.353Q0.399 0.364 0.413 0.364Q0.402 0.371 0.402 0.383L0.394 0.377L0.383 0.383V0.380L0.388 0.372V0.366Q0.380 0.366 0.380 0.361Q0.392 0.361 0.399 0.353ZM0.478 0.358H0.483V0.364Q0.478 0.364 0.478 0.358ZM0.475 0.364H0.481Q0.481 0.375 0.483 0.375Q0.498 0.372 0.500 0.372Q0.505 0.375 0.508 0.375Q0.508 0.380 0.489 0.383L0.478 0.377Q0.478 0.380 0.475 0.380V0.377Q0.464 0.383 0.458 0.383V0.377Q0.475 0.375 0.475 0.364ZM0.287 0.369H0.293L0.282 0.380Q0.284 0.380 0.284 0.383H0.270L0.267 0.377Q0.278 0.369 0.287 0.369ZM0.481 0.386H0.486V0.389H0.481ZM0.472 0.392H0.481V0.395H0.472ZM0.508 0.397V0.403Q0.514 0.403 0.514 0.397ZM0.464 0.397H0.470V0.400H0.464ZM0.455 0.400H0.461V0.403H0.455ZM0.472 0.400H0.475Q0.479 0.400 0.483 0.409V0.412Q0.479 0.412 0.472 0.400ZM0.447 0.403H0.455V0.406H0.447ZM0.267 0.406H0.276Q0.271 0.417 0.267 0.417Q0.267 0.415 0.264 0.415Q0.267 0.409 0.267 0.406ZM0.481 0.415H0.489V0.423H0.483Q0.483 0.420 0.481 0.415ZM0.250 0.423H0.256Q0.262 0.423 0.264 0.448H0.262L0.253 0.442L0.247 0.445L0.245 0.440V0.437Q0.250 0.429 0.250 0.423ZM0.568 0.428H0.576V0.431Q0.573 0.431 0.568 0.434ZM0.197 0.445Q0.201 0.445 0.206 0.456Q0.203 0.461 0.203 0.465H0.206Q0.203 0.470 0.203 0.476L0.197 0.473Q0.177 0.481 0.172 0.481Q0.172 0.474 0.192 0.470V0.456Q0.197 0.456 0.197 0.445ZM0.309 0.448V0.456Q0.304 0.453 0.301 0.453V0.451Q0.304 0.451 0.309 0.448ZM0.217 0.451 0.222 0.453Q0.222 0.451 0.225 0.451V0.453Q0.225 0.459 0.220 0.459L0.217 0.453ZM0.225 0.456H0.234V0.459H0.225ZM0.234 0.459H0.239V0.462H0.234ZM0.242 0.462H0.245Q0.253 0.462 0.259 0.490Q0.259 0.512 0.242 0.515Q0.242 0.513 0.239 0.513Q0.239 0.515 0.236 0.515Q0.236 0.513 0.234 0.513Q0.234 0.518 0.228 0.518V0.515Q0.214 0.518 0.214 0.521L0.192 0.510V0.507Q0.210 0.478 0.220 0.478V0.476L0.217 0.470H0.231Q0.234 0.470 0.234 0.473Q0.238 0.470 0.247 0.470ZM0.570 0.462H0.573V0.467H0.570ZM0.539 0.467Q0.539 0.480 0.548 0.484Q0.557 0.478 0.562 0.478Q0.562 0.484 0.539 0.496V0.493L0.533 0.496Q0.528 0.496 0.528 0.490V0.487L0.531 0.481H0.528Q0.533 0.469 0.539 0.467ZM0.568 0.467H0.570V0.473H0.568ZM0.264 0.470 0.270 0.473Q0.270 0.470 0.273 0.470Q0.274 0.476 0.279 0.476L0.284 0.473L0.298 0.493Q0.298 0.530 0.259 0.549V0.546Q0.239 0.549 0.239 0.552L0.234 0.549Q0.231 0.549 0.231 0.552Q0.214 0.546 0.209 0.546V0.549Q0.195 0.542 0.181 0.538Q0.184 0.534 0.184 0.524Q0.178 0.524 0.178 0.513H0.184Q0.184 0.523 0.214 0.532Q0.214 0.529 0.217 0.529V0.532L0.242 0.524V0.527Q0.258 0.527 0.273 0.499L0.270 0.484V0.476H0.264ZM0.149 0.473H0.158V0.476Q0.155 0.476 0.149 0.478ZM0.337 0.473Q0.337 0.484 0.351 0.484L0.346 0.493V0.496L0.351 0.504H0.334Q0.334 0.510 0.329 0.510Q0.329 0.493 0.321 0.493V0.484L0.326 0.487Q0.331 0.484 0.334 0.484V0.481L0.332 0.476ZM0.163 0.481H0.172V0.484H0.163ZM0.144 0.484V0.490Q0.141 0.490 0.135 0.493V0.487Q0.138 0.487 0.144 0.484ZM0.163 0.484V0.490H0.158Q0.159 0.484 0.163 0.484ZM0.158 0.490V0.496H0.152Q0.153 0.490 0.158 0.490ZM0.133 0.493H0.135V0.499H0.133ZM0.152 0.496V0.499Q0.145 0.512 0.141 0.513V0.510Q0.146 0.497 0.152 0.496ZM0.495 0.499Q0.495 0.502 0.464 0.543Q0.483 0.539 0.497 0.507H0.495L0.497 0.501V0.499ZM0.562 0.499H0.565Q0.565 0.503 0.553 0.510V0.507Q0.553 0.503 0.562 0.499ZM0.307 0.504H0.312Q0.312 0.507 0.321 0.532Q0.334 0.532 0.334 0.518V0.515H0.337Q0.337 0.520 0.343 0.529L0.329 0.540H0.326V0.535H0.321V0.546H0.323V0.552Q0.312 0.552 0.312 0.565Q0.316 0.568 0.329 0.568V0.565H0.334Q0.332 0.571 0.332 0.574Q0.334 0.585 0.346 0.585Q0.346 0.582 0.343 0.582Q0.343 0.580 0.351 0.560Q0.348 0.560 0.348 0.557L0.354 0.554H0.357V0.557Q0.351 0.566 0.351 0.574Q0.363 0.585 0.363 0.594H0.366Q0.383 0.579 0.383 0.571L0.424 0.600V0.602Q0.410 0.622 0.408 0.622Q0.376 0.597 0.348 0.597Q0.346 0.591 0.346 0.588H0.332V0.594H0.329L0.315 0.591V0.594Q0.310 0.591 0.307 0.591V0.588Q0.315 0.588 0.315 0.582V0.577L0.304 0.574L0.307 0.579Q0.298 0.579 0.298 0.585V0.591H0.304V0.594Q0.301 0.594 0.296 0.597Q0.296 0.594 0.293 0.594Q0.293 0.600 0.287 0.600Q0.287 0.597 0.284 0.597Q0.284 0.600 0.282 0.600V0.597L0.247 0.608L0.231 0.600Q0.227 0.602 0.214 0.602V0.600L0.209 0.602Q0.209 0.594 0.203 0.594L0.209 0.582L0.197 0.579L0.200 0.574Q0.195 0.571 0.192 0.571L0.195 0.565H0.189L0.184 0.568Q0.184 0.558 0.178 0.552V0.549Q0.183 0.549 0.209 0.560V0.557L0.222 0.563V0.560L0.228 0.563Q0.231 0.563 0.231 0.560L0.236 0.563L0.242 0.560V0.563Q0.298 0.551 0.298 0.532Q0.307 0.527 0.307 0.504ZM0.374 0.510H0.380Q0.380 0.518 0.391 0.518V0.521Q0.386 0.521 0.380 0.529Q0.377 0.529 0.377 0.527L0.371 0.529H0.366V0.527Q0.374 0.513 0.374 0.510ZM0.138 0.513H0.141V0.518H0.138ZM0.135 0.518H0.138V0.527H0.135ZM0.351 0.521Q0.357 0.522 0.357 0.527H0.346Q0.347 0.521 0.351 0.521ZM0.405 0.529H0.408V0.535H0.405ZM0.133 0.532H0.135V0.554H0.133ZM0.413 0.535H0.421V0.540Q0.416 0.538 0.413 0.538ZM0.351 0.540H0.366Q0.366 0.546 0.360 0.546Q0.354 0.543 0.351 0.543ZM0.388 0.540H0.391Q0.412 0.546 0.444 0.568L0.430 0.588H0.433Q0.449 0.580 0.449 0.577Q0.455 0.579 0.458 0.579Q0.458 0.587 0.433 0.597Q0.433 0.594 0.391 0.560Q0.395 0.560 0.399 0.552ZM0.421 0.540H0.427V0.543H0.421ZM0.427 0.543H0.433V0.546H0.427ZM0.433 0.546Q0.438 0.549 0.441 0.549V0.552H0.433ZM0.334 0.549H0.337V0.554H0.334ZM0.441 0.552H0.444Q0.448 0.552 0.452 0.560H0.449Q0.446 0.560 0.441 0.552ZM0.119 0.560H0.122Q0.122 0.584 0.147 0.611H0.141V0.630H0.138V0.605H0.130V0.630Q0.127 0.630 0.122 0.633L0.119 0.627ZM0.332 0.560H0.337V0.563H0.332ZM0.478 0.563H0.489Q0.495 0.564 0.495 0.568V0.577Q0.481 0.565 0.478 0.565ZM0.135 0.568H0.138V0.574H0.135ZM0.464 0.571H0.470V0.574H0.464ZM0.475 0.577Q0.489 0.583 0.489 0.594Q0.475 0.589 0.475 0.577ZM0.141 0.579H0.144V0.585H0.141ZM0.144 0.585Q0.148 0.585 0.158 0.602H0.152ZM0.472 0.597H0.475Q0.475 0.602 0.478 0.602Q0.473 0.616 0.461 0.616Q0.472 0.602 0.472 0.597ZM0.206 0.600 0.209 0.605Q0.203 0.605 0.203 0.611V0.616H0.209V0.619Q0.206 0.619 0.200 0.622Q0.200 0.619 0.197 0.619Q0.197 0.625 0.192 0.625V0.622L0.186 0.625H0.184Q0.184 0.620 0.175 0.614H0.178L0.184 0.616Q0.184 0.608 0.186 0.608Q0.192 0.611 0.195 0.611Q0.195 0.606 0.206 0.600ZM0.181 0.602H0.184V0.608H0.181ZM0.160 0.605H0.166V0.611H0.160ZM0.301 0.605Q0.301 0.608 0.304 0.608V0.605L0.309 0.608L0.315 0.605V0.608L0.321 0.605Q0.323 0.605 0.323 0.608L0.329 0.605H0.332Q0.332 0.614 0.340 0.614V0.608H0.348V0.614L0.354 0.611H0.360Q0.382 0.611 0.419 0.644Q0.406 0.658 0.391 0.658V0.672H0.396L0.391 0.681V0.686H0.396Q0.396 0.688 0.380 0.703V0.706Q0.380 0.710 0.394 0.720L0.391 0.726V0.728Q0.391 0.736 0.396 0.745H0.394L0.388 0.742L0.385 0.748V0.753L0.388 0.759Q0.383 0.760 0.383 0.764Q0.383 0.767 0.385 0.767Q0.366 0.810 0.366 0.813V0.815Q0.368 0.815 0.368 0.818Q0.364 0.818 0.360 0.832Q0.337 0.836 0.337 0.840L0.323 0.838H0.321L0.315 0.840V0.835H0.307L0.301 0.838Q0.301 0.834 0.296 0.826Q0.305 0.818 0.309 0.818V0.815Q0.309 0.811 0.290 0.796L0.282 0.801Q0.282 0.796 0.276 0.796Q0.249 0.839 0.225 0.860L0.211 0.854V0.857Q0.178 0.851 0.178 0.849L0.181 0.843Q0.178 0.838 0.178 0.835V0.829H0.181Q0.181 0.840 0.186 0.840Q0.239 0.765 0.239 0.759V0.756Q0.239 0.751 0.231 0.751L0.234 0.739Q0.217 0.721 0.217 0.709H0.220Q0.215 0.689 0.195 0.689V0.686H0.203L0.209 0.689Q0.219 0.689 0.234 0.669V0.666Q0.228 0.655 0.220 0.655V0.652Q0.226 0.652 0.239 0.644V0.641Q0.247 0.641 0.247 0.650H0.256L0.264 0.639Q0.264 0.636 0.270 0.636V0.630Q0.270 0.625 0.256 0.625V0.619Q0.276 0.611 0.282 0.611L0.293 0.614Q0.293 0.605 0.301 0.605ZM0.307 0.627V0.639L0.309 0.644Q0.299 0.644 0.273 0.655L0.276 0.661Q0.257 0.669 0.256 0.686Q0.244 0.686 0.234 0.703V0.706Q0.234 0.710 0.253 0.726Q0.264 0.709 0.273 0.709V0.706Q0.259 0.690 0.259 0.689Q0.267 0.689 0.267 0.681Q0.264 0.681 0.264 0.678Q0.270 0.678 0.270 0.672L0.287 0.686H0.290Q0.294 0.686 0.309 0.666Q0.305 0.666 0.296 0.652H0.301L0.312 0.661H0.315V0.650L0.312 0.644H0.315L0.326 0.650L0.340 0.630L0.332 0.625L0.334 0.619Q0.334 0.615 0.326 0.611Q0.311 0.627 0.307 0.627ZM0.169 0.611H0.175V0.614H0.169ZM0.152 0.616Q0.166 0.623 0.166 0.627L0.160 0.630V0.627L0.155 0.630H0.152ZM0.247 0.622Q0.253 0.625 0.256 0.625V0.630Q0.250 0.627 0.247 0.627ZM0.242 0.627H0.247V0.630H0.242ZM0.234 0.630H0.242V0.636Q0.237 0.633 0.234 0.633ZM0.192 0.633H0.197V0.636H0.192ZM0.247 0.636H0.250V0.641H0.247ZM0.166 0.639V0.661Q0.166 0.671 0.169 0.686Q0.165 0.698 0.160 0.698H0.158Q0.153 0.698 0.149 0.684H0.152Q0.149 0.678 0.149 0.675Q0.149 0.670 0.152 0.641Q0.162 0.641 0.166 0.639ZM0.181 0.639H0.184V0.684H0.195V0.686H0.184V0.720Q0.184 0.723 0.186 0.723Q0.184 0.727 0.184 0.739H0.181ZM0.119 0.641 0.124 0.644Q0.124 0.641 0.127 0.641L0.130 0.647V0.807H0.138V0.753Q0.138 0.751 0.135 0.751L0.138 0.745V0.641H0.141V0.813Q0.141 0.815 0.144 0.815Q0.141 0.820 0.141 0.826L0.135 0.824H0.130V0.846Q0.127 0.846 0.127 0.843L0.122 0.846H0.119V0.751Q0.119 0.732 0.122 0.717Q0.119 0.703 0.119 0.684ZM0.374 0.661Q0.374 0.666 0.360 0.684V0.686H0.363Q0.377 0.672 0.383 0.672V0.664Q0.380 0.664 0.374 0.661ZM0.351 0.692Q0.351 0.700 0.334 0.714Q0.339 0.726 0.343 0.726H0.354Q0.354 0.718 0.360 0.712V0.698Q0.360 0.692 0.354 0.692ZM0.209 0.706H0.211Q0.211 0.712 0.206 0.712H0.203Q0.204 0.706 0.209 0.706ZM0.357 0.723 0.348 0.737H0.343V0.728Q0.332 0.731 0.332 0.742L0.343 0.737Q0.343 0.749 0.360 0.759H0.363Q0.377 0.745 0.383 0.745V0.742Q0.383 0.738 0.363 0.723ZM0.307 0.779 0.312 0.788Q0.301 0.791 0.301 0.796V0.799Q0.315 0.818 0.329 0.818Q0.360 0.814 0.360 0.796H0.363V0.782L0.366 0.776H0.357V0.790H0.354Q0.354 0.782 0.326 0.759Q0.318 0.762 0.307 0.779ZM0.225 0.773H0.231V0.776H0.225ZM0.408 0.776V0.782H0.402Q0.403 0.776 0.408 0.776ZM0.279 0.793Q0.284 0.790 0.287 0.790V0.785Q0.283 0.785 0.279 0.793ZM0.343 0.785V0.788Q0.343 0.791 0.334 0.796H0.332Q0.332 0.791 0.343 0.785ZM0.247 0.838H0.250V0.840Q0.247 0.856 0.247 0.863Q0.242 0.863 0.242 0.857ZM0.282 0.851V0.854Q0.276 0.863 0.276 0.868H0.270Q0.276 0.851 0.282 0.851ZM0.122 0.854Q0.127 0.857 0.130 0.857V0.877Q0.130 0.880 0.144 0.891L0.149 0.888Q0.162 0.902 0.189 0.911V0.913L0.184 0.922Q0.152 0.908 0.127 0.886Q0.117 0.880 0.116 0.868Q0.113 0.868 0.113 0.866V0.863Q0.122 0.863 0.122 0.854ZM0.152 0.857 0.163 0.868Q0.163 0.866 0.175 0.860Q0.184 0.863 0.184 0.866L0.189 0.863Q0.197 0.866 0.197 0.868L0.203 0.866Q0.208 0.868 0.211 0.868V0.866Q0.217 0.868 0.220 0.868V0.880L0.214 0.877L0.211 0.891Q0.202 0.886 0.197 0.886V0.888Q0.180 0.883 0.175 0.883V0.886Q0.166 0.883 0.166 0.880L0.160 0.883L0.155 0.880L0.158 0.874Q0.152 0.865 0.152 0.857ZM0.388 0.868H0.391V0.874H0.388ZM0.234 0.874H0.236V0.880H0.234ZM0.242 0.874H0.245V0.880H0.242ZM0.220 0.883H0.222V0.891H0.220ZM0.293 0.886H0.298Q0.296 0.891 0.296 0.894Q0.290 0.891 0.287 0.891Q0.288 0.886 0.293 0.886ZM0.492 0.886H0.508Q0.508 0.891 0.503 0.891H0.497Q0.492 0.891 0.492 0.886ZM0.565 0.886H0.570V0.888H0.565ZM0.483 0.888H0.492V0.891H0.483ZM0.262 0.891H0.264V0.897H0.262ZM0.282 0.891H0.287Q0.287 0.897 0.282 0.897ZM0.091 0.894H0.097V0.897H0.091ZM0.119 0.894Q0.130 0.897 0.130 0.911L0.135 0.908Q0.164 0.927 0.172 0.927Q0.159 0.944 0.152 0.944V0.950Q0.155 0.950 0.160 0.952Q0.175 0.948 0.175 0.938Q0.178 0.938 0.178 0.941Q0.189 0.941 0.189 0.927H0.267V0.922H0.270Q0.270 0.927 0.273 0.927L0.296 0.916V0.922H0.301L0.309 0.916V0.922H0.374L0.371 0.927H0.402L0.396 0.919Q0.411 0.919 0.419 0.905L0.424 0.908H0.435Q0.438 0.908 0.438 0.905Q0.444 0.908 0.447 0.908V0.911Q0.435 0.911 0.427 0.927H0.458Q0.464 0.927 0.511 0.952Q0.542 0.961 0.542 0.964L0.548 0.961Q0.556 0.964 0.556 0.967L0.562 0.964Q0.565 0.964 0.565 0.967L0.570 0.964L0.576 0.967Q0.576 0.964 0.579 0.964V0.967L0.584 0.964Q0.587 0.964 0.587 0.967L0.604 0.961Q0.604 0.964 0.607 0.964V0.961L0.612 0.964Q0.623 0.959 0.658 0.952V0.955L0.682 0.947Q0.682 0.950 0.685 0.950Q0.685 0.947 0.688 0.947Q0.688 0.950 0.691 0.950Q0.692 0.944 0.696 0.944Q0.696 0.947 0.699 0.947Q0.700 0.941 0.705 0.941Q0.705 0.944 0.707 0.944Q0.709 0.938 0.713 0.938V0.941Q0.762 0.927 0.769 0.927H0.792V0.941Q0.785 0.941 0.781 0.944Q0.781 0.941 0.778 0.941Q0.767 0.951 0.767 0.958L0.761 0.955L0.756 0.964L0.758 0.978H0.747V0.964L0.741 0.955Q0.760 0.947 0.767 0.947Q0.764 0.941 0.764 0.938Q0.761 0.938 0.761 0.941L0.756 0.938Q0.744 0.940 0.738 0.955L0.733 0.958Q0.733 0.955 0.730 0.955Q0.730 0.960 0.707 0.967Q0.707 0.964 0.705 0.964Q0.705 0.967 0.702 0.967V0.964Q0.682 0.968 0.682 0.978H0.666L0.669 0.973V0.967H0.666Q0.658 0.967 0.637 0.978V0.975L0.632 0.978H0.497Q0.495 0.978 0.495 0.975L0.489 0.978L0.455 0.964V0.967Q0.428 0.958 0.424 0.952L0.419 0.955Q0.400 0.947 0.396 0.947V0.950Q0.380 0.944 0.380 0.941L0.374 0.944Q0.364 0.938 0.346 0.936V0.938L0.334 0.933Q0.334 0.938 0.329 0.938V0.936L0.298 0.944V0.941Q0.276 0.944 0.276 0.947L0.247 0.941Q0.247 0.944 0.245 0.944V0.941L0.239 0.944L0.234 0.941Q0.234 0.944 0.211 0.955Q0.211 0.952 0.209 0.952Q0.206 0.958 0.206 0.961L0.200 0.958V0.970H0.209Q0.235 0.952 0.242 0.952V0.955Q0.245 0.955 0.245 0.952Q0.250 0.952 0.267 0.958V0.955L0.273 0.958L0.279 0.955V0.958Q0.309 0.954 0.318 0.950V0.952Q0.328 0.947 0.340 0.947V0.950Q0.343 0.950 0.343 0.947Q0.361 0.950 0.374 0.955V0.952Q0.391 0.957 0.391 0.961L0.396 0.958Q0.415 0.967 0.419 0.967V0.964Q0.441 0.975 0.449 0.975V0.978Q0.416 0.978 0.416 0.981L0.402 0.978H0.366L0.368 0.984V0.987Q0.360 0.996 0.360 1.000H0.337Q0.332 1.000 0.329 1.025H0.334V1.028H0.329Q0.281 1.009 0.273 1.009Q0.273 1.012 0.270 1.012Q0.270 1.007 0.259 1.000H0.256Q0.251 1.000 0.203 1.023H0.186L0.184 1.037Q0.178 1.037 0.178 1.031Q0.184 1.031 0.184 1.025V1.023L0.172 1.020Q0.169 1.025 0.169 1.028H0.166Q0.166 1.023 0.152 1.006H0.160V1.014H0.163Q0.181 1.004 0.181 1.000V0.992L0.166 0.989Q0.154 0.993 0.144 1.000H0.141V0.995Q0.139 0.995 0.124 0.998Q0.121 0.995 0.108 0.995L0.105 1.000Q0.108 1.000 0.108 1.003H0.097V0.998Q0.094 0.998 0.074 1.000H0.071V0.998Q0.087 0.998 0.094 0.978H0.082L0.088 0.970V0.967L0.068 0.964V0.961Q0.105 0.961 0.105 0.944Q0.108 0.944 0.108 0.941Q0.098 0.936 0.094 0.936V0.933Q0.124 0.933 0.124 0.919Q0.097 0.900 0.097 0.897H0.099L0.113 0.905H0.119ZM0.184 0.894Q0.189 0.897 0.192 0.897V0.900H0.184ZM0.520 0.894H0.525V0.897H0.520ZM0.197 0.897H0.200V0.902H0.192Q0.192 0.897 0.197 0.897ZM0.329 0.897H0.334V0.900H0.329ZM0.203 0.900Q0.209 0.900 0.209 0.905V0.908Q0.203 0.908 0.203 0.902ZM0.329 0.900Q0.329 0.903 0.312 0.913H0.309V0.908Q0.325 0.900 0.329 0.900ZM0.220 0.902H0.225V0.905H0.220ZM0.458 0.905H0.464V0.908H0.458ZM0.242 0.908V0.911Q0.242 0.916 0.236 0.916V0.913Q0.237 0.908 0.242 0.908ZM0.253 0.911H0.256Q0.256 0.914 0.259 0.919L0.250 0.925V0.922Q0.253 0.917 0.253 0.911ZM0.511 0.922H0.522V0.925H0.511ZM0.079 0.927H0.085V0.930H0.079ZM0.489 0.927H0.626V0.933Q0.623 0.933 0.612 0.950Q0.608 0.952 0.601 0.952Q0.598 0.952 0.598 0.950Q0.584 0.952 0.584 0.955L0.579 0.952Q0.576 0.952 0.576 0.955Q0.517 0.947 0.489 0.930ZM0.666 0.927H0.677L0.691 0.930V0.936Q0.688 0.936 0.682 0.938Q0.682 0.936 0.680 0.936Q0.680 0.938 0.677 0.938Q0.677 0.936 0.674 0.936Q0.674 0.941 0.669 0.941V0.938L0.643 0.947L0.640 0.941Q0.652 0.927 0.666 0.927ZM0.088 0.930H0.094V0.933H0.088ZM0.786 0.952H0.792V0.978H0.789L0.769 0.973Q0.782 0.952 0.786 0.952ZM0.671 0.973V0.975H0.677V0.967Q0.671 0.967 0.671 0.973ZM0.730 0.970V0.973L0.736 0.970H0.738V0.978H0.724V0.975Q0.725 0.970 0.730 0.970ZM0.102 0.978V0.981H0.108L0.105 0.987V0.989H0.110Q0.114 0.989 0.119 0.978ZM0.318 0.978V0.981H0.340V0.978ZM0.452 0.975H0.458V0.978H0.452ZM0.399 0.992H0.402V1.000H0.396Q0.399 0.995 0.399 0.992ZM0.360 1.000H0.366L0.371 1.003V1.000Q0.377 1.003 0.380 1.003V1.006Q0.371 1.009 0.363 1.009Q0.363 1.006 0.360 1.000ZM0.160 1.003H0.166V1.006H0.160ZM0.433 1.003H0.441V1.006H0.433ZM0.141 1.012H0.147V1.014H0.141ZM0.110 1.017Q0.115 1.020 0.122 1.020V1.023Q0.111 1.023 0.085 1.034Q0.085 1.030 0.110 1.017ZM0.256 1.017H0.259Q0.264 1.018 0.264 1.023L0.259 1.025Q0.259 1.022 0.256 1.017ZM0.242 1.023Q0.246 1.023 0.250 1.031Q0.250 1.037 0.245 1.037ZM0.262 1.025H0.264V1.031H0.262ZM0.228 1.028H0.231V1.034H0.228ZM0.334 1.028H0.340V1.031H0.334ZM0.197 1.031H0.200V1.042H0.195V1.039Q0.197 1.034 0.197 1.031ZM0.214 1.031H0.217V1.045H0.211ZM0.340 1.031H0.346V1.034H0.340ZM0.231 1.034H0.234Q0.234 1.037 0.236 1.042H0.231ZM0.301 1.039Q0.305 1.039 0.321 1.059H0.318Q0.304 1.048 0.298 1.048Q0.301 1.042 0.301 1.039ZM0.127 1.042 0.130 1.048Q0.125 1.048 0.116 1.056H0.113Q0.113 1.053 0.127 1.042ZM0.130 1.042H0.135V1.045H0.130ZM0.197 1.048H0.200Q0.200 1.077 0.203 1.093L0.200 1.110H0.197ZM0.228 1.048H0.231V1.056H0.228ZM0.209 1.051H0.211V1.056H0.209ZM0.147 1.056H0.149Q0.149 1.059 0.152 1.065L0.135 1.082V1.079Q0.147 1.063 0.147 1.056ZM0.220 1.056H0.222V1.062H0.220ZM0.105 1.059H0.110V1.062H0.105ZM0.284 1.059Q0.284 1.066 0.298 1.085V1.087Q0.295 1.087 0.276 1.062Q0.279 1.062 0.284 1.059ZM0.206 1.062H0.209V1.068H0.206ZM0.222 1.071H0.225V1.076H0.222ZM0.256 1.071H0.259Q0.259 1.074 0.264 1.096V1.099H0.262Q0.262 1.093 0.253 1.079Q0.256 1.074 0.256 1.071ZM0.178 1.074V1.076Q0.166 1.097 0.166 1.101H0.163V1.099Q0.170 1.074 0.178 1.074ZM0.225 1.082H0.231L0.234 1.096V1.118H0.231Q0.231 1.100 0.225 1.082ZM0.264 1.099H0.267V1.104H0.264ZM0.160 1.101H0.163V1.107H0.160ZM0.195 1.112H0.197V1.118H0.195Z" fill="black"/>
</svg>
