<svg xmlns="http://www.w3.org/2000/svg" viewBox="0 0 1 1" preserveAspectRatio="xMidYMid meet">
  <path d="M0.310 0.396H0.393V0.479H0.310ZM0.408 0.396H0.492V0.479H0.408ZM0.607 0.396H0.690V0.479H0.607ZM0.705 0.396H0.789V0.479H0.705ZM0.607 0.494H0.690V0.578H0.607ZM0.705 0.494H0.789V0.578H0.705ZM0.211 0.099H0.295V0.182H0.211ZM0.310 0.099H0.393V0.182H0.310ZM0.607 0.099H0.690V0.182H0.607ZM0.705 0.099H0.789V0.182H0.705ZM0.211 0.197H0.295V0.281H0.211ZM0.310 0.197H0.393V0.281H0.310ZM0.507 0.197H0.590V0.281H0.507ZM0.607 0.197H0.690V0.281H0.607ZM0.408 0.296H0.492V0.379H0.408ZM0.507 0.296H0.590V0.379H0.507ZM0.211 0.494H0.295V0.578H0.211ZM0.310 0.494H0.393V0.578H0.310Z" fill="black"/>
</svg>
