<svg xmlns="http://www.w3.org/2000/svg" viewBox="0 0 1 1" preserveAspectRatio="xMidYMid meet">
  <path d="M0.408 0.396H0.492V0.479H0.408ZM0.507 0.396H0.590V0.479H0.507ZM0.408 0.494H0.492V0.578H0.408ZM0.507 0.494H0.590V0.578H0.507ZM0.408 0.099H0.492V0.182H0.408ZM0.507 0.099H0.590V0.182H0.507ZM0.408 0.197H0.492V0.281H0.408ZM0.507 0.197H0.590V0.281H0.507ZM0.211 0.296H0.295V0.379H0.211ZM0.310 0.296H0.393V0.379H0.310ZM0.408 0.296H0.492V0.379H0.408ZM0.507 0.296H0.590V0.379H0.507ZM0.607 0.296H0.690V0.379H0.607ZM0.705 0.296H0.789V0.379H0.705Z" fill="black"/>
</svg>
