<svg xmlns="http://www.w3.org/2000/svg" viewBox="0 0 1 1" preserveAspectRatio="xMidYMid meet">
  <path d="M0.211 0.396H0.295V0.479H0.211ZM0.310 0.396H0.393V0.479H0.310ZM0.607 0.396H0.690V0.479H0.607ZM0.705 0.396H0.789V0.479H0.705ZM0.211 0.494H0.295V0.578H0.211ZM0.310 0.494H0.393V0.578H0.310ZM0.607 0.494H0.690V0.578H0.607ZM0.705 0.494H0.789V0.578H0.705ZM0.310 0.593H0.393V0.676H0.310ZM0.408 0.593H0.492V0.676H0.408ZM0.507 0.593H0.590V0.676H0.507ZM0.607 0.593H0.690V0.676H0.607ZM0.310 0.000H0.393V0.084H0.310ZM0.408 0.000H0.492V0.084H0.408ZM0.507 0.000H0.590V0.084H0.507ZM0.607 0.000H0.690V0.084H0.607ZM0.211 0.099H0.295V0.182H0.211ZM0.310 0.099H0.393V0.182H0.310ZM0.607 0.099H0.690V0.182H0.607ZM0.705 0.099H0.789V0.182H0.705ZM0.211 0.197H0.295V0.281H0.211ZM0.310 0.197H0.393V0.281H0.310ZM0.607 0.197H0.690V0.281H0.607ZM0.705 0.197H0.789V0.281H0.705ZM0.211 0.296H0.295V0.379H0.211ZM0.310 0.296H0.393V0.379H0.310ZM0.607 0.296H0.690V0.379H0.607ZM0.705 0.296H0.789V0.379H0.705Z" fill="black"/>
</svg>
