<svg xmlns="http://www.w3.org/2000/svg" viewBox="0 0 1 1" preserveAspectRatio="xMidYMid meet">
  <path d="M0.260 0.396H0.344V0.479H0.260ZM0.359 0.396H0.443V0.479H0.359ZM0.162 0.494H0.246V0.578H0.162ZM0.260 0.494H0.344V0.578H0.260ZM0.162 0.593H0.246V0.676H0.162ZM0.260 0.593H0.344V0.676H0.260ZM0.359 0.593H0.443V0.676H0.359ZM0.457 0.593H0.541V0.676H0.457ZM0.557 0.593H0.641V0.676H0.557ZM0.656 0.593H0.740V0.676H0.656ZM0.754 0.593H0.838V0.676H0.754ZM0.260 0.000H0.344V0.084H0.260ZM0.359 0.000H0.443V0.084H0.359ZM0.457 0.000H0.541V0.084H0.457ZM0.557 0.000H0.641V0.084H0.557ZM0.656 0.000H0.740V0.084H0.656ZM0.162 0.099H0.246V0.182H0.162ZM0.260 0.099H0.344V0.182H0.260ZM0.656 0.099H0.740V0.182H0.656ZM0.754 0.099H0.838V0.182H0.754ZM0.557 0.197H0.641V0.281H0.557ZM0.656 0.197H0.740V0.281H0.656ZM0.359 0.296H0.443V0.379H0.359ZM0.457 0.296H0.541V0.379H0.457ZM0.557 0.296H0.641V0.379H0.557Z" fill="black"/>
</svg>
