<svg xmlns="http://www.w3.org/2000/svg" viewBox="0 0 1 1" preserveAspectRatio="xMidYMid meet">
  <path d="M0.360 0.396H0.443V0.479H0.360ZM0.458 0.396H0.542V0.479H0.458ZM0.360 0.494H0.443V0.578H0.360ZM0.458 0.494H0.542V0.578H0.458ZM0.360 0.593H0.443V0.676H0.360ZM0.458 0.593H0.542V0.676H0.458ZM0.557 0.593H0.640V0.676H0.557ZM0.360 0.000H0.443V0.084H0.360ZM0.458 0.000H0.542V0.084H0.458ZM0.557 0.000H0.640V0.084H0.557ZM0.360 0.099H0.443V0.182H0.360ZM0.458 0.099H0.542V0.182H0.458ZM0.360 0.197H0.443V0.281H0.360ZM0.458 0.197H0.542V0.281H0.458ZM0.360 0.296H0.443V0.379H0.360ZM0.458 0.296H0.542V0.379H0.458Z" fill="black"/>
</svg>
