<svg xmlns="http://www.w3.org/2000/svg" viewBox="0 0 1 1" preserveAspectRatio="xMidYMid meet">
  <path d="M0.507 0.396H0.591V0.479H0.507ZM0.606 0.396H0.690V0.479H0.606ZM0.507 0.494H0.591V0.578H0.507ZM0.606 0.494H0.690V0.578H0.606ZM0.507 0.593H0.591V0.676H0.507ZM0.606 0.593H0.690V0.676H0.606ZM0.507 0.691H0.591V0.775H0.507ZM0.606 0.691H0.690V0.775H0.606ZM0.507 0.000H0.591V0.084H0.507ZM0.606 0.000H0.690V0.084H0.606ZM0.409 0.197H0.493V0.281H0.409ZM0.507 0.197H0.591V0.281H0.507ZM0.606 0.197H0.690V0.281H0.606ZM0.507 0.296H0.591V0.379H0.507ZM0.606 0.296H0.690V0.379H0.606ZM0.310 0.791H0.394V0.875H0.310ZM0.409 0.791H0.493V0.875H0.409ZM0.507 0.791H0.591V0.875H0.507Z" fill="black"/>
</svg>
