<svg xmlns="http://www.w3.org/2000/svg" viewBox="0 0 1 1" preserveAspectRatio="xMidYMid meet">
  <path d="M0.359 0.396H0.443V0.479H0.359ZM0.457 0.396H0.541V0.479H0.457ZM0.359 0.494H0.443V0.578H0.359ZM0.457 0.494H0.541V0.578H0.457ZM0.457 0.593H0.541V0.676H0.457ZM0.556 0.593H0.640V0.676H0.556ZM0.656 0.593H0.740V0.676H0.656ZM0.359 0.000H0.443V0.084H0.359ZM0.457 0.000H0.541V0.084H0.457ZM0.359 0.099H0.443V0.182H0.359ZM0.457 0.099H0.541V0.182H0.457ZM0.260 0.197H0.344V0.281H0.260ZM0.359 0.197H0.443V0.281H0.359ZM0.457 0.197H0.541V0.281H0.457ZM0.556 0.197H0.640V0.281H0.556ZM0.359 0.296H0.443V0.379H0.359ZM0.457 0.296H0.541V0.379H0.457Z" fill="black"/>
</svg>
