<svg xmlns="http://www.w3.org/2000/svg" viewBox="0 0 1 1" preserveAspectRatio="xMidYMid meet">
  <path d="M0.359 0.396H0.443V0.479H0.359ZM0.457 0.396H0.541V0.479H0.457ZM0.557 0.396H0.641V0.479H0.557ZM0.260 0.494H0.344V0.578H0.260ZM0.359 0.494H0.443V0.578H0.359ZM0.557 0.494H0.641V0.578H0.557ZM0.656 0.494H0.740V0.578H0.656ZM0.162 0.593H0.246V0.676H0.162ZM0.260 0.593H0.344V0.676H0.260ZM0.656 0.593H0.740V0.676H0.656ZM0.754 0.593H0.838V0.676H0.754ZM0.162 0.197H0.246V0.281H0.162ZM0.260 0.197H0.344V0.281H0.260ZM0.656 0.197H0.740V0.281H0.656ZM0.754 0.197H0.838V0.281H0.754ZM0.260 0.296H0.344V0.379H0.260ZM0.359 0.296H0.443V0.379H0.359ZM0.557 0.296H0.641V0.379H0.557ZM0.656 0.296H0.740V0.379H0.656Z" fill="black"/>
</svg>
