<svg xmlns="http://www.w3.org/2000/svg" viewBox="0 0 1 1" preserveAspectRatio="xMidYMid meet">
  <path d="M0.562 0.182 0.786 0.815H0.622L0.580 0.680H0.405L0.439 0.563H0.547V0.561L0.481 0.328H0.479L0.342 0.815H0.214V0.723L0.398 0.182ZM0.435 0.046Q0.435 0.065 0.449 0.078Q0.456 0.085 0.464 0.088L0.472 0.090Q0.476 0.090 0.479 0.090Q0.498 0.090 0.511 0.078Q0.524 0.065 0.524 0.046H0.551Q0.551 0.062 0.546 0.075L0.544 0.078Q0.540 0.087 0.532 0.095L0.530 0.098Q0.517 0.110 0.502 0.115L0.489 0.118Q0.484 0.118 0.479 0.118Q0.475 0.118 0.470 0.118L0.458 0.115Q0.442 0.110 0.429 0.097Q0.417 0.086 0.412 0.072L0.409 0.054V0.046Z" fill="black"/>
</svg>
