<svg xmlns="http://www.w3.org/2000/svg" viewBox="0 0 1 1" preserveAspectRatio="xMidYMid meet">
  <path d="M0.516 0.331Q0.554 0.330 0.575 0.334Q0.718 0.370 0.722 0.492V0.808L0.713 0.816H0.584L0.578 0.810V0.503Q0.572 0.459 0.516 0.454ZM0.551 0.601 0.541 0.610Q0.517 0.607 0.492 0.610Q0.448 0.615 0.420 0.632Q0.392 0.649 0.392 0.680Q0.392 0.703 0.422 0.715Q0.449 0.727 0.485 0.727Q0.520 0.728 0.543 0.721L0.551 0.728V0.814Q0.536 0.818 0.474 0.820Q0.430 0.819 0.395 0.812Q0.359 0.805 0.328 0.783Q0.314 0.775 0.306 0.765Q0.297 0.754 0.292 0.746Q0.287 0.737 0.285 0.729Q0.278 0.709 0.278 0.685Q0.278 0.604 0.333 0.562Q0.387 0.520 0.479 0.516Q0.517 0.512 0.543 0.515L0.551 0.522ZM0.491 0.455Q0.434 0.460 0.431 0.490L0.420 0.495L0.314 0.495L0.306 0.487Q0.305 0.378 0.427 0.338Q0.445 0.331 0.491 0.332ZM0.455 0.197Q0.455 0.216 0.468 0.229Q0.476 0.236 0.484 0.239L0.492 0.241Q0.495 0.241 0.499 0.241Q0.518 0.241 0.531 0.229Q0.544 0.216 0.544 0.197H0.571Q0.571 0.213 0.566 0.226L0.564 0.229Q0.560 0.238 0.552 0.246L0.550 0.249Q0.537 0.261 0.522 0.266L0.509 0.269Q0.504 0.269 0.499 0.269Q0.494 0.269 0.490 0.269L0.478 0.266Q0.462 0.261 0.449 0.248Q0.437 0.237 0.432 0.222L0.429 0.205V0.197Z" fill="black"/>
</svg>
