<svg xmlns="http://www.w3.org/2000/svg" viewBox="0 0 1 1" preserveAspectRatio="xMidYMid meet">
  <path d="M0.614 0.788 0.580 0.680H0.405L0.439 0.563H0.547V0.561L0.481 0.328H0.479L0.342 0.815H0.214V0.723L0.398 0.182H0.562L0.786 0.815H0.622V0.814Q0.613 0.817 0.605 0.825Q0.604 0.826 0.600 0.831Q0.592 0.843 0.592 0.857Q0.592 0.876 0.605 0.889Q0.612 0.896 0.620 0.899L0.628 0.901Q0.632 0.901 0.653 0.901V0.929Q0.631 0.929 0.626 0.929L0.615 0.926Q0.598 0.921 0.585 0.908Q0.573 0.896 0.568 0.882L0.565 0.865V0.849L0.566 0.840Q0.570 0.821 0.585 0.806Q0.596 0.796 0.608 0.791L0.611 0.789Q0.613 0.789 0.614 0.788Z" fill="black"/>
</svg>
