<svg xmlns="http://www.w3.org/2000/svg" viewBox="0 0 1 1" preserveAspectRatio="xMidYMid meet">
  <path d="M0.551 0.601 0.541 0.610Q0.517 0.607 0.492 0.610Q0.448 0.615 0.420 0.632Q0.392 0.649 0.392 0.680Q0.392 0.703 0.422 0.715Q0.449 0.727 0.485 0.727Q0.520 0.728 0.543 0.721L0.551 0.728V0.814Q0.536 0.818 0.474 0.820Q0.430 0.819 0.395 0.812Q0.359 0.805 0.328 0.783Q0.314 0.775 0.306 0.765Q0.297 0.754 0.292 0.746Q0.287 0.737 0.285 0.729Q0.278 0.709 0.278 0.685Q0.278 0.604 0.333 0.562Q0.387 0.520 0.479 0.516Q0.517 0.512 0.543 0.515L0.551 0.522ZM0.645 0.816H0.584L0.578 0.810V0.503Q0.572 0.459 0.516 0.454V0.331Q0.554 0.330 0.575 0.334Q0.718 0.370 0.722 0.492V0.808L0.713 0.816H0.687Q0.679 0.819 0.673 0.825Q0.673 0.826 0.668 0.831Q0.660 0.843 0.660 0.857Q0.660 0.876 0.673 0.889Q0.680 0.896 0.689 0.899L0.697 0.901Q0.700 0.901 0.722 0.901V0.929Q0.699 0.929 0.694 0.929L0.683 0.926Q0.667 0.921 0.653 0.908Q0.642 0.896 0.637 0.882L0.634 0.865V0.849L0.634 0.840Q0.637 0.827 0.645 0.816ZM0.491 0.455Q0.434 0.460 0.431 0.490L0.420 0.495L0.314 0.495L0.306 0.487Q0.305 0.378 0.427 0.338Q0.445 0.331 0.491 0.332Z" fill="black"/>
</svg>
