<svg xmlns="http://www.w3.org/2000/svg" viewBox="0 0 1 1" preserveAspectRatio="xMidYMid meet">
  <path d="M0.520 0.186 0.525 0.181H0.658L0.665 0.185V0.810L0.660 0.815H0.525L0.521 0.810ZM0.486 0.802Q0.450 0.816 0.409 0.816Q0.315 0.816 0.250 0.745Q0.184 0.674 0.184 0.573Q0.184 0.472 0.250 0.401Q0.315 0.330 0.409 0.330Q0.450 0.330 0.486 0.344V0.473Q0.455 0.445 0.413 0.445Q0.364 0.445 0.330 0.482Q0.296 0.520 0.296 0.572Q0.296 0.625 0.330 0.662Q0.364 0.699 0.413 0.699Q0.455 0.699 0.486 0.671ZM0.688 0.260 0.723 0.149H0.674V0.023H0.816V0.149L0.741 0.260Z" fill="black"/>
</svg>
