<svg xmlns="http://www.w3.org/2000/svg" viewBox="0 0 1 1" preserveAspectRatio="xMidYMid meet">
  <path d="M0.524 0.802Q0.488 0.816 0.446 0.816Q0.353 0.816 0.287 0.745Q0.221 0.674 0.221 0.573Q0.221 0.472 0.287 0.401Q0.353 0.330 0.446 0.330Q0.488 0.330 0.524 0.344V0.473Q0.492 0.445 0.451 0.445Q0.402 0.445 0.368 0.482Q0.333 0.520 0.333 0.572Q0.333 0.625 0.368 0.662Q0.402 0.699 0.451 0.699Q0.492 0.699 0.524 0.671ZM0.557 0.201V0.186L0.563 0.181H0.696L0.702 0.185V0.201H0.779V0.305H0.702V0.810L0.698 0.815H0.563L0.558 0.810L0.557 0.305H0.482V0.201Z" fill="black"/>
</svg>
