<svg xmlns="http://www.w3.org/2000/svg" viewBox="0 0 1 1" preserveAspectRatio="xMidYMid meet">
  <path d="M0.666 0.745Q0.604 0.810 0.520 0.816L0.517 0.812V0.702L0.521 0.697Q0.558 0.691 0.585 0.661Q0.586 0.659 0.588 0.657L0.671 0.739Q0.668 0.742 0.666 0.745ZM0.608 0.525Q0.601 0.505 0.585 0.487Q0.557 0.458 0.521 0.452L0.517 0.448V0.335L0.523 0.330Q0.605 0.336 0.670 0.400Q0.721 0.454 0.727 0.525Q0.729 0.578 0.719 0.614H0.397Q0.405 0.640 0.425 0.661Q0.450 0.689 0.485 0.696L0.489 0.702V0.812L0.485 0.816Q0.401 0.810 0.340 0.745Q0.273 0.674 0.273 0.573Q0.273 0.472 0.340 0.400Q0.401 0.336 0.485 0.330L0.489 0.334V0.450L0.486 0.453Q0.451 0.459 0.425 0.487Q0.409 0.505 0.401 0.525ZM0.455 0.197Q0.455 0.216 0.469 0.229Q0.476 0.236 0.484 0.239L0.492 0.241Q0.495 0.241 0.499 0.241Q0.518 0.241 0.531 0.229Q0.544 0.216 0.544 0.197H0.571Q0.571 0.213 0.566 0.226L0.564 0.229Q0.560 0.238 0.552 0.246L0.550 0.249Q0.537 0.261 0.522 0.266L0.509 0.269Q0.504 0.269 0.499 0.269Q0.495 0.269 0.490 0.269L0.478 0.266Q0.462 0.261 0.449 0.248Q0.437 0.237 0.432 0.222L0.429 0.205V0.197Z" fill="black"/>
</svg>
