<svg xmlns="http://www.w3.org/2000/svg" viewBox="0 0 1 1" preserveAspectRatio="xMidYMid meet">
  <path d="M0.410 0.815H0.266V0.181H0.410ZM0.658 0.814H0.436V0.697H0.733V0.814H0.704Q0.694 0.817 0.685 0.825Q0.685 0.826 0.680 0.831Q0.672 0.843 0.672 0.857Q0.672 0.876 0.685 0.889Q0.692 0.896 0.701 0.899L0.709 0.901Q0.712 0.901 0.734 0.901V0.929Q0.711 0.929 0.706 0.929L0.695 0.926Q0.679 0.921 0.665 0.908Q0.654 0.896 0.649 0.882L0.645 0.865V0.849L0.646 0.840Q0.649 0.826 0.658 0.814ZM0.708 0.422V0.538H0.436V0.422ZM0.732 0.182V0.298H0.435V0.182Z" fill="black"/>
</svg>
