<svg xmlns="http://www.w3.org/2000/svg" viewBox="0 0 1 1" preserveAspectRatio="xMidYMid meet">
  <path d="M0.608 0.525Q0.601 0.505 0.585 0.487Q0.557 0.458 0.521 0.452L0.517 0.448V0.335L0.523 0.330Q0.605 0.336 0.670 0.400Q0.721 0.454 0.727 0.525Q0.729 0.578 0.719 0.614H0.397Q0.405 0.640 0.425 0.661Q0.450 0.689 0.485 0.696L0.489 0.702V0.812L0.485 0.816Q0.401 0.810 0.340 0.745Q0.273 0.674 0.273 0.573Q0.273 0.472 0.340 0.400Q0.401 0.336 0.485 0.330L0.489 0.334V0.450L0.486 0.453Q0.451 0.459 0.425 0.487Q0.409 0.505 0.401 0.525ZM0.523 0.816Q0.522 0.816 0.520 0.816L0.517 0.812V0.702L0.521 0.697Q0.558 0.691 0.585 0.661Q0.586 0.659 0.588 0.657L0.671 0.739Q0.668 0.742 0.666 0.745Q0.622 0.791 0.566 0.808Q0.562 0.811 0.558 0.814Q0.558 0.815 0.553 0.820Q0.545 0.832 0.545 0.846Q0.545 0.865 0.558 0.878Q0.565 0.885 0.574 0.888L0.582 0.890Q0.585 0.890 0.607 0.890V0.918Q0.584 0.918 0.579 0.918L0.568 0.915Q0.552 0.910 0.538 0.897Q0.527 0.885 0.521 0.871L0.518 0.854V0.838L0.519 0.829Q0.521 0.822 0.523 0.816Z" fill="black"/>
</svg>
