<svg xmlns="http://www.w3.org/2000/svg" viewBox="0 0 1 1" preserveAspectRatio="xMidYMid meet">
  <path d="M0.562 0.476Q0.530 0.448 0.488 0.448Q0.440 0.448 0.405 0.486Q0.371 0.523 0.371 0.575Q0.371 0.628 0.405 0.665Q0.440 0.702 0.488 0.702Q0.530 0.702 0.562 0.674V0.803Q0.525 0.817 0.484 0.817Q0.391 0.817 0.325 0.746Q0.259 0.675 0.259 0.574Q0.259 0.474 0.325 0.403Q0.391 0.331 0.484 0.331Q0.525 0.331 0.562 0.346ZM0.596 0.518 0.596 0.337 0.600 0.332H0.735L0.740 0.337V0.519L0.741 0.520V0.836Q0.737 0.958 0.592 0.994Q0.570 0.998 0.532 0.997V0.874Q0.589 0.869 0.595 0.825V0.518ZM0.506 0.996Q0.458 0.997 0.439 0.990Q0.311 0.950 0.312 0.841L0.320 0.833L0.432 0.832L0.444 0.838Q0.446 0.867 0.506 0.873ZM0.500 0.187 0.435 0.270H0.381L0.473 0.154H0.527L0.619 0.270H0.566Z" fill="black"/>
</svg>
