<svg xmlns="http://www.w3.org/2000/svg" viewBox="0 0 1 1" preserveAspectRatio="xMidYMid meet">
  <path d="M0.487 0.297Q0.432 0.304 0.391 0.355Q0.345 0.414 0.345 0.498Q0.345 0.582 0.391 0.641Q0.432 0.693 0.487 0.700V0.814Q0.370 0.810 0.286 0.722Q0.197 0.629 0.197 0.497Q0.197 0.366 0.286 0.273Q0.370 0.185 0.487 0.181ZM0.615 0.355Q0.571 0.299 0.510 0.296V0.180Q0.629 0.184 0.714 0.273Q0.757 0.318 0.779 0.373L0.654 0.435Q0.643 0.391 0.615 0.355ZM0.803 0.505Q0.800 0.632 0.714 0.722Q0.629 0.811 0.510 0.815V0.701Q0.571 0.697 0.615 0.641Q0.622 0.632 0.629 0.621H0.509V0.505ZM0.455 0.046Q0.455 0.065 0.468 0.078Q0.476 0.085 0.484 0.088L0.492 0.090Q0.495 0.090 0.499 0.090Q0.518 0.090 0.531 0.078Q0.544 0.065 0.544 0.046H0.571Q0.571 0.062 0.566 0.075L0.564 0.078Q0.560 0.087 0.552 0.095L0.550 0.098Q0.537 0.110 0.522 0.115L0.509 0.118Q0.504 0.118 0.499 0.118Q0.494 0.118 0.490 0.118L0.478 0.115Q0.462 0.110 0.449 0.097Q0.437 0.086 0.432 0.072L0.429 0.054V0.046Z" fill="black"/>
</svg>
