<svg xmlns="http://www.w3.org/2000/svg" viewBox="0 0 1 1" preserveAspectRatio="xMidYMid meet">
  <path d="M0.562 0.476Q0.530 0.448 0.488 0.448Q0.440 0.448 0.405 0.486Q0.371 0.523 0.371 0.575Q0.371 0.628 0.405 0.665Q0.440 0.702 0.488 0.702Q0.530 0.702 0.562 0.674V0.803Q0.525 0.817 0.484 0.817Q0.391 0.817 0.325 0.746Q0.259 0.675 0.259 0.574Q0.259 0.474 0.325 0.403Q0.391 0.331 0.484 0.331Q0.525 0.331 0.562 0.346ZM0.596 0.518 0.596 0.337 0.600 0.332H0.735L0.740 0.337V0.519L0.741 0.520V0.836Q0.737 0.958 0.592 0.994Q0.570 0.998 0.532 0.997V0.874Q0.589 0.869 0.595 0.825V0.518ZM0.506 0.996Q0.458 0.997 0.439 0.990Q0.311 0.950 0.312 0.841L0.320 0.833L0.432 0.832L0.444 0.838Q0.446 0.867 0.506 0.873ZM0.455 0.197Q0.455 0.216 0.468 0.229Q0.476 0.236 0.484 0.239L0.492 0.241Q0.495 0.241 0.499 0.241Q0.518 0.241 0.531 0.229Q0.544 0.216 0.544 0.197H0.571Q0.571 0.213 0.566 0.226L0.564 0.229Q0.560 0.238 0.552 0.246L0.550 0.249Q0.537 0.261 0.522 0.266L0.509 0.269Q0.504 0.269 0.499 0.269Q0.494 0.269 0.490 0.269L0.478 0.266Q0.462 0.261 0.449 0.248Q0.437 0.237 0.432 0.222L0.429 0.205V0.197Z" fill="black"/>
</svg>
