<svg xmlns="http://www.w3.org/2000/svg" viewBox="0 0 1 1" preserveAspectRatio="xMidYMid meet">
  <path d="M0.572 0.815H0.428V0.181H0.572ZM0.494 0.102Q0.492 0.100 0.491 0.098Q0.490 0.098 0.490 0.097L0.485 0.093Q0.474 0.085 0.459 0.085Q0.440 0.085 0.428 0.098Q0.421 0.105 0.417 0.113V0.117H0.389L0.390 0.108Q0.395 0.091 0.408 0.078Q0.420 0.067 0.434 0.061L0.451 0.058H0.467L0.476 0.059Q0.495 0.063 0.510 0.078Q0.512 0.080 0.513 0.081Q0.524 0.090 0.540 0.090Q0.558 0.090 0.572 0.077Q0.579 0.069 0.583 0.059H0.611Q0.609 0.069 0.605 0.078L0.603 0.081Q0.598 0.089 0.591 0.097Q0.580 0.107 0.567 0.113L0.562 0.114Q0.552 0.117 0.540 0.117Q0.520 0.117 0.508 0.110Q0.501 0.107 0.494 0.102Z" fill="black"/>
</svg>
