<svg xmlns="http://www.w3.org/2000/svg" viewBox="0 0 1 1" preserveAspectRatio="xMidYMid meet">
  <path d="M0.572 0.810 0.568 0.815H0.432L0.428 0.810V0.337L0.435 0.330L0.563 0.330L0.572 0.339ZM0.455 0.197Q0.455 0.216 0.469 0.229Q0.476 0.236 0.484 0.239L0.492 0.241Q0.496 0.241 0.500 0.241Q0.518 0.241 0.531 0.229Q0.544 0.216 0.544 0.197H0.572Q0.572 0.213 0.566 0.226L0.564 0.229Q0.560 0.238 0.553 0.246L0.550 0.249Q0.538 0.261 0.523 0.266L0.509 0.269Q0.504 0.269 0.500 0.269Q0.495 0.269 0.490 0.269L0.478 0.266Q0.462 0.261 0.449 0.248Q0.437 0.237 0.432 0.222L0.429 0.205V0.197Z" fill="black"/>
</svg>
