<svg xmlns="http://www.w3.org/2000/svg" viewBox="0 0 1 1" preserveAspectRatio="xMidYMid meet">
  <path d="M0.431 0.296 0.428 0.293V0.185L0.432 0.181H0.568L0.572 0.185V0.292L0.568 0.296ZM0.496 0.815H0.432L0.428 0.810V0.337L0.435 0.330L0.563 0.330L0.572 0.339V0.810L0.568 0.815H0.540Q0.531 0.818 0.523 0.825Q0.523 0.826 0.519 0.831Q0.510 0.843 0.510 0.857Q0.510 0.876 0.523 0.889Q0.530 0.896 0.539 0.899L0.547 0.901Q0.550 0.901 0.572 0.901V0.929Q0.549 0.929 0.545 0.929L0.533 0.926Q0.517 0.921 0.504 0.908Q0.492 0.896 0.487 0.882L0.484 0.865V0.849L0.484 0.840Q0.487 0.826 0.496 0.815Z" fill="black"/>
</svg>
