<svg xmlns="http://www.w3.org/2000/svg" viewBox="0 0 1 1" preserveAspectRatio="xMidYMid meet">
  <path d="M0.514 0.702 0.519 0.697Q0.555 0.691 0.582 0.661Q0.615 0.625 0.615 0.575Q0.615 0.524 0.582 0.487Q0.555 0.458 0.518 0.452L0.514 0.448V0.335L0.521 0.330Q0.603 0.336 0.663 0.400Q0.730 0.472 0.730 0.573Q0.730 0.674 0.663 0.745Q0.602 0.810 0.517 0.816L0.514 0.812ZM0.337 0.745Q0.270 0.674 0.270 0.573Q0.270 0.472 0.337 0.400Q0.399 0.336 0.482 0.330L0.486 0.334V0.450L0.483 0.453Q0.449 0.459 0.422 0.487Q0.389 0.524 0.389 0.575Q0.389 0.625 0.422 0.661Q0.448 0.689 0.482 0.696L0.486 0.702V0.812L0.482 0.816Q0.399 0.810 0.337 0.745ZM0.455 0.197Q0.455 0.216 0.468 0.229Q0.476 0.236 0.484 0.239L0.492 0.241Q0.495 0.241 0.499 0.241Q0.518 0.241 0.531 0.229Q0.544 0.216 0.544 0.197H0.571Q0.571 0.213 0.566 0.226L0.564 0.229Q0.560 0.238 0.552 0.246L0.550 0.249Q0.537 0.261 0.522 0.266L0.509 0.269Q0.504 0.269 0.499 0.269Q0.494 0.269 0.490 0.269L0.478 0.266Q0.462 0.261 0.449 0.248Q0.437 0.237 0.432 0.222L0.429 0.205V0.197Z" fill="black"/>
</svg>
