<svg xmlns="http://www.w3.org/2000/svg" viewBox="0 0 1 1" preserveAspectRatio="xMidYMid meet">
  <path d="M0.166 0.745Q0.099 0.674 0.099 0.573Q0.099 0.472 0.166 0.400Q0.228 0.336 0.311 0.330L0.315 0.334V0.450L0.312 0.453Q0.278 0.459 0.251 0.487Q0.218 0.524 0.218 0.575Q0.218 0.625 0.251 0.661Q0.277 0.689 0.311 0.696L0.315 0.702V0.812L0.311 0.816Q0.228 0.810 0.166 0.745ZM0.503 0.733Q0.498 0.739 0.492 0.745Q0.431 0.810 0.346 0.816L0.343 0.812V0.702L0.348 0.697Q0.384 0.691 0.411 0.661Q0.444 0.625 0.444 0.575Q0.444 0.524 0.411 0.487Q0.384 0.458 0.347 0.452L0.343 0.448V0.335L0.350 0.330Q0.432 0.336 0.492 0.400Q0.498 0.407 0.503 0.413Q0.508 0.407 0.514 0.400Q0.575 0.336 0.659 0.330L0.663 0.334V0.450L0.660 0.453Q0.625 0.459 0.599 0.487Q0.583 0.505 0.575 0.525H0.782Q0.774 0.505 0.758 0.487Q0.731 0.458 0.695 0.452L0.691 0.448V0.335L0.697 0.330Q0.779 0.336 0.844 0.400Q0.895 0.454 0.901 0.525Q0.903 0.578 0.893 0.614H0.571Q0.579 0.640 0.599 0.661Q0.624 0.689 0.659 0.696L0.663 0.702V0.812L0.659 0.816Q0.575 0.810 0.514 0.745Q0.508 0.739 0.503 0.733ZM0.840 0.745Q0.778 0.810 0.694 0.816L0.691 0.812V0.702L0.695 0.697Q0.731 0.691 0.758 0.661Q0.760 0.659 0.762 0.657L0.845 0.739Q0.842 0.742 0.840 0.745Z" fill="black"/>
</svg>
