<svg xmlns="http://www.w3.org/2000/svg" viewBox="0 0 1 1" preserveAspectRatio="xMidYMid meet">
  <path d="M0.378 0.815H0.234V0.181H0.378ZM0.667 0.530Q0.683 0.547 0.699 0.580Q0.705 0.587 0.710 0.637L0.715 0.659Q0.730 0.749 0.739 0.773Q0.746 0.791 0.766 0.815H0.616Q0.607 0.814 0.589 0.760Q0.585 0.753 0.566 0.634Q0.558 0.606 0.530 0.589Q0.504 0.580 0.400 0.580V0.465H0.516Q0.583 0.441 0.583 0.376V0.365Q0.568 0.294 0.502 0.291H0.400V0.179H0.502Q0.630 0.179 0.687 0.248Q0.728 0.307 0.728 0.372V0.380Q0.728 0.455 0.685 0.511Q0.677 0.521 0.667 0.530ZM0.566 0.003H0.619L0.527 0.119H0.473L0.381 0.003H0.435L0.500 0.086Z" fill="black"/>
</svg>
