<svg xmlns="http://www.w3.org/2000/svg" viewBox="0 0 1 1" preserveAspectRatio="xMidYMid meet">
  <path d="M0.706 0.471V0.476L0.573 0.486Q0.568 0.440 0.519 0.437V0.334L0.521 0.332V0.330Q0.594 0.330 0.654 0.371Q0.692 0.402 0.706 0.471ZM0.284 0.659 0.288 0.656 0.419 0.651 0.421 0.652Q0.425 0.701 0.492 0.709V0.811L0.490 0.815Q0.409 0.812 0.362 0.787L0.347 0.779Q0.307 0.752 0.291 0.704Q0.284 0.673 0.284 0.659ZM0.532 0.631Q0.506 0.623 0.466 0.618Q0.419 0.608 0.380 0.590Q0.355 0.577 0.338 0.561Q0.310 0.532 0.305 0.505Q0.301 0.490 0.301 0.472Q0.302 0.441 0.307 0.425Q0.316 0.400 0.331 0.385Q0.354 0.361 0.390 0.349Q0.426 0.336 0.462 0.332L0.490 0.330L0.492 0.332V0.438Q0.440 0.445 0.440 0.466Q0.440 0.492 0.491 0.503Q0.499 0.504 0.547 0.511Q0.594 0.518 0.631 0.540Q0.701 0.577 0.714 0.641L0.716 0.664Q0.714 0.693 0.708 0.712Q0.705 0.718 0.698 0.733Q0.690 0.749 0.661 0.774Q0.624 0.800 0.588 0.810Q0.563 0.815 0.521 0.815L0.519 0.813V0.710Q0.577 0.706 0.577 0.669V0.661Q0.574 0.646 0.543 0.634ZM0.566 0.154H0.619L0.527 0.270H0.473L0.381 0.154H0.435L0.500 0.237Z" fill="black"/>
</svg>
