<svg xmlns="http://www.w3.org/2000/svg" viewBox="0 0 1 1" preserveAspectRatio="xMidYMid meet">
  <path d="M0.735 0.181 0.735 0.617Q0.732 0.780 0.602 0.808Q0.572 0.817 0.516 0.816V0.676Q0.590 0.667 0.592 0.602V0.181ZM0.408 0.181V0.602Q0.410 0.667 0.484 0.676V0.816Q0.428 0.817 0.398 0.808Q0.273 0.780 0.265 0.617L0.265 0.181ZM0.494 0.102Q0.493 0.100 0.491 0.098Q0.491 0.098 0.490 0.097L0.485 0.093Q0.474 0.085 0.459 0.085Q0.441 0.085 0.428 0.098Q0.421 0.105 0.418 0.113V0.117H0.389L0.390 0.108Q0.395 0.091 0.408 0.078Q0.420 0.067 0.434 0.061L0.452 0.058H0.468L0.476 0.059Q0.495 0.063 0.510 0.078Q0.512 0.080 0.513 0.081Q0.524 0.090 0.540 0.090Q0.558 0.090 0.572 0.077Q0.580 0.069 0.583 0.059H0.611Q0.609 0.069 0.605 0.078L0.603 0.081Q0.598 0.089 0.591 0.097Q0.580 0.107 0.567 0.113L0.562 0.114Q0.552 0.117 0.540 0.117Q0.520 0.117 0.508 0.110Q0.501 0.107 0.494 0.102Z" fill="black"/>
</svg>
