<svg xmlns="http://www.w3.org/2000/svg" viewBox="0 0 1 1" preserveAspectRatio="xMidYMid meet">
  <path d="M0.586 0.814V0.334L0.590 0.329H0.725L0.730 0.334V0.814ZM0.556 0.790 0.551 0.801Q0.530 0.815 0.479 0.815Q0.389 0.815 0.331 0.761Q0.272 0.707 0.270 0.607V0.335L0.273 0.330L0.410 0.329L0.414 0.335V0.632Q0.421 0.684 0.484 0.689Q0.521 0.689 0.549 0.664L0.556 0.671ZM0.455 0.197Q0.455 0.216 0.468 0.229Q0.476 0.236 0.484 0.239L0.492 0.241Q0.495 0.241 0.499 0.241Q0.518 0.241 0.531 0.229Q0.544 0.216 0.544 0.197H0.571Q0.571 0.213 0.566 0.226L0.564 0.229Q0.560 0.238 0.552 0.246L0.550 0.249Q0.537 0.261 0.522 0.266L0.509 0.269Q0.504 0.269 0.499 0.269Q0.494 0.269 0.490 0.269L0.478 0.266Q0.462 0.261 0.449 0.248Q0.437 0.237 0.432 0.222L0.429 0.205V0.197Z" fill="black"/>
</svg>
