<svg xmlns="http://www.w3.org/2000/svg" viewBox="0 0 1 1" preserveAspectRatio="xMidYMid meet">
  <path d="M0.735 0.181 0.735 0.617Q0.732 0.780 0.602 0.808Q0.572 0.817 0.516 0.816V0.676Q0.590 0.667 0.592 0.602V0.181ZM0.408 0.181V0.602Q0.410 0.667 0.484 0.676V0.816Q0.428 0.817 0.398 0.808Q0.273 0.780 0.265 0.617L0.265 0.181ZM0.488 0.114V0.143L0.478 0.142Q0.462 0.137 0.449 0.124Q0.437 0.112 0.432 0.098L0.429 0.080V0.064L0.429 0.056Q0.434 0.037 0.449 0.022Q0.459 0.011 0.472 0.006H0.474L0.475 0.005Q0.481 0.003 0.488 0.002V0.030Q0.477 0.033 0.468 0.041L0.464 0.047Q0.455 0.058 0.455 0.073Q0.455 0.091 0.468 0.104Q0.476 0.111 0.484 0.114ZM0.513 0.030V0.002Q0.523 0.004 0.532 0.008L0.535 0.010Q0.543 0.015 0.551 0.022Q0.561 0.033 0.566 0.045L0.568 0.050Q0.571 0.061 0.571 0.073Q0.571 0.088 0.566 0.101L0.564 0.105Q0.560 0.113 0.552 0.121L0.550 0.124Q0.537 0.136 0.522 0.141L0.513 0.143V0.115Q0.523 0.112 0.531 0.104Q0.544 0.091 0.544 0.073Q0.544 0.054 0.531 0.041Q0.523 0.033 0.513 0.030Z" fill="black"/>
</svg>
