<svg xmlns="http://www.w3.org/2000/svg" viewBox="0 0 1 1" preserveAspectRatio="xMidYMid meet">
  <path d="M0.586 0.814V0.334L0.590 0.329H0.725L0.730 0.334V0.814ZM0.556 0.790 0.551 0.801Q0.530 0.815 0.479 0.815Q0.389 0.815 0.331 0.761Q0.272 0.707 0.270 0.607V0.335L0.273 0.330L0.410 0.329L0.414 0.335V0.632Q0.421 0.684 0.484 0.689Q0.521 0.689 0.549 0.664L0.556 0.671ZM0.488 0.239V0.267L0.478 0.266Q0.462 0.261 0.449 0.248Q0.437 0.237 0.432 0.222L0.429 0.205V0.189L0.429 0.180Q0.434 0.161 0.449 0.146Q0.459 0.136 0.472 0.131H0.474L0.475 0.129Q0.481 0.127 0.488 0.126V0.154Q0.477 0.157 0.468 0.166L0.464 0.171Q0.455 0.183 0.455 0.197Q0.455 0.216 0.468 0.229Q0.476 0.236 0.484 0.239ZM0.513 0.154V0.126Q0.523 0.128 0.532 0.132L0.535 0.134Q0.543 0.139 0.551 0.146Q0.561 0.157 0.566 0.170L0.568 0.175Q0.571 0.185 0.571 0.197Q0.571 0.213 0.566 0.226L0.564 0.229Q0.560 0.238 0.552 0.246L0.550 0.249Q0.537 0.261 0.522 0.266L0.513 0.267V0.240Q0.523 0.237 0.531 0.229Q0.544 0.216 0.544 0.197Q0.544 0.179 0.531 0.166Q0.523 0.158 0.513 0.154Z" fill="black"/>
</svg>
