<svg xmlns="http://www.w3.org/2000/svg" viewBox="0 0 1 1" preserveAspectRatio="xMidYMid meet">
  <path d="M0.408 0.181V0.602Q0.410 0.667 0.484 0.676V0.816Q0.428 0.817 0.398 0.808Q0.273 0.780 0.265 0.617L0.265 0.181ZM0.526 0.816H0.516V0.676Q0.590 0.667 0.592 0.602V0.181H0.735L0.735 0.617Q0.732 0.780 0.602 0.808Q0.589 0.812 0.571 0.814Q0.562 0.817 0.555 0.825Q0.554 0.825 0.550 0.831Q0.541 0.842 0.541 0.857Q0.541 0.875 0.555 0.888Q0.562 0.895 0.570 0.898L0.578 0.900Q0.581 0.901 0.603 0.901V0.929Q0.581 0.929 0.576 0.928L0.564 0.926Q0.548 0.921 0.535 0.908Q0.523 0.896 0.518 0.882L0.515 0.864V0.848L0.515 0.840Q0.518 0.827 0.526 0.816Z" fill="black"/>
</svg>
