<svg xmlns="http://www.w3.org/2000/svg" viewBox="0 0 1 1" preserveAspectRatio="xMidYMid meet">
  <path d="M0.556 0.790 0.551 0.801Q0.530 0.815 0.479 0.815Q0.389 0.815 0.331 0.761Q0.272 0.707 0.270 0.607V0.335L0.273 0.330L0.410 0.329L0.414 0.335V0.632Q0.421 0.684 0.484 0.689Q0.521 0.689 0.549 0.664L0.556 0.671ZM0.654 0.814H0.586V0.334L0.590 0.329H0.725L0.730 0.334V0.814H0.700Q0.690 0.817 0.681 0.825Q0.681 0.826 0.676 0.831Q0.668 0.843 0.668 0.857Q0.668 0.876 0.681 0.889Q0.688 0.896 0.697 0.899L0.705 0.901Q0.708 0.901 0.730 0.901V0.929Q0.707 0.929 0.702 0.929L0.691 0.926Q0.675 0.921 0.661 0.908Q0.650 0.896 0.645 0.882L0.641 0.865V0.849L0.642 0.840Q0.645 0.826 0.654 0.814Z" fill="black"/>
</svg>
