<svg xmlns="http://www.w3.org/2000/svg" viewBox="0 0 1 1" preserveAspectRatio="xMidYMid meet">
  <path d="M0.514 0.702 0.519 0.697Q0.555 0.691 0.582 0.661Q0.615 0.625 0.615 0.575Q0.615 0.524 0.582 0.487Q0.555 0.458 0.518 0.452L0.514 0.448V0.335L0.521 0.330Q0.603 0.336 0.663 0.400Q0.730 0.472 0.730 0.573Q0.730 0.674 0.663 0.745Q0.602 0.810 0.517 0.816L0.514 0.812ZM0.337 0.745Q0.270 0.674 0.270 0.573Q0.270 0.472 0.337 0.400Q0.399 0.336 0.482 0.330L0.486 0.334V0.450L0.483 0.453Q0.449 0.459 0.422 0.487Q0.389 0.524 0.389 0.575Q0.389 0.625 0.422 0.661Q0.448 0.689 0.482 0.696L0.486 0.702V0.812L0.482 0.816Q0.399 0.810 0.337 0.745ZM0.566 0.154H0.619L0.527 0.270H0.473L0.381 0.154H0.435L0.500 0.237Z" fill="black"/>
</svg>
