<svg xmlns="http://www.w3.org/2000/svg" viewBox="0 0 1 1" preserveAspectRatio="xMidYMid meet">
  <path d="M0.487 0.297Q0.432 0.304 0.391 0.355Q0.345 0.414 0.345 0.498Q0.345 0.582 0.391 0.641Q0.432 0.693 0.487 0.700V0.814Q0.370 0.810 0.286 0.722Q0.197 0.629 0.197 0.497Q0.197 0.366 0.286 0.273Q0.370 0.185 0.487 0.181ZM0.522 0.814Q0.516 0.815 0.510 0.815V0.701Q0.571 0.697 0.615 0.641Q0.661 0.582 0.661 0.498Q0.661 0.414 0.615 0.355Q0.571 0.299 0.510 0.296V0.180Q0.629 0.184 0.714 0.273Q0.803 0.366 0.803 0.497Q0.803 0.629 0.714 0.722Q0.651 0.787 0.570 0.807V0.812Q0.559 0.815 0.551 0.823Q0.551 0.824 0.546 0.829Q0.538 0.840 0.538 0.855Q0.538 0.874 0.551 0.886Q0.558 0.893 0.566 0.896L0.574 0.899Q0.578 0.899 0.600 0.899V0.927Q0.577 0.927 0.572 0.927L0.561 0.924Q0.544 0.919 0.531 0.906Q0.520 0.894 0.514 0.880L0.511 0.862V0.847L0.512 0.838Q0.515 0.825 0.522 0.814Z" fill="black"/>
</svg>
