<svg xmlns="http://www.w3.org/2000/svg" viewBox="0 0 1 1" preserveAspectRatio="xMidYMid meet">
  <path d="M0.337 0.745Q0.270 0.674 0.270 0.573Q0.270 0.472 0.337 0.400Q0.399 0.336 0.482 0.330L0.486 0.334V0.450L0.483 0.453Q0.449 0.459 0.422 0.487Q0.389 0.524 0.389 0.575Q0.389 0.625 0.422 0.661Q0.448 0.689 0.482 0.696L0.486 0.702V0.812L0.482 0.816Q0.399 0.810 0.337 0.745ZM0.517 0.816 0.514 0.812V0.702L0.519 0.697Q0.555 0.691 0.582 0.661Q0.615 0.625 0.615 0.575Q0.615 0.524 0.582 0.487Q0.555 0.458 0.518 0.452L0.514 0.448V0.335L0.521 0.330Q0.603 0.336 0.663 0.400Q0.730 0.472 0.730 0.573Q0.730 0.674 0.663 0.745Q0.622 0.789 0.570 0.806V0.807Q0.559 0.810 0.551 0.818Q0.550 0.819 0.546 0.824Q0.537 0.836 0.537 0.850Q0.537 0.869 0.551 0.881Q0.558 0.889 0.566 0.892L0.574 0.894Q0.577 0.894 0.599 0.894V0.922Q0.577 0.922 0.572 0.922L0.560 0.919Q0.544 0.914 0.531 0.901Q0.519 0.889 0.514 0.875L0.511 0.858V0.842L0.511 0.833Q0.513 0.824 0.517 0.816Z" fill="black"/>
</svg>
