<svg xmlns="http://www.w3.org/2000/svg" viewBox="0 0 1 1" preserveAspectRatio="xMidYMid meet">
  <path d="M0.315 0.834H0.178L0.417 0.179H0.553ZM0.565 0.488Q0.625 0.490 0.653 0.524L0.654 0.523V0.524L0.653 0.525Q0.673 0.557 0.673 0.591V0.709Q0.673 0.749 0.640 0.783Q0.621 0.810 0.565 0.814V0.753Q0.599 0.741 0.599 0.706V0.588Q0.592 0.554 0.565 0.550ZM0.549 0.550Q0.523 0.554 0.515 0.587V0.706Q0.515 0.741 0.549 0.752V0.814Q0.494 0.810 0.472 0.785Q0.441 0.748 0.441 0.708V0.591Q0.441 0.556 0.462 0.524L0.461 0.524V0.522L0.462 0.524Q0.490 0.490 0.549 0.488ZM0.189 0.181Q0.249 0.183 0.277 0.216L0.278 0.215V0.216L0.277 0.218Q0.297 0.249 0.297 0.284V0.402Q0.297 0.441 0.264 0.476Q0.244 0.503 0.189 0.507V0.445Q0.223 0.433 0.223 0.399V0.280Q0.216 0.247 0.189 0.243ZM0.173 0.242Q0.146 0.247 0.139 0.280V0.399Q0.139 0.433 0.173 0.445V0.507Q0.118 0.503 0.096 0.478Q0.065 0.441 0.065 0.401V0.284Q0.065 0.249 0.086 0.217L0.085 0.216V0.215L0.086 0.216Q0.114 0.182 0.173 0.181ZM0.827 0.488Q0.886 0.490 0.914 0.524L0.915 0.523V0.524L0.914 0.525Q0.935 0.557 0.935 0.591V0.709Q0.935 0.749 0.901 0.783Q0.882 0.810 0.827 0.814V0.753Q0.861 0.741 0.861 0.706V0.588Q0.854 0.554 0.827 0.550ZM0.811 0.550Q0.784 0.554 0.777 0.587V0.706Q0.777 0.741 0.811 0.752V0.814Q0.756 0.810 0.733 0.785Q0.703 0.748 0.703 0.708V0.591Q0.703 0.556 0.723 0.524L0.722 0.524V0.522L0.723 0.524Q0.751 0.490 0.811 0.488Z" fill="black"/>
</svg>
