<svg xmlns="http://www.w3.org/2000/svg" viewBox="0 0 1 1" preserveAspectRatio="xMidYMid meet">
  <path d="M0.406 0.671Q0.447 0.695 0.483 0.699L0.496 0.701L0.495 0.815Q0.380 0.818 0.319 0.768Q0.250 0.723 0.245 0.614L0.378 0.601Q0.382 0.648 0.406 0.670ZM0.454 0.545Q0.263 0.510 0.263 0.368V0.359Q0.263 0.211 0.455 0.184L0.495 0.183L0.496 0.289Q0.453 0.292 0.436 0.299Q0.401 0.313 0.402 0.359Q0.402 0.403 0.513 0.423Q0.541 0.428 0.558 0.433Q0.755 0.465 0.755 0.620V0.629Q0.755 0.787 0.562 0.815L0.519 0.817V0.705Q0.565 0.700 0.582 0.693Q0.617 0.678 0.616 0.629Q0.616 0.582 0.506 0.556Q0.481 0.549 0.452 0.543ZM0.517 0.182Q0.612 0.182 0.684 0.235Q0.726 0.271 0.746 0.366V0.372L0.673 0.381L0.613 0.385Q0.605 0.333 0.583 0.316Q0.566 0.301 0.517 0.289ZM0.573 0.041V0.158H0.437V0.041ZM0.576 0.836V0.953H0.440V0.836Z" fill="black"/>
</svg>
