<svg xmlns="http://www.w3.org/2000/svg" viewBox="0 0 1 1" preserveAspectRatio="xMidYMid meet">
  <path d="M0.320 0.180Q0.380 0.182 0.408 0.216L0.409 0.215V0.216L0.408 0.217Q0.428 0.249 0.428 0.283V0.401Q0.428 0.441 0.402 0.474Q0.376 0.507 0.320 0.507V0.445Q0.354 0.433 0.354 0.399V0.280Q0.347 0.246 0.320 0.242ZM0.636 0.180Q0.636 0.180 0.636 0.179H0.684L0.364 0.816H0.315ZM0.304 0.242Q0.278 0.246 0.270 0.279V0.399Q0.270 0.433 0.304 0.444V0.507Q0.249 0.507 0.223 0.474Q0.196 0.441 0.196 0.401V0.283Q0.196 0.249 0.217 0.217L0.216 0.216V0.215L0.217 0.216Q0.245 0.182 0.304 0.180ZM0.696 0.488Q0.755 0.490 0.783 0.524L0.784 0.523V0.524L0.783 0.525Q0.804 0.557 0.804 0.591V0.709Q0.804 0.749 0.777 0.782Q0.751 0.815 0.696 0.814V0.753Q0.730 0.741 0.730 0.706V0.588Q0.722 0.554 0.696 0.550ZM0.680 0.550Q0.653 0.554 0.646 0.587V0.706Q0.646 0.741 0.680 0.752V0.814Q0.624 0.814 0.598 0.781Q0.572 0.748 0.572 0.708V0.591Q0.572 0.556 0.592 0.524L0.591 0.524V0.522L0.592 0.524Q0.620 0.490 0.680 0.488Z" fill="black"/>
</svg>
