<svg xmlns="http://www.w3.org/2000/svg" viewBox="0 0 1 1" preserveAspectRatio="xMidYMid meet">
  <path d="M0.453 0.301Q0.417 0.305 0.400 0.330H0.398L0.393 0.341L0.391 0.357Q0.391 0.403 0.431 0.420Q0.445 0.420 0.453 0.422V0.540Q0.418 0.543 0.411 0.554Q0.376 0.576 0.379 0.610V0.629Q0.381 0.679 0.438 0.698H0.453V0.812Q0.433 0.813 0.429 0.813H0.427L0.389 0.810Q0.306 0.792 0.274 0.747Q0.247 0.715 0.243 0.691Q0.235 0.682 0.232 0.626Q0.232 0.614 0.234 0.606Q0.243 0.527 0.310 0.487Q0.321 0.482 0.338 0.473L0.328 0.469L0.308 0.458Q0.275 0.432 0.261 0.391Q0.249 0.374 0.249 0.350V0.339Q0.249 0.311 0.259 0.290Q0.299 0.182 0.451 0.182H0.453ZM0.617 0.782 0.616 0.782Q0.586 0.800 0.540 0.810L0.502 0.813H0.500Q0.496 0.813 0.476 0.812V0.698H0.492Q0.548 0.679 0.549 0.629V0.610Q0.553 0.576 0.518 0.554Q0.511 0.543 0.476 0.540V0.422Q0.484 0.420 0.498 0.420Q0.538 0.403 0.538 0.357L0.536 0.341L0.531 0.330Q0.511 0.305 0.476 0.301V0.182H0.477Q0.630 0.182 0.670 0.290Q0.680 0.311 0.680 0.339V0.350Q0.680 0.374 0.668 0.391Q0.654 0.432 0.621 0.458L0.601 0.469L0.590 0.473Q0.605 0.481 0.616 0.486L0.625 0.460H0.762L0.700 0.629L0.768 0.815H0.632L0.619 0.780Q0.617 0.781 0.617 0.782Z" fill="black"/>
</svg>
