<svg xmlns="http://www.w3.org/2000/svg" viewBox="0 0 1 1" preserveAspectRatio="xMidYMid meet">
  <path d="M0.455 0.109Q0.455 0.128 0.468 0.140Q0.476 0.147 0.484 0.151L0.492 0.153Q0.495 0.153 0.499 0.153Q0.518 0.153 0.531 0.140Q0.544 0.128 0.544 0.109H0.571Q0.571 0.124 0.566 0.137L0.564 0.141Q0.560 0.150 0.552 0.158L0.550 0.161Q0.537 0.173 0.522 0.177L0.509 0.181Q0.504 0.181 0.499 0.181Q0.494 0.181 0.490 0.181L0.478 0.178Q0.462 0.173 0.449 0.160Q0.437 0.148 0.432 0.134L0.429 0.117V0.109Z" fill="black"/>
</svg>
