<svg xmlns="http://www.w3.org/2000/svg" viewBox="0 0 1 1" preserveAspectRatio="xMidYMid meet">
  <path d="M0.488 0.151V0.179L0.478 0.178Q0.462 0.173 0.449 0.160Q0.437 0.148 0.432 0.134L0.429 0.117V0.101L0.429 0.092Q0.434 0.073 0.449 0.058Q0.459 0.048 0.472 0.042H0.474L0.475 0.041Q0.481 0.039 0.488 0.038V0.066Q0.477 0.069 0.468 0.077L0.464 0.083Q0.455 0.094 0.455 0.109Q0.455 0.128 0.468 0.140Q0.476 0.147 0.484 0.151ZM0.513 0.066V0.038Q0.523 0.040 0.532 0.044L0.535 0.046Q0.543 0.051 0.551 0.058Q0.561 0.069 0.566 0.082L0.568 0.087Q0.571 0.097 0.571 0.109Q0.571 0.124 0.566 0.137L0.564 0.141Q0.560 0.150 0.552 0.158L0.550 0.161Q0.537 0.173 0.522 0.177L0.513 0.179V0.151Q0.523 0.148 0.531 0.140Q0.544 0.128 0.544 0.109Q0.544 0.090 0.531 0.077Q0.523 0.069 0.513 0.066Z" fill="black"/>
</svg>
