<svg xmlns="http://www.w3.org/2000/svg" viewBox="0 0 1 1" preserveAspectRatio="xMidYMid meet">
  <path d="M0.515 0.814Q0.504 0.817 0.496 0.825Q0.495 0.826 0.491 0.831Q0.482 0.843 0.482 0.857Q0.482 0.876 0.496 0.889Q0.503 0.896 0.511 0.899L0.519 0.901Q0.523 0.901 0.544 0.901V0.929Q0.522 0.929 0.517 0.929L0.505 0.926Q0.489 0.921 0.476 0.908Q0.464 0.896 0.459 0.882L0.456 0.865V0.849L0.456 0.840Q0.461 0.821 0.476 0.806Q0.486 0.796 0.499 0.791L0.502 0.789Q0.508 0.787 0.515 0.786Z" fill="black"/>
</svg>
