<svg xmlns="http://www.w3.org/2000/svg" viewBox="0 0 1 1" preserveAspectRatio="xMidYMid meet">
  <path d="M0.494 0.164Q0.492 0.162 0.491 0.161Q0.490 0.160 0.490 0.160L0.485 0.156Q0.474 0.147 0.459 0.147Q0.440 0.147 0.428 0.161Q0.421 0.168 0.417 0.176V0.180H0.389L0.390 0.170Q0.395 0.154 0.408 0.141Q0.420 0.129 0.434 0.124L0.451 0.121H0.467L0.476 0.121Q0.495 0.126 0.510 0.141Q0.512 0.143 0.513 0.144Q0.524 0.153 0.540 0.153Q0.558 0.153 0.572 0.140Q0.579 0.132 0.583 0.121H0.611Q0.609 0.132 0.605 0.140L0.603 0.143Q0.598 0.152 0.591 0.159Q0.580 0.170 0.567 0.175L0.562 0.177Q0.552 0.180 0.540 0.180Q0.520 0.180 0.508 0.173Q0.501 0.169 0.494 0.164Z" fill="black"/>
</svg>
