<svg xmlns="http://www.w3.org/2000/svg" viewBox="0 0 1 1" preserveAspectRatio="xMidYMid meet">
  <path d="M0.484 0.301Q0.432 0.309 0.419 0.373V0.604Q0.419 0.671 0.484 0.693V0.814Q0.377 0.806 0.333 0.757Q0.274 0.686 0.274 0.609V0.380Q0.274 0.313 0.315 0.252L0.313 0.249V0.247L0.315 0.249Q0.369 0.184 0.484 0.180ZM0.516 0.181Q0.631 0.185 0.685 0.251L0.687 0.249V0.251L0.685 0.253Q0.726 0.315 0.726 0.382V0.610Q0.726 0.687 0.667 0.759Q0.623 0.807 0.516 0.815V0.695Q0.581 0.672 0.581 0.606V0.375Q0.568 0.310 0.516 0.302Z" fill="black"/>
</svg>
