<svg xmlns="http://www.w3.org/2000/svg" viewBox="0 0 1 1" preserveAspectRatio="xMidYMid meet">
  <path d="M0.746 0.698V0.814H0.413V0.698ZM0.254 0.693V0.675Q0.254 0.520 0.455 0.467Q0.473 0.462 0.501 0.457Q0.609 0.426 0.606 0.357Q0.607 0.310 0.572 0.297Q0.556 0.290 0.512 0.286L0.513 0.181L0.553 0.181Q0.745 0.208 0.745 0.357V0.365Q0.745 0.508 0.560 0.579Q0.532 0.583 0.508 0.590Q0.389 0.625 0.393 0.684L0.393 0.816H0.254ZM0.406 0.315Q0.383 0.335 0.380 0.378L0.254 0.366Q0.259 0.265 0.323 0.224Q0.382 0.177 0.491 0.180L0.492 0.285L0.480 0.287Q0.445 0.291 0.406 0.313Z" fill="black"/>
</svg>
