<svg xmlns="http://www.w3.org/2000/svg" viewBox="0 0 1 1" preserveAspectRatio="xMidYMid meet">
  <path d="M0.708 0.291 0.701 0.298H0.330L0.325 0.292L0.340 0.185H0.367L0.368 0.181H0.698L0.708 0.192ZM0.377 0.618 0.387 0.625Q0.392 0.662 0.420 0.681Q0.449 0.700 0.491 0.702L0.497 0.709V0.810L0.491 0.816Q0.445 0.814 0.402 0.802Q0.359 0.791 0.331 0.768Q0.270 0.714 0.261 0.638L0.267 0.629ZM0.522 0.708 0.525 0.704Q0.559 0.693 0.582 0.671Q0.611 0.641 0.611 0.598Q0.611 0.550 0.586 0.525Q0.564 0.503 0.530 0.497L0.522 0.486V0.388L0.530 0.377Q0.547 0.376 0.590 0.389Q0.634 0.402 0.677 0.442Q0.739 0.501 0.739 0.598Q0.739 0.689 0.674 0.751Q0.611 0.810 0.529 0.818L0.522 0.812ZM0.422 0.516 0.304 0.462 0.303 0.459 0.321 0.326 0.325 0.322H0.446L0.438 0.382Q0.455 0.375 0.488 0.376L0.496 0.386L0.496 0.487L0.490 0.493Q0.449 0.496 0.422 0.516Z" fill="black"/>
</svg>
