<svg xmlns="http://www.w3.org/2000/svg" viewBox="0 0 1 1" preserveAspectRatio="xMidYMid meet">
  <path d="M0.486 0.301Q0.434 0.309 0.421 0.373V0.604Q0.421 0.671 0.486 0.693V0.814Q0.379 0.806 0.335 0.757Q0.277 0.686 0.277 0.609V0.380Q0.277 0.313 0.317 0.252L0.315 0.249V0.247L0.317 0.249Q0.371 0.184 0.486 0.180ZM0.513 0.400Q0.628 0.404 0.682 0.470L0.685 0.467V0.470L0.682 0.472Q0.723 0.534 0.723 0.601V0.608Q0.723 0.685 0.664 0.757Q0.621 0.806 0.513 0.814V0.693Q0.579 0.670 0.579 0.604V0.594Q0.565 0.529 0.513 0.521L0.445 0.522V0.400ZM0.511 0.182Q0.599 0.182 0.666 0.235Q0.705 0.271 0.723 0.366V0.372L0.656 0.381L0.600 0.385Q0.593 0.333 0.572 0.316Q0.556 0.301 0.510 0.298Z" fill="black"/>
</svg>
