<svg xmlns="http://www.w3.org/2000/svg" viewBox="0 0 1 1" preserveAspectRatio="xMidYMid meet">
  <path d="M0.489 0.301Q0.453 0.305 0.435 0.330H0.433L0.429 0.341L0.427 0.357Q0.427 0.403 0.467 0.420Q0.481 0.420 0.489 0.422V0.540Q0.453 0.543 0.446 0.554Q0.411 0.576 0.415 0.610V0.629Q0.416 0.679 0.473 0.691Q0.487 0.691 0.489 0.698V0.812Q0.469 0.813 0.464 0.813H0.462L0.424 0.810Q0.341 0.792 0.310 0.747Q0.283 0.715 0.278 0.691Q0.271 0.682 0.267 0.626Q0.267 0.614 0.269 0.606Q0.279 0.527 0.346 0.487Q0.357 0.482 0.374 0.473L0.363 0.469L0.343 0.458Q0.310 0.432 0.296 0.391Q0.284 0.374 0.285 0.350V0.339Q0.285 0.311 0.294 0.290Q0.334 0.182 0.487 0.182H0.489ZM0.511 0.181H0.513Q0.666 0.181 0.706 0.289Q0.715 0.310 0.715 0.338V0.349Q0.716 0.373 0.704 0.390Q0.690 0.431 0.657 0.457L0.637 0.468L0.626 0.472Q0.643 0.481 0.654 0.486Q0.721 0.526 0.731 0.605Q0.733 0.614 0.733 0.625Q0.729 0.682 0.722 0.690Q0.717 0.714 0.690 0.746Q0.659 0.791 0.576 0.810L0.538 0.812H0.536Q0.531 0.812 0.511 0.811V0.697Q0.513 0.690 0.527 0.690Q0.584 0.678 0.585 0.628V0.610Q0.589 0.575 0.554 0.554Q0.547 0.542 0.511 0.539V0.421Q0.519 0.419 0.533 0.419Q0.573 0.402 0.573 0.356L0.571 0.340L0.567 0.329H0.565Q0.547 0.304 0.511 0.301Z" fill="black"/>
</svg>
