<svg xmlns="http://www.w3.org/2000/svg" viewBox="0 0 1 1" preserveAspectRatio="xMidYMid meet">
  <path d="M0.187 0.181H0.142L0.181 0.065H0.278ZM0.136 0.701H0.410V0.815H0.136ZM0.590 0.701H0.864V0.815H0.590ZM0.240 0.669Q0.193 0.593 0.193 0.497Q0.193 0.366 0.282 0.273Q0.366 0.185 0.483 0.181V0.297Q0.427 0.304 0.387 0.355Q0.340 0.414 0.340 0.498Q0.340 0.582 0.387 0.641Q0.400 0.657 0.413 0.669ZM0.584 0.669Q0.598 0.657 0.611 0.641Q0.657 0.582 0.657 0.498Q0.657 0.414 0.611 0.355Q0.567 0.299 0.506 0.296V0.180Q0.624 0.184 0.709 0.273Q0.798 0.366 0.798 0.497Q0.798 0.594 0.750 0.669Z" fill="black"/>
</svg>
