<svg xmlns="http://www.w3.org/2000/svg" viewBox="0 0 1 1" preserveAspectRatio="xMidYMid meet">
  <path d="M0.514 0.693Q0.566 0.685 0.579 0.621V0.390Q0.579 0.323 0.514 0.301V0.180Q0.621 0.188 0.665 0.237Q0.723 0.308 0.723 0.385V0.614Q0.723 0.681 0.683 0.742L0.685 0.745V0.747L0.683 0.745Q0.629 0.810 0.514 0.814ZM0.487 0.594Q0.372 0.590 0.318 0.524L0.315 0.527V0.524L0.318 0.522Q0.277 0.460 0.277 0.393V0.386Q0.277 0.309 0.336 0.237Q0.379 0.188 0.487 0.181V0.301Q0.421 0.324 0.421 0.390V0.400Q0.435 0.465 0.487 0.473L0.556 0.472L0.556 0.594ZM0.489 0.812Q0.401 0.812 0.334 0.759Q0.295 0.723 0.277 0.628V0.622L0.344 0.613L0.400 0.609Q0.407 0.661 0.428 0.678Q0.444 0.693 0.490 0.696Z" fill="black"/>
</svg>
