<svg xmlns="http://www.w3.org/2000/svg" viewBox="0 0 1 1" preserveAspectRatio="xMidYMid meet">
  <path d="M0.571 0.085V0.923H0.427V0.085ZM0.405 0.297Q0.350 0.304 0.310 0.355Q0.263 0.414 0.263 0.498Q0.263 0.582 0.310 0.641Q0.350 0.693 0.405 0.700V0.814Q0.288 0.810 0.204 0.722Q0.116 0.629 0.116 0.497Q0.116 0.366 0.204 0.273Q0.288 0.185 0.405 0.181ZM0.592 0.701Q0.653 0.697 0.697 0.641Q0.743 0.582 0.743 0.498Q0.743 0.414 0.697 0.355Q0.653 0.299 0.592 0.296V0.180Q0.710 0.184 0.796 0.273Q0.884 0.366 0.884 0.497Q0.884 0.629 0.796 0.722Q0.710 0.811 0.592 0.815Z" fill="black"/>
</svg>
