<svg xmlns="http://www.w3.org/2000/svg" viewBox="0 0 1 1" preserveAspectRatio="xMidYMid meet">
  <path d="M0.739 0.330V0.810L0.735 0.815H0.600L0.596 0.810V0.330ZM0.566 0.477Q0.534 0.444 0.490 0.444Q0.442 0.444 0.409 0.482Q0.375 0.520 0.375 0.573Q0.375 0.626 0.409 0.664Q0.442 0.702 0.490 0.702Q0.534 0.702 0.566 0.669V0.802Q0.530 0.817 0.487 0.817Q0.393 0.817 0.327 0.745Q0.261 0.674 0.261 0.573Q0.261 0.472 0.327 0.401Q0.393 0.329 0.487 0.329Q0.530 0.329 0.566 0.344ZM0.500 0.270H0.455L0.493 0.153H0.591Z" fill="black"/>
</svg>
