<svg xmlns="http://www.w3.org/2000/svg" viewBox="0 0 1 1" preserveAspectRatio="xMidYMid meet">
  <path d="M0.598 0.709H0.601L0.648 0.785Q0.595 0.815 0.504 0.813H0.484L0.456 0.812Q0.392 0.797 0.367 0.763Q0.346 0.738 0.343 0.719Q0.337 0.713 0.334 0.670Q0.334 0.660 0.336 0.658Q0.343 0.597 0.395 0.567Q0.404 0.562 0.417 0.555L0.409 0.553L0.393 0.544Q0.375 0.530 0.367 0.514Q0.359 0.499 0.357 0.492Q0.348 0.475 0.348 0.456V0.448Q0.348 0.426 0.355 0.410Q0.362 0.391 0.377 0.373L0.374 0.376Q0.409 0.332 0.488 0.327V0.327H0.535V0.326Q0.614 0.324 0.647 0.346V0.346L0.651 0.348Q0.657 0.352 0.663 0.357Q0.664 0.358 0.666 0.358L0.606 0.436Q0.585 0.425 0.535 0.423V0.423Q0.469 0.426 0.467 0.471Q0.470 0.503 0.502 0.510Q0.508 0.510 0.518 0.512L0.562 0.511V0.612Q0.515 0.612 0.513 0.612L0.504 0.614Q0.481 0.616 0.477 0.623Q0.455 0.635 0.458 0.657V0.671Q0.458 0.719 0.534 0.722V0.721Q0.573 0.719 0.599 0.707L0.599 0.707Q0.598 0.708 0.598 0.709ZM0.500 0.270H0.455L0.493 0.153H0.590Z" fill="black"/>
</svg>
