<svg xmlns="http://www.w3.org/2000/svg" viewBox="0 0 1 1" preserveAspectRatio="xMidYMid meet">
  <path d="M0.278 0.957 0.269 0.948V0.380Q0.278 0.228 0.403 0.188Q0.433 0.179 0.484 0.180V0.303H0.479Q0.415 0.314 0.413 0.377V0.947L0.407 0.957ZM0.509 0.803V0.698Q0.582 0.691 0.585 0.621Q0.580 0.543 0.509 0.540V0.422Q0.517 0.420 0.531 0.420Q0.571 0.403 0.571 0.357L0.569 0.341L0.562 0.330Q0.545 0.305 0.509 0.301V0.182H0.511Q0.699 0.182 0.713 0.350Q0.712 0.359 0.711 0.366Q0.709 0.437 0.655 0.488L0.654 0.488Q0.721 0.529 0.728 0.606H0.727Q0.727 0.610 0.728 0.615Q0.731 0.619 0.731 0.626H0.728L0.731 0.629Q0.729 0.654 0.725 0.667Q0.723 0.679 0.720 0.691V0.691L0.718 0.694Q0.708 0.722 0.687 0.746Q0.688 0.747 0.688 0.747Q0.664 0.775 0.645 0.784Q0.600 0.814 0.542 0.814Q0.526 0.814 0.511 0.812Z" fill="black"/>
</svg>
