<svg xmlns="http://www.w3.org/2000/svg" viewBox="0 0 1 1" preserveAspectRatio="xMidYMid meet">
  <path d="M0.486 0.443 0.480 0.450Q0.446 0.453 0.417 0.484Q0.389 0.514 0.387 0.569V0.574Q0.387 0.622 0.416 0.658L0.422 0.664Q0.459 0.694 0.483 0.698L0.485 0.702L0.486 0.812L0.479 0.817Q0.446 0.814 0.416 0.802L0.415 0.801L0.414 0.801Q0.402 0.796 0.390 0.789Q0.381 0.784 0.372 0.777Q0.345 0.754 0.337 0.746Q0.295 0.701 0.279 0.644L0.275 0.629Q0.270 0.603 0.270 0.574Q0.270 0.473 0.337 0.401Q0.398 0.337 0.482 0.331L0.486 0.336ZM0.647 0.299V0.386Q0.655 0.393 0.663 0.401Q0.723 0.465 0.729 0.554L0.730 0.559Q0.730 0.567 0.730 0.574Q0.730 0.631 0.709 0.678Q0.666 0.765 0.585 0.801L0.570 0.807Q0.546 0.815 0.521 0.817L0.514 0.810V0.705L0.520 0.698Q0.552 0.692 0.577 0.666L0.581 0.662Q0.613 0.625 0.613 0.574Q0.613 0.563 0.611 0.554L0.609 0.540Q0.603 0.515 0.585 0.490Q0.582 0.487 0.580 0.485Q0.555 0.457 0.521 0.450L0.514 0.442V0.187L0.519 0.182H0.723L0.727 0.186V0.189L0.728 0.188V0.294L0.724 0.299Z" fill="black"/>
</svg>
