<svg xmlns="http://www.w3.org/2000/svg" viewBox="0 0 1 1" preserveAspectRatio="xMidYMid meet">
  <path d="M0.516 0.181Q0.631 0.185 0.678 0.249Q0.725 0.314 0.725 0.381V0.609Q0.725 0.686 0.674 0.746Q0.623 0.806 0.516 0.814V0.694Q0.581 0.671 0.581 0.605V0.374Q0.568 0.309 0.516 0.301ZM0.419 0.604Q0.419 0.671 0.484 0.693V0.814Q0.377 0.806 0.326 0.746Q0.275 0.686 0.275 0.609V0.380Q0.275 0.313 0.322 0.249Q0.369 0.184 0.484 0.180V0.301Q0.432 0.309 0.419 0.373ZM0.441 0.433 0.447 0.424H0.558L0.563 0.429V0.536L0.558 0.541H0.448L0.441 0.532Z" fill="black"/>
</svg>
