<svg xmlns="http://www.w3.org/2000/svg" viewBox="0 0 1 1" preserveAspectRatio="xMidYMid meet">
  <path d="M0.726 0.331 0.729 0.335 0.730 0.815H0.586V0.335L0.590 0.331ZM0.416 0.806V0.956L0.407 0.965L0.278 0.964L0.271 0.958L0.270 0.341L0.277 0.331H0.404L0.414 0.338V0.633Q0.418 0.648 0.425 0.658L0.429 0.663Q0.436 0.671 0.445 0.677L0.447 0.678Q0.457 0.684 0.470 0.687L0.505 0.688Q0.519 0.685 0.530 0.679L0.545 0.670L0.556 0.677L0.556 0.788V0.791L0.551 0.802L0.524 0.812Q0.503 0.816 0.479 0.816Q0.448 0.816 0.416 0.806Z" fill="black"/>
</svg>
