<svg xmlns="http://www.w3.org/2000/svg" viewBox="0 0 1 1" preserveAspectRatio="xMidYMid meet">
  <path d="M0.536 0.424H0.600L0.604 0.429V0.534L0.600 0.539H0.549Q0.444 0.543 0.440 0.617Q0.443 0.691 0.518 0.696V0.806L0.511 0.813Q0.407 0.810 0.352 0.757Q0.297 0.704 0.294 0.629Q0.294 0.542 0.365 0.485Q0.436 0.427 0.536 0.424ZM0.362 0.456Q0.315 0.412 0.312 0.350V0.339Q0.312 0.311 0.321 0.290Q0.361 0.182 0.514 0.182H0.644L0.648 0.186V0.296L0.644 0.301H0.527Q0.482 0.301 0.462 0.330L0.455 0.341L0.453 0.357Q0.453 0.381 0.465 0.403Q0.400 0.420 0.362 0.456ZM0.546 0.696 0.573 0.696 0.573 0.696H0.576Q0.642 0.700 0.673 0.734Q0.703 0.769 0.706 0.845Q0.703 0.919 0.670 0.953Q0.637 0.988 0.572 0.992H0.506L0.500 0.985L0.501 0.894L0.507 0.888L0.544 0.887Q0.573 0.885 0.575 0.850Q0.574 0.815 0.546 0.815Z" fill="black"/>
</svg>
