<svg xmlns="http://www.w3.org/2000/svg" viewBox="0 0 1 1" preserveAspectRatio="xMidYMid meet">
  <path d="M0.415 0.801V0.954L0.406 0.964L0.277 0.963L0.270 0.957V0.574Q0.270 0.473 0.337 0.401Q0.398 0.337 0.482 0.331L0.486 0.336V0.443L0.480 0.450Q0.464 0.453 0.449 0.462L0.432 0.473Q0.426 0.478 0.420 0.485Q0.416 0.489 0.413 0.493H0.410V0.497Q0.402 0.510 0.396 0.524L0.395 0.527Q0.394 0.531 0.393 0.533Q0.389 0.549 0.388 0.561H0.385L0.387 0.569V0.574Q0.387 0.622 0.416 0.658Q0.450 0.694 0.483 0.698L0.486 0.707V0.812L0.479 0.817Q0.446 0.814 0.416 0.802ZM0.514 0.705 0.520 0.698Q0.552 0.692 0.577 0.666L0.581 0.662Q0.613 0.625 0.613 0.574Q0.613 0.563 0.611 0.554L0.609 0.540Q0.603 0.515 0.593 0.501Q0.582 0.487 0.580 0.485Q0.555 0.457 0.521 0.450L0.514 0.442V0.341L0.519 0.331Q0.562 0.334 0.604 0.355Q0.635 0.373 0.663 0.401Q0.723 0.465 0.729 0.554L0.730 0.559Q0.730 0.567 0.730 0.574Q0.730 0.631 0.709 0.678Q0.683 0.735 0.640 0.768Q0.615 0.789 0.585 0.801L0.570 0.807Q0.546 0.815 0.521 0.817L0.514 0.810Z" fill="black"/>
</svg>
