<svg xmlns="http://www.w3.org/2000/svg" viewBox="0 0 1 1" preserveAspectRatio="xMidYMid meet">
  <path d="M0.699 0.466V0.476Q0.714 0.512 0.717 0.554Q0.718 0.567 0.718 0.574Q0.718 0.631 0.696 0.678Q0.649 0.768 0.573 0.801L0.557 0.807Q0.534 0.815 0.508 0.817L0.501 0.810V0.705L0.507 0.698Q0.539 0.692 0.564 0.666L0.568 0.662Q0.600 0.625 0.600 0.574Q0.600 0.563 0.599 0.554L0.597 0.540Q0.590 0.515 0.574 0.493Q0.570 0.487 0.567 0.485Q0.542 0.457 0.508 0.450L0.501 0.442L0.502 0.340L0.506 0.333L0.737 0.333L0.743 0.339V0.458L0.735 0.466ZM0.474 0.443 0.468 0.450Q0.451 0.453 0.436 0.462L0.420 0.473Q0.413 0.478 0.408 0.485Q0.404 0.489 0.401 0.493L0.398 0.497Q0.389 0.510 0.384 0.524L0.382 0.527Q0.381 0.531 0.380 0.533L0.379 0.538Q0.376 0.549 0.375 0.561L0.375 0.569V0.574Q0.375 0.622 0.403 0.658Q0.442 0.694 0.470 0.698L0.473 0.702L0.474 0.812L0.467 0.817Q0.433 0.814 0.402 0.801Q0.390 0.796 0.378 0.789Q0.368 0.784 0.356 0.774Q0.352 0.772 0.340 0.761Q0.332 0.754 0.325 0.746Q0.282 0.701 0.266 0.644L0.263 0.629Q0.257 0.603 0.257 0.574Q0.257 0.473 0.325 0.401Q0.386 0.337 0.469 0.331L0.474 0.336Z" fill="black"/>
</svg>
