<svg xmlns="http://www.w3.org/2000/svg" viewBox="0 0 1 1" preserveAspectRatio="xMidYMid meet">
  <path d="M0.435 0.346 0.441 0.337Q0.460 0.332 0.482 0.331H0.519Q0.562 0.334 0.599 0.353L0.604 0.356V0.355Q0.635 0.373 0.663 0.401Q0.723 0.465 0.729 0.554Q0.727 0.558 0.730 0.559Q0.730 0.567 0.730 0.574Q0.730 0.697 0.640 0.768Q0.615 0.788 0.588 0.800V0.662Q0.613 0.625 0.613 0.574L0.611 0.554L0.609 0.540Q0.603 0.515 0.587 0.493L0.585 0.490Q0.582 0.487 0.580 0.485Q0.572 0.476 0.563 0.469V0.964L0.559 0.969H0.439L0.435 0.962ZM0.410 0.799Q0.400 0.795 0.390 0.789Q0.381 0.784 0.372 0.777Q0.365 0.772 0.355 0.763Q0.345 0.754 0.337 0.746Q0.295 0.701 0.279 0.644L0.275 0.629Q0.270 0.603 0.270 0.574Q0.270 0.473 0.337 0.401Q0.370 0.366 0.411 0.348L0.410 0.493V0.497Q0.402 0.510 0.396 0.524L0.395 0.527Q0.394 0.531 0.393 0.533L0.392 0.538Q0.389 0.549 0.388 0.561L0.387 0.569V0.574Q0.387 0.617 0.410 0.650Z" fill="black"/>
</svg>
