<svg xmlns="http://www.w3.org/2000/svg" viewBox="0 0 1 1" preserveAspectRatio="xMidYMid meet">
  <path d="M0.577 0.625Q0.582 0.655 0.606 0.670Q0.632 0.680 0.649 0.681Q0.691 0.679 0.722 0.652Q0.752 0.624 0.752 0.574Q0.752 0.563 0.750 0.554L0.748 0.540Q0.742 0.515 0.732 0.501Q0.721 0.487 0.719 0.485Q0.694 0.457 0.660 0.450L0.653 0.442L0.653 0.334L0.658 0.331Q0.701 0.334 0.738 0.353L0.743 0.355Q0.774 0.373 0.802 0.401Q0.862 0.465 0.868 0.554L0.869 0.559Q0.869 0.567 0.869 0.574Q0.869 0.597 0.867 0.618Q0.865 0.635 0.861 0.650Q0.854 0.678 0.841 0.704Q0.838 0.711 0.835 0.717L0.832 0.721Q0.823 0.736 0.805 0.753L0.801 0.757L0.777 0.776Q0.726 0.812 0.664 0.812Q0.593 0.812 0.562 0.798L0.554 0.795Q0.550 0.792 0.545 0.790L0.543 0.788Q0.532 0.783 0.522 0.776L0.518 0.771V0.772Q0.516 0.771 0.514 0.769Q0.513 0.767 0.511 0.767Q0.506 0.763 0.496 0.753L0.481 0.767Q0.479 0.767 0.477 0.769Q0.476 0.771 0.474 0.772V0.771L0.469 0.776Q0.418 0.812 0.345 0.812Q0.266 0.812 0.200 0.757Q0.192 0.750 0.185 0.743Q0.178 0.736 0.152 0.690Q0.147 0.678 0.139 0.650Q0.135 0.634 0.133 0.616H0.134Q0.131 0.596 0.131 0.574Q0.131 0.473 0.198 0.401Q0.259 0.337 0.343 0.331L0.347 0.336V0.443L0.341 0.450Q0.325 0.453 0.310 0.462L0.293 0.473Q0.287 0.478 0.281 0.485Q0.277 0.489 0.274 0.493H0.271V0.497Q0.263 0.510 0.256 0.527Q0.250 0.545 0.249 0.561L0.248 0.569V0.574Q0.248 0.614 0.272 0.647Q0.296 0.680 0.350 0.681Q0.368 0.680 0.396 0.668Q0.425 0.655 0.433 0.621V0.513L0.441 0.505H0.570L0.577 0.513ZM0.500 0.270H0.455L0.493 0.153H0.591Z" fill="black"/>
</svg>
