<svg xmlns="http://www.w3.org/2000/svg" viewBox="0 0 1 1" preserveAspectRatio="xMidYMid meet">
  <path d="M0.568 0.699V0.815H0.425V0.699ZM0.425 0.618Q0.425 0.464 0.542 0.430Q0.560 0.426 0.570 0.421Q0.602 0.399 0.602 0.355Q0.603 0.309 0.568 0.295Q0.552 0.288 0.508 0.285L0.508 0.179L0.549 0.180Q0.741 0.207 0.741 0.355V0.364Q0.740 0.501 0.637 0.537L0.639 0.535Q0.619 0.546 0.594 0.554Q0.561 0.569 0.563 0.627L0.564 0.672L0.425 0.672ZM0.487 0.285Q0.439 0.298 0.421 0.313Q0.399 0.329 0.391 0.381L0.331 0.377L0.259 0.368V0.362Q0.278 0.267 0.320 0.231Q0.393 0.178 0.486 0.178Z" fill="black"/>
</svg>
