<svg xmlns="http://www.w3.org/2000/svg" viewBox="0 0 1 1" preserveAspectRatio="xMidYMid meet">
  <path d="M0.175 0.704Q0.201 0.768 0.255 0.821Q0.359 0.925 0.506 0.925Q0.540 0.925 0.572 0.919V0.970Q0.540 0.975 0.506 0.975Q0.338 0.975 0.219 0.856Q0.209 0.845 0.158 0.779Q0.120 0.711 0.108 0.649Q0.101 0.610 0.101 0.569Q0.101 0.556 0.101 0.538Q0.112 0.390 0.219 0.282Q0.338 0.163 0.506 0.163Q0.545 0.163 0.580 0.169L0.591 0.171Q0.611 0.175 0.630 0.181L0.629 0.182H0.631L0.632 0.181Q0.699 0.203 0.759 0.250Q0.777 0.265 0.794 0.282Q0.820 0.309 0.836 0.338V0.338H0.837Q0.850 0.357 0.861 0.378Q0.903 0.464 0.899 0.569Q0.899 0.653 0.857 0.739L0.856 0.738Q0.816 0.820 0.700 0.829Q0.687 0.829 0.652 0.825Q0.569 0.813 0.565 0.750V0.330L0.709 0.331V0.773Q0.780 0.783 0.815 0.703Q0.834 0.673 0.842 0.601Q0.849 0.528 0.837 0.465Q0.824 0.401 0.786 0.347Q0.773 0.331 0.759 0.316Q0.736 0.294 0.705 0.272Q0.688 0.260 0.669 0.250Q0.593 0.212 0.506 0.212Q0.471 0.212 0.443 0.217Q0.415 0.222 0.362 0.244Q0.308 0.266 0.270 0.303Q0.232 0.339 0.204 0.377L0.205 0.378Q0.194 0.394 0.172 0.442Q0.151 0.489 0.150 0.569Q0.150 0.620 0.162 0.666H0.161ZM0.540 0.471 0.537 0.474Q0.505 0.446 0.462 0.446Q0.413 0.446 0.378 0.482Q0.343 0.519 0.343 0.571Q0.343 0.622 0.378 0.659Q0.413 0.696 0.462 0.696Q0.504 0.696 0.536 0.668L0.540 0.671V0.795L0.536 0.802Q0.500 0.814 0.459 0.814Q0.364 0.814 0.296 0.743Q0.229 0.672 0.229 0.571Q0.229 0.470 0.296 0.399Q0.364 0.328 0.459 0.328Q0.501 0.328 0.537 0.341L0.540 0.345Z" fill="black"/>
</svg>
