<svg xmlns="http://www.w3.org/2000/svg" viewBox="0 0 1 1" preserveAspectRatio="xMidYMid meet">
  <path d="M0.468 0.814H0.324V0.323H0.468ZM0.628 0.183V0.300H0.157V0.183ZM0.776 0.471Q0.832 0.525 0.841 0.605Q0.843 0.614 0.843 0.625Q0.840 0.682 0.832 0.691Q0.828 0.715 0.801 0.747Q0.769 0.792 0.686 0.811L0.648 0.813H0.646Q0.641 0.813 0.622 0.813L0.622 0.697Q0.694 0.679 0.695 0.628V0.609Q0.699 0.575 0.664 0.553Q0.657 0.542 0.622 0.539L0.490 0.539L0.490 0.419H0.622Q0.711 0.420 0.776 0.471Z" fill="black"/>
</svg>
