<svg xmlns="http://www.w3.org/2000/svg" viewBox="0 0 1 1" preserveAspectRatio="xMidYMid meet">
  <path d="M0.254 0.329 0.254 0.619Q0.233 0.783 0.120 0.811Q0.090 0.820 0.039 0.819V0.678Q0.109 0.669 0.110 0.605L0.109 0.329ZM0.579 0.815H0.435V0.320H0.579ZM0.580 0.181V0.297H0.108V0.181ZM0.893 0.473Q0.949 0.528 0.959 0.607Q0.961 0.616 0.961 0.628Q0.957 0.685 0.950 0.693Q0.945 0.717 0.918 0.750Q0.887 0.795 0.804 0.814L0.740 0.815L0.609 0.815L0.608 0.701L0.739 0.700Q0.812 0.682 0.813 0.630V0.612Q0.816 0.577 0.782 0.555Q0.775 0.544 0.739 0.541L0.609 0.542L0.608 0.422H0.739Q0.828 0.423 0.893 0.473Z" fill="black"/>
</svg>
