<svg xmlns="http://www.w3.org/2000/svg" viewBox="0 0 1 1" preserveAspectRatio="xMidYMid meet">
  <path d="M0.183 0.815H0.039V0.181H0.183ZM0.577 0.815H0.433V0.181H0.577ZM0.404 0.423V0.539H0.208V0.423ZM0.893 0.471Q0.949 0.525 0.958 0.605Q0.961 0.614 0.961 0.625Q0.957 0.682 0.950 0.691Q0.945 0.715 0.918 0.747Q0.886 0.792 0.803 0.811L0.766 0.813H0.763Q0.759 0.813 0.739 0.813L0.608 0.812L0.607 0.698L0.739 0.697Q0.811 0.679 0.813 0.628V0.609Q0.816 0.575 0.781 0.553Q0.774 0.542 0.739 0.539L0.608 0.539L0.607 0.419H0.739Q0.828 0.420 0.893 0.471Z" fill="black"/>
</svg>
