<svg xmlns="http://www.w3.org/2000/svg" viewBox="0 0 1 1" preserveAspectRatio="xMidYMid meet">
  <path d="M0.354 0.814V0.334L0.359 0.330H0.494L0.498 0.334V0.814ZM0.804 0.814H0.673L0.667 0.807V0.579V0.570Q0.656 0.522 0.597 0.513Q0.570 0.513 0.550 0.525L0.541 0.531Q0.540 0.532 0.539 0.534L0.536 0.533Q0.526 0.526 0.525 0.521L0.525 0.412L0.530 0.401L0.558 0.391Q0.578 0.387 0.602 0.387Q0.661 0.387 0.721 0.423L0.726 0.428V0.426Q0.728 0.428 0.729 0.429Q0.731 0.432 0.733 0.432Q0.738 0.436 0.744 0.442L0.748 0.446Q0.770 0.463 0.784 0.495Q0.797 0.521 0.804 0.549Q0.814 0.588 0.811 0.638V0.805ZM0.658 0.183V0.306H0.188V0.183Z" fill="black"/>
</svg>
