<svg xmlns="http://www.w3.org/2000/svg" viewBox="0 0 1 1" preserveAspectRatio="xMidYMid meet">
  <path d="M0.236 0.181H0.394L0.488 0.342L0.408 0.476ZM0.415 0.508 0.606 0.181H0.764L0.559 0.532L0.559 0.663Q0.556 0.732 0.530 0.763Q0.494 0.811 0.416 0.814H0.336L0.331 0.807V0.703L0.337 0.697L0.374 0.697Q0.412 0.694 0.415 0.659ZM0.455 0.046Q0.455 0.065 0.468 0.078Q0.476 0.085 0.484 0.088L0.492 0.090Q0.495 0.090 0.499 0.090Q0.518 0.090 0.531 0.078Q0.544 0.065 0.544 0.046H0.571Q0.571 0.062 0.566 0.075L0.564 0.078Q0.560 0.087 0.552 0.095L0.550 0.098Q0.537 0.110 0.522 0.115L0.509 0.118Q0.504 0.118 0.499 0.118Q0.494 0.118 0.490 0.118L0.478 0.115Q0.462 0.110 0.449 0.097Q0.437 0.086 0.432 0.072L0.429 0.054V0.046Z" fill="black"/>
</svg>
