<svg xmlns="http://www.w3.org/2000/svg" viewBox="0 0 1 1" preserveAspectRatio="xMidYMid meet">
  <path d="M0.383 0.815H0.239V0.324H0.383ZM0.711 0.183V0.300H0.239V0.183ZM0.694 0.473Q0.750 0.528 0.759 0.607Q0.761 0.616 0.761 0.628Q0.758 0.685 0.750 0.693Q0.746 0.717 0.719 0.750Q0.687 0.795 0.604 0.814L0.540 0.815L0.409 0.815L0.408 0.701L0.540 0.700Q0.612 0.682 0.613 0.630V0.612Q0.617 0.577 0.585 0.554Q0.575 0.544 0.540 0.541L0.409 0.542L0.408 0.422H0.540Q0.629 0.423 0.694 0.473Z" fill="black"/>
</svg>
