<svg xmlns="http://www.w3.org/2000/svg" viewBox="0 0 1 1" preserveAspectRatio="xMidYMid meet">
  <path d="M0.576 0.182 0.575 0.815H0.430V0.182ZM0.692 0.469 0.993 0.813V0.815H0.820L0.596 0.552V0.395Q0.651 0.352 0.673 0.290Q0.681 0.271 0.693 0.253L0.691 0.251V0.249L0.693 0.251Q0.751 0.181 0.878 0.181H0.980V0.298H0.878Q0.817 0.301 0.801 0.362Q0.762 0.432 0.692 0.469ZM0.199 0.362Q0.183 0.301 0.122 0.298H0.020V0.181H0.122Q0.249 0.181 0.307 0.251L0.309 0.249V0.251L0.307 0.253Q0.319 0.271 0.327 0.290Q0.349 0.352 0.404 0.395V0.552L0.180 0.815H0.007V0.813L0.308 0.469Q0.238 0.432 0.199 0.362Z" fill="black"/>
</svg>
