<svg xmlns="http://www.w3.org/2000/svg" viewBox="0 0 1 1" preserveAspectRatio="xMidYMid meet">
  <path d="M0.595 0.627V0.609Q0.598 0.575 0.563 0.553Q0.556 0.542 0.517 0.539L0.465 0.539L0.465 0.420L0.517 0.420Q0.529 0.418 0.543 0.418Q0.583 0.401 0.583 0.356L0.581 0.340L0.574 0.329Q0.557 0.304 0.521 0.300V0.300H0.517L0.516 0.181H0.549V0.181Q0.679 0.190 0.716 0.288Q0.725 0.310 0.725 0.338V0.349Q0.725 0.373 0.713 0.389Q0.699 0.431 0.667 0.456L0.646 0.468L0.636 0.471Q0.653 0.481 0.664 0.486Q0.731 0.526 0.740 0.605Q0.743 0.613 0.743 0.625Q0.739 0.681 0.732 0.690Q0.727 0.714 0.700 0.746Q0.668 0.791 0.585 0.809L0.555 0.811H0.517L0.518 0.698Q0.595 0.689 0.595 0.627ZM0.410 0.315Q0.387 0.335 0.383 0.378L0.257 0.366Q0.262 0.265 0.327 0.224Q0.385 0.177 0.494 0.180L0.495 0.298Q0.439 0.295 0.410 0.313ZM0.411 0.679Q0.449 0.701 0.496 0.697L0.495 0.812Q0.386 0.815 0.328 0.768Q0.263 0.727 0.259 0.625L0.385 0.614Q0.388 0.657 0.411 0.677Z" fill="black"/>
</svg>
