<svg xmlns="http://www.w3.org/2000/svg" viewBox="0 0 1 1" preserveAspectRatio="xMidYMid meet">
  <path d="M0.383 0.815H0.239V0.181H0.383ZM0.541 0.181Q0.694 0.181 0.734 0.289Q0.743 0.311 0.743 0.339V0.350Q0.743 0.410 0.685 0.459L0.665 0.470L0.654 0.474Q0.671 0.483 0.683 0.488Q0.750 0.528 0.759 0.608Q0.761 0.617 0.761 0.629Q0.758 0.685 0.750 0.694Q0.746 0.718 0.719 0.750Q0.687 0.795 0.604 0.814Q0.582 0.815 0.540 0.815H0.407V0.701H0.540Q0.612 0.682 0.613 0.631V0.612Q0.617 0.578 0.582 0.556Q0.575 0.545 0.540 0.542H0.408V0.422H0.540L0.562 0.420Q0.602 0.403 0.602 0.357L0.600 0.341L0.595 0.330Q0.575 0.305 0.540 0.301H0.406V0.181Z" fill="black"/>
</svg>
