<svg xmlns="http://www.w3.org/2000/svg" viewBox="0 0 1 1" preserveAspectRatio="xMidYMid meet">
  <path d="M0.573 0.815H0.429V0.181H0.573ZM0.598 0.627 0.603 0.622Q0.639 0.616 0.666 0.587Q0.699 0.551 0.699 0.500Q0.699 0.449 0.666 0.413Q0.638 0.384 0.602 0.378L0.598 0.373V0.260L0.604 0.255Q0.686 0.262 0.747 0.326Q0.814 0.397 0.814 0.498Q0.814 0.599 0.747 0.670Q0.686 0.735 0.601 0.742L0.598 0.737ZM0.253 0.670Q0.186 0.599 0.186 0.498Q0.186 0.397 0.253 0.326Q0.315 0.261 0.398 0.255L0.402 0.260V0.375L0.400 0.378Q0.365 0.384 0.338 0.413Q0.305 0.449 0.305 0.500Q0.305 0.551 0.338 0.587Q0.364 0.615 0.398 0.621L0.402 0.628V0.737L0.398 0.741Q0.315 0.735 0.253 0.670Z" fill="black"/>
</svg>
