<svg xmlns="http://www.w3.org/2000/svg" viewBox="0 0 1 1" preserveAspectRatio="xMidYMid meet">
  <path d="M0.731 0.815H0.587V0.181H0.731ZM0.277 0.183H0.408L0.414 0.190V0.418V0.428Q0.425 0.476 0.484 0.485Q0.511 0.485 0.531 0.472L0.540 0.466Q0.541 0.465 0.542 0.464L0.545 0.464Q0.555 0.471 0.556 0.476L0.556 0.586L0.551 0.597L0.523 0.606Q0.503 0.611 0.479 0.611Q0.420 0.611 0.360 0.574L0.355 0.570V0.571Q0.353 0.570 0.352 0.568Q0.350 0.565 0.348 0.565Q0.343 0.561 0.337 0.556L0.333 0.552Q0.311 0.535 0.297 0.502Q0.284 0.477 0.277 0.448Q0.267 0.410 0.270 0.359V0.193Z" fill="black"/>
</svg>
