<svg xmlns="http://www.w3.org/2000/svg" viewBox="0 0 1 1" preserveAspectRatio="xMidYMid meet">
  <path d="M0.852 0.817H0.708V0.183H0.852ZM0.292 0.816H0.148V0.182H0.292ZM0.608 0.473Q0.664 0.528 0.673 0.607Q0.675 0.616 0.675 0.628Q0.672 0.685 0.664 0.693Q0.660 0.717 0.633 0.750Q0.601 0.795 0.518 0.814L0.454 0.815L0.323 0.815L0.322 0.701L0.454 0.700Q0.526 0.682 0.527 0.630V0.612Q0.531 0.577 0.496 0.555Q0.489 0.544 0.454 0.541L0.323 0.542L0.322 0.422H0.454Q0.543 0.423 0.608 0.473Z" fill="black"/>
</svg>
