<svg xmlns="http://www.w3.org/2000/svg" viewBox="0 0 1 1" preserveAspectRatio="xMidYMid meet">
  <path d="M0.657 0.297Q0.602 0.304 0.561 0.355Q0.515 0.414 0.515 0.498Q0.515 0.582 0.561 0.641Q0.602 0.693 0.657 0.700V0.814Q0.540 0.810 0.456 0.722Q0.367 0.629 0.367 0.497Q0.367 0.366 0.456 0.273Q0.540 0.185 0.657 0.181ZM0.680 0.701Q0.741 0.697 0.785 0.641Q0.831 0.582 0.831 0.498Q0.831 0.414 0.785 0.355Q0.741 0.299 0.680 0.296V0.180Q0.798 0.184 0.884 0.273Q0.972 0.366 0.972 0.497Q0.972 0.629 0.884 0.722Q0.798 0.811 0.680 0.815ZM0.172 0.815H0.028V0.181H0.172ZM0.339 0.453V0.569H0.195V0.453Z" fill="black"/>
</svg>
