<svg xmlns="http://www.w3.org/2000/svg" viewBox="0 0 1 1" preserveAspectRatio="xMidYMid meet">
  <path d="M0.622 0.181H0.766V0.815H0.622ZM0.315 0.511Q0.272 0.455 0.272 0.380V0.372Q0.272 0.307 0.313 0.248Q0.370 0.179 0.498 0.179H0.600V0.291H0.498Q0.432 0.294 0.417 0.365V0.376Q0.417 0.441 0.484 0.465H0.600V0.580Q0.496 0.580 0.470 0.589Q0.442 0.606 0.434 0.634Q0.415 0.753 0.411 0.760Q0.392 0.814 0.384 0.814L0.234 0.813Q0.253 0.783 0.261 0.771Q0.268 0.740 0.272 0.729L0.285 0.659L0.290 0.637Q0.295 0.587 0.301 0.580Q0.317 0.547 0.333 0.530Q0.323 0.521 0.315 0.511Z" fill="black"/>
</svg>
