<svg xmlns="http://www.w3.org/2000/svg" viewBox="0 0 1 1" preserveAspectRatio="xMidYMid meet">
  <path d="M0.452 0.712Q0.474 0.718 0.504 0.716V0.717Q0.580 0.719 0.580 0.671V0.657Q0.583 0.635 0.561 0.623Q0.556 0.616 0.534 0.614V0.612L0.492 0.612H0.454V0.511L0.520 0.512Q0.530 0.510 0.536 0.510Q0.568 0.503 0.571 0.471H0.573V0.467L0.572 0.466V0.462L0.570 0.458L0.565 0.450Q0.547 0.430 0.503 0.428V0.427H0.500V0.426Q0.474 0.425 0.452 0.428V0.327Q0.477 0.325 0.503 0.326V0.327H0.550V0.327Q0.629 0.332 0.664 0.376V0.376Q0.676 0.391 0.683 0.410Q0.690 0.426 0.690 0.448V0.456Q0.690 0.475 0.681 0.492Q0.679 0.499 0.676 0.505V0.503L0.674 0.508Q0.663 0.530 0.645 0.544L0.629 0.553L0.621 0.555Q0.634 0.562 0.643 0.567Q0.695 0.597 0.702 0.658Q0.703 0.660 0.703 0.670Q0.701 0.713 0.695 0.719Q0.692 0.738 0.671 0.763Q0.646 0.797 0.582 0.812L0.554 0.813Q0.475 0.814 0.452 0.812ZM0.427 0.810 0.423 0.815H0.301L0.297 0.810V0.337L0.304 0.330L0.418 0.330L0.427 0.339Z" fill="black"/>
</svg>
