<svg xmlns="http://www.w3.org/2000/svg" viewBox="0 0 1 1" preserveAspectRatio="xMidYMid meet">
  <path d="M0.401 0.707 0.401 0.707Q0.427 0.719 0.466 0.716V0.717Q0.542 0.719 0.542 0.671V0.657Q0.545 0.635 0.523 0.623Q0.519 0.616 0.496 0.614V0.612L0.438 0.612V0.511L0.482 0.512Q0.492 0.510 0.498 0.510Q0.530 0.503 0.533 0.471H0.535V0.467L0.534 0.466V0.462L0.532 0.458L0.527 0.450Q0.509 0.430 0.465 0.428V0.427H0.462V0.426Q0.415 0.425 0.394 0.436L0.334 0.358Q0.336 0.358 0.337 0.357Q0.343 0.352 0.349 0.348L0.353 0.346V0.346Q0.386 0.324 0.465 0.326V0.327H0.512V0.327Q0.591 0.332 0.626 0.376L0.623 0.373L0.626 0.379V0.376Q0.638 0.391 0.645 0.410Q0.652 0.426 0.652 0.448V0.456Q0.652 0.475 0.643 0.492L0.636 0.508Q0.625 0.530 0.607 0.544L0.591 0.553L0.583 0.555Q0.596 0.562 0.605 0.567Q0.657 0.597 0.664 0.658Q0.666 0.660 0.666 0.670Q0.663 0.713 0.657 0.719Q0.654 0.738 0.633 0.763Q0.608 0.797 0.544 0.812L0.516 0.813H0.496L0.466 0.814Q0.405 0.815 0.352 0.785L0.399 0.709H0.402Q0.402 0.708 0.401 0.707Z" fill="black"/>
</svg>
