<svg xmlns="http://www.w3.org/2000/svg" viewBox="0 0 1 1" preserveAspectRatio="xMidYMid meet">
  <path d="M0.586 0.336 0.594 0.330H0.747L0.751 0.339L0.410 0.810L0.402 0.815H0.246L0.244 0.810L0.245 0.808ZM0.613 0.579 0.757 0.387V0.810L0.753 0.815H0.618L0.613 0.810ZM0.252 0.748 0.243 0.745V0.336L0.250 0.329L0.377 0.330L0.387 0.339L0.386 0.569ZM0.455 0.197Q0.455 0.216 0.469 0.229Q0.476 0.236 0.484 0.239L0.492 0.241Q0.496 0.241 0.500 0.241Q0.518 0.241 0.531 0.229Q0.544 0.216 0.544 0.197H0.572Q0.572 0.213 0.566 0.226L0.564 0.229Q0.560 0.238 0.553 0.246L0.550 0.249Q0.538 0.261 0.523 0.266L0.509 0.269Q0.504 0.269 0.500 0.269Q0.495 0.269 0.490 0.269L0.478 0.266Q0.462 0.261 0.449 0.248Q0.437 0.237 0.432 0.222L0.429 0.205V0.197Z" fill="black"/>
</svg>
