<svg xmlns="http://www.w3.org/2000/svg" viewBox="0 0 1 1" preserveAspectRatio="xMidYMid meet">
  <path d="M0.613 0.487Q0.585 0.458 0.549 0.452L0.545 0.448V0.335L0.551 0.330Q0.634 0.336 0.694 0.400Q0.695 0.402 0.697 0.403L0.613 0.488ZM0.694 0.745Q0.633 0.810 0.548 0.816L0.545 0.812V0.702L0.550 0.697Q0.586 0.691 0.613 0.661Q0.615 0.659 0.617 0.656L0.699 0.739Q0.697 0.742 0.694 0.745ZM0.368 0.745Q0.301 0.674 0.301 0.573Q0.301 0.472 0.368 0.400Q0.430 0.336 0.513 0.330L0.517 0.334V0.450L0.514 0.453Q0.479 0.459 0.453 0.487Q0.420 0.524 0.420 0.575Q0.420 0.625 0.453 0.661Q0.479 0.689 0.513 0.696L0.517 0.702V0.812L0.513 0.816Q0.430 0.810 0.368 0.745Z" fill="black"/>
</svg>
