<svg xmlns="http://www.w3.org/2000/svg" viewBox="0 0 1 1" preserveAspectRatio="xMidYMid meet">
  <path d="M0.607 0.345Q0.643 0.331 0.685 0.331Q0.778 0.331 0.844 0.402Q0.909 0.473 0.909 0.573Q0.909 0.674 0.844 0.745Q0.778 0.816 0.685 0.816Q0.643 0.816 0.607 0.802V0.673Q0.638 0.701 0.680 0.701Q0.729 0.701 0.763 0.664Q0.798 0.627 0.798 0.574Q0.798 0.522 0.763 0.485Q0.729 0.448 0.680 0.448Q0.638 0.448 0.607 0.475ZM0.572 0.815V0.960L0.567 0.966H0.435L0.429 0.961V0.181H0.573V0.815ZM0.393 0.475Q0.362 0.448 0.320 0.448Q0.271 0.448 0.237 0.485Q0.202 0.522 0.202 0.574Q0.202 0.627 0.237 0.664Q0.271 0.701 0.320 0.701Q0.362 0.701 0.393 0.673V0.802Q0.357 0.816 0.315 0.816Q0.222 0.816 0.156 0.745Q0.091 0.674 0.091 0.573Q0.091 0.473 0.156 0.402Q0.222 0.331 0.315 0.331Q0.357 0.331 0.393 0.345Z" fill="black"/>
</svg>
