<svg xmlns="http://www.w3.org/2000/svg" viewBox="0 0 1 1" preserveAspectRatio="xMidYMid meet">
  <path d="M0.731 0.815H0.587V0.326H0.731ZM0.277 0.329H0.408L0.414 0.336V0.524V0.534Q0.425 0.582 0.484 0.591Q0.511 0.591 0.531 0.578L0.540 0.572Q0.541 0.571 0.542 0.570L0.545 0.570Q0.555 0.577 0.556 0.582L0.556 0.692L0.551 0.703L0.523 0.712Q0.503 0.717 0.479 0.717Q0.420 0.717 0.360 0.680L0.355 0.676V0.677Q0.353 0.676 0.352 0.674Q0.350 0.671 0.348 0.671Q0.343 0.667 0.337 0.662L0.333 0.658Q0.311 0.641 0.297 0.608Q0.284 0.583 0.277 0.554Q0.267 0.516 0.270 0.465V0.339Z" fill="black"/>
</svg>
