<svg xmlns="http://www.w3.org/2000/svg" viewBox="0 0 1 1" preserveAspectRatio="xMidYMid meet">
  <path d="M0.841 0.817H0.697V0.329H0.841ZM0.303 0.816H0.159V0.328H0.303ZM0.597 0.473Q0.653 0.528 0.662 0.607Q0.664 0.616 0.664 0.628Q0.661 0.685 0.653 0.693Q0.649 0.717 0.622 0.750Q0.590 0.795 0.507 0.814L0.443 0.815L0.334 0.815L0.333 0.701L0.443 0.700Q0.515 0.682 0.516 0.630V0.612Q0.520 0.577 0.485 0.555Q0.478 0.544 0.443 0.541L0.334 0.542L0.333 0.422H0.443Q0.532 0.423 0.597 0.473Z" fill="black"/>
</svg>
