<svg xmlns="http://www.w3.org/2000/svg" viewBox="0 0 1 1" preserveAspectRatio="xMidYMid meet">
  <path d="M0.387 0.488 0.303 0.403Q0.305 0.402 0.306 0.400Q0.366 0.336 0.449 0.330L0.455 0.335V0.448L0.451 0.452Q0.415 0.458 0.387 0.487ZM0.301 0.739 0.383 0.656Q0.385 0.659 0.387 0.661Q0.414 0.691 0.450 0.697L0.455 0.702V0.812L0.452 0.816Q0.367 0.810 0.306 0.745Q0.303 0.742 0.301 0.739ZM0.566 0.514Q0.558 0.500 0.547 0.487Q0.521 0.459 0.486 0.453L0.483 0.450V0.334L0.487 0.330Q0.570 0.336 0.632 0.400Q0.699 0.472 0.699 0.573Q0.699 0.674 0.632 0.745Q0.570 0.810 0.487 0.816L0.483 0.812V0.702L0.487 0.696Q0.521 0.689 0.547 0.661Q0.560 0.647 0.568 0.631H0.406V0.514Z" fill="black"/>
</svg>
