<svg xmlns="http://www.w3.org/2000/svg" viewBox="0 0 1 1" preserveAspectRatio="xMidYMid meet">
  <path d="M0.259 0.811 0.255 0.815H0.120L0.115 0.811V0.337L0.122 0.331L0.250 0.330L0.259 0.339ZM0.669 0.702 0.673 0.697Q0.709 0.691 0.736 0.661Q0.769 0.625 0.769 0.575Q0.769 0.524 0.736 0.487Q0.709 0.458 0.673 0.452L0.669 0.448V0.335L0.675 0.330Q0.757 0.336 0.818 0.400Q0.885 0.472 0.885 0.573Q0.885 0.674 0.818 0.745Q0.756 0.810 0.672 0.816L0.669 0.812ZM0.492 0.745Q0.424 0.674 0.424 0.573Q0.424 0.472 0.492 0.400Q0.553 0.336 0.637 0.330L0.641 0.334V0.450L0.638 0.453Q0.603 0.459 0.577 0.487Q0.543 0.524 0.543 0.575Q0.543 0.625 0.577 0.661Q0.602 0.689 0.637 0.696L0.641 0.702V0.812L0.637 0.816Q0.553 0.810 0.492 0.745ZM0.396 0.515V0.631H0.282V0.515Z" fill="black"/>
</svg>
