<svg xmlns="http://www.w3.org/2000/svg" viewBox="0 0 1 1" preserveAspectRatio="xMidYMid meet">
  <path d="M0.347 0.603Q0.327 0.589 0.318 0.579L0.316 0.576Q0.310 0.569 0.306 0.562L0.304 0.558Q0.301 0.552 0.298 0.544Q0.291 0.524 0.291 0.500Q0.291 0.419 0.346 0.377Q0.400 0.335 0.492 0.331Q0.530 0.327 0.557 0.330L0.564 0.337V0.425L0.555 0.433Q0.531 0.431 0.506 0.434Q0.461 0.439 0.433 0.451Q0.405 0.464 0.405 0.495Q0.405 0.518 0.435 0.530Q0.462 0.542 0.498 0.542Q0.533 0.543 0.556 0.536L0.564 0.543V0.629Q0.513 0.629 0.474 0.653Q0.447 0.678 0.439 0.704Q0.426 0.760 0.423 0.766Q0.404 0.817 0.397 0.817H0.269L0.261 0.809Q0.272 0.797 0.280 0.776L0.295 0.736Q0.308 0.659 0.314 0.653Q0.322 0.622 0.347 0.603ZM0.739 0.332V0.810L0.735 0.815H0.600L0.596 0.810V0.332Z" fill="black"/>
</svg>
