<svg xmlns="http://www.w3.org/2000/svg" viewBox="0 0 1 1" preserveAspectRatio="xMidYMid meet">
  <path d="M0.666 0.745Q0.604 0.810 0.520 0.816L0.517 0.812V0.702L0.521 0.697Q0.558 0.691 0.585 0.661Q0.586 0.659 0.588 0.657L0.671 0.739Q0.668 0.742 0.666 0.745ZM0.608 0.525Q0.601 0.505 0.585 0.487Q0.557 0.458 0.521 0.452L0.517 0.448V0.335L0.523 0.330Q0.605 0.336 0.670 0.400Q0.721 0.454 0.727 0.525Q0.729 0.578 0.719 0.614H0.397Q0.405 0.640 0.425 0.661Q0.450 0.689 0.485 0.696L0.489 0.702V0.812L0.485 0.816Q0.401 0.810 0.340 0.745Q0.273 0.674 0.273 0.573Q0.273 0.472 0.340 0.400Q0.401 0.336 0.485 0.330L0.489 0.334V0.450L0.486 0.453Q0.451 0.459 0.425 0.487Q0.409 0.505 0.401 0.525ZM0.391 0.269V0.186H0.486V0.269ZM0.514 0.269V0.186H0.609V0.269Z" fill="black"/>
</svg>
