<svg xmlns="http://www.w3.org/2000/svg" viewBox="0 0 1 1" preserveAspectRatio="xMidYMid meet">
  <path d="M0.269 0.479 0.270 0.619Q0.253 0.783 0.136 0.811Q0.106 0.820 0.055 0.819V0.678Q0.125 0.669 0.126 0.605V0.479ZM0.581 0.815H0.437V0.471H0.581ZM0.582 0.331V0.447H0.125V0.331ZM0.878 0.473Q0.934 0.528 0.943 0.607Q0.945 0.616 0.945 0.628Q0.942 0.685 0.934 0.693Q0.930 0.717 0.903 0.750Q0.871 0.795 0.788 0.814L0.724 0.815L0.615 0.815L0.614 0.701L0.724 0.700Q0.796 0.682 0.797 0.630V0.612Q0.801 0.577 0.766 0.555Q0.759 0.544 0.724 0.541L0.615 0.542L0.614 0.422H0.724Q0.813 0.423 0.878 0.473Z" fill="black"/>
</svg>
