<svg xmlns="http://www.w3.org/2000/svg" viewBox="0 0 1 1" preserveAspectRatio="xMidYMid meet">
  <path d="M0.210 0.815H0.066V0.326H0.210ZM0.577 0.815H0.433V0.326H0.577ZM0.406 0.512V0.629H0.234V0.512ZM0.866 0.473Q0.922 0.528 0.932 0.607Q0.934 0.616 0.934 0.628Q0.930 0.685 0.923 0.693Q0.918 0.717 0.892 0.750Q0.860 0.795 0.777 0.814L0.713 0.815L0.604 0.815L0.603 0.701L0.712 0.700Q0.785 0.682 0.786 0.630V0.612Q0.790 0.577 0.755 0.555Q0.748 0.544 0.712 0.541L0.604 0.542L0.603 0.422H0.712Q0.801 0.423 0.866 0.473Z" fill="black"/>
</svg>
