<svg xmlns="http://www.w3.org/2000/svg" viewBox="0 0 1 1" preserveAspectRatio="xMidYMid meet">
  <path d="M0.586 0.814 0.585 0.512Q0.578 0.456 0.516 0.456Q0.488 0.456 0.468 0.468L0.459 0.474Q0.458 0.475 0.457 0.476L0.455 0.476Q0.445 0.469 0.446 0.464L0.443 0.464L0.444 0.354L0.448 0.343L0.476 0.334Q0.496 0.329 0.520 0.329Q0.607 0.330 0.662 0.384L0.667 0.388Q0.687 0.405 0.702 0.438L0.710 0.452Q0.715 0.463 0.723 0.492Q0.732 0.530 0.729 0.581V0.814ZM0.414 0.297V0.810L0.409 0.815H0.274L0.270 0.810V0.185L0.274 0.181H0.564L0.569 0.185V0.293L0.564 0.297Z" fill="black"/>
</svg>
