<svg xmlns="http://www.w3.org/2000/svg" viewBox="0 0 1 1" preserveAspectRatio="xMidYMid meet">
  <path d="M0.573 0.330 0.573 0.815H0.427V0.330ZM0.617 0.440Q0.625 0.422 0.637 0.401Q0.690 0.331 0.822 0.331H0.919L0.924 0.336V0.444L0.919 0.449L0.804 0.450Q0.759 0.452 0.741 0.512Q0.735 0.537 0.713 0.557L0.937 0.813V0.815H0.764L0.597 0.619L0.598 0.478Q0.612 0.455 0.617 0.440ZM0.402 0.478 0.403 0.619 0.236 0.815H0.063V0.813L0.287 0.557Q0.265 0.537 0.259 0.512Q0.241 0.452 0.196 0.449L0.081 0.449L0.076 0.444V0.336L0.081 0.331H0.178Q0.305 0.331 0.363 0.403Q0.375 0.422 0.383 0.440Q0.388 0.455 0.402 0.478ZM0.937 0.830V0.947H0.793V0.830Z" fill="black"/>
</svg>
