<svg xmlns="http://www.w3.org/2000/svg" viewBox="0 0 1 1" preserveAspectRatio="xMidYMid meet">
  <path d="M0.504 0.181Q0.621 0.185 0.705 0.273Q0.794 0.366 0.794 0.498Q0.794 0.629 0.705 0.722Q0.621 0.810 0.504 0.815V0.700Q0.559 0.693 0.600 0.641Q0.646 0.582 0.646 0.499Q0.646 0.415 0.600 0.356Q0.559 0.304 0.504 0.298ZM0.344 0.422 0.219 0.360Q0.234 0.319 0.277 0.273Q0.363 0.185 0.481 0.181V0.297Q0.420 0.300 0.376 0.356Q0.355 0.378 0.344 0.422ZM0.206 0.590H0.343Q0.349 0.618 0.372 0.644Q0.420 0.698 0.481 0.701V0.815Q0.363 0.811 0.273 0.725Q0.223 0.681 0.206 0.590ZM0.618 0.455V0.572H0.208V0.455Z" fill="black"/>
</svg>
