<svg xmlns="http://www.w3.org/2000/svg" viewBox="0 0 1 1" preserveAspectRatio="xMidYMid meet">
  <path d="M0.334 0.401Q0.396 0.336 0.480 0.330L0.483 0.334V0.444L0.479 0.449Q0.442 0.455 0.415 0.485Q0.414 0.487 0.412 0.489L0.329 0.407Q0.332 0.404 0.334 0.401ZM0.392 0.621Q0.399 0.641 0.415 0.659Q0.443 0.688 0.479 0.693L0.483 0.698V0.811L0.477 0.816Q0.395 0.810 0.330 0.746Q0.279 0.692 0.273 0.621Q0.271 0.568 0.281 0.532H0.603Q0.595 0.506 0.575 0.485Q0.550 0.456 0.515 0.450L0.511 0.444V0.334L0.515 0.330Q0.599 0.336 0.660 0.401Q0.727 0.472 0.727 0.573Q0.727 0.674 0.660 0.746Q0.599 0.810 0.515 0.816L0.511 0.812V0.696L0.514 0.693Q0.549 0.687 0.575 0.659Q0.591 0.641 0.599 0.621Z" fill="black"/>
</svg>
