<svg xmlns="http://www.w3.org/2000/svg" viewBox="0 0 1 1" preserveAspectRatio="xMidYMid meet">
  <path d="M0.351 0.557Q0.362 0.603 0.391 0.641Q0.432 0.693 0.487 0.700V0.814Q0.370 0.810 0.286 0.722Q0.197 0.629 0.197 0.497Q0.197 0.366 0.286 0.273Q0.370 0.185 0.487 0.181V0.297Q0.432 0.304 0.391 0.355Q0.362 0.393 0.351 0.440H0.655Q0.644 0.393 0.615 0.355Q0.571 0.299 0.510 0.296V0.180Q0.629 0.184 0.714 0.273Q0.803 0.366 0.803 0.497Q0.803 0.629 0.714 0.722Q0.629 0.811 0.510 0.815V0.701Q0.571 0.697 0.615 0.641Q0.644 0.603 0.655 0.557Z" fill="black"/>
</svg>
