<svg xmlns="http://www.w3.org/2000/svg" viewBox="0 0 1 1" preserveAspectRatio="xMidYMid meet">
  <path d="M0.404 0.810 0.399 0.815H0.264L0.260 0.810V0.185L0.266 0.181H0.399L0.404 0.186ZM0.438 0.671Q0.469 0.699 0.511 0.699Q0.560 0.699 0.594 0.662Q0.629 0.625 0.629 0.572Q0.629 0.520 0.594 0.482Q0.560 0.445 0.511 0.445Q0.469 0.445 0.438 0.473V0.344Q0.474 0.330 0.516 0.330Q0.609 0.330 0.675 0.401Q0.740 0.472 0.740 0.573Q0.740 0.674 0.675 0.745Q0.609 0.816 0.516 0.816Q0.474 0.816 0.438 0.802Z" fill="black"/>
</svg>
