<svg xmlns="http://www.w3.org/2000/svg" viewBox="0 0 1 1" preserveAspectRatio="xMidYMid meet">
  <path d="M0.596 0.186 0.601 0.181H0.734L0.740 0.185V0.810L0.736 0.815H0.601L0.596 0.810ZM0.562 0.802Q0.526 0.816 0.484 0.816Q0.391 0.816 0.325 0.745Q0.260 0.674 0.260 0.573Q0.260 0.472 0.325 0.401Q0.391 0.330 0.484 0.330Q0.526 0.330 0.562 0.344V0.473Q0.531 0.445 0.489 0.445Q0.440 0.445 0.406 0.482Q0.371 0.520 0.371 0.572Q0.371 0.625 0.406 0.662Q0.440 0.699 0.489 0.699Q0.531 0.699 0.562 0.671Z" fill="black"/>
</svg>
