<svg xmlns="http://www.w3.org/2000/svg" viewBox="0 0 1 1" preserveAspectRatio="xMidYMid meet">
  <path d="M0.271 0.329V0.810L0.266 0.814H0.131L0.127 0.810V0.329ZM0.430 0.814 0.426 0.809V0.512Q0.419 0.459 0.369 0.455Q0.334 0.455 0.307 0.479L0.301 0.472V0.354L0.305 0.343Q0.326 0.328 0.373 0.328Q0.454 0.328 0.508 0.377Q0.567 0.328 0.638 0.328H0.662Q0.752 0.328 0.812 0.391Q0.872 0.454 0.873 0.536V0.808L0.870 0.814H0.733L0.729 0.809V0.520Q0.719 0.460 0.646 0.449Q0.576 0.456 0.572 0.520V0.809L0.568 0.814Z" fill="black"/>
</svg>
