<svg xmlns="http://www.w3.org/2000/svg" viewBox="0 0 1 1" preserveAspectRatio="xMidYMid meet">
  <path d="M0.596 0.336 0.601 0.331H0.736L0.740 0.336V0.961L0.734 0.966H0.602L0.597 0.960ZM0.562 0.475Q0.531 0.448 0.489 0.448Q0.440 0.448 0.406 0.485Q0.371 0.522 0.371 0.574Q0.371 0.627 0.406 0.664Q0.440 0.701 0.489 0.701Q0.531 0.701 0.562 0.673V0.802Q0.526 0.816 0.484 0.816Q0.391 0.816 0.325 0.745Q0.260 0.674 0.260 0.573Q0.260 0.473 0.325 0.402Q0.391 0.331 0.484 0.331Q0.526 0.331 0.562 0.345Z" fill="black"/>
</svg>
