<svg xmlns="http://www.w3.org/2000/svg" viewBox="0 0 1 1" preserveAspectRatio="xMidYMid meet">
  <path d="M0.491 0.521Q0.489 0.518 0.487 0.516Q0.486 0.515 0.485 0.514L0.478 0.508Q0.462 0.497 0.441 0.497Q0.415 0.497 0.396 0.516Q0.387 0.526 0.382 0.538V0.543H0.342L0.343 0.530Q0.350 0.506 0.369 0.487Q0.385 0.471 0.405 0.463Q0.431 0.454 0.466 0.459Q0.493 0.466 0.515 0.487Q0.517 0.490 0.519 0.492Q0.535 0.504 0.557 0.504Q0.583 0.504 0.602 0.486Q0.613 0.474 0.618 0.459H0.658Q0.656 0.474 0.650 0.486L0.647 0.491Q0.640 0.503 0.630 0.514Q0.614 0.529 0.596 0.536L0.589 0.539Q0.574 0.543 0.557 0.543Q0.535 0.543 0.516 0.535L0.511 0.533Q0.501 0.528 0.491 0.521Z" fill="black"/>
</svg>
