<svg xmlns="http://www.w3.org/2000/svg" viewBox="0 0 1 1" preserveAspectRatio="xMidYMid meet">
  <path d="M0.499 0.297Q0.444 0.304 0.403 0.355Q0.357 0.414 0.357 0.498Q0.357 0.582 0.403 0.641Q0.444 0.693 0.499 0.700V0.814Q0.382 0.810 0.298 0.722Q0.209 0.629 0.209 0.497Q0.209 0.366 0.298 0.273Q0.382 0.185 0.499 0.181ZM0.627 0.355Q0.583 0.299 0.522 0.296V0.180Q0.640 0.184 0.726 0.273Q0.769 0.318 0.791 0.373L0.666 0.435Q0.654 0.391 0.627 0.355ZM0.726 0.722Q0.640 0.811 0.522 0.815V0.701Q0.583 0.697 0.627 0.641Q0.648 0.613 0.660 0.580L0.782 0.643Q0.760 0.685 0.726 0.722ZM0.574 0.041V0.158H0.438V0.041ZM0.577 0.836V0.953H0.441V0.836Z" fill="black"/>
</svg>
