<svg xmlns="http://www.w3.org/2000/svg" viewBox="0 0 1 1" preserveAspectRatio="xMidYMid meet">
  <path d="M0.517 0.108Q0.612 0.108 0.684 0.161Q0.727 0.196 0.746 0.292V0.298L0.674 0.307L0.614 0.311Q0.605 0.259 0.584 0.242Q0.566 0.227 0.517 0.215ZM0.597 0.609Q0.617 0.592 0.616 0.554Q0.616 0.508 0.506 0.482Q0.482 0.475 0.452 0.469L0.454 0.471Q0.445 0.469 0.437 0.467Q0.437 0.467 0.436 0.468Q0.401 0.481 0.402 0.528Q0.402 0.572 0.513 0.592Q0.540 0.597 0.558 0.601Q0.578 0.605 0.597 0.609ZM0.311 0.410Q0.263 0.365 0.263 0.294V0.285Q0.263 0.136 0.456 0.110L0.495 0.109L0.496 0.215Q0.453 0.218 0.436 0.225Q0.401 0.238 0.402 0.285Q0.402 0.329 0.513 0.349Q0.541 0.354 0.558 0.358Q0.755 0.391 0.755 0.546V0.554Q0.755 0.628 0.714 0.673Q0.754 0.718 0.754 0.788V0.797Q0.754 0.956 0.562 0.984L0.519 0.985V0.874Q0.565 0.869 0.581 0.861Q0.616 0.847 0.615 0.797Q0.615 0.764 0.560 0.741L0.519 0.728Q0.513 0.727 0.506 0.725Q0.481 0.717 0.452 0.712L0.453 0.713Q0.263 0.679 0.263 0.536V0.528Q0.263 0.453 0.311 0.410ZM0.406 0.840Q0.446 0.863 0.483 0.868L0.496 0.870L0.495 0.983Q0.380 0.987 0.318 0.936Q0.250 0.892 0.245 0.783L0.378 0.770Q0.381 0.816 0.406 0.838Z" fill="black"/>
</svg>
