<svg xmlns="http://www.w3.org/2000/svg" viewBox="0 0 1 1" preserveAspectRatio="xMidYMid meet">
  <path d="M0.501 0.172Q0.565 0.172 0.625 0.197Q0.685 0.222 0.730 0.268Q0.775 0.313 0.800 0.373Q0.825 0.433 0.825 0.498Q0.825 0.563 0.800 0.622Q0.775 0.682 0.729 0.728Q0.682 0.775 0.623 0.799Q0.564 0.823 0.498 0.823Q0.434 0.823 0.376 0.798Q0.317 0.774 0.270 0.727Q0.224 0.682 0.199 0.623Q0.175 0.564 0.175 0.498Q0.175 0.433 0.199 0.373Q0.224 0.313 0.270 0.268Q0.315 0.222 0.375 0.197Q0.435 0.172 0.501 0.172ZM0.288 0.286Q0.246 0.329 0.224 0.383Q0.201 0.438 0.201 0.498Q0.201 0.558 0.224 0.612Q0.246 0.666 0.289 0.709Q0.332 0.751 0.386 0.774Q0.439 0.796 0.499 0.796Q0.559 0.796 0.613 0.774Q0.667 0.752 0.710 0.710Q0.753 0.667 0.776 0.612Q0.799 0.557 0.799 0.498Q0.799 0.439 0.776 0.383Q0.753 0.328 0.712 0.286Q0.669 0.244 0.615 0.221Q0.560 0.199 0.501 0.199Q0.440 0.199 0.385 0.221Q0.330 0.244 0.288 0.286ZM0.492 0.351Q0.451 0.356 0.421 0.395Q0.387 0.439 0.387 0.501Q0.387 0.564 0.421 0.608Q0.451 0.647 0.492 0.652V0.738Q0.405 0.734 0.342 0.668Q0.276 0.599 0.276 0.501Q0.276 0.403 0.342 0.333Q0.405 0.267 0.492 0.264ZM0.588 0.395Q0.556 0.353 0.510 0.350V0.264Q0.598 0.267 0.662 0.333Q0.695 0.367 0.711 0.408L0.617 0.454Q0.609 0.421 0.588 0.395ZM0.662 0.668Q0.598 0.735 0.510 0.738V0.652Q0.556 0.650 0.588 0.608Q0.605 0.587 0.613 0.562L0.704 0.610Q0.688 0.641 0.662 0.668Z" fill="black"/>
</svg>
