<svg xmlns="http://www.w3.org/2000/svg" viewBox="0 0 1 1" preserveAspectRatio="xMidYMid meet">
  <path d="M0.499 0.815Q0.517 0.815 0.532 0.822L0.535 0.824Q0.543 0.829 0.551 0.836Q0.561 0.847 0.566 0.859L0.568 0.864Q0.571 0.875 0.571 0.887Q0.571 0.902 0.566 0.915Q0.560 0.927 0.552 0.935L0.550 0.938Q0.537 0.950 0.522 0.955L0.509 0.958Q0.504 0.959 0.499 0.959Q0.494 0.959 0.490 0.958L0.478 0.956Q0.462 0.951 0.449 0.938Q0.437 0.926 0.432 0.912L0.429 0.894V0.887H0.455Q0.455 0.905 0.468 0.918Q0.476 0.925 0.484 0.928L0.492 0.930Q0.495 0.931 0.499 0.931Q0.518 0.931 0.531 0.918Q0.544 0.905 0.544 0.887Q0.544 0.868 0.531 0.855Q0.518 0.842 0.499 0.842Z" fill="black"/>
</svg>
