<svg xmlns="http://www.w3.org/2000/svg" viewBox="0 0 1 1" preserveAspectRatio="xMidYMid meet">
  <path d="M0.432 0.298V0.181H0.575V0.298ZM0.575 0.378Q0.575 0.533 0.458 0.567Q0.440 0.571 0.430 0.576Q0.398 0.598 0.398 0.641Q0.397 0.688 0.432 0.701Q0.448 0.708 0.492 0.712L0.492 0.817L0.451 0.817Q0.259 0.790 0.259 0.641V0.633Q0.260 0.496 0.363 0.460L0.361 0.461Q0.381 0.451 0.406 0.443Q0.439 0.427 0.437 0.369L0.436 0.325L0.575 0.324ZM0.513 0.712Q0.561 0.699 0.579 0.684Q0.601 0.668 0.609 0.616L0.669 0.620L0.741 0.629V0.635Q0.722 0.730 0.680 0.765Q0.607 0.819 0.514 0.819Z" fill="black"/>
</svg>
