<svg xmlns="http://www.w3.org/2000/svg" viewBox="0 0 1 1" preserveAspectRatio="xMidYMid meet">
  <path d="M0.562 0.182 0.786 0.815H0.622L0.580 0.680H0.405L0.439 0.563H0.547V0.561L0.481 0.328H0.479L0.342 0.815H0.214V0.723L0.398 0.182ZM0.472 0.097Q0.471 0.095 0.469 0.094Q0.468 0.093 0.468 0.093L0.463 0.089Q0.452 0.080 0.437 0.080Q0.419 0.080 0.406 0.094Q0.399 0.101 0.396 0.109V0.113H0.367L0.368 0.103Q0.373 0.087 0.386 0.074Q0.398 0.062 0.412 0.057L0.430 0.054H0.445L0.454 0.054Q0.473 0.059 0.488 0.074Q0.490 0.075 0.491 0.077Q0.502 0.086 0.518 0.086Q0.536 0.086 0.550 0.073Q0.558 0.064 0.561 0.054H0.589Q0.587 0.064 0.583 0.073L0.581 0.076Q0.576 0.085 0.569 0.092Q0.558 0.103 0.545 0.108L0.540 0.110Q0.530 0.113 0.518 0.113Q0.498 0.113 0.486 0.106Q0.479 0.102 0.472 0.097Z" fill="black"/>
</svg>
