<svg xmlns="http://www.w3.org/2000/svg" viewBox="0 0 1 1" preserveAspectRatio="xMidYMid meet">
  <path d="M0.562 0.182 0.786 0.815H0.622L0.580 0.680H0.405L0.439 0.563H0.547V0.561L0.481 0.328H0.479L0.342 0.815H0.214V0.723L0.398 0.182ZM0.466 0.114V0.143L0.456 0.142Q0.440 0.137 0.427 0.124Q0.415 0.112 0.410 0.098L0.407 0.080V0.064L0.407 0.056Q0.411 0.037 0.427 0.022Q0.437 0.011 0.449 0.006H0.452L0.453 0.005Q0.459 0.003 0.466 0.002V0.030Q0.455 0.033 0.446 0.041L0.442 0.047Q0.433 0.058 0.433 0.073Q0.433 0.091 0.446 0.104Q0.453 0.111 0.462 0.114ZM0.491 0.030V0.002Q0.501 0.004 0.509 0.008L0.513 0.010Q0.521 0.015 0.528 0.022Q0.539 0.033 0.544 0.045L0.546 0.050Q0.549 0.061 0.549 0.073Q0.549 0.088 0.543 0.101L0.542 0.105Q0.538 0.113 0.530 0.121L0.528 0.124Q0.515 0.136 0.500 0.141L0.491 0.143V0.115Q0.501 0.112 0.509 0.104Q0.522 0.091 0.522 0.073Q0.522 0.054 0.509 0.041Q0.501 0.033 0.491 0.030Z" fill="black"/>
</svg>
