<svg xmlns="http://www.w3.org/2000/svg" viewBox="0 0 1 1" preserveAspectRatio="xMidYMid meet">
  <path d="M0.499 0.297Q0.444 0.304 0.403 0.355Q0.357 0.414 0.357 0.498Q0.357 0.582 0.403 0.641Q0.444 0.693 0.499 0.700V0.814Q0.382 0.810 0.298 0.722Q0.209 0.629 0.209 0.497Q0.209 0.366 0.298 0.273Q0.382 0.185 0.499 0.181ZM0.627 0.355Q0.583 0.299 0.522 0.296V0.180Q0.640 0.184 0.726 0.273Q0.769 0.318 0.791 0.373L0.666 0.435Q0.654 0.391 0.627 0.355ZM0.726 0.722Q0.640 0.811 0.522 0.815V0.701Q0.583 0.697 0.627 0.641Q0.648 0.613 0.660 0.580L0.782 0.643Q0.760 0.685 0.726 0.722ZM0.522 0.815Q0.539 0.815 0.554 0.822L0.557 0.824Q0.565 0.829 0.573 0.836Q0.583 0.847 0.589 0.859L0.590 0.864Q0.594 0.875 0.594 0.887Q0.594 0.902 0.588 0.915Q0.582 0.927 0.575 0.935L0.572 0.938Q0.560 0.950 0.545 0.955L0.531 0.958Q0.526 0.959 0.522 0.959Q0.517 0.959 0.512 0.958L0.500 0.956Q0.484 0.951 0.471 0.938Q0.459 0.926 0.454 0.912L0.451 0.894V0.887H0.477Q0.477 0.905 0.491 0.918Q0.498 0.925 0.506 0.928L0.514 0.930Q0.518 0.931 0.522 0.931Q0.540 0.931 0.553 0.918Q0.566 0.905 0.566 0.887Q0.566 0.868 0.553 0.855Q0.540 0.842 0.522 0.842Z" fill="black"/>
</svg>
