<svg xmlns="http://www.w3.org/2000/svg" viewBox="0 0 1 1" preserveAspectRatio="xMidYMid meet">
  <path d="M0.487 0.297Q0.432 0.304 0.391 0.355Q0.345 0.414 0.345 0.498Q0.345 0.582 0.391 0.641Q0.432 0.693 0.487 0.700V0.814Q0.370 0.810 0.286 0.722Q0.197 0.629 0.197 0.497Q0.197 0.366 0.286 0.273Q0.370 0.185 0.487 0.181ZM0.510 0.701Q0.571 0.697 0.615 0.641Q0.661 0.582 0.661 0.498Q0.661 0.414 0.615 0.355Q0.571 0.299 0.510 0.296V0.180Q0.629 0.184 0.714 0.273Q0.803 0.366 0.803 0.497Q0.803 0.629 0.714 0.722Q0.629 0.811 0.510 0.815ZM0.494 0.097Q0.493 0.095 0.491 0.094Q0.491 0.093 0.490 0.093L0.485 0.089Q0.474 0.080 0.459 0.080Q0.441 0.080 0.428 0.094Q0.421 0.101 0.418 0.109V0.113H0.389L0.390 0.103Q0.395 0.087 0.408 0.074Q0.420 0.062 0.434 0.057L0.452 0.054H0.468L0.476 0.054Q0.495 0.059 0.510 0.074Q0.512 0.075 0.513 0.077Q0.524 0.086 0.540 0.086Q0.558 0.086 0.572 0.073Q0.580 0.064 0.583 0.054H0.611Q0.609 0.064 0.605 0.073L0.603 0.076Q0.598 0.085 0.591 0.092Q0.580 0.103 0.567 0.108L0.562 0.110Q0.552 0.113 0.540 0.113Q0.520 0.113 0.508 0.106Q0.501 0.102 0.494 0.097Z" fill="black"/>
</svg>
