<svg xmlns="http://www.w3.org/2000/svg" viewBox="0 0 1 1" preserveAspectRatio="xMidYMid meet">
  <path d="M0.283 0.717Q0.199 0.625 0.199 0.497Q0.199 0.366 0.287 0.273Q0.371 0.185 0.488 0.181V0.297Q0.433 0.304 0.392 0.355Q0.346 0.414 0.346 0.498Q0.346 0.563 0.374 0.614L0.609 0.346Q0.568 0.299 0.511 0.296V0.180Q0.615 0.184 0.693 0.252L0.756 0.180Q0.756 0.180 0.756 0.179H0.804L0.718 0.277Q0.804 0.369 0.804 0.497Q0.804 0.629 0.715 0.722Q0.630 0.811 0.511 0.815V0.701Q0.572 0.697 0.616 0.641Q0.662 0.582 0.662 0.498Q0.662 0.429 0.631 0.377L0.395 0.644Q0.435 0.693 0.488 0.700V0.814Q0.386 0.810 0.309 0.742L0.244 0.816H0.196Z" fill="black"/>
</svg>
