<svg xmlns="http://www.w3.org/2000/svg" viewBox="0 0 1 1" preserveAspectRatio="xMidYMid meet">
  <path d="M0.270 0.815V0.380Q0.274 0.193 0.461 0.179H0.472Q0.479 0.179 0.485 0.180V0.303Q0.415 0.305 0.413 0.377V0.815ZM0.508 0.700H0.509Q0.581 0.681 0.583 0.630V0.611Q0.586 0.577 0.551 0.555Q0.544 0.544 0.509 0.541H0.508V0.421H0.509L0.531 0.419Q0.571 0.402 0.571 0.356L0.569 0.340L0.564 0.329Q0.545 0.304 0.509 0.300H0.508V0.180H0.511Q0.663 0.180 0.703 0.288Q0.713 0.310 0.713 0.338V0.349Q0.713 0.409 0.654 0.458L0.634 0.469L0.624 0.473Q0.641 0.482 0.652 0.487Q0.719 0.527 0.728 0.607Q0.730 0.616 0.730 0.628Q0.727 0.684 0.719 0.693Q0.715 0.717 0.688 0.750Q0.656 0.795 0.573 0.813Q0.551 0.814 0.509 0.814H0.508Z" fill="black"/>
</svg>
