<svg xmlns="http://www.w3.org/2000/svg" viewBox="0 0 1 1" preserveAspectRatio="xMidYMid meet">
  <path d="M0.319 0.820Q0.276 0.819 0.240 0.812Q0.205 0.805 0.173 0.783Q0.160 0.775 0.151 0.765Q0.143 0.754 0.138 0.746Q0.133 0.737 0.130 0.729Q0.124 0.709 0.124 0.685Q0.124 0.604 0.178 0.562Q0.233 0.520 0.325 0.516Q0.362 0.512 0.389 0.515L0.396 0.522V0.601L0.387 0.610Q0.363 0.607 0.338 0.610Q0.293 0.615 0.265 0.632Q0.238 0.649 0.238 0.680Q0.238 0.703 0.268 0.715Q0.295 0.727 0.330 0.727Q0.366 0.728 0.412 0.705L0.420 0.707L0.469 0.773L0.467 0.782Q0.419 0.817 0.319 0.820ZM0.424 0.537V0.503Q0.418 0.459 0.362 0.454V0.331Q0.399 0.330 0.420 0.334Q0.479 0.349 0.514 0.377Q0.567 0.335 0.634 0.330L0.638 0.334V0.450L0.635 0.453Q0.600 0.459 0.574 0.487Q0.558 0.505 0.550 0.525H0.758Q0.749 0.505 0.733 0.487Q0.706 0.458 0.670 0.452L0.666 0.448V0.335L0.672 0.330Q0.754 0.336 0.819 0.400Q0.870 0.454 0.876 0.525Q0.878 0.578 0.868 0.614H0.546Q0.554 0.640 0.574 0.661Q0.599 0.689 0.634 0.696L0.638 0.702V0.812L0.634 0.816Q0.550 0.810 0.489 0.745Q0.421 0.674 0.421 0.573Q0.421 0.555 0.424 0.537ZM0.815 0.745Q0.753 0.810 0.669 0.816L0.666 0.812V0.702L0.670 0.697Q0.706 0.691 0.733 0.661Q0.735 0.659 0.737 0.657L0.820 0.739Q0.817 0.742 0.815 0.745ZM0.337 0.455Q0.279 0.460 0.277 0.490L0.266 0.495L0.159 0.495L0.151 0.487Q0.151 0.378 0.273 0.338Q0.291 0.331 0.337 0.332Z" fill="black"/>
</svg>
