<svg xmlns="http://www.w3.org/2000/svg" viewBox="0 0 1 1" preserveAspectRatio="xMidYMid meet">
  <path d="M0.613 0.487Q0.585 0.458 0.549 0.452L0.545 0.448V0.335L0.551 0.330Q0.634 0.336 0.694 0.400Q0.695 0.402 0.697 0.403L0.613 0.488ZM0.558 0.815Q0.554 0.816 0.548 0.816L0.545 0.812V0.702L0.550 0.697Q0.586 0.691 0.613 0.661Q0.615 0.659 0.617 0.656L0.699 0.739Q0.697 0.742 0.694 0.745Q0.652 0.790 0.598 0.807L0.599 0.807Q0.609 0.818 0.615 0.831L0.616 0.836Q0.619 0.847 0.619 0.859Q0.619 0.874 0.614 0.887Q0.608 0.899 0.600 0.907L0.598 0.910Q0.585 0.922 0.570 0.927L0.557 0.930Q0.552 0.930 0.547 0.930Q0.543 0.930 0.538 0.930L0.526 0.927Q0.510 0.923 0.497 0.909Q0.485 0.898 0.480 0.884L0.477 0.866V0.859H0.503Q0.503 0.877 0.517 0.890Q0.524 0.897 0.532 0.900L0.540 0.902Q0.543 0.903 0.547 0.903Q0.566 0.903 0.579 0.890Q0.592 0.877 0.592 0.859Q0.592 0.840 0.579 0.827Q0.570 0.818 0.558 0.815ZM0.368 0.745Q0.301 0.674 0.301 0.573Q0.301 0.472 0.368 0.400Q0.430 0.336 0.513 0.330L0.517 0.334V0.450L0.514 0.453Q0.479 0.459 0.453 0.487Q0.420 0.524 0.420 0.575Q0.420 0.625 0.453 0.661Q0.479 0.689 0.513 0.696L0.517 0.702V0.812L0.513 0.816Q0.430 0.810 0.368 0.745Z" fill="black"/>
</svg>
