<svg xmlns="http://www.w3.org/2000/svg" viewBox="0 0 1 1" preserveAspectRatio="xMidYMid meet">
  <path d="M0.555 0.483Q0.530 0.460 0.498 0.455L0.497 0.453Q0.480 0.452 0.464 0.455L0.463 0.456Q0.455 0.457 0.447 0.460Q0.440 0.462 0.435 0.465H0.434Q0.417 0.474 0.402 0.490Q0.369 0.526 0.369 0.577Q0.369 0.628 0.402 0.664Q0.428 0.692 0.462 0.698L0.466 0.705V0.814L0.462 0.818Q0.379 0.812 0.317 0.748Q0.250 0.677 0.250 0.576Q0.250 0.475 0.317 0.403Q0.379 0.339 0.462 0.332L0.463 0.333Q0.480 0.332 0.499 0.334L0.500 0.332Q0.529 0.335 0.555 0.344ZM0.710 0.301V0.588L0.710 0.588Q0.706 0.681 0.643 0.748Q0.582 0.813 0.497 0.819L0.494 0.814V0.704L0.499 0.699Q0.570 0.689 0.587 0.616V0.301H0.542V0.219H0.587V0.189L0.593 0.182L0.702 0.182L0.710 0.191V0.219H0.750V0.301Z" fill="black"/>
</svg>
