<svg xmlns="http://www.w3.org/2000/svg" viewBox="0 0 1 1" preserveAspectRatio="xMidYMid meet">
  <path d="M0.414 0.330V0.810L0.410 0.815H0.275L0.270 0.810V0.330ZM0.444 0.354 0.449 0.343Q0.470 0.329 0.521 0.329Q0.611 0.329 0.669 0.383Q0.728 0.437 0.730 0.537V0.809L0.727 0.814L0.590 0.815L0.586 0.810V0.512Q0.579 0.460 0.516 0.456Q0.479 0.456 0.451 0.480L0.444 0.473ZM0.494 0.252Q0.493 0.251 0.491 0.249Q0.491 0.249 0.490 0.248L0.485 0.244Q0.474 0.236 0.459 0.236Q0.441 0.236 0.428 0.249Q0.421 0.256 0.418 0.264V0.268H0.389L0.390 0.259Q0.395 0.242 0.408 0.229Q0.420 0.218 0.434 0.212L0.452 0.209H0.468L0.476 0.210Q0.495 0.214 0.510 0.229Q0.512 0.231 0.513 0.232Q0.524 0.241 0.540 0.241Q0.558 0.241 0.572 0.228Q0.580 0.220 0.583 0.210H0.611Q0.609 0.220 0.605 0.229L0.603 0.232Q0.598 0.240 0.591 0.248Q0.580 0.258 0.567 0.264L0.562 0.265Q0.552 0.268 0.540 0.268Q0.520 0.268 0.508 0.261Q0.501 0.258 0.494 0.252Z" fill="black"/>
</svg>
