<svg xmlns="http://www.w3.org/2000/svg" viewBox="0 0 1 1" preserveAspectRatio="xMidYMid meet">
  <path d="M0.514 0.702 0.519 0.697Q0.555 0.691 0.582 0.661Q0.615 0.625 0.615 0.575Q0.615 0.524 0.582 0.487Q0.555 0.458 0.518 0.452L0.514 0.448V0.335L0.521 0.330Q0.603 0.336 0.663 0.400Q0.730 0.472 0.730 0.573Q0.730 0.674 0.663 0.745Q0.602 0.810 0.517 0.816L0.514 0.812ZM0.337 0.745Q0.270 0.674 0.270 0.573Q0.270 0.472 0.337 0.400Q0.399 0.336 0.482 0.330L0.486 0.334V0.450L0.483 0.453Q0.449 0.459 0.422 0.487Q0.389 0.524 0.389 0.575Q0.389 0.625 0.422 0.661Q0.448 0.689 0.482 0.696L0.486 0.702V0.812L0.482 0.816Q0.399 0.810 0.337 0.745ZM0.494 0.252Q0.493 0.251 0.491 0.249Q0.491 0.249 0.490 0.248L0.485 0.244Q0.474 0.236 0.459 0.236Q0.441 0.236 0.428 0.249Q0.421 0.256 0.418 0.264V0.268H0.389L0.390 0.259Q0.395 0.242 0.408 0.229Q0.420 0.218 0.434 0.212L0.452 0.209H0.468L0.476 0.210Q0.495 0.214 0.510 0.229Q0.512 0.231 0.513 0.232Q0.524 0.241 0.540 0.241Q0.558 0.241 0.572 0.228Q0.580 0.220 0.583 0.210H0.611Q0.609 0.220 0.605 0.229L0.603 0.232Q0.598 0.240 0.591 0.248Q0.580 0.258 0.567 0.264L0.562 0.265Q0.552 0.268 0.540 0.268Q0.520 0.268 0.508 0.261Q0.501 0.258 0.494 0.252Z" fill="black"/>
</svg>
