<svg xmlns="http://www.w3.org/2000/svg" viewBox="0 0 1 1" preserveAspectRatio="xMidYMid meet">
  <path d="M0.668 0.405Q0.730 0.475 0.730 0.573Q0.730 0.674 0.663 0.745Q0.602 0.810 0.517 0.816L0.514 0.812V0.702L0.519 0.697Q0.555 0.691 0.582 0.661Q0.615 0.625 0.615 0.575Q0.615 0.530 0.590 0.497L0.438 0.675Q0.457 0.691 0.482 0.696L0.486 0.702V0.812L0.482 0.816Q0.414 0.811 0.360 0.766L0.318 0.816H0.269L0.333 0.741Q0.270 0.671 0.270 0.573Q0.270 0.472 0.337 0.400Q0.399 0.336 0.482 0.330L0.486 0.334V0.450L0.483 0.453Q0.449 0.459 0.422 0.487Q0.389 0.524 0.389 0.575Q0.389 0.617 0.412 0.649L0.563 0.471Q0.543 0.456 0.518 0.452L0.514 0.448V0.335L0.521 0.330Q0.588 0.335 0.641 0.380L0.683 0.331L0.731 0.331Z" fill="black"/>
</svg>
