<svg xmlns="http://www.w3.org/2000/svg" viewBox="0 0 1 1" preserveAspectRatio="xMidYMid meet">
  <path d="M0.438 0.345Q0.474 0.331 0.516 0.331Q0.609 0.331 0.675 0.402Q0.740 0.473 0.740 0.573Q0.740 0.674 0.675 0.745Q0.609 0.816 0.516 0.816Q0.474 0.816 0.438 0.802V0.673Q0.469 0.701 0.511 0.701Q0.560 0.701 0.594 0.664Q0.629 0.627 0.629 0.574Q0.629 0.522 0.594 0.485Q0.560 0.448 0.511 0.448Q0.469 0.448 0.438 0.475ZM0.403 0.815V0.960L0.398 0.966H0.266L0.260 0.961V0.181H0.404V0.815Z" fill="black"/>
</svg>
